<svg xmlns="http://www.w3.org/2000/svg" width="17.08696" height="25" viewBox="0 0 17.08696 25">
  <defs>
    <style>
      .cls-1 {
        fill: #a1613d;
      }

      .cls-2 {
        fill: #e6a738;
      }

      .cls-10, .cls-2, .cls-5 {
        fill-rule: evenodd;
      }

      .cls-3 {
        fill: #d19730;
      }

      .cls-4 {
        fill: #8f4a21;
      }

      .cls-5 {
        fill: #4971bc;
      }

      .cls-6 {
        fill: #2d5099;
      }

      .cls-7 {
        fill: #a65600;
      }

      .cls-8 {
        fill: #bf7a00;
      }

      .cls-10, .cls-9 {
        fill: #ffc866;
      }

      .cls-11, .cls-12 {
        fill: #c76700;
      }

      .cls-12 {
        opacity: 0.51;
      }
    </style>
  </defs>
  <g id="Layer_2" data-name="Layer 2">
    <g id="Layer_1-2" data-name="Layer 1">
      <g>
        <path class="cls-1" d="M16.04493,6.84717a2.58173,2.58173,0,0,0-2.41211-1.70166H3.45509A2.58109,2.58109,0,0,0,1.04347,6.84717a2.71977,2.71977,0,0,0,.61914,2.88135c.35986.437.78613.89355,1.20312,1.33984l.75537.81543L5.124,10.4873l-1.98388-2.168a.64322.64322,0,0,1-.169-.74463.51847.51847,0,0,1,.48389-.38086H13.63282a.51894.51894,0,0,1,.48438.38135.65854.65854,0,0,1-.18946.76562L11.9629,10.4873l1.50684,1.39942,1.9209-2.1211A2.74452,2.74452,0,0,0,16.04493,6.84717Z"/>
        <path id="path8070" class="cls-2" d="M3.45485,5.64572a2.09288,2.09288,0,0,0-1.94443,1.379,2.23381,2.23381,0,0,0,.53782,2.38572c.47572.57788,1.06985,1.19,1.59968,1.76516l.77226-.7171L2.79292,8.67959a1.1392,1.1392,0,0,1-.2896-1.2825,1.00407,1.00407,0,0,1,.95153-.7033H13.6321a1.00406,1.00406,0,0,1,.95153.7033,1.13919,1.13919,0,0,1-.2896,1.2825q-.81666.88662-1.62725,1.779l.77226.7171,1.59967-1.76516a2.23377,2.23377,0,0,0,.53782-2.38572,2.09286,2.09286,0,0,0-1.94443-1.379H3.45485Z"/>
        <circle class="cls-1" cx="8.54348" cy="17.1413" r="7.8587"/>
        <circle class="cls-3" cx="8.54348" cy="17.1413" r="7.40217"/>
        <path class="cls-4" d="M8.54348,24.19141a7.05005,7.05005,0,1,1,7.0498-7.04981A7.05757,7.05757,0,0,1,8.54348,24.19141Zm0-13.75049a6.70044,6.70044,0,1,0,6.70019,6.70068A6.70841,6.70841,0,0,0,8.54348,10.44092Z"/>
        <polygon class="cls-5" points="0 0 0 2.883 5.065 7.948 12.022 7.948 17.087 2.883 17.087 0 0 0"/>
        <g>
          <rect class="cls-6" x="0.00002" y="1.3316" width="17.08691" height="1"/>
          <polygon class="cls-6" points="0.449 3.332 1.449 4.332 15.638 4.332 16.638 3.332 0.449 3.332"/>
          <polygon class="cls-6" points="13.638 6.332 14.638 5.332 2.449 5.332 3.449 6.332 13.638 6.332"/>
        </g>
        <ellipse class="cls-7" cx="8.54348" cy="16.83696" rx="2.99097" ry="3.7337"/>
        <ellipse class="cls-8" cx="8.54348" cy="16.63261" rx="2.42935" ry="3.03261"/>
        <path class="cls-9" d="M8.54348,19.79c-1.40821,0-2.5542-1.416-2.5542-3.15723s1.146-3.1582,2.5542-3.1582,2.55469,1.417,2.55469,3.1582S9.95168,19.79,8.54348,19.79Zm0-6.06543c-1.27051,0-2.3042,1.30469-2.3042,2.9082A2.66175,2.66175,0,0,0,8.54348,19.54a2.66209,2.66209,0,0,0,2.30469-2.90723C10.84817,15.0293,9.814,13.72461,8.54348,13.72461Z"/>
        <path class="cls-10" d="M9.09782,13.68237a1.90651,1.90651,0,0,0-1.10868,0v2.3959H6.15653a3.64579,3.64579,0,0,0,0,1.10868H7.98914v2.39589a1.90628,1.90628,0,0,0,1.10868,0V17.187h1.8326a3.64494,3.64494,0,0,0,0-1.10868H9.09782Z"/>
        <g>
          <path class="cls-11" d="M3.42359,18.73183a.14042.14042,0,0,0,.05566-.147l-.01313-.05461a.1406.1406,0,0,0-.11918-.10606L2.3378,18.30234c-.05251-.0063-.07088-.0168-.07193-.0315a.14263.14263,0,0,0-.16644-.104l-.05618.0126a.13861.13861,0,0,0-.08821.063.14127.14127,0,0,0-.01733.10606l.09766.40848a.1394.1394,0,0,0,.10344.10291.146.146,0,0,0-.02836.0336.14133.14133,0,0,0-.01732.10606l.11131.46624a.14008.14008,0,0,0,.063.08611.13867.13867,0,0,0,.073.021.11914.11914,0,0,0,.03308-.0042l.05618-.01365a.13921.13921,0,0,0,.08663-.063.14213.14213,0,0,0,.01576-.106l-.00473-.02731ZM2.31785,18.819a.14626.14626,0,0,0,.02835-.03361.1397.1397,0,0,0,.01733-.10606l-.01-.0168.36543.042-.29927.21106A.13763.13763,0,0,0,2.31785,18.819Z"/>
          <path class="cls-11" d="M2.87229,14.19544a.1385.1385,0,0,0,.10449.02415.14061.14061,0,0,0,.09083-.05776l.02468-.03465.608.42529-.02468.0357a.13874.13874,0,0,0,.03361.19322l.04725.0336a.133.133,0,0,0,.08086.02625l.02363-.0021a.14063.14063,0,0,0,.09083-.05775l.30347-.43264a.13846.13846,0,0,0,.00683-.14911.351.351,0,0,0,.05723-.01471.30078.30078,0,0,0,.14491-.11446.313.313,0,0,0,.05933-.20476.13969.13969,0,0,0,.11761-.03466l.68834-.63635a.14054.14054,0,0,0,.01155-.19322L5.067,12.67753a.14159.14159,0,0,0-.09818-.04936.12734.12734,0,0,0-.10291.03676l-.04043.03728a.14115.14115,0,0,0-.04515.11131l-.08506-.09189a.14022.14022,0,0,0,.07351-.0357l.0378-.03518a.13962.13962,0,0,0,.0021-.20267l-.2767-.26724a.14.14,0,0,0-.19216-.0021l-.66156.6122a.13985.13985,0,0,0-.00788.19689l.03938.043a.13776.13776,0,0,0,.09714.04516.15517.15517,0,0,0,.1008-.0378l.01471-.01366.50456.545-.0147.01365a.19749.19749,0,0,0-.02677.03361q-.02364-.02206-.052-.04411a.13876.13876,0,0,0-.20162.0294l-.0294.04306a.12977.12977,0,0,0-.02048.0441.69539.69539,0,0,0-.137-.03675l-.01837-.001a.398.398,0,0,0-.02888-.16277.40459.40459,0,0,0-.47517-.22787.533.533,0,0,0-.294.22682l-.33708.481a.13872.13872,0,0,0,.0336.19321Zm1.425-1.41763-.04988-.05355.02678-.02468A.13627.13627,0,0,0,4.29727,12.77781Zm.45416.49145L4.6816,13.1947a.13468.13468,0,0,0,.11866.0294Zm-1.31419.39588a.17418.17418,0,0,1,.06773.0336c.03361.0231.04568.042.04568.04936a.25678.25678,0,0,1-.05093.12181l-.15331-.10711C3.40259,13.684,3.42464,13.66619,3.43724,13.66514Zm.54133.49039-.02363.03466-.17642-.12392a.23774.23774,0,0,1,.03571-.021.39606.39606,0,0,1,.08663.03781c.03833.021.06983.0378.09661.0504Z"/>
          <path class="cls-11" d="M5.035,21.24785a.13968.13968,0,0,0-.09714-.03886.15336.15336,0,0,0-.10133.04306l-.0399.042a.14072.14072,0,0,0,.00525.19847l.0147.0126-.03781.01785-.18639-.17957.01575-.0399a.13481.13481,0,0,0,.07981.0252.1503.1503,0,0,0,.10134-.04305l.0399-.042a.14043.14043,0,0,0-.0042-.19742l-.3145-.30243a.11208.11208,0,0,0-.01628-.0315L3.95809,19.931a.13942.13942,0,0,0-.18692-.04095l-.37541.22577a.13919.13919,0,0,0-.0441.19742l.03045.04515a.13909.13909,0,0,0,.17379.04935.51649.51649,0,0,1,.22945-.05985.13592.13592,0,0,1,.09608.06615l.07088.08611-.62113.42529-.02572-.03675a.13758.13758,0,0,0-.19374-.03676l-.04778.03255a.14424.14424,0,0,0-.05881.08926.14017.14017,0,0,0,.02258.105l.29822.43474a.13914.13914,0,0,0,.19375.03675l.04777-.03255a.14209.14209,0,0,0,.05881-.08926.14014.14014,0,0,0-.02258-.105l-.02205-.03255.6122-.42.02206.03151.0126.0168a.14311.14311,0,0,0,.03675.0567l.0105.00945-.41741,1.00809a.13984.13984,0,0,0,.03255.15436l.03728.03571a.14127.14127,0,0,0,.09661.03885.13736.13736,0,0,0,.05723-.0126l.94823-.42739c.03938-.0168.05513-.0189.06878-.00525a.13916.13916,0,0,0,.19637-.00315l.0399-.04095a.14072.14072,0,0,0-.00315-.19847Z"/>
          <path class="cls-11" d="M2.9332,18.023c.0399.0147.052.0252.05093.0441a.13927.13927,0,0,0,.13966.13651h.00263l.05775-.001a.13984.13984,0,0,0,.137-.14281l-.00945-.41269a.14.14,0,0,0-.13966-.13651H3.16947l-.05775.001a.139.139,0,0,0-.09819.04306.14064.14064,0,0,0-.03885.10081l.00157.01995-.03937-.01365-.00631-.26148.03886-.0168a.14383.14383,0,0,0,.041.07771.15685.15685,0,0,0,.09976.03885l.05776-.001a.13984.13984,0,0,0,.137-.14281l-.01-.43684a.14732.14732,0,0,0,.0105-.0336l.16854-.93248a.13931.13931,0,0,0-.105-.16067l-.15332-.0378a.65791.65791,0,0,0,.29508-.11551.61807.61807,0,0,0,.21632-.26882.64053.64053,0,0,0,.03938-.34968.6822.6822,0,0,0-.15279-.33183.8141.8141,0,0,0-.3103-.22262.7636.7636,0,0,0-.37594-.06091.66249.66249,0,0,0-.56022.40639v.001a.61263.61263,0,0,0-.03518.34128.69.69,0,0,0,.15227.32448.78953.78953,0,0,0,.30662.22052c.01208.00525.02363.00945.03571.01365A.14.14,0,0,0,2.77254,15.8l-.00945.05251a.14062.14062,0,0,0,.08925.15646.4375.4375,0,0,1,.20477.12076.13319.13319,0,0,1,.022.11236l-.02047.10921L2.32835,16.22l.00787-.0441a.14053.14053,0,0,0-.11236-.16277l-.0567-.0105a.15189.15189,0,0,0-.10449.0231.13941.13941,0,0,0-.05828.08926l-.09345.51875a.14093.14093,0,0,0,.11236.16276l.0567.0105a.13441.13441,0,0,0,.10448-.0231.139.139,0,0,0,.05829-.09031l.00682-.03885.73086.13231-.00682.0399-.0021.01786a.1445.1445,0,0,0-.01418.06615l.00053.0147-1.00547.42214a.13989.13989,0,0,0-.08558.13231l.001.05145a.14031.14031,0,0,0,.09084.12812Zm-.18639-3.165a.191.191,0,0,1,.10186-.02415l.01942.001a.81217.81217,0,0,1,.26463.07351.72925.72925,0,0,1,.221.12916.22638.22638,0,0,1,.07036.104.15241.15241,0,0,1-.01.09451.15777.15777,0,0,1-.11026.0945c-.03675.01155-.12548.01681-.3334-.0693a.54281.54281,0,0,1-.272-.18377.1486.1486,0,0,1-.01312-.147A.14557.14557,0,0,1,2.74681,14.858Z"/>
          <path class="cls-11" d="M12.10312,13.49292a.13669.13669,0,0,0,.09766.042l.01785-.001a.14227.14227,0,0,0,.03885.11656l.03571.03675a.13669.13669,0,0,0,.0987.042.13781.13781,0,0,0,.03991.09975l.36228.37279a.13661.13661,0,0,0,.09976.042.13842.13842,0,0,0,.09661-.03885l.042-.03991a.14216.14216,0,0,0,.043-.09766.13868.13868,0,0,0-.03885-.09975l-.0336-.02416.53764-.524.02731.02835a.13941.13941,0,0,0,.19741.0021l.041-.0399a.13944.13944,0,0,0,.0021-.19742l-.26988-.27722a.14157.14157,0,0,0-.15856-.02941l-.51454.24047.24467-.52189a.14055.14055,0,0,0-.02731-.157l-.26462-.27145a.13941.13941,0,0,0-.09871-.042h-.001a.13523.13523,0,0,0-.09766.04043l-.041.04043a.14011.14011,0,0,0-.00315.19636l.03465.0252-.50929.4946c-.01155.01155-.021.0189-.02415.0231a.30759.30759,0,0,1-.041-.0315.14281.14281,0,0,0-.19006.00525l-.041.0399a.13944.13944,0,0,0-.0021.19742Zm.59645.12812-.01365-.01366.0546-.02625Zm-.38013-.39589a.2101.2101,0,0,1,.03045-.0357l.043-.041-.0504.105Z"/>
          <path class="cls-11" d="M13.924,14.02532l-.63741.38013-.02205-.03675a.14035.14035,0,0,0-.19112-.04725l-.04935.0294a.14152.14152,0,0,0-.06406.08506.1384.1384,0,0,0,.01575.10606l.26883.45048a.139.139,0,0,0,.11971.06826.14149.14149,0,0,0,.07035-.0189l.05041-.0294a.13991.13991,0,0,0,.04935-.19322l-.021-.0357.63741-.38014.021.03571a.13918.13918,0,0,0,.19111.04725l.04936-.0294a.14153.14153,0,0,0,.064-.08506.13835.13835,0,0,0-.01575-.10606l-.26882-.45049a.14.14,0,0,0-.19112-.0483l-.04935.0294a.137.137,0,0,0-.06406.08611.13979.13979,0,0,0,.01575.10606Z"/>
          <path class="cls-11" d="M14.44482,15.00191l.0126.0399-.70251.24257-.0126-.0378a.14254.14254,0,0,0-.07141-.08086.1357.1357,0,0,0-.1071-.0063l-.05461.0189a.13989.13989,0,0,0-.08611.17747l.30978.89572a.14069.14069,0,0,0,.13231.09451.15617.15617,0,0,0,.0378-.00525l.42214-.11761a.13843.13843,0,0,0,.08506-.06825.137.137,0,0,0,.00945-.10921l-.0168-.05146a.13444.13444,0,0,0-.15542-.09451.46311.46311,0,0,1-.23732-.0042.13428.13428,0,0,1-.0735-.08925l-.04516-.10186.70987-.24467.0147.042a.14262.14262,0,0,0,.0714.08086.14432.14432,0,0,0,.10711.0063l.05461-.01891a.1406.1406,0,0,0,.0861-.17851l-.17221-.49774a.13833.13833,0,0,0-.17642-.08611l-.05355.01785a.13945.13945,0,0,0-.08821.17642Z"/>
          <path class="cls-11" d="M14.84281,16.64005l.0021.042-.74137.04305-.0021-.041a.14311.14311,0,0,0-.0462-.09661.166.166,0,0,0-.10081-.0357l-.05776.00315a.14011.14011,0,0,0-.13231.14806l.03046.52295a.14015.14015,0,0,0,.13966.13126h.00735l.05775-.00315a.13587.13587,0,0,0,.09661-.04725.1374.1374,0,0,0,.0357-.10081l-.00315-.041.74242-.04305.0021.042a.13785.13785,0,0,0,.04725.09661.1516.1516,0,0,0,.10291.03465l.05776-.0042a.1409.1409,0,0,0,.12916-.14806l-.0315-.52294a.13836.13836,0,0,0-.147-.13127l-.0567.00315a.1389.1389,0,0,0-.09661.04621A.14139.14139,0,0,0,14.84281,16.64005Z"/>
          <path class="cls-11" d="M15.10743,17.56518l-.42214-.08506a.13626.13626,0,0,0-.10816.0231.13922.13922,0,0,0-.05775.09556l-.00735.05566a.1402.1402,0,0,0,.09871.15226.50769.50769,0,0,1,.20161.09241l.0084.00945-.70461-.09976.0063-.04411a.13944.13944,0,0,0-.11866-.15856l-.05775-.0084a.12241.12241,0,0,0-.104.0273.13891.13891,0,0,0-.05461.09136l-.0735.52295a.14057.14057,0,0,0,.11866.15856l.0567.0084a.13777.13777,0,0,0,.15857-.11761l.0063-.04515.70986.1008a.486.486,0,0,1-.22892.041h-.00525a.14018.14018,0,0,0-.13861.12076l-.00735.0525a.13894.13894,0,0,0,.0294.10606.14594.14594,0,0,0,.09661.05251l.42843.0378H14.951a.14006.14006,0,0,0,.13861-.11971l.12916-.91358A.13932.13932,0,0,0,15.10743,17.56518Z"/>
          <path class="cls-11" d="M14.03,18.757c-.03151-.02835-.03781-.042-.03151-.06195a.14561.14561,0,0,0-.0063-.10711.14386.14386,0,0,0-.0798-.07141l-.05461-.0189a.13728.13728,0,0,0-.17746.08506l-.13967.38853a.14045.14045,0,0,0,.00525.10711.13866.13866,0,0,0,.07876.0714l.05566.02a.13336.13336,0,0,0,.10816-.00525.14262.14262,0,0,0,.0714-.08086l.00525-.0168.03045.02625-.08715.24257-.04306.00105a.14006.14006,0,0,0-.01155-.08506.13411.13411,0,0,0-.0798-.0714l-.05356-.0189a.13774.13774,0,0,0-.17746.084l-.15437.42634a.14045.14045,0,0,0,.00525.10711.13361.13361,0,0,0,.05014.04542.14387.14387,0,0,0-.069-.016.13523.13523,0,0,0-.09136.05671l-.30767.42948a.13765.13765,0,0,0-.02416.105.16427.16427,0,0,0,.01576.04516.41577.41577,0,0,0-.05776.01365.30726.30726,0,0,0-.14491.11236c-.05461.07665-.15122.27722.125.50089a.13153.13153,0,0,0,.10711.0294.14151.14151,0,0,0,.09556-.05775L13.023,21a.1393.1393,0,0,0,.01995-.0441.64545.64545,0,0,0,.13441.03675l.021.0021a.40266.40266,0,0,0,.02836.16382.38909.38909,0,0,0,.13546.16906.39248.39248,0,0,0,.33708.06406.5459.5459,0,0,0,.29612-.22577l.34128-.47779a.13513.13513,0,0,0,.02415-.104.13688.13688,0,0,0-.0567-.09031l-.04725-.0336a.13913.13913,0,0,0-.19427.03255l-.0252.03465-.60486-.43158.02521-.03676a.13849.13849,0,0,0-.03013-.18928l.00072.00027a.14957.14957,0,0,0,.04726.0084.13859.13859,0,0,0,.13231-.09451l1.09419-.04515a.141.141,0,0,0,.12707-.09136l.01785-.04831a.141.141,0,0,0-.03886-.15331Zm-.33813,2.22829c-.00945.001-.02941-.0042-.07141-.0336-.03465-.0252-.04515-.0441-.04515-.04935a.24045.24045,0,0,1,.05355-.12181l.15121.10816C13.72446,20.96537,13.70031,20.98532,13.69191,20.98532Zm-.5408-.49564.02415-.03255.17537.12391a.18967.18967,0,0,1-.03676.021.35134.35134,0,0,1-.08715-.0399q-.05514-.02992-.09451-.05041A.0955.0955,0,0,0,13.15111,20.48968Z"/>
          <path class="cls-11" d="M13.32227,21.75819a.13981.13981,0,0,0-.19846-.01365l-.01575.01365-.4904-.55655.01576-.0147a.14028.14028,0,0,0,.01155-.19637l-.03781-.04305a.13971.13971,0,0,0-.09556-.04725.15377.15377,0,0,0-.10185.03465l-.70357.61955a.14054.14054,0,0,0-.0168.19217l.26568.33078a.14175.14175,0,0,0,.0966.0525.145.145,0,0,0,.105-.03465l.042-.03675a.14187.14187,0,0,0,.04725-.10921l.08191.09346a.13558.13558,0,0,0-.07456.03465l-.03885.03465a.13778.13778,0,0,0-.04621.09976.14433.14433,0,0,0,.03991.10291l.26987.273a.14128.14128,0,0,0,.19217.0063l.67626-.5954a.14037.14037,0,0,0,.01365-.19637Zm-.546.293-.0273.02415a.13736.13736,0,0,0-.02206-.07981Zm-.49145-.55655.06511.0735a.13579.13579,0,0,0-.08926-.03255l-.0252.0021Z"/>
        </g>
        <g>
          <circle class="cls-11" cx="8.54421" cy="11.30074" r="0.21866"/>
          <path class="cls-11" d="M9.9088,11.45774a.67311.67311,0,0,0-.65038-.03365.51506.51506,0,0,0-.56066-.04485L8.61541,11.347l.00283-.05685-.074.029-.074-.029L8.473,11.347l-.08234.03223a.51509.51509,0,0,0-.56067.04485.6731.6731,0,0,0-.65038.03365.56277.56277,0,0,0,.04052.92551l.066-.135a.44977.44977,0,0,1-.10091-.51582.43749.43749,0,0,1,.55507-.20184s-.19064.129-.16821.63355l.17851.05292.14375-.15831a.40778.40778,0,0,1,.01975-.46649.59956.59956,0,0,0,.45415-.028,3.595,3.595,0,0,1,.06776.55652l.07612.01448.00061.01209.03148-.006.03147.006.0006-.01209.07612-.01448a3.59376,3.59376,0,0,1,.06776-.55652.59958.59958,0,0,0,.45416.028.40775.40775,0,0,1,.01972.46649l.14378.15831.1785-.05292c.02243-.50459-.1682-.63355-.1682-.63355a.43748.43748,0,0,1,.55506.20184.44975.44975,0,0,1-.10091.51582l.066.135A.56277.56277,0,0,0,9.9088,11.45774Z"/>
          <path class="cls-11" d="M9.84885,12.02962a.50918.50918,0,0,0-.40929-.19063c-.19063.02243-.43172-.14016-.79054-.05607l-.11214.04535-.11214-.04535c-.35882-.08409-.59991.0785-.79054.05607a.50916.50916,0,0,0-.40929.19063A.83458.83458,0,0,0,7.152,12.338l.25461.31792a.43757.43757,0,0,1,.04281.20342.358.358,0,0,1,.05495.19492.13846.13846,0,0,0,.075.12256,3.54043,3.54043,0,0,0,.99328.15534l.0035.00382.04073-.00182.049.00182-.00173-.00444a2.58888,2.58888,0,0,0,.84184-.15811.1239.1239,0,0,0,.06323-.10734.36871.36871,0,0,1,.05515-.20675.43757.43757,0,0,1,.04281-.20342l.25461-.31792A.83458.83458,0,0,0,9.84885,12.02962Z"/>
          <path class="cls-11" d="M8.74993,10.86528a.0941.0941,0,0,0-.07.03178H8.61538v-.05587a.0953.0953,0,1,0-.16259-.06747.09361.09361,0,0,0,.02241.05924v.0641H8.41382a.09357.09357,0,0,0-.075-.03925.09532.09532,0,1,0,.06749.16259H8.4752v.30838h.14018V11.0204h.062a.09369.09369,0,0,0,.07251.03552.09532.09532,0,0,0,0-.19064Z"/>
          <path class="cls-9" d="M9.90658,11.38058a.644.644,0,0,0-.65038-.03541.49384.49384,0,0,0-.56066-.04721l-.0021-.00087a.15332.15332,0,0,0,.00756-.03746.159.159,0,1,0-.318,0,.15285.15285,0,0,0,.00756.03746l-.0021.00087a.49387.49387,0,0,0-.56067.04721.644.644,0,0,0-.65038.03541.608.608,0,0,0,.02919.963l.24242.35885a1.11957,1.11957,0,0,1,.10827.42611s.68718-.07329.98472-.078c.29753.00475.9847.078.9847.078a1.1199,1.1199,0,0,1,.10828-.42611l.24242-.35885A.608.608,0,0,0,9.90658,11.38058Zm-2.1277,1.28123c-.05632.02379-.12471-.06592-.12471-.06592l-.07979.01682s.0513.08971-.01139.09532a.08891.08891,0,0,1-.08612-.05867s.09182-.05347.01774-.17681-.14248-.08972-.14248-.08972a1.17681,1.17681,0,0,0-.07446-.15663l.00626-.01347a.4891.4891,0,0,1-.10092-.543.427.427,0,0,1,.55507-.21248s-.19063.13574-.1682.6669l.14251.04446-.09812.02915.1026.11213-.10894-.02136.069.17275.09689-.04485.00569.1626.05226-.00923A.1084.1084,0,0,1,7.77888,12.66181Zm.59335-.0491c-.10827.028-.15388-.11213-.15388-.11213H8.13857s-.02849.14016-.10256.14577c-.0474.00358-.08991-.05-.11455-.08917a.16561.16561,0,0,1,.05755-.00053c.0228.0112-.08549-.1626-.08549-.1626l.15957.05046-.04559-.2467-.114.10654.02279-.19625-.14251.04233.11834-.13717a.44773.44773,0,0,1,.01974-.49105.572.572,0,0,0,.45415-.02949,4.12135,4.12135,0,0,1,.06758.57325.17509.17509,0,0,0-.04428.115s-.09118-.0056-.114.13457.19376.11213.19376.11213S8.48052,12.58467,8.37223,12.61271Zm.81824-.21866s-.10829.1738-.08548.1626a.16549.16549,0,0,1,.05753.00053c-.02462.0392-.06713.09275-.11453.08917-.07409-.00561-.10257-.14577-.10257-.14577H8.86563s-.0456.14016-.15387.11213-.09689-.185-.09689-.185.21656.028.19377-.11213-.114-.13457-.114-.13457a.175.175,0,0,0-.04429-.115,4.11974,4.11974,0,0,1,.06758-.57325.572.572,0,0,0,.45416.02949.44772.44772,0,0,1,.01973.49105l.11834.13717-.14251-.04233.0228.19625-.114-.10654-.0456.2467Zm.60959-.18132.00627.01348a1.17809,1.17809,0,0,0-.07447.15662s-.06839-.03364-.14247.08972.01773.17681.01773.17681A.08892.08892,0,0,1,9.521,12.708c-.0627-.00561-.01141-.09532-.01141-.09532l-.07978-.01682s-.0684.08971-.12471.06592a.10841.10841,0,0,1-.05292-.092l.05224.00923.00571-.1626.09689.04485.069-.17275-.10893.02136.10258-.11213-.09811-.02915.14251-.04446c.02243-.53116-.1682-.6669-.1682-.6669a.427.427,0,0,1,.55506.21248A.48908.48908,0,0,1,9.80006,12.21273Z"/>
        </g>
        <path class="cls-12" d="M4.91746,16.41907a9.56484,9.56484,0,0,1,0-2.6975,2.7309,2.7309,0,0,1,.329,1.11848A5.3092,5.3092,0,0,1,6.25524,13.283l-.307.87723.48247-.26317A8.04862,8.04862,0,0,0,5.0929,16.63838a2.30063,2.30063,0,0,1,.5702-.9211,8.6279,8.6279,0,0,0-.35089,2.78522A1.19945,1.19945,0,0,1,5.50959,18.02c.15351-.19738.74565,1.05268.74565,1.05268l-.59214-.61406a3.8855,3.8855,0,0,0,.48248,1.88605,4.19162,4.19162,0,0,1-.02193-.89916,3.63129,3.63129,0,0,0,.87724,1.66674,2.06335,2.06335,0,0,1-.04386-.965,2.60382,2.60382,0,0,0,1.22812,1.73254s1.71061.78951,1.99571.83338.83337.13158.83337.13158a1.43431,1.43431,0,0,1-.48247.2851,1.97145,1.97145,0,0,1-.78952-.13158l-2.03957-.943a2.48687,2.48687,0,0,0-1.46936-.19738s.15351-.35089.46055-.307a4.4075,4.4075,0,0,0-.89917-.19738c0,.06579-.19738.98689-.19738.98689A9.54762,9.54762,0,0,1,5.378,20.95876a2.804,2.804,0,0,1,.46055.02193L5.071,20.47628l.04386.87723-.50441-1.03075s.15352-.307.21931-.26317.76758.307.76758.307a5.38769,5.38769,0,0,0-1.4913-1.272s.59214-.15351.81145.04387-.61407-1.272-.70179-1.31586-.37283.89917-.37283.89917l.0658-1.64482a4.93484,4.93484,0,0,1,.89916,1.03075,11.67115,11.67115,0,0,1-.46055-1.88605l.46055.8553L4.30339,15.5857l-.54827,1.00882a11.75746,11.75746,0,0,1,.329-1.71061A13.20161,13.20161,0,0,1,4.91746,16.41907Z"/>
        <path class="cls-12" d="M6.03593,22.69129l.81144.39476s3.2677-1.29392,3.57473-1.53516a1.90541,1.90541,0,0,0,1.272.37282,2.60046,2.60046,0,0,0-1.272-.81144,5.22119,5.22119,0,0,0,1.908-.17544l-.26317-.39476a1.82757,1.82757,0,0,0,.48248-.65793c.06579-.2851-.48248-.26317-.48248-.26317l-.2851.13159.35089-.43862s1.00882-.39475,1.2062-.98689l-.307.02193.13159-.65792-.54827.24124.10965-.59214a1.98934,1.98934,0,0,0,.70179-1.25005l-.26317.08772a1.69944,1.69944,0,0,0-.02193-.65793,3.50949,3.50949,0,0,0-.59213,1.00882,2.31235,2.31235,0,0,0,0-.70178,2.20685,2.20685,0,0,0,.35089-1.38165l-.21931.04386-.15352-.46055a3.611,3.611,0,0,0-.26317,1.00882l-.13158-.19737s.35089-.9211-.04386-1.2062l-.24124.2851-.3509-.43862-.06579.3509-.37282-.26317.17544.636-.37282.08772a1.84215,1.84215,0,0,0,1.03075.76758,1.308,1.308,0,0,1,.41669.70179l-.50441-.329.08772.5702-.43862-.307a2.22231,2.22231,0,0,0,.67986,1.73254l-.04386.48248-.59214-.46055-.08772.50441-.2851-.37283a2.85882,2.85882,0,0,0,.50441,1.62289l-.06579.54827-.26317.2851.04386-.5702-.329.17545-.13158-.41669s-.50441.17545-.46055,1.53516c0,0-.5702.54827-.65792.65792A5.19362,5.19362,0,0,1,8.865,21.836,23.61781,23.61781,0,0,1,6.03593,22.69129Z"/>
        <path class="cls-12" d="M8.21891,21.74769s-.636-.329-.5702-.65792.04386-.41669.46055-.329a7.062,7.062,0,0,0,.98689,0c.13158.04387.26317.48248.21931.67986s-.52634.26317-.52634.26317.329-.37282.10965-.43862-.636-.02193-.65793.04387A3.41169,3.41169,0,0,0,8.21891,21.74769Z"/>
        <path class="cls-10" d="M11.93478,14.962a1.4788,1.4788,0,0,1-.75815-1.22283A1.47576,1.47576,0,0,1,11.93478,14.962Z"/>
        <path class="cls-10" d="M12.08152,15.03533a5.973,5.973,0,0,1-1.46739,5.894l.46467-.14674A5.55054,5.55054,0,0,0,12.08152,15.03533Z"/>
        <path class="cls-10" d="M11.71467,16.087a2.80868,2.80868,0,0,0,.53805,1.44293A1.94191,1.94191,0,0,0,11.71467,16.087Z"/>
        <path class="cls-10" d="M13.08424,15.64674a4.06848,4.06848,0,0,0-.70924,1.29619A1.729,1.729,0,0,0,13.08424,15.64674Z"/>
        <path class="cls-10" d="M12.35054,18.45924s.19565-.5625.5625-.66033A.7479.7479,0,0,1,12.35054,18.45924Z"/>
        <path class="cls-10" d="M11.86141,19.07065a3.7974,3.7974,0,0,1-.36685-1.46739,1.41386,1.41386,0,0,1,.61142,1.02717Z"/>
        <path class="cls-10" d="M10.73641,20.856a1.09245,1.09245,0,0,1,.02446-1.00272s.36685.44022.34239.66033S10.73641,20.856,10.73641,20.856Z"/>
        <path class="cls-10" d="M6.22826,22.6087a17.00934,17.00934,0,0,0,3.913-1.40218s-2.44565,1.5-3.61956,1.5Z"/>
        <path class="cls-10" d="M5.31522,16.28261A4.62827,4.62827,0,0,0,5.413,19.96739L6,20.42391A6.15109,6.15109,0,0,1,5.31522,16.28261Z"/>
        <path class="cls-10" d="M4.34725,16.22169a2.69033,2.69033,0,0,0,.67449,2.01744l-.06522-.68478A6.21524,6.21524,0,0,1,4.34725,16.22169Z"/>
        <path class="cls-10" d="M5.46363,20.14416a2.69032,2.69032,0,0,0-1.58556-1.41809l.396.56247A6.21514,6.21514,0,0,1,5.46363,20.14416Z"/>
        <path class="cls-10" d="M5.02174,15.76087a4.29414,4.29414,0,0,1,1.04348-2.25A8.75643,8.75643,0,0,1,5.02174,15.76087Z"/>
        <path class="cls-10" d="M6.163,19.86957s-.35869.42391.29348,1.17391a2.83693,2.83693,0,0,0,1.72863.83637A3.29806,3.29806,0,0,1,6.163,19.86957Z"/>
        <path class="cls-10" d="M4.79348,14.78261s-.55831.61051.01432,2.29438A4.54681,4.54681,0,0,0,4.79348,14.78261Z"/>
        <g>
          <path class="cls-9" d="M3.48256,18.52a.07444.07444,0,0,0,.02979-.0791l-.0127-.05274a.075.075,0,0,0-.06347-.05664l-.98047-.11914a.24314.24314,0,0,1-.09619-.02637c-.0127-.00878-.01856-.01562-.01953-.0205l-.00782-.03125a.07453.07453,0,0,0-.08984-.05469l-.05469.01269a.07561.07561,0,0,0-.04687.03418A.074.074,0,0,0,2.132,18.183l.09473.39747a.07517.07517,0,0,0,.08984.05566l.05469-.0127a.07554.07554,0,0,0,.04687-.03418.07394.07394,0,0,0,.00879-.05664l-.01758-.07421-.05469.01367-.00048-.00391.06543-.02734A.04579.04579,0,0,1,2.444,18.437l.55176.06445-.49072.3418-.00342.002L2.48305,18.768a.07379.07379,0,0,0-.03418-.04688.06554.06554,0,0,0-.05713-.00781l-.0542.01367a.07426.07426,0,0,0-.05419.08984l.10791.45313a.0746.0746,0,0,0,.07275.05762l.01709-.002.05469-.01269a.07558.07558,0,0,0,.04687-.03418.074.074,0,0,0,.00879-.05664l-.0083-.03614a.05764.05764,0,0,1-.00146-.02832.09205.09205,0,0,1,.02929-.02734Z"/>
          <path class="cls-9" d="M3.13735,17.86566a.0998.0998,0,0,1,.01367.05664.07583.07583,0,0,0,.0752.07324h.00244l.05615-.00195a.0761.0761,0,0,0,.07275-.07715l-.00927-.40039a.07515.07515,0,0,0-.0752-.07324H3.27163l-.05567.001a.07577.07577,0,0,0-.07373.07617l.00049.03808a.10524.10524,0,0,1-.01074.0586.1904.1904,0,0,1-.06006-.01367L2.984,17.57172l-.00732-.335.15625-.06641a.26766.26766,0,0,1,.00195.03125l.00049.03516a.07759.07759,0,0,0,.02343.05371.07854.07854,0,0,0,.05176.0205H3.213l.05616-.002a.07611.07611,0,0,0,.07275-.07715l-.01025-.44043a.08827.08827,0,0,0,.01123-.02832L3.507,15.8559a.07577.07577,0,0,0-.05615-.08692l-.41455-.10058a.07226.07226,0,0,0-.0586.01074A.07387.07387,0,0,0,2.945,15.728l-.00928.05175a.0753.0753,0,0,0,.04785.084.48544.48544,0,0,1,.227.13769.194.194,0,0,1,.03223.15625l-.02832.1543-.002.0127-.832-.14649L2.4,16.07172a.07771.07771,0,0,0-.0122-.05664.0756.0756,0,0,0-.04834-.03125l-.05518-.00977-.01318-.001a.0748.0748,0,0,0-.07373.06153l-.09131.50488a.07771.07771,0,0,0,.01221.05664.07568.07568,0,0,0,.04834.03125l.05517.00977a.076.076,0,0,0,.08692-.06055l.01855-.09863.83057.13867a.07256.07256,0,0,1-.00147.02051l-.01611.08886a.08164.08164,0,0,0-.00049.02442.07366.07366,0,0,0-.01465.0459l.001.03418c.00049.02246-.00537.02539-.0127.02832L2.11,17.27875a.07509.07509,0,0,0-.04639.07129l.00146.05078a.07632.07632,0,0,0,.04883.06836l.94824.35351A.168.168,0,0,1,3.13735,17.86566Zm-.36328-.373-.2168-.081.21289-.08984Z"/>
          <path class="cls-9" d="M2.92592,15.56293a.74131.74131,0,0,0,.28125.05761c.01954,0,.03907-.001.0586-.002a.60769.60769,0,0,0,.30127-.10742.53711.53711,0,0,0,.18994-.23535.56889.56889,0,0,0,.03467-.30762.60761.60761,0,0,0-.13526-.292.746.746,0,0,0-.61523-.25488.58922.58922,0,0,0-.49463.35742v.001a.5324.5324,0,0,0-.03027.29786.5911.5911,0,0,0,.13476.28711A.69356.69356,0,0,0,2.92592,15.56293Zm.05518-.84571a.88411.88411,0,0,1,.27783.07618.80254.80254,0,0,1,.23291.13671.286.286,0,0,1,.08594.13379.20587.20587,0,0,1-.01318.12891.20923.20923,0,0,1-.145.125.54789.54789,0,0,1-.36475-.06836.60454.60454,0,0,1-.29492-.20508.21377.21377,0,0,1,.06738-.2959A.22839.22839,0,0,1,2.9811,14.71722Z"/>
          <path class="cls-9" d="M5.01772,12.69232a.086.086,0,0,0-.05518.01953l-.03955.03662a.07493.07493,0,0,0-.00976.09913c.15185.20947.08789.314.01562.38134l-.11963.11426-.23242-.251.0083-.00781a.08564.08564,0,0,1,.0752-.0293c.01709.00147.05469.01368.11572.07618a.07539.07539,0,0,0,.10449.00244l.03809-.03516a.07383.07383,0,0,0,.02393-.05224.07477.07477,0,0,0-.01954-.05372l-.34814-.376a.07542.07542,0,0,0-.106-.0044l-.03808.03516a.07544.07544,0,0,0-.00586.10449.19353.19353,0,0,1,.05761.11084.08224.08224,0,0,1-.02978.0669l-.01465.01367-.20508-.22217.14307-.13232a.13991.13991,0,0,1,.11475-.04346.41537.41537,0,0,1,.19775.10205.076.076,0,0,0,.09717-.00488l.03662-.03418a.07541.07541,0,0,0,.02392-.0542.07728.07728,0,0,0-.02295-.05469l-.269-.25928a.074.074,0,0,0-.103-.00146l-.64355.5957a.07385.07385,0,0,0-.02393.05225.07591.07591,0,0,0,.01954.0542l.03808.041a.07678.07678,0,0,0,.106.00391l.05957-.05469.57324.62012-.00342.00293-.05517.05078a.07614.07614,0,0,0-.0044.10644l.03809.041a.07389.07389,0,0,0,.106.00391l.66943-.61914a.07478.07478,0,0,0,.00635-.10352l-.2666-.31494A.07384.07384,0,0,0,5.01772,12.69232Z"/>
          <path class="cls-9" d="M3.01723,14.10687a.07833.07833,0,0,0,.10449-.01855l.05957-.084.69141.48438-.05957.085a.07433.07433,0,0,0-.01221.05566.07534.07534,0,0,0,.03077.04883l.04589.03223a.07608.07608,0,0,0,.043.01367l.01319-.001a.07685.07685,0,0,0,.04834-.03125L4.27749,14.27a.075.075,0,0,0-.01856-.10449l-.0459-.03223a.1061.1061,0,0,0-.05615-.0127.07568.07568,0,0,0-.04834.03125l-.0581.084-.27686-.19434.00879-.01269a.211.211,0,0,1,.06641-.06446.10442.10442,0,0,1,.04931-.01464c.01221-.001.03272.001.11328.043a.94942.94942,0,0,0,.21094.09961.22864.22864,0,0,0,.25879-.09277c.05273-.07519.10742-.22754-.11572-.40234a.07346.07346,0,0,0-.05713-.01465.07479.07479,0,0,0-.05029.03027l-.0293.041a.07536.07536,0,0,0,.01416.10254l.01221.00976-.03321-.01269a.87322.87322,0,0,0-.20019-.06348.2997.2997,0,0,0-.0835.00195l.0044-.02246a.33374.33374,0,0,0-.01954-.17773.32209.32209,0,0,0-.11279-.1377.30924.30924,0,0,0-.27734-.04883.46767.46767,0,0,0-.252.19727l-.32812.46777a.07521.07521,0,0,0,.01855.1045Zm.46924-.51758a.09031.09031,0,0,1,.05225-.00976.21831.21831,0,0,1,.09375.04394c.07129.04981.07031.08692.06982.09864a.29979.29979,0,0,1-.064.15625l-.03223.0459-.24658-.17286c.00586-.00976.01562-.02539.03027-.04687A.49068.49068,0,0,1,3.48647,13.58929Z"/>
          <path class="cls-9" d="M5.04311,21.06293a.07517.07517,0,0,0-.10547.001l-.03906.04a.07961.07961,0,0,0-.02148.05371A.075.075,0,0,0,4.9,21.21039l.02833.02734a.09127.09127,0,0,1,.03222.04883.21978.21978,0,0,1-.05224.03223l-.08448.03906-.24072-.23145.06445-.15722.02344.02051.02539.02441a.07318.07318,0,0,0,.05176.02148h.00146a.07649.07649,0,0,0,.05274-.02343l.03906-.041a.07428.07428,0,0,0-.00244-.10547L4.52163,20.56a.07147.07147,0,0,0-.01172-.02832l-.52149-.76074a.07735.07735,0,0,0-.10058-.02247l-.36572.21973a.07645.07645,0,0,0-.03467.04785.07473.07473,0,0,0,.01123.0586l.02978.04394a.07421.07421,0,0,0,.09326.02637.4571.4571,0,0,1,.25782-.0625.19416.19416,0,0,1,.13379.08887l.08789.1289.00732.01172-.69482.47949-.06055-.08886a.077.077,0,0,0-.04834-.03223.09533.09533,0,0,0-.05664.01269l-.04639.03223a.075.075,0,0,0-.019.10352l.29.42285a.077.077,0,0,0,.04834.03222.09055.09055,0,0,0,.05664-.01269l.04639-.03223a.075.075,0,0,0,.01855-.10449l-.05566-.08105.69677-.47657.0044.00586.05127.0752a.07959.07959,0,0,0,.01611.01758.07451.07451,0,0,0,.02295.043l.02441.02246c.01661.0166.01368.02246.01075.03027L3.9977,21.767a.07539.07539,0,0,0,.01758.083l.03613.03418a.07566.07566,0,0,0,.05176.0205.06885.06885,0,0,0,.03076-.00683l.92236-.416a.19725.19725,0,0,1,.083-.02343.09064.09064,0,0,1,.04932.03027.12439.12439,0,0,0,.05371.02148.07668.07668,0,0,0,.05322-.02343l.03907-.041a.07428.07428,0,0,0-.00245-.10547Zm-.42334.38769-.21142.09473.08837-.21387Z"/>
          <path class="cls-9" d="M12.11147,13.43207l.041-.03906a.076.076,0,0,0,.00488-.1045.18377.18377,0,0,1-.04492-.0664.05024.05024,0,0,1,.001-.0293.17584.17584,0,0,1,.04688-.05908l.28125-.27393-.30078.63867a.07618.07618,0,0,0,.01562.085l.03614.03613a.07493.07493,0,0,0,.084.01562l.60547-.2832-.34277.334v-.00586l-.06641-.06738a.07458.07458,0,0,0-.10645-.001l-.04.03906a.07641.07641,0,0,0-.02246.05273.07962.07962,0,0,0,.02149.05371l.35351.36231a.07624.07624,0,0,0,.05371.02246.07465.07465,0,0,0,.05274-.02149l.04-.03906a.07641.07641,0,0,0,.02246-.05273.07777.07777,0,0,0-.02149-.05371l-.05957-.05957-.00976-.01172.60547-.58887.0039.00488.06348.06641a.07976.07976,0,0,0,.05371.02344h.001a.07724.07724,0,0,0,.05273-.02149l.041-.04a.07641.07641,0,0,0,.02246-.05273.07958.07958,0,0,0-.02149-.05371l-.26367-.269a.07482.07482,0,0,0-.085-.01563l-.65234.3042.30957-.65918a.07637.07637,0,0,0-.01465-.084l-.25781-.26465a.07693.07693,0,0,0-.05274-.023h-.001a.07724.07724,0,0,0-.05274.02148l-.04.03906a.07486.07486,0,0,0-.001.106l.0664.06885.00391.00391-.5332.51855c-.04395.04346-.06543.04443-.06739.04443-.001,0-.02441-.00048-.0791-.04931a.07536.07536,0,0,0-.10254.002l-.04.03906a.07486.07486,0,0,0-.001.106l.291.2998A.077.077,0,0,0,12.11147,13.43207Z"/>
          <path class="cls-9" d="M13.80971,13.99652l.00782.01465-.71973.43066L13.091,14.4389l-.0498-.083a.075.075,0,0,0-.10254-.02539l-.04785.02832a.07112.07112,0,0,0-.03418.04589.07585.07585,0,0,0,.00781.05664l.26172.43848a.07536.07536,0,0,0,.06445.03711.07759.07759,0,0,0,.03809-.01074l.04785-.02832a.07117.07117,0,0,0,.03418-.0459.0759.0759,0,0,0-.00781-.05664l-.05078-.085-.002-.00293.00489-.00293.71972-.42969.001-.001.00683.01172.04493.0752a.07628.07628,0,0,0,.10254.02637l.04882-.02832a.0745.0745,0,0,0,.03418-.0459.07581.07581,0,0,0-.00781-.05664l-.26172-.43848a.075.075,0,0,0-.10254-.02637l-.04883.02832a.07452.07452,0,0,0-.03417.0459.07158.07158,0,0,0,.00781.05664Z"/>
          <path class="cls-9" d="M13.53237,15.29144l-.00293-.00781-.03027-.08594a.07282.07282,0,0,0-.09473-.04492l-.05273.01856a.07538.07538,0,0,0-.04688.09472l.30078.8711a.07536.07536,0,0,0,.07129.05078.07447.07447,0,0,0,.02051-.00293l.41113-.11524a.079.079,0,0,0,.0459-.03711.0747.0747,0,0,0,.00488-.05957l-.0166-.04882a.085.085,0,0,0-.083-.04981.47926.47926,0,0,1-.2666-.00879.19362.19362,0,0,1-.10449-.12207l-.05176-.14746-.0039-.01172.79882-.27539.03321.09863a.07837.07837,0,0,0,.03808.043.09558.09558,0,0,0,.05762.00391l.05371-.01856a.07592.07592,0,0,0,.04688-.0957l-.168-.48437a.07308.07308,0,0,0-.09473-.04688l-.05273.01758a.07722.07722,0,0,0-.044.03809.07877.07877,0,0,0-.00391.05761l.03516.09375Z"/>
          <path class="cls-9" d="M14.69448,16.63226h-.001l-.83594.04883-.00585.001v-.00684l-.00586-.0957a.07637.07637,0,0,0-.0752-.07031h-.00391l-.05566.00293a.07533.07533,0,0,0-.05176.02539.07343.07343,0,0,0-.01953.05371l.0293.50976a.082.082,0,0,0,.02539.05274.07658.07658,0,0,0,.0498.01855h.00489l.05664-.0039a.0767.0767,0,0,0,.07031-.08008l-.00586-.09766-.001-.00293h.00489l.83789-.04883.001.01368.00489.08691a.07579.07579,0,0,0,.07519.07129H14.797l.05664-.00293a.07537.07537,0,0,0,.05176-.02539.07429.07429,0,0,0,.01953-.05469l-.03028-.50976a.07326.07326,0,0,0-.0791-.07032l-.05566.00293a.07537.07537,0,0,0-.05176.02539.07343.07343,0,0,0-.01953.05371l.00488.08692Z"/>
          <path class="cls-9" d="M14.87417,17.49457l-.41114-.083a.07.07,0,0,0-.05761.01172.07257.07257,0,0,0-.03125.05078l-.00782.05469a.076.076,0,0,0,.05371.083.55076.55076,0,0,1,.22071.10449.15218.15218,0,0,1,.05566.127l-.84472-.12012.01464-.10351a.075.075,0,0,0-.06347-.085l-.05567-.00782a.064.064,0,0,0-.05566.01465.07163.07163,0,0,0-.0293.04883L13.591,18.1a.075.075,0,0,0,.06348.085l.05469.00781a.064.064,0,0,0,.05566-.01465.0753.0753,0,0,0,.0293-.04883l.01074-.10351.84766.12012c-.01465.09765-.12305.14746-.32422.14746h-.00489a.07561.07561,0,0,0-.07421.06543l-.00684.05078a.0734.0734,0,0,0,.01563.05664.07193.07193,0,0,0,.05175.02734l.417.03711.00683.001a.07475.07475,0,0,0,.07422-.06446l.126-.88867A.07484.07484,0,0,0,14.87417,17.49457Z"/>
          <path class="cls-9" d="M13.797,18.64008a.17056.17056,0,0,1-.05469-.06934.09256.09256,0,0,1,.00684-.05566.0757.0757,0,0,0-.002-.05664.07661.07661,0,0,0-.043-.03907l-.05371-.01953a.084.084,0,0,0-.05761.00195.07846.07846,0,0,0-.03809.043l-.13574.37891a.07379.07379,0,0,0,.00293.05762.07662.07662,0,0,0,.043.03906l.05371.01855a.07775.07775,0,0,0,.05761-.0039.07348.07348,0,0,0,.03809-.04395l.01074-.03418a.08834.08834,0,0,1,.03418-.0498.23774.23774,0,0,1,.04883.03418l.07031.06054-.11328.31446-.16894.00586a.29939.29939,0,0,1,.00879-.0293l.01171-.0332a.07533.07533,0,0,0-.04394-.09571l-.05274-.01953a.08322.08322,0,0,0-.05761.002.07659.07659,0,0,0-.03907.043l-.14941.416a.07379.07379,0,0,0,.00293.05762.07662.07662,0,0,0,.043.03906l.05371.01855a.10561.10561,0,0,0,.02441.00391.07892.07892,0,0,0,.03321-.00781.0772.0772,0,0,0,.03808-.04395l.00977-.03027c.00781-.02148.01367-.02148.02246-.02148l1.08789-.03125a.07476.07476,0,0,0,.06836-.04981l.01758-.04785a.07456.07456,0,0,0-.02051-.082Zm.09179.57128.05762-.16015.17285.15332Z"/>
          <path class="cls-9" d="M14.0226,20.30023a.07354.07354,0,0,0-.10351.01758l-.0586.085-.68847-.49219.05957-.085a.07453.07453,0,0,0,.01269-.05566.078.078,0,0,0-.03125-.04883l-.0459-.03223a.0759.0759,0,0,0-.10449.01758l-.29883.419a.083.083,0,0,0-.01269.05664.07683.07683,0,0,0,.03125.04883l.04687.03222a.07687.07687,0,0,0,.1045-.01855l.05468-.084.27735.19825-.00977.01367a.19988.19988,0,0,1-.0664.0625.10682.10682,0,0,1-.04883.01465c-.01563-.001-.0293.00293-.11328-.04493a1.0896,1.0896,0,0,0-.209-.10156.26216.26216,0,0,0-.14551.00293.23927.23927,0,0,0-.11523.08887c-.05273.07519-.10742.22656.1123.40332a.07193.07193,0,0,0,.05762.01562.07594.07594,0,0,0,.05078-.03125l.0293-.042a.07484.07484,0,0,0-.01465-.10156l-.01172-.00879c.01074.00293.02149.00781.03418.0127a.868.868,0,0,0,.2002.06543.231.231,0,0,0,.082-.001l-.00391.02148a.33923.33923,0,0,0,.01856.17969.31431.31431,0,0,0,.11035.13672.31975.31975,0,0,0,.19043.06445.35091.35091,0,0,0,.08789-.01172.476.476,0,0,0,.25391-.19433l.332-.46582a.083.083,0,0,0,.01269-.05664.078.078,0,0,0-.03125-.04883Zm-.47558.51465a.06777.06777,0,0,1-.04785.00781.24508.24508,0,0,1-.09473-.043c-.04785-.03418-.07129-.06836-.07031-.10058a.29913.29913,0,0,1,.0664-.15625l.03125-.04492.2461.1748a.47273.47273,0,0,1-.03125.04688A.43853.43853,0,0,1,13.547,20.81488Z"/>
          <path class="cls-9" d="M13.10268,21.55414a.07382.07382,0,0,0-.10547-.00684l-.0625.05274-.55761-.63282.0039-.00293.05664-.0498a.0753.0753,0,0,0,.00684-.10547l-.03711-.043a.07446.07446,0,0,0-.05176-.02636.07771.07771,0,0,0-.05469.01855l-.68457.60352a.07494.07494,0,0,0-.00879.10351l.25879.32227a.07889.07889,0,0,0,.05176.02832.07564.07564,0,0,0,.05664-.01856l.041-.03613a.07627.07627,0,0,0,.01172-.09961c-.14649-.21289-.08008-.31543-.00586-.38086l.12207-.11133.22656.25586-.01074.00879a.11811.11811,0,0,1-.07324.02734.22089.22089,0,0,1-.11524-.0791.075.075,0,0,0-.10449-.00586l-.03906.03418a.08188.08188,0,0,0-.02539.05176.081.081,0,0,0,.01855.05469l.33887.38476a.07649.07649,0,0,0,.10644.00684l.03907-.03418a.075.075,0,0,0,.00781-.10449.19864.19864,0,0,1-.05469-.11231.08447.08447,0,0,1,.03125-.0664l.01563-.01367.20214.22363-.14843.13183a.15241.15241,0,0,1-.11719.042.42439.42439,0,0,1-.19531-.10743.074.074,0,0,0-.09668.00293l-.03711.03321a.07576.07576,0,0,0-.02539.05371.0802.0802,0,0,0,.02148.05469l.2627.2666a.07622.07622,0,0,0,.05371.02246.08065.08065,0,0,0,.0498-.01856l.65821-.58007a.082.082,0,0,0,.02539-.05176.07775.07775,0,0,0-.01856-.05469Z"/>
        </g>
        <path class="cls-10" d="M8.07065,21.663s-.80322-1.02187.03861-.90224.98857.41311.98857.41311S8.16848,20.97826,8.07065,21.663Z"/>
        <path class="cls-10" d="M8.78912,21.70383s.35081-.00492.10965-.43862C8.89877,21.26521,9.70323,21.3044,8.78912,21.70383Z"/>
        <path class="cls-10" d="M8.85326,22.20109a13.51084,13.51084,0,0,0,2.10326.73369l.14674-.3913A6.208,6.208,0,0,1,8.85326,22.20109Z"/>
      </g>
    </g>
  </g>
</svg>
