<?xml version="1.0" encoding="utf-8"?>
<!-- Generator: Adobe Illustrator 27.0.1, SVG Export Plug-In . SVG Version: 6.00 Build 0)  -->
<svg version="1.1" id="Layer_1" xmlns="http://www.w3.org/2000/svg" xmlns:xlink="http://www.w3.org/1999/xlink" x="0px" y="0px"
	 viewBox="0 0 36 35.8" enable-background="new 0 0 36 35.8" xml:space="preserve">
<g id="Group_3232" transform="translate(-425 -593)">
	<path id="Path_1601" fill="#B83027" d="M427,593h34l-36,35.8V595C425,593.9,425.9,593,427,593z"/>
	<g id="Group_3229" transform="translate(3888.556 256.038)">
		
			<linearGradient id="Ellipse_1_copy_16_00000070836452053636087680000001588805161744863887_" gradientUnits="userSpaceOnUse" x1="-7075.8564" y1="13.7559" x2="-7075.8564" y2="12.7559" gradientTransform="matrix(12.7 0 0 12.7 86409.7188 180.1542)">
			<stop  offset="0" style="stop-color:#370B07"/>
			<stop  offset="1" style="stop-color:#A32B0B"/>
		</linearGradient>
		
			<path id="Ellipse_1_copy_16" fill-rule="evenodd" clip-rule="evenodd" fill="url(#Ellipse_1_copy_16_00000070836452053636087680000001588805161744863887_)" d="
			M-3447.3,351.4c-1.6-0.8-3.3-1.4-5.1-1.7c0.2,1.8,0.8,3.5,1.6,5.1h-5.8c0.8-1.6,1.4-3.3,1.7-5.1c-1.8,0.3-3.5,0.8-5.1,1.7v-5.8
			c1.6,0.8,3.4,1.3,5.1,1.6c-0.3-1.8-0.8-3.5-1.7-5.1h5.8c-0.9,1.6-1.4,3.3-1.6,5.1c1.8-0.3,3.5-0.8,5.1-1.6V351.4z"/>
		
			<linearGradient id="Ellipse_1_copy_16-2_00000119094452270636443110000012580490653164515492_" gradientUnits="userSpaceOnUse" x1="-7075.8564" y1="13.7559" x2="-7075.8564" y2="12.7559" gradientTransform="matrix(12.7 0 0 12.7 86409.7188 179.0004)">
			<stop  offset="0" style="stop-color:#8F4929"/>
			<stop  offset="0.362" style="stop-color:#CFC261"/>
			<stop  offset="0.614" style="stop-color:#FFEF76"/>
			<stop  offset="0.954" style="stop-color:#FFFFFF"/>
			<stop  offset="1" style="stop-color:#FFFFFF"/>
		</linearGradient>
		
			<path id="Ellipse_1_copy_16-2" fill-rule="evenodd" clip-rule="evenodd" fill="url(#Ellipse_1_copy_16-2_00000119094452270636443110000012580490653164515492_)" d="
			M-3447.3,350.2c-1.6-0.8-3.3-1.4-5.1-1.7c0.2,1.8,0.8,3.5,1.6,5.1h-5.8c0.8-1.6,1.4-3.3,1.7-5.1c-1.8,0.3-3.5,0.8-5.1,1.7v-5.8
			c1.6,0.8,3.4,1.3,5.1,1.6c-0.3-1.8-0.8-3.5-1.7-5.1h5.8c-0.9,1.6-1.4,3.3-1.6,5.1c1.8-0.3,3.5-0.8,5.1-1.6V350.2z"/>
	</g>
</g>
</svg>
