<svg xmlns="http://www.w3.org/2000/svg" width="25" height="25" viewBox="0 0 25 25">
  <defs>
    <style>
      .cls-1 {
        fill: #298be2;
      }

      .cls-2, .cls-4 {
        fill: #f2f2f2;
      }

      .cls-3 {
        fill: #fff;
      }

      .cls-3, .cls-8 {
        opacity: 0.47;
      }

      .cls-4 {
        opacity: 0.52;
      }

      .cls-5 {
        fill: #e6a738;
      }

      .cls-13, .cls-6 {
        fill: #964f1e;
      }

      .cls-7 {
        fill: #b56e0b;
      }

      .cls-20, .cls-9 {
        fill: #ffc866;
      }

      .cls-10 {
        opacity: 0.53;
      }

      .cls-11 {
        fill: #ffe3a3;
      }

      .cls-12 {
        fill: #42210b;
        opacity: 0.69;
      }

      .cls-13, .cls-20 {
        opacity: 0.54;
      }

      .cls-14 {
        opacity: 0.55;
      }

      .cls-15 {
        fill: #914400;
      }

      .cls-16 {
        fill: #8f4a21;
      }

      .cls-17 {
        fill: #b86a04;
        stroke: #8f4a21;
        stroke-miterlimit: 10;
        stroke-width: 0.25px;
      }

      .cls-18 {
        fill: #fcc25b;
      }

      .cls-19 {
        fill: #c76700;
      }
    </style>
  </defs>
  <g id="Layer_1" data-name="Layer 1">
    <rect class="cls-1" x="6" width="14" height="3.63433"/>
    <rect class="cls-1" x="7.24075" y="6.93196" width="11.5185" height="1.06804"/>
    <rect class="cls-2" x="9" width="8" height="3.63433"/>
    <rect class="cls-3" x="6" y="2" width="14" height="2.63433"/>
    <rect class="cls-3" x="6" width="14" height="1"/>
    <rect class="cls-4" x="9.709" y="6.93196" width="6.582" height="1.06804"/>
    <g>
      <path class="cls-5" d="M7.71387,11.28906A1.97718,1.97718,0,0,1,5.73926,9.314V7.69922a.75879.75879,0,1,1,1.51758,0V9.314a.45771.45771,0,0,0,.457.45752H18.28613a.45771.45771,0,0,0,.457-.45752V7.69922a.75879.75879,0,0,1,1.51758,0V9.314a1.97718,1.97718,0,0,1-1.97461,1.9751Z"/>
      <path class="cls-6" d="M19.502,7.19043a.50878.50878,0,0,1,.50879.50879V9.314a1.7267,1.7267,0,0,1-1.72461,1.7251H7.71387A1.7267,1.7267,0,0,1,5.98926,9.314V7.69922a.50879.50879,0,1,1,1.01758,0V9.314a.7082.7082,0,0,0,.707.70752H18.28613a.7082.7082,0,0,0,.707-.70752V7.69922a.50878.50878,0,0,1,.50879-.50879m0-.5a1.00993,1.00993,0,0,0-1.00879,1.00879V9.314a.20751.20751,0,0,1-.207.20752H7.71387a.20751.20751,0,0,1-.207-.20752V7.69922a1.00879,1.00879,0,1,0-2.01758,0V9.314a2.22738,2.22738,0,0,0,2.22461,2.2251H18.28613A2.22738,2.22738,0,0,0,20.51074,9.314V7.69922A1.00993,1.00993,0,0,0,19.502,6.69043Z"/>
    </g>
    <g>
      <path class="cls-7" d="M12.998,12.49609l-.76758.00537c-.251,0-.458-.00341-.51367-.01171a.74043.74043,0,0,1-.47852-.54151.69883.69883,0,0,1,.13965-.32861c.26172-.12305.52734-.29639.49414-.39844-.03809-.11328-.4707-.14111-.67773-.15478a2.13055,2.13055,0,0,1-.376-.043,1.01335,1.01335,0,0,1-.29492-.12842.4555.4555,0,0,1-.3125.11475.85841.85841,0,0,1-.3916-.11182,1.04482,1.04482,0,0,1-.50782-.94922.51164.51164,0,0,1,.28711-.48535,1.32577,1.32577,0,0,1,.49024-.09619,1.07339,1.07339,0,0,1,.124.00683,1.12636,1.12636,0,0,1,.85449-.27392c.03614,0,.06836.001.09375.002a.90416.90416,0,0,1,.751-.32764,1.57155,1.57155,0,0,1,.31055.03223.85473.85473,0,0,1,.749-.35156l.06152.001a.88545.88545,0,0,1,.74414.35059,1.57155,1.57155,0,0,1,.31055-.03223.90416.90416,0,0,1,.751.32764c.02539-.001.05761-.002.09375-.002a1.12636,1.12636,0,0,1,.85449.27392,1.07339,1.07339,0,0,1,.124-.00683,1.33458,1.33458,0,0,1,.49121.09619.51252.51252,0,0,1,.28614.48535,1.04482,1.04482,0,0,1-.50782.94922.85841.85841,0,0,1-.3916.11182h0a.4555.4555,0,0,1-.3125-.11475,1.01335,1.01335,0,0,1-.29492.12842,2.13055,2.13055,0,0,1-.376.043c-.207.01367-.63964.0415-.67773.15478-.0332.10205.23242.27539.4375.35449a.6386.6386,0,0,1,.19629.37256.74043.74043,0,0,1-.47852.54151c-.05566.0083-.26269.01171-.51367.01171Z"/>
      <path class="cls-6" d="M13.02888,8.58052c.09529,0,.55463.01859.67932.37183a1.41369,1.41369,0,0,1,.38016-.05266.77306.77306,0,0,1,.68809.33132s.06254-.00569.15627-.00568c.23427,0,.66317.03556.79586.28435a.82945.82945,0,0,1,.18284-.0174,1.19906,1.19906,0,0,1,.44417.08708c.34834.13933.25546.95212-.23222,1.20758a.731.731,0,0,1-.33421.09792.31185.31185,0,0,1-.29281-.1676.68945.68945,0,0,1-.34834.1858c-.25546.06966-1.045,0-1.13793.27867s.51091.51089.51091.51089a.656.656,0,0,1,.1161.25546c0,.09289-.209.39479-.37155.418-.05418.00775-.255.01033-.49887.01033-.24736,0-.539-.00266-.76668-.00529-.22768.00263-.5193.00529-.76668.00529-.24384,0-.44469-.00258-.49886-.01033-.16255-.02321-.37156-.32511-.37156-.418a.65594.65594,0,0,1,.11612-.25546s.60378-.23222.51089-.51089-.88247-.209-1.1379-.27867a.68945.68945,0,0,1-.34835-.1858.31179.31179,0,0,1-.29281.1676.731.731,0,0,1-.3342-.09792c-.48768-.25546-.58057-1.06825-.23225-1.20758a1.199,1.199,0,0,1,.44419-.08708.82983.82983,0,0,1,.18285.0174c.1327-.24881.5616-.28435.79586-.28435.0937,0,.15627.00568.15627.00568a.77292.77292,0,0,1,.68808-.33132,1.41462,1.41462,0,0,1,.38016.05266c.12468-.35327.58407-.37183.67932-.37183l.01737.00025L13,8.59587l.0115-.0151.01737-.00025m0-.25h-.00527L13.001,8.331l-.00156.00007L12.999,8.331h-.00192a1.04468,1.04468,0,0,0-.83241.33844,1.6795,1.6795,0,0,0-.253-.01974,1.03551,1.03551,0,0,0-.80786.32589l-.03649-.00026a1.32452,1.32452,0,0,0-.90532.269c-.02261-.00126-.04713-.002-.07339-.002a1.46108,1.46108,0,0,0-.537.105.6314.6314,0,0,0-.365.59513,1.16285,1.16285,0,0,0,.57409,1.066.98231.98231,0,0,0,.4502.12646.58639.58639,0,0,0,.32041-.09008,1.22484,1.22484,0,0,0,.255.09947,2.20672,2.20672,0,0,0,.39957.04712,2.56824,2.56824,0,0,1,.5358.07141,1.15239,1.15239,0,0,1-.33232.1965l-.07006.027-.04363.06108a.78261.78261,0,0,0-.16269.40077.85735.85735,0,0,0,.58622.66549,4.45157,4.45157,0,0,0,.5342.01284c.2483,0,.541-.00267.76957-.00531.22273.00264.5155.00531.76379.00531a4.45306,4.45306,0,0,0,.53423-.01284.85736.85736,0,0,0,.58619-.66549.78272.78272,0,0,0-.16265-.40075l-.04336-.06071-.07-.02718a1.1533,1.1533,0,0,1-.33287-.19661,2.56657,2.56657,0,0,1,.53594-.07146,2.20673,2.20673,0,0,0,.39958-.04712,1.22584,1.22584,0,0,0,.255-.09947.58629.58629,0,0,0,.32039.09008.98232.98232,0,0,0,.45022-.12646,1.16281,1.16281,0,0,0,.57407-1.066.6314.6314,0,0,0-.365-.59514,1.46082,1.46082,0,0,0-.537-.105c-.02626,0-.05077.00076-.07338.002a1.32467,1.32467,0,0,0-.90531-.269l-.03651.00026a1.03556,1.03556,0,0,0-.80785-.32589,1.67907,1.67907,0,0,0-.25287.01971,1.01946,1.01946,0,0,0-.80662-.33889Z"/>
    </g>
    <g>
      <path class="cls-5" d="M13,24.875a6.57544,6.57544,0,1,1,6.5752-6.5752A6.58213,6.58213,0,0,1,13,24.875Z"/>
      <path class="cls-6" d="M13,11.849a6.45048,6.45048,0,1,1-6.45049,6.45048A6.45779,6.45779,0,0,1,13,11.849m0-.25a6.70048,6.70048,0,1,0,6.70049,6.70048A6.70048,6.70048,0,0,0,13,11.599Z"/>
    </g>
    <g class="cls-8">
      <path class="cls-5" d="M13,23.63672a5.33716,5.33716,0,1,1,5.33691-5.33692A5.34347,5.34347,0,0,1,13,23.63672Z"/>
      <path class="cls-6" d="M13,13.21256a5.087,5.087,0,1,1-5.087,5.087A5.09272,5.09272,0,0,1,13,13.21256m0-.5a5.587,5.587,0,1,0,5.587,5.587A5.587,5.587,0,0,0,13,12.71256Z"/>
    </g>
    <path class="cls-9" d="M13,12.71256a5.587,5.587,0,1,1-5.587,5.587A5.587,5.587,0,0,1,13,12.71256m0-.5a6.087,6.087,0,1,0,6.087,6.087A6.09386,6.09386,0,0,0,13,12.21256Z"/>
    <g>
      <path class="cls-5" d="M20.25815,7H5.74185L5,6.25815V3.74185L5.74185,3h14.5163L21,3.74185v2.5163Z"/>
      <g class="cls-10">
        <path class="cls-6" d="M19.94748,3.75l.30252.30251v1.895L19.94748,6.25H6.05252L5.75,5.94749v-1.895L6.05252,3.75h13.895M20.25814,3H5.74186L5,3.74185v2.5163L5.74186,7H20.25814L21,6.25815V3.74185L20.25814,3Z"/>
      </g>
      <path class="cls-5" d="M20.051,3.5l.449.449v2.1021l-.449.449H5.949L5.5,6.05105V3.949L5.949,3.5H20.051m.20711-.5H5.74186L5,3.74185v2.5163L5.74186,7H20.25814L21,6.25815V3.74185L20.25814,3Z"/>
      <path class="cls-6" d="M20.25814,3,21,3.74185v2.5163L20.25814,7H5.74186L5,6.25815V3.74185L5.74186,3H20.25814m.2071-.5H5.53476l-.14645.14644-.74186.74186L4.5,3.53474V6.46526l.14645.14644.74186.74186L5.53476,7.5H20.46524l.14645-.14644.74186-.74186L21.5,6.46526V3.53474l-.14645-.14644-.74186-.74186L20.46524,2.5Z"/>
    </g>
    <path class="cls-9" d="M20.25812,2.77174H5.74188c-.28973.28967-.45215.45215-.74188.74182v.3913c.28973-.28968.45215-.45209.74188-.74182H20.25812c.28973.28973.45215.45214.74188.74182v-.3913C20.71027,3.22389,20.54785,3.06141,20.25812,2.77174Z"/>
    <path class="cls-11" d="M19.96228,6.42354H6.03772L5.70654,6.163v.2952l.33118.26044H19.96228l.25513-.20059V6.2229Z"/>
    <rect class="cls-12" x="5.51087" y="7.43478" width="1.98913" height="0.84783"/>
    <rect class="cls-12" x="18.42391" y="7.43478" width="1.98913" height="0.84783"/>
    <polyline class="cls-13" points="20.135 3.554 20.446 3.842 20.446 5.647 20.135 5.935 5.865 5.935 5.554 5.647 5.554 3.842 5.865 3.554 20.135 3.554"/>
    <g class="cls-14">
      <ellipse class="cls-9" cx="9.96196" cy="9.69889" rx="0.27717" ry="0.34158"/>
    </g>
    <g class="cls-14">
      <ellipse class="cls-9" cx="16.04348" cy="9.6579" rx="0.27717" ry="0.34158"/>
    </g>
    <g class="cls-14">
      <ellipse class="cls-9" cx="12.97011" cy="9.40513" rx="0.52989" ry="0.77197"/>
    </g>
    <g class="cls-14">
      <path class="cls-9" d="M14.117,10.00884a1.19987,1.19987,0,0,1-.16362.35257,1.84683,1.84683,0,0,0,.37429-.27712c.42833-.4148.54475-.91848.26-1.125a.818.818,0,0,0-.78076.03956A.90914.90914,0,0,1,14.117,10.00884Z"/>
    </g>
    <g class="cls-14">
      <path class="cls-9" d="M14.74059,10.09591a1.55246,1.55246,0,0,1-.35013.23878,2.23211,2.23211,0,0,0,.4888-.086c.617-.18328,1.01515-.573.88934-.87038-.07956-.18809-.35835-.2826-.70212-.28888A.9051.9051,0,0,1,14.74059,10.09591Z"/>
    </g>
    <g class="cls-14">
      <path class="cls-9" d="M11.8948,10.00884a1.20012,1.20012,0,0,0,.16362.35257,1.8465,1.8465,0,0,1-.37428-.27712c-.42834-.4148-.54476-.91848-.26-1.125a.818.818,0,0,1,.78076.03956A.90914.90914,0,0,0,11.8948,10.00884Z"/>
    </g>
    <g class="cls-14">
      <path class="cls-9" d="M11.27117,10.09591a1.55246,1.55246,0,0,0,.35013.23878,2.23211,2.23211,0,0,1-.4888-.086c-.617-.18328-1.01515-.573-.88934-.87038.07957-.18809.35835-.2826.70212-.28888A.90512.90512,0,0,0,11.27117,10.09591Z"/>
    </g>
    <path class="cls-15" d="M14.03806,10.42688a1.00113,1.00113,0,0,1-.55438.32449s.073-.379.11878-.82688l.02795-.09661a.46621.46621,0,0,1-.02472.05951c.00916-.094.01923-.18743.02472-.28413a.8783.8783,0,0,1-.65216.58845.8783.8783,0,0,1-.65216-.58845c.00549.0967.01556.19014.02472.28413a.46621.46621,0,0,1-.02472-.05951l.02795.09661c.04578.44792.11878.82688.11878.82688a1.00109,1.00109,0,0,1-.55432-.32449,1.00329,1.00329,0,0,1-1.02722-.07484c.40765.84856.88049.22461,1.125.44923.24456.22471.19567.82371.19567.82371l.7663-.04195.7663.04195s-.04889-.599.19568-.82371c.24456-.22462.7174.39933,1.125-.44923A1.00319,1.00319,0,0,1,14.03806,10.42688Z"/>
    <path class="cls-16" d="M16.24251,18.997a.69885.69885,0,0,0,.38779-.62106.67106.67106,0,0,0-.21165-.47079.76742.76742,0,0,0-.22976-.14079.66706.66706,0,0,0-.48794-1.14453.77739.77739,0,0,0,.04822-.26475.65825.65825,0,0,0-.66948-.66463h-.00594a.78.78,0,0,0-.25419.04944.78423.78423,0,0,0-.04546-.24866.66782.66782,0,0,0-.35957-.36876.67936.67936,0,0,0-.57338.0297.8014.8014,0,0,0-.18205.14071.70729.70729,0,0,0-.63753-.45008.71476.71476,0,0,0-.65686.49671.71407.71407,0,0,0-.802-.18842.67751.67751,0,0,0-.37253.43624.80068.80068,0,0,0-.02737.2679.715.715,0,0,0-.79815.15377.70272.70272,0,0,0-.10065.75924.70441.70441,0,0,0-.6293.43557.672.672,0,0,0,.02592.51561.7757.7757,0,0,0,.14037.18826.67058.67058,0,0,0,.04944,1.23716.70419.70419,0,0,0-.14122.7423.68016.68016,0,0,0,.43408.37577.79281.79281,0,0,0,.1967.02831.7747.7747,0,0,0-.04606.25784.65555.65555,0,0,0,.66894.66355.79376.79376,0,0,0,.26155-.0488.6966.6966,0,0,0,.40415.61786.64932.64932,0,0,0,.25106.05021.703.703,0,0,0,.26455-.05291.78838.78838,0,0,0,.24293-.162.70574.70574,0,0,0,.63442.44438.71484.71484,0,0,0,.65771-.49726.7968.7968,0,0,0,.286.19707.701.701,0,0,0,.25214.048.64937.64937,0,0,0,.26293-.05561.71326.71326,0,0,0,.40213-.70377.80047.80047,0,0,0,.29489.058.65968.65968,0,0,0,.66786-.7618.79487.79487,0,0,0-.0665-.20776.70227.70227,0,0,0,.62909-.43743.66791.66791,0,0,0-.0243-.514A.78026.78026,0,0,0,16.24251,18.997Z"/>
    <path class="cls-17" d="M16.24251,18.64674a.69885.69885,0,0,0,.38779-.62106.6711.6711,0,0,0-.21165-.4708.76759.76759,0,0,0-.22976-.14078.66706.66706,0,0,0-.48794-1.14453.77739.77739,0,0,0,.04822-.26475.65825.65825,0,0,0-.66948-.66463h-.00594a.78.78,0,0,0-.25419.04944.78423.78423,0,0,0-.04546-.24866.66782.66782,0,0,0-.35957-.36876.67936.67936,0,0,0-.57338.0297.8014.8014,0,0,0-.18205.14071.70729.70729,0,0,0-.63753-.45008.71476.71476,0,0,0-.65686.49671.71407.71407,0,0,0-.802-.18842.67751.67751,0,0,0-.37253.43624.80068.80068,0,0,0-.02737.2679.715.715,0,0,0-.79815.15377.70272.70272,0,0,0-.10065.75924.70441.70441,0,0,0-.6293.43557.672.672,0,0,0,.02592.51561.7757.7757,0,0,0,.14037.18826.67058.67058,0,0,0,.04944,1.23716.70419.70419,0,0,0-.14122.7423.68016.68016,0,0,0,.43408.37577.79281.79281,0,0,0,.1967.02831.7747.7747,0,0,0-.04606.25784.65555.65555,0,0,0,.66894.66355.79376.79376,0,0,0,.26155-.0488.6966.6966,0,0,0,.40415.61786.64932.64932,0,0,0,.25106.05021.703.703,0,0,0,.26455-.05291.78838.78838,0,0,0,.24293-.162.70574.70574,0,0,0,.63442.44438.71484.71484,0,0,0,.65771-.49726.7968.7968,0,0,0,.286.19707.701.701,0,0,0,.25214.048.64937.64937,0,0,0,.26293-.05561.71326.71326,0,0,0,.40213-.70377.80047.80047,0,0,0,.29489.058.65968.65968,0,0,0,.66786-.7618.79506.79506,0,0,0-.0665-.20777.70225.70225,0,0,0,.62909-.43742.66791.66791,0,0,0-.0243-.514A.78026.78026,0,0,0,16.24251,18.64674Z"/>
    <g>
      <g>
        <path class="cls-18" d="M13.02148,17.43164A10.70889,10.70889,0,0,1,12.624,15.2832a.40448.40448,0,1,1,.79493,0A10.70886,10.70886,0,0,1,13.02148,17.43164Z"/>
        <path class="cls-19" d="M13.02166,14.839a.4099.4099,0,0,1,.36267.4438,12.44532,12.44532,0,0,1-.36267,2.06753A12.44635,12.44635,0,0,1,12.659,15.2828a.40991.40991,0,0,1,.36267-.4438m0-.07a.4785.4785,0,0,0-.43267.5138,8.82859,8.82859,0,0,0,.43267,2.19042,8.82814,8.82814,0,0,0,.43267-2.19042.4785.4785,0,0,0-.43267-.5138Z"/>
      </g>
      <g>
        <path class="cls-18" d="M13.02148,21.39941a.44391.44391,0,0,1-.39746-.47851,10.07816,10.07816,0,0,1,.40625-2.15723A11.38407,11.38407,0,0,1,13.419,20.9209.44391.44391,0,0,1,13.02148,21.39941Z"/>
        <path class="cls-19" d="M13.02166,18.85357a12.44532,12.44532,0,0,1,.36267,2.06753.37009.37009,0,1,1-.72534,0,12.44635,12.44635,0,0,1,.36267-2.06753m0-.12289A8.82859,8.82859,0,0,0,12.589,20.9211a.43908.43908,0,1,0,.86534,0,8.82814,8.82814,0,0,0-.43267-2.19042Z"/>
      </g>
    </g>
    <g>
      <g>
        <path class="cls-18" d="M13.27637,17.48535a10.87712,10.87712,0,0,1,.46582-2.13769.48329.48329,0,0,1,.42187-.31446.3286.3286,0,0,1,.12989.02637.35565.35565,0,0,1,.1914.19922.51986.51986,0,0,1-.00879.39551A10.50642,10.50642,0,0,1,13.27637,17.48535Z"/>
        <path class="cls-19" d="M14.16408,14.99849v.07a.30083.30083,0,0,1,.11678.02326.40992.40992,0,0,1,.16331.54939,12.96944,12.96944,0,0,1-1.13274,1.77749,12.28619,12.28619,0,0,1,.46358-2.05741.447.447,0,0,1,.38907-.29273v-.07m-.00008,0a.51609.51609,0,0,0-.45357.33573,8.82776,8.82776,0,0,0-.44613,2.18772l.00647.00121a9.31906,9.31906,0,0,0,1.238-1.855.47851.47851,0,0,0-.20088-.641.371.371,0,0,0-.14387-.02869Z"/>
      </g>
      <g>
        <path class="cls-18" d="M11.87891,21.16992a.3458.3458,0,0,1-.12989-.02539.35559.35559,0,0,1-.1914-.19922.5198.5198,0,0,1,.00879-.39551,10.25873,10.25873,0,0,1,1.208-1.835,11.40233,11.40233,0,0,1-.47363,2.14161A.48158.48158,0,0,1,11.87891,21.16992Z"/>
        <path class="cls-19" d="M12.73161,18.79535a12.44477,12.44477,0,0,1-.46329,2.04733.44691.44691,0,0,1-.389.29273.301.301,0,0,1-.11686-.02326.40991.40991,0,0,1-.16331-.54939,12.44793,12.44793,0,0,1,1.13245-1.76741m.04094-.11458a9.3213,9.3213,0,0,0-1.238,1.855.47851.47851,0,0,0,.20088.641.371.371,0,0,0,.14387.02869.51606.51606,0,0,0,.45357-.33573A8.82778,8.82778,0,0,0,12.779,18.682l-.00648-.00121Z"/>
      </g>
    </g>
    <g>
      <g>
        <path class="cls-18" d="M13.47949,17.624a11.34262,11.34262,0,0,1,1.23633-1.81054.52126.52126,0,0,1,.36426-.16211.35378.35378,0,0,1,.25488.09961.446.446,0,0,1-.05273.62011A10.464,10.464,0,0,1,13.48145,17.624Z"/>
        <path class="cls-19" d="M15.07967,15.68659a.3203.3203,0,0,1,.23026.08927.4099.4099,0,0,1-.05269.57072,12.45336,12.45336,0,0,1-1.70858,1.21977,12.44521,12.44521,0,0,1,1.19149-1.72845.485.485,0,0,1,.33952-.15131m0-.07a.555.555,0,0,0-.38942.17222,8.82807,8.82807,0,0,0-1.22766,1.86493.02487.02487,0,0,0,.018.00554,10.04271,10.04271,0,0,0,1.82655-1.26361A.4785.4785,0,0,0,15.359,15.726a.39221.39221,0,0,0-.27935-.10937Z"/>
      </g>
      <g>
        <path class="cls-18" d="M10.96387,20.55176a.34565.34565,0,0,1-.3584-.35449.52032.52032,0,0,1,.15625-.36426,10.36606,10.36606,0,0,1,1.80176-1.25391,11.42124,11.42124,0,0,1-1.23536,1.81153A.51837.51837,0,0,1,10.96387,20.55176Z"/>
        <path class="cls-19" d="M12.49455,18.6378a12.4481,12.4481,0,0,1-1.19138,1.7282.48494.48494,0,0,1-.33951.15131.32031.32031,0,0,1-.23027-.08927.40992.40992,0,0,1,.05269-.57072,12.44781,12.44781,0,0,1,1.70847-1.21952m.06818-.09318a10.04892,10.04892,0,0,0-1.82655,1.26361.47851.47851,0,0,0-.05188.66971.39225.39225,0,0,0,.27936.10937.55494.55494,0,0,0,.38941-.17222,8.82816,8.82816,0,0,0,1.22767-1.86493.02485.02485,0,0,0-.018-.00554Z"/>
      </g>
    </g>
    <g>
      <g>
        <path class="cls-18" d="M13.625,17.83105a11.34538,11.34538,0,0,1,1.8252-1.21386.5535.5535,0,0,1,.2207-.04688.39469.39469,0,0,1,.377.22071.44537.44537,0,0,1-.28125.55566,11.99344,11.99344,0,0,1-2.08691.49121Z"/>
        <path class="cls-19" d="M15.671,16.60506a.36066.36066,0,0,1,.3449.20019.32994.32994,0,0,1-.01493.28152.49261.49261,0,0,1-.2482.22765,12.43035,12.43035,0,0,1-2.03938.48689,12.48788,12.48788,0,0,1,1.75113-1.1525.52444.52444,0,0,1,.20648-.04375m0-.07a.59053.59053,0,0,0-.23427.04952,8.82806,8.82806,0,0,0-1.83808,1.26751c.006.0139.03476.02016.08153.02016a12.00254,12.00254,0,0,0,2.10044-.49359.47849.47849,0,0,0,.29954-.60123.431.431,0,0,0-.40916-.24237Z"/>
      </g>
      <g>
        <path class="cls-18" d="M10.37207,19.63379a.39666.39666,0,0,1-.377-.2207.44538.44538,0,0,1,.28125-.55567,12.057,12.057,0,0,1,2.08691-.49121,8.47989,8.47989,0,0,1-1.77051,1.2207A.54659.54659,0,0,1,10.37207,19.63379Z"/>
        <path class="cls-19" d="M12.32993,18.40259a12.4875,12.4875,0,0,1-1.75112,1.1525.52437.52437,0,0,1-.20645.04375.36069.36069,0,0,1-.34493-.20019.32994.32994,0,0,1,.01493-.28152.49261.49261,0,0,1,.2482-.22765,12.43442,12.43442,0,0,1,2.03937-.48689m.03325-.07094a12.007,12.007,0,0,0-2.10044.49359.47849.47849,0,0,0-.29954.60123.431.431,0,0,0,.40916.24237.59053.59053,0,0,0,.23427-.04952,8.82806,8.82806,0,0,0,1.83808-1.26751c-.006-.0139-.03476-.02016-.08153-.02016Z"/>
      </g>
    </g>
    <g>
      <g>
        <path class="cls-18" d="M15.83984,18.43945a10.25259,10.25259,0,0,1-2.15722-.36035,11.36175,11.36175,0,0,1,2.14941-.43457h0a.44759.44759,0,0,1,.48633.3877.35432.35432,0,0,1-.10449.25488.5188.5188,0,0,1-.36524.15234Z"/>
        <path class="cls-19" d="M15.84425,17.60913v.07a.3699.3699,0,1,1-.00538.72541,12.6819,12.6819,0,0,1-2.06533-.31878,12.45218,12.45218,0,0,1,2.05884-.4065l.01187-.07013m0,0-.01325.00014a8.82818,8.82818,0,0,0-2.1807.47928,8.79515,8.79515,0,0,0,2.18861.386l.01054-.00011a.43813.43813,0,1,0-.0052-.8653Z"/>
      </g>
      <g>
        <path class="cls-18" d="M10.19922,18.55957a.40346.40346,0,1,1-.00391-.79492,10.257,10.257,0,0,1,2.166.36035,11.37281,11.37281,0,0,1-2.15039.43457Z"/>
        <path class="cls-19" d="M10.20446,17.72936l.00018.07-.00018-.07v.07a12.68178,12.68178,0,0,1,2.06532.31878,12.3803,12.3803,0,0,1-2.07066.40663.36913.36913,0,1,1-.0037-.72532l.009-.07009m0,0-.01054.00011a.43813.43813,0,1,0,.0052.8653l.01326-.00014a8.82774,8.82774,0,0,0,2.18069-.47928,8.795,8.795,0,0,0-2.18861-.386Z"/>
      </g>
    </g>
    <g>
      <g>
        <path class="cls-18" d="M15.72363,19.48535a.56081.56081,0,0,1-.19433-.03613,9.916,9.916,0,0,1-1.88379-1.127,12.7874,12.7874,0,0,1,2.15918.38183.44539.44539,0,0,1,.31152.53906A.40392.40392,0,0,1,15.72363,19.48535Z"/>
        <path class="cls-19" d="M13.73091,18.36376a12.49454,12.49454,0,0,1,2.06138.37285.4099.4099,0,0,1,.291.49378.36825.36825,0,0,1-.36043.21979.52328.52328,0,0,1-.1814-.033,12.48819,12.48819,0,0,1-1.81237-1.05344l.00184,0m-.00007-.07c-.06968,0-.11268.00782-.11924.02563a8.82828,8.82828,0,0,0,1.90563,1.1635.59518.59518,0,0,0,.20561.0373.43748.43748,0,0,0,.42612-.26559.47852.47852,0,0,0-.33246-.58367,12.63578,12.63578,0,0,0-2.08566-.37717Z"/>
      </g>
      <g>
        <path class="cls-18" d="M12.3125,17.875a12.6163,12.6163,0,0,1-2.07422-.375.44434.44434,0,0,1-.31055-.53906.40072.40072,0,0,1,.39258-.24219.55966.55966,0,0,1,.19434.03516,10.13218,10.13218,0,0,1,1.88281,1.12793Z"/>
        <path class="cls-19" d="M10.32049,16.75372a.52333.52333,0,0,1,.1814.033,12.48872,12.48872,0,0,1,1.81237,1.05344l-.00177,0a12.49468,12.49468,0,0,1-2.06145-.37285.40992.40992,0,0,1-.291-.49378.36828.36828,0,0,1,.36044-.21979m0-.07a.4375.4375,0,0,0-.42612.26559.47851.47851,0,0,0,.33246.58367,12.63872,12.63872,0,0,0,2.08566.37717c.06968,0,.11268-.00782.11924-.02563A8.82853,8.82853,0,0,0,10.5261,16.721a.59526.59526,0,0,0-.20561-.0373Z"/>
      </g>
    </g>
    <g>
      <g>
        <path class="cls-18" d="M15.17871,20.44727a.53239.53239,0,0,1-.35156-.14356,10.13358,10.13358,0,0,1-1.3125-1.76074,11.67127,11.67127,0,0,1,1.85156,1.17383.5296.5296,0,0,1,.16992.31836.34956.34956,0,0,1-.35742.41211Z"/>
        <path class="cls-19" d="M13.57487,18.61073a12.44353,12.44353,0,0,1,1.7673,1.13266.40991.40991,0,0,1,.08115.56738.32736.32736,0,0,1-.24539.10116.49274.49274,0,0,1-.32676-.13464,12.44637,12.44637,0,0,1-1.2763-1.66656m-.06969-.08968a.02735.02735,0,0,0-.02074.00651,8.82779,8.82779,0,0,0,1.31934,1.80125.55986.55986,0,0,0,.37414.15312.39647.39647,0,0,0,.29693-.12378.47851.47851,0,0,0-.08529-.66628,10.18762,10.18762,0,0,0-1.88438-1.17082Z"/>
      </g>
      <g>
        <path class="cls-18" d="M12.52734,17.64746a11.2325,11.2325,0,0,1-1.85058-1.16113.52164.52164,0,0,1-.17285-.35645.35681.35681,0,0,1,.08984-.26074.36574.36574,0,0,1,.27148-.1123.53192.53192,0,0,1,.35059.14355A10.69526,10.69526,0,0,1,12.52734,17.64746Z"/>
        <path class="cls-19" d="M10.86544,15.792a.49276.49276,0,0,1,.32673.13464,12.44655,12.44655,0,0,1,1.27628,1.66655,12.44661,12.44661,0,0,1-1.7673-1.13266.49266.49266,0,0,1-.15958-.29658.31532.31532,0,0,1,.32387-.372m0-.07a.39646.39646,0,0,0-.29692.12378.47849.47849,0,0,0,.08528.66627,10.18835,10.18835,0,0,0,1.88438,1.17083.02739.02739,0,0,0,.02075-.00651,8.82779,8.82779,0,0,0-1.31934-1.80125.55985.55985,0,0,0-.37415-.15312Z"/>
      </g>
    </g>
    <g>
      <g>
        <path class="cls-18" d="M14.21777,21.14746a.484.484,0,0,1-.41992-.30566,10.04918,10.04918,0,0,1-.501-2.13867,11.36071,11.36071,0,0,1,1.22754,1.8164.44328.44328,0,0,1-.16992.59863A.32753.32753,0,0,1,14.21777,21.14746Z"/>
        <path class="cls-19" d="M13.32545,18.7894A12.44426,12.44426,0,0,1,14.49284,20.534a.49266.49266,0,0,1,.02776.33564.33.33,0,0,1-.18013.21689.30154.30154,0,0,1-.12267.02564.45023.45023,0,0,1-.38842-.285,12.44365,12.44365,0,0,1-.50393-2.03776m-.04279-.11371-.00688.00134a8.82767,8.82767,0,0,0,.48957,2.17842.518.518,0,0,0,.45244.3267.37166.37166,0,0,0,.151-.03162.47851.47851,0,0,0,.1881-.64484,9.347,9.347,0,0,0-1.27421-1.83Z"/>
      </g>
      <g>
        <path class="cls-18" d="M12.751,17.48926a10.77379,10.77379,0,0,1-1.23243-1.80567.44355.44355,0,0,1,.16993-.59765.33541.33541,0,0,1,.13769-.0293.48566.48566,0,0,1,.41992.30664A10.77957,10.77957,0,0,1,12.751,17.48926Z"/>
        <path class="cls-19" d="M11.82556,15.09175a.45024.45024,0,0,1,.38838.285,12.44533,12.44533,0,0,1,.50394,2.03771,12.44647,12.44647,0,0,1-1.16739-1.74453.49266.49266,0,0,1-.02776-.33564.33.33,0,0,1,.18012-.21689.30169.30169,0,0,1,.12271-.02564m0-.07a.37174.37174,0,0,0-.151.03162.4785.4785,0,0,0-.18809.64484,9.35187,9.35187,0,0,0,1.27421,1.83l.00687-.00135a8.82806,8.82806,0,0,0-.48957-2.17841.518.518,0,0,0-.45243-.3267Z"/>
      </g>
    </g>
    <circle class="cls-18" cx="13.02166" cy="18.10195" r="0.54084"/>
  </g>
  <g id="Layer_3" data-name="Layer 3">
    <g>
      <path class="cls-20" d="M9.59087,4.27056c.11511-.15081.27483-.10055.43794-.13714a.13751.13751,0,0,0,0-.263.71071.71071,0,0,0-.52892.08236.48347.48347,0,0,0-.10679.09559c-.025.03029-.05018.08579-.08528.10668-.0553.03293-.16586.00123-.22448-.01109a.25947.25947,0,0,1-.1901-.12969c-.00808-.01206-.01808-.02129-.02651-.03273a.22648.22648,0,0,0,.03384.00874l.05789.00341.12536.0074c.08365.00493.167.006.25076.007a.16505.16505,0,1,0,0-.3301c-.08375.00094-.16711.002-.25076.007l-.12536.00739-.05789.00341a.2097.2097,0,0,0-.0837.0206l-.02931.01585a.123.123,0,0,0-.06046.11972.357.357,0,0,0-.03548-.0245.58818.58818,0,0,0-.57717.06737.07213.07213,0,0,0,.03611.13327c.10215.00324.20958-.01372.31045-.00238a.21855.21855,0,0,1,.18239.118.52292.52292,0,0,0,.29231.2546c-.02376-.00043-.04774-.00346-.07136-.00283a1.7828,1.7828,0,0,0-.31769.03894,2.68656,2.68656,0,0,1-.36292-.12313c-.04418-.01929-.11109.025-.07528.07528a.62656.62656,0,0,0,.15947.16582c.00542.00379.01192.00473.01736.00834-.00587.01169-.01856.01791-.02011.03287a.09143.09143,0,0,0,.05.0939c-.011.01275-.02332.02464-.03307.038a.46223.46223,0,0,0-.08837.30274.41552.41552,0,0,0,.16142.28649c-.11995-.0041-.23988-.00576-.35985-.01132a.15652.15652,0,0,0-.14987.11411.16766.16766,0,0,0-.002.07166l.002.011a.15649.15649,0,0,0,.14987.1141c.28614-.00046.57195.00485.85773.01138.00008.005-.00187.00994-.00141.015l.00356.04049.0071.08095.00356.04049a.52936.52936,0,0,0,.00776.06213.3096.3096,0,0,0,.02482.06129.20474.20474,0,0,0,.10926.084.1892.1892,0,0,0,.11906-.00923.17452.17452,0,0,0,.08743-.07479.236.236,0,0,0,.0153-.045l.00312.00132.00218-.01691L9.237,5.84847a.20481.20481,0,0,0,.00392-.0304A.38046.38046,0,0,0,9.2318,5.753l-.00665-.03691-.01464-.08164q.36045.01027.721.02169a.15414.15414,0,0,0,0-.3081c-.15872-.002-.31726-.00478-.47587-.007a.95066.95066,0,0,0,.14646-.066.3991.3991,0,0,0,.11373-.63749.26794.26794,0,0,0,.20439-.27391A.15148.15148,0,0,0,9.814,4.22411l-.01092-.0037a.131.131,0,0,0-.147.05983.28643.28643,0,0,0-.02006.04493.14476.14476,0,0,0,0,.0676l-.00722.00682a.54983.54983,0,0,1-.19171.03631c-.02971.00452-.05989.005-.08966.0092l-.00132-.00038c.00654-.00129.01319,0,.01969-.00166A.41029.41029,0,0,0,9.59087,4.27056Zm-.17817.77606a1.55917,1.55917,0,0,1-.42544.12184.63374.63374,0,0,1-.39845-.025.26678.26678,0,0,1-.0762-.06312c.1787-.01439.3569-.03459.53648-.04264.116-.00519.23211-.00427.34793-.01252.02436-.00175.04814-.00711.07213-.01089A.52091.52091,0,0,1,9.4127,5.04662Zm.0988-.18723A.81225.81225,0,0,0,9.397,4.839a2.40459,2.40459,0,0,0-.36079.00928,3.41251,3.41251,0,0,0-.56284.088L8.473,4.93194a.22313.22313,0,0,1,.06281-.11628.33426.33426,0,0,0,.05634-.0647.13457.13457,0,0,0,.01158-.03828c.04361-.00083.08719-.00115.13089-.0021a1.96184,1.96184,0,0,0,.28128.01688c.03636-.00046.07244-.005.10869-.00708.05014.00456.10032.00849.15006.01771A.34429.34429,0,0,1,9.5115,4.85939Z"/>
      <path class="cls-20" d="M12.5863,3.974c-.20423-.00118-.40828.00266-.6125.00639a.71637.71637,0,0,1-.00032-.14706l-.00536.03971a.3479.3479,0,0,0,.00679-.06622l-.00154-.03278a.1383.1383,0,0,0-.09964-.13087.14045.14045,0,0,0-.15324.06236.33288.33288,0,0,0-.046.11442,1.00666,1.00666,0,0,0-.01685.131c-.00063.01066.0004.02134.00023.032a4.76426,4.76426,0,0,0-.59144.02468.13573.13573,0,0,0,0,.27127,7.27923,7.27923,0,0,0,.778,0c.15184-.00209.30345-.00676.4551-.0104a.20254.20254,0,0,0-.01714.0257l.00373-.00639a3.28112,3.28112,0,0,1-.60732.4061,3.103,3.103,0,0,1-.30426.13508l-.00088-.05957c-.00084-.05671-.00485-.1123-.01026-.16875a.18193.18193,0,0,0-.0494-.11932.16877.16877,0,0,0-.23861,0l-.0264.03416a.16767.16767,0,0,0-.023.08516c-.00539.05645-.0094.112-.01026.16875l-.00255.16875a.16878.16878,0,0,0,.00854.04178c-.00886.00707-.02055.01-.028.019a.12121.12121,0,0,0-.00877.15474l-.01682.01891-.085.09577-.04376.04931c-.01106.01247-.02186.02485-.03206.03806a.21323.21323,0,0,0-.03413.06977.13946.13946,0,0,0,.05.14652.14117.14117,0,0,0,.15479.01088.45316.45316,0,0,0,.12746-.13817l.07986-.10459c.01249-.01633.02585-.03232.03759-.0492a.43437.43437,0,0,0,.02992-.05814.4448.4448,0,0,0,.017-.0443l.00808.00556q.08481.05532.17188.107.179.10631.36684.19675a2.06951,2.06951,0,0,0,.38174.15256.39658.39658,0,0,0,.39426-.07926.14842.14842,0,0,0,.02218-.172.14242.14242,0,0,0-.16024-.06519.33036.33036,0,0,1-.11828.03983.40672.40672,0,0,1-.13328-.0339c-.10943-.04086-.21677-.08995-.32283-.1388-.09072-.04181-.17926-.088-.26718-.1354.07554-.03235.15236-.06175.22509-.0994a3.02264,3.02264,0,0,0,.63442-.44367.16026.16026,0,0,0,.051-.25726l-.0033-.00189c.0249-.00086.04983-.00072.07473-.00172A.1587.1587,0,1,0,12.5863,3.974Z"/>
      <path class="cls-20" d="M15.22362,3.84463a.90863.90863,0,0,0-.19265-.00742.72889.72889,0,0,1-.16431-.04866,2.302,2.302,0,0,0-.33747-.13095.65757.65757,0,0,0-.6276.19643c-.10376.00662-.20763.01917-.31108.028a1.27392,1.27392,0,0,0-.358.04431.11111.11111,0,0,0,0,.21221,1.08411,1.08411,0,0,0,.32145-.00048c.10952-.00628.21916-.00975.32868-.01573a.26694.26694,0,0,0,.15413-.03428c.03556-.02745.04854-.07149.0782-.10427a.27732.27732,0,0,1,.21686-.08923,1.27787,1.27787,0,0,1,.43235.1723c.14657.06487.39186.15319.52169.01381A.14307.14307,0,0,0,15.22362,3.84463Z"/>
      <path class="cls-20" d="M14.60739,4.13585a2.70654,2.70654,0,0,0-.41487.00427c-.07553.00688-.15089.01642-.22588.02777a.59523.59523,0,0,0-.21334.056.11709.11709,0,0,0-.056.117.11527.11527,0,0,0,.08407.09757.40754.40754,0,0,0,.07047.008.51156.51156,0,0,0,.05653-.00773c.02556-.00356.06322-.00783.09348-.01089q.09906-.01.19866-.01379a4.06068,4.06068,0,0,1,.4069.00424.142.142,0,0,0,.14121-.14121A.14449.14449,0,0,0,14.60739,4.13585Z"/>
      <path class="cls-20" d="M14.91446,4.41793c-.22979.01722-.46069.02866-.6911.03235a2.17529,2.17529,0,0,0-.67342.05683.03531.03531,0,0,0-.00831.0637,1.5069,1.5069,0,0,0,.66843.12146c.02659.00092.053-.00177.07958-.00114-.00559.00375-.01344.00218-.01809.00739-.00885.01-.0179.01865-.02613.02931a.15073.15073,0,0,0-.02774.09511l-.00131.07155c-.00086.0476-.00319.09548-.00164.14308a.14189.14189,0,0,0,.03975.096.13571.13571,0,0,0,.23167-.096c-.00157-.04774-.007-.09548-.01106-.14308l-.00579-.06868a.214.214,0,0,0-.0196-.08545.16723.16723,0,0,0-.03811-.04184c-.00567-.00556-.01484-.00484-.02178-.00885.17491.00166.34968.00349.52465-.00765a.13507.13507,0,0,0,.132-.132A.13313.13313,0,0,0,14.91446,4.41793Z"/>
      <path class="cls-20" d="M15.46592,4.99137a.18564.18564,0,0,0,.00874-.027l-.00177.00023c.03762-.13717-.18953-.28-.268-.114a.2196.2196,0,0,0-.02161.16989l.00218.0037c-.02975.1166-.08256.25168-.2042.26251-.15895.01415-.15955-.257-.16238-.35538a.13475.13475,0,0,0-.26933,0,.49853.49853,0,0,1-.09416.29191.27034.27034,0,0,1-.23667.13912c-.2333-.02376-.32566-.28776-.36632-.48164a.09336.09336,0,0,0-.18256.02473.44907.44907,0,0,1-.07648.24013.706.706,0,0,1-.07207.10411c-.01206.0145-.06957.06115-.05155.06808-.04777-.0184-.03227-.1666-.0392-.20359a.24561.24561,0,0,0-.1121-.18437.07444.07444,0,0,0-.11038.06333c-.02748.21434-.03473.63459.29853.58327a.4277.4277,0,0,0,.29136-.23849.51388.51388,0,0,0,.38745.27136.46779.46779,0,0,0,.406-.15164.46071.46071,0,0,0,.04708-.06843.39364.39364,0,0,0,.31486.17895c.291-.00112.42648-.26512.47886-.51376a.172.172,0,0,0,.03286-.0604Z"/>
      <path class="cls-20" d="M16.9653,4.01063a.82733.82733,0,0,0-.28509-.03619c-.09333-.00467-.18726-.0127-.28073-.01167l-.271.003c-.08643.00094-.22-.01192-.273.0694a.08046.08046,0,0,0,0,.08146.2109.2109,0,0,0,.17846.07439.21244.21244,0,0,0,.00559.12972.31971.31971,0,0,0,.14213.17211.48341.48341,0,0,0,.42481-.01465.128.128,0,0,0,.059.01118.13421.13421,0,0,0,.13184-.13184.2449.2449,0,0,0-.05814-.13944.52909.52909,0,0,0,.20116-.01636.10589.10589,0,0,0,.07487-.08691A.10271.10271,0,0,0,16.9653,4.01063Z"/>
      <path class="cls-20" d="M16.624,3.66178a.19479.19479,0,0,0-.11525-.07794.50853.50853,0,0,0-.127-.01393.65312.65312,0,0,0-.11843.01465.33531.33531,0,0,0-.08992.03418q-.04751.01647-.09316.03734c-.052.0239-.0253.10791.02871.106.02651-.001.05293-.00018.07943.00131.02439.00791.0511.01181.07494.017.03046.00671.06118.0117.09138.01975.03074.00819.06215.013.093.02063a.18.18,0,0,0,.09588.00249l.04066-.01109a.09006.09006,0,0,0,.06284-.06284A.09369.09369,0,0,0,16.624,3.66178Z"/>
      <g>
        <path class="cls-20" d="M16.69371,4.48209a.08606.08606,0,0,0-.06328.08313.29658.29658,0,0,0,.0047.04438.16787.16787,0,0,0,.03651.05714l-.0004-.00155.0006.00187.00106.00166-.00083-.00092.00381.01178-.00046.02585c.00109-.02376-.00278.01091-.00441.01659l-.00562.01705q.00689-.01543-.00066.00054a.301.301,0,0,1-.01879.03069c.01266-.01676-.00763.00639-.01075.00949q-.00812.00712.0035-.00178l-.01883.01255a.18626.18626,0,0,1-.06868.02737.2473.2473,0,0,1-.06307.009.85624.85624,0,0,1-.09273-.00031.90535.90535,0,0,1-.15918-.01849c-.0153-.00335-.03049-.00722-.04548-.0118L16.1686,4.789q-.018-.007-.00742-.00258a.39134.39134,0,0,1-.05711-.03266.20494.20494,0,0,1-.02673-.02694c.01289.01545-.00869-.01464-.01078-.01845-.00619-.01121-.011-.023-.01688-.03442-.01223-.02375.00247.0153-.00452-.01066a.15944.15944,0,0,1-.00023-.10359.0629.0629,0,0,0-.08534-.0853.19674.19674,0,0,0-.10218.13072.30069.30069,0,0,0,.02.19153.42268.42268,0,0,0,.30377.21093c.23228.04917.57379.05834.67623-.20631C16.90461,4.67938,16.869,4.448,16.69371,4.48209Z"/>
        <polygon class="cls-20" points="16.672 4.667 16.672 4.668 16.672 4.668 16.672 4.667 16.672 4.667"/>
        <path class="cls-20" d="M16.67184,4.66752c-.01424-.01895.00636.01882,0,0Z"/>
      </g>
      <path class="cls-20" d="M16.83274,5.25a.35319.35319,0,0,0-.27222-.18267.8101.8101,0,0,0-.23214.00467.89617.89617,0,0,0-.24024.05482c-.03373.01449-.0231.05891,0,.076.09831.07278.23729.036.34965.03522.01367-.00009.02739.00008.041.00086l.01906.00149c-.0021-.00023-.01083-.00172-.00009,0a.38117.38117,0,0,1,.06158.015.21608.21608,0,0,1,.08058.04734c.00421.004.01954.02126.01668.01734a.1537.1537,0,0,0,.00957.01687l.0006.001.00335.01046c.00427.0151.00367.00687.00341.01954a.10892.10892,0,0,1-.035.08.224.224,0,0,1-.04332.03614l-.02826.01668-.01458.0075a.03965.03965,0,0,1-.01129.005.2744.2744,0,0,1-.13107.01484c-.00722-.00046-.04218-.00453-.01949-.00109l-.0396-.00736c-.02868-.0059-.05725-.01169-.08528-.02038l-.03862-.01341-.01364-.00633a.403.403,0,0,0-.11093-.04929.14993.14993,0,0,0-.14585.25056.366.366,0,0,0,.22208.08961.675.675,0,0,0,.22881-.00333.95513.95513,0,0,0,.17643-.05834.5071.5071,0,0,0,.16513-.105A.3121.3121,0,0,0,16.83274,5.25Z"/>
      <path class="cls-20" d="M17.99728,5.18184a.70414.70414,0,0,0-.32449-.27308,1.00728,1.00728,0,0,1-.21256-.07851c-.04055-.02886-.05253-.05012-.0049-.07a.93136.93136,0,0,1,.20952-.0445c.0892-.01421.17881-.02444.26879-.03241a.14308.14308,0,0,0,.13221-.10069.6052.6052,0,0,0-.20087-.63772c-.1648-.12966-.49241-.20465-.63835-.0104-.03444.04585.014.0972.05857.1021.07617.00842.15147-.01229.22735-.00189a.37176.37176,0,0,1,.20222.094.34638.34638,0,0,1,.10224.29214,1.32535,1.32535,0,0,0-.45647.10259.279.279,0,0,0-.12322.41738c.11078.15374.3079.13735.44765.24555a.4753.4753,0,0,1,.13889.17545,1.18038,1.18038,0,0,1,.052.23188.11463.11463,0,0,0,.2193,0A.55894.55894,0,0,0,17.99728,5.18184Z"/>
    </g>
  </g>
</svg>
