<svg xmlns="http://www.w3.org/2000/svg" xmlns:xlink="http://www.w3.org/1999/xlink" width="25" height="25" viewBox="0 0 25 25">
  <defs>
    <style>
      .cls-1, .cls-12, .cls-13 {
        fill: #4d4d4d;
      }

      .cls-2 {
        fill: #999;
      }

      .cls-3 {
        fill: url(#linear-gradient);
      }

      .cls-4 {
        fill: #f0f0f0;
      }

      .cls-5 {
        fill: #ccc;
      }

      .cls-6 {
        opacity: 0.44;
      }

      .cls-7 {
        fill: #dedede;
      }

      .cls-8 {
        fill: #f2f2f2;
      }

      .cls-9 {
        fill: #cc0007;
      }

      .cls-10 {
        fill: #ededed;
      }

      .cls-11 {
        fill: #fff;
        opacity: 0.35;
      }

      .cls-12 {
        opacity: 0.77;
      }

      .cls-13 {
        opacity: 0.52;
      }
    </style>
    <linearGradient id="linear-gradient" x1="12.5" y1="6.38271" x2="12.5" y2="26.23253" gradientUnits="userSpaceOnUse">
      <stop offset="0" stop-color="#e6e6e6"/>
      <stop offset="0.3381" stop-color="#b6b6b6"/>
      <stop offset="0.78326" stop-color="#7d7d7d"/>
      <stop offset="0.99744" stop-color="#666"/>
    </linearGradient>
  </defs>
  <g id="Layer_1" data-name="Layer 1">
    <g>
      <polygon class="cls-1" points="10.985 6.411 12.282 8.812 12.639 8.553 11.763 6.087 10.985 6.411"/>
      <polygon class="cls-1" points="14.099 6.411 12.802 8.812 12.445 8.553 13.321 6.087 14.099 6.411"/>
      <polygon class="cls-2" points="13.676 6.336 12.563 8.523 12.495 8.236 13.465 5.943 13.676 6.336"/>
      <polygon class="cls-2" points="11.521 6.336 12.634 8.523 12.702 8.236 11.732 5.943 11.521 6.336"/>
      <path class="cls-1" d="M21.2374,17.659a1.41675,1.41675,0,0,0-.84357-1.38433c-.2163-1.23294-.86522-1.38436-.86522-1.38436.4326-.04326.5624-.12978.7138-.36769a.43668.43668,0,0,0,.04326-.43262s.47587-.51912.30284-.84358a.83934.83934,0,0,0-.97338-.36772.62932.62932,0,0,0-.62728-.19466.89745.89745,0,0,0,.19468-.80033c-.10816-.4975-.45424-.47586-.45424-.47586a.69067.69067,0,0,0-.71382-.584.93643.93643,0,0,0-.80031.56238.7481.7481,0,0,0-.56238.43262c-.17306.38933.2163.82193.2163.82193a.58009.58009,0,0,0-.38936.17306,2.50955,2.50955,0,0,1-.4975,0,.66968.66968,0,0,0-.584.30282.87749.87749,0,0,0-.69215-.30282.645.645,0,0,0,.47585-.54076,1.51893,1.51893,0,0,0-.12977-.54075s.36771-.60566-.02164-.88686a1.43292,1.43292,0,0,0-.995-.1514l-.51912-.21632a.83526.83526,0,0,0,.30282-.56238.687.687,0,0,0-.32446-.77869c-.173-.08652-.173-.25956-.34608-.60566a.79057.79057,0,0,0-.62728-.36772.20944.20944,0,0,0-.02036.0115.2097.2097,0,0,0-.02038-.0115.79057.79057,0,0,0-.62728.36772c-.173.3461-.173.51914-.34608.60566a.687.687,0,0,0-.32446.77869.83526.83526,0,0,0,.30282.56238l-.51912.21632a1.43292,1.43292,0,0,0-.995.1514c-.38935.2812-.02164.88686-.02164.88686a1.51893,1.51893,0,0,0-.12977.54075.645.645,0,0,0,.47585.54076.87749.87749,0,0,0-.69215.30282.66968.66968,0,0,0-.584-.30282,2.50955,2.50955,0,0,1-.4975,0,.58009.58009,0,0,0-.38936-.17306s.38936-.4326.2163-.82193a.7481.7481,0,0,0-.56238-.43262.93643.93643,0,0,0-.80031-.56238.69067.69067,0,0,0-.71382.584s-.34608-.02164-.45424.47586a.89745.89745,0,0,0,.19468.80033.62932.62932,0,0,0-.62728.19466.83934.83934,0,0,0-.97338.36772c-.173.32446.30284.84358.30284.84358a.43668.43668,0,0,0,.04326.43262c.1514.23791.2812.32443.7138.36769,0,0-.64892.15142-.86522,1.38436A1.41675,1.41675,0,0,0,3.7626,17.659a1.78483,1.78483,0,0,0,.93009,1.5574s-.38933,1.42759.47588,1.94673c.932.5592,2.05487-.43262,2.05487-.43262a1.88209,1.88209,0,0,0,1.2113.10816s-.12978.86522.51914,1.12478a1.70253,1.70253,0,0,0,.84357,1.62227c.97338.54076,1.36272.32446,1.36272.32446s.00267.97721,1.31022.99219l.00673.00137.02289-.0006.02287.0006.00673-.00137c1.30755-.015,1.31022-.99219,1.31022-.99219s.38934.2163,1.36272-.32446a1.70253,1.70253,0,0,0,.84357-1.62227c.64892-.25956.51914-1.12478.51914-1.12478a1.88209,1.88209,0,0,0,1.2113-.10816s1.12285.99182,2.05487.43262c.86521-.51914.47588-1.94673.47588-1.94673A1.78483,1.78483,0,0,0,21.2374,17.659Z"/>
      <g>
        <path class="cls-3" d="M12.5166,24.41016c-1.251-.01563-1.27344-.875-1.27344-.91211l-.001-.13379-.1211.06152a.51352.51352,0,0,1-.209.0332,2.29823,2.29823,0,0,1-1.07422-.35644,1.60493,1.60493,0,0,1-.80176-1.54L9.044,21.499l-.0586-.02343c-.58008-.23145-.47363-1.00293-.46875-1.03516l.02051-.1377-.13086.04688a1.114,1.114,0,0,1-.377.06055,2.168,2.168,0,0,1-.77149-.166,3.1893,3.1893,0,0,1-1.46.5957,1.12286,1.12286,0,0,1-.58594-.15918c-.80078-.47949-.44336-1.83984-.43945-1.85351L4.79,18.76367l-.05859-.03125a1.71357,1.71357,0,0,1-.88575-1.47949,1.33283,1.33283,0,0,1,.78516-1.31055c.25976-1.21875.85449-1.38086.86035-1.38183l.46289-.11621-.47461-.04688c-.40625-.041-.51465-.11426-.65137-.33105a.35127.35127,0,0,1-.041-.34766c-.13281-.228-.42188-.62158-.30274-.84424a.66989.66989,0,0,1,.626-.35937.98428.98428,0,0,1,.25.03174.76544.76544,0,0,1,.49512-.20948.54789.54789,0,0,1,.13281.01514l.30176.08594-.21973-.22412a.81062.81062,0,0,1-.17187-.72413c.085-.39062.32031-.41015.36621-.41015H6.334l.01954-.06885a.60954.60954,0,0,1,.57226-.51758.87978.87978,0,0,1,.7832.51074.91516.91516,0,0,1,.56348.437c.14941.33642-.19824.729-.20215.73291l-.14648.16259.21972-.02441a.51953.51953,0,0,1,.31934.14893.519.519,0,0,0,.25391.03369c.07519,0,.30761-.00928.30859-.00928a.6018.6018,0,0,1,.50586.2627l.06445.10546.07325-.09912a.78755.78755,0,0,1,.60839-.26953H10.749l-.42578-.16064c-.19433-.07032-.4209-.23389-.4209-.46241a1.45393,1.45393,0,0,1,.12207-.50634c-.00781-.083-.32812-.6211-.00488-.854a1.07418,1.07418,0,0,1,.61817-.166,1.6879,1.6879,0,0,1,.31054.02832l.56836-.22071.14649-.06152-.13477-.08545a.785.785,0,0,1-.26562-.5083A.6064.6064,0,0,1,11.543,8.7998c.14453-.07177.19238-.19189.25879-.35839.03125-.07813.06836-.17188.125-.28418a.67127.67127,0,0,1,1.14648,0c.05664.1123.09375.206.125.28418.06641.1665.11426.28662.25879.35839a.6064.6064,0,0,1,.28027.68848.785.785,0,0,1-.26562.5083l-.13379.085.66406.27832.0127.00049c.05762,0,.18359-.02441.34765-.02441a1.07418,1.07418,0,0,1,.61817.166c.32324.23291.00293.771-.001.77637a4.02712,4.02712,0,0,1,.11817.584c0,.22852-.22657.39209-.4209.46241l-.50684.18408.541-.02295a.79218.79218,0,0,1,.62011.269l.07325.09961.06445-.10595a.58157.58157,0,0,1,.47559-.26368c.16406.00782.26367.01026.33886.01026a1.27756,1.27756,0,0,0,.21192-.01074.673.673,0,0,1,.34179-.17334l.2168.02441-.124-.16065c-.00293-.00439-.35157-.39843-.20215-.73339a.65945.65945,0,0,1,.49609-.38379,1.04821,1.04821,0,0,1,.79688-.562h.00293a.62459.62459,0,0,1,.623.51562l.0127.07129.07324-.00244c.04883,0,.28418.01953.36914.41015a.81062.81062,0,0,1-.17187.72413l-.22071.22412.30274-.08594a.54789.54789,0,0,1,.13281-.01514.52222.52222,0,0,1,.4082.18457.29291.29291,0,0,0,.07911.00928c.07128,0,.15527-.01611.25781-.01611a.66986.66986,0,0,1,.626.35937c.11915.22266-.16992.61621-.291.74854-.00781.10205.06934.25341-.05274.44336-.13671.21679-.24511.29-.65136.33105l-.47559.04688.46387.11621c.00586.001.60058.16308.80273,1.31738a1.489,1.489,0,0,1,.84278,1.375,1.70842,1.70842,0,0,1-.88575,1.47949l-.05859.03125.01758.06348c.00391.01367.36133,1.374-.43945,1.85351a1.12286,1.12286,0,0,1-.58594.15918h0a2.4597,2.4597,0,0,1-1.3711-.583h-.01074a4.78973,4.78973,0,0,1-.84961.15332,1.114,1.114,0,0,1-.377-.06055l-.13086-.04688.02051.1377c.00488.03223.11133.80371-.46875,1.03516l-.0586.02343.00782.06348a1.60493,1.60493,0,0,1-.80176,1.54,2.29823,2.29823,0,0,1-1.07422.35644.51352.51352,0,0,1-.209-.0332l-.11914-.06055-.00293.13282c0,.03711-.02247.89648-1.22852.91015l-.00586.002Z"/>
        <path class="cls-2" d="M12.47208,7.9194l.06242.00639.00986-.00438a.59914.59914,0,0,1,.455.27277c.05518.11037.09187.20239.12253.279a.6402.6402,0,0,0,.29772.40079.52376.52376,0,0,1,.236.59786.71636.71636,0,0,1-.22553.45269l-.2816.169.30313.12631.51912.21632.04785.01974.05039-.01059a1.59155,1.59155,0,0,1,.29331-.0263.9996.9996,0,0,1,.57015.14992c.26011.18785-.02037.66192-.02323.66668l-.04514.07552.03643.07952a1.35722,1.35722,0,0,1,.11462.47145c0,.17377-.18418.31853-.36671.38491l-.86676.32138h.94122a.70087.70087,0,0,1,.54064.23535l.14565.19635.12959-.20795a.51993.51993,0,0,1,.4317-.2237l.00161,0c.13375.00742.23528.00986.31123.00986a1.23,1.23,0,0,0,.228-.01283l.05081-.012.03348-.03292a.44139.44139,0,0,1,.25308-.126l.00112,0,.42933.04752-.2874-.32294c-.00316-.00356-.315-.35894-.18832-.644a.57975.57975,0,0,1,.42915-.33514l.1001-.01214.03648-.09344a.76743.76743,0,0,1,.6572-.4562l.04712-.00173a.52146.52146,0,0,1,.4915.44853l.03011.13749h.13966c.03519,0,.21437.01665.28584.34539a.73152.73152,0,0,1-.1499.64785l-.44149.44262.60419-.16586a.46718.46718,0,0,1,.11167-.01245.4344.4344,0,0,1,.34427.15553l.07077.08152.10316-.03071a.8828.8828,0,0,1,.226-.02862.58125.58125,0,0,1,.553.31565c.07987.14976-.1192.47857-.27889.65363l-.07445.08766.05012.10153a.2755.2755,0,0,1-.03645.2663c-.11715.18409-.19355.252-.5904.29172l-.89628.09064.87244.23521c.0224.006.55069.16043.74222,1.25218l.01856.09884.09509.03071a1.25928,1.25928,0,0,1,.72769,1.23549,1.60157,1.60157,0,0,1-.84212,1.40147l-.117.06246.03452.12757c.00353.01308.34522,1.31323-.40116,1.76106a1.04058,1.04058,0,0,1-.54328.14732,2.3726,2.3726,0,0,1-1.31663-.56216l-.08041-.07041-.09727.0436a2.0614,2.0614,0,0,1-.73714.15884,1.03376,1.03376,0,0,1-.34995-.05547l-.25984-.09315.03961.27337c.00436.0301.10087.7396-.41667.94661l-.11745.0475.01433.12575a1.5235,1.5235,0,0,1-.7594,1.458,2.22542,2.22542,0,0,1-1.03437.34631.50739.50739,0,0,1-.16759-.02207l.00009.00009-.24159-.133-.00454.27652c-.00138.08341-.0452.81531-1.14873.828l-.02563.00131-.00367-.00108-.02368-.00027c-1.10111-.01262-1.14493-.74452-1.1463-.82682l-.00653-.25514-.23441.10779a.45882.45882,0,0,1-.1727.0247A2.22545,2.22545,0,0,1,9.878,23.02979a1.5235,1.5235,0,0,1-.7594-1.458l.01439-.12624-.11751-.047c-.51754-.207-.421-.91651-.41667-.94661l.03967-.27379-.2599.09357a1.03376,1.03376,0,0,1-.34995.05547,2.06154,2.06154,0,0,1-.73714-.15884l-.09764-.04357-.08.0704a2.37245,2.37245,0,0,1-1.31662.56214A1.0406,1.0406,0,0,1,5.25389,20.61c-.74638-.44783-.40469-1.748-.40116-1.76106L4.887,18.721l-.11666-.0621a1.60157,1.60157,0,0,1-.84212-1.40147,1.25966,1.25966,0,0,1,.72646-1.23511l.0973-.02973.01758-.1002c.19153-1.09175.71982-1.24614.73956-1.25153l.97313-.22707-.99431-.09943c-.39685-.03969-.47325-.10763-.5904-.29173a.27686.27686,0,0,1-.0382-.263l.05776-.10437-.08034-.08808c-.15969-.17506-.35876-.50387-.2789-.65363a.58122.58122,0,0,1,.553-.31565.88365.88365,0,0,1,.226.02862l.10388.03091.07-.08172a.43429.43429,0,0,1,.34426-.15553.47553.47553,0,0,1,.11034.01205l0,0,.62388.1835-.45982-.45985a.72758.72758,0,0,1-.1499-.64785c.07147-.32874.25065-.34539.28175-.34558l.14857.00937.02529-.14669a.52456.52456,0,0,1,.49148-.44851l.0471.00173a.76741.76741,0,0,1,.65686.45519l.03654.09369.099.01274a.57978.57978,0,0,1,.43053.33531c.1267.285-.18516.64042-.18832.644l-.27532.32258.42957-.04782a.44677.44677,0,0,1,.2419.12665l.0385.03438.04575.01048a1.22883,1.22883,0,0,0,.228.01284c.07594,0,.1775-.00244.33912-.01066a.50362.50362,0,0,1,.40473.22336l.12839.21395.14754-.20122a.70528.70528,0,0,1,.54988-.2352h.00136l1.06109.04114-.99723-.36267c-.18253-.06638-.36671-.21114-.36671-.38491a1.35722,1.35722,0,0,1,.11462-.47145l.03632-.08006-.045-.075c-.00286-.00476-.28334-.47883-.02323-.66668a.99945.99945,0,0,1,.57014-.14992,1.59447,1.59447,0,0,1,.29334.0263l.0507.01066.04752-.01981.51912-.21632.28072-.121-.25568-.1721a.70884.70884,0,0,1-.229-.45487.52376.52376,0,0,1,.236-.59786.6402.6402,0,0,0,.29772-.40079c.03066-.07664.06735-.16866.12253-.279a.61135.61135,0,0,1,.4714-.27478m.0483-.1671A.20839.20839,0,0,0,12.5,7.7638a.20866.20866,0,0,0-.02039-.0115.79056.79056,0,0,0-.62727.36772c-.173.3461-.173.51913-.34608.60565a.687.687,0,0,0-.32446.7787.83526.83526,0,0,0,.30282.56238l-.51912.21632a1.73162,1.73162,0,0,0-.32776-.0299,1.15117,1.15117,0,0,0-.66724.1813c-.38936.2812-.02163.88686-.02163.88686a1.51868,1.51868,0,0,0-.12979.54075.645.645,0,0,0,.47586.54076l-.01778-.0003a.86273.86273,0,0,0-.67437.30312.67329.67329,0,0,0-.54694-.30385q-.01824,0-.03708.001c-.12978.00721-.22833.00961-.302.00961a1.20472,1.20472,0,0,1-.19547-.00961.61328.61328,0,0,0-.35867-.17473l-.03069.00167s.38936-.4326.2163-.82194a.74811.74811,0,0,0-.56238-.43261.93641.93641,0,0,0-.80031-.56237q-.03027-.00217-.05892-.00214a.69729.69729,0,0,0-.6549.58615l-.00635-.00013c-.04751,0-.34838.0183-.44789.476a.89746.89746,0,0,0,.19468.80034.61176.61176,0,0,0-.15711-.01878.603.603,0,0,0-.47017.21344,1.02972,1.02972,0,0,0-.27406-.03573.74985.74985,0,0,0-.69932.40345c-.173.32446.30284.84358.30284.84358a.43668.43668,0,0,0,.04326.43262c.15141.23792.28121.32444.7138.36769,0,0-.64892.15142-.86522,1.38437A1.41673,1.41673,0,0,0,3.7626,17.248a1.78484,1.78484,0,0,0,.9301,1.55741s-.38935,1.42759.47587,1.94673a1.20165,1.20165,0,0,0,.6286.17094,2.52538,2.52538,0,0,0,1.42627-.60357,2.21359,2.21359,0,0,0,.80518.17344,1.19919,1.19919,0,0,0,.40612-.06528s-.12978.86523.51914,1.12478a1.70255,1.70255,0,0,0,.84357,1.62228,2.381,2.381,0,0,0,1.11491.36718.55168.55168,0,0,0,.24781-.04273s.00267.97722,1.31023.99219l.00671.00138.0229-.00061.02288.00061.00671-.00138c1.30756-.015,1.31023-.99219,1.31023-.99219a.55194.55194,0,0,0,.24781.04273,2.38085,2.38085,0,0,0,1.11491-.36718,1.70255,1.70255,0,0,0,.84357-1.62228c.64892-.25955.51914-1.12478.51914-1.12478a1.1994,1.1994,0,0,0,.40612.06528,2.21331,2.21331,0,0,0,.80518-.17344,2.52566,2.52566,0,0,0,1.42627.60357,1.2014,1.2014,0,0,0,.6286-.17094c.86522-.51914.47587-1.94673.47587-1.94673a1.78484,1.78484,0,0,0,.9301-1.55741,1.41673,1.41673,0,0,0-.84357-1.38432c-.2163-1.23295-.86522-1.38437-.86522-1.38437.43259-.04325.56239-.12977.7138-.36769a.43668.43668,0,0,0,.04326-.43262s.47587-.51912.30284-.84358a.7499.7499,0,0,0-.69932-.40345,1.02885,1.02885,0,0,0-.27406.03573.603.603,0,0,0-.47017-.21344.61147.61147,0,0,0-.15711.01878.89746.89746,0,0,0,.19468-.80034c-.0995-.45765-.40035-.476-.44789-.476-.00414,0-.00635.00013-.00635.00013a.69746.69746,0,0,0-.6549-.58615c-.01912,0-.0387.00069-.05892.00214a.93641.93641,0,0,0-.80031.56237.74811.74811,0,0,0-.56238.43261c-.17306.38934.2163.82194.2163.82194l-.03069-.00167a.61308.61308,0,0,0-.35867.17473,1.20535,1.20535,0,0,1-.19547.00961c-.07371,0-.17223-.0024-.302-.00961l-.03708-.001a.67308.67308,0,0,0-.54694.30385.86279.86279,0,0,0-.67437-.30312l-.01778.0003a.645.645,0,0,0,.47586-.54076,1.51868,1.51868,0,0,0-.12979-.54075s.36773-.60566-.02163-.88686a1.1513,1.1513,0,0,0-.66724-.1813,1.73009,1.73009,0,0,0-.32776.0299l-.51912-.21632a.83526.83526,0,0,0,.30282-.56238.687.687,0,0,0-.32446-.7787c-.173-.08652-.173-.25955-.34608-.60565a.79056.79056,0,0,0-.62727-.36772Z"/>
      </g>
      <path class="cls-4" d="M12.45547,14.95522a.75706.75706,0,1,0,.75708.757A.75706.75706,0,0,0,12.45547,14.95522Zm0,1.49249a.584.584,0,1,1,.584-.584A.584.584,0,0,1,12.45547,16.44771Z"/>
      <polygon class="cls-5" points="12.65 16.469 12.455 23.607 12.239 16.426 12.65 16.469"/>
      <g class="cls-6">
        <path class="cls-5" d="M13.06113,15.5825a6.48789,6.48789,0,0,1,6.07813,3.95836,6.73819,6.73819,0,0,0-6.07813-3.61227Z"/>
        <path class="cls-5" d="M20.34208,16.77647a3.6128,3.6128,0,0,0-2.76972-1.59808,5.10981,5.10981,0,0,0-1.6328.10006,3.2528,3.2528,0,0,0-1.42147.68225l-.23175-.23727a3.49646,3.49646,0,0,1,1.60131-.69311,5.32078,5.32078,0,0,1,1.70574-.026,3.70884,3.70884,0,0,1,2.76566,1.76356Z"/>
        <path class="cls-5" d="M20.08177,18.267a3.38824,3.38824,0,0,0-1.80283-2.06,3.58775,3.58775,0,0,0-2.68687.1337l-.13016-.30506a4.70616,4.70616,0,0,1,1.45128-.27585,3.06984,3.06984,0,0,1,1.43881.28782,3.48383,3.48383,0,0,1,1.74823,2.21477Z"/>
        <path class="cls-5" d="M19.606,18.95936a3.48434,3.48434,0,0,0-1.07019-1.50686,2.26976,2.26976,0,0,0-.79544-.42274,1.63565,1.63565,0,0,0-.84931-.033l-.08915-.31946a2.197,2.197,0,0,1,1.84935.6418,3.5765,3.5765,0,0,1,.97308,1.63518Z"/>
        <path class="cls-5" d="M18.15907,19.85031a7.10318,7.10318,0,0,1-1.07467-1.35839,3.81857,3.81857,0,0,1-.57682-1.67412l.33164-.00474a3.57339,3.57339,0,0,0,.39951,1.59564,7.0095,7.0095,0,0,0,.934,1.42835Z"/>
        <path class="cls-5" d="M15.53922,21.09968a7.05339,7.05339,0,0,0-.99375-2.56135,5.6346,5.6346,0,0,0-2.15759-1.61473l.13521-.30286a5.867,5.867,0,0,1,2.16723,1.81877A7.13679,7.13679,0,0,1,15.558,21.0968Z"/>
        <path class="cls-5" d="M14.09277,22.54479a3.9362,3.9362,0,0,0-.01476-2.56963,3.68307,3.68307,0,0,0-1.70589-1.86173l.12346-.21666a3.89925,3.89925,0,0,1,1.70089,2.03686,4.00486,4.00486,0,0,1-.09045,2.61653Z"/>
        <path class="cls-5" d="M13.11913,22.99982a5.09351,5.09351,0,0,0,.11778-1.94586,2.89081,2.89081,0,0,0-.81829-1.67714l.16025-.19106a3.05439,3.05439,0,0,1,.78885,1.85184,5.16546,5.16546,0,0,1-.2348,1.966Z"/>
      </g>
      <g class="cls-6">
        <path class="cls-5" d="M11.80657,15.5825a6.48789,6.48789,0,0,0-6.07813,3.95836,6.73819,6.73819,0,0,1,6.07813-3.61227Z"/>
        <path class="cls-5" d="M4.50866,16.76787a3.7088,3.7088,0,0,1,2.76565-1.76356,5.32085,5.32085,0,0,1,1.70575.026,3.4965,3.4965,0,0,1,1.60131.69311l-.23175.23727a3.2528,3.2528,0,0,0-1.42147-.68225,5.10987,5.10987,0,0,0-1.63281-.10006,3.61278,3.61278,0,0,0-2.76971,1.59808Z"/>
        <path class="cls-5" d="M4.76748,18.26236A3.48385,3.48385,0,0,1,6.5157,16.04759a3.06988,3.06988,0,0,1,1.43882-.28782,4.706,4.706,0,0,1,1.45127.27585l-.13016.30506a3.58772,3.58772,0,0,0-2.68686-.1337,3.38826,3.38826,0,0,0-1.80284,2.06Z"/>
        <path class="cls-5" d="M5.24341,18.95431a3.57648,3.57648,0,0,1,.97307-1.63518,2.197,2.197,0,0,1,1.84935-.6418l-.08915.31946a1.63561,1.63561,0,0,0-.8493.033,2.26976,2.26976,0,0,0-.79544.42274,3.48436,3.48436,0,0,0-1.0702,1.50686Z"/>
        <path class="cls-5" d="M6.695,19.83705a7.00908,7.00908,0,0,0,.934-1.42835,3.57353,3.57353,0,0,0,.39952-1.59564l.33163.00474a3.81843,3.81843,0,0,1-.57681,1.67412,7.10283,7.10283,0,0,1-1.07468,1.35839Z"/>
        <path class="cls-5" d="M9.30968,21.0968a7.13678,7.13678,0,0,1,.8677-2.65729,5.86707,5.86707,0,0,1,2.16724-1.81877l.1352.30286a5.63475,5.63475,0,0,0-2.15759,1.61473,7.05357,7.05357,0,0,0-.99375,2.56135Z"/>
        <path class="cls-5" d="M10.76169,22.55016a4.00492,4.00492,0,0,1-.09046-2.61653,3.8993,3.8993,0,0,1,1.70089-2.03686l.12346.21666a3.68309,3.68309,0,0,0-1.70588,1.86173,3.9362,3.9362,0,0,0-.01476,2.56963Z"/>
        <path class="cls-5" d="M11.73479,23.00361A5.16566,5.16566,0,0,1,11.5,21.0376a3.05445,3.05445,0,0,1,.78885-1.85184l.16026.19106A2.89075,2.89075,0,0,0,11.6308,21.054a5.09351,5.09351,0,0,0,.11777,1.94586Z"/>
      </g>
      <path class="cls-4" d="M12.90972,15.32294s4.19629-1.62231,6.61889-.8436c0,0,.73543.15143.80032,1.36273A2.03235,2.03235,0,0,0,19.096,14.5875a13.19044,13.19044,0,0,0-6.03487.995Z"/>
      <path class="cls-4" d="M11.958,15.32294s-4.19628-1.62231-6.61888-.8436c0,0-.73544.15143-.80033,1.36273A2.03238,2.03238,0,0,1,5.7717,14.5875a13.19043,13.19043,0,0,1,6.03487.995Z"/>
      <path class="cls-7" d="M13.0395,16.18815s3.65553.73543,3.48249,4.3477c0,0,.173-2.94173-3.72042-4.23955Z"/>
      <path class="cls-7" d="M11.8282,16.18815s-3.65553.73543-3.48248,4.3477c0,0-.173-2.94173,3.72042-4.23955Z"/>
      <path class="cls-5" d="M12.99624,13.89533a1.20325,1.20325,0,0,1,.19467-1.10315.98036.98036,0,0,1,1.01663-.15141s.822-.32445,1.08152.25957a.88084.88084,0,0,0-.95174-.08652.7657.7657,0,0,0-.84358.04326A1.57183,1.57183,0,0,0,12.99624,13.89533Z"/>
      <path class="cls-5" d="M17.47373,13.00849s-.25957-.47587-.67055-.45424-.49749.12978-.49749.12978a.74692.74692,0,0,0-.75707.12979s.12979-.4975.7787-.30283a.52692.52692,0,0,1,.62728-.15141A.804.804,0,0,1,17.47373,13.00849Z"/>
      <path class="cls-8" d="M15.0736,11.17482s-.13766-.52429-.5418-.602-.5141.00648-.5141.00648a.74689.74689,0,0,0-.76607-.05587s.24548-.45176.82863-.10691a.52692.52692,0,0,1,.64529.0037A.804.804,0,0,1,15.0736,11.17482Z"/>
      <path class="cls-8" d="M17.19253,11.99186s-.43261-.51913.30283-.86521c0,0,0-.43261.56238-.43261a.51.51,0,0,1,.56239.4975s-.45423-.43261-.7138-.2812a.82931.82931,0,0,0-.32445.2812S17.106,11.62415,17.19253,11.99186Z"/>
      <path class="cls-8" d="M11.6119,9.33133s-.43261-.51913.30282-.86522c0,0,0-.4326.56239-.4326a.51.51,0,0,1,.56239.4975s-.45423-.43261-.7138-.2812a.82921.82921,0,0,0-.32445.2812S11.52538,8.96361,11.6119,9.33133Z"/>
      <path class="cls-5" d="M18.74366,12.96276s.10948-.66683.85242-.33716c0,0,.32713-.28308.69513.14219a.51.51,0,0,1-.0082.75081s.0299-.62657-.25444-.72377a.82933.82933,0,0,0-.42495-.06135S18.96511,12.65672,18.74366,12.96276Z"/>
      <polygon class="cls-8" points="11.958 10.24 12.477 9.85 13.018 10.37 12.369 10.153 11.958 10.24"/>
      <polygon class="cls-8" points="13.018 11.473 13.688 11.581 13.559 12.1 13.407 11.711 13.018 11.473"/>
      <polygon class="cls-5" points="13.148 14.112 13.688 14.177 13.624 14.804 13.429 14.328 13.148 14.112"/>
      <polygon class="cls-5" points="16.911 14.047 16.868 13.614 17.474 13.441 17.041 13.809 16.911 14.047"/>
      <polygon class="cls-5" points="17.539 12.619 18.058 12.23 18.447 12.684 17.95 12.489 17.539 12.619"/>
      <polygon class="cls-5" points="18.62 13.355 19.118 13.679 18.793 14.112 18.815 13.701 18.62 13.355"/>
      <path class="cls-1" d="M14.64015,14.5875s.86521-.08652.64891-1.168l.19467-.19468a.67946.67946,0,0,0,.08652.32446.573.573,0,0,0,.23794.75706A7.14233,7.14233,0,0,1,14.64015,14.5875Z"/>
      <polygon class="cls-1" points="18.296 12.814 18.209 14.047 18.469 13.593 18.469 12.922 18.296 12.814"/>
      <polygon class="cls-1" points="17.712 12.879 17.798 14.112 17.539 13.657 17.539 12.987 17.712 12.879"/>
      <path class="cls-1" d="M12.73668,10.39122v2.3577l.411-.82195a2.57407,2.57407,0,0,1-.06489-1.406Z"/>
      <path class="cls-1" d="M12.75831,13.26805v1.53576l.38934-.51913A2.80174,2.80174,0,0,1,12.75831,13.26805Z"/>
      <path class="cls-1" d="M13.38559,12.48936l.23793-.25956a2.22327,2.22327,0,0,0,1.14641-.04326l-.4975.34608A8.23328,8.23328,0,0,0,13.38559,12.48936Z"/>
      <path class="cls-1" d="M17.08438,14.06838a1.12242,1.12242,0,0,0,.4975-.67055l.2163.71381Z"/>
      <path class="cls-1" d="M18.90133,14.06838a1.12242,1.12242,0,0,1-.4975-.67055l-.2163.71381Z"/>
      <path class="cls-5" d="M11.9952,13.89533a1.20322,1.20322,0,0,0-.19467-1.10315.98036.98036,0,0,0-1.01663-.15141s-.82195-.32445-1.08152.25957a.88084.88084,0,0,1,.95174-.08652.7657.7657,0,0,1,.84358.04326A1.57183,1.57183,0,0,1,11.9952,13.89533Z"/>
      <path class="cls-5" d="M7.51772,13.00849s.25956-.47587.67054-.45424.4975.12978.4975.12978a.74691.74691,0,0,1,.75706.12979s-.12978-.4975-.77869-.30283a.52693.52693,0,0,0-.62728-.15141A.804.804,0,0,0,7.51772,13.00849Z"/>
      <path class="cls-8" d="M9.91784,11.17482s.13766-.52429.5418-.602.51411.00648.51411.00648a.74688.74688,0,0,1,.76607-.05587s-.24549-.45176-.82864-.10691a.5269.5269,0,0,0-.64528.0037A.804.804,0,0,0,9.91784,11.17482Z"/>
      <path class="cls-8" d="M7.79891,11.99186s.43261-.51913-.30282-.86521c0,0,0-.43261-.56239-.43261a.51.51,0,0,0-.56239.4975s.45424-.43261.7138-.2812a.8293.8293,0,0,1,.32446.2812S7.88543,11.62415,7.79891,11.99186Z"/>
      <path class="cls-5" d="M6.24778,12.96276s-.10948-.66683-.85241-.33716c0,0-.32714-.28308-.69514.14219a.51.51,0,0,0,.0082.75081s-.0299-.62657.25444-.72377a.82933.82933,0,0,1,.42495-.06135S6.02634,12.65672,6.24778,12.96276Z"/>
      <polygon class="cls-8" points="11.974 11.473 11.303 11.581 11.433 12.1 11.584 11.711 11.974 11.473"/>
      <polygon class="cls-5" points="11.844 14.112 11.303 14.177 11.368 14.804 11.563 14.328 11.844 14.112"/>
      <polygon class="cls-5" points="8.08 14.047 8.123 13.614 7.518 13.441 7.95 13.809 8.08 14.047"/>
      <polygon class="cls-5" points="7.453 12.619 6.934 12.23 6.544 12.684 7.042 12.489 7.453 12.619"/>
      <polygon class="cls-5" points="6.371 13.355 5.874 13.679 6.198 14.112 6.177 13.701 6.371 13.355"/>
      <path class="cls-1" d="M10.35129,14.5875s-.86521-.08652-.64891-1.168l-.19467-.19468a.67946.67946,0,0,1-.08652.32446.573.573,0,0,1-.23793.75706A7.14218,7.14218,0,0,0,10.35129,14.5875Z"/>
      <polygon class="cls-1" points="6.696 12.814 6.782 14.047 6.523 13.593 6.523 12.922 6.696 12.814"/>
      <polygon class="cls-1" points="7.28 12.879 7.193 14.112 7.453 13.657 7.453 12.987 7.28 12.879"/>
      <path class="cls-1" d="M12.25477,10.39122v2.3577l-.411-.82195a2.57407,2.57407,0,0,0,.06489-1.406Z"/>
      <path class="cls-1" d="M12.23314,13.26805v1.53576l-.38935-.51913A2.80187,2.80187,0,0,0,12.23314,13.26805Z"/>
      <path class="cls-1" d="M11.60586,12.48936l-.23794-.25956a2.22327,2.22327,0,0,1-1.14641-.04326l.4975.34608A8.23335,8.23335,0,0,1,11.60586,12.48936Z"/>
      <path class="cls-1" d="M7.90706,14.06838a1.12242,1.12242,0,0,1-.49749-.67055l-.21631.71381Z"/>
      <path class="cls-1" d="M6.09011,14.06838a1.12242,1.12242,0,0,0,.4975-.67055l.21631.71381Z"/>
    </g>
    <path class="cls-9" d="M16.68962,6.37283H8.31582L3.138,1.19505V0H21.86739V1.19505Z"/>
    <path class="cls-10" d="M8.21582,6.47284h8.57379L18.00543,5.257V0H7.07281V5.32983Z"/>
    <rect class="cls-11" x="3" width="19" height="0.7179"/>
    <rect class="cls-11" x="3" y="1.4358" width="19" height="0.7179"/>
    <path class="cls-11" d="M19.87274,3.58951l1-.7179h-16.74l1,.7179Z"/>
    <path class="cls-11" d="M6.05042,4.30737c.23388.23383.47155.47168.71789.718H18.23712l.7179-.718Z"/>
    <path class="cls-11" d="M16.80133,6.46112l.7179-.71789H7.48621l.71789.71789Z"/>
    <path class="cls-12" d="M5.63043,14.15217s.78261-.48913.78261-.97826a4.81753,4.81753,0,0,0-.03261-.68478.49915.49915,0,0,0,.587-.13043l.587.29347a.694.694,0,0,0-.03663.78893,6.24825,6.24825,0,0,0,.55837.74368A6.08471,6.08471,0,0,0,5.63043,14.15217Z"/>
    <path class="cls-12" d="M19.3913,14.15217s-.7826-.48913-.7826-.97826a4.819,4.819,0,0,1,.0326-.68478.49914.49914,0,0,1-.587-.13043l-.587.29347a.694.694,0,0,1,.03663.78893,6.24825,6.24825,0,0,1-.55837.74368A6.08467,6.08467,0,0,1,19.3913,14.15217Z"/>
    <path class="cls-13" d="M11.36792,14.80381l.45817.32662a.80021.80021,0,0,1,.61956-.29347,1.29478,1.29478,0,0,1,.65218.29347l.45652-.19565s-.65218-.81521-.65218-1.17391-.0326-1.20652,1.04348-1.27174l.52174-.22826s-1.33382-.04366-1.44952-.78814a1.41665,1.41665,0,0,1,.37343-1.201l-.19565-.19565a1.81957,1.81957,0,0,1-1.53261-.03261l-.32608.26087a.86526.86526,0,0,1,.63661,1.16838c-.34314.91857-.89748.72292-.89748.72292l.163.19565a1.16616,1.16616,0,0,1,.78261.78261A1.71552,1.71552,0,0,1,11.36792,14.80381Z"/>
  </g>
</svg>
