<svg id="ru" xmlns="http://www.w3.org/2000/svg" xmlns:xlink="http://www.w3.org/1999/xlink" width="25" height="25" viewBox="0 0 25 25">
  <defs>
    <style>
      .cls-1 {
        fill: #1f1f1f;
      }

      .cls-1, .cls-2, .cls-3, .cls-4 {
        fill-rule: evenodd;
      }

      .cls-2 {
        fill: url(#linear-gradient);
      }

      .cls-3 {
        fill: url(#linear-gradient-2);
      }

      .cls-4 {
        fill: url(#linear-gradient-3);
      }

      .cls-5 {
        fill: #f0e16f;
      }

      .cls-6 {
        fill: #c76700;
      }
    </style>
    <linearGradient id="linear-gradient" x1="12.5" y1="4" x2="12.5" y2="23" gradientTransform="matrix(1, 0, 0, -1, 0, 26)" gradientUnits="userSpaceOnUse">
      <stop offset="0" stop-color="#b17a33"/>
      <stop offset="0.362" stop-color="#cfc261"/>
      <stop offset="0.614" stop-color="#ffef76"/>
      <stop offset="0.954" stop-color="#fff"/>
      <stop offset="1" stop-color="#fff"/>
    </linearGradient>
    <linearGradient id="linear-gradient-2" x1="12.5" y1="7" x2="12.5" y2="23" gradientTransform="matrix(1, 0, 0, -1, 0, 26)" gradientUnits="userSpaceOnUse">
      <stop offset="0" stop-color="#5c1510"/>
      <stop offset="1" stop-color="#ff460a"/>
    </linearGradient>
    <linearGradient id="linear-gradient-3" x1="12.5" y1="4.12876" x2="12.5" y2="15.09995" gradientUnits="userSpaceOnUse">
      <stop offset="0" stop-color="#a32b0b"/>
      <stop offset="1" stop-color="#370b07"/>
    </linearGradient>
  </defs>
  <path class="cls-1" d="M20,10v1.292c1.328-.2,2.61.4,4-.306A4.019,4.019,0,0,1,20,14v.031l-1.021,1.22A5.39994,5.39994,0,0,0,22,14.986c-.527,1.9-2.052,3.252-5.31,3.007L12.5,23,8.286,17.963c-3.237.233-4.757-1.11-5.282-3a5.369,5.369,0,0,0,3,.268l-1-1.2v-.049a4.017,4.017,0,0,1-4-3.007c1.387.7,2.669.1,4,.305V9.991C1.968,10.122.512,8.816,0,6.986c1.731.88,3.3-.272,5,.64V4H20V7.628c1.7-.915,3.266.241,5-.642C24.488,8.821,23.032,10.131,20,10Z"/>
  <path id="Ellipse_1_copy_16" data-name="Ellipse 1 copy 16" class="cls-2" d="M20,9v1.292c1.328-.2,2.61.4,4-.306A4.019,4.019,0,0,1,20,13v.031l-1.021,1.22A5.39994,5.39994,0,0,0,22,13.986c-.527,1.9-2.052,3.252-5.31,3.007L12.5,22,8.286,16.963c-3.237.233-4.757-1.11-5.282-3a5.369,5.369,0,0,0,3,.268l-1-1.2v-.049A4.017,4.017,0,0,1,1,9.975c1.387.7,2.669.1,4,.3V8.991C1.968,9.122.512,7.816,0,5.986c1.731.88,3.3-.272,5,.64V3H20V6.628c1.7-.915,3.266.241,5-.642C24.488,7.821,23.032,9.131,20,9Z"/>
  <path id="Polygon_2_copy_17" data-name="Polygon 2 copy 17" class="cls-3" d="M6,3H19V13.033L12.52,19,6,13.033Z"/>
  <g>
    <path class="cls-4" d="M17.98191,9.6644l.0039-.06054-.0039-.041a1.5188,1.5188,0,0,0-.51758-1.04541l-.002-.001a1.20352,1.20352,0,0,0-.15137-.10791,1.44009,1.44009,0,0,0-.1211-1.61426,1.39172,1.39172,0,0,0-.96289-.56689q-.05566-.00513-.10839-.00586a1.43863,1.43863,0,0,0-.89258-1.352,1.37519,1.37519,0,0,0-1.11621-.02637,1.2093,1.2093,0,0,0-.27832.16992,1.46609,1.46609,0,0,0-2.52344-.29052,1.24809,1.24809,0,0,0-.13965.27978,1.1273,1.1273,0,0,0-.26269-.15869A1.37094,1.37094,0,0,0,9.78952,4.869,1.43851,1.43851,0,0,0,8.897,6.222c-.03614,0-.07227.00195-.1084.00537a1.3906,1.3906,0,0,0-.96387.56738,1.44408,1.44408,0,0,0-.14062,1.58057,1.44048,1.44048,0,0,0-.65235,1.47021,1.39037,1.39037,0,0,0,.5752.95752c.02539.01709.0498.03272.07519.04688a1.25629,1.25629,0,0,0-.07519.15723,1.51542,1.51542,0,0,0,.043,1.166l.04785.08789a1.51187,1.51187,0,0,0,.9541.67285,1.27034,1.27034,0,0,0,.26172.02393,1.19941,1.19941,0,0,0,.00586.26416,1.50993,1.50993,0,0,0,.60742.99951l.084.05371a1.53245,1.53245,0,0,0,1.16114.12061,1.22233,1.22233,0,0,0,.40722-.22315,1.1974,1.1974,0,0,0,.22364.40528,1.50786,1.50786,0,0,0,1.0371.51757l.06446.0044.04492-.00342a1.5145,1.5145,0,0,0,1.0459-.51807,1.21193,1.21193,0,0,0,.22754-.417,1.20648,1.20648,0,0,0,.41894.23389,1.52414,1.52414,0,0,0,1.16211-.12012l.085-.0542a1.5153,1.5153,0,0,0,.60645-.99658,1.22218,1.22218,0,0,0,.00586-.2666,1.20363,1.20363,0,0,0,.26172-.02393,1.51187,1.51187,0,0,0,.9541-.67285l.04785-.08789a1.51778,1.51778,0,0,0,.043-1.167,1.24282,1.24282,0,0,0-.09473-.189,1.36418,1.36418,0,0,0,.14942-.10644A1.51315,1.51315,0,0,0,17.98191,9.6644Z"/>
    <g>
      <g>
        <g>
          <path class="cls-5" d="M12.49923,8.62635a12.77941,12.77941,0,0,1-.747-3.166c-.07784-.32347.19346-.63519.606-.69623a.76974.76974,0,0,1,.88788.47518.4701.4701,0,0,1,0,.221A12.77973,12.77973,0,0,1,12.49923,8.62635Z"/>
          <path class="cls-6" d="M12.499,8.91211l-.09375-.25049a12.95052,12.95052,0,0,1-.75293-3.19092.57423.57423,0,0,1,.09278-.45605.93858.93858,0,0,1,1.59863.20117.59165.59165,0,0,1,0,.26807,12.8866,12.8866,0,0,1-.751,3.17773Zm.002-4.05859a.878.878,0,0,0-.12793.00976.66731.66731,0,0,0-.46289.26318.38437.38437,0,0,0-.06055.311,12.76318,12.76318,0,0,0,.64941,2.895,12.6547,12.6547,0,0,0,.64746-2.88232.38137.38137,0,0,0,.002-.1875A.63546.63546,0,0,0,12.501,4.85352Z"/>
        </g>
        <g>
          <path class="cls-5" d="M12.49923,14.47331c-.45248-.03609-.7847-.34973-.74692-.70514a12.04156,12.04156,0,0,1,.76344-3.17892,13.56311,13.56311,0,0,1,.73051,3.17892C13.284,14.12361,12.95175,14.43727,12.49923,14.47331Z"/>
          <path class="cls-6" d="M12.499,14.57422l-.00781-.001a.98493.98493,0,0,1-.68359-.33008.6507.6507,0,0,1-.15528-.48535,12.16027,12.16027,0,0,1,.77051-3.20459l.09668-.24951.08985.25195a13.703,13.703,0,0,1,.73632,3.20215.64709.64709,0,0,1-.15429.48535.98727.98727,0,0,1-.68457.33008Zm.0127-3.69092a11.95433,11.95433,0,0,0-.66016,2.895.4462.4462,0,0,0,.10938.33691.69144.69144,0,0,0,1.07715,0,.44557.44557,0,0,0,.10839-.33593A13.406,13.406,0,0,0,12.51172,10.8833Z"/>
        </g>
      </g>
      <g>
        <g>
          <path class="cls-5" d="M13.02731,8.77973a12.77945,12.77945,0,0,1,1.061-3.075.62188.62188,0,0,1,.8843-.26453.76973.76973,0,0,1,.4964.8762.47.47,0,0,1-.11816.18682A12.7794,12.7794,0,0,1,13.02731,8.77973Z"/>
          <path class="cls-6" d="M12.875,9.021l.05469-.26172a12.90608,12.90608,0,0,1,1.06836-3.09912.575.575,0,0,1,.32129-.33594.93879.93879,0,0,1,1.24414,1.02441.57117.57117,0,0,1-.14258.22608,12.87205,12.87205,0,0,1-2.333,2.28467Zm1.749-3.55811a.561.561,0,0,0-.22461.04492.38232.38232,0,0,0-.21679.229,12.77176,12.77176,0,0,0-.998,2.79443,12.71186,12.71186,0,0,0,2.08789-2.08984.40851.40851,0,0,0,.10156-.15723.67056.67056,0,0,0-.4414-.75244A.774.774,0,0,0,14.624,5.46289Z"/>
        </g>
        <g>
          <path class="cls-5" d="M9.902,13.72133a.72067.72067,0,0,1-.25436-.9952,12.04251,12.04251,0,0,1,2.34442-2.27862,13.563,13.563,0,0,1-1.08179,3.07717A.72069.72069,0,0,1,9.902,13.72133Z"/>
          <path class="cls-6" d="M10.34863,13.93652a1.07576,1.07576,0,0,1-.49316-.126l-.0127-.00879a.98518.98518,0,0,1-.40234-.64551.65192.65192,0,0,1,.12891-.49219,12.13534,12.13534,0,0,1,2.36328-2.29687l.21582-.15918-.0586.26172A13.711,13.711,0,0,1,11,13.56836a.65143.65143,0,0,1-.38965.32812A.83333.83333,0,0,1,10.34863,13.93652Zm-.39258-.2998a.77655.77655,0,0,0,.59278.06933.44179.44179,0,0,0,.27148-.22558A13.52086,13.52086,0,0,0,11.832,10.69434,11.88479,11.88479,0,0,0,9.72656,12.7876a.44852.44852,0,0,0-.08789.34326A.78564.78564,0,0,0,9.95605,13.63672Z"/>
        </g>
      </g>
      <g>
        <g>
          <path class="cls-5" d="M13.36216,9.13438a12.77952,12.77952,0,0,1,2.42756-2.16525.62187.62187,0,0,1,.90086.201.76973.76973,0,0,1,.00528,1.007.46987.46987,0,0,1-.19434.10533A12.77946,12.77946,0,0,1,13.36216,9.13438Z"/>
          <path class="cls-6" d="M13.11133,9.27051l.17578-.20166A12.87112,12.87112,0,0,1,15.7334,6.88672.57494.57494,0,0,1,16.17773,6.75a.93934.93934,0,0,1,.58594,1.50146.58493.58493,0,0,1-.23535.12793,12.87017,12.87017,0,0,1-3.15234.854Zm3.00195-2.32373a.37407.37407,0,0,0-.25586.09668,12.73884,12.73884,0,0,0-2.2373,1.95068,12.65133,12.65133,0,0,0,2.84375-.80371.4027.4027,0,0,0,.166-.08789A.67238.67238,0,0,0,16.61035,7.23a.66539.66539,0,0,0-.45215-.28076C16.14258,6.94775,16.12793,6.94678,16.11328,6.94678Z"/>
        </g>
        <g>
          <path class="cls-5" d="M8.22162,11.92036a.72065.72065,0,0,1,.26405-.99266,12.04191,12.04191,0,0,1,3.15862-.84351,13.56286,13.56286,0,0,1-2.44677,2.157A.72068.72068,0,0,1,8.22162,11.92036Z"/>
          <path class="cls-6" d="M8.89355,12.43311a.71958.71958,0,0,1-.13964-.01368.98559.98559,0,0,1-.61621-.44482l-.00782-.01367a.98765.98765,0,0,1-.03515-.75928.64879.64879,0,0,1,.35254-.36621,12.14542,12.14542,0,0,1,3.18457-.85059l.26562-.03369-.17871.19922a13.65954,13.65954,0,0,1-2.46484,2.17334A.62983.62983,0,0,1,8.89355,12.43311Zm-.584-.56055a.78276.78276,0,0,0,.4834.35058.44023.44023,0,0,0,.34765-.06445,13.46679,13.46679,0,0,0,2.24415-1.9375A11.91743,11.91743,0,0,0,8.52441,11.02a.44386.44386,0,0,0-.24414.25635A.7866.7866,0,0,0,8.30957,11.87256Z"/>
        </g>
      </g>
      <g>
        <g>
          <path class="cls-5" d="M11.98727,8.77973a12.77945,12.77945,0,0,0-1.061-3.075.62188.62188,0,0,0-.8843-.26453.76973.76973,0,0,0-.4964.8762.47.47,0,0,0,.11816.18682A12.7794,12.7794,0,0,0,11.98727,8.77973Z"/>
          <path class="cls-6" d="M12.13965,9.021l-.21289-.16162A12.91326,12.91326,0,0,1,9.58594,6.56543a.5225.5225,0,0,1-.13477-.21777.9391.9391,0,0,1,1.24414-1.02344.58449.58449,0,0,1,.32617.34814A12.83271,12.83271,0,0,1,12.085,8.75928Zm-1.749-3.55811a.76592.76592,0,0,0-.30761.06885.6703.6703,0,0,0-.44239.75244.364.364,0,0,0,.09278.14746,12.78681,12.78681,0,0,0,2.09668,2.09961A12.65429,12.65429,0,0,0,10.83691,5.749a.3925.3925,0,0,0-.22168-.24121A.56089.56089,0,0,0,10.39062,5.46289Z"/>
        </g>
        <g>
          <path class="cls-5" d="M15.11257,13.72133a.72067.72067,0,0,0,.25436-.9952,12.04251,12.04251,0,0,0-2.34442-2.27862,13.563,13.563,0,0,0,1.08179,3.07717A.72069.72069,0,0,0,15.11257,13.72133Z"/>
          <path class="cls-6" d="M14.666,13.93652a.83329.83329,0,0,1-.26172-.04.65143.65143,0,0,1-.38965-.32812,13.68066,13.68066,0,0,1-1.08985-3.09863l-.05859-.26172.21582.15918a12.15645,12.15645,0,0,1,2.36426,2.29736.65381.65381,0,0,1,.12793.4917.98522.98522,0,0,1-.40234.64551l-.0127.00879A1.07576,1.07576,0,0,1,14.666,13.93652Zm-1.4834-3.24218a13.36925,13.36925,0,0,0,1.01172,2.78515.44013.44013,0,0,0,.27148.22656.77522.77522,0,0,0,.59277-.06933.78562.78562,0,0,0,.31739-.50586.45041.45041,0,0,0-.08692-.34277A11.9261,11.9261,0,0,0,13.18262,10.69434Z"/>
        </g>
      </g>
      <g>
        <g>
          <path class="cls-5" d="M11.65242,9.13438A12.77952,12.77952,0,0,0,9.22486,6.96913a.62186.62186,0,0,0-.90085.201.76971.76971,0,0,0-.00529,1.007.46987.46987,0,0,0,.19434.10533A12.77946,12.77946,0,0,0,11.65242,9.13438Z"/>
          <path class="cls-6" d="M11.90332,9.27051l-.26465-.03711A12.91413,12.91413,0,0,1,8.47461,8.375.55074.55074,0,0,1,8.252,8.252a.93893.93893,0,0,1,.585-1.502.58187.58187,0,0,1,.45508.145,12.80882,12.80882,0,0,1,2.43555,2.17383ZM8.90039,6.94678a.43994.43994,0,0,0-.04394.00244A.74339.74339,0,0,0,8.38574,8.103a.36752.36752,0,0,0,.15332.083,12.71258,12.71258,0,0,0,2.85547.8081A12.672,12.672,0,0,0,9.168,7.05176.39235.39235,0,0,0,8.90039,6.94678Z"/>
        </g>
        <g>
          <path class="cls-5" d="M16.793,11.92036a.72065.72065,0,0,0-.26405-.99266,12.04191,12.04191,0,0,0-3.15862-.84351,13.56286,13.56286,0,0,0,2.44677,2.157A.72068.72068,0,0,0,16.793,11.92036Z"/>
          <path class="cls-6" d="M16.12109,12.43311a.62977.62977,0,0,1-.36035-.10938,13.6592,13.6592,0,0,1-2.46484-2.17334l-.17871-.19922.26562.03369a12.19081,12.19081,0,0,1,3.18555.85059.65024.65024,0,0,1,.35156.36621.98765.98765,0,0,1-.03515.75928l-.00782.01367a.98559.98559,0,0,1-.61621.44482A.71961.71961,0,0,1,16.12109,12.43311Zm-2.49121-2.21192a13.444,13.444,0,0,0,2.24414,1.9375.44423.44423,0,0,0,.34766.06445.69042.69042,0,0,0,.5127-.94677.44525.44525,0,0,0-.24317-.25635A11.93492,11.93492,0,0,0,13.62988,10.22119Z"/>
        </g>
      </g>
      <g>
        <g>
          <path class="cls-5" d="M11.512,9.61341a12.78006,12.78006,0,0,1-3.166.747c-.32348.07784-.6352-.19347-.69624-.606A.76973.76973,0,0,1,8.125,8.86651a.4701.4701,0,0,1,.221,0A12.77994,12.77994,0,0,1,11.512,9.61341Z"/>
          <path class="cls-6" d="M8.23438,10.47412a.59686.59686,0,0,1-.333-.106.93791.93791,0,0,1,.20019-1.59863.58281.58281,0,0,1,.26758,0,12.8276,12.8276,0,0,1,3.17774.75l.25.09375-.25.09375A12.91927,12.91927,0,0,1,8.35645,10.46.5088.5088,0,0,1,8.23438,10.47412Zm-.001-1.52051a.35467.35467,0,0,0-.085.01026.7425.7425,0,0,0-.13574,1.23877.38276.38276,0,0,0,.30957.06054,12.73021,12.73021,0,0,0,2.8955-.6499,12.64115,12.64115,0,0,0-2.88183-.647A.46662.46662,0,0,0,8.2334,8.95361Z"/>
        </g>
        <g>
          <path class="cls-5" d="M17.35893,9.61341c-.03608.45247-.34973.7847-.70513.74692a12.04212,12.04212,0,0,1-3.17893-.76344,13.56319,13.56319,0,0,1,3.17893-.73051C17.00924,8.8286,17.32289,9.16089,17.35893,9.61341Z"/>
          <path class="cls-6" d="M16.707,10.46338c-.02148,0-.043-.00147-.06445-.00342a12.1628,12.1628,0,0,1-3.2041-.77l-.25-.09668.25195-.09082a13.73384,13.73384,0,0,1,3.20215-.73584.66968.66968,0,0,1,.48633.15479.988.988,0,0,1,.33007.68408l.001.00781-.001.00781a.98809.98809,0,0,1-.33007.68409A.66168.66168,0,0,1,16.707,10.46338ZM13.76855,9.6001a11.902,11.902,0,0,0,2.89454.66064.45306.45306,0,0,0,.33789-.10986.68942.68942,0,0,0,0-1.0752.43457.43457,0,0,0-.33692-.10986A13.48534,13.48534,0,0,0,13.76855,9.6001Z"/>
        </g>
      </g>
      <g>
        <circle class="cls-5" cx="12.49947" cy="9.61413" r="0.79699"/>
        <path class="cls-6" d="M12.499,10.51123a.897.897,0,1,1,.89746-.897A.89783.89783,0,0,1,12.499,10.51123Zm0-1.59375a.69678.69678,0,1,0,.69825.69678A.6982.6982,0,0,0,12.499,8.91748Z"/>
      </g>
    </g>
  </g>
</svg>
