<svg id="Layer_1" data-name="Layer 1" xmlns="http://www.w3.org/2000/svg" xmlns:xlink="http://www.w3.org/1999/xlink" width="36" height="35.776" viewBox="0 0 36 35.776">
  <defs>
    <style>
      .cls-1 {
        fill: #b83027;
      }

      .cls-2 {
        fill-rule: evenodd;
        fill: url(#linear-gradient);
      }

      .cls-3 {
        fill: #f0e16f;
      }

      .cls-4 {
        fill: #c76700;
      }
    </style>
    <linearGradient id="linear-gradient" x1="10.64583" y1="0.776" x2="10.64583" y2="19.74521" gradientUnits="userSpaceOnUse">
      <stop offset="0" stop-color="#a32b0b"/>
      <stop offset="1" stop-color="#370b07"/>
    </linearGradient>
  </defs>
  <g id="Group_3231" data-name="Group 3231">
    <path id="Path_1567" data-name="Path 1567" class="cls-1" d="M2,0H36L0,35.776V2A2,2,0,0,1,2,0Z"/>
  </g>
  <g>
    <path class="cls-2" d="M20.12406,10.34714l.00675-.10469-.00675-.07091A2.626,2.626,0,0,0,19.22917,8.364l-.00338-.00169a2.08019,2.08019,0,0,0-.26171-.18658A2.48991,2.48991,0,0,0,18.7547,5.3847a2.40623,2.40623,0,0,0-1.66484-.98016q-.09624-.00887-.18742-.01013a2.48735,2.48735,0,0,0-1.54327-2.3377,2.37773,2.37773,0,0,0-1.92993-.04559,2.09075,2.09075,0,0,0-.48121.29379A2.42737,2.42737,0,0,0,10.2414.80555a2.41066,2.41066,0,0,0-1.6564.997,2.15777,2.15777,0,0,0-.24145.48375A1.94905,1.94905,0,0,0,7.88934,2.012a2.37033,2.37033,0,0,0-1.92993.0439A2.48719,2.48719,0,0,0,4.41614,4.39525c-.06247,0-.12494.00338-.18742.00929a2.40432,2.40432,0,0,0-1.66653.981,2.49685,2.49685,0,0,0-.24314,2.73281,2.49063,2.49063,0,0,0-1.1279,2.542,2.404,2.404,0,0,0,.99451,1.65555c.0439.02955.08612.05657.13.08105a2.1736,2.1736,0,0,0-.13.27185,2.62027,2.62027,0,0,0,.0743,2.016l.08273.152a2.61406,2.61406,0,0,0,1.64965,1.16336,2.19653,2.19653,0,0,0,.45251.04137,2.07367,2.07367,0,0,0,.01013.45674,2.61065,2.61065,0,0,0,1.05023,1.72815l.14521.09287a2.64962,2.64962,0,0,0,2.0076.20853,2.11367,2.11367,0,0,0,.7041-.38582,2.0702,2.0702,0,0,0,.38666.70072,2.60709,2.60709,0,0,0,1.79316.89489l.11144.0076.07767-.00591a2.61853,2.61853,0,0,0,1.80836-.89574,2.09547,2.09547,0,0,0,.39342-.721,2.08581,2.08581,0,0,0,.72436.40439,2.63525,2.63525,0,0,0,2.00929-.20768l.14689-.09371a2.61994,2.61994,0,0,0,1.04855-1.72309,2.113,2.113,0,0,0,.01013-.461,2.08084,2.08084,0,0,0,.45251-.04137,2.61406,2.61406,0,0,0,1.64965-1.16336l.08273-.152a2.62423,2.62423,0,0,0,.07429-2.01773,2.14577,2.14577,0,0,0-.16378-.32672,2.35989,2.35989,0,0,0,.25834-.184A2.61615,2.61615,0,0,0,20.12406,10.34714Z"/>
    <g>
      <g>
        <g>
          <path class="cls-3" d="M10.6445,8.55235A22.09541,22.09541,0,0,1,9.353,3.07838c-.13459-.55929.3345-1.09825,1.04774-1.20379a1.33086,1.33086,0,0,1,1.53514.8216.81248.81248,0,0,1,0,.38219A22.09629,22.09629,0,0,1,10.6445,8.55235Z"/>
          <path class="cls-4" d="M10.64453,9.04639l-.16211-.4336a22.32708,22.32708,0,0,1-1.30176-5.5166.99659.99659,0,0,1,.15918-.78808,1.49811,1.49811,0,0,1,1.03516-.6045,1.50267,1.50267,0,0,1,1.72852.95264.97444.97444,0,0,1,0,.4624,22.20024,22.20024,0,0,1-1.29688,5.49414Zm.00293-7.01709a1.5495,1.5495,0,0,0-.22168.01611A1.15615,1.15615,0,0,0,9.626,2.502a.66571.66571,0,0,0-.10547.53662,22.045,22.045,0,0,0,1.124,5.00538A21.93655,21.93655,0,0,0,11.76367,3.061a.70128.70128,0,0,0,.00391-.32422A1.09851,1.09851,0,0,0,10.64746,2.0293Z"/>
        </g>
        <g>
          <path class="cls-3" d="M10.6445,18.66175c-.78233-.06239-1.35675-.60468-1.29143-1.21918a20.82024,20.82024,0,0,1,1.32-5.49637,23.45048,23.45048,0,0,1,1.263,5.49637C12.00144,18.05712,11.4269,18.59944,10.6445,18.66175Z"/>
          <path class="cls-4" d="M10.64453,18.835l-.01367-.001a1.70464,1.70464,0,0,1-1.18262-.5708,1.12613,1.12613,0,0,1-.2666-.83886,21.01938,21.01938,0,0,1,1.33008-5.54053l.167-.43164.15723.43555a23.73855,23.73855,0,0,1,1.27246,5.53662,1.12856,1.12856,0,0,1-.26758.83984,1.70572,1.70572,0,0,1-1.18262.56982Zm.02246-6.38037a20.60769,20.60769,0,0,0-1.1416,5.00488.77773.77773,0,0,0,.18848.583,1.35985,1.35985,0,0,0,.93066.4458,1.353,1.353,0,0,0,.92969-.44531.77172.77172,0,0,0,.19043-.58252A23.33347,23.33347,0,0,0,10.667,12.45459Z"/>
        </g>
      </g>
      <g>
        <g>
          <path class="cls-3" d="M11.55755,8.81754A22.09622,22.09622,0,0,1,13.392,3.50085a1.07523,1.07523,0,0,1,1.529-.45736,1.33087,1.33087,0,0,1,.85828,1.51494.81248.81248,0,0,1-.2043.323A22.09558,22.09558,0,0,1,11.55755,8.81754Z"/>
          <path class="cls-4" d="M11.294,9.23486l.09472-.45312a22.34217,22.34217,0,0,1,1.84766-5.35791.99249.99249,0,0,1,.55566-.58057,1.49621,1.49621,0,0,1,1.19922.042,1.50617,1.50617,0,0,1,.95215,1.729,1.0037,1.0037,0,0,1-.24707.39111,22.192,22.192,0,0,1-4.03418,3.94971ZM14.31738,3.083a.96436.96436,0,0,0-.38672.07666.66152.66152,0,0,0-.375.397A22.07782,22.07782,0,0,0,11.8291,8.38818a21.88427,21.88427,0,0,0,3.61035-3.61377.68806.68806,0,0,0,.17578-.27148,1.159,1.159,0,0,0-.76464-1.30127A1.31928,1.31928,0,0,0,14.31738,3.083Z"/>
        </g>
        <g>
          <path class="cls-3" d="M6.1539,17.36157a1.246,1.246,0,0,1-.43978-1.72069,20.82031,20.82031,0,0,1,4.0535-3.93974,23.45038,23.45038,0,0,1-1.87043,5.32042A1.24606,1.24606,0,0,1,6.1539,17.36157Z"/>
          <path class="cls-4" d="M6.92578,17.73389a1.8493,1.8493,0,0,1-.85254-.21973l-.02246-.01465a1.70354,1.70354,0,0,1-.69531-1.11474,1.1227,1.1227,0,0,1,.22265-.85108A21.01225,21.01225,0,0,1,9.665,11.562l.37207-.2749-.10059.45166a23.72437,23.72437,0,0,1-1.88379,5.35937,1.12622,1.12622,0,0,1-.6748.56641A1.45965,1.45965,0,0,1,6.92578,17.73389Zm-.67871-.519a1.34661,1.34661,0,0,0,1.02441.12061.76857.76857,0,0,0,.47071-.39063,23.30283,23.30283,0,0,0,1.749-4.81738,20.57489,20.57489,0,0,0-3.64062,3.62012.77047.77047,0,0,0-.15235.59277A1.35581,1.35581,0,0,0,6.24707,17.21484Z"/>
        </g>
      </g>
      <g>
        <g>
          <path class="cls-3" d="M12.13652,9.43072A22.0957,22.0957,0,0,1,16.33376,5.687a1.0752,1.0752,0,0,1,1.55758.34756,1.33086,1.33086,0,0,1,.00914,1.74115.81252.81252,0,0,1-.336.18211A22.09543,22.09543,0,0,1,12.13652,9.43072Z"/>
          <path class="cls-4" d="M11.70312,9.666l.30274-.34864a22.2878,22.2878,0,0,1,4.23047-3.77295,1.00206,1.00206,0,0,1,.76758-.23632,1.50085,1.50085,0,0,1,1.02636.623,1.50479,1.50479,0,0,1-.01465,1.97315.97323.97323,0,0,1-.40624.2207,22.2242,22.2242,0,0,1-5.44825,1.47705Zm5.19043-4.01709a.65131.65131,0,0,0-.44433.1665A22.047,22.047,0,0,0,12.583,9.18848a21.91237,21.91237,0,0,0,4.915-1.39014.69927.69927,0,0,0,.28711-.15088,1.15945,1.15945,0,0,0-.03223-1.50879,1.15354,1.15354,0,0,0-.78223-.48633C16.94434,5.6499,16.919,5.64893,16.89355,5.64893Z"/>
        </g>
        <g>
          <path class="cls-3" d="M3.24851,14.2477a1.246,1.246,0,0,1,.45654-1.71632A20.82052,20.82052,0,0,1,9.16631,11.073a23.4498,23.4498,0,0,1-4.23048,3.72939A1.246,1.246,0,0,1,3.24851,14.2477Z"/>
          <path class="cls-4" d="M4.41113,15.13428a1.232,1.232,0,0,1-.24121-.02393,1.70466,1.70466,0,0,1-1.0664-.76855l-.01368-.02442a1.70716,1.70716,0,0,1-.06054-1.312,1.12171,1.12171,0,0,1,.61035-.63379,21.01965,21.01965,0,0,1,5.50488-1.47021l.459-.0586-.3086.34522A23.66575,23.66575,0,0,1,5.0332,14.94482,1.09089,1.09089,0,0,1,4.41113,15.13428ZM3.40039,14.165a1.35906,1.35906,0,0,0,.83691.606.77151.77151,0,0,0,.60059-.11133,23.23437,23.23437,0,0,0,3.87793-3.3501,20.6402,20.6402,0,0,0-4.94336,1.38086.77222.77222,0,0,0-.42285.44385A1.35579,1.35579,0,0,0,3.40039,14.165Z"/>
        </g>
      </g>
      <g>
        <g>
          <path class="cls-3" d="M9.75932,8.81754A22.09579,22.09579,0,0,0,7.9249,3.50085a1.07522,1.07522,0,0,0-1.529-.45736,1.33086,1.33086,0,0,0-.85827,1.51494.81245.81245,0,0,0,.20429.323A22.09558,22.09558,0,0,0,9.75932,8.81754Z"/>
          <path class="cls-4" d="M10.02344,9.23486l-.36817-.27978a22.28,22.28,0,0,1-4.04882-3.9668.91826.91826,0,0,1-.23243-.375,1.50587,1.50587,0,0,1,.95118-1.728,1.50239,1.50239,0,0,1,1.19921-.042,1.01,1.01,0,0,1,.56446.60205A22.246,22.246,0,0,1,9.92871,8.78174ZM6.999,3.083a1.3192,1.3192,0,0,0-.5332.11865,1.159,1.159,0,0,0-.76367,1.30127.61523.61523,0,0,0,.16015.25391,22.011,22.011,0,0,0,3.626,3.63134A21.89957,21.89957,0,0,0,7.76953,3.57764a.68082.68082,0,0,0-.38379-.418A.96433.96433,0,0,0,6.999,3.083Z"/>
        </g>
        <g>
          <path class="cls-3" d="M15.163,17.36157a1.246,1.246,0,0,0,.43978-1.72069,20.82026,20.82026,0,0,0-4.05349-3.93974,23.44987,23.44987,0,0,0,1.87042,5.32042A1.24606,1.24606,0,0,0,15.163,17.36157Z"/>
          <path class="cls-4" d="M14.3916,17.73389a1.4597,1.4597,0,0,1-.45215-.06934,1.12622,1.12622,0,0,1-.6748-.56641,23.70244,23.70244,0,0,1-1.88477-5.35937l-.10058-.45215.37207.27539a21.02161,21.02161,0,0,1,4.08789,3.97266,1.12522,1.12522,0,0,1,.22168.85107,1.70008,1.70008,0,0,1-.69434,1.11377l-.02246.01465A1.84628,1.84628,0,0,1,14.3916,17.73389Zm-2.56543-5.60645a23.24132,23.24132,0,0,0,1.749,4.81738.76855.76855,0,0,0,.4707.39063,1.1936,1.1936,0,0,0,1.57226-.99414.76841.76841,0,0,0-.15136-.59277A20.59629,20.59629,0,0,0,11.82617,12.12744Z"/>
        </g>
      </g>
      <g>
        <g>
          <path class="cls-3" d="M9.18036,9.43072A22.09576,22.09576,0,0,0,4.98311,5.687a1.0752,1.0752,0,0,0-1.55758.34756,1.33087,1.33087,0,0,0-.00914,1.74115.81258.81258,0,0,0,.336.18211A22.0955,22.0955,0,0,0,9.18036,9.43072Z"/>
          <path class="cls-4" d="M9.61523,9.666l-.459-.064a22.33165,22.33165,0,0,1-5.4707-1.48437.92932.92932,0,0,1-.38477-.21338,1.50721,1.50721,0,0,1-.01367-1.97315,1.50087,1.50087,0,0,1,1.02637-.623,1.00959,1.00959,0,0,1,.78515.25048,22.20788,22.20788,0,0,1,4.21289,3.7583ZM4.42285,5.64893c-.02539,0-.0498.001-.07617.00341a1.15356,1.15356,0,0,0-.78223.48633,1.15944,1.15944,0,0,0-.03222,1.50879.63692.63692,0,0,0,.26465.14356A22.04884,22.04884,0,0,0,8.7334,9.18848,21.90627,21.90627,0,0,0,4.88574,5.82959.67937.67937,0,0,0,4.42285,5.64893Z"/>
        </g>
        <g>
          <path class="cls-3" d="M18.06837,14.2477a1.246,1.246,0,0,0-.45655-1.71632A20.82052,20.82052,0,0,0,12.15056,11.073,23.4498,23.4498,0,0,0,16.381,14.80234,1.24606,1.24606,0,0,0,18.06837,14.2477Z"/>
          <path class="cls-4" d="M16.90625,15.13428a1.094,1.094,0,0,1-.623-.18946A23.66523,23.66523,0,0,1,12.02148,11.188l-.30859-.34522.459.0586a21.03273,21.03273,0,0,1,5.50781,1.4707,1.12626,1.12626,0,0,1,.60937.63379,1.70781,1.70781,0,0,1-.0625,1.312l-.01367.02393a1.70451,1.70451,0,0,1-1.06543.76806A1.23962,1.23962,0,0,1,16.90625,15.13428Zm-4.30566-3.82471a23.29182,23.29182,0,0,0,3.87793,3.3501.77581.77581,0,0,0,.60156.11133,1.359,1.359,0,0,0,.83594-.606,1.3549,1.3549,0,0,0,.05175-1.03027.77219.77219,0,0,0-.42089-.44385A20.67669,20.67669,0,0,0,12.60059,11.30957Z"/>
        </g>
      </g>
      <g>
        <g>
          <path class="cls-3" d="M8.93754,10.259a22.09562,22.09562,0,0,1-5.474,1.29149c-.55929.13459-1.09825-.3345-1.20379-1.04774a1.33087,1.33087,0,0,1,.82159-1.53514.81252.81252,0,0,1,.3822,0A22.09629,22.09629,0,0,1,8.93754,10.259Z"/>
          <path class="cls-4" d="M3.27148,11.74756a1.03566,1.03566,0,0,1-.57714-.1836,1.49634,1.49634,0,0,1-.60547-1.03564A1.50486,1.50486,0,0,1,3.041,8.7998a.98051.98051,0,0,1,.46386,0A22.19535,22.19535,0,0,1,8.998,10.09668l.43359.16211L8.998,10.4209a22.30229,22.30229,0,0,1-5.5166,1.30127A.86423.86423,0,0,1,3.27148,11.74756Zm-.00195-2.6294a.6156.6156,0,0,0-.14746.01758,1.16,1.16,0,0,0-.69141,1.3418,1.15348,1.15348,0,0,0,.457.7998.65821.65821,0,0,0,.53613.105,22.04713,22.04713,0,0,0,5.00586-1.12353,21.90875,21.90875,0,0,0-4.9834-1.11914A.78491.78491,0,0,0,3.26953,9.11816Z"/>
        </g>
        <g>
          <path class="cls-3" d="M19.04694,10.259c-.0624.78233-.60468,1.35675-1.21919,1.29143a20.821,20.821,0,0,1-5.49636-1.32,23.45,23.45,0,0,1,5.49636-1.263C18.44231,8.902,18.98462,9.47657,19.04694,10.259Z"/>
          <path class="cls-4" d="M17.92188,11.728a1.08321,1.08321,0,0,1-.11231-.00586,21.02287,21.02287,0,0,1-5.541-1.33057l-.43164-.16748.43555-.15625a23.68761,23.68761,0,0,1,5.53809-1.27246,1.11963,1.11963,0,0,1,.83789.26611,1.70554,1.70554,0,0,1,.57031,1.1836l.002.01367-.002.01367a1.70453,1.70453,0,0,1-.57031,1.18359A1.14151,1.14151,0,0,1,17.92188,11.728Zm-5.082-1.4917a20.63243,20.63243,0,0,0,5.00489,1.14209.77587.77587,0,0,0,.583-.189,1.35138,1.35138,0,0,0,.44532-.93066,1.34826,1.34826,0,0,0-.44629-.93067.76884.76884,0,0,0-.58008-.189A23.27567,23.27567,0,0,0,12.83984,10.23633Z"/>
        </g>
      </g>
      <g>
        <circle class="cls-3" cx="10.64492" cy="10.26022" r="1.378"/>
        <path class="cls-4" d="M10.64453,11.811a1.55079,1.55079,0,1,1,1.55078-1.55079A1.55239,1.55239,0,0,1,10.64453,11.811Zm0-2.75586a1.20508,1.20508,0,1,0,1.20508,1.20507A1.20667,1.20667,0,0,0,10.64453,9.05518Z"/>
      </g>
    </g>
  </g>
</svg>
