<svg id="guns_sights" data-name="guns sights" xmlns="http://www.w3.org/2000/svg" width="128" height="128" viewBox="0 0 128 128">
  <defs>
    <style>
      .cls-1 {
        fill: #e0e0e0;
        fill-rule: evenodd;
      }
    </style>
  </defs>
  <g id="Group_8_copy" data-name="Group 8 copy">
    <path id="Color_Fill_1_copy_3" data-name="Color Fill 1 copy 3" class="cls-1" d="M113.5,100.521q-2.877,2.81-7.973,2.809h-4.44v11.6h-6.16V81.947h10.735a10.309,10.309,0,0,1,7.8,3.035,10.92,10.92,0,0,1,2.911,7.883A10.205,10.205,0,0,1,113.5,100.521ZM108.587,88.98a3.416,3.416,0,0,0-2.855-1.484h-4.643V97.781h4.575a3.626,3.626,0,0,0,2.945-1.246,5.515,5.515,0,0,0,1.042-3.624A6.543,6.543,0,0,0,108.587,88.98ZM98.207,77.009H94.991a4.977,4.977,0,0,0-2.936.952,4.973,4.973,0,0,0-2.935-.952H81.481a5,5,0,0,0-4.44,2.7,5,5,0,0,0-4.44-2.7H64.968a5,5,0,0,0-4.516,7.145L67.2,98.36l-3.385,7.1L45.324,72.194c0.707-.164,1.154-0.263,1.154-0.263l3.645-11.309c-1.2-1.8-1.338-3.769-1.969-6.9a5.836,5.836,0,0,1-1.539-.278c-1.037-.416-2.5-3.444-3.4-5.761,0,0-5.408.882-5.94-1.784,0.133-1.067,2.738-12.919,2.738-12.919S45.126,10,60.168,10h6.5C81.711,10,86.415,34.68,86.415,34.68s2.846,10.156,2.98,11.223c-0.532,2.666-5.77,1.784-5.77,1.784-0.9,2.317-2.365,5.345-3.4,5.761a5.836,5.836,0,0,1-1.539.278c-0.631,3.127-.772,5.1-1.969,6.9l2.955,11.235S92.35,74.425,98.207,77.009ZM37.669,74.138l0.484-.132,17.615,37.409a144.365,144.365,0,0,1-22.727-2.807c-8.934-2.423-14.532-5.884-14.532-9.729a3.939,3.939,0,0,0-.186-0.861c2.688-8.68,6.359-18.807,9.256-20.335A44.977,44.977,0,0,1,34.7,75a1.064,1.064,0,0,0-.006-0.224c-0.152-.588-1.319-1.157-9.359,1.16L18.319,48.909l1.672-2.463-8.972-30.37,2.433-1.216L22.236,36.6l5.285-1.935,0.532,2.081-2.434,6.08Zm52.322,17.7v12.991L86.9,98.357ZM64.906,81.947H72.54l4.44,11.326,4.44-11.326h7.634L81.306,98.3l7.928,16.626H81.51L76.98,103.4l-4.508,11.53H64.748L72.676,98.3Z"/>
  </g>
</svg>
