<svg id="guns_sights" data-name="guns sights" xmlns="http://www.w3.org/2000/svg" width="128" height="128" viewBox="0 0 128 128">
  <defs>
    <style>
      .cls-1 {
        fill: #e0e0e0;
        fill-rule: evenodd;
      }
    </style>
  </defs>
  <path id="Shape_40_copy_2" data-name="Shape 40 copy 2" class="cls-1" d="M107,117.6a7.4,7.4,0,0,0,2.941-5.9V74.026h6.121v35.88A11,11,0,0,1,107,117.6Zm2.941-56.077a11.277,11.277,0,0,0-.543-3.454,52.6,52.6,0,0,0,.489-10.708,29.837,29.837,0,0,0-1.275-7.686l0.947-5.4a23.6,23.6,0,0,0,.316-5A44.449,44.449,0,0,1,114.4,44.043c1.075,7.961.058,21.181-4.462,27.659V61.519ZM67.852,14.049a5.895,5.895,0,0,0-7.7,0H53.933A8.785,8.785,0,0,1,61.917,8.89h4.165a8.785,8.785,0,0,1,7.984,5.159H67.852ZM18.444,34.272l0.947,5.4a29.824,29.824,0,0,0-1.275,7.686A52.612,52.612,0,0,0,18.6,58.065a11.275,11.275,0,0,0-.543,3.455V71.7C13.542,65.224,12.526,52,13.6,44.043A44.451,44.451,0,0,1,18.128,29.27,23.6,23.6,0,0,0,18.444,34.272ZM18.062,111.7A7.4,7.4,0,0,0,21,117.6a11,11,0,0,1-9.062-7.69V74.026h6.121V111.7Zm86.908-78.23-2.335,13.315c-0.48,2.738-1.953,4.279-3.624,4.279H28.989c-1.671,0-3.144-1.542-3.624-4.279L23.031,33.468c-1.276-7.275,1.909-14.6,6.349-14.6H98.621C103.061,18.872,106.245,26.193,104.97,33.468ZM20.988,61.519a8.555,8.555,0,0,1,3.681-7.028,7.154,7.154,0,0,0,4.32,1.477H57V64H71V55.968H99.011a7.153,7.153,0,0,0,4.32-1.477,8.554,8.554,0,0,1,3.681,7.028v49.846a4.658,4.658,0,0,1-4.653,4.652H25.641a4.658,4.658,0,0,1-4.652-4.652V61.519Zm11.129,44.764a1.626,1.626,0,0,0,1.626,1.626H94.257a1.626,1.626,0,0,0,1.626-1.626V76.523a8.448,8.448,0,0,0-8.438-8.438H40.555a8.448,8.448,0,0,0-8.438,8.438v29.76ZM41.019,72H86.981a5.089,5.089,0,0,1,5.083,5.083v27H35.936v-27A5.089,5.089,0,0,1,41.019,72Z"/>
</svg>
