<svg id="guns_sights" data-name="guns sights" xmlns="http://www.w3.org/2000/svg" width="128" height="128" viewBox="0 0 128 128">
  <defs>
    <style>
      .cls-1 {
        fill: #e0e0e0;
        fill-rule: evenodd;
      }
    </style>
  </defs>
  <path class="cls-1" d="M100.3,87.971l4.051,1.272,12.261,14.912a3.091,3.091,0,0,1-.51,4.418l-8.014,6.113a3.059,3.059,0,0,1-4.574-1.032L89.485,86.566,87.529,88.64C84.886,89.123,82,84.655,82,84.655l-5.887-7.849-0.6-3.985L64.5,61.652,53.485,72.822l-0.6,3.985L47,84.655s-2.883,4.468-5.527,3.985l-1.956-2.073L25.488,113.654a3.059,3.059,0,0,1-4.574,1.032L12.9,108.573a3.092,3.092,0,0,1-.51-4.418L24.651,89.244,28.7,87.971a4.639,4.639,0,0,0,2.621-2.1l2.871-4.946L32.7,79.342l25.83-23.3L60.5,56.367l0.679-.613L16.734,15.628,19.7,12.3l2.139,1.931,1.96-2.192,4.259,3.846L26.1,18.082,64.5,52.751l38.4-34.669-1.96-2.192,4.26-3.846,1.96,2.192L109.3,12.3l2.971,3.323L67.826,55.754,68.5,56.367l1.965-.329,25.83,23.3-1.494,1.584,2.871,4.946A4.639,4.639,0,0,0,100.3,87.971Z"/>
</svg>
