<svg xmlns="http://www.w3.org/2000/svg" width="128" height="128" viewBox="0 0 128 128">
  <defs>
    <style>
      .cls-1 {
        fill: #e0e0e0;
        fill-rule: evenodd;
      }
    </style>
  </defs>
  <path id="soldier_tier6" class="cls-1" d="M78.87,47.244L64.026,36.418,49.213,47.288l5.68-17.5L40.007,19.015l18.355,0.009L63.974,1.5l5.664,17.508H87.993L73.139,29.757Zm0,80.014L64.026,116.432,49.213,127.3l5.68-17.5L40.007,99.029l18.355,0.008,5.613-17.526,5.664,17.508H87.993l-14.855,10.75ZM121.4,97.393l-18.179-2.659-8.039,16.521L92.045,93.122,73.855,90.533,90.1,81.984,86.9,63.864l13.172,12.85,16.239-8.555L108.176,84.6ZM6.6,97.393l18.179-2.659,8.039,16.521,3.133-18.133,18.189-2.589L37.9,81.984l3.2-18.121L27.933,76.714,11.694,68.158,19.824,84.6Zm94.658-27.949L94.968,52.183l-18.357.772,14.47-11.372-6.36-17.234L99.958,34.583l14.426-11.425-5.053,17.691,15.243,10.225-18.327.652Zm-74.524,0,6.294-17.261,18.357,0.772L36.918,41.583l6.36-17.234L28.042,34.583,13.616,23.158l5.053,17.691L3.426,51.075l18.327,0.652Z"/>
</svg>
