<svg id="guns_sights" data-name="guns sights" xmlns="http://www.w3.org/2000/svg" width="128" height="128" viewBox="0 0 128 128">
  <defs>
    <style>
      .cls-1 {
        fill: #e0e0e0;
        fill-rule: evenodd;
      }
    </style>
  </defs>
  <path id="Color_Fill_1_copy_4" data-name="Color Fill 1 copy 4" class="cls-1" d="M123.6,49.5L101.964,71V61H90V38h11.964V28ZM76.625,52.688c-0.9,2.317-2.365,5.345-3.4,5.761a5.836,5.836,0,0,1-1.539.278c-0.631,3.127-.772,5.1-1.969,6.9l2.955,11.235s14.385,2.913,19.589,5.656c2.5,1.317,6.373,11.867,9.728,22.484-1.744,6.117-17.667,11.055-38.131,11.987-1.158-.025-2.318-0.048-3.456-0.08L38.324,77.194c0.707-.164,1.154-0.263,1.154-0.263l3.645-11.309c-1.2-1.8-1.338-3.769-1.969-6.9a5.836,5.836,0,0,1-1.539-.278c-1.037-.416-2.5-3.444-3.4-5.761,0,0-5.408.882-5.941-1.784,0.133-1.067,2.738-12.919,2.738-12.919S38.126,15,53.168,15h6.5C74.711,15,79.415,39.68,79.415,39.68s2.846,10.156,2.98,11.223C81.862,53.57,76.625,52.688,76.625,52.688ZM30.669,79.138l0.484-.132,17.615,37.409a144.365,144.365,0,0,1-22.727-2.807c-8.934-2.423-14.532-5.884-14.532-9.729a3.935,3.935,0,0,0-.186-0.861c2.688-8.681,6.359-18.807,9.256-20.335A44.977,44.977,0,0,1,27.7,80a1.064,1.064,0,0,0-.006-0.224c-0.152-.588-1.319-1.157-9.359,1.16L11.319,53.909l1.672-2.463L4.018,21.076,6.452,19.86,15.236,41.6l5.285-1.935,0.532,2.081-2.434,6.08Z"/>
</svg>
