<svg id="guns_sights" data-name="guns sights" xmlns="http://www.w3.org/2000/svg" width="128" height="128" viewBox="0 0 128 128">
  <metadata><?xpacket begin="﻿" id="W5M0MpCehiHzreSzNTczkc9d"?>
<x:xmpmeta xmlns:x="adobe:ns:meta/" x:xmptk="Adobe XMP Core 5.6-c138 79.159824, 2016/09/14-01:09:01        ">
   <rdf:RDF xmlns:rdf="http://www.w3.org/1999/02/22-rdf-syntax-ns#">
      <rdf:Description rdf:about=""/>
   </rdf:RDF>
</x:xmpmeta>
                                                                                                    
                                                                                                    
                                                                                                    
                                                                                                    
                                                                                                    
                                                                                                    
                                                                                                    
                                                                                                    
                                                                                                    
                                                                                                    
                                                                                                    
                                                                                                    
                                                                                                    
                                                                                                    
                                                                                                    
                                                                                                    
                                                                                                    
                                                                                                    
                                                                                                    
                                                                                                    
                           
<?xpacket end="w"?></metadata>
<defs>
    <style>
      .cls-1 {
        fill: #e0e0e0;
        fill-rule: evenodd;
      }
    </style>
  </defs>
  <path id="Polygon_1" data-name="Polygon 1" class="cls-1" d="M80.116,53.766L64.454,42.343,48.825,53.812l5.993-18.468L39.112,23.982l19.366,0.009L64.4,5.5l5.976,18.473,19.366,0L74.069,35.316Zm27,66L91.454,108.343,75.825,119.812l5.993-18.468L66.112,89.982l19.366,0.008L91.4,71.5l5.976,18.473,19.366,0-15.673,11.346Zm-5.155-36.391L94.108,65.652,74.839,67.77l14.424-13L81.342,37.08l16.767,9.69,14.374-13.053L108.422,52.7l16.773,9.68-19.246,1.99ZM52.116,119.766L36.454,108.343,20.825,119.812l5.993-18.468L11.112,89.982l19.366,0.008L36.4,71.5l5.976,18.473,19.366,0L46.069,101.316ZM26.328,83.393l7.8-17.846L53.265,67.68,38.94,54.592l7.867-17.815L30.154,46.534,15.878,33.391l4.033,19.118L3.253,62.256l19.114,2Z"/>
</svg>
