<svg id="guns_sights" data-name="guns sights" xmlns="http://www.w3.org/2000/svg" width="128" height="128" viewBox="0 0 128 128">
  <metadata><?xpacket begin="﻿" id="W5M0MpCehiHzreSzNTczkc9d"?>
<x:xmpmeta xmlns:x="adobe:ns:meta/" x:xmptk="Adobe XMP Core 5.6-c138 79.159824, 2016/09/14-01:09:01        ">
   <rdf:RDF xmlns:rdf="http://www.w3.org/1999/02/22-rdf-syntax-ns#">
      <rdf:Description rdf:about=""/>
   </rdf:RDF>
</x:xmpmeta>
                                                                                                    
                                                                                                    
                                                                                                    
                                                                                                    
                                                                                                    
                                                                                                    
                                                                                                    
                                                                                                    
                                                                                                    
                                                                                                    
                                                                                                    
                                                                                                    
                                                                                                    
                                                                                                    
                                                                                                    
                                                                                                    
                                                                                                    
                                                                                                    
                                                                                                    
                                                                                                    
                           
<?xpacket end="w"?></metadata>
<defs>
    <style>
      .cls-1 {
        fill: #e0e0e0;
        fill-rule: evenodd;
      }
    </style>
  </defs>
  <path id="Polygon_1" data-name="Polygon 1" class="cls-1" d="M108.116,59.766L92.454,48.343,76.825,59.812l5.993-18.468L67.112,29.982l19.366,0.009L92.4,11.5l5.976,18.473,19.366,0L102.069,41.316Zm-57,0L35.454,48.343,19.825,59.812l5.993-18.468L10.112,29.982l19.366,0.009L35.4,11.5l5.976,18.473,19.366,0L45.069,41.316Zm57,56L92.454,104.343,76.825,115.812l5.993-18.468L67.112,85.982l19.366,0.008L92.4,67.5l5.976,18.473,19.366,0L102.069,97.316Zm-57,0L35.454,104.343,19.825,115.812l5.993-18.468L10.112,85.982l19.366,0.008L35.4,67.5l5.976,18.473,19.366,0L45.069,97.316Z"/>
</svg>
