<svg id="guns_sights" data-name="guns sights" xmlns="http://www.w3.org/2000/svg" width="128" height="128" viewBox="0 0 128 128">
  <defs>
    <style>
      .cls-1 {
        fill: #e0e0e0;
        fill-rule: evenodd;
      }
    </style>
  </defs>
  <path id="Color_Fill_1_copy_6" data-name="Color Fill 1 copy 6" class="cls-1" d="M119.786,85.355a15.006,15.006,0,0,0-2.647-3.77,15.364,15.364,0,0,0-11.413-4.575H94.991a4.977,4.977,0,0,0-2.936.952,4.973,4.973,0,0,0-2.935-.952H85.047c-1.77-3.966-3.392-6.888-4.527-7.487a34.681,34.681,0,0,0-5.838-2.138c1.976-.5,3.42-0.816,3.42-0.816l2.569-7.956c-0.844-1.263-.943-2.651-1.388-4.851a4.113,4.113,0,0,1-1.085-.2c-0.731-.292-1.406-1.994-2.04-3.624,0,0-3.811.621-4.186-1.255,0.094-.75,1.849-9.516,1.849-9.516S77.427,23,88.027,23h4.026c10.6,0,13.914,17.364,13.914,17.364s2,7.573,2.091,8.323c-0.375,1.876-4.066,1.255-4.066,1.255-0.634,1.63-1.381,3.332-2.111,3.624a4.113,4.113,0,0,1-1.085.2c-0.444,2.2-.544,3.588-1.387,4.851l2.082,7.9s10.137,2.049,13.8,3.979c1.759,0.926,3.9,6.377,5.646,11.8A7.622,7.622,0,0,1,119.786,85.355ZM63.672,47c-0.74,1.905-1.944,4.4-2.8,4.737a4.789,4.789,0,0,1-1.265.229c-0.518,2.572-.634,4.194-1.618,5.671l2.428,9.239s11.822,2.4,16.1,4.651c0.959,0.506,2.166,2.672,3.46,5.725a5,5,0,0,0-2.939,2.462,5,5,0,0,0-4.44-2.7H64.968a5,5,0,0,0-4.516,7.145L67.2,98.36,66.419,100C60.91,100,55.5,99.947,50.336,99.8L32.194,67.149c0.581-.135.948-0.216,0.948-0.216l3-9.3c-0.984-1.476-1.1-3.1-1.618-5.671a4.789,4.789,0,0,1-1.265-.229C32.4,51.392,31.2,48.9,30.459,47c0,0-4.445.725-4.882-1.467,0.109-.877,2.25-10.624,2.25-10.624S32.031,16,44.394,16h5.342C62.1,16,65.965,36.3,65.965,36.3s2.339,8.352,2.449,9.229C67.976,47.721,63.672,47,63.672,47ZM25.9,68.748l0.4-.108L40.778,99.4C22.949,98.347,10,95.552,10,88.5c0-.022-0.007-0.057-0.008-0.081,2.21-7.146,5.233-15.5,7.618-16.756a36.955,36.955,0,0,1,5.85-2.2,0.878,0.878,0,0,0-.005-0.184c-0.125-.483-1.084-0.951-7.692.954L10,48l1.374-2.025L4,21l2-1,7.22,17.88,4.343-1.592L18,38l-2,5Zm39,13.2H72.54l4.44,11.326,4.44-11.326h7.634L81.306,98.3l7.928,16.626H81.51L76.98,103.4l-4.508,11.53H64.748L72.676,98.3Zm48.562,3.035a10.92,10.92,0,0,1,2.911,7.883,10.205,10.205,0,0,1-2.877,7.656q-2.877,2.81-7.973,2.809h-4.44v11.6h-6.16V81.947h10.735A10.309,10.309,0,0,1,113.468,84.982Zm-12.379,12.8h4.575a3.626,3.626,0,0,0,2.945-1.246,5.515,5.515,0,0,0,1.042-3.624,6.543,6.543,0,0,0-1.064-3.93,3.416,3.416,0,0,0-2.855-1.484h-4.643V97.781Z"/>
</svg>
