<svg id="guns_sights" data-name="guns sights" xmlns="http://www.w3.org/2000/svg" width="128" height="128" viewBox="0 0 128 128">
  <defs>
    <style>
      .cls-1 {
        fill: #d4c8b1;
      }

      .cls-1, .cls-2 {
        fill-rule: evenodd;
      }

      .cls-2 {
        fill: #593f3c;
      }
    </style>
  </defs>
  <g>
    <path id="Rectangle_2_copy_9" data-name="Rectangle 2 copy 9" class="cls-1" d="M114.554,61.163a50.46,50.46,0,0,0-23.511-39.92l7.069-7.753,5.252,8.937c4.819,0.234,10.341,4.05,13.935,10.167s4.242,12.8,2.1,17.121l5.321,9.056ZM64.135,13.469a50.262,50.262,0,0,0-23.281,5.69L37.7,8.966H48.065C50.709,4.929,56.8,2.1,63.891,2.1S77.073,4.929,79.716,8.966h10.5L87.113,19A50.263,50.263,0,0,0,64.135,13.469ZM13.7,61.4L3.173,58.962,8.4,50.008c-2.155-4.317-1.53-11,2.044-17.128s9.083-9.963,13.9-10.213l5.291-9.074,7.235,7.881A50.456,50.456,0,0,0,13.7,61.4Zm0.018,5.388a50.456,50.456,0,0,0,23.349,39.8l-7.25,7.951-5.308-9.032c-4.83-.212-10.376-4.036-13.982-10.171S6.28,82.5,8.446,78.176L3.208,69.263Zm50.417,47.679a50.264,50.264,0,0,0,22.958-5.525l3.127,10.1H79.744c-2.63,4.056-8.736,6.9-15.853,6.9s-13.223-2.844-15.853-6.9H37.7l3.175-10.257A50.266,50.266,0,0,0,64.135,114.469Zm-0.182-8.063a42.422,42.422,0,1,1,42.422-42.422A42.422,42.422,0,0,1,63.953,106.406ZM114.56,66.692l10.162,2.356-5.277,9.05c2.179,4.316,1.56,11.023-2.025,17.171s-9.118,9.989-13.948,10.218l-5.208,8.93-7.138-7.775A50.461,50.461,0,0,0,114.56,66.692Z"/>
    <path id="Color_Fill_1_copy" data-name="Color Fill 1 copy" class="cls-2" d="M31.062,41.83l4.3,10.648,2.587-.948,0.26,1.019-1.191,2.978,5.9,15.333,0.237-.064,8.621,18.321c-10.617-.629-18.329-2.293-18.329-6.493,0-.013,0-0.034,0-0.048,1.316-4.256,3.116-9.23,4.537-9.979a21.972,21.972,0,0,1,3.484-1.312,0.5,0.5,0,0,0,0-.11c-0.074-.288-0.645-0.566-4.58.568L33.444,58.5,34.263,57.3,29.871,42.425ZM65.408,57.906c-0.441,1.134-1.158,2.618-1.665,2.821a2.854,2.854,0,0,1-.754.136,9.182,9.182,0,0,1-.964,3.377l1.446,5.5s7.041,1.427,9.587,2.77c1.64,0.865,4.492,9.862,6.317,16.165a88.367,88.367,0,0,1-11.986.794c-3.4,0-6.742-.029-9.924-0.117l-10.8-19.447c0.346-.08.565-0.129,0.565-0.129l1.784-5.538a9.181,9.181,0,0,1-.964-3.377,2.846,2.846,0,0,1-.753-0.136c-0.507-.2-1.224-1.687-1.665-2.821,0,0-2.647.432-2.908-.874,0.065-.523,1.34-6.327,1.34-6.327s2.5-11.258,9.867-11.258h3.181c7.362,0,9.664,12.088,9.664,12.088s1.394,4.974,1.459,5.5C67.971,58.338,65.408,57.906,65.408,57.906ZM82.822,88.122c-2.165-6.315-5.685-15.906-7.38-16.8a20.63,20.63,0,0,0-3.477-1.274c1.177-.3,2.037-0.486,2.037-0.486l1.53-4.738a7.839,7.839,0,0,1-.826-2.889,2.441,2.441,0,0,1-.646-0.117c-0.435-.174-0.837-1.188-1.215-2.158,0,0-2.27.369-2.493-.747,0.056-.447,1.1-5.667,1.1-5.667s2.147-9.63,8.46-9.63h2.4c6.313,0,8.287,10.341,8.287,10.341s1.19,4.51,1.245,4.957c-0.223,1.117-2.421.747-2.421,0.747a4.526,4.526,0,0,1-1.257,2.158,2.449,2.449,0,0,1-.646.117,7.844,7.844,0,0,1-.827,2.889l1.24,4.706s6.037,1.221,8.221,2.37c1.048,0.552,2.321,3.8,3.363,7.025C99.026,82.9,92.411,86.322,82.822,88.122Z"/>
  </g>
</svg>
