<svg id="guns_sights" data-name="guns sights" xmlns="http://www.w3.org/2000/svg" width="128" height="128" viewBox="0 0 128 128">
  <metadata><?xpacket begin="﻿" id="W5M0MpCehiHzreSzNTczkc9d"?>
<x:xmpmeta xmlns:x="adobe:ns:meta/" x:xmptk="Adobe XMP Core 5.6-c138 79.159824, 2016/09/14-01:09:01        ">
   <rdf:RDF xmlns:rdf="http://www.w3.org/1999/02/22-rdf-syntax-ns#">
      <rdf:Description rdf:about=""/>
   </rdf:RDF>
</x:xmpmeta>
                                                                                                    
                                                                                                    
                                                                                                    
                                                                                                    
                                                                                                    
                                                                                                    
                                                                                                    
                                                                                                    
                                                                                                    
                                                                                                    
                                                                                                    
                                                                                                    
                                                                                                    
                                                                                                    
                                                                                                    
                                                                                                    
                                                                                                    
                                                                                                    
                                                                                                    
                                                                                                    
                           
<?xpacket end="w"?></metadata>
<defs>
    <style>
      .cls-1 {
        fill: #e0e0e0;
        fill-rule: evenodd;
      }
    </style>
  </defs>
  <path class="cls-1" d="M108.505,66.407l1.977,4.251s7.334,1.828,10.062,3.269a1.309,1.309,0,0,1,.444.511c-2.115,7.825-8.654,10.424-18.026,16.586-2.593-8.012-6.595-19.177-9.161-20.532a24.244,24.244,0,0,0-2.527-1.1l1.493-2.735,1.095-.578a2.121,2.121,0,0,0,.2-1.026,10.759,10.759,0,0,1-2.6-6.115,1.176,1.176,0,0,1-1.129-.405c-0.256-.3-0.147-0.668-0.174-1.568-3.5-.849-3.507-2.082-3.507-2.082,0.242-.4,1.365-6.532,1.365-6.532s1.461-12.512,11.964-12.512h1.574c9.209,0,11.783,12.229,11.783,12.229s1.284,6.234,1.354,6.794c-0.279,1.4-3.386,2.038-3.386,2.038-0.472,1.216-.125,1.792-0.669,2.01a2.337,2.337,0,0,1-.717.146c-0.374,3.039-1.407,4.837-2.768,6a1.582,1.582,0,0,0,.1.968ZM78.269,49.7c-0.621,1.6-.164,2.357-0.879,2.644a3.076,3.076,0,0,1-.944.192c-0.492,4-1.85,6.362-3.64,7.886a2.08,2.08,0,0,0,.131,1.274l1.65,0.513,2.6,5.59s9.645,2.4,13.233,4.3,8.32,23.691,8.32,23.691v2.446a44.108,44.108,0,0,1-8.617,3.632L50.6,67.745l0.537-.175,2.751-5.039,1.44-.76a2.79,2.79,0,0,0,.263-1.35,14.15,14.15,0,0,1-3.424-8.042,1.547,1.547,0,0,1-1.484-.533c-0.337-.4-0.193-0.879-0.228-2.062-4.609-1.116-4.612-2.739-4.612-2.739,0.318-.531,1.8-8.591,1.8-8.591S49.562,22,63.375,22h2.07c12.112,0,15.5,16.083,15.5,16.083s1.69,8.2,1.782,8.935C82.356,48.859,78.269,49.7,78.269,49.7ZM36.3,55.489c-0.441,1.135-.117,1.673-0.624,1.876A2.181,2.181,0,0,1,35,57.5c-0.349,2.836-1.313,4.515-2.583,5.6a1.476,1.476,0,0,0,.093.9l1.171,0.364,1.845,3.967s1.157,0.291,2.678.718L33.787,70.5c-2.6,3.634-5.995,13.372-8.271,20.511C15.167,84.242,8.293,81.738,7.008,71.751c0.065-.116.125-0.266,0.194-0.361l9.843-3.218L19,64.6l1.022-.539a1.98,1.98,0,0,0,.187-0.958,10.042,10.042,0,0,1-2.43-5.707,1.1,1.1,0,0,1-1.053-.378,2.506,2.506,0,0,1-.162-1.463c-3.271-.792-3.273-1.944-3.273-1.944,0.225-.377,1.274-6.1,1.274-6.1s1.364-11.678,11.167-11.678H27.2c8.6,0,11,11.414,11,11.414s1.2,5.819,1.264,6.341C39.2,54.893,36.3,55.489,36.3,55.489Zm9.135,13.947,37.513,34.18a107.235,107.235,0,0,1-18.694,1.4c-12.954,0-24.877-1.355-34.49-6.779V95.788s3.7-18.364,7.509-23.685Z"/>
</svg>
