<svg id="guns_sights" data-name="guns sights" xmlns="http://www.w3.org/2000/svg" width="128" height="128" viewBox="0 0 128 128">
  <metadata><?xpacket begin="﻿" id="W5M0MpCehiHzreSzNTczkc9d"?>
<x:xmpmeta xmlns:x="adobe:ns:meta/" x:xmptk="Adobe XMP Core 5.6-c138 79.159824, 2016/09/14-01:09:01        ">
   <rdf:RDF xmlns:rdf="http://www.w3.org/1999/02/22-rdf-syntax-ns#">
      <rdf:Description rdf:about=""/>
   </rdf:RDF>
</x:xmpmeta>
                                                                                                    
                                                                                                    
                                                                                                    
                                                                                                    
                                                                                                    
                                                                                                    
                                                                                                    
                                                                                                    
                                                                                                    
                                                                                                    
                                                                                                    
                                                                                                    
                                                                                                    
                                                                                                    
                                                                                                    
                                                                                                    
                                                                                                    
                                                                                                    
                                                                                                    
                                                                                                    
                           
<?xpacket end="w"?></metadata>
<defs>
    <style>
      .cls-1 {
        fill: #e0e0e0;
        fill-rule: evenodd;
      }
    </style>
  </defs>
  <path id="Color_Fill_1" data-name="Color Fill 1" class="cls-1" d="M6,26l7.22,17.88,4.343-1.592L18,44l-2,5,9.9,25.748,0.4-.108L40.778,105.4C22.949,104.347,10,101.552,10,94.5c0-.022-0.007-0.057-0.008-0.081,2.21-7.146,5.233-15.5,7.618-16.756a36.955,36.955,0,0,1,5.85-2.2,0.878,0.878,0,0,0-.005-0.184c-0.125-.483-1.084-0.951-7.692.954L10,54l1.374-2.025L4,27ZM63.672,53c-0.74,1.905-1.944,4.4-2.8,4.737a4.789,4.789,0,0,1-1.265.229c-0.518,2.572-.634,4.194-1.618,5.671l2.428,9.239s11.822,2.4,16.1,4.651c2.753,1.453,7.542,16.56,10.607,27.144A148.368,148.368,0,0,1,67,106c-5.71,0-11.321-.048-16.664-0.2L32.194,73.149c0.581-.135.948-0.216,0.948-0.216l3-9.3c-0.984-1.476-1.1-3.1-1.618-5.671a4.789,4.789,0,0,1-1.265-.229C32.4,57.392,31.2,54.9,30.459,53c0,0-4.445.725-4.882-1.467,0.109-.877,2.25-10.624,2.25-10.624S32.031,22,44.394,22h5.342C62.1,22,65.965,42.3,65.965,42.3s2.339,8.352,2.449,9.229C67.976,53.721,63.672,53,63.672,53Zm29.242,50.737c-3.635-10.6-9.546-26.708-12.393-28.21a34.681,34.681,0,0,0-5.838-2.138c1.976-.5,3.42-0.816,3.42-0.816l2.569-7.956c-0.844-1.263-.943-2.651-1.388-4.851a4.113,4.113,0,0,1-1.085-.2c-0.731-.292-1.406-1.994-2.04-3.624,0,0-3.811.621-4.186-1.255,0.094-.75,1.849-9.516,1.849-9.516S77.427,29,88.027,29h4.026c10.6,0,13.914,17.364,13.914,17.364s2,7.573,2.091,8.323c-0.375,1.876-4.066,1.255-4.066,1.255-0.634,1.63-1.381,3.332-2.111,3.624a4.113,4.113,0,0,1-1.085.2c-0.444,2.2-.544,3.588-1.387,4.851l2.082,7.9s10.137,2.049,13.8,3.979c1.759,0.926,3.9,6.377,5.646,11.8C120.122,94.957,109.015,100.71,92.913,103.733Z"/>
</svg>
