<svg id="Group_3303" data-name="Group 3303" xmlns="http://www.w3.org/2000/svg" width="59.894" height="53.404" viewBox="0 0 59.894 53.404">
  <path id="Path_1653" data-name="Path 1653" d="M-935.87,97.354l-2,1.474-1.774-1.3v-.76a1.983,1.983,0,0,0-1.983-1.983h-6.7v-.94h-6.857v.94h-23.846v-.94h-1.785v2.726h11.339l2.578,3.7h6.434v6.262h4.76v-6.262h9.314l1.734,1.92h4.06l2.038,1.9,17.055,2.731.132-8.46Z" transform="translate(981.091 -72.086)" fill="#fafafa"/>
  <path id="Path_1654" data-name="Path 1654" d="M-980.126,114.606v2.684h13.572v-.795a2.073,2.073,0,0,1,2.073-2.073h7.005v-.984h2.181v.984h32.15v-.984h1.868v2.85h-14.078l-4.938,2.625-4.489.029v10.991h-2.761v-9.774H-959.5l-1.813,2.007h-4.247L-970.536,128l-2.674-2.492,5.693-7.027h-12.609v2.09h-1.046v-5.963Z" transform="translate(981.172 -76.529)" fill="#fafafa"/>
  <path id="Path_1655" data-name="Path 1655" d="M-933.731,77.765l-12.426-12.058-12.176,12.058h6.339v3.992h11.923V77.765Z" transform="translate(975.994 -65.707)" fill="#fafafa"/>
  <path id="Path_1656" data-name="Path 1656" d="M-916.71,88.014l-8.126-7.885-7.962,7.885h4.145v1.272h7.8V88.014Z" transform="translate(970.204 -68.977)" fill="#fafafa"/>
  <path id="Path_1657" data-name="Path 1657" d="M-956.934,88.014l-8.126-7.885-7.962,7.885h4.146v1.272h7.8V88.014Z" transform="translate(979.324 -68.977)" fill="#fafafa"/>
</svg>
