<svg xmlns="http://www.w3.org/2000/svg" width="49.904" height="53.085" viewBox="0 0 49.904 53.085">
  <g id="Group_3302" data-name="Group 3302" transform="translate(0)">
    <g id="Group_3298" data-name="Group 3298" transform="translate(6.682 14.635)">
      <path id="Path_1646" data-name="Path 1646" d="M-1131.978,104.31v1.056l1.416,2.627.164,2.733a1.37,1.37,0,0,0,.519,1.014l1.575,1.6a3.709,3.709,0,0,0,2.31.811h2.162a3.71,3.71,0,0,0,2.31-.811l1.575-1.6a1.37,1.37,0,0,0,.519-1.014l.163-2.733,1.417-2.627V104.31c-2.685-.105-4.039-.826-7.065-.826S-1129.293,104.2-1131.978,104.31Zm8.4,6.873-.1.327h-2.478l-.1-.327-.312-.331h3.3Zm.533-1.321.442.326h-4.62l.442-.326.135-.331h3.467Zm-.548-1.979h-2.641l.442-.662h1.758Z" transform="translate(1143.181 -89.227)" fill="#fafafa"/>
      <path id="Path_1647" data-name="Path 1647" d="M-1114.365,115.953l-3.82-2.579-2.7,4.889-5.029,4.319-5.029-4.319-2.7-4.889-3.82,2.579,11.547,13.526h14.968l3.3-11.217Z" transform="translate(1144.18 -91.029)" fill="#fafafa"/>
      <path id="Path_1648" data-name="Path 1648" d="M-1114.58,99.424l-.33-1.319V96.989a10.941,10.941,0,0,0-10.942-10.941h0a10.941,10.941,0,0,0-10.942,10.941v1.116l-.329,1.319a84.936,84.936,0,0,1,11.271-.693A84.939,84.939,0,0,1-1114.58,99.424Z" transform="translate(1144.118 -86.048)" fill="#fafafa"/>
      <path id="Path_1649" data-name="Path 1649" d="M-1145.678,119.113l3.3,11.217h9.221l-9.4-12.29Z" transform="translate(1145.678 -91.88)" fill="#fafafa"/>
    </g>
    <path id="Path_1650" data-name="Path 1650" d="M-1113.231,80.9h-6.705V81a14.059,14.059,0,0,0-6.3-1.48,14.06,14.06,0,0,0-6.3,1.48v-.1h-6.705l12.879-12.748Z" transform="translate(1151.188 -68.15)" fill="#fafafa"/>
    <path id="Path_1651" data-name="Path 1651" d="M-1095.626,94.391h-4.383v5.43h-5.83l-.531-2.118v-.711a14.12,14.12,0,0,0-1.84-6.983l3.99-3.958Z" transform="translate(1145.53 -71.413)" fill="#fafafa"/>
    <path id="Path_1652" data-name="Path 1652" d="M-1141.307,90.057a14.106,14.106,0,0,0-1.807,6.934V97.7l-.532,2.118h-5.822v-5.43h-4.383l8.414-8.341Z" transform="translate(1153.85 -71.413)" fill="#fafafa"/>
  </g>
</svg>
