<?xml version="1.0" encoding="utf-8"?>
<!-- Generator: Adobe Illustrator 27.0.1, SVG Export Plug-In . SVG Version: 6.00 Build 0)  -->
<svg version="1.1" id="Layer_1" xmlns="http://www.w3.org/2000/svg" xmlns:xlink="http://www.w3.org/1999/xlink" x="0px" y="0px"
	 viewBox="0 0 51.6 53.5" enable-background="new 0 0 51.6 53.5" xml:space="preserve">
<linearGradient id="Polygon_2_copy_17-2_00000058575913397984670500000009520418407096351380_" gradientUnits="userSpaceOnUse" x1="-70.5109" y1="125.3485" x2="-70.5109" y2="126.3485" gradientTransform="matrix(36.7 0 0 -43.598 2613.5417 5518.4219)">
	<stop  offset="0" style="stop-color:#48100C"/>
	<stop  offset="1" style="stop-color:#FF460A"/>
</linearGradient>
<path id="Polygon_2_copy_17-2" fill-rule="evenodd" clip-rule="evenodd" fill="url(#Polygon_2_copy_17-2_00000058575913397984670500000009520418407096351380_)" d="
	M25.8,53.5L7.4,34.6V9.9h36.7v24.8L25.8,53.5z"/>
<g id="Mask_Group_156" transform="translate(0 2.098)" opacity="0.454" enable-background="new    ">
	<linearGradient id="SVGID_1_" gradientUnits="userSpaceOnUse" x1="25.79" y1="7.782" x2="25.79" y2="44.562">
		<stop  offset="0" style="stop-color:#A32B0B"/>
		<stop  offset="1" style="stop-color:#370B07"/>
	</linearGradient>
	<polygon opacity="0.454" fill-rule="evenodd" clip-rule="evenodd" fill="url(#SVGID_1_)" enable-background="new    " points="
		44.1,25.4 35.7,32.6 37.9,39 32.5,44.5 25.8,39.7 19.1,44.6 13.8,39.1 15.9,32.6 7.4,25.4 7.4,18.9 19.7,18.9 23.7,7.8 27.8,7.8 
		31.9,18.9 44.1,18.8 	"/>
</g>
<path fill="#FFC650" d="M35.7,30.4l15.9-11.7l0,0h0l0,0l0,0H31.9l0,0L25.8,0l-6.1,18.7v0H0l0,0l0,0h0l0,0l15.9,11.7v0L9.8,49.1
	l16-11.6v0l16,11.6L35.7,30.4L35.7,30.4z M25.7,27.7L25.7,27.7L25.7,27.7L25.7,27.7L25.7,27.7L25.7,27.7z M25.7,27.7L25.7,27.7
	L25.7,27.7L25.7,27.7L25.7,27.7z"/>
<g id="Layer_1-2" transform="translate(1752.542 15)">
	<g id="Group_3332">
		
			<linearGradient id="Path_1668_00000031914103121153012760000006012406481149792387_" gradientUnits="userSpaceOnUse" x1="-1813.0729" y1="110.4027" x2="-1813.0729" y2="109.4027" gradientTransform="matrix(6.099 0 0 -27.657 9328.1387 3038.241)">
			<stop  offset="0" style="stop-color:#FFF7BE"/>
			<stop  offset="1" style="stop-color:#FFFAD7"/>
		</linearGradient>
		<path id="Path_1668" fill="url(#Path_1668_00000031914103121153012760000006012406481149792387_)" d="M-1726.8-15l-0.1,27.7
			l-6-8.9L-1726.8-15z"/>
		
			<linearGradient id="Path_1669_00000096025088847615091400000012114085943763467172_" gradientUnits="userSpaceOnUse" x1="-1814.8914" y1="110.1518" x2="-1811.4703" y2="109.4008" gradientTransform="matrix(6.183 0 0 -27.657 9487.4912 3038.241)">
			<stop  offset="0" style="stop-color:#A4703B"/>
			<stop  offset="1" style="stop-color:#FFF081"/>
		</linearGradient>
		<path id="Path_1669" fill="url(#Path_1669_00000096025088847615091400000012114085943763467172_)" d="M-1726.8-15l-0.1,27.7
			l6.2-8.9L-1726.8-15z"/>
		
			<linearGradient id="Path_1670_00000174589884988364876210000017921914900534012094_" gradientUnits="userSpaceOnUse" x1="-1823.4664" y1="103.6106" x2="-1821.7075" y2="105.3236" gradientTransform="matrix(25.872 0 0 -8.948 45430.5781 942.8338)">
			<stop  offset="0" style="stop-color:#A06A38"/>
			<stop  offset="1" style="stop-color:#EFE06F"/>
		</linearGradient>
		<path id="Path_1670" fill="url(#Path_1670_00000174589884988364876210000017921914900534012094_)" d="M-1726.8,12.7l25.9-8.9
			h-19.7L-1726.8,12.7z"/>
		
			<linearGradient id="Path_1671_00000160891915622350065590000006575190261380362419_" gradientUnits="userSpaceOnUse" x1="-1822.2402" y1="106.545" x2="-1822.0122" y2="105.331" gradientTransform="matrix(25.873 0 0 -11.658 45432.418 1249.0616)">
			<stop  offset="0" style="stop-color:#9A5E32"/>
			<stop  offset="1" style="stop-color:#CBBA5D"/>
		</linearGradient>
		<path id="Path_1671" fill="url(#Path_1671_00000160891915622350065590000006575190261380362419_)" d="M-1701,3.7l-15.9,11.7
			l-9.9-2.7L-1701,3.7z"/>
		
			<linearGradient id="Path_1672_00000101065582828251155670000010313344761171584136_" gradientUnits="userSpaceOnUse" x1="-1823.5746" y1="105.1955" x2="-1821.7937" y2="104.4425" gradientTransform="matrix(25.71 0 0 -8.948 45109.1406 942.8338)">
			<stop  offset="0" style="stop-color:#FFF081"/>
			<stop  offset="1" style="stop-color:#FFF8C6"/>
		</linearGradient>
		<path id="Path_1672" fill="url(#Path_1672_00000101065582828251155670000010313344761171584136_)" d="M-1726.8,12.7l-6-8.9h-19.7
			L-1726.8,12.7z"/>
		
			<linearGradient id="Path_1673_00000118355083982796689960000005996830743659971480_" gradientUnits="userSpaceOnUse" x1="-1822.1689" y1="106.6011" x2="-1822.532" y2="104.8661" gradientTransform="matrix(25.71 0 0 -11.658 45109.1406 1249.0616)">
			<stop  offset="0" style="stop-color:#904A2B"/>
			<stop  offset="1" style="stop-color:#F8EA74"/>
		</linearGradient>
		<path id="Path_1673" fill="url(#Path_1673_00000118355083982796689960000005996830743659971480_)" d="M-1752.5,3.7l15.9,11.7
			l9.8-2.7L-1752.5,3.7z"/>
		
			<linearGradient id="Path_1674_00000069374025380562440380000002316104094927831733_" gradientUnits="userSpaceOnUse" x1="-1820.2238" y1="109.6375" x2="-1820.7097" y2="108.8205" gradientTransform="matrix(15.887 0 0 -21.478 27186.6758 2367.6724)">
			<stop  offset="0" style="stop-color:#9D6334"/>
			<stop  offset="1" style="stop-color:#F3E471"/>
		</linearGradient>
		<path id="Path_1674" fill="url(#Path_1674_00000069374025380562440380000002316104094927831733_)" d="M-1742.7,34.1l15.9-21.5
			l-9.8,2.7L-1742.7,34.1z"/>
		
			<linearGradient id="Path_1675_00000047778388272122270780000013498810094557402546_" gradientUnits="userSpaceOnUse" x1="-1820.0905" y1="109.3152" x2="-1821.3984" y2="108.1842" gradientTransform="matrix(15.964 0 0 -21.479 27327.2344 2367.7834)">
			<stop  offset="0" style="stop-color:#914D2C"/>
			<stop  offset="1" style="stop-color:#BEA152"/>
		</linearGradient>
		<path id="Path_1675" fill="url(#Path_1675_00000047778388272122270780000013498810094557402546_)" d="M-1742.7,34.1l16-11.6
			l-0.1-9.9L-1742.7,34.1z"/>
		
			<linearGradient id="Path_1676_00000042001270968639817280000013926304417856112795_" gradientUnits="userSpaceOnUse" x1="-1821.2401" y1="109.6428" x2="-1819.8821" y2="108.4268" gradientTransform="matrix(16.041 0 0 -21.478 27483.6875 2367.6724)">
			<stop  offset="0" style="stop-color:#914E2B"/>
			<stop  offset="1" style="stop-color:#C6B159"/>
		</linearGradient>
		<path id="Path_1676" fill="url(#Path_1676_00000042001270968639817280000013926304417856112795_)" d="M-1710.8,34.1l-16-21.5
			l0.1,9.9L-1710.8,34.1z"/>
		
			<linearGradient id="Path_1677_00000055697264637749220750000010286935314913023890_" gradientUnits="userSpaceOnUse" x1="-1821.104" y1="109.2606" x2="-1819.212" y2="108.9116" gradientTransform="matrix(16.044 0 0 -21.478 27489.1719 2367.6724)">
			<stop  offset="0" style="stop-color:#A87940"/>
			<stop  offset="1" style="stop-color:#D9CB64"/>
		</linearGradient>
		<path id="Path_1677" fill="url(#Path_1677_00000055697264637749220750000010286935314913023890_)" d="M-1726.8,12.7l16,21.5
			l-6.1-18.8L-1726.8,12.7"/>
	</g>
</g>
</svg>
