<?xml version="1.0" encoding="utf-8"?>
<!-- Generator: Adobe Illustrator 27.0.0, SVG Export Plug-In . SVG Version: 6.00 Build 0)  -->
<svg version="1.1" id="Layer_1" xmlns="http://www.w3.org/2000/svg" xmlns:xlink="http://www.w3.org/1999/xlink" x="0px" y="0px"
	 viewBox="0 0 68 68" style="enable-background:new 0 0 68 68;" xml:space="preserve">
<path id="Path_906" style="fill:#FFFFFF;" d="M28.2,53h11.7c0,3.2-2.6,5.8-5.8,5.8C30.8,58.9,28.2,56.3,28.2,53L28.2,53 M49.3,36.9
	l-1.7-10c-0.9-5.7-5.1-10.2-10.6-11.6h-0.1v-3.2c0-1.6-1.2-3-2.8-3s-3,1.2-3,2.8c0,0.1,0,0.1,0,0.2v3.2c-5.5,1.2-9.8,5.6-10.7,11.2
	l-1.7,10.4c-0.8,4.6-3.8,8.4-8,10.2V50h46.7v-2.9C53.1,45.4,50.1,41.5,49.3,36.9"/>
</svg>
