<?xml version="1.0" encoding="utf-8"?>
<!-- Generator: Adobe Illustrator 27.0.0, SVG Export Plug-In . SVG Version: 6.00 Build 0)  -->
<svg version="1.1" id="Layer_1" xmlns="http://www.w3.org/2000/svg" xmlns:xlink="http://www.w3.org/1999/xlink" x="0px" y="0px"
	 viewBox="0 0 68 68" style="enable-background:new 0 0 68 68;" xml:space="preserve">
<path style="fill:#FFFFFF;" d="M16.7,35.6l-5.3,2.1l-2.7,2.2c-0.1,0.1-0.4,0.2-0.6,0.2l-2.4-0.2c-0.3,0-0.6-0.2-0.7-0.5l-1.3-3.2
	c-0.1-0.3,0-0.6,0.2-0.8l1.6-1.8c0.1-0.1,0.4-0.2,0.6-0.2l3.4-0.3l8.9-3.5C17.2,31.3,16.6,33.4,16.7,35.6z M63.7,26.5
	c-0.2,0.2-0.3,0.3-0.5,0.4S62.8,27,62.6,27c-0.4,0-0.8-0.2-1.2-0.5c-4.9-4.9-8.7-5-15.1-2.7c0.7,0.7,1.3,1.6,1.7,2.6
	c1.6,4.1-0.4,8.8-4.5,10.5l-14.2,5.7c-1.4,0.6-2.9,0.7-4.4,0.4c-3.9-0.7-6.7-4.2-6.6-8.1c0-1.8,0.5-3.4,1.4-4.8
	c0.7-1,1.7-1.8,2.9-2.3l21.2-8.4c6.6-2.6,9.6-5.5,9.8-12.6c0-0.6,0.4-1.2,1-1.5l0,0c0.8-0.3,1.8,0.1,2.1,0.9l7.4,18.5
	C64.3,25.4,64.2,26.1,63.7,26.5z M43.4,28.3c-0.6-1.6-2.4-2.4-4-1.7l-14.2,5.7c-1.6,0.6-2.4,2.4-1.7,4c0.6,1.6,2.4,2.4,4,1.7
	l14.2-5.7C43.3,31.7,44,29.9,43.4,28.3z M25.4,62.7l11.4-6.1l11.4,6.1V37.6l-22.8,9.3C25.4,46.9,25.4,62.7,25.4,62.7z"/>
</svg>
