<?xml version="1.0" encoding="utf-8"?>
<!-- Generator: Adobe Illustrator 27.0.0, SVG Export Plug-In . SVG Version: 6.00 Build 0)  -->
<svg version="1.1" id="Layer_1" xmlns="http://www.w3.org/2000/svg" xmlns:xlink="http://www.w3.org/1999/xlink" x="0px" y="0px"
	 viewBox="0 0 68 68" style="enable-background:new 0 0 68 68;" xml:space="preserve">
<path id="Path_1026_00000165944653655490076880000008789006248794528932_" style="fill:#FFFFFF;" d="M61.6,13.8H6.4
	c-1.1,0-2,0.9-2,2V49c0,1.1,0.9,2,2,2h31.9l12.8,9v-9h10.6c1.1,0,2-0.9,2-2V15.7C63.6,14.6,62.7,13.8,61.6,13.8L61.6,13.8z
	 M17.1,36.5c-2.3,0-4.2-1.9-4.2-4.2s1.9-4.2,4.2-4.2l0,0c2.3,0,4.2,1.9,4.2,4.2l0,0C21.3,34.6,19.4,36.5,17.1,36.5L17.1,36.5z
	 M34,36.5c-2.3,0-4.2-1.9-4.2-4.2s1.9-4.2,4.2-4.2l0,0c2.3,0,4.2,1.9,4.2,4.2l0,0C38.2,34.6,36.3,36.5,34,36.5L34,36.5z M51.8,36.5
	c-2.3,0-4.2-1.9-4.2-4.2s1.9-4.2,4.2-4.2l0,0c2.3,0,4.2,1.9,4.2,4.2l0,0C56.1,34.6,54.2,36.5,51.8,36.5L51.8,36.5L51.8,36.5z"/>
</svg>
