<?xml version="1.0" encoding="utf-8"?>
<!-- Generator: Adobe Illustrator 27.0.0, SVG Export Plug-In . SVG Version: 6.00 Build 0)  -->
<svg version="1.1" id="Layer_1" xmlns="http://www.w3.org/2000/svg" xmlns:xlink="http://www.w3.org/1999/xlink" x="0px" y="0px"
	 viewBox="0 0 68 68" style="enable-background:new 0 0 68 68;" xml:space="preserve">
<g>
	<g>
		<polygon style="fill:#FFFFFF;" points="51.2,27 53.9,26.1 56.6,20.4 55.7,15.2 51.2,13.3 46.8,15.2 45.9,20.4 48.6,26.1 		"/>
		<polygon style="fill:#FFFFFF;" points="16.7,27 19.4,26.1 22.1,20.4 21.2,15.2 16.7,13.3 12.3,15.2 11.4,20.4 14.1,26.1 		"/>
		<polygon style="fill:#FFFFFF;" points="15.6,32 23.5,27.6 22.3,27 16.7,28.7 11.2,27 4.9,30.5 8.4,50.6 16.8,52.4 19.3,51.9 		"/>
		<polygon style="fill:#FFFFFF;" points="56.8,27 51.2,28.7 45.7,27 44.5,27.6 52.4,32 48.7,51.9 51.3,52.4 59.6,50.6 63.1,30.5 		
			"/>
	</g>
	<g>
		<path id="Path_903_00000039816662806289415620000010898308592371102904_" style="fill:#FFFFFF;" d="M34,30.5l-7.6-2.4L17.7,33
			l4.8,26L34,61.3l11.5-2.4l4.8-26l-8.7-4.8L34,30.5z"/>
		<path id="Path_904_00000153670477473528869820000017390439053891204749_" style="fill:#FFFFFF;" d="M34,9.3l-6.1,2.6l-1.3,7.2
			l3.7,7.8l3.6,1.2l3.6-1.2l3.7-7.8l-1.3-7.2L34,9.3z"/>
	</g>
</g>
</svg>
