<svg xmlns="http://www.w3.org/2000/svg" width="78" height="80" viewBox="0 0 78 80"><defs><style>.cls-1{fill:#fff;}</style></defs><g id="Layer_2" data-name="Layer 2"><g id="Layer_1-2" data-name="Layer 1"><path class="cls-1" d="M24.69,20.05l-.25,1.14a.86.86,0,0,0,0,.39.82.82,0,0,0,.95.67A57.44,57.44,0,0,1,39,20.75a55.75,55.75,0,0,1,13.62,1.53.74.74,0,0,0,.36,0,.82.82,0,0,0,.53-1l-.25-1.17c4.33-.53,7-1.9,7-5.38C60.26,8.11,50.78,0,39,0S17.71,8.11,17.71,14.67C17.71,18.15,20.39,19.52,24.69,20.05ZM39,3.49l2.36,3.84L39,11.17,36.63,7.33ZM26.66,15.2a36.28,36.28,0,0,1,24.62,0,1.52,1.52,0,0,1,.92,1.17A48.83,48.83,0,0,0,38.93,14.5a49.62,49.62,0,0,0-13.16,1.81A1.57,1.57,0,0,1,26.66,15.2Z"/><polygon class="cls-1" points="58.48 55.6 69 60.93 69.64 59.7 59.12 54.35 58.48 55.6"/><polygon class="cls-1" points="19.41 55.6 18.77 54.35 8.25 59.7 8.9 60.93 19.41 55.6"/><polygon class="cls-1" points="73.15 64.31 51.34 53 41.86 63.41 41.13 61.32 44.56 56.72 39 53 33.42 56.68 36.85 61.28 36.15 63.37 26.66 53 4.82 64.3 0 75.82 0 80 78 80 78 75.82 73.15 64.31"/><path class="cls-1" d="M27,41.26l.5,3.06a20.09,20.09,0,0,0,6.34,5.14l2.48,1.28H41.6l2.48-1.28a20.09,20.09,0,0,0,6.34-5.14l.5-3.06,1.72-3.49V33.2h1L55,29.42V26.1l-.34-1.72h-.9l-1.66,1V23.6L46,23a69.68,69.68,0,0,0-14,0l-6.14.62v1.81l-1.66-1h-.9L23,26.15v3.32l1.45,3.78h.95v4.57Z"/></g></g></svg>