<svg id="m_l" data-name="m l" xmlns="http://www.w3.org/2000/svg" width="128" height="128" viewBox="0 0 128 128">
  <metadata><?xpacket begin="﻿" id="W5M0MpCehiHzreSzNTczkc9d"?>
<x:xmpmeta xmlns:x="adobe:ns:meta/" x:xmptk="Adobe XMP Core 5.6-c138 79.159824, 2016/09/14-01:09:01        ">
   <rdf:RDF xmlns:rdf="http://www.w3.org/1999/02/22-rdf-syntax-ns#">
      <rdf:Description rdf:about=""/>
   </rdf:RDF>
</x:xmpmeta>
                                                                                                    
                                                                                                    
                                                                                                    
                                                                                                    
                                                                                                    
                                                                                                    
                                                                                                    
                                                                                                    
                                                                                                    
                                                                                                    
                                                                                                    
                                                                                                    
                                                                                                    
                                                                                                    
                                                                                                    
                                                                                                    
                                                                                                    
                                                                                                    
                                                                                                    
                                                                                                    
                           
<?xpacket end="w"?></metadata>
<defs>
    <style>
      .cls-1 {
        fill: #e0e0e0;
      }

      .cls-1, .cls-2, .cls-3 {
        fill-rule: evenodd;
      }

      .cls-2, .cls-3 {
        fill: #2b2b2c;
      }

      .cls-3 {
        stroke: #e0e0e0;
        stroke-linecap: round;
        stroke-linejoin: round;
        stroke-width: 4px;
      }
    </style>
  </defs>
  <path class="cls-1" d="M35.991,52.006V76.994c0,15.465,11.724,27.02,27.4,27.02H64.6c15.674,0,27.4-11.555,27.4-27.02V52.006c0-15.465-11.724-28.02-27.4-28.02H63.389c-15.674,0-27.4,12.555-27.4,28.02h0Z"/>
  <path class="cls-2" d="M40,76.784V65.978H88V76.784c0,12.278-9.7,23.246-22.009,23.246H62.014C49.7,100.03,40,89.062,40,76.784h0ZM70,61.99H58V28.417A20.424,20.424,0,0,1,62.014,28h3.973A20.424,20.424,0,0,1,70,28.417V61.99Z"/>
  <path class="cls-2" d="M58,62.022H40V51.216c0-10.916,7.466-20.747,18-22.8v33.61Z"/>
  <path class="cls-2" d="M70,62.022V28.412c10.529,2.057,18,11.888,18,22.8V62.022H70Z"/>
  <path class="cls-1" d="M61,54.779V36.22a2.231,2.231,0,0,1,2.233-2.227h1.529A2.231,2.231,0,0,1,67,36.22V54.779a2.231,2.231,0,0,1-2.233,2.227H63.237A2.231,2.231,0,0,1,61,54.779h0Z"/>
  <path class="cls-3" d="M16.014,64l13.96,12.977V50.993L16.014,64"/>
  <path class="cls-3" d="M111.982,64.016L98,77.006V51l13.984,13.021"/>
</svg>
