<svg xmlns="http://www.w3.org/2000/svg" width="400" height="200" viewBox="0 0 400 200">
  <metadata><?xpacket begin="﻿" id="W5M0MpCehiHzreSzNTczkc9d"?>
<x:xmpmeta xmlns:x="adobe:ns:meta/" x:xmptk="Adobe XMP Core 5.6-c138 79.159824, 2016/09/14-01:09:01        ">
   <rdf:RDF xmlns:rdf="http://www.w3.org/1999/02/22-rdf-syntax-ns#">
      <rdf:Description rdf:about=""/>
   </rdf:RDF>
</x:xmpmeta>
                                                                                                    
                                                                                                    
                                                                                                    
                                                                                                    
                                                                                                    
                                                                                                    
                                                                                                    
                                                                                                    
                                                                                                    
                                                                                                    
                                                                                                    
                                                                                                    
                                                                                                    
                                                                                                    
                                                                                                    
                                                                                                    
                                                                                                    
                                                                                                    
                                                                                                    
                                                                                                    
                           
<?xpacket end="w"?></metadata>
<defs>
    <style>
      .cls-1 {
        fill: #ffd500;
      }

      .cls-1, .cls-2, .cls-3, .cls-4, .cls-5, .cls-6, .cls-7 {
        fill-rule: evenodd;
      }

      .cls-2 {
        fill: #ff9700;
      }

      .cls-3 {
        fill: #fe4023;
      }

      .cls-4 {
        fill: #9caec8;
      }

      .cls-5 {
        fill: #6b81a0;
      }

      .cls-6 {
        fill: #576e3a;
      }

      .cls-7 {
        fill: #e8e8e8;
      }
    </style>
  </defs>
  <path class="cls-1" d="M317.341,49.7c-42.841,4.17-82.13,12.537-110.209,21.21l-8.2-.3L222.354,60.46,197.928,10.67l33.563,18.319L253.84,0.533l9.122,14.243L294.4,0.548l0.03,16.258L333.026,0.5,304.585,35.08,337.072,36.1ZM200.676,128.035c28.686,9.5,71.463,19,118.373,23.438L337.072,163.9l-32.487,1.016L330.026,199.5l-35.593-16.3-2.03,16.259-29.441-14.228-8.122,13.243-23.349-27.456L197.928,189.33l25.441-46.745-29.441-14.213ZM213,87l-20,4L166,81l-27,3-8-4-22,4L75,80,39,88,2,81,1,121l9-6,34,8,26-6,32,1,10-6,32,4,10-2h21l14-4,29,4Z"/>
  <path class="cls-2" d="M305.093,51.019a585.84,585.84,0,0,0-89.177,17.3l-3.714.262,21.319-9.137L208.141,22.9l29.441,13.2L251.8,11.731l6.091,17.258,30.456-20.3L278.19,32.035l32.486-14.213L291.388,42.187l33.5-3.046ZM213.7,132.061c25.128,7.274,57.821,14.124,93.511,18.191l17.677,10.607-33.5-3.046,19.288,24.365L278.19,167.965l10.152,23.35-30.456-20.3-3.046,14.213L237.582,163.9l-29.441,13.2,25.38-36.547ZM1,109l3,3,24,1,5,4s9.051-5.51,10-6,14,4,14,4l24-6,19,4,13-8,17,4,21-2,9,5,11-5,9,1,10-2,22,3,2-15-26,2-11-3s-4.745-7.624-6-7-9,4-9,4l-11-5-2,5-11-3-22,7L94,87,80,95,56,89,38,95,9,87,1,93v16Z"/>
  <path class="cls-3" d="M292.987,52.554a600.244,600.244,0,0,0-61.5,11.651l13.2-5.776-20.3-20.3,20.3,9.137,6.092-18.274,6.091,16.243,16.243-17.258-4.061,16.243L287.327,36.1l-8.122,12.182,26.4-2.03Zm-56.314,85.509c17.7,4.174,37.747,7.935,59.078,10.762l9.849,4.927-26.4-2.03,8.122,12.182-18.274-8.121,4.061,16.243-16.243-17.258-6.091,16.243-6.092-18.274-20.3,9.137,20.3-20.3ZM2,101l17-2,21-1,13,4,12-7,27,5,2-6,23,3,17-6,25,5,10-7,20,8,23-4,5,15-30-7-4,2-15-4-5,6-39-8-16,8-24-1-14,5-29-5-25,5L1,105Z"/>
  <path class="cls-4" d="M180.98,76.48l-17-8-27,6.4-13-12.8-14.439,1.541-0.561-3.142v-12.8l-5-6.4-4-8-0.74-4.143,2.74-16.661-1-12.8h90l-1,70.416Zm-81,95.461,4-7.4,5-5.921V146.778l1.121-5.81,13.879,1.369,14-14.8,26,8.881,17-8.881,9,7.4,1,65.129h-90l1-11.841-2.466-13.87Z"/>
  <path class="cls-5" d="M181.088,200.065l-72.108-51.91v-1.377l1.121-5.81,6.966,0.687,68.938,49.628V173.165l-54.247-39.052,6.222-6.578,3.343,1.142,44.682,32.166V142.165l-13.89-10,8.865-4.631L195,131.5v68.566H181.088ZM99.9,172.374h0l0.084-.433,4-7.4,0.813-.962,50.684,36.487H138.361L103.98,175.314v18.678l8.435,6.073H94.98V183.783l3-1.48ZM189.664-.337h5.316L195,73l-5-2-8,7-12.777-7.054L185.98,58.853V40.13l-47.74,34.45-1.26.3L130.1,68.1,185.98,27.779V9.349L111.831,62.857l-2.851-3.969V52.563l73.306-52.9h7.378ZM103.98,41.272l-4-8L98.3,23.836l-0.316-6.57-3-3.841V-0.337h19.006L103.98,6.883V25.607L139.932-.337h17.116L103.98,37.958v3.314ZM30.546,181.808l4.393,3.385-6.431,5.67-0.844,5.072-4.441-.971-2.354-12.44Zm53.863-25.592,1.756-.566L36.3,183.4l-2.894-2.968Zm-21.83-7.595-4.065-2.591L87.787,136.6Zm-3.312,11.79L53.5,152.52l-4.1,1.32L56.506,141.8l0.82,6.561,3.178,3.851ZM32.836,144.548l-3.479-2.779L74.4,131.164Zm-16.414-.808,3.584-.911,2.863-4.821,3.845,5.586,5.255,4.28-8.054,4.421Zm23.24,22.008,6.724-1.19-7.075,8.128-5.365-2.615L37.32,166.5l-2.877-4.923ZM54.418,22.037l3.738-1.5L88.1,41.885ZM39.91,14.176l8.761-1.569L51.5,21.895l-6.938-1.6ZM91.172,57.623l-60.7-26.329,2.4-4.144,60.427,30.6Zm-70.381-31.8L9.81,18.418,23.263,20.6l6.275,3.584L22.131,30.8ZM59.406,62.59l-7.175-2.443,0.12-3.866-5.83-4.565,13.02,1.138ZM347.73,3l7.788,6-6.372,6-7.08-1Zm47.438,14.992-12.745,5-2.832,6-4.956-12,7.08-2Zm-52.777,23.42L329.7,37.079,326.7,50l7.576-.011,1.129-5.161ZM340.65,161l12.036,10H347.73l-3.54,10-4.248-8,2.124-5Zm35.519-15,4.838,4,4.248-.25L380.063,161l-10.384-1.877L373.927,153ZM398,192.531l-1.81-13.537-10.856,2.461-3.619,4.923,9.048,3.692,2.713,4.923ZM304.54,166h35.4l-3.541,4Zm75.051,27-64.43-8h-2.125l64.431,12Zm-9.2-41-53.1,4h50.27Zm-2.832,28-7.789,1,10.621,6,4.956-4.453-4.956-2.546,1.416-6ZM371.52,26l-65.869,8.3-2.053-.766,66.947-14.07Zm-32.26-13.12L301,24,336.2,9.227Z"/>
  <path class="cls-6" d="M391,61H305c-35.142,0-81,11-81,11V90H209v5l4,4-5,8,3,3,13-.052V128c31.109,9.789,64,10,64,10H391V61Z"/>
  <path class="cls-7" d="M301.12,143c-24.157,0-53.15-4.889-81.12-13V119H210l3-6-4-4h11V99h-8l-4-4h12V91H208l3-6-3-4h12V70c26.146-8.115,56.843-13,81-13h92l3.991,86H301.12ZM227.989,124.21c23.528,6.088,49.588,10.779,73.131,10.779,21.21,0,29.88.011,29.88,0.011V85s-54.488-.668-103.011,8.305v30.9Zm0-48.928V85.715C271.8,73.683,331,75,331,75l0.007-9.984C306.484,65.016,279.571,63.44,227.989,75.282ZM385,65l-30,.009V75h31Zm1,20H355v49.989h34.152Z"/>
</svg>
