<svg xmlns="http://www.w3.org/2000/svg" width="250" height="200" viewBox="0 0 250 200">
  <defs>
    <style>
      .cls-1 {
        fill: #fff;
      }

      .cls-2 {
        fill: gray;
      }

      .cls-3 {
        fill: #36322d;
      }

      .cls-4 {
        fill: #e8e8e8;
      }

      .cls-5 {
        fill: #666;
      }

      .cls-6 {
        fill: #b3b3b3;
      }
    </style>
  </defs>
  <g id="Layer_2" data-name="Layer 2">
    <g>
      <path class="cls-1" d="M162.82268,169.56963a22.39229,22.39229,0,0,1-7.66807-1.37189,23.50547,23.50547,0,0,1-14.643-15.4155,22.64934,22.64934,0,0,1-.90568-9.82331h-.07635c-7.64974,0-12.9726-2.77445-14.98806-7.81175-.90568-2.26465-3.01853-7.56106,34.472-81.08916a26.85791,26.85791,0,0,1,48.45462-20.58085c.07786-.0006.15571-.0012.23326-.0012a18.63659,18.63659,0,0,1,18.61078,17.52925,23.11019,23.11019,0,0,1-3.44417,14.465,32.69359,32.69359,0,0,1,6.59616,6.60758c3.99305,5.35052,8.22747,14.58226,5.72355,28.175-3.43846,18.66668-15.53543,25.78226-22.109,28.31083a26.87228,26.87228,0,0,1-33.04785,34.22647C175.98736,166.0936,170.02213,169.56963,162.82268,169.56963Z"/>
      <path class="cls-2" d="M232.49424,69.81648a36.65441,36.65441,0,0,0-4.78138-5.25478,27.85845,27.85845,0,0,0,2.365-13.89046c-.72589-8.1963-4.955-14.72582-11.90808-18.38533a22.27039,22.27039,0,0,0-8.7491-2.5258,30.63593,30.63593,0,0,0-54.35366,23.71605c-6.44717,12.669-15.55822,30.89946-22.65237,46.39505-12.881,28.13646-12.812,33.10622-11.3829,36.67844,2.22007,5.55066,7.38855,9.06371,14.605,9.95923a28.22673,28.22673,0,0,0,1.26439,7.393,27.13106,27.13106,0,0,0,16.96166,17.84831,26.16581,26.16581,0,0,0,8.96015,1.59971c6.22329,0,12.29766-2.16582,18.06332-6.4373a30.66591,30.66591,0,0,0,36.69274-36.15622,36.9323,36.9323,0,0,0,9.97994-7.15431c5.83766-5.86232,9.65547-13.48708,11.34592-22.6647C241.65658,86.00442,236.93733,75.77151,232.49424,69.81648Zm-23.98875,57.46037a23.08719,23.08719,0,0,1-28.74942,31.4498,1.011,1.011,0,0,0-1.01289.19528c-3.5239,3.13235-9.14557,6.86731-15.92018,6.86731a18.61847,18.61847,0,0,1-6.37714-1.14406,19.793,19.793,0,0,1-12.32428-12.98211c-1.51588-4.88691-.9902-9.40594.27418-11.17726a1.00977,1.00977,0,0,0-.82155-1.59675,1.08118,1.08118,0,0,0-.16865.0138,25.99846,25.99846,0,0,1-3.876.27616c-4.24386,0-9.6811-.94287-11.47807-5.43626-.56315-1.40837.2801-11.25616,34.78335-78.85576a1.01036,1.01036,0,0,0,.08186-.69926,23.07914,23.07914,0,0,1,42.22762-17.3389,1.00741,1.00741,0,0,0,.96555.48622,14.8726,14.8726,0,0,1,16.437,14.00289c.55822,6.30761-1.90939,11.86468-4.51509,13.89046a1.011,1.011,0,0,0,.16076,1.69685c.72.36887,17.57808,9.29894,13.278,32.64218-3.66,19.86866-18.00118,25.15895-22.31014,26.30794a1.00807,1.00807,0,0,0-.65487,1.40147Z"/>
    </g>
    <path class="cls-3" d="M29.94264,137.38418,158.47073,29.65065A6.13881,6.13881,0,0,1,162.551,28.384c5.59279,0,15.2138,4.70544,24.09986,15.2183,10.97367,12.98312,13.58941,26.28366,9.07364,30.10116l-.11.09258L76.84562,192.87443Z"/>
    <path class="cls-4" d="M189.23678,41.41644C180.57885,31.17341,170.072,24.998,162.55092,24.998a9.43509,9.43509,0,0,0-6.2554,2.05807L25.16211,136.9735l.00006.00006h-.00006c-6.70144,5.66432-.61037,23.88963,13.60469,40.7073,14.21512,16.81761,31.17129,25.85919,37.87273,20.1948a6.47936,6.47936,0,0,0,.69846-.70024L197.91,76.28935C204.61137,70.625,200.72835,55.01189,189.23678,41.41644Zm-28.56986-9.18872a3.25029,3.25029,0,0,1,1.884-.458c4.65508,0,13.3731,4.38675,21.51411,14.01818a55.50288,55.50288,0,0,1,5.75038,8.12608l-4.23728,3.79013a6.74113,6.74113,0,1,0-8.34288,7.46252l-4.99163,4.46485a63.88127,63.88127,0,0,0-5.79895-8.03011c-6.97445-8.2514-15.13068-13.87745-21.97537-15.79652ZM76.30877,178.10193l95.26234-92.11926a27.792,27.792,0,0,1,1.09814,6.024L78.85812,186.06214A42.414,42.414,0,0,0,76.30877,178.10193Zm-8.606-14.96165c-1.44-1.995-2.99551-3.99318-4.668-5.97192-8.88489-10.5116-18.84061-17.98534-26.69393-20.729l102.1394-85.61446c6.88735,1.85774,15.13493,7.49661,22.183,15.83511a63.71371,63.71371,0,0,1,5.836,8.10963ZM193.53853,71.1176l-.21981.18585-.2033.20378L178.396,86.265a29.078,29.078,0,0,0-1.16527-5.75512l16.76442-16.21137C194.75385,67.897,194.41322,70.37828,193.53853,71.1176Z"/>
    <ellipse class="cls-3" cx="49.86896" cy="167.85595" rx="4.13565" ry="8.99326" transform="translate(-92.07062 65.30992) rotate(-37.60694)"/>
    <g>
      <path class="cls-1" d="M49.732,109.75508c-3.23105-6.08155-1.94091-12.17633.34809-16.66235a24.06948,24.06948,0,0,1-4.38412.419c-6.99535,0-12.48594-3.37984-15.8781-9.774-6.83514-12.88452,1.84923-23.79837,5.16445-27.281a25.94533,25.94533,0,0,1-2.12368-10.34453A26.24858,26.24858,0,0,1,66.93755,21.06338C73.58481,5.58356,89.16443,4.33851,93.93841,4.33851a28.18977,28.18977,0,0,1,9.50167,1.5276c8.78356,3.19408,13.45324,10.88379,15.21981,14.47645a30.27976,30.27976,0,0,1,8.53167-1.34244A18.9014,18.9014,0,0,1,144.9219,30.54461a27.59987,27.59987,0,0,1,3.34287-.208c8.36875,0,14.78366,3.91309,18.0631,11.01846,2.37437,5.14491,2.62356,14.27926-1.49423,21.78441-2.52767,4.60745-7.67439,10.38841-17.838,11.76692a45.97791,45.97791,0,0,1-6.13746.43165h-.0018c-10.06649-.0006-15.86579-3.74716-18.74244-6.45548-1.96135,3.08466-6.06983,7.76666-14.10432,11.02386a50.58907,50.58907,0,0,1-18.79984,3.62693c-1.6782,0-2.99088-.089-3.81961-.16713L50.97768,112.09969Z"/>
      <path class="cls-5" d="M169.20113,40.029c-3.96377-8.58734-12.1931-13.32582-22.41369-12.81987a21.89165,21.89165,0,0,0-19.596-11.373h-.00493a31.55187,31.55187,0,0,0-6.93192.82106c-2.42027-4.10826-7.42553-10.7443-15.73328-13.76521A31.37426,31.37426,0,0,0,93.9388,1.17391h-.00394a34.93523,34.93523,0,0,0-17.3966,4.50276,29.82485,29.82485,0,0,0-11.304,11.67039A29.4209,29.4209,0,0,0,31.32178,55.77513a33.12533,33.12533,0,0,0-4.82823,7.51923,23.97105,23.97105,0,0,0,.52864,21.926c3.91347,7.37622,10.231,11.33013,18.28621,11.45292a19.67378,19.67378,0,0,0,1.6288,14.566l2.49129,4.68966a1.00948,1.00948,0,0,0,.69778.51779.99759.99759,0,0,0,.19429.01873,1.01106,1.01106,0,0,0,.64748-.23472L86.4324,86.61936c.89207.05178,1.82408.0784,2.77631.0784a53.79273,53.79273,0,0,0,19.99046-3.85824,34.21143,34.21143,0,0,0,13.49941-9.46265c3.56384,2.45973,9.439,5.12558,18.1575,5.12558a48.99965,48.99965,0,0,0,6.56552-.46107c11.46919-1.55484,17.30784-8.13416,20.18673-13.38007C172.44494,55.84564,171.82458,45.71283,169.20113,40.029ZM56.30863,88.56228a1.00887,1.00887,0,0,0-1.26784-.3156A23.66739,23.66739,0,0,1,45.696,90.34741c-5.83224,0-10.23391-2.72306-13.08271-8.09323-6.98715-13.171,5.11522-24.11351,5.634-24.57311a1.00967,1.00967,0,0,0,.23227-1.21014,22.83643,22.83643,0,0,1-2.45628-10.35867A23.08043,23.08043,0,0,1,67.802,24.73512a1.01052,1.01052,0,0,0,1.33392-.60063C74.55588,8.702,89.48782,7.50273,93.93683,7.50273h.00148a25.39464,25.39464,0,0,1,8.42018,1.33737c10.01841,3.64274,14.13308,14.39147,14.17351,14.49947a1.01157,1.01157,0,0,0,1.27869.60112,28.82433,28.82433,0,0,1,9.38079-1.77576,15.70509,15.70509,0,0,1,15.33039,11.051,1.01248,1.01248,0,0,0,1.15688.721,25.23826,25.23826,0,0,1,4.5861-.43593c7.06259,0,12.45743,3.26008,15.18936,9.18009,2.04254,4.42436,2.21908,12.34943-1.39457,18.93566-2.17766,3.9692-6.63258,8.95226-15.48918,10.15353a42.80277,42.80277,0,0,1-5.71438.40288c-13.567,0-18.14764-7.31852-18.334-7.62673a.99917.99917,0,0,0-.97935-.48622,1.01213,1.01213,0,0,0-.84967.69087c-.02515.07594-2.62443,7.66273-13.87221,12.22269a47.39446,47.39446,0,0,1-17.6121,3.3952,32.736,32.736,0,0,1-4.341-.24558,1.02036,1.02036,0,0,0-.79789.22339L51.98438,107.13648c-3.839-9.0213,3.8755-16.92616,4.2197-17.27135A1.01085,1.01085,0,0,0,56.30863,88.56228Z"/>
    </g>
    <path class="cls-6" d="M134.58144,139.57789l43.71321-43.68153s-3.82889,18.3077,14.03928,20.23483c0,0-12.52367,16.782-1.5156,28.34481,9.97624,10.47893,19.70285-2.00742,19.70285-2.00742s-2.23352,15.7382-21.69707,19.59245c0,0-6.64781.36884-9.70539-2.38508,0,0-9.12,10.41478-19.64947,7.84527s-20.42077-14.45345-18.82539-25.05264Z"/>
    <path class="cls-6" d="M46.89719,65.70471s6.73512,10.08982,20.23482,5.2996c14.93523-5.2996,13.00811-17.82592,13.00811-17.82592s23.12552,11.081,33.72471-2.89069c0,0,5.34619,15.588-11.56276,25.53442-8.19029,4.81782-17.82592.96357-17.82592.96357L54.04357,102.96247S47.86075,96.53873,57.89789,83.37C57.89789,83.37,44.0065,79.67638,46.89719,65.70471Z"/>
  </g>
</svg>
