<svg xmlns="http://www.w3.org/2000/svg" width="400" height="200" viewBox="0 0 400 200">
  <metadata><?xpacket begin="﻿" id="W5M0MpCehiHzreSzNTczkc9d"?>
<x:xmpmeta xmlns:x="adobe:ns:meta/" x:xmptk="Adobe XMP Core 5.6-c138 79.159824, 2016/09/14-01:09:01        ">
   <rdf:RDF xmlns:rdf="http://www.w3.org/1999/02/22-rdf-syntax-ns#">
      <rdf:Description rdf:about=""/>
   </rdf:RDF>
</x:xmpmeta>
                                                                                                    
                                                                                                    
                                                                                                    
                                                                                                    
                                                                                                    
                                                                                                    
                                                                                                    
                                                                                                    
                                                                                                    
                                                                                                    
                                                                                                    
                                                                                                    
                                                                                                    
                                                                                                    
                                                                                                    
                                                                                                    
                                                                                                    
                                                                                                    
                                                                                                    
                                                                                                    
                           
<?xpacket end="w"?></metadata>
<defs>
    <style>
      .cls-1 {
        fill: #ffd40d;
      }

      .cls-1, .cls-2, .cls-3, .cls-4, .cls-5, .cls-6 {
        fill-rule: evenodd;
      }

      .cls-2 {
        fill: #ff960d;
      }

      .cls-3 {
        fill: #dc4229;
      }

      .cls-4 {
        fill: #6b81a0;
      }

      .cls-5 {
        fill: #27292c;
      }

      .cls-6 {
        fill: #e8e8e8;
      }

      .cls-7 {
        fill: #9caec8;
      }
    </style>
  </defs>
  <path class="cls-1" d="M178.565,53.4c-42.2,4.108-80.9,12.349-108.559,20.892L57,74,85,64,57,12,94,33,117,3l8,16L154,4l2,17L195,1,166,39l32,1ZM63.647,123.668c28.256,9.359,70.393,18.72,116.6,23.087L198,159l-32,1,29,38-39-20-2,17-29-15-8,16L94,166,57,187l29-49L57,124Z"/>
  <path class="cls-2" d="M166.5,54.7A577.066,577.066,0,0,0,78.658,71.742L75,72l21-9L71,27l29,13,14-24,6,17,30-20L140,36l32-14L153,46l33-3ZM76.477,127.633c24.751,7.165,56.955,13.913,92.11,17.919L186,156l-33-3,19,24-32-14,10,23-30-20-3,14-17-21L71,172l25-36Z"/>
  <path class="cls-3" d="M154.575,56.212A591.307,591.307,0,0,0,94,67.689L107,62,87,42l20,9,6-18,6,16,16-17-4,16,18-8-8,12,26-2Zm-55.47,77.334c17.44,4.111,37.181,7.816,58.193,10.6L167,149l-26-2,8,12-18-8,4,16-16-17-6,16-6-18-20,9,20-20Z"/>
  <path id="_1" data-name="1" class="cls-4" d="M250,3.146l11,6-9,6-10-1ZM317,18.13l-18,5-4,6-7-11.993,10-2ZM242.459,41.538l-17.922-4.331L220.3,50.123l10.7-.011,1.594-5.158ZM240,161.063l17,10h-7l-5,9.994-6-8,3-5Zm50.167-14.991,6.833,4,6-.25-7.333,11.243L281,159.189l6-6.121ZM321,192.577l-2.556-13.53-15.333,2.46L298,186.427l12.778,3.69,3.833,4.921ZM189,166.061h50l-5,4Zm106,26.984-91-7.995h-3l91,11.993Zm-13-40.977-75,4h71Zm-4,27.985-11,1,15,6,7-4.451-7-2.545,2-6Zm5.6-153.919-93.031,8.295-2.9-.766L282.223,19.6ZM238.037,13.021L184,24.134,233.718,9.369Z"/>
  <path class="cls-5" d="M362,138H213c-73.735,0-130.258-15.1-152-28V90c21.742-12.9,78.265-28,152-28H362l35,6v64Z"/>
  <path class="cls-6" d="M362,142H352l-2-2h-6l-2,2h-7l-4,4H319l-4-4h-8l-6,2h-4l-7-2H247l-2,2H225l-2-2H213c-73.735,0-136.258-19.1-158-32V90c21.742-12.9,84.265-32,158-32h10l2-2h20l2,2h43l7-2h4l6,2h8l4-4h12l4,4h7l2,2h6l2-2h10l38,6v72ZM112,121.124V95.831c-14.292,1.558-27.648,3.363-39.05,5.341-4.4-1.14,7.16-8.274,39.05-14.349V78.876C86.644,84.966,21.124,99.3,112,121.124ZM223,68H213c-36.627,0-68.014,3.728-93,9.059v8.118C150.949,80.889,184.328,78,213,78h10V68Zm0,22H213a856.89,856.89,0,0,0-93,5.537v27.4c24.986,5.331,56.373,9.059,93,9.059h10V90Zm67-22.25L289,68H247V78h43V67.75ZM290,90H247v42h43V90Zm25-22h-8V78h8V68Zm0,22h-8v42h8V90Zm29-20-2-2h-7V78h9V70Zm0,20h-9v42h7l2-2V90Zm46-16-28-6H352l-2,2v8h12l28,2.947V74Zm0,19-28-3H350v40l2,2h10l28-6V93Z"/>
  <rect class="cls-7" x="3" y="11" width="44" height="178"/>
  <path class="cls-4" d="M42,11v9.59L9,44.519V11H0V189H9v-9.375L42,155.7V189h9V11H42ZM9,55.675v-0.05L42,31.7V51.57L9,75.519V55.675Zm0,30.95L42,62.7V82.55L9,106.519V86.625Zm0,31L42,93.7V113.55L9,137.519V117.625Zm0,50.894V148.625L42,124.7V144.55Z"/>
</svg>
