<?xml version="1.0" encoding="UTF-8" standalone="no"?>
<svg
   width="400"
   height="200"
   viewBox="0 0 400 200"
   version="1.1"
   id="svg23"
   sodipodi:docname="cannon_ammo_smoke_shell.svg"
   inkscape:version="1.2 (dc2aedaf03, 2022-05-15)"
   xmlns:inkscape="http://www.inkscape.org/namespaces/inkscape"
   xmlns:sodipodi="http://sodipodi.sourceforge.net/DTD/sodipodi-0.dtd"
   xmlns="http://www.w3.org/2000/svg"
   xmlns:svg="http://www.w3.org/2000/svg"
   xmlns:rdf="http://www.w3.org/1999/02/22-rdf-syntax-ns#"
   xmlns:x="adobe:ns:meta/">
  <sodipodi:namedview
     id="namedview25"
     pagecolor="#ffffff"
     bordercolor="#666666"
     borderopacity="1.0"
     inkscape:showpageshadow="2"
     inkscape:pageopacity="0.0"
     inkscape:pagecheckerboard="0"
     inkscape:deskcolor="#d1d1d1"
     showgrid="false"
     inkscape:zoom="1.4142136"
     inkscape:cx="635.33541"
     inkscape:cy="43.487065"
     inkscape:window-width="3440"
     inkscape:window-height="1361"
     inkscape:window-x="-9"
     inkscape:window-y="-9"
     inkscape:window-maximized="1"
     inkscape:current-layer="svg23" />
  <metadata
     id="metadata2">
<?xpacket begin="﻿" id="W5M0MpCehiHzreSzNTczkc9d"?>    <x:xmpmeta
       x:xmptk="Adobe XMP Core 5.6-c138 79.159824, 2016/09/14-01:09:01        ">
      <rdf:RDF>
        <rdf:Description
           rdf:about="" />
      </rdf:RDF>
    </x:xmpmeta>
<?xpacket end="w"?>  </metadata>
  <defs
     id="defs6">
    <style
       id="style4">
      .cls-1 {
        fill: #ffd40d;
      }

      .cls-1, .cls-2, .cls-3, .cls-4, .cls-5, .cls-6 {
        fill-rule: evenodd;
      }

      .cls-2 {
        fill: #ff960d;
      }

      .cls-3 {
        fill: #dc4229;
      }

      .cls-4 {
        fill: #6b81a0;
      }

      .cls-5 {
        fill: #27292c;
      }

      .cls-6 {
        fill: #e8e8e8;
      }

      .cls-7 {
        fill: #9caec8;
      }
    </style>
  </defs>
  <g
     id="Layer_2"
     data-name="Layer 2"
     transform="matrix(-0.61110174,-0.71615829,0.79049675,-0.55363362,159.02996,240.92786)">
    <path
       class="cls-1"
       d="m 160.62677,172.41017 a 22.39229,22.39229 0 0 1 -7.66807,-1.37189 23.50547,23.50547 0 0 1 -14.643,-15.4155 22.64934,22.64934 0 0 1 -0.90568,-9.82331 h -0.0763 c -7.64974,0 -12.9726,-2.77445 -14.98806,-7.81175 -0.90568,-2.26465 -3.01853,-7.56106 34.472,-81.089165 a 26.85791,26.85791 0 0 1 48.45462,-20.58085 c 0.0779,-6e-4 0.15571,-0.0012 0.23326,-0.0012 a 18.63659,18.63659 0 0 1 18.61078,17.52925 23.11019,23.11019 0 0 1 -3.44417,14.465 32.69359,32.69359 0 0 1 6.59616,6.60758 c 3.99305,5.35052 8.22747,14.58226 5.72355,28.175005 -3.43846,18.66668 -15.53543,25.78226 -22.109,28.31083 a 26.87228,26.87228 0 0 1 -33.04785,34.22647 c -4.04351,3.3035 -10.00874,6.77953 -17.20819,6.77953 z"
       id="path189"
       style="display:inline;fill:#ffffff" />
    <path
       class="cls-6"
       d="m 125.89285,141.46834 46.0381,-64.498663 c 0,0 0.3389,40.074923 18.20707,42.002053 0,0 -12.52367,16.782 -1.5156,28.34481 9.97624,10.47893 19.70285,-2.00742 19.70285,-2.00742 0,0 -2.23352,15.7382 -21.69707,19.59245 0,0 -6.64781,0.36884 -9.70539,-2.38508 0,0 -9.12,10.41478 -19.64947,7.84527 -10.52947,-2.56951 -20.42077,-14.45345 -18.82539,-25.05264 z"
       id="path207"
       style="display:inline;fill:#b3b3b3"
       sodipodi:nodetypes="cccccccscc" />
    <path
       class="cls-2"
       d="m 230.29833,72.657015 c -1.41988,-1.902284 -3.0212,-3.662141 -4.78138,-5.25478 1.96558,-4.351001 2.77996,-9.134146 2.365,-13.89046 -0.72589,-8.1963 -4.955,-14.72582 -11.90808,-18.38533 -2.71127,-1.435564 -5.68989,-2.295472 -8.7491,-2.5258 -3.01678,-3.841985 -4.22584,-10.048033 -8.42955,-12.031183 -8.77495,-6.783564 -19.60704,-0.754342 -27.91775,2.871858 -12.78793,5.579738 -20.19055,19.095172 -18.00636,32.875375 -6.44717,12.669 -15.55822,30.89946 -22.65237,46.395055 -12.881,28.13646 -19.96991,45.71419 -18.54081,49.28641 2.22007,5.55066 12.50722,-0.46277 21.76291,-2.64874 0.0907,2.50961 0.51594,4.99588 1.26439,7.393 2.47328,8.32016 8.7782,14.95466 16.96166,17.84831 2.87033,1.0526 5.90291,1.59403 8.96015,1.59971 6.22329,0 12.29766,-2.16582 18.06332,-6.4373 21.72871,4.83819 41.21036,-14.35861 36.69274,-36.15622 3.70257,-1.81116 7.07583,-4.22935 9.97994,-7.15431 5.83766,-5.86232 9.65547,-13.48708 11.34592,-22.6647 2.75171,-14.932955 -1.96754,-25.165865 -6.41063,-31.120895 z m -23.98875,57.460375 c 8.6367,18.59894 -9.4519,38.38656 -28.74942,31.4498 -0.34794,-0.12501 -0.73636,-0.0501 -1.01289,0.19528 -3.5239,3.13235 -9.14557,6.86731 -15.92018,6.86731 -2.17624,-0.006 -4.33463,-0.39294 -6.37714,-1.14406 -5.94199,-2.11641 -10.51944,-6.93819 -12.32428,-12.98211 -1.51588,-4.88691 -0.9902,-9.40594 0.27418,-11.17726 0.47743,-0.66829 -2.4e-4,-1.59668 -0.82155,-1.59675 -0.0565,1.9e-4 -0.11288,0.005 -0.16865,0.0138 -1.2833,0.18861 -2.57892,0.28092 -3.876,0.27616 -4.24386,0 -13.43467,1.05849 -15.23164,-3.4349 -0.56315,-1.40837 4.03367,-13.25752 38.53692,-80.857125 0.11025,-0.215729 0.13932,-0.463893 0.0819,-0.69926 -2.72582,-11.095662 3.07722,-22.515701 13.64651,-26.85551 10.56929,-4.339809 22.72312,-0.292968 28.58111,9.51661 0.20027,0.335663 0.57663,0.525184 0.96555,0.48622 8.48062,-0.909047 15.98682,5.48558 16.437,14.00289 0.55822,6.30761 -1.90939,11.86468 -4.51509,13.89046 -0.58252,0.454446 -0.49674,1.359884 0.16076,1.69685 0.72,0.36887 17.57808,9.29894 13.278,32.642185 -3.66,19.86866 -18.00118,25.15895 -22.31014,26.30794 -0.60735,0.16098 -0.92105,0.83231 -0.65487,1.40147 z"
       id="path191"
       style="display:inline;fill:#808080"
       inkscape:label="path191"
       sodipodi:nodetypes="ccccccscccccccccccccccccccccccccsccccccccc" />
  </g>
  <path
     class="cls-5"
     d="M 362.01503,135.36237 H 212.42118 c -74.02887,0 -130.777141,-15.16017 -152.605792,-28.11159 V 87.171072 C 81.644039,74.219666 138.39232,59.059485 212.42118,59.059485 h 149.59385 l 35.13949,6.023913 v 64.255062 z"
     id="path15"
     style="display:inline;stroke-width:1.00398" />
  <path
     class="cls-6"
     d="m 362.01503,139.37832 h -10.03986 l -2.00797,-2.00797 h -6.02391 l -2.00797,2.00797 h -7.0279 l -4.01595,4.01594 h -12.04782 l -4.01594,-4.01594 h -8.03188 l -6.02391,2.00796 h -4.01595 l -7.02789,-2.00796 H 246.5567 l -2.00798,2.00796 H 224.469 l -2.00795,-2.00796 h -10.03987 c -74.02887,0 -136.801053,-19.17611 -158.629705,-32.12753 V 87.171072 C 75.620127,74.219666 138.39232,55.043543 212.42118,55.043543 h 10.03987 l 2.00795,-2.007971 h 20.07972 l 2.00798,2.007971 h 43.17137 l 7.02789,-2.007971 h 4.01595 l 6.02391,2.007971 h 8.03188 l 4.01594,-4.015942 h 12.04782 l 4.01595,4.015942 h 7.0279 l 2.00797,2.007971 h 6.02391 l 2.00797,-2.007971 h 10.03986 l 38.15145,6.023913 V 133.35443 Z M 111.01866,118.41912 V 93.025322 c -14.348967,1.564206 -27.7582,3.376405 -39.205649,5.362288 -4.417532,-1.144545 7.188533,-8.306984 39.205649,-14.406193 v -7.978674 c -25.457065,6.114273 -91.238198,20.505395 0,42.416377 z M 222.46105,65.083398 h -10.03987 c -36.77297,0 -68.28506,3.742857 -93.37065,9.095105 v 8.150352 c 31.07235,-4.305089 64.58438,-7.205602 93.37065,-7.205602 h 10.03987 z m 0,22.087674 h -10.03987 a 860.30514,860.30514 0 0 0 -93.37065,5.559069 v 27.509199 c 25.08559,5.35225 56.59768,9.09511 93.37065,9.09511 h 10.03987 z m 67.26702,-22.338671 -1.00399,0.250997 H 246.5567 v 10.039855 h 43.17137 z m 0,22.338671 H 246.5567 v 42.167408 h 43.17137 z M 314.8277,65.083398 h -8.03188 v 10.039855 h 8.03188 z m 0,22.087674 h -8.03188 v 42.167408 h 8.03188 z m 29.11558,-20.079703 -2.00797,-2.007971 h -7.02789 v 10.039855 h 9.03586 z m 0,20.079703 h -9.03586 v 42.167408 h 7.02789 l 2.00797,-2.00799 z m 46.18334,-16.063761 -28.11159,-6.023913 h -10.03986 l -2.00797,2.007971 v 8.031884 h 12.04783 l 28.11159,2.958745 z m 0,19.075724 -28.11159,-3.011963 h -12.04784 v 40.159418 l 2.00797,2.00799 h 10.03986 l 28.11159,-6.02392 z"
     id="path17"
     style="display:inline;stroke-width:1.00398" />
  <path
     class="cls-1"
     d="m 57.196272,123.43203 c 0.807634,6.19746 5.694899,10.1064 10.498332,12.30264 -1.468824,0.53011 -2.87612,1.1711 -4.204219,1.91492 -6.299638,3.55621 -9.178246,8.87884 -8.324613,15.39233 1.720297,13.12489 16.212056,16.88419 21.326343,17.80723 0.727043,3.16281 2.228334,6.16749 4.410617,8.82735 10.826122,13.26034 34.009688,13.98418 46.000748,1.43623 15.44818,8.21468 40.14418,12.30131 44.44337,9.87437 9.63119,-0.49198 21.22035,-2.24582 23.33079,-4.58599 47.08656,-16.13831 -1.70049,-45.18688 -3.34104,-52.03418 1.08246,-0.46124 2.13023,-0.97673 3.13756,-1.54362 7.53645,-4.25439 10.92149,-10.4463 9.53164,-17.43517 -1.00661,-5.06044 -6.36557,-12.02847 -14.66136,-15.556256 -5.09258,-2.16586 -13.26106,-3.879205 -23.25647,0.255176 -2.00323,0.82368 -3.93786,1.75803 -5.79092,2.79678 l -0.001,10e-4 c -9.06498,5.11792 -11.99742,10.87215 -12.93252,14.363 -3.6518,-1.31323 -10.21355,-2.73127 -19.43992,-1.08638 -6.84775,1.24582 -13.34649,3.56765 -19.14711,6.84075 -1.5113,0.85315 -2.63903,1.58712 -3.33759,2.06694 L 57.31044,112.99947 Z"
     id="path201"
     style="display:inline;fill:#ffffff;stroke-width:0.992582"
     sodipodi:nodetypes="cccccccccccccccccccccc" />
  <path
     class="cls-6"
     d="m 150.38078,120.28797 c 0,0 -3.43957,-18.8895 35.26052,-21.737857 0,0 34.3677,9.209397 33.21291,25.438987 0,0 -3.24043,8.60794 -6.62489,10.4642 0,0 -10.63809,1.48854 -2.82879,7.54561 1.82349,1.41433 10.39,14.12211 5.71422,26.09949 -5.4918,14.06767 -53.95664,41.96776 -88.10877,9.59658 18.5062,-1.42886 21.32463,-1.20723 16.32271,-15.41187 21.94088,5.24485 45.39886,-9.04057 19.47727,-27.53593 17.53537,-26.66657 -12.42518,-14.45921 -12.42518,-14.45921 z"
     id="path207-2"
     style="display:inline;fill:#b3b3b3;fill-rule:evenodd;stroke-width:0.898489"
     sodipodi:nodetypes="cccccscccc" />
  <path
     class="cls-5"
     d="m 210.60744,139.06946 c 8.5482,4.61332 17.78139,20.23002 1.26199,40.68591 -16.34876,20.24463 -74.01792,18.38978 -84.22863,5.00711 -17.26928,14.96239 -47.566891,8.49031 -54.028926,-11.5415 -3.140256,-0.71821 -6.149007,-1.78698 -8.944176,-3.17716 -7.295812,-3.50183 -12.109848,-9.71784 -12.926196,-16.69066 -0.98445,-7.51405 2.287953,-13.68704 9.466987,-17.874 -4.204102,-2.96985 -6.868044,-7.17444 -7.436653,-11.73753 l 0.147078,-10.73822 c 0.0061,-0.44932 0.01338,-5.74643 0.121935,-5.75262 7.259734,3.48593 13.983107,5.25913 14.401873,5.41747 4.176317,1.57909 16.973468,4.95418 31.170389,8.26525 4.183589,0.97571 6.369959,0.18311 7.227469,-0.30098 6.16841,-3.48004 13.07904,-5.94852 20.3607,-7.27277 5.91291,-1.14254 12.07201,-1.06543 17.94089,0.22458 1.70589,-3.654 5.36726,-8.63738 13.21866,-13.06957 1.98186,-1.111768 4.0513,-2.111499 6.1944,-2.992363 11.27893,-4.666024 31.56634,-0.0072 37.29552,2.103793 5.02579,1.8518 17.92034,9.38373 20.331,18.14975 1.33676,4.86097 -2.06093,16.47664 -11.57431,21.29351 z m -7.47461,-0.76841 c -0.1796,-0.4487 -0.18865,-1.23702 0.19062,-1.71782 0.91682,-1.16222 3.00753,-1.22655 4.39647,-2.00493 6.36019,-3.59038 10.46571,-9.24339 9.30735,-15.06613 -0.40331,-2.02906 -6.16625,-11.01802 -17.12076,-15.1396 -4.44808,-1.67357 -23.57456,-5.323124 -32.28462,-1.72044 -1.86532,0.76663 -3.66679,1.63633 -5.39233,2.60326 -12.21772,6.89701 -11.86934,14.707 -11.84878,15.03258 0.0281,0.35843 -0.20137,0.69673 -0.58475,0.86204 -0.38176,0.16743 -0.84595,0.134 -1.18746,-0.0855 -0.069,-0.0442 -7.04725,-4.40498 -19.96369,-2.10226 -6.4147,1.16789 -12.50233,3.34368 -17.93584,6.4105 -1.31538,0.72675 -2.57119,1.52543 -3.75916,2.39075 -0.23168,0.17644 -0.54236,0.26303 -0.85509,0.23831 L 66.433406,118.0719 c -1.627315,10.08331 8.228025,16.88342 8.748993,16.96698 0.528145,0.0851 0.904827,0.47539 0.890517,0.92265 l 1.3e-5,-7e-5 c -0.01407,0.44732 -0.415747,0.82027 -0.948846,0.8809 -3.459728,0.49821 -6.760465,1.57942 -9.699482,3.17721 -5.252201,2.9649 -7.551641,7.24206 -6.834603,12.71239 1.758513,13.41673 19.345875,15.4599 20.093983,15.54039 0.494768,0.0532 0.884387,0.37686 0.948882,0.78828 0.500864,3.23035 1.912458,6.31654 4.119728,9.00702 10.017074,12.27224 31.791229,12.19684 41.685009,-0.1444 0.34851,-0.43459 1.13537,-0.60666 1.56838,-0.22827 20.56381,17.96902 67.55193,10.78918 77.25108,1.42873 19.51058,-18.82928 10.36141,-31.55541 -1.12423,-40.82266"
     id="path203"
     style="display:inline;fill:#666666;stroke-width:0.992582"
     sodipodi:nodetypes="csccccccscsscccccssccaccsccccccccccssccccccccssc" />
  <rect
     class="cls-7"
     x="3.0000017"
     y="11"
     width="44"
     height="178"
     id="rect19" />
  <path
     class="cls-4"
     d="m 42,11 v 9.59 L 9,44.519 V 11 H 0 v 178 h 9 v -9.375 L 42,155.7 V 189 h 9 V 11 Z M 9,55.675 v -0.05 L 42,31.7 V 51.57 L 9,75.519 Z M 9,86.625 42,62.7 V 82.55 L 9,106.519 Z m 0,31 L 42,93.7 v 19.85 L 9,137.519 Z m 0,50.894 V 148.625 L 42,124.7 v 19.85 z"
     id="path21"
     style="display:inline" />
</svg>
