<svg xmlns="http://www.w3.org/2000/svg" width="400" height="200" viewBox="0 0 400 200">
  <defs>
    <style>
      .cls-1 {
        fill: #ffd40d;
      }

      .cls-1, .cls-2, .cls-3 {
        fill-rule: evenodd;
      }

      .cls-2 {
        fill: #ff960d;
      }

      .cls-3 {
        fill: #dc4229;
      }
    </style>
  </defs>
  <g id="Layer_1" data-name="Layer 1">
    <g>
      <g>
        <path class="cls-1" d="M145.19746,73.488c2.82439.99176,7.36929-1.29442,6.26577-5.56466l.35373-2.70408C149.52438,65.828,139.81805,66.63967,145.19746,73.488Z"/>
        <path class="cls-1" d="M145.98952,92.83955c2.25249-1.67511.35562-2.70662-.17656-4.29057l-3.22374.62759C141.75793,91.35062,144.58064,92.34722,145.98952,92.83955Z"/>
        <path class="cls-1" d="M150.43652,133.62743l-.88353,1.1034a4.614,4.614,0,0,1,3.17458-1.70543c-.08237-2.15612-2.02487-4.25123-3.83314-3.12C149.42184,131.50149,151.273,131.44588,150.43652,133.62743Z"/>
        <path class="cls-1" d="M194.38077,85.52093c1.19016,6.42835-1.1911,16.18784-4.63627,22.74215l2.28829,10.70272c2.56318-5.45757,8.69756-2.9399,13.33015-3.07509,1.94093,2.09566-4.01713,3.88695.70329,5.89853.39491-1.62374-.17975-4.29977.70381-5.40325,4.281,2.57112,2.77929,11.22752,11.47023,8.281l2.5615-5.45273c15.26093-.9791,31.79995,6.61916,45.9175.28552,2.99651,5.29872,10.32476,2.931,15.08707,6.02713L281.671,122.296c3.00025,5.29414,6.88474-1.815,10.1497-1.36682l2.64684-3.30627c.702-5.40543-8.42659-1.909-6.44031-10.04011,5.82408-5.00909,10.94235,6.67835,15.79077.61728,5.02754-1.75886,4.71846,2.01827,8.028,3.53767,1.05971,3.20318-.79382,3.25425-.17825,7.00177,11.64851,1.27923,10.94816-15.92173,21.18067-15.14852.57278,2.67856,9.1697,8.89276,1.93674,13.409l-3.835-3.12224-2.16438,3.83129c2.7797-.08135,7.85252-.76481,7.54329,3.01042,2.73573-12.45941,19.897,10.19232,10.81044-7.84836-4.50207,3.36176-5.9179,2.85805-9.35557-1.88323,10.59111-1.92,19.63071-7.56308,28.41382-8.35422l2.99563,5.29266c-.21638-5.3739,3.80093-9.25854,7.89812-10.994,1.89684,1.03151,4.193.41544,3.83535,3.1222,1.06139,3.19883-15.17321,3.1301-6.92487,12.04137,9.61611-2.96961,19.58941-8.64588,25.27843-16.88169-4.67749-.94066-7.85231.76719-13.23379-6.08094-16.9354-5.96745-34.271.99379-50.81568-6.60412-.309,3.77768-4.41467,5.50856-2.86655,9.23483-1.28047,2.7273-5.56319.161-6.26522,5.56645-12.70566-4.476-26.90754-.30252-37.98377,1.08981,2.38584-9.7528-7.189-5.70757-10.58232-9.38051-2.60605,4.382-7.76659,2.914-11.47083,3.02591-.52794-1.60314-2.86728-2.06783-2.51167-4.77445,2.82271.99661,3.65949-1.18017,6.39416-2.33926-1.67437-6.94422-5.999.71326-10.1449,1.37589l2.46846,3.69369c-6.926.73923-14.29434,13.33341-21.04548,7.0683l4.81084-7.137c-7.98339-2.46645-16.84838,7.48392-23.203-.405,4.98859-2.84184,13.98652,1.74816,13.14844-7.37943-.65857-4.82548-6.65771-4.11412-9.3519-1.88358C214.98438,90.31451,203.99961,71.25178,194.38077,85.52093Z"/>
        <path class="cls-1" d="M209.91306,68.38885c10.19018-.29537,6.08438,12.74246,15.74693,10.84815-1.58895-4.79678,2.86413-9.23408,6.08717-9.87106,3.35265,2.59918,6.97134.3432,9.74747.26874,1.81143-1.13853,1.10856-7.03709-2.60191-6.93229C230.508,73.176,217.85607,58.47076,209.91306,68.38885Z"/>
        <path class="cls-1" d="M203.15506,96.03542c5.12153.38927,2.341-10.83336,7.544-8.294-2.556-5.84279-2.7755.08336-7.40844.21386l2.913,3.15445Z"/>
        <path class="cls-1" d="M243.21571,77.65179c3.26682.44564,10.54062-2.9949,10.27937-9.44423.43928-.55532-.61808-3.75445,1.2803-2.7301C252.08129,67.70377,243.79111,69.02329,243.21571,77.65179Z"/>
        <path class="cls-1" d="M230.86028,104.38985c1.89558,1.01984,3.7487.96352,6.5247.88724C235.48881,104.255,233.06689,101.63186,230.86028,104.38985Z"/>
        <path class="cls-1" d="M248.33045,89.34612c-.26783,4.85331,2.82438.99176,3.74731.96651l1.7694-2.20283C251.94742,87.09456,249.60692,86.61441,248.33045,89.34612Z"/>
        <path class="cls-1" d="M275.01825,72.96389c4.54508-2.28387-5.33588-5.76333.17992-7.00669l-3.26366-.43644L271.314,73.071Z"/>
        <path class="cls-1" d="M281.68117,65.77822c1.46016,1.572,2.87128,2.067,5.12122.38507l-1.50347-2.648C284.33372,62.4668,283.53389,65.722,281.68117,65.77822Z"/>
        <path class="cls-1" d="M276.82646,83.1462c2.3864,1.5422,1.76706-2.20737,3.09239-3.85924C278.90071,77.16417,274.49195,82.66982,276.82646,83.1462Z"/>
        <path class="cls-1" d="M302.71422,126.53423c-2.55621-5.8451-6.572-1.963-10.80791-3.4539C296.14217,124.57127,298.12445,127.745,302.71422,126.53423Z"/>
        <path class="cls-1" d="M111.23152,70.70014c-1.76335,2.20237-4.14593.66222-5.60024-.9131l.84256-2.18151Z"/>
        <path class="cls-1" d="M138.84932,65.59851c2.599,6.92068-1.23634,3.79855-4.72349,9.28856C129.0979,76.646,123.31969,71.424,118.24316,72.112l-3.39516-3.67C120.76166,65.58138,131.30571,62.58382,138.84932,65.59851Z"/>
        <path class="cls-1" d="M145.36976,100.39921c-3.57117,3.334-8.86877-1.36051-11.64442-1.279,4.58742-1.21531,10.58716-1.92433,13.80681-2.552C148.064,98.16867,146.253,99.291,145.36976,100.39921Z"/>
        <path class="cls-1" d="M61.60746,70.51722c6.48188-.18834,15.0402-6.357,22.8042,2.03139-3.17815,1.71233-3.09075,3.85905-8.11667,5.61786,4.54042,9.02291,7.80748-1.84262,12.44061-1.97074-3.62107,2.25144,1.62557,5.87093,4.89453,6.31831,5.90963-2.85983,15.65959-2.60734,23.999-2.847,3.83276,3.12,15.17335-3.1282,14.15555,6.04634,5.1221.39634,5.29852-6.60769,8.91444-8.86818,11.996,9.882,18.61662-20.99543,31.63109-8.986-1.1473-5.35229,4.89278-4.99223,7.19013-5.59185,5.07079-.68331,17.06921-2.11035,15.17262,8.17633-2.95792,7.08362-10.80385-3.45421-15.61536,3.67387-8.33985,11.549,9.87739,3.48683,10.71511,12.60973-1.45546-1.5634-1.58923,6.5139-5.86659,3.93778,8.95509,3.51443-2.8226,10.31976,2.02652,15.5603-9.48469,6.19653-8.56032,6.16885-12.70913,18.12865-6.08732-1.44-5.027-9.54333-7.05637-13.79415-6.65714-4.11177-10.84468,6.77883-16.50039,4.7845,5.20288,13.84571-8.3396,11.54659-14.82171,11.73734-8.29212,1.31537-3.74834-12.27289-12.48253-10.40713-3.88315,7.10482,9.61474,8.33272,4.36592,16.02026l-4.27708-2.5667c-3.002-5.29641-5.60164-12.21944-8.99883-15.88976-1.85293.05342-4.6328.13288-4.54305,2.28372,3.79655,2.04626,3.08815,7.44795-.49135,10.77977a15.00911,15.00911,0,0,1-3.43621-4.74386c6.30955-15.79081-7.89814-.29921-13.80182-8.75092C74.967,102.439,84.53283,132.298,69.00677,126.83c3.619-13.56047-10.45558-6.15555-15.74706-10.85-4.14646.65515-5.38354,4.46551-7.98554,8.84671-1.25558-1.36355-4.53312-1.87085-5.214-4.40033,1.00023-17.88494,9.41928-35.29182,20.8446-50.90059C61.27021,69.838,61.58891,70.13963,61.60746,70.51722Z"/>
      </g>
      <g>
        <path class="cls-2" d="M13.68705,110.11685c-.91893-.25939.61361-1.11818,1.90251-2.1622,1.28988-1.04389,2.33568-2.27287.4833-3.26353,1.7173-1.39905,3.76427-.68352,5.85063.34717,2.08458,1.0318,4.20182,2.42215,5.99944,2.438.71035-2.61385.52481-5.236,1.03272-7.55366.50753-2.3254,1.7012-4.31556,5.1385-5.75478,4.3665-.73253,4.1315,2.00505,3.71573,5.1617-.41718,3.15525-1.02707,6.7314,2.63671,7.67346l-5.337.49224A9.3408,9.3408,0,0,0,39.3321,112.632a18.7031,18.7031,0,0,0,6.53348,1.97963c1.20286.17681,2.4422.31135,3.69281.42525,1.25188.10631,2.51309.20378,3.75612.33312a27.43549,27.43549,0,0,1,7.02884,1.47658C64.1264,114.207,67.95972,109.834,71.83188,106.596c3.8835-3.28136,7.79863-5.421,11.87449-3.56912-.36616-.88449-2.20409-3.07015-1.42556-5.81559,1.871-2.33186,4.43184-.68647,5.91014.59139,1.84259,3.2881,1.29337,5.35719.40306,7.21647-.88737,1.85983-2.11235,3.51028-1.55386,5.96909,1.68791,1.7208,3.2946,3.78694,5.19007,5.10187a6.41546,6.41546,0,0,0,6.897.50924l3.8684-5.47,1.91721-2.73674,1.9079-2.75837c1.45828,7.58049,4.3105,7.92176,7.79926,7.0714,1.74516-.4136,3.6564-1.17941,5.6539-1.46366a8.558,8.558,0,0,1,6.2103,1.26859c1.143-3.73232,3.797-2.782,6.46874-1.82684,2.66887.95527,5.35579,1.91138,6.43952-1.85042,2.06579.22035,2.54392-4.94768,2.96309-10.84767.41848-5.90491.78882-12.56257,2.56748-15.38006,2.9652-2.29057,2.01976-3.21845,1.08823-4.14577-.93578-.9276-1.85766-1.85478,1.081-4.14787-2.97411-1.66561-3.73059,3.40747-4.77244,8.51735-1.03749,5.11845-2.36714,10.23634-6.47885,8.6623l.58683-2.78828c-1.57647-2.31922-3.979-1.36044-6.23442-.81876-2.251.52327-4.34866.60894-5.22-3.38557-4.51727.45516-4.71451,3.195-4.3756,6.56328.33481,3.36816,1.223,7.36646-1.26528,10.32777a12.6158,12.6158,0,0,0-2.75676-4.45993c-1.2202-1.38544-2.64528-2.7102-3.98535-4.12611-2.68221-2.8321-5.01491-6.02807-4.72328-10.8075l6.89932.75669c-1.09732-.35784-.05432-2.26037-.4341-3.13306-1.39526,2.16206-3.024,1.39667-4.64092-.52721A51.57375,51.57375,0,0,1,105.088,71.5615c-1.38606-2.49869-2.56006-4.3876-3.36485-3.90182-.80265.48606-1.247,3.34554-1.12169,10.34925.73092,1.75872,3.25229,1.11958,3.65265,4.25966-1.01741,6.40951-5.43935,2.67593-9.07041,2.90878-1.458-3.53444-2.88961-8.19941-4.70243-11.5913a10.364,10.364,0,0,0-3.06951-3.83441,3.73805,3.73805,0,0,0-4.00154-.183c-2.17853,1.4638-1.53409,5.49763-3.72841,6.96129a13.56634,13.56634,0,0,0-3.60322-2.16683,6.66648,6.66648,0,0,0-2.97376-.47975,10.85443,10.85443,0,0,0-5.02039,2.15828c-.809.53282-1.62889,1.09472-2.4962,1.59918a12.86171,12.86171,0,0,1-2.77568,1.22308,10.2753,10.2753,0,0,1-7.25246-.6852,14.77608,14.77608,0,0,1-6.64576,2.79994,30.8154,30.8154,0,0,1-6.56562.17316,33.66426,33.66426,0,0,0-6.57723.12288,15.35646,15.35646,0,0,0-6.756,2.64c2.27931-5.45972-4.56905-3.57615-6.29264-3.15076a11.26427,11.26427,0,0,1-4.30575,3.40762,7.44926,7.44926,0,0,1-2.75.72256,3.5282,3.5282,0,0,1-2.40427-.74362c1.77745.52678.1264,2.85934,1.08575,4.55641-3.1758-2.11656-5.54589-1.05245-7.33958,1.18432-1.79135,2.2372-2.99446,5.64959-3.78129,8.2414,2.32945,2.338,3.15676,5.76025,4.29679,8.39012a7.23147,7.23147,0,0,0,2.16951,3.1155A4.63147,4.63147,0,0,0,13.68705,110.11685Z"/>
        <path class="cls-2" d="M161.58678,115.77894c-.26708-2.94038.36539-4.62045,1.36264-5.69537a6.02256,6.02256,0,0,1,1.70736-1.24008c.61783-.3254,1.26244-.5817,1.86837-.84966,2.42977-1.07183,4.21261-2.33059,1.22579-8.94528,4.33834-2.10785,6.23718.03581,8.60285,3.518-5.00652,3.96811,1.185,1.73765-1.55351,6.92337.99277.3841,1.98424.76343,2.97479,1.08784q1.48572.49168,2.96745.91932,2.96322.85611,5.90733,1.47292,1.47177.31051,2.938.56682c.97742.17091,1.95294.33,2.92629.44463q2.92022.364,5.81507.54195,2.89451.18243,5.76187.20533.71672.00231,1.43181.00449.71472-.0177,1.42781-.03525,1.426-.0434,2.84495-.11783,2.83784-.14746,5.64717-.40109c1.87272-.17064,3.73691-.347,5.58958-.60642a16.218,16.218,0,0,1,7.9298-3.9705,14.34165,14.34165,0,0,1,3.92524-.08834,18.45336,18.45336,0,0,1,3.93644.86328,38.15963,38.15963,0,0,1,8.01322,3.96657c1.35872.85373,2.72789,1.736,4.11406,2.671,1.38593.9321,2.78776,1.90155,4.20749,2.87578,3.16789-1.89874,3.48725-4.94276,2.7814-8.27566-.70757-3.33277-2.43167-6.95526-3.40723-10.007,2.69184-.30209,5.38539-.574,8.0709-.93-2.93851-2.20939-5.85982-4.5067-8.75385-6.77451-.61207-4.5022,2.98068-5.10075,4.68164-8.60668l2.33428.95948c-2.251-10.39714-6.133-9.98242-10.53066-7.631-4.3828,2.38423-9.34494,6.54067-13.30609,3.71742,4.58295.44576,4.34922,2.20026,3.466,4.33986-.88,2.13931-2.42,4.66454-.346,6.64544l-2.84256.88772c1.29169.03384,3.29635,1.45228,5.83841,2.96284a33.73956,33.73956,0,0,0,4.1886,2.16923,17.628,17.628,0,0,0,4.83051,1.27083,49.28562,49.28562,0,0,1-13.91338.94109q-1.73809-.11271-3.46857-.3247c-1.153-.13707-2.30468-.343-3.45059-.55782-2.29239-.4393-4.56614-.996-6.812-1.65241q-1.68432-.49231-3.34666-1.05723c-1.10789-.37666-2.2088-.805-3.3-1.23769-2.18264-.873-4.32866-1.82725-6.43026-2.84474a107.4,107.4,0,0,1-12.02293-6.84641c.45291,1.32139,1.66013,3.01972.311,4.52116-2.71686.2761-4.90241-2.45628-6.67988-5.69832-1.78021-3.26367-3.158-7.0155-4.326-8.73617l2.34716,3.44133c-1.65834,2.42075-3.86271,1.81237-6.13112.47117-1.13478-.67074-2.28649-1.52447-3.40154-2.27455a12.027,12.027,0,0,0-3.18755-1.67207c-2.21224,2.65528-4.083,5.5142-6.325,7.20537-2.23983,1.69033-4.85927,2.23144-8.51483.143l.10961,4.52425-6.13063,2.148c1.47293.8328.78478,2.68744.43171,3.61139.39148,1.33881.74.41514,1.82719-.10041a33.39037,33.39037,0,0,1-2.0777,11.18009,34.78578,34.78578,0,0,1-4.95985,9.5979c1.1154-.48311,2.22877-1.00148,2.98749-.58212-1.47254,1.452-4.72466,3.25285-7.05756,5.61111-2.32849,2.35348-3.7439,5.23992-1.42824,8.79346,4.194.07387,6.41853-3.73554,8.5201-7.37376C155.83937,118.225,157.81837,114.83252,161.58678,115.77894Z"/>
        <path class="cls-2" d="M128.18646,83.26388c3.00589-1.66841,2.67551-2.89543,1.80858-4.2723-.86886-1.3867-2.2735-2.94361-1.46907-5.29793l-5.04205-.8328C122.92635,77.90107,127.99452,78.74525,128.18646,83.26388Z"/>
        <path class="cls-2" d="M290.17474,117.12842c.01068-4.17231,4.10339-2.71034,6.14032-4.07512,4.71985,2.66413,6.45094,7.38246,12.37312,4.192-3.30292-5.77487-2.53026-9.652-.58535-13.142,1.94881-3.50045,5.09261-6.59236,6.65917-10.70624-1.6253-.53985-4.089-2.39393-6.6058-3.24162a6.17319,6.17319,0,0,0-3.734-.23482,5.72925,5.72925,0,0,0-3.29726,2.98462c1.06979,3.47587-2.90941,6.24154-4.90941,7.62557-2.04178-2.79011-1.98209-7.44679-3.12-11.4958-1.13552-4.05012-3.44676-7.5017-10.12475-7.92484a4.3074,4.3074,0,0,1-2.21589,1.07618c-.87775.1983-1.83263.31571-2.68386.57271-1.70188.51359-2.99434,1.58093-2.43764,4.93644-1.42321,2.59448-3.87535-5.70478-5.14334.0934l-.64915,2.907,8.71647,3.36141c.20065-.97184.61709-2.90288,1.41131-2.59742-.51745,2.40376,2.0126,4.70471,4.13751,7.42614,2.12035,2.73562,3.85309,5.9632,1.60147,10.37538-1.93052.18931-3.86731.32048-5.8012.47356l-5.80186.44617c-2.51,3.26311,1.89372,7.02309,6.21654,7.56518C285.92073,112.50418,285.6599,113.43627,290.17474,117.12842Z"/>
        <polygon class="cls-2" points="259.668 104.536 259.204 106.468 269.496 107.367 259.668 104.536"/>
        <path class="cls-2" d="M328.58445,114.23888c-2.34336-1.74636-3.679.93378-6.006-.81342l1.138,8.59643Q326.17467,118.1268,328.58445,114.23888Z"/>
        <path class="cls-2" d="M219.598,76.26369c-1.44965-3.90477-3.75078-4.77479-5.9917-5.47573-2.23945-.70009-4.419-1.23516-5.56993-4.51947,1.75068-.214,1.19647,1.67431,1.66354,2.99472l-3.33866,2.68408a9.04472,9.04472,0,0,0,6.46958,3.72978c1.08468.12682,2.1806.12387,3.303.16783.56123.02177,1.12916.056,1.70591.1226A12.51933,12.51933,0,0,1,219.598,76.26369Z"/>
        <path class="cls-2" d="M348.54726,109.79763a9.528,9.528,0,0,1,4.65254,1.25736c1.39021.72663,2.66105,1.63288,3.93553,2.35263,2.54413,1.43038,5.11747,2.11755,8.59278-1.0686,1.21108-2.746-3.02183-3.81559-.96194-6.34547,2.04009-2.52509,3.37307.85317,4.95856,2.26978l-.35686,2.95878c.35847-2.95906,1.79643-5.89452,2.48809-9.13572a14.27779,14.27779,0,0,0-1.92043-10.986,7.36668,7.36668,0,0,1-6.75113-.15743,36.1131,36.1131,0,0,1-6.32917-4.182c-2.00548-1.504-3.88771-2.82156-5.61575-3.09753-1.7288-.27568-3.30116.49646-4.71721,3.13124l.46148,9.29764-4.96059-1.43024c-.13363.98743.41282,3.18868-1.24078,2.71792-3.83944-3.16353,1.52664-4.67115.42089-9.0749-3.2287-1.26494-6.45223-2.61062-9.65074-3.93047-.95916.7286,1.33965,2.45628,1.19458,3.43233-1.66006,2.56316-3.7242.65824-5.61887-.82648-1.90239-1.502-3.6353-2.57706-4.742,1.68681,2.05916,1.34316,4.1306,2.69307,6.21012,4.02541-6.3324,2.09-10.56647,6.94767-14.7233,10.7238a10.97477,10.97477,0,0,1,4.73456-.40376,16.3763,16.3763,0,0,1,4.57656,1.29541,73.388,73.388,0,0,1,8.83174,5.06817C337.76441,112.87452,343.35628,115.52924,348.54726,109.79763Z"/>
      </g>
      <path class="cls-1" d="M160.74558,60.53228c-2.16027-2.54789-4.89877-3.67156-8.35113-.97639.81856-1.73118-.45117-3.88283.269-4.96573a4.05639,4.05639,0,0,1-1.98987.52117,8.08952,8.08952,0,0,1-3.14617-.69647A12.86013,12.86013,0,0,1,142.4619,50.625c-1.97018-.40393-9.81-2.23821-6.90441,4.10333a17.93451,17.93451,0,0,0-2.42579-1.33153,22.9967,22.9967,0,0,1-3.88431,5.69961c-4.32452,4.63232-10.67322,6.74445-16.88942,6.80846a8.89366,8.89366,0,0,1-8.78353-8.78353,22.66459,22.66459,0,0,1,1.16342-7.29837c.01287-.03574.02681-.07107.03983-.10678a10.87111,10.87111,0,0,1-7.65028.99365,14.17733,14.17733,0,0,1-3.20575-1.28852c-1.00918-.54765-1.96842-1.16616-2.91358-1.75084-1.8906-1.16969-3.724-2.20454-5.795-2.26663a7.19833,7.19833,0,0,0-3.32477.74233,15.18461,15.18461,0,0,0-3.93125,2.7797c-2.5648-1.60772-2.08522-6.42887-4.63217-8.03768a4.05029,4.05029,0,0,0-4.5022.45037,12.20659,12.20659,0,0,0-3.227,4.72608c-1.83677,4.128-3.16554,9.74354-4.59327,14.01991-4.10985-.06437-8.86854,4.621-10.40907-2.92043.259-3.747,3.14211-3.13617,3.85873-5.26439-.28812-8.31271-.96461-11.67776-1.8998-12.20733-.9375-.52914-2.1458,1.77931-3.55606,4.82325-1.40911,3.03971-3.021,6.83733-4.73043,9.19974-1.70581,2.37574-3.49593,3.37837-5.20228.89584-.37489,1.057.9182,3.25236-.29753,3.74069l7.73552-1.29969c.622,5.65073-1.81318,9.57675-4.66487,13.09164-1.42466,1.75724-2.9508,3.41133-4.24212,5.12543a15.12661,15.12661,0,0,0-2.836,5.44961c-2.98809-3.36658-2.23149-8.15981-2.06032-12.17349.17569-4.0141-.21475-7.25165-5.33776-7.528-.738,4.78775-3.10925,4.80851-5.68025,4.31924-2.57713-.51082-5.34588-1.50768-6.98176,1.33453l.83279,3.27228c-4.48382,2.0798-6.3081-3.73524-7.78208-9.66691a15.93049,15.93049,0,0,1-2.37494.80469C7.09125,64.78964,7.83353,71.766,8.58147,78.0245c.83463,6.97211,1.69072,13.07278,4.0073,12.691,1.453,4.39776,4.425,3.10726,7.37679,1.81879,2.955-1.28845,5.8901-2.57022,7.40819,1.78913a9.27985,9.27985,0,0,1,6.92693-1.86656,65.45009,65.45009,0,0,1,6.46695,1.406c3.98715.80494,7.18333.23392,8.36337-8.84053l2.3211,3.15976,2.33022,3.13359,4.69864,6.261a6.95645,6.95645,0,0,0,7.74809-1.00611c2.05733-1.66987,3.74285-4.21372,5.54117-6.35279.47912-2.94837-1.00374-4.83413-2.11861-6.98789-1.11823-2.15292-1.86457-4.57454.01218-8.58123,1.589-1.60157,4.37652-3.70212,6.62985-1.046,1.04647,3.21031-.89254,5.90938-1.25135,6.97962,4.48375-2.43372,9.03091-.12478,13.61237,3.54,4.566,3.614,9.15781,8.57617,13.58664,11.48569a29.683,29.683,0,0,1,7.83746-2.16092c1.3941-.22589,2.81064-.415,4.21615-.61409,1.40368-.208,2.79326-.43984,4.13919-.71966a20.37663,20.37663,0,0,0,7.24782-2.72858,10.97878,10.97878,0,0,0,4.44782-6.33767l-6.05-.2725c4.0747-1.33082,3.16754-5.53606,2.50353-9.2534-.66255-3.71911-1.09541-6.9518,3.87458-6.33777,3.96526,1.50626,5.43365,3.79671,6.14865,6.5247.715,2.71881.66654,5.83913,1.628,8.89737,2.02655-.12367,4.32942-1.89589,6.61744-3.24105,2.29-1.34392,4.555-2.31182,6.57769-.75289-2.02854,1.28281-.7736,2.67922.74526,3.8419,1.51779,1.1629,3.299,2.09193,2.27844,2.45312a5.01513,5.01513,0,0,0,4.47456-.80045,8.59735,8.59735,0,0,0,2.256-3.82108c1.12467-3.18513,1.848-7.29166,4.332-10.20009C164.46951,67.05728,162.90332,63.08083,160.74558,60.53228Z"/>
      <path class="cls-1" d="M161.36057,111.19747a8.59823,8.59823,0,0,0-2.55217-3.63,5.01512,5.01512,0,0,0-4.524-.4428c1.046.27906-.65588,1.34652-2.07656,2.62622-1.42182,1.27957-2.562,2.77118-.438,3.88894-1.8926,1.71455-4.22725.92947-6.61675-.22846-2.3875-1.15932-4.82379-2.74319-6.85378-2.7056-.7157,3.12489-.41969,6.23152-.91666,8.9985-.49628,2.77612-1.77826,5.17588-5.6114,6.99212-4.90559,1.00654-4.73059-2.25029-4.36542-6.01026.36692-3.75832.93749-8.0223-3.23-9.02552l6.00927-.75179a10.97868,10.97868,0,0,0-4.93676-5.96468,20.37719,20.37719,0,0,0-7.4415-2.14474c-1.36393-.17211-2.76753-.29292-4.18322-.38887-1.41693-.08688-2.844-.163-4.25162-.27751a29.68378,29.68378,0,0,1-7.98427-1.53207c-4.18391,3.25184-8.36744,8.56285-12.63222,12.5278-4.27612,4.01681-8.62569,6.67936-13.28841,4.60917.44259,1.0384,2.58969,3.57505,1.80138,6.85829-2.03543,2.8266-4.98086.95392-6.692-.51646-2.18876-3.84512-1.637-6.31834-.69318-8.55322.94048-2.23546,2.26894-4.23294,1.5573-7.134-1.96245-1.9896-3.84455-4.39165-6.02788-5.893a6.95639,6.95639,0,0,0-7.80345-.388l-4.187,6.61418-2.07419,3.30865-2.063,3.334c-1.8965-8.95216-5.12791-9.26773-9.03856-8.14886a65.45562,65.45562,0,0,1-6.33491,1.91479,9.27976,9.27976,0,0,1-7.05329-1.31087c-1.16733,4.46607-4.19494,3.42132-7.24292,2.37144-3.04461-1.05012-6.1096-2.10069-7.20907,2.39855-2.33956-.19672-2.70886,5.95265-2.98732,12.969-.16007,4.04912-.29456,8.39325-.74626,11.99909.17844.09749.35444.20218.52645.3166a8.63786,8.63786,0,0,1,1.202-1.53295,8.00937,8.00937,0,0,1,1.31315-1.06631,9.83945,9.83945,0,0,1,.54024-2.92694c-.00184-.03595-.00536-.0708-.007-.10695a8.838,8.838,0,0,1,2.57269-6.21092,8.93842,8.93842,0,0,1,6.21084-2.57261c2.03168,0,4.86522.93374,6.21084,2.57261a12.99484,12.99484,0,0,1,2.33466,4.068,8.92231,8.92231,0,0,1,1.55424,3.92145,8.60822,8.60822,0,0,1-1.64645,6.383c-.02573.08914-.05729.17553-.08578.26334.03064.11591.061.23309.08991.35555,5.08488-.68208,5.21722-3.9404,4.72339-7.92791-.48908-3.98742,2.92452-8.70629,4.34727-7.09124,1.42335,1.60621,3.07593,3.13395,4.63554,4.77252,3.12165,3.27751,5.86076,6.99784,5.68921,12.68016l-7.81425-.68166c1.25065.39033.13594,2.68133.59346,3.70529,1.50393-2.61014,3.368-1.75276,5.257.48012,1.89153,2.21928,3.79976,5.877,5.44575,8.79524,1.64729,2.92246,3.035,5.12769,3.92765,4.52583.89009-.60216,1.29745-4.01025.92486-12.31963-.88327-2.06461-.23834-1.1478-.794-4.86247.93718-7.63994,1.55477,2.89994,5.64655,2.50958,1.76263,4.14957,4.56041,3.31589,6.719,7.28512a12.20594,12.20594,0,0,0,3.592,4.45507,4.05024,4.05024,0,0,0,4.52372.09163c2.41124-1.8059,1.55057-6.57378,3.97965-8.38a15.18423,15.18423,0,0,0,4.13949,2.45891c.03676.01383.07238.02455.109.03776a16.91608,16.91608,0,0,1,2.37984-8.22889,15.771,15.771,0,0,1,10.621-7.2461,23.42478,23.42478,0,0,1,14.10635,2.14128,23.13741,23.13741,0,0,1,6.16573,4.219c1.49313-.09818,2.98511-.0793,4.47486-.03974a36.17218,36.17218,0,0,0,7.4216-.3523,16.85278,16.85278,0,0,0,7.5403-3.34564c-2.39317,6.55215,5.27642,4.10143,7.20831,3.54239a12.86092,12.86092,0,0,1,4.74873-4.17993,8.08982,8.08982,0,0,1,3.08091-.944,4.05629,4.05629,0,0,1,2.02494.3616c-.80377-1.02231.29126-3.268-.66216-4.92871,3.65531,2.41262,6.296,1.07519,8.24727-1.63611,1.94859-2.71177,3.19434-6.8,3.99712-9.90112C163.78138,118.31946,162.73445,114.28331,161.36057,111.19747Z"/>
      <path class="cls-1" d="M35.67026,106.02422c-3.95951-2.24285-4.78412,2.42491-7.17732,3.61818-.02406,5.91118,3.51236,10.09941-2.70888,13.98855-3.68883-6.24822-7.78007-7.6096-12.13751-7.65114-4.3694-.04346-7.85014,1.23881-12.59444.50189.36607-1.83167-1.20737-5.14017-.6516-7.98291a6.73288,6.73288,0,0,1,1.79379-3.66523,6.24873,6.24873,0,0,1,4.60874-1.5129c2.71612,2.89066,7.48561.61331,9.8771-.53457-1.54143-3.44142-5.98641-5.89939-9.20886-9.16408-3.2248-3.263-5.24754-7.317-2.04253-13.87365A4.698,4.698,0,0,0,7.6451,78.22967c.66188-.72469,1.28876-1.56615,1.992-2.234,1.40567-1.3354,3.115-1.98382,5.99413.35564,3.22708.05231-3.31332-6.75282,2.86581-4.82348l3.1052.95456-1.5214,10.075c-1.02928-.33463-3.084-.98273-3.22344-.06518,2.55725.80765,3.3715,4.44763,4.80295,7.93076,1.44736,3.48647,3.57022,6.87127,8.96711,7.12009,1.22184-1.72716,2.392-3.49167,3.58129-5.24159l3.55571-5.257c4.44752-.6165,5.63261,5.58685,3.81206,9.97595C33.58534,99.49605,34.60945,99.7522,35.67026,106.02422Z"/>
      <path class="cls-1" d="M193.6285,108.455a10.39184,10.39184,0,0,0,5.04084-1.48993c1.49726-.82784,2.85977-1.84848,4.231-2.66586,2.73747-1.62468,5.52578-2.43975,9.39661.94547,1.39073,2.9632-3.19735,4.23766-.88663,6.94349,2.289,2.70113,3.65608-1.01651,5.34863-2.60167l-.46476-3.217c.46652,3.21729,2.10948,6.38126,2.94652,9.89768a15.57236,15.57236,0,0,1-1.8131,12.02789c-2.51358-1.22914-4.98573-.8056-7.35719.34426a39.38806,39.38806,0,0,0-6.79421,4.72174c-2.14825,1.69115-4.1669,3.176-6.044,3.521-1.878.3448-3.61218-.45691-5.22356-3.29359l.26547-10.14965-5.37231,1.68631c-.171-1.07324.3686-3.48738-1.4224-2.93181-4.10551,3.54758,1.784,5.05424.691,9.88422-3.48813,1.4618-6.96857,3.01151-10.42237,4.53241-1.06447-.76992,1.39791-2.7125,1.21477-3.77305-1.87561-2.75234-4.07758-.6225-6.10551,1.04483-2.0359,1.68637-3.89793,2.90289-5.21361-1.718,2.21089-1.51718,4.435-3.042,6.66839-4.54795-6.95809-2.117-11.699-7.30537-16.328-11.31646a11.9695,11.9695,0,0,0,5.17274.3192,17.86049,17.86049,0,0,0,4.957-1.52949,80.04,80.04,0,0,0,9.50026-5.752C181.79255,105.37575,187.82187,102.33816,193.6285,108.455Z"/>
      <g>
        <path class="cls-3" d="M130.39819,105.54438c-11.11666.21658-5.95507,14.20292-16.5814,12.64976,1.47757-5.30951-3.608-9.90819-7.15278-10.43183-3.515,3.00863-7.57636.74217-10.60458.80771-2.03349-1.1446-1.57942-7.60754,2.46826-7.68941C108.2152,111.84752,121.2212,95.15937,130.39819,105.54438Z"/>
        <path class="cls-3" d="M63.2383,112.37554c-3.53528.65806-11.641-2.70576-11.69716-9.74538-.50788-.58175.475-4.1227-1.539-2.90649C53.05469,102.00665,62.15563,103.00615,63.2383,112.37554Z"/>
        <path class="cls-3" d="M28.34534,108.94872c-5.072-2.24791,5.50837-6.5604-.56617-7.6235l3.53234-.64787,1.07481,8.19239Z"/>
        <path class="cls-3" d="M20.70722,101.47273c-1.50763,1.78972-3.01874,2.40349-5.55865.69l1.498-2.96415C17.64262,98.00545,18.68592,101.50937,20.70722,101.47273Z"/>
        <path class="cls-3" d="M206.653,97.82979c2.03732,2.30608,4.55151.50238,6.05259-1.29058l-1.03312-2.332Z"/>
        <path class="cls-3" d="M176.297,93.73118c-2.46574,7.67661,1.54754,4.07278,5.63643,9.8693,5.57028,1.65049,11.58912-4.34357,17.15577-3.86222l3.50477-4.1774C196.00057,92.757,184.35566,90.04849,176.297,93.73118Z"/>
      </g>
      <g>
        <path class="cls-3" d="M241.4471,103.3485c-11.11666.21658-5.95507,14.20292-16.5814,12.64976,1.47757-5.30951-3.608-9.90819-7.15278-10.43183-3.515,3.00863-7.57637.74217-10.60458.80771-2.03349-1.1446-1.57942-7.60755,2.46826-7.68941C219.26411,109.65163,232.27011,92.96349,241.4471,103.3485Z"/>
        <path class="cls-3" d="M205.657,115.19881c-3.53529.65807-11.641-2.70575-11.69716-9.74537-.50788-.58175.475-4.1227-1.539-2.9065C195.47335,104.82993,204.57429,105.82943,205.657,115.19881Z"/>
        <path class="cls-3" d="M170.764,111.772c-5.072-2.24792,5.50836-6.5604-.56617-7.6235l3.53234-.64788,1.07481,8.1924Z"/>
        <path class="cls-3" d="M163.12587,104.296c-1.50762,1.78972-3.01873,2.40349-5.55864.69l1.498-2.96414C160.06128,100.82873,161.10458,104.33264,163.12587,104.296Z"/>
        <path class="cls-3" d="M349.07167,100.65306c2.03732,2.30609,4.55151.50239,6.05259-1.29057l-1.03311-2.332Z"/>
        <path class="cls-3" d="M318.71566,96.55446c-2.46575,7.67661,1.54753,4.07277,5.63643,9.8693,5.57028,1.65048,11.58912-4.34357,17.15577-3.86222l3.50476-4.1774C338.41923,95.58022,326.77432,92.87176,318.71566,96.55446Z"/>
      </g>
    </g>
  </g>
</svg>
