<svg xmlns="http://www.w3.org/2000/svg" width="200" height="100" viewBox="0 0 200 100">
  <metadata><?xpacket begin="﻿" id="W5M0MpCehiHzreSzNTczkc9d"?>
<x:xmpmeta xmlns:x="adobe:ns:meta/" x:xmptk="Adobe XMP Core 5.6-c138 79.159824, 2016/09/14-01:09:01        ">
   <rdf:RDF xmlns:rdf="http://www.w3.org/1999/02/22-rdf-syntax-ns#">
      <rdf:Description rdf:about=""/>
   </rdf:RDF>
</x:xmpmeta>
                                                                                                    
                                                                                                    
                                                                                                    
                                                                                                    
                                                                                                    
                                                                                                    
                                                                                                    
                                                                                                    
                                                                                                    
                                                                                                    
                                                                                                    
                                                                                                    
                                                                                                    
                                                                                                    
                                                                                                    
                                                                                                    
                                                                                                    
                                                                                                    
                                                                                                    
                                                                                                    
                           
<?xpacket end="w"?></metadata>
<defs>
    <style>
      .cls-1 {
        fill: #fff;
        fill-rule: evenodd;
      }
    </style>
  </defs>
  <path class="cls-1" d="M200.027,83.023h-4.006V48.012h4.006V83.023Zm-31.012,0h-6.042V48.012h6.042V83.023Zm-33.042,0h-5.988V48.012h5.988V83.023ZM116.5,31.985a13.853,13.853,0,0,0,6.5-1.429V17.951c0-2.574-2.909-17.974-6.5-17.974s-6.5,15.4-6.5,17.974V30.557A13.855,13.855,0,0,0,116.5,31.985Zm-0.2,56.049c4.5,0,8.313-1.546,9.7-3.32V48.006h-0.007a17.3,17.3,0,0,0-3-7.568V35.6a19.305,19.305,0,0,1-6.7,1.122A17.076,17.076,0,0,1,110,35.6v4.838a17.3,17.3,0,0,0-3,7.568h-0.006V84.715C108.382,86.488,111.8,88.035,116.3,88.035Zm0,5.663a17.541,17.541,0,0,1-9.306-2.381v5.016h0.034c0.395,2.05,4.394,3.661,9.272,3.661s9.272-1.611,9.666-3.661H126V91.317A19.047,19.047,0,0,1,116.3,93.7Zm33.2-61.713a13.853,13.853,0,0,0,6.5-1.429V17.951c0-2.574-2.909-17.974-6.5-17.974s-6.5,15.4-6.5,17.974V30.557A13.855,13.855,0,0,0,149.5,31.985Zm-0.2,56.049c4.5,0,8.313-1.546,9.7-3.32V48.006h-0.007a17.3,17.3,0,0,0-3-7.568V35.6a19.305,19.305,0,0,1-6.695,1.122A17.076,17.076,0,0,1,143,35.6v4.838a17.3,17.3,0,0,0-3,7.568h-0.006V84.715C141.382,86.488,144.8,88.035,149.3,88.035Zm0,5.663a17.541,17.541,0,0,1-9.306-2.381v5.016h0.034c0.4,2.05,4.394,3.661,9.272,3.661s9.272-1.611,9.666-3.661H159V91.317A19.047,19.047,0,0,1,149.3,93.7Zm33.2-61.713a13.853,13.853,0,0,0,6.5-1.429V17.951c0-2.574-2.909-17.974-6.5-17.974s-6.5,15.4-6.5,17.974V30.557A13.855,13.855,0,0,0,182.5,31.985Zm-0.2,56.049c4.5,0,8.313-1.546,9.7-3.32V48.006h-0.007a17.3,17.3,0,0,0-3-7.568V35.6a19.305,19.305,0,0,1-6.695,1.122A17.076,17.076,0,0,1,176,35.6v4.838a17.3,17.3,0,0,0-3,7.568h-0.006V84.715C174.382,86.488,177.8,88.035,182.3,88.035Zm0,5.663a17.541,17.541,0,0,1-9.306-2.381v5.016h0.034c0.4,2.05,4.394,3.661,9.272,3.661s9.272-1.611,9.666-3.661H192V91.317A19.047,19.047,0,0,1,182.3,93.7ZM103.027,83.023H97.021V48.012h6.006V83.023Zm-99.056,0h-4V48.012h4V83.023Zm66.045,0H63.973V48.012h6.042V83.023Zm-33.042,0H30.985V48.012h5.989V83.023ZM17.5,31.985A13.852,13.852,0,0,0,24,30.557V17.951c0-2.574-2.909-17.974-6.5-17.974S11,15.377,11,17.951V30.557A13.853,13.853,0,0,0,17.5,31.985ZM17.3,88.035c4.5,0,8.313-1.546,9.7-3.32V48.006H26.995a17.3,17.3,0,0,0-3-7.568V35.6A19.3,19.3,0,0,1,17.3,36.722,17.071,17.071,0,0,1,11,35.6v4.838a17.3,17.3,0,0,0-3,7.568H7.994V84.715C9.382,86.488,12.8,88.035,17.3,88.035Zm0,5.663a17.544,17.544,0,0,1-9.306-2.381v5.016H8.028c0.394,2.05,4.393,3.661,9.272,3.661s9.272-1.611,9.666-3.661H27V91.317A19.048,19.048,0,0,1,17.3,93.7ZM50.5,31.985A13.852,13.852,0,0,0,57,30.557V17.951c0-2.574-2.909-17.974-6.5-17.974S44,15.377,44,17.951V30.557A13.853,13.853,0,0,0,50.5,31.985ZM50.3,88.035c4.5,0,8.313-1.546,9.7-3.32V48.006H59.995a17.3,17.3,0,0,0-3-7.568V35.6A19.3,19.3,0,0,1,50.3,36.722,17.071,17.071,0,0,1,44,35.6v4.838a17.3,17.3,0,0,0-3,7.568H40.994V84.715C42.382,86.488,45.8,88.035,50.3,88.035Zm0,5.663a17.544,17.544,0,0,1-9.306-2.381v5.016h0.035c0.395,2.05,4.393,3.661,9.272,3.661s9.272-1.611,9.666-3.661H60V91.317A19.048,19.048,0,0,1,50.3,93.7ZM83.5,31.985A13.852,13.852,0,0,0,90,30.557V17.951c0-2.574-2.909-17.974-6.5-17.974S77,15.377,77,17.951V30.557A13.853,13.853,0,0,0,83.5,31.985ZM83.3,88.035c4.5,0,8.313-1.546,9.7-3.32V48.006H92.995a17.3,17.3,0,0,0-3-7.568V35.6A19.3,19.3,0,0,1,83.3,36.722,17.071,17.071,0,0,1,77,35.6v4.838a17.3,17.3,0,0,0-3,7.568H73.994V84.715C75.382,86.488,78.8,88.035,83.3,88.035Zm0,5.663a17.544,17.544,0,0,1-9.306-2.381v5.016h0.035c0.395,2.05,4.393,3.661,9.272,3.661s9.272-1.611,9.666-3.661H93V91.317A19.048,19.048,0,0,1,83.3,93.7Z"/>
</svg>
