<svg id="ger_hero_medal_alt" data-name="ger hero medal alt" xmlns="http://www.w3.org/2000/svg" xmlns:xlink="http://www.w3.org/1999/xlink" width="25" height="25" viewBox="0 0 25 25">
  <metadata><?xpacket begin="﻿" id="W5M0MpCehiHzreSzNTczkc9d"?>
<x:xmpmeta xmlns:x="adobe:ns:meta/" x:xmptk="Adobe XMP Core 5.6-c138 79.159824, 2016/09/14-01:09:01        ">
   <rdf:RDF xmlns:rdf="http://www.w3.org/1999/02/22-rdf-syntax-ns#">
      <rdf:Description rdf:about=""/>
   </rdf:RDF>
</x:xmpmeta>
                                                                                                    
                                                                                                    
                                                                                                    
                                                                                                    
                                                                                                    
                                                                                                    
                                                                                                    
                                                                                                    
                                                                                                    
                                                                                                    
                                                                                                    
                                                                                                    
                                                                                                    
                                                                                                    
                                                                                                    
                                                                                                    
                                                                                                    
                                                                                                    
                                                                                                    
                                                                                                    
                           
<?xpacket end="w"?></metadata>
<defs>
    <style>
      .cls-1, .cls-2, .cls-3, .cls-4, .cls-5, .cls-6, .cls-9 {
        fill-rule: evenodd;
      }

      .cls-1 {
        fill: url(#linear-gradient);
      }

      .cls-2 {
        fill: #1f1f1f;
      }

      .cls-3 {
        fill: url(#linear-gradient-2);
      }

      .cls-4 {
        fill: #e1e1e1;
      }

      .cls-5 {
        fill: #c33118;
      }

      .cls-6 {
        fill: #f5efd3;
      }

      .cls-7, .cls-9 {
        fill: #efe9ce;
      }

      .cls-8 {
        fill: #1c1c1c;
      }
    </style>
    <linearGradient id="linear-gradient" x1="12.5" y1="24" x2="12.5" y2="11" gradientUnits="userSpaceOnUse">
      <stop offset="0" stop-color="#979480"/>
      <stop offset="1" stop-color="#f5f0d2"/>
    </linearGradient>
    <linearGradient id="linear-gradient-2" x1="12.5" y1="24" x2="12.5" y2="11" gradientUnits="userSpaceOnUse">
      <stop offset="0" stop-color="#aba996"/>
      <stop offset="1" stop-color="#fff"/>
    </linearGradient>
  </defs>
  <path id="Ellipse_1_copy_16" data-name="Ellipse 1 copy 16" class="cls-1" d="M19,18l-6,6H12L6,18V17l6-6h1l6,6v1Z"/>
  <path class="cls-2" d="M9.062,20.062L7,18V17l5-5h1l2.062,2.062Zm6.877-5.123L18,17v1l-5,5H12L9.938,20.938Z"/>
  <path id="Ellipse_1_copy_16-2" data-name="Ellipse 1 copy 16" class="cls-3" d="M13,24H12L6,18V17l6-6h1l6,6v1ZM12.923,12H12.077L7,17.077v0.846l2.185,2.185,5.923-5.923ZM18,17.077l-2.185-2.185L9.892,20.815,12.077,23h0.846L18,17.923V17.077Z"/>
  <path class="cls-2" d="M1,1S9,1,12.5,2C16.031,0.969,24,1,24,1v9s-8,.031-11.469-1C9.063,9.969,1,10,1,10V1Z"/>
  <path class="cls-4" d="M1,2S9.044,2,12.451,3C16.013,2.031,24,2,24,2V9S16.012,9,12.418,8C9.105,9.063,1,9,1,9V2Z"/>
  <path class="cls-5" d="M1,3S9.076,3.063,12.451,4C16.013,3.063,24,3,24,3V8s-8.048-.062-11.516-1C9.077,7.969,1,8,1,8V3Z"/>
  <path class="cls-6" d="M12.5,8A1.5,1.5,0,1,1,11,9.5,1.5,1.5,0,0,1,12.5,8Zm0,1a0.5,0.5,0,1,1-.5.5A0.5,0.5,0,0,1,12.5,9Z"/>
  <circle class="cls-7" cx="12.484" cy="5.484" r="3.609"/>
  <circle class="cls-8" cx="12.5" cy="5.5" r="2.5"/>
  <path class="cls-9" d="M12.714,3.193c0.208-.408.633-0.054,0.554,0.356-0.106.544,0.687,0.588,0.521,0.913C13.5,5.036,14.156,5.341,13.961,5.6c-0.312.409,0.073,0.792-.095,0.856-0.591.224-.121,0.814-0.318,0.822C13.063,7.293,12.915,8,12.507,8S12.3,7.431,11.478,7.3c-0.209-.034.151-0.714-0.338-0.874-0.163-.053.3-0.514-0.088-0.825-0.222-.177.412-0.747,0.169-1.126-0.23-.358,1.078-0.511.672-1.054C11.733,3.2,12.573,3.47,12.714,3.193Z"/>
</svg>
