<?xml version="1.0" encoding="UTF-8" standalone="no"?>
<!DOCTYPE svg PUBLIC "-//W3C//DTD SVG 1.1//EN" "http://www.w3.org/Graphics/SVG/1.1/DTD/svg11.dtd">
<svg width="100%" height="100%" viewBox="0 0 80 80" version="1.1" xmlns="http://www.w3.org/2000/svg" xmlns:xlink="http://www.w3.org/1999/xlink" xml:space="preserve" xmlns:serif="http://www.serif.com/" style="fill-rule:evenodd;clip-rule:evenodd;stroke-linejoin:round;stroke-miterlimit:2;">
    <g transform="matrix(1,0,0,1,-8632,-2949)">
        <g transform="matrix(0.923654,0,0,1.13187,477.217,-202.505)">
            <g id="military_rank_09" transform="matrix(2.17248,0,0,3.95534,-9153.25,-7647.67)">
                <g transform="matrix(0.498351,0,0,0.223368,3893.22,1948.14)">
                    <rect x="8797" y="3086" width="80" height="80" style="fill:none;"/>
                </g>
                <g transform="matrix(1,0,0,1,1.81899e-12,-155.891)">
                    <g transform="matrix(0.544108,0,0,0.28234,3293.53,1525.46)">
                        <path d="M9196,4513L9207,4524L9196,4535L9185,4524L9196,4513Z" style="fill:rgb(27,28,27);"/>
                    </g>
                    <g transform="matrix(0.544108,0,0,0.28234,3293.53,1524.95)">
                        <path d="M9196,4513L9207,4524L9196,4535L9185,4524L9196,4513Z" style="fill:rgb(61,61,61);"/>
                    </g>
                    <g transform="matrix(0.453499,0,0,0.235322,4126.78,1737.66)">
                        <path d="M9196,4513L9207,4524L9196,4535L9185,4524L9196,4513Z" style="fill:rgb(147,146,146);"/>
                    </g>
                    <g transform="matrix(0.415662,0,0,0.212845,4474.62,1839.1)">
                        <path d="M9196.29,4525.1L9208.23,4525.16L9196.23,4537.32L9196.29,4525.1Z" style="fill:rgb(116,116,116);"/>
                    </g>
                    <g transform="matrix(0.415662,0,0,0.212845,4474.67,1839.1)">
                        <path d="M9196.12,4513L9196.17,4525.1L9184.23,4525.16L9196.12,4513Z" style="fill:white;"/>
                    </g>
                    <g transform="matrix(-0.415662,0,0,0.212845,12119.7,1839.1)">
                        <path d="M9196.23,4513L9196.17,4525.1L9184.23,4525.16L9196.23,4513Z" style="fill:rgb(206,206,206);"/>
                    </g>
                    <g transform="matrix(0.361275,0,0,0.184995,4974.77,1965.31)">
                        <path d="M9196,4513L9207,4524L9196,4535L9185,4524L9196,4513Z" style="fill:rgb(189,188,181);"/>
                    </g>
                    <g transform="matrix(0.361275,0,0,0.184995,4974.77,1965.31)">
                        <path d="M9196,4513L9195.81,4524L9185,4524L9196,4513Z" style="fill:rgb(240,240,240);"/>
                    </g>
                    <g transform="matrix(-0.361275,0,0,-0.184995,11619.3,3639.17)">
                        <path d="M9196,4513L9195.81,4524L9185,4524L9196,4513Z" style="fill:rgb(161,161,161);"/>
                    </g>
                </g>
            </g>
        </g>
    </g>
</svg>
