<?xml version="1.0" encoding="UTF-8" standalone="no"?>
<!DOCTYPE svg PUBLIC "-//W3C//DTD SVG 1.1//EN" "http://www.w3.org/Graphics/SVG/1.1/DTD/svg11.dtd">
<svg width="100%" height="100%" viewBox="0 0 80 80" version="1.1" xmlns="http://www.w3.org/2000/svg" xmlns:xlink="http://www.w3.org/1999/xlink" xml:space="preserve" xmlns:serif="http://www.serif.com/" style="fill-rule:evenodd;clip-rule:evenodd;stroke-linejoin:round;stroke-miterlimit:2;">
    <g transform="matrix(1,0,0,1,-8632,-3434)">
        <g transform="matrix(0.923654,0,0,1.13187,477.217,-202.505)">
            <g id="military_rank_14">
                <g transform="matrix(1.08266,0,0,0.883495,-695.301,486.369)">
                    <rect x="8797" y="3086" width="80" height="80" style="fill:none;"/>
                </g>
                <g transform="matrix(1,0,0,1,0.18007,0.441748)">
                    <g transform="matrix(1.08266,0,0,0.883495,-516.662,179.796)">
                        <path d="M8663.43,3465.06C8663.65,3464.92 8663.91,3464.84 8664.2,3464.84C8664.27,3464.84 8664.35,3464.85 8664.43,3464.86C8664.52,3464.84 8664.63,3464.87 8664.77,3464.96C8664.91,3465.02 8665.03,3465.1 8665.14,3465.19C8665.26,3465.28 8665.34,3465.39 8665.39,3465.49C8665.43,3465.53 8665.47,3465.6 8665.5,3465.7C8665.52,3465.76 8665.61,3466.04 8665.63,3466.1C8665.65,3466.14 8665.66,3466.19 8665.67,3466.24L8666.34,3466.72C8666.55,3466.78 8666.83,3466.88 8667.19,3467.08C8667.21,3467.09 8667.25,3467.11 8667.3,3467.14C8667.3,3467.14 8670.57,3457.03 8670.57,3457.03C8670.74,3456.48 8671.26,3456.11 8671.83,3456.11C8672.41,3456.11 8672.92,3456.48 8673.1,3457.03L8676.37,3467.14C8676.42,3467.11 8676.45,3467.09 8676.47,3467.08C8676.72,3466.94 8677.5,3466.47 8678.04,3466.15C8678.04,3466.14 8678.04,3466.13 8678.05,3466.12L8678.03,3466.11L8678.06,3466.01C8678.08,3465.91 8678.11,3465.81 8678.16,3465.72L8678.16,3465.72C8678.35,3465.26 8678.77,3464.92 8679.27,3464.83C8679.35,3464.8 8679.46,3464.79 8679.59,3464.81C8679.74,3464.82 8679.88,3464.84 8680.01,3464.89L8680.05,3464.89C8680.2,3464.92 8680.31,3464.97 8680.39,3465.03L8687.54,3460.7C8687.73,3460.59 8687.96,3460.54 8688.19,3460.57L8688.86,3460.66C8689.15,3460.69 8689.4,3460.85 8689.56,3461.08C8689.72,3461.32 8689.77,3461.61 8689.71,3461.88L8689.54,3462.58C8689.48,3462.82 8689.33,3463.03 8689.12,3463.17C8689.12,3463.17 8684.09,3466.57 8680.83,3468.77C8680.83,3468.77 8689.24,3468.76 8689.24,3468.76C8689.82,3468.76 8690.33,3469.13 8690.51,3469.68C8690.69,3470.23 8690.49,3470.83 8690.02,3471.17C8690.02,3471.17 8682.06,3476.93 8682.06,3476.93C8682.4,3477.11 8682.68,3477.25 8682.85,3477.34C8683.8,3477.83 8683.93,3478.68 8683.9,3479.23C8684.11,3479.56 8684.36,3479.97 8684.58,3480.28L8684.59,3480.3C8684.79,3480.34 8685.04,3480.42 8685.37,3480.58C8686.01,3480.89 8688.9,3482.86 8689.96,3484.01C8690.28,3484.36 8690.47,3484.68 8690.56,3484.91C8690.68,3485.24 8690.69,3485.54 8690.64,3485.78L8690.64,3485.78C8690.58,3486.08 8690.44,3486.39 8690.13,3486.74C8689.96,3486.94 8689.69,3487.19 8689.33,3487.56C8689.33,3487.56 8689.33,3487.56 8689.33,3487.56C8689.06,3487.84 8688.96,3488.09 8688.84,3488.26C8688.57,3488.66 8688.26,3488.92 8687.79,3489.08C8687.79,3489.08 8687.79,3489.08 8687.79,3489.08C8687.52,3489.16 8687.18,3489.2 8686.76,3489.04C8686.57,3488.96 8686.28,3488.78 8685.96,3488.48C8685.01,3487.59 8683.15,3485.11 8682.59,3484.43C8682.32,3484.1 8681.94,3483.62 8681.58,3483.16L8683.86,3490.14C8684.04,3490.69 8683.84,3491.3 8683.37,3491.64C8682.91,3491.98 8682.27,3491.97 8681.81,3491.63L8671.83,3484.36L8661.86,3491.63C8661.4,3491.97 8660.76,3491.98 8660.29,3491.64C8659.83,3491.3 8659.63,3490.69 8659.81,3490.14L8662.09,3483.16C8661.73,3483.62 8661.35,3484.1 8661.08,3484.43C8660.52,3485.11 8658.65,3487.59 8657.71,3488.48C8657.39,3488.78 8657.1,3488.96 8656.91,3489.04C8656.49,3489.2 8656.14,3489.16 8655.88,3489.08C8655.88,3489.08 8655.88,3489.08 8655.88,3489.08C8655.41,3488.92 8655.1,3488.66 8654.83,3488.26C8654.71,3488.09 8654.61,3487.84 8654.34,3487.56C8654.34,3487.56 8654.34,3487.56 8654.34,3487.56C8653.98,3487.19 8653.71,3486.94 8653.53,3486.74C8653.23,3486.39 8653.09,3486.08 8653.03,3485.78C8653.03,3485.78 8653.03,3485.78 8653.03,3485.78C8652.98,3485.54 8652.98,3485.24 8653.11,3484.91C8653.2,3484.68 8653.39,3484.36 8653.71,3484.01C8654.77,3482.86 8657.66,3480.89 8658.3,3480.58C8658.62,3480.42 8658.88,3480.34 8659.07,3480.3L8659.09,3480.28C8659.27,3480.01 8659.49,3479.67 8659.68,3479.38C8659.54,3478.82 8659.75,3478.34 8660.06,3477.96C8660.33,3477.62 8660.7,3477.4 8660.8,3477.35C8660.98,3477.25 8661.27,3477.11 8661.61,3476.93C8661.61,3476.93 8653.65,3471.17 8653.65,3471.17C8653.18,3470.83 8652.98,3470.23 8653.16,3469.68C8653.34,3469.13 8653.85,3468.76 8654.43,3468.76L8662.84,3468.77C8660.36,3467.13 8655.87,3464.15 8654.69,3463.33C8654.46,3463.18 8654.33,3463.07 8654.3,3463.05C8654.13,3462.89 8654.07,3462.76 8654.05,3462.7C8654.02,3462.63 8654,3462.57 8653.98,3462.5L8653.85,3461.84C8653.75,3461.32 8654.08,3460.8 8654.6,3460.68C8654.6,3460.68 8655.21,3460.53 8655.34,3460.5C8655.78,3460.42 8656.05,3460.61 8656.12,3460.66L8663.18,3465.17L8663.43,3465.06ZM8676.14,3481.59L8672.65,3479.04C8672.19,3478.71 8671.58,3478.71 8671.12,3479.04L8667.63,3481.59L8668.97,3477.48C8669.15,3476.94 8668.96,3476.36 8668.5,3476.02L8665,3473.49L8669.32,3473.5C8669.89,3473.5 8670.39,3473.14 8670.56,3472.6L8671.89,3468.49L8673.21,3472.6C8673.39,3473.14 8673.89,3473.5 8674.45,3473.5C8674.45,3473.5 8678.78,3473.49 8678.78,3473.49C8678.78,3473.49 8675.27,3476.02 8675.27,3476.02C8674.81,3476.36 8674.62,3476.94 8674.8,3477.48L8676.14,3481.59Z" style="fill:rgb(27,28,27);"/>
                    </g>
                    <g transform="matrix(1.08266,0,0,0.883495,-516.662,178.913)">
                        <path d="M8663.43,3465.06C8663.65,3464.92 8663.91,3464.84 8664.2,3464.84C8664.27,3464.84 8664.35,3464.85 8664.43,3464.86C8664.52,3464.84 8664.63,3464.87 8664.77,3464.96C8664.91,3465.02 8665.03,3465.1 8665.14,3465.19C8665.26,3465.28 8665.34,3465.39 8665.39,3465.49C8665.43,3465.53 8665.47,3465.6 8665.5,3465.7C8665.52,3465.76 8665.61,3466.04 8665.63,3466.1C8665.65,3466.14 8665.66,3466.19 8665.67,3466.24L8666.34,3466.72C8666.55,3466.78 8666.83,3466.88 8667.19,3467.08C8667.21,3467.09 8667.25,3467.11 8667.3,3467.14C8667.3,3467.14 8670.57,3457.03 8670.57,3457.03C8670.74,3456.48 8671.26,3456.11 8671.83,3456.11C8672.41,3456.11 8672.92,3456.48 8673.1,3457.03L8676.37,3467.14C8676.42,3467.11 8676.45,3467.09 8676.47,3467.08C8676.72,3466.94 8677.5,3466.47 8678.04,3466.15C8678.04,3466.14 8678.04,3466.13 8678.05,3466.12L8678.03,3466.11L8678.06,3466.01C8678.08,3465.91 8678.11,3465.81 8678.16,3465.72L8678.16,3465.72C8678.35,3465.26 8678.77,3464.92 8679.27,3464.83C8679.35,3464.8 8679.46,3464.79 8679.59,3464.81C8679.74,3464.82 8679.88,3464.84 8680.01,3464.89L8680.05,3464.89C8680.2,3464.92 8680.31,3464.97 8680.39,3465.03L8687.54,3460.7C8687.73,3460.59 8687.96,3460.54 8688.19,3460.57L8688.86,3460.66C8689.15,3460.69 8689.4,3460.85 8689.56,3461.08C8689.72,3461.32 8689.77,3461.61 8689.71,3461.88L8689.54,3462.58C8689.48,3462.82 8689.33,3463.03 8689.12,3463.17C8689.12,3463.17 8684.09,3466.57 8680.83,3468.77C8680.83,3468.77 8689.24,3468.76 8689.24,3468.76C8689.82,3468.76 8690.33,3469.13 8690.51,3469.68C8690.69,3470.23 8690.49,3470.83 8690.02,3471.17C8690.02,3471.17 8682.06,3476.93 8682.06,3476.93C8682.4,3477.11 8682.68,3477.25 8682.85,3477.34C8683.8,3477.83 8683.93,3478.68 8683.9,3479.23C8684.11,3479.56 8684.36,3479.97 8684.58,3480.28L8684.59,3480.3C8684.79,3480.34 8685.04,3480.42 8685.37,3480.58C8686.01,3480.89 8688.9,3482.86 8689.96,3484.01C8690.28,3484.36 8690.47,3484.68 8690.56,3484.91C8690.68,3485.24 8690.69,3485.54 8690.64,3485.78L8690.64,3485.78C8690.58,3486.08 8690.44,3486.39 8690.13,3486.74C8689.96,3486.94 8689.69,3487.19 8689.33,3487.56C8689.33,3487.56 8689.33,3487.56 8689.33,3487.56C8689.06,3487.84 8688.96,3488.09 8688.84,3488.26C8688.57,3488.66 8688.26,3488.92 8687.79,3489.08C8687.79,3489.08 8687.79,3489.08 8687.79,3489.08C8687.52,3489.16 8687.18,3489.2 8686.76,3489.04C8686.57,3488.96 8686.28,3488.78 8685.96,3488.48C8685.01,3487.59 8683.15,3485.11 8682.59,3484.43C8682.32,3484.1 8681.94,3483.62 8681.58,3483.16L8683.86,3490.14C8684.04,3490.69 8683.84,3491.3 8683.37,3491.64C8682.91,3491.98 8682.27,3491.97 8681.81,3491.63L8671.83,3484.36L8661.86,3491.63C8661.4,3491.97 8660.76,3491.98 8660.29,3491.64C8659.83,3491.3 8659.63,3490.69 8659.81,3490.14L8662.09,3483.16C8661.73,3483.62 8661.35,3484.1 8661.08,3484.43C8660.52,3485.11 8658.65,3487.59 8657.71,3488.48C8657.39,3488.78 8657.1,3488.96 8656.91,3489.04C8656.49,3489.2 8656.14,3489.16 8655.88,3489.08C8655.88,3489.08 8655.88,3489.08 8655.88,3489.08C8655.41,3488.92 8655.1,3488.66 8654.83,3488.26C8654.71,3488.09 8654.61,3487.84 8654.34,3487.56C8654.34,3487.56 8654.34,3487.56 8654.34,3487.56C8653.98,3487.19 8653.71,3486.94 8653.53,3486.74C8653.23,3486.39 8653.09,3486.08 8653.03,3485.78C8653.03,3485.78 8653.03,3485.78 8653.03,3485.78C8652.98,3485.54 8652.98,3485.24 8653.11,3484.91C8653.2,3484.68 8653.39,3484.36 8653.71,3484.01C8654.77,3482.86 8657.66,3480.89 8658.3,3480.58C8658.62,3480.42 8658.88,3480.34 8659.07,3480.3L8659.09,3480.28C8659.27,3480.01 8659.49,3479.67 8659.68,3479.38C8659.54,3478.82 8659.75,3478.34 8660.06,3477.96C8660.33,3477.62 8660.7,3477.4 8660.8,3477.35C8660.98,3477.25 8661.27,3477.11 8661.61,3476.93C8661.61,3476.93 8653.65,3471.17 8653.65,3471.17C8653.18,3470.83 8652.98,3470.23 8653.16,3469.68C8653.34,3469.13 8653.85,3468.76 8654.43,3468.76L8662.84,3468.77C8660.36,3467.13 8655.87,3464.15 8654.69,3463.33C8654.46,3463.18 8654.33,3463.07 8654.3,3463.05C8654.13,3462.89 8654.07,3462.76 8654.05,3462.7C8654.02,3462.63 8654,3462.57 8653.98,3462.5L8653.85,3461.84C8653.75,3461.32 8654.08,3460.8 8654.6,3460.68C8654.6,3460.68 8655.21,3460.53 8655.34,3460.5C8655.78,3460.42 8656.05,3460.61 8656.12,3460.66L8663.18,3465.17L8663.43,3465.06ZM8676.14,3481.59L8672.65,3479.04C8672.19,3478.71 8671.58,3478.71 8671.12,3479.04L8667.63,3481.59L8668.97,3477.48C8669.15,3476.94 8668.96,3476.36 8668.5,3476.02L8665,3473.49L8669.32,3473.5C8669.89,3473.5 8670.39,3473.14 8670.56,3472.6L8671.89,3468.49L8673.21,3472.6C8673.39,3473.14 8673.89,3473.5 8674.45,3473.5C8674.45,3473.5 8678.78,3473.49 8678.78,3473.49C8678.78,3473.49 8675.27,3476.02 8675.27,3476.02C8674.81,3476.36 8674.62,3476.94 8674.8,3477.48L8676.14,3481.59Z" style="fill:rgb(37,16,5);"/>
                    </g>
                    <g transform="matrix(1.08266,0,0,0.883495,-1559.26,-212.831)">
                        <path d="M9626.82,3909.45L9627.4,3909.21L9627.71,3909.4L9627.85,3909.82L9627.74,3910.09L9629.1,3911.06C9629.24,3911.08 9629.49,3911.14 9629.88,3911.36C9629.97,3911.41 9630.38,3911.68 9631.01,3912.11C9631.01,3912.11 9634.68,3900.74 9634.68,3900.74C9634.73,3900.61 9634.85,3900.51 9635,3900.51C9635.15,3900.51 9635.27,3900.61 9635.32,3900.74L9638.99,3912.11L9638.99,3912.11C9639.62,3911.68 9640.03,3911.41 9640.12,3911.36C9640.51,3911.14 9642.26,3910.09 9642.26,3910.09L9642.15,3909.82L9642.28,3909.41L9642.6,3909.2L9643.05,3909.28L9643.37,3909.72L9651.22,3904.96L9651.9,3905.05L9651.73,3905.75C9651.73,3905.75 9641.21,3912.85 9640.73,3913.18L9652.41,3913.16C9652.55,3913.16 9652.68,3913.25 9652.72,3913.39C9652.77,3913.53 9652.72,3913.68 9652.6,3913.76L9643.38,3920.44C9644.2,3920.97 9645.13,3921.39 9645.55,3921.63C9646.31,3922.01 9646.03,3922.86 9646.03,3922.86C9646.25,3923.21 9646.62,3923.81 9646.92,3924.25C9647.05,3924.43 9647.2,3924.63 9647.25,3924.7C9647.29,3924.69 9647.34,3924.68 9647.38,3924.68C9647.51,3924.67 9647.71,3924.69 9648.09,3924.88C9648.69,3925.17 9651.4,3927.02 9652.39,3928.09C9652.59,3928.31 9652.73,3928.51 9652.79,3928.67C9652.84,3928.79 9652.84,3928.9 9652.82,3928.99C9652.82,3928.99 9652.82,3928.99 9652.82,3928.99C9652.79,3929.14 9652.71,3929.3 9652.55,3929.48C9652.38,3929.67 9652.12,3929.91 9651.77,3930.27C9651.45,3930.6 9651.32,3930.89 9651.18,3931.1C9651.04,3931.3 9650.88,3931.45 9650.64,3931.53C9650.55,3931.56 9650.44,3931.57 9650.3,3931.51C9650.18,3931.46 9650.01,3931.34 9649.81,3931.15C9648.89,3930.29 9647.08,3927.87 9646.53,3927.2C9645.91,3926.44 9644.71,3924.91 9644.52,3924.67C9644.4,3924.8 9644.19,3924.96 9643.91,3924.95C9643.91,3924.95 9643.91,3924.95 9643.91,3924.95C9643.82,3924.94 9643.64,3924.88 9643.42,3924.72C9643.29,3924.63 9643.14,3924.51 9642.97,3924.36L9646.07,3933.86C9646.12,3933.99 9646.07,3934.14 9645.95,3934.23C9645.84,3934.31 9645.68,3934.31 9645.56,3934.23C9645.56,3934.23 9635,3926.52 9635,3926.52L9624.44,3934.23C9624.32,3934.31 9624.16,3934.31 9624.05,3934.23C9623.93,3934.14 9623.88,3933.99 9623.93,3933.86C9623.93,3933.86 9627.03,3924.36 9627.03,3924.36C9626.86,3924.51 9626.71,3924.63 9626.58,3924.72C9626.36,3924.88 9626.18,3924.94 9626.09,3924.95C9626.09,3924.95 9626.09,3924.95 9626.09,3924.95C9625.81,3924.96 9625.6,3924.8 9625.48,3924.67C9625.29,3924.91 9624.09,3926.44 9623.47,3927.2C9622.92,3927.87 9621.11,3930.29 9620.19,3931.15C9619.99,3931.34 9619.82,3931.46 9619.7,3931.51C9619.56,3931.57 9619.45,3931.56 9619.36,3931.53C9619.12,3931.45 9618.96,3931.3 9618.82,3931.1C9618.68,3930.89 9618.55,3930.6 9618.23,3930.27C9617.88,3929.91 9617.62,3929.67 9617.45,3929.48C9617.29,3929.3 9617.21,3929.14 9617.18,3928.99C9617.16,3928.9 9617.16,3928.79 9617.21,3928.67C9617.27,3928.51 9617.41,3928.31 9617.61,3928.09C9618.6,3927.02 9621.31,3925.17 9621.91,3924.88C9622.29,3924.69 9622.49,3924.67 9622.62,3924.68C9622.66,3924.68 9622.71,3924.69 9622.75,3924.7C9622.8,3924.63 9622.95,3924.43 9623.08,3924.25C9623.38,3923.81 9623.76,3923.21 9623.97,3922.86L9623.92,3922.8C9623.53,3922.15 9624.34,3921.69 9624.45,3921.63C9624.87,3921.39 9625.8,3920.97 9626.62,3920.44L9617.4,3913.76C9617.28,3913.68 9617.23,3913.53 9617.28,3913.39C9617.32,3913.25 9617.45,3913.16 9617.59,3913.16C9617.59,3913.16 9629.27,3913.18 9629.27,3913.18L9628.23,3912.45C9628.23,3912.45 9618.17,3905.79 9618.13,3905.7L9618,3905.05C9618,3905.05 9618.71,3904.88 9618.72,3904.88L9626.56,3909.9L9626.82,3909.45ZM9635.02,3908.63L9637.3,3915.7C9637.34,3915.82 9637.45,3915.9 9637.58,3915.9L9645,3915.89C9645,3915.89 9638.99,3920.24 9638.99,3920.24C9638.89,3920.31 9638.84,3920.45 9638.88,3920.57L9641.19,3927.62C9641.19,3927.62 9635.19,3923.25 9635.19,3923.25C9635.09,3923.17 9634.95,3923.17 9634.84,3923.25L9628.85,3927.62C9628.85,3927.62 9631.16,3920.57 9631.16,3920.57C9631.19,3920.45 9631.15,3920.31 9631.05,3920.24L9625.04,3915.89C9625.04,3915.89 9632.45,3915.9 9632.45,3915.9C9632.59,3915.9 9632.7,3915.82 9632.74,3915.7L9635.02,3908.63Z" style="fill:rgb(230,183,56);"/>
                    </g>
                    <g transform="matrix(1.08266,0,0,0.883495,-1559.26,-212.831)">
                        <path d="M9620.78,3915.63L9617.67,3913.49L9630.3,3913.51L9629.49,3912.91C9629,3912.56 9628.45,3912.18 9628.45,3912.18L9626.72,3910.99L9626.8,3910.85L9628,3911.65L9628.1,3911.53L9626.64,3910.5L9626.47,3910.79L9626.36,3910.83L9626.18,3910.7L9626.18,3910.59L9625.7,3910.45L9618.51,3905.49L9618.38,3905.18L9618.67,3905.27L9626.04,3909.87L9626.35,3910.23L9626.72,3909.76L9626.93,3909.92L9627.25,3909.49L9627.58,3909.7L9627.36,3910.21L9629.01,3911.39C9629.01,3911.39 9629.2,3911.35 9629.75,3911.65C9629.85,3911.71 9630.39,3912.07 9631.21,3912.64L9635,3900.89L9638.79,3912.64C9639.62,3912.07 9640.16,3911.71 9640.26,3911.65C9640.81,3911.35 9640.99,3911.39 9640.99,3911.39L9642.65,3910.21L9642.43,3909.7L9642.75,3909.49L9643.08,3909.92L9643.29,3909.76L9643.66,3910.23L9643.97,3909.87L9651.33,3905.27L9651.63,3905.18L9651.5,3905.49L9644.3,3910.45L9643.83,3910.59L9643.83,3910.7L9643.65,3910.83L9643.54,3910.79L9643.37,3910.5L9641.91,3911.53L9642.01,3911.65L9643.2,3910.85L9643.29,3910.99L9641.56,3912.18C9641.56,3912.18 9641.01,3912.56 9640.52,3912.91L9639.7,3913.51L9652.34,3913.49L9649.23,3915.63L9637.53,3915.63L9635.02,3907.87L9632.54,3915.6L9620.78,3915.63Z" style="fill:rgb(254,220,124);"/>
                    </g>
                    <g transform="matrix(1.08266,0,0,0.883495,-1574.77,-222.425)">
                        <path d="M9657.43,3932.28C9657.4,3933.33 9664.76,3939.64 9665.89,3940.94C9665.7,3941.29 9665.29,3941.72 9664.89,3942.12C9664.46,3942.26 9661.84,3938.73 9661.17,3937.91C9660.49,3937.08 9659.14,3935.36 9659.14,3935.36C9659.14,3935.36 9659.08,3935.17 9658.89,3935.16C9658.71,3935.15 9658.74,3935.56 9658.31,3935.54C9658.11,3935.53 9656.85,3934.7 9656.13,3934L9658.75,3943.53L9649.43,3937.03L9639.81,3943.72L9642.88,3934.07L9642.2,3934.19C9641.47,3934.89 9640.74,3935.53 9640.54,3935.54C9640.11,3935.56 9640.15,3935.15 9639.96,3935.16C9639.77,3935.17 9639.71,3935.36 9639.71,3935.36C9639.71,3935.36 9638.36,3937.08 9637.69,3937.91C9637.01,3938.73 9634.02,3942.57 9633.96,3942.12C9633.93,3941.9 9632.96,3940.94 9632.96,3940.94C9633.45,3940.22 9642.2,3932.28 9642.2,3932.28L9644.94,3932.36L9642.47,3939.98L9649.44,3935.07L9656.15,3940.04L9653.67,3932.28L9657.43,3932.28ZM9640.2,3934.89C9640.2,3934.89 9640.33,3934.74 9640.3,3934.81C9640.23,3934.99 9640.58,3935.26 9640.71,3935.16C9640.71,3935.16 9640.35,3934.81 9640.53,3934.62C9640.73,3934.41 9641.03,3934.21 9641.03,3934.21C9641.03,3934.21 9641.29,3934.13 9641.41,3934.33C9641.52,3934.53 9641.43,3934.67 9641.43,3934.67L9640.71,3935.27C9640.71,3935.27 9640.48,3935.36 9640.34,3935.22C9640.19,3935.08 9640.2,3934.89 9640.2,3934.89ZM9658.65,3934.89C9658.65,3934.89 9658.53,3934.74 9658.55,3934.81C9658.62,3934.99 9658.27,3935.26 9658.15,3935.16C9658.15,3935.16 9658.51,3934.81 9658.33,3934.62C9658.12,3934.41 9657.83,3934.21 9657.83,3934.21C9657.83,3934.21 9657.56,3934.13 9657.45,3934.33C9657.33,3934.53 9657.43,3934.67 9657.43,3934.67L9658.14,3935.27C9658.14,3935.27 9658.37,3935.36 9658.52,3935.22C9658.67,3935.08 9658.65,3934.89 9658.65,3934.89Z" style="fill:rgb(157,120,42);"/>
                    </g>
                </g>
            </g>
        </g>
    </g>
</svg>
