<?xml version="1.0" encoding="UTF-8" standalone="no"?>
<!DOCTYPE svg PUBLIC "-//W3C//DTD SVG 1.1//EN" "http://www.w3.org/Graphics/SVG/1.1/DTD/svg11.dtd">
<svg width="100%" height="100%" viewBox="0 0 80 80" version="1.1" xmlns="http://www.w3.org/2000/svg" xmlns:xlink="http://www.w3.org/1999/xlink" xml:space="preserve" xmlns:serif="http://www.serif.com/" style="fill-rule:evenodd;clip-rule:evenodd;stroke-linejoin:round;stroke-miterlimit:2;">
    <g transform="matrix(1,0,0,1,-8146,-3015)">
        <g transform="matrix(0.923654,0,0,1.13187,477.217,-202.505)">
            <g id="military_rank_02" transform="matrix(2.17248,0,0,3.95534,-9679.42,-7589.36)">
                <g transform="matrix(0.498351,0,0,0.223368,3893.22,1948.14)">
                    <rect x="8797" y="3086" width="80" height="80" style="fill:none;"/>
                </g>
                <g>
                    <g transform="matrix(1.40838,0,0,0.841675,-4358.77,-4.51382)">
                        <path d="M8994.47,3150C8994.47,3149.88 8994.39,3149.76 8994.25,3149.7L8986.25,3145.95C8986.1,3145.88 8985.9,3145.88 8985.75,3145.95L8977.75,3149.7C8977.61,3149.76 8977.53,3149.88 8977.53,3150L8977.53,3153C8977.53,3153.13 8977.62,3153.25 8977.77,3153.31C8977.92,3153.37 8978.1,3153.37 8978.25,3153.3L8986,3149.67C8986,3149.67 8993.75,3153.3 8993.75,3153.3C8993.9,3153.37 8994.08,3153.37 8994.23,3153.31C8994.38,3153.25 8994.47,3153.13 8994.47,3153L8994.47,3150Z" style="fill:rgb(27,28,27);"/>
                    </g>
                    <g transform="matrix(1.40838,0,0,0.841675,-4358.77,-4.96056)">
                        <path d="M8994,3150L8986,3146.25L8978,3150L8978,3153L8986,3149.25L8994,3153L8994,3150Z" style="fill:rgb(170,170,170);"/>
                    </g>
                    <g transform="matrix(1.40838,0,0,0.841675,-4358.77,-4.96056)">
                        <path d="M8986,3149.25L8986,3146.25L8978,3150L8978,3153L8986,3149.25Z" style="fill:white;"/>
                    </g>
                    <g transform="matrix(1.40838,0,0,0.841675,-4358.77,-3.7466)">
                        <path d="M8994,3150L8986,3146.25L8986,3147.92L8994,3151.67L8994,3150Z" style="fill:rgb(116,116,116);"/>
                    </g>
                    <g transform="matrix(1.40838,0,0,0.841675,-4358.77,-3.7466)">
                        <path d="M8986,3147.92L8986,3146.25L8978,3150L8978,3151.67L8986,3147.92Z" style="fill:rgb(172,172,172);"/>
                    </g>
                    <g transform="matrix(0.498351,0,0,0.223368,3957.01,1710.92)">
                        <path d="M8729.17,4188.83L8729.17,4195.3C8729.17,4195.3 8709.69,4183.13 8709.69,4183.13C8709.03,4182.72 8708.19,4182.72 8707.52,4183.13L8688.05,4195.3C8688.05,4195.3 8688.05,4188.83 8688.05,4188.83C8688.05,4188.83 8708.61,4175.98 8708.61,4175.98L8729.17,4188.83Z" style="fill:rgb(229,228,215);"/>
                    </g>
                    <g transform="matrix(1.40838,0,0,0.841675,-4358.77,-4.96056)">
                        <path d="M8994.47,3150C8994.47,3149.88 8994.39,3149.76 8994.25,3149.7L8986.25,3145.95C8986.1,3145.88 8985.9,3145.88 8985.75,3145.95L8977.75,3149.7C8977.61,3149.76 8977.53,3149.88 8977.53,3150L8977.53,3153C8977.53,3153.13 8977.62,3153.25 8977.77,3153.31C8977.92,3153.37 8978.1,3153.37 8978.25,3153.3L8986,3149.67C8986,3149.67 8993.75,3153.3 8993.75,3153.3C8993.9,3153.37 8994.08,3153.37 8994.23,3153.31C8994.38,3153.25 8994.47,3153.13 8994.47,3153L8994.47,3150ZM8994,3150L8986,3146.25L8978,3150L8978,3153L8986,3149.25L8994,3153L8994,3150Z" style="fill:rgb(61,61,61);"/>
                    </g>
                </g>
            </g>
        </g>
    </g>
</svg>
