<?xml version="1.0" encoding="UTF-8" standalone="no"?>
<!DOCTYPE svg PUBLIC "-//W3C//DTD SVG 1.1//EN" "http://www.w3.org/Graphics/SVG/1.1/DTD/svg11.dtd">
<svg width="100%" height="100%" viewBox="0 0 80 80" version="1.1" xmlns="http://www.w3.org/2000/svg" xmlns:xlink="http://www.w3.org/1999/xlink" xml:space="preserve" xmlns:serif="http://www.serif.com/" style="fill-rule:evenodd;clip-rule:evenodd;stroke-linejoin:round;stroke-miterlimit:2;">
    <g transform="matrix(1,0,0,1,-9138,-2950)">
        <g transform="matrix(0.923654,0,0,1.13187,477.217,-202.505)">
            <g id="military_rank_15">
                <g transform="matrix(1.08266,0,0,0.883495,-147.476,58.7573)">
                    <rect x="8797" y="3086" width="80" height="80" style="fill:none;"/>
                </g>
                <g transform="matrix(1.36047,0,0,2.47694,-2308.39,-3812.36)">
                    <g transform="matrix(1.8134,0,0,0.812789,-8589.21,-308.266)">
                        <path d="M9490.88,3668.88C9490.83,3668.71 9490.67,3668.6 9490.5,3668.6C9490.33,3668.6 9490.17,3668.71 9490.12,3668.88L9489.21,3671.69C9489.21,3671.69 9487.59,3670.89 9487.59,3670.89C9487.45,3670.82 9487.29,3670.83 9487.17,3670.92C9487.05,3671.01 9486.99,3671.16 9487.01,3671.3L9487.27,3673.09C9487.27,3673.09 9484.32,3673.09 9484.32,3673.09C9484.15,3673.09 9483.99,3673.2 9483.94,3673.37C9483.88,3673.53 9483.94,3673.71 9484.08,3673.82L9486.47,3675.55C9486.47,3675.55 9485.21,3676.85 9485.21,3676.85C9485.11,3676.95 9485.07,3677.11 9485.12,3677.25C9485.16,3677.39 9485.28,3677.49 9485.43,3677.52L9487.21,3677.83C9487.21,3677.83 9486.3,3680.64 9486.3,3680.64C9486.25,3680.8 9486.3,3680.98 9486.44,3681.08C9486.58,3681.18 9486.77,3681.18 9486.92,3681.08L9489.31,3679.35C9489.31,3679.35 9490.15,3680.95 9490.15,3680.95C9490.22,3681.08 9490.35,3681.16 9490.5,3681.16C9490.65,3681.16 9490.78,3681.08 9490.85,3680.95L9491.69,3679.35C9491.69,3679.35 9494.09,3681.08 9494.09,3681.08C9494.23,3681.18 9494.42,3681.18 9494.56,3681.08C9494.7,3680.98 9494.76,3680.8 9494.7,3680.64L9493.79,3677.83C9493.79,3677.83 9495.57,3677.52 9495.57,3677.52C9495.72,3677.49 9495.84,3677.39 9495.88,3677.25C9495.93,3677.11 9495.89,3676.95 9495.79,3676.85L9494.53,3675.55C9494.53,3675.55 9496.92,3673.82 9496.92,3673.82C9497.06,3673.71 9497.12,3673.53 9497.06,3673.37C9497.01,3673.2 9496.85,3673.09 9496.68,3673.09L9493.73,3673.09C9493.73,3673.09 9493.99,3671.3 9493.99,3671.3C9494.01,3671.16 9493.95,3671.01 9493.83,3670.92C9493.71,3670.83 9493.55,3670.82 9493.41,3670.89L9491.79,3671.69C9491.79,3671.69 9490.88,3668.88 9490.88,3668.88Z" style="fill:rgb(107,83,15);"/>
                    </g>
                    <g transform="matrix(1.8134,0,0,0.812789,-8589.21,-308.712)">
                        <path d="M9490.5,3669L9491.56,3672.25L9493.59,3671.25L9493.26,3673.49L9496.68,3673.49L9493.92,3675.5L9495.5,3677.12L9493.26,3677.51L9494.32,3680.76L9491.56,3678.75L9490.5,3680.76L9489.44,3678.75L9486.68,3680.76L9487.74,3677.51L9485.5,3677.12L9487.08,3675.5L9484.32,3673.49L9487.74,3673.49L9487.41,3671.25L9489.44,3672.25L9490.5,3669Z" style="fill:rgb(157,120,42);"/>
                        <path d="M9490.94,3668.86C9490.88,3668.66 9490.7,3668.53 9490.5,3668.53C9490.3,3668.53 9490.12,3668.66 9490.06,3668.86L9489.17,3671.59C9489.17,3671.59 9487.62,3670.83 9487.62,3670.83C9487.46,3670.75 9487.27,3670.76 9487.13,3670.87C9486.99,3670.97 9486.92,3671.14 9486.95,3671.31L9487.19,3673.02C9487.19,3673.02 9484.32,3673.02 9484.32,3673.02C9484.11,3673.02 9483.94,3673.15 9483.87,3673.35C9483.81,3673.54 9483.88,3673.75 9484.04,3673.87L9486.37,3675.56C9486.37,3675.56 9485.16,3676.8 9485.16,3676.8C9485.04,3676.92 9485,3677.1 9485.05,3677.27C9485.11,3677.43 9485.25,3677.56 9485.42,3677.59L9487.12,3677.88C9487.12,3677.88 9486.23,3680.61 9486.23,3680.61C9486.17,3680.81 9486.24,3681.02 9486.4,3681.14C9486.57,3681.26 9486.79,3681.26 9486.95,3681.14L9489.28,3679.45C9489.28,3679.45 9490.09,3680.98 9490.09,3680.98C9490.17,3681.13 9490.33,3681.23 9490.5,3681.23C9490.67,3681.23 9490.83,3681.13 9490.91,3680.98L9491.72,3679.45C9491.72,3679.45 9494.05,3681.14 9494.05,3681.14C9494.21,3681.26 9494.43,3681.26 9494.6,3681.14C9494.76,3681.02 9494.83,3680.81 9494.77,3680.61C9494.77,3680.61 9493.88,3677.88 9493.88,3677.88C9493.88,3677.88 9495.58,3677.59 9495.58,3677.59C9495.75,3677.56 9495.89,3677.43 9495.95,3677.27C9496,3677.1 9495.96,3676.92 9495.84,3676.8L9494.63,3675.56C9494.63,3675.56 9496.96,3673.87 9496.96,3673.87C9497.12,3673.75 9497.19,3673.54 9497.13,3673.35C9497.06,3673.15 9496.89,3673.02 9496.68,3673.02L9493.81,3673.02C9493.81,3673.02 9494.05,3671.31 9494.05,3671.31C9494.08,3671.14 9494.01,3670.97 9493.87,3670.87C9493.73,3670.76 9493.54,3670.75 9493.38,3670.83L9491.83,3671.59C9491.83,3671.59 9490.94,3668.86 9490.94,3668.86ZM9490.5,3669L9491.56,3672.25L9493.59,3671.25L9493.26,3673.49L9496.68,3673.49L9493.92,3675.5L9495.5,3677.12L9493.26,3677.51L9494.32,3680.76L9491.56,3678.75L9490.5,3680.76L9489.44,3678.75L9486.68,3680.76L9487.74,3677.51L9485.5,3677.12L9487.08,3675.5L9484.32,3673.49L9487.74,3673.49L9487.41,3671.25L9489.44,3672.25L9490.5,3669Z" style="fill:rgb(74,55,21);"/>
                    </g>
                    <g transform="matrix(1.80173,0,0,0.80756,-8478.48,-289.526)">
                        <path d="M9490.5,3669L9490.64,3675.91L9491.56,3672.25L9493.59,3671.25L9490.64,3675.91L9493.26,3673.49L9496.68,3673.49L9490.64,3675.91L9493.92,3675.5L9495.5,3677.12L9490.64,3675.91L9493.26,3677.51L9494.32,3680.76L9490.64,3675.91L9486.68,3680.76L9487.74,3677.51L9490.64,3675.91L9485.5,3677.12L9487.08,3675.5L9490.64,3675.91L9484.32,3673.49L9487.74,3673.49L9490.64,3675.91L9487.41,3671.25L9489.44,3672.25L9490.5,3669Z" style="fill:rgb(250,205,76);"/>
                    </g>
                    <g transform="matrix(0.498351,0,0,0.223368,4170.8,1746.21)">
                        <path d="M8930,4176L8929.48,4193.94L8925.71,4186.59L8930,4176Z" style="fill:rgb(248,209,97);"/>
                    </g>
                    <g transform="matrix(0.498351,0,0,0.223368,4170.8,1746.21)">
                        <path d="M8930,4176L8925.73,4186.55L8915.45,4193.8L8930,4176Z" style="fill:rgb(74,55,21);fill-opacity:0.4;"/>
                    </g>
                    <g transform="matrix(0.498351,0,0,0.223368,4170.8,1746.21)">
                        <path d="M8925.62,4162.87L8930,4176L8929.47,4151.17L8925.62,4162.87Z" style="fill:rgb(255,230,157);"/>
                    </g>
                    <g transform="matrix(0.498351,0,0,0.223368,4170.8,1746.21)">
                        <path d="M8919.45,4167.33L8930,4176L8907.07,4167.31L8919.45,4167.33Z" style="fill:rgb(255,230,157);"/>
                    </g>
                </g>
            </g>
        </g>
    </g>
</svg>
