<svg id="ger_moscow_event_antitank_1_icon" xmlns="http://www.w3.org/2000/svg" width="150" height="150" viewBox="0 0 150 150">
  <defs>
    <style>
      .cls-1 {
        fill: #f7b028;
      }

      .cls-1, .cls-2, .cls-3 {
        fill-rule: evenodd;
      }

      .cls-2 {
        fill: #ececec;
      }

      .cls-3 {
        fill: #0f0f0f;
      }
    </style>
  </defs>
  <g>
    <path class="cls-1" d="M122.638,125.583L106.156,65.637,75,91.057,43.844,65.637,27.362,125.583H14.27L34.827,44.417,75,75.324l40.17-30.907,20.557,81.166H122.638Z"/>
    <path class="cls-2" d="M44.53,67.916L75,92.775l30.47-24.859L121.7,126.943h15.614L115.907,42.427,75,73.9,34.093,42.427,12.687,126.943H28.3ZM15.853,124.479L35.561,46.665,73.5,75.851,75,77.007l1.5-1.156,37.933-29.186,19.708,77.814h-10.57L107.846,67.263l-1-3.647-2.931,2.391L75,89.6,46.088,66.007l-2.931-2.391-1,3.647L26.423,124.479H15.853ZM10.967,130.8V147.89H139.033V130.8H10.967ZM21.137,6.35c0.1,0.03,9.243,2.89,11.135,9.731a4.191,4.191,0,0,0-3.726,2.311,1.068,1.068,0,0,0,.341,1.4,67.7,67.7,0,0,1,9.163,7.212A15.883,15.883,0,0,0,33.213,28.1a1.068,1.068,0,0,0-.17,1.9c4.495,2.8,9.282,6.019,11.916,8.066a10.379,10.379,0,0,0-3.872.9,1.068,1.068,0,0,0-.1,1.89,69.927,69.927,0,0,1,9.233,6.26,14.368,14.368,0,0,1-3.691.516,1.068,1.068,0,0,0-.665,1.883l8.814,7.447a1.067,1.067,0,0,0,1.027.2,15.261,15.261,0,0,1,4.2-.692,4.87,4.87,0,0,1,2.778.666c0.284,0.2.578,0.4,0.877,0.6,2.105,1.441,4.989,3.414,5.141,4.975a4.023,4.023,0,0,1-.442,2.626,1.02,1.02,0,0,0-.233.869,1.056,1.056,0,0,0,.561.737l2.231,1.2a1.068,1.068,0,0,0,1.559-.755c0-.023.445-2.293,1.961-2.293h1.339c1.51,0,1.951,2.244,1.961,2.3a1.068,1.068,0,0,0,1.558.751l2.231-1.2a1.056,1.056,0,0,0,.561-0.737,1.02,1.02,0,0,0-.233-0.869,4.023,4.023,0,0,1-.442-2.626c0.151-1.561,3.035-3.534,5.141-4.975,0.3-.2.593-0.406,0.877-0.6a4.87,4.87,0,0,1,2.778-.666,15.388,15.388,0,0,1,4.2.692,1.067,1.067,0,0,0,1.028-.2l8.814-7.447a1.068,1.068,0,0,0-.666-1.883,14.3,14.3,0,0,1-3.691-.515,69.868,69.868,0,0,1,9.233-6.26,1.068,1.068,0,0,0-.1-1.89,10.379,10.379,0,0,0-3.872-.9c2.633-2.046,7.421-5.261,11.915-8.066a1.067,1.067,0,0,0-.169-1.9,15.885,15.885,0,0,0-4.836-1.093,67.727,67.727,0,0,1,9.162-7.212,1.067,1.067,0,0,0,.341-1.4,4.19,4.19,0,0,0-3.725-2.311c1.892-6.823,11.036-9.7,11.134-9.731a1.068,1.068,0,0,0,.405-1.814,9.294,9.294,0,0,0-6.421-2.426c-4.064,0-8.868,2.135-14.686,6.528a115.609,115.609,0,0,0-10.9,10.228,74.721,74.721,0,0,1-6.649,6.345,6.365,6.365,0,0,1-3.656,1.033,9.326,9.326,0,0,1-2.941-.478c-0.414-.251-0.494-0.441-0.976-1.991-0.138-.442-0.309-0.992-0.526-1.645-0.243-.73-0.894-2.682-2.035-3.367a2.315,2.315,0,0,0,.529-0.458c0.456-.547.56-1.419,0.7-2.912,0.052-.541.106-1.1,0.186-1.58,0.128-.769,2.222-2.151,4.482-2.666a4.185,4.185,0,0,1,.925-0.111,2.287,2.287,0,0,1,1.514.464,1.007,1.007,0,0,0,.774.355,1.125,1.125,0,0,0,.338-0.053,1.076,1.076,0,0,0,.725-0.946c0.026-.3.208-2.983-1.549-4.246a4.3,4.3,0,0,0-2.564-.7c-0.478,0-.943.042-1.392,0.082-0.383.034-.745,0.067-1.056,0.067-0.1,0-.2,0-0.281-0.011L83.76,6.038a3.3,3.3,0,0,1-.128-0.624,3.636,3.636,0,0,0-.384-1.345c-0.614-1.061-2.149-1.219-3.01-1.219a7.331,7.331,0,0,0-2.472.424,25.09,25.09,0,0,0-4.65,2.313c-1.578,1.14-4.5,2.836-6.089,2.836A1.58,1.58,0,0,1,66.745,8.4c-1.29-.235-1.18-2.435-1.179-2.453A1.068,1.068,0,0,0,63.673,5.2,5.694,5.694,0,0,0,62.39,9.976a4.073,4.073,0,0,0,1.9,2.839,5.9,5.9,0,0,0,2.732.5c0.531,0,1.043-.032,1.458-0.07a10.916,10.916,0,0,1,.011,1.652A9.873,9.873,0,0,1,67.4,17.331a1.068,1.068,0,0,0,1.237,1.558c0.145-.045.306-0.091,0.469-0.134-0.467,1.472-1.294,3.913-2.078,6.153a1.07,1.07,0,0,0-.055.247,1.457,1.457,0,0,1-.125.21,7.7,7.7,0,0,1-3.8.879,6.365,6.365,0,0,1-3.657-1.033,74.765,74.765,0,0,1-6.649-6.345,115.586,115.586,0,0,0-10.9-10.228C36.021,4.245,31.217,2.11,27.153,2.11a9.293,9.293,0,0,0-6.421,2.426A1.068,1.068,0,0,0,21.137,6.35Z"/>
    <path class="cls-3" d="M140.479,129.242l-0.777-3.069L118.3,41.656l-0.921-3.634L114.4,40.308l-9.168,7.054A2.135,2.135,0,0,0,103.5,46.4c-0.393-.009-0.812-0.036-1.22-0.076,0.7-.513,1.655-1.171,2.941-2.008,2.227-1.45,4.321-2.693,4.342-2.706a2.136,2.136,0,0,0-.2-3.78,10.8,10.8,0,0,0-1.627-.588c0.9-.646,2.011-1.419,3.383-2.341,3.27-2.2,6.379-4.139,6.41-4.158a2.136,2.136,0,0,0-.34-3.8,16.918,16.918,0,0,0-2.863-.857c0.677-.589,1.531-1.291,2.608-2.121,2.44-1.879,4.758-3.434,4.781-3.449a2.137,2.137,0,0,0,.681-2.806,5.31,5.31,0,0,0-3.22-2.664c2.382-5.429,9.922-7.816,10.008-7.842a2.137,2.137,0,0,0,.806-3.627,10.33,10.33,0,0,0-7.136-2.7c-4.3,0-9.319,2.206-15.329,6.744A116.158,116.158,0,0,0,96.5,17.952,75.147,75.147,0,0,1,90,24.176a5.315,5.315,0,0,1-3.037.835,8.444,8.444,0,0,1-2.435-.367,12.988,12.988,0,0,1-.462-1.351c-0.139-.447-0.312-1-0.533-1.666a9.963,9.963,0,0,0-1.513-3.056,7.3,7.3,0,0,0,.76-3.24c0.047-.487.1-0.989,0.161-1.413a7.388,7.388,0,0,1,3.681-1.895,3.119,3.119,0,0,1,.688-0.084,1.417,1.417,0,0,1,.8.2,2.136,2.136,0,0,0,3.609-1.351c0.032-.364.247-3.6-1.99-5.206a5.279,5.279,0,0,0-3.187-.9c-0.526,0-1.037.046-1.487,0.086-0.142.013-.28,0.025-0.412,0.036a4.134,4.134,0,0,0-.472-1.428c-0.654-1.13-2.051-1.752-3.934-1.752a8.426,8.426,0,0,0-2.842.49A25.917,25.917,0,0,0,72.49,4.555C70.7,5.849,68.164,7.189,67.027,7.189a0.549,0.549,0,0,1-.091-0.006l-0.022,0a2.624,2.624,0,0,1-.282-1.329A2.135,2.135,0,0,0,62.846,4.36a6.832,6.832,0,0,0-1.5,5.662,5.141,5.141,0,0,0,2.443,3.571,6.894,6.894,0,0,0,3.233.624c0.144,0,.287,0,0.427-0.006,0,0.142-.008.276-0.018,0.392a10.99,10.99,0,0,1-.953,2.024,2.135,2.135,0,0,0,1.137,3.091c-0.46,1.388-1.049,3.111-1.6,4.672C66.009,24.411,66,24.432,66,24.453a7.792,7.792,0,0,1-2.953.558A5.318,5.318,0,0,1,60,24.176,75.162,75.162,0,0,1,53.5,17.952,116.218,116.218,0,0,0,42.482,7.621C36.473,3.083,31.459.878,27.153,0.877a10.329,10.329,0,0,0-7.136,2.7,2.136,2.136,0,0,0,.81,3.628c0.083,0.026,7.623,2.412,10,7.841a5.312,5.312,0,0,0-3.22,2.664,2.135,2.135,0,0,0,.681,2.806c0.023,0.015,2.357,1.582,4.8,3.463,1.069,0.824,1.918,1.521,2.591,2.108a16.912,16.912,0,0,0-2.863.857,2.136,2.136,0,0,0-.339,3.8c0.031,0.019,3.148,1.966,6.419,4.164,1.368,0.919,2.476,1.69,3.374,2.335a10.786,10.786,0,0,0-1.627.588,2.136,2.136,0,0,0-.2,3.78c0.021,0.012,2.115,1.256,4.342,2.706,1.286,0.837,2.239,1.5,2.943,2.009-0.409.039-.828,0.066-1.222,0.075a2.135,2.135,0,0,0-1.739.966L35.6,40.308l-2.971-2.285L31.7,41.656,10.3,126.173l-0.777,3.069H9.569v19.881H140.431V129.242h0.048ZM46.551,48.531s4.909-.11,5.02-1.424S41.53,39.77,41.53,39.77a9.592,9.592,0,0,1,3.967-.814,10.079,10.079,0,0,1,2.392.267c-1.116-2.081-14.281-10.294-14.281-10.294a14.785,14.785,0,0,1,5.407-1.049,9.041,9.041,0,0,1,1.176.064c-1.227-2.847-10.711-9.2-10.711-9.2a3.105,3.105,0,0,1,2.835-1.759,3.757,3.757,0,0,1,1.293.226C32.6,8.559,21.448,5.164,21.448,5.164a8.228,8.228,0,0,1,5.7-2.151c4.72,0,10,3.263,14.043,6.312,5.8,4.38,14.336,14.291,17.572,16.591a7.329,7.329,0,0,0,4.275,1.23c2.2,0,4.157-.735,4.594-1.23a3.177,3.177,0,0,0,.453-0.8L68.032,25.1s2.587-7.392,2.505-7.721a0.249,0.249,0,0,0-.262-0.092,10.3,10.3,0,0,0-1.955.421,11.186,11.186,0,0,0,1.232-2.875c0.082-.9,0-2.834-0.287-2.916a16.538,16.538,0,0,1-2.246.169,5.178,5.178,0,0,1-2.231-.374c-1.314-.7-2.3-3.532-0.287-6,0,0-.205,3.162,2.053,3.573a2.648,2.648,0,0,0,.473.04c2.326,0,6.024-2.539,6.714-3.038A24.19,24.19,0,0,1,78.135,4.11a6.269,6.269,0,0,1,2.1-.358,2.508,2.508,0,0,1,2.086.687c0.452,0.78,0,2.382,1.4,2.505,0.12,0.011.245,0.015,0.374,0.015,0.741,0,1.614-.149,2.449-0.149a3.247,3.247,0,0,1,1.941.5C89.8,8.257,89.593,10.6,89.593,10.6A3.2,3.2,0,0,0,87.306,9.8a5.225,5.225,0,0,0-1.163.138c-2.341.534-5.051,2.053-5.3,3.532s-0.246,3.491-.657,3.983-1.437.616-1.478,1.109a1.381,1.381,0,0,0,.9.862,0.169,0.169,0,0,1,.035,0c0.171,0,.948.16,1.854,2.878,1.005,3.015.948,3.63,2.063,4.271a10.326,10.326,0,0,0,3.393.573,7.329,7.329,0,0,0,4.274-1.23c3.236-2.3,11.77-12.211,17.572-16.591,4.039-3.05,9.322-6.313,14.042-6.312a8.229,8.229,0,0,1,5.7,2.151S117.4,8.559,116.391,17.21a3.755,3.755,0,0,1,1.293-.226,3.105,3.105,0,0,1,2.835,1.759s-9.483,6.352-10.71,9.2a9.039,9.039,0,0,1,1.176-.064,14.784,14.784,0,0,1,5.406,1.049s-13.165,8.214-14.28,10.294a10.076,10.076,0,0,1,2.392-.267,9.592,9.592,0,0,1,3.967.814s-10.153,6.023-10.041,7.338,5.02,1.424,5.02,1.424l-2.731,2.308-6.511,5.01a16.036,16.036,0,0,0-4.1-.618,5.961,5.961,0,0,0-3.387.857c-2.677,1.862-6.248,4.052-6.471,6.352a4.825,4.825,0,0,0,.669,3.395l-2.231,1.2s-0.558-3.176-3.012-3.176H74.331c-2.455,0-3.012,3.176-3.012,3.176l-2.231-1.2a4.825,4.825,0,0,0,.669-3.395c-0.223-2.3-3.793-4.49-6.471-6.352a5.958,5.958,0,0,0-3.387-.857,16.032,16.032,0,0,0-4.1.618L49.259,50.82ZM67.373,64.56c-0.031.042-.058,0.085-0.086,0.129L58,57.54a11.6,11.6,0,0,1,1.9-.174,4,4,0,0,1,2.168.475c0.286,0.2.582,0.4,0.883,0.608a32.975,32.975,0,0,1,3.439,2.568A2.6,2.6,0,0,1,67.373,64.56Zm15.341,0.132c-0.028-.044-0.056-0.089-0.088-0.132a2.6,2.6,0,0,1,.985-3.543,32.984,32.984,0,0,1,3.439-2.568c0.3-.206.6-0.408,0.883-0.607a4,4,0,0,1,2.168-.475,11.6,11.6,0,0,1,1.906.175Zm-5.289,4.069L75,70.624,72.59,68.768a2.083,2.083,0,0,0,.83-1.351c0.051-.245.4-1.418,0.91-1.418h1.339c0.522,0,.88,1.242.909,1.41A2.133,2.133,0,0,0,77.425,68.761Zm-43.332-26.5,19.3,14.85,0.589,0.5a2.133,2.133,0,0,0,.406.268L75,73.733,95.62,57.871a2.124,2.124,0,0,0,.394-0.262l0.556-.47,19.337-14.878,21.406,84.517H121.7L105.47,67.751,75,92.61,44.53,67.751,28.3,126.778H12.687Zm85.727,86.977H30.18l0.5-1.807L45.9,72.051,73.442,94.519,75,95.79l1.558-1.271L104.1,72.051l15.226,55.38Zm17.815,17.088H12.365V132.035h125.27v14.291Z"/>
  </g>
</svg>
