<svg id="high_latency" xmlns="http://www.w3.org/2000/svg" width="100" height="100" viewBox="0 0 100 100">
  <metadata><?xpacket begin="﻿" id="W5M0MpCehiHzreSzNTczkc9d"?>
<x:xmpmeta xmlns:x="adobe:ns:meta/" x:xmptk="Adobe XMP Core 5.6-c142 79.160924, 2017/07/13-01:06:39        ">
   <rdf:RDF xmlns:rdf="http://www.w3.org/1999/02/22-rdf-syntax-ns#">
      <rdf:Description rdf:about=""/>
   </rdf:RDF>
</x:xmpmeta>
                                                                                                    
                                                                                                    
                                                                                                    
                                                                                                    
                                                                                                    
                                                                                                    
                                                                                                    
                                                                                                    
                                                                                                    
                                                                                                    
                                                                                                    
                                                                                                    
                                                                                                    
                                                                                                    
                                                                                                    
                                                                                                    
                                                                                                    
                                                                                                    
                                                                                                    
                                                                                                    
                           
<?xpacket end="w"?></metadata>
<defs>
    <style>
      .cls-1 {
        fill: #fff;
        fill-rule: evenodd;
      }
    </style>
  </defs>
  <path class="cls-1" d="M93.3,72.595a4.781,4.781,0,0,1-4.186,2.428H65.653a4.781,4.781,0,0,1-4.186-2.429,4.675,4.675,0,0,1,0-4.774L73.2,47.4a4.822,4.822,0,0,1,8.373,0L93.3,67.821A4.675,4.675,0,0,1,93.3,72.595Zm-2.773-3.082L78.8,49.011a1.628,1.628,0,0,0-2.827,0L64.24,69.513a1.64,1.64,0,0,0,1.413,2.46H89.119A1.64,1.64,0,0,0,90.532,69.513ZM76,67.007h3V70H76V67.007ZM76,54h3V64.992H76V54ZM46.5,33A1.5,1.5,0,0,1,48,34.5v16A1.5,1.5,0,0,1,46.5,52h-15a1.5,1.5,0,0,1,0-3H45V34.5A1.5,1.5,0,0,1,46.5,33Zm31.948,4.74L66.816,35.668a0.649,0.649,0,0,1-.223-1.153l5-3.769A31.169,31.169,0,0,0,48,18.779V23H45V18.821a31.09,31.09,0,0,0-19.244,8.314l3.133,3.133-2.121,2.121L23.659,29.28A31.087,31.087,0,0,0,15.775,49H19v3H15.821a31.1,31.1,0,0,0,8.414,19.357l2.434-2.371L28.8,71.062,26.369,73.43a31.089,31.089,0,0,0,18.617,7.748V77.923H48v3.3A31.124,31.124,0,0,0,59.248,78.74l3.574,3.574A35.8,35.8,0,0,1,48,85.971V86H44.986V85.94A36,36,0,0,1,11.058,52H11V49h0.025A35.972,35.972,0,0,1,75.383,27.892l5.072-3.821a0.592,0.592,0,0,1,.923.626L79.148,37.213A0.621,0.621,0,0,1,78.448,37.74Z"/>
</svg>
