<svg id="low_fps" xmlns="http://www.w3.org/2000/svg" width="100" height="100" viewBox="0 0 100 100">
  <metadata><?xpacket begin="﻿" id="W5M0MpCehiHzreSzNTczkc9d"?>
<x:xmpmeta xmlns:x="adobe:ns:meta/" x:xmptk="Adobe XMP Core 5.6-c142 79.160924, 2017/07/13-01:06:39        ">
   <rdf:RDF xmlns:rdf="http://www.w3.org/1999/02/22-rdf-syntax-ns#">
      <rdf:Description rdf:about=""/>
   </rdf:RDF>
</x:xmpmeta>
                                                                                                    
                                                                                                    
                                                                                                    
                                                                                                    
                                                                                                    
                                                                                                    
                                                                                                    
                                                                                                    
                                                                                                    
                                                                                                    
                                                                                                    
                                                                                                    
                                                                                                    
                                                                                                    
                                                                                                    
                                                                                                    
                                                                                                    
                                                                                                    
                                                                                                    
                                                                                                    
                           
<?xpacket end="w"?></metadata>
<defs>
    <style>
      .cls-1 {
        fill: #fff;
        fill-rule: evenodd;
      }
    </style>
  </defs>
  <path class="cls-1" d="M13,59V56H11V52h2V49H11V45h2V42H11V38h2V35H11V31h2V28H11V24h8V17H66v7H76V15H9V59h4ZM68,17h6v4H68V17ZM11,17h6v4H11V17Zm5,54h4V68H18V64h2V61H18V57h2V54H18V50h2V47H18V43h2V40H18V36h8V29H73v7H83V27H16V71ZM75,29h6v4H75V29ZM18,29h6v4H18V29Zm6,55H91V40H24V84ZM83,42h6v4H83V42Zm0,7h6v4H83V49Zm0,7h6v4H83V56Zm0,7h6v4H83V63Zm0,7h6v4H83V70Zm0,7h6v4H83V77ZM34,42H81V82H34V42Zm-8,0h6v4H26V42Zm0,7h6v4H26V49Zm0,7h6v4H26V56Zm0,7h6v4H26V63Zm0,7h6v4H26V70Zm0,7h6v4H26V77Zm35.68-27.6a4.8,4.8,0,0,0-8.341,0L41.651,69.7a4.844,4.844,0,0,0,0,4.857,4.76,4.76,0,0,0,4.171,2.428H69.2a4.76,4.76,0,0,0,4.171-2.429,4.844,4.844,0,0,0,0-4.857Zm8.926,23.792a1.6,1.6,0,0,1-1.408.82H45.822a1.6,1.6,0,0,1-1.408-.82,1.623,1.623,0,0,1,0-1.64L56.1,51.011a1.619,1.619,0,0,1,2.816,0L70.606,71.555A1.624,1.624,0,0,1,70.606,73.194Zm-14.6-6.226h2.989V56H56.006V66.969Zm0,5.031h2.989V69.031H56.006V72Z"/>
</svg>
