<svg id="Layer_1" data-name="Layer 1" xmlns="http://www.w3.org/2000/svg" width="100" height="100" viewBox="0 0 100 100">
  <defs>
    <style>
      .cls-1 {
        fill: #fff;
      }
    </style>
  </defs>
  <path class="cls-1" d="M71.9032,57.48663,78.16406,77.5H21.83594l19.939-63.73682C42.78467,10.53613,46.1665,8.28271,50,8.28271s7.21533,2.25342,8.2251,5.48047L69.03381,48.31427,72.401,42.33221,62.99658,12.27C61.34131,6.97852,55.99707,3.28271,50,3.28271S38.65869,6.97852,37.00342,12.27L15.0332,82.5H84.9668L75.27039,51.50452Z"/>
  <rect class="cls-1" x="15.04348" y="82.47826" width="69.91304" height="12.52174"/>
  <rect class="cls-1" x="43.05435" y="55.93478" width="13.8913" height="5.08696"/>
  <rect class="cls-1" x="43.05435" y="41.97826" width="13.8913" height="5.08696"/>
  <rect class="cls-1" x="43.05435" y="28.02174" width="13.8913" height="5.08696"/>
  <path class="cls-1" d="M51.4195,85.62988,47.146,82.84846,82.5978,19.86525a2.5442,2.5442,0,0,1,3.60494-.88438h0a2.54421,2.54421,0,0,1,.82928,3.38031Z"/>
</svg>
