<svg width="100" height="100" viewBox="0 0 100 100" xmlns="http://www.w3.org/2000/svg">
<defs>
<style>.cls-1 {
        fill: #fff;
        fill-rule: evenodd;
      }</style>
</defs>
<path class="cls-1" d="M19.26,27.791L49.423,10.948,79.586,27.791,49.423,44.634ZM24.555,43l-2.772,1.545L19.012,43l2.772-1.545ZM49.423,68.092l23.728-13.25,6.435,3.593L49.423,75.279,19.26,58.436l6.435-3.593Zm0,14.373,23.819-13.3,6.344,3.543L49.423,89.551,19.26,72.707,25.6,69.165ZM79.988,43l-2.771,1.545L74.445,43l2.772-1.545Zm-4.85-2.7-2.772,1.545-2.447-1.364,2.769-1.546Zm0,5.407-5.543,3.09-2.772-1.545,5.543-3.09Zm-7.622,4.248-5.543,3.09L59.2,51.5l5.543-3.09ZM59.894,54.2L54.35,57.29l-2.772-1.545,5.543-3.09Zm-7.622,4.248L49.5,59.993l-2.772-1.545L49.5,56.9Zm-4.85-2.7L44.65,57.29,39.106,54.2l2.772-1.545ZM39.8,51.5l-2.772,1.545-5.543-3.09,2.772-1.545ZM23.862,40.3l2.372-1.322L29,40.521l-2.37,1.321Zm5.543,8.5L23.862,45.7l2.772-1.545,5.543,3.09Z"/>
</svg>
