<svg xmlns="http://www.w3.org/2000/svg" width="200" height="200" viewBox="0 0 200 200">
  <metadata><?xpacket begin="﻿" id="W5M0MpCehiHzreSzNTczkc9d"?>
<x:xmpmeta xmlns:x="adobe:ns:meta/" x:xmptk="Adobe XMP Core 5.6-c138 79.159824, 2016/09/14-01:09:01        ">
   <rdf:RDF xmlns:rdf="http://www.w3.org/1999/02/22-rdf-syntax-ns#">
      <rdf:Description rdf:about=""/>
   </rdf:RDF>
</x:xmpmeta>
                                                                                                    
                                                                                                    
                                                                                                    
                                                                                                    
                                                                                                    
                                                                                                    
                                                                                                    
                                                                                                    
                                                                                                    
                                                                                                    
                                                                                                    
                                                                                                    
                                                                                                    
                                                                                                    
                                                                                                    
                                                                                                    
                                                                                                    
                                                                                                    
                                                                                                    
                                                                                                    
                           
<?xpacket end="w"?></metadata>
<defs>
    <style>
      .cls-1 {
        fill: #fff;
        fill-rule: evenodd;
      }
    </style>
  </defs>
  <path class="cls-1" d="M156.35,110.673l-0.83.922-7.1-5.44-1.015.369-10.879-8.667s-0.217.143-.514,0.328a16.029,16.029,0,0,1-.869,3.729c-0.461.645-4.15,4.149-4.7,4.61a17.243,17.243,0,0,1-3.688,1.106,72.23,72.23,0,0,1-7.192-3.043c-0.832-.52-3.159-2.271-5.031-3.7l-0.143.774c2.4,10.194.27,24.923,0.111,26.272-0.184,1.568.645,4.149,0.738,5.071s-1.937,4.8-1.937,4.8-5.352,14.961-6.181,15.791a14.481,14.481,0,0,1-3.333,1.86,4.677,4.677,0,0,0,.294,4.385,35.282,35.282,0,0,0,3.965,4.7,40.66,40.66,0,0,1,4.61,1.107c1.936,0.737,2.305,3.359,2.305,3.359H98.383A2.267,2.267,0,0,1,98.358,171h-7.33a32.839,32.839,0,0,1-6.852-1.406,10.164,10.164,0,0,1,1.4-5.348c1.308-2.582.663-6.565,0.663-6.565s-2.394-2.3-3.069-3.025,1.457-6.649,1.866-7.312,0.984-5.78,1.485-8.258,4.829-9.842,4.829-9.842-0.208-2.611-.231-4.23a8.31,8.31,0,0,1,2.075-4.766c0.853-.852.254-1.452-0.294-2.305a9.435,9.435,0,0,1-1.936-4.546,31.276,31.276,0,0,1,.155-7.826l-3.423-.011c-1.458-2.571-3.2-12.822-3.2-12.822l1.331-2.893L84.879,86.13a23.285,23.285,0,0,1-4.293-2.4l0.448-3.52a5.474,5.474,0,0,1-2.485-.95,13.328,13.328,0,0,1-2.7-3.688,21.907,21.907,0,0,1,5.348-12.724l0.922,1.607,0.824,0.172A23.054,23.054,0,0,1,84.3,61.581l0.019,0.01c0.627-1.859,1.7-4.485,3.094-5.853a50.48,50.48,0,0,1,7.232-5.193L97.308,47l2.053,0.13a39.37,39.37,0,0,0,.187-4.5s-0.007-.009-0.009-0.014c-0.166-.348-3.871-8.244.411-11.588,3.561-2.78,10.02-2.586,13.038-.108s2.867,7.232,1.959,9.35l0.43,0.232c-0.156.006-.3,0.017-0.465,0.017,0,0,1.044,4.163.418,4.436a8.713,8.713,0,0,1-1.693.439,3.014,3.014,0,0,1-.432,1.6,8.392,8.392,0,0,0-.829,1.736,1.153,1.153,0,0,1-.648,1.066c-0.713.389-4.826,0.072-4.826,0.072l0.54,2.233a6.877,6.877,0,0,1,1.765,1.311,12.756,12.756,0,0,0,3.3,1.851l-0.043,1.858s4.019,7.945,4.264,9.422c0.183,1.1.133,7.2,0.1,10.27l1.723,0.483,1.107,2.4,5.716,5.071L153.953,108l1.567-1.383,0.738,0.553-0.646,2.49ZM96.178,154.137c-1.071.917-3.274,2.9-3.375,3.789-0.133,1.176-.531,7.425,1.078,7.9,0.114,0.033.206,0.071,0.315,0.1,0.15-1.163.388-2.132,0.388-2.132a18.184,18.184,0,0,0,1.567-4.887A22.613,22.613,0,0,0,96.178,154.137Zm35.739-55.819a8.407,8.407,0,0,1-2.12-.922,27.207,27.207,0,0,1-1.936-2.121s-4.61,4.241-5.164,4.057a54.925,54.925,0,0,1-4.7-4.277,2.649,2.649,0,0,1-.553.773,3.458,3.458,0,0,1-2.523.8l-0.072,1.339c2.615,2.074,6.184,4.885,7.574,5.886,2.3,1.659,5.163,3.135,5.9,2.766,0.559-.28,3.869-5.162,5.44-7.512A11.4,11.4,0,0,1,131.916,98.318Z"/>
</svg>
