<svg xmlns="http://www.w3.org/2000/svg" width="200" height="200" viewBox="0 0 200 200">
  <metadata><?xpacket begin="﻿" id="W5M0MpCehiHzreSzNTczkc9d"?>
<x:xmpmeta xmlns:x="adobe:ns:meta/" x:xmptk="Adobe XMP Core 5.6-c138 79.159824, 2016/09/14-01:09:01        ">
   <rdf:RDF xmlns:rdf="http://www.w3.org/1999/02/22-rdf-syntax-ns#">
      <rdf:Description rdf:about=""/>
   </rdf:RDF>
</x:xmpmeta>
                                                                                                    
                                                                                                    
                                                                                                    
                                                                                                    
                                                                                                    
                                                                                                    
                                                                                                    
                                                                                                    
                                                                                                    
                                                                                                    
                                                                                                    
                                                                                                    
                                                                                                    
                                                                                                    
                                                                                                    
                                                                                                    
                                                                                                    
                                                                                                    
                                                                                                    
                                                                                                    
                           
<?xpacket end="w"?></metadata>
<defs>
    <style>
      .cls-1 {
        fill: #fff;
        fill-rule: evenodd;
      }
    </style>
  </defs>
  <path class="cls-1" d="M153.59,99.934l-2.741,1.544-14.546,1.3c-0.285,1.057-.745,2.513-1.156,2.691-0.653.282-2.078-.52-2.449-0.364a17.666,17.666,0,0,1-4.23.4,5.378,5.378,0,0,0-2.694.527l-1.543,3a16.708,16.708,0,0,0,1.9,4.616s-1.373,2.226-1.878,2.8-1.157,3.7-2.315,5.024a14.5,14.5,0,0,1-2.274,1.832,7.466,7.466,0,0,1,3.973,1.136c3.54,2.529,1.662,7.768-.476,11.644-2.108,4.672-6.132,13.25-7.778,14.458-0.268.2-2.058,1-3.816,1.772a9.632,9.632,0,0,0-.612,4.4c0.089,1.774,1.692,2.145,2.33,2.464a34.779,34.779,0,0,0,3.993,1.2c1.534,0.312,3.087-.215,3.777.646s1.8,2.939.757,3.414-6.9.712-9.439,0.544a13.1,13.1,0,0,1-3.941-.767,19.206,19.206,0,0,1-3.606.594,21.018,21.018,0,0,1-4.8-.49c-0.393-1.544-.2-5.937.475-6.493s3.9-5.764,5.58-9.187l-0.573-.834a20.2,20.2,0,0,1,1.9-5.654c-0.293.195-.653,0.444-1.113,0.781-3.731,2.729-7.421,3.458-8.171,4.735s-1.336,6.092-1.336,6.092,0.442,4,.479,5.1a14.312,14.312,0,0,1-1.3,7.047,25.256,25.256,0,0,1-2.523,4.193,10,10,0,0,1-9.133-.416c-2.23-1.252-5.529-3.347-5.529-3.347s-4.608,0-4.868-2.018,2.063-8.044,2.063-8.044-1.076-3.492-1.911-6.88c-2.875-.739-5.831-1.775-6.519-3.036-1.425-2.612-1.425-6.887-1.425-6.887a2.842,2.842,0,0,1-.712-1.9c0-1.188.475-4.75,0.475-4.75l4.489-.359c-0.148-.659-0.237-1.049-0.237-1.049a13.4,13.4,0,0,1-1.157-3.079c-2.224-1.031-5.131-2.389-5.492-2.605-0.594-.357-3.325-2.969-3.087-3.919s2.493-5.461,2.493-5.461a19.333,19.333,0,0,0-2.137-1.663c-0.95-.593.95-2.018,0.95-2.018L61,111s2.019-5.937,3.206-6.174c0.842-.169,3.825-1.111,5.494-1.646,1.25-3.27,3.287-7.213,5.362-7.589,2.33-.423,5.669,1.336,5.669,1.336l2.013-1.435,0.026,0.074,1.759-1.325s-0.392-5.969,1.774-8.362,8.234-4.231,12.379-1.432a7.476,7.476,0,0,1,3.462,7.472c-0.114.57-.4,1.923-0.4,1.923l1.262,0.306a4.209,4.209,0,0,1-1.6.123l0.024,0.13,0.057-.026,2.137,0.712,0.119,1.187,1.662-.95-0.118-.712,1.306-1.543,1.187,0.712,8.074,0.712,1.662,1.5,6.412,0,1.424,0.888,38.728,1.187,0.474-2.256h1.663l0.475,2.018,3.59,0.594v1.544ZM96.381,121.583l1.959,7.532a91.674,91.674,0,0,1,9.6-3.7A39.335,39.335,0,0,1,97.4,119.2ZM115.5,104s-4.512-.119-5.937-0.238-1.069-1.069-1.069-1.069l-1.543-1.187-0.594.594-2.374,1.662a13.194,13.194,0,0,1-2.256,0,25.6,25.6,0,0,1-3.087-.95l-0.376.376,5.362,3.186a14.445,14.445,0,0,1,1.663,3.087c0,0.313,1.583,1.813,3.081,3.163a28.682,28.682,0,0,0,4.874-5.419,21.181,21.181,0,0,1,2.256-2.26V104Zm0,5.343v-0.348c-1.886,1.778-4.534,4.256-5.5,5.075,0.583,0.51.985,0.853,0.985,0.853s0.475,0,1.662-1.306a51.319,51.319,0,0,1,5.937-4.393l0.271-.441Zm-9.965-16.31c0.065,0.078.11,0.128,0.11,0.128s-0.207.106-.524,0.251Z"/>
</svg>
