<svg xmlns="http://www.w3.org/2000/svg" width="200" height="200" viewBox="0 0 200 200">
  <metadata><?xpacket begin="﻿" id="W5M0MpCehiHzreSzNTczkc9d"?>
<x:xmpmeta xmlns:x="adobe:ns:meta/" x:xmptk="Adobe XMP Core 5.6-c138 79.159824, 2016/09/14-01:09:01        ">
   <rdf:RDF xmlns:rdf="http://www.w3.org/1999/02/22-rdf-syntax-ns#">
      <rdf:Description rdf:about=""/>
   </rdf:RDF>
</x:xmpmeta>
                                                                                                    
                                                                                                    
                                                                                                    
                                                                                                    
                                                                                                    
                                                                                                    
                                                                                                    
                                                                                                    
                                                                                                    
                                                                                                    
                                                                                                    
                                                                                                    
                                                                                                    
                                                                                                    
                                                                                                    
                                                                                                    
                                                                                                    
                                                                                                    
                                                                                                    
                                                                                                    
                           
<?xpacket end="w"?></metadata>
<defs>
    <style>
      .cls-1 {
        fill: #fff;
        fill-rule: evenodd;
      }
    </style>
  </defs>
  <path class="cls-1" d="M150.764,115.14l0.582,1.1-0.948.789-6.21-6.359-1.05.219-9.47-10.071s-0.233.11-.552,0.25a15.87,15.87,0,0,1-1.385,3.544c-0.545.57-4.67,3.492-5.28,3.867a17.137,17.137,0,0,1-3.785.564,71.538,71.538,0,0,1-6.641-4.014c-0.592-.5-2-1.9-3.379-3.293-0.353,3.587-.855,9.411-0.855,9.411s6.567,19.395,5.039,23.518-0.954,15.845-1.565,16.914-2.787,1.68-2.787,1.68a6.1,6.1,0,0,0-1.222,3.4,11.46,11.46,0,0,0,2.52,7.484c1.375,1.679,3.818,2.138,5.651,2.9s3.359,3.971,3.359,3.971H105.529c-0.458-.916-0.152-5.193-0.458-8.4s-1.6-9.086-1.6-9.086-1.986-1.833-2.291-3.36c-0.092-.462-0.15-2.445-0.193-5-3.809,2.241-9.271,5.359-10.344,5.456a8.148,8.148,0,0,1-3.207-.42,20.248,20.248,0,0,0-3.742,1.718c-1.222.917-3.971,3.665-3.971,3.665l-1.374,7.025a21.6,21.6,0,0,0,1.985,5.063,26.689,26.689,0,0,1,1.68,3.054,6.9,6.9,0,0,1-3.818,0c-1.985-.611-7.178-6.9-7.33-8.422s-0.305-2.749-.305-2.749l-1.374-.153c-1.985-1.374-3.665-5.956-3.665-5.956s3.054-1.832,5.04-3.207,5.345-2.405,7.33-3.474a12.1,12.1,0,0,0,3.436-3.016s0.489-.145,1.329-2.474c0.676-1.873,12.34-9.973,12.34-9.973a3.489,3.489,0,0,0,.764-3.207c-0.362-.994-0.669-5.354-0.86-8.752l-0.056-.105c-1.374-2.6-5.04-13.592-5.04-13.592-1.985-1.374-6.72-8.552-6.72-8.552s-0.763-7.33.611-8.094,5.04,1.985,5.04,1.985L89.4,89c-1.9-1.163-3.366-2.061-3.719-2.282a1.462,1.462,0,0,1-.507-1.024l-0.638.108-0.344-6.872A10.948,10.948,0,0,1,81.9,75.949c-0.458-1.26-.115-5.612-0.115-5.612L77.659,66.9s1.947-11.927,2.634-12.843,5.727-1.031,5.727-1.031l3.894,0.8,1.718-.458s3.78-2.978,4.925-3.322a6.484,6.484,0,0,1,2.52-.115l1.621-4.963,0.034-1.233c-0.095-.016-0.3-0.055-0.569-0.12-0.734-.935-2.14-2.927-1.867-4.156C98.663,37.812,99.671,38,99.671,38s-0.916-4.856.825-6.689,8.557-3.886,12.1-.458c2.932,2.841,1.1,9.713,1.1,9.713l-0.711,3.057-0.207.064c-0.429,1.745-1.277,4.845-2.012,5.335-1.031.687-.8,0.687-0.8,0.687l-0.015.162a36.984,36.984,0,0,1,5.742,3.274c1.26,1.145,3.894,1.833,5.04,4.581s1.718,8.644,2.52,10.934a15.985,15.985,0,0,1,.615,5.229l1.294,10.234,8.033,11.6,16.18,17.55,1.738-1.137,0.647,0.648Zm-21.7-14.52a8.348,8.348,0,0,1-1.955-1.208,26.976,26.976,0,0,1-1.6-2.361s-5.136,3.517-5.654,3.257-5.187-6.4-5.187-6.4l-1.564-.475c-0.046,2.065-.1,3.869-0.16,5.063,2.192,2.317,4.879,5.135,6,6.213,2.031,1.959,4.633,3.816,5.411,3.558,0.59-.2,4.539-4.528,6.418-6.616A11.3,11.3,0,0,1,129.068,100.62Z"/>
</svg>
