<svg xmlns="http://www.w3.org/2000/svg" width="200" height="200" viewBox="0 0 200 200">
  <metadata><?xpacket begin="﻿" id="W5M0MpCehiHzreSzNTczkc9d"?>
<x:xmpmeta xmlns:x="adobe:ns:meta/" x:xmptk="Adobe XMP Core 5.6-c138 79.159824, 2016/09/14-01:09:01        ">
   <rdf:RDF xmlns:rdf="http://www.w3.org/1999/02/22-rdf-syntax-ns#">
      <rdf:Description rdf:about=""/>
   </rdf:RDF>
</x:xmpmeta>
                                                                                                    
                                                                                                    
                                                                                                    
                                                                                                    
                                                                                                    
                                                                                                    
                                                                                                    
                                                                                                    
                                                                                                    
                                                                                                    
                                                                                                    
                                                                                                    
                                                                                                    
                                                                                                    
                                                                                                    
                                                                                                    
                                                                                                    
                                                                                                    
                                                                                                    
                                                                                                    
                           
<?xpacket end="w"?></metadata>
<defs>
    <style>
      .cls-1 {
        fill: #fff;
        fill-rule: evenodd;
      }
    </style>
  </defs>
  <path id="rest" class="cls-1" d="M183.462,145.484l-2.317,1.772-17.271-.331-2.309.833-1.165-.023c-1.139,5.3-4.419,17-11.194,17a25.9,25.9,0,0,1-4.964-.538c-1.588,1.961-3.63,3.817-5.623,3.712-2.565-.135-8.373-3.348-12.452-5.793l-0.028.1a20.784,20.784,0,0,1-3.942,4.6c-2.189,1.752-7.225,4.16-8.32,3.941s-7.225-4.16-7.225-4.16-8.977,1.095-10.947,1.533-11.385-2.189-11.385-2.189H24.327L22.9,164.3s-11.385,0-13.575.876-8.32-1.751-8.32-1.751-0.438-6.131,5.255-7.007,15.764,1.314,15.764,1.314l0.985-1.861a35.449,35.449,0,0,1,8.1-.876c3.284,0.219,15.545.438,16.64,0.876s3.941,1.095,4.16.219,1.314-3.065,3.065-3.5,12.918-1.314,15.545-2.847,7.006-1.751,7.006-1.751l-2.408-5.036s13.356-8.539,18.611-10.729,7.225,0.657,7.225.657l3.723-2.189V136.6s3.5-.875,4.6-1.094a31.2,31.2,0,0,1,4.6,0s1.752-8.539,8.32-8.539a9.712,9.712,0,0,1,10.072,9.852c0,4.817-1.97,5.474-1.97,5.474l0.125,0.878,0.011,0a17.164,17.164,0,0,1,1.836-1.977c0.706-.565,3.108,1.412,3.108,1.412l2.253-1.6,0.283-1.7,1.836,1.13,7.344-.283,0.989,1.271,6.921-.282L155.287,142l39.461,0.989,0.706-1.977,1.271-.283,0.141,2.4,2.119,0.141v1.349Zm-41.894,1.879-4.386-.087,0.123,0.056,0.876,7.225,3.722-.876L143,150.835Zm13.013,0.257-2.388,2.558-3.065,3.284-1.97,6.35s-0.435.825-1.16,1.948a10.7,10.7,0,0,0,4.667-.758c3.845-1.922,5.812-9.433,6.593-13.329Z"/>
</svg>
