<svg xmlns="http://www.w3.org/2000/svg" width="200" height="200" viewBox="0 0 200 200">
  <metadata><?xpacket begin="﻿" id="W5M0MpCehiHzreSzNTczkc9d"?>
<x:xmpmeta xmlns:x="adobe:ns:meta/" x:xmptk="Adobe XMP Core 5.6-c138 79.159824, 2016/09/14-01:09:01        ">
   <rdf:RDF xmlns:rdf="http://www.w3.org/1999/02/22-rdf-syntax-ns#">
      <rdf:Description rdf:about=""/>
   </rdf:RDF>
</x:xmpmeta>
                                                                                                    
                                                                                                    
                                                                                                    
                                                                                                    
                                                                                                    
                                                                                                    
                                                                                                    
                                                                                                    
                                                                                                    
                                                                                                    
                                                                                                    
                                                                                                    
                                                                                                    
                                                                                                    
                                                                                                    
                                                                                                    
                                                                                                    
                                                                                                    
                                                                                                    
                                                                                                    
                           
<?xpacket end="w"?></metadata>
<defs>
    <style>
      .cls-1 {
        fill: #fff;
        fill-rule: evenodd;
      }
    </style>
  </defs>
  <path class="cls-1" d="M162.777,77.211l-0.409,1.471-17.4,3.472c1.161,1.291,2.467,2.892,2.406,3.5-0.109,1.09-2.07,2.18-6.538,2.833-3.066.449-7.209-1.411-9.507-2.623,0.158,0.245.269,0.422,0.313,0.5a56.052,56.052,0,0,1,1.062,6.048s-1.226,3.433-3.106,4.332-6.211.163-6.7-.082c-0.366-.183-1.867-2.592-3.184-4.212l-5.794,6.61s-0.865.863-2.143,2.034c-0.49,1.114-1.008,2.282-1.5,3.38,7.531,6.158,15.921,13.17,15.921,13.17a3.171,3.171,0,0,1,.577.8c4,4.542,5.895,10.2,5.409,10.733-0.509.558-6.033,5.837-6.033,5.837l-10.654,4.667-3.041,2.666-5.311,1.1-4.466-.908c-2.269.312-4.351,3.415-4.772,4.339s-1.119,7.849-1.119,7.849l1.383,2.306-0.017,2.81s-0.671.514-3.562-.11a8.64,8.64,0,0,1-5.213-3.8c-0.67-.987-0.636-5.547-0.841-6.957S87.3,148.7,87.3,148.7a8.1,8.1,0,0,1-.414-1.91,56.053,56.053,0,0,0-4.4,3.771c-1.635,1.8-7.683,2.616-7.683,2.616l-2.615-.817s-2.779,2.615-2.779,4.9,0.127,7.09,1.471,7.846c3.487,1.962,3.269,4.25,3.269,4.25l-2.227,1.666s-5.946-.685-7.254-1.829-2.615-7.029-3.106-7.847a1.83,1.83,0,0,0-1.471-.817c-2.616-3.6-2.288-5.395-1.144-7.029s6.212-4.577,6.212-4.577a11.492,11.492,0,0,0,1.856-1.649l0.575-3.681,14.875-13.731,4.857-14.809c0.183-.969.35-1.859,0.487-2.588-1.16-.716-1.919-1.195-2.054-1.3-0.626-.5-3.259-7.41-4.461-10.625l-3.282.786c-2.207-4-1.226-10.871-1.226-10.871l4.509-.52c-3.819-1.708-9.153-4.2-10.231-5.283a9.069,9.069,0,0,1-2.125-4.5c2.861-8.909,16.265-17.327,17.409-19.289s3.678-3.923,7.683-5.231,11.688-1.308,11.688-1.308,1.635-1.471,1.962-1.8a7.454,7.454,0,0,1,1.724-.742c-0.009-.3-0.008-0.484-0.008-0.484s-1.88-7.356,3.106-10.544,13.649-1.716,14.549,4.986-0.654,7.683-.654,7.683l0.163,4.087-1.308.654h-1.144l-0.327,1.308-1.623,3a14.375,14.375,0,0,1,3.34,3.127c0.9,1.553,1.144,5.967,1.144,5.967l0.5,7.081,45.034-5.39,0.218-2.289,1.2-.109,0.981,2.071,2.942-.436,0.218,1.635Zm-59.318,44.748c-1.629,3.152-3.684,7.026-5.57,10.524a36.622,36.622,0,0,1-1.362,4.679l3.358-1.553,1.757-3.952L110.455,126l-0.5-.126S107.155,124.188,103.459,121.959Zm10.706-34.826-1.135.9-1.6,3.511s2.385,2.523,2.495,4.1a27.929,27.929,0,0,0,3.5-5.329C116.26,89.276,114.814,87.8,114.165,87.133Zm28.466-4.514-9.54,1.9a11.564,11.564,0,0,0,3.6,1.9c3.6,0.872,6.647-.218,7.3-1.308C144.4,84.44,143.429,83.354,142.631,82.62Z"/>
</svg>
