<svg xmlns="http://www.w3.org/2000/svg" width="400" height="200" viewBox="0 0 400 200">
  <metadata><?xpacket begin="﻿" id="W5M0MpCehiHzreSzNTczkc9d"?>
<x:xmpmeta xmlns:x="adobe:ns:meta/" x:xmptk="Adobe XMP Core 5.6-c138 79.159824, 2016/09/14-01:09:01        ">
   <rdf:RDF xmlns:rdf="http://www.w3.org/1999/02/22-rdf-syntax-ns#">
      <rdf:Description rdf:about=""/>
   </rdf:RDF>
</x:xmpmeta>
                                                                                                    
                                                                                                    
                                                                                                    
                                                                                                    
                                                                                                    
                                                                                                    
                                                                                                    
                                                                                                    
                                                                                                    
                                                                                                    
                                                                                                    
                                                                                                    
                                                                                                    
                                                                                                    
                                                                                                    
                                                                                                    
                                                                                                    
                                                                                                    
                                                                                                    
                                                                                                    
                           
<?xpacket end="w"?></metadata>
<defs>
    <style>
      .cls-1 {
        fill: #27292c;
      }

      .cls-1, .cls-2 {
        fill-rule: evenodd;
      }

      .cls-2 {
        fill: #e8e8e8;
      }
    </style>
  </defs>
  <path class="cls-1" d="M395,133v20H330l-28-28H114C82.97,125,5.965,112.143,6,100,6.036,87.594,82.97,75,114,75c10.112-.249,25,0,25,0H302l28-28h65V67L361,84v32Z"/>
  <path id="Rectangle_2_copy_3" data-name="Rectangle 2 copy 3" class="cls-2" d="M400,130v28H328l-28-28H108C76.97,130-.035,112.143,0,100,0.036,87.594,76.97,70,108,70H300l28-28h72V70L366,85V96h34v8H366v11ZM102,80c-31.03,0-92,12.726-92,20,0,7.381,60.97,20,92,20h31V91.98H121.122c-49.794,0-75.489,4.622-94.644,7.291-6.8,1.615-6.412-.26-2.544-1.717,33.482-12.608,97.489-11.572,97.489-11.572H133V80S112.112,79.751,102,80Zm193,0H142v5.983H259.521c47.885,0.022-18.71,5.819-50.131,6H142V120H295V80Zm95-15V52H332L304,80V96h52V80Zm-34,55V104H304v16l28,28h58V135Z"/>
</svg>
