<svg id="_30_panzergrenadier_icon" data-name="30_panzergrenadier_icon" xmlns="http://www.w3.org/2000/svg" width="150" height="150" viewBox="0 0 150 150">
  <defs>
    <style>
      .cls-1 {
        fill: #eee;
        fill-rule: evenodd;
      }
    </style>
  </defs>
  <path class="cls-1" d="M77.571,5.974A2.571,2.571,0,1,1,75,3.4,2.571,2.571,0,0,1,77.571,5.974Zm30.6,14.122c-1.038,2.258-7.419,1.541-14.251-1.6S82.391,10.979,83.428,8.722s7.418-1.541,14.251,1.6S109.21,17.838,108.173,20.1Zm19.018,32.133c-2.152,1.242-6.944-3.03-10.7-9.543s-5.064-12.8-2.913-14.042,6.944,3.03,10.7,9.543S129.343,50.987,127.191,52.229Zm0.582,36.85c-2.484,0-4.5-6.1-4.5-13.617s2.014-13.617,4.5-13.617,4.5,6.1,4.5,13.617S130.258,89.079,127.773,89.079Zm-13.4,33.781c-2.257-1.038-1.541-7.418,1.6-14.251s7.517-11.531,9.774-10.493,1.542,7.418-1.6,14.251S116.632,123.9,114.374,122.86ZM81.919,142.2c-1.242-2.152,3.03-6.944,9.543-10.7s12.8-5.064,14.042-2.912-3.03,6.944-9.543,10.7S83.162,144.351,81.919,142.2ZM84.835,5.492A27.22,27.22,0,0,1,98.652,8.384c9.517,5.234,11.086,12.532,11.086,12.532s2.089-1.928.161-8.355S98.974,1.154,92.708,1.475A11.408,11.408,0,0,0,84.835,5.492Zm31.4,21.174a27.222,27.222,0,0,1,10,9.965c5.117,9.58,2.448,16.552,2.448,16.552s2.8-.475,4.695-6.913-2.928-15.521-8.354-18.672A11.408,11.408,0,0,0,116.23,26.665Zm13.923,34.074a27.22,27.22,0,0,1,4.237,13.466c0.091,10.861-5.506,15.8-5.506,15.8s2.7,0.878,7.365-3.947,4.6-15.109,1.259-20.417A11.409,11.409,0,0,0,130.153,60.739Zm-0.939,38.446a27.225,27.225,0,0,1-2.587,13.878c-5.024,9.63-12.285,11.359-12.285,11.359s1.973,2.046,8.356-.023,11.164-11.174,10.7-17.432A11.41,11.41,0,0,0,129.214,99.185Zm-21.678,32.538a27.224,27.224,0,0,1-10.4,9.543c-9.8,4.682-16.645,1.7-16.645,1.7s0.349,2.821,6.7,5,15.637-2.229,19.028-7.508A11.407,11.407,0,0,0,107.536,131.723Zm-26.4-119.8A23.185,23.185,0,0,0,94.314,21.4c9.158,2.571,14.621.321,14.621,0.321s-2.41,7.551-15.424,4.82C81.145,23.944,80.336,14.328,81.14,11.918Zm28.207,18.555a23.184,23.184,0,0,0,6.074,15.051c6.369,7.065,12.188,8.082,12.188,8.082S121.538,58.7,112,49.441C102.928,40.642,107.38,32.081,109.347,30.473ZM123.7,60.838a23.183,23.183,0,0,0-2.771,15.992c1.689,9.361,6.1,13.292,6.1,13.292s-7.845,1.131-11.074-11.769C112.888,66.1,121.184,61.168,123.7,60.838ZM123.042,95.77a23.182,23.182,0,0,0-9.577,13.1c-2.639,9.139-.43,14.618-0.43,14.618s-7.534-2.466-4.706-15.459C111.017,95.686,120.638,94.949,123.042,95.77Zm-18.067,29.5a23.184,23.184,0,0,0-15.509,4.786c-7.576,5.751-9.079,11.465-9.079,11.465s-4.567-6.479,5.464-15.208C95.383,118.017,103.538,123.175,104.975,125.269Zm5.888-97.926a2.571,2.571,0,1,1-2.571-2.571A2.571,2.571,0,0,1,110.863,27.343ZM116,24.451a2.571,2.571,0,1,1-2.57-2.571A2.571,2.571,0,0,1,116,24.451ZM127.09,58.03a2.571,2.571,0,1,1-2.57-2.571A2.571,2.571,0,0,1,127.09,58.03Zm5.624,0a2.571,2.571,0,1,1-2.571-2.571A2.571,2.571,0,0,1,132.714,58.03Zm-5.945,35.025a2.571,2.571,0,1,1-2.571-2.571A2.571,2.571,0,0,1,126.769,93.056Zm5.623,1.928a2.571,2.571,0,1,1-2.57-2.571A2.57,2.57,0,0,1,132.392,94.984ZM110.7,123.9a2.571,2.571,0,1,1-2.57-2.571A2.57,2.57,0,0,1,110.7,123.9Zm4.017,4.5a2.571,2.571,0,1,1-2.571-2.57A2.571,2.571,0,0,1,114.719,128.4ZM41.827,20.1c1.038,2.258,7.418,1.541,14.251-1.6s11.531-7.517,10.493-9.774-7.418-1.541-14.251,1.6S40.79,17.838,41.827,20.1ZM22.809,52.229c2.152,1.242,6.944-3.03,10.7-9.543s5.064-12.8,2.912-14.042-6.944,3.03-10.7,9.543S20.658,50.987,22.809,52.229Zm-0.582,36.85c2.485,0,4.5-6.1,4.5-13.617s-2.014-13.617-4.5-13.617-4.5,6.1-4.5,13.617S19.742,89.079,22.227,89.079Zm13.4,33.781c2.258-1.038,1.541-7.418-1.6-14.251s-7.517-11.531-9.774-10.493-1.541,7.418,1.6,14.251S33.368,123.9,35.626,122.86ZM68.081,142.2c1.242-2.152-3.03-6.944-9.543-10.7s-12.8-5.064-14.042-2.912,3.03,6.944,9.543,10.7S66.838,144.351,68.081,142.2ZM65.165,5.492A27.22,27.22,0,0,0,51.348,8.384c-9.517,5.234-11.086,12.532-11.086,12.532s-2.089-1.928-.161-8.355S51.026,1.154,57.292,1.475A11.408,11.408,0,0,1,65.165,5.492ZM33.77,26.665a27.22,27.22,0,0,0-10,9.965c-5.117,9.58-2.449,16.552-2.449,16.552s-2.8-.475-4.695-6.913S19.555,30.748,24.981,27.6A11.408,11.408,0,0,1,33.77,26.665ZM19.847,60.739A27.221,27.221,0,0,0,15.61,74.205C15.519,85.066,21.116,90,21.116,90s-2.7.878-7.365-3.947-4.6-15.109-1.259-20.417A11.408,11.408,0,0,1,19.847,60.739Zm0.94,38.446a27.221,27.221,0,0,0,2.587,13.878c5.023,9.63,12.285,11.359,12.285,11.359s-1.974,2.046-8.356-.023-11.164-11.174-10.7-17.432A11.408,11.408,0,0,1,20.786,99.185Zm21.677,32.538a27.226,27.226,0,0,0,10.4,9.543c9.8,4.682,16.645,1.7,16.645,1.7s-0.349,2.821-6.7,5-15.637-2.229-19.028-7.508A11.41,11.41,0,0,1,42.464,131.723Zm26.4-119.8A23.185,23.185,0,0,1,55.686,21.4c-9.158,2.571-14.621.321-14.621,0.321s2.41,7.551,15.424,4.82C68.855,23.944,69.664,14.328,68.861,11.918ZM40.653,30.473a23.185,23.185,0,0,1-6.074,15.051c-6.369,7.065-12.188,8.082-12.188,8.082S28.462,58.7,38,49.441C47.073,40.642,42.62,32.081,40.653,30.473ZM26.3,60.838A23.185,23.185,0,0,1,29.068,76.83c-1.689,9.361-6.1,13.292-6.1,13.292s7.846,1.131,11.074-11.769C37.112,66.1,28.816,61.168,26.3,60.838ZM26.958,95.77a23.185,23.185,0,0,1,9.577,13.1c2.639,9.139.43,14.618,0.43,14.618s7.533-2.466,4.705-15.459C38.983,95.686,29.362,94.949,26.958,95.77Zm18.067,29.5a23.184,23.184,0,0,1,15.509,4.786c7.576,5.751,9.079,11.465,9.079,11.465s4.567-6.479-5.464-15.208C54.617,118.017,46.462,123.175,45.025,125.269ZM39.137,27.343a2.571,2.571,0,1,0,2.571-2.571A2.571,2.571,0,0,0,39.137,27.343ZM34,24.451a2.571,2.571,0,1,0,2.571-2.571A2.571,2.571,0,0,0,34,24.451ZM22.91,58.03a2.571,2.571,0,1,0,2.571-2.571A2.571,2.571,0,0,0,22.91,58.03Zm-5.623,0a2.571,2.571,0,1,0,2.571-2.571A2.571,2.571,0,0,0,17.286,58.03Zm5.945,35.025A2.571,2.571,0,1,0,25.8,90.485,2.571,2.571,0,0,0,23.231,93.056Zm-5.623,1.928a2.571,2.571,0,1,0,2.571-2.571A2.571,2.571,0,0,0,17.608,94.984ZM39.3,123.9a2.571,2.571,0,1,0,2.571-2.571A2.571,2.571,0,0,0,39.3,123.9Zm-4.017,4.5a2.571,2.571,0,1,0,2.571-2.57A2.571,2.571,0,0,0,35.281,128.4ZM77.571,12.24A2.571,2.571,0,1,1,75,9.669,2.571,2.571,0,0,1,77.571,12.24Zm0,125.642A2.571,2.571,0,1,1,75,135.311,2.57,2.57,0,0,1,77.571,137.882Zm0,6.266A2.571,2.571,0,1,1,75,141.577,2.57,2.57,0,0,1,77.571,144.148Z"/>
</svg>
