<svg id="_326_infantry_division" data-name="326_infantry_division" xmlns="http://www.w3.org/2000/svg" width="150" height="150" viewBox="0 0 150 150">
  <defs>
    <style>
      .cls-1 {
        fill: #eee;
      }

      .cls-1, .cls-2 {
        fill-rule: evenodd;
      }

      .cls-2 {
        fill: #151515;
      }
    </style>
  </defs>
  <path class="cls-1" d="M75.166,146.5H74.834c-31.941,0-58.406-25.893-58.406-57.834V3.5H133.571V88.666C133.571,120.607,107.107,146.5,75.166,146.5Z"/>
  <path class="cls-2" d="M106.234,103.583a4.009,4.009,0,0,0-1.814-.808,7.143,7.143,0,0,0,1.445-.766,4.075,4.075,0,0,0,1.986-3.272,2.636,2.636,0,0,0-2.164-2.333,8.488,8.488,0,0,0-2.123-.248,4.61,4.61,0,0,0,1.111-3.438,0.673,0.673,0,0,0-.648-0.648c-1.07-.116-2.143-0.23-3.219-0.327V90.868h6.157a0.742,0.742,0,0,0,.593-1.186l-2.638-3.519a0.742,0.742,0,0,0-.593-0.3h-1.216l-1.656-61.244-4.3-11.649H95.94L91.684,24.383l-1.7,61.482H88.766a0.741,0.741,0,0,0-.593.3l-2.637,3.519a0.741,0.741,0,0,0,.593,1.186h6.342v0.71c-0.457.036-.914,0.077-1.369,0.133a22.524,22.524,0,0,0-5.982,1.532,28.046,28.046,0,0,0-5.283,3.177,15.914,15.914,0,0,1-5.786,2.927,16.81,16.81,0,0,1-7.116-.313c-4.661-1.036-9.182-2.669-13.82-3.811a51.563,51.563,0,0,0-15.773-1.749c-0.828.056-.835,1.353,0,1.3a48.745,48.745,0,0,1,14.4,1.456c4.669,1.092,9.2,2.664,13.852,3.822,4.29,1.069,8.658,1.336,12.594-.981,1.771-1.042,3.351-2.372,5.105-3.441a18.885,18.885,0,0,1,6.149-2.345,31.269,31.269,0,0,1,6.9-.524l0.3,1.748a0.654,0.654,0,0,0,.8.453,0.663,0.663,0,0,0,.453-0.8L97.66,92.806c1.918,0.095,3.834.288,5.727,0.491a3.408,3.408,0,0,1-2.185,2.981L101,96.3a31.447,31.447,0,0,0-5.411.916,15.677,15.677,0,0,0-5.152,1.972,2.519,2.519,0,0,0-1.09,2.483,1.966,1.966,0,0,0,.965,1.513l0,0a3.484,3.484,0,0,0-1.05.917c-0.019.014-.039,0.026-0.058,0.041a0.67,0.67,0,0,0-.267.477,3.542,3.542,0,0,0,1.081,4.519,3.567,3.567,0,0,0-1.277,5.74,4.454,4.454,0,0,0,1.9,1.111,2.2,2.2,0,0,0-.618.405c-0.071.052-.142,0.106-0.212,0.164a0.545,0.545,0,0,0-.215.407,2.138,2.138,0,0,0-.185,1.326,3.506,3.506,0,0,0,2.078,2.335c-2.918.281-5.347-2.25-7.6-3.8a16.838,16.838,0,0,0-8.7-2.726,64.281,64.281,0,0,0-10.411.72q-5.331.563-10.693,0.763-5.994.224-11.991-.009a0.648,0.648,0,0,0,0,1.3,158.872,158.872,0,0,0,21.418-.625c6.744-.657,14.2-2.311,20.124,1.984,2.665,1.932,5.515,4.514,9.077,3.482a0.612,0.612,0,0,0,.091-0.052v0.913a3.242,3.242,0,0,0,.371,6.462h7.039a3.242,3.242,0,0,0,.371-6.462V122.39l0.117,0c2.283,0.031,5.522-1.052,5.141-3.951a2.635,2.635,0,0,0-1.874-2.209,4.768,4.768,0,0,0,1.763-1.808,3.96,3.96,0,0,0,.175-3.5,3.117,3.117,0,0,0-1.1-1.313,3.278,3.278,0,0,0,2.832-2.634A3.738,3.738,0,0,0,106.234,103.583Zm-13.118-78.8,3.431-9.2,3.431,9.2,1.644,60.8H97.288V18.437a0.741,0.741,0,1,0-1.482,0v67.15H91.473ZM89.137,87.348h14.819l1.527,2.037H87.61Zm4.817,4.146V90.868h5.372v0.755A49.427,49.427,0,0,0,93.954,91.494Zm-0.159,7.612a30.281,30.281,0,0,1,4.651-1.191q1.008-.175,2.027-0.274a0.657,0.657,0,0,0,.436.066,4.314,4.314,0,0,0,.588-0.15q0.779-.05,1.558-0.06c0.981-.012,3.209-0.193,3.485,1.143,0.3,1.447-1.639,2.57-2.735,2.982a17.076,17.076,0,0,1-4.087.832,37.152,37.152,0,0,1-5.918.29,3.046,3.046,0,0,0-.482-3.478C93.522,99.2,93.69,99.142,93.795,99.106Zm-3.1,1.884a0.641,0.641,0,0,0,.009-0.308,3.524,3.524,0,0,1,1.243-.869,1.778,1.778,0,0,1,.473,2.7c-0.015.02-.023,0.04-0.035,0.059a2.763,2.763,0,0,1-1.493-.67,0.677,0.677,0,0,0-.123-0.189c-0.011-.012-0.019-0.024-0.029-0.035A0.96,0.96,0,0,1,90.7,100.99Zm-0.507,4.042a4.705,4.705,0,0,1,1.653-.569,4.1,4.1,0,0,1,.294,4.113c-0.008.017-.012,0.034-0.019,0.052a3.283,3.283,0,0,1-1.7-.832A2.189,2.189,0,0,1,90.189,105.032ZM89.53,113.8a2.262,2.262,0,0,1,1.344-3.594L90.9,110.2a6.357,6.357,0,0,1,.037,4.409,0.719,0.719,0,0,0-.03.124A3,3,0,0,1,89.53,113.8Zm2.66,5.551a0.684,0.684,0,0,0-.11.135,3.808,3.808,0,0,1-.885-0.593,1.445,1.445,0,0,1-.472-1.428,2.979,2.979,0,0,1,1.528-.614A1.674,1.674,0,0,1,92.19,119.355Zm7.645,4.672h0.37a1.759,1.759,0,1,1,0,3.518H93.166a1.759,1.759,0,1,1,0-3.518h0.37a0.741,0.741,0,0,0,.741-0.741V121.66a23.769,23.769,0,0,0,4.816.681v0.945A0.741,0.741,0,0,0,99.835,124.027Zm4.475-4.357c-0.667,1.179-2.068,1.414-3.311,1.428a30.773,30.773,0,0,1-4.169-.278,16.438,16.438,0,0,1-3.489-.794,2.914,2.914,0,0,0,.427-3.211c0.3,0.013.586,0.03,0.862,0.04l0.964,0.034c0.557,0.077,1.115.142,1.673,0.2l0.1,2.229a0.649,0.649,0,0,0,1.3,0q-0.048-1.059-.1-2.119a13.7,13.7,0,0,0,2.892-.113C103.377,117.245,105.376,117.785,104.31,119.67Zm-1.052-4.545a5.4,5.4,0,0,1-1.8.671c-0.6-.033-1.172-0.037-1.661-0.055-1.4-.049-2.8-0.1-4.2-0.151-0.67-.094-1.338-0.2-2-0.31-0.447-.074-0.951-0.135-1.457-0.227a0.714,0.714,0,0,0,.046-0.1,7.491,7.491,0,0,0,.074-4.773q4.361-.015,8.722-0.028c1.355,0,3.2-.109,3.792,1.426A3,3,0,0,1,103.258,115.125Zm1.679-6.894a14.825,14.825,0,0,1-4.6.392c-1.907.044-3.816,0.1-5.724,0.133-0.364.006-.757,0.015-1.158,0a5.4,5.4,0,0,0-.193-4.425c0.575-.021,1.146-0.019,1.684-0.043l5.909-.272c1.573-.072,3.731-0.469,4.892.886A1.978,1.978,0,0,1,104.937,108.231Zm-10.282,3.288q0.056,1.072.112,2.147c0.043,0.83,1.34.835,1.3,0q-0.056-1.074-.112-2.147C95.909,110.688,94.612,110.683,94.655,111.519Zm1.583-6.1,0.224,2.487c0.075,0.825,1.372.833,1.3,0s-0.15-1.658-.224-2.487S96.163,104.583,96.238,105.415Zm2.351-3.421a0.652,0.652,0,0,0,.648-0.648L98.994,99.2a0.668,0.668,0,0,0-.648-0.648,0.653,0.653,0,0,0-.648.648l0.244,2.146A0.668,0.668,0,0,0,98.589,101.994Z"/>
  <path class="cls-2" d="M75.166,148H74.835c-32.718,0-59.908-26.618-59.908-59.336V2H135.073V88.666C135.073,121.384,107.884,148,75.166,148ZM17.931,5V88.666c0,31.061,25.842,56.332,56.9,56.332h0.331c31.062,0,56.9-25.271,56.9-56.332V5H17.931Z"/>
</svg>
