<svg id="axis_tunisia_sniper_2_icon" xmlns="http://www.w3.org/2000/svg" width="150" height="150" viewBox="0 0 150 150">
  <defs>
    <style>
      .cls-1 {
        fill: #eee;
      }

      .cls-1, .cls-2 {
        fill-rule: evenodd;
      }

      .cls-2 {
        fill: #151515;
      }
    </style>
  </defs>
  <path id="Shape_269_copy" data-name="Shape 269 copy" class="cls-1" d="M5.047,45.613S16.8,31.56,16.105,4.606L122.539,110.349a45.918,45.918,0,0,1,22.577-5.99,66.973,66.973,0,0,0-12.21,41.008L26.242,39.854A49.4,49.4,0,0,1,5.047,45.613Z"/>
  <path id="Shape_269_copy_2" data-name="Shape 269 copy 2" class="cls-2" d="M134.2,148.3L26.038,41.309A51.04,51.04,0,0,1,5.091,46.79l-2.637.1,1.689-2.03C4.257,44.721,15.6,30.774,14.928,4.636L14.852,1.7,122.725,108.874a47.517,47.517,0,0,1,22.391-5.692h2.43l-1.506,1.908a66.375,66.375,0,0,0-11.957,40.232ZM26.425,38.379L131.683,142.5a68.64,68.64,0,0,1,11.1-36.9,45.1,45.1,0,0,0-19.614,5.742l-0.793.5-0.667-.66L17.31,7.463c-0.12,19.8-6.77,32.149-9.846,36.812a48.41,48.41,0,0,0,18.179-5.436Z"/>
</svg>
