<svg id="_503_heavy_panzer_icon" data-name="503_heavy_panzer_icon" xmlns="http://www.w3.org/2000/svg" width="150" height="150" viewBox="0 0 150 150">
  <defs>
    <style>
      .cls-1 {
        fill: #151515;
      }

      .cls-1, .cls-2 {
        fill-rule: evenodd;
      }

      .cls-2 {
        fill: #eee;
      }
    </style>
  </defs>
  <path id="Shape_33_copy_3" data-name="Shape 33 copy 3" class="cls-1" d="M75,143.987c-3.308-1.56-14.76-6.964-26.656-12.593-9.768-4.622-16.533-10.182-21.29-17.5-5.26-8.087-8.01-18.435-8.409-31.634V32.022A39.817,39.817,0,0,0,44.74,5.81h86.615V82.264c-0.4,13.2-3.149,23.547-8.409,31.634-4.757,7.314-11.522,12.874-21.29,17.5C89.644,137.079,78.286,142.437,75,143.987Z"/>
  <path id="Shape_33_copy_5" data-name="Shape 33 copy 5" class="cls-2" d="M111.693,69.56A36.693,36.693,0,1,1,75,32.867,36.693,36.693,0,0,1,111.693,69.56Z"/>
  <path id="Shape_33_copy_4" data-name="Shape 33 copy 4" class="cls-2" d="M75,26.908a42.507,42.507,0,1,1-16.6,3.35A42.381,42.381,0,0,1,75,26.908m0-3.673A46.325,46.325,0,1,0,121.325,69.56,46.325,46.325,0,0,0,75,23.235h0Z"/>
  <path id="Shape_33_copy_2" data-name="Shape 33 copy 2" class="cls-2" d="M128.295,8.87V82.218c-0.386,12.6-2.975,22.417-7.914,30.012a39.517,39.517,0,0,1-8.437,9.285,56.934,56.934,0,0,1-11.6,7.113C89.861,133.59,79.851,138.315,75,140.6c-4.588-2.165-14.8-6.985-25.347-11.976a56.938,56.938,0,0,1-11.6-7.113,39.5,39.5,0,0,1-8.437-9.285c-4.939-7.595-7.528-17.413-7.914-30.012V34.211A42.982,42.982,0,0,0,46.939,8.87h81.356m6.12-6.12H42.4A36.433,36.433,0,0,1,15.585,29.693V82.31c0.85,28.56,12.41,42.84,31.45,51.85,13.157,6.226,25.648,12.118,27.48,12.981a1.134,1.134,0,0,0,.97,0c1.832-.863,14.323-6.755,27.48-12.981,19.04-9.01,30.6-23.29,31.45-51.85V2.75h0Z"/>
  <path id="Shape_33_copy" data-name="Shape 33 copy" class="cls-1" d="M75,148.7a2.559,2.559,0,0,1-1.1-.247c-1.411-.665-14.176-6.686-27.481-12.982-10.41-4.926-17.979-11.178-23.139-19.112-5.729-8.809-8.718-19.931-9.137-34,0-.014,0-0.029,0-0.043V29.693a1.445,1.445,0,0,1,1.105-1.4A35.188,35.188,0,0,0,40.994,2.417,1.445,1.445,0,0,1,42.4,1.3h92.015A1.445,1.445,0,0,1,135.86,2.75V82.31c0,0.014,0,.029,0,0.043-0.418,14.07-3.407,25.192-9.136,34-5.161,7.934-12.73,14.186-23.14,19.112C90.129,141.833,77.5,147.79,76.1,148.448A2.555,2.555,0,0,1,75,148.7ZM17.03,82.288c0.769,25.648,9.928,40.773,30.623,50.566,12.962,6.134,25.41,12,27.347,12.919,1.923-.907,14.245-6.719,27.347-12.919,20.7-9.793,29.854-24.918,30.623-50.566V4.195H43.525a37.768,37.768,0,0,1-9.718,16.822,37.779,37.779,0,0,1-16.777,9.8V82.288Z"/>
</svg>
