<svg id="_57_grenadier_icon" data-name="57_grenadier_icon" xmlns="http://www.w3.org/2000/svg" width="150" height="150" viewBox="0 0 150 150">
  <defs>
    <style>
      .cls-1 {
        fill: #151515;
      }

      .cls-1, .cls-2 {
        fill-rule: evenodd;
      }

      .cls-2 {
        fill: #eee;
      }
    </style>
  </defs>
  <path class="cls-1" d="M122.946,113.9c-4.757,7.314-11.522,12.874-21.29,17.5C89.721,137.042,78.3,142.431,75,143.987c-3.3-1.557-14.721-6.945-26.656-12.593-9.768-4.622-16.533-10.182-21.29-17.5-5.26-8.087-8.01-18.435-8.409-31.634V5.81h112.71V82.264C130.957,95.463,128.206,105.811,122.946,113.9Z"/>
  <path class="cls-2" d="M111.584,86.909L99.418,72.351l12.166-14.558,12.165,14.558ZM112.9,64.358a1.653,1.653,0,0,0-2.63,0l-5.364,6.419a2.542,2.542,0,0,0,0,3.147l5.364,6.42a1.653,1.653,0,0,0,2.63,0l5.364-6.42a2.545,2.545,0,0,0,0-3.147ZM83.981,40.217L96.146,25.659l12.166,14.558L96.146,54.775Zm18.845,1.573a2.545,2.545,0,0,0,0-3.147l-5.365-6.42a1.652,1.652,0,0,0-2.629,0l-5.365,6.42a2.545,2.545,0,0,0,0,3.147l5.365,6.419a1.652,1.652,0,0,0,2.629,0ZM75.167,49.377c-0.6-.6-0.975-1.057-0.975-1.057a11.094,11.094,0,0,1-4.648,3.173,11.914,11.914,0,0,0,4.872.052c0.248,0.269.5,0.514,0.751,0.745v67.168c-2.137-2.586-4.422-5.215-5.311-6.557,0,0,1.776-2.417,3.183-9.965,0,0-3.682,7.521-5.359,8.789a12.933,12.933,0,0,1-5.194,1.48s5.2-6.5,6.142-9.682c0,0-3.324,3.251-6.936,3.685,0,0,8.887-6.359,10.332-16.474,0,0-2.012,2.011-4.393,1.637a36.3,36.3,0,0,1-6.806,5.661s1.734,1.445,1.734,2.529a1.477,1.477,0,0,1-1.084,1.373c-0.795.867-4.119,1.3-3.324,0.8s2.069-1.181,2.169-1.682c0.168-.839-0.89-1.836-2.1-2.148-2.24-.578-3.251,2.023-3.251,2.023a7.189,7.189,0,0,0-.795,2.6,3.451,3.451,0,0,1-.867-2.529,3.3,3.3,0,0,1-.506-1.662c-0.072-1.084,2.1-1.517,2.1-1.517a9.075,9.075,0,0,0-2.457.217c-0.939.289-.939,3.179-0.939,3.179a5.769,5.769,0,0,1-.939-3.829s-1.445-1.662.289-2.168,7.009,1.156,7.009,1.156c4.978-1.553,6.925-4.116,7.683-5.792a9.143,9.143,0,0,1-.169-3.891,2.959,2.959,0,0,0,1.373-1.228,36.061,36.061,0,0,1-4.046.072s3.243-1.59,3.585-7.453a24.6,24.6,0,0,1-4.936-12.413,7.972,7.972,0,0,1-4.79.141c-2.673-.795-14.09-8.743-9.827-32.009a46.325,46.325,0,0,0-2.187,12.753,38.921,38.921,0,0,0-3.377,19.039,34.067,34.067,0,0,1,3.879-12.87,8.495,8.495,0,0,0,.528,2.754,24.188,24.188,0,0,0,2.56,5.968,24.937,24.937,0,0,0,3.943,14.047S51.005,73,51.26,65.3a8.313,8.313,0,0,0,3.432,2.344,15,15,0,0,0,5.266,7.333,22.1,22.1,0,0,1-2.657-6.49,5.014,5.014,0,0,0,2.368.059s0.795,3.035,2.1,4.335,3.685,4.624.434,5.058-6.647-2.384-9.032-5.78c0,0,2.746,4.841,3.035,6.936s-0.939,3.974-4.046,2.1-6.936-8.454-7.442-19.22c0,0-2.023,8.6-.795,15.752s2.746,10.332,1.228,10.043-7.37-6.647-7.8-17.7a51.317,51.317,0,0,1,3.613-20.3s-6.792,11.85-7.225,23.844c0,0,.434,5.347-1.445,3.757s-2.6-8.959-1.3-17.2S39.654,38.926,43.7,34.519L44.5,32.207s-14.017,14.162-17.7,34.249c0,0-.795-7.153,3.829-18.641s13.8-22.327,17.2-22.9,2.312,4.48,1.59,6.937-2.24,13.945,1.156,20.3c3.357,6.286,9.893,8.333,16.953-.348,0.027-.038.161-0.227,0.385-0.526a9.341,9.341,0,0,1-3.609-1.582,6.3,6.3,0,0,0,4.769-2.746,11.874,11.874,0,0,0,2.24-6.575c-0.072-.795-0.795-3.4-3.035-3.757a7.8,7.8,0,0,0-5.347,1.373s0.145-1.662,2.529-3.251c0,0-.939-0.65-3.54,2.6a4.692,4.692,0,0,0-.361,1.879s-1.662-2.1-1.734-3.107,4.046-3.468,4.046-3.468a2.152,2.152,0,0,1-.072-2.962c1.3-1.662,10.043-2.023,10.694-1.879a2.432,2.432,0,0,1,.686.485V49.377Zm33.145,55.108L96.146,119.043,83.981,104.485,96.146,89.927Zm-18.845-1.574a2.545,2.545,0,0,0,0,3.147l5.365,6.42a1.653,1.653,0,0,0,2.629,0l5.365-6.42a2.546,2.546,0,0,0,0-3.147l-5.365-6.419a1.652,1.652,0,0,0-2.629,0Z"/>
  <path id="Shape_32_copy_2" data-name="Shape 32 copy 2" class="cls-2" d="M128.295,8.87V82.218c-0.386,12.6-2.975,22.417-7.914,30.012a39.517,39.517,0,0,1-8.437,9.285,56.934,56.934,0,0,1-11.6,7.113C89.653,133.689,79.4,138.527,75,140.6c-4.4-2.077-14.653-6.915-25.347-11.976a56.934,56.934,0,0,1-11.6-7.113,39.5,39.5,0,0,1-8.437-9.285c-4.939-7.595-7.528-17.413-7.914-30.012V8.87h106.59m6.12-6.12H15.585V82.31c0.85,28.56,12.41,42.84,31.45,51.85,13.157,6.226,25.648,12.118,27.48,12.981a1.134,1.134,0,0,0,.97,0c1.832-.863,14.323-6.755,27.48-12.981,19.04-9.01,30.6-23.29,31.45-51.85V2.75h0Z"/>
  <path id="Shape_32_copy" data-name="Shape 32 copy" class="cls-1" d="M75,148.7a2.559,2.559,0,0,1-1.1-.247c-1.4-.658-14.027-6.615-27.481-12.982-10.41-4.926-17.979-11.178-23.139-19.112-5.729-8.809-8.718-19.931-9.137-34,0-.014,0-0.029,0-0.043V2.75A1.445,1.445,0,0,1,15.585,1.3h118.83A1.445,1.445,0,0,1,135.86,2.75V82.31c0,0.014,0,.029,0,0.043-0.418,14.07-3.407,25.192-9.136,34-5.161,7.934-12.73,14.186-23.14,19.112C90.129,141.833,77.5,147.79,76.1,148.448A2.555,2.555,0,0,1,75,148.7ZM17.03,82.288c0.769,25.648,9.928,40.773,30.623,50.566,13.1,6.2,25.426,12.013,27.347,12.919,1.923-.907,14.245-6.719,27.347-12.919,20.7-9.793,29.854-24.918,30.623-50.566V4.195H17.03V82.288Z"/>
</svg>
