<svg id="axis_tunisia_sniper_3_icon" xmlns="http://www.w3.org/2000/svg" width="150" height="150" viewBox="0 0 150 150">
  <defs>
    <style>
      .cls-1 {
        fill: #0e3480;
      }

      .cls-1, .cls-2, .cls-4 {
        fill-rule: evenodd;
      }

      .cls-2 {
        fill: #ffca27;
      }

      .cls-3 {
        fill: #151515;
      }

      .cls-4 {
        fill: #f2f2f2;
      }
    </style>
  </defs>
  <g id="ger_copy_6" data-name="ger copy 6">
    <g id="axis_tunisia_mgun_1_icon_copy" data-name="axis_tunisia_mgun_1_icon copy">
      <path id="Shape_275_copy" data-name="Shape 275 copy" class="cls-1" d="M72.632,16.593L32.359,27s-1.1,24.359,2.938,39.048,8.746,25.911,24.114,38.314c14.6,11.782,15.3,11.384,15.3,11.384h0.582s0.8,0.367,15.3-11.384c15.345-12.431,20.075-23.625,24.114-38.314S117.648,27,117.648,27l-40.272-10.4H72.632Z"/>
      <path id="Shape_275_copy_2" data-name="Shape 275 copy 2" class="cls-2" d="M75.295,116.369l-0.582-.016c-0.76-.083-3.365-1.557-15.694-11.507C44.217,92.9,39.05,82.051,34.694,66.211c-4.019-14.615-2.971-39-2.959-39.242l0.021-.462L72.632,15.967l4.9,0.02,40.72,10.521,0.021,0.462c0.011,0.245,1.06,24.627-2.959,39.242-4.344,15.795-9.507,26.63-24.324,38.634C78.53,114.939,76,116.286,75.295,116.357v0.012Zm-0.482-1.237h0Zm0.385,0h0Zm-0.426-.014h0.465c0.35-.134,2.693-1.3,14.965-11.244,14.555-11.792,19.631-22.45,23.905-37.993,3.663-13.32,3.057-34.967,2.934-38.393L77.3,17.218H72.711L32.966,27.487c-0.123,3.424-.729,25.072,2.934,38.393,4.286,15.588,9.365,26.259,23.9,37.992C72.082,113.781,74.418,114.976,74.772,115.117Z"/>
      <path id="Shape_275_copy_3" data-name="Shape 275 copy 3" class="cls-2" d="M102.571,27.239a8.227,8.227,0,0,0,2.122-4.325s-2.775-.816-3.183-0.816-0.9-.979-1.142-1.224c0,0-3.591.979-3.836,0.979a1.032,1.032,0,0,1-.816-0.571A12.573,12.573,0,0,0,93.839,18.1a32.865,32.865,0,0,0-4.162,2.2s1.387-3.264.082-5.467a11.4,11.4,0,0,1-2.285-.082,0.889,0.889,0,0,1-.408-0.571,26.3,26.3,0,0,0-1.959-4.733l-2.856,1.959-1.142-.163-1.061,1.387H79.395s-0.326-3.591-1.061-4.57L77.11,7.817a14.041,14.041,0,0,0-2.285-2.775,31.51,31.51,0,0,0-2.448,3.019c-0.734,1.142-.734,1.55-0.979,1.55s-2.122-.653-2.366-0.653S67.562,11,67.4,13.284c0,0-.9-1.877-1.387-1.959a2.318,2.318,0,0,0-1.142.245,23.659,23.659,0,0,0-3.1-1.877c-0.49-.082-1.632,3.183-1.714,3.672s-0.163,1.469-.408,1.469A11.161,11.161,0,0,0,57.362,15c-0.327.163-.571,2.285-0.571,3.019a13.05,13.05,0,0,0,.816,2.774s-2.611-2.53-4.9-2.448a32.127,32.127,0,0,1-1.142,3.264A1.82,1.82,0,0,1,51,22.1a30.489,30.489,0,0,0-4.325-1.061,5.126,5.126,0,0,0-.734,1.143s-3.509.408-3.672,0.734,2.448,5.06,2.448,5.06v0.571s-1.55,1.143-1.469,1.469a8.588,8.588,0,0,0,2.938,3.019,6.1,6.1,0,0,0,2.775.9l0.979,1.387s-2.04,2.122-2.2,2.367,2.938,1.8,3.835,1.632,4.162-.653,4.815-0.816,1.061-.245,1.142,0,0.163,2.611.571,2.611A21.218,21.218,0,0,0,61.85,40.3a4.637,4.637,0,0,0,1.877-1.142s0.163,0.9.408,0.816,2.856-1.387,2.856-1.387,2.358,1.23,3.457,1.78l1.658,15.357h0.31l-1.294.816H68.262a3.81,3.81,0,0,1-1.429-.735c-0.318-.408-2.224-1.877-3.257-0.408a11.456,11.456,0,0,0,0,4.9s0.556,2.122,3.5-.326l1.271-.408h2.7l2.224,0.9a5.308,5.308,0,0,0,.92.2H72.921a3.557,3.557,0,0,0-.53,1.867V73.2a2.408,2.408,0,0,0,2.3,2.632h0.794a2.408,2.408,0,0,0,2.3-2.632V62.523a3.558,3.558,0,0,0-.53-1.867H75.982a5.305,5.305,0,0,0,.92-0.2l2.224-.9h2.7L83.1,59.963c2.939,2.448,3.5.326,3.5,0.326a11.456,11.456,0,0,0,0-4.9c-1.033-1.469-2.939,0-3.257.408a3.808,3.808,0,0,1-1.43.735h-2.86l-1.294-.816h0.31l1.821-16.866,3.1,1.116,0.571-.979A5.25,5.25,0,0,0,85.678,40.3a23.491,23.491,0,0,0,3.346.653,13.413,13.413,0,0,1,.489-2.53,0.89,0.89,0,0,1,.979-0.163c0.245,0,3.835.9,4.57,0.9a30.041,30.041,0,0,0,4.244-1.306,13.509,13.509,0,0,0-2.04-2.448,5.286,5.286,0,0,1,.9-1.55c0.326-.163,2.856-0.979,3.183-1.143s2.121-1.632,2.285-2.938c0,0-1.061-1.142-1.306-1.387A1.06,1.06,0,0,1,102.571,27.239Z"/>
      <path id="Shape_275_copy_4" data-name="Shape 275 copy 4" class="cls-1" d="M103.007,27.322a8.246,8.246,0,0,0,2.076-4.38l0.023-.315-0.3-.089a29.643,29.643,0,0,0-3.26-.828h0a2.71,2.71,0,0,1-.566-0.678,3.244,3.244,0,0,0-.329-0.435l-0.16-.161-0.219.06c-1.651.45-3.527,0.942-3.727,0.966a0.965,0.965,0,0,1-.445-0.258c-0.158-.573-1.6-3.346-2.159-3.485-0.155-.038-0.429-0.11-3.554,1.714a6.421,6.421,0,0,0-.285-4.8l-0.119-.2-0.233.01a12.043,12.043,0,0,1-2.094-.04,0.523,0.523,0,0,1-.207-0.331,26.433,26.433,0,0,0-1.992-4.814l-0.209-.376L82.156,11l-1.218-.174L79.855,12.24H79.749c-0.107-.981-0.441-3.532-1.1-4.413l-0.09-.119-1.21-.242A13.282,13.282,0,0,0,75.06,4.73l-0.284-.213-0.24.262A31.47,31.47,0,0,0,72.048,7.85a11.13,11.13,0,0,0-.658,1.168c-0.03.061-.063,0.128-0.091,0.179-0.221-.055-0.659-0.19-0.97-0.286a6.506,6.506,0,0,0-1.3-.344c-0.588,0-1.457,1.757-1.842,3.5a2.247,2.247,0,0,0-1.113-1.124,2.333,2.333,0,0,0-1.165.185,17.092,17.092,0,0,0-3.079-1.818c-1.03-.151-2.156,3.951-2.163,3.994-0.016.094-.032,0.206-0.048,0.326a6.826,6.826,0,0,1-.149.816,5.841,5.841,0,0,0-2.285.2c-0.7.352-.787,3.339-0.787,3.369a6.2,6.2,0,0,0,.351,1.555,7.048,7.048,0,0,0-4.054-1.62l-0.279.01-0.081.266a30.151,30.151,0,0,1-1.081,3.144,1.409,1.409,0,0,1-.314.3c-4.1-1.223-4.321-1.072-4.486-.962a3.646,3.646,0,0,0-.771,1.1c-3.518.421-3.681,0.747-3.769,0.924-0.1.2-.253,0.507,2.407,5.335v0.275c-1.6,1.2-1.5,1.577-1.457,1.76a8.7,8.7,0,0,0,3.121,3.263,6.885,6.885,0,0,0,2.76.938l0.685,0.97c-0.63.657-1.875,1.965-2.024,2.188l-0.131.286,0.142,0.216c0.356,0.542,3.25,1.906,4.22,1.731,0.326-.059.964-0.162,1.676-0.276,1.281-.205,2.733-0.438,3.164-0.546a5.607,5.607,0,0,1,.693-0.142c0.012,0.1.024,0.231,0.039,0.385,0.146,1.476.267,2.38,0.887,2.38a21.3,21.3,0,0,0,3.878-.836,5.4,5.4,0,0,0,1.545-.81,0.889,0.889,0,0,0,.33.438,0.487,0.487,0,0,0,.41.046c0.231-.077,1.967-0.939,2.729-1.319,0.8,0.419,2.132,1.109,3.011,1.552l1.629,15.088-0.642.4H68.332a3.142,3.142,0,0,1-1.129-.553,3.7,3.7,0,0,0-2.5-1.227,1.854,1.854,0,0,0-1.51.837,0.46,0.46,0,0,0-.066.136,11.854,11.854,0,0,0-.011,5.115c0,0.011,0,.023.007,0.034a1.678,1.678,0,0,0,1.066,1.124c0.815,0.261,1.862-.126,3.112-1.151l1.115-.358h2.536l1.459,0.589a4.113,4.113,0,0,0-.478,1.911V73.208A2.848,2.848,0,0,0,74.687,76.3h0.8a2.849,2.849,0,0,0,2.75-3.092V62.536a4.122,4.122,0,0,0-.478-1.924l1.458-.589h2.536l1.115,0.358a4.427,4.427,0,0,0,2.591,1.229,1.7,1.7,0,0,0,.521-0.079,1.677,1.677,0,0,0,1.066-1.124c0-.011.005-0.023,0.007-0.034a11.846,11.846,0,0,0-.011-5.115,0.46,0.46,0,0,0-.066-0.136,1.853,1.853,0,0,0-1.51-.837,3.7,3.7,0,0,0-2.5,1.227,3.144,3.144,0,0,1-1.129.553H79.182l-0.641-.4L80.3,39.417l2.864,1.031,0.489-.838a5.677,5.677,0,0,0,1.913,1.06,23.532,23.532,0,0,0,3.416.668l0.39,0.047,0.045-.39a12.358,12.358,0,0,1,.437-2.374c0.027-.046.057-0.069,0.351-0.011,0.111,0.021.209,0.028,0.275,0.038,0.106,0.01.709,0.145,1.241,0.264a26.031,26.031,0,0,0,3.347.634,26.763,26.763,0,0,0,4.38-1.33l0.457-.171-0.266-.409a14.79,14.79,0,0,0-1.9-2.341,4.99,4.99,0,0,1,.6-1.095c0.14-.07.918-0.337,1.543-0.551,0.9-.31,1.466-0.5,1.64-0.591,0.331-.165,2.306-1.7,2.5-3.239l0.022-.181-0.124-.133s-1.069-1.151-1.3-1.374a1.115,1.115,0,0,1,.265-0.655C102.909,27.44,102.952,27.389,103.007,27.322ZM102.1,24.381c0.76-.31,1.585-0.633,2.1-0.831a5.7,5.7,0,0,1-.342,1.04A5.258,5.258,0,0,1,102.1,24.381Zm-0.586-1.893a24.6,24.6,0,0,1,2.494.632c-0.82.317-2.4,0.937-3.283,1.333-0.321.144-1.138,0.621-2.269,1.281l-1.135.661a5.751,5.751,0,0,1,.691-2.692c0.362-.5,1.641-1.787,2.227-2.369,0.029,0.043.059,0.088,0.093,0.137A1.8,1.8,0,0,0,101.509,22.489Zm-4.659,3.98a0.232,0.232,0,0,0,.08.15c-0.591.341-1.223,0.7-1.88,1.073a13.9,13.9,0,0,1,.17-3c0.185-.463,1.008-1.869,1.356-2.456,0.27-.026,1.49-0.34,2.779-0.685a24.153,24.153,0,0,0-1.727,1.876A6.056,6.056,0,0,0,96.85,26.469Zm-1.525-5.187a1.107,1.107,0,0,0,.769.848c-0.386.654-1.125,1.926-1.31,2.39a16.01,16.01,0,0,0-.2,3.4,0.2,0.2,0,0,0,.012.028c-2.876,1.6-6.065,3.23-7.775,3.53a0.191,0.191,0,0,0-.019.012,2.283,2.283,0,0,1-.332-0.517c0.18-.143.724-0.541,1.251-0.927,0.993-.727,2.228-1.631,2.839-2.134,1.107-.911,2.167-4.257,2.167-4.465a0.273,0.273,0,0,0-.079-0.182,1.111,1.111,0,0,0-.736-0.14,0.214,0.214,0,0,0,.019-0.045,31.9,31.9,0,0,1,1.9-4.427A19.383,19.383,0,0,1,95.325,21.282Zm-12.8,14.8a3.754,3.754,0,0,1,.528.728,17.718,17.718,0,0,1-2.612,1.243l0.347-3.216a4.509,4.509,0,0,0,1.569-.763c0.912-.063,2.079-0.179,2.079-0.179l-0.047-.467s-0.815.081-1.612,0.144a9.855,9.855,0,0,0,.9-2.283l0.036-.124a0.235,0.235,0,0,0-.445-0.148c-0.008.023-.022,0.073-0.042,0.144a6.079,6.079,0,0,1-1.117,2.511,3.612,3.612,0,0,1-1.27.658l0.641-5.94a37.484,37.484,0,0,0,4.424-2.279,0.221,0.221,0,0,0,.076.209,4.362,4.362,0,0,0,2.346.844,0.235,0.235,0,1,0,0-.469,3.944,3.944,0,0,1-2.061-.747,0.215,0.215,0,0,0-.064-0.017,15.82,15.82,0,0,0,2.959-2.319c1.233-.043,2.573-0.053,3.051-0.007-0.208.745-1.11,3.245-1.953,3.94-0.6.494-1.83,1.394-2.818,2.117-0.923.675-1.279,0.938-1.36,1.019a0.341,0.341,0,0,0-.092.284,3.576,3.576,0,0,0,1.168,1.547,1.892,1.892,0,0,1,.578.8c-0.2.186-3.06,1.913-3.4,2.026-0.288.1-1.311,0.291-1.681,0.359A0.235,0.235,0,0,0,82.525,36.087Zm-0.467-13A5.856,5.856,0,0,0,85,21.84a6.226,6.226,0,0,0,1.432-2.259,4.408,4.408,0,0,1,.316-0.658c0.282-.422,2.087-2.61,2.847-3.528a6.518,6.518,0,0,1-.1,4.234,0.182,0.182,0,0,0-.022.015,6.882,6.882,0,0,0-.956,1.842c0,0.279.212,1.421,0.287,1.819-1.97,2.053-5.674,3.839-7.267,4.549Zm11.21-4.348a26.119,26.119,0,0,0-1.806,4.339,0.208,0.208,0,0,0,.013.032c-0.492-.008-1.2,0-2.217.033-0.115-.612-0.264-1.469-0.264-1.651a1.808,1.808,0,0,1,.192-0.439l0.692-.412C91.122,19.9,92.492,19.124,93.269,18.737Zm-6.586-4.479a1.266,1.266,0,0,0,.616.845,5.873,5.873,0,0,0,1.814.142c-0.823.994-2.471,3-2.753,3.418A4.707,4.707,0,0,0,86,19.4a5.75,5.75,0,0,1-1.322,2.1,5.3,5.3,0,0,1-2.57,1.1l0.172-1.594a0.458,0.458,0,0,0-.043-0.233c0-.006.009-0.009,0.011-0.016,0.01-.034.8-2.72,1.329-4.622h0l2.448-.979a0.235,0.235,0,1,0-.174-0.436l-2.119.848c0.064-.234.122-0.45,0.169-0.632,0.3-1.176.9-3.419,1.214-4.619A27.464,27.464,0,0,1,86.683,14.259Zm-2.531-2.11a10.285,10.285,0,0,0-.662-1.116l1.168-.8C84.523,10.743,84.34,11.433,84.152,12.148Zm-1.805-.332L83.1,11.3a5.933,5.933,0,0,1,.836,1.6,0.2,0.2,0,0,0,.011.019c-0.189.718-.368,1.4-0.5,1.9-0.151.584-.4,1.49-0.668,2.413a7.292,7.292,0,0,1-1.569-2.591,10.5,10.5,0,0,1-.144-2.7l0.209-.273Zm-2.106,1.207,0.336-.439a9.5,9.5,0,0,0,.181,2.16,8.249,8.249,0,0,0,1.874,3.022c-0.3,1.045-.586,2.028-0.731,2.523L77.549,14.54a16.6,16.6,0,0,1,1.58-1.517h1.113Zm-3.828.017A27.061,27.061,0,0,0,78.46,9.392a22.287,22.287,0,0,1,.533,3.157,10.862,10.862,0,0,0-1.732,1.611ZM76.87,8.167L78.1,8.413a2.557,2.557,0,0,1,.124.27,21.061,21.061,0,0,1-2.11,3.959l-0.458-.6a0.7,0.7,0,0,0-.368-0.236c0.149-.17.325-0.746,0.168-3.006a0.228,0.228,0,0,0,.071-0.117,3.785,3.785,0,0,1,.843-1.261c0.246,0.35.409,0.6,0.414,0.61ZM76.088,7.03a7.2,7.2,0,0,0-.706.886c-0.053-.584-0.123-1.251-0.215-2.02A13.515,13.515,0,0,1,76.088,7.03ZM71.4,10a0.824,0.824,0,0,0,.692-0.637,10.507,10.507,0,0,1,.616-1.093,25.639,25.639,0,0,1,1.975-2.481,30.951,30.951,0,0,1,.328,5.516,9.745,9.745,0,0,0-2.417-1.84,0.234,0.234,0,0,0-.226.411,9.164,9.164,0,0,1,2.309,1.767,0.743,0.743,0,0,0,.16.167,0.7,0.7,0,0,0-.321.225l-2.858,3.775a24.333,24.333,0,0,0-.732-2.856c-0.265-.706-1.021-2.523-1.421-3.478,0.2,0.058.417,0.126,0.6,0.181A6.5,6.5,0,0,0,71.4,10Zm-2.38-.468c0.382,0.911,1.192,2.856,1.466,3.587a28.553,28.553,0,0,1,.785,3.145,0.205,0.205,0,0,0,.019.032l-2.344,3.1-0.829-.829A5.294,5.294,0,0,1,67.4,17.2a8.3,8.3,0,0,0,.534-2.287c-0.037-.332-0.1-1.125-0.138-1.691A8.6,8.6,0,0,1,69.018,9.535ZM69.3,34.114l-1.178-3.651c0.309,0.209.612,0.4,0.841,0.538Zm-2.026-4.943a27.667,27.667,0,0,1-1.666-2.31,5.017,5.017,0,0,1,1.121-.578,5.01,5.01,0,0,0,1.13-.582,0.484,0.484,0,0,0,.164-0.36c0.017-.59-0.885-1.528-1.81-2.437l-0.18-.177a10.7,10.7,0,0,1-1.772-3.43,13.371,13.371,0,0,1-.324-2.784,27.938,27.938,0,0,1,3.036.876,5.467,5.467,0,0,0,.809,1.508l0.875,0.875-0.681.9a0.467,0.467,0,0,0-.093.334l1.016,9.4A8.025,8.025,0,0,1,67.275,29.171Zm-0.758-3.306a24.7,24.7,0,0,0-.616-2.611c1.632,1.606,1.7,2,1.651,2.094a5.07,5.07,0,0,1-1.005.5Zm0.53-12.412L67.4,14.2c0.025,0.309.049,0.593,0.068,0.762a7.512,7.512,0,0,1-.463,1.943c-0.358-.118-0.673-0.219-0.956-0.308a0.222,0.222,0,0,0,.032-0.038,9.938,9.938,0,0,0,.287-4.312A10.723,10.723,0,0,1,67.046,13.453Zm-2.208-1.43,0.206-.1a2.133,2.133,0,0,1,.788-0.215c0.124,0.9.389,3.347-.178,4.669a0.218,0.218,0,0,0,0,.1,7.888,7.888,0,0,0-1.827-.429A0.209,0.209,0,0,0,63.835,16a50.673,50.673,0,0,0-1.6-5.651c0.6,0.346,1.572.971,2.41,1.548Zm-5.191,3.2c0.539,0,.636-0.69.749-1.489,0.016-.113.031-0.218,0.045-0.306a14.96,14.96,0,0,1,1.269-3.185,54.081,54.081,0,0,1,1.636,5.693L61.1,14.495a0.235,0.235,0,0,0-.254.394l2.571,1.653a0.21,0.21,0,0,0,.069.02,11.834,11.834,0,0,0,.318,2.827,11.531,11.531,0,0,0,1.521,3.186,0.222,0.222,0,0,0-.047.2l0.013,0.045a5.806,5.806,0,0,1-3.273-1.415c-0.189-.253-0.583-0.926-1.039-1.705-0.4-.682-0.851-1.454-1.276-2.134A11.838,11.838,0,0,0,57.83,15.3,17.893,17.893,0,0,1,59.646,15.226Zm-2.157.395a11.54,11.54,0,0,1,1.815,2.2c0.423,0.677.872,1.444,1.269,2.122,0.482,0.824.863,1.475,1.069,1.75A6.133,6.133,0,0,0,65.426,23.3a22.158,22.158,0,0,1,.638,2.732,0.189,0.189,0,0,0,.013.026,1.631,1.631,0,0,0-.931.678,0.378,0.378,0,0,0,.03.312c0.141,0.247.486,0.749,0.856,1.261a31.016,31.016,0,0,1-7.66-4.872,2.661,2.661,0,0,0,.089-1.276l0.187,0.181-0.311-.779a6.616,6.616,0,0,0-.5-1.248,10.238,10.238,0,0,1-.66-2.3A12.275,12.275,0,0,1,57.489,15.62Zm-0.155,5.453,0.521,0.5a2.768,2.768,0,0,1,.083,1.7l-2.329.079a0.227,0.227,0,0,0,.02-0.156,16.419,16.419,0,0,0-2.077-4.374A9.891,9.891,0,0,1,57.334,21.073Zm-5.454.77a21.005,21.005,0,0,0,1.1-3.032,16.54,16.54,0,0,1,2.2,4.512,0.208,0.208,0,0,0,.031.045l-0.73.025a0.235,0.235,0,0,0-.225.268,8.367,8.367,0,0,0,.831,2.664,13.931,13.931,0,0,0,2.908,2.959,21.374,21.374,0,0,1,2.871,2.252c-0.1.08-.249,0.192-0.386,0.3l-0.195.148a0.226,0.226,0,0,0-.058-0.053l-8-4.151a0.217,0.217,0,0,0,.043-0.086,12.554,12.554,0,0,0-.006-2.772c-0.144-.574-0.671-1.943-0.92-2.576A2.126,2.126,0,0,0,51.88,21.843Zm-2.2,1.986a11.357,11.357,0,0,0-2.113-2.268c0.827,0.194,2.127.553,3.32,0.911l0.009,0c0.238,0.606.778,2,.917,2.557a11.671,11.671,0,0,1,0,2.528l-1.476-.766a0.225,0.225,0,0,0,.037-0.135A11.892,11.892,0,0,0,49.676,23.829Zm-3.694-1.261,0.21-.024,0.094-.189a7.65,7.65,0,0,1,.492-0.853,14.031,14.031,0,0,1,2.478,2.537,10.645,10.645,0,0,1,.627,2.52l-6.809-3.535C43.758,22.87,44.938,22.689,45.982,22.568ZM44.945,28.86l0.159-.117v-0.87l-0.049-.088c-0.91-1.65-1.86-3.484-2.238-4.365l5.277,2.739L45.8,26.7a0.235,0.235,0,0,0,.109.457l2.571-.612a0.229,0.229,0,0,0,.147-0.114l5.925,3.076a14.8,14.8,0,0,1-3.311,1.227,11.317,11.317,0,0,1-1.976-.392,21.962,21.962,0,0,0-2.154-.463,25.573,25.573,0,0,0-3.246-.118A10.576,10.576,0,0,1,44.945,28.86Zm4.214,4.681h-0.2a5.817,5.817,0,0,1-2.58-.845,8.916,8.916,0,0,1-2.564-2.458,26.094,26.094,0,0,1,3.234.112c0.615,0.084,1.373.272,2.105,0.454a11.1,11.1,0,0,0,2.088.405,15.513,15.513,0,0,0,3.59-1.308,0.222,0.222,0,0,0,.118-0.182l4.67,2.425a28.087,28.087,0,0,1-9.4,2.9ZM64.222,39.5a2.993,2.993,0,0,1-.111-0.422l-0.144-.78-0.532.589a4.317,4.317,0,0,1-1.709,1.032,22.982,22.982,0,0,1-3.482.785,10.187,10.187,0,0,1-.257-1.664,3.809,3.809,0,0,0-.091-0.668,0.616,0.616,0,0,0-.665-0.422,4.2,4.2,0,0,0-.943.166c-0.4.1-1.9,0.339-3.1,0.532-0.718.115-1.363,0.219-1.692,0.278a8.429,8.429,0,0,1-3.249-1.254c0.4-.445,1.31-1.4,1.969-2.089l0.08-.083c0.331-.04.662-0.081,0.983-0.132l-0.623,1.508a0.234,0.234,0,0,0,.127.306,0.234,0.234,0,0,0,.306-0.127l0.734-1.775s0,0,0,0c0.773-.139,1.515-0.3,2.21-0.49l-1.047,2.2a0.235,0.235,0,0,0,.111.313,0.239,0.239,0,0,0,.1.023,0.235,0.235,0,0,0,.212-0.134l1.224-2.571s0,0,0,0a29.048,29.048,0,0,0,4.578-1.751,1.008,1.008,0,0,0-.328.506,0.332,0.332,0,0,0,.068.251c0.227,0.285,2.125,2.216,3.828,2.413a5.646,5.646,0,0,1,1.384.286,1.193,1.193,0,0,0-.316.614,4.745,4.745,0,0,0-1.807.359L59.8,36.091a0.235,0.235,0,0,0-.223.413l2.134,1.149a7.578,7.578,0,0,1-1.038.706,0.235,0.235,0,0,0,.235.406,4.328,4.328,0,0,0,1.362-1.058,6.067,6.067,0,0,1,1.827-.313c0.289,0.176,1.178.626,2.166,1.115C65.425,38.924,64.606,39.325,64.222,39.5Zm2.95-1.269-0.177-.093-0.179.09-0.028.014c-1.261-.621-2.33-1.157-2.472-1.255,0,0,0-.007,0-0.009a1.2,1.2,0,0,1,.368-0.512,0.235,0.235,0,0,0,.06-0.261c-0.079-.2-0.475-0.47-1.9-0.635s-3.1-1.778-3.464-2.179a8.951,8.951,0,0,1,1.387-1.189,3.132,3.132,0,0,0,.592-0.492,0.307,0.307,0,0,0,.034-0.22c-0.123-.463-2.826-2.45-3.184-2.63a14.206,14.206,0,0,1-2.723-2.794,7.17,7.17,0,0,1-.718-2.218l3.249-.11a29.745,29.745,0,0,0,2.966,2.287l-2.095.679a0.235,0.235,0,0,0,.145.446l2.264-.734a0.229,0.229,0,0,0,.119-0.1,30.578,30.578,0,0,0,3.109,1.805l-0.952.9a0.234,0.234,0,1,0,.323.34l1.082-1.025c0.422,0.2.854,0.4,1.3,0.582a0.237,0.237,0,0,0,.089.017,0.233,0.233,0,0,0,.115-0.034c0.159,0.21.31,0.4,0.438,0.56a3.832,3.832,0,0,0,.571.53s0,0,0,.006l1.87,5.8c-1.765-.6-4.419-1.61-4.77-2.04a8.714,8.714,0,0,1-.931-2.653,0.235,0.235,0,1,0-.459.095,12.23,12.23,0,0,0,.768,2.436c-0.7-.089-1.633-0.321-1.645-0.323a0.232,0.232,0,0,0-.285.171,0.235,0.235,0,0,0,.171.285,14.077,14.077,0,0,0,2.1.369c0.8,0.727,4.7,2.043,5.163,2.2a0.234,0.234,0,0,0,.06.01l0.022,0.067L69.9,39.645C69.063,39.218,67.974,38.654,67.172,38.235ZM68.838,21.09l6.011-7.941V53.877a2.084,2.084,0,0,0-.879.307l-1.46.92Zm-3.6,39.478a1.208,1.208,0,0,1-.756.073,0.734,0.734,0,0,1-.448-0.461,11.554,11.554,0,0,1-.026-4.581,0.892,0.892,0,0,1,.718-0.375,1.58,1.58,0,0,1,.562.1A8.329,8.329,0,0,0,65.237,60.568ZM75.481,75.375H74.694a1.989,1.989,0,0,1-1-.331l3.594-1.423A1.877,1.877,0,0,1,75.481,75.375Zm1.836-2.27-0.009,0-4,1.583a2.049,2.049,0,0,1-.4-0.9,0.223,0.223,0,0,0,.164,0l4.243-1.679v1Zm0-1.5-0.009,0L72.9,73.352a0.215,0.215,0,0,0-.044.023c0-.056-0.006-0.113-0.007-0.172v-0.79a0.236,0.236,0,0,0,.136.045,0.231,0.231,0,0,0,.086-0.017l4.243-1.679v0.843Zm0-1.347-0.009,0L72.9,72.006a0.232,0.232,0,0,0-.05.028V70.975a0.236,0.236,0,0,0,.136.045A0.232,0.232,0,0,0,73.074,71l4.243-1.679v0.935Zm0-1.438-0.009,0L72.9,70.568a0.228,0.228,0,0,0-.05.028V69.629a0.236,0.236,0,0,0,.136.045,0.232,0.232,0,0,0,.086-0.016l4.243-1.679v0.843Zm0-1.347-0.009,0L72.9,69.221a0.229,0.229,0,0,0-.05.028V68.19a0.236,0.236,0,0,0,.136.045,0.23,0.23,0,0,0,.086-0.017l4.243-1.679v0.935Zm0-1.438-0.009,0L72.9,67.783a0.232,0.232,0,0,0-.05.028V66.844a0.23,0.23,0,0,0,.223.028l4.243-1.679v0.843Zm0-1.346-0.009,0L72.9,66.436a0.232,0.232,0,0,0-.05.028v-1a0.231,0.231,0,0,0,.223.029l4.243-1.679v0.874Zm0-1.377-0.009,0L72.9,65.059a0.237,0.237,0,0,0-.05.028V64.028a0.23,0.23,0,0,0,.223.029l4.239-1.678c0,0.086,0,.139,0,0.144v0.789Zm-0.662-2.2h0.332a2.869,2.869,0,0,1,.266.782L72.9,63.621a0.233,0.233,0,0,0-.05.028V62.62l0.009,0Zm-3.774.989a3.024,3.024,0,0,1,.3-0.989h0.909a5,5,0,0,0,.684.05h0.479Zm12.535-6.882h0.028a0.892,0.892,0,0,1,.718.375,11.561,11.561,0,0,1-.025,4.579,0.733,0.733,0,0,1-.449.463,1.17,1.17,0,0,1-.7-0.056,8.321,8.321,0,0,0-.05-5.276A1.575,1.575,0,0,1,85.416,55.223ZM78.8,56.932a0.466,0.466,0,0,0,.25.072h2.86a0.468,0.468,0,0,0,.132-0.019,3.927,3.927,0,0,0,1.668-.9A2.988,2.988,0,0,1,84.5,55.5a7.987,7.987,0,0,1,.051,4.9,6.573,6.573,0,0,1-1.153-.8,0.469,0.469,0,0,0-.157-0.086l-1.271-.408a0.469,0.469,0,0,0-.144-0.022h-2.7a0.472,0.472,0,0,0-.176.034l-2.211.892a8.115,8.115,0,0,1-1.65.726,7.77,7.77,0,0,1-1.662-.726l-2.21-.892a0.472,0.472,0,0,0-.176-0.034h-2.7a0.468,0.468,0,0,0-.144.022l-1.271.408a0.468,0.468,0,0,0-.157.086,6.794,6.794,0,0,1-1.1.771,7.985,7.985,0,0,1,.05-4.849,2.945,2.945,0,0,1,.745.565,3.928,3.928,0,0,0,1.668.9,0.467,0.467,0,0,0,.132.019h2.859a0.466,0.466,0,0,0,.25-0.072l3.1-1.954h0a1.168,1.168,0,0,1,1.226,0ZM77.657,55.1l-1.46-.92a2.082,2.082,0,0,0-.879-0.307V13.149L81.33,21.09ZM98.7,37.654a23.287,23.287,0,0,1-3.636,1.108,30.916,30.916,0,0,1-3.176-.616c-1.359-.3-1.319-0.262-1.535-0.306a1,1,0,0,0-1.173.377,9.244,9.244,0,0,0-.495,2.291,20.827,20.827,0,0,1-2.889-.586,4.914,4.914,0,0,1-1.95-1.2l-0.359-.391-0.674,1.157-2.43-.875,0-.029a11.639,11.639,0,0,0,3.05-1.5A20.694,20.694,0,0,1,86.2,38.46a0.235,0.235,0,0,0,.231-0.408c-0.425-.241-0.788-0.439-1.107-0.609l1.925-1.383a0.235,0.235,0,0,0-.274-0.381l-1.959,1.408a0.232,0.232,0,0,0-.091.147,6.654,6.654,0,0,0-1.442-.614,2.983,2.983,0,0,0-.341-0.533c0.433-.083,1.1-0.217,1.352-0.3a35.226,35.226,0,0,0,3.58-2.138,0.423,0.423,0,0,0,.11-0.359,1.252,1.252,0,0,0-.13-0.387c0.868,0.352,3.425,1.371,4.8,1.743a3.052,3.052,0,0,0,.526,2.316,0.235,0.235,0,1,0,.316-0.347,2.628,2.628,0,0,1-.38-1.86c1.01,0.184,2.731.591,3.5,0.777l0.2,0.169A11.346,11.346,0,0,1,98.7,37.654Zm2.473-5.3c-0.14.07-.918,0.337-1.543,0.551-0.9.31-1.465,0.5-1.64,0.592a3.69,3.69,0,0,0-1.014,1.588c-0.748-.181-2.538-0.606-3.583-0.8-0.07-.013-0.151-0.031-0.235-0.052-0.008,0-.011-0.01-0.019-0.011a0.147,0.147,0,0,0-.014,0c-1.524-.378-5.154-1.87-5.193-1.886a0.221,0.221,0,0,0-.221.042,1.566,1.566,0,0,0-.289-0.265,1.9,1.9,0,0,1-.273-0.241,25.129,25.129,0,0,0,5.212-2.194s0,0.01.01,0.014a10.933,10.933,0,0,0,3.1,1.381,2.592,2.592,0,0,0,.3.016,12.945,12.945,0,0,0,2.508-.41c0.537-.122,1.044-0.237,1.407-0.279,0.775-.091,2.573-0.149,3.4-0.171A6.117,6.117,0,0,1,101.172,32.356Zm0.878-3.7c0.167,0.168.721,0.76,1.048,1.111-0.82.022-2.659,0.079-3.472,0.175-0.387.046-.906,0.163-1.456,0.288a9.843,9.843,0,0,1-2.651.386,9.441,9.441,0,0,1-2.681-1.179c2-1.056,4.046-2.244,5.642-3.175a0.221,0.221,0,0,0,.207.109,3.748,3.748,0,0,1,2,.575,0.231,0.231,0,0,0,.127.038,0.235,0.235,0,0,0,.128-0.431,4.172,4.172,0,0,0-1.874-.635c0.892-.52,1.58-0.918,1.843-1.035,0.162-.073.349-0.154,0.551-0.239a0.212,0.212,0,0,0,.074.064,7.745,7.745,0,0,0,2.054.38h0.02a10.353,10.353,0,0,1-1.2,1.735c-0.067.081-.119,0.143-0.149,0.183A1.354,1.354,0,0,0,102.05,28.658Z"/>
      <path class="cls-2" d="M40.263,42.543c0.078,0,.158,0,0.237,0a4.35,4.35,0,0,0,3.142-1.4c0.857-.972,1.2-2.295,1.128-4.291l-0.159-4.168-1.1.042-0.022.341c-0.057.89-.057,0.89-0.925,0.924l-5.439.207c-0.864.031-.863,0.032-0.979-0.847L36.1,33.007l-1.105.042,0.136,3.568a6.818,6.818,0,0,0,1.316,4.219A4.782,4.782,0,0,0,40.263,42.543Zm-2.956-6.408h0l5.616-.214a1.553,1.553,0,0,1,.468.016,1.791,1.791,0,0,1,.141.837,3.946,3.946,0,0,1-.409,2.153,3.182,3.182,0,0,1-2.894,1.512c-2.339.08-3.73-1.073-3.811-3.188C36.382,36.32,36.6,36.162,37.307,36.135Zm1.272,24.4c-0.055-.907-0.055-0.907.795-1.051l5.338-.909c0.864-.146.864-0.147,1.111,0.727l0.093,0.327L47,59.44,46.26,55.09l-0.045.008-0.32-2.868-1.09.122,0,0.336a4.457,4.457,0,0,1-.049.79,1.029,1.029,0,0,1-.414-0.062c-1.255-.314-2.889-0.758-4.978-1.349,1.9-.966,3.968-2,4.834-2.407a1.589,1.589,0,0,1,.15-0.069,2.821,2.821,0,0,1,.177.6L44.6,50.518,45.69,50.4l-0.431-3.856,0.062,0-0.311-4.4-1.1.078-0.013.339c-0.035.895-.035,0.895-0.909,0.957l-5.4.381c-0.86.062-.86,0.061-1.021-0.821l-0.061-.334-1.1.077,0.31,4.4,1.1-.078,0.013-.339c0.034-.908.034-0.908,0.894-0.969l5.4-.381c0.874-.059.874-0.061,1.035,0.833l0.007,0.041-0.046.005,0,0.343c0.009,0.653.011,0.788-.855,1.231-1.861.966-4.743,2.408-7.047,3.557l-0.237.118L36.1,52.539l0.249,0.067c1.431,0.389,4.857,1.367,6.574,1.858l0.862,0.246c1.162,0.321,1.2.453,1.379,1.189l0.051,0.206c-0.013.406-.167,0.435-0.828,0.548l-5.338.909c-0.849.143-.85,0.145-1.1-0.717l-0.093-.326-1.085.184,0.741,4.351L38.6,60.87ZM41.8,67.273c1.464-.375,1.948-1.387,2.375-3.242,0.3-1.285.586-1.728,1.238-1.895a1.237,1.237,0,0,1,.808.035,0.986,0.986,0,0,1,.527.71c0.237,0.925-.215,1.381-1.076,1.855l-0.312.172,0.488,1.031,0.329-.129c0.626-.245,1.072-0.412,1.451-0.554l0.615-.232-0.025-.476a7.792,7.792,0,0,0-.2-1.682,3.381,3.381,0,0,0-1.379-2.059,2.575,2.575,0,0,0-2.066-.35c-1.532.393-1.978,1.7-2.334,3.112-0.334,1.316-.564,1.757-1.351,1.959a1.122,1.122,0,0,1-1.452-.87c-0.228-.889.208-1.67,1.294-2.323l0.313-.188-0.548-1-0.311.124a19.1,19.1,0,0,0-1.942.889l-0.162.095-0.023.186a6.091,6.091,0,0,0,.091,2.273,3.227,3.227,0,0,0,2.978,2.64A2.718,2.718,0,0,0,41.8,67.273Zm0.833,3.85,5.086-1.854c0.822-.3.822-0.3,1.224,0.515l0.15,0.305,1.034-.377-1.511-4.144-1.034.376,0.081,0.33c0.213,0.869.213,0.869-.61,1.169L41.964,69.3c-0.81.294-.81,0.3-1.207-0.507l-0.151-.3-1.034.376,1.512,4.145,1.034-.377-0.081-.33C41.821,71.418,41.821,71.418,42.63,71.123ZM62.092,90.5l0.3-.263-0.276-.284c-0.065-.067-0.317-0.345-1.254-1.487l-2.886-3.52-0.026.021L56.3,82.248l-0.955.578,0.165,0.316c0.493,0.942.36,1.035,0.11,1.21-0.264.2-.692,0.5-1.87,1.21l-1.971,1.194,2.6-7.684-1.347-2.225-0.909.55c0.01-.025.022-0.048,0.032-0.073a4.787,4.787,0,0,0-.132-3.6h0A4.874,4.874,0,0,0,49.108,71a5.2,5.2,0,0,0-3.759.216,4.95,4.95,0,0,0-2.642,2.692,4.878,4.878,0,0,0,.117,3.8,4.642,4.642,0,0,0,4.325,2.9,5.813,5.813,0,0,0,2.352-.524,4.873,4.873,0,0,0,2.6-2.638l0.133,0.281a1.1,1.1,0,0,1,.194,1,0.825,0.825,0,0,1-.468.5l-2.975,1.8c-0.93.563-1.517,0.9-1.968,1.114-0.328.163-.493,0.207-0.964-0.445l-0.2-.283-0.95.575,2.109,3.483,0.949-.574L47.8,84.591c-0.439-.882-0.289-0.981.019-1.185s0.8-.566,1.856-1.2l2.009-1.216L48.9,88.843l0.558,0.921,5-3.028c0.921-.558,1.42-0.837,1.782-1.04l0.165-.093c0.292-.153.37-0.192,0.881,0.475l0.206,0.27,0.056-.034c0.182,0.338.058,0.444-.49,0.894L52.9,90.624c-0.682.56-.682,0.56-1.384-0.175l-0.243-.254-0.86.7,4.617,5.629,0.255-.1c0.425-.163,1.754-0.774,2.081-0.936l0.328-.162-0.458-1.008-0.308.079a5.182,5.182,0,0,1-1.337.215,0.9,0.9,0,0,1-.886-0.539L53.9,93.1c-0.349-.444-0.378-0.48.132-0.9l1.805-1.481,0.711,0.867c0.475,0.58.475,0.58-.056,1.2l-0.2.241L57,93.9l2.746-2.252,0.571,0.5,0.251-.239C61.087,91.411,61.838,90.725,62.092,90.5ZM46.567,73.058a4.752,4.752,0,0,1,1.9-.448,2.953,2.953,0,0,1,.827.113,2.252,2.252,0,0,1,1.461,1.26c0.708,1.6-.286,3.324-2.474,4.293a4.247,4.247,0,0,1-2.75.406,2.2,2.2,0,0,1-1.452-1.294C43.386,75.824,44.433,74,46.567,73.058ZM59.685,91.14l-0.158.219-0.48-.585-0.277.156c-0.725.408-.725,0.407-1.192-0.162l-0.72-.878L58.9,88.218l0.044-.036,0.046,0.055,0.822,1c0.516,0.63.491,0.759,0.379,1A4.146,4.146,0,0,1,59.685,91.14Zm45.364-13.15c-0.475.61-.484,0.621-1.548,0.41-2.37-.48-4.961-1-7.309-1.47l-0.314-.063-0.34.895,4.59,6.087c0.676,0.889.639,0.971,0.351,1.612l-0.007.015c-0.316-.466-0.7-1.008-0.869-1.22l-0.226-.275-0.9.648,0.157,0.293a4.027,4.027,0,0,1,.487,1.352,0.886,0.886,0,0,1-.35.867l-0.5.585-0.171.2c-0.314.365-.314,0.366-0.785-0.026l-4.113-3.416c-0.635-.527-0.635-0.527-0.155-1.238l0.192-.284-0.838-.7-2.734,3.291,0.838,0.7,0.244-.241c0.6-.594.6-0.593,1.238-0.065L96,89.278c0.638,0.529.638,0.529,0.1,1.328l-0.192.284,0.838,0.7,4.321-5.2-0.148-.233-0.033-.052,0.375,0.23,1.979-3.234-0.923-.565-0.209.263a3.627,3.627,0,0,1-.515.574,1.045,1.045,0,0,1-.333-0.321c-0.21-.254-0.411-0.507-0.62-0.77l-0.3-.378,1.2-1.962c0.373,0.082.715,0.151,1.023,0.213,0.293,0.058.554,0.111,0.8,0.166,0.063,0.013.107,0.024,0.137,0.033a2.864,2.864,0,0,1-.185.484l-0.139.305,0.923,0.565,2.088-3.414-0.925-.567Zm-5.565,2.823c-0.394-.507-0.813-1.044-1.233-1.579l1.949,0.41Zm7.948-12.8c-1.37-.514-2.313.018-3.679,1.251-0.939.846-1.408,1.036-2.009,0.809a0.936,0.936,0,0,1-.634-1.308c0.321-.853.925-0.963,1.859-0.861l0.354,0.038,0.189-1.11-0.344-.083c-0.626-.151-1.069-0.265-1.445-0.362l-0.63-.161-0.25.4a7.544,7.544,0,0,0-.771,1.438,3.266,3.266,0,0,0-.048,2.4,2.494,2.494,0,0,0,1.445,1.425c1.433,0.54,2.509-.246,3.575-1.169,0.985-.849,1.407-1.07,2.135-0.8a1.067,1.067,0,0,1,.656,1.471c-0.312.833-1.062,1.2-2.29,1.11l-0.364-.025-0.12,1.114,0.326,0.077a18.517,18.517,0,0,0,2.026.371l0.188,0.015,0.125-.14a5.893,5.893,0,0,0,1.186-1.849A3,3,0,0,0,107.432,68.008Zm2.678-3.768c-0.373.893-.374,0.892-1.121,0.671l-1.5-.443,0.248-.411a2.668,2.668,0,0,0,.149-0.391,3.577,3.577,0,0,0-.067-2.255,2.855,2.855,0,0,0-1.948-1.752,2.622,2.622,0,0,0-2.372.362,4.043,4.043,0,0,0-1.306,2.161l-1.071,3.612,1.044,0.309,0.13-.317c0.321-.781.321-0.782,1.124-0.544l5,1.483c0.788,0.234.788,0.234,0.634,1.067l-0.063.335,1.043,0.31,1.246-4.2-1.042-.309ZM104,61.668a1.591,1.591,0,0,1,1.351-.1,1.494,1.494,0,0,1,1.2,2.015,2.545,2.545,0,0,1-.226.538l-2.8-.831c-0.215-.064-0.287-0.1-0.3-0.1s0,0,0,0A1.318,1.318,0,0,1,103.3,62.7,1.82,1.82,0,0,1,104,61.668Zm7.391-8.656-0.336-.148-0.472.984,0.257,0.186a5.073,5.073,0,0,1,.981.853,0.855,0.855,0,0,1,.146.977l-0.226,1.193c-0.112.53-.119,0.561-0.729,0.446l-2.2-.417,0.2-1.047c0.133-.7.132-0.7,0.91-0.691l0.317,0,0.2-1.083-3.362-.639,0.017-.73-0.344-.039c-0.689-.078-1.66-0.209-1.983-0.257l-0.391-.058-0.042.393c-0.009.091-.06,0.454-0.325,1.845L103.2,59.1l1.072,0.2,0.1-.331c0.218-.759.218-0.758,1.079-0.595l5.1,0.968c0.822,0.156.822,0.156,0.713,1.116l-0.04.349,1.079,0.2,1.313-6.911-0.238-.133C112.989,53.76,111.714,53.154,111.391,53.011Zm-4.416.983-0.135.71,0.3,0.113c0.738,0.28.738,0.28,0.608,0.966l-0.2,1.06-2.48-.471-0.04-.008c0-.016.006-0.034,0.01-0.053l0.232-1.226c0.145-.762.254-0.821,0.5-0.887a4.025,4.025,0,0,1,.971-0.186Zm6.385-8.7c-0.516-.184-1.069-0.381-1.336-0.465l-0.349-.11-0.358,1.017,0.279,0.155a4.245,4.245,0,0,1,1.156.857c0.251,0.278.292,0.569,0.123,2.227-0.055.546-.111,1.048-0.161,1.446-2.369-2-4.549-3.881-6.649-5.725l-0.171-.151-0.652.248-0.566,5.561c-0.01.107-.023,0.239-0.031,0.261a0.323,0.323,0,0,1-.08.036l-0.23.078-0.1.942,0.358,0.053c0.347,0.051.911,0.176,1.457,0.3,0.325,0.072.639,0.141,0.892,0.192l0.395,0.079,0.145-1.069-0.255-.117a4.482,4.482,0,0,1-.963-0.555c-0.233-.2-0.3-0.248-0.184-1.355l0.189-1.855c2.49,2.136,4.6,3.964,6.654,5.792l0.182,0.162,0.646-.282L114.5,45.7l-0.284-.1C114,45.524,113.688,45.413,113.36,45.3Zm-0.538-10.407c0.282-.1.535-0.183,0.77-0.256a1.259,1.259,0,0,1,.135-0.04,2.776,2.776,0,0,1,.083.511l0.034,0.333,1.081,0.024,0.088-4-1.085-.023-0.045.335c-0.1.766-.1,0.781-1.132,1.133-2.291.778-4.793,1.629-7.058,2.408l-0.3.1,0.156,0.945,7.029,2.952c1.032,0.427,1.042.517,1.115,1.217l0,0.023h0l-0.056.335c-0.142.851-.142,0.851-0.959,0.8l-5.21-.3c-0.83-.048-0.83-0.048-0.874-0.91l-0.017-.34-1.085-.062-0.245,4.274,1.085,0.061,0.056-.334c0.141-.839.141-0.838,0.971-0.791l5.21,0.3c0.817,0.047.817,0.047,0.861,0.9l0.018,0.339,1.085,0.062,0.229-4h0.049l0.083-3.791-1.082-.024-0.048.332a3.572,3.572,0,0,1-.157.756,1.047,1.047,0,0,1-.449-0.11c-0.313-.114-0.616-0.233-0.932-0.357l-0.442-.171,0.05-2.3C112.2,35.1,112.525,34.991,112.822,34.889Zm-2.3.752-0.03,1.371c-0.6-.24-1.228-0.493-1.861-0.745ZM74.073,96.974a2.651,2.651,0,0,0,.805-0.9,3.268,3.268,0,0,0,.385-1.593,3.445,3.445,0,0,0-.835-2.367,3.405,3.405,0,0,0-4.716,0,3.464,3.464,0,0,0-.828,2.367,3.385,3.385,0,0,0,.358,1.546,2.487,2.487,0,0,0,.872.96,2.929,2.929,0,0,0-1.061,1.187,4.264,4.264,0,0,0-.422,1.891,3.909,3.909,0,0,0,1.129,2.949,3.349,3.349,0,0,0,2.4.921,3.109,3.109,0,0,0,2.494-1.118,4.3,4.3,0,0,0,.927-2.852,3.833,3.833,0,0,0-.456-1.887A2.989,2.989,0,0,0,74.073,96.974ZM72.8,95.6a0.89,0.89,0,0,1-.727.325,0.877,0.877,0,0,1-.717-0.321,1.471,1.471,0,0,1-.28-0.962,1.423,1.423,0,0,1,.284-0.93,0.893,0.893,0,0,1,.734-0.328,0.866,0.866,0,0,1,.71.324,1.418,1.418,0,0,1,.28.926A1.477,1.477,0,0,1,72.8,95.6Zm-1.584,3.058a0.948,0.948,0,0,1,.884-0.494,1.023,1.023,0,0,1,.852.442,2.021,2.021,0,0,1,.357,1.254,2.28,2.28,0,0,1-.351,1.379,0.992,0.992,0,0,1-.83.442,1.036,1.036,0,0,1-.862-0.462,2.272,2.272,0,0,1-.367-1.383A2.3,2.3,0,0,1,71.217,98.659Zm7.911-7.5a2.75,2.75,0,0,0-2.423,1.327,9.562,9.562,0,0,0-1.013,5.033c0,2.387.3,4.008,0.924,4.955a2.9,2.9,0,0,0,2.511,1.447A2.753,2.753,0,0,0,81.55,102.6a9.605,9.605,0,0,0,1.013-5.05A9.581,9.581,0,0,0,81.557,92.5,2.759,2.759,0,0,0,79.128,91.161Zm0.488,10.24a0.657,0.657,0,0,1-.972,0,2,2,0,0,1-.394-0.968,23.759,23.759,0,0,1,.021-5.888,1.777,1.777,0,0,1,.371-0.868,0.673,0.673,0,0,1,.488-0.215,0.663,0.663,0,0,1,.483.214,2.028,2.028,0,0,1,.4.974,15.873,15.873,0,0,1,.173,2.891,15.84,15.84,0,0,1-.194,2.988A1.782,1.782,0,0,1,79.615,101.4ZM65.261,95.265L64.324,92.38l-0.937,2.884H60.354l2.454,1.782L61.87,99.931l2.453-1.782,2.454,1.782L65.84,97.047l2.453-1.782H65.261Zm22.278,0L86.6,92.38l-0.937,2.884H82.632l2.454,1.782-0.937,2.884L86.6,98.149l2.454,1.782-0.937-2.884,2.453-1.782H87.539Z"/>
    </g>
    <rect id="Rectangle_2_copy_3" data-name="Rectangle 2 copy 3" class="cls-3" x="46" y="119" width="58" height="30"/>
    <path id="Rectangle_2_copy_3-2" data-name="Rectangle 2 copy 3" class="cls-4" d="M46,146v-3h58v3H46Zm0-24h58v3H46v-3Z"/>
    <path id="_125" data-name="125" class="cls-4" d="M60.618,140.925h7.7v-2.911H66.041V126.73H63.948L59.9,130.817l1.416,1.794,0.957-.658,1-1.415-0.379,1.535v5.941H60.618v2.911Zm18.318-10.307a3.834,3.834,0,0,0-1.067-2.971,3.766,3.766,0,0,0-2.642-.977,6.067,6.067,0,0,0-2.223.359,6.412,6.412,0,0,0-1.745,1.056l1.276,2.413a2.147,2.147,0,0,1,.8-0.548,2.381,2.381,0,0,1,.917-0.21,1.254,1.254,0,0,1,1.356,1.476,7.558,7.558,0,0,1-1.186,3.529,29.06,29.06,0,0,1-2.8,4.067v2.113h7.556v-2.911H76.464l-1.336.439v-0.14l0.977-.777Q78.936,133.768,78.936,130.618Zm6.4,7.536a4.09,4.09,0,0,1-1.954-.419l-0.9,2.811a4.939,4.939,0,0,0,1.386.479,7.8,7.8,0,0,0,1.665.2,5.049,5.049,0,0,0,3.589-1.246,4.734,4.734,0,0,0,1.336-3.638,5.1,5.1,0,0,0-.977-3.3,3.5,3.5,0,0,0-2.632-1.306l-0.638.12V130.2h3.768v-3.23h-6.5v7.736l1.236-.06a3.224,3.224,0,0,1,1.834.409,1.554,1.554,0,0,1,.578,1.365,1.819,1.819,0,0,1-.429,1.246A1.727,1.727,0,0,1,85.331,138.154Z"/>
  </g>
</svg>
