<svg id="Layer_1" data-name="Layer 1" xmlns="http://www.w3.org/2000/svg" width="150" height="150" viewBox="0 0 150 150"><circle cx="75" cy="75" r="73.93"/><circle cx="75" cy="75" r="68.8" fill="#eee"/><path d="M17.41,75a2.24,2.24,0,0,0-.5,2c.92,3.52,3.67,14,4.39,15.32.86,1.57,3.33,2.28,4,2a3.5,3.5,0,0,1,1.5-.23s-.12,3.52,1.87,3.78,2.32.64,5.46-2S47.23,86,53.81,84.28s14.9-2.25,19,.52,9.28,4.87,10.63,13.85,2.47,20.06,3.37,23,2.09,6.14,2.77,6,6.13-11.6,8.3-15.35S113.53,90,120,85.18s12.12-8.76,12.87-9.36.3-1.79-2.92-3.51-13.32-13-20.28-23.73-12-18-21.18-20.95S70.65,22.39,69.9,22.31s-.82.83-.82,2.55-1.57,5.61-4.34,7.86-2.92,3.59-5.54,3.44-8.16.22-9.28.9-2.54,5-3.37,7.18-20.73,21.4-20.73,21.4Z"/></svg>