<svg id="axis_tunisia_antitank_1_icon" xmlns="http://www.w3.org/2000/svg" width="150" height="150" viewBox="0 0 150 150">
  <defs>
    <style>
      .cls-1 {
        fill: #ffb33a;
      }

      .cls-1, .cls-3 {
        fill-rule: evenodd;
      }

      .cls-2 {
        fill: #151515;
      }

      .cls-3 {
        fill: #f2f2f2;
      }
    </style>
  </defs>
  <g id="axis_tunisia_antitank_1_icon_copy" data-name="axis_tunisia_antitank_1_icon copy">
    <path class="cls-1" d="M107.709,60A53.355,53.355,0,0,0,58.955,6.913V4.561H48.006V115.439H58.955v-2.352A53.356,53.356,0,0,0,107.709,60Zm-10-5.474H59.184V16.608A43.733,43.733,0,0,1,97.714,54.526Zm-38.53,48.866V65.474h38.53A43.733,43.733,0,0,1,59.184,103.392Z"/>
  </g>
  <g id="ger_copy_4" data-name="ger copy 4">
    <rect id="Rectangle_2_copy_3" data-name="Rectangle 2 copy 3" class="cls-2" x="46" y="119" width="58" height="30"/>
    <path id="Rectangle_2_copy_3-2" data-name="Rectangle 2 copy 3" class="cls-3" d="M46,146v-3h58v3H46Zm0-24h58v3H46v-3Z"/>
    <path id="_200" data-name="200" class="cls-3" d="M67.7,130.618a3.834,3.834,0,0,0-1.067-2.971,3.766,3.766,0,0,0-2.642-.977,6.067,6.067,0,0,0-2.223.359,6.412,6.412,0,0,0-1.745,1.056L61.3,130.5a2.147,2.147,0,0,1,.8-0.548,2.381,2.381,0,0,1,.917-0.21,1.254,1.254,0,0,1,1.356,1.476,7.558,7.558,0,0,1-1.186,3.529,29.06,29.06,0,0,1-2.8,4.067v2.113h7.556v-2.911H65.224l-1.336.439v-0.14l0.977-.777Q67.7,133.768,67.7,130.618Zm3.185,3.309q0,3.847,1.077,5.573a3.649,3.649,0,0,0,3.33,1.724,3.717,3.717,0,0,0,3.32-1.714q1.126-1.714,1.126-5.583,0-3.888-1.077-5.572a4.1,4.1,0,0,0-6.649.03Q70.881,130.1,70.881,133.927Zm3.33,0a16.782,16.782,0,0,1,.229-3.4,0.97,0.97,0,0,1,.847-0.947,1,1,0,0,1,.867.957,15.5,15.5,0,0,1,.249,3.389,17.043,17.043,0,0,1-.229,3.459,0.965,0.965,0,0,1-.867.927,0.975,0.975,0,0,1-.867-0.947A17.071,17.071,0,0,1,74.211,133.927Zm7.91,0q0,3.847,1.077,5.573a3.649,3.649,0,0,0,3.33,1.724,3.718,3.718,0,0,0,3.32-1.714q1.126-1.714,1.126-5.583,0-3.888-1.077-5.572a4.1,4.1,0,0,0-6.649.03Q82.121,130.1,82.121,133.927Zm3.33,0a16.79,16.79,0,0,1,.229-3.4,0.97,0.97,0,0,1,.847-0.947,1,1,0,0,1,.867.957,15.5,15.5,0,0,1,.249,3.389,17.051,17.051,0,0,1-.229,3.459,0.965,0.965,0,0,1-.867.927,0.975,0.975,0,0,1-.867-0.947A17.079,17.079,0,0,1,85.451,133.927Z"/>
  </g>
</svg>
