<svg id="Layer_1" data-name="Layer 1" xmlns="http://www.w3.org/2000/svg" width="150" height="150" viewBox="0 0 150 150"><path d="M73.12,147.64a108.54,108.54,0,0,1-40.47-32.32c-4.21-5.49-17-22.2-20.5-47-1.81-12.76-.55-23.88.29-31.25a13,13,0,0,1,7.2-10.31A26.34,26.34,0,0,0,33.45,10.25,7.88,7.88,0,0,1,41,4.55a8.13,8.13,0,0,1,1.3.1,181.52,181.52,0,0,0,29.45,2.4h6.42a178.61,178.61,0,0,0,43.55-5.32,8.32,8.32,0,0,1,2-.24,8.17,8.17,0,0,1,7.91,6.16l0,.11c2.5,9.91,4.66,18.48,5.88,29.34.84,7.37,2.1,18.49.29,31.25-3.5,24.77-16.29,41.48-20.5,47a108.54,108.54,0,0,1-40.47,32.32l-1.88.87Z"/><path d="M133.11,37.6c-1.2-10.56-3.33-19-5.78-28.75l0-.06v0a3.68,3.68,0,0,0-4.44-2.68,183,183,0,0,1-44.65,5.45H71.79A186.07,186.07,0,0,1,41.61,9.08a3.4,3.4,0,0,0-3.84,2.37A30.85,30.85,0,0,1,21.6,30.82a8.56,8.56,0,0,0-4.7,6.73v.05c-.84,7.42-2,17.93-.3,30.12,3.27,23.14,15.14,39,19.62,44.88a103.77,103.77,0,0,0,38.79,31,103.77,103.77,0,0,0,38.79-31c4.48-5.85,16.35-21.74,19.62-44.88C135.14,55.53,134,45,133.11,37.6Z" fill="#eee"/><path d="M73,125.69c-11-.65-19.43-6-25-15.86-2.64-4.62-1.21-6.66,4.17-6.58a7.89,7.89,0,0,1,6.94,3.41c3,4.15,7.92,5.58,12.78,6.42,10.59,1.83,19.61-5.92,20.14-16.75.4-8.12-3.38-13.39-10.27-16.85-4.66-2.34-9.77-3.31-14.76-4.63C56.87,72.17,50,64.11,48.51,53.23s2.58-19.25,11.65-25a25.61,25.61,0,0,1,34.77,7.42,18.4,18.4,0,0,1,1.29,2.29c.82,1.68.3,2.91-1.45,3.44-3.12,1-6.16,1-8.87-1.22a32.09,32.09,0,0,0-6-4.23c-5.58-2.78-10.78-2.18-15.52,1.84S57.2,47,58.86,53.4c1.89,7.25,7.78,11.73,15.35,12.26,10.19.7,18.62,4.77,24.49,13.43a26,26,0,0,1,4,10.29c3.75,21.18-9.43,32.83-24.39,35.8C76.69,125.5,75,125.5,73,125.69Z" fill="#fbbe14"/><path d="M69.05,105.52c0-1.08,0-2.16,0-3.23-.15-2.82-1-3.48-3.68-2.85-1.51.36-3,.92-4.47,1.34-1.1.31-2.68,1.52-3.13.84-.62-.92.81-2.11,1.35-3.19,1.09-2.18,2.28-4.31,3.3-6.52.28-.61.92-1.49.13-2.12-.62-.48-1.27.19-1.89.41-.09,0-.18.09-.27.12-1.2.43-2.44,2.25-3.44,1.2-.68-.71.77-2.39,1.41-3.56,1.91-3.52,4-6.93,5.4-10.7.49-1.37,1.31-1.43,2.49-1.18a96.11,96.11,0,0,1,12.93,3.63A3.41,3.41,0,0,1,81.08,81c2.18,3.37,4.79,6.41,7.29,9.54.29.36.87.72.61,1.22-.34.66-1,.23-1.54.19-1-.09-1.92-.36-2.89-.41-1.34-.08-1.88.48-1.06,1.75,1,1.56,2.05,3.09,3.05,4.66a31.89,31.89,0,0,1,1.61,2.78c.59,1.17-.08,1.38-1,1.17a13.39,13.39,0,0,1-1.94-.65c-.82-.32-1.61-.71-2.43-1C77,98.08,76.1,98.65,76,104.65c0,1,0,2,0,2.94-.07,3.86-.14,3.82-4,3.77-2.1,0-3.11-.72-2.92-2.91.08-1,0-2,0-2.93Z" fill="#028001"/><path d="M77.88,64.86a40.28,40.28,0,0,1-10.63-2.39c-.88-.35-1.77-.65-1.19-2.1,2.09-5.24,4-10.54,6.08-15.8.2-.51.29-1.31.88-1.39.9-.12,1,.87,1.19,1.42a160.68,160.68,0,0,1,6.48,17.52C81.45,64.59,81.07,64.93,77.88,64.86Z" fill="#028001"/></svg>