<svg id="Layer_1" data-name="Layer 1" xmlns="http://www.w3.org/2000/svg" width="150" height="150" viewBox="0 0 150 150"><rect x="50.06" y="47.73" width="9.37" height="43.56" fill="#fff"/><path d="M60.45,92.32H49V46.71H60.45Zm-9.36-2h7.32V48.76H51.09Z"/><rect x="50.06" y="47.73" width="9.37" height="43.79" fill="#eee"/><path d="M60.45,92.54H49V46.71H60.45Zm-9.36-2h7.32V48.76H51.09Z"/><path d="M73.69,100.1H44.55V91.52H73.69c11,0,14.15-12.56,14.15-21.78s-3.5-22-14.15-22H44.55V39.38H73.69c13.39,0,24.65,10.47,24.65,30.33S87.08,100.1,73.69,100.1Z" fill="#eee"/><path d="M73.69,101.12H43.53V90.5H73.69c2.19,0,13.13-1,13.13-20.76,0-7.79-2.77-21-13.13-21H43.53V38.36H73.69c15.36,0,25.68,12.6,25.68,31.35C99.37,85.34,91.43,101.12,73.69,101.12ZM45.57,99.07H73.69c16.32,0,23.63-14.74,23.63-29.36S90,40.41,73.69,40.41H45.57v6.3H73.69c7.55,0,15.18,7.12,15.18,23,0,10.52-4,22.8-15.18,22.8H45.57Z"/><polygon points="88.51 110.81 88.51 112.53 75.52 112.53 75.52 14.46 71.45 5.28 67.6 14.46 67.6 112.53 54.61 112.53 54.61 110.81 51.41 110.81 51.41 119.6 54.61 119.6 54.61 117.88 67.6 117.88 67.6 138.17 63.58 138.17 63.58 143.52 79.54 143.52 79.54 138.17 75.52 138.17 75.52 117.88 88.51 117.88 88.51 119.6 91.71 119.6 91.71 110.81 88.51 110.81" fill="#eee"/><path d="M80.56,144.55h-18v-7.4h4V118.91H55.64v1.72H50.39V109.79h5.25v1.72H66.58V14.26L71.42,2.69l5.12,11.56v97.26H87.49v-1.72h5.24v10.84H87.49v-1.72H76.54v18.24h4Zm-16-2.05H78.52v-3.3h-4V116.86h15v1.72h1.15v-6.74H89.53v1.72h-15V14.68l-3-6.81-2.84,6.8v98.89h-15v-1.72H52.44v6.74h1.15v-1.72h15V139.2h-4Z"/></svg>