<svg id="Layer_1" data-name="Layer 1" xmlns="http://www.w3.org/2000/svg" width="150" height="150" viewBox="0 0 150 150"><path d="M79.43,148.52h-.57c-8.73-7.3-13.71-17.05-18-27.53-2.69.25-5.51.64-8.34.76-11.08.48-11.65,1.29-18-9.36-4.66-7.82-10-14.07-18.17-18.14C11.18,91.7,9,86.59,8.61,81c-.52-8.58,7.18-16.74,15.79-17.11,2.66-.12,5.32-.28,8-.64a25.42,25.42,0,0,0,4.28-1.43c-2.83-2.53-5.73-2.69-8.49-3.08C24,58.15,19.89,57.35,16.26,55a16,16,0,0,1,.2-27.41c2.43-1.49,5-2.71,7.42-4.27,5.77-3.76,10-9,14-14.56C42.47,2.4,49,.79,56.31,1.84s10.89,6,12.31,12.89c.6,2.88,1,5.82,1.75,8.66a19.14,19.14,0,0,0,2,3.84,5.87,5.87,0,0,0,3.25-5,46.68,46.68,0,0,1,1-7.33c1.66-5.7,5.26-10.53,10.86-12,7-1.83,13.88-.29,18.69,6.06,2,2.66,4,5.35,5.94,8A26.29,26.29,0,0,0,120.59,25c6.93,3.82,12.36,8.88,13.72,17.17a14.64,14.64,0,0,1-.45,3c-2.33,7.09-5.26,11.31-12.31,12.56-3.27.58-6.61.78-9.88,1.36a23.82,23.82,0,0,0-4.16,1.55l.16,1.1a43.32,43.32,0,0,0,4.58,1c2.74.3,5.52.25,8.25.64,6.9,1,11.55,5.34,13.17,12.11.17.73.42,1.44.64,2.16v4.57a17.68,17.68,0,0,1-9.08,11.51c-.74.42-1.48.85-2.24,1.24A34.36,34.36,0,0,0,108.09,109a56.2,56.2,0,0,1-3.63,5.46,16.32,16.32,0,0,1-13.91,7.09c-1.42,0-2.86,0-4.27.13a13.54,13.54,0,0,0-2.33.6c1.18,6,5.8,9.11,9.6,13.47Zm10.65-34c1.83-.86,3.91-1.4,5.43-2.64a35,35,0,0,0,5.41-5.85,72.08,72.08,0,0,1,17-15.94,62.18,62.18,0,0,0,6.28-4.93,7.31,7.31,0,0,0,2.26-6.75,8.39,8.39,0,0,0-5-7.14A37.45,37.45,0,0,0,113.58,69c-2.88-.55-5.9-.45-8.74-1.13-3.08-.74-5.61-4.37-5.62-7.23,0-2.3,2.6-5.37,5.47-6.38a20.36,20.36,0,0,1,2.76-.72c3.63-.74,7.27-1.44,10.91-2.16,4.46-.88,7-3.69,7.75-8.07.72-4.16-1.49-7-4.74-9A71.83,71.83,0,0,1,102.55,17a18.64,18.64,0,0,0-7.23-5.25C90.76,9.8,87,11.55,85.11,16.1A24.08,24.08,0,0,0,83.49,23c-.36,3.66-1.46,6.89-4.2,9.41-5.35,4.93-12.78,2.88-14.73-4.08-.83-2.93-1.5-5.9-2.29-8.84a16.69,16.69,0,0,0-4.83-8.26c-2.26-2.08-4.88-2.81-7.61-1.36-2.23,1.19-4.67,2.51-6.19,4.43-6.43,8.14-13.57,15.24-22.71,20.52C15.06,38.19,16,46.09,22.21,49a35.7,35.7,0,0,0,7.91,2.24c3.44.72,7,.93,10.38,1.84,4.35,1.16,6.33,3.86,6.34,7.72,0,4.59-1.9,7.53-6.12,8.94a59.45,59.45,0,0,1-6.65,1.55c-4,.81-8.1,1.26-12,2.43a6.82,6.82,0,0,0-3.92,10.13,17.1,17.1,0,0,0,4.07,3.93c3.12,2.34,6.5,4.35,9.54,6.78,4.21,3.35,7.77,7.09,8.73,12.89.86,5.13,5.63,7.87,10.68,6.88,7.47-1.47,11.41-6.26,12.21-14.41a27.21,27.21,0,0,1,1.84-6.8c1.77-4.73,10.34-6.32,13.19-.63A23.1,23.1,0,0,1,80.62,98c.66,3.16.74,6.44,1.39,9.6C83,112.15,85.2,113.84,90.08,114.48ZM72.65,97.42c-2.29.17-3.53,1-3.52,3.16,0,5-.15,10.09.21,15.1.52,7.35,4,13.59,8.29,19.37.74,1,1.71,2.58,3.2,1.41s.07-2.32-.66-3.36c-.11-.15-.27-.28-.38-.43-3.47-4.86-6.2-10-6.24-16.2,0-5.32-.22-10.64-.4-16A25.19,25.19,0,0,0,72.65,97.42Z"/><path d="M90.08,114.48c-4.88-.64-7.13-2.33-8.07-6.87-.65-3.16-.73-6.44-1.39-9.6a23.1,23.1,0,0,0-2.2-5.49c-2.85-5.69-11.42-4.1-13.19.63a27.21,27.21,0,0,0-1.84,6.8c-.8,8.15-4.74,12.94-12.21,14.41-5,1-9.82-1.75-10.68-6.88-1-5.8-4.52-9.54-8.73-12.89-3-2.43-6.42-4.44-9.54-6.78a17.1,17.1,0,0,1-4.07-3.93,6.82,6.82,0,0,1,3.92-10.13c3.89-1.17,8-1.62,12-2.43a59.45,59.45,0,0,0,6.65-1.55c4.22-1.41,6.13-4.35,6.12-8.94,0-3.86-2-6.56-6.34-7.72-3.38-.91-6.94-1.12-10.38-1.84A35.7,35.7,0,0,1,22.21,49C16,46.09,15.06,38.19,20.93,34.79c9.14-5.28,16.28-12.38,22.71-20.52,1.52-1.92,4-3.24,6.19-4.43,2.73-1.45,5.35-.72,7.61,1.36a16.69,16.69,0,0,1,4.83,8.26c.79,2.94,1.46,5.91,2.29,8.84,2,7,9.38,9,14.73,4.08,2.74-2.52,3.84-5.75,4.2-9.41a24.08,24.08,0,0,1,1.62-6.87c1.89-4.55,5.65-6.3,10.21-4.36A18.64,18.64,0,0,1,102.55,17,71.83,71.83,0,0,0,121.37,34.3c3.25,2,5.46,4.85,4.74,9-.76,4.38-3.29,7.19-7.75,8.07-3.64.72-7.28,1.42-10.91,2.16a20.36,20.36,0,0,0-2.76.72c-2.87,1-5.47,4.08-5.47,6.38,0,2.86,2.54,6.49,5.62,7.23,2.84.68,5.86.58,8.74,1.13a37.45,37.45,0,0,1,7.89,2.23,8.39,8.39,0,0,1,5,7.14,7.31,7.31,0,0,1-2.26,6.75A62.18,62.18,0,0,1,118,90.05a72.08,72.08,0,0,0-17,15.94,35,35,0,0,1-5.41,5.85C94,113.08,91.91,113.62,90.08,114.48ZM81.2,60.8c4.79-4.61,9-9,13.6-13,3.73-3.23,5.7-3,9.52.21a7.94,7.94,0,0,0,11.22-.58,4.71,4.71,0,0,0,1.29-3c-.14-3.53-1.15-6.71-4.31-8.88A49.63,49.63,0,0,1,106.7,31c-4.46-4.18-8.8-8.49-13.36-12.92-.88,2.71-1.59,5.16-2.48,7.54q-1.74,4.63-3.73,9.18c-.79,1.81-1.45,3.85-2.77,5.21-3.5,3.62-7.33,6.91-11,10.35-1.2,1.12-2.26,1.15-3.44,0-4.4-4.48-8.94-8.82-13.19-13.44a9.63,9.63,0,0,1-2-4.88c-.7-4.44-2.61-8.27-5.22-12.25-3.24,3.76-8.56,5.44-9,10.65-3.56,1.84-6.89,3.41-10.06,5.26-2.59,1.52-4.15,6.28-3.23,9.13a3.31,3.31,0,0,0,1.12,1.56,9.13,9.13,0,0,0,9.59.34c4.36-2.68,7.6-2.43,11.31,1.14,3.48,3.37,6.91,6.83,10.17,10.41,2.38,2.61,2.35,2.83-.07,5.41C52.24,71.24,45,78.79,37.78,86.39c-.83.88-1.56,1.86-2.61,3.11L43,96.75c1.29-1.1,2.25-1.87,3.15-2.7C54,86.8,61.81,79.56,69.58,72.25c1.7-1.6,3.12-1.81,4.84-.09,2.09,2.08,4.32,4,6.45,6.06,5.51,5.25,11,10.54,16.53,15.77.92.86,2,2.19,3.44,1,2.39-1.93,4.64-4,7.29-6.38Z" fill="#eee"/><path d="M72.65,97.42a25.19,25.19,0,0,1,.5,3.08c.18,5.33.37,10.65.4,16,0,6.22,2.77,11.34,6.24,16.2.11.15.27.28.38.43.73,1,2.19,2.16.66,3.36s-2.46-.42-3.2-1.41c-4.32-5.78-7.77-12-8.29-19.37-.36-5-.17-10.07-.21-15.1C69.12,98.44,70.36,97.59,72.65,97.42Z" fill="#eee"/><path d="M81.2,60.8l26.93,27.84c-2.65,2.34-4.9,4.45-7.29,6.38-1.44,1.16-2.52-.17-3.44-1-5.54-5.23-11-10.52-16.53-15.77-2.13-2-4.36-4-6.45-6.06-1.72-1.72-3.14-1.51-4.84.09C61.81,79.56,54,86.8,46.16,94.05c-.9.83-1.86,1.6-3.15,2.7L35.17,89.5c1-1.25,1.78-2.23,2.61-3.11C45,78.79,52.24,71.24,59.41,63.6c2.42-2.58,2.45-2.8.07-5.41-3.26-3.58-6.69-7-10.17-10.41C45.6,44.21,42.36,44,38,46.64a9.13,9.13,0,0,1-9.59-.34,3.31,3.31,0,0,1-1.12-1.56c-.92-2.85.64-7.61,3.23-9.13,3.17-1.85,6.5-3.42,10.06-5.26.4-5.21,5.72-6.89,9-10.65,2.61,4,4.52,7.81,5.22,12.25a9.63,9.63,0,0,0,2,4.88c4.25,4.62,8.79,9,13.19,13.44,1.18,1.19,2.24,1.16,3.44,0,3.68-3.44,7.51-6.73,11-10.35,1.32-1.36,2-3.4,2.77-5.21q2-4.55,3.73-9.18c.89-2.38,1.6-4.83,2.48-7.54,4.56,4.43,8.9,8.74,13.36,12.92a49.63,49.63,0,0,0,5.82,4.6c3.16,2.17,4.17,5.35,4.31,8.88a4.71,4.71,0,0,1-1.29,3,7.94,7.94,0,0,1-11.22.58c-3.82-3.18-5.79-3.44-9.52-.21C90.21,51.79,86,56.19,81.2,60.8Zm-8.79-3.27a4.09,4.09,0,0,0-4.31,4,3.93,3.93,0,0,0,3.82,4.12C74.1,65.6,76,63.45,76,61,76.09,58.87,74.68,57.53,72.41,57.53Z"/><path d="M72.41,57.53c2.27,0,3.68,1.34,3.63,3.46-.05,2.46-1.94,4.61-4.12,4.66a3.93,3.93,0,0,1-3.82-4.12A4.09,4.09,0,0,1,72.41,57.53Z" fill="#eee"/></svg>