<svg id="Layer_1" data-name="Layer 1" xmlns="http://www.w3.org/2000/svg" viewBox="0 0 150 150"><defs><style>.cls-1{fill:#202066;}.cls-2{fill:#e8c21f;}.cls-3{fill:#151515;}.cls-4{fill:#351a0b;}.cls-5{fill:#eee;}.cls-6{fill:#177c14;}.cls-7{fill:#d81a1a;}.cls-8{fill:#89746d;}</style></defs><path class="cls-1" d="M137.5,0V87.5a62.5,62.5,0,1,1-125,0V0Z"/><path class="cls-2" d="M137.5,45.63V87.5a62.5,62.5,0,1,1-125,0V45.63L33.33,25,54.17,45.63,75,25,95.83,45.63,116.67,25Z"/><path class="cls-3" d="M132.5,5V87.5a57.5,57.5,0,1,1-115,0V5h115m5-5H12.5V87.5a62.5,62.5,0,0,0,125,0V0Z"/><path class="cls-4" d="M110,60.72a9.52,9.52,0,0,0-2.72-5.38,12.94,12.94,0,0,0-9.57-2.87,9.84,9.84,0,0,0-6,3.3,8.11,8.11,0,0,0-1,1.34,28.09,28.09,0,0,1,3.14,2,6.83,6.83,0,0,1,2.69,4.55,6.13,6.13,0,0,1-1.78,5c-1.49,1.46-3.81,1.77-5.83,1.76a10.92,10.92,0,0,1-5.27-1.14,4.59,4.59,0,0,1-2-2A14.1,14.1,0,0,1,80.34,62c0-1.31,0-2.63,0-3.94V56.48c0-3.08-.11-9.8-4.48-10.34s-7.81.74-9.85,2.73a8.19,8.19,0,0,0-2.4,3.83l6.08,1,0,2.77v1.61c0,1.31,0,2.63,0,3.94a14.1,14.1,0,0,1-1.31,5.24,4.54,4.54,0,0,1-2,2,10.92,10.92,0,0,1-5.27,1.14c-2,0-4.34-.3-5.83-1.76a6.13,6.13,0,0,1-1.78-5,6.83,6.83,0,0,1,2.69-4.55,28.09,28.09,0,0,1,3.14-2,8.11,8.11,0,0,0-1-1.34,9.84,9.84,0,0,0-6-3.3,12.94,12.94,0,0,0-9.57,2.87A9.52,9.52,0,0,0,40,60.72c-.75,4.16-.15,8.72.29,12.89,1.61,15.15,4.33,33.06,4.92,43s.58,14.68.58,14.68S52,127.55,54,118.13l2-9.43h1.92s-.37,3.31.72,5.11a3.23,3.23,0,0,0,2.49,1.79s0-2.39,1.44-2.39,2.45,1,3.36,2.89a13.07,13.07,0,0,0,2.31,3.21s1.94.09,1.16-2.09-2-3.52-1.36-4.53,1.39-2.5,2.7-1.85,3.18,5.47,3.18,5.47L75,118l1.15-1.66s1.87-4.82,3.18-5.47,2.11.83,2.7,1.85-.59,2.34-1.36,4.53,1.16,2.09,1.16,2.09a13.07,13.07,0,0,0,2.31-3.21c.91-1.85,2-2.89,3.36-2.89s1.44,2.39,1.44,2.39a3.23,3.23,0,0,0,2.49-1.79c1.09-1.8.72-5.11.72-5.11h1.92l2,9.43c2,9.42,8.12,13.17,8.12,13.17s0-4.74.58-14.68,3.31-27.86,4.92-43C110.11,69.44,110.71,64.88,110,60.72Z"/><circle class="cls-1" cx="75" cy="126.01" r="12.23"/><path class="cls-5" d="M74.81,123.32a1.09,1.09,0,0,1-.27.64,65.94,65.94,0,0,0-4.33,8.13c-.37.82-.31,1.2-.59,1.2a2.07,2.07,0,0,1-1.54-1.62.58.58,0,0,1,.06-.29c1.18-2.89,3.21-6.51,3.73-7.7a9.45,9.45,0,0,0-2.06-.2c-.33,0-.66,0-1,0-.56,0-1.67-1.17-1.67-1.56,0,0,0-.07,0-.09.75-.65,3.1-.59,3.6-.59a14,14,0,0,1,2.67.12c.58.15,1,1.06,1.3,1.57A.84.84,0,0,1,74.81,123.32Z"/><path class="cls-5" d="M83.16,123.32a1.16,1.16,0,0,1-.27.64,65.94,65.94,0,0,0-4.33,8.13c-.38.82-.32,1.2-.59,1.2a2.05,2.05,0,0,1-1.54-1.62.71.71,0,0,1,0-.29c1.19-2.89,3.22-6.51,3.74-7.7a9.52,9.52,0,0,0-2.06-.2c-.34,0-.67,0-1,0-.57,0-1.68-1.17-1.68-1.56,0,0,0-.07,0-.09.75-.65,3.1-.59,3.61-.59a13.83,13.83,0,0,1,2.66.12c.58.15,1.06,1.06,1.3,1.57A.72.72,0,0,1,83.16,123.32Z"/><path class="cls-6" d="M76.38,73.33,58.73,91a38.49,38.49,0,0,1-2.12-17.64Z"/><path class="cls-7" d="M93.63,77.08,66.8,103.92a37.58,37.58,0,0,1-6.48-9.27A38.22,38.22,0,0,1,58.73,91L76.38,73.33h17A35.54,35.54,0,0,1,93.63,77.08Z"/><path class="cls-5" d="M89.68,94.65A38.38,38.38,0,0,1,75,110.49h0a0,0,0,0,1,0,0,0,0,0,0,1,0,0h0a38.55,38.55,0,0,1-8.19-6.57L93.63,77.08A38,38,0,0,1,89.68,94.65Z"/><path class="cls-8" d="M73.39,49.82a3,3,0,0,1-1.87.82,3.05,3.05,0,0,1-1.87-.82A3.05,3.05,0,0,1,71.52,49,3,3,0,0,1,73.39,49.82Z"/></svg>