<svg xmlns="http://www.w3.org/2000/svg" width="150" height="150" viewBox="0 0 150 150">
  <defs>
    <style>
      .cls-1 {
        fill: #c1272d;
      }

      .cls-2 {
        fill: #151515;
      }

      .cls-3 {
        fill: #c6a453;
      }
    </style>
  </defs>
  <g id="Layer_6" data-name="Layer 6">
    <g>
      <path class="cls-1" d="M74.80114,144.14881c-4.54132-5.96049-20.15266-9.93247-40.30423-16.46229-18.39456-5.96049-17.03-24.97727-17.03-24.97727V15.57264C34.21308,6.20617,74.80114,5.85138,74.80114,5.85138h.33839s40.58806.35479,57.33418,9.72126v87.13661s2.27066,19.01678-17.03,24.97727c-20.23993,6.25057-35.76291,10.5018-40.30423,16.46229Z"/>
      <path class="cls-2" d="M75.13947,146.50612h-.33824a2.35759,2.35759,0,0,1-1.875-.92865c-3.31012-4.3443-14.74253-7.93882-29.21659-12.48962-3.18545-1.0016-6.47892-2.03721-9.93956-3.15853a25.59875,25.59875,0,0,1-16.90689-16.17587,30.45312,30.45312,0,0,1-1.75352-11.11507V15.57266a2.35747,2.35747,0,0,1,1.20668-2.0574C33.39288,3.96387,73.09871,3.50876,74.78069,3.49388h.35878c1.70252.01488,41.40834.47,58.48488,10.02138a2.35749,2.35749,0,0,1,1.20667,2.0574v87.01508a28.58933,28.58933,0,0,1-1.39969,11.12463c-1.85871,5.54035-6.36736,12.85265-17.29188,16.22687q-3,.92652-5.85593,1.79779c-16.55767,5.0686-29.63557,9.07183-33.269,13.84044A2.35759,2.35759,0,0,1,75.13947,146.50612ZM19.82445,16.9929v85.71632c0,.05631-.00213.11263-.006.16859-.0464.69666-.95663,17.26425,15.40518,22.56624,3.44081,1.11495,6.72437,2.14737,9.90025,3.14578,14.0703,4.42436,24.67855,7.75927,29.84277,12.31714,5.63173-5.0137,17.77674-8.73147,33.93667-13.67823q2.84757-.8718,5.84495-1.7946c7.23792-2.2352,12.02-6.68364,14.213-13.22135a23.53368,23.53368,0,0,0,1.17161-9.22413,2.37613,2.37613,0,0,1-.01665-.27944V16.9929C113.38468,8.64039,75.50887,8.21184,75.11893,8.20865h-.3177C74.43112,8.2122,36.54823,8.64464,19.82445,16.9929Z"/>
      <g>
        <path class="cls-3" d="M114.8761,54.59962a10.53171,10.53171,0,0,1-3.97367-6.95389c1.703-.99342,3.68984.85148,3.68984.85148,2.12872-.85148,3.83173-3.406,2.6964-5.39282s-6.10241-4.82515-8.6569.28385-.8515,8.373,3.68982,12.77243c4.54134,4.39947,6.95391,8.37309,6.52815,8.65691s-2.6964.28387-5.67665-1.56107-6.95389-8.37307-9.65031-10.07605-16.6042-1.98683-16.6042-1.98683c6.24432-2.12875,8.94072-5.53473,8.94072-5.53473,7.23774-2.83834,6.812-4.54132,6.812-4.54132,8.6569-1.27727,12.2048-5.67667,12.2048-5.67667,6.24432-4.82515,7.52156-9.50838,7.52156-9.50838-24.40961-2.12874-51.23178,5.39282-51.23178,5.39282-1.56109-5.67667-9.36648-9.08265-9.36648-9.08265-13.482-2.27066-21.57128,3.12216-24.97727,6.95391s-.83745,7.02446-.83745,7.02446a8.118,8.118,0,0,0-3.70387,4.75459C29.72632,48.63914,38.809,51.61937,38.809,51.61937c0,5.53476,1.84492,9.65031,3.08411,10.331s2.45062-.96451,2.45062-.96451c-.56767,2.83836.853,6.638.853,6.638L40.0862,65.52717c-3.12216-1.41918-4.3994,1.8449-4.3994,1.8449l-1.41916.42576c-3.97366.5677-1.73012,2.44739-1.73012,2.44739L30.294,71.6296l4.96708,25.403,12.48862-2.2707L47.182,97.7422s8.23113.42572,9.22455-.28387a8.47548,8.47548,0,0,0,1.56107-1.41918,10.8864,10.8864,0,0,1,2.5545-.14189c.85151.14189.70957-1.13535.70957-1.13535s.56768-1.41913.8515-2.27061.56768-5.109,1.13533-6.67009,3.97367-6.67009,4.11558-7.52157a13.92506,13.92506,0,0,0-.14191-2.83831,37.261,37.261,0,0,0,17.03-5.109s.14191,1.8449,3.12214,5.109S96.14315,80.996,96.14315,80.996v1.70305s-.42576,3.12214-.99342,3.83173-4.68325,3.83173-4.68325,3.83173c-3.406-.42572-5.39282,1.56107-5.67665,2.69642s-2.1356,5.3325-2.1356,5.3325l11.02982-.409c1.65647-4.443,7.71-10.45825,8.56149-11.0259s2.27066-3.97367,2.27066-3.97367a19.32016,19.32016,0,0,1-1.703-2.55448c-.28384-.70959.70957-1.703.70957-1.703,1.56109,1.98683,5.67667,3.406,5.67667,3.406a19.88712,19.88712,0,0,1,3.12214,3.406c.70959,1.27729-.14191,6.67008-.14191,6.67008-2.12875-.85148-3.12217.42577-3.83173,1.27725s-3.36369,5.28358-3.36369,5.28358,8.33075-.45839,8.75651-.60033a10.34345,10.34345,0,0,0,3.26407-1.703c.56766-.70959.14192-16.88807.14192-16.88807-4.96708-8.08922-5.53474-11.921-5.53474-11.921a7.66762,7.66762,0,0,0,7.23772,1.561,3.31136,3.31136,0,0,0,2.55451-3.68979C121.26233,63.25651,118.70783,57.86371,114.8761,54.59962ZM56.54849,84.11821c-.28383,1.27724-1.98683,4.54131-3.406,5.53473s-2.12874.56765-2.12874.56765L47.89159,69.3589s7.66348,7.6635,7.94733,8.08926A22.86019,22.86019,0,0,1,56.54849,84.11821Z"/>
        <rect class="cls-3" x="31.00356" y="98.59368" width="89.40727" height="13.0563"/>
        <g>
          <g>
            <path class="cls-2" d="M59.68075,50.08053c-.00747-.01267-.01168.02533.00962.063l-.00144-.01669Z"/>
            <path class="cls-2" d="M62.37721,41.75193a.34257.34257,0,0,0-.55517.3524,9.79169,9.79169,0,0,1,.59083,1.93789,5.17441,5.17441,0,0,1-.09394,1.99068,5.04539,5.04539,0,0,1-.80057,1.76889,5.39351,5.39351,0,0,1-.70047.77128c-.12161.11325-.24033.22085-.3468.33715a1.9853,1.9853,0,0,0-.43382-.37841.52712.52712,0,0,0-.69284.74821,2.92527,2.92527,0,0,1,.15817.27524c.00641.01191.03043.04553.05016.07743a.16678.16678,0,0,0,.00909.0292c.01326.03706.0286.07305.04115.11037a2.66116,2.66116,0,0,1,.07755.307l.0002.00128a.07668.07668,0,0,1,.00677.02995l.00142.01632a.10908.10908,0,0,0,.008.03008l-.0066-.01339c.00563.05534.01209.11041.01433.16615q.00325.08016.00075.16042l-.002.0402a2.15786,2.15786,0,0,0-.06285.3316c-.0019.007-.01345.05724-.02612.10213l-.01607.03433c-.01117.02424-.02118.049-.03245.07325a2.993,2.993,0,0,1-.15772.27869c-.01286.01567-.02514.032-.03811.04746q-.05075.06054-.10634.11664c-.01851.01863-.03781.03645-.05674.05469-.02322.02241-.0856.04866-.01556.0153l.01638-.00793a.35374.35374,0,0,0-.03526.01957c-.02725.01873-.05379.03839-.08157.05634-.04425.0286-.09076.052-.13625.07787-.02526.00788-.05.01977-.07493.02851-.05567.01951-.11188.03434-.16888.04926-.00867.00228-.027.00522-.04236.00763l-.03763.00368c-.05771.00531-.11573.00777-.17368.0075-.02907-.00013-.05791-.0019-.08691-.00243-.09436-.00166-.02344.00347.01091.00411a1.04607,1.04607,0,0,1-.369-.08467l-.04155-.01421-.02375-.01016c-.053-.02621-.10738-.04912-.15976-.07683q-.07839-.04156-.15351-.089c-.025-.01583-.04923-.03281-.07409-.04883.117.07537-.00354-.00534-.02235-.0205a2.95422,2.95422,0,0,1-.28872-.273c-.02-.02117-.03887-.04352-.05895-.06462.09065.0951-.00359-.00717-.018-.02678-.039-.05289-.07367-.108-.10847-.16361-.03845-.06152-.08181-.11719-.12225-.17722-.01021-.01514-.06347-.11464-.06718-.11637a1.64582,1.64582,0,0,0-.10515-.239c.001.00166-.05731-.07251-.06572-.0821-.01771-.02375-.0354-.0475-.0522-.072a.299.299,0,0,0-.50851.01954.84791.84791,0,0,0-.15391.50663,2.0797,2.0797,0,0,0,.06329.51508,2.16712,2.16712,0,0,0,.57263.89876,2.81567,2.81567,0,0,0,1.83492.79335c.04624.00217.09233-.001.13852-.002l-.00734.02849q-.01313.04649-.02878.09224c-.02435.05953-.05129.11794-.08033.17532q-.04483.08855-.09621.1733-.02534.04263-.05277.0839.04178-.05392.00124-.00065a1.78056,1.78056,0,0,1-.52159.50176c-.0552.03581-.11245.06778-.16958.10034a.30432.30432,0,0,0-.04038.02519.52042.52042,0,0,0-.05027.01643,2.35277,2.35277,0,0,1-.35552.1057c-.01857.00008-.12328.012-.12226.01193-.06552.00456-.13149.00615-.19714.00487a.96956.96956,0,0,1-.29394-.03921,1.86224,1.86224,0,0,1-.64719-.267,2.20156,2.20156,0,0,1-.46977-.41384c-.17319-.21817-.3092-.54558-.5727-.66522-.01645-.0143-.03356-.02785-.04981-.04264a.344.344,0,0,0-.56209.17175c-.01588.05406-.02987.10774-.04244.16262-.24084.65909.60819,1.45552,1.08882,1.78581.02524.01731.05247.03219.07832.04874a.44525.44525,0,0,0-.28589.22358l-.02094-.01612c-.282.41217-.1482,1.04942-.12958,1.52632q.0324.83142.037,1.66369c.00609,1.10888-.02038,2.2201-.06926,3.32787-.04748,1.07643-.10047,2.15493-.186,3.2291-.04383.55048-.09478,1.10086-.15913,1.64939a13.92892,13.92892,0,0,0-.202,1.72705.34748.34748,0,0,0,.679.09191,9.21035,9.21035,0,0,0,.38472-1.70234c.10222-.543.1996-1.08652.28573-1.63226.17625-1.11667.31579-2.23436.38578-3.36285.06878-1.1091.08591-2.217.06134-3.32787q-.01938-.87612-.06962-1.75122a2.84019,2.84019,0,0,0-.26279-1.40811,2.86794,2.86794,0,0,0,1.52935.21848,3.127,3.127,0,0,0,2.62521-3.06009,2.27247,2.27247,0,0,0,.23437-.22423,2.88824,2.88824,0,0,0,.69443-1.75029,2.40762,2.40762,0,0,0-.04144-.62612,3.19409,3.19409,0,0,0,1.54918-1.37477,6.10323,6.10323,0,0,0,.94151-2.17824C63.714,44.78309,63.57667,42.8487,62.37721,41.75193Z"/>
          </g>
          <path class="cls-2" d="M59.89885,53.83453a.21946.21946,0,0,0-.0456-.10957.387.387,0,0,0-.04226-.04726l-.05855-.05538c-.03809-.036-.07606-.07186-.11594-.10592l-.23938-.20436a.21385.21385,0,0,0-.13395-.05678c-.00542-.01076-.00872-.02278-.01476-.03312a.7021.7021,0,0,0-.93814-.246,12.51875,12.51875,0,0,1-2.87606,1.02255,1.897,1.897,0,0,1-1.15023-.13911c-.03309-.01525-.06519-.03417-.0975-.05226a2.2618,2.2618,0,0,0,1.29364-1.3027.77874.77874,0,0,0,.46995.06439.91422.91422,0,0,0,.62525-.45148,1.888,1.888,0,0,0,.241-.55484,2.6114,2.6114,0,0,0-.437-2.119c-.02734-.03547-.05618-.068-.08546-.09977a1.73778,1.73778,0,0,0,1.256-1.38542.60145.60145,0,0,0-.07236-.42545.55543.55543,0,0,0-1.0092.17153,1.15,1.15,0,0,1-.03706.19192l-.00057.00181a.79613.79613,0,0,0-.03414.07471c-.01346.02554-.02882.04989-.04336.0748-.03553.0419-.0698.084-.10953.12236l-.00872.008c-.02116.01421-.04295.033-.06189.04558q-.04074.02709-.08359.05089l-.003.00159c-.04746.00757-.1088.04425-.15418.05676l-.02977.00836c.05509-.01624-.0317.00246-.05386.00381-.02658.00159-.05324.00279-.07989.00281l-.01844-.00055-.0172-.00357a.59154.59154,0,0,0-.34906-.14237c-.0056-.00388-.00626-.00363-.00314-.00023l-.00135-.00008-.01368-.01213c-.02453-.02068-.04843-.04186-.07309-.06236-.049-.04062-.09505-.08175-.14015-.1266l-.00874-.00821-.00449-.00679c-.01811-.026-.03637-.05125-.05244-.07868l-.02132-.0409c-.00693-.01942-.02543-.06665-.02794-.07394a.353.353,0,0,0-.686.11985,1.49034,1.49034,0,0,0,.42138,1.00787,8.741,8.741,0,0,1,.03738.88988c-.0019.08633-.00692.17238-.01246.25851l-.00192.02395q-.00714.06309-.01587.126c-.01884.13556-.04735.26953-.07708.40314a.30241.30241,0,0,0-.1579.19723,1.49694,1.49694,0,0,0-.06167.31353.50894.50894,0,0,0,.03121.14614l-.01244.03493-.0199.0501c-.03418.07916-.06722.15858-.104.23661a7.31811,7.31811,0,0,1-.52075.89.5222.5222,0,0,0-.07417.35739,2.27032,2.27032,0,0,1-2.47046-1.43,4.69805,4.69805,0,0,1-.30193-.84011.43857.43857,0,0,0,.15811-.06554.62974.62974,0,0,0,.23239-.3275c-.06079.1633-.00153.00821.01675-.03323q.03242-.07344.06911-.14483a2.82635,2.82635,0,0,1,.1544-.26464l.02238-.03325c.02955-.03765.0583-.0759.08892-.11278a2.96244,2.96244,0,0,1,.20785-.22543q.05227-.05113.107-.09961l.00575-.00536.02245-.01808c.08046-.0632.16518-.12064.24715-.18183a2.85384,2.85384,0,0,1,.24216-.16228c.04549-.0272.0939-.05038.1384-.079a.527.527,0,0,0,.11249-.09786.74454.74454,0,0,0,.22311-.17231.4145.4145,0,0,0,.09622-.33715.3704.3704,0,0,0-.20037-.28232.66249.66249,0,0,0-.31493-.049c-.04276.00423-.08527.01054-.12774.01687a.84588.84588,0,0,0-.37481.07752,4.23944,4.23944,0,0,0-.386.18455,2.69925,2.69925,0,0,0-.59446.48161,3.225,3.225,0,0,0-.45385.5833,5.024,5.024,0,0,1-2.16091-3.00477,5.21358,5.21358,0,0,1-.09042-2.27558.35638.35638,0,0,0,.07435-.36307,7.24778,7.24778,0,0,1,.40113-1.20988l.00456-.01426c.065-.0031.13-.00812.19621-.01324.35643-.02753.7914-.00261,1.00477-.3466a.37405.37405,0,0,0-.0576-.44633c-.28281-.28252-.71716-.15085-1.06755-.09655a2.73,2.73,0,0,0-.38824.077l-.39209.12011a.34716.34716,0,0,0-.24761.37927.32755.32755,0,0,0,.08354.17488,4.457,4.457,0,0,0-.44766,1.00878,6.54533,6.54533,0,0,0-3.58261.73885,5.84483,5.84483,0,0,0-2.74558,3.00825c-.13.31783.38658.52363.54895.23143a6.09772,6.09772,0,0,1,5.602-3.1207,6.2138,6.2138,0,0,0,.0066,1.54595.56519.56519,0,0,0-.57458-.04436,4.40452,4.40452,0,0,0-1.18425,1.28459A14.18045,14.18045,0,0,0,44.7,48.27917a10.65306,10.65306,0,0,0-1.27069,3.143.26091.26091,0,0,0,.50273.1386,14.30373,14.30373,0,0,1,1.49433-2.857,10.53365,10.53365,0,0,1,.95539-1.20944,12.12025,12.12025,0,0,0,1.19151-1.15171c.01011.04223.01618.08595.02711.12783a6.11881,6.11881,0,0,0,2.2961,3.3997.86.86,0,0,0,.00546.203c.03608.21571.0752.43092.125.64395a5.70091,5.70091,0,0,0,.36728,1.08871,3.78346,3.78346,0,0,0,1.54128,1.75571,2.96259,2.96259,0,0,0,.6278.26453,1.14713,1.14713,0,0,0,.19643.39256.40691.40691,0,0,0-.02891.09014,20.64278,20.64278,0,0,0-.047,2.953q.01464,1.47769-.04281,2.95483c-.03666.95433-.07779,1.90781-.14878,2.86036-.03767.50576-.08836,1.01011-.13221,1.51534-.03575.41182-.07916.78011.27249,1.05013a.29136.29136,0,0,0,.29175,0c.39814-.17373.41171-.67072.45839-1.05013.0584-.47446.10725-.95025.15241-1.42613.09587-1.01042.17379-2.02451.20661-3.039q.04782-1.47692.02351-2.95488a17.37975,17.37975,0,0,0-.12675-2.20742,2.781,2.781,0,0,0,1.77.3805,11.836,11.836,0,0,0,3.594-1.185.57343.57343,0,0,0,.295-.35752l.0244.02835c.03327.0387.06818.07555.10337.1125l.05556.05837c.00879.00921.01736.01864.02685.02712a.2825.2825,0,0,0,.10221.05959.48886.48886,0,0,0,.0736.00958.2187.2187,0,0,0,.15628-.06472.21341.21341,0,0,0,.06472-.15628Z"/>
          <path class="cls-2" d="M60.61923,35.98249a2.87468,2.87468,0,0,0-3.08386-.75913,3.31618,3.31618,0,0,0-2.03069,2.57191A2.91583,2.91583,0,0,0,56.748,40.57434a.58012.58012,0,0,0-.009.33619,27.72928,27.72928,0,0,1,.65341,3.33237q.111.84938.17142,1.70432a6.21883,6.21883,0,0,0,.22866,1.72919.58314.58314,0,0,0,1.11389-.04281,4.77885,4.77885,0,0,0,.00124-1.86992c-.068-.58276-.15558-1.16271-.25677-1.7406-.12967-.74053-.29012-1.47423-.475-2.202a.32325.32325,0,0,0,.16743-.1988q.01915-.055.00409-.0187.00889-.02252.01923-.04443c.01286-.02721.02713-.05358.04179-.07982a.70237.70237,0,0,0,.09941-.11658c.02447-.0312.10613-.14866.15348-.16623l.002,0c-.04142.03343-.05233.0424-.02606.02152l.02821-.02153c.029.00059.05785-.001.08683-.00128a.48278.48278,0,0,0,.198.18175.40852.40852,0,0,0,.02081.15586l.05917.12643a.541.541,0,0,0,.20042.18558.69413.69413,0,0,0,.29964.10584l-.00155-.00014.00347.00049.00375.00063.01557.00587a.44217.44217,0,0,0,.233.00148.801.801,0,0,0,.111-.02254l.01753-.008a.67431.67431,0,0,0,.064.15511.615.615,0,0,0,.4792.28753.60746.60746,0,0,0,.46792-.14414.67175.67175,0,0,0,.23285-.51218,1.89048,1.89048,0,0,0-.73754-1.57422.42257.42257,0,0,0-.55829-.45785c-.01628.00634-.03309.01009-.04934.016a1.2294,1.2294,0,0,0-.62329.0563c-.08909.02724-.18008.0464-.26991.07065l-.01036.00308-.00107-.00009c-.06405-.00033-.13133.01563-.19567.01948-.09406.00563-.18739.00166-.28143.0016-.00715,0-.01821-.00072-.02906-.00161-.034-.00432-.06795-.00851-.10179-.014a2.81643,2.81643,0,0,1-.27756-.05958c-.04568-.01225-.09047-.02767-.13606-.04l-.03147-.00783-.02337-.01084a3.00231,3.00231,0,0,1-.474-.255c-.01656-.01241-.03814-.02857-.0476-.03675-.03531-.03061-.07194-.05953-.10662-.091q-.04137-.03748-.08108-.07694c-.01265-.01257-.089-.10238-.103-.11525a1.92356,1.92356,0,0,1-.12037-.17983c-.01818-.03149-.03506-.06378-.05155-.09622-.00574-.01338-.01268-.02951-.01514-.037-.03149-.09557-.06277-.18949-.0893-.28668l-.01129-.038L56.729,38.463c-.00419-.06112-.011-.12168-.01264-.18305-.00138-.051.00021-.10175.00133-.15275.00027-.01263.00373-.043.00637-.06539a2.6697,2.6697,0,0,1,.056-.28165c.01048-.03977.02356-.07861.03427-.11826l.01059-.04209.01738-.03765a3.1592,3.1592,0,0,1,.15186-.30515c.01417-.02463.1045-.16077.10615-.16792a2.67983,2.67983,0,0,1,.18841-.22409c.04259-.0453.08821-.0871.13193-.13118l.03092-.02822a2.34385,2.34385,0,0,1,.28782-.2006c.03513-.02086.07194-.039.10695-.06l.03831-.024.03326-.01251a2.55073,2.55073,0,0,1,.28911-.09845c.02544-.00672.05124-.01221.077-.018.00781.00088.11347-.01543.12086-.016a2.02648,2.02648,0,0,1,.27119-.0022c.028.00422.09961.01223.10683.01354.03907.00714.07808.01541.11668.02469.058.014.11454.03151.17158.04877l.025.00936a2.47208,2.47208,0,0,1,.26057.12822c.04332.02472.08554.05107.12749.07806l.01874.01213c.02462.01854.04922.03716.07318.05655a2.20667,2.20667,0,0,1,.70118.95836c.03375.09429.05818.19047.0842.287l.00952.03333.0054.04653c.01064.07974.02565.15858.03838.23793.00021.005.00906.07136.01032.08739.00542.06913.01082.13757.01207.207.00208.11684.00119.234-.00806.35045-.03725.46882.65495.563.853.19618A2.70862,2.70862,0,0,0,60.61923,35.98249Z"/>
          <path class="cls-2" d="M47.7553,48.6293c-.898,1.41064-1.79106,2.82234-2.65992,4.25115L43.83563,54.952c-.22388.36817-.438.74156-.65259,1.11515a1.23927,1.23927,0,0,0-.291,1.1304.333.333,0,0,0,.5051.26458,1.9693,1.9693,0,0,0,.497-.2968,2.55343,2.55343,0,0,0,.32874-.54279c.21446-.37344.429-.74636.634-1.12507l1.15262-2.1288c.79435-1.46711,1.56178-2.94649,2.32567-4.42968A.32892.32892,0,0,0,47.7553,48.6293Z"/>
          <path class="cls-2" d="M48.77778,53.53605c-.07071-.16043-.237-.34194-.43835-.3079a.93872.93872,0,0,0-.66489.32142,4.77163,4.77163,0,0,0-.31527.49275,9.97278,9.97278,0,0,1-.57991.84478,11.92757,11.92757,0,0,1-1.45428,1.57554,11.09082,11.09082,0,0,1-1.66695,1.23548,13.969,13.969,0,0,0-1.8217,1.19965c-.2751.23391-.008.67422.3063.6659,1.53173-.04066,2.97691-1.16655,4.08157-2.13285a11.98,11.98,0,0,0,1.54327-1.62862c.24045-.307.46829-.62559.68145-.95211C48.7172,54.43931,48.9977,54.03477,48.77778,53.53605Z"/>
          <path class="cls-2" d="M65.69342,57.73979A11.2508,11.2508,0,0,0,64.5,55.1829a6.66812,6.66812,0,0,0-1.94815-2.13014c-.28922-.18161-.63623.21044-.447.48273.32294.4646.70916.88106,1.03865,1.34214a12.516,12.516,0,0,1,.90752,1.45322,9.91889,9.91889,0,0,1,.63532,1.5106q.13815.41963.24061.84987c.02478.10405.04652.20879.06807.31354a.48254.48254,0,0,0-.20583.19443.59477.59477,0,0,0,.56189.869C66.50045,60.00375,65.88945,58.352,65.69342,57.73979Z"/>
          <g>
            <path class="cls-2" d="M58.54974,30.852c.01649.04684.02208.058.02073.05064-.0068-.016-.01335-.03216-.01947-.04841Z"/>
            <path class="cls-2" d="M59.72761,30.75327a2.6495,2.6495,0,0,0-2.89591-1.79208,2.32788,2.32788,0,0,0-1.71233,1.08017c-.00389.00644-.00383.01344-.00715.02-.02822-.02026-.05574-.04149-.084-.06168a.29192.29192,0,0,0,.00927-.071c.00481.10229.00647-.08549.00618-.08031a.5914.5914,0,0,0-.09253-.37111,1.05372,1.05372,0,0,0-.4545-.35158,3.44454,3.44454,0,0,0-.8121-.27458,4.40393,4.40393,0,0,0-1.81153.01459,3.87953,3.87953,0,0,0-1.5145.71957,3.1964,3.1964,0,0,0-.58667.58027,1.062,1.062,0,0,0-.52387-.30919,2.8253,2.8253,0,0,0-1.55024-.025,2.0404,2.0404,0,0,0-.76387.34827,1.79189,1.79189,0,0,0-.59125.64524c-.05337.07439-.10747.14824-.15342.22771a.28487.28487,0,0,0-.02207.063,2.20181,2.20181,0,0,0-.679.47732,2.32185,2.32185,0,0,0-.48852.931,2.91537,2.91537,0,0,0,.104,1.93682c.03462.07909.0736.15646.11606.23214-.62622-.29553-1.26462-.56851-1.89714-.84882a2.21746,2.21746,0,0,0-2.23333-.07081c-1.01126.70474-.98266,2.19907-.65622,3.25411.12938.41819.28106.82985.45137,1.23308a6.2466,6.2466,0,0,0,.31949.705,1.942,1.942,0,0,0,.34879.40148,2.49723,2.49723,0,0,0-1.04937.33516,6.23265,6.23265,0,0,0-1.41484.95689,6.84075,6.84075,0,0,0-1.90619,2.87884,5.61863,5.61863,0,0,0-.15748,3.32614c.27889.97886,1.02664,2.10763,2.169,2.0482.376-.01955.56953-.60739.17658-.76765-1.79025-.73022-1.71242-3.04465-1.04378-4.56178a5.76817,5.76817,0,0,1,1.63264-2.16294,5.52275,5.52275,0,0,1,1.14385-.71926c.21881-.10068.45724-.16115.67171-.27035a1.04745,1.04745,0,0,0,.45186-.48159.28687.28687,0,0,0-.03422-.3281.4808.4808,0,0,0,.42076-.53319,5.30232,5.30232,0,0,0-.10689-.68085c-.06106-.19287-.17714-.38393-.2588-.57875q-.2451-.58461-.43463-1.19084c-.03806-.1223-.06838-.24542-.09658-.36992-.00516-.03455-.02424-.13874-.0267-.16072q-.01-.09025-.01552-.1809a3.34409,3.34409,0,0,1,.00155-.34729c.02792.01448.05627.02805.08416.04259a5.24578,5.24578,0,0,1,.4831.28757l.033.02408q.05481.0414.10826.08458.10695.08629.2083.17933.10128.093.19661.19227.04766.0496.09366.10072l.03814.04429a4.36185,4.36185,0,0,1,.30468.42129c.09678.154.18692.31407.27608.47267q.03885.06909.07482.13972l.02349.04489.01449.03113a.61593.61593,0,0,0,.22367.25739.84826.84826,0,0,0,.23528.21466.36363.36363,0,0,0,.48318-.14674.75588.75588,0,0,0,.0914-.37313,1.11407,1.11407,0,0,0-.08819-.6627,3.17753,3.17753,0,0,0-.3149-.62747,4.92884,4.92884,0,0,0-.60181-.754c.41108.18947.822.37937,1.24246.54574a.731.731,0,0,0,.95869-.29115.68679.68679,0,0,0,.07719-.283,2.73288,2.73288,0,0,0,2.55641.57715.501.501,0,0,0-.1701-.97371,2.24676,2.24676,0,0,1-1.28129-.20954,1.67067,1.67067,0,0,1-.50718-.3712c-.03732-.03728-.07413-.07626-.10826-.11679-.00888-.014-.0584-.08073-.06484-.09q-.05081-.07335-.09567-.15057-.02976-.05135-.05667-.10418l-.00015-.00035a2.13161,2.13161,0,0,1-.11721-.33733c-.00609-.02357-.0352-.16763-.029-.12759.00505.03232-.01211-.13155-.01386-.16029a1.54624,1.54624,0,0,1,.05908-.61639,2.76341,2.76341,0,0,1,.22426-.587,2.859,2.859,0,0,1,.35048-.61938.37125.37125,0,0,0,.06949-.29656.9022.9022,0,0,1,.16907-.11451c.04788-.0278.09363-.05894.14211-.08588.02444-.01357.04928-.02628.074-.03927l.0201-.01083.01167-.00409a5.22016,5.22016,0,0,1,.63264-.20779c.05346-.01443.10754-.02482.16129-.03792.02448-.003.049-.00693.07351-.00978a2.54783,2.54783,0,0,1,.35752-.01627c.05622.00139.11232.00564.16847.00887l.00647-.00029c.02087.00257.04352.00709.05684.00912a2.31191,2.31191,0,0,1,.26712.06094.4439.4439,0,0,0-.36522.23952,2.72418,2.72418,0,0,0-.24607.65526,6.01559,6.01559,0,0,0-.08562.7486A5.579,5.579,0,0,0,48.292,33.9242a4.52856,4.52856,0,0,0,.44425,1.27691,2.07332,2.07332,0,0,0,.88393.97292,3.47449,3.47449,0,0,0-1.12882.8784,3.55028,3.55028,0,0,0-.81064,1.76569,2.81012,2.81012,0,0,0,.35181,1.89975.30821.30821,0,0,0,.56389-.17622,3.79549,3.79549,0,0,1,.49219-2.41151,2.60062,2.60062,0,0,1,1.97273-1.13938,2.29288,2.29288,0,0,1,1.97439.798,1.81317,1.81317,0,0,1,.4207.981,1.2428,1.2428,0,0,1-.20162.80034,1.514,1.514,0,0,1-.73741.55307,1.19432,1.19432,0,0,1-.44237.07114,2.79832,2.79832,0,0,0-.53936-.00133c-.28812-.03756-.6247.25311-.516.54214a2.46027,2.46027,0,0,0-.23526.18866,1.14626,1.14626,0,0,0-.33781.49109,1.65593,1.65593,0,0,0-.07469.201.6675.6675,0,0,0,.00956.3789,1.0708,1.0708,0,0,0-.00671.16941.57612.57612,0,0,0,.0646.22213.47489.47489,0,0,0,.05237.12854.40887.40887,0,0,0,.77491.01984.34563.34563,0,0,0,.08315.10809.479.479,0,0,0,.25073.10924.67925.67925,0,0,0,.162.24376.65705.65705,0,0,0,.9285-.03568l.09755-.13683c.00954-.018.01317-.03743.02094-.05585a.78894.78894,0,0,0,.4763.016c-.00534.431-.0021.86127-.014,1.28238-.015.5312-.03247,1.06237-.04022,1.59377a8.01127,8.01127,0,0,0-.001.90184.6838.6838,0,0,0-.22565.24331.83083.83083,0,0,0,.12316.95455A5.68637,5.68637,0,0,0,54.427,48.813c.049.033.09829.069.14736.10356-.00057.24161.02311.48586.03611.71153l.03969.68887A1.76576,1.76576,0,0,0,54.794,51.2a.62022.62022,0,0,0,.51359.29461.59183.59183,0,0,0,.5136-.29461.90377.90377,0,0,0,.08565-.56515l-.0296-.31794-.05786-.62186A1.27941,1.27941,0,0,0,57,49.61286a3.16658,3.16658,0,0,0,.61407-.60549c.37483-.42308.76126-.83961,1.09923-1.29326a.96492.96492,0,0,0,.0977-.747,1.00424,1.00424,0,0,0-.34737-.50353.97041.97041,0,0,0-1.27282.0758c-.31143.31072-.58523.66467-.86892,1.00052-.04563.054-.0918.10778-.13707.16225a14.823,14.823,0,0,0-1.62652-1.0045,1.046,1.046,0,0,0,.01815-.10991c.01673-.2842.00834-.5731.01248-.85783.008-.55123.00742-1.10244.00793-1.65375a17.207,17.207,0,0,0-.12441-3.3781.40711.40711,0,0,0-.20741-.28752,2.58893,2.58893,0,0,0,.21647-2.74141,3.56945,3.56945,0,0,0-4.33366-1.70528.27619.27619,0,0,0,.012-.10665,4.10978,4.10978,0,0,0-.42144-1.08564,6.62938,6.62938,0,0,1-.36932-1.11485,6.14555,6.14555,0,0,1,.03728-2.189.619.619,0,0,0,.00518-.13306.32591.32591,0,0,0,.46944-.09494,3.14725,3.14725,0,0,1,1.00988-.87911,3.88629,3.88629,0,0,1,1.20355-.416c.06072-.011.1177-.01569.17641-.02344l-.00583.01733a3.2625,3.2625,0,0,0-.14189.7669A3.61628,3.61628,0,0,0,53.14235,33.509a3.0498,3.0498,0,0,0,.60457.48083,1.19883,1.19883,0,0,0,.907.20844.48858.48858,0,0,0,.26048-.71812.92354.92354,0,0,0-.34907-.29739c-.04451-.02867-.08832-.0586-.13235-.088.09556.06379-.062-.04345-.10822-.07591l-.03712-.02552-.01532-.01186c-.03431-.02685-.06853-.05379-.10176-.082a2.74473,2.74473,0,0,1-.22738-.21678c-.00412-.0044-.05509-.06375-.06528-.07413-.025-.03172-.04989-.06353-.07353-.09622q-.08511-.11758-.15856-.243c-.04936-.084-.09315-.17045-.13631-.25773l-.01446-.02829-.00965-.02648c-.01882-.04976-.04-.09843-.05826-.14846q-.05007-.13734-.08764-.27876c-.01368-.05131-.02543-.103-.03714-.15477l-.00824-.0412a3.90123,3.90123,0,0,1-.03139-.61978c.00018-.01067.00016-.01711.00014-.0234l.00108-.00711c.00655-.0521.01368-.104.02276-.15572a2.70654,2.70654,0,0,1,.06452-.28049c.01123-.039.02415-.07763.03726-.1161.006-.01237.03522-.0864.03752-.09146.00843-.01866.01392-.03518.02154-.05309a2.55106,2.55106,0,0,1,.52511.18842,1.19475,1.19475,0,0,0,.498.16693L54.4854,30.34a.222.222,0,0,0,.01541.02929c.06133.07342.11493.15216.17467.22654a.25168.25168,0,0,1,.02.02829,1.12982,1.12982,0,0,0,.07489.21947c.08524.17.1366.27642.20456.43389.049.11362.05846.11847.1072.23918q.05472.13551.098.2751.0391.12591.069.25435l.02178.09981c.00333.02375.016.1028.01583.10158a3.59465,3.59465,0,0,1,.03031.52526q-.00114.07318-.00545.14623c-.001.01707-.00454.05455-.006.0717-.00991.08058-.022.16086-.0375.24051a5.369,5.369,0,0,1-.12894.5377,1.04143,1.04143,0,0,0-.07973.69133.46694.46694,0,0,0,.56942.295c.46818-.10979.68418-.847.7495-1.26334a4.24727,4.24727,0,0,0-.02-1.43155,3.60434,3.60434,0,0,0-.43643-1.22565,2.51281,2.51281,0,0,0-.28549-.36951,1.9779,1.9779,0,0,1,.24658-.16657c.05-.028.09892-.0578.14946-.08485q.02851-.01532.05762-.0296l.00974-.00544.02362-.00819a2.96074,2.96074,0,0,1,.3261-.10435l.05339-.01162.11735-.02232c.02111-.004.04327-.00723.064-.01281l.00293-.00091.012-.00106a3.203,3.203,0,0,1,.34623-.02245c.04334.00025.08646.0029.12965.00525-.00173.00122.08593.00916.11674.01392a2.74273,2.74273,0,0,1,.339.07161c.02388.00684.10224.03506.11316.03746.04542.01905.09082.038.135.06q.06739.03354.1323.07172c.02.01176.06785.0449.08726.05738.08717.07128.16283.15389.24905.225l.00193.00106.0282.03644q.0504.06763.09481.13961c.02773.04489.05206.09122.07714.13755L58.5461,30.842l.00489.01217.00392.007a.18251.18251,0,0,1,.01556.04139l.01479.03684a2.92059,2.92059,0,0,1,.0893.30277l.00292.01091.00655.04554q.0119.09462.01614.18992a1.16077,1.16077,0,0,1-.00605.31863l.0049-.0188c-.00656.02639-.01406.05789-.01687.07423q-.01607.09426-.03956.187c-.0156.06194-.035.1223-.05379.18329l-.00821.02831c-.008.016-.01691.0317-.023.04522a2.85961,2.85961,0,0,1-.18349.3314c-.01906.03064-.08128.12164-.06953.10951-.02871.03725-.05742.07455-.08712.111a1.09517,1.09517,0,0,0-.30191.47789.49215.49215,0,0,0,.36316.586.79144.79144,0,0,0,.60909-.16383,2.16176,2.16176,0,0,0,.38215-.35461,2.58983,2.58983,0,0,0,.45773-.88183A2.97706,2.97706,0,0,0,59.72761,30.75327Z"/>
          </g>
          <path class="cls-2" d="M62.03956,31.9504A2.66615,2.66615,0,0,0,60.542,29.7441a.52353.52353,0,0,0-.50385.03126.31144.31144,0,0,0-.21871.50021.47084.47084,0,0,0,.06446.17924.50316.50316,0,0,0,.18635.17256l.01165.00788c.015.01287.06352.05276.07106.05927q.04853.04193.094.0871c.02718.027.05268.05537.07827.08376.00845.01071.02391.03005.03834.04988.05032.06911.10192.13786.14906.20921.04794.07261.08873.14856.13049.22468l.0042.00729.00431.01226c.01542.04094.03286.08094.04773.12213a2.61588,2.61588,0,0,1,.07694.25257c.01078.043.0194.08633.02911.12955l.00175.00707.002.02934a3.94251,3.94251,0,0,1,.01259.52771l-.00434.033q-.00966.06493-.02263.12935a2.43728,2.43728,0,0,1-.06529.25323c-.0119.03754-.07123.16186-.00006.00844-.01806.03895-.03284.07968-.05043.11888a2.15162,2.15162,0,0,1-.1186.22839c-.00868.01444-.0183.02826-.02741.04241-.00861.01112-.03724.05112-.0512.06849a2.61123,2.61123,0,0,1-.20062.22609.62529.62529,0,0,0,.79382.951A2.736,2.736,0,0,0,62.03956,31.9504Z"/>
          <g>
            <path class="cls-2" d="M32.54257,70.24758l.03308.00879a.08325.08325,0,0,0-.03814-.01116Z"/>
            <path class="cls-2" d="M32.11249,69.52613l-.00024.015a.12843.12843,0,0,0,.00352-.03274Z"/>
            <path class="cls-2" d="M33.0371,70.26681a.41267.41267,0,0,1,.04524-.01445l.01055-.0067A.10512.10512,0,0,0,33.0371,70.26681Z"/>
            <path class="cls-2" d="M45.44872,67.58351a.63867.63867,0,0,0-.02835-.16474l-.00892-.01933c-.1626-.51584-.825-.8753-1.25356-1.13865a7.9906,7.9906,0,0,0-1.526-.71159,6.63854,6.63854,0,0,0-1.59975-.36021c-.07479-.007-.15034-.0142-.2261-.02055A3.26575,3.26575,0,0,0,38.58834,64.55a4.318,4.318,0,0,0-2.48789.95353,4.72011,4.72011,0,0,0-1.28567,1.69311.8234.8234,0,0,0-.14033-.06,1.718,1.718,0,0,0-.3-.07282,3.74819,3.74819,0,0,0-1.14044.00533A2.82829,2.82829,0,0,0,31.3547,68.153a2.39771,2.39771,0,0,0-.43352,2.06472,1.97471,1.97471,0,0,0,1.34949,1.302,1.78949,1.78949,0,0,0,1.92447-.52189.824.824,0,0,0,.096-.16482c.00235.0214.00358.04306.00611.0644a.70884.70884,0,0,0,.71739.66429.6991.6991,0,0,0,.66394-.69638c.227-.021.454-.04234.68122-.07172.32716-.04226.65086-.10654.9753-.16593l.05383-.0092a1.66036,1.66036,0,0,0,.01354.52223c.21967,1.08446,1.56744,1.04653,2.41628.89982a5.16724,5.16724,0,0,0,3.90152-3.17138c.21-.06252.4201-.12439.6293-.19011a.58118.58118,0,0,0,.4118-.40278c.01849.00039.03562.003.05493.00209a.67011.67011,0,0,0,.6319-.68566l.00248.00052ZM33.23051,70.10462c-.02852.038-.06023.07218-.09088.10819l-.00488.00616-.00061.00029c-.01317.00769-.02725.01722-.04125.0264a.13745.13745,0,0,1,.02371-.00384l-.00038.00055a.16031.16031,0,0,0-.03388.01l-.01339.00857c-.02922.02071-.03992.01589-.03185.00588a.5573.5573,0,0,1-.06388.02616l-.01773.00431c-.04007.00017-.082.00785-.12181.00832-.03115.00031-.18309.00269-.07394.00009.10506-.00257-.05715-.01326-.09381-.02182-.00391-.00092-.0517-.01618-.09028-.0275.0267.01355.0454.02856-.00584.00381l-.02724-.0126-.01462-.00271.00956.00034-.04237-.01955c-.04305-.02139-.084-.04586-.12536-.07019l-.01287-.00708-.01757-.01789-.10189-.0971-.00982-.01739c-.00168-.00277-.03535-.06093-.05627-.09593-.0099-.03-.02116-.05935-.03016-.08966-.001-.00351-.01174-.03384-.0188-.05971l-.00077-.009c-.00511-.05629-.00986-.112-.01018-.16858-.00009-.01737.00042-.03467.0008-.052l-.00337.00465.00361-.01968.00008-.00545c.00045-.06382.00361-.04024.0032-.01226.0099-.05306.0274-.1454.02957-.15412.0079-.03181.01774-.06289.02627-.09454l.00127-.00448c.00624-.01743.01463-.04123.01852-.05011.01-.02276.02032-.0454.03115-.06779.02543-.05241.05328-.10364.0831-.15369.01709-.02871.03646-.05608.05334-.08482l.00021-.0004.00937-.01091a2.81094,2.81094,0,0,1,.24034-.25676l.01057-.00865.04224-.03a1.91527,1.91527,0,0,1,.168-.10765c.0194-.01106.12375-.05911.11893-.05928.05762-.02308.11528-.04564.1744-.06492q.10065-.03271.20372-.05736c.02917-.007.05876-.013.08828-.019.01107-.00114.05241-.00742.07684-.01031a3.32122,3.32122,0,0,1,.48909-.02c.04109.00126.0821.00358.12313.0059l.02028.00086.0316.00326c.09349.00939.18813.01776.28254.02056a7.26534,7.26534,0,0,0-.19355,1.876.58119.58119,0,0,0-.08551-.09126A.6647.6647,0,0,0,33.23051,70.10462Zm3.76467-.76991c-.28654.0601-.57388.1158-.85687.191-.16637.04419-.32975.09517-.49409.14389a4.29826,4.29826,0,0,1,1.23688-2.98068,2.9793,2.9793,0,0,1,1.68227-.71815,2.24605,2.24605,0,0,1,.62041.01936,14.73723,14.73723,0,0,0-.99235,2.04916c-.14851.37694-.28317.759-.40954,1.14391C37.51716,69.21283,37.25507,69.28015,36.99518,69.33471Zm6.25132-1.70094a.85855.85855,0,0,0-.70519.63057,3.59673,3.59673,0,0,1-.44769.90069,3.955,3.955,0,0,1-1.57308,1.31963,3.84566,3.84566,0,0,1-.92213.29472,3.45676,3.45676,0,0,1-.52272.04844c-.13513.0036-.31829-.04616-.43559-.03239a.257.257,0,0,0,.01828-.04776,6.41646,6.41646,0,0,0,.17613-.6813c.12729-.44719.27035-.89108.43416-1.32633a21.60867,21.60867,0,0,1,1.04286-2.305,1.22617,1.22617,0,0,0,.13309.03007.6644.6644,0,0,0,.24926-.01273c.04368.00678.08763.012.131.02026a8.29175,8.29175,0,0,1,1.37288.35962,6.9607,6.9607,0,0,1,1.22667.62434c.054.03434.102.06608.14792.09719C43.46361,67.58006,43.35449,67.60485,43.2465,67.63377Z"/>
          </g>
          <g>
            <path class="cls-2" d="M115.80987,96.22a.34687.34687,0,0,0-.06213-.02978c.02073.00948.04154.018.06205.02987Z"/>
            <path class="cls-2" d="M117.78611,79.595a.65272.65272,0,0,0-.12044-.314.72088.72088,0,0,0-.02849-.89372,30.04821,30.04821,0,0,1-3.39291-5.74,30.82566,30.82566,0,0,1-1.1875-3.11187c-.34647-1.08-.58189-2.19827-.98478-3.25818a.68332.68332,0,0,0-1.32783.232,13.22415,13.22415,0,0,0,.71087,3.45152,30.86115,30.86115,0,0,0,1.21476,3.26921,31.92334,31.92334,0,0,0,3.49528,6.09553.91166.91166,0,0,0,.2767.25279A42.08559,42.08559,0,0,0,116.24505,84q-.06914,2.31106-.131,4.62243-.06243,2.26582-.12489,4.53166-.03125,1.13292-.06247,2.26584c-.00482.171.0479.6252-.07964.7605a.36528.36528,0,0,1-.03717.03949l.01054.00531-.01063-.00522c-.011.01036-.01994.01735-.01567.00655-.04713.11953-.16717-.07451-.04638-.03639a.775.775,0,0,0-1.03428.79627c-.03488.01917-.069.03963-.10412.05835-.13676.07314-.27553.14225-.4151.20976-.03034.01382-.1118.05184-.11709.05419q-.116.05166-.23321.1005c-.35107.14654-.706.27834-1.05858.41637a.96513.96513,0,0,0-.87131-.22853c-.10971.01988-.22247.02812-.33366.04277.115-.28214.18468-.59448.2717-.88048q.14324-.47116.28655-.94224c.01421-.04666.0282-.09376.04276-.14056a.55935.55935,0,0,0,.25125-.24642.74239.74239,0,0,0-.51593-1.02307c-.57608-.11591-.90972.36249-1.05218.84178-.09344.31424-.17953.63087-.26924.94627-.10077.35413-.23077.71189-.30515,1.07235a2.42914,2.42914,0,0,0-.03869.438,10.05878,10.05878,0,0,1-1.27135-.1171,10.87763,10.87763,0,0,1-1.50866-.35236c-.2813-.08735-.56508-.15827-.84984-.22583.57892-.77538,1.05487-1.66285,1.58442-2.40533a4.16112,4.16112,0,0,1,1.69323-1.54456,1.69032,1.69032,0,0,1,1.73944.12365.90833.90833,0,0,0,1.47912-.69639.967.967,0,0,0,.0993-.20516,5.153,5.153,0,0,0,.1467-1.26343q.04455-.66089.06627-1.32311c.02617-.79742.04237-1.60149-.0031-2.39856a5.66337,5.66337,0,0,0-1.62816-3.84744,13.3,13.3,0,0,0-3.23683-2.0984,17.25333,17.25333,0,0,1-3.31461-2.21036,20.94481,20.94481,0,0,1-1.6437-1.655c-.54521-.58965-1.1474-1.12871-1.63737-1.76657-.224-.29158-.79382-.10055-.6313.2952a14.28259,14.28259,0,0,0,.82476,1.83135,7.22086,7.22086,0,0,0,.62309.87844.58629.58629,0,0,0-.27482.10156,1.4881,1.4881,0,0,0-.18207.14929.91778.91778,0,0,0-.17461.24039,1.2493,1.2493,0,0,0-.14123.64292,1.153,1.153,0,0,0,.05568.32867l.00719.01674a1.94348,1.94348,0,0,0,.63493,2.0292c.41927.43541.6478.665.49841,1.28826a4.26011,4.26011,0,0,1-.9344,1.659c-.43849.53383-.88845,1.05823-1.341,1.58006a60.78432,60.78432,0,0,0-5.35085,6.67172,20.474,20.474,0,0,0-1.15536,2.02022c-.17255.34855-.33742.70166-.47635,1.065-.04006.10479-.08728.21591-.13383.33014l-.01386-.01408a1.56161,1.56161,0,0,0-.26946-.20658,1.14291,1.14291,0,0,0-.52272-.10421c-.09609-.00314-.1924-.00248-.2886-.0039a3.943,3.943,0,0,0,.54817-1.05615.82844.82844,0,0,0-.6123-.988.83844.83844,0,0,0-.988.61228c-.01475.04339-.023.06862-.02632.07991-.01935.04547-.03925.09072-.06108.13508a2.52906,2.52906,0,0,1-.17443.30335l-.0367.04768q-.05535.06953-.11449.13569a3.15268,3.15268,0,0,1-.25139.25306,3.60261,3.60261,0,0,1-.49808.34505,3.08176,3.08176,0,0,1-.5482.27422,6.9306,6.9306,0,0,1-1.66064.35471c-.12429.01417-.24878.02222-.3733.03046a12.15666,12.15666,0,0,1,.70671-1.24537q.03078-.04583.06214-.09138l.0315-.04542q.04738-.06774-.03221.04427a1.63236,1.63236,0,0,1,.14749-.1994q.15015-.19762.31059-.387c.04684-.05525.09519-.10891.14251-.16363a1.27293,1.27293,0,0,0,.65576-.74921.75627.75627,0,0,0-1.22047-.869,9.34343,9.34343,0,0,0-1.407,1.73014,8.13965,8.13965,0,0,0-.72471,1.38314c-.0651.01505-.13016.03028-.1954.04463q-.24045.05286-.48223.09956c-.02173.00417-.21241.039-.22543.042q-.10317.01753-.20655.03382-.26383.04144-.52876.07553c-.2663.03418-.53383.0572-.80132.08013a3.30522,3.30522,0,0,0,.24225-.26474,5.35206,5.35206,0,0,0,.70714-1.25184,14.08356,14.08356,0,0,1,1.164-2.45708,3.53238,3.53238,0,0,1,1.86774-1.3077,3.47761,3.47761,0,0,1,1.13677-.16182,1.74974,1.74974,0,0,1,.1749.01572.95532.95532,0,0,0,1.243.22322.89627.89627,0,0,0,.84818-.634c.69923-.52763,1.39328-1.06261,2.08945-1.59334a10.792,10.792,0,0,0,2.13169-1.93508,4.97874,4.97874,0,0,0,1.0133-3.0482,9.322,9.322,0,0,1,.05576-1.3692,3.80546,3.80546,0,0,0,.21487-1.87394c-.315-1.0148-1.30334-1.37995-2.20268-1.723a16.6775,16.6775,0,0,1-2.36139-1.12946,17.40639,17.40639,0,0,1-4.14464-3.34952,16.508,16.508,0,0,1-3.05864-4.82085q1.24807-.74377,2.44452-1.56838c1.45659-1.00816,3.25491-2.55581,5.15081-1.92122A.71258.71258,0,0,0,93.604,66.426c.10271.14149.20245.2852.30749.4251q.34189.45522.69989.8981c.127.157.3202.33018.45135.51683a.73174.73174,0,0,0-.02251.107.777.777,0,0,0,1.00256.82957,1.03016,1.03016,0,0,0,.3685-1.62247c-.30825-.4611-.71249-.87451-1.04825-1.31771-.68792-.90793-1.31935-1.8549-1.91885-2.82313-.62333-1.00665-1.10576-2.09893-1.73816-3.09522a.67742.67742,0,0,0-1.2117.56655,12.58775,12.58775,0,0,0,.97307,2.103c.35595.6701.7318,1.33161,1.143,1.96944l.02962.04414a6.57218,6.57218,0,0,0-4.51515,1.41395c-1.52351,1.00749-2.9992,2.05731-4.5944,2.95435A42.65189,42.65189,0,0,1,73.34184,73.4876c-.9742.25271-1.95285.48549-2.94087.678-.743.14477-1.49641.24921-2.24044.39433.04365-.4378.1107-.87565.19024-1.30765.0931-.50594.25449-1.00073.32918-1.50844a.8366.8366,0,0,0-.51617-.95693.82771.82771,0,0,0-1.01938.37795,9.19647,9.19647,0,0,0-.7796,3.20227,12.97426,12.97426,0,0,0-.00919,2.98808,8.77245,8.77245,0,0,0-.92209,1.37438q-.56636,1.00262-1.06713,2.04036a34.12161,34.12161,0,0,0-1.70407,4.19453,33.55428,33.55428,0,0,0-1.11443,4.30464q-.21048,1.13027-.35019,2.27248a8.68031,8.68031,0,0,0-.056,1.3583,4.13674,4.13674,0,0,1-.54438.88358.742.742,0,0,0,.04287.99828c-.0251.028-.04881.05711-.07608.0835l-.01206.01151c-.01975.01585-.0541.04445-.06393.05145a1.95069,1.95069,0,0,1-.19482.12232l-.03367.01669-.05563.02236a1.93107,1.93107,0,0,1-.20783.06291c-.0533.0131-.10707.023-.16064.03471l-.00106.00026c-.00374.00009-.00507,0-.0101.00018-.19827.00876-.39125.02993-.59072.02089-.03466-.00154-.069.0012-.1035.00018-.00815-.05861-.01382-.11723-.02747-.17593a.74586.74586,0,0,0-1.35554-.1245,1.91168,1.91168,0,0,0-.21747.8146c-.401.67723-1.6329.68586-2.30663.74346-.67465.05769-1.34812.11241-2.02008.19608-.4094.05109-.80707.12255-1.20324.20379.12208-.18019.2423-.34652.39272-.54025q.38436-.495.81573-.951c.14361-.15168.28743-.30353.43506-.45144a.97087.97087,0,0,0,.32106-.80615.51183.51183,0,0,0-.38986-.47322.96692.96692,0,0,0-.90651.28139c-.15951.15261-.316.30827-.46373.47234a12.86619,12.86619,0,0,0-.83459,1.02817q-.327.448-.62009.91864a.58347.58347,0,0,0-.049-.09182.73287.73287,0,0,0-.99386-.22021,8.36046,8.36046,0,0,1-.73153.41155l-.0189.00908c-.02984.0135-.05975.027-.08976.04015q-.08271.03612-.16633.07017-.20879.0852-.42258.15721c-.20148.068-.40659.12409-.61321.17417.45629-1.46248,1.11273-3.15614,2.52058-3.82611,1.02175-.48624,2.24256-.26784,3.32393-.531a3.59162,3.59162,0,0,0,2.4595-2.07679.77618.77618,0,0,0-.3098-1.02.76109.76109,0,0,0-1.02.30973,2.64885,2.64885,0,0,1-2.43821,1.512,5.778,5.778,0,0,0-3.15388.95007c-1.569,1.2127-2.22656,3.16642-2.73471,5.00919a.66536.66536,0,0,0-.01824.10528.493.493,0,0,0-.132.38277.59845.59845,0,0,0,.60566.56084,6.8044,6.8044,0,0,0,3.44238-.87747,1.10772,1.10772,0,0,0-.0931.5097c-.02865.11674-.06586.23287-.0974.34731a.41216.41216,0,0,0,.2581.47849.4204.4204,0,0,0,.50968-.189c.05105-.07814.10324-.16049.161-.23451a1.07256,1.07256,0,0,0,.277-.27413c.0249.00442.04774.01284.07366.01505a12.53145,12.53145,0,0,0,1.262.0912c.39548-.00664.79191-.02285,1.18708-.03967.81735-.0348,1.6463-.09058,2.45937-.1816a3.82106,3.82106,0,0,0,2.1851-.831,2.342,2.342,0,0,0,.49594-.61777,3.59633,3.59633,0,0,0,.52887.08163,2.81319,2.81319,0,0,0,1.39961-.19957,2.66744,2.66744,0,0,0,1.11321-.91041,1.97379,1.97379,0,0,0,.28507-.60732,1.34522,1.34522,0,0,0,.0218-.52343.62529.62529,0,0,0,.12631-.24287c.08337-.3003.16239-.59825.23655-.89717a12.877,12.877,0,0,0,.66082-3.37352l.01021-.051a39.03065,39.03065,0,0,1,1.16116-4.20945q.38808-1.14088.84358-2.25924a39.45811,39.45811,0,0,0,1.99367-3.53289,10.10594,10.10594,0,0,0,.54319-1.48355.88281.88281,0,0,0,.36538-.74408c-.01286-.3374-.02787-.68772-.04082-1.0388a16.55053,16.55053,0,0,0,3.581-.2249,41.39549,41.39549,0,0,0,4.41926-.89389,38.8233,38.8233,0,0,0,8.30925-3.02009,18.3978,18.3978,0,0,0,5.39714,6.40618,20.80568,20.80568,0,0,0,4.70623,2.54306,1.664,1.664,0,0,1,.71492.40195l.00607.00991a1.50462,1.50462,0,0,1-.07973.29415,5.50384,5.50384,0,0,0-.20658.86635,9.02756,9.02756,0,0,1-.31924,2.83769A5.87476,5.87476,0,0,1,92.79,87.65991c-.8652.65668-1.74057,1.30155-2.60161,1.964a5.897,5.897,0,0,0-2.27748.10373,5.24611,5.24611,0,0,0-2.67555,1.56784,8.48774,8.48774,0,0,0-1.44569,2.67327,21.2383,21.2383,0,0,1-1.27242,2.56188.58968.58968,0,0,0-.0091.53516.6816.6816,0,0,0-.39508.56243.70385.70385,0,0,0,.54116.7632c.25385.02577.32613.03351.55855.05622a4.42922,4.42922,0,0,0,.70229.01222q.55327-.03134,1.10409-.09505c.367-.04241.73219-.09669,1.09624-.15924.13824-.02378.28947-.04343.443-.06654a6.83887,6.83887,0,0,0,.85972.17761c.36776.04011.73692.074,1.10684.08492a5.69888,5.69888,0,0,0,2.11486-.33859c.08107-.03.15786-.0669.23664-.10063a11.42072,11.42072,0,0,0,1.15014.15052l.94454.063a1.01217,1.01217,0,0,0,.70465-.18692l.0083-.00655a.6476.6476,0,0,0,1.08329.236,2.62807,2.62807,0,0,0,.49684-.91563c.151-.33129.30222-.66293.46516-.9885a19.89011,19.89011,0,0,1,1.04705-1.83109,31.43848,31.43848,0,0,1,2.53722-3.34841c.92982-1.0952,1.89982-2.15524,2.85439-3.2287a14.23634,14.23634,0,0,0,2.61279-3.42133,3.01088,3.01088,0,0,0,.14605-2.37864,3.64615,3.64615,0,0,0-.83813-1.14217c-.30413-.30994-.17764-.298-.30293-.71711a.82122.82122,0,0,0-.05525-.12277.52842.52842,0,0,0,.10731-.09412l.06267-.08792a15.606,15.606,0,0,0,2.68234,2.10512c1.94371,1.20809,4.742,2.069,5.10021,4.67688a18.14356,18.14356,0,0,1,.101,2.59429q-.005.66162-.03285,1.32289c-.00874.20763-.03243.42589-.05153.64473a4.303,4.303,0,0,0-4.23283,1.44534,17.22327,17.22327,0,0,0-1.73615,2.57888,9.62528,9.62528,0,0,1-1.88168,2.15559c-.54734.48376.08267,1.38328.7263,1.19047.01394.00585.02464.01523.03933.02019a2.28028,2.28028,0,0,0,.24788.0692.60314.60314,0,0,0,.12177.02267l.017.00841a1.527,1.527,0,0,0,.69033.07845.73859.73859,0,0,0,.19564.00133c.0537-.008.107-.01922.16058-.02869a1.65594,1.65594,0,0,0,.64993-.24686c.10162.04493.20276.0904.31041.12794a10.88534,10.88534,0,0,0,1.66529.4367,12.95041,12.95041,0,0,0,3.53207.12024.95783.95783,0,0,0,.10776-.02072l.01572.00257a5.523,5.523,0,0,0,2.04538-.40624c.34691-.1275.68455-.27515,1.01885-.43244.15327-.07217.30552-.14606.45573-.22437.06424-.03356.1285-.06738.19188-.10254l.01713-.00929q.05924-.02073.11829-.04211a.86885.86885,0,0,0,.36719-.25753,1.60594,1.60594,0,0,0,.272-.15362,2.42928,2.42928,0,0,0,.80473-2.08352c.03809-1.75113.05339-3.503.08006-5.25427.02668-1.7514.05645-3.50279.07905-5.25419q.0175-1.35883.035-2.71749A23.65551,23.65551,0,0,0,117.78611,79.595Z"/>
          </g>
          <path class="cls-2" d="M100.48858,73.42934l-.04272-.1q.02381.14821-.01938-.10735a2.33733,2.33733,0,0,0-.223-.43527c-.14129-.25539-.28791-.50154-.44906-.74492a15.66422,15.66422,0,0,0-.97549-1.40732.64955.64955,0,0,0-.36237-.25713.5895.5895,0,0,0-.63179.8907,14.3103,14.3103,0,0,0,.81123,1.34563c.14088.22187.2789.44283.437.65287q.11843.15741.23687.31472a2.03672,2.03672,0,0,0,.16526.20631.62864.62864,0,0,0,.12.0945.64284.64284,0,0,0,.38978.25638.48471.48471,0,0,0,.56432-.34972A.53854.53854,0,0,0,100.48858,73.42934Z"/>
          <path class="cls-2" d="M46.74757,39.82693a3.54591,3.54591,0,0,0-.60273-.27806c-.15787-.04954-.31576-.098-.47487-.1434l-.47663-.136a4.18375,4.18375,0,0,0-.524-.10072.60842.60842,0,0,0-.69476.37475.5987.5987,0,0,0,.2744.74011,5.12487,5.12487,0,0,0,.60566.262l.47066.1613q.23523.08061.47219.15486a2.91916,2.91916,0,0,0,.5275.086.64366.64366,0,0,0,.46264-.0787.6252.6252,0,0,0,.23583-.29806A.6042.6042,0,0,0,46.74757,39.82693Z"/>
          <path class="cls-2" d="M123.661,25.78575a2.07159,2.07159,0,0,0-.5615-1.4279.64981.64981,0,0,0-.46778-.173.74593.74593,0,0,0-.12619.02831.88567.88567,0,0,0-.19673-.02457q-9.81726-.1-19.61448.747a190.64717,190.64717,0,0,0-19.55061,2.72422q-2.68738.51858-5.35676,1.143c-1.46575.34514-2.93732.7066-4.37534,1.16171a9.60444,9.60444,0,0,0-1.646.44266,6.0764,6.0764,0,0,0-1.02128-1.86856,16.22627,16.22627,0,0,0-1.499-1.79633A17.2466,17.2466,0,0,0,65.735,23.97034a20.47408,20.47408,0,0,0-9.48172-2.75687,28.46583,28.46583,0,0,0-10.11194,1.32831,21.07724,21.07724,0,0,0-7.888,4.40956,13.16053,13.16053,0,0,0-3.12942,4.104,7.18776,7.18776,0,0,0-.6753,2.60372,4.702,4.702,0,0,0,.122,1.29665c.01552.068.0369.12715.05585.18973l.00268.01669a6.02326,6.02326,0,0,0,.32325,1.12521A8.433,8.433,0,0,0,31.53,42.81742a8.98371,8.98371,0,0,0,2.95736,7.04666,9.23875,9.23875,0,0,0,3.66843,2.05869c-.00071.01974-.00228.0394-.0029.05914a16.72457,16.72457,0,0,0,.39315,4.10967,16.09422,16.09422,0,0,0,1.412,3.87069,3.33189,3.33189,0,0,0,1.1777,1.55908,1.10261,1.10261,0,0,0,.10169.04276c.00994.00939.01453.02241.02539.031a2.09648,2.09648,0,0,0,.63017.35524,2.63336,2.63336,0,0,0,.46552.1221,3.39033,3.39033,0,0,0,1.10015.012l.03077-.00628a7.09985,7.09985,0,0,0,.737,3.73167,6.2198,6.2198,0,0,0,.71554,1.12344c.08616.10794.17634.22092.27079.3324a.553.553,0,0,0-.0162.35816c-.06408.02-.1285.03975-.19238.05968a21.63427,21.63427,0,0,0-2.12377.7659.70086.70086,0,0,0-.46574.777.68265.68265,0,0,0,.70155.573c.65859-.09023,1.29934-.21835,1.9471-.36631q.44481-.10173.88613-.21507c.21124-.05428.42629-.10183.63315-.17045a1.70251,1.70251,0,0,0,.0168.62477c.08735.46609.19092.92962.28418,1.39456q.26244,1.30823.50966,2.61956c.33848,1.79479.684,3.58806.99676,5.38762q.47169,2.71449.87576,5.44013c.262,1.76166.46492,3.53626.76566,5.29172a.96252.96252,0,0,0-.53567-.14512l.00193-.02028c-2.187.2976-4.36943.74607-6.54013,1.14523q-1.59551.29352-3.191.58687c-.65785.121-1.38329.19461-2.06269.36931-.07776-.34178-.156-.68338-.22649-1.02321q-.47771-2.30342-.95833-4.6064l-1.90263-9.02827q-.55026-2.61116-1.10053-5.22222a.70074.70074,0,0,0-.6135-.50363.854.854,0,0,0,.29764-.196.765.765,0,0,0-.59072-1.28415,4.46388,4.46388,0,0,0-1.32652.16036,3.76227,3.76227,0,0,0-.55444.19736,3.124,3.124,0,0,0-.384.18833.96686.96686,0,0,0-.41618.46919l-.00183.00045.03039-.08049c.02-.04356.09671-.12122.01521-.0456-.02331.02161-.0462.04365-.069.06579a.496.496,0,0,0-.05791.08571.66457.66457,0,0,0-.43327.65868,14.74458,14.74458,0,0,0,.362,2.43406l.43836,2.4021c.29206,1.60034.59878,3.19776.90306,4.7958q.91257,4.79277,1.8251,9.58565.52158,2.73918,1.04309,5.47829a1.30718,1.30718,0,0,0-.26485.231.71971.71971,0,0,0,.54895,1.19348A15.39371,15.39371,0,0,0,36.05,97.48257c.565-.0749,1.12829-.15867,1.69185-.24358q1.7359-.26138,3.47182-.52285c2.315-.3486,4.63015-.69551,6.94327-1.05633l-.00184-.01053c.078-.007.1561-.01541.23223-.02949.84046-.15495.7234-1.4739.0222-1.6833a.61966.61966,0,0,0,.0261-.09634l.00449-.053a3.08612,3.08612,0,0,1,.14207-.64318,2.80869,2.80869,0,0,1,.23469-.44732.61781.61781,0,0,0,.07158-.44414c.01873-.03347.03354-.069.05382-.10164a.46176.46176,0,0,0-.09306-.553.48714.48714,0,0,0-.08742-.05428c.34515-.06463.69029-.12927,1.03329-.20108a.80191.80191,0,0,0,.57611-.63893.361.361,0,0,0,.40351.27661c.22982-.02143.45578-.04666.67893-.08075a4.9013,4.9013,0,0,0-.803.65664.755.755,0,0,0,.72779,1.25024,4.59962,4.59962,0,0,0,1.998-1.11,10.615,10.615,0,0,0,1.52721-1.48806,12.68852,12.68852,0,0,0,2.19172-3.82164,14.11964,14.11964,0,0,0-.055-9.33153,14.42177,14.42177,0,0,0-1.73346-3.61533,1.57234,1.57234,0,0,0,.12294-.31282,9.92371,9.92371,0,0,0,2.32775-1.47514,11.13217,11.13217,0,0,0,2.36257-2.88679,10.29826,10.29826,0,0,0,1.34885-5.61535,6.9503,6.9503,0,0,0,.88918.89048,9.14482,9.14482,0,0,0,3.01283,1.62522,8.871,8.871,0,0,0,3.29385.40925,6.1458,6.1458,0,0,0,3.25562-.98142.672.672,0,0,0,.18315-.22924.70711.70711,0,0,0,.5451-.62866c.06891-.48442-.324-1.02551-.85042-.80911a.37688.37688,0,0,0-.17873.15725c-.16285-.12254-.366-.20506-.533-.32593a5.70676,5.70676,0,0,1-.98067-.91625,6.07612,6.07612,0,0,1-.59774-.85613,2.78808,2.78808,0,0,0,.76422-1.24191,8.15722,8.15722,0,0,0,.49184-2.014,9.889,9.889,0,0,0,.03591-1.81568.8059.8059,0,0,0,.36272-.00611,14.13592,14.13592,0,0,1,4.71-.50727,11.66057,11.66057,0,0,1,2.37572.49151,8.81063,8.81063,0,0,1,1.09121.4166c.21673.10138.53689.22862.65069.4591.2728.55268-.56314,1.00089-.95732,1.14389a15.00275,15.00275,0,0,1-2.45927.59369,37.41072,37.41072,0,0,1-5.441.60386c-.44825.0132-.54188.73244-.07761.805a18.185,18.185,0,0,0,5.07276.15548,22.61082,22.61082,0,0,0,2.59444-.47805,4.78788,4.78788,0,0,0,1.9473-.84205,2.44194,2.44194,0,0,0,.93449-1.97665,1.75649,1.75649,0,0,0-.0276-.20923,3.66763,3.66763,0,0,0,.66751-.20719,11.84542,11.84542,0,0,0,1.41293-.72624,9.34512,9.34512,0,0,0,2.24948-1.76742,3.03134,3.03134,0,0,0,.81132-2.15515c2.69085.016,5.36163-.07978,8.04973.17771,1.38564.13272,2.766.33133,4.13453.58536a15.72309,15.72309,0,0,1,3.76144,1.00254c2.10588.97738,3.3932,3.01522,4.73092,4.81487a22.66082,22.66082,0,0,0,4.7957,4.94392,10.33382,10.33382,0,0,0,7.08677,2.19916.89164.89164,0,0,0,.80544-1.14611c-.92727-2.80178-2.93779-4.98748-5.04889-6.97033-2.092-1.965-4.35722-3.84324-5.77232-6.389a6.96806,6.96806,0,0,1,.25582-7.6886c1.44486-1.80791,4.03215-2.68708,5.99572-1.10664a2.73168,2.73168,0,0,1,1.0356,3.05438,2.97639,2.97639,0,0,1-1.73813,1.7724,2.3625,2.3625,0,0,0-1.97982-3.04951,2.33568,2.33568,0,0,0-.55012.001c-.11619.016-.234.03631-.34882.0624-.01775.004-.03515.00895-.05261.01366.04927-.01428-.206.04337-.24328.05658a3.13736,3.13736,0,0,0-1.06726.68115,3.25694,3.25694,0,0,0-.98372,2.35825,3.395,3.395,0,0,0,.28905,1.41944,2.25879,2.25879,0,0,0,.45582.75377c.66959,2.47535,2.87349,4.21718,4.5067,6.06164a36.401,36.401,0,0,1,4.79681,6.85877,5.50153,5.50153,0,0,1,.84382,3.55113,2.64816,2.64816,0,0,1-2.3161,2.11257,7.6495,7.6495,0,0,1-4.02989-.37826,7.8386,7.8386,0,0,1-1.819-.95716,2.06264,2.06264,0,0,0-.87961-.51913.6627.6627,0,0,0-.7507.36055c-.24.67568.36642,1.08262.84491,1.42715a9.13119,9.13119,0,0,0,1.57152.92121,9.50442,9.50442,0,0,0,3.67657.8509,6.30157,6.30157,0,0,0,3.62585-.86153,4.19493,4.19493,0,0,0,1.77342-3.20422,7.25933,7.25933,0,0,0-.88792-3.78577,28.68363,28.68363,0,0,0-2.10672-3.55317,52.02893,52.02893,0,0,0-5.17888-6.192,8.16316,8.16316,0,0,1-2.08817-3.22379c-.07712-.27524-.32885-.97239.1575-.91873.42824.04724.76265.79512.94078,1.14A.69375.69375,0,0,0,114.217,49.376a4.53208,4.53208,0,0,0,4.0223-6.034,5.59856,5.59856,0,0,0-7.40095-2.817,7.91522,7.91522,0,0,0-4.31252,8.151c.428,3.42793,2.72354,6.15445,5.14465,8.4503,2.25736,2.14055,4.92029,4.20114,6.27888,7.06074-3.88729-.2844-6.99376-3.62046-9.168-6.6197-1.38967-1.91706-2.78382-3.97836-4.96677-5.0639a14.47909,14.47909,0,0,0-3.8258-1.117q-2.05525-.385-4.13824-.59269a49.26519,49.26519,0,0,0-5.54043-.28936c.21725-.089.43407-.17917.64728-.2773a16.24029,16.24029,0,0,0,5.68986-4.3077.87909.87909,0,0,0,.07724-.11351,4.19178,4.19178,0,0,0,1.52636-.27249,10.69182,10.69182,0,0,0,1.92644-.86164,11.33262,11.33262,0,0,0,1.61595-1.08438c.2828-.2274.5601-.46275.82429-.7116a3.41117,3.41117,0,0,0,.35449-.37.99268.99268,0,0,0,.20217-.37972.53733.53733,0,0,0,.012-.07925c.44874-.08664.897-.22295,1.31883-.3306.72841-.18585,1.44873-.39492,2.15527-.652a31.52533,31.52533,0,0,0,4.16022-1.86993,26.486,26.486,0,0,0,7.177-5.47725.74814.74814,0,0,0,.20852-.56064c.09815-.07884.19526-.15809.29091-.23676a16.9555,16.9555,0,0,0,2.02482-2.00888,24.10772,24.10772,0,0,0,1.74037-2.27863,9.47279,9.47279,0,0,0,1.39108-2.50269A.67869.67869,0,0,0,123.661,25.78575Zm-87.87606,70.179c-.07758.01425-.1569.02674-.2355.03984a1.62842,1.62842,0,0,0-.14973-.79468c-1.156-6.164-2.27489-12.33653-3.48059-18.49076q-.26041-1.32921-.52079-2.65834c-.14835-.75714-.25779-1.54819-.47922-2.294.14285-.05269.28246-.12388.42452-.17567a3.81051,3.81051,0,0,1,.54326-.1492,3.94966,3.94966,0,0,1,.6336-.036.76525.76525,0,0,0-.41985.90527c1.25546,6.02257,2.50094,12.04744,3.77572,18.06593l.45638,2.1548a.64834.64834,0,0,0,.11214.54215c.16363.80973.29693,1.6424.53576,2.42973a.64719.64719,0,0,0,.12575.232C36.66553,95.81016,36.22464,95.88374,35.78489,95.96476Zm2.59588-.44423a.64178.64178,0,0,0,.01311-.26359,8.74689,8.74689,0,0,0-.33605-1.93335l-.00429-.01922c.09658-.00991.19322-.025.28987-.03842a.811.811,0,0,0,.07123.08491c.01651.01664.03165.03462.04766.05171a2.76224,2.76224,0,0,1,.30224.48717c.03332.07393.0661.14813.10143.22127l-.09344-.19967a2.48321,2.48321,0,0,1,.167.50045c.00916.07677.01979.15336.02176.231a.8786.8786,0,0,0,.27364.59492.84733.84733,0,0,0,.16288.11378Q38.88931,95.436,38.38077,95.52053Zm2.68031-.44546-.61328.10191a.82955.82955,0,0,0,.22355-.59988,3.21411,3.21411,0,0,0-.39171-1.42183,1.40385,1.40385,0,0,0-.14012-.19843q.4541-.07318.90814-.14636a.51251.51251,0,0,0-.00464.13219,7.48547,7.48547,0,0,0,.24477,1.05624,3.26424,3.26424,0,0,0,.34059.98257C41.43932,95.01282,41.25014,95.04364,41.06108,95.07507Zm1.6609-1.98993a4.4108,4.4108,0,0,0-.20794-.51108l.23473-.0378a3.9087,3.9087,0,0,0-.01114.45547,1.99908,1.99908,0,0,0,.01957.19931ZM44.577,94.49493a.84788.84788,0,0,0,.00642-.15548,3.12808,3.12808,0,0,0-.09288-.47513l-.1243-.56836a4.23322,4.23322,0,0,0-.13319-.56553c-.051-.13742-.10842-.27147-.17071-.40323l.32312-.05064c-.00069.02081-.00029.04161-.00146.06242a.97031.97031,0,0,0-.004.217c.00872.07376.02236.14716.03351.22048.03226.21223.0671.42368.107.63459l.17082.904a.52327.52327,0,0,0,.05884.15132Zm2.95944-2.48214a2.91975,2.91975,0,0,0-.25793.45281l-.00347-.02258a2.3108,2.3108,0,0,0-.18305-.60316c.25888-.0433.51694-.08952.77538-.13459A.81274.81274,0,0,0,47.53648,92.01279Zm66.02006-44.92736-.00447.01589c-.01317.051-.02081.10264-.02944.15418a2.20549,2.20549,0,0,0-1.68448-.58822,2.13159,2.13159,0,0,0-.43052.0887l.00823-.01762c.02909-.05514.06179-.10787.09368-.1614l.00189-.0029c.01919-.02472.0541-.07132.06222-.08106q.06-.07188.1252-.13923c.01218-.01255.09012-.08554.115-.11039l.00775-.00614c.03373-.024.06638-.049.10071-.07231q.08922-.06068.18384-.11279c.00921-.00507.03334-.01706.05315-.027l.01-.00429c.05914-.026.11654-.05587.17356-.0858l-.00843.00431c.01518-.00166.1192-.02992.15088-.04037l.00219-.00036c.05009-.00387.09979-.00918.15008-.01075.016-.00047.07679.00095.11243.00117.02008.00252.0419.00527.05078.00688.0303.00556.06054.01163.09045.01891a.56751.56751,0,0,1,.06906.02136c.04642.02178.09315.04235.13777.06869.01326.00783.02639.01631.03943.02486l.00117.00163c.03232.03832.08055.06911.11666.10466.05547.05459.10966.1465.03931.03606.0377.05915.08261.11323.11916.17355.01186.01959.05155.09948.06379.12026.01384.04.02951.07916.0422.11962.00774.02477.0152.04966.02189.07476.00232.00874.008.03615.01308.06.00341.03573.0099.0945.01065.11163.0021.04731-.00038.13687.00157.13452C113.56312,47.00614,113.55937,47.04574,113.55654,47.08543ZM48.02976,67.06055c.08223-.07659.16037-.1561.23754-.23614a.77238.77238,0,0,0,.09177.229c.01638.027.035.05242.05182.07916A2.37643,2.37643,0,0,0,48.02976,67.06055Zm7.7073,16.36509a7.38977,7.38977,0,0,1-.20453,1.56926.80588.80588,0,0,0-.38284.47318,7.78749,7.78749,0,0,1-.43462,1.09564,2.49778,2.49778,0,0,1-.22875.22021.71475.71475,0,0,0-.29071.65761,6.72736,6.72736,0,0,1-.73075.875,5.9,5.9,0,0,1-1.3,1.0001c-.21591.126-.43123.2512-.64887.37348a.69974.69974,0,0,0-.06286-.30291c-.15-1.76716-.434-3.53183-.69427-5.284q-.41124-2.76867-.8898-5.52663c-.27477-1.58564-.5644-3.169-.88077-4.74683q.50342.85919,1.00681,1.71828c.44963.76741.85471,1.56129,1.75341,1.86544a2.63507,2.63507,0,0,0,1.31341.03479,3.12984,3.12984,0,0,0,1.20035-.43067,1.06637,1.06637,0,0,0,.19774-.193A13.11752,13.11752,0,0,1,55.73706,83.42564ZM48.99871,65.89833a5.843,5.843,0,0,0,.2989-.50842,6.27448,6.27448,0,0,0,.47338.93c-.06455-.06871-.12593-.141-.19261-.20728A.71817.71817,0,0,0,48.99871,65.89833Zm2.46107,2.49011a16.75549,16.75549,0,0,1,1.95314,2.1417,4.72852,4.72852,0,0,1,.69443,1.35728,2.10122,2.10122,0,0,1,.05364.23633.63021.63021,0,0,0-.06922-.04215,1.21808,1.21808,0,0,0-.14612-.53259,2.988,2.988,0,0,0-.27024-.40792,5.27626,5.27626,0,0,0-.70709-1.05863,9.11637,9.11637,0,0,0-.95607-1.01285l-.01771-.01275C51.81571,68.83453,51.63862,68.61078,51.45978,68.38844ZM75.29922,54.12219a.25586.25586,0,0,0-.32444.19409,10.38638,10.38638,0,0,0-4.11919.69312,5.74219,5.74219,0,0,0,.09813-2.37178,8.74444,8.74444,0,0,0-1.02208-3.05674,8.29642,8.29642,0,0,0-1.28037-1.72329.63109.63109,0,0,0,.61286-.42866,4.31978,4.31978,0,0,0-.18592-2.23763,6.35753,6.35753,0,0,0-.9279-1.92461,6.07909,6.07909,0,0,0-1.517-1.51044,8.12371,8.12371,0,0,0-1.8472-.87223.233.233,0,0,0-.00388-.31824c-.04951-.05946-.07139-.14417-.12606-.20948a1.378,1.378,0,0,0-.16513-.16575,1.90574,1.90574,0,0,0-.47219-.27c-.15645-.06978-.31466-.13521-.47506-.19469.02626-.00761.05158-.01822.078-.0255.19643-.05423.3872-.11365.58122-.17578a1.17077,1.17077,0,0,0,.70551-.39442.42431.42431,0,0,0-.05728-.70512l-.05862-.0295a.65571.65571,0,0,0-.3704-.16173,2.49053,2.49053,0,0,0-.44577-.00631,3.35621,3.35621,0,0,0-.73275.12722q-.2918.08745-.57453.20161c-.10152.041-.20168.085-.30114.13065a.76549.76549,0,0,0-.39754.33075l-.01463.02975a.68409.68409,0,0,0-.16228.26249l-.01147.01286a.41442.41442,0,0,0-.04551.06931,2.16539,2.16539,0,0,0-.7872.08792.5481.5481,0,0,0-.391.51365.53771.53771,0,0,0,.391.51364,9.63378,9.63378,0,0,0,1.008.03617c.27458.017.6162.05069.84876.0848a6.50307,6.50307,0,0,1,.83508.18791c.13677.04109.27123.09811.41115.12788a1.77353,1.77353,0,0,0,.28768.03726,1.41573,1.41573,0,0,0,.16163-.01472.23892.23892,0,0,0,.07644.35594,6.20768,6.20768,0,0,1,2.614,2.60956,7.0097,7.0097,0,0,1,.68533,1.64036c.15714.59327.16768,1.20282.2647,1.80441a6.48929,6.48929,0,0,0-3.071-1.50345c-.36369-.06545-.62255.484-.24192.64161a8.30724,8.30724,0,0,1,4.10776,3.62843,7.46234,7.46234,0,0,1,.87278,2.53809c.00527.03714.00611.07517.01084.11245-1.0868-2.17335-3.112-4.24853-5.63275-3.89694-.502.07-.49642.83375.0309.80408a4.47319,4.47319,0,0,1,3.40429,1.91137,8.05272,8.05272,0,0,1,1.6145,3.10315,8.79443,8.79443,0,0,1,.24974,3.47516,9.92622,9.92622,0,0,1-.40332,1.74015c-.04221.129-.08885.25572-.13348.38163-.03158-.0843-.06782-.16726-.09653-.25218a18.50378,18.50378,0,0,1-.68382-6.65c.01078-.27095-.44912-.32026-.48077-.04631-.09054.7837-.20635,1.57183-.28857,2.3619-.02995-.07012-.06023-.13936-.089-.20347a7.262,7.262,0,0,0-.51322-.92754,13.15716,13.15716,0,0,0-1.29311-1.7332,12.07279,12.07279,0,0,0-3.31877-2.64734c-.36573-.19409-.82634.322-.467.60519A20.87545,20.87545,0,0,1,64.6564,53.575,17.899,17.899,0,0,1,65.847,55.09555c.191.27874.371.56456.563.84259.09236.1337.20049.25341.29253.38693a2.49338,2.49338,0,0,0,.33811.46282.37141.37141,0,0,0,.27267.08872,11.827,11.827,0,0,0,.008,1.31585,9.19543,9.19543,0,0,0,1.09024,3.89291,6.987,6.987,0,0,0,1.46694,1.85552c-.12336.035-.24471.0804-.3731.12768a.30872.30872,0,0,0-.21277.25713,4.16545,4.16545,0,0,1-1.57838.35161,15.488,15.488,0,0,1-4.05249-4.30871,23.89157,23.89157,0,0,1-1.63936-3.30277c-.23617-.57111-.45682-1.1485-.67054-1.72829a4.9595,4.9595,0,0,0-.78333-1.68348.30953.30953,0,0,0-.52238.2164,4.88484,4.88484,0,0,0,.47233,1.87111c.2228.63486.455,1.26653.70683,1.89041a21.34176,21.34176,0,0,0,1.74145,3.47746,13.04363,13.04363,0,0,0,2.67608,3.13622,5.71136,5.71136,0,0,1-1.00661-.56154c-1.804-1.26574-2.796-3.33022-4.014-5.09862a.4593.4593,0,0,0-.66239-.07366,3.45862,3.45862,0,0,0-.79864-.74926c-.31978-.21109-.74475.17531-.6216.517.25294.70188.68127,1.31646.96342,2.00524a8.73689,8.73689,0,0,1,.557,2.01482,9.17547,9.17547,0,0,1-.34587,4.26081,9.96758,9.96758,0,0,1-2.12458,3.52492,14.861,14.861,0,0,1-2.15569,1.96107A4.50408,4.50408,0,0,0,55.257,71.421c1.28347-.47053,1.89393-2.29187,2.22079-3.51165a20.89221,20.89221,0,0,0,.60814-3.38582c.05691-.58474.08332-1.17108.084-1.75857a8.06923,8.06923,0,0,0-.01614-.84187,1.02359,1.02359,0,0,0-.33228-.64752.31139.31139,0,0,0-.52807.02036c-.1005.15655-.21348.23677-.25043.43776a4.01081,4.01081,0,0,0-.01368.73819q.00328.71614-.04316,1.43122a21.53318,21.53318,0,0,1-.39661,3.01917,11.97674,11.97674,0,0,1-.75639,2.58848,2.57727,2.57727,0,0,1-.89818,1.15789c-.01094-.02143-.02179-.046-.03265-.06676a10.598,10.598,0,0,0-2.03071-2.52872,13.11571,13.11571,0,0,1-2.14322-2.45107,3.3649,3.3649,0,0,1-.51845-2.87971.49547.49547,0,0,0-.06937-.4969c.03672-.05986.076-.11839.112-.17868A15.62071,15.62071,0,0,0,51.52227,59.348a7.64911,7.64911,0,0,0,.63491-3.04377c-.03637-.451-.72234-.69082-.92759-.2134-.37055.86215-.52015,1.8171-.83561,2.70236a16.08454,16.08454,0,0,1-1.22445,2.61469,14.9757,14.9757,0,0,1-1.62984,2.29993,17.62007,17.62007,0,0,1-1.50111,1.485,6.0891,6.0891,0,0,1,.0085-4.62826,7.32431,7.32431,0,0,0,.92737-.57572,6.45534,6.45534,0,0,0,2.66886-4.03741.597.597,0,0,0-.20277-.55924.31772.31772,0,0,0-.46485-.10732.51512.51512,0,0,0-.36666.27661,9.69893,9.69893,0,0,1-.91669,1.91671,6.47162,6.47162,0,0,1-1.40519,1.48426.46981.46981,0,0,0-.52051.18487c-.06755.09687-.12942.19675-.19136.29663a6.27559,6.27559,0,0,1-.95532.46069.59784.59784,0,0,0-.51165.17974c-.22561.07075-.453.13645-.68349.18541-.1615.03427-.324.05587-.48611.08571-.19767.0364-.36938.13326-.5673.17638a.2704.2704,0,0,0-.13708.07615.49874.49874,0,0,0-.41441-.09067c-.0097.0023-.0207-.0046-.03079-.005a.46462.46462,0,0,0-.06172-.01036c-.22479-.11395-.50844-.7303-.60849-.9181A14.17343,14.17343,0,0,1,40.42084,58.06a15.689,15.689,0,0,1-1.06319-6.58185c.02384-.46012.06258-.92137.11686-1.37949a16.92272,16.92272,0,0,0,.552,2.811,19.51592,19.51592,0,0,0,1.00767,2.97878,3.71174,3.71174,0,0,0,.8428,1.96567.38412.38412,0,0,0,.63734-.29325,5.43773,5.43773,0,0,0-.24469-1.4623A9.76308,9.76308,0,0,1,42.05578,54.7a11.57691,11.57691,0,0,1,.13806-2.90377,10.82239,10.82239,0,0,1,.83329-2.72117c.20989-.45356.42686-.90779.67432-1.34221.245-.43019.45166-.88444.72956-1.29349.22691-.33405-.27934-.6226-.5403-.38472a7.64481,7.64481,0,0,0-1.13448,1.17145,8.3412,8.3412,0,0,0-.81264,1.34764,12.09222,12.09222,0,0,0-.97006,3.0764c-.00478.02794-.00673.05643-.01131.08441A12.3287,12.3287,0,0,1,40.6101,49.09a7.29857,7.29857,0,0,1,2.32235-5.72212c.40347-.31891.0176-.97185-.43862-.68827a5.949,5.949,0,0,0-2.2839,2.52,8.44544,8.44544,0,0,0-.73265,2.72239.28456.28456,0,0,0-.405.04434,4.12033,4.12033,0,0,0-.69113,1.88744c-.01853.09623-.03292.19289-.04905.28941a.47911.47911,0,0,0-.5.059,8.00017,8.00017,0,0,1-4.06892-3.718,7.59578,7.59578,0,0,1-.111-6.55058,10.411,10.411,0,0,1,1.78455-2.6564c.09835.16551.2014.32722.31163.48106a6.53825,6.53825,0,0,0,2.11976,1.93667,4.13243,4.13243,0,0,0,1.62279.52856,2.46793,2.46793,0,0,0,.81422-.05609,1.0724,1.0724,0,0,0,.747-.65281.56846.56846,0,0,0-.48442-.84415,2.584,2.584,0,0,0-.27568-.06634,3.02171,3.02171,0,0,0-.39595.06791,1.72843,1.72843,0,0,1-.51025-.01625,3.12316,3.12316,0,0,1-1.03988-.427,4.95762,4.95762,0,0,1-1.5427-1.46477,5.72089,5.72089,0,0,1-.5287-.97255.68037.68037,0,0,0,.01116-.29772,6.6198,6.6198,0,0,1-.29069-1.96346,5.6549,5.6549,0,0,1,.58722-1.94475,12.02226,12.02226,0,0,1,2.50776-3.29425,18.844,18.844,0,0,1,7.119-4.13c5.71193-1.92206,12.48681-2.12119,17.90106.798a15.97647,15.97647,0,0,1,3.64948,2.681,13.52414,13.52414,0,0,1,1.4689,1.7021c.42089.58182.75968,1.20395,1.20477,1.76151a5.23181,5.23181,0,0,0-.53941.43988l-.01913.00793a.36873.36873,0,0,0-.18831.194A3.81417,3.81417,0,0,0,68.60485,34.081a4.04841,4.04841,0,0,0,.02462.89489c-.10814.12057-.218.2396-.33487.352q-.16214.15586-.33649.29826c-.02114.01727-.04286.03434-.06444.05149l-.01014.00711c-.06773.0487-.13523.09753-.20451.14406-.09928.06667-.20235.1283-.30565.18944a5.87717,5.87717,0,0,0,.13421-1.46565c-.02345-.71631-.11735-1.66765-.82275-2.04469a3.42271,3.42271,0,0,0-2.20286-.0466,3.77386,3.77386,0,0,0-2.0259,1.23762.40988.40988,0,0,0,.51869.62136,5.6866,5.6866,0,0,1,.95751-.38924c.07524-.02435.15407-.04947.23418-.0742-.06218.05286-.125.10477-.18444.162a3.29808,3.29808,0,0,0-1.02631,2.50833.408.408,0,1,0,.81542-.03134c-.00467.05742.00945-.0742.01171-.08928q.01155-.0767.02747-.15264c.01831-.08684.04091-.17286.0676-.25751.011-.035.02305-.06986.03555-.10442.00494-.01047.027-.0645.03153-.07488q.05773-.13173.12821-.25729c.04715-.08434.0993-.16562.15108-.24715.01713-.027.03475-.05359.05232-.08024-.00254.00472.04091-.05886.05087-.07183a3.297,3.297,0,0,1,.39258-.42793c.00527-.00483.05165-.045.061-.05388.0259-.02083.05182-.04166.07832-.06165q.11587-.08742.23916-.16431c.08227-.05129.1669-.09723.25268-.14221l.01837-.00991.01833-.00735c.041-.017.08179-.03442.12325-.05029a5.149,5.149,0,0,0,.59951-.18889,4.3915,4.3915,0,0,1-.122,1.75323,4.87846,4.87846,0,0,1-.30169.85735c-.07613.16429-.15717.328-.24.48909a1.76834,1.76834,0,0,0-.251.56c-.04934.392.28887.8695.73781.68318a1.69428,1.69428,0,0,0,.70755-.6587,3.175,3.175,0,0,0,.78514-.21374,5.08731,5.08731,0,0,0,.98149-.49795,6.94121,6.94121,0,0,0,.76685-.58519,2.61208,2.61208,0,0,0,.51978.562,2.54648,2.54648,0,0,0,.88869.4525,5.73494,5.73494,0,0,0-2.01422,2.81c-.00456.01386-.006.02776-.00945.04164-.09058-.08432-.17653-.17335-.27183-.25271a6.54442,6.54442,0,0,0-2.63623-1.29727c-.38194-.09625-.63207.50793-.24983.66262a7.1413,7.1413,0,0,1,3.584,3.50635,6.63111,6.63111,0,0,1,.6345,2.3565,6.78081,6.78081,0,0,1-.0116,1.20734c-.04343.4059-.15373.81135-.169,1.22064-.124.48595.60139.9524.95417.49686a4.30064,4.30064,0,0,0,.56106-2.91822,8.1401,8.1401,0,0,0-.857-2.93418,7.56434,7.56434,0,0,0-.59325-.96761.45862.45862,0,0,0,.18285-.13857.58807.58807,0,0,0,.15842-.07765.88912.88912,0,0,0,.29122-.31453c.11124-.2081.17778-.4421.29173-.652a4.28484,4.28484,0,0,1,.76593-1.017,3.85587,3.85587,0,0,1,2.14833-1.07917,1.03524,1.03524,0,0,0,.37581-.13014.51852.51852,0,0,0,.25179.294A2.44724,2.44724,0,0,1,75.2126,39.584a2.95349,2.95349,0,0,1,.07374,1.93742,4.84,4.84,0,0,1-3.4494,2.77822c-.39424.10514-.29084.77259.12565.71922A5.02939,5.02939,0,0,0,75.102,43.65059a.711.711,0,0,0,.09295.04711l.00881.00828c.01366.01877.02738.03752.03956.05733a.91661.91661,0,0,1,.12341.56254,5.19153,5.19153,0,0,1-.27077,1.81284,3.062,3.062,0,0,1-.44577.80613.51252.51252,0,0,0-.4922.51464,2.40218,2.40218,0,0,1-1.48224.5827.29037.29037,0,0,0-.055.5702,2.56081,2.56081,0,0,0,1.80536-.1731,3.7673,3.7673,0,0,1-.44192,2.39,4.0451,4.0451,0,0,1-2.63245,1.99257c-.42784.1128-.28538.73921.12952.74138a4.15891,4.15891,0,0,0,3.38655-2.262,4.96718,4.96718,0,0,0,.37875-.85635,2.678,2.678,0,0,1,1.77054.895.40515.40515,0,0,0,.15247.20817,1.6763,1.6763,0,0,1,.27725.84278,1.47373,1.47373,0,0,1-.15506.70206,1.92025,1.92025,0,0,1-.49611.63716A1.69353,1.69353,0,0,1,75.29922,54.12219ZM91.77946,32.78661q3.20568-.344,6.41032-.69852c1.40479-.15307,2.80874-.31351,4.21327-.46861a.85575.85575,0,0,0,.171.2363c-.04465.04582-.08622.09467-.13341.1364a3.7261,3.7261,0,0,1-.65784.44438,12.34739,12.34739,0,0,1-1.49085.6602,35.58658,35.58658,0,0,1-3.461,1.16041,32.37085,32.37085,0,0,1-3.47686.7802c-1.03769.17149-2.08833.25-3.12788.40091-.0009-.157-.00378-.314-.00358-.47048,0-.03095.00675-.06178.00927-.09268.12066-.08618.24239-.17074.35708-.26577C91.02972,34.24411,91.89112,33.4528,91.77946,32.78661Zm2.37782,3.39506a32.895,32.895,0,0,0,4.21094-1.01113c.36513-.1149.731-.23663,1.0963-.36245a.48746.48746,0,0,0,.15064.09224,1.42024,1.42024,0,0,0,.30811.074,8.96007,8.96007,0,0,1-.8946,1.03313,9.99652,9.99652,0,0,1-2.615,1.81245,16.85672,16.85672,0,0,1-3.518,1.18566c-.96079.22913-1.95766.36275-2.91709.61031-.06792-.06122-.13787-.121-.20925-.17852-.31478-.25388-.61775-.54264-.95446-.76566a4.04749,4.04749,0,0,0,1.29615-2.06581A19.5828,19.5828,0,0,0,94.15728,36.18167ZM88.83244,40.2673a.218.218,0,0,0,.2021.19406,1.36925,1.36925,0,0,0,.17481.13928c-.08753.07681-.15911.1793-.23929.26477A11.0063,11.0063,0,0,1,86.59631,42.783a12.15707,12.15707,0,0,1-2.74383,1.17934c-.59761.18045-1.214.28578-1.823.41644a3.31628,3.31628,0,0,0,.02678-.39151,2.71252,2.71252,0,0,0-.962-2.07126,3.27508,3.27508,0,0,0-.78049-.47973.89733.89733,0,0,0,.23873-.12976,1.30323,1.30323,0,0,0,.26267-.25547c.01427-.01944.0228-.03932.0357-.05866a.47107.47107,0,0,0,.17724.0021A30.23157,30.23157,0,0,0,87.0354,39.745a6.6248,6.6248,0,0,0,.817-.39154,5.6137,5.6137,0,0,0,.82578.76836C88.72382,40.16016,88.777,40.2122,88.83244,40.2673Zm-8.21767,2.83105c.03776.05525.07187.11256.10437.171.00356.00644.01861.03792.02862.05842l.02366.06131c.02134.06192.04255.12357.05937.18694.0075.02836.01386.057.02025.08558.003.01585.00791.04228.01.06187a1.68441,1.68441,0,0,1-.05477.77006c-.01693.06486-.0367.12883-.05793.19241l-.003.0091c-.01175.02919-.02393.05835-.03676.0871a3.00127,3.00127,0,0,1-.22079.40265c-.02058.0319-.04161.06411-.06284.0955l-.01676.02523-.0112.01313c-.04693.05961-.09529.11783-.14694.17343a1.201,1.201,0,0,1-.29184.25415,1.99507,1.99507,0,0,1-.21646.12792l-.00618.00317-.017.00675c-.04354.01784-.0875.03451-.13222.04932-.04505.01494-.08834.02924-.1314.044a3.73339,3.73339,0,0,0-1.21347-.11562,10.06083,10.06083,0,0,0-1.42588.24383,5.98163,5.98163,0,0,1-.5988.09474c.01472-.04451.03338-.08713.04695-.13215a6.33994,6.33994,0,0,0,.22877-1.318,3.04186,3.04186,0,0,0-.06587-1.21391,1.66162,1.66162,0,0,0-.54665-.80449,4.26736,4.26736,0,0,0,.33308-.64088,9.29764,9.29764,0,0,1,2.07126-.04416,4.10294,4.10294,0,0,1,1.74767.50242A2.06788,2.06788,0,0,1,80.61477,43.09835Zm-4.73424,3.88979a5.443,5.443,0,0,0,1.64428-.014,3.85411,3.85411,0,0,1,1.73041.05784.922.922,0,0,1,.69593.88178,2.497,2.497,0,0,1-.93916,1.46888,10.99554,10.99554,0,0,1-.93533.74111q-.23064.1709-.46534.33618a3.25754,3.25754,0,0,0-.50288-.43869,3.5157,3.5157,0,0,0-1.64481-.60717,4.1749,4.1749,0,0,0-.15168-1.63983A3.85021,3.85021,0,0,0,75.88053,46.98814ZM82.497,55.1516c-.34566.20224-.70911.38127-1.05018.58979-.14523.08872-.28522.18249-.42558.27546a2.84926,2.84926,0,0,0-.68564-.50186,10.25193,10.25193,0,0,0-3.1217-.99382,2.76684,2.76684,0,0,0,.9389-1.03419,2.4287,2.4287,0,0,0,.13627-.32434.555.555,0,0,0,.41095.072,3.306,3.306,0,0,1,1.35954.00142c.25714.05516.51668.09332.771.16221a5.61611,5.61611,0,0,1,.62164.21065,4.88451,4.88451,0,0,1,1.21358.701c.16937.13826.326.28776.48246.43714C82.93231,54.88774,82.71438,55.02445,82.497,55.1516Zm27.44285-17.33936a28.56161,28.56161,0,0,1-3.90568,1.77546c-.65777.24144-1.31669.48152-1.98533.69144a13.98034,13.98034,0,0,0-2.15092.68971.49516.49516,0,0,0-.29751.51574c-.05452.0528-.10818.10659-.16219.15963-.18767.1843-.42386.40134-.5969.54419a10.9699,10.9699,0,0,1-1.5196,1.04552,11.72025,11.72025,0,0,1-1.51988.71585,7.67376,7.67376,0,0,0-1.54108.65494.67291.67291,0,0,0-.78607.22893,14.74642,14.74642,0,0,1-5.1151,3.98482A16.35565,16.35565,0,0,1,87.218,49.892a13.27446,13.27446,0,0,1-1.51387.27313c-.16224.01946-.33129.03469-.49937.05623a1.899,1.899,0,0,0-.51526-.07575.75935.75935,0,0,0,.05833,1.51757l.00556.00013.06536.01528-.03158-.01441h.00037l.035.01587.05945.0315c.01678.00741.02874.012.03726.01481a.31986.31986,0,0,0,.02506.02833c.01666.01729.07552.08144.08734.08983.03274.0465.06314.09427.0941.14209a.43577.43577,0,0,0,.02758.03922.282.282,0,0,0,.01048.04423c.01584.05392.0326.10727.04805.16119.00146.01807.01939.11157.02068.13521.00128.02355-.00138.10377,0,.128a1.86788,1.86788,0,0,1-.04208.20174,1.73015,1.73015,0,0,1-.17224.38132,3.47675,3.47675,0,0,1-.66919.76479c-.03329.03015-.07088.05844-.1051.08824a4.07146,4.07146,0,0,0-.70507-.6794,6.059,6.059,0,0,0-1.55581-.88654,5.34569,5.34569,0,0,0-3.56556-.0391,2.63119,2.63119,0,0,0-.203-.94232c.18182-.11356.35466-.24646.53325-.376.34271-.24847.68283-.50155,1.00327-.77843a3.56157,3.56157,0,0,0,1.271-1.91912,1.93987,1.93987,0,0,0-.42773-1.6346,2.91177,2.91177,0,0,0,.6703-.553,3.01668,3.01668,0,0,0,.53609-.867,7.42034,7.42034,0,0,0,2.61157-.23929,10.82816,10.82816,0,0,0,3.34334-1.48034,11.69927,11.69927,0,0,0,1.43459-1.10115,5.37487,5.37487,0,0,0,1.22124-1.36547.98113.98113,0,0,0,.11178-.5809,20.052,20.052,0,0,0,2.63967-.36606,15.76175,15.76175,0,0,0,3.91542-1.25909,11.198,11.198,0,0,0,2.62752-1.7666,1.29183,1.29183,0,0,1,.04141.722.5474.5474,0,0,0-.23371.91809A4.16324,4.16324,0,0,1,98.8,39.9241a7.51984,7.51984,0,0,1-3.20172,2.019c-1.32269.495-2.68427.90226-4.04041,1.29429a18.10021,18.10021,0,0,1-2.21284.5155,15.35809,15.35809,0,0,0-2.16133.27783c-.29179.09118-.39388.59371-.06587.71774a5.57226,5.57226,0,0,0,2.6106.04943c.151-.02037.30178-.04468.45252-.0686a2.398,2.398,0,0,1-.16544.73362,2.245,2.245,0,0,1-.81575.69051,9.03744,9.03744,0,0,1-2.21771.91619,9.87369,9.87369,0,0,1-4.80089.07138c-.5638-.13354-.73146.6825-.2021.86085a9.80667,9.80667,0,0,0,5.94631.0954,7.24941,7.24941,0,0,0,2.61682-1.28439c.54709-.46618,1.29856-1.64554.6695-2.27424.35085-.074.70023-.1548,1.04612-.24567a29.32207,29.32207,0,0,0,4.868-1.63726,6.92472,6.92472,0,0,0,3.38372-2.99386,5.10768,5.10768,0,0,0,.35032-.87174,46.75572,46.75572,0,0,0,7.93128-1.37855c1.17385-.29941,2.33422-.649,3.48148-1.03765C111.52318,36.88612,110.74889,37.36809,109.93986,37.81224Zm6.1174-4.4247c-.19987.17748-.4013.352-.60332.52557-.23039.10158-.45442.21609-.66232.3q-1.0211.41216-2.05962.77923c-1.38416.48982-2.79039.9172-4.20974,1.29256a56.05081,56.05081,0,0,1-7.486,1.37245c.00031-.04277.00254-.08551.0013-.12826a2.08692,2.08692,0,0,0-.46027-1.33,7.93575,7.93575,0,0,0,.48706-.64187c.11524-.17111.24267-.36015.36094-.55867.21583.0016.43165.00082.64693-.0066.83764-.02888,1.67929-.106,2.51342-.18665,1.61488-.15619,3.22363-.39855,4.82127-.67884,1.59726-.28017,3.19528-.5984,4.76474-1.00849.78476-.205,1.56474-.43063,2.34074-.66642.1495-.04543.30423-.089.46056-.13262A5.87626,5.87626,0,0,0,116.05726,33.38754ZM119.34,29.81642c-.22129.264-.45465.51629-.68825.76842-.00814.00051-.01469-.00281-.023-.0019a15.40077,15.40077,0,0,0-2.32784.62777q-1.17446.32441-2.35991.607c-1.5798.37777-3.15875.7443-4.75732,1.03572s-3.207.50434-4.8199.69761c-.80112.096-1.60534.15871-2.40682.24943.11144-.05131.22366-.1013.33233-.15714.67756-.34818,1.967-1.31448,1.8721-2.21937q3.93831-.43718,7.87649-.87606c2.47606-.28028,4.95079-.55961,7.42145-.88267C119.41849,29.71479,119.38128,29.76716,119.34,29.81642Zm1.53157-2.07c-.16737.25919-.34751.50917-.52655.75993a.5434.5434,0,0,0-.44387-.1385c-9.30754.85843-18.59094,2.05164-27.8748,3.13351-1.31981.1538-2.63669.33038-3.9542.50253a21.27136,21.27136,0,0,0-3.8764.6123.4045.4045,0,0,0,.13724.78563,19.25757,19.25757,0,0,0,3.513-.23218c.77334-.07307,1.54708-.14455,2.32042-.21906a3.98213,3.98213,0,0,1-.43915.48385.95051.95051,0,0,0-.7012.5367,9.82074,9.82074,0,0,1-1.40294.72374c-.849.36517-1.71584.69575-2.577,1.03116-.96057.37414-1.9336.75076-2.91984,1.04871-.30794.093-.23486.63019.10052.5754a29.199,29.199,0,0,0,6.11938-1.47545c.145-.05738.28762-.12066.43031-.18362a2.68948,2.68948,0,0,1-.10055.75232,3.16438,3.16438,0,0,1-1.44607,1.67389,10.43861,10.43861,0,0,1-2.97239,1.02848c-1.07567.26377-2.12341.6374-3.184.95769a1.47057,1.47057,0,0,0-.09627-.49321,1.19835,1.19835,0,0,0-.247-.417,1.23529,1.23529,0,0,0-.28606-.202.49282.49282,0,0,0-.40029-.02c-.01624-.00148-.03211-.005-.04847-.0064a.308.308,0,0,0-.27728.20239.317.317,0,0,0,.042.29485.59543.59543,0,0,0,.08389.22608,1.01127,1.01127,0,0,1,.04965.09195l-.05558-.11876c.02357.05273.04879.10448.07334.15654a1.07823,1.07823,0,0,1,.06682.211q.00516.058.0047.11621a1.12851,1.12851,0,0,1-.0439.18776,1.4009,1.4009,0,0,1-.07249.137,1.7006,1.7006,0,0,0-.22147.2687.49727.49727,0,0,0,.00929.48119,4.20024,4.20024,0,0,0-.868-.107,5.73087,5.73087,0,0,0-1.39144.142c-.31991.074-.64422.1306-.9673.1934.36567-1.63117-.37733-3.6934-2.0564-4.2377a.5225.5225,0,0,0-.21541-.02492,1.01525,1.01525,0,0,0-.24745-.60493,2.15832,2.15832,0,0,0-1.5987-.65875,7.12416,7.12416,0,0,1-1.31324-.04071,1.536,1.536,0,0,1-.93062-1.54878,2.60771,2.60771,0,0,1,1.23038-2.17813c.03879-.02763.08-.05257.11958-.07938,1.19842-.16666,2.38158-.41985,3.56909-.67085q2.50045-.52851,5.01429-.99087,1.25607-.23111,2.51442-.44635a1.69767,1.69767,0,0,1,.164.58147,2.2531,2.2531,0,0,1-.19307,1.10265,6.14279,6.14279,0,0,1-1.726,2.02971,16.5551,16.5551,0,0,1-4.90039,2.94623.346.346,0,0,0,.20928.65909,14.697,14.697,0,0,0,5.93094-3.14936,5.61567,5.61567,0,0,0,1.80421-2.54156,3.1604,3.1604,0,0,0-.0166-1.83834q3.12848-.51617,6.27082-.94806a194.62907,194.62907,0,0,1,20.25517-1.70135q5.46845-.17239,10.93455.00511C121.12661,27.32834,121.00382,27.54164,120.87156,27.74646Z"/>
          <path class="cls-2" d="M46.165,78.73361a1.24311,1.24311,0,0,0-1.16461-.24889c-.32258.06752-.64464.13758-.96713.20553-.69859.14727-1.39982.28215-2.10438.39766a26.60228,26.60228,0,0,0-.97069-3.49634.51246.51246,0,0,0-.99586.17394,26.56349,26.56349,0,0,0,.53736,3.53124c-.97276.12941-1.94828.23712-2.92388.34524a.83028.83028,0,0,0-.7341.60479.5189.5189,0,0,0,.02919.4604l.07309.14087a.7745.7745,0,0,0,.6921.3624c1.07631-.03579,2.14878-.13815,3.21673-.27613.09135.416.18194.83125.26687,1.24454.43869,2.135.87241,4.26981,1.35523,6.39528.20913.92072,1.69744.47679,1.41578-.44943-.42768-2.10562-.90252-4.19972-1.37367-6.296-.08179-.36387-.15993-.73112-.23759-1.09927q.97787-.15263,1.95046-.33734c.7418-.14193,1.67822-.16179,2.0615-.90746A.63027.63027,0,0,0,46.165,78.73361Z"/>
          <path class="cls-2" d="M120.26905,112.59612H31.14557a1.08785,1.08785,0,0,1-1.088-1.088V98.73549a1.08785,1.08785,0,0,1,1.088-1.088h89.12348a1.08785,1.08785,0,0,1,1.088,1.088v12.7726A1.08785,1.08785,0,0,1,120.26905,112.59612Zm-88.03546-2.17605H119.181V99.82351H32.23359Z"/>
          <g>
            <rect x="35.20166" y="102.09971" width="1.16457" height="6.23296"/>
            <polygon points="36.906 103.006 39.061 103.006 39.061 108.333 40.236 108.333 40.236 103.006 42.402 103.006 42.402 102.1 36.906 102.1 36.906 103.006"/>
            <polygon points="44.107 105.528 46.862 105.528 46.862 104.639 44.107 104.639 44.107 102.998 47.02 102.998 47.02 102.1 42.942 102.1 42.942 108.333 47.177 108.333 47.177 107.435 44.107 107.435 44.107 105.528"/>
            <path d="M52.43142,106.53291a1.77147,1.77147,0,0,0-.842-1.17969,1.66575,1.66575,0,0,0,1.14079-1.54836,1.5214,1.5214,0,0,0-.6063-1.23552,3.39216,3.39216,0,0,0-2.12638-.514,11.33881,11.33881,0,0,0-1.77733.12606l-.10363.01805v6.13323h1.16456v-2.59223h.73334a1.178,1.178,0,0,1,1.30307,1.07069,6.39116,6.39116,0,0,0,.49072,1.46716l.03718.05438h1.24l-.12253-.1919A8.70941,8.70941,0,0,1,52.43142,106.53291Zm-.86574-2.63929c0,.61447-.57838,1.01143-1.47351,1.01143h-.811v-1.9563a5.12586,5.12586,0,0,1,.77821-.049C50.74663,102.90608,51.56568,103.08383,51.56568,103.89362Z"/>
            <path d="M58.065,105.76653c0,1.18383-.53827,1.78391-1.5997,1.78391-.98412,0-1.526-.63349-1.526-1.78391v-3.66682h-1.175v3.649a2.41329,2.41329,0,0,0,2.66953,2.68147,2.51468,2.51468,0,0,0,2.80632-2.71683v-3.61366H58.065Z"/>
            <path d="M66.05875,102.09971l-1.29527,2.97091c-.2859.684-.49145,1.22113-.64531,1.68979-.15069-.47695-.3471-1.01363-.6174-1.68979l-1.24137-2.97091H60.894l-.51474,6.233H61.5035l.19788-2.68148c.04669-.663.08619-1.35914.11241-1.97044.15849.4806.36051,1.02533.6252,1.68857l1.17761,2.92775h.86062l1.2838-2.978c.26615-.61472.49426-1.178.69091-1.70637.01622.63982.06182,1.36329.10034,1.97532l.18666,2.74463h1.14494l-.46012-6.233Z"/>
            <path d="M75.57936,106.53291a1.77145,1.77145,0,0,0-.842-1.17969,1.66574,1.66574,0,0,0,1.1408-1.54836,1.5214,1.5214,0,0,0-.6063-1.23552,3.39217,3.39217,0,0,0-2.12639-.514,11.33867,11.33867,0,0,0-1.77732.12606l-.10363.01805v6.13323h1.16456v-2.59223h.73334a1.178,1.178,0,0,1,1.30307,1.07069,6.39116,6.39116,0,0,0,.49072,1.46716l.03718.05438h1.24l-.12253-.1919A8.70863,8.70863,0,0,1,75.57936,106.53291Zm-.86574-2.63929c0,.61447-.57838,1.01143-1.47351,1.01143h-.811v-1.9563a5.12575,5.12575,0,0,1,.77821-.049C73.89457,102.90608,74.71362,103.08383,74.71362,103.89362Z"/>
            <path d="M81.213,105.76653c0,1.18383-.53828,1.78391-1.5997,1.78391-.98412,0-1.526-.63349-1.526-1.78391v-3.66682h-1.175v3.649a2.41329,2.41329,0,0,0,2.66953,2.68147,2.51468,2.51468,0,0,0,2.80632-2.71683v-3.61366H81.213Z"/>
            <path d="M88.74535,102.8278a4.67177,4.67177,0,0,0-2.948-.77247,15.5909,15.5909,0,0,0-1.96106.12533l-.10912.0139v6.10885l.1129.011c.49486.04731,1.05788.07145,1.67345.07145a4.98808,4.98808,0,0,0,3.21328-.88977,3.03074,3.03074,0,0,0,1.06508-2.42178A2.69293,2.69293,0,0,0,88.74535,102.8278Zm-3.05309,4.687c-.23384,0-.556-.00341-.80052-.02926V102.9785a6.34973,6.34973,0,0,1,.9478-.061,3.01242,3.01242,0,0,1,2.20648.70761,1.98831,1.98831,0,0,1,.53937,1.4757C88.58539,106.65751,87.55786,107.51484,85.69226,107.51484Z"/>
            <rect x="90.7314" y="102.09971" width="1.16457" height="6.23296"/>
            <polygon points="92.435 103.006 94.591 103.006 94.591 108.333 95.766 108.333 95.766 103.006 97.932 103.006 97.932 102.1 92.435 102.1 92.435 103.006"/>
            <polygon points="101.866 102.1 100.701 102.1 100.701 108.333 104.894 108.333 104.894 107.435 101.866 107.435 101.866 102.1"/>
            <polygon points="106.83 105.528 109.585 105.528 109.585 104.639 106.83 104.639 106.83 102.998 109.743 102.998 109.743 102.1 105.665 102.1 105.665 108.333 109.901 108.333 109.901 107.435 106.83 107.435 106.83 105.528"/>
            <path d="M113.83569,102.00217a3.19968,3.19968,0,0,0-3.4164,3.26742,3.09828,3.09828,0,0,0,3.31106,3.16061,3.17009,3.17009,0,0,0,3.4164-3.27619A3.062,3.062,0,0,0,113.83569,102.00217Zm-.05267,5.54827a2.34281,2.34281,0,1,1,2.1465-2.36083A2.1352,2.1352,0,0,1,113.783,107.55044Z"/>
          </g>
        </g>
      </g>
    </g>
  </g>
</svg>
