<svg xmlns="http://www.w3.org/2000/svg" width="150" height="150" viewBox="0 0 150 150">
  <defs>
    <style>
      .cls-1 {
        fill: #fc0;
        fill-rule: evenodd;
      }
    </style>
  </defs>
  <g id="Layer_3" data-name="Layer 3">
    <path class="cls-1" d="M65.04,1.48327A73.52451,73.52451,0,0,0,14.246,21.78565l9.83134,9.96423c.03369-.03173.06946-.06119.10319-.09285a11.228,11.228,0,0,0,.89686,5.12194,6.2464,6.2464,0,0,1-.95772.60944c-.26119.08706-.87063,3.04727-2.26367,6.1816s-2.43779,5.13676-2.699,5.65914.34825,1.04479.34825,1.04479a.91087.91087,0,0,1-.17412.87062,7.92681,7.92681,0,0,0-1.13185,2.43783c-.17413.6965,1.4801,2.699,1.82835,3.04723a4.28508,4.28508,0,0,0,2.43779.52237,11.37161,11.37161,0,0,0,1.91541-2.08954c.00693-.01389.02074-.03691.03044-.05451a32.33309,32.33309,0,0,0,9.93282-6.136A23.38351,23.38351,0,0,1,39.09476,54.453c.43532.6965.52238,3.83083.52238,3.83083a56.14125,56.14125,0,0,0-7.05222-.95773c-2.699-.08706-3.04723,1.306-3.22135,2.87314s2.08953,11.31832,2.52485,12.276,3.48258,6.18156,6.5298,6.35568a5.79682,5.79682,0,0,0,4.61444-1.65422c-.26123-1.65423-2.699-4.35321-3.13433-4.17908s-1.82836.95772-1.82836.95772a18.0042,18.0042,0,0,0-.52237-2.08954c-.17413-.34829-1.393-.60947-1.74129-.87066a8.19664,8.19664,0,0,1-2.1766-5.13677c-.17413-2.87314.52237-2.87314.52237-2.87314,3.13433,1.4801,9.83826,7.92285,11.2313,9.57707s3.30842,0,3.56964-.34825,1.30594-.43531,1.65419-.43531,5.22387,4.96264,11.2313,5.57208,14.01734-1.04475,14.01734-1.04475-.17412,2.61191,4.78852,10.01239,16.62929,6.791,18.45765,8.27109c1.82831,1.4801,4.87558,8.2711,6.44274,11.14424s8.097,2.52485,8.097,2.52485,1.91542-.17412,1.393-1.74129-1.306-3.56964-2.00248-4.17908a1.48534,1.48534,0,0,0-1.306-.43531s-2.00248,1.30594-2.52485,1.21888a1.2021,1.2021,0,0,1-.78361-.60944C105.17651,100.07468,104.48,92.326,103.9576,91.107c-.52238-1.21887-1.21892-1.91541-3.13433-2.786a13.99233,13.99233,0,0,1-4.87558-3.6567c-.78357-1.13185.52237-2.43779,1.306-6.52981.63727-3.32805.18-5.9077-1.88628-9.65871a8.573,8.573,0,0,1,3.10516.1687c1.69778.52238,5.22387,4.04851,6.00743,4.70146s2.48134,3.00371,4.04851,3.00371a6.3382,6.3382,0,0,0,2.61191-.52237s3.91789,3.78732,5.48506,4.0485,4.96264.65295,4.96264.65295-2.35073-1.95892-1.82835-2.4813,4.83206.52238,4.83206.52238a32.20783,32.20783,0,0,0-2.8731-4.83207c-.91417-.91418-13.45141-10.4477-13.97383-10.8395s-2.74248-1.17537-6.00743,0c-2.42292.87225-6.855,1.1686-9.1957,1.26373-3.40065-3.97591-7.88512-4.47962-11.395-5.18162a22.63762,22.63762,0,0,1-6.09449-2.00248c1.48006-1.56717,1.21887-4.87558,1.21887-4.87558H65.56228l-.437-.19421c9.98773-7.42455,8.87841-10.0915,8.44689-11.4724a6.3841,6.3841,0,0,0-1.13185-2.17661,3.36818,3.36818,0,0,1-.26119-1.04479A11.89853,11.89853,0,0,1,73.311,34.86356a21.54685,21.54685,0,0,0-3.22139.08706,9.51624,9.51624,0,0,0-1.65423.87066,8.26117,8.26117,0,0,1-2.08954,0s-3.48258-1.21891-4.70145-1.65422c-1.21419-.43364-7.60845-1.90271-8.9489-1.48381a12.81368,12.81368,0,0,1-.27993-1.30227c0-.26119,1.21892-1.56713,1.21892-1.56713s-3.65671-3.56964-7.66166-4.70149a2.11459,2.11459,0,0,0-.52238,1.393,5.00886,5.00886,0,0,0,.43532,1.393,13.81468,13.81468,0,0,1-.6965,1.82835,7.55561,7.55561,0,0,0-.52242,1.393l-.17412,1.306,1.306.87062s-.08706,1.91542.26119,1.82835a2.6608,2.6608,0,0,1,.87067,0s.43531,1.74129.6965,1.65423a6.8486,6.8486,0,0,1,1.82835-.52237,9.41338,9.41338,0,0,1,1.10117-.00591c-.25605.42875-.69006,1.15829-.92705,1.57307a35.88491,35.88491,0,0,1-2.6364,2.94538,68.91192,68.91192,0,0,0-8.33371-5.122,20.62574,20.62574,0,0,0-11.31832-1.82835,10.51939,10.51939,0,0,0-3.01464-2.293,59.58063,59.58063,0,1,1,56.9074,100.765V87.5374H67.47769v46.92654c-.80894.03259-1.62082.0537-2.43766.0537a59.615,59.615,0,0,1-43.60725-18.9214l-10.16325,9.61684A73.59169,73.59169,0,1,0,65.04,1.48327ZM53.89567,41.91578s2.699,2.26366,3.30845,2.786,3.48254.43531,3.48254.43531a26.70013,26.70013,0,0,0-3.02152,3.4352c-.40219-.31057-2.94733-2.26921-6.17056-4.61187C52.57347,43.03455,53.89567,41.91578,53.89567,41.91578ZM27.51521,51.14456c.60944-.17412,5.398-3.22135,5.398-3.22135.22859.12063.45332.258.67572.40321-3.34052,2.6859-5.58593,3.43728-6.91224,3.57746A2.80473,2.80473,0,0,1,27.51521,51.14456Z"/>
  </g>
</svg>
