<svg id="axis_tunisia_engineer_2_icon" xmlns="http://www.w3.org/2000/svg" width="150" height="150" viewBox="0 0 150 150">
  <defs>
    <style>
      .cls-1 {
        fill: #eee;
      }

      .cls-1, .cls-2, .cls-4 {
        fill-rule: evenodd;
      }

      .cls-2, .cls-3 {
        fill: #151515;
      }

      .cls-4 {
        fill: #f2f2f2;
      }
    </style>
  </defs>
  <g id="axis_tunisia_assault_1_icon_copy" data-name="axis_tunisia_assault_1_icon copy">
    <path id="Shape_267_copy" data-name="Shape 267 copy" class="cls-1" d="M134.886,4.238a0.374,0.374,0,0,0-.382-0.1c-1.821.608-15.174,5.556-37.31,26.406-23.1,21.76-45.965,47.528-47.41,49.162L42.752,72.6a2.456,2.456,0,0,0-3.463-.032l-0.788.78a2.456,2.456,0,0,0,0,3.463l8.363,8.452A71.773,71.773,0,0,0,39.909,91a155.728,155.728,0,0,0-14.12,15.2l-5.818-5.88a2.568,2.568,0,0,0-3.62-.034l-0.631.624a2.567,2.567,0,0,0,0,3.62l17.605,17.8a2.568,2.568,0,0,0,3.62.034l0.63-.624a2.568,2.568,0,0,0,0-3.621l-5.818-5.88A155.579,155.579,0,0,0,47.111,98.283a71.73,71.73,0,0,0,5.816-6.889l8.362,8.453a2.456,2.456,0,0,0,3.463.032l0.788-.78a2.456,2.456,0,0,0,0-3.463L58.514,88.53c1.649-1.428,27.66-24.014,49.666-46.882,21.086-21.913,26.175-35.212,26.8-37.026A0.373,0.373,0,0,0,134.886,4.238Z"/>
    <path id="Shape_267_copy_2" data-name="Shape 267 copy 2" class="cls-2" d="M135.492,3.637a1.225,1.225,0,0,0-1.258-.31c-2.43.812-15.663,5.908-37.625,26.595C75.223,50.065,53.8,73.918,49.75,78.458L43.359,72a3.307,3.307,0,0,0-4.67-.039l-0.789.78a3.26,3.26,0,0,0-.969,2.331,3.3,3.3,0,0,0,.958,2.339l7.661,7.743c-1.734,1.284-3.821,3.035-6.217,5.221a153.665,153.665,0,0,0-13.6,14.562l-5.153-5.209a3.41,3.41,0,0,0-2.408-1.017,3.451,3.451,0,0,0-2.419.976l-0.631.624a3.371,3.371,0,0,0-1,2.409,3.409,3.409,0,0,0,.991,2.418l17.605,17.8a3.425,3.425,0,0,0,2.44,1.018,3.38,3.38,0,0,0,2.387-.978l0.631-.623a3.419,3.419,0,0,0,.011-4.828l-5.153-5.209A153.374,153.374,0,0,0,47.736,98.865c2.21-2.371,3.984-4.439,5.287-6.161l7.66,7.743a3.3,3.3,0,0,0,2.33.983,3.359,3.359,0,0,0,2.34-.944l0.788-.78a3.26,3.26,0,0,0,.97-2.331,3.3,3.3,0,0,0-.959-2.339l-6.391-6.46c4.583-4,28.664-25.168,49.034-46.337,20.923-21.743,26.159-34.919,27-37.34A1.22,1.22,0,0,0,135.492,3.637ZM65.4,97.373a1.563,1.563,0,0,1-.463,1.119l-0.788.78a1.6,1.6,0,0,1-2.256-.026l-9.075-9.173-0.589.824a72.248,72.248,0,0,1-5.745,6.8,155.03,155.03,0,0,1-15.263,13.874l-0.738.593,6.483,6.553a1.708,1.708,0,0,1,0,2.413l-0.63.624a1.71,1.71,0,0,1-2.414-.027L16.322,103.936a1.713,1.713,0,0,1-.5-1.216,1.674,1.674,0,0,1,.5-1.2l0.631-.623a1.671,1.671,0,0,1,1.186-.483h0.017a1.712,1.712,0,0,1,1.21.51l6.483,6.553,0.6-.731A155.052,155.052,0,0,1,40.484,91.634a72.383,72.383,0,0,1,6.865-5.673l0.831-.58L39.1,76.208a1.6,1.6,0,0,1-.465-1.136,1.565,1.565,0,0,1,.463-1.119l0.789-.78a1.6,1.6,0,0,1,2.256.026L64.938,96.236h0A1.6,1.6,0,0,1,65.4,97.373Zm42.16-56.318C87.1,62.32,62.887,83.587,58.558,87.36l-7.6-7.686C54.771,75.387,76.3,51.4,97.779,31.165,117.4,12.682,130.141,6.755,133.81,5.3,132.319,8.957,126.258,21.63,107.564,41.056Z"/>
    <path id="Shape_267_copy_3" data-name="Shape 267 copy 3" class="cls-2" d="M56.527,79.863a1.736,1.736,0,0,0,.5,1.24l0.163,0.165a1.752,1.752,0,0,0,2.474.013l64.273-63.59a1.752,1.752,0,0,0,.013-2.474l-0.163-.165a1.751,1.751,0,0,0-2.474-.013L57.044,78.628A1.738,1.738,0,0,0,56.527,79.863Zm0.941-.806,64.273-63.59a1.148,1.148,0,0,1,1.623.008l0.163,0.165a1.149,1.149,0,0,1-.008,1.623L59.245,80.853a1.149,1.149,0,0,1-1.623-.008l-0.163-.165A1.149,1.149,0,0,1,57.467,79.057Z"/>
  </g>
  <g id="ger_copy_8" data-name="ger copy 8">
    <rect id="Rectangle_2_copy_3" data-name="Rectangle 2 copy 3" class="cls-3" x="46" y="119" width="58" height="30"/>
    <path id="Rectangle_2_copy_3-2" data-name="Rectangle 2 copy 3" class="cls-4" d="M46,146v-3h58v3H46Zm0-24h58v3H46v-3Z"/>
    <path id="_334" data-name="334" class="cls-4" d="M63.15,138.313a4.472,4.472,0,0,1-2.093-.518l-0.917,2.692a4.162,4.162,0,0,0,1.485.538,9.336,9.336,0,0,0,1.844.2,4.6,4.6,0,0,0,3.29-1.166A4.676,4.676,0,0,0,68,136.5a4.507,4.507,0,0,0-.748-2.8,2.975,2.975,0,0,0-1.9-1.166l-0.9.1v-0.139l0.877-.519,2.073-2.751v-2.253H60.419v2.911h2.313l1.555-.239-1.156.937L61.5,132.811v2.153h1.156a2.369,2.369,0,0,1,1.565.4,1.626,1.626,0,0,1,.449,1.276A1.414,1.414,0,0,1,63.15,138.313Zm11.24,0a4.472,4.472,0,0,1-2.093-.518l-0.917,2.692a4.161,4.161,0,0,0,1.485.538,9.335,9.335,0,0,0,1.844.2A4.6,4.6,0,0,0,78,140.058a4.676,4.676,0,0,0,1.236-3.559,4.506,4.506,0,0,0-.748-2.8,2.974,2.974,0,0,0-1.9-1.166l-0.9.1v-0.139l0.877-.519,2.074-2.751v-2.253H71.659v2.911h2.313l1.555-.239-1.156.937-1.635,2.233v2.153h1.156a2.369,2.369,0,0,1,1.565.4,1.626,1.626,0,0,1,.449,1.276A1.414,1.414,0,0,1,74.39,138.313Zm17.082-3.668H89.8v-7.676h-3.07L81.8,135.163v2.273h4.9v3.489H89.8v-3.489h1.675v-2.791Zm-4.765,0H85.391l-0.937.2,0.8-.518,0.977-1.535,0.6-1.735h0.1l-0.219,1.894v1.7Z"/>
  </g>
</svg>
