<svg id="axis_tunisia_antitank_2_icon" xmlns="http://www.w3.org/2000/svg" width="150" height="150" viewBox="0 0 150 150">
  <defs>
    <style>
      .cls-1 {
        fill: #f2f2f2;
      }

      .cls-1, .cls-2 {
        fill-rule: evenodd;
      }

      .cls-2, .cls-3 {
        fill: #151515;
      }
    </style>
  </defs>
  <path class="cls-1" d="M3.006,114.971v-104H147.015v104H3.006Z"/>
  <path id="Shape_873_copy" data-name="Shape 873 copy" class="cls-2" d="M77.964,37.836s25.58,1.56,31.923.728,8.631-1.768,11.854-2.392,7.487-.312,9.463,3.119,5.3,11.127,6.239,12.582,2.495,5.1.936,5.823-4.784-3.224-6.239-7.8-1.976-9.567-6.344-10.814S114.254,42.2,114.254,42.2a4.57,4.57,0,0,0-2.183,3.639c-0.1,2.5.208,12.894,0.624,16.846s1.559,12.166,6.031,15.286c0,0,.519.416,0.416,3.848s-1.352,16.43-3.848,20.277-7.591,3.536-8.215,2.5,0.52-2.184,1.768-3.224,2.7-1.143,3.12-4.263,1.351-8.527-.624-11.646-8.839-9.982-10.5-11.75-2.184-4.679-2.807-5.3-1.352-1.768-4.679-.1-8.215,5.927-10.19,8.111-3.016,2.392-3.016,1.144,0.208-4.679-2.912-4.159-10.086,3.328-11.958,4.887S61.43,85.877,60.91,89.724s-0.728,7.175-3.535,11.542-6.447,6.239-7.591,4.264S52.7,99.915,54.567,97s2.08-8.735,1.248-10.918-2.7-6.447-6.031-8.215-11.75-9.359-11.75-9.359a72.72,72.72,0,0,0-2.7,7.591c-0.208,1.456,0,1.976-1.144,2.5S27.531,78.39,24.1,74.646s-8.631-13.518-8.319-20.589,4.679-15.806,6.863-18.3,2.7-.936,2.5.1S24.2,40.747,26.6,40.851a3.871,3.871,0,0,0,4.159-2.7c0.728-1.664,4.055-12.27,16.742-13.414s20.069,5.2,20.069,5.2Z"/>
  <g id="ger_copy_12" data-name="ger copy 12">
    <rect id="Rectangle_2_copy_3" data-name="Rectangle 2 copy 3" class="cls-3" x="46" y="119" width="58" height="30"/>
    <path id="Rectangle_2_copy_3-2" data-name="Rectangle 2 copy 3" class="cls-1" d="M46,146v-3h58v3H46Zm0-24h58v3H46v-3Z"/>
    <path id="_90" data-name="90" class="cls-1" d="M65.222,131.475a4.558,4.558,0,0,0,1.146,3.349,3.513,3.513,0,0,0,2.542,1.157h0.04a2.091,2.091,0,0,0,1.635-.718,3.929,3.929,0,0,1-1.246,2.1,4.662,4.662,0,0,1-2.542,1.087l0.718,2.771a6,6,0,0,0,1.914-.389,6.448,6.448,0,0,0,1.784-1.056,6.942,6.942,0,0,0,1.505-1.735,8.881,8.881,0,0,0,1.017-2.552,13.931,13.931,0,0,0,.379-3.359,5.96,5.96,0,0,0-1.236-4.057,4.231,4.231,0,0,0-3.35-1.406,3.979,3.979,0,0,0-3.15,1.316A5.093,5.093,0,0,0,65.222,131.475Zm3.15-.12a2.36,2.36,0,0,1,.309-1.306,0.982,0.982,0,0,1,.867-0.468q1.416,0,1.416,2.193a4.976,4.976,0,0,1-.1.857,1.5,1.5,0,0,1-1.136.439,1.221,1.221,0,0,1-.977-0.449A1.907,1.907,0,0,1,68.372,131.355Zm8.13,2.572q0,3.847,1.077,5.573a3.649,3.649,0,0,0,3.329,1.724,3.717,3.717,0,0,0,3.32-1.714q1.127-1.714,1.127-5.583,0-3.888-1.077-5.572a4.1,4.1,0,0,0-6.649.03Q76.5,130.1,76.5,133.927Zm3.33,0a16.782,16.782,0,0,1,.229-3.4,0.97,0.97,0,0,1,.847-0.947,1,1,0,0,1,.867.957,15.5,15.5,0,0,1,.249,3.389,17.043,17.043,0,0,1-.229,3.459,0.965,0.965,0,0,1-.867.927,0.975,0.975,0,0,1-.867-0.947A17.071,17.071,0,0,1,79.831,133.927Z"/>
  </g>
</svg>
