<svg id="Layer_1" data-name="Layer 1" xmlns="http://www.w3.org/2000/svg" width="150" height="150" viewBox="0 0 150 150">
  <defs>
    <style>
      .cls-1 {
        fill: #eee;
      }

      .cls-2 {
        fill: #151515;
      }
    </style>
  </defs>
  <path class="cls-1" d="M74.89,144.60667c2.41079,0,9.17626-1.97247,14.84591-5.40284,18.61933-11.27261,42.146-26.73789,42.146-50.78865V5.33333H17.89809V88.41518c0,24.05075,23.52667,39.516,42.146,50.78865C65.71374,142.65326,72.47921,144.60667,74.89,144.60667Z"/>
  <path class="cls-2" d="M129.81,7V89.14c0,21.88-21.59,36.78-41.82,49-5.34,3.23-11.53,4.94-13,5s-7.65-1.72-13-5C41.76,125.9,20.17,111,20.17,89.14V7H129.81m5-5H15.19V89.14c0,25.24,24.69,41.47,44.23,53.3,6,3.6,13,5.67,15.58,5.67s9.63-2.07,15.58-5.67c19.54-11.83,44.23-28.06,44.23-53.3Z"/>
  <path d="M63.77,119.74a1,1,0,0,0-1.3919-.25022q-.04052.02815-.0781.06022a35.47284,35.47284,0,0,1-2.86,2.62c-.93.71-2.09,1.63-3.1,1.58-1.32-.06-3.33-.69-3.72-1.62a4.75,4.75,0,0,1,.89-4.18,30.14948,30.14948,0,0,1,5.26-3.85,1,1,0,0,0,.29-1.3C43.44,86.46,32.23,58.71,30.9,27.66c6.72,28.82,15.85,56.59,33.46,81.4a.82.82,0,0,0,1.14687.17174q.03283-.02429.06313-.05174C66.87,108,68,107,69.1,106c2.2-2,3.52-2,5.29.09,1.63,2,1.43,3.81-.84,5.36a49.7197,49.7197,0,0,1-4.73,2.61.67.67,0,0,0-.19,1c1.9,2.17,3.83,4.22,5.52,6.45,1.86,2.45,1.58,4.17-.52,5.72-2.5,1.87-4,1.68-5.76-1C66.46,124.21,65.17,122,63.77,119.74ZM37.07,58.82c.09.39.17.77.28,1.15,4.91,18.22,13,35,22.68,51.12,2,3.31,1.8,3.62-1.39,5.83A18.4301,18.4301,0,0,1,55,119a.86.86,0,0,0-.52188,1.09856L54.49,120.13c.14.26.29.35.53.71a.93.93,0,0,0,.94.45c3-.53,4.33-4.13,7.15-5.33a.93.93,0,0,1,1.14.33c.63.92,1.25,1.81,1.82,2.72,1.22,2,2.31,4,3.67,5.87a1.87,1.87,0,0,0,1.14.56,1.08,1.08,0,0,0,1.29715-.80635q.00738-.03162.01284-.06365a1.89987,1.89987,0,0,0-.08-1.27c-1.14-1.89-2.7-3.5-3.86-5.39-1.82-3-2.27-4.6,1.12-6.52a21.7814,21.7814,0,0,0,3.3-2.39.77.77,0,0,0,.2-.93c-.09-.17-.44-.48-.53-.65a.61.61,0,0,0-.88-.25c-2.18,1.41-4.38,3.09-6.75,4.63a1,1,0,0,1-1.38556-.28323L63.32,111.51C52.31,95,44.67,76.87,37.07,58.82Z"/>
  <circle cx="109.72" cy="27.57" r="5.05"/>
</svg>
