<svg id="Layer_1" data-name="Layer 1" xmlns="http://www.w3.org/2000/svg" width="150" height="150" viewBox="0 0 150 150">
  <defs>
    <style>
      .cls-1 {
        fill: #ddd;
      }
    </style>
  </defs>
  <g>
    <g>
      <rect x="38.69482" y="21.64014" width="12.22119" height="87.15283" rx="1.5"/>
      <path class="cls-1" d="M49.416,23.13991v84.15331h-9.2213V23.13991H49.416m0-3h-9.2213a3,3,0,0,0-3,3v84.15331a3,3,0,0,0,3,3H49.416a3,3,0,0,0,3-3V23.13991a3,3,0,0,0-3-3Z"/>
    </g>
    <g>
      <rect x="99.08398" y="21.64014" width="12.22168" height="87.15283" rx="1.5"/>
      <path class="cls-1" d="M109.8053,23.13991v84.15331H100.584V23.13991h9.22132m0-3H100.584a3,3,0,0,0-3,3v84.15331a3,3,0,0,0,3,3h9.22132a3,3,0,0,0,3-3V23.13991a3,3,0,0,0-3-3Z"/>
    </g>
    <g>
      <path d="M105.24414,128.36035A36.41164,36.41164,0,0,1,75,112.166a36.28733,36.28733,0,0,1-66.5-20.127A1.49987,1.49987,0,0,1,10,90.54h9.25586a1.50008,1.50008,0,0,1,1.499,1.44434A24.18065,24.18065,0,0,0,43.936,115.166q.45336.01611.90234.0166A23.9959,23.9959,0,0,0,68.89014,91.98438a1.50008,1.50008,0,0,1,1.499-1.44434h9.25635a1.50008,1.50008,0,0,1,1.499,1.44434A24.18109,24.18109,0,0,0,104.32617,115.166q.45264.01611.90235.0166A23.99388,23.99388,0,0,0,129.2793,91.98535a1.50024,1.50024,0,0,1,1.499-1.44531H140a1.50018,1.50018,0,0,1,1.5,1.499,36.30361,36.30361,0,0,1-36.25488,36.32129Z"/>
      <path class="cls-1" d="M140,92.03992a34.78584,34.78584,0,0,1-65,17.27264,34.787,34.787,0,0,1-30.21192,17.54158l-.02629,0A34.78808,34.78808,0,0,1,10,92.03992h9.256A25.58406,25.58406,0,0,0,43.881,116.665c.32146.01184.6394.01767.95842.01767A25.58581,25.58581,0,0,0,70.38935,92.03992h9.256A25.58408,25.58408,0,0,0,104.27039,116.665c.32147.01184.63941.01767.95842.01767a25.58587,25.58587,0,0,0,25.54988-24.64274H140m0-3h-9.22129a3,3,0,0,0-2.998,2.88957,22.5,22.5,0,0,1-22.55189,21.75317c-.28228,0-.56361-.00517-.84807-.01565A22.67423,22.67423,0,0,1,82.6433,91.92951a3,3,0,0,0-2.998-2.88959h-9.256a3,3,0,0,0-2.998,2.88959,22.49994,22.49994,0,0,1-22.5519,21.75315c-.28229,0-.56362-.00517-.84808-.01565A22.67417,22.67417,0,0,1,22.254,91.92951a3,3,0,0,0-2.998-2.88959H10a3,3,0,0,0-3,2.99773,37.78673,37.78673,0,0,0,68.0001,22.72312A37.78684,37.78684,0,0,0,143,92.03765a3,3,0,0,0-3-2.99773Z"/>
    </g>
  </g>
</svg>
