<svg id="Layer_1" data-name="Layer 1" xmlns="http://www.w3.org/2000/svg" width="150" height="150" viewBox="0 0 150 150"><path d="M33.32,1.86A17.47,17.47,0,0,1,15.85,19.33V89.05c0,25.24,24.69,41.47,44.23,53.3,6,3.59,13,5.67,15.58,5.67s9.63-2.07,15.58-5.67c19.54-11.83,44.23-28.06,44.23-53.3V1.86Z"/><path d="M75.66,143c-1.47,0-7.65-1.73-13-5-20.22-12.25-41.81-27.15-41.81-49V23.77A22.55,22.55,0,0,0,37.76,6.86h92.71V89.05c0,21.87-21.59,36.77-41.82,49C83.32,141.3,77.13,143,75.66,143Z" fill="#eee"/><rect x="75.66" y="11.86" width="49.81" height="48.5" fill="#191919"/><path d="M75.66,11.86v48.5H25.85V27.44A27.69,27.69,0,0,0,41.43,11.86Z" fill="#d70f17"/><path d="M125.47,60.36V89c0,19.28-20.34,33.21-39.41,44.75a36.77,36.77,0,0,1-10.4,4.2V60.36Z" fill="#d70f17"/><path d="M75.66,60.36V138a36.84,36.84,0,0,1-10.41-4.21C46.19,122.25,25.85,108.32,25.85,89V60.36Z" fill="#191919"/><path d="M75.66,138.5l-.09,0A37.49,37.49,0,0,1,65,134.21C45.81,122.6,25.35,108.58,25.35,89.05V27.1l.32-.12A27.21,27.21,0,0,0,41,11.68l.12-.32H126V89.05c0,19.53-20.47,33.56-39.65,45.17a37,37,0,0,1-10.57,4.26ZM26.35,27.78V89.05c0,19,20.21,32.84,39.15,44.31a36.67,36.67,0,0,0,10.16,4.12,36.25,36.25,0,0,0,10.14-4.11c19-11.48,39.17-25.31,39.17-44.32V12.36H41.77A28.17,28.17,0,0,1,26.35,27.78Z"/><polygon points="113.5 37.89 112.29 41.44 108.27 44.7 92.08 57.8 90.73 55.88 90.73 44.46 90.73 39.29 93.73 36.11 83.11 36.11 85.11 39.29 85.11 44.46 85.11 56.61 75.73 45.73 75.73 45.56 75.66 45.64 75.59 45.56 75.59 45.73 66.21 56.61 66.21 44.46 66.21 39.29 68.21 36.11 57.59 36.11 60.59 39.29 60.59 44.46 60.59 55.88 59.24 57.8 43.05 44.7 39.03 41.44 37.82 37.89 31.14 46.14 36.15 46.33 39.52 49.06 59.74 67.06 59.7 74.67 58.59 77.43 69.21 77.43 66.21 74.26 66.21 67.47 66.21 66.51 75.66 53.75 85.11 66.51 85.11 67.47 85.11 74.26 82.11 77.43 92.73 77.43 91.62 74.67 91.58 67.06 111.8 49.06 115.17 46.33 120.18 46.14 113.5 37.89" fill="#fff"/><path d="M93.46,77.93H81l3.66-3.87V66.67l-9-12.08-9,12.08v7.39l3.66,3.87H57.86l1.34-3.36,0-7.29L39.19,49.43,36,46.82l-5.83-.22L38,36.87l1.45,4.27L59.14,57.08l1-1.36V39.49l-3.66-3.88H69.11l-2.4,3.82V55.27l8.38-9.73.57-.66.57.66,8.38,9.73V39.43l-2.4-3.82H94.89l-3.66,3.88V55.72l1,1.36,19.68-15.94,1.45-4.27,7.88,9.73-5.83.22-3.24,2.63-20,17.83,0,7.29Zm-10.19-1H92l-.87-2.26,0-7.84.17-.15,20.22-18L115,45.83l4.17-.15-5.48-6.77-1,2.83L92,58.53,90.23,56V39.09l2.34-2.48H84l1.59,2.53V58l-10-11.55L65.71,58V39.14l1.59-2.53H58.75l2.34,2.48V56l-1.75,2.5L38.61,41.74l-1-2.83-5.48,6.77,4.17.15,3.5,2.84L60.24,66.83l-.08,8-.83,2.08h8.72l-2.34-2.47V66.34l10-13.43,10,13.43v8.12Z"/></svg>