<?xml version="1.0" encoding="UTF-8" standalone="no"?>
<!DOCTYPE svg PUBLIC "-//W3C//DTD SVG 1.1//EN" "http://www.w3.org/Graphics/SVG/1.1/DTD/svg11.dtd">
<svg width="100%" height="100%" viewBox="0 0 150 150" version="1.1" xmlns="http://www.w3.org/2000/svg" xmlns:xlink="http://www.w3.org/1999/xlink" xml:space="preserve" xmlns:serif="http://www.serif.com/" style="fill-rule:evenodd;clip-rule:evenodd;stroke-linejoin:round;stroke-miterlimit:2;">
    <g transform="matrix(1,0,0,1,-588,-245)">
        <g transform="matrix(1.93109,0,0,1.67541,953.959,28.482)">
            <g id="axis_stalingrad_pilot_fighter_1_icon" transform="matrix(0.507688,0,0,0.585166,-201.693,87.101)">
                <rect x="24" y="72" width="153" height="153" style="fill:none;"/>
                <g transform="matrix(1.67333,0,0,1.67333,-1721.99,-582.922)">
                    <path d="M1088,393.578L1123.46,393.578L1123.46,437.553C1123.46,461.243 1098.98,479.184 1089.6,479.668C1089.54,479.675 1089.48,479.678 1089.43,479.678L1089.01,479.678C1088.96,479.678 1088.9,479.675 1088.85,479.668C1079.46,479.184 1054.98,461.243 1054.98,437.553L1054.98,393.578L1089.01,393.578L1088,393.578Z" style="fill:rgb(127,180,231);"/>
                </g>
                <g transform="matrix(1.02,0,0,1.02,-575.76,-177.9)">
                    <path d="M663.891,391.317L663.877,391.32C670.225,390.978 680.695,386.01 690.923,377.509C706.118,364.88 720.819,344.525 720.819,320.735L720.819,248.592C720.819,247.764 720.147,247.092 719.319,247.092C719.319,247.092 606.962,247.092 606.962,247.092C606.133,247.092 605.462,247.764 605.462,248.592C605.462,248.592 605.462,281.334 605.462,320.735C605.462,344.525 620.162,364.88 635.357,377.509C645.583,386.009 656.051,390.976 662.409,391.321C662.606,391.339 663.369,391.345 663.713,391.333C663.782,391.33 663.842,391.324 663.891,391.317ZM717.819,250.092L717.819,320.735C717.819,343.582 703.598,363.074 689.006,375.202C679.469,383.128 669.793,387.943 663.819,388.319L663.599,388.333L662.575,388.331L662.566,388.326L662.442,388.318C656.466,387.933 646.801,383.12 637.275,375.202C622.682,363.074 608.462,343.582 608.462,320.735C608.462,320.735 608.462,250.092 608.462,250.092L717.819,250.092Z" style="fill:rgb(35,35,35);"/>
                </g>
                <g transform="matrix(1.02,0,0,1.02,-582.678,-183.371)">
                    <path d="M705.652,321.91C705.652,321.91 685.492,354.978 679.403,362.923C674.222,369.684 663.603,372.066 660.549,372.601C660.189,372.66 659.821,372.546 659.558,372.292C659.013,369.705 658.157,357.398 659.717,353.08C661.55,348.004 664.639,341.596 664.639,341.596L684.778,304.589L687.638,298.037L695.742,285.25L707.843,287.512L708.933,285.818L713.854,289.099L713.77,291.723L718.776,298.943L705.652,321.91Z" style="fill:rgb(242,242,242);"/>
                </g>
                <g transform="matrix(1.02,0,0,1.02,-582.678,-183.371)">
                    <path d="M706.632,322.508L706.649,322.48L719.773,299.512C719.992,299.128 719.972,298.652 719.72,298.288L714.713,291.068C714.621,290.935 714.503,290.825 714.369,290.743L714.9,289.575C715.133,289.062 714.96,288.456 714.491,288.144L709.57,284.863C709.314,284.692 709,284.631 708.698,284.694C708.397,284.757 708.134,284.938 707.967,285.197L707.295,286.241C707.295,286.241 695.953,284.121 695.953,284.121C695.492,284.035 695.024,284.239 694.772,284.635L686.668,297.422C686.636,297.472 686.609,297.524 686.585,297.578L683.745,304.084C683.745,304.084 663.63,341.047 663.63,341.047C663.621,341.064 663.612,341.081 663.604,341.098C663.604,341.098 660.487,347.566 658.637,352.69C657.026,357.149 657.872,369.857 658.434,372.529C658.482,372.754 658.596,372.96 658.762,373.12C659.286,373.624 660.017,373.852 660.735,373.734C660.739,373.733 660.743,373.733 660.747,373.732C663.921,373.176 674.93,370.648 680.315,363.621C686.419,355.657 706.632,322.508 706.632,322.508ZM713.079,290.805L713.854,289.099L709.405,286.134L696.149,307.682C695.985,307.949 695.635,308.033 695.368,307.869C695.101,307.704 695.017,307.354 695.182,307.087L707.288,287.408L695.742,285.25L687.638,298.037L684.778,304.589L664.639,341.596C664.639,341.596 661.55,348.004 659.717,353.08C658.157,357.398 659.013,369.705 659.558,372.292C659.821,372.546 660.189,372.66 660.549,372.601C663.603,372.066 674.222,369.684 679.403,362.923C684.868,355.792 701.667,328.425 705.053,322.89C704.764,322.713 704.56,322.413 704.513,322.063L702.806,309.357C702.773,309.11 702.821,308.858 702.943,308.641L712.769,291.16C712.848,291.019 712.954,290.899 713.079,290.805ZM713.77,291.723L703.944,309.204L705.652,321.91L718.776,298.943L713.77,291.723Z" style="fill:rgb(48,48,48);"/>
                </g>
                <g transform="matrix(1.02,0,0,1.02,-582.678,-183.371)">
                    <path d="M661.685,280.428C661.688,280.664 661.801,280.885 661.991,281.026C662.181,281.166 662.425,281.209 662.652,281.141L666.51,279.992C666.669,279.944 666.808,279.845 666.905,279.711L672.71,271.65C672.875,271.421 672.898,271.119 672.769,270.868C672.641,270.617 672.382,270.459 672.1,270.459L669.155,270.459C669.155,270.459 667.569,268.531 667.569,268.531C667.415,268.344 667.18,268.242 666.939,268.258C666.697,268.274 666.478,268.405 666.35,268.611L661.761,275.975C661.685,276.097 661.646,276.237 661.647,276.38L661.685,280.428Z" style="fill:rgb(35,35,35);"/>
                </g>
                <g transform="matrix(1.67333,0,0,1.67333,-1655.05,-582.922)">
                    <path d="M1024.16,399.491C1024.17,399.174 1023.78,398.968 1023.3,398.873C1022.89,398.759 1022.52,398.645 1022,398.652C1021.84,398.709 1021.67,398.625 1021.61,398.466C1021.56,398.307 1021.64,398.131 1021.8,398.074C1022.27,397.697 1022.7,397.487 1023.17,397.316C1023.32,397.262 1023.46,397.255 1023.61,397.23C1023.95,397.175 1024.37,397.325 1024.62,397.614C1024.83,396.917 1025.1,396.736 1025.1,396.736C1025.1,396.593 1025.19,396.477 1025.3,396.477C1025.42,396.477 1025.51,396.593 1025.51,396.736C1025.51,396.736 1025.84,396.919 1026.06,397.62C1026.11,397.602 1026.16,397.604 1026.2,397.572C1026.5,397.307 1026.85,397.107 1027.21,397.166C1027.36,397.191 1027.5,397.198 1027.65,397.252C1028.13,397.423 1028.55,397.633 1029.03,398.01C1029.19,398.067 1029.27,398.243 1029.21,398.402C1029.16,398.561 1028.98,398.645 1028.82,398.588C1028.31,398.581 1027.93,398.695 1027.52,398.809C1027.31,398.868 1026.47,399.05 1026.42,399.571C1026.42,402.298 1026.42,407.737 1026.42,409.346C1026.42,409.717 1026.69,410.034 1027.06,410.093C1027.25,410.123 1027.44,410.146 1027.63,410.164C1028.04,410.203 1028.44,410.198 1028.84,410.182C1029.24,410.166 1029.63,410.109 1029.98,410.04C1030.22,409.993 1030.45,409.943 1030.65,409.872C1030.83,409.807 1031.01,409.766 1031.12,409.659C1031.36,409.46 1031.5,409.138 1031.5,408.8C1031.5,408.377 1031.43,407.941 1031.12,407.709C1030.94,407.618 1030.88,407.4 1030.96,407.223C1031.06,407.046 1031.27,406.976 1031.45,407.067C1032.1,407.273 1032.53,407.905 1032.74,408.612C1032.98,409.376 1032.78,410.198 1032.36,410.793C1032,411.234 1031.41,411.607 1030.65,411.797C1030.14,411.925 1029.56,411.928 1028.95,411.914C1028.01,411.893 1025.59,411.922 1025.31,411.271C1024.91,411.695 1023.6,411.861 1022.8,411.817C1022.53,411.803 1022.02,411.726 1021.73,411.576C1021.58,411.488 1021.45,411.412 1021.34,411.318C1020.95,410.974 1020.97,410.601 1020.93,410.265C1020.88,409.957 1020.91,409.683 1021.02,409.448C1021.14,409.183 1021.29,408.992 1021.38,408.905C1021.39,408.893 1021.4,408.883 1021.41,408.875C1021.38,408.826 1021.37,408.804 1021.42,408.858C1021.43,408.862 1021.42,408.868 1021.41,408.875C1021.46,408.954 1021.56,409.101 1021.56,409.101L1021.43,408.851C1021.48,408.781 1021.58,408.765 1021.65,408.815C1021.72,408.866 1021.74,408.965 1021.68,409.036C1021.68,409.036 1021.49,409.544 1021.75,409.986C1021.78,410.046 1021.85,410.08 1021.91,410.135C1022.04,410.246 1022.22,410.303 1022.47,410.373C1022.7,410.462 1022.91,410.483 1023.1,410.496C1023.43,410.518 1023.71,410.464 1023.94,410.319C1023.94,410.319 1023.94,410.319 1023.94,410.319C1024.08,410.237 1024.16,410.091 1024.16,409.933L1024.16,399.491Z" style="fill:rgb(242,242,242);"/>
                </g>
                <g transform="matrix(1.02,0,0,1.02,-582.678,-183.371)">
                    <path d="M649.533,303.006C649.588,303.159 649.633,303.316 649.666,303.473C650.003,305.068 652.412,306.672 655.478,306.527C658.544,306.383 662.152,305.731 662.947,307.204C663.741,308.678 661.86,319.921 664.715,319.866C667.57,319.81 669.457,317.142 670.538,314.855C671.619,312.569 672.569,305.436 675.163,303.473C677.428,301.76 680.558,301.573 682.323,301.878C682.332,301.869 682.341,301.86 682.35,301.852C682.35,301.852 682.786,301.448 683.374,300.202C683.707,299.495 684.081,298.534 684.449,297.246C684.97,295.417 685.349,294.337 685.823,293.421C686.358,292.385 687.012,291.558 688.142,290.095C689.575,288.24 691.967,286.147 693.738,283.996C694.53,283.034 695.197,282.061 695.583,281.091C695.908,280.275 696.119,279.549 696.267,278.874C696.689,276.948 696.614,275.428 697.211,273.431C697.352,272.96 697.574,272.514 697.847,272.097C697.677,271.386 697.592,270.087 698.466,268.418C699.151,267.111 699.557,266.538 700.089,266.161C700.348,265.72 700.611,265.279 700.864,264.833C701.154,264.323 701.326,263.769 701.404,263.2C701.422,263.066 701.378,262.575 701.507,262.491C701.515,262.486 701.727,263.518 701.738,263.635C701.794,264.202 701.812,264.792 701.776,265.371C701.963,265.294 702.166,265.209 702.388,265.112C704.694,264.102 705.369,261.868 705.369,261.868C705.369,261.868 706.393,265.301 705.369,266.942C704.346,268.583 703.477,269.026 701.191,270.46C698.905,271.894 698.059,272.701 698.059,272.701C698.059,272.701 698.032,272.653 697.994,272.561C697.821,272.872 697.681,273.199 697.586,273.54C697.029,275.538 697.133,277.05 696.749,278.975C696.608,279.677 696.404,280.433 696.083,281.285C695.696,282.311 695.019,283.348 694.205,284.374C692.481,286.549 690.135,288.677 688.742,290.551C687.68,291.98 687.058,292.786 686.561,293.793C686.124,294.68 685.785,295.723 685.317,297.485C684.957,298.842 684.582,299.856 684.246,300.604C683.898,301.378 683.585,301.882 683.362,302.188C685.045,303.027 688.286,306.439 687.266,314.855C686.166,323.929 685.389,327.963 687.266,327.395C689.143,326.827 691.953,324.486 693.166,321.634C694.38,318.782 693.224,317.353 693.166,317.313C692.792,317.052 694.745,318.397 695.695,318.339C699.118,318.129 699.172,318.195 697.754,319.866C696.337,321.536 686.206,334.658 684.953,335.198C683.701,335.739 683.721,336.085 682.999,334.268C677.641,323.455 682.159,315.73 680.19,315.929C678.677,315.987 675.337,319.512 675.704,322.216C675.457,324.992 675.044,329.383 674.083,331.611C673.016,333.34 668.17,333.334 668.188,334.54C670.517,335.781 677.936,341.108 677.117,342.405C675.364,345.299 677.262,352.137 668.043,359.538C662.645,362.641 661.797,363.422 660.005,364.489C658.214,365.557 658.653,367.696 658.653,367.696C658.653,367.696 655.652,367.08 656.337,364.489C657.023,361.899 659.288,361.916 661.269,361.32C663.249,360.724 667.24,356.989 668.043,355.095C668.847,353.2 672.406,344.67 671.558,342.502C670.711,340.334 663.132,339.464 661.768,337.893C660.404,336.323 661.437,333.014 660.005,331.874C658.574,330.734 656.366,330.375 656.366,330.375C656.366,330.375 655.533,333.381 654.574,334.392C653.615,335.404 653.39,333.88 653.39,333.88C653.413,333.389 653.245,333.797 653.093,333.439C652.977,333.166 653.505,331.57 653.39,331.336C653.301,331.153 652.611,331.514 652.569,331.336C652.406,330.641 652.024,329.905 651.653,329.405C651.568,329.304 651.437,329.256 651.308,329.278C651.179,329.3 651.071,329.389 651.025,329.512C650.575,330.402 649.622,332.04 649.498,331.201C649.19,329.099 649.1,325.525 649.273,324.902C649.306,324.782 649.339,324.856 649.23,324.771C648.502,324.198 645.781,321.841 647.106,319.572C648.629,316.966 654.039,315.394 654.535,317.313C655.031,319.231 654.806,322.778 657.041,322.745C659.581,322.952 659.1,322.987 659.38,322.727C660.923,321.288 661.326,312.21 660.005,310.858C658.684,309.505 650.332,306.527 650.332,306.527C650.332,306.527 648.33,307.228 646.836,307.371L638.486,320.887L641.595,324.42C642.044,324.933 642.297,325.563 642.342,326.208C642.387,326.851 642.23,327.51 641.858,328.079C640.573,330.023 638.32,333.534 636.286,336.515C635.89,337.095 635.496,337.649 635.119,338.169C633.525,340.369 632.293,341.961 632.293,341.961C632.259,342.013 632.189,342.028 632.137,341.994C632.084,341.961 632.069,341.89 632.103,341.838C632.103,341.838 633.044,340.059 634.39,337.699C634.708,337.141 635.05,336.554 635.415,335.954C637.291,332.871 639.56,329.37 640.801,327.397C641.013,327.063 641.099,326.679 641.069,326.304C641.039,325.932 640.889,325.569 640.627,325.275L637.767,322.05L637.58,322.353L634.135,328.449C634.071,328.563 633.971,328.652 633.85,328.702C633.85,328.702 630.586,329.994 630.586,329.994L630.497,333.81C630.497,333.994 630.378,334.156 630.203,334.212C630.203,334.212 627.624,334.956 627.624,334.956L627.552,337.047C627.552,337.104 627.534,337.159 627.5,337.204L625.133,340.193C625.087,340.255 624.999,340.268 624.936,340.222C624.874,340.176 624.861,340.088 624.907,340.026C624.907,340.026 627.022,336.969 627.022,336.969L626.944,334.694C626.944,334.544 627.041,334.411 627.184,334.365C627.184,334.365 629.646,333.512 629.646,333.512L629.556,329.638C629.556,329.428 629.683,329.239 629.877,329.159C629.877,329.159 633.219,327.718 633.219,327.718L636.488,321.727L636.727,321.332L633.055,319.872C632.684,319.723 632.286,319.708 631.921,319.811C631.555,319.915 631.222,320.135 630.983,320.458C630.008,321.77 628.519,323.794 626.986,325.834C626.063,327.062 625.15,328.315 624.285,329.391C623.729,330.083 623.191,330.692 622.732,331.22C621.772,332.325 621.135,333.016 621.135,333.016C621.098,333.066 621.028,333.077 620.977,333.04C620.927,333.003 620.916,332.932 620.953,332.882C620.953,332.882 621.42,332.066 622.185,330.818C622.55,330.222 622.968,329.526 623.461,328.787C624.227,327.639 625.146,326.39 626.04,325.14C627.523,323.064 629.005,321.035 629.963,319.71C630.368,319.151 630.939,318.766 631.567,318.581C632.197,318.397 632.886,318.417 633.53,318.669L637.415,320.199L645.359,307.119C644.548,306.316 645.448,303.704 646.605,302.038C647.281,301.064 648.058,301.136 648.669,301.668L662.454,278.971C662.69,278.585 663.196,278.463 663.582,278.7C663.968,278.936 664.089,279.442 663.853,279.828L649.533,303.006Z" style="fill:rgb(142,20,0);"/>
                </g>
                <g transform="matrix(1.02,0,0,1.02,-575.76,-177.9)">
                    <path d="M690.627,266.511C690.495,265.697 690.528,264.434 691.344,262.877C692.044,261.541 692.483,260.935 693.017,260.535C693.262,260.118 693.509,259.702 693.748,259.28C694.013,258.813 694.17,258.306 694.242,257.784C694.255,257.688 694.238,257.412 694.271,257.225C694.308,257.017 694.412,256.873 694.515,256.806C694.595,256.754 694.682,256.735 694.775,256.747C694.841,256.755 694.943,256.78 695.031,256.895C695.038,256.904 695.08,256.958 695.106,257.064C695.148,257.236 695.327,258.123 695.338,258.233C695.376,258.622 695.397,259.022 695.396,259.421L695.452,259.397C697.59,258.461 698.22,256.393 698.22,256.393C698.269,256.231 698.419,256.12 698.588,256.121C698.757,256.121 698.907,256.232 698.955,256.395C698.955,256.395 699.336,257.673 699.413,259.063C699.466,260.04 699.36,261.066 698.913,261.782C697.857,263.474 696.971,263.943 694.613,265.422C692.373,266.827 691.542,267.615 691.542,267.615C691.48,267.674 691.33,268.148 691.284,268.315C690.746,270.305 690.865,271.807 690.497,273.723C690.357,274.452 690.149,275.238 689.823,276.124C689.425,277.203 688.725,278.296 687.879,279.379C686.177,281.561 683.853,283.7 682.478,285.579C681.458,286.972 680.86,287.756 680.385,288.736C679.97,289.595 679.657,290.606 679.219,292.31C678.857,293.718 678.472,294.77 678.131,295.547C678.017,295.806 677.905,296.038 677.798,296.245C679.797,297.703 682.605,301.533 681.624,309.63C681.079,314.128 680.611,317.377 680.515,319.431C680.492,319.914 680.528,320.437 680.562,320.781C682.19,320.094 684.342,318.136 685.327,315.821C686.059,314.102 685.612,312.918 685.529,312.726C684.647,311.834 686.536,310.783 686.595,310.797C686.637,310.806 686.736,310.828 686.873,310.9C686.903,310.916 687.486,311.297 688.126,311.587C688.385,311.704 688.644,311.841 688.842,311.829C689.233,311.805 689.585,311.787 689.9,311.774L692.477,308.356C692.531,308.285 692.623,308.257 692.707,308.286C695.224,309.164 696.349,312.38 696.213,314.469C696.207,314.563 696.138,314.64 696.045,314.656L691.725,315.392C690.295,317.122 683.888,325.377 680.706,328.956C679.713,330.072 678.929,330.758 678.626,330.889C678.117,331.109 677.783,331.289 677.535,331.355C677.207,331.444 676.924,331.432 676.664,331.353C676.403,331.275 676.145,331.126 675.903,330.833C675.708,330.596 675.479,330.152 675.17,329.379C671.838,322.632 672.187,317.043 672.563,313.692C672.624,313.148 672.677,312.567 672.715,312.105C672.444,312.3 672.165,312.546 671.892,312.826C670.876,313.87 669.881,315.383 670.06,316.698C670.071,316.783 670.073,316.869 670.066,316.955C669.81,319.835 669.352,324.39 668.355,326.702C668.333,326.753 668.307,326.803 668.278,326.851C667.916,327.437 667.276,327.92 666.468,328.282C665.609,328.666 664.541,328.93 663.626,329.186C666.043,330.774 669.59,333.463 670.862,335.155C671.219,335.629 671.426,336.065 671.502,336.412C671.608,336.896 671.522,337.306 671.308,337.652C670.849,338.422 670.71,339.512 670.474,340.823C669.819,344.47 668.762,349.625 661.98,355.07C661.934,355.107 661.885,355.141 661.833,355.17C656.445,358.267 655.599,359.047 653.811,360.112C652.704,360.772 652.996,362.101 652.996,362.101C653.073,362.48 652.956,362.872 652.683,363.145C652.465,363.362 652.172,363.481 651.871,363.481L651.67,363.463L651.513,363.424C650.822,363.23 647.573,362.128 648.445,358.832C648.983,356.803 650.241,355.978 651.738,355.492C652.509,355.241 653.355,355.098 654.156,354.857C655.036,354.592 656.339,353.595 657.535,352.488C658.742,351.372 659.844,350.132 660.204,349.283C660.755,347.983 662.635,343.495 663.426,340.19C663.583,339.531 663.697,338.923 663.74,338.405C663.769,338.052 663.786,337.759 663.707,337.557C663.614,337.319 663.325,337.164 662.993,336.974C662.442,336.659 661.738,336.381 660.979,336.116C659.203,335.498 657.151,334.965 655.793,334.375C655.026,334.041 654.447,333.661 654.119,333.283C653.288,332.327 653.096,330.868 652.985,329.448C652.945,328.934 652.908,328.43 652.798,327.994C652.738,327.76 652.677,327.543 652.508,327.408C651.848,326.883 650.994,326.557 650.348,326.367C650.07,327.161 649.647,328.249 649.17,329.061C649.06,329.381 648.823,329.702 648.711,329.978C648.013,331.718 646.543,333.259 644.973,334.315C644.514,334.624 643.385,335.513 642.805,335.211C642.542,335.074 642.604,334.751 642.477,334.492C642.196,333.918 643.648,333.458 644.03,333.138C645.074,332.264 645.393,330.193 645.398,328.798C645.347,328.721 645.299,328.631 645.254,328.525C645.186,328.366 645.118,328.073 645.162,327.687C645.179,327.53 645.224,327.283 645.274,327.029C644.947,326.869 644.753,326.593 644.669,326.235C644.642,326.12 644.607,326.005 644.567,325.89C644.336,326.25 644.1,326.573 643.906,326.759C643.559,327.092 643.199,327.202 642.944,327.216C642.586,327.236 642.269,327.126 641.999,326.867C641.837,326.711 641.646,326.453 641.58,326.004C641.307,324.144 641.201,321.177 641.285,319.926C640.746,319.446 639.995,318.685 639.478,317.781C639.129,317.171 638.885,316.507 638.826,315.818C638.715,315.311 638.653,314.709 638.559,314.481C637.896,312.866 638.26,310.838 638.668,309.149C638.799,308.61 638.94,308.073 639.071,307.534C639.091,307.453 639.376,306.031 639.564,305.456C639.615,305.303 639.669,305.199 639.705,305.16C639.753,305.107 639.805,305.089 639.846,305.084C639.923,305.074 640.072,305.111 640.105,305.32C640.139,305.535 640.086,306.202 640.022,306.828C639.961,307.413 639.891,307.959 639.895,308.006C639.929,308.382 639.837,309.167 639.881,309.83C639.894,310.033 639.92,310.224 639.97,310.384C640.008,310.505 640.056,310.607 640.131,310.674C640.15,310.648 640.179,310.606 640.193,310.576C640.22,310.519 640.239,310.461 640.251,310.422C640.433,309.838 640.636,309.263 640.82,308.68C640.833,308.639 640.852,308.508 640.884,308.385C640.912,308.274 640.952,308.168 640.996,308.105C641.068,308.003 641.161,307.966 641.252,307.975C641.342,307.984 641.431,308.025 641.513,308.102C641.596,308.18 641.676,308.301 641.746,308.452C641.978,308.951 642.123,309.796 642.148,310.041C642.155,310.107 642.144,310.248 642.149,310.384C642.185,310.33 642.221,310.268 642.256,310.203C642.402,309.936 642.534,309.621 642.574,309.547C643.055,308.664 643.479,307.782 643.803,306.828C643.863,306.65 644.248,305.851 644.545,305.333C644.688,305.084 644.82,304.898 644.889,304.844C644.952,304.796 645.009,304.79 645.05,304.793C645.11,304.798 645.161,304.823 645.201,304.874C645.227,304.907 645.263,304.989 645.249,305.114C645.218,305.405 644.956,306.237 644.907,306.46C645.086,307.171 645.248,307.901 645.277,308.636C645.28,308.71 645.25,308.937 645.251,309.12C645.251,309.13 645.252,309.141 645.252,309.152L645.254,309.151C645.306,309.12 645.361,309.074 645.419,309.018C645.675,308.773 645.973,308.36 646.245,308.007C646.477,307.705 646.696,307.446 646.854,307.339C646.993,307.245 647.118,307.243 647.209,307.286C647.378,307.367 647.472,307.56 647.46,307.845C647.443,308.281 647.189,308.99 647.074,309.532C647.045,309.669 647.025,309.794 647.025,309.898C647.025,309.941 647.028,309.98 647.037,310.012C647.04,310.021 647.037,310.031 647.044,310.034C647.08,310.049 647.13,310.033 647.2,310.01C647.748,309.828 648.245,309.457 648.57,308.98C648.679,308.819 648.769,308.644 648.863,308.474C648.87,308.461 649.419,307.357 649.536,307.151C649.591,307.053 649.663,307.029 649.672,307.026C649.725,307.009 649.771,307.017 649.809,307.033C649.85,307.05 649.889,307.081 649.913,307.134C649.932,307.175 649.945,307.239 649.939,307.324C649.932,307.431 649.893,307.596 649.836,307.789C649.713,308.202 649.504,308.758 649.387,309.115C649.345,309.244 649.313,309.34 649.31,309.385C649.253,310.459 649.073,311.487 649.073,312.57C649.073,312.603 649.073,312.669 649.07,312.755C649.184,313.523 649.278,314.372 649.467,315.114C649.548,315.436 649.645,315.734 649.795,315.97C649.894,316.126 650.029,316.236 650.241,316.233C650.278,316.232 650.315,316.234 650.352,316.237C651.069,316.295 651.613,316.341 651.938,316.369C652.127,316.073 652.247,315.565 652.384,314.964C652.714,313.519 652.882,311.587 652.87,309.85C652.862,308.727 652.781,307.688 652.608,306.929C652.543,306.645 652.511,306.409 652.402,306.297C652.059,305.946 651.149,305.502 650.071,305.006C647.723,303.924 644.593,302.764 643.533,302.378C642.86,302.592 641.454,303.008 640.292,303.138C639.316,303.247 638.475,303.099 638.022,302.783C637.457,302.389 637.108,301.686 637.117,300.74C637.129,299.409 637.908,297.419 638.88,296.019C639.513,295.108 640.247,294.796 640.91,294.772C641.548,294.75 642.187,295.011 642.728,295.517C643.331,296.081 643.817,296.97 644.007,297.873C644.093,298.279 644.428,298.658 644.879,298.995C645.764,299.656 647.107,300.089 648.642,300.017C650.886,299.911 653.409,299.573 655.005,299.891C656.055,300.101 656.793,300.586 657.175,301.296C657.388,301.69 657.529,302.624 657.528,303.867C657.527,306.1 657.252,309.591 657.579,311.91C657.645,312.379 657.733,312.791 657.868,313.114C657.901,313.193 657.964,313.294 658.001,313.351C659.078,313.302 659.965,312.752 660.7,312.02C661.569,311.154 662.231,310.032 662.718,309.001C663.356,307.651 663.937,304.582 664.859,301.929C665.57,299.884 666.509,298.086 667.688,297.194C670.124,295.351 673.444,295.077 675.486,295.35C675.662,295.063 675.883,294.652 676.13,294.084C676.402,293.462 676.694,292.677 676.983,291.694C677.536,289.807 677.938,288.695 678.434,287.751C678.993,286.688 679.667,285.837 680.842,284.34C682.293,282.49 684.707,280.408 686.499,278.264C687.258,277.356 687.906,276.443 688.279,275.526C688.597,274.743 688.807,274.048 688.954,273.4C689.394,271.464 689.332,269.934 689.948,267.929C690.102,267.429 690.337,266.954 690.627,266.511ZM690.433,315.161C690.433,315.161 688.968,312.972 688.913,312.975C687.963,313.033 686.01,311.689 686.384,311.949C686.442,311.989 687.597,313.419 686.384,316.271C685.171,319.123 682.361,321.463 680.484,322.031C678.607,322.599 679.384,318.565 680.484,309.492C681.583,300.418 677.731,297.161 676.217,296.675C674.704,296.188 670.975,296.147 668.381,298.11C665.787,300.073 664.837,307.205 663.756,309.492C663.117,310.844 662.195,312.33 660.959,313.33C660.017,314.362 659.1,315.193 658.188,315.833C657.433,316.363 656.685,316.769 655.942,317.055C655.102,317.379 654.269,317.553 653.448,317.612C652.579,317.675 651.722,317.605 650.87,317.433C650.688,317.417 650.486,317.4 650.258,317.381C648.385,317.409 648.24,314.921 647.95,312.985C647.785,312.663 647.609,312.299 647.393,311.969C647.167,311.778 646.975,311.608 646.798,311.492C646.659,311.401 646.537,311.342 646.41,311.365C646.327,311.38 646.246,311.43 646.158,311.513C646.045,311.62 645.927,311.776 645.797,311.99C645.795,311.992 645.794,311.995 645.792,311.997C645.617,312.258 645.56,312.367 645.433,312.448C645.348,312.503 645.229,312.545 645.012,312.599C644.76,312.662 644.563,312.556 644.392,312.43C644.353,312.402 644.316,312.373 644.279,312.348C644.253,312.331 644.23,312.312 644.204,312.31C644.191,312.309 644.183,312.323 644.169,312.337C644.135,312.369 644.1,312.417 644.062,312.481C643.96,312.653 643.844,312.926 643.703,313.344C643.661,313.47 643.586,313.536 643.503,313.567C643.407,313.605 643.274,313.592 643.127,313.51C642.981,313.429 642.801,313.273 642.624,313.114C642.498,313.001 642.374,312.888 642.265,312.81C642.252,312.8 642.238,312.791 642.224,312.783C642.2,313.102 642.188,314.079 642.113,314.535C642.093,314.654 642.066,314.744 642.04,314.796C642.007,314.859 641.965,314.896 641.929,314.915C641.874,314.945 641.811,314.954 641.74,314.923C641.701,314.906 641.626,314.842 641.558,314.721C641.457,314.543 641.307,314.201 641.165,313.918C641.098,313.783 640.993,313.622 640.961,313.573C640.873,313.569 640.803,313.61 640.745,313.679C640.646,313.797 640.578,313.977 640.522,314.182C640.408,314.602 640.356,315.126 640.297,315.55C640.253,315.864 640.202,316.128 640.132,316.277C640.121,316.299 640.108,316.318 640.092,316.334C640.313,317.079 640.793,317.763 641.277,318.306C641.479,318.17 641.652,318.028 641.822,317.888C642.005,317.738 642.164,317.584 642.321,317.437C642.433,317.332 642.537,317.226 642.645,317.128C642.822,316.968 642.997,316.822 643.165,316.677C643.456,316.425 643.734,316.203 644.017,315.991C644.123,315.887 644.294,315.888 644.398,315.994C644.503,316.1 644.501,316.271 644.395,316.375C644.174,316.661 643.982,316.971 643.743,317.285C643.728,317.304 643.714,317.323 643.699,317.341C643.857,317.387 644,317.473 644.126,317.566C644.326,317.715 644.395,317.953 644.441,318.201C644.487,318.523 644.321,318.813 644.087,319.044C643.898,319.231 643.614,319.321 643.309,319.343C643.003,319.327 642.717,319.236 642.525,319.051C642.37,318.901 642.246,318.724 642.191,318.529C642.033,318.603 641.866,318.672 641.688,318.737C641.988,319.031 642.257,319.256 642.429,319.392C642.449,319.407 642.509,319.43 642.521,319.462C642.531,319.487 642.496,319.524 642.491,319.539C642.318,320.16 642.408,323.736 642.716,325.838C642.839,326.677 643.793,325.038 644.243,324.149C644.289,324.026 644.396,323.937 644.526,323.915C644.655,323.892 644.786,323.941 644.87,324.041C645.22,324.512 645.579,325.191 645.756,325.849C646.145,325.757 646.415,325.604 646.628,325.362C647.009,324.931 647.262,324.323 647.683,323.56C647.764,323.388 647.969,323.315 648.141,323.396C648.313,323.477 648.387,323.682 648.306,323.854C647.953,324.743 647.745,325.432 647.39,325.954C647.171,326.276 646.897,326.533 646.519,326.737C646.403,327.273 646.241,327.912 646.31,328.075C646.463,328.433 646.631,328.026 646.608,328.516C646.608,328.516 646.647,328.78 646.762,329.016C647.132,328.992 647.51,328.911 647.758,328.828C647.787,328.818 647.884,328.791 648.014,328.757C648.876,327.564 649.584,325.011 649.584,325.011C649.584,325.011 651.792,325.37 653.223,326.51C654.654,327.65 653.622,330.959 654.986,332.53C656.349,334.1 663.929,334.97 664.776,337.139C665.624,339.307 662.064,347.837 661.261,349.731C660.458,351.626 656.467,355.361 654.487,355.956C652.506,356.552 650.241,356.536 649.555,359.126C648.869,361.716 651.871,362.333 651.871,362.333C651.871,362.333 651.431,360.194 653.223,359.126C655.015,358.058 655.862,357.277 661.261,354.175C670.48,346.774 668.582,339.936 670.335,337.042C671.154,335.745 663.735,330.418 661.406,329.177C661.388,327.971 666.234,327.977 667.301,326.248C668.261,324.02 668.675,319.628 668.922,316.853C668.555,314.149 671.895,310.624 673.407,310.565C675.377,310.366 670.859,318.091 676.217,328.905C676.939,330.722 676.919,330.375 678.171,329.835C679.317,329.34 687.896,318.313 690.433,315.161ZM643.309,317.691C643.637,317.691 643.903,317.919 643.903,318.201C643.903,318.483 643.637,318.712 643.309,318.712C642.981,318.712 642.715,318.483 642.715,318.201C642.715,317.919 642.981,317.691 643.309,317.691ZM658.661,314.43C658.425,314.473 658.183,314.497 657.933,314.502C655.078,314.558 656.959,303.314 656.165,301.841C655.37,300.367 651.762,301.019 648.696,301.164C645.63,301.308 643.22,299.704 642.884,298.11C642.547,296.515 641.025,294.944 639.823,296.675C638.621,298.405 637.696,301.156 638.679,301.841C639.661,302.525 643.55,301.164 643.55,301.164C643.55,301.164 651.902,304.142 653.223,305.494C654.417,306.716 654.203,314.246 653.012,316.748C653.131,316.738 653.249,316.726 653.369,316.711C654.111,316.62 654.856,316.427 655.618,316.133C656.305,315.868 657.006,315.523 657.725,315.069C658.033,314.874 658.345,314.662 658.661,314.43ZM670.078,300.265C670.313,299.853 670.611,299.46 670.941,299.078C671.146,298.841 671.372,298.621 671.606,298.403C671.886,298.142 672.179,297.888 672.518,297.676C672.843,297.473 673.188,297.286 673.585,297.16C673.777,297.118 673.898,296.929 673.856,296.737C673.814,296.546 673.624,296.424 673.433,296.466C672.838,296.544 672.301,296.716 671.817,296.968C671.473,297.147 671.159,297.366 670.883,297.621C670.604,297.88 670.365,298.175 670.16,298.485C669.846,298.959 669.614,299.465 669.433,299.966C669.351,300.144 669.428,300.355 669.606,300.438C669.784,300.52 669.996,300.442 670.078,300.265ZM691.256,267.295C691.2,267.028 691.119,266.775 691.034,266.592C690.888,265.856 690.866,264.617 691.684,263.055C692.369,261.747 692.775,261.175 693.307,260.798C693.566,260.356 693.829,259.916 694.082,259.469C694.372,258.959 694.544,258.406 694.622,257.837C694.64,257.703 694.596,257.211 694.725,257.127C694.732,257.122 694.945,258.154 694.956,258.271C695.012,258.838 695.029,259.429 694.994,260.008C695.181,259.931 695.384,259.846 695.606,259.748C697.912,258.739 698.587,256.504 698.587,256.504C698.587,256.504 699.611,259.938 698.587,261.579C697.564,263.22 696.695,263.663 694.409,265.096C692.123,266.53 691.277,267.337 691.277,267.337C691.277,267.337 691.269,267.323 691.256,267.295Z" style="fill:rgb(35,35,35);"/>
                </g>
            </g>
        </g>
    </g>
</svg>
