<svg xmlns="http://www.w3.org/2000/svg" width="150" height="150" viewBox="0 0 150 150">
  <defs>
    <style>
      .cls-1 {
        fill: #151515;
      }

      .cls-1, .cls-2, .cls-3, .cls-4 {
        fill-rule: evenodd;
      }

      .cls-2 {
        fill: #fff;
      }

      .cls-3 {
        fill: #edc222;
      }

      .cls-4 {
        fill: #86081f;
      }
    </style>
  </defs>
  <g id="Layer_3" data-name="Layer 3">
    <g>
      <path class="cls-1" d="M74.34692,66.8522c-.71894-3.64183-3.04323-7.028-3.52707-10.47126a8.05568,8.05568,0,0,1,1.66507-6.30447c1.48477-1.92095,3.91112-3.59985,7.358-5.2205a2.50237,2.50237,0,0,1,3.56412,2.33737L82.90663,65.235a2.5067,2.5067,0,0,1-1.70855,2.30712l-3.60417,1.20272a2.50062,2.50062,0,0,1-3.247-1.89259Z"/>
      <path class="cls-2" d="M76.80314,66.3662c-1.60194-8.11877-9.11045-13.03065,4.10427-19.24472l-.50046,18.042L76.80314,66.3662Z"/>
      <path class="cls-1" d="M83.31675,68.18882l-4.45657-.23563c-1.37628-.07-1.42314.29084-1.35624-1.08585a82.0362,82.0362,0,0,0-.2854-16.48527c.12173-10.89184,17.76805-13.89865,27.90248-12.01929,5.08745.94212,7.34483,3.90393,6.50756,8.26929-.71592,3.73184-3.4957,6.97958-7.97909,8.80219-5.99008,2.43723-14.31582.57452-16.83515,2.7345-1.36344,1.16415-1.52522,4.06431-.42412,8.07376.43734,1.64221-1.37627,2.0382-3.07347,1.9463Z"/>
      <path class="cls-2" d="M78.6417,66.54169A54.90426,54.90426,0,0,0,79.71786,50.516c.58249-9.98488,14.76638-12.15318,24.90269-10.27421,8.2044,1.52042,6.09669,9.61234-1.91189,12.87028-5.30289,2.157-12.81442.20045-16.26817,3.15734-2.06082,1.764-3.91943,6.57527-2.72987,10.08321l-5.06892.18911Z"/>
      <path class="cls-1" d="M73.71114,68.80871c3.21862-6.826,13.27972-5.97429,14.26591.25038,7.75874-9.7727,13.76545-6.64032,13.51522-3.25756,3.12828-4.25985,9.7606-4.385,11.38749.75188,4.67353-4.56732,10.887-1.87935,11.26274,2.882,7.27452-.59985,10.07772,2.63919,10.38654,8.01816,5.37246,1.17134,6.41534,8.68041,7.13278,16.66378,7.13314,2.2553,5.75648,9.52232,5.8816,18.04238-3.03833-6.876-10.26068-7.61083-8.99514-15.59608-8.86626-2.725-10.30454,2.41225-14.80986-1.72239-2.04193,2.402-8.37751,3.73336-10.3582-1.09948-3.91414,1.017-6.86742-.58623-7.21782-2.84152-2.30274,1.60363-7.06964,1.17587-10.3015-3.298-2.62291,2.132-5.4212,1.27988-8.2592-.25038C83.841,91.1355,73.30744,91.95926,73.29911,82.30343a28.91566,28.91566,0,0,0,.412-13.49472Z"/>
      <path class="cls-1" d="M5.87233,83.20547a2.6647,2.6647,0,0,0,3.21863.74659c7.90388,10.38125,19.04454,14.83965,33.67068,18.37785.4071.13389,1.52861.25265.88791-.09-4.525-2.2587-4.45165-3.52837-2.92152-3.36952,18.03831,1.87784,35.29568-5.9323,33.90428-24.75418-.44037-17.82679-15.91625-22.85856-32.08726-21.84948C21.45821,53.58328-7.62928,70.43731,5.87233,83.20547Z"/>
      <path class="cls-3" d="M9.20625,82.48081c16.22809,22.47543,66.22362,20.67286,64.01122-8.14411-.41239-15.9724-14.81816-20.48148-29.87183-19.57755C23.71408,55.93881.15289,68.0901,9.20625,82.48081Z"/>
      <path class="cls-1" d="M17.32332,80.98043C29.91925,98.98082,68.719,97.53566,67.00059,74.46c-.31866-12.79161-11.49975-16.40167-23.18094-15.67777-15.2385.94365-33.524,10.67625-26.49633,22.1982Z"/>
      <path class="cls-2" d="M51.99039,65.56627a9.49888,9.49888,0,1,1-9.4873,9.49888,9.49828,9.49828,0,0,1,9.4873-9.49888Z"/>
      <path class="cls-4" d="M33.83528,64.05228C22.35406,71.8159,22.56082,79.80569,32.08819,87.97174c-16.55846-7.61612-17.11411-16.826,1.74709-23.91946Z"/>
      <path class="cls-3" d="M76.60091,71.679V82.70623a3.30608,3.30608,0,0,0,3.30178,3.30635h1.40653a3.30617,3.30617,0,0,0,3.30217-3.30635V71.679a3.30609,3.30609,0,0,0-3.30217-3.306H79.90269a3.306,3.306,0,0,0-3.30178,3.306Z"/>
      <path class="cls-3" d="M88.53422,75.38058c.62595-4.30674,3.611-9.12142,7.97721-9.08473,5.17928.04349,1.56528,6.23488,1.01643,8.61536-.70421,3.05371-.3489,6.48866-.41541,7.93-.13193,2.79653-3.30709,2.57452-4.43352,2.5628-4.77671-.05333-4.86707-5.04691-4.14471-10.02346Z"/>
      <path class="cls-3" d="M99.405,75.63133c.62369-4.30673,3.9043-8.76891,7.65326-8.92777,5.16077-.21671,1.72026,6.23337,1.1714,8.61385a43.31535,43.31535,0,0,0-.70231,8.06507c-.13191,2.79651-1.405,4.93532-3.98293,4.85628C98.7775,88.095,98.68226,80.60751,99.405,75.63133Z"/>
      <path class="cls-3" d="M108.8972,90.42748c-2.42937-.36951-.62256-2.92208.04989-4.61611.67094-1.69062.93591-5.70122.93932-7.44024.00491-2.10515,1.01114-7.14676,2.81493-8.77043,3.12829-2.81847,7.51832-2.28405,8.93657.33358,1.38988,2.56619-3.26853,7.10325-4.23469,9.26173-.73255,1.63578-.57418,2.91528-.65241,4.5991a10.09668,10.09668,0,0,1-2.40594,5.461,6.29251,6.29251,0,0,1-4.45846,1.253,5.834,5.834,0,0,1-.98921-.0817Z"/>
      <path class="cls-3" d="M118.78291,82.22967c-.07145-2.10779,1.85217-5.50756,3.39061-7.37368a6.1281,6.1281,0,0,1,5.9916-2.39524c1.73879.30371,4.02792,2.58246,3.95762,3.52308-.13986,1.86422-2.85122,2.05106-4.39307,4.27837a27.54949,27.54949,0,0,0-5.044,12.39222c-.30012,2.69591-5.79467,2.30522-6.19836-.18722-.44075-2.71975,2.41236-6.86952,2.29557-10.23753Z"/>
      <path class="cls-3" d="M130.67955,80.11848c1.66846-1.54728,4.18629-.49471,5.28589,1.87934,1.78715,3.86045,3.32029,7.08473,3.96441,11.51174.10167,1.278-.20866,1.62859-2.10884.40772-3.03-1.94782-6.58732-2.02459-10.11137-1.77081-1.92551.32413-2.01207-1.07942-1.60195-2.94365,1.08636-3.48639,2.15911-6.84947,4.57186-9.08434Z"/>
      <path class="cls-3" d="M140.15021,97.46531c-1.752,2.60591,3.75426,4.96143,6.45729,11.12633-.20033-8.36952-4.46185-14.09494-6.45729-11.12633Z"/>
    </g>
  </g>
</svg>
