<svg id="_axis_tunisia_pilot_assaulter_1_icon" data-name=" axis_tunisia_pilot_assaulter_1_icon" xmlns="http://www.w3.org/2000/svg" width="150" height="150" viewBox="0 0 150 150">
  <defs>
    <style>
      .cls-1 {
        fill: #eee;
      }

      .cls-1, .cls-2, .cls-3 {
        fill-rule: evenodd;
      }

      .cls-2 {
        fill: #151515;
      }

      .cls-3 {
        fill: #be0e0e;
      }
    </style>
  </defs>
  <path id="Shape_267_copy_6" data-name="Shape 267 copy 6" class="cls-1" d="M75,146.919h0A56.894,56.894,0,0,1,18.106,90.025V3.081H131.894V90.025A56.894,56.894,0,0,1,75,146.919Z"/>
  <path id="Shape_267_copy_7" data-name="Shape 267 copy 7" class="cls-2" d="M75,147.919A57.96,57.96,0,0,1,17.106,90.025V2.081H132.894V90.025A57.959,57.959,0,0,1,75,147.919ZM19.106,4.081V90.025A55.957,55.957,0,0,0,75,145.919h0a55.956,55.956,0,0,0,55.894-55.894V4.081H19.106Z"/>
  <path class="cls-3" d="M36.356,63.649c3.023,1.512,9.207-1.1,8.52-6.047s-6.6-8.383-6.6-8.383l-1.512,3.436s-6.871-5.5-11.132-21.3a37.936,37.936,0,0,0,.687,17.728C29.073,58.014,33.333,62.137,36.356,63.649ZM63.841,32.316l-4.26-.138a19.108,19.108,0,0,0,4.4,9.208c3.71,4.123,9.207-.412,10.169-3.848s-0.687-7.558-9.482-15.392-18.278-5.909-18.278-5.909A33.88,33.88,0,0,1,63.841,32.316ZM53.035,53.429c1.345,1.694,4.073,1.767,6.095.163s2.57-4.278,1.225-5.972A3.814,3.814,0,0,0,56.6,46.381a57.8,57.8,0,0,1-1.969-6.37,8.689,8.689,0,0,0-1.512,5.634c-4.947-.687-7.009,1.924-7.009,1.924,1.6,0.073,4.265,1.218,6.429,2.283A3.732,3.732,0,0,0,53.035,53.429Zm10.848,6.853c2.877-2.283,4.283-5.3,3.142-6.737s-4.4-.753-7.275,1.53-4.283,5.3-3.142,6.737S61.007,62.565,63.883,60.282Zm5.273,5.9c3.583-2.843,5.5-6.4,4.274-7.937s-5.117-.484-8.7,2.36-5.5,6.4-4.274,7.937S65.573,69.029,69.156,66.186Zm11.559-2.229c-1.44-1.815-6.19-.444-10.607,3.062s-6.831,7.82-5.391,9.635,6.19,0.444,10.607-3.062S82.155,65.772,80.715,63.957Zm5.557,7.694c-1.337-1.684-5.6-.523-9.531,2.594s-6.027,7.008-4.69,8.693,5.6,0.523,9.531-2.594S87.608,73.336,86.271,71.651ZM125,37.125c-3.243-4.1-12.094-4.672-15.8.962-0.093.141-.18,0.283-0.266,0.425-2.083,2.672-3.1,6.977-2.987,12.788,0.1,4.984,2.606,15.073,4.436,22.44,0.727,2.928,1.355,5.456,1.63,6.874,1.107,5.689,1.656,11.716-1.784,17.245a7.906,7.906,0,0,1-5.806,3.946c-2.952.359-6.2-.951-8.918-3.595a68.774,68.774,0,0,1-8.619-11.194c2.039-1.846,2.792-4.343,1.667-5.76-1.2-1.511-4.08-1.222-6.433.646s-3.29,4.607-2.09,6.119c0.984,1.239,3.1,1.266,5.124.206a69.791,69.791,0,0,0,8.882,11.494,13.8,13.8,0,0,0,9.419,4.25,9.8,9.8,0,0,0,8.564-5c3.835-6.163,3.195-12.942,2.064-18.76-0.286-1.471-.92-4.023-1.654-6.979-1.806-7.271-4.279-17.227-4.374-21.975a30.3,30.3,0,0,1,.483-6.42c1.425-3.4,4.394-5.327,8.908-5.515a10.869,10.869,0,0,1,9.62,5.085A10.483,10.483,0,0,0,125,37.125ZM66.246,51.28a1.168,1.168,0,1,0,1.168-1.168A1.168,1.168,0,0,0,66.246,51.28ZM75.889,57.9a1.168,1.168,0,1,0-1.168-1.168A1.168,1.168,0,0,0,75.889,57.9ZM77.9,53.456a1.168,1.168,0,1,0-1.168-1.168A1.168,1.168,0,0,0,77.9,53.456Zm8.406-5.932a1.168,1.168,0,1,0,1.168-1.168A1.168,1.168,0,0,0,86.31,47.524Zm14.178-8.36A1.168,1.168,0,1,0,99.32,38,1.168,1.168,0,0,0,100.488,39.164Zm-1.97,4.123a1.168,1.168,0,1,0-1.168-1.168A1.168,1.168,0,0,0,98.518,43.287ZM86.1,53.5a1.168,1.168,0,1,0-1.168-1.168A1.168,1.168,0,0,0,86.1,53.5Zm10.49-6.093a1.168,1.168,0,1,0-1.168-1.168A1.168,1.168,0,0,0,96.594,47.41ZM84.272,57.442A1.168,1.168,0,1,0,83.1,56.273,1.168,1.168,0,0,0,84.272,57.442ZM84,62.755a1.168,1.168,0,1,0,1.168,1.168A1.168,1.168,0,0,0,84,62.755Zm-1.741-1.283A1.168,1.168,0,1,0,81.088,60.3,1.168,1.168,0,0,0,82.256,61.473Zm5.726,1.7A1.168,1.168,0,1,0,86.814,62,1.168,1.168,0,0,0,87.982,63.168ZM85.9,58.61a1.168,1.168,0,1,0,1.168-1.168A1.168,1.168,0,0,0,85.9,58.61Zm7.032,1.077a1.168,1.168,0,1,0-1.168-1.168A1.168,1.168,0,0,0,92.93,59.686Zm-2.749-3.619A1.168,1.168,0,1,0,89.013,54.9,1.168,1.168,0,0,0,90.181,56.067Zm3.344-4.077a1.168,1.168,0,1,0-1.168-1.168A1.168,1.168,0,0,0,93.525,51.99Zm7.261,1.718a1.168,1.168,0,1,0,1.168-1.168A1.168,1.168,0,0,0,100.786,53.708Zm-3.138,1.168a1.168,1.168,0,1,0,1.168,1.168A1.168,1.168,0,0,0,97.648,54.876ZM78.821,48.142a1.168,1.168,0,1,0-1.168-1.168A1.168,1.168,0,0,0,78.821,48.142ZM87.2,36.232a1.168,1.168,0,1,0-1.168-1.168A1.168,1.168,0,0,0,87.2,36.232ZM86.86,39.1a1.168,1.168,0,1,0,1.168-1.168A1.168,1.168,0,0,0,86.86,39.1ZM89.1,43.126a1.168,1.168,0,1,0-1.168,1.168A1.168,1.168,0,0,0,89.1,43.126Zm-9.448-.4a1.168,1.168,0,1,0-1.307-1.01A1.168,1.168,0,0,0,79.656,42.728ZM53.214,62.114a1.168,1.168,0,1,0-1.168-1.168A1.168,1.168,0,0,0,53.214,62.114ZM55.8,69.237a1.168,1.168,0,1,0,1.168-1.168A1.168,1.168,0,0,0,55.8,69.237Zm-6.23,1.741A1.168,1.168,0,1,0,50.74,69.81,1.168,1.168,0,0,0,49.572,70.978Zm-5.772.5a1.168,1.168,0,1,0,1.168-1.168A1.168,1.168,0,0,0,43.8,71.482Zm-4.489.779a1.168,1.168,0,1,0-1.168,1.168A1.168,1.168,0,0,0,39.311,72.261Zm21.461,1.077a1.168,1.168,0,1,0,1.168,1.168A1.168,1.168,0,0,0,60.772,73.337ZM59.65,79.819a1.168,1.168,0,1,0-1.168,1.168A1.168,1.168,0,0,0,59.65,79.819Zm0.114,3.871a1.168,1.168,0,1,0,1.168,1.168A1.168,1.168,0,0,0,59.764,83.69ZM54.5,81.17a1.168,1.168,0,1,0,1.168,1.168A1.168,1.168,0,0,0,54.5,81.17Zm2.657,6.184a1.168,1.168,0,1,0,1.168,1.168A1.168,1.168,0,0,0,57.153,87.355Zm-5.726,8.475A1.168,1.168,0,1,0,52.6,97,1.168,1.168,0,0,0,51.427,95.829Zm-1.832-9.666A1.168,1.168,0,1,0,48.427,85,1.168,1.168,0,0,0,49.595,86.164ZM39.563,86.9a1.168,1.168,0,1,0,1.168,1.168A1.168,1.168,0,0,0,39.563,86.9Zm4.856-1.053a1.168,1.168,0,1,0,1.168,1.168A1.168,1.168,0,0,0,44.418,85.843Zm-9.757,2.016a1.168,1.168,0,1,0,1.168,1.168A1.168,1.168,0,0,0,34.661,87.858Zm-5.222.962a1.168,1.168,0,1,0,1.168,1.168A1.168,1.168,0,0,0,29.439,88.82Zm24.874,2.886a1.168,1.168,0,1,0,1.168,1.168A1.168,1.168,0,0,0,54.313,91.706Zm-5.405,9.025a1.168,1.168,0,1,0,1.168,1.168A1.167,1.167,0,0,0,48.908,100.731Zm8.039-24.348a1.168,1.168,0,1,0-1.168,1.168A1.168,1.168,0,0,0,56.947,76.383Zm5.978,2.771a1.168,1.168,0,1,0,1.168,1.168A1.168,1.168,0,0,0,62.925,79.155ZM46.709,77.368a1.168,1.168,0,1,0,1.168,1.168A1.168,1.168,0,0,0,46.709,77.368Zm-9.757-.091a1.168,1.168,0,1,0,1.168,1.168A1.168,1.168,0,0,0,36.952,77.277ZM41.7,77.462A1.168,1.168,0,1,0,42.79,78.7,1.168,1.168,0,0,0,41.7,77.462Zm-9.482-1.695a1.168,1.168,0,1,0,1.09,1.241A1.168,1.168,0,0,0,32.217,75.767Zm19.047,3.269a1.168,1.168,0,1,0-1.391-.892A1.168,1.168,0,0,0,51.265,79.036ZM49.5,59.732A1.168,1.168,0,1,0,50.671,60.9,1.168,1.168,0,0,0,49.5,59.732ZM46.342,61.7a1.168,1.168,0,1,0-1.168-1.168A1.168,1.168,0,0,0,46.342,61.7ZM67.827,49.379a1.168,1.168,0,1,0-1.168-1.168A1.168,1.168,0,0,0,67.827,49.379Zm0.229-3.069a1.168,1.168,0,1,0-1.168-1.168A1.168,1.168,0,0,0,68.056,46.31Z"/>
</svg>
