<svg id="axis_tunisia_engineer_1_icon" xmlns="http://www.w3.org/2000/svg" width="150" height="150" viewBox="0 0 150 150">
  <defs>
    <style>
      .cls-1 {
        fill: #de2323;
      }

      .cls-1, .cls-2, .cls-3, .cls-5 {
        fill-rule: evenodd;
      }

      .cls-2 {
        fill: #171717;
      }

      .cls-3 {
        fill: #bdbdbd;
      }

      .cls-4 {
        fill: #151515;
      }

      .cls-5 {
        fill: #f2f2f2;
      }
    </style>
  </defs>
  <g id="axis_tunisia_engineer_1_icon_copy" data-name="axis_tunisia_engineer_1_icon copy">
    <path id="Shape_275_copy" data-name="Shape 275 copy" class="cls-1" d="M72.623,16.408L32.2,26.851S31.1,51.3,35.152,66.042s8.778,26.005,24.2,38.453c14.651,11.825,15.357,11.426,15.357,11.426H75.3s0.8,0.368,15.357-11.426c15.4-12.477,20.148-23.711,24.2-38.453S117.8,26.851,117.8,26.851L77.384,16.408H72.623Z"/>
    <path id="Shape_275_copy_2" data-name="Shape 275 copy 2" class="cls-2" d="M75.3,116.549l-0.585-.016c-0.762-.083-3.377-1.563-15.751-11.549C44.1,92.994,38.919,82.106,34.547,66.208c-4.034-14.669-2.981-39.14-2.97-39.385l0.021-.464L72.623,15.78l4.918,0.02L118.41,26.359l0.021,0.464c0.011,0.245,1.064,24.717-2.97,39.385-4.359,15.853-9.541,26.727-24.413,38.775-12.505,10.131-15.04,11.483-15.752,11.554v0.012Zm-0.483-1.241h0Zm0.386,0h0Zm-0.428-.013h0.467c0.351-.135,2.7-1.307,15.02-11.286,14.609-11.835,19.7-22.532,23.993-38.132,3.676-13.369,3.068-35.094,2.945-38.533L77.3,17.036H72.7L32.813,27.342c-0.123,3.437-.732,25.163,2.945,38.533,4.3,15.645,9.4,26.355,23.991,38.131C72.071,113.952,74.415,115.151,74.771,115.293Z"/>
    <path id="Shape_275_copy_3" data-name="Shape 275 copy 3" class="cls-3" d="M102.671,27.093a8.252,8.252,0,0,0,2.13-4.341s-2.785-.819-3.194-0.819-0.9-.983-1.147-1.229c0,0-3.6.983-3.85,0.983a1.036,1.036,0,0,1-.819-0.573,12.619,12.619,0,0,0-1.884-3.194,32.989,32.989,0,0,0-4.177,2.211s1.392-3.276.082-5.487a11.439,11.439,0,0,1-2.293-.082,0.892,0.892,0,0,1-.41-0.573,26.388,26.388,0,0,0-1.966-4.75L82.277,11.2l-1.147-.164-1.065,1.392H79.411s-0.328-3.6-1.065-4.587L77.117,7.6a14.092,14.092,0,0,0-2.293-2.785,31.641,31.641,0,0,0-2.457,3.03C71.63,8.993,71.63,9.4,71.384,9.4s-2.13-.655-2.375-0.655-1.475,2.048-1.638,4.341c0,0-.9-1.884-1.392-1.966a2.325,2.325,0,0,0-1.147.246A23.748,23.748,0,0,0,61.72,9.484C61.228,9.4,60.082,12.678,60,13.17s-0.164,1.474-.409,1.474a11.2,11.2,0,0,0-2.293.164c-0.328.164-.573,2.293-0.573,3.03a13.1,13.1,0,0,0,.819,2.785s-2.621-2.539-4.914-2.457a32.239,32.239,0,0,1-1.147,3.276,1.826,1.826,0,0,1-.573.491,30.6,30.6,0,0,0-4.341-1.065,5.144,5.144,0,0,0-.737,1.147s-3.522.409-3.686,0.737S44.6,27.83,44.6,27.83V28.4s-1.556,1.147-1.474,1.474a8.62,8.62,0,0,0,2.948,3.03,6.126,6.126,0,0,0,2.785.9L49.844,35.2s-2.048,2.13-2.212,2.375,2.949,1.8,3.849,1.638,4.177-.655,4.832-0.819,1.065-.246,1.147,0,0.164,2.621.573,2.621A21.3,21.3,0,0,0,61.8,40.2a4.654,4.654,0,0,0,1.884-1.147s0.164,0.9.41,0.819,2.867-1.392,2.867-1.392,2.366,1.234,3.469,1.787l1.664,15.413h0.312l-1.3.819h-2.87A3.825,3.825,0,0,1,66.8,55.76c-0.319-.409-2.232-1.884-3.269-0.409a11.5,11.5,0,0,0,0,4.914s0.558,2.129,3.508-.328l1.275-.41h2.711l2.232,0.9a5.32,5.32,0,0,0,.923.2h-1.27a3.57,3.57,0,0,0-.532,1.874V73.225a2.416,2.416,0,0,0,2.3,2.641h0.8a2.417,2.417,0,0,0,2.3-2.641V62.506a3.571,3.571,0,0,0-.532-1.873h-1.27a5.323,5.323,0,0,0,.923-0.2l2.232-.9h2.711l1.276,0.41c2.95,2.457,3.508.328,3.508,0.328a11.5,11.5,0,0,0,0-4.914c-1.036-1.474-2.95,0-3.269.409a3.822,3.822,0,0,1-1.435.737h-2.87l-1.3-.819h0.312L79.9,38.75l3.113,1.12,0.573-.983a5.269,5.269,0,0,0,2.129,1.31,23.586,23.586,0,0,0,3.358.655,13.463,13.463,0,0,1,.491-2.539,0.893,0.893,0,0,1,.983-0.164c0.246,0,3.85.9,4.587,0.9a30.152,30.152,0,0,0,4.259-1.31,13.557,13.557,0,0,0-2.047-2.457,5.3,5.3,0,0,1,.9-1.556c0.328-.164,2.866-0.983,3.194-1.147s2.129-1.638,2.293-2.949c0,0-1.065-1.147-1.31-1.392A1.065,1.065,0,0,1,102.671,27.093Z"/>
    <path id="Shape_275_copy_4" data-name="Shape 275 copy 4" class="cls-2" d="M103.11,27.177a8.277,8.277,0,0,0,2.082-4.4l0.024-.316-0.3-.089a29.759,29.759,0,0,0-3.272-.831h0a2.723,2.723,0,0,1-.569-0.681,3.254,3.254,0,0,0-.329-0.436l-0.161-.161-0.22.06c-1.656.452-3.54,0.945-3.74,0.97a0.969,0.969,0,0,1-.447-0.259c-0.159-.576-1.609-3.358-2.167-3.5-0.156-.038-0.431-0.11-3.567,1.72a6.444,6.444,0,0,0-.286-4.816l-0.12-.2-0.234.01a12.081,12.081,0,0,1-2.1-.04,0.524,0.524,0,0,1-.208-0.332,26.528,26.528,0,0,0-2-4.831l-0.209-.377-3.1,2.122-1.223-.175L79.872,12.04H79.766c-0.107-.984-0.442-3.545-1.106-4.429l-0.09-.12-1.214-.243A13.33,13.33,0,0,0,75.06,4.5l-0.285-.214-0.241.263a31.592,31.592,0,0,0-2.5,3.083,11.151,11.151,0,0,0-.661,1.173c-0.03.062-.064,0.128-0.091,0.18C71.063,8.931,70.624,8.8,70.312,8.7a6.529,6.529,0,0,0-1.3-.345c-0.59,0-1.462,1.763-1.848,3.509a2.255,2.255,0,0,0-1.117-1.128,2.341,2.341,0,0,0-1.169.186A17.156,17.156,0,0,0,61.784,9.1c-1.034-.151-2.164,3.966-2.171,4.008-0.016.095-.032,0.207-0.049,0.327a6.856,6.856,0,0,1-.149.819,5.864,5.864,0,0,0-2.294.205c-0.706.353-.79,3.351-0.79,3.381a6.22,6.22,0,0,0,.352,1.561,7.075,7.075,0,0,0-4.069-1.626l-0.279.01-0.082.267a30.243,30.243,0,0,1-1.085,3.155,1.41,1.41,0,0,1-.315.3c-4.111-1.227-4.336-1.076-4.5-.965a3.658,3.658,0,0,0-.773,1.108c-3.53.422-3.694,0.75-3.783,0.927-0.1.2-.254,0.509,2.416,5.355v0.276c-1.6,1.208-1.508,1.583-1.462,1.766a8.732,8.732,0,0,0,3.133,3.275,6.91,6.91,0,0,0,2.77.942l0.687,0.974c-0.632.66-1.881,1.972-2.031,2.2l-0.131.287,0.143,0.217c0.357,0.544,3.262,1.913,4.235,1.737,0.327-.059.968-0.162,1.682-0.277,1.285-.206,2.743-0.439,3.176-0.548a5.652,5.652,0,0,1,.7-0.142c0.012,0.1.024,0.231,0.039,0.386,0.147,1.481.269,2.389,0.89,2.389a21.377,21.377,0,0,0,3.892-.839,5.416,5.416,0,0,0,1.55-.813,0.893,0.893,0,0,0,.332.439,0.488,0.488,0,0,0,.412.046c0.231-.077,1.974-0.942,2.739-1.324,0.808,0.421,2.14,1.113,3.022,1.558L71.615,55.62l-0.644.406H68.307a3.156,3.156,0,0,1-1.133-.556,3.712,3.712,0,0,0-2.51-1.232,1.86,1.86,0,0,0-1.516.841,0.46,0.46,0,0,0-.066.137,11.9,11.9,0,0,0-.012,5.133c0,0.011,0,.023.008,0.034a1.684,1.684,0,0,0,1.069,1.129c0.818,0.262,1.869-.127,3.124-1.155L68.391,60h2.545L72.4,60.589a4.128,4.128,0,0,0-.48,1.918V73.231a2.859,2.859,0,0,0,2.766,3.1h0.8a2.86,2.86,0,0,0,2.76-3.1V62.519a4.139,4.139,0,0,0-.48-1.931L79.233,60h2.545L82.9,60.357a4.443,4.443,0,0,0,2.6,1.234,1.706,1.706,0,0,0,.523-0.079,1.684,1.684,0,0,0,1.07-1.129c0-.011.005-0.023,0.007-0.034a11.888,11.888,0,0,0-.012-5.133,0.46,0.46,0,0,0-.066-0.137,1.86,1.86,0,0,0-1.515-.841A3.717,3.717,0,0,0,83,55.47a3.156,3.156,0,0,1-1.133.556H79.2l-0.644-.406,1.761-16.3,2.875,1.035,0.491-.841A5.7,5.7,0,0,0,85.6,40.572a23.584,23.584,0,0,0,3.428.67L89.42,41.29l0.045-.392a12.4,12.4,0,0,1,.439-2.382c0.027-.046.057-0.069,0.352-0.012,0.111,0.022.209,0.028,0.276,0.038,0.106,0.01.711,0.146,1.245,0.265a26.117,26.117,0,0,0,3.359.637,26.859,26.859,0,0,0,4.4-1.335l0.459-.171-0.267-.411a14.85,14.85,0,0,0-1.9-2.349,5.01,5.01,0,0,1,.6-1.1c0.141-.071.922-0.338,1.549-0.553,0.907-.311,1.471-0.507,1.646-0.594,0.332-.166,2.314-1.708,2.507-3.251l0.022-.182-0.124-.134s-1.073-1.155-1.3-1.379a1.118,1.118,0,0,1,.266-0.657C103.011,27.3,103.054,27.244,103.11,27.177Zm-0.917-2.952c0.764-.311,1.592-0.635,2.106-0.834a5.657,5.657,0,0,1-.343,1.043A5.284,5.284,0,0,1,102.193,24.225Zm-0.587-1.9a24.729,24.729,0,0,1,2.5.635c-0.822.318-2.411,0.941-3.294,1.338-0.322.145-1.142,0.624-2.278,1.286l-1.139.663a5.772,5.772,0,0,1,.694-2.7c0.364-.5,1.647-1.793,2.235-2.377l0.093,0.137A1.81,1.81,0,0,0,101.606,22.326Zm-4.676,4a0.233,0.233,0,0,0,.08.151c-0.593.343-1.227,0.706-1.887,1.077a13.943,13.943,0,0,1,.171-3.009c0.186-.465,1.012-1.876,1.361-2.465,0.271-.026,1.5-0.341,2.789-0.688a24.239,24.239,0,0,0-1.733,1.883A6.078,6.078,0,0,0,96.93,26.321ZM95.4,21.114a1.111,1.111,0,0,0,.772.852c-0.388.656-1.129,1.933-1.315,2.4a16.08,16.08,0,0,0-.2,3.41,0.2,0.2,0,0,0,.012.028c-2.886,1.607-6.087,3.242-7.8,3.543a0.18,0.18,0,0,0-.019.012,2.294,2.294,0,0,1-.333-0.519c0.181-.144.726-0.543,1.256-0.93,1-.729,2.236-1.637,2.85-2.142,1.111-.915,2.174-4.272,2.174-4.482a0.274,0.274,0,0,0-.079-0.183,1.115,1.115,0,0,0-.739-0.14,0.214,0.214,0,0,0,.019-0.046A32.023,32.023,0,0,1,93.9,18.473,19.454,19.454,0,0,1,95.4,21.114ZM82.553,35.973a3.773,3.773,0,0,1,.53.73,17.778,17.778,0,0,1-2.621,1.247l0.349-3.228a4.525,4.525,0,0,0,1.575-.766c0.916-.063,2.086-0.18,2.086-0.18l-0.047-.469s-0.818.081-1.618,0.145a9.892,9.892,0,0,0,.907-2.292l0.036-.124a0.236,0.236,0,1,0-.447-0.149c-0.008.023-.022,0.073-0.042,0.145a6.1,6.1,0,0,1-1.121,2.52,3.623,3.623,0,0,1-1.275.661l0.644-5.961a37.613,37.613,0,0,0,4.44-2.287,0.222,0.222,0,0,0,.076.21,4.379,4.379,0,0,0,2.354.847,0.235,0.235,0,0,0,0-.471,3.959,3.959,0,0,1-2.068-.75,0.213,0.213,0,0,0-.064-0.017,15.878,15.878,0,0,0,2.97-2.328c1.238-.043,2.582-0.053,3.062-0.007-0.209.748-1.114,3.257-1.961,3.954-0.6.5-1.837,1.4-2.828,2.125-0.926.678-1.283,0.941-1.365,1.023a0.342,0.342,0,0,0-.093.285A3.589,3.589,0,0,0,87.2,32.388a1.9,1.9,0,0,1,.58.8c-0.206.186-3.072,1.921-3.411,2.034-0.289.1-1.316,0.293-1.687,0.36A0.236,0.236,0,0,0,82.553,35.973ZM82.084,22.925a5.876,5.876,0,0,0,2.955-1.25,6.249,6.249,0,0,0,1.438-2.267,4.431,4.431,0,0,1,.317-0.661c0.283-.424,2.094-2.62,2.858-3.541a6.542,6.542,0,0,1-.1,4.249,0.2,0.2,0,0,0-.022.015,6.908,6.908,0,0,0-.96,1.848c0,0.28.212,1.426,0.288,1.825C86.885,25.205,83.167,27,81.568,27.71Zm11.251-4.364a26.218,26.218,0,0,0-1.813,4.355,0.214,0.214,0,0,0,.013.032c-0.494-.008-1.2,0-2.225.033-0.115-.614-0.266-1.475-0.266-1.657a1.818,1.818,0,0,1,.192-0.441l0.695-.414C91.181,19.725,92.556,18.949,93.335,18.561Zm-6.61-4.5a1.27,1.27,0,0,0,.619.848,5.9,5.9,0,0,0,1.821.142c-0.826,1-2.48,3.006-2.763,3.43a4.73,4.73,0,0,0-.358.739,5.773,5.773,0,0,1-1.327,2.108,5.324,5.324,0,0,1-2.58,1.105l0.173-1.6a0.458,0.458,0,0,0-.043-0.234c0-.006.009-0.009,0.012-0.016,0.01-.034.8-2.73,1.334-4.639h0l2.457-.983a0.236,0.236,0,1,0-.175-0.437l-2.127.851c0.064-.235.123-0.452,0.17-0.634,0.306-1.18.9-3.431,1.219-4.636A27.556,27.556,0,0,1,86.725,14.066Zm-2.54-2.118a10.3,10.3,0,0,0-.665-1.12l1.172-.8C84.557,10.537,84.374,11.23,84.185,11.948Zm-1.812-.333,0.758-.52a5.952,5.952,0,0,1,.839,1.605,0.208,0.208,0,0,0,.011.019c-0.189.72-.37,1.409-0.5,1.907-0.152.586-.406,1.5-0.671,2.422a7.319,7.319,0,0,1-1.575-2.6,10.539,10.539,0,0,1-.144-2.713l0.209-.274ZM80.26,12.825l0.337-.44a9.535,9.535,0,0,0,.182,2.168,8.278,8.278,0,0,0,1.88,3.033c-0.3,1.049-.589,2.036-0.734,2.532l-4.367-5.769a16.667,16.667,0,0,1,1.585-1.523H80.26Zm-3.842.017a27.18,27.18,0,0,0,2.055-3.66,22.376,22.376,0,0,1,.535,3.169,10.909,10.909,0,0,0-1.738,1.617Zm0.459-4.89L78.109,8.2a2.568,2.568,0,0,1,.124.271,21.137,21.137,0,0,1-2.118,3.973l-0.459-.607a0.7,0.7,0,0,0-.369-0.236c0.15-.171.326-0.749,0.168-3.017a0.228,0.228,0,0,0,.071-0.118A3.8,3.8,0,0,1,76.372,7.2c0.247,0.351.411,0.6,0.415,0.612ZM76.092,6.811a7.218,7.218,0,0,0-.708.889c-0.053-.586-0.123-1.256-0.216-2.027A13.561,13.561,0,0,1,76.092,6.811ZM71.385,9.795a0.827,0.827,0,0,0,.695-0.639,10.556,10.556,0,0,1,.618-1.1A25.724,25.724,0,0,1,74.68,5.568a31.074,31.074,0,0,1,.329,5.536,9.781,9.781,0,0,0-2.425-1.847,0.235,0.235,0,0,0-.227.412,9.2,9.2,0,0,1,2.318,1.774,0.746,0.746,0,0,0,.16.168,0.705,0.705,0,0,0-.322.226l-2.868,3.789a24.426,24.426,0,0,0-.735-2.866c-0.266-.709-1.025-2.532-1.426-3.491,0.2,0.059.418,0.126,0.6,0.182A6.526,6.526,0,0,0,71.385,9.795ZM69,9.325c0.383,0.914,1.2,2.867,1.472,3.6a28.643,28.643,0,0,1,.788,3.156,0.2,0.2,0,0,0,.019.032l-2.352,3.107-0.832-.832a5.317,5.317,0,0,1-.714-1.373,8.321,8.321,0,0,0,.536-2.3c-0.037-.334-0.1-1.13-0.139-1.7A8.636,8.636,0,0,1,69,9.325ZM69.28,33.994L68.1,30.329c0.31,0.21.614,0.4,0.844,0.54Zm-2.034-4.961a27.744,27.744,0,0,1-1.672-2.318,5.036,5.036,0,0,1,1.126-.58,5.031,5.031,0,0,0,1.134-.584A0.486,0.486,0,0,0,68,25.189c0.017-.593-0.888-1.533-1.817-2.446L66,22.566a10.731,10.731,0,0,1-1.778-3.442,13.424,13.424,0,0,1-.325-2.794,28.046,28.046,0,0,1,3.047.879,5.484,5.484,0,0,0,.812,1.513L68.635,19.6l-0.683.9a0.469,0.469,0,0,0-.093.335l1.019,9.439A8.056,8.056,0,0,1,67.246,29.033Zm-0.761-3.318a24.809,24.809,0,0,0-.619-2.62c1.638,1.612,1.706,2.006,1.657,2.1a5.09,5.09,0,0,1-1.009.506Zm0.532-12.457,0.359,0.75c0.025,0.31.049,0.595,0.069,0.765a7.537,7.537,0,0,1-.465,1.95c-0.359-.118-0.675-0.22-0.96-0.309a0.216,0.216,0,0,0,.032-0.038,9.975,9.975,0,0,0,.288-4.328A10.765,10.765,0,0,1,67.017,13.257ZM64.8,11.822l0.206-.1A2.137,2.137,0,0,1,65.8,11.5c0.124,0.9.39,3.359-.179,4.686a0.22,0.22,0,0,0,0,.1,7.913,7.913,0,0,0-1.834-.431,0.216,0.216,0,0,0,.011-0.05,50.854,50.854,0,0,0-1.6-5.672c0.606,0.348,1.577.975,2.419,1.554Zm-5.21,3.215c0.541,0,.638-0.693.751-1.5,0.016-.113.031-0.218,0.045-0.307a15.008,15.008,0,0,1,1.273-3.2A54.293,54.293,0,0,1,63.3,15.752L61.049,14.3a0.235,0.235,0,1,0-.255.4l2.58,1.659a0.212,0.212,0,0,0,.069.021,11.887,11.887,0,0,0,.319,2.838,11.572,11.572,0,0,0,1.526,3.2,0.223,0.223,0,0,0-.047.2l0.013,0.046a5.828,5.828,0,0,1-3.285-1.42c-0.19-.254-0.585-0.929-1.042-1.711-0.4-.685-0.854-1.46-1.28-2.142a11.883,11.883,0,0,0-1.88-2.28A17.973,17.973,0,0,1,59.59,15.036Zm-2.165.4a11.589,11.589,0,0,1,1.822,2.2c0.424,0.679.875,1.449,1.273,2.13,0.484,0.827.866,1.481,1.072,1.756a6.156,6.156,0,0,0,3.8,1.619,22.244,22.244,0,0,1,.64,2.742,0.2,0.2,0,0,0,.013.026,1.637,1.637,0,0,0-.934.681,0.38,0.38,0,0,0,.03.313c0.141,0.248.488,0.752,0.86,1.266a31.131,31.131,0,0,1-7.688-4.89A2.669,2.669,0,0,0,58.4,22l0.188,0.181L58.275,21.4a6.637,6.637,0,0,0-.5-1.253,10.274,10.274,0,0,1-.662-2.306A12.319,12.319,0,0,1,57.425,15.432ZM57.27,20.905l0.522,0.5a2.778,2.778,0,0,1,.083,1.706l-2.337.079a0.227,0.227,0,0,0,.02-0.157,16.478,16.478,0,0,0-2.085-4.39A9.929,9.929,0,0,1,57.27,20.905Zm-5.474.772a21.062,21.062,0,0,0,1.1-3.043,16.6,16.6,0,0,1,2.21,4.529,0.205,0.205,0,0,0,.031.046l-0.733.025a0.236,0.236,0,0,0-.225.269,8.4,8.4,0,0,0,.834,2.674,13.984,13.984,0,0,0,2.918,2.97,21.435,21.435,0,0,1,2.881,2.26c-0.1.08-.249,0.193-0.387,0.3l-0.2.149A0.224,0.224,0,0,0,60.17,31.8l-8.026-4.167a0.218,0.218,0,0,0,.043-0.087,12.594,12.594,0,0,0-.006-2.782c-0.144-.576-0.674-1.95-0.923-2.586A2.136,2.136,0,0,0,51.8,21.677Zm-2.212,1.993a11.4,11.4,0,0,0-2.12-2.276c0.83,0.2,2.134.555,3.332,0.915l0.009,0c0.239,0.608.781,2.011,0.92,2.566a11.716,11.716,0,0,1,0,2.537l-1.481-.769a0.226,0.226,0,0,0,.037-0.136A11.929,11.929,0,0,0,49.584,23.671Zm-3.708-1.265,0.211-.025,0.095-.19a7.687,7.687,0,0,1,.494-0.856,14.084,14.084,0,0,1,2.487,2.547,10.693,10.693,0,0,1,.63,2.529l-6.834-3.548C43.644,22.709,44.828,22.527,45.876,22.405ZM44.835,28.72l0.16-.118V27.73l-0.049-.089c-0.913-1.656-1.867-3.5-2.246-4.381l5.3,2.75-2.3.548a0.236,0.236,0,0,0,.109.458l2.58-.614a0.23,0.23,0,0,0,.147-0.114l5.947,3.087a14.857,14.857,0,0,1-3.323,1.231,11.361,11.361,0,0,1-1.983-.393,22.055,22.055,0,0,0-2.162-.465,25.67,25.67,0,0,0-3.258-.119A10.616,10.616,0,0,1,44.835,28.72Zm4.229,4.7-0.2,0a5.838,5.838,0,0,1-2.59-.848A8.948,8.948,0,0,1,43.7,30.1a26.168,26.168,0,0,1,3.245.112c0.617,0.084,1.378.273,2.113,0.455a11.133,11.133,0,0,0,2.1.407,15.566,15.566,0,0,0,3.6-1.313,0.222,0.222,0,0,0,.118-0.182l4.687,2.433a28.188,28.188,0,0,1-9.431,2.915ZM64.183,39.4a3,3,0,0,1-.111-0.423L63.927,38.2l-0.534.592a4.333,4.333,0,0,1-1.715,1.036,23.071,23.071,0,0,1-3.495.788,10.217,10.217,0,0,1-.258-1.671,3.82,3.82,0,0,0-.092-0.67,0.618,0.618,0,0,0-.668-0.423,4.217,4.217,0,0,0-.946.166c-0.4.1-1.9,0.341-3.109,0.534-0.721.115-1.368,0.219-1.7,0.279a8.462,8.462,0,0,1-3.26-1.258c0.4-.446,1.314-1.409,1.976-2.1l0.08-.083c0.332-.041.664-0.082,0.987-0.133l-0.626,1.513a0.235,0.235,0,0,0,.128.307,0.232,0.232,0,0,0,.09.018A0.235,0.235,0,0,0,51,36.95l0.737-1.782s0,0,0,0c0.776-.14,1.521-0.306,2.218-0.492l-1.051,2.209a0.236,0.236,0,0,0,.111.314,0.241,0.241,0,0,0,.1.023,0.236,0.236,0,0,0,.213-0.134l1.228-2.58s0,0,0,0a29.15,29.15,0,0,0,4.595-1.757,1.012,1.012,0,0,0-.329.508,0.333,0.333,0,0,0,.068.252c0.228,0.285,2.133,2.224,3.842,2.421a5.663,5.663,0,0,1,1.389.287,1.2,1.2,0,0,0-.317.616,4.765,4.765,0,0,0-1.813.36l-2.253-1.213a0.235,0.235,0,0,0-.224.415l2.141,1.153a7.6,7.6,0,0,1-1.042.709,0.236,0.236,0,0,0,.236.408A4.342,4.342,0,0,0,62.222,37.6a6.092,6.092,0,0,1,1.834-.314c0.29,0.176,1.183.628,2.174,1.119C65.39,38.821,64.568,39.224,64.183,39.4Zm2.96-1.274-0.178-.093-0.179.09-0.028.014c-1.266-.623-2.339-1.161-2.481-1.259,0,0,0-.007,0-0.009a1.21,1.21,0,0,1,.37-0.514A0.236,0.236,0,0,0,64.7,36.1c-0.08-.2-0.476-0.472-1.912-0.637s-3.114-1.785-3.476-2.187a8.978,8.978,0,0,1,1.392-1.194,3.142,3.142,0,0,0,.594-0.494,0.308,0.308,0,0,0,.034-0.221c-0.123-.464-2.836-2.459-3.2-2.639a14.257,14.257,0,0,1-2.733-2.8,7.192,7.192,0,0,1-.72-2.226l3.261-.11a29.845,29.845,0,0,0,2.976,2.3l-2.1.682a0.235,0.235,0,0,0,.146.448l2.273-.737a0.23,0.23,0,0,0,.119-0.1,30.685,30.685,0,0,0,3.12,1.812l-0.955.905a0.235,0.235,0,1,0,.324.342L64.933,28.2c0.424,0.2.856,0.4,1.3,0.584a0.24,0.24,0,0,0,.09.018,0.235,0.235,0,0,0,.115-0.035c0.16,0.211.311,0.406,0.44,0.563a3.846,3.846,0,0,0,.573.531s0,0,0,.006l1.877,5.819c-1.771-.6-4.435-1.616-4.788-2.048a8.747,8.747,0,0,1-.934-2.662,0.235,0.235,0,1,0-.461.1,12.273,12.273,0,0,0,.771,2.444c-0.7-.089-1.639-0.322-1.65-0.325a0.233,0.233,0,0,0-.286.171,0.236,0.236,0,0,0,.171.286,14.15,14.15,0,0,0,2.111.37c0.8,0.73,4.721,2.051,5.182,2.2a0.232,0.232,0,0,0,.061.01L69.529,36.3l0.35,3.244C69.041,39.117,67.949,38.55,67.143,38.13Zm1.672-17.208,6.033-7.97V53.829a2.092,2.092,0,0,0-.882.309l-1.465.923ZM65.2,60.544a1.212,1.212,0,0,1-.759.073,0.737,0.737,0,0,1-.45-0.463,11.594,11.594,0,0,1-.026-4.6,0.9,0.9,0,0,1,.72-0.376,1.583,1.583,0,0,1,.564.1A8.358,8.358,0,0,0,65.2,60.544ZM75.483,75.4h-0.79a1.994,1.994,0,0,1-1.005-.332l3.607-1.428A1.884,1.884,0,0,1,75.483,75.4Zm1.843-2.278-0.009,0L73.3,74.718a2.058,2.058,0,0,1-.4-0.9,0.224,0.224,0,0,0,.165,0l4.258-1.685v1Zm0-1.505-0.009,0-4.423,1.751a0.217,0.217,0,0,0-.044.023c0-.056-0.006-0.113-0.007-0.173V72.433a0.237,0.237,0,0,0,.137.045,0.233,0.233,0,0,0,.087-0.017l4.258-1.686v0.846Zm0-1.351-0.009,0-4.423,1.751a0.234,0.234,0,0,0-.05.028V70.989a0.237,0.237,0,0,0,.137.045,0.233,0.233,0,0,0,.087-0.017l4.258-1.685v0.938Zm0-1.444-0.009,0L72.894,70.58a0.234,0.234,0,0,0-.05.028V69.638a0.237,0.237,0,0,0,.137.045,0.233,0.233,0,0,0,.087-0.017l4.258-1.685v0.846Zm0-1.351-0.009,0-4.423,1.751a0.234,0.234,0,0,0-.05.028V68.194a0.237,0.237,0,0,0,.137.045,0.233,0.233,0,0,0,.087-0.017l4.258-1.686v0.938Zm0-1.444-0.009,0-4.423,1.751a0.234,0.234,0,0,0-.05.028v-0.97a0.232,0.232,0,0,0,.224.029l4.258-1.686v0.846Zm0-1.351-0.009,0-4.423,1.751a0.234,0.234,0,0,0-.05.028v-1a0.231,0.231,0,0,0,.224.029L77.325,63.8v0.877Zm0-1.382-0.009,0-4.423,1.751a0.239,0.239,0,0,0-.05.028V64.017a0.231,0.231,0,0,0,.224.029l4.254-1.684c0,0.087,0,.14,0,0.144V63.3Zm-0.664-2.2h0.333a2.877,2.877,0,0,1,.267.785l-4.367,1.729a0.231,0.231,0,0,0-.05.029V62.6l0.009,0Zm-3.788.993a3.033,3.033,0,0,1,.3-0.993h0.913a5.016,5.016,0,0,0,.687.05h0.481ZM85.454,55.18h0.028a0.9,0.9,0,0,1,.72.376,11.6,11.6,0,0,1-.026,4.6,0.736,0.736,0,0,1-.45.465,1.175,1.175,0,0,1-.706-0.056,8.353,8.353,0,0,0-.05-5.295A1.576,1.576,0,0,1,85.454,55.18Zm-6.643,1.715a0.468,0.468,0,0,0,.251.073h2.87a0.471,0.471,0,0,0,.132-0.019,3.941,3.941,0,0,0,1.674-.9,3,3,0,0,1,.8-0.594,8.015,8.015,0,0,1,.051,4.919,6.611,6.611,0,0,1-1.157-.8,0.47,0.47,0,0,0-.157-0.087L82,59.079a0.472,0.472,0,0,0-.144-0.022h-2.71a0.474,0.474,0,0,0-.176.034l-2.219.9a8.147,8.147,0,0,1-1.656.729,7.8,7.8,0,0,1-1.668-.729l-2.218-.9a0.474,0.474,0,0,0-.177-0.034h-2.71a0.472,0.472,0,0,0-.144.022l-1.276.41a0.47,0.47,0,0,0-.157.087,6.809,6.809,0,0,1-1.108.773,8.016,8.016,0,0,1,.05-4.866,2.957,2.957,0,0,1,.748.567,3.941,3.941,0,0,0,1.674.9,0.472,0.472,0,0,0,.133.019h2.87a0.468,0.468,0,0,0,.251-0.073l3.111-1.961h0a1.172,1.172,0,0,1,1.231,0Zm-1.144-1.834L76.2,54.137a2.09,2.09,0,0,0-.882-0.309V12.952l6.033,7.97ZM98.786,37.546a23.375,23.375,0,0,1-3.649,1.112,31.036,31.036,0,0,1-3.188-.618c-1.364-.3-1.324-0.263-1.541-0.307a1.006,1.006,0,0,0-1.177.378,9.275,9.275,0,0,0-.5,2.3,20.912,20.912,0,0,1-2.9-.589,4.934,4.934,0,0,1-1.957-1.2l-0.361-.393L82.84,39.391,80.4,38.513l0-.029a11.681,11.681,0,0,0,3.061-1.509,20.772,20.772,0,0,1,2.771,1.381,0.235,0.235,0,0,0,.232-0.41c-0.427-.241-0.791-0.441-1.111-0.611l1.932-1.388a0.235,0.235,0,1,0-.275-0.383l-1.966,1.413a0.233,0.233,0,0,0-.092.148,6.671,6.671,0,0,0-1.447-.616,3,3,0,0,0-.343-0.535c0.434-.084,1.1-0.218,1.357-0.3a35.367,35.367,0,0,0,3.593-2.145,0.425,0.425,0,0,0,.11-0.36,1.26,1.26,0,0,0-.13-0.389c0.871,0.353,3.437,1.376,4.818,1.749a3.063,3.063,0,0,0,.528,2.325,0.236,0.236,0,0,0,.317-0.348,2.637,2.637,0,0,1-.381-1.867c1.014,0.184,2.741.593,3.515,0.78l0.2,0.169A11.386,11.386,0,0,1,98.786,37.546Zm2.482-5.317c-0.141.071-.922,0.338-1.549,0.553-0.907.311-1.471,0.506-1.646,0.594a3.7,3.7,0,0,0-1.018,1.594c-0.751-.181-2.548-0.608-3.6-0.8-0.07-.013-0.151-0.032-0.236-0.052-0.008,0-.011-0.01-0.019-0.011s-0.009,0-.014,0c-1.529-.379-5.173-1.876-5.212-1.892a0.221,0.221,0,0,0-.221.042A1.574,1.574,0,0,0,87.466,32a1.9,1.9,0,0,1-.274-0.242,25.22,25.22,0,0,0,5.231-2.2s0,0.01.01,0.014a10.969,10.969,0,0,0,3.107,1.386,2.61,2.61,0,0,0,.3.016,12.994,12.994,0,0,0,2.517-.411c0.539-.122,1.048-0.238,1.412-0.28,0.778-.092,2.583-0.149,3.413-0.172A6.143,6.143,0,0,1,101.268,32.23Zm0.881-3.712c0.168,0.169.724,0.763,1.051,1.115-0.822.022-2.668,0.079-3.484,0.175-0.388.046-.909,0.164-1.461,0.289a9.879,9.879,0,0,1-2.661.387A9.475,9.475,0,0,1,92.9,29.3c2.007-1.06,4.06-2.252,5.662-3.187a0.222,0.222,0,0,0,.208.11,3.762,3.762,0,0,1,2.01.577,0.23,0.23,0,0,0,.127.038,0.236,0.236,0,0,0,.129-0.433,4.19,4.19,0,0,0-1.881-.637c0.9-.522,1.586-0.921,1.849-1.039,0.163-.073.351-0.154,0.553-0.24a0.225,0.225,0,0,0,.075.065,7.763,7.763,0,0,0,2.061.381h0.02a10.356,10.356,0,0,1-1.209,1.741c-0.068.081-.119,0.143-0.15,0.184A1.358,1.358,0,0,0,102.149,28.518Z"/>
    <path class="cls-3" d="M114.108,50.654a0.38,0.38,0,0,1-.379.351H113.7l-0.368-.029a0.38,0.38,0,0,1-.351-0.38c0-.97,0-0.97-0.835-1.035l-5.194-.4c-0.864-.068-0.877-0.065-1.007.687,0.417,0.039.87,0.074,1.3,0.1a0.381,0.381,0,0,1,.358.4l-0.018.4a0.379,0.379,0,0,1-.33.361,4.63,4.63,0,0,0-1.043.234c-0.249.1-.286,0.118-0.37,0.7l-0.134.929,5.981,0.861c0.8,0.116.8,0.116,1.008-.867a0.381,0.381,0,0,1,.426-0.3l0.366,0.053a0.38,0.38,0,0,1,.322.43l-0.547,3.8a0.383,0.383,0,0,1-.43.322l-0.366-.052a0.38,0.38,0,0,1-.325-0.406c0.077-.975.077-0.975-0.726-1.091l-5.98-.861-0.117.812c-0.1.663-.036,0.709,0.161,0.862a5,5,0,0,0,.828.489l0.11,0.058a0.381,0.381,0,0,1,.2.391l-0.057.392a0.379,0.379,0,0,1-.467.315c-0.773-.19-1.589-0.388-2.3-0.531a0.38,0.38,0,0,1-.3-0.427l0.043-.3a0.382,0.382,0,0,1,.223-0.294c0.135-.059.135-0.059,0.173-0.325l0.75-5.213a0.316,0.316,0,0,0-.1-0.393,0.38,0.38,0,0,1-.1-0.316l0.045-.313a0.378,0.378,0,0,1,.3-0.314l0.311-4.014c0.111-1.424.121-1.786,0.121-1.876a0.378,0.378,0,0,1,.116-0.276,0.364,0.364,0,0,1,.278-0.107c0.328,0.012,1.311.036,2.007,0.037a0.38,0.38,0,0,1,.378.347l0.036,0.4a0.38,0.38,0,0,1-.31.407,4.045,4.045,0,0,0-.949.292c-0.235.093-.337,0.165-0.4,0.941l-0.1,1.249c0,0.02,0,.038,0,0.054l0.042,0,2.526,0.2,0.084-1.08c0.055-.7.055-0.7-0.713-0.9a0.379,0.379,0,0,1-.284-0.4L108,44.612a0.38,0.38,0,0,1,.132-0.26,0.376,0.376,0,0,1,.277-0.09l2.708,0.21a0.381,0.381,0,0,1,.35.409l-0.031.408a0.382,0.382,0,0,1-.341.349c-0.778.079-.778,0.079-0.833,0.79l-0.083,1.067,2.238,0.174c0.62,0.049.624,0.016,0.678-.526l0.094-1.215a0.862,0.862,0,0,0-.253-0.959,5.106,5.106,0,0,0-1.075-.743,0.381,0.381,0,0,1-.171-0.457l0.135-.386a0.382,0.382,0,0,1,.473-0.237c0.338,0.106,1.676.569,2.08,0.74a0.382,0.382,0,0,1,.232.38ZM103.954,58.3l0.365,0.055c0.386,0.059.84,0.128,1.482,0.216a0.38,0.38,0,0,1,.328.4l-0.028.416a0.379,0.379,0,0,1-.379.355,0.178,0.178,0,0,0-.054,0c-0.914,0-1.489.179-1.719,1.047a0.941,0.941,0,0,0,.766,1.242c0.623,0.166,1.072-.071,1.924-1.011,1.239-1.369,2.128-1.995,3.548-1.62a2.633,2.633,0,0,1,1.72,1.434,3.589,3.589,0,0,1,.167,2.461,5.875,5.875,0,0,1-1,1.967,0.38,0.38,0,0,1-.3.156h-0.063a19.515,19.515,0,0,1-2-.166,0.381,0.381,0,0,1-.331-0.379l0-.422a0.38,0.38,0,0,1,.368-0.378c1.235-.039,1.947-0.477,2.176-1.34a1.072,1.072,0,0,0-.805-1.4c-0.753-.2-1.153.064-2.052,1.012-0.971,1.03-1.965,1.923-3.451,1.529a2.5,2.5,0,0,1-1.588-1.278,3.277,3.277,0,0,1-.193-2.4,7.513,7.513,0,0,1,.626-1.516l0.086-.17A0.381,0.381,0,0,1,103.954,58.3Zm0.413,7.385-0.064.4a0.385,0.385,0,0,1-.4.319,4.107,4.107,0,0,0-.991.05c-0.251.032-.368,0.076-0.617,0.813l-0.4,1.186c-0.007.019-.012,0.036-0.017,0.052l0.038,0.013,2.4,0.812,0.347-1.026c0.224-.664.224-0.664-0.471-1.044a0.381,0.381,0,0,1-.177-0.456l0.131-.387a0.38,0.38,0,0,1,.482-0.238l2.572,0.87a0.381,0.381,0,0,1,.239.482l-0.132.387a0.384,0.384,0,0,1-.416.254c-0.772-.115-0.772-0.114-1,0.56l-0.343,1.013,2.125,0.719c0.591,0.2.6,0.169,0.785-.342l0.391-1.154a0.859,0.859,0,0,0-.01-0.991,5.093,5.093,0,0,0-.857-0.984,0.381,0.381,0,0,1-.055-0.485l0.227-.341a0.381,0.381,0,0,1,.516-0.113c0.3,0.185,1.481.962,1.834,1.229a0.38,0.38,0,0,1,.13.425l-2.052,6.068a0.381,0.381,0,0,1-.361.258,0.376,0.376,0,0,1-.121-0.02l-0.35-.118a0.38,0.38,0,0,1-.246-0.454c0.241-.939.241-0.939-0.555-1.208l-4.932-1.668c-0.832-.281-0.833-0.282-1.155.442a0.346,0.346,0,0,0-.291.616c-0.258.827-.258,0.827,0.507,1.16l4.8,2.092c0.752,0.327.753,0.328,1.183-.424a0.377,0.377,0,0,1,.481-0.16l0.339,0.147a0.381,0.381,0,0,1,.2.5l-1.412,3.241a0.373,0.373,0,0,1-.338.226l0.128,0.1a0.38,0.38,0,0,1,.093.49c-0.082.14-.162,0.256-0.252,0.386a2.759,2.759,0,0,1-2.327,1.417c-0.6.061-1.255,0.073-1.887,0.086-0.246,0-.485.009-0.711,0.017-0.33.01-.381,0.012-0.675,0.516l-0.04.07,1.46,0.851c0.716,0.416.716,0.416,1.221-.281a0.382,0.382,0,0,1,.5-0.105l0.319,0.186a0.38,0.38,0,0,1,.137.52L102.52,85.7a0.38,0.38,0,0,1-.52.137l-0.319-.186a0.38,0.38,0,0,1-.156-0.483c0.347-.779.347-0.779-0.363-1.193l-4.547-2.648c-0.683-.4-0.7-0.4-1.182.249,0.335,0.247.7,0.509,1.052,0.747a0.38,0.38,0,0,1,.1.524l-0.22.331a0.383,0.383,0,0,1-.469.138,4.642,4.642,0,0,0-1.014-.338c-0.266-.039-0.306-0.046-0.677.408l-0.594.727,4.679,3.822c0.627,0.512.627,0.513,1.31-.224a0.381,0.381,0,0,1,.52-0.036l0.285,0.234a0.38,0.38,0,0,1,.054.535l-2.428,2.971a0.381,0.381,0,0,1-.535.054l-0.286-.234a0.38,0.38,0,0,1-.068-0.516c0.569-.8.569-0.8-0.059-1.308l-4.679-3.822-0.518.635c-0.424.518-.4,0.588-0.307,0.82a5.058,5.058,0,0,0,.463.857L92.1,88a0.38,0.38,0,0,1-.031.439l-0.25.306a0.38,0.38,0,0,1-.563.029c-0.563-.561-1.159-1.15-1.7-1.643a0.38,0.38,0,0,1-.038-0.522l0.192-.235a0.379,0.379,0,0,1,.342-0.137c0.146,0.018.146,0.019,0.316-.19L93.7,81.966a0.317,0.317,0,0,0,.114-0.389,0.381,0.381,0,0,1,.076-0.323l0.2-.245a0.38,0.38,0,0,1,.256-0.138,0.372,0.372,0,0,1,.167.025l1.632-2.8a4.055,4.055,0,0,1,1.609-1.746,2.339,2.339,0,0,1,2.316.113,2.683,2.683,0,0,1,1.322,2.553c0.526-.014,1.265-0.048,1.8-0.081a11.638,11.638,0,0,0,1.639-.208,1.51,1.51,0,0,0,.821-0.423,0.372,0.372,0,0,1,.153-0.089,0.379,0.379,0,0,1-.2-0.451c0.254-.815.254-0.815-0.5-1.143l-4.8-2.091c-0.766-.334-0.766-0.333-1.189.407a0.38,0.38,0,0,1-.482.16L98.3,74.948a0.38,0.38,0,0,1-.2-0.5l1.412-3.24a0.377,0.377,0,0,1,.365-0.226,0.364,0.364,0,0,1-.062-0.081,0.377,0.377,0,0,1-.019-0.29l1.292-3.821c0.457-1.349.557-1.7,0.579-1.789a0.38,0.38,0,0,1,.476-0.273c0.315,0.093,1.261.357,1.936,0.53A0.381,0.381,0,0,1,104.367,65.686Zm-4.276,13.782a1.5,1.5,0,0,0-.853-1.179,1.4,1.4,0,0,0-2.126.58,1.291,1.291,0,0,0-.19.43h0c0.008,0,.058.046,0.224,0.143l2.463,1.435,0.127-.218h0A1.78,1.78,0,0,0,100.091,79.468ZM89.609,97.055a0.38,0.38,0,0,1-.138.425l-1.516,1.1,0.579,1.782a0.381,0.381,0,0,1-.362.5,0.375,0.375,0,0,1-.224-0.073l-1.516-1.1-1.516,1.1a0.38,0.38,0,0,1-.585-0.425l0.579-1.782L83.4,97.48a0.38,0.38,0,0,1,.224-0.688h1.873l0.579-1.782a0.4,0.4,0,0,1,.723,0l0.579,1.782h1.873A0.38,0.38,0,0,1,89.609,97.055Zm-7.022,9.394H81.015a0.381,0.381,0,0,1-.38-0.381V97.555a5.564,5.564,0,0,1-1.47,1.16,0.38,0.38,0,0,1-.56-0.335V96.063a0.38,0.38,0,0,1,.2-0.336,4.285,4.285,0,0,0,1.217-1.141,4.826,4.826,0,0,0,.917-1.977,0.381,0.381,0,0,1,.371-0.3h1.275a0.38,0.38,0,0,1,.38.38v13.377A0.381,0.381,0,0,1,82.586,106.449Zm-7.139.227a2.549,2.549,0,0,1-2.271-1.708,13.585,13.585,0,0,1-.771-5.5,13.456,13.456,0,0,1,.844-5.583,2.32,2.32,0,0,1,4.4.019A13.478,13.478,0,0,1,78.49,99.5a13.515,13.515,0,0,1-.844,5.6A2.407,2.407,0,0,1,75.447,106.676Zm0.5-10.338a2.538,2.538,0,0,0-.3-1.006,0.255,0.255,0,0,0-.2-0.143,0.261,0.261,0,0,0-.205.145,2.1,2.1,0,0,0-.274.89A23.3,23.3,0,0,0,74.81,99.5a23.158,23.158,0,0,0,.14,3.159,2.509,2.509,0,0,0,.293,1,0.254,0.254,0,0,0,.2.141,0.262,0.262,0,0,0,.206-0.145,2.119,2.119,0,0,0,.274-0.889,23.056,23.056,0,0,0,.157-3.266A23.279,23.279,0,0,0,75.945,96.338Zm-4.907,10.111H69.467a0.381,0.381,0,0,1-.38-0.381V97.555a5.56,5.56,0,0,1-1.47,1.16,0.38,0.38,0,0,1-.56-0.335V97.52L65.6,98.581l0.579,1.782a0.38,0.38,0,0,1-.585.425l-1.516-1.1-1.516,1.1a0.38,0.38,0,0,1-.585-0.425l0.579-1.782-1.515-1.1a0.38,0.38,0,0,1,.224-0.688h1.873l0.579-1.782a0.4,0.4,0,0,1,.723,0l0.579,1.782h1.874a0.369,0.369,0,0,1,.169.055V96.063a0.381,0.381,0,0,1,.2-0.336,4.287,4.287,0,0,0,1.217-1.141,4.838,4.838,0,0,0,.917-1.977,0.38,0.38,0,0,1,.371-0.3h1.275a0.38,0.38,0,0,1,.38.38v13.377A0.381,0.381,0,0,1,71.038,106.449ZM63.533,83.021a0.38,0.38,0,0,1-.508-0.075l-0.165-.2a0.384,0.384,0,0,1-.131.124l-1.8,1.028a0.38,0.38,0,0,1-.519-0.141l-0.154-.271A0.381,0.381,0,0,1,60.344,83a1.42,1.42,0,0,0,.345-0.343,1.035,1.035,0,0,0-.18-0.4l-0.36-.63-1.406.8a0.738,0.738,0,0,0-.293.223,1.04,1.04,0,0,0,.125.277l0.46,0.805a0.581,0.581,0,0,0,.508.452,3.827,3.827,0,0,0,.972.007,0.385,0.385,0,0,1,.4.282l0.08,0.3a0.381,0.381,0,0,1-.258.461c-0.257.078-1.3,0.36-1.637,0.427a0.361,0.361,0,0,1-.074.007A0.382,0.382,0,0,1,58.7,85.49l-2.425-4.24a0.38,0.38,0,0,1,.141-0.519l0.244-.14a0.381,0.381,0,0,1,.5.117,2.195,2.195,0,0,0,.391.483,1.692,1.692,0,0,0,.459-0.216L61.457,79a1.434,1.434,0,0,0,.462-0.324A0.24,0.24,0,0,0,61.9,78.6c-0.25-.393-0.286-0.384-0.456-0.314l-0.13.058c-0.279.124-.663,0.3-1.371,0.639l-3.625,1.763a0.38,0.38,0,0,1-.508-0.176l-0.167-.343a0.382,0.382,0,0,1,0-.326l2.4-5.2-1.3.633c-0.816.4-1.2,0.62-1.437,0.754-0.207.111-.281,0.15-0.051,0.745a0.38,0.38,0,0,1-.188.479l-0.253.123a0.381,0.381,0,0,1-.508-0.176l-1.069-2.2a0.38,0.38,0,0,1,.175-0.508l0.253-.123a0.38,0.38,0,0,1,.494.148c0.271,0.46.348,0.43,0.554,0.349s0.434-.175.726-0.309c-0.048,0-.1.008-0.144,0.008a3.576,3.576,0,0,1-1.343-.258,3.636,3.636,0,0,1-1.983-2.013,3.691,3.691,0,0,1-.025-2.874,3.748,3.748,0,0,1,2.043-1.992,3.931,3.931,0,0,1,2.843-.1A3.689,3.689,0,0,1,58.988,69.5a3.648,3.648,0,0,1,.224,2.08l0.013-.006a0.379,0.379,0,0,1,.508.175l0.66,1.356a0.379,0.379,0,0,1,.005.32l-2.26,5.093,1.279-.622c0.908-.442,1.24-0.631,1.445-0.757,0.153-.088.225-0.129-0.04-0.771a0.381,0.381,0,0,1,.186-0.487l0.253-.123a0.38,0.38,0,0,1,.508.176L62.631,77.7a0.354,0.354,0,0,1,.041.047l1.527,2.67c0.537,0.939.686,1.172,0.724,1.229a0.38,0.38,0,0,1-.112.538C64.6,82.319,63.972,82.725,63.533,83.021ZM57.866,69.748h0a1.556,1.556,0,0,0-.991-0.893,2.088,2.088,0,0,0-.632-0.093,3.446,3.446,0,0,0-1.311.292c-1.532.638-2.309,1.905-1.848,3.013a1.5,1.5,0,0,0,.983.918,3.044,3.044,0,0,0,1.963-.251,3.389,3.389,0,0,0,1.752-1.419A1.779,1.779,0,0,0,57.866,69.748Zm0.663,3.38a0.51,0.51,0,0,0,.33-0.288,0.425,0.425,0,0,0,.026-0.337,3.509,3.509,0,0,1-.427.66Zm4.636,7.826-0.45-.787-1.548.885,0.365,0.638c0.227,0.4.228,0.4,0.725,0.219a0.38,0.38,0,0,1,.458.169l0.1,0.173A0.332,0.332,0,0,1,62.86,82.2a2.978,2.978,0,0,0,.459-0.575C63.4,81.5,63.444,81.442,63.165,80.954Zm-5.7-13.818-0.263.1a0.378,0.378,0,0,1-.474-0.183,2.237,2.237,0,0,0-.282-0.472,2.37,2.37,0,0,0-.5.152l-3.731,1.414a2.064,2.064,0,0,0-.475.224,2.9,2.9,0,0,0,.111.529,0.38,0.38,0,0,1-.233.451l-0.263.1a0.38,0.38,0,0,1-.49-0.221l-0.955-2.519a0.38,0.38,0,0,1,.221-0.49l0.263-.1a0.379,0.379,0,0,1,.474.183,2.226,2.226,0,0,0,.278.465,2.041,2.041,0,0,0,.491-0.15L55.369,65.2a2.052,2.052,0,0,0,.481-0.228,2.624,2.624,0,0,0-.1-0.52,0.383,0.383,0,0,1-.009-0.124c-0.2.1-.437,0.213-0.727,0.36a0.379,0.379,0,0,1-.5-0.146l-0.162-.273a0.38,0.38,0,0,1,.114-0.509,1.013,1.013,0,0,0,.625-1.314,0.626,0.626,0,0,0-.9-0.395c-0.427.152-.587,0.464-0.713,1.391-0.188,1.4-.5,2.229-1.588,2.619a2.077,2.077,0,0,1-.7.123,2.515,2.515,0,0,1-2.277-1.809,4.579,4.579,0,0,1-.226-1.7,0.369,0.369,0,0,1,.093-0.223l-0.009,0a0.38,0.38,0,0,1-.478-0.246L47.469,59.65a0.38,0.38,0,0,1,.247-0.478l0.268-.086a0.38,0.38,0,0,1,.463.207,2.23,2.23,0,0,0,.253.478,2.413,2.413,0,0,0,.5-0.124L53,58.432a2.671,2.671,0,0,0,.46-0.182c-0.137-.319-0.26-0.377-0.95-0.483l-0.652-.107c-1.3-.213-3.891-0.638-4.972-0.8a0.381,0.381,0,0,1-.314-0.291L46.5,56.245a0.38,0.38,0,0,1,.163-0.4c1.442-.941,3.537-2.311,4.856-3.2,0.544-.364.538-0.412,0.477-0.878A0.383,0.383,0,0,1,52,51.641a0.561,0.561,0,0,0-.075-0.163,2.367,2.367,0,0,0-.519.052l-3.934.663a2.09,2.09,0,0,0-.509.127,2.955,2.955,0,0,0,.006.54,0.38,0.38,0,0,1-.316.4l-0.278.047a0.413,0.413,0,0,1-.063.005,0.38,0.38,0,0,1-.375-0.317l-0.448-2.656A0.38,0.38,0,0,1,45.8,49.9l0.278-.047a0.384,0.384,0,0,1,.429.271,2.237,2.237,0,0,0,.182.509,2.475,2.475,0,0,0,.51-0.052l3.934-.663a2.084,2.084,0,0,0,.516-0.13,2.666,2.666,0,0,0,0-.53,0.381,0.381,0,0,1,.316-0.4l0.277-.047a0.388,0.388,0,0,1,.284.065,0.38,0.38,0,0,1,.155.247l0.448,2.656a0.37,0.37,0,0,1-.019.183l0.482,2.085a0.38,0.38,0,0,1-.284.456l-0.275.063a0.379,0.379,0,0,1-.445-0.246,3.091,3.091,0,0,0-.123-0.313l-0.009.006c-0.563.351-1.887,1.214-3.121,2.032,1.464,0.235,2.616.407,3.5,0.523a1.913,1.913,0,0,0,.193.018A3.657,3.657,0,0,0,53,56.109,0.38,0.38,0,0,1,53.29,55.7l0.274-.063a0.379,0.379,0,0,1,.456.285l0.316,1.371a0.373,0.373,0,0,1,.08.137l0.821,2.565a0.38,0.38,0,0,1-.247.478l-0.268.086a0.38,0.38,0,0,1-.463-0.208A2.231,2.231,0,0,0,54,59.863a2.316,2.316,0,0,0-.507.126L49.7,61.2a2.08,2.08,0,0,0-.486.2,2.887,2.887,0,0,0,.083.535,0.375,0.375,0,0,1-.008.169c0.294-.174.645-0.367,0.934-0.515a0.38,0.38,0,0,1,.488.125l0.18,0.266a0.381,0.381,0,0,1-.089.52c-1.073.787-.835,1.455-0.756,1.674a0.724,0.724,0,0,0,.993.479c0.492-.176.632-0.433,0.792-1.448,0.17-1.093.418-2.109,1.567-2.519a2,2,0,0,1,1.62.123,2.587,2.587,0,0,1,1.2,1.471,5.856,5.856,0,0,1,.264,1.237l0.019,0.144a0.378,0.378,0,0,1-.038.231,0.372,0.372,0,0,1,.077.018,0.381,0.381,0,0,1,.2.212l0.955,2.519A0.38,0.38,0,0,1,57.467,67.136ZM49.313,49.985a4.382,4.382,0,0,1-.527.032,3.613,3.613,0,0,1-2.638-1.068A5.117,5.117,0,0,1,44.9,45.873l-0.283-2.335a0.38,0.38,0,0,1,.332-0.423l0.279-.034a0.379,0.379,0,0,1,.417.3,2.228,2.228,0,0,0,.154.521,3.206,3.206,0,0,0,.505-0.037l3.981-.482A1.293,1.293,0,0,0,50.8,43.27a2.2,2.2,0,0,0,.024-0.521,0.381,0.381,0,0,1,.335-0.385l0.279-.034a0.381,0.381,0,0,1,.423.332l0.335,2.774a4.344,4.344,0,0,1-.588,3.292A3.3,3.3,0,0,1,49.313,49.985Zm1.766-4.5a1.906,1.906,0,0,0-.115-0.522,2.16,2.16,0,0,0-.271.021l-4.111.5a0.645,0.645,0,0,0-.457.176,0.993,0.993,0,0,0-.041.585A2.206,2.206,0,0,0,47,47.9a2.865,2.865,0,0,0,1.967.362,2.25,2.25,0,0,0,1.954-1.226A2.814,2.814,0,0,0,51.079,45.48ZM45.594,65.764a1.87,1.87,0,0,1-1.276,1.342,2.107,2.107,0,0,1-2.148-.464c-0.246.3-.56,0.7-0.788,1a8.815,8.815,0,0,0-.688,1.037,1.067,1.067,0,0,0-.153.633,0.387,0.387,0,0,1,0,.043,0.377,0.377,0,0,1,.208.184,2.247,2.247,0,0,0,.276.466,2.428,2.428,0,0,0,.491-0.148l3.738-1.4a2.054,2.054,0,0,0,.482-0.226,2.638,2.638,0,0,0-.1-0.52,0.381,0.381,0,0,1,.235-0.45l0.264-.1a0.38,0.38,0,0,1,.489.223l0.944,2.523a0.381,0.381,0,0,1-.01.291c0,0.008-.011.013-0.015,0.021a0.378,0.378,0,0,1,.455.217l0.1,0.242a0.381,0.381,0,0,1-.073.4,0.371,0.371,0,0,0,.049.142l1.559,3.787a0.381,0.381,0,0,1-.064.394l-0.118.136a0.381,0.381,0,0,1-.374.121c-2.044-.476-4.138-0.943-6.381-1.422,0.1,0.252.219,0.55,0.352,0.874,0.493,1.2.608,1.324,0.834,1.405a3.193,3.193,0,0,0,1.058.154A0.381,0.381,0,0,1,45.3,77l0.046,0.3a0.38,0.38,0,0,1-.3.432c-0.21.04-.654,0.107-1.068,0.169l-0.154.023c2.172,0.393,4.408.761,6.407,1.084l-0.542-1.129c-0.347-.724-0.4-0.732-0.592-0.76a3.216,3.216,0,0,0-.825.022,0.379,0.379,0,0,1-.393-0.225l-0.121-.276a0.38,0.38,0,0,1,.218-0.51c0.182-.066.411-0.145,0.648-0.227,0.4-.137.822-0.282,1.075-0.389a0.379,0.379,0,0,1,.491.185L50.3,75.933a0.38,0.38,0,0,1-.05.408,0.477,0.477,0,0,0,.057.14l1.772,3.694a0.381,0.381,0,0,1-.042.4l-0.11.142a0.384,0.384,0,0,1-.365.141C49.489,80.5,47.371,80.15,45.1,79.8c0.114,0.249.252,0.542,0.4,0.854,0.56,1.168.682,1.288,0.913,1.356a3.246,3.246,0,0,0,1.066.094,0.371,0.371,0,0,1,.388.3L47.935,82.7a0.38,0.38,0,0,1-.279.448c-0.2.051-.63,0.141-1.033,0.225a0.365,0.365,0,0,1,.053.049c0.309,0.408.335,0.44,1.124,0.321l5.609-.823a0.384,0.384,0,0,1,.345.129l0.212,0.249a0.381,0.381,0,0,1,0,.491c-1.175,1.4-2.476,2.951-3.668,4.365-0.5.592-.5,0.592-0.279,1.094a0.379,0.379,0,0,1,.014.257,0.375,0.375,0,0,1,.3.143,1.72,1.72,0,0,0,.423.46,1.446,1.446,0,0,0,.42-0.232l3.752-2.5-0.3-.444c-0.254-.38-0.287-0.379-0.447-0.367a3.822,3.822,0,0,0-.712.144l-0.082.021a0.379,0.379,0,0,1-.41-0.157l-0.168-.25a0.38,0.38,0,0,1,.137-0.547c0.538-.287,1.092-0.585,1.573-0.87a0.378,0.378,0,0,1,.51.116l0.128,0.192a0.381,0.381,0,0,1,.031.367,0.233,0.233,0,0,0,.061.185L57.481,89.1a0.553,0.553,0,0,0,.091.118,0.869,0.869,0,0,0,.1.012,0.381,0.381,0,0,1,.286.168l0.134,0.2a0.38,0.38,0,0,1-.105.528c-0.355.237-.919,0.656-1.4,1.042a0.381,0.381,0,0,1-.531-0.056l-0.192-.234a0.38,0.38,0,0,1,0-.489,3.5,3.5,0,0,0,.459-0.642c0.076-.159.081-0.168-0.138-0.5l-0.347-.519-3.752,2.5a1.342,1.342,0,0,0-.371.3,1.55,1.55,0,0,0,.269.584,0.379,0.379,0,0,1-.023.413,0.373,0.373,0,0,1,.3.1c0.363,0.361.393,0.39,1.159,0.16l5.438-1.606a0.379,0.379,0,0,1,.359.079l0.245,0.217a0.38,0.38,0,0,1,.071.486c-0.965,1.556-2.035,3.27-3.016,4.838-0.408.656-.408,0.656-0.122,1.123a0.381,0.381,0,0,1-.09.5l-0.221.173a0.38,0.38,0,0,1-.234.081,0.387,0.387,0,0,1-.047,0,0.38,0.38,0,0,1-.253-0.143l-1.526-1.955a0.38,0.38,0,0,1,.066-0.534l0.222-.173a0.381,0.381,0,0,1,.5.031c0.1,0.1.164,0.158,0.211,0.2l0-.007c0.1-.158.212-0.33,0.331-0.522s0.248-.4.394-0.625l-1-1.285-0.29.095c-0.244.079-.479,0.154-0.717,0.237a1.657,1.657,0,0,0-.237.1,3.746,3.746,0,0,0,.239.446,0.38,0.38,0,0,1-.093.5l-0.222.173a0.38,0.38,0,0,1-.533-0.066l-1.427-1.829a0.25,0.25,0,1,0-.052-0.466,0.382,0.382,0,0,1-.316-0.169l-1.622-2.431a0.378,0.378,0,0,1-.056-0.285,0.348,0.348,0,0,1,.019-0.045c-0.006,0-.012,0-0.019,0a0.38,0.38,0,0,1-.33-0.191l-1.235-2.151A0.38,0.38,0,0,1,48,87.055l0.244-.14a0.381,0.381,0,0,1,.493.1c0.082,0.109.14,0.18,0.182,0.225l0.005-.007c0.127-.142.257-0.3,0.4-0.472s0.3-.359.477-0.561L49,84.788l-0.3.052c-0.254.044-.5,0.086-0.747,0.134a1.655,1.655,0,0,0-.249.064,3.672,3.672,0,0,0,.174.474,0.38,0.38,0,0,1-.16.478l-0.244.14a0.389,0.389,0,0,1-.288.037,0.379,0.379,0,0,1-.231-0.178L45.8,83.978a0.375,0.375,0,0,1,.064-0.452c-0.01,0-.019,0-0.029,0a0.38,0.38,0,0,1-.342-0.216L43.231,78.6a0.38,0.38,0,0,1,.031-0.382l0.106-.151a0.372,0.372,0,0,1,.114-0.092l-0.2.031a0.381,0.381,0,0,1-.413-0.231l-1.989-4.831a0.369,0.369,0,0,1,.011-0.282,0.38,0.38,0,0,1-.169-0.192l-0.944-2.523a0.372,0.372,0,0,1-.011-0.2,0.365,0.365,0,0,1-.251-0.222c-0.042-.124-0.071-0.233-0.1-0.357a2.171,2.171,0,0,1,.359-2.108c0.266-.379.586-0.764,0.9-1.138l0.341-.415c0.139-.172.151-0.186,0.033-0.532l-1.132.389a1.3,1.3,0,0,0-.473.214,2.156,2.156,0,0,0,.086.524,0.38,0.38,0,0,1-.246.447l-0.266.091a0.381,0.381,0,0,1-.483-0.236l-0.872-2.535a0.38,0.38,0,0,1,.236-0.483l0.266-.091a0.38,0.38,0,0,1,.468.2,2.267,2.267,0,0,0,.262.475,2.342,2.342,0,0,0,.494-0.138l3.789-1.3a1.359,1.359,0,0,0,.465-0.208,2.44,2.44,0,0,0-.085-0.522A0.38,0.38,0,0,1,43.8,61.35l0.266-.091a0.379,0.379,0,0,1,.483.236l0.833,2.421A3.166,3.166,0,0,1,45.594,65.764Zm5.028,19.5,0.745-.87-1.138.186ZM56.433,93.9l0.615-.967-1.1.345ZM41.7,72.347c2.081,0.5,4.22.977,6.139,1.4L47.367,72.59c-0.306-.742-0.357-0.753-0.547-0.792a3.276,3.276,0,0,0-.826-0.025,0.392,0.392,0,0,1-.379-0.246l-0.105-.282a0.379,0.379,0,0,1,.245-0.5c0.188-.057.426-0.124,0.671-0.193l0.318-.09a0.371,0.371,0,0,1-.143-0.148,2.244,2.244,0,0,0-.279-0.472,2.2,2.2,0,0,0-.5.15l-3.738,1.4a2.081,2.081,0,0,0-.475.222,2.922,2.922,0,0,0,.108.53A0.37,0.37,0,0,1,41.7,72.347Zm2.583-8.2a1.465,1.465,0,0,0-.105-0.247c-0.027.007-.068,0.019-0.127,0.039l-1.967.677,0.033,0.1a1.283,1.283,0,0,0,.471.748,1.048,1.048,0,0,0,1.027.087A0.984,0.984,0,0,0,44.288,64.144Zm-3.056-1.012a4.625,4.625,0,0,1-1.112.14,3.725,3.725,0,0,1-3.132-5.643,3.745,3.745,0,0,1,2.323-1.657,4.082,4.082,0,0,1,1.449-.086v0a0.38,0.38,0,0,1,.209-0.441,3.521,3.521,0,0,0,.685-0.391c0.136-.112.143-0.119,0.082-0.509l-0.1-.617-4.457.7a1.338,1.338,0,0,0-.462.116,1.551,1.551,0,0,0,0,.644,0.381,0.381,0,0,1-.319.411l-0.278.044a0.38,0.38,0,0,1-.436-0.316l-0.456-2.887a0.38,0.38,0,0,1,.316-0.435l0.278-.044a0.38,0.38,0,0,1,.431.292,1.745,1.745,0,0,0,.192.6,1.512,1.512,0,0,0,.479-0.035l4.457-.7L41.3,51.784c-0.071-.452-0.1-0.464-0.253-0.52a3.8,3.8,0,0,0-.7-0.167l-0.088-.016a0.38,0.38,0,0,1-.307-0.315l-0.047-.3a0.377,0.377,0,0,1,0-.067,3.884,3.884,0,0,1-1.213.331q-0.243.023-.477,0.023a3.8,3.8,0,0,1-2.442-.82,3.639,3.639,0,0,1-1.3-2.508,3.691,3.691,0,0,1,.823-2.753,3.746,3.746,0,0,1,2.539-1.3,3.923,3.923,0,0,1,2.747.741,3.691,3.691,0,0,1,1.444,2.648,3.626,3.626,0,0,1-.766,2.621,3.511,3.511,0,0,1-.67.627c0.5-.031,1.008-0.064,1.463-0.111a0.379,0.379,0,0,1,.414.319L42.5,50.445a0.382,0.382,0,0,1-.126.346,0.234,0.234,0,0,0-.023.194l0.626,3.961a0.609,0.609,0,0,0,.033.145s0.02,0.016.086,0.053a0.38,0.38,0,0,1,.189.273l0.037,0.238a0.38,0.38,0,0,1-.316.434c-0.248.039-.587,0.106-0.944,0.184a3.754,3.754,0,0,1,1.51,5.15A3.68,3.68,0,0,1,41.232,63.132ZM40.876,46.669a1.558,1.558,0,0,0-.685-1.145,2.613,2.613,0,0,0-1.5-.4q-0.2,0-.418.021c-1.652.159-2.767,1.142-2.652,2.336,0.106,1.106,1.059,1.657,2.619,1.505C39.962,48.818,41,47.91,40.876,46.669ZM42.8,58.794a1.558,1.558,0,0,0-.844-1.034,2.321,2.321,0,0,0-1.033-.219,3.855,3.855,0,0,0-.919.12,3.5,3.5,0,0,0-1.887,1.1,1.787,1.787,0,0,0-.4,1.6,1.5,1.5,0,0,0,.831,1.058,3.026,3.026,0,0,0,1.979.052,3.388,3.388,0,0,0,1.948-1.136A1.779,1.779,0,0,0,42.8,58.794ZM41.174,43.66l-0.281.012a0.382,0.382,0,0,1-.392-0.319,1.722,1.722,0,0,0-.149-0.589,1.077,1.077,0,0,0-.384-0.007l-3.861.21a2.791,2.791,0,0,0-.744.114,2.076,2.076,0,0,0-.071.537,0.38,0.38,0,0,1-.363.358l-0.281.012H34.632a0.38,0.38,0,0,1-.38-0.364l-0.117-2.671a0.38,0.38,0,0,1,.363-0.4l0.281-.013a0.377,0.377,0,0,1,.394.326,1.916,1.916,0,0,0,.1.463,3.477,3.477,0,0,0,.755,0l2.328-.1L38.024,41.1c-1.523-.611-3.1-1.244-3.707-1.456a0.38,0.38,0,0,1-.255-0.342l-0.012-.261a0.38,0.38,0,0,1,.231-0.367c0.641-.272,2.27-1.019,3.849-1.756-1.994,0-2.611.013-2.8,0.022-0.264.016-.274,0.017-0.309,0.618a0.38,0.38,0,0,1-.364.358l-0.281.012a0.386,0.386,0,0,1-.4-0.363l-0.1-2.379a0.38,0.38,0,0,1,.364-0.4l0.281-.012a0.373,0.373,0,0,1,.393.324c0.076,0.513.143,0.52,0.426,0.549s0.533,0.032,1.753.063l2.7,0.07a0.613,0.613,0,0,0,.249-0.016,1.375,1.375,0,0,0,.093-0.6,0.38,0.38,0,0,1,.363-0.362l0.281-.012a0.376,0.376,0,0,1,.4.363l0.077,1.747a0.381,0.381,0,0,1-.213.358l-4.237,2.073,4.418,1.833a0.382,0.382,0,0,1,.234.334l0.077,1.758A0.38,0.38,0,0,1,41.174,43.66Z"/>
  </g>
  <rect id="Rectangle_2_copy_3" data-name="Rectangle 2 copy 3" class="cls-4" x="46" y="119" width="58" height="30"/>
  <path id="Rectangle_2_copy_3-2" data-name="Rectangle 2 copy 3" class="cls-5" d="M46,146v-3h58v3H46Zm0-24h58v3H46v-3Z"/>
  <path id="_52" data-name="52" class="cls-5" d="M68.471,138.154a4.091,4.091,0,0,1-1.954-.419l-0.9,2.811a4.939,4.939,0,0,0,1.386.479,7.8,7.8,0,0,0,1.665.2,5.049,5.049,0,0,0,3.589-1.246A4.734,4.734,0,0,0,73.6,136.34a5.1,5.1,0,0,0-.977-3.3,3.5,3.5,0,0,0-2.632-1.306l-0.638.12V130.2h3.768v-3.23h-6.5v7.736l1.236-.06a3.224,3.224,0,0,1,1.834.409,1.554,1.554,0,0,1,.578,1.365,1.819,1.819,0,0,1-.429,1.246A1.727,1.727,0,0,1,68.471,138.154Zm16.085-7.536a3.834,3.834,0,0,0-1.067-2.971,3.766,3.766,0,0,0-2.642-.977,6.067,6.067,0,0,0-2.223.359,6.41,6.41,0,0,0-1.744,1.056l1.276,2.413a2.146,2.146,0,0,1,.8-0.548,2.381,2.381,0,0,1,.917-0.21,1.254,1.254,0,0,1,1.356,1.476,7.558,7.558,0,0,1-1.186,3.529,29.051,29.051,0,0,1-2.8,4.067v2.113H84.8v-2.911H82.084l-1.336.439v-0.14l0.977-.777Q84.556,133.768,84.556,130.618Z"/>
</svg>
