<svg id="axis_tunisia_rifle_2_icon" xmlns="http://www.w3.org/2000/svg" width="150" height="150" viewBox="0 0 150 150">
  <defs>
    <style>
      .cls-1 {
        fill: #eee;
      }

      .cls-1, .cls-2, .cls-4 {
        fill-rule: evenodd;
      }

      .cls-2, .cls-3 {
        fill: #151515;
      }

      .cls-4 {
        fill: #f2f2f2;
      }
    </style>
  </defs>
  <g id="axis_tunisia_mortarman_1_icon_copy" data-name="axis_tunisia_mortarman_1_icon copy">
    <path id="Shape_267_copy_4" data-name="Shape 267 copy 4" class="cls-1" d="M73.278,3.418H28.86V56.675s-0.17,43.478,44.827,65.02a3.06,3.06,0,0,0,2.626,0c45-21.542,44.827-65.02,44.827-65.02V3.418H73.278"/>
    <path id="Shape_267_copy_5" data-name="Shape 267 copy 5" class="cls-2" d="M116.734,81.573c-5.175,12.573-16.3,29.931-39.892,41.228a4.294,4.294,0,0,1-3.683,0c-23.6-11.3-34.718-28.655-39.892-41.228-5.611-13.632-5.633-24.448-5.632-24.9V2.193h94.73V56.675C122.366,57.125,122.344,67.941,116.734,81.573Zm3.181-76.93H30.085V56.675a69.8,69.8,0,0,0,5.488,24.063c5.018,12.142,15.8,28.914,38.644,39.852a1.865,1.865,0,0,0,1.568,0c22.848-10.938,33.626-27.709,38.644-39.851a69.819,69.819,0,0,0,5.487-24.06V4.643ZM78.429,70.692a94.946,94.946,0,0,0,9.9,6.571l3.925-5.385a1.654,1.654,0,1,1,2.672,1.948L91.247,78.87c0.746,0.326,1.81.739,3.348,1.251,4.522,1.507,10.384,2.68,10.384,5.192a4.574,4.574,0,0,1-4.131,4.195c-0.074,0-.149,0-0.224-0.008-0.654-.047-9.92-5.4-12.216-6.736L83.535,89.45A1.654,1.654,0,0,1,80.862,87.5l4.784-6.562A106.273,106.273,0,0,1,75,73.531,106.094,106.094,0,0,1,64.354,80.94L69.138,87.5a1.654,1.654,0,0,1-2.672,1.948l-4.874-6.685C59.3,84.1,50.03,89.454,49.376,89.5c-0.075.005-.15,0.008-0.224,0.008a4.574,4.574,0,0,1-4.13-4.195c0-2.512,5.861-3.685,10.383-5.192,1.538-.512,2.6-0.925,3.348-1.251l-3.678-5.045a1.659,1.659,0,0,1,.362-2.31,1.659,1.659,0,0,1,2.31.362l3.926,5.385a94.979,94.979,0,0,0,9.9-6.571C40.085,43.4,40.332,8.609,40.332,8.609l0.838,1.507c3.392,28.165,20.85,47.3,33.83,57.889,12.981-10.585,30.439-29.724,33.831-57.889l0.838-1.507S109.915,43.4,78.429,70.692ZM84.06,45.65c3.5,0,6.683-3.1,6.683-3.1-0.442,5.573-5.86,7.221-9.036,7.221a4.864,4.864,0,0,1-1.906-.3,17.288,17.288,0,0,1-3.576-3.144c-1.09,2.328-2.7,4.2-4.575,4.372-0.406.037-.788,0.053-1.147,0.053a10.54,10.54,0,0,1-1.91-.168c-1.721-.175-4.428-0.6-5.317-1.56-1.34-1.452-2.679-5.359,2.121-8.039a9.913,9.913,0,0,1,4.869-1.371,8.326,8.326,0,0,1,2.254.311,12.908,12.908,0,0,0-.535-2.736c-1.117-3.238-5.471-9.044-6.364-13.286s1.452-12.059,8.262-14.292a13.822,13.822,0,0,1,4.311-.723c4.578,0,7.826,2.594,8.864,5.189a7.944,7.944,0,0,1-1.452,8.6,5.266,5.266,0,0,1-3.964,1.786,4.131,4.131,0,0,1-3.628-1.9A8.086,8.086,0,0,1,76.9,17.43c1.063,1.772,2.337,2.63,3.821,2.63a4.487,4.487,0,0,0,1.2-.174c2.01-.558,3.35-3.461,1.229-6.252a6.6,6.6,0,0,0-5.3-2.782,8.8,8.8,0,0,0-4.862,1.665,8,8,0,0,0-2.679,10.719c1.675,2.9,7.034,12.17,7.369,16.189a12.077,12.077,0,0,1-.295,3.464,15.343,15.343,0,0,0,5.207,2.565A5.466,5.466,0,0,0,84.06,45.65ZM72.432,43.221a5.25,5.25,0,0,0-2.267-.547,4.9,4.9,0,0,0-4.209,2.669c-1.451,2.457,0,3.685,2.345,4.131a2.1,2.1,0,0,0,.393.037,2.952,2.952,0,0,0,2.069-1.065,8.976,8.976,0,0,0,1.794-5.157Z"/>
  </g>
  <g id="ger_copy_5" data-name="ger copy 5">
    <rect id="Rectangle_2_copy_3" data-name="Rectangle 2 copy 3" class="cls-3" x="46" y="119" width="58" height="30"/>
    <path id="Rectangle_2_copy_3-2" data-name="Rectangle 2 copy 3" class="cls-4" d="M46,146v-3h58v3H46Zm0-24h58v3H46v-3Z"/>
    <path id="_433" data-name="433" class="cls-4" d="M68.992,134.645H67.317v-7.676h-3.07l-4.925,8.194v2.273h4.9v3.489h3.09v-3.489h1.675v-2.791Zm-4.765,0H62.911l-0.937.2,0.8-.518,0.977-1.535,0.6-1.735h0.1l-0.219,1.894v1.7Zm10.163,3.668a4.472,4.472,0,0,1-2.093-.518l-0.917,2.692a4.161,4.161,0,0,0,1.485.538,9.335,9.335,0,0,0,1.844.2A4.6,4.6,0,0,0,78,140.058a4.676,4.676,0,0,0,1.236-3.559,4.506,4.506,0,0,0-.748-2.8,2.974,2.974,0,0,0-1.9-1.166l-0.9.1v-0.139l0.877-.519,2.074-2.751v-2.253H71.659v2.911h2.313l1.555-.239-1.156.937-1.635,2.233v2.153h1.156a2.369,2.369,0,0,1,1.565.4,1.626,1.626,0,0,1,.449,1.276A1.414,1.414,0,0,1,74.39,138.313Zm11.24,0a4.472,4.472,0,0,1-2.093-.518l-0.917,2.692a4.161,4.161,0,0,0,1.485.538,9.334,9.334,0,0,0,1.844.2,4.6,4.6,0,0,0,3.29-1.166,4.676,4.676,0,0,0,1.236-3.559,4.506,4.506,0,0,0-.748-2.8,2.974,2.974,0,0,0-1.9-1.166l-0.9.1v-0.139l0.877-.519,2.073-2.751v-2.253H82.9v2.911h2.313l1.555-.239-1.156.937-1.635,2.233v2.153h1.156a2.369,2.369,0,0,1,1.565.4,1.625,1.625,0,0,1,.449,1.276A1.414,1.414,0,0,1,85.63,138.313Z"/>
  </g>
</svg>
