<svg id="axis_tunisia_prem_biker_1_icon" xmlns="http://www.w3.org/2000/svg" width="150" height="150" viewBox="0 0 150 150">
  <defs>
    <style>
      .cls-1 {
        fill: #151515;
      }

      .cls-1, .cls-2, .cls-3 {
        fill-rule: evenodd;
      }

      .cls-2 {
        fill: #fff;
      }

      .cls-3 {
        fill: #eee;
      }
    </style>
  </defs>
  <path class="cls-1" d="M114.861,97.159a1.86,1.86,0,0,1-3.048,1.084c-1.079-.932-3.6-3.048-8.383-6.752-5.7-4.416-11.375-7.27-14.461-7.269a2.455,2.455,0,0,0-1.5.384c-1.739,1.33-1.88,4.706-1.767,6.32L111.339,119.7a2.487,2.487,0,0,1-.2,3.512l-28.128,25a1.927,1.927,0,0,1-2.725-.165l-27.548-31.2a2.308,2.308,0,0,1,.153-3.228L75.912,92.046a7.127,7.127,0,0,1-.956.065,3.476,3.476,0,0,1-2.933-1.149,2.662,2.662,0,0,1-.416-2.387,2.621,2.621,0,0,1,1.231-1.668,2.743,2.743,0,0,1-1.663-1.372,2.886,2.886,0,0,1,.313-2.945,4.363,4.363,0,0,1,2.737-1.236l-0.354-4.368c-7.053-3.628-20.329-10.147-24.151-10.911-3.666-.733-13.429-1.035-18.674-1.2-2.364-.073-3.621-0.113-4.108-0.162a2.242,2.242,0,0,1-2.023-1.264,2.523,2.523,0,0,1,.409-2.393l0.093-.123,0.119-.1A35.97,35.97,0,0,1,39.7,54.363a24.123,24.123,0,0,1,5.277-.581,25.633,25.633,0,0,1,5.831.679c-3.222-3.633-6.225-6.989-6.93-7.694-1.422-1.422-2.651-3.828-2.214-5.141a1.932,1.932,0,0,1,2.014-1.1h0.006q0.116,0,.24,0c-0.311-.534-0.595-1.052-0.816-1.466-1.9-3.565-1.745-4.176-1.644-4.58,0.331-1.323,1.936-1.431,3.843-1.431h0.15c-1.72-3.651-3.213-9.1-2.737-10.67a1.559,1.559,0,0,1,.912-1.035,1.88,1.88,0,0,1,.71-0.127c1.858,0,7.916,2.636,13.5,8.728a48.31,48.31,0,0,0,4.028,3.991c-1.25-6.409,1.566-10.924,3.706-14.354a23.522,23.522,0,0,0,1.949-3.524c0.867-2.206.067-6.525-2.2-11.85A2.1,2.1,0,0,1,67.264,1.3h0a2.131,2.131,0,0,1,.975.24c15.728,8.152,14.687,18,13.769,26.687-0.079.748-.157,1.49-0.225,2.227-0.811,8.918-.29,12.917,2.229,17.115,0.925,1.541,4.066,4.96,7.392,8.581,7.629,8.3,12.261,13.539,12.261,16.214a4.055,4.055,0,0,1-1.338,3.317c4.219,2.082,9.405,5.486,11.369,9.543C115.875,89.725,115.237,95.07,114.861,97.159ZM43.684,41.852a1.55,1.55,0,0,0-.685.1,0.171,0.171,0,0,0-.081.09A0.171,0.171,0,0,1,43,41.955a1.55,1.55,0,0,1,.685-0.1h0Z"/>
  <path id="Shape_282_copy" data-name="Shape 282 copy" class="cls-1" d="M54.465,115.322l24.318-22.8L78.106,88.8l-1.181.591a5.013,5.013,0,0,1-1.968.412,1.608,1.608,0,0,1-1.111-.26,0.578,0.578,0,0,1,0-.4c0.058-.231.206-0.317,0.93-0.539a3.951,3.951,0,0,0,1.737-.9A1.6,1.6,0,0,0,77.04,86.1a2.03,2.03,0,0,0-1.5-1.262l-0.165-.041-0.169.016c-0.241.023-.461,0.034-0.663,0.034a1.57,1.57,0,0,1-1.3-.341,0.632,0.632,0,0,1,.095-0.525,7.676,7.676,0,0,1,2.374-.467l1-.067-0.643-7.922-0.488-.252c-0.821-.425-20.165-10.411-25.409-11.46-3.856-.771-13.372-1.065-19.057-1.241-1.85-.057-3.333-0.1-3.86-0.144a34.952,34.952,0,0,1,12.95-5.807,21.824,21.824,0,0,1,4.771-.525A23.118,23.118,0,0,1,53.9,57.885a1.188,1.188,0,0,0,1.361-1.878c-2.552-2.89-8.609-9.734-9.75-10.874a6.642,6.642,0,0,1-1.471-2.279,23.569,23.569,0,0,1,2.481.335L50.28,43.9l-2.939-2.449c-0.7-.584-2.779-4.408-3.425-6.03,0.3-.03.741-0.056,1.392-0.056,1.175,0,2.35.083,2.362,0.084L49.717,35.6l-1.158-1.693c-1.816-2.655-3.4-8.255-3.616-10.255,1.865,0.532,6.719,2.98,11.2,7.866,3.754,4.1,6.578,6.351,7.952,6.351h0.055l1.35-.148-0.469-1.2c-2.8-7.186.021-11.71,2.511-15.7a25.054,25.054,0,0,0,2.139-3.9c1.412-3.6-.536-9.512-1.992-13.056,13.8,7.365,12.9,15.884,12.025,24.124-0.08.759-.16,1.513-0.228,2.26-0.853,9.379-.234,13.877,2.549,18.513C83.076,50.5,86.147,53.84,89.7,57.71c4.64,5.05,11.652,12.682,11.652,14.65,0,1.563-.587,1.827-1.9,1.827-0.326,0-.665-0.022-1-0.048-0.576-.045-0.921-0.062-1.1-0.062a1.024,1.024,0,0,0-1.136.9c-0.1.909,0.739,1.1,1.353,1.245,0.183,0.042.523,0.121,0.617,0.156,5.118,1.949,11.5,5.864,13.435,9.851,1.66,3.433,1.409,7.54,1.1,9.744-1.327-1.123-3.789-3.147-7.866-6.307-6.265-4.855-12.2-7.754-15.877-7.754a4.663,4.663,0,0,0-2.9.86c-3.34,2.553-2.652,8.574-2.621,8.829l0.037,0.308,26.129,29.332a0.172,0.172,0,0,1,.044.127,0.176,0.176,0,0,1-.058.121l-27.84,24.746Z"/>
  <path id="Shape_282_copy_2" data-name="Shape 282 copy 2" class="cls-2" d="M69.594,6.1c10.725,6.686,9.95,14.034,9.131,21.779-0.081.764-.161,1.523-0.229,2.275-0.875,9.622-.222,14.266,2.686,19.113,1.1,1.829,4.2,5.206,7.792,9.116,4.135,4.5,11.047,12.025,11.39,14.018a1.78,1.78,0,0,1-.1.7,2.132,2.132,0,0,1-.807.1c-0.311,0-.659-0.024-0.926-0.045-0.743-.058-1.02-0.065-1.179-0.065-1.318,0-5.671.054-5.768,0.91-0.05.442,3.444,2.654,5.762,3.188,0.161,0.037.431,0.1,0.487,0.116,4.941,1.882,11.084,5.613,12.9,9.357a15.2,15.2,0,0,1,1.19,7.358c-1.445-1.189-3.541-2.873-6.462-5.136-2.41-1.868-10.721-7.962-16.483-7.961a5.625,5.625,0,0,0-3.5,1.063c-3.72,2.845-3.087,9.039-3,9.735l0.075,0.616L82.951,92.8l25.38,28.491L81.844,144.833,55.838,115.381,79.067,93.614l0.787-.738-0.193-1.062L79.317,89.92l-0.452-2.608-1.259.629a2.505,2.505,0,0,0,.389-2.108,2.551,2.551,0,0,0-1.018-1.413l0.806-.054-0.162-2L77.1,75.99l-0.089-1.095-0.975-.5C73.968,73.319,55.657,63.9,50.369,62.839c-3.937-.787-13.5-1.083-19.22-1.259l-0.784-.024a35.286,35.286,0,0,1,10.059-3.971,20.825,20.825,0,0,1,4.554-.5,22.1,22.1,0,0,1,8.532,1.711c0.276,0.118,6.625,2.72,6.977,1.938S56.571,55.992,56,55.352c-2.554-2.893-8.621-9.749-9.792-10.919C46.1,44.32,45.994,44.2,45.9,44.084c0.164,0.028.315,0.054,0.442,0.079l7.512,1.427L48,40.714a27.429,27.429,0,0,1-2.57-4.354c1.1,0.005,2.161.08,2.172,0.081l4.092,0.291-2.316-3.385a29.183,29.183,0,0,1-3.135-8.126,30.537,30.537,0,0,1,9.17,6.966c6.116,6.672,8.047,6.672,8.682,6.672h0.121l0.107-.012,2.569-.281L65.95,36.157C63.33,29.434,65.9,25.319,68.378,21.34A25.748,25.748,0,0,0,70.6,17.275c1.19-3.028.316-7.345-1.005-11.177m-2.33-3.48A0.779,0.779,0,0,0,66.546,3.7c1.341,3.157,3.581,9.358,2.209,12.85-1.895,4.823-8.613,10.163-4.651,20.326H64.091c-0.161,0-1.836-.154-7.221-6.029-5.333-5.818-11.121-8.3-12.527-8.3a0.61,0.61,0,0,0-.219.032c-0.861.345,1.378,8.613,3.617,11.885,0,0-1.206-.086-2.433-0.086s-2.476.086-2.562,0.431c-0.172.689,2.928,6.546,3.962,7.407a21.583,21.583,0,0,0-3.023-.364,0.883,0.883,0,0,0-.767.192c-0.172.517,0.517,2.411,1.895,3.789,1.156,1.156,7.647,8.5,9.707,10.829a0.2,0.2,0,0,1-.146.329,0.208,0.208,0,0,1-.082-0.017A24.247,24.247,0,0,0,44.978,55.1a22.744,22.744,0,0,0-4.988.549,34.89,34.89,0,0,0-13.608,6.2s-1.033,1.378.689,1.55,17.742,0.344,22.909,1.378S75.129,76.15,75.129,76.15l0.517,6.373s-2.584.172-3.1,0.861c-0.477.637-.808,2.45,2,2.45,0.231,0,.483-0.012.757-0.038,0,0,1.378.345,0.517,1.206s-2.584.517-2.928,1.895,0.689,1.895,2.067,1.895a5.919,5.919,0,0,0,2.412-.517l0.344,1.895L53.788,114.587a1,1,0,0,0-.066,1.391l27.548,31.2a0.605,0.605,0,0,0,.858.052l28.128-25a1.167,1.167,0,0,0,.1-1.647L84.43,91.48s-0.689-5.684,2.239-7.924a3.709,3.709,0,0,1,2.3-.656c3.7,0,9.762,3.278,15.27,7.546,4.79,3.712,7.332,5.843,8.437,6.8a0.532,0.532,0,0,0,.35.132,0.543,0.543,0,0,0,.535-0.45c0.364-2.025.948-6.991-1.054-11.13-2.163-4.471-9.048-8.47-13.974-10.346-0.392-.149-1.8-0.382-1.186-0.382,0.168,0,.489.018,1.025,0.059,0.365,0.028.729,0.051,1.08,0.051,1.575,0,2.892-.45,2.892-2.818,0-3.825-16.88-19.809-19.464-24.115s-3.273-8.44-2.411-17.914c0.829-9.12,3.414-19.2-12.837-27.621a0.794,0.794,0,0,0-.368-0.092h0Z"/>
  <path id="Shape_282_copy_3" data-name="Shape 282 copy 3" class="cls-3" d="M71.942,117.49L82.1,129.375l10.938-9.388-9.818-11.8Z"/>
</svg>
