<svg id="ger_moscow_radioman_2_icon" xmlns="http://www.w3.org/2000/svg" width="150" height="150" viewBox="0 0 150 150">
  <defs>
    <style>
      .cls-1 {
        fill: #ffb32f;
      }

      .cls-1, .cls-2 {
        fill-rule: evenodd;
      }

      .cls-2 {
        fill: #151515;
      }
    </style>
  </defs>
  <path class="cls-1" d="M112.137,40.313V56.077L82.067,73.44v64.72L67.9,146.042V81.622L37.864,98.965V83.2L67.9,65.858v-18.6L37.864,64.6V48.834L67.9,31.491V11.84L82.067,3.958V23.309l30.07-17.364V21.709L82.067,39.073v18.6Z"/>
  <path class="cls-2" d="M111.171,4.275L84,20.11V0.612L81.1,2.287,66.932,10.169l-0.964.558V30.212L36.9,47.163l-0.965.557V67.941l2.9-1.672L65.967,50.434V64.579L36.9,81.53l-0.965.557v20.221l2.9-1.672L65.967,84.8v64.587l2.9-1.675,14.169-7.881L84,139.274V74.7L113.1,57.748l0.965-.557V36.97l-2.9,1.672L84,54.477V40.332L113.1,23.381l0.965-.557V2.6ZM81.826,73.167l-0.241.138v64.576l-13.2,7.324V80.621L38.346,98.129V83.48l29.793-17.37,0.241-.139V46.254L38.346,63.761V49.114l29.793-17.37,0.241-.139V12.117l13.2-7.323v19.5l30.07-17.507V21.43L81.826,38.8l-0.241.139V58.657l30.07-17.507V55.8Z"/>
</svg>
