<svg id="Layer_1" data-name="Layer 1" xmlns="http://www.w3.org/2000/svg" width="150" height="150" viewBox="0 0 150 150">
  <defs>
    <style>
      .cls-1 {
        fill: #eee;
      }

      .cls-2 {
        fill: #d81e0a;
      }
    </style>
  </defs>
  <g>
    <polygon class="cls-1" points="5.738 85.28 29.51 68.029 29.51 76.7 62.89 76.7 62.89 61.95 43.948 48.2 69.8 29.439 69.8 76.7 145.03 76.7 145.03 93.87 29.51 93.87 29.51 102.542 5.738 85.28"/>
    <polygon class="cls-2" points="49 50.797 63.84 61.562 63.84 50.797 49 50.797"/>
    <polygon points="63.84 45.389 63.84 34.623 49 45.389 63.84 45.389"/>
    <path d="M68.8,31.4V77.7h75.23V92.87H28.51v7.71L7.44,85.28,28.51,69.99V77.7H63.89V61.44L45.65,48.2,63.89,34.96,68.8,31.4m2-3.92048-3.174,2.3013-4.91,3.56L44.47513,46.58146,42.24535,48.2l2.22978,1.61855L61.89,62.4596V75.7H30.51V66.06753l-3.17465,2.30378-21.07,15.29L4.03546,85.27948l2.22939,1.61885,21.07,15.3L30.51,104.504V94.87H146.03V75.7H70.8V27.47953Z"/>
  </g>
</svg>
