<svg id="Layer_1" data-name="Layer 1" xmlns="http://www.w3.org/2000/svg" width="150" height="150" viewBox="0 0 150 150">
  <defs>
    <style>
      .cls-1 {
        fill: #eee;
      }

      .cls-2 {
        fill: #151515;
      }
    </style>
  </defs>
  <path class="cls-1" d="M75.66,145.12c2.43,0,9.25-2,15-5.45,18.76-11.36,42.48-26.95,42.48-51.2V4.74H18.21V88.49c0,24.25,23.72,39.84,42.48,51.2C66.38,143.14,73.23,145.12,75.66,145.12Z"/>
  <path class="cls-2" d="M130.47,6.92V89.11c0,21.88-21.59,36.78-41.82,49-5.34,3.23-11.53,4.94-13,5s-7.65-1.72-13-5c-20.23-12.24-41.82-27.14-41.82-49V6.92H130.47m5-5H15.85V89.11c0,25.24,24.69,41.47,44.23,53.3,6,3.6,13,5.67,15.58,5.67s9.63-2.07,15.58-5.67c19.54-11.83,44.23-28.06,44.23-53.3Z"/>
  <path d="M73.05,66.47c-.4-5.33.92-4.82-4.71-5.49a31.26,31.26,0,0,1-12.15-3.61A26.99968,26.99968,0,0,1,52,54.28c-1.06-1-2-2.59.15-3.79a4,4,0,0,1,2-.49,17.10991,17.10991,0,0,1,5.07.8c3.77,1.29,7.46,2.83,11.15,4.33,2.14.87,2.38.8,2.6-1.43a12.99977,12.99977,0,0,0,0-2.16c-.14-2.43-.63-3-3.09-3.18a33.68011,33.68011,0,0,1-16-5.66,9.62994,9.62994,0,0,1-2.57-2.52c-1-1.41-.52-2.55,1.12-3a7,7,0,0,1,3.33-.12c3.25.91,6.44,2,9.63,3.12,2,.7,4,1.66,6.08,2.28,1,.29,2.3.67,3-.7a3.11,3.11,0,0,0-1.29-3.63,23.63048,23.63048,0,0,0-5.33-2A42.66978,42.66978,0,0,1,54.2,30.48a17.99991,17.99991,0,0,1-3.53-2.8c-1.28-1.35-.78-2.64,1.06-2.82a15.5501,15.5501,0,0,1,5.44.22c3.08.8,6.08,2,9.09,3.08.89.32,1.7.86,2.58,1.23a12.899,12.899,0,0,0,1.73.44,6.44019,6.44019,0,0,0,.09-1.75c-.74-3.54.33-6.73,2-9.72a3.58,3.58,0,0,1,2.49-1.8,3.76,3.76,0,0,1,2.39,2,14,14,0,0,1,.85,10.16c-.31,1.18-.75,2.32-1,3.49a1.84006,1.84006,0,0,0,.12,1.18,1.91007,1.91007,0,0,0,1.41-.09c1.31-.85,2.58-1.77,3.8-2.74,4-3.17,8.64-4.75,13.53-5.77a6.06994,6.06994,0,0,1,2.08-.12q.69249.1322,1.37.33a1.63,1.63,0,0,1,1.13,2v.1a4.29963,4.29963,0,0,1-.68,1.31c-4.25,5.12-9.41,8.44-16.41,8a36.51129,36.51129,0,0,0-4.67.31,2.29,2.29,0,0,0-2.27,2.30983V39.11a29.09819,29.09819,0,0,0,0,4.94c.16,1.63.88,2,2.3,1.24a24.0686,24.0686,0,0,0,3-2,24.27,24.27,0,0,1,13.46-5.18,6.79,6.79,0,0,1,2,.31A1.84,1.84,0,0,1,99,40.58a2.00007,2.00007,0,0,1-.13.42,3.75986,3.75986,0,0,1-.71,1.32A21.22,21.22,0,0,1,83.63,49c-1.3.1-2.62,0-3.91.1a3.34,3.34,0,0,0-3,3.07c-.14,2,0,4.09-.08,6.13,0,.93.39,1.05,1.1.57l4.76-3.2a28.13982,28.13982,0,0,1,12.09-4.52c1.47-.2,3.27-.46,4,1s-.85,2.5-1.86,3.35a24.64005,24.64005,0,0,1-15.21,6h-1.3c-2.53.14-3.3.76-3.48,3.26-.17,2.25-.07,4.52-.11,6.78,0,1.3.54,1,1.2.47,1.62-1.33,3.18-2.71,4.84-4,5.43-4.2,11.65-3.93,18-3,.89.13.91.77.4,1.31a8.32963,8.32963,0,0,1-1.82,1.47C93.13,71.33,86.91,74.57,79.64,75c-2,.11-2.57.76-2.88,2.79a5.62027,5.62027,0,0,0,0,1.16c.2,1.73.42,3.45.64,5.18a39.99745,39.99745,0,0,0,4.51-2.33,31.58,31.58,0,0,1,13.6-5.59c1.48-.19,3.2-.59,4.1.81,1,1.58-.25,3-1.27,4.16-4,4.4-9.14,6.48-15,6.92-1.3.1-2.61,0-3.9.15a2.62,2.62,0,0,0-2.67,2.569l0,.001a1.32977,1.32977,0,0,0,0,.2,34.08174,34.08174,0,0,0,0,5c.14,1.48.76,1.81,2.14,1.17s2.91-1.56,4.33-2.4a26.62994,26.62994,0,0,1,12.4-3.52c1.39-.07,3.12-.14,3.69,1.3.69,1.72-1,2.63-2.17,3.43a30.26005,30.26005,0,0,1-16.53,5.62H78.8c-2.12.07-2.1.07-2.17,2.23-.16,4.51-.26,9-.58,13.53-.08,1.07-.93,2.08-1.42,3.11a10.7701,10.7701,0,0,1-1.25-3.2c-.24-4.16-.28-8.34-.35-12.52a3.6,3.6,0,0,0-3-3.41A40.63022,40.63022,0,0,1,54.4,95.61,18.19006,18.19006,0,0,1,51.06,93a3.18011,3.18011,0,0,1-.68-1.33,1,1,0,0,1,.56-1.28A3.05992,3.05992,0,0,1,52.16,90a19.72988,19.72988,0,0,1,4.13.39,39.99987,39.99987,0,0,1,12.83,4.93c.82.49,1.65,1,2.47,1.44s1.48.49,1.45-.75c0-1.65-.07-3.3-.13-5a3.42,3.42,0,0,0-2.73-3.39c-2.09-.6-4.22-1-6.29-1.69-4.61-1.42-9-3.26-12.22-7.09a7.20979,7.20979,0,0,1-.88-1.49.58.58,0,0,1,.25753-.77876L51.05,76.57h.14a6.65,6.65,0,0,1,1.88-.24,31.72,31.72,0,0,1,18,6.84,9.33156,9.33156,0,0,0,1.57.81A11.86925,11.86925,0,0,0,73,82.15a27.39035,27.39035,0,0,0,0-3.39c-.18-2.55-.83-3.36-3.27-4.05-2.67-.75-5.49-1.13-8-2.24a88.33169,88.33169,0,0,1-10-5.51,3.46,3.46,0,0,1-1.6-2.68c.25-1.38,1.87-1.28,3-1.22a32.62986,32.62986,0,0,1,15,4.82c.58.37,1.11.84,1.71,1.19.94.55,1.92,1,2.88,1.54.1-1.11.21-2.22.3-3.33A7.2957,7.2957,0,0,0,73.05,66.47Z"/>
</svg>
