<?xml version="1.0" encoding="UTF-8" standalone="no"?>
<!DOCTYPE svg PUBLIC "-//W3C//DTD SVG 1.1//EN" "http://www.w3.org/Graphics/SVG/1.1/DTD/svg11.dtd">
<svg width="100%" height="100%" viewBox="0 0 150 150" version="1.1" xmlns="http://www.w3.org/2000/svg" xmlns:xlink="http://www.w3.org/1999/xlink" xml:space="preserve" xmlns:serif="http://www.serif.com/" style="fill-rule:evenodd;clip-rule:evenodd;stroke-linejoin:round;stroke-miterlimit:2;">
    <g transform="matrix(1,0,0,1,-22,-20)">
        <g transform="matrix(1.70633,0,0,1.67541,842.927,28.482)">
            <g id="axis_stalingrad_pilot_assaulter_1_icon" transform="matrix(0.574562,0,0,0.585166,-494.896,-47.1945)">
                <rect x="24" y="72" width="153" height="153" style="fill:none;"/>
                <g transform="matrix(1.31422,0,0,2.38768,-263.117,-5.01671)">
                    <path d="M316.797,33.965L236.321,33.965L236.321,72.787C236.321,84.741 253.928,94.433 275.647,94.433L277.471,94.433C299.19,94.433 316.797,84.741 316.797,72.787L316.797,33.965Z" style="fill:rgb(133,176,222);"/>
                </g>
                <g transform="matrix(1.02,0,0,1.02,-193.505,42.6225)">
                    <path d="M332.366,152.271C332.65,151.83 318.336,142.659 318.079,143.059C311.748,152.876 300.716,159.376 288.166,159.376C288.166,159.376 288.165,159.376 288.165,159.376C275.615,159.376 264.583,152.876 258.252,143.059C257.928,142.555 243.747,151.933 243.965,152.271C253.319,166.777 269.622,176.376 288.165,176.376L288.166,176.376C306.709,176.376 323.012,166.777 332.366,152.271Z" style="fill:white;"/>
                </g>
                <g transform="matrix(1.02,0,0,1.02,1.56,51.6)">
                    <path d="M151.689,114.878L151.689,21L42,21L42,114.878C42,144.519 66.029,168.547 95.67,168.547L98.019,168.547C127.66,168.547 151.689,144.519 151.689,114.878ZM98.755,165.542C115.217,164.956 129.675,156.505 138.479,143.827C135.915,141.967 130.268,138.349 127.533,136.794C120.723,146.346 109.552,152.575 96.926,152.575C96.926,152.575 96.925,152.575 96.924,152.575C84.319,152.575 73.163,146.366 66.35,136.839C63.945,138.339 58.055,142.032 55.405,143.874C64.224,156.546 78.699,164.984 95.157,165.545C95.329,165.547 95.499,165.547 95.67,165.547L98.019,165.547C98.265,165.547 98.511,165.546 98.755,165.542ZM140.351,142.734C145.622,134.741 148.689,125.167 148.689,114.878L148.689,24L45,24L45,114.878C45,125.215 48.096,134.829 53.41,142.843C56.223,140.688 66.733,133.825 67.012,134.257C73.343,144.074 84.374,150.575 96.924,150.575C96.925,150.575 96.926,150.575 96.926,150.575C109.476,150.575 120.508,144.074 126.838,134.257C127.057,133.918 137.4,140.473 140.351,142.734Z"/>
                </g>
                <g transform="matrix(1.02,0,0,1.02,1.56,51.6)">
                    <path d="M73.768,114.605L71.625,112.816L73.554,108.451L68.488,108.735L69.575,105.131C68.233,104.827 66.396,104.508 65.297,103.536L68.219,100.858C65.965,100.969 64.023,100.489 62.496,99.224L65.662,96.119C63.84,96.22 62.139,95.629 60.541,94.451L62.956,90.664C60.85,90.007 59.379,89.532 58.497,87.535L61.472,85.26C59.919,84.728 57.903,83.1 56.146,81.376L59.911,79.598C58.042,78.718 55.906,76.488 55.169,74.668L58.45,73.608C56.426,71.994 54.894,71.173 53.26,68.838L57.359,67.049C55.045,66.267 53.269,64.75 51.984,62.564L56.249,61.175C54.64,59.906 53.253,58.166 53.181,56.266L57.878,57.062C56.649,54.844 56.336,52.593 56.805,50.195C56.805,50.195 60.263,53.485 65.39,54.302C86.404,57.653 99.045,48.828 101.153,61.391C103.541,75.627 74.963,75.79 79.987,85.931C82.837,91.683 92.702,81.36 96.029,85.566C95.749,85.888 95.956,86.033 96.209,85.717C100.943,88.236 92.552,99.791 98.721,101.564C109.599,104.691 104.643,76.546 119.076,76.347C131.814,76.172 125.395,90.189 132.453,110.263C134.175,115.161 138.03,117.975 138.03,117.975C135.756,118.865 133.485,118.961 131.082,118.149L132.707,122.627C130.825,122.896 128.864,121.843 127.328,120.487L126.725,124.932C124.344,124.059 122.534,122.584 121.35,120.447L120.323,124.799C117.733,123.61 116.651,122.249 114.701,120.547L114.246,123.965C112.324,123.566 109.747,121.864 108.546,120.182L107.472,124.204C105.46,122.785 103.498,121.093 102.696,119.66L100.99,122.994C98.868,122.484 98.138,121.122 97.114,119.168L93.821,122.221C92.376,120.86 91.49,119.292 91.263,117.482L88.775,121.153C87.256,119.877 86.437,118.052 86.143,115.814L84.031,119.169C82.878,118.262 82.235,116.511 81.696,115.245L78.405,117.198L77.717,111.925L73.768,114.605Z" style="fill:white;"/>
                </g>
                <g transform="matrix(1.02,0,0,1.02,1.56,51.6)">
                    <path d="M96.594,85.072C95.768,84.047 94.635,83.699 93.304,83.793C91.617,83.912 89.566,84.8 87.543,85.635C86.005,86.27 84.486,86.873 83.177,86.961C82.11,87.033 81.211,86.712 80.659,85.599C80.153,84.575 80.032,83.676 80.245,82.859C80.464,82.018 81.022,81.276 81.789,80.575C82.93,79.535 84.522,78.605 86.302,77.677C89.796,75.856 93.994,74.06 97.141,71.648C100.481,69.088 102.661,65.847 101.893,61.267C101.434,58.533 100.486,56.746 99.13,55.582C97.773,54.417 95.985,53.865 93.766,53.686C87.665,53.193 78.091,55.568 65.509,53.561C60.621,52.782 57.322,49.652 57.322,49.652C57.123,49.463 56.838,49.398 56.577,49.481C56.316,49.564 56.121,49.783 56.069,50.052C55.66,52.143 55.805,54.132 56.582,56.082C56.582,56.082 53.306,55.526 53.306,55.526C53.083,55.488 52.856,55.553 52.686,55.702C52.516,55.851 52.423,56.068 52.431,56.294C52.496,57.983 53.467,59.577 54.77,60.868C54.77,60.868 51.752,61.851 51.752,61.851C51.536,61.921 51.363,62.086 51.283,62.298C51.202,62.511 51.222,62.748 51.338,62.944C52.399,64.749 53.774,66.127 55.482,67.049C55.483,67.05 52.96,68.151 52.96,68.151C52.754,68.241 52.599,68.419 52.538,68.635C52.478,68.852 52.517,69.084 52.646,69.268C54.015,71.225 55.308,72.157 56.864,73.332C56.865,73.332 54.939,73.954 54.939,73.954C54.74,74.018 54.578,74.162 54.49,74.351C54.401,74.539 54.396,74.756 54.474,74.949C55.106,76.509 56.687,78.35 58.322,79.519C58.322,79.519 55.826,80.697 55.826,80.697C55.604,80.802 55.448,81.009 55.407,81.25C55.366,81.492 55.446,81.739 55.621,81.911C57.041,83.305 58.632,84.627 60.033,85.417C60.033,85.417 58.042,86.94 58.042,86.94C57.767,87.15 57.671,87.521 57.811,87.838C58.657,89.753 59.958,90.454 61.801,91.08C61.801,91.08 59.909,94.048 59.909,94.048C59.697,94.38 59.779,94.82 60.096,95.054C61.316,95.954 62.593,96.534 63.93,96.766C63.93,96.766 61.97,98.688 61.97,98.688C61.819,98.837 61.737,99.043 61.746,99.255C61.755,99.467 61.853,99.666 62.017,99.801C63.235,100.81 64.691,101.374 66.347,101.556C66.347,101.556 64.79,102.983 64.79,102.983C64.634,103.127 64.545,103.33 64.547,103.543C64.549,103.755 64.641,103.957 64.8,104.098C65.785,104.968 67.306,105.382 68.624,105.686C68.624,105.686 67.77,108.518 67.77,108.518C67.699,108.752 67.747,109.006 67.898,109.199C68.05,109.391 68.285,109.497 68.53,109.484L72.373,109.269C72.373,109.269 70.939,112.513 70.939,112.513C70.803,112.819 70.887,113.178 71.144,113.392L73.287,115.181C73.544,115.395 73.912,115.413 74.189,115.225L77.131,113.229C77.131,113.229 77.661,117.295 77.661,117.295C77.694,117.546 77.85,117.763 78.077,117.873C78.303,117.983 78.571,117.972 78.787,117.843L81.341,116.328C81.872,117.559 82.548,118.956 83.567,119.758C83.734,119.89 83.949,119.944 84.158,119.908C84.368,119.872 84.552,119.748 84.666,119.568L85.791,117.781C86.267,119.378 87.082,120.71 88.293,121.727C88.455,121.864 88.668,121.925 88.879,121.896C89.089,121.867 89.277,121.75 89.396,121.574L90.936,119.301C91.404,120.576 92.203,121.728 93.307,122.767C93.594,123.038 94.041,123.039 94.331,122.771L96.912,120.378C97.857,122.08 98.78,123.234 100.815,123.723C101.152,123.804 101.5,123.644 101.658,123.336L102.8,121.104C103.828,122.341 105.413,123.669 107.039,124.817C107.239,124.959 107.496,124.993 107.727,124.91C107.958,124.826 108.133,124.635 108.196,124.398L108.909,121.731C110.351,123.131 112.446,124.357 114.093,124.699C114.297,124.742 114.51,124.697 114.68,124.577C114.85,124.456 114.962,124.271 114.989,124.064L115.257,122.058C116.691,123.379 117.839,124.485 120.01,125.481C120.214,125.575 120.45,125.572 120.652,125.473C120.854,125.375 121.001,125.191 121.053,124.972L121.685,122.293C122.899,123.809 124.5,124.915 126.466,125.636C126.68,125.714 126.917,125.691 127.112,125.574C127.306,125.457 127.437,125.258 127.468,125.033L127.894,121.888C129.398,122.938 131.14,123.609 132.813,123.37C133.037,123.338 133.234,123.207 133.35,123.013C133.466,122.819 133.489,122.584 133.412,122.371L132.279,119.248C134.337,119.663 136.319,119.45 138.303,118.673C138.558,118.574 138.739,118.343 138.774,118.071C138.809,117.8 138.694,117.531 138.472,117.369C138.472,117.369 134.802,114.683 133.16,110.014C128.934,97.994 129.556,88.149 127.979,82.235C127.406,80.085 126.543,78.425 125.154,77.298C123.766,76.171 121.837,75.559 119.066,75.597C114.422,75.661 111.624,78.386 109.703,82.13C107.893,85.658 106.878,90.11 105.712,93.874C105.118,95.791 104.488,97.524 103.668,98.832C103.117,99.713 102.486,100.395 101.698,100.761C100.933,101.117 100.026,101.159 98.929,100.843C97.734,100.5 97.257,99.673 97.137,98.61C96.99,97.307 97.311,95.704 97.66,94.078C98.119,91.938 98.626,89.761 98.441,88.08C98.295,86.753 97.75,85.701 96.594,85.072ZM73.815,113.667L72.539,112.602C72.539,112.602 74.24,108.755 74.24,108.755C74.346,108.516 74.319,108.239 74.171,108.025C74.022,107.81 73.773,107.688 73.512,107.703L69.515,107.926C69.515,107.926 70.293,105.348 70.293,105.348C70.353,105.149 70.328,104.933 70.223,104.754C70.118,104.574 69.944,104.446 69.741,104.4C68.762,104.178 67.488,103.973 66.499,103.452C66.499,103.452 68.726,101.411 68.726,101.411C68.959,101.197 69.033,100.86 68.911,100.569C68.79,100.277 68.498,100.093 68.182,100.109C66.456,100.194 64.926,99.914 63.657,99.135C63.657,99.135 66.187,96.654 66.187,96.654C66.41,96.435 66.474,96.102 66.348,95.816C66.222,95.53 65.932,95.352 65.62,95.37C64.188,95.449 62.841,95.047 61.564,94.242C61.564,94.242 63.588,91.067 63.588,91.067C63.714,90.87 63.74,90.626 63.66,90.407C63.58,90.187 63.402,90.018 63.179,89.948C61.509,89.427 60.257,89.083 59.451,87.75C59.451,87.75 61.928,85.856 61.928,85.856C62.147,85.688 62.257,85.413 62.212,85.14C62.168,84.867 61.977,84.641 61.715,84.551C60.467,84.123 58.914,82.935 57.455,81.587C57.455,81.587 60.231,80.276 60.231,80.276C60.494,80.152 60.661,79.888 60.661,79.598C60.661,79.307 60.493,79.043 60.231,78.919C58.754,78.224 57.094,76.615 56.225,75.115C56.225,75.115 58.681,74.321 58.681,74.321C58.944,74.236 59.139,74.014 59.188,73.742C59.238,73.471 59.134,73.194 58.918,73.021C57.185,71.64 55.816,70.867 54.428,69.147C54.429,69.147 57.659,67.736 57.659,67.736C57.943,67.612 58.121,67.326 58.108,67.017C58.095,66.707 57.892,66.437 57.599,66.338C55.749,65.713 54.275,64.577 53.142,62.975C53.142,62.976 56.481,61.888 56.481,61.888C56.744,61.802 56.939,61.579 56.987,61.307C57.036,61.034 56.931,60.757 56.713,60.586C55.55,59.669 54.487,58.495 54.091,57.18C54.091,57.181 57.752,57.802 57.752,57.802C58.036,57.85 58.323,57.731 58.489,57.496C58.656,57.261 58.673,56.951 58.534,56.699C57.617,55.045 57.252,53.372 57.37,51.624C58.825,52.707 61.65,54.465 65.272,55.043C75.84,56.728 84.303,55.36 90.388,55.141C93.786,55.019 96.402,55.218 98.153,56.72C99.291,57.696 100.029,59.223 100.413,61.515C101.078,65.476 99.117,68.244 96.229,70.458C93.148,72.819 89.03,74.564 85.609,76.347C83.7,77.341 82.001,78.352 80.779,79.467C79.774,80.384 79.08,81.38 78.793,82.481C78.499,83.606 78.617,84.854 79.315,86.264C80.188,88.027 81.591,88.572 83.279,88.458C84.725,88.36 86.415,87.723 88.115,87.022C89.687,86.373 91.271,85.671 92.666,85.393C93.64,85.199 94.512,85.2 95.153,85.734C95.122,86.101 95.872,86.685 96.194,86.603C96.839,87.137 96.998,87.998 96.981,88.994C96.957,90.416 96.55,92.1 96.194,93.763C95.808,95.562 95.484,97.337 95.647,98.778C95.836,100.46 96.624,101.742 98.514,102.285C100.027,102.72 101.275,102.612 102.33,102.121C103.362,101.642 104.218,100.781 104.94,99.629C105.818,98.226 106.508,96.374 107.145,94.318C108.287,90.633 109.265,86.269 111.038,82.815C112.699,79.577 115.071,77.152 119.087,77.097C121.411,77.065 123.045,77.518 124.209,78.462C126,79.916 126.664,82.454 127.152,85.819C128.027,91.846 128.196,100.416 131.745,110.512C132.962,113.972 135.198,116.437 136.523,117.674C134.825,118.104 133.113,118.043 131.322,117.438C131.049,117.346 130.748,117.418 130.546,117.624C130.345,117.83 130.279,118.134 130.377,118.404L131.644,121.895C130.28,121.741 128.935,120.905 127.824,119.925C127.616,119.742 127.325,119.688 127.066,119.784C126.807,119.881 126.622,120.112 126.584,120.386L126.112,123.867C124.334,123.038 122.952,121.791 122.006,120.083C121.856,119.812 121.554,119.662 121.247,119.704C120.941,119.746 120.691,119.973 120.62,120.275L119.81,123.705C117.87,122.649 116.864,121.439 115.195,119.982C114.987,119.801 114.696,119.748 114.437,119.845C114.179,119.943 113.995,120.174 113.958,120.448L113.617,123.006C111.985,122.42 110.105,121.075 109.157,119.746C108.988,119.51 108.698,119.392 108.413,119.444C108.127,119.496 107.897,119.708 107.822,119.989L107.029,122.955C105.442,121.76 103.995,120.446 103.351,119.294C103.216,119.053 102.959,118.905 102.682,118.911C102.406,118.916 102.154,119.073 102.028,119.319L100.608,122.094C99.153,121.54 98.59,120.37 97.779,118.82C97.67,118.613 97.472,118.469 97.241,118.429C97.011,118.389 96.776,118.459 96.604,118.618L93.843,121.178C92.822,120.065 92.186,118.812 92.007,117.389C91.969,117.079 91.742,116.826 91.438,116.753C91.135,116.68 90.818,116.803 90.642,117.061L88.655,119.994C87.661,118.885 87.112,117.43 86.887,115.716C86.845,115.403 86.612,115.149 86.303,115.081C85.995,115.014 85.677,115.147 85.508,115.415L83.899,117.971C83.209,117.091 82.779,115.875 82.386,114.952C82.301,114.753 82.135,114.6 81.929,114.533C81.724,114.465 81.499,114.49 81.313,114.6L79.001,115.972C79.001,115.972 78.461,111.828 78.461,111.828C78.427,111.57 78.262,111.348 78.024,111.241C77.787,111.134 77.511,111.158 77.296,111.305L73.815,113.667ZM117.057,82.44C116.58,87.627 116.218,93.021 116.753,100.736C117.095,105.657 117.802,111.522 119.08,118.882C119.154,119.29 119.544,119.56 119.952,119.486C120.359,119.413 120.63,119.022 120.556,118.615C119.176,111.33 118.383,105.52 117.969,100.642C117.322,93.01 117.6,87.663 117.993,82.519C118.015,82.26 117.823,82.033 117.564,82.011C117.306,81.989 117.079,82.182 117.057,82.44ZM113.504,84.578C112.561,88.9 111.556,94.581 110.978,101.339C110.543,106.425 110.351,112.119 110.609,118.303C110.629,118.716 110.982,119.035 111.395,119.014C111.808,118.994 112.127,118.641 112.107,118.228C111.751,112.112 111.848,106.474 112.195,101.433C112.657,94.722 113.56,89.072 114.424,84.771C114.477,84.517 114.314,84.268 114.061,84.215C113.807,84.161 113.558,84.324 113.504,84.578ZM105.262,106C104.892,108.068 104.654,110.123 104.615,112.158C104.576,114.26 104.755,116.339 105.221,118.391C105.321,118.792 105.729,119.036 106.131,118.935C106.532,118.834 106.776,118.427 106.675,118.025C106.145,116.104 105.889,114.144 105.835,112.153C105.782,110.175 105.923,108.169 106.19,106.144C106.23,105.888 106.055,105.648 105.798,105.608C105.542,105.568 105.302,105.744 105.262,106ZM100.613,106.016C100.156,108.012 99.633,110.666 99.384,113.169C99.201,115.006 99.175,116.763 99.41,118.139C99.489,118.545 99.883,118.811 100.29,118.731C100.696,118.652 100.961,118.258 100.882,117.852C100.605,116.592 100.567,114.969 100.656,113.266C100.786,110.803 101.178,108.18 101.534,106.205C101.586,105.951 101.421,105.702 101.167,105.65C100.913,105.598 100.665,105.762 100.613,106.016ZM97.553,105.287C96.958,106.86 96.525,108.344 96.168,109.774C95.578,112.138 95.202,114.347 94.653,116.558C94.563,116.962 94.818,117.363 95.222,117.453C95.626,117.543 96.027,117.288 96.117,116.884C96.559,114.647 96.828,112.42 97.304,110.028C97.584,108.62 97.935,107.156 98.439,105.598C98.525,105.353 98.396,105.085 98.151,104.999C97.907,104.913 97.638,105.042 97.553,105.287ZM121.252,82.673C121.195,88.394 121.769,94.187 122.978,100.055C124.114,105.564 125.811,111.138 128.074,116.78C128.232,117.162 128.67,117.346 129.053,117.188C129.436,117.031 129.619,116.593 129.462,116.21C127.14,110.683 125.378,105.214 124.171,99.799C122.884,94.028 122.227,88.32 122.192,82.675C122.192,82.416 121.982,82.205 121.723,82.204C121.464,82.204 121.253,82.414 121.252,82.673ZM94.384,102.428C93.436,104.166 92.694,105.833 92.05,107.453C90.987,110.126 90.2,112.663 89.208,115.164C89.064,115.551 89.261,115.984 89.649,116.128C90.037,116.273 90.469,116.076 90.614,115.688C91.503,113.147 92.186,110.577 93.14,107.861C93.704,106.254 94.362,104.596 95.218,102.861C95.338,102.631 95.248,102.347 95.018,102.227C94.788,102.108 94.504,102.198 94.384,102.428ZM93.722,96.436C92.487,98.105 90.975,100.404 89.465,102.808C87.162,106.475 84.868,110.384 83.583,112.653C83.385,113.016 83.518,113.472 83.881,113.671C84.245,113.869 84.701,113.736 84.899,113.373C86.11,111.079 88.277,107.126 90.46,103.412C91.884,100.99 93.312,98.671 94.486,96.984C94.637,96.773 94.589,96.479 94.378,96.328C94.167,96.177 93.874,96.225 93.722,96.436ZM87.48,89.775C86.03,91.232 84.004,93.053 81.876,94.887C78.613,97.699 75.112,100.539 73.071,102.141C72.75,102.401 72.7,102.874 72.96,103.196C73.221,103.517 73.693,103.567 74.015,103.307C76.018,101.637 79.452,98.68 82.648,95.757C84.743,93.842 86.734,91.942 88.155,90.428C88.335,90.242 88.33,89.944 88.144,89.764C87.958,89.584 87.66,89.589 87.48,89.775ZM81.05,89.909C79.497,91.063 77.984,92.007 76.504,92.85C74.001,94.274 71.596,95.406 69.255,96.736C68.899,96.948 68.782,97.408 68.994,97.764C69.206,98.12 69.667,98.236 70.022,98.025C72.305,96.602 74.66,95.373 77.1,93.849C78.578,92.925 80.086,91.896 81.626,90.652C81.831,90.494 81.868,90.198 81.71,89.993C81.551,89.788 81.255,89.751 81.05,89.909ZM76.543,87.722C75.1,88.497 73.723,89.105 72.388,89.632C70.119,90.528 67.976,91.192 65.855,92.027C65.473,92.188 65.294,92.629 65.455,93.01C65.616,93.391 66.057,93.57 66.438,93.409C68.515,92.473 70.621,91.708 72.841,90.704C74.184,90.097 75.567,89.405 77.007,88.539C77.233,88.411 77.312,88.124 77.183,87.898C77.055,87.673 76.768,87.594 76.543,87.722ZM74.918,83.995C73.039,84.699 70.529,85.554 68.128,86.122C66.469,86.515 64.865,86.768 63.576,86.721C63.162,86.716 62.822,87.048 62.817,87.462C62.811,87.876 63.143,88.216 63.557,88.221C64.953,88.206 66.677,87.865 68.451,87.357C70.87,86.664 73.387,85.674 75.269,84.867C75.509,84.771 75.626,84.497 75.53,84.256C75.433,84.016 75.159,83.899 74.918,83.995ZM74.144,79.403C72.2,80.028 70.252,80.526 68.296,80.828C66.328,81.132 64.354,81.23 62.368,81.053C61.955,81.025 61.598,81.338 61.57,81.751C61.543,82.165 61.856,82.522 62.269,82.549C64.371,82.64 66.448,82.444 68.51,82.029C70.505,81.627 72.484,81.025 74.452,80.29C74.697,80.205 74.827,79.937 74.742,79.693C74.657,79.448 74.389,79.318 74.144,79.403ZM93.451,68.191C87.635,69.871 81.671,71.852 74.246,73.507C70.361,74.373 66.074,75.149 61.197,75.745C60.786,75.799 60.497,76.176 60.55,76.586C60.604,76.997 60.981,77.286 61.391,77.233C66.308,76.547 70.624,75.691 74.534,74.75C81.958,72.963 87.91,70.876 93.719,69.091C93.968,69.017 94.109,68.755 94.035,68.507C93.961,68.258 93.699,68.116 93.451,68.191ZM95.98,63.724C90.434,64.279 84.301,65.388 73.97,66.39C69.821,66.793 64.995,67.178 59.256,67.504C58.843,67.53 58.529,67.887 58.555,68.3C58.582,68.713 58.939,69.027 59.352,69.001C65.107,68.586 69.945,68.126 74.103,67.659C84.423,66.499 90.542,65.297 96.08,64.658C96.338,64.63 96.525,64.398 96.497,64.141C96.469,63.883 96.237,63.696 95.98,63.724ZM94.934,58.24C89.725,58.811 83.9,59.247 77.456,59.269C72.071,59.288 66.253,59.018 59.999,58.297C59.587,58.253 59.218,58.551 59.173,58.963C59.129,59.374 59.428,59.744 59.839,59.788C66.161,60.415 72.036,60.594 77.47,60.489C83.955,60.363 89.81,59.832 95.044,59.173C95.302,59.143 95.486,58.909 95.456,58.652C95.425,58.394 95.192,58.21 94.934,58.24Z"/>
                </g>
                <g transform="matrix(1.02,0,0,1.02,1.56,51.6)">
                    <path d="M69.932,113.39L130.931,40.29C137.868,30.659 142.337,28.014 146.341,26.687C144.276,30.1 143.232,33.148 144.018,35.542L74.676,117.121C75.538,117.69 76.438,118.235 77.424,118.72C79.44,119.713 81.621,120.62 84.182,121.23L83.741,124.992C80.005,124.974 76.736,124.446 73.8,123.441C72.995,123.166 72.227,122.841 71.491,122.478C70.591,124.19 69.359,126.03 67.854,127.834C65.185,131.032 62.251,133.405 59.892,134.467C59.997,135.501 59.702,136.574 58.985,137.434C57.57,139.129 55.046,139.357 53.351,137.943C51.656,136.528 51.428,134.004 52.842,132.309C53.56,131.449 54.563,130.967 55.599,130.885C56.221,128.374 58.031,125.063 60.7,121.864C62.158,120.117 63.695,118.617 65.173,117.441C64.438,116.55 63.776,115.595 63.193,114.581C61.579,111.772 60.523,108.601 59.88,105.069L63.511,103.992C64.5,106.33 65.76,108.331 67.12,110.209C67.968,111.38 68.91,112.425 69.932,113.39Z"/>
                </g>
                <g transform="matrix(1.02,0,0,1.02,1.56,51.6)">
                    <path d="M98.762,162.259C99.545,162.247 100.082,162.014 100.393,161.803L100.383,161.083C99.981,161.296 99.551,161.437 98.957,161.446C98.075,161.459 97.575,161.124 97.498,160.162L100.522,160.118L100.515,159.686C100.494,158.21 99.889,157.454 98.521,157.474C97.342,157.491 96.408,158.27 96.431,159.827L96.433,159.953C96.454,161.419 97.223,162.281 98.762,162.259ZM93.047,162.022C93.638,162.08 94.086,161.944 94.399,161.703L94.435,161.707L94.488,162.083L95.366,162.17L96.012,155.622L94.991,155.522L94.783,157.635C94.579,157.498 94.244,157.32 93.707,157.267C92.506,157.148 91.576,157.78 91.409,159.473L91.397,159.589C91.233,161.255 92.133,161.932 93.047,162.022ZM101.641,162.047L102.67,161.933L102.291,158.507C102.566,158.287 102.965,158.125 103.376,158.08C103.483,158.068 103.636,158.06 103.755,158.065L103.654,157.152C103.607,157.139 103.49,157.143 103.365,157.157C102.882,157.211 102.434,157.504 102.22,157.863L102.184,157.867L102.125,157.33L101.132,157.44L101.641,162.047ZM87.928,161.197C88.518,161.322 88.92,161.205 89.194,160.996L89.247,161.007L89.248,161.393L90.084,161.57L90.773,158.312C90.972,157.37 90.45,156.837 89.403,156.615C88.813,156.49 88.312,156.467 87.854,156.545L87.706,157.241C87.992,157.237 88.393,157.257 88.833,157.35C89.599,157.512 89.842,157.711 89.712,158.327L89.639,158.671L88.548,158.569C87.622,158.511 86.985,158.781 86.808,159.617C86.624,160.489 87.109,161.024 87.928,161.197ZM93.484,161.26C92.785,161.191 92.345,160.795 92.458,159.649L92.475,159.478C92.588,158.341 93.073,158.009 93.789,158.08C94.201,158.12 94.549,158.263 94.706,158.415L94.446,161.039C94.254,161.155 93.914,161.303 93.484,161.26ZM107.77,161.158L110.001,160.547C111.407,160.162 111.881,159.267 111.61,158.278C111.372,157.41 110.772,157.126 109.988,157.192L109.98,157.166C110.63,156.745 110.767,156.222 110.596,155.597C110.337,154.651 109.595,154.257 108.223,154.633L106.14,155.203L107.77,161.158ZM88.387,160.549C87.973,160.462 87.723,160.206 87.814,159.775C87.911,159.317 88.188,159.182 88.645,159.242L89.5,159.331L89.263,160.449C89.062,160.572 88.712,160.618 88.387,160.549ZM81.05,159.056L82.02,159.391L83.921,156.725L83.947,156.734L83.806,160.008L84.751,160.334L87.472,156.37L86.578,156.062L84.723,158.925L84.689,158.913L84.877,155.474L84.077,155.198L82.112,158.023L82.077,158.011L82.384,154.613L81.347,154.255L81.05,159.056ZM108.611,160.069L108.088,158.16L109.051,157.896C109.807,157.689 110.286,157.838 110.474,158.524C110.652,159.175 110.355,159.592 109.635,159.789L108.611,160.069ZM98.514,158.239C99.117,158.23 99.446,158.549 99.458,159.422L97.488,159.451C97.546,158.505 98.037,158.246 98.514,158.239ZM114.975,158.948C116.177,158.462 116.691,157.332 116.131,155.947L116.084,155.83C115.531,154.462 114.471,153.977 113.186,154.497C111.976,154.986 111.465,156.124 112.022,157.501L112.076,157.635C112.619,158.978 113.665,159.477 114.975,158.948ZM114.699,158.215C114.098,158.458 113.509,158.346 113.061,157.237L112.98,157.036C112.605,156.11 112.804,155.496 113.463,155.23C114.047,154.993 114.627,155.108 115.079,156.226L115.163,156.435C115.538,157.361 115.341,157.955 114.699,158.215ZM75.508,156.426L76.432,156.893L78.055,153.679C78.364,153.685 78.779,153.763 79.1,153.925C79.662,154.209 79.714,154.446 79.503,154.864L78.063,157.716L78.995,158.187L80.544,155.118C80.958,154.298 80.711,153.77 79.915,153.369C79.417,153.117 78.846,153.05 78.383,153.129L78.343,153.109L79.397,151.02L78.473,150.554L75.508,156.426ZM107.893,157.448L107.415,155.703L108.292,155.463C108.978,155.275 109.402,155.392 109.578,156.035C109.763,156.712 109.351,157.049 108.726,157.22L107.893,157.448ZM119.792,156.665C120.481,156.292 120.849,155.838 121.028,155.506L120.685,154.872C120.427,155.247 120.112,155.571 119.589,155.854C118.813,156.273 118.215,156.208 117.702,155.391L120.362,153.952L120.156,153.572C119.454,152.274 118.568,151.884 117.365,152.534C116.328,153.095 115.86,154.217 116.601,155.587L116.661,155.698C117.358,156.988 118.439,157.397 119.792,156.665ZM73.415,155.229C73.952,155.575 74.408,155.665 74.76,155.667L75.169,155.031C74.914,154.996 74.491,154.937 74.015,154.63C73.273,154.152 73.146,153.535 73.721,152.643L73.834,152.469C74.336,151.689 75,151.539 75.65,151.958C76.112,152.256 76.293,152.49 76.535,152.828L76.974,152.147C76.812,151.85 76.565,151.552 76.051,151.221C74.969,150.524 73.742,150.633 72.875,151.979L72.797,152.1C71.968,153.386 72.265,154.488 73.415,155.229ZM122.264,155.115L123.14,154.545L119.554,149.03L118.679,149.599L122.264,155.115ZM117.713,153.216C118.243,152.929 118.682,153.06 119.097,153.828L117.364,154.765C116.977,153.9 117.293,153.443 117.713,153.216ZM125.912,152.646C126.42,152.258 126.66,151.86 126.781,151.53L126.322,150.929C126.202,151.157 126.003,151.535 125.553,151.879C124.852,152.414 124.228,152.324 123.584,151.479L123.458,151.315C122.896,150.578 122.98,149.902 123.595,149.433C124.032,149.099 124.313,149.009 124.714,148.896L124.222,148.252C123.888,148.303 123.524,148.434 123.037,148.805C122.014,149.586 121.7,150.777 122.672,152.05L122.76,152.165C123.688,153.381 124.824,153.476 125.912,152.646ZM69.479,152.431C70.371,153.131 71.168,153.151 71.763,152.393C72.258,151.763 72.204,151.263 71.617,150.539L71.331,150.189C71.051,149.832 70.982,149.628 71.182,149.374C71.405,149.091 71.742,149.127 72.167,149.46C72.577,149.783 72.848,150.167 72.988,150.426L73.472,149.81C73.314,149.515 73.075,149.178 72.58,148.789C71.66,148.066 70.889,148.159 70.361,148.831C69.849,149.483 69.995,150.055 70.465,150.607L70.744,150.952C71.073,151.348 71.115,151.587 70.909,151.849C70.698,152.118 70.352,152.121 69.843,151.72C69.333,151.32 69.147,151.003 68.938,150.643L68.471,151.238C68.647,151.64 69.005,152.058 69.479,152.431ZM127.744,151.089L128.497,150.379L123.984,145.592L123.231,146.302L127.744,151.089ZM66.324,149.711C66.889,150.253 67.435,150.464 67.805,150.533L68.304,150.013C67.868,149.882 67.463,149.681 67.034,149.269C66.397,148.659 66.277,148.07 66.898,147.331L69.081,149.424L69.38,149.112C70.401,148.047 70.502,147.084 69.515,146.137C68.664,145.321 67.452,145.219 66.374,146.342L66.287,146.433C65.272,147.492 65.213,148.646 66.324,149.711ZM129.754,149.194L130.586,148.41C130.434,148.367 127.802,147.818 127.663,147.789C127.641,147.661 127.336,145.264 127.328,145.124L126.542,145.865C126.57,145.999 126.886,148.434 126.92,148.575C127.053,148.611 129.609,149.158 129.754,149.194ZM68.972,146.676C69.407,147.094 69.417,147.552 68.813,148.182L67.39,146.818C68.096,146.185 68.628,146.346 68.972,146.676ZM62.65,145.824C63.174,146.465 63.776,146.903 64.218,147.146L66.434,145.335L65.027,143.614L64.386,144.138L65.109,145.023L64.022,145.911C63.824,145.782 63.548,145.544 63.32,145.265C62.403,144.143 62.896,143.31 63.885,142.501L64.101,142.324C65,141.59 66.026,141.309 66.943,142.431C67.461,143.065 67.624,143.548 67.732,143.936L68.415,143.378C68.333,142.98 68.124,142.454 67.623,141.84C66.609,140.6 65.11,139.989 63.291,141.476L63.145,141.595C61.465,142.968 61.505,144.424 62.65,145.824ZM132.63,146.231C133.142,145.638 133.325,145.083 133.374,144.709L132.83,144.238C132.722,144.68 132.541,145.095 132.153,145.544C131.576,146.211 130.993,146.362 130.224,145.78L132.201,143.492L131.875,143.21C130.758,142.244 129.791,142.193 128.896,143.228C128.125,144.12 128.086,145.335 129.263,146.354L129.359,146.436C130.468,147.396 131.623,147.395 132.63,146.231ZM129.463,143.742C129.858,143.286 130.315,143.253 130.975,143.824L129.686,145.315C129.018,144.642 129.151,144.103 129.463,143.742Z" style="fill-rule:nonzero;"/>
                </g>
            </g>
        </g>
    </g>
</svg>
