<svg id="axis_tunisia_sniper_1_icon" xmlns="http://www.w3.org/2000/svg" width="150" height="150" viewBox="0 0 150 150">
  <defs>
    <style>
      .cls-1 {
        fill: #0e3480;
      }

      .cls-1, .cls-2 {
        fill-rule: evenodd;
      }

      .cls-2 {
        fill: #ffca27;
      }
    </style>
  </defs>
  <path id="Shape_275_copy" data-name="Shape 275 copy" class="cls-1" d="M71.869,16.572L18.719,30.3S17.265,62.452,22.6,81.839s11.543,34.2,31.826,50.566c19.266,15.549,20.194,15.024,20.194,15.024h0.769s1.05,0.485,20.194-15.024C115.83,116,122.073,101.225,127.4,81.839S131.281,30.3,131.281,30.3L78.131,16.572H71.869Z"/>
  <path id="Shape_275_copy_2" data-name="Shape 275 copy 2" class="cls-2" d="M75.384,148.254l-0.769-.02c-1-.109-4.441-2.055-20.712-15.187C34.367,117.28,27.549,102.963,21.8,82.058c-5.3-19.289-3.92-51.468-3.906-51.791l0.027-.61L71.869,15.746l6.468,0.026,53.742,13.885,0.027,0.61c0.015,0.323,1.4,32.5-3.906,51.791-5.732,20.845-12.546,35.145-32.1,50.988-16.444,13.322-19.777,15.1-20.714,15.193v0.015Zm-0.636-1.631h0Zm0.508,0h0Zm-0.562-.018h0.614c0.462-.177,3.554-1.719,19.751-14.84,19.21-15.563,25.909-29.629,31.55-50.143,4.834-17.579,4.034-46.148,3.872-50.67L78.026,17.4H71.974L19.52,30.95c-0.162,4.519-.962,33.089,3.873,50.67,5.657,20.572,12.36,34.656,31.548,50.142C71.144,144.84,74.226,146.417,74.694,146.6Z"/>
  <path id="Shape_275_copy_3" data-name="Shape 275 copy 3" class="cls-2" d="M111.383,30.623c0.323-.431,2.584-2.8,2.8-5.708,0,0-3.662-1.077-4.2-1.077s-1.185-1.292-1.508-1.616c0,0-4.739,1.293-5.063,1.293a1.363,1.363,0,0,1-1.076-.754c0-.323-2.047-4.093-2.477-4.2s-5.493,2.908-5.493,2.908,1.831-4.308.108-7.216a15.049,15.049,0,0,1-3.016-.108,1.173,1.173,0,0,1-.539-0.754,34.7,34.7,0,0,0-2.585-6.247l-3.77,2.585-1.508-.215-1.4,1.831H80.8S80.364,6.6,79.4,5.313l-1.616-.323a18.53,18.53,0,0,0-3.016-3.662,41.6,41.6,0,0,0-3.231,3.985c-0.969,1.508-.969,2.046-1.293,2.046S67.44,6.5,67.117,6.5s-1.939,2.693-2.154,5.708c0,0-1.184-2.477-1.831-2.585a3.059,3.059,0,0,0-1.508.323,31.229,31.229,0,0,0-4.092-2.477c-0.647-.108-2.154,4.2-2.262,4.847s-0.215,1.939-.538,1.939a14.729,14.729,0,0,0-3.016.215c-0.431.215-.754,3.016-0.754,3.985a17.221,17.221,0,0,0,1.077,3.662s-3.446-3.339-6.462-3.231a42.389,42.389,0,0,1-1.508,4.308,2.4,2.4,0,0,1-.754.646s-5.385-1.616-5.708-1.4a6.769,6.769,0,0,0-.969,1.508s-4.631.538-4.847,0.969,3.231,6.677,3.231,6.677v0.754s-2.046,1.508-1.939,1.939a11.333,11.333,0,0,0,3.877,3.985,8.055,8.055,0,0,0,3.662,1.185l1.292,1.831s-2.693,2.8-2.908,3.123,3.877,2.37,5.062,2.154,5.493-.862,6.354-1.077,1.4-.323,1.508,0,0.215,3.446.754,3.446a28.007,28.007,0,0,0,4.954-1.077,6.12,6.12,0,0,0,2.477-1.508s0.216,1.185.538,1.077,3.77-1.831,3.77-1.831,3.112,1.623,4.562,2.35L71.175,68.21h0.41l-1.709,1.077H66.1a5.03,5.03,0,0,1-1.887-.97c-0.42-.538-2.936-2.477-4.3-0.538a15.121,15.121,0,0,0,0,6.462s0.734,2.8,4.613-.431l1.677-.538h3.564l2.935,1.185a6.985,6.985,0,0,0,1.214.269h-1.67a4.7,4.7,0,0,0-.7,2.464v14.1a3.178,3.178,0,0,0,3.03,3.473H75.63a3.178,3.178,0,0,0,3.03-3.473V77.19a4.7,4.7,0,0,0-.7-2.464h-1.67a6.985,6.985,0,0,0,1.214-.269l2.935-1.185h3.564l1.677,0.538c3.879,3.231,4.613.431,4.613,0.431a15.121,15.121,0,0,0,0-6.462c-1.363-1.939-3.879,0-4.3.538a5.026,5.026,0,0,1-1.887.97H80.336L78.628,68.21h0.41l2.4-22.26,4.093,1.473,0.754-1.292a6.929,6.929,0,0,0,2.8,1.723,31.012,31.012,0,0,0,4.416.861,17.706,17.706,0,0,1,.646-3.339c0.323-.538.969-0.215,1.292-0.215s5.063,1.185,6.032,1.185a39.642,39.642,0,0,0,5.6-1.723,17.818,17.818,0,0,0-2.692-3.231,6.971,6.971,0,0,1,1.185-2.046c0.43-.215,3.769-1.292,4.2-1.508s2.8-2.154,3.015-3.877c0,0-1.4-1.508-1.723-1.831S111.059,31.053,111.383,30.623Z"/>
  <path id="Shape_275_copy_4" data-name="Shape 275 copy 4" class="cls-1" d="M111.959,30.733a10.89,10.89,0,0,0,2.738-5.78l0.031-.416-0.4-.118a39.074,39.074,0,0,0-4.3-1.093h0a3.6,3.6,0,0,1-.748-0.895,4.378,4.378,0,0,0-.433-0.574l-0.212-.212-0.289.079c-2.178.594-4.655,1.243-4.918,1.275a1.277,1.277,0,0,1-.588-0.34c-0.209-.757-2.116-4.416-2.849-4.6-0.2-.05-0.566-0.145-4.69,2.262,0.434-1.584.857-4.252-.376-6.333l-0.157-.265-0.308.013a15.885,15.885,0,0,1-2.763-.053,0.69,0.69,0,0,1-.273-0.437,34.883,34.883,0,0,0-2.629-6.353L88.51,6.4,84.439,9.189l-1.608-.229L81.4,10.828h-0.14C81.121,9.533,80.681,6.167,79.808,5L79.69,4.845l-1.6-.319A17.531,17.531,0,0,0,75.074.915L74.7,0.634l-0.316.346A41.533,41.533,0,0,0,71.1,5.033a14.676,14.676,0,0,0-.869,1.542c-0.04.081-.083,0.169-0.12,0.236-0.292-.073-0.87-0.251-1.28-0.377a8.587,8.587,0,0,0-1.713-.454c-0.776,0-1.923,2.318-2.431,4.614a2.965,2.965,0,0,0-1.469-1.483,3.079,3.079,0,0,0-1.538.244,22.56,22.56,0,0,0-4.063-2.4c-1.36-.2-2.846,5.215-2.855,5.271-0.021.125-.042,0.272-0.064,0.43a9.008,9.008,0,0,1-.2,1.078c-2.5.011-2.887,0.205-3.016,0.27-0.929.464-1.039,4.407-1.039,4.446a8.184,8.184,0,0,0,.463,2.053c-1.344-.993-3.4-2.217-5.351-2.138l-0.368.013-0.108.352a39.786,39.786,0,0,1-1.427,4.149,1.858,1.858,0,0,1-.414.395c-5.406-1.614-5.7-1.415-5.921-1.269A4.809,4.809,0,0,0,36.3,23.464c-4.643.555-4.858,0.986-4.974,1.219-0.133.267-.334,0.669,3.176,7.041v0.362c-2.107,1.588-1.983,2.081-1.923,2.323A11.484,11.484,0,0,0,36.7,38.716a9.089,9.089,0,0,0,3.642,1.238l0.9,1.28c-0.832.868-2.474,2.593-2.671,2.888L38.4,44.5l0.188,0.285c0.47,0.715,4.29,2.516,5.569,2.285,0.43-.078,1.273-0.214,2.212-0.364,1.69-.271,3.606-0.578,4.176-0.72a7.392,7.392,0,0,1,.914-0.187c0.016,0.127.032,0.3,0.052,0.508,0.193,1.948.353,3.142,1.17,3.142a28.119,28.119,0,0,0,5.118-1.1,7.122,7.122,0,0,0,2.039-1.069,1.173,1.173,0,0,0,.436.578,0.642,0.642,0,0,0,.541.06c0.3-.1,2.6-1.239,3.6-1.741,1.062,0.553,2.814,1.463,3.974,2.048l2.15,19.913-0.847.534h-3.5a4.149,4.149,0,0,1-1.49-.731,4.881,4.881,0,0,0-3.3-1.619,2.446,2.446,0,0,0-1.993,1.105,0.605,0.605,0,0,0-.087.18,15.643,15.643,0,0,0-.015,6.75c0,0.015.006,0.03,0.01,0.045a2.214,2.214,0,0,0,1.406,1.484c1.076,0.344,2.457-.166,4.108-1.519l1.472-.472h3.347l1.925,0.777a5.427,5.427,0,0,0-.631,2.521v14.1a3.759,3.759,0,0,0,3.637,4.074h1.056a3.76,3.76,0,0,0,3.629-4.081V77.207a5.442,5.442,0,0,0-.631-2.539l1.925-.777h3.347l1.472,0.472a5.842,5.842,0,0,0,3.42,1.623,2.244,2.244,0,0,0,.688-0.1A2.214,2.214,0,0,0,90.894,74.4c0-.015.007-0.03,0.01-0.045a15.634,15.634,0,0,0-.015-6.75,0.605,0.605,0,0,0-.087-0.18,2.445,2.445,0,0,0-1.993-1.105,4.888,4.888,0,0,0-3.3,1.619,4.151,4.151,0,0,1-1.49.731h-3.5l-0.847-.534,2.315-21.44,3.78,1.361,0.645-1.106a7.491,7.491,0,0,0,2.525,1.4,31.061,31.061,0,0,0,4.508.881l0.515,0.062,0.059-.515a16.305,16.305,0,0,1,.577-3.133c0.036-.061.075-0.091,0.463-0.015,0.146,0.028.275,0.037,0.363,0.05,0.14,0.013.935,0.191,1.638,0.348a34.383,34.383,0,0,0,4.417.837c1.011,0,4.993-1.462,5.781-1.755l0.6-.225-0.351-.54a19.535,19.535,0,0,0-2.5-3.089,6.618,6.618,0,0,1,.794-1.445c0.185-.093,1.212-0.445,2.037-0.728,1.193-.409,1.934-0.666,2.164-0.781,0.437-.218,3.043-2.246,3.3-4.275l0.03-.239-0.164-.176s-1.411-1.519-1.715-1.813a1.477,1.477,0,0,1,.35-0.864C111.829,30.888,111.885,30.821,111.959,30.733Zm-1.2-3.881c1-.409,2.093-0.835,2.769-1.1a7.481,7.481,0,0,1-.451,1.372A6.939,6.939,0,0,1,110.754,26.851Zm-0.773-2.5a32.506,32.506,0,0,1,3.291.835c-1.081.418-3.17,1.237-4.332,1.759-0.424.19-1.5,0.82-3,1.691l-1.5.872a7.583,7.583,0,0,1,.913-3.552c0.478-.659,2.166-2.358,2.938-3.126l0.123,0.18A2.379,2.379,0,0,0,109.981,24.353Zm-6.149,5.253a0.306,0.306,0,0,0,.106.2c-0.78.451-1.615,0.928-2.482,1.416a18.331,18.331,0,0,1,.225-3.956c0.244-.611,1.33-2.467,1.789-3.242,0.356-.034,1.967-0.449,3.668-0.9a31.583,31.583,0,0,0-2.279,2.476A7.989,7.989,0,0,0,103.832,29.607ZM101.82,22.76a1.46,1.46,0,0,0,1.015,1.12c-0.51.863-1.485,2.542-1.729,3.154a21.089,21.089,0,0,0-.264,4.484,0.186,0.186,0,0,0,.016.037c-3.8,2.113-8.005,4.263-10.262,4.659a0.243,0.243,0,0,0-.024.015,3.016,3.016,0,0,1-.439-0.682c0.238-.189.955-0.714,1.651-1.223,1.31-.959,2.941-2.152,3.747-2.816,1.46-1.2,2.859-5.618,2.859-5.893a0.36,0.36,0,0,0-.1-0.241,1.469,1.469,0,0,0-.972-0.184,0.279,0.279,0,0,0,.025-0.06,42.115,42.115,0,0,1,2.508-5.843A25.643,25.643,0,0,1,101.82,22.76ZM84.927,42.3a4.957,4.957,0,0,1,.7.96,23.381,23.381,0,0,1-3.447,1.64l0.459-4.244a5.951,5.951,0,0,0,2.071-1.007c1.2-.083,2.744-0.236,2.744-0.236L87.388,38.8s-1.075.107-2.127,0.19a13.008,13.008,0,0,0,1.192-3.013l0.048-.164a0.31,0.31,0,1,0-.588-0.2c-0.01.031-.029,0.1-0.056,0.19a8.023,8.023,0,0,1-1.474,3.313,4.767,4.767,0,0,1-1.676.869l0.847-7.839a49.5,49.5,0,0,0,5.838-3.008,0.291,0.291,0,0,0,.1.276,5.757,5.757,0,0,0,3.1,1.113,0.31,0.31,0,1,0,0-.619,5.207,5.207,0,0,1-2.72-.986,0.275,0.275,0,0,0-.084-0.023,20.881,20.881,0,0,0,3.905-3.061c1.628-.056,3.4-0.07,4.027-0.009-0.275.983-1.465,4.283-2.578,5.2-0.793.652-2.415,1.84-3.719,2.794-1.218.891-1.687,1.238-1.8,1.345a0.45,0.45,0,0,0-.122.375,4.72,4.72,0,0,0,1.541,2.041,2.494,2.494,0,0,1,.763,1.055c-0.27.245-4.039,2.525-4.486,2.674-0.38.127-1.73,0.385-2.219,0.474A0.31,0.31,0,0,0,84.927,42.3ZM84.311,25.141A7.729,7.729,0,0,0,88.2,23.5a8.218,8.218,0,0,0,1.891-2.981,5.823,5.823,0,0,1,.416-0.869c0.372-.557,2.754-3.445,3.758-4.656,0.839,1.94.251,4.408-.126,5.588a0.3,0.3,0,0,0-.029.02,9.085,9.085,0,0,0-1.262,2.431c0,0.367.279,1.875,0.378,2.4-2.6,2.71-7.488,5.066-9.591,6ZM99.106,19.4c-0.852,1.775-2.384,5.055-2.384,5.727a0.277,0.277,0,0,0,.017.042c-0.649-.011-1.579,0-2.926.043-0.152-.808-0.349-1.939-0.349-2.179a2.389,2.389,0,0,1,.253-0.58l0.913-.544C96.272,20.933,98.081,19.913,99.106,19.4Zm-8.692-5.911a1.67,1.67,0,0,0,.813,1.115,7.75,7.75,0,0,0,2.395.187c-1.086,1.312-3.261,3.953-3.633,4.51a6.223,6.223,0,0,0-.471.971,7.591,7.591,0,0,1-1.745,2.772A7,7,0,0,1,84.38,24.5l0.227-2.1a0.6,0.6,0,0,0-.057-0.308c0-.009.012-0.012,0.015-0.021,0.013-.044,1.055-3.59,1.754-6.1h0l3.231-1.293a0.31,0.31,0,1,0-.23-0.575l-2.8,1.119c0.085-.309.161-0.595,0.223-0.834,0.4-1.552,1.183-4.512,1.6-6.1A36.256,36.256,0,0,1,90.414,13.491Zm-3.34-2.785A13.561,13.561,0,0,0,86.2,9.234l1.541-1.057C87.563,8.851,87.322,9.763,87.073,10.706Zm-2.382-.438,1-.683a7.827,7.827,0,0,1,1.1,2.111,0.257,0.257,0,0,0,.015.025c-0.249.947-.486,1.854-0.656,2.507-0.2.771-.534,1.966-0.882,3.185A9.624,9.624,0,0,1,83.2,13.994a13.86,13.86,0,0,1-.189-3.568l0.275-.36ZM81.912,11.86l0.443-.579a12.539,12.539,0,0,0,.239,2.851,10.885,10.885,0,0,0,2.473,3.988c-0.4,1.379-.774,2.677-0.965,3.33l-5.743-7.586a21.9,21.9,0,0,1,2.085-2h1.468Zm-5.052.022a35.715,35.715,0,0,0,2.7-4.813,29.406,29.406,0,0,1,.7,4.167,14.329,14.329,0,0,0-2.286,2.126Zm0.6-6.43,1.62,0.324a3.387,3.387,0,0,1,.164.357,27.791,27.791,0,0,1-2.785,5.224l-0.6-.8a0.926,0.926,0,0,0-.486-0.311c0.2-.224.429-0.984,0.221-3.967a0.3,0.3,0,0,0,.093-0.155A5,5,0,0,1,76.8,4.463c0.325,0.462.54,0.8,0.546,0.8Zm-1.033-1.5A9.487,9.487,0,0,0,75.5,5.12c-0.07-.77-0.162-1.652-0.284-2.666A17.839,17.839,0,0,1,76.431,3.951Zm-6.19,3.924a1.088,1.088,0,0,0,.913-0.841,13.878,13.878,0,0,1,.813-1.442,33.834,33.834,0,0,1,2.607-3.275,40.849,40.849,0,0,1,.433,7.28,12.86,12.86,0,0,0-3.19-2.429,0.309,0.309,0,0,0-.3.542,12.1,12.1,0,0,1,3.048,2.332,0.984,0.984,0,0,0,.211.221,0.929,0.929,0,0,0-.424.3l-3.772,4.982a32.125,32.125,0,0,0-.966-3.769c-0.35-.932-1.347-3.329-1.875-4.591,0.262,0.077.55,0.166,0.787,0.239A8.583,8.583,0,0,0,70.241,7.875ZM67.1,7.257c0.5,1.2,1.573,3.769,1.935,4.735a37.663,37.663,0,0,1,1.036,4.15,0.255,0.255,0,0,0,.025.042L67,20.27l-1.094-1.094a7,7,0,0,1-.939-1.805,10.943,10.943,0,0,0,.7-3.018c-0.049-.439-0.128-1.485-0.183-2.232A11.356,11.356,0,0,1,67.1,7.257ZM67.473,39.7l-1.554-4.818c0.407,0.276.807,0.526,1.11,0.711ZM64.8,33.173a36.452,36.452,0,0,1-2.2-3.049,6.629,6.629,0,0,1,1.48-.762,6.608,6.608,0,0,0,1.491-.768,0.639,0.639,0,0,0,.217-0.475C65.811,27.339,64.62,26.1,63.4,24.9l-0.237-.233a14.113,14.113,0,0,1-2.338-4.527,17.651,17.651,0,0,1-.428-3.674A36.87,36.87,0,0,1,64.4,17.624a7.214,7.214,0,0,0,1.068,1.99l1.154,1.155-0.9,1.187a0.617,0.617,0,0,0-.122.44l1.34,12.412A10.6,10.6,0,0,1,64.8,33.173Zm-1-4.363a32.613,32.613,0,0,0-.813-3.445c2.154,2.12,2.243,2.638,2.179,2.764a6.7,6.7,0,0,1-1.327.665Zm0.7-16.381,0.472,0.986c0.033,0.408.065,0.782,0.09,1.006a9.91,9.91,0,0,1-.612,2.564c-0.472-.156-0.888-0.29-1.262-0.407a0.285,0.285,0,0,0,.043-0.05c0.678-1.582.543-4.155,0.379-5.691A14.146,14.146,0,0,1,64.5,12.428Zm-2.915-1.888,0.271-.135a2.816,2.816,0,0,1,1.04-.284c0.163,1.183.513,4.418-.235,6.162a0.287,0.287,0,0,0,0,.132,10.406,10.406,0,0,0-2.412-.566,0.278,0.278,0,0,0,.014-0.066,66.877,66.877,0,0,0-2.109-7.458c0.8,0.457,2.074,1.282,3.181,2.043Zm-6.852,4.227c0.711,0,.839-0.911.988-1.966,0.021-.148.041-0.287,0.06-0.4a19.737,19.737,0,0,1,1.674-4.2,71.379,71.379,0,0,1,2.159,7.514L56.649,13.8a0.309,0.309,0,1,0-.335.52L59.707,16.5a0.277,0.277,0,0,0,.091.027,15.623,15.623,0,0,0,.419,3.731,15.217,15.217,0,0,0,2.007,4.2,0.293,0.293,0,0,0-.062.265l0.017,0.06a7.664,7.664,0,0,1-4.319-1.867c-0.25-.334-0.77-1.222-1.371-2.251-0.527-.9-1.123-1.919-1.684-2.817a15.625,15.625,0,0,0-2.472-3A23.6,23.6,0,0,1,54.732,14.768Zm-2.847.521a15.232,15.232,0,0,1,2.4,2.9c0.558,0.893,1.151,1.906,1.674,2.8,0.636,1.088,1.139,1.947,1.41,2.31a8.1,8.1,0,0,0,4.994,2.129,29.266,29.266,0,0,1,.842,3.605,0.242,0.242,0,0,0,.017.034,2.153,2.153,0,0,0-1.228.895,0.5,0.5,0,0,0,.04.412c0.186,0.326.641,0.989,1.13,1.665a40.936,40.936,0,0,1-10.109-6.43,3.51,3.51,0,0,0,.117-1.684l0.247,0.238L53,23.132a8.72,8.72,0,0,0-.654-1.647,13.515,13.515,0,0,1-.871-3.033A16.2,16.2,0,0,1,51.884,15.288Zm-0.2,7.2,0.687,0.664a3.653,3.653,0,0,1,.109,2.243l-3.073.1a0.3,0.3,0,0,0,.026-0.206,21.665,21.665,0,0,0-2.742-5.773A13.055,13.055,0,0,1,51.68,22.485Zm-7.2,1.015a27.7,27.7,0,0,0,1.445-4,21.826,21.826,0,0,1,2.906,5.955,0.272,0.272,0,0,0,.04.06l-0.964.033a0.311,0.311,0,0,0-.3.354,11.041,11.041,0,0,0,1.1,3.516,18.389,18.389,0,0,0,3.837,3.906,28.207,28.207,0,0,1,3.789,2.972c-0.131.105-.328,0.254-0.509,0.39l-0.257.2a0.3,0.3,0,0,0-.076-0.07L44.94,31.331A0.287,0.287,0,0,0,45,31.217a16.567,16.567,0,0,0-.008-3.658c-0.189-.757-0.886-2.564-1.214-3.4A2.8,2.8,0,0,0,44.482,23.5Zm-2.909,2.621a14.99,14.99,0,0,0-2.788-2.993c1.092,0.256,2.807.73,4.382,1.2l0.012,0c0.314,0.8,1.027,2.645,1.21,3.374a15.4,15.4,0,0,1,0,3.336l-1.947-1.011a0.3,0.3,0,0,0,.048-0.178A15.689,15.689,0,0,0,41.573,26.122ZM36.7,24.458l0.277-.032,0.124-.249a10.1,10.1,0,0,1,.65-1.126,18.521,18.521,0,0,1,3.27,3.349,14.056,14.056,0,0,1,.828,3.326L32.861,25.06C33.762,24.857,35.319,24.618,36.7,24.458Zm-1.369,8.3,0.21-.155V31.459l-0.064-.117c-1.2-2.177-2.455-4.6-2.953-5.761L39.485,29.2l-3.027.72a0.31,0.31,0,0,0,.071.611A0.3,0.3,0,0,0,36.6,30.52l3.393-.808a0.3,0.3,0,0,0,.194-0.151l7.82,4.06a19.54,19.54,0,0,1-4.37,1.619,14.952,14.952,0,0,1-2.607-.517,28.936,28.936,0,0,0-2.843-.611,33.762,33.762,0,0,0-4.284-.156A13.984,13.984,0,0,1,35.328,32.761ZM40.89,38.94l-0.265,0a7.677,7.677,0,0,1-3.405-1.115,11.767,11.767,0,0,1-3.383-3.244,34.4,34.4,0,0,1,4.268.147c0.812,0.111,1.811.359,2.778,0.6a14.65,14.65,0,0,0,2.756.535c1.089,0,4.368-1.55,4.738-1.727a0.292,0.292,0,0,0,.155-0.24l6.163,3.2a37.063,37.063,0,0,1-12.4,3.833Zm19.881,7.871a3.951,3.951,0,0,1-.146-0.556l-0.191-1.029-0.7.778a5.7,5.7,0,0,1-2.256,1.362,30.306,30.306,0,0,1-4.6,1.036,13.45,13.45,0,0,1-.339-2.2,5.025,5.025,0,0,0-.121-0.881,0.812,0.812,0,0,0-.878-0.557,5.538,5.538,0,0,0-1.245.219c-0.526.131-2.5,0.448-4.088,0.7-0.948.152-1.8,0.289-2.233,0.367-0.766.139-3.418-1.07-4.288-1.654,0.528-.587,1.728-1.853,2.6-2.757l0.105-.11c0.437-.053.874-0.108,1.3-0.175l-0.823,1.99a0.31,0.31,0,1,0,.572.236l0.969-2.343s0,0,0,0c1.02-.184,2-0.4,2.916-0.647l-1.382,2.9a0.31,0.31,0,0,0,.147.413,0.316,0.316,0,0,0,.133.03,0.31,0.31,0,0,0,.28-0.176l1.615-3.393s0,0,0,0a38.338,38.338,0,0,0,6.042-2.31,1.33,1.33,0,0,0-.433.668,0.439,0.439,0,0,0,.09.331c0.3,0.375,2.8,2.924,5.052,3.184a7.45,7.45,0,0,1,1.827.378,1.574,1.574,0,0,0-.417.811,6.264,6.264,0,0,0-2.384.473l-2.962-1.6a0.31,0.31,0,1,0-.294.545l2.816,1.516a9.993,9.993,0,0,1-1.37.932,0.31,0.31,0,0,0,.156.578,0.307,0.307,0,0,0,.155-0.041,5.711,5.711,0,0,0,1.8-1.4,8.007,8.007,0,0,1,2.412-.413c0.381,0.232,1.555.826,2.858,1.472C62.359,46.045,61.278,46.574,60.771,46.811Zm3.893-1.675-0.234-.122-0.236.118-0.037.018c-1.664-.819-3.075-1.527-3.262-1.656,0,0,0-.009-0.006-0.012a1.59,1.59,0,0,1,.486-0.675,0.31,0.31,0,0,0,.079-0.344c-0.1-.262-0.626-0.621-2.514-0.838s-4.095-2.347-4.571-2.876a11.817,11.817,0,0,1,1.831-1.57,4.141,4.141,0,0,0,.782-0.649,0.405,0.405,0,0,0,.044-0.29c-0.162-.611-3.729-3.234-4.2-3.471a18.749,18.749,0,0,1-3.593-3.687,9.458,9.458,0,0,1-.947-2.928l4.288-.145a39.252,39.252,0,0,0,3.914,3.019l-2.765.9a0.31,0.31,0,1,0,.191.589l2.989-.969a0.3,0.3,0,0,0,.157-0.134,40.357,40.357,0,0,0,4.1,2.383L59.9,32.983a0.309,0.309,0,1,0,.426.449l1.428-1.352c0.558,0.267,1.126.527,1.715,0.768a0.312,0.312,0,0,0,.118.023,0.307,0.307,0,0,0,.151-0.046c0.21,0.277.41,0.534,0.578,0.74a5.062,5.062,0,0,0,.753.7s0,0.005,0,.008l2.468,7.652c-2.329-.791-5.832-2.125-6.3-2.693a11.5,11.5,0,0,1-1.228-3.5,0.31,0.31,0,1,0-.607.125,16.14,16.14,0,0,0,1.014,3.214c-0.918-.118-2.155-0.423-2.17-0.427a0.31,0.31,0,0,0-.15.6,18.592,18.592,0,0,0,2.776.487c1.054,0.959,6.208,2.7,6.814,2.9a0.315,0.315,0,0,0,.08.013L67.8,42.731,68.261,47C67.159,46.433,65.723,45.688,64.664,45.135Zm2.2-22.628L74.8,12.027V65.779a2.754,2.754,0,0,0-1.16.406L71.71,67.4ZM62.11,74.61a1.594,1.594,0,0,1-1,.1,0.968,0.968,0,0,1-.592-0.609,15.248,15.248,0,0,1-.034-6.046,1.176,1.176,0,0,1,.947-0.495,2.083,2.083,0,0,1,.741.135A10.992,10.992,0,0,0,62.11,74.61ZM75.63,94.151H74.591a2.624,2.624,0,0,1-1.322-.437l4.744-1.878A2.477,2.477,0,0,1,75.63,94.151Zm2.423-3-0.011,0-5.278,2.089a2.7,2.7,0,0,1-.527-1.188,0.3,0.3,0,0,0,.217,0l5.6-2.216v1.314Zm0-1.979-0.011,0-5.816,2.3a0.286,0.286,0,0,0-.058.03c0-.074-0.008-0.149-0.009-0.227V90.243a0.312,0.312,0,0,0,.18.06,0.3,0.3,0,0,0,.114-0.022l5.6-2.216v1.112Zm0-1.777-0.011,0-5.816,2.3a0.3,0.3,0,0,0-.066.037v-1.4a0.3,0.3,0,0,0,.294.038l5.6-2.216V87.4Zm0-1.9-0.011,0-5.816,2.3a0.309,0.309,0,0,0-.066.037V86.568a0.3,0.3,0,0,0,.294.038l5.6-2.216V85.5Zm0-1.777-0.011,0-5.816,2.3a0.309,0.309,0,0,0-.066.037v-1.4a0.312,0.312,0,0,0,.18.059,0.3,0.3,0,0,0,.114-0.022l5.6-2.216v1.234Zm0-1.9-0.011,0-5.816,2.3a0.3,0.3,0,0,0-.066.037V82.893a0.311,0.311,0,0,0,.18.059,0.3,0.3,0,0,0,.114-0.022l5.6-2.216v1.112Zm0-1.777-0.011,0-5.816,2.3a0.3,0.3,0,0,0-.066.037V81.075a0.3,0.3,0,0,0,.294.038l5.6-2.216v1.153Zm0-1.817-0.011,0-5.816,2.3a0.314,0.314,0,0,0-.066.037v-1.4a0.31,0.31,0,0,0,.18.059,0.3,0.3,0,0,0,.114-0.022L78.048,77c0.006,0.114.005,0.184,0.005,0.19v1.042Zm-0.874-2.9h0.438a3.783,3.783,0,0,1,.351,1.032l-5.742,2.273a0.306,0.306,0,0,0-.066.038V77.318l0.012,0ZM72.2,76.639a3.988,3.988,0,0,1,.4-1.305h1.2a6.629,6.629,0,0,0,.9.066h0.633Zm16.543-9.083h0.037a1.177,1.177,0,0,1,.947.495,15.261,15.261,0,0,1-.034,6.044,0.968,0.968,0,0,1-.592.611,1.544,1.544,0,0,1-.929-0.074A10.983,10.983,0,0,0,88.1,67.67,2.077,2.077,0,0,1,88.742,67.556Zm-8.736,2.255a0.616,0.616,0,0,0,.33.1H84.11a0.619,0.619,0,0,0,.174-0.025,5.183,5.183,0,0,0,2.2-1.183,3.94,3.94,0,0,1,1.047-.781,10.539,10.539,0,0,1,.067,6.469,8.674,8.674,0,0,1-1.521-1.051,0.619,0.619,0,0,0-.207-0.114l-1.677-.538a0.62,0.62,0,0,0-.19-0.029H80.441a0.623,0.623,0,0,0-.232.045l-2.918,1.178a10.714,10.714,0,0,1-2.178.958,10.255,10.255,0,0,1-2.194-.959L70,72.7a0.623,0.623,0,0,0-.232-0.045H66.207a0.62,0.62,0,0,0-.189.029l-1.677.538a0.619,0.619,0,0,0-.207.114,8.94,8.94,0,0,1-1.456,1.017,10.539,10.539,0,0,1,.066-6.4,3.889,3.889,0,0,1,.983.746,5.183,5.183,0,0,0,2.2,1.183,0.619,0.619,0,0,0,.174.025h3.774a0.616,0.616,0,0,0,.33-0.1L74.3,67.232h0a1.541,1.541,0,0,1,1.618,0ZM78.5,67.4l-1.926-1.214a2.752,2.752,0,0,0-1.16-.406V12.027l7.934,10.481Zm27.771-23.031a30.707,30.707,0,0,1-4.8,1.463,40.779,40.779,0,0,1-4.192-.812c-1.793-.4-1.741-0.346-2.026-0.4a1.323,1.323,0,0,0-1.548.5,12.2,12.2,0,0,0-.653,3.024,27.466,27.466,0,0,1-3.813-.774,6.488,6.488,0,0,1-2.573-1.579L86.2,45.267,85.3,46.793,82.1,45.638l0-.038c2.741-1.11,3.71-1.667,4.025-1.984a27.319,27.319,0,0,1,3.644,1.816,0.31,0.31,0,1,0,.3-0.539c-0.561-.318-1.04-0.58-1.461-0.8l2.54-1.826a0.31,0.31,0,1,0-.361-0.5l-2.585,1.858a0.307,0.307,0,0,0-.121.195,8.766,8.766,0,0,0-1.9-.81,3.943,3.943,0,0,0-.451-0.7c0.571-.11,1.451-0.287,1.784-0.4a46.473,46.473,0,0,0,4.725-2.821,0.559,0.559,0,0,0,.145-0.473,1.655,1.655,0,0,0-.171-0.511c1.146,0.465,4.52,1.81,6.335,2.3-0.063.674-.123,2.313,0.695,3.057a0.31,0.31,0,1,0,.417-0.458,3.468,3.468,0,0,1-.5-2.454c1.333,0.243,3.6.78,4.622,1.026l0.267,0.223A14.947,14.947,0,0,1,106.273,44.368Zm3.264-6.991c-0.185.093-1.212,0.445-2.037,0.728-1.193.409-1.934,0.665-2.164,0.781A4.867,4.867,0,0,0,104,40.98c-0.988-.238-3.35-0.8-4.729-1.05-0.092-.017-0.2-0.041-0.31-0.068-0.01,0-.015-0.013-0.025-0.015s-0.012.006-.019,0.005c-2.011-.5-6.8-2.467-6.854-2.489a0.291,0.291,0,0,0-.291.055,2.072,2.072,0,0,0-.382-0.35,2.506,2.506,0,0,1-.361-0.318,33.144,33.144,0,0,0,6.878-2.9c0.006,0,.006.014,0.013,0.018A14.424,14.424,0,0,0,102,35.7a3.428,3.428,0,0,0,.4.021,17.085,17.085,0,0,0,3.309-.541c0.709-.161,1.379-0.312,1.857-0.369,1.022-.12,3.4-0.2,4.488-0.226A8.077,8.077,0,0,1,109.537,37.377ZM110.7,32.5c0.221,0.222.952,1,1.383,1.466-1.081.029-3.508,0.1-4.582,0.231-0.51.06-1.2,0.215-1.921,0.38a13,13,0,0,1-3.5.509,12.47,12.47,0,0,1-3.539-1.556c2.64-1.394,5.34-2.962,7.446-4.191a0.292,0.292,0,0,0,.274.144,4.944,4.944,0,0,1,2.642.758,0.31,0.31,0,0,0,.337-0.52,5.512,5.512,0,0,0-2.473-.838c1.178-.687,2.085-1.211,2.431-1.366,0.214-.1.461-0.2,0.728-0.316a0.278,0.278,0,0,0,.1.085,10.208,10.208,0,0,0,2.711.5h0.026a13.6,13.6,0,0,1-1.59,2.29c-0.089.107-.156,0.188-0.2,0.242C110.579,30.835,110.081,31.882,110.7,32.5Z"/>
  <path class="cls-2" d="M71.237,116.348a5.477,5.477,0,0,1-1.525,2.449,6.9,6.9,0,0,1-2.071,1.44l-0.158.063v3.321l0.343-.137a8.757,8.757,0,0,0,2.924-1.927v11.181h3.029V116.169H71.29Zm10.081,5.5a2.848,2.848,0,0,0-2.05.859,6.863,6.863,0,0,1,.609-2.757,1.352,1.352,0,0,1,1.143-.756,0.988,0.988,0,0,1,.792.35,2.187,2.187,0,0,1,.408,1.214l0.025,0.258,2.954-.4-0.035-.249a5.439,5.439,0,0,0-1.323-3.1,3.568,3.568,0,0,0-2.669-1.1,4.322,4.322,0,0,0-3.689,2.051c-0.919,1.332-1.385,3.514-1.385,6.484,0,2.9.448,5.022,1.331,6.314a4.1,4.1,0,0,0,3.491,1.992,3.989,3.989,0,0,0,3.246-1.578,6.388,6.388,0,0,0,1.243-4.1,6.274,6.274,0,0,0-1.182-3.93A3.6,3.6,0,0,0,81.318,121.845Zm0.7,7.563a1.146,1.146,0,0,1-.966.559,1.353,1.353,0,0,1-1.091-.707,3.781,3.781,0,0,1-.522-2.165,3.253,3.253,0,0,1,.456-1.9,1.2,1.2,0,0,1,2.085.028,3.877,3.877,0,0,1,.459,2.145A3.7,3.7,0,0,1,82.014,129.408ZM29.333,52c0.1,0,.207,0,0.313-0.006a5.738,5.738,0,0,0,4.147-1.845c1.131-1.283,1.59-3.029,1.489-5.663l-0.21-5.5-1.455.055-0.029.451c-0.075,1.175-.075,1.175-1.221,1.219l-7.178.274c-1.14.044-1.139,0.043-1.291-1.118l-0.06-.452-1.459.055,0.179,4.709a9,9,0,0,0,1.736,5.568A6.315,6.315,0,0,0,29.333,52Zm-3.9-8.457,7.411-.283a2.01,2.01,0,0,1,.618.022,2.372,2.372,0,0,1,.186,1.1,5.213,5.213,0,0,1-.539,2.842,4.2,4.2,0,0,1-3.821,2c-3.094.1-4.922-1.416-5.029-4.208C24.211,43.79,24.5,43.583,25.431,43.547Zm1.679,32.2c-0.072-1.2-.072-1.2,1.049-1.388l7.045-1.2c1.139-.192,1.139-0.194,1.467.96l0.123,0.432,1.433-.243-0.894-5.249L37.2,68.7l-0.436-3.908-1.438.161,0,0.443a5.9,5.9,0,0,1-.064,1.043,1.36,1.36,0,0,1-.546-0.081c-1.655-.415-3.813-1-6.57-1.781,2.5-1.274,5.235-2.636,6.38-3.177a2.079,2.079,0,0,1,.2-0.092,3.741,3.741,0,0,1,.234.786l0.1,0.438,1.444-.162-0.569-5.089,0.082-.006L35.6,51.46l-1.449.1-0.017.448c-0.046,1.181-.046,1.181-1.2,1.263l-7.13.5c-1.136.082-1.135,0.08-1.347-1.083l-0.08-.44-1.449.1,0.41,5.812,1.448-.1,0.018-.448c0.045-1.2.045-1.2,1.18-1.279l7.13-.5c1.152-.08,1.152-0.081,1.366,1.1l0.01,0.054-0.061.007,0.006,0.453c0.011,0.861.014,1.041-1.128,1.624-2.461,1.279-6.263,3.181-9.3,4.695l-0.313.156L23.836,65.2l0.328,0.089c1.889,0.513,6.409,1.8,8.677,2.453l1.138,0.325c1.532,0.423,1.576.6,1.818,1.569l0.07,0.163c0.019,0.643-.092.662-1.095,0.832l-7.045,1.2c-1.122.191-1.122,0.191-1.446-.946l-0.123-.431-1.432.243L25.7,76.436l1.433-.245Zm4.247,8.9c1.932-.5,2.571-1.83,3.135-4.279,0.392-1.7.773-2.28,1.633-2.5a1.635,1.635,0,0,1,1.066.046,1.3,1.3,0,0,1,.7.938c0.313,1.221-.283,1.822-1.42,2.447l-0.412.227L36.7,82.881l0.434-.17c0.825-.323,1.413-0.543,1.913-0.731l0.813-.306-0.034-.628a10.27,10.27,0,0,0-.263-2.22,4.461,4.461,0,0,0-1.819-2.717,3.4,3.4,0,0,0-2.728-.462c-2.021.518-2.611,2.239-3.08,4.107-0.441,1.736-.744,2.32-1.784,2.586a1.482,1.482,0,0,1-1.916-1.149c-0.3-1.173.274-2.2,1.708-3.065l0.413-.248-0.724-1.314-0.41.164A25.1,25.1,0,0,0,26.661,77.9l-0.213.126-0.03.246a8,8,0,0,0,.12,3,4.258,4.258,0,0,0,3.93,3.484A3.588,3.588,0,0,0,31.357,84.642Zm1.1,5.081,6.712-2.447c1.084-.4,1.084-0.4,1.615.679l0.2,0.4,1.365-.5-1.995-5.47-1.364.5,0.106,0.436c0.281,1.147.281,1.147-.8,1.543l-6.712,2.447c-1.069.389-1.069,0.389-1.592-.669l-0.2-.4-1.365.5,2,5.471,1.364-.5-0.107-.436C31.388,90.113,31.388,90.113,32.457,89.723ZM58.142,115.3l0.39-.347-0.364-.375c-0.086-.088-0.419-0.456-1.655-1.963h0L52.7,107.966l-0.034.027L50.5,104.407l-1.26.762,0.217,0.417c0.65,1.243.476,1.365,0.146,1.6-0.349.262-.915,0.656-2.468,1.6l-2.6,1.575,3.427-10.141-1.777-2.936-1.214.734a6.258,6.258,0,0,0-.119-4.862A6.433,6.433,0,0,0,41,89.562a6.866,6.866,0,0,0-4.961.285,6.513,6.513,0,0,0,.2,12,6.229,6.229,0,0,0,2.2.4,7.608,7.608,0,0,0,3.075-.689,6.481,6.481,0,0,0,3.423-3.494l0.181,0.382a1.447,1.447,0,0,1,.256,1.325,1.089,1.089,0,0,1-.617.663L40.842,102.8c-1.228.744-2,1.183-2.6,1.47-0.433.215-.65,0.275-1.273-0.587l-0.27-.374-1.253.758,2.783,4.6,1.252-.758-0.2-.412c-0.579-1.165-.381-1.3.025-1.564s1.06-.746,2.45-1.588l2.651-1.605L40.732,113.11l0.737,1.215,6.6-4c1.217-.737,1.876-1.106,2.354-1.373l0.216-.122c0.385-.2.488-0.254,1.163,0.628l0.273,0.356,0.076-.046c0.25,0.444.1,0.566-.649,1.181l-5.5,4.508c-0.9.739-.9,0.74-1.826-0.231l-0.32-.336-1.136.93,6.093,7.43,0.337-.129c0.565-.216,2.316-1.023,2.747-1.236l0.433-.214-0.6-1.331-0.406.1a6.882,6.882,0,0,1-1.765.283,1.186,1.186,0,0,1-1.169-.711l-1.056-1.287c-0.461-.586-0.5-0.634.174-1.185l2.383-1.954,0.938,1.144c0.628,0.765.628,0.765-.074,1.589l-0.271.318,0.937,1.141,3.623-2.972,0.754,0.658,0.33-.315C56.816,116.5,57.807,115.593,58.142,115.3ZM39.914,99.162c-2.671,1.183-4.692.756-5.546-1.172-0.914-2.063.467-4.466,3.283-5.714C40.532,91,42.5,91.97,43.18,93.5,44.114,95.606,42.8,97.883,39.914,99.162Zm15.712,15.791a5.526,5.526,0,0,1-.661,1.188l-0.209.289-0.633-.773-0.366.206c-0.957.538-.957,0.538-1.573-0.214l-0.95-1.159,2.69-2.2,0.058-.047,0.06,0.072,1.084,1.322C55.807,114.462,55.773,114.633,55.626,114.953Zm50.634-3.411c-0.917.89-.917,0.89-1.709,0.233l-1.586-1.313,0.514-.37a3.6,3.6,0,0,0,.383-0.4,4.731,4.731,0,0,0,1.089-2.773,3.771,3.771,0,0,0-1.457-3.137,3.461,3.461,0,0,0-3.068-.79,5.341,5.341,0,0,0-2.706,1.947l-3.173,3.83,1.107,0.917,0.322-.318c0.8-.784.8-0.783,1.647-0.077l5.3,4.392c0.837,0.693.837,0.693,0.217,1.623l-0.25.375L104,116.6l3.691-4.455-1.105-.916Zm-3.982-2.645a3.292,3.292,0,0,1-.553.537l-2.968-2.46h0c-0.238-.2-0.3-0.282-0.313-0.282a0,0,0,0,0,0,0,1.764,1.764,0,0,1,.35-0.554,2.406,2.406,0,0,1,1.385-.892,2.1,2.1,0,0,1,1.692.579A1.972,1.972,0,0,1,102.278,108.9Zm10.732-7.113c-0.7.9-.7,0.9-1.616,0.332l-5.858-3.61c-0.933-.575-0.933-0.575-0.444-1.6l0.193-.4-1.221-.753-2.962,4.807,1.22,0.751,0.276-.354c0.69-.884.69-0.884,1.622-0.308l5.858,3.61c0.919,0.566.919,0.566,0.438,1.579l-0.192.405,1.22,0.752,2.962-4.8-1.22-.753Zm2.657-9.844c-1.748-.816-3.044-0.213-4.967,1.267-1.321,1.017-1.957,1.218-2.723.859a1.235,1.235,0,0,1-.7-1.784c0.509-1.088,1.314-1.17,2.533-.941l0.462,0.086,0.36-1.44-0.443-.145c-0.814-.265-1.388-0.461-1.876-0.628l-0.8-.272-0.368.5a10.026,10.026,0,0,0-1.163,1.814c-1.131,2.421-.129,4.433,1.446,5.169,1.827,0.853,3.323-.066,4.82-1.172,1.383-1.017,1.962-1.264,2.889-.83a1.408,1.408,0,0,1,.713,2c-0.5,1.062-1.52,1.463-3.125,1.225l-0.477-.071-0.27,1.453,0.42,0.134a24.292,24.292,0,0,0,2.626.694l0.246,0.04,0.179-.171a7.746,7.746,0,0,0,1.748-2.311C118.239,95.189,117.581,92.835,115.667,91.94Zm4.122-23.722a6.206,6.206,0,0,0-4.826.71,6.1,6.1,0,0,0-2.683,3.733,6.216,6.216,0,0,0,.81,5.013,6.312,6.312,0,0,0,1.376,1.443l-0.345-.084c-1.04-.255-2.211-0.587-2.914-0.826l-0.474-.161-0.373,1.1,0.133,0.2a0.416,0.416,0,0,1,.039.532l-2.223,6.555c-0.113.335-.113,0.335-0.3,0.379l-0.27.064-0.368,1.088,0.44,0.176c0.9,0.359,1.9.809,2.85,1.24l0.5,0.228,0.457-1.351-0.388-.3a6.777,6.777,0,0,1-.971-0.847c-0.218-.244-0.284-0.317,0-1.152l0.346-1.02,7.522,2.552c1.01,0.342,1.01.342,0.675,1.584l-0.121.453,1.377,0.466L122,84.267l-1.378-.467-0.178.434c-0.5,1.22-.5,1.219-1.511.879h0l-7.522-2.552,0.4-1.168c0.247-.729.3-0.74,0.645-0.813a6.04,6.04,0,0,1,1.4-.052l0.419,0.022,0.309-1.332a6.845,6.845,0,0,0,2.459,1.175,6.727,6.727,0,0,0,1.621.2,6.149,6.149,0,0,0,3.143-.848,6.216,6.216,0,0,0,2.845-3.914,6.12,6.12,0,0,0-.664-4.711A6.627,6.627,0,0,0,119.789,68.218Zm3.321,6.945c-0.519,2.1-2.978,3.107-5.847,2.4a5.1,5.1,0,0,1-2.99-1.78,2.846,2.846,0,0,1-.483-2.387c0.412-1.666,1.91-2.612,3.936-2.612a7.832,7.832,0,0,1,1.87.242C122.314,71.695,123.6,73.2,123.11,75.163Zm1.342-18.9c0.378-.1.716-0.2,1.016-0.268l0.014,0a1.839,1.839,0,0,1,.182-0.042,3.659,3.659,0,0,1,.066.68l0.017,0.442,1.423,0.122,0.451-5.263-1.427-.123-0.088.438c-0.2,1-.2,1.02-1.585,1.4-3.082.832-6.45,1.745-9.5,2.58l-0.408.112,0.127,1.257,9.011,4.477c1.185,0.582,1.313.743,1.354,1.435l-0.069.272c-0.28,1.1-.281,1.1-1.349.952l-6.814-.963c-1.086-.154-1.086-0.154-1.049-1.291l0.014-.448-1.419-.2-0.791,5.591,1.42,0.2,0.11-.434c0.277-1.086.277-1.086,1.363-.933l6.815,0.963c1.069,0.151,1.069.151,1.034,1.272l-0.014.448,1.421,0.2,0.679-4.814,0.1,0.008,0.427-4.987-1.423-.122-0.09.433a4.9,4.9,0,0,1-.271.983,1.4,1.4,0,0,1-.583-0.183c-0.408-.18-0.8-0.365-1.217-0.557l-0.548-.254,0.259-3.024C123.605,56.489,124.051,56.368,124.452,56.259Zm-3.249,2.6c-0.764-.366-1.576-0.752-2.388-1.137l2.543-.666ZM62.324,121.585l-1.237-3.806-1.237,3.806h-4l3.238,2.353-1.236,3.8,3.238-2.351,3.238,2.352-1.237-3.806,3.238-2.353h-4Zm29.4,0-1.237-3.806-1.237,3.806h-4l3.237,2.353-1.236,3.8,3.237-2.351,3.238,2.351-1.236-3.8,3.237-2.353h-4Z"/>
</svg>
