<svg id="_3_fighter_squadron" data-name="3_fighter_squadron" xmlns="http://www.w3.org/2000/svg" width="150" height="150" viewBox="0 0 150 150">
  <defs>
    <style>
      .cls-1 {
        fill: #eee;
      }

      .cls-1, .cls-2 {
        fill-rule: evenodd;
      }

      .cls-2 {
        fill: #b53434;
      }
    </style>
  </defs>
  <path id="Shape_3_copy_8" data-name="Shape 3 copy 8" class="cls-1" d="M70.389,4.878H15.4V74.623s7.977,43.125,58.18,70.142a3,3,0,0,0,1.422.357h0a3,3,0,0,0,1.422-.357c50.2-27.017,58.18-70.142,58.18-70.142V4.878H70.389Z"/>
  <path id="Shape_3_copy_7" data-name="Shape 3 copy 7" class="cls-2" d="M75,147.637a5.53,5.53,0,0,1-2.614-.657c-26.448-14.233-41.188-32.952-48.9-46.149C15.1,86.459,13.135,75.538,13.05,75.08l-0.042-.226V1.988H136.992V74.854l-0.042.226c-0.085.458-2.046,11.378-10.44,25.751-7.708,13.2-22.448,31.916-48.9,46.149A5.526,5.526,0,0,1,75,147.637ZM18.038,74.371c0.326,1.537,2.513,11.519,9.914,24.127,7.383,12.577,21.5,30.428,46.818,44.054a0.51,0.51,0,0,0,.46,0c46.824-25.2,56.048-64.964,56.732-68.18V7.018H18.038V74.371Zm106.9-55.285H104.562l-23,75.108-0.036.132c-1.938,8-7.582,15.3-14.624,13.774a5.048,5.048,0,0,1-3.508-2.286c-1.369-2.292-.83-5.857-0.5-7.059l20.9-67.723H36.15c0.543,1.139,1.292,3.086,2.156,4.9H77.62l-0.931,3.143H39.743c0.7,1.465,1.426,3.372,2.154,4.9h33.4L74.206,47H43.57c0.772,1.624,1.753,3.665,2.4,5.027h26.84L58.552,97.355l-0.015.051c-0.071.251-1.71,6.191,0.959,10.693a9.462,9.462,0,0,0,6.457,4.426,13.515,13.515,0,0,0,2.86.312c8.448,0,14.869-8.3,17.1-17.413L107.6,24.994h11.54a1.239,1.239,0,0,1,1.317,1.581c-0.264,1.669-2.284,2.925-2.284,2.925s5.994,0.209,9.32-4.731C131.07,19.454,126.307,19.13,124.935,19.086Z"/>
</svg>
