<svg id="axis_tunisia_sniper_2_icon" xmlns="http://www.w3.org/2000/svg" width="150" height="150" viewBox="0 0 150 150">
  <defs>
    <style>
      .cls-1 {
        fill: #ea2b2b;
      }

      .cls-1, .cls-3 {
        fill-rule: evenodd;
      }

      .cls-2 {
        fill: #151515;
      }

      .cls-3 {
        fill: #f2f2f2;
      }
    </style>
  </defs>
  <g id="axis_tunisia_sniper_2_icon_copy" data-name="axis_tunisia_sniper_2_icon copy">
    <path class="cls-1" d="M125.564,90.969H79.712v25.687H69.593V90.969H23.936L69.593,20.015v-17H79.712v17Zm-18.37-10.734L79.712,37.945v42.29h27.482Zm-64.888,0H69.593V37.945Z"/>
  </g>
  <g id="ger_copy_10" data-name="ger copy 10">
    <rect id="Rectangle_2_copy_3" data-name="Rectangle 2 copy 3" class="cls-2" x="46" y="119" width="58" height="30"/>
    <path id="Rectangle_2_copy_3-2" data-name="Rectangle 2 copy 3" class="cls-3" d="M46,146v-3h58v3H46Zm0-24h58v3H46v-3Z"/>
    <path id="_33" data-name="33" class="cls-3" d="M68.771,138.313a4.472,4.472,0,0,1-2.093-.518l-0.917,2.692a4.161,4.161,0,0,0,1.485.538,9.334,9.334,0,0,0,1.844.2,4.6,4.6,0,0,0,3.29-1.166,4.676,4.676,0,0,0,1.236-3.559,4.507,4.507,0,0,0-.748-2.8,2.974,2.974,0,0,0-1.9-1.166l-0.9.1v-0.139l0.877-.519,2.073-2.751v-2.253H66.039v2.911h2.313l1.555-.239-1.156.937-1.635,2.233v2.153h1.156a2.369,2.369,0,0,1,1.565.4,1.625,1.625,0,0,1,.449,1.276A1.414,1.414,0,0,1,68.771,138.313Zm11.24,0a4.472,4.472,0,0,1-2.093-.518L77,140.487a4.162,4.162,0,0,0,1.485.538,9.336,9.336,0,0,0,1.844.2,4.6,4.6,0,0,0,3.29-1.166,4.676,4.676,0,0,0,1.236-3.559,4.507,4.507,0,0,0-.748-2.8,2.974,2.974,0,0,0-1.9-1.166l-0.9.1v-0.139l0.877-.519,2.073-2.751v-2.253H77.279v2.911h2.313l1.555-.239-1.156.937-1.635,2.233v2.153h1.156a2.369,2.369,0,0,1,1.565.4,1.625,1.625,0,0,1,.449,1.276A1.414,1.414,0,0,1,80.01,138.313Z"/>
  </g>
</svg>
