<svg id="axis_tunisia_tank_1_icon" xmlns="http://www.w3.org/2000/svg" width="150" height="150" viewBox="0 0 150 150">
  <defs>
    <style>
      .cls-1 {
        fill: #de2323;
      }

      .cls-1, .cls-2, .cls-3 {
        fill-rule: evenodd;
      }

      .cls-2 {
        fill: #171717;
      }

      .cls-3 {
        fill: #bdbdbd;
      }
    </style>
  </defs>
  <path id="Shape_275_copy" data-name="Shape 275 copy" class="cls-1" d="M71.869,16.572L18.719,30.3S17.265,62.452,22.6,81.839s11.543,34.2,31.826,50.566c19.266,15.549,20.194,15.024,20.194,15.024h0.769s1.05,0.485,20.194-15.024C115.83,116,122.073,101.225,127.4,81.839S131.281,30.3,131.281,30.3L78.131,16.572H71.869Z"/>
  <path id="Shape_275_copy_2" data-name="Shape 275 copy 2" class="cls-2" d="M75.384,148.254l-0.769-.02c-1-.109-4.441-2.055-20.712-15.187C34.367,117.28,27.549,102.963,21.8,82.058c-5.3-19.289-3.92-51.468-3.906-51.791l0.027-.61L71.869,15.746l6.468,0.026,53.742,13.885,0.027,0.61c0.015,0.323,1.4,32.5-3.906,51.791-5.732,20.845-12.546,35.145-32.1,50.988-16.444,13.322-19.777,15.1-20.714,15.193v0.015Zm-0.636-1.631h0Zm0.508,0h0Zm-0.562-.018h0.614c0.462-.177,3.554-1.719,19.751-14.84,19.21-15.563,25.909-29.629,31.55-50.143,4.834-17.579,4.034-46.148,3.872-50.67L78.026,17.4H71.974L19.52,30.95c-0.162,4.519-.962,33.089,3.873,50.67,5.657,20.572,12.36,34.656,31.548,50.142C71.144,144.84,74.226,146.417,74.694,146.6Z"/>
  <path id="Shape_275_copy_3" data-name="Shape 275 copy 3" class="cls-3" d="M111.383,30.623c0.323-.431,2.584-2.8,2.8-5.708,0,0-3.662-1.077-4.2-1.077s-1.185-1.292-1.508-1.616c0,0-4.739,1.293-5.063,1.293a1.363,1.363,0,0,1-1.076-.754c0-.323-2.047-4.093-2.477-4.2s-5.493,2.908-5.493,2.908,1.831-4.308.108-7.216a15.049,15.049,0,0,1-3.016-.108,1.173,1.173,0,0,1-.539-0.754,34.7,34.7,0,0,0-2.585-6.247l-3.77,2.585-1.508-.215-1.4,1.831H80.8S80.364,6.6,79.4,5.313l-1.616-.323a18.53,18.53,0,0,0-3.016-3.662,41.6,41.6,0,0,0-3.231,3.985c-0.969,1.508-.969,2.046-1.293,2.046S67.44,6.5,67.117,6.5s-1.939,2.693-2.154,5.708c0,0-1.184-2.477-1.831-2.585a3.059,3.059,0,0,0-1.508.323,31.229,31.229,0,0,0-4.092-2.477c-0.647-.108-2.154,4.2-2.262,4.847s-0.215,1.939-.538,1.939a14.729,14.729,0,0,0-3.016.215c-0.431.215-.754,3.016-0.754,3.985a17.221,17.221,0,0,0,1.077,3.662s-3.446-3.339-6.462-3.231a42.389,42.389,0,0,1-1.508,4.308,2.4,2.4,0,0,1-.754.646s-5.385-1.616-5.708-1.4a6.769,6.769,0,0,0-.969,1.508s-4.631.538-4.847,0.969,3.231,6.677,3.231,6.677v0.754s-2.046,1.508-1.939,1.939a11.333,11.333,0,0,0,3.877,3.985,8.055,8.055,0,0,0,3.662,1.185l1.292,1.831s-2.693,2.8-2.908,3.123,3.877,2.37,5.062,2.154,5.493-.862,6.354-1.077,1.4-.323,1.508,0,0.215,3.446.754,3.446a28.007,28.007,0,0,0,4.954-1.077,6.12,6.12,0,0,0,2.477-1.508s0.216,1.185.538,1.077,3.77-1.831,3.77-1.831,3.112,1.623,4.562,2.35L71.175,68.21h0.41l-1.709,1.077H66.1a5.03,5.03,0,0,1-1.887-.97c-0.42-.538-2.936-2.477-4.3-0.538a15.121,15.121,0,0,0,0,6.462s0.734,2.8,4.613-.431l1.677-.538h3.564l2.935,1.185a6.985,6.985,0,0,0,1.214.269h-1.67a4.7,4.7,0,0,0-.7,2.464v14.1a3.178,3.178,0,0,0,3.03,3.473H75.63a3.178,3.178,0,0,0,3.03-3.473V77.19a4.7,4.7,0,0,0-.7-2.464h-1.67a6.985,6.985,0,0,0,1.214-.269l2.935-1.185h3.564l1.677,0.538c3.879,3.231,4.613.431,4.613,0.431a15.121,15.121,0,0,0,0-6.462c-1.363-1.939-3.879,0-4.3.538a5.026,5.026,0,0,1-1.887.97H80.336L78.628,68.21h0.41l2.4-22.26,4.093,1.473,0.754-1.292a6.929,6.929,0,0,0,2.8,1.723,31.012,31.012,0,0,0,4.416.861,17.706,17.706,0,0,1,.646-3.339c0.323-.538.969-0.215,1.292-0.215s5.063,1.185,6.032,1.185a39.642,39.642,0,0,0,5.6-1.723,17.818,17.818,0,0,0-2.692-3.231,6.971,6.971,0,0,1,1.185-2.046c0.43-.215,3.769-1.292,4.2-1.508s2.8-2.154,3.015-3.877c0,0-1.4-1.508-1.723-1.831S111.059,31.053,111.383,30.623Z"/>
  <path id="Shape_275_copy_4" data-name="Shape 275 copy 4" class="cls-2" d="M111.959,30.733a10.89,10.89,0,0,0,2.738-5.78l0.031-.416-0.4-.118a39.074,39.074,0,0,0-4.3-1.093h0a3.6,3.6,0,0,1-.748-0.895,4.378,4.378,0,0,0-.433-0.574l-0.212-.212-0.289.079c-2.178.594-4.655,1.243-4.918,1.275a1.277,1.277,0,0,1-.588-0.34c-0.209-.757-2.116-4.416-2.849-4.6-0.2-.05-0.566-0.145-4.69,2.262,0.434-1.584.857-4.252-.376-6.333l-0.157-.265-0.308.013a15.885,15.885,0,0,1-2.763-.053,0.69,0.69,0,0,1-.273-0.437,34.883,34.883,0,0,0-2.629-6.353L88.51,6.4,84.439,9.189l-1.608-.229L81.4,10.828h-0.14C81.121,9.533,80.681,6.167,79.808,5L79.69,4.845l-1.6-.319A17.531,17.531,0,0,0,75.074.915L74.7,0.634l-0.316.346A41.533,41.533,0,0,0,71.1,5.033a14.676,14.676,0,0,0-.869,1.542c-0.04.081-.083,0.169-0.12,0.236-0.292-.073-0.87-0.251-1.28-0.377a8.587,8.587,0,0,0-1.713-.454c-0.776,0-1.923,2.318-2.431,4.614a2.965,2.965,0,0,0-1.469-1.483,3.079,3.079,0,0,0-1.538.244,22.56,22.56,0,0,0-4.063-2.4c-1.36-.2-2.846,5.215-2.855,5.271-0.021.125-.042,0.272-0.064,0.43a9.008,9.008,0,0,1-.2,1.078c-2.5.011-2.887,0.205-3.016,0.27-0.929.464-1.039,4.407-1.039,4.446a8.184,8.184,0,0,0,.463,2.053c-1.344-.993-3.4-2.217-5.351-2.138l-0.368.013-0.108.352a39.786,39.786,0,0,1-1.427,4.149,1.858,1.858,0,0,1-.414.395c-5.406-1.614-5.7-1.415-5.921-1.269A4.809,4.809,0,0,0,36.3,23.464c-4.643.555-4.858,0.986-4.974,1.219-0.133.267-.334,0.669,3.176,7.041v0.362c-2.107,1.588-1.983,2.081-1.923,2.323A11.484,11.484,0,0,0,36.7,38.716a9.089,9.089,0,0,0,3.642,1.238l0.9,1.28c-0.832.868-2.474,2.593-2.671,2.888L38.4,44.5l0.188,0.285c0.47,0.715,4.29,2.516,5.569,2.285,0.43-.078,1.273-0.214,2.212-0.364,1.69-.271,3.606-0.578,4.176-0.72a7.392,7.392,0,0,1,.914-0.187c0.016,0.127.032,0.3,0.052,0.508,0.193,1.948.353,3.142,1.17,3.142a28.119,28.119,0,0,0,5.118-1.1,7.122,7.122,0,0,0,2.039-1.069,1.173,1.173,0,0,0,.436.578,0.642,0.642,0,0,0,.541.06c0.3-.1,2.6-1.239,3.6-1.741,1.062,0.553,2.814,1.463,3.974,2.048l2.15,19.913-0.847.534h-3.5a4.149,4.149,0,0,1-1.49-.731,4.881,4.881,0,0,0-3.3-1.619,2.446,2.446,0,0,0-1.993,1.105,0.605,0.605,0,0,0-.087.18,15.643,15.643,0,0,0-.015,6.75c0,0.015.006,0.03,0.01,0.045a2.214,2.214,0,0,0,1.406,1.484c1.076,0.344,2.457-.166,4.108-1.519l1.472-.472h3.347l1.925,0.777a5.427,5.427,0,0,0-.631,2.521v14.1a3.759,3.759,0,0,0,3.637,4.074h1.056a3.76,3.76,0,0,0,3.629-4.081V77.207a5.442,5.442,0,0,0-.631-2.539l1.925-.777h3.347l1.472,0.472a5.842,5.842,0,0,0,3.42,1.623,2.244,2.244,0,0,0,.688-0.1A2.214,2.214,0,0,0,90.894,74.4c0-.015.007-0.03,0.01-0.045a15.634,15.634,0,0,0-.015-6.75,0.605,0.605,0,0,0-.087-0.18,2.445,2.445,0,0,0-1.993-1.105,4.888,4.888,0,0,0-3.3,1.619,4.151,4.151,0,0,1-1.49.731h-3.5l-0.847-.534,2.315-21.44,3.78,1.361,0.645-1.106a7.491,7.491,0,0,0,2.525,1.4,31.061,31.061,0,0,0,4.508.881l0.515,0.062,0.059-.515a16.305,16.305,0,0,1,.577-3.133c0.036-.061.075-0.091,0.463-0.015,0.146,0.028.275,0.037,0.363,0.05,0.14,0.013.935,0.191,1.638,0.348a34.383,34.383,0,0,0,4.417.837c1.011,0,4.993-1.462,5.781-1.755l0.6-.225-0.351-.54a19.535,19.535,0,0,0-2.5-3.089,6.618,6.618,0,0,1,.794-1.445c0.185-.093,1.212-0.445,2.037-0.728,1.193-.409,1.934-0.666,2.164-0.781,0.437-.218,3.043-2.246,3.3-4.275l0.03-.239-0.164-.176s-1.411-1.519-1.715-1.813a1.477,1.477,0,0,1,.35-0.864C111.829,30.888,111.885,30.821,111.959,30.733Zm-1.2-3.881c1-.409,2.093-0.835,2.769-1.1a7.481,7.481,0,0,1-.451,1.372A6.939,6.939,0,0,1,110.754,26.851Zm-0.773-2.5a32.506,32.506,0,0,1,3.291.835c-1.081.418-3.17,1.237-4.332,1.759-0.424.19-1.5,0.82-3,1.691l-1.5.872a7.583,7.583,0,0,1,.913-3.552c0.478-.659,2.166-2.358,2.938-3.126l0.123,0.18A2.379,2.379,0,0,0,109.981,24.353Zm-6.149,5.253a0.306,0.306,0,0,0,.106.2c-0.78.451-1.615,0.928-2.482,1.416a18.331,18.331,0,0,1,.225-3.956c0.244-.611,1.33-2.467,1.789-3.242,0.356-.034,1.967-0.449,3.668-0.9a31.583,31.583,0,0,0-2.279,2.476A7.989,7.989,0,0,0,103.832,29.607ZM101.82,22.76a1.46,1.46,0,0,0,1.015,1.12c-0.51.863-1.485,2.542-1.729,3.154a21.089,21.089,0,0,0-.264,4.484,0.186,0.186,0,0,0,.016.037c-3.8,2.113-8.005,4.263-10.262,4.659a0.243,0.243,0,0,0-.024.015,3.016,3.016,0,0,1-.439-0.682c0.238-.189.955-0.714,1.651-1.223,1.31-.959,2.941-2.152,3.747-2.816,1.46-1.2,2.859-5.618,2.859-5.893a0.36,0.36,0,0,0-.1-0.241,1.469,1.469,0,0,0-.972-0.184,0.279,0.279,0,0,0,.025-0.06,42.115,42.115,0,0,1,2.508-5.843A25.643,25.643,0,0,1,101.82,22.76ZM84.927,42.3a4.957,4.957,0,0,1,.7.96,23.381,23.381,0,0,1-3.447,1.64l0.459-4.244a5.951,5.951,0,0,0,2.071-1.007c1.2-.083,2.744-0.236,2.744-0.236L87.388,38.8s-1.075.107-2.127,0.19a13.008,13.008,0,0,0,1.192-3.013l0.048-.164a0.31,0.31,0,1,0-.588-0.2c-0.01.031-.029,0.1-0.056,0.19a8.023,8.023,0,0,1-1.474,3.313,4.767,4.767,0,0,1-1.676.869l0.847-7.839a49.5,49.5,0,0,0,5.838-3.008,0.291,0.291,0,0,0,.1.276,5.757,5.757,0,0,0,3.1,1.113,0.31,0.31,0,1,0,0-.619,5.207,5.207,0,0,1-2.72-.986,0.275,0.275,0,0,0-.084-0.023,20.881,20.881,0,0,0,3.905-3.061c1.628-.056,3.4-0.07,4.027-0.009-0.275.983-1.465,4.283-2.578,5.2-0.793.652-2.415,1.84-3.719,2.794-1.218.891-1.687,1.238-1.8,1.345a0.45,0.45,0,0,0-.122.375,4.72,4.72,0,0,0,1.541,2.041,2.494,2.494,0,0,1,.763,1.055c-0.27.245-4.039,2.525-4.486,2.674-0.38.127-1.73,0.385-2.219,0.474A0.31,0.31,0,0,0,84.927,42.3ZM84.311,25.141A7.729,7.729,0,0,0,88.2,23.5a8.218,8.218,0,0,0,1.891-2.981,5.823,5.823,0,0,1,.416-0.869c0.372-.557,2.754-3.445,3.758-4.656,0.839,1.94.251,4.408-.126,5.588a0.3,0.3,0,0,0-.029.02,9.085,9.085,0,0,0-1.262,2.431c0,0.367.279,1.875,0.378,2.4-2.6,2.71-7.488,5.066-9.591,6ZM99.106,19.4c-0.852,1.775-2.384,5.055-2.384,5.727a0.277,0.277,0,0,0,.017.042c-0.649-.011-1.579,0-2.926.043-0.152-.808-0.349-1.939-0.349-2.179a2.389,2.389,0,0,1,.253-0.58l0.913-.544C96.272,20.933,98.081,19.913,99.106,19.4Zm-8.692-5.911a1.67,1.67,0,0,0,.813,1.115,7.75,7.75,0,0,0,2.395.187c-1.086,1.312-3.261,3.953-3.633,4.51a6.223,6.223,0,0,0-.471.971,7.591,7.591,0,0,1-1.745,2.772A7,7,0,0,1,84.38,24.5l0.227-2.1a0.6,0.6,0,0,0-.057-0.308c0-.009.012-0.012,0.015-0.021,0.013-.044,1.055-3.59,1.754-6.1h0l3.231-1.293a0.31,0.31,0,1,0-.23-0.575l-2.8,1.119c0.085-.309.161-0.595,0.223-0.834,0.4-1.552,1.183-4.512,1.6-6.1A36.256,36.256,0,0,1,90.414,13.491Zm-3.34-2.785A13.561,13.561,0,0,0,86.2,9.234l1.541-1.057C87.563,8.851,87.322,9.763,87.073,10.706Zm-2.382-.438,1-.683a7.827,7.827,0,0,1,1.1,2.111,0.257,0.257,0,0,0,.015.025c-0.249.947-.486,1.854-0.656,2.507-0.2.771-.534,1.966-0.882,3.185A9.624,9.624,0,0,1,83.2,13.994a13.86,13.86,0,0,1-.189-3.568l0.275-.36ZM81.912,11.86l0.443-.579a12.539,12.539,0,0,0,.239,2.851,10.885,10.885,0,0,0,2.473,3.988c-0.4,1.379-.774,2.677-0.965,3.33l-5.743-7.586a21.9,21.9,0,0,1,2.085-2h1.468Zm-5.052.022a35.715,35.715,0,0,0,2.7-4.813,29.406,29.406,0,0,1,.7,4.167,14.329,14.329,0,0,0-2.286,2.126Zm0.6-6.43,1.62,0.324a3.387,3.387,0,0,1,.164.357,27.791,27.791,0,0,1-2.785,5.224l-0.6-.8a0.926,0.926,0,0,0-.486-0.311c0.2-.224.429-0.984,0.221-3.967a0.3,0.3,0,0,0,.093-0.155A5,5,0,0,1,76.8,4.463c0.325,0.462.54,0.8,0.546,0.8Zm-1.033-1.5A9.487,9.487,0,0,0,75.5,5.12c-0.07-.77-0.162-1.652-0.284-2.666A17.839,17.839,0,0,1,76.431,3.951Zm-6.19,3.924a1.088,1.088,0,0,0,.913-0.841,13.878,13.878,0,0,1,.813-1.442,33.834,33.834,0,0,1,2.607-3.275,40.849,40.849,0,0,1,.433,7.28,12.86,12.86,0,0,0-3.19-2.429,0.309,0.309,0,0,0-.3.542,12.1,12.1,0,0,1,3.048,2.332,0.984,0.984,0,0,0,.211.221,0.929,0.929,0,0,0-.424.3l-3.772,4.982a32.125,32.125,0,0,0-.966-3.769c-0.35-.932-1.347-3.329-1.875-4.591,0.262,0.077.55,0.166,0.787,0.239A8.583,8.583,0,0,0,70.241,7.875ZM67.1,7.257c0.5,1.2,1.573,3.769,1.935,4.735a37.663,37.663,0,0,1,1.036,4.15,0.255,0.255,0,0,0,.025.042L67,20.27l-1.094-1.094a7,7,0,0,1-.939-1.805,10.943,10.943,0,0,0,.7-3.018c-0.049-.439-0.128-1.485-0.183-2.232A11.356,11.356,0,0,1,67.1,7.257ZM67.473,39.7l-1.554-4.818c0.407,0.276.807,0.526,1.11,0.711ZM64.8,33.173a36.452,36.452,0,0,1-2.2-3.049,6.629,6.629,0,0,1,1.48-.762,6.608,6.608,0,0,0,1.491-.768,0.639,0.639,0,0,0,.217-0.475C65.811,27.339,64.62,26.1,63.4,24.9l-0.237-.233a14.113,14.113,0,0,1-2.338-4.527,17.651,17.651,0,0,1-.428-3.674A36.87,36.87,0,0,1,64.4,17.624a7.214,7.214,0,0,0,1.068,1.99l1.154,1.155-0.9,1.187a0.617,0.617,0,0,0-.122.44l1.34,12.412A10.6,10.6,0,0,1,64.8,33.173Zm-1-4.363a32.613,32.613,0,0,0-.813-3.445c2.154,2.12,2.243,2.638,2.179,2.764a6.7,6.7,0,0,1-1.327.665Zm0.7-16.381,0.472,0.986c0.033,0.408.065,0.782,0.09,1.006a9.91,9.91,0,0,1-.612,2.564c-0.472-.156-0.888-0.29-1.262-0.407a0.285,0.285,0,0,0,.043-0.05c0.678-1.582.543-4.155,0.379-5.691A14.146,14.146,0,0,1,64.5,12.428Zm-2.915-1.888,0.271-.135a2.816,2.816,0,0,1,1.04-.284c0.163,1.183.513,4.418-.235,6.162a0.287,0.287,0,0,0,0,.132,10.406,10.406,0,0,0-2.412-.566,0.278,0.278,0,0,0,.014-0.066,66.877,66.877,0,0,0-2.109-7.458c0.8,0.457,2.074,1.282,3.181,2.043Zm-6.852,4.227c0.711,0,.839-0.911.988-1.966,0.021-.148.041-0.287,0.06-0.4a19.737,19.737,0,0,1,1.674-4.2,71.379,71.379,0,0,1,2.159,7.514L56.649,13.8a0.309,0.309,0,1,0-.335.52L59.707,16.5a0.277,0.277,0,0,0,.091.027,15.623,15.623,0,0,0,.419,3.731,15.217,15.217,0,0,0,2.007,4.2,0.293,0.293,0,0,0-.062.265l0.017,0.06a7.664,7.664,0,0,1-4.319-1.867c-0.25-.334-0.77-1.222-1.371-2.251-0.527-.9-1.123-1.919-1.684-2.817a15.625,15.625,0,0,0-2.472-3A23.6,23.6,0,0,1,54.732,14.768Zm-2.847.521a15.232,15.232,0,0,1,2.4,2.9c0.558,0.893,1.151,1.906,1.674,2.8,0.636,1.088,1.139,1.947,1.41,2.31a8.1,8.1,0,0,0,4.994,2.129,29.266,29.266,0,0,1,.842,3.605,0.242,0.242,0,0,0,.017.034,2.153,2.153,0,0,0-1.228.895,0.5,0.5,0,0,0,.04.412c0.186,0.326.641,0.989,1.13,1.665a40.936,40.936,0,0,1-10.109-6.43,3.51,3.51,0,0,0,.117-1.684l0.247,0.238L53,23.132a8.72,8.72,0,0,0-.654-1.647,13.515,13.515,0,0,1-.871-3.033A16.2,16.2,0,0,1,51.884,15.288Zm-0.2,7.2,0.687,0.664a3.653,3.653,0,0,1,.109,2.243l-3.073.1a0.3,0.3,0,0,0,.026-0.206,21.665,21.665,0,0,0-2.742-5.773A13.055,13.055,0,0,1,51.68,22.485Zm-7.2,1.015a27.7,27.7,0,0,0,1.445-4,21.826,21.826,0,0,1,2.906,5.955,0.272,0.272,0,0,0,.04.06l-0.964.033a0.311,0.311,0,0,0-.3.354,11.041,11.041,0,0,0,1.1,3.516,18.389,18.389,0,0,0,3.837,3.906,28.207,28.207,0,0,1,3.789,2.972c-0.131.105-.328,0.254-0.509,0.39l-0.257.2a0.3,0.3,0,0,0-.076-0.07L44.94,31.331A0.287,0.287,0,0,0,45,31.217a16.567,16.567,0,0,0-.008-3.658c-0.189-.757-0.886-2.564-1.214-3.4A2.8,2.8,0,0,0,44.482,23.5Zm-2.909,2.621a14.99,14.99,0,0,0-2.788-2.993c1.092,0.256,2.807.73,4.382,1.2l0.012,0c0.314,0.8,1.027,2.645,1.21,3.374a15.4,15.4,0,0,1,0,3.336l-1.947-1.011a0.3,0.3,0,0,0,.048-0.178A15.689,15.689,0,0,0,41.573,26.122ZM36.7,24.458l0.277-.032,0.124-.249a10.1,10.1,0,0,1,.65-1.126,18.521,18.521,0,0,1,3.27,3.349,14.056,14.056,0,0,1,.828,3.326L32.861,25.06C33.762,24.857,35.319,24.618,36.7,24.458Zm-1.369,8.3,0.21-.155V31.459l-0.064-.117c-1.2-2.177-2.455-4.6-2.953-5.761L39.485,29.2l-3.027.72a0.31,0.31,0,0,0,.071.611A0.3,0.3,0,0,0,36.6,30.52l3.393-.808a0.3,0.3,0,0,0,.194-0.151l7.82,4.06a19.54,19.54,0,0,1-4.37,1.619,14.952,14.952,0,0,1-2.607-.517,28.936,28.936,0,0,0-2.843-.611,33.762,33.762,0,0,0-4.284-.156A13.984,13.984,0,0,1,35.328,32.761ZM40.89,38.94l-0.265,0a7.677,7.677,0,0,1-3.405-1.115,11.767,11.767,0,0,1-3.383-3.244,34.4,34.4,0,0,1,4.268.147c0.812,0.111,1.811.359,2.778,0.6a14.65,14.65,0,0,0,2.756.535c1.089,0,4.368-1.55,4.738-1.727a0.292,0.292,0,0,0,.155-0.24l6.163,3.2a37.063,37.063,0,0,1-12.4,3.833Zm19.881,7.871a3.951,3.951,0,0,1-.146-0.556l-0.191-1.029-0.7.778a5.7,5.7,0,0,1-2.256,1.362,30.306,30.306,0,0,1-4.6,1.036,13.45,13.45,0,0,1-.339-2.2,5.025,5.025,0,0,0-.121-0.881,0.812,0.812,0,0,0-.878-0.557,5.538,5.538,0,0,0-1.245.219c-0.526.131-2.5,0.448-4.088,0.7-0.948.152-1.8,0.289-2.233,0.367-0.766.139-3.418-1.07-4.288-1.654,0.528-.587,1.728-1.853,2.6-2.757l0.105-.11c0.437-.053.874-0.108,1.3-0.175l-0.823,1.99a0.31,0.31,0,1,0,.572.236l0.969-2.343s0,0,0,0c1.02-.184,2-0.4,2.916-0.647l-1.382,2.9a0.31,0.31,0,0,0,.147.413,0.316,0.316,0,0,0,.133.03,0.31,0.31,0,0,0,.28-0.176l1.615-3.393s0,0,0,0a38.338,38.338,0,0,0,6.042-2.31,1.33,1.33,0,0,0-.433.668,0.439,0.439,0,0,0,.09.331c0.3,0.375,2.8,2.924,5.052,3.184a7.45,7.45,0,0,1,1.827.378,1.574,1.574,0,0,0-.417.811,6.264,6.264,0,0,0-2.384.473l-2.962-1.6a0.31,0.31,0,1,0-.294.545l2.816,1.516a9.993,9.993,0,0,1-1.37.932,0.31,0.31,0,0,0,.156.578,0.307,0.307,0,0,0,.155-0.041,5.711,5.711,0,0,0,1.8-1.4,8.007,8.007,0,0,1,2.412-.413c0.381,0.232,1.555.826,2.858,1.472C62.359,46.045,61.278,46.574,60.771,46.811Zm3.893-1.675-0.234-.122-0.236.118-0.037.018c-1.664-.819-3.075-1.527-3.262-1.656,0,0,0-.009-0.006-0.012a1.59,1.59,0,0,1,.486-0.675,0.31,0.31,0,0,0,.079-0.344c-0.1-.262-0.626-0.621-2.514-0.838s-4.095-2.347-4.571-2.876a11.817,11.817,0,0,1,1.831-1.57,4.141,4.141,0,0,0,.782-0.649,0.405,0.405,0,0,0,.044-0.29c-0.162-.611-3.729-3.234-4.2-3.471a18.749,18.749,0,0,1-3.593-3.687,9.458,9.458,0,0,1-.947-2.928l4.288-.145a39.252,39.252,0,0,0,3.914,3.019l-2.765.9a0.31,0.31,0,1,0,.191.589l2.989-.969a0.3,0.3,0,0,0,.157-0.134,40.357,40.357,0,0,0,4.1,2.383L59.9,32.983a0.309,0.309,0,1,0,.426.449l1.428-1.352c0.558,0.267,1.126.527,1.715,0.768a0.312,0.312,0,0,0,.118.023,0.307,0.307,0,0,0,.151-0.046c0.21,0.277.41,0.534,0.578,0.74a5.062,5.062,0,0,0,.753.7s0,0.005,0,.008l2.468,7.652c-2.329-.791-5.832-2.125-6.3-2.693a11.5,11.5,0,0,1-1.228-3.5,0.31,0.31,0,1,0-.607.125,16.14,16.14,0,0,0,1.014,3.214c-0.918-.118-2.155-0.423-2.17-0.427a0.31,0.31,0,0,0-.15.6,18.592,18.592,0,0,0,2.776.487c1.054,0.959,6.208,2.7,6.814,2.9a0.315,0.315,0,0,0,.08.013L67.8,42.731,68.261,47C67.159,46.433,65.723,45.688,64.664,45.135Zm2.2-22.628L74.8,12.027V65.779a2.754,2.754,0,0,0-1.16.406L71.71,67.4ZM62.11,74.61a1.594,1.594,0,0,1-1,.1,0.968,0.968,0,0,1-.592-0.609,15.248,15.248,0,0,1-.034-6.046,1.176,1.176,0,0,1,.947-0.495,2.083,2.083,0,0,1,.741.135A10.992,10.992,0,0,0,62.11,74.61ZM75.63,94.151H74.591a2.624,2.624,0,0,1-1.322-.437l4.744-1.878A2.477,2.477,0,0,1,75.63,94.151Zm2.423-3-0.011,0-5.278,2.089a2.7,2.7,0,0,1-.527-1.188,0.3,0.3,0,0,0,.217,0l5.6-2.216v1.314Zm0-1.979-0.011,0-5.816,2.3a0.286,0.286,0,0,0-.058.03c0-.074-0.008-0.149-0.009-0.227V90.243a0.312,0.312,0,0,0,.18.06,0.3,0.3,0,0,0,.114-0.022l5.6-2.216v1.112Zm0-1.777-0.011,0-5.816,2.3a0.3,0.3,0,0,0-.066.037v-1.4a0.3,0.3,0,0,0,.294.038l5.6-2.216V87.4Zm0-1.9-0.011,0-5.816,2.3a0.309,0.309,0,0,0-.066.037V86.568a0.3,0.3,0,0,0,.294.038l5.6-2.216V85.5Zm0-1.777-0.011,0-5.816,2.3a0.309,0.309,0,0,0-.066.037v-1.4a0.312,0.312,0,0,0,.18.059,0.3,0.3,0,0,0,.114-0.022l5.6-2.216v1.234Zm0-1.9-0.011,0-5.816,2.3a0.3,0.3,0,0,0-.066.037V82.893a0.311,0.311,0,0,0,.18.059,0.3,0.3,0,0,0,.114-0.022l5.6-2.216v1.112Zm0-1.777-0.011,0-5.816,2.3a0.3,0.3,0,0,0-.066.037V81.075a0.3,0.3,0,0,0,.294.038l5.6-2.216v1.153Zm0-1.817-0.011,0-5.816,2.3a0.314,0.314,0,0,0-.066.037v-1.4a0.31,0.31,0,0,0,.18.059,0.3,0.3,0,0,0,.114-0.022L78.048,77c0.006,0.114.005,0.184,0.005,0.19v1.042Zm-0.874-2.9h0.438a3.783,3.783,0,0,1,.351,1.032l-5.742,2.273a0.306,0.306,0,0,0-.066.038V77.318l0.012,0ZM72.2,76.639a3.988,3.988,0,0,1,.4-1.305h1.2a6.629,6.629,0,0,0,.9.066h0.633Zm16.543-9.083h0.037a1.177,1.177,0,0,1,.947.495,15.261,15.261,0,0,1-.034,6.044,0.968,0.968,0,0,1-.592.611,1.544,1.544,0,0,1-.929-0.074A10.983,10.983,0,0,0,88.1,67.67,2.077,2.077,0,0,1,88.742,67.556Zm-8.736,2.255a0.616,0.616,0,0,0,.33.1H84.11a0.619,0.619,0,0,0,.174-0.025,5.183,5.183,0,0,0,2.2-1.183,3.94,3.94,0,0,1,1.047-.781,10.539,10.539,0,0,1,.067,6.469,8.674,8.674,0,0,1-1.521-1.051,0.619,0.619,0,0,0-.207-0.114l-1.677-.538a0.62,0.62,0,0,0-.19-0.029H80.441a0.623,0.623,0,0,0-.232.045l-2.918,1.178a10.714,10.714,0,0,1-2.178.958,10.255,10.255,0,0,1-2.194-.959L70,72.7a0.623,0.623,0,0,0-.232-0.045H66.207a0.62,0.62,0,0,0-.189.029l-1.677.538a0.619,0.619,0,0,0-.207.114,8.94,8.94,0,0,1-1.456,1.017,10.539,10.539,0,0,1,.066-6.4,3.889,3.889,0,0,1,.983.746,5.183,5.183,0,0,0,2.2,1.183,0.619,0.619,0,0,0,.174.025h3.774a0.616,0.616,0,0,0,.33-0.1L74.3,67.232h0a1.541,1.541,0,0,1,1.618,0ZM78.5,67.4l-1.926-1.214a2.752,2.752,0,0,0-1.16-.406V12.027l7.934,10.481Zm27.771-23.031a30.707,30.707,0,0,1-4.8,1.463,40.779,40.779,0,0,1-4.192-.812c-1.793-.4-1.741-0.346-2.026-0.4a1.323,1.323,0,0,0-1.548.5,12.2,12.2,0,0,0-.653,3.024,27.466,27.466,0,0,1-3.813-.774,6.488,6.488,0,0,1-2.573-1.579L86.2,45.267,85.3,46.793,82.1,45.638l0-.038c2.741-1.11,3.71-1.667,4.025-1.984a27.319,27.319,0,0,1,3.644,1.816,0.31,0.31,0,1,0,.3-0.539c-0.561-.318-1.04-0.58-1.461-0.8l2.54-1.826a0.31,0.31,0,1,0-.361-0.5l-2.585,1.858a0.307,0.307,0,0,0-.121.195,8.766,8.766,0,0,0-1.9-.81,3.943,3.943,0,0,0-.451-0.7c0.571-.11,1.451-0.287,1.784-0.4a46.473,46.473,0,0,0,4.725-2.821,0.559,0.559,0,0,0,.145-0.473,1.655,1.655,0,0,0-.171-0.511c1.146,0.465,4.52,1.81,6.335,2.3-0.063.674-.123,2.313,0.695,3.057a0.31,0.31,0,1,0,.417-0.458,3.468,3.468,0,0,1-.5-2.454c1.333,0.243,3.6.78,4.622,1.026l0.267,0.223A14.947,14.947,0,0,1,106.273,44.368Zm3.264-6.991c-0.185.093-1.212,0.445-2.037,0.728-1.193.409-1.934,0.665-2.164,0.781A4.867,4.867,0,0,0,104,40.98c-0.988-.238-3.35-0.8-4.729-1.05-0.092-.017-0.2-0.041-0.31-0.068-0.01,0-.015-0.013-0.025-0.015s-0.012.006-.019,0.005c-2.011-.5-6.8-2.467-6.854-2.489a0.291,0.291,0,0,0-.291.055,2.072,2.072,0,0,0-.382-0.35,2.506,2.506,0,0,1-.361-0.318,33.144,33.144,0,0,0,6.878-2.9c0.006,0,.006.014,0.013,0.018A14.424,14.424,0,0,0,102,35.7a3.428,3.428,0,0,0,.4.021,17.085,17.085,0,0,0,3.309-.541c0.709-.161,1.379-0.312,1.857-0.369,1.022-.12,3.4-0.2,4.488-0.226A8.077,8.077,0,0,1,109.537,37.377ZM110.7,32.5c0.221,0.222.952,1,1.383,1.466-1.081.029-3.508,0.1-4.582,0.231-0.51.06-1.2,0.215-1.921,0.38a13,13,0,0,1-3.5.509,12.47,12.47,0,0,1-3.539-1.556c2.64-1.394,5.34-2.962,7.446-4.191a0.292,0.292,0,0,0,.274.144,4.944,4.944,0,0,1,2.642.758,0.31,0.31,0,0,0,.337-0.52,5.512,5.512,0,0,0-2.473-.838c1.178-.687,2.085-1.211,2.431-1.366,0.214-.1.461-0.2,0.728-0.316a0.278,0.278,0,0,0,.1.085,10.208,10.208,0,0,0,2.711.5h0.026a13.6,13.6,0,0,1-1.59,2.29c-0.089.107-.156,0.188-0.2,0.242C110.579,30.835,110.081,31.882,110.7,32.5Z"/>
  <path class="cls-3" d="M25.231,57.018L25.7,57.126l0.354-1.307-0.395-.173c-1.389-.61-1.855-1.166-1.92-2.289A2.861,2.861,0,0,1,24.628,51a4.548,4.548,0,0,1,2.86-1.037,3.96,3.96,0,0,1,2.6.634,2.765,2.765,0,0,1,1.09,2.186,3.4,3.4,0,0,1-.154,1.291A1.933,1.933,0,0,1,29.6,55.2l-0.439.16,0.382,1.328,0.458-.1c0.738-.163,1.577-0.305,2.117-0.385l0.389-.057,0.036-.392c0.009-.1.025-0.219,0.044-0.362a12.18,12.18,0,0,0,.126-2.373c-0.2-3.413-2.525-5.677-5.657-5.489a5.1,5.1,0,0,0-3.519,1.621,5.628,5.628,0,0,0-1.328,4.223,12.632,12.632,0,0,0,.47,2.528l0.094,0.35L23,56.346A18.264,18.264,0,0,0,25.231,57.018ZM28.19,67.631q0.316,0,.642-0.032a5.024,5.024,0,0,0,4.6-5.513h0A5.178,5.178,0,0,0,27.615,57.4,5.125,5.125,0,0,0,28.19,67.631Zm0.043-7.822q0.307-.03.6-0.03a3.663,3.663,0,0,1,2.094.561,2.2,2.2,0,0,1,.971,1.616c0.172,1.746-1.276,3.028-3.691,3.266-2.19.217-3.533-.556-3.687-2.116C24.35,61.424,25.914,60.038,28.233,59.81Zm16.485,55.338c-1.07.372-1.114,0.332-1.652-.158l-0.3-.27,0.107-.076-0.247-.4c-0.515-.83-0.515-0.83.113-1.276l5.151-3.664,0.523,0.734c0.329,0.463.32,0.481,0.217,0.715a4.881,4.881,0,0,1-.617.921L47.751,112l0.878,1.005,0.376-.318c0.662-.563,1.431-1.171,1.913-1.514l0.407-.29-0.625-.879-0.242-.012a0.687,0.687,0,0,1-.155-0.017,0.773,0.773,0,0,1-.14-0.168l-3.241-4.558c-0.054-.076-0.121-0.169-0.129-0.178a0.406,0.406,0,0,1,.034-0.1l0.106-.257-0.623-.875-0.4.254c-0.657.417-1.419,0.856-2.157,1.279l-0.478.274,0.768,1.081,0.459-.133a5.267,5.267,0,0,1,.986-0.229c0.231-.024.287-0.03,0.667,0.505l0.449,0.631-5.151,3.663c-0.627.446-.628,0.446-1.227-0.289l-0.3-.364-0.1.074-0.15-.343c-0.314-.715-0.314-0.715.385-1.558,1.651-1.98,3.453-4.144,5.08-6.11l0.269-.326-0.754-.874-8.084,1.23c-1.119.175-1.155,0.129-1.6-.451l-0.191-.25,0.044-.007c0.575-.1,1.188-0.211,1.48-0.274l0.472-.1-0.235-1.3-0.423,0a4.411,4.411,0,0,1-1.489-.177c-0.328-.109-0.5-0.283-1.23-1.944-0.207-.469-0.393-0.9-0.544-1.257,3.151,0.588,6.1,1.166,8.994,1.761l0.294,0.061L42.7,98l-2.432-5.5A0.438,0.438,0,0,1,40.2,92.27l0.213-.241-0.471-1.062-0.445.172c-0.087.034-.19,0.071-0.3,0.11l0.383-.387-1.94-5.7a0.438,0.438,0,0,1-.048-0.237l0.232-.22-0.374-1.1-0.459.134c-0.367.107-.975,0.236-1.547,0.36-0.344.074-.676,0.145-0.941,0.208l-0.518.123L34.364,85.7h0.369a4.591,4.591,0,0,1,1.154.107c0.274,0.075.348,0.095,0.714,1.169l0.582,1.707c-3.147-.9-5.85-1.692-8.483-2.5l-0.016-.114c-0.105-.774-0.105-0.774.8-1.394,2.133-1.45,4.464-3.036,6.57-4.479l0.349-.239L35.92,78.91,27.8,77.865c-1.083-.134-1.145-0.2-1.386-0.807a1.673,1.673,0,0,1,.326-0.6,12.32,12.32,0,0,1,1.2-1.257c0.4-.362.938-0.845,1.354-1.2a2.91,2.91,0,0,0,2.825,1.181,2.575,2.575,0,0,0,2.06-1.509,4.385,4.385,0,0,0,.169-2.571l-0.621-4.023-1.323.2,0.018,0.446a2.922,2.922,0,0,1-.022.761,1.737,1.737,0,0,1-.706.178l-5.522.852a3.091,3.091,0,0,1-.738.059,3.033,3.033,0,0,1-.252-0.73l-0.115-.433-1.325.2L24.47,73.3l1.33-.2-0.024-.452a2.662,2.662,0,0,1,.02-0.763,1.672,1.672,0,0,1,.719-0.185l1.679-.259c0.084,0.551.063,0.569-.181,0.78l-0.568.482c-0.518.436-1.053,0.887-1.513,1.342a3.023,3.023,0,0,0-1,2.808c0.013,0.166.024,0.316,0.05,0.485l0.066,0.43h0.106l0.823,3.255,1.294-.326-0.056-.44c-0.021-.166-0.085-0.672-0.107-0.723a1.281,1.281,0,0,1,.444-0.005c0.355,0.029.7,0.065,1.065,0.1l0.428,0.043,0.568,2.246C29.29,82.123,29,82.32,28.737,82.5s-0.493.337-.715,0.479L27.983,83a4.039,4.039,0,0,1-.175-0.4l-0.16-.412-1.294.326,1.093,4.325,0.075-.019,2.505,7.356,0.395-.04c0.239-.024.589-0.055,0.956-0.086,0.585-.051,1.212-0.106,1.51-0.144l0.48-.061-0.121-1.318L32.826,92.5a4.491,4.491,0,0,1-1.469-.309c-0.318-.137-0.47-0.326-1.056-2.046-0.163-.478-0.312-0.926-0.432-1.3,3.1,0.866,5.989,1.7,8.811,2.547L38.727,91.4c-0.236.075-.486,0.153-0.733,0.229-0.339.105-.668,0.207-0.928,0.293l-0.5.168,0.494,1.226,0.368-.032a4.611,4.611,0,0,1,1.159.005c0.279,0.05.354,0.064,0.813,1.1l0.729,1.647c-2.816-.545-5.976-1.166-9.028-1.818l-0.313-.067-0.521.7,3.223,7.287,0.39-.074c0.147-.028.342-0.063,0.552-0.1l-0.87.507,2.127,3.658,1.154-.669-0.175-.408c-0.065-.153-0.267-0.622-0.3-0.664a1.284,1.284,0,0,1,.425-0.128c0.351-.07.7-0.131,1.054-0.194l0.421-.076,1.163,2c-0.25.291-.474,0.56-0.676,0.8s-0.382.46-.557,0.659l-0.03.035a4.034,4.034,0,0,1-.279-0.339l-0.268-.352-1.153.67,2.24,3.854,0.486-.283-0.363.258,2.941,4.137,0.637-.453-0.677.578,2.745,3.221,1.016-.866-0.244-.369c-0.093-.14-0.373-0.564-0.416-0.6a1.254,1.254,0,0,1,.395-0.2c0.326-.129.648-0.248,0.983-0.372l0.421-.157,1.5,1.761c-0.193.328-.365,0.632-0.52,0.907s-0.3.524-.433,0.751l-0.023.04a4.068,4.068,0,0,1-.334-0.283l-0.326-.3-1.016.865,2.891,3.392,1.019-.868-0.25-.371c-0.436-.647-0.436-0.647.1-1.6,1.271-2.242,2.657-4.693,3.907-6.917l0.207-.369-0.9-.725Zm-14-35.3c0.557,0.063,1.139.129,1.724,0.193L31,81Zm1.97-7.559a1.815,1.815,0,0,1-2.533.252,1.813,1.813,0,0,1-.471-1.16l-0.026-.17,2.9-.447a1.5,1.5,0,0,0,.205-0.034,1.842,1.842,0,0,1,.1.4A1.745,1.745,0,0,1,32.683,72.286Zm8.939,31.128-1.112,1.314-0.6-1.025C40.466,103.611,41.043,103.513,41.622,103.414Zm8.208,11.634-0.86,1.49-0.769-.9C48.727,115.447,49.277,115.249,49.83,115.048ZM36.6,58.142a4.75,4.75,0,0,0,3.469,1.4,5.756,5.756,0,0,0,.693-0.042,4.345,4.345,0,0,0,3.014-1.653,5.712,5.712,0,0,0,.773-4.329l-0.5-4.144-1.312.158,0.008,0.452a2.882,2.882,0,0,1-.032.685,1.691,1.691,0,0,1-.671.146l-5.235.633a4.218,4.218,0,0,1-.665.049,2.927,2.927,0,0,1-.2-0.685l-0.1-.446-1.317.159L34.955,54.1A6.729,6.729,0,0,0,36.6,58.142Zm-0.031-4.337a0.846,0.846,0,0,1,.6-0.231l5.406-.654a2.856,2.856,0,0,1,.357-0.027,2.508,2.508,0,0,1,.151.687,3.7,3.7,0,0,1-.213,2.041,2.958,2.958,0,0,1-2.57,1.613,3.766,3.766,0,0,1-2.586-.477,2.9,2.9,0,0,1-1.2-2.183A1.3,1.3,0,0,1,36.566,53.805Zm7.261,4.742a3.457,3.457,0,0,1,0,.7,2.733,2.733,0,0,1-.679.171l-5.173.872a3.254,3.254,0,0,1-.671.069,2.942,2.942,0,0,1-.24-0.669l-0.122-.431-1.3.219L36.4,63.953l1.3-.219-0.026-.448a3.891,3.891,0,0,1-.009-0.71,2.744,2.744,0,0,1,.67-0.168l5.174-.872a3.109,3.109,0,0,1,.683-0.069,0.373,0.373,0,0,1,.054.1l0.036,0.274c0.079,0.612.088,0.676-.628,1.154-1.734,1.173-4.489,2.975-6.385,4.212l-0.293.191,0.254,1.1,0.336,0.051c1.421,0.214,4.829.772,6.538,1.053l0.857,0.141c0.908,0.14,1.07.216,1.249,0.635a3.5,3.5,0,0,1-.605.24l-5,1.6a3.177,3.177,0,0,1-.654.163,2.9,2.9,0,0,1-.333-0.629l-0.182-.409-1.255.4,1.384,4.326,0.393-.126-0.02.015-0.007.248a6.024,6.024,0,0,0,.3,2.232,3.53,3.53,0,0,0,2.118,2.229l-0.978.371,1.61,4.248,1.233-.468L44.1,84.377a3.835,3.835,0,0,1-.146-0.7,2.73,2.73,0,0,1,.624-0.294l4.907-1.86a3.141,3.141,0,0,1,.657-0.2,2.946,2.946,0,0,1,.37.62l0.2,0.4,1.233-.468-1.61-4.248-0.106.041L50.177,77.3a7.708,7.708,0,0,0-.348-1.626,3.4,3.4,0,0,0-1.576-1.935,2.709,2.709,0,0,0-.686-0.24L48.7,73.14l-1.385-4.326L47.3,68.82l-0.461-2-1.28.294L45.6,67.556a4.613,4.613,0,0,1,.038.632,2.472,2.472,0,0,1-.253-0.023c-1.166-.153-2.681-0.379-4.605-0.688,1.621-1.075,3.363-2.211,4.1-2.672L44.9,64.8a4.187,4.187,0,0,1,.162.411l0.148,0.424,1.285-.3-0.686-2.968,0.049-.008L45.1,57.88l-1.3.219Zm-0.6,22.264a2.729,2.729,0,0,0,.922-0.162c1.435-.512,1.84-1.605,2.088-3.444,0.166-1.218.376-1.628,0.938-1.829a0.823,0.823,0,0,1,1.183.519c0.252,0.706.044,1.142-.822,1.728l-0.39.264,0.69,1.165,0.417-.209c0.369-.186.667-0.332,0.929-0.459l0.039,0.149a3.52,3.52,0,0,1,.138.684,2.706,2.706,0,0,1-.633.3l-4.907,1.86a2.65,2.65,0,0,1-.646.2,2.929,2.929,0,0,1-.365-0.611L42.7,80.754A2.691,2.691,0,0,0,43.225,80.811Zm2.9-7.229c-1.511.539-1.837,1.874-2.061,3.312-0.21,1.335-.4,1.673-1.041,1.9a0.952,0.952,0,0,1-1.307-.629c-0.1-.289-0.416-1.167.995-2.2l0.388-.285-0.755-1.115-0.394.2c-0.364.186-.8,0.427-1.178,0.647l-0.04-.193a3.757,3.757,0,0,1-.109-0.7,2.729,2.729,0,0,1,.639-0.261l5-1.6a3.034,3.034,0,0,1,.666-0.165,2.935,2.935,0,0,1,.337.638l0.152,0.343A2.59,2.59,0,0,0,46.125,73.581Zm10.12,32.151-0.336-1.268-0.417.035a5.05,5.05,0,0,1-1.278-.01,0.763,0.763,0,0,1-.668-0.593l-0.6-1.06a1.374,1.374,0,0,1-.166-0.364,0.984,0.984,0,0,1,.386-0.293l1.849-1.057,0.474,0.828a1.352,1.352,0,0,1,.236.522,1.867,1.867,0,0,1-.454.452l-0.32.268,0.658,1.153,3.007-1.719,0.47,0.576,0.379-.256c0.577-.39,1.4-0.923,1.682-1.1l0.443-.277-0.3-.43c-0.051-.075-0.246-0.382-0.952-1.616l-2.17-3.8-1.244-2.556-1.205.585,0.179,0.435c0.348,0.845.254,0.9,0.053,1.014-0.27.166-.706,0.415-1.9,1l-1.681.818,3.066-6.91-1.188-2.442-0.467.227a4.8,4.8,0,0,0-.294-2.734,4.85,4.85,0,0,0-2.838-2.768,5.171,5.171,0,0,0-3.739.131,4.926,4.926,0,0,0-2.686,2.62,4.853,4.853,0,0,0,.032,3.779,4.786,4.786,0,0,0,2.506,2.594l-1.058.516,1.842,3.787,1.2-.581-0.166-.429c-0.3-.781-0.206-0.833.066-0.979,0.306-.176.817-0.47,1.89-0.992l1.712-.833-3.254,7.055,0.542,1.114,0.955-.464-0.822.471,3.616,6.322,0.353-.07c0.441-.089,1.816-0.46,2.153-0.562ZM53.312,89.557a0.671,0.671,0,0,1-.433.379l-0.093.045a4.6,4.6,0,0,0,.561-0.868A0.554,0.554,0,0,1,53.312,89.557Zm-5.165-4.978A4.533,4.533,0,0,1,49.87,84.2a2.745,2.745,0,0,1,.831.122,2.046,2.046,0,0,1,1.3,1.174h0a2.337,2.337,0,0,1-.112,2.061,4.455,4.455,0,0,1-2.3,1.866,4,4,0,0,1-2.582.33,1.975,1.975,0,0,1-1.292-1.208C45.111,87.085,46.133,85.419,48.147,84.579ZM48.814,91.9c-0.385.176-.7,0.31-0.955,0.407s-0.372.145-.729-0.46l-0.14-.237a4.7,4.7,0,0,0,1.635.3C48.687,91.91,48.751,91.9,48.814,91.9Zm9.76,9.964-0.064.062-0.334-.583-0.395.141c-0.653.235-.654,0.236-0.953-0.288l-0.48-.839,2.035-1.165,0.591,1.035c0.367,0.642.315,0.717,0.2,0.881A3.852,3.852,0,0,1,58.574,101.864Zm-3.83-4.226c0.931-.453,1.437-0.678,1.8-0.841l0.171-.076c0.223-.091.27-0.1,0.6,0.414a0.326,0.326,0,0,1,.02.1,1.9,1.9,0,0,1-.607.426L52.2,100.253a2.305,2.305,0,0,1-.6.285,2.911,2.911,0,0,1-.515-0.635l-0.245-.363Zm63.241-5.168-1.31-.583-0.226.388c-0.572.984-.573,0.984-1.559,0.545l-6.288-2.8c-1-.446-1-0.446-0.653-1.53l0.137-.427-1.31-.583-2.3,5.159,1.31,0.582,0.225-.387c0.565-.968.564-0.97,1.568-0.522l6.288,2.8c0.986,0.439.986,0.439,0.644,1.507l-0.136.427,0.34,0.151-0.15.148a1.988,1.988,0,0,1-1.084.545,15.339,15.339,0,0,1-2.159.251c-0.7.036-1.677,0.071-2.369,0.082a3.529,3.529,0,0,0-1.7-3.376,3.08,3.08,0,0,0-3.044-.18,5.33,5.33,0,0,0-2.139,2.275l-2.521,4.227,1.23,0.733,0.27-.355c0.682-.894.682-0.894,1.591-0.353l5.942,3.544c0.928,0.554.928,0.554,0.462,1.573l-0.187.408,0.026,0.015-0.145.141c-0.733.71-.747,0.724-2.1,0.253-3.012-1.062-6.3-2.22-9.29-3.26l-0.4-.138-0.609,1.106,4.888,8.8c0.722,1.286.658,1.387,0.163,2.173l-0.234.373,1.1,0.905,3.181-3.867-1.1-.907-0.321.306a4.717,4.717,0,0,1-.78.656,1.4,1.4,0,0,1-.376-0.481c-0.232-.375-0.45-0.746-0.678-1.133l-0.318-.537,1.93-2.346c0.473,0.177.908,0.329,1.3,0.466,0.373,0.131.7,0.247,1.009,0.363,0.081,0.028.136,0.051,0.173,0.068a3.529,3.529,0,0,1-.33.6l-0.237.373,1.1,0.908,3.357-4.082-0.06-.049,2.867-4.807-1.235-.736-0.269.363c-0.674.911-.674,0.911-1.61,0.354l-1.908-1.139,0.055-.092c0.392-.659.459-0.66,0.893-0.669,0.294-.007.605-0.01,0.924-0.013,0.836-.008,1.7-0.016,2.494-0.087a3.638,3.638,0,0,0,3.082-1.836c0.118-.168.224-0.317,0.332-0.5l0.223-.373-0.408-.33,0.143,0.064Zm-11.854,4.772a1.963,1.963,0,0,1,1.105,1.562,2.347,2.347,0,0,1-.48,1.559l-0.171.286-3.219-1.919c-0.217-.13-0.282-0.191-0.293-0.191h0a1.71,1.71,0,0,1,.256-0.563A1.839,1.839,0,0,1,106.131,97.241Zm-5.187,12.31c-0.422-.736-0.873-1.515-1.324-2.293l2.474,0.894Zm22.105-38.6,1.434,0.207,1.324-9.194-0.321-.162c-0.519-.261-2.235-0.983-2.668-1.151l-0.45-.174L121.8,61.8l0.351,0.229A6.679,6.679,0,0,1,123.5,63.1a1.131,1.131,0,0,1,.251,1.28l-0.229,1.587c-0.116.706-.122,0.751-0.935,0.631l-2.921-.42,0.2-1.394c0.134-.928.134-0.928,1.161-0.965l0.417-.015,0.208-1.441-4.473-.644-0.022-.965-0.456-.031c-0.913-.062-2.2-0.177-2.63-0.222l-0.521-.054-0.031.522c-0.007.119-.051,0.595-0.319,2.452l-0.719,5-0.275-.073-0.3,1.12,0.146,0.193a0.418,0.418,0,0,1,.076.53l-1.773,6.7c-0.09.341-.09,0.341-0.275,0.4l-0.265.081-0.3,1.111,0.451,0.145c0.5,0.163,1.039.352,1.589,0.55-0.557-.152-1.067-0.3-1.3-0.366l-0.5-.148-0.126.507c-0.029.116-.16,0.577-0.761,2.354l-1.86,5.5,1.366,0.462,0.185-.416c0.424-.952.424-0.952,1.521-0.582l6.491,2.194c1.048,0.354,1.048.354,0.731,1.59l-0.115.449,1.373,0.464,2.975-8.8-0.288-.218c-0.459-.347-2.016-1.372-2.413-1.616l-0.412-.254-0.8,1.2,0.3,0.289a6.707,6.707,0,0,1,1.129,1.3,1.13,1.13,0,0,1,.013,1.3L118.56,85.9c-0.242.673-.256,0.715-1.035,0.451l-2.8-.945,0.45-1.334c0.3-.89.3-0.889,1.318-0.739l0.413,0.061,0.466-1.378-4.283-1.447,0.128-.786,0.2,0.074,0.365-1.378-0.422-.287a6.647,6.647,0,0,1-1.014-.769c-0.234-.229-0.305-0.3-0.079-1.15l0.276-1.043,7.683,2.035c1.031,0.273,1.031.273,0.782,1.536l-0.09.46,1.406,0.371,1.548-5.846-1.407-.372-0.148.445c-0.419,1.254-.419,1.253-1.449.98L113.188,72.8,113.5,71.61c0.2-.746.249-0.76,0.589-0.857a6.139,6.139,0,0,1,1.4-.147l0.42-.006,0.227-1.417-0.485-.085c-0.564-.1-1.162-0.216-1.709-0.333,0.205-.835.274-0.836,1.347-0.682l6.781,0.977c1.094,0.157,1.094.157,1.008,1.43Zm-6.314-8.706,0.317-.037-0.136.945,0.4,0.131c0.99,0.325.99,0.325,0.858,1.238l-0.2,1.41-3.3-.475-0.054-.008c0-.021.006-0.045,0.01-0.071l0.234-1.631c0.146-1.014.286-1.1,0.6-1.2A5.326,5.326,0,0,1,116.735,62.246Zm-3.171,21.261-0.456,1.35-3.159-1.067-0.052-.018c0.007-.02.015-0.043,0.023-0.069l0.528-1.561c0.327-.971.481-1.029,0.811-1.071a5.378,5.378,0,0,1,1.3-.066l0.319,0.021-0.306.9,0.368,0.2C113.859,82.633,113.859,82.633,113.564,83.507ZM67.821,115.835a6.018,6.018,0,0,1-1.141,2.459,5.359,5.359,0,0,1-1.527,1.424l-0.132.071v1.265H61.406l-1.237-3.806-1.237,3.806h-4l3.237,2.353-1.236,3.806,3.238-2.352,3.238,2.352-1.236-3.806,2.85-2.071v1.8l0.368-.2a6.7,6.7,0,0,0,2.07-1.773v11.038h2.388V115.638H67.864Zm10.074,8.73a2.874,2.874,0,0,0-1.139-1.285,4.576,4.576,0,0,0,1.228-3.287,5.437,5.437,0,0,0-.726-2.79,2.763,2.763,0,0,0-2.446-1.565,2.623,2.623,0,0,0-1.619.548,3.524,3.524,0,0,0-1.1,1.466,9.279,9.279,0,0,0-.565,2.386l-0.027.215,2.243,0.619,0.022-.305a3.3,3.3,0,0,1,.379-1.479,0.642,0.642,0,0,1,1.188-.067,2.218,2.218,0,0,1,.258,1.157,2.373,2.373,0,0,1-.357,1.38,1.011,1.011,0,0,1-.954.434l-0.24-.01-0.264,3.164,0.388-.177c0.7-.32,1.112-0.306,1.479.343a3.512,3.512,0,0,1,.351,1.711,3.8,3.8,0,0,1-.368,1.822c-0.427.768-1.051,0.784-1.482,0.106a3.572,3.572,0,0,1-.432-1.619l-0.022-.281-2.32.457,0.016,0.22a6.626,6.626,0,0,0,1.066,3.4,2.873,2.873,0,0,0,2.421,1.356,3,3,0,0,0,2.568-1.6,6.809,6.809,0,0,0,.986-3.725A5.809,5.809,0,0,0,77.9,124.565Zm12.913-3.511-1.236-3.806-1.237,3.806H85.223c0.018-.236.041-0.47,0.041-0.712a5.969,5.969,0,0,0-.874-3.313,2.847,2.847,0,0,0-2.5-1.391,2.988,2.988,0,0,0-2.412,1.2,6.735,6.735,0,0,0-1.109,3.775l-0.015.227,2.384,0.388,0.012-.283a4.041,4.041,0,0,1,.367-1.8,0.808,0.808,0,0,1,.727-0.458,0.8,0.8,0,0,1,.724.432,2.809,2.809,0,0,1,.3,1.447,4.691,4.691,0,0,1-.37,1.78,20.846,20.846,0,0,1-1.543,2.579,20.779,20.779,0,0,0-2.149,3.888,11.115,11.115,0,0,0-.66,3.132l-0.018.267h7.134v-3.349h-3.63c0.069-.159.149-0.32,0.237-0.482,0.154-.281.531-0.87,1.12-1.749a18.618,18.618,0,0,0,1.254-2.071,10.7,10.7,0,0,0,.773-2.1c0.064-.26.1-0.531,0.143-0.8l2.409,1.751-1.236,3.806,3.238-2.352,3.238,2.352-1.237-3.806,3.238-2.353h-4Z"/>
</svg>
