<svg xmlns="http://www.w3.org/2000/svg" width="150" height="150" viewBox="0 0 150 150">
  <defs>
    <style>
      .cls-1 {
        fill: #231f20;
      }

      .cls-2 {
        fill: #e6e7e8;
      }

      .cls-3 {
        fill: #3f62cc;
      }

      .cls-4 {
        fill: #d8ac4c;
      }

      .cls-5 {
        fill: #f6f6f6;
      }

      .cls-6 {
        fill: #603813;
      }

      .cls-7 {
        fill: #754c24;
      }
    </style>
  </defs>
  <g id="Layer_7" data-name="Layer 7">
    <g>
      <g>
        <polygon class="cls-1" points="11.707 143.674 75 6.326 138.293 143.674 11.707 143.674"/>
        <path class="cls-2" d="M142.12451,146.12678H7.87549L75,.46565ZM15.5376,141.22053H134.4624L75,12.18635Z"/>
      </g>
      <g>
        <path class="cls-3" d="M57.3913,82.337a20.20516,20.20516,0,0,0,2.05435-4.5s5.18478,2.44565,7.53261,3.61956,5.38044,3.42391,6.06522,3.42391,3.81522-.68478,5.57609-.3913a15.20422,15.20422,0,0,0-2.73914-1.17391l1.56522-1.76087-1.27174-.09783a29.124,29.124,0,0,1-2.34782,2.15218c-.48913.29347-4.40218-2.34783-4.40218-2.34783s.88044-2.25,5.86957-3.42391,9.19565.19565,9.48913,1.07608.29348,8.80435-8.80435,15.26087l-.48913,1.56522s2.6413-1.07609,3.32609-2.15217a7.95062,7.95062,0,0,1-.68479,4.10869l.68479.29348S82.63043,92.6087,85.8587,93s4.98913,2.837,4.20652,6.75a7.9832,7.9832,0,0,0-4.30435-1.17391c-2.6413,0-5.18478,3.71739-5.18478,3.71739l1.36956-.09783s4.01087-3.71739,7.337-1.95652c0,0-3.71739,12.52174-6.65218,14.28261A14.46188,14.46188,0,0,1,75.587,116.087s-4.89131,5.47826-5.18479,6.163,2.837,2.93478,4.1087,6.55435c0,0-.68478,1.663-4.8913.97826,0,0-1.27174-3.22826-2.44566-4.1087s-2.34782-2.34782-1.95652-3.913,2.64131-4.01087,2.64131-5.28261a8.82007,8.82007,0,0,0-1.27174-3.32609l-.88044,2.54348s-6.163-4.30435-6.84782-8.11956,2.6413-13.01087,6.163-18.39131l3.32609,2.25a3.2496,3.2496,0,0,0,2.837.88044C73.1413,92.11957,77.25,89.77174,77.25,89.77174l-1.56522-.97826s-3.13043,1.85869-4.79348,1.56522S57.3913,82.337,57.3913,82.337Z"/>
        <path class="cls-3" d="M56.413,83.70652s-.587,3.03261.39131,3.52174,4.01087-1.46739,4.01087-1.46739Z"/>
        <path class="cls-3" d="M57.88043,72.65217A5.71475,5.71475,0,0,1,59.44565,77.837l1.07609-.39131s.68478-4.59782-1.36957-6.45652Z"/>
      </g>
      <path class="cls-4" d="M55.92391,134.47826a19.00377,19.00377,0,0,0,7.23913,1.56522c3.913,0,5.38044-2.15218,6.75-2.44565s5.18479.19565,6.45653-.587.7826-1.663.7826-1.663-2.6413-1.36957-2.93478-1.17392A26.13923,26.13923,0,0,1,67.27174,131.25c-2.34783-.09783-8.413-1.76087-8.70652-1.56522S53.47826,133.30435,55.92391,134.47826Z"/>
      <path class="cls-4" d="M91.82609,100.82609s-1.663,1.36956-3.913,6.84782-2.73913,8.90218-1.46739,9.97826,8.02174-1.95652,10.27174-3.71739,6.84783-7.72826,6.65218-8.80435-4.01087-2.6413-4.01087-2.6413-1.56522-2.6413-2.34783-2.73913A36.31711,36.31711,0,0,0,91.82609,100.82609Z"/>
      <path class="cls-4" d="M54.55435,80.57609s1.07608,1.76087,1.76087,1.663,1.95652-5.18478,1.95652-6.3587-1.8587-3.22826-2.837-3.71739-3.71739-.97826-3.61956-.48913,1.17391,1.95652.78261,1.76087-1.76087-.3913-1.95653-.09782,1.17392,2.05434,1.17392,2.05434l-.39131.29348s-1.76087-.587-2.15217,0a1.02888,1.02888,0,0,0,.68478,1.46739C50.44565,77.15217,53.47826,79.5,54.55435,80.57609Z"/>
      <path class="cls-4" d="M52.98913,67.8587a3.98742,3.98742,0,0,0,1.56522,1.663c1.07608.587,3.22826.19565,3.03261-.39131s-2.25-1.56521-2.64131-2.05434S52.69565,66.29348,52.98913,67.8587Z"/>
      <path class="cls-4" d="M55.1413,65.02174s.97827,2.25,2.15218,2.34783a1.0128,1.0128,0,0,0,1.07609-1.4674c-.29348-.3913-2.44566-1.76087-2.73914-1.56521S54.94565,64.53261,55.1413,65.02174Z"/>
      <path class="cls-4" d="M56.6087,62.86957c-.02718.78823,2.05434,1.95652,2.44565,1.85869a.86649.86649,0,0,0,.48913-1.17391C59.34783,62.96739,56.70652,60.03261,56.6087,62.86957Z"/>
      <path class="cls-4" d="M70.40217,77.25s.19566,1.27174,1.76087.68478,6.163-1.56521,8.51087-1.17391,4.59783,1.76087,4.5.78261-2.93478-2.15218-4.59782-2.34783S71.96739,75.3913,70.40217,77.25Z"/>
      <path class="cls-4" d="M65.6087,73.23913c-.51937.59356-.587,2.93478.3913,2.73913s3.13043-1.17391,3.913-1.17391,5.57326-1.20049,7.14131-1.17392a79.04916,79.04916,0,0,1,11.15217,1.17392c1.17391.09782,1.95652-1.76087,1.46739-2.15218s-7.43478-1.07608-7.82608-1.56521-2.64131-2.837-4.79348-2.44566S72.75,71.18478,71.47826,71.67391,66.29348,72.45652,65.6087,73.23913Z"/>
      <path class="cls-5" d="M85.76087,91.63043s5.18478.587,5.86956,5.18479c0,0,3.42392-.587,2.64131-5.18479l-1.76087.48914a12.5657,12.5657,0,0,0-.19565-4.1087,2.33086,2.33086,0,0,0-4.01087-.78261s1.663-.09783,1.76087,1.27174-1.07609,1.07609-1.07609,1.07609L87.61957,88.1087l-.48914,2.93478s-1.46739-1.27174-1.95652-1.07609S85.76087,91.63043,85.76087,91.63043Z"/>
      <path class="cls-5" d="M85.56522,70.69565s.29348-5.18478-.19565-6.35869-2.54348-2.64131-2.93479-2.15218,1.27174,3.913,1.07609,4.69565-2.05435,0-1.8587.48914,1.8587,3.22826,1.8587,3.22826Z"/>
      <path class="cls-5" d="M72.94565,62.18478c.415.2767-1.56522,4.1087-.97826,4.30435s1.36957-.78261,1.56522-.19565a14.88025,14.88025,0,0,1-.29348,3.32609s-2.6413.7826-3.52174,1.17391-.78261-5.087.19565-6.84783S72.06522,61.59783,72.94565,62.18478Z"/>
      <path class="cls-5" d="M66.09783,71.47826S63.06522,67.27174,63.75,59.837s7.43478-11.15218,13.79348-11.25,13.10869,4.20652,14.087,13.01087c0,0-.3913,5.86956-3.0326,9.48913,0,0,.19565-6.26087-1.07609-8.80435,0,0,1.95652-3.03261,1.27174-5.57609s-3.32609-4.30435-4.1087-4.10869-13.79348,1.36956-15.75.7826c0,0-5.96739,1.95653-2.54348,10.17392C66.3913,63.55435,65.51087,69.71739,66.09783,71.47826Z"/>
      <path class="cls-5" d="M84.29348,54.94565c-.63573.42382-1.8587,1.76087-1.46739,2.25s3.52174.587,3.61956-.09782S85.46739,54.163,84.29348,54.94565Z"/>
      <path class="cls-5" d="M75.587,58.95652c-.09593.47963-.48913,1.95652.29347,1.95652a32.89937,32.89937,0,0,0,3.52174-.19565c.29348-.09782.78261-1.46739.39131-1.85869S75.68478,58.46739,75.587,58.95652Z"/>
      <path class="cls-5" d="M70.15224,56.11608s2.1102,1.468,1.19272,2.2937-3.57817.27524-3.48642-.367S69.05126,55.74909,70.15224,56.11608Z"/>
      <path class="cls-5" d="M32.34783,121.663c.09782-.29347,3.913-9.88043,3.913-9.88043l1.27174-.09783v25.43479s.587.587-1.56522.587c0,0-.78261.29348-.97826-.78261V119.90217l-1.17391,3.22826s-.29348.29348-.97826-.09782S32.34783,121.663,32.34783,121.663Z"/>
      <path class="cls-5" d="M45.69026,119.02174c-.37246-1.36957-2.04855-2.15216-3.35219-2.25s-3.63151,1.76086-3.63151,5.28259v12.03259a3.70331,3.70331,0,0,0,3.72464,3.424c3.44532,0,4.09711-6.75,4.19023-9A55.02513,55.02513,0,0,0,45.69026,119.02174ZM44.3941,129.36791c-.2506,4.27515-1.50345,5.89026-2.75624,5.79524-1.25285-.095-1.16931-2.18508-1.16931-2.18508v-9.88044c.33408-5.13018,2.6727-3.89515,3.25733-2.85008C44.31057,121.29261,44.64465,125.09275,44.3941,129.36791Z"/>
      <path class="cls-5" d="M48.97826,116.28261s.587,2.93478-.3913,3.32609-2.34783-.48913-2.44566-2.93479a4.32464,4.32464,0,0,1,5.57609-4.20652c3.42391.78261,2.93478,4.5,2.25,6.26087s-4.98913,15.75-4.98913,15.75l.39131.39131h4.01086s2.15218.97826.68479,2.54347H47.6087a2.328,2.328,0,0,1-1.07609-2.837c.48913-2.15218,5.18478-16.63044,5.18478-16.63044s1.07609-2.34782-.48913-3.32608S48.78261,115.59783,48.97826,116.28261Z"/>
      <path class="cls-5" d="M55.43478,114.42391s1.76087,1.07609,2.54348.88044.97826-1.17392.68478-1.95652-2.15217-1.663-2.54347-1.27174S54.84783,114.03261,55.43478,114.42391Z"/>
      <path class="cls-5" d="M79.1087,126.163v8.70653a2.5224,2.5224,0,0,0,1.95652,1.46739h4.01087s.97826.09782.88043-2.15218,0-5.57608,0-5.57608l-2.6413-.19566s-.29348,1.46739,0,1.76087.97826.19566.97826.19566V134.087a1.757,1.757,0,0,1-.97826.68478c-.78261.29348-1.56522.29348-1.95652-.48913s-.09783-7.72826-.09783-7.72826.29348-.97826,1.07609-1.17392,1.36956-.09782,1.46739.48914.3913,1.36956.97826,1.17391A2.31688,2.31688,0,0,0,85.8587,124.5c-.29348-1.17391-2.05435-1.17391-2.64131-1.17391S78.52174,122.05435,79.1087,126.163Z"/>
      <path class="cls-5" d="M94.56522,123.71739v10.95652a1.66265,1.66265,0,0,0,.97826,1.36957,19.34147,19.34147,0,0,0,5.28261.09782c.48913-.19565.68478-.97826.68478-1.56521V122.54348l-2.44565.09782v10.07609s.29348,1.07609-.39131,1.27174a6.11449,6.11449,0,0,1-1.95652,0V122.6413l-2.25-.09782Z"/>
      <path class="cls-5" d="M93.68483,134.86958c-.09784-.29352-1.56525-3.13049-1.56525-3.13049a8.21241,8.21241,0,0,0,1.46741-1.36951c.29346-.48914,0-6.65222,0-6.65222a3.25457,3.25457,0,0,0-1.36957-.68476c-.68481-.09784-4.98914,0-4.98914,0v13.01087a2.62009,2.62009,0,0,0,1.17389.39129c.78266.09784.78266-.29345.78266-.29345l.19562-3.81525s.48913-.587.587-.29346,1.95648,4.40216,1.95648,4.40216,1.66309.19568,1.85871-.09784C93.97828,136.04347,93.78261,135.163,93.68483,134.86958Zm-2.15222-5.96741c-.48914.48914-2.6413.19562-2.6413.19562v-3.913l2.73914-.19567S92.02174,128.413,91.53261,128.90217Z"/>
      <path class="cls-5" d="M124.20656,122.83692h-4.69568a1.62354,1.62354,0,0,0-1.27173,1.56525V134.6739a1.79849,1.79849,0,0,0,1.36957,1.07611H123.913s.97827.29346,1.07611-1.76092V123.52174S124.98915,123.0326,124.20656,122.83692Zm-1.07611,11.15217h-2.15217c-1.07611,0-1.174-.68476-1.174-.68476v-7.82611l.09784-.97821h2.6413l.587.3913Z"/>
      <path class="cls-5" d="M108.94569,123.8152s-.48913-.97828-.97827-.97828c-.2876,0-1.92535.03376-3.22827.06165v-.06165l-1.663.09784v13.30433h1.663v-4.5h3.32611a2.415,2.415,0,0,0,.88043-1.27173C109.04347,129.7826,108.94569,123.8152,108.94569,123.8152Zm-1.46741,5.57611s-.48913.48913-.88043.48913h-1.8587v-4.57477a14.96345,14.96345,0,0,1,2.05432-.02307c.29352.09784.587.09784.68481.3913S107.47828,129.39131,107.47828,129.39131Z"/>
      <path class="cls-5" d="M116.38047,123.8152s-.48913-.97828-.97827-.97828c-.28759,0-1.92535.03376-3.22827.06165v-.06165l-1.663.09784v13.30433h1.663v-4.5H115.5a2.415,2.415,0,0,0,.88043-1.27173C116.47825,129.7826,116.38047,123.8152,116.38047,123.8152Zm-1.4674,5.57611s-.48914.48913-.88043.48913h-1.85871v-4.57477a14.96343,14.96343,0,0,1,2.05432-.02307c.29352.09784.587.09784.68482.3913S114.91307,129.39131,114.91307,129.39131Z"/>
      <path class="cls-6" d="M50.93478,79.59783s1.95652.29347,2.15218.88043-2.25,6.26087-2.34783,7.14131-.19565,1.46739-.88043.68478a6.48871,6.48871,0,0,0-2.54348-1.27174S50.73913,80.57609,50.93478,79.59783Z"/>
      <path class="cls-6" d="M46.53261,88.79348a8.84167,8.84167,0,0,0,.78261,2.6413,11.52338,11.52338,0,0,0,1.07608,1.27174s1.663-1.95652,1.07609-3.13043-.97826-1.8587-1.663-1.8587S46.43478,88.20652,46.53261,88.79348Z"/>
      <path class="cls-6" d="M48.78261,93.68478a7.01265,7.01265,0,0,0,2.15217-.97826c.29348-.19565,0-2.05435,0-2.05435s-1.07608,1.07609-1.56521,1.4674S48.78261,93.68478,48.78261,93.68478Z"/>
      <path class="cls-6" d="M55.43478,71.18478s1.27174,1.07609,1.663.78261a96.1504,96.1504,0,0,0,5.47826-9V60.42391a13.29769,13.29769,0,0,0-2.64131-1.36956c-.29348.09782-1.85869,2.73913-1.36956,2.93478s2.6413,1.663,1.76087,2.6413-1.36957.88044-1.36957.88044.48913,1.663-.3913,1.95652a4.62782,4.62782,0,0,1-1.17392.29348,2.60586,2.60586,0,0,1,.19566,1.36956,1.38063,1.38063,0,0,1-1.663,1.17392Z"/>
      <path class="cls-6" d="M62.38043,59.25A12.92439,12.92439,0,0,1,72.3587,48.587a31.131,31.131,0,0,1,2.93478-3.81522c.68478-.48913,1.56522.3913,2.25-.97826a24.70965,24.70965,0,0,0,1.27174-4.69565L76.663,37.82609s-4.69565-4.40218-4.40217-7.337c0,0-4.01087,10.56522-4.40217,11.73913s-1.17392,1.07609-1.17392,1.07609-1.07608-4.79348-1.56521-3.42392a50.64423,50.64423,0,0,0-1.07609,6.06522l-2.93478,8.6087a28.53618,28.53618,0,0,0-1.07609,3.13043C60.03261,58.07609,62.38043,59.25,62.38043,59.25Z"/>
      <path class="cls-6" d="M73.43478,30.48913s1.95652,4.59783,2.93479,5.38044a18.0591,18.0591,0,0,0,3.61956,2.44565c.587.09782,1.17391-2.05435.78261-3.81522s-4.1087-4.69565-4.89131-5.087S72.55435,28.53261,73.43478,30.48913Z"/>
      <path class="cls-7" d="M87.03261,62.47822c-.7826-1.95648-4.5-2.54346-5.2826-2.15216s-3.13043,1.56525-3.52173,1.663a1.30434,1.30434,0,0,0-.48284.45275,1.4035,1.4035,0,0,0-.5351-.45269c-.43359-.09784-3.03522-1.27179-3.90247-1.66309-.86718-.3913-4.98651.19568-5.85369,2.15216C66.587,64.43476,66.587,70.5,66.587,70.5s1.51758.88043,1.626.29346.1084-5.087.32526-6.45655a4.46244,4.46244,0,0,1,2.90743-3.29344c1.40924-.3913,2.30554.81519,2.73913,1.8913a11.6858,11.6858,0,0,1,.71739,4.04348c-.10839.78259,1.00733.58694,1.54938.58694.27228,0,.81806-.98749,1.29389-1.97034.42944.98285.92187,1.97034,1.1676,1.97034.48913,0,1.23915.32609,1.14131-.4565a13.818,13.818,0,0,1,.97826-3.97827c.3913-1.07611,1.40212-2.413,2.67391-2.02173a3.94209,3.94209,0,0,1,2.34781,3.22822c.19568,1.36957.19568,5.86957.29352,6.45655S87.81526,70.5,87.81526,70.5,87.81526,64.43476,87.03261,62.47822Z"/>
    </g>
  </g>
</svg>
