<svg id="Layer_1" data-name="Layer 1" xmlns="http://www.w3.org/2000/svg" width="150" height="150" viewBox="0 0 150 150"><path d="M131.42,109a1.58,1.58,0,0,1-.38,0,8.11,8.11,0,0,1-2.53-.92,34.16,34.16,0,0,1-4-3.21c-1-.93-2.11-1.89-3.26-2.74-2.57-1.9-5.26-3.71-7.86-5.45l-3-2.05L105.11,91l-3-2-.44.1c-1.17.26-2.34.59-3.58.94a35.32,35.32,0,0,1-8.32,1.63c-3.09.07-6.15.12-9.12.12-8.69,0-17.07-.35-24.91-1-1.32-.12-2.74-.17-4.35-.17-1.06,0-2.12,0-3.16.06a13.19,13.19,0,0,0-5.94,1.79c-2.91,1.7-5.8,3.52-8.6,5.27-2.31,1.45-4.69,3-7.07,4.36a5,5,0,0,1-2.57.9,3.13,3.13,0,0,1-1.29-.28.53.53,0,0,1-.27-.31.61.61,0,0,1,0-.51l2-3.76-1-1-.66.26a7.21,7.21,0,0,0-.69.33,2.7,2.7,0,0,1-.84.33,24.82,24.82,0,0,1-2.85-.25.34.34,0,0,1-.22-.13.33.33,0,0,1-.06-.25l0-.15a4.71,4.71,0,0,1,.73-2.28c3.38-2.77,7.24-5.34,12.49-5.44h.37l3-2.47a2.35,2.35,0,0,0,.68-2.42,1.93,1.93,0,0,0-1.86-1.36l-.29,0c-.64.1-1.4.18-2.18.27-1.3.15-2.64.3-3.7.51a2.75,2.75,0,0,0-1.05.57A8,8,0,0,1,23.61,86a38.42,38.42,0,0,1-7.9,1.21c-1.44.11-2.93.22-4.74.46a5.78,5.78,0,0,1-.71.05c-1.67,0-2.95-.88-3.9-2.69-.85-1.62-.58-3,1-4.94,1.8-2.26,3.68-4.53,5.49-6.73l2.25-2.73a32.25,32.25,0,0,0,7.47-16.4,28.05,28.05,0,0,1,1.8-6.37c1.42-3.08,2.59-3.71,3.89-3.71a10.31,10.31,0,0,1,3.9,1.1l.46.2.44-.22c.95-.48,1.93-.91,3-1.36A27.44,27.44,0,0,0,42.9,40c3.91-3.34,8.59-5.12,14.72-5.61H68.09a24.82,24.82,0,0,1,12.45,3.36c3.78,2.19,7.46,4.34,11,6.58a63.94,63.94,0,0,0,13.69,6.39,44.92,44.92,0,0,1,15.11,8.84c6.18,5.42,11.9,10.14,19.29,13A19.79,19.79,0,0,1,143,74.42l.89.57a.44.44,0,0,1,.21.37v.31a.41.41,0,0,1-.42.42L133.35,75h-.26a2.51,2.51,0,0,0-2.5,2.46L130.54,80c-.08,4.24-.16,8.62,0,13.07.07,1.57,1.68,2.83,3.1,3.93l.42.33a12.05,12.05,0,0,0,2.06,1.21,7.08,7.08,0,0,1,2,1.23,5.18,5.18,0,0,1,.87,1.57,1.41,1.41,0,0,1-.78,1.8A21.13,21.13,0,0,1,136,104a4.5,4.5,0,0,1-.75-.2c-.28-.09-.58-.18-.88-.25l-1.28-.28v4.06A1.68,1.68,0,0,1,131.42,109Z" fill="#eee"/><path d="M20.39,96.18l2.78-2.69.56.77-3.36,1.9Z" fill="#fff"/><path d="M22.67,84.81l1.42-.73.23.32-1.3.92Z" fill="#fff"/><path d="M137.45,73.83l0,0Z" fill="#fff"/><path d="M137.47,73.8l0,0Z" fill="#fff"/><path d="M23.18,98.26h0Z" fill="#fff"/><path d="M24.6,101.07l0,0Z" fill="#fff"/><path d="M35.32,66.36l-2.5,1a1.06,1.06,0,0,1-1.43-1.12c.17-1.35.27-2.36.58-2.43a7.84,7.84,0,0,1,3.16.24,1.06,1.06,0,0,1,.86,1v.32A1,1,0,0,1,35.32,66.36Z"/><path d="M56.91,48.75C54.07,47.63,47,50,43.5,53.43a.85.85,0,0,0,.7,1.46l7.72-2.37a1.13,1.13,0,0,1,1.46.92c0,.16,0,.31.07.46a1.65,1.65,0,0,1-.65,1.58l-7.75,5.67c4.51,1.54,11,.07,13.21-2.46C61,55.65,60.21,50,56.91,48.75ZM51,60.1l-.65-.9c4-3.35,7.06-4.87,5.58-7.91a.34.34,0,0,1,.37-.46C58.24,51,59,52,58.5,53.88,57.85,56.39,53.67,59.5,51,60.1Z"/><path d="M144.46,74.09A27.5,27.5,0,0,0,140,71.56c-7.34-2.83-13.13-7.68-19-12.81a46.48,46.48,0,0,0-15.47-9,62.8,62.8,0,0,1-13.46-6.27C88.5,41.14,84.79,39,81.07,36.82a25.93,25.93,0,0,0-13-3.49H57.54c-5.69.45-10.79,2-15.33,5.85-2.74,2.33-6.51,3.46-9.66,5.06-4.91-2.18-7-1.51-9.18,3.13A28.19,28.19,0,0,0,21.49,54a31.42,31.42,0,0,1-7.25,15.88C11.65,73.07,9,76.2,6.49,79.39c-1.43,1.8-2.32,3.73-1.07,6.1s3.1,3.53,5.69,3.19C16.17,88,19,88.32,23.88,87a14.45,14.45,0,0,0,3.68-2c1.66-.32,4.13-.52,5.82-.76a.89.89,0,0,1,1,.59v0A1.27,1.27,0,0,1,34,86.15l-2.69,2.23C26,88.48,21.9,91,18.2,94.06c-.73.6-.92,1.85-1.12,3.07a1.38,1.38,0,0,0,1.18,1.61,24.81,24.81,0,0,0,3,.26,5.78,5.78,0,0,0,1.95-.74h0q-.81,1.52-1.62,3.06a1.65,1.65,0,0,0,.75,2.29,5,5,0,0,0,4.83-.68c5.26-3.14,10.37-6.54,15.66-9.63a12.1,12.1,0,0,1,5.44-1.64,60.64,60.64,0,0,1,7.38.1,301.11,301.11,0,0,0,34.14.92c4.22-.1,8.39-1.75,12.11-2.59,2.93,2,5.43,3.65,7.92,5.35,3.64,2.47,7.33,4.86,10.86,7.47,2.53,1.87,4.66,4.28,7.27,6A9,9,0,0,0,130.8,110a2.73,2.73,0,0,0,3.35-2.66v-2.75c.82.18,1.58.6,2.17.43a21,21,0,0,0,2.29-.85A2.45,2.45,0,0,0,140,101a5.59,5.59,0,0,0-1.08-1.91c-1.06-1.14-2.87-1.55-4.13-2.55s-3.07-2.26-3.12-3.47c-.24-5.36-.06-10.73,0-15.59a1.44,1.44,0,0,1,1.59-1.41l10.29,1.08a1.47,1.47,0,0,0,1.64-1.47v-.31A1.49,1.49,0,0,0,144.46,74.09ZM22.85,95.5c-.29.08-1.85.48-2.16,0-.41-.71,1.61-2.49,2.45-3.15,1.61-1.26,2.29-1,2.44-1a1.25,1.25,0,0,1,.73.73C26.65,93.16,24.82,95,22.85,95.5Zm110.43,3.87a4.55,4.55,0,0,1,2.24,2.13c-2.69,1-4.14-.84-6.47-2-.7-.36-1-1.33-1.58-.79-.39.36-.61.61-.61,1,0,1.23,1.37,2.33,2,3.93.38,1,1.4,1.84,1.39,2.27,0,.72-.79.35-1.42,0a10.74,10.74,0,0,1-3.29-2.59c-4.51-4.58-9.23-9.06-15.74-10.89a2.37,2.37,0,0,1-1.2-.69c-3.81-5.1-8.82-4.16-14-2.87A103.64,103.64,0,0,1,83.7,91.25a45.76,45.76,0,0,1-9.43-.12c-6.16-.42-12.27-.76-18.42-1.34-1.51-.14-3.19.16-4.51-.39-4.63-1.92-8.14-.27-11.9,2.48-4.58,3.34-8.71,6.46-13.55,9.44a1.57,1.57,0,0,1-1.13-.09l-.29-.37a.84.84,0,0,1,.27-1.25,9.45,9.45,0,0,0,4.69-4.46,21.31,21.31,0,0,1,2.71-2.66c1.4-1.47,1.91-1.49,3.21-2.91,2-2.15,3.8-4.21,5.23-6.07.42-1.13.45-2.29-.88-2.29a13.08,13.08,0,0,0-3.24-.08c-3.84.62-7.51,2.44-11.6.46-1.07-.52-2.58,1.53-4.08,2.1-2.71,1-5.78,1.57-8.55,2.35-1.08.3-3.16-.3-3.62-1.12a4.9,4.9,0,0,1,.2-4.14c1.22-2.08,3-3.8,4.58-5.7C19.34,67.75,24.21,60,25,50.16c.09-1.15,1-2.23,2-3.51a1.34,1.34,0,0,1,2.08-.06l2.5,2.9C35.87,46.58,40,43.78,44.1,41c11.62-7.81,30.39-7.54,41.46.86a76.27,76.27,0,0,0,20.79,11.3c7.19,2.55,13.71,6.37,18.31,12.88a15.84,15.84,0,0,0,3.58,3.34,3.15,3.15,0,0,1,1.22,3.06c-.43,2.47-.84,4.7-1.08,6.94-.32,3-.24,6-.62,9C127.1,93.67,128.57,96.77,133.28,99.37Zm3.11-25.78c-.35-.14-2.22-.92-2.26-1.26s3.05.21,4.3.5A8.12,8.12,0,0,1,141.57,74s.49.4.38.63C141.71,75.11,138.78,74.57,136.39,73.59Z"/><path d="M20.58,86.21c-.24-.4,1.93-1.78,2.07-1.87,1-.6,1.84-1.14,2.59-.87.05,0,.5.19.56.5s-.55.75-1.34,1.22a7.82,7.82,0,0,1-2.77,1C21.1,86.31,20.68,86.37,20.58,86.21Z" fill="#fff"/></svg>