<?xml version="1.0" encoding="UTF-8" standalone="no"?>
<!DOCTYPE svg PUBLIC "-//W3C//DTD SVG 1.1//EN" "http://www.w3.org/Graphics/SVG/1.1/DTD/svg11.dtd">
<svg width="100%" height="100%" viewBox="0 0 150 150" version="1.1" xmlns="http://www.w3.org/2000/svg" xmlns:xlink="http://www.w3.org/1999/xlink" xml:space="preserve" xmlns:serif="http://www.serif.com/" style="fill-rule:evenodd;clip-rule:evenodd;stroke-linejoin:round;stroke-miterlimit:2;">
    <g transform="matrix(1,0,0,1,-857,-431)">
        <g transform="matrix(3.39069,0,0,4.93927,905.237,170.117)">
            <g id="axis_tunisia_prem_pilot_assaulter_2_icon" transform="matrix(0.289142,0,0,0.198489,-21.1657,38.5268)">
                <rect x="24" y="72" width="153" height="153" style="fill:none;"/>
                <g transform="matrix(3.4585,0,0,5.03806,73.2016,-194.977)">
                    <g id="Shape-1" serif:id="Shape 1" transform="matrix(0.294925,0,0,0.202459,-14.2263,53.0205)">
                        <path d="M129.998,95.792L129.998,10.663L122.734,3.399L27.266,3.399L20.002,10.663L20.002,95.792C19.967,96.649 19.097,115.7 42.085,125.854C62.009,134.654 70.625,139.52 75,145.601C79.374,139.52 87.988,134.654 107.907,125.854C130.895,115.7 130.028,96.587 129.998,95.792Z" style="fill:rgb(33,33,33);fill-rule:nonzero;"/>
                    </g>
                    <g transform="matrix(0.294925,0,0,0.202459,-266.977,-34.2678)">
                        <path d="M939.22,566.791C939.971,567.509 940.629,568.111 940.785,568.227C940.924,568.331 941.036,568.341 941.072,568.344C941.072,568.344 941.072,568.344 941.072,568.344C941.108,568.348 941.226,568.353 941.386,568.278C941.669,568.143 942.827,567.433 942.971,567.301C942.971,567.301 942.971,567.301 942.971,567.301C943.062,567.218 943.147,567.092 943.137,566.894C943.133,566.834 943.105,566.693 942.991,566.509C942.472,565.674 939.326,561.905 938.293,560.921C936.26,558.987 933.973,557.813 932.38,557.813C931.69,557.813 930.868,558.101 930.138,558.62C930.138,558.62 929.715,558.921 929.715,558.921C929.576,559.02 929.497,559.184 929.506,559.354C929.515,559.524 929.61,559.679 929.758,559.763L930.855,560.389C933.404,561.841 936.628,564.31 939.22,566.791ZM940.392,487.468L940.338,486.185C940.182,482.504 940.271,481.904 940.705,481.167C940.705,481.167 940.705,481.167 940.705,481.167C940.946,480.757 941.274,480.384 941.644,480.139C942.16,479.798 942.7,479.856 942.906,479.889C943.039,479.911 943.713,480.473 943.713,480.473C943.875,481.192 944.248,481.509 944.539,482.261C944.806,482.948 944.879,483.639 945.812,483.77C947.213,485.683 946.921,488.052 948.296,488.825C948.951,489.415 948.971,490.942 949.181,491.236C949.214,491.223 949.242,491.215 949.266,491.21C949.345,491.193 950.458,491.795 950.415,492.249C950.415,492.249 951.359,493.083 951.359,493.083C951.331,493.129 951.362,493.24 951.407,493.235C951.839,493.19 953.078,492.895 954.162,492.584C954.162,492.584 954.162,492.584 954.162,492.584C955.341,492.245 956.577,491.986 956.905,491.992C956.905,491.992 956.905,491.992 956.905,491.992C957.227,491.998 958.424,492.197 959.565,492.441C959.565,492.441 959.565,492.441 959.565,492.441C960.638,492.669 961.904,492.856 962.415,492.856C962.947,492.856 965.426,493.174 967.924,493.566C977.764,495.113 977.48,495.021 980.496,496.484C982.502,497.456 983.518,498.297 983.848,499.086C983.848,499.086 983.848,499.086 983.848,499.086C983.957,499.348 984.004,499.523 984.003,499.687C984.001,499.92 983.907,500.159 983.578,500.637C983.578,500.637 983.578,500.637 983.578,500.637C983.334,500.992 982.77,501.617 982.323,502.026C981.131,503.116 980.55,503.741 978.004,503.726C976.024,503.715 974.67,503.483 972.611,502.798C972.611,502.798 972.611,502.798 972.611,502.798C971.456,502.414 971.405,502.417 969.423,502.501C967.306,502.59 967.136,502.571 965.712,502.186C964.48,501.853 964.461,501.826 963.821,502.032C963.821,502.032 963.821,502.032 963.821,502.032C962.865,502.341 961.657,503.03 960.897,503.698C960.538,504.014 959.629,505.035 958.874,505.965C958.23,506.757 957.623,507.432 957.353,507.671C957.143,507.857 956.957,507.886 956.891,507.886C956.702,507.886 956.408,507.766 956.166,507.367C955.893,506.918 955.553,505.975 955.215,504.655C955.215,504.655 955.215,504.655 955.215,504.655C955.038,503.963 954.891,503.344 954.822,503.034C954.774,502.972 954.609,502.761 954.465,502.596C954.205,502.301 954.076,502.104 954.008,501.888C953.941,501.675 953.931,501.437 953.97,501.039L953.989,500.872L953.914,501.037C953.304,502.382 953.064,503.353 953.071,504.507C953.078,505.625 953.277,506.337 953.812,507.039C953.812,507.039 953.812,507.039 953.812,507.039C954.224,507.581 954.306,507.81 954.299,508.782C954.282,511.061 952.482,512.973 949.766,513.488C949.766,513.488 949.766,513.488 949.766,513.488C948.848,513.662 948.352,513.662 947.225,513.474L947.225,513.474C946.043,513.278 944.922,512.73 944.4,512.136C944.4,512.136 944.4,512.136 944.4,512.136C943.982,511.659 942.997,509.774 942.182,508.015C943.372,511.171 945.056,514.725 946.737,517.584C948.101,519.905 950.093,523.226 950.781,524.051C950.966,523.973 951.706,523.371 951.942,523.248C952.735,522.832 952.597,522.806 953.584,522.761C954.635,522.713 954.919,522.766 955.746,523.137C956.869,523.641 958.069,524.84 958.612,526.007C959.416,527.733 958.982,529.671 957.147,531.904L956.801,532.325C956.644,532.516 956.373,532.564 956.16,532.438C955.948,532.313 955.859,532.052 955.95,531.823L956.308,530.924C956.571,530.266 956.618,529.972 956.578,529.242C956.516,528.075 956.133,527.353 955.115,526.401C954.138,525.486 953.023,525.063 951.887,525.205C951.798,525.216 951.712,525.229 951.639,525.242C951.612,525.391 951.536,525.482 951.506,525.512C951.454,525.564 951.394,525.604 951.326,525.629L951.42,526.92C951.427,527.011 951.409,527.101 951.369,527.18C951.555,527.24 951.75,527.337 951.964,527.481C952.286,527.698 952.667,528.034 953.165,528.518C954.73,530.04 955.04,530.789 954.89,532.242C954.728,533.804 953.766,535.364 950.977,538.315L949.609,539.763C949.469,539.912 949.252,539.96 949.061,539.884C948.871,539.808 948.746,539.624 948.746,539.419L948.746,538.827C948.746,537.884 948.472,536.39 948.057,535.03C948.057,535.03 948.057,535.03 948.057,535.03C947.826,534.273 947.574,533.196 947.496,532.638L947.359,531.656C947.343,531.543 947.366,531.427 947.426,531.329C947.426,531.329 947.975,530.417 947.975,530.417C948.262,529.94 948.594,529.311 948.711,529.017C949.193,527.806 949.382,527.623 949.982,527.338C950.145,527.261 950.297,527.203 950.442,527.163L950.245,526.927L949.597,526.125L948.913,526.632C948.705,526.786 948.413,526.756 948.241,526.563C948.069,526.37 948.073,526.077 948.25,525.888C948.25,525.888 948.706,525.403 948.706,525.403C948.775,525.33 948.849,525.245 948.913,525.169C948.893,525.145 948.873,525.121 948.854,525.1C948.345,524.522 946.446,521.643 945.176,519.533C945.233,519.694 945.257,519.818 945.257,519.886C945.257,520.028 945.209,520.191 945.073,520.348C944.942,520.5 944.678,520.68 944.301,520.824C944.301,520.824 944.301,520.824 944.301,520.824C943.947,520.959 943.413,521.357 942.991,521.738C942.771,521.936 942.522,522.237 942.454,522.321C942.493,522.774 942.853,523.721 943.149,524.157C943.334,524.429 943.433,524.599 943.473,524.715C943.522,524.855 943.524,524.972 943.503,525.075C943.473,525.233 943.378,525.393 943.134,525.569C942.393,526.104 941.044,527.289 940.763,527.658C940.395,528.142 940.162,528.602 940.084,529.016C940.025,529.335 940.064,529.62 940.237,529.84C940.51,530.187 940.833,530.149 941.475,529.936C941.475,529.936 941.475,529.936 941.475,529.936C942.315,529.656 942.883,529.487 943.263,529.437C943.674,529.383 943.945,529.461 944.131,529.594C944.286,529.705 944.402,529.863 944.472,530.086C944.532,530.278 944.555,530.543 944.555,530.89L944.555,531.657C944.555,531.933 944.331,532.157 944.055,532.157C944.055,532.157 943.108,532.158 943.108,532.158C942.087,532.159 940.78,532.336 939.839,532.558C939.981,532.584 940.136,532.61 940.303,532.637C942.337,532.965 943.239,533.451 943.835,534.366L944.08,534.743C944.352,535.162 943.832,535.446 943.697,535.511L943.667,535.525C943.667,535.525 943.545,535.537 943.414,535.459L942.551,535.055C941.487,534.556 940.248,534.355 939.122,534.468C940.127,534.696 941.07,535.067 941.935,535.577C942.94,536.169 943.989,537.06 944.316,537.532C944.526,537.835 944.517,538.1 944.462,538.245C944.462,538.245 944.462,538.245 944.461,538.245C944.419,538.357 943.558,539.632 942.536,541.07L940.745,543.589C940.636,543.741 940.453,543.821 940.268,543.795L939.73,543.719C940.458,544.428 941.503,545.809 942.375,547.252C942.375,547.252 942.375,547.252 942.375,547.252C942.636,547.683 942.811,547.977 942.872,548.109C942.929,548.232 942.939,548.324 942.94,548.371C942.944,548.512 942.896,548.611 942.847,548.68C942.777,548.78 942.682,548.847 942.56,548.878C942.484,548.898 942.316,548.931 942.116,548.787C941.992,548.699 941.536,548.196 940.643,547.175C940.257,546.735 939.68,546.215 939.357,546.025L939.104,545.877L938.828,546.257C938.652,546.498 938.417,546.471 938.417,546.471C938.291,546.471 938.169,546.423 938.076,546.337C938.076,546.337 937.058,545.388 937.058,545.388C935.565,543.998 934.098,543.215 932.289,542.886C934.449,543.925 935.917,545.629 936.58,547.876L936.792,548.594C936.851,548.793 936.781,549.007 936.616,549.133C936.616,549.133 935.921,549.663 935.921,549.663C935.551,549.945 934.582,550.955 933.762,551.904C932.883,552.921 931.869,553.957 931.514,554.212C930.504,554.937 929.194,555.373 925.672,556.076C923.803,556.449 922.659,556.719 921.948,556.982C921.568,557.122 921.335,557.244 921.195,557.399C920.909,557.715 920.656,557.807 920.504,557.808C920.32,557.808 920.149,557.74 920.01,557.55C919.925,557.433 919.835,557.185 919.772,556.768C919.772,556.768 919.772,556.768 919.772,556.768C919.619,555.744 919.772,554.967 920.447,553.624L920.865,552.793C920.865,552.793 920.327,551.908 920.327,551.908C919.414,550.407 918.674,548.675 918.21,546.955C917.865,545.678 917.829,545.333 917.836,542.809C917.843,540.579 917.905,539.804 918.16,538.586C918.304,537.9 918.475,537.216 918.676,536.525L918.674,536.524C918.543,536.462 918.287,536.224 918.08,535.879L918.08,535.879C917.506,534.927 916.083,533.19 915.141,532.29C912.854,530.105 910.371,528.783 907.716,528.355L907.56,528.332C907.637,528.468 907.695,528.603 907.729,528.722C907.772,528.875 907.78,529.011 907.765,529.117C907.723,529.406 907.595,529.598 907.428,529.72C907.264,529.84 907.043,529.905 906.753,529.86C906.449,529.813 906.003,529.61 905.428,529.217C904.957,528.895 904.24,528.505 903.833,528.352C902.49,527.85 900.69,528.055 899.58,528.845C899.58,528.845 899.58,528.845 899.58,528.845C899.374,528.992 899.164,529.114 899.058,529.158C898.951,529.203 898.865,529.211 898.816,529.211C898.733,529.211 898.608,529.194 898.479,529.086C898.391,529.014 898.144,528.645 897.93,528.185C897.435,527.122 897.419,526.105 897.89,524.95C897.89,524.95 897.89,524.95 897.89,524.95C898.013,524.648 898.129,524.424 898.279,524.235C898.606,523.825 899.118,523.571 900.481,523.134C904.233,521.932 910.705,521.963 917.315,523.241C919.07,523.581 919.262,523.685 919.84,524.219C920.138,524.495 920.386,524.799 920.476,524.968C920.547,525.1 920.564,525.213 920.564,525.287C920.564,525.554 920.443,525.772 920.193,525.918C919.981,526.042 919.579,526.103 919.062,526.019C919.148,526.166 919.215,526.293 919.247,526.374C919.292,526.487 919.302,526.575 919.302,526.626C919.302,526.939 919.065,527.263 918.538,527.246L918.535,527.246L918.581,527.299C919.966,528.918 920.552,529.655 920.678,529.975C920.802,530.288 920.721,530.493 920.619,530.63C920.517,530.765 920.295,530.894 919.938,530.894C919.887,530.894 919.789,530.883 919.658,530.842C919.439,530.774 919.02,530.605 918.558,530.394C919.192,531.288 919.666,532.289 919.879,533.159C920.723,531.147 921.844,528.975 923.323,526.458C923.649,525.902 923.863,525.574 924.031,525.382C924.322,525.051 924.554,524.984 924.831,524.985C924.831,524.985 924.831,524.985 924.831,524.985C925.137,524.985 925.653,525.178 926.041,525.426C926.264,525.569 926.44,525.735 926.547,525.882C926.578,525.868 926.612,525.857 926.649,525.849C926.76,525.823 926.982,525.835 927.185,525.96C927.185,525.96 927.185,525.96 927.185,525.96C927.25,526.001 927.312,526.055 927.362,526.127C927.473,526.116 927.594,526.131 927.723,526.18C927.723,526.18 927.723,526.18 927.723,526.18C927.901,526.248 928.012,526.346 928.089,526.473C928.116,526.517 928.139,526.567 928.157,526.626C928.227,526.582 928.325,526.546 928.458,526.548C928.623,526.552 929.342,526.717 929.644,526.819C929.875,526.897 929.99,527.027 930.017,527.066C930.071,527.147 930.095,527.227 930.101,527.301C930.172,527.092 930.329,526.864 930.658,526.491C930.658,526.491 930.658,526.491 930.658,526.491C930.975,526.13 931.851,525.4 932.607,524.873C933.595,524.184 935.449,522.39 936.538,521.157C936.81,520.85 937.033,520.579 937.179,520.371C937.24,520.285 937.288,520.221 937.302,520.175C937.39,519.877 937.344,519.438 937.23,518.955C937.04,518.144 936.636,517.221 936.127,516.553C935.954,516.326 935.823,516.11 935.775,515.996C935.733,515.898 935.722,515.818 935.72,515.766C935.712,515.58 935.79,515.458 935.87,515.378C935.92,515.328 936.001,515.266 936.131,515.237C936.225,515.216 936.57,515.234 936.947,515.321C936.947,515.321 936.947,515.321 936.947,515.321C937.231,515.387 937.867,515.439 938.36,515.441C938.928,515.443 939.219,515.464 939.468,515.56C939.721,515.658 939.941,515.834 940.343,516.21C940.343,516.21 940.343,516.21 940.343,516.21C940.528,516.384 940.788,516.566 940.925,516.658C940.997,516.603 941.099,516.519 941.16,516.445C941.16,516.445 941.16,516.445 941.16,516.445C941.429,516.118 941.607,515.982 941.769,515.93C941.957,515.868 942.172,515.881 942.547,516.036C942.547,516.037 942.547,516.037 942.547,516.037C942.844,516.16 943.326,516.544 943.609,516.901C943.689,517.003 943.776,517.121 943.867,517.25C942.896,515.478 941.95,513.591 941.353,512.215C941.249,511.975 941.141,511.731 941.056,511.539C940.908,511.588 940.733,511.647 940.57,511.706C940.038,511.899 939.227,512.103 938.767,512.161C937.708,512.293 935.918,512.012 935.244,511.685C935.068,511.6 934.945,511.495 934.862,511.388C934.833,511.392 934.81,511.393 934.792,511.393C934.715,511.393 934.593,511.375 934.459,511.285C934.342,511.206 934.129,510.99 933.942,510.728L933.942,510.728C933.491,510.095 933.368,509.457 933.72,508.419C933.915,507.841 934.273,507.114 934.82,506.144C934.82,506.144 934.82,506.144 934.82,506.144C935.42,505.081 935.881,503.476 935.772,502.723C935.772,502.723 935.772,502.723 935.772,502.723C935.672,502.025 935.131,501.581 934.203,501.294C934.203,501.294 934.203,501.294 934.203,501.294C933.975,501.224 933.698,501.155 933.411,501.094C933.461,501.2 933.473,501.301 933.467,501.391C933.456,501.554 933.386,501.733 933.162,501.875C932.951,502.009 932.33,502.145 931.153,502.325C926.764,502.994 923.968,502.945 919.181,502.112C918.633,502.016 918.359,501.941 918.163,501.809C917.952,501.667 917.806,501.456 917.579,501.009C917.485,500.823 917.384,500.652 917.281,500.504C917.298,500.783 917.291,501.046 917.266,501.224C917.24,501.411 917.182,501.543 917.135,501.613C917.07,501.71 916.908,501.85 916.622,501.94C916.066,502.115 914.744,502.261 913.361,502.268C912.205,502.274 911.982,502.227 910.632,501.636L909.372,501.083C909.372,501.083 907.868,501.111 907.868,501.111C905.391,501.157 900.751,500.894 899.527,500.641C897.495,500.221 896.869,499.887 895.983,498.869C895.616,498.447 895.329,498.182 894.999,498.005C894.996,498.077 894.986,498.155 894.969,498.24C894.962,498.273 894.959,498.318 894.958,498.353C894.993,498.403 895.025,498.462 895.051,498.532C895.136,498.764 895.166,499.264 895.121,499.686C895.085,500.018 894.992,500.302 894.902,500.431C894.855,500.498 894.802,500.549 894.748,500.587C894.724,500.95 894.504,501.232 894.126,501.388C893.55,501.627 892.486,501.5 891.825,500.943C891.825,500.943 891.825,500.943 891.825,500.943C891.663,500.808 891.555,500.702 891.476,500.581C891.386,500.445 891.325,500.291 891.295,500.057C891.267,499.835 891.27,499.504 891.284,498.948C891.294,498.541 891.263,499.053 891.25,498.878C890.973,498.521 891.043,497.908 891.65,497.51C891.65,497.51 891.65,497.51 891.65,497.51C891.845,497.382 891.993,497.317 892.16,497.289C892.365,497.256 892.616,497.289 893.11,497.436L893.116,497.437C893.214,497.194 893.398,496.499 893.762,496.399C894.55,496.181 895.812,495.945 897.674,497.841C898.855,498.587 899.386,498.776 900.748,498.936C900.748,498.936 900.748,498.936 900.748,498.936C902.375,499.127 904.528,498.976 908.56,498.406C912.543,497.843 913.192,497.876 916.538,498.782C916.538,498.782 916.538,498.782 916.538,498.782C917.858,499.14 918.871,499.112 922.322,498.698C929.83,497.797 932.189,497.655 934.982,497.913C935.96,498.004 937.001,498.117 937.294,498.164C937.313,498.166 937.332,498.169 937.351,498.171C937.376,498.133 937.407,498.097 937.443,498.061C937.57,497.934 937.831,497.8 938.243,497.734C938.609,497.675 938.935,497.663 939.016,497.678C939.168,497.705 939.253,497.779 939.299,497.827C939.299,497.827 939.299,497.827 939.299,497.827C939.32,497.848 939.394,497.922 939.434,498.079C939.472,498.228 939.589,497.932 939.709,498.755L939.721,498.833C939.823,498.662 939.971,498.585 940.066,498.562C940.066,498.562 940.066,498.562 940.066,498.562C940.238,498.522 941.62,498.075 941.875,497.978C941.875,497.978 941.875,497.978 941.875,497.978C941.965,497.943 942.144,497.91 942.371,498.019C942.586,498.122 943.04,498.467 943.497,498.906C943.776,499.174 944.388,499.646 944.845,500.013C945.666,499.147 946.293,498.496 946.293,498.496C946.439,498.344 946.665,498.3 946.857,498.386C946.857,498.386 947.468,498.659 947.468,498.659C947.788,498.803 948.016,498.887 948.225,498.868C948.322,498.86 948.41,498.825 948.499,498.768C948.424,498.744 948.354,498.703 948.296,498.646L947.543,497.902C947.13,497.494 946.869,497.208 946.733,496.978C946.58,496.716 946.545,496.489 946.585,496.263C946.612,496.115 946.684,495.959 946.812,495.78C946.768,495.784 946.724,495.788 946.678,495.79C945.994,495.826 945.062,495.722 944.671,495.524L944.671,495.524C944.374,495.374 944.202,495.235 944.086,495.074C943.963,494.902 943.894,494.696 943.868,494.378C943.868,494.378 943.868,494.378 943.868,494.378C943.85,494.158 943.861,493.991 943.895,493.853C943.505,493.973 943.159,494.01 942.89,493.976C942.495,493.925 942.222,493.734 942.076,493.461L942.076,493.461C941.965,493.255 941.871,492.87 941.871,492.606C941.871,492.519 941.785,492.446 941.689,492.376C941.689,492.376 941.689,492.376 941.689,492.376C941.296,492.087 941.198,491.862 941.186,491.672C941.424,491.357 941.775,491.338 941.792,491.266L941.202,491.473C941.103,491.4 941.016,491.296 940.961,491.131C940.914,490.992 940.889,490.749 940.889,490.324L940.889,490.137C940.463,490.197 940.192,490.096 940.039,489.949C939.926,489.839 939.843,489.69 939.82,489.479C939.796,489.268 939.854,488.925 940.019,488.42L940.263,487.673C940.289,487.594 940.334,487.524 940.392,487.468ZM889.732,549.349C890.325,549.908 890.88,550.367 891.12,550.515C891.375,550.673 891.58,550.634 891.652,550.61C891.715,550.589 891.801,550.548 891.886,550.455C891.938,550.398 892.027,550.261 892.128,550.04C892.474,549.282 893.21,547.196 894.047,544.576C896.596,536.589 897.463,530.277 896.501,527.251C896.294,526.598 895.926,525.786 895.69,525.445C895.69,525.445 895.292,524.871 895.292,524.871C895.171,524.695 894.95,524.616 894.744,524.674C894.538,524.733 894.393,524.916 894.382,525.13L894.284,527.075C894.159,529.58 893.878,531.366 893.131,534.414C892.22,538.137 890.587,542.781 888.982,546.215C888.982,546.215 888.347,547.574 888.347,547.574C888.256,547.769 888.3,548.001 888.457,548.149L889.732,549.349ZM938.621,545.952L938.621,545.954L938.692,546.094L938.621,545.952ZM938.817,545.423L938.966,545.717L939.083,545.285L938.966,545.217L938.817,545.423ZM930.049,527.578C929.995,527.769 929.906,528.078 929.799,528.417C929.659,528.863 929.543,529.557 929.543,529.96C929.543,531.101 929.306,532.282 929.019,532.89C928.791,533.372 928.451,533.56 928.206,533.56C928.13,533.56 928.032,533.544 927.925,533.488C927.799,533.423 927.6,533.251 927.449,533.035L927.449,533.035C927.309,532.835 927.196,532.48 927.154,532.009C927.078,531.148 927.201,529.826 927.513,528.539C927.476,528.561 927.441,528.576 927.408,528.587C927.292,528.626 927.18,528.627 927.073,528.596C927.052,528.787 927.033,528.981 927.019,529.169C926.936,530.293 926.769,531.124 926.388,532.302C926.121,533.128 925.83,534.202 925.744,534.69C925.64,535.277 925.539,535.672 925.452,535.878C925.354,536.108 925.222,536.219 925.132,536.268C924.985,536.347 924.84,536.354 924.699,536.308C924.583,536.27 924.406,536.166 924.299,535.889C924.299,535.889 924.299,535.889 924.299,535.889C924.277,535.832 924.253,535.728 924.25,535.583C924.245,535.308 924.306,534.735 924.413,534.146C924.494,533.705 924.764,532.484 925.074,531.127C924.115,534.104 923.12,537.713 922.964,538.945C922.964,538.945 922.964,538.945 922.964,538.945C922.908,539.387 922.668,540.075 922.429,540.474C922.178,540.891 921.88,541.568 921.636,542.237C922.029,541.559 922.59,541.121 923.876,540.283C924.403,539.94 924.765,539.68 924.998,539.442C925.232,539.203 925.278,539.003 925.224,538.718C925.224,538.718 925.224,538.718 925.224,538.718C925.153,538.35 925.225,538.142 925.314,538.021C925.415,537.883 925.601,537.751 925.989,537.751C926.292,537.751 926.738,537.952 926.972,538.211C927.096,538.348 927.456,538.58 927.766,538.737L928.437,539.077C928.57,539.144 928.665,539.267 928.698,539.413C928.731,539.558 928.698,539.71 928.607,539.828L927.962,540.666C927.62,541.111 927.06,542.008 926.716,542.659C926.603,542.873 926.473,543.11 926.34,543.347C926.965,542.461 927.611,541.602 928.296,540.745C929.797,538.864 933.21,535.365 934.458,534.423L934.647,534.28C934.453,534.112 934.226,533.886 934.057,533.685C933.857,533.445 933.716,533.286 933.534,533.243C933.353,533.199 933.157,533.277 932.873,533.399L932.174,533.7C931.99,533.779 931.776,533.74 931.631,533.601C931.631,533.601 931.238,533.225 931.238,533.225C931.085,533.079 930.798,532.931 930.599,532.899C930.232,532.839 929.935,532.677 929.825,532.558C929.704,532.427 929.666,532.285 929.667,532.161C929.667,532.064 929.795,531.517 929.968,530.95C930.237,530.068 930.287,529.062 930.108,528.138C930.108,528.138 930.108,528.138 930.108,528.138C930.062,527.9 930.042,527.727 930.049,527.578ZM954.784,502.857C954.782,502.849 954.781,502.842 954.78,502.837C954.779,502.833 954.779,502.829 954.779,502.827C954.779,502.833 954.78,502.844 954.784,502.857ZM967.071,499.298C966.079,498.586 963.063,497.555 961.865,497.062C960.732,496.596 956.955,495.629 956.247,495.715C956.247,495.715 956.247,495.715 956.247,495.715C955.785,495.771 953.961,496.224 952.894,496.53C953.156,496.641 953.832,497.082 953.914,497.241C954.014,497.437 954.028,497.651 953.95,497.868C953.86,498.117 953.589,498.412 953.123,498.595C953.121,498.717 953.08,498.862 952.948,499.023C952.84,499.154 952.606,499.348 952.184,499.654C951.651,500.041 950.597,501.015 949.688,501.923C950.981,501.041 952.475,500.103 953.181,499.739L953.628,499.508C953.817,499.411 954.047,499.444 954.202,499.59C954.274,499.659 954.322,499.745 954.343,499.837C954.612,499.403 955.04,499.037 955.689,498.671C955.689,498.671 955.689,498.671 955.689,498.671C956.065,498.459 956.376,498.324 956.693,498.266C957.386,498.138 958.143,498.381 959.848,499.248C961.431,500.052 961.455,500.079 962.416,500.052C963.575,500.019 965.985,499.695 967.071,499.298ZM941.051,486.138C941.019,486.235 941.076,486.284 941.076,486.284C941.076,486.284 941.283,486.327 941.429,486.357C941.513,486.374 941.575,486.445 941.582,486.531C941.595,486.698 941.617,486.979 941.635,487.209C941.639,487.261 941.676,487.303 941.726,487.315C941.776,487.326 941.828,487.303 941.853,487.259C941.984,487.032 942.154,486.738 942.267,486.542C942.347,486.402 942.447,486.275 942.564,486.163C942.748,485.987 943.043,485.706 943.277,485.482C943.316,485.445 943.324,485.386 943.297,485.339C943.269,485.293 943.213,485.271 943.162,485.288C942.869,485.379 942.55,485.479 942.55,485.479L941.362,486.064C941.362,486.064 941.083,486.042 941.051,486.138Z" style="fill:rgb(242,251,255);fill-rule:nonzero;"/>
                    </g>
                    <g id="Shape-4" serif:id="Shape 4" transform="matrix(0.294925,0,0,0.202459,-14.2263,53.0205)">
                        <path d="M130,24L130,11L122,3L28,3L20,11L20,24L130,24Z" style="fill:rgb(242,251,255);fill-rule:nonzero;"/>
                    </g>
                </g>
                <g id="Shape-41" serif:id="Shape 4" transform="matrix(1.02,0,0,1.02,-850.14,-367.62)">
                    <path d="M988.98,526.259C989.064,528.816 988.851,548.578 965.281,559.025C946.065,567.544 938.766,571.855 935.245,576.768L933.628,579.024C932.829,580.138 931.177,580.138 930.378,579.024L928.761,576.768C925.238,571.855 917.875,567.544 898.654,559.025C875.1,548.585 874.936,528.909 875.025,526.257L875,441.141L884,432.141L980,432.141L989,441.141L988.98,526.259ZM936.057,569.869C933.308,567.081 928.339,563.333 921.6,558.964C919.456,557.575 919.256,557.338 920.224,557.332C920.425,557.331 920.697,557.209 920.831,557.062C921.278,556.568 922.402,556.218 925.58,555.584C928.982,554.905 930.253,554.504 931.229,553.804C931.57,553.559 932.543,552.556 933.39,551.576C934.237,550.595 935.242,549.555 935.624,549.264L936.319,548.734L936.107,548.016C935.307,545.304 933.252,543.442 930.186,542.653C929.638,542.512 929.19,542.338 929.19,542.267C929.19,542.192 929.849,542.17 930.768,542.214C933.465,542.342 935.414,543.166 937.405,545.02L938.424,545.969L938.973,545.215L939.616,545.592C939.97,545.799 940.604,546.363 941.025,546.844C942.718,548.778 942.723,548.782 941.954,547.509C940.986,545.909 939.807,544.381 939.119,543.836C938.56,543.393 938.558,543.388 938.888,543.265C939.071,543.196 939.474,543.176 939.782,543.219L940.344,543.298L942.135,540.779C943.12,539.394 943.96,538.172 944.001,538.064C944.102,537.802 942.857,536.695 941.687,536.006C940.55,535.336 939.27,534.918 937.888,534.765L936.836,534.648L937.391,534.401C938.921,533.718 941.054,533.797 942.77,534.6L943.673,535.023L943.422,534.637C942.887,533.816 942.056,533.423 940.23,533.129C938.721,532.887 938.45,532.808 938.45,532.615C938.45,532.232 941.242,531.658 943.114,531.656L944.061,531.655C944.061,531.655 944.038,530.224 943.921,530.071C943.692,529.773 943.106,529.92 941.639,530.408C940.705,530.72 940.248,530.653 939.85,530.148C939.333,529.49 939.524,528.469 940.372,527.353C940.665,526.968 942.072,525.722 942.848,525.162C943.097,524.982 943.092,524.953 942.742,524.436C942.383,523.907 941.957,522.718 941.957,522.244C941.957,521.888 943.399,520.634 944.129,520.355C944.522,520.205 944.763,520.026 944.763,519.884C944.763,519.608 943.806,517.945 943.224,517.21C942.993,516.918 942.605,516.598 942.362,516.497C941.94,516.322 941.903,516.334 941.553,516.761C941.351,517.006 941.072,517.207 940.934,517.206C940.795,517.206 940.385,516.929 940.022,516.592L939.361,515.979L938.029,515.897C936.216,515.784 936.242,515.791 935.664,515.276C934.569,514.3 933.73,513.474 933.534,513.179C933.493,513.117 933.454,513.075 933.372,513.094L922.796,524.21L922.93,524.597C923.083,525.037 923.21,525.158 923.662,525.29C923.963,525.378 924.367,525.434 924.56,525.415C924.753,525.396 924.813,525.406 924.692,525.437C924.301,525.54 921.762,530.09 920.569,532.826C919.382,535.549 918.387,539.064 918.387,540.538L918.387,541.029L917.601,540.823C915.797,540.352 914.747,539.674 911.659,536.987C908.587,534.313 906.657,533.078 904.33,532.297C903.137,531.896 902.718,531.946 902.333,532.533C902.214,532.714 901.923,533.989 901.685,535.366C900.957,539.588 900.558,540.501 898.138,543.48C896.42,545.597 895.591,546.812 894.817,548.352C894.197,549.583 893.602,551.059 893.558,551.463C895.521,552.764 897.751,553.993 900.28,555.11C919.481,563.591 927.784,568.28 932,574.141C933.059,572.669 934.375,571.271 936.057,569.869ZM920.785,467.786C920.874,467.556 920.776,467.459 920.282,467.01C919.606,466.394 919.432,465.965 919.566,465.247C919.726,464.394 920.678,463.82 921.547,464.052C921.781,464.114 922.186,464.386 922.447,464.655C922.845,465.065 922.934,465.275 922.988,465.93C923.035,466.495 922.983,466.869 922.801,467.272L922.695,467.506L945.697,492.289C945.786,492.233 945.889,492.155 945.981,492.068C946.446,491.631 946.525,491.836 946.09,492.353L945.932,492.542L947.903,494.665C947.998,494.768 948.02,494.914 947.97,495.036C947.975,495.037 947.98,495.038 947.984,495.038C948.102,495.038 947.934,495.297 947.584,495.654C946.852,496.4 946.874,496.531 947.901,497.545L948.654,498.289L949.795,498.367C950.67,498.427 950.936,498.493 950.936,498.652C950.936,498.859 950.59,498.848 949.867,498.617C949.649,498.548 949.437,498.638 949.077,498.955C948.504,499.458 948.114,499.492 947.27,499.114L946.852,498.927L941.401,504.656C941.509,505.586 944.042,510.962 944.782,511.804C945.592,512.727 947.878,513.31 949.538,513.017C952.094,512.567 953.79,510.882 953.805,508.777C953.811,507.978 953.76,507.786 953.421,507.341C952.253,505.809 952.269,503.467 953.465,500.829L953.863,499.951L953.417,500.182C952.571,500.618 950.582,501.889 949.19,502.882C947.629,503.996 947.267,504.128 947.666,503.439C948.033,502.804 950.878,499.986 951.897,499.248C952.633,498.714 952.733,498.593 952.548,498.457C952.362,498.321 952.387,498.283 952.72,498.2C953.575,497.987 953.789,497.396 953.077,497.217C952.876,497.167 952.591,497.04 952.442,496.936C952.175,496.749 952.175,496.744 952.447,496.598C952.599,496.517 952.994,496.39 953.325,496.316C953.861,496.195 953.975,496.217 954.37,496.518C955.046,497.034 955.917,497.283 957.046,497.283C958.652,497.283 960.122,497.539 961.983,498.143C963.868,498.754 965.329,499.098 966.088,499.109C966.358,499.113 966.693,499.202 966.833,499.308C967.065,499.484 967.016,499.528 966.283,499.802C965.143,500.228 963.67,500.515 962.436,500.55C961.388,500.58 961.355,500.57 959.628,499.692C957.425,498.573 957.003,498.506 955.941,499.105C954.959,499.66 954.559,500.199 954.474,501.085C954.415,501.694 954.455,501.818 954.847,502.265C955.088,502.54 955.285,502.792 955.285,502.826C955.285,502.86 955.474,503.626 955.706,504.53C956.164,506.319 956.609,507.384 956.897,507.384C956.999,507.384 957.717,506.603 958.492,505.648C959.268,504.693 960.204,503.646 960.573,503.321C961.378,502.612 962.66,501.882 963.674,501.555C964.409,501.318 964.433,501.319 965.849,501.702C967.215,502.071 967.378,502.085 969.408,502C971.502,501.911 971.555,501.917 972.775,502.322C974.834,503.007 976.082,503.217 978.083,503.217C979.551,503.216 980.085,503.159 980.819,502.922C981.956,502.555 981.659,502.817 980.047,503.601C976.874,505.145 973.591,505.799 966.394,506.322C962.482,506.606 962.097,506.827 960.609,509.63C959.165,512.353 957.855,514.006 953.86,518.144C952.439,519.616 951.346,520.893 950.807,521.711C950.346,522.412 949.942,523.058 949.91,523.146C949.832,523.364 949.857,523.395 948.585,521.484C945.354,516.627 942.647,511.169 941.046,506.285C940.921,505.902 940.793,505.579 940.698,505.394L935.269,511.101C935.597,511.454 937.596,511.802 938.712,511.663C939.144,511.609 939.906,511.416 940.406,511.235C940.906,511.053 941.326,510.918 941.338,510.933C941.351,510.949 941.567,511.435 941.818,512.014C943.176,515.144 945.534,519.37 947.799,522.732C948.521,523.804 949.112,524.759 949.112,524.854C949.112,524.949 949.02,525.288 948.907,525.608L948.701,526.19L949.696,525.431L950.019,525.843C950.196,526.069 950.474,526.412 950.635,526.605L950.928,526.956L950.845,525.833C950.768,524.783 951.189,524.787 951.831,524.707C953.107,524.547 954.365,525.007 955.463,526.034C956.6,527.097 957.014,527.911 957.084,529.214C957.128,530.035 957.075,530.367 956.779,531.108L956.421,532.006L956.767,531.585C958.442,529.546 958.899,527.793 958.165,526.216C957.668,525.15 956.574,524.052 955.548,523.592C954.808,523.26 954.553,523.216 953.613,523.259C952.718,523.299 952.378,523.388 951.647,523.771C951.161,524.026 950.738,524.209 950.707,524.178C950.587,524.058 953.826,521.236 954.442,520.924C955.082,520.599 956.469,520.288 957.061,520.337C957.287,520.355 957.598,520.063 958.288,519.182C959.146,518.088 959.213,517.951 959.213,517.304C959.213,516.643 959.272,516.533 960.29,515.267C961.434,513.845 961.564,513.81 961.589,514.914C961.607,515.736 961.687,515.802 962.666,515.802C963.159,515.802 963.563,515.838 963.563,515.881C963.563,515.924 963.01,516.584 962.335,517.347C961.174,518.657 961.077,518.734 960.546,518.742C960.032,518.75 959.928,518.821 959.314,519.592C958.477,520.641 958.413,520.802 958.783,520.92C958.943,520.971 959.274,521.18 959.517,521.385L960.131,522.066L960.95,521.161C961.683,520.352 961.77,520.192 961.77,519.651C961.77,519.095 961.865,518.933 962.924,517.696C964.193,516.212 964.248,516.209 964.281,517.619L964.295,518.216L965.199,518.216C965.696,518.216 966.133,518.266 966.171,518.327C966.209,518.389 965.65,519.036 964.929,519.765C963.705,521.003 963.574,521.096 962.954,521.162C962.356,521.225 962.221,521.312 961.595,522.03L960.899,522.828L961.128,523.334C961.927,524.962 961.559,526.788 960.04,528.721C959.701,529.153 957.16,531.93 954.393,534.894C951.626,537.859 949.313,540.41 949.253,540.564C949.193,540.719 949.066,541.192 948.97,541.616C948.875,542.041 948.422,543.43 947.963,544.703C947.504,545.976 947.039,547.397 946.93,547.86C946.557,549.438 946.708,551.199 947.347,552.711C947.416,552.876 947.286,553.002 946.839,553.202C946.509,553.35 945.765,553.822 945.185,554.25C942.382,556.322 940.424,557.343 937.394,558.313C936.393,558.633 935.434,558.951 935.263,559.019C935.077,559.093 934.92,559.09 934.871,559.012C934.743,558.804 933.004,558.312 932.398,558.312C931.785,558.312 931.074,558.57 930.434,559.026L930.012,559.327L931.109,559.953C933.688,561.422 936.95,563.918 939.572,566.428C939.756,566.604 939.935,566.773 940.101,566.929C945.229,563.615 952.666,559.99 963.712,555.11C985.864,545.325 985.029,526.907 985,526.141L985,457.141L879,457.141L879,526.141C878.971,526.839 878.368,540.068 891.568,550.054C892.236,549.074 894.958,540.179 895.73,536.357C896.327,533.398 896.587,529.22 896.244,528.072C895.996,527.243 896.904,525.593 898.059,524.77C898.291,524.605 898.51,524.499 898.546,524.534C898.581,524.57 898.484,524.877 898.33,525.216C897.943,526.069 897.965,527.06 898.39,527.973C898.578,528.378 898.773,528.709 898.823,528.709C898.872,528.709 899.086,528.586 899.297,528.436C900.528,527.559 902.524,527.325 904.014,527.882C904.449,528.045 905.215,528.459 905.716,528.802C906.695,529.472 907.204,529.551 907.276,529.044C907.3,528.878 907.153,528.552 906.943,528.302C906.736,528.056 906.605,527.818 906.651,527.772C906.698,527.725 907.215,527.765 907.802,527.86C910.551,528.303 913.126,529.665 915.493,531.927C916.462,532.853 917.924,534.64 918.514,535.62C918.689,535.91 918.884,536.115 918.947,536.076C919.158,535.945 919.51,534.7 919.51,534.082C919.51,532.929 918.697,531.198 917.561,529.933C917.299,529.642 917.126,529.363 917.175,529.314C917.224,529.264 917.818,529.487 918.495,529.808C919.171,530.13 919.823,530.393 919.944,530.393C920.532,530.393 920.405,530.191 918.208,527.623C917.015,526.23 916.881,525.885 917.756,526.465C918.184,526.748 918.808,526.843 918.808,526.624C918.808,526.558 918.647,526.266 918.45,525.977C918.254,525.687 918.125,525.417 918.164,525.378C918.204,525.338 918.529,525.38 918.886,525.47C920.098,525.775 920.414,525.392 919.565,524.647C919.287,524.402 919.09,524.172 919.127,524.135C919.164,524.097 919.491,524.142 919.854,524.233C920.417,524.375 920.545,524.366 920.734,524.177C920.936,523.976 920.935,523.924 920.72,523.597C920.702,523.569 920.683,523.541 920.663,523.514C918.219,522.26 912.867,520.638 907.485,518.475C901.935,516.474 899.409,515.172 896.76,513.177C894.583,511.536 893.206,509.788 892.408,507.647C892.035,506.644 891.961,506.227 891.903,504.795C891.845,503.37 892.055,500.79 892.23,500.79C892.256,500.79 892.593,500.858 892.978,500.94C893.774,501.111 894.256,500.952 894.256,500.52C894.256,500.376 894.344,500.226 894.45,500.185C894.667,500.102 894.732,498.736 894.525,498.609C894.46,498.568 894.441,498.357 894.485,498.14C894.548,497.825 894.487,497.685 894.18,497.444L893.797,497.142L894.272,497.236C895.177,497.414 895.637,497.701 896.366,498.539C897.181,499.475 897.766,499.764 899.634,500.15C900.843,500.399 905.421,500.655 907.865,500.61L909.478,500.58L910.839,501.176C912.089,501.724 912.295,501.772 913.364,501.766C915.015,501.758 916.576,501.555 916.728,501.331C916.798,501.226 916.819,500.778 916.773,500.334C916.708,499.707 916.732,499.528 916.881,499.528C917.184,499.528 917.658,500.044 918.032,500.781C918.371,501.45 918.391,501.464 919.274,501.617C923.996,502.44 926.754,502.489 931.084,501.829C933.294,501.492 933.355,501.444 932.347,500.853C931.999,500.65 931.715,500.449 931.715,500.408C931.715,500.265 933.43,500.528 934.357,500.815C935.517,501.173 936.148,501.777 936.274,502.65C936.392,503.471 935.916,505.229 935.262,506.388C934.024,508.583 933.804,509.328 934.17,510.1C934.345,510.467 934.472,510.692 934.61,510.778L940.497,504.59L940.014,502.659C939.532,500.735 938.932,497.451 939.043,497.346C939.064,497.326 939.302,497.214 939.572,497.098C940.014,496.906 937.89,496.884 918.457,496.872C897.31,496.859 896.833,496.853 895.962,496.58C894.454,496.107 893.355,496.28 893.612,496.95C893.688,497.147 893.668,497.155 893.481,496.999C893.331,496.875 892.853,496.823 891.984,496.836C891.282,496.847 889.679,496.885 889.644,496.92C889.609,496.955 889.656,497.213 889.749,497.493C889.841,497.774 889.884,498.036 889.844,498.076C889.754,498.166 886.046,496.49 886.001,496.339C885.972,496.241 886.643,495.914 889.1,494.829L889.924,494.465L889.576,495.88L892.057,495.88C892.872,495.88 893.571,495.827 893.61,495.763C893.65,495.699 893.401,494.747 893.058,493.647C891.836,489.739 891.559,487.044 892.143,484.762C893.164,480.767 896.645,477.623 903.397,474.658C910.027,471.538 917.801,469.366 920.785,467.786ZM921.972,551.297C922.217,550.013 924.042,546.023 925.115,544.422C925.4,543.998 925.924,543.099 926.28,542.424C926.636,541.749 927.218,540.82 927.572,540.359L928.217,539.521L927.546,539.181C927.177,538.994 926.755,538.708 926.608,538.545C926.461,538.382 926.185,538.249 925.995,538.249C925.697,538.249 925.66,538.3 925.721,538.623C925.867,539.387 925.574,539.776 924.156,540.7C922.347,541.879 922.08,542.191 921.559,543.741C921.319,544.453 921.05,545.058 920.961,545.087C920.715,545.165 920.597,544.152 920.765,543.404C920.975,542.465 921.564,540.953 922.006,540.215C922.215,539.867 922.425,539.267 922.474,538.881C922.691,537.162 924.506,530.675 925.684,527.596C926.211,526.217 926.409,525.842 926.558,525.934C926.716,526.032 926.608,526.647 925.964,529.328C925.046,533.156 924.65,535.391 924.772,535.707C924.905,536.053 925.065,535.689 925.258,534.601C925.347,534.1 925.644,532.995 925.918,532.147C926.285,531.014 926.487,529.825 926.568,528.744C926.67,527.375 926.871,526.459 927.133,526.168C927.193,526.101 927.206,526.441 927.163,526.923C927.099,527.628 927.121,527.787 927.275,527.736C927.381,527.7 927.536,527.392 927.619,527.051C927.702,526.709 927.846,526.436 927.939,526.444C928.032,526.451 928.195,526.467 928.303,526.479C928.459,526.495 928.417,526.816 928.095,528.078C927.584,530.085 927.49,532.281 927.927,532.797L928.208,533.129L928.474,532.816C928.776,532.46 929.09,530.708 929.09,529.554C929.09,528.909 929.555,526.921 929.706,526.921C929.73,526.921 929.94,526.987 930.173,527.068C930.539,527.196 930.609,527.304 930.685,527.86C930.836,528.96 930.742,530.148 930.453,531.094C930.299,531.596 930.174,532.077 930.173,532.163C930.173,532.25 930.403,532.358 930.685,532.403C930.967,532.449 931.375,532.656 931.59,532.863L931.983,533.239L932.682,532.938C933.512,532.581 933.863,532.665 934.447,533.362C934.663,533.619 934.987,533.928 935.169,534.049L935.498,534.267L934.766,534.82C933.535,535.749 930.173,539.201 928.693,541.055C926.476,543.833 924.66,546.624 922.672,550.315C922.11,551.358 921.906,551.645 921.972,551.297ZM952.731,535.597C954.206,533.759 954.716,532.126 954.251,530.728C954.072,530.191 953.761,529.788 952.823,528.875C951.482,527.57 951.045,527.389 950.203,527.788C949.706,528.024 949.581,528.198 949.182,529.2C949.059,529.509 948.712,530.172 948.41,530.673L947.86,531.585L947.997,532.567C948.073,533.108 948.318,534.149 948.541,534.882C948.973,536.294 949.252,537.846 949.252,538.825L949.252,539.418L950.62,537.97C951.373,537.174 952.322,536.106 952.731,535.597ZM922.46,523.548L933.132,512.331C932.848,510.609 932.945,510.13 933.823,508.599C934.37,507.645 934.505,507.292 934.436,506.994C934.289,506.355 933.663,505.563 932.996,505.172C932.392,504.818 932.237,504.796 929.689,504.701C926.08,504.567 924.082,504.285 920.702,503.434C918.729,502.936 918.203,502.926 915.129,503.324C912.157,503.71 911.521,503.643 906.392,502.405C900.297,500.933 898.105,500.706 894.546,501.18C893.662,501.298 893.656,501.308 893.406,503.34C892.991,506.705 894.312,509.575 897.509,512.14C899.128,513.367 901.094,514.481 903.195,515.501C904.829,516.294 906.545,517.028 908.253,517.708C908.899,517.962 909.616,518.24 910.42,518.547C915.01,520.279 919.245,521.627 921.266,522.7C921.786,522.977 922.172,523.244 922.407,523.49C922.425,523.509 922.443,523.528 922.46,523.548ZM944.531,500.35C944.504,500.331 944.467,500.314 944.425,500.297C944.236,500.218 943.666,499.754 943.157,499.265C942.649,498.777 942.155,498.407 942.06,498.443C941.796,498.544 940.364,499.006 940.186,499.048C939.977,499.096 940.245,500.777 940.776,502.748L941.101,503.956L944.531,500.35ZM922.275,468.082L921.614,468.529C921.135,468.854 919.565,469.534 917.475,470.323C915.623,471.022 912.656,472.143 910.881,472.814C903.009,475.791 899.161,477.775 896.569,480.195C894.081,482.519 893.007,485.233 893.402,488.197C893.606,489.732 893.971,491.024 894.823,493.23C895.206,494.22 895.519,495.059 895.519,495.095C895.519,495.131 895.58,495.322 895.656,495.52L895.793,495.88L919.02,495.88C938.409,495.88 942.323,495.848 942.708,495.687C942.962,495.581 943.399,495.293 943.679,495.047L944.189,494.599L944.625,494.922C944.966,495.174 945.29,495.256 946.116,495.297C946.971,495.341 947.356,495.317 947.328,495.075L945.498,493.103C945.395,493.142 945.203,493.269 945.018,493.425C944.503,493.858 944.342,493.867 944.343,493.46C944.343,493.253 944.496,493.057 944.787,492.892L945.124,492.7L922.275,468.082ZM951.005,488.978C950.707,489.947 951.202,491.092 951.687,491.345L952.087,491.553L951.76,491.9C951.48,492.199 950.113,493.074 949.927,493.074C949.892,493.074 949.88,492.689 949.899,492.219C949.918,491.749 949.97,491.328 950.014,491.284C950.202,491.096 950.071,490.277 949.798,489.929C949.634,489.722 949.466,489.587 949.423,489.629C949.381,489.672 949.358,490.102 949.374,490.584C949.396,491.287 949.338,491.558 949.084,491.952L948.767,492.443L948.677,491.25C948.595,490.175 948.527,489.741 948.318,488.97C948.274,488.808 948.331,488.725 948.486,488.725C948.656,488.725 948.73,488.113 948.654,487.936C948.596,487.801 948.464,487.186 948.361,486.569C948.17,485.429 947.802,485.325 947.369,485.24C947.145,485.196 947.144,485.224 947.348,485.619C947.47,485.854 947.569,486.348 947.57,486.719C947.571,487.549 947.796,488.4 948.054,488.546C948.217,488.638 948.214,488.732 948.035,489.146C947.842,489.591 947.812,489.61 947.711,489.35C947.649,489.192 947.403,488.754 947.163,488.375C946.843,487.871 946.727,487.521 946.727,487.062C946.727,486.446 946.723,486.44 946.446,486.691C946.168,486.942 946.166,486.936 946.166,485.871L946.166,484.797L945.471,484.128C944.924,483.6 944.756,483.331 944.68,482.856C944.627,482.524 944.435,482.034 944.252,481.765C944.07,481.496 943.921,481.234 943.921,481.181C943.921,481.051 942.792,480.026 942.649,480.026C942.586,480.026 942.505,480.075 942.468,480.134C942.374,480.286 940.705,480.335 940.223,480.2C939.835,480.091 939.846,480.08 940.574,479.85C941.859,479.444 942.926,478.272 942.936,477.256C942.941,476.686 943.193,476.925 943.348,477.648C943.432,478.038 943.5,478.487 943.5,478.647C943.5,478.943 943.756,478.958 944.377,478.697C944.718,478.553 944.684,478.775 944.269,479.385C944.075,479.671 943.953,479.964 943.997,480.036C944.042,480.108 944.442,480.42 944.737,480.42C944.892,480.42 945.82,480.164 945.608,481.071C945.616,481.153 945.606,481.238 945.584,481.338C945.502,481.711 946.082,482.482 946.461,482.566C946.955,482.674 947.237,482.809 947.451,483.475C947.702,484.257 947.938,484.518 948.503,484.518C948.629,484.518 948.732,484.521 948.814,484.531L948.84,484.561C948.941,484.676 948.996,484.776 949.018,484.867C948.986,484.939 948.938,485.025 948.875,485.127C948.591,485.929 949.49,486.128 949.465,486.418C949.515,486.831 948.937,487.358 949.207,487.936C949.686,488.957 950.615,488.5 951.005,488.978ZM946.294,483.716C946.521,483.416 946.238,483.221 946.133,483.099C946.028,482.978 945.53,482.741 945.392,482.371C945.162,481.755 944.504,481.009 944.191,481.009C943.995,481.009 944.033,481.139 944.346,481.537C944.503,481.736 944.698,482.166 944.781,482.494C944.954,483.184 945.626,483.81 946.019,483.81C946.17,483.81 946.243,483.725 946.294,483.716ZM978,436.141L886,436.141L879,443.141L879,453.141L985,453.141L985,443.141L978,436.141ZM972.243,439.427C975.407,439.427 977.976,441.945 977.976,445.046C977.976,448.148 975.407,450.666 972.243,450.666C969.08,450.666 966.511,448.148 966.511,445.046C966.511,441.945 969.08,439.427 972.243,439.427ZM935.833,439.52C938.944,439.52 941.47,441.996 941.47,445.046C941.47,448.096 938.944,450.573 935.833,450.573C932.722,450.573 930.196,448.096 930.196,445.046C930.196,441.996 932.722,439.52 935.833,439.52ZM924.745,450.543L924.745,441.016L920.716,441.016L920.716,439.58L930.644,439.58L930.644,441.016L926.615,441.016L926.615,450.543L924.745,450.543ZM942.461,450.543L942.461,439.561L946.166,439.605C950.312,439.654 950.55,439.698 951.567,440.597C953.005,441.868 952.765,444.592 951.124,445.638C950.794,445.849 950.099,446.118 949.582,446.236L948.64,446.451L952.561,450.543L950.302,450.539L946.334,446.367L944.188,446.367L944.188,450.543L942.461,450.543ZM954.547,450.543L954.547,439.567L956.162,439.567C956.162,439.567 960.043,446.045 960.072,446.071C960.1,446.097 964.017,439.567 964.017,439.567L965.625,439.567L965.625,450.543L963.903,450.543L963.826,443.169L960.805,448.192L959.366,448.191C959.366,448.191 956.554,443.493 956.457,443.378C956.318,443.212 956.273,450.543 956.273,450.543L954.547,450.543ZM913.477,450.35C911.983,449.968 910.805,449.242 910.323,448.407C910.065,447.96 910.141,447.883 911.026,447.689L911.705,447.539L912.33,448.106C913.162,448.861 914.369,449.179 915.992,449.07C918.016,448.934 919.052,448.397 919.052,447.483C919.052,446.651 918.083,446.116 915.699,445.628C913.059,445.089 912.063,444.716 911.222,443.954C910.751,443.527 910.422,442.833 910.42,442.264C910.419,441.773 911.002,440.925 911.608,440.537C912.57,439.921 913.393,439.684 914.825,439.612C916.746,439.516 918.272,439.916 919.469,440.829C919.929,441.18 920.577,442.156 920.435,442.284C920.394,442.322 920.007,442.427 919.576,442.518L918.791,442.683L918.454,442.208C918.25,441.922 917.832,441.604 917.397,441.407C916.781,441.128 916.482,441.081 915.311,441.081C913.251,441.082 912.29,441.497 912.29,442.385C912.29,443.179 913.277,443.628 916.462,444.281C918.667,444.734 920.1,445.427 920.585,446.275C920.718,446.507 920.828,447.013 920.833,447.411C920.85,448.688 920.05,449.566 918.315,450.174C917.286,450.534 914.583,450.632 913.477,450.35ZM886.877,445.164C886.739,445.179 886.391,445.242 886.423,445.069L886.423,439.561L894.048,439.561L894.048,440.868L888.149,440.868L888.149,442.792C888.916,442.478 889.796,442.299 890.73,442.299C893.723,442.299 896.153,444.135 896.153,446.397C896.153,448.659 893.723,450.495 890.73,450.495C888.404,450.495 886.418,449.386 885.648,447.831C885.452,447.436 886.958,447.022 887.072,447.227C887.245,447.542 887.509,447.823 887.826,448.063C888.568,448.623 889.598,448.951 890.73,448.951C891.861,448.951 892.891,448.623 893.633,448.063C894.207,447.629 894.609,447.058 894.609,446.397C894.609,445.736 894.207,445.165 893.633,444.731C892.891,444.17 891.861,443.842 890.73,443.842C889.88,443.842 889.088,444.027 888.431,444.357C888.38,444.383 886.961,445.174 886.877,445.164ZM972.243,441.247C974.393,441.247 976.156,442.939 976.156,445.046C976.156,447.153 974.393,448.846 972.243,448.846C970.094,448.846 968.331,447.153 968.331,445.046C968.331,442.939 970.094,441.247 972.243,441.247ZM935.833,441.31C937.947,441.31 939.68,442.974 939.68,445.046C939.68,447.118 937.947,448.783 935.833,448.783C933.72,448.783 931.986,447.118 931.986,445.046C931.986,442.974 933.72,441.31 935.833,441.31ZM900.634,440.125C902.543,440.125 904.093,441.317 904.093,442.784C904.093,444.251 902.543,445.443 900.634,445.443C898.725,445.443 897.175,444.251 897.175,442.784C897.175,441.317 898.725,440.125 900.634,440.125ZM949.76,444.635C951.007,444.017 951.12,441.975 949.943,441.349C949.495,441.111 949.15,441.076 946.813,441.038L944.188,440.995L944.188,444.952C944.188,444.952 949.377,444.825 949.76,444.635ZM900.634,441.116C901.351,441.116 902.005,441.328 902.476,441.69C902.846,441.974 903.103,442.351 903.103,442.784C903.103,443.217 902.846,443.594 902.476,443.878C902.005,444.24 901.351,444.452 900.634,444.452C899.916,444.452 899.263,444.24 898.792,443.878C898.422,443.594 898.165,443.217 898.165,442.784C898.165,442.351 898.422,441.974 898.792,441.69C899.263,441.328 899.916,441.116 900.634,441.116Z" style="fill:rgb(217,173,66);"/>
                </g>
                <g transform="matrix(1.02,0,0,1.02,-850.14,-367.62)">
                    <path d="M952.446,490.234L954.219,489.935C954.581,489.814 954.995,489.711 955.361,489.5C955.754,489.274 956.069,488.958 956.348,488.669C956.459,488.531 956.588,488.392 956.687,488.203C956.863,487.871 956.985,487.513 957.137,487.247C957.292,487.095 957.295,486.847 957.144,486.692C956.992,486.537 956.743,486.534 956.589,486.686L955.376,487.423C955.099,487.583 954.753,487.667 954.435,487.838C954.103,488.016 953.818,488.263 953.527,488.439L952.147,489.508C951.947,489.591 951.852,489.82 951.934,490.021C952.017,490.221 952.246,490.316 952.446,490.234ZM951.091,487.784L952.905,487.384C953.179,487.293 953.467,487.227 953.738,487.109C954.023,486.985 954.281,486.836 954.54,486.664C955.099,486.293 955.542,485.909 955.988,485.441C956.072,485.393 956.101,485.286 956.054,485.202C956.006,485.118 955.899,485.088 955.815,485.136C955.317,485.243 954.863,485.251 954.338,485.306C954.009,485.34 953.697,485.355 953.372,485.419C953.026,485.487 952.696,485.612 952.365,485.707C951.989,485.871 951.592,485.997 951.223,486.181C950.927,486.327 950.65,486.484 950.402,486.696C950.102,486.886 950.012,487.284 950.202,487.584C950.392,487.884 950.79,487.974 951.091,487.784ZM958.636,484.846C958.496,485.004 957.901,485.997 958.046,486.093C958.091,486.162 958.192,486.13 958.339,486.146C958.443,486.157 958.664,486.067 958.706,486.06C958.896,486.012 959.06,485.967 959.243,485.898C959.41,485.835 959.558,485.753 959.72,485.679C959.866,485.592 960.012,485.512 960.142,485.411C960.459,485.167 960.725,484.884 960.976,484.593C961.51,483.971 961.927,483.303 962.336,482.539C962.438,482.399 962.407,482.203 962.267,482.101C962.127,481.999 961.93,482.03 961.828,482.17C961.455,482.553 961.082,482.879 960.694,483.203C960.35,483.491 959.994,483.743 959.621,484.007C959.502,484.091 959.379,484.172 959.262,484.265C959.147,484.355 959.042,484.459 958.926,484.555C958.828,484.653 958.729,484.743 958.636,484.846ZM950.722,485.563L951.604,485.019C951.853,484.862 952.127,484.779 952.378,484.65C952.573,484.551 952.749,484.435 952.927,484.309C953.46,483.934 953.861,483.568 954.3,483.06C954.384,483.012 954.413,482.905 954.365,482.821C954.317,482.737 954.21,482.708 954.126,482.756C953.675,482.829 953.313,482.795 952.869,482.821C952.574,482.839 952.306,482.858 952.017,482.921C951.821,482.964 951.632,483.036 951.449,483.122C951.163,483.257 950.902,483.442 950.646,483.648C950.474,483.809 950.304,483.967 950.156,484.155C950.016,484.333 949.888,484.508 949.77,484.696C949.531,484.959 949.55,485.367 949.813,485.606C950.076,485.845 950.483,485.826 950.722,485.563ZM956.832,484.918C957.154,484.918 957.553,484.628 957.614,484.61C957.793,484.557 957.952,484.505 958.015,484.482C958.228,484.382 958.448,484.288 958.649,484.153C958.779,484.067 958.904,483.971 959.012,483.855C959.185,483.672 959.311,483.491 959.441,483.275C959.656,482.92 959.77,482.643 959.939,482.281C960.013,482.219 960.023,482.109 959.961,482.035C959.9,481.961 959.789,481.951 959.715,482.013C959.34,482.112 959.052,482.15 958.664,482.261C958.44,482.326 958.242,482.373 958.029,482.467C957.9,482.524 957.78,482.592 957.664,482.669C957.49,482.783 957.34,482.924 957.175,483.041C957.055,483.147 956.501,483.508 956.366,483.758C956.254,483.964 956.153,484.12 956.188,484.274C956.188,484.629 956.476,484.918 956.832,484.918ZM949.194,483.403C949.295,483.341 949.403,483.306 949.508,483.264C949.69,483.19 949.878,483.148 950.074,483.097C950.507,482.969 950.946,482.914 951.38,482.819C951.693,482.75 952.007,482.682 952.308,482.573C952.856,482.374 953.346,482.1 953.837,481.765C954.122,481.538 954.402,481.361 954.644,481.103C954.819,480.916 954.97,480.741 955.073,480.489C955.132,480.412 955.117,480.302 955.041,480.243C954.964,480.185 954.854,480.199 954.795,480.276C954.629,480.402 954.458,480.45 954.271,480.509C953.967,480.604 953.671,480.626 953.347,480.684C952.975,480.772 952.616,480.772 952.244,480.831C951.862,480.891 951.482,480.961 951.106,481.058C950.562,481.197 950.039,481.402 949.52,481.642C949.278,481.767 949.045,481.881 948.831,482.035C948.676,482.146 948.523,482.258 948.385,482.402C948.108,482.625 948.065,483.031 948.289,483.307C948.512,483.584 948.918,483.627 949.194,483.403ZM955.405,483.288C955.581,483.274 955.765,483.196 955.966,483.112C956.25,482.995 956.541,482.808 956.771,482.709C957.174,482.498 957.631,482.346 958.028,482.094C958.337,481.898 958.601,481.653 958.844,481.391C958.999,481.182 959.145,480.997 959.259,480.773C959.492,480.319 959.605,479.888 959.953,479.469C960.033,479.415 960.055,479.307 960.002,479.226C959.949,479.146 959.84,479.123 959.76,479.177C959.509,479.247 959.317,479.342 959.101,479.459C958.657,479.7 958.315,479.987 957.845,480.208C957.677,480.312 957.49,480.369 957.311,480.462C957.121,480.561 956.933,480.667 956.747,480.777C956.466,480.942 956.199,481.124 955.941,481.304L955.115,482.034C954.769,482.113 954.552,482.459 954.632,482.806C954.712,483.152 955.058,483.368 955.405,483.288ZM947.175,481.789C947.463,481.561 947.854,481.363 948.263,481.156C948.54,481.017 948.831,480.904 949.111,480.79C949.38,480.681 949.631,480.562 949.874,480.526C950.389,480.358 950.918,480.285 951.451,480.124C951.859,480 952.209,479.863 952.558,479.631C952.65,479.602 952.701,479.504 952.672,479.412C952.643,479.32 952.545,479.269 952.453,479.298C952.086,479.307 951.769,479.221 951.403,479.144C951.03,479.065 950.686,478.971 950.312,478.906C950.105,478.87 949.904,478.864 949.698,478.851C949.418,478.86 949.118,478.906 948.814,479.001C948.56,479.08 948.304,479.195 948.06,479.337C947.333,479.758 946.68,480.356 946.26,480.883C946.01,481.135 946.012,481.543 946.264,481.794C946.517,482.044 946.925,482.042 947.175,481.789ZM961.213,481.904C961.487,481.948 961.737,481.898 962.06,481.806C962.236,481.756 962.397,481.677 962.553,481.586C962.689,481.507 962.801,481.405 962.913,481.337C963.355,480.967 963.838,480.681 964.299,480.335C964.516,480.173 964.715,480.009 964.91,479.819C965.054,479.723 965.093,479.528 964.997,479.384C964.902,479.24 964.707,479.2 964.562,479.296C964.026,479.531 963.474,479.636 962.918,479.819C962.66,479.904 962.416,480.013 962.169,480.127C961.995,480.246 961.78,480.384 961.598,480.567C961.484,480.682 961.405,480.809 961.307,480.931C961.198,481.067 961.175,481.202 961.059,481.295C960.891,481.338 960.79,481.509 960.832,481.677C960.874,481.845 961.045,481.947 961.213,481.904ZM954.522,478.808C954.513,478.813 954.067,479.066 953.978,479.225C953.804,479.535 953.914,479.928 954.224,480.102C954.309,480.174 954.467,480.177 954.681,480.179C954.775,480.18 955.812,479.908 955.812,479.908C956.138,479.798 956.475,479.716 956.781,479.56C956.993,479.452 957.183,479.319 957.364,479.167C957.561,479.003 957.716,478.846 957.881,478.653C958.141,478.348 958.323,478.094 958.535,477.76C958.613,477.704 958.632,477.595 958.575,477.516C958.519,477.438 958.41,477.42 958.331,477.476C957.971,477.563 957.678,477.581 957.309,477.651C956.977,477.715 956.672,477.741 956.343,477.837C956.141,477.896 955.947,477.983 955.754,478.072C955.559,478.163 955.378,478.279 955.186,478.379L954.522,478.808ZM945.847,479.999C946.126,479.866 946.591,479.704 947.105,479.454C947.366,479.327 947.64,479.188 947.897,479.023C948.026,478.94 948.14,478.844 948.256,478.747C948.446,478.587 948.595,478.43 948.762,478.274C949.131,477.929 949.365,477.649 949.623,477.511C949.719,477.499 949.786,477.411 949.774,477.315C949.761,477.22 949.674,477.152 949.578,477.165C949.199,477.08 948.68,477.084 947.994,477.206C947.675,477.262 947.358,477.343 947.042,477.482C946.744,477.614 946.471,477.802 946.222,477.984C945.732,478.341 945.362,478.711 945.122,478.935C944.828,479.135 944.752,479.536 944.952,479.83C945.152,480.124 945.553,480.199 945.847,479.999ZM961.667,479.749C961.847,479.74 962.024,479.675 962.219,479.61C962.526,479.508 962.826,479.331 963.088,479.228C963.256,479.141 963.432,479.069 963.592,478.968C963.756,478.865 963.908,478.751 964.051,478.619C964.238,478.448 964.378,478.279 964.537,478.082C964.792,477.765 964.963,477.503 965.19,477.167C965.271,477.115 965.294,477.006 965.241,476.925C965.189,476.844 965.08,476.822 964.999,476.874C964.609,476.945 964.305,476.969 963.914,477.044C963.671,477.09 963.46,477.125 963.224,477.201C963.042,477.259 962.868,477.333 962.699,477.423C962.53,477.512 962.378,477.629 962.218,477.733L961.351,478.5C961.007,478.587 960.798,478.937 960.885,479.282C960.972,479.626 961.322,479.836 961.667,479.749ZM951.229,478.917C951.372,478.943 951.52,478.922 951.681,478.908C952.045,478.876 952.451,478.716 952.781,478.688C953.077,478.626 953.386,478.635 953.679,478.565C954.057,478.475 954.398,478.344 954.717,478.142C955.182,477.845 955.54,477.545 955.783,476.968C955.849,476.898 955.844,476.787 955.774,476.721C955.703,476.656 955.592,476.66 955.526,476.731C955.314,476.835 955.136,476.853 954.927,476.89C954.765,476.918 954.629,476.889 954.468,476.893C954.226,476.898 954.012,476.837 953.765,476.83C953.549,476.824 953.333,476.83 953.116,476.855C952.871,476.883 952.632,476.948 952.395,477.015C952.278,477.055 952.151,477.095 952.027,477.16C951.834,477.262 951.642,477.393 951.446,477.497C951.364,477.54 951.307,477.616 951.229,477.63C950.874,477.63 950.585,477.918 950.585,478.273C950.585,478.629 950.874,478.917 951.229,478.917ZM959.768,477.045C959.722,477.078 958.985,477.609 958.985,477.918C958.985,478.273 959.273,478.561 959.629,478.561C959.735,478.574 959.853,478.537 959.984,478.5C960.149,478.454 960.345,478.325 960.462,478.276L961.852,477.651C962.251,477.444 962.655,477.246 963.034,477.003C963.286,476.842 963.529,476.668 963.76,476.476C964.11,476.185 964.425,475.877 964.739,475.546C965.217,475.042 965.395,474.919 966.058,474.588C966.145,474.544 966.148,474.418 966.089,474.342C966.03,474.266 965.92,474.252 965.844,474.311C965.038,474.381 963.224,474.873 962.833,475.073C962.58,475.203 962.333,475.342 962.09,475.489C961.727,475.71 961.383,475.957 961.022,476.178L959.768,477.045ZM945.526,477.485C945.632,477.406 945.768,477.431 945.946,477.362C946.045,477.324 946.147,477.308 946.26,477.259C946.356,477.217 946.458,477.18 946.557,477.125C946.744,477.022 946.929,476.893 947.13,476.781C947.434,476.612 947.726,476.432 948.046,476.327C948.283,476.249 948.501,476.176 948.726,476.168C948.897,476.196 949.058,476.079 949.085,475.908C949.112,475.736 948.995,475.575 948.824,475.548C948.266,475.352 947.599,475.362 946.928,475.487C946.657,475.537 946.397,475.614 946.154,475.72C945.982,475.795 945.819,475.883 945.681,475.991C945.577,476.072 945.488,476.157 945.411,476.252C945.319,476.365 945.237,476.455 945.181,476.571C945.058,476.828 944.978,476.991 944.971,477.191C944.89,477.344 944.948,477.535 945.101,477.616C945.255,477.697 945.445,477.638 945.526,477.485ZM957.714,477.368C957.943,477.304 958.327,477.103 958.772,476.845C959.101,476.654 959.462,476.433 959.796,476.21C960.164,475.965 960.405,475.507 960.63,475.373C960.859,475.203 961.12,474.819 961.306,474.668C961.721,474.33 962.078,473.996 962.336,473.724C962.393,473.687 962.401,473.619 962.355,473.573C962.309,473.528 962.226,473.521 962.17,473.558C961.9,473.662 961.569,473.757 961.193,473.88C960.866,473.987 960.537,474.086 960.222,474.203C959.919,474.316 959.228,474.451 958.896,474.729C958.479,475.078 958.037,475.497 957.669,475.809C957.482,475.969 957.341,476.114 957.232,476.174C956.902,476.307 956.743,476.683 956.876,477.012C957.009,477.342 957.384,477.501 957.714,477.368ZM965.683,476.648C965.804,476.712 965.907,476.71 966.06,476.735C966.297,476.773 966.522,476.73 966.731,476.738C966.9,476.701 967.069,476.672 967.227,476.609C967.469,476.511 967.686,476.372 967.893,476.22C968.406,475.843 968.824,475.404 969.212,474.872C969.338,474.754 969.344,474.555 969.226,474.428C969.107,474.302 968.909,474.296 968.782,474.414C968.537,474.565 968.294,474.674 968.042,474.795C967.645,474.984 967.236,475.077 966.82,475.228C966.651,475.29 966.494,475.383 966.322,475.449C966.22,475.518 966.11,475.581 965.999,475.676C965.904,475.757 965.86,475.848 965.767,475.919C965.725,475.951 965.725,475.996 965.683,476.02C965.51,476.02 965.369,476.16 965.369,476.334C965.369,476.507 965.51,476.648 965.683,476.648ZM949.809,476.563L951.07,476.578C951.247,476.548 951.426,476.536 951.602,476.503C951.88,476.452 952.152,476.382 952.426,476.312C952.916,476.186 953.388,476.038 953.849,475.842C954.116,475.723 954.374,475.625 954.603,475.47C954.774,475.354 954.936,475.23 955.069,475.051C955.191,474.928 955.19,474.729 955.067,474.607C954.944,474.485 954.745,474.486 954.623,474.609C954.51,474.694 954.387,474.733 954.262,474.774C954.043,474.846 953.815,474.863 953.575,474.899C952.94,475.011 952.295,474.976 951.649,475.05C951.353,475.083 951.063,475.157 950.775,475.226C950.518,475.34 950.2,475.408 949.933,475.577C949.687,475.733 949.482,475.871 949.363,476.122C949.241,476.245 949.242,476.444 949.365,476.566C949.488,476.688 949.687,476.687 949.809,476.563ZM955.655,475.54C955.931,475.479 956.132,475.452 956.368,475.388C956.486,475.355 956.586,475.321 956.69,475.28C956.797,475.238 956.895,475.196 956.987,475.149C957.098,475.092 957.198,475.031 957.291,474.972C957.452,474.869 957.586,474.769 957.714,474.679C958.513,474.121 958.876,473.957 959.511,473.76C959.585,473.748 959.633,473.689 959.618,473.629C959.603,473.568 959.532,473.529 959.458,473.541C958.855,473.553 958.435,473.57 957.742,473.779C957.447,473.868 957.109,473.986 956.706,474.185C956.582,474.247 956.451,474.317 956.325,474.405C956.212,474.485 956.107,474.575 955.999,474.68C955.916,474.759 955.845,474.835 955.771,474.931C955.66,475.075 955.595,475.197 955.487,475.364C955.428,475.402 955.418,475.472 955.464,475.521C955.51,475.569 955.596,475.578 955.655,475.54Z" style="fill:rgb(216,172,66);"/>
                </g>
            </g>
        </g>
    </g>
</svg>
