<svg id="axis_tunisia_prem_tank_1" xmlns="http://www.w3.org/2000/svg" width="150" height="150" viewBox="0 0 150 150">
  <defs>
    <style>
      .cls-1 {
        fill: #181818;
      }

      .cls-1, .cls-10, .cls-11, .cls-2, .cls-3, .cls-4, .cls-5, .cls-6, .cls-7, .cls-8, .cls-9 {
        fill-rule: evenodd;
      }

      .cls-2 {
        fill: #c2913b;
      }

      .cls-3 {
        fill: #343dba;
      }

      .cls-4 {
        fill: #ec3825;
      }

      .cls-5 {
        fill: #14151f;
      }

      .cls-6 {
        fill: #b98834;
      }

      .cls-7 {
        fill: #c5c5c5;
      }

      .cls-8 {
        fill: #1c1515;
      }

      .cls-9 {
        fill: #dfdfdf;
      }

      .cls-10 {
        fill: #161010;
      }

      .cls-11 {
        fill: #ffb847;
      }
    </style>
  </defs>
  <path class="cls-1" d="M129,123.257l-0.552.617a19.7,19.7,0,0,1-7.357,4.739,43.916,43.916,0,0,1-8.722,1.665l0.921,3.786-0.089.107c-0.138.164-3.519,4.054-16.825,6.927A108.24,108.24,0,0,1,76.6,143H72.4a108.228,108.228,0,0,1-19.778-1.9c-13.307-2.873-16.688-6.763-16.826-6.927l-0.089-.107,0.921-3.786a43.914,43.914,0,0,1-8.723-1.665,19.682,19.682,0,0,1-7.357-4.739L20,123.257l0.814,0.159a58.024,58.024,0,0,0,7.723.962,67.752,67.752,0,0,1-4.857-6.242l-0.58-.972,0.965,0.595c0.062,0.037,6.268,3.839,9.3,4.687a52.263,52.263,0,0,0,5.547,1.124c1.171,0.192,2.183.358,3,.555a4.342,4.342,0,0,1,3.063,2.2,1.957,1.957,0,0,1-.374,1.888l-0.9,2.256q2.033,0.788,4.763,1.635c9.344,2.905,24.938,3.454,25.085,3.46h1.91c0.147-.006,15.742-0.555,25.085-3.46q2.73-.846,4.763-1.635l-0.9-2.256a1.957,1.957,0,0,1-.374-1.888,4.337,4.337,0,0,1,3.063-2.2c0.814-.2,1.825-0.363,3-0.555a52.354,52.354,0,0,0,5.546-1.124c3.031-.848,9.236-4.65,9.3-4.687l0.965-.595-0.579.972a67.964,67.964,0,0,1-4.858,6.242,57.98,57.98,0,0,0,7.723-.962Z"/>
  <path id="Shape_291_copy_3" data-name="Shape 291 copy 3" class="cls-2" d="M111.191,127.775a4.025,4.025,0,0,1-.487.492,19.812,19.812,0,0,1-5.2,2.71c-1.294.5-2.872,1.055-4.8,1.655-9.415,2.925-25.084,3.477-25.241,3.483H73.537c-0.158-.006-15.826-0.558-25.242-3.483-1.927-.6-3.505-1.151-4.8-1.655a19.81,19.81,0,0,1-5.2-2.71,3.992,3.992,0,0,1-.488-0.492l-1.493,6.138c0.62,0.621,4.508,4.07,16.423,6.644a107.475,107.475,0,0,0,19.648,1.891h4.226a107.451,107.451,0,0,0,19.647-1.891c11.915-2.574,15.8-6.023,16.423-6.644l-1.493-6.138m-72.559-1.648a0.545,0.545,0,0,0-.072.005,0.652,0.652,0,0,0-.445.394,0.815,0.815,0,0,0,.089.806,2.718,2.718,0,0,0,.3.354,15.255,15.255,0,0,0,4.68,2.575l0.78-1.961a10,10,0,0,1-2.412-.677c-0.4-.209-0.789-0.444-1.164-0.674a4.852,4.852,0,0,0-1.753-.822m71.76,0a4.845,4.845,0,0,0-1.752.822c-0.376.23-.763,0.465-1.164,0.674a10.007,10.007,0,0,1-2.413.677l0.78,1.961a15.263,15.263,0,0,0,4.68-2.575,2.669,2.669,0,0,0,.3-0.354,0.819,0.819,0,0,0,.089-0.806,0.656,0.656,0,0,0-.445-0.394,0.555,0.555,0,0,0-.072-0.005m-85.556-7.259c1.581,2.208,4.489,5.576,4.523,5.616l0.4,0.458H29.148a50.277,50.277,0,0,1-7.554-.818,20.074,20.074,0,0,0,6.506,3.969,44.4,44.4,0,0,0,8.662,1.64l0.741-3.045a1.308,1.308,0,0,1,.074-0.3l0.075-.17a1.17,1.17,0,0,1,.824-0.631,0.973,0.973,0,0,1,.154-0.011,4.762,4.762,0,0,1,2.046.9c0.368,0.223.747,0.455,1.131,0.654a7.389,7.389,0,0,0,1.642.5,0.885,0.885,0,0,0,.183.019,0.86,0.86,0,0,0,.83-1.1l-0.017-.048a3.855,3.855,0,0,0-2.67-1.843c-0.794-.193-1.795-0.357-2.955-0.548a52.381,52.381,0,0,1-5.607-1.136c-2.363-.661-6.445-2.973-8.377-4.112m99.352,0c-1.931,1.139-6.013,3.451-8.376,4.112a52.455,52.455,0,0,1-5.607,1.136c-1.161.191-2.163,0.355-2.956,0.548a3.86,3.86,0,0,0-2.67,1.843l-0.015.048a0.86,0.86,0,0,0,.83,1.1,0.889,0.889,0,0,0,.183-0.019,7.4,7.4,0,0,0,1.641-.5c0.383-.2.764-0.431,1.131-0.654a4.755,4.755,0,0,1,2.046-.9,0.98,0.98,0,0,1,.154.011,1.172,1.172,0,0,1,.824.631l0.075,0.17a1.328,1.328,0,0,1,.074.3l0.74,3.045a44.413,44.413,0,0,0,8.662-1.64,20.063,20.063,0,0,0,6.5-3.969,50.242,50.242,0,0,1-7.553.818H119.27l0.4-.458c0.035-.04,2.941-3.408,4.523-5.616"/>
  <path class="cls-3" d="M56.965,39.656H46.94C55.118,36.628,57.682,32.2,57.682,32.2l4.8,1.169A37.6,37.6,0,0,1,56.965,39.656ZM28.753,49.228c1.6,1.461,4.579,1.388,4.579,1.388a18.464,18.464,0,0,1-3.2,2.338,8.554,8.554,0,0,1,.8,3.288c-1.745-.8-4.87-0.95-7.632-2.192-4.1-1.845-3.634-3.653-3.634-4.165s0.727-5.115.727-5.115c0.872-1.9,6.469-2.119,6.469-2.119a60.515,60.515,0,0,0,14.083-1.31v6.776A37.758,37.758,0,0,1,28.753,49.228Z"/>
  <path class="cls-3" d="M108.99,40H41v72.232a4.451,4.451,0,0,0,4.474,4.429h23.8a6.171,6.171,0,0,1,2.861.669,5.352,5.352,0,0,1,2.805,3.6L74.969,121a5.613,5.613,0,0,1,2.888-3.677,6.173,6.173,0,0,1,2.861-.669h23.8a4.451,4.451,0,0,0,4.473-4.429V40"/>
  <path id="Shape_312_copy_2" data-name="Shape 312 copy 2" class="cls-4" d="M108.761,57.994H75.735v18.88h33.026V57.994"/>
  <path id="Shape_312_copy_3" data-name="Shape 312 copy 3" class="cls-5" d="M108.761,39.439H75.02V57.994h33.741V39.439"/>
  <path id="Shape_312_copy" data-name="Shape 312 copy" class="cls-4" d="M75.02,39.439H41.239v72.475a4.443,4.443,0,0,0,4.443,4.443H69.318a6.078,6.078,0,0,1,2.842.672c1.083,0.571,2.815,3.529,2.86,3.529,0,0,0,0,0,0V39.439"/>
  <path class="cls-2" d="M75,34.505c-13.269.182-19.472-2.627-20.132-3.449a1,1,0,0,1-.22-1.314l-0.5-1.752a2.137,2.137,0,0,1-1.43-2.463l-3.851-8.867-0.77-.548-0.77-1.478,1.651-3.175,3.135,1.094,0.66,1.752-0.055,1.259,0.825,1.478,0.935-.657,0.22,0.657,0.5-.164L55.14,15.785l0.935-.383,0.22,0.985,0.605-.274-0.055-1.095,0.88-.383L57.5,11.57l-0.825-1.04-0.5-2.518,0.99-.219,0.22,0.985,0.55-.11V7.574l0.88-.164,0.165,1.04,0.66-.164V7.136l0.99-.219L60.86,7.9l0.605-.164v-1.2l1.21-.109,1.6,1.7,0.275,2.244-0.33.821L64.6,13.76l0.5-.164V12.665h1.018l0.193,1.068,0.6-.027-0.028-1.314h1.238l0.137,1.067,0.88-.109-0.027-1.177L70.458,12.2l0.11,0.958h0.825l0.358-4.351L70.926,7.739,70.871,5.029l1.265,0.027V6.288h0.852V5l1.375,0.027,0.083,1.286,0.935-.027L75.436,5l1.4,0.055L76.866,6.4l0.852-.027V5.084l1.32,0.082,0.055,2.655-0.742.958,0.11,4.3L79.2,13.1l0.028-.684,1.292,0.027,0.055,0.931h0.852l0.11-.794,1.018,0.082L82.614,13.6l0.715,0.11,0.165-.848L84.4,12.939l-0.027.958,0.5,0.054,0.8-2.682-0.33-.958,0.055-1.889L87.51,6.4l0.907,0.328V8.012L89,8.067,89.1,6.972l0.88,0.219L90.04,8.5l0.633,0.137,0.11-1.122,1.155,0.274L91.883,8.943l0.66,0.11,0.082-.958,1.018,0.383-0.165,2.272L92.35,11.817,92.213,14.8l0.632,0.219-0.055,1.04,0.715,0.191,0.165-.684L94.66,16l-0.082.821L95.1,17.044l0.275-.767,0.88,0.52,0.385,0.137,0.605-1.588L97.026,14.2l0.688-1.451,3.218-1.177,1.788,3.175-0.688,1.943-0.825.575-3.96,8.293s0.468,1.4-.275,1.588l-1.843,2.819s0.578,1.259-1.4,2.025S85.612,34.36,75,34.505Z"/>
  <path class="cls-4" d="M56.789,30.452s6.326-2.353,17.767-2.4C88.033,28,93.478,30.888,93.478,30.888s-6.419,2.174-18.042,2.4C64.16,33.505,56.789,30.452,56.789,30.452Z"/>
  <path class="cls-5" d="M108.807,135.16a1.382,1.382,0,0,1-.7.591,1.438,1.438,0,0,1-.556.13,0.816,0.816,0,0,1-.212-0.026,0.727,0.727,0,0,1-.373-0.242l0.093,0.288a0.249,0.249,0,0,1-.152.311l-2.015.736a0.228,0.228,0,0,1-.085.015,0.241,0.241,0,0,1-.106-0.023,0.252,0.252,0,0,1-.129-0.141l-0.058-.157a0.251,0.251,0,0,1,.148-0.321,0.784,0.784,0,0,0,.117-0.05l-0.674-1.856a0.1,0.1,0,0,1-.009-0.029,0.358,0.358,0,0,0-.076.02s0,0-.007,0l0.091,0.268a0.247,0.247,0,0,1-.013.194,0.252,0.252,0,0,1-.149.126l-0.2.061a0.25,0.25,0,0,1-.3-0.137l-0.07-.158a0.242,0.242,0,0,0-.074-0.1l-0.171.057,0.582,1.866a0.09,0.09,0,0,1,.008.029,0.366,0.366,0,0,0,.078-0.015l0.086-.028a0.251,0.251,0,0,1,.315.164l0.05,0.161a0.25,0.25,0,0,1-.165.313l-1.188.37a0.26,0.26,0,0,1-.074.011,0.248,0.248,0,0,1-.116-0.028,0.256,0.256,0,0,1-.123-0.147l-0.049-.161a0.25,0.25,0,0,1,.164-0.313l0.088-.027a0.4,0.4,0,0,0,.069-0.028l-0.587-1.893-0.128.04a0.112,0.112,0,0,0-.043.127l0.031,0.169a0.249,0.249,0,0,1-.17.285l-0.2.062a0.256,0.256,0,0,1-.194-0.019,0.261,0.261,0,0,1-.06-0.075l0,0.006a0.611,0.611,0,0,1-.336.214,0.252,0.252,0,0,1-.308-0.175,0.422,0.422,0,0,0-.067-0.142,0.168,0.168,0,0,0-.077-0.062,0.2,0.2,0,0,0-.115.007,0.269,0.269,0,0,0-.165.1,0.194,0.194,0,0,0-.01.161,0.343,0.343,0,0,0,.069.141,0.3,0.3,0,0,0,.129.069,2.158,2.158,0,0,0,.361.07,1.979,1.979,0,0,1,.7.2,0.905,0.905,0,0,1,.442.58,0.971,0.971,0,0,1-.14.855,1.374,1.374,0,0,1-.773.488,1.622,1.622,0,0,1-.418.062,0.909,0.909,0,0,1-.357-0.067,0.739,0.739,0,0,1-.448-0.506,0.5,0.5,0,0,1,.047-0.4,0.539,0.539,0,0,1,.335-0.243,0.252,0.252,0,0,1,.3.164,0.726,0.726,0,0,0,.106.212,0.287,0.287,0,0,0,.124.1,0.233,0.233,0,0,0,.154,0,0.394,0.394,0,0,0,.231-0.135,0.216,0.216,0,0,0,.013-0.194,0.256,0.256,0,0,0-.058-0.116,0.355,0.355,0,0,0-.134-0.071,2.026,2.026,0,0,0-.359-0.069,1.73,1.73,0,0,1-.733-0.234,1.012,1.012,0,0,1-.422-0.611,0.9,0.9,0,0,1,.014-0.557A0.974,0.974,0,0,1,99.926,135a1.356,1.356,0,0,1,.5-0.248,1.194,1.194,0,0,1,.717-0.01,0.94,0.94,0,0,1,.11.054,0.243,0.243,0,0,1,.163-0.271l2.15-.67a0.222,0.222,0,0,1,.1.008,0.217,0.217,0,0,1,.072-0.066l1.893-.692a0.252,0.252,0,0,1,.319.143l0.258,0.65a0.251,0.251,0,0,1-.146.328l-0.195.071a0.25,0.25,0,0,1-.31-0.123l-0.078-.154a0.2,0.2,0,0,0-.072-0.082,0.492,0.492,0,0,0-.061.017l-0.4.145,0.193,0.529,0.671-.245a0.251,0.251,0,0,1,.321.149l0.068,0.184a0.255,0.255,0,0,1-.009.192,0.25,0.25,0,0,1-.14.129l-0.671.245,0.239,0.654,0.49-.179a0.18,0.18,0,0,0,.077-0.043,0.2,0.2,0,0,0,.008-0.111l-0.034-.174a0.251,0.251,0,0,1,.16-0.282l0.195-.071a0.247,0.247,0,0,1,.2.01,0.242,0.242,0,0,1,.071.081,0.459,0.459,0,0,1,.028-0.151,0.534,0.534,0,0,1,.3-0.287,0.25,0.25,0,0,1,.324.12,0.734,0.734,0,0,0,.135.2,0.282,0.282,0,0,0,.135.08,0.242,0.242,0,0,0,.154-0.025,0.393,0.393,0,0,0,.208-0.166,0.218,0.218,0,0,0-.013-0.194,0.255,0.255,0,0,0-.074-0.106,0.319,0.319,0,0,0-.145-0.053,2.087,2.087,0,0,0-.363-0.018,1.7,1.7,0,0,1-.759-0.128,1.016,1.016,0,0,1-.5-0.546,0.906,0.906,0,0,1-.065-0.554,0.976,0.976,0,0,1,.25-0.471,1.372,1.372,0,0,1,.462-0.316,1.187,1.187,0,0,1,.71-0.109,0.621,0.621,0,0,1,.484.354,0.477,0.477,0,0,1-.013.434,0.627,0.627,0,0,1-.3.259,0.255,0.255,0,0,1-.192,0,0.25,0.25,0,0,1-.137-0.134,0.458,0.458,0,0,0-.087-0.132,0.171,0.171,0,0,0-.084-0.049,0.193,0.193,0,0,0-.114.023,0.265,0.265,0,0,0-.149.123,0.191,0.191,0,0,0,.013.161,0.321,0.321,0,0,0,.087.128,0.291,0.291,0,0,0,.138.051,2.247,2.247,0,0,0,.368.019,1.858,1.858,0,0,1,.725.1,0.9,0.9,0,0,1,.519.513A0.971,0.971,0,0,1,108.807,135.16Zm-8.954,2.431a1.409,1.409,0,0,1-.361.724,1.469,1.469,0,0,1-.748.408,1.815,1.815,0,0,1-.415.051,1.333,1.333,0,0,1-.456-0.077,1.35,1.35,0,0,1-.642-0.5,2.49,2.49,0,0,1-.4-1.694,1.345,1.345,0,0,1,.358-0.725,1.525,1.525,0,0,1,.768-0.409,1.486,1.486,0,0,1,.846.029,1.4,1.4,0,0,1,.647.485A2.374,2.374,0,0,1,99.854,137.591Zm-0.956-.673a1.709,1.709,0,0,0-.331-0.746,0.353,0.353,0,0,0-.281-0.122,0.737,0.737,0,0,0-.162.021,0.413,0.413,0,0,0-.358.293,2.158,2.158,0,0,0,.368,1.558,0.411,0.411,0,0,0,.448.1,0.4,0.4,0,0,0,.353-0.291A1.718,1.718,0,0,0,98.9,136.918Zm-1.8,1.546a0.279,0.279,0,0,1,.131.155l0.031,0.166a0.25,0.25,0,0,1-.2.292l-1.144.215a0.251,0.251,0,0,1-.292-0.2l-0.031-.165a0.25,0.25,0,0,1,.2-0.292,0.735,0.735,0,0,0,.122-0.03l-0.129-.7L95,138.049l0.127,0.674c-0.005.033,0.038,0.032,0.084,0.023a0.3,0.3,0,0,1,.343.19l0.031,0.165a0.25,0.25,0,0,1-.2.292l-1.144.215a0.246,0.246,0,0,1-.292-0.2l-0.031-.165a0.25,0.25,0,0,1,.2-0.292,0.74,0.74,0,0,0,.121-0.03l-0.363-1.957a0.06,0.06,0,0,1,0-.014,0.3,0.3,0,0,0-.08.007,0.3,0.3,0,0,1-.342-0.19l-0.031-.165a0.25,0.25,0,0,1,.2-0.292l1.144-.216a0.249,0.249,0,0,1,.292.2l0.031,0.165a0.251,0.251,0,0,1-.2.293,0.631,0.631,0,0,0-.119.03l0.105,0.579,0.785-.148-0.1-.548c0.005-.033-0.034-0.034-0.084-0.023a0.324,0.324,0,0,1-.213-0.035,0.28,0.28,0,0,1-.13-0.155l-0.031-.165A0.25,0.25,0,0,1,95.3,136l1.144-.216a0.252,0.252,0,0,1,.292.2l0.031,0.165a0.25,0.25,0,0,1-.2.292,0.82,0.82,0,0,0-.122.03l0.364,1.962a0.048,0.048,0,0,1,0,.01,0.306,0.306,0,0,0,.078-0.007A0.308,0.308,0,0,1,97.1,138.464Zm-4.5-.785-0.206.028a0.242,0.242,0,0,1-.276-0.186l-0.043-.168a0.25,0.25,0,0,0-.056-0.109l-0.179.028,0.262,1.937a0.085,0.085,0,0,1,0,.03,0.326,0.326,0,0,0,.081,0l0.088-.012a0.249,0.249,0,0,1,.282.214l0.023,0.166a0.252,0.252,0,0,1-.048.186,0.255,0.255,0,0,1-.165.1l-1.233.166-0.034,0a0.249,0.249,0,0,1-.247-0.217l-0.022-.166a0.25,0.25,0,0,1,.213-0.281l0.091-.013a0.361,0.361,0,0,0,.074-0.016L90.947,137.4l-0.132.018a0.111,0.111,0,0,0-.064.117l0,0.173a0.25,0.25,0,0,1-.216.252l-0.206.027a0.258,0.258,0,0,1-.188-0.05,0.251,0.251,0,0,1-.094-0.171l-0.03-.281a0.736,0.736,0,0,0-.1.018l0.216,1.962a0.081,0.081,0,0,1,0,.031,0.306,0.306,0,0,0,.08,0,0.3,0.3,0,0,1,.328.214l0.019,0.167a0.251,0.251,0,0,1-.22.277l-1.157.131H89.154a0.249,0.249,0,0,1-.249-0.222l-0.019-.167a0.25,0.25,0,0,1,.22-0.276,0.388,0.388,0,0,0,.165-0.04l-0.259-1.944c0.008-.032-0.034-0.035-0.082-0.029a0.335,0.335,0,0,1-.21-0.05,0.713,0.713,0,0,1-.055-0.052,0.546,0.546,0,0,1,.026.123,0.491,0.491,0,0,1-.176.428,0.693,0.693,0,0,1-.395.157,0.25,0.25,0,0,1-.272-0.226,0.356,0.356,0,0,0-.043-0.14,0.189,0.189,0,0,0-.082-0.079,0.311,0.311,0,0,0-.175-0.019,0.535,0.535,0,0,0-.494.26,1.449,1.449,0,0,0-.1.8,1.384,1.384,0,0,0,.25.759,0.64,0.64,0,0,0,.585.162,1.654,1.654,0,0,0,.164-0.023l-0.04-.433a0.07,0.07,0,0,1,0-.014,0.342,0.342,0,0,0-.079,0,0.276,0.276,0,0,1-.191-0.056,0.261,0.261,0,0,1-.1-0.169l-0.015-.168a0.25,0.25,0,0,1,.226-0.271l1.035-.1a0.254,0.254,0,0,1,.272.226l0.016,0.167a0.251,0.251,0,0,1-.227.273l-0.04,0c0,0.011,0,.022,0,0.037l0.066,0.717a0.25,0.25,0,0,1-.124.239,2.186,2.186,0,0,1-.448.2,2.425,2.425,0,0,1-.517.1h0c-0.073.007-.145,0.011-0.214,0.011a1.6,1.6,0,0,1-.7-0.147,1.375,1.375,0,0,1-.61-0.571,2.108,2.108,0,0,1-.252-0.857,2,2,0,0,1,.1-0.884,1.426,1.426,0,0,1,.508-0.672,1.73,1.73,0,0,1,.876-0.3,1.579,1.579,0,0,1,.8.088,0.709,0.709,0,0,1,.3.243l-0.016-.143a0.25,0.25,0,0,1,.22-0.277l1.157-.131a0.247,0.247,0,0,1,.127.036,0.238,0.238,0,0,1,.1-0.058l2.231-.3a0.244,0.244,0,0,1,.28.207l0.114,0.691A0.249,0.249,0,0,1,92.6,137.679Zm-6.827.231,0.157,2.425a0.251,0.251,0,0,1-.233.267l-0.283.019a0.246,0.246,0,0,1-.216-0.1L84.054,139l0.067,1a0.083,0.083,0,0,1,0,.029,0.287,0.287,0,0,0,.079,0,0.3,0.3,0,0,1,.207.06,0.277,0.277,0,0,1,.111.17l0.011,0.168a0.251,0.251,0,0,1-.233.266l-1,.067H83.28a0.217,0.217,0,0,1-.059-0.023,0.281,0.281,0,0,1-.065.031l-1.1.047a0.25,0.25,0,0,1-.261-0.239l-0.007-.167a0.251,0.251,0,0,1,.238-0.261l0.092,0c0.02,0-.005.038-0.006,0.062l0.211-.161-0.231.094-0.113-.277-0.7.031-0.081.258c0,0.011-.006.021-0.009,0.03h0.1a0.237,0.237,0,0,1,.261.239l0.007,0.168a0.253,0.253,0,0,1-.066.18,0.249,0.249,0,0,1-.173.081l-0.975.043H80.327s-0.005,0-.009,0l-0.084.005a2.2,2.2,0,0,1-.358-0.022,0.706,0.706,0,0,1-.349-0.158,1.2,1.2,0,0,1-.228-0.286l-0.419-.667,0.01,0.475a0.055,0.055,0,0,1,0,.01,0.384,0.384,0,0,0,.079.006,0.365,0.365,0,0,1,.2.069,0.284,0.284,0,0,1,.1.175l0,0.168a0.25,0.25,0,0,1-.245.255l-1.164.024H77.865a0.25,0.25,0,0,1-.25-0.245l0-.168a0.251,0.251,0,0,1,.245-0.255,0.693,0.693,0,0,0,.125-0.01l-0.036-1.991a0.052,0.052,0,0,1,0-.013,0.529,0.529,0,0,0-.079-0.007,0.362,0.362,0,0,1-.093-0.015l0.009,0.283a0.25,0.25,0,0,1-.249.258H77.326a0.25,0.25,0,0,1-.248-0.221l-0.02-.172a0.175,0.175,0,0,0-.04-0.1,0.241,0.241,0,0,0-.078-0.008H76.531l0,0.656h0.714a0.25,0.25,0,0,1,.25.249v0.2a0.249,0.249,0,0,1-.25.25l-0.714,0v0.6a0.082,0.082,0,0,1,0,.03,0.378,0.378,0,0,0,.08.008h0.131a0.224,0.224,0,0,1,.177.072,0.252,0.252,0,0,1,.074.177v0.168a0.249,0.249,0,0,1-.249.25l-1.244,0h0a0.25,0.25,0,0,1-.25-0.249v-0.168a0.251,0.251,0,0,1,.073-0.177,0.487,0.487,0,0,1,.3-0.081v-1.991a0.113,0.113,0,0,1,0-.014,0.371,0.371,0,0,0-.079-0.008,0.3,0.3,0,0,1-.3-0.249v-0.168a0.251,0.251,0,0,1,.249-0.251l2.016,0h0a0.247,0.247,0,0,1,.16.064,0.239,0.239,0,0,1,.13-0.057l1.076-.022a1.516,1.516,0,0,1,.926.225,1.024,1.024,0,0,1,.258,1.261,0.955,0.955,0,0,1-.3.321l-0.049.032,0.41,0.621a0.773,0.773,0,0,0,.152.177l0.064,0.022,0.041,0a0.368,0.368,0,0,0,.064-0.153l0.783-2.412a0.251,0.251,0,0,1,.227-0.173l0.312-.014a0.25,0.25,0,0,1,.242.155l1.011,2.434a0.218,0.218,0,0,0,.031.059l0.014,0.1a0.229,0.229,0,0,1,.014-0.041,0.2,0.2,0,0,1,.035-0.017l0.01-.061a0.209,0.209,0,0,1,.065.024,0.261,0.261,0,0,1,.061-0.031,0.373,0.373,0,0,0,.166-0.033l-0.17-1.969a0.064,0.064,0,0,1,0-.014,0.5,0.5,0,0,0-.08,0,0.3,0.3,0,0,1-.318-0.229l-0.011-.168a0.251,0.251,0,0,1,.233-0.266l0.73-.049a0.245,0.245,0,0,1,.217.1l1.07,1.433-0.062-.923a0.074,0.074,0,0,1,0-.015,0.493,0.493,0,0,0-.079,0,0.294,0.294,0,0,1-.318-0.229l-0.011-.168a0.25,0.25,0,0,1,.233-0.266l1-.067a0.25,0.25,0,0,1,.266.232l0.011,0.168a0.25,0.25,0,0,1-.231.266A0.717,0.717,0,0,0,85.775,137.91Zm-6.6.407a0.412,0.412,0,0,0-.307-0.058H78.849l0.015,0.716h0.03a0.417,0.417,0,0,0,.289-0.072,0.5,0.5,0,0,0,.066-0.309A0.4,0.4,0,0,0,79.179,138.317Zm2.415,0.6-0.087.268,0.191-.009Zm-7.473,2.031h0l-2.144-.018a0.245,0.245,0,0,1-.176-0.075,0.25,0.25,0,0,1-.072-0.177V140.51a0.254,0.254,0,0,1,.262-0.248,0.822,0.822,0,0,0,.117-0.006l0.02-1.975a0.082,0.082,0,0,1,0-.03,0.578,0.578,0,0,1-.281-0.083,0.279,0.279,0,0,1-.1-0.177v-0.168a0.25,0.25,0,0,1,.25-0.249h0l2.016,0.017a0.25,0.25,0,0,1,.248.245l0.014,0.7a0.25,0.25,0,0,1-.072.181,0.208,0.208,0,0,1-.18.074l-0.208,0a0.25,0.25,0,0,1-.246-0.223l-0.019-.172a0.2,0.2,0,0,0-.039-0.1,0.266,0.266,0,0,0-.063-0.006l-0.422,0,0,0.564,0.714,0.007a0.249,0.249,0,0,1,.248.252v0.2a0.251,0.251,0,0,1-.075.177,0.35,0.35,0,0,1-.177.071l-0.714-.006-0.006.7,0.522,0,0.087-.013a0.2,0.2,0,0,0,.047-0.1l0.029-.174a0.231,0.231,0,0,1,.249-0.208l0.208,0a0.249,0.249,0,0,1,.179.079,0.246,0.246,0,0,1,.068.183l-0.034.7A0.25,0.25,0,0,1,74.121,140.948Zm-2.4-.836a1.35,1.35,0,0,1-.552.589,1.582,1.582,0,0,1-.788.187h-0.07l-1.224-.039a0.245,0.245,0,0,1-.066-0.03,0.229,0.229,0,0,1-.061.024H68.943a2.634,2.634,0,0,1-.487-0.057,0.7,0.7,0,0,1-.335-0.182,1.207,1.207,0,0,1-.207-0.3l-0.369-.7-0.026.474a0.056,0.056,0,0,1,0,.01,0.413,0.413,0,0,0,.077.012,0.314,0.314,0,0,1,.2.083,0.282,0.282,0,0,1,.09.183l-0.009.168a0.24,0.24,0,0,1-.263.236l-1.162-.063a0.25,0.25,0,0,1-.236-0.263l0.009-.168a0.248,0.248,0,0,1,.083-0.172,0.264,0.264,0,0,1,.181-0.064,1.015,1.015,0,0,0,.125,0l0.111-1.988a0.049,0.049,0,0,1,0-.014,0.354,0.354,0,0,0-.079-0.013,0.3,0.3,0,0,1-.288-0.265l0.009-.168a0.252,0.252,0,0,1,.082-0.173,0.24,0.24,0,0,1,.18-0.063l1.075,0.058a1.486,1.486,0,0,1,.907.292,1.026,1.026,0,0,1,.165,1.277,0.965,0.965,0,0,1-.318.3l-0.052.029,0.363,0.649a0.817,0.817,0,0,0,.139.19,0.084,0.084,0,0,0,.059.025,0.294,0.294,0,0,1,.07.033,0.22,0.22,0,0,1,.067-0.027,0.876,0.876,0,0,0,.125,0l0.068-1.989a0.058,0.058,0,0,1,0-.015,0.355,0.355,0,0,0-.078-0.01,0.319,0.319,0,0,1-.2-0.079,0.284,0.284,0,0,1-.094-0.181l0.005-.167a0.241,0.241,0,0,1,.258-0.242l1.223,0.038a1.486,1.486,0,0,1,1.129.488,1.739,1.739,0,0,1,.372,1.234A2.069,2.069,0,0,1,71.717,140.112Zm-3.767-1.926a0.456,0.456,0,0,0-.3-0.081H67.627l-0.039.714,0.03,0a0.425,0.425,0,0,0,.293-0.051,0.479,0.479,0,0,0,.088-0.3A0.388,0.388,0,0,0,67.95,138.186Zm2.855,0.276a0.583,0.583,0,0,0-.5-0.233l-0.1,0-0.061,1.951,0.1,0a0.572,0.572,0,0,0,.52-0.2,1.27,1.27,0,0,0,.212-0.754A1.256,1.256,0,0,0,70.805,138.462Zm-4.34.566a2.17,2.17,0,0,1-.234.86,1.371,1.371,0,0,1-1.255.748c-0.047,0-.1,0-0.144-0.006a1.509,1.509,0,0,1-.822-0.288,1.364,1.364,0,0,1-.462-0.666,2.424,2.424,0,0,1,.1-1.639,0.5,0.5,0,0,1-.149.146,0.631,0.631,0,0,1-.409.086A0.251,0.251,0,0,1,62.863,138a0.44,0.44,0,0,0-.013-0.156,0.183,0.183,0,0,0-.055-0.091,0.222,0.222,0,0,0-.123-0.039,0.434,0.434,0,0,0-.444.157,1.631,1.631,0,0,0-.236.781,1.863,1.863,0,0,0,.019.561,0.63,0.63,0,0,0,.158.325,0.472,0.472,0,0,0,.307.125,0.636,0.636,0,0,0,.333-0.032,0.687,0.687,0,0,0,.211-0.152,0.25,0.25,0,0,1,.341-0.028,0.419,0.419,0,0,1,.119.154,0.452,0.452,0,0,1,.034.229,0.557,0.557,0,0,1-.192.353,0.928,0.928,0,0,1-.4.2,1.377,1.377,0,0,1-.348.04c-0.072,0-.148,0-0.23-0.012a1.42,1.42,0,0,1-.781-0.307,1.373,1.373,0,0,1-.435-0.672,2.251,2.251,0,0,1-.069-0.882,2.119,2.119,0,0,1,.253-0.842,1.415,1.415,0,0,1,.582-0.568A1.5,1.5,0,0,1,62.752,137a1.361,1.361,0,0,1,.722.241,0.613,0.613,0,0,1,.26.559,0.492,0.492,0,0,1-.041.121,1.336,1.336,0,0,1,.548-0.564A1.526,1.526,0,0,1,65.1,137.2a1.481,1.481,0,0,1,.8.284,1.4,1.4,0,0,1,.47.659A2.148,2.148,0,0,1,66.465,139.028Zm-1.031-.882a0.4,0.4,0,0,0-.391-0.232l-0.066,0a0.389,0.389,0,0,0-.364.173,2.168,2.168,0,0,0-.122,1.6,0.408,0.408,0,0,0,.4.235h0a0.411,0.411,0,0,0,.425-0.17,1.732,1.732,0,0,0,.212-0.791A1.7,1.7,0,0,0,65.434,138.146Zm-5.193-.24a0.254,0.254,0,0,1-.188.05l-0.206-.028a0.249,0.249,0,0,1-.216-0.254l0-.173a0.258,0.258,0,0,0-.025-0.122l-0.179-.02L59.163,139.3a0.073,0.073,0,0,1-.005.029,0.366,0.366,0,0,0,.078.02l0.091,0.012a0.25,0.25,0,0,1,.213.282l-0.023.166a0.25,0.25,0,0,1-.247.216l-0.035,0L58,139.85a0.25,0.25,0,0,1-.213-0.282l0.023-.167a0.249,0.249,0,0,1,.282-0.213l0.091,0.013a0.472,0.472,0,0,0,.074,0l0.274-1.962-0.132-.018a0.111,0.111,0,0,0-.094.095l-0.043.167a0.248,0.248,0,0,1-.277.185l-0.206-.028a0.254,0.254,0,0,1-.167-0.1,0.251,0.251,0,0,1-.007-0.03,0.22,0.22,0,0,1-.015.025,0.251,0.251,0,0,1-.19.045l-0.2-.036a0.249,0.249,0,0,1-.207-0.259L57,137.115a0.2,0.2,0,0,0-.023-0.108h0a0.55,0.55,0,0,0-.061-0.015L56.5,136.92l-0.1.557,0.7,0.12a0.25,0.25,0,0,1,.2.288l-0.033.193a0.248,0.248,0,0,1-.1.162,0.254,0.254,0,0,1-.187.043l-0.7-.121-0.117.687,0.514,0.087a0.177,0.177,0,0,0,.088,0,0.19,0.19,0,0,0,.062-0.092l0.058-.169a0.246,0.246,0,0,1,.279-0.165l0.205,0.035a0.251,0.251,0,0,1,.2.3l-0.145.685a0.25,0.25,0,0,1-.244.2,0.3,0.3,0,0,1-.042,0l-2.113-.362a0.25,0.25,0,0,1-.2-0.288l0.028-.166a0.251,0.251,0,0,1,.289-0.2,0.75,0.75,0,0,0,.125.014h0l0.337-1.945c0.017-.028-0.022-0.043-0.071-0.051a0.3,0.3,0,0,1-.255-0.3l0.028-.166a0.249,0.249,0,0,1,.289-0.2l1.987,0.34a0.236,0.236,0,0,1,.173.151,0.248,0.248,0,0,1,.208-0.09l2.231,0.308a0.25,0.25,0,0,1,.214.275l-0.076.7A0.251,0.251,0,0,1,60.241,137.906ZM53.8,138.3a1.409,1.409,0,0,1-.643.489,1.33,1.33,0,0,1-.466.081,1.7,1.7,0,0,1-.385-0.046,1.5,1.5,0,0,1-.769-0.407,1.364,1.364,0,0,1-.357-0.728,2.263,2.263,0,0,1,.042-0.885,2.24,2.24,0,0,1,.348-0.812,1.342,1.342,0,0,1,.642-0.491,1.539,1.539,0,0,1,.87-0.028,1.463,1.463,0,0,1,.746.4,1.392,1.392,0,0,1,.366.721A2.371,2.371,0,0,1,53.8,138.3Zm-0.527-1.842a0.4,0.4,0,0,0-.352-0.287,0.416,0.416,0,0,0-.451.1,2.16,2.16,0,0,0-.359,1.56,0.412,0.412,0,0,0,.356.292,0.4,0.4,0,0,0,.446-0.105A2.212,2.212,0,0,0,53.276,136.457Zm-2.141.149a0.973,0.973,0,0,1-.375.227l-0.056.017,0.221,0.711a0.8,0.8,0,0,0,.1.213,0.089,0.089,0,0,0,.052.038,0.259,0.259,0,0,1,.189.308l-0.044.163a0.249,0.249,0,0,1-.242.185,0.243,0.243,0,0,1-.065-0.009,2.655,2.655,0,0,1-.463-0.155,0.7,0.7,0,0,1-.291-0.248,1.224,1.224,0,0,1-.14-0.338l-0.216-.759-0.123.459,0,0.01a0.377,0.377,0,0,0,.074.028,0.3,0.3,0,0,1,.227.319l-0.044.163a0.25,0.25,0,0,1-.117.151,0.242,0.242,0,0,1-.19.025l-1.124-.3a0.225,0.225,0,0,1-.063-0.049,0.209,0.209,0,0,1-.049.012,0.277,0.277,0,0,1-.076-0.011,2.773,2.773,0,0,1-.456-0.175,0.7,0.7,0,0,1-.281-0.261,1.185,1.185,0,0,1-.125-0.344l-0.185-.766-0.142.453a0.034,0.034,0,0,1,0,.01,0.319,0.319,0,0,0,.073.031,0.315,0.315,0,0,1,.172.131,0.278,0.278,0,0,1,.041.2l-0.05.16a0.249,0.249,0,0,1-.313.164l-1.111-.348a0.25,0.25,0,0,1-.147-0.123,0.1,0.1,0,1,0-.191-0.007,0.265,0.265,0,0,1-.087-0.015l-2.011-.744a0.25,0.25,0,0,1-.148-0.321l0.058-.158a0.249,0.249,0,0,1,.13-0.14,0.254,0.254,0,0,1,.191-0.008,0.83,0.83,0,0,0,.121.038l0.689-1.852a0.064,0.064,0,0,1,.011-0.026,0.312,0.312,0,0,0-.071-0.036,0.344,0.344,0,0,1-.072-0.041l-0.112.274a0.255,0.255,0,0,1-.138.138,0.249,0.249,0,0,1-.195,0l-0.191-.084a0.249,0.249,0,0,1-.138-0.3l0.051-.166a0.175,0.175,0,0,0,0-.107,0.432,0.432,0,0,0-.07-0.039l-0.371-.164-0.265.6,0.653,0.289a0.246,0.246,0,0,1,.132.138,0.251,0.251,0,0,1,0,.192l-0.079.179a0.248,0.248,0,0,1-.33.127l-0.653-.288-0.242.548c-0.022.023,0.011,0.046,0.056,0.066l0.121,0.053a0.25,0.25,0,0,1,.128.33l-0.068.154a0.249,0.249,0,0,1-.229.148,0.243,0.243,0,0,1-.1-0.021l-1.138-.5a0.246,0.246,0,0,1-.132-0.138,0.252,0.252,0,0,1,0-.192l0.068-.153a0.25,0.25,0,0,1,.138-0.133,0.258,0.258,0,0,1,.191,0,0.741,0.741,0,0,0,.118.044l0.808-1.82a0.043,0.043,0,0,1,.006-0.012,0.362,0.362,0,0,0-.069-0.039,0.3,0.3,0,0,1-.175-0.35l0.067-.154a0.249,0.249,0,0,1,.138-0.133,0.246,0.246,0,0,1,.192.005l1.845,0.813a0.238,0.238,0,0,1,.1.1,0.233,0.233,0,0,1,.136-0.006l1.891,0.7a0.212,0.212,0,0,0,.384.134l1.027,0.322a1.039,1.039,0,0,1,.914,1.358,0.926,0.926,0,0,1-.265.427,0.959,0.959,0,0,1-.381.211l-0.058.014,0.191,0.72a0.811,0.811,0,0,0,.087.218,0.087,0.087,0,0,0,.051.039,0.257,0.257,0,0,1,.069.057,0.242,0.242,0,0,1,.1-0.014,0.733,0.733,0,0,0,.123.026l0.52-1.921a0.05,0.05,0,0,1,0-.014,0.322,0.322,0,0,0-.075-0.028,0.315,0.315,0,0,1-.176-0.124,0.277,0.277,0,0,1-.05-0.2l0.044-.163a0.25,0.25,0,0,1,.306-0.176l1.039,0.28a1.487,1.487,0,0,1,.827.473,0.92,0.92,0,0,1,.143.844A0.934,0.934,0,0,1,51.135,136.606Zm-4.348-2.138a0.31,0.31,0,0,1-.172-0.13c-0.006-.012-0.01-0.025-0.016-0.038l-0.121.359a0.248,0.248,0,0,1-.129.145,0.252,0.252,0,0,1-.194.009l-0.195-.072a0.25,0.25,0,0,1-.156-0.294l0.041-.168a0.2,0.2,0,0,0,0-.109,0.509,0.509,0,0,0-.057-0.027L45.39,134l-0.2.528,0.67,0.248a0.252,0.252,0,0,1,.147.322l-0.068.184a0.249,0.249,0,0,1-.321.147l-0.669-.248-0.242.653,0.489,0.181a0.176,0.176,0,0,0,.087.017,0.186,0.186,0,0,0,.077-0.079l0.088-.154a0.247,0.247,0,0,1,.3-0.111l0.195,0.072a0.249,0.249,0,0,1,.145.33l-0.128.309a0.248,0.248,0,0,1,.166-0.016,0.677,0.677,0,0,0,.123.031l0.6-1.9a0.039,0.039,0,0,1,.005-0.013A0.445,0.445,0,0,0,46.788,134.468Zm1.223,0.477a0.455,0.455,0,0,0-.272-0.153l-0.021-.007-0.214.683,0.029,0.009a0.414,0.414,0,0,0,.3.024,0.516,0.516,0,0,0,.161-0.272A0.393,0.393,0,0,0,48.01,134.945Zm2.48,0.71a0.46,0.46,0,0,0-.278-0.141l-0.021-.006-0.186.691,0.029,0.008a0.423,0.423,0,0,0,.3.011,0.478,0.478,0,0,0,.149-0.279A0.391,0.391,0,0,0,50.491,135.655Z"/>
  <path class="cls-6" d="M98.093,102.478a1.532,1.532,0,0,1-1.4-.308c-0.137-.131-0.259.059-0.32,0.147s-0.97,2.636-1.235,3.042a1.449,1.449,0,0,1-.7.5l-0.732-1.55v-1.96l0.823-.527,0.046,1.434,0.214-.015s0.778-2.34,2-2.516a1.687,1.687,0,0,1,1.829.878A0.767,0.767,0,0,1,98.093,102.478Zm-0.7-9.065a1.3,1.3,0,0,1-1.191-.261c-0.116-.112-0.22.05-0.272,0.124s-0.824,2.239-1.049,2.584a1.232,1.232,0,0,1-.6.422l-0.622-1.317V93.3l0.7-.447L94.4,94.071l0.181-.012s0.66-1.988,1.7-2.137a1.432,1.432,0,0,1,1.554.745A0.651,0.651,0,0,1,97.394,93.413ZM96.765,85.9a1.12,1.12,0,0,1-1-.212c-0.1-.091-0.185.04-0.228,0.1s-0.693,1.819-.882,2.1a1.039,1.039,0,0,1-.5.343l-0.522-1.07V85.814l0.588-.363,0.032,0.989,0.152-.01s0.555-1.615,1.426-1.737a1.212,1.212,0,0,1,1.306.606A0.525,0.525,0,0,1,96.765,85.9ZM93.4,85.518a9.58,9.58,0,0,0-.889-0.447,0.944,0.944,0,0,1,.846-0.738h0.184a0.943,0.943,0,0,1,.845.738,9.594,9.594,0,0,0-.889.447H93.4Zm-0.717-.068,0.588,0.363v1.353l-0.522,1.07a1.039,1.039,0,0,1-.5-0.343c-0.189-.281-0.838-2.039-0.882-2.1s-0.13-.192-0.228-0.1a1.12,1.12,0,0,1-1,.212,0.525,0.525,0,0,1-.37-0.606,1.212,1.212,0,0,1,1.306-.606C91.946,84.815,92.5,86.43,92.5,86.43l0.152,0.01Zm-2.062,6.471c1.036,0.149,1.7,2.137,1.7,2.137L92.5,94.071l0.039-1.217,0.7,0.447v1.665l-0.622,1.317a1.232,1.232,0,0,1-.6-0.422c-0.225-.345-1-2.509-1.049-2.584s-0.155-.236-0.272-0.124a1.3,1.3,0,0,1-1.191.261,0.651,0.651,0,0,1-.44-0.745A1.433,1.433,0,0,1,90.624,91.922Zm-0.5,8.8c1.22,0.176,2,2.516,2,2.516l0.213,0.015,0.046-1.434,0.823,0.527v1.96l-0.732,1.55a1.449,1.449,0,0,1-.7-0.5c-0.265-.406-1.174-2.954-1.235-3.042s-0.183-.278-0.32-0.147a1.532,1.532,0,0,1-1.4.308,0.767,0.767,0,0,1-.518-0.878A1.687,1.687,0,0,1,90.122,100.722ZM92.843,106l0.617-1.522,0.6,1.522h-1.22Zm1.929-4.71a13.389,13.389,0,0,0-1.25.629H93.384a13.389,13.389,0,0,0-1.25-.629,1.327,1.327,0,0,1,1.189-1.039h0.259A1.328,1.328,0,0,1,94.771,101.293ZM92.843,99.8V97.782h1.22V99.8h-1.22Zm1.623-2.769a0.337,0.337,0,0,1-.343.328H92.782a0.329,0.329,0,1,1,0-.657h1.341A0.337,0.337,0,0,1,94.466,97.032Zm-1.623-.683,0.647-1.2,0.573,1.2h-1.22Zm1.791-3.927a12.1,12.1,0,0,0-1.12.564H93.391a12.1,12.1,0,0,0-1.12-.564,1.189,1.189,0,0,1,1.066-.93h0.232A1.189,1.189,0,0,1,94.634,92.422Zm-0.572-1.251h-1.22V89.445h1.22v1.726Zm-0.634-3.627,0.634,0.7h-1.22Zm0.915,1.317a0.3,0.3,0,0,1-.3.289h-1.18a0.289,0.289,0,1,1,0-.578h1.18A0.3,0.3,0,0,1,94.343,88.86Zm-1.608,17.552h1.433a0.351,0.351,0,1,1,0,.7H92.736A0.351,0.351,0,1,1,92.736,106.412Zm1.327,4.232-1.22-.624v-2.613h1.22v3.237Z"/>
  <path class="cls-6" d="M57.327,40.089H55.189a32.58,32.58,0,0,0,6.376-6.7L63.109,33.6A34.329,34.329,0,0,1,57.327,40.089Zm-6.745,0h-3.42a25.639,25.639,0,0,0,10.77-7.466l0.8,0.419S56.586,36.972,50.583,40.089ZM29.442,49.7c0.692,1.2,4.006,1.42,4.006,1.42L32.319,52.18c-3.933-.619-5.171-2.477-5.171-2.477a13.035,13.035,0,0,0-5.9.728c0.218,1.42,3.2,3.351,5.171,3.751s4.625,1.238,4.625,1.238,0.546,1.275.255,1.056-4.662-1.056-7.138-1.857a7.316,7.316,0,0,1-4.115-3.132,6.183,6.183,0,0,1,.109-1.821c1.311-1.967,9.906-1.785,13.475-1.857a35.639,35.639,0,0,0,7.739-.953v1.592A44.96,44.96,0,0,1,29.442,49.7ZM20.274,46.48L20.383,44.9a8.157,8.157,0,0,1,4.37-1.675c2.562-.362,9.217.123,16.225-1.392V43.25A90.485,90.485,0,0,1,28.2,44.623C26.884,44.732,22.678,44.568,20.274,46.48Z"/>
  <path id="Shape_308_copy" data-name="Shape 308 copy" class="cls-7" d="M57.327,40.089H55.189a32.58,32.58,0,0,0,6.376-6.7L63.109,33.6A34.329,34.329,0,0,1,57.327,40.089Zm-6.745,0h-3.42a25.639,25.639,0,0,0,10.77-7.466l0.8,0.419S56.586,36.972,50.583,40.089ZM29.442,49.7c0.692,1.2,4.006,1.42,4.006,1.42L32.319,52.18c-3.933-.619-5.171-2.477-5.171-2.477a13.035,13.035,0,0,0-5.9.728c0.218,1.42,3.2,3.351,5.171,3.751s4.625,1.238,4.625,1.238,0.546,1.275.255,1.056-4.662-1.056-7.138-1.857a7.316,7.316,0,0,1-4.115-3.132,6.183,6.183,0,0,1,.109-1.821c1.311-1.967,9.906-1.785,13.475-1.857a35.639,35.639,0,0,0,7.739-.953v1.592A44.96,44.96,0,0,1,29.442,49.7ZM20.274,46.48L20.383,44.9a8.157,8.157,0,0,1,4.37-1.675c2.562-.362,9.217.123,16.225-1.392V43.25A90.485,90.485,0,0,1,28.2,44.623C26.884,44.732,22.678,44.568,20.274,46.48Z"/>
  <path class="cls-8" d="M109.274,41.985l-0.01,0v6.2l0.008,0V48.76l-0.008,0V55.5l0.005,0h0v0.651l-0.007,0V62.9l0.006,0V63.5l-0.005,0v7.193h0v0.651h0v6.752h0v0.591h0v7.3h0v0.651h0V89.11l0,21.442,0,0v1.828a4.989,4.989,0,0,1-4.516,4.952s-0.017.016-.021,0.02l-14.7.024-0.015.006H80.627a5.54,5.54,0,0,0-2.581.607,5.066,5.066,0,0,0-2.584,3.319,0.557,0.557,0,0,1-.517.434H74.918a0.559,0.559,0,0,1-.53-0.382l-0.027-.082a0.506,0.506,0,0,1-.015-0.052,4.773,4.773,0,0,0-2.5-3.238,5.54,5.54,0,0,0-2.581-.607H58.9l-9.758.012H46c-0.183-.008-0.645-0.032-0.979-0.071l0,0a4.991,4.991,0,0,1-4.394-4.94v-0.962l0.008-.008L40.64,54.641l-0.014,0V48.73A40.7,40.7,0,0,1,29.838,49.8a8.658,8.658,0,0,0,3.58.756,0.266,0.266,0,0,1,.263.169,0.28,0.28,0,0,1-.059.307,17.492,17.492,0,0,1-3.015,2.229,9.91,9.91,0,0,1,.692,3.165,0.279,0.279,0,0,1-.395.271,15.431,15.431,0,0,0-2.972-.821,23.224,23.224,0,0,1-4.674-1.363,6.961,6.961,0,0,1-3.477-2.667l-0.03.008a0.848,0.848,0,0,1-.017-0.1,2.749,2.749,0,0,1-.29-1.525c0-.049.006-0.092,0.006-0.127,0-.517.657-4.671,0.732-5.143a0.28,0.28,0,0,1,.022-0.073c0.919-1.992,6.134-2.251,6.752-2.274a61.335,61.335,0,0,0,13.669-1.228V39.91a0.558,0.558,0,0,1,.558-0.558h6.534c6.049-2.4,8.782-5.529,9.59-6.614A6.951,6.951,0,0,1,54.733,31.4a1.346,1.346,0,0,1-.3-1.529l-0.419-1.49a2.408,2.408,0,0,1-.829-0.527,0.333,0.333,0,0,1-.262-0.315,2.315,2.315,0,0,1-.319-0.69,0.369,0.369,0,0,1-.223-0.338,1.793,1.793,0,0,1,.144-0.7c0-.023.005-0.048,0.008-0.07l-3.67-8.494a0.331,0.331,0,0,1-.09-0.207l-0.756-.54-0.862-1.663,1.817-3.512,3.466,1.216,0.721,1.924L53.1,15.7l0.63,1.134,0.982-.693,0.249,0.747,0.026-.008L54.935,15.8l1.418-.584,0.216,0.971,0.115-.052-0.055-1.1,0.78-.342-0.175-2.9-0.742-.94L55.935,8.011l1.522-.338,0.22,0.989,0.054-.011v-1.1l1.384-.26,0.161,1.021,0.148-.037V7.127L60.9,6.8l0.215,0.97,0.113-.031V6.495L62.5,6.379A0.331,0.331,0,0,1,62.686,6.3a0.336,0.336,0,0,1,.352.282L64.558,8.21l0.293,2.4-0.283.708a0.337,0.337,0,0,1-.027.214l0.291,1.959v-0.9h1.524l0.189,1.054,0.084,0L66.6,12.316h1.76l0.133,1.033,0.348-.043-0.028-1.214,1.874,0.038L70.8,13.08h0.236L71.38,9.03l-0.755-.981L70.563,4.962,72.384,5V6.224h0.288V4.935l1.907,0.038L74.66,6.244l0.4-.012,0.055-1.3,1.934,0.076,0.027,1.319,0.294-.009V5l1.864,0.116,0.062,3-0.678.879,0.163,4.008,0.075,0,0.027-.679L80.7,12.376,80.753,13.3h0.34l0.112-.813,1.516,0.123,0.056,0.945L83,13.589l0.161-.831,1.414,0.129-0.022.771a0.341,0.341,0,0,1,.068-0.044l0.6-2.044a0.333,0.333,0,0,1,0-.18l-0.284-.828,0.059-2.049,2.055-1.974a0.331,0.331,0,0,1,.6-0.123l0.91,0.331V7.971l0.044,0,0.114-1.138L90.1,7.185l0.054,1.3,0.111,0.024,0.11-1.126,1.684,0.4L92.007,8.919l0.112,0.019,0.088-1.023L93.758,8.5l-0.187,2.582-1.056,1-0.108,1.1L92.333,14.8l0.629,0.219-0.054,1.022L93.123,16.1l0.175-.73,1.475,0.655-0.082.815,0.057,0.024,0.288-.806,1.038,0.617a0.336,0.336,0,0,1,.244-0.044l0.01,0,0.385-1.015c0-.005,0-0.009-0.006-0.014a0.331,0.331,0,0,1,.025-0.189l-0.2-1.058,0.77-1.633,3.134-1.152a0.33,0.33,0,0,1,.34-0.125l0.053-.02,0.022,0.04a0.337,0.337,0,0,1,.187.333l1.745,3.114-0.755,2.143-0.744.521a0.332,0.332,0,0,1-.117.155,0.185,0.185,0,0,1-.021.01l-3.806,8.009a2.177,2.177,0,0,1-.009,1.447,0.764,0.764,0,0,1-.381.348l-1.7,2.61a1.051,1.051,0,0,1,.042.28c0,0.007,0,.014,0,0.022a1.516,1.516,0,0,1-.109.667,2.512,2.512,0,0,1-1.536,1.283,16.053,16.053,0,0,1-3.84,1.058,99.683,99.683,0,0,1-10,1.285c-0.566.035-1.142,0.068-1.745,0.094l0.009,0.029c-0.2.012-.382,0.02-0.573,0.03l-0.01-.032c-0.818.031-1.66,0.056-2.545,0.068q-0.608.008-1.2,0.008c-0.275,0-.531-0.008-0.8-0.011l0,0.008c-4.1-.117-7.936-0.521-7.936-0.521v0c-0.6-.077-1.187-0.157-1.736-0.246a53.63,53.63,0,0,1-4.757,5.166h2.522l-0.013.016,41.808,0-0.016-.019h5.885a0.558,0.558,0,0,1,.558.558v1.5l0.01,0v0.569ZM23.487,54a22.782,22.782,0,0,0,4.563,1.327,20.532,20.532,0,0,1,2.654.682A6.8,6.8,0,0,0,30,53.334a0.279,0.279,0,0,1,.085-0.41,20.793,20.793,0,0,0,2.648-1.831,7.265,7.265,0,0,1-3.948-1.323c-2.112-.038-6.286-0.03-7.465.584a1.534,1.534,0,0,0-1.032,1.236A6.445,6.445,0,0,0,23.487,54ZM40.626,41.959a61.806,61.806,0,0,1-13.673,1.217c-1.5.059-5.52,0.518-6.224,1.917-0.291,1.837-.718,4.66-0.718,5.015,0,0.045,0,.1-0.007.161a2.688,2.688,0,0,0,0,.473,2.738,2.738,0,0,1,1.051-.881c1.279-.667,5.454-0.689,7.639-0.651,0.05-.029,1.313.035,1.351,0.037v0a40.22,40.22,0,0,0,10.577-1.093v-6.2ZM52.9,25.2a5.576,5.576,0,0,1,1.73-1.286l-3.983-8.3L49.43,17.156ZM47.781,14.835l0.667,1.287,0.6,0.427,1.279-1.62-1.247-2.6ZM52,12.979l-2.238-.785,1.173,2.444,1.636,0.347,0.019-.434Zm1.3,4.329a0.326,0.326,0,0,1,0-.094L52.538,15.83l0.008-.171a0.344,0.344,0,0,1-.069,0l-1.167-.248,2.843,5.925Zm3.9-1.912,0.054,1.09-1.087.494-0.221-1-0.44.181,0.055,1.107-0.957.319-0.188-.564-0.418.3,1.313,6.261a19.744,19.744,0,0,1,2.578-.9,0.2,0.2,0,0,1-.005-0.02l-0.445-7.376ZM62.388,6.95L61.785,7v1.16l-1.089.3-0.222-1-0.492.109V8.716l-1.163.291L58.653,7.951l-0.364.068v1.09l-1.039.208-0.217-.978-0.445.1,0.427,2.179L57.636,11.4l4.631-1.323,0.263-.962Zm1.638,1.508L63.1,7.47,63.21,9.131a0.334,0.334,0,0,1-.011.111l-0.261.956,1.185,0.727,0.156-.389Zm0.29,5.362-0.324-2.18-0.927-.568,1.45,6.04-0.233-3.126A0.332,0.332,0,0,1,64.317,13.82Zm0.52,7.54L62.3,10.779l-4.369,1.248L58.56,22.51c0.877-.224,1.823-0.427,2.823-0.607l-0.7-3.756a0.8,0.8,0,0,1,.4-0.712l0.215-.04a0.8,0.8,0,0,1,.625.523l0.7,3.777c0.721-.112,1.464-0.214,2.226-0.305C64.845,21.379,64.839,21.371,64.836,21.36ZM70.3,13.639l-0.11-.961-0.8-.016L69.412,13.8l-1.4.175-0.141-1.1h-0.7l0.027,1.3-1.117.051-0.193-1.076h-0.5V14l-0.417.139L65.5,21.256a0.34,0.34,0,0,1-.007.059c1.568-.173,3.2-0.3,4.861-0.383l0.626-7.292H70.3ZM71.043,20.9c1.07-.045,2.147-0.071,3.219-0.078V16.965a0.8,0.8,0,0,1,.519-0.628H75a0.8,0.8,0,0,1,.519.628v3.858c0.968,0.008,1.938.03,2.9,0.069l-0.3-7.345H78.114l-0.015-.6L77.951,9.33l-5.918.025Zm7.69-12.959L78.686,5.646,77.928,5.6V6.856l-1.4.045L76.5,5.543,75.649,5.51,75.6,6.775l-1.458.043-0.083-1.3L73.23,5.5V6.783H71.825V5.548l-0.692-.015L71.18,7.854l0.633,0.823,6.374-.026ZM84,13.4l-0.388-.035-0.167.863-1.2-.184-0.053-.912-0.506-.041-0.106.772H80.227l-0.055-.934-0.752-.016-0.027.687L78.8,13.573l0.3,7.35c1.787,0.085,3.549.223,5.231,0.413l0.1-6.939-0.459-.051ZM85.116,13.9s0,0.006,0,.009l-0.064,4.551,1.64-7.166-0.941.455Zm0.43-5.146-0.05,1.72,0.19,0.553,1.148-.555L86.788,9.441a0.387,0.387,0,0,1,0-.044l0.175-2ZM85.072,21.424c0.74,0.092,1.462.193,2.162,0.305l0.707-3.812a0.8,0.8,0,0,1,.625-0.523l0.215,0.04a0.8,0.8,0,0,1,.4.712l-0.7,3.8c0.82,0.152,1.6.319,2.338,0.5l1-10.169L87.434,11.1Zm7.958-10.6,0.141-1.952L92.7,8.7l-0.076.889-1.2-.2,0.056-1.164-0.611-.145L90.762,9.192l-1.145-.249L89.561,7.625,89.2,7.536,89.1,8.584,88,8.478V7.136l-0.317-.115L87.468,9.434l0.043,0.986,4.643,1.243Zm2.3,6.059-0.258.724L94.095,17.2l0.082-.824-0.492-.219-0.152.636-1.206-.325,0.056-1.054-0.189-.066-0.717,7.269a19.734,19.734,0,0,1,3.044,1.06L95.856,17.2Zm1.272,0.6L96.5,17.445,95.71,21.264l2.743-5.639-1.23.231Zm1.105-4.312-0.6,1.262,0.138,0.725,1.569-.3,1.244-2.558Zm3.851,3.533,0.611-1.736-1.417-2.528-1.172,2.409a0.344,0.344,0,0,1,.06.065l1.452,2.116Zm-0.937.839L99.249,15.54l-4.108,8.445a4.913,4.913,0,0,1,1.748,1.42Zm-3.99,9.519,0.064-.017a0.207,0.207,0,0,0,.142-0.111,0.466,0.466,0,0,0,.024-0.064,0.367,0.367,0,0,1-.347-0.365c0-2.34-8.912-4.948-21.7-4.948s-21.7,2.607-21.7,4.948a0.346,0.346,0,0,1-.01.05,1.933,1.933,0,0,0,.048.19C54.824,24.046,65.1,22.6,74.817,22.6,84.91,22.6,95.6,24.16,96.636,27.064Zm-0.493.706a0.337,0.337,0,0,1-.1-0.243c0-2.01-8.715-4.25-21.221-4.25-12.4,0-21.075,2.2-21.214,4.2a1.922,1.922,0,0,0,.726.421l0.14,0.047,0.416,1.478c2.272-2.05,11.333-3.145,19.933-3.145,8.866,0,18.222,1.164,20.123,3.339ZM94.157,31.2a1.043,1.043,0,0,0,.536-0.762c0-1.683-8.162-3.559-19.875-3.559s-19.875,1.876-19.875,3.559a1.043,1.043,0,0,0,.536.762c0.123-2.131,10.019-3.28,19.339-3.28S94.034,29.072,94.157,31.2ZM66.728,33.676l0.034-.081,3.54,0.279,1.192,0.073Q73.1,34,74.817,34c2.116,0,4.108-.064,5.965-0.174L83.7,33.6l0,0.006c4.879-.463,8.451-1.276,10.049-2.15a0.256,0.256,0,0,1-.114-0.21c0-1.144-6.7-2.8-18.823-2.8s-18.823,1.655-18.823,2.8a0.257,0.257,0,0,1-.114.21,10.564,10.564,0,0,0,2,.776,0.253,0.253,0,0,1,.084.011c0.006,0,.006.012,0.012,0.016A47.3,47.3,0,0,0,66.728,33.676Zm-4.687.294a33.743,33.743,0,0,1-4.178-1.039c-0.668.961-3.085,3.947-8.671,6.42H57.27A37.139,37.139,0,0,0,62.041,33.971Zm46.107,6.5H41.742v71.917a3.889,3.889,0,0,0,3.885,3.885H69.262a6.662,6.662,0,0,1,3.1.736,6.037,6.037,0,0,1,2.563,2.567,6.344,6.344,0,0,1,2.6-2.567,6.663,6.663,0,0,1,3.1-.736h23.636a3.89,3.89,0,0,0,3.885-3.885V40.468Zm-19.383-25.5,0.411-2.342a0.51,0.51,0,0,1,.416-0.3l0.148,0.026a0.51,0.51,0,0,1,.288.426l-0.411,2.342ZM74.8,10.055h0.181a0.59,0.59,0,0,1,.429.393v2.529H74.371V10.448A0.59,0.59,0,0,1,74.8,10.055ZM59.834,12.774a0.509,0.509,0,0,1,.288-0.426l0.148-.026a0.51,0.51,0,0,1,.416.3L61.1,14.966l-0.852.15Z"/>
  <path id="Shape_313_copy" data-name="Shape 313 copy" class="cls-9" d="M74.3,84.1c-0.13-1.044-.652-2.772-1.467-3.294a2,2,0,0,0-1.728-.13,13.86,13.86,0,0,0-2.315-2.413c-0.946-.62-5.217-3.489-5.576-3.75a6.408,6.408,0,0,1-1.3-2.087,3.8,3.8,0,0,1,.1-1.435,2.977,2.977,0,0,1,.391-0.359s1.924,0.946,2.446,1.109a0.746,0.746,0,0,0,.815-0.228A22.44,22.44,0,0,0,66.374,69a14.426,14.426,0,0,1,.2-1.5,6.483,6.483,0,0,0,.391-1.272,3.168,3.168,0,0,0-.652-1.826,14.49,14.49,0,0,1-1.043-1.467,2.305,2.305,0,0,1-.065-0.554l0.456-.587a3.376,3.376,0,0,1,.62-0.326,1.873,1.873,0,0,0,.489-0.294,2.367,2.367,0,0,0,.848,0,2.747,2.747,0,0,0,.815-0.913,4.382,4.382,0,0,0,.228-0.88,2.507,2.507,0,0,0-.2-0.489s0.033-.587.033-0.685a1.6,1.6,0,0,0-.587-0.848c-0.391-.293-0.456-0.522-0.62-0.62s-1.174-.13-1.272-0.2a1.939,1.939,0,0,0-1.239-.13,10.72,10.72,0,0,0-.881,1.174s-0.228.783-.293,0.946-0.489.456-.619,0.685a3.719,3.719,0,0,0-.2.978c-0.033.2-.261,0.2-0.163,0.489s0.392,0.685.392,0.783a0.424,0.424,0,0,1-.294.359,1.856,1.856,0,0,1-.783-0.261,5.5,5.5,0,0,0-1.565-.065,5.072,5.072,0,0,0-1.663.62s-0.945.1-1.3,0.163a6.878,6.878,0,0,0-1.435.913L55.548,63s-4.663-2.8-4.793-3.033a20,20,0,0,0-1.565-1.7,0.543,0.543,0,0,0-.75,0,5.563,5.563,0,0,0-.685,1.206,3.134,3.134,0,0,0,.816.685c0.261,0.065,1.011.293,1.011,0.293s0.88,1.043,1.37,1.565A22.427,22.427,0,0,0,53.918,64.6a10.665,10.665,0,0,1,1.272.848,0.9,0.9,0,0,0,.587.1c0.2-.1,2.25-0.685,2.25-0.685l0.032,0.62s0.1,0.228-.326.359a0.817,0.817,0,0,0-.489.652s-0.326-.1-0.326.13a1.6,1.6,0,0,0,.163.554l-0.62.293a5.857,5.857,0,0,0-1.826,1.826,6.434,6.434,0,0,1-.489,1.206,12.725,12.725,0,0,1-1.076-.978A4.185,4.185,0,0,0,51.5,68.444a2.741,2.741,0,0,0-1.467.391,1.911,1.911,0,0,0-.88.293,3.966,3.966,0,0,0-.913,1.6c-0.065.522-.685,2.9-0.75,3.065a0.774,0.774,0,0,1-.293.293,4.676,4.676,0,0,0-1.174.1,3.254,3.254,0,0,0-1.37,1.141,10.385,10.385,0,0,0-.489,1.793c-0.032.326-.326,2.315-0.359,2.478s-0.163,1.3-.228,1.533a7.258,7.258,0,0,0-.033,1.141,4.991,4.991,0,0,1,.489.62,5.506,5.506,0,0,0,.391.88,0.545,0.545,0,0,0,.782-0.1c0.228-.293.848-1.467,0.848-1.467s-0.946-.424-1.141-0.489c0,0,.554-3.554.652-3.717s0.293-1.206.424-1.37a0.418,0.418,0,0,1,.359-0.13,2.656,2.656,0,0,1,.261.652,8.869,8.869,0,0,0-.13.978,2.9,2.9,0,0,0,.717,1.5,2.761,2.761,0,0,0,.913-0.522,2.606,2.606,0,0,0,.489-1.272,1.115,1.115,0,0,0-.228-0.424,0.77,0.77,0,0,1-.652-0.2,0.516,0.516,0,0,1,.163-0.522,1.551,1.551,0,0,1,.522-0.033,22.658,22.658,0,0,0,5.739-.2,27.406,27.406,0,0,0,6.163,6.065,2.556,2.556,0,0,0-.456,1.3,36.107,36.107,0,0,0,.685,4.043,2.76,2.76,0,0,1-.359,2.152,4.939,4.939,0,0,1-1.631.946c-0.717.2-3.913,0.913-4.109,0.913a5.529,5.529,0,0,0-1.337.782c-0.13.13-1.141,1.043-1.011,1.239a2.592,2.592,0,0,0,1.761.457,3.323,3.323,0,0,0,1.337-.489c0.033-.13.131-0.783,0.131-0.783s5.413-1.174,5.641-1.207a4.044,4.044,0,0,0,1.957-1.011,13,13,0,0,0,.293-2.87,2.015,2.015,0,0,1,.066-0.946,0.726,0.726,0,0,1,.359-0.163,7.14,7.14,0,0,0,1.043,2.348,8.583,8.583,0,0,1,1.207,2.446,6.7,6.7,0,0,1-.065,1.63A3.167,3.167,0,0,1,65.3,94.5c-0.163.228-2.413,1.957-2.511,2.022A3.344,3.344,0,0,0,62,97.629a6.037,6.037,0,0,0-.261,1.239,0.575,0.575,0,0,0,.261.587,3.716,3.716,0,0,0,1.3-.489,3.237,3.237,0,0,0,.783-0.848,3.833,3.833,0,0,0-.1-0.75,5.606,5.606,0,0,1,.13-0.587,43.237,43.237,0,0,0,3.718-2.543c0.489-.522.88-0.685,0.815-1.109s-0.652-2.087-.75-2.935a2.647,2.647,0,0,1,.2-1.859,12.921,12.921,0,0,0,1.533-1.891A19.94,19.94,0,0,0,70.744,83.9c0.13-.62.391-1.891,0.424-2.087a0.427,0.427,0,0,1,.326-0.457,1.584,1.584,0,0,1,.946,1.109,7.074,7.074,0,0,1,.261,2.511c-0.13.359-.359,1.174-0.359,1.174a2.12,2.12,0,0,0,.489-0.294,2.373,2.373,0,0,1-.2.88c-0.131.326-.554,2.152-0.783,2.837a3.91,3.91,0,0,0-.2,1.956c0.13,0.424.2,0.652,0.2,0.652a12.314,12.314,0,0,1,.359-1.565c0.131-.261.326-0.359,0.293-0.065a14.639,14.639,0,0,0-.065,2.413c0.1,0.391.652,1.794,0.75,1.989s0.424,0.652.424,0.652,0.032-1.989.163-2.967A16.96,16.96,0,0,0,74,90.52c0-.587-0.032-1.6-0.032-1.6l0.294-.75A38.416,38.416,0,0,0,74.3,84.1Zm-25.63-9.815s0.946-2.38,1.076-2.641a2.8,2.8,0,0,1,1.239-1.011,1.488,1.488,0,0,1,.783.391c0.13,0.163,1.4,2.478,1.4,2.478Z"/>
  <path id="Shape_313_copy_3" data-name="Shape 313 copy 3" class="cls-8" d="M70.161,82.85a7.756,7.756,0,0,1-1.625,3.8c-0.169.211-.436-0.059-0.344-0.265a15.657,15.657,0,0,0,1.51-3.439,4.322,4.322,0,0,0-.009-1.654A3.424,3.424,0,0,0,69,79.659a0.047,0.047,0,0,1,.066-0.066,3.451,3.451,0,0,1,.963,1.445A4.44,4.44,0,0,1,70.161,82.85Zm-2.155-22.5a0.388,0.388,0,0,1-.2.221,0.17,0.17,0,0,1-.188-0.077A0.324,0.324,0,0,1,67.6,60.31c0-.009,0-0.024,0-0.039s0,0,0,0a0.223,0.223,0,0,1-.013-0.081c0-.04.007-0.081,0.008-0.122a0.857,0.857,0,0,0,0-.095c-0.008-.041-0.018-0.081-0.028-0.122a0.591,0.591,0,0,1-.01-0.084c0,0.007,0,0,0,.007,0-.025-0.01-0.049-0.017-0.073a0.184,0.184,0,0,1,.307-0.179,0.845,0.845,0,0,1,.076.08,0.6,0.6,0,0,1,.06.08,0.588,0.588,0,0,1,.037.09,1.1,1.1,0,0,1,.054.263,0.734,0.734,0,0,1,0,.116,0.488,0.488,0,0,1-.013.1A0.391,0.391,0,0,1,68.006,60.347Zm-0.677-.9a0.249,0.249,0,0,1-.114-0.1,0.238,0.238,0,0,1-.024-0.184c0.02-.049.035-0.1,0.05-0.151a0.621,0.621,0,0,0,.018-0.07,0.039,0.039,0,1,0,0-.013c0-.009,0-0.017,0-0.018a0.7,0.7,0,0,0,0-.072c0-.008-0.006-0.044,0-0.017l0-.015a0.66,0.66,0,0,0-.018-0.07c0-.007-0.007-0.018-0.01-0.027s-0.021-.041-0.033-0.061l-0.016-.024a0.083,0.083,0,1,1-.009-0.013,0.162,0.162,0,0,0-.034-0.046l-0.012-.016,0,0L67.1,58.525c-0.017-.017-0.035-0.033-0.052-0.049s-0.009-.006,0,0l-0.03-.021c-0.019-.012-0.037-0.023-0.056-0.033l-0.02-.01a0.074,0.074,0,0,1-.021-0.008,0.154,0.154,0,0,1-.109-0.167,0.152,0.152,0,0,1,.15-0.132,0.8,0.8,0,0,1,.659.384,0.845,0.845,0,0,1,0,.863A0.241,0.241,0,0,1,67.329,59.451Zm-0.441.28a0.162,0.162,0,0,1-.07.093c-0.03.022-.059,0.044-0.091,0.063l-0.034.047a0.05,0.05,0,0,1-.028.009c-0.009.01-.02,0.018-0.028,0.029a0.621,0.621,0,0,0-.057.1,0.523,0.523,0,0,0-.017.052,0.243,0.243,0,0,1-.025.071,0.363,0.363,0,0,1-.043.053,0.145,0.145,0,0,1-.227-0.029,0.3,0.3,0,0,1-.028-0.066,0.232,0.232,0,0,1,0-.113,0.529,0.529,0,0,1,.023-0.079,0.742,0.742,0,0,1,.09-0.179,0.733,0.733,0,0,1,.137-0.151,0.81,0.81,0,0,1,.1-0.069l0.033-.018a0.188,0.188,0,0,1,.188,0A0.175,0.175,0,0,1,66.888,59.731ZM66.28,84.1l0.007,0.026,0,0.007L66.3,84.2a0.1,0.1,0,0,1,0,.012l-0.006.05,0,0.027a0.559,0.559,0,0,1-.011.079,0.161,0.161,0,0,1-.038.073,0.1,0.1,0,0,1-.038.038,0.108,0.108,0,0,1-.047.028,0.106,0.106,0,0,1-.054.015,0.161,0.161,0,0,1-.085,0L65.964,84.5l-0.043-.034-0.034-.043a0.413,0.413,0,0,1-.023-0.045l-0.022-.043a0.361,0.361,0,0,1-.027-0.065,0.474,0.474,0,0,1-.009-0.075c0-.008,0-0.016,0-0.024s0-.035,0-0.053A0.237,0.237,0,0,1,65.83,84l0.037-.048a0.178,0.178,0,0,1,.077-0.049A0.117,0.117,0,0,1,66,83.882a0.181,0.181,0,0,1,.1,0l0.057,0.024a0.182,0.182,0,0,1,.067.061,0.177,0.177,0,0,1,.043.081ZM65.845,59.334a0.674,0.674,0,0,1-.024.063,0.117,0.117,0,0,1-.16.042l-0.02-.016a0.439,0.439,0,0,1-.109-0.068,0.638,0.638,0,0,1-.05-0.04c-0.011-.011-0.023-0.021-0.036-0.031a0.676,0.676,0,0,1-.073-0.053L65.344,59.2a0.648,0.648,0,0,0-.107-0.063L65.2,59.129a0.28,0.28,0,0,1-.1-0.047l-0.045-.036,0.043,0.033a0.266,0.266,0,0,1-.1-0.092,0.193,0.193,0,0,1,.074-0.262,0.464,0.464,0,0,1,.05-0.022,0.314,0.314,0,0,1,.115-0.032,0.545,0.545,0,0,1,.074.01l0.048,0.009a0.621,0.621,0,0,1,.084.026,0.862,0.862,0,0,1,.206.108,0.613,0.613,0,0,1,.08.064,0.521,0.521,0,0,1,.057.078,0.618,0.618,0,0,1,.041.077,0.406,0.406,0,0,1,.034.088c0.005,0.028.009,0.058,0.011,0.087a0.375,0.375,0,0,1,0,.044,0.2,0.2,0,0,1-.093.157ZM65.2,59.328a0.454,0.454,0,0,1,.053.207,0.831,0.831,0,0,1-.012.122,0.2,0.2,0,0,1-.014.044,0.288,0.288,0,0,1-.017.041l0.006-.012,0,0.015a0.106,0.106,0,0,1-.09.078,0.11,0.11,0,0,1-.108-0.052l-0.09-.128A0.2,0.2,0,0,1,64.6,59.52a0.339,0.339,0,0,1,.022-0.245,0.335,0.335,0,0,1,.048-0.069,0.322,0.322,0,0,1,.314-0.092A0.3,0.3,0,0,1,65.2,59.328Zm-1.363,1.353-0.06-.057a0.7,0.7,0,0,1-.06-0.052c-0.018-.019-0.036-0.038-0.055-0.057a1.187,1.187,0,0,0-.115-0.1c-0.045-.033-0.084-0.071-0.128-0.1s0-.065.034-0.059a0.627,0.627,0,0,1,.166.055,1.249,1.249,0,0,1,.141.087c0.026,0.019.051,0.038,0.076,0.058a0.441,0.441,0,0,1,.065.076c0.016,0.021.032,0.041,0.046,0.064a0.149,0.149,0,0,1,.017.093,0.035,0.035,0,0,1-.045.034A0.175,0.175,0,0,1,63.836,60.682ZM62.324,89.426a2.974,2.974,0,0,1-.466.685,2.025,2.025,0,0,1-.648.49c-0.1.046-.223-0.079-0.128-0.166a2.953,2.953,0,0,0,.49-0.545,2.055,2.055,0,0,0,.289-0.64,2.672,2.672,0,0,0,.11-0.679,3.167,3.167,0,0,1,0-.412,0.561,0.561,0,0,1,.1-0.353,0.188,0.188,0,0,1,.187-0.049,0.534,0.534,0,0,1,.268.385,1.027,1.027,0,0,1,.019.429A2.642,2.642,0,0,1,62.324,89.426ZM61.15,64.8c-0.059.084-.114,0.169-0.17,0.254a2.457,2.457,0,0,1-.36.466,0.082,0.082,0,0,0,0,.012,0.113,0.113,0,0,1,.012.054,0.6,0.6,0,0,1,0,.067c0,0.092-.015.182-0.011,0.274s0,0.182.015,0.271a0.961,0.961,0,0,1,.025.13c0,0.022-.006.041-0.006,0.062s0,0.04,0,.061a0.051,0.051,0,0,1-.076.044,0.645,0.645,0,0,1-.126-0.1,0.627,0.627,0,0,1-.073-0.13,0.869,0.869,0,0,1-.091-0.331,1.144,1.144,0,0,1,.022-0.189,0.827,0.827,0,0,1-.214.095,0.41,0.41,0,0,1-.306-0.032,0.694,0.694,0,0,1-.2-0.137,0.1,0.1,0,0,1,.123-0.159,0.19,0.19,0,0,0,.171,0,1.15,1.15,0,0,0,.2-0.062,2.582,2.582,0,0,0,.352-0.285c0.141-.111.287-0.215,0.43-0.324,0.071-.055.137-0.115,0.2-0.176a0.368,0.368,0,0,1,.182-0.125,0.02,0.02,0,0,1,.025.019A0.451,0.451,0,0,1,61.15,64.8Zm-3.789,4.5-0.015.031a0.114,0.114,0,0,1,0,.036,0.2,0.2,0,0,1-.05.084l-0.035.038-0.07.076a0.193,0.193,0,0,1-.084.049l-0.051.007a0.194,0.194,0,0,1-.135-0.056,0.2,0.2,0,0,1,0-.271l0.077-.068,0.038-.034a0.2,0.2,0,0,1,.084-0.049,0.122,0.122,0,0,1,.041,0l0.027-.013a0.1,0.1,0,0,1,.048-0.015,0.1,0.1,0,0,1,.051,0,0.155,0.155,0,0,1,.057.033,0.1,0.1,0,0,1,.027.041,0.066,0.066,0,0,1,.009.032,0.1,0.1,0,0,1,0,.052Zm-0.79-.717a0.489,0.489,0,0,1-.051.105,3.047,3.047,0,0,1-.185.262,0.159,0.159,0,0,1-.2.064,0.155,0.155,0,0,1-.09-0.184,3.3,3.3,0,0,1,.127-0.335,0.464,0.464,0,0,1,.064-0.1l0.048-.056a0.759,0.759,0,0,1,.127-0.131,0.143,0.143,0,0,1,.213.122,0.8,0.8,0,0,1-.041.184C56.583,68.532,56.578,68.556,56.571,68.58ZM56.15,69.806a0.134,0.134,0,0,1,.073.01,0.141,0.141,0,0,1,.087.128c0,0.008,0,.016,0,0.024a0.225,0.225,0,0,1,.014.128q-0.012.054-.029,0.108a0.433,0.433,0,0,1-.045.1c-0.01.015-.019,0.03-0.03,0.044a1.443,1.443,0,0,1-.181.213,0.246,0.246,0,0,1-.163.067,0.232,0.232,0,0,1-.163-0.067,0.231,0.231,0,0,1,0-.326,1.131,1.131,0,0,0,.1-0.115c0.021-.031.042-0.062,0.065-0.091s0.063-.072.092-0.109a0.2,0.2,0,0,1,.015-0.02,0.189,0.189,0,0,1,.048-0.017l0.034-.04A0.128,0.128,0,0,1,56.15,69.806Zm-0.1,4.257a0.416,0.416,0,0,1,.234-0.02,0.169,0.169,0,0,1,.123.162c-0.014.467-.7,0.35-0.958,0.19a4.361,4.361,0,0,1-.894-0.891,15.333,15.333,0,0,1-1.588-2.166c-0.04-.067.057-0.117,0.1-0.059A20.244,20.244,0,0,0,54.6,73.084c0.265,0.274.535,0.549,0.825,0.8a0.811,0.811,0,0,0,.421.222A0.414,0.414,0,0,0,56.046,74.063ZM49.524,59.769a0.285,0.285,0,0,1-.113.034,0.39,0.39,0,0,1-.163-0.048L49.3,59.779a0.852,0.852,0,0,0-.084-0.03l-0.043-.011a0.518,0.518,0,0,1-.085-0.033l0.052,0.022a0.657,0.657,0,0,0-.129-0.039,0.791,0.791,0,0,0-.118,0,0.145,0.145,0,0,1-.073-0.269,1.125,1.125,0,0,1,.329-0.109,0.327,0.327,0,0,1,.093-0.007l0.089,0.012a0.791,0.791,0,0,1,.078.016,0.326,0.326,0,0,1,.162.082,0.3,0.3,0,0,1,.069.139,0.2,0.2,0,0,1-.019.142A0.185,0.185,0,0,1,49.524,59.769ZM65.658,85.4a1.447,1.447,0,0,1,.191-0.448A0.083,0.083,0,0,1,66,85a3.07,3.07,0,0,1-.012.484c-0.018.152-.029,0.305-0.035,0.458-0.007.195,0.008,0.389,0.016,0.584a0.5,0.5,0,0,1,.127-0.1,0.115,0.115,0,0,1,.17.1,0.833,0.833,0,0,1,0,.152c-0.008.041-.022,0.081-0.031,0.122-0.017.084-.044,0.164-0.056,0.248a0.431,0.431,0,0,1-.007.052,0.236,0.236,0,0,1-.114.141l0.061-.061-0.021.043c-0.006.013-.008,0.019,0,0a0.221,0.221,0,0,1-.019.04,0.117,0.117,0,0,1-.027.015,5.675,5.675,0,0,0,.392,1.419c0.106,0.24-.244.452-0.358,0.209a5.57,5.57,0,0,1-.543-1.977,5.2,5.2,0,0,1,.028-1.022C65.592,85.738,65.621,85.57,65.658,85.4Zm1.711,7.986a1.68,1.68,0,0,0,.114-0.784c-0.012-.139-0.024-0.276-0.031-0.416a1.245,1.245,0,0,1,.013-0.174c0-.026-0.018-0.112-0.018-0.158a0.087,0.087,0,0,1,.147-0.061,1.461,1.461,0,0,1,.137,1.746,2.034,2.034,0,0,1-.518.66,1.856,1.856,0,0,1-.743.353c-0.1.024-.164-0.119-0.069-0.164A2.017,2.017,0,0,0,67.368,93.39Z"/>
  <path id="Shape_313_copy_2" data-name="Shape 313 copy 2" class="cls-10" d="M74.225,82.42a2.98,2.98,0,0,0-1.513-1.936,1.981,1.981,0,0,0-1.424-.069c-1.233-1.922-3.278-2.986-5.156-4.168a16.147,16.147,0,0,1-2.8-2.106A3.55,3.55,0,0,1,62.3,72.518a2.753,2.753,0,0,1-.06-1.079c0.018-.114.053-0.218,0.077-0.32l0.012-.011-0.011.006c0-.005,0-0.011,0-0.016a0.32,0.32,0,0,0,.072-0.052l0.018-.03a0.7,0.7,0,0,0,.037-0.064l0.062-.131s0,0,0,0c0.029,0.017.054,0.038,0.083,0.055,0.417,0.237.851,0.449,1.277,0.67a3.968,3.968,0,0,0,1.176.469,0.223,0.223,0,0,0,.213-0.078,0.246,0.246,0,0,0,.143.015,1.327,1.327,0,0,0,.683-0.94,7.683,7.683,0,0,0,.455-1.271,7.217,7.217,0,0,0,.184-1.429,4.585,4.585,0,0,1,.34-1.542,2.17,2.17,0,0,0-.408-2.248c-0.255-.338-0.554-0.641-0.793-0.991a2.709,2.709,0,0,1-.336-0.631,2.382,2.382,0,0,0-.186-0.494,0.283,0.283,0,0,0,.044-0.032,0.236,0.236,0,0,0,.033-0.073s0.005,0,.007,0c0.019-.03.034-0.066,0.054-0.092a0.647,0.647,0,0,1,.179-0.157,1.321,1.321,0,0,1,.118-0.065,0.527,0.527,0,0,0,.061-0.028c0.017-.012.016-0.008,0.017-0.007a0.189,0.189,0,0,0,.08,0,0.438,0.438,0,0,0,.095-0.027l0.147-.054a1.6,1.6,0,0,0,.573-0.33,0.969,0.969,0,0,0,.2-0.276,0.745,0.745,0,0,0,.267.154,0.813,0.813,0,0,0,.4.006,1.252,1.252,0,0,0,.674-0.445,2.014,2.014,0,0,0,.361-0.744,2.25,2.25,0,0,0,.049-0.316,0.54,0.54,0,0,0,.2-0.538,0.86,0.86,0,0,0-.283-0.531,1.283,1.283,0,0,0-.1-1.063,1.157,1.157,0,0,0-.447-0.437,0.768,0.768,0,0,1-.339-0.213c-0.06-.1-0.058-0.239-0.109-0.345a0.645,0.645,0,0,0-.566-0.358c-0.118-.009-0.236,0-0.354,0a1.428,1.428,0,0,1-.4-0.088,1.464,1.464,0,0,0-.458-0.064,0.267,0.267,0,0,0-.072-0.111,0.463,0.463,0,0,0-.324-0.144,1.384,1.384,0,0,0-.181.011,1.5,1.5,0,0,0-.391.1,2.172,2.172,0,0,0-.684.44,1.786,1.786,0,0,0-.54,1.1,0.7,0.7,0,0,0-.3.472L63.2,58.71s0,0,0,0a0.931,0.931,0,0,0-.118.063,0.821,0.821,0,0,0-.176.167c-0.034.047-.064,0.1-0.093,0.148a0.874,0.874,0,0,0-.128.4,0.545,0.545,0,0,0,.023.307,1.161,1.161,0,0,1-.006.169c0,0.052,0,.1,0,0.157a1.683,1.683,0,0,0-.167.293,1.047,1.047,0,0,0-.037.788,0.763,0.763,0,0,0,.235.3c-0.014.009-.027,0.02-0.042,0.029-0.054.033-.113,0.059-0.166,0.094a0.585,0.585,0,0,0-.2.188l0.014-.027-0.018.018-0.027.027a0.228,0.228,0,0,0-.078.121l0.034-.059q-0.032.037-.065,0.071a0.071,0.071,0,0,0,.031.117l0.09,0.032a0.4,0.4,0,0,0,.133.036l0.035,0a0.129,0.129,0,0,0,.025.007,0.2,0.2,0,0,0,.052,0,0.744,0.744,0,0,0,.341-0.111,2.247,2.247,0,0,0,.245-0.178,0.638,0.638,0,0,0,.106-0.1,0.19,0.19,0,0,0,.008-0.033,1.75,1.75,0,0,0,.33.051,0.961,0.961,0,0,0,.263-0.019,0.387,0.387,0,0,0,.108-0.04,0.364,0.364,0,0,0,.081-0.094,0.1,0.1,0,0,0,0-.138,0.348,0.348,0,0,0-.156-0.112,1,1,0,0,0-.226-0.018,1.274,1.274,0,0,1-.375-0.051,0.506,0.506,0,0,1-.343-0.375,0.049,0.049,0,0,1,0-.039c0-.026,0-0.053,0-0.079,0-.054,0-0.107,0-0.161a2.587,2.587,0,0,0,.027-0.328c0-.106-0.02-0.212-0.017-0.318a1.165,1.165,0,0,0-.015-0.125,0.182,0.182,0,0,1,.025-0.052l-0.03.012a0.025,0.025,0,0,1,0,0,0.517,0.517,0,0,0,.174-0.176c0.03-.041.063-0.08,0.093-0.12l0.058,0.125,0.039,0.084a0.4,0.4,0,0,0,.02.04,0.222,0.222,0,0,0,.076.067,0.116,0.116,0,0,0,.118,0,0.119,0.119,0,0,0,.058-0.1,0.21,0.21,0,0,0-.006-0.076,0.361,0.361,0,0,0-.032-0.066l-0.045-.081-0.091-.165a0.12,0.12,0,0,0-.07-0.053c0.011-.024.022-0.049,0.034-0.073a0.253,0.253,0,0,0,.229-0.054l0.056-.051,0.011-.007,0.022-.007,0.066-.018,0.035-.015,0.032-.013c0.039-.016.078-0.032,0.116-0.049a0.7,0.7,0,0,0,.123-0.071,0.619,0.619,0,0,0,.136-0.138,0.333,0.333,0,0,0,.216-0.227,0.857,0.857,0,0,0-.006-0.366,0.567,0.567,0,0,0-.162-0.273c0-.05,0-0.1,0-0.148,0-.026,0-0.051.005-0.077,0-.011,0-0.012,0-0.015a0.05,0.05,0,0,0,0-.011,1.854,1.854,0,0,1,.074-0.272,0.6,0.6,0,0,1,.063-0.086,0.656,0.656,0,0,1,.137-0.1l0.051,0a1.19,1.19,0,0,0,.209-0.019s0,0,.006,0a0.607,0.607,0,0,0,.073-0.008l0.026,0.009c0.039,0.011.078,0.021,0.117,0.034s-0.025-.015,0,0,0.033,0.017.049,0.026l0.047,0.029a0.013,0.013,0,0,0,.009,0,0.482,0.482,0,0,1,.074.07,0.388,0.388,0,0,0,.044.05c-0.025-.016-0.031-0.042,0,0a0.783,0.783,0,0,1,.057.108,0.33,0.33,0,0,0,.374.152A0.554,0.554,0,0,0,66,57.223a0.642,0.642,0,0,0-.177-0.481,0.677,0.677,0,0,0-.076-0.058,0.463,0.463,0,0,1,.175,0,5,5,0,0,0,.611.194c0.193,0.021.389-.039,0.58-0.01a0.624,0.624,0,0,1,.317.338,5.391,5.391,0,0,1,.794.658,0.914,0.914,0,0,1-.009.936,0.211,0.211,0,0,0,.074.282,0.319,0.319,0,0,1,.124.195,0.17,0.17,0,0,0-.1.1,2.089,2.089,0,0,0-.03.371,2.35,2.35,0,0,1-.047.323,1.709,1.709,0,0,1-.265.593,0.975,0.975,0,0,1-.411.351,1.124,1.124,0,0,1-.272.068A0.643,0.643,0,0,1,67,61.067a0.945,0.945,0,0,0,.037-0.14,0.235,0.235,0,0,0-.015-0.084s0.011,0,.016-0.007a0.709,0.709,0,0,0,.155-0.2,0.718,0.718,0,0,0,.056-0.553,0.241,0.241,0,0,0-.163-0.164,0.233,0.233,0,0,0-.228.06,0.339,0.339,0,0,0-.093.227,0.3,0.3,0,0,0,.034.141,0.161,0.161,0,0,0,.021.016,0.513,0.513,0,0,1-.02.076,0.57,0.57,0,0,1-.048.082l-0.056.063c-0.012.013-.025,0.025-0.038,0.037l-0.019.013a0.171,0.171,0,0,0-.05.063,0.284,0.284,0,0,0-.144.232c0,0.006,0,.012,0,0.017s-0.012.049-.013,0.053a0.031,0.031,0,0,0,0,.008l0,0c-0.009.016-.017,0.032-0.026,0.048s-0.043.069-.021,0.035-0.014.016-.02,0.023a1.033,1.033,0,0,1-.1.094l-0.005,0-0.008.005-0.061.042c-0.04.026-.082,0.05-0.124,0.073-0.088.047-.18,0.086-0.269,0.132a0.257,0.257,0,0,0-.114.1v0a0.632,0.632,0,0,0-.106.063,1.411,1.411,0,0,0-.231.183,1.1,1.1,0,0,0-.152.2,0.862,0.862,0,0,0-.272.1q-0.138.069-.275,0.141-0.265.139-.525,0.289c-0.168.1-.328,0.2-0.487,0.318a1.833,1.833,0,0,0-.447.412,0.1,0.1,0,0,0,.115.149,2.238,2.238,0,0,0,.529-0.225c0.171-.091.343-0.18,0.513-0.274s0.34-.185.513-0.272l0.2-.1a1.866,1.866,0,0,0,.535,1.459c0.282,0.363.614,0.687,0.862,1.076a1.449,1.449,0,0,1,.072,1.62,12.924,12.924,0,0,0-.587,2.686,9.217,9.217,0,0,1-.53,1.409,2.312,2.312,0,0,0-.3.753h0a5.235,5.235,0,0,1-2.364-1.087,14.571,14.571,0,0,1-1.824-1.633,4.233,4.233,0,0,0-1.755-1.126c-0.388-.109-0.792-0.16-1.172-0.3a2.092,2.092,0,0,1-.91-0.694c0.01-.018.02-0.031,0.031-0.047a1.464,1.464,0,0,1,.413.178c0.23,0.158.463-.231,0.22-0.377a0.31,0.31,0,0,1-.11-0.124l0.009-.254a0.257,0.257,0,0,1,.311-0.065,0.466,0.466,0,0,0,.13.032,0.228,0.228,0,0,0,.213-0.286c0.07,0.081.136,0.169,0.175,0.211,0.1,0.111.209,0.217,0.319,0.319a4.555,4.555,0,0,0,.59.429c0.469,0.313.919,0.65,1.4,0.951a8.091,8.091,0,0,0,2.953,1.136,0.817,0.817,0,0,0,.283.424A0.29,0.29,0,0,0,64.447,69a1.412,1.412,0,0,0-.168-0.446,1.924,1.924,0,0,1-.113-0.345,1.634,1.634,0,0,1,.014-0.782c0.072-.28.242-0.508,0.335-0.778a0.89,0.89,0,0,0,.063-0.415c-0.017-.1-0.14-0.271-0.261-0.2a0.552,0.552,0,0,0-.186.345,4.1,4.1,0,0,1-.2.377,2.4,2.4,0,0,0-.288.808,2.926,2.926,0,0,0-.019.648,8.1,8.1,0,0,1-3.939-1.684c-0.275-.252-0.524-0.538-0.791-0.8a1.593,1.593,0,0,0-.563-0.428c0.014-.135.025-0.276,0.048-0.4,0,0,.008,0,0.01-0.009a0.2,0.2,0,0,0,.028-0.137,4.1,4.1,0,0,1,.131-0.43c0.124-.333.349-0.616,0.48-0.944a0.051,0.051,0,0,0-.062-0.062,1.513,1.513,0,0,0-.871.832,2.132,2.132,0,0,0-.139.4c-0.058.019-.115,0.04-0.174,0.063l-0.085.032,0.081-2.28a2.715,2.715,0,0,1,1.144.043,0.23,0.23,0,0,0,.275-0.274c0.062-.032.122-0.067,0.182-0.1,0.12-.061.242-0.121,0.367-0.173a2.9,2.9,0,0,1,.819-0.217,2.441,2.441,0,0,1,.709.043,2.17,2.17,0,0,1,.354.1,1.74,1.74,0,0,0,.347.155,0.251,0.251,0,0,0,.279-0.363,1.238,1.238,0,0,0-.768-0.476,2.215,2.215,0,0,0-.924-0.021,3.458,3.458,0,0,0-.9.3c-0.157.072-.311,0.15-0.462,0.235a1.387,1.387,0,0,0-.421.292,0.2,0.2,0,0,0-.008.02,3.249,3.249,0,0,0-.979.069l0.285-8.074a3.467,3.467,0,0,0,.779-1.251,0.279,0.279,0,0,0-.464-0.27,7.876,7.876,0,0,1-2.352,1.813,22.992,22.992,0,0,1-3.226,1.136,12.214,12.214,0,0,0-4.019,2.184l-1.252-1.24,0.377-.4-2.446-1.272,1.467,2.315,0.332-.354L48.494,57.8c-0.071.063-.143,0.124-0.213,0.19-0.007,0-.013,0-0.021-0.006a0.479,0.479,0,0,0-.2.021,0.532,0.532,0,0,0-.212.114,0.654,0.654,0,0,0-.173.313,0.089,0.089,0,0,0,0,.035,0.489,0.489,0,0,0-.419.33,0.237,0.237,0,0,0,.038.2l-0.034.038a0.243,0.243,0,0,0-.039.082,10.4,10.4,0,0,0-1.968,3.747c-0.546,1.991-.386,4.147-1.559,5.936-0.15.229,0.21,0.432,0.364,0.213,0.076-.108.135-0.222,0.2-0.334l12.6-2.187a0.328,0.328,0,0,0-.011.2,0.176,0.176,0,0,0-.073.178,0.943,0.943,0,0,0,.113.27,0.246,0.246,0,0,0-.189-0.016,3.152,3.152,0,0,0-.952.555,5.267,5.267,0,0,0-.822.773A4.587,4.587,0,0,0,54,70.214c-0.279-.335-0.529-0.7-0.818-1.022a2.59,2.59,0,0,0-1.8-1,1.582,1.582,0,0,0-1.161.467,0.878,0.878,0,0,0-.317,0,1.007,1.007,0,0,0-.326.094,1.116,1.116,0,0,0-.264.179l-0.018.019a1.8,1.8,0,0,0-.538.615,6.386,6.386,0,0,0-.537,1.014,17.04,17.04,0,0,0-.65,2.372c-0.09.358-.174,0.717-0.291,1.067a1.573,1.573,0,0,0-1.555,0A2.7,2.7,0,0,0,44.376,75.3a6.111,6.111,0,0,0-.5,2.045c-0.119.936-.226,1.874-0.352,2.809q-0.081.6-.158,1.2a2.76,2.76,0,0,0-.052.961,1.4,1.4,0,0,0,.443.593c0.221,0.283.078,0.687,0.273,0.985a0.876,0.876,0,0,0,1.2.172c0.587-.384.6-1.187,1.108-1.633a0.247,0.247,0,0,0,0-.349,1.173,1.173,0,0,0-.334-0.206,0.912,0.912,0,0,0-.992-0.267c0.184-.873.412-1.739,0.6-2.611,0.1-.475.2-0.95,0.266-1.431a2.716,2.716,0,0,1,.088-0.6,0.6,0.6,0,0,1,.25-0.267,0.77,0.77,0,0,0,.366.591,0.6,0.6,0,0,0-.188.27,2.284,2.284,0,0,0-.074.368,2.047,2.047,0,0,0,.034.743,2.538,2.538,0,0,0,.748,1.225,0.189,0.189,0,0,0,.187.049,2.348,2.348,0,0,0,.619-0.338,2.7,2.7,0,0,0,.5-0.515,2.587,2.587,0,0,0,.495-1.317,0.244,0.244,0,0,0-.17-0.236,0.557,0.557,0,0,0-.368-0.3,0.674,0.674,0,0,0-.184-0.007,0.805,0.805,0,0,1-.195.013,0.155,0.155,0,0,1-.116-0.135,0.349,0.349,0,0,1,.044-0.242c0-.006.009-0.012,0.013-0.018a0.511,0.511,0,0,0,.223-0.131,0.146,0.146,0,0,0,.026.021,10.31,10.31,0,0,0,2.864.347,13.267,13.267,0,0,0,2.894-.223,0.278,0.278,0,0,0,.148-0.083,13.88,13.88,0,0,0,3.028,3.507c0.964,0.827,1.98,1.59,3,2.341a2.055,2.055,0,0,0-.526,1.095,4.462,4.462,0,0,0,.129,2.024,14.61,14.61,0,0,1,.577,2.324A4.587,4.587,0,0,1,60,89.853a4.354,4.354,0,0,1-1.957.97c-1.224.34-2.457,0.639-3.69,0.944a0.188,0.188,0,0,0,.1.362c1.372-.339,2.756-0.635,4.125-0.981a2.654,2.654,0,0,0,2.087-1.59,4.8,4.8,0,0,0-.15-3.025,7.452,7.452,0,0,1-.447-2.242,2.807,2.807,0,0,1,.169-0.972c0.056-.144.149-0.29,0.206-0.441,0.6,0.435,1.191.876,1.756,1.353a10.87,10.87,0,0,0,1.669,1.338,0.129,0.129,0,0,0,.127,0,0.583,0.583,0,0,0,.3.133,0.13,0.13,0,0,0,.129-0.129,1.07,1.07,0,0,0-.214-0.515,2.451,2.451,0,0,1-.261-0.616,4.787,4.787,0,0,1-.146-1.346,6.624,6.624,0,0,0-.4-3.025c-0.046-.1-0.17-0.022-0.157.066,0.167,1.108-.119,2.227-0.021,3.339a5.057,5.057,0,0,0,.209,1.047,17.03,17.03,0,0,0-2.228-1.787c-1.123-.849-2.309-1.62-3.408-2.5A17.349,17.349,0,0,1,55.131,77.6a9.5,9.5,0,0,1-1.7-3.35c0.015,0.022.028,0.045,0.042,0.067,0.563,0.854,1.3,2.012,2.5,1.572a2.02,2.02,0,0,0,.532-0.309,0.15,0.15,0,0,0,.032.04c0.069,0.041.141,0.075,0.213,0.111a0.885,0.885,0,0,0,.156.071c0.036,0.01.074,0.018,0.111,0.025a2.807,2.807,0,0,0,.291.04,0.357,0.357,0,0,0,.1-0.006,0.3,0.3,0,0,0,.133-0.073c0.025-.02.049-0.04,0.072-0.061a0.147,0.147,0,0,0,.042-0.128,0.158,0.158,0,0,0-.072-0.111l-0.014-.011-0.027-.022a0.3,0.3,0,0,0-.133-0.075,0.509,0.509,0,0,0-.1-0.009c-0.076,0-.152-0.007-0.227-0.014h0l-0.064-.01c-0.054-.008-0.1-0.005-0.157-0.009a0.234,0.234,0,0,1-.043,0l-0.024,0a2.96,2.96,0,0,0,.441-0.585,0.457,0.457,0,0,0,.085-0.52c-0.146-.138-0.316.032-0.412,0.144a2.114,2.114,0,0,1-1.4,1.052,1.612,1.612,0,0,1-1.239-.945c-0.865-1.305-1.714-2.622-2.572-3.932a0.253,0.253,0,0,0-.285-0.11,1.09,1.09,0,0,0-1.353.327,8.752,8.752,0,0,0-.977,1.9,16.31,16.31,0,0,0-.6,1.543,0.158,0.158,0,0,0-.048.148c-0.044.14-.1,0.276-0.137,0.418-0.1.36-.145,0.723-0.209,1.089a1.823,1.823,0,0,1-.1.379,0.6,0.6,0,0,1-.089.137c-0.006,0-.011,0-0.017,0a0.693,0.693,0,0,0-.248.3,0.778,0.778,0,0,0-.1.356,0.517,0.517,0,0,0,.341.508,3.078,3.078,0,0,0,.387.027s0.056,0.019.025,0.006a0.266,0.266,0,0,1,.045.025l0.005,0,0.019,0.018c0,0.005.04,0.049,0.022,0.024,0.01,0.015.019,0.03,0.028,0.046s0.011,0.021,0,0l0.008,0.023a0.3,0.3,0,0,0-.025.059,2.328,2.328,0,0,1-1.13,1.737,1.782,1.782,0,0,1-.46-0.946,2.386,2.386,0,0,1-.034-0.586,1.681,1.681,0,0,1,.048-0.286,1.084,1.084,0,0,0,.024-0.339,0.111,0.111,0,0,0-.032-0.047,0.187,0.187,0,0,0,.054-0.224,2.548,2.548,0,0,1-.247-0.55,1.487,1.487,0,0,1,.041-0.63,3.926,3.926,0,0,1,.557-1.167,7.139,7.139,0,0,0,.833-1.9c0.183-.677.35-1.355,0.552-2.026a5.383,5.383,0,0,1,.371-0.984,6.534,6.534,0,0,1,.375-0.54l0.018,0c0.033,0,.075-0.006.112-0.01s0.064-.009.1-0.015a0.139,0.139,0,1,0,.021,0c0.043,0,.087-0.009.13-0.012a1.548,1.548,0,0,0,.185-0.026c0.016,0,.035-0.007.052-0.009l0.02,0c0.041,0,.083-0.007.125-0.008a0.488,0.488,0,0,0,.235-0.059,0.249,0.249,0,0,0,.107-0.3,1.39,1.39,0,0,1,1.54.048,8.139,8.139,0,0,1,1.579,1.688,3.541,3.541,0,0,0,1.748,1.135,2.41,2.41,0,0,0,1,.069,0.782,0.782,0,0,0,.645-0.335,0.051,0.051,0,0,0-.013-0.049,1.641,1.641,0,0,0-.877-0.105,2.95,2.95,0,0,1-1.195-.316,2.337,2.337,0,0,1-.4-0.29A0.293,0.293,0,0,0,54.51,70.6a4.759,4.759,0,0,1,.852-1.756,4.2,4.2,0,0,1,.694-0.7,4.118,4.118,0,0,1,.406-0.281c0.147-.09.31-0.156,0.453-0.25a0.266,0.266,0,0,0,.1-0.3A2.84,2.84,0,0,0,58.392,68a5.6,5.6,0,0,1,1.347.441,4.421,4.421,0,0,1,1,.839,11.178,11.178,0,0,0,1.346,1.258,0.191,0.191,0,0,0-.025.019c-0.023.044-.047,0.087-0.07,0.131-0.011.02-.018,0.042-0.027,0.064a0.719,0.719,0,0,0-.2.254c-0.026.016-.052,0.032-0.079,0.046l-0.062.031-0.032.014c0.027-.011.029-0.012,0.006,0-0.053.02-.106,0.039-0.159,0.061l0.013-.005-0.032.013-0.065.023c-0.044.014-.088,0.027-0.133,0.037l-0.067.014a0.2,0.2,0,0,0-.039.007c-0.046.006-.092,0.009-0.138,0.01a0.153,0.153,0,0,0-.041.3,1.774,1.774,0,0,0,.656.01c0.013,0,.026-0.011.039-0.015,0,0.047-.013.095-0.015,0.14l0,0c0.018-.025-0.029.038-0.035,0.049a2.712,2.712,0,0,1-.2.358,2,2,0,0,1-.226.3,1.7,1.7,0,0,1-.322.236c-0.1.055-.031,0.231,0.078,0.186a1.945,1.945,0,0,0,.392-0.215,1.79,1.79,0,0,0,.352-0.278c0-.005.007-0.012,0.012-0.018a3.755,3.755,0,0,0,.489,1.271,8.606,8.606,0,0,0,2.681,2.531c2.063,1.411,4.355,2.589,5.849,4.664a0.38,0.38,0,0,0,.067.063c0,0.007-.01.011-0.014,0.018a0.157,0.157,0,0,0,.214.214,1.605,1.605,0,0,1,2.024.178,3.9,3.9,0,0,1,.919,2.257,15.692,15.692,0,0,1,.184,2.888c-0.015.483-.046,0.965-0.076,1.447a2.869,2.869,0,0,0-.268-0.442,0.1,0.1,0,0,0-.182.049,4.9,4.9,0,0,0,.27,1.585,13.108,13.108,0,0,1-.207,2.943,12.794,12.794,0,0,0-.207,2.952,7.013,7.013,0,0,1-.083-6.081,0.161,0.161,0,0,0-.252-0.194,4,4,0,0,0-1.24,2.763,6.635,6.635,0,0,1,.389-2.523c0.394-1.223.851-2.427,1.279-3.638a0.164,0.164,0,0,0-.22-0.2c0-.011,0-0.021,0-0.032-0.009-.075-0.113-0.15-0.174-0.072a2.314,2.314,0,0,0-.256.37c-0.085.168-.159,0.336-0.26,0.5-0.008.013-.02,0.024-0.028,0.037a5.471,5.471,0,0,0,.165-3.256,1.851,1.851,0,0,0-1-1.349,0.607,0.607,0,0,0-.589.171,0.509,0.509,0,0,0-.078.114,0.117,0.117,0,0,0-.076.077c-0.136.542-.155,1.105-0.278,1.652a10.829,10.829,0,0,1-.5,1.608A12.293,12.293,0,0,1,68.4,87.81a3.179,3.179,0,0,0-.7,2.486A14.248,14.248,0,0,0,68.059,92a5.625,5.625,0,0,0,.332,1.254,1.027,1.027,0,0,1-.063.169,1.716,1.716,0,0,1-.443.527c-0.422.36-.9,0.664-1.352,0.987-0.919.661-1.874,1.291-2.744,2.016a0.136,0.136,0,0,0-.041.151l-0.053-.015a0.8,0.8,0,0,0-.133-0.024,0.725,0.725,0,0,0-.1.005,2.169,2.169,0,0,0-.218.032,0.109,0.109,0,0,0-.08.105,0.114,0.114,0,0,0,.08.106c0.029,0.01.057,0.02,0.085,0.031l0.024,0.01c-0.015-.006-0.015-0.006,0,0l0.034,0.015c0.037,0.017.072,0.037,0.11,0.051s0.063,0.019.094,0.029l0.087,0.03L63.724,97.5c0.037,0.014-.038-0.017.008,0a0.646,0.646,0,0,0,.2.058c0.006,0.08.013,0.159,0.015,0.237a1.834,1.834,0,0,1,0,.195c0,0.034-.009.068-0.01,0.1a0.182,0.182,0,0,0,.033.084,3.505,3.505,0,0,1-.844.759,3.711,3.711,0,0,1-.561.283,3.127,3.127,0,0,1-.3.1l-0.035.01a0.222,0.222,0,0,0-.02-0.034l0.025,0.032L62.208,99.3l0,0L62.2,99.292l0,0a0.315,0.315,0,0,0-.046-0.035,0.163,0.163,0,0,0-.055-0.018h0a0.137,0.137,0,0,0-.016-0.069,0.088,0.088,0,0,0-.023-0.04,0.14,0.14,0,0,0-.034-0.032c0.008-.1.015-0.208,0.024-0.312,0-.039.008-0.079,0.012-0.119a0.251,0.251,0,0,1,.006-0.044c0.013-.081.031-0.162,0.041-0.243,0.019-.143.04-0.253,0.06-0.41,0.006-.049.016-0.113,0.018-0.176,0.055-.153.1-0.311,0.162-0.46a1.942,1.942,0,0,1,.43-0.637,7.183,7.183,0,0,1,1.42-1.005,3.538,3.538,0,0,0,1.588-1.625,0.128,0.128,0,0,0,.042-0.02,2.161,2.161,0,0,0,.5-1.719,5.992,5.992,0,0,0-.586-1.928c-0.31-.664-0.706-1.284-1.067-1.92-0.193-.34-0.373-0.684-0.533-1.04-0.075-.166-0.155-0.333-0.235-0.5,0,0,.006,0,0.007-0.008a0.293,0.293,0,0,0-.02-0.173c-0.007-.023-0.01-0.046-0.016-0.069a0.082,0.082,0,0,0,.017-0.037,0.272,0.272,0,0,0-.039-0.091s0-.009,0-0.014c-0.006-.026-0.012-0.053-0.018-0.08s-0.013-.064-0.018-0.1a0.036,0.036,0,0,1,0-.014c0-.016,0-0.033,0-0.049,0-.06,0-0.12,0-0.181a1.261,1.261,0,0,0-.038-0.2,0.054,0.054,0,0,0-.017-0.014c0-.013,0-0.026,0-0.038a0.161,0.161,0,0,0-.307,0,0.974,0.974,0,0,0-.01.232l-0.056-.051a5.81,5.81,0,0,1-.548-0.563C62.672,85.3,62.52,85.1,62.376,84.9c-0.077-.107-0.166-0.2-0.248-0.3a2.929,2.929,0,0,1-.214-0.337,0.11,0.11,0,0,0-.2.084c0.043,0.132.1,0.26,0.139,0.391a2.257,2.257,0,0,0,.136.367,4.4,4.4,0,0,0,.469.7A5.866,5.866,0,0,0,63,86.4a3.336,3.336,0,0,0,.332.27c0.03,0.022.062,0.04,0.092,0.061a0.571,0.571,0,0,0-.375.43,5.929,5.929,0,0,0-.071,1.358c-0.012.474-.034,0.949-0.06,1.422a2.257,2.257,0,0,1-.094.632,1.089,1.089,0,0,1-.288.392c-0.825.706-2.131,0.783-3.151,1.053-1.315.349-2.652,0.654-3.985,0.937a1.26,1.26,0,0,0-.057-0.135,0.051,0.051,0,0,0-.008,0c0-.173-0.006-0.345,0-0.517a0.142,0.142,0,0,0-.1-0.135c-0.157-.022-0.312-0.043-0.47-0.057-0.24-.022-0.243.391,0,0.375,0.1-.007.2-0.018,0.3-0.029,0.009,0.15.014,0.3,0.019,0.45a0.46,0.46,0,0,0-.031.074,1.041,1.041,0,0,0-.027.188c-0.006.1-.006,0.2-0.009,0.3l-0.009.3c0,0.031,0,.063,0,0.1a3.165,3.165,0,0,1-1.591.293A4.3,4.3,0,0,1,52.6,94a2.806,2.806,0,0,1-.266-0.1c0.032-.04.062-0.083,0.092-0.118,0.07-.085.144-0.166,0.216-0.249a5.158,5.158,0,0,1,.479-0.477,4.749,4.749,0,0,1,.508-0.387q0.138-.091.281-0.173a1.441,1.441,0,0,0,.312-0.187,0.2,0.2,0,0,0,.031-0.238,0.207,0.207,0,0,0-.222-0.09,1.105,1.105,0,0,0-.344.164q-0.144.081-.282,0.171a5.645,5.645,0,0,0-.583.44,5.191,5.191,0,0,0-.494.486c-0.081.092-.155,0.19-0.227,0.289a0.463,0.463,0,0,0-.147.364,0.115,0.115,0,0,0,.032.041,0.073,0.073,0,0,0-.013.015,0.368,0.368,0,0,0,.24.287,2.719,2.719,0,0,0,.38.208,2.52,2.52,0,0,0,.923.2,2.861,2.861,0,0,0,1.694-.445,0.187,0.187,0,0,0,.158-0.044,0.471,0.471,0,0,0,.092-0.387q0-.15-0.009-0.3c0-.087,0-0.175-0.008-0.262,1.553-.359,3.121-0.648,4.68-0.979,0.912-.194,2.561-0.332,3-1.332a1.193,1.193,0,0,0,.086-0.175,4.753,4.753,0,0,0,.17-1.274c0.034-.458.026-0.922,0.015-1.381-0.005-.213-0.044-0.426-0.044-0.638a0.532,0.532,0,0,1,.188-0.4,1.762,1.762,0,0,0,.047.279,5.435,5.435,0,0,0,.334.82c0.312,0.64.7,1.234,1.055,1.852a5.63,5.63,0,0,1,.758,1.948,4.786,4.786,0,0,1,.026.963,8.932,8.932,0,0,1-.146.931A6.225,6.225,0,0,1,63.537,95.7a5.233,5.233,0,0,0-1.179,1.027,2.011,2.011,0,0,0-.515.972,1.246,1.246,0,0,0-.1.149,2.246,2.246,0,0,0-.18.429,3.158,3.158,0,0,0-.085.472,2.206,2.206,0,0,0-.014.448,0.279,0.279,0,0,0,.25.264,0.229,0.229,0,0,0,.06.1,0.456,0.456,0,0,0,.062.047,0.449,0.449,0,0,0,.071.032l0.022,0.007a0.347,0.347,0,0,0,.1.011c0.006,0,.011,0,0.017,0a0.72,0.72,0,0,0,.078.02,0.56,0.56,0,0,0,.2-0.023,3.177,3.177,0,0,0,.342-0.094,2.971,2.971,0,0,0,.637-0.3,3.064,3.064,0,0,0,1.007-.992,0.14,0.14,0,0,0-.01-0.153A0.144,0.144,0,0,0,64.32,98.1a1,1,0,0,0-.005-0.1,2.29,2.29,0,0,0-.032-0.24,1.308,1.308,0,0,0-.148-0.374,0.127,0.127,0,0,0,0-.032,0.238,0.238,0,0,0-.088-0.119l-0.022-.016c1.091-.683,2.111-1.5,3.152-2.252a5.717,5.717,0,0,0,1.28-1.041,1.36,1.36,0,0,0,.2-0.389,0.156,0.156,0,0,0,.14-0.07,1.5,1.5,0,0,0-.1-1.3c-0.192-.524-0.436-1.032-0.587-1.571a2.628,2.628,0,0,1,.179-2.014,12.524,12.524,0,0,1,.967-1.228,10.237,10.237,0,0,0,1.484-2.736,7.086,7.086,0,0,0,.508-2.824,0.487,0.487,0,0,1,.086-0.17,0.276,0.276,0,0,1,.414.031,1.577,1.577,0,0,1,.356.612,4.048,4.048,0,0,1,.228,1.4,10.345,10.345,0,0,1-.543,3.087,0.238,0.238,0,0,0,.395.23,4.544,4.544,0,0,0,.394-0.375c-0.353.873-.7,1.749-0.985,2.641a4.061,4.061,0,0,0,.238,3.5,0.142,0.142,0,0,0,.262-0.071,14.577,14.577,0,0,1,.279-1.885A6.934,6.934,0,0,0,73.557,96a0.2,0.2,0,0,0,.361-0.152c-0.479-1.979.387-4.138,0.348-6.166a0.354,0.354,0,0,0,.275-0.293,21.632,21.632,0,0,0,.157-3.636A12.39,12.39,0,0,0,74.225,82.42ZM49.059,73.842c0.249-.67.551-1.319,0.855-1.966,0.242-.514.642-1.26,1.318-0.892a0.248,0.248,0,0,0,.134.02c0.491,0.794,1,1.579,1.5,2.363a9.1,9.1,0,0,0-.969.166c-0.371.067-.742,0.131-1.114,0.2-0.6.106-1.2,0.221-1.794,0.332C49.015,73.99,49.032,73.915,49.059,73.842Zm-0.538,2.011a13.878,13.878,0,0,1,.332-1.355c0.672-.1,1.346-0.188,2.015-0.3,0.358-.06.714-0.125,1.071-0.189a6.339,6.339,0,0,0,1.109-.219,0.208,0.208,0,0,0,.057-0.048c0.04,0.061.077,0.123,0.117,0.184a0.1,0.1,0,0,0-.1.111,7.032,7.032,0,0,0,.7,2.241,0.3,0.3,0,0,0-.053,0,19.316,19.316,0,0,1-2.787.279c-0.878,0-1.737-.115-2.608-0.183A2.7,2.7,0,0,0,48.521,75.853Zm-1.965-.439a2.481,2.481,0,0,0-.315.833,0.141,0.141,0,0,0-.06,0,0.506,0.506,0,0,0-.354.311c-0.059.174-.116,0.348-0.185,0.52a9.052,9.052,0,0,0-.418,1.469c-0.235,1.092-.407,2.2-0.665,3.288a0.2,0.2,0,0,0,.243.243,1.092,1.092,0,0,1,.663-0.047,2.213,2.213,0,0,1,.292.19,0.5,0.5,0,0,0,.052.063,6.215,6.215,0,0,0-.533.967c-0.2.362-.715,0.8-0.889,0.121a2.6,2.6,0,0,0-.1-0.535,1,1,0,0,0-.356-0.371,0.818,0.818,0,0,1-.19-0.961q0.158-1,.313-2c0.1-.634.212-1.266,0.317-1.9a9.374,9.374,0,0,1,.354-1.725,2.232,2.232,0,0,1,1.149-1.248,2.869,2.869,0,0,1,.724-0.228,3.105,3.105,0,0,0,.574-0.114A7.8,7.8,0,0,1,46.556,75.414Zm10.71-10.6c-0.251.1-.5,0.19-0.751,0.291-0.02.008-.04,0.013-0.059,0.021l-3.386-3.354c0.817,0.527,1.628,1.064,2.412,1.64a0.234,0.234,0,0,0,.3-0.01s0,0,0,0a0.181,0.181,0,0,0,.1.081l0.015,0a0.192,0.192,0,0,0,.211-0.086,2.425,2.425,0,0,1,1.257-.939Zm0.575,0.36a1.542,1.542,0,0,0,.014.21,0.447,0.447,0,0,0-.136.231c-0.021.007-.038,0.022-0.059,0.031l0.015-.424Zm-3.58-9.319a9.756,9.756,0,0,0,3.453-1.606L57.381,62.1c-0.04.015-.084,0.017-0.125,0.034a3.67,3.67,0,0,0-1.357.945,0.261,0.261,0,0,0-.127-0.175c-0.9-.535-1.772-1.1-2.653-1.657-0.426-.27-0.853-0.54-1.283-0.8l-0.261-.159-2.027-2.007c-0.006-.006-0.011-0.014-0.018-0.021-0.042-.041-0.087-0.087-0.134-0.131A13.81,13.81,0,0,1,54.261,55.851Zm-5.606,2.955c0.009,0,.02,0,0.027,0a0.255,0.255,0,0,0,.135-0.1,0.065,0.065,0,1,1,.126.021l0.036,0a0.223,0.223,0,0,0,.161-0.065,0.42,0.42,0,0,0,.067-0.094,0.394,0.394,0,0,0,.011-0.045L49.3,58.6l0,0q0.214,0.209.418,0.428a5.759,5.759,0,0,1,.6.812,0.109,0.109,0,0,0,.029.083,1.737,1.737,0,0,0,.241.247c0.109,0.081.219,0.156,0.334,0.228l0.489,0.31L56,65.283c-0.1.033-.19,0.077-0.289,0.1-0.051.013-.1,0.024-0.157,0.032a0.312,0.312,0,0,0-.137-0.227c-0.248-.175-0.556-0.28-0.82-0.436a8.408,8.408,0,0,1-.767-0.523c-0.5-.378-0.994-0.775-1.462-1.2-0.448-.4-0.865-0.837-1.293-1.262q-0.329-.327-0.644-0.668a2.173,2.173,0,0,0-.691-0.585,0.161,0.161,0,0,0-.043-0.213,0.7,0.7,0,0,0-.407-0.089,2.613,2.613,0,0,1-.38-0.06,1.75,1.75,0,0,1-.635-0.3,1.859,1.859,0,0,1-.31-0.32C48.185,59.286,48.416,59.042,48.655,58.806Zm-4.123,9.371a35.777,35.777,0,0,0,1.258-4.689,11.292,11.292,0,0,1,1.862-3.547,2.176,2.176,0,0,0,.508.39,2.81,2.81,0,0,0,.718.256,3.719,3.719,0,0,0,.414.065,0.9,0.9,0,0,0,.266-0.006,0.1,0.1,0,0,0,0,.013,1.752,1.752,0,0,0,.434.754c0.208,0.251.425,0.495,0.646,0.735a14.968,14.968,0,0,0,1.4,1.3c0.477,0.4.97,0.787,1.481,1.144,0.267,0.187.539,0.365,0.8,0.556,0.211,0.154.423,0.337,0.649,0.479a0.251,0.251,0,0,0,.129.108,0.966,0.966,0,0,0,.371.079,2.778,2.778,0,0,0,.863-0.2l0.547,0.545ZM56.8,65.468c0.146-.041.293-0.082,0.438-0.124l-0.023.536Z"/>
  <path id="Shape_313_copy_4" data-name="Shape 313 copy 4" class="cls-11" d="M80.2,49.8l-0.522,5.185-0.913.131a0.868,0.868,0,0,0-.053.638h0.007c0.176-.018.829-0.018,0.829-0.018v0.457a0.83,0.83,0,0,0-.164.685,2.986,2.986,0,0,0,1.077.325l0.488-.032a6.228,6.228,0,0,0,.652.619c0.1,0.033,2.023,1.5,2.218,1.565s1.173,0.522,1.37.554,0.586,0.065.586,0.065a5.2,5.2,0,0,0,.3,1.868,16.915,16.915,0,0,1-2.324,3.35c-0.946.816-2.016,1.868-2.016,1.868s0,0.395.7,0.395a2.308,2.308,0,0,0,.24-0.013,0.516,0.516,0,0,0,.457.28,0.738,0.738,0,0,0,.26-0.052,2.741,2.741,0,0,0,.881-0.555,0.547,0.547,0,0,0,.326.2,0.225,0.225,0,0,0,.195-0.13,2.826,2.826,0,0,0,.228-1.01,0.741,0.741,0,0,0,.173.019,0.65,0.65,0,0,0,.577-0.312,8.166,8.166,0,0,1,.555-1.272c0.26-.228,1.434-0.88,1.858-1.3a2.281,2.281,0,0,0,.555-0.946,7.067,7.067,0,0,0,1.871.3,2.773,2.773,0,0,0,.934-0.14c1.048-.381,2.5-1.535,3.415-1.535,0.025,0,.049,0,0.073,0,0.913,0.064.913,0.26,0.913,0.26a4.631,4.631,0,0,0-1.4,1.24,1.274,1.274,0,0,0,.033,1.532,5.208,5.208,0,0,1,.946,1.141,0.854,0.854,0,0,1-.424.946,1.648,1.648,0,0,1-.6.079l-0.2,0-0.195,0a1.939,1.939,0,0,0-.539.055,1.678,1.678,0,0,0-.978,1.272,1.147,1.147,0,0,0,.508.11,1.318,1.318,0,0,0,.34-0.045,1.937,1.937,0,0,0,.643.175,0.446,0.446,0,0,0,.107-0.012,4,4,0,0,1,.823-0.271,0.37,0.37,0,0,1,.09.01,3.72,3.72,0,0,0,.661.161,0.1,0.1,0,0,0,.121-0.064,2.251,2.251,0,0,1,.358-0.749,10.444,10.444,0,0,1,1.468-1.3c0.457-.294.62-0.457,0.489-0.522a1.369,1.369,0,0,1-.619-0.294c-0.065-.163-0.522-0.945,1.109-1.5a3.641,3.641,0,0,0,1.337.587,4.958,4.958,0,0,0,.982.089,4.223,4.223,0,0,0,.974-0.089,0.3,0.3,0,0,1,.093-0.014,0.609,0.609,0,0,1,.429.243,2.327,2.327,0,0,1,.2,1.37,2.833,2.833,0,0,1-.881.718,0.691,0.691,0,0,0-.358.457,0.626,0.626,0,0,0,.684.554,0.429,0.429,0,0,0,.435.251,1.051,1.051,0,0,0,.315-0.055,2.543,2.543,0,0,0,1.4-1.109,2.588,2.588,0,0,0-.327-1.662c-0.358-.782.135-0.837,0.214-0.973s0.08-.266-0.28-0.527-1.238-.392-1.5-0.652a1.76,1.76,0,0,1-.391-1.174,1.833,1.833,0,0,0-.4-0.916,4.414,4.414,0,0,0,1.347.363l0.064,0a3.06,3.06,0,0,0,1.859-.913,2.8,2.8,0,0,0-.979-3.782s-0.716-.685-5.151-1.663c0,0-2.87-1.173-2.479-2.413a1.464,1.464,0,0,1,1.546-.828c0.088,0,.182,0,0.281.012,1.533,0.131,3.457,1.207,4.076,1.37a1.5,1.5,0,0,0,.384.047,2.753,2.753,0,0,0,1.442-.471l-0.62-.066-0.1-.651s-0.441.055-.717,0.055a0.557,0.557,0,0,1-.2-0.022,1.53,1.53,0,0,1-.065-0.75,6.458,6.458,0,0,1-1.366.169,2.443,2.443,0,0,1-.884-0.137,6.662,6.662,0,0,0-2.272-.6,1.9,1.9,0,0,0-.663.108,1.974,1.974,0,0,0-1.532,2.282c0.1,1.5,3.2,2.544,3.456,2.609s2.8,0.783,3.327,1.043a4.358,4.358,0,0,1,1.467,1.4,0.821,0.821,0,0,1-.1,1.077,1.719,1.719,0,0,1-.785.218,0.36,0.36,0,0,1-.324-0.121c-0.13-.228-1.956-1.892-3.326-1.956l-0.108,0c-1.4,0-4.045,1.179-4.522,1.307a6.31,6.31,0,0,1-1.232.082c-0.459,0-.855-0.016-0.855-0.016s-0.163-.718-0.228-1.24a2.413,2.413,0,0,0-.707-1.107l0.74,0.356a3.4,3.4,0,0,0-.033-1.14c-0.131-.457-0.228-0.816-0.228-0.816l0.509,0.576a4.231,4.231,0,0,0,.209-1.359c-0.1-.326-0.261-0.716-0.261-0.716l0.228-.164a1.526,1.526,0,0,0-.847-1.271,1.338,1.338,0,0,0-.229-0.815,0.413,0.413,0,0,0-.243-0.065,1.3,1.3,0,0,0-.441.1,0.542,0.542,0,0,0-.359-0.457,0.567,0.567,0,0,0-.058,0,0.925,0.925,0,0,0-.626.3,1.572,1.572,0,0,1-.326.261,0.622,0.622,0,0,0-.155-0.017,0.9,0.9,0,0,0-.692.344,7,7,0,0,1-.946,1.239c-0.261.1-1.337,0.283-1.337,0.283a1.068,1.068,0,0,0,.534,1.253,1.136,1.136,0,0,1,.55-0.178,0.606,0.606,0,0,1,.121.012,0.727,0.727,0,0,1,.457.261l-0.946.815,0.2,0.392a2.3,2.3,0,0,1,.91-0.425l0.035,0c0.327,0.032.62,0.26,0.456,0.457s-1.3.619-1.565,0.913a1.212,1.212,0,0,0-.228.782l-0.457.424S85.55,57.6,85.452,57.6a6.653,6.653,0,0,1-.932.091,1.966,1.966,0,0,1-.926-0.189c-0.653-.358-2.25-1.532-2.25-1.532l-0.424-.2s0.488-.2.587-0.228a0.357,0.357,0,0,0,.294-0.359,0.5,0.5,0,0,0-.388-0.33,0.141,0.141,0,0,0-.036,0,0.569,0.569,0,0,1-.134.014,0.906,0.906,0,0,1-.159-0.014L80.2,49.8"/>
  <path class="cls-10" d="M90.858,53.825a0.823,0.823,0,0,1,.208.429,1.1,1.1,0,0,1,0,.482,1.342,1.342,0,0,1-.175.433l-0.174.184-0.188.116a0.1,0.1,0,0,1-.124-0.159l0.108-.147,0.1-.17a1.026,1.026,0,0,0,.123-0.339l0.015-.171,0-.187a2.745,2.745,0,0,0-.087-0.358A0.118,0.118,0,0,1,90.858,53.825Zm-0.74,2.925,0.041-.2,0.036-.093,0.1-.122H90.4l0.1,0.122,0.031,0.1,0,0.253-0.044.264-0.128.262-0.193.051-0.139-.139,0-.137,0.016-.056,0.024-.1ZM89.6,56.727l-0.008-.045,0.015-.161,0.151-.04,0.113,0.158L89.9,56.766a1.031,1.031,0,0,1-.005.324,0.985,0.985,0,0,1-.1.283,0.382,0.382,0,0,1-.292.244l-0.16-.16,0.095-.2,0.037-.044h0l0.015-.022,0.061-.108v0l0.009-.025L89.581,57,89.6,56.94l0-.026v0l0-.125,0-.058h0ZM89.47,51.843l0.073-.016,0.108,0.188a0.444,0.444,0,0,1-.482.113l-0.013.01-0.182.021-0.086-.024-0.035-.027-0.05-.122,0.015-.066,0.024-.038-0.059-.123,0-.166A0.123,0.123,0,0,1,89,51.566l0.032,0.056,0.02,0.059,0,0.006L89.062,51.7l0.025,0.043L89.1,51.76,89.132,51.8l0.018,0.016,0.041,0.026,0.021,0.01h0l0.051,0.015,0.012,0h0.066l0.024,0h0l0.026-.006,0.043-.006-0.017,0Zm0.22,2.618,0.144-.059a0.566,0.566,0,0,1,.222.531,1.309,1.309,0,0,1-.139.561,1.233,1.233,0,0,1-.309.389l-0.216.148a0.415,0.415,0,0,1-.256.047l-0.061-.147,0.172-.146,0.149-.113a0.987,0.987,0,0,0,.233-0.321,0.946,0.946,0,0,0,.076-0.431A1.432,1.432,0,0,1,89.69,54.461Zm7.27-1.405a4.683,4.683,0,0,0,1,.674,10.546,10.546,0,0,0,2.252.77c1.434,0.36,3.1.629,4.205,1.7l0,0.006a3.114,3.114,0,0,1,.722.888,2.627,2.627,0,0,1-.761,3.372,2.239,2.239,0,0,1-2.325.118,1.756,1.756,0,0,1,.118.281,2.757,2.757,0,0,1,.046.7,0.788,0.788,0,0,0,.192.656,4.176,4.176,0,0,0,1.392.435,1.256,1.256,0,0,1,.618.537,0.318,0.318,0,0,1,.116.292,2.461,2.461,0,0,1-.5.6,1.292,1.292,0,0,0,.187.995,4.163,4.163,0,0,1,.187.754,1.415,1.415,0,0,1-.842,1.314,2.046,2.046,0,0,1-.832.378,0.742,0.742,0,0,1-.724-0.208v-0.04l-0.073.014-0.194-.025-0.175-.083-0.092-.085-0.008-.059-0.072-.051-0.12-.241a0.664,0.664,0,0,1,.169-0.545,1.576,1.576,0,0,1,.4-0.341l0.121-.06,0.116-.111a0.778,0.778,0,0,0,.455-0.857,1.581,1.581,0,0,0-.212-0.594l-0.177-.2L102.071,64a3.107,3.107,0,0,1-.823.12,4.768,4.768,0,0,1-1.088-.1,4.669,4.669,0,0,1-1.331-.5l-0.043.02a1.287,1.287,0,0,0-.736.2,0.862,0.862,0,0,0-.391.712c0.049,0.288.4,0.152,0.6,0.28a0.485,0.485,0,0,1,.155.58,1,1,0,0,1-.559.474,4.846,4.846,0,0,0-.752.462,4.491,4.491,0,0,0-.576.55c-0.109.123-.208,0.255-0.308,0.385a0.5,0.5,0,0,1-.661.613,1.635,1.635,0,0,0-.515-0.188,0.9,0.9,0,0,0-.521.126,0.866,0.866,0,0,1-.9.109l-0.148.049a1.283,1.283,0,0,1-.329.023,1.612,1.612,0,0,1-.623-0.17l-0.072-.219,0.01-.011a1.578,1.578,0,0,1,1.284-1.5,2.467,2.467,0,0,0,1.384-.213,0.65,0.65,0,0,0-.1-0.988A2.7,2.7,0,0,1,94.21,64a1.512,1.512,0,0,1-.035-1.164,2.976,2.976,0,0,1,1.562-1.476,2.377,2.377,0,0,0-.977.075,20.242,20.242,0,0,0-1.942.889,6.617,6.617,0,0,1-2.079.457,4.527,4.527,0,0,1-1.769-.173,1.732,1.732,0,0,1-.668,1.01,4.895,4.895,0,0,1-.815.419,3.976,3.976,0,0,0-.743.437,1.46,1.46,0,0,0-.481.628,4.366,4.366,0,0,1-.282.849,0.885,0.885,0,0,1-.756.379,2.525,2.525,0,0,1-.058.466,1.044,1.044,0,0,1-.224.526,0.49,0.49,0,0,1-.509.066l-0.177-.095-0.227.229a1.522,1.522,0,0,1-.272.162,1.754,1.754,0,0,1-.68.163,0.524,0.524,0,0,1-.361-0.106l-0.038-.058a0.849,0.849,0,0,1-.6-0.014L81.9,67.556l-0.035-.045,0.013,0.017L81.848,67.5l-0.066-.082-0.074-.144-0.017-.166,0.049-.043,0.009-.2a20.57,20.57,0,0,0,2.418-2.425c0.382-.455.742-0.93,1.086-1.414a9.914,9.914,0,0,1,.826-1.18l-0.067-.068a5.032,5.032,0,0,1-.35-1.723l-0.079.079-0.168.048-0.045-.005-0.058-.007-0.1-.033,0,0-0.061-.048-0.026-.028L85.1,60.028a2.27,2.27,0,0,1-.788-0.278,11.475,11.475,0,0,1-1.137-.685c-0.413-.285-0.823-0.576-1.231-0.867-0.2-.141-0.4-0.276-0.587-0.426A0.612,0.612,0,0,1,81.03,57.4l0.023-.03-0.219-.129-0.147.089-0.2.037a1.877,1.877,0,0,1-.4.026,1.11,1.11,0,0,1-.633-0.225,0.72,0.72,0,0,1-.273-0.553,0.562,0.562,0,0,1,.229-0.45L79.3,56.023a0.1,0.1,0,0,1-.177-0.057l-0.013-.1,0.006-.082c-0.131-.008-0.264-0.01-0.394-0.027L78.693,55.7l-0.046-.069L78.6,55.505l-0.019-.152-0.028-.233,0.048-.159a1.138,1.138,0,0,1,.521-0.053l0.412-.005,0-.091a16.79,16.79,0,0,1,.1-1.748c0.035-.573.064-1.147,0.106-1.719,0.044-.594.081-1.19,0.134-1.784,0.024-.265.056-0.528,0.084-0.793l0.022-.267c0-.109-0.017-0.218-0.016-0.328l0.132-.094,0.074,0a0.853,0.853,0,0,1,.065.356,26.109,26.109,0,0,1,.511,2.883c0.145,1.089.287,2.181,0.389,3.275a0.223,0.223,0,0,1-.437.059c-0.181-1.064-.324-2.138-0.462-3.208-0.024-.193-0.044-0.386-0.067-0.58-0.008.181-.014,0.361-0.022,0.542-0.024.573-.061,1.145-0.091,1.718a16.055,16.055,0,0,1-.106,1.761l0.783-.029c0.182-.007.363,0,0.545-0.01a1.771,1.771,0,0,1,.352-0.047,0.415,0.415,0,0,1,.362.529l-0.068.094a0.229,0.229,0,0,1-.123.323,1.94,1.94,0,0,1-.529.039,7.81,7.81,0,0,1,1.141.741,4.942,4.942,0,0,0,1.674.978,3.9,3.9,0,0,0,2.2-.352l0.054,0a2.2,2.2,0,0,1,.275-0.374,2.105,2.105,0,0,1,.289-0.25,0.76,0.76,0,0,1,.027-0.344,1.075,1.075,0,0,1,.236-0.411,2.158,2.158,0,0,1,.77-0.48,4.4,4.4,0,0,0,.434-0.207,0.863,0.863,0,0,0,.308-0.246c0.148-.226-0.168-0.248-0.319-0.208a1.612,1.612,0,0,0-.393.166l-0.208.144-0.06.1-0.279-.023-0.168-.153a0.549,0.549,0,0,1-.089-0.433l0.082-.094,0.035-.044,0.119-.064,0.227-.148a2.327,2.327,0,0,0,.343-0.313l0.042-.048,0.023-.028,0,0,0.03-.048,0.013-.025V53.617h0v0L88.058,53.6l-0.009,0h0l-0.02-.007-0.042-.01-0.017,0h0l-0.053,0-0.124,0-0.03,0-0.052.01-0.12.033-0.059.02-0.025.01h0l-0.11.058-0.082.039-0.071,0H87.238L87.1,53.589l-0.077.005-0.2-.116-0.131-.129A0.968,0.968,0,0,1,86.5,53a0.979,0.979,0,0,1-.015-0.434l0.076-.228,0.044-.058,0.109-.062,0.006,0,0,0a2.368,2.368,0,0,0,1.04-.261,2.536,2.536,0,0,0,.641-0.837,1.839,1.839,0,0,1,1.379-.767l0-.025a0.937,0.937,0,0,1,.535-0.587,0.593,0.593,0,0,1,.4.032l0.16,0.137L90.925,50.1a0.15,0.15,0,0,1-.277.075l-0.016-.011-0.022-.012-0.045-.029,0.013,0-0.026-.009-0.025-.006-0.046,0h-0.01l-0.01,0-0.028.007-0.006,0-0.012.006-0.027.017h0l-0.025.022-0.049.054,0,0-0.02.031-0.073.137-0.013.028a0.119,0.119,0,0,1-.1.192H90.075l-0.02.022H89.891l-0.011-.012a1.522,1.522,0,0,0-.767.208,1.913,1.913,0,0,0-.659.79,1.611,1.611,0,0,1-.672.722,3.174,3.174,0,0,1-1,.27l-0.009,0-0.007.024a0.66,0.66,0,0,0,.018.291l0.13,0.244,0.1,0.1,0.144,0.1,0.019,0.072,0.226-.143a1.163,1.163,0,0,1,.346-0.084,0.736,0.736,0,0,1,.568.136,0.356,0.356,0,0,1,.105.332,0.593,0.593,0,0,1-.176.29,2.626,2.626,0,0,1-.461.381l-0.25.144-0.056.026v0.067l0,0.024,0.01,0.033,0,0.006,0.017,0.028a1.464,1.464,0,0,1,.352-0.221,1.73,1.73,0,0,1,.523-0.171,0.57,0.57,0,0,1,.707.377,0.823,0.823,0,0,1-.57.807,8.456,8.456,0,0,0-.947.417,0.859,0.859,0,0,0-.31.326l-0.037.124,0.151-.082a2.055,2.055,0,0,1,.4-0.122,0.694,0.694,0,0,1,.5.02,0.194,0.194,0,0,1,0,.331,1.077,1.077,0,0,1-.4.095,1.781,1.781,0,0,0-.327.1,1.7,1.7,0,0,0-.6.433,1.885,1.885,0,0,0-.4,1.379,2.051,2.051,0,0,0,.259-0.32,0.514,0.514,0,0,1,.355-0.2,0.733,0.733,0,0,1,.6.685,0.809,0.809,0,0,0,.337.571c0.24,0.108.3-.145,0.376-0.313a0.766,0.766,0,0,1,.478-0.576,0.138,0.138,0,0,1,.168.168,0.651,0.651,0,0,0,.23.65,2.222,2.222,0,0,1,.218-0.668,0.449,0.449,0,0,1,.557-0.1,1.788,1.788,0,0,0,.677.383,0.73,0.73,0,0,0,.687-0.337,0.186,0.186,0,0,1,.245-0.075l-0.252-.14a1,1,0,0,1-.3-1.176l0.095,0.025a1.121,1.121,0,0,0,.281.96,0.867,0.867,0,0,0,.94.157l-0.068-.151a8.3,8.3,0,0,1-.272-1.4c-0.151-.335-0.576-0.41-0.717-0.758a0.507,0.507,0,0,1,.1-0.573l0.181,0.024a1.352,1.352,0,0,0,.655.569,2.056,2.056,0,0,0-.521-1.438,0.759,0.759,0,0,1-.249-0.984,0.141,0.141,0,0,1,.238,0c0.2,0.3.423,0.581,0.64,0.868a1.6,1.6,0,0,0,.22-0.921,1.447,1.447,0,0,0-.267-0.709l-0.1-.1-0.063-.062-0.07-.083-0.052-.081-0.019-.067a0.13,0.13,0,0,1,.169-0.188,1.37,1.37,0,0,1,.281.26A0.955,0.955,0,0,0,92.15,51.4a1.641,1.641,0,0,0-.3-0.138l-0.072.152a1.711,1.711,0,0,1-.233.3,0.613,0.613,0,0,1-.361.223,0.193,0.193,0,0,1-.165-0.288l0.182-.164,0.123-.112a1.255,1.255,0,0,0,.2-0.271l0.076-.159-0.11.054-0.143.05-0.07.028-0.035.014h0c-0.1.044-.2,0.091-0.3,0.129l-0.137.055L90.65,51.26l-0.06-.106L90.664,51l0.126-.1a1.476,1.476,0,0,1,.272-0.16c0.1-.049.21-0.094,0.318-0.135l0.261-.008-0.018-.053-0.27,0a2.54,2.54,0,0,0-.365.14,2.915,2.915,0,0,0-.355.2L90.471,51l-0.2.134a0.156,0.156,0,0,1-.189-0.189l0.166-.191,0.2-.146a2.941,2.941,0,0,1,.377-0.216,1.55,1.55,0,0,1,.763-0.216A0.491,0.491,0,0,1,92,50.72a1.179,1.179,0,0,1-.057.3,1.1,1.1,0,0,1,.366.129,1.359,1.359,0,0,1,.421.384,1.283,1.283,0,0,1,.175,1.176l-0.078.07a2.044,2.044,0,0,1-.181,1.9,0.15,0.15,0,0,1-.256,0l-0.034-.046,0.1,0.174A2.48,2.48,0,0,1,92.6,56.06l-0.11.11a1.1,1.1,0,0,1-.828-0.463,1.707,1.707,0,0,0,.458.44,0.919,0.919,0,0,1,.328.514,3.359,3.359,0,0,0,.175,1.266c2.23,0.53,4.135-1.4,6.312-1.516a3.593,3.593,0,0,1,2.374.861c0.351,0.264.682,0.552,1.037,0.809a4.981,4.981,0,0,1,.688.484,0.762,0.762,0,0,0,.512-0.085c0.5-.323.143-0.989-0.162-1.305a4.884,4.884,0,0,0-1.424-.98,11.646,11.646,0,0,1-1.554-.722l-0.024-.064a1.982,1.982,0,0,1-.832-0.06,5.654,5.654,0,0,1-.9-0.249,8.388,8.388,0,0,1-1.645-.8,4.028,4.028,0,0,1-1.3-1.164,1.612,1.612,0,0,1-.212-1.151,1.851,1.851,0,0,1,.628-1.439,2.466,2.466,0,0,1,1.808-.641c1.391,0.055,3.066,1.177,4.373.286,0.284-.193.55,0.267,0.269,0.459l-0.062.033-0.009.2-0.055.267a0.732,0.732,0,0,0,.3-0.032,0.787,0.787,0,0,1,.515-0.147,0.47,0.47,0,0,1,.246.507c0,0.1.011,0.2,0.015,0.3l-0.006.026h0.03a1.354,1.354,0,0,0,.33-0.044l0.176-.051,0.086-.032,0.011-.005,0.042-.019,0.161-.087,0.029-.015,0.2-.161a0.166,0.166,0,0,1,.241.185,1.878,1.878,0,0,1-1.476,1.12,3.962,3.962,0,0,1-2.258-.35c-1.368-.566-3.367-1.774-4.666-0.459a0.975,0.975,0,0,0,.114.7A2.166,2.166,0,0,0,96.96,53.056ZM94.581,63.393c0.03,0.826,1.064.95,1.235,1.722a1.143,1.143,0,0,1-1.067,1.377,4.062,4.062,0,0,0-1.286,0,1.163,1.163,0,0,0-.68.975l0.016,0,0.053,0.011L92.89,67.49l0.26,0,0.027,0h0l0.07-.013,0.123-.025,0.068-.022,0.026-.172c0.074-.183.22-0.319,0.306-0.494a0.118,0.118,0,0,1,.218.059,0.869,0.869,0,0,1-.137.447c-0.038.076-.1,0.224-0.006,0.28a0.35,0.35,0,0,0,.315-0.043,3.875,3.875,0,0,1,.4-0.206,1.283,1.283,0,0,1,.916,0l0.2,0.093,0.122,0.026,0-.073a3.459,3.459,0,0,1,1.1-1.361,4.808,4.808,0,0,1,.707-0.517,1.285,1.285,0,0,0,.4-0.244l0.041-.128-0.2-.011a0.63,0.63,0,0,1-.57-0.431,1,1,0,0,1,.165-0.857,2,2,0,0,1,.8-0.669,4.925,4.925,0,0,1-1.266-1.35,4.594,4.594,0,0,1-.282-0.532L96.7,61.326l-0.093.161a0.742,0.742,0,0,1-.625-0.081A2.419,2.419,0,0,0,94.581,63.393ZM79.544,56.664l0,0.022,0.014,0.05,0.012,0.033v0l0.124,0.15a0.716,0.716,0,0,0,.468.135,1.634,1.634,0,0,0,.3-0.036l-0.041-.024a7.465,7.465,0,0,1-.659-0.5l-0.147-.136-0.046.087h0l-0.011.032-0.012.049,0,0.022V56.6Zm2.1-1.326a0.239,0.239,0,0,0-.039-0.234l-0.272-.089-0.242.025-0.242.022-0.424.03c-0.3.021-.606,0.038-0.908,0.067l-0.424.04-0.2.025,0.016,0.086,0.026,0.157-0.006.124-0.02.034c0.288-.06.582-0.1,0.875-0.129a1.842,1.842,0,0,1,.289-0.03l0.16-.017c0.261-.024.521-0.045,0.781-0.068A5.7,5.7,0,0,1,81.645,55.338ZM84.4,57.853a3.429,3.429,0,0,1-1.6-.567c-0.552-.355-1.036-0.808-1.617-1.119a2.646,2.646,0,0,0-1.031-.332,1.531,1.531,0,0,0-.7.067l0.166,0.135q0.133,0.117.272,0.226a5.246,5.246,0,0,0,.606.416,5.663,5.663,0,0,0,.668.336,2.246,2.246,0,0,0,.34.116,1.311,1.311,0,0,0,.359,0,0.177,0.177,0,0,1,.088.328,0.659,0.659,0,0,1-.465.062l0.043,0.03c0.192,0.124.378,0.258,0.567,0.387q0.568,0.387,1.14.769a11.672,11.672,0,0,0,1.087.729,2.16,2.16,0,0,0,.6.2c0.094,0.018.189,0.02,0.283,0.028l0.066-.029h0.151l0.021,0,0.044,0.01H85.5l0.065,0.027,0.031,0.023,0.03,0.024,0.012,0.015,0.028,0.048V59.632a4.588,4.588,0,0,1,.189-1.084,2.277,2.277,0,0,1,.194-0.458,1.866,1.866,0,0,1,.088-0.492l0.07-.156A4.22,4.22,0,0,1,84.4,57.853Zm15.536-6.559a9.268,9.268,0,0,0,2.639.845,2.773,2.773,0,0,0,.625-0.027l-0.093-.066,0.038-.169a2.409,2.409,0,0,1-.041-0.346L103.1,51.4l0-.031a1.393,1.393,0,0,1-.459.138,1.011,1.011,0,0,1-.463-0.069,0.174,0.174,0,0,1-.1-0.252c0.059-.118.1-0.246,0.155-0.365-1.054.476-2.263,0.036-3.324-.269a2.852,2.852,0,0,0-2.251.029,1.943,1.943,0,0,0-.682.707,6.605,6.605,0,0,0-.28.73,1.282,1.282,0,0,0,.063.5,2.107,2.107,0,0,0,.449.7,5.3,5.3,0,0,0,1.263.922,7.944,7.944,0,0,0,1.477.652c0.257,0.084.518,0.163,0.778,0.233a2.344,2.344,0,0,1,.716.22l0.022,0.047a5.2,5.2,0,0,1,1.8.554,5.614,5.614,0,0,1,1.422.9,1.564,1.564,0,0,1,.612,1.51,1.063,1.063,0,0,1-1.159.736l-0.164-.048a3.462,3.462,0,0,1-1.742-1.069,3.606,3.606,0,0,0-2.82-.938c-1.929.263-3.612,1.835-5.616,1.327a1.182,1.182,0,0,1-.988.113,0.188,0.188,0,0,1,.058.253,1.049,1.049,0,0,1-1.3.455,1.092,1.092,0,0,1-.32-0.22c-0.119-.109-0.3-0.347-0.448-0.144a1.355,1.355,0,0,0-.106.45,0.715,0.715,0,0,1-.179.325H89.289a1,1,0,0,1-.31-0.417l-0.054-.237a1.614,1.614,0,0,1-.243.5,0.588,0.588,0,0,1-.814.142,0.935,0.935,0,0,1-.343-0.443,1.891,1.891,0,0,0-.234-0.643c-0.206-.172-0.336.186-0.511,0.253a0.232,0.232,0,0,1-.258-0.05,0.252,0.252,0,0,1-.341.09l0,0.011a5.389,5.389,0,0,0-.133.992,4.763,4.763,0,0,0,.345,1.973,0.159,0.159,0,0,1-.133.225,5.043,5.043,0,0,1-.777,1.363,16.821,16.821,0,0,1-1.02,1.347,18.515,18.515,0,0,1-2.49,2.478l-0.112.035L81.9,67.153l0.008,0.006,0.028,0.02,0.05,0.032,0.062,0.033,0.029,0.006,0.069,0.023,0.034,0.016-0.007,0L82.2,67.3l0.065,0.018L82.3,67.321l0.123,0,0.024,0,0.064-.015,0.064-.018,0.025-.006,0.03,0,0.148-.213,0.119-.113,0.1-.107,0.153,0.041-0.051.27-0.12.209-0.019.06,0,0.015v0.014h0l0.007,0L83,67.468h0.028l0.121-.006,0.034-.006,0.072-.016,0.132-.039,0.212-.1,0.189-.133a1.045,1.045,0,0,1,.229-0.2l0.224,0.016,0.016,0.022,0.14-.02,0.211,0.028,0.011,0,0.028,0,0,0,0,0h0.006l0,0v0l0,0h0l0.006,0v0l0.01-.011,0.022-.041,0.014-.028,0,0.006,0.081-.246a2.736,2.736,0,0,0,.06-0.271l0.009-.059,0.005-.049,0.013-.088V66.219l0-.04,0.04-.093a0.135,0.135,0,0,1,.166-0.166,0.358,0.358,0,0,0,.476-0.108,1.69,1.69,0,0,0,.214-0.647,1.793,1.793,0,0,1,.742-1.038c0.4-.288.861-0.461,1.249-0.763a1.289,1.289,0,0,0,.666-1.111,0.3,0.3,0,0,1,.2-0.36,0.294,0.294,0,0,1,.36.2v0.143c0.335,0.021.671,0.088,1.008,0.1H90.11l0.1-.105c0.088-.1.158-0.2,0.237-0.306s0.161-.212.239-0.32l0.063-.086,0.063-.064,0.114-.167L91,61.313c-0.011.1-.028,0.191-0.045,0.287V61.545a0.684,0.684,0,0,1-.106.384,1.849,1.849,0,0,1-.2.318l-0.082.092a5.561,5.561,0,0,0,.646-0.069l0.263-.063,0.046-.045c0.126-.132.24-0.272,0.353-0.414s0.221-.278.32-0.427l0.151-.234,0.172-.206,0.126,0.052a0.542,0.542,0,0,1-.074.278l-0.138.249a4.507,4.507,0,0,1-.331.476l-0.123.128a9.815,9.815,0,0,0,1.353-.6,5.325,5.325,0,0,1,1.945-.708,1.767,1.767,0,0,1,1.342.334l-0.082-.2a3.1,3.1,0,0,0-.157-0.485c-0.062-.12-0.366-0.392-0.519-0.166A0.09,0.09,0,0,1,95.7,60.16a0.48,0.48,0,0,1,.457-0.377,0.729,0.729,0,0,1,.612.44c0.164,0.313.242,0.669,0.392,0.99a4.406,4.406,0,0,0,.607.962,4.061,4.061,0,0,0,.947.831L98.787,63a0.24,0.24,0,0,1,.234.185,4.051,4.051,0,0,0,.727.3,4.528,4.528,0,0,0,1.229.176c0.4,0,.793-0.125,1.186-0.118a0.22,0.22,0,0,1,.207.2l0.188,0.109a1.525,1.525,0,0,1,.447.822,1.207,1.207,0,0,1-.149.913,1.17,1.17,0,0,1-.339.325l-0.061.068-0.006.005L102.413,66l-0.078.033-0.1.038-0.016.007-0.042.02-0.1.053-0.087.055-0.038.027-0.021.017-0.149.139-0.037.04-0.015.019-0.048.076-0.011.02-0.019.05-0.014.051v0.046l0,0.014,0.011,0.036,0.009,0.016,0.01,0.017,0.04,0.048,0.021,0.035,0.014,0.011,0.02,0.1h0.014l0.091,0.013L101.9,67h0.008l0.066,0,0.062,0.014,0.021-.061,0.087-.19,0.123-.178,0.064-.058,0.064-.05,0.093-.024,0.042-.01,0.145,0.049,0.011,0.152h0v0l-0.006.015,0,0.03-0.055.091-0.035.043,0.031-.04-0.1.125-0.145.248,0.018-.044-0.036.052,0.137,0.011a1.3,1.3,0,0,0,.416-0.075,2.727,2.727,0,0,0,.645-0.4,1.9,1.9,0,0,0,.6-0.571,1.11,1.11,0,0,0,.172-0.648,1.959,1.959,0,0,0-.364-0.784,0.806,0.806,0,0,1-.181-0.586,0.765,0.765,0,0,1,.34-0.488l0.062-.06-0.139-.168a0.7,0.7,0,0,0-.191-0.247,1.417,1.417,0,0,0-.617-0.237,1.961,1.961,0,0,1-1.168-.5,1.8,1.8,0,0,1-.209-1.276,1.767,1.767,0,0,0-.247-0.837,0.759,0.759,0,0,1-.284-0.408v0l0.111-.119a1.707,1.707,0,0,1,.378.382,1.96,1.96,0,0,0,.4.218,2.209,2.209,0,0,0,.955.133,2.036,2.036,0,0,0,1.59-1.079,2.195,2.195,0,0,0,.067-2,2.577,2.577,0,0,0-.594-0.793c-0.257-.233-0.573-0.382-0.84-0.6l-0.01-.17a8.969,8.969,0,0,0-1.739-.666c-0.879-.236-1.78-0.393-2.647-0.673a6.307,6.307,0,0,1-2.246-1.182A1.606,1.606,0,0,1,96.1,52l-0.028-.164C96.943,50.472,98.651,50.791,99.935,51.294Z"/>
</svg>
