<svg id="axis_tunisia_rifle_1_icon" xmlns="http://www.w3.org/2000/svg" width="150" height="150" viewBox="0 0 150 150">
  <defs>
    <style>
      .cls-1 {
        fill: #f0f0f0;
      }

      .cls-1, .cls-2, .cls-3, .cls-5 {
        fill-rule: evenodd;
      }

      .cls-2 {
        fill: #292929;
      }

      .cls-3 {
        fill: #c40f0f;
      }

      .cls-4 {
        fill: #151515;
      }

      .cls-5 {
        fill: #f2f2f2;
      }
    </style>
  </defs>
  <g id="axis_tunisia_rifle_1_icon_copy" data-name="axis_tunisia_rifle_1_icon copy">
    <path id="Shape_264_copy_5" data-name="Shape 264 copy 5" class="cls-1" d="M42.619,23.532a7.674,7.674,0,0,1,.891,2.525c0,0.891-.3,5.941.149,6.387s5.793,0.148,5.941.594,0.743,9.654,1.188,10.546a14.563,14.563,0,0,1,1.04,4.01c0,0.743-1.337,2.079-1.188,2.822s1.485,2.822,1.188,3.862S49.3,57.842,49.9,58.733s1.188,1.337,1.188,2.525a18.1,18.1,0,0,0,0,4.01c0.3,1.188,1.931,2.525,2.228,1.04s0.594-2.525.891-2.079a16.473,16.473,0,0,1,.743,5.05c-0.149,1.04-1.485,2.079-2.228,2.971s-1.782,1.634-1.782,5.347-2.228,11.585-2.525,12.477-2.228,4.307-1.782,6.238a37.14,37.14,0,0,0,2.376,6.387c0.891,1.931,2.674,6.684,4.159,6.535s5.793-1.039,6.981-1.188,11.14,0.3,11.288-.3S74.4,100.916,75,99.579s0.594-4.01,1.188-5.2,5.793,0.445,7.278.445,4.6,0.891,6.09.149a69.149,69.149,0,0,0,8.021-6.238c0.3-.446.743-32.38,0.891-34.013a20.38,20.38,0,0,0,0-4.307c-0.148-.743,0-2.971-0.148-4.6s-1.634-2.822-1.634-4.01,5.05-11.734,5.347-13.071-2.079-6.387-2.079-7.278,0.445-2.376-.3-3.862a23.067,23.067,0,0,0-2.079-2.822c-0.3-.594-0.594-3.268-1.634-5.05s-2.525-2.971-3.565-2.971-3.268,1.04-3.862.594-4.6-2.674-5.2-3.565S80.94,1.549,79.9,2.737A23.058,23.058,0,0,1,76.187,6.6a44.006,44.006,0,0,0-5.5,4.01c-0.594.743-2.674,4.753-3.713,5.644s-3.565,1.931-4.456,1.782-13.071.445-14.11,0.445-4.6.594-5.644,0.594a1.814,1.814,0,0,0-1.931,1.485C40.688,21.452,42.619,23.532,42.619,23.532Z"/>
    <path id="Shape_264_copy_6" data-name="Shape 264 copy 6" class="cls-2" d="M53.079,110.377c-1.824,0-3.084-2.564-4.644-6.155-0.172-.4-0.328-0.755-0.463-1.047a38.927,38.927,0,0,1-2.452-6.608c-0.4-1.733.5-3.935,1.459-6.041,0.15-.33.305-0.672,0.352-0.813,0.366-1.1,2.467-8.7,2.467-12.116,0-3.756,1.056-4.95,1.826-5.823,0.075-.085.149-0.168,0.22-0.253,0.232-.278.5-0.558,0.767-0.829a4.871,4.871,0,0,0,1.208-1.573,6.874,6.874,0,0,0-.063-1.381,1.649,1.649,0,0,1-1,.366c-1.245.033-2.469-1.324-2.778-2.558a10.266,10.266,0,0,1-.093-3.117c0.031-.426.059-0.829,0.059-1.169a1.855,1.855,0,0,0-.565-1.294c-0.131-.175-0.28-0.373-0.431-0.6-0.791-1.186.157-2.695,1.074-4.153a8.885,8.885,0,0,0,.71-1.247,6.715,6.715,0,0,0-.69-1.979,6.762,6.762,0,0,1-.52-1.347,3.37,3.37,0,0,1,.75-2.338,5.618,5.618,0,0,0,.415-0.755,14.222,14.222,0,0,0-.918-3.454c-0.3-.605-0.519-2.315-1.006-7.955-0.067-.775-0.14-1.615-0.2-2.185-0.528-.039-1.3-0.059-1.877-0.074-2.628-.069-3.348-0.14-3.838-0.63-0.545-.546-0.678-1.429-0.51-6.225,0.016-.443.028-0.79,0.028-0.967a6.24,6.24,0,0,0-.689-1.861c-1.029-1.127-2.162-2.667-1.969-3.822a2.945,2.945,0,0,1,3.054-2.437c0.447,0,1.631-.153,2.676-0.288,1.221-.158,2.375-0.306,2.968-0.306,0.314,0,1.9-.066,3.731-0.142,6.81-.282,9.952-0.391,10.566-0.288a8.393,8.393,0,0,0,3.528-1.524,23.643,23.643,0,0,0,2.39-3.614A19.894,19.894,0,0,1,69.8,9.9c0.822-1.027,5.218-3.913,5.781-4.265a16.193,16.193,0,0,0,2.761-2.827c0.248-.293.483-0.572,0.7-0.819a2.45,2.45,0,0,1,2.048-.853,4.671,4.671,0,0,1,3.173,2.01,26.88,26.88,0,0,0,3.66,2.48c0.539,0.328.884,0.539,1.107,0.688A9.624,9.624,0,0,0,90.4,6a8,8,0,0,1,1.978-.389c1.51,0,3.3,1.388,4.548,3.536a15.368,15.368,0,0,1,1.433,4.181c0.084,0.366.189,0.822,0.242,0.947a5.313,5.313,0,0,0,.442.527,9.95,9.95,0,0,1,1.631,2.281,6.452,6.452,0,0,1,.467,3.74c-0.024.228-.046,0.445-0.049,0.6a21.737,21.737,0,0,0,.721,2.128c0.957,2.59,1.567,4.367,1.331,5.427a54.8,54.8,0,0,1-2.293,5.531c-1.15,2.6-2.881,6.523-3.025,7.326a3.849,3.849,0,0,0,.552,1.143,6.419,6.419,0,0,1,1.076,2.731c0.079,0.868.079,1.862,0.079,2.739a15.082,15.082,0,0,0,.052,1.745,21.231,21.231,0,0,1,.017,4.634c-0.054.595-.162,6.1-0.277,11.924-0.434,22.069-.5,22.164-0.8,22.619a63.556,63.556,0,0,1-8.459,6.625c-1.328.664-3.246,0.392-4.939,0.151a14.245,14.245,0,0,0-1.66-.18,15.577,15.577,0,0,1-2.519-.378,17.613,17.613,0,0,0-3.827-.487,13.23,13.23,0,0,0-.406,2.035,12.034,12.034,0,0,1-.673,2.907l-0.489,1.092c-0.778,1.735-2.845,6.344-3.017,6.91-0.259,1.036-1.394,1.1-3.731,1.149-1.521.029-3.415,0-5.087-.018-1.452-.019-3.1-0.041-3.429,0-0.476.06-1.564,0.261-2.715,0.474-1.671.308-3.4,0.628-4.294,0.717A1.924,1.924,0,0,1,53.079,110.377Zm0.985-47.391a1.311,1.311,0,0,1,1.088.611,16.045,16.045,0,0,1,.923,5.843,5.606,5.606,0,0,1-1.829,2.839c-0.245.251-.475,0.489-0.651,0.7-0.085.1-.173,0.2-0.263,0.3-0.617.7-1.256,1.421-1.256,4.315,0,3.979-2.32,12.047-2.583,12.837-0.085.255-.234,0.582-0.44,1.035-0.511,1.123-1.573,3.461-1.313,4.587a36.8,36.8,0,0,0,2.3,6.166c0.141,0.3.3,0.679,0.483,1.093,0.518,1.191,1.873,4.309,2.638,4.775,0.844-.1,2.515-0.406,4-0.68,1.236-.228,2.3-0.426,2.846-0.494,0.465-.058,1.6-0.046,3.742-0.017,2.007,0.027,5.549.074,6.813-.064,0.379-.943,1.244-2.91,2.913-6.632,0.212-.473.383-0.853,0.486-1.085a10.818,10.818,0,0,0,.5-2.322,10.408,10.408,0,0,1,.708-2.924c0.791-1.581,3.3-1.09,6.215-.52a16.55,16.55,0,0,0,2.082.336,15.4,15.4,0,0,1,1.98.2c1.227,0.174,2.908.413,3.6,0.067A74.365,74.365,0,0,0,96.5,88.209c0.165-2.094.393-13.689,0.547-21.5,0.139-7.074.228-11.443,0.286-12.085a19.754,19.754,0,0,0,.017-3.981,13.037,13.037,0,0,1-.1-2.191c0-.829,0-1.768-0.07-2.533a4.46,4.46,0,0,0-.76-1.764,4.612,4.612,0,0,1-.879-2.349c0-.787.8-2.741,3.221-8.213,0.911-2.063,2.045-4.63,2.154-5.1a19.707,19.707,0,0,0-1.244-4.143,10.772,10.772,0,0,1-.863-2.887,8.507,8.507,0,0,1,.062-0.868,4.348,4.348,0,0,0-.239-2.484,7.788,7.788,0,0,0-1.289-1.779,4.937,4.937,0,0,1-.79-1.043,7.064,7.064,0,0,1-.418-1.442,13.38,13.38,0,0,0-1.181-3.544c-0.98-1.679-2.183-2.406-2.581-2.406a7.619,7.619,0,0,0-1.367.306c-1.276.355-2.377,0.661-3.178,0.061-0.125-.094-0.639-0.406-1.092-0.682-2.525-1.536-3.894-2.446-4.371-3.162a2.5,2.5,0,0,0-1.427-1,0.18,0.18,0,0,0-.185.08c-0.208.238-.434,0.506-0.672,0.788a17,17,0,0,1-3.294,3.29,46.474,46.474,0,0,0-5.21,3.757c-0.16.2-.6,0.949-0.991,1.61a20.062,20.062,0,0,1-2.87,4.187c-1.133.971-4,2.272-5.384,2.041-0.682-.072-6.806.181-10.1,0.318-2.212.092-3.481,0.144-3.826,0.144-0.447,0-1.631.153-2.676,0.288-1.221.157-2.375,0.306-2.968,0.306a0.748,0.748,0,0,0-.791.46,8.075,8.075,0,0,0,1.478,2.082l0.1,0.1,0.068,0.125a8.174,8.174,0,0,1,1.03,3.07c0,0.191-.013.567-0.03,1.047-0.031.889-.116,3.325-0.026,4.4,0.563,0.053,1.488.077,2.158,0.095,2.694,0.071,3.6.095,3.929,1.076a22.246,22.246,0,0,1,.352,3.264c0.181,2.1.557,6.444,0.791,7.167a15.255,15.255,0,0,1,1.143,4.485,3.853,3.853,0,0,1-.749,1.893,6.339,6.339,0,0,0-.435.79c0.064,0.178.215,0.509,0.331,0.761,0.527,1.15,1.124,2.454.81,3.553a8.157,8.157,0,0,1-.971,1.834,10.161,10.161,0,0,0-1,1.836c0.082,0.116.167,0.228,0.249,0.337a4.033,4.033,0,0,1,1.022,2.661c0,0.421-.032.864-0.065,1.332a8.761,8.761,0,0,0,.031,2.4,1.249,1.249,0,0,0,.162.355c0.325-1.452.651-2.175,1.47-2.337A1.24,1.24,0,0,1,54.064,62.986ZM70.33,107.469h0Zm0.009-.034c0,0.01-.006.021-0.009,0.032C70.333,107.457,70.336,107.446,70.34,107.435Zm-18.155-41.3h0ZM51.764,50.34h0Zm0.043-7.266,0.005,0.011ZM44.658,31.929h0Zm-2.693-11.3h0Z"/>
    <path class="cls-3" d="M107.751,117.144l0.935-.749a20.2,20.2,0,0,0,.953-3.552c-0.107-.457-2.287-1.732-3.007-2.335s-0.39-5.167-.906-5.721a17.581,17.581,0,0,0-2.569-1.907,0.683,0.683,0,0,1-.039-1.2c0.38-.234,7.512-2.531,7.512-2.531s-1.469-3.8-2.443-4.252-9.594.847-9.594,0.847L98.36,93.1S51.238,19.377,49.613,17.586A80.478,80.478,0,0,0,42.976,11.9l-0.38.234a80.477,80.477,0,0,0,2.083,8.485c0.866,2.257,45.458,77.539,45.458,77.539l2.258,1.4s-5.04,7.114-5.079,8.183,2.7,4.1,2.7,4.1,5.264-5.333,5.643-5.567a0.683,0.683,0,0,1,1.051.574A17.7,17.7,0,0,0,97.252,110c0.263,0.71,4.486,2.471,4.7,3.386s0.37,3.435.73,3.736a20.169,20.169,0,0,0,3.6.749l1.09-.5Z"/>
  </g>
  <g id="ger_copy_10" data-name="ger copy 10">
    <rect id="Rectangle_2_copy_3" data-name="Rectangle 2 copy 3" class="cls-4" x="46" y="119" width="58" height="30"/>
    <path id="Rectangle_2_copy_3-2" data-name="Rectangle 2 copy 3" class="cls-5" d="M46,146v-3h58v3H46Zm0-24h58v3H46v-3Z"/>
    <path id="_361" data-name="361" class="cls-5" d="M63.15,138.313a4.472,4.472,0,0,1-2.093-.518l-0.917,2.692a4.162,4.162,0,0,0,1.485.538,9.336,9.336,0,0,0,1.844.2,4.6,4.6,0,0,0,3.29-1.166A4.676,4.676,0,0,0,68,136.5a4.507,4.507,0,0,0-.748-2.8,2.975,2.975,0,0,0-1.9-1.166l-0.9.1v-0.139l0.877-.519,2.073-2.751v-2.253H60.419v2.911h2.313l1.555-.239-1.156.937L61.5,132.811v2.153h1.156a2.369,2.369,0,0,1,1.565.4,1.626,1.626,0,0,1,.449,1.276A1.414,1.414,0,0,1,63.15,138.313Zm16.5-1.814a5.063,5.063,0,0,0-.987-3.359,3.135,3.135,0,0,0-2.5-1.167,2.5,2.5,0,0,0-1.894.858,4.992,4.992,0,0,1,1.475-2.223,5.3,5.3,0,0,1,2.432-1.266l-0.8-2.672a7.533,7.533,0,0,0-2.373.977,8.865,8.865,0,0,0-2.044,1.784,8.035,8.035,0,0,0-1.465,2.692,10.94,10.94,0,0,0-.538,3.5,6.17,6.17,0,0,0,1.236,4.237,4.176,4.176,0,0,0,3.25,1.365,3.96,3.96,0,0,0,3-1.276A4.814,4.814,0,0,0,79.654,136.5Zm-3.15.1a2.1,2.1,0,0,1-.329,1.276,1.033,1.033,0,0,1-.867.438,0.969,0.969,0,0,1-.9-0.528,2.709,2.709,0,0,1-.3-1.346q0-.359.04-0.8a1.156,1.156,0,0,1,1.156-.758Q76.5,134.884,76.5,136.6Zm6.594,4.326h7.7v-2.911H88.521V126.73H86.428l-4.047,4.087,1.415,1.794,0.957-.658,1-1.415-0.379,1.535v5.941H83.1v2.911Z"/>
  </g>
</svg>
