<svg xmlns="http://www.w3.org/2000/svg" width="150" height="150" viewBox="0 0 150 150">
  <defs>
    <style>
      .cls-1 {
        fill: #151515;
      }

      .cls-2 {
        fill: #d61920;
      }

      .cls-3 {
        fill: #fbb03b;
      }

      .cls-4 {
        fill: #fb9519;
      }

      .cls-5 {
        fill: #f2f2f2;
      }

      .cls-6 {
        fill: #cad16b;
      }

      .cls-7 {
        fill: #c1272d;
      }

      .cls-8 {
        fill: #1a1a1a;
      }
    </style>
  </defs>
  <g id="Layer_2" data-name="Layer 2">
    <g>
      <circle class="cls-1" cx="75" cy="75" r="70"/>
      <circle class="cls-2" cx="75" cy="75" r="62.97189"/>
      <path class="cls-1" d="M11.88755,83.15261s2.38956-3.37349,5.62249-3.09237c0,0-.28112-6.60642,5.34137-6.747,0,0,.14056-1.26506,2.9518-1.12449s6.04418.14056,7.73093,2.67068,4.35743,7.4498,4.35743,7.4498a4.54215,4.54215,0,0,1,3.09237,1.54618c.98393,1.40562,3.23293,5.90362,3.23293,5.90362l.28112-5.20081.56225.14057,1.1245,1.96787s2.67068-2.95181,2.81124-5.62249-.56225-3.65462-1.26506-4.21687a6.69483,6.69483,0,0,0-2.67068-.70281,42.88467,42.88467,0,0,0-.42169,5.90361h-.70281s-2.67068-2.81124-3.79518-10.68273l-1.3002-2.10843a24.777,24.777,0,0,0-9.06626.21084,24.06322,24.06322,0,0,1,7.27409-1.37048,35.75526,35.75526,0,0,0-6.64156-.31627,11.42257,11.42257,0,0,1,5.06024-.73795s-1.37048-1.26506-7.59036-.73795c0,0,3.47891-1.58132,9.488-.52711,0,0,.10542-1.37048-9.06627-1.58132,0,0,3.58434-1.05422,9.80422,0,0,0-1.89759-2.95181-1.05422-5.48193s2.21386-2.63554,2.21386-2.63554l1.68675-2.003s-.42169-3.58433.5271-5.06024,4.32229-3.58433,4.32229-3.58433,1.05422-2.63555,5.16567-5.7982c0,0-.21085-2.53012-.21085-3.68976S49.90964,34.237,49.488,33.39357s-.73795-2.53012-.10542-2.741,1.89759-.42169,4.744,1.4759a3.58582,3.58582,0,0,1,2.741.42169A33.29085,33.29085,0,0,0,60.97892,34.237s2.9518-1.37048,9.06626-1.05422a20.715,20.715,0,0,0,3.47892-.10542c.63253-.21084,3.16265-.84337,4.744-1.37048s7.16868-.21085,7.16868-.21085,7.27409-.5271,10.01506.31627,8.43373,3.05723,9.06626,3.05723a8.27469,8.27469,0,0,0,3.47892-.21085,24.66767,24.66767,0,0,1,6.747-2.003c2.63554-.21084,7.59036.10542,8.22289.10542s4.744,5.90362,4.8494,6.85241.73795,3.16265-.738,4.42771-3.68976,3.58434-3.68976,3.58434a4.07856,4.07856,0,0,0,1.26506.31627,9.71021,9.71021,0,0,1,4.42772.84337,32.59952,32.59952,0,0,0,4.95481,1.68675s5.16567,7.59036,4.8494,25.40662-6.53614,39.46286-29.0261,55.34639-64.65864,13.494-85.18073-15.88353c0,0-13.7751-17.57029-15.88353-23.89559S11.88755,83.15261,11.88755,83.15261Z"/>
      <path class="cls-3" d="M18.494,91.69177a1.81579,1.81579,0,0,0,1.4759-.31627,4.31359,4.31359,0,0,0,1.37048-1.79217,24.29578,24.29578,0,0,0,.10542-6.21988c-.31626-.94879-1.26506-2.10843-1.4759-1.58132s-.31627,1.79217-.84337,1.79217-1.58133-1.79217-1.79217-2.741A5.46031,5.46031,0,0,0,14.488,82.41466s1.68675-.10542,2.95181,2.28414a15.3939,15.3939,0,0,1,1.68675,4.84939A2.378,2.378,0,0,1,18.494,91.69177Z"/>
      <path class="cls-3" d="M23.41365,83.9257a5.91881,5.91881,0,0,0,1.61647,2.6004,2.3661,2.3661,0,0,0,2.81125-.3514c.492-.56225,2.249-3.3735,3.65461-4.35743s3.79518-.42169,4.70884,0c0,0-2.81125-6.04418-4.28715-7.239a9.1157,9.1157,0,0,0-6.53614-1.4759,7.52637,7.52637,0,0,1,2.88152,6.11446C28.19277,83.29317,23.41365,83.9257,23.41365,83.9257Z"/>
      <path class="cls-4" d="M29.80924,85.89357s1.4759-2.9518,2.45984-3.30321,6.11445.07028,7.16867,1.47591,7.30924,11.94779,7.66064,13.002a13.65442,13.65442,0,0,1,.28113,2.95181c.07028.28112.63253,2.741.70281,3.51406a79.769,79.769,0,0,1-.70281,8.9257,15.99328,15.99328,0,0,0,3.7249-4.77912,18.68951,18.68951,0,0,0,.98393-2.81124s7.94177,5.97389,8.504,6.60642a25.98953,25.98953,0,0,1,2.95181,7.30924c.70281,3.02209.3514,5.41165-.21085,6.11446s-.492,4.70883-.492,4.70883,1.54618-2.741,2.03815-3.30321,4.42771-5.13052,3.30321-10.61245c0,0,8.85542,5.83333,13.14257,7.73092a24.08078,24.08078,0,0,1-.492,6.747,15.68055,15.68055,0,0,1-1.26506,3.3735s5.34137-3.65462,5.9739-4.14659.63253-5.27108.98393-5.13052,7.73093,1.54618,9.34739,1.68675,5.34137.3514,5.48193-.14057-2.88152-2.53012-3.09237-2.6004-4.498.35141-5.13052.42169-11.5261-1.54619-12.79116-2.6004-.98394-1.757-.7731-2.10844,1.757-2.249,2.10844-2.67068a52.29972,52.29972,0,0,1,7.66064-3.7249c1.68675-.56225,7.73092-.35141,7.8012.14056s-1.19477,2.38956-1.40562,2.741,1.68675,1.33534,2.45984,1.05421,1.757-3.30321,5.90362-6.255a47.79562,47.79562,0,0,1,8.29317-4.70883c.84337-.42169,7.4498-4.42771,9.20683-5.69277a24.12962,24.12962,0,0,0,5.34136-5.83334c.77309-1.4759,2.88153-5.34136,3.30321-6.3253s1.33535-2.9518.56225-2.31927-7.73092,6.6767-8.71486,7.73092a30.01186,30.01186,0,0,1-7.239,4.77912c-3.30322,1.61646-4.63856,2.10843-5.48193,3.09236s-6.88755,5.41165-11.10442,6.46587-8.85542,1.61646-11.94779,2.81124a21.41885,21.41885,0,0,1-6.11446,1.68675,10.08779,10.08779,0,0,0-4.35743,2.10843c-1.19478,1.05422-3.37349,2.53012-5.06024,1.26506a10.67754,10.67754,0,0,1-2.88152-3.44377c-.42169-.70281-2.03816-2.249-2.31928-2.88153s-1.4759-3.86546.14056-6.04417,2.6004-4.35743,4.07631-5.62249,1.68674-2.10844,3.514-2.81125A55.95865,55.95865,0,0,1,82.239,92.64056c.84337,0,3.58433-.3514,4.84939-1.68674s1.26506-2.38956.7731-2.81125-6.32531-.70281-8.85543,0a9.582,9.582,0,0,0-4.77911,3.23293,9.95672,9.95672,0,0,1-4.70884,3.58434c-2.81124,1.05422-4.63855,2.249-5.34136,3.30321s-1.68675,1.82731-1.96787,2.741a4.358,4.358,0,0,1-2.741,2.03815c-.70281.07028-4.14658-.42169-5.48193-.28113s-3.65461-.14056-4.91967-3.514a16.017,16.017,0,0,1,5.41164-.14056c2.31928.492,4.006.56224,4.99.07028s3.30321-3.51406,3.93574-4.14659a12.21405,12.21405,0,0,0,2.249-3.65462c.21084-.91365,1.54619-1.1245,2.6004-2.10843s1.26506-2.38956,2.03815-4.21687,2.249-4.63855,2.249-6.46586.21084-8.01205-.98394-10.19077-3.93574-3.93574-4.98995-3.86546a4.18526,4.18526,0,0,0-2.88153,1.757c-.98394,1.1245-2.95181,4.35743-6.60643,4.35743a22.24123,22.24123,0,0,1-6.60642-.98394c-.56225-.14056-1.47591-1.12449-.98394-1.757s4.21687-3.51406,4.63856-3.86547.14056-1.96787-1.40563-1.40562S50.261,64.80924,49.83936,64.739s.14056-2.45984-.35141-2.81125-1.40562-.56225-1.757-.14056a5.21709,5.21709,0,0,1-1.68674.84337s-4.56828.56225-4.99-.07028-.21085-1.82731-.63253-2.31928-1.47591-.3514-1.757.70282.21084,1.54618.70281,1.4759.84337.63253.77309,1.1245-.77309.28112-1.33534.07028-1.26506-1.89759-1.26506-2.741.21084-2.9518,1.19478-3.58433a16.05374,16.05374,0,0,0,2.53012-2.10844c.63253-.63253,1.40562-.77309,1.54618-.56225s-2.45983,3.02209-2.249,3.30322a.65649.65649,0,0,0,.91365,0c.28113-.21085,5.41165-6.04418,5.9739-6.18474s2.249.28112,2.31928-.07028-.7731-1.1245-.21085-1.54619,1.54619.07028,1.61647-.42168a1.7497,1.7497,0,0,0-1.1245-1.54619c-.70281-.28112-3.09237-1.4759-3.16265-2.17871s2.17872-3.65462,4.07631-4.70884,2.03815-1.757,2.741-1.89759,3.44377-1.05422,4.14659-1.89759,1.12449-1.4759.28112-1.82731-4.70884-.07028-5.06024.56225-.35141,2.38956-.70281,1.96787-.56225-3.09237-1.05422-3.79518-1.82731-2.53012-1.4759-2.95181,3.514,1.40563,3.93574,1.33534a10.17392,10.17392,0,0,1,3.79518.70282c.77309.492,2.38956,2.17871,3.3735,2.03815s3.44377-1.19478,4.77911-1.54619,5.9739.07028,6.53615.70281,1.05421,2.10844,1.82731,2.88153.84337,1.4759.07028,1.96787-2.81125,2.10844-2.67069,2.45984,5.55221-.07028,6.53615.14056,1.61646-1.61646,2.10843-2.6004a1.85155,1.85155,0,0,1,2.53012-.98393,37.66209,37.66209,0,0,1,3.86546,2.67068c.91366.63253,1.1245.70281,1.26506,1.89759s-.21084,2.17871.21085,3.23293.3514.91366.63253,3.16265.492,2.249,1.19478,1.47591a37.927,37.927,0,0,0,3.09237-4.8494c.492-.98394.07028-4.8494,0-5.69277s-2.31928-3.86547-3.09237-4.42771-1.757-.91366-1.89759-1.89759-.28113-1.68675.28112-1.82731,9.62852,1.05421,10.96386,1.82731a24.17217,24.17217,0,0,0,6.46586,2.17871c1.68675.21084,6.95783-2.10843,8.08233-2.45984s6.88755-.63253,8.22289.07028,4.70884,5.76305,5.06024,7.02811-1.89759,3.58434-2.741,4.28715a29.91383,29.91383,0,0,0-4.498,3.79518c-1.33535,1.61647-2.88153,4.28715-4.28715,3.7249s-2.81125-2.03815-3.58434-2.10843-1.19478.07028-1.05422.70281,4.70884,5.62249,5.41165,5.83333,1.1245-1.33534,1.19478-2.10843.77309-2.31928,1.54618-1.757,3.51406,6.04418,4.42771,7.30924a16.51164,16.51164,0,0,0,2.17872,2.45984c.70281.70281.35141.42169.98394,1.89759s1.4759,1.61647,2.741,3.7249,2.38956,3.02209,2.53012,6.04418a18.55026,18.55026,0,0,1-1.26506,6.88755c-.35141.98393-.492,2.53012,0,2.10843s3.58434-4.91968,3.86546-6.88755.91366-6.18474.07028-7.87149-.28112-1.96787-1.40562-4.84939-1.54618-6.255-1.19478-6.32531,2.6004,4.8494,3.44378,5.9739.91365,0,1.54618,3.09237.98394,22.63052-6.18474,35.98394a4.6461,4.6461,0,0,1-2.31928,1.68674c-1.61646.56225-3.16265.28113-3.93574,1.40562a39.47328,39.47328,0,0,1-5.34136,4.99c-.98394.70282-11.10442,1.05422-11.80723,1.1245s-1.68675-.63253-2.6004.28113-2.88153,3.02209-2.53012,3.514,2.67068.492,3.09236.28113a5.35438,5.35438,0,0,1,3.09237-.91366c2.17872-.14056,3.93575-.492,4.70884-.21084a21.03433,21.03433,0,0,1,3.93574,2.81124c1.1245.98394,1.26506,2.31928.77309,2.88153S96.92771,142.751,63.61446,137.12851,14.6988,95.1004,14.6988,95.1004s-.70282-3.23293-.28113-3.37349a1.5839,1.5839,0,0,1,1.54619,1.1245,19.9672,19.9672,0,0,0,1.26506,4.21686,11.65218,11.65218,0,0,0,3.65461,3.23293c1.1245.56225,2.249.42169,3.93575-.14056s2.38956-.42168,3.93574,1.68675,4.21687,4.21687,5.2008,7.02811.98394,3.79518.14057,4.07631-1.1245,1.54618-.28113,1.68674,2.81125.98394,2.81125-.98393a76.731,76.731,0,0,0-.56225-8.012c-.28113-1.96787.70281-3.93574-.56225-3.93574a4.31423,4.31423,0,0,1-3.3735-1.1245,5.972,5.972,0,0,1-1.68674-3.23293c-.42169-1.54619-.98394-2.81125.14056-1.68675s1.40562,1.40562,2.95181,1.40562,1.54618-.84337,1.96787-3.09237,1.26506-3.514,0-5.2008A7.001,7.001,0,0,0,29.80924,85.89357Z"/>
      <path class="cls-5" d="M25.9262,94.749s.4744-2.10844,1.73946-2.79368,1.634-.42169,2.31928.4744,1.634,3.53163,2.372,3.58434,1.15964.05271,1.89759-1.634a7.84479,7.84479,0,0,0,.31626-5.42922c-.57982-1.26506-3.26807-2.84638-5.53464-2.4247a4.81365,4.81365,0,0,0-4.26957,4.79669C24.76657,94.11647,25.9262,94.749,25.9262,94.749Z"/>
      <path class="cls-5" d="M10.58735,91.32279a4.98515,4.98515,0,0,1,1.21235-2.63554c1.0015-.9488,2.4247.05271,2.68825.68524s1.15964,2.58283,2.05572,2.372,1.73946-2.63554,1.21235-4.53313-2.58283-4.21687-4.05873-4.21687-3.53163,1.9503-3.95331,3.95331S9.8494,90.95382,10.58735,91.32279Z"/>
      <path class="cls-5" d="M18.81024,81.46586s.42169-2.26656,1.68675-2.372,3.74247,2.79367,3.74247,2.79367a1.19109,1.19109,0,0,0,1.52861.10542c1.00151-.52711,1.21235-3.84789.63253-5.48193a4.34868,4.34868,0,0,0-3.00452-2.79367A5.56623,5.56623,0,0,0,18.81024,76.88,5.50584,5.50584,0,0,0,18.81024,81.46586Z"/>
      <path class="cls-5" d="M40,64.80924s-.05271,1.84488.57982,2.21385,4.69126-2.4247,4.69126-2.4247A11.09916,11.09916,0,0,0,40,64.80924Z"/>
      <path class="cls-5" d="M41.37048,72.34689s-.52711,4.26958,2.84639,9.2244l.15813-.57982-.21084-5.85091a14.94266,14.94266,0,0,1-.9488-2.9518S42.003,71.29267,41.37048,72.34689Z"/>
      <path class="cls-5" d="M43.79518,72.29418s.68524,2.84638,1.26506,3.26807.84337.05271.84337.05271a22.174,22.174,0,0,1-.84337-3.47892C45.00753,71.13454,43.53163,71.50351,43.79518,72.29418Z"/>
      <path class="cls-5" d="M45.69277,72.08333a3.76568,3.76568,0,0,0,1.634,3.63705h.369l-.05271-3.63705A1.4235,1.4235,0,0,0,45.69277,72.08333Z"/>
      <path class="cls-5" d="M48.22289,72.34689a5.641,5.641,0,0,0,.68524,3.4262h.369a5.49291,5.49291,0,0,0,.52711-3.32078A1.69085,1.69085,0,0,0,48.22289,72.34689Z"/>
      <path class="cls-5" d="M50.33133,72.66315s-.05272,2.372-.05272,2.68826a5.66384,5.66384,0,0,0,1.47591-.57982,2.359,2.359,0,0,0,.21084-2.10844C51.70181,72.505,50.43675,72.3996,50.33133,72.66315Z"/>
      <path class="cls-5" d="M55.33886,72.66315a21.797,21.797,0,0,0,1.15963,5.37651,10.808,10.808,0,0,0,2.53012,4.16416l.10543-.52711s-.21085-8.01205-.21085-8.43374S56.76205,71.13454,55.33886,72.66315Z"/>
      <path class="cls-5" d="M68.2003,78.67219s-2.63554,4.32229-3.00452,4.69126-.21084,1.4232,0,2.003,2.21386,0,2.53012-.31627a42.77735,42.77735,0,0,0,2.31928-5.69277c.10542-.57982-.21084-1.05422-.369-1.00151S68.2003,78.67219,68.2003,78.67219Z"/>
      <path class="cls-5" d="M59.18675,92.64056a11.02433,11.02433,0,0,0,.89608,1.79217c.31627.369,2.79368-1.31777,3.16265-1.89759a18.19189,18.19189,0,0,0,1.634-3.9006c-.05271-.42169-.42169-.57982-.57982-.4744A15.08418,15.08418,0,0,1,59.18675,92.64056Z"/>
      <path class="cls-5" d="M47.8012,96.80472a3.986,3.986,0,0,0,1.4232,1.10693c.68524.21084,4.16415-.26356,4.79668-.05271,0,0-.84337-1.26506-1.9503-1.26506S47.8012,96.80472,47.8012,96.80472Z"/>
      <path class="cls-5" d="M55.76054,86.368a23.14568,23.14568,0,0,0-.31626,4.8494,6.91791,6.91791,0,0,0,1.634,4.16416c.369.26355,1.68675.5271,1.9503-.4744a3.73334,3.73334,0,0,0-.63253-2.372,20.38291,20.38291,0,0,1-2.26656-6.06175S55.97139,86.05171,55.76054,86.368Z"/>
      <path class="cls-5" d="M44.53313,85.84086a19.96317,19.96317,0,0,0,.26356,5.27109,10.42484,10.42484,0,0,0,2.68825,4.32229c.42169.15813.4744-.84338.42169-1.00151s-.9488-2.372-1.10693-3.05723-1.73946-5.00753-1.79217-5.42921S44.53313,85.41918,44.53313,85.84086Z"/>
      <path class="cls-5" d="M47.74849,90.95382a11.79735,11.79735,0,0,0,.15814,2.372c.21084,1.00151.5271,1.4232.79066,1.58133s1.37048.15813,1.42319,0-.79066-2.79368-1.0015-3.74247C49.119,91.16466,48.11747,90.63755,47.74849,90.95382Z"/>
      <path class="cls-5" d="M49.90964,91.21737a16.36842,16.36842,0,0,0,.84337,3.63705c.42169.57982,1.31777-.10542,1.31777-.10542a13.11776,13.11776,0,0,0,1.79217.42168c.57982.05271.9488-.68524.89609-1.26506a7.40566,7.40566,0,0,0-1.58133-2.47741c-.31626-.26355-1.10693-.10542-1.10693.05271s-.10542,2.16115-.10542,2.16115l-.68524-2.21386S50.91114,90.79568,49.90964,91.21737Z"/>
      <path class="cls-5" d="M58.6245,97.13855s2.6004-1.757,3.30321-2.249a30.95336,30.95336,0,0,1-2.249,2.53012c-.3514.21084-1.12449.70281-1.26506.42169S58.6245,97.13855,58.6245,97.13855Z"/>
      <path class="cls-6" d="M44.21687,53.42369s-.91366-.84337-.70281-1.68674A1.71536,1.71536,0,0,1,44.91968,50.261c.70281-.07028,1.1245.21085,1.19478.63253s.70281.492.91365.28113,1.1245-.70281-.07028-1.96787a2.94321,2.94321,0,0,0-3.44377-.63253,3.56535,3.56535,0,0,0-1.82731,2.38956c-.07028.98393-.14057,1.61646.63253,2.17871S44.07631,54.05622,44.21687,53.42369Z"/>
      <path class="cls-7" d="M50.82329,84.62851s-3.09237,2.45984-3.7249,3.16265-.492,1.82731-.21084,1.96788a4.87888,4.87888,0,0,0,1.96787.21084,17.43982,17.43982,0,0,1,4.77912.77309c.56225.35141,1.1245.35141,1.05422.14056s.07028-4.56827.70281-5.2008.91365-.56225,1.19478-.07028,2.03815,5.83333,2.31927,5.83333a19.358,19.358,0,0,0,4.006-2.9518,19.95,19.95,0,0,0,1.05421-4.70884c-.07028-.21084-2.31927-.56225-1.61646-1.33534a11.81408,11.81408,0,0,0,1.757-2.10843,4.34582,4.34582,0,0,0-.35141-1.68675s-4.006-.28113-3.93574.21084.56225,3.86546.21084,4.42771-2.88153-1.40562-3.65462-2.741a18.247,18.247,0,0,1-2.6004.28112c-.492-.07028-1.82731.56225-1.757,1.19478s.70281.21085,1.1245-.07028a1.34157,1.34157,0,0,1,1.82731.70281c.21084.84338.14056,2.38956-.63253,2.249s-1.33534-.56225-1.68675-.56225S50.82329,84.62851,50.82329,84.62851Z"/>
      <path class="cls-1" d="M80.06024,79.42771s7.239-4.28715,8.64458-5.62249,5.06024-8.996,5.34136-9.76908-.492-7.52008-1.05421-7.8012-1.1245-.56225-1.47591.42169-1.19477,4.14658-1.61646,4.21686-5.55221-1.54618-5.55221-1.54618-2.741-.42169-3.65462.3514-2.45984,2.31928-2.17871,3.7249,1.12449,2.10844,1.4759,3.30322.42169,2.31927,1.54618,1.757,3.23294-2.67069,4.006-2.741,2.38956-.42169,2.31928,1.47591S85.96386,73.5241,83.5743,74.508s-3.79518,1.26506-4.63856,2.249-.98393,2.03815-.56225,2.6004S80.06024,79.42771,80.06024,79.42771Z"/>
      <path class="cls-1" d="M93.90562,75.42169s4.498-8.15261,4.99-9.90964,1.33534-9.62852,1.40562-10.89358-1.26506-6.60642-1.40562-7.73092.42169-2.10843,1.19478-1.54618,4.21687,7.30923,4.14659,8.36345-1.05422,2.6004-.98394,2.81124,2.10844,7.30924,2.10844,7.30924-2.38956,13.28313-2.45984,15.251a14.29321,14.29321,0,0,1-2.249,7.23895c-1.757,2.88153-3.7249,6.04418-4.42771,5.83333s-.28112-4.14658.35141-6.18473,1.96787-7.0984,1.12449-7.66065-3.16265.07028-4.28715,1.19478-3.86546,2.741-3.72489,1.61647S93.90562,75.42169,93.90562,75.42169Z"/>
      <path class="cls-8" d="M75.492,73.66466a42.61972,42.61972,0,0,0,0-5.34137c-.21085-1.68674-.28113-2.88152-1.05422-3.09237s-1.4759.28113-1.26506.70281a14.17446,14.17446,0,0,1,1.40562,3.44378c.21085,1.26506.63253,5.48193.63253,5.48193Z"/>
      <path class="cls-1" d="M73.243,113.23293c.14056-.21084,6.67671-4.63855,8.64458-5.27108a11.341,11.341,0,0,1,4.91968-.56225c.77309.21084,6.255-.42169,8.01205-1.33534s3.58433-.91366,4.91968-1.82731,2.88152-3.02209,4.56827-4.14659,4.99-1.82731,6.04418-3.37349,2.82007-2.84214,4.35743-8.22289a10.0321,10.0321,0,0,1,2.38955-3.58434c.84338-.70281,4.42771-4.8494,4.28715-7.59036a15.49922,15.49922,0,0,0-1.82731-5.76306c-.28112-.70281.28113-2.10843-.84337-3.72489a22.65137,22.65137,0,0,0-5.9739-4.99c-.91365-.28113-1.54618-.21085-1.54618.77309s.14056,2.17871.98393,2.6004,2.81125,2.95181,3.44378,3.65462.28112,2.88152.492,3.93574-.35141.91366-.77309.07028-.70282-1.26506-1.40563-.63253-2.6004,2.249-2.03815,3.44378,1.1245,2.03815,1.54619,3.16265a3.3014,3.3014,0,0,1-.07029,2.249s-1.33534-2.38955-1.68674-2.88152-1.19478-.77309-1.68675.3514-.91365,1.89759-.28112,2.741a9.87141,9.87141,0,0,1,1.12449,3.23293c.21085.84337.14057,2.17871-.42168,1.19478s-1.33534-2.53012-1.89759-2.6004-1.96788,1.61646-1.82731,2.38955,1.82731,2.95181,1.96787,3.7249.28112,2.45984-.21084,2.10844-1.82731-3.02209-2.38956-3.23293-1.47591.91365-1.54619,1.757,1.19478,5.69278.63253,5.48193-1.1245-1.89759-1.68674-2.53012S101.496,92.5,100.86345,93.69478a18.10381,18.10381,0,0,0-1.68674,4.8494c-.14057,1.26506-1.40563,3.37349-1.40563,2.53012s.492-4.498.07029-4.91968-1.26506-.77309-1.757-.28113-.42169,3.58434-1.05422,3.86547-.70281-.28113-.77309-.70282-.42169-.98393-.77309-.56224a23.13663,23.13663,0,0,0-1.47591,3.86546c-.14056.56225-1.4759,1.54618-3.44377,1.26506s-2.67069-1.1245-3.79518-.84338-3.30322,3.79518-4.63856,4.35743a26.40819,26.40819,0,0,0-5.41164,3.51406A5.73734,5.73734,0,0,0,73.243,113.23293Z"/>
      <path class="cls-1" d="M114.006,43.86546s-.84337-1.19478.70282-2.03815a7.75794,7.75794,0,0,0,3.02208-2.67068c.42169-.7731,1.33535-1.54619,1.26506-2.10844s-3.58433.14057-4.91967.63253-3.93575,1.05422-4.21687,2.10844.42168,2.249,1.61646,3.30321S114.07631,44.99,114.006,43.86546Z"/>
      <path class="cls-8" d="M56.44578,56.86747a19.12583,19.12583,0,0,0-1.61646,1.68675c-.35141.492-1.26506,2.10843-1.40563.84337s.21085-2.03815.98394-2.249,1.33534-.98393,1.757-.91365S56.72691,56.58635,56.44578,56.86747Z"/>
      <path class="cls-1" d="M51.5261,53.84538s.28113.70281,1.33535.492,2.31927-.07028,2.741-.42169a4.58569,4.58569,0,0,1,2.95181-.56225c.70281.28113.77309,1.33535.3514,1.26506a2.12324,2.12324,0,0,0-1.68674.63253c-.21085.42169.42168,1.26506,1.05421,1.1245s3.30322.28113,3.93575.21085.3514-.70282,1.26506-.56225,2.03815,1.61646,2.67068,1.89759a17.37853,17.37853,0,0,1,3.02209,1.05421c.84337.56225,1.4759,1.26506,2.67068.35141s3.86546-.492,4.8494-.70281.84337-.70281,1.12449-1.61647,1.96788-.70281,3.44378-.42168,3.02209,1.757,2.741.3514-1.89759-1.54618-2.53012-2.6004-.63253-2.10843-1.757-2.38956-2.88153.77309-3.09237.14056.28112-2.249-.21085-2.249-5.13052-.21085-5.62249-.77309-.63253-1.757-.14056-1.757,2.17872,1.96787,2.31928,1.33534-.91366-1.40562-1.19478-1.61647,1.05422.07028.91365-1.19478-.28112-1.68674-.98393-1.68674-2.6004,1.40562-3.30322,1.54618-4.0763.77309-4.498,1.4759-2.67068.14057-3.44377.56225-.35141,2.10844-.7731,2.60041a4.78206,4.78206,0,0,1-3.44377.84337c-1.05422-.28113-1.89759,1.40562-2.38956,1.54618s-1.54618-.07028-1.82731.14057S51.31526,53.56426,51.5261,53.84538Z"/>
      <path class="cls-6" d="M71.55625,50.61246a4.49983,4.49983,0,0,0-4.91971.42168c-.7028.63251-1.89759,1.68674-.7028,3.514a7.79339,7.79339,0,0,0,2.95182,1.96786,3.97073,3.97073,0,0,0,3.16265-.63252c.91363-.56227,1.40562-.63255,1.54618-1.68674S73.45383,51.80721,71.55625,50.61246Zm-1.47591,5.06023a1.757,1.757,0,1,1,1.757-1.757A1.757,1.757,0,0,1,70.08034,55.67269Z"/>
      <path class="cls-8" d="M56.51606,67.761s-.63253,1.05422.63253.70282,6.32531-2.88153,6.32531-2.88153-4.8494,1.40562-5.62249,1.757A5.11648,5.11648,0,0,1,56.51606,67.761Z"/>
      <path class="cls-8" d="M56.79719,66.28514s-.84337.91366,0,.91366,5.13052-2.31928,5.83333-2.67069a22.70683,22.70683,0,0,1,8.64458-1.757s-2.249-.63253-7.16867.98394S56.79719,66.28514,56.79719,66.28514Z"/>
      <path class="cls-8" d="M55.88353,65.65261a3.65445,3.65445,0,0,0,2.31928-.63253c.63253-.492,5.41165-2.38956,6.46586-2.81124s6.60643-.63253,6.60643-.63253-6.747,0-7.16867.21084-4.91968,2.03815-5.48193,2.249S55.04016,65.09036,55.88353,65.65261Z"/>
      <path class="cls-8" d="M55.18072,64.45783a.79137.79137,0,0,0,1.05422.28113c.77309-.28113,5.06024-2.60041,5.76305-3.02209a8.98142,8.98142,0,0,1,4.14659-.98394c1.54618.07028,4.498.35141,4.498.35141s-4.35743-1.33534-7.02811-.91366-4.77912,2.6004-5.27109,2.741S54.68876,63.8253,55.18072,64.45783Z"/>
      <path class="cls-8" d="M55.39157,62.63052c.35559.1778,1.89759-.3514,2.88152-1.05421s1.89759-1.47591,1.89759-1.47591l-3.65462,1.26506S54.82932,62.3494,55.39157,62.63052Z"/>
      <g>
        <path class="cls-1" d="M22.85071,66.98857l-1.60388-.22492a1.91279,1.91279,0,0,0-2.376,1.74451,1.66431,1.66431,0,0,0,.21039,1.23651l-.00379.02826L17.091,69.36338l.38617-2.75128-1.21509-.17065-.57275,4.07684,4.28058.79193a3.5673,3.5673,0,0,0,.26355-1.21234c.00348-.38544-.25769-.812-.22992-1.00928a.87513.87513,0,0,1,1.116-.80212l1.43359.2019a.86912.86912,0,0,1,.85224,1.07819c-.08466.59918-.44452.86829-1.13733.77112l-.22974-.033L21.894,71.76744l.32849.0459c1.28815.181,2.16718-.61127,2.37934-2.12214C24.81378,68.17967,24.1626,67.17271,22.85071,66.98857Z"/>
        <path class="cls-1" d="M16.95081,61.537l5.19055,3.97034,1.06909.15.444-3.16467,1.79858.25293.21192-1.51154-8.50415-1.19366Zm2.4765.36224,3.0368.427-.23578,1.68133L19.4231,61.92839Z"/>
        <path class="cls-1" d="M19.759,58.238a1.33536,1.33536,0,1,0-1.33532-1.33539A1.33537,1.33537,0,0,0,19.759,58.238Z"/>
        <path class="cls-1" d="M23.69476,51.31523a2.81136,2.81136,0,0,1,.03516-1.89759l-1.19476-.52709a4.4078,4.4078,0,0,0-.14057,3.02209c.56226,1.44073,2.31928,2.17871,2.88153,3.16266s-.31628,2.88153-.31628,2.88153l1.26507.73791A4.68431,4.68431,0,0,0,26.506,54.1616C26.014,53.5291,24.0813,52.08836,23.69476,51.31523Z"/>
        <path class="cls-1" d="M94.54846,25.46433h6.28314a.39724.39724,0,0,1,.39724.39724v.5057a.39723.39723,0,0,1-.39723.39723H94.54848a.39724.39724,0,0,1-.39724-.39724v-.50571A.39722.39722,0,0,1,94.54846,25.46433Z" transform="translate(26.23293 97.66291) rotate(-60.00292)"/>
        <polygon class="cls-1" points="26.688 44.454 25.646 43.853 23.39 47.76 24.432 48.361 25.238 46.964 30.272 50.122 30.963 49.02 25.889 45.838 26.688 44.454"/>
        <path class="cls-1" d="M31.14056,38.03569a3.87094,3.87094,0,1,0,3.76361,3.74225A3.75632,3.75632,0,0,0,31.14056,38.03569Zm2.30512,5.11938a2.5196,2.5196,0,1,1-.9939-3.30853A2.445,2.445,0,0,1,33.44568,43.15507Z"/>
        <path class="cls-1" d="M50.0462,21.871a3.871,3.871,0,1,0,3.76355,3.74231A3.75642,3.75642,0,0,0,50.0462,21.871Zm2.30512,5.11945a2.51963,2.51963,0,1,1-.994-3.30859A2.44505,2.44505,0,0,1,52.35132,26.99046Z"/>
        <path class="cls-1" d="M37.8916,33.5341a2.317,2.317,0,0,0-2.987-.70276c-.38653.28107-2.694,2.93994-2.694,2.93994l4.95484,4.95484.814-.814L36.36731,38.3c.28754-.32581.65143-.74078.94257-1.08093l3.32263.70758.80822-1.511-3.24877-.5517A2.47072,2.47072,0,0,0,37.8916,33.5341Zm-1.19482,2.003a17.12653,17.12653,0,0,1-1.23194,1.86041L33.8783,35.811c.412-.61017,1.21081-1.64893,1.83453-1.574A1.06735,1.06735,0,0,1,36.69678,35.53715Z"/>
        <path class="cls-1" d="M42.10846,26.92772l.246,3.79516-3.97992-.26983L38.243,30.4066l-.02777.03564-.00739-.00049.00458.004-.34411.441,4.95483,4.95477.814-.814L40.68115,32.0717c1.0705.02368,3.10669.07532,3.18433.12707.079.05268-.17755-2.26349-.3111-3.42712l3.30988,3.30981.814-.8139-4.95483-4.95483Z"/>
        <path class="cls-1" d="M69.06122,18.38853a2.20987,2.20987,0,0,1,1.75708,1.0542l1.12445-.98389s-.38654-1.22992-2.77606-1.47595c-2.38959-.246-4.21686,2.14362-4.11145,4.21692a3.52881,3.52881,0,0,0,3.23291,3.514c1.79217.246,3.40863-1.12451,3.26806-2.28412l-1.44073-.10547s-.16339,1.13922-1.82733.84338a2.10248,2.10248,0,0,1-1.61646-2.53009C66.84741,19.79417,67.58875,18.26585,69.06122,18.38853Z"/>
        <path class="cls-1" d="M84.86243,24.0894a2.10245,2.10245,0,0,1-1.19574-2.754c.30694-.805,1.28082-2.19672,2.71533-1.84259a2.20972,2.20972,0,0,1,1.568,1.319l1.26606-.79364s-.18708-1.27557-2.50763-1.89655c-2.3205-.621-4.50293,1.44935-4.72687,3.51319a3.52888,3.52888,0,0,0,2.63617,3.98132c1.73065.52649,3.54364-.571,3.58832-1.73822l-1.406-.33209S86.45862,24.64482,84.86243,24.0894Z"/>
        <path class="cls-1" d="M93.87634,21.79173a2.20983,2.20983,0,0,1,1.41138,1.48541l1.34656-.64758s-.04376-1.28851-2.2807-2.16419c-2.23688-.87561-4.63636.93866-5.08887,2.96473a3.52883,3.52883,0,0,0,2.17621,4.25024c1.66125.716,3.58514-.17261,3.75964-1.32764l-1.36017-.48663s-.46191,1.05408-1.98626.32434a2.10252,2.10252,0,0,1-.88147-2.87012C91.36737,22.55455,92.49023,21.28,93.87634,21.79173Z"/>
        <path class="cls-1" d="M77.09448,16.56395a3.60921,3.60921,0,0,0-3.32684,2.63989,22.37351,22.37351,0,0,0-.73145,4.90259.67346.67346,0,0,0,1.345.07257c.02405-.44446.08606-1.27912.18561-2.13111l4.20374.28022c-.03613.82324-.08624,1.59234-.11957,2.02667a.673.673,0,0,0,.61987.723c.01764.00159.035.00214.05237.00214a.67329.67329,0,0,0,.67059-.62195,39.42893,39.42893,0,0,0,.10132-5.28089A2.75419,2.75419,0,0,0,77.09448,16.56395ZM78.81165,20.981l-4.05048-.27A5.83814,5.83814,0,0,1,75.02,19.69957c.49542-1.25135,1.09711-1.78907,2.00635-1.78907l.04345.00049c1.09314.02,1.55121.412,1.69037,1.446A12.62589,12.62589,0,0,1,78.81165,20.981Z"/>
        <path class="cls-1" d="M105.23773,25.22416a3.49579,3.49579,0,0,0-3.98767.90857,19.83194,19.83194,0,0,0-2.52173,3.87378.64055.64055,0,0,0,.30066.85791.65042.65042,0,0,0,.87763-.25622c.19073-.36823.564-1.05274.97754-1.73706l3.66235,1.92578c-.3457.68524-.68335,1.319-.87854,1.67474a.63838.63838,0,0,0,.28058.8634c.0152.00843.03058.01587.04614.02283a.64829.64829,0,0,0,.838-.25946A34.83188,34.83188,0,0,0,106.93347,28.65,2.66039,2.66039,0,0,0,105.23773,25.22416Zm.43036,3.04291a11.15413,11.15413,0,0,1-.572,1.40119l-3.52881-1.85553a5.21731,5.21731,0,0,1,.617-.75592c.92041-.86481,1.66461-1.08039,2.47985-.71534l.0387.01783C105.67535,26.81517,105.93683,27.33226,105.66809,28.26707Z"/>
      </g>
      <path class="cls-5" d="M112.10843,47.94177s.70281,3.09237,3.23294,3.09237,4.0763-3.09237,6.04417-4.498,4.91968-2.38955,4.35743-6.747c0,0-.84337,4.35743-3.93574,4.498a22.1793,22.1793,0,0,0-5.62249.84337C115.2008,45.41165,112.10843,47.94177,112.10843,47.94177Z"/>
      <path class="cls-5" d="M116.46586,64.52811s7.30924,6.88755,8.15261,9.83936-.56225,7.73092-1.54618,10.82329-4.63856,5.48193-4.63856,5.48193l-3.514,5.90362s5.2008-4.35743,8.01205-7.16868,5.2008-3.51406,6.3253-7.4498,2.81124-3.37349,1.26506-8.01205-3.3735-7.02811-3.79518-8.43373-.14056-3.23293-1.26506-2.67068-2.53012.42168-3.93575-1.54619-3.514-5.34136-3.09237-3.23293-1.26506,4.0763-2.53012,3.51406S116.46586,64.52811,116.46586,64.52811Z"/>
      <path class="cls-5" d="M131.36546,57.5a22.99367,22.99367,0,0,0,.70281,4.91968c.56225,1.54618.56225,3.65462,1.26506,5.2008s2.10844,1.82731,1.26506,4.91968-3.09237,13.21285-4.0763,14.759-7.16868,12.51-9.27711,13.7751-5.34137,4.63855-9.83936,5.2008a15.61659,15.61659,0,0,0-10.261,5.62249c-1.82731,2.53012-2.67068,4.77912-3.79518,4.35743a4.07049,4.07049,0,0,0-2.53012.14056v1.54619s2.81124,1.40562,3.65462.14056,3.37349-7.59036,5.62249-8.15261,10.12048-.98394,12.79116-2.53012,3.65462-4.07631,4.07631-4.498,6.88755-8.43374,8.29317-11.10442,1.68675-5.34137,3.23293-4.91968,2.10843,3.37349,2.10843,3.37349,4.91968-14.05622,1.26506-26.84739a2.56585,2.56585,0,0,1-1.96787-1.40562C133.33333,60.73293,131.36546,57.5,131.36546,57.5Z"/>
    </g>
  </g>
</svg>
