<svg id="Layer_1" data-name="Layer 1" xmlns="http://www.w3.org/2000/svg" width="150" height="150" viewBox="0 0 150 150"><path d="M90.91,15.66c-.36,1.08-.64,2.19-1.08,3.23-2.38,5.68-5.09,11.25-7.14,17-3,8.56-6,17.18-8.24,26a178.23,178.23,0,0,0-5.33,35.76c-.21,4.21-1.2,7.64-4.8,10.24a75.32,75.32,0,0,0-7,6.27c-1.06,1-1.86.85-2.79-.15-3.4-3.67-6.85-7.28-10.22-11a1.93,1.93,0,0,1-.27-1.57,211,211,0,0,1,41.36-81c1.32-1.59,2.82-3,4.25-4.53a3.48,3.48,0,0,1,.8-.46Z" fill="#eee"/><path d="M73.83,108.78a40.59,40.59,0,0,1,18.11,4.29c-.55.9-.94,1.64-1.42,2.3-1.62,2.24-3.36,4.4-4.92,6.68-2.64,3.88-1.14,8.16,3.37,9.59,1.5.48,3.11.65,4.65,1a18.86,18.86,0,0,1,2.26,1,21,21,0,0,1-1.69,1.25c-3,1.77-6,3.49-9,5.27-2.54,1.51-3.12,1.47-5.36-.39-2-1.67-4.13-3.18-6-5A5.72,5.72,0,0,1,72,131.72a80.91,80.91,0,0,1-1.26-11.88c0-9.41-.07-18.86.68-28.23a173.75,173.75,0,0,1,6.33-34.95A225.42,225.42,0,0,1,90.14,23.42a47.26,47.26,0,0,1,2.77-4.84c.26-.42.86-.62,1.3-.93a4.56,4.56,0,0,1,.15,1.73,49.93,49.93,0,0,1-2,4.87c-4.09,8.69-5.29,17.89-5,27.37.14,3.77.29,7.55.43,11.32a4.63,4.63,0,0,1-2.1,4.52c-1.34.83-1.43,2.26-1.58,3.65-.28,2.51-.5,2.71-3,3.09-5,.79-5.33,1-6.28,6C73.18,89.59,73.22,99,73.83,108.78Z" fill="#eee"/><path d="M42.32,111.18c1.68,1.64,3.06,2.95,4.39,4.3,2.43,2.46,4.83,4.94,7.23,7.43a1.91,1.91,0,0,0,3,.13c2.82-2.42,5.68-4.79,8.55-7.17.67-.56,1.41-1.05,2.51-1.87.54,6.26,1,12.1,1.57,18.1H67.51c-5.41,0-10.84-.14-16.23.23-3.35.23-6.64,1.32-10,2-.61.13-1.25.15-2.15.26C39,126.67,40.36,119.13,42.32,111.18Z" fill="#eee"/><path d="M85.85,76.89c.42-2.48-.43-5.16.83-7.55l.54-.13a15.22,15.22,0,0,1,1,2.78c.59,4.05,1.09,8.12,1.6,12.18.71,5.59,1.43,11.18,2.09,16.77a26.76,26.76,0,0,1,0,3.23l-.52.11-1-3.66c-2.27,2.56-1.08,6-2.67,8.83-2.08-4,0-8.14-1.6-11.83-2,2.91-.35,6.57-2.17,9.85-1-2.29-.8-4.44-.93-6.55a34.9,34.9,0,0,0-.87-6.21c-1.87,3.62-.27,7.94-2.81,11.74-1-3.71.32-7.57-2.15-10.63-1.63,3.46-.5,7.24-1.81,10.79a6.34,6.34,0,0,1-.26-1.19,193.57,193.57,0,0,1,1.2-26.91c.19-1.6,1-2.32,2.5-2.21C81.16,76.46,83.48,76.69,85.85,76.89Z" fill="#eee"/><path d="M89.45,122.11l-.27,1.76,2.54-2.33-.13-.28-1.49.34a7.48,7.48,0,0,1,1.73-4.71c.76-.93,1.58-.75,2,.41a5.44,5.44,0,0,1,.38,2c-.07,2.71-.22,5.41-.36,8.12-.08,1.51-.94,2.08-2.41,2.1-3.73,0-5.82-2.92-4.27-6.14C87.6,122.55,88.11,121.83,89.45,122.11Z" fill="#eee"/><path d="M92.58,10.69a7.94,7.94,0,0,1,5.79,2.85,2.09,2.09,0,0,1,.3,1.93,2.2,2.2,0,0,1-1.9.82,27.42,27.42,0,0,1-5-2.62,2.26,2.26,0,0,1-.69-2C91.28,11.12,92.27,10.87,92.58,10.69Z" fill="#fff"/><path d="M98.61,6.84c1.29,0,2,.69,1.94,1.89s-.56,2-1.81,2a2,2,0,0,1-2-2C96.66,7.35,97.56,6.94,98.61,6.84Z" fill="#fff"/><path d="M91.29,124.53c-.32.13-.39.94-.11,1.52.35.75,1.29,1.16,1.56.93s.07-.52,0-.77C92.49,125.29,91.68,124.38,91.29,124.53Z"/><path d="M37.49,131.14a134.24,134.24,0,0,1,5.3-31.37c2-6.78,3.86-13.6,6.35-20.19,7-18.59,16.08-36.11,28.21-51.95,4.07-5.32,7.94-10.79,11.88-16.21,2.31-3.17,5.77-4.8,9-6.69,1.39-.81,3,.14,3.7,1.77,1.54,3.61-.5,10-3.91,11.88a5.44,5.44,0,0,0-2.69,3.31c-1.22,3.73-2.81,7.34-4,11.07a42.48,42.48,0,0,0-1.77,13.55c0,6.92,0,13.85.28,20.76.27,5.78.51,11.65,1.74,17.27,1.94,8.91,1.73,18,3,26.93,1,7.37,1.83,14.78,2.8,22.17a2.12,2.12,0,0,1-1.27,2.49c-4,2.28-7.84,4.67-11.7,7.11-2.59,1.64-2.65,1.69-4.56-.72a22.75,22.75,0,0,0-13.3-8.19,25.57,25.57,0,0,0-8.24-.13c-6.11.68-12.2,1.61-18.28,2.58-1.3.21-1.84-.2-2-1.3C37.72,133.71,37.6,132.12,37.49,131.14ZM90.91,15.66l-.47-.2a3.48,3.48,0,0,0-.8.46c-1.43,1.5-2.93,2.94-4.25,4.53a211,211,0,0,0-41.36,81,1.93,1.93,0,0,0,.27,1.57c3.37,3.69,6.82,7.3,10.22,11,.93,1,1.73,1.14,2.79.15a75.32,75.32,0,0,1,7-6.27c3.6-2.6,4.59-6,4.8-10.24A178.23,178.23,0,0,1,74.45,61.9c2.25-8.78,5.22-17.4,8.24-26,2-5.8,4.76-11.37,7.14-17C90.27,17.85,90.55,16.74,90.91,15.66ZM73.83,108.78C73.22,99,73.18,89.59,75,80.22c1-5,1.24-5.23,6.28-6,2.45-.38,2.67-.58,3-3.09.15-1.39.24-2.82,1.58-3.65a4.63,4.63,0,0,0,2.1-4.52c-.14-3.77-.29-7.55-.43-11.32-.33-9.48.87-18.68,5-27.37a49.93,49.93,0,0,0,2-4.87,4.56,4.56,0,0,0-.15-1.73c-.44.31-1,.51-1.3.93a47.26,47.26,0,0,0-2.77,4.84A225.42,225.42,0,0,0,77.76,56.66a173.75,173.75,0,0,0-6.33,35c-.75,9.37-.68,18.82-.68,28.23A80.91,80.91,0,0,0,72,131.72a5.72,5.72,0,0,0,1.75,3.07c1.9,1.78,4,3.29,6,5,2.24,1.86,2.82,1.9,5.36.39,3-1.78,6-3.5,9-5.27a21,21,0,0,0,1.69-1.25,18.86,18.86,0,0,0-2.26-1c-1.54-.38-3.15-.55-4.65-1-4.51-1.43-6-5.71-3.37-9.59,1.56-2.28,3.3-4.44,4.92-6.68.48-.66.87-1.4,1.42-2.3A40.59,40.59,0,0,0,73.83,108.78Zm-31.51,2.4c-2,7.95-3.33,15.49-3.15,23.41.9-.11,1.54-.13,2.15-.26,3.32-.68,6.61-1.77,10-2,5.39-.37,10.82-.19,16.23-.23h2.08c-.52-6-1-11.84-1.57-18.1-1.1.82-1.84,1.31-2.51,1.87-2.87,2.38-5.73,4.75-8.55,7.17a1.91,1.91,0,0,1-3-.13c-2.4-2.49-4.8-5-7.23-7.43C45.38,114.13,44,112.82,42.32,111.18ZM85.85,76.89c-2.37-.2-4.69-.43-7-.59-1.53-.11-2.31.61-2.5,2.21a193.57,193.57,0,0,0-1.2,26.91,6.34,6.34,0,0,0,.26,1.19c1.31-3.55.18-7.33,1.81-10.79,2.47,3.06,1.19,6.92,2.15,10.63,2.54-3.8.94-8.12,2.81-11.74a34.9,34.9,0,0,1,.87,6.21c.13,2.11-.09,4.26.93,6.55,1.82-3.28.15-6.94,2.17-9.85,1.57,3.69-.48,7.87,1.6,11.83,1.59-2.86.4-6.27,2.67-8.83l1,3.66.52-.11a26.76,26.76,0,0,0,0-3.23c-.66-5.59-1.38-11.18-2.09-16.77-.51-4.06-1-8.13-1.6-12.18a15.22,15.22,0,0,0-1-2.78l-.54.13C85.42,71.73,86.27,74.41,85.85,76.89Zm3.6,45.22c-1.34-.28-1.85.44-2.26,1.29-1.55,3.22.54,6.18,4.27,6.14,1.47,0,2.33-.59,2.41-2.1.14-2.71.29-5.41.36-8.12a5.44,5.44,0,0,0-.38-2c-.44-1.16-1.26-1.34-2-.41a7.48,7.48,0,0,0-1.73,4.71l1.49-.34.13.28-2.54,2.33ZM92.58,10.69c-.31.18-1.3.43-1.47,1a2.26,2.26,0,0,0,.69,2,27.42,27.42,0,0,0,5,2.62,2.2,2.2,0,0,0,1.9-.82,2.09,2.09,0,0,0-.3-1.93A7.94,7.94,0,0,0,92.58,10.69Zm6-3.85c-1,.1-2,.51-1.9,1.8a2,2,0,0,0,2,2c1.25.07,1.79-.83,1.81-2S99.9,6.87,98.61,6.84Z"/></svg>