<svg id="berlin_guard_icon" xmlns="http://www.w3.org/2000/svg" width="150" height="150" viewBox="0 0 150 150">
  <defs>
    <style>
      .cls-1 {
        fill: #151515;
      }

      .cls-1, .cls-2 {
        fill-rule: evenodd;
      }

      .cls-2 {
        fill: #eee;
      }
    </style>
  </defs>
  <path id="Shape_33_copy_8" data-name="Shape 33 copy 8" class="cls-1" d="M75,143.987c-3.285-1.549-14.632-6.9-26.656-12.593-9.768-4.622-16.533-10.182-21.29-17.5-5.26-8.087-8.01-18.435-8.409-31.634V5.81H105.26a39.817,39.817,0,0,0,26.095,26.212V82.264c-0.4,13.2-3.149,23.547-8.409,31.634-4.757,7.314-11.522,12.874-21.29,17.5C89.631,137.085,78.283,142.438,75,143.987Z"/>
  <path id="Shape_33_copy_9" data-name="Shape 33 copy 9" class="cls-2" d="M118.69,90.04l-4.554-4.554L104.23,95.39,100.84,92l5.549-5.549L102.24,82.3l-5.55,5.55L68.756,59.916l1.923-1.923-3.137-3.138-1.923,1.923L62.836,54l8.34-8.34a2.719,2.719,0,0,0,.49-3.178L65,29.672a6.992,6.992,0,0,0-11.146-1.717L31.634,50.179a6.992,6.992,0,0,0,1.717,11.146l12.8,6.663a2.719,2.719,0,0,0,3.178-.49l8.34-8.34,2.783,2.783-1.923,1.923L61.672,67l1.923-1.923,43.632,43.632,5.161-5.162-3.6-3.6ZM46.9,62.242L35.861,56.5a1.553,1.553,0,0,1-.381-2.475L57.7,31.8a1.5,1.5,0,0,1,1.087-.455,1.652,1.652,0,0,1,.247.019,1.522,1.522,0,0,1,1.141.818L65.92,43.219Z"/>
  <path id="Shape_33_copy_7" data-name="Shape 33 copy 7" class="cls-2" d="M103.061,8.87a42.981,42.981,0,0,0,25.234,25.341V82.218c-0.386,12.6-2.975,22.417-7.914,30.012a39.517,39.517,0,0,1-8.437,9.285,56.934,56.934,0,0,1-11.6,7.113C89.8,133.619,79.588,138.439,75,140.6c-4.588-2.165-14.8-6.985-25.347-11.976a56.934,56.934,0,0,1-11.6-7.113,39.5,39.5,0,0,1-8.437-9.285c-4.939-7.595-7.528-17.413-7.914-30.012V8.87h81.356M107.6,2.75H15.585V82.31c0.85,28.56,12.41,42.84,31.45,51.85,13.157,6.226,25.648,12.118,27.48,12.981a1.134,1.134,0,0,0,.97,0c1.832-.863,14.323-6.755,27.48-12.981,19.04-9.01,30.6-23.29,31.45-51.85V29.693A36.433,36.433,0,0,1,107.6,2.75h0Z"/>
  <path id="Shape_33_copy_6" data-name="Shape 33 copy 6" class="cls-1" d="M75,148.7a2.559,2.559,0,0,1-1.1-.247c-1.4-.658-14.027-6.615-27.481-12.982-10.41-4.926-17.979-11.178-23.139-19.112-5.729-8.809-8.718-19.931-9.137-34,0-.014,0-0.029,0-0.043V2.75A1.445,1.445,0,0,1,15.585,1.3H107.6a1.444,1.444,0,0,1,1.406,1.112,35.189,35.189,0,0,0,25.749,25.872,1.445,1.445,0,0,1,1.105,1.4V82.31c0,0.014,0,.029,0,0.043-0.418,14.07-3.407,25.192-9.136,34-5.161,7.934-12.73,14.186-23.14,19.112C90.129,141.833,77.5,147.79,76.1,148.448A2.555,2.555,0,0,1,75,148.7ZM17.03,82.288c0.769,25.648,9.928,40.773,30.623,50.566,13.1,6.2,25.426,12.013,27.347,12.919,1.923-.907,14.245-6.719,27.347-12.919,20.7-9.793,29.854-24.918,30.623-50.566V30.813a37.78,37.78,0,0,1-16.777-9.8,37.774,37.774,0,0,1-9.718-16.822H17.03V82.288Z"/>
</svg>
