<svg id="_75_regiment_icon" data-name="75_regiment_icon" xmlns="http://www.w3.org/2000/svg" width="150" height="150" viewBox="0 0 150 150">
  <defs>
    <style>
      .cls-1 {
        fill: #eee;
      }

      .cls-1, .cls-2 {
        fill-rule: evenodd;
      }

      .cls-2 {
        fill: #151515;
      }
    </style>
  </defs>
  <path class="cls-1" d="M126.945,124.493l-1.86-2.13a27.054,27.054,0,0,0-7.348-5.487,33.076,33.076,0,0,0-3.915-1.757V100.081a3.481,3.481,0,0,0-1.026-2.475l-6.545-6.546a3.587,3.587,0,0,0-4.69-.233L95.5,95.779l-4.358-3.63V70.043a3.506,3.506,0,0,0-2.731-3.415V31.457a3.479,3.479,0,0,0-2.2-3.249,3.4,3.4,0,0,0-1.462-.247l-6.3-24.333A3.5,3.5,0,0,0,75.06,1.006H74.941a3.5,3.5,0,0,0-3.388,2.622L65.247,27.961a3.447,3.447,0,0,0-1.457.245,3.482,3.482,0,0,0-2.2,3.251V66.628a3.506,3.506,0,0,0-2.731,3.415V92.149L54.5,95.779l-6.06-4.954a3.587,3.587,0,0,0-4.689.235L37.2,97.606a3.481,3.481,0,0,0-1.024,2.475v15.037a33.191,33.191,0,0,0-3.918,1.758,27.031,27.031,0,0,0-7.348,5.488l-1.857,2.126a3.485,3.485,0,0,0-.353,4.124,3.588,3.588,0,0,0,3.829,1.576l2.732-.674a51.429,51.429,0,0,1,10.816-1.153A33.849,33.849,0,0,1,51.436,130.1a54.626,54.626,0,0,1,13.829,7.114v3.351a8.442,8.442,0,0,0,8.432,8.432h2.6a8.442,8.442,0,0,0,8.432-8.432v-3.351A54.627,54.627,0,0,1,98.561,130.1a33.857,33.857,0,0,1,11.358-1.734,50.917,50.917,0,0,1,10.806,1.151l2.747,0.68a3.542,3.542,0,0,0,3.825-1.576A3.489,3.489,0,0,0,126.945,124.493Z"/>
  <path class="cls-2" d="M121.563,126.116a54.506,54.506,0,0,0-11.644-1.252A37.678,37.678,0,0,0,97.382,126.8c-9.549,3.418-14.9,7.651-16.15,8.707v5.053a4.937,4.937,0,0,1-4.932,4.932H73.7a4.937,4.937,0,0,1-4.932-4.932v-5.053c-1.244-1.055-6.6-5.289-16.15-8.707a37.674,37.674,0,0,0-12.536-1.938,54.51,54.51,0,0,0-11.645,1.252l-2.743.677,1.858-2.128a23.7,23.7,0,0,1,6.353-4.7,31.961,31.961,0,0,1,15.06-3.612c1.141,0,2.329.054,3.563,0.173C66.114,117.837,73.012,125.19,75,127.706c1.987-2.516,8.885-9.869,22.473-11.177,1.234-.119,2.423-0.174,3.564-0.174a31.954,31.954,0,0,1,15.059,3.613,23.7,23.7,0,0,1,6.353,4.7l1.861,2.131Zm-6.709-3.985a29.576,29.576,0,0,0-13.819-3.282c-1.091,0-2.209.054-3.323,0.162-14.378,1.384-20.548,9.881-21.2,10.845a1.825,1.825,0,0,1-3.016,0c-0.656-.964-6.826-9.461-21.2-10.845-1.114-.108-2.232-0.162-3.324-0.162a29.579,29.579,0,0,0-13.818,3.282q-0.494.261-.974,0.54,1.027-.105,2.058-0.176c1.261-.087,2.53-0.131,3.773-0.131a40.022,40.022,0,0,1,13.454,2.09c11.465,4.1,17.062,9.263,17.3,9.481l0.282,0.263,0.226,0.212v6.152A2.442,2.442,0,0,0,73.7,143h2.6a2.442,2.442,0,0,0,2.439-2.439V134.41l0.226-.212,0.282-.263c0.232-.218,5.83-5.377,17.295-9.481A40.021,40.021,0,0,1,110,122.364c1.241,0,2.511.044,3.773,0.131q1.029,0.07,2.058.176Q115.348,122.392,114.854,122.131ZM75.059,125.37H74.941s-10.923-15.078-35.262-9.736V100.081l6.545-6.545,8.3,6.783,7.836-6.531V70.043h2.731V31.457l2.256,2.375,7.6-29.326h0.119l7.6,29.326,2.256-2.375V70.043h2.731V93.789l7.836,6.531,8.3-6.783,6.545,6.545v15.553C85.982,110.292,75.059,125.37,75.059,125.37Z"/>
</svg>
