<svg id="Layer_1" data-name="Layer 1" xmlns="http://www.w3.org/2000/svg" viewBox="0 0 150 150"><defs><style>.cls-1{fill:#eee;}.cls-2{fill:#151515;}.cls-3{fill:#0e8140;}</style></defs><path class="cls-1" d="M72,134.58c-13.48-10-23.15-19-36.26-32.11l-2.06-2C20.38,87.21,6.66,73.55,6.66,53A40.34,40.34,0,0,1,47,12.68,39,39,0,0,1,75,24.66a39,39,0,0,1,28.05-12A40.34,40.34,0,0,1,143.34,53c0,20.58-13.72,34.24-27,47.46l-2.06,2C101.19,115.59,91.52,124.6,78,134.58l-3,2.25Z"/><path class="cls-2" d="M102.5,13.89A39.55,39.55,0,0,1,142,53.39c0,20.18-13.45,33.58-26.45,46.53l-2,2C100.67,114.79,91.2,123.62,78,133.41l-3,2.21-3-2.21c-13.22-9.79-22.69-18.62-35.56-31.48l-2-2C21.45,87,8,73.57,8,53.39a39.55,39.55,0,0,1,39.5-39.5A38.21,38.21,0,0,1,75,25.64a38.21,38.21,0,0,1,27.5-11.75m0-2a40.1,40.1,0,0,0-27.5,11A40.1,40.1,0,0,0,47.5,11.89,41.55,41.55,0,0,0,6,53.39c0,21,13.75,34.71,27,48l2,2C48,116.27,57.51,125.15,70.83,135l3,2.2,1.19.89,1.19-.89,3-2.2C92.49,125.15,102,116.27,115,103.34l2-2c13.29-13.24,27-26.94,27-47.95a41.55,41.55,0,0,0-41.5-41.5Z"/><path class="cls-3" d="M102.5,18.89C91,18.89,81.26,24.7,75,33.39c-6.26-8.69-16-14.5-27.5-14.5A34.5,34.5,0,0,0,13,53.39c0,19.06,13.53,31.53,27,45,12,12,21.5,21,35,31,13.5-10,23-19,35-31,13.47-13.47,27-25.94,27-45A34.5,34.5,0,0,0,102.5,18.89Z"/></svg>