<svg id="ger_berlin_engineer_2_icon" xmlns="http://www.w3.org/2000/svg" width="150" height="150" viewBox="0 0 150 150">
  <defs>
    <style>
      .cls-1, .cls-3 {
        fill: #151515;
      }

      .cls-2 {
        fill: #f2f2f2;
      }

      .cls-2, .cls-3 {
        fill-rule: evenodd;
      }
    </style>
  </defs>
  <rect id="Rectangle_2_copy_3" data-name="Rectangle 2 copy 3" class="cls-1" x="46" y="119" width="58" height="30"/>
  <path id="Rectangle_2_copy_3-2" data-name="Rectangle 2 copy 3" class="cls-2" d="M46,146v-3h58v3H46Zm0-24h58v3H46v-3Z"/>
  <path class="cls-3" d="M75,114.019c-2.594-1.223-11.576-5.462-20.906-9.876-7.661-3.625-12.967-7.986-16.7-13.726-4.125-6.343-6.282-14.458-6.6-24.811v-39.4A31.228,31.228,0,0,0,51.267,5.647H119.2V65.61c-0.314,10.353-2.47,18.468-6.595,24.81-3.731,5.736-9.037,10.1-16.7,13.725C86.485,108.6,77.577,112.8,75,114.019Z"/>
  <path class="cls-2" d="M116.8,7.968V65.494c-0.3,9.882-2.333,17.582-6.207,23.538a30.985,30.985,0,0,1-6.617,7.282,44.651,44.651,0,0,1-9.1,5.579c-8.222,3.891-16.073,7.6-19.877,9.389-3.6-1.7-11.608-5.478-19.88-9.392a44.692,44.692,0,0,1-9.1-5.579,30.982,30.982,0,0,1-6.617-7.282c-3.874-5.957-5.9-13.657-6.207-23.538V27.843A33.711,33.711,0,0,0,52.992,7.968H116.8m4.8-4.8H49.432A28.575,28.575,0,0,1,28.4,24.3V65.567c0.667,22.4,9.733,33.6,24.666,40.665,10.319,4.883,20.116,9.5,21.553,10.181a0.889,0.889,0,0,0,.761,0c1.437-.676,11.234-5.3,21.553-10.181,14.933-7.066,24-18.266,24.666-40.665V3.168h0Z"/>
  <path class="cls-3" d="M75,117.636a2.011,2.011,0,0,1-.863-0.194c-1.107-.521-11.118-5.243-21.553-10.181-8.164-3.864-14.1-8.767-18.148-14.99-4.493-6.909-6.837-15.632-7.166-26.666V24.3a1.133,1.133,0,0,1,.867-1.1A27.6,27.6,0,0,0,48.328,2.907a1.133,1.133,0,0,1,1.1-.876H121.6a1.133,1.133,0,0,1,1.133,1.133V65.6c-0.328,11.035-2.672,19.758-7.165,26.666-4.048,6.223-9.984,11.126-18.149,14.99-10.553,4.994-20.458,9.666-21.556,10.182A2,2,0,0,1,75,117.636ZM29.533,65.549c0.6,20.116,7.787,31.978,24.018,39.659C63.717,110.019,73.48,114.62,75,115.34c1.508-.711,11.172-5.269,21.448-10.132,16.235-7.68,23.414-19.543,24.018-39.659V4.3H50.313a29.62,29.62,0,0,1-7.622,13.193,29.63,29.63,0,0,1-13.158,7.686V65.549Z"/>
  <path class="cls-2" d="M103.778,55.128A28.778,28.778,0,1,1,75,26.349h0A28.778,28.778,0,0,1,103.778,55.128ZM75,21.676A33.338,33.338,0,1,1,61.981,24.3,33.338,33.338,0,0,1,75,21.676m0-2.881a36.333,36.333,0,1,0,36.333,36.333h0A36.333,36.333,0,0,0,75,18.795h0Z"/>
  <path id="_11" data-name="11" class="cls-2" d="M66.238,140.925h7.7v-2.911H71.661V126.73H69.568l-4.047,4.087,1.415,1.794,0.957-.658,1-1.415-0.379,1.535v5.941H66.238v2.911Zm11.24,0h7.7v-2.911H82.9V126.73H80.808l-4.047,4.087,1.416,1.794,0.957-.658,1-1.415-0.379,1.535v5.941H77.478v2.911Z"/>
</svg>
