<svg xmlns="http://www.w3.org/2000/svg" width="150" height="150" viewBox="0 0 150 150">
  <defs>
    <style>
      .cls-1 {
        fill: #151515;
      }

      .cls-2 {
        fill: #eee;
      }
    </style>
  </defs>
  <g id="Layer_5" data-name="Layer 5">
    <path class="cls-1" d="M73.20605,143.60717a54.92053,54.92053,0,0,1-54.85839-54.8584V6.39232h87.84179a39.10782,39.10782,0,0,0,25.46289,25.06641v57.29A54.92053,54.92053,0,0,1,76.794,143.60717Z"/>
    <path class="cls-2" d="M102.82847,11.68915A42.31293,42.31293,0,0,0,126.59535,35.112v53.361a49.89423,49.89423,0,0,1-49.83777,49.83777H73.24242A49.89423,49.89423,0,0,1,23.40465,88.47305V11.68915h79.42382m4.40343-7.83942H17.23658a1.67134,1.67134,0,0,0-1.67136,1.67133v82.952a57.67719,57.67719,0,0,0,57.6772,57.6772h3.51516a57.67719,57.67719,0,0,0,57.6772-57.6772v-57.837a1.68547,1.68547,0,0,0-1.27787-1.62264A34.3399,34.3399,0,0,1,108.84725,5.09988a1.685,1.685,0,0,0-1.61535-1.25015Z"/>
    <path class="cls-1" d="M106.9202,5.39238a38.10071,38.10071,0,0,0,25.732,25.32325V88.749a55.92184,55.92184,0,0,1-55.85858,55.85858H73.20642A55.92184,55.92184,0,0,1,17.34784,88.749V5.39238H106.9202m.97186-3H16.05341A1.70558,1.70558,0,0,0,14.34784,4.098V88.749a58.85858,58.85858,0,0,0,58.85858,58.85858h3.58716A58.85858,58.85858,0,0,0,135.65216,88.749V29.72741a1.72,1.72,0,0,0-1.30405-1.65589A35.04319,35.04319,0,0,1,109.54053,3.66814a1.71961,1.71961,0,0,0-1.64847-1.27576Z"/>
    <polygon class="cls-2" points="116.226 37.263 109.215 30.253 75 64.468 40.785 30.253 33.774 37.263 67.99 71.478 33.774 105.694 40.785 112.704 75 78.489 109.215 112.704 116.226 105.694 82.01 71.478 116.226 37.263"/>
  </g>
</svg>
