<svg id="jg52_2" xmlns="http://www.w3.org/2000/svg" width="150" height="150" viewBox="0 0 150 150">
  <defs>
    <style>
      .cls-1 {
        fill: #eee;
      }

      .cls-1, .cls-2, .cls-3 {
        fill-rule: evenodd;
      }

      .cls-2 {
        fill: #151515;
      }

      .cls-3 {
        fill: #ce2626;
      }
    </style>
  </defs>
  <path class="cls-1" d="M145.363,75A70.363,70.363,0,1,1,75,4.637,70.364,70.364,0,0,1,145.363,75Z"/>
  <path class="cls-2" d="M75,148.5A73.5,73.5,0,0,1,23.028,23.028,73.5,73.5,0,1,1,126.972,126.972,73.015,73.015,0,0,1,75,148.5ZM75,7.774A67.226,67.226,0,1,0,142.226,75,67.3,67.3,0,0,0,75,7.774Z"/>
  <path class="cls-2" d="M75.605,112.662l-0.1,1.114c-19.552-.438-35.91-14.3-39.668-32.251L19.091,90.4l1.82,0.982-8.515,1.345L17.549,86l0.07,2.132,17.755-9.4a38.276,38.276,0,0,1-.347-5.052c0-19.374,14.273-35.966,33.938-39.452l0.271,1.084a40.023,40.023,0,0,0-8.892,4.18l9.937,16.067-1.715,1.06-9.894-16A39.783,39.783,0,0,0,41.751,73.228c0,0.7.024,1.4,0.061,2.091l25.864-13.7L68.933,64,42.077,78.221a40.235,40.235,0,0,0,27.959,33.145l0.912-32.154,2.016,0.057-0.926,32.667C73.207,112.228,74.394,112.478,75.605,112.662Z"/>
  <path id="Shape_33_copy" data-name="Shape 33 copy" class="cls-3" d="M129.341,88.423c-4.258,0-5.154-2.465-4.93-3.809s0.672-2.913-1.568-3.585c-3.191-.957-5.269,1.907-7.843,4.258-5.154,4.706-8.516,4.706-8.516,4.706s0.449,7.171-3.137,9.636-10.756,1.793-10.756,1.793a6,6,0,0,1-1.13,2.276c3.175,1.659,7.009,3.683,7.789,4.179,1.375,0.875,1,3.875,1,3.875s4,3.125,5,4.75,0.5,2.875-.75,4.875a3.58,3.58,0,0,1-1.169,1.088c0,0.007.011,0.013,0.016,0.021,1.78,2.669-1.344,6.05-2.465,7.17a17.668,17.668,0,0,1-10.346,3.869c-4.744.059-8.028-1.179-10.045-2.972a3.431,3.431,0,0,1-.9-4.034,2.283,2.283,0,0,1-1.792-2.465c0.3-2.682,6.274-3.361,6.274-3.361s-9.412-4.033-10.532-13.893,7.843-16.134,7.843-16.134-6.274-3.361-7.619-6.274-0.224-8.963-.224-8.963a2.814,2.814,0,0,0-1.793.224c-1.12.448-3.959,3.326-7.171,4.482-5.6,2.017-12.325.9-12.325,0.9-0.448,2.241-4.482,7.619-5.378,8.067s-4.706,2.241-8.067,1.569A3.4,3.4,0,0,1,35.9,86.854,6.3,6.3,0,0,1,34.1,85.062c-0.448-.9-0.672-6.05.224-8.067s4.706-3.809,4.706-3.809,0.9-4.034,3.81-3.809S48,70.72,48.222,71.168a1.286,1.286,0,0,0,1.569.448c0.672-.224,2.893-2.274,4.706-3.361,3.361-2.017,7.843-2.017,8.515-2.017a4.439,4.439,0,0,0,3.809-1.793,20.571,20.571,0,0,1,1.552-1.84c-0.773-1.777-1.5-3.944-1.248-5.356a3.961,3.961,0,0,1,3.625-3.5A2.479,2.479,0,0,0,72.375,53L73,50.414a5.9,5.9,0,0,1-1.7-.534c-3.137-1.569-4.706-5.6-4.706-8.963a33.039,33.039,0,0,1,1.12-7.395,20.557,20.557,0,0,1,1.3-6.353c-4.494-5.978.612-8.919,0.612-8.919,0,1.468,1.479,3.411,2.61,4.683a12.861,12.861,0,0,1,5.791-2.184c-0.448-4.93,2.689-6.274,2.689-6.274A10.522,10.522,0,0,0,82.507,20.3s4.034-.224,6.722,1.12c4.844,2.422,6.5,8.515,5.826,12.325s-3.361,9.188-3.809,10.308-0.672,3.809,0,4.706,4.034,3.585,5.6,7.619,1.12,16.582,1.12,18.6,5.154,11.428,6.947,12.1,5.378-1.793,7.843-3.809,4.706-5.154,7.619-6.274c5.833-2.244,10.308,4.93,11.2,6.05s4.706,0.448,4.706.448S133.6,88.423,129.341,88.423ZM78.7,49.208a0.8,0.8,0,0,1-.267.23l-0.18,2.437,1.74,1.539c0.426-.667.725-1.069,0.725-1.069l0.448-3.809A2.968,2.968,0,0,0,78.7,49.208Z"/>
  <path class="cls-1" d="M75.417,34.75A1.75,1.75,0,1,1,77.167,33,1.75,1.75,0,0,1,75.417,34.75Zm-6.208.417a1.36,1.36,0,0,1-.958-1.542,1.36,1.36,0,0,1,.958-1.542,1.36,1.36,0,0,1,.958,1.542A1.36,1.36,0,0,1,69.208,35.167Z"/>
  <path class="cls-2" d="M137.173,83.975c-0.122.223-3.031,5.456-7.832,5.456-2.836,0-4.292-1.017-5.014-1.868a3.907,3.907,0,0,1-.91-3.116l0.049-.286c0.245-1.4.264-1.814-.913-2.167-1.979-.593-3.409.676-5.575,2.8-0.424.414-.855,0.835-1.3,1.241-3.774,3.446-6.7,4.5-8.167,4.826-0.009,2.144-.374,7.388-3.594,9.6-3.132,2.153-8.541,2.128-10.6,2.02a7.271,7.271,0,0,1-.646,1.221c3.095,1.329,6.649,3.095,7.322,4.44a9.618,9.618,0,0,1,.953,2.982c1.5,0.9,5.187,3.341,5.635,5.8,0.33,1.815-.559,4.027-1.943,5.879,0.794,2.135-.258,4.78-3.042,7.564a18.439,18.439,0,0,1-11.047,4.164l-0.335,0c-5.577,0-8.726-1.747-10.393-3.23a4.393,4.393,0,0,1-1.461-4.215,3.09,3.09,0,0,1-1.559-3.148c0.224-2.02,2.486-3.115,4.421-3.687-3.03-1.974-7.866-6.192-8.679-13.342C71.613,98.742,77.075,92.989,79.6,90.8c-2.017-1.208-5.656-3.634-6.745-5.991-1.062-2.3-.764-6.163-0.5-8.209-0.125.016-.236,0.029-0.32,0.037a14.527,14.527,0,0,0-1.475,1.043,22.152,22.152,0,0,1-5.631,3.4,28.258,28.258,0,0,1-11.964,1.06c-1.087,2.728-4.52,7.3-5.629,7.856-1.459.73-5.226,2.351-8.716,1.656a4.33,4.33,0,0,1-3.751-4.307,6.117,6.117,0,0,1-1.66-1.834c-0.577-1.156-.819-6.623.2-8.927,0.857-1.931,3.65-3.523,4.768-4.1,0.539-1.819,2.038-4.312,4.746-4.116,2.787,0.215,5.685,1.312,6.2,2.349-0.009-.02.023-0.017,0.078-0.018a0.816,0.816,0,0,0,.27-0.041,16.456,16.456,0,0,0,1.562-1.148,30.992,30.992,0,0,1,2.942-2.121,18.709,18.709,0,0,1,9.034-2.161,3.459,3.459,0,0,0,3-1.389c0.191-.254.383-0.492,0.575-0.727-0.6-2.565-1.246-6.43-.2-8.338,1.077-1.974,3.389-2.544,4.9-2.705l0.094-1.063c-0.176-.069-0.352-0.137-0.525-0.224-3.616-1.809-5.264-6.383-5.264-9.866a33.257,33.257,0,0,1,1.124-7.537,21.335,21.335,0,0,1,.885-5.131c-1.32-3.452-1.561-6.294-.693-8.462a5,5,0,0,1,2.712-2.9,1.009,1.009,0,0,1,1.35.949,5.494,5.494,0,0,0,1.381,3.8,13.973,13.973,0,0,1,4.624-1.748c-0.038-4.826,3.2-6.273,3.345-6.336a1.009,1.009,0,0,1,1.4,1,8.889,8.889,0,0,0,1.337,4.727,15.955,15.955,0,0,1,6.623,1.241c5.536,2.768,7.057,9.5,6.368,13.4a46.049,46.049,0,0,1-3.406,9.47c-0.214.471-.377,0.83-0.46,1.037a6.392,6.392,0,0,0-.13,3.727c0.112,0.149.417,0.459,0.739,0.785a21.392,21.392,0,0,1,5,7.073C99.067,59.3,99.1,67.228,98.993,73.767c-0.009.543-.016,0.959-0.016,1.21,0,1.764,4.947,10.525,6.3,11.161,0.814,0.3,3.246-.707,6.841-3.649,0.782-.641,1.542-1.4,2.348-2.205,1.674-1.675,3.405-3.406,5.548-4.231,6.02-2.316,10.55,3.9,12.04,5.941,0.132,0.181.237,0.325,0.313,0.421,0.318,0.318,2.172.363,3.743,0.085A1.008,1.008,0,0,1,137.173,83.975ZM104.6,117.287c-0.25-1.376-3.137-3.567-5.108-4.682a1.012,1.012,0,0,1-.512-0.878,6.967,6.967,0,0,0-.789-2.686c-0.385-.686-3.449-2.256-6.817-3.693a18.844,18.844,0,0,1-2.154,1.941c1.056,0.535,2.707,1.425,5.228,2.895a11.746,11.746,0,0,1,6.04,8.137,16.949,16.949,0,0,1,2.977,2.663A5.771,5.771,0,0,0,104.6,117.287ZM68.154,55.742c-0.509.933-.316,3.24,0.121,5.541,0.226-.216.451-0.422,0.674-0.616-0.268-1.726-.311-3.562.459-4.485a3.642,3.642,0,0,1,1.607-1.074l0.087-.983A3.977,3.977,0,0,0,68.154,55.742Zm2.8,1.73a3.3,3.3,0,0,0-.137,1.783,15.813,15.813,0,0,1,3.418-1.681c0-.008,0-0.023,0-0.03a1.705,1.705,0,0,0-1.359-.681c-0.085-.007-0.17-0.011-0.254-0.011A2.237,2.237,0,0,0,70.957,57.472Zm5.871-4.617c-0.02-.536-0.049-1.1-0.083-1.678-0.245.065-.414,0.1-0.44,0.108a9.789,9.789,0,0,1-2.945.189l-0.3,3.382a4.422,4.422,0,0,1,1.155.275A13.182,13.182,0,0,1,76.829,52.855Zm-1,3.494c0.048,0.07.114,0.127,0.156,0.2a1.912,1.912,0,0,1,.173.429,2.19,2.19,0,0,0,1.2-.848l0.005-.01c0.286-.629.586-1.209,0.877-1.735-0.011,0-.03,0-0.04.006A8.784,8.784,0,0,0,75.832,56.349ZM69.174,19.787a3.911,3.911,0,0,0-.423.814,7.954,7.954,0,0,0,.027,4.673,9.708,9.708,0,0,1,1.952-2.435A7.22,7.22,0,0,1,69.174,19.787ZM68.539,34.38a0.8,0.8,0,0,0,.635.375,1.3,1.3,0,0,0,0-2.466,0.677,0.677,0,0,0-.369.122c-0.074.69-.078,1.1-0.078,1.114a1.04,1.04,0,0,1-.037.268C68.687,33.8,68.627,34.02,68.539,34.38Zm62.256,49.295c-0.09-.112-0.214-0.28-0.368-0.491-2.2-3.009-5.6-6.817-9.687-5.247-1.743.67-3.321,2.248-4.846,3.773-0.805.8-1.636,1.636-2.5,2.34-4.053,3.314-7.025,4.651-8.836,3.974-2.348-.881-7.6-10.906-7.6-13.046,0-.258.008-0.686,0.017-1.244,0.058-3.376.231-13.649-1.067-16.989a19.346,19.346,0,0,0-4.554-6.388,11.5,11.5,0,0,1-.916-0.991c-0.973-1.3-.637-4.418-0.13-5.686,0.09-.224.266-0.612,0.5-1.12a44.585,44.585,0,0,0,3.257-8.988c0.563-3.189-.727-8.969-5.284-11.247-2.41-1.2-6.175-1.016-6.217-1.017a1.012,1.012,0,0,1-.884-0.433,12.846,12.846,0,0,1-1.817-4.3,6.126,6.126,0,0,0-.831,4.086,1.007,1.007,0,0,1-.924,1.1c-0.059,0-6.207.578-8.1,5.624a21.033,21.033,0,0,0-.989,3.585c0.053,0,.1-0.018.157-0.018a2.6,2.6,0,0,1,0,5.153,1.982,1.982,0,0,1-.962-0.26,26.876,26.876,0,0,0-.606,5.078c0,2.883,1.3,6.636,4.148,8.063,2.474,1.234,5.6-.022,6.149-0.4a3.926,3.926,0,0,1,3.578-1,1.008,1.008,0,0,1,.683,1.073l-0.176,1.5A6.3,6.3,0,0,1,84.1,49.115a1.009,1.009,0,0,1,.408,1.976c-0.082.02-2.969,0.783-5.346,5.935l0,0.006A4.066,4.066,0,0,1,76.777,58.9c-0.163.054-.364,0.111-0.6,0.179a14.945,14.945,0,0,0-8.548,5.969,5.447,5.447,0,0,1-4.616,2.2c-1.144,0-5.1.135-8,1.873A29.623,29.623,0,0,0,52.277,71.1a9.428,9.428,0,0,1-2.167,1.473,2.3,2.3,0,0,1-2.731-.845,10.126,10.126,0,0,0-4.612-1.347c-1.97-.152-2.741,2.991-2.748,3.022a1.007,1.007,0,0,1-.555.693c-1.343.634-3.674,2.092-4.213,3.307-0.756,1.7-.577,6.432-0.24,7.215a5.16,5.16,0,0,0,1.447,1.4A1.009,1.009,0,0,1,36.9,87a2.358,2.358,0,0,0,2.112,2.678c2.956,0.6,6.427-.983,7.419-1.481,0.747-.492,4.453-5.428,4.84-7.363a1.019,1.019,0,0,1,1.154-.8c0.064,0.011,6.54,1.05,11.817-.851a20.5,20.5,0,0,0,5.094-3.105,11.4,11.4,0,0,1,1.974-1.328l0.029-.015c0.013-.005.028-0.015,0.041-0.02a4.551,4.551,0,0,1,1.691-.352c0.07,0,.129,0,0.191.008a13.933,13.933,0,0,0,5.257-2.644,9.62,9.62,0,0,0,2.418-3.4,13.128,13.128,0,0,1,1.711-2.753,4.5,4.5,0,0,1,4.942-1.168,1.008,1.008,0,0,1-.748,1.873,2.5,2.5,0,0,0-2.677.623,11.5,11.5,0,0,0-1.433,2.344A11.494,11.494,0,0,1,79.776,73.3a16.045,16.045,0,0,1-5.328,2.836c-0.3,1.914-.663,5.884.236,7.831,0.984,2.135,5.517,4.917,7.18,5.809a1.009,1.009,0,0,1,.1,1.714c-0.085.06-8.458,6.066-7.42,15.194s9.84,13.043,9.929,13.081a1.009,1.009,0,0,1-.284,1.929c-2.088.24-5.244,1.191-5.387,2.471a1.24,1.24,0,0,0,1.019,1.372,1.016,1.016,0,0,1,.673,1.432,2.391,2.391,0,0,0,.664,2.828c1.435,1.276,4.223,2.77,9.362,2.719a16.7,16.7,0,0,0,9.646-3.573c1.131-1.132,3.624-3.972,2.339-5.9a13.935,13.935,0,0,0-3.513-3.3,1.01,1.01,0,0,1-.465-0.8c-0.01-.165-0.3-4.22-5.1-7.02a53.579,53.579,0,0,0-6.544-3.5,1.011,1.011,0,0,1-.2-1.81c1.208-.75,4.447-3.183,4.923-5.4a1.017,1.017,0,0,1,1.08-.793c0.067,0,6.852.606,10.091-1.62,2.546-1.751,2.814-6.9,2.7-8.741a1.01,1.01,0,0,1,1.006-1.071c0.018,0,3.11-.127,7.835-4.441,0.427-.391.841-0.795,1.248-1.193,2.136-2.091,4.345-4.248,7.566-3.286,2.946,0.884,2.538,3.2,2.319,4.448l-0.046.268a1.893,1.893,0,0,0,.46,1.481,2.947,2.947,0,0,0,1.314.837,6.429,6.429,0,0,1-.528-2.707,15.981,15.981,0,0,0,3.072,2.992,4.751,4.751,0,0,0,.957-0.177,5.764,5.764,0,0,1-1.8-3.053A16.037,16.037,0,0,0,132.6,86.21a9.973,9.973,0,0,0,1.584-1.5C132.877,84.755,131.476,84.525,130.795,83.674ZM78.731,50.427c0.047,0.693.085,1.328,0.11,1.892a5.663,5.663,0,0,1,.613.071c0.114-.169.216-0.318,0.29-0.422l0.278-2.374a1.969,1.969,0,0,0-.5.2A2.369,2.369,0,0,1,78.731,50.427Zm9.847-9.861a1.008,1.008,0,0,1-.118-1.421c1.969-2.327,3.071-4.565,2.878-5.841a1.277,1.277,0,0,0-.633-0.948c-1.773-1.131-3.636.5-3.714,0.57a1.008,1.008,0,0,1-1.353-1.5c1.05-.955,3.685-2.348,6.15-0.776A3.3,3.3,0,0,1,93.331,33c0.394,2.587-1.918,5.775-3.332,7.446A1.007,1.007,0,0,1,88.578,40.566Zm-18.359,4.5h-0.08a1.009,1.009,0,0,1-.964-1.052,1.03,1.03,0,0,1,1.043-.964c0.173,0.011,4.648,0,8.719-7.326a1.009,1.009,0,0,1,1.764.98C76.217,44.768,70.958,45.063,70.219,45.063Zm5.342-9.413a2.577,2.577,0,1,1,2.576-2.576A2.579,2.579,0,0,1,75.561,35.65Zm0-3.809a1.233,1.233,0,1,0,1.232,1.233A1.235,1.235,0,0,0,75.561,31.841Zm-1.024,6.12a4.506,4.506,0,0,1-3.393,3.573,3.274,3.274,0,0,1-.67.07,2.355,2.355,0,0,1-2.025-1.024,3.508,3.508,0,0,1,.522-4.129A1.009,1.009,0,0,1,70.5,37.759c-0.02.023-.826,1.03-0.379,1.7a0.68,0.68,0,0,0,.609.1,2.478,2.478,0,0,0,1.817-1.96A1.008,1.008,0,1,1,74.536,37.961Z"/>
</svg>
