<svg id="ger_berlin_prem_tank_2_icon" xmlns="http://www.w3.org/2000/svg" width="150" height="150" viewBox="0 0 150 150">
  <defs>
    <style>
      .cls-1 {
        fill: #151515;
      }

      .cls-1, .cls-2 {
        fill-rule: evenodd;
      }

      .cls-2 {
        fill: #f2f2f2;
      }
    </style>
  </defs>
  <path class="cls-1" d="M75,143.755c-3.285-1.549-14.632-6.9-26.656-12.593-9.768-4.622-16.533-10.182-21.29-17.5-5.26-8.087-8.01-18.435-8.409-31.634V5.578H105.26A39.817,39.817,0,0,0,131.355,31.79V82.032c-0.4,13.2-3.149,23.547-8.409,31.634-4.757,7.314-11.522,12.874-21.29,17.5C89.631,136.853,78.283,142.206,75,143.755Z"/>
  <path class="cls-2" d="M103.061,8.537a42.981,42.981,0,0,0,25.234,25.341V81.885c-0.386,12.6-2.975,22.417-7.914,30.012a39.525,39.525,0,0,1-8.437,9.285,56.946,56.946,0,0,1-11.6,7.113C89.8,133.286,79.588,138.106,75,140.267c-4.588-2.165-14.8-6.985-25.347-11.976a56.954,56.954,0,0,1-11.6-7.113,39.518,39.518,0,0,1-8.437-9.285C24.677,104.3,22.088,94.48,21.7,81.881V8.537h81.356m4.542-6.12H15.585v79.56c0.85,28.56,12.41,42.84,31.45,51.85,13.157,6.226,25.648,12.118,27.48,12.981a1.136,1.136,0,0,0,.97,0c1.832-.863,14.323-6.755,27.48-12.981,19.04-9.01,30.6-23.29,31.45-51.85V29.36A36.433,36.433,0,0,1,107.6,2.417h0Z"/>
  <path class="cls-2" d="M117.776,44.758c-1.181,2.01-3.174,2.4-5.245,3.031-1.026.313-2,.915-1.436,2.067a5.137,5.137,0,0,0,1.179,1.2,30.431,30.431,0,0,1,2.311,2.216c2.969,3.384,2.037,7.963-2.233,9.692-2.607,1.056-5.4.509-8.091,0.142a11.041,11.041,0,0,0-4.566.043c-2.24.664,0.147,1.116,1.166,1.391,4.079,1.1,5.27,6.126,2.807,9.36-3.269,4.293-9.015,3.55-13.682,2.812a22.583,22.583,0,0,0-4.948-.393c-1.072.068-3.348,0.343-3.824,1.554-0.463,1.177,1.307,2.416,1.948,3.184a6.657,6.657,0,0,1,1.356,2.393c1.286,4.384-2.26,8.482-6.35,9.465a16.109,16.109,0,0,1-7.438-.229c-1.194-.281-8.036-2.992-8.609-1.965-0.446.8,1.675,2.481,2.116,3.07a4.1,4.1,0,0,1-2.619,6.77c-2.544.616-5.5-.4-7.905-1.153a44.243,44.243,0,0,1-7.673-3.274,1.3,1.3,0,0,1-.65-0.745c-1.225.927-2.421,1.9-3.6,2.883l-4.278,4.55-6.136-6.969,7.566-6.594a10.751,10.751,0,0,1,2.4-2.189,55.7,55.7,0,0,1-1.562-7.929C39.415,76,38.333,68.663,43.461,68.69a12.479,12.479,0,0,1,2.939.685,1.561,1.561,0,0,0,1.754-.174,2.052,2.052,0,0,0,.5-1.755c-0.081-2.781-1.327-5.427-.272-8.182a5.265,5.265,0,0,1,4.008-3.556c2.143-.283,3.692,1.114,5.374,2.188,5.2,3.32,5.2-8,5.875-10.734,1.058-4.275,4.1-8.707,8.9-8.994a8.255,8.255,0,0,1,5.5,2.058c1.745,1.336,3.916,3.737,6.309,2.464,2.189-1.164,3.019-4.014,3.98-6.109a9.588,9.588,0,0,1,4.167-4.928,5.6,5.6,0,0,1,5.66.153,5.222,5.222,0,0,1,1.7,2.265c0.377,0.857.531,2.164,1.235,2.817,1.115,1.035,2.847-.277,3.926-0.873a13.148,13.148,0,0,1,3.23-1.343,9.632,9.632,0,0,1,6.339.47A7,7,0,0,1,117.776,44.758Zm-6.615-7.5c-2.415-.12-4.179,1.134-6.242,2.119-1.772.847-3.789,1.264-5.449-.031-1.486-1.159-1.495-2.93-2.377-4.438-1.591-2.72-4.639.1-5.6,1.838-1.074,1.944-1.643,4.128-2.969,5.935-2.505,3.413-6.292,4.192-9.751,1.693-1.675-1.21-3.285-3.174-5.454-3.415-2.273-.252-4.38,1.467-5.541,3.26-2.633,4.067-1.522,9.286-3.488,13.568-1.672,3.642-5.085,4.375-8.278,2.133-0.87-.611-1.962-1.712-3.113-1.644-1.233.073-2,1.4-2.238,2.465-0.557,2.483.721,4.974,0.5,7.469a3.98,3.98,0,0,1-2.695,3.748c-1.816.482-3.317-1.008-5.009-.8-2.458.3-1.543,5.3-1.432,6.93a69.324,69.324,0,0,0,1.129,8.733,1.114,1.114,0,0,1,.344.993c-0.17,1.112-.826,1.475-1.633,2.216s-1.587,1.471-2.38,2.207c-1.311,1.216-2.584,2.531-3.975,3.669a8.878,8.878,0,0,1,2.29,2.457c2.269-1.98,4.623-3.843,6.962-5.744a1.282,1.282,0,0,1,2.19.874,1.5,1.5,0,0,1,.537.165,41.507,41.507,0,0,0,8.665,3.415c1.463,0.389,3.481,1.126,4.981.587,2.309-.83.33-2.509-0.537-3.507-1.255-1.444-2.167-3.622-.868-5.328,1.414-1.858,3.922-1.2,5.83-.674,4.456,1.23,13.789,5.144,16.1-1.477,0.994-2.846-1.366-3.977-2.693-6.024a4.066,4.066,0,0,1,.581-5.341c3.569-3.376,9.48-1.528,13.7-1.008,2.578,0.318,5.652.328,7.661-1.6,1.675-1.605,1.673-4.648-.827-5.354-1.853-.523-4.127-0.927-4.484-3.243-0.3-1.935,1.359-3.182,3-3.712,2.33-.75,4.774-0.374,7.141-0.043s5.868,0.881,7.38-1.529c2.361-3.764-5.759-6.1-5.309-10.06,0.548-4.825,8.19-2.611,7.907-7.493C115.584,38.773,113.505,37.371,111.161,37.254ZM97.112,51.515c0.71,0.117,1.413.312,2.1,0.492a12.5,12.5,0,0,1,3.731,1.292c0.751,0.5.56,1.988-.507,1.871a23.708,23.708,0,0,1-3.8-1.087,22.5,22.5,0,0,1-3.337-1c-1.392,1.19-2.787,2.358-4.131,3.519q-2.439,2.108-4.932,4.152c0.4,0.172.8,0.357,1.2,0.535a14.535,14.535,0,0,1,2.808,1.356,1.016,1.016,0,0,1-.778,1.847,13.642,13.642,0,0,1-2.737-1.171A24.187,24.187,0,0,1,84.476,62.2q-3.156,2.557-6.386,5.022-1.995,1.52-4.023,2.994A16.651,16.651,0,0,1,77.2,71.476c1.2,0.6.146,2.379-1.05,1.8a16.811,16.811,0,0,0-2.431-.977c-0.608-.186-1.228-0.309-1.827-0.509q-4.029,2.874-8.168,5.593c-1.333.874-2.678,1.75-4.033,2.615,0.621,0.16,1.24.326,1.859,0.484a8.522,8.522,0,0,1,3.339,1.226,0.887,0.887,0,0,1-.39,1.476,8.587,8.587,0,0,1-3.53-.6c-1.242-.342-2.5-0.659-3.725-1.055a93.677,93.677,0,0,1-8.358,4.653,0.805,0.805,0,0,1-.812-1.389c2.568-1.719,5.2-3.347,7.825-4.98-0.105-.75-0.048-1.5-0.085-2.268a24.162,24.162,0,0,0-.351-3.054,1.123,1.123,0,0,1,.5-1.24,0.946,0.946,0,0,1,.554-0.15,1.116,1.116,0,0,1,1.059.806,23.1,23.1,0,0,1,.4,4.6c1.562-.98,3.118-1.969,4.652-2.992q3.7-2.468,7.321-5.058a36.69,36.69,0,0,1-.163-3.821c-0.026-1.235-.357-2.679.358-3.747a0.787,0.787,0,0,1,1.337,0c0.707,0.983.455,2.3,0.472,3.468,0.013,0.864.061,1.74,0.056,2.612q2.215-1.611,4.4-3.258,3.214-2.431,6.349-4.965a0.92,0.92,0,0,1-.023-0.094,23.824,23.824,0,0,1-.125-4.83c0.076-1.425-.017-3.085.78-4.308a0.809,0.809,0,0,1,1.459.191c0.395,1.329-.041,2.747-0.132,4.117-0.075,1.131-.061,2.263-0.09,3.394q2.643-2.174,5.231-4.411,1.957-1.7,3.875-3.445a18.768,18.768,0,0,1,.122-3.555,10.482,10.482,0,0,1,.536-3.459,0.911,0.911,0,0,1,1.648.215,10.531,10.531,0,0,1-.053,3.494c-0.037.433-.058,0.877-0.088,1.323,0.125-.116.252-0.229,0.376-0.345,2.088-1.95,4.073-4.116,6.3-5.9a1.023,1.023,0,0,1,1.446,1.446A60.6,60.6,0,0,1,97.112,51.515Z"/>
  <path class="cls-1" d="M75,148.367a2.567,2.567,0,0,1-1.1-.247c-1.4-.658-14.027-6.615-27.481-12.982-10.41-4.926-17.979-11.178-23.139-19.112-5.729-8.809-8.718-19.931-9.137-34V2.417a1.445,1.445,0,0,1,1.44-1.45H107.6A1.444,1.444,0,0,1,109,2.079a35.191,35.191,0,0,0,25.749,25.872,1.445,1.445,0,0,1,1.105,1.4V82.02c-0.418,14.07-3.406,25.192-9.136,34-5.161,7.934-12.73,14.186-23.14,19.112C90.128,141.5,77.5,147.457,76.1,148.115A2.555,2.555,0,0,1,75,148.367ZM17.029,81.955c0.769,25.648,9.928,40.773,30.623,50.566,13.1,6.2,25.426,12.013,27.347,12.919,1.923-.907,14.245-6.719,27.346-12.919,20.7-9.793,29.855-24.918,30.624-50.566V30.48a37.782,37.782,0,0,1-16.778-9.8,37.785,37.785,0,0,1-9.718-16.822H17.029v78.1Z"/>
</svg>
