<svg xmlns="http://www.w3.org/2000/svg" width="150" height="150" viewBox="0 0 150 150">
  <defs>
    <style>
      .cls-1 {
        fill: #c1272d;
      }

      .cls-2 {
        fill: #f2f2f2;
      }
    </style>
  </defs>
  <g id="Layer_5" data-name="Layer 5">
    <g>
      <circle class="cls-1" cx="75" cy="75" r="73.17391"/>
      <circle class="cls-2" cx="75" cy="75" r="60.26087"/>
      <g>
        <polygon class="cls-1" points="65.112 52.793 46.435 34.117 27.758 52.793 35.78 60.815 40.565 56.03 40.565 122.543 52.304 122.543 52.304 56.03 57.09 60.815 65.112 52.793"/>
        <polygon class="cls-1" points="122.242 52.793 103.565 34.117 84.888 52.793 92.91 60.815 97.696 56.03 97.696 122.543 109.435 122.543 109.435 56.03 114.22 60.815 122.242 52.793"/>
      </g>
      <polygon class="cls-1" points="93.677 36.359 75 17.682 56.323 36.359 64.345 44.38 69.13 39.595 69.13 122.543 80.87 122.543 80.87 39.595 85.655 44.38 93.677 36.359"/>
    </g>
  </g>
</svg>
