<svg xmlns="http://www.w3.org/2000/svg" width="150" height="150" viewBox="0 0 150 150">
  <defs>
    <style>
      .cls-1 {
        fill: #151515;
      }

      .cls-1, .cls-2 {
        fill-rule: evenodd;
      }

      .cls-2, .cls-3 {
        fill: #eee;
      }
    </style>
  </defs>
  <g id="Layer_3" data-name="Layer 3">
    <g>
      <path id="Shape_33_copy_8" data-name="Shape 33 copy 8" class="cls-1" d="M74.9985,143.987c-3.285-1.549-14.632-6.9-26.656-12.593-9.768-4.622-16.533-10.182-21.29-17.5-5.26-8.087-8.01-18.435-8.409-31.634V5.81h86.615a39.817,39.817,0,0,0,26.095,26.212V82.264c-.4,13.2-3.149,23.547-8.409,31.634-4.757,7.314-11.522,12.874-21.29,17.5C89.6295,137.085,78.2815,142.438,74.9985,143.987Z"/>
      <path id="Shape_33_copy_7" data-name="Shape 33 copy 7" class="cls-2" d="M103.0595,8.87a42.981,42.981,0,0,0,25.234,25.341V82.218c-.386,12.6-2.975,22.417-7.914,30.012a39.51716,39.51716,0,0,1-8.437,9.285,56.93449,56.93449,0,0,1-11.6,7.113c-10.544,4.991-20.756,9.811-25.344,11.972-4.588-2.165-14.8-6.985-25.347-11.976a56.93411,56.93411,0,0,1-11.6-7.113,39.49985,39.49985,0,0,1-8.437-9.285c-4.939-7.595-7.528-17.413-7.914-30.012V8.87h81.356m4.542-6.12H15.5835V82.31c.85,28.56,12.41,42.84,31.45,51.85,13.157,6.226,25.648,12.118,27.48,12.981a1.13405,1.13405,0,0,0,.97,0c1.832-.863,14.323-6.755,27.48-12.981,19.04-9.01,30.6-23.29,31.45-51.85V29.693A36.433,36.433,0,0,1,107.5985,2.75Z"/>
      <path id="Shape_33_copy_6" data-name="Shape 33 copy 6" class="cls-1" d="M74.9985,148.7a2.55875,2.55875,0,0,1-1.1-.247c-1.4-.658-14.027-6.615-27.481-12.982-10.41-4.926-17.979-11.178-23.139-19.112-5.729-8.809-8.718-19.931-9.137-34V2.75a1.445,1.445,0,0,1,1.44-1.45l.002,0h92.015a1.444,1.444,0,0,1,1.406,1.112,35.189,35.189,0,0,0,25.749,25.872,1.445,1.445,0,0,1,1.105,1.4V82.353c-.418,14.07-3.407,25.192-9.136,34-5.161,7.934-12.73,14.186-23.14,19.112-13.455,6.368-26.084,12.325-27.484,12.983A2.555,2.555,0,0,1,74.9985,148.7Zm-57.97-66.412c.769,25.648,9.928,40.773,30.623,50.566,13.1,6.2,25.426,12.013,27.347,12.919,1.923-.907,14.245-6.719,27.347-12.919,20.7-9.793,29.854-24.918,30.623-50.566V30.813a37.78,37.78,0,0,1-16.777-9.8,37.774,37.774,0,0,1-9.718-16.822h-89.445Z"/>
    </g>
    <path class="cls-3" d="M84.11948,97.93487h-.94531V28.98858a9.05674,9.05674,0,0,0-1.124-4.36621c-2.01464-3.64356-6.57031-9.81836-6.76367-10.0791a1.49861,1.49861,0,0,0-1.206-.6084h-.33008a1.498,1.498,0,0,0-1.21191.61621c-.19043.26074-4.68457,6.43164-6.69825,10.07226a9.06033,9.06033,0,0,0-1.123,4.36524V97.93487h-.94532a5.90235,5.90235,0,0,0,0,11.80469h3.34375V121.348a1.38375,1.38375,0,0,0,.31055.874l1.35645,1.667a4.16208,4.16208,0,0,0-1.32325,2.57324,3.57057,3.57057,0,0,0,.87989,2.874,6.39976,6.39976,0,0,0,4.88379,1.74415h1.44531a6.39977,6.39977,0,0,0,4.88379-1.74415,3.57052,3.57052,0,0,0,.87988-2.874,4.16207,4.16207,0,0,0-1.32324-2.57324l1.35644-1.667a1.38369,1.38369,0,0,0,.31055-.874V109.73956h3.34375a5.90235,5.90235,0,0,0,0-11.80469ZM67.71714,28.98858a6.04633,6.04633,0,0,1,.749-2.915c1.35156-2.44238,3.99121-6.24219,5.45605-8.30469,1.4795,2.05957,4.15137,5.86133,5.502,8.30371a6.04291,6.04291,0,0,1,.75,2.916V97.93487h-12.457ZM78.0062,120.85577l-2.02344,2.4873a1.38993,1.38993,0,0,0-.25,1.24609,1.40466,1.40466,0,0,0,.87207.93653,1.6654,1.6654,0,0,1,1.0791,1.27246.82837.82837,0,0,1-.20507.70215,3.94979,3.94979,0,0,1-2.81055.81054H73.223a3.94977,3.94977,0,0,1-2.81055-.81054.82834.82834,0,0,1-.20508-.70215,1.66271,1.66271,0,0,1,1.06055-1.2666,1.38413,1.38413,0,0,0,.64062-2.18848l-2.02343-2.4873V109.73956H78.0062Zm6.11328-14.11621H63.77182a2.90235,2.90235,0,0,1,0-5.80469H84.11948a2.90235,2.90235,0,0,1,0,5.80469Z"/>
  </g>
</svg>
