<svg id="_9_panzer_division" data-name="9_panzer_division" xmlns="http://www.w3.org/2000/svg" width="150" height="150" viewBox="0 0 150 150">
  <defs>
    <style>
      .cls-1 {
        fill: #eee;
      }

      .cls-1, .cls-2 {
        fill-rule: evenodd;
      }

      .cls-2 {
        fill: #151515;
      }
    </style>
  </defs>
  <path class="cls-1" d="M146,119H4V31H146v88Z"/>
  <path class="cls-2" d="M148,121H2V29H148v92ZM6,117H144V33H6v84Z"/>
  <path class="cls-1" d="M127.5,75c0,11.874-23.5,21.5-52.5,21.5S22.5,86.874,22.5,75,46.005,53.5,75,53.5,127.5,63.126,127.5,75Z"/>
  <path class="cls-2" d="M75,98.5C44.438,98.5,20.5,88.179,20.5,75S44.438,51.5,75,51.5,129.5,61.821,129.5,75,105.562,98.5,75,98.5Zm0-43C44.794,55.5,24.5,65.584,24.5,75S44.794,94.5,75,94.5,125.5,84.416,125.5,75,105.206,55.5,75,55.5Z"/>
</svg>
