<svg id="_52_squadron_icon" data-name="52_squadron_icon" xmlns="http://www.w3.org/2000/svg" xmlns:xlink="http://www.w3.org/1999/xlink" width="150" height="150" viewBox="0 0 150 150">
  <defs>
    <style>
      .cls-1 {
        fill: #151515;
      }

      .cls-1, .cls-2, .cls-3, .cls-4 {
        fill-rule: evenodd;
      }

      .cls-2 {
        fill: #c61a19;
      }

      .cls-3 {
        fill: url(#linear-gradient);
      }

      .cls-4 {
        fill: #eee;
      }
    </style>
    <linearGradient id="linear-gradient" x1="74.719" y1="129.781" x2="74.719" y2="11.531" gradientUnits="userSpaceOnUse">
      <stop offset="0" stop-color="#969696"/>
      <stop offset="1" stop-color="#e4e4e4"/>
    </linearGradient>
  </defs>
  <path id="Shape_34_copy_10" data-name="Shape 34 copy 10" class="cls-1" d="M108.719,118.83c-12.827,25.03-33.56,28.055-33.56,28.055H74.841s-20.733-3.025-33.56-28.055C32.6,101.891,33.87,71.612,33.87,71.612V3.115h82.26v68.5S117.4,101.891,108.719,118.83Z"/>
  <path id="Shape_34_copy_9" data-name="Shape 34 copy 9" class="cls-2" d="M108.719,118.83c8.682-16.939,7.411-47.218,7.411-47.218V3.115H74.841v143.77h0.318S95.892,143.86,108.719,118.83Z"/>
  <path id="Shape_34_copy_12" data-name="Shape 34 copy 12" class="cls-3" d="M74.728,129.795a10.554,10.554,0,0,1-7.054-18.4V94.577H47.426v-4.2H43.764V86.284H40.317V81.007H65.2v7.832a4.113,4.113,0,0,0,2.477,2.1V23.365l0-.022a15.96,15.96,0,0,1,3.548-8.983,12.434,12.434,0,0,1,3.077-2.75l0.124-.07h0.608l0.124,0.07a12.434,12.434,0,0,1,3.077,2.75,15.96,15.96,0,0,1,3.548,8.983l0,0.022V90.937a4.113,4.113,0,0,0,2.477-2.1V81.007h24.879v5.277h-3.447v4.093h-3.662v4.2H81.782V111.39A10.554,10.554,0,0,1,74.728,129.795Z"/>
  <path id="Shape_34_copy_8" data-name="Shape 34 copy 8" class="cls-4" d="M112.857,5.857V71.637l0,0.082a159.442,159.442,0,0,1-.456,17.171c-0.985,12.329-3.284,22.315-6.648,28.879A57.72,57.72,0,0,1,95.811,131.8a47.945,47.945,0,0,1-10.116,7.952A37.51,37.51,0,0,1,75,144.1a37.51,37.51,0,0,1-10.695-4.351A47.945,47.945,0,0,1,54.189,131.8a57.723,57.723,0,0,1-9.945-14.032c-3.364-6.564-5.663-16.55-6.647-28.879a159.449,159.449,0,0,1-.457-17.17l0-.083V5.857h75.714m3.984-3.985H33.159V71.554s-1.292,30.8,7.539,48.034c13.05,25.463,34.141,28.54,34.141,28.54h0.323s21.091-3.077,34.141-28.54c8.832-17.232,7.539-48.034,7.539-48.034V1.872h0Z"/>
  <path id="Shape_34_copy_13" data-name="Shape 34 copy 13" class="cls-1" d="M83.344,80.258v8.5a3.949,3.949,0,0,1-.646.8V23.554l0-.119a16.87,16.87,0,0,0-3.756-9.492,13.462,13.462,0,0,0-3.33-2.962l-0.334-.19H74.182l-0.334.19a13.461,13.461,0,0,0-3.33,2.962,16.87,16.87,0,0,0-3.755,9.492l0,0.06V89.56a3.949,3.949,0,0,1-.646-0.8v-8.5H39.4v7.108h3.446v4.093H46.51v4.2H66.758v15.5a11.47,11.47,0,1,0,15.94,0v-15.5h20.248v-4.2h3.662V87.366h3.446V80.258H83.344Zm21.432,7.108v2.262H85.942v1.831h15.172v2.369h-25.3V13.385A14.523,14.523,0,0,1,80.866,23.57V92.175l0.418-.046a4.883,4.883,0,0,0,3.846-2.809l0.044-.083V82.089h23.048v3.446H87.557v1.831h17.219ZM68.589,100.21v-1.6l12.278-2.534v1.6Zm0,3.473v-1.6l12.278-2.534v1.6Zm0,3.474v-1.6l12.278-2.534v1.6Zm6.139,21.889a9.638,9.638,0,0,1-6.874-16.395l13.012-2.685v2.008L81,112.087A9.638,9.638,0,0,1,74.728,129.046ZM68.589,110.63v-1.6l12.278-2.533v1.6Zm0-13.893V95.659h5.222ZM44.679,89.628V87.366H60.2V85.535H41.233V82.089H64.281v7.149l0.044,0.083a4.883,4.883,0,0,0,3.846,2.809l0.418,0.046V23.57a14.566,14.566,0,0,1,5.4-10.464V93.828H48.341V91.459H63.648V89.628H44.679Z"/>
</svg>
