<svg id="_5_parachute_division" data-name="5_parachute_division" xmlns="http://www.w3.org/2000/svg" width="150" height="150" viewBox="0 0 150 150">
  <defs>
    <style>
      .cls-1 {
        fill: #eee;
      }

      .cls-1, .cls-2 {
        fill-rule: evenodd;
      }

      .cls-2 {
        fill: #151515;
      }
    </style>
  </defs>
  <path class="cls-1" d="M132,148H18V2H132V148Z"/>
  <path class="cls-2" d="M111.857,55.166c-0.379-1.022-9.37-25.126-16.805-32.621C87.486,14.918,76.41,14.6,75.921,14.59H74.058c-0.468.01-11.543,0.328-19.109,7.955-7.435,7.5-16.427,31.6-16.806,32.621a1,1,0,0,0,.242,1.066,0.978,0.978,0,0,0,.374.218,0.989,0.989,0,0,0,.192.374L74.076,98.886c-9.719,1.274-16.082,8.308-16.132,18.337,0,5.382,1.857,10.263,5.1,13.395,3.378,3.225,7.751,4.792,13.37,4.792A31.517,31.517,0,0,0,86.9,133.539a2.165,2.165,0,0,0,1.432-2.033V116.233a2.164,2.164,0,0,0-2.161-2.161H75.707a2.164,2.164,0,0,0-2.161,2.161v3.3a2.163,2.163,0,0,0,2.161,2.161H80v5.735a17.263,17.263,0,0,1-3.307.267c-6.416,0-10.1-3.885-10.1-10.661,0-6.645,3.968-10.613,10.614-10.613a14.226,14.226,0,0,1,6.147,1.181,2.161,2.161,0,0,0,2.949-1.362l0.99-3.347a2.152,2.152,0,0,0-1.133-2.558,21.719,21.719,0,0,0-8.858-1.677c-0.421,0-.827.031-1.237,0.051l34.977-41.884a1,1,0,0,0,.192-0.374,0.972,0.972,0,0,0,.374-0.219A1,1,0,0,0,111.857,55.166ZM74,95.675L40.787,55.9c3.447-1.387,12.663-5.06,16.313-6.164,4.654-1.406,9.772-1.952,16.617,7.967a0.991,0.991,0,0,0,.284.266v37.7Zm2-37.7a0.99,0.99,0,0,0,.284-0.266c6.846-9.919,11.963-9.373,16.617-7.967,3.65,1.1,12.865,4.776,16.312,6.164L76,95.675v-37.7ZM56.369,23.953C63.268,17,73.735,16.6,74.092,16.59H75.9c0.107,0,10.748.322,17.732,7.363,5.883,5.931,13.123,23.621,15.53,29.773-3.925-1.575-12.168-4.839-15.682-5.9C88.434,46.3,82.44,45.568,75,56.052c-5.1-7.193-9.528-9.106-13.432-9.106a17.349,17.349,0,0,0-5.048.88c-3.515,1.063-11.757,4.326-15.682,5.9C43.244,47.574,50.485,29.885,56.369,23.953ZM85.3,102.136a0.159,0.159,0,0,1,.085.189l-0.99,3.348a0.16,0.16,0,0,1-.088.1,0.15,0.15,0,0,1-.131,0,16.139,16.139,0,0,0-6.958-1.352c-7.663,0-12.614,4.951-12.614,12.613,0,7.81,4.635,12.661,12.1,12.661a16.262,16.262,0,0,0,4.6-.525L82,128.955v-9.262h-6.3a0.161,0.161,0,0,1-.161-0.161v-3.3a0.162,0.162,0,0,1,.161-0.161H86.172a0.162,0.162,0,0,1,.161.161v15.273a0.159,0.159,0,0,1-.106.15,29.512,29.512,0,0,1-9.812,1.754c-5.08,0-9-1.387-11.985-4.235-2.85-2.752-4.485-7.109-4.485-11.947,0.049-9.911,7.028-16.57,17.366-16.57A19.651,19.651,0,0,1,85.3,102.136Z"/>
</svg>
