<svg id="_352_infantry_division" data-name="352_infantry_division" xmlns="http://www.w3.org/2000/svg" width="150" height="150" viewBox="0 0 150 150">
  <defs>
    <style>
      .cls-1 {
        fill: #eee;
      }

      .cls-1, .cls-2, .cls-3 {
        fill-rule: evenodd;
      }

      .cls-2 {
        fill: #151515;
      }

      .cls-3 {
        fill: #c83535;
      }
    </style>
  </defs>
  <path class="cls-1" d="M137,147H13V3H137V147Z"/>
  <path class="cls-2" d="M127.457,136.827H22.543V91.174H127.457v45.653Z"/>
  <path class="cls-3" d="M75,5.07L66.94,22.93H38v71h3.74l-1.97,12.693,8.16,10.774,0.286,5.019S57.093,142.93,74.7,142.93h1.575c17.608,0,26.482-20.514,26.482-20.514l0.287-5.019,8.16-10.774-1.97-12.693H112v-71H83.059L75,5.07"/>
  <path class="cls-2" d="M108.947,27.144l-0.1.139-5.686,8.084c0.544,0.906,1.381,2.549,1.172,3.8a12.511,12.511,0,0,1-.574,2.142,11.716,11.716,0,0,1,2.1,3.537,10.4,10.4,0,0,1-.109,3.535,4.827,4.827,0,0,1,1.453,3.206,9,9,0,0,1-.592,3,10.99,10.99,0,0,1,1.5,2.7,6.847,6.847,0,0,1-.157,3.339A7.808,7.808,0,0,1,109.4,64.65a6.519,6.519,0,0,1-2.12,4.319,47.563,47.563,0,0,1-4.509,3.294,5,5,0,0,1-.466.511,1.856,1.856,0,0,0-.052,1.953c0.09,0.163.263,0.432,0.474,0.761a16.883,16.883,0,0,1,1.951,3.613,8.628,8.628,0,0,1-.33,4l0.784,1.628,0.291,0.6-0.449.5L95.958,95.838l0.562,9.752,0.019,0.324-0.174.272-4.909,7.7a2.271,2.271,0,0,1,.241.324c0.292,0.487.438,1.311-.528,2.472-0.184.221-.742,1.029-1.217,1.731l1.092,1.4,0.589,0.757-0.731.621-4.317,3.657-0.856.726-0.623-.933a9.471,9.471,0,0,1-.721-6.856c0.212-.424.488-0.873,0.653-1.132a17.582,17.582,0,0,1,1.165-4.331l3.565-7.627v-1.677L77.2,83.659l-0.179-.276,0.02-.329a10.618,10.618,0,0,0-.076-2.4c-0.454-.412-2.79-1.635-7.392-2.94-5.2-1.473-6.856-3.89-6.925-3.992l-0.018-.031A7.194,7.194,0,0,1,60.917,74a1.529,1.529,0,0,1-.809-0.2c-0.492-.3-4.372-2.547-5.245-2.949-0.853-.394-3.4-1.347-4.18-1.558a7.313,7.313,0,0,0-1.73,1.776,1.95,1.95,0,0,0-.254.521l1.524,1.987,0.364,0.477-0.247.545c-0.834,1.836-3.982,3.8-4.339,4.023l-0.872.535-0.515-.884c-1.075-1.842-1.338-5.567-.522-6.594-0.557.353-1.068,0.655-1.33,0.808l-0.666.389-0.545-.546c-0.76-.761-0.951-5.852-0.951-5.9a8.081,8.081,0,0,1,.785-3.16c0.07-.094.37-0.461,0.8-0.992,0.948-1.157,2.535-3.1,3.741-4.654a4.435,4.435,0,0,1,3.58-1.9,3.846,3.846,0,0,1,1.506.289,49.126,49.126,0,0,0,7.434,2.849,2.8,2.8,0,0,0,.485.047,0.755,0.755,0,0,0,.844-0.594,2.334,2.334,0,0,1,.274-0.473c0.129-.172.969-1.455,1.781-2.7,2.631-4.021,3.331-5.061,3.568-5.3a26.685,26.685,0,0,0,2.216-2.774c-0.606-.067-1.38-0.14-1.821-0.14l-0.1,0a6.752,6.752,0,0,0-1.247,1.168c-0.053.722-.119,1.688-0.119,1.939,0,0.577-.261,2.172-1.454,2.619a3.074,3.074,0,0,1-1.08.141c-1.1,0-2.968-.121-3.483-0.911l-0.253.023a2.437,2.437,0,0,1-1.852-1.092c-0.053-.073-0.266-0.29-0.421-0.447-0.895-.912-1.58-1.677-1.58-2.527a5.234,5.234,0,0,1,1.5-2.829l0.08-.1c0.24-.445,1.148-2.822,1.59-3.977,0.325-.853.465-1.215,0.54-1.393,0.029-.237.048-0.907,0.063-1.408a16.588,16.588,0,0,1,.21-2.828,8.927,8.927,0,0,1,.39-1.13l-0.273.026-1.375.138L57.232,33a4.135,4.135,0,0,1,1.333-2.295l0.816-1.482a4.029,4.029,0,0,1,1.918-2.09,2.351,2.351,0,0,1,.647-0.072,11.886,11.886,0,0,1,1.381.112c0-.435-0.01-0.982-0.044-1.5L63.2,24.426l1.237,0.2c1.951,0.308,2.211.958,2.309,1.2a3.486,3.486,0,0,1,.092,1.624C73.447,28.3,77.155,29.094,77.864,29.8a3.614,3.614,0,0,1,.924,2.7c1.723,1.485,3.606,3.361,3.683,4.528a2.526,2.526,0,0,1-.723,1.937c3.738,6.65,3.221,7.762,3.045,8.136a2.129,2.129,0,0,1-.781.943,21.722,21.722,0,0,1,1.094,5.69,3.213,3.213,0,0,1-.677,2.155,8.028,8.028,0,0,1,.9,3.349,2.765,2.765,0,0,1-.338,1.267,6.159,6.159,0,0,0,.671.2l0.148,0.02c0.564,0,1.108-1.415,1.257-2.445,0.052-.753.9-12.934,1.613-18.316a11.428,11.428,0,0,1,5.446-8.519l12.731-6.365,0.076-.038,0.084-.025a3.279,3.279,0,0,1,.85-0.14,1.186,1.186,0,0,1,1.191.782,2.4,2.4,0,0,1-.061,1.322ZM46.5,66.129a13.735,13.735,0,0,1,1.347-2.158,1.777,1.777,0,0,1,1.325-.4,20.853,20.853,0,0,1,2.866.314c-1.137-.862-2.046-1.524-2.4-1.731-0.123-.015-0.233-0.036-0.33-0.057a1.6,1.6,0,0,0-.261-0.04,0.359,0.359,0,0,0-.233.113,29.551,29.551,0,0,0-2.931,3.22C46.023,65.58,46.241,65.841,46.5,66.129Z"/>
  <path id="Shape_29_copy" data-name="Shape 29 copy" class="cls-1" d="M90.326,113.7l0.017-.034,0.029-.059-0.029.059-0.017.034M46.721,67.824s-2.048-2.049-1.975-2.488a22.8,22.8,0,0,1,3.438-3.95,1.324,1.324,0,0,1,.858-0.333c0.314,0,.581.113,0.824,0.113,0.439,0,6.512,4.829,6.512,4.829s-3.146-.878-3.511-0.951a27.211,27.211,0,0,0-3.7-.475,1.07,1.07,0,0,0-.618.109,33.134,33.134,0,0,0-1.829,3.146M64.281,25.609a11.682,11.682,0,0,1-.073,2.707,18.349,18.349,0,0,0-2.261-.254,1.463,1.463,0,0,0-.373.034,4.692,4.692,0,0,0-1.318,1.609,15.919,15.919,0,0,1,2.493-.392,1.223,1.223,0,0,1,.288.027,1.681,1.681,0,0,1-.878,1.024c-0.585.146-3.365,0.219-3.95,2.852,0,0,1.463-.146,1.975-0.146a17.263,17.263,0,0,0-1.024,2.488c-0.219.878-.146,4.024-0.293,4.316S56.892,45.143,56.6,45.51s-1.39,1.609-1.39,2.34,1.537,1.976,1.829,2.414a1.481,1.481,0,0,0,1.023.651l0.221-.067a7.766,7.766,0,0,1,1.609-.511s-0.878.731-.731,1.024A6.246,6.246,0,0,0,61.8,51.8a2.444,2.444,0,0,0,.728-0.076,1.978,1.978,0,0,0,.805-1.684c0-.438.147-2.34,0.147-2.34s1.39-1.683,2.048-1.756a2.717,2.717,0,0,1,.274-0.012c0.861,0,2.653.232,2.653,0.232a1.235,1.235,0,0,1,.219,1.024,19.485,19.485,0,0,1-2.561,3.365c-0.366.366-4.975,7.535-5.268,7.9a1.987,1.987,0,0,1-1.906,1.451,3.849,3.849,0,0,1-.654-0.061c-2.122-.366-7.682-2.926-7.682-2.926a2.893,2.893,0,0,0-1.089-.2,3.464,3.464,0,0,0-2.789,1.514c-1.755,2.269-4.316,5.341-4.535,5.634a7.778,7.778,0,0,0-.585,2.561c0,0.658.366,4.9,0.658,5.194a23,23,0,0,0,3.219-2.194l0.439,0.293a10.178,10.178,0,0,1-1.024,2.561c-0.439.438-.439,3.73,0.585,5.487,0,0,3.219-1.975,3.95-3.586l-1.682-2.194s-0.293-.44.366-1.463,2.049-2.269,2.488-2.269a34.152,34.152,0,0,1,4.682,1.683c0.951,0.44,4.974,2.78,5.341,3a0.6,0.6,0,0,0,.294.054,7.74,7.74,0,0,0,1.682-.348,0.823,0.823,0,0,1,.33-0.076,0.566,0.566,0,0,1,.548.588s1.464,2.194,6.365,3.585,7.609,2.779,7.975,3.365a9.207,9.207,0,0,1,.219,3l12.731,19.608v2.2l-3.658,7.828a16.2,16.2,0,0,0-1.1,4.243,13.851,13.851,0,0,0-.731,1.244c-0.293.585-.512,4.1,0.658,5.854l4.317-3.659-1.537-1.975s1.317-1.976,1.683-2.415a1.287,1.287,0,0,0,.439-1.316,1.862,1.862,0,0,1-.563-0.85l5.245-8.223L94.935,95.479l9.292-10.316-0.951-1.976s0.805-2.561.439-3.8a26.382,26.382,0,0,0-2.341-4.171,2.789,2.789,0,0,1,.219-3.146,1.089,1.089,0,0,0,.413-0.488l-0.02,0a56.185,56.185,0,0,0,4.582-3.322A5.659,5.659,0,0,0,108.4,64.6c0.073-1.609-1.536-3.8-1.536-3.8a7,7,0,0,0,.293-3.218,12.193,12.193,0,0,0-1.683-2.854,8.365,8.365,0,0,0,.731-3.145,4.272,4.272,0,0,0-1.536-2.854,11.483,11.483,0,0,0,.219-3.658,13.766,13.766,0,0,0-2.268-3.585A11.987,11.987,0,0,0,103.35,39c0.219-1.317-1.391-3.659-1.391-3.659l6.072-8.632a1.826,1.826,0,0,0,.073-0.733,0.231,0.231,0,0,0-.241-0.1,2.439,2.439,0,0,0-.563.1L94.57,32.34a10.48,10.48,0,0,0-4.9,7.756c-0.731,5.56-1.609,18.29-1.609,18.29s-0.45,3.34-2.252,3.34a1.612,1.612,0,0,1-.382-0.047C83.3,61.166,83.3,60.361,83.3,60.361a0.727,0.727,0,0,0,.191.023c0.282,0,.781-0.149.833-1.194,0.073-1.463-1.317-3.877-1.317-3.877a0.637,0.637,0,0,0,.289.071c0.309,0,.761-0.249.809-1.681,0.073-2.194-1.464-6.657-1.464-6.657a0.867,0.867,0,0,0,.539.238,0.823,0.823,0,0,0,.7-0.6C84.4,45.582,80.45,38.7,80.45,38.7A1.791,1.791,0,0,0,81.474,37.1c-0.073-1.1-3.732-4.17-3.732-4.17a3.007,3.007,0,0,0-.585-2.415c-0.879-.878-11.413-2.194-11.413-2.194a9.383,9.383,0,0,0,.073-2.122,3.123,3.123,0,0,0-1.537-.585"/>
  <path class="cls-2" d="M63.271,34.984A0.38,0.38,0,0,0,63.18,35a2.556,2.556,0,0,0-1.346,1.165A6.573,6.573,0,0,1,60.524,37.5a0.372,0.372,0,0,0-.129.492,0.4,0.4,0,0,0,.327.182,0.271,0.271,0,0,0,.166-0.053c0.143-.109.281-0.221,0.415-0.338a0.642,0.642,0,0,0,.446.425,0.61,0.61,0,0,0,.125.013,0.635,0.635,0,0,0,.355-0.112,0.751,0.751,0,0,0,.292-0.158,0.714,0.714,0,0,0,.218-0.354,0.7,0.7,0,0,0-.329-0.771l-0.136-.064,0.059-.071c0.084-.11.165-0.223,0.247-0.334a3.363,3.363,0,0,1,.228-0.285l0.13-.134,0.125-.106,0.155-.092,0.153-.049a0.364,0.364,0,0,0,.251-0.442,0.36,0.36,0,0,0-.352-0.262M57.378,46.328a0.359,0.359,0,0,0-.31.175,6.722,6.722,0,0,0-.383.752,2.5,2.5,0,0,0-.256.8,0.737,0.737,0,0,0,.368.722,0.705,0.705,0,0,0,.314.073,0.744,0.744,0,0,0,.54-0.23,0.788,0.788,0,0,0,.11-0.9,0.875,0.875,0,0,0-.335-0.361,5.276,5.276,0,0,1,.265-0.495,0.364,0.364,0,0,0-.129-0.492,0.39,0.39,0,0,0-.182-0.046m7.494,24.926a3.236,3.236,0,0,0-1.258.3,12.068,12.068,0,0,0-1.532.783,0.368,0.368,0,0,0,.181.675,0.35,0.35,0,0,0,.182-0.054,12.479,12.479,0,0,1,1.364-.711,2.659,2.659,0,0,1,1.042-.281H64.9l0.181,0.049,0.135-.011a0.364,0.364,0,0,0,.353-0.312,0.358,0.358,0,0,0-.257-0.394,2.041,2.041,0,0,0-.441-0.047M59.326,50.092a0.382,0.382,0,0,0-.092.011,2.629,2.629,0,0,0-1.114.6,0.363,0.363,0,0,0,0,.509,0.373,0.373,0,0,0,.253.1,0.387,0.387,0,0,0,.257-0.1l0.078-.066a2.348,2.348,0,0,1,.423-0.249,2.246,2.246,0,0,1,.294-0.1,0.364,0.364,0,0,0,.252-0.442,0.37,0.37,0,0,0-.351-0.263"/>
  <path class="cls-1" d="M133.977,98.057h-2v41.963H18.033V98.057h-3.01V82.981H134.977V98.057h-1Zm-13,21.736V105.57l-4.367,4.568,4.2,9.654h0.172Zm-4.733-21.735h-4.673l1.484,3.736C114.326,100.4,115.391,98.987,116.247,98.057ZM112.7,119.792l-1.651-3.722-1.2,1.282,1.817,2.44H112.7Zm-5.249-11.833-2.3-5.94H98.99l5.939,8.726C105.748,109.839,106.6,108.9,107.453,107.959ZM45.2,110.426l5.642-8.407H44.707l-2.1,5.548Zm-7.724-8.506,1.537-3.864H34.169C35.049,99.013,36.154,100.47,37.476,101.92ZM38.3,119.792L40.3,117.07l-1.262-1.346-1.779,4.068H38.3Zm14.544-.914,0.258,0.285v8.868H42.561l-5.757,7h76.724l-5.784-7H97.339v-8.892l0.258-.286,1.41-1.561-9.04-11.271H60.255L51.33,117.2Zm-18.918-8.61-4.978-5.22v14.744h0.926Z"/>
  <path id="Shape_28_copy" data-name="Shape 28 copy" class="cls-2" d="M133.977,83.981V97.057h-3v41.963H19.033V97.057h-3.01V83.981H133.977m-21.228,19.636c2.45-2.692,4.588-5.278,5.786-6.561h-8.474l2.688,6.561m-74.963.129,2.739-6.689H31.881c1.21,1.294,3.4,3.936,5.905,6.689m67.067,8.572c1.2-1.328,2.487-2.746,3.778-4.17l-2.83-7.129H97l7.854,11.3M45.279,112l7.541-10.985H44.053l-2.62,6.741c1.308,1.441,2.616,2.885,3.846,4.244m-17.333,8.788h2.588L35.1,110.059l-7.153-7.539v18.272m92.2,0h1.833v-17.75l-6.542,6.888,4.709,10.862M34.687,136.03h80.965l-7.437-9H98.339v-7.508l1.989-2.2-9.891-12.3H59.782L50.01,117.234l2.09,2.314v7.483H42.089l-7.4,9m1.048-15.238H38.8l2.8-3.8-2.869-3.059-3,6.858m75.428,0h3.078l-2.887-6.507-2.807,2.993,2.616,3.514m23.815-37.811H15.023V98.057h3.01v41.963H131.977V98.057h3V82.981h0Zm-23.4,15.076h4.673c-0.856.931-1.921,2.346-3.189,3.736l-1.484-3.736h0Zm-77.4,0h4.844l-1.537,3.864c-1.322-1.45-2.427-2.907-3.307-3.864h0Zm64.821,3.963h6.161l2.3,5.94c-0.856.943-1.7,1.88-2.524,2.786l-5.939-8.726h0Zm-54.284,0h6.135L45.2,110.426l-2.591-2.859,2.1-5.548h0Zm-15.76,17.773V105.048l4.978,5.22-4.051,9.524H28.947Zm87.666-9.654,4.367-4.568v14.222h-0.172l-4.2-9.654h0Zm-56.358-4.117H89.966l9.04,11.271-1.41,1.562-0.258.285v8.892h10.405l5.784,7H36.8l5.757-7H53.1v-8.868l-0.258-.285L51.33,117.2l8.924-11.183h0ZM37.263,119.792l1.779-4.068L40.3,117.07,38.3,119.792H37.263Zm72.585-2.44,1.2-1.282,1.651,3.722h-1.037l-1.817-2.44h0Z"/>
</svg>
