<svg id="Layer_1" data-name="Layer 1" xmlns="http://www.w3.org/2000/svg" viewBox="0 0 150 150"><defs><style>.cls-1{fill:#fff;}</style></defs><path class="cls-1" d="M75,148.08c2.53,0,9.63-2.07,15.58-5.67,19.54-11.83,44.23-40.11,44.23-65.36V1.92H15.19V77.05c0,25.25,24.69,53.53,44.23,65.36C65.37,146,72.47,148.08,75,148.08Z"/><path d="M129.81,6.92V77.05c0,10.31-4.91,22.65-13.82,34.75-7.79,10.59-18.26,20.44-28,26.33-5.34,3.23-11.53,4.94-13,5s-7.65-1.72-13-5c-9.74-5.89-20.21-15.74-28-26.33C25.1,99.7,20.19,87.36,20.19,77.05V6.92H129.81m5-5H15.19V77.05c0,25.25,24.69,53.53,44.23,65.36,6,3.6,13,5.67,15.58,5.67s9.63-2.07,15.58-5.67c19.54-11.83,44.23-40.11,44.23-65.36V1.92Z"/><path d="M62.65,16.56l-1.57,3.76a.08.08,0,0,1,0,.05l-1.85,3.39a.55.55,0,0,0,0,.54l3.53,6.1,1.75,3.2a.53.53,0,0,1,0,.52L62,38.71a.55.55,0,0,1-.48.29H55.71a.55.55,0,0,1-.38-.16L48.79,32.3l-5.56-5.56a.54.54,0,0,0-.33-.16l-4-.41a.51.51,0,0,0-.32.07L34,28.88a.64.64,0,0,1-.27.07H31.34a.54.54,0,0,0-.38.93l.41.41a.53.53,0,0,1,0,.77L28.45,34a.54.54,0,0,0,.38.93h1.55a.55.55,0,0,1,.54.55v2.21a.55.55,0,0,0,.93.39l2.24-2.24a.51.51,0,0,1,.43-.16l3.65.3a.62.62,0,0,1,.23.07l4.9,2.88a.64.64,0,0,1,.2.2L46,43.62a1.25,1.25,0,0,0,.09.12l4.44,4.43a.55.55,0,0,1,0,.77l-4.39,4.39a.63.63,0,0,1-.24.14L40.48,55l-.14,0H36.56a.53.53,0,0,0-.44.23l-5.37,7.58a.56.56,0,0,1-.45.23H28.83a.54.54,0,0,0-.38.93L30.51,66a.55.55,0,0,1,.16.39V68.5a.55.55,0,0,0,.93.39L33.54,67a.55.55,0,0,1,.38-.16h1.7a.55.55,0,0,1,.55.54V69.1a.55.55,0,0,0,1,.27l1.13-2a.55.55,0,0,1,.22-.21l5.94-3.13a.34.34,0,0,1,.14,0l6.8-1.41a.55.55,0,0,0,.28-.15l5.22-5.22,0,0,2.16-2.68a.54.54,0,0,1,.43-.2h.74a.54.54,0,0,1,.54.56l-.31,10.47a.43.43,0,0,0,0,.25l2.7,5.5a.45.45,0,0,0,.1.14l8.56,8.56a.56.56,0,0,1,.12.59l-1.26,3.18H62.86l-5.7,3.58-2.34,6.25v10.27l-5-1.78H42.76l1.78,1.78-.11,6.26h5.42v4.8l3.74-3.57L59,112.36l5.47.45,1.73-1.73-.05-3.85-2.57-4.69V97H67l5.19-1.78,8.43,6.7,3.13,6.92-2.46,7.59v5.31a.71.71,0,0,1-.19.48l-5.5,5.49L73.25,130a.81.81,0,0,0-.17.28L72.56,132a.67.67,0,0,0,.87.83l1.31-.47a.59.59,0,0,1,.23,0h3.37a.67.67,0,0,1,.48.2L80,133.75a.68.68,0,0,0,1,0l2-2,1.47-1.47a.68.68,0,0,1,.91,0l2,1.67a.74.74,0,0,0,.45.17h0a.67.67,0,0,0,.67-.67v-.57a16.46,16.46,0,0,1,1.65-7.23l0-.1a17,17,0,0,1,5.16-6.23l1-.77a16.45,16.45,0,0,0,4.12-4.48l2-3.22a4.31,4.31,0,0,0,.65-2.28V99.85a4.29,4.29,0,0,1,1.26-3l6.27-6.32a3.91,3.91,0,0,0,.73-1L113,86.11a3.8,3.8,0,0,0,.37-1.62v-20l-3-16.37a8.6,8.6,0,0,1,.24-4.06l1-3.32a8.62,8.62,0,0,1,2.14-3.56h0a8.6,8.6,0,0,0,2.39-7.6l0-.24a2,2,0,0,1,.09-1l2.11-5.83a2,2,0,0,0-2.3-2.67h0A2,2,0,0,0,114.6,21l-1.45,3.69a1.88,1.88,0,0,1-.45.69l-1.12,1.13a1.18,1.18,0,0,0-.23.27L107.5,32.3a7.11,7.11,0,0,0-1.29,4.08v7.67a6.93,6.93,0,0,0,.12,1.28l4.07,22.31V81.29l-1.73,5.41a3.69,3.69,0,0,1-.93,1.52l-.6.61a3.79,3.79,0,0,1-6-.85l-2.47-4.51L89.31,71.94a.42.42,0,0,1-.12-.26l-1.48-9.61s0,0,0-.08l-.06-4.31a.55.55,0,0,1,.93-.4h0a.54.54,0,0,0,.93-.36l.09-2.7a.64.64,0,0,0,0-.2l-1-2.79a.57.57,0,0,1,0-.18v-1a.54.54,0,0,1,.93-.38l.31.3a.55.55,0,0,0,.93-.31L91,47.92a.43.43,0,0,0,0-.25L89,42.19A.63.63,0,0,1,89,42L89,38.37a.55.55,0,0,1,.8-.47l.74.39a.54.54,0,0,0,.8-.52L90.9,30.6a.54.54,0,0,1,0-.28l2.24-4.64a.42.42,0,0,1,.11-.15l2.45-2.45a.55.55,0,0,0,0-.77l-5-4.95a.52.52,0,0,0-.33-.16l-8-.86a.5.5,0,0,0-.21,0L76.67,18l-.16,0H72.43a.48.48,0,0,1-.26-.07l-5.25-2.84a.54.54,0,0,0-.43,0L63,16.25A.53.53,0,0,0,62.65,16.56Z"/></svg>