<svg id="Layer_1" data-name="Layer 1" xmlns="http://www.w3.org/2000/svg" viewBox="0 0 150 150"><defs><style>.cls-1{fill:#eee;}.cls-2{fill:none;}.cls-3{fill:#151515;}</style></defs><path class="cls-1" d="M75,148.08c2.53,0,9.63-2.07,15.58-5.67,19.54-11.83,44.23-28.06,44.23-53.3V1.92H15.19V89.11c0,25.24,24.69,41.47,44.23,53.3C65.37,146,72.47,148.08,75,148.08Z"/><path class="cls-2" d="M15.19,1.92V89.11c0,25.24,24.68,41.47,44.23,53.29,6,3.61,13,5.68,15.58,5.68s9.63-2.07,15.58-5.68c5.57-3.36,11.55-7.08,17.26-11.27a105.69,105.69,0,0,0,11-9.24c1.07-1,2.11-2.08,3.1-3.18a53.72,53.72,0,0,0,8.42-11.82,39.65,39.65,0,0,0,1.9-4.27,37.62,37.62,0,0,0,2.5-13.51V1.92Zm1.59,33.9V24.05l98.78,98.77-1.11,1c-1.61,1.5-3.31,3-5.18,4.46ZM131.36,97.14l-.07.22L35.86,1.93H47.63l85.54,85.55A34.93,34.93,0,0,1,131.36,97.14Z"/><path class="cls-2" d="M15.19,1.92V89.11c0,25.24,24.68,41.47,44.23,53.29,6,3.61,13,5.68,15.58,5.68s9.63-2.07,15.58-5.68c5.57-3.36,11.55-7.08,17.26-11.27a105.69,105.69,0,0,0,11-9.24c1.07-1,2.11-2.08,3.1-3.18a53.72,53.72,0,0,0,8.42-11.82,39.65,39.65,0,0,0,1.9-4.27,37.62,37.62,0,0,0,2.5-13.51V1.92Zm1.59,33.9V24.05l98.78,98.77-1.11,1c-1.61,1.5-3.31,3-5.18,4.46ZM131.36,97.14l-.07.22L35.86,1.93H47.63l85.54,85.55A34.93,34.93,0,0,1,131.36,97.14Z"/><path class="cls-3" d="M134.81,1.92H15.19V89.11c0,25.24,24.69,41.47,44.23,53.3,6,3.6,13,5.67,15.58,5.67s9.63-2.07,15.58-5.67c5.59-3.38,11.6-7.13,17.33-11.34l0,.06,1-.87a107.49,107.49,0,0,0,9.17-7.66l.79-.66-.06-.06q1.6-1.55,3.09-3.16l.05,0,0,0,1.06-1.19a55.35,55.35,0,0,0,6.69-9.32L130,108l.42-.95,0,0,0,0a41.24,41.24,0,0,0,1.9-4.24l0,0,0-.23a37.66,37.66,0,0,0,2.46-13.4Zm-5,5V80.07L56.66,6.92Zm-77.37,0,77.37,77.37v4.82a32.38,32.38,0,0,1-.62,6.28L40.72,6.92Zm68,106L20.19,12.71V6.92h5.93L125.2,106A48.38,48.38,0,0,1,120.41,112.91Zm-13.67,12.77L20.19,39.12V27.41l93,93C111.14,122.2,109,124,106.74,125.68ZM88,138.13c-5.34,3.23-11.53,4.94-13,5s-7.65-1.72-13-5c-20.23-12.24-41.82-27.14-41.82-49V43.35l84.13,84.13C99.08,131.28,93.49,134.8,88,138.13Zm27.37-19.79L20.19,23.19V16.93l98.25,98.24C117.46,116.25,116.43,117.3,115.36,118.34Zm11.27-15.14L30.34,6.92h6.15l91.85,91.85A37.83,37.83,0,0,1,126.63,103.2Z"/></svg>