<svg id="ger_normandy_pilot_assaulter_1_icon" xmlns="http://www.w3.org/2000/svg" width="150" height="150" viewBox="0 0 150 150">
  <defs>
    <style>
      .cls-1 {
        fill: #f6f6f6;
      }

      .cls-1, .cls-2, .cls-3, .cls-4, .cls-5, .cls-6 {
        fill-rule: evenodd;
      }

      .cls-2 {
        fill: #0696cb;
      }

      .cls-3 {
        fill: #151515;
      }

      .cls-4 {
        fill: #d53434;
      }

      .cls-5 {
        fill: #eac944;
      }

      .cls-6 {
        fill: #eee;
      }
    </style>
  </defs>
  <path class="cls-1" d="M74.831,149.235a2.077,2.077,0,0,1-.823-0.168c-2.887-1.241-20.6-9.49-34.315-30.52C24.72,95.584,24.937,67.61,24.937,67.61V1.015h99.788v66.6s0.217,27.974-14.756,50.937c-13.712,21.03-31.428,29.279-34.315,30.52a2.078,2.078,0,0,1-.823.168h0Z"/>
  <path class="cls-2" d="M78.1,101.775a46.793,46.793,0,0,0-22.033,5.871C45.73,113.387,42.181,118.4,42.181,118.4L49.4,129.133c10.943,11.334,21.516,16.24,23.688,17.173a2.088,2.088,0,0,0,1.646,0c2.778-1.193,19.285-8.882,32.745-28.2-1.182-2.184-4.585-7.011-13.423-12.237a31.081,31.081,0,0,0-15.961-4.1"/>
  <path class="cls-3" d="M101.063,127.636s-9.29,11.012-17.275,15.605-10.543,3.966-10.543,3.966l-6.211-4.592s-1.3-2.506-.939-4.332,3.34-5.167,3.81-5.846,0.992-1.461.522-1.357-2.192.888-2.4,0.314a1.811,1.811,0,0,1,.731-2.036c0.731-.365,1.983-0.522,1.983-0.887s0.209-.731-0.261-0.731-1.3-.417-1.1-0.939a1.758,1.758,0,0,1,2.035-.261,1.2,1.2,0,0,0,1.148.783,2.265,2.265,0,0,0,1.514-1.409,5.954,5.954,0,0,1,1.357-3.236c1.1-1.1,2.4-1.827,3.34-1.618s1.618,0.417,1.722,0a5.778,5.778,0,0,0-.052-2.5,5.42,5.42,0,0,1-.313-2.766,1.782,1.782,0,0,1,1.044-1.1,1.365,1.365,0,0,0,1.2-.835,0.652,0.652,0,0,1,1.148-.366c0.365,0.522.418,2.036-.052,2.088a1.726,1.726,0,0,0-1.148.365,2.145,2.145,0,0,0,.678,1.514,1.644,1.644,0,0,1,.418,1.618c-0.209.261-.783,0.417-0.887,0.626s-0.418,1.409-.157,1.461a9.753,9.753,0,0,1,2.975.731c0.626,0.47,2.557.574,3.5,1.148a1.854,1.854,0,0,1,.835,1.67s-0.209.574,0.522,0.47,1.566-.835,2.609-0.783,2.714,0.887,3.758.522,2.4-1.1,3.549.365S101.063,127.636,101.063,127.636Zm-28.8-4.56c-0.365-.1-0.678.418-1.1,1.253s-1.618.678-1.983,0.574-1.827-.47-2.4.1-0.574,1.514-1.148,1.931a15.011,15.011,0,0,0-2.035,1.148c-0.418.47-1.774,1.253-2.244,0.731s0.522-1.357.939-2.035a5.194,5.194,0,0,0,.157-3.184,1.19,1.19,0,0,0-1.461-.731,2.214,2.214,0,0,1-1.722-1.044,1.814,1.814,0,0,1,.47-1.983,3.27,3.27,0,0,1,1.514-.261,2.551,2.551,0,0,0,0-1.722c-0.365-.679-1.879-0.992-2.14-1.514a1.087,1.087,0,0,1,.731-1.409,2.352,2.352,0,0,0,1.409-.365c0.678-.313-0.261-2.871-0.94-3.236s-0.313-1.357,0-1.931,0.94-.156,1.148-0.47-0.261-1.3.209-2.139,2.192-.47,2.871-0.314,0.365,0.94.209,1.618a11.706,11.706,0,0,0-.574,1.775c-0.052.678,0.365,1.044,0.835,0.887s1.827-.209,2.14.522-0.47,2.035-.783,2.662-0.157.678,0.783,1.2,1.983,3.236,2.4,4.436,0.313,0.522.574,0.835,0.731,0.679,1.044.313a1.506,1.506,0,0,1,1.409-.052,2.208,2.208,0,0,1,.678,2.036C73.152,123.859,72.631,123.18,72.265,123.076Zm-14.207-.033c-0.1.522-1.1,0.522-1.67,0.835s-0.939,1.618-1.3,1.722-0.365-1.983-.365-1.983c-0.052-.469-0.261-0.365-0.47-0.261a1.786,1.786,0,0,1-1.409.209c-0.418-.261-0.209-1.1-0.157-1.722s0.47-.209.887-0.261-0.1-1.253.052-1.618a3.152,3.152,0,0,1,1.2-1.044c0.209-.052.574-0.992,0.992-1.252a1.2,1.2,0,0,1,1.566.208c0.313,0.522.783,1.044,0.47,1.514s-0.731.209-.835,0.47a1.227,1.227,0,0,0,.417.939A4.663,4.663,0,0,1,58.058,123.043Z"/>
  <path id="Shape_153_copy_2" data-name="Shape 153 copy 2" class="cls-4" d="M82.543,75.3L38.01,94.021,54.4,11.63,52.7,71.354l64.09-38.516-51,88.636Z"/>
  <path id="Shape_153_copy" data-name="Shape 153 copy" class="cls-5" d="M53.6,18.745l-1.471,51.5-0.063,2.193,1.881-1.13,61.167-36.759L68.7,115.213,82.639,76.79l0.936-2.579-2.53,1.064L38.819,93.03,53.6,18.745M55.207,4.514L37.2,95.012l44.31-18.632L62.879,127.736l55.583-96.6L53.328,70.274l1.879-65.76h0Z"/>
  <path class="cls-3" d="M79.965,85.072L79.453,84.1a3.007,3.007,0,0,1,1.556-.4q0.119,0,.245.009a5.492,5.492,0,0,1,2.192.783l0.939,0.861s-0.024.405-.014,0.878l-0.026,0a0.12,0.12,0,0,1-.117-0.1c-0.138-.413-2.267-1.308-3.473-1.308a1.527,1.527,0,0,0-.441.055,1.018,1.018,0,0,0-.349.19M67.21,7.3c-1.165,0-2.4,2.9-2.474,3.524-0.074.59,1.243,4.587,0.936,4.587a0.126,0.126,0,0,1-.075-0.046c-0.548-.548-1.8-2.9-2.114-3.132a2.191,2.191,0,0,0-1.094-.334,0.7,0.7,0,0,0-.784.726c-0.079,1.174.078,5.637-.392,5.637s-1.566-3.131-1.723-3.445S57.416,8.5,56.21,8.5a0.364,0.364,0,0,0-.06.005s-1.67,2.3-1.253,7.1,0.94,9.6,1.044,11.691-1.357,29.123-1.566,32.15-0.209,7.515,3.236,9.29,6.472,0.626,7.1,2.088-0.835,4.175-1.357,5.219-3.941,4.932-1.2,8.533c0,0-1.174,2.505-.47,3.68s5.245,1.957,5.245,1.957A11.093,11.093,0,0,1,65.6,87.622a1.277,1.277,0,0,1,.314-0.861,2.125,2.125,0,0,0,1.253,2.113l0.939-1.8s4.149-2.505,5.4-4.149a11.528,11.528,0,0,1,4.384-3.914c2.43-1.4,5.83-4.184,7.789-4.184a1.727,1.727,0,0,1,.353.034,3.44,3.44,0,0,1,2.74,3.21c0.157,1.331-.157,3.131-1.018,3.366a3.005,3.005,0,0,1-1.644-.782,1.413,1.413,0,0,0-1.176-.363,4.043,4.043,0,0,0-1.564.285,2.335,2.335,0,0,0-.939.939,12.485,12.485,0,0,0-2.841-.432,3.614,3.614,0,0,0-1,.118,2.619,2.619,0,0,0-2.035,2.114,2.144,2.144,0,0,0,1.566,1.957,10.3,10.3,0,0,0,1.478.255A3.918,3.918,0,0,0,79.218,87s1.2-.1,1.922-0.1a2.932,2.932,0,0,1,.426.022,1.312,1.312,0,0,1,.7,1.409,0.53,0.53,0,0,1-.51.18,2.86,2.86,0,0,1-1.6-.493,14.107,14.107,0,0,0-5.324-1.723,2.049,2.049,0,0,0-1.957.783c-0.783.079-1.253,1.8-1.253,1.8a1.609,1.609,0,0,1,.77-0.194,2.785,2.785,0,0,1,1.126.3,2.6,2.6,0,0,0,.793.295,0.327,0.327,0,0,0,.051,0,0.415,0.415,0,0,1,.071-0.006,3.663,3.663,0,0,1,1.416.71c-2.27.157-2.975,1.879-2.9,2.27A11.254,11.254,0,0,0,74.6,94.2a2.026,2.026,0,0,1,.571-1.11,0.123,0.123,0,0,1,.055.014,0.307,0.307,0,0,0,.136.025,10.613,10.613,0,0,0,2.292-.808,7.883,7.883,0,0,1,1.765-.108c2.7,0,7.453.264,7.629,0.264a3.27,3.27,0,0,1,1.644,1.018,2.554,2.554,0,0,1-.861.939,9.2,9.2,0,0,0,2.49.517A2.179,2.179,0,0,0,90.8,94.9a2.235,2.235,0,0,0,1.487-2.74c-0.391-1.174-5.4-2.9-5.793-3.053a3.091,3.091,0,0,1-.224-1.726,13.837,13.837,0,0,1,2.176-.317,1.532,1.532,0,0,1,.161.008,13.446,13.446,0,0,1,4.306,2.036c0.7,0.7.861,1.1,0.391,1.331a1.965,1.965,0,0,1-.846.169,2.222,2.222,0,0,1-.25-0.013,3.95,3.95,0,0,0,2.448,1.184,2.1,2.1,0,0,0,.606-0.088c1.565-.469,1.643-1.1,1.643-1.1a1.43,1.43,0,0,0,1.253-1.174c0.078-1.018-1.409-2.583-3.131-3.21a37.7,37.7,0,0,0-3.758-1.1l0.391-.548s4.227-3.131,4.384-3.444-1.409-.313-1.175-0.626,5.4-6.028,5.715-6.576c0.244-.427-0.556-0.474-0.922-0.474-0.1,0-.174,0-0.174,0a7.226,7.226,0,0,0,.627-2.27,0.3,0.3,0,0,0-.314-0.174,1.727,1.727,0,0,0-.626.174s1.252-1.958.94-2.349a0.312,0.312,0,0,0-.258-0.1,1.871,1.871,0,0,0-.575.144,1.875,1.875,0,0,1-.509.144,0.128,0.128,0,0,1-.147-0.1c-0.079-.392,1.957-2.74,1.644-3.366a0.642,0.642,0,0,0-.618-0.355,1.52,1.52,0,0,0-.556.121s1.409-2.114,1.174-2.819a1.09,1.09,0,0,0-.892-0.792,0.233,0.233,0,0,0-.2.088c-0.142.214-1.912,2.576-2.4,2.576a0.105,0.105,0,0,1-.1-0.07c-0.235-.548,2.662-5.48,2.819-6.42,0.153-.916.38-3.764,0.1-3.764a0.052,0.052,0,0,0-.023.006,19.3,19.3,0,0,1-2.481,1.413,0.076,0.076,0,0,1-.024,0c-0.235-.078,3.132-4.853,3.445-8.376a0.1,0.1,0,0,0-.1-0.081,1.29,1.29,0,0,0-.683.629c-0.682.91-2.977,4.239-3.337,4.239a0.04,0.04,0,0,1-.029-0.011c-0.235-.235,3.366-5.089,4.07-7.281,0.693-2.152,1.233-4.229.734-4.23l-0.029,0c-0.517.074-3.476,5.857-3.806,5.857-0.02,0-.03-0.02-0.03-0.064,0-1.018,2.114-5.324,2.427-7.594,0.288-2.09.378-3.716,0.084-3.716a0.139,0.139,0,0,0-.084.037c-0.376.3-1.113,2.045-1.379,2.045a0.055,0.055,0,0,1-.031-0.009c-0.235-.157,2.035-14.718,2.192-17.223s0.235-7.907-.235-8.925a1.657,1.657,0,0,0-1.485-1.006,1,1,0,0,0-.551.145c-0.47.313-1.331,2.505-2.192,6.106s-1.331,6.5-3.445,10.726a111.4,111.4,0,0,1-8.063,12.682,4.394,4.394,0,0,1-1.175.548S82.741,38.3,82.428,37.6s-2.505-4.462-2.975-4.462-0.782,1.487-1.017,1.644a0.149,0.149,0,0,1-.082.029c-0.188,0-.3-0.513-0.231-1.751a41.027,41.027,0,0,0,.313-5.245c-0.151-1.21-.741-2.274-1.2-2.274a0.3,0.3,0,0,0-.048,0c-0.47.078-.392,2.975-0.7,3.288a0.615,0.615,0,0,1-.347.226c-0.1,0-.16-0.1-0.2-0.3-0.079-.391-1.487-7.28-1.958-8.454-0.335-.84-0.551-1.159-0.733-1.159a0.28,0.28,0,0,0-.207.14,0.915,0.915,0,0,1-.475.512,0.341,0.341,0,0,1-.151-0.042c-0.313-.157-1.174-4.541-1.8-6.185S68.392,7.352,67.24,7.3H67.21"/>
  <path id="Shape_154_copy" data-name="Shape 154 copy" class="cls-6" d="M72.591,66.415H72.555a14.7,14.7,0,0,1-3.288-.7,7.766,7.766,0,0,1-2.906-2.6,0.4,0.4,0,0,1,.663-0.448,7.115,7.115,0,0,0,2.522,2.3,14.115,14.115,0,0,0,3.08.655A0.4,0.4,0,0,1,72.591,66.415Zm-0.6,2.814a0.4,0.4,0,1,1-.566.566c-1.055-1.055-2.375-2.1-4.154-1.87a9.168,9.168,0,0,1-3.737-.334,11.524,11.524,0,0,1-4.7-4.661A10.411,10.411,0,0,1,57.788,57.2a0.4,0.4,0,0,1,.8.091,9.769,9.769,0,0,0,.938,5.231A10.9,10.9,0,0,0,63.8,66.84a8.361,8.361,0,0,0,3.36.292A5.752,5.752,0,0,1,71.986,69.229ZM63.7,79.354a2.639,2.639,0,0,1,2.994-.179,2.6,2.6,0,0,1,.511,2.24,1.665,1.665,0,0,1-.659,1.3A4.964,4.964,0,0,1,65.47,83a0.69,0.69,0,0,1-.162.485,0.489,0.489,0,0,1-.36.153,0.55,0.55,0,0,1-.109-0.011,0.4,0.4,0,0,1-.226-0.133,0.391,0.391,0,0,1-.28.02,1.627,1.627,0,0,1-.992-0.977C63.117,81.921,63.167,79.883,63.7,79.354Zm0.4,2.912a0.821,0.821,0,0,0,.475.486l0.071,0.032-0.005-.023a0.4,0.4,0,0,1,.341-0.494,5.6,5.6,0,0,0,1.241-.281,2.722,2.722,0,0,0,.225-1.269,1.343,1.343,0,0,0-.269-0.931,1.115,1.115,0,0,0-.717-0.2,2.082,2.082,0,0,0-1.194.338A4.5,4.5,0,0,0,64.094,82.266Z"/>
  <path class="cls-5" d="M75,148.981a3.576,3.576,0,0,1-1.421-.292c-3.34-1.436-20.689-9.646-34.223-30.4C24.636,95.71,24.874,68.78,24.882,67.644V1.019H125.118V67.656c0.008,1.123.246,28.054-14.473,50.628-13.536,20.76-30.883,28.97-34.223,30.4A3.576,3.576,0,0,1,75,148.981ZM28.01,4.147V67.656c0,0.281-.226,27.156,13.965,48.92,13.043,20,29.643,27.866,32.838,29.239a0.484,0.484,0,0,0,.373,0c3.195-1.373,19.794-9.234,32.838-29.239,14.19-21.764,13.967-48.639,13.965-48.908V4.147H28.01Z"/>
</svg>
