<svg xmlns="http://www.w3.org/2000/svg" width="150" height="150" viewBox="0 0 150 150">
  <defs>
    <style>
      .cls-1, .cls-4 {
        fill: #151515;
      }

      .cls-1, .cls-2 {
        fill-rule: evenodd;
      }

      .cls-2, .cls-3 {
        fill: #eee;
      }
    </style>
  </defs>
  <g id="Layer_3" data-name="Layer 3">
    <g>
      <path id="Shape_33_copy_8" data-name="Shape 33 copy 8" class="cls-1" d="M75.0015,143.987c3.285-1.549,14.632-6.9,26.656-12.593,9.768-4.622,16.533-10.182,21.29-17.5,5.26-8.087,8.01-18.435,8.409-31.634V5.81h-86.615a39.817,39.817,0,0,1-26.095,26.212V82.264c.4,13.2,3.149,23.547,8.409,31.634,4.757,7.314,11.522,12.874,21.29,17.5C60.3705,137.085,71.7185,142.438,75.0015,143.987Z"/>
      <path id="Shape_33_copy_7" data-name="Shape 33 copy 7" class="cls-2" d="M46.9405,8.87a42.981,42.981,0,0,1-25.234,25.341V82.218c.386,12.6,2.975,22.417,7.914,30.012a39.51716,39.51716,0,0,0,8.437,9.285,56.93449,56.93449,0,0,0,11.6,7.113c10.544,4.991,20.756,9.811,25.344,11.972,4.588-2.165,14.8-6.985,25.347-11.976a56.93411,56.93411,0,0,0,11.6-7.113,39.49985,39.49985,0,0,0,8.437-9.285c4.939-7.595,7.528-17.413,7.914-30.012V8.87h-81.356m-4.542-6.12h92.015V82.31c-.85,28.56-12.41,42.84-31.45,51.85-13.157,6.226-25.648,12.118-27.48,12.981a1.13405,1.13405,0,0,1-.97,0c-1.832-.863-14.323-6.755-27.48-12.981-19.04-9.01-30.6-23.29-31.45-51.85V29.693A36.433,36.433,0,0,0,42.4015,2.75Z"/>
      <path id="Shape_33_copy_6" data-name="Shape 33 copy 6" class="cls-1" d="M75.0015,148.7a2.55875,2.55875,0,0,0,1.1-.247c1.4-.658,14.027-6.615,27.481-12.982,10.41-4.926,17.979-11.178,23.139-19.112,5.729-8.809,8.718-19.931,9.137-34V2.75a1.445,1.445,0,0,0-1.44-1.45l-.002,0H42.4015a1.444,1.444,0,0,0-1.406,1.112,35.189,35.189,0,0,1-25.749,25.872,1.445,1.445,0,0,0-1.105,1.4V82.353c.418,14.07,3.407,25.192,9.136,34,5.161,7.934,12.73,14.186,23.14,19.112,13.455,6.368,26.084,12.325,27.484,12.983A2.555,2.555,0,0,0,75.0015,148.7Zm57.97-66.412c-.769,25.648-9.928,40.773-30.623,50.566-13.1,6.2-25.426,12.013-27.347,12.919-1.923-.907-14.245-6.719-27.347-12.919-20.7-9.793-29.854-24.918-30.623-50.566V30.813a37.78,37.78,0,0,0,16.777-9.8,37.774,37.774,0,0,0,9.718-16.822h89.445Z"/>
    </g>
  </g>
  <g id="Layer_6" data-name="Layer 6">
    <g>
      <g>
        <path class="cls-3" d="M76.57328,65.56412c.63084,6.62394,4.416,13.56334,4.416,13.56334l32.489-15.29823C111.428,37.64881,89.66352,31.02482,89.66352,31.02482L64.74478,59.41329l.00979.0064-16.86043.16068s-7.53748,11.6414-7.69782,12.30978c-.06426.26789,1.23733,1.32328,2.8194,2.49158l3.75873-3.14259a4.14062,4.14062,0,0,1,5.83393.52191,4.24193,4.24193,0,0,1,.18494,5.183,4.20747,4.20747,0,0,1,2.06645-.36064,4.16544,4.16544,0,0,1,2.322.97023c.34465-.37117,1.03478-1.44151.04531-3.42043-1.26168-2.52342-3.99538-5.04684-5.46739-5.46745H47.13341l4.62627-1.26168a12.341,12.341,0,0,1,2.44042,1.32161L56.386,66.14237l.15715,4.55709a14.38161,14.38161,0,0,1,3.62795,6.588l-1.43068,3.06585a4.23716,4.23716,0,0,1,.02076.89583,4.1635,4.1635,0,0,1-.66125,1.88111,3.97679,3.97679,0,0,1,3.398.071c1.92893-5.94188,6.4538-7.59608,6.4538-7.59608-3.749,3.26-4.21092,8.02313-4.23,10.00619a4.13183,4.13183,0,0,1-.45722,3.8707,3.31722,3.31722,0,0,1,4.0772.82223l.23773.2834a3.31223,3.31223,0,0,1,.7628,2.4348c-.00315.03543-.0153.06819-.01953.10332,2.4779-1.876,5.1533-3.89034,7.33217-5.52771a6.86463,6.86463,0,0,0,2.29478-7.94948,66.07029,66.07029,0,0,1-3.1637-12.1394c-3.54-2.00086-9.46691-7.59121-9.75128-7.86023l.03616-.02165A62.6557,62.6557,0,0,0,76.57328,65.56412Z"/>
        <path class="cls-4" d="M68.32252,93.6261a.50046.50046,0,0,1-.49707-.55566c.00195-.01953.01563-.08887.01953-.1084a2.80541,2.80541,0,0,0-.64941-2.05371l-.23731-.28418a2.82009,2.82009,0,0,0-3.46582-.69726.49995.49995,0,0,1-.63867-.73047,3.61374,3.61374,0,0,0,.40332-3.40137.49692.49692,0,0,1-.03516-.18848,15.30439,15.30439,0,0,1,2.07227-7.6123,12.63829,12.63829,0,0,0-3.32031,5.36133.5004.5004,0,0,1-.2793.30566.50594.50594,0,0,1-.41406-.00977,3.60627,3.60627,0,0,0-1.25-.35449,3.5443,3.5443,0,0,0-1.7334.293.50008.50008,0,0,1-.61816-.72949,3.54058,3.54058,0,0,0,.56543-2.44629.491.491,0,0,1,.043-.27148l1.35547-2.9043a13.88436,13.88436,0,0,0-3.459-6.19238.5019.5019,0,0,1-.14063-.32911l-.1123-3.26269L54.58229,69.049a.50425.50425,0,0,1-.66309.09082,12.73334,12.73334,0,0,0-2.18848-1.209l-.86328.23535H51.76a.49236.49236,0,0,1,.13672.01953c1.57226.44825,4.43848,3.0459,5.77734,5.72364,1.12891,2.25879.28809,3.53906-.126,3.98437a.49913.49913,0,0,1-.68848.043,3.61188,3.61188,0,0,0-3.86426-.53516.49986.49986,0,0,1-.60937-.74707,3.74162,3.74162,0,0,0-.16114-4.57324,3.63953,3.63953,0,0,0-5.1289-.458l-3.75977,3.14258a.49763.49763,0,0,1-.61719.01856c-3.0166-2.22852-3.10839-2.59571-3.00878-3.01075.16308-.67871,5.48339-8.94335,7.76367-12.46484a.5002.5002,0,0,1,.415-.22851L64.51,58.922,89.28736,30.69446a.4976.4976,0,0,1,.52149-.14843c.2207.06738,22.11426,7.02636,24.167,33.24414a.49787.49787,0,0,1-.28516.49121L81.2024,79.57923a.50127.50127,0,0,1-.65136-.21289c-.1543-.28223-3.72852-6.89649-4.44336-13.44531a64.91605,64.91605,0,0,1-6.98828-3.28418,43.88092,43.88092,0,0,0,5.9121,4.43652.49994.49994,0,0,1,.24805.36133,66.15468,66.15468,0,0,0,3.13672,12.03418,7.3942,7.3942,0,0,1-2.46094,8.52832c-2.17871,1.63769-4.85351,3.65234-7.33105,5.52734A.49939.49939,0,0,1,68.32252,93.6261Zm-3.52344-5.01562c.10742,0,.21485.00488.32325.01367a3.81294,3.81294,0,0,1,2.60253,1.3584l.23829.28516a3.81,3.81,0,0,1,.84668,1.8623c2.24707-1.69922,4.59472-3.4668,6.54394-4.93164a6.38937,6.38937,0,0,0,2.12891-7.37012,66.85822,66.85822,0,0,1-3.15332-12.00586c-3.65039-2.14648-9.39161-7.57617-9.63868-7.81152a.443.443,0,0,1-.07519-.08984l-16.44824.15625c-2.6875,4.15429-6.79981,10.60156-7.4209,11.80371a16.63024,16.63024,0,0,0,2.251,1.86425l3.457-2.88964a4.63975,4.63975,0,0,1,6.53808.585,4.731,4.731,0,0,1,.7959,4.68652,4.58177,4.58177,0,0,1,1.11426-.042,4.65269,4.65269,0,0,1,2.16113.75683,2.78507,2.78507,0,0,0-.28418-2.48535c-1.15625-2.31152-3.73535-4.751-5.09375-5.19043H47.13307a.50013.50013,0,0,1-.13184-.98242l4.627-1.26172a.49041.49041,0,0,1,.30176.0127,12.11282,12.11282,0,0,1,2.17481,1.12988l1.89941-2.24512a.50029.50029,0,0,1,.88184.30567l.15039,4.36718a14.88914,14.88914,0,0,1,3.62011,6.67383.49875.49875,0,0,1-.03222.332l-1.3711,2.94043a4.64852,4.64852,0,0,1,.00586.85547,4.4817,4.4817,0,0,1-.22265,1.04492,4.29528,4.29528,0,0,1,1.084-.03808,4.46068,4.46068,0,0,1,1.07813.23535,12.22905,12.22905,0,0,1,6.581-7.40039.5.5,0,0,1,.5.84668c-3.55078,3.08789-4.02539,7.62988-4.05664,9.54a4.60581,4.60581,0,0,1,.02539,3.127A3.98494,3.98494,0,0,1,64.79908,88.61048Zm.7002-29.29883a62.78666,62.78666,0,0,0,11.24707,5.78418.50029.50029,0,0,1,.32519.4209c.52637,5.5332,3.33106,11.36719,4.13965,12.95312l31.74024-14.94531C110.92994,39.92493,92.42018,32.52942,89.81861,31.6056Z"/>
      </g>
      <g>
        <path class="cls-3" d="M48.41527,81.41782l-8.03209,6.7154a2.96976,2.96976,0,0,0-.37313,4.184l.63526.76044a2.97544,2.97544,0,0,0,4.184.37313l7.49507-6.26655A7.35359,7.35359,0,0,0,48.41527,81.41782Z"/>
        <path class="cls-4" d="M42.926,94.63978A3.46051,3.46051,0,0,1,40.262,93.39759l-.63574-.75879a3.47242,3.47242,0,0,1,.43652-4.88965L48.095,81.03431a.50456.50456,0,0,1,.543-.06446,7.82659,7.82659,0,0,1,4.18066,6.1377.50048.50048,0,0,1-.17382.46l-7.49512,6.2666A3.46126,3.46126,0,0,1,42.926,94.63978Zm5.55175-12.62207-7.77441,6.499a2.4709,2.4709,0,0,0-.30957,3.47949l.63574.75977a2.47234,2.47234,0,0,0,3.47949.31054l7.27442-6.082A6.852,6.852,0,0,0,48.47779,82.01771Z"/>
      </g>
      <g>
        <path class="cls-3" d="M57.09227,78.59079a3.36989,3.36989,0,0,0-1.21544-.90744l-3.71076.59851L50.224,79.90566a22.04436,22.04436,0,0,0,4.20394,5.51984L56.04436,84.074l1.86728-3.76286a3.37173,3.37173,0,0,0-.73121-1.61485Z"/>
        <path class="cls-4" d="M54.428,85.92591a.49713.49713,0,0,1-.34766-.14063,22.26031,22.26031,0,0,1-4.31152-5.67285.50071.50071,0,0,1,.13477-.59082l1.94238-1.624a.49131.49131,0,0,1,.24121-.10938l3.71094-.59765a.4742.4742,0,0,1,.28418.03711,3.85425,3.85425,0,0,1,1.39257,1.041l.08887.10547a3.90163,3.90163,0,0,1,.84082,1.85352.5003.5003,0,0,1-.04492.30566L56.49244,84.297a.51077.51077,0,0,1-.12793.16114L54.7483,85.8097A.49613.49613,0,0,1,54.428,85.92591Zm-3.584-5.88672a21.73551,21.73551,0,0,0,3.61329,4.71094l1.18554-.99219,1.7461-3.51855a2.83783,2.83783,0,0,0-.5918-1.22266l-.08789-.10352-.001-.002a2.82527,2.82527,0,0,0-.90527-.709l-3.42188.55078Z"/>
      </g>
      <g>
        <path class="cls-3" d="M41.9993,85.1151l6.23934-5.21623a7.16473,7.16473,0,0,0-4.14992-5.36378l-6.43634,5.38134a3.26366,3.26366,0,0,0-.41013,4.59725l.16059.19207a3.26348,3.26348,0,0,0,4.59646.40935Z"/>
        <path class="cls-4" d="M39.90455,86.37513q-.16553,0-.331-.01465a3.74024,3.74024,0,0,1-2.55371-1.333l-.16114-.19336a3.76485,3.76485,0,0,1,.47266-5.30176l6.4375-5.38086a.4994.4994,0,0,1,.51562-.07617,7.69022,7.69022,0,0,1,4.44336,5.71973.50037.50037,0,0,1-.16894.4873l-6.23828,5.21582A3.74172,3.74172,0,0,1,39.90455,86.37513Zm4.26367-11.25391-6.19531,5.17871a2.76334,2.76334,0,0,0-.34668,3.89258l.16016.19336a2.76439,2.76439,0,0,0,3.8916.34668l.001-.001,6.0039-5.02051A6.7083,6.7083,0,0,0,44.16822,75.12122Z"/>
      </g>
      <g>
        <path class="cls-3" d="M50.71881,71.3553l-3.9113.9067-.71758.59995a19.93042,19.93042,0,0,0,3.99745,5.4913l1.01839-.8514,1.57784-3.80857a3.39867,3.39867,0,0,0-.694-1.41583A3.3083,3.3083,0,0,0,50.71881,71.3553Z"/>
        <path class="cls-4" d="M50.08717,78.85364a.49973.49973,0,0,1-.35645-.14843,20.4379,20.4379,0,0,1-4.10449-5.65528.50163.50163,0,0,1,.14258-.57129l.71777-.60058a.50917.50917,0,0,1,.208-.10352l3.91113-.90625a.48442.48442,0,0,1,.30664.02637,3.77094,3.77094,0,0,1,1.46094,1.0625,3.893,3.893,0,0,1,.79688,1.62109.49955.49955,0,0,1-.02442.30664l-1.57812,3.8086a.50148.50148,0,0,1-.1416.19238l-1.01856.85156A.49608.49608,0,0,1,50.08717,78.85364ZM46.69752,73.006a19.5432,19.5432,0,0,0,3.42578,4.666l.56738-.47461,1.4668-3.54a2.85176,2.85176,0,0,0-.55176-1.05957,2.74059,2.74059,0,0,0-.9375-.71679l-3.63086.84082Z"/>
      </g>
      <g>
        <path class="cls-3" d="M53.15829,88.06188l-6.0603,5.0669a2.977,2.977,0,0,0-.37392,4.18869l.62739.7502a2.97675,2.97675,0,0,0,4.18869.37392l6.08077-5.084A7.0649,7.0649,0,0,0,53.15829,88.06188Z"/>
        <path class="cls-4" d="M49.6399,99.63294c-.10547,0-.21093-.00488-.31738-.01367A3.4484,3.4484,0,0,1,46.968,98.38782l-.62793-.749a3.47839,3.47839,0,0,1,.4375-4.89356l6.06055-5.06738a.50129.50129,0,0,1,.47851-.09082,7.62146,7.62146,0,0,1,4.791,5.65625.49793.49793,0,0,1-.166.498l-6.081,5.084A3.44358,3.44358,0,0,1,49.6399,99.63294Zm3.61621-11.001-5.83789,4.88086a2.47817,2.47817,0,0,0-.31054,3.48438l.62793.749a2.47453,2.47453,0,0,0,3.48437.31152l5.83887-4.88183A6.63411,6.63411,0,0,0,53.25611,88.632Z"/>
      </g>
      <g>
        <path class="cls-3" d="M55.40254,86.18549c.74558,2.18433,2.94934,4.631,3.984,5.69583l1.90979-1.59674,1.8514-3.73093a3.26966,3.26966,0,0,0-.70332-1.54246l-.19758-.23538a3.27283,3.27283,0,0,0-.64472-.578l-4.73594.76388Z"/>
        <path class="cls-4" d="M59.387,92.381a.49751.49751,0,0,1-.35839-.15137c-.96875-.99707-3.3086-3.56445-4.09961-5.88281a.50019.50019,0,0,1,.15332-.54492l1.46386-1.22364a.492.492,0,0,1,.24024-.10937l4.73535-.76465a.48073.48073,0,0,1,.36719.084,3.76416,3.76416,0,0,1,.74121.666l.19726.23535a3.76054,3.76054,0,0,1,.8125,1.77637.50905.50905,0,0,1-.04394.31054L61.7444,90.507a.51077.51077,0,0,1-.12793.16114l-1.90918,1.59668A.49618.49618,0,0,1,59.387,92.381ZM55.9944,86.3429a18.13124,18.13124,0,0,0,3.43066,4.85449l1.46973-1.22949,1.72851-3.48242a2.72422,2.72422,0,0,0-.5625-1.1543l-.19629-.23437a2.55434,2.55434,0,0,0-.39062-.37207l-4.39258.709Z"/>
      </g>
      <g>
        <path class="cls-3" d="M60.25981,92.9308l-5.3166,4.44492a2.34485,2.34485,0,0,0-.29441,3.30309l.47075.56364a2.34825,2.34825,0,0,0,3.30387.2952l5.19763-4.34544A5.59069,5.59069,0,0,0,60.25981,92.9308Z"/>
        <path class="cls-4" d="M56.92018,102.58216a2.83992,2.83992,0,0,1-2.18457-1.01953l-.47071-.56348a2.843,2.843,0,0,1,.3584-4.00684L59.93971,92.547a.50334.50334,0,0,1,.50976-.0791,6.1123,6.1123,0,0,1,3.66309,4.62891.503.503,0,0,1-.1709.47949L58.74342,101.921A2.8361,2.8361,0,0,1,56.92018,102.58216Zm3.4209-9.06738-5.07715,4.24511a1.84379,1.84379,0,0,0-.23145,2.59864l.4707.56347a1.84788,1.84788,0,0,0,2.59961.23145l4.96582-4.15039A5.11346,5.11346,0,0,0,60.34108,93.51478Z"/>
      </g>
      <g>
        <path class="cls-3" d="M66.72286,90.8215a2.4927,2.4927,0,0,0-1.01706-.72l-3.63553,1.31571-.2524.211a15.47442,15.47442,0,0,0,3.373,4.25161l.95817-.80107,1.36161-2.74389a2.50688,2.50688,0,0,0-.55-1.22994Z"/>
        <path class="cls-4" d="M65.19068,96.38a.50225.50225,0,0,1-.33984-.13281,15.765,15.765,0,0,1-3.49121-4.41992.49814.49814,0,0,1,.1377-.583l.25292-.21094a.50123.50123,0,0,1,.1504-.08594L65.53541,89.632a.50093.50093,0,0,1,.35156.00391,2.97169,2.97169,0,0,1,1.21875.86426l.23731.2832a3.03562,3.03562,0,0,1,.66211,1.47461.50508.50508,0,0,1-.0459.2998l-1.36231,2.74317A.52165.52165,0,0,1,66.47,95.462l-.958.80176A.50408.50408,0,0,1,65.19068,96.38Zm-2.73144-4.57227a15.55808,15.55808,0,0,0,2.752,3.40332l.53614-.44921,1.24121-2.498a2.00687,2.00687,0,0,0-.41211-.83887l-.23633-.28222-.001-.001a1.94121,1.94121,0,0,0-.65039-.50195Z"/>
      </g>
    </g>
  </g>
</svg>
