<svg id="ger_moscow_assault_3_icon" xmlns="http://www.w3.org/2000/svg" width="150" height="150" viewBox="0 0 150 150">
  <defs>
    <style>
      .cls-1 {
        fill: #f2f2f2;
      }

      .cls-1, .cls-2 {
        fill-rule: evenodd;
      }

      .cls-2 {
        fill: #151515;
      }
    </style>
  </defs>
  <path id="Shape_244_copy_4" data-name="Shape 244 copy 4" class="cls-1" d="M74.743,146.277a101.743,101.743,0,0,1-36.8-23.232c-22.21-22.211-20.259-60.4-20.259-60.4V3.723H132.316V62.64s1.952,38.194-20.259,60.4a101.74,101.74,0,0,1-36.8,23.232H74.743Z"/>
  <path id="Shape_244_copy_3" data-name="Shape 244 copy 3" class="cls-2" d="M132.163,84.82a91.842,91.842,0,0,1-6.036,20.09,62.694,62.694,0,0,1-12.885,19.32,104.244,104.244,0,0,1-25.153,18.26,85.254,85.254,0,0,1-12.325,5.385l-0.248.079H74.483l-0.248-.079a85.254,85.254,0,0,1-12.325-5.385,104.25,104.25,0,0,1-25.153-18.26,62.691,62.691,0,0,1-12.885-19.32A91.841,91.841,0,0,1,17.837,84.82,105.038,105.038,0,0,1,16.009,62.6V2.047H133.991V62.6A105.006,105.006,0,0,1,132.163,84.82Zm-1.52-22.094,0-.086V5.4H19.359V62.683l0,0.043a103.331,103.331,0,0,0,1.79,21.563c2.049,10.986,6.831,26.422,17.981,37.571a100.882,100.882,0,0,0,24.258,17.619A87.009,87.009,0,0,0,75,144.6a86.989,86.989,0,0,0,11.614-5.118,100.883,100.883,0,0,0,24.259-17.619c11.169-11.169,15.951-26.64,17.995-37.652A102.924,102.924,0,0,0,130.643,62.726ZM118.1,101.6a53.962,53.962,0,0,1-11,16.495,95.437,95.437,0,0,1-22.726,16.543A89.9,89.9,0,0,1,75,138.923a89.9,89.9,0,0,1-9.377-4.289A95.446,95.446,0,0,1,42.9,118.091a53.971,53.971,0,0,1-11-16.495,82.783,82.783,0,0,1-5.465-18.033,98.574,98.574,0,0,1-1.753-20.572l0.009-.162v-52.1H125.31v52.08l0.01,0.182a98.572,98.572,0,0,1-1.753,20.572A82.805,82.805,0,0,1,118.1,101.6Zm2.959-38.381-0.014-.287V14.993H28.954V62.955L28.94,63.2A94.851,94.851,0,0,0,30.662,82.97a78.253,78.253,0,0,0,5.183,17,49.666,49.666,0,0,0,10.067,15.1,91.062,91.062,0,0,0,21.512,15.687c3.052,1.613,5.68,2.788,7.576,3.57,1.9-.782,4.524-1.957,7.576-3.57a91.062,91.062,0,0,0,21.512-15.687A49.839,49.839,0,0,0,114.272,99.71a79.027,79.027,0,0,0,5.163-17.254A94.133,94.133,0,0,0,121.06,63.215ZM75.071,100.37a41.261,41.261,0,1,1,41.261-41.261A41.261,41.261,0,0,1,75.071,100.37ZM98.755,35.426a33.493,33.493,0,1,0,9.81,23.683A33.274,33.274,0,0,0,98.755,35.426Z"/>
</svg>
