<svg id="_3_parachute_division" data-name="3_parachute_division" xmlns="http://www.w3.org/2000/svg" width="150" height="150" viewBox="0 0 150 150">
  <defs>
    <style>
      .cls-1 {
        fill: #ababab;
      }

      .cls-1, .cls-2, .cls-3, .cls-4 {
        fill-rule: evenodd;
      }

      .cls-2 {
        fill: #585555;
      }

      .cls-3 {
        fill: #ffda2d;
      }

      .cls-4 {
        fill: #151515;
      }
    </style>
  </defs>
  <path class="cls-1" d="M130.88,75A58.88,58.88,0,1,1,72,16.12,58.879,58.879,0,0,1,130.88,75Z"/>
  <path class="cls-2" d="M72,15.548a59.424,59.424,0,0,0-53.347,85.661l-0.018.016L18.7,101.3A59.445,59.445,0,1,0,72,15.548ZM18.438,98.019L31.3,87c0.067,0.227.127,0.457,0.2,0.682L18.716,98.633C18.624,98.428,18.527,98.226,18.438,98.019ZM127.422,84.167a9.225,9.225,0,0,0-.434-1.219l-0.349-.795-0.593.635a5.509,5.509,0,0,0-.743,6.219l0.282,0.536,0.519-.312a2.62,2.62,0,0,0,.316-0.251,55.739,55.739,0,0,1-4.281,11.319,7.758,7.758,0,0,0-.011-1.307l-0.078-.857-0.34.18c1.089-.818,2.5-2.6,2.051-6.212l-0.076-.605-0.6.114c-0.039.008-3.95,0.824-3.242,6.845l0.079,0.668,0.647-.185c0.005,0,.1-0.031.235-0.091a4.735,4.735,0,0,0-1.766,5.076l0.173,0.692,0.638-.319c0.011,0,.05-0.027.1-0.058-0.333.543-.681,1.076-1.031,1.607a4.29,4.29,0,0,0,.094-1.491l-0.088-.587-0.583.109c-2.98.558-3.546,3.928-3.568,4.071l-0.115.726,0.732-.067a4.443,4.443,0,0,0,2.094-.693A56.462,56.462,0,0,1,92.556,127.27a4.925,4.925,0,0,0,1.564-1.841l0.242-.592-0.615-.176a6.15,6.15,0,0,0-7.2,2.393l-0.361.631,0.7,0.2a8.754,8.754,0,0,0,2.433.375c0.209,0,.409-0.012.6-0.03a55.55,55.55,0,0,1-7.309,1.93,5.9,5.9,0,0,0,2.069-1.449l0.543-.571-0.71-.34c-0.167-.08-4.129-1.928-7.319.731L76.63,129l0.595,0.433a6.694,6.694,0,0,0,3.379,1.086,56.369,56.369,0,0,1-8.6.659,55.36,55.36,0,0,1-6.244-.36,3.933,3.933,0,0,0,.383-0.254l0.436-.341-0.328-.448a3.712,3.712,0,0,0-5.371-.619l-0.555.393,0.481,0.48,0.008,0.008a56.118,56.118,0,0,1-5.8-1.521,7.422,7.422,0,0,0,1.044.075c0.247,0,.507-0.01.781-0.032l0.634-.051-0.117-.625c-0.006-.032-0.64-3.14-5.371-2.589l-0.658.076,0.171,0.64a3.368,3.368,0,0,0,1.474,1.81,56.29,56.29,0,0,1-5.942-2.541c0.041,0,.074.01,0.115,0.01h0.706L47.7,124.6a4.167,4.167,0,0,0-.858-1.72,6.5,6.5,0,0,0,4.684,1.6c0.123,0,.249,0,0.377,0l0.733-.025-0.2-.7c-0.011-.038-1.16-3.875-6.314-3.521l-0.682.047,0.166,0.663a4.181,4.181,0,0,0,.821,1.509,4.52,4.52,0,0,0-3.589-1.074l-0.656.06,0.151,0.641a3.451,3.451,0,0,0,.319.791A56.442,56.442,0,0,1,28.4,110.409c0.051,0.03.095,0.063,0.148,0.092l0.547,0.3,0.254-.573a3.767,3.767,0,0,0,.008-2.761,4.592,4.592,0,0,0-2.776-2.42l-0.651-.255-0.122.688a4.554,4.554,0,0,0,.067,1.58c-0.833-1.195-1.628-2.422-2.371-3.689l-0.6.351,5.965-5.113c-0.055.787,0.19,2.636,3.044,4.809L32.672,104l0.149-.947a5,5,0,0,0-3.094-5.182l2.728-2.339a44.491,44.491,0,0,0,18.9,19,10.142,10.142,0,0,0-3.547-.691l-0.9-.029,0.36,0.83a6.609,6.609,0,0,0,5.937,3.659,8.127,8.127,0,0,0,.864-0.047l0.7-.074-0.21-.667a5.054,5.054,0,0,0-2.352-2.571,44.143,44.143,0,0,0,7.849,3.007c-0.388.032-.794,0.08-1.231,0.153l-0.793.131,0.385,0.707a5.92,5.92,0,0,0,5.039,2.777,7.9,7.9,0,0,0,2.338-.378l0.523-.162-0.139-.531A3.384,3.384,0,0,0,64.941,119a45.17,45.17,0,0,0,7.059.573c0.666,0,1.328-.021,1.987-0.05a10.5,10.5,0,0,0-3.866,1.087l-0.9.421,0.816,0.567a8.268,8.268,0,0,0,4.188,1.306,5.3,5.3,0,0,0,3.362-1.164l0.4-.317-0.272-.436a3.86,3.86,0,0,0-3.312-1.481,44.216,44.216,0,0,0,5.425-.636,3.91,3.91,0,0,0-.415.412l-0.38.444,0.451,0.371a5.107,5.107,0,0,0,3.116,1.1,4.718,4.718,0,0,0,3.121-1.219l-0.164.265,0.6,0.266a6.184,6.184,0,0,0,2.514.549,7.1,7.1,0,0,0,4.63-1.941,4.129,4.129,0,0,0-.244.483l-0.32.76,0.824,0.034c0.129,0,.255.008,0.378,0.008a6.909,6.909,0,0,0,1.729-.209,6.869,6.869,0,0,0-2.309,3.243l-0.187.7,0.724,0.019c0.118,0,.234.005,0.349,0.005,6.119,0,7.561-4.452,7.575-4.5l0.2-.644-0.669-.091a8.433,8.433,0,0,0-3.725.258,3.685,3.685,0,0,0,1.1-1.678l0.145-.582-0.588-.118a4.421,4.421,0,0,0-3.962,1.073l-0.712-.237c-4.242-1.416-6.621.734-7.405,1.654l-0.5-.3a8.176,8.176,0,0,0-2.4-.882A44.747,44.747,0,0,0,114.358,88.84c0.029,0.171.058,0.341,0.1,0.522l0.226,0.951,0.719-.663a5.453,5.453,0,0,0,1.469-5.325l-0.212-.719L116.023,84a2.967,2.967,0,0,0-.454.371,44.564,44.564,0,1,0-86.408,2.95l-9.492,8.136A56.191,56.191,0,1,1,127.422,84.167Zm-1.413,3.587a4.209,4.209,0,0,1,.3-3.341A3.682,3.682,0,0,1,126.009,87.754Zm-5.1,9.749c-0.136-2.906,1.025-4.066,1.779-4.51C122.832,95.738,121.682,96.982,120.913,97.5Zm-0.894,5.2a3.449,3.449,0,0,1,.979-2.495A4.154,4.154,0,0,1,120.019,102.7Zm-2.143,2.519a2.582,2.582,0,0,1-.505,1.3,2.426,2.426,0,0,1-1.231.791A3.669,3.669,0,0,1,117.876,105.223ZM88.038,126.989a4.927,4.927,0,0,1,4.656-1.4C92.107,126.352,90.739,127.5,88.038,126.989Zm-9.408,1.933a5.872,5.872,0,0,1,4.547-.392A4.317,4.317,0,0,1,78.63,128.922Zm-16.406.775a2.427,2.427,0,0,1,2.658.312A2.753,2.753,0,0,1,62.224,129.7Zm-9.218-3.319h0.051a3.372,3.372,0,0,1,2.833,1.071A3.8,3.8,0,0,1,53.006,126.378Zm-9.248-3.873a3.042,3.042,0,0,1,2.516,1.578A3.461,3.461,0,0,1,43.758,122.505Zm3.285-1.154a4.577,4.577,0,0,1,3.923,1.968A4.678,4.678,0,0,1,47.043,121.351Zm-20.11-14.868a3.008,3.008,0,0,1,1.355,1.411,2.451,2.451,0,0,1,.168,1.185A3.79,3.79,0,0,1,26.933,106.483Zm3.157-7.09a3.739,3.739,0,0,1,1.531,2.285A5.209,5.209,0,0,1,30.09,99.393ZM72,117.442a42.44,42.44,0,1,0-41.05-31.656l-0.816.7a43.376,43.376,0,1,1,3.21,8.289l0.776-.666A42.479,42.479,0,0,0,72,117.442ZM30.7,75A41.3,41.3,0,1,1,72,116.3,41.345,41.345,0,0,1,30.7,75Zm53.589,44.592a3.565,3.565,0,0,1-3.5-.017A3.973,3.973,0,0,1,84.291,119.592Zm-19.507.834a4.877,4.877,0,0,1-4.821-1.32C63.035,118.8,64.3,119.78,64.784,120.426Zm-15.913-5.353a5.878,5.878,0,0,1,4.193,2.085A5.3,5.3,0,0,1,48.871,115.073ZM76.345,121.2a5.1,5.1,0,0,1-4.666-.01C74.336,120.205,75.728,120.756,76.345,121.2Zm11-1.483a5.182,5.182,0,0,1,4.972-1.249A5.36,5.36,0,0,1,87.35,119.717Zm7.275-.5a3.358,3.358,0,0,1,2.669-1.37A3.542,3.542,0,0,1,94.625,119.215Zm5.345,0.754c0.145,0,.294,0,0.446.012-0.591,1.013-2.14,2.851-5.653,3.015A5.471,5.471,0,0,1,99.97,119.969Zm15.432-32.2a3.715,3.715,0,0,1,.538-2.056A4.13,4.13,0,0,1,115.4,87.773ZM19.208,99.719L31.89,88.849c0.091,0.262.174,0.526,0.269,0.785l-12.612,10.81C19.431,100.2,19.321,99.961,19.208,99.719Zm0.876,1.772L32.6,90.76c0.1,0.241.185,0.486,0.286,0.724l-12.46,10.68C20.312,101.941,20.2,101.715,20.084,101.491Zm0.9,1.7,12.4-10.625c0.073,0.159.142,0.32,0.217,0.479L21.242,103.641C21.157,103.492,21.068,103.346,20.985,103.2ZM72,133.308a58.329,58.329,0,0,1-50.177-28.657l0.732-.628A57.338,57.338,0,1,0,14.674,75a57.011,57.011,0,0,0,4.069,21.249l-0.766.656A58.3,58.3,0,1,1,72,133.308ZM34.036,109.794l0.1-.7c0.007-.053.647-5.252-5.8-7.169l-0.791-.236,0.057,0.824a8.443,8.443,0,0,0,5.777,7.042ZM28.9,103.335c3.324,1.312,3.985,3.632,4.094,4.837A7.287,7.287,0,0,1,28.9,103.335Zm9.732,4.925,0.806,0.239-0.073-.838c-0.015-.169-0.417-4.17-5.319-5.571l-0.837-.239,0.112,0.864A7.12,7.12,0,0,0,38.636,108.26ZM37.982,106.8a6.038,6.038,0,0,1-3.235-3.252A5.73,5.73,0,0,1,37.982,106.8Zm-6.7,3.143-0.646-.208-0.1.672c-0.005.039-.5,3.924,4.633,5.693l0.691,0.238,0.066-.728C35.937,115.573,36.245,111.541,31.286,109.946Zm0.43,1.383a4.708,4.708,0,0,1,3.007,3.363A4.654,4.654,0,0,1,31.717,111.329Zm7.155,2.206c0.005-.033.526-3.283-3.817-4.731l-0.709-.237-0.044.747c-0.008.13-.144,3.222,3.81,4.66l0.641,0.233Zm-3.277-3.279a3.543,3.543,0,0,1,2.089,2.282A4.015,4.015,0,0,1,35.594,110.256ZM39.043,115l-0.626-.09-0.027.632c0,0.042-.126,4.242,4.849,5.487l0.684,0.171,0.027-.7A5.444,5.444,0,0,0,39.043,115Zm0.56,1.279a4.11,4.11,0,0,1,3.135,3.4A4.532,4.532,0,0,1,39.6,116.274Zm-1.086-6.59,0.23,0.667a7.837,7.837,0,0,0,7.305,4.969c0.094,0,.19,0,0.286,0l0.777-.023-0.252-.735c-0.02-.057-2.011-5.65-7.645-4.962Zm6.914,4.467a6.473,6.473,0,0,1-5.278-3.47A5.994,5.994,0,0,1,45.431,114.151Zm-1.816,1.336-0.643.1,0.184,0.625c0.038,0.128.942,3.035,5.107,3.035,0.121,0,.245,0,0.372-0.007l0.948-.038-0.475-.821C49.026,118.242,47.067,114.93,43.616,115.487Zm1.02,1.1a4.355,4.355,0,0,1,2.787,1.47A3.933,3.933,0,0,1,44.635,116.583Zm14.832,6.908,0.581-.061-0.073-.579c-0.023-.183-0.648-4.458-8.145-3.771l-0.718.067,0.228,0.684c0.055,0.165,1.312,3.738,6.7,3.738A13.711,13.711,0,0,0,59.467,123.491Zm-6.665-3.33c4.057-.174,5.4,1.368,5.835,2.247C55.052,122.606,53.444,121.089,52.8,120.161Zm4.961,5-0.718.226,0.409,0.631c0.067,0.1,1.4,2.087,4.874,2.087a11.521,11.521,0,0,0,2.778-.369l0.636-.16-0.243-.609C65.437,126.809,63.925,123.222,57.763,125.156Zm1.265,0.837c2.943-.7,4.365.155,4.987,0.8C61.336,127.278,59.794,126.568,59.028,125.993Zm9.5,0.329a11.285,11.285,0,0,0,3.831-.736l0.571-.206-0.239-.558a5.026,5.026,0,0,0-2.807-2.514c-1.761-.635-3.889-0.325-6.322.922l-0.59.3,0.385,0.54A6.349,6.349,0,0,0,68.528,126.322Zm0.948-2.944a3.932,3.932,0,0,1,1.825,1.353c-3.6,1.083-5.648-.078-6.517-0.817A6.357,6.357,0,0,1,69.476,123.378Zm-2.965,4.757-0.629.314L66.317,129a5.379,5.379,0,0,0,3.948,1.813,6.454,6.454,0,0,0,3.337-1.022l0.515-.31-0.333-.5C73.763,128.95,71.486,125.645,66.511,128.135Zm1.267,0.684c2.456-.97,3.924-0.23,4.6.33A4.212,4.212,0,0,1,67.778,128.819Zm5.061-3.11-0.582.367,0.467,0.506a4.175,4.175,0,0,0,2.983,1.229,5.029,5.029,0,0,0,2.643-.8l0.55-.336-0.4-.506C78.48,126.14,76.343,123.5,72.839,125.709Zm1.367,0.568a2.938,2.938,0,0,1,2.83.119A3.193,3.193,0,0,1,74.206,126.277Zm19.9-4.985-0.666-.222c-3.062-1.019-4.988.573-5.579,1.557l-0.138.23-0.594-.288c-0.055-.025-5.481-2.585-9.323,1.257l-0.561.562,0.71,0.354a11.084,11.084,0,0,0,4.389,1,6.076,6.076,0,0,0,4.984-2.3l0.244-.308,0.493,0.285a4.331,4.331,0,0,0,2.182.64,4.258,4.258,0,0,0,3.507-2.157Zm-14.826,2.764a7.17,7.17,0,0,1,6.616-.745C83.756,125.307,80.723,124.574,79.284,124.056Zm9.991-1.331a3.392,3.392,0,0,1,3.007-.773A2.712,2.712,0,0,1,89.275,122.725Zm11.89-9.926,0.211-.632-0.656-.113c-5.139-.885-6.826,3.088-6.843,3.128l-0.254.622,0.654,0.152a8.086,8.086,0,0,0,1.834.225A5.322,5.322,0,0,0,101.165,112.8Zm-5.856,2.182a4.777,4.777,0,0,1,4.445-1.893A4.249,4.249,0,0,1,95.309,114.981Zm7.05,4.031-0.172.637,0.657,0.08a6.255,6.255,0,0,0,.747.045,5.4,5.4,0,0,0,5.1-3.888l0.175-.6-0.612-.123A5.05,5.05,0,0,0,102.359,119.012Zm1.362-.384a3.791,3.791,0,0,1,3.425-2.433c0.062,0,.125,0,0.189,0A4.118,4.118,0,0,1,103.721,118.628Zm5.807-7.722c0-.007,0-0.017,0-0.024l0.075-.681-0.682.046c-2.774.186-4.193,3.481-4.251,3.62l-0.1.247-0.382-.091a4.085,4.085,0,0,0-5.091,2.5l-0.174.521,0.513,0.2a4.705,4.705,0,0,0,1.672.336,3.31,3.31,0,0,0,1.5-.347,4.343,4.343,0,0,0,2-2.494l0-.015,0.644-.062a4.638,4.638,0,0,0,3.573-2,4.735,4.735,0,0,0-.11.963l0.025,0.6,0.594-.05c3.452-.287,4.95-3.643,5.259-5.377l0.148-.826-0.823.164A6.277,6.277,0,0,0,109.528,110.906Zm-7.435,5.3a2.433,2.433,0,0,1-1.647.148,2.809,2.809,0,0,1,2.8-1.331A2.811,2.811,0,0,1,102.093,116.207Zm4.234-2.953a4.617,4.617,0,0,1,1.8-1.641A3.214,3.214,0,0,1,106.327,113.254Zm3.6-.336a4.443,4.443,0,0,1,3.3-3.424A5.03,5.03,0,0,1,109.923,112.918Zm-1.563-4.974a5.885,5.885,0,0,0-.129.689l-0.081.766,0.757-.144a3.927,3.927,0,0,0,2.653-1.607,4.315,4.315,0,0,0,.582-2.993l-0.128-.635-0.615.2a4.521,4.521,0,0,0-2.694,2.678,6.459,6.459,0,0,0,.176-0.953l0.04-.61h-0.612c-4.006,0-5.758,4.164-6.125,6.366l-0.135.808,0.8-.152A7.037,7.037,0,0,0,108.36,107.944Zm2.687-2.276a3.18,3.18,0,0,1-.128.689,2.37,2.37,0,0,1-1.344,1.5A4.152,4.152,0,0,1,111.047,105.668Zm-3.417.869a5.942,5.942,0,0,1-4.1,4.48C103.955,109.605,105.083,106.945,107.63,106.537Zm4.85-1.461-0.022.7,0.689-.115c5.284-.881,5.868-7,5.873-7.058l0.071-.824L118.3,98A7.946,7.946,0,0,0,112.48,105.076Zm1.251-.73a6.657,6.657,0,0,1,4-4.941C117.408,100.824,116.454,103.49,113.731,104.346Zm0.871-7.013-0.081-.617-0.609.132c-4.131.9-4.534,5.7-4.538,5.751l-0.063.846,0.809-.259C115.1,101.587,114.607,97.376,114.6,97.333Zm-1.149.85a4.444,4.444,0,0,1-2.762,3.552A5.036,5.036,0,0,1,113.453,98.183Zm-0.376-1.509,0.627-.431a4.983,4.983,0,0,0,1.857-5.55l-0.243-.771-0.646.484a5.113,5.113,0,0,0-1.835,5.545Zm1.579-4.646a3.717,3.717,0,0,1-.917,2.624A3.833,3.833,0,0,1,114.656,92.028Zm3.483-5.874,0.505-.4c0.037-.029,3.62-2.98.794-7.928L119,77.062l-0.522.706c-0.123.166-2.985,4.116-.68,7.838ZM118.9,79.3a4.773,4.773,0,0,1-.469,5.026A6.114,6.114,0,0,1,118.9,79.3Zm2.972,4.707,0.513-.366c0.027-.02,2.664-1.966.67-5.955l-0.342-.684-0.56.52a4.767,4.767,0,0,0-.6,5.94Zm0.528-4.933a3.45,3.45,0,0,1-.2,3.09A3.522,3.522,0,0,1,122.4,79.077Zm4.247-5.98-0.389-.735-0.548.626a8.46,8.46,0,0,0-.721,9.491l0.353,0.623,0.53-.481C125.907,82.584,129.759,78.982,126.643,73.1Zm-1.036,8.078a7.085,7.085,0,0,1,.434-6.684A6.579,6.579,0,0,1,125.607,81.175Zm-1.754,1.7-0.579.275c-0.039.019-3.88,1.926-1.764,7.744l0.229,0.628,0.585-.321c0.037-.021,3.671-2.1,1.738-7.721Zm-1.516,6.86c-0.845-2.966.164-4.485,0.868-5.142C123.971,87.47,123.015,89.036,122.337,89.737Zm-2.4-3.317-0.619.348c-0.045.024-4.458,2.582-2.726,8.99l0.194,0.719,0.645-.372c0.046-.028,4.624-2.754,2.714-9.005Zm-2.434,8.2c-0.69-3.6.841-5.567,1.758-6.391A6.315,6.315,0,0,1,117.5,94.622Zm1.435-18.294,0.359-.755a5.633,5.633,0,0,0-1.283-6.564l-0.534-.471-0.345.622a5.714,5.714,0,0,0,1.229,6.559ZM117.849,70.5a4.326,4.326,0,0,1,.712,3.648A4.465,4.465,0,0,1,117.849,70.5Zm4.287,5.2,0.471-.45c0.192-.184,1.865-1.839,1.406-3.441-0.276-.962-1.228-1.618-2.83-1.949l-0.5-.1-0.16.483a5.692,5.692,0,0,0,1.226,4.936Zm-0.609-4.575a1.9,1.9,0,0,1,1.384,1,2.34,2.34,0,0,1-.635,1.772A4.858,4.858,0,0,1,121.527,71.126Zm4.751,0.922,0.367-.709c0.025-.048,2.434-4.812-0.9-8.5l-0.443-.491-0.422.511c-0.034.041-3.384,4.206,0.846,8.612Zm-0.912-7.85a6.45,6.45,0,0,1,.595,5.8A5.084,5.084,0,0,1,125.366,64.2ZM45.6,31.2a2.116,2.116,0,0,0-2.365-.312,11.887,11.887,0,0,1-1.9.865c-0.606.135-1.237,0.125-1.849,0.227A3.027,3.027,0,0,0,37.066,33.8a3.64,3.64,0,0,0-.234.819c-0.016,0-.03-0.009-0.046-0.011a2.181,2.181,0,0,0-2.07.895,3.35,3.35,0,0,0-.455,2.41,2.48,2.48,0,0,1-.215,1.5,4.943,4.943,0,0,0-.544,1.218,1.512,1.512,0,0,0,.646,1.629,0.969,0.969,0,0,0,.342.2,0.838,0.838,0,0,0,.369.034,2.774,2.774,0,0,0,1.428-.058,5.782,5.782,0,0,1,1.611-.432,15.909,15.909,0,0,1,1.677.375c2.2,0.283,2.69-2.031,2.611-3.715h0A3.205,3.205,0,0,0,45.015,37.3a4.568,4.568,0,0,0,.371-1.776,22.912,22.912,0,0,1,.648-2.241,2.42,2.42,0,0,0-.115-1.365A0.64,0.64,0,0,0,45.6,31.2Zm-3.244,1.419a8.312,8.312,0,0,1,1.743-.832,0.45,0.45,0,0,0,.088.107q-1,.718-1.965,1.482a3.609,3.609,0,0,0-.135-0.655Q42.227,32.676,42.361,32.619Zm-4.3,1.769a2.146,2.146,0,0,1,2.07-1.345c0.285-.031.569-0.055,0.849-0.09a2.277,2.277,0,0,1,.033,1.409q-1.483,1.247-2.871,2.6A4.524,4.524,0,0,1,38.062,34.388Zm-3.4,6.335a8.667,8.667,0,0,1,.555-1.08,2.811,2.811,0,0,0,.232-1.192c-0.011-.971-0.316-2.649.995-2.711l0.234,2.447a0.568,0.568,0,0,0,.063.21Q35.664,39.528,34.658,40.723Zm5.973,0.2c-0.58.628-1.362,0.183-2.051,0.034a3.261,3.261,0,0,0-1.6.046,9.05,9.05,0,0,1-1.438.441q1.161-1.38,2.413-2.672c1.028-.017,2.061-0.018,3.09-0.051A2.941,2.941,0,0,1,40.631,40.921Zm2.826-3.669a6.38,6.38,0,0,1-2.626.307l-1.7.038q1.221-1.181,2.52-2.278a0.579,0.579,0,0,0,.066-0.015,2.823,2.823,0,0,1,2.53.323A1.709,1.709,0,0,1,43.457,37.253Zm0.991-2.83a3.924,3.924,0,0,0-1.219-.386q0.849-.661,1.726-1.287A6.319,6.319,0,0,1,44.448,34.422ZM33.8,44.658a2.423,2.423,0,0,0-.516-1.269,0.64,0.64,0,0,0-.514-0.592,2.116,2.116,0,0,0-2.351.4,11.878,11.878,0,0,1-1.558,1.391c-0.538.309-1.144,0.486-1.7,0.766a3.026,3.026,0,0,0-1.772,2.46,3.638,3.638,0,0,0,.02.852c-0.016,0-.031,0-0.047,0a2.181,2.181,0,0,0-1.711,1.47,3.35,3.35,0,0,0,.283,2.436,2.48,2.48,0,0,1,.241,1.5,4.958,4.958,0,0,0-.158,1.325,1.513,1.513,0,0,0,1.1,1.363,0.97,0.97,0,0,0,.386.087,0.841,0.841,0,0,0,.363-0.077,2.776,2.776,0,0,0,1.346-.48,5.776,5.776,0,0,1,1.41-.892,15.889,15.889,0,0,1,1.712-.141c2.181-.383,1.964-2.738,1.389-4.323h0A3.2,3.2,0,0,0,34.023,48.8a4.567,4.567,0,0,0-.174-1.806A22.87,22.87,0,0,1,33.8,44.658Zm-1.189-.19a6.31,6.31,0,0,1,.013,1.749,3.921,3.921,0,0,0-1.278-.007Q31.961,45.327,32.613,44.468Zm-2.516.647A8.3,8.3,0,0,1,31.514,43.8a0.45,0.45,0,0,0,.116.077q-0.743.983-1.436,2a3.64,3.64,0,0,0-.323-0.586Q29.986,45.209,30.1,45.115Zm-2,1.068c0.263-.114.527-0.222,0.784-0.338a2.279,2.279,0,0,1,.45,1.335q-1.046,1.631-1.968,3.337a4.527,4.527,0,0,1-.843-2.435A2.147,2.147,0,0,1,28.095,46.184Zm-2.944,8.96a8.633,8.633,0,0,1,.209-1.2,2.818,2.818,0,0,0-.133-1.207c-0.3-.925-1.089-2.435.144-2.884l0.951,2.266a0.571,0.571,0,0,0,.123.182C25.986,53.236,25.552,54.182,25.151,55.143Zm5.762-1.586c-0.367.772-1.246,0.58-1.948,0.642a3.263,3.263,0,0,0-1.513.52,9.048,9.048,0,0,1-1.242.849q0.7-1.662,1.51-3.269c0.977-.322,1.962-0.63,2.935-0.967A2.942,2.942,0,0,1,30.913,53.557Zm1.608-4.343A6.378,6.378,0,0,1,30.1,50.288l-1.614.542q0.814-1.491,1.729-2.924a0.645,0.645,0,0,0,.059-0.034,2.823,2.823,0,0,1,2.511-.443A1.708,1.708,0,0,1,32.521,49.214Zm-5.66,12.2a22.949,22.949,0,0,1-.774-2.2,2.42,2.42,0,0,0-.887-1.044,0.64,0.64,0,0,0-.673-0.4A2.116,2.116,0,0,0,22.42,58.89,11.9,11.9,0,0,1,21.376,60.7c-0.415.462-.934,0.82-1.373,1.258a3.027,3.027,0,0,0-.914,2.891,3.639,3.639,0,0,0,.285.8c-0.014.006-.029,0.01-0.044,0.018A2.182,2.182,0,0,0,18.164,67.6a3.352,3.352,0,0,0,1.03,2.226,2.48,2.48,0,0,1,.7,1.347,4.944,4.944,0,0,0,.264,1.307,1.512,1.512,0,0,0,1.472.951,0.97,0.97,0,0,0,.394-0.038,0.837,0.837,0,0,0,.32-0.186,2.773,2.773,0,0,0,1.129-.877,5.779,5.779,0,0,1,1.061-1.288,15.89,15.89,0,0,1,1.583-.669c1.952-1.046,1.01-3.215-.032-4.54h0a3.2,3.2,0,0,0,1.507-2.754A4.56,4.56,0,0,0,26.861,61.418ZM24.9,59.408a6.31,6.31,0,0,1,.559,1.657,3.923,3.923,0,0,0-1.216.394Q24.548,60.428,24.9,59.408Zm-2.187,1.4a8.3,8.3,0,0,1,.935-1.689,0.445,0.445,0,0,0,.134.036q-0.4,1.166-.739,2.348a3.639,3.639,0,0,0-.49-0.455C22.607,60.972,22.66,60.892,22.711,60.81ZM21.148,71.881a8.692,8.692,0,0,1-.176-1.2,2.813,2.813,0,0,0-.5-1.105c-0.573-.785-1.8-1.973-0.765-2.784l1.612,1.855a0.571,0.571,0,0,0,.173.134C21.345,69.809,21.228,70.842,21.148,71.881ZM21.8,66.8a4.527,4.527,0,0,1-1.561-2.049,2.146,2.146,0,0,1,.9-2.3c0.214-.191.431-0.375,0.639-0.566a2.277,2.277,0,0,1,.845,1.128Q22.143,64.888,21.8,66.8Zm4.325,1.776c-0.107.849-1,.941-1.65,1.219a3.261,3.261,0,0,0-1.275.967,9.044,9.044,0,0,1-.914,1.195q0.144-1.8.412-3.577c0.827-.611,1.667-1.212,2.486-1.836A2.942,2.942,0,0,1,26.125,68.573Zm0.169-4.628a6.381,6.381,0,0,1-1.959,1.775l-1.363,1.02q0.307-1.671.728-3.318a0.675,0.675,0,0,0,.045-0.05,2.823,2.823,0,0,1,2.247-1.206A1.708,1.708,0,0,1,26.294,63.945Zm-0.92,17.34v0a3.2,3.2,0,0,0,.665-3.068,4.563,4.563,0,0,0-1.17-1.387A22.962,22.962,0,0,1,23.5,74.938a2.422,2.422,0,0,0-1.146-.75,0.64,0.64,0,0,0-.759-0.195,2.116,2.116,0,0,0-1.7,1.671,11.921,11.921,0,0,1-.489,2.031c-0.267.561-.664,1.051-0.96,1.6a3.026,3.026,0,0,0-.057,3.031,3.632,3.632,0,0,0,.5.69c-0.012.01-.025,0.018-0.037,0.029a2.182,2.182,0,0,0-.57,2.182A3.352,3.352,0,0,0,19.9,87.066a2.48,2.48,0,0,1,1.051,1.094,4.937,4.937,0,0,0,.624,1.179,1.512,1.512,0,0,0,1.681.495,0.97,0.97,0,0,0,.367-0.148,0.84,0.84,0,0,0,.254-0.27,2.774,2.774,0,0,0,.834-1.16,5.788,5.788,0,0,1,.652-1.536,15.9,15.9,0,0,1,1.328-1.09C28.268,84.074,26.749,82.261,25.374,81.285Zm-4.657-3.863a8.306,8.306,0,0,1,.418-1.885,0.444,0.444,0,0,0,.139,0c-0.035.821-.047,1.641-0.043,2.461a3.629,3.629,0,0,0-.6-0.3C20.664,77.607,20.692,77.516,20.717,77.422Zm-1.039,2.018c0.151-.244.307-0.482,0.452-0.724a2.278,2.278,0,0,1,1.13.842q0.068,1.937.28,3.864A4.526,4.526,0,0,1,19.462,81.9,2.146,2.146,0,0,1,19.679,79.439Zm2.168,7.94a2.816,2.816,0,0,0-.8-0.917c-0.772-.59-2.281-1.383-1.523-2.453L21.6,85.331a0.572,0.572,0,0,0,.2.08c0.154,1.028.335,2.052,0.552,3.071A8.665,8.665,0,0,1,21.846,87.379Zm0.572-11.921a6.323,6.323,0,0,1,1.006,1.431,3.922,3.922,0,0,0-1.055.722C22.37,76.894,22.385,76.176,22.418,75.458Zm0.23,7.577q-0.179-1.69-.242-3.388a0.568,0.568,0,0,0,.029-0.061,2.823,2.823,0,0,1,1.813-1.793,1.709,1.709,0,0,1,.794,1.621,6.38,6.38,0,0,1-1.376,2.258Zm2.306,2.5a3.262,3.262,0,0,0-.948,1.288,9.082,9.082,0,0,1-.538,1.4q-0.372-1.764-.618-3.547c0.621-.82,1.256-1.634,1.863-2.465A2.942,2.942,0,0,1,26.191,83.9C26.328,84.744,25.5,85.085,24.954,85.536ZM59.169,23.895A11.907,11.907,0,0,1,57.083,24c-0.613-.1-1.2-0.339-1.8-0.469a3.026,3.026,0,0,0-2.924.8,3.644,3.644,0,0,0-.519.676C51.825,25,51.813,24.993,51.8,24.985a2.181,2.181,0,0,0-2.254.071,3.35,3.35,0,0,0-1.309,2.074,2.478,2.478,0,0,1-.752,1.318,4.955,4.955,0,0,0-.954.932,1.512,1.512,0,0,0,0,1.753,0.968,0.968,0,0,0,.245.31,0.839,0.839,0,0,0,.331.168,2.774,2.774,0,0,0,1.349.471,5.787,5.787,0,0,1,1.657.191,15.906,15.906,0,0,1,1.422.965c1.938,1.071,3.248-.9,3.794-2.495h0a3.2,3.2,0,0,0,3.13-.232,4.564,4.564,0,0,0,1-1.515,22.892,22.892,0,0,1,1.427-1.846,2.418,2.418,0,0,0,.394-1.312,0.64,0.64,0,0,0-.028-0.783A2.116,2.116,0,0,0,59.169,23.895Zm-1.741,1.283c0.1,0,.191.006,0.288,0a8.315,8.315,0,0,1,1.927-.133,0.439,0.439,0,0,0,.042.132q-1.2.3-2.373,0.656A3.636,3.636,0,0,0,57.428,25.178Zm-4.361.068a2.147,2.147,0,0,1,2.419-.489c0.277,0.076.549,0.158,0.822,0.229a2.277,2.277,0,0,1-.487,1.322q-1.838.614-3.626,1.363A4.528,4.528,0,0,1,53.067,25.246Zm-4.581,3.839a2.812,2.812,0,0,0,.654-1.023c0.347-.907.68-2.579,1.922-2.155L50.38,28.268a0.567,0.567,0,0,0-.019.219c-0.942.438-1.873,0.9-2.789,1.4A8.673,8.673,0,0,1,48.486,29.085Zm4.568,3.181c-0.771.371-1.334-.33-1.92-0.722A3.261,3.261,0,0,0,49.63,31a9.062,9.062,0,0,1-1.5-.118q1.586-.856,3.227-1.6c0.962,0.363,1.923.741,2.892,1.088A2.941,2.941,0,0,1,53.054,32.266Zm3.977-2.373a6.382,6.382,0,0,1-2.555-.68l-1.6-.59q1.57-.65,3.181-1.192a0.6,0.6,0,0,0,.067.01,2.824,2.824,0,0,1,2.234,1.231A1.709,1.709,0,0,1,57.031,29.894Zm1.962-2.268A3.927,3.927,0,0,0,58,26.819q1.033-.3,2.079-0.563A6.315,6.315,0,0,1,58.994,27.626Zm18.107-5.2a11.9,11.9,0,0,1-1.99-.634c-0.54-.306-1-0.738-1.523-1.073a3.026,3.026,0,0,0-3.019-.275,3.631,3.631,0,0,0-.724.45c-0.01-.013-0.016-0.027-0.027-0.039a2.181,2.181,0,0,0-2.136-.726,3.351,3.351,0,0,0-1.955,1.482,2.478,2.478,0,0,1-1.167.97,4.951,4.951,0,0,0-1.221.538,1.513,1.513,0,0,0-.614,1.642,0.972,0.972,0,0,0,.121.376,0.841,0.841,0,0,0,.251.273,2.775,2.775,0,0,0,1.1.915,5.787,5.787,0,0,1,1.485.761,15.927,15.927,0,0,1,.992,1.4c1.439,1.684,3.356.3,4.429-1h0a3.2,3.2,0,0,0,3.012.883,4.559,4.559,0,0,0,1.467-1.068,22.978,22.978,0,0,1,1.984-1.227,2.422,2.422,0,0,0,.831-1.089,0.641,0.641,0,0,0,.249-0.743A2.116,2.116,0,0,0,77.1,22.428Zm-6.188-.88a2.147,2.147,0,0,1,2.437.392c0.232,0.169.459,0.341,0.689,0.5a2.276,2.276,0,0,1-.921,1.067q-1.936-.071-3.874,0A4.528,4.528,0,0,1,70.913,21.549Zm-6.775,2.413a8.634,8.634,0,0,1,1.137-.429,2.812,2.812,0,0,0,.972-0.728c0.644-.727,1.543-2.175,2.557-1.342l-1.468,1.971a0.573,0.573,0,0,0-.094.2C66.2,23.711,65.17,23.818,64.138,23.962Zm4.3,4.155c-0.852.076-1.133-.778-1.543-1.351a3.261,3.261,0,0,0-1.217-1.039,9.044,9.044,0,0,1-1.362-.638q1.786-.244,3.582-0.361c0.774,0.678,1.54,1.37,2.325,2.035A2.941,2.941,0,0,1,68.433,28.117Zm4.557-.824a6.381,6.381,0,0,1-2.153-1.534L69.55,24.645q1.7-.057,3.4,0a0.633,0.633,0,0,0,.059.033,2.824,2.824,0,0,1,1.658,1.937A1.709,1.709,0,0,1,72.991,27.293Zm2.634-1.433a3.929,3.929,0,0,0-.644-1.1c0.715,0.053,1.43.12,2.144,0.2A6.319,6.319,0,0,1,75.625,25.86Zm1.506-2.046c-0.816-.093-1.633-0.165-2.452-0.22a3.638,3.638,0,0,0,.34-0.576c0.087,0.038.177,0.073,0.269,0.1a8.311,8.311,0,0,1,1.85.553A0.445,0.445,0,0,0,77.131,23.813ZM93.9,26.682a11.909,11.909,0,0,1-1.687-1.231c-0.416-.461-0.716-1.016-1.105-1.5a3.026,3.026,0,0,0-2.778-1.216,3.627,3.627,0,0,0-.829.2c0-.015-0.007-0.03-0.013-0.045a2.181,2.181,0,0,0-1.8-1.364,3.351,3.351,0,0,0-2.323.788,2.479,2.479,0,0,1-1.414.551,4.942,4.942,0,0,0-1.328.124,1.512,1.512,0,0,0-1.1,1.363,0.968,0.968,0,0,0,0,.4,0.841,0.841,0,0,0,.151.338,2.772,2.772,0,0,0,.752,1.215,5.791,5.791,0,0,1,1.168,1.191,15.883,15.883,0,0,1,.5,1.645c0.832,2.052,3.09,1.346,4.519.45v0a3.2,3.2,0,0,0,2.578,1.791,4.565,4.565,0,0,0,1.73-.549,22.951,22.951,0,0,1,2.27-.536,2.42,2.42,0,0,0,1.133-.771,0.64,0.64,0,0,0,.471-0.626A2.116,2.116,0,0,0,93.9,26.682ZM82.331,23.989a2.814,2.814,0,0,0,1.152-.383c0.841-.486,2.152-1.576,2.85-0.465l-2.016,1.406a0.574,0.574,0,0,0-.152.158c-1.008-.253-2.023-0.478-3.048-0.669A8.658,8.658,0,0,1,82.331,23.989Zm1.547,5.348c-0.832-.2-0.829-1.1-1.037-1.77a3.263,3.263,0,0,0-.826-1.37,9.06,9.06,0,0,1-1.091-1.036q1.772,0.334,3.513.79c0.519,0.888,1.028,1.787,1.562,2.666A2.942,2.942,0,0,1,83.877,29.337ZM88.461,30A6.381,6.381,0,0,1,86.9,27.861L86.035,26.4q1.629,0.483,3.222,1.076a0.6,0.6,0,0,0,.045.05,2.824,2.824,0,0,1,.96,2.362A1.708,1.708,0,0,1,88.461,30Zm1.317-3.547q-1.815-.68-3.675-1.224a4.526,4.526,0,0,1,2.2-1.335,2.146,2.146,0,0,1,2.188,1.143c0.167,0.233.328,0.468,0.5,0.7A2.277,2.277,0,0,1,89.779,26.45Zm1.635,3.021a3.93,3.93,0,0,0-.262-1.251q0.993,0.415,1.969.871A6.314,6.314,0,0,1,91.413,29.471Zm2.076-1.465q-1.117-.52-2.256-0.984a3.615,3.615,0,0,0,.5-0.439c0.071,0.064.145,0.125,0.222,0.184a8.308,8.308,0,0,1,1.58,1.11A0.444,0.444,0,0,0,93.489,28.006Zm15.19,8.856a11.959,11.959,0,0,1-1.2-1.713c-0.243-.572-0.346-1.194-0.558-1.777a3.027,3.027,0,0,0-2.231-2.053,3.643,3.643,0,0,0-.849-0.082,0.368,0.368,0,0,0,0-.047,2.18,2.18,0,0,0-1.254-1.874,3.351,3.351,0,0,0-2.453-.01,2.48,2.48,0,0,1-1.517.061,4.948,4.948,0,0,0-1.3-.315,1.512,1.512,0,0,0-1.485.931,0.969,0.969,0,0,0-.133.372,0.839,0.839,0,0,0,.033.369,2.775,2.775,0,0,0,.316,1.394,5.788,5.788,0,0,1,.717,1.506,15.941,15.941,0,0,1-.065,1.717c0.12,2.211,2.484,2.277,4.126,1.895v0a3.2,3.2,0,0,0,1.856,2.532,4.561,4.561,0,0,0,1.814.043,22.94,22.94,0,0,1,2.321.231,2.421,2.421,0,0,0,1.322-.36,0.64,0.64,0,0,0,.649-0.439A2.114,2.114,0,0,0,108.679,36.862Zm-10.34-.748c-0.723-.457-0.427-1.306-0.4-2.011a3.263,3.263,0,0,0-.335-1.564A9.037,9.037,0,0,1,96.9,31.2q1.567,0.891,3.065,1.889c0.2,1.008.391,2.024,0.609,3.029A2.94,2.94,0,0,1,98.339,36.114Zm1.973-4.387a0.56,0.56,0,0,0-.195.1c-0.871-.567-1.758-1.11-2.665-1.623a8.662,8.662,0,0,1,1.163.35,2.813,2.813,0,0,0,1.215.012c0.953-.186,2.547-0.79,2.846.487Zm3.887,6.982a1.709,1.709,0,0,1-1.74-.48,6.4,6.4,0,0,1-.778-2.527l-0.345-1.667q1.383,0.987,2.7,2.066a0.414,0.414,0,0,0,.026.062A2.822,2.822,0,0,1,104.2,38.709Zm0.659-3.406q-1.494-1.233-3.077-2.353A4.527,4.527,0,0,1,104.3,32.4,2.146,2.146,0,0,1,106,34.2c0.082,0.275.158,0.549,0.242,0.819A2.278,2.278,0,0,1,104.858,35.3Zm0.564,3.388a3.939,3.939,0,0,0,.159-1.268q0.8,0.715,1.579,1.464A6.319,6.319,0,0,1,105.422,38.691Zm2.44-.71q-0.888-.855-1.814-1.664a3.635,3.635,0,0,0,.62-0.251q0.069,0.125.15,0.246a8.327,8.327,0,0,1,1.133,1.563A0.459,0.459,0,0,0,107.862,37.98Zm11.127,15.092a0.64,0.64,0,0,0,.729-0.288,2.118,2.118,0,0,0,.4-2.352,11.877,11.877,0,0,1-.8-1.932c-0.113-.61-0.079-1.24-0.158-1.856a3.029,3.029,0,0,0-1.732-2.489,3.652,3.652,0,0,0-.81-0.264,0.353,0.353,0,0,0,.012-0.046,2.18,2.18,0,0,0-.818-2.1,3.348,3.348,0,0,0-2.391-.543,2.482,2.482,0,0,1-1.494-.27,4.94,4.94,0,0,0-1.2-.589,1.512,1.512,0,0,0-1.652.586,0.982,0.982,0,0,0-.211.335,0.845,0.845,0,0,0-.047.368,2.769,2.769,0,0,0,.005,1.429,5.82,5.82,0,0,1,.372,1.626,15.809,15.809,0,0,1-.437,1.662c-0.363,2.185,1.93,2.763,3.616,2.746v0a3.206,3.206,0,0,0,1.261,2.875,4.567,4.567,0,0,0,1.762.437,22.935,22.935,0,0,1,2.215.73A2.422,2.422,0,0,0,118.989,53.073Zm-0.569-3.581a8.325,8.325,0,0,1,.767,1.772,0.442,0.442,0,0,0-.111.084q-0.679-1.027-1.408-2.019a3.608,3.608,0,0,0,.659-0.11C118.355,49.31,118.385,49.4,118.42,49.491Zm-1.609-4.362a2.146,2.146,0,0,1,1.267,2.118c0.02,0.286.034,0.57,0.058,0.852a2.279,2.279,0,0,1-1.409-.019q-1.191-1.529-2.493-2.965A4.528,4.528,0,0,1,116.811,45.13Zm-4.439,2.822a2.942,2.942,0,0,1-2.185-.5c-0.606-.6-0.133-1.368.042-2.051a3.257,3.257,0,0,0,.013-1.6,9.023,9.023,0,0,1-.388-1.454q1.335,1.211,2.581,2.511C112.414,45.89,112.377,46.922,112.372,47.951Zm0.695-4.349a0.576,0.576,0,0,0-.213.055q-1.091-1.114-2.248-2.164a8.566,8.566,0,0,1,1.059.595,2.818,2.818,0,0,0,1.183.276c0.971,0.025,2.659-.218,2.672,1.094Zm2.276,7.659a1.709,1.709,0,0,1-1.594-.847,6.386,6.386,0,0,1-.21-2.635q0.012-.851.025-1.7,1.136,1.264,2.183,2.6a0.557,0.557,0,0,0,.013.066A2.824,2.824,0,0,1,115.343,51.262Zm1.629-.955c0.419,0.582.828,1.172,1.222,1.772a6.307,6.307,0,0,1-1.653-.569A3.95,3.95,0,0,0,116.972,50.307Z"/>
  <path class="cls-3" d="M80.283,57.361h60.555l6.842-6.869H76.521s-7.36.818-6.869,10.14c0,0,.818,7.687,7.851,7.687h2.617s3.108-.164,3.6,2.453c0,0,.327,2.7-2.781,2.7H57.962a28.817,28.817,0,0,0-3.194-4.993c0.44-.348,4.849-3.954,4.416-9.323a9.212,9.212,0,0,0-2.78-6.051,8.786,8.786,0,0,0-12.1.163,8.349,8.349,0,0,0-2.126,4.089L46.1,59.323a4.186,4.186,0,0,1,4.253-1.963,3.269,3.269,0,0,1,1.635,1.145,3.354,3.354,0,0,1,.491,2.453c-0.263,1.77-2.093,3.31-4.58,3.925v4.089a3.2,3.2,0,0,1,2.126,1.472c0.491,1.145-1.308,3.03-1.308,3.03H23.2s-15.375-2.1-19.79,8.7C0.7,88.813,3.9,95.094,3.9,95.094l5.4-8.668H112l6.843-6.869H91.3a11.1,11.1,0,0,0,1.066-3.108h29.088l6.843-6.869H92.025a8.237,8.237,0,0,0-1.285-2.324h40.24l6.843-6.869H77.441a2.019,2.019,0,0,1-.265-1.063C77.175,57.688,78.32,57.524,80.283,57.361ZM60.493,88.225c-2.944-1.472-6.542-2.126-11.122.654a16.13,16.13,0,0,0-6.215,6.542c1.472-1.472,7.033-3.925,8.669-3.435s-0.818,4.743-.818,4.743c2.781-3.6,9-5.07,9.977-3.762s-1.472,4.416-1.472,4.416c4.58-2.944,9-6.215,8.832-6.379S63.437,89.7,63.437,89.7Z"/>
  <path class="cls-4" d="M79.908,57.933h60.769l7.983-8.014-72.6,0c-0.079.009-7.891,0.99-7.376,10.77,0.009,0.082.959,8.2,8.42,8.2h2.645c0.109,0,2.617-.1,3,1.953a2.263,2.263,0,0,1-.373,1.45,2.377,2.377,0,0,1-1.84.609H57.91a27.507,27.507,0,0,0-2.73-4.361c1.287-1.162,4.563-4.621,4.175-9.429A9.6,9.6,0,0,0,56.4,52.69a9.358,9.358,0,0,0-12.906.185,8.9,8.9,0,0,0-2.275,4.37,0.572,0.572,0,0,0,.3.628l3.925,1.962a0.571,0.571,0,0,0,.719-0.175A3.624,3.624,0,0,1,49.8,57.913a2.718,2.718,0,0,1,1.323.924,2.769,2.769,0,0,1,.391,2.038c-0.224,1.507-1.892,2.9-4.151,3.454a0.572,0.572,0,0,0-.435.556v4.089a0.574,0.574,0,0,0,.459.561A2.583,2.583,0,0,1,49.1,70.67c0.205,0.479-.438,1.656-1.012,2.233H22.858C22.7,72.891,7.008,70.9,2.483,81.957a17.247,17.247,0,0,0,.511,13.4l0.461,0.9L9.219,87h42.37a15.171,15.171,0,0,0-2.914,1.391,16.593,16.593,0,0,0-6.443,6.8,0.572,0.572,0,0,0,.93.633c1.4-1.4,6.73-3.719,8.1-3.29a0.144,0.144,0,0,1,.111.1c0.26,0.653-.6,2.658-1.261,3.807a0.573,0.573,0,0,0,.949.636,11.657,11.657,0,0,1,8.012-4.01h0.033a1.455,1.455,0,0,1,1.02.242c0.488,0.65-.585,2.6-1.463,3.717a0.572,0.572,0,0,0,.759.836c0.09-.058,8.993-5.82,9.1-6.784a0.606,0.606,0,0,0-.168-0.48c-0.129-.13-0.276-0.277-5.114-1.445L60.35,87.713A13.825,13.825,0,0,0,58.618,87h53.22l7.984-8.014H91.8a11.725,11.725,0,0,0,.629-1.963h28.86l7.983-8.014H92.034a6.973,6.973,0,0,0-.693-1.18h39.479l7.984-8.014H77.417a1.748,1.748,0,0,1-.068-0.491C77.349,58.326,77.733,58.116,79.908,57.933ZM3.888,92.861A11.9,11.9,0,0,1,8.141,80.72c0.091-.07.185-0.142,0.281-0.212a14.988,14.988,0,0,1,9.376-2.72c0.506,0,.9.026,1.154,0.052,0.766,1.9,2.2,2.1,3.8,2.738,0.827,0.331,1.015,1.869,1.023,2.821H10.21a0.571,0.571,0,0,0-.483.266Zm37.152-8.3A1.964,1.964,0,0,1,39.4,82.828a2.385,2.385,0,0,1,1.636-2.083v3.819Zm0-5.53c-0.5-.2-1.309-0.294-1.309-1.229a1.618,1.618,0,0,1,1.309-1.373v2.6Zm0-3.548c-1.053.271-2.453,0.77-2.453,2.319,0,1.231.8,1.647,1.591,2.087a3.32,3.32,0,0,0-1.918,2.935c0,1.8,1.61,2.647,2.78,2.928v0.1H9.693l0.831-1.309H24.332a0.572,0.572,0,0,0,.57-0.525c0.031-.378.248-3.716-1.812-4.539-1.578-.631-2.62-0.672-3.179-2.347a0.574,0.574,0,0,0-.446-0.384A15.24,15.24,0,0,0,7.746,79.585c-0.1.076-.206,0.153-0.305,0.23A12.921,12.921,0,0,0,2.519,88.59a14.469,14.469,0,0,1,1.024-6.2c3.343-8.172,13.43-8.4,17.516-8.4,1.049,0,1.7.057,1.745,0.06H41.04v1.439Zm1.145,10.367v-9.8a0.557,0.557,0,0,0,.013-0.179c0-.014-0.01-0.025-0.013-0.039V74.047h6.134A0.571,0.571,0,0,0,48.7,73.9c0.215-.2,2.083-2.2,1.45-3.68a3.389,3.389,0,0,0-2.08-1.679V65.322c2.518-.747,4.294-2.395,4.574-4.28a3.593,3.593,0,0,0-2.538-4.232A4.61,4.61,0,0,0,45.54,58.6l-3.1-1.551a7.678,7.678,0,0,1,1.877-3.382,8.213,8.213,0,0,1,11.3-.144,8.474,8.474,0,0,1,2.6,5.68c0.406,5.033-3.727,8.454-4.2,8.827a0.572,0.572,0,0,0-.066.837c0.038,0.042,3.8,4.172,4.268,8.345,0.4,3.612-1.9,7.533-2.538,8.639H42.184Zm17.654,2.884,2.944,1.472a0.6,0.6,0,0,0,.122.045c1.455,0.351,3.028.748,3.96,1-1.038.832-3.269,2.461-5.917,4.236a2.886,2.886,0,0,0,.1-2.869,2.316,2.316,0,0,0-1.928-.7H59.071A12.785,12.785,0,0,0,52.3,94.356a3.459,3.459,0,0,0,.137-2.141,1.274,1.274,0,0,0-.846-0.776c-1.339-.4-4.552.738-6.9,2a16.919,16.919,0,0,1,4.581-4.069C54.06,86.46,57.6,87.616,59.838,88.737Zm-2.847-2.884c0.922-1.707,2.754-5.245,2.363-8.766a10.354,10.354,0,0,0-.915-3.04h22.1a3.426,3.426,0,0,0,2.709-1.009,3.382,3.382,0,0,0,.634-2.372c-0.461-2.459-2.933-3-4.161-2.92H77.1c-6.425,0-7.25-6.884-7.279-7.146-0.455-8.647,6.084-9.508,6.3-9.537H145.9l-5.7,5.725H79.884l-0.047,0c-1.786.148-3.632,0.3-3.632,2.532a2.19,2.19,0,0,0,1.742,2.355l5.26,1.315c0.38,0.076,9.3,1.606,8.374,12.1-0.923,10.471-13.3,10.757-13.822,10.764H56.991Zm60.074-5.725-5.7,5.725H83.74a13.347,13.347,0,0,0,7.482-5.725h25.843Zm9.449-9.977-5.7,5.725H92.635c0.031-.226.066-0.45,0.086-0.685a15.089,15.089,0,0,0-.343-5.039h34.136Zm3.829-3.469H90.63a12.908,12.908,0,0,0-7.172-4.808l-3.678-.917h56.267Z"/>
</svg>
