<svg xmlns="http://www.w3.org/2000/svg" width="150" height="150" viewBox="0 0 150 150">
  <defs>
    <style>
      .cls-1 {
        fill: #efefef;
      }

      .cls-2 {
        fill-rule: evenodd;
      }
    </style>
  </defs>
  <circle id="Shape_28_copy" data-name="Shape 28 copy" class="cls-1" cx="75" cy="75" r="71.25"/>
  <path class="cls-2" d="M83.537,91.048l-11-2a2.961,2.961,0,0,0-2.323.554,2.974,2.974,0,0,0-1.125-.528l-4.428-1a3,3,0,0,0-3.376,1.651l-0.092.2a2.983,2.983,0,0,0-1.15-1.151c-0.019-.011-0.041-0.014-0.06-0.024C59.989,88.664,60,88.583,60,88.5V79a2.978,2.978,0,0,0-.053-0.455A3.006,3.006,0,0,0,60,78V66a2.937,2.937,0,0,0-.055-0.455A2.984,2.984,0,0,0,60,65V49a3,3,0,0,0-3-3,2.968,2.968,0,0,0-.471.037c-6.146.978-18.913,9.52-22.467,11.963H32a3,3,0,0,0-2.731,4.242l4.756,10.464a2.973,2.973,0,0,0,.033.883l2,10A2.991,2.991,0,0,0,37,85.227V93.5a3,3,0,0,0,1.026,2.248A2.993,2.993,0,0,0,37,98v12a3,3,0,0,0,2.949,3c0.205,0,.407,0,0.608,0a32.532,32.532,0,0,0,14.916-3.392,3.028,3.028,0,0,0,.606-0.457l0.466,0.465a3,3,0,0,0,3.174.688L60.544,110h7.884a2.974,2.974,0,0,0,1.786-.6A2.976,2.976,0,0,0,72,110H83a3,3,0,0,0,3-3V94A3,3,0,0,0,83.537,91.048ZM40,85.836l17-4.722V88.5c-7.143,3.143-17,5-17,5V85.836ZM57,76a3,3,0,0,0-.847.122l-17,5a2.994,2.994,0,0,0-.49.2l-1.27-6.349a2.993,2.993,0,0,0,.6-0.136L57,68.179V76ZM35,61S50.715,50,57,49V63a3,3,0,0,0-.991.169L36.146,70.121,32,61h3Zm19,46a29.563,29.563,0,0,1-13.442,3c-0.185,0-.37,0-0.558,0V98s12.028-3,18.6-6.6l0.2,3L54,102v5Zm14.428,0H60l-1.334.5-0.5-.5,0.666-5L64,91l4.428,1v15ZM83,107H72V92l11,2v13ZM75,17.5A57.5,57.5,0,1,0,132.5,75,57.565,57.565,0,0,0,75,17.5Zm0,112A54.5,54.5,0,1,1,129.5,75,54.561,54.561,0,0,1,75,129.5ZM75,1.775A73.225,73.225,0,1,0,148.225,75,73.308,73.308,0,0,0,75,1.775ZM75,144.5A69.5,69.5,0,1,1,144.5,75,69.579,69.579,0,0,1,75,144.5Zm41-60a5.506,5.506,0,0,0-5.5-5.5h0V44a1.508,1.508,0,0,0-.041-0.348c-1.089-4.574-7.158-10.481-7.416-10.73a1.5,1.5,0,0,0-2.086,0c-0.258.249-6.327,6.156-7.416,10.731A1.492,1.492,0,0,0,93.5,44V79a5.5,5.5,0,0,0-.127,10.994A8.788,8.788,0,0,0,91.382,91.4c-0.125.114-.255,0.232-0.411,0.364l-0.009.008c-0.016.014-.349,0.338-0.573,0.559l-0.17.168c-0.178.166-1.731,1.671-1.465,3.275a2.383,2.383,0,0,0,1.522,1.8,0.923,0.923,0,0,0,.125.046,4.79,4.79,0,0,0,.621.122,4.689,4.689,0,0,0-2.278,1.809c-0.012.017-.022,0.034-0.033,0.052a2.811,2.811,0,0,0-.111,2.5,2.375,2.375,0,0,0,1.851,1.344c0.62,0.1,1.391.188,2.174,0.264a0.97,0.97,0,0,0-.162.151,1,1,0,0,0-.148.811,7.484,7.484,0,0,0,6.57,5.323A0.877,0.877,0,0,0,99,110h8a0.982,0.982,0,0,0,.436-0.1A4.633,4.633,0,0,0,110,106a2.9,2.9,0,0,0-.7-2h0.431a1,1,0,0,0,.25-0.032c1.575-.406,4.193-1.715,4.021-4.041a4.828,4.828,0,0,0-2.778-3.843,0.974,0.974,0,0,0-.278-0.058,4.659,4.659,0,0,0,2.047-2.871c0.127-.81-0.087-2.019-1.827-3.174l-0.031-.02A5.505,5.505,0,0,0,116,84.5Zm-8.5-6h-4.545V44.682a7.78,7.78,0,0,1,2.307-4.624,14.147,14.147,0,0,1,2.238,4.13V78.5ZM102,36.143c0.755,0.8,1.675,1.851,2.554,2.977A11.427,11.427,0,0,0,102,44.682a11.418,11.418,0,0,0-2.554-5.562C100.325,37.993,101.245,36.945,102,36.143Zm-5.5,8.045a14.137,14.137,0,0,1,2.238-4.13,7.787,7.787,0,0,1,2.308,4.624V78.5H96.5V44.188ZM106.736,108H99.06a5.578,5.578,0,0,1-4.322-2.724C96.549,105.094,98.02,105,98,105h9a0.9,0.9,0,0,1,1,1A2.5,2.5,0,0,1,106.736,108ZM112,100.073c0.073,0.993-1.741,1.724-2.415,1.927h-12.9c-0.039,0-3.909-.208-5.917-0.531a0.382,0.382,0,0,1-.353-0.213,0.851,0.851,0,0,1,0-.607c0.54-.771.953-0.94,2.718-1.571l0.242-.087A22.124,22.124,0,0,1,97.787,98h12.789A2.718,2.718,0,0,1,112,100.073ZM108.778,95H97.286a0.993,0.993,0,0,0-.278.04c-1.148.332-4.429,1.089-5.97,0.682a0.57,0.57,0,0,1-.312-0.272,2.636,2.636,0,0,1,.864-1.493l0.2-.2,0.493-.483c0.167-.142.308-0.27,0.443-0.393a6.851,6.851,0,0,1,1.617-1.142,10.085,10.085,0,0,1,4.2-.855c0.311-.018.6-0.034,0.87-0.057a31,31,0,0,1,9.315.135,4.843,4.843,0,0,1,1.323.684,1.8,1.8,0,0,1,.957,1.2C110.864,93.792,109.459,94.664,108.778,95Zm1.722-8h-17a2.5,2.5,0,1,1,0-5h17A2.5,2.5,0,0,1,110.5,87ZM43,88a1,1,0,1,0,1,1A1,1,0,0,0,43,88Zm-2-9a1,1,0,1,0-1-1A1,1,0,0,0,41,79ZM39,68a1,1,0,1,0-1-1A1,1,0,0,0,39,68Zm23,36a1,1,0,1,0,1,1A1,1,0,0,0,62,104Zm-11,0a1,1,0,1,0,1,1A1,1,0,0,0,51,104Z"/>
</svg>
