<svg id="Layer_1" data-name="Layer 1" xmlns="http://www.w3.org/2000/svg" viewBox="0 0 150 150"><defs><style>.cls-1{fill:#fff;}</style></defs><path class="cls-1" d="M75,148.08c2.53,0,9.63-2.07,15.58-5.67,19.54-11.83,44.23-28.06,44.23-53.3V1.92H15.19V89.11c0,25.24,24.69,41.47,44.23,53.3C65.37,146,72.47,148.08,75,148.08Z"/><path d="M129.81,6.92V89.11c0,21.88-21.59,36.78-41.82,49-5.34,3.23-11.53,4.94-13,5s-7.65-1.72-13-5c-20.23-12.24-41.82-27.14-41.82-49V6.92H129.81m5-5H15.19V89.11c0,25.24,24.69,41.47,44.23,53.3,6,3.6,13,5.67,15.58,5.67s9.63-2.07,15.58-5.67c19.54-11.83,44.23-28.06,44.23-53.3V1.92Z"/><path d="M37,92.29l-3-3L32.63,88l-.37-.37v-.14a4.21,4.21,0,0,1,.22-1.06l.86.86.12.12,3.41,3.41A10.25,10.25,0,0,0,37,92.29Z"/><path d="M35.25,77.49l.17.17h-.63A4.06,4.06,0,0,0,35.25,77.49Z"/><path d="M120,83.82c-.11-.46-.45-1.88-.89-3.38-.21-.72-.44-1.45-.69-2.13a8.5,8.5,0,0,0-1.25-2.51,1.73,1.73,0,0,1-.15-.22l.08,0a5.52,5.52,0,0,1,1.38,0,1,1,0,0,0,.39,0,.51.51,0,0,0,.26-.3.48.48,0,0,0,0-.39,16,16,0,0,0-5.57-5.55l-.33-.19A7,7,0,0,1,110.63,67l1.92-.37a.5.5,0,0,0,.13-.94s-.3-.15-.8-.35a19.84,19.84,0,0,0-3.73-1.17,10,10,0,0,0-1.68-.19L104,64h-.51l-.74-.74.66-.55a.5.5,0,0,0,.16-.49.49.49,0,0,0-.36-.37,5.13,5.13,0,0,0-1.5-.1,10.31,10.31,0,0,0-1.33.17,13.43,13.43,0,0,0-2,.57c-.33.12-.67.26-1,.41l-.13.06-.63.3-.59.3-.34.16-.93.49c-.57.3-1.1.6-1.61.89l-.91.51-1.57.93-.1.06-.38-.37.07-.1c.38-.62.72-1.27.92-1.64l0-.1a1,1,0,0,0,.09-.21.52.52,0,0,0-.24-.56.5.5,0,0,0-.6.09l-.16.16c-.23.23-.67.66-1.24,1.25l-.69.72L87.23,67l-.8.87-.05.07-.06.07-1,1.2-.65.77c-.38.45-.76.92-1.16,1.43-.2.26-.4.51-.58.76-.37.5-.73,1-1,1.47-.21.29-.39.59-.57.88l0,.1-.07.11L80.35,76l-.18.28-.36.58c-.36.54-.69,1-1,1.47-.2.29-.39.56-.58.81-.41.57-.76,1-1,1.33l-.09-.08a5.08,5.08,0,0,1-.1-.64,5,5,0,0,1,.25-2.07c0-.11.07-.21.1-.32l0-.1c.07-.17.14-.36.21-.55.22-.59.43-1.23.64-1.87l.33-1.09c.23-.76.4-1.42.51-1.82l0-.12a1.21,1.21,0,0,0,.08-.4A.51.51,0,0,0,79,71a.49.49,0,0,0-.51,0l-.15.11-.08.06c-.28.24-.87.71-1.35,1.07l-.08,0-.48-.48a4.48,4.48,0,0,1,0-.57,6.73,6.73,0,0,1,.1-1.46,3,3,0,0,1,.13-.59s0,0,0,0a4.45,4.45,0,0,1,.39-.86,3.37,3.37,0,0,1,.19-.32,4.15,4.15,0,0,0,.62-1.57c0-.15,0-.33,0-.54a5.6,5.6,0,0,0-.06-1c0-.32-.1-.61-.15-.89a2.85,2.85,0,0,1,0-1.55,1.06,1.06,0,0,1,.16-.32,4.32,4.32,0,0,0,.3-.47c.17-.28.36-.63.57-1l.32-.58.5-.89c.29-.49.61-1,1-1.49.19-.27.38-.53.58-.77A7.36,7.36,0,0,1,82,55.67a3.23,3.23,0,0,1,.76-.5,2.41,2.41,0,0,1,.71-.25c.38-.07.76-.12,1.12-.15a8.32,8.32,0,0,1,1.32,0,10.54,10.54,0,0,1,2.81.45c.44.13.86.28,1.25.43a8.68,8.68,0,0,1,1,.47,15.47,15.47,0,0,1,2.11,1.28.5.5,0,0,0,.47.07.51.51,0,0,0,.32-.35l.46-1.9a2.75,2.75,0,0,1,1.5.56c1.16.7,2.63,1.71,3.39,2.25l0,0,1.25.89a.51.51,0,0,0,.78-.53s-.16-.65-.31-1.34c0-.2-.08-.38-.11-.53l.09.06c.48.28,1.1.67,1.83,1.08s1.33.75,2.09,1.14l.94.47.06,0c2.08,1,3.56,1.55,3.62,1.57a.5.5,0,0,0,.66-.59l-.13-.52a.06.06,0,0,1,0,0L109.62,58c.47.1,1.09.23,1.75.34.46.08.95.15,1.46.2l.23,0a4.58,4.58,0,0,0,2.3-.2.53.53,0,0,0,.24-.36.51.51,0,0,0-.13-.41,15.42,15.42,0,0,0-4.8-3.42c-.51-.21-1-.43-1.46-.66s-1-.52-1.42-.75l-.22-.22,2.2-.22a.51.51,0,0,0,.43-.39.5.5,0,0,0-.23-.54l-.91-.53,0,0h0a37.18,37.18,0,0,0-4.57-2.33l-.46-.21c-.56-.25-1-.49-1.37-.7l-.05-.06,2.31.16a.49.49,0,0,0,.48-.27.48.48,0,0,0-.06-.55,14.19,14.19,0,0,0-2.41-2.2l-.1-.07a13,13,0,0,0-3.33-1.78l-2-.71-1.65-.57-.13,0,3.28-1.61a.5.5,0,0,0,.26-.53.49.49,0,0,0-.42-.42l-.5-.06c-.34,0-.85-.07-1.47-.09a20.26,20.26,0,0,0-2.47,0c-.44,0-.88.06-1.34.12a19.78,19.78,0,0,0-2.14.41,11.12,11.12,0,0,0-1.08.33l0,0a10.53,10.53,0,0,0-1.77.78A6.59,6.59,0,0,0,87,41a8.13,8.13,0,0,0-1.42,1.21c-.22.24-.44.5-.69.83s-.27.39-.4.6-.39.66-.57,1l-.15.25-.37.64c-.27.45-.51.88-.74,1.3L82,48c-.32.6-.6,1.13-.85,1.62l-.5,1q-.5,1-.81,1.68c-.17.36-.3.65-.39.85l0,.12,0,.06-3.11,1.3a7,7,0,0,1,0-1.33,9.35,9.35,0,0,1,.15-1.2,16.53,16.53,0,0,1,.47-1.94c.1-.33.2-.67.34-1l.16-.45,0-.09.34-.9.5-1.42c.25-.7.45-1.33.62-1.88l.33-1.1a19.74,19.74,0,0,0,.49-2,.5.5,0,0,0-.27-.54.49.49,0,0,0-.59.12l-1.15,1.26L77,41.43v-.84c.17-.17.47-.49.82-.9l.21-.26.44-.55a11.66,11.66,0,0,0,1-1.59,4.52,4.52,0,0,0,.4-1.09,1,1,0,0,0,0-.17,21.52,21.52,0,0,0,.25-2.21c0-.45,0-.92,0-1.36,0-1,0-1.87,0-2.44v-.64a.5.5,0,0,0-.17-.38.46.46,0,0,0-.4-.11L79.2,29l-.15,0-.22.05-.3.06a2.66,2.66,0,0,0-.39.07l-.09-.85-.15-1.57L77.62,24l-.11-1.13a.48.48,0,0,0-.25-.39.52.52,0,0,0-.47,0l-.46.24-1.53.79-.13,0-1.14.28-1.16.29-1.77-.76-.38-.16a.51.51,0,0,0-.48,0,.53.53,0,0,0-.22.43v0l0,2.51,0,1.44,0,1.45-1-.6a.53.53,0,0,0-.44,0,.56.56,0,0,0-.3.32A8.09,8.09,0,0,0,67.62,30a10.78,10.78,0,0,0,.16,2.76,12.86,12.86,0,0,0,.39,1.51c.06.19.12.38.19.55a11.93,11.93,0,0,0,3,4.38l.23,2.68-1-.45a.49.49,0,0,0-.55.08.5.5,0,0,0-.13.54l.06.15c.08.21.23.6.41,1.1s.52,1.37.79,2.18a24.68,24.68,0,0,1,.91,3.2l0,.15a12.79,12.79,0,0,1,.14,1.5c0,.89,0,1.81,0,2.42l-.08,1.37a11.36,11.36,0,0,1-2.6-2.27,8,8,0,0,1-1-2c-.12-.28-.23-.57-.36-.86a8.7,8.7,0,0,0-3.41-4.27q-1.08-.69-2-1.17A14.16,14.16,0,0,0,59,42.27l-.94-.22c-.29-.06-.59-.12-.88-.15a14.87,14.87,0,0,0-2.65-.08c-.51,0-1,.07-1.33.11-.55,0-.9.12-.9.12a.5.5,0,0,0-.38.32.51.51,0,0,0,.08.49,17.49,17.49,0,0,0,2.47,2.45,5.93,5.93,0,0,1,.85.74l.07.08.13.14.11.14a.65.65,0,0,1-.35.2l-.06,0a4.9,4.9,0,0,1-1.09.08c-.54,0-1.18,0-1.88,0l-.63,0c-.47,0-1,0-1.43,0a16.93,16.93,0,0,0-2.48.07c-.46,0-.89.09-1.3.16a12.85,12.85,0,0,0-2.18.5l-1,.38a5.16,5.16,0,0,0-.55.26.49.49,0,0,0-.25.5.48.48,0,0,0,.37.42l1.45.38.39.1,1.23,1.24c-.39.09-1,.22-1.71.44l-.18.06-.21.07-.67.24a10,10,0,0,0-1.77.85,9.7,9.7,0,0,0-.91.64l-.19.19a.49.49,0,0,0-.11.54.5.5,0,0,0,.46.31h.85l.63.62-.25.39A6,6,0,0,1,41,56a4.83,4.83,0,0,1-.76.59,1.67,1.67,0,0,1-.28.18c-.37.22-.8.47-1.21.74s-.6.4-.87.6a5.44,5.44,0,0,0-.7.6,3.74,3.74,0,0,1-.61.46,4.13,4.13,0,0,1-.9.36,3.66,3.66,0,0,1-.89.14.49.49,0,0,0-.49.41.49.49,0,0,0,.31.55s.89.36,1.88.69a13,13,0,0,0,2,.54l.33,0a8.81,8.81,0,0,1,2.36.62l-1.83,1.83a.5.5,0,0,0-.1.57.51.51,0,0,0,.51.28s.27,0,.67-.1a11.43,11.43,0,0,0,1.21-.25,8.76,8.76,0,0,0,1.93-.69,3.61,3.61,0,0,0,.55-.32,3.59,3.59,0,0,1,.38-.25c.42-.28.9-.57,1.55-.92l.09,0,.5.5-.47,1.64a.52.52,0,0,0,.25.59.5.5,0,0,0,.62-.14l.13-.17c.12-.18.34-.49.62-.84s.39-.47.64-.73a8,8,0,0,1,1.24-1.11,4.6,4.6,0,0,1,.79-.49,3.42,3.42,0,0,1,.44-.16,7.49,7.49,0,0,0,1.37-.54,6.52,6.52,0,0,0,.93-.58l.17-.13L53.23,62a.5.5,0,0,0,.84.42l.67-.6c.34-.3.76-.68,1.23-1.08l.36-.29.41-.34c.47-.37,1-.75,1.4-1a5,5,0,0,1,.81-.46l.11,0a19,19,0,0,0,2-.19l1.26-.18,2.18-.31.81-.13c.13.1.35.26.63.45,1.2.8,2.21,1.41,3.12,1.9a10.91,10.91,0,0,1,2.63,2.21l.79,3.89-.27,7.19-1.62-.55a.49.49,0,0,0-.49.1.49.49,0,0,0-.16.48l.11.43v0c.1.43.25,1.09.39,1.79a17,17,0,0,1,.38,2.47v1.53l-2.5-3.65S67,74.22,66.07,72.6A9,9,0,0,1,65,70.45a7.39,7.39,0,0,0-.38-1.75c-.16-.55-.36-1.13-.52-1.62l-.4-1.15a.48.48,0,0,0-.55-.32.5.5,0,0,0-.42.49V70a8.73,8.73,0,0,0-3-2.57l-.36-.16-.06,0-1.61-.7L54.9,65.34c-.59-.25-1-.42-1.06-.45l-3.58-.82a.5.5,0,0,0-.46.84S52.05,67.17,53,68.1q.25.27.21.45s0,0,0,0a.81.81,0,0,1-.24.31H46.29a7.92,7.92,0,0,0-1.06.08,10,10,0,0,0-2.1.53c-.38.15-.73.29-1,.44-.66.31-1.07.56-1.07.56a.49.49,0,0,0-.09.78l1.83,1.84-.14,0-.86.28c-.57.19-1.21.42-1.82.68-.35.14-.69.3-1,.46a5.55,5.55,0,0,0-1.48,1l-.1.09a3.86,3.86,0,0,1-.75.56,7.6,7.6,0,0,1-1.55.8c-.23.1-.38.14-.39.15a.5.5,0,0,0,.13,1h1.92l-.33.67-.5.91A12,12,0,0,1,35,81.19a5.17,5.17,0,0,1-.54.64l-.07.08a7.9,7.9,0,0,0-1.1,1.55c-.18.31-.34.64-.5,1A15.74,15.74,0,0,0,32,86.25a4.65,4.65,0,0,0-.24,1.21v.88a.5.5,0,0,0,.31.46.47.47,0,0,0,.54-.11l.45-.44a5.3,5.3,0,0,0,.41,1.22,7,7,0,0,0,.75,1.26c1.23,1.66,2.4,3.22,2.59,3.45a.49.49,0,0,0,.6.12.51.51,0,0,0,.27-.57c0-.19-.15-.77-.22-1.51a8.81,8.81,0,0,1-.09-1.42,4.25,4.25,0,0,1,.35-1.87.69.69,0,0,1,.15-.21,3.54,3.54,0,0,1,.39-.38,13.68,13.68,0,0,1,1.37-1l.53-.33.32-.21c.46-.29.92-.55,1.31-.78l.23-.13.12-.06.65.64s0,.1,0,.16l0,.09c-.13.44-.3.94-.43,1.33s-.15.44-.18.54a.86.86,0,0,0,0,.21.5.5,0,0,0,.35.45.56.56,0,0,0,.57-.16,16.24,16.24,0,0,1,1.26-1.24l.68-.62a15.89,15.89,0,0,1,1.35-1c.27-.19.54-.37.82-.53a5,5,0,0,1,1.1-.49l.19,0,.39-.1c.38-.11.75-.19,1.1-.27.75-.17,1.42-.28,1.93-.37l.12,0H52l-.38,1.6a.49.49,0,0,0,.24.56.5.5,0,0,0,.6-.09,9,9,0,0,1,1-.83,7.59,7.59,0,0,1,.81-.54,5.08,5.08,0,0,1,1.6-.67,2.78,2.78,0,0,1,.57-.07c.23,0,.44,0,.65,0a3.7,3.7,0,0,1,1.94.5,3.47,3.47,0,0,1-.41.45l-.29.23a.5.5,0,0,0,.39.88,1.3,1.3,0,0,0,.23-.06l.24-.07a16.23,16.23,0,0,1,2-.39c.4,0,.83-.09,1.26-.11a10.53,10.53,0,0,1,1.46.05l.17,0c.3,0,.61.06.94.11l.41.07c.41.05.83.12,1.26.19,1.08.18,2.17.39,3,.55l1.45.29,1.06.59V88c-.08.06-.19.12-.32.2a12.57,12.57,0,0,1-1.55.82,7.68,7.68,0,0,1-1,.36,5.07,5.07,0,0,1-.92.15,9.51,9.51,0,0,1-1.27-.06c-.53-.06-1.07-.14-1.61-.22-.79-.14-1.57-.29-2.21-.42l-.92-.17c-.42-.08-.89-.13-1.33-.19l-.27,0c-.79-.08-1.43-.12-1.43-.12a.52.52,0,0,0-.45.23A.51.51,0,0,0,59,89l.52.91-3.87-.61a.48.48,0,0,0-.45.16.51.51,0,0,0-.11.46,2.38,2.38,0,0,0,.11.31l0,.06A4.21,4.21,0,0,0,57,92.18l.25-.43-.14.49c1.16.69,3.16,2.08,3.87,2.59l-.31,1.5a.5.5,0,0,0,.22.52.53.53,0,0,0,.27.08.52.52,0,0,0,.29-.09l.47-.32c.34-.23.87-.57,1.49-1l.89-.5c.51-.28,1-.57,1.6-.84l1-.43a13.77,13.77,0,0,1,1.78-.62,6.56,6.56,0,0,1,1.1-.21,10.82,10.82,0,0,1,2.41,0,15.59,15.59,0,0,1,1.72.36l.71.21a3.36,3.36,0,0,0,1.57.25l.44-.09.27-.06.82-.15L79,93.32l1.24-.2.23,0a11.57,11.57,0,0,1,1.39.48c.86.32,2.12.81,3.1,1.24a7.76,7.76,0,0,0,1,.37,3.37,3.37,0,0,0,1.58.26.5.5,0,0,0,.34-.23l.51-.85.78.05c.43,0,1,.07,1.54.14a18,18,0,0,1,2.89.48,4.45,4.45,0,0,1,.73.26,12.27,12.27,0,0,1,2.07,1.21l.19.15a.5.5,0,0,0,.63,0,.49.49,0,0,0,.1-.62l-.24-.4a42.55,42.55,0,0,1-2.21-3.87,1.57,1.57,0,0,1,.69-.37,3.64,3.64,0,0,1,.82-.21.66.66,0,0,0,.63-.25,1.24,1.24,0,0,0,.13-1.25c-.22-.49-.83-1.1-2.56-1.2-.38,0-.77,0-1.17,0l-1.26,0H92c-.8.06-1.59.14-2.27.22-.49.06-.92.13-1.24.18l-.57.09c-1-.84-1.43-.58-1.55-.5a1.47,1.47,0,0,0-.37.34l-.25.25a1.37,1.37,0,0,1-.65.42l-.19,0a7.06,7.06,0,0,1-2.52-1.23.49.49,0,0,0-.51,0l-.45.22c-.25.12-.58.28-.91.42a8.83,8.83,0,0,0-.82.36,8.49,8.49,0,0,1-1.48-1.08,7.74,7.74,0,0,1,.66-.56c.23-.17.5-.36.82-.57a10.41,10.41,0,0,1,1.55-.84,8,8,0,0,1,.94-.39A11.45,11.45,0,0,1,84,85.27a10.32,10.32,0,0,1,1.19-.17c.25,0,.5,0,.77-.06,1,0,2,0,3,0s1.86.1,2.63.17l1.56.17c1.24.14,2.24.3,2.87.41L97,86a.52.52,0,0,0,.55-.27.5.5,0,0,0-.12-.6L93.6,81.81l.19-.12A6.59,6.59,0,0,1,95.36,81a8.39,8.39,0,0,1,1.07-.27,7.87,7.87,0,0,1,2.27-.06,7.5,7.5,0,0,1,.93.15c.26.06.51.11.77.19a18.33,18.33,0,0,1,6.51,3.34.5.5,0,0,0,.79-.53c0-.08-.17-.51-.4-1.06a9.19,9.19,0,0,0-1.71-3l-.41-.37h.08a8.64,8.64,0,0,1,1.4.06A7.05,7.05,0,0,1,110,80.49l.38.27a12.71,12.71,0,0,1,3,3,.5.5,0,0,0,.63.17.5.5,0,0,0,.27-.6l-1.06-3.5.18.12a27.69,27.69,0,0,1,3.65,2.61,16.48,16.48,0,0,1,2.11,2,.5.5,0,0,0,.91-.28A2.13,2.13,0,0,0,120,83.82Zm-2.28-2c-.52-.45-1.08-.87-1.63-1.27L100.54,65H103l14.86,14.86c.1.3.19.6.28.9.2.69.38,1.36.53,1.93ZM117,73.63l-2.47-2.46A15.51,15.51,0,0,1,117,73.63Zm-7.1-7.49-.11,0a.76.76,0,0,0-.18.09l-.91-.91a20.53,20.53,0,0,1,2,.64ZM106.46,65a5.48,5.48,0,0,1,.55,0l9.63,9.63a.92.92,0,0,0-.6.55,1.34,1.34,0,0,0,.39,1.22,5.15,5.15,0,0,1,.64,1.14L104.47,65ZM102,64h-.16l.09-.07Zm-1.49-1.09.35,0,.36.35-1.06.9a.51.51,0,0,0-.16.37l-1.11-1.11A12.26,12.26,0,0,1,100.54,62.87ZM97,64.13c.21-.11.41-.2.6-.28l.13-.06.19-.08,14.56,14.57a.53.53,0,0,0-.39.09.51.51,0,0,0-.16.53l.57,1.88L96.22,64.51ZM77.31,74.59c-.18.53-.36,1.07-.55,1.6l-3.54-3.55.08-2.38,2.07,2.07A1.64,1.64,0,0,0,76,73.47a.74.74,0,0,0,.56.07l.8.8Zm-1.7-5.92c0,.08-.06.15-.08.23a.14.14,0,0,0,0,.06,5.14,5.14,0,0,0-.15.69,7.66,7.66,0,0,0-.1,1.15l-1.91-1.91.09-2.39Zm2.1,4.58L77.5,73l.34-.26C77.8,72.92,77.75,73.09,77.71,73.25Zm32.58-18.19A13.63,13.63,0,0,1,114,57.55c-.25,0-.55,0-.94,0l-.19,0-.38,0L110,54.92Zm-2.15-3.61-1.48.14-1.9-1.9C106,50.26,107.29,51,108.14,51.45Zm-5.9-6.05a.1.1,0,0,0,.05,0,16.94,16.94,0,0,1,1.36,1.13l-2.16-.14-2.88-2.88.52.18A12.24,12.24,0,0,1,102.24,45.4Zm-5.47-5.65h.08l-1.36.68-.66-.66A17.91,17.91,0,0,1,96.77,39.75Zm-3.65.15.39,0,1,1-.41.2a.51.51,0,0,0-.28.49.5.5,0,0,0,.34.43l1.26.43,1,.34,4,4a.49.49,0,0,0,.09.42A6.47,6.47,0,0,0,102,48.34l3.55,3.54c0,.06-.09.1-.1.17a.47.47,0,0,0,.2.53s.63.43,1.54,1l3.67,3.67c-1-.19-1.76-.39-1.77-.39a.47.47,0,0,0-.61.49L91.4,40.24A15.85,15.85,0,0,1,93.12,39.9ZM90,40.63l.06,0,.23-.07,18.59,18.59.11.43c-.64-.26-1.58-.67-2.68-1.2l-.06,0-.88-.45-.43-.22-16.4-16.4A9.09,9.09,0,0,1,90,40.63Zm-2.4,1.21.06,0,14,14-.13-.08c-.89-.54-1-.62-1.23-.62a.53.53,0,0,0-.4.19c-.12.15-.19.26,0,1.22L86.32,42.93h0A6.5,6.5,0,0,1,87.6,41.84Zm-2.23,2.34c.1-.17.21-.32.31-.47l12,12c-.43-.29-.87-.57-1.28-.81a3.15,3.15,0,0,0-2.31-.65,1.33,1.33,0,0,0-.24.1l-9.08-9.09.06-.11ZM83.55,47.3c.21-.36.43-.75.67-1.15l9.1,9.1-.22.89a16.17,16.17,0,0,0-1.64-1c-.32-.17-.69-.34-1.1-.51l-.13,0-6.91-6.91Zm-1.5,2.81c.23-.46.49-.94.77-1.47L88.2,54A11,11,0,0,0,86,53.73h-.52L82,50.26Zm-.56,1.08,2.63,2.64c-.27,0-.53.06-.8.11a3.2,3.2,0,0,0-1,.34l-.15.08-1.49-1.49c0-.06,0-.1.07-.17Zm-1.53,3a.51.51,0,0,0,.27-.29v0l1.1,1.09a9.29,9.29,0,0,0-1.23,1.26l-1.48-1.48Zm-2.32,1L79.5,57a.18.18,0,0,1,0,.07c-.33.48-.63,1-.92,1.44l-2.71-2.71a.48.48,0,0,0,.29,0ZM75.5,51.58l-2.24-2.24c0-.21-.05-.41-.08-.58a1.07,1.07,0,0,0,0-.25,19.34,19.34,0,0,0-.64-2.4L76,49.6l-.09.25A16.1,16.1,0,0,0,75.5,51.58Zm-2.18,1.23c0-.76,0-1.41,0-2l2,1.95c0,.14,0,.29,0,.42a6,6,0,0,0,.15,2.16l-2.12-2.11ZM76.17,40a.51.51,0,0,0-.16.37h0l-7.05-7c-.07-.26-.14-.52-.2-.78a9.43,9.43,0,0,1-.14-2L77.1,39l0,0C76.58,39.64,76.17,40,76.17,40ZM70.59,29.25v-.63L71,29A4.28,4.28,0,0,1,70.59,29.25Zm7.13,9-7.84-7.84.15.08a.51.51,0,0,0,.52,0l.32-.21c.24-.15.54-.36.72-.5l.24.1,6.82,6.82-.07.16A10.18,10.18,0,0,1,77.72,38.23Zm-1.09-7.46,2.56,2.56c0,.15,0,.3,0,.44,0,.63-.11,1.33-.19,1.83l-4.7-4.7,1,.23a.53.53,0,0,0,.25,0s.44-.11.91-.28Zm2.08-.7L79,30l.16,0h.11V30c0,.47,0,1.16,0,1.94l-1.62-1.62.17-.06a3.15,3.15,0,0,1,.51-.13Zm-2.12-6.39.19,1.94-1.35-1.35Zm-4.14,1.41,1.9-.48,2.59,2.59.23,2.25L77,29.5h0l-.11,0,0,0L72.38,25.1Zm-1.92-.42L75.84,30c-.19.07-.38.12-.48.15l-1.78-.44A12.16,12.16,0,0,0,72.42,29l-1.85-1.85Zm-.62,11.06L76,41.85l0,2.24a.49.49,0,0,0,.33.46.48.48,0,0,0,.54-.14l.79-.86.27.27c0,.08,0,.16-.08.25-.14.47-.32,1-.52,1.61l-4.84-4.83-.17-1.94a.47.47,0,0,0-.19-.34A11.16,11.16,0,0,1,69.91,35.73ZM72,43.16a.5.5,0,0,0,.71-.5l0-.26L77,46.73l-.21.58-.34.9,0,.1c0,.08,0,.16-.08.24L71.79,44c-.14-.37-.26-.72-.38-1l0-.09Zm-8,2.23,2.75,2.75a11.79,11.79,0,0,1,.63,1.29c.13.28.24.56.35.83a8.57,8.57,0,0,0,1.13,2.22,13.26,13.26,0,0,0,3.56,2.94.51.51,0,0,0,.48,0,.53.53,0,0,0,.26-.4l0-.44L78,59.4a.83.83,0,0,1-.07.13l-.32.59-.49.88L59.56,43.42a12.22,12.22,0,0,1,2.86,1.06C62.91,44.74,63.44,45.05,64,45.39ZM57.07,42.9a4.54,4.54,0,0,1,.66.11L76.61,61.89a1.89,1.89,0,0,0-.09.21,3.79,3.79,0,0,0,0,2.06l0,.15L55.07,42.81A12.57,12.57,0,0,1,57.07,42.9ZM47,50.24s0,0-.05,0L46.7,50c.25.08.36.11.39.09A.37.37,0,0,1,47,50.24ZM38.64,60.85a6.24,6.24,0,0,1-.72-.15L37.18,60a4.08,4.08,0,0,0,.71-.56,6.61,6.61,0,0,1,.6-.5l.06,0,2.5,2.5a8.13,8.13,0,0,0-2.19-.49Zm2.8,3-.23.06,1.19-1.2.6.6A8.28,8.28,0,0,1,41.44,63.85ZM44,62.71l-.12.08-4.51-4.51c.37-.23.74-.46,1.08-.65a2.11,2.11,0,0,0,.35-.23l.1-.07,4.52,4.52C44.87,62.17,44.39,62.45,44,62.71Zm3.83-.08.36-1.23a.5.5,0,0,0-.68-.6l-1,.49-.15.08L41.7,56.7a6.27,6.27,0,0,0,1-1.18l.13-.2,6.26,6.25A8.56,8.56,0,0,0,47.85,62.63Zm2.82-1.91a4.71,4.71,0,0,0-.59.22l-.16.08-6.57-6.57.45-.71a.49.49,0,0,0,0-.51.51.51,0,0,0-.44-.26H42.17a9.94,9.94,0,0,1,1.31-.6l.2-.07,8,8A5.92,5.92,0,0,1,50.67,60.72Zm2-1-.06,0L44.74,52c.78-.23,1.36-.35,1.68-.42l.31-.08,7.18,7.18a.56.56,0,0,0-.25.17A5.33,5.33,0,0,1,52.64,59.76Zm1.73,1.08.18-1.56.75.75Zm1.74-1.47,0,0L47.68,51s0,0,0,0a1.2,1.2,0,0,0,.36-1,.93.93,0,0,0-.51-.67,8.15,8.15,0,0,0-1.51-.55l-.5-.15-.37-.11-.31-.3a13.17,13.17,0,0,1,1.7-.37l.37,0L57.5,58.34C57.06,58.63,56.58,59,56.11,59.37Zm2.47-1.65-.19.1L48.24,47.67c.5,0,1-.06,1.52-.06h.91l9.85,9.85c-.9.11-1.29.14-1.46.14A1.42,1.42,0,0,0,58.58,57.72Zm3.48-.44-.28,0-9.65-9.64h.09c.63,0,1.21,0,1.7,0h.72L64,57Zm7.41,2a33.41,33.41,0,0,1-3-1.84c-.48-.32-.77-.53-.77-.53a.45.45,0,0,0-.37-.09l-.16,0-9.35-9.35a1.44,1.44,0,0,0,.78-.75,1.27,1.27,0,0,0,.07-.46.7.7,0,0,0-.06-.19,2.42,2.42,0,0,0-.3-.42.71.71,0,0,0-.11-.12c0-.06-.1-.11-.15-.17a6.11,6.11,0,0,0-1-.85,13.36,13.36,0,0,1-1.68-1.59l.33,0,23,23c0,.14,0,.27,0,.38a3,3,0,0,1-.5,1.21,1.59,1.59,0,0,1-.13.22l-2.9-2.9L72.61,62a.46.46,0,0,0-.12-.23A12.27,12.27,0,0,0,69.47,59.26Zm3,15.35a.52.52,0,0,0,.45-.06.48.48,0,0,0,.21-.39V74l3.2,3.21a1.53,1.53,0,0,0-.07.24,5.8,5.8,0,0,0-.3,1.86L71.17,74.5c0-.12,0-.26-.08-.37ZM64,70.45a2.55,2.55,0,0,0,.39,1.11l-.66-.65V69.22A6.34,6.34,0,0,1,64,70.45ZM37.39,77.16H37l.13-.08.1-.07Zm-1,13.62A8.79,8.79,0,0,0,36.43,92L35,90.13a6.59,6.59,0,0,1-.65-1.08A4.17,4.17,0,0,1,34,87.38c0-.12,0-.19,0-.2a.5.5,0,0,0-.28-.5.5.5,0,0,0-.57.1l-.3.3a5.42,5.42,0,0,1,.14-.53A12.29,12.29,0,0,1,33.58,85l3.33,3.33s-.06.08-.08.12A5,5,0,0,0,36.37,90.78Zm1.23-3.19,0,0-3.53-3.53a.75.75,0,0,1,.07-.12,6.59,6.59,0,0,1,1-1.35L39,86.54A14.48,14.48,0,0,0,37.6,87.59Zm2.34-1.66-.09.06-4.13-4.14,0-.06a14.28,14.28,0,0,0,.93-1.45l4.71,4.72-.1.07C40.89,85.36,40.42,85.63,39.94,85.93Zm4.33.52,0,0-.36-.36a1.6,1.6,0,0,0,0-.65,2.3,2.3,0,0,0-.63-1,.5.5,0,0,0-.59-.06l-.26.14,0,0-5.13-5.13a1.09,1.09,0,0,1,.08-.15c.4-.8.68-1.42.68-1.42a.5.5,0,0,0,0-.12l7.65,7.64A16.65,16.65,0,0,0,44.27,86.45Zm3.84-2.33-.19,0a5.79,5.79,0,0,0-1.32.58l-.12.08L38,76.39h0l.17-.17a5.19,5.19,0,0,1,1.16-.74l.16-.07,8.68,8.68Zm1.54-.39-.3.08L40.53,75c.53-.22,1.07-.42,1.56-.59l.24-.07,9.08,9.08C50.92,83.48,50.32,83.58,49.65,83.73Zm4.11.42-.11.07-.48-.48a.49.49,0,0,0-.12-.36.46.46,0,0,0-.4-.16L43.41,74l.44-.13a.53.53,0,0,0,.35-.36.5.5,0,0,0-.13-.47l-2-2,.42-.21.16-.07L55.36,83.45A6.67,6.67,0,0,0,53.76,84.15ZM60,84.4c-.31-.61-1.4-1-2.85-1.12H56.6L43.71,70.38A8.65,8.65,0,0,1,45.36,70l.39,0L60.69,84.88l-.64.11A.87.87,0,0,0,60,84.4Zm4,.36a12.65,12.65,0,0,0-1.6-.05l-.44,0L47.12,69.9h2.47L64.51,84.82l-.32,0Zm2.16.3L51,69.9h2.11a.47.47,0,0,0,.26-.08h0L69.17,85.58c-.7-.13-1.51-.28-2.31-.41ZM61.9,95.34l.13-.63a.51.51,0,0,0-.2-.51c-.11-.08-2.75-2-4.21-2.82l-.12-.06a3.91,3.91,0,0,1-1-.85l2.41.39,3.92,3.92Zm1.92-1.15-.13.07-3.18-3.18a.49.49,0,0,0,.34-.2.51.51,0,0,0,0-.53l-.58-1,.45,0,.27,0,.36,0,3.94,3.94C64.8,93.67,64.29,93.93,63.82,94.19Zm2.66-1.31-.19.08-3.21-3.21.1,0c.65.13,1.44.29,2.25.42l.67.1,2,2A12.16,12.16,0,0,0,66.48,92.88ZM69.63,92l-.39.06-1.56-1.56.82,0a5.34,5.34,0,0,0,1.15-.19l.25-.09L71.67,92A11.58,11.58,0,0,0,69.63,92Zm6.28.89a4.22,4.22,0,0,1-1-.24l-.73-.21c-.28-.08-.54-.14-.81-.2l-2.39-2.4a13.29,13.29,0,0,0,1.5-.8l.11-.07,3.82,3.82Zm2.88-.53-1.25.21-4.32-4.32v-.93a.51.51,0,0,0-.26-.44l-1.37-.77-.15,0-.52-.11L54.06,69.06a1.45,1.45,0,0,0,.11-.25.11.11,0,0,1,0,0,1.46,1.46,0,0,0-.49-1.37c-.47-.46-1.28-1.27-2-2l1.53.34L79.67,92.19ZM96.17,90a.27.27,0,0,1,0,.14,4.62,4.62,0,0,0-1,.24l-.23.09-1.06-1.06h.59C95.81,89.52,96.11,89.91,96.17,90ZM92,89.47h.46l1.6,1.6,0,0a1,1,0,0,0-.16.92,18.85,18.85,0,0,0,1.44,2.66l-.14-.07-5-5Zm-5.32,0a.18.18,0,0,0,.05-.07,3.71,3.71,0,0,1,.65.47.48.48,0,0,0,.41.11l.8-.12.35,0L93,93.87c-.78-.16-1.62-.26-2.25-.33l-.62-.06-3.73-3.73A3.69,3.69,0,0,0,86.71,89.47Zm-1.83,1a1.44,1.44,0,0,0,.45-.06,2.77,2.77,0,0,0,.26-.1l3,3-.54,0a.48.48,0,0,0-.44.24l-.47.79-5.11-5.11A6.72,6.72,0,0,0,84.88,90.49Zm-4-.71.18-.08,4.16,4.15c-1-.43-2.22-.91-3.07-1.23l-1-.37-2.46-2.46c.61.42.81.42.91.42A3.28,3.28,0,0,0,80.89,89.78Zm-3.82-1.94a.43.43,0,0,0-.1.23L55.68,66.78l1.59.7,1.65.73.06,0h0l.33.15c1.81.8,3.44,3.45,3.45,3.48a.51.51,0,0,0,.57.22s.05,0,.07,0l3,3c.58.91,1,1.61,1.06,1.62l3.42,5a.5.5,0,0,0,.91-.28v-.93l6.41,6.4A9.24,9.24,0,0,0,77.07,87.84Zm2.06-1.66-.1.06L71.79,79v-.79a12.93,12.93,0,0,0-.26-1.94l4.68,4.67a5,5,0,0,0,.29.85.49.49,0,0,0,.37.27.45.45,0,0,0,.36-.09l3.39,3.38A9.35,9.35,0,0,0,79.13,86.18Zm2.69-1.34-.22.08-3.69-3.7,0,0c.27-.34.64-.79,1-1.36l4.53,4.53A13.74,13.74,0,0,0,81.82,84.84ZM86,84c-.29,0-.57,0-.83.06s-.26,0-.4.06L79.58,79l0-.07c.29-.42.61-.88,1-1.4L87.06,84Zm2.53,0-7.36-7.36.07-.1c.26-.42.53-.88.81-1.36l.06-.09,9,9c-.65-.06-1.34-.11-2.09-.13Zm4.8.35-.63-.07-10-10,.06-.09c.29-.44.62-.9,1-1.36l8.74,8.74a.55.55,0,0,0-.07.25.53.53,0,0,0,.18.37l2.9,2.5C94.81,84.58,94.1,84.48,93.29,84.38Zm0-3.54-.1.07L84.25,72l0,0c.35-.45.71-.89,1.08-1.33l9.47,9.47A8.08,8.08,0,0,0,93.26,80.84Zm3-1.12a2,2,0,0,0-.33.08L86,69.86l0,0,1-1.19.09-.1L98.23,79.62A8.63,8.63,0,0,0,96.27,79.72Zm3.57.09h0l-12-12,.13-.15.72-.78a3.89,3.89,0,0,0-.18,1.24.5.5,0,0,0,.28.42.48.48,0,0,0,.49,0l1-.6.11-.07,13.29,13.3a18.16,18.16,0,0,0-3-1.11Q100.28,79.9,99.84,79.81Zm6,2.12L91.23,67.3l1.44-.85.12-.06,12,12a8.07,8.07,0,0,0-1,.09.49.49,0,0,0-.41.39.5.5,0,0,0,.23.52,12.11,12.11,0,0,1,1.3,1.1A5.47,5.47,0,0,1,105.85,81.93Zm.32-3.57L93.69,65.88c.47-.27,1-.54,1.47-.81l.13-.07,14,14a8.92,8.92,0,0,0-2.54-.62Z"/></svg>