<svg xmlns="http://www.w3.org/2000/svg" width="150" height="150" viewBox="0 0 150 150">
  <defs>
    <style>
      .cls-1 {
        fill: #151515;
        fill-rule: evenodd;
      }

      .cls-2 {
        fill: #eee;
      }
    </style>
  </defs>
  <g id="Layer_6" data-name="Layer 6">
    <path class="cls-1" d="M90.125,146.20283a11.72663,11.72663,0,0,1-3.80859-.59766c-6.46875-2.21973-7.02246-5.25781-7.06446-5.59668a.99729.99729,0,0,1,.22071-.75879.98279.98279,0,0,1-.14942-.168A7.39488,7.39488,0,0,1,78.25,136.194a3.46738,3.46738,0,0,1-1.52539,1.82812,3.45459,3.45459,0,1,1-3.4541,0,3.47325,3.47325,0,0,1-1.52539-1.82714,7.39451,7.39451,0,0,1-1.07324,2.88671.959.959,0,0,1-.14747.166.99756.99756,0,0,1,.22364.75977c-.042.33886-.59571,3.37695-7.06446,5.59667a11.72663,11.72663,0,0,1-3.80859.59766c-5.76074,0-12.5791-3.58887-15.52246-8.1709a11.97653,11.97653,0,0,1-1.38477-9.124,1.00074,1.00074,0,0,1,.81153-.74219.95989.95989,0,0,1,.1582-.01269.999.999,0,0,1,.84375.46386,25.03894,25.03894,0,0,0,9.5459,8.75977q.98584.47022,1.97461.85059-.90381-.46143-1.81446-.98633a31.475,31.475,0,0,1-7.57812-5.88184c-2.60254-2.91894-2.46875-4.71-1.89844-5.69922.39258-.67969,1.30176-1.48926,3.40821-1.48926,2.877,0,7.125,1.459,11.36328,3.90332.6748.38965,1.33105.793,1.96289,1.208q-.55371-.46141-1.16211-.92383A21.246,21.246,0,0,0,47.6748,123.9538q-.61669,0-1.23437.03614c-.01953.001-.03906.00195-.05859.00195a1.00635,1.00635,0,0,1-.37793-.07422,3.45327,3.45327,0,0,1-3.126,1.18555,3.42338,3.42338,0,0,1,.11328.87793,3.46007,3.46007,0,0,1-3.45605,3.4541h-.001a3.45548,3.45548,0,0,1-3.45117-3.38379q-.00294-.03661-.00293-.07324a3.44513,3.44513,0,0,1,.99609-2.42188,7.2766,7.2766,0,0,1-2.80957.48731,16.9009,16.9009,0,0,1-5.11133-.93262c-6.60547-2.14062-11.36621-11.415-10.90332-17.667a11.98259,11.98259,0,0,1,4.11133-7.92383A3.45468,3.45468,0,1,1,24.707,91.29462a3.45913,3.45913,0,0,1,.39356-.88378,1.01245,1.01245,0,0,1-.68653-.5752,1.00128,1.00128,0,0,1-.54785.43652,2.82,2.82,0,0,1-.8457.1084c-1.20215,0-3.73633-.53711-7.21289-4.13183C10.98633,81.26142,11.1377,70.83564,14.47754,65.53a12.008,12.008,0,0,1,5.32226-4.40821A3.45285,3.45285,0,1,1,25.04,56.62861a3.53627,3.53627,0,0,1,.46875-.47559,6.19814,6.19814,0,0,1-1.377-.80957.9693.9693,0,0,1-.17676-.19238.94414.94414,0,0,1-.20313.02148,1.05738,1.05738,0,0,1-.166-.01367c-.33692-.05761-3.34473-.74707-5.27344-7.30273-1.96094-6.66016,3.00977-15.82324,8.43262-18.96973a11.8875,11.8875,0,0,1,8.23535-1.22754,3.45407,3.45407,0,1,1,6.76562-1.27929,3.45435,3.45435,0,0,1,.80274-.26368,6.50544,6.50544,0,0,1-.89942-1.67285.86693.86693,0,0,1-.02539-.0957.99446.99446,0,0,1-.46777-.24219c-.251-.23144-2.39648-2.45312-.43262-8.99805C42.666,8.63349,51.20117,3.79755,57.53613,3.79755c.20508,0,.40821.00489.60742.01465a11.96962,11.96962,0,0,1,8.2295,4.18946,1.00028,1.00028,0,0,1-.76465,1.64453c-.01856,0-.15332-.00684-.20215-.00977a3.18392,3.18392,0,0,1,2.45313,1.67871c1.45214,3.15821-4.1875,7.752-10.50782,10.65723a38.84438,38.84438,0,0,1-3.96875,1.57422q1.43555-.26367,2.90625-.67676a21.13978,21.13978,0,0,0,11.96582-8.56055,1,1,0,0,1,1.74024-.043l-.002.001a.955.955,0,0,1,.09473.20508,10.91463,10.91463,0,0,1-1.417,7.97363c-1.47461,2.56055-4.60449,5.90039-11.13965,7.27246a25.654,25.654,0,0,1-5.22852.58985,14.59753,14.59753,0,0,1-5.63867-1.01075q.00586.10254.00586.208a3.46145,3.46145,0,0,1-2.78613,3.39063,12.08775,12.08775,0,0,1,2.02441,6.30664c.125,2.957-.7334,7.459-5.53613,12.11621-3.3418,3.24414-6.63769,5.09082-9.81738,5.5039a3.44911,3.44911,0,0,1-.19824,4.21387,12.18481,12.18481,0,0,1,4.82714,4.19629c1.665,2.44727,3.3086,6.72559,1.6836,13.21192-1.62891,6.51171-4.48926,9.51562-6.96387,10.88867A3.45493,3.45493,0,0,1,31.20117,93.612c4.81738.16113,10.96289,3.55468,12.95606,12.707,1.25293,5.75781.47949,9.50683-.8125,11.91015h.02636a3.45956,3.45956,0,0,1,3.415,2.93555,12.35649,12.35649,0,0,1,7.60938-2.52832c3.72851,0,7.39551,1.5459,10.89941,4.59668,4.68164,4.07324,6.22852,7.70215,6.51856,10.458a3.45475,3.45475,0,0,1,6.36816,0c.29-2.75488,1.83691-6.38477,6.51856-10.458,3.5039-3.05078,7.17089-4.59668,10.89941-4.59668a12.35873,12.35873,0,0,1,7.60937,2.52832,3.45871,3.45871,0,0,1,3.415-2.93555h.02637c-1.292-2.40332-2.06543-6.15234-.8125-11.91015,1.99316-9.15235,8.13965-12.5459,12.957-12.707a3.45322,3.45322,0,0,1,1.29688-4.27637c-2.47461-1.37207-5.33594-4.376-6.9668-10.89062-1.624-6.48731.02051-10.76563,1.68652-13.21192a12.18489,12.18489,0,0,1,4.82715-4.19629,3.45032,3.45032,0,0,1-.20019-4.21191c-3.17871-.415-6.47364-2.26172-9.81543-5.50586-4.80274-4.65723-5.66114-9.16016-5.53516-12.11719a12.07476,12.07476,0,0,1,2.02344-6.30469,3.46144,3.46144,0,0,1-2.78613-3.39062c0-.07031.002-.14063.00585-.21a14.57617,14.57617,0,0,1-5.63769,1.01172,25.66294,25.66294,0,0,1-5.22949-.58985c-6.5459-1.374-9.67578-4.72265-11.14942-7.29a10.87882,10.87882,0,0,1-1.40332-7.96484A.99844.99844,0,0,1,80.8584,13.78q.03955,0,.0791.00293a1.0021,1.0021,0,0,1,.79.5,21.12732,21.12732,0,0,0,11.9707,8.585q1.48536.41748,2.93457.68164a38.67549,38.67549,0,0,1-3.99121-1.58106c-6.31836-2.90527-11.957-7.498-10.50781-10.65625a3.17219,3.17219,0,0,1,2.42969-1.67383c-.04.002-.15821.00782-.17676.00782a.99964.99964,0,0,1-.76367-1.64453,11.951,11.951,0,0,1,8.20507-4.1875c.22266-.01172.42579-.01661.63086-.01661,6.33594,0,14.8711,4.83594,16.8125,11.30957,1.96387,6.54493-.18164,8.76661-.43261,8.99805a.99622.99622,0,0,1-.46778.24317.84726.84726,0,0,1-.02539.09472,6.505,6.505,0,0,1-.90039,1.67383,3.462,3.462,0,0,1,.80371.26367,3.45418,3.45418,0,1,1,6.7666,1.27832,11.87284,11.87284,0,0,1,8.21973,1.21485c5.44141,3.16015,10.41211,12.32421,8.45117,18.98339-1.92871,6.55567-4.93652,7.24512-5.27343,7.30274a1.06988,1.06988,0,0,1-.167.01367.99282.99282,0,0,1-.20214-.02051,1.04017,1.04017,0,0,1-.17969.19727,6.2298,6.2298,0,0,1-1.375.80664,3.4445,3.4445,0,0,1,.46582.47363,3.4526,3.4526,0,1,1,5.24121,4.49121,11.97167,11.97167,0,0,1,5.31348,4.39356c3.35253,5.32617,3.5039,15.75195-1.31739,20.73926-3.47656,3.59472-6.01074,4.13183-7.21289,4.13183a2.82,2.82,0,0,1-.8457-.1084,1.00221,1.00221,0,0,1-.55567-.44726,1.00649,1.00649,0,0,1-.68359.5791,3.466,3.466,0,0,1,.39356.88476,3.45413,3.45413,0,1,1,2.34375,6.22559,11.97075,11.97075,0,0,1,4.11523,7.90332c.46484,6.27246-4.2959,15.54688-10.90137,17.68848a16.9008,16.9008,0,0,1-5.11132.93261h-.001a7.26961,7.26961,0,0,1-2.81641-.49023,3.44325,3.44325,0,0,1,.99805,2.42285c0,.02539-.001.04981-.00293.07422a3.45753,3.45753,0,0,1-3.45117,3.38379h-.001a3.45861,3.45861,0,0,1-3.45508-3.4541,3.50632,3.50632,0,0,1,.11133-.87793,3.44989,3.44989,0,0,1-3.125-1.18653.98757.98757,0,0,1-.37793.07422c-.01855,0-.03711-.001-.05566-.00195-.41309-.02246-.8252-.03516-1.23633-.03516A21.24338,21.24338,0,0,0,89.418,128.35224q-.61084.46436-1.166.92774c.63086-.41407,1.28614-.81836,1.96192-1.207,4.2373-2.44433,8.48535-3.90332,11.3623-3.90332,2.10645,0,3.01563.80957,3.40821,1.48926.57031.98926.7041,2.78028-1.89844,5.69922a31.475,31.475,0,0,1-7.57813,5.88184c-.6084.35058-1.21777.68164-1.82226.99023q1.0078-.38671,2.01855-.86914a25.00588,25.00588,0,0,0,9.46289-8.66309.99674.99674,0,0,1,.89063-.54589,1.0387,1.0387,0,0,1,.19726.01953,1.00277,1.00277,0,0,1,.72461.58886.98148.98148,0,0,1,.06641.21973,11.96414,11.96414,0,0,1-1.38574,9.03125C102.7041,142.614,95.88574,146.20283,90.125,146.20283Zm20.333-23.67676a3.43385,3.43385,0,0,1,1.29785.25293,1.00235,1.00235,0,0,1-.19336-.52246.98472.98472,0,0,1-.56641-.01563,5.4761,5.4761,0,0,1-.92089-.42675,3.3733,3.3733,0,0,1-.11036.74707A3.44855,3.44855,0,0,1,110.458,122.52607Zm-72.02149-.26758a1.00372,1.00372,0,0,1-.1914.51758,3.46683,3.46683,0,0,1,1.78515-.21484,3.37388,3.37388,0,0,1-.11035-.74707,5.56871,5.56871,0,0,1-.9209.42675,1.00838,1.00838,0,0,1-.31152.04981A.9826.9826,0,0,1,38.43652,122.25849Zm84.35157-26.32715a2.53641,2.53641,0,0,1,1.07129.2295c3.1582,1.45312,1.86914,8.61035-1.03711,14.93066a39.07573,39.07573,0,0,1-2.02247,3.832,25.67247,25.67247,0,0,0,2.60157-4.04785,24.99893,24.99893,0,0,0,2.36621-12.61328,1.0023,1.0023,0,0,1,.35351-.94824,3.47048,3.47048,0,0,1-2.1123-2.29395,3.45512,3.45512,0,0,1-2.57813.63086l-.0205.01367a21.13146,21.13146,0,0,0-8.7295,11.94141c-.07226.251-.1416.499-.20605.74414q.34277-.84668.72754-1.68262C115.65918,101.32392,119.57617,95.93134,122.78809,95.93134ZM23.874,97.31416a1.00009,1.00009,0,0,1,.36524.85253,25.028,25.028,0,0,0,2.376,12.73926,25.63217,25.63217,0,0,0,2.56739,4,39.34321,39.34321,0,0,1-2.01074-3.81445c-2.90626-6.32031-4.19532-13.47852-1.03809-14.93066a2.53641,2.53641,0,0,1,1.07129-.2295c3.21289,0,7.12988,5.39258,9.58594,10.73633q.38964.84667.73144,1.68945c-.06445-.24511-.13379-.49316-.20605-.74414A21.13744,21.13744,0,0,0,28.585,95.66474l-.01953-.01269a3.4395,3.4395,0,0,1-.53418.041h-.001a3.43946,3.43946,0,0,1-2.043-.67187A3.47037,3.47037,0,0,1,23.874,97.31416Zm98.32422-35.05957a21.13163,21.13163,0,0,0-2.37207,14.30957c.10645.58984.22559,1.15722.35352,1.70117-.06739-.93067-.10059-1.87793-.10059-2.82324,0-6.957,1.81934-13.999,5.2959-13.999h.042a3.44924,3.44924,0,0,1-.46191-.4707,3.44876,3.44876,0,0,1-2.68457,1.2832C122.24609,62.25556,122.22266,62.25556,122.19824,62.25459Zm-97.58008-.81153c3.47657,0,5.2959,7.042,5.2959,13.999,0,.94433-.0332,1.88964-.09961,2.81933q.19044-.81151.34961-1.69043a21.14518,21.14518,0,0,0-2.36621-14.3164c-.02441.001-.04883.001-.07324.001A3.45243,3.45243,0,0,1,25.04,60.97334a3.43543,3.43543,0,0,1-.46094.46972ZM130.5625,72.50654c.07227.9668.1084,1.95215.1084,2.93555,0,.11914-.001.2373-.00195.35644q.03662-.75.03027-1.5459Q130.66259,73.37666,130.5625,72.50654ZM19.415,72.73408q-.082.772-.11524,1.55176-.00585.71045.02344,1.38378c-.001-.07617-.001-.15136-.001-.22753C19.32227,74.53584,19.35352,73.62763,19.415,72.73408Zm89.3584-40.40528a1.20583,1.20583,0,0,1,.01465.14551,21.12836,21.12836,0,0,0,5.53515,13.71875c.39551.43848.79.85254,1.17871,1.24219-.6289-.90625-1.22265-1.84473-1.76367-2.78223-3.33008-5.77539-5.25488-12.45215-2.76562-14.52636a3.41026,3.41026,0,0,1-.75782-.25489,3.46254,3.46254,0,0,1-1.4414,2.45508ZM39.01953,30.12666c2.48926,2.07519.56445,8.751-2.76465,14.52539-.53906.93554-1.13086,1.87109-1.75879,2.77441q.58155-.58153,1.1709-1.23437a21.12694,21.12694,0,0,0,5.541-13.72364.97906.97906,0,0,1,.01465-.14258,3.45327,3.45327,0,0,1-1.44239-2.4541A3.434,3.434,0,0,1,39.01953,30.12666Zm78.90625,2.50878a34.45721,34.45721,0,0,1,4.97949,6.72266,38.61644,38.61644,0,0,1,2.04785,4.084,25.74561,25.74561,0,0,0-1.92578-4.59864A24.93527,24.93527,0,0,0,117.92578,32.63544Zm-85.90625.04786a25.0227,25.0227,0,0,0-5.06348,6.18945,25.5343,25.5343,0,0,0-1.90625,4.5459,38.57079,38.57079,0,0,1,2.03809-4.06055A34.52314,34.52314,0,0,1,32.01953,32.6833Zm81.51367-3.02149a4.82562,4.82562,0,0,1,.47168.14649c-.041-.02344-.082-.04786-.124-.07129a1.01707,1.01707,0,0,1-.21875-.16211C113.62012,29.60517,113.57715,29.63349,113.5332,29.66181Zm-77.19922-.085a1.00537,1.00537,0,0,1-.19824.14942l-.13183.07617a4.70566,4.70566,0,0,1,.457-.1416C36.418,29.63349,36.376,29.60517,36.334,29.57685ZM59.24219,10.09638a25.06387,25.06387,0,0,0-6.373,2.20313q-.4248.23291-.82715.47363.44093-.21679.88672-.4209A36.15967,36.15967,0,0,1,59.24219,10.09638Zm31.57422.01172a36.28587,36.28587,0,0,1,6.25,2.24024q.41893.19189.833.39453-.39111-.23292-.80371-.46A24.953,24.953,0,0,0,90.81641,10.1081ZM74.99805,18.54267a3.45411,3.45411,0,0,1-1.72657-6.44629,3.45641,3.45641,0,1,1,3.4502-.001,3.454,3.454,0,0,1-1.72363,6.44726Z"/>
    <path class="cls-2" d="M92.459,4.79707c5.94489,0,14.07062,4.64972,15.8548,10.59723,1.84058,6.13549-.15368,7.97607-.15368,7.97607s-1.49787-6.967-10.5832-11.96362A25.98457,25.98457,0,0,0,85.84015,8.60517q-.72565,0-1.45361.04071A10.89058,10.89058,0,0,1,91.90247,4.8111q.27492-.0141.55651-.014m-34.92279,0q.28181,0,.55652.014a10.89046,10.89046,0,0,1,7.51593,3.83478q-.72693-.04074-1.45361-.04071a25.98283,25.98283,0,0,0-11.7367,2.80158c-9.08538,4.99658-10.58319,11.96362-10.58319,11.96362s-1.99426-1.84058-.15368-7.97607c1.78412-5.94751,9.90991-10.597,15.85473-10.59723M74.99762,6.64881A2.45436,2.45436,0,0,1,77.452,9.10316V9.106a2.45441,2.45441,0,0,1-2.45435,2.45153h-.00293a2.45438,2.45438,0,0,1,.00287-4.90875m11.30463,3.82361A27.13085,27.13085,0,0,1,96.648,13.25684c6.52307,2.99854,11.008,7.17511,10.01807,9.33454l-.002-.00385c-.39026.849-1.57183,1.25745-3.25927,1.25745a27.12766,27.12766,0,0,1-10.34534-2.78485c-6.52216-2.99854-11.0061-7.17609-10.01618-9.33069.3899-.84863,1.57154-1.257,3.25892-1.257m-22.61066.00378c1.68732,0,2.869.40839,3.25928,1.257.991,2.15467-3.494,6.33216-10.01709,9.33069a27.13089,27.13089,0,0,1-10.34565,2.78491c-1.687,0-2.86877-.40857-3.259-1.25744-.99-2.15943,3.494-6.33216,10.01709-9.33069A27.12867,27.12867,0,0,1,63.69159,10.4762m11.306,2.15723a2.45441,2.45441,0,1,1-2.45441,2.45441,2.45441,2.45441,0,0,1,2.45441-2.45441m5.86151,2.147.001.00574a22.13337,22.13337,0,0,0,12.5755,9.04621,29.8146,29.8146,0,0,0,8.05633,1.17639,16.85734,16.85734,0,0,0,5.90155-.86994s-1.6513,5.16968-9.70074,5.16968a24.51585,24.51585,0,0,1-5.02368-.5683C80.86389,26.26106,80.09161,17.08112,80.85913,14.78046m-11.72211,0,.00287.00477-.00085.00128-.002-.00605m.002.00605c.7633,2.31042-.01782,11.47668-11.81287,13.95373a24.51585,24.51585,0,0,1-5.02368.5683c-8.04944,0-9.70081-5.16968-9.70081-5.16968a16.85734,16.85734,0,0,0,5.90155.86994,29.8143,29.8143,0,0,0,8.05634-1.17639A22.1345,22.1345,0,0,0,69.139,14.78651m38.25445,9.35235h.005m4.28613.1518a2.45483,2.45483,0,1,1-.001,0h.001m-73.37311,0a2.45438,2.45438,0,1,1-2.4544,2.45434,2.45439,2.45439,0,0,1,2.4544-2.45434m4.90406,2.7608a2.45441,2.45441,0,1,1-2.45441,2.45441,2.4544,2.4544,0,0,1,2.45441-2.45441m63.56408.001a2.45439,2.45439,0,0,1,2.45441,2.45343v.001a2.45441,2.45441,0,1,1-2.45441-2.4544m10.71607,1.34411a10.89032,10.89032,0,0,1,5.25708,1.35273c5.17993,3.00811,9.78418,11.67913,7.9751,17.82513-1.80909,6.14606-4.48206,6.59949-4.48206,6.59949s2.548-6.65576-2.337-15.80127a25.98772,25.98772,0,0,0-9.54644-9.51306l-.00476-.001a10.88712,10.88712,0,0,1,3.13806-.462m-84.99085.00165a10.88718,10.88718,0,0,1,3.13269.46039,25.98592,25.98592,0,0,0-9.54644,9.51306c-4.88495,9.14551-2.338,15.80127-2.338,15.80127s-2.673-.45343-4.48205-6.59943c-1.809-6.146,2.79614-14.81707,7.97607-17.82226a10.89061,10.89061,0,0,1,5.25769-1.353m80.1352,2.14465c2.29144-.00018,6.2312,3.82282,9.39862,9.31519,3.58563,6.21759,4.83722,12.21948,2.78283,13.40515h-.00195a1.6067,1.6067,0,0,1-.81635.205c-2.29193,0-6.23089-3.82282-9.39831-9.31525-3.58569-6.21759-4.83435-12.21942-2.78088-13.40509a1.60635,1.60635,0,0,1,.816-.205m-75.28809,0a1.60678,1.60678,0,0,1,.81634.205c2.05439,1.18567.80573,7.1875-2.7799,13.40509-3.16748,5.49243-7.10645,9.31525-9.39838,9.31525a1.60684,1.60684,0,0,1-.81634-.205c-2.05347-1.18567-.80573-7.18756,2.7799-13.40515,3.16742-5.49237,7.10645-9.31519,9.39838-9.31519m70.43481,1.951.001.00574A22.13249,22.13249,0,0,0,113.5863,46.868c6.08014,6.74457,11.6352,7.71545,11.6352,7.71545a7.22391,7.22391,0,0,1-4.41028,1.33161c-2.567,0-6.15357-1.10211-10.49176-5.31342-8.66052-8.4-4.41046-16.57263-2.53266-18.10773m-65.57843,0c1.87781,1.5351,6.12885,9.70777-2.53265,18.10773-4.33539,4.20856-7.9201,5.31073-10.48651,5.31073a7.22471,7.22471,0,0,1-4.41455-1.33465s5.555-.97089,11.63519-7.71546A22.13323,22.13323,0,0,0,42.20837,32.4939M22.35553,56.34669h.001a2.45438,2.45438,0,1,1-2.45441,2.4544h-.001v-.001a2.45438,2.45438,0,0,1,2.45435-2.45343m105.28406,0A2.45438,2.45438,0,0,1,130.094,58.801v.00006a2.45438,2.45438,0,1,1-2.4544-2.4544m-5.36792,0a2.4549,2.4549,0,1,1-.001,0h.001m-94.54718,0a2.45438,2.45438,0,1,1-2.45435,2.4544,2.4544,2.4544,0,0,1,2.45435-2.4544m99.92468,5.04052a10.89156,10.89156,0,0,1,7.02618,4.68061c3.18952,5.06726,3.25153,14.88482-1.2019,19.491-3.26532,3.37732-5.522,3.82763-6.49371,3.82763a1.91333,1.91333,0,0,1-.53724-.05969s5.34314-4.715,5.25629-15.08337a25.98545,25.98545,0,0,0-4.04486-12.85523l-.00476-.001m-105.3031,0a25.98567,25.98567,0,0,0-4.04486,12.85523c-.08685,10.36841,5.25629,15.07867,5.25629,15.07867a1.91228,1.91228,0,0,1-.53718.0597c-.9718,0-3.22851-.45038-6.49377-3.8277-4.45343-4.60614-4.39142-14.42377-1.2019-19.491a10.8905,10.8905,0,0,1,7.02142-4.67487m99.14276.09449a22.13174,22.13174,0,0,0-2.64532,15.26672c1.61242,8.9364,5.82336,12.68915,5.82336,12.68915a3.57844,3.57844,0,0,1-.46057.02405c-1.67584,0-7.48847-.78138-10.11121-11.25928-2.92785-11.69727,4.99189-16.40558,7.39374-16.72064m-92.98248,0c2.40191.31506,10.32165,5.02337,7.39087,16.72064-2.62195,10.4779-8.43512,11.25928-10.11109,11.25928a3.579,3.579,0,0,1-.46063-.02405s4.21094-3.75275,5.8233-12.68915A22.1331,22.1331,0,0,0,28.50635,61.4817m96.86883.96136c2.37323,0,4.2959,5.82331,4.2959,12.99939s-1.92169,12.99939-4.29394,12.99939h-.002c-2.37133,0-4.2959-5.8233-4.2959-12.99939s1.92267-12.99939,4.2959-12.99939m-100.75708,0c2.37323,0,4.2959,5.82331,4.2959,12.99939s-1.92358,12.99939-4.2959,12.99939-4.2959-5.8233-4.2959-12.99939,1.92267-12.99939,4.2959-12.99939m97.34613,27.34009a2.4544,2.4544,0,0,1,2.45441,2.45435v.00006a2.45441,2.45441,0,1,1-2.45441-2.45441m-93.93139.00092a2.45441,2.45441,0,0,1-.00086,4.90881h-.001a2.45441,2.45441,0,0,1-2.45343-2.45532l-.001.00091a2.45447,2.45447,0,0,1,2.45251-2.4544h.00379M22.6629,91.62373h.001a2.45438,2.45438,0,1,1-2.45441,2.45434l-.00091.001v-.00189a2.45425,2.45425,0,0,1,2.45428-2.45343m104.67023,0a2.45336,2.45336,0,0,1,2.45349,2.45337v.001a2.45441,2.45441,0,1,1-2.45441-2.45434h.00092m-2.91449.61383v0m5.368,1.84051v0m-10.62915.52771a5.53267,5.53267,0,0,1,1.70319.22363,22.13082,22.13082,0,0,0-9.14264,12.50586c-2.51929,8.72449-.41046,13.955-.41046,13.955s-7.19233-2.35413-4.49256-14.75787c2.1294-9.77808,8.81684-11.92646,12.34247-11.92658m-88.31976,0c3.52563,0,10.213,2.1485,12.34155,11.92658,2.69977,12.40374-4.49158,14.75787-4.49158,14.75787s2.10877-5.23047-.41052-13.955a22.13322,22.13322,0,0,0-9.14264-12.50586,5.53447,5.53447,0,0,1,1.70319-.22363m91.95074,2.32605a1.54394,1.54394,0,0,1,.65265.13715c2.1546.9909,1.472,7.08154-1.52746,13.60467-2.71937,5.91394-6.40357,10.15467-8.67414,10.15467a1.54439,1.54439,0,0,1-.65368-.13758H112.583c-2.15461-.9909-1.47113-7.08154,1.5274-13.60467,2.71893-5.91474,6.40753-10.15424,8.6781-10.15424m-95.58368,0c2.27063,0,5.95929,4.2395,8.67816,10.15424,2.99854,6.52313,3.683,12.61377,1.52741,13.60467h-.001a1.54447,1.54447,0,0,1-.65374.13758c-2.271,0-5.95746-4.24073-8.676-10.15467-2.99853-6.52313-3.68207-12.61377-1.52746-13.60467a1.54379,1.54379,0,0,1,.65258-.13715m99.548,1.15766.00482.001.00024.00311-.00506-.00408m-103.50934,0a25.98715,25.98715,0,0,0,2.46966,13.24859c4.79517,9.19324,11.72785,10.84381,11.72785,10.84381s-.83173.86164-3.17468.86164a15.74938,15.74938,0,0,1-4.80237-.88361c-6.09253-1.97516-10.65766-10.66718-10.21472-16.64136a10.89067,10.89067,0,0,1,3.99328-7.42907h.001m103.5144.00408a10.89262,10.89262,0,0,1,3.994,7.426c.443,5.97412-4.12115,14.6662-10.21472,16.64136a15.75371,15.75371,0,0,1-4.80274.8836c-2.34295,0-3.17425-.86163-3.17425-.86163s6.9317-1.65057,11.72778-10.84381a25.99126,25.99126,0,0,0,2.47-13.24549M106.625,119.22919a2.45345,2.45345,0,0,1,2.45343,2.45344v.001a2.45438,2.45438,0,1,1-2.45441-2.45441h.001m-63.25385,0a2.45438,2.45438,0,1,1-2.4544,2.45441,2.45441,2.45441,0,0,1,2.4544-2.45441m52.2287.4068c4.19336-.00006,7.208,2.1811,8.01325,3.3545v.00091q-.64545-.03762-1.2898-.0376a22.1306,22.1306,0,0,0-13.5158,4.60657c-7.23237,5.49018-8.66724,10.945-8.66724,10.945s-4.35986-6.18518,5.21619-14.51825c3.75842-3.27106,7.29278-4.35107,10.2434-4.35114m-41.20453,0c2.95069,0,6.48505,1.08008,10.24341,4.35114,9.57605,8.33307,5.21619,14.51825,5.21619,14.51825s-1.43482-5.45483-8.66724-10.945a22.13175,22.13175,0,0,0-13.5158-4.60657q-.64335,0-1.2898.0376v-.00091c.80524-1.1734,3.81995-3.3545,8.01324-3.3545m56.0655,3.89a2.45419,2.45419,0,0,1,2.45434,2.45251v.001h-.00189a2.45443,2.45443,0,0,1-2.45343,2.45532h-.001a2.45441,2.45441,0,0,1-.00091-4.90881h.00293m-70.92646,0h.00293a2.45441,2.45441,0,0,1-.00085,4.90881h-.001A2.45439,2.45439,0,0,1,37.082,125.9795H37.08v-.001a2.45426,2.45426,0,0,1,2.45434-2.45251m62.04132,1.64337c1.25446-.00006,2.15522.3186,2.54242.98956,1.18567,2.05439-2.89258,6.62909-9.11017,10.21473-4.18695,2.41455-8.27581,3.769-10.8623,3.769-1.25446,0-2.15527-.31848-2.54285-.98914-1.18567-2.05438,2.89258-6.629,9.11017-10.21472,4.18695-2.41455,8.27631-3.76941,10.86273-3.76947m-53.15619,0c2.58649,0,6.67579,1.35492,10.86274,3.76947,6.21759,3.58569,10.29583,8.16034,9.11017,10.21472-.38752.67066-1.2884.98914-2.54279.98914-2.58649,0-6.67535-1.35449-10.86231-3.769-6.21765-3.58564-10.29589-8.16034-9.11022-10.21473.3872-.671,1.288-.98956,2.54241-.98956m57.63849,3.98236.00476.001-.00323.00506-.00153-.006m-62.12072,0a25.99112,25.99112,0,0,0,9.92834,9.11017,24.03331,24.03331,0,0,0,10.39063,2.5163,14.93887,14.93887,0,0,0,5.49945-.89338s-.33319,2.69306-6.39618,4.77326a10.72879,10.72879,0,0,1-3.48407.54388c-5.57794,0-12.02423-3.5755-14.68091-7.71136a10.89273,10.89273,0,0,1-1.25726-8.33887m62.12225.006a10.89041,10.89041,0,0,1-1.254,8.33374c-2.65674,4.13593-9.1029,7.71143-14.68085,7.71143a10.72954,10.72954,0,0,1-3.48419-.54395c-6.06293-2.08013-6.39612-4.77319-6.39612-4.77319a14.938,14.938,0,0,0,5.49939.89343,24.034,24.034,0,0,0,10.39069-2.51635,25.989,25.989,0,0,0,9.92511-9.10511M74.9986,132.577a2.45345,2.45345,0,0,1,2.45343,2.45252v.00189a2.45441,2.45441,0,1,1-2.45441-2.45441h.001m0,5.98182A2.45347,2.45347,0,0,1,77.452,141.0113v.00195a2.45441,2.45441,0,1,1-2.45441-2.4544h.001m-5.24292,1.326h.005M92.459,2.79707q-.33361,0-.65881.01666A12.98968,12.98968,0,0,0,82.85846,7.3556a2.00012,2.00012,0,0,0-.32794,2.03546,3.567,3.567,0,0,0-1.61011,3.39313l-.06244-.00092a2.00039,2.00039,0,0,0-1.64557.86225,4.45993,4.45993,0,0,0-.91845-1.55066,4.45386,4.45386,0,1,0-6.59321.00061,4.45984,4.45984,0,0,0-.91772,1.54944,2.00527,2.00527,0,0,0-1.6474-.86188c-.02167,0-.0434.00036-.06506.0011A3.55448,3.55448,0,0,0,67.4632,9.39472a2.00029,2.00029,0,0,0-.32642-2.03912,12.96621,12.96621,0,0,0-8.89624-4.539c-.26251-.014-.48193-.01953-.70435-.01953h-.00006c-6.686.00024-15.70623,5.14184-17.77032,12.02258-1.06842,3.5614-.98731,5.98083-.5871,7.55572a4.457,4.457,0,0,0-5.31323,4.09479,12.881,12.881,0,0,0-1.36035-.072h-.00006a12.92635,12.92635,0,0,0-6.22339,1.6015c-5.88886,3.416-11.04718,12.94287-8.9292,20.13849a14.6497,14.6497,0,0,0,3.45831,6.485,4.46258,4.46258,0,0,0-2.90961,4.17614c0,.028.00055.05585.00171.08374a4.42631,4.42631,0,0,0,.43146,1.83136A12.94594,12.94594,0,0,0,13.658,64.95649c-3.62958,5.76532-3.77826,16.59924,1.43066,21.98682a16.89462,16.89462,0,0,0,4.79767,3.65417,4.44839,4.44839,0,0,0-1.67773,3.47894q0,.04074.00159.08118a4.458,4.458,0,0,0,2.27661,3.80566,12.97581,12.97581,0,0,0-3.22852,7.36438c-.50366,6.78687,4.45129,16.42084,11.58875,18.73481a17.88508,17.88508,0,0,0,5.41912.98108c.32691,0,.63379-.01374.92151-.03864a4.4525,4.4525,0,0,0-.10766.972q0,.05941.00342.11828a4.45224,4.45224,0,0,0,6.67578,3.74378,12.982,12.982,0,0,0,1.72723,8.69207c3.134,4.88,10.32178,8.6709,16.389,8.6709a12.71786,12.71786,0,0,0,4.13311-.6521c3.81208-1.30792,5.74732-2.93054,6.72974-4.23144a4.457,4.457,0,0,0,8.52112-.00214c.98163,1.30139,2.917,2.9256,6.732,4.2345a12.71709,12.71709,0,0,0,4.13324.6521c6.06714,0,13.25489-3.791,16.36359-8.63043a13.02015,13.02015,0,0,0,1.7486-8.73255,4.45286,4.45286,0,0,0,6.675-3.74518c.00226-.03875.00336-.07775.00336-.11676a4.45315,4.45315,0,0,0-.10773-.97259c.28925.02521.598.03912.92688.03912a17.8882,17.8882,0,0,0,5.41944-.98108c7.13769-2.3136,12.09265-11.94769,11.59253-18.69177a13.032,13.032,0,0,0-3.23639-7.40869,4.45159,4.45159,0,0,0,.60553-7.36066,16.89883,16.89883,0,0,0,4.7959-3.65326c5.20892-5.38763,5.06024-16.22149,1.45666-21.94659a13.04215,13.04215,0,0,0-4.70673-4.2868,4.454,4.454,0,0,0-2.47314-6.09137,14.65063,14.65063,0,0,0,3.45844-6.48511c2.11749-7.19385-3.0398-16.72241-8.88935-20.11939a12.88919,12.88919,0,0,0-7.62756-1.55066,4.46041,4.46041,0,0,0-4.44428-4.17846h-.00073a4.45741,4.45741,0,0,0-.86816.0849c.40033-1.57489.4815-3.99408-.587-7.55591C108.16522,7.93861,99.145,2.79707,92.459,2.79707ZM52.30249,31.30854a26.66969,26.66969,0,0,0,5.43445-.611c6.89844-1.44873,10.22534-5.0166,11.80157-7.75464a13.653,13.653,0,0,0,1.75775-5.37927,4.45133,4.45133,0,0,0,7.40265,0A13.64776,13.64776,0,0,0,80.447,22.92585c1.57477,2.74457,4.9021,6.3208,11.811,7.77167a26.6712,26.6712,0,0,0,5.43475.611,16.57575,16.57575,0,0,0,4.78375-.649,4.47314,4.47314,0,0,0,2.14691,2.74414,13.56743,13.56743,0,0,0-1.535,5.75592c-.13409,3.16126.77,7.96155,5.83856,12.87763a20.27384,20.27384,0,0,0,9.06226,5.533,4.45745,4.45745,0,0,0,.2287,3.07892,13.60676,13.60676,0,0,0-4.23389,4.0227c-1.78015,2.61579-3.54254,7.17084-1.8291,14.01612,1.47326,5.88574,3.94269,9.07568,6.31018,10.796a4.45279,4.45279,0,0,0-.92981,3.23187c-4.95288.66546-10.72247,4.42724-12.67456,13.39093-1.118,5.13647-.68176,8.78705.3371,11.35675a4.47863,4.47863,0,0,0-2.51014,2.13666A13.64627,13.64627,0,0,0,95.6001,117.636H95.6c-3.9765.00007-7.86469,1.62934-11.55658,4.84247-3.79444,3.30194-5.63489,6.363-6.41608,8.95954a4.44571,4.44571,0,0,0-5.25946.00042c-.78119-2.59662-2.62183-5.65808-6.41626-8.96-3.69189-3.21313-7.58-4.84241-11.55627-4.84241A13.64987,13.64987,0,0,0,47.3075,119.6a4.47781,4.47781,0,0,0-2.51069-2.13684c1.01874-2.5697,1.45465-6.21978.33667-11.35614-1.95129-8.96356-7.72009-12.7254-12.6726-13.39117a4.45149,4.45149,0,0,0-.93164-3.233c2.36706-1.72065,4.83569-4.91059,6.30816-10.79493,1.715-6.84466-.04663-11.39978-1.82641-14.01568a13.60408,13.60408,0,0,0-4.23377-4.02307,4.45795,4.45795,0,0,0,.22833-3.08033,20.26283,20.26283,0,0,0,9.06324-5.5321c5.06817-4.91516,5.97235-9.71521,5.83838-12.87634A13.56553,13.56553,0,0,0,45.37146,33.403a4.47339,4.47339,0,0,0,2.147-2.74347,16.57953,16.57953,0,0,0,4.784.649ZM23.24341,100.08949h0Z"/>
  </g>
</svg>
