<?xml version="1.0" encoding="UTF-8"?>
<svg id="Layer_6" data-name="Layer 6" xmlns="http://www.w3.org/2000/svg" width="148" height="148" viewBox="0 0 148 148">
  <defs>
    <style>
      .cls-1 {
        fill: #1a1a1a;
      }

      .cls-1, .cls-2, .cls-3, .cls-4, .cls-5, .cls-6 {
        fill-rule: evenodd;
      }

      .cls-2 {
        fill: #8f6f40;
      }

      .cls-3 {
        fill: #d8ac4c;
      }

      .cls-4 {
        fill: #916f21;
      }

      .cls-5 {
        fill: #b3b3b3;
      }

      .cls-6 {
        fill: #fac567;
      }
    </style>
  </defs>
  <path class="cls-1" d="m76.67,126.47c1.44-1.44,3.99-.52,4.46-.22,1.73-.54,3.54-1.26,5.16-2.05.45-1.7,1.96-3.51,3.96-2.96.18.05.36.14.52.24.41-1.62,1.74-3.32,3.62-3.09.48-.51.95-1.05,1.39-1.62h.01c-.44-1.82.59-4.3,2.66-4.49,1.13-.1.53-3.68,3-4.14.41-.72.94-2.05,1.53-2.79.16-.31.32-.61.48-.92-.46-1.71-.05-4.01,1.94-4.56.39-.11.29-.09.42-.38-.34-1.57.06-3.55,1.74-4.22.21-.57.42-1.13.61-1.69.06-.51.22-1.03.49-1.47.1-.32.2-.63.29-.94-.92-1.52-1.16-3.83.59-4.94.13-.08.28-.14.43-.19-.94-1.51-1.21-3.83.52-4.97.01-.36.03-.71.04-1.08-.26-.83-.29-1.76.08-2.58.05-2-1.75-4.55.07-6.27,0-1.84-1.75-3.28-.09-5.13-.01-.43-.03-.86-.05-1.28-.73-1.49-.19-3.46-.35-5.07-1.48-1.13-2.6-3.35-1.23-5.06.3-.37-1.75-3.05-1.18-4.51-.78-1.84-1.71-3.65-2.72-5.38-.32-.4-.63-.64-.32-.54-4.36-7.32-10.07-16.05-18.35-19.35-2.19-.88-4.53-1.33-6.82-1.91-1.57-.4-3.15-.78-4.73-1.16.16,7.88.71,34.83,1.16,61.04.17,9.86.32,19.24.44,26.84.13,8.7.21,14.97.23,16.84Zm-4.54-105.35c-1.02-.24-2.05-.47-3.07-.71-.11-.03-.21-.06-.3-.1l-.24.08c-1.71,1.17-3.21,1.64-5.09,1.74l-2.76.94c-3.32,1.19-4.49,3.63-7.57,4.98-1.67,1.74-3.68,4.24-5.32,6.39-.55,1.21-1.2,2.07-2.12,2.89-1.35,1.9-2.53,3.72-3.57,5.49.11,3.88-1.51,7.09-4.26,9.66-2.14,7.69-1.53,18.73-1.27,26.06.41,2.1.6,4.05.45,6.14.44,2.65,1.29,5.7,2.42,8.9l.29.23c1.44,1.12,2.55,5.55,2.85,7.45l1.5,3.3c1.14,2.33,2.34,4.57,3.55,6.63,1.39,1.51,2.44,3.23,3.29,5.09,1.8,2.48,2.45,1.41,4.96,3.31,1.52,1.15,2.4,3.51,4.29,3.77h0c1.16-.27,3.52.99,4.48,1.42,1.09.49,2.06,2.73,2.99,1.98l.12-.13c1.14-1.05,2.92-1.12,4.09-.13,0-3.68,0-21.82.05-42.72.06-27.25.2-56.41.23-62.64Zm45.38,7.51l.42-.21c.69-.94.63,2.77,1.77,3.01,2.27.49,2.5,3.36,1.88,5.09-.12.32-.27.62-.44.91.59,1.2.52,3.22,1.81,3.59,3.12.89,1.08,4.31,2.96,5.71,2.28,1.7-.4,3.93,1.33,5.21,1.48,1.1,1.12,3.23.27,4.55h0c.2,1.44.36,3.13.49,4.92.34.83.34,1.77.16,2.64.03.52.05,1.04.07,1.56.15.1.3.23.43.36,1.29,1.32.66,3.49-.29,4.77v.02c.29.14.55.33.77.56,1.43,1.46.45,3.71-.79,4.86-.03.96-.1,2.07-.2,3.27.3,1,.11,2.09-.3,3.02-.05.46-.11.93-.17,1.4.14.14.27.29.39.46,1.03,1.52.03,3.53-1.12,4.61v.06c.25.19.47.42.65.69,1.15,1.69-.24,3.73-1.66,4.63-.39,1.8-.66,5.63-2.02,7.19-.16.42-.32.84-.49,1.26.1.17.17.34.23.53.85,2.68-2.63,2.94-1.97,5,.62,1.94-1.29,3.48-2.9,3.93-.24.43-.49.86-.74,1.29.52,2.83-2.59,3.03-2.29,5.42.36,2.88-3.12,2.37-2.85,4.56.4,3.18-3.62,2.73-4.94,4.34.1.23.17.48.2.74.27,2.13-2.27,3.63-4.07,3.71h-.01c.09.41.09.82,0,1.22-.38,1.58-2.23,2.23-3.65,2.23-.18.15-.37.29-.55.42,0,.21-.03.42-.07.62-.39,1.64-2.31,2.17-3.75,1.97-.42.39-.98.62-1.55.64-.66.36-.11.6-.43,1.47-1.08,2.93-4.4.77-5.89,2.48-1.26,1.46-3.81.8-5.22.03h-.04c-.5,2.56-3.65,3.66-5.66,2.04,0,0-3.54,1.02-4.81.04,0,0-1.61.73-2.47.73-1.7-.01-3.19-1.18-3.51-2.86-5.1-.22-11.61-1.37-15.24-5.13-.75-.43-1.49-.88-2.22-1.32-3.76-1.77-7.7-4.18-9.68-7.98-3.07-2.25-5.22-5.24-6.82-8.69l-.68-.86s-1.67-2.21-1.67-2.21c-.07-.1-.07-.23.02-.32l.25-.26c-1.48-2.63-2.7-5.4-3.8-8.2v-.02c-2.86-4.41-3.25-9.36-4.34-13.74-3.09-6.31-4.17-12.82-3.61-19.84-.15-2.57-.1-5.14-.06-7.71-.83-3.82-.57-7.37.71-11.08.44-2.92,1.62-6.95,2.29-9.16.2-4.46,2.17-8.24,4.61-11.87.91-1.78,1.93-3.6,3.01-5.38.88-2.94,2.84-5.32,4.98-7.45,1.95-2.63,3.68-4.68,6.31-6.89,1.35-2.16,2.92-3.58,5.07-5.16,1.32-.97,2.79-1.73,4.23-2.51.56-.31,1.9-.25,1.9-.25.13,0,.26.05.34.15.63.71,5.51-2.96,6.19-3.26,1.4-.63,2.87-1.12,4.37-1.44,2.23-.47,4.5-.7,6.77-.93,1.74-.08,3.48.17,5.22.29,1.27-.6,2.79-.27,3.98.36.49.05.99.11,1.49.18.13-.11.28-.21.43-.29,2.02-1.1,3.4.86,5.16,1.25.15-.13.31-.24.48-.34,2.49-1.36,10.08,4.59,11.36,5.47,1.03.24,1.88.98,2.49,1.83.37.29.74.58,1.09.87.19-.05.4-.09.6-.1,2.88-.15,2.18,3.28,4.34,3.16,2.31-.12,3.28,2.58,3.13,4.41-.01.14-.04.28-.06.42,1.74,2,5.07,7.43,7.2,7.89.47.1.98.45,1.31.78l-.14.61Z"/>
  <path class="cls-4" d="m74.22,21.1l-1.51-.43v105.82c1.44-1.58,2.98-.58,2.98-.58l-1.47-104.81Z"/>
  <path class="cls-5" d="m24.17,80.13c-.03-3,.58-5.89,1.78-7.9.75.75,1.36,1.74,1.87,2.84-.32.49-.66.98-1.05,1.37-.36.36-.61.64-.86,1.03-.08.13-.33.24-.38.38-.11.32-.32,1.02-.59,1.3-.28.28-.58.61-.76.97,0,0,0,0,0,.01Zm-3.3,6.71s0-.04-.01-.06c-.48-2.06-.83-4.16-1-6.26,0-1.54.24-2.96.78-4.16,1.06.94,1.79,2.13,2.35,3.41-.01.63,0,1.27.05,1.92-.43.77-.89,1.53-1.19,2.44-.12.35-.22.67-.38.97-.04.08,0,.32-.05.38-.21.21-.13.59-.27.86-.07.14-.17.31-.28.51ZM91.54,10.43c.34-.56,1.07-.74,1.64-.4.56.34.74,1.07.4,1.64-.34.56-1.07.74-1.64.4-.56-.34-.74-1.07-.4-1.64Zm15.2,13.27c.48-.45,1.23-.44,1.68.04,0,0-1.79,1.58-1.81,1.54-.36-.48-.31-1.16.13-1.58Zm11.89,15.83c.62-.22,1.3.11,1.52.73.22.62-.11,1.3-.73,1.52-.62.22-1.3-.11-1.52-.73-.22-.62.11-1.3.73-1.52ZM70.57,6.05c.03-.66.61-1.15,1.31-1.09s1.24.64,1.22,1.3c-.03.66-.61,1.15-1.31,1.09-.7-.06-1.24-.64-1.22-1.3Zm-.81,7.23c.03-.66.61-1.15,1.31-1.09.7.06,1.24.64,1.22,1.3-.03.66-.61,1.15-1.31,1.09-.7-.06-1.24-.64-1.22-1.3ZM30.81,61.48c.79-2.04,1.98-4.54,3.84-5.83,1.08,2.3,1.06,5.23.04,8.19-.63,1.83-1.97,3.95-3.57,6.1l.56-2.99,1.68-6.49c-1.63,3.23-3.88,10.39-3.88,10.39-.3.61-1.38-.02-1.64-.34.96-1.78,2.38-4.94,2.97-9.03Zm17.5-33.17c0-.07-.01-.11-.01-.11,0,0-.92-.17-2.2.02l-.92-.28,3.97-2.33,5.23-4.21c-2.7.94-6.73,4.37-10.19,5.55-.31.09-.42-.1-.41-.36,1.52-.86,4.69-2.81,8.16-5.84.08-.07.16-.14.24-.21,1.5-.65,2.85-.76,4.98-.41-.7,2.35-1.51,5.06-4.07,6.45-1.35.74-2.95,1.3-4.78,1.74Zm4.78-14.03s-.06.07-.06.07l.05.03c-.34,2.51-1.65,4.86-2.92,6.24-1.95,2.11-3.96,3.72-6.9,5.16-.04-.18-.09-.36-.14-.53,2.5-3.68,5.14-6.73,8-8.85-2.8.83-5.68,3.29-8.65,7.4-.06-.11-.13-.21-.19-.3,1.53-2.68,2.71-5.26,4.27-6.91.9-.95,1.77-1.75,2.7-2.33l.3-.11s.03-.06.04-.09c1.07-.59,2.22-.87,3.57-.72,0,.32-.03.63-.07.94Zm58.52,27.17c.62-.22,1.3.11,1.52.73.22.62-.11,1.3-.73,1.52-.62.22-1.3-.11-1.52-.73-.22-.62.11-1.3.73-1.52Zm11.45,40.63c.14-.45.37-.91.69-1.34.35-.5.78-.85,1.2-1.06.35-.18.7-.24.95-.03.14.1.23.27.29.45.07.23.12.49.12.77,0,.55-.09,1.17-.37,1.75-.19.44-.42.81-.68,1.1-.2.04-.42.11-.63.2-.04-.45-.2-.86-.47-1.19-.29-.32-.68-.55-1.11-.65Zm-22.58,36.03c.02-.19.06-.38.11-.55.08-.27.2-.5.34-.69.11-.15.25-.26.42-.3.21-.06.42-.01.63.1.18.09.35.2.52.35.14.13.88.37,1.04.42.41.13.81,0,1.18-.43.13-.19.23-.4.25-.61.03-.29-.02-.58-.15-.86-.07-.14-.21-.42-.2-.43-.1-.24-.17-.5-.22-.77-.12-.62-.04-1.22.14-1.71.17-.46.54-.96.96-1.06.38-.12,1.12.06,1.31.15,1.18.58,1.74.45,1.99.12.08-.46-.1-.53.19-.99.31-.54.73-.94,1.16-1.22.38-.25.78-.38,1.11-.21.18.08.3.23.38.43.07.16.13.34.15.55.07.5.04,1.08-.17,1.66-.25.78-.66,1.39-1.16,1.77-.13.1.03.85.31.95.35.13,1.01.74,1.06,1.04.04.15-.31.62-.39.77-.07.14-.15.27-.27.4-.3.32-.7.62-1.21.79-.38.14-.76.22-1.11.24-.02.03-.56-.06-.8-.06-.48,0-.8.28-.94.69-.07.44.08.86.51,1.12.02.01.94.63,1.16.79.17.12.29.26.32.44.04.18,0,.36-.11.53-.12.23-.31.46-.55.67-.35.3-.78.59-1.28.81-.66-.18-1.39-.03-1.93.47-.08.08-.16.16-.23.25.06-.71-.17-1.35-.61-1.81-.28-.26-.63-.45-1.01-.54.11-.07.21-.14.31-.23.13-.12.25-.26.34-.4h.01c.12-.1.25-.2.36-.29.08.07.27.22.58.38.13.07.26.13.42.16.06.01.11.01.17,0,.1,0,.18-.03.27-.06.44-.14.73-.31.74-.34,0-.03-.36-.32-.65-.48-.08-.05-.15-.09-.25-.12-.05-.02-.11-.03-.17-.03-.16,0-.3.03-.44.07-.11.03-.2.06-.28.09.37-.31.69-.6.94-.85.34-.37.73-.81,1.09-1.32.26-.37.52-.77.77-1.17.14.05.31.11.53.16.17.04.34.07.53.07.07,0,.14-.01.2-.03.11-.03.2-.07.3-.11.28-.13.79-.45.79-.48,0-.03-.5-.24-.86-.34-.1-.03-.2-.05-.32-.06-.07,0-.14,0-.21,0-.18.03-.35.09-.5.16-.04.02-.09.04-.13.06.37-.65.71-1.3,1.01-1.9.65-1.3,1.07-2.28,1.07-2.28.01-.02,0-.06-.02-.07-.02-.01-.06,0-.07.02l-3.14,4.29c.01-.06.03-.13.04-.2.03-.2.06-.41.05-.63,0-.08-.02-.17-.04-.24-.03-.13-.08-.24-.13-.36-.17-.39-.49-.93-.51-.93-.03,0-.22.6-.31,1.02-.02.12-.04.24-.05.38,0,.08,0,.17.01.25.04.22.11.41.18.6.12.3.24.53.33.69l-1.32,1.81c-.18.23-.41.49-.68.78-.04-.44-.21-.86-.53-1.21-.77-.84-2.07-.89-2.9-.13-.14.13-.26.28-.36.43-.02-.14-.04-.27-.08-.4Zm-8.48,8.41s.02.02.03.03c.13.15.26.31.36.51.09.17.69.65.82.76.33.26.76.28,1.26.01.19-.14.35-.29.45-.49.13-.26.19-.55.16-.86-.01-.15-.05-.47-.03-.48,0-.26.02-.53.07-.8.1-.63.39-1.15.73-1.56.32-.37.85-.7,1.27-.65.4.02,1.03.45,1.17.6.9.96,1.47,1.04,1.83.82.23-.4.09-.53.52-.87.48-.4,1.02-.63,1.51-.74.45-.1.86-.08,1.11.19.14.13.19.32.21.54,0,.18,0,.37-.05.57-.11.49-.35,1.02-.75,1.49-.51.64-1.11,1.07-1.71,1.24-.15.04-.27.81-.05,1,.29.25.68,1.04.63,1.35-.02.16-.5.47-.63.58-.11.1-.24.2-.39.28-.39.2-.88.34-1.41.32-.41,0-.79-.06-1.12-.17-.02.02-.51-.25-.73-.34-.45-.17-.84-.02-1.13.31-.22.38-.22.83.08,1.22.02.02.66.93.81,1.14.11.17.18.35.15.53-.02.18-.13.33-.29.46-.2.17-.45.32-.75.43-.57.21-1.26.35-2.01.3-.08,0-.17,0-.25-.01.08-.36.06-.73-.04-1.08-.13-.36-.35-.69-.65-.95.13,0,.25-.03.38-.06.96-.26,1.58-1.17,1.52-2.13.33-.18.67-.38,1.02-.61.38-.25.76-.53,1.13-.83.11.09.26.21.44.34.14.1.29.19.47.25.07.02.14.04.2.04.11.01.21,0,.32,0,.31-.02.9-.15.91-.18,0-.03-.38-.4-.68-.62-.09-.06-.17-.12-.28-.17-.06-.03-.13-.06-.2-.07-.18-.04-.36-.03-.53-.03-.05,0-.09,0-.14,0,.58-.48,1.12-.97,1.61-1.42,1.06-.99,1.8-1.76,1.8-1.76.02-.02.03-.05,0-.07s-.05-.02-.07,0l-4.45,2.92c.03-.05.07-.11.1-.17.1-.18.2-.36.27-.57.03-.08.04-.16.05-.24.01-.13.01-.26,0-.38-.02-.43-.14-1.05-.15-1.05-.03,0-.42.48-.64.85-.07.11-.13.21-.18.34-.03.08-.06.15-.07.24-.04.22-.04.43-.04.63,0,.32.04.58.06.76l-1.29.84c-.47-.73-1.38-1.11-2.26-.87-.19.05-.36.12-.52.22.05-.15.1-.3.13-.44.12-.54.06-1.04-.11-1.47Zm-24.96,2.95l-.62-.5-4.21-2.67c1.27,1.82,3.21,3.14,4.78,4.6-.01.4-.03.85-.05,1.34-.95-.49-2.12-1.05-3.34-1.51-.23-.09-.47-.17-.71-.25-1.22-2.07-2.08-4.16-1.8-5.29,1.94-.05,4.05,1.07,6.19,2.67-.13.31-.21.66-.22,1.02,0,0,0,.22-.02.61Zm41.31-5.61c.56-.23,1.05-.54,1.42-.88.08-.07.16-.15.23-.23.05.02.1.05.15.08.41.21.72.49.73.86.02.19-.06.37-.19.54-.11.14-.24.28-.4.4-.41.3-.93.56-1.54.66-.03,0-.07.01-.1.02.08-.5-.01-1.02-.3-1.46Zm-19.82,6.88c-.2-.51-.54-.92-.99-1.22-.25-.14-.52-.24-.8-.29.17-.31.3-.62.38-.93.2-.25.44-.5.72-.72.47-.4,1-.64,1.49-.76.2-.05.39-.06.57-.05.21,0,.4.06.54.2.27.24.3.66.2,1.11-.11.5-.33,1.04-.73,1.52-.41.52-.89.91-1.37,1.14ZM40.43,39.28c-.3,0-.67.03-1.1.1l-1.21-.09,3.23-3.15,5.28-5.3c-.08,2.04-.38,4.21-2.18,5.81-1.08.96-2.42,1.82-4.02,2.63Zm74.95,19.23c.65-.12,1.27.31,1.38.96s-.32,1.27-.96,1.38c-.65.12-1.27-.32-1.38-.96-.12-.65.32-1.27.96-1.38Zm-82.89-23.07c-.24.17-.53.39-.85.65,0-.3.1-2.75.48-4.61.41-1.99,2.41-5.84,2.41-5.84,0,0-1.58,1.52-2.42,4.03s-1.42,6.33-1.99,6.33c-.27,0-.51-.29-.67-.6.44-2.51.79-4.63,1.53-6.46,1.05-2.6,3.38-6.13,5.8-6.76.32.94.07,2.32-.26,3.51-.65.6-1.25,1.31-1.75,2.12-1.36,2.26-2,5.46-2.29,7.62Zm79.4,82.8c.44,0,.83.07,1.17.2.37.14.65.35.66.68.02.17-.04.35-.14.52-.12.21-.28.42-.48.61-.4.38-.92.72-1.54.91-.31.11-.6.18-.88.22.04-.26.03-.53-.02-.78-.21-.78-.84-1.15-1.84-1.42-.13-.04.18-.35.43-.33.31.03.64.03.97,0,.63-.08,1.19-.31,1.66-.6,0,0,.01,0,.02-.01Zm-29.76,10.27c.2-.27.46-.54.76-.78.47-.4,1-.64,1.49-.76.2-.05.39-.06.57-.05.21,0,.4.06.54.2.27.24.3.66.2,1.11-.08.37-.23.77-.46,1.15-.78.33-1.54.99-2.03,1.94-.19.4-.53,1.32-.59,1.38-.08.08-.18.14-.29.17-.09-2.27-.16-4.03-.16-4.03,0-.11,0-.22,0-.33Zm-43.66-12.08c.85-.9,1.87-1.3,2.47-1.46,1.37,1.04,2.54,2.31,3.42,3.31,1.22,1.38,2.1,2.85,2.88,4.49-.32-.09-.62-.17-.91-.24-1.35-.32-2.44-.46-3.08-.51-1.59-1.65-4.01-4.46-4.79-5.59ZM54.55,17.2c1.48-.16,5.13-.67,9.57-2.09,1.83-.07,3.82.14,5.61,1.26-1.55,1.9-3.35,4.09-6.24,4.38-1.43.15-2.99.08-4.7-.18.33-1.03.44-1.74.44-1.74-1.31-.16-3.5-.62-5.6.08.41-.58.71-1.15.93-1.71Zm-13.55,7.47s-.01.04-.01.04h.03c.69,2.62,0,5.49-.98,7.24-1.2,2.16-2.56,3.95-4.65,5.75-.15-.34-.32-.65-.5-.93,1.39-3.68,3.04-6.85,5.06-9.32-2.3,1.32-4.32,4.01-6.04,8.09-.15-.15-.29-.27-.4-.37.59-2.33,1.05-4.47,1.96-6.05.61-1.07,1.24-2.01,1.99-2.74l.26-.17s.01-.06.02-.09c.88-.78,1.92-1.31,3.26-1.49,0,0,0,.02,0,.03Zm79.41,21.6c-.02-.47.05-.98.21-1.49.17-.59.46-1.06.78-1.4.27-.29.58-.46.89-.34.17.05.3.18.42.33.15.19.28.42.37.68.19.52.3,1.13.23,1.78-.03.47-.13.9-.28,1.27-.18.11-.36.24-.53.39-.18-.41-.47-.74-.84-.97-.38-.2-.82-.29-1.27-.25ZM34.89,121.01c1.69,2.53,3.91,5.08,6.63,6.62-.28.02-.67.06-1.06.1l-.54-.1c-.53-.41-1.03-.82-1.5-1.25-1.59-1.47-3-3.14-3.81-4.89.07-.14.16-.3.28-.48Zm8.88-7.42c.84-1.85,3.2-1.11,4.84.82.32.53.62,1.1.89,1.69.46,1,1.21,2.54,1.68,4,.04.86-.05,1.35-.58,1.56-1.16-1.93-2.55-4.14-4.26-6.65.82,3.51,3.8,7.44,3.43,7.51.06.5-.65.68-1.18.68-.1-.03-.2-.07-.3-.1-.74-1.84-1.83-4.03-3.4-6.29-.41-.98-.83-2.09-1.13-3.23Zm78.26-20.39c.63.19.99.85.8,1.48-.19.63-.85.99-1.48.8-.63-.19-.99-.85-.8-1.48.19-.63.85-.99,1.48-.8ZM25.74,53.79l-.52.04c-.92-3.26-.69-7.51.15-12.27-1.32,3.86-1.97,8.03-1.62,12.64.09.31-.34-.02-.73-.36.01-3.76-.17-6.78.35-9.45.6-3.09,2.33-7.52,4.72-8.8.51.95.52,2.52.4,3.89-.56.82-1.05,1.74-1.4,2.75-1.31,3.74-.95,8.98-.77,10.83-.18.22-.37.46-.57.72Zm82.74,50.83c.03-.24.11-.46.2-.65.08-.17.2-.3.36-.37.19-.1.41-.09.64-.02.19.06.38.14.57.25.16.1.93.2,1.1.22.42.05.79-.15,1.08-.64.1-.22.15-.43.13-.65-.02-.29-.12-.57-.3-.82-.09-.12-.28-.38-.27-.39-.14-.22-.26-.46-.35-.72-.24-.59-.26-1.19-.18-1.71.08-.48.36-1.04.75-1.21.35-.19,1.11-.15,1.32-.09,1.27.35,1.79.13,1.98-.24,0-.46-.19-.5,0-1.01.21-.59.55-1.06.92-1.41.33-.32.7-.51,1.05-.4.19.04.33.18.45.35.1.15.19.32.25.51.16.48.23,1.05.13,1.66-.11.81-.4,1.49-.82,1.95-.11.12.19.83.47.88.37.07,1.12.54,1.23.83.07.15-.19.66-.24.83-.04.15-.1.3-.19.44-.24.37-.58.74-1.05,1-.35.21-.7.36-1.05.44-.01.03-.56.04-.8.08-.47.08-.73.42-.81.85.01.44.24.83.7,1.01.03,0,1.04.45,1.28.56.19.09.33.21.4.38.07.16.06.35,0,.55-.08.25-.22.51-.42.76-.18.22-.38.44-.62.65-.11-.09-.24-.18-.38-.25-1.01-.51-2.25-.11-2.76.9-.05.1-.1.21-.13.31-.2-.68-.64-1.2-1.21-1.48-.06-.02-.12-.04-.18-.06.22-.23.46-.48.68-.73.11-.11.21-.23.31-.34.09.05.3.16.64.27.14.04.28.08.44.09.06,0,.12-.01.17-.03.1-.03.17-.06.25-.11.41-.22.67-.44.66-.46,0-.03-.41-.25-.72-.36-.09-.03-.17-.06-.26-.07-.06,0-.12-.01-.17,0-.15.03-.29.09-.42.15-.1.05-.18.1-.26.14.31-.37.57-.72.77-1,.27-.42.57-.93.84-1.5.19-.41.37-.85.54-1.29.14.02.33.05.55.06.17,0,.35.01.53-.02.07-.01.13-.04.2-.07.1-.05.19-.11.28-.17.25-.18.69-.59.69-.62,0-.03-.53-.15-.9-.18-.11,0-.21-.01-.32,0-.07,0-.14.02-.2.04-.17.06-.32.16-.47.25-.04.03-.08.05-.11.08.25-.71.46-1.41.65-2.05.4-1.39.64-2.44.64-2.44,0-.03,0-.06-.03-.06-.03,0-.06,0-.06.03l-2.31,4.79c0-.06,0-.13,0-.2,0-.2-.01-.41-.06-.63-.02-.08-.05-.16-.08-.23-.06-.12-.12-.23-.19-.33-.24-.35-.43-.58-.54-.71-.03-.04-.11-.12-.13-.11-.03,0-.05.13-.05.16-.02.17-.06.47-.07.89,0,.13,0,.25.02.38.01.08.03.16.06.24.08.21.18.39.29.56.17.27.33.48.45.62l-.97,2.02c-.25.48-.67,1.13-1.12,1.79-.24.35-.48.71-.7,1.03-.14,0-.28,0-.41.01.08-.1.14-.21.2-.32.51-1.01.11-2.25-.9-2.76-.52-.27-1.1-.29-1.62-.11Zm-41.65,31.58c-4.68-.74-9.59-3.43-10.18-3.42-.95.02,5.04,4.26,10.15,4.73-.01.72-.02,1.41-.03,2.04-.98-.07-2.98-.27-4.94-.86-1.15-.34-2.28-.82-3.17-1.5-.88-.66-1.67-1.48-2.38-2.28-1.05-1.19-1.9-2.38-2.4-3.13.53-.14,1.27-.32,2.17-.46.95-.15,2.06-.28,3.3-.3,1.18-.02,2.55.26,3.87.65,1.36.4,2.67.91,3.69,1.34-.03,1.01-.06,2.11-.09,3.19Zm-30.85-95.74l.03.12-.02.08c0-.07,0-.13,0-.19Zm1.75,79.15c-.13-.65-.24-1.93.56-2.94.54,1.23,2.31,3.83,3.82,5.49-.04.03-.08.06-.11.1-.12.13.14,1.65.76,3.39-1.25-.94-2.36-1.86-3.22-2.85-.79-.91-1.39-2.01-1.81-3.19Zm53.26,10.41c-.02.24,0,.48.06.73.09.34.26.63.49.87-.65-.05-1.39.05-2.11.35-.08.04-.36.34-.43.38-.1.05-.21.04-.31-.01-.09-.06-.15-.16-.15-.26,0-.11.18-.49.17-.6,0-.05-.01-.1-.02-.14.65-.13,1.33-.47,1.96-.98.12-.1.24-.21.34-.32Zm-19.03-2.18c-.13.32-.21.66-.22,1.03,0,0-.18,4.44-.26,8.29,0,.3-.01.59-.02.88-.42,1-1.27,2.7-2.05,2.38-.47-.2-.83-.55-1.09-.89,0-.73-.02-1.53-.04-2.37-.08-3.85-.26-8.29-.26-8.29-.02-.55.17-1.06.52-1.44.36-.39.87-.65,1.44-.67.59-.03,1.14.19,1.55.56.17.15.31.33.42.52ZM42.14,31.1c1.23-.86,2.38-1.08,4.52-1.25,0,.3-.01.61-.03.92-3.24,1.81-9.74,7.77-9.74,7.77-.39.22-.52-.17-.52-.57,1.37-1.34,3.39-3.51,5.41-6.33.13-.18.25-.36.35-.53Zm82.96,36.71c.35-.27.71-.44,1.05-.55.38-.12.73-.11.94.15.12.13.18.3.2.5.03.24.03.5-.02.78-.1.54-.3,1.13-.68,1.66-.18.27-.37.51-.58.71-.13-.23-.29-.44-.49-.61-.64-.49-1.37-.41-2.33-.03-.13.05-.07-.39.14-.52.26-.16.52-.36.77-.59.46-.45.77-.96.96-1.47,0,0,0-.01,0-.02Zm-38.14-47.48c-.14.06-.3.12-.46.18-.6.22-1.21.26-1.74.21-.21-.02-.41-.08-.59-.15-.21-.08-.39-.2-.48-.37-.2-.33-.1-.73.15-1.12.14-.23.33-.47.55-.68.42.16.89.23,1.4.17.44-.05.9-.17,1.35-.38.17.26.39.5.68.67.16.1.34.17.51.22-.14.06-.28.14-.41.21-.45.27-.76.64-.96,1.04Zm32.57,79.38c.26-.39.61-.77,1.04-1.09.48-.38.99-.59,1.45-.68.39-.08.74-.03.92.24.1.14.14.32.15.52,0,.24-.02.5-.1.77-.15.53-.42,1.09-.85,1.58-.3.37-.63.66-.97.86-.21-.02-.43-.01-.66,0,.09-.44.05-.88-.11-1.28-.19-.39-.49-.72-.88-.94Zm-33.35,40.35c.12.12.22.25.22.47.15.37-3.15.92-3.36.73.22-.15.85-1.93.39-2.86-.06-.12.38-.11.53.1.18.25.4.49.65.72.49.41,1.03.68,1.55.83,0,0,.01,0,.02,0Zm-27.06-15.75s0,.04,0,.06l-.06-.13s.04.04.06.06Zm36.91,12.42c.17.64-2.13,1.25-2.3.62-.17-.64.21-1.29.84-1.46.64-.17,1.29.21,1.46.84ZM76.28,14.29c.04.55.26,1.06.62,1.49.21.22.45.41.71.55-.27.23-.5.49-.68.75-.28.17-.6.32-.95.43-.6.22-1.21.26-1.74.21-.21-.02-.41-.08-.59-.15-.21-.08-.39-.2-.48-.38-.2-.32-.1-.73.15-1.12.27-.43.66-.87,1.22-1.19.58-.35,1.18-.56,1.74-.61Zm46.39,34.83c.3-.32.63-.55.95-.71.35-.17.71-.23.95,0,.14.11.22.27.28.46.07.23.11.49.11.77-.01.55-.12,1.17-.41,1.74-.13.29-.29.56-.46.79-.16-.21-.36-.39-.58-.52-.71-.38-1.41-.19-2.3.34-.12.07-.13-.37.06-.54.24-.2.46-.44.67-.71.38-.51.61-1.07.72-1.61,0,0,0-.01,0-.02Zm-9.68,47.33c-.53-.1-1.07-.02-1.55.2-.25.14-.48.32-.67.52-.17-.31-.37-.58-.59-.81-.11-.3-.19-.63-.24-.99-.1-.61-.02-1.19.14-1.67.06-.19.15-.36.25-.51.12-.18.26-.31.45-.35.35-.11.72.09,1.05.41.37.35.71.83.91,1.42.23.62.31,1.23.25,1.77ZM77.91,7.18c-.47-.18-.95-.45-1.39-.8-.52-.39-.86-.86-1.08-1.29-.18-.37-.23-.72,0-.96.12-.13.29-.21.49-.25.25-.06.52-.08.82-.06.58.04,1.23.19,1.84.52.46.22.84.49,1.14.78.04.21.1.43.18.65-.47,0-.91.13-1.28.37-.35.27-.61.63-.73,1.06Zm35.87,84.14c.12-.14.25-.31.37-.47h0c.29-.22.68-.31,1.06-.2.63.19.99.85.8,1.48-.19.63-.85.99-1.48.8-.63-.19-.99-.85-.8-1.48.01-.05.03-.1.05-.14Zm-13.03,40.2c.41.15.75.36,1.03.6.3.26.49.56.38.87-.04.17-.16.31-.31.44-.18.16-.41.3-.67.4-.51.21-1.12.35-1.76.31-.32,0-.63-.04-.9-.11.13-.23.22-.48.25-.74.07-.8-.38-1.37-1.22-1.98-.11-.08.29-.27.52-.16.28.14.58.25.91.34.62.14,1.23.13,1.76.02,0,0,.01,0,.02,0Zm-34,10v.13c-3.96.51-11.98-1.95-13.32-3.92,0,0,.59-.28,1.27-.57.63.65,2.4,2,1.92,1.74,2.46,1.58,6.63,2.38,10.13,2.61Zm39.79-31.26c-.51-.19-1.05-.22-1.57-.08-.27.09-.53.22-.75.39-.11-.34-.26-.64-.44-.91-.06-.32-.08-.66-.06-1.01.01-.62.19-1.17.44-1.61.1-.18.22-.33.34-.45.15-.15.32-.26.51-.26.36-.04.69.22.96.59.29.42.55.94.64,1.56.11.65.09,1.27-.07,1.78Zm1.41,13.77c.44.49.41,1.24-.07,1.68-.49.44-1.24.41-1.68-.07-.44-.49-.41-1.24.07-1.68.49-.44,1.24-.41,1.68.07Zm8.05-15.32c.59.3.82,1.02.52,1.6-.3.59-1.02.82-1.6.52-.59-.3-.82-1.02-.52-1.6.3-.59,1.02-.82,1.6-.52Zm3.7-5.37c.43-.08.84-.08,1.19-.02.39.07.7.23.77.55.05.17.02.35-.04.54-.08.23-.2.46-.36.69-.33.44-.78.88-1.35,1.18-.28.16-.56.28-.83.37,0-.27-.06-.52-.16-.76-.35-.73-1.04-.98-2.07-1.07-.14-.01.11-.38.36-.4.31-.03.63-.09.96-.18.61-.2,1.12-.52,1.52-.89,0,0,.01-.01.02-.02Zm-3.84-22.53c-.54.06-1.03.28-1.43.64-.2.2-.37.44-.49.69-.25-.25-.53-.45-.8-.61-.19-.26-.36-.55-.51-.88-.27-.56-.36-1.13-.34-1.64,0-.2.05-.39.1-.56.06-.2.17-.37.33-.47.31-.2.71-.12,1.12.1.45.24.91.59,1.28,1.1.4.53.65,1.09.74,1.62Zm-34.41,57.49c-.57,1.2-1.59,2.78-2.89,2.64-.26-.03-.48-.11-.68-.23,0-.98-.02-2.24-.05-3.56-.08-3.85-.26-8.29-.26-8.29-.02-.55.17-1.06.52-1.44.36-.39.87-.65,1.44-.67.59-.03,1.14.19,1.55.56.42.39.7.93.73,1.55,0,0-.19,4.44-.32,8.29-.01.39-.03.78-.04,1.16Zm7.71-.28c.47.02.97.12,1.47.31.57.21,1.02.54,1.34.88.27.29-3.48,1.54-3.83,1.37-.1-.19-.21-.37-.35-.55.42-.15.77-.42,1.03-.76.23-.37.35-.8.34-1.24ZM81.58,6.27c-.2-.41-.3-.81-.33-1.17-.03-.4.05-.74.36-.88.16-.08.35-.09.56-.07.25.03.53.1.8.22.54.24,1.1.59,1.56,1.09.24.24.44.5.6.74-.27.06-.52.17-.74.31-.65.49-.73,1.22-.55,2.25.02.14-.42-.03-.51-.27-.11-.3-.26-.6-.44-.91-.36-.56-.83-1-1.31-1.32,0,0-.01,0-.02-.01Zm36.43,27.76s.08-.08.12-.12c.33-.32.7-.51,1.05-.4.19.05.33.18.45.36.1.15.19.32.25.51.15.48.22,1.06.11,1.67-.11.81-.42,1.5-.85,1.96-.33.35-.7.57-1.09.59.15-.36.27-.76.36-1.18.21-1.17.09-2.28-.26-3.11-.04-.1-.09-.2-.14-.29Zm6.95,41.38c.72-.82,1.17-1.73,1.32-2.54.02-.11.03-.22.04-.32.06-.01.11-.02.17-.03.45-.08.87-.04,1.1.25.13.14.18.33.18.55,0,.18-.02.37-.08.56-.14.49-.4,1-.83,1.46-.44.5-.93.86-1.43,1.06-.07-.37-.23-.71-.47-.98Zm-37.66,51.11c-.01-.51.11-1.09.36-1.66.23-.57.59-1.03.98-1.36.15-.13.32-.23.48-.31.19-.09.39-.13.57-.07.36.09.57.45.69.89.07.27.12.56.12.87-.19.09-.37.2-.54.35-.18,0-.37.02-.57.06-.28.06-.56.15-.84.29-.43.22-.86.53-1.25.93Zm15.17,1.81c.43-.2.92-.34,1.45-.4.61-.08,1.15,0,1.59.17.37.14.65.35.66.68.02.17-.04.35-.14.52-.12.21-.28.42-.48.61-.4.38-.92.72-1.54.91-.45.16-.88.24-1.27.24-.17-.12-.36-.23-.57-.33.3-.33.5-.73.56-1.15.03-.43-.05-.87-.27-1.26ZM86.75,6.33c0-.06,0-.12,0-.17.02-.46.16-.85.5-1.01.18-.09.39-.08.6-.03.18.05.38.12.57.22.47.26.95.65,1.32,1.19.51.69.8,1.41.81,2.04,0,.48-.11.89-.39,1.17-.16-.37-.36-.75-.6-1.13-.71-1.03-1.62-1.78-2.49-2.17-.11-.05-.22-.09-.32-.13Zm30.35,103.26c.58-.35,1.05-.77,1.39-1.21.07-.09.13-.18.18-.27.06.01.11.03.17.05.44.13.79.36.87.72.05.18,0,.38-.09.57-.08.16-.18.32-.32.47-.34.37-.81.72-1.4.93-.35.14-.7.23-1.03.28.03-.04.05-.08.07-.13.23-.45.28-.95.17-1.4Zm6.08-52.24c.14-.16.27-.32.4-.5.68-.98,1.03-2.04,1.05-2.94,0-.11,0-.22,0-.32.05-.02.11-.04.16-.06.44-.15.85-.17,1.13.07.15.12.23.3.26.51.03.18.04.37.01.57-.06.5-.24,1.06-.59,1.57-.44.69-1,1.2-1.58,1.44-.02,0-.03.01-.05.02-.23-.17-.49-.3-.77-.37Zm-96.12-5.15c.28-3.31.23-6.36.99-8.7.43-1.32.91-2.49,1.54-3.49l.24-.25s0-.07,0-.1c.76-1.07,1.74-1.9,3.09-2.43,1.25,2.7,1.08,6.05.41,8.22-.86,2.75-1.99,5.12-3.94,7.72-.22-.31-.44-.58-.65-.79.96-4.29,1.47-7.64,2.81-11.21-1.87,2.79-2.83,5.77-3.96,10.48-.11.11-.3.3-.53.56Zm87.92-10.08s0,0,0,0c0,0-.38-1.62-.88-3.15-.05-.15-.1-.29-.14-.44.09-.05.29-.18.55-.42.11-.1.21-.2.29-.34.03-.05.05-.11.06-.16.02-.1.03-.18.03-.27.01-.47-.05-.79-.07-.81-.03-.01-.1.04-.13.06-.11.07-.28.17-.54.39-.07.06-.13.12-.19.19-.03.05-.07.1-.09.15-.06.15-.07.29-.08.44,0,.11,0,.21,0,.29-.11-.29-.22-.56-.32-.79.8-1.1,1.43-1.88,1.43-1.88l.89-1.07c.08-.02.17-.03.25-.02.18.02.33.13.47.28.17.19.33.44.45.74.22.56.37,1.25.35,2,0,.98-.16,1.9-.62,2.47-.66.83-1.02,1.6-1.2,2.12-.07.02-.14.04-.21.06-.1.05-.21.1-.3.16Zm7.66,50.95c.93-.7,1.58-1.56,1.89-2.38.04-.1.07-.21.1-.31.06,0,.12,0,.17,0,.46,0,.86.12,1.04.44.1.16.11.36.08.57-.03.18-.09.36-.18.54-.22.45-.57.92-1.07,1.29-.44.35-.92.6-1.37.73-.13-.34-.36-.65-.66-.88Zm-8.24-25.21c.26.81.86,1.62,1.76,2.19.38.22,1.27.64,1.33.71.09.12.15.25.14.42.03.19-1.02.03-1.28,0-.75-.05-1.22.03-1.63.38-.18-.02-.36-.07-.55-.14-.59-.22-1.16-.71-1.62-1.39-.36-.5-.55-1.05-.63-1.55-.03-.2-.02-.39,0-.57.03-.21.1-.4.25-.52.27-.25.68-.24,1.12-.1.36.11.75.29,1.1.56Zm-9.28,36.87c-.03-.12-.04-.24-.06-.36-.1-.61-.02-1.19.14-1.67.06-.19.15-.36.25-.51.12-.18.27-.31.45-.35.35-.11.72.09,1.05.41.2.19.39.42.55.68-.23.35-.39.77-.43,1.25-.05.5.01,1.06.19,1.63-.04.11-.08.23-.1.34-.07-.14-.16-.27-.24-.39-.47-.65-1.12-.99-1.79-1.03Zm-12.73-84.75c-.23.49-.29,1.03-.2,1.55.07.28.18.54.34.78-.34.09-.66.22-.94.37-.32.03-.66.03-1.01-.02-.62-.06-1.15-.28-1.58-.55-.17-.11-.31-.24-.43-.38-.14-.16-.23-.33-.23-.53-.01-.37.27-.67.66-.91.44-.26.98-.47,1.61-.52.66-.07,1.27,0,1.77.2Zm6.17,102.17c-.41-.36-.9-.57-1.44-.63-.29-.01-.57.02-.84.1.01-.35-.02-.69-.09-1,.06-.31.16-.64.3-.97.23-.57.59-1.03.98-1.36.15-.13.32-.23.48-.31.19-.09.39-.13.57-.07.36.09.57.45.69.89.13.49.18,1.08.05,1.69-.12.65-.37,1.22-.69,1.64Zm25.71-36.65c.39-.2.78-.31,1.13-.35.39-.05.74.02.9.31.09.15.12.33.11.53,0,.24-.06.5-.15.76-.19.52-.5,1.06-.96,1.51-.22.23-.46.43-.69.59-.08-.25-.21-.48-.37-.68-.54-.6-1.27-.64-2.28-.44-.13.03,0-.4.23-.49.29-.11.58-.26.87-.44.53-.36.92-.81,1.21-1.28,0,0,0-.01.01-.02Zm-12.16-34.66c.38.76,1.1,1.47,2.08,1.88.41.16,1.35.43,1.42.49.11.1.19.23.21.39.06.19-1,.19-1.26.21-.75.07-1.2.22-1.55.64-.18,0-.37-.01-.56-.05-.61-.13-1.26-.52-1.81-1.12-.44-.44-.71-.95-.86-1.43-.06-.19-.09-.38-.09-.56,0-.21.03-.41.16-.55.22-.29.64-.34,1.09-.28.38.06.78.17,1.18.38ZM54.96,13.53c2.33-1.81,4.34-3.63,6.33-4.51,1.19-.53,2.31-.93,3.39-1.1h.32s.05-.03.07-.05c1.21-.13,2.39.06,3.58.71-1.17,2.65-3.64,4.67-5.59,5.56-2.57,1.18-5.02,1.88-8.21,2.08.12-.51.17-.99.18-1.44,1.36-.72,4.08-2.14,4.86-2.49,1.05-.47,6.11-2.49,6.11-2.49,0,0-4.53,1.06-6.19,1.76-1.18.49-3.52,1.76-4.79,2.46-.01-.17-.03-.33-.06-.48Zm61.96,19.4l.03-.04s0,.03,0,.05c0,0-.01,0-.02-.01Zm-40.16,95.13c-.08.25-.13.52-.14.79,0,0-.18,4.44-.26,8.29,0,.23,0,.46-.01.69-.5,1.1-1.55,3.06-2.77,2.95-.21-.02-.4-.09-.56-.19,0-.2-.01-.41-.02-.62,0-.84-.02-1.81-.04-2.83-.08-3.85-.26-8.29-.26-8.29-.02-.55.17-1.06.52-1.44.36-.39.87-.65,1.44-.67.59-.03,1.14.19,1.55.56.23.21.42.47.54.76Zm34.04-86.44s-.05-.02-.08-.03c.53-1.09,1.37-2.39,2.17-3.52.19.35.39.75.59,1.15.25.51.5,1.03.72,1.48-.01-.02-.04-.04-.07-.06-.12-.08-.29-.23-.61-.4-.14-.07-.29-.15-.47-.18-.06-.01-.13-.02-.19-.01-.11,0-.2.02-.3.05-.35.08-.56.17-.69.22-.04.01-.13.06-.14.08,0,.03.08.09.11.11.12.08.29.23.61.41.01,0,.03.01.04.02-.27-.02-.55.02-.82.11-.34.12-.64.32-.86.58Zm-8.14-13.38l-1.76,1.32s-.04-.09-.06-.15c-.04-.38.03-.76.32-1.07.42-.39,1.05-.42,1.5-.1Zm10.54,19.2c-.49.24-.88.61-1.14,1.07-.12.26-.2.53-.24.82-.32-.15-.65-.25-.96-.31-.27-.18-.53-.4-.77-.66-.44-.44-.71-.95-.86-1.43-.06-.19-.08-.38-.09-.56,0-.21.03-.41.16-.55.22-.29.64-.35,1.09-.28.5.07,1.06.26,1.57.62.55.37.97.82,1.24,1.29Zm-.82,67.22c.33-.34.74-.64,1.22-.88.54-.29,1.08-.4,1.55-.4.4,0,.73.1.86.41.08.16.08.34.05.54-.04.24-.11.49-.24.74-.25.49-.61,1-1.12,1.4-.36.31-.74.53-1.11.67-.2-.05-.42-.09-.65-.11.17-.41.21-.85.12-1.28-.12-.42-.35-.8-.7-1.09Zm-16.32-94s0,0-.01,0c0,.01,0,0,.01,0Zm0,0s.04.03.07.04c.16.06.43.18.85.29.12.03.24.06.37.08.08.01.17.01.25,0,.22-.02.42-.08.61-.14.3-.1.55-.2.71-.28l1.71,1.46c.4.36.92.94,1.45,1.54.38.43.75.86,1.08,1.24-.02-.01-.04-.03-.08-.04-.13-.05-.34-.15-.69-.22-.16-.03-.32-.06-.5-.06-.07,0-.13.02-.19.04-.1.03-.19.07-.28.12-.32.17-.49.31-.61.4-.04.03-.11.09-.11.11,0,.03.1.07.13.08.14.05.34.15.69.24.1.03.19.04.3.05.07,0,.13,0,.19-.01.17-.04.32-.1.47-.18.47-.24.72-.46.72-.46,0,.01,0,0,0,0,.57.66.98,1.16.98,1.16.01.02.05.03.07.01.02-.02.03-.05.01-.07,0,0-.79-1.46-1.67-2.81-.08-.13-.17-.26-.25-.38.07-.07.24-.25.42-.55.08-.12.15-.25.19-.4.02-.06.02-.11.02-.17,0-.1-.02-.18-.04-.27-.11-.45-.25-.75-.28-.76-.03,0-.08.06-.11.1-.09.1-.23.23-.42.51-.05.08-.1.15-.13.24-.02.05-.04.11-.04.17-.01.16,0,.3.04.44.02.11.05.2.07.28-.28-.39-.55-.74-.77-1-.34-.37-.76-.78-1.24-1.19-.35-.29-.72-.58-1.11-.85.06-.13.13-.31.2-.52.05-.16.1-.33.11-.52,0-.07,0-.14-.02-.21-.02-.11-.06-.21-.09-.31-.11-.29-.21-.47-.29-.62-.05-.1-.11-.21-.14-.2-.03,0-.07.09-.09.13-.07.14-.18.35-.31.7-.04.1-.07.2-.08.31,0,.07-.02.14,0,.21.02.18.07.35.12.51.02.04.03.09.05.13-.62-.42-1.25-.8-1.82-1.14-1.25-.74-2.2-1.23-2.2-1.23-.02-.02-.06,0-.07.01-.02.02,0,.06.01.07l4.05,3.45c-.06-.02-.13-.04-.2-.05-.2-.05-.4-.09-.62-.1-.08,0-.17,0-.25.02-.13.02-.25.06-.37.1-.4.14-.67.27-.82.35-.05.02-.07.03-.08.04-.02.01-.02.03-.01.04-.03-.02-.04,0-.04.02,0,.03.02.05.05.05l.04-.02s-.01.01-.02.03Zm3.67,5.94c-.19-.51-.36-1.02-.49-1.44-.1-.35-.16-.71-.18-1.06.11-.24.22-.51.26-.6.13-.33.08-.66-.16-1,.09-.51.2-.84.2-.84l-.47.56c-.16-.11-.32-.19-.5-.22-.28-.05-.58-.02-.87.09-.14.06-.28.12-.41.2-.01-.01-.02-.03-.04-.04-.25.08-.51.13-.79.16-.63.08-1.22-.05-1.7-.26-.44-.2-.91-.61-.98-1.03-.09-.39.14-1.11.25-1.3.66-1.14.58-1.7.27-1.98-.45-.11-.53.06-.98-.26-.52-.35-.89-.8-1.13-1.25-.22-.4-.32-.8-.13-1.12.09-.17.26-.28.46-.35.17-.06.35-.1.56-.11.5-.03,1.08.04,1.64.3.76.31,1.34.76,1.68,1.29.09.13.85.03.97-.24.16-.34.81-.95,1.12-.98.16-.03.59.35.74.44.13.08.26.17.38.3.3.32.57.75.7,1.27.12.39.17.77.16,1.12.03.02-.1.56-.12.79-.04.48.22.81.62.99.43.1.86-.02,1.15-.42.01-.02.7-.89.87-1.1.13-.16.29-.27.47-.29.18-.03.35.04.53.15.22.14.43.34.62.6.36.48.68,1.11.86,1.84.25.94.34,1.87.05,2.54-.76,1.74-.61,3.03-.6,3.08-.13-.04-1.12-.63-1.72-.43-.51.43-1.1.58-1.96.66-.47.06-.91.03-1.32-.06Zm-43.04,103.14c-.36.02-.69.06-1.02.09-1.37.16-2.42.41-3.01.57-3.09-1.82-6.5-4.43-6.71-4.65-.67-.68,2.39,3.4,5.84,5.69.35.74,1.31,2.3,2.55,3.68.24.27.5.54.76.81-.07,0-.15,0-.23,0-.02-.1-.11-.19-.22-.23,0,0-2.74-1.05-5.17-2.78-1.02-.72-1.97-1.56-2.62-2.5-.65-.92-1.16-1.96-1.6-2.95-.65-1.47-1.09-2.87-1.33-3.74.57.05,1.36.15,2.29.34.98.19,2.12.46,3.34.88,1.17.39,2.42,1.13,3.59,1.96,1.37.96,2.64,2.04,3.54,2.84Zm66.62-65.07c.06-.47.2-.96.44-1.44.25-.55.62-.97.99-1.26.31-.24.65-.36.93-.2.15.08.27.22.37.4.12.21.21.46.26.73.1.54.12,1.16-.05,1.79-.11.46-.27.87-.47,1.21-.19.08-.39.18-.58.3-.11-.43-.35-.81-.67-1.09-.35-.26-.76-.42-1.21-.45Zm-44.1-47.97c.9-.04,1.87-.41,2.66-1.14.32-.31.95-1.07,1.03-1.1.14-.06.3-.08.46-.03.21.02-.2,1-.28,1.24-.22.71-.24,1.2.03,1.69-.06.17-.15.33-.27.49-.36.51-1,.94-1.8,1.21-.6.22-1.21.26-1.74.21-.21-.02-.41-.08-.59-.15-.21-.08-.39-.2-.48-.38-.2-.32-.1-.73.14-1.12.2-.32.47-.65.83-.93Zm31.59,74.56c-.11-.18-.22-.38-.31-.59-.27-.56-.36-1.13-.34-1.64,0-.2.04-.39.1-.56.06-.2.17-.37.33-.47.31-.2.72-.12,1.12.1.24.13.49.29.72.49-.12.4-.15.85-.06,1.32.1.5.32,1.03.66,1.54-.04.09-.08.19-.11.28-.06.18-.08.37-.08.55-.1-.12-.2-.24-.31-.34-.51-.49-1.12-.71-1.72-.7ZM37.98,24.52l.07-.03s-.05.03-.07.05v-.02Zm3.25,75.98l-.83.58-.44.33c-.62-1.44-1.33-3.01-2.13-4.71.13,1.79.78,3.76,1.35,5.3l-1.49,1.12c-.32-.88-.69-1.8-1.13-2.73-.3-1.31-.59-2.83-.62-4.3.45-.66,2.26-.35,3.34-.09.84,1.29,1.49,2.8,1.93,4.46,0,.01,0,.03.01.04Zm-4.38,3.26l-2.38,1.8c-.74-1.26-3.19-6.62-3.19-6.62,0,0,1.44,5.06,2.49,6.87.04.06.08.13.12.2l-1.08.82s-.02.03-.07.09c-.74-.83-1.38-1.65-1.89-2.48-1.61-2.67-2.22-5.58-1.63-8.26.14-.27.28-.49.41-.66,2.85,1.08,4.9,4.19,6.17,6.24.41.66.75,1.32,1.05,2Zm-4.95,3.97c-.24.36-.42,1.01-.53,1.53-1.7-1.69-3.37-3.84-5.03-6.28,1.32,2.78,3.01,5.4,5.18,7.82l-.43.68c-.95-.92-1.8-1.82-2.53-2.76-2.1-2.72-3.64-5.87-3.13-8.66,1.19.32,2.15.96,2.97,1.73.2.69.45,1.38.77,2.03.66,1.35,1.65,2.69,2.73,3.91Zm77.85-63.69c.14-.43.29-.86.46-1.27.03,0,.05.01.08.02-.03.29,0,.59.1.88.06.18.15.35.26.5-.15-.04-.3-.07-.45-.1-.15-.02-.3-.03-.44-.03Zm-50.83,80.08c.55,1.91.98,2.82.25,3.31-1.53-1.64-3.36-3.51-5.56-5.61,1.53,3.26,5.27,6.48,4.93,6.62.19.57-.76.91-1.28.96-.85-.9-2.07-2.13-3.44-3.25-.2-.16-.4-.32-.61-.48-.52-2.35-.89-5.06-.25-6.01,1.96.99,4.15,2.61,5.95,4.46Zm64.67-48.98c.66,0,1.19.53,1.19,1.19s-.53,1.19-1.19,1.19-1.19-.53-1.19-1.19.53-1.19,1.19-1.19Zm-20.17,43.2c.44.49.41,1.24-.07,1.68-.49.44-1.24.41-1.68-.07-.44-.49-.41-1.24.07-1.68.49-.44,1.24-.41,1.68.07ZM26.7,70.43c-.29-4.54-.78-7.97-.49-11.86-.99,3.15-1.08,6.23-.85,10.94-.03.07-.08.18-.15.34-.65-3.04-1.46-5.76-1.4-8.07.09-3.13,1.34-5.88,3.63-7.66,1.96,2.24,2.01,5.76,1.98,8.04-.05,2.97-1.05,5.49-2.37,8.63-.12-.13-.23-.24-.34-.35Zm83.06,34.54c.59.3.82,1.02.52,1.6-.3.59-1.02.82-1.6.52-.59-.3-.82-1.02-.52-1.6.3-.59,1.02-.82,1.6-.52Zm6.04-30.58c-.05-.1-.09-.2-.13-.3-.1-.26-.14-.52-.14-.76,0-.19.05-.36.15-.49.13-.17.33-.27.56-.31.19-.03.4-.05.63-.03.19.02.92-.24,1.08-.29.4-.14.64-.49.68-1.06-.01-.24-.06-.45-.17-.64-.15-.25-.37-.45-.64-.59-.14-.07-.28-.13-.43-.18,0-.02,0-.03,0-.05-.22-.13-.44-.3-.64-.49-.48-.42-.77-.94-.93-1.45-.15-.46-.15-1.09.13-1.42.23-.33.92-.63,1.14-.67,1.29-.25,1.66-.69,1.66-1.11-.21-.41-.39-.36-.45-.91-.08-.62.01-1.19.18-1.67.15-.43.39-.77.76-.83.19-.05.38,0,.56.11.15.09.31.2.45.34.35.36.68.84.86,1.43.27.77.31,1.51.14,2.11-.04.15.54.66.82.58.36-.11,1.25-.02,1.48.19.13.1.13.68.16.85.03.15.04.31.03.48-.04.44-.18.92-.49,1.36-.22.35-.47.64-.74.86,0,.03-.49.29-.67.43-.38.29-.47.7-.34,1.12.21.39.58.63,1.08.58.03,0,1.14-.07,1.4-.07.21,0,.39.04.53.16.14.11.21.29.24.49.04.26.03.55-.03.86-.11.56-.35,1.17-.74,1.75-.19-.06-.38-.09-.59-.09-1.13,0-2.06.92-2.06,2.06,0,.12,0,.23.03.34-.45-.48-1.02-.74-1.6-.77.18-.53.38-1.17.56-1.81.04-.15.08-.3.12-.44.1,0,.35,0,.69-.05.14-.02.29-.05.43-.12.05-.03.1-.06.14-.1.07-.07.12-.13.18-.21.27-.38.4-.69.38-.71-.01-.02-.47-.04-.81,0-.09.01-.17.02-.27.06-.05.02-.11.04-.15.08-.13.09-.22.21-.31.32-.07.09-.12.17-.17.24.11-.47.19-.9.24-1.24.05-.5.09-1.09.07-1.71-.01-.45-.05-.92-.1-1.4.14-.04.32-.11.52-.19.16-.07.32-.15.46-.26.06-.04.1-.09.14-.15.07-.09.12-.18.17-.27.14-.27.36-.84.34-.86-.02-.02-.54.11-.89.25-.1.04-.19.08-.29.14-.06.04-.12.08-.16.13-.13.14-.22.28-.3.43-.02.04-.05.08-.07.12-.1-.74-.22-1.47-.34-2.12-.27-1.43-.53-2.46-.53-2.46,0-.03-.03-.05-.06-.04-.03,0-.05.03-.04.06l.09,5.32c-.03-.06-.06-.12-.09-.18-.09-.18-.2-.36-.34-.53-.05-.06-.11-.12-.18-.17-.11-.08-.21-.15-.32-.21-.37-.21-.96-.44-.97-.43-.02.02.18.61.37,1,.06.11.11.22.19.33.05.07.1.13.16.19.16.15.34.27.51.37.27.16.51.28.68.35l.04,2.24c0,.54-.1,1.31-.19,2.1-.07.56-.15,1.13-.22,1.63,0-.02,0-.05-.02-.09-.05-.13-.11-.35-.29-.67-.08-.14-.17-.28-.29-.41-.05-.05-.1-.09-.15-.12-.09-.06-.18-.09-.28-.13-.34-.12-.56-.16-.7-.2-.04-.01-.14-.03-.15-.01-.02.02.02.12.03.15,0,0,0,.02.01.03-.32-.2-.69-.31-1.09-.31-.25,0-.49.04-.71.13Zm-20.82,48.1c-.55.65-.91,1.59-.91,2.65.01.44.14,1.41.11,1.5-.05.14-.13.26-.27.34-.15.13-.57-.85-.69-1.07-.36-.66-.68-1.02-1.2-1.18-.08-.16-.14-.34-.17-.54-.12-.61-.02-1.36.31-2.11.23-.57.59-1.03.98-1.36.15-.13.32-.23.48-.31.19-.09.39-.13.57-.07.36.09.57.45.69.89.1.37.15.79.12,1.23Zm21.02-57.81c-.52.16-.97.46-1.3.88-.16.24-.28.5-.36.77-.29-.2-.6-.35-.9-.46-.23-.22-.46-.48-.65-.77-.36-.5-.55-1.05-.63-1.55-.03-.2-.02-.39,0-.57.03-.21.1-.4.25-.52.27-.25.68-.24,1.12-.1.49.15,1.01.42,1.45.86.49.45.83.96,1.02,1.46Zm2.51,11.14s.07.03.11.05c.49.2.82.24.82.24h0c-.01.09-.03.17-.04.26-.31.06-.6.17-.87.35.02-.12.03-.25.03-.38,0-.18-.02-.35-.06-.51Zm-5.01.59c-.38-.26-.73-.63-1.03-1.08-.36-.5-.55-1.05-.63-1.55-.03-.2-.02-.39,0-.57.03-.21.1-.4.25-.52.27-.25.68-.24,1.12-.1.26.08.53.2.8.36-.05.42,0,.86.18,1.31.13.34.32.68.58,1-.19.31-.3.67-.3,1.06,0,.19.03.38.08.56-.13-.09-.26-.17-.39-.24-.21-.11-.43-.19-.64-.24Zm-17.64,59.1c.46-.05.88-.15,1.24-.29.1-.04.2-.09.29-.13.04.04.08.08.12.12.31.34.5.71.38,1.06-.05.19-.19.33-.37.44-.15.09-.32.18-.52.24-.17.05-.35.09-.54.11,0-.2-.01-.41-.07-.62-.1-.36-.29-.68-.54-.93Zm18-75.83c-.21.02-.43,0-.66-.04-.61-.13-1.26-.52-1.81-1.12-.44-.44-.71-.95-.86-1.43-.06-.19-.08-.38-.09-.56,0-.21.03-.41.16-.55.22-.29.64-.34,1.09-.28.27.04.56.11.85.23.01.42.14.85.38,1.27.32.55.84,1.08,1.51,1.49-.27.27-.47.61-.56.99Zm-31.43,76.48c.19-.01.39-.03.59-.05.45-.05.92-.13,1.39-.22.05.13.13.31.24.5.08.15.17.3.3.44.05.05.1.09.16.13.1.06.19.1.29.15.28.12.87.28.89.26.02-.02-.15-.53-.32-.86-.05-.1-.1-.18-.17-.28-.04-.05-.09-.11-.14-.15-.15-.12-.3-.19-.46-.27-.04-.02-.09-.04-.13-.06.73-.16,1.44-.35,2.08-.52,1.4-.39,2.41-.74,2.41-.74.03,0,.04-.03.04-.06,0-.03-.03-.04-.06-.04l-5.29.54c.06-.03.11-.07.17-.11.17-.11.34-.23.5-.38.06-.06.11-.12.16-.19.07-.11.13-.22.18-.34.18-.39.36-.99.35-1-.02-.02-.6.23-.96.45-.11.06-.21.13-.31.22-.06.05-.12.11-.18.18-.14.17-.24.36-.33.54-.14.29-.24.53-.29.71l-1.13.12c-.02-.41-.03-.81-.05-1.21.22-.03.42-.1.58-.22.23-.17.42-.4.53-.69.06-.14.1-.29.14-.44.02,0,.04,0,.05,0,.11-.23.26-.46.43-.68.38-.51.88-.85,1.36-1.05.45-.18,1.07-.24,1.43,0,.34.2.71.87.77,1.07.36,1.27.83,1.6,1.25,1.56.39-.25.33-.42.86-.53.61-.13,1.19-.09,1.68.04.44.12.8.33.89.68.06.18.02.38-.06.57-.07.16-.17.33-.3.48-.33.38-.78.75-1.35.98-.74.33-1.48.44-2.09.32-.16-.03-.61.6-.5.87.14.35.13,1.24-.06,1.49-.09.13-.66.18-.83.23-.15.04-.31.07-.48.07-.44,0-.93-.1-1.4-.37-.36-.19-.67-.41-.92-.66-.03,0-.33-.46-.49-.63-.32-.36-.74-.4-1.14-.24-.09.06-.17.13-.24.2,0-.27-.02-.55-.03-.82Zm14.78-121.66c-.31-.35-.59-.79-.79-1.28-.25-.56-.32-1.11-.29-1.58.03-.4.16-.73.47-.83.16-.07.35-.06.54-.01.24.05.48.15.72.29.47.28.95.68,1.31,1.22.28.39.48.78.59,1.15-.07.2-.12.41-.16.64-.4-.2-.83-.27-1.26-.22-.43.09-.82.29-1.14.61Zm-54.97,114.56l.16.06.21-.02c.54.74,2.92,3.15,2.52,2.75,1.96,2.32,4.32,3.66,7.57,4.85l-1.31.23h0c-4.07-1.79-9.66-5.98-10.19-7.81,0,0,.46-.03,1.05-.06ZM105.11,17.45c.03-.05.06-.1.09-.15.24-.39.55-.68.91-.66.19,0,.37.09.53.23.13.12.26.26.37.43.27.43.49.97.54,1.59.1.81,0,1.56-.31,2.11-.22.42-.52.73-.9.86.05-.39.06-.8.04-1.23-.1-1.19-.51-2.23-1.06-2.93-.07-.09-.14-.17-.21-.25Zm11.23,57.18c.66,0,1.19.53,1.19,1.19s-.53,1.19-1.19,1.19-1.19-.53-1.19-1.19.53-1.19,1.19-1.19Zm6.28-16.91c.65-.12,1.27.31,1.38.96.12.65-.32,1.27-.96,1.38-.65.12-1.27-.31-1.38-.96-.12-.65.32-1.27.96-1.38Zm-19.29,54.1c-.28.8-.29,1.81.08,2.8.17.41.63,1.27.63,1.37,0,.15-.03.29-.13.42-.09.17-.83-.59-1.02-.76-.57-.49-.99-.71-1.54-.68-.13-.12-.25-.27-.35-.44-.33-.53-.5-1.27-.45-2.08.01-.62.19-1.17.44-1.61.1-.18.22-.33.34-.45.15-.15.32-.26.51-.26.37-.04.69.22.96.59.22.31.42.69.54,1.11Zm-15.98-95.45c.34-.56,1.07-.74,1.64-.4.56.34.74,1.07.4,1.64-.34.56-1.07.74-1.64.4-.56-.34-.74-1.07-.4-1.64Zm13.4-1.14c.03-.44.14-.83.28-1.15.16-.36.4-.62.73-.61.17,0,.35.07.51.18.2.13.4.31.57.53.35.43.65.97.8,1.6.08.31.13.61.15.9-.26-.06-.52-.07-.78-.04-.79.15-1.21.75-1.56,1.73-.05.13-.34-.2-.3-.45.05-.31.08-.63.07-.97-.04-.64-.22-1.21-.47-1.69,0,0,0-.01-.01-.02Zm-59.61,7.65l-.58-.29s.75-2.55,1.66-4.38c.91-1.83,2.78-4.25,2.78-4.25,0,0-.85.25-2.32,2.49-1.47,2.24-3.01,5.8-3.57,5.69-.18-.04-.22-.27-.18-.57,1.14-2.48,2.09-4.59,3.33-6.29,1.76-2.41,5-5.47,7.52-5.51.04,1.04-.59,2.41-1.25,3.55-.8.46-1.58,1.03-2.29,1.75-2.09,2.12-3.69,5.56-4.55,7.7-.04-.04-.06-.06-.06-.06,0,0-.19.06-.51.18Zm71.97,18.19c.1,0,.2-.03.3-.05.52-.1.81-.25.81-.25,0,.01,0,0,0,0,.38.79.64,1.37.64,1.37,0,.01.01.02.02.03-.2.14-.37.3-.52.5-.02-.12-.05-.25-.09-.37-.2-.58-.64-1.01-1.17-1.23ZM54.74,12.54c-.07-.23-.14-.42-.2-.58l-.15-.58c2.17-2.5,4.33-3.9,7.17-5.38-.96-.55-8.31,3.98-8.91,4.65l.53-.68c1.67-1.55,3.22-2.95,4.68-3.83,2.55-1.54,6.73-3.11,9.07-2.17-.37.98-1.48,1.99-2.53,2.79-.91.12-1.86.34-2.79.73-2.59,1.08-5.22,3.4-6.87,5.04Zm-31.57,45.98c-.21.63-.36,1.28-.45,1.95-.47,3.73,1.2,8.57,1.99,10.62-.23.64-.5,1.43-.75,2.35l-.33.13c-1.59-2.93-2.29-7.15-2.53-12.05-.43,4.15.14,7.89,1.48,12.31-.36.69-.79.12-1.02-.29-1.22-3.58-1.74-7.05-1.99-9.58-.3-3.14.1-6.33,2.03-8.24.83.84,1.3,1.8,1.57,2.8Zm90.53,25.14c.11.84.56,1.75,1.34,2.46.33.29,1.14.85,1.18.93.07.13.11.28.07.44,0,.2-1-.15-1.26-.22-.73-.18-1.21-.19-1.68.09-.17-.05-.34-.13-.51-.23-.54-.32-1.02-.9-1.34-1.65-.27-.56-.36-1.13-.34-1.64,0-.2.04-.39.1-.56.06-.2.17-.37.33-.47.31-.2.71-.12,1.12.1.34.18.68.42.99.75Zm-15.48-60.66l-.95,1.12-.09.24c-.33.39-.49.73-.49,1.16-.13.12-.29.23-.46.32-.55.29-1.3.4-2.11.29-.62-.06-1.15-.28-1.58-.55-.17-.11-.31-.24-.43-.37-.14-.16-.23-.33-.23-.53-.01-.37.27-.67.66-.91.33-.2.71-.37,1.15-.46.78.34,1.79.43,2.8.12.42-.14,1.32-.53,1.41-.53.11,0,.22.03.31.09Zm-3.61,106.59c.17.64-.21,1.29-.84,1.46-.64.17-1.29-.21-1.46-.84-.17-.64.21-1.29.84-1.46.64-.17,1.29.21,1.46.84Zm2.68-13c.02-.61.2-1.16.43-1.6.1-.18.22-.33.34-.45.15-.15.32-.26.51-.26.36-.04.69.22.96.59.16.22.31.48.42.77-.25.25-.45.57-.59.95-.12-.07-.26-.13-.39-.18-.54-.15-1.13-.09-1.68.19Zm12.82-18.03c-.13.84.04,1.84.59,2.74.24.37.85,1.14.87,1.23.03.15.02.3-.06.44-.06.19-.92-.43-1.14-.56-.65-.38-1.11-.52-1.63-.39-.15-.1-.29-.22-.43-.37-.42-.46-.72-1.16-.82-1.97-.1-.61-.02-1.19.14-1.67.06-.19.15-.36.25-.51.12-.18.26-.31.45-.35.35-.11.72.09,1.05.41.27.27.54.6.73,1ZM35.76,42.62l2.11-1.15c.55,0,1.18.04,1.92.06.39,2.52.83,5.43-.99,7.97-.89,1.24-2.03,2.45-3.43,3.66,0-.01,0-.02,0-.02,0,0-.76.3-1.76,1.32l-.44.11c-.14.04-.29-.01-.38-.13-.09-.11-.11-.27-.04-.4l1.68-3.29,3.45-5.75c-2.48,2.63-6.66,8.87-6.66,8.87-.4.44-.83,0-.95-.31,1.14-1.71,3.06-4.84,4.81-8.88.31-.73.54-1.41.68-2.05Zm64.88,79.51c.03-.29.04-.53.03-.71-.02-.3-.1-.5-.18-.61-.05-.07-.1-.14-.15-.21.02-.07.05-.15.07-.22.09.22.22.43.39.62.24.26.52.44.83.55-.33.14-.67.33-.99.58Zm-10.13-107.7c-.43-.25-1.81-1.07-3.07-1.76-.14-.08-.29-.16-.43-.23.03-.1.09-.33.11-.69,0-.15.01-.29-.03-.45-.01-.06-.04-.11-.07-.16-.05-.09-.11-.15-.18-.23-.34-.36-.62-.57-.65-.56-.03,0-.15.45-.18.79,0,.09-.01.18,0,.27,0,.06.02.12.05.17.07.15.16.27.26.38.08.09.15.16.21.22-.46-.23-.89-.42-1.23-.55-.51-.18-1.1-.37-1.76-.52-.47-.11-.97-.19-1.47-.27-.01-.15-.04-.33-.09-.56-.04-.17-.08-.34-.16-.52-.03-.06-.07-.12-.12-.18-.08-.09-.16-.16-.24-.24-.25-.21-.43-.33-.58-.43-.1-.07-.21-.14-.23-.12-.03.01-.02.11-.02.16,0,.15,0,.4.08.77.02.11.04.21.08.32.03.07.06.13.1.19.11.16.25.29.38.41.04.03.08.07.11.1-.79-.1-1.57-.17-2.27-.22-1.53-.12-2.67-.13-2.67-.13-.03,0-.06.02-.06.04,0,.03.02.05.05.06l5.53,1.31c-.07.01-.14.02-.21.04-.21.05-.42.1-.63.19-.08.04-.15.08-.22.13-.11.08-.2.16-.29.25-.3.31-.48.55-.58.68-.03.04-.09.13-.08.15.02.02.15.02.18.01.18-.02.49-.03.93-.11.13-.02.25-.05.39-.1.08-.03.16-.06.23-.11.19-.12.35-.26.5-.4.23-.22.41-.42.52-.57l2.33.55c.56.15,1.34.44,2.13.74.57.22,1.14.44,1.64.64-.02,0-.06,0-.09,0-.15.02-.39.02-.75.11-.17.04-.33.09-.49.17-.06.03-.11.07-.16.12-.08.07-.14.15-.19.24-.21.3-.29.5-.36.63-.02.04-.03.06-.03.07,0,.02-.03.06-.02.08.02.02.13.01.16.01.15-.01.39-.02.76-.1.1-.02.2-.04.3-.09.06-.02.12-.05.17-.1.14-.11.24-.24.34-.37.32-.42.43-.73.43-.73,0,.01,0,0,0,0,.66.26,1.3.5,1.57.61,0,.02-.02.04-.03.07-.42.02-.94.1-1.2.36-.01.03-.03.06-.04.09-.79-.11-1.61.24-2.05.97-.16.27-.25.55-.29.85-.3.1-.6.16-.88.19-.29.03-.57,0-.82-.06-.19-.05-.36-.14-.47-.28-.15-.17-.2-.39-.19-.63,0-.2.04-.41.11-.62.06-.18-.04-.96-.06-1.12-.06-.43-.37-.75-.94-.94-.25-.05-.48-.06-.7,0-.29.08-.55.24-.76.47-.1.12-.2.24-.28.37-.02,0-.04-.01-.05-.02-.19.18-.4.35-.65.5-.54.35-1.15.5-1.71.52-.51.02-1.16-.14-1.44-.5-.29-.31-.44-1.06-.44-1.28.03-1.32-.34-1.79-.77-1.91-.47.1-.46.29-1.04.2-.66-.08-1.23-.33-1.69-.62-.41-.26-.71-.58-.69-.95,0-.19.09-.37.24-.52.13-.13.27-.25.45-.35.45-.25,1.02-.44,1.67-.47.86-.06,1.63.09,2.21.42.15.08.8-.35.78-.65-.03-.38.26-1.22.53-1.39.13-.09.73.06.91.07.16.01.33.04.5.1.44.16.91.42,1.3.83.31.3.55.62.72.94.03,0,.19.55.3.77.21.45.62.64,1.08.62.45-.1.78-.4.85-.89,0-.03.19-1.12.24-1.38.04-.2.13-.37.28-.47.15-.11.35-.13.56-.1.28.03.58.11.89.26.59.27,1.2.69,1.74,1.28.72.74,1.28,1.54,1.36,2.27.12,1.19.48,2.06.74,2.56-.09.1-.16.2-.23.32Zm28.96,79.52c-.1.04-.23.08-.35.13-.32-.43-.74-.73-1.23-.87-.16-.03-.32-.05-.49-.05.29-.53.66-1.22.99-1.91.07-.14.13-.28.2-.42.1.02.34.07.69.08.15,0,.29,0,.44-.04.06-.02.11-.04.16-.07.08-.05.15-.11.21-.17.33-.33.51-.61.5-.63-.01-.03-.46-.12-.8-.14-.09,0-.17,0-.27,0-.06,0-.11.02-.17.05-.14.07-.25.16-.36.26-.08.08-.15.15-.21.21.19-.44.35-.85.45-1.18.14-.48.28-1.05.38-1.67.07-.45.12-.92.15-1.39.14-.02.33-.05.55-.1.17-.04.34-.09.5-.17.06-.03.12-.08.17-.12.09-.08.15-.15.22-.24.19-.24.5-.76.48-.79-.01-.02-.55.01-.92.09-.11.02-.2.05-.31.09-.06.03-.13.06-.18.1-.15.11-.27.24-.38.37-.03.04-.06.07-.09.11.04-.75.04-1.48.04-2.15-.01-1.45-.08-2.52-.08-2.52,0-.03-.02-.05-.05-.05-.03,0-.05.02-.05.05l-.85,5.25c-.02-.06-.04-.13-.06-.19-.06-.19-.13-.39-.24-.58-.04-.07-.09-.14-.15-.2-.09-.1-.18-.18-.28-.26-.33-.27-.86-.61-.88-.6-.02.02.07.64.19,1.05.03.12.07.24.13.36.03.07.07.15.12.21.13.18.28.32.44.45.24.21.45.37.61.47l-.36,2.21c-.1.53-.33,1.27-.56,2.04-.13.41-.5,1.54-.71,2.18-.11.02-.22.04-.32.07.06-.11.11-.23.14-.36.32-1.09-.3-2.23-1.39-2.56-.51-.15-1.04-.09-1.49.12-.05-.15-.09-.31-.12-.46-.06-.28-.05-.54,0-.77.03-.18.11-.34.24-.46.15-.15.37-.2.61-.2.2,0,.41.02.62.08.18.05.95-.07,1.11-.1.42-.07.72-.37.86-.92.03-.23.02-.46-.06-.66-.1-.27-.28-.51-.52-.69-.12-.09-.38-.28-.37-.3-.19-.17-.38-.37-.54-.59-.39-.5-.59-1.06-.66-1.59-.06-.48.05-1.1.38-1.38.28-.28,1.02-.46,1.24-.46,1.32-.02,1.76-.39,1.83-.8-.14-.44-.32-.42-.28-.97.03-.62.23-1.17.48-1.62.23-.4.52-.69.89-.69.19-.01.37.07.53.21.14.11.27.25.39.42.28.42.52.94.6,1.56.13.81.04,1.54-.24,2.1-.07.14.42.74.7.71.38-.04,1.23.2,1.42.45.11.12,0,.69,0,.86,0,.15-.01.31-.06.48-.12.42-.34.87-.72,1.26-.27.3-.57.54-.88.72,0,.03-.53.2-.74.31-.43.21-.58.61-.53,1.04.14.42.46.72.96.76.03,0,1.13.14,1.39.18.2.03.38.11.49.25.12.14.15.32.15.52,0,.26-.07.55-.18.84-.22.56-.59,1.16-1.13,1.69-.13.13-.26.26-.39.38-.86-.03-1.67.48-1.99,1.3Zm-3.83-43.57c.09.15.22.42.47.76.07.1.15.2.24.3.06.06.12.12.19.16.18.12.37.21.56.29.3.12.55.2.73.24l.39,2.21c.08.53.11,1.31.14,2.11.02.57.03,1.14.04,1.65,0-.02-.02-.05-.03-.08-.07-.12-.17-.33-.39-.61-.1-.13-.21-.25-.35-.36-.05-.04-.11-.07-.17-.09-.1-.04-.19-.06-.29-.08-.36-.07-.87-.09-.88-.07-.01.02.22.48.44.77.06.08.12.16.2.23.05.04.1.09.16.12.16.08.32.13.47.16.51.12.85.11.85.11-.01,0,0,0,0,0,.01.87.02,1.52.02,1.52,0,.03.02.05.05.06.03,0,.05-.02.06-.05,0,0,.32-1.63.51-3.23.02-.15.03-.31.05-.46.1-.01.34-.04.68-.16.14-.05.28-.1.4-.19.05-.03.09-.08.12-.12.06-.08.1-.15.14-.23.2-.42.29-.74.27-.76-.02-.02-.48.04-.8.13-.09.03-.17.05-.26.1-.05.03-.1.06-.14.1-.11.11-.18.24-.25.37-.05.1-.09.19-.13.26.03-.48.05-.92.04-1.26-.03-.5-.08-1.09-.2-1.7-.08-.44-.19-.91-.32-1.37.13-.06.29-.15.48-.27.14-.09.29-.19.42-.33.05-.05.09-.11.12-.17.06-.1.09-.19.13-.3.1-.29.14-.49.17-.66.02-.11.05-.23.02-.24-.02-.02-.11.02-.15.04-.14.06-.36.15-.69.34-.09.06-.18.11-.26.19-.05.05-.1.1-.14.15-.1.15-.17.32-.23.48-.02.05-.03.09-.05.13-.21-.72-.45-1.41-.67-2.04-.49-1.37-.91-2.35-.91-2.35,0-.03-.04-.04-.06-.03-.03,0-.04.04-.03.06l.92,5.24c-.04-.05-.08-.11-.12-.16-.12-.16-.25-.33-.42-.47-.06-.06-.13-.1-.21-.14-.12-.07-.23-.11-.35-.16-.4-.15-.69-.21-.86-.26-.05-.01-.16-.03-.17-.01-.02.02.04.13.06.16Zm5.09,8.44c-.16.13-.33.28-.44.39-.14.13-.27.27-.4.41-.32-.08-.65-.09-.97-.03-.37.1-.72.29-1,.56,0-.13-.01-.25-.03-.38-.19-1.08-1.19-1.81-2.27-1.68-.57-.36-.98-.83-1.26-1.31-.14-.24-.22-.49-.26-.73-.03-.18,0-.36.08-.51.1-.19.28-.31.51-.39.19-.07.39-.11.62-.13.19-.01.87-.38,1.02-.46.38-.2.56-.59.51-1.15-.05-.23-.13-.44-.27-.6-.19-.22-.43-.39-.72-.48-.15-.05-.45-.14-.45-.16-.24-.1-.48-.22-.71-.38-.54-.34-.91-.81-1.14-1.28-.22-.44-.31-1.05-.1-1.42.17-.36.81-.77,1.02-.84,1.24-.45,1.53-.94,1.47-1.36-.28-.37-.45-.29-.59-.82-.18-.6-.17-1.18-.08-1.68.08-.45.27-.82.61-.94.18-.07.38-.05.57.02.17.06.34.15.5.26.41.3.8.72,1.08,1.27.39.72.55,1.44.47,2.06-.02.16.64.57.9.44.34-.16,1.23-.22,1.49-.04.14.08.23.65.29.81.05.14.09.3.1.47.03.44-.04.94-.26,1.42-.16.37-.36.7-.6.97,0,.03-.43.36-.6.53-.33.34-.35.77-.16,1.16.27.35.67.53,1.16.41.03,0,1.11-.24,1.37-.29.2-.04.39-.02.54.07.16.09.25.25.31.45.08.25.12.54.1.86-.03.6-.18,1.29-.51,1.96-.19.42-.42.82-.66,1.16-.61.24-1.06.76-1.23,1.38Zm-78.7-19.59c-.24.17-.49.35-.74.52-.01-.05-.02-.09-.03-.13l.09-.05c.23-.11.46-.22.69-.34Zm28.44-31.6c.41.39.62.86.97,1.47-.22.85-.45,1.56-.8,2.24-.7.28-1.2.91-1.25,1.68-.35.36-.77.72-1.28,1.12-.45-.05-.95-.07-1.49-.06,3.65-2.08,3.87-5.46,3.85-6.45Zm-1.27-4.87c.42-.03.84-.04,1.25-.05-.87,1.06-.99,2.26-2.89,3.65,1.07.27,1.78.53,2.27.81-.71-.19-1.98-.46-3.49-.49,1.44-1.53,2.42-3.14,2.86-3.92Z"/>
  <path class="cls-3" d="m75.96,103.19c.3.17.47.37.47.61,0,.79-1.9,1.62-4.23,1.86-2.34.24-4.23-.21-4.23-1,0-.71,1.53-1.46,3.54-1.77-.26-.29-.42-.64-.42-1.02,0-1.19,1.42-2.3,3.18-2.48,1.75-.18,3.18.64,3.18,1.83,0,.77-.59,1.5-1.48,1.97Z"/>
  <path class="cls-2" d="m34.98,118.25l-1.93-1.95c-.05-.08-.13-.13-.23-.15-.11-.02-.22,0-.3.08-.32.27-.5.46-.61.59-.08.1-.1.23-.06.35l.46,1.27s.01.08,0,.12c-.02.04-.05.06-.09.07-.01,0-.86.23-1.67-.02-.35-.11-.69-.3-.95-.62-.38-.45-.55-.8-.62-1.16-.1-.49-.03-1.01-.05-1.91,0-.48.14-.9.35-1.25.38-.62.96-1.03,1.24-1.21.06-.04.11-.1.14-.17.06-.15.19-.4.45-.78.21-.27.39-.48.52-.65.08-.1.1-.24.05-.36-.04-.09-.11-.16-.2-.19-.02-.03-.03-.05-.05-.08-.09-.14-.12-.28-.1-.51.02-.21.09-.48.2-.84.07-.23.18-.5.28-.82.08-.22.34-.53.72-.91.63-.65,1.57-1.47,2.68-2.35,3.03-2.41,7.25-5.33,8.88-6.42.66-.44,1.32-1.19,1.95-2.06.28-.39.55-.8.81-1.22.08-.13.07-.29-.03-.41-.09-.12-.25-.16-.39-.11-.05.02-.09.03-.15.05-.58.15-1.51.12-2.97-.09-1.44-.23-2.62-.87-3.54-1.61-.63-.51-1.15-1.06-1.52-1.56-.07-.09-.14-.18-.2-.27-.07-.09-.17-.15-.29-.14-.11,0-.22.06-.29.15-.03.04-.07.08-.11.11-.03.02-4.37,2.93-9.24,3.02-2.53.05-4.46-.65-5.71-2-1.25-1.35-1.85-3.38-1.66-6.09.11-1.59.99-3.58,2.33-5.72,3.06-4.84,8.53-10.43,12.33-13.54,5.4-4.42,19.87-16.41,28.85-22.8,8.96-6.37,21.11-14.8,23.71-17.18,2.1-1.93,6.47-5.28,8.65-6.4.43-.22.78-.36,1.03-.4.18-.03.32-.02.43,0,.44.12.9.17,1.19.29.23.1.39.24.48.43.08.17.11.37.03.64-.07.24-.24.57-.59,1-.18.23-.87.82-1.92,1.65-.05.04-.09.09-.11.15-.16.42-.34.89-.53,1.38-.28.72-.58,1.49-.89,2.25-.26.64-.52,1.27-.76,1.84-.3.7-.6,1.31-.78,1.82-.27.69-.51,1.34-.75,1.93-.29.73-.54,1.36-.74,1.84-.06.15-.01.32.11.42s.3.1.43,0c5.93-4.52,11.31-8.57,15.5-11.66,4.2-3.1,7.21-5.25,8.41-5.96.29-.17.5-.27.6-.3.1-.03.18-.03.23-.02.98.14,1.58.78,1.72,1.48.11.59-.09,1.26-.73,1.74-.12.09-.17.25-.12.4.02.06.06.11.1.15l.21.18c-.07.14-.35.64-.86,1.38-.22.32-.04.7.08.82.17.16.34.13.44.08.02.05.03.11.05.17.04.2-.03.59-.28,1.32-.11.29-.21.56-.33.83-.4.89-.94,1.75-2.01,3.02-.59.7-1.34,1.52-2.33,2.53-.02.02-.04.05-.06.07-.12.22-.28.54-.52.94-.21.35-.47.77-.78,1.23-.12.18-.25.36-.38.55-.98,1.37-2.3,3.06-3.76,4.85-2,2.47-4.31,5.1-6.54,7.25-2.32,2.22-6.03,4.96-9.71,7.47-.05.03-.09.08-.12.13-.15.3-.65,1.24-.76,1.44-.02.04-.04.08-.04.13-.02.14-.04.35-.13.63-.05.15-.12.31-.2.48-.57,1.21-1.51,2.96-1.85,4.12-.07.25-.12.46-.14.64,0,.05,0,.13,0,.16,0,.1.05.18.12.25.17.15.42.21.71.23.35.02.74-.04,1.09-.1.05,0,.09-.02.13-.05.26-.16.52-.33.79-.49,8.53-5.33,17.83-11.09,17.83-11.09.05-.03.12-.03.16,0,.05.04.07.1.05.15l.34.44-.34-.44s-.02.06-.05.14c-.04.12-.02.25.06.35.01.02.03.03.05.05.06.1.12.2.15.31.02.06.03.12.02.18,0,.06-.01.12-.03.18-.01.05-.03.09-.04.13,0,.01,0,.03-.01.04-.05.23-.16.72-.36,1.38-.14.44-.31.94-.54,1.49-.26.6-.59,1.23-.97,1.88-.85,1.44-2,2.92-3.43,4.07-1.3,1.04-4.14,2.9-7.35,4.9-.11.07-.17.18-.17.31,0,.02,0,.04,0,.06-.07.08-.1.18-.08.28-.11.19-.28.48-.54.82-.15.2-.34.42-.56.64-.94.98-2.36,2.15-3.96,3.23-.5.33-1.06.7-1.64,1.07-.04.03-.07.06-.1.1-.04.05-.07.11-.11.16-.12.17-.26.35-.4.55-.17.19-.32.37-.47.54-.08.09-.16.18-.24.27-.02.02-.03.04-.04.06-.38.65-1.34,1.91-1.94,3.07-.26.51-.28.69-.29.85,0,.11.02.2-.08.48-.05.13-.3.48-.65.92-.88,1.15-2.38,2.9-3.19,3.66-.17.16-.17.32-.16.4.02.13.11.3.38.32.13.01.44-.04.75-.09.11-.02.26-.03.37-.03-.34,2.01-1.66,2.77-3.27,4.04-.15.12-.16.25-.14.36.01.08.09.26.34.32.11.03.38.07.6.1-1.18,2.07-2.58,3.53-4.1,4.13-.84.33-1.47.89-2.02,1.45-.5.52-.94,1.04-1.44,1.38-.61.41-1.09.81-1.38,1.18-.13.17-.23.32-.28.46-.05.16-.05.31.01.46.01.03.03.06.06.09l2.37,2.69s.04.08.03.13c-.02.04-.05.08-.1.09l-2.78.53c-.14.03-.26.14-.28.29-.03.14.04.29.17.37l2.42,1.46c-.36.13-.91.29-1.3.23-.54-.09-1.15-.17-1.75-.22-.85-.07-1.69-.08-2.26.08-1.01.27-1.08,1.11-1.19,1.52-.04.14-.09.25-.15.3-.04.03-.08.06-.14.06-.08,0-.17-.04-.28-.14-.46-.39-.92-1.14-1.3-1.97-.42-.9-.76-1.87-.98-2.52-.04-.11-.13-.2-.24-.23-.12-.03-.24,0-.33.08-.99.88-3.21,2.74-6.35,4.71-2.17,1.36-4.78,2.77-7.73,3.96-4.57,1.84-6.15,2.25-7.23,2.7-.57.23-.99.47-1.65.93-1.07.72-2.31,1.62-3.38,2.48-.87.7-1.61,1.37-2.03,1.93-.34.45-.59.73-.77.9-.16.14-.31.22-.35.24Z"/>
  <path class="cls-6" d="m75.79,81.16c1.01-.58,2.94-1.27,4.77-1.43.2,1.13-1.23,3.15-2.37,4.14.62-.99,1.2-1.98,1.22-3.08-.53-.27-1.85-.09-3.61.37Zm-2.37,4.56c1.01-.58,2.94-1.27,4.77-1.43.2,1.13-1.23,3.15-2.37,4.14.62-.99,1.2-1.98,1.22-3.08-.53-.27-1.85-.09-3.61.37Zm-4.87-23.72c-.13.27-.28.54-.44.82.25-.16.52-.34.82-.53.66-.43,1.43-.93,2.26-1.44.59-.36,1.21-.72,1.83-1.09.93-.55,1.86-1.12,2.71-1.67.8-.52,1.54-1.03,2.13-1.5.96-.76,1.74-1.74,2.39-2.73.64-.98,1.13-1.99,1.52-2.84l-13.22,10.99Zm-13.04,10.83c.12.22.11.44.1.57-.02.19-.1.33-.2.43l.03-.02s-.47.58-1.18,1.27c-.31.3-.64.81-1.03,1.11-.09.07.94-.6,1.12-.66,1.54-.51,3.89-2.78,4.17-3.51.26-.66-1.03-.29-2.1.04l-.92.77Zm-5.6,12.83c.76,0,1.56-.03,2.12.39.16.12,2.23-1.38,2-1.7-.39-.55-4.02.24-5.46,1l.66.07.68.23Zm3.04-8.48c.09.04.14.08.17.1.77.52.16,1.05.16,1.05,0,0-.64.78-1.03,1.2-.14.16-.22.16.1.1.59-.12,1.66-.12,2.14-.2,1.67-1.54,2.45-3.02,2.49-3.61-1.63.04-3.87,1.31-4.03,1.36Zm2.77,13.89c.35-.01.71,0,1.06.01.13,1.08-1.23,2.73-2.39,3.6,1.12-.42,3.14-.81,4.95-.69-.04.93-1.25,2.27-2.42,3.18,1.16-.17,2.88-.16,4.36.23-.06.25-.2.51-.4.78.36-.3.71-.6,1.02-.93-.04,0-.02-.03.04-.04.4-.42.74-.89.97-1.42-.34-.42-1.46-.66-3.05-.8v-.08c.76-.82,1.45-1.67,1.69-2.68-.42-.32-1.58-.36-3.18-.22-.13.01-.54.13-.61.18.46-.6.9-1.21,1.16-1.88-.33,0-.65-.05-.95-.13-.35-.09-.66-.23-.93-.38-.14-.08-.26-.15-.38-.23-.1.03-.21.05-.31.06-.15,0-.3,0-.44.01l.43.47-.63.94Zm-.2-5.5c1.95-.71,3.53-1.93,3.46-2.18-.15-.56-2.06-1.34-3.74-1.16-.22.26-.45.51-.66.74-.14.13-.27.25-.43.33-.04.02-.07.04-.1.05.43.1,1.25.63,1.19.98-.02.16-.72.88-1.14,1.31,0,0,0,0-.01.01.42-.06.82-.07,1.14-.09.09,0,.2,0,.3.01Zm-8.92-.44c2.25-1.21,4.7-2.81,4.14-3.13-1.06-.34-2.72-.35-4.65-.22-1.07,1.43-1.47,2.44-1.37,3.14l1.88.21Zm13.23-15.88s-.02.06-.03.09c-.1.23-.19.45-.31.65-.09.14-.17.27-.28.39-.16.18-.29.3-.44.42,0,0-.02.02-.03.02.28.03.45.12.56.19.19.13.29.28.34.42.11-.08.24-.17.4-.28.12-.07.24-.14.39-.22.41-.16.91-.27,1.41-.33,1.04-.12,2.06-.02,2.06-.02.24.02.44.16.55.35.2-.11.41-.22.64-.35.52-.28,1.11-.59,1.77-.92.38-.19.78-.39,1.19-.58.96-.45,1.99-.9,3.02-1.36,1.59-.72,3.18-1.43,4.49-2.07,1.35-.66,2.42-1.22,2.84-1.6.53-.47.99-1.1,1.4-1.73.27-.41.51-.81.73-1.19.32-.56.58-1.05.75-1.39l-.24.03c-.32.37-.66.7-1.02.96-.93.69-2.86,1.84-5.03,3.01-1.12.6-2.29,1.22-3.42,1.78-.6.29-1.19.56-1.75.81-.64.28-1.24.53-1.78.75-1.45.58-2.41.93-2.41.93-.08.04-.17,0-.21-.07-.04-.08,0-.17.07-.21,0,0,.79-.52,2.03-1.3.6-.38,1.29-.81,2.05-1.26.46-.28.95-.56,1.45-.84.48-.27.97-.54,1.47-.81,2.75-1.5,5.54-3.02,6.7-3.88.82-.6,1.54-1.6,2.18-2.65.59-.99,1.09-2.05,1.49-2.91.21-.44.39-.84.53-1.16l-1.34.45c-.06.12-.12.24-.18.35-.75,1.44-1.8,2.9-3.14,4-1.43,1.14-3.61,2.51-5.74,3.67-.48.26-.97.52-1.44.75-.33.16-.66.31-.98.46-.69.3-1.32.56-1.87.78-.5.2-.93.36-1.25.48-.38.55-.81,1.05-1.28,1.45-.52.45-1.22.89-1.95,1.28.05.01.08.02.11.03.51.16.52.48.52.48,0,0,.15,1.02-.19,1.79-.38.86-2.59,1.67-2.61,1.61-.04-.08,0-.17.08-.21,0,0,3.18-1.59,1.88-2.83-.29-.28-2.08.48-3.19.98l-1.01.84Zm-.22,2.93c-.07.17-1.4,1.74-1.65,2.12.15-.05,2.39-.45,2.74-.48.26-.02.5-.03.71-.03,0,0,.02-.01.03-.02,1.19-.76,2.22-1.52,2.34-2.35-2.22-.04-3.11.38-4.15.75Zm6.81,12.67c.88-.15,1.85-.23,2.78-.18.71-.78,1.34-1.59,1.56-2.54-.23-.17-.67-.26-1.27-.29-.05.03-.09.07-.14.1-.63.44-1.27.85-1.87,1.17-.06.26-.17.55-.31.87,0,0-.02.03-.04.06-.07.09-.21.29-.44.53-.08.09-.17.18-.26.27Zm-14.49-3.1c.23.19-.47,1.27-.64,1.44,1.17-.11,3.83-1.62,3.94-2.51.46-.76-4.23-.34-4.91.31-.03.02-.06.02-.1.03.71.16,1.52.58,1.7.73Zm1.1,17.5c-.44.99-1.67,2.18-2.73,2.9.96-.14,2.29-.15,3.56.06.07-.01.14-.03.22-.04.76-.82,1.45-1.67,1.69-2.68-.38-.29-1.37-.35-2.74-.25Zm7.54-19.94c-1.34-.24-2.46-.48-5.16.26-.02.01-.04.02-.06.03.01,0,.03,0,.04.01.41.14.61.31.7.4.65.61.12.99.12.99,0,0-.24.33-.58.75.22-.04.52-.09.86-.12.28-.02.57,0,.89.02.14.02.27.05.41.08,1.5-.67,1.95-1.59,2.77-2.42Zm5.87,8.9c.92-.13,2.2-.15,3.43.04.92-.75,1.81-1.52,2.25-2.57-.32-.4-1.35-.64-2.82-.78-.24,1.05-1.66,2.48-2.87,3.3Zm-5.42-8.12c-.5.71-1.33,1.49-2.48,1.91.84.35,1.49.86,1.49.86.15.12.25.29.27.48.22-.03.49-.07.8-.12.41-.06.88-.14,1.38-.22.24-.04.48-.08.73-.12.36-.05.72-.11,1.07-.17.64-.12,1.27-.26,1.78-.48.74-.3,1.62-.85,2.48-1.44.88-.59,1.73-1.23,2.39-1.73-.08,0-.16-.01-.24-.02-.37-.04-.71-.08-.94-.1-.76.24-1.53.44-2.29.61-.41.09-.82.18-1.22.24-.42.07-.84.13-1.23.17-.69.07-1.32.1-1.86.12-1.15.03-2.07,0-2.14.01Zm2.93,14.95c.14.03.27.06.41.1-.15.63-.82,1.35-1.62,1.99,1-.09,2.26-.05,3.42.2.8-.67,1.54-1.38,1.93-2.3-.31-.39-1.3-.62-2.71-.77-.49.32-.99.6-1.43.79Zm-4.81-7.63c.02.19-.03.38-.15.53,0,0-.37.49-.94.94.18.02.36.03.55.04.48.02.99,0,1.5-.19.49-.17.92-.38,1.29-.6.52-.3.91-.62,1.2-.86-.81.24-1.68.33-2.49.28-.26-.02-.51-.05-.75-.1-.07-.01-.14-.03-.21-.04Zm-8.51-10.5s.93.04.95.04c.23,0,2.35-2.19,2.5-2.91l-3.45,2.87Zm13.94-5.29c-.03.22-.11.53-.35.95-.12.19-.31.43-.58.65-.12.09-.25.19-.4.27-.27.15-.53.26-.8.35-.05.02-.11.04-.16.05.04,0,.09.02.13.02.49.11.72.28.82.36.12.1.21.19.27.27.31-.12.77-.28,1.34-.49.52-.18,1.12-.4,1.78-.61.67-.21,1.41-.42,2.15-.64,1.08-.32,2.18-.64,3.2-.99,1.48-.51,2.77-1.04,3.39-1.59.57-.5,1.03-1.06,1.42-1.58.36-.49.65-.95.88-1.37.25-.43.43-.79.56-1.05l-.64.02s-.04,0-.06,0c-.17.09-.35.19-.54.29-1.49.79-3.49,1.72-5.51,2.59-.81.35-1.61.7-2.4,1.01-.56.22-1.1.42-1.62.6-.76.26-1.46.48-2.07.66-.3.09-.57.17-.81.24Zm-4.55,23.29c1.05-.15,2.56-.16,3.93.13.33-.27.95-.87,1.03-.88.54-.51,1-1.06,1.28-1.73-.33-.41-1.42-.65-2.96-.79-.19.14-.38.27-.56.38-.45.99-1.67,2.17-2.72,2.89Zm12.47-15.45c-.16.15-.36.32-.59.52-.45.39-1.03.86-1.65,1.33.62-.06,1.27-.08,1.88-.04-.05,1.03-1.52,2.56-2.79,3.46,0,.02,0,.04,0,.06,1.15-.15,2.81-.13,4.24.25-.02.1-.06.21-.11.31.76-.79,1.45-1.61,1.79-2.6-.36-.37-1.48-.44-3.05-.34v-.08c.7-.94,1.35-1.89,1.52-2.94-.17-.1-.46-.14-.84-.13l-.39.21Zm.47,11.21c.44-.65.78-1.33.83-2.1-.49-.33-1.72-.36-3.38-.2.13.03.26.06.39.09-.27,1.12-2.16,2.54-3.56,3.2.12.02.23.05.34.08,1.08-.39,2.92-.73,4.63-.62,0,.02,0,.03,0,.05.25-.23.5-.4.74-.49Zm-22.68,8.15c.74-.12,1.54-.2,2.33-.2.41-.62.71-1.27.76-2.01-.14-.1-.35-.17-.61-.22l-2.48,2.42Zm24.52-26.64c-.32.16-.68.32-1.06.48-1.15.47-2.53.92-3.91,1.3-.67.18-1.33.36-1.98.5-.46.1-.91.18-1.34.24-.63.09-1.2.16-1.69.2-.51.05-.93.08-1.23.1-.04.1-.12.15-.12.15,0,0-.25.6-.73,1.24-.28.37-.63.75-1.05,1.05-.21.14-.45.29-.7.4-.16.07-.32.13-.48.17-.23.06-.44.11-.65.15.44.07.74.17.9.22.88.3.54.92.54.92,0,0-.06.19-.17.45.03,0,1.06-.25,2.2-.56.6-.16,1.29-.36,2.06-.56.52-.14,1.08-.26,1.64-.41.8-.2,1.62-.43,2.42-.68,1.18-.38,2.32-.82,3.24-1.36,1.14-.65,1.99-1.33,2.62-1.95.45-.44.79-.85,1.06-1.21.2-.26.35-.49.47-.68v-.2s-.9-.11-.9-.11l-1.16.13Zm-15.1,18.11c-.47.68-1.13,1.34-1.73,1.79,1.12-.42,3.14-.81,4.95-.69,0,.18-.06.38-.15.58l.36-.4c.65-.73,1.21-1.49,1.41-2.37-.3-.23-.95-.31-1.87-.29-.07.05-.14.11-.21.16-.5.37-1.13.73-1.88,1.01-.29.1-.59.17-.88.21Zm-13.26-9.26c3.05-1.12,5.47-2.33,5.85-3.11-.59-.27-1.56-.31-2.56-.25l-2.86,2.38-.43.99Zm11.09-5.85c.2.14.27.33.3.49.03.17-.02.36-.1.51,0,0,0,.01,0,.02-.06.2-.19.62-.5,1.21-.18.34-.42.73-.72,1.19-.01.02-.03.03-.04.05.18-.1.43-.21.75-.33.19-.07.38-.12.61-.16.2-.04.41-.04.63-.06,0,0,.02,0,.03,0,.02-.05.05-.08.1-.1,0,0,4.1-2.28,4.05-3.03-.04-.68-4.22.16-4.38.15-.21-.02-.65.03-.71.07Zm5.66,13.28c.87-.13,1.82-.2,2.72-.15-.04.94-1.27,2.29-2.44,3.2,1.01-.13,2.4-.14,3.69.12.9-.73,1.75-1.49,2.18-2.51-.34-.42-1.46-.66-3.05-.8v-.08c.76-.82,1.45-1.67,1.69-2.68-.31-.24-1.01-.32-2-.29-.18.16-.39.33-.61.5-.45.35-.98.69-1.56,1,.14.1.22.27.2.46-.01.09-.11.29-.14.33-.06.12-.2.36-.45.65-.07.08-.15.17-.24.26Zm-7.94.47c1.07-.3,3.28-1.37,2.8-1.56-.79-.32-3.41-.81-4.47-.55-.14.03-.24.03-.24.03l1.9,2.08Zm4.93-5.08c-.05.07-.12.13-.19.18,0,0-.77.51-1.66,1.01-.24.14-.49.28-.74.39-.32.14-.61.24-.89.32-.06.02-.12.04-.19.06.11.03.26.02.32.11.96,1.39,9.26.03,8.68-1.97-.01-.04-.08-.02-.12-.03-.17.04-.35.07-.53.1-.57.09-1.17.15-1.74.15-.62,0-1.21-.06-1.72-.12-.5-.06-.92-.14-1.21-.2Zm10.61,9.09c.11-.31.19-.62.21-.96-.48-.33-1.67-.36-3.29-.21-.19.74-1.07,1.6-2.05,2.29,1.12-.1,2.6-.06,3.89.28-.25,1.02-1.85,2.3-3.19,3.01.07.02.14.03.2.05-.28,1.18-2.36,2.69-3.77,3.29.95-.77,1.87-1.55,2.32-2.62-.31-.38-1.26-.61-2.63-.76-.57.42-1.19.79-1.73,1.03-.4.48-.96.97-1.56,1.39,1.11-.09,2.54-.04,3.79.29-.28,1.18-2.36,2.69-3.77,3.29.95-.77,1.87-1.55,2.32-2.62-.31-.38-1.27-.62-2.64-.76-.48.31-.96.58-1.39.76.32-.26.64-.52.94-.8-.08,0-.03-.06.09-.08.54-.51,1.01-1.07,1.29-1.74-.34-.42-1.45-.66-3.04-.8-.23.17-.46.33-.67.46.15-.16.43-.5.46-.5.64-.73,1.2-1.48,1.41-2.36-.46-.35-1.78-.36-3.6-.18-.07.05-.13.09-.19.14.24-.31-.65.79-.65.79l-.09.09c.38-.01.76-.01,1.14.01.1.84-.68,2.01-1.58,2.9.07,0,.13,0,.2.01,0,.13-.03.27-.08.41,1.13-.29,2.64-.5,4.02-.41-.05,1.06-1.61,2.65-2.9,3.53,1.16-.16,2.87-.16,4.35.23-.28,1.18-2.36,2.69-3.77,3.29.95-.77,1.87-1.55,2.32-2.62-.34-.42-1.46-.66-3.05-.8h0c.19.04.38.08.56.13-.28,1.18-2.36,2.69-3.77,3.29.95-.77,1.87-1.55,2.32-2.62-.34-.42-1.46-.66-3.05-.8h-.07s.07-.08.07-.08c.76-.82,1.45-1.67,1.69-2.68-.31-.24-1.01-.32-1.99-.29l-.6.59-.89.66c.22,0,.37.05.4.2.03.14-.13,1.91-2.61,3.52.05,0,1.52-.46,1.52-.46.3-.04.65-.09.78.25.08.21-.51,1.63-2.98,3.16.39-.02,2.48-.52,2.72-.45.11.03.21.09.28.18.02.02.12.19.13.25.08.23.21.72-.07,1.27-.19.36-.55.79-1.33,1.13-.49.21-1.04.46-1.57.72-.02,0-2.66.97-2.71.98.39-.27,1.46-1.01,2.31-1.55.52-.34,1.07-.67,1.56-.95.37-.21.58-.43.71-.63.07-.11.09-.22.1-.31-.17,0-.36.04-.58.07-.74.12-3.11.39-3.21.08-.1-.31,1.04-1.12,1.77-1.67.41-.31.83-.69,1.12-1.12.06-.09.11-.18.16-.26-.02,0-2.19.26-2.32-.06s1.08-1.39,1.78-2.02c.3-.27.59-.56.74-.82.08-.13.13-.26.18-.38-.22.06-.77.28-.85.31l-3.63,2.69-3.45,2.57-2.12,2.78-1.29,1.42-2.24.33s-2.44,2.67-2.87,3.76c-.42,1.09.46,2.36.46,2.36l-.88.47c-.41-.26-.82-.71-1.23-1.61-.17-.88-.07-1.64.18-2.34.31-.68.71-1.16,1.2-1.37l1.2-2.15c-.24-.25-.38-.54-.25-.95l.74-2.18,6.9-5.25s5.91-4.74,7.68-6.63c1.77-1.89,2.76-5.54,2.76-5.54l-.16-.9-5.96.9c-1.49.34-2.8.23-3.93-.35-1.69-1.52-3.33-3.09-3.27-4.7-.14-2.17.85-4.11,1.9-4.8,25.01-22.55,52.03-41.86,79.51-61.79.97-.47,1.64-.05,2.16.81,0,0-12.53,10.94-23.74,19.72l-12.71,10.56c-.09.43-.24,1.02-.47,1.7-.01.03-.02.06-.03.09.73-.56,2.02-1.56,3.21-2.52.57-.46,1.23-.97,1.95-1.51,5.3-3.99,13.9-10.21,19.72-14.73,2.85-2.21,5.05-3.99,5.88-4.85.85-.88,1.61-1.72,2.27-2.48.53-.61,1.45-1.68,1.86-2.17.05.15.08,1.15.11,1.2-.04.05-.16.2-.2.25-.86,1.08-2,2.4-3.37,3.85-1.61,1.7-8.37,6.91-15.15,11.97-3.96,2.95-7.89,5.9-10.86,7.98-.69.49-1.34.92-1.91,1.29-1.49.97-3.17,1.98-3.73,2.32-.08.2-.17.41-.27.62l1.65-.95c.15-.07.33-.04.46.07.13.11.18.29.13.45,0,0-.19.94-.64,2.2-.07.2-.15.42-.24.64.41-.34,1.01-.84,1.66-1.37.54-.44,1.18-.97,1.92-1.54,1.34-1.02,2.98-2.2,4.75-3.5,3.47-2.56,7.49-5.52,11.02-8.24,3.49-2.68,6.53-5.11,8.11-6.64.16-.15.31-.3.46-.44-.01.07-.1,1.45-.11,1.48-2.69,2.45-8.27,6.78-13.45,10.64-3.64,2.71-7.22,5.39-9.94,7.25-1.03.7-1.94,1.27-2.66,1.73-.91.57-1.74,1.1-2.04,1.29-.26.6-.57,1.23-.91,1.83-.29.52-.61,1.02-.94,1.48l.17-.07c.11-.03.23,0,.31.09.08.08.11.2.07.31,0,0-.07.38-.24.97.38-.27.83-.6,1.35-.96.53-.37,1.14-.79,1.8-1.22,1.9-1.25,4.24-2.75,6.6-4.35-.01.05-.52,1.52-.52,1.56,0,0,0,0,0,.01-2.08,1.39-4.09,2.7-5.78,3.72-.47.29-.92.54-1.35.78-.51.28-.97.52-1.37.74-.38.2-.7.36-.98.5-.13.37-.29.78-.49,1.2-.45.96-1.1,1.91-1.84,2.63-.16.15-.39.32-.68.52h.04c.11-.03.22,0,.29.08.08.08.11.19.08.3,0,0-.06.73-.42,1.76,0,.02-.02.05-.02.07.67-.54,1.56-1.23,1.74-1.35.94-.64,2.28-1.46,3.61-2.61,1-.86,2.02-1.87,2.92-3.03,1.12-1.43,2-2.59,2.71-3.47,0,.01,1.11-.59,1.1-.58-.04.08-1.78,5.13-1.78,5.13.52.77,1.31.75,2.21.43l19.19-11.49-.69,1.5s0,0,0,0c-.07-.07-.24-.08-.36-.08-.25,0-.53,0-.76.08-.12.19-.26.39-.43.61-.58.79-1.42,1.77-2.61,2.91-.78.75-2.49,2.01-4.64,3.51-4.14,2.89-9.94,6.63-14.15,9.37-.56.36-1.09.71-1.58,1.04-.74.5-1.39.96-1.94,1.35-.68.49-2.02,1.53-1.97,1.6.03.05,2.09-.96,3.48-1.75.43-.24.89-.52,1.37-.81,2.93-1.79,6.81-4.32,10.43-6.7,4.37-2.88,8.33-5.63,9.67-6.9,1.25-1.18,2.12-2.2,2.73-3.03.24-.32.44-.62.6-.88l-2.99,6.45-9.33,6.33-11.34,6.79c-.14,1.05-1.15,2.5-2.08,3.41h0c.2,1.13-1.23,3.15-2.37,4.14.62-.99,1.2-1.98,1.22-3.08-.53-.27-1.85-.09-3.61.37.98-.56,2.84-1.24,4.63-1.42.48-.77.9-1.55,1.02-2.38.02-.12.03-.23.03-.35l-2.33,1.4-1.16.61c-.74.84-1.74,1.65-2.53,2.13.48-.49.95-.98,1.34-1.5l-3.46,1.83c.82-.11,1.7-.14,2.52-.05-.22,1.22-2.19,3.05-3.56,3.87.9-.91,1.76-1.83,2.16-2.98-.27-.28-.97-.39-1.98-.38l-1.04.55c.14-.02.28-.03.42-.04,0,1.07-1.45,2.9-2.68,3.98,1.14-.34,2.83-.59,4.31-.42-.21,1.15-1.96,2.83-3.31,3.71-.63,1.03-2.23,2.17-3.43,2.7.12.02.24.04.36.06,1.07-.4,2.96-.76,4.72-.65.1.85-.71,2.05-1.62,2.94-.23.49.56,1.18,1.28,1.33-.39.25-2.86,1.96-3.3,4.62-.48,2.9.65,4.15.65,4.15l-2.37,1.19s-1.07.25-1.19-1.35c-.09-1.2.59-4.18,1.15-5.42.04-.09.22-.54.31-.67.22-.42.52-.97.87-1.51Zm-35.8-14.84c-.04.12-.07.24-.11.36-.07.24-.15.48-.24.71-.11.26-.23.48-.34.68.31-.14.64-.25.95-.37.61-.22,1.16-.4,1.44-.5,0-.1.96-1.64.57-1.85-.36-.19-2.23.96-2.27.95Zm3.68-7.17c-.98.85-1.92,1.66-2.8,2.44.64-.31,1.2-.52,1.2-.52.22-.1.48-.07.67.06.1-.09.25-.24.49-.43.18-.14.37-.29.62-.43.14-.08.3-.15.45-.21-.01-.15.04-.87.08-1.06,0-.02,0-.05.01-.07-.01,0-.03,0-.04.01-.22.07-.45.15-.68.2Zm53.46-42.38c-7.65,5.73-18.96,13.94-22.02,16.41-1.28,1.03-4.91,3.96-9.52,7.71l2.41-.85c.55-.43,1.28-1,2.17-1.7.95-.74,2.07-1.62,3.37-2.61.84-.64,1.76-1.31,2.74-2.03,1.27-.94,2.65-1.95,4.11-3.04,4.62-3.41,6.73-5.06,7.69-5.85.41-.34,3.17-2.65,5.58-4.53.66-.51,1.33-1.01,1.95-1.47,1.04-.77,1.95-1.42,2.48-1.8l-.96-.24Zm-55.82,47.94c0-.05,1.35-2.42.82-2.72-.62-.35-3.13,1.37-3.26,1.48-.38.35-1.43,1.21-1.77,1.52.24-.09.48-.18.71-.27.88-.32,1.64-.56,1.64-.56.25-.08.52-.03.71.15.19.18.27.44.2.69,0,0,0,.03-.02.09.04-.02.08-.04.12-.06.26-.12.54-.22.8-.32.02,0,.04-.01.06-.02Zm1.73-3.16c.03.1.03.21,0,.31,0,0-.13.62-.31,1.35-.04.15-.07.3-.11.45.18-.14.38-.28.61-.42.21-.12.45-.22.67-.33.44-.2.87-.37,1.17-.48,0-.08,1.48-2.08,1.01-2.28-.51-.21-2.98,1.39-3.05,1.39Zm22.1-20.3c-.08.02-13.17,10.81-19.34,16.08,0,0,0,0,0,0,.17.16.26.39.23.61.39-.31.88-.7,1.46-1.16.48-.38,1.01-.8,1.6-1.25.36-.28.73-.57,1.13-.86.54-.41,1.12-.82,1.71-1.25,2.15-1.56,4.52-3.28,6.57-4.95,1.41-1.13,2.68-2.23,3.81-3.22,1.32-1.17,2.42-2.22,3.3-3.04.44-.41.82-.76,1.13-1.05,0-.03,0-.07,0-.1l-1.61.19Zm-19.1,23.8s0,0,0,0c0,0,0,0,0,0Zm0,0c-.09.04-1.34.87-1.37.89.13-.26,1.29-2.24.96-2.57-.34-.35-2.35,1.15-2.42,1.16.16.18.23.43.16.66,0,0-.15.57-.37,1.2-.06.17-.12.34-.2.5-.08.15-.16.28-.24.4,0,0,.02.01.02.02.09.08.29.32.33.43-.01.02-1.77,2.3-1.87,2.36.02-.09.06-1.11.08-1.19-.14.05-.29.09-.44.14-.36.11-.74.24-1.11.32-.16.04-.32.06-.48.08-.18.02-.34.03-.49.04-.65.04-1.06.04-1.06.04-.07,0,.4-.65.77-.9.05-.03.1-.07.15-.1,0-.06,1.31-2.6.55-3.11-.69-.46-3.46,1.12-3.54,1.12-.82.81-2.12,2.25-2.6,2.26-.13.13-.25.26-.38.39.99-.72,2.08-1.06,3.25-1.04-.15,1.05-.41,2.09-.75,3.14,1.46-.69,2.37-.83,3.09-.79-.21,1.27-.52,2.44-.91,3.53.78-.56,1.65-1.05,2.98-1.33-.19,1.52-.32,2.43-.41,2.93l2.2.24,1.22,2.16c-5.48,2.96-10.39,4.49-14.57,2.41-2.86-2.14-3.29-6.07-.4-10.87,8.93-15.39,47.66-40.91,74.8-61.13l1.52.64-.97,1.24c-.68.49-2.77,3.61-2.79,3.7-.94.72-2.03,1.54-3.21,2.43l1.28.14c.11.02.2.1.23.21.03.11,0,.22-.1.3,0,0-.92.87-2.19,2.03l1.95-.53s-.14.54-.16.62l-1.73.21c-.09.02-.44.03-.57.15-.57.52-1.19,1.08-1.83,1.62-2.1,1.82-5.39,4.6-6.31,5.34-1.2.96-3.28,2.56-6.87,5.25-1.47,1.09-2.86,2.1-4.15,3.02-.99.71-1.93,1.36-2.81,1.95-1.37.91-2.58,1.67-3.61,2.3-.87.53-1.6.97-2.18,1.31.01.11-.02.22-.09.3,0,0-.65.91-1.95,2.35-.4.44-.88.93-1.41,1.46-1.46,1.46-3.38,3.2-5.65,5.07-1.52,1.23-3.2,2.52-4.87,3.71-1.15.82-2.28,1.62-3.35,2.31-1.06.68-2.05,1.26-2.91,1.75-1.05.6-1.9,1.05-2.41,1.32-.06.2-.13.43-.2.67-.03.09-.06.19-.09.28.19-.07.31-.1.31-.1.24-.09.52-.03.71.14.19.17.27.44.21.69,0,0-.02.08-.06.21.06-.04.12-.07.18-.11.06-.03.12-.06.18-.09.19-.16,2.88-2.42,4.18-3.5.49-.4,1.04-.86,1.65-1.34.52-.41,1.08-.85,1.68-1.3,1.04-.78,2.19-1.59,3.33-2.42,1.12-.81,2.26-1.62,3.34-2.4,2.93-2.1,5.53-3.98,6.56-4.88.92-.76,1.48-1.39,1.83-1.89.27-.4.4-.7.46-.91-.04,0-.08-.03-.11-.06l-1.88.49c-.08.03-.17-.01-.2-.1-.03-.08.01-.17.1-.2l2.33-1.08c.14-.05.29-.02.39.08.48-.4,1.18-.99,2.06-1.72.55-.46,1.18-.96,1.86-1.51.49-.4,1.01-.81,1.56-1.24.51-.39,1.04-.79,1.59-1.2,1.76-1.32,3.69-2.72,5.62-4.13,1.93-1.41,3.87-2.81,5.64-4.09,1.7-1.23,3.25-2.36,4.52-3.26,1.49-1.07,2.57-1.82,3.01-2.15.8-.57,1.41-1.12,1.77-1.54-.03.1-.41,1.84-.42,1.88-.16.15-.45.39-.64.56-.42.35-1.47,1.19-2.94,2.31-1.24.94-2.78,2.09-4.47,3.34-1.76,1.3-3.69,2.71-5.62,4.12-1.93,1.4-3.86,2.8-5.66,4.07-.56.39-1.1.78-1.64,1.14-.58.39-1.13.75-1.66,1.1-.73.48-1.4.91-2.01,1.3-.99.63-1.79,1.12-2.33,1.45.05.17.08.41.03.73.11-.04.23-.07.37-.1.12-.02.25-.03.39-.04.19-.02.38-.02.59-.03.41-.01.84-.02,1.23-.02.3,0,.58,0,.82.03.06,0,.49.04.54.05-.02.02-.9.69-1.01.79-.38.03-1.18.02-1.57.03-.2,0-.4,0-.59,0-.14,0-.27,0-.39-.02-.19-.03-.35-.07-.49-.11-.02,0-.03,0-.05-.01-.07.19-.16.4-.28.63-.33.61-.92,1.37-1.89,2.3-.92.83-3.07,2.5-5.62,4.38-1.81,1.33-3.83,2.78-5.75,4.12-.63.44-1.26.88-1.86,1.28-.43.29-.85.56-1.27.82-.89.56-1.72,1.05-2.42,1.47-.94.55-2.47,1.62-3.48,2.34.39-.14.66-.23.66-.23.24-.09.52-.03.71.14.19.17.27.44.21.69,0,0-.16.9-.37,1.57,0,0-1.35,1.03-1.45,1.13.15-.35,1.33-2.51.93-2.74-.44-.26-2.55,1.27-2.58,1.27-.05.16-.1.32-.17.46-.03.05-.05.11-.08.16.03.02.06.04.08.06.2.17.29.44.23.69,0,0-.14.64-.35,1.4-.02.09-.05.45-.07.55Zm52.5-45.8s0,.02,0,0Z"/>
  <path class="cls-1" d="m68.13,97.42c.02-.12-.3.15-.39.27-.29.4-.51.59-1.13,1.33-.27.31-.61.65-.99.99.18.59.57,1.75,1.06,2.8.25.53.51,1.03.79,1.39.07-.24.18-.5.36-.74.24-.32.6-.61,1.17-.77.08-.02.16-.04.25-.06-.39-.17-.73-.38-.92-.61-.31-.38-.51-.85-.55-1.58-.04-.68.07-1.63.35-3.02Zm-32.72,11.46c.3,0,.55.87.05,1.37-.24.25-.62.5-.97.34-.73-.34-.27-1.45.26-1.7.06-.03.6-.13.65-.02Zm74.29-56.45s-.34-.24-.47-.24c-.25,0-.53,0-.76.08,0,0-9.83,6.12-16.29,10.12-.17.11-2.24,1.24-3.57.2-.16-.13-.23-.41-.22-.75.02-.43.2-1.08.49-1.81.09-.22,1.5-3.76,1.81-4.11.14-.16.93-1.99.95-2.05,1.31-.88,2.63-1.8,3.89-2.71,2.33-1.69,4.47-3.37,5.99-4.82,1.77-1.69,3.59-3.69,5.28-5.67,1.74-2.04,3.31-4.07,4.56-5.68-.06.06.27-1.52.28-1.58,2-1.94,3.33-3.32,4.25-4.39,1.04-1.21,1.55-2.05,1.97-2.89.13-.26.26-.52.39-.8.16-.33.27-.58.34-.77.04-.11-.18-.22-.18-.22l-.62.17s-.22-1.11-.18-1.16c.19-.23.37-.44.54-.62.42-.48.43-3.09.4-3.21-.04-.21-.22-.37-.49-.44-.94.5-4.03,2.71-8.5,6.01-16.72,12.35-52.32,39.86-66.38,51.73-2.43,2.05-4.21,3.56-5.13,4.51-.25.26-.49.56-.52.6-.62,1.77-.85,3.44-.31,4.82.35.9,1.02,1.69,2.07,2.38,1.32.87,2.71.79,4.07.5,1.6-.34,3.18-.97,4.63-1.11,1.67-.16,2.67.04,3.38.5.71.46,1.18,1.21,1.71,2.31.17.36,1.06,1.79,1.13,2.04-.16.16-.38.3-.67.29-.48-.01-1.23-.25-1.9-1.64-.37-.77-.63-1.34-1.13-1.66-.5-.32-1.2-.36-2.36-.25-1.39.14-2.91.75-4.45,1.08-1.73.37-3.49.4-5.17-.65-.04-.03-.14.04-.07.12.54.63,1.27,1.53,2.33,2.2.75.48,1.64.87,2.67,1.03.85.13,1.52.18,2.03.18.26,0,.49-.02.68-.03.1,0,.19-.01.28-.01.46-.02.64-.04.72-.13,0,0,.01-.01.02-.02,0,0,0,0,.01.01v-.02c.01-.06.04-.11.09-.14.2-.36.4-.71.58-1.04.25-.43.49-.82.7-1.15.43-.71.71-1.16.71-1.16.03-.08.13-.12.21-.09.08.03.06.31.05.33-.05.18-.15.56-.31,1.06-.11.34-.25.73-.42,1.15-.12.29-.26.59-.41.89-.21.42-.46.86-.71,1.29-.92,1.58-2.06,3.14-3.18,3.89-1.63,1.08-5.83,3.98-8.88,6.35-1,.78-1.87,1.5-2.48,2.08-.41.39-.71.7-.79.92-.17.37-.3.68-.43.93-.13.26-.25.44-.32.6-.04.09-.09.16-.11.23-.03.13-.03.24.05.35,0,0,.01.02.02.03.02-.04.05-.07.08-.1.11-.13.45-.19.76-.16.02,0,.03-.03.04-.05,0-.07.01-.14.03-.21.03-.11.08-.23.16-.34.05-.08.12-.15.18-.22.3-.73.44-1.08.71-1.35.25-.26.62-.44,1.4-.73.95-.36,1.38-.36,1.86-.57.18-.08.37-.19.62-.37.47-.34.87-.81,1.22-1.1.13-.1.24-.16.35-.21.13-.07.49-.23.56-.18.06.04-1,1.92-1.55,2.24-.71.41-.62.68-.59.72.24.27.26.39.2.73-.04.24-.13.48-.23.66-.1.18-.22.29-.26.33-.01.01-.07.01-.08,0-.06-.02-.1-.08-.1-.15,0-.03.02-.11.03-.14.03-.14.06-.44,0-.71-.01-.06-.25-.8-1-.58-.2.06-.42.14-.68.24-.57.22-.85.32-1.04.51-.2.2-.43.2-.67.77-.12.26-.22.91-.22.91,0,0,0,0,0,0,.04.25.22.49.64.77.08.03.12.12.09.21-.03.08-.12.12-.21.09-.67-.12-1.03-.37-1.24-.65-.04,0-.07.02-.11,0-.29-.12-.52-.09-.68,0-.08.21-.19.5-.33.86-.2.45-.25.7-.27.82-.05.25-.18.36-.29.42h.04s-.57.32-.99.88c-.23.3-.41.68-.4,1.12.02.84-.06,1.33.04,1.79.06.28.2.53.49.88.23.28.55.41.85.47.19.04.9.12,1.06.11-.11-.07-.93-1.19-.81-1.34.03-.04.05-.13.16-.28.15-.2.52-.6,1.43-1.27.82-.6,2.64-1.87,4.05-2.77.25-.16.49-.32.72-.43.69-.36,1.34-.54,1.39-.47.05.07-1.92,2.06-2.1,2.27-.33.37-.72.82-1.02,1.32-.47.74-.73,1.53-.92,2.02-.03.08-.06.15-.1.2-.09.11-.16.2-.23.25l.44.38c.16-.12.42-.41.85-1.08.39-.6,1.11-1.35,1.97-2.12,1.04-.92,2.28-1.86,3.34-2.63.68-.48,1.14-.74,1.72-.98,0,0,.02-.02.03-.02,0,0,.99-.33,1.05-.36.16-.08,1.6-.59,1.65-.6,1.07-.39,2.51-.93,4.54-1.75,2.92-1.18,5.49-2.58,7.63-3.92,1.35-.84,5.16-3.75,5.79-4.23.68-.58,2.01-1.66,2.25-1.94.67-.74,2.4-2.21,2.47-2.16.07.05.69-1.26,1.19-2.02.14-.22,1.61-2.04,1.77-2.14.04-.03-1.02,2.46-1.36,3.13-.32.63-.6,1.32-.77,2.07-.27,1.18-.41,2.05-.44,2.7-.04.73.06,1.15.32,1.47.11.14.31.25.54.36.28.13.61.22.9.33.19.08.35.16.49.24.15.08,1.08.28,1.37.32l-1.73-1.05c-.17-.11-.26-.31-.23-.51.04-.2.19-.36.39-.39l3.19-.6-1.84-2.1s-.04-.05-.05-.07c-.2-.33-.22-.7-.07-1.09.16-.43.58-.93,1.21-1.43.98-.78,2.48-2,4.22-2.82-.13.01-.27.02-.4.02-.39.01-.75,0-1.09-.07-.51-.09-.94-.24-1.29-.4-.75-.34-1.13-.71-1.13-.71-.04-.03-.05-.09-.02-.13.03-.04.09-.05.13-.02,0,0,.44.22,1.18.38.34.07.75.13,1.21.15.3.02.62.02.96,0,.44-.03.92-.1,1.43-.25.96-.26,1.67-.8,2.19-1.38.58-.64.93-1.33,1.12-1.79-.14.03-.3.06-.45.08-.54.1-1.08.17-1.08.17,0,0-.01,0-.02,0-.11.04-.22.09-.34.13-.45.16-.9.3-1.31.41-.38.1-.74.18-1.07.25-.98.19-1.62.25-1.62.25-.05,0-.1-.02-.11-.07,0-.05.02-.1.07-.11,0,0,.83-.26,2.02-.73.37-.14.76-.31,1.19-.49.55-.23,1.15-.47,1.75-.77.75-.35,1.32-.75,1.77-1.12.86-.72,1.19-1.37,1.26-1.5l.21-.99c-.18.04-.41.09-.71.17-.29.07-.7.15-1.15.22-.24.04-.5.07-.76.1-.49.05-.99.09-1.43.12-.82.05-1.44.07-1.44.07-.05,0-.1-.03-.1-.08,0-.04.01-.07.04-.09-.12,0-.19,0-.19,0-.05,0-.09-.03-.1-.09,0-.05.03-.09.09-.1,0,0,.66-.12,1.57-.36.32-.08.66-.18,1.02-.3.33-.1.66-.22.99-.35.49-.19.97-.4,1.38-.67.56-.35,1.08-.87,1.54-1.41.86-1,1.51-2.09,1.74-2.5-.02,0-.05,0-.07,0-.25.02-.59.08-1.08.22-.63.16-1.25.35-1.84.51-.51.14-.98.25-1.4.35-.84.21-1.4.35-1.4.35-.05.02-.1,0-.12-.06-.02-.05,0-.1.06-.12,0,0,.52-.25,1.32-.6.39-.17.84-.36,1.34-.55.58-.22,1.21-.42,1.83-.62.68-.21,1.13-.28,1.41-.29.18-.33.38-.67.59-1.01.37-.61.61-1.47.97-1.98.06-.24.32-.34.52-.81.02-.04.04-.08.05-.12-1.2.77-2.38,1.51-3.3,2.07-.22.14-1.74.81-1.88.85-.02.01,1.19-1.46,1.41-1.6,1.83-1.19,4.76-3.08,6.79-4.46.61-.41,1.19-.85,1.73-1.27.69-.55,2.02-1.7,2.61-2.22.08-.06.16-.13.23-.19,0,0,0,0,0-.01.04-.03.06-.06.07-.06l-.06.04s0-.03.01-.03c.05-.05.1-.14.15-.19,0,0,.01-.05.02-.06.13-.13.25-.32.36-.49.06-.1.08-.28.17-.37.06-.06.11-.17.17-.25.14-.21.31-.41.48-.61,2.93-1.85,5.47-3.52,6.68-4.49,1.08-.86,1.99-1.93,2.74-3.02.37-.53.69-1.07.99-1.58.22-.38.42-.74.61-1.09.29-.51.54-.98.75-1.38.16-.31.45-.56.4-.8-.02-.09-.04-.2-.13-.31Zm-14.76-24.97c.42-1.01,3.55-5.94,3.51-6.03-.05-.12-.21-.19-.54-.13-.14.06-.9.39-1.51.76-2.26,1.38-5.73,4.09-7.53,5.73-2.61,2.39-14.82,10.87-23.83,17.27-8.96,6.37-23.4,18.34-28.78,22.75-3.19,2.61-7.59,7.01-10.67,11.2-1.97,2.68-3.42,5.25-3.55,7.18-.15,2.28.28,4.02,1.34,5.16,1.04,1.13,2.67,1.64,4.77,1.6,4.53-.08,8.57-2.81,8.57-2.81.07-.04.14-.08.21-.1.13-.04.36-.5.25-.61-.67-.66-1.14-1.38-1.44-2.15-.62-1.6-.5-3.44.16-5.48.03-.24,1.88-2.43,1.88-2.41.51-.48,1.13-1.04,1.86-1.68,0,0,4.81-4.1,4.8-4.07,6.03-5,40.84-32.25,48.09-37.77.08-.45.2-1.15.36-2.01.02-.11.79-3.5.79-3.5.1-.33.23-.68.37-1.05.24-.6.6-1.2.87-1.86Zm-19.41,75.95s0,.02-.01.03c-.09.23-1.72.7-1.96.64,0,0-.51-.36-2.17-.5-.44-.04-.87-.06-1.26-.04-.22.08-.43.16-.63.25-.37.17-.67.35-.89.54-.12.11-.21.21-.21.32,0,.07.09.1.18.15.29.18.77.28,1.35.34.63.06,1.39.07,2.2-.02,1.03-.09,1.98-.3,2.7-.57.38-.14.69-.29.91-.46.13-.1.25-.18.25-.29,0-.09-.08-.16-.19-.23-.08-.05-.18-.1-.28-.15Zm-.68-3.78l.44.5c.11.13.15.31.09.48-.06.16-.2.29-.37.32l-2.77.53,1.6.97c.65,0,1.23.06,1.69.18.1.02.19.05.28.08.08-.04.15-.08.22-.13.56-.36.97-.82.98-1.35.02-.53-.33-.96-.88-1.24-.36-.18-.8-.31-1.29-.34Zm-6.92,5.84c-.18.1-.43.12-.76-.15-.49-.41-.99-1.21-1.4-2.09-.41-.89-.76-1.85-.98-2.52-.26.21-.52.42-.78.61-1.19,1-3.11,2.5-5.64,4.08-2.18,1.37-4.81,2.79-7.79,3.99-4.56,1.84-6.15,2.25-7.23,2.7-.54.22-.95.45-1.58.89-1.06.72-2.3,1.61-3.36,2.47-.84.68-1.56,1.32-1.96,1.86-.36.48-.62.77-.82.95-.45.41-.62.34-.62.34-.07,0-.13-.03-.18-.07l-1.98-1.99s-.02-.03-.03-.04c-.3.25-.47.42-.57.55l.46,1.27c.05.13.04.28-.03.4s-.18.21-.31.25c0,0-.95.25-1.86-.03-.41-.12-.81-.35-1.12-.73-.42-.51-.61-.9-.7-1.31-.11-.5-.04-1.04-.06-1.97-.01-.55.15-1.04.41-1.45.41-.68,1.05-1.13,1.36-1.33.07-.17.21-.44.5-.86.21-.26.39-.48.52-.65-.04,0-.08-.02-.11-.06-.04-.05-.07-.1-.11-.15-.14-.2-.19-.4-.16-.74.02-.23.09-.52.21-.91.07-.24.18-.51.29-.84.23-.61,1.64-1.94,3.51-3.42,3.04-2.42,7.27-5.34,8.91-6.44.63-.42,1.26-1.15,1.86-1.97.28-.38.54-.79.79-1.2-.05.02-.11.04-.17.05-.6.16-1.58.14-3.11-.08-1.51-.24-2.75-.91-3.71-1.69-.66-.53-1.19-1.1-1.58-1.62-.07-.1-.14-.19-.21-.28-.05.08-.12.14-.2.2,0,0-4.44,2.99-9.43,3.08-2.65.05-4.66-.69-5.98-2.12-1.3-1.41-1.95-3.53-1.76-6.35.11-1.63,1-3.69,2.39-5.88,3.08-4.87,8.58-10.5,12.41-13.63,5.4-4.42,19.88-16.42,28.87-22.81,8.95-6.36,21.08-14.78,23.67-17.15,2.12-1.94,6.53-5.33,8.72-6.46.47-.24.86-.39,1.13-.44.24-.04.44-.03.59.01.46.13.93.18,1.24.31.32.14.53.34.66.6.11.23.16.52.06.89-.08.27-.27.64-.65,1.12-.19.24-2.32,2.6-2.51,3.09-.28.72-.58,1.5-.89,2.26-.26.64-.52,1.27-.77,1.85-.3.69-.6,1.3-.77,1.8-.27.69-.52,1.35-.75,1.94-.29.73-.54,1.36-.74,1.84,5.93-4.52,11.31-8.57,15.51-11.67,4.21-3.11,7.24-5.27,8.44-5.98.33-.2.57-.3.69-.34.16-.04.29-.04.37-.03,1.16.17,1.86.94,2.01,1.77.13.7-.58,2.34-.58,2.34.08.09.1.22.03.32,0,0-.28.55-.9,1.46-.09.14-.2.28-.31.43-.04.05.05.07.05.07,0,0,.03-.02.06-.04.22-.15.7-.29.82.33.04.23-.01.68-.29,1.51-.11.3-.22.58-.34.86-.41.92-.97,1.8-2.07,3.1-.59.71-1.35,1.53-2.35,2.55-.12.22-.28.54-.52.94-.21.36-.48.78-.79,1.24-.12.18-.25.37-.39.56-.99,1.37-2.31,3.07-3.77,4.87-2.01,2.48-4.33,5.13-6.57,7.28-2.33,2.23-6.06,4.99-9.76,7.51-.15.3-1.04,2.48-1.13,2.67-.56,1.2-1.49,2.92-1.83,4.07-.06.22-.11.41-.12.57,0,.04,0,.09,0,.12.12.1.3.13.5.14.32.02.68-.04,1.01-.09.26-.16.52-.33.79-.49,8.53-5.33,17.83-11.09,17.83-11.09.17-.11.4-.1.56.02.16.12.24.33.19.53,0,0-.01.06-.06.17.02.02.04.05.06.07.09.13.16.26.21.42.03.09.04.2.04.29,0,.09-.02.18-.04.26-.02.05-.03.1-.05.15-.05.24-.16.74-.37,1.42-.14.45-.31.96-.55,1.52-.26.61-.6,1.26-1,1.92-.87,1.48-2.05,2.99-3.51,4.16-1.31,1.04-4.16,2.91-7.39,4.92,0,0,.02.01.02.02.07.06-.04.32-.05.34-.11.18-.3.54-.66,1.02-.16.21-.36.44-.58.68-.95.99-2.39,2.18-4.02,3.28-.5.33-1.06.7-1.65,1.07-.04.05-.07.11-.11.17-.12.18-.26.36-.41.57-.18.19-.33.39-.48.56-.08.09-.17.18-.24.27-.38.64-1.03,1.77-1.63,2.93-.16.31-.31.62-.46.92.22.24.13.55.06.71,0,.02-.02.03-.03.05-.13.21-.07.13,0,0,0,0-.78,1.5-1.92,2.83-.5.58-1.07,1.13-1.67,1.51.33-.08.52-.12.62-.13.12-.02.18-.01.21-.01.67.05.37.48.37.48l-.32,1.6s-.01.05-.02.07c0,0-.33.88-1.5,1.86-.31.26-.67.52-1.11.78,0,.02-.4.13-.41.15.66-.08.92-.03,1.03.07,0,0,0,0,0,.01,0,.02-.01.06-.02.11-.04.18-.15.56-.37,1.03-.21.47-.53,1.01-.98,1.53-.39.45-.89.88-1.5,1.21-.32.27-.71.71-1.21,1.03-1.44.91-3.04,2.07-4.09,2.77-.57.38-1.02.76-1.3,1.11-.17.22-.3.4-.22.57l1.48,1.68c.96-.11,1.82.08,2.43.44.64.38,1.01.97,1.04,1.65.02.66-.31,1.33-.9,1.87-.09.08-.18.16-.28.23.1.15.16.32.17.48.01.46-.39,1-1.18,1.43-.81.44-2.05.8-3.43.97-1.37.12-2.6.02-3.42-.24-.39-.12-.69-.29-.91-.48Z"/>
</svg>