<svg id="Layer_1" data-name="Layer 1" xmlns="http://www.w3.org/2000/svg" viewBox="0 0 150 150"><defs><style>.cls-1{fill:#eee;}.cls-2{fill:#151515;}</style></defs><path class="cls-1" d="M137,.58V87.4a62,62,0,1,1-124,0V.58Z"/><path class="cls-2" d="M132.5,5V87.5a57.5,57.5,0,1,1-115,0V5h115m5-5H12.5V87.5a62.5,62.5,0,0,0,125,0V0Z"/><path class="cls-2" d="M126.5,11V87.5a51.5,51.5,0,1,1-103,0V11h103m3-3H20.5V87.5a54.5,54.5,0,0,0,109,0V8Z"/><path class="cls-2" d="M49,85.12a24.26,24.26,0,0,1-3.54-2.92c-2.51-3.07-1.52-7.33,2.21-9.21a35.84,35.84,0,0,1,6.1-2c.61-.18.95-.34,1.12-1q1.68-7,3.46-13.91a90.49,90.49,0,0,1,6.39-16.9,25.11,25.11,0,0,0,1.55-3.69c-1.53.61-3.1,1.13-4.58,1.84a21.21,21.21,0,0,0-7.4,5.17,1.07,1.07,0,0,1-1.89,0c-.91-1.12-1.83-2.22-2.77-3.32A1.33,1.33,0,0,1,49.79,37a36.3,36.3,0,0,1,13.74-7.82,43.25,43.25,0,0,1,26.23,0c8.25,2.6,15.13,7.26,19.64,14.8a25.57,25.57,0,0,1,1.73,24.13A30,30,0,0,1,97.9,82.48c-2.42,1.39-5,2.47-7.63,3.73.7.81,1.49,1.72,2.28,2.61a54.4,54.4,0,0,1,8.52,13.93c.54,1.17,1.08,2.34,1.65,3.5.43.88.18,1.42-.69,1.8-1.22.54-2.41,1.13-3.62,1.68s-1.48.31-2-.78c-2.13-4.14-4-8.43-6.55-12.34-1.92-3-4.58-5.55-7-8.2a2.74,2.74,0,0,0-2-.57,51.32,51.32,0,0,1-11.35-.49,19.85,19.85,0,0,1-2.78-.57,16.71,16.71,0,0,0-7.2-.54,4.82,4.82,0,0,1-1.36.09c-1.56-.28-2.31.47-3,1.8a67.24,67.24,0,0,1-11.82,15.63c-1.19,1.17-2.52,2.19-3.79,3.28-.61.53-1.11.47-1.61-.2-.87-1.15-1.75-2.3-2.7-3.38a1.15,1.15,0,0,1,.18-1.92c1.07-.91,2.18-1.77,3.18-2.75a69.78,69.78,0,0,0,9.19-11.7C48.21,86.4,48.63,85.68,49,85.12ZM61.79,71a3.42,3.42,0,0,0,.54.18C67,71.92,70,74.93,72.6,78.59c.94,1.34,2,2.64,4,2.61A38.37,38.37,0,0,0,87,79.73a28.47,28.47,0,0,0,14.88-9.56,19.16,19.16,0,0,0,4.49-14.41,21.31,21.31,0,0,0-7.92-14.17c-6.21-5.22-13.53-7.45-21.55-7.71-1.29,0-2.17.21-2.6,1.55a11.3,11.3,0,0,1-1,1.9C67.54,47.85,64,59.14,61.79,71Z"/></svg>