<svg id="Layer_1" data-name="Layer 1" xmlns="http://www.w3.org/2000/svg" viewBox="0 0 150 150"><defs><style>.cls-1{fill:#fff;}.cls-2{fill:#a40012;}</style></defs><path class="cls-1" d="M75,148.91c-6.45-2.84-26.55-12.27-41-25.35-5.91-5.38-23.92-21.75-28.58-55.91C.81,33.68,8.23,10.08,10.77,3.3A50.56,50.56,0,0,0,41.53,13.61,51.42,51.42,0,0,0,75,1.33a51.42,51.42,0,0,0,33.47,12.28A50.56,50.56,0,0,0,139.23,3.3c2.54,6.78,10,30.38,5.31,64.35-4.66,34.16-22.67,50.53-28.58,55.91C101.55,136.64,81.45,146.07,75,148.91Z"/><path class="cls-2" d="M83.3,78.93c1.74,5.46,4,10.53,8,14.65,5.13,5.35,11.56,7.28,18.83,6.73,1.84-.14,3.66-.43,5.6-.67a4.11,4.11,0,0,1-.37.48c-8.53,8.09-23.16,8.77-32.38,1.5a25.12,25.12,0,0,1-7.49-10.4c-1.14-2.75-2-5.61-3-8.44a.93.93,0,0,0-.92-.79q-4.42-.45-8.82-1a1.27,1.27,0,0,0-1.51.82c-1.73,3.58-3.45,7.16-5.3,10.67a23.27,23.27,0,0,1-6.84,7.9,51.09,51.09,0,0,1-6.85,4.85,24.89,24.89,0,0,1-12.82,2.91L28.14,108c.47-.33.72-.51,1-.68,2.81-1.89,5.78-3.59,8.39-5.73A33.47,33.47,0,0,0,47.06,88c1.26-3.06,2.32-6.21,3.51-9.42-1.79-.8-3.45-1.52-5.1-2.27a14.82,14.82,0,0,1-5.24-3.38,22.66,22.66,0,0,1-2-3c-.29-.47-.12-.8.33-1.14A39.63,39.63,0,0,1,54,61.39,1.61,1.61,0,0,0,55.42,60c1.22-4.74,2.43-9.48,3.76-14.19,1.83-6.51,6.5-10.51,12.25-13.47,2.21-1.13,4.51-2.08,6.76-3.11l.13.21a5.9,5.9,0,0,1-.37.47c-.47.5-.92,1-1.41,1.47a19.89,19.89,0,0,0-6,11c-1.25,6.06-2.74,12.07-4.15,18.1a1.81,1.81,0,0,0,.9,2,24.94,24.94,0,0,0,2.37,1.44c4,2.07,7,5.3,9.73,8.8a1.72,1.72,0,0,0,2.21.73,19.75,19.75,0,0,0,9-6,35.53,35.53,0,0,0,7-11.69,19.25,19.25,0,0,0-1-15.18,23.08,23.08,0,0,0-11-11.4,23.76,23.76,0,0,0-8-1.93c-10.5-1.17-20.24,1.3-29.45,6.26l-1,.53-.2-.18c.84-1.16,1.6-2.38,2.52-3.47,3.54-4.16,8.17-6.58,13.31-8.12a54.26,54.26,0,0,1,20.1-1.95c8,.62,14.52,4.23,20.28,9.32,4.67,4.13,6.53,9.75,6.65,15.93a34.16,34.16,0,0,1-3.09,15,26.54,26.54,0,0,1-4.83,6.5C97,72.37,90.94,75.88,84.34,78.52ZM64,70.82,62.73,76h6.92C68.63,73.22,66.55,71.87,64,70.82Zm-11.19-3L48,70.6l4.8,2.07Z"/><path d="M75,3.92a53.39,53.39,0,0,0,33.47,11.69,52.46,52.46,0,0,0,29.76-9.13c3,8.89,8.46,30.7,4.33,60.9-4.57,33.44-22.17,49.44-27.95,54.7C101,134.46,82.11,143.54,75,146.72c-7.11-3.18-26-12.26-39.61-24.64C29.61,116.82,12,100.82,7.44,67.38c-4.13-30.2,1.37-52,4.33-60.9a52.46,52.46,0,0,0,29.76,9.13A53.39,53.39,0,0,0,75,3.92M75,0A50.55,50.55,0,0,1,41.53,12.61,50,50,0,0,1,10.32,1.69c-3.9,9.62-10.25,34-5.85,66.1,4.6,33.7,21.85,50.1,28.9,56.51C49,138.5,71.47,148.46,75,150c3.53-1.54,26-11.5,41.63-25.7,7.05-6.41,24.3-22.81,28.9-56.51,4.4-32.15-1.95-56.48-5.85-66.1a50,50,0,0,1-31.21,10.92A50.55,50.55,0,0,1,75,0Z"/></svg>