<svg id="Layer_1" data-name="Layer 1" xmlns="http://www.w3.org/2000/svg" viewBox="0 0 150 150"><defs><style>.cls-1{fill:#eee;}.cls-2{fill:#151515;}</style></defs><path class="cls-1" d="M70.66,136.73c-2-3.25-3.3-5.7-4.48-7.86a111.1,111.1,0,0,0-10.4-16c-3.45-4.61-9.22-10-15.33-15.76-14.8-13.9-33.22-31.21-33.22-51a42,42,0,0,1,42-42A43.4,43.4,0,0,1,75,12.65a43.4,43.4,0,0,1,25.79-8.5,42,42,0,0,1,42,42c0,19.79-18.42,37.1-33.22,51-6.11,5.74-11.88,11.15-15.33,15.76a111.1,111.1,0,0,0-10.4,16c-1.18,2.16-2.53,4.61-4.48,7.86L75,144Z"/><path class="cls-2" d="M100.5,5A41.54,41.54,0,0,1,142,46.45c0,19.56-18.21,36.67-32.85,50.42-6,5.67-11.73,11-15.15,15.58a109.75,109.75,0,0,0-10.28,15.8c-1.17,2.13-2.5,4.55-4.43,7.77L75,143.17,70.71,136c-1.93-3.22-3.26-5.64-4.43-7.77A109.75,109.75,0,0,0,56,112.45c-3.42-4.56-9.12-9.91-15.15-15.58C26.21,83.12,8,66,8,46.45A41.54,41.54,0,0,1,49.5,5,42.9,42.9,0,0,1,75,13.35,42.9,42.9,0,0,1,100.5,5m0-2A44.92,44.92,0,0,0,75,10.89,44.92,44.92,0,0,0,49.5,3,43.54,43.54,0,0,0,6,46.45C6,66.88,24.56,84.31,39.48,98.32c6,5.62,11.61,10.91,14.92,15.33a108.36,108.36,0,0,1,10.13,15.56c1.18,2.16,2.52,4.6,4.47,7.84l4.28,7.14L75,147.05l1.72-2.86L81,137.05c2-3.24,3.28-5.67,4.46-7.82A108.33,108.33,0,0,1,95.6,113.65c3.31-4.42,9-9.71,14.92-15.32C125.44,84.31,144,66.88,144,46.45A43.54,43.54,0,0,0,100.5,3Z"/><path class="cls-2" d="M100.5,10A37.58,37.58,0,0,0,75,19.87,37.58,37.58,0,0,0,49.5,10,36.5,36.5,0,0,0,13,46.45c0,25,34.9,46.87,47,63,9,12,9,14,15,24,6-10,6-12,15-24,12.1-16.13,47-38,47-63A36.5,36.5,0,0,0,100.5,10Z"/></svg>