<svg id="ger_moscow_pilot_fighter_2" xmlns="http://www.w3.org/2000/svg" width="150" height="150" viewBox="0 0 150 150">
  <defs>
    <style>
      .cls-1 {
        fill: #989797;
      }

      .cls-1, .cls-2, .cls-3, .cls-4, .cls-5, .cls-6, .cls-7, .cls-8, .cls-9 {
        fill-rule: evenodd;
      }

      .cls-2 {
        fill: #fa9a28;
        stroke: #814b05;
        stroke-linecap: round;
        stroke-linejoin: round;
        stroke-width: 3.15px;
      }

      .cls-3 {
        fill: #f37b33;
        opacity: 0.7;
      }

      .cls-4 {
        fill: #814b05;
      }

      .cls-5 {
        fill: #dc742a;
      }

      .cls-6 {
        fill: #291f12;
      }

      .cls-7 {
        fill: #fff;
      }

      .cls-8 {
        fill: #ef8a2d;
      }

      .cls-9 {
        fill: #2a241e;
      }
    </style>
  </defs>
  <path id="Shape_122_copy" data-name="Shape 122 copy" class="cls-1" d="M75,144.354A69.354,69.354,0,0,1,25.959,25.959a69.354,69.354,0,0,1,98.082,98.082A68.9,68.9,0,0,1,75,144.354Z"/>
  <path class="cls-2" d="M135.485,86.806s-3.689-8.761-7.839-11.3c0,0-4.381,2.767-4.381,3.458s5.3,4.842,5.3,4.842-3.458,5.534-18.675,13.834L102.976,98.8s-6.686,3.689-8.992,10.837-7.839,22.826-7.839,22.826l-3.228-1.153-3.689,13.372a38.343,38.343,0,0,1-5.484.325c-10.782,0-35.489-3.153-56.076-29.145C-0.777,92.57,7.062,55.45,7.062,55.45s24.95-20.56,32.509-22.6c4.634-1.248,29.658-3.735,42.59-3.735,3.8,0,6.552.214,7.442,0.738,3.919,2.306,11.759,7.378,12.912,7.839s8.069-.461,12.45,7.608c0,0,17.062,2.536,21.442,17.062S135.485,86.806,135.485,86.806Z"/>
  <path class="cls-3" d="M30.5,40.5S13.25,50,10,56.25s-4.5,25.5-3.5,27S16.25,84.75,17,83,33.25,69.25,35.75,66.5,41.5,67,41.5,67L44,62.25s9-13.5,12.5-16.5S65.5,51,68.75,50,86.5,44,87.5,42.75s-4.75-5.5-4.75-5.5l9-1s-1.25-6-2.75-6-29.25.5-30.25,0.5-16.5.5-19.25,2.25S30.5,40.5,30.5,40.5ZM55,137.25l1.75-9,16.25-26V122.5l10.25-20L93.75,92l16.5,1L101,97.25l-8.5,9L85.75,129.5,79,130l-1,10.5S61.5,141.75,55,137.25Z"/>
  <path id="Shape_122_copy_6" data-name="Shape 122 copy 6" class="cls-4" d="M122.343,78.737s-0.417-.022-1.166-0.022c-3.5,0-14.241.469-23.734,5.785v1.845l-8.992.692s14.064-11.99,16.831-12.451,9.222-.461,10.144-1.153a7.265,7.265,0,0,1,3.106-.439c2.792,0,6.754.6,9.114,2.514C127.646,75.509,123.035,77.123,122.343,78.737Zm-21.212-28.59s-3.458-2.306-1.383-4.381a3.663,3.663,0,0,1,5.533.461C105.973,47.38,105.973,48.533,101.131,50.147Z"/>
  <path class="cls-5" d="M125.781,70.04a20.952,20.952,0,0,0-1.628-2.907c-0.59-.861-1.62-1.624-1.855-2.659a1.239,1.239,0,0,1-.029-0.345A0.616,0.616,0,0,1,122.5,63.5a1.151,1.151,0,0,1,1.2-.421c1.186,0.274,2.007,1.615,2.675,2.558,0.053,0.075.1,0.152,0.15,0.227a10.381,10.381,0,0,1,1.639,3.176C128.61,70.434,126.412,71.372,125.781,70.04ZM123.23,86.658c0.21,1.746-1.747,2.746-3.122,3.3a19.337,19.337,0,0,1-5.513,1.01A46.467,46.467,0,0,0,108.254,92q-3.5,1.231-7.064,2.253c-1.81.519-2.386-2.059-.754-2.735q1.234-.512,2.491-0.947c3.827-1.556,7.695-3,11.457-4.719q1.677-.765,3.329-1.584c0.82-.407,1.766-1.092,2.732-0.983C121.776,83.431,123.083,85.426,123.23,86.658Zm-3.23-.61c-0.473-.444-0.046-0.26-0.474.2a1.354,1.354,0,0,1-.108.1,1.067,1.067,0,0,1,.265.978,2.857,2.857,0,0,0,.806-0.544A2.387,2.387,0,0,0,120,86.048Zm-3.672-17.732a3.638,3.638,0,0,1-2.474.574,1.51,1.51,0,0,1-1.071-2.436q0.447-1.444.9-2.888a5.784,5.784,0,0,1,.944-2.341c1.238-1.293,2.842.158,3.625,1.192,0.934,1.234,1.657,3.077.648,4.482A4.592,4.592,0,0,1,116.328,68.316Zm-11.163-8.878a0.934,0.934,0,0,1,0-1.785c2.29-.642,4.475-1.023,6.137-2.9a7.519,7.519,0,0,0,1.618-3.083,16.471,16.471,0,0,0,.128-3.853,1.5,1.5,0,0,1,2.924-.4c1.233,2.938-.448,7.03-2.485,9.2C111.521,58.7,108.058,60.39,105.165,59.438Zm3.2-15.452c-1.983-1.2-3.482-2.642-6.006-2.246a6.252,6.252,0,0,0-3.086,1.453,23.612,23.612,0,0,0-1.77,2.218,0.854,0.854,0,0,1-1.325-.171,2.186,2.186,0,0,1-.4-1.047,1.59,1.59,0,0,1-.957-0.163c-0.039-.02-0.069-0.043-0.1-0.064a1.393,1.393,0,0,1-1.571.091,13.253,13.253,0,0,1-2.73-2.552,8.175,8.175,0,0,1-2.083.368l-0.028,0H88.242A1.2,1.2,0,0,1,87.092,41l-0.012-.084A1.366,1.366,0,0,1,88,39.3c0.35-.128.782-0.285,1.245-0.425a1.8,1.8,0,0,1,1.224-1.6c1.382-.639,3.148.41,4.176,1.3A6.928,6.928,0,0,1,95.95,40.1a6.711,6.711,0,0,1,.537,1.078,3.741,3.741,0,0,1,.2.545,1.43,1.43,0,0,1,.1.132,11.21,11.21,0,0,1,4.593-2.829c2.983-.8,7.407,0,8.965,2.985A1.453,1.453,0,0,1,108.369,43.986ZM80.985,45.214a20.307,20.307,0,0,0-4.367.645c-1.364.362-2.665,1.075-4.046,1.318a0.993,0.993,0,0,1-.958-1.645c2.049-2.222,6.07-3.112,8.938-3.518A1.621,1.621,0,1,1,80.985,45.214ZM78.67,47.188a11.249,11.249,0,0,0,3.683-1.737c3.88-2.55,8.787-2.681,12.342.6,1.024,0.946-.043,3-1.425,2.448a6.739,6.739,0,0,0-8.96,4.18,1.475,1.475,0,0,1-2.153.876c-1.915-1.473-4.247-1.174-6.463-.652-1.55.364-3.086,0.8-4.617,1.25Q63.119,57.265,55.3,60.713a1.622,1.622,0,0,1-2.273-.943c-0.459.336-.9,0.688-1.328,1.066A19.009,19.009,0,0,1,45.936,64.7a61.026,61.026,0,0,1-7.726,2.668,0.848,0.848,0,0,1-.65-1.542c2.588-1.5,5.434-2.463,8.09-3.828,2.286-1.174,3.859-3.173,5.931-4.65a33.354,33.354,0,0,1,6.788-3.47c2.689-1.1,5.395-2.178,8.122-3.184a82.372,82.372,0,0,1,8.446-2.68C76.175,47.705,77.43,47.483,78.67,47.188Zm6.054,0.084c-0.59.332-1.157,0.714-1.732,1.083a1.763,1.763,0,0,1-.064.759A10.116,10.116,0,0,1,84.724,47.271Zm-2.5,2.926c0.07-.125.143-0.248,0.218-0.369a1.646,1.646,0,0,1-.468.262C82.055,50.124,82.139,50.16,82.222,50.2ZM64.2,50.755c-0.793.176-1.612,0.2-2.413,0.341s-1.586.335-2.392,0.466a0.966,0.966,0,0,1-.741-1.756,8.412,8.412,0,0,1,5.2-1.629C65.26,48.274,65.712,50.419,64.2,50.755Zm-7.4-3.684-0.089.054a1.339,1.339,0,0,1-.343.147c-0.067.053-.144,0.109-0.176,0.14-0.139.135-.275,0.273-0.41,0.412q-0.405.416-.793,0.848c-0.562.627-1.213,1.069-1.817,1.64a0.8,0.8,0,0,1-1.332-.775c0.2-.529.306-1.087,0.553-1.6a9.45,9.45,0,0,1,.946-1.454c0.653-.887,1.417-2.349,2.691-2.241A1.525,1.525,0,0,1,57.5,45.723l0.007,0.1A1.433,1.433,0,0,1,56.794,47.071ZM44.239,60.33a1.085,1.085,0,0,1-1.141-.84,0.733,0.733,0,0,1-.24-1.1c1.374-1.812,2.651-3.385,3.229-5.637a1.285,1.285,0,0,1,1.869-.76L50.7,53.6a1.379,1.379,0,0,1,.49,1.868C49.718,57.52,46.878,60.158,44.239,60.33Zm-8.206,0a37.114,37.114,0,0,0-4,1.854,13.191,13.191,0,0,0-3.469,3.166c-0.878,1.052-2.2-.3-1.739-1.342,0.2-.459-0.31-1.566-0.275-2.117a2.47,2.47,0,0,1,.637-1.521,11.643,11.643,0,0,0,2.455-3.433c0.229-.57.473-1.414,0.789-2.269a8.417,8.417,0,0,1,3-5.153c0.056-.086.11-0.173,0.167-0.258,0.695-1.039,1.818-1.852,3.105-1.344,3.116,1.23-.734,5.957-1.938,7.325a1,1,0,0,1-.693.351,1.176,1.176,0,0,1,.287,1.349,9.734,9.734,0,0,0,2.321-1.076A12.291,12.291,0,0,1,40.756,53.7a1.222,1.222,0,0,1,1.363,1.773C40.811,57.885,38.478,59.266,36.032,60.326Zm-5.07-.577-0.023.042c-0.124.207-.258,0.412-0.4,0.611q0.419-.286.867-0.548A1.093,1.093,0,0,1,30.962,59.749Zm-9.654-2.626a4.916,4.916,0,0,0-2.2,2.142,4.991,4.991,0,0,1-1.9,2.18A24.2,24.2,0,0,1,13.376,63.2c-0.975.415-2.4,1.4-3.486,1.358A1.874,1.874,0,0,1,9.6,64.525,1.027,1.027,0,0,1,7.923,63.5c0.262-.965.538-1.925,0.818-2.884a1.345,1.345,0,0,1-.106-0.792,4.848,4.848,0,0,1,3.05-3.445,9.431,9.431,0,0,0,2.24-1.221,18.179,18.179,0,0,1,1.417-1.48,3.937,3.937,0,0,1,1.871-.554,26.956,26.956,0,0,0,3.16-.565,28.965,28.965,0,0,0,6.211-2.476,0.574,0.574,0,0,1,.692.9C25.405,53.02,23.611,55.553,21.308,57.122Zm-8.843,1.144a5.061,5.061,0,0,0-1.12.76,8.854,8.854,0,0,0,1.129-.671C12.47,58.326,12.466,58.3,12.465,58.266Zm9.412-3.578c-0.236.164-.477,0.351-0.727,0.525a1.163,1.163,0,0,1-.215.4l0.027,0.037a6.252,6.252,0,0,0,1.021-.869c0.166-.163.329-0.33,0.494-0.495C22.274,54.419,22.074,54.551,21.877,54.688Zm1.888-2a0.432,0.432,0,0,1,.033.256c0.159-.164.319-0.327,0.477-0.492C24.105,52.533,23.935,52.61,23.765,52.689ZM8.911,67.117a11.688,11.688,0,0,1,1.861-1.523,41.914,41.914,0,0,1,5.65-2.836l4.268-1.965a3.848,3.848,0,0,1,.547-0.252l1.868-.86a0.822,0.822,0,0,1,1.217.7c0.214,2.4-1.886,4.325-4.066,5.758a1.16,1.16,0,0,1,.139.786c-0.474,2.619-3.062,4.563-4.881,6.3-2.435,2.326-4.966,4.549-7.508,6.755a1.271,1.271,0,0,1-2.139-.886,21.252,21.252,0,0,1,.114-4.4,9.664,9.664,0,0,1,1.812-6.258c0.142-.3.288-0.607,0.444-0.9A0.766,0.766,0,0,1,8.911,67.117ZM29.494,72.83c-1.9.438-3.745,1.033-5.63,1.493-0.088.1-.171,0.191-0.242,0.265a18.231,18.231,0,0,0-1.45,1.732,10.931,10.931,0,0,1-2.282,2.553A22.139,22.139,0,0,1,16.624,80.6c-2.634,1.283-5.359,3-8.183,3.8-0.861.244-1.721-.994-0.935-1.606,2.39-1.862,5.431-3.092,8.1-4.506a9.659,9.659,0,0,0,3.508-2.373,35.19,35.19,0,0,1,2.352-3.106,8.7,8.7,0,0,1,3.01-2.411c1.074-.379,2.072.246,3.126-0.025a13.185,13.185,0,0,0,2.806-1.508,6.952,6.952,0,0,1,2.91-.893,1.334,1.334,0,0,1,1.146,2A8.039,8.039,0,0,1,29.494,72.83ZM7.328,88.589C7.313,88.3,7.3,88.013,7.3,87.724a1.073,1.073,0,0,1,1.568-.962c1.962-2.159,5.246-3.243,7.889-4.191a67.442,67.442,0,0,0,8.171-3.456l0.273-.172c3.33-2.1,6.76-3.984,9.5-6.876a0.521,0.521,0,0,1,.736.736c-0.34.409-.7,0.8-1.076,1.168a26.864,26.864,0,0,1-5.025,4.463A52.939,52.939,0,0,1,23.4,81.661,8.223,8.223,0,0,0,22.35,82.7a27.959,27.959,0,0,0-2.722,3.635c1.337,1.466.279,4.1-.858,5.618-1.826,2.433-4.884,4.113-6.062,7a1.283,1.283,0,0,1-2.313.3c-0.21-.363-0.406-0.73-0.594-1.1a0.86,0.86,0,0,1-.539-0.5c-0.038-.088-0.073-0.177-0.111-0.266h0L9.14,97.355a26.462,26.462,0,0,1-1.885-6.494,5.387,5.387,0,0,1,.075-2.2C7.329,88.636,7.329,88.612,7.328,88.589Zm11.084-4.281c0.107-.134.215-0.268,0.326-0.4l-0.565.273A1.269,1.269,0,0,1,18.411,84.308Zm-5.635,20.354a1.748,1.748,0,0,1,.264-0.7,1.117,1.117,0,0,1,.527-0.453,62.84,62.84,0,0,1,5.959-6.485,38.743,38.743,0,0,1,3.535-3.3A30.109,30.109,0,0,0,26.5,91.07c0.6-.733,1.614.206,1.237,0.954a5.573,5.573,0,0,1-1.22,1.578,100.654,100.654,0,0,0-7.662,10.924c-0.923,1.594-1.761,3.993-4.019,3.911a2.193,2.193,0,0,1-2.166-2.318,1.341,1.341,0,0,1-.017-0.385,1.535,1.535,0,0,1,.139-0.517A0.616,0.616,0,0,1,12.776,104.662Zm5.323-2.711c0.208-.3.422-0.6,0.634-0.9q-0.36.377-.727,0.746A1.287,1.287,0,0,1,18.1,101.951Zm3.046,4.863a1.159,1.159,0,0,1,.431-1.749c3.644-2.081,4.459-6.911,7.3-9.8a1.232,1.232,0,0,1,1.59-.058q0.1-.177.207-0.352c2.149-3.946,4.417-7.937,8.9-9.535a1.158,1.158,0,0,1,1.288.524c1.668,2.746-.445,5.247-2.55,6.9-0.844.664-1.693,1.321-2.54,1.981a20.421,20.421,0,0,1-4.482,3.866,11.994,11.994,0,0,1-2.322,2.776,37.478,37.478,0,0,1-3.03,3.5,7.807,7.807,0,0,1-1.826,1.8c-1.951,1.854-4,3.618-5.917,5.416a0.891,0.891,0,0,1-1.26-1.259C18.295,109.481,19.726,108.16,21.145,106.814ZM39.023,88.265a1.888,1.888,0,0,0,.067-0.31c-0.1.048-.2,0.1-0.3,0.15A0.981,0.981,0,0,1,39.023,88.265Zm-18.485,26.61a32.164,32.164,0,0,0,8.1-6.568l0.092-.108a1.074,1.074,0,0,1-.009-0.863c1.9-4.314,6.146-7.415,10.051-9.838,2.029-1.258,4.167-2.285,6.279-3.392a23.368,23.368,0,0,1,7.6-2.755,0.842,0.842,0,0,1,.938,1.219c-1.391,2.632-4.231,3.532-6.778,4.694a35.989,35.989,0,0,0-4.79,2.832,42.6,42.6,0,0,1-4.771,2.421c-3.408,1.672-4.983,4.933-7.494,7.6a31.016,31.016,0,0,1-8.351,6.255A0.868,0.868,0,0,1,20.538,114.875Zm8.883,1.8c1.312-1.756,2.618-3.518,3.936-5.27a16.311,16.311,0,0,1,3.2-3.5c1.457-1.073,3.084-1.238,4.731-1.847,1.836-.678,3.215-2.072,4.872-3.049a1.092,1.092,0,0,1,1.567.454c0.864-.875,1.723-1.756,2.623-2.592,1.619-1.5,4.044-4.02,6.461-3.354a1.069,1.069,0,0,1,.252,1.928c-2.527,1.722-4.673,4.1-7.081,5.993-0.9.711-1.828,1.391-2.767,2.051a26.307,26.307,0,0,1-2.249,1.952c-2.1,1.6-4.524,2.543-6.826,3.788a28.952,28.952,0,0,0-4.914,3.38,29.881,29.881,0,0,0-2.292,2.484c-0.624.757-1.768-.169-1.4-0.977A1.059,1.059,0,0,1,29.421,116.677ZM47.606,87a14.959,14.959,0,0,1-1.731,3.187c-0.562.914-1.175,2.182-2.348,2.362a1.054,1.054,0,0,1-1.254-.712c-0.369-1.158.435-2.221,1.027-3.154a15.152,15.152,0,0,1,2.092-2.971A1.335,1.335,0,0,1,47.606,87Zm5.444-11.754a8.427,8.427,0,0,1,4.52,6.182,1.054,1.054,0,0,1-.47,1.154c-2.219,1.239-4.512.314-6.791-.306-0.019.011-.036,0.023-0.055,0.033a2.493,2.493,0,0,1-2.97-.538c-1.178-.083-2.369-0.076-3.541-0.052a3.736,3.736,0,0,0-2.451.778,4.047,4.047,0,0,1-1.585.765,16.922,16.922,0,0,0-4.533,1.193c-1.353.7-2.6,1.583-3.907,2.353-2.507,1.472-5.261,2.471-8.175,1.792a1.394,1.394,0,0,1-.329-2.52c0.149-.086.305-0.168,0.464-0.249a0.623,0.623,0,0,1,.283-0.2,23.751,23.751,0,0,0,13.015-10.88,0.875,0.875,0,0,1,1.495,0c1.1,1.623,3.311.319,4.292-.655,1.078-1.07,1.924-2.349,3-3.422A21.987,21.987,0,0,1,52.9,65.845a0.893,0.893,0,0,1,1,1.3,14.958,14.958,0,0,0-2.343,4.515,4.223,4.223,0,0,0-.321,2.425C51.523,74.775,52.448,74.958,53.051,75.249Zm-1.1,1.821a6.907,6.907,0,0,1,.916.59,1.362,1.362,0,0,1,.364.053c0.081,0.024.159,0.053,0.237,0.081a6.192,6.192,0,0,0-.8-0.594,8.5,8.5,0,0,0-.876-0.458A3.592,3.592,0,0,1,51.956,77.071Zm-16.18,40.589a5.279,5.279,0,0,1,1.152-.078,1.168,1.168,0,0,1,.537-1.486c2.224-1.026,5.011-.41,7.069-1.714,1.864-1.181,3.1-3.506,4.642-5.059a52.673,52.673,0,0,1,5.49-4.788c0.972-.741,1.963-1.454,2.961-2.159,0.708-.5,1.433-1.365,2.364-1.088a0.915,0.915,0,0,1,.542,1.333,0.957,0.957,0,0,1-.847.481,0.7,0.7,0,0,1-.309-0.072c0.046,0.347-2.385,2.093-2.728,2.361-0.961.75-1.907,1.522-2.817,2.333a26.737,26.737,0,0,0-4.485,5.153,11.4,11.4,0,0,1-3.9,3.947,6.958,6.958,0,0,1-2.43.688,3.078,3.078,0,0,1,.035,2.922,1.322,1.322,0,0,1-1.46.595c-1.906-.413-4.718-0.734-6.134-2.174A0.721,0.721,0,0,1,35.776,117.659ZM37.671,129a1.274,1.274,0,0,1,1.34-1.572c3.245,0.365,6.108-.612,8.992-2.021,2.8-1.367,5.555-2.815,8.346-4.2a1.074,1.074,0,0,1,1.084,1.854c-1.938,1.18-3.009,3.469-4.676,4.974-1.541,1.391-3.483,2.008-5.327,2.878a9.35,9.35,0,0,0-2.73,1.841,2.76,2.76,0,0,1-2.267,1.139,7.133,7.133,0,0,1-2.821-1.358,24.866,24.866,0,0,1-2.873-2.029C35.91,129.823,36.84,128.839,37.671,129Zm21.467-7.76a0.824,0.824,0,0,1,1.5.632c-0.537,2.849-2.617,5.044-3.445,7.794a34.755,34.755,0,0,0-1.179,10.66,1.359,1.359,0,0,1-1,1.307,1.937,1.937,0,0,1-2.123-.9,6.33,6.33,0,0,1-1.883-2.088,7.176,7.176,0,0,1-1.3-2.277c-0.372-1.686,1.171-2.958,2.11-4.148A114.52,114.52,0,0,0,59.138,121.236Zm-5.091,12.249c0.044-.208.1-0.415,0.143-0.623q-0.166.216-.334,0.431A1.027,1.027,0,0,1,54.047,133.485Zm8.83-2.566a24.655,24.655,0,0,1,2.9-2.729,7.565,7.565,0,0,0,1.054-1.075c0.2-.624.418-1.245,0.645-1.863a1.226,1.226,0,0,1,.441-0.573,10.038,10.038,0,0,1,.987-3.211,0.659,0.659,0,0,1,1.2.506,21.347,21.347,0,0,0-.349,2.835,1.029,1.029,0,0,1,.184.777,41.861,41.861,0,0,0,1.675,17.709,1.321,1.321,0,0,1-1.92,1.476,19.53,19.53,0,0,0-3.8-1.342c-1.138-.4-1.523-1.4-2.016-2.407l-1.992-4.079c-0.434-.889-1.4-2.091-1.057-3.116A10.323,10.323,0,0,1,62.876,130.919Zm8.647-7.315a8.01,8.01,0,0,0,.458-3.134c-0.066-.982-0.467-1.888-0.456-2.866a0.739,0.739,0,0,1,.846-0.718,4.567,4.567,0,0,1,.764-2.054A5.249,5.249,0,0,1,77,113.007a1.117,1.117,0,0,1,.96,1.673c-1.01,1.412-.445,2.943.183,4.392,0.382,0.881,1.121,1.984.837,2.993a2.828,2.828,0,0,1-1.954,1.569,23.911,23.911,0,0,1-4.184,1.288A1.083,1.083,0,0,1,71.523,123.6Zm3.231-6.951a0.947,0.947,0,0,1,.467-0.176,5.49,5.49,0,0,1,.009-0.564,2.134,2.134,0,0,0-.455.541c-0.036.06-.062,0.124-0.092,0.186Zm3.063-4.982a6.729,6.729,0,0,1-3.511-2.637,0.476,0.476,0,0,1,.4-0.706,3.149,3.149,0,0,1,1.742.4,21.39,21.39,0,0,1,4.885-7.738c0.789-.87,1.72-2.2,2.973-2.354a1.571,1.571,0,0,1,1.752,1.862c-0.244,1.473-1.734,3.051-2.521,4.291-1.031,1.625-2.065,3.248-3.123,4.856C79.782,110.616,79.212,112.108,77.817,111.671Zm7.614,2.363a1.189,1.189,0,0,1-.227-0.768c0.053-1.88.115-3.758,0.2-5.637,0.063-1.367-.237-3.234.635-4.357a0.838,0.838,0,0,1,1.34-.056,3.47,3.47,0,0,1,2.955,3.374,10.3,10.3,0,0,1-.931,4.093l-1.7,4.7c-0.578,1.594-3.153.854-2.531-.7Zm2.375-6.015c0.323-1.01.515-2.149-.083-2.755C87.7,106.169,87.77,107.116,87.806,108.019ZM68.419,82.674A2.868,2.868,0,0,1,70.6,81.367a2.565,2.565,0,0,1,2.392,3.575c-0.538,1.443-2.541,3.25-4.045,1.958a3.375,3.375,0,0,1-.825-3.628A2.862,2.862,0,0,1,68.419,82.674Zm-5.3,6.835c-1.391-.053-1.246-1.627-1-2.556a25.3,25.3,0,0,1,.811-3.434,0.983,0.983,0,0,1,1.876,0A6.56,6.56,0,0,1,64.9,87.19C64.714,88.153,64.383,89.557,63.122,89.509Zm4.759,2.006a5.65,5.65,0,0,1,2.42-1.451,0.95,0.95,0,0,1,1.153,1.153c-0.579,1.9-3.3,3.239-4.922,4.185a16.373,16.373,0,0,1-6.209,2.5c-0.829.094-.9-1.012-0.379-1.4,1.665-1.243,3.637-2.029,5.383-3.164C66.208,92.77,67.047,92.148,67.882,91.515ZM83.518,89.84a11.592,11.592,0,0,0-3.471,1.184c-1.111.752-1.315,2.055-1.519,3.292a9.085,9.085,0,0,1-1.125,3.8c-0.516.733-1.023,0.617-1.815,0.785a3.189,3.189,0,0,0-1.913,1.259c-1.249,1.549-3.433-.654-2.188-2.188a5.787,5.787,0,0,1,3.568-2.065c0.947-2.335.412-5.057,2.481-6.983,1.832-1.706,4.388-1.656,6.573-2.582,2.844-1.206,1.924-4.662,2.742-7.067a5.422,5.422,0,0,1,3.859-3.86,8.263,8.263,0,0,1,1.31-2.659c0.67-1.773,1.807-3.9,3.36-4.438a5.949,5.949,0,0,1-2.957-1.008c-2.928,3.56-3.988,8.233-6.66,11.976-2.433,3.407-6.708,7.064-11.186,5.664a1.072,1.072,0,0,1,.284-2.095c9.73-.532,10.678-12.719,16.557-18.3a1.308,1.308,0,0,1,1.831,0c1.74,2.239,5.211.943,7.464,0.337q5.287-1.424,10.573-2.855c1.22-.332,2.1,1.578.882,2.092a29.043,29.043,0,0,0-7.984,5.049,1.047,1.047,0,0,1-.312,1.585c-1.871,1.029-2.2,2.849-3.074,4.625a12.866,12.866,0,0,1-3.517,4.023,1.619,1.619,0,0,1-2.641-1.4,14.747,14.747,0,0,1-1.55-.3,1.485,1.485,0,0,1-1.571.574c-2.507-.465-2.228,5.79-2.635,7.106C88.088,87.963,85.968,89.159,83.518,89.84Zm18.948-22.266q0.423-.36.857-0.707-0.724.212-1.452,0.414A1.17,1.17,0,0,1,102.466,67.574Zm-5.107.958c0.194-.044.386-0.09,0.572-0.14,0.493-.132.974-0.294,1.453-0.46a15.484,15.484,0,0,1-2.454.4A2.042,2.042,0,0,1,97.359,68.532Z"/>
  <path id="Shape_122_copy_5" data-name="Shape 122 copy 5" class="cls-6" d="M77.059,51.612a8.507,8.507,0,0,0-1.52.149c-2.536.461-18.445,5.764-18.445,5.764-1.383,2.767-1.383,9.453-.692,11.759s6.225,8.531,11.067,9.222a9.35,9.35,0,0,0,1.314.086c5.257,0,14.517-3.557,16.209-11.383,1.845-8.53-3.458-13.833-4.611-14.525a5.823,5.823,0,0,0-3.322-1.071"/>
  <path id="Shape_122_copy_7" data-name="Shape 122 copy 7" class="cls-7" d="M68.392,56.141s-1.383,5.3,2.767,5.764,4.611-2.306,4.15-4.38S72.542,53.836,68.392,56.141Z"/>
  <path id="Shape_122_copy_2" data-name="Shape 122 copy 2" class="cls-8" d="M75,8.691A66.328,66.328,0,0,1,100.809,136.1,66.328,66.328,0,0,1,49.191,13.9,65.887,65.887,0,0,1,75,8.691M75,2.6A72.4,72.4,0,1,0,147.4,75,72.4,72.4,0,0,0,75,2.6h0Z"/>
  <path id="Shape_122_copy_3" data-name="Shape 122 copy 3" class="cls-9" d="M75,3.634a71.385,71.385,0,0,1,27.778,137.124A71.385,71.385,0,0,1,47.222,9.242,70.917,70.917,0,0,1,75,3.634m0-1.757A73.123,73.123,0,1,0,148.123,75,73.123,73.123,0,0,0,75,1.877h0Z"/>
  <path id="Shape_122_copy_4" data-name="Shape 122 copy 4" class="cls-9" d="M75,8.9a66.113,66.113,0,0,1,25.727,127A66.113,66.113,0,0,1,49.273,14.1,65.681,65.681,0,0,1,75,8.9m0-1.628A67.723,67.723,0,1,0,142.723,75,67.723,67.723,0,0,0,75,7.277h0Z"/>
</svg>
