<svg id="ger_berlin_prem_engineer_1_icon" xmlns="http://www.w3.org/2000/svg" width="150" height="150" viewBox="0 0 150 150">
  <metadata><?xpacket begin="﻿" id="W5M0MpCehiHzreSzNTczkc9d"?>
<x:xmpmeta xmlns:x="adobe:ns:meta/" x:xmptk="Adobe XMP Core 5.6-c138 79.159824, 2016/09/14-01:09:01        ">
   <rdf:RDF xmlns:rdf="http://www.w3.org/1999/02/22-rdf-syntax-ns#">
      <rdf:Description rdf:about=""/>
   </rdf:RDF>
</x:xmpmeta>
                                                                                                    
                                                                                                    
                                                                                                    
                                                                                                    
                                                                                                    
                                                                                                    
                                                                                                    
                                                                                                    
                                                                                                    
                                                                                                    
                                                                                                    
                                                                                                    
                                                                                                    
                                                                                                    
                                                                                                    
                                                                                                    
                                                                                                    
                                                                                                    
                                                                                                    
                                                                                                    
                           
<?xpacket end="w"?></metadata>
<defs>
    <style>
      .cls-1 {
        fill: #111;
      }

      .cls-1, .cls-2 {
        fill-rule: evenodd;
      }

      .cls-2 {
        fill: #e4e4e4;
      }
    </style>
  </defs>
  <path class="cls-1" d="M75.8,149H74.2l-0.413-.154c-0.851-.319-21.063-8.019-40.273-27.317C14.161,102.086,14.892,70.177,15,68V1H135V68c0.109,2.177.838,34.084-18.508,53.522-19.212,19.3-39.423,27-40.274,27.317Z"/>
  <path class="cls-2" d="M72.283,75.505L41.992,23.063S40,19.656,40,9a3.521,3.521,0,0,1,1.612.268L77,73H75ZM50.811,14.966C71.088,51.723,81.25,70.438,81.25,70.438L79,72,44.037,9.66S49.406,12.418,50.811,14.966ZM74.638,145.294a122.955,122.955,0,0,1-39.4-26.752c-15.629-15.7-17.216-40.477-17.282-48.881C17.968,68.6,18,68,18,68V66.764s0-.012,0-0.012V4H132l0.012-.046L132,68s0.034,0.661.043,1.82c-0.086,8.485-1.737,32.683-16.883,48.3L94.873,81.912l2.173-3.844-1.671-1.5c-0.415-1.071.208-2.746-.668-2.841C92.9,75.418,91.865,76.4,91.865,76.4l-5.181-9.359-3.559,2.118s-24.469-43.867-30.1-54a13.844,13.844,0,0,0-3.97-4.609A18.96,18.96,0,0,0,43.6,8.045C39.786,6.718,38,7,38,7s-0.231,11,2,16L70,76a2.463,2.463,0,0,1-1.365,2.068c-2.86.334-4.208-2.817-5.348-4.846-1.255.889-2.008,1.419-2.841,2.005,4.749,9.678,10.618,6.539,12.2,6.685,0.166,3.568,4.672,3.641,5.515,5.515,0.421,0.861-.162,4.778,1,6.852,2.321,5.083,5.894,4.5,6.184,8.189a1.743,1.743,0,0,0,1.17.334L87,104v10.987l4.354-2.52L101.4,130.232a122.842,122.842,0,0,1-26.038,15.062H74.638ZM108,37.977a13.989,13.989,0,1,0-13.99-13.989A13.989,13.989,0,0,0,108,37.977Zm0-24.985a11,11,0,1,1-11,11A11,11,0,0,1,108,12.992ZM88,112v-7l7.522-4.618L99,106Zm5.566-8.175a1.745,1.745,0,1,0,1.745,1.745A1.745,1.745,0,0,0,93.566,103.825ZM85.245,70.2l18.778,33.386-2.659,1.662L82.451,72.068Zm22.425,37.856,0.4,0.728-12.536,7.2L93,111.785l12.519-7.2,0.49,0.815-11.023,6.368,1.479,2.659Z"/>
</svg>
