<svg id="ger_normandy_radioman_1_icon" xmlns="http://www.w3.org/2000/svg" width="150" height="150" viewBox="0 0 150 150">
  <defs>
    <style>
      .cls-1 {
        fill: #eee;
      }

      .cls-1, .cls-2, .cls-4 {
        fill-rule: evenodd;
      }

      .cls-2, .cls-3 {
        fill: #151515;
      }

      .cls-4 {
        fill: #f2f2f2;
      }
    </style>
  </defs>
  <g id="usa_normandy_flametrooper_1">
    <path id="Shape_81_copy" data-name="Shape 81 copy" class="cls-1" d="M75.136,120.6H74.864c-26.29,0-48.072-21.312-48.072-47.6V2.9h96.416V73C123.208,99.287,101.426,120.6,75.136,120.6Z"/>
    <path id="Shape_82_copy" data-name="Shape 82 copy" class="cls-2" d="M75.136,121.835H74.864c-26.929,0-49.308-21.908-49.308-48.837V1.665h98.888V73C124.444,99.927,102.065,121.835,75.136,121.835ZM28.028,4.137V73c0,25.566,21.27,46.365,46.836,46.365h0.272c25.566,0,46.836-20.8,46.836-46.365V4.137H28.028Z"/>
    <path id="Shape_99_copy" data-name="Shape 99 copy" class="cls-2" d="M99.4,69.857l-4.35-2.342a23.405,23.405,0,0,1-1.161-7.859,15.006,15.006,0,0,0,5.8-10.518c0.476-7.783-5.95-12.861-6.224-13.074-0.023-.018-0.047-0.035-0.071-0.052a1.4,1.4,0,0,0-.151-0.159,36.838,36.838,0,0,0-7.15-4.638l-0.463-.334a17.965,17.965,0,0,0-10.313-3.221,19.045,19.045,0,0,0-8.864,2.224c-0.475.251-.88,0.475-1.207,0.662a38.9,38.9,0,0,0-8.495,5.3,1.429,1.429,0,0,0-.153.161c-0.025.017-.05,0.035-0.073,0.053-0.272.211-6.7,5.289-6.222,13.072a15,15,0,0,0,5.8,10.521,23.411,23.411,0,0,1-1.161,7.856L50.6,69.857c-8.144,2.616-6.234,11.32-6.214,11.408a1.475,1.475,0,0,0,1.444,1.148h7.563c0.991,3.175,1.765,5.912,2.3,8.141a1.486,1.486,0,0,0,1.262,1.123c0.1,0.013,10.5,1.333,17.212,5.579a1.478,1.478,0,0,0,.792.23h0.086a1.477,1.477,0,0,0,.793-0.23c6.71-4.245,17.109-5.565,17.214-5.578a1.486,1.486,0,0,0,1.26-1.123c0.537-2.23,1.311-4.967,2.3-8.141h7.562a1.476,1.476,0,0,0,1.444-1.148C105.638,81.177,107.548,72.473,99.4,69.857Z"/>
    <path class="cls-1" d="M104.174,80.924h-8.65c-0.972,3.062-1.96,6.394-2.654,9.276,0,0-10.725,1.3-17.826,5.8H74.957c-7.1-4.493-17.827-5.8-17.827-5.8-0.694-2.882-1.682-6.214-2.654-9.276H45.826s-1.739-7.536,5.362-9.71l4.977-2.68a23.418,23.418,0,0,0,1.37-9.639H57.56c-0.11-.083-0.222-0.171-0.34-0.265L57.058,58.5c-0.125-.1-0.251-0.207-0.382-0.321s-0.269-.235-0.407-0.362c-0.073-.067-0.146-0.138-0.22-0.209q-0.19-.181-0.382-0.377c-0.064-.065-0.127-0.129-0.192-0.2-0.19-.2-0.379-0.407-0.567-0.628-0.031-.036-0.06-0.074-0.091-0.111q-0.248-.3-0.489-0.617c-0.048-.064-0.1-0.128-0.144-0.194-0.179-.245-0.354-0.5-0.522-0.765l-0.024-.037c-0.176-.28-0.342-0.575-0.5-0.878-0.036-.069-0.07-0.139-0.105-0.209q-0.192-.382-0.36-0.787c-0.028-.067-0.057-0.131-0.084-0.2-0.13-.328-0.247-0.666-0.35-1.015-0.019-.065-0.034-0.133-0.052-0.2q-0.12-.437-0.208-0.9c-0.019-.1-0.039-0.2-0.055-0.3a11.481,11.481,0,0,1-.137-1.159c-0.435-7.1,5.652-11.812,5.652-11.812L57.9,37l-0.158-.048a37.7,37.7,0,0,1,8.193-5.094c0.324-.185.733-0.413,1.214-0.667a16.994,16.994,0,0,1,17.629.9l0.13,0.091-0.077.052a36.562,36.562,0,0,1,7.426,4.722L92.1,37l0.462,0.231s6.087,4.71,5.652,11.812a11.452,11.452,0,0,1-.137,1.159c-0.017.1-.036,0.2-0.055,0.3q-0.088.459-.208,0.9c-0.018.066-.033,0.134-0.052,0.2-0.1.349-.221,0.687-0.35,1.015-0.027.068-.056,0.132-0.084,0.2q-0.169.4-.361,0.787c-0.035.07-.069,0.14-0.105,0.209-0.159.3-.325,0.6-0.5,0.878l-0.024.037c-0.168.266-.343,0.519-0.522,0.765-0.048.066-.1,0.13-0.143,0.194Q95.43,56,95.182,56.3c-0.031.036-.06,0.075-0.091,0.111-0.188.22-.378,0.428-0.567,0.628-0.064.068-.128,0.131-0.192,0.2q-0.192.2-.382,0.377c-0.074.071-.147,0.142-0.22,0.209-0.138.127-.273,0.247-0.406,0.362s-0.257.218-.382,0.321l-0.162.131c-0.118.094-.23,0.182-0.34,0.265h0.025a23.418,23.418,0,0,0,1.37,9.639l4.977,2.68C105.913,73.388,104.174,80.924,104.174,80.924ZM60.228,58.76L60.194,58.7l-0.081-.131c-0.036-.06-0.077-0.128-0.119-0.2l-0.022-.036c-0.052-.089-0.108-0.187-0.168-0.293l-0.018-.032c-0.053-.1-0.109-0.2-0.167-0.3l-0.038-.071c-0.053-.1-0.106-0.2-0.162-0.309l-0.05-.1c-0.053-.1-0.107-0.212-0.162-0.324l-0.058-.12c-0.054-.111-0.108-0.225-0.163-0.344l-0.063-.138c-0.054-.119-0.108-0.24-0.163-0.365L58.7,55.788q-0.081-.19-0.162-0.389l-0.067-.165q-0.081-.2-0.161-0.414c-0.022-.057-0.044-0.115-0.065-0.173-0.054-.145-0.107-0.294-0.159-0.444-0.02-.059-0.041-0.116-0.061-0.176-0.053-.157-0.106-0.318-0.157-0.481-0.018-.057-0.036-0.112-0.054-0.17-0.054-.174-0.106-0.353-0.157-0.533-0.014-.049-0.028-0.1-0.042-0.147q-0.084-.306-0.162-0.623c-0.007-.028-0.015-0.056-0.021-0.084A21.537,21.537,0,0,1,57,49.679c-0.006-.046-0.01-0.094-0.016-0.14-0.026-.217-0.051-0.436-0.07-0.658C56.908,48.8,56.9,48.724,56.9,48.646c-0.015-.193-0.028-0.387-0.037-0.584,0-.095-0.006-0.19-0.009-0.285-0.006-.183-0.01-0.366-0.011-0.551,0-.106,0-0.212,0-0.319,0-.177.007-0.355,0.015-0.534,0-.114.012-0.228,0.019-0.342q0.016-.262.04-0.526c0.011-.12.023-0.239,0.037-0.359q0.029-.26.067-0.523c0.018-.124.036-0.247,0.056-0.372,0.029-.174.061-0.348,0.1-0.523,0.025-.126.05-0.253,0.077-0.38,0.038-.175.082-0.352,0.126-0.528,0.032-.127.063-0.254,0.1-0.382,0.049-.179.105-0.359,0.161-0.539,0.039-.126.076-0.252,0.119-0.378,0.063-.187.133-0.374,0.2-0.561,0.045-.12.087-0.24,0.135-0.36,0.082-.206.175-0.413,0.267-0.619,0.045-.1.086-0.2,0.134-0.306,0.144-.308.3-0.617,0.465-0.926l1.166-1.076-1.306-.4-0.184,2.105s-2.864,2.122-3.516,8.5a9.62,9.62,0,0,0-.046,1.126c0,0.117.015,0.23,0.021,0.346,0.013,0.251.027,0.5,0.058,0.746,0.016,0.129.041,0.254,0.062,0.381,0.037,0.227.076,0.453,0.127,0.673,0.029,0.125.063,0.246,0.1,0.369,0.058,0.218.12,0.434,0.19,0.645,0.038,0.114.078,0.226,0.118,0.337q0.118,0.323.25,0.634c0.042,0.1.084,0.2,0.128,0.292q0.149,0.326.311,0.636c0.04,0.078.08,0.157,0.121,0.233q0.185,0.34.381,0.659c0.03,0.05.06,0.1,0.09,0.15,0.159,0.254.322,0.5,0.486,0.733l0.008,0.013a18.068,18.068,0,0,0,1.517,1.868L59.1,57.792c0.123,0.131.242,0.255,0.353,0.366l0.117,0.116c0.083,0.082.164,0.161,0.237,0.23l0.142,0.133,0.127,0.116,0.16,0.142h0.074Zm3.5-19.993,0.161,0.562s-6.667,9.493-.29,19.566h1.594a31.527,31.527,0,0,1-.073-19.565l0.122-.1Zm9.509,9.186A42.684,42.684,0,0,0,71.062,39.4l1.89-1.534-3.185,2.287h0c-0.076.126-.159,0.27-0.245,0.426l-0.042.076c-0.087.159-.178,0.331-0.272,0.518l-0.027.056c-0.087.175-.176,0.364-0.265,0.563l-0.047.1c-0.093.21-.186,0.434-0.279,0.669-0.02.051-.04,0.1-0.06,0.156-0.094.246-.188,0.5-0.278,0.771l-0.017.054c-0.085.256-.165,0.525-0.243,0.8-0.018.064-.036,0.127-0.054,0.193q-0.117.433-.219,0.9c-0.015.067-.028,0.136-0.042,0.2-0.062.3-.12,0.612-0.17,0.933-0.006.035-.012,0.069-0.018,0.1-0.051.342-.092,0.7-0.126,1.06-0.008.084-.016,0.169-0.023,0.255-0.03.365-.051,0.738-0.061,1.122,0,0.068,0,.138,0,0.207q-0.008.539,0.014,1.1c0,0.066,0,.13.007,0.2,0.02,0.41.056,0.83,0.1,1.258,0.011,0.1.023,0.193,0.035,0.29,0.055,0.439.12,0.884,0.206,1.34,0.009,0.049.021,0.1,0.031,0.148,0.084,0.43.185,0.869,0.3,1.315,0.023,0.088.044,0.176,0.068,0.265q0.191,0.707.438,1.439c0.034,0.1.071,0.2,0.106,0.3,0.179,0.509.372,1.024,0.594,1.549l-0.3.362h3.2l-0.942-.942S73.671,51.865,73.236,47.952Zm9.487,1.167c-0.01-.384-0.031-0.758-0.061-1.122-0.007-.086-0.015-0.17-0.023-0.255-0.034-.362-0.075-0.718-0.126-1.059-0.005-.035-0.012-0.069-0.018-0.1-0.05-.321-0.108-0.631-0.17-0.933-0.014-.068-0.028-0.137-0.042-0.2q-0.1-.465-0.219-0.9c-0.018-.065-0.036-0.128-0.054-0.193-0.078-.277-0.159-0.547-0.243-0.8-0.006-.018-0.011-0.037-0.017-0.054-0.09-.271-0.184-0.525-0.278-0.771-0.02-.052-0.04-0.1-0.06-0.156-0.092-.234-0.186-0.459-0.279-0.669l-0.048-.1c-0.09-.2-0.178-0.388-0.265-0.563l-0.027-.056c-0.094-.187-0.184-0.359-0.272-0.518l-0.042-.076c-0.086-.156-0.17-0.3-0.245-0.426l-1-.715h0l-0.016.044-0.039.108-0.017.046-0.069.195-0.019.055-0.093.268-0.024.07c-0.035.1-.072,0.211-0.111,0.327l-0.029.088c-0.039.118-.08,0.244-0.123,0.375l-0.035.109c-0.042.131-.086,0.27-0.13,0.413l-0.041.133c-0.044.142-.088,0.29-0.134,0.441l-0.047.157c-0.044.149-.089,0.3-0.133,0.46l-0.052.181c-0.043.154-.086,0.312-0.129,0.472-0.018.068-.037,0.136-0.055,0.2-0.041.157-.082,0.317-0.123,0.478-0.019.075-.038,0.15-0.057,0.226-0.039.158-.077,0.319-0.114,0.48-0.019.081-.038,0.162-0.057,0.244-0.036.159-.07,0.32-0.1,0.48-0.018.085-.037,0.17-0.054,0.256-0.033.161-.063,0.323-0.093,0.484-0.016.085-.033,0.171-0.048,0.256-0.03.171-.057,0.341-0.083,0.511-0.012.075-.025,0.151-0.036,0.226-0.036.244-.067,0.486-0.094,0.726-0.435,3.913,2.1,10,2.1,10l-0.942.942h2.89l-0.3-.362c0.223-.525.415-1.04,0.594-1.549,0.036-.1.072-0.2,0.106-0.3q0.247-.731.438-1.439c0.024-.089.045-0.177,0.068-0.265,0.114-.445.216-0.884,0.3-1.315,0.009-.049.022-0.1,0.031-0.148,0.086-.456.152-0.9,0.206-1.34,0.012-.1.024-0.194,0.034-0.29,0.047-.428.083-0.849,0.1-1.258,0-.066,0-0.13.007-0.2q0.022-.563.014-1.1C82.723,49.258,82.724,49.188,82.723,49.12Zm3.55-10.353-1.515.46,0.122,0.1a31.527,31.527,0,0,1-.072,19.566H86.4c6.377-10.073-.29-19.565-0.29-19.565Zm6.206,17.087,0.008-.013c0.164-.233.326-0.479,0.486-0.733,0.031-.049.06-0.1,0.09-0.15q0.2-.32.381-0.659c0.041-.076.081-0.155,0.121-0.233q0.162-.311.311-0.636c0.044-.1.086-0.194,0.128-0.292q0.133-.31.25-0.634c0.041-.112.081-0.223,0.118-0.337,0.07-.211.132-0.427,0.19-0.645,0.033-.123.067-0.244,0.1-0.369,0.051-.221.09-0.447,0.127-0.673,0.021-.127.046-0.252,0.062-0.381,0.031-.244.045-0.495,0.058-0.746,0.006-.116.019-0.229,0.021-0.346a9.642,9.642,0,0,0-.046-1.126c-0.652-6.377-3.517-8.5-3.517-8.5L91.18,37.276l-1.306.4,1.166,1.077c0.166,0.309.321,0.618,0.465,0.926,0.048,0.1.088,0.2,0.134,0.306,0.092,0.206.184,0.413,0.267,0.619,0.048,0.12.09,0.24,0.135,0.36,0.07,0.187.141,0.374,0.2,0.561,0.043,0.126.08,0.252,0.119,0.378,0.056,0.18.112,0.36,0.161,0.539,0.035,0.128.066,0.255,0.1,0.382,0.044,0.177.088,0.353,0.126,0.528,0.028,0.127.053,0.253,0.077,0.38,0.034,0.175.067,0.349,0.1,0.523,0.02,0.124.039,0.248,0.056,0.372q0.037,0.263.067,0.523,0.02,0.18.037,0.359,0.024,0.264.04,0.526c0.007,0.114.014,0.229,0.019,0.342,0.008,0.179.012,0.357,0.014,0.534,0,0.106,0,.213,0,0.319,0,0.185,0,.368-0.011.551,0,0.1,0,.191-0.009.285-0.009.2-.023,0.39-0.037,0.584-0.006.078-.01,0.157-0.017,0.235-0.02.222-.044,0.441-0.07,0.658-0.006.047-.01,0.094-0.016,0.14a21.536,21.536,0,0,1-.427,2.309c-0.007.029-.014,0.056-0.021,0.084q-0.078.317-.162,0.623c-0.014.05-.028,0.1-0.042,0.147-0.051.181-.1,0.359-0.157,0.533-0.018.057-.036,0.113-0.054,0.17-0.052.163-.1,0.324-0.157,0.481-0.02.059-.041,0.117-0.061,0.176-0.053.151-.105,0.3-0.159,0.444l-0.065.173q-0.08.212-.161,0.414l-0.067.165q-0.081.2-.162,0.389l-0.066.153c-0.055.125-.109,0.246-0.163,0.365l-0.063.138c-0.055.119-.109,0.232-0.163,0.344l-0.058.12c-0.055.113-.109,0.22-0.162,0.324l-0.05.1c-0.056.108-.109,0.21-0.162,0.309l-0.038.071c-0.058.108-.114,0.209-0.167,0.3l-0.018.032c-0.059.105-.115,0.2-0.168,0.293l-0.022.036c-0.042.071-.082,0.139-0.118,0.2l-0.081.131-0.034.055-0.086.135h0.074l0.16-.142,0.127-.116,0.142-.133c0.073-.07.154-0.148,0.237-0.23l0.117-.116c0.111-.112.23-0.235,0.353-0.366l0.067-.071A18.068,18.068,0,0,0,92.479,55.853Z"/>
    <path id="Shape_99_copy_3" data-name="Shape 99 copy 3" class="cls-2" d="M88.7,40.049a0.773,0.773,0,1,1,.773-0.773A0.773,0.773,0,0,1,88.7,40.049ZM83.263,58.564a0.725,0.725,0,1,1,.725-0.725A0.725,0.725,0,0,1,83.263,58.564Zm-0.87-18.116a0.773,0.773,0,1,1,.773-0.773A0.773,0.773,0,0,1,82.393,40.447ZM75.1,58.757a0.918,0.918,0,1,1,.918-0.918A0.918,0.918,0,0,1,75.1,58.757Zm0-18.02a0.918,0.918,0,1,1,.918-0.918A0.918,0.918,0,0,1,75.1,40.737Zm-7.488-.29a0.773,0.773,0,1,1,.773-0.773A0.773,0.773,0,0,1,67.61,40.447ZM67.417,57.839a0.725,0.725,0,1,1-.725-0.725A0.725,0.725,0,0,1,67.417,57.839Zm-6-17.79a0.773,0.773,0,1,1,.773-0.773A0.773,0.773,0,0,1,61.414,40.049Z"/>
    <path id="Shape_99_copy_2" data-name="Shape 99 copy 2" class="cls-2" d="M99.114,70.542L94.44,68.026a23.689,23.689,0,0,1-1.267-8.742c2.137-1.675,5.467-5.077,5.78-10.191,0.454-7.408-5.677-12.241-5.938-12.443a0.72,0.72,0,0,0-.122-0.077l-0.006,0a0.745,0.745,0,0,0-.135-0.165,36.117,36.117,0,0,0-7.042-4.556L85.2,31.482a17.647,17.647,0,0,0-18.4-.943c-0.478.252-.884,0.478-1.21,0.664a38.044,38.044,0,0,0-8.346,5.2,0.742,0.742,0,0,0-.135.165l-0.006,0a0.723,0.723,0,0,0-.122.077c-0.261.2-6.392,5.035-5.938,12.443,0.314,5.127,3.659,8.533,5.78,10.194a23.7,23.7,0,0,1-1.267,8.74l-4.673,2.516c-7.571,2.384-5.8,10.475-5.782,10.556a0.741,0.741,0,0,0,.722.574h8.107c0.916,2.909,1.83,6.016,2.478,8.708a0.74,0.74,0,0,0,.63.561c0.106,0.013,10.645,1.339,17.52,5.688a0.738,0.738,0,0,0,.4.115c0.015,0,.029,0,0.043-0.005s0.028,0.005.043,0.005a0.738,0.738,0,0,0,.4-0.115c6.875-4.349,17.414-5.675,17.52-5.688a0.74,0.74,0,0,0,.63-0.561c0.648-2.692,1.562-5.8,2.478-8.708h8.106A0.741,0.741,0,0,0,104.9,81.1C104.915,81.017,106.685,72.926,99.114,70.542ZM97.475,49c-0.4,6.6-6.728,10.159-6.837,10.221l-0.253.164-0.005-.039C91.666,58.2,96.22,53.7,95.617,47.812c-0.567-5.543-2.763-8.057-3.541-8.786l-0.108-1.24L92,37.809l0.036-.011,0.127,0.064C92.734,38.333,97.859,42.727,97.475,49ZM86.917,39.218l0.736-2.579,2.792,2.577c4.865,9.18-.791,18.373-1.411,19.33L87.557,59.76l-0.325-.79C92.83,49.742,87.989,40.951,86.917,39.218Zm3.034-3.1h0l0.01,0.008q0.221,0.156.419,0.3a0.738,0.738,0,0,0-.007.146l0.053,0.609-2.654-2.45a0.74,0.74,0,0,0-1.215.341l-1.091,3.819a0.733,0.733,0,0,0-.114-0.127l-3.913-3.261a0.73,0.73,0,0,0-.666-0.146,0.742,0.742,0,0,0-.5.459l-0.686,1.857a28.577,28.577,0,0,1-3.377-1.688,22.437,22.437,0,0,1,6.129-4.108A44.478,44.478,0,0,1,89.951,36.122ZM80.566,39.3L81.3,37.316l2.939,2.449a31.231,31.231,0,0,1-.086,18.776l-1.115,1.487-1.358-1.621C85.84,48.139,81.671,40.936,80.566,39.3ZM78.309,57.781l-3.153,3.153L72,57.781c0.592-1.529,2.353-6.443,1.969-9.9a41.46,41.46,0,0,0-2.035-8.225l1.578-1.281,0.009,0L75,37.316l1.8,1.057,1.577,1.279a41.46,41.46,0,0,0-2.035,8.225C75.956,51.338,77.717,56.252,78.309,57.781ZM80.918,30.9A24.144,24.144,0,0,0,75,35.089a24.192,24.192,0,0,0-5.685-4.067A16.249,16.249,0,0,1,80.918,30.9Zm-13.257.976a22.3,22.3,0,0,1,6.274,4.243,29.523,29.523,0,0,1-3.5,1.6l-0.705-1.908a0.741,0.741,0,0,0-1.169-.312l-3.913,3.261a0.737,0.737,0,0,0-.114.127L63.44,35.075a0.74,0.74,0,0,0-1.214-.341l-2.654,2.45,0.053-.609a0.721,0.721,0,0,0-.007-0.143A43.628,43.628,0,0,1,67.662,31.88Zm0.659,26.528-1.358,1.621-1.115-1.487a31.231,31.231,0,0,1-.086-18.776L68.7,37.316,69.434,39.3C68.329,40.936,64.16,48.139,68.321,58.408Zm-5.553.562-0.325.79-1.477-1.215c-0.62-.957-6.276-10.15-1.411-19.33l2.792-2.577,0.736,2.579C62.011,40.951,57.17,49.742,62.768,58.97ZM52.525,49c-0.384-6.274,4.741-10.668,5.315-11.139l0.194-.1-0.11,1.26c-0.778.729-2.975,3.244-3.541,8.786C53.78,53.7,58.334,58.2,59.621,59.347l-0.005.041-0.3-.193C59.253,59.16,52.929,55.6,52.525,49Zm-6.075,31.19c-0.213-1.627-.356-6.2,4.29-8.026,0.472,1.326,1.56,4.424,2.721,8.026h-7.01ZM74.216,94.7c-6.249-3.515-14.366-4.857-16.486-5.161-1.658-6.69-4.782-15.593-5.629-17.969l3.3-1.779c0.869,1.753,5.715,10.141,18.8,10.141h0.014V94.7ZM74.2,78.451c-12.43,0-16.734-7.756-17.463-9.289a26.564,26.564,0,0,0,1.609-8.818c0.106,0.064.188,0.111,0.209,0.122l1.232,0.8a0.741,0.741,0,0,0,1.136-.522l0.038-.279,1.312,1.079a0.743,0.743,0,0,0,.471.169,0.73,0.73,0,0,0,.18-0.022,0.741,0.741,0,0,0,.5-0.436l0.662-1.607h0.728l1.517,2.022a0.74,0.74,0,0,0,.573.3h0.02A0.742,0.742,0,0,0,67.5,61.7l1.721-2.054h2.55l2.609,2.609a0.741,0.741,0,0,0,.524.217H75.41a0.741,0.741,0,0,0,.524-0.217l2.609-2.609H80.78L82.5,61.7a0.742,0.742,0,0,0,.568.265h0.02a0.741,0.741,0,0,0,.573-0.3l1.517-2.022h0.728l0.662,1.607a0.742,0.742,0,0,0,.5.436,0.731,0.731,0,0,0,.181.022,0.744,0.744,0,0,0,.471-0.169l1.312-1.079,0.038,0.279a0.741,0.741,0,0,0,1.137.522l1.186-.77c0.027-.015.126-0.072,0.255-0.15a26.57,26.57,0,0,0,1.609,8.818C92.529,70.7,88.224,78.451,75.8,78.451H74.2ZM92.27,89.54c-2.12.3-10.237,1.646-16.486,5.161V79.933H75.8c13.082,0,17.928-8.388,18.8-10.141l3.3,1.779C97.052,73.947,93.927,82.85,92.27,89.54Zm11.279-9.349H96.54c1.16-3.6,2.248-6.7,2.721-8.026C103.905,73.989,103.762,78.564,103.549,80.191Z"/>
  </g>
  <g id="ger_copy_10" data-name="ger copy 10">
    <rect id="Rectangle_2_copy_3" data-name="Rectangle 2 copy 3" class="cls-3" x="46" y="119" width="58" height="30"/>
    <path id="Rectangle_2_copy_3-2" data-name="Rectangle 2 copy 3" class="cls-4" d="M46,146v-3h58v3H46Zm0-24h58v3H46v-3Z"/>
    <path id="_897" data-name="897" class="cls-4" d="M60.329,137.436a3.46,3.46,0,0,0,1.166,2.811,4.541,4.541,0,0,0,3.02.977,4.429,4.429,0,0,0,2.991-1.046,3.624,3.624,0,0,0,1.216-2.9,4.925,4.925,0,0,0-.429-2.124,4.389,4.389,0,0,0-1.505-1.664,3.953,3.953,0,0,0,1.575-3.27,3.328,3.328,0,0,0-1.037-2.632,3.973,3.973,0,0,0-2.731-.917,3.9,3.9,0,0,0-2.891,1.057,3.825,3.825,0,0,0-1.057,2.831,4.061,4.061,0,0,0,1.435,3.329l-0.219.21c-0.133.126-.219,0.212-0.259,0.259s-0.123.136-.249,0.269a2.2,2.2,0,0,0-.269.329l-0.229.359a1.938,1.938,0,0,0-.219.438l-0.16.479a2.615,2.615,0,0,0-.12.568C60.339,137,60.329,137.21,60.329,137.436Zm5.244-.2a0.943,0.943,0,0,1-1.057,1.076,1.069,1.069,0,0,1-.887-0.458,1.759,1.759,0,0,1-.349-1.1A2.132,2.132,0,0,1,64,135.084c0.319,0.225.565,0.412,0.738,0.558a3.027,3.027,0,0,1,.548.668A1.689,1.689,0,0,1,65.573,137.237Zm-1.775-6.58q0-1.076.778-1.076a0.7,0.7,0,0,1,.608.349,1.583,1.583,0,0,1,.229.887,3.116,3.116,0,0,1-.419,1.635q-0.4-.26-0.608-0.429a1.659,1.659,0,0,1-.4-0.538A1.786,1.786,0,0,1,63.8,130.657Zm7.492,0.818a4.558,4.558,0,0,0,1.146,3.349,3.513,3.513,0,0,0,2.542,1.157h0.04a2.091,2.091,0,0,0,1.635-.718,3.929,3.929,0,0,1-1.246,2.1,4.662,4.662,0,0,1-2.542,1.087l0.718,2.771a6,6,0,0,0,1.914-.389,6.448,6.448,0,0,0,1.784-1.056,6.942,6.942,0,0,0,1.505-1.735,8.881,8.881,0,0,0,1.017-2.552,13.931,13.931,0,0,0,.379-3.359,5.96,5.96,0,0,0-1.236-4.057,4.231,4.231,0,0,0-3.35-1.406,3.979,3.979,0,0,0-3.15,1.316A5.093,5.093,0,0,0,71.29,131.475Zm3.15-.12a2.36,2.36,0,0,1,.309-1.306,0.982,0.982,0,0,1,.867-0.468q1.416,0,1.416,2.193a4.976,4.976,0,0,1-.1.857,1.5,1.5,0,0,1-1.136.439,1.22,1.22,0,0,1-.977-0.449A1.907,1.907,0,0,1,74.44,131.355Zm12.3,9.57,4.486-12.979v-0.977H82.929v3.15h3.828l1.037-.2-0.738.977-3.489,10.028h3.17Z"/>
  </g>
</svg>
