<svg id="ger_normandy_prem_assault_3" xmlns="http://www.w3.org/2000/svg" width="150" height="150" viewBox="0 0 150 150">
  <defs>
    <style>
      .cls-1 {
        fill: #c42122;
      }

      .cls-1, .cls-2, .cls-3, .cls-4, .cls-5 {
        fill-rule: evenodd;
      }

      .cls-2 {
        fill: #120e0e;
      }

      .cls-3 {
        fill: #cfcdcd;
      }

      .cls-4 {
        fill: #181313;
      }

      .cls-5 {
        fill: #150c0c;
      }
    </style>
  </defs>
  <path id="Shape_314_copy" data-name="Shape 314 copy" class="cls-1" d="M73.329,133.671v-17.4H63.266v27.468H90.734V133.671H73.329Z"/>
  <path id="Shape_314_copy_3" data-name="Shape 314 copy 3" class="cls-1" d="M80.581,25.253s0,2.855,1.632,3.671h63.716a2.033,2.033,0,0,1,1.8,3,8.144,8.144,0,0,1-7.586,4.547s0.408,5.915-6.119,6.527c0,0-1.02,8.567-10.2,6.731,0,0,0,8.975-8.771,6.119,0,0,.2,11.014-11.626,8.363,0,0,0,6.935-6.731,3.875,0,0-.612,2.856-4.9,4.079l6.323,12.85,4.895,11.626s1.428,3.06-3.263,3.672-6.323-3.876-6.323-3.876-0.136,6.442-4.691,5.3a6.962,6.962,0,0,1-4.487-3.672s0.408,5.1-3.671,4.488c-3.157-.474-4.079-9.995-4.079-9.995s-3.875,10.607-6.731,9.791A5.836,5.836,0,0,1,66.1,98.477s-1.428,4.08-5.1,3.264-3.059-5.915-3.059-5.915-3.059,3.264-5.507,2.04S60.8,73.389,60.8,73.389s-3.264,1.836-6.935-2.652c0,0-7.343,3.467-7.955-5.3,0,0-7.343.612-8.159-6.527,0,0-9.586,4.283-11.626-6.119,0,0-10.606,1.632-9.79-8.159,0,0-9.178.408-8.363-8.77,0,0-6.074-.337-5.946-5.923a1.863,1.863,0,0,1,1.857-1.828H62.428s4.691-3.671,5.507-5.1,2.448-4.079,1.836-4.9-2.856-.408-2.856-0.408-1.428,1.836-2.652,2.04a11.818,11.818,0,0,1-3.263-.2s2.04-2.244,4.079-4.079,3.671-.612,4.283-1.224A21.549,21.549,0,0,1,72.014,12.4s1.632-3.263,3.467-4.079a7.689,7.689,0,0,1,4.283-.2s3.467-2.448,6.119,1.632A11.428,11.428,0,0,0,82.417,12.4a1.815,1.815,0,0,0,1.632,0c1.02-.408,1.428-0.612,4.283-0.2,0,0,.612,2.652,0,3.467S86.9,17.5,86.9,17.5s1.428,1.632.2,3.06-3.467,3.263-4.079,3.263S81.6,23.213,80.581,25.253Z"/>
  <path id="Shape_314_copy_4" data-name="Shape 314 copy 4" class="cls-2" d="M148.408,32.305a8.925,8.925,0,0,1-7.514,4.941,6.813,6.813,0,0,1-6.208,6.459,9.446,9.446,0,0,1-3.438,5.558,8.943,8.943,0,0,1-6.708,1.38,7.912,7.912,0,0,1-2.787,5.469c-1.53,1.111-3.537,1.364-5.975.758a10,10,0,0,1-3.263,6.708c-2.047,1.671-4.866,2.2-8.388,1.571a5.49,5.49,0,0,1-2.147,3.872c-1.248.8-2.877,0.834-4.85,0.092A7.4,7.4,0,0,1,92.9,72.627L98.824,84.67l4.915,11.668a3.254,3.254,0,0,1-.089,2.734c-0.6,1.088-1.874,1.766-3.794,2.016a6.425,6.425,0,0,1-5.978-2.375A5.843,5.843,0,0,1,92,101.92a3.879,3.879,0,0,1-3.45.579,7.5,7.5,0,0,1-3.718-2.218,4.429,4.429,0,0,1-1.2,2.217,3.388,3.388,0,0,1-2.4.892,5.253,5.253,0,0,1-.774-0.06c-2.51-.377-3.751-4.652-4.325-7.756-1.517,3.494-4.084,8.243-6.584,7.531a6.015,6.015,0,0,1-3.514-2.837A4.878,4.878,0,0,1,60.83,102.5c-2.584-.574-3.489-2.96-3.679-4.965-1.276.932-3.251,1.934-5.067,1.026-1.1-.55-1.783-2.06,2.888-13.688,1.659-4.13,3.481-8.223,4.439-10.339-1.417.1-3.534-.341-5.78-2.866-1.09.39-3.545,1.03-5.593-.17-1.579-.925-2.533-2.7-2.842-5.283-1.94-.07-6.925-0.791-8.068-6.25-1.532.489-4.663,1.166-7.411-.259-2.08-1.079-3.494-3.12-4.208-6.071-1.577.113-5.324,0.1-7.781-2.188a7.653,7.653,0,0,1-2.218-6.056,9.687,9.687,0,0,1-6.291-2.633,8.21,8.21,0,0,1-2.074-6.209c-2.439-.4-6-2.13-5.9-6.633A2.63,2.63,0,0,1,3.88,27.327H62.157c1.786-1.412,4.582-3.8,5.1-4.705l0.224-.388c0.438-.758,1.757-3.04,1.644-3.671a3.379,3.379,0,0,0-1.794-.129,6.056,6.056,0,0,1-2.938,2.084,12.4,12.4,0,0,1-3.545-.209l-1.354-.271,0.929-1.022c0.084-.093,2.089-2.294,4.135-4.135a4.691,4.691,0,0,1,3.8-1.249,3.58,3.58,0,0,0,.494.01,19.977,19.977,0,0,1,2.566-1.794c0.427-.807,1.927-3.432,3.743-4.239a8.09,8.09,0,0,1,4.46-.318,5.156,5.156,0,0,1,3.391-.6A5.487,5.487,0,0,1,86.54,9.326l0.477,0.733-0.782.392a13.872,13.872,0,0,0-1.466.876,9.641,9.641,0,0,1,3.674.1L88.973,11.5l0.121,0.522c0.163,0.705.634,3.086-.136,4.112-0.36.48-.783,1.022-1.078,1.4a2.957,2.957,0,0,1-.177,3.539c-0.863,1.007-3.52,3.537-4.673,3.537a2.811,2.811,0,0,1-.473-0.05c-0.382-.064-0.664-0.111-1.187.875,0.038,0.7.276,2.177,1.054,2.711h63.506a2.807,2.807,0,0,1,2.442,1.4A2.758,2.758,0,0,1,148.408,32.305Zm-1.386-1.97a1.257,1.257,0,0,0-1.093-.628h-63.9l-0.165-.082c-2.006-1-2.064-4.029-2.064-4.371V25.069l0.083-.165c0.965-1.929,1.979-2.048,2.932-1.889,0.059,0.01.117,0.022,0.171,0.027a14.111,14.111,0,0,0,3.529-2.988,1.623,1.623,0,0,0-.2-2.039l-0.419-.491,0.4-.508c0.008-.01.816-1.02,1.413-1.816a4.958,4.958,0,0,0-.032-2.3c-2.087-.27-2.455-0.123-3.259.2l-0.077.031a2.566,2.566,0,0,1-2.356-.075l-0.672-.448,0.469-.657A10.264,10.264,0,0,1,84.726,9.5a3.546,3.546,0,0,0-1.99-1.271,3.677,3.677,0,0,0-2.523.532l-0.291.2-0.346-.083a6.944,6.944,0,0,0-3.776.16c-1.291.574-2.665,2.876-3.086,3.715l-0.1.2-0.2.117a19.579,19.579,0,0,0-2.5,1.718,1.977,1.977,0,0,1-1.648.4,3.149,3.149,0,0,0-2.665.85c-1.107,1-2.225,2.126-3,2.935a6.59,6.59,0,0,0,1.533,0A5.17,5.17,0,0,0,66.3,17.226l0.183-.235,0.293-.054c0.638-.116,2.784-0.407,3.621.708,0.806,1.075-.184,2.985-1.562,5.371l-0.22.382c-0.867,1.517-5.212,4.941-5.7,5.327L62.7,28.89H3.88A1.075,1.075,0,0,0,2.8,29.955C2.7,34.7,7.8,35.066,8.014,35.079l0.8,0.048-0.069.8a7.068,7.068,0,0,0,1.592,5.744c2.195,2.3,5.921,2.176,5.958,2.176l0.885-.036-0.072.882c-0.207,2.486.357,4.373,1.678,5.607,2.553,2.387,7.169,1.721,7.215,1.713l0.74-.112,0.145,0.734c0.556,2.835,1.747,4.746,3.539,5.679,3.055,1.59,6.963-.107,7-0.124l0.973-.431,0.122,1.056c0.718,6.285,7.05,5.856,7.319,5.837l0.787-.062,0.056,0.787c0.17,2.434.89,4.04,2.141,4.773,1.959,1.147,4.672-.109,4.7-0.122l0.552-.26,0.387,0.473c3.174,3.88,5.842,2.521,5.954,2.461l2.063-1.1-0.977,2.115c-4.66,10.025-9.233,21.745-8.627,23.491,1.568,0.669,3.765-1.147,4.493-1.92L59,93.562l-0.282,2.356c-0.021.178-.479,4.407,2.453,5.059s4.143-2.622,4.192-2.761l0.844-2.367,0.648,2.426a5.09,5.09,0,0,0,3.131,3.325c1.27,0.365,4.066-4.614,5.782-9.307l1.18-3.228,0.332,3.42c0.36,3.7,1.658,9.032,3.417,9.3a2.13,2.13,0,0,0,1.869-.426c0.882-.821.954-2.608,0.907-3.227l-0.356-4.694,1.855,4.325a6.124,6.124,0,0,0,3.958,3.221,2.366,2.366,0,0,0,2.119-.3c1.253-.955,1.58-3.4,1.6-4.259l0.1-4.148,1.418,3.9a5.22,5.22,0,0,0,5.487,3.367c1.37-.179,2.276-0.6,2.619-1.207a1.681,1.681,0,0,0,.033-1.365L97.4,85.319,90.684,71.671l0.9-.257c3.73-1.065,4.324-3.4,4.347-3.5l0.219-.924,0.867,0.385c1.8,0.819,3.187.931,4.116,0.332,1.468-.945,1.509-3.471,1.509-3.5V63.234l0.953,0.214c3.434,0.77,6.1.408,7.923-1.074,2.782-2.262,2.751-6.47,2.751-6.512l-0.017-1.094,1.04,0.337c2.373,0.773,4.236.688,5.536-.253,2.173-1.572,2.211-5.089,2.211-5.124l0-.95,0.932,0.185c2.608,0.521,4.743.2,6.344-.956a8.2,8.2,0,0,0,2.925-5.1l0.077-.624,0.626-.061c5.666-.531,5.425-5.486,5.412-5.7l-0.053-.854,0.855,0.022a7.389,7.389,0,0,0,6.881-4.145A1.189,1.189,0,0,0,147.022,30.335ZM133.058,34.9a2.935,2.935,0,0,1-1.351.468,5.121,5.121,0,0,1-1.805-.083,7.036,7.036,0,0,1-1.549-.522,3.081,3.081,0,0,1-.707-0.464,1.308,1.308,0,0,1-.434-0.938,0.737,0.737,0,0,1,.532-0.7,1.4,1.4,0,0,1,.894.015,4.833,4.833,0,0,1,.484.182l0.048,0.022,0.02,0.007a3.956,3.956,0,0,0,1.238.33,0.617,0.617,0,1,0,.14.012c0.086,0.007.171,0.012,0.256,0.017,0.228,0.013.457,0.013,0.685,0.028a7.955,7.955,0,0,1,1.217.044,2.524,2.524,0,0,1,.692.073,0.6,0.6,0,0,1,.355.873A2.024,2.024,0,0,1,133.058,34.9ZM127.9,40.4a8.619,8.619,0,0,1-2.89-.154,16.139,16.139,0,0,1-2.59-.894,15.932,15.932,0,0,1-4.964-2.833,0.9,0.9,0,0,1-.071-1.187,0.92,0.92,0,0,1,1.167-.233c1.431,0.632,2.742,1.492,4.206,2.065q1.116,0.437,2.269.763a8.168,8.168,0,0,1,2.129.752c0.366,0.145.726,0.3,1.085,0.46C128.926,39.45,128.487,40.333,127.9,40.4Zm-8.146,5.616a2.84,2.84,0,0,1,1.545.945,0.909,0.909,0,0,1-.324,1.237,2.87,2.87,0,0,1-2.015-.061,15.318,15.318,0,0,1-1.818-.595,24.925,24.925,0,0,1-3.378-1.6,26.252,26.252,0,0,1-3.127-2.04,12.605,12.605,0,0,1-2.842-2.562,0.935,0.935,0,0,1,1.27-1.27,12.252,12.252,0,0,1,1.445,1.072q0.726,0.539,1.486,1.032c0.959,0.623,1.938,1.214,2.952,1.742s2.058,0.989,3.112,1.425C118.624,45.577,119.193,45.789,119.757,46.014Zm-7.167,8.419a0.965,0.965,0,0,1-.74,1.757,17.984,17.984,0,0,1-6.916-3.689,25.776,25.776,0,0,1-2.843-2.58,13.485,13.485,0,0,1-2.341-3.11,0.826,0.826,0,0,1,1.292-1c0.926,0.827,1.739,1.79,2.64,2.649a25.845,25.845,0,0,0,2.645,2.232C108.314,52.139,110.493,53.176,112.59,54.433Zm-11.736,6.329a0.818,0.818,0,0,1-.919.374,10.69,10.69,0,0,1-2.737-1.8,24.933,24.933,0,0,1-2.253-2.045,27.978,27.978,0,0,1-2.063-2.338,14.107,14.107,0,0,1-1.795-2.568,0.834,0.834,0,0,1,1.3-1.007c0.721,0.694,1.3,1.548,1.978,2.291,0.648,0.714,1.312,1.418,2,2.1,0.7,0.694,1.436,1.364,2.171,2.025a20.016,20.016,0,0,1,2.189,1.98A0.849,0.849,0,0,1,100.854,60.761Zm-7.87,2.152C93.622,63.592,94.6,64.355,94.8,65.3a0.593,0.593,0,0,1-.566.742,4.754,4.754,0,0,1-2.617-1.755c-0.716-.73-1.394-1.5-2.037-2.3a32.179,32.179,0,0,1-3.47-5.265,0.937,0.937,0,0,1,1.617-.945,37.176,37.176,0,0,0,3.292,4.881C91.639,61.44,92.3,62.186,92.984,62.914Zm-5.352,4.262c0.265,0.284.354,0.459,0.6,0.752a0.979,0.979,0,0,1,.233.495,0.708,0.708,0,0,1-.791,1.028l-0.031-.011a0.833,0.833,0,0,1-.487-0.118,2.7,2.7,0,0,1-.277-0.181c-0.02-.017-0.127-0.115-0.043-0.06a4.382,4.382,0,0,1-.491-0.3c-0.071-.061-0.14-0.125-0.209-0.189-0.249-.228-0.489-0.464-0.717-0.713a18.943,18.943,0,0,1-1.408-1.746,16.215,16.215,0,0,1-1.978-3.895,1.071,1.071,0,0,1,.739-1.3,1.084,1.084,0,0,1,1.3.739q0.051,0.131.1,0.262,0.042,0.1,0,.005l0.045,0.1c0.06,0.137.121,0.274,0.185,0.409q0.214,0.458.457,0.9c0.306,0.56.649,1.1,1,1.626a12.4,12.4,0,0,0,1.092,1.434C87.181,66.673,87.4,66.928,87.632,67.175ZM83.817,37.514a1.742,1.742,0,0,1-.972-0.043,2.627,2.627,0,0,1-.9-0.538,9.807,9.807,0,0,1-.993-0.882,7.953,7.953,0,0,1-.981-1.234q-0.175-.269-0.332-0.55a2.409,2.409,0,0,1-.242-0.5,0.965,0.965,0,0,1-.033-0.22c-0.025-.07-0.049-0.136-0.059-0.16q-0.044-.11-0.085-0.222c-0.055-.149-0.11-0.3-0.154-0.451a2.937,2.937,0,0,1-.092-1.14,0.633,0.633,0,0,1,.376-0.558,0.607,0.607,0,0,1,.667.126,5.806,5.806,0,0,1,.656.852c0.091,0.148.175,0.3,0.269,0.446,0.035,0.055.072,0.109,0.108,0.164a0.969,0.969,0,0,1,.147.117,2.972,2.972,0,0,1,.3.418c0.061,0.089.125,0.175,0.188,0.262l0.015,0.02,0.057,0.072c0.261,0.321.535,0.638,0.815,0.941a9.486,9.486,0,0,0,.9.857c0.046,0.038.334,0.265,0.087,0.074a1.992,1.992,0,0,1,.5.518c0.054,0.08.119,0.157,0.17,0.238s0.083,0.192.12,0.289c0.008,0.068.015,0.119,0.02,0.159A0.816,0.816,0,0,1,83.817,37.514ZM78.783,13.982a2.027,2.027,0,0,1-.237.467A6.425,6.425,0,0,1,78,15.1c-0.057.064-.111,0.13-0.17,0.192a1.755,1.755,0,0,1-.656.362l-0.4.166a0.862,0.862,0,0,1-.554.043,0.852,0.852,0,0,1-.126-0.047,0.636,0.636,0,0,1-.385-0.431,1.132,1.132,0,0,1,.04-0.752c0.041-.147.077-0.3,0.124-0.444A1.7,1.7,0,0,1,76,13.876a1.918,1.918,0,0,1,.206-0.263l0.073-.082,0.17-.192a3.5,3.5,0,0,1,.353-0.372,1.874,1.874,0,0,1,.7-0.417,1.3,1.3,0,0,1,.17-0.025,1.177,1.177,0,0,1,.173-0.008l-0.008,0,0.1-.012a0.883,0.883,0,0,1,.651.27,0.919,0.919,0,0,1,.262.575c0,0.017,0,.034.005,0.051s0,0.017,0,.025v0a0.781,0.781,0,0,1,.012.132,1.682,1.682,0,0,1-.021.17A1.085,1.085,0,0,1,78.783,13.982ZM76.463,31.362c0.032,0.1.065,0.189,0.1,0.284a2.012,2.012,0,0,1,.3.768c0.057,0.239.143,0.657,0.18,0.8,0.051,0.2.151,0.362,0.2,0.56,0.039,0.16.069,0.323,0.106,0.484,0.068,0.3.137,0.6,0.211,0.9q0.221,0.894.5,1.772a8,8,0,0,1,.588,2.069,1.193,1.193,0,0,1-2.017.836,5.934,5.934,0,0,1-.941-2.1q-0.3-.944-0.537-1.909a10.39,10.39,0,0,1-.354-2.133,4.462,4.462,0,0,1,.046-1.822c0.011-.094.021-0.188,0.032-0.282A0.811,0.811,0,0,1,76.463,31.362ZM75.516,76.087a0.8,0.8,0,0,1,.738.562A6.1,6.1,0,0,1,76.51,78.2l0.167,1.344c0.115,0.931.265,1.864,0.335,2.8a0.9,0.9,0,0,1-.414.761,0.72,0.72,0,0,1-.892.046,0.791,0.791,0,0,1-.477-0.566c-0.137-.989-0.2-1.99-0.292-2.985q-0.063-.7-0.126-1.4l-0.066-.728a2.854,2.854,0,0,1,.033-0.819A0.769,0.769,0,0,1,75.516,76.087Zm5.675-.045a3.1,3.1,0,0,1,.683,1.005,8.856,8.856,0,0,1,.439,1.127,6.981,6.981,0,0,1,.226,1c0.03,0.2.054,0.4,0.073,0.6a1.073,1.073,0,0,1,.226.934c-0.007.029-.022,0.051-0.032,0.079a0.871,0.871,0,0,1,.106-0.053,0.834,0.834,0,0,1,.929.378,3.666,3.666,0,0,1,.349.7c0.066,0.2.127,0.411,0.184,0.618,0.113,0.414.19,0.841,0.283,1.26s0.167,0.846.231,1.275a2.863,2.863,0,0,1,.062.448,0.526,0.526,0,1,1-.035.18c0,0.06,0,.121,0,0.181a1.655,1.655,0,0,1-.23.776,0.651,0.651,0,0,1-.88.231,1.628,1.628,0,0,1-.532-0.562c-0.026-.053-0.05-0.106-0.073-0.16a0.693,0.693,0,1,0-.1-0.144,1.711,1.711,0,0,1-.151-0.415c-0.115-.416-0.219-0.831-0.305-1.254s-0.183-.844-0.253-1.269c-0.044-.27-0.072-0.545-0.107-0.816a1.414,1.414,0,0,1-.016-0.271,1.258,1.258,0,1,1,.028-0.181c0.006-.06.012-0.12,0.018-0.181a1.147,1.147,0,0,1,.048-0.218,1.2,1.2,0,0,1-1.168-.022,1.136,1.136,0,0,1-.524-0.925c-0.009-.143,0-0.288-0.009-0.431s-0.021-.286-0.035-0.429c0,0,0,0,0-.005-0.011-.064-0.02-0.129-0.032-0.193a7.064,7.064,0,0,0-.206-0.837c-0.043-.137-0.09-0.273-0.141-0.407,0-.012-0.01-0.03-0.016-0.05v0a1.253,1.253,0,0,0-.081-0.182,7.636,7.636,0,0,1-.4-0.946A0.863,0.863,0,0,1,81.191,76.042Zm3.562,1.838c-0.036-.359-0.08-0.717-0.084-1.078,0-.159-0.007-0.32,0-0.479a3.2,3.2,0,0,1,.1-0.657,0.674,0.674,0,0,1,1.221-.159,3.312,3.312,0,0,1,.251.6c0.042,0.166.074,0.337,0.112,0.5,0.087,0.389.124,0.79,0.174,1.186q0.07,0.539.139,1.078a9.79,9.79,0,0,1,.125,1.038A0.914,0.914,0,0,1,85,80.16a11.773,11.773,0,0,1-.141-1.241Q84.805,78.4,84.753,77.881Zm-13.367-45a16.2,16.2,0,0,1-.912,1.769,35.528,35.528,0,0,1-1.915,3.235,1.109,1.109,0,0,1-1.363.446,1.081,1.081,0,0,1-.632-1.287A37.107,37.107,0,0,1,68.4,33.58c0.292-.528.586-1.067,0.929-1.563a7.764,7.764,0,0,1,.665-0.9,1.885,1.885,0,0,1,.905-0.553,0.68,0.68,0,0,1,.754.307,1.9,1.9,0,0,1,.091,1.131A6.339,6.339,0,0,1,71.386,32.886Zm-4.313-1.421c-0.342.447-.723,0.854-1.1,1.27-0.35.385-.709,0.759-1.07,1.134a6.779,6.779,0,0,1-1.221,1.093,0.831,0.831,0,0,1-1.137-1.136,7.147,7.147,0,0,1,1.017-1.36c0.317-.376.633-0.751,0.961-1.118s0.659-.768,1.026-1.115l1.1-1.04a0.87,0.87,0,0,1,1.137-.068,0.858,0.858,0,0,1,.223,1.117ZM59.328,62.042a11.816,11.816,0,0,1-1.314,1.375q-0.361.329-.74,0.638a1.867,1.867,0,0,1-1.378.613,1.1,1.1,0,0,1-1.075-1.075,1.593,1.593,0,0,1,.321-0.925,3.747,3.747,0,0,1,.4-0.411q0.335-.321.654-0.658c0.415-.439.8-0.9,1.2-1.359a8.29,8.29,0,0,0,.563-0.681l0.02-.028c0.047-.062.093-0.124,0.139-0.187,0.139-.189.28-0.374,0.426-0.557l0.142-.178,0,0c0.093-.125.186-0.249,0.277-0.376a11.046,11.046,0,0,1,.706-0.861,1.043,1.043,0,0,1,1.742,1.014A10.362,10.362,0,0,1,59.328,62.042Zm-3.784-7.071c-0.69.777-1.435,1.51-2.189,2.225-0.774.733-1.6,1.419-2.429,2.084a6.28,6.28,0,0,1-2.945,1.667,0.774,0.774,0,0,1-.661-1.152,4.156,4.156,0,0,1,1.05-1.251c0.382-.332.783-0.643,1.168-0.973,0.77-.662,1.51-1.355,2.249-2.05,0.758-.714,1.481-1.461,2.206-2.208,0.354-.365.726-0.706,1.081-1.069A1.987,1.987,0,0,1,56.5,51.3a0.888,0.888,0,0,1,.832.634,2.114,2.114,0,0,1-.786,1.778C56.218,54.142,55.9,54.567,55.545,54.971Zm-8.188-4.533c-0.752.709-1.583,1.347-2.4,1.979-0.872.675-1.765,1.311-2.689,1.912a9.018,9.018,0,0,1-2.883,1.447,0.764,0.764,0,0,1-.737-1.266,13.319,13.319,0,0,1,2.561-1.993c0.825-.581,1.638-1.183,2.442-1.793s1.56-1.266,2.349-1.887a12.463,12.463,0,0,1,1.278-1.027,6.756,6.756,0,0,0,.636-0.416,1.589,1.589,0,0,1,.679-0.362,0.71,0.71,0,0,1,.862.862,4.247,4.247,0,0,1-.913,1.356A9.421,9.421,0,0,1,47.356,50.438ZM43.779,43.8c-0.558.327-1.117,0.652-1.683,0.964-1.132.624-2.283,1.216-3.443,1.785s-2.346,1.1-3.535,1.606a12.008,12.008,0,0,1-3.7,1.147,0.813,0.813,0,0,1-.57-1.376A15.129,15.129,0,0,1,34.2,46.108c1.141-.517,2.266-1.065,3.392-1.612s2.241-1.122,3.349-1.707c0.572-.3,1.145-0.6,1.714-0.912a4.089,4.089,0,0,1,.907-0.435c0.3-.075.628-0.085,0.933-0.146a0.723,0.723,0,0,1,.7,1.2A5.308,5.308,0,0,1,43.779,43.8ZM29,41.519c-1.178.478-2.373,0.917-3.571,1.342a16.174,16.174,0,0,1-1.637.534,16.98,16.98,0,0,1-1.941.268c-0.85.1-1.087-1.166-.419-1.548a16.841,16.841,0,0,1,1.693-.93c0.547-.235,1.108-0.432,1.665-0.642,1.116-.42,2.222-0.864,3.324-1.318s2.2-.911,3.3-1.352c0.516-.206,1.023-0.436,1.532-0.658a9.619,9.619,0,0,1,1.916-.543c0.728-.151,1.462.8,0.792,1.361A24.168,24.168,0,0,1,29,41.519ZM24.244,36.49a1.889,1.889,0,0,1-.86.295c-0.289.038-.578,0.073-0.868,0.1a13.162,13.162,0,0,1-1.738.028c-0.628-.029-1.252-0.1-1.874-0.188a2.914,2.914,0,0,1-1.776-.649,0.908,0.908,0,0,1,.182-1.407,3.336,3.336,0,0,1,1.88-.05q0.791,0.089,1.589.1c0.555,0.008,1.112-.015,1.666-0.049q0.4-.025.794-0.069a1.717,1.717,0,0,1,.668.056l1.606-.08a0.689,0.689,0,0,1,.346,1.275A9.75,9.75,0,0,1,24.244,36.49ZM64.271,66.955c0.27-.453.528-0.915,0.821-1.353l1.765-2.633a1.268,1.268,0,0,1,1.694-.444A1.249,1.249,0,0,1,69,64.218L67.3,66.89c-0.284.446-.6,0.87-0.911,1.3-0.182.255-.367,0.507-0.565,0.751a4.182,4.182,0,0,1-.539.63,1.133,1.133,0,0,1-1.3.168,1.092,1.092,0,0,1-.495-1.216A6.9,6.9,0,0,1,64.271,66.955Zm5,7.838a0.872,0.872,0,0,1,.711.613,4.7,4.7,0,0,1,.131,1.232c0.008,0.09.017,0.181,0.03,0.271l0.014,0.082c0.028,0.178.056,0.356,0.09,0.533a8.741,8.741,0,0,0,.273,1.047c0.056,0.172.12,0.34,0.185,0.509L70.715,79.1l0.008,0.018c0.043,0.094.085,0.187,0.13,0.28a1.045,1.045,0,0,1-.365,1.393A1.022,1.022,0,0,1,69.1,80.43a9.768,9.768,0,0,1-.778-2.414,8.567,8.567,0,0,1-.13-1.378A2.917,2.917,0,0,1,68.42,75.2,0.85,0.85,0,0,1,69.272,74.793Z"/>
  <path id="Shape_315_copy" data-name="Shape 315 copy" class="cls-3" d="M143.521,103.83a4.652,4.652,0,0,1-.891-0.1c-1.33-.263-28.551-9.309-31.65-10.339l-0.07-.023-0.139-.076v1.6l-0.04.12c-0.053.159-.6,1.557-3.327,1.766l-0.05,0-5.314-.271L91.171,94.141,91,93.869a6.749,6.749,0,0,0-2.275-2.176L66.012,90.663l0-.86L3.166,89.015,3.16,84.629l2.649,0V82.245l4.211,0.006v2.382l56-.342V83.756h6.659l1.339-1.586h8.108v1.587h28.494L110.9,86.9c0.415,0.134,6.332,2.053,7.482,2.435a5.473,5.473,0,0,0,1.013.095,5.413,5.413,0,0,0,2.256-.489l0.053-.022a15.248,15.248,0,0,1,4.552-.929c1.108,0,16.385,1.877,18.341,2.117a2.294,2.294,0,0,1,2.219,2l0.014,0.114L145.036,103l-0.033.081A1.428,1.428,0,0,1,143.521,103.83Z"/>
  <path id="Shape_315_copy_2" data-name="Shape 315 copy 2" class="cls-2" d="M74.381,82.952h6.963V84.54h28.562l0.262,2.906c0.144,0.065.291,0.124,0.438,0.18,0,0,6.524,2.116,7.581,2.468a6.234,6.234,0,0,0,3.792-.44,14.487,14.487,0,0,1,4.319-.881c1.06,0,18.25,2.118,18.25,2.118a1.508,1.508,0,0,1,1.5,1.32l-1.764,10.578a0.751,0.751,0,0,1-.758.26,3.85,3.85,0,0,1-.74-0.083c-1.319-.261-31.555-10.314-31.555-10.314a3.857,3.857,0,0,0-1.236-.433v2.552s-0.352,1.058-2.645,1.234l-5.2-.265-10.49-2.292a7.507,7.507,0,0,0-2.711-2.526l-22.144-1,0-.885L3.947,88.243l0-2.831,2.648,0V83.028l2.647,0v2.387L66.8,85.067V84.538h6.242l1.339-1.587m-0.726-1.564-0.469.555-0.87,1.031H65.239v0.539L10.8,83.846V81.47l-1.561,0-2.647,0-1.566,0V83.85H3.945l-1.568,0,0,1.568,0,2.831,0,1.542,1.542,0.019,61.3,0.769,0,0.835,1.5,0.068,21.76,0.986a5.964,5.964,0,0,1,1.851,1.827l0.35,0.544,0.632,0.138,10.49,2.292,0.126,0.028,0.128,0.006,5.2,0.265,0.1,0.005,0.1-.008c3.167-.243,3.895-1.957,4.009-2.3l0.08-.24V94.408c6.516,2.166,29.639,9.838,30.925,10.091a5.42,5.42,0,0,0,1.043.113,2.178,2.178,0,0,0,2.206-1.233l0.066-.162,0.029-.172,1.763-10.578,0.038-.226-0.028-.227a3.079,3.079,0,0,0-2.936-2.686c-3.059-.376-17.268-2.114-18.355-2.12h-0.042l-0.041,0a16.037,16.037,0,0,0-4.785.976l-0.054.02-0.052.023a4.635,4.635,0,0,1-1.932.419,4.687,4.687,0,0,1-.819-0.072c-1.085-.359-5.4-1.759-6.944-2.261L111.462,84.4l-0.128-1.423H82.907V81.389H73.654Z"/>
  <path id="Shape_314_copy_2" data-name="Shape 314 copy 2" class="cls-4" d="M91.776,144.776H62.224V115.224H74.371v17.4H91.776v12.147Zm-27.467-2.085H89.691v-7.977H72.286v-17.4H64.309v25.382Z"/>
  <path class="cls-4" d="M70.14,92.948a1.04,1.04,0,0,1-.841.437,1.1,1.1,0,0,1-.135-0.008c-0.206-.026-0.72-0.092-1.485-1.353a1.887,1.887,0,0,1-.587.7c-0.921.614-2.358-.363-3.4-1.29l-0.069-.069a15.686,15.686,0,0,1-3.86-11.2l0.013-.117,0.046-.108c0.559-1.3,1.95-1.126,2.87-1.007a5.58,5.58,0,0,0,.964.065s0-.007,0-0.01a0.88,0.88,0,0,1,.832-0.406c1.294-.7,3.412.064,4.267,0.43a4.361,4.361,0,0,1,3.013.23,2.791,2.791,0,0,1,1.357,1.838C73.826,83.863,70.783,92.091,70.14,92.948Z"/>
  <path id="Shape_314_copy_5" data-name="Shape 314 copy 5" class="cls-1" d="M60.54,80.241a15.01,15.01,0,0,0,3.671,10.606s1.836,1.632,2.448,1.224,0.816-2.244.816-2.244,1.428,3.467,2.04,2.652,3.467-8.771,2.855-11.218S68.7,79.833,68.7,79.833s-3.059-1.428-4.079-.408S61.152,78.814,60.54,80.241Z"/>
  <path id="Shape_315_copy_3" data-name="Shape 315 copy 3" class="cls-1" d="M91.867,80.694A15.01,15.01,0,0,1,88.2,91.3s-1.836,1.632-2.448,1.224-0.816-2.244-.816-2.244-1.428,3.467-2.04,2.652-3.467-8.771-2.856-11.218,3.671-1.428,3.671-1.428,3.06-1.428,4.079-.408S91.255,79.266,91.867,80.694Z"/>
  <path id="Shape_315_copy_4" data-name="Shape 315 copy 4" class="cls-2" d="M88.784,91.815l-0.069.069c-1.043.927-2.48,1.9-3.4,1.29a1.887,1.887,0,0,1-.587-0.7c-0.765,1.262-1.28,1.327-1.485,1.353a1.1,1.1,0,0,1-.135.008,1.04,1.04,0,0,1-.841-0.437c-0.643-.857-3.686-9.085-2.989-11.877a2.792,2.792,0,0,1,1.357-1.838,4.358,4.358,0,0,1,3.014-.23c0.955-.408,3.5-1.327,4.692-0.132a2.181,2.181,0,0,0,1.375.053c0.92-.119,2.311-0.3,2.87,1.007l0.046,0.108,0.013,0.117A15.685,15.685,0,0,1,88.784,91.815ZM91.1,80.937a2.031,2.031,0,0,0-1.186-.008c-0.219.028-.453,0.058-0.691,0.075,0,0.03.014,0.059,0.016,0.09a4.593,4.593,0,0,1-.01.6A10.655,10.655,0,0,1,89,83c-0.077.376-.149,0.753-0.235,1.127a3.483,3.483,0,0,1-.469,1.3,0.907,0.907,0,0,1-.884.424,0.878,0.878,0,0,1-.738-0.636,2.5,2.5,0,0,1-.021-0.936c0.04-.2.088-0.4,0.132-0.606,0.085-.389.187-0.774,0.283-1.16a8.657,8.657,0,0,1,.317-1.151,6.384,6.384,0,0,1,.281-0.618,1.839,1.839,0,0,1-.43-0.312c-0.319-.318-1.625-0.072-2.761.379l0.057,0.057a1.432,1.432,0,0,1,.2.319,4.6,4.6,0,0,1,.223.561,10.65,10.65,0,0,1,.286,1.289c0.073,0.377.152,0.753,0.216,1.131a3.484,3.484,0,0,1,.066,1.38,0.907,0.907,0,0,1-.654.731,0.878,0.878,0,0,1-.926-0.3,2.5,2.5,0,0,1-.379-0.856c-0.041-.2-0.074-0.407-0.111-0.61-0.071-.391-0.125-0.786-0.184-1.18a8.641,8.641,0,0,1-.15-1.184,5.666,5.666,0,0,1,.024-0.753,2.149,2.149,0,0,1,.1-0.349c0.008-.026.013-0.048,0.018-0.071a4.1,4.1,0,0,0-.931-0.115,1.979,1.979,0,0,0-.947.2,1.224,1.224,0,0,0-.589.844c-0.461,1.844,1.547,8,2.436,10a13.076,13.076,0,0,0,.977-1.924l1.159-2.814,0.341,3.025a5.281,5.281,0,0,0,.41,1.581,6.379,6.379,0,0,0,1.521-1.027A14.43,14.43,0,0,0,91.1,80.937Z"/>
  <path id="Shape_314_copy_6" data-name="Shape 314 copy 6" class="cls-5" d="M70.14,92.948a1.04,1.04,0,0,1-.841.437,1.1,1.1,0,0,1-.135-0.008c-0.206-.026-0.72-0.092-1.485-1.353a1.887,1.887,0,0,1-.587.7c-0.921.614-2.358-.363-3.4-1.29l-0.069-.069a15.686,15.686,0,0,1-3.86-11.2l0.013-.117,0.046-.108c0.559-1.3,1.95-1.126,2.87-1.007a5.58,5.58,0,0,0,.964.065s0-.007,0-0.01a0.88,0.88,0,0,1,.832-0.406c1.294-.7,3.412.064,4.267,0.43a4.361,4.361,0,0,1,3.013.23,2.791,2.791,0,0,1,1.357,1.838C73.826,83.863,70.783,92.091,70.14,92.948Zm1.471-11.5a1.223,1.223,0,0,0-.592-0.846,2.481,2.481,0,0,0-1.483-.151c0,0.046,0,.092,0,0.138a1.563,1.563,0,0,1,0,.373,5.013,5.013,0,0,1-.13.623,8.79,8.79,0,0,0-.172.906l0.039-.291c-0.019.146-.04,0.292-0.06,0.437a8.871,8.871,0,0,0-.068.9c0,0.153,0,.307,0,0.46a1.215,1.215,0,0,1-.336.959,1.009,1.009,0,0,1-1.219.157,1.2,1.2,0,0,1-.519-0.658,2.867,2.867,0,0,1-.057-0.494q-0.023-.283-0.023-0.566a8.608,8.608,0,0,1,.067-1.058,7.608,7.608,0,0,1,.267-1.255,3.327,3.327,0,0,1,.274-0.717c0.022-.037.054-0.071,0.078-0.11a4.1,4.1,0,0,0-2.4-.333c-0.013.106-.028,0.212-0.034,0.319,0.015-.259-0.007.1-0.011,0.142q-0.009.122-.014,0.244a9.215,9.215,0,0,0,.051,1.216q0.01,0.067.022,0.134,0.022,0.121.048,0.241c0.047,0.214.115,0.42,0.173,0.631,0.051,0.184.092,0.368,0.152,0.549,0.034,0.1.072,0.2,0.109,0.3l0.007,0.018a0.774,0.774,0,0,1,.1.284,0.97,0.97,0,0,1-.425,1.044,0.947,0.947,0,0,1-1.12-.145,2.7,2.7,0,0,1-.487-0.7,5.615,5.615,0,0,1-.376-0.8,6.434,6.434,0,0,1-.3-1.477,5.655,5.655,0,0,1,.03-1.386c-0.242-.016-0.48-0.046-0.7-0.075a2.025,2.025,0,0,0-1.185.008,14.429,14.429,0,0,0,3.46,9.81,6.328,6.328,0,0,0,1.526,1.029,5.381,5.381,0,0,0,.4-1.583l0.337-3.032L68.2,89.53a13.041,13.041,0,0,0,.977,1.926C70.062,89.461,72.072,83.3,71.611,81.451Z"/>
</svg>
