<svg id="ger_berlin_mgun_1_icon" xmlns="http://www.w3.org/2000/svg" width="150" height="150" viewBox="0 0 150 150">
  <defs>
    <style>
      .cls-1, .cls-4 {
        fill: #151515;
      }

      .cls-2 {
        fill: #f2f2f2;
      }

      .cls-2, .cls-3, .cls-4 {
        fill-rule: evenodd;
      }

      .cls-3 {
        fill: #ae2828;
      }
    </style>
  </defs>
  <rect class="cls-1" x="46" y="119" width="58" height="30"/>
  <path id="Rectangle_2_copy" data-name="Rectangle 2 copy" class="cls-2" d="M46,122h58v3H46v-3Zm0,21h58v3H46v-3Z"/>
  <path class="cls-2" d="M131.237,59.75L75,115.987,18.763,59.75,75,3.513Z"/>
  <path class="cls-3" d="M74.92,46.788L85.128,43l5.9-2.188H74.92v5.974Z"/>
  <path class="cls-4" d="M53.514,53.144a4.877,4.877,0,0,0-.49-1.188,3.287,3.287,0,0,0-.779-0.909,3.349,3.349,0,0,0-1.117-.577,5.118,5.118,0,0,0-1.515-.2,5.218,5.218,0,0,0-1.9.319,3.641,3.641,0,0,0-2.194,2.246,5.088,5.088,0,0,0-.279,1.718,5.879,5.879,0,0,0,.2,1.588,3,3,0,0,0,.63,1.2,2.761,2.761,0,0,0,1.126.75,4.814,4.814,0,0,0,1.684.26,4.556,4.556,0,0,0,1.435-.207,4.866,4.866,0,0,0,1.068-.486,6.189,6.189,0,0,1-.183,1.356,3.4,3.4,0,0,1-.51,1.136,2.486,2.486,0,0,1-.9.779,2.952,2.952,0,0,1-1.366.289,4.994,4.994,0,0,1-.856-0.067,6.749,6.749,0,0,1-.688-0.154q-0.3-.086-0.514-0.154a1.173,1.173,0,0,0-.327-0.068,0.309,0.309,0,0,0-.149.034,0.263,0.263,0,0,0-.106.139,1.017,1.017,0,0,0-.058.3q-0.014.191-.014,0.51a2.328,2.328,0,0,0,.048.539,0.591,0.591,0,0,0,.154.294,1.1,1.1,0,0,0,.341.2,4.505,4.505,0,0,0,.573.183,6.87,6.87,0,0,0,.746.144,5.886,5.886,0,0,0,.823.057,6.052,6.052,0,0,0,2.035-.308,4.5,4.5,0,0,0,1.463-.833,4.381,4.381,0,0,0,.982-1.227,7.1,7.1,0,0,0,.6-1.482,9.181,9.181,0,0,0,.293-1.595q0.08-.813.08-1.573a15.878,15.878,0,0,0-.077-1.589A8.419,8.419,0,0,0,53.514,53.144Zm-3.062,3.105a3.25,3.25,0,0,1-1.053.168,2.1,2.1,0,0,1-.77-0.125,1.182,1.182,0,0,1-.514-0.38,1.654,1.654,0,0,1-.289-0.644,3.953,3.953,0,0,1-.092-0.9A3.338,3.338,0,0,1,47.84,53.5a1.986,1.986,0,0,1,.319-0.683,1.476,1.476,0,0,1,.544-0.447,1.983,1.983,0,0,1,1.588.014,1.379,1.379,0,0,1,.577.587,3.464,3.464,0,0,1,.346,1.107A10.735,10.735,0,0,1,51.33,55.8,3.288,3.288,0,0,1,50.452,56.249Zm40.21,2.77A16.133,16.133,0,0,0,76.925,47.513L98.32,39.579,74.011,30.563V47.469a15.852,15.852,0,0,0-8.5,3.27,16.1,16.1,0,0,0-5.662,8.282l0.042,0.012H59.827L75.255,94.622,90.684,59.032H90.618ZM74.219,84.211L64.686,62.222h9.532V84.211Zm0-25.178H62.331A13.866,13.866,0,0,1,74.219,49.81v9.223Zm2.073-21.053H88.23l4.314,1.6L76.292,45.605V37.979Zm0,46.232V62.222h9.532Zm0-25.178V49.81a13.768,13.768,0,0,1,11.882,9.223H76.3ZM75,0.693L15.943,59.75,75,118.807,134.057,59.75ZM21.582,59.75L75,6.332,128.418,59.75,75,113.168Z"/>
  <path id="_25" data-name="25" class="cls-2" d="M72.316,130.618a3.834,3.834,0,0,0-1.067-2.971,3.766,3.766,0,0,0-2.642-.977,6.067,6.067,0,0,0-2.223.359,6.41,6.41,0,0,0-1.745,1.056l1.276,2.413a2.146,2.146,0,0,1,.8-0.548,2.381,2.381,0,0,1,.917-0.21,1.254,1.254,0,0,1,1.356,1.476,7.559,7.559,0,0,1-1.186,3.529,29.068,29.068,0,0,1-2.8,4.067v2.113h7.556v-2.911H69.844l-1.336.439v-0.14l0.977-.777Q72.316,133.768,72.316,130.618Zm6.4,7.536a4.091,4.091,0,0,1-1.954-.419l-0.9,2.811a4.939,4.939,0,0,0,1.386.479,7.8,7.8,0,0,0,1.665.2,5.05,5.05,0,0,0,3.589-1.246,4.734,4.734,0,0,0,1.336-3.638,5.1,5.1,0,0,0-.977-3.3,3.5,3.5,0,0,0-2.632-1.306l-0.638.12V130.2h3.768v-3.23h-6.5v7.736l1.236-.06a3.224,3.224,0,0,1,1.834.409,1.554,1.554,0,0,1,.578,1.365,1.819,1.819,0,0,1-.429,1.246A1.727,1.727,0,0,1,78.711,138.154Z"/>
</svg>
