<svg xmlns="http://www.w3.org/2000/svg" width="150" height="150" viewBox="0 0 150 150">
  <defs>
    <style>
      .cls-1 {
        fill: #1a1a1a;
      }

      .cls-2 {
        fill: #cf648b;
      }

      .cls-3 {
        fill: #fc0;
      }
    </style>
  </defs>
  <g id="Layer_2" data-name="Layer 2">
    <g>
      <path class="cls-1" d="M76.28516,146.33008c-22.28028-3.627-39.2627-13.9961-50.47559-30.82031A72.636,72.636,0,0,1,13.85352,75.03906V3.98535h125.293V75.03906a72.63042,72.63042,0,0,1-11.956,40.46973c-11.21289,16.82519-28.19531,27.19433-50.47559,30.82129Z"/>
      <path class="cls-2" d="M137.29309,5.83908V75.0388a70.7867,70.7867,0,0,1-11.64514,39.443C114.75708,130.82407,98.24365,140.915,76.56458,144.477h-.12916c-21.67907-3.56207-38.1925-13.653-49.08325-29.99521a70.786,70.786,0,0,1-11.64526-39.443V5.83908H137.29309M141,2.13219H12V75.0388a74.8025,74.8025,0,0,0,12.26746,41.49868c9.08093,13.62652,24.7882,27.27923,51.86816,31.64642h.72876c27.08-4.36719,42.78723-18.0199,51.86816-31.64642A74.8025,74.8025,0,0,0,141,75.0388V2.13219Z"/>
    </g>
    <polygon class="cls-3" points="83.583 70.339 90.586 70.339 90.586 58.477 80.618 58.477 75.057 36.236 90.586 36.236 90.586 25.115 72.277 25.115 59.448 25.115 67.789 58.477 60.931 58.477 60.931 70.339 70.754 70.339 77.427 97.029 60.931 97.029 60.931 108.149 80.207 108.149 92.069 108.149 93.036 108.149 83.583 70.339"/>
  </g>
</svg>
