<svg id="_344_infantry_division" data-name="344_infantry_division" xmlns="http://www.w3.org/2000/svg" width="150" height="150" viewBox="0 0 150 150">
  <defs>
    <style>
      .cls-1 {
        fill: #eee;
      }

      .cls-1, .cls-2 {
        fill-rule: evenodd;
      }

      .cls-2 {
        fill: #151515;
      }
    </style>
  </defs>
  <path class="cls-1" d="M147,136H3V15H147V136Z"/>
  <path class="cls-1" d="M117.576,84.994C105.924,97.269,92.558,93.5,92.558,93.5A62.077,62.077,0,0,0,87.73,72.123C83.115,61.8,72.773,57.033,72.773,57.033a24.124,24.124,0,0,0-3.618,1.619s-4.771-3.609-5.572-9.005C62.658,43.419,68.4,38.313,68.4,38.313l0.891-.938s4.8-6,11.069-5.4c5.431,0.519,9.283,5.1,9.283,5.1a24.131,24.131,0,0,0-1.429,3.7s5.3,10.08,15.848,14.151a62.074,62.074,0,0,0,21.6,3.707s4.46,13.152-7.192,25.427Z"/>
  <path id="Shape_23_copy" data-name="Shape 23 copy" class="cls-2" d="M97.6,95.565a21.543,21.543,0,0,1-5.453-.622l-1.07-.3-0.022-1.112a61.055,61.055,0,0,0-4.7-20.794c-3.758-8.407-11.662-13-13.72-14.089-0.632.25-1.755,0.783-2.781,1.33l-0.846.45-0.764-.578c-0.215-.162-5.27-4.046-6.152-9.98C61.1,43.174,66.7,37.832,67.347,37.24l0.813-.856c0.557-.677,5.594-6.541,12.339-5.9,5.972,0.571,10.114,5.417,10.287,5.623L91.4,36.84,91,37.709c-0.492,1.053-.967,2.2-1.184,2.846,1.189,2,6.193,9.653,14.785,12.968a61.188,61.188,0,0,0,21.011,3.608l1.111-.036,0.358,1.054c0.194,0.571,4.612,14.156-7.524,26.941l-0.891.938C111.083,94.012,102.854,95.565,97.6,95.565ZM94,92.278c3.234,0.559,13.327,1.33,22.483-8.316h0l0.891-.937c9.154-9.644,7.861-19.683,7.133-22.886a63.06,63.06,0,0,1-21-3.816C92.565,52.1,87.108,41.9,86.881,41.467l-0.225-.428,0.067-.478a16.269,16.269,0,0,1,1.129-3.185c-1.221-1.183-4.087-3.566-7.641-3.906-5.375-.513-9.713,4.79-9.756,4.844l-0.082.093-0.981,1.027c-0.049.044-5.119,4.66-4.327,9.992,0.524,3.53,3.053,6.269,4.3,7.428a16.247,16.247,0,0,1,3.121-1.294l0.474-.092,0.439,0.2c0.443,0.2,10.909,5.123,15.7,15.84A63.058,63.058,0,0,1,94,92.278Z"/>
  <path class="cls-1" d="M119.908,25.77l-17.673,2.647,4.431,4.206L24.534,119.149l7.089,6.729,82.132-86.527,4.43,4.206Z"/>
  <path id="Shape_24_copy" data-name="Shape 24 copy" class="cls-2" d="M31.679,128l-9.265-8.793,82.131-86.527-5.572-5.29L121.586,24l-2.2,22.758-5.572-5.289Zm-5.023-8.905,4.913,4.664L113.7,37.231l3.289,3.121,1.241-12.814L105.5,29.445l3.289,3.122Z"/>
</svg>
