<?xml version="1.0" encoding="UTF-8" standalone="no"?>
<!DOCTYPE svg PUBLIC "-//W3C//DTD SVG 1.1//EN" "http://www.w3.org/Graphics/SVG/1.1/DTD/svg11.dtd">
<svg width="100%" height="100%" viewBox="0 0 150 150" version="1.1" xmlns="http://www.w3.org/2000/svg" xmlns:xlink="http://www.w3.org/1999/xlink" xml:space="preserve" xmlns:serif="http://www.serif.com/" style="fill-rule:evenodd;clip-rule:evenodd;stroke-linejoin:round;stroke-miterlimit:2;">
    <g transform="matrix(1,0,0,1,-188,-17)">
        <g transform="matrix(1.70633,0,0,1.67541,842.927,28.482)">
            <g id="ger_moscow_pilot_assaulter_3_icon" transform="matrix(0.574562,0,0,0.585166,-397.611,-48.9852)">
                <rect x="24" y="72" width="153" height="153" style="fill:none;"/>
                <g transform="matrix(1.27981,0,0,1.16042,-269.584,-380.208)">
                    <path d="M251.327,475.979L251.002,479.739L255.13,484.872L254.962,492.682L256.983,502.781L254.334,506.679L256.285,510.996L262.856,510.996L265.277,507.668L263.309,503.843L264.088,489.756L265.536,483.256L267.207,481.716L267.527,488.865L267.26,491.197L269.233,502.523L266.436,507.133L269.013,510.996L276.311,510.996L278.79,507.721L276.209,503.224L277.923,490.328L277.645,487.111L278.246,484.03L279.255,473.241L283.876,465.351L288.024,445.152L295.028,442.314L291.763,452.96C290.488,469.631 298.352,482.317 315.646,490.408C316.279,493.758 316.663,496.914 316.451,499.606L312.713,501.332L310.436,508.212L313.516,508.871L312.962,510.996L325.164,510.996L329.597,506.216C326.534,500.01 327.088,491.911 329.672,484.766C330.109,483.573 329.747,482.206 328.797,481.461C325.907,479.225 323.36,477.441 322.44,473.241C325.328,466.685 327.529,458.756 328.535,448.433C328.535,448.433 342.428,446.669 345.184,429.42C348.166,410.753 338.94,402.391 331.211,401.389C326.06,400.722 319.39,400.867 316.01,407.022C312.651,413.14 314.376,418.976 314.376,418.976L318.424,417.338C318.424,417.338 316.426,409.538 322.667,408.649C328.908,407.76 333.825,412.672 335.228,417.202C336.631,421.732 336.276,427.503 333.992,431.698C331.097,437.017 327.902,437.512 327.902,437.512L325.164,433.605C325.164,433.605 312.553,419.873 303.654,417.346C294.754,414.818 282.634,413.937 271.597,424.54C260.56,435.142 262.59,442.314 262.59,442.314C259.247,440.752 252.184,440.335 248.519,442.314L244.032,436.736L241.028,442.565L242.444,447.967L239.709,457.648L242.444,468.542L249.051,473.15L251.327,475.979Z" style="fill:rgb(185,185,185);"/>
                </g>
                <g transform="matrix(1.02,0,0,1.02,-167.76,54.66)">
                    <path d="M200.376,96.026C199.266,95.551 198.154,95.079 197.124,94.648C196.438,94.361 195.788,94.096 195.197,93.865C193.474,93.189 192.279,92.761 192.279,92.761C191.893,92.607 191.453,92.796 191.299,93.183C191.145,93.569 191.334,94.009 191.721,94.163C191.721,94.163 192.882,94.674 194.598,95.37C195.185,95.608 195.84,95.863 196.534,96.127C197.889,96.64 199.392,97.199 200.85,97.736L201.837,101.3C200.312,101.136 198.654,100.963 197.192,100.82C196.599,100.763 196.037,100.713 195.53,100.675C194.049,100.562 193.031,100.513 193.031,100.513C192.72,100.488 192.447,100.72 192.422,101.032C192.396,101.343 192.629,101.616 192.94,101.641C192.94,101.641 193.951,101.758 195.431,101.886C195.938,101.93 196.501,101.972 197.096,102.01C198.677,102.113 200.488,102.217 202.115,102.306L202.674,104.323C200.89,104.52 198.77,104.762 196.959,104.99C196.374,105.064 195.822,105.141 195.325,105.218C193.873,105.443 192.885,105.635 192.885,105.635C192.473,105.696 192.188,106.08 192.249,106.492C192.31,106.904 192.694,107.189 193.106,107.128C193.106,107.128 194.108,107.025 195.562,106.82C196.061,106.75 196.611,106.664 197.192,106.565C199.043,106.25 201.211,105.854 203.005,105.519L203.406,106.969C203.472,107.209 203.625,107.415 203.835,107.548L212.006,112.715L213.389,114.273C213.456,114.492 213.599,114.689 213.807,114.821L213.963,114.92L214.479,115.501L214.113,119.346C214.087,119.622 214.176,119.897 214.36,120.104L219.278,125.65C219.278,125.65 219.077,134.142 219.077,134.142C219.076,134.222 219.083,134.303 219.101,134.381L221.537,145.423C221.537,145.423 218.489,149.489 218.489,149.489C218.262,149.792 218.226,150.197 218.394,150.535L220.841,155.447C221.01,155.787 221.357,156.001 221.736,156.001L229.982,156.001C230.285,156.001 230.572,155.864 230.762,155.627L233.8,151.841C233.864,151.761 233.914,151.674 233.95,151.582L236.902,155.594C237.09,155.85 237.389,156.001 237.707,156.001L246.864,156.001C247.16,156.001 247.441,155.87 247.631,155.642L250.742,151.916C251.021,151.582 251.052,151.107 250.819,150.74L247.779,145.937C247.779,145.937 249.876,131.633 249.876,131.633C249.888,131.553 249.89,131.472 249.882,131.392L249.547,127.887C249.547,127.887 250.269,124.533 250.269,124.533C250.277,124.497 250.282,124.461 250.286,124.425L251.528,112.389C251.528,112.389 257.195,103.615 257.195,103.615C257.259,103.516 257.304,103.407 257.33,103.293L262.416,80.843C262.416,80.843 268.731,78.523 268.731,78.523C268.731,78.523 265.304,88.655 265.304,88.655C265.278,88.732 265.262,88.811 265.255,88.892C263.631,108.143 273.495,122.871 295.343,132.292C296.004,135.564 296.418,138.655 296.273,141.358C296.273,141.358 292.151,143.084 292.151,143.084C291.894,143.192 291.694,143.402 291.598,143.664L288.741,151.491C288.641,151.766 288.666,152.072 288.81,152.326C288.955,152.581 289.203,152.76 289.491,152.816L292.282,153.357C292.282,153.357 291.889,154.725 291.889,154.725C291.802,155.027 291.862,155.352 292.051,155.603C292.24,155.854 292.536,156.001 292.85,156.001L308.161,156.001C308.422,156.001 308.673,155.899 308.86,155.716L314.422,150.278C314.742,149.965 314.815,149.478 314.601,149.085C310.891,142.269 311.615,133.377 314.745,125.53C315.466,123.749 314.868,121.701 313.297,120.585C313.296,120.583 313.294,120.582 313.292,120.581C309.961,118.244 306.96,116.415 305.802,112.155C309.311,104.834 312.007,96.031 313.3,84.689C316.84,84.014 331.12,80.207 334.264,62.369C338.155,40.291 325.946,30.496 315.864,29.312C309.056,28.513 300.286,28.819 295.819,36.196C291.349,43.577 293.674,50.623 293.674,50.623C293.758,50.881 293.943,51.094 294.188,51.213C294.432,51.331 294.714,51.346 294.969,51.252L300.048,49.389C300.539,49.209 300.809,48.681 300.666,48.178C300.666,48.178 300.304,46.884 300.322,45.273C300.338,43.907 300.61,42.287 301.725,41.106C302.46,40.328 303.56,39.762 305.155,39.556C312.451,38.614 318.201,43.817 319.841,48.618C321.512,53.51 321.099,59.742 318.38,64.271C315.819,68.538 313.097,69.874 311.98,70.263C311.98,70.263 308.952,66.344 308.952,66.344C308.925,66.309 308.895,66.275 308.863,66.244C308.863,66.244 292.764,50.411 281.42,47.49C270.001,44.549 254.454,43.553 240.292,55.889C229.683,65.129 228.392,72.245 228.461,75.392C223.949,74.085 216.662,73.881 212.256,75.654C212.256,75.653 207.11,69.854 207.11,69.854C206.896,69.612 206.579,69.489 206.258,69.523C205.937,69.557 205.652,69.743 205.493,70.023L201.724,76.655C201.591,76.89 201.558,77.168 201.633,77.427L203.326,83.284C203.326,83.284 199.984,94.012 199.984,94.012C199.927,94.195 199.924,94.391 199.975,94.576L200.376,96.026ZM216.397,116.454L216.145,119.103L221.036,124.617C221.203,124.806 221.293,125.052 221.287,125.305C221.287,125.305 221.08,134.068 221.08,134.068L223.589,145.44C223.652,145.725 223.587,146.022 223.413,146.255C223.413,146.255 220.46,150.195 220.46,150.195L222.198,153.686C222.208,153.322 222.305,152.856 222.361,152.376C222.496,151.209 222.686,150.01 222.686,150.01C222.682,149.754 222.886,149.543 223.142,149.539C223.397,149.536 223.608,149.74 223.612,149.995C223.612,149.995 223.838,151.188 224.01,152.351C224.099,152.957 224.254,153.538 224.208,153.922C224.204,153.951 224.199,153.977 224.192,154.001L225.61,154.001L225.609,153.996C225.551,153.613 225.688,153.027 225.758,152.419C225.894,151.251 226.083,150.052 226.083,150.052C226.079,149.797 226.284,149.586 226.539,149.582C226.795,149.578 227.005,149.782 227.009,150.038C227.009,150.038 227.236,151.231 227.407,152.393C227.497,152.999 227.651,153.581 227.605,153.965C227.604,153.978 227.602,153.99 227.6,154.001L229.502,154.001C229.502,154.001 231.815,151.119 231.815,151.119L229.68,147.357C229.584,147.188 229.54,146.996 229.552,146.802L230.529,130.776C230.532,130.716 230.541,130.656 230.556,130.598L232.374,123.203C232.424,122.996 232.54,122.811 232.703,122.675L234.799,120.923C235.09,120.679 235.494,120.622 235.842,120.774C236.189,120.926 236.421,121.262 236.439,121.64L236.841,129.774C236.844,129.832 236.842,129.891 236.834,129.949C236.834,129.949 236.519,132.444 236.519,132.444L238.964,145.173C239.014,145.432 238.96,145.699 238.814,145.918C238.814,145.918 235.695,150.579 235.695,150.579C235.695,150.579 238.213,154.001 238.213,154.001L238.578,154.001C238.574,153.986 238.571,153.97 238.569,153.953C238.511,153.571 238.648,152.985 238.718,152.376C238.854,151.209 239.043,150.01 239.043,150.01C239.039,149.754 239.244,149.543 239.499,149.539C239.755,149.536 239.965,149.74 239.969,149.995C239.969,149.995 240.196,151.188 240.367,152.351C240.457,152.957 240.611,153.538 240.565,153.922C240.562,153.951 240.557,153.977 240.55,154.001L241.967,154.001L241.966,153.996C241.909,153.613 242.045,153.027 242.116,152.419C242.251,151.251 242.441,150.052 242.441,150.052C242.437,149.797 242.641,149.586 242.897,149.582C243.152,149.578 243.363,149.782 243.367,150.038C243.367,150.038 243.593,151.231 243.765,152.393C243.854,152.999 244.009,153.581 243.963,153.965C243.961,153.978 243.96,153.99 243.957,154.001L246.396,154.001C246.396,154.001 248.74,151.194 248.74,151.194L245.891,146.694C245.763,146.492 245.711,146.251 245.746,146.014C245.746,146.014 247.88,131.462 247.88,131.462L247.542,127.923C247.532,127.821 247.538,127.718 247.56,127.618C247.56,127.618 248.302,124.165 248.302,124.165L249.563,111.945C249.58,111.788 249.633,111.638 249.718,111.505C249.718,111.505 255.419,102.678 255.419,102.678L260.585,79.871C260.66,79.541 260.898,79.271 261.216,79.154L269.998,75.927C269.914,75.135 269.706,74.404 269.355,73.74C268.625,72.36 267.268,71.315 265.201,70.605C264.68,70.425 264.401,69.856 264.581,69.334C264.76,68.812 265.329,68.534 265.851,68.713C268.501,69.623 270.187,71.036 271.123,72.804C272.47,75.352 272.249,78.733 270.815,82.672C268.371,102.196 278.942,115.925 298.988,125.462C299.201,125.564 299.372,125.738 299.469,125.954C302.803,133.333 303.931,140.331 301.622,146.698C301.479,147.094 301.103,147.357 300.682,147.357C300.682,147.357 297.119,147.357 297.119,147.357C297.119,147.357 294.622,153.093 294.409,153.196L294.178,154.001L297.798,154.001C297.835,153.871 297.875,153.74 297.879,153.702C297.922,153.306 298.206,152.757 298.431,152.169C298.863,151.041 299.356,149.893 299.356,149.893C299.416,149.645 299.667,149.492 299.915,149.553C300.164,149.613 300.316,149.863 300.256,150.112C300.256,150.112 300.167,151.358 300.034,152.558C299.974,153.095 299.965,153.627 299.873,154.001L301.185,154.001C301.218,153.899 301.261,153.786 301.266,153.745C301.309,153.349 301.592,152.8 301.817,152.211C302.249,151.084 302.742,149.936 302.742,149.936C302.803,149.687 303.053,149.535 303.302,149.595C303.55,149.655 303.703,149.906 303.642,150.154C303.642,150.154 303.554,151.401 303.42,152.601C303.362,153.118 303.352,153.63 303.269,154.001L307.753,154.001C307.753,154.001 312.494,149.366 312.494,149.366C308.91,142.154 309.634,132.945 312.887,124.789C312.888,124.788 312.888,124.786 312.889,124.784C313.264,123.858 312.954,122.795 312.14,122.216C308.308,119.528 304.99,117.333 303.771,112.283C303.716,112.057 303.742,111.82 303.843,111.611C307.424,104.24 310.148,95.324 311.395,83.718C311.445,83.254 311.81,82.885 312.275,82.832C312.275,82.832 328.974,80.866 332.294,62.022C335.889,41.625 324.945,32.392 315.63,31.298C309.512,30.58 301.545,30.602 297.53,37.232C294.531,42.184 294.954,46.961 295.335,48.987C295.335,48.987 298.542,47.811 298.542,47.811C298.429,47.178 298.311,46.267 298.322,45.25C298.343,43.433 298.787,41.304 300.271,39.733C301.268,38.677 302.735,37.852 304.899,37.573C313.265,36.493 319.853,42.466 321.734,47.972C323.584,53.387 323.105,60.286 320.095,65.301C316.154,71.864 311.735,72.392 311.735,72.392C311.379,72.442 311.024,72.297 310.804,72.013C310.804,72.013 307.411,67.621 307.408,67.618C306.435,66.662 291.547,52.163 280.922,49.427C270.009,46.616 255.14,45.608 241.606,57.397C233.342,64.594 231.111,70.287 230.599,73.542L233.566,69.771C233.773,69.509 234.096,69.368 234.428,69.393C234.76,69.418 235.058,69.607 235.222,69.897L239.063,76.676C239.197,76.913 239.229,77.193 239.152,77.453C239.152,77.453 237.419,83.3 237.419,83.3L240.6,93.439C241.256,93.125 241.9,92.818 242.518,92.527C245.425,91.154 247.736,90.134 247.736,90.134C248.121,89.958 248.577,90.128 248.753,90.513C248.929,90.898 248.759,91.354 248.374,91.53C248.374,91.53 246.09,92.608 243.148,93.906C242.354,94.256 241.514,94.623 240.66,94.993L239.981,97.414C240.929,97.137 241.871,96.863 242.752,96.611C245.455,95.838 247.592,95.277 247.592,95.277C247.898,95.193 248.215,95.374 248.299,95.68C248.383,95.987 248.203,96.304 247.896,96.388C247.896,96.388 245.773,96.995 243.052,97.708C241.979,97.99 240.814,98.29 239.652,98.585L239.02,100.839C240.441,100.651 241.909,100.461 243.237,100.297C245.911,99.968 248.016,99.757 248.016,99.757C248.332,99.722 248.617,99.95 248.652,100.266C248.688,100.582 248.46,100.867 248.144,100.902C248.144,100.902 246.044,101.16 243.363,101.428C241.908,101.573 240.283,101.725 238.732,101.865L237.97,104.582C239.69,104.867 241.629,105.196 243.312,105.503C245.703,105.94 247.568,106.346 247.568,106.346C247.984,106.429 248.253,106.834 248.17,107.249C248.087,107.665 247.682,107.935 247.267,107.851C247.267,107.851 245.389,107.508 243.014,106.991C241.313,106.62 239.357,106.168 237.638,105.764L237.337,106.838C237.276,107.053 237.145,107.242 236.965,107.374C235.228,108.646 232.741,109.882 229.372,112.414L226.42,115.868C226.238,116.081 225.975,116.208 225.696,116.218L216.841,116.54C216.688,116.546 216.536,116.516 216.397,116.454ZM268.558,85.278L267.237,89.183C265.727,107.662 275.444,121.68 296.608,130.658C296.91,130.786 297.129,131.054 297.196,131.375C298.013,135.291 298.497,138.982 298.224,142.129C298.192,142.499 297.957,142.821 297.614,142.965C297.614,142.965 293.327,144.76 293.327,144.76C293.327,144.76 291.022,151.075 291.022,151.075L293.222,151.502L295.53,145.972C295.685,145.6 296.049,145.357 296.452,145.357C296.452,145.357 299.967,145.357 299.967,145.357C301.766,139.724 300.665,133.582 297.796,127.109C278.038,117.616 267.333,104.088 268.558,85.278ZM233.575,150.168C233.595,150.127 233.617,150.088 233.643,150.05C233.643,150.05 236.923,145.147 236.923,145.147L234.525,132.665C234.505,132.562 234.502,132.456 234.515,132.351C234.515,132.351 234.839,129.785 234.839,129.785C234.839,129.785 234.541,123.745 234.541,123.745C234.541,123.745 234.238,123.999 234.238,123.999C234.238,123.999 232.52,130.988 232.52,130.988C232.52,130.988 231.566,146.628 231.566,146.628L233.575,150.168ZM309.84,125.343C309.03,128.128 308.322,130.79 307.869,133.306C307.668,134.428 307.517,135.52 307.427,136.58C307.364,137.335 307.333,138.073 307.337,138.793C307.343,140.083 307.458,141.315 307.696,142.482C308.079,144.362 308.784,146.072 309.886,147.59C309.986,147.733 310.184,147.768 310.328,147.668C310.471,147.568 310.506,147.37 310.406,147.227C309.42,145.755 308.827,144.114 308.52,142.328C308.328,141.206 308.254,140.028 308.268,138.796C308.276,138.1 308.313,137.388 308.372,136.658C308.456,135.623 308.588,134.555 308.759,133.455C309.149,130.954 309.74,128.293 310.452,125.51C310.498,125.341 310.399,125.167 310.23,125.121C310.061,125.074 309.887,125.174 309.84,125.343ZM230.638,76.725C230.683,77.05 230.567,77.38 230.319,77.605C230.03,77.866 229.616,77.936 229.257,77.784C225.261,76.091 216.815,75.616 212.433,77.762C212.029,77.959 211.543,77.863 211.245,77.527L207.176,72.941C207.408,73.589 207.865,74.883 208.25,76.062C208.662,77.323 208.983,78.445 208.983,78.445C209.014,78.564 209.015,78.69 208.984,78.809C208.984,78.809 208.862,79.326 208.654,80.053C208.547,80.423 208.416,80.846 208.274,81.285C207.717,83 207.026,84.952 207.026,84.952C206.978,85.138 206.789,85.25 206.603,85.203C206.418,85.155 206.305,84.966 206.353,84.78C206.353,84.78 206.684,82.736 207.02,80.964C207.106,80.51 207.194,80.077 207.278,79.701C207.388,79.215 207.486,78.827 207.541,78.621C207.45,78.243 207.244,77.359 207.043,76.382C206.692,74.675 206.354,72.7 206.354,72.7C206.342,72.658 206.34,72.615 206.344,72.574L203.671,77.277L205.331,83.018C205.385,83.206 205.383,83.406 205.325,83.593C205.325,83.593 201.981,94.326 201.981,94.326L202.732,97.039C205.762,98.347 208.269,99.449 208.269,99.449C208.506,99.544 208.622,99.814 208.528,100.051C208.433,100.288 208.163,100.404 207.926,100.31C207.926,100.31 205.837,99.56 203.159,98.583L203.976,101.533C205.673,101.72 206.875,101.858 206.875,101.858C207.066,101.873 207.209,102.041 207.193,102.232C207.178,102.423 207.01,102.565 206.819,102.55C206.819,102.55 205.757,102.498 204.221,102.418L204.688,104.104C205.804,103.985 206.529,103.91 206.529,103.91C206.782,103.873 207.017,104.047 207.055,104.3C207.092,104.553 206.917,104.789 206.664,104.826C206.664,104.826 206.005,104.954 204.977,105.149L205.231,106.064L213.195,111.1C213.274,111.15 213.346,111.211 213.408,111.281L215.272,113.382L217.079,114.53C217.079,114.53 225.184,114.235 225.184,114.235L227.922,111.032C227.969,110.977 228.022,110.927 228.08,110.883C231.327,108.432 233.763,107.18 235.506,105.959L235.691,105.301C234.183,104.941 233.15,104.688 233.15,104.688C232.914,104.641 232.76,104.411 232.808,104.175C232.855,103.939 233.085,103.785 233.321,103.832C233.321,103.832 234.409,104.002 235.984,104.257L236.602,102.054C234.098,102.274 232.182,102.432 232.182,102.432C232.003,102.452 231.841,102.322 231.821,102.143C231.801,101.964 231.93,101.802 232.11,101.782C232.11,101.782 234.198,101.488 236.862,101.128L237.417,99.151C234.296,99.935 231.691,100.572 231.691,100.572C231.517,100.62 231.337,100.518 231.289,100.344C231.241,100.169 231.344,99.989 231.518,99.942C231.518,99.942 234.394,99.067 237.716,98.082L238.297,96.012C234.389,97.689 230.828,99.178 230.828,99.178C230.609,99.278 230.35,99.181 230.25,98.962C230.15,98.743 230.247,98.484 230.466,98.384C230.466,98.384 234.562,96.352 238.773,94.318L238.776,94.306L235.42,83.607C235.36,83.417 235.359,83.214 235.415,83.024C235.415,83.024 237.114,77.292 237.114,77.292L234.745,73.113C234.615,73.841 234.4,75.015 234.181,76.085C233.98,77.062 233.773,77.946 233.683,78.322C233.738,78.53 233.836,78.918 233.946,79.404C234.03,79.78 234.118,80.213 234.204,80.667C234.54,82.438 234.871,84.483 234.871,84.483C234.919,84.669 234.806,84.858 234.621,84.906C234.435,84.953 234.246,84.841 234.198,84.655C234.198,84.655 233.506,82.703 232.95,80.988C232.808,80.548 232.677,80.126 232.57,79.756C232.362,79.029 232.24,78.512 232.24,78.512C232.209,78.392 232.21,78.267 232.241,78.148C232.241,78.148 232.562,77.025 232.974,75.765C233.515,74.108 234.199,72.225 234.199,72.225C234.203,72.211 234.207,72.198 234.212,72.185L230.638,76.725ZM219.135,103.33C218.935,103.372 218.738,103.404 218.544,103.429C218.482,103.437 218.064,103.477 217.952,103.485C217.69,103.501 216.971,103.468 216.913,103.464C216.742,103.451 216.26,103.388 216.239,103.385C215.958,103.343 215.679,103.297 215.399,103.224C215.119,103.15 214.839,103.07 214.558,102.963C214.192,102.823 213.826,102.664 213.461,102.468C213.572,102.214 213.659,101.946 213.717,101.662C213.819,101.168 213.842,100.667 213.831,100.113C213.864,99.924 213.737,99.744 213.548,99.711C213.359,99.678 213.179,99.805 213.146,99.994C212.997,100.38 212.816,100.708 212.64,101.046C212.522,101.271 212.393,101.474 212.273,101.683C212.174,101.856 212.069,102.02 211.974,102.187C211.875,102.359 211.797,102.534 211.696,102.701C211.467,103.083 211.254,103.444 210.92,103.761C210.757,103.863 210.707,104.077 210.809,104.24C210.91,104.402 211.124,104.452 211.287,104.351C211.416,104.303 211.54,104.251 211.66,104.194C211.957,105.04 212.337,105.836 212.796,106.586C213.379,107.537 214.095,108.407 214.929,109.209C215.054,109.323 215.217,109.386 215.386,109.386L225.062,109.396C225.212,109.396 225.357,109.347 225.476,109.257C226.494,108.448 227.263,107.594 227.828,106.694C228.295,105.949 228.628,105.18 228.856,104.389C229.002,104.461 229.155,104.527 229.315,104.587C229.478,104.688 229.692,104.638 229.793,104.476C229.895,104.313 229.845,104.099 229.682,103.997C229.424,103.752 229.238,103.48 229.06,103.193C229.037,103.123 228.998,103.06 228.947,103.007L228.906,102.937C228.805,102.77 228.727,102.595 228.628,102.423C228.533,102.256 228.428,102.092 228.329,101.919C228.209,101.71 228.08,101.507 227.962,101.282C227.786,100.944 227.605,100.616 227.456,100.23C227.423,100.041 227.243,99.914 227.054,99.947C226.865,99.98 226.738,100.16 226.771,100.349C226.76,100.903 226.783,101.404 226.885,101.898C226.947,102.201 227.042,102.487 227.164,102.755C226.923,102.858 226.676,102.937 226.423,102.999C226.389,102.985 225.749,103.132 225.679,103.142C225.269,103.202 224.855,103.219 224.436,103.233C224.154,103.242 223.872,103.246 223.591,103.252C223.149,103.26 222.714,103.272 222.288,103.266C221.711,103.259 221.166,103.247 220.664,103.224C220.977,102.736 221.532,101.858 222.009,101.047C222.55,100.125 222.983,99.288 222.983,99.288C223.106,99.079 223.107,98.82 222.987,98.61C222.867,98.399 222.643,98.27 222.401,98.27C222.401,98.27 221.365,98.315 220.2,98.382C220.334,98.139 221.482,96.06 222.458,94.225C222.773,93.632 223.069,93.065 223.312,92.598C223.711,92.84 224.317,93.206 224.927,93.564C225.974,94.18 227.031,94.775 227.031,94.775C227.227,94.899 227.478,94.894 227.671,94.764L231.373,91.967C232.443,92.56 233.297,93.03 233.297,93.03C233.459,93.131 233.674,93.081 233.775,92.918C233.876,92.755 233.826,92.541 233.664,92.44C233.664,92.44 231.335,90.811 229.626,89.644C228.652,88.979 227.881,88.469 227.881,88.469C227.687,88.348 227.443,88.336 227.237,88.436C227.237,88.436 226.157,88.916 225.09,89.425C224.024,89.934 222.972,90.473 222.972,90.473C222.828,90.543 222.712,90.66 222.643,90.804C222.643,90.804 222.038,92.159 221.38,93.711C220.81,95.053 220.2,96.538 219.851,97.392C219.502,96.538 218.891,95.053 218.322,93.711C217.663,92.159 217.058,90.804 217.058,90.804C216.989,90.66 216.874,90.543 216.73,90.473C216.73,90.473 215.678,89.934 214.611,89.425C213.544,88.916 212.464,88.436 212.464,88.436C212.258,88.336 212.015,88.348 211.82,88.469C211.82,88.469 211.049,88.979 210.075,89.644C208.367,90.811 206.038,92.44 206.038,92.44C205.875,92.541 205.825,92.755 205.926,92.918C206.028,93.081 206.242,93.131 206.405,93.03C206.405,93.03 207.259,92.56 208.329,91.967L212.031,94.764C212.223,94.894 212.474,94.899 212.671,94.775C212.671,94.775 213.728,94.18 214.774,93.564C215.385,93.206 215.991,92.84 216.39,92.598C216.632,93.065 216.929,93.632 217.244,94.225C218.282,96.177 219.515,98.406 219.515,98.406C219.517,98.411 219.52,98.417 219.523,98.422C218.233,98.503 217.005,98.598 217.005,98.598C216.877,98.598 216.76,98.668 216.699,98.781C216.639,98.893 216.645,99.029 216.715,99.136L219.135,103.33ZM227.64,103.486C227.457,103.627 227.267,103.755 227.07,103.87C227.05,104.045 227.013,104.245 226.986,104.451C226.896,105.126 226.767,105.807 226.767,105.807C226.774,105.999 226.625,106.16 226.433,106.168C226.242,106.175 226.08,106.026 226.073,105.834C226.073,105.834 225.892,105.165 225.75,104.498C225.745,104.478 225.741,104.458 225.737,104.438C225.385,104.539 225.023,104.608 224.656,104.65C224.642,104.721 224.627,104.794 224.613,104.868C224.516,105.403 224.382,105.925 224.382,105.925C224.39,106.116 224.24,106.278 224.049,106.285C223.857,106.292 223.696,106.143 223.688,105.951C223.688,105.951 223.515,105.441 223.377,104.916C223.354,104.828 223.328,104.742 223.305,104.66C223.256,104.655 223.206,104.65 223.157,104.644C223.141,104.725 223.123,104.808 223.108,104.894C223.01,105.428 222.877,105.95 222.877,105.95C222.884,106.142 222.735,106.303 222.543,106.311C222.352,106.318 222.19,106.168 222.183,105.977C222.183,105.977 222.01,105.467 221.872,104.942C221.815,104.727 221.745,104.524 221.722,104.362C221.513,104.308 221.31,104.25 221.112,104.191C221.091,104.329 221.054,104.487 221.024,104.651C220.927,105.185 220.794,105.707 220.794,105.707C220.801,105.899 220.651,106.06 220.46,106.068C220.268,106.075 220.107,105.925 220.099,105.734C220.099,105.734 219.927,105.224 219.788,104.699C219.722,104.449 219.639,104.216 219.631,104.044C219.574,104.076 219.518,104.107 219.461,104.137C219.462,104.144 219.463,104.151 219.463,104.159C219.467,104.334 219.377,104.583 219.306,104.851C219.167,105.376 218.995,105.886 218.995,105.886C218.987,106.078 218.826,106.227 218.634,106.22C218.443,106.213 218.293,106.051 218.3,105.859C218.3,105.859 218.167,105.338 218.07,104.803C218.063,104.769 218.057,104.734 218.05,104.7C217.948,104.728 217.846,104.752 217.743,104.774C217.592,104.807 217.441,104.831 217.29,104.848C217.157,105.336 217.005,105.784 217.005,105.784C216.998,105.975 216.836,106.125 216.645,106.117C216.453,106.11 216.304,105.948 216.311,105.757C216.311,105.757 216.199,105.316 216.105,104.83C216.073,104.825 216.041,104.819 216.01,104.813C215.638,104.744 215.272,104.636 214.918,104.487C214.9,104.564 214.882,104.642 214.865,104.721C214.723,105.388 214.542,106.057 214.542,106.057C214.535,106.248 214.373,106.398 214.182,106.391C214.161,106.39 214.14,106.387 214.12,106.383C214.338,106.668 214.569,106.943 214.815,107.21L214.815,107.208C214.956,106.589 215.134,105.972 215.134,105.972C215.142,105.78 215.303,105.631 215.495,105.638C215.686,105.646 215.836,105.807 215.828,105.999C215.828,105.999 215.959,106.627 216.051,107.256C216.093,107.539 216.171,107.812 216.16,108.011C216.404,108.006 216.696,108 217.023,107.994C217.144,107.57 217.264,107.214 217.264,107.214C217.272,107.023 217.433,106.873 217.625,106.88C217.816,106.888 217.966,107.049 217.958,107.241C217.958,107.241 218.043,107.572 218.126,107.976C218.377,107.973 218.637,107.97 218.902,107.967C219.036,107.475 219.19,107.021 219.19,107.021C219.197,106.83 219.358,106.68 219.55,106.688C219.742,106.695 219.891,106.857 219.884,107.048C219.884,107.048 219.994,107.48 220.087,107.961L220.707,107.961C220.796,107.515 220.894,107.133 220.894,107.133C220.887,106.941 221.036,106.78 221.228,106.772C221.419,106.765 221.581,106.914 221.588,107.106C221.588,107.106 221.725,107.509 221.852,107.967C222.089,107.969 222.32,107.972 222.542,107.974C222.628,107.554 222.717,107.204 222.717,107.204C222.71,107.012 222.859,106.851 223.051,106.844C223.242,106.836 223.404,106.986 223.411,107.177C223.411,107.177 223.538,107.553 223.662,107.991C224.043,107.997 224.366,108.004 224.605,108.009C224.617,107.808 224.677,107.56 224.711,107.304C224.801,106.627 224.929,105.944 224.929,105.944C224.922,105.752 225.072,105.59 225.263,105.583C225.455,105.576 225.616,105.725 225.624,105.917C225.624,105.917 225.777,106.486 225.912,107.098C226.26,106.751 226.563,106.393 226.825,106.024C227.332,105.31 227.694,104.562 227.943,103.784L227.64,103.486ZM212.998,103.209C212.9,103.323 212.796,103.431 212.681,103.529C212.64,103.564 212.598,103.599 212.557,103.633C212.886,104.457 213.302,105.222 213.795,105.936C213.811,105.959 213.827,105.982 213.844,106.006C213.82,105.878 213.709,105.274 213.629,104.674C213.582,104.324 213.514,103.993 213.534,103.771C213.536,103.746 213.54,103.723 213.553,103.704C213.558,103.697 213.562,103.692 213.565,103.688C213.373,103.54 213.184,103.38 212.998,103.209ZM212.432,89.97C213.027,90.299 213.436,90.987 213.436,91.782C213.436,92.577 213.027,93.266 212.432,93.595C211.838,93.266 211.429,92.577 211.429,91.782C211.429,90.987 211.838,90.299 212.432,89.97ZM227.269,89.97C226.675,90.299 226.266,90.987 226.266,91.782C226.266,92.577 226.675,93.266 227.269,93.595C227.863,93.266 228.272,92.577 228.272,91.782C228.272,90.987 227.863,90.299 227.269,89.97ZM222.588,81.015C222.09,81.67 221.71,82.337 221.479,83.036C221.31,83.547 221.223,84.072 221.223,84.603C221.223,84.816 221.24,85.029 221.274,85.242C221.324,85.551 221.403,85.859 221.517,86.164C221.767,86.834 222.157,87.49 222.692,88.15C222.763,88.256 222.907,88.284 223.013,88.213C223.119,88.141 223.147,87.997 223.076,87.891C222.703,87.213 222.478,86.559 222.34,85.923C222.281,85.652 222.245,85.386 222.22,85.121C222.203,84.942 222.192,84.765 222.187,84.588C222.18,84.308 222.186,84.03 222.217,83.752C222.248,83.472 222.292,83.193 222.361,82.912C222.496,82.364 222.693,81.816 222.979,81.263C223.048,81.156 223.016,81.012 222.908,80.944C222.8,80.875 222.657,80.907 222.588,81.015ZM216.848,81.263C217.135,81.816 217.331,82.364 217.466,82.912C217.535,83.193 217.58,83.472 217.61,83.752C217.641,84.03 217.648,84.308 217.64,84.588C217.635,84.765 217.625,84.942 217.607,85.121C217.582,85.386 217.546,85.652 217.487,85.923C217.349,86.559 217.124,87.213 216.751,87.891C216.68,87.997 216.708,88.141 216.814,88.213C216.92,88.284 217.064,88.256 217.135,88.15C217.67,87.49 218.06,86.834 218.31,86.164C218.424,85.859 218.503,85.551 218.553,85.242C218.587,85.029 218.605,84.816 218.604,84.603C218.604,84.072 218.518,83.547 218.349,83.036C218.117,82.337 217.738,81.67 217.239,81.015C217.17,80.907 217.027,80.875 216.919,80.944C216.811,81.012 216.78,81.156 216.848,81.263ZM209.386,83.744C209.6,83.419 209.885,83.133 210.232,82.818C210.368,82.695 210.516,82.574 210.67,82.441C210.81,82.32 210.956,82.193 211.11,82.058C211.321,81.873 211.538,81.674 211.789,81.47C212.015,81.286 212.245,81.094 212.512,80.899C212.62,80.842 212.661,80.709 212.604,80.602C212.547,80.494 212.414,80.453 212.306,80.51C211.829,80.685 211.412,80.855 211.039,81.055C210.743,81.214 210.482,81.384 210.255,81.567C210.153,81.649 210.063,81.738 209.978,81.827C209.839,81.973 209.716,82.118 209.611,82.269C209.304,82.708 209.116,83.132 208.988,83.557C208.936,83.667 208.984,83.798 209.094,83.85C209.204,83.901 209.335,83.853 209.386,83.744ZM232.197,82.881C232.069,82.457 231.881,82.032 231.574,81.593C231.469,81.442 231.345,81.297 231.207,81.152C231.122,81.062 231.031,80.974 230.93,80.892C230.703,80.708 230.441,80.538 230.145,80.379C229.773,80.179 229.356,80.009 228.878,79.834C228.771,79.778 228.638,79.819 228.581,79.926C228.524,80.033 228.565,80.166 228.672,80.223C228.939,80.418 229.17,80.61 229.396,80.794C229.646,80.998 229.863,81.198 230.075,81.382C230.229,81.517 230.374,81.644 230.514,81.765C230.668,81.899 230.816,82.019 230.952,82.142C231.3,82.458 231.584,82.743 231.798,83.068C231.85,83.178 231.981,83.225 232.091,83.174C232.201,83.122 232.248,82.991 232.197,82.881ZM206.481,72.333C206.512,72.309 206.548,72.291 206.588,72.279L206.542,72.226L206.481,72.333Z" style="fill:white;"/>
                </g>
            </g>
        </g>
    </g>
</svg>
