<svg xmlns="http://www.w3.org/2000/svg" width="150" height="150" viewBox="0 0 150 150">
  <defs>
    <style>
      .cls-1 {
        fill: #eee;
      }

      .cls-2 {
        fill: #151515;
      }
    </style>
  </defs>
  <g id="Layer_5" data-name="Layer 5">
    <polygon class="cls-1" points="41.276 3.652 14.87 76.574 37.416 146.652 136.948 146.652 113.182 74.949 134.713 3.652 41.276 3.652"/>
    <g>
      <path class="cls-2" d="M57.81949,62.955a8.15761,8.15761,0,0,1-2.71446-1.9944c-.768-.9187-1.3652-1.96837-2.08908-2.92085a18.3945,18.3945,0,0,0-3.50534-3.4867c-.29755-.71962-.69428-1.40512-.96851-2.13565-.32944-.87747-.56857-1.78393-.894-2.6622-.42118-1.13684-1.13777-2.88154-2.41846-3.2487a.15644.15644,0,0,0-.17471.2273c.38691.67771.99088,1.19377,1.374,1.89274a13.42375,13.42375,0,0,1,.957,2.31979,28.45211,28.45211,0,0,0,.90831,2.93273.09059.09059,0,0,0,.03.06847l.00452.00431a3.49344,3.49344,0,0,0,.99,1.32162.26324.26324,0,0,0,.22554.04084c.29651.36187.598.71918.912,1.06931a7.6271,7.6271,0,0,0,1.55984,1.54117q.68673.85474,1.3217,1.74471c1.05738,1.48281,2.384,3.52407,4.39833,3.59306A.16626.16626,0,0,0,57.81949,62.955Z"/>
      <path class="cls-2" d="M46.69617,53.62369c-.783-1.046-1.57913-2.07794-2.31462-3.15862a9.163,9.163,0,0,0-2.12919-2.6553.25965.25965,0,0,0-.388.22266,5.92231,5.92231,0,0,0,1.6134,3.13,16.766,16.766,0,0,0,2.8797,2.8C46.55181,54.108,46.84167,53.81811,46.69617,53.62369Z"/>
      <path class="cls-2" d="M40.055,43.95214c1.88213-1.43493,3.68759-2.832,4.47892-5.14153.02192-.064-.06358-.1369-.1212-.09319-1.09532.83056-2.04866,1.76439-3.09493,2.65109-.98329.83333-2.4129,1.47883-3.09805,2.60954a3.21778,3.21778,0,0,0,.26685,3.34125A12.20821,12.20821,0,0,0,39.571,48.73837c.45451.55247.76832,1.22019,1.26958,1.7253a.30218.30218,0,0,0,.5-.132C42.04725,47.97484,37.216,46.11662,40.055,43.95214Z"/>
      <path class="cls-2" d="M98.94115,51.41686c-.11609-.11783-.32621.03584-.233.17981.56162.86777.97164,1.78739,1.59882,2.6239a4.06057,4.06057,0,0,0,1.771,1.64635.23663.23663,0,0,0,.29829-.22724C102.13764,53.822,100.12266,52.61569,98.94115,51.41686Z"/>
      <path class="cls-2" d="M105.91618,55.14757c-.2724-1.14569-1.44355-2.23756-2.1761-3.13955-.92731-1.14173-1.95364-2.20484-2.93942-3.29672-.16419-.18189-.482.05761-.34267.26442.82128,1.219,1.60477,2.47031,2.48843,3.64467.7038.93528,1.47132,2.32915,2.521,2.87218A.30938.30938,0,0,0,105.91618,55.14757Z"/>
      <path class="cls-2" d="M97.45094,58.37088c-1.45362,2.30755-1.1283,5.06419-.87157,7.65687.14441,1.45879.34843,2.91048.4243,4.37557a18.78843,18.78843,0,0,1-.14986,3.238,3.273,3.273,0,0,0-.34461.18264,2.82518,2.82518,0,0,1-1.39524.33168,14.90847,14.90847,0,0,0-2.79054-.19618,3.8246,3.8246,0,0,0-1.46.83267c-.35835.28319-.54273.5518-.35041.98268a.07069.07069,0,0,0,.10964.01414c.29195-.23722.33246-.56627.59837-.83.421-.41758.72329-.257,1.15-.28986a20.35811,20.35811,0,0,1,2.604.24438,3.69951,3.69951,0,0,0,1.75538-.305c-.021.15535-.04225.31086-.06388.46816-.01438.10422.1395.201.19143.08071a6.78314,6.78314,0,0,0,.32923-.96237.86814.86814,0,0,0,.12324-.40042.17348.17348,0,0,0-.01379-.07407,22.29268,22.29268,0,0,0-.21721-6.62584,21.39815,21.39815,0,0,1,.61081-8.62285A.13155.13155,0,0,0,97.45094,58.37088Z"/>
      <path class="cls-2" d="M82.34664,48.57482c-.94436.08711-1.76495.89278-2.6565,1.2139a8.43874,8.43874,0,0,1-3.417.502c-.16251-.01713-.18051.22859-.03714.2743a5.58893,5.58893,0,0,0,3.70767.14327c.92775-.28852,2.36713-.89313,2.52082-1.97874C82.47444,48.659,82.43461,48.56671,82.34664,48.57482Z"/>
      <path class="cls-2" d="M84.62946,50.35615a.32488.32488,0,0,0-.197-.25625.43058.43058,0,0,0-.43283,0,19.08309,19.08309,0,0,1-3.119,1.56389c-.19023.06869-.17932.393.05108.37717a7.34837,7.34837,0,0,0,2.25014-.49955A8.3086,8.3086,0,0,0,82.6793,53.113c-.18076.67386.89715.961,1.03843.28628a5.10953,5.10953,0,0,0,.20541-2.22482,5.1761,5.1761,0,0,0,.5093-.33409A.45356.45356,0,0,0,84.62946,50.35615Z"/>
      <path class="cls-2" d="M63.08264,50.8071c-.44984-.69746-1.37565-1.02476-1.95607-1.62014a7.01842,7.01842,0,0,1-.87692-1.14925c-.17917-.28126-.28792-.55642-.59474-.68149a.22022.22022,0,0,0-.3698.07781,5.72674,5.72674,0,0,0,.35849,3.95334c.24166.50728,1.041.14765.89448-.37711-.14283-.51166-.28619-1.02514-.4186-1.5414.1273.14667.24865.27631.34684.37836.59608.6194,1.56286,1.49136,2.49111,1.26761A.21116.21116,0,0,0,63.08264,50.8071Z"/>
      <path class="cls-2" d="M66.77366,49.5238c-.22852-.18189-.30434-.30485-.61384-.335a2.98484,2.98484,0,0,0-.95949.1091,3.42054,3.42054,0,0,0-1.619.88645.28129.28129,0,0,0,.27176.46682,10.93929,10.93929,0,0,1,1.51054-.41058c.25371-.04923.51149-.06544.76738-.09965.30716-.04109.35021-.1268.6003-.28815A.21132.21132,0,0,0,66.77366,49.5238Z"/>
      <path class="cls-2" d="M77.67858,53.09572c-.61136.12556-1.1579.52209-1.76276.6209a2.21181,2.21181,0,0,1-.84072-.07009,8.07653,8.07653,0,0,0-2.08109-1.779,15.99939,15.99939,0,0,0-3.91685-1.90783c-.10409-.04-.16415.12084-.074.17548a30.826,30.826,0,0,1,3.49151,2.66189c.7028.58215,1.67052,1.96192,2.67256,1.8747a.1835.1835,0,0,0,.04235-.01034,2.2203,2.2203,0,0,0,.57293.054,2.36609,2.36609,0,0,0,2.08337-1.37613A.16815.16815,0,0,0,77.67858,53.09572Z"/>
      <path class="cls-2" d="M71.5215,31.05364c-.22226-.56127-1.24557-.56634-1.16449.15759a8.80553,8.80553,0,0,0,.83144,2.55089c.16053.36379.776.18119.74818-.20264A8.4715,8.4715,0,0,0,71.5215,31.05364Z"/>
      <path class="cls-2" d="M76.22958,28.48235a6.3974,6.3974,0,0,0-.37.98256c-.13409.35109-.27954.69829-.41924,1.04721-.03769.0942.10979.14888.15953.06726.19762-.32451.39039-.65258.59306-.97393a6.41807,6.41807,0,0,0,.56311-.90116C76.88468,28.39825,76.39006,28.20834,76.22958,28.48235Z"/>
      <path class="cls-2" d="M83.84925,23.12293a.61317.61317,0,0,0-.62341-.589.90862.90862,0,0,0-1.07841.10445,11.45119,11.45119,0,0,0-2.58171,2.59487,14.04953,14.04953,0,0,0-1.64657,3.71447c-.79752,2.62344-1.87206,5.89283-4.91433,6.554-.45356.09859-.3631.87112.11138.82293,2.58841-.26287,4.32444-2.30756,5.32514-4.55991.03675-.08274.07122-.16641.10687-.24957a1.09106,1.09106,0,0,0,1.1707.17311,3.11752,3.11752,0,0,0,3.19644-1.4786,6.59069,6.59069,0,0,0,.7402-3.50884A15.38378,15.38378,0,0,0,83.84925,23.12293Z"/>
      <path class="cls-2" d="M83.94273,32.75558A19.47754,19.47754,0,0,0,78.46614,34.193a17.4675,17.4675,0,0,0-2.47043,1.28142,10.375,10.375,0,0,0-2.11972,1.8583c-.20258.21513.06288.60249.32785.425a19.04327,19.04327,0,0,1,9.73889-3.60564C84.851,34.10937,84.82193,32.65758,83.94273,32.75558Z"/>
      <path class="cls-2" d="M84.52994,36.2793a29.82194,29.82194,0,0,1-9.48489,1.60415.30692.30692,0,0,0-.08123.6,18.31771,18.31771,0,0,0,9.98372-.68927C85.9101,37.47661,85.47336,35.92973,84.52994,36.2793Z"/>
      <path class="cls-2" d="M89.76273,37.32128c-.61359-.10214-.85906.14509-1.39291.46545a18.18118,18.18118,0,0,1-1.72334.91233,17.04147,17.04147,0,0,1-4.019,1.26667,22.23757,22.23757,0,0,1-8.4281-.25635c-.29849-.05955-.537.38091-.22192.52644a14.84812,14.84812,0,0,0,8.50308,1.02453,18.12458,18.12458,0,0,0,4.29786-1.21007c.92577-.3885,3.05789-1.103,3.277-2.21365A.42419.42419,0,0,0,89.76273,37.32128Z"/>
      <path class="cls-2" d="M97.62069,32.52247a11.80157,11.80157,0,0,0-7.74558,3.93859c-.28947.31008.09888.88975.476.61687a14.34362,14.34362,0,0,1,7.26961-2.49565C98.94854,34.49539,98.92741,32.38881,97.62069,32.52247Z"/>
      <path class="cls-2" d="M98.19555,30.742a.87288.87288,0,0,0-1.59024-.38453,12.14447,12.14447,0,0,0-7.60816,4.34991c-.13067.16987.12854.42737.29854.29854A16.9542,16.9542,0,0,1,96.78076,31.545C97.38969,31.93974,98.3287,31.66345,98.19555,30.742Z"/>
      <path class="cls-2" d="M96.41513,25.49986a1.08431,1.08431,0,0,0-.60045-.95524q-.23223-.13324-.46368-.26713a1.15592,1.15592,0,0,0-1.1816-.51412A1.1256,1.1256,0,0,0,93.16424,25.04a20.74713,20.74713,0,0,1-3.51264,4.66209,19.55792,19.55792,0,0,1-2.49369,2.1118c-.76469.54119-1.9941,1.06457-2.39222,1.959a.40773.40773,0,0,0,.24.58979,3.18522,3.18522,0,0,0,2.261-.618,30.86169,30.86169,0,0,0,6.782-3.60827,5.34012,5.34012,0,0,0,2.50529-2.7057A2.86967,2.86967,0,0,0,96.41513,25.49986Z"/>
      <path class="cls-2" d="M86.91269,27.69576a25.60777,25.60777,0,0,0-1.031-4.44325,8.02783,8.02783,0,0,1-.28674-2.24886c.02777-.71071.23665-1.37926.26665-2.0911a.15813.15813,0,0,0-.2364-.13566c-1.83824,1.23616-.93647,4.44594-.5152,6.196a7.96169,7.96169,0,0,1,.28441,4.14746,6.6141,6.6141,0,0,1-1.93192,2.52384.344.344,0,0,0,.15021.56892C86.00105,32.91105,87.033,29.47831,86.91269,27.69576Z"/>
      <path class="cls-2" d="M91.05185,11.21492a7.15692,7.15692,0,0,0-3.95791,5.907c-.01532.1885-.02033.37588-.02083.56276a9.23806,9.23806,0,0,0-.02722,1.86787,14.00193,14.00193,0,0,0,.27359,2.44981c.20719,1.20717.42406,2.43011.589,3.64738a11.75687,11.75687,0,0,1-.59925,4.08756c-.07667.20366.22578.3051.335.14124.08257-.12385.16108-.24477.23864-.36535a8.37279,8.37279,0,0,0,1.99142-6.08136,5.18791,5.18791,0,0,0-.64156-2.44771c-.25668-.62442-.543-1.23416-.8296-1.84386a7.37956,7.37956,0,0,1,2.86011-7.56356A.20964.20964,0,0,0,91.05185,11.21492Z"/>
      <path class="cls-2" d="M95.254,10.42034A7.78285,7.78285,0,0,0,90.75034,15.811a13.91051,13.91051,0,0,0-.13181,4.30271,15.38051,15.38051,0,0,1,.08867,4.74.3858.3858,0,0,0,.70191.29592,6.485,6.485,0,0,0,.98339-3.60729c-.029-1.37564-.28832-2.738-.25133-4.11579a8.75057,8.75057,0,0,1,3.42114-6.47862A.30573.30573,0,0,0,95.254,10.42034Z"/>
      <path class="cls-2" d="M96.37546,13.07551a10.50814,10.50814,0,0,0-3.55439,5.64527c-.04444.22987.27552.39922.39881.16812a31.762,31.762,0,0,1,3.37774-5.59121A.15719.15719,0,0,0,96.37546,13.07551Z"/>
      <path class="cls-2" d="M120.579,6.02719c-3.74993-.94888-7.83261-.59916-11.61567.00591A28.78964,28.78964,0,0,0,98.02912,9.94923a.4209.4209,0,0,0,.32284.76573c.06739-.01953.13493-.03881.20233-.05832a1.89318,1.89318,0,0,0-.5583.58569.39618.39618,0,0,0,.23477.577,4.06291,4.06291,0,0,0,2.0006-.40594c.82743-.24452,1.656-.461,2.47965-.72221,1.70365-.54022,3.44207-1.00481,5.18395-1.404a48.08446,48.08446,0,0,1,5.19318-.9045c1.74432-.20238,3.53272-.16965,5.2636-.43231a.90809.90809,0,0,0,.51773-.24132c.494-.0024.98874-.00768,1.48445-.01887A.85058.85058,0,0,0,120.579,6.02719Z"/>
      <path class="cls-2" d="M73.64053,38.71371a3.08236,3.08236,0,0,0-1.588-.25085,7.04272,7.04272,0,0,1-1.98871-.385,6.70022,6.70022,0,0,1-2.49274-1.58021.93774.93774,0,0,0,.08411-.10158,1.73347,1.73347,0,0,0-.03477-1.97358,1.67575,1.67575,0,0,0-.845-.65228,1.14426,1.14426,0,0,0-.65619.05691,8.41816,8.41816,0,0,1-.19529-1.20872,1.6939,1.6939,0,0,1,.59093-.225c.48837-.04293.64627.23923.90831.58664a.90786.90786,0,0,0,.29388.25357,6.68528,6.68528,0,0,0,.13409.81666c.21835.956,1.61558.69805,1.65525-.224.04493-1.04354.114-2.08926.11818-3.13386A.92.92,0,0,0,69.595,30.462a.67356.67356,0,0,0-.19246-1.07075,9.92765,9.92765,0,0,1-1.23294-.64013c-.17019-.11237-.34108-.22993-.51723-.33122-.19742-.11353-.39167-.14338-.53623-.24789a.27075.27075,0,0,0-.06923-.03279c.05783-.09384.11456-.18849.16762-.28566.12656-.2316-.13935-.54554-.38215-.38214a6.3924,6.3924,0,0,0-2.03254,3.05056c-.01983-.14171-.14312-.27529-.29814-.21084a9.352,9.352,0,0,1-2.94645.814c-.359-.15648-.71337-.28243-1.00749-.382a6.68042,6.68042,0,0,0-4.01187-.19721.23683.23683,0,0,0,.06263.46289,13.014,13.014,0,0,1,3.67123.74275c.95423.38056,1.88044,1.35834,2.88888,1.453a.3083.3083,0,0,0,.29457-.3867,1.71563,1.71563,0,0,0-.51163-.83308,2.57026,2.57026,0,0,0,1.76732-1.20085c-.08837.26737-.16231.52688-.21934.76817a6.604,6.604,0,0,0,.97853,5.02947,7.59309,7.59309,0,0,0,3.89226,2.99274c1.14218.38755,3.61945.91831,4.42114-.32324A.39982.39982,0,0,0,73.64053,38.71371Zm-6.983-9.97226a2.29433,2.29433,0,0,0,.07682.33284.66262.66262,0,0,0-.21582-.11513Q66.58692,28.84954,66.65756,28.74145Z"/>
      <path class="cls-2" d="M76.48359,23.57579a11.82733,11.82733,0,0,0-1.671,1.4914A7.51775,7.51775,0,0,1,72.305,26.502a8.74672,8.74672,0,0,1-3.99342.24021c-.45732-.32335-1.05361-.344-1.40546-.83355a1.524,1.524,0,0,1-.25276-.87,4.367,4.367,0,0,1-.11128-.75663c.01358-.07748-.08322-.1572-.1459-.08491-.3154.36377-.56435.45885-.55319,1.00449a2.24121,2.24121,0,0,0,.31421,1.09345.23852.23852,0,0,0,.08272.32536A7.29294,7.29294,0,0,0,69.27334,28.036a7.51709,7.51709,0,0,0,3.383-.25941c1.673-.513,4.1837-1.93824,4.33946-3.90686A.34318.34318,0,0,0,76.48359,23.57579Z"/>
      <path class="cls-2" d="M80.13765,11.73188C78.52029,10.47753,76.3183,10.32323,74.509,9.4316a6.62967,6.62967,0,0,0-5.05938-.7071,5.27849,5.27849,0,0,0-3.2138,3.16883c-.07786.17245.14555.39753.28788.22212a3.67013,3.67013,0,0,1,1.03829-.861.88587.88587,0,0,0,.14956.1598,3.40922,3.40922,0,0,0-1.25361.9619.42419.42419,0,0,0,.14.67509,3.02611,3.02611,0,0,0-.26689.36061,2.76089,2.76089,0,0,0-.36247,1.178.185.185,0,0,0,.30633.17833,2.83281,2.83281,0,0,0,.72522-.97923,3.66071,3.66071,0,0,0,.19271-.67792c1.05793.01913,2.10955-.15322,3.17323-.082a5.76692,5.76692,0,0,1,1.32825.29386,4.44941,4.44941,0,0,0,.77937.97181c.51143.42561,1.44553.39275,1.83076.89578a2.02584,2.02584,0,0,1,.00039,1.77281,3.19392,3.19392,0,0,0-.16821.51547,1.02317,1.02317,0,0,0,1.80893.85055.32322.32322,0,0,0,.20819.19478c.83511.27677,1.89953-.0284,1.70266,1.3312-.16048,1.108-1.29116,1.65427-2.06071,2.31244-.28009.23956.03263.59906.32274.55434a3.54949,3.54949,0,0,0,1.41334-.5655,1.63944,1.63944,0,0,0-.00674.28938c.02757.28835.09189.56051.10216.85088.01467.41513.1995,1.08468.74961.94924.56589-.13932.653-.70467.60229-1.21419a4.07424,4.07424,0,0,0,.25514-.58082c.11153-.16621.21106-.34067.30191-.48864a8.46431,8.46431,0,0,0,.97179-2.25022,9.52546,9.52546,0,0,0,.24647-1.28423,7.48378,7.48378,0,0,0,.448-2.38222C82.38562,14.77469,81.31093,12.64184,80.13765,11.73188ZM75.30124,13.497q-.05483-.03813-.11168-.07422a1.18342,1.18342,0,0,0,.04136-.17089c.03828.01351.077.02683.11515.0404C75.33074,13.36036,75.31482,13.42822,75.30124,13.497Zm3.177,7.77906c-.03194.06292-.06025.12721-.09432.18932-.04126.07513-.0914.15121-.14337.22815-.03129-.01593-.06085-.03566-.09328-.049a3.5048,3.5048,0,0,0,.34133-.4117Z"/>
      <path class="cls-2" d="M71.71536,17.62851a1.23869,1.23869,0,0,0-.95617-.55319c.06784-.01976.13628-.039.20179-.06076a.17619.17619,0,0,0,0-.33665,7.2506,7.2506,0,0,0-4.3961-.086.24037.24037,0,0,0-.07617.04353c-.05555-.02641-.11342-.05213-.17417-.07746-.13588-.05667-.278.10806-.23615.2362a2.94184,2.94184,0,0,0,.64746,1.10954c.31565.36116.63318.72024.938,1.0906a.50719.50719,0,0,0,.78924-.1017,1.14878,1.14878,0,0,0,.17193-.76221,5.95845,5.95845,0,0,0,1.15215.22356c.631.06506,1.40511.262,1.8795-.27068A.38616.38616,0,0,0,71.71536,17.62851Z"/>
      <path class="cls-2" d="M66.578,22.2045a1.15563,1.15563,0,0,0-.98627-.21,3.58357,3.58357,0,0,0-.36781.04834,7.9398,7.9398,0,0,1,.88792-3.50655c.046-.08506-.0665-.17953-.13707-.10576a4.35412,4.35412,0,0,0-1.235,3.90963l.00089.00233-.04969.01694c-.08143.02777-.10072.16763,0,.18516l.18418.032c.14243.23019.46536.20731.71654.19649a1.22818,1.22818,0,0,0,.98627-.34642A.16091.16091,0,0,0,66.578,22.2045Z"/>
      <path class="cls-2" d="M68.37093,20.7984a1.52488,1.52488,0,0,0-.69541.044,3.10922,3.10922,0,0,0-.59842.311.51862.51862,0,0,0,.39777.94348,3.182,3.182,0,0,0,.63765-.218,1.48733,1.48733,0,0,0,.51143-.46958A.36348.36348,0,0,0,68.37093,20.7984Z"/>
      <path class="cls-2" d="M67.89164,23.82443c-.41776-.09583-.92532-.22936-.93351-.75518a.25327.25327,0,0,0-.50622,0c-.044.69422.7766,1.59951,1.4921,1.1559A.22187.22187,0,0,0,67.89164,23.82443Z"/>
      <path class="cls-2" d="M69.36325,23.82017a.27934.27934,0,0,0-.4668.27174l.02371.128.02568.06084a.19268.19268,0,0,0,.06561.07145.24267.24267,0,0,0,.15428.05468.302.302,0,0,0,.12859-.03477.254.254,0,0,0,.117-.1522l.02375-.128A.28558.28558,0,0,0,69.36325,23.82017Z"/>
      <path class="cls-2" d="M68.2959,41.52608a7.69809,7.69809,0,0,1-5.46662,3.846,5.3888,5.3888,0,0,1-1.307-.03066c-.067-.01043-.134-.0214-.20114-.03181-.12011-.02112-.24017-.04277-.35884-.07109a4.02511,4.02511,0,0,1-1.12195-.65919.655.655,0,0,0,.12338-.14592,2.3987,2.3987,0,0,0,.37342-1.28672.50335.50335,0,0,0-.84929-.35177,2.31353,2.31353,0,0,0-.54134.89483c-1.16966-1.37154-2.07653-3.17008-3.50832-3.99011-.00149-.23228-.015-.46336-.03362-.6941a20.16018,20.16018,0,0,0,4.91705-1.26148c.175-.07265.23437-.37066,0-.41776a9.84052,9.84052,0,0,0-4.9058.36183q.00922-.17522.00987-.3501c.00635-.08645.00938-.17424.01329-.26117a2.39807,2.39807,0,0,0,.00481-.73131.50572.50572,0,0,0-.00962-.07708,6.8589,6.8589,0,0,0,1.75607-.66681,5.09867,5.09867,0,0,0,2.52453-2.30181.21852.21852,0,0,0-.2964-.29636c-.971.47967-1.83844,1.12228-2.79813,1.623-.51455.26853-1.17545.40644-1.70573.69748a.64409.64409,0,0,0-.16618-.04368c-.6858-.0884-1.14005.47849-1.691.81565a8.09521,8.09521,0,0,1-2.42852,1.00735c-.89373.202-2.10668.33862-2.36123-.79979a3.18331,3.18331,0,0,1,.044-1.21357c.30206-.34573.57421-.72178.90523-1.04367a8.49342,8.49342,0,0,1,1.85486-1.35992A15.65383,15.65383,0,0,1,55.21125,31.323a.13191.13191,0,0,0,0-.25248,6.58681,6.58681,0,0,0-4.54428.92332A10.26751,10.26751,0,0,0,48.57651,33.58a.2036.2036,0,0,0-.2054.06633c-.05227.06839-.10444.131-.15646.19125-1.92191.73049-3.47406,2.23923-5.08334,3.48591-1.6368,1.26806-3.22024,2.53734-4.726,3.94359-1.726.85092-4.87828,2.30753-4.23354,4.41751a3.1524,3.1524,0,0,0,.55348,1.2677q.69343,1.19078,1.38349,2.38344c.861,1.49206,1.71417,2.99255,2.68819,4.415a16.31242,16.31242,0,0,0,6.7963,6.01394.7204.7204,0,0,0,.18776.05009,11.54821,11.54821,0,0,0-.1031,2.482c.00158.02354.005.04662.00689.07008a2.65178,2.65178,0,0,0-2.293-.8556c.15507-.714.53047-1.34815.74575-2.04218.03159-.10192-.09874-.21724-.19232-.14784a4.43881,4.43881,0,0,0-1.63353,3.28308,1.07789,1.07789,0,0,0,.03938.5904,2.74975,2.74975,0,0,0,1.3034,1.94829.92343.92343,0,0,0,.47166.46257,1.53438,1.53438,0,0,0,2.13346-.57863l.01383.05619c.11282.481.14838.98291.30127,1.42221q-.00126.077.00174.15681a.959.959,0,0,0,.32457,1.34358,3.41525,3.41525,0,0,0,.45579.75924,2.76653,2.76653,0,0,0,3.09652,1.06049.87969.87969,0,0,0,.49725-.40734.48616.48616,0,0,0,.26.14146,5.61337,5.61337,0,0,0,1.09805.3173,2.94953,2.94953,0,0,0,.98512-.17624,2.70939,2.70939,0,0,0,.77943-.42824,2.19451,2.19451,0,0,0,1.24771-1.57578,1.0801,1.0801,0,0,0-.694-1.26344,1.62231,1.62231,0,0,0-1.82936-.74827,1.941,1.941,0,0,0-.95548.54067,2.039,2.039,0,0,0-.21542-.28317.87919.87919,0,0,0-1.48614.61556,5.1641,5.1641,0,0,0,.10761.71112,4.06447,4.06447,0,0,0-2.62059-1.14616,11.25667,11.25667,0,0,1-.37813-1.167.19868.19868,0,0,0-.24925-.17174,10.75508,10.75508,0,0,1-.13652-2.30659,15.42922,15.42922,0,0,1,.1397-2.74374,9.02459,9.02459,0,0,0,.44646-2.21.291.291,0,0,0-.43342-.2487,2.664,2.664,0,0,0-.91273,1.27949,17.879,17.879,0,0,1-6.5968-6.06681c-.93295-1.31478-1.78225-2.68693-2.64087-4.05065q-.62961-.99994-1.25426-2.003c-.13533-.21665-.2537-.42628-.38606-.61418l-.0005-.00887c-.358-2.49943,3.33683-2.402,3.96972-4.45168,1.5641-1.01447,3.04613-2.11409,4.53723-3.25743a42.809,42.809,0,0,0,3.54616-2.758,2.67053,2.67053,0,0,0-.05624,1.17461,2.42567,2.42567,0,0,0,1.94234,1.91712,6.58774,6.58774,0,0,0,3.58186-.51986c.0485-.01974.10017-.04109.15319-.06328a3.47,3.47,0,0,0-.2917,1.48966.99394.99394,0,0,0-.75681-.02753A15.01052,15.01052,0,0,0,47.464,42.26644a8.99982,8.99982,0,0,1-2.29086,1.39123,6.993,6.993,0,0,0-2.042.7625.30094.30094,0,0,0-.10722.19027,1.56028,1.56028,0,0,0-.16469.14142.18885.18885,0,0,0,0,.26257c.65425.67991,1.69983.48611,2.54585.3675a15.08936,15.08936,0,0,0,3.40453-.89693A16.55449,16.55449,0,0,0,51.842,42.97367a11.26352,11.26352,0,0,0,1.376-.9845,2.64515,2.64515,0,0,1,.64032.1437,12.20028,12.20028,0,0,1,1.4553,1.30991,12.89145,12.89145,0,0,0,2.02133,2.191c1.38964,1.07085,3.99788,2.16351,5.641,1.04065.01166-.008.02143-.01691.03234-.0253.036-.00309.07418-.004.10949-.00779a5.93469,5.93469,0,0,0,5.37042-5.06321C68.50052,41.47114,68.34475,41.44542,68.2959,41.52608Z"/>
      <path class="cls-2" d="M50.59368,63.98232a5.18736,5.18736,0,0,0-.36053-.797,3.601,3.601,0,0,0-.42906-.72987c-.19-.235-.489.0308-.45222.26325a3.587,3.587,0,0,0,.26194.78815,4.87984,4.87984,0,0,0,.32586.75124A.35947.35947,0,0,0,50.59368,63.98232Z"/>
      <path class="cls-2" d="M53.22017,63.31264a2.93359,2.93359,0,0,0-.92046-1.60418c-.22-.17072-.66075-.16826-.71481.18872a2.19066,2.19066,0,0,0,.03685.97364,4.73128,4.73128,0,0,0,.39966.94719A.65887.65887,0,0,0,53.22017,63.31264Z"/>
      <path class="cls-2" d="M116.83593,38.45c-.14406.18965-.29437.37491-.44651.5588-.00357-.02447-.00422-.049-.00883-.07344-.17833-.94319-1.15379-1.62582-1.94823-2.06945a.82127.82127,0,0,0-1.22416.70247,1.74869,1.74869,0,0,0,.25743.88015c.09987.17318.43.48927.47478.69868-.01552-.03-.052-.00677-.09655.04146a1.45434,1.45434,0,0,0-.288-.221,7.99036,7.99036,0,0,0-7.929-.24232,1.19583,1.19583,0,0,0-.28034.03919,6.07857,6.07857,0,0,1-1.9522-.1155c-.561-.12689-1.08714-.36159-1.64182-.48558A6.82429,6.82429,0,0,0,99.22664,36.362a6.02752,6.02752,0,0,0-2.75012-.27916,5.711,5.711,0,0,0-1.95423.38887,1.69545,1.69545,0,0,0-.5221.01256.38424.38424,0,0,0-.28192.37032c.057.79857.751,1.48129,1.16395,2.13956a5.71792,5.71792,0,0,1,.70092,1.36556c.2124.723-.12452,1.11483-.58379,1.59727a6.356,6.356,0,0,0-.70285.89063c-.0065-.01456-.01032-.02938-.01716-.04389-.177-.374-.60784-.97011-1.10256-.83067-.42846.12078-.40253.63963-.34937.99767.08232.55495.24588,1.14208-.49432,1.20856a3.11785,3.11785,0,0,1-1.817-.67346.39717.39717,0,0,0-.15115-.06013c-.46983-.31237-.97883-.57754-1.48506-.873-.10895-.0636-.235.09-.13746.1782a7.17881,7.17881,0,0,1,1.77675,2.2602c.02658.06082.04969.12432.07319.18747a1.61852,1.61852,0,0,1-1.62718.60711,5.02192,5.02192,0,0,1-.89249-.30188c-.12879-.21392-.257-.4272-.37992-.64111a.8712.8712,0,0,0-.97441-.39653A37.61321,37.61321,0,0,1,76.46593,46.968a8.65322,8.65322,0,0,1-4.72042-.77456,5.66333,5.66333,0,0,1-1.70658-1.357c-.42445-.511-.61934-1.16245-1.05723-1.64709a.36.36,0,0,0-.59812.15791c-.19648,1.29083,1.016,2.60866,1.955,3.35292a8.56866,8.56866,0,0,0,4.68323,1.71092,22.60738,22.60738,0,0,0,7.49262-.83534c.26432-.02683.52908-.04883.7936-.061a6.64029,6.64029,0,0,1,3.4988.74688,6.44715,6.44715,0,0,1,.97511.64825,7.32759,7.32759,0,0,0,.798,1.6024.6944.6944,0,0,0-.22212.33353,7.9441,7.9441,0,0,1-.43362,1.041,10.10811,10.10811,0,0,0-1.53133.79381,6.22747,6.22747,0,0,1-2.0736.70025c-.289.02244-.38552.45494-.0719.53148a3.84407,3.84407,0,0,0,2.37506.01122q-.128.16844-.25852.33536c-.68669.87443-1.31877,1.78069-1.976,2.67464a.51371.51371,0,0,0-.33673-.1435c-.33771-.02265-.70121.1554-1.02485-.01326a.76766.76766,0,0,1-.26238-.24447,2.94827,2.94827,0,0,0-.13712-.58124.49987.49987,0,0,0-.05773-.11128.87092.87092,0,0,1,.12458-.08346.43929.43929,0,0,0,.20054-.49282l-.04026-.10509a.59558.59558,0,0,0-.56058-.42675c-1.18637.12017-1.04454,1.2823-1.96222,1.75816-.61384.31833-1.32617.50522-1.96589.77877a11.3726,11.3726,0,0,0-1.59946.86327,1.73928,1.73928,0,0,0-.09209-.16864,2.25481,2.25481,0,0,0-.751-.71757,10.13073,10.13073,0,0,1,1.47291-1.5061,9.62209,9.62209,0,0,1,2.93321-1.42942.1228.1228,0,0,0-.03248-.24,5.702,5.702,0,0,0-4.93724,2.8849c-.04647-.02041-.09279-.041-.13975-.06066a6.65871,6.65871,0,0,1-1.723-1.1689,4.13624,4.13624,0,0,0-3.52588-.73143c-.76087.10384-1.648.247-2.00352-.62877a2.25668,2.25668,0,0,1-.11263-1.06007c.06938-.28265.145-.56459.23893-.84653a1.11108,1.11108,0,0,0-1.55815-1.31679c-.00258-.01707-.00654-.03667-.00877-.05316-.00427-.03126-.0489-.0201-.05143.00695-.00238.02552-.0065.05041-.009.07588a1.15754,1.15754,0,0,0-.5997.67316,8.99594,8.99594,0,0,0-.69269,3.17778c-.08371-.019-.166-.03927-.24369-.05336a7.2508,7.2508,0,0,1-2.23289-.66892,6.52663,6.52663,0,0,1-1.3219-1.20629,1.27518,1.27518,0,0,0-.73945-.55756.17754.17754,0,0,0-.21473.12191c-.18249.66262.24349,1.33817.36931,1.992a11.11243,11.11243,0,0,1,.15447,2.492,12.16821,12.16821,0,0,0,.52071,5.00682.63485.63485,0,0,0,.31882.35032,2.61042,2.61042,0,0,0,.067.60764,1.29715,1.29715,0,0,0-.34416-.07053,1.18915,1.18915,0,0,0-.80462.23654c.08912-.28859-.11946-.65639-.48708-.53368a6.3762,6.3762,0,0,0-3.94244,8.83465c.05375.11881.24121.03386.20739-.08743a6.584,6.584,0,0,1,3.95781-7.93926.47244.47244,0,0,0,.08267-.03967c-.01587.03747-.02916.07713-.04359.12-.00531.00867-.01751.03406-.042.09031a.40817.40817,0,0,0-.03139.25144,1.05792,1.05792,0,0,0-.04567.42792c.019.19477.30424.26186.36.04873a.69456.69456,0,0,1,.0967-.2227.87985.87985,0,0,0,.158-.06052.95159.95159,0,0,1,.44463-.04413c.16509.05715.211.27666.25431.42238a.57138.57138,0,0,0,1.11684-.15116,1.21923,1.21923,0,0,0-.43963-.9908c.11114-.36153.17967-.72361.26755-1.081a.4843.4843,0,0,0,.08663-.31439,3.27718,3.27718,0,0,1,.32225-.75193c.10057-.16722.31291-.50217.56528-.29173a2.10017,2.10017,0,0,1,.22381.67649,4.5115,4.5115,0,0,1,.086,1.424c-.05168.65582,1.00218.66559,1.02951,0,.00416-.101.00352-.22732-.00253-.36935a2.45891,2.45891,0,0,1,1.03467-1.16292.98869.98869,0,0,1,.98562.03021c.27379.25155.17808.73084.1511,1.062-.02777.34146-.10394,1.131.25113,1.41358-.00272.0279-.0054.05571-.00709.08226-.01959.30736.40556.3852.553.14977.243-.38793.39261-.82005.60938-1.22337a7.43444,7.43444,0,0,1,.39206-.65858c.25024-.36874.32145-.60817.80521-.5583.87286.09,1.53475,1.43555,1.89885,2.1466.2415.47157,1.05257.1438.8671-.36555-.02143-.05874-.04573-.12085-.07147-.18428.32175-.85153.3644-2.01455,1.18072-2.23933a1.97574,1.97574,0,0,0,1.33881.14733c.65872.1419,1.4067.23819,1.81424-.2483.12169-.1453.10449-.32016.17575-.48387a1.32614,1.32614,0,0,1,1.15735-.88993,1.27575,1.27575,0,0,1,.83933.25667c.21077.41217.25713,1.035.55567,1.36458a1.2484,1.2484,0,0,0,.6245.37119c.40888.10784.99951-.12847,1.34918.10926a.47768.47768,0,0,0,.31748.07007,14.41516,14.41516,0,0,0-.51168,2.1554.1223.1223,0,0,0,.23565.065,21.10171,21.10171,0,0,1,3.70634-7.27617c1.49259-1.65987,3.20983-3.08026,4.19084-5.114a15.64465,15.64465,0,0,0,2.56436,2.84147,16.44189,16.44189,0,0,0,3.818,2.50336,8.51663,8.51663,0,0,0,3.0137,1.01356c.00288.11181.00466.22356.00392.33486-.00689.97734-.13057,1.95109-.139,2.92912a10.42387,10.42387,0,0,0,.52546,3.16668.12436.12436,0,0,0,.02.03908c-.92061.92056-.40531,2.51346-.29849,3.62021.02975.308.51029.432.58294.07889.23447-1.14015.9343-2.69266.054-3.73185a.18149.18149,0,0,0-.13325-.05955c.10052-1.37215.51931-2.6987.71123-4.06218a11.36245,11.36245,0,0,0-.01056-3.41025c-.02837-.1738-.07052-.36935-.12576-.57717a.58514.58514,0,0,0-.14838-.48919c-.45093-1.327-1.37407-2.85752-2.72478-2.65432a.25381.25381,0,0,0-.17679.31136,5.10815,5.10815,0,0,0,.907,1.31152c-.25346-.107-.50583-.21972-.75175-.35323a10.9483,10.9483,0,0,1-2.45759-1.796,10.17323,10.17323,0,0,1-1.59192-2.03276c-.20536-1.55591-.11783-3.57073,1.69879-2.82741.94659.3873,1.51957-.818,1.08113-1.54121a3.15394,3.15394,0,0,0-.24512-1.13473c-.06284-.22755-.14263-.461-.20977-.697a4.13988,4.13988,0,0,1,.25807-.517c.0116.00491.0239.007.03541.01241a2.2531,2.2531,0,0,1,.59831.31077A6.92584,6.92584,0,0,1,97.356,45.36727c.63744.70283,1.37794,1.32261,1.99247,2.04186a.18458.18458,0,0,0,.30637-.17832c-.54089-1.507-1.41106-3.24589-2.93767-4.00539a4.00349,4.00349,0,0,1,1.05272-.529,4.65252,4.65252,0,0,1,1.9701-.08319c1.65044,1.29128,3.30093,2.60146,5.05016,3.73715a1.13271,1.13271,0,0,0,1.654-.67289c.3631-2.10824,2.81171-1.8854,4.3-1.16677a5.42893,5.42893,0,0,1,1.89666,1.392,2.22737,2.22737,0,0,1,.56152,1.66083,3.63124,3.63124,0,0,0-.51986.89294c-.22673.54543.54882,1.12259,1.01741.78218a4.1728,4.1728,0,0,0,1.232-1.47907,3.66029,3.66029,0,0,0,.42742-.4034,2.4362,2.4362,0,0,0,.64394-1.38308c.07484-1.0647-.75393-1.63454-1.59787-2.07469a10.36751,10.36751,0,0,0,1.88614-1.85494,14.05279,14.05279,0,0,0,2.29389-2.571C119.24537,38.3043,117.60341,37.43984,116.83593,38.45ZM83.46383,58.26441a.35025.35025,0,0,0-.11327-.12244,1.76579,1.76579,0,0,0,.19365-.00748C83.51629,58.17741,83.49135,58.22135,83.46383,58.26441Z"/>
      <path class="cls-2" d="M73.05546,74.75577q-2.5203-1.507-5.15619-2.81459a20.32843,20.32843,0,0,0-5.159-2.17558c-.47256-.0846-.83928.577-.34977.82954a47.901,47.901,0,0,0,5.11472,1.79491,54.6304,54.6304,0,0,1,5.49737,2.45616A.05241.05241,0,0,0,73.05546,74.75577Z"/>
      <path class="cls-2" d="M73.01583,72.60215c-1.72745-.89973-3.48794-1.73773-5.25164-2.56355-.7707-.36083-1.52106-.77491-2.3159-1.08042a3.36365,3.36365,0,0,0-2.3712-.40861c-.13077.05455-.2485.21623-.146.359a3.09861,3.09861,0,0,0,1.88446.92267c.84861.24194,1.72017.3823,2.56793.62811a31.78753,31.78753,0,0,1,5.56193,2.26338C73.02516,72.76338,73.09577,72.6438,73.01583,72.60215Z"/>
      <path class="cls-2" d="M72.83646,70.299A56.35019,56.35019,0,0,0,64.126,66.76826c-.21726-.06891-.29953.25874-.09284.33665a82.268,82.268,0,0,1,8.45092,3.797C72.88328,71.10636,73.237,70.50412,72.83646,70.299Z"/>
      <path class="cls-2" d="M79.18169,65.184c-1.73445,2.51626-4.60032,2.633-7.05636,1.13509-.09819-.0599-.243.06633-.16718.16718,1.99674,2.65486,6.16348,1.6552,7.4044-1.19654A.10482.10482,0,0,0,79.18169,65.184Z"/>
      <path class="cls-2" d="M97.69517,100.79336a17.9417,17.9417,0,0,0-1.07171-4.578c-.52165-1.63564-1.12413-3.23733-1.7889-4.82a56.17426,56.17426,0,0,0-2.76073-5.80652,8.79711,8.79711,0,0,0-.724-1.45207,8.13315,8.13315,0,0,0-1.47449-2.306,1.04139,1.04139,0,0,0-.45679-.88247,19.4408,19.4408,0,0,0-3.81-2.03562,10.664,10.664,0,0,0-1.93846-.65512,13.32971,13.32971,0,0,0-1.94869-.10546.36827.36827,0,0,0-.37818.29226,1.43282,1.43282,0,0,0-.76072.79172c-.07022-.06238-.1398-.12264-.2071-.1782q-.10324-.08521-.20907-.16712a.04408.04408,0,0,0-.03184-.073.037.037,0,0,0-.03481.02288,4.54341,4.54341,0,0,0-1.65049-.843,1.18057,1.18057,0,0,0,.52755-.97254c.10672-1.10988-1.1463-1.54837-1.71461-2.25969-.98325-1.23068.52224-2.26695,1.63239-2.19685.80516.05083,1.52011.53352,2.32378.46751a.17734.17734,0,0,0,.16931-.19507c1.2607.63442,2.52795,1.23316,3.84261,1.77431.84478.34773,1.70063.66189,2.55746.97839a4.51029,4.51029,0,0,0,2.40418.541.24545.24545,0,0,0,.146-.359,3.94441,3.94441,0,0,0-1.8852-1.12892c-.37992-.15609-.75929-.31374-1.13941-.46957a.59523.59523,0,0,0,.02306-.35592,11.67115,11.67115,0,0,0-2.91248-4.593,22.31938,22.31938,0,0,1-1.94536-2.34346,8.19309,8.19309,0,0,1-1.425-2.84482c-.01825-.11832-.20664-.08765-.2057.02784a5.999,5.999,0,0,0,.61051,3.21938,17.57864,17.57864,0,0,0,2.14422,2.99913,19.70637,19.70637,0,0,1,2.27564,3.0869c.04572.0824.09452.18414.14713.29213-.039-.01485-.0777-.03047-.11673-.04519-1.01736-.38349-2.03919-.72005-3.06969-1.03189a.23068.23068,0,0,0-.00486-.04413c-.35894-1.27782-1.65173-1.98125-2.76817-2.52434a6.81215,6.81215,0,0,0-3.90123-.62984c-.15215.01993-.1585.26015,0,.24438a6.5278,6.5278,0,0,1,3.71586.70261,8.69125,8.69125,0,0,1,2.1457,2.01074q-.8425-.24386-1.69452-.47377a.19131.19131,0,0,0-.22976.1341c-1.61667-.4548-3.82878.20048-3.82357,2.03571a1.74745,1.74745,0,0,0,.51,1.19558c.44543.47422,2.68333,1.71907,1.06636,2.43523-1.28094.56732-2.30182-1.50194-3.63706-.97162a.14856.14856,0,0,0-.027.0153c-.27266-.02178-.55949.25964-.36361.537a20.812,20.812,0,0,0,3.25119,3.78933,28.0588,28.0588,0,0,0,4.1424,2.97429c.88673.52967,1.72066-.63163,1.25614-1.31644a.41032.41032,0,0,0-.08575-.41347,2.194,2.194,0,0,1-.51564-1.56631,1.21407,1.21407,0,0,1,.02876-.20274c.99584.5404,2.17105.89866,3.14779,1.33313.58835.2617,1.18057.55846,1.77888.84632A13.619,13.619,0,0,0,87.4934,85.368a37.49182,37.49182,0,0,0,1.30935,3.676c.89229,2.20791,1.78116,4.8113,3.477,6.53729a.15842.15842,0,0,0,.26258-.15285,16.41665,16.41665,0,0,0-1.11773-3.30222,11.0883,11.0883,0,0,1-.06858-1.76439,8.03711,8.03711,0,0,1,.21993-1.68015c.0913-.35937.2371-.69567.30871-1.04531.71242,1.44546,1.41106,2.89807,2.0312,4.39043.658,1.58349,1.27226,3.19064,1.84394,4.80725.15244.431.295.87087.43958,1.31148a.49043.49043,0,0,0-.1151.26466,8.67243,8.67243,0,0,0,.21468,2.40758,3.228,3.228,0,0,0,.75953,2.001.39842.39842,0,0,0,.61687-.07948A2.81616,2.81616,0,0,0,97.69517,100.79336Zm-22.46039-23.227c-.06833-.06067-.13875-.11981-.20654-.18086.0843.04027.17213.08123.26243.12224A.35917.35917,0,0,0,75.23478,77.56634Z"/>
      <path class="cls-2" d="M77.35113,44.30261q.10809-.05051-.04671.0173a.56043.56043,0,0,0-.24067.15462l-.03774.028a.09549.09549,0,0,0-.02221.01071c-.01195.00658-.08421.04544-.0919.05312a1.5591,1.5591,0,0,1-.18254.0515.73384.73384,0,1,0,.39008,1.4149,2.13019,2.13019,0,0,0,.63616-.23342,1.69886,1.69886,0,0,0,.30895-.21842.65913.65913,0,0,0,.17367-.20019q.12429-.28908.05594-.13511A.69481.69481,0,0,0,77.35113,44.30261Z"/>
      <path class="cls-2" d="M48.00537,78.57716a.11951.11951,0,0,0-.08331-.10941c-.87211-.28235-2.03348,1.04126-2.64871,1.56933a38.30554,38.30554,0,0,0-2.98,2.89628c-.95041,1.01389-1.83278,2.08152-2.682,3.18112-.63685.82457-1.8192,1.9212-1.87122,2.99257a.30713.30713,0,0,0,.38671.29457c.97268-.37761,1.62882-1.68819,2.2981-2.47354.8971-1.05263,1.83581-2.07239,2.78563-3.07751.91015-.96313,1.86239-1.88507,2.80715-2.81383.47246-.46442.949-.92044,1.40368-1.40251C47.76148,79.27359,48.06567,79.08564,48.00537,78.57716Z"/>
      <path class="cls-2" d="M44.94456,98.77227c-.92785.13022-1.847.33724-2.76539.52241A9.67447,9.67447,0,0,0,40.751,99.613a.7269.7269,0,0,0-.787-.04188,1.59958,1.59958,0,0,0-.50335,2.223c.53539.86914,1.87484,1.25252,2.73535,1.69269l.00228-.00847c.4059.20939,1.04255-.12695.83987-.63894a1.716,1.716,0,0,0-.60957-.81668.51019.51019,0,0,1,.09373-.131,1.5823,1.5823,0,0,1,.7519-.4772c.35879-.13805.74193-.20826,1.10384-.338a2.77378,2.77378,0,0,0,1.4797-1.11636C46.29845,99.30369,45.572,98.68422,44.94456,98.77227Z"/>
      <path class="cls-2" d="M78.65637,103.40984a33.81271,33.81271,0,0,1-1.8737-5.96565c-.17828-1.20792-.02633-4.44636-1.75061-4.43427a5.19261,5.19261,0,0,0-3.40582-.83532,19.1112,19.1112,0,0,0-3.298.80968,7.87654,7.87654,0,0,1-4.04291.07367c-1.83537-.43419-4.21415-1.44689-6.44625-1.69859a43.40834,43.40834,0,0,0,6.86663-4.96607c.943-.837-.25867-2.23471-1.30068-1.68575q-3.64241,1.91889-7.128,4.11191a1.22639,1.22639,0,0,0-1.90375.12918,4.9175,4.9175,0,0,1-4.4196,2.00973.7152.7152,0,0,0-.68843.68176c-.31183.27765-.59023.61274-.84924.86407-.44325.43009-.88714.85572-1.315,1.29758a1.14969,1.14969,0,0,0-.56405.11434,3.05645,3.05645,0,0,0-1.55279,3.61394,1.04521,1.04521,0,0,0,1.13732.733.58373.58373,0,0,0,.34689.116,3.6604,3.6604,0,0,0,1.22242-.19976,1.98424,1.98424,0,0,0-.29626,1.20189.15939.15939,0,0,0,.2364.13565c.50623-.266.77531-.82219,1.2735-1.089a.94678.94678,0,0,1,.78493-.12133c.24577.13358.1571.34376.13945.57881a.6074.6074,0,0,0,.25489.5535l-.00446.00862a.69933.69933,0,0,0,.779,1.01338,1.59717,1.59717,0,0,0,1.20481-1.05717c.23963-.07171.49606-.07469.73936-.14623a.72109.72109,0,0,0,.227-.11111,11.65394,11.65394,0,0,0,2.37021.21267,25.28159,25.28159,0,0,0,4.58489-.24406,25.60365,25.60365,0,0,0,8.63276-2.8773.812.812,0,0,0,0-1.40177.80242.80242,0,0,0-.81939,0,24.49405,24.49405,0,0,1-7.896,2.67,23.7331,23.7331,0,0,1-4.152.271c-.48138-.00982-.96415-.02879-1.44623-.05282.07995-.02587.16172-.04991.23819-.079a9.78509,9.78509,0,0,0,2.575-1.575c.57823-.46546,1.61414-1.199,1.5402-2.037a.20088.20088,0,0,0-.14094-.18516c-.641-.2104-1.26031.2867-1.79917.58941a11.01581,11.01581,0,0,1-2.2552,1.06213,7.355,7.355,0,0,1-2.14412.37689,10.23306,10.23306,0,0,1-1.74967-.26546,1.00661,1.00661,0,0,0-.3884-.97431c.09829-.056.19564-.11426.29457-.16882a9.70068,9.70068,0,0,1,3.44321-1.10966,1.11318,1.11318,0,0,0,.96415-.712l.03367-.01026c.02123-.00172.0425-.00306.06353-.00642a3.71816,3.71816,0,0,0,.60466-.14978c2.89176-.4903,5.8399,1.30236,8.741,1.811a12.38171,12.38171,0,0,0,5.55916-.56643c1.39252-.38,3.04251-.73322,4.32732-.08024a.3266.3266,0,0,0,.14193.09689c.85237.29622.5453,2.31564.60015,3.05012a18.82819,18.82819,0,0,0,.49036,3.05719,11.73549,11.73549,0,0,0,2.16767,4.86387,1.28141,1.28141,0,0,1-.00823.67664,4.604,4.604,0,0,1-1.192,1.78824,5.5018,5.5018,0,0,1-3.42551,1.729.29954.29954,0,0,0-.14976.553c1.80477,1.09572,3.8746-.554,5.05432-1.93061a4.28183,4.28183,0,0,0,1.22009-2.52736A2.43689,2.43689,0,0,0,78.65637,103.40984Z"/>
      <path class="cls-2" d="M75.18981,101.16c-.243-.28394-.64613.07761-.49349.38077.29924.59434.56693,1.50275,1.2742,1.71726a.27433.27433,0,0,0,.34247-.26089C76.38361,102.27887,75.61217,101.65353,75.18981,101.16Z"/>
      <path class="cls-2" d="M72.9287,96.82626a.6473.6473,0,0,0-.77005.09935,2.705,2.705,0,0,1-.63.38788.36526.36526,0,0,0-.17362.05671c-.01756.01183-.03273.02442-.049.03665a12.54033,12.54033,0,0,1-2.06323.51678c-.33906.068-.24394.57071.07889.58291a7.28337,7.28337,0,0,0,1.57809-.08392c.0368-.00661.0733-.015.1099-.02263a1.438,1.438,0,0,0,1.63253.89546A1.39457,1.39457,0,0,0,72.9287,96.82626Z"/>
      <path class="cls-2" d="M73.60021,106.58094a1.70324,1.70324,0,0,0-.562.36661,4.27518,4.27518,0,0,0-.43834.5693,2.75418,2.75418,0,0,0-.59668,1.1965c-.0306.25109.26829.33232.44657.25624a2.85133,2.85133,0,0,0,.95517-.925,2.28226,2.28226,0,0,0,.58-1.168A.26579.26579,0,0,0,73.60021,106.58094Z"/>
      <path class="cls-2" d="M46.8255,88.24705a10.208,10.208,0,0,0-5.15216,6.78969,8.09778,8.09778,0,0,1-1.13594.21255,2.44342,2.44342,0,0,1-.75978-.20448l.00129-.01831a1.0208,1.0208,0,0,0-2.04038,0c.00918.92071-1.05589.68212-1.4063.11643a2.90721,2.90721,0,0,1,.18136-2.51917.36913.36913,0,0,0,.01125-.31435c.25986-.3888.51719-.74453.73177-1.048.10528-.149-.10246-.35121-.25078-.25077a8.70542,8.70542,0,0,0-2.51829,2.11046,5.02486,5.02486,0,0,0-.96509,2.92723,3.97022,3.97022,0,0,0,1.02708,2.62564c.17486.2009.369.38254.56038.56682a1.40393,1.40393,0,0,1-.25574.94718,2.085,2.085,0,0,1-1.82753.62776,21.96205,21.96205,0,0,0-2.96654-.01316,5.40148,5.40148,0,0,0-4.01152,2.5161c-.04483-.12076-.24562-.07818-.2488.05635-.03382,1.42974-.13642,2.849-.12353,4.28a21.9868,21.9868,0,0,0,.156,4.02757c.43833,2.21954,2.54144,3.03289,4.52344,3.45378a.94046.94046,0,0,0,1.12081-1.17434,3.29353,3.29353,0,0,0,.93767-3.45635,9.17848,9.17848,0,0,1,2.64667-.59585c-.06288.2526-.02826.44317.15919.51983a8.996,8.996,0,0,0-1.1576,5.64714.21092.21092,0,0,0-.06264.13991c-.006.07571-.00952.15122-.01477.22688a2.52192,2.52192,0,0,0-.4437-.5354.94937.94937,0,0,0-.82712-.249,2.32682,2.32682,0,0,0-1.15453-.68685c-.36008-.0904-.719.40427-.39063.671a1.54294,1.54294,0,0,1,.511,1.6078c-.11554.74263-.0111,1.59173.86348,1.7958a1.48805,1.48805,0,0,0,1.38756-.45132,23.21827,23.21827,0,0,0,1.75865,8.41768,31.30618,31.30618,0,0,0,2.44132,4.7598,16.9655,16.9655,0,0,0,3.356,4.33117c.35622.28171.94089-.06871.67171-.51826-.913-1.52438-2.16445-2.82686-3.06909-4.37324a29.61071,29.61071,0,0,1-2.2251-4.69625,44.92482,44.92482,0,0,1-2.28887-8.97442.40872.40872,0,0,0,.52928-.37423,14.28334,14.28334,0,0,1,3.99377-9.75007c.2238-.15206.451-.29922.685-.43565.6367-.37122,1.37893-.58709,1.97739-1.00513a.7934.7934,0,0,0,.27632-.36758l.05981-.01051a.76391.76391,0,0,0,.53033-.93408c-.56112-1.68274-3.16118-1.73395-3.99466-.43489l-.85812-.18383a.96806.96806,0,0,0-1.17655,1.17657,1.78576,1.78576,0,0,1-.24007,1.409,1.72563,1.72563,0,0,0-1.73291-.57663,2.72513,2.72513,0,0,0-1.50256,1.20222,14.95048,14.95048,0,0,0-1.03239,1.666.35682.35682,0,0,0,.15537.49164c-.084.06328-.16727.12779-.24905.1949a3.21463,3.21463,0,0,0-.50186-.59834c-.82435-.76254-1.92631-1.09884-2.74526-1.86693a7.43625,7.43625,0,0,1-1.93981-2.94183.32213.32213,0,0,0-.6054-.03019q-.05022-.28274-.10038-.56551a.10427.10427,0,0,0,.04979-.029,7.55478,7.55478,0,0,1,3.4079-2.19685,4.86233,4.86233,0,0,1,2.36113-.07681,9.38828,9.38828,0,0,0,1.75161.35441,2.82727,2.82727,0,0,0,2.48426-.87927.88493.88493,0,0,0,1.5885-.218,1.52612,1.52612,0,0,0,.06953-.99837,9.42145,9.42145,0,0,1,1.52651-.92972c.8614-.42016,1.80219-.54106,2.67678-.90459a.838.838,0,0,0,.38359-.30384.44094.44094,0,0,0,.46853-.11059c.40209-.51187.28247-1.15706.43561-1.77142.16583-.66509.43967-1.2946.61726-1.95194a.36067.36067,0,0,0-.11341-.34867c.18259-.41287.38185-.82049.60635-1.2223a22.34571,22.34571,0,0,1,2.6615-3.4441A.2105.2105,0,0,0,46.8255,88.24705ZM34.18385,108.31238c.03893.03682.07954.07563.11738.11329-.08842.01975-.17754.038-.26373.06288C34.08655,108.42856,34.13515,108.37044,34.18385,108.31238Zm-7.11672-.54544-.00669.012c-.05986.13237-.11307.266-.163.40018-.05093-.323-.10464-.64527-.15889-.96745A5.1711,5.1711,0,0,0,27.06713,107.76694Z"/>
      <path class="cls-2" d="M61.49265,142.5059a32.05668,32.05668,0,0,0-4.60135-.31974,24.47544,24.47544,0,0,1-4.98743-1.12513,30.58367,30.58367,0,0,1-8.66-4.7437c-.26973-.2032-.52745.21356-.33846.43866a19.24107,19.24107,0,0,0,8.61694,5.68906,22.84693,22.84693,0,0,0,5.04916,1.09458c1.57482.16988,3.54309.38,5.015-.31586A.39676.39676,0,0,0,61.49265,142.5059Z"/>
      <path class="cls-2" d="M115.55153,137.8353a4.85186,4.85186,0,0,1-1.3222-2.53886c-.15879-.8537.17724-1.82474-.11922-2.63119a.40943.40943,0,0,0-.58978-.23993c-.97437.46485-1.13519,1.89861-1.08977,2.93494-.46863.09409-.935.19668-1.39549.3198a1.185,1.185,0,0,0-1.00229-1.0592.76037.76037,0,0,0-.33583-.09934,14.39207,14.39207,0,0,0-5.4142.86358,70.908,70.908,0,0,0-18.34835-.54621,1.30221,1.30221,0,0,0-1.01994.71871c-.08688.01025-.17366.01838-.26055.0291a1.3592,1.3592,0,0,0-.26883.058,1.62715,1.62715,0,0,1,.01512-1.11926c.36862-1.189-1.08009-1.74107-1.89388-1.10244a7.46647,7.46647,0,0,1-2.19668,1.17444c-.83586.29048-1.2375,1.64522-.27315,2.08979a6.27069,6.27069,0,0,1,1.81255,1.22482,20.43819,20.43819,0,0,0-5.853-.86892,9.57692,9.57692,0,0,0-5.2941.219,8.91036,8.91036,0,0,0-1.16509.26949.98125.98125,0,0,0-1.61518-.03359,9.47205,9.47205,0,0,1-2.51719,2.50134c-.79039.52892-1.99837.79832-2.49374,1.65134a.45858.45858,0,0,0,.16281.621c1.10905.55978,2.53851-.33633,3.46993-.93746a9.95055,9.95055,0,0,0,1.57581-1.26444.86621.86621,0,0,0,.9697.74311,77.27175,77.27175,0,0,1,9.06842-.21635,1.10925,1.10925,0,0,0,.6069-.15174c.11019.00975.22033.02035.33052.02982.65927.07942,1.31838.16092,1.97889.22325a4.69579,4.69579,0,0,0,1.00853-.00725l.04037.00259a1.18246,1.18246,0,0,0,.81641-.2293c.0126-.00558.02465-.0123.03715-.01807a1.14244,1.14244,0,0,0,.18373.01148c5.70332-.16955,11.38656-.6386,17.07718-.99887a.86806.86806,0,0,0,.76355.27388c2.21737-.164,4.39878.1385,6.60821.15584a1.12411,1.12411,0,0,0,1.059-.80631c.00982-.0308.0177-.06123.02678-.09188a3.99,3.99,0,0,1,2.4014,1.03575c1.02078.91256,2.16445-.33193,1.88188-1.20438a1.05243,1.05243,0,0,0,.34218-.56314,6.18211,6.18211,0,0,0,.785,1.02346C115.02179,140.24188,116.4156,138.81567,115.55153,137.8353Z"/>
      <path class="cls-2" d="M67.84254,118.73583a25.11212,25.11212,0,0,0-2.17362-3.21376,20.3756,20.3756,0,0,0-6.13581-5.14147c-.16613-.092-.37024.14364-.2115.27416a36.34655,36.34655,0,0,1,5.34457,5.41281,28.22969,28.22969,0,0,1,2.23726,3.21719,12.96359,12.96359,0,0,0,1.86978,3.10778.24746.24746,0,0,0,.41721-.1728A7.18645,7.18645,0,0,0,67.84254,118.73583Z"/>
      <path class="cls-2" d="M69.67607,124.16689a.52769.52769,0,0,0-.9759.26432c.005,1.41052.33216,2.77184.21374,4.19764a11.44839,11.44839,0,0,1-1.35255,4.524,14.06268,14.06268,0,0,1-5.79695,5.49364.19288.19288,0,0,0,.148.351,11.52655,11.52655,0,0,0,6.62472-5.45646C69.97044,130.99611,71.02629,126.9449,69.67607,124.16689Z"/>
      <path class="cls-2" d="M56.78954,138.98681c-1.152-.444-2.42342-.52946-3.61891-.87112a24.31287,24.31287,0,0,1-3.5714-1.28795,18.75741,18.75741,0,0,1-6.03985-4.4557,23.46807,23.46807,0,0,1-5.69131-14.24249.20087.20087,0,0,0-.40149,0A19.462,19.462,0,0,0,43.029,132.90242a23.91014,23.91014,0,0,0,6.34185,4.63747,18.96832,18.96832,0,0,0,3.72707,1.45141,8.81194,8.81194,0,0,0,3.69161.43315C57.03338,139.38189,56.97456,139.05812,56.78954,138.98681Z"/>
      <path class="cls-2" d="M55.23342,136.40244c-2.94571-1.51285-5.96005-2.70242-8.53353-4.85394a19.91857,19.91857,0,0,1-5.78877-8.29066c-.02331-.06212-.12288-.03679-.101.02784a21.98171,21.98171,0,0,0,5.531,8.62156c2.34575,2.30064,5.47594,4.45429,8.86584,4.59279A.05275.05275,0,0,0,55.23342,136.40244Z"/>
      <path class="cls-2" d="M65.35629,131.76292c-.85609-.95415-3.18791.33611-4.08417.82591a9.46322,9.46322,0,0,0-3.55959,3.27125.64118.64118,0,0,0,0,.6491c.0665.10886.14088.25462.28356.27859.68257.11463.91768-.39007,1.34436-.84618a10.72247,10.72247,0,0,1,1.98593-1.71143,9.37022,9.37022,0,0,1,2.3701-1.11006c.6305-.1913,1.42143-.12968,1.73217-.79662A.48505.48505,0,0,0,65.35629,131.76292Z"/>
      <path class="cls-2" d="M65.15828,129.56483c-.70127-.4153-1.85838-.07118-2.60567.12329a10.77225,10.77225,0,0,0-2.84345,1.212,9.03693,9.03693,0,0,0-3.77071,4.41056c-.06719.16063.18488.24961.27117.11433a12.2355,12.2355,0,0,1,4.05089-3.87831,10.10785,10.10785,0,0,1,2.51918-1.03487c.758-.19779,1.72865-.08268,2.37859-.5099A.25608.25608,0,0,0,65.15828,129.56483Z"/>
      <path class="cls-2" d="M65.59746,123.57284c-.31253-4.36116-3.73431-8.46043-6.97454-11.10634a21.90422,21.90422,0,0,0-5.7731-3.424,12.64259,12.64259,0,0,0-5.02769-1.23525,6.56241,6.56241,0,0,0-3.80715.67173,7.77389,7.77389,0,0,0-3.15151,2.9679,10.54553,10.54553,0,0,0-.9889,2.16064,5.73866,5.73866,0,0,0-.2672,1.66415,6.84722,6.84722,0,0,0,.16941,4.34575c.00134.09215.002.18455.0001.27785a.15173.15173,0,0,0,.17961.14356c.04077.08738.07836.17528.12339.26194.15056.28991.54371.07545.49452-.20849a12.76192,12.76192,0,0,1-.157-1.30608c.19014-.49194.41384-.97918.60387-1.44174a9.13206,9.13206,0,0,1,1.32984-2.3466,5.759,5.759,0,0,1,3.587-2.121,6.05251,6.05251,0,0,1,3.376,2.40341,5.14982,5.14982,0,0,1,.75135,2.21946c.07553.82741-.168,1.60946-.16761,2.42525a.9107.9107,0,0,0,.61959.89447c-.6122.40608-1.18513.91015-1.71318,1.30383a.33193.33193,0,0,0,.33479.57276c1.0795-.48748,2.544-.92847,3.31085-1.8846a.40872.40872,0,0,0-.05058-.59761,6.001,6.001,0,0,0,2.7166-3.09771c.07726.03473.15348.07033.23189.1042a9.2191,9.2191,0,0,1,1.58007.67c.26392.18321.32725.145.294.46831-.02365.23-.458.60235-.59053.76911a.92544.92544,0,0,0,.64518,1.55758,3.49691,3.49691,0,0,0,1.20482-.23746c.02092-.008.04225-.017.06332-.02515a1.23662,1.23662,0,0,0-.21448.60128.63259.63259,0,0,0,.6312.63122,1.57426,1.57426,0,0,0,1.12363-.48089l.03149-.00751a5.18317,5.18317,0,0,1,.75374.25592,5.25285,5.25285,0,0,1,1.80015,1.32688,10.19063,10.19063,0,0,1,1.78325,4.18871c.05023.20073.388.276.4786.06254a4.22171,4.22171,0,0,0,.32924-2.0897.37413.37413,0,0,0,.041-.235c-.03809-.2652-.07979-.51856-.12834-.76313A.32925.32925,0,0,0,65.59746,123.57284Zm-13.26854-5.29278q.00068-.13-.00511-.26113a1.37748,1.37748,0,0,0,.37189-.17192c.01591-.00273.03129-.00789.04716-.011A5.17407,5.17407,0,0,1,52.32892,118.28006Z"/>
      <path class="cls-2" d="M49.80042,123.83842a3.82923,3.82923,0,0,0-1.07047-.75884,2.41218,2.41218,0,0,0-1.33921-.17871.43864.43864,0,0,0-.116.85722,4.514,4.514,0,0,1,.79038.45886,2.4164,2.4164,0,0,1,.66526.63721,2.65267,2.65267,0,0,1,.40878.757,2.2336,2.2336,0,0,0,.39385.92488.65156.65156,0,0,0,1.01439-.13073C51.02715,125.628,50.37771,124.40826,49.80042,123.83842Z"/>
      <path class="cls-2" d="M56.68455,121.67408a17.71364,17.71364,0,0,0-5.49518,2.83038c-.25946.17548-.10365.67339.22866.54239a17.90856,17.90856,0,0,0,5.50431-2.9643C57.112,121.9133,56.9098,121.61872,56.68455,121.67408Z"/>
      <path class="cls-2" d="M58.12413,109.06c-1.63918-2.43427-5.04029-3.61848-7.82914-3.92378a13.9019,13.9019,0,0,0-9.18818,2.51615c-.201.13837-.02207.45883.1938.3316a13.8737,13.8737,0,0,1,8.66187-1.80374,14.30906,14.30906,0,0,1,4.13089,1.122c1.31372.56524,2.4493,1.42035,3.70832,2.08021C57.99693,109.48477,58.26363,109.26724,58.12413,109.06Z"/>
      <path class="cls-2" d="M73.12136,102.06642c.22133-1.06179-.74441-1.96265-1.6182-2.42734a6.225,6.225,0,0,0-4.01817-.401c-1.75493.32712-3.54844.37049-5.33287.57271l-5.25358.59538a.6777.6777,0,1,0,.181,1.33725c2.69289-.42741,5.45343-.71976,8.10615-1.35067a10.62927,10.62927,0,0,1,4.40389-.24609,3.35039,3.35039,0,0,1,1.74773.89741,2.01839,2.01839,0,0,1,.2489.31621,5.8679,5.8679,0,0,0,.0792,1.05439,4.84852,4.84852,0,0,1,.02752,1.674,4.5705,4.5705,0,0,1-1.34124,2.65883,4.02333,4.02333,0,0,0-.59152.66275,19.88757,19.88757,0,0,0-2.60452-.047,11.9907,11.9907,0,0,0-2.44484.11748,10.50082,10.50082,0,0,0-2.21623-2.217,12.47433,12.47433,0,0,0-4.38891-2.16048c-.24031-.07191-.41349.30754-.17485.41477a16.94891,16.94891,0,0,1,3.93515,2.59547,14.70331,14.70331,0,0,1,1.56152,1.54329c.158.18.31.36553.46764.54384a.54935.54935,0,0,0,.36241.41566c.02321.00865.047.014.07032.0221a2.40066,2.40066,0,0,0,.62416.40427.15937.15937,0,0,0,.2364-.13566c.00025-.02517-.00382-.05-.00456-.07508a19.60207,19.60207,0,0,0,1.97179.0664,18.089,18.089,0,0,0,2.7462-.03172,1.33092,1.33092,0,0,0,1.675-.11823c.30082-.23633.01522-.63762-.27776-.67048l-.37015-.04153q-.51714.27374-.19236.08983c.11678-.10465.27989-.17576.40446-.27621a4.34306,4.34306,0,0,0,.726-.78077,5.56,5.56,0,0,0,1.08371-2.212,5.98927,5.98927,0,0,0,.01413-2.2417c-.017-.089-.0357-.17066-.05529-.25013A.46177.46177,0,0,0,73.12136,102.06642Z"/>
      <path class="cls-2" d="M98.76148,132.74794a18.26035,18.26035,0,0,0-3.14854.71147,12.82832,12.82832,0,0,1-3.83016.41633,7.65346,7.65346,0,0,1-3.06944-.86485,5.35272,5.35272,0,0,1-.90757-.63783c.07389-.02983.147-.061.21761-.09639a1.73223,1.73223,0,0,0,.813-.65441.34536.34536,0,0,0-.29392-.5122,1.73877,1.73877,0,0,0-.96966.3958,3.76374,3.76374,0,0,0-.39187.31881,8.25844,8.25844,0,0,0-.66754-.54183.1585.1585,0,0,0-.23075.17741,2.7369,2.7369,0,0,0,.46338.77087.263.263,0,0,0,.27092.4164c.03119-.01123.06337-.02148.09491-.03231a8.61152,8.61152,0,0,0,4.15459,1.68506,15.43164,15.43164,0,0,0,3.68214.03346,11.32151,11.32151,0,0,0,3.99347-.91895A.36048.36048,0,0,0,98.76148,132.74794Z"/>
      <path class="cls-2" d="M109.1151,127.11049c-.08485-.87265-.58086-1.91988-1.57367-1.93688a.34366.34366,0,0,0-.32824.43089c.24379.86308.67667,1.4666.42489,2.41754a3.57757,3.57757,0,0,1-2.51,2.19532c-1.72617.61536-4.75841.533-5.76333,2.32821a.32727.32727,0,0,0,.3647.4744,19.9169,19.9169,0,0,0,2.20432-.704c.76-.21355,1.54015-.33864,2.3097-.51041a7.62775,7.62775,0,0,0,3.6996-1.69437A3.754,3.754,0,0,0,109.1151,127.11049Z"/>
      <path class="cls-2" d="M94.8842,101.98925a23.9661,23.9661,0,0,1-5.30748-6.84094c-.38463-.79553-1.59173-.09783-1.19078.696.21374.42324.44637.84677.691,1.26776-.12656-.07914-.25039-.16051-.38-.23724a.34974.34974,0,0,0-.42266.02194c-.65738-.26111-1.323-.509-1.95513-.82031a29.62593,29.62593,0,0,1-3.23939-1.886,32.90129,32.90129,0,0,1-5.55742-4.714.72372.72372,0,0,0,.09705-.73609,1.27294,1.27294,0,0,0,.47791-.34282,18.63952,18.63952,0,0,0,6.74746,5.18936c.10662.04723.24627-.08937.13752-.17821a37.07006,37.07006,0,0,1-5.83653-5.916A45.9665,45.9665,0,0,1,74.87644,80.354c-.12358-.23826-.43129-.05731-.39881.16814a14.08511,14.08511,0,0,0,.34709,1.66947.27722.27722,0,0,0-.02311.02558,3.13,3.13,0,0,0-.29631.54507,2.81733,2.81733,0,0,0-.55264-.34545.76829.76829,0,0,0-.4123-.073,8.14944,8.14944,0,0,1-1.74328-2.34923.224.224,0,0,0-.11069-.11036q.23574-.40967.44573-.83742a.88169.88169,0,0,0-.01929-.88861.83871.83871,0,0,0-.48649-.61551.65752.65752,0,0,0-.18259-1.155q-1.19026-.35839-2.38057-.71681a.62435.62435,0,0,0-.39881.00255l-.01647-.00813a.85239.85239,0,0,0-1.1883-.71049c-.03313.01212-.06566.02094-.09849.03137-.51758-.29032-1.02435-.58247-1.51912-.82787Q63.14466,72.82042,60.469,71.442a.67517.67517,0,0,0-.3024-.0772.2699.2699,0,0,0,.04751-.13356c.09105-1.45619.81081-2.70425,1.1397-4.09467a.14158.14158,0,0,0-.20511-.15771c-1.63968.71614-1.87276,2.79186-1.46606,4.32431a.24535.24535,0,0,0,.13459.16647.8436.8436,0,0,0-.20977.19828,1.7677,1.7677,0,0,1-1.55017.67823.20818.20818,0,0,0,.05088-.15975,9.6604,9.6604,0,0,1,1.43666-5.52393.09673.09673,0,0,0-.13132-.13136A4.80328,4.80328,0,0,0,57.64533,72.249a.23091.23091,0,0,0,.032.05219,3.09005,3.09005,0,0,1-1.23438-.54039c-.03421-.02532-.06947.01639-.06412.04928a2.49928,2.49928,0,0,0,.16861.58787c-.0121.00362-.02469.00529-.0366.00968a27.00823,27.00823,0,0,0-3.80968,1.729c-1.03918.57958-2.54556,1.28727-3.16322,2.34014a.65336.65336,0,0,0,.72939.94879c1.0917-.25639,2.13038-1.219,3.12657-1.74712a23.73858,23.73858,0,0,1,2.80869-1.256.2048.2048,0,0,0,.1567-.03019.99636.99636,0,0,1,.1586-.083l.0053-.00191a1.61688,1.61688,0,0,1,1.31838.07658c.47543.27869.41334.73736.42009,1.20608a.74421.74421,0,0,0,.16028.46523c-.14427.047-.28917.09244-.43234.14161a11.46706,11.46706,0,0,0-4.90123,3.12337.28054.28054,0,0,0,.33846.43864,49.27748,49.27748,0,0,1,5.046-2.69356A14.52165,14.52165,0,0,1,61.17825,76.22c.69169-.15,1.49194-.09691,2.17293-.29956a8.51022,8.51022,0,0,0,1.74917,1.087,3.28282,3.28282,0,0,0,3.0318-.14121,8.82116,8.82116,0,0,0,2.61831.742,1.04826,1.04826,0,0,0-.26075.24788,6.46505,6.46505,0,0,1-2.61364,2.115,4.812,4.812,0,0,1-1.00412.25494,1.71443,1.71443,0,0,0-1.55042.20218,2.09872,2.09872,0,0,0-2.136-.56535.8783.8783,0,0,0-.73955.10314l-.1937.11316c-.01513.00882-.02732.02044-.04156.03011-1.26333.77095-2.65426,1.35816-3.92766,2.11823a24.15808,24.15808,0,0,0-3.79471,2.82339c-1.22306,1.10581-2.04325,2.49368-3.60046,3.1674-.98468.426-2.38364.75082-2.8066,1.86052-.088.23083.2.38849.38467.2957a16.58423,16.58423,0,0,1,1.89334-.99268c.55205-.19761,1.12165-.34555,1.66527-.56617A11.24817,11.24817,0,0,0,55.27309,86.31c.02847-.026.05817-.05.08679-.07564.7397-.15086,1.49065-.24628,2.22416-.4316.77738-.1964,1.52571-.48374,2.28113-.75083,1.573-.55617,3.19848-1.04985,4.72583-1.7238a2.44174,2.44174,0,0,0,.38057-.2098,1.48835,1.48835,0,0,1,.16231.33162c.13508.40983-.09735.71562-.08079,1.11843a.7519.7519,0,0,0,1.26651.52458.99721.99721,0,0,0,.2066-.24405.86729.86729,0,0,0,.65514-.15256,14.66778,14.66778,0,0,0,4.18594-4.28706,6.12141,6.12141,0,0,0,.36766,1.128,19.52539,19.52539,0,0,0,1.87405,6.018,12.253,12.253,0,0,0,4.6329,5.36288.22871.22871,0,0,0,.31049-.31048,32.4195,32.4195,0,0,0-1.96346-2.90928.59059.59059,0,0,0,.55334.07389A20.06068,20.06068,0,0,0,82.328,95.15422a21.50453,21.50453,0,0,0,4.8452,2.69484c-.28361-.04479-.56732-.08706-.84994-.12995a.58533.58533,0,0,0-.31094,1.12777,18.22878,18.22878,0,0,0,3.44722,1.13543.77737.77737,0,0,0,.82813-.33159c.12849.11939.258.23839.38983.357a10.12939,10.12939,0,0,0,1.56019,1.28939,14.21471,14.21471,0,0,0,2.05,1.72052C94.97188,103.48329,95.50116,102.25466,94.8842,101.98925Z"/>
      <path class="cls-2" d="M83.89269,98.50144a1.62686,1.62686,0,0,0-.85262-1.04166c-.38235-.25015-.82748-.6435-1.31163-.4957a.43792.43792,0,0,0-.31749.417c.05778.54813.546.78877.9649,1.07332a1.64392,1.64392,0,0,0,1.3279.37985A.27614.27614,0,0,0,83.89269,98.50144Z"/>
      <path class="cls-2" d="M102.82934,120.5928c-1.3042-2.35944-2.7236-4.65-4.02095-7.015-1.29432-2.35934-2.45456-4.78929-3.6555-7.19623-.14907-.29873-.60442-.08692-.52646.222a31.36855,31.36855,0,0,0,3.69538,8.70262,28.99391,28.99391,0,0,1-2.13173-2.74576,36.12211,36.12211,0,0,1-2.31768-3.86259c-.50216-.98318-.89592-2.13084-1.487-3.10155a.39726.39726,0,0,0,.043-.12215c.1646-1.07644-.80342-1.59677-1.52438-2.25836-.87815-.80588-1.74659-1.62391-2.64707-2.40481a.77553.77553,0,0,0-1.21394.19.47428.47428,0,0,0-.32844.65938,9.88511,9.88511,0,0,0,3.99684,4.67507.78487.78487,0,0,0,.43378.12914,14.21461,14.21461,0,0,0,1.0666,3.01819,24.65406,24.65406,0,0,0,2.41806,4.36177A27.99133,27.99133,0,0,0,97.668,117.5083a19.78054,19.78054,0,0,0,1.877,1.724,18.36344,18.36344,0,0,0-.28669,2.27354,6.37239,6.37239,0,0,1-1.2369,2.52353,10.74958,10.74958,0,0,1-4.49806,2.90669c-1.59668.64831-3.2551,1.13026-4.84648,1.79288a16.20661,16.20661,0,0,0-2.30053,1.06068.95929.95929,0,0,0-1.17219-1.115q-.20195.04347-.40024.098a6.35351,6.35351,0,0,1-.71025-2.66978,15.42293,15.42293,0,0,1,.02728-2.12366c.36147-.31568.72016-.63415,1.0674-.96318a2.14057,2.14057,0,0,0,.74267-2.38032c-.78036-1.926-3.58047-.6832-2.87985.97717q-.13345.11444-.26725.2285a4.11356,4.11356,0,0,0-4.72617-1.95847,1.15513,1.15513,0,0,0-.68307.54276,10.07237,10.07237,0,0,0-4.6322.68267c-.122-.306-.259-.60162-.40878-.89007q-.29406-.80991-.66085-1.5998a1.07574,1.07574,0,0,0,.32249-.04833c.5031.58338,1.68748.10052,1.79926-.75242a1.26,1.26,0,0,1,.08986-.31381c-.00744.07-.01508.14011-.01741.2106a1.01565,1.01565,0,0,0,1.51189.8676,1.70623,1.70623,0,0,0,.93092-1.733.53767.53767,0,0,1,.3882.02264.73791.73791,0,0,1,.2783.90391c-.37213,1.231,1.42694,1.655,1.88258.519a3.65453,3.65453,0,0,1,1.82783-2.02045.95911.95911,0,0,0,.22588-1.72811l-.19811-.10154a.912.912,0,0,0-.92855,0,1.47668,1.47668,0,0,0-.48321.52125l-.00258.00624q-.2916.2026-.55894.42122c-.11669-.74125-.28768-1.47646-.4425-2.21018,1.21151-.56188,2.33638-1.55742,1.79172-3.04078a.98889.98889,0,0,0-1.93251.26154c-.04468.836-1.6436,1.17384-2.243,1.41459-.10131.04069-.73424.31737-1.3701.60053a3.085,3.085,0,0,0-2.09557-.10647c-.01091.00411-.01959.01-.03025.01431q-.18768-.03364-.37793-.063a1.41573,1.41573,0,0,0-.48917-.67363c-1.19975-.92668-2.39068.10882-2.94506,1.17525a.93473.93473,0,0,0-.11109.54246c-.02449.046-.04959.09156-.07151.13963-.75814-.96175-1.55864-1.86834-2.36708-2.70568a28.452,28.452,0,0,0-12.043-7.49265c.33628.02552.67206.05584,1.00695.09319.85138.095.83362-1.22258,0-1.32666a22.862,22.862,0,0,0-3.95355-.15943.3108.3108,0,0,0-.39266-.30878.68094.68094,0,0,1-.5889-.14207.67035.67035,0,0,0-.14371-.201,1.20356,1.20356,0,0,0-.35874-.2283,1.8279,1.8279,0,0,0-.52026-.37537,2.02327,2.02327,0,0,0-1.55562.15934,9.56509,9.56509,0,0,0-1.87306,1.37141c-.52928.4368-1.0546.75411-1.1396,1.46609-.00719.06066.05425.09887.10474.10473a1.37812,1.37812,0,0,0,.77322-.1391.43351.43351,0,0,0,.28148.1753c1.4915.18264,3.14665-.41707,4.647-.51559.82628-.05427,1.65569-.06567,2.48392-.03991a.12593.12593,0,0,0,.02568.01836,38.35892,38.35892,0,0,1,12.06809,8.50549,35.87142,35.87142,0,0,1,4.11328,5.24622.38415.38415,0,0,0,.05306.22062c.42445.76415.83606,1.54923,1.19267,2.35134.144.55969.28653,1.1198.44374,1.67533.22569.79776.35358,1.72846.60451,2.5846a33.22681,33.22681,0,0,1,.11743,3.695.85678.85678,0,0,0,.01191.16338,18.58971,18.58971,0,0,1-.35765,2.22322,31.27809,31.27809,0,0,1-1.77893,4.92c-.30172.73246.78294,1.02983,1.18051.49768a9.9915,9.9915,0,0,0,1.0675-1.81656,4.6003,4.6003,0,0,0,2.7711.02849,5.14962,5.14962,0,0,0,1.31128-.52706,5.18675,5.18675,0,0,0,.82867,1.80863,3.45767,3.45767,0,0,0,.63467.73954,1.16451,1.16451,0,0,0,1.85138-1.34736,1.41827,1.41827,0,0,0-.00431-.36644,4.82947,4.82947,0,0,0-.8558-2.13233l-.0482-.1201a1.11112,1.11112,0,0,0-.542-.59586,1.31586,1.31586,0,0,0-.10246-.09152,1.00985,1.00985,0,0,0-1.74639-.142A3.73166,3.73166,0,0,1,73.552,131.9115a6.24855,6.24855,0,0,1-1.46551.08174,13.62358,13.62358,0,0,0,.576-3.82018,1.19824,1.19824,0,0,0,.46124-.45162c.59673.0486,1.19475.09638,1.78712.17221.81765.21921,1.63333.46034,2.47186.60394a1.2485,1.2485,0,0,0,.87623-.15625,4.908,4.908,0,0,0,2.20442.72157c1.56306.11775,1.54347-2.29441,0-2.4279a5.00207,5.00207,0,0,1-2.185-1.13935,5.86308,5.86308,0,0,0-2.355-1.0963,3.04044,3.04044,0,0,0-2.38047.62883,12.22335,12.22335,0,0,0-.26294-2.10771,11.11863,11.11863,0,0,0-.28891-1.11545c1.32666-.17321,3.05967-.35956,4.22079.2196a9.50731,9.50731,0,0,1,2.93,2.73864.95269.95269,0,0,0,.79648.36911,1.29966,1.29966,0,0,0,1.80016.04989c.09427-.08336.18988-.16576.28485-.24861a9.90353,9.90353,0,0,0,.57654,4.28063c-.01993.00917-.03937.01931-.05921.02862a4.44128,4.44128,0,0,0-3.77581,3.27838c-.22465.86749.99718,1.75856,1.62981.94872a8.56751,8.56751,0,0,1,3.99734-2.83017,1.42537,1.42537,0,0,0-.24974.56032.133.133,0,0,0,.12625.16573c.7822.01537,1.53753-.70377,2.22163-1.03856a24.209,24.209,0,0,1,2.90763-1.16668,32.35654,32.35654,0,0,0,5.58529-2.12185,9.637,9.637,0,0,0,3.81207-3.63044,5.45537,5.45537,0,0,0,.73846-3.52422,3.9995,3.9995,0,0,0,.91887.36814.56206.56206,0,0,0,.56385-.17521c.21314.21846.42862.43378.64855.64265A.10517.10517,0,0,0,102.82934,120.5928Z"/>
      <path class="cls-2" d="M102.50144,114.88082a25.05788,25.05788,0,0,0-3.35583-7.55884.342.342,0,0,0-.62217.2623,25.16929,25.16929,0,0,0,3.3718,7.5521A.33334.33334,0,0,0,102.50144,114.88082Z"/>
      <path class="cls-2" d="M105.427,121.59483a.08573.08573,0,0,0,.07484-.06763,20.00786,20.00786,0,0,0,.91391-5.04783,15.45407,15.45407,0,0,0-1.03412-5.25748,17.09116,17.09116,0,0,0-6.21946-8.01817c-.167-.12292-.37789.15115-.22212.28786a19.48535,19.48535,0,0,1,5.24331,8.21478,24.0464,24.0464,0,0,1,1.032,4.773,16.70711,16.70711,0,0,1,.14079,4.71875,5.6156,5.6156,0,0,0-.6131-1.75053.53736.53736,0,0,0-.99216.26871,21.97409,21.97409,0,0,0,.37783,4.11743,15.18071,15.18071,0,0,1,.10022,1.78074c-.00877.243.01141.54328-.16558.6906-.45961-.27913-.925-.54538-1.40561-.80058a.854.854,0,0,0-1.03035,1.3354c.15591.15113.31564.30048.48078.44069a.61164.61164,0,0,0,.13429.13806,9.02576,9.02576,0,0,0,2.0075,1.04145c.7095.29481,1.16762-.43689,1.04493-1.05023a2.28844,2.28844,0,0,0,.48575-1.03656,10.68778,10.68778,0,0,0-.15845-3.29338C105.5621,122.60162,105.50844,122.09656,105.427,121.59483Z"/>
      <path class="cls-2" d="M113.51819,85.99491a24.71288,24.71288,0,0,0-5.79833-2.99007c-.92577-.39291-1.85253-.78712-2.79143-1.14773-.4793-.18411-1.02946-.44762-1.58841-.65a4.00177,4.00177,0,0,0-.27691-1.33572.44485.44485,0,0,0-.05931-.10165c.00134-.09465.00307-.18983.00664-.28627.02847-.7717.09492-1.53706.17709-2.30493a46.34652,46.34652,0,0,1,.8315-5.37164c.37108-1.63073.84-3.236,1.24324-4.85829.20184-.8122.38319-1.63291.54635-2.45363.18091-.90993.20575-1.79744.344-2.7088a.21652.21652,0,0,0-.01408-.10817c.09343-.355.181-.71139.25455-1.07079.14287-.69746.51208-1.64939-.025-2.23176a.21269.21269,0,0,0-.25385-.03276c-.62882.35909-.59123,1.14569-.74937,1.79546-.22584.9278-.48679,1.84828-.80174,2.74992-.61136,1.75022-1.79877,3.43054-2.05258,5.27833-.0182.13263.11615.295.25649.19713a4.39132,4.39132,0,0,0,.71-.62688c-.26218,1.23889-.452,2.4965-.64056,3.74423-.25976,1.71854-.56321,3.43077-.79892,5.15289-.12174.88968-.22816,1.781-.354,2.67011-.06308.4456-.16637.90248-.19072,1.3533a7.46191,7.46191,0,0,0-2.2498-1.30161,6.95,6.95,0,0,0-3.19292-.83379.4317.4317,0,0,0-.21587.797,24.99634,24.99634,0,0,0,2.826,1.38372,9.71776,9.71776,0,0,0,2.64931,1.36512.62712.62712,0,0,0,.54818-.16737.70227.70227,0,0,0,.06432.03617c-.05153.33019-.10905.65894-.19.9814a10.79123,10.79123,0,0,1-.59782,1.73539.80922.80922,0,0,0-.37238-.535,1.20612,1.20612,0,0,0-.38482-.242c-.16-.06391-.3216-.12585-.48267-.18845a2.51037,2.51037,0,0,0-.08153-.45684,1.753,1.753,0,0,0-.47434-.84113.86731.86731,0,0,0-1.34342.17311,1.48491,1.48491,0,0,0-.1512.35524q-.37737-.13839-.755-.277a2.40891,2.40891,0,0,0-.38111-1.13628.75118.75118,0,0,0-1.28118,0,2.09811,2.09811,0,0,0-.17084.44121c-.09859-.03882-.19846-.07528-.2967-.11467a15.68052,15.68052,0,0,0-.39683-1.545.62466.62466,0,0,0-1.1951,0c-.04756.18453-.10821.38494-.169.59347a1.41075,1.41075,0,0,0-.71421-.09063c-.03561.00479-.07018.01138-.10469.0182.05782-.471.0912-.94926.14843-1.40213a3.54771,3.54771,0,0,0-.184-1.98242,1.65669,1.65669,0,0,0-2.33137-.79327c-.13707.06631-.03888.27391.10092.23929.805-.19939,1.25926.73956,1.342,1.35942a6.39006,6.39006,0,0,1-.1272,1.7027,3.70622,3.70622,0,0,0-.009,1.29066.75312.75312,0,0,0-.24577,1.38288c.0609.03566.12249.06973.18358.10489l.017.01482a15.31642,15.31642,0,0,0,4.937,2.36163.71822.71822,0,0,0,.47107-.02466q1.12331.33805,2.28094.56892c.53529.33266,1.08441.6386,1.6427.92636a.49638.49638,0,0,0,.0731.03815,35.75131,35.75131,0,0,0,3.33148,1.474,27.95241,27.95241,0,0,0,4.32484,1.49157,2.17522,2.17522,0,0,0,1.7333,1.01641,2.38956,2.38956,0,0,0,1.97715-.76092,2.7913,2.7913,0,0,0,.57317-1.96446c-.04294-.552-.16524-1.29771-.75586-1.49193a.07022.07022,0,0,0-.08838.06733c.04067.44259.31486.80042.33321,1.25226a1.72893,1.72893,0,0,1-.65227,1.4247,2.43671,2.43671,0,0,1-1.97006.44626,17.45489,17.45489,0,0,0-2.33861-.99079c-.94843-.39218-1.89924-.78369-2.8382-1.198-.95309-.42052-1.89691-.86177-2.84311-1.29769a9.3237,9.3237,0,0,0,1.76678-3.62377c.23288.08265.46338.16332.67722.25041,1.063.43292,2.134.84551,3.19684,1.27883a38.503,38.503,0,0,0,6.21678,2.3616C113.4989,86.36864,113.68879,86.129,113.51819,85.99491Z"/>
      <path class="cls-2" d="M111.25069,87.17734a.66515.66515,0,0,0-.56836-.32229l.00044-.00343c-.00957.00054-.01765.003-.02707.00374a.62292.62292,0,0,0-.14773.01974c-.00863.00237-.01726.00687-.02589.00974a1.305,1.305,0,0,0-.75666.703,3.59427,3.59427,0,0,0-.47092.91845.80054.80054,0,0,0,1.32751.77277,3.47944,3.47944,0,0,0,.52824-.88176A1.21085,1.21085,0,0,0,111.25069,87.17734Z"/>
      <path class="cls-2" d="M104.37677,16.19667a8.69872,8.69872,0,0,0-1.31069-2.81018.9476.9476,0,0,0-1.278-.3351A35.1704,35.1704,0,0,0,98.68427,15.441a15.76489,15.76489,0,0,0-4.32985,6.10021.78.78,0,0,0-.00615.64715l-.01374.02844a.37379.37379,0,0,0,.466.51816,4.30478,4.30478,0,0,0,1.03313.56488,7.21719,7.21719,0,0,1,2.03026,1.62037.65.65,0,0,0,1.01151-.13034c.8003-1.31886,1.641-2.62072,2.53187-3.88031q.69962-.989,1.45084-1.93966a4.89931,4.89931,0,0,0,1.05614-1.51573A1.17816,1.17816,0,0,0,104.37677,16.19667Z"/>
      <path class="cls-2" d="M107.88376,32.87418c-.01746.05965-.0374.119-.05624.17855a1.80525,1.80525,0,0,0-.53053-.4009c-.50553-.25743-1.3329-.42426-.79752-1.15424.3579-.488,1.01171-.39876,1.50722-.61788a1.14215,1.14215,0,0,0,.26125-2.0146,2.989,2.989,0,0,0-1.59768-.057c-.2426.01841-.48535.032-.72814.04353.09665-.0852.19286-.17105.29234-.25248A6.97155,6.97155,0,0,0,107.802,27.3234a.48338.48338,0,0,0,.04562-.08526.57691.57691,0,0,0,.29061-.47634c.07334-1.18266-.81617-2.62077-1.29165-3.69759-.59118-1.3387-1.159-2.68423-1.73242-4.03035-.21289-.49983-.88306-.34885-1.1337,0-1.19936,1.66912-2.43313,3.32041-3.57031,5.033q-.82992,1.25-1.58418,2.54665a3.96694,3.96694,0,0,0-.79033,1.79609.324.324,0,0,0,.00123.056,1.4857,1.4857,0,0,0,.019.22436.16605.16605,0,0,0,.204.11582c.03163-.013.058-.03052.08787-.045a.309.309,0,0,0,.09155-.01273c.41492-.1232.69214-.50246,1.08535-.61872a.83848.83848,0,0,1,1.01651.50022,2.43349,2.43349,0,0,1-.07766,1.13306,22.4036,22.4036,0,0,0-.49209,2.67366,5.17217,5.17217,0,0,0,1.79193,4.62633c3.0802,2.28331,7.23469-.26362,7.85408-3.71048A.89977.89977,0,0,0,107.88376,32.87418Zm-2.59441-2.569c-.049.05579-.09169.11578-.13533.17517q-.03758-.07872-.07464-.1576C105.14965,30.31678,105.21863,30.31115,105.28935,30.3052Z"/>
      <path class="cls-2" d="M121.01423,8.03831a.95955.95955,0,0,0-1.13038-.11879.62723.62723,0,0,0-.553.0334,2.82551,2.82551,0,0,0-1.01195,1.71233c-.11644.34166-.24067.67532-.37109,1.00642a76.59228,76.59228,0,0,0-12.85713-.01538.69987.69987,0,0,0-.33841,1.27481c.18686.6767.406,1.344.596,2.0207a13.35857,13.35857,0,0,0,.68659,2.34159.56045.56045,0,0,0,.65064.58374,31.15362,31.15362,0,0,0,3.094-1.114,31.65015,31.65015,0,0,1,3.19263-.8568,29.89294,29.89294,0,0,1,6.74488-.6019.63863.63863,0,0,0,.66467-.50128,1.20415,1.20415,0,0,0,.67047-.57208,6.01209,6.01209,0,0,0,.7024-2.7162A3.15134,3.15134,0,0,0,121.01423,8.03831Z"/>
      <path class="cls-2" d="M124.32081,21.26869a3.81217,3.81217,0,0,0-.27815-2.55431,2.91809,2.91809,0,0,0-3.84872-1.36027c-1.6122-.04888-3.30762.20773-4.90207.31686a26.042,26.042,0,0,0-3.60012.29455c-.21854-.5668-.46456-1.11776-1.026-1.308a.7627.7627,0,0,0-.90722-.35669,23.49332,23.49332,0,0,0-2.28967.70677.77085.77085,0,0,0-.44781.81226,7.67924,7.67924,0,0,0,.45267,2.12364c.22742.82383.43813,1.65151.64309,2.48114.18919.76552.38736,1.5288.56867,2.29629a3.48119,3.48119,0,0,0,.4354,1.3843.639.639,0,0,0,.45649.82255,33.25764,33.25764,0,0,0,5.99263.20824l3.00721-.01631c.105-.00057.34138-.0283.59509-.04931a8.052,8.052,0,0,0,.82867,2.58727.67622.67622,0,0,0,.27106.29156c-.22063.39326-.44533.78482-.64384,1.192a.46685.46685,0,0,0,.63293.6329,5.12043,5.12043,0,0,0,2.53792-3.20905,11.59751,11.59751,0,0,0,1.51868-6.38977C124.31258,21.89776,124.31942,21.58941,124.32081,21.26869Zm-14.66665-3.18357c-.00938-.01482-.01751-.03034-.02713-.045l.17-.02938.02177.09044A.898.898,0,0,0,109.65416,18.08512Z"/>
      <path class="cls-2" d="M122.37932,15.67621a9.813,9.813,0,0,1-2.791.22146c-.8551.03537-1.70777.087-2.56168.14378-1.59792.10616-3.16411.25751-4.74542.5058-.0727.01142-.04721.11422.01627.12,1.64722.15055,3.27192.19454,4.92623.1971.78889.00123,1.5759-.00418,2.3646-.02272a9.868,9.868,0,0,1,2.791.02968l-.0052-.0068C123.402,17.19349,123.32512,15.32721,122.37932,15.67621Z"/>
      <path class="cls-2" d="M119.4226,29.34927c-.06218-.06977-.12328-.13169-.18735-.19143a1.0225,1.0225,0,0,0-.83521-.92931,12.68638,12.68638,0,0,0-3.591-.19291c-1.22619-.01362-2.44866-.00536-3.67465.01825a1.06549,1.06549,0,0,0,0,2.12963c1.22485.09735,2.44737.17925,3.67465.23954.81394.04,1.6978.16758,2.54382.14072l.00422.00858a2.46365,2.46365,0,0,0,.16018.24712,1.34977,1.34977,0,0,0,.725.55754,1.16927,1.16927,0,0,0,1.05758-.21716,1.14914,1.14914,0,0,0,.45643-.79145A1.21968,1.21968,0,0,0,119.4226,29.34927Z"/>
      <path class="cls-2" d="M118.07353,33.54362c-.38681-1.43792-2.02094-2.01764-3.28714-2.42716-1.25848-.407-2.8445-.70854-3.85169.39826a2.03865,2.03865,0,0,0-.08887,2.62192.58225.58225,0,0,0,.29214.276c.02078.01554.04131.03133.063.04607a.89153.89153,0,0,0,.78022.78468,30.33948,30.33948,0,0,0,3.8319.39336c.01483.13164.03486.263.05762.39552-.02881.1057-.05534.212-.07572.31974a.46019.46019,0,0,0,.6667.51253A2.8677,2.8677,0,0,0,118.07353,33.54362Z"/>
      <path class="cls-2" d="M111.893,37.4028a1.82341,1.82341,0,0,0-1.00259-.37238c-.41026-.09415-.82876-.13555-1.246-.18957-.5221-.0676-.51714.75347,0,.82043a11.21522,11.21522,0,0,0,1.226.122,1.68034,1.68034,0,0,0,.98716-.10633A.17744.17744,0,0,0,111.893,37.4028Z"/>
      <path class="cls-2" d="M115.88359,48.43927a3.71475,3.71475,0,0,0-1.30415,1.919,1.15523,1.15523,0,0,0,.16742.80833,1.5607,1.5607,0,0,1-.12794.1467,9.21726,9.21726,0,0,1-1.33866-.93866q-.57152-.4-1.14308-.7999a3.39538,3.39538,0,0,0-3.99287-4.09389,1.72055,1.72055,0,0,0-.885.52994,1.06608,1.06608,0,0,0-.35313.18282,1.05389,1.05389,0,0,0-.10583,1.56081,3.42048,3.42048,0,0,0,1.54818,1.10917c1.75354,1.22987,3.53376,2.431,5.34736,3.5672a1.478,1.478,0,0,0,1.97338-.0325,14.18486,14.18486,0,0,0,2.05708-2.53717C118.49337,48.75191,116.80256,47.50392,115.88359,48.43927Z"/>
    </g>
  </g>
</svg>
