<svg id="ger_berlin_pilot_fighter_2_icon" xmlns="http://www.w3.org/2000/svg" width="150" height="150" viewBox="0 0 150 150">
  <defs>
    <style>
      .cls-1 {
        fill: #f8f8f8;
      }

      .cls-1, .cls-2, .cls-3, .cls-4, .cls-5, .cls-6 {
        fill-rule: evenodd;
      }

      .cls-2 {
        fill: #f1ce37;
      }

      .cls-3 {
        fill: #2c2c2c;
      }

      .cls-4 {
        fill: #ca2c2c;
      }

      .cls-5 {
        fill: #fff;
      }

      .cls-6 {
        fill: #cc3130;
      }
    </style>
  </defs>
  <path class="cls-1" d="M146.7,76A72.695,72.695,0,1,1,74,3.305,72.7,72.7,0,0,1,146.7,76Z"/>
  <path class="cls-2" d="M142.611,76A68.611,68.611,0,1,1,74,7.389,68.611,68.611,0,0,1,142.611,76Z"/>
  <path class="cls-3" d="M74,149.648A73.648,73.648,0,0,1,21.923,23.923,73.648,73.648,0,1,1,126.077,128.077,73.167,73.167,0,0,1,74,149.648ZM74,4.258A71.742,71.742,0,1,0,145.742,76,71.823,71.823,0,0,0,74,4.258Z"/>
  <path class="cls-4" d="M108.45,120.969s-20.965,7.9-24.64,8.44-24.231,11.3-24.231,11.3l-12.933,4.628s-1.634-2.178-1.089-3.131a3.784,3.784,0,0,1,2.587-1.769c0.953-.136,3.812-2.723,4.492-3.131s2.587-2.178,2.995-2.451S59.85,129,59.85,129l4.356-3s0.272-2.859-.681-4.084a11.58,11.58,0,0,0-3.462-1.857l0.025,0.041-0.871.234a39.465,39.465,0,0,0-6.605,2.223,10.428,10.428,0,0,1-1.08.58c-1.883.932-5.8,2.873-11.6,8.987-1.182,1.247-5.651,4.37-9.7,4.7-0.168.013-.347,0.02-0.531,0.02-0.8,0-7.961-.245-11.453-8.744l-0.342-.832,0.893-.1a39.654,39.654,0,0,0,7.056-1.459c10.629-3.962,15.639-6.924,18.047-8.348,0.3-.178.558-0.33,0.776-0.454a27.844,27.844,0,0,1,6.036-2.593,14.317,14.317,0,0,0-1.351-2.064c-0.817-.816-3.131-8.3-3.131-8.3a6.117,6.117,0,0,0-2.723.272,27.4,27.4,0,0,1-5.037.137,6.582,6.582,0,0,0-3.267.408,42.309,42.309,0,0,0-4.356,2.178s-5.445,2.314-7.215,1.089-0.68-2.586-.68-2.586,0.272-4.22,1.089-5.854,6.126-4.629,6.126-4.629l17.153-2.178,39.751-6.126s10.21,2.45,13.613,4.22,6.807,9.393,8.168,12.8S108.45,120.969,108.45,120.969Z"/>
  <path class="cls-5" d="M62.791,118.609l-0.487-.974,2.723-1.362c3.856-1.714,9.874-2.838,13.469-3.509,1.074-.2,1.922-0.359,2.441-0.482,1.743-.41,4.66.475,6.59,1.06a12.574,12.574,0,0,0,1.567.423v1.09a8.69,8.69,0,0,1-1.883-.471c-1.708-.517-4.566-1.385-6.024-1.041-0.544.128-1.4,0.288-2.49,0.491-3.549.663-9.488,1.772-13.2,3.424Zm-4.212-6.353-0.231-1.065c0.063-.013,6.295-1.367,8.456-1.772,1.639-.308,5.945-0.606,8.794-0.8,0.984-.068,1.762-0.122,2.148-0.158,1.915-.173,8.641-1.278,9.653-2.065l0.669,0.86c-1.507,1.171-9.525,2.227-10.223,2.29-0.4.036-1.181,0.09-2.171,0.159-2.653.184-7.092,0.491-8.669,0.787C64.858,110.891,58.642,112.242,58.579,112.256ZM55.4,114.3c0.226,0,.344.01,0.344,0.01l3.267,5.445s-5.581,1.5-6.807,2.314-5.574,2.05-12.8,9.666c-1.192,1.257-5.483,4.182-9.257,4.492-0.147.012-.306,0.019-0.475,0.019-2.709,0-8.083-1.653-10.824-8.323a40.137,40.137,0,0,0,7.215-1.5c12.032-4.485,17-7.752,18.922-8.849,5.317-3.028,9.26-3.277,10.411-3.277m0-1.361h0c-1.509,0-5.609.337-11.084,3.455-0.221.126-.481,0.28-0.786,0.46-2.391,1.414-7.367,4.356-17.938,8.3a38.973,38.973,0,0,1-6.9,1.421l-1.786.206,0.683,1.663a14.989,14.989,0,0,0,5.969,7.305,11.951,11.951,0,0,0,6.114,1.862c0.2,0,.4-0.008.587-0.023,4.144-.34,8.716-3.418,10.133-4.912,5.715-6.026,9.561-7.931,11.409-8.846a11,11,0,0,0,1.155-.624,40.3,40.3,0,0,1,6.4-2.132L61.1,120.6l-0.928-1.547-3.267-5.445-0.36-.6-0.7-.057c-0.04,0-.193-0.014-0.454-0.014h0Z"/>
  <path class="cls-3" d="M140.06,66.609c2.122,1.236,9.082,5.894,8.91,13.547l-0.029,1.3-1.232-.421c-1.388-.474-5.347-1.706-6.975-1.706a1.747,1.747,0,0,0-.251.015,2.706,2.706,0,0,0-1.752.717,0.424,0.424,0,0,0,.044.081,4.807,4.807,0,0,0,1.636.675,13.883,13.883,0,0,1,4.5,2.094c2.194,1.645,4.289,5.365,2.975,10.432L147.407,95.2l-1.189-1.509c-1.224-1.553-3.723-4.168-5.217-4.57a7.1,7.1,0,0,0-1.789-.283c-0.9,0-.909.276-0.913,0.394,0.007,0.859,3.037,3.969,4.792,5.285a7.96,7.96,0,0,1,2.694,8.68l-0.561,1.724-1.1-1.44c-1.3-1.7-3.861-4.573-5.182-5.033a1.831,1.831,0,0,0-.591-0.114,0.689,0.689,0,0,0-.609.291,0.843,0.843,0,0,0-.133.684c0.213,0.587,1.55,2.895,2.527,4.579,0.549,0.949,1.068,1.844,1.406,2.458,1.269,2.308.036,5.711-1.011,6.968l-0.986,1.183-0.619-1.411c-0.794-1.811-2.3-4.591-3.153-5.1a1.326,1.326,0,0,0-.645-0.212,1.017,1.017,0,0,0-.838.941,5.24,5.24,0,0,0,.48,1.429,10.139,10.139,0,0,1,.868,6.888l-0.379,1.421-1.143-.926A12.866,12.866,0,0,0,130.4,115.2a0.369,0.369,0,0,0-.277.076,0.63,0.63,0,0,0,.081.525c0.029,0.055,2.814,5.709,2.456,7.859-0.339,2.034-1.3,3.065-2.846,3.065-0.229,0-.593-0.038-1.143-0.095a45.308,45.308,0,0,0-4.755-.3,16.2,16.2,0,0,0-5.822.871c-4.581,1.814-4.231,2.98-3.975,3.832,0.374,1.248,2.188,2.9,2.856,3.43l1.439,1.144-1.764.517a23.307,23.307,0,0,1-6.011.651,36.608,36.608,0,0,1-4.26-.257,101.39,101.39,0,0,0-10.829-.752,9.59,9.59,0,0,0-3.336.3,8.824,8.824,0,0,0-3.358,2.963l-0.712,1.71-0.977-1.574c-0.394-.63-1.718-2.322-3.075-2.558a1.761,1.761,0,0,0-.309-0.028c-1.2,0-1.838,1.414-1.945,2.059l-0.149.894-0.9-.1a26.5,26.5,0,0,0-2.69-.118c-3.3,0-9.631.481-14.947,3.707l-0.906.55-0.673-1.431a37.9,37.9,0,0,1-6.452,4.125,13.261,13.261,0,0,1-4.679.718,12.44,12.44,0,0,1-3.782-.457,1.857,1.857,0,0,1-1.132-2.061,1.487,1.487,0,0,1,.106-0.278,3.161,3.161,0,0,1-.427-1.763,1.6,1.6,0,0,1-.6-0.21l-0.087-.054-0.052-.089c-0.675-1.159-2.236-3.941-2.164-4.734a3.6,3.6,0,0,1,1.786-2.042,1.3,1.3,0,0,1,1.185-.193,7.284,7.284,0,0,1,1.781,1.86c0.139,0.176.272,0.344,0.394,0.493a3.731,3.731,0,0,1,1.113,2.233,1.69,1.69,0,0,1-.055.3,8.394,8.394,0,0,0,.954-0.607c-0.007-.009-0.019-0.015-0.025-0.025a3.244,3.244,0,0,1-.228-1.335,4.82,4.82,0,0,0-.081-0.787A2.966,2.966,0,0,0,48,136.112a1.363,1.363,0,0,1-.754-1,0.974,0.974,0,0,1,.217-0.891,15.21,15.21,0,0,1,2-1.227l0.043-.02c0.569-.229,1.77.308,2.526,1.366a19.366,19.366,0,0,1,1.276,2.092c0.2-.166.412-0.344,0.625-0.527a2.385,2.385,0,0,1-.355-0.729l-0.02-.06a13.381,13.381,0,0,0-1.467-2.087,0.811,0.811,0,0,1-.215-0.685,1.569,1.569,0,0,1,.55-1.033c0.079-.053.289-0.193,2.5-0.407l0.081-.007,0.056,0.017c-0.19-.188-0.347-0.349-0.417-0.437a1.551,1.551,0,0,1-.137-1.337,3.771,3.771,0,0,1,1.474-1.669c0.11-.081.208-0.153,0.286-0.218s0.175-.15.307-0.266a7.877,7.877,0,0,1,2.626-1.867,13.4,13.4,0,0,1,3.824.44,1.837,1.837,0,0,1,.592.5l0.284-.2a43.13,43.13,0,0,1-6.675-6.637l-0.028-.01q-0.337-.413-0.662-0.822h0c-0.286-.354-0.569-0.731-0.853-1.1-1.691-2.212-2.925-4.048-2.925-4.048H52.738a69.787,69.787,0,0,1-4.271-7.236,1.741,1.741,0,0,1-.436.286,62.842,62.842,0,0,0,3.828,6.95H51.823a31.209,31.209,0,0,0-6.239,2.672,63.373,63.373,0,0,1-5.458-8.562l-0.753.125-0.032,0H39.309c-1.448,0-1.634-.364-1.634-0.681a5.462,5.462,0,0,0-.441-1.468,4.415,4.415,0,0,1-.248-0.757,9.97,9.97,0,0,0-1.171.273c0.048,0.306.126,0.735,0.2,1.143,0.138,0.748.293,1.6,0.363,2.191a1.1,1.1,0,0,1-.888,1.488,2.226,2.226,0,0,0-.424.15,14.192,14.192,0,0,1-3.384,1.057,0.541,0.541,0,0,1-.292-0.062,6.026,6.026,0,0,1-.848-0.936c-0.249-.3-0.506-0.611-0.643-0.748-0.249-.25-0.657-0.657-0.995-1.024,0,0.068,0,.135,0,0.2,0,0.147-.008.3-0.008,0.464a5.771,5.771,0,0,0,.39,1.658,8.048,8.048,0,0,1,.354,1.275,1.242,1.242,0,0,1-.953,1.525c-0.058.022-.117,0.045-0.174,0.069a13.054,13.054,0,0,1-2.679.782c-0.218,0-.8,0-2.067-2.54a14.1,14.1,0,0,1-.857-3.538l0-.048a0.916,0.916,0,0,1,.032-0.208,2.031,2.031,0,0,1-.564-1.085,1.957,1.957,0,0,1,.313-1.331,4.092,4.092,0,0,1-3.145-1.554c-1.233-1.479-3.527-4.232-4.75-4.965a9.328,9.328,0,0,1-3.722-6.594c-0.427-3.307,2.457-6.1,3.921-6.939a5.777,5.777,0,0,1,2.731-.574c0.673,0,2.277.075,2.893,0.758a12.4,12.4,0,0,1,3.629-2.86,3.814,3.814,0,0,1,1.56-.328,5.849,5.849,0,0,1,2.967.973L28.84,83.3a5.792,5.792,0,0,0,1.9.71h0C31.5,83.771,39.363,80.8,43.36,79.2a48.547,48.547,0,0,1,4.991-16.52,0.734,0.734,0,0,1,1.377.331h0a19.347,19.347,0,0,0,2.963,9.124,7.4,7.4,0,0,1,1.969-2.04,59.642,59.642,0,0,1,6.38-3.18A30.862,30.862,0,0,1,65.8,57.746C69.247,53.079,75.7,46.859,86.9,43.622a8.4,8.4,0,0,0,1.314-3.914l0.2-1.532,2.738,1.858c0.28-1.806.041-5.771-5.138-11.255l-0.753-.8,3.022-2.144c-0.674-1-2.473-2.853-6.557-2.853a18.214,18.214,0,0,0-4.148.532l-1.354.32,0.879-6.35a22.24,22.24,0,0,0-2.712-.16,24.468,24.468,0,0,0-14.968,5.021l-2.316,1.771,0.823-2.8a26.918,26.918,0,0,1,4.278-8.028,19.727,19.727,0,0,1,14.3-8.019l-1.6-2.6,0.95-.46a10.784,10.784,0,0,1,4.39-.755c2.5,0,6.489.591,11.686,3.291L92.417,1.02l0.935,0.111c0.368,0.044,8.689,1.143,18.3,11.39l0.073-4.714,1.256,0.453c0.367,0.133,8.719,3.28,10.924,15.326l4.538-2.723,0.511,0.72c0.143,0.2,3.246,4.739,1.7,15.6a16.752,16.752,0,0,0,3.99-5.142l0.874-2.215,0.9,2.207c0.156,0.385,3.5,9.009-3.91,22.27l0.992-.5,0.167,1.336a13.482,13.482,0,0,1-.308,4.323,13.2,13.2,0,0,1,4.21-.75,9.424,9.424,0,0,1,2.179.247c4.389,1.045,7.879,5.555,8.267,8.949l0.179,1.567-1.471-.571C144.821,68.17,141.81,67.083,140.06,66.609Zm-94,34.056a14.01,14.01,0,0,1-2.873-.192,13.5,13.5,0,0,0-1.4-.249c-1-.14-1.868-0.261-2.337-0.964a3.6,3.6,0,0,1-.323-0.651,0.725,0.725,0,0,0-.653-0.659,4.317,4.317,0,0,0-.6-0.037A5.417,5.417,0,0,0,35.2,98.5a2.939,2.939,0,0,0-.425.6,2.057,2.057,0,0,1-1.476,1.209,2.622,2.622,0,0,1-.373.022c-0.278,0-.639-0.024-1.058-0.053-0.51-.034-1.087-0.074-1.605-0.074a2.8,2.8,0,0,0-1.029.105,11.865,11.865,0,0,0-2.41,2.28l-0.118.133a4.718,4.718,0,0,0-.512.738,3.171,3.171,0,0,1-1.57,1.51,5.131,5.131,0,0,1-1.38.328c-0.006.084-.01,0.141-0.011,0.145l-0.006.085-0.053.067a1.436,1.436,0,0,0-.259,1,1.4,1.4,0,0,0,.281.631,2.276,2.276,0,0,1,1.129-.823c0.042-.009.123-0.03,0.234-0.058,2.266-.57,3.374-0.594,3.826-0.086,0.019,0.022.026,0.045,0.044,0.067a2.146,2.146,0,0,1,.361-0.606,10.644,10.644,0,0,1,2.306-1.461l0.017-.007a8.021,8.021,0,0,0,.96-0.512,5.629,5.629,0,0,1,2.649-.951,1.338,1.338,0,0,1,1.046,1.511,9.96,9.96,0,0,1,1.11-.258c-0.009-.067-0.015-0.119-0.016-0.125l0-.032,0-.032a1.729,1.729,0,0,1,.757-1.287,3.8,3.8,0,0,1,2.738-.653c0.236,0.054.531,0.1,0.843,0.147a5,5,0,0,1,1.846.5,6.854,6.854,0,0,1,2.425-.173c0.125-.063.262-0.122,0.427-0.188a1.957,1.957,0,0,1,.734-0.137Q46.331,101.367,46.058,100.665Zm0.928,2.254a1.168,1.168,0,0,0-.316-0.043,1.677,1.677,0,0,0-.2.039c0.15,0.344.6,1.351,1.215,2.66a1.079,1.079,0,0,0,.4-0.314Q47.5,104.087,46.986,102.919Zm18.677-3.065c-2.679.378-5.07,0.519-5.868,0.556-1.135.052-2.989,0.117-5.064,0.17q0.418,0.992.912,2.02a2.314,2.314,0,0,1,1.294-.351c0.9,0,2.432.112,2.942,0.806a1.1,1.1,0,0,1,.241-0.483c0.243-.243,2.023-1.437,2.8-0.77a8.812,8.812,0,0,0,2.526,1.059,1.606,1.606,0,0,0,.452-0.24,1.137,1.137,0,0,1,.871-0.292,7.794,7.794,0,0,1,.948.369A13.917,13.917,0,0,1,65.664,99.854Zm36.017,3.634a6.178,6.178,0,0,0-.856-1.085,2.484,2.484,0,0,1-.909-2.042,7.234,7.234,0,0,1,.178-0.917,4.787,4.787,0,0,0-.008-3.135c-0.74-1.644-3.326-4.069-4.669-4.069H95.373a15.437,15.437,0,0,0-3.785,1.779c-2.131,1.188-4.545,2.534-6.4,2.753a15.783,15.783,0,0,1-1.837.087c-0.663,0-1.362-.021-2.1-0.044-0.773-.024-1.572-0.048-2.361-0.048a12.185,12.185,0,0,0-4.957.774c0.034,0.015.064,0.036,0.1,0.05,0.125,0.051.248,0.1,0.368,0.148,1.309,0.523,2.546,1.018,2.822,2.719a4.466,4.466,0,0,1-2.5,4.671,3.98,3.98,0,0,1-1.558.29,7.519,7.519,0,0,1-5.06-2.35v0.006c0.061,0.436.335,2.649-.206,3.422a1.758,1.758,0,0,1-1.393.824c-0.054.007-.106,0.013-0.154,0.022a1.1,1.1,0,0,1-.223.016c-0.308,0-.907-0.046-2.107-0.149-0.748-.064-1.768-0.154-1.962-0.138a1.985,1.985,0,0,1-1.276-.4,2.247,2.247,0,0,1-.617-0.651,1.006,1.006,0,0,1-.339.443,12.755,12.755,0,0,1-1.657.855A158.957,158.957,0,0,0,69.45,123.81l0.243,0.306-0.142.365a3.581,3.581,0,0,1-3.454,2.4,3.391,3.391,0,0,1-.732-0.075l-0.109-.024-0.1-.058c-0.247-.149-0.516-0.349-0.778-0.531l-0.439.3a4.81,4.81,0,0,1,.6,1.25,0.794,0.794,0,0,1-.065.684,10.6,10.6,0,0,1-1.932,1.376c-0.334.215-.669,0.431-0.959,0.624a11.894,11.894,0,0,0-1.723,1.707,4.561,4.561,0,0,1-1.455,1.341,0.977,0.977,0,0,1-.265.038,0.938,0.938,0,0,1-.4-0.1,1.933,1.933,0,0,1,.145.62c0,0.726-1.2,2-2.419,2.3a2.08,2.08,0,0,1-.512.069,1.3,1.3,0,0,1-.61-0.141c-0.277.239-.548,0.467-0.8,0.673a3.007,3.007,0,0,1,.256.8c0.117,1.048-1.8,1.846-1.82,1.854a5.078,5.078,0,0,1-1.326.174,2.707,2.707,0,0,1-.69-0.079,5.742,5.742,0,0,1-1.7.974,2.939,2.939,0,0,1-.841,1l-0.082.056a4.024,4.024,0,0,1-1.586.7,1.948,1.948,0,0,0,.225,1.245,1.322,1.322,0,0,1,.845-0.323,26.024,26.024,0,0,0,10.389-5.395,83.727,83.727,0,0,0,6.338-6.272,22.527,22.527,0,0,1,3.6-3.449c1.179-.693,3.764-0.968,7.288-1.28,1.1-.1,2.132-0.189,2.862-0.294,3.653-.521,5.4-1.185,5.685-1.5a5.03,5.03,0,0,0,.527-0.767,3.077,3.077,0,0,1,1.727-1.6,9.731,9.731,0,0,1,1.84-.26,11.262,11.262,0,0,0,2.4-.367c1.32-.44,1.678-0.719,1.944-1.144,0.065-.1.118-0.2,0.169-0.292a2.812,2.812,0,0,1,2.369-1.592c0.422-.079.934-0.132,1.528-0.195,1.409-.148,3.338-0.35,4.269-1.008a2.779,2.779,0,0,0,1.361-2.578,8.475,8.475,0,0,0-.407-0.947,5.461,5.461,0,0,1-.8-3.036,12.016,12.016,0,0,1,1.959-4.08A3.9,3.9,0,0,0,101.68,103.488Zm-4.155,5.075a3.605,3.605,0,0,1,.888,2.67,3.423,3.423,0,0,1-1.834,1.989,15.6,15.6,0,0,1-5.567,1.539c0.143,0.306.309,0.634,0.47,0.952,0.593,1.168.778,1.572,0.7,1.881a2.611,2.611,0,0,1-1.324,1.3,2.008,2.008,0,0,1-1.67.006,2.258,2.258,0,0,0-.255.247,3.133,3.133,0,0,1-.606.535,7,7,0,0,1-2.6.878,0.791,0.791,0,0,1-.374-0.1,1.988,1.988,0,0,1-1.13.962,12.856,12.856,0,0,0-1.84,1.135c-0.355.243-.636,0.435-0.809,0.534a1.976,1.976,0,0,1-2.067-.084,3.073,3.073,0,0,0-.426.412c-0.147.16-.314,0.341-0.5,0.508a3.909,3.909,0,0,1-2.165.839,0.889,0.889,0,0,1-.53-0.137c-0.007-.005-0.012-0.015-0.018-0.021a3.522,3.522,0,0,1-1.7.5l-2.342.758-0.076,0c-0.256-.014-1.544-0.13-1.737-1a15.333,15.333,0,0,1-.213-1.834v-0.045a1.342,1.342,0,0,1,1.5-1.5,2.58,2.58,0,0,0,.393-0.036,5.451,5.451,0,0,1,3,.036c-0.121-.443-0.188-0.762-0.192-0.781a1.728,1.728,0,0,1,.452-1.457,5.893,5.893,0,0,1,1.239-.715c0.611-.31,1.371-0.7,2.031-1.112l0.263-.167c1.117-.713,1.27-0.771,3.012-0.5,1.214,0.187,1.538.3,1.688,0.89a1.154,1.154,0,0,0,.16.384,6.112,6.112,0,0,0,1.313,1.175h0c-0.045-.237-0.072-0.464-0.091-0.639a5.1,5.1,0,0,0-.374-1.238l-0.021-.057c-0.378-1.322.775-1.667,1.394-1.853l0.039-.011a11.842,11.842,0,0,0,1.519-.862,13.69,13.69,0,0,1,1.8-1,2.023,2.023,0,0,1,1.632.455,15.992,15.992,0,0,0,5.6-1.467,2.806,2.806,0,0,0,1.46-1.469,2.929,2.929,0,0,0-.772-2.04,10.511,10.511,0,0,0-.833-1.075,5.368,5.368,0,0,1-.972-1.44l-0.137-.321,0.3-.186a12.259,12.259,0,0,0,1.958-1.479,1.537,1.537,0,0,0-.14-2.124c-0.308-.347-0.88-0.992-3.179.226a18.177,18.177,0,0,0-4.1,3.173,10.433,10.433,0,0,1-1.693,1.553l-0.5-.645a9.5,9.5,0,0,0,1.558-1.422l0.027-.032a18.76,18.76,0,0,1,4.328-3.349c2.009-1.064,3.257-1.077,4.172-.047a2.307,2.307,0,0,1,.147,3.2,10.828,10.828,0,0,1-1.832,1.438,5.653,5.653,0,0,0,.691.925A11.3,11.3,0,0,1,97.526,108.563Zm-9.937-5.235c-0.657.146-3.034,0.42-3.939,0.485-0.246.018-.57,0.073-0.913,0.131a10.683,10.683,0,0,1-1.737.2,2.485,2.485,0,0,1-1.18-.244,1.906,1.906,0,0,1-1.179-1.274l-0.036-.113a10.432,10.432,0,0,1,.049-2.554l0.01-.057a1.208,1.208,0,0,1,.607-0.9,3.209,3.209,0,0,1,1.236.1,9.824,9.824,0,0,0,1.139.149,0.407,0.407,0,0,0,.308-0.12,2.3,2.3,0,0,1,.887-0.412,2.122,2.122,0,0,1,1.831.422l0.044,0.031a3.485,3.485,0,0,0,1.295-.036,4.348,4.348,0,0,0,.568-0.318,2.515,2.515,0,0,1,1.466-.582c0.588,0.1.886,1.149,0.886,3.126A1.751,1.751,0,0,1,87.588,103.328ZM67.847,31.859c0.268-.7.619-1.423,0.763-1.711l0.4-.8L69.831,29.7a48.293,48.293,0,0,1,8.752,5.1l2.61-2.25L84.2,34.607l-0.356.738c-1.148,2.378-.907,7.11-0.9,7.158l0.035,0.647-0.588.271c-7.625,3.505-11.314,7.042-11.35,7.077l-0.533.517-0.632-.389a20.11,20.11,0,0,0-10.415-3.42A9.624,9.624,0,0,0,54.4,48.417l-1.464,1.027L52.9,47.656a8.036,8.036,0,0,1,1.61-5.141c-5.633.954-8.051,3.93-8.166,4.076L44.8,48.539l-0.161-2.475c-0.3-4.656,2.1-8.526,6.095-9.859a14.089,14.089,0,0,1,4.406-.608,22.168,22.168,0,0,1,3.4.264A13.5,13.5,0,0,0,56.287,33l-1.181-1.106,1.539-.5a14.876,14.876,0,0,1,4.571-.684A20.85,20.85,0,0,1,67.847,31.859ZM33.252,81.445C34,69.717,40.111,65.136,41.328,64.337a0.794,0.794,0,0,1,1.2.9c-1.8,5.928.342,13.127,0.364,13.2l0.19,0.627-9.89,3.405Z"/>
  <path class="cls-1" d="M84.284,73.413A26.107,26.107,0,0,0,74.955,76a0.292,0.292,0,0,1-.35-0.452A9.2,9.2,0,0,1,77.154,73.3a23.223,23.223,0,0,1,4.288-1.293l1.5-2.178,2.518,0.272,0.149,1.784A1.413,1.413,0,0,1,84.284,73.413Zm18.478,5.7-0.014-.011a8.685,8.685,0,0,0-.846-0.592,10.276,10.276,0,0,0-.907-0.5q-0.467-.228-0.948-0.417c-0.316-.123-0.659-0.243-0.956-0.325h0a0.744,0.744,0,1,1,.394-1.434,0.8,0.8,0,0,1,.115.042,11.458,11.458,0,0,1,1.028.545q0.49,0.29.954,0.619c0.31,0.217.608,0.453,0.9,0.7a9.614,9.614,0,0,1,.816.8A0.392,0.392,0,0,1,102.762,79.112Zm-1.445-38C99,34.983,91.924,26.271,91.924,26.271L94.1,24.637c2.995,2.042,7.623,10.074,7.623,10.074l2.723-1.5a24.763,24.763,0,0,1,2.723,15.655l6.126-1.906a28.432,28.432,0,0,1-.273,9.8c0.953,0.681,3.812,3.267,3.812,3.267l-1.906,2.042-4.9-3.131c1.361-2.45,1.361-8.44,1.361-8.44L103.9,53.089a16.994,16.994,0,0,0-.409-13.477ZM85.445,65.462a41.116,41.116,0,0,1,10.529-1.723,2.77,2.77,0,0,1,2.125.87,23.835,23.835,0,0,1,4.551,7.066,0.433,0.433,0,0,1-.668.507c-6.055-4.787-13.594-5.941-16.48-6.214A0.26,0.26,0,0,1,85.445,65.462ZM95.676,79.87a19.72,19.72,0,0,0-9.242-1.521,0.514,0.514,0,0,1-.282-0.962,9.227,9.227,0,0,1,6.181-.883,8.207,8.207,0,0,1,4.253,2A0.829,0.829,0,0,1,95.676,79.87Zm-2.731-7.654a1.956,1.956,0,0,1,2.178,1.566,2.033,2.033,0,0,1-.476,1.906c-0.34.272-1.225-.408-1.7-0.477a6.185,6.185,0,0,1-2.042-.272c-0.272-.272,0-1.361.613-1.974A2.927,2.927,0,0,1,92.945,72.215Zm-4.526,2.437a0.817,0.817,0,0,1-1.43-.789,13.484,13.484,0,0,1,3.028-3.739,5.67,5.67,0,0,1,5.351-.265c1.576,0.83,3.019,4.09,2.735,5.512a0.817,0.817,0,0,1-.8.657,0.83,0.83,0,0,1-.161-0.016A0.817,0.817,0,0,1,96.5,75.05c0.126-.632-0.913-3.23-1.894-3.746a4.04,4.04,0,0,0-3.634.144A12.066,12.066,0,0,0,88.419,74.652ZM54.964,101.579c-0.13-.454-0.3-1.1-0.475-1.894,2.109-.052,4.036-0.118,5.263-0.175,1.6-.074,3.637-0.242,5.694-0.53a15.127,15.127,0,0,0,1.011,1.784,65.827,65.827,0,0,1-6.616.65C58.739,101.465,56.96,101.527,54.964,101.579Zm90.2-32.191,0.038,0.038a14.834,14.834,0,0,1,4.718,10.8l-0.058,2.6L147.4,81.99c-1.249-.427-3.208-1.021-4.768-1.369a12.32,12.32,0,0,1,2.853,1.58c2.429,1.822,4.758,5.91,3.326,11.434l-0.965,3.721-2.378-3.02c-1.243-1.58-3.574-3.932-4.715-4.239a7.857,7.857,0,0,0-1.073-.219,25.359,25.359,0,0,0,3.982,3.933,8.936,8.936,0,0,1,3.029,9.739L145.569,107l-2.2-2.878c-1.515-1.978-3.73-4.3-4.685-4.692,0.454,0.895,1.567,2.816,2.277,4.042,0.553,0.953,1.074,1.853,1.417,2.476,1.429,2.6.249,6.4-1.114,8.037l-1.972,2.366-1.237-2.821a17.026,17.026,0,0,0-2.767-4.662l-0.022-.013c0.068,0.234.247,0.658,0.383,0.982a10.967,10.967,0,0,1,.91,7.5l-0.758,2.84-2.284-1.851c-0.54-.438-1.143-0.879-1.69-1.246,0.851,1.939,2.06,5.092,1.776,6.8-0.56,3.36-2.612,3.862-3.786,3.862-0.279,0-.641-0.038-1.242-0.1a43.877,43.877,0,0,0-4.656-.293,15.3,15.3,0,0,0-5.471.8,8.486,8.486,0,0,0-3.332,1.9,0.65,0.65,0,0,0-.082.776,9.039,9.039,0,0,0,2.536,2.957l2.885,2.288-3.534,1.035a24.309,24.309,0,0,1-6.279.689,37.662,37.662,0,0,1-4.372-.263,100.594,100.594,0,0,0-10.717-.746,11.682,11.682,0,0,0-2.94.21,8.333,8.333,0,0,0-2.874,2.462l-1.421,3.426-1.954-3.148a5.087,5.087,0,0,0-2.432-2.128,0.868,0.868,0,0,0-.146-0.014,1.6,1.6,0,0,0-1.005,1.263l-0.3,1.784-1.8-.2a25.725,25.725,0,0,0-2.583-.112c-3.2,0-9.335.463-14.453,3.569l-1.811,1.1-0.627-1.333a33.069,33.069,0,0,1-5.727,3.546,14.188,14.188,0,0,1-5.039.788,12.967,12.967,0,0,1-4.169-.539,2.836,2.836,0,0,1-1.677-3.13,2.326,2.326,0,0,1,2.143-1.876,25.536,25.536,0,0,0,9.861-5.165,82.851,82.851,0,0,0,6.266-6.2,22.12,22.12,0,0,1,3.817-3.619c1.353-.8,3.922-1.074,7.687-1.408,1.084-.1,2.107-0.187,2.812-0.288a17.593,17.593,0,0,0,5.153-1.248,5.073,5.073,0,0,0,.377-0.572,3.974,3.974,0,0,1,2.269-2.021,10.249,10.249,0,0,1,2.035-.3,10.727,10.727,0,0,0,2.176-.322c1.227-.409,1.343-0.595,1.437-0.745,0.049-.077.1-0.161,0.145-0.251a3.755,3.755,0,0,1,3.026-2.064c0.46-.086.99-0.142,1.6-0.206a10.567,10.567,0,0,0,3.82-.839,2.066,2.066,0,0,0,.991-1.546c-0.055-.17-0.218-0.515-0.35-0.794a6.233,6.233,0,0,1-.873-3.614,12.86,12.86,0,0,1,2.1-4.437,3.014,3.014,0,0,0-.23-2.772,5.238,5.238,0,0,0-.735-0.925,3.391,3.391,0,0,1-1.161-2.786,8.14,8.14,0,0,1,.2-1.04,3.994,3.994,0,0,0,.051-2.526c-0.663-1.474-2.979-3.492-3.789-3.507a19.682,19.682,0,0,0-3.375,1.659c-2.316,1.291-4.71,2.627-6.757,2.867a16.659,16.659,0,0,1-1.947.093c-0.678,0-1.384-.022-2.133-0.044-0.766-.023-1.558-0.048-2.332-0.048a14.892,14.892,0,0,0-3.834.389A8.848,8.848,0,0,1,73.4,96.787a12.5,12.5,0,0,1,5.485-.919c1.552,0,3.119.092,4.465,0.092a15.121,15.121,0,0,0,1.725-.08c3.086-.363,8.35-4.447,10.255-4.538l0.088,0c1.906,0,4.735,2.843,5.538,4.631,0.817,1.815,0,3.63-.091,4.537s0.817,1.18,1.634,2.541a4.8,4.8,0,0,1,.181,4.81,11.548,11.548,0,0,0-1.815,3.721c-0.181,1,.908,2.632,1.18,3.54a3.651,3.651,0,0,1-1.724,3.63c-1.543,1.089-4.719,1.089-6.172,1.361a2.119,2.119,0,0,0-1.906,1.452,3.954,3.954,0,0,1-2.45,1.543c-1.362.454-3.358,0.363-4.266,0.636s-1.089,1.27-1.815,2.087-3.721,1.452-6.262,1.815-8.258.544-9.8,1.452-5.082,5.536-9.8,9.62a26.358,26.358,0,0,1-10.981,5.627c-0.545,0-.635,1,0.181,1.361a11.668,11.668,0,0,0,3.395.375,12.266,12.266,0,0,0,4.319-.647c2.45-1,7.17-4.719,7.17-4.719l0.726,1.543c5.453-3.309,11.855-3.846,15.441-3.846a26.8,26.8,0,0,1,2.8.125c0.167-1,1.105-2.856,2.885-2.856a2.8,2.8,0,0,1,.473.042c2.087,0.363,3.721,3,3.721,3a9.508,9.508,0,0,1,3.812-3.449,11.046,11.046,0,0,1,3.762-.395,102.947,102.947,0,0,1,10.94.758,35.447,35.447,0,0,0,4.149.25,22.441,22.441,0,0,0,5.743-.613s-2.632-2.087-3.176-3.9,0.181-3.267,4.538-4.992a17.347,17.347,0,0,1,6.172-.938c2.836,0,5.321.394,5.9,0.394,1,0,1.634-.635,1.906-2.269s-2.031-6.632-2.36-7.26a1.239,1.239,0,0,1,1.044-2c1.18,0,4.311,2.541,4.311,2.541,1.089-4.084-1.634-6.9-1.361-8.259a1.9,1.9,0,0,1,1.772-1.706,2.226,2.226,0,0,1,1.132.345c1.507,0.895,3.539,5.536,3.539,5.536,0.908-1.089,1.906-4.084.908-5.9s-3.631-6.171-3.993-7.17a1.719,1.719,0,0,1,1.637-2.254,2.761,2.761,0,0,1,.9.167c2.087,0.726,5.626,5.355,5.626,5.355a7.048,7.048,0,0,0-2.359-7.624c-1.089-.817-5.228-4.5-5.173-6.081,0.03-.881.711-1.314,1.865-1.314a8.044,8.044,0,0,1,2.037.316c2.36,0.635,5.718,4.9,5.718,4.9,1.27-4.9-.9-8.139-2.625-9.431-2.722-2.042-5.634-1.913-6.36-3s0.545-2,2.36-2.269a2.674,2.674,0,0,1,.392-0.025c2.145,0,7.284,1.757,7.284,1.757,0.181-8.077-8.312-12.713-8.947-12.986-0.617-.264-1.663-1.728-0.224-1.728,0.042,0,.087,0,0.133,0,1.634,0.091,8.085,2.594,8.085,2.594-0.363-3.176-3.728-7.223-7.54-8.13a8.45,8.45,0,0,0-1.959-.221,13.269,13.269,0,0,0-5.755,1.492,12.715,12.715,0,0,0,.907-5.9L130,56.674c9.438-14.611,5.536-24.231,5.536-24.231-1.362,3.449-6.262,7.26-6.262,7.26,2.45-12.524-1.089-17.516-1.089-17.516l-4.992,2.995c-1.724-12.8-10.528-15.973-10.528-15.973l-0.09,5.808C102.406,3.219,93.24,2.13,93.24,2.13L92.7,6.3C87.22,3.216,83.024,2.468,80.244,2.468a9.865,9.865,0,0,0-3.975.66l1.906,3.086c-14.793,0-19.331,15.428-19.331,15.428a25.511,25.511,0,0,1,15.547-5.217,19.731,19.731,0,0,1,3.784.316l-0.817,5.9a19.027,19.027,0,0,1,4.367-.557c6.281,0,7.794,4.1,7.794,4.1l-2.813,2C94.42,36.345,91.7,41.608,91.7,41.608l-2.541-1.724c-0.454,3.449-1.724,4.629-1.724,4.629C65.923,50.593,61.839,67.655,61.839,67.655a70.463,70.463,0,0,0-6.625,3.267,6.364,6.364,0,0,0-1.729,1.814,3.921,3.921,0,0,1-1.3-1.989,18.392,18.392,0,0,1,1.919-1.376,54.123,54.123,0,0,1,6.154-3.1,32.575,32.575,0,0,1,4.777-9.04,36.65,36.65,0,0,1,4.9-5.391l-0.571-.353a19.186,19.186,0,0,0-9.914-3.278,8.718,8.718,0,0,0-4.516,1.045L52.021,51.42l-0.074-3.693a9.291,9.291,0,0,1,.668-3.742,11.6,11.6,0,0,0-5.52,3.245l-3.073,4.124-0.33-5.176c-0.326-5.1,2.322-9.349,6.745-10.823a15.022,15.022,0,0,1,4.707-.657c0.5,0,.983.017,1.422,0.044a11.667,11.667,0,0,0-.928-1l-2.37-2.212,3.085-1a15.821,15.821,0,0,1,4.863-.731,21.611,21.611,0,0,1,6.086.93c0.162-.365.325-0.7,0.455-0.962l0.8-1.6L70.2,28.87a47.9,47.9,0,0,1,8.327,4.773l1.488-1.283,1.111-.957,1.21,0.828,1.724,1.18,1.353,0.925L84.7,35.812c-0.863,1.787-.878,5.437-0.812,6.691l0.061,1.122c0.76-.269,1.537-0.528,2.345-0.767a8.466,8.466,0,0,0,.971-3.222l0.4-3.063,2.557,1.735,0,0c-0.2-1.937-1.253-4.953-4.909-8.824l-1.505-1.594L85.6,26.622l1.28-.908a7.153,7.153,0,0,0-5.157-1.725A17.26,17.26,0,0,0,77.8,24.5l-2.708.64,0.382-2.756,0.552-3.989c-0.468-.034-1.017-0.058-1.632-0.059A23.521,23.521,0,0,0,60,23.156L55.37,26.7,57.015,21.1a27.99,27.99,0,0,1,4.439-8.343,20.764,20.764,0,0,1,13.454-8.21L74.647,4.13l-1.109-1.8,1.9-.92A11.615,11.615,0,0,1,80.244.562a25.589,25.589,0,0,1,10.914,2.8L91.35,1.884l0.244-1.868,1.871,0.222c0.362,0.043,8.1,1.064,17.274,10.038l0.017-1.1L110.8,6.51l2.51,0.906c0.375,0.135,8.6,3.234,11.262,14.715l2.63-1.578,1.514-.908,1.021,1.44a13.29,13.29,0,0,1,1.776,4.78,30.949,30.949,0,0,1,.406,8.682,10.724,10.724,0,0,0,1.842-2.8l1.748-4.43,1.791,4.413c0.155,0.384,3.342,8.6-2.958,21.2l0.269,2.155a13.721,13.721,0,0,1-.054,3.106,13.178,13.178,0,0,1,3.011-.368,10.374,10.374,0,0,1,2.4.273,12.109,12.109,0,0,1,6.042,3.8,11.348,11.348,0,0,1,2.951,5.971l0.358,3.134-2.941-1.141C145.983,69.7,145.577,69.541,145.167,69.388ZM81.26,33.8l-2.632,2.269a49.4,49.4,0,0,0-9.166-5.445,13.25,13.25,0,0,0-1,2.541,19.774,19.774,0,0,0-7.248-1.455,13.923,13.923,0,0,0-4.278.638s2.723,2.541,3.177,4.991c-0.059-.236-2.381-0.74-4.971-0.74a13.376,13.376,0,0,0-4.1.559c-3.539,1.18-5.718,4.629-5.445,8.894,0,0,3.449-4.447,11.707-4.719a7.038,7.038,0,0,0-3.449,6.353,10.332,10.332,0,0,1,5.6-1.384c2.74,0,6.424.79,10.916,3.563,0,0,3.721-3.63,11.617-7.26,0,0-.272-4.992,1-7.623ZM22.707,103.475a1.147,1.147,0,0,1-.9-0.986c-0.269-.807-0.448-1.166-0.628-1.614A3.9,3.9,0,0,0,19.3,98.9a8.663,8.663,0,0,1-2.869-1.972,9.171,9.171,0,0,1-2.51-5.021c-0.09-1.972,1.883-4.483,3.766-4.573s3.407,1.255,3.855,1.255,2.779-2.241,3.945-2.241,2.779-.179,3.676,3.228-0.538,6.366-2.062,9.593S23.424,103.475,22.707,103.475Zm10.216-4.043a1.789,1.789,0,0,0,.238-0.012c0.635-.091.726-0.908,1.361-1.543a5.838,5.838,0,0,1,3.35-.864,5.265,5.265,0,0,1,.734.047c1.27,0.182,1.27,1.18,1.633,1.724s1.725,0.454,3.177.817a20.283,20.283,0,0,0,3.077.171c0.232,0.635.483,1.273,0.748,1.913a19.251,19.251,0,0,1-4.286-.234,12.564,12.564,0,0,0-1.3-.23,3.887,3.887,0,0,1-3-1.379,4.43,4.43,0,0,1-.412-0.818L38.2,98.932c-0.085-.007-0.2-0.013-0.332-0.013a5.666,5.666,0,0,0-2.052.362,3.5,3.5,0,0,0-.227.356,2.972,2.972,0,0,1-2.162,1.669,3.624,3.624,0,0,1-.508.031c-0.31,0-.687-0.025-1.122-0.055-0.495-.033-1.056-0.071-1.541-0.071a4.074,4.074,0,0,0-.667.039,13.811,13.811,0,0,0-2.058,2.024l-0.119.134a3.932,3.932,0,0,0-.408.6,4.086,4.086,0,0,1-2.033,1.9,5.974,5.974,0,0,1-2.223.446,5.015,5.015,0,0,1-3.943-1.9c-1.024-1.229-3.423-4.107-4.507-4.758A10.181,10.181,0,0,1,10.124,92.4c-0.471-3.649,2.445-6.775,4.393-7.888a6.7,6.7,0,0,1,3.2-.7,6.682,6.682,0,0,1,2.753.47A12.227,12.227,0,0,1,23.855,81.8a4.762,4.762,0,0,1,1.947-.41A6.741,6.741,0,0,1,29.266,82.5l0.065,0.04a6.435,6.435,0,0,0,1.321.552c1.591-.557,9.1-3.413,12.677-4.854-0.035.64-.059,1.338-0.071,2.082-4.278,1.706-11.809,4.538-12.277,4.671a0.87,0.87,0,0,1-.237.029,6.467,6.467,0,0,1-2.395-.846,5.047,5.047,0,0,0-2.549-.881,2.859,2.859,0,0,0-1.172.245,11.718,11.718,0,0,0-3.539,2.9,0.413,0.413,0,0,1-.357.153,1.109,1.109,0,0,1-.822-0.425,3.855,3.855,0,0,0-2.189-.448,4.864,4.864,0,0,0-2.258.448c-1.27.726-3.812,3.176-3.448,5.99a8.43,8.43,0,0,0,3.267,5.9c1.361,0.817,3.63,3.539,4.991,5.173a3.123,3.123,0,0,0,2.478,1.217,4.137,4.137,0,0,0,1.515-.31c0.907-.363,1-1.179,1.724-2A12.781,12.781,0,0,1,28.8,99.51a3.656,3.656,0,0,1,1.455-.205C31.23,99.3,32.355,99.432,32.922,99.432Z"/>
  <path class="cls-1" d="M34.767,80.555l6.718-2.313a28.489,28.489,0,0,1-.594-11.722C38.912,68.327,35.526,72.529,34.767,80.555ZM66.613,99.247c2.638,4.88,6.151,5.615,7.746,4.931a3.382,3.382,0,0,0,1.855-3.5c-0.169-1.047-.818-1.349-2.151-1.882l-0.376-.152c-1.971-.807-3.01-2.623-4.325-4.923q-0.21-.368-0.432-0.753a8.919,8.919,0,0,1-.738-6.122,4.148,4.148,0,0,0,.144-0.967A6.613,6.613,0,0,0,66.5,88.419C65.559,90.643,64.322,95.008,66.613,99.247ZM28.907,111.888a7.53,7.53,0,0,0-.321-1.14,6.307,6.307,0,0,1-.433-1.917c0-.17,0-0.331.008-0.486a1.917,1.917,0,0,0-.314-1.489c-0.057-.055-0.474-0.3-3.017.335-0.13.033-.225,0.057-0.274,0.066a1.5,1.5,0,0,0-.76.74,13.3,13.3,0,0,0,.773,3.238,6.5,6.5,0,0,0,1.368,2.086,14.3,14.3,0,0,0,2.326-.714c0.067-.028.136-0.055,0.2-0.081C28.878,112.369,28.975,112.332,28.907,111.888Zm0.578-5.582a0.814,0.814,0,0,0-.2.97c0.329,0.394.94,1.006,1.268,1.334,0.165,0.165.422,0.476,0.694,0.805,0.194,0.234.47,0.567,0.613,0.717a16.64,16.64,0,0,0,2.918-.986,2.991,2.991,0,0,1,.57-0.206c0.349-.1.356-0.1,0.3-0.606-0.067-.568-0.22-1.4-0.355-2.138a14.2,14.2,0,0,1-.26-1.653c0-.616-0.087-0.865-0.313-0.887a5.107,5.107,0,0,0-2.115.818,8.675,8.675,0,0,1-1.073.574A10.268,10.268,0,0,0,29.484,106.306Zm13.221-2.99a4.6,4.6,0,0,0-1.557-.395c-0.328-.05-0.637-0.1-0.9-0.159a3.023,3.023,0,0,0-2.063.51,0.958,0.958,0,0,0-.429.649,4.407,4.407,0,0,0,.3,1.136,6.978,6.978,0,0,1,.494,1.59,4.348,4.348,0,0,0,.8.073A36.1,36.1,0,0,0,42.988,106a2.1,2.1,0,0,0,.479-0.21,2.028,2.028,0,0,0-.118-0.511c-0.08-.258-0.148-0.5-0.211-0.724A5.873,5.873,0,0,0,42.705,103.316Zm4.04-.392a1.252,1.252,0,0,0-.471.092c-0.56.224-.56,0.224-0.56,0.574a4.5,4.5,0,0,0,.493,1.957,2.352,2.352,0,0,0,1.518.1,1.291,1.291,0,0,0,.575-0.5l-1.235-2.176A1.189,1.189,0,0,0,46.745,102.924Zm12.7,2.912c0.288-.192.152-1.757-0.128-2.248-0.1-.183-0.822-0.475-2.3-0.475a1.351,1.351,0,0,0-1.1.439c0.617,1.351,1.321,2.787,1.6,3.217A9.626,9.626,0,0,0,59.442,105.836Zm6.981-2.484a1.743,1.743,0,0,1-.9.374,8.756,8.756,0,0,1-3.056-1.256,3.137,3.137,0,0,0-1.692.728c-0.021.025-.215,0.314-0.019,1.978a1.448,1.448,0,0,0,1.219,1.143,1.127,1.127,0,0,1,.207-0.014c0.266,0,.791.039,1.978,0.141,0.813,0.069,1.927.164,2.114,0.144,0.054-.011.125-0.02,0.2-0.03a0.973,0.973,0,0,0,.824-0.482,5.926,5.926,0,0,0,.1-2.617c-0.242-.106-0.535-0.227-0.692-0.277A2.818,2.818,0,0,0,66.422,103.352ZM87.08,99.565a4.227,4.227,0,0,1-.737.4,3.415,3.415,0,0,1-1.989-.048l-0.082-.058a1.325,1.325,0,0,0-1.158-.295,1.52,1.52,0,0,0-.606.282,1.185,1.185,0,0,1-.786.274,9.852,9.852,0,0,1-1.271-.159c-0.271-.044-0.624-0.1-0.806-0.118a1.671,1.671,0,0,0-.106.282,11.779,11.779,0,0,0-.084,2.181c0.015,0.044.028,0.087,0.041,0.13a1.152,1.152,0,0,0,.786.8,4.661,4.661,0,0,0,2.393-.043c0.363-.062.706-0.12,0.992-0.141,0.96-.068,3.25-0.341,3.82-0.467a0.962,0.962,0,0,0,.7-1.167,7.629,7.629,0,0,0-.276-2.3A6.053,6.053,0,0,0,87.08,99.565ZM47.824,139.733a3.192,3.192,0,0,0-.929-1.715c-0.125-.153-0.261-0.325-0.4-0.5A8.472,8.472,0,0,0,45,135.887a1.935,1.935,0,0,0-.941.509,2.347,2.347,0,0,0-.868,1.059,19.51,19.51,0,0,0,2,4.152,2.082,2.082,0,0,0,1.772-.521l0.088-.059A2,2,0,0,0,47.824,139.733Zm0.289-4.885a0.532,0.532,0,0,0,.033.255,0.522,0.522,0,0,0,.247.307,3.634,3.634,0,0,1,1.588,1.607,4.466,4.466,0,0,1,.122,1,5.767,5.767,0,0,0,.1.923,3.8,3.8,0,0,0,1.555-.061,2.542,2.542,0,0,0,1.311-1,11.213,11.213,0,0,0-1.628-3.007,2.5,2.5,0,0,0-1.558-1.08A15.8,15.8,0,0,0,48.113,134.848ZM55,131.775a20.042,20.042,0,0,0-2.057.279,0.879,0.879,0,0,0-.179.466,13.083,13.083,0,0,1,1.646,2.387l0.022,0.066c0.159,0.488.288,0.779,0.921,0.62a2.987,2.987,0,0,0,1.8-1.513A3.326,3.326,0,0,0,55,131.775Zm4.337-.138a12.173,12.173,0,0,1,1.878-1.841c0.294-.2.631-0.414,0.969-0.632,0.6-.389,1.41-0.908,1.663-1.125a3.552,3.552,0,0,0-1.074-1.682,13.139,13.139,0,0,0-3.39-.377,10.088,10.088,0,0,0-2.19,1.672c-0.139.122-.251,0.219-0.323,0.279-0.088.073-.2,0.156-0.324,0.248a3.11,3.11,0,0,0-1.183,1.268,0.8,0.8,0,0,0,0,.569c0.171,0.215,1.094,1.083,1.645,1.6,0.27,0.254.487,0.459,0.571,0.543,0.057,0.057.117,0.125,0.18,0.2a0.776,0.776,0,0,0,.508.381A9.183,9.183,0,0,0,59.333,131.637Zm12.6-9.337a3.457,3.457,0,0,1-.516.051c-0.522.024-.684,0.031-0.721,0.7a14.476,14.476,0,0,0,.194,1.683,1.269,1.269,0,0,0,.913.356l2.332-.743a3.362,3.362,0,0,0,1.323-.326,4.343,4.343,0,0,0-.985-1.721A4.026,4.026,0,0,0,71.932,122.3Zm9.315,0.13c0.144-.083.44-0.285,0.753-0.5a11.371,11.371,0,0,1,2.042-1.236,1.2,1.2,0,0,0,.619-0.479c-0.108-.089-0.27-0.21-0.41-0.314a6.4,6.4,0,0,1-1.513-1.391,1.947,1.947,0,0,1-.262-0.621c-0.006-.025-0.011-0.048-0.017-0.068a4.629,4.629,0,0,0-1-.216c-1.487-.228-1.487-0.228-2.448.385l-0.267.17c-0.692.437-1.472,0.832-2.1,1.15a8.915,8.915,0,0,0-1.031.564,0.923,0.923,0,0,0-.228.719,13.639,13.639,0,0,0,.4,1.449c0.073,0.218.146,0.461,0.218,0.7A7.876,7.876,0,0,0,76.443,124a3.124,3.124,0,0,0,1.672-.638c0.157-.14.3-0.3,0.444-0.45,0.369-.4.927-1,1.519-0.512A1.162,1.162,0,0,0,81.247,122.43ZM52.869,74.756a22.339,22.339,0,0,1-4.2-9.44,47.4,47.4,0,0,0-3.642,26.591c2.395,14.43,14.766,29.885,20.812,33.633a2.245,2.245,0,0,0,2.366-1.163c-2.01-2.564-14.288-18.517-16.211-28C50.109,87.1,52.385,76.765,52.869,74.756Zm37.745,43.433a2.212,2.212,0,0,0,.839-0.716,11.164,11.164,0,0,0-.621-1.343c-0.169-.333-0.345-0.678-0.5-1-0.364-.781-0.5-0.8-0.857-0.85l-0.028,0a11.894,11.894,0,0,0-1.814,1.008,10.048,10.048,0,0,1-1.714.949l-0.039.011c-0.834.25-.971,0.377-0.85,0.82a5.754,5.754,0,0,1,.429,1.455,1.857,1.857,0,0,0,.346,1.271,6.394,6.394,0,0,0,2.163-.755,2.458,2.458,0,0,0,.444-0.4A0.992,0.992,0,0,1,89.6,118.2,1.185,1.185,0,0,0,90.613,118.189Zm-49.18-10.676s3.5,5.563,4.938,7.75l4.063-2.013s-3.937-5.924-5-7.8l-0.75-.875-0.625.312S45.746,106.638,41.433,107.513Z"/>
  <path class="cls-6" d="M23.931,93.158A2.421,2.421,0,0,1,21.844,91.8c-0.635-1.361.091-2.723,1.634-3.539a3.294,3.294,0,0,1,3.9,1.089,4.923,4.923,0,0,1,.363,3.54A32.571,32.571,0,0,0,26.2,95.972a3.923,3.923,0,0,0-.181,2c0.181,0.363.272,1.271-.181,1.089s-1.815-.817-2.087-1.724a3.309,3.309,0,0,1,0-2.632,5.95,5.95,0,0,0,.635-1.361Zm-3.539,1.906a4.242,4.242,0,0,0-.181-3.176,2.065,2.065,0,0,0-2.9-.635,3,3,0,0,0-.635,4.266c1.361,2.087,2.723,2.541,3.358,2.632a4.343,4.343,0,0,1,2,1.18c0.272,0.363,1,1,1.18.544a3.692,3.692,0,0,0-1.089-2.9C21.118,95.79,20.392,95.064,20.392,95.064Z"/>
</svg>
