<svg id="kummersdorf_icon" xmlns="http://www.w3.org/2000/svg" width="150" height="150" viewBox="0 0 150 150">
  <defs>
    <style>
      .cls-1 {
        fill: #eee;
      }

      .cls-1, .cls-2 {
        fill-rule: evenodd;
      }

      .cls-2 {
        fill: #151515;
      }
    </style>
  </defs>
  <path id="Shape_33_copy_11" data-name="Shape 33 copy 11" class="cls-1" d="M75,136.811h70.591l-35.3-60.9L75,15.006l-35.3,60.9-35.3,60.9H75Z"/>
  <path id="Shape_33_copy_12" data-name="Shape 33 copy 12" class="cls-2" d="M106.638,95.091a1.472,1.472,0,0,1-2.013-.535L75,43.495,45.375,94.556a1.473,1.473,0,1,1-2.548-1.478L75,37.625l32.173,55.452A1.473,1.473,0,0,1,106.638,95.091Zm2.486,16.752A37.544,37.544,0,0,1,89.373,131.6a36.7,36.7,0,0,1-28.746,0,37.546,37.546,0,0,1-19.751-19.752A36.473,36.473,0,0,1,37.943,97.47,37.2,37.2,0,0,1,42.2,80.22a1.566,1.566,0,0,1,2.772,1.458,33.925,33.925,0,1,0,60.347.578,1.566,1.566,0,1,1,2.8-1.4,37.242,37.242,0,0,1,3.936,16.62A36.473,36.473,0,0,1,109.124,111.843Zm-7.983-7.457c-2.74,1.305-3-.913-4.175-1.827s-3.653.783-3.653,0.783-7.647,4.99-14.134,9.366c2.512,1.755,4.128,2.9,4.128,2.9,2.088,0.653,3.132.392,4.045-.261s2.088-.652,3.784-0.652,3.915,1.566,3.132,4.7-3.262,3.263-4.175,3.784-0.913,1.436-1.3,2.349-0.652,3.523-4.436,2.871-2.74-5.611-2.74-6.133S81.219,120.7,79.653,119A48.9,48.9,0,0,0,75,115.558,48.9,48.9,0,0,0,70.347,119c-1.566,1.7-1.957,2.74-1.957,3.262s1.044,5.48-2.74,6.133-4.045-1.958-4.436-2.871-0.392-1.827-1.3-2.349-3.392-.652-4.175-3.784,1.435-4.7,3.132-4.7,2.871,0,3.784.652,1.957,0.914,4.045.261c0,0,1.616-1.144,4.128-2.9-6.486-4.376-14.134-9.366-14.134-9.366s-2.479-1.7-3.654-.783-1.435,3.132-4.175,1.827S44.031,99.3,46.9,96.166a4.6,4.6,0,0,1,6.133-.783c5,2.811,14.855,9.5,21.966,14.42,7.111-4.92,16.967-11.609,21.966-14.42a4.6,4.6,0,0,1,6.132.783C105.969,99.3,103.881,103.081,101.141,104.386ZM83.091,89.9c-0.391,1.3-.783,4.436-1.827,5.611S79.7,96.557,78.916,97.47s-1.957,2.088-3.392,2.088H74.477c-1.435,0-2.61-1.174-3.392-2.088s-1.3-.783-2.349-1.957S67.3,91.207,66.909,89.9s-2.479-2.479-3.132-3.392a5.317,5.317,0,0,1-.131-6.133,4.469,4.469,0,0,0,.913-2.218c0-2.554.96-3.584,1.3-4.567C66.892,70.663,71.3,68.764,75,68.764s8.107,1.9,9.134,4.828c0.345,0.983,1.3,2.012,1.3,4.567a4.469,4.469,0,0,0,.913,2.218,5.317,5.317,0,0,1-.13,6.133C85.57,87.423,83.482,88.6,83.091,89.9ZM69.585,79.072a2.088,2.088,0,1,0,2.088,2.088A2.088,2.088,0,0,0,69.585,79.072Zm10.83,0A2.088,2.088,0,1,0,82.5,81.16,2.088,2.088,0,0,0,80.415,79.072Z"/>
  <path id="Shape_33_copy_10" data-name="Shape 33 copy 10" class="cls-2" d="M148.761,138.638H1.239L75,11.362ZM7.579,134.984H142.421L75,18.649Z"/>
</svg>
