<svg id="emblem_infantry_162" xmlns="http://www.w3.org/2000/svg" width="150" height="150" viewBox="0 0 150 150">
  <defs>
    <style>
      .cls-1 {
        fill: #eee;
      }

      .cls-1, .cls-2 {
        fill-rule: evenodd;
      }

      .cls-2 {
        fill: #151515;
      }
    </style>
  </defs>
  <path id="Shape_11_copy" data-name="Shape 11 copy" class="cls-1" d="M75,142.853h0A60.635,60.635,0,0,1,14.365,82.219V7.147h121.27V82.219A60.635,60.635,0,0,1,75,142.853Z"/>
  <path class="cls-2" d="M75,146.571c-35.484,0-64.953-28.868-64.953-64.353V3.029H139.953V82.218C139.953,117.7,110.484,146.571,75,146.571ZM132.116,11.065H17.884V82.218A57.152,57.152,0,0,0,75,139.135h0a57.152,57.152,0,0,0,57.116-56.917V11.065Zm-19.2,54.445c-2.533,1.149-8.311.424-10.017,0.045a5.29,5.29,0,0,0-1.571-.092c3.941,1.985,3.94,2.709,3.94,3.041a0.9,0.9,0,0,1-.288.654c-0.5.477-1.957,0.642-3.523,0.669a53.657,53.657,0,0,0,8.266,5.282,0.676,0.676,0,0,1-.018,1.234c-0.238.1-5.087,2.106-11.614-.628,0.906,0.977,1.9,2.045,2.762,2.941,3.2,3.342,2.475,5.539,2.178,6.133A67.01,67.01,0,0,1,97.727,91a6,6,0,0,1,2.678,1.024c0.923,0.82,4.105,3.8,4.24,3.93a0.676,0.676,0,0,1-.346,1.159c-1.052.184-2.555,0.769-2.643,1.39-0.1.728,1.036,1.583,1.6,1.883a0.7,0.7,0,0,1,.211.174c0.658,0.813,1.367,1.94,1.007,2.693a1.05,1.05,0,0,1-1.017.574,10.44,10.44,0,0,1-2.108-.347c-0.186-.044-0.4-0.095-0.6-0.136,0.442,2.729-.139,3.282-0.715,3.447a9.078,9.078,0,0,1-.982.179,7.781,7.781,0,0,0-1.858.423c-0.266,1.13-1.977,2.842-3.393,4.1-1.278,1.136-2.264,1.981-2.759,2.4a4.162,4.162,0,0,1,.044,2.9,1.3,1.3,0,0,1-.922.635,4.553,4.553,0,0,1-2.154-.406c-0.78-.275-1.588-0.56-1.963-0.252-0.742.606-3.056,2.419-4.212,2.419a0.751,0.751,0,0,1-.334-0.069,1.73,1.73,0,0,1-.691-1.325,2.253,2.253,0,0,0-.628-1.412,1.9,1.9,0,0,0-.937.26c-0.752.329-2.01,0.88-2.954-.537a7.038,7.038,0,0,1-.858-3.1c-0.033-.291-0.075-0.659-0.126-0.892-1.208.226-3.382,1-3.593,1.576-0.394,1.084-.8,2.794-0.8,2.811a0.678,0.678,0,0,1-.86.491,19,19,0,0,0-3.952-.9,0.833,0.833,0,0,1-.165-0.021,1.383,1.383,0,0,1-.077.149c-0.78,1.114-3.78,2.971-4.12,3.179a0.678,0.678,0,0,1-.318.1c-0.067,0-.208.009-0.4,0.009-1.176,0-4.3-.212-4.633-2.439-0.293-1.959.554-4.925,1.538-5.516a4.427,4.427,0,0,0,.131-0.5,3.412,3.412,0,0,1,.926-1.919,4.71,4.71,0,0,1,3.086-.628,4.159,4.159,0,0,1,1.128-1.525,4.419,4.419,0,0,1,3.05-1.337,1.693,1.693,0,0,1,1.228.575,0.083,0.083,0,0,1,.043-0.061,3.655,3.655,0,0,1,.891-2.223,20.111,20.111,0,0,1,1.459-1.388,11.656,11.656,0,0,0,1.724-1.729,5.89,5.89,0,0,0,.363-1.365,0.69,0.69,0,0,1,.727-0.589,7.158,7.158,0,0,0,2.886-.209,8.457,8.457,0,0,0,.922-2.348,9.355,9.355,0,0,1,.833-2.2,29.536,29.536,0,0,1,4.407-3.831c0.694-.547,1.311-1.034,1.7-1.363l0.3-.249c1.13-.95,1.485-1.277,1.427-1.849a6.9,6.9,0,0,0-1.584-1.342,7.226,7.226,0,0,1-2.378-2.258c-0.238-.516-0.446-0.955-0.61-1.3l-3.969,3.969a0.688,0.688,0,0,1-.144.11c-1.44.817-2.752,1.962-2.752,2.4a13.664,13.664,0,0,0,.19,1.636c0.293,1.951.439,3.175-.227,3.731a9.923,9.923,0,0,1-.86.59,6.534,6.534,0,0,0-2.237,1.906,10.965,10.965,0,0,0-.37,1.523c-0.191.977-.286,1.467-0.757,1.663a0.828,0.828,0,0,1-.564,0,14.244,14.244,0,0,0-2.145.4,20.962,20.962,0,0,0-5.266,6.069,0.692,0.692,0,0,1-.632.381,0.674,0.674,0,0,1-.6-0.425,3.394,3.394,0,0,0-2.067-1.956c-1.73-.307-1.876-0.014-2.166.565a4.328,4.328,0,0,0,.521,1.753c0.441,1.023.823,1.907,0.353,2.564a1.18,1.18,0,0,1-.968.476c-1.18.066-3.4-1.278-4.33-2.395a2.7,2.7,0,0,0-2.994-.717,2.363,2.363,0,0,0-.98,2.111,20.02,20.02,0,0,1,.115,3.463,0.676,0.676,0,0,1-1.134.466l-6.806-6.29a0.676,0.676,0,0,1-.115-0.853c0.2-.33,2.055-3.236,3.916-3.7a11.379,11.379,0,0,1,3.358-.034,7.885,7.885,0,0,0,2.226.012c0.569-.355.631-0.529,1.122-2.3a5.441,5.441,0,0,1,2.433-3.371A2.052,2.052,0,0,1,54.4,95.5c0.844,0.31,4.031.3,5.192-1.4l0.319-.463c1.274-1.841,1.97-2.942,1.47-4.156a3.4,3.4,0,0,0-3.265-1.761c-0.3.061-.666,0.1-1.032,0.134a6.475,6.475,0,0,0-1.213.191,12.578,12.578,0,0,1-.434,2.188,0.676,0.676,0,0,1-1.032.372c-0.854-.584-2.212-2.146-1.239-3.879a9.189,9.189,0,0,1,4.3-3.773,8.616,8.616,0,0,0,3.5-3.145,2.55,2.55,0,0,1,1.207-1.568,1.274,1.274,0,0,1,1.069.066c0.65,0.158,5.463-.469,7.553-2.741a0.676,0.676,0,0,1,1.171.394,3.565,3.565,0,0,0,.551,1.792,11.63,11.63,0,0,0,4.437-1.739l0.321-.254a4.624,4.624,0,0,0,1.188-1.138,4,4,0,0,0-3.4-1.033,14.676,14.676,0,0,0-1.435.48c-1.549.574-3.305,1.225-4.5,0.332a3.362,3.362,0,0,1-1.058-1.241c-0.015-.027-0.027-0.054-0.04-0.078-0.04,0-.1,0-0.188.008a4.51,4.51,0,0,0-1.408,1.073,9.113,9.113,0,0,1-3.183,2.2c-2.443.813-4.588,0.4-5.886-1.134-0.187-.222-0.362-0.451-0.533-0.676-0.864-1.142-1.343-1.768-3.031-1.092a3.508,3.508,0,0,0-2.06,2.087,2.255,2.255,0,0,0-.075,1.6,5.289,5.289,0,0,0,1.007,1.019c0.8,0.689,1.549,1.34,1.445,2.177-0.05.4-1.686,5.4-2.991,5.57a0.834,0.834,0,0,1-.885-0.557,4.77,4.77,0,0,1-.125-2.055,3.7,3.7,0,0,0-.207-2.13,1.312,1.312,0,0,0-.977-0.57,1.287,1.287,0,0,0-.989.341c-1,1-2.429,2.936-2.282,4.187,0.085,0.717.519,0.9,1.421,1.124a3.029,3.029,0,0,1,.964.353,1.45,1.45,0,0,1,.49,1.642,2.394,2.394,0,0,1-2.158,1.76c-1.329.113-2.154-1.3-2.813-2.425a5.519,5.519,0,0,0-.847-1.222c-0.19-.148-0.365-0.3-0.527-0.441a3.362,3.362,0,0,0-.569-0.441c-0.007.017-.054,0.059-0.121,0.145-0.446.573-.139,2.469,0.19,3.237a0.75,0.75,0,0,1-.22.948c-0.444.314-.742,0.361-3.127-1.835a0.676,0.676,0,0,1-.19-0.691,7.669,7.669,0,0,0,.191-0.9,10.784,10.784,0,0,1,.248-1.167,3.049,3.049,0,0,1-2.539.039c-0.5-.333-1.567-0.042-2.693.268-0.292.081-.591,0.163-0.892,0.239a2.2,2.2,0,0,1-.788.079A0.862,0.862,0,0,1,30.9,85.2c-0.241-.965,1.341-1.989,2.581-2.3,0.532-.133,1.107-0.256,1.664-0.374,0.739-.158,1.618-0.345,2.122-0.52l-0.14-.176a5.48,5.48,0,0,1-1.145-2.02,8.325,8.325,0,0,1-.225-1.572c-0.075-1.017-.141-1.365-0.643-1.6a8.794,8.794,0,0,0-3.017-.556,0.676,0.676,0,0,1-.484-1.146c0.157-.162,3.891-3.939,7.482-2.2A28.9,28.9,0,0,1,44.416,76.1a3.232,3.232,0,0,0,1.908-1.557,2.822,2.822,0,0,0,.33-1.978c-0.766-.084-2.062-0.086-2.075-0.086a0.676,0.676,0,0,1-.262-1.3c2.024-.851,5.036-2.534,5.4-3.612a3.152,3.152,0,0,0-.283-3,29.553,29.553,0,0,0-4.438-.236,15.045,15.045,0,0,1-4.338,2.237,6.929,6.929,0,0,1-2.046.339,4.369,4.369,0,0,1-2.433-.692A6.193,6.193,0,0,1,33.8,62.085l1.343-.158a4.892,4.892,0,0,0,1.774,3.162,3.871,3.871,0,0,0,3.335.191,13.688,13.688,0,0,0,3.865-1.987,0.664,0.664,0,0,1,.174-0.188c0.281-.2.557-0.4,0.827-0.6l0.011-.01h0c2.06-1.557,3.721-3.223,3.721-3.784,0-.861-1.851-2.161-2.524-2.406a0.415,0.415,0,0,1-.056.009,0.676,0.676,0,0,1-.674-0.387,0.715,0.715,0,0,1,.152-0.786,0.692,0.692,0,0,1,.166-0.126,5.532,5.532,0,0,0,1.618-2.56c0.448-1.7-1.459-6.068-2.515-6.8a23.664,23.664,0,0,0-3.6-1.6c-1.96-.757-2.289-0.895-2.433-1.323-0.19-.574.086-0.781,1.886-2.13,1.1-.826,3.686-2.761,3.859-3.388a1.227,1.227,0,0,0-.447-0.7,3.3,3.3,0,0,0-2.125-.854,9.706,9.706,0,0,1-1.035.027c-0.648,0-1.572,0-1.7.3a27.686,27.686,0,0,0-.877,4.158,0.677,0.677,0,0,1-.622.573,0.667,0.667,0,0,1-.695-0.482c-0.05-.169-1.206-4.166.821-6.981a6.688,6.688,0,0,1,4.872-2.625,5.728,5.728,0,0,1,.633-0.021,2.785,2.785,0,0,0-.61-1.661c-0.928-1.021-4.315-2.136-5.178-1.707a0.676,0.676,0,0,1-.744-1.116c0.248-.214,2.47-2.1,4.168-2.323a5.019,5.019,0,0,1,2.3.174,3.666,3.666,0,0,1,1.309-.667,2.665,2.665,0,0,1,1.966.564c1.67,0.979,4.991,3.732,5.385,5.5,0.452,2.032-.12,8.1-0.3,9.609a27,27,0,0,0,.488,5.451c0.423,0.686.916,1.43,1.316,1.98,0.059-.775.133-2.025,0.225-4.014,0.007-.161.014-0.314,0.03-0.453a0.493,0.493,0,0,1,0-.054h0.009A0.625,0.625,0,0,1,54.6,41.21a0.686,0.686,0,0,1,.647.549c0.244,0.52,1.649,2.023,2.293,1.778,0.556-.214,1.025-1.947,1.114-3.432a0.676,0.676,0,0,1,.243-0.479,0.709,0.709,0,0,1,.516-0.151,16.936,16.936,0,0,0,4.114.148,1.466,1.466,0,0,0,.088-0.9,0.679,0.679,0,0,1,.506-0.786,5.5,5.5,0,0,0,2.3-.984,13.97,13.97,0,0,0,.172-2.249c-2.623-.664-6.331-1.934-7.908-4.06A7.456,7.456,0,0,1,57.461,23.7l1.256,0.5a6.114,6.114,0,0,0,1.048,5.64c2.171,2.926,9.745,4.1,9.867,4.118a11.6,11.6,0,0,0,3.026-.149,5.63,5.63,0,0,0-1.195-1.8c-1.015.167-3.655,0.46-5.05-.733a7.327,7.327,0,0,1-2.382-3.133c-0.17-.68.446-1.068,1.794-1.921a15.969,15.969,0,0,0,2.509-1.815c1.411-1.41,3.509-1.838,5.909-1.207a17.486,17.486,0,0,1,1.677.555c1.076,0.4,1.7.609,2.033,0.316A17.317,17.317,0,0,0,79.524,22c1.257-1.8,1.638-2.352,2.281-2.2a0.753,0.753,0,0,1,.567.649c0,0.033.443,3.351-.186,4.452a8.433,8.433,0,0,1-.776,1.014c-0.167.2-.4,0.485-0.612,0.755a13.738,13.738,0,0,0,2.12-1.212c1.117-2.429,1.485-2.618,2.032-2.458a0.885,0.885,0,0,1,.517,1.14c-0.007.058-.828,5.725-1.983,6.716a4.2,4.2,0,0,1-.668.457,1.128,1.128,0,0,0-.657,1.026c-0.041.188-.077,0.382-0.114,0.576-0.261,1.379-.587,3.095-2.374,3.452a4.116,4.116,0,0,1-1.473,0c0.009,0.093.024,0.211,0.048,0.36a12.021,12.021,0,0,0,.8,2.477c0.5,1.251.868,2.155,0.194,2.693a3.157,3.157,0,0,1-1,.44c-0.972.311-1.271,0.5-1.227,0.785a5.2,5.2,0,0,1-.041,1.61c-0.016.109-.036,0.244-0.044,0.345a1.136,1.136,0,0,1,.622.544,3.617,3.617,0,0,1-.157,2.477,0.676,0.676,0,0,1-1.259.025,5.6,5.6,0,0,0-.248-0.516l0,0.024c-0.311,2.7-.746,3.243-1.091,3.415a0.677,0.677,0,0,1-.717-0.07c-0.009-.008-0.93-0.722-2.435-1.725l-0.167-.109c0,0.235,0,.511-0.021.824-0.127,2.168-1.115,2.843-3.182,3.772a2.358,2.358,0,0,0-1.162.9,1.31,1.31,0,0,0,.457-0.019,11.913,11.913,0,0,0,1.552-.424,5.215,5.215,0,0,1,3.663-.26,12.709,12.709,0,0,1,2.737,1.732A5.324,5.324,0,0,1,78.4,52.95c5.515-2.833,6.273-4.3,6.234-4.925a2.282,2.282,0,0,0-.9-1.407,4.169,4.169,0,0,1-1.471-2.586,7.647,7.647,0,0,1,.033-2.223A3.15,3.15,0,0,1,80.862,40.6a2.9,2.9,0,0,1-.221-2.4c0.648-2.224,2.592-3.856,4.308-5.3,0.363-.3.717-0.6,1.048-0.9,1.471-1.308,4.736-5.341,4.859-8.811a4.416,4.416,0,0,0-1.285-3.411,0.676,0.676,0,0,1,.779-1.081,9.148,9.148,0,0,1,4.7,6.051c0.789,4.169-2.872,7.131-3.028,7.255a1.59,1.59,0,0,0-.506,1.027,0.919,0.919,0,0,0,.569.509,1.382,1.382,0,0,0,1.13.134,1.363,1.363,0,0,0,.391-1.065,3.388,3.388,0,0,1,2.249-2.985,0.676,0.676,0,0,1,.952.713,2.411,2.411,0,0,0,.1,1.312c0.906-.024,4.807-1.442,6.518-8.379a0.675,0.675,0,0,1,.619-0.513,0.661,0.661,0,0,1,.672.442c0.051,0.139,1.208,3.48-2.546,9.163a0.645,0.645,0,0,1-.063.082,6.069,6.069,0,0,0-1.385,2.184,6.646,6.646,0,0,0,3.543-1.96c0.074-.095.145-0.185,0.215-0.273a0.676,0.676,0,0,1,1.085.806,3.544,3.544,0,0,1-.227.292,10.946,10.946,0,0,0-2.168,3.876c1.036-.03,4.883-2.349,6.51-4.19,0.208-.292.4-0.554,0.564-0.77a0.676,0.676,0,0,1,1.127.742,5.05,5.05,0,0,1-.542.749c-1.391,1.97-2.421,3.988-2.241,4.462,0.533,0.337,3.781-1.18,5.52-3.02a0.676,0.676,0,0,1,1.113.73c-0.234.546-2.359,5.359-4.851,6.153-1.47.467-4.336,0.45-6.867,0.44a27.7,27.7,0,0,0-3.526.1l-0.445.08c-1.41.251-5.156,0.915-5.089,2.316a0.868,0.868,0,0,0,.517.425c2.121,1.02,8.763.938,12.642-1.868a0.676,0.676,0,0,1,1.033.776c-0.043.12-1.124,2.945-7.092,4.247a9.015,9.015,0,0,0-3.042.668,3.538,3.538,0,0,0,1.212.767,5.277,5.277,0,0,0,3.277.482,31.5,31.5,0,0,0,5.975-3.775,1.982,1.982,0,0,1,2.367-.523c0.39,0.221,1.242.958,0.726,3.022a5.76,5.76,0,0,1-4.574,4.319,13.186,13.186,0,0,1-2.623,0,9.226,9.226,0,0,0-1.87-.011,0.5,0.5,0,0,0-.4.342,0.209,0.209,0,0,0,.07.232,27.565,27.565,0,0,0,5.28.67,0.676,0.676,0,0,1,.563.977c-0.1.208-.6,0.93-2.589,1.483a9.12,9.12,0,0,1-2.3.272,3.3,3.3,0,0,0-1.063.116,4.139,4.139,0,0,0,1.5,2.29c1.581,1.358,4.719,2.665,10.69,1.17a0.69,0.69,0,0,1,.58.123,0.675,0.675,0,0,1,.26.533A4.181,4.181,0,0,1,112.919,65.509Zm-50.667,44.8a2.464,2.464,0,0,1-.207-0.438,3.928,3.928,0,0,0-2.171.29,2.343,2.343,0,0,0-.5,1.2,1.764,1.764,0,0,1-.763,1.364,6.713,6.713,0,0,0-.888,4.149c0.157,1.043,2.289,1.311,3.46,1.287a21.475,21.475,0,0,0,3.419-2.529,6.769,6.769,0,0,0-1.091-.046H63.347a4.229,4.229,0,0,1-2.561-1.484,1.5,1.5,0,0,1-.363-1.315,2.559,2.559,0,0,1,1.522-1.845l0.306-.2a0.659,0.659,0,0,0,.206-0.194A0.837,0.837,0,0,1,62.252,110.305ZM63,111.861l-0.31.2c-0.832.551-.832,0.551-0.956,1.046a3.093,3.093,0,0,0,1.62,1.12H63.5a6.638,6.638,0,0,1,1.549.112,15.087,15.087,0,0,1,.534-2.892,16.486,16.486,0,0,1-1.89-.378A1.861,1.861,0,0,1,63,111.861Zm39.59-51.317c-1-1.077-1.564-2.446-1.318-3.186,0.331-.991,1.382-1.017,2.308-1.039a7.974,7.974,0,0,0,1.934-.215,9.932,9.932,0,0,1-3.724-.8,1.572,1.572,0,0,1-.518-1.59,1.841,1.841,0,0,1,1.423-1.343,9.3,9.3,0,0,1,2.246-.019,12.984,12.984,0,0,0,2.335.011,4.453,4.453,0,0,0,3.469-3.312c0.236-.945.081-1.425-0.081-1.517a0.76,0.76,0,0,0-.745.3,31.607,31.607,0,0,1-6.4,4.063c-1.124.482-2.993,0.1-4.347-.483a3.636,3.636,0,0,1-2.02-1.661,1.107,1.107,0,0,1,.112-1c0.634-.983,3.064-1.271,4.08-1.35,0.22-.049.433-0.1,0.637-0.151-3.075.5-6.088,0.281-7.61-.452a1.886,1.886,0,0,1-1.282-1.578c-0.123-2.589,3.992-3.319,6.2-3.712l0.432-.077a26.6,26.6,0,0,1,3.782-.119,28.965,28.965,0,0,0,6.45-.377,6.357,6.357,0,0,0,2.556-2.641,7.4,7.4,0,0,1-3.99,1.412,1.4,1.4,0,0,1-1.111-.674,2.938,2.938,0,0,1,.251-2.42,11.516,11.516,0,0,1-4.4,2.093,1.238,1.238,0,0,1-1.158-.417c-0.5-.621-0.251-1.657.285-2.746a4.622,4.622,0,0,1-1.633.428A1.211,1.211,0,0,1,99.62,35.5c-0.847-1.13.7-3.084,1.449-3.914a18.868,18.868,0,0,0,1.51-2.737c-2.093,3.265-4.69,4.138-5.717,4.138a1.26,1.26,0,0,1-.98-0.445,2.048,2.048,0,0,1-.418-1.029,1.585,1.585,0,0,0-.5,1.108,2.661,2.661,0,0,1-1.008,2.2,2.449,2.449,0,0,1-2.419-.037,2.063,2.063,0,0,1-1.348-1.518,2.9,2.9,0,0,1,.955-2.271c0.075-.062,3.22-2.625,2.584-5.982A6.77,6.77,0,0,0,92.1,21.8a6.479,6.479,0,0,1,.106,1.451c-0.139,3.941-3.639,8.286-5.312,9.773-0.34.3-.7,0.609-1.077,0.922-1.645,1.382-3.346,2.81-3.879,4.641a1.594,1.594,0,0,0,.076,1.311,2.174,2.174,0,0,0,1.268.827,0.678,0.678,0,0,1,.427,1.036,4.682,4.682,0,0,0-.1,2.134,2.9,2.9,0,0,0,1.082,1.772,3.489,3.489,0,0,1,1.292,2.279c0.11,1.765-2.038,3.681-6.966,6.212-1.748.9-2.158,1.662-2.246,2.038a0.829,0.829,0,0,0,.1.656,0.686,0.686,0,0,1-.086.91,0.666,0.666,0,0,1-.9.006,17.182,17.182,0,0,0-3.612-2.553,4.1,4.1,0,0,0-2.747.291,13.067,13.067,0,0,1-1.731.469c-1.224.216-1.845-.3-2.018-0.862-0.278-.9.5-1.94,1.932-2.586,1.971-.888,2.307-1.255,2.387-2.62,0.02-.352.02-0.651,0.018-0.9A1.371,1.371,0,0,1,70.6,47.6c0.536-.285,1.086.078,1.782,0.542,0.775,0.517,1.4.955,1.825,1.268a14.355,14.355,0,0,0,.325-1.917c0.055-.476.183-1.587,1.037-1.706a0.919,0.919,0,0,1,.126-0.009,2.2,2.2,0,0,1-.069-1.227,3.959,3.959,0,0,0,.044-1.21c-0.233-1.515,1.317-2.011,2.151-2.277,0.127-.041.283-0.091,0.4-0.136a11.264,11.264,0,0,0-.438-1.206,13.3,13.3,0,0,1-.879-2.772,1.916,1.916,0,0,1,.226-1.688,1.27,1.27,0,0,1,1.2-.23,2.922,2.922,0,0,0,1.073.016c0.833-.167,1.051-1.01,1.31-2.378,0.039-.2.078-0.409,0.12-0.607a2.392,2.392,0,0,1,1.3-1.914,2.844,2.844,0,0,0,.465-0.314,11.208,11.208,0,0,0,1.039-3.227c-0.8.55-2.679,1.736-3.759,1.629a0.924,0.924,0,0,1-.808-0.561c-0.278-.682.312-1.44,1.3-2.621a8.926,8.926,0,0,0,.641-0.817,6.584,6.584,0,0,0,.139-2.2c-0.181.254-.364,0.517-0.519,0.738a15.951,15.951,0,0,1-1.781,2.3c-0.954.849-2.143,0.409-3.4-.059-0.491-.182-1-0.37-1.55-0.516-1.11-.29-3.185-0.568-4.609.855a16.75,16.75,0,0,1-2.742,2c-0.364.229-.83,0.524-1.091,0.721a7.592,7.592,0,0,0,1.835,2.163c0.973,0.835,3.41.547,4.267,0.368a0.676,0.676,0,0,1,.617.183c0.465,0.465,1.97,2.077,1.845,3.33a0.982,0.982,0,0,1-.375.672c-0.865.706-3.887,0.571-5.719,0.415a11.807,11.807,0,0,1-.213,2.1c-0.226.9-1.625,1.474-2.723,1.789a2.154,2.154,0,0,1-.549,1.515c-0.175.176-.689,0.689-4.509,0.274-0.149,1.215-.6,3.4-1.913,3.9a2.272,2.272,0,0,1-2.157-.435,5.875,5.875,0,0,1-.7-0.583,25.579,25.579,0,0,1-.355,4.209,0.856,0.856,0,0,1-.636.526c-0.389.05-.869,0.1-3.056-3.481A0.669,0.669,0,0,1,51.03,44.8a29.513,29.513,0,0,1-.522-5.973c0.284-2.418.67-7.586,0.321-9.158-0.334-1.5-4.806-5.037-5.708-5.056a1.772,1.772,0,0,0-.9.535,0.7,0.7,0,0,1-.924.2,3.27,3.27,0,0,0-1.924-.213,5.212,5.212,0,0,0-1.818.8,9.341,9.341,0,0,1,4.395,2.1c1.073,1.182,1.189,3.313.644,3.833a0.755,0.755,0,0,1-.825.113,5.341,5.341,0,0,0-4.618,2.06,4.351,4.351,0,0,0-.43.745,4.29,4.29,0,0,1,2.41-.449c0.314,0,.631,0,0.922-0.023A4.611,4.611,0,0,1,45.2,35.523a2.391,2.391,0,0,1,.879,1.735c0,0.969-1.356,2.148-4.4,4.425-0.291.219-.616,0.462-0.89,0.674,0.34,0.138.749,0.3,1.113,0.437a22.815,22.815,0,0,1,3.881,1.746c1.6,1.107,3.63,6.063,3.053,8.255a6.937,6.937,0,0,1-1.381,2.57c1.087,0.624,2.744,1.924,2.744,3.342,0,1.241-1.951,3.046-3.524,4.3a12.686,12.686,0,0,1,3.358.356C51.052,63.87,51.7,65.9,51,68c-0.413,1.238-2.252,2.463-3.839,3.321a1.307,1.307,0,0,1,.667.567c0.5,0.852.145,2.189-.244,3.16a4.889,4.889,0,0,1-3.145,2.468,0.687,0.687,0,0,1-.606-0.145,27.378,27.378,0,0,0-5.318-3.409c-1.676-.809-3.529.1-4.709,0.926a7.4,7.4,0,0,1,1.883.532c1.268,0.586,1.351,1.723,1.425,2.726a7.083,7.083,0,0,0,.183,1.324,4.294,4.294,0,0,0,.893,1.521,1.8,1.8,0,0,1,.6,1.345,0.948,0.948,0,0,1-.434.654,8.484,8.484,0,0,1-2.565.787,2.238,2.238,0,0,1,1.018.356c0.3,0.2,1.661-.216,2.8-0.852a0.676,0.676,0,0,1,.9.955,5.769,5.769,0,0,0-.828,2.379c-0.038.218-.075,0.43-0.12,0.637,0.147,0.133.3,0.265,0.445,0.394a3.89,3.89,0,0,1,.432-2.85,1.53,1.53,0,0,1,1.064-.668,2.1,2.1,0,0,1,1.583.775c0.144,0.126.3,0.262,0.467,0.394a5.754,5.754,0,0,1,1.182,1.6c0.445,0.759,1.053,1.77,1.551,1.762a1.041,1.041,0,0,0,.829-0.489,0.712,0.712,0,0,0,.133-0.5c-0.026,0-.291-0.06-0.486-0.109a2.7,2.7,0,0,1-2.44-2.278c-0.269-2.291,2.367-5,2.669-5.3a2.619,2.619,0,0,1,2.051-.732A2.663,2.663,0,0,1,51,80.378a4.51,4.51,0,0,1,.462,3.024l-0.009.116a18.6,18.6,0,0,0,1.319-3.343,5.2,5.2,0,0,0-.987-0.986,5.833,5.833,0,0,1-1.3-1.386,3.515,3.515,0,0,1-.018-2.707,4.855,4.855,0,0,1,2.833-2.89c2.648-1.057,3.737.377,4.611,1.53,0.156,0.207.316,0.417,0.487,0.62,0.935,1.106,2.508,1.363,4.426.724a7.939,7.939,0,0,0,2.686-1.9,4.3,4.3,0,0,1,2.21-1.433,1.323,1.323,0,0,1,1.547.787,2.034,2.034,0,0,0,.672.788c0.6,0.451,2.052-.085,3.216-0.518a15.838,15.838,0,0,1,1.576-.525A5.269,5.269,0,0,1,79.4,73.7a1.3,1.3,0,0,1,.411,1.018c-0.049.819-.852,1.448-1.7,2.115l-0.311.245c-1.016.813-4.441,2.273-5.639,1.984a2.22,2.22,0,0,1-1.32-1.731c-2.75,2.019-7.334,2.622-8.2,2.2a2.049,2.049,0,0,0-.406.767,9.68,9.68,0,0,1-4.134,3.867A7.823,7.823,0,0,0,54.346,87.4a1.236,1.236,0,0,0,.072,1.308,4.726,4.726,0,0,0,.106-0.814c0-1.136,1.346-1.268,2.428-1.374,0.319-.031.635-0.061,0.9-0.114a4.681,4.681,0,0,1,4.779,2.571c0.8,1.954-.367,3.647-1.608,5.441l-0.315.457c-1.578,2.308-5.459,2.382-6.77,1.9a0.812,0.812,0,0,0-.591.1,4.1,4.1,0,0,0-1.723,2.438c-0.532,1.916-.7,2.53-1.736,3.177-0.58.362-1.536,0.307-3.047,0.186a11.043,11.043,0,0,0-2.922,0c-0.87.218-2.057,1.585-2.79,2.641l5.274,4.874a10.241,10.241,0,0,0-.114-1.644,3.69,3.69,0,0,1,1.495-3.459c1.128-.841,3.584-0.578,4.844.934a6.5,6.5,0,0,0,3.136,1.91c-0.075-.234-0.318-0.8-0.472-1.154-0.441-1.022-.9-2.078-0.488-2.9,0.745-1.489,1.844-1.6,3.61-1.291a3.968,3.968,0,0,1,2.447,1.667,24.069,24.069,0,0,1,5.172-5.56,0.67,0.67,0,0,1,.24-0.117,12.585,12.585,0,0,1,2.5-.472c0.04-.178.083-0.395,0.117-0.574a11.912,11.912,0,0,1,.427-1.728c0.379-1.043,1.766-1.933,2.778-2.582a8.523,8.523,0,0,0,.725-0.49,13.011,13.011,0,0,0-.245-2.491,14.218,14.218,0,0,1-.2-1.836c0-1.467,2.468-3.022,3.356-3.532L80.3,80.3a0.682,0.682,0,0,1,.587-0.189,0.673,0.673,0,0,1,.5.364s0.417,0.833,1.041,2.185a7.051,7.051,0,0,0,1.939,1.726c1.15,0.826,2.058,1.477,2.141,2.306,0.131,1.308-.678,1.988-1.9,3.019l-0.292.246c-0.4.337-1.028,0.834-1.736,1.393a36.666,36.666,0,0,0-4.12,3.52,9.718,9.718,0,0,0-.663,1.837c-0.5,1.66-.85,2.7-1.5,3.1a6.591,6.591,0,0,1-3.1.446,6.5,6.5,0,0,1-.348,1.1,8.721,8.721,0,0,1-2.064,2.2c-0.517.464-1.051,0.943-1.352,1.279a2.292,2.292,0,0,0-.553,1.552,0.679,0.679,0,0,1-.165.507,1.91,1.91,0,0,1-1.3.667H67.391a1.232,1.232,0,0,1-.954-0.474A0.412,0.412,0,0,0,66.16,107a3.072,3.072,0,0,0-2.044.981,2.593,2.593,0,0,0-.8,1.053,2.853,2.853,0,0,1,.368.629,18.832,18.832,0,0,0,2.842.553,0.676,0.676,0,0,1,.565.859,16.92,16.92,0,0,0-.719,3.676,19.794,19.794,0,0,1,3.4.749c0.162-.627.416-1.555,0.674-2.266,0.641-1.762,4.943-2.5,4.986-2.5a0.961,0.961,0,0,1,.714.2,2.763,2.763,0,0,1,.633,1.932,6.083,6.083,0,0,0,.64,2.5c0.277,0.417.434,0.423,1.287,0.049a3.494,3.494,0,0,1,1.379-.387,1.727,1.727,0,0,1,.455.061c1.106,0.3,1.4,1.573,1.59,2.415,0.018,0.077.038,0.164,0.058,0.248a18.8,18.8,0,0,0,3-2.019c0.963-.788,2.241-0.337,3.268.024a3.884,3.884,0,0,0,1.482.347,4.331,4.331,0,0,0-.319-2.2,0.676,0.676,0,0,1,.2-0.746s1.234-1.028,3.077-2.667c2.256-2,2.934-3.1,2.977-3.406,0.146-1.025,1.584-1.238,2.974-1.445,0.253-.037.483-0.07,0.657-0.1a7.9,7.9,0,0,0-.222-2.655,0.785,0.785,0,0,1,.218-0.721c0.406-.393,1.025-0.249,2.149.012,0.483,0.112,1.016.236,1.445,0.288a6.239,6.239,0,0,0-.605-0.94c-0.561-.32-2.423-1.518-2.183-3.2,0.171-1.2,1.462-1.864,2.5-2.214-1.046-.977-2.706-2.523-3.314-3.063a7.382,7.382,0,0,0-3.212-.862,0.676,0.676,0,0,1-.443-1.135,89.847,89.847,0,0,0,5.974-6.855c0.418-.836-0.022-2.58-1.946-4.592-2.248-2.351-5.445-5.855-5.476-5.891a0.676,0.676,0,0,1,.87-1.02c5.331,3.486,9.98,3.292,12.312,2.85a71.987,71.987,0,0,1-8.568-5.881,0.677,0.677,0,0,1-.21-0.765,0.693,0.693,0,0,1,.66-0.439,24.291,24.291,0,0,0,4.08-.135,33.946,33.946,0,0,0-4.6-2.494A0.677,0.677,0,0,1,99,64.569a8.427,8.427,0,0,1,4.2-.335c1.771,0.394,7.1.984,9.164,0.045a3.21,3.21,0,0,0,1.613-1.468C107.225,64.2,103.961,62.024,102.591,60.545Zm-7.5,19.1a3.3,3.3,0,0,0,.814.767,9.422,9.422,0,0,1,2.35,2.474,2.437,2.437,0,0,1,.534,1.94A1.816,1.816,0,0,1,97.666,85.9a2.624,2.624,0,0,0-.566.332c-0.4.347-1.156,1.164-1.828,1.886-0.727.78-1.355,1.455-1.69,1.734a1.053,1.053,0,0,1-.678.277,0.831,0.831,0,0,1-.282-0.049,1.608,1.608,0,0,1-.783-1.428,8.775,8.775,0,0,0-.26-1.065,7.472,7.472,0,0,0-.838-1.781,0.686,0.686,0,0,1-.122-0.33c-0.128-1.412.03-2.241,0.513-2.69a1.48,1.48,0,0,1,1.3-.308,2.635,2.635,0,0,0,.409-0.584,0.748,0.748,0,0,0,.1-0.442l-0.151-.338a4.557,4.557,0,0,1-.6-2.773,0.915,0.915,0,0,1,.786-0.753C93.951,77.463,94.84,79.139,95.095,79.648Zm-1.218.587c0.05,0.113.1,0.222,0.144,0.32l0.163,0.365a2.253,2.253,0,0,1-.476,2.134,1.651,1.651,0,0,1-1.495.759,0.61,0.61,0,0,0-.194-0.015,3.375,3.375,0,0,0-.066,1.39,9.334,9.334,0,0,1,.91,1.973,9.909,9.909,0,0,1,.3,1.221c0.318-.324.722-0.759,1.119-1.185,0.727-.781,1.48-1.589,1.927-1.981a3.714,3.714,0,0,1,.866-0.53A1.9,1.9,0,0,0,97.5,84.44h0a2.1,2.1,0,0,0-.384-0.829,8.133,8.133,0,0,0-2.043-2.134,3.949,3.949,0,0,1-1.186-1.225Zm-4.727,20.814a3.226,3.226,0,0,1,1.239,1.592,1.494,1.494,0,0,1-.166,1.168c-0.7,1.159-5.23,5.276-6.22,5.648a0.916,0.916,0,0,1-.324.059,0.932,0.932,0,0,1-.458-0.122c-0.678-.382-1-1.556-1.5-4.216-0.1-.516-0.182-0.963-0.255-1.23a4.7,4.7,0,0,0-2.243-2.055,1.277,1.277,0,0,1-.693-0.844,2.63,2.63,0,0,1,.79-2c0.161-.223.328-0.451,0.465-0.68,0.689-1.147,3.023-2.309,3.484-2.53a0.707,0.707,0,0,1,.16-0.054,16.99,16.99,0,0,0,3.311-.959,1.377,1.377,0,0,1,1.072-.17,1.9,1.9,0,0,1,1.044,1.07,3.5,3.5,0,0,0,.374.591,3.564,3.564,0,0,0,.525.469A1.357,1.357,0,0,1,90.3,98.8,18.061,18.061,0,0,0,89.149,101.049Zm-9.343-.381-0.269.627,0.3-.569A0.153,0.153,0,0,0,79.806,100.668Zm9.116-2.815A4.851,4.851,0,0,1,88.2,97.2a4.643,4.643,0,0,1-.534-0.821,3.9,3.9,0,0,0-.233-0.391l-0.041.022a17.258,17.258,0,0,1-3.617,1.086,8.888,8.888,0,0,0-2.835,1.971c-0.156.261-.345,0.523-0.529,0.777a5.046,5.046,0,0,0-.547.862c0.6,0.317,2.505,1.433,2.9,2.888,0.079,0.29.172,0.774,0.278,1.333a20.1,20.1,0,0,0,.757,3.1,35.48,35.48,0,0,0,5.261-4.913,0.15,0.15,0,0,0,.016-0.135,2.8,2.8,0,0,0-1.116-1.1,0.675,0.675,0,0,1-.282-0.851,24.162,24.162,0,0,1,1.488-2.976C89.1,97.992,89,97.915,88.922,97.853ZM71.812,29.089l-1.547.825a0.676,0.676,0,0,1-.637-1.193l1.547-.825A0.676,0.676,0,0,1,71.812,29.089Z"/>
</svg>
