<svg id="sturzkampfgeschwader_2_icon" xmlns="http://www.w3.org/2000/svg" width="150" height="150" viewBox="0 0 150 150">
  <defs>
    <style>
      .cls-1 {
        fill: #eee;
      }

      .cls-1, .cls-2, .cls-3 {
        fill-rule: evenodd;
      }

      .cls-2 {
        fill: #bd2728;
      }

      .cls-3 {
        fill: #151515;
      }
    </style>
  </defs>
  <path class="cls-1" d="M75,142.762a4.517,4.517,0,0,1-1.322-.2c-17.436-5.344-34.869-27.82-39.8-34.582C24.8,95.527,23.487,86.74,23.436,86.372L23.411,86.2V6.469H126.588V86.2l-0.024.174c-0.052.368-1.367,9.154-10.446,21.612-4.928,6.762-22.36,29.238-39.8,34.582A4.531,4.531,0,0,1,75,142.762Z"/>
  <path class="cls-2" d="M124,9.074V86.432s-1.17,8.4-9.942,20.519c-6.353,8.774-22.782,28.879-38.487,33.724a1.988,1.988,0,0,1-1.144,0c-15.7-4.845-32.134-24.95-38.486-33.724C27.169,94.835,26,86.432,26,86.432V9.074h98m5.068-5.081H20.931V86.785l0.049,0.349a33.663,33.663,0,0,0,1.971,6.84,70.942,70.942,0,0,0,8.889,15.962,161.778,161.778,0,0,0,16.367,18.972c8.806,8.684,17.126,14.277,24.731,16.623a7.038,7.038,0,0,0,4.125,0c7.6-2.346,15.925-7.939,24.731-16.623a161.883,161.883,0,0,0,16.367-18.972,70.946,70.946,0,0,0,8.888-15.962,33.718,33.718,0,0,0,1.972-6.84l0.048-.349V3.993h0Z"/>
  <path class="cls-3" d="M24.012,7.074v79.5l0.019,0.134c0.05,0.363,1.508,9.035,10.47,21.412,4.883,6.744,22.153,29.161,39.355,34.467a3.933,3.933,0,0,0,2.291,0c17.2-5.305,34.47-27.722,39.353-34.466,8.963-12.377,10.42-21.049,10.47-21.412l0.019-.134V7.074H24.012Zm97.907,38.042H81.989V10.985h39.93V45.116ZM67.985,10.985V45.116H28.08V10.985h39.9ZM37.658,105.824c-7.8-10.77-9.4-18.538-9.578-19.544V59.988h39.9v75.444C54.56,127.523,41.627,111.305,37.658,105.824Zm74.684,0c-3.988,5.508-16.855,21.855-30.353,29.72V59.988h39.93V86.279C121.734,87.307,120.13,95.069,112.342,105.824Z"/>
</svg>
