<svg id="_277_infantry_division" data-name="277_infantry_division" xmlns="http://www.w3.org/2000/svg" width="150" height="150" viewBox="0 0 150 150">
  <defs>
    <style>
      .cls-1 {
        fill: #eee;
      }

      .cls-1, .cls-2 {
        fill-rule: evenodd;
      }

      .cls-2 {
        fill: #151515;
      }
    </style>
  </defs>
  <path class="cls-1" d="M74.913,145.96s-27.31-9.428-45.949-39.384C6.75,70.875,5.739,19.013,5.829,6.722A2.705,2.705,0,0,1,8.538,4.04H141.462a2.705,2.705,0,0,1,2.709,2.682c0.09,12.29-.921,64.153-23.135,99.854C102.4,136.532,75.087,145.96,75.087,145.96H74.913Z"/>
  <path class="cls-2" d="M117.52,46.9a0.729,0.729,0,0,0-1.031-.573s-0.494.305-1.347,0.819v-24.2l-5.5,5.273h-0.526l-3.486-18.8-3.486,18.8h-0.526l-5.5-5.273V57.2A27.1,27.1,0,0,1,90.7,58.94c-7.451,1.261-30.264-2.98-30.264-2.98H42.664l-1.376,2.178L39,54.011H37.964l-1.72,3.439-1.375-2.178H33.952v40.81h81.19V74.068c0.062-7.446.213-14.458,0.544-16.732C116.489,51.833,117.75,47.821,117.52,46.9Z"/>
  <path class="cls-2" d="M75.087,147.935H74.913a1.966,1.966,0,0,1-.644-0.109c-1.142-.394-28.188-10-46.981-40.207C5.121,71.993,3.748,21.373,3.855,6.707A4.692,4.692,0,0,1,8.538,2.065H141.462a4.693,4.693,0,0,1,4.684,4.642c0.107,14.665-1.264,65.282-23.434,100.912-18.793,30.2-45.838,39.813-46.98,40.207A1.967,1.967,0,0,1,75.087,147.935ZM8.538,6.015a0.732,0.732,0,0,0-.734.722c-0.075,10.248.674,63.177,22.837,98.8C47.211,132.162,71.06,142.345,75,143.884c3.94-1.539,27.789-11.722,44.359-38.351,22.165-35.624,22.911-88.549,22.836-98.8a0.732,0.732,0,0,0-.734-0.722H8.538Z"/>
</svg>
