<svg id="_252_infantry_division" data-name="252_infantry_division" xmlns="http://www.w3.org/2000/svg" width="150" height="150" viewBox="0 0 150 150">
  <defs>
    <style>
      .cls-1 {
        fill: #eee;
      }

      .cls-1, .cls-2 {
        fill-rule: evenodd;
      }

      .cls-2 {
        fill: #151515;
      }
    </style>
  </defs>
  <path id="Shape_29_copy" data-name="Shape 29 copy" class="cls-1" d="M135.909,48.6c3.926-1.9,6.712-2.406,9.371-4.939s0.253-8.231-2.786-9.877-4.686.253-5.825-.76,0.506-8.864-2.913-10.131-7.724,3.166-11.776,6.711-2.66-1.14-2.66-1.14,1.773-7.091-4.559-4.179c-10.359,4.765-9.877,18.235-9.877,18.235s1.14,4.179-3.419,2.659A7.582,7.582,0,0,0,93.74,47.21c-4.939,4.305-3.8,14.563-4.052,16.462s-1.52,1.9-1.52,1.9-3.546.507-9.371,6.332-3.672,19.755-4.685,26.086-7.218,11.4-13.043,20.261a24.5,24.5,0,0,0-3.546,17.982c0.425,3.662,3.8-2.786,7.978-6.458S83.1,118.5,96.78,115.591s21.4-6.331,24.946-10.89-0.633-8.991-2.153-10.257-3.8-2.659-.886-5.065,7.851-1.14,12.41-2.153,5.192-5.825,4.939-10.131S131.1,73.8,131.1,73.8s-6.838,0-3.419-3.672S131.6,67.724,133,61.013,131.984,50.5,135.909,48.6ZM64.615,67.344c-0.507-5.572-4.432-6.711-7.345-5.7s-5.319,5.192-5.319,5.192-1.2,2.026-2.343,1.773-0.38-3.672.38-5.7,2.153-12.663-.633-16.4-7.218-.57-8.294,1.393-3.862,1.456-3.8-1.266,1.33-7.218-.317-11.334-5.445-3.546-6.775-1.773-2.976,5.509-3.926,4.875-3.482-6.585-9.054-5-6.395,4.939-6.458,6.965,1.456,4.685,2.216,5.952,0.316,2.659-.76,2.723-6.9-.38-8.1,2.659S3.777,59.272,7.5,60.949c3.8,1.71,8.168,2.216,9.941,3.546s3.672,4.432,1.836,5.952-4.052,1.52-3.926,3.926,4.559,4.116,9.624,4.812,7.535,1.836,7.028,3.356-3.94,2.074-5.572,2.406c-3.419.7-4.242,3.989,0.317,7.471s10.7,4.179,12.537,5.888,9.5,9.117,10.7,11.207,1.455,0.5,1.583-1.267c0,0,.253-4.178,1.013-10.637s0.76-5.7,3.672-13.043S65.121,72.916,64.615,67.344Z"/>
  <path class="cls-2" d="M129.2,40.868c-0.861.544-2.206,1.416-3.586,2.316,1.679-3.777,2.575-6.068,2.6-6.138a1.66,1.66,0,1,0-3.1-1.2c-0.031.08-1.2,3.061-3.372,7.841l-2.107-6.725a1.66,1.66,0,0,0-3.169.992l3.193,10.192c-2.241,4.677-5.141,10.361-8.628,16.451l-3.476-8.4a1.661,1.661,0,0,0-3.069,1.27l4.44,10.73c-2.127,3.566-4.44,7.226-6.935,10.872q-1.353,1.978-2.728,3.909a36.526,36.526,0,0,0-1.853-8.2,1.66,1.66,0,1,0-3.039,1.338c1.045,2.376,1.8,8.58,2.014,10.833-4.234,5.741-8.458,11.036-12.235,15.574a122.723,122.723,0,0,0-.922-12.849,1.66,1.66,0,0,0-3.294.42c0.015,0.115,1.431,11.358.678,16.617-5.965,6.956-10.147,11.313-10.23,11.4a1.66,1.66,0,0,0,2.391,2.3c0.088-.091,4.637-4.832,11.032-12.331a1.614,1.614,0,0,0,.309.049,1.673,1.673,0,0,0,.536-0.089c0.105-.036,10.62-3.6,17.63-3.837a1.66,1.66,0,0,0-.114-3.319c-4.764.164-10.786,1.675-14.666,2.8,3.747-4.532,7.884-9.757,12.018-15.392,4.326-.812,13.028-3.406,13.436-3.529a1.66,1.66,0,1,0-.951-3.181c-1.941.58-6.11,1.78-9.558,2.644q1.149-1.626,2.287-3.282c2.746-4.014,5.279-8.046,7.586-11.953,2.347-.858,7.551-2.864,10.224-4.715a1.661,1.661,0,0,0-1.891-2.731,34.379,34.379,0,0,1-5.691,2.851c3.24-5.775,5.934-11.118,8.029-15.524,1.73-1.139,6.094-4.008,7.979-5.2A1.66,1.66,0,1,0,129.2,40.868ZM51.422,76.184a1.658,1.658,0,0,0-2.282.555L43.985,85.2c-1.459-4.15-2.981-8.016-4.509-11.577,0.853-1.988,2.993-7.234,2.993-9.826a1.66,1.66,0,1,0-3.321,0A21.816,21.816,0,0,1,37.6,69.4c-2.529-5.5-5-10.143-7.165-13.875l2.112-8.681a1.66,1.66,0,1,0-3.226-.785L28,51.476c-2.63-4.209-4.42-6.543-4.622-6.8a1.66,1.66,0,0,0-2.624,2.036c0.052,0.066,2,2.61,4.88,7.312a31.023,31.023,0,0,1-5.371-.93,1.66,1.66,0,0,0-.953,3.181,35.1,35.1,0,0,0,8.369,1.2c2.217,3.852,4.768,8.678,7.356,14.383A69.341,69.341,0,0,1,26.789,70.3a1.66,1.66,0,0,0-.833,3.214,64.037,64.037,0,0,0,10.6,1.795c1.448,3.381,2.886,7.029,4.264,10.93-2.592-.642-5.092-1.355-5.129-1.365a1.66,1.66,0,1,0-.913,3.192c0.19,0.055,4.1,1.169,7.308,1.884q0.8,2.43,1.561,4.971a1.66,1.66,0,0,0,3.183-.947c-0.474-1.592-.962-3.141-1.459-4.664l6.6-10.841A1.66,1.66,0,0,0,51.422,76.184Zm96.592-36.545a10.35,10.35,0,0,0-4.729-7.312A7.206,7.206,0,0,0,138.2,31.6l-0.279.046c-0.058-.5-0.085-1.253-0.107-1.852-0.11-3.064-.262-7.261-3.479-8.453-3.953-1.462-8.049,2.2-12.011,5.745-0.419.374-.836,0.748-1.251,1.113,0.228-1.333.419-4.012-1.319-5.454-1.327-1.1-3.24-1.087-5.685.037-11.235,5.169-10.863,19.208-10.842,19.8l0.007,0.192,0.05,0.186a2.373,2.373,0,0,1,.044.887,3.315,3.315,0,0,1-1.336-.239,9.177,9.177,0,0,0-9.406,2.407c-4.528,4.023-4.517,11.993-4.511,15.832,0,0.67,0,1.363-.031,1.6a1.389,1.389,0,0,1-.132.48c-0.524.081-4.344,0.855-10.287,6.8C72.995,75.358,72.89,84.03,72.806,91a52.768,52.768,0,0,1-.333,6.728c-0.586,3.664-3.253,7.029-6.628,11.289-1.9,2.4-4.062,5.126-6.163,8.322a26.077,26.077,0,0,0-3.794,19.189,2.526,2.526,0,0,0,1.672,2.368,2.23,2.23,0,0,0,.633.1c1.4,0,2.61-1.452,4.452-3.671a38.728,38.728,0,0,1,3.953-4.3c3.706-3.256,16.876-10.9,30.528-13.806,14.068-3,22.059-6.541,25.912-11.5,3.93-5.053.34-10.267-2.4-12.551-0.136-.114-0.279-0.229-0.423-0.345a5.408,5.408,0,0,1-1.272-1.239,2.163,2.163,0,0,1,.8-0.926c1.368-1.129,3.594-1.2,6.172-1.279a29.3,29.3,0,0,0,5.541-.533C136,87.837,138.1,83.851,137.693,77a5,5,0,0,0-1.9-3.886,6.547,6.547,0,0,0-4.842-.971,7.845,7.845,0,0,1-2.441-.412,3.841,3.841,0,0,1,.38-0.467c0.779-.837,1.387-1.393,1.923-1.882,2.006-1.831,2.693-2.666,3.806-8.03a30.275,30.275,0,0,0,.533-6.748c-0.021-3.11.1-3.84,1.477-4.5,1.163-.563,2.218-1,3.239-1.417a19.045,19.045,0,0,0,6.554-3.814A5.918,5.918,0,0,0,148.014,39.639Zm-3.879,2.823a16.239,16.239,0,0,1-5.528,3.148c-1.016.418-2.168,0.892-3.421,1.5-3.391,1.641-3.372,4.5-3.351,7.517a27.136,27.136,0,0,1-.464,6.051c-0.948,4.567-1.3,4.89-2.794,6.253-0.554.506-1.244,1.136-2.114,2.071-1.649,1.771-1.549,3.168-1.174,4.029,0.957,2.2,4.38,2.435,5.808,2.435l0.351-.037a3.491,3.491,0,0,1,2.34.331,1.708,1.708,0,0,1,.59,1.436c0.4,6.727-1.888,8.023-3.641,8.412a26.831,26.831,0,0,1-4.924.456c-2.921.091-5.94,0.185-8.184,2.038a4.566,4.566,0,0,0-2.008,3.5c0.011,1.8,1.454,2.962,2.508,3.812l0.382,0.311c0.82,0.684,4.768,4.281,1.905,7.962-3.294,4.235-10.914,7.5-23.982,10.286-14.42,3.071-27.976,11-32.029,14.561a41.635,41.635,0,0,0-4.316,4.672c-0.358.431-.775,0.933-1.164,1.378a23.219,23.219,0,0,1,3.531-15.416c2.02-3.073,4.129-5.735,5.991-8.084,3.531-4.456,6.581-8.305,7.3-12.827a54.584,54.584,0,0,0,.374-7.212c0.077-6.366.173-14.29,3.846-17.962,4.947-4.948,8.076-5.779,8.4-5.856a3.468,3.468,0,0,0,2.96-3.33,17.9,17.9,0,0,0,.06-2.049c0-3.367-.015-10.371,3.438-13.381l0.147-.146a5.889,5.889,0,0,1,5.961-1.556c2.052,0.684,3.626.526,4.68-.47a4.338,4.338,0,0,0,.922-3.966c0-1.4.247-12.538,8.913-16.525,1.482-.682,2.095-0.566,2.177-0.5,0.3,0.251.344,1.675,0.1,2.7-0.282.946-.767,3.253,0.791,4.252,1.708,1.1,3.7-.645,4.553-1.389,0.485-.424.973-0.861,1.463-1.3,3.079-2.753,6.57-5.873,8.644-5.106,1.132,0.42,1.246,3.574,1.314,5.459,0.076,2.117.127,3.516,1.072,4.356a3.493,3.493,0,0,0,3.192.6,3.934,3.934,0,0,1,2.945.376,7.11,7.11,0,0,1,3.019,4.83A2.769,2.769,0,0,1,144.135,42.461ZM57.8,85.178a38.155,38.155,0,0,1,4.3-7.495c2.323-3.4,4.518-6.615,4.165-10.49-0.343-3.77-2.045-5.612-3.413-6.494a6.991,6.991,0,0,0-6.13-.622c-2.657.924-4.785,3.732-5.715,5.134a15.935,15.935,0,0,1,.533-1.717c0.709-1.891,2.5-13.47-.857-17.974a5.559,5.559,0,0,0-4.923-2.39,8.413,8.413,0,0,0-6.157,3.976,0.471,0.471,0,0,1-.44.319,0.768,0.768,0,0,1-.244-0.748c0.015-.623.108-1.421,0.207-2.265,0.311-2.648.737-6.276-.642-9.724-1.281-3.2-3.535-3.953-4.764-4.116a5.3,5.3,0,0,0-4.88,1.964c-0.463.617-.934,1.4-1.39,2.162-0.249.415-.591,0.984-0.9,1.455-1.451-1.97-4.571-5.838-9.813-4.345-6.169,1.752-7.573,5.595-7.664,8.51C9,42.68,10.437,45.364,11.525,47.178a1.123,1.123,0,0,1,.1.216H11.572c-2.266.012-7.565,0-9.031,3.7-1.526,3.855-.323,9.3,4.281,11.37a40.066,40.066,0,0,0,5.6,1.9,15.554,15.554,0,0,1,4.021,1.461,4.924,4.924,0,0,1,1.921,2.966,0.391,0.391,0,0,1-.147.378,8.515,8.515,0,0,1-1.51.934c-1.257.662-3.157,1.664-3.015,4.359,0.232,4.409,7.809,5.922,11.056,6.369,3.423,0.47,4.84,1.044,5.4,1.367a14.092,14.092,0,0,1-3.617,1.038l-0.431.086a4.811,4.811,0,0,0-4.059,3.493c-0.3,1.3-.216,3.933,3.7,6.925a30.249,30.249,0,0,0,8.726,4.2,14.327,14.327,0,0,1,3.687,1.587c2.471,2.3,9.411,9.114,10.393,10.82,0.274,0.476,1.052,1.828,2.347,1.828a2.052,2.052,0,0,0,.443-0.051c1.642-.377,1.784-2.326,1.888-3.751l0-.02c0-.041.259-4.215,1-10.544,0.625-5.317.66-5.4,2.486-9.927C57.028,87.112,57.385,86.227,57.8,85.178ZM53.64,86.633c-1.873,4.644-2.027,5.022-2.7,10.782-0.508,4.32-.794,7.659-0.927,9.4-3.094-3.608-9.512-9.652-9.59-9.724-1.044-.972-2.729-1.556-4.863-2.294a27.605,27.605,0,0,1-7.8-3.7c-2.067-1.579-2.627-2.9-2.478-3.543a1.739,1.739,0,0,1,1.485-.983l0.411-.082c2.243-.443,5.633-1.111,6.4-3.427a2.777,2.777,0,0,0-.28-2.384c-0.954-1.535-3.451-2.5-8.1-3.142-5.709-.785-8.153-2.507-8.193-3.253-0.026-.5-0.03-0.574,1.247-1.248a11.614,11.614,0,0,0,2.079-1.313,3.715,3.715,0,0,0,1.35-3.016c-0.052-2.174-1.72-4.4-3.248-5.543a16.356,16.356,0,0,0-5.111-2,37.4,37.4,0,0,1-5.144-1.732c-2.977-1.339-3.4-4.995-2.557-7.119,0.421-1.064,2.414-1.6,5.924-1.6h0.018c0.319-.009.559,0,0.716-0.011a2.8,2.8,0,0,0,2.326-1.51,3.834,3.834,0,0,0-.24-3.724c-1.679-2.8-2-4.289-1.98-5.046,0.031-.98.124-3.963,5.253-5.419,3.023-.858,4.833,1.2,6.427,3.386a5.487,5.487,0,0,0,1.252,1.4,2.069,2.069,0,0,0,1.62.3c1.328-.3,2.223-1.791,3.356-3.681,0.413-.687.839-1.4,1.2-1.877a1.992,1.992,0,0,1,1.788-.664A2.865,2.865,0,0,1,35.4,35.923c1.066,2.664.712,5.68,0.427,8.1-0.109.923-.211,1.8-0.229,2.574a3.84,3.84,0,0,0,2.7,4.032A3.7,3.7,0,0,0,42.517,48.7a5.164,5.164,0,0,1,3.477-2.26,2.186,2.186,0,0,1,2.03,1.061c2.235,3,1.13,12.9.409,14.824-0.416,1.111-1.7,4.879-.681,6.751a2.244,2.244,0,0,0,1.495,1.15c2.142,0.481,3.705-1.827,4.143-2.564,0.544-.945,2.525-3.792,4.425-4.453a3.75,3.75,0,0,1,3.24.276c1.072,0.691,1.731,2.076,1.906,4,0.245,2.687-1.452,5.171-3.6,8.318a41.366,41.366,0,0,0-4.647,8.143C54.3,85,53.946,85.875,53.64,86.633Z"/>
</svg>
