<svg id="_ger_berlin_rifle_2_icon" data-name=" ger_berlin_rifle_2_icon" xmlns="http://www.w3.org/2000/svg" width="150" height="150" viewBox="0 0 150 150">
  <defs>
    <style>
      .cls-1, .cls-4 {
        fill: #151515;
      }

      .cls-2 {
        fill: #f2f2f2;
      }

      .cls-2, .cls-3, .cls-4 {
        fill-rule: evenodd;
      }

      .cls-3 {
        fill: #0c65b7;
      }
    </style>
  </defs>
  <g id="ger_copy_2" data-name="ger copy 2">
    <rect id="Rectangle_2_copy_3" data-name="Rectangle 2 copy 3" class="cls-1" x="46" y="119" width="58" height="30"/>
    <path id="Rectangle_2_copy_3-2" data-name="Rectangle 2 copy 3" class="cls-2" d="M46,146v-3h58v3H46Zm0-24h58v3H46v-3Z"/>
    <path id="_275" data-name="275" class="cls-2" d="M67.7,130.618a3.834,3.834,0,0,0-1.067-2.971,3.766,3.766,0,0,0-2.642-.977,6.067,6.067,0,0,0-2.223.359,6.412,6.412,0,0,0-1.745,1.056L61.3,130.5a2.147,2.147,0,0,1,.8-0.548,2.381,2.381,0,0,1,.917-0.21,1.254,1.254,0,0,1,1.356,1.476,7.558,7.558,0,0,1-1.186,3.529,29.06,29.06,0,0,1-2.8,4.067v2.113h7.556v-2.911H65.224l-1.336.439v-0.14l0.977-.777Q67.7,133.768,67.7,130.618Zm7.352,10.307,4.486-12.979v-0.977H71.24v3.15h3.828l1.037-.2-0.738.977-3.489,10.028h3.17Zm10.283-2.771a4.09,4.09,0,0,1-1.954-.419l-0.9,2.811a4.939,4.939,0,0,0,1.386.479,7.8,7.8,0,0,0,1.665.2,5.049,5.049,0,0,0,3.589-1.246,4.734,4.734,0,0,0,1.336-3.638,5.1,5.1,0,0,0-.977-3.3,3.5,3.5,0,0,0-2.632-1.306l-0.638.12V130.2h3.768v-3.23h-6.5v7.736l1.236-.06a3.224,3.224,0,0,1,1.834.409,1.554,1.554,0,0,1,.578,1.365,1.819,1.819,0,0,1-.429,1.246A1.727,1.727,0,0,1,85.331,138.154Z"/>
  </g>
  <g id="_275_infantry_division" data-name="275_infantry_division">
    <path id="Shape_53_copy_3" data-name="Shape 53 copy 3" class="cls-3" d="M74.5,115.557h0A44.511,44.511,0,0,1,30.014,71.022V3.178h88.973V71.022A44.511,44.511,0,0,1,74.5,115.557Z"/>
    <path class="cls-4" d="M111.676,81.919a3.8,3.8,0,0,0-3.04-1.1,2.548,2.548,0,0,0-.475-0.66l-8.738-8.735,7.755-7.752c0.885-.885,2.023-3.457,1.138-4.341s-3.458.252-4.343,1.137L97.1,67.344l-17.209-17.2,32.425-32.413V12.352h-5.377L74.51,44.766,42.085,12.352H36.708v5.375L69.133,50.141l-17.209,17.2L45.047,60.47c-0.885-.885-3.458-2.022-4.343-1.137s0.252,3.457,1.138,4.341L49.6,71.427l-8.738,8.735a2.551,2.551,0,0,0-.476.66,3.8,3.8,0,1,0,3.434,3.433,2.554,2.554,0,0,0,.661-0.476l8.738-8.735L60.972,82.8c0.885,0.885,3.458,2.022,4.343,1.137s-0.252-3.457-1.138-4.341L57.3,72.719l17.209-17.2,17.209,17.2-6.876,6.874c-0.885.885-2.023,3.457-1.138,4.341s3.458-.252,4.343-1.137L95.8,75.045l8.737,8.735a2.562,2.562,0,0,0,.661.476A3.8,3.8,0,1,0,111.676,81.919Z"/>
    <path id="Shape_53_copy_4" data-name="Shape 53 copy 4" class="cls-4" d="M74.5,116.724a45.729,45.729,0,0,1-45.653-45.7V2.011h91.3V71.022A45.729,45.729,0,0,1,74.5,116.724ZM31.179,4.345V71.022a43.321,43.321,0,1,0,86.643,0V4.345H31.179Z"/>
  </g>
</svg>
