<svg xmlns="http://www.w3.org/2000/svg" width="150" height="150" viewBox="0 0 150 150">
  <defs>
    <style>
      .cls-1, .cls-4 {
        fill: #151515;
      }

      .cls-1, .cls-2 {
        fill-rule: evenodd;
      }

      .cls-2, .cls-3 {
        fill: #eee;
      }
    </style>
  </defs>
  <g id="Layer_2" data-name="Layer 2">
    <g>
      <g>
        <path id="Shape_33_copy_3" data-name="Shape 33 copy 3" class="cls-1" d="M74.99849,143.987c-3.308-1.56-14.76-6.964-26.656-12.593-9.768-4.622-16.533-10.182-21.29-17.5-5.26-8.087-8.01-18.435-8.409-31.634V32.022A39.817,39.817,0,0,0,44.73849,5.81h86.615V82.264c-.4,13.2-3.149,23.547-8.409,31.634-4.757,7.314-11.522,12.874-21.29,17.5C89.64249,137.079,78.2845,142.437,74.99849,143.987Z"/>
        <path id="Shape_33_copy_2" data-name="Shape 33 copy 2" class="cls-2" d="M128.29349,8.87V82.218c-.386,12.6-2.975,22.417-7.914,30.012a39.5172,39.5172,0,0,1-8.437,9.285,56.934,56.934,0,0,1-11.6,7.113c-10.483,4.962-20.493,9.687-25.344,11.972-4.588-2.165-14.8-6.985-25.347-11.976a56.93819,56.93819,0,0,1-11.6-7.113,39.50028,39.50028,0,0,1-8.437-9.285c-4.939-7.595-7.528-17.413-7.914-30.012V34.211A42.982,42.982,0,0,0,46.93749,8.87h81.356m6.12-6.12h-92.015a36.433,36.433,0,0,1-26.815,26.943V82.31c.85,28.56,12.41,42.84,31.45,51.85,13.157,6.226,25.648,12.118,27.48,12.981a1.134,1.134,0,0,0,.97,0c1.832-.863,14.323-6.755,27.48-12.981,19.04-9.01,30.6-23.29,31.45-51.85V2.75Z"/>
        <path id="Shape_33_copy" data-name="Shape 33 copy" class="cls-1" d="M74.99849,148.7a2.55882,2.55882,0,0,1-1.1-.247c-1.411-.665-14.176-6.686-27.481-12.982-10.41-4.926-17.979-11.178-23.139-19.112-5.729-8.809-8.718-19.931-9.137-34V29.693a1.445,1.445,0,0,1,1.105-1.4,35.188,35.188,0,0,0,25.746-25.876,1.445,1.445,0,0,1,1.406-1.117h92.015a1.445,1.445,0,0,1,1.445,1.445l0,.005V82.353c-.418,14.07-3.407,25.192-9.136,34-5.161,7.934-12.73,14.186-23.14,19.112-13.455,6.368-26.084,12.325-27.484,12.983A2.555,2.555,0,0,1,74.99849,148.7Zm-57.97-66.412c.769,25.648,9.928,40.773,30.623,50.566,12.962,6.134,25.41,12,27.347,12.919,1.923-.907,14.245-6.719,27.347-12.919,20.7-9.793,29.854-24.918,30.623-50.566V4.195h-89.445a37.768,37.768,0,0,1-9.718,16.822,37.77892,37.77892,0,0,1-16.777,9.8Z"/>
      </g>
      <polygon class="cls-3" points="125.367 71.535 75 129.463 24.633 71.535 75 13.606 125.367 71.535"/>
      <g>
        <path class="cls-3" d="M63.46951,42.16247c.87909-.879,1.37195-1.37183,2.251-2.25086H83.56113c.87872.879,1.37164,1.37183,2.25073,2.25086v6.3703h5.34265L86.29758,37.726H82.10843V35.64684c-.51575-.51581-.80481-.80493-1.32074-1.32074H68.494c-.51593.51581-.805.80493-1.32074,1.32074V37.726H62.9841L58.12717,48.53277h5.34234Z"/>
        <path class="cls-3" d="M105.125,60.60241H95.72061l-2.55914,2.63043L90.421,91.32024h-.29553a1.40008,1.40008,0,0,0-1.39606,1.39594v1.5733a1.4,1.4,0,0,0,1.39606,1.39593h.38226v8.1485l.559-.21966,1.2096-1.78528H96.3884l1.20959,1.78528,1.15534.4541V95.68541h.05908a1.4,1.4,0,0,0,1.39587-1.39593v-1.5733a1.396,1.396,0,0,0-.96331-1.31995L106.02835,78.063V68.201l2.587-2.26343-1.2489-2.57574a42.02218,42.02218,0,0,0-5.222,19.87475C100.74637,73.53185,104.34049,62.78856,105.125,60.60241Z"/>
        <path class="cls-3" d="M98.915,109.647v-2.53387l-2.26038-1.30188-.86944-1.88043H92.82938l-.86945,1.88043-2.26037,1.30188v2.807c-2.79029.39282-7.99646,1.741-7.76026,6.33514l.65637.19568.45649.19562c0,.59118.17468.05639.76593.05639h2.386a1.07051,1.07051,0,0,0,1.07044-1.07043v-.3761h3.395v.09448a1.352,1.352,0,0,0,1.35217,1.352H96.539a1.352,1.352,0,0,0,1.352-1.352v-.09448h3.32019v.3761a1.07043,1.07043,0,0,0,1.07062,1.07043h2.38581a1.07034,1.07034,0,0,0,1.07037-1.07043v-.3761l.80841-1.93591C106.67667,109.22741,101.09458,109.418,98.915,109.647Z"/>
        <polygon class="cls-3" points="91.082 65.329 82.748 72.423 82.748 81.011 90.808 70.464 91.082 65.329"/>
        <path class="cls-3" d="M43.036,78.063l6.78357,13.33325a1.39614,1.39614,0,0,0-.96332,1.31989v1.5733a1.4,1.4,0,0,0,1.39606,1.39593h.05908v8.38294l1.15534-.4541,1.20923-1.78528H56.788l1.20959,1.78528.559.21966v-8.1485h.38257a1.4,1.4,0,0,0,1.39593-1.39593v-1.5733a1.4,1.4,0,0,0-1.39593-1.39594h-.29565l-2.74024-28.0874-2.55951-2.63043h-9.404C44.72385,62.78856,48.318,73.53185,46.92,83.23662A42.01925,42.01925,0,0,0,41.69821,63.362l-1.24884,2.57562L43.036,68.201Z"/>
        <path class="cls-3" d="M59.36514,109.8142v-2.70111l-2.26055-1.30188-.86927-1.88043H53.27951l-.86944,1.88043L50.9,107.11309l-.23261,2.5246c-2.02191-.35236-8.28485-1.10425-8.14917,3.161l.80829,2.4577v.3761a1.0705,1.0705,0,0,0,1.07056,1.07043h2.3858a1.07055,1.07055,0,0,0,1.07062-1.07043v-.3761h3.32019v.09448a1.352,1.352,0,0,0,1.352,1.352H57.043a1.352,1.352,0,0,0,1.352-1.352v-.09448h3.39514v.3761a1.07051,1.07051,0,0,0,1.07044,1.07043h2.386c.59107,0,1.04468.73047,1.04468.13928l.06525-.39129.76886-.06525C67.1254,111.07439,61.59775,110.02324,59.36514,109.8142Z"/>
        <polygon class="cls-3" points="66.317 72.423 58.21 65.522 58.473 70.464 66.317 80.727 66.317 72.423"/>
        <path class="cls-3" d="M81.9393,69.00933,96.51578,58.504l.00464-.00342V52.46483L90.31326,50.913l-6.8114,3.2763-1.11572-3.449H76.54056a4.80242,4.80242,0,0,0,2.09082-1.75165H82.8978v-8.018H66.38407v8.018H70.6503a4.80242,4.80242,0,0,0,2.09082,1.75165H67.265l-1.11573,3.449-6.9378-3.33716L52.7609,52.46483V58.5006l2.8609,2.10181h-.16156l.20025.14441-.012-.1247,2.39368,1.75867.00464.08575,9.07855,6.54279V81.7846l2.88068,3.76928h9.26916l2.66406-3.48547Zm-12.934-10.67041a2.10175,2.10175,0,1,1,2.10193-2.10175A2.10185,2.10185,0,0,1,69.00528,58.33892Zm4.96582-.19428v-2.64c.33228-.33252.51892-.519.85163-.85162h6.74963c.33264.33258.51935.5191.85162.85162v2.64Z"/>
      </g>
      <g>
        <path class="cls-4" d="M63.61875,39.92351c.87909-.879,1.372-1.37176,2.25109-2.25079H83.71036c.87872.879,1.37164,1.37183,2.25073,2.25079v6.37036H91.3038L86.44687,35.48711H82.25772V33.40789c-.51574-.51575-.80487-.80493-1.3208-1.32068H68.64328c-.51593.51575-.80505.80493-1.3208,1.32068v2.07922H63.13333L58.2764,46.29387h5.34235Z"/>
        <path class="cls-4" d="M112.59567,61.66833c-7.74493,9.96344-7.82421,19.32934-7.82421,19.32934-1.944-9.70471,3.05377-20.44806,4.14471-22.63422H95.83884L92.28031,60.994l-.11725.86432-7.63434,6.49847v8.58759l6.79352-8.8888-2.8526,21.02582h-.41095c-1.06781,0-1.94129.62811-1.94129,1.39594v1.5733c0,.76776.87348,1.39593,1.94129,1.39593h.53155v8.1485l.77722-.21966,1.682-1.78528h5.718l1.682,1.78528,1.60657.454V93.44652h.08216c1.06756,0,1.941-.62817,1.941-1.39593v-1.5733c0-.616-.5658-1.136-1.33954-1.31995l9.43261-13.33319V65.96209l3.59729-2.26343Z"/>
        <path class="cls-4" d="M99.06424,107.60546v-2.73132l-2.26031-1.30182-.86951-1.8805H92.97861l-.86945,1.8805-2.26031,1.30182v2.83172c-2.80927.40064-7.87732,1.63324-7.76032,5.31165h.80841v.376a1.07045,1.07045,0,0,0,1.07044,1.0705h2.386a1.07051,1.07051,0,0,0,1.07037-1.0705v-.376h3.395v.09448a1.35209,1.35209,0,0,0,1.35217,1.352h4.51733a1.35205,1.35205,0,0,0,1.352-1.352v-.09448h3.32026v.376a1.07043,1.07043,0,0,0,1.07055,1.0705h2.38581a1.07045,1.07045,0,0,0,1.07043-1.0705v-.376h.80841C106.82529,108.94524,101.27719,107.87206,99.06424,107.60546Z"/>
        <path class="cls-4" d="M48.8143,89.1574A1.52116,1.52116,0,0,0,47.5,90.47729v1.5733c0,.76776.85706,1.39593,1.90473,1.39593h.08056v8.38288l1.5763-.454,1.64978-1.78528h5.61017l1.65026,1.78528.76258.21966v-8.1485h.522c1.04742,0,1.90448-.62817,1.90448-1.39593v-1.5733c0-.76783-.85706-1.39594-1.90448-1.39594h-.40344l-2.86438-21.5202L64.97867,76.707V68.40313l-7.7569-6.60266-.10736-.80658-3.49194-2.63044H40.79233c1.06982,2.18616,5.97339,12.92951,4.066,22.63422,0,0,.20569-9.23541-7.39319-19.19891l-1.43475,1.8999,3.52893,2.26343v9.86206Z"/>
        <path class="cls-4" d="M59.51438,107.65642v-2.78228l-2.26056-1.30182-.86927-1.8805H53.42874l-.86944,1.8805-2.26038,1.30182v2.85052c-2.83233.41968-7.74664,1.66992-7.63141,5.29285h.80823v.376a1.07059,1.07059,0,0,0,1.07056,1.0705h2.38586a1.07059,1.07059,0,0,0,1.07056-1.0705v-.376H51.323v.09448a1.352,1.352,0,0,0,1.352,1.352h4.51733a1.35205,1.35205,0,0,0,1.352-1.352v-.09448h3.39521v.376a1.07051,1.07051,0,0,0,1.07037,1.0705h2.386a1.07056,1.07056,0,0,0,1.07043-1.0705v-.376h.80841C67.39713,109.16857,62.09659,107.99846,59.51438,107.65642Z"/>
        <path class="cls-4" d="M82.08853,66.77044,96.66507,56.26513l.00464-.00342V50.22594l-6.20715-1.55188-6.81147,3.27637-1.11572-3.449H76.68979a4.80206,4.80206,0,0,0,2.09082-1.75164H83.047V39.876H66.53336v6.87372h4.26623a4.80206,4.80206,0,0,0,2.09082,1.75164H67.41422l-1.11573,3.449-6.93774-3.33716-6.45056,1.61267v6.03577l14.3645,10.50873V79.54571L70.15537,83.315h9.26916l2.664-3.48547ZM69.15457,56.1a2.10175,2.10175,0,1,1,2.10187-2.10175A2.10194,2.10194,0,0,1,69.15457,56.1Zm4.96576-.19428V53.2658c.33234-.33258.519-.519.85163-.85163h6.74969c.33264.33259.51929.51905.85156.85163v2.63995Z"/>
      </g>
      <path class="cls-2" d="M74.68159,49.68039A4.76442,4.76442,0,1,1,79.446,44.916,4.76979,4.76979,0,0,1,74.68159,49.68039Zm0-8.41088A3.64647,3.64647,0,1,0,78.32806,44.916,3.65066,3.65066,0,0,0,74.68159,41.26951Z"/>
      <rect class="cls-3" x="90.17016" y="71.08699" width="11.45964" height="2.74834"/>
      <rect class="cls-3" x="48.22992" y="71.08699" width="11.45964" height="2.74834"/>
      <g>
        <path class="cls-3" d="M95.9343,101.69182l.86962,1.88049,2.26026,1.30182v2.73132c2.21289.26661,7.76123,1.33979,7.63159,5.41206h-.80859v.376a1.07031,1.07031,0,0,1-1.07032,1.0705h-2.38574a1.07035,1.07035,0,0,1-1.07055-1.0705v-.376H98.04025v.09448a1.35215,1.35215,0,0,1-1.35205,1.352H92.17087a1.352,1.352,0,0,1-1.352-1.352v-.09448h-3.395v.376a1.07067,1.07067,0,0,1-1.07056,1.0705h-2.386a1.07046,1.07046,0,0,1-1.07031-1.0705v-.376h-.80835c-.11718-3.67841,4.95093-4.911,7.76026-5.31165v-2.83173l2.26025-1.30182.86963-1.88049H95.9343m0-1H92.97873a1,1,0,0,0-.90765.58026l-.7363,1.59219-1.985,1.14331a1,1,0,0,0-.50091.86655v1.97877c-5.1117.90624-7.85874,3.08951-7.75974,6.19645a1.00016,1.00016,0,0,0,.90241.9635,2.07416,2.07416,0,0,0,1.97573,1.45119h2.386a2.07421,2.07421,0,0,0,1.97449-1.44653h1.67236a2.35584,2.35584,0,0,0,2.17078,1.44653H96.6882a2.35584,2.35584,0,0,0,2.17078-1.44653h1.59765a2.07418,2.07418,0,0,0,1.97449,1.44653h2.38574a2.07413,2.07413,0,0,0,1.97574-1.45117,1.00009,1.00009,0,0,0,.90265-.96354c.10312-3.23908-2.66485-5.513-7.63107-6.31314v-1.86206a1,1,0,0,0-.50092-.86655l-1.985-1.14331-.7363-1.59219a1,1,0,0,0-.90765-.58026Z"/>
        <path class="cls-3" d="M56.38449,101.69182l.86939,1.88049,2.26049,1.30182v2.78229c2.58228.342,7.88282,1.51215,7.76026,5.36109h-.80835v.376a1.07051,1.07051,0,0,1-1.07056,1.0705H63.01a1.07051,1.07051,0,0,1-1.07056-1.0705v-.376H58.54416v.09448a1.35194,1.35194,0,0,1-1.35181,1.352H52.675a1.352,1.352,0,0,1-1.35205-1.352v-.09448H48.00266v.376a1.07051,1.07051,0,0,1-1.07056,1.0705H44.54636a1.07051,1.07051,0,0,1-1.07056-1.0705v-.376h-.80835c-.11523-3.62293,4.79907-4.87318,7.63159-5.29285v-2.85053l2.26026-1.30182.86938-1.88049h2.95581m0-1H53.42868a1,1,0,0,0-.90768.58036l-.73609,1.59212-1.985,1.14328a1,1,0,0,0-.50089.86655v2.00247c-5.02759.92209-7.72891,3.09687-7.63107,6.17269a1.00005,1.00005,0,0,0,.9024.96356,2.07442,2.07442,0,0,0,1.976,1.45119H46.9321a2.07418,2.07418,0,0,0,1.97449-1.44653h1.59765A2.35587,2.35587,0,0,0,52.675,115.464h4.51733a2.35554,2.35554,0,0,0,2.17053-1.44653h1.67258A2.07425,2.07425,0,0,0,63.01,115.464h2.38574a2.0744,2.0744,0,0,0,1.976-1.45119,1,1,0,0,0,.90241-.96351c.1-3.141-2.71472-5.3943-7.75974-6.25314v-1.92207a1,1,0,0,0-.50094-.86658l-1.9852-1.14326-.736-1.59211a1,1,0,0,0-.90769-.58036Z"/>
      </g>
    </g>
  </g>
</svg>
