<svg id="_116_panzer_division" data-name="116_panzer_division" xmlns="http://www.w3.org/2000/svg" width="150" height="150" viewBox="0 0 150 150">
  <defs>
    <style>
      .cls-1 {
        fill: #eee;
      }

      .cls-1, .cls-2 {
        fill-rule: evenodd;
      }

      .cls-2 {
        fill: #151515;
      }
    </style>
  </defs>
  <path class="cls-1" d="M75,126.371C35.883,126.371,4.059,103.326,4.059,75S35.883,23.629,75,23.629,145.941,46.674,145.941,75,114.117,126.371,75,126.371"/>
  <path id="Shape_17_copy_6" data-name="Shape 17 copy 6" class="cls-2" d="M126.567,65.283A63.332,63.332,0,0,1,113.9,63.72c-1.619-.337-8.332-2.307-9.583-2.307a0.719,0.719,0,0,0-.107.007,1.052,1.052,0,0,0-.906,1.395c0.069,0.627,2.3,4.879,5.856,10.874s6.9,7.181,9.2,7.6a28.788,28.788,0,0,1,3.555.837c4.044,3.067,8.993,11.084,8.923,11.433a0.108,0.108,0,0,1-.125.083,5.663,5.663,0,0,1-2.524-2.035,52.625,52.625,0,0,0-8.505-7.39c-2.161-1.254-2.858-.767-4.81-1.045a29.467,29.467,0,0,1-5.952-2.279c-6.171-2.514-10.283-9.141-13.025-12.683s-4.913-3.884-4.913-3.884a8.022,8.022,0,0,0-1.525-.148c-1.937,0-4.265.7-9.215,2.317A54.209,54.209,0,0,1,67.1,68.779s-6.607.239-7.165,0.727-0.209.837-1.255,1.464a1.369,1.369,0,0,1-.722.189c-0.94,0-2.056-.737-3.043-0.956-1.254-.279-21.75-10.108-25.305-11.712a13.3,13.3,0,0,0-5.051-1.467c-0.072,0-.108,0-0.108,0-7.738-.349-10.04-0.907-10.04-0.907,0.224-.892,7-1.16,10.276-1.16,0.82,0,1.422.017,1.646,0.045,1.116,0.138,4.113,1.324,12.688,4.809s12.409,4.253,12.9,4.253a0.672,0.672,0,0,0,.7-0.766c-0.07-.348-2.788-6.483-3.347-7.32a4.042,4.042,0,0,1-.418-2.23l7.668-3s5.647,4.253,7.111,4.95c1.25,0.6,3.67.936,12.73,0.936,1.549,0,3.292-.01,5.256-0.03q1-.01,1.922-0.01c11.87,0,15.053,1.216,15.716,1.614,0.7,0.419,2.579.558,4.879,1.116s13.524,3.834,13.524,3.834a41.423,41.423,0,0,0,8.058.7,75,75,0,0,0,10.417-.765C133.774,64.755,130.186,65.283,126.567,65.283ZM48.1,52.2a1.625,1.625,0,0,1-.436-0.052S46.9,51.59,54.5,49.567C54.5,49.567,50.133,52.2,48.1,52.2ZM46,50.126c-0.419,0-.349-0.419-0.489-0.837s-0.836-.7-2.3-1.045-5.926-2.022-5.926-2.022-1.15-.349-1.115-1.081c0.043-.907,3.346-0.941,4.253-1.011a10.6,10.6,0,0,0,3.067-.837,2.733,2.733,0,0,1,1.1-.158,22.077,22.077,0,0,1,3.3.367c3.556,0.837,6.066,3.834,5.159,4.6S46.414,50.126,46,50.126Zm-0.14-5.508a1.016,1.016,0,0,0-.837-0.488,1.37,1.37,0,0,0-1.081.768,0.708,0.708,0,0,0,.488.871,2.191,2.191,0,0,0,1.289-.1A0.774,0.774,0,0,0,45.856,44.618ZM41.162,92.6a15.07,15.07,0,0,0,3.579-1.464,1.308,1.308,0,0,0,.488-1.674,8.3,8.3,0,0,0-1.952-2.859c-1.208-1.254-3.765-2.161-4.113-2.556-0.116-.132.046-0.2,0.4-0.2a14.96,14.96,0,0,1,3.758.754,11.209,11.209,0,0,1,3.788,2.3,0.523,0.523,0,0,0,.2.035,2.155,2.155,0,0,0,1.036-.454c0.372-.255,3.091-2.858,3.625-3.114a0.869,0.869,0,0,1,.345-0.105c0.207,0,.217.214,0.166,0.547-0.069.465-.929,1.511-1.417,2.6a7.9,7.9,0,0,0-.511,3.648c0.126,0.693.442,1.083,1.737,1.083q0.206,0,.447-0.013,0.171-.01.382-0.01A46.322,46.322,0,0,1,62.889,92.7a50.094,50.094,0,0,0,8.461,1.557h0.043c0.628-.023,1-0.349.884-1.627a34.734,34.734,0,0,0-1.441-5.042c-0.163-.488.023-0.512,0.023-0.512,1.883,0.094,2.6,2.533,3.091,3.416a0.972,0.972,0,0,0,.691.662,0.209,0.209,0,0,0,.123-0.034h0.019c1.33,0,1.467-4.676,1.328-5.509s0.21-.975.21-0.975c1.394,0.558,1.254,4.671,1.254,5.02a0.885,0.885,0,0,0,1.045.627c0.628,0,3.835-2.021,4.323-2.021s0.418,0.349-.07.975a25.045,25.045,0,0,0-4.322,4.671c-1.673,2.649,1.115,4.113,1.115,4.113,10.917,4.407,14.823,4.532,15.23,4.532h0.036s0-1.6-.14-2.858,0.07-7.459.558-7.668a0.077,0.077,0,0,1,.03-0.006c0.523,0,2.131,5.026,2.131,5.026s4.793-2.876,5.447-2.876a0.084,0.084,0,0,1,.061.018c0.279,0.278-3.137,4.391-3.7,5.647s-1.533,3.765.7,4.6c1.612,0.6,6.279.735,8.956,0.735,1.029,0,1.764-.02,1.919-0.039a1.391,1.391,0,0,1,.16-0.008c0.789,0,3.1.377,2.838,0.636-0.2.2-3.819,0.719-8.619,0.719a61.425,61.425,0,0,1-6.16-.3c-7.529-.767-21.192-4.6-26.282-6.553-4.652-1.785-15.656-4.035-24.488-4.035-0.828,0-1.638.02-2.421,0.062a23.909,23.909,0,0,0-14.78,6.275,5.462,5.462,0,0,1-1.527.852,0.113,0.113,0,0,1-.1-0.04c-0.186-.254,2.416-3.6,5.228-6.3S39.791,92.883,41.162,92.6Z"/>
  <path id="Shape_17_copy_4" data-name="Shape 17 copy 4" class="cls-2" d="M75,124.875C37.022,124.875,6.125,102.5,6.125,75S37.022,25.125,75,25.125,143.875,47.5,143.875,75,112.978,124.875,75,124.875M75,21C34.683,21,2,45.177,2,75s32.683,54,73,54,73-24.177,73-54S115.317,21,75,21"/>
</svg>
