<svg id="_2_parachute_division" data-name="2_parachute_division" xmlns="http://www.w3.org/2000/svg" width="150" height="150" viewBox="0 0 150 150">
  <defs>
    <style>
      .cls-1 {
        fill: #eee;
      }

      .cls-1, .cls-2 {
        fill-rule: evenodd;
      }

      .cls-2 {
        fill: #151515;
      }
    </style>
  </defs>
  <path class="cls-1" d="M21.5,148V2h105V148H21.5Z"/>
  <path class="cls-2" d="M79.074,58.969l0.062-.07a5.893,5.893,0,0,0,1.15-2.309,10.663,10.663,0,0,0,.29-2.56V51.8a6.5,6.5,0,0,0-1.548-4.472,5.628,5.628,0,0,0-4.41-1.8H68.441V60.886h6.1A6.013,6.013,0,0,0,79.074,58.969ZM70.924,48.007h3.693a3.217,3.217,0,0,1,2.556.97,4.056,4.056,0,0,1,.919,2.82v2.232a8.207,8.207,0,0,1-.217,1.961,3.375,3.375,0,0,1-.636,1.3A3.571,3.571,0,0,1,74.544,58.4h-3.62v-10.4ZM61.547,90.1h9.377V66.981H73.1L79.658,90.1h9.9L82.029,64.81A12.567,12.567,0,0,0,87.47,54.028V51.8a12.487,12.487,0,0,0-3.619-9.018,12.055,12.055,0,0,0-8.944-3.722H61.547V90.1ZM64.03,41.548H74.907a9.532,9.532,0,0,1,7.166,2.974A9.95,9.95,0,0,1,84.986,51.8v2.224a10.178,10.178,0,0,1-5.071,9.211l-0.8.5,7.112,23.872h-4.7L74.975,64.5H68.441V87.613H64.03V41.548ZM21,1V149H128V1H21ZM126,147H23V3H126V147ZM124,5H75.137a1.493,1.493,0,0,0-.894,0H25V145h99V5ZM27,7H71.783L27,46.882V7Zm0,136V58.593L72.885,143H27Zm95,0H76.5L122,59.294V143Zm0-89.988L74.69,140.04,27,52.312V50.9L74.69,8.428,122,50.561v2.451Zm0-6.469L77.6,7H122V46.543ZM29.284,51.849L74.69,135.375,120.1,51.849,74.69,11.41ZM74.69,129.094L33.056,52.507,74.69,15.428l41.635,37.079Z"/>
</svg>
