<svg id="_77_infantry_division" data-name="77_infantry_division" xmlns="http://www.w3.org/2000/svg" width="150" height="150" viewBox="0 0 150 150">
  <defs>
    <style>
      .cls-1 {
        fill: #eee;
      }

      .cls-1, .cls-2 {
        fill-rule: evenodd;
      }

      .cls-2 {
        fill: #151515;
      }
    </style>
  </defs>
  <path class="cls-1" d="M5,136V14H145V136H5Z"/>
  <path class="cls-2" d="M143,16V134H7V16H143m4-4H3V138H147V12h0Z"/>
  <path id="Shape_50_copy_2" data-name="Shape 50 copy 2" class="cls-1" d="M95.993,123V39.053H74.968V25.935h54.957V39.053H108.972V123H95.993Zm-52.178.126a21.61,21.61,0,0,1-17.082-7.608C20.958,108.686,20.948,98.5,20.95,98.07l0.011-1.989H33.326v2a20.643,20.643,0,0,0,1.821,7.989,10.122,10.122,0,0,0,9.336,5.153,13.533,13.533,0,0,0,3.131-.346l0.126-.029a12.5,12.5,0,0,0,9.17-9.576c1.783-8.243-1.776-13.047-1.928-13.247C52.568,84.861,45.57,80.4,43.077,78.95c-10.67-6.081-13.658-9.073-13.78-9.2-9.3-9.474-7.645-21.5-7.454-22.69,2.1-20.17,20.3-21.191,23.936-21.191,0.467,0,.789.014,0.934,0.023l0.245,0c20,0,21.933,21.664,21.95,21.883l0.169,2.156H56.9l-0.14-1.85C56.453,44,53.174,37.528,45.688,37.528c-0.27,0-.545.008-0.824,0.025-8.313.517-11.185,7.155-11.1,13.2,0.081,5.753,4.011,10.544,12.367,15.078a96.883,96.883,0,0,1,13.735,9.3c8.021,6.59,11.137,15.441,9.52,27.056a23.817,23.817,0,0,1-19.28,20.3,32.935,32.935,0,0,1-6.291.64h0Z"/>
  <path id="Shape_50_copy" data-name="Shape 50 copy" class="cls-2" d="M127.925,27.935v9.118H106.972V121H97.993V37.053H76.968V27.935h50.957m4-4H72.968V41.053H93.993V125h16.979V41.053h20.953V23.935h0ZM45.779,27.87c0.56,0,.878.023,0.878,0.023l0.3,0c18.384,0,19.958,20.04,19.958,20.04H58.756c-0.422-5.592-4.858-12.4-13.067-12.4-0.311,0-.628.01-0.949,0.03C35.926,36.1,31.655,43,31.765,50.777s6.351,12.975,13.413,16.808a95.92,95.92,0,0,1,13.413,9.088c7.665,6.3,10.293,14.618,8.815,25.239a21.7,21.7,0,0,1-17.684,18.614,30.75,30.75,0,0,1-5.906.6c-6.047,0-11.481-2.076-15.555-6.9C22.9,107.88,22.95,98.08,22.95,98.08h8.376a22.467,22.467,0,0,0,2.026,8.869,12.1,12.1,0,0,0,11.131,6.273,15.275,15.275,0,0,0,3.651-.414,14.574,14.574,0,0,0,10.731-11.114c2.026-9.362-2.3-14.892-2.3-14.892-3.175-4.161-12.483-9.581-12.483-9.581C33.517,71.2,30.724,68.352,30.724,68.352c-8.979-9.143-6.9-21.023-6.9-21.023C25.7,29,41.815,27.87,45.779,27.87m0-4h0a29.9,29.9,0,0,0-13.664,3.339c-4.936,2.67-11.059,8.235-12.256,19.6C19.6,48.5,18.066,61.171,27.87,71.154c0.324,0.33,3.491,3.42,14.232,9.542,3.3,1.927,9.326,5.968,11.283,8.532,0.184,0.254,3.123,4.447,1.57,11.62a10.569,10.569,0,0,1-7.649,8.046l-0.163.033-0.063.022a11.849,11.849,0,0,1-2.6.273c-3.473,0-6.021-1.382-7.575-4.109a18.578,18.578,0,0,1-1.582-7.033v-4H18.973L18.95,98.058c0,0.46.009,11.361,6.255,18.754a23.549,23.549,0,0,0,18.611,8.318,34.831,34.831,0,0,0,6.676-.678,25.794,25.794,0,0,0,20.876-21.988c1.72-12.362-1.628-21.81-10.237-28.882A99.238,99.238,0,0,0,47.086,64.07c-7.654-4.154-11.252-8.4-11.321-13.349-0.035-2.484.527-10.631,9.224-11.171,0.237-.015.472-0.022,0.7-0.022,6.135,0,8.824,5.338,9.077,8.7l0.279,3.7H71.24L70.9,47.617a32.464,32.464,0,0,0-3.549-11.6c-4.262-7.933-11.314-12.126-20.4-12.128h-0.2c-0.2-.01-0.531-0.022-0.98-0.022h0Z"/>
</svg>
