<svg id="ger_moscow_prem_tank_2_icon" xmlns="http://www.w3.org/2000/svg" width="150" height="150" viewBox="0 0 150 150">
  <defs>
    <style>
      .cls-1 {
        fill: #151515;
      }

      .cls-1, .cls-2 {
        fill-rule: evenodd;
      }

      .cls-2 {
        fill: #ffbf34;
      }
    </style>
  </defs>
  <path class="cls-1" d="M148.373,106.16c-0.611,2.527-1.794,4.213-3.514,5.01a5.53,5.53,0,0,1-2.342.5,7.684,7.684,0,0,1-3.129-.7A588.066,588.066,0,0,1,76.17,75c-4.128-2.734-8.236-5.606-12.21-8.537a1.193,1.193,0,0,0-.711-0.237,1.226,1.226,0,0,0-.405.07,1.2,1.2,0,0,0-.776.836,121.471,121.471,0,0,0-2.931,13.612c-3.143,21.7-2.467,29.947-2.46,30.028l0.011,0.108-0.017.11a3.632,3.632,0,0,1-1.685,2.48A4.011,4.011,0,0,1,52.9,114a7.87,7.87,0,0,1-2.67-.54l-0.423-.156c-5.276-1.934-19.294-7.07-30.443-16.741C8.287,86.958,1.971,77.221,1.325,74.966a3.815,3.815,0,0,1,.253-3.035c0.662-1.164,2.006-2,4.111-2.562,2.2-.585,18.547-8.827,36.2-20.609l0.1-.174L41.91,48.4c-6.367-5.829-10.5-10.254-12.4-12.372a2.759,2.759,0,0,1,.078-3.746l4.573-4.73a2.447,2.447,0,0,1,3.241-.241c5.229,3.977,10.607,7.936,15.982,11.77a1.826,1.826,0,0,0,2.175-.031,191.793,191.793,0,0,0,17.07-14.464,2.037,2.037,0,0,1,1.42-.588,2.061,2.061,0,0,1,1.153.36,2,2,0,0,1,.759,2.462c-1.944,4.83-4.872,12.346-7.785,20.729a1.963,1.963,0,0,0,.761,2.278A543.147,543.147,0,0,0,145.082,92.7a21.424,21.424,0,0,1,2.963,1.436C149.9,95.613,150,99.434,148.373,106.16Z"/>
  <path id="Shape_283_copy" data-name="Shape 283 copy" class="cls-2" d="M74.048,25.884a0.154,0.154,0,0,0-.106.054A193.617,193.617,0,0,1,56.7,40.546a3.712,3.712,0,0,1-4.418.065c-5.392-3.844-10.784-7.816-16.029-11.8a0.557,0.557,0,0,0-.34-0.115,0.546,0.546,0,0,0-.395.166l-4.574,4.729a0.861,0.861,0,0,0-.028,1.181c1.874,2.092,5.963,6.464,12.27,12.24a2.115,2.115,0,0,1-.253,3.32C24.819,62.422,8.527,70.566,6.175,71.192a4.754,4.754,0,0,0-2.954,1.669,1.973,1.973,0,0,0-.078,1.588c0.431,1.5,6.122,10.859,17.463,20.7,10.887,9.442,24.667,14.492,29.855,16.392l0.425,0.156a6,6,0,0,0,2.011.424,2.189,2.189,0,0,0,1.1-.255,1.751,1.751,0,0,0,.783-1.067c-0.087-1.215-.511-9.65,2.483-30.321a123.472,123.472,0,0,1,2.975-13.829,3.106,3.106,0,0,1,4.843-1.7c3.948,2.912,8.03,5.766,12.132,8.483a585.857,585.857,0,0,0,63,35.838,5.888,5.888,0,0,0,2.3.512,3.66,3.66,0,0,0,1.557-.324c1.166-.546,2-1.8,2.463-3.74,1.872-7.734.89-9.629,0.351-10.089-0.237-.139-1.33-0.638-2.592-1.213A545.138,545.138,0,0,1,67.882,51.388a3.848,3.848,0,0,1-1.495-4.461c2.926-8.418,5.866-15.964,7.817-20.814a0.137,0.137,0,0,0-.059-0.194,0.173,0.173,0,0,0-.1-0.035"/>
</svg>
