<svg xmlns="http://www.w3.org/2000/svg" width="150" height="150" viewBox="0 0 150 150">
  <defs>
    <style>
      .cls-1 {
        fill: #0f0f0f;
      }

      .cls-1, .cls-2 {
        fill-rule: evenodd;
      }

      .cls-2 {
        fill: #ececec;
      }
    </style>
  </defs>
  <path class="cls-1" d="M75.083,1a74.084,74.084,0,1,0,74.084,74.083A74.167,74.167,0,0,0,75.083,1Zm61.882,74.083A61.882,61.882,0,1,1,75.083,13.2,61.952,61.952,0,0,1,136.965,75.083ZM98.158,22.857a2.324,2.324,0,0,0-2.864.334l-8.352,8.352a2.324,2.324,0,0,0,.685,3.761,53.465,53.465,0,0,1,9.758,5.84L86.668,51.861a26,26,0,0,0-23.169,0L52.348,40.71a84.725,84.725,0,0,1,9.012-7.058,2.325,2.325,0,0,0,.38-3.594l-2.784-2.784a2.324,2.324,0,0,0-1.643-.681,2.293,2.293,0,0,0-.354.027c-20.13,3.1-33.542,24.48-34.1,25.389a2.324,2.324,0,0,0,.334,2.864l8.352,8.352A2.324,2.324,0,0,0,35.3,62.54a53.447,53.447,0,0,1,5.84-9.758L51.86,63.5a25.927,25.927,0,0,0,0,23.171L40.71,97.819a84.7,84.7,0,0,1-7.058-9.012,2.326,2.326,0,0,0-1.707-1.047,2.352,2.352,0,0,0-.244-0.013,2.324,2.324,0,0,0-1.643.68l-2.784,2.784a2.324,2.324,0,0,0-.654,2c3.1,20.131,24.48,33.542,25.389,34.1a2.323,2.323,0,0,0,2.864-.334l8.352-8.352a2.323,2.323,0,0,0-.685-3.76,53.453,53.453,0,0,1-9.758-5.841L63.5,98.307a26,26,0,0,0,23.169,0l11.15,11.15a83.964,83.964,0,0,1-9.011,7.057,2.325,2.325,0,0,0-.381,3.595l2.784,2.784a2.324,2.324,0,0,0,2,.654c20.131-3.1,33.542-24.48,34.1-25.389a2.324,2.324,0,0,0-.334-2.864l-8.352-8.352a2.325,2.325,0,0,0-3.761.685,53.443,53.443,0,0,1-5.84,9.758L98.307,86.669a25.928,25.928,0,0,0,0-23.17l11.15-11.15a83.987,83.987,0,0,1,7.057,9.011,2.327,2.327,0,0,0,1.707,1.049,2.374,2.374,0,0,0,.244.013,2.326,2.326,0,0,0,1.644-.681l2.784-2.784a2.324,2.324,0,0,0,.653-2C120.449,36.829,99.067,23.418,98.158,22.857ZM82.642,82.642a10.69,10.69,0,1,1,0-15.117A10.619,10.619,0,0,1,82.642,82.642Z"/>
  <path class="cls-2" d="M75.083,3.905a70.6,70.6,0,1,0,70.6,70.6A70.677,70.677,0,0,0,75.083,3.905Zm0,135.965A65.368,65.368,0,1,1,140.451,74.5,65.442,65.442,0,0,1,75.083,139.87ZM96.937,24.254l-8.352,8.352a58.117,58.117,0,0,1,12.309,7.735L87.085,54.15a23.663,23.663,0,0,0-24,0l-14.1-14.1A88.774,88.774,0,0,1,60.1,31.121l-2.784-2.784c-19.3,2.97-32.479,24.313-32.479,24.313L33.186,61a58.13,58.13,0,0,1,7.735-12.309L54.731,62.5a23.663,23.663,0,0,0,0,24l-14.1,14.1A88.749,88.749,0,0,1,31.7,89.489l-2.784,2.784c2.97,19.3,24.313,32.478,24.313,32.478l8.352-8.351a58.163,58.163,0,0,1-12.309-7.735l13.81-13.81a23.663,23.663,0,0,0,24,0l14.1,14.1a88.818,88.818,0,0,1-11.112,8.932l2.784,2.783c19.3-2.969,32.478-24.312,32.478-24.312L116.981,88a58.147,58.147,0,0,1-7.735,12.309L95.436,86.5a23.663,23.663,0,0,0,0-24l14.1-14.1a88.75,88.75,0,0,1,8.931,11.112l2.784-2.784C118.28,37.431,96.937,24.254,96.937,24.254ZM84.286,83.7a13.014,13.014,0,1,1,0-18.4A13.014,13.014,0,0,1,84.286,83.7Z"/>
</svg>
