<svg id="ger_berlin_flametrooper_2_icon" xmlns="http://www.w3.org/2000/svg" width="150" height="150" viewBox="0 0 150 150">
  <defs>
    <style>
      .cls-1, .cls-3 {
        fill: #151515;
      }

      .cls-2 {
        fill: #f2f2f2;
      }

      .cls-2, .cls-3, .cls-4 {
        fill-rule: evenodd;
      }

      .cls-4 {
        fill: #eee;
      }
    </style>
  </defs>
  <g id="ger_copy_3" data-name="ger copy 3">
    <rect id="Rectangle_2_copy_3" data-name="Rectangle 2 copy 3" class="cls-1" x="46" y="119" width="58" height="30"/>
    <path id="Rectangle_2_copy_3-2" data-name="Rectangle 2 copy 3" class="cls-2" d="M46,146v-3h58v3H46Zm0-24h58v3H46v-3Z"/>
    <path id="_58" data-name="58" class="cls-2" d="M68.471,138.154a4.091,4.091,0,0,1-1.954-.419l-0.9,2.811a4.939,4.939,0,0,0,1.386.479,7.8,7.8,0,0,0,1.665.2,5.049,5.049,0,0,0,3.589-1.246A4.734,4.734,0,0,0,73.6,136.34a5.1,5.1,0,0,0-.977-3.3,3.5,3.5,0,0,0-2.632-1.306l-0.638.12V130.2h3.768v-3.23h-6.5v7.736l1.236-.06a3.224,3.224,0,0,1,1.834.409,1.554,1.554,0,0,1,.578,1.365,1.819,1.819,0,0,1-.429,1.246A1.727,1.727,0,0,1,68.471,138.154Zm8.269-.718a3.46,3.46,0,0,0,1.166,2.811,4.542,4.542,0,0,0,3.021.977,4.429,4.429,0,0,0,2.991-1.046,3.625,3.625,0,0,0,1.216-2.9,4.925,4.925,0,0,0-.429-2.124,4.39,4.39,0,0,0-1.505-1.664,3.953,3.953,0,0,0,1.575-3.27,3.328,3.328,0,0,0-1.037-2.632,3.972,3.972,0,0,0-2.731-.917,3.9,3.9,0,0,0-2.891,1.057,3.825,3.825,0,0,0-1.057,2.831,4.061,4.061,0,0,0,1.435,3.329l-0.219.21c-0.133.126-.219,0.212-0.259,0.259s-0.123.136-.249,0.269a2.2,2.2,0,0,0-.269.329l-0.229.359a1.942,1.942,0,0,0-.219.438l-0.16.479a2.615,2.615,0,0,0-.12.568C76.751,137,76.741,137.21,76.741,137.436Zm5.243-.2a0.943,0.943,0,0,1-1.057,1.076,1.069,1.069,0,0,1-.887-0.458,1.759,1.759,0,0,1-.349-1.1,2.132,2.132,0,0,1,.718-1.674c0.319,0.225.565,0.412,0.738,0.558a3.027,3.027,0,0,1,.548.668A1.689,1.689,0,0,1,81.984,137.237Zm-1.774-6.58q0-1.076.778-1.076a0.7,0.7,0,0,1,.608.349,1.583,1.583,0,0,1,.229.887,3.116,3.116,0,0,1-.419,1.635q-0.4-.26-0.608-0.429a1.66,1.66,0,0,1-.4-0.538A1.786,1.786,0,0,1,80.21,130.657Z"/>
  </g>
  <g id="_33_grenadier_icon" data-name="33_grenadier_icon">
    <path class="cls-3" d="M113.73,91.129c-3.782,5.794-9.161,10.2-16.928,13.862-9.49,4.469-18.571,8.738-21.195,9.97-2.624-1.233-11.7-5.5-21.195-9.975-7.767-3.661-13.146-8.065-16.928-13.862-4.182-6.406-6.369-14.6-6.686-25.058V5.509h89.618V66.07C120.1,76.525,117.913,84.722,113.73,91.129Z"/>
    <path class="cls-4" d="M117.936,7.845v58.04c-0.307,10.025-2.363,17.836-6.286,23.878a31.41,31.41,0,0,1-6.7,7.387,45.211,45.211,0,0,1-9.213,5.659c-8.491,4.027-16.634,7.876-20.129,9.525-3.495-1.652-11.638-5.5-20.131-9.528a45.221,45.221,0,0,1-9.213-5.659,31.408,31.408,0,0,1-6.7-7.387c-3.923-6.043-5.979-13.854-6.286-23.878V7.845h84.657m4.861-4.869H28.418V65.958c0.675,22.723,9.856,34.085,24.979,41.253,10.45,4.954,20.371,9.642,21.826,10.328a0.9,0.9,0,0,0,.77,0c1.455-.686,11.376-5.374,21.826-10.328,15.122-7.168,24.3-18.53,24.978-41.253V2.975h0Z"/>
    <path class="cls-3" d="M75.844,118.294a2.049,2.049,0,0,1-.874-0.2c-1.113-.52-10.833-5.232-21.528-10.268-8.275-3.9-14.292-8.842-18.394-15.118-4.554-6.968-6.93-15.765-7.263-26.894V2.849A1.146,1.146,0,0,1,28.93,1.7h94.144a1.146,1.146,0,0,1,1.149,1.143V65.814c-0.333,11.129-2.709,19.927-7.263,26.894-4.1,6.276-10.119,11.221-18.394,15.117-10.7,5.037-20.734,9.749-21.847,10.27A2.049,2.049,0,0,1,75.844,118.294ZM30.08,65.763c0.611,20.287,7.892,32.251,24.343,40,10.413,4.9,19.894,9.5,21.421,10.219,1.529-.718,11.324-5.315,21.739-10.219,16.454-7.746,23.731-19.71,24.342-40V3.992H30.08V65.763Z"/>
    <path class="cls-4" d="M53.7,21.35H37.935l24.644,34.7V84.822H76.038V52.567l0.136-.2Zm48.486,5.511H95.9V20.58H90.211v6.281H83.925v5.684h6.286v6.281H95.9V32.545h6.285V26.861Zm0,46H95.9V66.581H90.211v6.281H83.925v5.684h6.286v6.281H95.9V78.546h6.285V72.862Zm9.518-23h-6.286V43.58H99.728v6.281H93.442v5.684h6.286v6.281h5.687V55.546H111.7V49.862Z"/>
  </g>
</svg>
