<svg id="ger_berlin_pilot_assaulter_2_icon" xmlns="http://www.w3.org/2000/svg" width="150" height="150" viewBox="0 0 150 150">
  <defs>
    <style>
      .cls-1 {
        fill: #2d64a9;
      }

      .cls-1, .cls-2 {
        fill-rule: evenodd;
      }

      .cls-2 {
        fill: #ededed;
      }
    </style>
  </defs>
  <path class="cls-1" d="M132.465,0.977H17.535V73.54s1.947,53.812,57.221,75.483h0.487c55.273-21.671,57.221-75.483,57.221-75.483V0.977"/>
  <path class="cls-2" d="M125.307,30.486h0M36.824,15.252C34.8,17.926,36.662,21,36.662,21a5.348,5.348,0,0,0,3.28,1.309,0.449,0.449,0,0,0,.123-0.012,4.23,4.23,0,0,1,.872-0.066c0.818,0,1.943.134,2.208,0.714,0.4,0.892.242,11.263,0.242,12.56a8.388,8.388,0,0,0,1.377,4.214c0.649,0.729,11.02,8.345,11.02,8.345,0,0.487-.972,4.781-0.972,4.781a12.659,12.659,0,0,1-2.166.182c-7.2,0-13.958-5.692-13.958-5.692a26.8,26.8,0,0,1-2.917-2.349,64.994,64.994,0,0,0-5.915-4.133,3.709,3.709,0,0,0-1.079-.164,4.346,4.346,0,0,0-4.026,3.81c-0.243,2.106.325,4.213,0.81,4.456s10.29,1.216,11.182,1.621,3.484,4.213,7.373,6.563c3.636,2.2,12.655,2.269,13.814,2.269h0.123s0.73,7.05,3.728,10.453,13.531,4.618,13.531,4.618c-0.486,2.188-7.211,1.7-11.992,2.107s-8.994,6.725-8.994,6.725c2.917-1.863,8.832-2.269,8.832-2.269s0.891,1.783-1.783,3-5.347,4.781-5.347,4.781c1.783-.972,6.158-1.053,6.158-1.053-0.405,2.025-.325,5.914.243,7.13a32.027,32.027,0,0,1,2.025,6.159,1.028,1.028,0,0,1-1.23.679,2.383,2.383,0,0,1-1.687-.6c-0.729-.809-6.32-5.347-10.534-8.913a10.962,10.962,0,0,0-7.151-2.5,10.726,10.726,0,0,0-2.329.23,4.267,4.267,0,0,0-2.431,4.213,8.975,8.975,0,0,0,1.539,5.266,3.79,3.79,0,0,0,.781.072,4.7,4.7,0,0,0,2.865-.8A5.525,5.525,0,0,1,47.53,97.7a2.942,2.942,0,0,1,1.529.361c1.458,0.891,12.965,9.723,16.044,10.776a4.4,4.4,0,0,0,1.429.252A3.671,3.671,0,0,0,70.127,106c0.08-1.378-.082-6.4,2.025-11.263s4.456-5.267,4.456-5.267a15.359,15.359,0,0,0-3.24,10.777,32.412,32.412,0,0,1,7.374-11.83,2.528,2.528,0,0,1,1.026-.472,0.257,0.257,0,0,1,.189.067c0.243,0.243-1.054,2.35-3.566,5.591a13.571,13.571,0,0,0-2.512,7.455s3.647-4.538,4.133-5.105a2.767,2.767,0,0,1,1.612-.9,0.339,0.339,0,0,1,.332.171c0.243,0.486-1.054,3.647,1.216,5.834a3.289,3.289,0,0,0,2.368.84c2.267,0,4.864-1.453,5.329-1.569a0.75,0.75,0,0,1,.183-0.024c0.53,0,.76.685-0.264,2.292-1.134,1.783-9.237,7.536-11.1,8.832s-4.7,3.647-5.024,5.105,0.486,5.348.486,5.348a11.969,11.969,0,0,0,4.154.54,54.075,54.075,0,0,0,6.866-.54,11.282,11.282,0,0,0-2.269-6.32c-0.649-1.053.729-2.108,1.783-2.674s8.832-3.566,14.828-8.022,7.13-12.154,6.157-14.5a1.653,1.653,0,0,0-1.46-1.282,3.043,3.043,0,0,0-1.943,1.12c-0.648.729-3.241,4.051-4.861,4.456a2.413,2.413,0,0,1-.588.075,1.819,1.819,0,0,1-1.6-2.749c0.729-1.782,3.565-5.752,5.185-7.941s0.729-6.076.729-6.076c6-.891,7.293-6.158,8.995-9.561,1.616-3.231,5.787-5.367,7.8-5.367a2.333,2.333,0,0,1,.3.018c4.8,0.626,4.861,6.077,4.861,6.077,1.621-3.322.649-8.833-4.456-9.562a7.012,7.012,0,0,0-.992-0.07c-4.637,0-8.245,4.527-8.245,4.527-2.188-6.077.162-14.747,3.889-14.909,0.1,0,.206-0.007.308-0.007a8.1,8.1,0,0,1,5.769,2.681c0.152-.454-0.757-6-6.033-6a8.44,8.44,0,0,0-1.178.086c-6.32.891-6.239,9.8-6.239,9.8a13.287,13.287,0,0,1-2.593-9.075,5.257,5.257,0,0,1,5.172-4.943h0.013a8,8,0,0,0-3.115-.707c-4.356,0-5.636,4.84-5.636,4.84C98,40.614,97.838,36.481,99.621,33.321a7.668,7.668,0,0,1,6.815-3.829,9.972,9.972,0,0,1,3.313.589c4.376,1.539,7.374,7.373,7.374,7.373a18.938,18.938,0,0,1,1.783-3.16c0.36,0.035.7,0.051,1.021,0.051,4.95,0,5.38-3.859,5.38-3.859a14.677,14.677,0,0,1-5.586,1.069,6.1,6.1,0,0,1-3.894-1.069,19.883,19.883,0,0,0-10.639-3.762,6.1,6.1,0,0,0-3.056.683c-5.47,3.181-6.805,9.237-5.753,16.368s6.565,14.585,8.023,20.986a9.433,9.433,0,0,1-3.809,9.8c-1.3-3.889-7.374-9.156-10.452-10.777s-8.913-3.565-9.318-5.348,1.459-3.078,1.459-3.078a5.42,5.42,0,0,0,1.944.81c-1.377-5.1.972-14.423,1.7-20.014S82.767,24,82.767,24c2.35-1.458,1.621-4.943,1.621-4.943-1.377,1.54-4.537,2.512-4.537,2.512a11.532,11.532,0,0,1-.729-4.457C76.447,18.98,77.014,21,77.014,21a10.127,10.127,0,0,0-1.462-.1,15.181,15.181,0,0,0-7.37,1.965,12.928,12.928,0,0,1-5.837,1.721,3.871,3.871,0,0,1-.4-0.019,5.732,5.732,0,0,0-.6-0.033,2.417,2.417,0,0,0-1.5.357c-1.135,1.459,1.3,2.35,1.539,2.431a5.653,5.653,0,0,1,.972.811L60.485,29.27c0,4.376,5.509,3,6.238,3.647s1.216,2.512.568,3.4-5.753,3.647-7.049,3.97a11.394,11.394,0,0,1-2.522.294,2.573,2.573,0,0,1-1.691-.375c-0.486-.568-7.941-6.644-7.941-6.644s-0.81-12.073-2.916-15.152-8.346-3.16-8.346-3.16"/>
</svg>
