<svg id="_15_fusilier_icon" data-name="15_fusilier_icon" xmlns="http://www.w3.org/2000/svg" width="150" height="150" viewBox="0 0 150 150">
  <defs>
    <style>
      .cls-1 {
        fill: #151515;
      }

      .cls-1, .cls-2 {
        fill-rule: evenodd;
      }

      .cls-2 {
        fill: #eee;
      }
    </style>
  </defs>
  <path class="cls-1" d="M122.946,113.9c-4.757,7.314-11.522,12.874-21.29,17.5C89.721,137.042,78.3,142.431,75,143.987c-3.3-1.557-14.721-6.945-26.656-12.593-9.768-4.622-16.533-10.182-21.29-17.5-5.26-8.087-8.01-18.435-8.409-31.634V5.81h112.71V82.264C130.957,95.463,128.206,105.811,122.946,113.9Z"/>
  <path id="Shape_32_copy_3" data-name="Shape 32 copy 3" class="cls-2" d="M111.38,105.4H50.259L33.35,28.616H94.471Z"/>
  <path id="Shape_32_copy_2" data-name="Shape 32 copy 2" class="cls-2" d="M128.295,8.87V82.218c-0.386,12.6-2.975,22.417-7.914,30.012a39.517,39.517,0,0,1-8.437,9.285,56.934,56.934,0,0,1-11.6,7.113C89.653,133.689,79.4,138.527,75,140.6c-4.4-2.077-14.653-6.915-25.347-11.976a56.934,56.934,0,0,1-11.6-7.113,39.5,39.5,0,0,1-8.437-9.285c-4.939-7.595-7.528-17.413-7.914-30.012V8.87h106.59m6.12-6.12H15.585V82.31c0.85,28.56,12.41,42.84,31.45,51.85,13.157,6.226,25.648,12.118,27.48,12.981a1.134,1.134,0,0,0,.97,0c1.832-.863,14.323-6.755,27.48-12.981,19.04-9.01,30.6-23.29,31.45-51.85V2.75h0Z"/>
  <path id="Shape_32_copy" data-name="Shape 32 copy" class="cls-1" d="M75,148.7a2.559,2.559,0,0,1-1.1-.247c-1.4-.658-14.027-6.615-27.481-12.982-10.41-4.926-17.979-11.178-23.139-19.112-5.729-8.809-8.718-19.931-9.137-34,0-.014,0-0.029,0-0.043V2.75A1.445,1.445,0,0,1,15.585,1.3h118.83A1.445,1.445,0,0,1,135.86,2.75V82.31c0,0.014,0,.029,0,0.043-0.418,14.07-3.407,25.192-9.136,34-5.161,7.934-12.73,14.186-23.14,19.112C90.129,141.833,77.5,147.79,76.1,148.448A2.555,2.555,0,0,1,75,148.7ZM17.03,82.288c0.769,25.648,9.928,40.773,30.623,50.566,13.1,6.2,25.426,12.013,27.347,12.919,1.923-.907,14.245-6.719,27.347-12.919,20.7-9.793,29.854-24.918,30.623-50.566V4.195H17.03V82.288Z"/>
</svg>
