<svg xmlns="http://www.w3.org/2000/svg" width="150" height="150" viewBox="0 0 150 150">
  <defs>
    <style>
      .cls-1 {
        fill: #eee;
      }

      .cls-2 {
        fill: #151515;
      }
    </style>
  </defs>
  <g id="Layer_6" data-name="Layer 6">
    <path class="cls-1" d="M70.436,3.39741H19.913V69.46s.26769,29.17757,18.46846,48.71066a158.48306,158.48306,0,0,0,36.51236,28.432h.21228a158.48306,158.48306,0,0,0,36.51236-28.432C129.81927,98.63752,130.087,69.46,130.087,69.46V3.39741H70.436Z"/>
    <path class="cls-2" d="M75.48242,148.10237h-.96484l-.33106-.17676c-.20117-.1084-20.36523-10.98535-36.90234-28.73242C18.89746,99.46077,18.42383,70.68831,18.41309,69.47346V1.89729H131.58691v67.5625c-.01074,1.22852-.48437,30.001-18.87109,49.7334-16.53711,17.74707-36.70117,28.624-36.90234,28.73242ZM21.41309,4.89729v64.5625c.00293.27149.48925,28.8252,18.0664,47.68848C54.0752,132.81233,71.56348,143.01741,75,144.9471c3.43652-1.92969,20.9248-12.13477,35.52051-27.79883,17.57715-18.86328,18.06347-47.417,18.0664-47.70313V4.89729Z"/>
    <path class="cls-2" d="M117.54347,38.93736a26.2613,26.2613,0,0,0-8.04879-8.46685c-2.5087-1.46343-4.18114-2.40418-3.13587-4.5993s5.22646-1.3589,6.06268-1.46343,4.49477.52264,3.97213-2.19512-9.82575-3.6585-11.91635-3.24039S96.11495,23.467,92.35188,22.10814s2.82228-4.70383,3.8676-5.22646c1.04527-.52264,4.91288-1.25433,3.44945-2.82229s-7.73516-3.13586-11.91635-.4181-6.06267,6.37625-6.89894,6.89894c-.83622.52263-3.03134,1.46338-3.97208-.31363-.9408-1.777.94074-3.44945,3.03133-4.80835s6.27178-2.82229,5.64457-3.86756-7.31705-2.09059-10.871.31358c-3.554,2.40418-8.04879,8.46685-8.676,9.19859-.62716.73169-3.34492,2.92681-5.12193.62717s1.25438-4.39024,1.88154-5.12193,9.09406-5.12193,8.885-5.85367c-.2091-.73169-4.5993-2.71776-10.662.52268s-7.63063,7.73516-9.82575,11.70729A18.9651,18.9651,0,0,1,45.32794,29.379l-.07577-.17711a4.35072,4.35072,0,0,0-5.69465-2.2818h0a4.35069,4.35069,0,0,0-2.28179,5.69466l.11181.26129c-2.319.75028-4.43049,1.36864-5.03545,1.67112-1.04527.52268-2.29965,2.29964-1.04527,5.331,1.25432,3.03134,3.86755,3.03134,7.83968,1.1498,0,0,.52514-.27225,1.4202-.72157l.42862,1.00179a4.338,4.338,0,0,0,7.9765-3.41286l-.56671-1.32451A81.51656,81.51656,0,0,1,60.6795,31.93389c7.63063-1.88149,23.83269-2.61323,34.07655.31358,10.24386,2.92686,21.01041,8.98953,22.26473,9.40764C118.27516,42.07327,119.634,42.49138,117.54347,38.93736Z"/>
    <path class="cls-2" d="M116.18457,76.14982c-.83622-2.5087-4.70383-7.73521-7.73516-9.93028s-6.12265-4.41543-2.92681-5.64461a17.32577,17.32577,0,0,1,6.79436-1.04528c1.04532.10453,3.13592-.4181,1.46343-2.19512s-9.09406-3.24039-12.439-1.98606-7.00347,3.76308-10.13933,2.71776c-3.13592-1.04528.52263-3.763,2.61322-4.80835s5.22646-2.29965,3.65851-3.6585c-1.56791-1.35891-8.57138-1.35891-10.871-.20906-2.29965,1.1498-5.54009,5.95815-6.58536,6.89889-1.04527.9408-3.554,1.04532-3.8676-.31358s1.777-3.6585,3.03138-4.49476,6.16721-2.82229,5.331-3.97209c-.83622-1.14985-7.94422-2.71775-12.648,1.98607s-4.91287,6.27173-7.00347,7.94421-4.91287.20906-4.59929-1.98606,6.68989-7.00347,8.885-7.52611c2.19512-.52263,1.46343-2.40417-.94075-2.92681S57.43911,46.88162,53.88508,54.3032a29.9334,29.9334,0,0,1-8.48255,10.35421l-.19139-.44731a3.91942,3.91942,0,1,0-7.2069,3.08352l.3509.82018a25.74263,25.74263,0,0,0-4.53967,1.65972c-2.09059,1.14984-1.98607,4.07665-.94079,5.74909s3.76307,2.29965,7.31705.52268c0,0,.48081-.23287,1.29145-.6207l.38935.91A3.91943,3.91943,0,0,0,49.07942,73.251l-.4947-1.15621c3.68149-1.68765,7.66555-3.4423,9.89966-4.20285,4.91287-1.67244,20.48777-3.763,30.31352-1.777,9.82575,1.986,19.02434,6.06267,20.80131,7.73515S117.02078,78.65852,116.18457,76.14982Z"/>
    <path class="cls-2" d="M103.32748,98.51908c-1.98607-1.04527-4.39024-1.88154-3.03139-3.65855,1.3589-1.777,7.00347-1.5679,7.83973-2.09054.83622-.52269-1.14984-2.40418-2.82228-3.03139s-7.00347-.94074-9.40764.73174-6.68989,2.61323-7.42158,1.25433c-.73174-1.35886,1.25433-2.92681,2.92681-3.763,1.67244-.83627,5.331-2.29965,3.44945-3.24044s-6.48084-1.67244-9.51217.41811a36.36865,36.36865,0,0,0-5.85362,5.331c-.62717.62716-2.71776,1.56791-3.24045-.10453-.52263-1.67248.9408-3.345,2.71781-4.28571,1.777-.94079,5.64457-2.5087,4.39019-3.44949s-7.94421-1.04528-10.55744,2.19512-4.80835,6.06272-6.16725,7.00347-3.2404.10452-3.34492-.94075c-.10453-1.04532.10452-2.71776,3.13586-4.80835,3.03139-2.09059,6.16725-3.24044,5.64462-4.07666-.52269-.83621-6.37631-.83621-10.03481,1.35891-3.65855,2.19512-4.18119,5.12193-5.85367,8.25779a19.94109,19.94109,0,0,1-5.55765,5.85626l-.104-.243a3.38391,3.38391,0,0,0-6.22218,2.66229l.32209.75277c-1.718.54578-2.9156.65114-3.28143.79748-.52263.20906-2.61322,1.568-1.56795,4.5993s3.8676,2.61323,6.48083,1.25437c0,0,.37878-.18293,1.00663-.48531l.37957.88713a3.38393,3.38393,0,0,0,6.22223-2.66228l-.49256-1.15117c3.17554-1.51142,6.44327-3.04753,7.51823-3.48731,2.29965-.94079,13.58883-2.40417,21.84663-2.09059s19.756,5.43551,21.84662,6.58536c2.09059,1.1498,5.43551,4.18114,5.64462,2.40417C110.43547,105.52255,105.31354,99.56435,103.32748,98.51908Z"/>
  </g>
</svg>
