<svg id="ger_normandy_pilot_fighter_2_icon" xmlns="http://www.w3.org/2000/svg" width="150" height="150" viewBox="0 0 150 150">
  <defs>
    <style>
      .cls-1 {
        fill: #cd2f2f;
      }

      .cls-1, .cls-2 {
        fill-rule: evenodd;
      }

      .cls-2 {
        fill: #d9d9d9;
      }
    </style>
  </defs>
  <path class="cls-1" d="M75,148.5A73.5,73.5,0,1,1,148.5,75,73.5,73.5,0,0,1,75,148.5ZM75,5.694A69.306,69.306,0,1,0,144.306,75,69.306,69.306,0,0,0,75,5.694Zm0,134.417A65.111,65.111,0,1,1,140.111,75,65.111,65.111,0,0,1,75,140.111ZM75,14.482C50.234,52.431,14.083,74.8,14.083,74.8,57.823,102.163,75,133.92,75,133.92,100.366,94.573,135.318,74.4,135.318,74.4,92.576,47.238,75,14.482,75,14.482Zm44.739,62.165-18.3-19.4-1.173.325-0.35,1.248L117.892,77.8l-3.021,2.646L100.515,63.116l-1.148.374-0.05,1.323L113.3,81.441l-3.246,2.671-10.735-15-1.173.075-0.524,1.3,10.761,15.2-3.171,2.547L96.7,73.7l-1.173.075L95.272,75l8.089,14.68L98.843,93.4,84.287,55.5l-2.1-.025,0.449-3.932,12.845-5.018L123.035,73.5ZM68.6,115.957l2.584-.862V39.673c0-.187-0.225-2.884-2.359-3.221a41.171,41.171,0,0,0-4.381-.412l-0.449-.786a9.078,9.078,0,0,1,3.146-2.921,9.786,9.786,0,0,1,2.884-.786h8.913a5.661,5.661,0,0,0,1.311-.375l0.524,0.712a7.142,7.142,0,0,0-.974,1.049,6.06,6.06,0,0,0-.412,1.985v80.1l2.7,0.786v2.172H68.6v-2.022ZM67.91,55.477l-2.1.025L51.257,93.4l-4.519-3.72L54.828,75l-0.25-1.223L53.4,73.7l-8.513,14.53L41.72,85.685l10.76-15.2-0.524-1.3-1.173-.075-10.735,15L36.8,81.441,50.783,64.814l-0.05-1.323-1.148-.374L35.229,80.443,32.208,77.8,50.184,58.822l-0.349-1.248-1.173-.325-18.3,19.4-3.3-3.146,27.55-26.976L67.46,51.544Z"/>
  <path id="Shape_191_copy" data-name="Shape 191 copy" class="cls-2" d="M74.626,33.957a1.348,1.348,0,1,1-1.348-1.348A1.348,1.348,0,0,1,74.626,33.957Z"/>
</svg>
