<svg id="ger_normandy_assault_3_icon" xmlns="http://www.w3.org/2000/svg" width="150" height="150" viewBox="0 0 150 150">
  <defs>
    <style>
      .cls-1, .cls-4 {
        fill: #151515;
      }

      .cls-1, .cls-2, .cls-3, .cls-5 {
        fill-rule: evenodd;
      }

      .cls-2 {
        fill: #ad2d2d;
      }

      .cls-3 {
        fill: #eee;
      }

      .cls-5 {
        fill: #f2f2f2;
      }
    </style>
  </defs>
  <g id="_91_infantry_division" data-name="91_infantry_division">
    <path class="cls-1" d="M121.835,2.068H28.165v67.54C28.165,95.3,49.307,116.13,75,116.13S121.835,95.3,121.835,69.607V2.068"/>
    <path id="Shape_18_copy_2" data-name="Shape 18 copy 2" class="cls-2" d="M75,116.13c-25.693,0-46.835-20.829-46.835-46.523V2.068H75V116.13Z"/>
    <path class="cls-3" d="M98.99,73.63l-56.217-44.1L40.28,35.605,36.33,21.218l14.139,0.573-4.494,3.576,56.8,44.562,9.7,3.909-7.509.877,0.853,7.085Z"/>
    <path id="Shape_19_copy" data-name="Shape 19 copy" class="cls-1" d="M36.922,21.689l12.331,0.5-4,3.181,57.3,44.95,8.134,3.279-6.216.726,0.726,6.035-5.763-6.9,0.026-.033L42.585,28.812l-2.221,5.414L36.922,21.689m-1.184-.941,0.323,1.177L39.5,34.462,40.2,36.985l0.993-2.421,1.773-4.322L98.677,73.951l0.07,0.083,5.762,6.9,1.93,2.31-0.359-2.989-0.619-5.145,5.326-.622,3.475-.406-3.244-1.308L103,69.539,46.694,25.365l3.114-2.478,1.876-1.493-2.4-.1-12.331-.5-1.22-.049h0Z"/>
    <path id="Shape_18_copy" data-name="Shape 18 copy" class="cls-3" d="M78.585,2.068C78.333,7.755,78.4,7.962,78.53,8.353,78.6,8.571,80.4,13.04,83.875,21.637l0.158,9.17c-3.167,2.836-14.658,13.885-12.657,25.453,1.808,10.454,12.779,18.557,17.23,21.457L74.938,99.432c-0.46.722-4.454,7.2-2.969,12.4,0.472,1.65.954,3.089,1.38,4.266,0.548,0.019,1.1.032,1.65,0.032,0.934,0,1.861-.031,2.782-0.085-0.486-1.233-1.159-3.081-1.809-5.357-0.826-2.89,1.508-7.49,2.483-9.027l14.792-23.5a2.083,2.083,0,0,0-.732-2.918c-0.151-.086-15.144-8.744-17.037-19.689C73.623,44.822,87.322,33.459,87.46,33.345a2.082,2.082,0,0,0,.754-1.639L88.032,21.179a2.072,2.072,0,0,0-.151-0.744c-1.9-4.708-4.7-11.651-5.308-13.172,0-.762.083-2.889,0.183-5.195h-4.17Z"/>
  </g>
  <g id="ger_copy" data-name="ger copy">
    <rect id="Rectangle_2_copy_3" data-name="Rectangle 2 copy 3" class="cls-4" x="46" y="119" width="58" height="30"/>
    <path id="Rectangle_2_copy_3-2" data-name="Rectangle 2 copy 3" class="cls-5" d="M46,146v-3h58v3H46Zm0-24h58v3H46v-3Z"/>
    <path id="_1058" data-name="1058" class="cls-5" d="M55,140.925h7.7v-2.911H60.421V126.73H58.328l-4.047,4.087,1.416,1.794,0.957-.658,1-1.415-0.379,1.535v5.941H55v2.911Zm10.263-7q0,3.847,1.077,5.573a3.649,3.649,0,0,0,3.33,1.724,3.717,3.717,0,0,0,3.32-1.714q1.127-1.714,1.127-5.583,0-3.888-1.077-5.572a4.1,4.1,0,0,0-6.649.03Q65.261,130.1,65.261,133.927Zm3.33,0a16.79,16.79,0,0,1,.229-3.4,0.97,0.97,0,0,1,.847-0.947,1,1,0,0,1,.867.957,15.492,15.492,0,0,1,.249,3.389,17.051,17.051,0,0,1-.229,3.459,0.965,0.965,0,0,1-.867.927,0.975,0.975,0,0,1-.867-0.947A17.079,17.079,0,0,1,68.591,133.927Zm11.12,4.227a4.091,4.091,0,0,1-1.954-.419l-0.9,2.811a4.939,4.939,0,0,0,1.386.479,7.8,7.8,0,0,0,1.665.2,5.049,5.049,0,0,0,3.589-1.246,4.734,4.734,0,0,0,1.336-3.638,5.1,5.1,0,0,0-.977-3.3,3.5,3.5,0,0,0-2.632-1.306l-0.638.12V130.2h3.768v-3.23h-6.5v7.736l1.236-.06a3.224,3.224,0,0,1,1.834.409,1.554,1.554,0,0,1,.578,1.365,1.819,1.819,0,0,1-.429,1.246A1.727,1.727,0,0,1,79.711,138.154Zm8.269-.718a3.46,3.46,0,0,0,1.166,2.811,4.542,4.542,0,0,0,3.021.977,4.429,4.429,0,0,0,2.991-1.046,3.625,3.625,0,0,0,1.216-2.9,4.925,4.925,0,0,0-.429-2.124,4.39,4.39,0,0,0-1.505-1.664,3.953,3.953,0,0,0,1.575-3.27,3.328,3.328,0,0,0-1.037-2.632,3.972,3.972,0,0,0-2.731-.917,3.9,3.9,0,0,0-2.891,1.057,3.825,3.825,0,0,0-1.057,2.831,4.061,4.061,0,0,0,1.436,3.329l-0.219.21c-0.133.126-.219,0.212-0.259,0.259s-0.123.136-.249,0.269a2.2,2.2,0,0,0-.269.329l-0.229.359a1.942,1.942,0,0,0-.219.438l-0.159.479a2.615,2.615,0,0,0-.12.568C87.991,137,87.981,137.21,87.981,137.436Zm5.244-.2a0.943,0.943,0,0,1-1.057,1.076,1.069,1.069,0,0,1-.887-0.458,1.759,1.759,0,0,1-.349-1.1,2.132,2.132,0,0,1,.718-1.674c0.319,0.225.565,0.412,0.738,0.558a3.03,3.03,0,0,1,.548.668A1.689,1.689,0,0,1,93.224,137.237Zm-1.774-6.58q0-1.076.778-1.076a0.7,0.7,0,0,1,.608.349,1.583,1.583,0,0,1,.229.887,3.116,3.116,0,0,1-.419,1.635q-0.4-.26-0.608-0.429a1.66,1.66,0,0,1-.4-0.538A1.786,1.786,0,0,1,91.45,130.657Z"/>
  </g>
</svg>
