<svg id="ger_moscow_antitank_2_icon" xmlns="http://www.w3.org/2000/svg" width="150" height="150" viewBox="0 0 150 150">
  <defs>
    <style>
      .cls-1 {
        fill: #f2f2f2;
      }

      .cls-1, .cls-2, .cls-3 {
        fill-rule: evenodd;
      }

      .cls-2 {
        fill: #ae2828;
      }

      .cls-3 {
        fill: #151515;
      }
    </style>
  </defs>
  <path class="cls-1" d="M74.874,148.022c-55.219-35.907-51.6-75.134-51.6-75.134V1.978h103.45v70.91s3.621,39.227-51.6,75.134H74.874Z"/>
  <path class="cls-2" d="M74.448,2.87L23.275,45.879V66.34L74.448,23.331l52.277,43.938V46.808ZM24.48,85.1a72.514,72.514,0,0,0,5.535,15.809L74.448,63.564l45.218,38a73.369,73.369,0,0,0,5.677-15.689L74.448,43.1ZM38.2,114.607A110.416,110.416,0,0,0,48.25,126.619l26.2-22.018,26.805,22.529a111.583,111.583,0,0,0,10.132-11.946L74.448,84.14Z"/>
  <path class="cls-3" d="M75.527,149.372H74.473l-0.335-.218c-28.812-18.736-41.47-38.425-47.015-51.642-5.867-13.985-5.275-23.706-5.2-24.681V1.045H128.074V72.831c0.078,0.974.67,10.7-5.2,24.681-5.545,13.217-18.2,32.906-47.015,51.642ZM24.958,3.994V72.95l-0.006.062c-0.008.094-1.123,9.773,4.735,23.636,5.378,12.728,17.6,31.668,45.313,49.846,27.806-18.241,40.029-37.25,45.388-50.025,5.8-13.825,4.668-23.361,4.66-23.456l-0.006-.124V3.994H24.958Z"/>
</svg>
