<svg id="ger_berlin_assault_3_icon" xmlns="http://www.w3.org/2000/svg" width="150" height="150" viewBox="0 0 150 150">
  <defs>
    <style>
      .cls-1 {
        fill: #e8b445;
      }

      .cls-1, .cls-2, .cls-4 {
        fill-rule: evenodd;
      }

      .cls-2, .cls-3 {
        fill: #151515;
      }

      .cls-4 {
        fill: #f2f2f2;
      }
    </style>
  </defs>
  <g id="_20_antitank_icon" data-name="20_antitank_icon">
    <path class="cls-1" d="M74.868,115.224a1.26,1.26,0,0,1-.361-0.054L13.661,96.616a1.237,1.237,0,0,1-.578-1.988l4.452-5.2a1.236,1.236,0,0,1,1.52-.287c9.906,5.267,19.439,7.938,28.335,7.938,8.947,0,14.6-2.781,16.253-3.724l2.4-57.5L51.76,17.778a1.237,1.237,0,0,1,1.168-1.988l13.852,2.244,0.428-10.28a4.141,4.141,0,0,1,4.147-3.978H78.5a4.141,4.141,0,0,1,4.147,3.978l0.428,10.28,13.852-2.244A1.237,1.237,0,0,1,98.1,17.778L83.822,35.86l2.4,57.5c1.653,0.941,7.3,3.724,16.251,3.724h0c8.9,0,18.431-2.671,28.335-7.938a1.237,1.237,0,0,1,1.52.287l4.452,5.2a1.238,1.238,0,0,1-.578,1.988L75.352,115.17a1.259,1.259,0,0,1-.361.054H74.868Z"/>
    <path id="Shape_31_copy" data-name="Shape 31 copy" class="cls-2" d="M78.5,5.013a2.914,2.914,0,0,1,2.911,2.793L81.9,19.478l15.227-2.467L82.567,35.453l2.442,58.619s6.168,4.248,17.461,4.248c7.488,0,17.23-1.869,28.916-8.083l4.452,5.2L74.992,113.987H74.868L14.022,95.433l4.452-5.2C30.161,96.452,39.9,98.32,47.389,98.32c11.291,0,17.461-4.248,17.461-4.248l2.442-58.619L52.731,17.012l15.227,2.467L68.445,7.806a2.914,2.914,0,0,1,2.911-2.793H78.5m0-2.474H71.356A5.374,5.374,0,0,0,65.973,7.7L65.6,16.591,53.126,14.57a2.474,2.474,0,0,0-2.337,3.975L64.783,36.266,62.436,92.61a24.4,24.4,0,0,1-3.118,1.33,36.17,36.17,0,0,1-11.929,1.907c-8.691,0-18.029-2.622-27.754-7.793a2.473,2.473,0,0,0-3.039.574l-4.452,5.2A2.474,2.474,0,0,0,13.3,97.8l60.846,18.554a2.483,2.483,0,0,0,.721.108h0.124a2.483,2.483,0,0,0,.721-0.108L136.559,97.8a2.474,2.474,0,0,0,1.157-3.976l-4.452-5.2a2.473,2.473,0,0,0-3.039-.574c-9.725,5.171-19.063,7.793-27.755,7.793a36,36,0,0,1-12.129-1.978,24.15,24.15,0,0,1-2.918-1.256L85.077,36.266,99.07,18.545a2.474,2.474,0,0,0-2.337-3.975L84.257,16.591,83.887,7.7A5.375,5.375,0,0,0,78.5,2.539h0Z"/>
  </g>
  <g id="ger_copy_10" data-name="ger copy 10">
    <rect id="Rectangle_2_copy_3" data-name="Rectangle 2 copy 3" class="cls-3" x="46" y="119" width="58" height="30"/>
    <path id="Rectangle_2_copy_3-2" data-name="Rectangle 2 copy 3" class="cls-4" d="M46,146v-3h58v3H46Zm0-24h58v3H46v-3Z"/>
    <path id="_90" data-name="90" class="cls-4" d="M65.222,131.475a4.558,4.558,0,0,0,1.146,3.349,3.513,3.513,0,0,0,2.542,1.157h0.04a2.091,2.091,0,0,0,1.635-.718,3.929,3.929,0,0,1-1.246,2.1,4.662,4.662,0,0,1-2.542,1.087l0.718,2.771a6,6,0,0,0,1.914-.389,6.448,6.448,0,0,0,1.784-1.056,6.942,6.942,0,0,0,1.505-1.735,8.881,8.881,0,0,0,1.017-2.552,13.931,13.931,0,0,0,.379-3.359,5.96,5.96,0,0,0-1.236-4.057,4.231,4.231,0,0,0-3.35-1.406,3.979,3.979,0,0,0-3.15,1.316A5.093,5.093,0,0,0,65.222,131.475Zm3.15-.12a2.36,2.36,0,0,1,.309-1.306,0.982,0.982,0,0,1,.867-0.468q1.416,0,1.416,2.193a4.976,4.976,0,0,1-.1.857,1.5,1.5,0,0,1-1.136.439,1.221,1.221,0,0,1-.977-0.449A1.907,1.907,0,0,1,68.372,131.355Zm8.13,2.572q0,3.847,1.077,5.573a3.649,3.649,0,0,0,3.329,1.724,3.717,3.717,0,0,0,3.32-1.714q1.127-1.714,1.127-5.583,0-3.888-1.077-5.572a4.1,4.1,0,0,0-6.649.03Q76.5,130.1,76.5,133.927Zm3.33,0a16.782,16.782,0,0,1,.229-3.4,0.97,0.97,0,0,1,.847-0.947,1,1,0,0,1,.867.957,15.5,15.5,0,0,1,.249,3.389,17.043,17.043,0,0,1-.229,3.459,0.965,0.965,0,0,1-.867.927,0.975,0.975,0,0,1-.867-0.947A17.071,17.071,0,0,1,79.831,133.927Z"/>
  </g>
</svg>
