<svg id="ger_normandy_flametrooper_2_icon" xmlns="http://www.w3.org/2000/svg" width="150" height="150" viewBox="0 0 150 150">
  <defs>
    <style>
      .cls-1 {
        fill: #eee;
      }

      .cls-1, .cls-2 {
        fill-rule: evenodd;
      }

      .cls-2 {
        fill: #151515;
      }
    </style>
  </defs>
  <path id="Shape_33_copy_9" data-name="Shape 33 copy 9" class="cls-1" d="M107.6,2.75H15.585V82.31c0.85,28.56,12.41,42.84,31.45,51.85,13.157,6.226,25.648,12.118,27.48,12.981a1.134,1.134,0,0,0,.97,0c1.832-.863,14.323-6.755,27.48-12.981,19.04-9.01,30.6-23.29,31.45-51.85V29.693A36.433,36.433,0,0,1,107.6,2.75h0Z"/>
  <path id="Shape_33_copy_9-2" data-name="Shape 33 copy 9" class="cls-2" d="M75,148.7a2.559,2.559,0,0,1-1.1-.247c-1.4-.658-14.027-6.615-27.481-12.982-10.41-4.926-17.979-11.178-23.139-19.112-5.729-8.809-8.718-19.931-9.137-34,0-.014,0-0.029,0-0.043V2.75A1.445,1.445,0,0,1,15.585,1.3H107.6a1.444,1.444,0,0,1,1.406,1.112,35.189,35.189,0,0,0,25.749,25.872,1.445,1.445,0,0,1,1.105,1.4V82.31c0,0.014,0,.029,0,0.043-0.418,14.07-3.407,25.192-9.136,34-5.161,7.934-12.73,14.186-23.14,19.112C90.129,141.833,77.5,147.79,76.1,148.448A2.555,2.555,0,0,1,75,148.7ZM17.03,82.288c0.769,25.648,9.928,40.773,30.623,50.566,13.1,6.2,25.426,12.013,27.347,12.919,1.923-.907,14.245-6.719,27.347-12.919,20.7-9.793,29.854-24.918,30.623-50.566V30.813a37.78,37.78,0,0,1-16.777-9.8,37.774,37.774,0,0,1-9.718-16.822H17.03V82.288Z"/>
  <path class="cls-2" d="M83.143,5.519a26.553,26.553,0,0,1,.681,5.21c0,2.38-.341,7.023-4.654,13.48s-13.622,12.8-16.687,14.385-5.222,3.058-5.563,4.644c-1.009,4.7,1.93,4.984,4.087,6.456s2.815,4.783,1.589,6.569A3.191,3.191,0,0,1,59.852,57.7a3.966,3.966,0,0,1-1.23-.19A55.8,55.8,0,0,0,47.5,47.089,103.165,103.165,0,0,0,33.422,39.5a16.668,16.668,0,0,1,1.022,3.965,25.082,25.082,0,0,0-4.087,3.4c-0.794,1.133-2.5,3.625-2.5,3.625l-5.222,5.777s2.5,3.059,3.633,3.059,3.859-3.059,3.859-3.059a13.536,13.536,0,0,0,2.573.252,8.766,8.766,0,0,0,2.194-.252c2.157-.567,3.973-3.284,3.973-3.284s3.178,4.077,3.406,4.53,0.568,7.589.227,8.268a1.125,1.125,0,0,1-1.037.375,6.239,6.239,0,0,1-1.234-.148,8.426,8.426,0,0,1-2.271-1.246,2.588,2.588,0,0,0-1.772-.708,2.379,2.379,0,0,0-.838.142c-6.017,2.266-5.335,3.738-5.335,3.738s-0.568,9.741-.341,10.534,5,5.21,5,5.21c4.881-1.359,3.746-6.569,3.746-6.569l-3.746-.68s-0.455-4.531,0-5.777a1.68,1.68,0,0,1,1.621-1.135c0.052,0,.082,0,0.082,0,6.243,2.378,8.286,6.8,12.26,9.288a5.913,5.913,0,0,0,3.117,1.051,3.29,3.29,0,0,0,2.672-1.278c5.676,5.891,12.941,5.1,17.482,5.437s9.989,3.852,9.989,3.852-1.7,4.3.568,10.534,6.7,6.117,11.806,9.855,3.291,6.57,4.994,12.913a8.845,8.845,0,0,0,7.946,6.569v-9.855c-1.362-.113-3.746-1.359-4.314-2.6s-0.227-6-.34-8.382a3.1,3.1,0,0,0-3.065-2.944c-0.908-.114-3.178-0.34-3.519-2.266s1.135-6.229,2.951-10.195,2.158-10.081,2.158-10.081c0.065,0,.131-0.007.2-0.007,1.669,0,3.713,1.349,5.023,3.746,1.362,2.492,4.541,9.4,6.7,11.666a11.761,11.761,0,0,0,8.8,3.553,17.612,17.612,0,0,0,5.961-1.061c-9.421-1.358-14.792-14.125-18.162-17.67a10.07,10.07,0,0,0-7.418-3.255,8.087,8.087,0,0,0-1.891.2,14.656,14.656,0,0,0-6.015-4.757c-3.115-1.166-10.07-1.249-11.988-1.249-0.319,0-.5,0-0.5,0s0-3.058,1.589-3.964,3.52-.227,6.017-1.812a8.756,8.756,0,0,0,3.292-4.758,19.736,19.736,0,0,1-2.634.184c-4.084,0-5.993-1.429-5.993-1.429a40.663,40.663,0,0,0,4.1.2A24.956,24.956,0,0,0,95.743,60a7.928,7.928,0,0,0,5.108-6.457,16.557,16.557,0,0,1-3.391.325,22.849,22.849,0,0,1-4.442-.438s5.221-.906,8.286-4.078,2.5-8.495,2.5-8.495A16.461,16.461,0,0,1,91.72,46.217c-0.546,0-.859-0.034-0.859-0.034a22.757,22.757,0,0,0,10.784-8.608c3.861-6.229.682-13.365,0.682-13.365-5.562,9.967-11.125,12.8-11.125,12.8s7.038-7.249,6.812-13.365a14.2,14.2,0,0,0-3.973-9.515,18.43,18.43,0,0,1-8.514,16.538,22.025,22.025,0,0,0,6.016-14.5c0.455-9.4-8.4-10.648-8.4-10.648M71.6,91.831H67.4v4.984H56.5V91.831H52.645l-1.7,41.23H56.5V104.405a5.449,5.449,0,0,1,10.9,0v28.656h5.563L71.6,91.831"/>
</svg>
