<svg id="ger_normandy_prem_pilot_fighter_2" xmlns="http://www.w3.org/2000/svg" width="150" height="150" viewBox="0 0 150 150">
  <defs>
    <style>
      .cls-1 {
        fill: #eee;
      }

      .cls-1, .cls-2 {
        fill-rule: evenodd;
      }

      .cls-2 {
        fill: #191919;
      }
    </style>
  </defs>
  <path id="Shape_291_copy" data-name="Shape 291 copy" class="cls-1" d="M66.658,12.549s-24.462-.585-35.65-8.58l-10.619,8L20.01,95.233s-0.949,19.7,22.565,30.031c21.019,9.239,28.445,13.456,32.048,19.5h0.754c3.6-6.045,11.028-10.262,32.047-19.5,23.514-10.335,22.566-30.031,22.566-30.031L129.61,11.964l-10.619-8c-11.188,8-35.651,8.58-35.651,8.58H66.658"/>
  <path id="Shape_291_copy_2" data-name="Shape 291 copy 2" class="cls-2" d="M108.024,126.633c-21.382,9.4-28.124,13.46-31.364,18.9l-0.435.73L75,147.886l-1.223-1.626-0.434-.73c-3.241-5.437-9.983-9.5-31.365-18.9C17.8,116.006,18.506,95.368,18.516,95.161L18.9,11.216l12.088-9.1,0.892,0.637c10.564,7.55,34.053,8.281,34.8,8.3H83.34c0.2-.005,24.1-0.668,34.781-8.3l0.893-.637,12.088,9.1,0.382,84.01C131.493,95.368,132.2,116.006,108.024,126.633ZM128.5,95.3l-0.378-82.59-9.173-6.906C107.2,13.388,84.367,14.02,83.376,14.044H66.622C65.631,14.02,42.8,13.388,31.053,5.806L21.88,12.712,21.5,95.24c-0.034.825-.557,18.885,21.672,28.655C62.439,132.362,70.769,136.769,75,142.62c4.23-5.851,12.56-10.258,31.822-18.725C129.051,114.125,128.529,96.065,128.5,95.3Zm-17.033,22.163c-2.34,2.34-7.215,4.68-7.215,4.68s10.335-20.476,11.5-27.106L116.728,26a3.714,3.714,0,0,0-4-3.459,8.018,8.018,0,0,0-1.459.144,191.594,191.594,0,0,1-38.807,4.257C58,26.946,41.495,24.981,26.439,18.4l4.485-1.95a165.323,165.323,0,0,0,46.363,6.689A125.023,125.023,0,0,0,112.438,18.4a8.357,8.357,0,0,1,2.623-.432c2.081,0,4.766.874,5.568,5.112V96.4S113.8,115.124,111.463,117.464ZM55.5,36.925a23.5,23.5,0,0,1,15.738-6.789,8.586,8.586,0,0,1,4.348.938C79.092,33.22,81.627,41.216,87.087,42a9.855,9.855,0,0,0,1.4.1,13.434,13.434,0,0,0,8.354-3.414s-0.39,6.24-7.216,10.14a17.863,17.863,0,0,1-8.833,2.544,10.473,10.473,0,0,1-6.768-2.154c-2.73-2.34-5.46-9.36-8.581-9.36s-7.605,1.755-8.19,9.946S60.085,67.16,69.146,69.1a9.929,9.929,0,0,0,2.087.245c1.8,0,3.49-.631,5.908-2.2,2.774-1.794,7.46-5.092,12.344-5.092a9.925,9.925,0,0,1,2.867.412c5.85,1.755,15.406,10.141,9.166,33.541C96.526,114.734,79.552,119.1,72.163,119.1c-1.847,0-3.1-.273-3.407-0.663-1.443-1.8-4.889-10.116-11.572-10.117a8.582,8.582,0,0,0-1.688.172,17.5,17.5,0,0,0-11.31,8.19S42.43,104.2,54.911,99.133a20.428,20.428,0,0,1,7.731-1.56c8.922,0,15.868,6.218,18.01,11.115a1.67,1.67,0,0,0,1.44.955c0.931,0,2.358-.8,4.411-3.881,4.29-6.435,6.783-30.015-4.875-33.346a12.391,12.391,0,0,0-3.373-.467,10.528,10.528,0,0,0-6.377,2.027c-2.069,1.551-7.651,6.616-14.247,6.616-3.354,0-6.969-1.309-10.519-5.056C36.579,64.421,48.865,43.555,55.5,36.925Z"/>
</svg>
