<svg id="ger_berlin_sniper_2_icon" xmlns="http://www.w3.org/2000/svg" width="150" height="150" viewBox="0 0 150 150">
  <defs>
    <style>
      .cls-1 {
        fill: #f2f2f2;
      }

      .cls-1, .cls-2 {
        fill-rule: evenodd;
      }

      .cls-2 {
        fill: #151515;
      }
    </style>
  </defs>
  <path class="cls-1" d="M24,4V94.6c0,27.73,22.184,50.954,50.173,51.393C102.718,146.442,126,123.632,126,95.431V4H24Z"/>
  <path class="cls-2" d="M75.006,148c-0.283,0-.564,0-0.848-0.006C45.95,147.545,23,123.824,23,95.114V3H127V95.945A52.028,52.028,0,0,1,75.006,148ZM25.9,5.905V95.114c0,27.134,21.667,49.553,48.3,49.975A49.122,49.122,0,0,0,124.1,95.945V5.905H25.9Z"/>
  <path class="cls-2" d="M110.8,114.9L99.136,103.313l5.378-5.342a0.507,0.507,0,0,0,0-.72l-3.261-3.239a0.515,0.515,0,0,0-.725,0l-5.362,5.327A213.891,213.891,0,0,1,78.641,80.546C91.683,61.81,100.807,40.7,106.3,16.674a0.512,0.512,0,0,0-.984-0.277C98.864,35.186,91.149,55.034,75.476,76.36,59.8,55.034,52.087,35.186,45.639,16.4a0.512,0.512,0,0,0-.985.277C50.145,40.7,59.269,61.81,72.311,80.546A213.867,213.867,0,0,1,55.786,99.339l-5.363-5.327a0.514,0.514,0,0,0-.724,0l-3.261,3.239a0.506,0.506,0,0,0,0,.72l5.378,5.342L40.154,114.9a0.507,0.507,0,0,0,0,.72l3.261,3.239a0.515,0.515,0,0,0,.724,0L55.8,107.271l5.389,5.353a0.514,0.514,0,0,0,.725,0l3.261-3.239a0.506,0.506,0,0,0,0-.719L59.77,103.3A179.066,179.066,0,0,0,75.476,84.948,179.052,179.052,0,0,0,91.181,103.3l-5.4,5.369a0.506,0.506,0,0,0,0,.719l3.26,3.239a0.53,0.53,0,0,0,.725,0l5.389-5.353,11.661,11.584a0.514,0.514,0,0,0,.724,0l3.261-3.239A0.507,0.507,0,0,0,110.8,114.9Z"/>
</svg>
