<svg id="ger_moscow_prem_assault_2_icon" xmlns="http://www.w3.org/2000/svg" width="150" height="150" viewBox="0 0 150 150">
  <defs>
    <style>
      .cls-1 {
        fill: #eee;
      }

      .cls-1, .cls-2 {
        fill-rule: evenodd;
      }

      .cls-2 {
        fill: #151515;
      }
    </style>
  </defs>
  <path class="cls-1" d="M127.955,21.615c-30.983,0-52.637-18.163-52.637-18.163H74.682S53.025,21.615,22.045,21.615c-2.156,0-4.355-.088-6.6-0.276,0,0,.158,45.8,13.5,78.233,16.2,39.388,45.736,46.976,45.736,46.976h0.635s29.539-7.588,45.737-46.976c13.34-32.438,13.5-78.233,13.5-78.233C132.312,21.526,130.109,21.615,127.955,21.615Z"/>
  <path class="cls-2" d="M128.041,27.934h-0.086A93.428,93.428,0,0,1,87.242,18.21,95.472,95.472,0,0,1,75,11.081,95.485,95.485,0,0,1,62.757,18.21a93.429,93.429,0,0,1-40.712,9.724H21.96c0.208,4.764.64,11.755,1.532,19.818,2.173,19.64,6.08,36.728,11.3,49.417A90.289,90.289,0,0,0,47.562,119.21,72.684,72.684,0,0,0,61.08,132.335,55.635,55.635,0,0,0,75,140.015a55.635,55.635,0,0,0,13.92-7.68,72.694,72.694,0,0,0,13.518-13.125A90.289,90.289,0,0,0,115.21,97.169c5.232-12.724,9.145-29.864,11.315-49.569C127.407,39.584,127.834,32.66,128.041,27.934ZM123.25,47.471c-2.141,19.307-5.967,36.062-11.063,48.455a87.16,87.16,0,0,1-12.157,21.061,69.631,69.631,0,0,1-12.782,12.519,54.478,54.478,0,0,1-12.256,7.019,53.891,53.891,0,0,1-11.476-6.457,69.03,69.03,0,0,1-13.13-12.562,86.805,86.805,0,0,1-12.572-21.58c-5.1-12.393-8.922-29.148-11.064-48.455-0.7-6.288-1.112-11.919-1.357-16.332C48.379,30.276,66.263,20.733,75,15.021c8.736,5.712,26.619,15.256,49.608,16.119C124.362,35.552,123.948,41.184,123.25,47.471ZM75.318,148.728H74.682a2.2,2.2,0,0,1-.542-0.069c-0.318-.082-7.9-2.08-17.53-9.064a80.808,80.808,0,0,1-15.379-14.7,98.534,98.534,0,0,1-14.3-24.5C19.943,83.41,16.6,62.815,15.028,48.53c-1.7-15.44-1.759-27.068-1.76-27.184a2.179,2.179,0,0,1,2.361-2.179c17.27,1.45,32-3.337,41.316-7.607A79.8,79.8,0,0,0,73.283,1.781a2.184,2.184,0,0,1,1.4-.508h0.635a2.18,2.18,0,0,1,1.4.51A79.806,79.806,0,0,0,93.055,11.56c9.316,4.27,24.046,9.056,41.315,7.607a2.179,2.179,0,0,1,2.361,2.179c0,0.116-.059,11.743-1.759,27.184-1.573,14.285-4.915,34.88-11.9,51.871a98.535,98.535,0,0,1-14.3,24.5A80.8,80.8,0,0,1,93.39,139.6c-9.634,6.984-17.212,8.982-17.53,9.064A2.2,2.2,0,0,1,75.318,148.728Zm-0.335-4.358h0.033a56.027,56.027,0,0,0,16-8.438c8.3-6.055,19.893-17.422,28.022-37.189,6.788-16.506,10.052-36.647,11.595-50.638,1.233-11.18,1.593-20.32,1.7-24.43a83.437,83.437,0,0,1-22.03-1.782,92.585,92.585,0,0,1-19.2-6.435A87.731,87.731,0,0,1,75,5.976a87.733,87.733,0,0,1-16.1,9.482,92.6,92.6,0,0,1-19.2,6.435,83.458,83.458,0,0,1-22.031,1.782c0.1,4.11.464,13.25,1.7,24.43,1.543,13.99,4.807,34.132,11.6,50.638,8.173,19.874,19.85,31.266,28.206,37.323A55.38,55.38,0,0,0,74.982,144.37Z"/>
  <path class="cls-2" d="M75,23.206l28.291,78.786H46.709L75,23.206m0-10.691-33.438,93.47h66.876L75,12.515h0ZM74.929,94.989H58.934V81.921l5.427-15.995,5.427,14V63.641l5.141-23.707h0.143l5.141,23.707v16.28l5.57-14,5.284,15.995V94.989H74.929Z"/>
</svg>
