<svg xmlns="http://www.w3.org/2000/svg" width="150" height="150" viewBox="0 0 150 150">
  <defs>
    <style>
      .cls-1 {
        fill: #eee;
      }

      .cls-2 {
        fill: #151515;
      }

      .cls-3 {
        fill: #1d1d1b;
      }
    </style>
  </defs>
  <g id="Layer_3" data-name="Layer 3">
    <g>
      <g>
        <path class="cls-1" d="M11.73913,4.30435H138.26087a0,0,0,0,1,0,0v78.1305a63.26081,63.26081,0,0,1-63.26081,63.26081h-.00013A63.26081,63.26081,0,0,1,11.73913,82.43485V4.30435a0,0,0,0,1,0,0Z"/>
        <path class="cls-2" d="M75,147.69612A65.33522,65.33522,0,0,1,9.73926,82.4344V2.30452H140.26074V82.4344A65.3349,65.3349,0,0,1,75,147.69612ZM13.73926,6.30452V82.4344a61.26074,61.26074,0,1,0,122.52148,0V6.30452Z"/>
      </g>
      <path class="cls-3" d="M113.21777,112.91292a13.93005,13.93005,0,0,1-11.86523-6.65235H49.95117a13.90779,13.90779,0,1,1-19.5166-18.86523V33.27522H23.86328l14.4209-22.33594L52.70557,33.27522h-6.5752V87.65706a13.87929,13.87929,0,0,1,3.00977,2.9082H102.165a13.90906,13.90906,0,1,1,11.05273,22.34766Zm-64.42871-8.65235h53.72559l.28613.51465a11.92034,11.92034,0,1,0,.68652-12.63281l-.29882.42285H48.11572l-.29883-.42285A11.90328,11.90328,0,0,0,44.584,89.02327l-.45361-.29688V31.27522h4.90332L38.28418,14.62678l-10.749,16.64844h4.89941V88.51155l-.4834.292a11.90634,11.90634,0,1,0,16.55225,15.97168Z"/>
    </g>
  </g>
</svg>
