<svg id="_716_infantry_division" data-name="716_infantry_division" xmlns="http://www.w3.org/2000/svg" width="150" height="150" viewBox="0 0 150 150">
  <defs>
    <style>
      .cls-1 {
        fill: #eee;
      }

      .cls-1, .cls-2 {
        fill-rule: evenodd;
      }

      .cls-2 {
        fill: #151515;
      }
    </style>
  </defs>
  <path class="cls-1" d="M6.286,127.286a94.635,94.635,0,0,0,1.286-11.715c0.143-5.285.286-21,5.714-25.571l1-1.571s-4.714-13-3.714-23.286S12,49.571,16.571,48s8.857,1.714,8.857,1.714,0-8.143,4.286-10.714S37,38.714,37,38.714a17.607,17.607,0,0,1,1.714-12.286c3.429-6.571,4-7.571,6.714-8S49.143,19.286,50.143,21a21.912,21.912,0,0,1,1.714,4.857s7.572-10.286,14-11.286,8.857,2.714,9,5.714-6,12-6,12,7.286,0,11.857,5.286S84.571,45.143,83,45.714s-19,5.429-19,5.429L64.857,55l5.572,8.571S75.143,58.714,79.714,59s5.429,2.571,5.429,5.571a42.7,42.7,0,0,1-.714,6.714,3.784,3.784,0,0,1,3.714,2.143c1.143,2.428-.429,11.429-0.429,11.429s4.571-3.571,7-5.286,6.572-2,7.572-.428,1.857,6.571,1.857,6.571,7.571-6.143,10.571-7.143,5.857-1,6.715.857,0.428,6,.428,6,9.714-4.714,15.429-1.857,7.428,6.143,7.571,8.286-1.286,7.714-3.428,9.143A62.324,62.324,0,0,1,133,105.143a25.361,25.361,0,0,0-3.286,2.286s7.715,2.714,8.857,6.571-0.285,8.286-3.428,8.571S124.857,123,124.857,123s-1.714,5-4,5.857S113.429,125,113.429,125s-9.572-6.714-13.286-4.714-1.286,3.428-1.286,3.428,7.572,8,6.143,9.715-15.143.857-20.714-.858a10.014,10.014,0,0,1-3.714,2.858C78.714,136,72,132.857,72,132.857s-2.857,2.429-5.571,2.572-15.143-3.858-19-6.715S29,121.143,23.714,121.857,6.286,127.286,6.286,127.286Z"/>
  <path class="cls-2" d="M62.624,25.482a161.056,161.056,0,0,0-15.671,19.41A158.927,158.927,0,0,0,34.506,66.458q-3.042,6.379-5.519,13.009a1.508,1.508,0,0,0,1.044,1.839,1.527,1.527,0,0,0,1.839-1.044,157.807,157.807,0,0,1,23.8-42.19q4.3-5.434,9.068-10.475C66.059,26.2,63.949,24.08,62.624,25.482ZM26.052,76.536a16.587,16.587,0,0,1-1.82-10.451,1.541,1.541,0,0,0-1.044-1.839A1.507,1.507,0,0,0,21.35,65.29a19.946,19.946,0,0,0,2.121,12.755C24.388,79.737,26.97,78.229,26.052,76.536ZM35.72,56.995A1.369,1.369,0,0,0,35,55.745a10.358,10.358,0,0,1-.207-7.272,1.5,1.5,0,1,0-2.883-.795,13.3,13.3,0,0,0,1.031,10.663,1.506,1.506,0,0,0,2.786-.755Q35.723,57.291,35.72,56.995ZM47.583,36.118l-1.109-4.635c-0.448-1.871-3.331-1.079-2.883.795l1.336,5.582a1.5,1.5,0,0,0,2.937-.4q0-.228,0-0.457A1.419,1.419,0,0,0,47.583,36.118ZM66.545,40.77a1.505,1.505,0,0,0-1.839-1.044,31.358,31.358,0,0,1-9.594,2.246,1.531,1.531,0,0,0-1.495,1.495,1.508,1.508,0,0,0,1.495,1.5A33.873,33.873,0,0,0,65.5,42.61,1.542,1.542,0,0,0,66.545,40.77ZM57.4,61.917a11.462,11.462,0,0,1-10.564-.075c-1.7-.909-3.208,1.672-1.509,2.582a14.6,14.6,0,0,0,13.582.075C60.616,63.611,59.106,61.03,57.4,61.917ZM48.3,75.5a1.565,1.565,0,0,0-1.442-1.1l-0.182-.021a1.3,1.3,0,0,0-1.152.557,16.906,16.906,0,0,1-8.615,2.084c-1.925-.05-1.924,2.94,0,2.99a19.852,19.852,0,0,0,10.7-2.824A1.528,1.528,0,0,0,48.3,75.5Zm21.361,5.44A28.794,28.794,0,0,1,56.6,87.977c-1.87.449-1.078,3.332,0.795,2.883a31.84,31.84,0,0,0,14.374-7.8C73.173,81.733,71.056,79.621,69.657,80.942Zm8.714,14.07a1.55,1.55,0,0,0-2.045.536,22.935,22.935,0,0,0-4.234,10.3,1.545,1.545,0,0,0,1.044,1.839,1.506,1.506,0,0,0,1.839-1.045,21.059,21.059,0,0,1,3.29-8.668,1.81,1.81,0,0,0,.9-0.989A1.619,1.619,0,0,0,78.37,95.012Zm15.162-4a22.51,22.51,0,0,0-6.292,11.158,1.528,1.528,0,0,0,1.044,1.839,1.511,1.511,0,0,0,1.839-1.044,19.657,19.657,0,0,1,5.522-9.839C97.032,91.788,94.917,89.675,93.532,91.013Zm20.1-4.743a1.51,1.51,0,0,0-2.115,0,24.083,24.083,0,0,0-5.732,11.613,1.536,1.536,0,0,0,1.044,1.839,1.508,1.508,0,0,0,1.839-1.044,21.194,21.194,0,0,1,4.964-10.294A1.531,1.531,0,0,0,113.627,86.27Zm8.776,24.16a1.528,1.528,0,0,0-2.046-.537,6.757,6.757,0,0,1-8.558-2.462c-1.033-1.617-3.622-.119-2.582,1.509a9.824,9.824,0,0,0,12.649,3.535A1.509,1.509,0,0,0,122.4,110.43ZM101.4,112.684a24.515,24.515,0,0,1-10.872-2.09,1.54,1.54,0,0,0-2.045.536,1.506,1.506,0,0,0,.536,2.045,27.831,27.831,0,0,0,12.381,2.5C103.315,115.61,103.324,112.619,101.4,112.684Zm-25.1,9.663a1.536,1.536,0,0,0-1.839-1.045,16.465,16.465,0,0,1-11.366-2.729,1.495,1.495,0,1,0-1.509,2.581,19.545,19.545,0,0,0,13.67,3.032A1.5,1.5,0,0,0,76.295,122.347Zm59.978-29.092a1.511,1.511,0,0,0-1.839-1.044Q116.26,98.13,97.966,103.669t-36.7,10.691q-10.341,2.9-20.717,5.668a1.5,1.5,0,0,0,.795,2.883q18.465-4.936,36.824-10.257t36.6-11.028q10.249-3.206,20.461-6.532A1.528,1.528,0,0,0,136.273,93.255ZM88.251,71.71a4.554,4.554,0,0,0-2.982-1.417,22.04,22.04,0,0,0,.8-4.2c0.217-2.364.166-5.052-1.48-6.935a6.612,6.612,0,0,0-5.669-1.947c-2.471.284-4.567,1.619-6.571,3a1.533,1.533,0,0,0-.536,2.045,1.508,1.508,0,0,0,2.046.536,13.425,13.425,0,0,1,5.1-2.588,3.752,3.752,0,0,1,3.518,1.069c0.986,1.247.74,3.519,0.581,5.053a18.056,18.056,0,0,1-1.613,5.734,1.5,1.5,0,0,0,2.582,1.509,2.156,2.156,0,0,1,.352-0.23,1.326,1.326,0,0,1,.858-0.077c-0.152-.024.159,0.063,0.246,0.086,0,0.012.3,0.161,0.3,0.161a2.255,2.255,0,0,1,.594.619c0.973,1.47.552,3.369,0.156,4.963-0.464,1.867,2.419,2.664,2.883.795C90.1,77.115,90.376,73.953,88.251,71.71ZM143.93,86.221a12.638,12.638,0,0,0-9.515-5.027c-3.942-.278-7.713.97-11.33,2.424a6.226,6.226,0,0,0-1.173-5.5c-1.728-1.963-4.63-1.974-6.95-1.254A19.541,19.541,0,0,0,104.889,84.7a14.141,14.141,0,0,0-1.245-5.212,5.029,5.029,0,0,0-5.683-2.737c-2.233.462-4.186,2.088-5.9,3.5A33.872,33.872,0,0,0,88.1,84.157,10.318,10.318,0,0,0,82.2,79.779a6.775,6.775,0,0,0-4.6.523,9.754,9.754,0,0,0-3.236,3.019c-3.193,4.278-5.287,9.268-8.187,13.735a28.987,28.987,0,0,1-4.078,5.058,17.93,17.93,0,0,0-1.316-5.191c-0.976-1.945-2.984-3.678-5.262-3.634-2.508.049-4.075,2.045-5.525,3.818l-5.121,6.262-5.771,7.058a1.538,1.538,0,0,0,0,2.114,1.507,1.507,0,0,0,2.114,0l9.185-11.233q1.138-1.391,2.276-2.783a8.369,8.369,0,0,1,1.867-1.9,1.79,1.79,0,0,1,1.788-.175,3.842,3.842,0,0,1,1.633,1.561c1.216,2.028,1.049,4.713,1.693,6.962a1.376,1.376,0,0,0,1.2,1.041,1.637,1.637,0,0,0,1.672-.307c3.946-3.115,6.588-7.491,9-11.825,1.216-2.187,2.4-4.4,3.72-6.522,1.112-1.784,2.539-4.485,4.872-4.772,2.8-.344,4.878,2.2,6.224,4.311a1.656,1.656,0,0,0,.746,1.183,1.533,1.533,0,0,0,2.045-.536,32.188,32.188,0,0,1,3.936-4.224,20.225,20.225,0,0,1,4.523-3.3,3.186,3.186,0,0,1,2.081-.369,2.039,2.039,0,0,1,1.3,1.185,12.537,12.537,0,0,1,.987,5.018A24,24,0,0,1,101.238,93,1.44,1.44,0,0,0,102.3,94.79a1.476,1.476,0,0,0,2.3-1.246,17.429,17.429,0,0,1,4.969-9.847,17.244,17.244,0,0,1,4.623-3.312,10.23,10.23,0,0,1,2.595-.9,4.312,4.312,0,0,1,2.176.107c2.237,0.927,1.128,4.112.531,5.807a1.51,1.51,0,0,0,1.045,1.839,1.437,1.437,0,0,0,.728.014,1.129,1.129,0,0,0,.807-0.01c5.749-2.4,13.807-5.558,18.839-.037a8.815,8.815,0,0,1,2.164,7.627,9.428,9.428,0,0,1-5.015,6.5c-3.14,1.666-6.727,2.293-9.754,4.21a2.333,2.333,0,0,0,.275,3.511c3.416,0.934,8.056,2.147,9.227,6.018,1.025,3.388-2.071,6.313-5.208,7.129a17.283,17.283,0,0,1-6.924.078,2.012,2.012,0,0,0-.727.017,1.444,1.444,0,0,0-1.625.692c-0.7,1.6-1.485,3.695-3.258,4.375-1.636.627-2.919-.856-4-1.965a20.876,20.876,0,0,0-10.382-5.969c-2.373-.529-5.071-0.822-7.245.5a1.383,1.383,0,0,0-.709,1.194c-0.052.095-.1,0.192-0.146,0.293a4.094,4.094,0,0,0,.173,3.488,17.736,17.736,0,0,0,2.261,3.132l2.479,3.163a7.893,7.893,0,0,1,.857,1.214,3.027,3.027,0,0,1,.1.3c-0.238,0-.667.082-0.823,0.094q-0.992.071-1.983,0.111a61.864,61.864,0,0,1-7.69-.175,59.606,59.606,0,0,1-8.543-1.374,1.686,1.686,0,0,0-.4-0.043,1.507,1.507,0,0,0-1.757,1.062c-0.36,1.718-3.37,1.891-4.782,1.682a7.439,7.439,0,0,1-4.9-2.876,1.536,1.536,0,0,0-2.046-.536,1.612,1.612,0,0,0-.75,1.381c-2.8,2.652-7.144,2.1-10.509.678a75.233,75.233,0,0,1-6.684-3.543c-2.2-1.2-4.433-2.334-6.72-3.355-8.824-3.943-18.518-6.242-28.147-4.265a30.063,30.063,0,0,0-9.939,3.943c1.7-9.324.718-19.06,3.566-28.193a26.762,26.762,0,0,1,2.861-6.293c2.764-.222,5.759-0.5,8.363.654,1.943,0.858,3.781,2.827,3.384,5.085a8.33,8.33,0,0,0-6.048,5.719,8.22,8.22,0,0,0,3.509,8.88,6.981,6.981,0,0,0,1.254.658,17.627,17.627,0,0,0,3.008,6.33c1.384,1.662,3.609,3,5.84,2.523,2.642-.562,3.015-3.311,2.913-5.576a20.294,20.294,0,0,0-1.666-7.11,7.875,7.875,0,0,0,.478-6.01,7.73,7.73,0,0,0-6.3-5.4,7.936,7.936,0,0,0-4.362-7.427c-2.816-1.507-5.98-1.59-9.091-1.4,0-.014-0.007-0.028-0.011-0.041a66.789,66.789,0,0,1-3.9-20.261,46.3,46.3,0,0,1,.856-10.149c0.526-2.6,1.239-5.776,3.509-7.445a5.3,5.3,0,0,1,7.584,1.443,1.583,1.583,0,0,0,.348.393,1.509,1.509,0,0,0,2.92-.471A18.032,18.032,0,0,1,29.5,41.487a5.022,5.022,0,0,1,3.071-2.332,3.279,3.279,0,0,1,2.723.827,1.491,1.491,0,0,0,1.453,1.257A1.611,1.611,0,0,0,38.2,40.2a1.5,1.5,0,0,0-.045-1.466,24.584,24.584,0,0,1,1.855-11.455,23.116,23.116,0,0,1,3.3-5.546,5.845,5.845,0,0,1,2.15-1.867,1.978,1.978,0,0,1,1.9.218c1.94,1.206,1.959,3.992,2.016,6.053a1.493,1.493,0,0,0,1.811,1.421,1.271,1.271,0,0,0,.952-0.431A41.16,41.16,0,0,1,64.856,16.691a6.531,6.531,0,0,1,3.525-.843,4.286,4.286,0,0,1,2.51,1.35,6.788,6.788,0,0,1,1.246,6.663c-0.841,3.02-2.928,5.485-4.905,7.839a1.535,1.535,0,0,0,0,2.114,1.591,1.591,0,0,0,1.115.432,1.67,1.67,0,0,0,.327.04A19.467,19.467,0,0,1,82.16,40a3.364,3.364,0,0,1,1.135,2.6,3.674,3.674,0,0,1-1.741,2.4,12.283,12.283,0,0,1-3.629,1.376c-1.482.383-2.967,0.753-4.451,1.129L63.19,50.106a1.507,1.507,0,0,0-.043,2.865c0.441,4.344,3.147,7.923,5.328,11.605,1.078,1.819,2.3,3.972,2.263,6.152a3.862,3.862,0,0,1-2.894,3.462c-2.107.708-4.345,0.244-6.457-.3a1.49,1.49,0,0,0-1.858-.289L47.682,81.661a58.822,58.822,0,0,0-9.426,7.375A22.365,22.365,0,0,0,34.3,94.495a1.532,1.532,0,0,0,.536,2.046A1.51,1.51,0,0,0,36.879,96a24.544,24.544,0,0,1,7.252-8.18c3.32-2.561,6.884-4.823,10.348-7.18l5.81-3.954a16.686,16.686,0,0,0,7.442.627,7.7,7.7,0,0,0,5.262-3.675c1.317-2.5.605-5.308-.465-7.755a56.03,56.03,0,0,0-3.764-6.509A15.913,15.913,0,0,1,66.1,52.452l8.167-2.071c1.63-.413,3.266-0.809,4.89-1.244a12.981,12.981,0,0,0,4.256-1.8c2.631-1.888,3.79-5.257,1.924-8.114A13.069,13.069,0,0,0,82.3,36.141a22.472,22.472,0,0,0-3.765-2.39,23.446,23.446,0,0,0-7.3-2.252,21.63,21.63,0,0,0,3.508-5.985,10.355,10.355,0,0,0-.688-9.113,7.454,7.454,0,0,0-7.816-3.379,14.939,14.939,0,0,0-4.571,2.025A44.614,44.614,0,0,0,57.8,17.66a47.741,47.741,0,0,0-5.728,5.072A7.945,7.945,0,0,0,50.1,18.507a5.236,5.236,0,0,0-6.926-.762,17.555,17.555,0,0,0-4.815,6.1,27.428,27.428,0,0,0-2.649,7.186,27.729,27.729,0,0,0-.618,5.431,6.089,6.089,0,0,0-2.352-.319,7.27,7.27,0,0,0-5.119,2.893,18.435,18.435,0,0,0-3.545,8.721A8.225,8.225,0,0,0,16.9,46.324c-3.526.967-5.558,4.078-6.6,7.388A41.672,41.672,0,0,0,8.617,64.54a58.8,58.8,0,0,0,.771,11.594A74.969,74.969,0,0,0,12.451,88.28l0,0c-6.48,9.03-5.862,20.659-6.847,31.193A51.859,51.859,0,0,1,4.09,128.3a1.532,1.532,0,0,0-.042,1.756,1.548,1.548,0,0,0,2.656-.1c6.518-5.521,15.726-7.027,23.991-5.737A54.661,54.661,0,0,1,44.785,128.6c2.28,1.036,4.511,2.179,6.7,3.389a71.5,71.5,0,0,0,6.665,3.483c4.26,1.8,9.786,2.259,13.423-1a10.7,10.7,0,0,0,5.976,2.606c2.369,0.262,5.705-.422,7.067-2.592a63.719,63.719,0,0,0,14.661,1.469c1.322-.024,2.649-0.078,3.966-0.2,1.288-.118,2.534-0.5,3.062-1.8a3.815,3.815,0,0,0-.631-3.462c-0.727-1.094-1.62-2.1-2.43-3.136a40.475,40.475,0,0,1-2.605-3.4,3.147,3.147,0,0,1-.314-0.593,1.6,1.6,0,0,1-.1-0.522,0.756,0.756,0,0,1,.136-0.338,0.2,0.2,0,0,0,.038-0.03,1.7,1.7,0,0,0,.965-0.463,10.491,10.491,0,0,1,4.025.428,17.694,17.694,0,0,1,5.469,2.434,41.38,41.38,0,0,1,4.284,3.818c1.68,1.482,3.8,2.332,6,1.45,2.216-.89,3.452-2.816,4.414-4.875,4.672,0.63,9.939.4,13.244-3.433a8.157,8.157,0,0,0,2.133-6.29,9.127,9.127,0,0,0-3.59-5.949,16.953,16.953,0,0,0-5.307-2.637c2.344-1.042,4.864-1.7,7.167-2.852a12.441,12.441,0,0,0,6.61-7.889A11.791,11.791,0,0,0,143.93,86.221ZM33.395,114.588a11.12,11.12,0,0,1,.028,2.482,1.458,1.458,0,0,1-.258.735,1,1,0,0,1-.409.169c-1.249.127-2.523-1.078-3.225-2.093a13,13,0,0,1-1.562-3.334,8.248,8.248,0,0,0,4.442-1.591c0.065-.048.128-0.1,0.191-0.148A16.176,16.176,0,0,1,33.395,114.588ZM27.371,99.416a3.122,3.122,0,0,1,2.487.643,4.71,4.71,0,0,1,.593.321,4.951,4.951,0,0,1,1.793,2.255,4.891,4.891,0,0,1-1.107,5.519,5.106,5.106,0,0,1-5.583.991,5.317,5.317,0,0,1-2.914-5.189,5.224,5.224,0,0,1,2.719-3.807A4.115,4.115,0,0,1,27.371,99.416Z"/>
</svg>
