<svg id="_36_engineer_icon" data-name="36_engineer_icon" xmlns="http://www.w3.org/2000/svg" width="150" height="150" viewBox="0 0 150 150">
  <defs>
    <style>
      .cls-1 {
        fill: #eee;
      }

      .cls-1, .cls-2 {
        fill-rule: evenodd;
      }

      .cls-2 {
        fill: #151515;
      }
    </style>
  </defs>
  <path id="Shape_28_copy_4" data-name="Shape 28 copy 4" class="cls-1" d="M17.029,145.54a1.579,1.579,0,0,1-1.577-1.581V127.976a1.579,1.579,0,0,1,1.577-1.58H65.366V40.432L31.058,78.776a1.576,1.576,0,0,1-1.088.523l-0.086,0a1.573,1.573,0,0,1-1.053-.4L17.578,68.781a1.583,1.583,0,0,1-.121-2.232L73.326,4.108a1.576,1.576,0,0,1,2.348,0l55.869,62.44a1.582,1.582,0,0,1-.121,2.232L120.17,78.9a1.574,1.574,0,0,1-1.053.4l-0.086,0a1.575,1.575,0,0,1-1.088-.523L83.635,40.432V126.4h48.337a1.579,1.579,0,0,1,1.577,1.58v15.983a1.579,1.579,0,0,1-1.577,1.581H17.029Z"/>
  <path class="cls-2" d="M74.5,5.164L130.369,67.6,119.117,77.719,81.933,36.3v91.675h50.039V143.96H17.029V127.977H67.068V36.3L29.884,77.719,18.631,67.6,74.5,5.164M74.5,2a3.151,3.151,0,0,0-2.348,1.051L16.283,65.494a3.166,3.166,0,0,0,.242,4.464L27.778,80.073a3.149,3.149,0,0,0,4.454-.243L63.913,44.562V124.94H17.029a3.158,3.158,0,0,0-3.154,3.162V143.96a3.157,3.157,0,0,0,3.154,3.161H131.972a3.157,3.157,0,0,0,3.154-3.161V128.1a3.158,3.158,0,0,0-3.154-3.162H85.087V44.563L116.768,79.83a3.15,3.15,0,0,0,4.455.243l11.252-10.115a3.167,3.167,0,0,0,.243-4.464L76.849,3.053A3.151,3.151,0,0,0,74.5,2h0Z"/>
</svg>
