<svg xmlns="http://www.w3.org/2000/svg" width="150" height="150" viewBox="0 0 150 150">
  <defs>
    <style>
      .cls-1 {
        fill: #f5f5f5;
        stroke: #f5f5f5;
        stroke-linecap: round;
        stroke-linejoin: round;
        stroke-width: 5px;
      }

      .cls-1, .cls-2, .cls-3, .cls-4 {
        fill-rule: evenodd;
      }

      .cls-2 {
        fill: #1a171b;
      }

      .cls-3 {
        fill: #e42523;
      }

      .cls-4 {
        fill: #1a1a1a;
      }
    </style>
  </defs>
  <g id="Layer_7" data-name="Layer 7">
    <g id="_-ger_normandy_prem_paratrooper_1_icon" data-name="-ger_normandy_prem_paratrooper_1_icon">
      <path id="Path" class="cls-1" d="M21.149,3.85392H128.851V69.43624c0,.3938-.00976.78566-.00976,1.18044l-.078,3.052c-1.41341,34.9493-20.11918,55.96722-35.54,65.62034-6.64791,4.15836-12.74021,6.20536-16.69776,6.43347H73.38676c-3.9673-.22811-10.04985-2.27511-16.69776-6.43347-15.43056-9.65312-34.13634-30.671-35.54-65.62034l.039-3.052c-.02924-.87436-.039-1.75263-.039-2.63479Z"/>
      <path id="Shape" class="cls-2" d="M74.99761,123.26287s1.87155-3.17969,2.52464-10.48947c.61411-6.78535,1.004-17.13055,1.004-31.79495,0-12.61153-.44839-32.84964-.87728-41.645H72.34624c-.4289,8.79533-.87729,29.03344-.87729,41.645,0,14.6644.38991,25.0096,1.004,31.795C73.12606,120.08318,74.99761,123.26287,74.99761,123.26287ZM69.44143,37.32741a.28414.28414,0,0,1,.28268.28561v.67161a.28633.28633,0,0,0,.29244.28561h9.85489a.28415.28415,0,0,0,.28269-.28561V37.613a.28414.28414,0,0,1,.28267-.28561H81.626a1.21061,1.21061,0,0,0,.66284-.1969L90.15523,31.934a1.19186,1.19186,0,0,0-1.31593-1.98755l-7.57394,4.9986H80.4368a.28476.28476,0,0,1-.28267-.2856v-.38113a.28415.28415,0,0,0-.28269-.28561H70.01655a.28633.28633,0,0,0-.29244.28561v.38113a.28476.28476,0,0,1-.28268.2856h-.71157l-7.574-4.9986A1.18917,1.18917,0,1,0,59.84973,31.934l7.86637,5.19648a1.17881,1.17881,0,0,0,.65309.1969ZM73.243,18.2483a.90917.90917,0,0,0-.33141-1.01473,3.329,3.329,0,0,1-1.34519-2.69816,3.43119,3.43119,0,1,1,5.53668,2.71571.89023.89023,0,0,0-.33142.99036,39.397,39.397,0,0,1,.89679,8.85478A34.25461,34.25461,0,0,1,77.1226,33.441H72.88237a33.36827,33.36827,0,0,1-.55562-6.34476A38.6028,38.6028,0,0,1,73.243,18.2483Z"/>
      <path id="Shape-2" data-name="Shape" class="cls-3" d="M70.77857,46.035c-.34117,10.10053-.6141,24.92478-.6141,34.94344q0,3.70217.02924,7.04269l-3.63588-2.90772C58.04811,92.1951,50.211,97.35064,43.6703,98.84691c-3.38244,1.0196-5.73163,3.01592-6.11179,6.86723-3.85033-2.74105-3.62613-5.79012.77007-9.156-2.36868-2.084-1.82282-4.67791.76032-7.63048a43.11125,43.11125,0,0,1,9.15306-6.104c.69208-3.81426-1.6961-7.00175-9.15306-9.155-6.56019-.50493-10.41052-1.8618-9.91338-4.57848-.14622-3.21672,3.98679-6.80484,11.44376-10.68149Zm8.1588-3.63881c.3899,9.849.75057,27.27593.75057,38.58225,0,3.46238-.02924,6.685-.06823,9.67846l1.98852,1.32276v-9.156c-.156-.47178.43864-3.25377,2.61237-3.47211C94.30944,76.9088,96.103,66.80144,96.103,66.80144c-.156-1.88812,9.99137-7.43357,24.41791-14.49673l-4.98106-.191-.00975-10.7C111.2119,50.16607,102.49748,56.41628,89.24065,59.171c-.70183-5.23255,1.9008-11.29073,8.39275-18.312l-6.87211,3.052c1.80332-4.01214,2.27121-6.93254,0-7.6295-1.6961-.49811-4.27923.58974-7.63242,3.052Z"/>
      <path id="Shape-3" data-name="Shape" class="cls-4" d="M125.74646,74.02523c-1.40458,33.22329-19.22214,53.265-34.00462,62.4554-5.89335,3.66231-11.24647,5.60813-14.79231,5.855V146.158c3.99766-.22835,10.13656-2.27761,16.82551-6.44052,15.54862-9.6637,34.39751-30.70465,35.81192-65.69225Zm-101.49292,0c1.40458,33.22329,19.22214,53.265,34.00462,62.4554,5.89335,3.66231,11.24647,5.60813,14.79231,5.855V146.158c-3.99766-.22835-10.13656-2.27761-16.82551-6.44052-15.54862-9.6637-34.39751-30.70465-35.81192-65.69225ZM20.423,70.12616c-.00995-.39195-.00995-.781-.00995-1.172V3.842h3.88912V68.95419c0,.39388.00995.78583.00995,1.172Zm105.2649,0c.02961-.8681.03948-1.74006.03948-2.6159V3.842H129.587V67.51026q0,1.31376-.02962,2.6159ZM73.05047,7.74107H27.23641V3.842H73.05047Zm49.71312,0H76.94953V3.842h45.81406Z"/>
    </g>
  </g>
</svg>
