<svg xmlns="http://www.w3.org/2000/svg" width="150" height="150" viewBox="0 0 150 150">
  <metadata><?xpacket begin="﻿" id="W5M0MpCehiHzreSzNTczkc9d"?>
<x:xmpmeta xmlns:x="adobe:ns:meta/" x:xmptk="Adobe XMP Core 5.6-c138 79.159824, 2016/09/14-01:09:01        ">
   <rdf:RDF xmlns:rdf="http://www.w3.org/1999/02/22-rdf-syntax-ns#">
      <rdf:Description rdf:about=""/>
   </rdf:RDF>
</x:xmpmeta>
                                                                                                    
                                                                                                    
                                                                                                    
                                                                                                    
                                                                                                    
                                                                                                    
                                                                                                    
                                                                                                    
                                                                                                    
                                                                                                    
                                                                                                    
                                                                                                    
                                                                                                    
                                                                                                    
                                                                                                    
                                                                                                    
                                                                                                    
                                                                                                    
                                                                                                    
                                                                                                    
                           
<?xpacket end="w"?></metadata>
<defs>
    <style>
      .cls-1 {
        fill: #337f00;
      }

      .cls-2 {
        fill: #fcfcfc;
      }

      .cls-2, .cls-3, .cls-4 {
        fill-rule: evenodd;
      }

      .cls-3 {
        fill: #181818;
      }

      .cls-4 {
        fill: #e2ba00;
      }
    </style>
  </defs>
  <rect class="cls-1" x="1" y="29" width="148" height="92"/>
  <path class="cls-2" d="M11.513,113.5c-1.107-.453-0.272-3.791.515-5.64-1.291.086-5.636,0.892-5.977-1.844-0.043-11.4,15.312-22.793,17-24.1,10.614-8.766,10.558-12.683,15.686-15.931,7.949-4.358,10.809-2.042,11.787-3.361,0.822-1.107,4.755-7.251,9.073-3.391,1.6,1.435,12.586,9.941,14.841-4.2-1.121-.075-2.623.333-3.72-1.132-0.988-1.318-.147-2.908.117-3.423a14.47,14.47,0,0,0,1.622-6.1c0.095-1.5.225-3.56,2.808-4.344,3.552-1.075,20.6-5.084,23.138-5.758,0.917-.245,3.468-0.955,4.42.888,1.24,2.4-2.261,4.229-1.354,5.075a2.485,2.485,0,0,1,.448,3.348c-1.448,2.548,0,3.818-2.11,7.812-0.942,2.4-1.693,3.67,4.853,1.678,17.684-3.977,32.5-9.938,35.7-8.969,1.863,0.569,1.713,2.611,1.493,3.7,1.835,0.615,3.719,3.208.249,5.277,5.052-.148,4.315,4.991,2.7,5.743h0c-4.576,2.131-12.654,4.793-23.307,8.521l1.562,7.684c5.246,0.039,9.708.41,10.649,2.236,1.389,3.729-2.147,6.671-2.905,9.951,1.26,0.688.284-1.365,2.784-1.247,8.573,0.413-1.492,11.561-3.023,12.655-5.9,4.216-8.782,2.052-10,.019-0.712-1.6-.852-6.374,0-9.693,0.343-1.33.754-4.257,0.186-4.751-0.906-.785-2.715,2.775-2.715,2.775-3.955,6.991-8.416,8.031-14.134,7.98-4.29-.04-10.142-4.8-10.142-4.8s-3.326,1.867-5.7,1.9c-6.3-.117-11.778-6.631-12.724-7.689-4.552-4.683-9.328-1.005-12.891,1.069l-0.037.038c0.694,0.945,4.841,6.477-3.684,6.519-4.667,0-5.522,3.644-15.8,4.492-1.044.163-2.443,1.34-3.656,2.423S21.477,117.237,11.513,113.5Z"/>
  <path class="cls-3" d="M143.693,56.852c-4.3.825-24.477,9.269-24.477,9.269l2.3,11.079a48.169,48.169,0,0,0,8.164.815c2.244,0,2.683.23,1.627,3.1-1.81,4.918-2.966,8.156-2.16,10.066,1.265,3,3.134-4.493,4.175-2.9,0.816,1.249.145,3.186-.575,4.635-1.1,2.207-5.245,6.935-8.434,6.171-3.519-.852-2-7.76-1.885-9.593,2.292-9.511-3.125-9.311-6.095-3.457a15.874,15.874,0,0,1-5.544,5.793c-5.251,2.346-9.262.792-13.606-1.738-2.736-1.593-2.808-2.607-4.607-1.521a7.659,7.659,0,0,1-4.607,1.521c-7.358.019-10.551-9.5-15.845-9.844-2.979.115-14.547,1.292-11.8,5.908,0.55,0.771,1.307,1.558.956,2.61-0.629,1.88-3.211.923-5.1,1.324s-2.512,2.308-6.86,3.491c-4.865,1.2-7.865.357-11.6,3.97C33.4,101.5,24.061,110.682,14.078,111.93c-0.643.037-2.157-.729,0.327-2.665,5.469-4.5,12.376-10.341,12.376-10.341s-15.076,6.991-14.572,6.85c-0.476.133-4.268,0.6-4.311-.229,0.13-2.561.15-4.7,7.581-13.935,4.163-5.838,15.222-12.361,11.2-9.773,6.882-4.432,8.275-10.667,12.912-13.979a19.941,19.941,0,0,1,12.454-3.91c1.042-.825,3.223-5.851,6.119-3.114,2.165,2.022,6.954,4.905,8.927,4.707a20.09,20.09,0,0,0,6.191-2.172c2.121-1.919,4.023-8.919,2.879-10.355-0.576-.724-1.368-0.145-2.376,0s-2.16.362-1.224-1.448c2.4-4.633,1.325-8.836,3.24-9.414,2.678-.808,21.623-5.327,23.109-5.721,2.736-.724,2.592.217,1.584,1.3-0.222.239-3.628,3.358-1.223,4.007,0.773,0.208,1.44.1,0.878,1.1-0.288.514-.549,4.78-2.119,7.8,0.65-1.25-3.212,6.4-1.668,6.4,1.152,0,5.5-1.13,8.738-1.853,18.519-4.139,32.219-9.745,34.518-9.181,0.986,0.242.078,2.172,0.135,2.812,0.084,0.938,2,.588,1.558,1.808-0.287.8-1.223,1.521-1.3,2.824C140.1,54.779,145.43,55.68,143.693,56.852ZM49.382,70.817a2.989,2.989,0,0,0-1.534-.848,8,8,0,0,0-1.774-.083c0,0.145-.144-0.507-0.36-1.158-0.584-1.761-2.61-.849-4.113.158a3.651,3.651,0,0,1,1.42-.254c0.861,0,.554,1.089.054,1.834a3.269,3.269,0,0,1-1.669,1.243,1.039,1.039,0,0,1-1.481-.311,2.06,2.06,0,0,1,.7-1.8c-0.206.164-.379,0.311-0.505,0.424-0.609.542-1.986,1.6-1.747,2.562a0.945,0.945,0,0,0,.777.638c0.478,0.12.979,0.115,1.454,0.254,0.648,0.189.1,0.691-.1,0.99a3.758,3.758,0,0,0-.477,1.337,1.924,1.924,0,0,0,.015,1.178c1.3,2.569,5.393.515,6.829-.72C48.225,75.094,51.3,72.9,49.382,70.817Zm-4.51,4.362c-0.657.32-2.472,1.087-3.16,0.583a0.84,0.84,0,0,1-.307-0.461,2.1,2.1,0,0,1,.014-0.988,5.133,5.133,0,0,1,2.585-2.978,5.752,5.752,0,0,1,2.74-.637c0.827,0.053.776,1.379,0.31,2.493A4.351,4.351,0,0,1,44.873,75.179Zm50.27,4.93c0.992,0.5,2.6,3.49,2.7,4.173,0.1,0.641-.1,1.638-1.374.461S95.6,83.1,94.2,83.028s-2.087.1-3.207,0.051-1.222-.64-0.153-1.408a6.531,6.531,0,0,1,3.029-1.485,2.463,2.463,0,0,1,1.273-.077h0Z"/>
  <path class="cls-4" d="M32.074,79.892c-17.961,11.453-22.6,23.251-21.935,24.974,8.527-4,13.332-7.524,16.918-6.823a0.54,0.54,0,0,1,.306.48c0.14,2.787-8.478,8.215-11.4,10.161-1.322,1.135-1.856,1.966,1.96.608,10.37-4.562,16.764-11.687,22.012-15.265A16.969,16.969,0,0,0,32.074,79.892Z"/>
</svg>
