<svg id="_34th_Infantry_Division" data-name="34th Infantry Division" xmlns="http://www.w3.org/2000/svg" width="150" height="150" viewBox="0 0 150 150">
  <defs>
    <style>
      .cls-1 {
        fill: #efefef;
      }

      .cls-1, .cls-2, .cls-3 {
        fill-rule: evenodd;
      }

      .cls-2 {
        fill: #324088;
      }

      .cls-3 {
        fill: #101010;
      }
    </style>
  </defs>
  <path class="cls-1" d="M13.4,6.633s-2.012,26.822,7.153,61.244c9.116,34.239,28.275,59.356,53.556,78.1a1.527,1.527,0,0,0,1.815,0c25.281-18.744,44.4-43.861,53.52-78.1C138.611,33.455,136.6,6.633,136.6,6.633,117.758,4.849,97.058,3.716,74.755,3.724,52.642,3.733,32.109,4.862,13.4,6.633Z"/>
  <path id="Shape_30_copy_2" data-name="Shape 30 copy 2" class="cls-2" d="M34.3,101.181s9.984,16.838,16.093,22.8c0,0,17.278-19.232,27.269-27.12,5.663-4.47,13.411-6.109,20.415-11.772S110.3,63.779,111.64,59.607,124.6,37.4,135.034,28.314L136.6,6.633l-19.744.224S102.848,18.032,95.248,35.765,89.288,60.65,70.512,69.59,34.3,101.181,34.3,101.181Z"/>
  <path id="Shape_30_copy" data-name="Shape 30 copy" class="cls-3" d="M75.02,148.046a3.315,3.315,0,0,1-1.96-.647C45.642,127.071,27.4,100.468,18.847,68.332,9.711,34.019,11.619,6.771,11.639,6.5l0.111-1.489,1.486-.141C33.6,2.943,54.3,1.962,74.754,1.954H75c20.534,0,41.312.981,61.762,2.916l1.487,0.141L138.364,6.5c0.021,0.271,1.928,27.519-7.207,61.832-8.682,32.612-26.4,58.474-54.175,79.066A3.319,3.319,0,0,1,75.02,148.046ZM15.093,8.252a209.266,209.266,0,0,0,7.175,59.17c8.447,31.728,25.7,56.924,52.753,77.025,27.02-20.078,44.264-45.274,52.716-77.025a209.293,209.293,0,0,0,7.175-59.17C115.065,6.421,94.918,5.494,75,5.494H74.756C54.92,5.5,34.856,6.429,15.093,8.252Z"/>
</svg>
