<svg xmlns="http://www.w3.org/2000/svg" width="150" height="150" viewBox="0 0 150 150">
  <metadata><?xpacket begin="﻿" id="W5M0MpCehiHzreSzNTczkc9d"?>
<x:xmpmeta xmlns:x="adobe:ns:meta/" x:xmptk="Adobe XMP Core 5.6-c138 79.159824, 2016/09/14-01:09:01        ">
   <rdf:RDF xmlns:rdf="http://www.w3.org/1999/02/22-rdf-syntax-ns#">
      <rdf:Description rdf:about=""/>
   </rdf:RDF>
</x:xmpmeta>
                                                                                                    
                                                                                                    
                                                                                                    
                                                                                                    
                                                                                                    
                                                                                                    
                                                                                                    
                                                                                                    
                                                                                                    
                                                                                                    
                                                                                                    
                                                                                                    
                                                                                                    
                                                                                                    
                                                                                                    
                                                                                                    
                                                                                                    
                                                                                                    
                                                                                                    
                                                                                                    
                           
<?xpacket end="w"?></metadata>
<defs>
    <style>
      .cls-1 {
        fill: #f0f0f0;
      }

      .cls-1, .cls-2 {
        fill-rule: evenodd;
      }

      .cls-2 {
        fill: #1f1f1f;
      }
    </style>
  </defs>
  <path class="cls-1" d="M74.427,145c-4.456,0-10.05-.341-13.08-1.839-3.129-1.548-3.937-4.664-4.792-7.963-1.443-5.569-3.857-14.882-17.668-27.2a54.468,54.468,0,0,1-7.84-7.287A18.156,18.156,0,0,1,27.8,95.329a9.941,9.941,0,0,1-.034-7.126c1.086-2.837,3.582-4.732,7.421-5.634a47.685,47.685,0,0,1,8.084-.878,52.446,52.446,0,0,0,6.132-.552,8.2,8.2,0,0,0,2.071-.6,9.08,9.08,0,0,0-1.2-1.961,57.529,57.529,0,0,0-4.551-5,49.483,49.483,0,0,1-6.578-7.676c-3.159-5.022-2.223-8.819-.881-11.12a10.507,10.507,0,0,1,7.966-5.321,22.508,22.508,0,0,1,7.062.514c0.61,0.113,1.464.271,2.166,0.357a7.754,7.754,0,0,0-.543-0.981,28.624,28.624,0,0,0-3.474-4.112c-0.413-.422-0.844-0.854-1.262-1.272a37.637,37.637,0,0,1-5.361-6.192c-2.054-3.271-2.444-6.493-1.16-9.576l0.079-.178a8.507,8.507,0,0,1,6.313-5.016,17.131,17.131,0,0,1,5.787.2c3.213,0.484,4.666.554,6.114-.719,1.161-1.021,2.277-4.046,3.174-6.477A35.033,35.033,0,0,1,68.05,9.466c2.5-3.941,5.638-4.6,7.829-4.465s5.226,1.2,7.369,5.5a39.391,39.391,0,0,1,2.414,7.149c0.684,2.536,1.535,5.693,2.55,6.894a2.91,2.91,0,0,0,1.449.482,29.461,29.461,0,0,0,4.7.143,30.531,30.531,0,0,1,5.925.265c3.934,0.717,5.639,2.908,6.377,4.619a10,10,0,0,1-1.289,10.119,34.767,34.767,0,0,1-6.038,6.1c-1.072.92-2.084,1.789-3,2.673A18.846,18.846,0,0,0,93.42,52.4c0.905-.121,1.933-0.308,2.691-0.445A32.181,32.181,0,0,1,104.5,51.2a10.848,10.848,0,0,1,9.033,5.529c1.38,2.455,2.176,6.452-1.862,11.55a58.179,58.179,0,0,1-8.039,7.642A70.483,70.483,0,0,0,97.871,81.1a7.9,7.9,0,0,0-1.908,2.661,1.111,1.111,0,0,0,1.14.495,26.579,26.579,0,0,0,6.26-.791c3.159-.626,6.425-1.273,9.573-0.909a10.64,10.64,0,0,1,9.232,7.153,10.9,10.9,0,0,1,.258,7.159,15.338,15.338,0,0,1-3.312,5.651c-2.61,2.982-6.246,5.613-10.1,8.4-5.353,3.872-11.419,8.261-13,12.911a34.729,34.729,0,0,0-1.838,10.032,19.213,19.213,0,0,1-.606,4.45,7.885,7.885,0,0,1-3.718,4.707l-0.38.219-0.415.143c-4.1,1.413-11.6,1.589-13.8,1.61C74.987,144.993,74.709,145,74.427,145Z"/>
  <path class="cls-2" d="M117.166,100.682c-2.414,2.781-5.895,5.32-9.58,8.009-5.767,4.207-11.731,8.558-13.484,13.768A36.885,36.885,0,0,0,92.2,132.912c-0.178,2.965-.347,5.765-3.248,7.451l-0.2.119-0.224.078c-2.967,1.031-8.615,1.442-12.911,1.482-0.241,0-.5,0-0.762,0-3.584,0-9.23-.237-11.978-1.608-2.25-1.122-2.87-3.533-3.654-6.586-1.475-5.74-3.943-15.344-17.995-27.97-4.274-3.426-13.035-10.487-10.342-17.337C32.1,85.3,35.6,84.471,36.749,84.2a45.042,45.042,0,0,1,7.581-.818c4.132-.221,9.251-0.494,10.093-2.5,0.2-2.18-3.422-5.915-6.349-8.93a47.5,47.5,0,0,1-6.2-7.265c-2.067-3.313-2.346-6.323-.83-8.944a8.261,8.261,0,0,1,6.339-4.28,20.346,20.346,0,0,1,6.3.492c3,0.559,4.18.642,4.6-.038,0.848-2.068-2.212-5.565-4.6-8.027-0.412-.425-0.84-0.856-1.253-1.274a35.755,35.755,0,0,1-4.986-5.78c-1.655-2.658-1.988-5.234-.988-7.656l0.042-.1a6.347,6.347,0,0,1,4.742-3.835,15.165,15.165,0,0,1,5.008.206c2.884,0.438,5.375.816,7.645-1.2,1.52-1.348,2.663-4.471,3.671-7.227a32.917,32.917,0,0,1,2.683-6.1c1.548-2.46,3.517-3.631,5.852-3.483s4.209,1.606,5.556,4.332a37.837,37.837,0,0,1,2.23,6.708c0.8,2.983,1.622,6.067,2.9,7.6,1.225,1.463,4.625,1.4,7.625,1.34a27.856,27.856,0,0,1,5.414.23,5.922,5.922,0,0,1,4.773,3.385,8.011,8.011,0,0,1-1.072,8.09,32.878,32.878,0,0,1-5.59,5.657c-1.029.89-2.092,1.81-3.032,2.727-3.748,3.653-4.308,5.944-4.081,6.645a0.272,0.272,0,0,0,.085.163,1.826,1.826,0,0,0,.783.165,22.96,22.96,0,0,0,4.762-.578,29.827,29.827,0,0,1,7.7-.724,8.656,8.656,0,0,1,7.283,4.448c1.538,2.762.982,5.865-1.654,9.22a55.962,55.962,0,0,1-7.613,7.275c-3.814,3.234-9.034,7.659-8.163,9.9,1.074,2.5,3.756,2.247,9.6,1.079,2.948-.589,6-1.2,8.77-0.874a8.452,8.452,0,0,1,7.412,5.79C121.125,93.554,120.239,97.142,117.166,100.682Zm-1.981-8.945c-1.241-3.314-4.183-3.1-10.6-1.817a30.013,30.013,0,0,1-8.114.892,7.78,7.78,0,0,1-7-4.9l-0.016-.038a6.594,6.594,0,0,1-.062-4.705,12.7,12.7,0,0,1,2.319-3.919,59.27,59.27,0,0,1,7.278-6.874c4.213-3.572,9.457-8.017,8.15-10.363-1.443-2.591-4.811-2.188-9.785-1.278a25.726,25.726,0,0,1-5.967.648c-3.584-.229-4.822-2.429-5.24-3.719-1.321-4.071,2.167-8.6,5.325-11.674,1.045-1.019,2.165-1.987,3.247-2.924,4.379-3.79,6.335-5.825,5.359-8.106a2.006,2.006,0,0,0-1.135-.48,24.776,24.776,0,0,0-4.426-.149c-4.106.079-8.761,0.169-11.5-3.1-1.981-2.365-2.949-5.983-3.884-9.483-0.779-2.912-1.955-7.313-3.34-7.4H75.756c-1.228,0-2.627,3.826-3.556,6.366-1.267,3.464-2.577,7.045-5.027,9.217-4,3.544-8.426,2.872-11.659,2.381-3.489-.53-3.979-0.343-4.513.783-0.8,2.053,1.439,4.531,4.94,8.065,0.422,0.426.858,0.867,1.288,1.309a30.516,30.516,0,0,1,4.788,6.023c1.521,2.749,1.763,5.289.719,7.55l-0.063.127a5.821,5.821,0,0,1-4.933,3.114,19.3,19.3,0,0,1-4.957-.5C48.608,56,46.64,55.9,45.315,58.193c-1.393,2.409,2.693,6.619,6.3,10.334a56.285,56.285,0,0,1,5.4,6.1c1.91,2.684,2.643,5.063,2.24,7.273l-0.026.146-0.044.141c-0.786,2.534-2.9,4.264-6.284,5.14a43.855,43.855,0,0,1-8.3.956,41.189,41.189,0,0,0-6.706.692c-0.959.227-2.154,0.637-2.4,1.3l-0.019.049c-0.645,1.624.791,3.869,2.108,5.468a48.26,48.26,0,0,0,6.784,6.3l0.1,0.089c15.2,13.642,18.014,24.575,19.523,30.448a14.341,14.341,0,0,0,1.127,3.431c1.2,0.572,4.878,1.118,10.449,1.066a48.625,48.625,0,0,0,11.066-1.121c0.4-.333.506-0.983,0.65-3.389A41.225,41.225,0,0,1,89.431,120.9c2.252-6.691,9.155-11.727,15.246-16.171C112.189,99.244,116.645,95.635,115.185,91.737ZM99.048,102.624c-5.006,2.672-11.862,6.332-14.18,11.912a69.465,69.465,0,0,0-3.41,10.5c-0.813,3.2-1.35,5.315-3.221,7.179-0.947.944-2.62,0.972-4.1,1H74.067a6.952,6.952,0,0,1-2.4-.458c-2.492-1.275-3.072-4.761-3.743-8.8-0.6-3.58-1.27-7.639-3.376-10.539h0c-3.776-5.209-8.221-7.733-11.792-9.762-3.386-1.923-6.311-3.584-7.205-6.8a2.157,2.157,0,0,1,.5-2.343c1.537-1.4,5.131-.153,11.351,2.177,2.5,0.936,5.083,1.9,7.169,2.459,2.8,0.746,3.42.383,3.48,0.34a0.226,0.226,0,0,0,.007-0.028l0.011-.05c1.757-6.882.722-15.12-2.84-22.6-1.294-2.719-4.645-5.082-7.338-6.981-2.656-1.873-4.258-3-4.023-4.465A2.141,2.141,0,0,1,55.6,63.758c2.458-.749,5.785.434,9,1.577a29.12,29.12,0,0,0,4.145,1.271,1.816,1.816,0,0,0,1.3-.039c1.178-2.89-.236-14.427-2.773-18.965a20.906,20.906,0,0,0-5.542-6.151,13.259,13.259,0,0,1-2.05-1.893,2.446,2.446,0,0,1-.4-2.706c1.052-2.187,3.938-1.495,6.728-.825a20.6,20.6,0,0,0,4.48.749h0c0.534,0,.946-0.885,1.2-1.629a29.892,29.892,0,0,0,.971-4.827,30.489,30.489,0,0,1,.745-3.933c0.5-1.657,1.319-2.447,2.448-2.346,1.6,0.142,2.164,1.912,2.35,2.494a29.6,29.6,0,0,1,.808,3.959c0.365,2.266.779,4.833,1.675,6.4,0.225,0.392,1.164.34,1.7,0.273a25.107,25.107,0,0,0,4.024-1.032,26.687,26.687,0,0,1,3.021-.827c0.513-.091,2.075-0.368,2.752.8,0.457,0.788.252,1.708-.609,2.734a24.687,24.687,0,0,1-2.255,2.191c-2.119,1.91-4.757,4.287-5.669,7.047a59.391,59.391,0,0,0-2.251,11c-0.53,4.938-.061,7.312.5,7.844l0.026,0.026a2.8,2.8,0,0,0,1.623-.16,38.5,38.5,0,0,0,3.662-1.28c3.206-1.231,6.838-2.626,9.528-1.991a2.089,2.089,0,0,1,1.87,1.61c0.289,1.748-2,3.266-6.8,6.262A46.865,46.865,0,0,0,85.607,75.7c-1.686,1.568-3.35,5.495-4.453,10.5-1.023,4.647-1.388,9.54-.938,12.522a2.257,2.257,0,0,0,1.221,1.291c2.385,1.037,7.291-.947,11.618-2.7,4.94-2,9.206-3.721,11.422-1.969a2.333,2.333,0,0,1,1.036,2.079C105.347,99.261,102.841,100.6,99.048,102.624Zm4.036-5.52c-0.262-.206-1.017-0.469-3.142.09a55.408,55.408,0,0,0-6.046,2.2c-4.969,2.008-10.106,4.085-13.355,2.673A4.511,4.511,0,0,1,78.08,99.42l-0.041-.107L78.021,99.2c-0.527-3.273-.166-8.436.944-13.474,0.714-3.241,2.327-9.066,5.113-11.658a47.963,47.963,0,0,1,6.561-4.573c1.5-.935,2.908-1.818,4.009-2.61a11.023,11.023,0,0,0,1.478-1.218c-2.022-.405-5.244.832-8.093,1.926-2.29.879-4.265,1.637-5.759,1.638a2.562,2.562,0,0,1-1.917-.7c-0.766-.738-1.21-2.049-1.358-4.007a32.19,32.19,0,0,1,.188-5.681,61.84,61.84,0,0,1,2.351-11.46c1.1-3.322,4.1-6.029,6.3-8.006,0.648-.584,1.46-1.315,1.947-1.857-0.758.15-1.865,0.5-2.683,0.751a27,27,0,0,1-4.42,1.118c-1.942.239-3.263-.226-3.925-1.383-1.1-1.918-1.546-4.7-1.942-7.152-0.2-1.224-.384-2.381-0.625-3.272a4.752,4.752,0,0,0-.416-1.113,6.1,6.1,0,0,0-.35,1.115c-0.2.858-.361,1.932-0.53,3.07a31.306,31.306,0,0,1-1.066,5.219c-0.711,2.086-1.825,3.144-3.309,3.144H70.49a22.507,22.507,0,0,1-5-.811c-1.464-.351-3.914-0.94-4.183-0.382-0.028.058-.054,0.112,0.146,0.369a12.22,12.22,0,0,0,1.7,1.531,22.843,22.843,0,0,1,6.082,6.795C72,51.466,73.683,63.825,72.088,67.505l-0.031.064c-0.587,1.147-1.828,1.563-3.691,1.238a30.381,30.381,0,0,1-4.511-1.367c-2.685-.954-5.721-2.033-7.488-1.576a28.856,28.856,0,0,0,2.817,2.146c2.906,2.049,6.522,4.6,8.068,7.847,3.778,7.937,4.868,16.715,2.993,24.089a2.227,2.227,0,0,1-1.133,1.517c-2.023,1.114-6.073-.268-12.5-2.675-2.2-.826-4.287-1.606-6.018-2.109a8.4,8.4,0,0,0-2.909-.515c0.006,0.029.014,0.063,0.025,0.1,0.647,2.325,2.957,3.637,6.155,5.453,3.759,2.135,8.438,4.793,12.5,10.394,2.416,3.326,3.137,7.661,3.772,11.485,0.548,3.3,1.066,6.413,2.555,7.174a5.133,5.133,0,0,0,1.394.212H74.1a6.657,6.657,0,0,0,2.549-.343c1.434-1.43,1.885-3.206,2.633-6.148A72.327,72.327,0,0,1,82.8,113.681c2.624-6.318,9.888-10.2,15.193-13.028,1.553-.829,2.893-1.544,3.884-2.2a4.177,4.177,0,0,0,1.385-1.188A1.175,1.175,0,0,0,103.084,97.1Z"/>
</svg>
