<svg xmlns="http://www.w3.org/2000/svg" width="150" height="150" viewBox="0 0 150 150">
  <metadata><?xpacket begin="﻿" id="W5M0MpCehiHzreSzNTczkc9d"?>
<x:xmpmeta xmlns:x="adobe:ns:meta/" x:xmptk="Adobe XMP Core 5.6-c138 79.159824, 2016/09/14-01:09:01        ">
   <rdf:RDF xmlns:rdf="http://www.w3.org/1999/02/22-rdf-syntax-ns#">
      <rdf:Description rdf:about=""/>
   </rdf:RDF>
</x:xmpmeta>
                                                                                                    
                                                                                                    
                                                                                                    
                                                                                                    
                                                                                                    
                                                                                                    
                                                                                                    
                                                                                                    
                                                                                                    
                                                                                                    
                                                                                                    
                                                                                                    
                                                                                                    
                                                                                                    
                                                                                                    
                                                                                                    
                                                                                                    
                                                                                                    
                                                                                                    
                                                                                                    
                           
<?xpacket end="w"?></metadata>
<defs>
    <style>
      .cls-1 {
        fill: #1f1f1f;
      }

      .cls-1, .cls-2, .cls-3 {
        fill-rule: evenodd;
      }

      .cls-2 {
        fill: #f3f3f3;
      }

      .cls-3 {
        fill: #e2c11d;
      }
    </style>
  </defs>
  <path class="cls-1" d="M104.319,50.312l14.087-11.2L141,127v21H10V127L34.113,39.113l13.341,10.9a0.436,0.436,0,0,0,.357-0.316A24.709,24.709,0,0,0,41,42.99c-0.55-.234-1.894-0.127-1.961-0.72-0.105-.543,2.916-2.383,3.851-2.918-1.22-1.574-2.04-3.408-9.049-5.767-0.519-.168-0.511-0.155-1.646-0.533-1.405-.468,2.522-3.006,4.22-3.887-5.021-4.5-6.848-4.552-8.938-5.511a6.472,6.472,0,0,1,5.275-4.859c-2.93-3.832-2.155-6.127-7.554-9.2-3.339-1.972-5.827-1.625-7.8-1.714C13.119,7.688,22.674,3,24.905,2.591A15.359,15.359,0,0,1,31.513,2.5C35.355,3.256,46.781,13.6,45.821,12.776c1.861,1.487,4.2,3.6,6.145,5.074,1.109,0.837,2.321,2.03,3.333,2.945a30.345,30.345,0,0,0,4.271,3.469c1.2,0.746,3.385,2.051,5.379,2.051,2.473,0,3.34-2.285,3.029-5.87a3.244,3.244,0,0,1-1.687.108,2.775,2.775,0,0,1-1.615-1.433c0.038-.915,1.415-0.458,2.013-1.186,0.477-.45.25-2.412,0.229-3.424a10.559,10.559,0,0,1-1.193.059c-2.786,0-4.7-.8-4.878-2.894C60.466,7.2,63.68,4.629,68.7,4c0.315-.031.868,0.049,0.82,0.477s-2.195.749-2.83,2.5a1.509,1.509,0,0,0,1.166,2.091c1.765-.017,3.706-1.649,5.938-2.967,1.8-1.042,4.765-3.216,7.168-3.152,1.977,0,3.756.677,4.091,2.969a0.36,0.36,0,0,0,.389.432c0.208,0,.593-0.206.825-0.214,0.259-.009.526-0.018,0.808-0.018a7.637,7.637,0,0,1,1.973.23l0.018,0c2.12,0.562,3,2.614,2.945,5.351-0.145,3.787-1.858,4.11-2.078,4.132a0.691,0.691,0,0,1-.7-0.224C89,15.347,88.16,12.7,86.7,12.6c-0.984,0-1.893-.019-3.65,2.434-0.4,3.379-.72,3.755-1.462,4.972a6.763,6.763,0,0,1,2.628,4.051,6.584,6.584,0,0,0,.816,2.059c3.125,3.544,7.419-1.37,9.9-4.254-0.131.179,10.825-12.107,18.225-15.752,5.19-2.7,8.531-3.129,11.3-3.144,3.741,0.029,8.078,2.9,8.063,4.146,0.067,0.894-2.911.562-3.8,0.656-3.11.328-7.117,4.329-8.741,6.731a5.475,5.475,0,0,0-.86,2.684c1.333,0.181,4.078,1.156,4.408,3.118-0.22.44-1.26,0.443-2.624,1.077-1.654.769-2.821,3.238-4.663,5.082-0.6.689-1.209,1.249-1.957,2.008,1.27,0.01,3.4.08,4.062,1.122,0.49,0.772-.946,1.966-1.716,2.458-0.261.167-2.06,1.716-2.67,2.147-1.081.762-2.16,1.483-3.2,2.18-1.239.828-2.41,1.61-3.587,2.457l-0.276.2c-0.125.089-.454,0.615-0.594,0.718,0.94,0.168,2.683-.367,3.885,1.41,0.346,0.716-.816.8-2.059,1.819-0.842.691-1.566,1.176-2.453,1.864,0.252-.2-4.182,2.395-4.51,4.905C101.793,49.75,103.557,49.658,104.319,50.312ZM29.55,129h91.411L105.969,72.117l-30.1,24.462L44.106,71.78ZM65.136,60.961a2.612,2.612,0,0,0-2.4-.858c-0.9.059-1.785,0.181-2.633,0.236l7.537,6.156a5.62,5.62,0,0,0,.195-1.4C67.853,63.717,66.121,61.669,65.136,60.961ZM75.6,67.36c-1.245-.642-1.8,1.947-3.564,2.728l3.654,2.985,3.9-3.1C77.083,69.639,77.513,68.646,75.6,67.36Zm16.436-8.353a7.694,7.694,0,0,0-1.694-.2,4.131,4.131,0,0,0-2.558.743l-0.263.2c-2.326,1.757-5.536,4.242-4.716,7.672l10.264-8.16c-0.241-.049-0.485-0.108-0.759-0.179Zm2.9-37.148c0.014-.018.142-0.166,0.4-0.469Z"/>
  <path class="cls-2" d="M12,146V131H139v15H12Zm95-77L75.84,94.055,43.061,68.46,27,129H12L34.989,42.409,75.68,75.22l41.5-32.811L139,129H123Zm11.227-55.3c-0.55.813-2.114,3.357-1.494,4.646,1.415,0.251,2.815-.2,3.817,1.825-2.356,1.045-4.656,4.139-6.637,6.305-2.26,2.471-2.284,1.561-2.655,2.987,2.2,0.486,3.934-.124,4.646,1-0.9.577-1.783,1.708-2.655,2.323-2.3,1.624-4.573,3.041-6.8,4.646-1.083.779-2.617,1.761-2.821,3.153,1.894,0.352,3.509.026,3.982,1a23.022,23.022,0,0,0-3.816,2.655c-2.858,2.119-5.78,3.835-4.812,6.637,0.779,0.032,2.705-.293,3.153.5-2.793,1.118-3.856,4.847-6.638,5.973a3.472,3.472,0,0,1-2.821,0,6.621,6.621,0,0,0-5.641.83c-2.745,2.078-7.415,5.438-6.471,9.956a0.923,0.923,0,0,1-.332,0c-0.781-.133-2.3-1.666-3.319-2.655-2.489-.077-3.683.515-4.978,1.991-0.52.593-.49,1.176-1.327,1.493-0.473-.651-1.34-0.866-1.659-1.659,3.1-2.095-.052-6.524-1.825-7.8-2.734-1.965-5.473.06-8.3-.83-2.494-.786-4.655-4.84-6.471-6.637-0.659-.653-2.352-1.04-2.821-1.825,0.5-.345.517-0.615,0.5-1.493-0.118-1.157-4.454-5.733-8.13-7.3,1.841-1.339,3.476-1.766,3.65-2.655-1.526-2.248-2.726-4.145-10.951-6.8a6.824,6.824,0,0,1,4.148-2.323c0.347-.326.212-0.916-0.332-1.659a18.706,18.706,0,0,0-4.978-3.982,10.277,10.277,0,0,0-3.519-1.407,6.731,6.731,0,0,1,2.689-2.575c1.356-.556,2.933.006,3.485-1.327-1.418-.333-2.5-3.705-3.605-5.458A15.511,15.511,0,0,0,27.1,8.085C24.483,6.561,20.57,6.378,19.5,6.4c0.76-1,4.589-2.511,6.637-2.821,6.126-.792,8.96,3.3,12.777,6.139,4.145,3.079,7.68,6.53,11.781,9.624,2.57,1.939,4.828,4.533,7.648,6.28,2.6,1.607,8.252,2.987,10.461-.053,1.166-1.6,1.242-4.052,1.208-6.841-1.225-.35-1.351.228-2.079,0,1.153-1.088,1.2-3.226,1.1-5.028a0.561,0.561,0,0,0-.5-0.664c-0.682-.126-2.419.64-4.229-0.332a2.57,2.57,0,0,1-1-1.327c-0.687-3.049.752-4,1.161-4.48-0.476,2.042.512,3.176,1.328,3.484,3.066,0.818,6.465-1.9,9.292-3.65,2.379-1.473,4.865-2.467,6.8-1.327,1.1,0.645.527,2.232,1.327,2.489,1.385,0.449,2.891-.092,4.48.332,0.444,0.118,2.049.5,1.991,3.485-1.018-.831-5.3-1.565-8.794,2.655-0.035,1.281-.2,3.717-0.83,4.646-0.449.664-1.1,0.22-1.327,1.162,3.56,2.195,2.56,4.639,4.148,6.969,0.856,1.255,2.809,1.209,4.978,1.162l2.323-.332c3.555-1.3,6.41-5.937,9.292-8.628s9.674-9.9,14.436-12.279c2.457-1.282,6.667-3.149,9.292-2.987,4.144,0.256,5.43,1.728,5.475,2.323C124.885,6.8,120,11.085,118.227,13.7Z"/>
  <path id="Color_Fill_2" data-name="Color Fill 2" class="cls-3" d="M25,127.2H14.864L36.59,47.221,75.667,78.753l39.679-31.532L136.3,127.2H124.815L108.172,64.477,75.505,90.949,42.231,63.814Z"/>
</svg>
