<svg xmlns="http://www.w3.org/2000/svg" width="150" height="150" viewBox="0 0 150 150">
  <defs>
    <style>
      .cls-1, .cls-6 {
        fill: #343dba;
      }

      .cls-15, .cls-2 {
        fill: #b0b0b0;
      }

      .cls-17, .cls-2, .cls-3, .cls-5, .cls-6, .cls-7, .cls-8, .cls-9 {
        fill-rule: evenodd;
      }

      .cls-3, .cls-4 {
        fill: #1a1a1a;
      }

      .cls-5 {
        fill: #c2913b;
      }

      .cls-10, .cls-7 {
        fill: #ec3825;
      }

      .cls-8 {
        fill: #b98834;
      }

      .cls-13, .cls-9 {
        fill: #1c1515;
      }

      .cls-11 {
        fill: #252525;
      }

      .cls-12 {
        fill: #666;
      }

      .cls-14, .cls-17 {
        fill: #4d4d4d;
      }

      .cls-16 {
        fill: gray;
      }

      .cls-18 {
        fill: #333;
      }
    </style>
  </defs>
  <g id="Layer_6" data-name="Layer 6">
    <g>
      <path class="cls-1" d="M88.19762,32.78169l-8.74929-.43926A11.86793,11.86793,0,0,1,81.571,35.58927a11.195,11.195,0,0,0,1.90078,3.66206l10.35839-.12207A37.09012,37.09012,0,0,1,88.19762,32.78169Z"/>
      <path class="cls-2" d="M92.33179,40.95384l3.5647.82032a27.42555,27.42555,0,0,1-9.43385-10.36495l-.93435.24484S86.82244,36.26507,92.33179,40.95384Z"/>
      <path class="cls-2" d="M86.61358,40.72476l2.24567.43694a34.84383,34.84383,0,0,1-5.32531-8.33655L81.86921,32.729A36.71326,36.71326,0,0,0,86.61358,40.72476Z"/>
      <g>
        <path class="cls-3" d="M132.88377,126.83689l-.59039.65991a21.07016,21.07016,0,0,1-7.86871,5.06862,46.97077,46.97077,0,0,1-9.32865,1.7808l.98506,4.04932-.09519.11444c-.1476.17541-3.76375,4.336-17.99524,7.4088a115.76854,115.76854,0,0,1-21.15148,2.0343H72.347a115.756,115.756,0,0,1-21.15362-2.03215c-14.23255-3.07283-17.84871-7.23339-17.99631-7.4088l-.09519-.11443.98506-4.04933a46.96871,46.96871,0,0,1-9.32972-1.7808,21.05088,21.05088,0,0,1-7.8687-5.06861l-.58612-.66207.87061.17005a62.05888,62.05888,0,0,0,8.26017,1.02892,72.4634,72.4634,0,0,1-5.19483-6.67615l-.62034-1.03961,1.03212.63639c.06631.03957,6.704,4.106,9.94685,5.013a55.89755,55.89755,0,0,0,5.93281,1.20218c1.25245.20535,2.33484.3829,3.20866.59359a4.644,4.644,0,0,1,3.276,2.353,2.09313,2.09313,0,0,1-.4,2.01932l-.9626,2.4129q2.17442.8428,5.09429,1.74872c9.99391,3.10705,26.67252,3.69423,26.82975,3.70066h2.04285c.15722-.00641,16.83691-.59359,26.82975-3.70066q2.91989-.90483,5.09428-1.74872l-.9626-2.4129a2.09313,2.09313,0,0,1-.4-2.01932,4.63868,4.63868,0,0,1,3.276-2.353c.87062-.2139,1.95193-.38825,3.20866-.59359a55.99452,55.99452,0,0,0,5.93174-1.20218c3.24182-.907,9.8784-4.97343,9.94686-5.013l1.03211-.63639-.61927,1.03961a72.69218,72.69218,0,0,1-5.1959,6.67615,62.01541,62.01541,0,0,0,8.26017-1.02892Z"/>
        <path class="cls-4" d="M76.84154,148.48828H72.3474a116.64687,116.64687,0,0,1-21.2539-2.042c-14.41309-3.11231-18.1543-7.40918-18.30665-7.59082l-.26757-.32324.90136-3.709a47.66248,47.66248,0,0,1-8.8164-1.74316,21.71954,21.71954,0,0,1-8.09864-5.207l-1.64941-1.86328,2.419.47265a62.27455,62.27455,0,0,0,6.91894.93457c-1.55762-1.84375-3.0332-3.77441-4.39648-5.75488l-1.75684-2.94141,2.88965,1.78028c.69434.42285,6.79,4.1084,9.81152,4.9541a55.64349,55.64349,0,0,0,5.86621,1.1875c1.26953.208,2.3584.38672,3.25586.60351a5.13047,5.13047,0,0,1,3.62012,2.61621,2.66857,2.66857,0,0,1-.40332,2.55079l-.73047,1.832c1.32324.49707,2.85156,1.01562,4.55371,1.543,9.48047,2.94726,24.9375,3.61035,26.669,3.67675h2.0459c1.73437-.0664,17.19238-.72949,26.67089-3.67675,1.70313-.52735,3.23243-1.04493,4.55469-1.543l-.73047-1.832a2.64507,2.64507,0,0,1-.4414-2.46192,5.15655,5.15655,0,0,1,3.6914-2.71191c.83692-.207,1.90235-.38086,3.13477-.582a56.7076,56.7076,0,0,0,5.96387-1.20508c2.89843-.81153,8.64843-4.25293,9.77148-4.9336l2.916-1.79589-1.73438,2.91015c-1.38281,2.00977-2.86133,3.94434-4.416,5.78418a62.01755,62.01755,0,0,0,6.91894-.93554l2.42578-.47754-1.65234,1.84961a21.74653,21.74653,0,0,1-8.085,5.21484,47.71533,47.71533,0,0,1-8.84473,1.75293l.90137,3.709-.26563.32129c-.15429.1836-3.89551,4.48047-18.29394,7.58985A116.65064,116.65064,0,0,1,76.84154,148.48828ZM33.68725,138.25684c.58984.626,4.53125,4.31543,17.61914,7.1416a115.46257,115.46257,0,0,0,21.043,2.01953h4.49024a115.46525,115.46525,0,0,0,21.05176-2.02442c13.0625-2.82128,17.00683-6.50585,17.60449-7.13867l-1.06641-4.38672.62012-.05468a46.54769,46.54769,0,0,0,9.22168-1.76075,20.65307,20.65307,0,0,0,7.07715-4.376,63.0479,63.0479,0,0,1-7.55762.89355l-1.27246.07227.83984-.959a72.648,72.648,0,0,0,4.50782-5.69921c-2.11524,1.248-6.59473,3.792-9.125,4.5a57.18886,57.18886,0,0,1-5.99805,1.21679c-1.28223.209-2.32715.37988-3.15918.584a4.10079,4.10079,0,0,0-2.93359,2.08886,1.56708,1.56708,0,0,0,.33593,1.415l.09082.15039,1.16211,2.91407-.50293.19628c-1.457.56543-3.18261,1.15723-5.1289,1.75977-9.60938,2.98828-25.19922,3.65723-26.94532,3.72363l-2.08593.002c-1.78907-.06836-17.37793-.73731-26.98926-3.72559-1.94531-.60352-3.6709-1.19531-5.12793-1.75977l-.50391-.19531,1.25391-3.06543a1.56742,1.56742,0,0,0,.29785-1.5039,4.08482,4.08482,0,0,0-2.86035-1.99317c-.8916-.21387-1.96289-.38965-3.20313-.59277a56.53565,56.53565,0,0,1-5.98046-1.21192c-2.56348-.71679-7.11817-3.31152-9.13477-4.502a72.483,72.483,0,0,0,4.50781,5.69824l.83985.959-1.27246-.07227a62.9562,62.9562,0,0,1-7.57715-.89746,20.63666,20.63666,0,0,0,7.11425,4.3916,46.47188,46.47188,0,0,0,9.19336,1.751l.62012.05469Z"/>
      </g>
      <g id="Shape_291_copy_3" data-name="Shape 291 copy 3">
        <path class="cls-5" d="M113.8361,131.66912a4.30372,4.30372,0,0,1-.52088.52622,21.19007,21.19007,0,0,1-5.56167,2.8985c-1.384.53478-3.07176,1.12837-5.13386,1.77011-10.06985,3.12845-26.82868,3.71884-26.9966,3.72526h-2.06c-.169-.00642-16.92676-.59681-26.99767-3.72526-2.061-.64174-3.74879-1.23106-5.13386-1.77011a21.18787,21.18787,0,0,1-5.56168-2.8985,4.27,4.27,0,0,1-.52194-.52622L33.75114,138.234c.66312.66419,4.82154,4.35309,17.56528,7.10611A114.94951,114.94951,0,0,0,72.331,147.36268h4.51993a114.92459,114.92459,0,0,0,21.01352-2.02253c12.74373-2.753,16.899-6.44192,17.56528-7.10611l-1.59684-6.56492M36.22716,129.9065a.58206.58206,0,0,0-.077,0,.69734.69734,0,0,0-.47595.4214.87168.87168,0,0,0,.09519.86206,2.907,2.907,0,0,0,.32087.37863,16.316,16.316,0,0,0,5.00551,2.75409l.83425-2.09739a10.69553,10.69553,0,0,1-2.57977-.72409c-.42782-.22354-.84387-.47488-1.245-.72087a5.1892,5.1892,0,0,0-1.87492-.87918m76.75117,0a5.18186,5.18186,0,0,0-1.87386.87918c-.40215.246-.81607.49733-1.245.72087a10.70307,10.70307,0,0,1-2.58084.72409l.83425,2.09739a16.32462,16.32462,0,0,0,5.00551-2.75409,2.85489,2.85489,0,0,0,.32087-.37863.876.876,0,0,0,.09519-.86206.70161.70161,0,0,0-.47595-.4214.5925.5925,0,0,0-.077,0M21.478,122.14261c1.691,2.36157,4.80123,5.96383,4.83759,6.00661l.42782.48984h-.65672a53.77461,53.77461,0,0,1-8.0794-.87488,21.47032,21.47032,0,0,0,6.95851,4.24505,47.48817,47.48817,0,0,0,9.26448,1.75407l.79254-3.25679a1.39918,1.39918,0,0,1,.07914-.32087l.08022-.18182a1.25139,1.25139,0,0,1,.88131-.67489,1.04268,1.04268,0,0,1,.16472-.01177,5.09336,5.09336,0,0,1,2.1883.9626c.3936.23851.799.48664,1.20967.69949a7.90281,7.90281,0,0,0,1.7562.53478.94592.94592,0,0,0,.19573.02032.91981.91981,0,0,0,.88773-1.17652l-.01818-.05134a4.12317,4.12317,0,0,0-2.8557-1.97119c-.84923-.20642-1.91985-.38183-3.16054-.58612a56.02164,56.02164,0,0,1-5.997-1.215c-2.52736-.707-6.89327-3.17978-8.95965-4.398m106.26228,0c-2.06531,1.21822-6.43123,3.691-8.95858,4.398a56.10362,56.10362,0,0,1-5.997,1.215c-1.24176.20428-2.31345.37969-3.16161.58612a4.12847,4.12847,0,0,0-2.8557,1.97119l-.016.05134a.91983.91983,0,0,0,.88773,1.17652.95063.95063,0,0,0,.19572-.02032,7.91421,7.91421,0,0,0,1.75514-.53478c.40964-.21391.81714-.461,1.20966-.69949a5.08575,5.08575,0,0,1,2.18831-.9626,1.05093,1.05093,0,0,1,.16471.01177,1.25354,1.25354,0,0,1,.88131.67489l.08021.18182a1.42,1.42,0,0,1,.07914.32087l.79147,3.25679a47.503,47.503,0,0,0,9.26448-1.75407,21.45853,21.45853,0,0,0,6.95209-4.24505,53.73673,53.73673,0,0,1-8.07834.87488H122.477l.42783-.48984c.03743-.04278,3.14556-3.645,4.83759-6.00661"/>
      </g>
      <path class="cls-1" d="M23.46851,58.1a9.39,9.39,0,0,0-5.45482,1.75408,2.11588,2.11588,0,0,0-.86628,1.45249c-.22782,1.76793-.61285,4.43646-.76573,5.48786a1.91341,1.91341,0,0,0-.06528.4492c-.07808,3.321,7.80766,4.88466,9.29018,5.07933a8.71032,8.71032,0,0,1,3.03109,1.21069,5.36277,5.36277,0,0,0-1.12739-4.337c2.9542-.85563,3.6151-2.61827,3.6151-2.61827a5.75192,5.75192,0,0,1-4.89747-1.538c1.99367-.07377,3.93484-.07592,5.44086-.06417a19.8455,19.8455,0,0,0,7.34665-1.01609l-.07376-7.93287C37.38655,57.3578,27.35844,58.1,23.46851,58.1Z"/>
      <path class="cls-1" d="M45.113,39.18825H55.83844A40.21975,40.21975,0,0,0,61.736,32.46718l-5.13377-1.25031S53.85979,35.94963,45.113,39.18825Z"/>
      <path class="cls-1" d="M19.83187,54.58339c2.9542,1.32839,6.29656,1.48454,8.16292,2.34448a9.14712,9.14712,0,0,0-.85569-3.51672,19.75051,19.75051,0,0,0,3.42265-2.50063s-3.18738.07807-4.89747-1.48454a40.38213,40.38213,0,0,0,13.04093-1.18719v-7.2473a64.7226,64.7226,0,0,1-15.0624,1.40112s-5.98947.23422-6.91907,2.2664c0,0-.77748,4.91992-.77748,5.47076S15.44686,52.60467,19.83187,54.58339Z"/>
      <path class="cls-1" d="M133.66882,50.12872c0-.54764-.77657-5.47082-.77657-5.47082-.93364-2.03211-6.91894-2.26634-6.91894-2.26634a64.73214,64.73214,0,0,1-15.06253-1.40111v7.24729A40.38492,40.38492,0,0,0,123.95093,49.426c-1.71139,1.56261-4.89864,1.48454-4.89864,1.48454a19.74186,19.74186,0,0,0,3.42252,2.50063,9.13225,9.13225,0,0,0-.85557,3.51672c1.86637-.8557,5.20872-1.01609,8.16279-2.34448C134.1673,52.61,133.66882,50.67629,133.66882,50.12872Z"/>
      <path class="cls-1" d="M63.11171,39.14008l2.91568-.11333c1.88948.57336,3.25384-3.36187,3.77269-5.39059l-3.59225-.31387C65.52447,35.41139,64.02068,37.13878,63.11171,39.14008Z"/>
      <path class="cls-6" d="M111.482,39.55615H38.76306v77.256a4.7606,4.7606,0,0,0,4.784,4.73707l.00119,0H69.00362a6.60008,6.60008,0,0,1,3.06.71553,5.72423,5.72423,0,0,1,3.0001,3.85039l.031.07487a6.00335,6.00335,0,0,1,3.08887-3.93275,6.60217,6.60217,0,0,1,3.06-.71553H106.699a4.76059,4.76059,0,0,0,4.78411-4.73694V39.55615"/>
      <path class="cls-5" d="M111.482,39.29946H38.76306V62.01678H111.482V39.29946M75.12788,33.679c-14.1919.19466-20.82634-2.80971-21.53225-3.68889a1.06955,1.06955,0,0,1-.2353-1.40539l-.53478-1.87386a2.28563,2.28563,0,0,1-1.52946-2.63431l-4.11885-9.48373-.82356-.585-.82356-1.5808L47.296,9.03109l3.353,1.1701.7059,1.87385-.05883,1.34657.88239,1.5808,1-.7027.2353.7027.53478-.17541-.062-1.17009,1-.40964.23531,1.05351.64707-.293-.05882-1.17117.94121-.40964L56.4107,9.14874l-.87811-1.11233-.53477-2.69314L56.05668,5.109l.2353,1.05351.58825-.11765V4.87481l.94121-.17541.17648,1.11234.7059-.17541v-1.23l1.05886-.23423.24172,1.05137.64708-.1754V3.76461L61.94563,3.648l1.71129,1.81824.29413,2.40008-.35295.8781.40642,2.74662.53478-.17541v-.99575h1.0888l.20643,1.14228.64173-.02888-.02994-1.40646h1.32411l.14653,1.14121.9412-.11658-.02888-1.25886L70.27,9.82256l.11765,1.02464H71.27l.3829-4.65363-.88238-1.14229L70.7117,2.15279l1.353.02888V3.49936h.91126V2.12178l1.47064.02888.08877,1.37544,1-.02888.05882-1.37544,1.49738.05882.03209,1.43855.91125-.02888V2.21162l1.41181.0877L79.50556,5.139,78.712,6.16362l.11766,4.59908.79039.02246.02995-.73157,1.38186.02888.05883.99575h.91126l.11765-.84923,1.09415.09092.05776,1,.76473.11765.17648-.907.969.08235-.02888,1.02464.53478.05775.85564-2.86854-.35295-1.02463.05882-2.02039L88.508,3.61915l.97008.35082v1.3733l.62355.05883.107-1.17116.9412.23423L91.214,5.86522l.677.14652.11765-1.2,1.23533.29305L93.18516,6.339l.70591.11765.0877-1.02463,1.0888.40963-.17648,2.429L93.68463,9.41185,93.5381,12.6034l.676.23423L94.15524,13.95l.76473.20428.17647-.73157,1.05887.46419-.08771.8781.55831.23851.29413-.82035.9412.55617.41178.14653.64708-1.69845-.23423-1.22571.73586-1.55192,3.44182-1.25887,1.91237,3.39584-.73586,2.07814-.88238.615-4.23543,8.86981s.50055,1.49737-.29413,1.69845l-1.97119,3.01507s.61821,1.34657-1.49738,2.16585S86.478,33.52387,75.12788,33.679Z"/>
      <path class="cls-7" d="M55.65346,29.34405s6.766-2.51666,19.00276-2.56693c14.41115-.05561,20.23487,3.03326,20.23487,3.03326s-6.86546,2.32521-19.29689,2.56693c-12.06027.23209-19.944-3.03326-19.944-3.03326Z"/>
      <path class="cls-8" d="M49.01259,39.65134H45.35472a27.42224,27.42224,0,0,0,11.51909-7.98528l.85565.44814S55.43312,36.31754,49.01259,39.65134ZM16.71208,44.797A8.72433,8.72433,0,0,1,21.386,43.00546c2.7402-.38717,9.85808.13156,17.35351-1.48881V43.0322a96.77938,96.77938,0,0,1-13.66675,1.4685c-1.40219.11658-5.9018-.05883-8.47194,1.98616Zm39.51358-5.14135H53.939a34.84568,34.84568,0,0,0,6.81947-7.166l1.65139.2214a36.7166,36.7166,0,0,1-6.18416,6.94033ZM16.46822,49.89553c1.40219-2.10382,10.595-1.90916,14.41223-1.98616a38.11778,38.11778,0,0,0,8.27728-1.01929v1.70273a48.08709,48.08709,0,0,1-12.75657,1.338c.74013,1.28347,4.28463,1.51877,4.28463,1.51877l-1.20752,1.13372c-4.20656-.66205-5.53066-2.64928-5.53066-2.64928a13.94161,13.94161,0,0,0-6.31037.77863c.23317,1.51877,3.42257,3.58408,5.53066,4.0119s4.94669,1.3241,4.94669,1.3241.584,1.36369.27273,1.12945-4.98626-1.12945-7.63447-1.98616a7.82484,7.82484,0,0,1-4.40121-3.34984A6.613,6.613,0,0,1,16.46822,49.89553Z"/>
      <path class="cls-2" d="M39.30639,57.63137c-1.55834,1.32411-5.53393,1.53458-14.09617,1.62177-1.95839.00216-4.89144.434-6.48708,1.56946-.478.34059-1.33742.88273-1.41251,1.46482-.04813.37541.04959.26414-.00709.69624l.08022.15722c1.11167-1.44674,4.13948-2.57244,5.96055-2.68449,4.34215-.36621,7.88014-.21238,9.60854-.26158,2.045-.05882,4.96847-.4412,6.376-1.268ZM21.35633,68.86169c-2.88779-1.28347-2.89476-2.58088-2.89476-2.58088l-1.01143.279c-.03139.12939.10951-.133.10463,0-.07808,3.31561,6.61542,4.19981,8.0914,4.39447a8.52108,8.52108,0,0,1,3.104.837c.09829-.74452-.07934-.03461-.24414-.76729l-.24414-.48827C25.98378,69.80527,24.24841,70.14729,21.35633,68.86169Zm-.1395-3.17379c1.5376,1.52175,5.80933,2.77027,7.9519,3.06916a9.63337,9.63337,0,0,0,1.32531-.94168s-5.78637-.56086-7.56825-2.37162Zm-4.56886.20926.41853-.90679s1.15832-1.73482,4.813-2.4065,7.95189.06975,12.20686-.279c2.68551-.17439,4.18521-.66266,5.092-1.63921l.03488,1.46482s-2.65487,1.51268-9.69574,1.22069a58.28642,58.28642,0,0,0-7.67288.31389A8.97341,8.97341,0,0,0,16.648,66.1413Z"/>
      <path class="cls-2" d="M111.38468,41.83221c1.55834,1.3241,5.53394,1.53457,14.09618,1.62177,1.95839.00215,4.89143.434,6.48707,1.56945.478.34059,1.33743.88274,1.41251,1.46482.04813.37542-.04959.26414.0071.69624l-.08022.15722c-1.11168-1.44673-4.13948-2.57243-5.96056-2.68449-4.34215-.3662-7.88014-.21237-9.60854-.26157-2.045-.05883-4.96847-.44121-6.376-1.268Zm17.95006,11.23031c2.88779-1.28346,2.89477-2.58088,2.89477-2.58088l1.01142.279c.0314.12939-.10951-.133-.10463,0,.07808,3.31562-6.61542,4.19982-8.0914,4.39447a8.52079,8.52079,0,0,0-3.104.83705c-.0983-.74453.07934-.03462.24414-.76729l.24413-.48828C124.70729,54.0061,126.44267,54.34813,129.33474,53.06252Zm.13951-3.17378c-1.5376,1.52175-5.80933,2.77026-7.9519,3.06915a9.63377,9.63377,0,0,1-1.32532-.94167s5.78638-.56087,7.56826-2.37162Zm4.56885.20926-.41852-.9068s-1.15833-1.73482-4.813-2.40649-7.9519.06975-12.20686-.279c-2.68551-.17438-4.18521-.66266-5.092-1.63921l-.03487,1.46483s2.65486,1.51267,9.69573,1.22068a58.28642,58.28642,0,0,1,7.67288.31389,8.97344,8.97344,0,0,1,5.19664,2.47625Z"/>
      <path class="cls-9" d="M61.67076,33.56879q.12515-.17112.25134-.338h.01177c-.08663.1123-.17541.22247-.26311.33584Z"/>
      <path class="cls-9" d="M62.64726,38.862c.09306-.09519.18076-.17754.27595-.28129l-.184.28129h-.092Z"/>
      <path class="cls-9" d="M67.64743,38.74971l-.0492.1123H67.564c.02674-.03957.05562-.07166.08235-.1123Z"/>
      <path class="cls-9" d="M83.156,38.86629l-.0492-.1123c.02674.04064.05562.07273.08343.1123Z"/>
      <rect class="cls-1" x="39.38761" y="39.84423" width="20.08901" height="20.08901"/>
      <rect class="cls-10" x="39.59687" y="61.81658" width="35.50453" height="28.45942"/>
      <rect class="cls-10" x="75.1014" y="90.38064" width="35.78354" height="28.45942"/>
      <path class="cls-8" d="M49.377,49.305l-.36846-.83862-.4149.83862H49.377Zm0,2.41418V50.30726h-.78188v1.41121H49.377Zm-.78188-6.0347H49.377V44.47743h-.78188Zm0,13.18069.78188.43626V57.03762h-.78188ZM49.377,56.056l-.38689-1.06412-.395,1.06412ZM48.9709,43.148l-.37583.49079H49.377Zm.47458,13.191h-.919a.24614.24614,0,0,0,0,.4908h.919a.24613.24613,0,0,0,0-.48785Zm-1.10539-6.55865a.22551.22551,0,0,0,.221.22992h.86008a.22993.22993,0,0,0,0-.45985h-.86a.22551.22551,0,0,0-.22486.22614l.0001.006Zm.07812-5.71414a.19823.19823,0,0,0,.19307.20192h.75683a.20192.20192,0,0,0,0-.40383h-.75683a.19823.19823,0,0,0-.19682.19963l.00006.00375Zm3.87918,8.90872a1.067,1.067,0,0,0-1.17245-.61386c-.78262.12233-1.28078,1.759-1.28078,1.759l-.13707.01032-.02947-1.00222-.52765.36846v1.37069l.46943,1.084a.92924.92924,0,0,0,.44952-.34783c.1695-.28446.75241-2.0634.79146-2.12751s.11791-.19455.2056-.10244a.92339.92339,0,0,0,.89906.21445.54752.54752,0,0,0,.32867-.61091Zm-3.468,1.89243v-1.367L48.301,53.1319l-.02874,1.00222-.13707-.01031s-.4989-1.63672-1.28077-1.75905a1.06855,1.06855,0,0,0-1.1732.61386.54828.54828,0,0,0,.33236.61386.92338.92338,0,0,0,.89905-.21445c.0877-.09211.16654.04053.2056.10244s.62271,1.84232.7922,2.12751a.92924.92924,0,0,0,.44952.34783Zm1.97349-8.65964c-.66323.10391-1.0877,1.49449-1.0877,1.49449l-.11643.00884-.02432-.85115-.44879.31246v1.16435l.39868.92042a.78842.78842,0,0,0,.38173-.29477c.14738-.24171.63965-1.75462.67281-1.807s.09949-.16507.17392-.087a.78556.78556,0,0,0,.76419.18276.465.465,0,0,0,.28225-.521.9079.9079,0,0,0-1-.521Zm-4.3405,1.04276a.78558.78558,0,0,0,.7642-.18276c.07369-.07812.14075.03463.17391.087s.52838,1.56524.67282,1.807a.78842.78842,0,0,0,.38173.29477l.39867-.92042V47.17163l-.44879-.31246-.02505.85115-.1157-.00884s-.42373-1.38985-1.0877-1.49449a.90788.90788,0,0,0-.99632.521.46573.46573,0,0,0,.27855.524Zm3.0214-5.56823-.37657.25424v.94622l.33457.74871a.66326.66326,0,0,0,.3213-.24023c.12085-.196.53721-1.426.56522-1.4687s.08327-.13412.14738-.07369a.67356.67356,0,0,0,.64187.14738.37584.37584,0,0,0,.23729-.42373.76639.76639,0,0,0-.83715-.42373c-.5586.08474-.91453,1.21445-.91453,1.21445l-.098.00737Zm-2.622.322a.67428.67428,0,0,0,.64186-.14739c.06264-.06338.11865.028.14738.07369s.44216,1.27268.56523,1.4687a.66328.66328,0,0,0,.3213.24024l.33456-.74872V41.938l-.37657-.25424-.0221.689-.09728-.00737s-.35593-1.12971-.91452-1.21445a.76565.76565,0,0,0-.83715.42373A.37436.37436,0,0,0,46.86182,42.0043ZM49.0726,52.039h-.1695a.89093.89093,0,0,0-.76272.72661,8.46524,8.46524,0,0,1,.80178.44215h.08769a8.46524,8.46524,0,0,1,.80178-.44215.89094.89094,0,0,0-.76271-.72956Zm-.12233-5.08481h.07885a7.58841,7.58841,0,0,1,.71777-.39425.79883.79883,0,0,0-.68314-.65071h-.14738a.79955.79955,0,0,0-.68313.65071,7.53659,7.53659,0,0,1,.71408.39352Zm.07369-5.22186a5.95361,5.95361,0,0,1,.56965-.31246.63377.63377,0,0,0-.54165-.51585h-.11864a.633.633,0,0,0-.54165.51585,5.95581,5.95581,0,0,1,.56965.31246H49.024Z"/>
      <g>
        <path class="cls-5" d="M77.01928,89.43652a.38291.38291,0,0,1-.35352-.53125l1.2002-2.86621a.38474.38474,0,0,1,.30859-.23242.34626.34626,0,0,1,.04492-.002.38619.38619,0,0,1,.30957.15625l.49707.67968,8.22071-6.50195h-.79688a.38267.38267,0,0,1-.2373-.68359l7.62988-6.01465H92.71459a.3832.3832,0,0,1-.24512-.67773l11.46387-9.53028a.38583.38583,0,0,1,.24512-.08838.38354.38354,0,0,1,.36132.51075l-1.49218,4.24169,5.34472-.71679a.35512.35512,0,0,1,.05078-.00342.38326.38326,0,0,1,.207.70557L99.71264,73.626s1.49316-.084,1.5-.084a.383.383,0,0,1,.18945.71582l-10.833,6.167,1.47754.25293a.3835.3835,0,0,1,.10938.71973L79.80834,87.7002l.59766.90918a.3853.3853,0,0,1,.02343.37988.381.381,0,0,1-.31445.21289S77.029,89.43652,77.01928,89.43652Z"/>
        <path class="cls-11" d="M104.17821,63.52757h.005m-.005,0-1.69958,4.8319,5.965-.79976L98.2799,74.09109l2.93249-.16662-11.76318,6.698,2.53259.43321L79.25231,87.55373l.833,1.26629-3.06568.23326,1.19959-2.8658.73315.9997,9.39722-7.43111H86.45018l8.49744-6.698H92.715l11.46325-9.5305m.005-.76643h-.005a.76338.76338,0,0,0-.49328.17979L92.225,72.4687a.76644.76644,0,0,0,.49,1.35581h.02221L85.9757,79.15414A.7665.7665,0,0,0,86.19848,80.48l-7.098,5.613-.26318-.35879a.76647.76647,0,0,0-1.32507.15732l-1.19959,2.86582a.7665.7665,0,0,0,.70691,1.06238q.02911,0,.05823-.00222l3.06567-.23325a.76637.76637,0,0,0,.58216-1.18546l-.36268-.55145,11.96741-6.109a.76646.76646,0,0,0-.21924-1.43811l-.42065-.07194,9.90124-5.63778a.76643.76643,0,0,0-.3789-1.43247l-.04383.00124-.02331.00133,7.71228-4.95611a.76634.76634,0,0,0-.51611-1.40442l-4.725.63351,1.26563-3.59812a.76618.76618,0,0,0-.69922-1.07431Zm-.005,1.53287h0Z"/>
      </g>
      <g>
        <path class="cls-5" d="M41.37572,118.082a.38639.38639,0,0,1-.35644-.53613l1.21-2.89063a.388.388,0,0,1,.31054-.23437.37458.37458,0,0,1,.0459-.00293.385.385,0,0,1,.31153.1582l.50293.68555,8.29394-6.5586h-.80469a.38667.38667,0,0,1-.23925-.69042l7.69726-6.06739H57.21068a.38648.38648,0,0,1-.24707-.68359l11.56446-9.61524a.386.386,0,0,1,.61132.42481l-1.50488,4.28027s5.42774-.72656,5.44434-.72656a.38644.38644,0,0,1,.209.71191l-9.01758,5.79395s1.50586-.085,1.5127-.085a.38661.38661,0,0,1,.1914.72265l-10.92773,6.22266,1.48926.25488a.38688.38688,0,0,1,.11035.72559l-12.458,6.35937.60352.917a.38741.38741,0,0,1-.29395.59863S41.38549,118.082,41.37572,118.082Z"/>
        <path class="cls-11" d="M68.77526,91.94344h.005m-.005,0-1.7146,4.87479,6.01794-.80686-10.2539,6.58937,2.95849-.1681-11.86767,6.75748,2.55517.43705L43.628,116.18292l.84058,1.27753-3.093.23533,1.21033-2.89125.73962,1.00858,9.48059-7.4971H50.88988l8.57288-6.75747H57.21032l11.56494-9.6151m.00012-.77324-.01465.00013a.76986.76986,0,0,0-.483.18123L56.71593,100.964a.77328.77328,0,0,0,.49439,1.36783h.02234l-6.82142,5.377a.77326.77326,0,0,0,.22461,1.33765l-7.161,5.66282-.26538-.36195a.77322.77322,0,0,0-1.33679.15868l-1.21033,2.89125a.77329.77329,0,0,0,.71314,1.07183c.01953,0,.03918-.00074.05884-.00223l3.093-.23533a.77326.77326,0,0,0,.58728-1.196l-.36609-.55633,12.07374-6.16323a.77324.77324,0,0,0-.2212-1.45087l-.42431-.07259,9.989-5.68782a.77323.77323,0,0,0-.3822-1.4452l-.04419.00125-.02356.00133,7.78076-5.00009a.77317.77317,0,0,0-.52075-1.4169l-4.767.63914,1.277-3.63031a.77295.77295,0,0,0-.70557-1.08361h-.00488Zm-.00012,1.54648h0Z"/>
      </g>
      <g>
        <path class="cls-2" d="M56.2683,88.22461a1.24616,1.24616,0,0,1-1.24414-1.24414,1.22109,1.22109,0,0,1,.0791-.42383l.27441.0459-.22558-.14649a1.24677,1.24677,0,0,1,.16992-.26562,2.13032,2.13032,0,0,1,.16992-.16016l-.97754-.96191a1.2194,1.2194,0,0,1-.96679.4707,1.24414,1.24414,0,0,1,0-2.48828,1.14172,1.14172,0,0,1,.27441.03418,20.06559,20.06559,0,0,0,1.10547-5.48926,20.1266,20.1266,0,0,0-5.48926,1.10547,1.10168,1.10168,0,0,1,.03516.27442,1.24414,1.24414,0,0,1-2.48828,0,1.2214,1.2214,0,0,1,.46972-.9668l-.96-.97559a1.19284,1.19284,0,0,1-.09375.10352,1.31287,1.31287,0,0,1-.33594.23437c-.00488.00293-.08789.04493-.09375.04688a1.22153,1.22153,0,0,1-.42773.082,1.24414,1.24414,0,1,1,0-2.48828,1.2199,1.2199,0,0,1,.42285.0791l-.0459.27441.14649-.22558a1.24652,1.24652,0,0,1,.26562.16992c.00782.00586.06836.06445.0752.07227a.924.924,0,0,1,.08691.09668l.96-.97559a1.22472,1.22472,0,0,1-.46972-.96777,1.24414,1.24414,0,1,1,2.48828,0,1.11517,1.11517,0,0,1-.03516.27539A20.13743,20.13743,0,0,0,54.92748,74.915,20.07981,20.07981,0,0,0,53.822,69.42578a1.1183,1.1183,0,0,1-.27441.03467,1.24414,1.24414,0,0,1,0-2.48828,1.22141,1.22141,0,0,1,.96679.46972l.97657-.95947a1.2464,1.2464,0,0,1-.10352-.09228,1.30662,1.30662,0,0,1-.23535-.33692c-.00293-.00634-.04492-.08935-.04688-.0957a1.2142,1.2142,0,0,1-.081-.42676,1.24414,1.24414,0,1,1,2.48828,0,1.21149,1.21149,0,0,1-.08008.42285L57.158,65.9082l.22558.14649a1.22593,1.22593,0,0,1-.16992.26611c-.06543.06738-.12011.11865-.16992.16065l.97754.96044a1.22143,1.22143,0,0,1,.9668-.46972,1.24414,1.24414,0,0,1,0,2.48828,1.11832,1.11832,0,0,1-.27442-.03467A20.09548,20.09548,0,0,0,57.60814,74.915a20.06549,20.06549,0,0,0,5.48926-1.10547,1.14172,1.14172,0,0,1-.03418-.27441,1.24414,1.24414,0,0,1,2.48828,0,1.22271,1.22271,0,0,1-.4707.96777l.96.97559a1.20777,1.20777,0,0,1,.09375-.10352,1.2969,1.2969,0,0,1,.33594-.23535c.00488-.00293.08789-.04492.09375-.04688a1.22651,1.22651,0,0,1,.42871-.08105,1.24414,1.24414,0,1,1,0,2.48828,1.2168,1.2168,0,0,1-.42383-.08008l.0459-.27441-.14648.22558a1.24659,1.24659,0,0,1-.26563-.16992,2.15272,2.15272,0,0,1-.16016-.16992l-.96191.97754a1.21939,1.21939,0,0,1,.4707.9668,1.24414,1.24414,0,0,1-2.48828,0,1.10751,1.10751,0,0,1,.03516-.27442,20.12747,20.12747,0,0,0-5.49024-1.10547A20.12537,20.12537,0,0,0,58.71361,83.085a1.14174,1.14174,0,0,1,.27442-.03418,1.24414,1.24414,0,1,1,0,2.48828,1.21942,1.21942,0,0,1-.9668-.4707l-.97656.96a1.33389,1.33389,0,0,1,.10351.0918,1.34781,1.34781,0,0,1,.23535.33593l.04688.09571a1.22262,1.22262,0,0,1,.082.42871A1.24616,1.24616,0,0,1,56.2683,88.22461Z"/>
        <path class="cls-12" d="M56.26793,64.5544a.9766.9766,0,0,1,.97657.97652.95023.95023,0,0,1-.06324.33033c-.01037.02761-.02612.05091-.03881.07722a.94847.94847,0,0,1-.13294.20949c-.01648.01893-.03332.03577-.051.05333a.97323.97323,0,0,1-.22913.17221l-.02539.0143a.93292.93292,0,0,1-.08692.04922l1.46351,1.439a.97351.97351,0,1,1,.90771,1.317.9557.9557,0,0,1-.42468-.10693A19.81552,19.81552,0,0,0,57.316,75.20744a19.81519,19.81519,0,0,0,6.12122-1.24758.95543.95543,0,0,1-.10669-.42471.97653.97653,0,1,1,1.31689.90778l1.439,1.46346a.96459.96459,0,0,1,.04931-.087l.01428-.02533a.97251.97251,0,0,1,.17212-.22914c.01758-.01775.03455-.0346.05335-.05105A.95443.95443,0,0,1,66.585,75.381c.02625-.01266.04968-.02845.07715-.03877a.95078.95078,0,0,1,.33032-.06332.97659.97659,0,1,1,0,1.95318.95069.95069,0,0,1-.33032-.06318c-.02759-.01045-.0509-.02612-.07727-.03891a.95188.95188,0,0,1-.20935-.13292c-.0188-.01632-.03552-.03315-.05322-.05091A.97255.97255,0,0,1,66.15,76.717l-.01428-.02533a.985.985,0,0,1-.04931-.08708l-1.439,1.46359a.97343.97343,0,1,1-1.31689.90766.955.955,0,0,1,.10669-.42459A19.82085,19.82085,0,0,0,57.316,77.30365,19.81552,19.81552,0,0,0,58.56359,83.425a.95571.95571,0,0,1,.42468-.10694.97659.97659,0,1,1-.90771,1.317l-1.46351,1.439a.93065.93065,0,0,1,.08692.04922l.02539.0143a.97323.97323,0,0,1,.22913.17221c.0177.01756.03454.0344.051.05333a.94847.94847,0,0,1,.13294.20949c.01269.0263.02844.04961.03881.07722a.95022.95022,0,0,1,.06324.33032.97657.97657,0,0,1-1.95313,0,.94769.94769,0,0,1,.06323-.33032c.01038-.02768.026-.05105.03882-.07735a.95345.95345,0,0,1,.13294-.20942c.01635-.01887.0332-.03558.0509-.05314a.97374.97374,0,0,1,.22913-.17234l.02539-.0143a.96565.96565,0,0,1,.087-.04922l-1.46362-1.439a.97342.97342,0,1,1-.90759-1.317.9552.9552,0,0,1,.42456.10694,19.81818,19.81818,0,0,0,1.24768-6.12135,19.822,19.822,0,0,0-6.12134,1.24764.95528.95528,0,0,1,.10693.42459.97665.97665,0,1,1-1.31713-.90766l-1.439-1.46359a.95689.95689,0,0,1-.04919.08708l-.01429.02533a.97.97,0,0,1-.17236.22914c-.01758.01776-.03418.03459-.053.05091A.96165.96165,0,0,1,45.951,77.13c-.02637.01279-.04981.02846-.07739.03891a.94968.94968,0,0,1-.33033.06318.97659.97659,0,0,1,0-1.95318.94977.94977,0,0,1,.33033.06332c.02746.01032.0509.02611.07715.03877a.95185.95185,0,0,1,.20947.13291c.019.01645.03589.0333.05346.05105a.97578.97578,0,0,1,.17212.22914l.01429.02533a.93754.93754,0,0,1,.04919.087l1.439-1.46346a.97352.97352,0,1,1,1.31713-.90778.95576.95576,0,0,1-.10693.42471,19.81411,19.81411,0,0,0,6.12134,1.24758,19.81818,19.81818,0,0,0-1.24768-6.12135.95519.95519,0,0,1-.42456.10693.97659.97659,0,1,1,.90759-1.317l1.46362-1.439a.96809.96809,0,0,1-.087-.04922l-.02539-.0143a.97374.97374,0,0,1-.22913-.17234c-.0177-.01756-.03455-.03427-.0509-.05314a.95369.95369,0,0,1-.13294-.20942c-.01282-.02631-.02844-.04968-.03882-.07735a.9477.9477,0,0,1-.06323-.33033.97652.97652,0,0,1,.97656-.97652m0-.53478a1.513,1.513,0,0,0-1.51135,1.5113,1.46806,1.46806,0,0,0,.09631.51548.91176.91176,0,0,0,.05689.12141,1.50051,1.50051,0,0,0,.19958.31514l-.58923.57926a1.48892,1.48892,0,0,0-.97253-.35709,1.51134,1.51134,0,1,0,0,3.02268q.05053,0,.10132-.00383a20.16393,20.16393,0,0,1,.98376,4.89638,20.15435,20.15435,0,0,1-4.89636-.98373q.00384-.0508.0039-.10147a1.51141,1.51141,0,0,0-3.02282,0,1.48952,1.48952,0,0,0,.35705.97266l-.57922.58915a1.48684,1.48684,0,0,0-.31445-.19875.87083.87083,0,0,0-.119-.05658,1.47591,1.47591,0,0,0-.51844-.09749,1.51137,1.51137,0,0,0,0,3.02274,1.47016,1.47016,0,0,0,.51514-.09613.9237.9237,0,0,0,.12109-.05679,1.51291,1.51291,0,0,0,.3158-.19974l.57922.58908a1.4888,1.4888,0,0,0-.35717.97258,1.51141,1.51141,0,0,0,3.02282,0c0-.03372-.00134-.06749-.00378-.10129a20.16164,20.16164,0,0,1,4.89624-.98382,20.16357,20.16357,0,0,1-.98376,4.89634q-.05073-.00382-.10132-.00383a1.51135,1.51135,0,1,0,0,3.02269,1.48888,1.48888,0,0,0,.97253-.3571l.58923.57934a1.4893,1.4893,0,0,0-.19885.31448.85366.85366,0,0,0-.05664.11954,1.4709,1.4709,0,0,0-.09729.51793,1.51136,1.51136,0,0,0,3.02271,0,1.47348,1.47348,0,0,0-.09607-.51491.91383.91383,0,0,0-.057-.12146,1.50051,1.50051,0,0,0-.19971-.31565l.58911-.57926a1.48926,1.48926,0,0,0,.97266.35709,1.51135,1.51135,0,1,0,0-3.02269q-.05072,0-.10144.00384a20.155,20.155,0,0,1-.98364-4.89635,20.1588,20.1588,0,0,1,4.89636.98387c-.00244.03378-.00378.06753-.00378.10124a1.51129,1.51129,0,1,0,3.02258,0,1.48876,1.48876,0,0,0-.35718-.97258l.57935-.58925a1.48777,1.48777,0,0,0,.31433.19876.86264.86264,0,0,0,.1178.05619,1.48041,1.48041,0,0,0,.51977.09788,1.51137,1.51137,0,1,0,0-3.02274,1.47274,1.47274,0,0,0-.51477.09613.91428.91428,0,0,0-.12134.05684,1.507,1.507,0,0,0-.31579.19981l-.57935-.58911a1.489,1.489,0,0,0,.35718-.97266,1.51129,1.51129,0,1,0-3.02258,0c0,.03376.00134.06758.00378.10141a20.15225,20.15225,0,0,1-4.89636.98377,20.15543,20.15543,0,0,1,.98364-4.89638q.05071.00385.10144.00385a1.51134,1.51134,0,1,0,0-3.02268,1.48926,1.48926,0,0,0-.97266.35708l-.58911-.57934a1.48373,1.48373,0,0,0,.19886-.31476.86317.86317,0,0,0,.05651-.11866,1.47937,1.47937,0,0,0,.09742-.51852,1.513,1.513,0,0,0-1.51136-1.5113Z"/>
      </g>
      <path class="cls-13" d="M134.29029,50.49664c0-.05242-.00653-.09844-.00653-.13585,0-.553-.70267-4.9959-.78284-5.50072a.2862.2862,0,0,0-.0235-.07807c-.983-2.13056-6.56068-2.40761-7.22053-2.43215a65.57518,65.57518,0,0,1-14.4818-1.28348V39.462a.59686.59686,0,0,0-.59692-.59679l-17.08492-.00111a70.1559,70.1559,0,0,1-5.06118-5.36057l-.36466-.48666c1.99575-.34011,3.50059-.69733,4.5584-.98933l.03512.04857a.48205.48205,0,0,1,.40356-.22162h.18331c.67-.20159,1.08731-.35324,1.22936-.40879A2.68649,2.68649,0,0,0,96.72,30.07348a1.62,1.62,0,0,0,.11659-.71338v-.0235a1.11813,1.11813,0,0,0-.04491-.29951l1.81819-2.79152a.817.817,0,0,0,.40761-.37223,2.3294,2.3294,0,0,0,.00966-1.54766l4.07063-8.566.02245-.0107a.35423.35423,0,0,0,.12508-.16575l.7959-.55723.80738-2.29206-1.87067-3.33916a.36025.36025,0,0,0-.2-.35617l-.0235-.04276-.05666.02135a.353.353,0,0,0-.36361.13369l-3.35528,1.23537-.82345,1.74658.214,1.13157a.35377.35377,0,0,0-.0269.20217.01577.01577,0,0,0,.00653.015l-.40761,1.08665h-.01071a.35917.35917,0,0,0-.26086.04818l-1.11029-.65992-.308.862-.061-.02566.08774-.87168-1.5777-.70588-.18709.78075-.22992-.062.05771-1.09312-.67487-.23743.07912-1.73163.11555-1.17648,1.12935-1.06955.2-2.76051-1.65877-.62787-.09413,1.09521-.11986-.0203.05784-1.20965-1.80109-.42785-.11776,1.20436L91.338,5.85342,91.2781,4.45877l-1.48656-.37223L89.67377,5.3037h-.047V3.98817l-.97333-.354a.354.354,0,0,0-.64171.13154L85.817,5.878l-.06319,2.19153.30381.88664a.35738.35738,0,0,0,0,.19257l-.64171,2.18611a.36836.36836,0,0,0-.07272.04707l.0235-.82462-1.51228-.13794-.17012.88879-.23749-.03636-.0598-1.01073-1.62156-.13154-.11973.86953h-.36361l-.05771-.98828-1.9413-.04171-.02886.72624h-.08016l-.17652-4.29.72931-.94017-.06619-3.20866-1.998-.13474V3.52291l-.31439.0096-.029-1.40431-2.06847-.08128L75.192,3.43733l-.42771.01286-.08669-1.35731L72.638,2.05228V3.43093H72.33V2.1218L70.38225,2.079l.06632,3.30175.80752,1.05134-.37223,4.33168h-.24819l-.11646-1.01714L68.51484,9.706l.03,1.29842-.37236.046-.1444-1.10376H66.14359l.03,1.41606H66.0838l-.20107-1.12406h-1.63v.96256l-.31125-2.092a.36047.36047,0,0,0,.02885-.22887l.30264-.75726-.31335-2.56689L62.33279,3.816a.35932.35932,0,0,0-.37536-.30375.3536.3536,0,0,0-.19676.08232l-1.36384.12409V5.05021l-.12077.03316L60.04719,4.047,58.4695,4.3978V5.6299l-.15824.03956L58.138,4.58176l-1.48017.27809V6.03634L56.6,6.04809l-.23527-1.05774-1.628.36146.59588,3.044.79355.999.18723,3.10167-.83429.36583.05875,1.17648-.123.05562-.231-1.03855-1.51672.62467.05784,1.153-.02781.00856-.26634-.799-1.05024.74119-.676-1.21826.05771-1.32088-.769-2.05992-3.707-1.30169-1.9434,3.75629.922,1.7819.80856.57753a.3544.3544,0,0,0,.09622.22143L51.095,24.30648c0,.02351-.00639.05027-.00848.07482a1.91683,1.91683,0,0,0-.15406.7487.39442.39442,0,0,0,.2384.36152,2.476,2.476,0,0,0,.34128.738.35607.35607,0,0,0,.28019.33692,2.57533,2.57533,0,0,0,.88664.56363l.44821,1.59369a1.43969,1.43969,0,0,0,.32079,1.63533,7.43531,7.43531,0,0,0,2.75522,1.43212c-.86431,1.16154-3.7873,4.506-10.25711,7.07405H38.9598a.59672.59672,0,0,0-.59666.59679V41.045a65.60327,65.60327,0,0,1-14.6198,1.31344c-.66.02461-6.23767.30264-7.22066,2.43215a.30714.30714,0,0,0-.0235.07807c-.08016.50482-.78284,4.94773-.78284,5.50072a1.0563,1.0563,0,0,1-.00653.13585,2.94164,2.94164,0,0,0,.31021,1.631.9017.9017,0,0,0,.01828.107l.03212-.00855a7.44475,7.44475,0,0,0,3.71876,2.85249,24.843,24.843,0,0,0,4.999,1.45777,16.50876,16.50876,0,0,1,3.17237.87274.2983.2983,0,0,0,.42249-.28985,10.60113,10.60113,0,0,0-.74015-3.38511,18.71052,18.71052,0,0,0,3.22472-2.384.29949.29949,0,0,0,.06306-.32836.28463.28463,0,0,0-.28136-.18076A9.26013,9.26013,0,0,1,26.8204,50.041a43.53127,43.53127,0,0,0,11.54274-1.14762V56.3c-2.475,1.06955-11.15667,1.71133-14.80807,1.71133a9.79871,9.79871,0,0,0-5.63983,1.80428,2.42063,2.42063,0,0,0-.9903,1.65251c-.28554,2.20863-.82684,5.87719-.83206,5.91355V67.418c-.09205,3.91989,9.473,5.35417,9.56931,5.367a8.49857,8.49857,0,0,1,2.90289,1.155,3.21632,3.21632,0,0,1,.50018-.67428,5.902,5.902,0,0,0-.94852-3.73965,5.24976,5.24976,0,0,0,3.39484-2.65789.29842.29842,0,0,0-.30708-.40317,5.75784,5.75784,0,0,1-4.32209-.953c1.42782-.04386,3.04729-.06312,4.89329-.04817a23.68485,23.68485,0,0,0,6.59162-.7487l.01279,52.22847a5.33831,5.33831,0,0,0,4.69967,5.2836c.00731.00731,25.91108.09837,25.91108.09837a5.92556,5.92556,0,0,1,2.76045.64922,5.10512,5.10512,0,0,1,2.67388,3.46325.55144.55144,0,0,0,.01606.05562l.02885.08767a.59781.59781,0,0,0,.5669.40859h.02885a.59574.59574,0,0,0,.55293-.46421,5.41829,5.41829,0,0,1,2.76384-3.54981,5.92429,5.92429,0,0,1,2.76044-.64922s25.74071-.01534,25.81591-.08989a5.3216,5.3216,0,0,0,4.763-4.60755V104.3662h.07l-.01044-55.44288a43.54613,43.54613,0,0,0,11.3939,1.11447,9.26231,9.26231,0,0,1-3.82895.80856.28457.28457,0,0,0-.2824.18076.29826.29826,0,0,0,.06423.32836,18.66829,18.66829,0,0,0,3.22355,2.384,10.60872,10.60872,0,0,0-.74,3.38511.2984.2984,0,0,0,.42249.28985,16.50242,16.50242,0,0,1,3.17864-.87809,24.83279,24.83279,0,0,0,4.99917-1.45778,7.45,7.45,0,0,0,3.71876-2.85249l.03094.00856a.95837.95837,0,0,0,.01828-.107A2.94518,2.94518,0,0,0,134.29029,50.49664Zm-104.37234.924A22.248,22.248,0,0,1,27.0857,53.379a.29841.29841,0,0,0-.11163.407.30229.30229,0,0,0,.02063.03153,7.2716,7.2716,0,0,1,.7562,2.86535,21.95109,21.95109,0,0,0-2.83865-.72944,24.36857,24.36857,0,0,1-4.88036-1.42357,6.89334,6.89334,0,0,1-3.42252-2.5819,1.64077,1.64077,0,0,1,1.10376-1.322c1.261-.65777,5.72535-.66632,7.98432-.62461A7.76974,7.76974,0,0,0,29.918,51.42068Zm-2.86763-1.97009c-.04061,0-1.39035-.06953-1.44492-.03956-2.33691-.04067-6.80234-.01821-8.17036.69628a2.92917,2.92917,0,0,0-1.12413.94226,2.897,2.897,0,0,1,0-.50586c0-.06633.00757-.1241.00757-.17221,0-.37974.45671-3.39909.768-5.36383.74864-1.4974,5.0514-1.98831,6.6569-2.05032a66.1088,66.1088,0,0,0,14.624-1.30163V48.2869A43.01681,43.01681,0,0,1,27.05032,49.45059Zm3.6335,17.65083.00313-.0032-.00222.0032h-.00091a5.74958,5.74958,0,0,1-3.15852,1.98407.29862.29862,0,0,0-.12848.49841,4.86524,4.86524,0,0,1,1.08575,3.614,8.31284,8.31284,0,0,0-2.74452-1.00434c-1.7862-.23527-8.91364-1.79038-9.04851-4.63863a7.00427,7.00427,0,0,1,2.53066-1.28347,34.7174,34.7174,0,0,1,5.63865-.66952c.57121-.01606,1.0172-.01821,1.23419-.01821C26.44817,65.99975,27.7368,67.21879,30.68382,67.10142Zm7.68559-3.00649a22.82772,22.82772,0,0,1-6.59371.7754l.00326-.0032q-4.01082-.031-6.98.13474a29.18732,29.18732,0,0,0-4.96706.49633c-.30264.06737-.58386.14329-.8459.22352a7.05245,7.05245,0,0,0-2.16587.83c.18069-1.24071.50161-3.47285.69954-5.00661a1.81813,1.81813,0,0,1,.74864-1.24281,9.198,9.198,0,0,1,5.29319-1.69311c2.83213,0,11.67109-.51232,14.80794-1.68025ZM92.96155,38.8706l-9.05373-.00431a28.05146,28.05146,0,0,1-2.66318-4.97554c1.27218-.09093,2.47569-.17,3.74435-.30688.98626-.10641,2.03127-.2937,3.011-.45037A40.30825,40.30825,0,0,0,92.96155,38.8706Zm-29.51639-.00966h.00066c.68257-1.04514,1.86062-2.88716,2.68067-4.4044.168-.23958.31021-.44495.42785-.62252.91549.08454,1.86963.15726,2.88774.21393a27.62873,27.62873,0,0,1-2.59476,4.813h-3.4015l-.00066.001Zm-1.63435.0032H57.50165a57.338,57.338,0,0,0,5.08782-5.52638q1.49113.24069,3.229.42785c-.06737.13154-.1273.25348-.20211.39253A34.02142,34.02142,0,0,1,61.81081,38.86414Zm8.79143-4.71782,2.33626.00431c.28775,0,.56154.01175.85569.01175q.62983,0,1.28341-.00855c.87789-.01188,1.71348-.03642,2.52831-.06632a.51054.51054,0,0,1,.23331-.06189h.52316c.02859,0,.04935.02141.07677.026q1.0971-.0476,2.11783-.11385c.45343,1.44707,1.45457,3.78835,1.95084,4.92416l-13.96321.00536A30.88864,30.88864,0,0,0,70.60224,34.14632ZM98.54041,23.946a5.25412,5.25412,0,0,0-1.86963-1.51875l4.39376-9.03239,1.47181,2.14446Zm4.13486-13.86464,1.51555,2.70385-.65346,1.85677-.49835.34866-1.55315-2.26321a.37048.37048,0,0,0-.0641-.06952Zm-3.25671.78186,2.51983-.92619-1.33055,2.7359-1.6781.32085-.14753-.7754ZM98.12327,15.4324l.1145.04172.65986-1.74129,1.31553-.247L97.27841,19.517ZM93.721,13.258,93.6611,14.3853l1.28994.34756.16254-.68022.52629.23422-.08773.88135,1.04918.44169.276-.77436.55828.33156-1.43,6.92749a21.11076,21.11076,0,0,0-3.2558-1.13261l.76692-7.77457ZM88.694,4.28336l.338.123V5.84167l1.17648.11235.10706-1.12093.3828.09518.05889,1.40966,1.22452.26635.11673-1.1915.65345.15511L92.69638,6.815l1.28355.21386.07912-.94976.5037.19042L94.412,8.35516l-.93808.892L88.508,7.91772l-.046-1.05461Zm-.26738,4.36269,4.68478,1.25462L92.04188,20.77586c-.78728-.19467-1.62365-.37327-2.50076-.53478l.74877-4.06429a.8558.8558,0,0,0-.42785-.76156l-.22992-.04276a.85563.85563,0,0,0-.66847.55939L88.20744,20.009q-1.12314-.17968-2.31236-.3262ZM86.4074,6.139,87.925,4.68125l-.18722,2.1391a.46653.46653,0,0,0,0,.047l.0483,1.10487-1.22792.59359-.2-.5872Zm-.45983,5.50177.68126-2.30166L87.6352,8.86l-1.754,7.66444.06842-4.86756Zm-6.12226-.32941.029-.73479.80425.0171.05876.999h1.44817l.11346-.82567.54118.0438.05666.97542,1.28341.19682.17861-.923.415.046L84.725,12.12314l.49091.05242L85.109,19.59722c-1.799-.20321-3.68351-.35081-5.59492-.44175l-.32079-7.86119ZM71.04223,5.17431l-.05039-2.48248.74028.01606V4.02877h1.50275V2.65658l.88128.01814.08879,1.39041,1.56464-.04491.05248-1.353.91014.03531.03094,1.45138,1.49753-.04811V2.76351l.81066.05026.05026,2.45356-.585.75941-6.81736.02781Zm.91341,1.60433,6.32958-.02676.15824,3.87073.01606.64171h.00966l.32079,7.8559c-1.03313-.04171-2.07174-.06632-3.1016-.07383V14.919a.85586.85586,0,0,0-.5605-.67167h-.23423a.85565.85565,0,0,0-.555.67167v4.12526c-1.14658.00751-2.29852.03532-3.44289.08343Zm-7.10512,4.96914v-.91236h.53478l.20641,1.15083,1.19476-.05451-.029-1.3904h.74877l.15079,1.17648,1.49727-.18716-.03094-1.21506.8557.01716.11763,1.02784h.73375L70.161,19.15978c-1.77341.08767-3.52214.22456-5.19919.40963a.3659.3659,0,0,0,.00757-.06312l-.569-7.61411Zm-.9369,3.33054-1.5508-6.46008.99147.6075.34651,2.33057a.35464.35464,0,0,0-.03747.17757Zm-1.4064-8.41947a.36082.36082,0,0,0,.01175-.11874l-.11881-1.77654.98834,1.05675.27379,2.22247-.16686.4161-1.26735-.77546ZM64.257,19.61968c0,.01175.00966.0203.0128.031-.81392.09733-1.60969.20641-2.38091.3262l-.74863-4.03968a.8554.8554,0,0,0-.66848-.55938l-.22991.04276a.85577.85577,0,0,0-.42785.76156l.74863,4.01722c-1.06955.19251-2.08244.40963-3.01934.64921l-.67474-11.211,4.6759-1.33479ZM55.89092,8.12949l-.45566-2.33058.476-.107.232,1.0471L57.2545,6.5166V5.35076l.38933-.07272.17861,1.12837,1.244-.31126V4.87585l.52616-.11653.23749,1.06956L60.9948,5.508v-1.247l.64171-.05882.15406,2.32516-.28136,1.02894L56.55613,8.9669ZM53.11859,14.9853l.20107.60325,1.02359-.34122-.05875-1.184.47054-.19355.23632,1.06955L56.154,14.411l-.05784-1.16584.25564-.10693.476,7.889.00536.02141a21.10471,21.10471,0,0,0-2.75731.96263l-1.40862-6.70932Zm-1.19254.19891a.351.351,0,0,0,0,.10059l.9027,4.30707L49.788,13.25478l1.24816.26523a.368.368,0,0,0,.0739,0l-.00862.18292Zm-1.39791-4.52844.63,1.6813-.02036.46421-1.74978-.37112-1.25025-2.614Zm-3.80337,3.36161-.71338-1.37656,1.39047-2.68028,1.33381,2.78081-1.368,1.73267Zm4.766,9.70935-3.71563-8.59919,1.306-1.65459,4.25994,8.87728A5.965,5.965,0,0,0,51.49076,23.72673Zm.27274,1.65466-.0043.00424a2.09031,2.09031,0,0,1-.05131-.20321.37294.37294,0,0,0,.0107-.05347c0-2.50278,9.53185-5.29215,23.20926-5.29215S98.13724,22.62512,98.13724,25.129a.39239.39239,0,0,0,.371.39038.49214.49214,0,0,1-.02559.06848.22183.22183,0,0,1-.152.11868l-.06841.01821c-1.10167-3.11028-12.53514-4.77878-23.33016-4.77878C64.53926,20.94592,53.54866,22.49247,51.7635,25.38139Zm1.4021,1.28772-.14963-.05026a2.05568,2.05568,0,0,1-.77657-.45031c.14871-2.13911,9.42283-4.49214,22.68963-4.49214,13.37568,0,22.69693,2.39586,22.69693,4.54561a.36046.36046,0,0,0,.10693.25994l-1.28354,1.9765c-2.032-2.32523-12.03992-3.57123-21.52254-3.57123-9.19814,0-18.8894,1.17655-21.3194,3.36376Zm1.08352,3.47494a1.11574,1.11574,0,0,1-.57329-.815c0-1.8,8.73085-3.80656,21.25737-3.80656,12.52665,0,21.25738,2.00652,21.25738,3.80656a1.11543,1.11543,0,0,1-.57329.815c-.13148-2.2792-10.71577-3.5081-20.68409-3.5081S54.37851,27.86805,54.24912,30.14405Zm.42889.26954-.001-.0032a.275.275,0,0,0,.12194-.22463c0-1.22355,7.166-2.99473,20.1322-2.99473s20.13221,1.77014,20.13221,2.99473a.27384.27384,0,0,0,.12194.22463c-1.71139.93586-5.52964,1.80435-10.748,2.29957V32.7035l-3.12406.246c-1.98622.12083-4.11684.18931-6.381.18931q-1.83543,0-3.55517-.05562l-1.2761-.07918-3.78613-.2984-.03643.08663a50.59149,50.59149,0,0,1-9.35755-1.5209c-.00626,0-.00626-.0128-.01279-.01606a.27117.27117,0,0,0-.08983-.01175A11.29754,11.29754,0,0,1,54.678,30.41359Zm2.121,1.583-.00117-.00327a36.07865,36.07865,0,0,0,4.4687,1.11127,39.72322,39.72322,0,0,1-5.10284,5.75531H47.52485C53.49931,36.21806,56.0899,33.02331,56.799,31.99658Zm49.62835,89.13655h-25.281a7.127,7.127,0,0,0-3.31572.78722,6.78506,6.78506,0,0,0-2.78082,2.74556,6.45629,6.45629,0,0,0-2.74125-2.74556,7.12476,7.12476,0,0,0-3.31559-.78722H43.712a4.15945,4.15945,0,0,1-4.15522-4.15522V40.05668h71.02478v76.91907l.001.00216A4.16054,4.16054,0,0,1,106.42732,121.13313Zm23.54089-66.60321a24.38012,24.38012,0,0,1-4.88036,1.41926,21.95155,21.95155,0,0,0-2.83865.72945,7.28347,7.28347,0,0,1,.7562-2.86535.292.292,0,0,0,.05353-.23958.29624.29624,0,0,0-.1444-.19891,22.22957,22.22957,0,0,1-2.83225-1.95835,7.76976,7.76976,0,0,0,4.2226-1.415c2.25987-.04067,6.72322-.03211,7.98418.62461a1.64487,1.64487,0,0,1,1.1048,1.322A6.89815,6.89815,0,0,1,129.96821,54.52992ZM133.69337,51.04a2.92368,2.92368,0,0,0-1.12413-.94232c-1.36789-.71339-5.83319-.73689-8.17023-.69628-.05353-.031-1.40431.03747-1.44505.03956a43.05036,43.05036,0,0,1-11.17469-1.138V41.67171a66.08583,66.08583,0,0,0,14.4818,1.28028v-.00431c1.60433.06313,5.90395.554,6.6569,2.05033.31243,1.96481.769,4.98416.769,5.36383a1.70986,1.70986,0,0,0,.0064.17221A2.77585,2.77585,0,0,1,133.69337,51.04Z"/>
      <path class="cls-2" d="M108.65678,119.95423a.40248.40248,0,0,0-.2841-.49091,7.63177,7.63177,0,0,0-1.91454-.25694,5.2332,5.2332,0,0,0-1.83621.2841l-.12325.0376a5.50224,5.50224,0,0,1-1.28158.27209,3.48368,3.48368,0,0,1-1.66282-.22561,5.30432,5.30432,0,0,0-1.9417-.33423l-.07.00052a5.21847,5.21847,0,0,0-1.98244.3922l-.08982.03447a3.36434,3.36434,0,0,1-1.54271.27105,3.94974,3.94974,0,0,1-1.621-.34312,5.1696,5.1696,0,0,0-1.96259-.42354,4.31382,4.31382,0,0,0-1.77563.27418l-.0376.01306a4.25487,4.25487,0,0,1-1.74847.27,7.58834,7.58834,0,0,1-1.74847-.24911,7.04266,7.04266,0,0,0-2.07435-.23919,5.558,5.558,0,0,0-1.8738.3405,3.92645,3.92645,0,0,1-1.47586.25329c-.02716,0-.05536,0-.0846-.00052a5.0783,5.0783,0,0,1-1.46646-.23188,7.15115,7.15115,0,0,0-2.14538-.29193c-.03133,0-.06371,0-.09713.00052a9.36867,9.36867,0,0,0-2.03884.25485.40092.40092,0,1,0,.18487.78024,8.5325,8.5325,0,0,1,1.86546-.23293c.0376-.00052.07415-.00052.10967-.00052a6.08335,6.08335,0,0,1,1.8832.25642,5.9787,5.9787,0,0,0,1.69312.26739c.03133.00052.06266.00052.094.00052a4.68764,4.68764,0,0,0,1.737-.29611,4.73944,4.73944,0,0,1,1.63775-.29768,6.16056,6.16056,0,0,1,1.82159.20681l.04282.01045a8.53946,8.53946,0,0,0,1.91454.271,5.1028,5.1028,0,0,0,2.02526-.3123,3.76974,3.76974,0,0,1,1.37559-.24807c.05013,0,.10131.00053.15563.00209a4.38063,4.38063,0,0,1,1.691.36766,4.78206,4.78206,0,0,0,1.90932.4l.094.00052a4.54578,4.54578,0,0,0,1.82994-.35721,4.41559,4.41559,0,0,1,1.714-.341c.03552-.00052.071-.00052.10445-.00052a4.22994,4.22994,0,0,1,1.58553.2747l.03447.012a4.36158,4.36158,0,0,0,1.9981.27105,6.30075,6.30075,0,0,0,1.45079-.304,5.198,5.198,0,0,1,1.6952-.28775,6.81727,6.81727,0,0,1,1.74116.23083A.39917.39917,0,0,0,108.65678,119.95423Z"/>
      <g>
        <rect class="cls-14" x="87.58727" y="95.47264" width="0.55803" height="7.98677" transform="translate(-22.6514 25.98258) rotate(-14.92325)"/>
        <rect class="cls-15" x="87.90117" y="95.29826" width="0.55803" height="7.98677" transform="translate(-22.5959 26.05754) rotate(-14.92325)"/>
        <path class="cls-14" d="M87.58727,96.67589s1.988-1.18581,3.06916-.97655,1.15093,1.84847,2.546,1.91822,4.35959-1.6392,5.68491-1.88334,3.83644-.24414,4.46422,1.6392a3.22124,3.22124,0,0,0-3.66205.17439s3.83644.558,4.35959,4.255a6.38081,6.38081,0,0,0-5.371-2.16236c-3.20866.4534-6.20806,1.46483-6.83584,1.3602a1.0295,1.0295,0,0,1-.9068-1.04631c.03488-.41852-.558-1.53457-2.37162-.66265Z"/>
        <path class="cls-14" d="M87.48264,95.89116s1.988-1.18581,3.06916-.97655,1.15093,1.84847,2.546,1.91823,4.35959-1.63921,5.68491-1.88335,3.83644-.24414,4.46422,1.63921a3.22123,3.22123,0,0,0-3.66205.17438s3.83644.558,4.35959,4.255a6.38079,6.38079,0,0,0-5.371-2.16235c-3.20866.45339-6.20806,1.46482-6.83584,1.36019a1.02949,1.02949,0,0,1-.9068-1.0463c.03488-.41852-.558-1.53458-2.37162-.66266Z"/>
        <path class="cls-15" d="M87.378,96.1353s1.988-1.18581,3.06916-.97655,1.15093,1.84847,2.546,1.91822,4.35959-1.6392,5.68491-1.88334,3.83644-.24414,4.46422,1.63921a3.22123,3.22123,0,0,0-3.66205.17438s3.83644.558,4.35959,4.255a6.38081,6.38081,0,0,0-5.371-2.16236c-3.20866.4534-6.20806,1.46483-6.83584,1.3602a1.0295,1.0295,0,0,1-.9068-1.04631c.03488-.41852-.558-1.53457-2.37162-.66265Z"/>
        <polygon class="cls-14" points="90.377 98.751 92.017 96.763 92.4 96.972 90.552 99.135 90.377 98.751"/>
        <path class="cls-14" d="M92.47045,100.34375a.26775.26775,0,0,1-.26563-.23535l-.27929-2.27735,1.373-.04492a.26772.26772,0,0,1,.01758.53516l-.78906.02539.209,1.69727a.26843.26843,0,0,1-.2334.29785C92.49193,100.34277,92.48119,100.34375,92.47045,100.34375Z"/>
        <path class="cls-14" d="M92.3308,99.333a.26749.26749,0,0,1-.03809-.53223l.97657-.13965a.26738.26738,0,0,1,.07617.5293l-.97656.13965A.25058.25058,0,0,1,92.3308,99.333Z"/>
        <path class="cls-14" d="M94.14428,99.92578a.26788.26788,0,0,1-.26563-.23633l-.209-1.77929a.26746.26746,0,1,1,.53125-.0625l.209,1.77929a.26769.26769,0,0,1-.23437.29688Z"/>
        <path class="cls-14" d="M94.76635,99.74805l-.41114-2.14844.25977-.05176a1.53955,1.53955,0,0,1,1.292.2041,1.01346,1.01346,0,0,1,.35352.8252c0,.76269-.78125,1.07226-1.24317,1.13574Zm.21679-1.71192.208,1.085c.22852-.07617.53418-.23632.53418-.54394a.49986.49986,0,0,0-.15723-.41211A.86673.86673,0,0,0,94.98314,98.03613Z"/>
        <path class="cls-14" d="M96.48217,99.27148l-.45508-2.18457,1.26269-.30468a.26718.26718,0,1,1,.125.51953l-.75878.18359.24218,1.16309.85938-.16016a.26719.26719,0,1,1,.09765.52539Z"/>
        <path class="cls-14" d="M96.51537,98.35645a.26751.26751,0,0,1-.06738-.52637l.80273-.21a.26742.26742,0,0,1,.13477.51758l-.80274.21A.26594.26594,0,0,1,96.51537,98.35645Z"/>
        <path class="cls-14" d="M98.39916,98.95605c-.06152,0-.12695-.002-.19629-.00781a.26746.26746,0,1,1,.043-.5332c.6084.04785.64258-.17676.65625-.2627a.27369.27369,0,0,0-.01856-.18554c-.02636-.03321-.09961-.07813-.30468-.10059a1.435,1.435,0,0,0-.166-.00488H98.408a.78784.78784,0,0,1-.63379-.19629.66763.66763,0,0,1-.12891-.55176.68321.68321,0,0,1,.27246-.47461,1.44883,1.44883,0,0,1,.97657-.17383.26615.26615,0,0,1,.22168.30469.25647.25647,0,0,1-.30567.22266.94873.94873,0,0,0-.57226.07519.14848.14848,0,0,0-.06153.11231.28473.28473,0,0,0,.002.13672,1.43273,1.43273,0,0,0,.22949.00976,2.19916,2.19916,0,0,1,.23047.00879.94022.94022,0,0,1,.66894.30664.7533.7533,0,0,1,.124.5918C99.38744,98.5127,99.19408,98.95605,98.39916,98.95605Z"/>
        <g>
          <g>
            <polygon class="cls-14" points="100.184 103.857 100.237 103.801 100.184 103.801 100.184 103.221 100.184 102.164 99.091 102.164 99.091 103.221 98.329 103.221 98.329 102.134 96.934 102.134 96.934 103.221 96.137 103.221 96.137 102.134 95.043 102.134 95.043 103.221 95.03 103.221 95.03 103.801 95.027 103.801 95.03 103.804 95.03 103.813 95.038 103.813 95.043 103.819 95.043 103.829 95.053 103.829 95.714 104.541 95.714 108.447 99.55 108.447 99.55 104.541 100.183 103.859 100.184 103.859 100.184 103.857"/>
            <path class="cls-12" d="M99.55053,108.71387H95.71361a.268.268,0,0,1-.26758-.26758v-3.79981l-.56543-.61035a.2783.2783,0,0,1-.04589-.04394.26257.26257,0,0,1-.07129-.16309.2819.2819,0,0,1-.001-.0498v-.5586a.27635.27635,0,0,1,.01367-.085v-1.00195a.268.268,0,0,1,.26758-.26758h1.09277a.268.268,0,0,1,.26758.26758v.81933h.2627v-.81933a.268.268,0,0,1,.26758-.26758h1.39453a.268.268,0,0,1,.26757.26758v.81933H98.823v-.78906a.268.268,0,0,1,.26758-.26758h1.09375a.268.268,0,0,1,.26757.26758v1.52149l.00391.00879a.26066.26066,0,0,1-.02344.28906l-.05273.05664-.00586.00684-.55567.59863v3.80078A.268.268,0,0,1,99.55053,108.71387Zm-3.56934-.53516H99.283V104.541a.26562.26562,0,0,1,.07129-.18164l.5625-.60645v-1.32129h-.5586v.78906a.268.268,0,0,1-.26757.26758h-.76172a.268.268,0,0,1-.26758-.26758v-.81933h-.85938v.81933a.268.268,0,0,1-.26757.26758h-.79786a.268.268,0,0,1-.26757-.26758v-.81933h-.55762v.81933a.27625.27625,0,0,1-.01367.085v.39454l.6123.65918a.26562.26562,0,0,1,.07129.18164Z"/>
          </g>
          <polygon class="cls-15" points="100.132 104.067 100.184 104.01 100.132 104.01 100.132 103.43 100.132 102.373 99.039 102.373 99.039 103.43 98.277 103.43 98.277 102.343 96.882 102.343 96.882 103.43 96.085 103.43 96.085 102.343 94.991 102.343 94.991 103.43 94.978 103.43 94.978 104.01 94.974 104.01 94.978 104.014 94.978 104.023 94.986 104.023 94.991 104.028 94.991 104.038 95 104.038 95.661 104.75 95.661 108.656 99.498 108.656 99.498 104.75 100.131 104.068 100.132 104.068 100.132 104.067"/>
          <rect class="cls-4" x="97.29901" y="104.03591" width="1.37866" height="1.89073"/>
          <polygon class="cls-16" points="99.82 104.148 95.402 104.148 95.19 103.913 100.083 103.913 99.82 104.148"/>
          <rect class="cls-16" x="95.755" y="105.96767" width="3.69735" height="0.23542"/>
        </g>
        <g>
          <g>
            <polygon class="cls-14" points="91.081 103.857 91.134 103.801 91.081 103.801 91.081 103.221 91.081 102.164 89.988 102.164 89.988 103.221 89.226 103.221 89.226 102.134 87.831 102.134 87.831 103.221 87.034 103.221 87.034 102.134 85.941 102.134 85.941 103.221 85.927 103.221 85.927 103.801 85.924 103.801 85.927 103.804 85.927 103.813 85.936 103.813 85.941 103.819 85.941 103.829 85.95 103.829 86.611 104.541 86.611 108.447 90.447 108.447 90.447 104.541 91.08 103.859 91.081 103.859 91.081 103.857"/>
            <path class="cls-12" d="M90.447,108.71387H86.61107a.268.268,0,0,1-.26757-.26758v-3.79981l-.56446-.60937a.26776.26776,0,0,1-.04785-.0459.29208.29208,0,0,1-.07129-.21777v-.55274a.28764.28764,0,0,1,.0127-.082v-1.00488a.268.268,0,0,1,.26757-.26758h1.09375a.268.268,0,0,1,.26758.26758v.81933h.2627v-.81933a.268.268,0,0,1,.26758-.26758h1.39453a.268.268,0,0,1,.26758.26758v.81933h.22656v-.78906a.268.268,0,0,1,.26758-.26758h1.09375a.268.268,0,0,1,.26757.26758v1.52246l.00293.00684a.26271.26271,0,0,1-.02148.28809l-.05176.05664-.00781.00879-.55664.59863v3.80078A.268.268,0,0,1,90.447,108.71387Zm-3.56836-.53516h3.30078V104.541a.26562.26562,0,0,1,.07129-.18164l.56348-.60743v-1.32031h-.5586v.78906a.268.268,0,0,1-.26757.26758h-.76172a.268.268,0,0,1-.26758-.26758v-.81933h-.85938v.81933a.268.268,0,0,1-.26757.26758h-.79786a.268.268,0,0,1-.26757-.26758v-.81933h-.5586v.81933a.28793.28793,0,0,1-.01269.082v.39747l.6123.65918a.26562.26562,0,0,1,.07129.18164Z"/>
          </g>
          <polygon class="cls-15" points="91.029 104.067 91.082 104.01 91.029 104.01 91.029 103.43 91.029 102.373 89.936 102.373 89.936 103.43 89.174 103.43 89.174 102.343 87.779 102.343 87.779 103.43 86.982 103.43 86.982 102.343 85.888 102.343 85.888 103.43 85.875 103.43 85.875 104.01 85.872 104.01 85.875 104.014 85.875 104.023 85.883 104.023 85.888 104.028 85.888 104.038 85.898 104.038 86.558 104.75 86.558 108.656 90.395 108.656 90.395 104.75 91.028 104.068 91.029 104.068 91.029 104.067"/>
          <rect class="cls-4" x="88.19618" y="104.03591" width="1.37866" height="1.89073"/>
          <polygon class="cls-16" points="90.717 104.148 86.299 104.148 86.088 103.913 90.98 103.913 90.717 104.148"/>
          <rect class="cls-16" x="86.65217" y="105.96767" width="3.69735" height="0.23542"/>
        </g>
        <g>
          <g>
            <polygon class="cls-17" points="84.135 118.596 101.782 118.596 99.515 112.946 101.254 110.505 101.294 110.505 101.294 110.449 101.329 110.4 101.294 110.4 101.294 107.017 99.585 107.017 99.585 108.133 97.981 108.133 97.981 107.017 96.272 107.017 96.272 108.133 95.26 108.133 95.26 107.017 93.551 107.017 93.551 108.133 92.47 108.133 92.47 107.017 90.761 107.017 90.761 108.133 89.471 108.133 89.471 107.017 87.762 107.017 87.762 108.133 86.332 108.133 86.332 107.017 84.623 107.017 84.623 110.4 84.588 110.4 84.623 110.449 84.623 110.505 84.662 110.505 86.401 112.946 84.135 118.596"/>
            <path class="cls-14" d="M101.782,118.99707H84.13451a.40153.40153,0,0,1-.37207-.55078L85.947,113l-1.55664-2.18652a.39453.39453,0,0,1-.169-.30274.46344.46344,0,0,1,0-.19726V107.0166a.40136.40136,0,0,1,.40137-.40137h1.709a.40135.40135,0,0,1,.40136.40137v.71485h.627v-.71485a.40135.40135,0,0,1,.40136-.40137h1.709a.40136.40136,0,0,1,.40137.40137v.71485h.48828v-.71485a.40135.40135,0,0,1,.40136-.40137h1.709a.40136.40136,0,0,1,.40137.40137v.71485h.27832v-.71485a.40135.40135,0,0,1,.40136-.40137h1.709a.40135.40135,0,0,1,.40136.40137v.71485h.208v-.71485a.40136.40136,0,0,1,.40137-.40137h1.709a.40136.40136,0,0,1,.40137.40137v.71485h.80176v-.71485a.40136.40136,0,0,1,.40137-.40137h1.709a.40136.40136,0,0,1,.40137.40137v3.26172a.38842.38842,0,0,1-.03809.35254.51906.51906,0,0,1-.127.17871L99.96947,113l2.18457,5.44629a.40153.40153,0,0,1-.37207.55078Zm-17.05469-.80273H101.1892l-2.0459-5.09864a.40117.40117,0,0,1,.04492-.38183l1.7041-2.3916V107.418h-.90625v.71484a.40135.40135,0,0,1-.40136.40137h-1.6045a.40135.40135,0,0,1-.40136-.40137V107.418H96.6726v.71484a.40136.40136,0,0,1-.40137.40137H95.26049a.40136.40136,0,0,1-.40137-.40137V107.418h-.90625v.71484a.40136.40136,0,0,1-.40137.40137H92.47045a.40136.40136,0,0,1-.40137-.40137V107.418h-.90625v.71484a.40136.40136,0,0,1-.40137.40137h-1.291a.40136.40136,0,0,1-.40137-.40137V107.418h-.90625v.71484a.40136.40136,0,0,1-.40137.40137H86.33178a.40136.40136,0,0,1-.40137-.40137V107.418h-.90625v2.90234l1.7041,2.39356a.40117.40117,0,0,1,.04492.38183Z"/>
          </g>
          <polygon class="cls-2" points="84.135 118.858 101.782 118.858 99.515 113.207 101.254 110.766 101.294 110.766 101.294 110.71 101.329 110.661 101.294 110.661 101.294 107.278 99.585 107.278 99.585 108.395 97.981 108.395 97.981 107.278 96.272 107.278 96.272 108.395 95.26 108.395 95.26 107.278 93.551 107.278 93.551 108.395 92.47 108.395 92.47 107.278 90.761 107.278 90.761 108.395 89.471 108.395 89.471 107.278 87.762 107.278 87.762 108.395 86.332 108.395 86.332 107.278 84.623 107.278 84.623 110.661 84.588 110.661 84.623 110.711 84.623 110.766 84.662 110.766 86.401 113.207 84.135 118.858"/>
        </g>
        <rect class="cls-16" x="86.46686" y="112.64944" width="13.07878" height="0.28773"/>
        <rect class="cls-16" x="85.23745" y="111.18462" width="15.38064" height="0.34005"/>
        <rect class="cls-16" x="84.70122" y="109.87674" width="16.50542" height="0.34005"/>
        <rect class="cls-16" x="85.90447" y="114.79436" width="14.15124" height="0.31389"/>
        <rect class="cls-16" x="85.11975" y="117.12238" width="15.79917" height="0.34005"/>
        <rect class="cls-16" x="86.74151" y="114.92515" width="0.39236" height="2.38034"/>
        <rect class="cls-16" x="90.61283" y="115.00362" width="0.39236" height="2.38034"/>
        <rect class="cls-16" x="95.16425" y="114.79436" width="0.39236" height="2.38034"/>
        <rect class="cls-16" x="98.93094" y="114.84667" width="0.39236" height="2.38034"/>
        <rect class="cls-16" x="88.7818" y="117.41012" width="0.39236" height="1.28172"/>
        <rect class="cls-16" x="97.07375" y="117.43627" width="0.39236" height="1.28172"/>
        <rect class="cls-4" x="88.24993" y="112.73663" width="1.25556" height="2.23211"/>
        <rect class="cls-4" x="96.72498" y="112.73663" width="1.25556" height="2.23211"/>
        <path class="cls-4" d="M92.99317,115.66628h0a.94167.94167,0,0,1,.94167.94167v2.09261a0,0,0,0,1,0,0H92.0515a0,0,0,0,1,0,0v-2.09261A.94167.94167,0,0,1,92.99317,115.66628Z"/>
      </g>
      <g>
        <path class="cls-18" d="M64.83224,142.41172a1.10465,1.10465,0,0,0-.62773-.22665c-.22875-.01828-.39378-.02925-.59223-.0423l-.19636-.01254c-.12638-.01044-.26112-.02559-.37079-.03812-.07834-.00888-.14414-.01619-.187-.01984l-.06893-.00575-.03917.0472a.14839.14839,0,0,0-.0517-.04668l-.04909-.01462c-.0961-.0094-.18592-.01619-.29037-.024-.14518-.011-.32066-.0235-.588-.05066l-.12429-.01253-.02089.12325a.91752.91752,0,0,1-.08774.2021c-.13891.25225-.4909.83977-.69354,1.17035-.12116-.33632-.3217-.91288-.44181-1.26905a.81689.81689,0,0,1-.046-.23344v-.12116l-.12012-.012c-.23292-.023-.4157-.04544-.5776-.06529-.12951-.01566-.24545-.02976-.36243-.04177l-.04074-.00418-.03656.01984a.20886.20886,0,0,0-.0829.1397.26253.26253,0,0,0-.01632-.12246l-.03447-.06058-.15458-.01254c-.10132-.00731-.259-.0188-.51911-.04961-.15563-.0188-.28828-.03917-.398-.05588-.08043-.012-.14832-.02246-.20368-.02872l-.046-.00575-.03969.02455a.18577.18577,0,0,0-.07834.12377.26838.26838,0,0,0,.01462.19271l.02925.04648.05327.013a1.295,1.295,0,0,1,.21307.06372.14408.14408,0,0,1,.00522.06319c-.01357.18853-.03969.4157-.08982.82775-.03343.282-.10236.86849-.12743,1.00845-.01462.06894-.024.08617-.02193.08617a.11311.11311,0,0,1-.03865.00731,1.4542,1.4542,0,0,1-.18383.0047l-.04073-.001-.03447.02193a.26742.26742,0,0,0-.04074.34625l.03343.03342.047.00575c.06371.00783.12743.01306.20367.01984.10759.00941.24128.02089.43869.04387.211.02507.36975.04962.50031.06946l.13891.02089.02611-.01116.01254.02422.07207.00731c.06162.00574.13474.01044.21516.01567.093.00574.19637.012.29664.02245.15354.01515.27887.03238.37914.046.07.0094.12848.01723.17757.02246l.047.0047.03969-.02612a.24417.24417,0,0,0,.08878-.18174.19166.19166,0,0,0-.04282-.16346l-.05327-.03394-.0376-.00888a1.08034,1.08034,0,0,1-.21621-.06476c-.05014-.02089-.05432-.02246-.04387-.13317.02089-.20681.08565-.65176.14623-1.03248.01358.04544.0282.0914.04178.13735.17756.57134.36139,1.16147.40944,1.41789l.01044.05484.047.03133a.47476.47476,0,0,0,.30186.02246l.04387-.02089.01984-.04335c.11385-.24441.492-.90034.774-1.38812-.03761.39586-.08043.83872-.1055,1.04449-.00626.06214-.01566.07886-.01984.07886H61.375a.8579.8579,0,0,1-.15876.01723l-.10758.00679-.03656.05013a.34849.34849,0,0,0-.02506.281l.03342.06476.07207.00731c.07625.00731.1598.01306.25172.01932.1034.00679.21725.0141.34155.02664.22456.02245.376.0423.48882.05745.07207.0094.12951.01671.17965.02193l.05431.00522.04282-.035c.00444-.00365.00444-.0126.00862-.01691l.03.05608.07311.00574c.08461.00679.18174.01149.28306.01672.11594.00574.2371.012.353.02141.11176.0094.24336.0235.36661.03656.10967.012.21308.023.28828.02872l.05431.0047.04178-.03551a.29654.29654,0,0,0,.05223-.30552l-.03134-.05849-.0658-.01044a1.6483,1.6483,0,0,1-.24128-.05327c-.03029-.011-.03551-.01253-.03447-.09662.00523-.12795.01985-.32744.03552-.53164l.05535.02872a1.2079,1.2079,0,0,0,.212.03552,1.15477,1.15477,0,0,0,.58386-.10341.9275.9275,0,0,0,.53478-.78911A.84273.84273,0,0,0,64.83224,142.41172Zm-1.0706,1.09463c.04283-.54314.06685-.79225.07834-.91027l.03551.00208c.3708.03029.42824.3238.41153.564-.02089.27365-.10967.35408-.1901.39481a.32416.32416,0,0,1-.17651.02873c-.03343-.00262-.06163-.00836-.08356-.012-.02194-.00417-.03865-.00678-.05118-.00783l-.02925-.00261C63.75851,143.544,63.75955,143.52515,63.76164,143.50635Zm-4.6772-1.45967a.24961.24961,0,0,0,.04752-.1258.29814.29814,0,0,0,.00366.12214l.03342.05849.06058.01619a1.94859,1.94859,0,0,1,.26425.08252c.02507.01253.01985.05849.01776.07206-.05013.34155-.24441,1.39492-.3217,1.725-.03447.152-.05118.15459-.11281.165a.80364.80364,0,0,1-.117.00784l-.109.005-.00378-.00607-.08774-.0235a1.20105,1.20105,0,0,1-.20994-.06894.2706.2706,0,0,1-.00209-.083c.0094-.15041.04909-.48255.10758-.97242.03969-.33528.08147-.682.10863-.82984a.29866.29866,0,0,1,.023-.09453,1.05358,1.05358,0,0,1,.15876-.00888l.10027-.00209Zm3.50842,2.50258-.03107.02579-.01071-.02683-.06789-.01619c-.09609-.02141-.17129-.04544-.22352-.06215-.02924-.01044-.04491-.01619-.04073-.12481.00731-.281.095-1.50876.1316-1.796.00523-.05065.01254-.06267.02925-.0705a1.85367,1.85367,0,0,1,.24859-.023l.03655-.00156.03029-.02037c.0094-.0062.00888-.01854.01619-.02631l.02037.0519.07311.01358a1.62246,1.62246,0,0,1,.21517.05483.3076.3076,0,0,1,.00731.10811c-.00209.1222-.02089.35825-.05954.83141-.0376.47419-.06684.79433-.08878.95413-.00835.07521-.01566.09975-.03342.10654a1.3777,1.3777,0,0,1-.16085.01567Z"/>
        <path class="cls-18" d="M67.244,144.2824l-.01253.00052-.071.00731-.03342.06372a1.6352,1.6352,0,0,1-.22561.34415c-.06163.06319-.071.07416-.24232.07051a1.81976,1.81976,0,0,1-.5212-.08043l.01462-.23814c.00836-.14362.01776-.304.0282-.44965.1525.00992.38124.02663.44913.03708l.02089-.13194h0l.00836.16066a.51423.51423,0,0,1,.01044.05954l.02716.15719.03551.03081a.33758.33758,0,0,0,.3217.01567l.05641-.03865.00208-.06841c.00314-.10967.0094-.2794.01776-.41.00836-.129.03342-.28253.05118-.39638l.01253-.07312-.05431-.047a.23552.23552,0,0,0,.12534-.04491l.03865-.034.00626-.05118a4.84806,4.84806,0,0,1,.10341-.59692l.00626-.01932-.01566-.18122-.1431.00992a4.728,4.728,0,0,1-.50971-.01253l-.85543-.05588c-.11594-.00784-.24232-.01985-.35722-.03029-.10027-.00993-.19218-.01828-.26216-.02246l-.04387-.00313-.0376.024a.1999.1999,0,0,0-.07729.14.24.24,0,0,0,.02611.18853l.03238.04335.05431.00887a1.962,1.962,0,0,1,.212.04648.239.239,0,0,1,.00627.07469c0,.11019-.01567.42928-.04074.81574-.03133.48255-.05431.83141-.07833,1.01837-.00731.07155-.01985.08826-.03552.09139a2.01756,2.01756,0,0,1-.29663.024l-.06685.00156-.03864.05432a.35542.35542,0,0,0-.023.27261l.03238.07416.08147.00522c.10549.00731.2277.012.35408.01723.12743.0047.259.00993.38228.01776.24023.01567.45957.035.66534.05275.18174.01619.353.03081.52224.04178.03342.00261.06476.00365.094.00365.13474,0,.2183-.02715.27262-.12273a3.88319,3.88319,0,0,0,.24232-.63086l.01566-.05432-.02924-.04909A.36453.36453,0,0,0,67.244,144.2824Zm-.3969-1.38865a.85464.85464,0,0,1,.04073.26478l.00313.06685.01672.01149a.20367.20367,0,0,0-.0867.023l-.04595.02611-.03029.10288a.74168.74168,0,0,1-.03238.09818c-.01045.035-.0188.05588-.03552.04178a4.45179,4.45179,0,0,1-.46375-.02141c.01149-.22665.02925-.49195.04492-.70451.13891.00575.43868.02559.51806.03761C66.82617,142.84832,66.83452,142.85876,66.84706,142.89375Z"/>
        <path class="cls-18" d="M70.04,143.3878a4.15734,4.15734,0,0,1,.1316-.70764l.01567-.05066-.02193-.04805a.18259.18259,0,0,0-.14936-.1081l-.02089-.00052-.02089.00574a1.26034,1.26034,0,0,1-.42093.02925l-1.5354-.07051a.89686.89686,0,0,1-.33319-.06893.16658.16658,0,0,0-.14414.0188l-.07207.05066-.00731.06528c-.02089.18853-.07624.53425-.11489.69771l-.00836.03134.00836.03133a.19722.19722,0,0,0,.14832.13317.2224.2224,0,0,0,.21725-.01775l.03656-.05275a2.41533,2.41533,0,0,1,.16607-.34938c.03969-.06632.06058-.06685.09087-.06685.07834.00053.2277.00679.3405.01306l-.01253.28619c-.02716.59013-.05431,1.20064-.08252,1.52181a.3659.3659,0,0,1-.0282.14205.14424.14424,0,0,1-.04073.011,2.48759,2.48759,0,0,1-.26739.02664l-.046.00313-.03447.03133a.27535.27535,0,0,0-.01671.32432l.0376.0423.05641.00261c.05013.00209.11176.00313.188.00418.12952.00209.3029.00522.53165.01567.16189.00731.30812.01827.43137.02767.093.00679.17338.01306.23919.01619l.047.00209.03864-.0282a.23351.23351,0,0,0,.07939-.17547.19326.19326,0,0,0-.04283-.15981l-.02924-.03186-.13056-.02454a.80557.80557,0,0,1-.17339-.04178c-.01044-.00366-.02193-.00836-.024-.09087-.00209-.20106.03655-1.01158.06476-1.60329l.01149-.26582c.11489.00314.27783.01045.36974.01985.03447.00522.03552.00574.05014.05118a1.37444,1.37444,0,0,1,.0564.34938l.00209.0376.02193.03133a.18266.18266,0,0,0,.14.06842.29931.29931,0,0,0,.21621-.046l.03552-.03342Z"/>
        <path class="cls-18" d="M71.61513,142.50051a1.61069,1.61069,0,0,0-1.18862.45644,1.38,1.38,0,0,0-.4178.99957,1.55542,1.55542,0,0,0,.37184,1.0988,1.46237,1.46237,0,0,0,1.0988.46062l.047.00052a1.5199,1.5199,0,0,0,1.21265-.56716,1.55248,1.55248,0,0,0,.31335-.94578A1.39474,1.39474,0,0,0,71.61513,142.50051Zm-.40944.51179a.48793.48793,0,0,1,.25695-.06841l.01671.00052a.54908.54908,0,0,1,.36975.1431,1.32476,1.32476,0,0,1,.33737,1.03874,1.1733,1.1733,0,0,1-.27052.84029.43041.43041,0,0,1-.27262.09348h-.01149a.614.614,0,0,1-.38332-.13526,1.41939,1.41939,0,0,1-.36975-1.06956A.99621.99621,0,0,1,71.20569,143.0123Z"/>
        <path class="cls-18" d="M76.09076,144.49652l-.071.012-.02925.06632a1.58259,1.58259,0,0,1-.20263.35878c-.05535.06685-.06684.08043-.235.08513a1.78308,1.78308,0,0,1-.52433-.04387l-.00209-.20263c-.001-.15354-.00208-.33058-.00208-.48464.15353,0,.38123.00052.44912.00627.02089.00209.02194.00209.03029.024.00732.02455.01045.03656.01463.0564.00522.02246.01149.05327.02715.11385l.01149.04491.03656.02873a.338.338,0,0,0,.32275-.00679l.05431-.0423-.00313-.06894c-.00523-.10967-.0094-.27835-.01045-.40839,0-.12691.01358-.27888.024-.399l.00523-.07L75.932,143.522l-.001-.00156a.22751.22751,0,0,0,.12011-.05275l.03761-.03656.00313-.0517a5.23072,5.23072,0,0,1,.0658-.63191l-.01775-.16973-.15145.02036a4.63181,4.63181,0,0,1-.50867.02194l-.85439.00365c-.10863.0047-.236-.00261-.3499-.00574-.10341-.00261-.19636-.00836-.27052-.0047l-.04178.00052-.03447.024a.18838.18838,0,0,0-.07.1316.26974.26974,0,0,0,.03342.19689l.03551.04543.0585.00522a1.9455,1.9455,0,0,1,.21412.03134.23891.23891,0,0,1,.01044.07468c.00836.1081.01462.40369.01671.81156v.12273c.00105.422.00209.727-.0094.89983-.001.071-.01253.08825-.0282.093a2.17141,2.17141,0,0,1-.29454.04386l-.0679.00679-.03446.059a.36433.36433,0,0,0-.00418.26738l.03656.07469h.08355c.10654,0,.22875-.00366.35513-.00732.12743-.00417.258-.00783.38019-.00835.2277-.00157.45226.00313.65489.00679.18592.00418.36035.00835.53374.00574.19218-.00052.29976-.023.3593-.14361a3.88908,3.88908,0,0,0,.19741-.646l.01044-.05327-.03029-.04543A.37879.37879,0,0,0,76.09076,144.49652Zm-.47838-1.35575a.86044.86044,0,0,1,.05849.2606l.00731.06685.01671.0094a.21781.21781,0,0,0-.08564.02925l-.04283.02977-.02193.09922a.63736.63736,0,0,1-.02716.105c-.00835.035-.00626.04335-.03133.04283-.10341.00992-.3029.0094-.46375.01044-.00314-.22613-.00418-.49143-.00314-.704.141-.00366.44078-.00523.51807.00209C75.59149,143.09743,75.5988,143.1084,75.61238,143.14077Z"/>
        <path class="cls-18" d="M84.86548,142.51774a1.5044,1.5044,0,0,0-1.01-.23449c-.20994.01515-.34886.02977-.48882.04439-.09609.00993-.19323.02037-.31543.03082-.06894.00522-.22248.01253-.35826.0188-.10445.0047-.19845.00887-.23814.012l-.05536.00365-.03656.0423a.31367.31367,0,0,0-.01358.29873l.03865.05744.06894.00209a1.448,1.448,0,0,1,.20785.02089c.02089.00575.02924.00993.03133.00993a.23822.23822,0,0,1,.01567.05849c.02194.18174.04491.48621.07207.87058l.0094.12586c.0282.39272.05014.70241.04909.85073.00105.07259-.01149.07625-.02507.081a1.63664,1.63664,0,0,1-.20367.04667.4009.4009,0,0,1-.29246-.13911,6.27064,6.27064,0,0,1-.64444-.775.79629.79629,0,0,0,.42406-.74837.73194.73194,0,0,0-.27784-.55828,1.032,1.032,0,0,0-.68936-.18331c-.10445.00523-.20889.01254-.32274.01985-.13474.0094-.282.01932-.4554.02768-.08147.00418-.20681.00679-.3217.00888-.10236.00208-.19532.00417-.24441.00626l-.12221.06581-.01462.06632a.29172.29172,0,0,0,.04283.2277l.03655.04125.05536.00314a1.67618,1.67618,0,0,1,.2183.02872c.001.00052.0094.01306.01462.06476.01567.16712.03134.47576.05223.8993.01357.2747.0376.834.03446.951-.001.07468-.0094.09243-.02506.09766-.03343.0094-.07521.01775-.12221.02767l-.06789.01411-.00144.001c-.25446-.02715-.25446-.02728-.37666-.31275-.11908-.27575-.38646-.974-.563-1.43565l-.142-.37131c-.02611-.06946-.05745-.16242-.07625-.2277l-.03969-.105-.10967.00992c-.03969.00313-.09505.00836-.17548.01044-.0658.00209-.13369-.00052-.18069-.00313l-.12952-.00627-.01044.12795a1.351,1.351,0,0,1-.06894.25851c-.08982.28724-.42615,1.28838-.64445,1.84352v.00052c-.09191.234-.10549.24494-.36661.2888l-.06894.01149-.02924.06215a.36626.36626,0,0,0,.00835.26791l.04074.06685.07729-.00209c.06162-.00157.13161-.00627.20681-.01149.08251-.00522.17234-.01149.26739-.0141.14622-.00418.26843-.00261.36557-.00157.07207.00052.1316.00209.17965,0l.0658-.00209.03865-.05274a.32565.32565,0,0,0,.00313-.30447l-.03551-.04491-.05745-.00418a.81716.81716,0,0,1-.21516-.04387,3.92,3.92,0,0,1,.13682-.46845l.00836-.02611c.05327-.00314.13578-.00523.282-.00888l.14-.00522c.05536-.00209.10654-.00366.14832-.0047.06267.14831.14832.36818.19427.51284a1.27658,1.27658,0,0,1-.13787.03029l-.05222.00888-.03134.04178a.3551.3551,0,0,0-.01149.27678l.03761.08409.1692-.00993c.12639-.00783.29037-.01775.54313-.02454.16921-.00523.30917-.00314.4178-.00314.07207.001.12743.001.17234,0l.0658-.00209.005-.00685c.03082-.00209.07025-.0049.12351-.00986.1055-.00887.259-.02193.4742-.0329.20472-.00992.36139-.01253.47106-.01462.06372-.00052.11281-.00157.14623-.00313l.04805-.012a.19235.19235,0,0,0,.09505-.18069.19715.19715,0,0,0-.08461-.2l-.05535-.01567a1.97367,1.97367,0,0,1-.22979-.02663.18964.18964,0,0,1-.01671-.07573c-.01045-.14-.02612-.37915-.03865-.60946l.06267.00262c.04178.05849.08983.12847.141.20315a5.33691,5.33691,0,0,0,.44077.59118.753.753,0,0,0,.26634.20106,2.237,2.237,0,0,0,.87737.05118l.0376-.0047.00509-.004.09-.00639c.17965-.01149.35095-.01985.50762-.02768.18592-.0094.352-.01776.49091-.0282a1.847,1.847,0,0,0,1.19489-.45958,1.42146,1.42146,0,0,0,.43033-1.18445A1.38588,1.38588,0,0,0,84.86548,142.51774Zm-3.98889.38437a.423.423,0,0,1,.42928.46166c.01149.23606-.07.31021-.13265.34573a.99381.99381,0,0,1-.3217.047c-.0188-.37915-.03447-.705-.03656-.85073A.36641.36641,0,0,1,80.87659,142.90211Zm2.70626.845c-.02611-.35565-.06058-.833-.071-1.00062.01984-.00313.04491-.00679.07311-.00888a.92031.92031,0,0,1,.54313.09557,1.0467,1.0467,0,0,1,.45331.84969,1.15364,1.15364,0,0,1-.17965.83246.526.526,0,0,1-.40213.22352.65027.65027,0,0,1-.31021-.04909.13147.13147,0,0,1-.03029-.06424c-.0188-.09818-.04491-.45017-.07-.79067Zm-5.2945.39273-.04387-.13265c-.03029.001-.05953.00156-.08564.00208.03238-.10705.071-.23344.10967-.35616.04491.12116.09191.24754.12847.3499l-.11176.00313Z"/>
        <path class="cls-18" d="M92.20508,143.43375a.35588.35588,0,0,0-.29245-.07677l-.06789.02089-.02089.06842a1.56631,1.56631,0,0,1-.15459.37915c-.048.07415-.05849.0893-.22352.11437a1.78846,1.78846,0,0,1-.52642.01984l-.02611-.20211c-.02089-.15249-.04387-.32744-.06163-.47942.24337-.03029.39378-.04647.447-.04856l-.00522-.1335h0l.03865.156c.01044.024.01462.03552.02193.05588l.05536.1478.03865.0235a.33688.33688,0,0,0,.32274-.04648l.04491-.048-.01044-.06528c-.01671-.10862-.04282-.27574-.05954-.40578-.01462-.11437-.01984-.25016-.023-.34729l-.00523-.12325-.06058-.03708a.22344.22344,0,0,0,.11594-.071l.02925-.03916-.00314-.04857a5.34976,5.34976,0,0,1-.01149-.63662l-.0376-.16607-.14831.03865a4.62878,4.62878,0,0,1-.50136.08408l-.84917.1081c-.11593.01462-.24232.02664-.35721.03813-.09923.0094-.1901.01827-.259.02715l-.04283.00522-.03133.02977a.19084.19084,0,0,0-.05222.14466.25279.25279,0,0,0,.05849.1854l.04073.04021.0564-.00209a1.721,1.721,0,0,1,.21726.0047.271.271,0,0,1,.01984.07207c.023.11646.071.45435.1149.80373l.00626.046c.05745.45749.09923.78807.11072.97033.00626.07155-.00314.09035-.01776.09661a1.83448,1.83448,0,0,1-.21568.06248.39145.39145,0,0,1-.27732-.12149,6.09907,6.09907,0,0,1-.68831-.73741.79647.79647,0,0,0,.38019-.77135.73242.73242,0,0,0-.30917-.54209,1.04168,1.04168,0,0,0-.69876-.14361c-.10758.01149-.21516.02506-.33319.03969-.13056.01619-.27365.03446-.44182.05222-.08251.00888-.20889.0188-.32379.02768-.10027.00783-.19218.01514-.24023.01985l-.12011.07311-.00732.05333c-.00757-.01788-.00953-.04406-.01984-.05542l-.04491-.04909-.06581.00574c-.03238.00314-.07311.00784-.12638.01463-.10131.01253-.25172.03133-.48151.0517-.15354.01358-.28514.02089-.39481.02663-.08356.0047-.15459.00888-.212.0141l-.05432.00523-.03551.0423a.28337.28337,0,0,0,.01567.317l.0376.03708.05222.00209a1.43413,1.43413,0,0,1,.22248.01828.14228.14228,0,0,1,.0188.06058c.023.16764.04073.37079.07207.71547l.01462.16764c.03447.3922.07312.83715.07625.9604,0,.06842-.00418.08879-.00313.08931a.118.118,0,0,1-.03656.01514,1.20827,1.20827,0,0,1-.17861.04178l-.04178.00784-.03029.03029a.22014.22014,0,0,0-.046.18121.21241.21241,0,0,0,.07833.16347l.03969.02715.04805-.00418c.06267-.00574.12534-.013.1995-.02245.10862-.01306.24232-.02977.44286-.047.21725-.01933.38019-.0282.51284-.03552l.1316-.00783.03029-.02141a.17289.17289,0,0,0,.06842-.12443.18.18,0,0,0,.04857.09362l.04282.035.05431-.00575c.03238-.00365.07625-.00992.1337-.01828.10549-.01462.258-.03655.47106-.059.20263-.02246.36035-.03342.47-.04178.06371-.0047.11176-.00836.14414-.012l.04491-.01306a.184.184,0,0,0,.08774-.18644.19855.19855,0,0,0-.09818-.19636l-.05432-.012a1.68155,1.68155,0,0,1-.23187-.01358.2099.2099,0,0,1-.02089-.07468c-.0188-.14153-.04805-.38751-.07416-.60633l.06267-.001c.046.05692.09818.12482.15458.19741a5.37271,5.37271,0,0,0,.47316.5635.77894.77894,0,0,0,.27783.18539,2.16887,2.16887,0,0,0,.87946.00053l.03864-.00732.00692-.00652c.06724-.0098.13069-.01835.203-.02951.12534-.0188.25486-.03865.376-.05431.235-.02977.45017-.05223.65176-.07312.18487-.01932.36035-.0376.5306-.05953.19009-.024.29454-.05954.33841-.18592a3.77376,3.77376,0,0,0,.117-.66638l.00314-.05484Zm-3.69539-.65123c.02507.23605-.05222.31491-.11176.35355a1.02863,1.02863,0,0,1-.31961.06529c-.0376-.353-.07416-.69824-.0846-.84813a.21378.21378,0,0,1,.02715-.00365A.42194.42194,0,0,1,88.50969,142.78252Zm2.76476-.716a.92709.92709,0,0,1,.09087.25329l.01566.06267.01985.00888a.21269.21269,0,0,0-.0846.04021l-.03865.03447-.01045.10862a.825.825,0,0,1-.01357.10027c-.00523.03656-.01045.047-.02716.047-.10236.023-.31752.04961-.45748.06684-.03134-.224-.06476-.48777-.08983-.69824.13892-.02141.43764-.05849.51493-.06162C91.25147,142.03153,91.25565,142.03571,91.27445,142.06652Zm-4.08185,2.43522-.10654.08565-.00052.01a.14478.14478,0,0,0-.01828-.03924l-.06058-.04021-.05327-.00261a1.54321,1.54321,0,0,1-.20159-.01671l-.03238-.00888a.20491.20491,0,0,1-.0188-.0799c-.02089-.14728-.04909-.47-.08878-.916l-.01462-.16451c-.0282-.32326-.05223-.598-.0564-.73114a.31679.31679,0,0,1,.00417-.09609,1.08145,1.08145,0,0,1,.15041-.04021l.10027-.0235.02925-.04491a.22317.22317,0,0,0,.01462-.08715.17023.17023,0,0,0,.03551.08349l.03865.03708H86.967a1.64188,1.64188,0,0,1,.22143.01723.15813.15813,0,0,1,.01671.06372c.02507.15876.0564.44756.09714.8288l.00731.06632c.02924.26269.0846.82984.08878.94683.00313.07416-.00418.093-.02089.09975-.03342.01253-.07625.0235-.12429.036Z"/>
      </g>
    </g>
  </g>
</svg>
