<svg xmlns="http://www.w3.org/2000/svg" width="150" height="150" viewBox="0 0 150 150">
  <metadata><?xpacket begin="﻿" id="W5M0MpCehiHzreSzNTczkc9d"?>
<x:xmpmeta xmlns:x="adobe:ns:meta/" x:xmptk="Adobe XMP Core 5.6-c138 79.159824, 2016/09/14-01:09:01        ">
   <rdf:RDF xmlns:rdf="http://www.w3.org/1999/02/22-rdf-syntax-ns#">
      <rdf:Description rdf:about=""/>
   </rdf:RDF>
</x:xmpmeta>
                                                                                                    
                                                                                                    
                                                                                                    
                                                                                                    
                                                                                                    
                                                                                                    
                                                                                                    
                                                                                                    
                                                                                                    
                                                                                                    
                                                                                                    
                                                                                                    
                                                                                                    
                                                                                                    
                                                                                                    
                                                                                                    
                                                                                                    
                                                                                                    
                                                                                                    
                                                                                                    
                           
<?xpacket end="w"?></metadata>
<defs>
    <style>
      .cls-1 {
        fill: #fff;
      }

      .cls-1, .cls-2 {
        fill-rule: evenodd;
      }

      .cls-2 {
        fill: #141414;
      }
    </style>
  </defs>
  <path class="cls-1" d="M148,88v20a2.206,2.206,0,0,1-2,2h-5v36a2.278,2.278,0,0,1-2,2H11a2.279,2.279,0,0,1-2-2V110H4a1.979,1.979,0,0,1-2-2V88a2.244,2.244,0,0,1,2-2h8V54H9a2.233,2.233,0,0,1-2-2V40a2.278,2.278,0,0,1,2-2H47a2.278,2.278,0,0,1,2,2V52a2.189,2.189,0,0,1-2,2H44V86H54V42H52a2.31,2.31,0,0,1-2-2V36a2.407,2.407,0,0,1,2-2h2V29a2.26,2.26,0,0,1,2-2c1.8-9.665,11-13.05,11-13.05V8a2.221,2.221,0,0,1,2-2h2V4a2.221,2.221,0,0,1,2-2h4a2.279,2.279,0,0,1,2,2V6h2a2.193,2.193,0,0,1,2,2v5.95S92.463,17.662,94,27a2.121,2.121,0,0,1,2,2v5h2a2.251,2.251,0,0,1,2,2v4a2.3,2.3,0,0,1-2,2H96V86h10V54h-3a2.206,2.206,0,0,1-2-2V40a2.251,2.251,0,0,1,2-2h38a2.251,2.251,0,0,1,2,2V52a2.4,2.4,0,0,1-2,2h-3V86h8A2.162,2.162,0,0,1,148,88Z"/>
  <path class="cls-2" d="M146,88v20h-7v38H11V108H4V88H14V52H9V40H47V52H42V88H56V40H52V36H98v4H94V88h14V52h-5V40h38V52h-5V88h10ZM60,142H87V130c0-8.734-5.108-14-13.5-14S60,121.164,60,130v12Zm-45,0H56V127.5c0-8.56,7.835-15.5,17.5-15.5S91,118.94,91,127.5V142h44V108H15v34ZM43,48V44H13v4H43ZM18,52V88H38V52H18ZM90,40H60V88H90V40Zm47,8V44H107v4h30Zm-25,4V88h20V52H112ZM8,92v12H142V92H8ZM56,30h2c0-7.686,6.555-14.012,15-14.887V12H69V8h4V4h4V8h4v4H77v3.113c8.445,0.875,15,7.2,15,14.887h2v4H56V30Zm32,0c0-6.627-5.82-12-13-12S62,23.373,62,30H88Z"/>
</svg>
