<svg id="ger_normandy_engineer_2_icon" xmlns="http://www.w3.org/2000/svg" width="150" height="150" viewBox="0 0 150 150">
  <defs>
    <style>
      .cls-1 {
        fill: #eee;
      }

      .cls-1, .cls-2, .cls-3 {
        fill-rule: evenodd;
      }

      .cls-2 {
        fill: #151515;
      }

      .cls-3 {
        fill: #c21818;
      }
    </style>
  </defs>
  <path id="Shape_156_copy_4" data-name="Shape 156 copy 4" class="cls-1" d="M75.8,148.7H74.2l-0.413-.154c-0.851-.318-21.058-8-40.264-27.252C14.175,101.9,14.947,69.518,15.055,67.346V1.055h119.89V67.346c0.109,2.172.88,34.552-18.462,53.944-19.207,19.254-39.414,26.934-40.265,27.252Z"/>
  <path id="Shape_156_copy_2" data-name="Shape 156 copy 2" class="cls-2" d="M128.945,7.054V67.493l0,0.081c0.017,0.317,1.478,31.947-16.361,49.831A122.877,122.877,0,0,1,75,143.106a122.892,122.892,0,0,1-37.589-25.7C19.572,99.521,21.034,67.891,21.05,67.576l0-.083V7.054h107.89M132,4H18V67.41s-1.8,33.054,17.249,52.152a122.938,122.938,0,0,0,39.389,26.689h0.727a122.939,122.939,0,0,0,39.389-26.689C133.8,100.464,132,67.41,132,67.41V4h0Z"/>
  <path id="Shape_156_copy_3" data-name="Shape 156 copy 3" class="cls-3" d="M81.793,54.916s-1.434,3.825.717,11.238a73.856,73.856,0,0,0,4.782,12.433s4.3,15.541,4.782,16.737,0.239,5.978,4.065,5.978,5.26-3.109,3.826-6.7-10.52-9.723-13.23-25.026c0,0-1.435-9.086,0-15.3A30.027,30.027,0,0,1,91.676,43.6s1.275,2.072.956,3.347c0,0,8.608-4.144,10.68-8.289s2.55-5.42,2.232-7.97-0.638-3.666-1.754-3.029a1.377,1.377,0,0,0-.8,1.594,4.136,4.136,0,0,1,.319,4.144,6.331,6.331,0,0,1-2.55,0A9.762,9.762,0,0,1,98.371,31.8s-0.159,3.188-1.913,3.507-3.826,1.275-3.985,2.55,2.072,3.666,2.072,3.666-3.188.319-4.623-1.913-0.956-4.144.159-5.26a5.686,5.686,0,0,0,1.753-3.347c0-.8-0.478-3.188,0-4.782,0,0-2.869-.8-3.985-2.55a7.419,7.419,0,0,0,2.072-1.594c0.8-.956,2.072-0.956,3.188,0,0,0,2.71,1.275,3.985.638s1.913-1.116,3.984-2.072,5.739-1.116,8.13,3.347,1.594,12.433-.957,15.94l-1.115,1.275a4.393,4.393,0,0,0,3.506-2.072s1.276,3.666-1.594,6.057a55.579,55.579,0,0,1-7.651,4.941,11.235,11.235,0,0,0,5.42-.956c2.869-1.275,8.289-3.029,10.361-6.695,0,0,.956,3.188-2.551,6.695s-10.839,6.535-10.839,6.535,5.739,1.275,13.23-6.376a3.8,3.8,0,0,1-.637,2.55c-0.8.8-4.942,3.985-7.97,4.941,0,0,.159,1.435,3.028.319s6.695-3.347,7.492-4.941a3.7,3.7,0,0,1-1.116,4.3c-2.231,1.753-13.23,8.129-14.186,8.926a7.1,7.1,0,0,0-1.594,2.391s8.448-5.1,9.883-6.535c0,0,0,1.594-.957,2.072s-7.97,5.579-7.97,5.579l-0.159,1.116s7.492-4.623,9.564-6.376a13.016,13.016,0,0,0,3.028-3.666s2.073,3.666.957,5.579-6.695,5.419-8.13,6.216-3.347,3.029-3.347,4.782l7.173-5.579a1.667,1.667,0,0,1-.319,1.594c-0.637.638-5.579,5.1-5.579,5.1s2.072-.478,2.869-0.8,5.579-5.579,5.579-5.579a5.85,5.85,0,0,1,.16,5.42c-1.435,2.869-5.579,4.3-6.376,5.26A6.525,6.525,0,0,0,107.3,84.4l5.26-3.985s0.16,2.072-.319,2.55-3.985,2.869-4.144,3.507,6.376-.159,8.129-1.275a6.6,6.6,0,0,1-3.188,4.463c-2.869,1.753-5.738,3.347-6.535,4.463s-1.753,3.507-1.275,4.623,2.072,0.478,2.71-.319a21.441,21.441,0,0,0,1.594-2.71,8.111,8.111,0,0,1,.159,4.782c-0.8,2.072-3.507,5.9-5.26,6.376s-6.854.318-9.245-1.276c0,0-.638,5.579.8,7.811,0,0-3.666-3.029-4.941-5.738s-0.956-7.652-1.116-8.927-0.4-4.354-2.55-4.623A2.4,2.4,0,0,0,85.3,95.4a5.67,5.67,0,0,0-.638,4.144c0.638,2.072,2.391,2.71,3.029,3.826s0.319,4.144,0,5.419-0.478,2.232-.478,2.232,3.029,1.116,3.985,2.71-0.159,5.579-1.594,6.854c0,0-.478-3.826-3.985-4.941,0,0-.956.637-0.638,1.275a10.508,10.508,0,0,0,1.913,1.913s-1.913,2.391-3.507,2.072c0,0-.8,2.55-2.232,2.709a2.089,2.089,0,0,0,.956,2.71,3.239,3.239,0,0,1-3.825-1.912,2.378,2.378,0,0,1-2.072-.479c-0.8-.8-0.638-3.028-0.638-3.028a5.72,5.72,0,0,0-1.594,1.753,3.639,3.639,0,0,1-3.507-.159,5.592,5.592,0,0,0-.319,3.666,2.962,2.962,0,0,1-2.232-3.826s-0.8-2.869-.319-3.825a4.609,4.609,0,0,1,2.072-1.594,4.522,4.522,0,0,1-1.594-1.594,2.959,2.959,0,0,1-.319-1.754s-1.435-.956-2.391-0.159c0,0,.478-3.666,3.666-2.391,0,0,1.594-1.275,2.391-.8s2.869,2.71,3.188,2.072-0.159-2.869,1.594-3.666a1.457,1.457,0,0,0,1.753,1.435,2.637,2.637,0,0,0,2.391-2.391c0-.638-2.072-4.623-2.71-4.623s-1.275.8-1.753,2.232a23.75,23.75,0,0,1-1.913-4.623c-0.159-1.275,1.435-8.767,2.232-10.2s0.638-4.3.638-4.3a2.231,2.231,0,0,0-1.434,1.435,74.621,74.621,0,0,1-3.029,7.173c-0.478.8,0.478,1.275,0.319,2.71a6.027,6.027,0,0,1-.956,2.55s0.319,2.073,1.116,2.551,1.435,3.985.319,5.738c0,0-.8-2.391-1.435-2.55s-2.072.478-2.869-.8-0.478-3.985-.8-5.1a1.621,1.621,0,0,0-1.753-1.275c-0.638,0-4.623.159-5.1,0.8a32.609,32.609,0,0,1-3.188,2.71l-0.8-2.232S55.174,98.432,54.7,97a3.9,3.9,0,0,1-2.71,3.347,34.075,34.075,0,0,1-3.347,1.275,2.675,2.675,0,0,0-.159,2.391s-2.072.319-2.072-3.188c0,0-.956-3.187-0.159-4.782,0,0-3.188-.478-4.144-2.232a5.4,5.4,0,0,0-3.347,3.029S37,93.49,40.19,91.577c0,0,1.913-3.347,3.666-3.985a5.683,5.683,0,0,1,3.507,0s0.956-2.232,1.275-3.188-0.956-2.55-2.391-2.55c0,0,3.029-2.072,4.3-1.116a2.566,2.566,0,0,1,1.275,1.753s3.028,0.478,3.985,1.913a12.3,12.3,0,0,1,1.275,4.3s3.985-.8,5.42.478c0,0,0-5.579.319-7.811,0,0-3.347-.319-4.144-1.594a15.477,15.477,0,0,0,4.144-3.666c2.072-2.55,3.347-2.71,3.347-2.71l1.275,1.275s2.71,1.116,3.029-.159-0.638-4.144-1.435-4.144-1.594,1.275-1.594,1.275A5.566,5.566,0,0,0,65.694,69.9a4.265,4.265,0,0,1-1.913-3.347,1.086,1.086,0,0,0-1.275-1.116s0,3.507-.8,3.985-3.666.478-3.666,0.478,1.275-2.232.956-3.826a1.854,1.854,0,0,0-1.753-1.594s-1.753,2.072-3.666,2.232a11.718,11.718,0,0,1-4.144-.638l-1.753,1.116a1.6,1.6,0,0,1,.159,2.232,19.981,19.981,0,0,1-3.029,2.869s0.159-2.072-.319-2.391-0.478,1.435-2.072,2.232-2.391.159-2.391,0.159a3.588,3.588,0,0,0-.638,3.347,3.62,3.62,0,0,1-2.55-3.666s-0.478-2.71,0-3.826a7.845,7.845,0,0,1-3.666-.638,7.372,7.372,0,0,0-2.869,2.869s-1.435-3.347.8-5.42c0,0,.478-3.029,2.391-3.347a5.153,5.153,0,0,1,.956-2.391c0.8-.956.319-1.435,0.319-1.435s-2.072-1.275-3.188-.319c0,0,1.753-3.825,4.941-1.753,0,0,2.391-1.116,3.188-.478s0.8,3.188.8,3.188h1.116s1.435-1.434.8-2.869c0,0,3.029-.478,3.666,1.435,0,0,.638,1.116,1.275.319s0.8-2.232,2.072-2.232h3.507s-3.188-1.594-3.666-3.507a2.258,2.258,0,0,0-.8,1.594,12.771,12.771,0,0,0-2.232-2.869c-0.8-.478-0.478-2.71.956-3.188l1.435-.478S48.32,44.4,47.2,44.236a4.838,4.838,0,0,1-3.029-1.753c-0.478-.8.638-1.275,0.638-1.275L42.9,39.932s0.478-1.594-.159-1.754-2.232.478-3.507,0.16-2.71-2.55-2.71-2.55h1.753c0.638,0,1.753-.319,1.435-1.275s-1.913-.638-2.869-0.956a4.493,4.493,0,0,1-1.594-.956l-1.435,3.029s-1.913-3.347-.956-4.782c0,0,.478-3.188,2.391-3.825s0.956-1.594.956-1.594-1.275-.319-0.956-2.55a2.8,2.8,0,0,0-2.869.956s0-3.188,1.435-3.826a2.633,2.633,0,0,1,2.71.638s1.913-.956,2.869-0.478a6.592,6.592,0,0,1,1.913,2.072,1.992,1.992,0,0,1,1.116-1.753c1.116-.478,1.913,1.753,1.913,1.753s3.029-1.275,3.507-3.507c0,0,3.029,3.507,1.275,5.9,0,0,2.232.638,2.232,1.275s-2.55,3.666-2.55,3.666,4.941,9.086,6.695,10.361,3.666,0,4.623-.956,4.941,0.638,4.941.638,0.478-2.55,1.435-2.55a27.185,27.185,0,0,0,3.666-.638l-0.478-.956s-3.188.478-3.985-.638c0,0-6.057-.8-6.854-0.478s0,1.275-1.435,1.275-3.347-1.753-2.869-3.029S57.883,30.528,59,30.687s4.144,0.478,4.144.478,3.666,0.8,5.42,1.116,4.623,2.869,3.985.8-1.435-2.232-3.188-2.391-4.144.638-5.26-.159-1.116-4.782-1.116-4.782-1.594-2.072-.8-2.232a8.228,8.228,0,0,0,3.825-2.072c1.594-1.435,2.232-3.666,3.985-3.188s7.014,1.435,7.811.956,1.275-2.391,2.55-.956a7.4,7.4,0,0,1,1.594,2.55s2.71-.319,3.666,1.594a6.818,6.818,0,0,1,0,5.1,2.564,2.564,0,0,0,.638,2.55,10.6,10.6,0,0,1,2.232,6.695l-2.072-.159a8.328,8.328,0,0,1,2.232,4.623,8.8,8.8,0,0,1-.956,5.419S85.3,43.6,84.5,44.236a20.02,20.02,0,0,1,1.594,4.3,6.377,6.377,0,0,1-.956,4.782l-0.319,3.825S83.387,54.756,81.793,54.916Z"/>
</svg>
