<svg xmlns="http://www.w3.org/2000/svg" width="14.69699" height="25" viewBox="0 0 14.69699 25">
  <defs>
    <style>
      .cls-1 {
        fill: #915c00;
      }

      .cls-2 {
        fill: #e6a738;
      }

      .cls-3 {
        fill: #964f1e;
      }

      .cls-12, .cls-3 {
        fill-rule: evenodd;
      }

      .cls-4 {
        fill: #cc8710;
      }

      .cls-5 {
        fill: #542b14;
      }

      .cls-6 {
        fill: #c1272d;
      }

      .cls-7 {
        fill: #e6474e;
      }

      .cls-8 {
        fill: #cf8e1e;
      }

      .cls-9 {
        fill: #ebac3d;
      }

      .cls-10 {
        fill: #ffc866;
      }

      .cls-11 {
        fill: #573700;
      }

      .cls-12 {
        fill: #803f13;
      }

      .cls-13 {
        fill: #ad7005;
      }
    </style>
  </defs>
  <g id="Layer_2" data-name="Layer 2">
    <g id="Layer_1-2" data-name="Layer 1">
      <g>
        <rect class="cls-1" y="1.9215" width="14.69699" height="3.41297"/>
        <path class="cls-1" d="M9.70905,4.85968H8.22136a.37569.37569,0,0,0-.37559.37559V5.494L7.37286,6.65009H7.28043l-.43721-.85633a.3817.3817,0,0,0,.00832-.07922V5.23527A.37569.37569,0,0,0,6.476,4.85968H4.98777a.37568.37568,0,0,0-.37559.37559v.47927a.37568.37568,0,0,0,.37559.37559h.44014L6.519,8.25613V9.7223a1.83157,1.83157,0,1,0,1.65886,0V8.14218l1.071-2.052h.4602a.37568.37568,0,0,0,.37559-.37559V5.23527A.37568.37568,0,0,0,9.70905,4.85968ZM6.86621,11.06034a.74786.74786,0,0,0,.41422.12421h.13645a.74409.74409,0,0,0,.41275-.12617.5091.5091,0,0,1,.08363.28022.5647.5647,0,0,1-1.12921,0A.51055.51055,0,0,1,6.86621,11.06034Z"/>
        <g>
          <rect class="cls-2" x="4.98785" y="5.23521" width="1.48793" height="0.47921"/>
          <rect class="cls-2" x="8.2212" y="5.23521" width="1.48793" height="0.47921"/>
        </g>
        <polygon class="cls-2" points="5.57 5.538 7.311 8.993 9.126 5.513 8.244 5.513 7.336 7.732 6.226 5.361 5.57 5.538"/>
        <path class="cls-2" d="M7.34841,12.78374a1.44542,1.44542,0,1,1,1.4559-1.44514A1.45205,1.45205,0,0,1,7.34841,12.78374Zm0-2.37531a.93.93,0,1,0,.94044.93017A.936.936,0,0,0,7.34841,10.40843Z"/>
        <path class="cls-3" d="M13.8751,14.43055,8.62126,16.7744l2.34385-5.25384a.11745.11745,0,0,0-.10725-.16529H3.8391a.11746.11746,0,0,0-.10727.16529l2.34385,5.2538L.8219,14.43055a.11745.11745,0,0,0-.1653.10726v7.01874a.11746.11746,0,0,0,.1653.10727L6.07565,19.32,3.73183,24.57375a.11746.11746,0,0,0,.10727.1653h7.01876a.11745.11745,0,0,0,.10725-.1653L8.62129,19.32l5.25381,2.34385a.11745.11745,0,0,0,.16529-.10727V14.53781A.11745.11745,0,0,0,13.8751,14.43055Z"/>
        <rect class="cls-4" x="0.1633" y="2.15558" width="14.37039" height="2.94618"/>
        <rect class="cls-5" x="0.8476" y="2.31221" width="13.00178" height="1.25689"/>
        <rect class="cls-6" x="1.23864" width="12.21972" height="3.03049"/>
        <rect class="cls-7" x="1.23864" y="1.93478" width="12.21972" height="0.53049"/>
        <rect class="cls-7" x="1.23864" y="0.82609" width="12.21972" height="0.53049"/>
        <g>
          <path class="cls-8" d="M7.34847,17.97615l2.495-5.59277a.25483.25483,0,0,0-.23261-.35853H5.08625a.25489.25489,0,0,0-.23272.35853Zm2.103-5.593L7.34847,17.097l-2.103-4.71382Z"/>
          <path class="cls-8" d="M7.34847,18.19219,4.85353,23.78495a.25483.25483,0,0,0,.23272.35848H9.61081a.25476.25476,0,0,0,.23261-.35848Zm-2.103,5.593,2.103-4.71389,2.103,4.71389Z"/>
          <path class="cls-8" d="M1.64775,15.58922a.25483.25483,0,0,0-.35854.23267v4.5245a.25491.25491,0,0,0,.35854.23279l5.59276-2.49495ZM1.6475,20.18714V15.98126l4.71383,2.103Z"/>
          <path class="cls-8" d="M13.2917,15.60824a.25367.25367,0,0,0-.24244-.019l-5.59271,2.495,5.59271,2.49495a.2549.2549,0,0,0,.35853-.23279v-4.5245A.2539.2539,0,0,0,13.2917,15.60824Zm-.24214,4.5789L8.33568,18.08423l4.71388-2.103Z"/>
        </g>
        <path class="cls-9" d="M14.13838,14.18942a.39381.39381,0,0,0-.37625-.02958l-4.59527,2.05L11.216,11.61661a.39523.39523,0,0,0-.361-.55614H3.8363a.39518.39518,0,0,0-.3609.55652v-.00013L5.523,16.20671.93486,14.15984a.39523.39523,0,0,0-.55614.361v7.01871a.39518.39518,0,0,0,.55652.3609H.93511L5.523,19.85378,3.4754,24.44361v-.00013A.39518.39518,0,0,0,3.8363,25H10.855a.39523.39523,0,0,0,.361-.55614L9.16687,19.8506l4.595,2.04987h-.00013a.39518.39518,0,0,0,.55652-.3609V14.52086A.39379.39379,0,0,0,14.13838,14.18942ZM4.0834,11.61611h6.52452l-1.953,4.37778a2.41058,2.41058,0,0,0-2.61726.00275Zm-3.149,9.67636V14.768L5.31351,16.7216a2.41066,2.41066,0,0,0,0,2.61728Zm9.67356,3.15189H4.0834l1.95421-4.38052a2.41062,2.41062,0,0,0,2.61727.00276Zm3.15471-3.15189L9.38348,19.33888a2.41063,2.41063,0,0,0,0-2.61728L13.76263,14.768Z"/>
        <rect class="cls-2" x="6.89454" y="7.02585" width="0.90792" height="3.78299" rx="0.38579"/>
        <path class="cls-1" d="M7.41666,7.02585a.38693.38693,0,0,1,.3858.38579V10.423a.38693.38693,0,0,1-.3858.38579H7.28033a.38693.38693,0,0,1-.3858-.38579V7.41164a.38693.38693,0,0,1,.3858-.38579h.13633m0-.25039H7.28033a.6369.6369,0,0,0-.63619.63618V10.423a.6369.6369,0,0,0,.63619.63618h.13633a.6369.6369,0,0,0,.63619-.63618V7.41164a.6369.6369,0,0,0-.63619-.63618Z"/>
        <rect class="cls-10" x="6.89454" y="7.02585" width="0.90792" height="1.71495" rx="0.25975"/>
        <path class="cls-9" d="M1.4697,4.322a.73755.73755,0,0,1-.91448-.098S.91448,3.89742,1.4697,4.322Z"/>
        <g>
          <path class="cls-9" d="M2.40454,4.33948a1.40865,1.40865,0,0,1-1.16346-.54A1.53914,1.53914,0,0,1,2.40454,4.33948Z"/>
          <path class="cls-9" d="M3.51735,4.33948a1.40865,1.40865,0,0,1-1.16346-.54A1.53914,1.53914,0,0,1,3.51735,4.33948Z"/>
          <path class="cls-9" d="M4.66725,4.33948a1.40864,1.40864,0,0,1-1.16345-.54A1.53911,1.53911,0,0,1,4.66725,4.33948Z"/>
          <path class="cls-9" d="M5.89135,4.33948a1.40865,1.40865,0,0,1-1.16346-.54A1.53914,1.53914,0,0,1,5.89135,4.33948Z"/>
          <path class="cls-9" d="M7.15253,4.33948a1.40864,1.40864,0,0,1-1.16345-.54A1.53911,1.53911,0,0,1,7.15253,4.33948Z"/>
          <path class="cls-9" d="M2.40454,4.36948a1.40864,1.40864,0,0,0-1.16346.54A1.53917,1.53917,0,0,0,2.40454,4.36948Z"/>
          <path class="cls-9" d="M3.51735,4.36948a1.40864,1.40864,0,0,0-1.16346.54A1.53917,1.53917,0,0,0,3.51735,4.36948Z"/>
          <path class="cls-9" d="M4.66725,4.36948a1.40863,1.40863,0,0,0-1.16345.54A1.53914,1.53914,0,0,0,4.66725,4.36948Z"/>
          <path class="cls-9" d="M5.89135,4.36948a1.40864,1.40864,0,0,0-1.16346.54A1.53917,1.53917,0,0,0,5.89135,4.36948Z"/>
          <path class="cls-9" d="M7.15253,4.36948a1.40863,1.40863,0,0,0-1.16345.54A1.53914,1.53914,0,0,0,7.15253,4.36948Z"/>
        </g>
        <path class="cls-9" d="M13.09665,4.322a.73755.73755,0,0,0,.91448-.098S13.65187,3.89742,13.09665,4.322Z"/>
        <g>
          <path class="cls-9" d="M12.16181,4.33948a1.40865,1.40865,0,0,0,1.16346-.54A1.53914,1.53914,0,0,0,12.16181,4.33948Z"/>
          <path class="cls-9" d="M11.049,4.33948a1.40866,1.40866,0,0,0,1.16346-.54A1.53914,1.53914,0,0,0,11.049,4.33948Z"/>
          <path class="cls-9" d="M9.8991,4.33948a1.40864,1.40864,0,0,0,1.16345-.54A1.53911,1.53911,0,0,0,9.8991,4.33948Z"/>
          <path class="cls-9" d="M8.675,4.33948a1.40866,1.40866,0,0,0,1.16346-.54A1.53914,1.53914,0,0,0,8.675,4.33948Z"/>
          <path class="cls-9" d="M7.41381,4.33948a1.40865,1.40865,0,0,0,1.16346-.54A1.53914,1.53914,0,0,0,7.41381,4.33948Z"/>
          <path class="cls-9" d="M12.16181,4.36948a1.40864,1.40864,0,0,1,1.16346.54A1.53917,1.53917,0,0,1,12.16181,4.36948Z"/>
          <path class="cls-9" d="M11.049,4.36948a1.40865,1.40865,0,0,1,1.16346.54A1.53917,1.53917,0,0,1,11.049,4.36948Z"/>
          <path class="cls-9" d="M9.8991,4.36948a1.40863,1.40863,0,0,1,1.16345.54A1.53914,1.53914,0,0,1,9.8991,4.36948Z"/>
          <path class="cls-9" d="M8.675,4.36948a1.40865,1.40865,0,0,1,1.16346.54A1.53917,1.53917,0,0,1,8.675,4.36948Z"/>
          <path class="cls-9" d="M7.41381,4.36948a1.40864,1.40864,0,0,1,1.16346.54A1.53917,1.53917,0,0,1,7.41381,4.36948Z"/>
        </g>
        <rect class="cls-10" x="0.83283" y="3.59532" width="12.98234" height="0.36742"/>
        <rect class="cls-1" x="4.6892" y="5.17683" width="5.24193" height="0.36742"/>
        <path class="cls-11" d="M11.12075,15.57334,9.052,16.583l.43581-2.10376-3.93557.78388.31581,1.237-.15246-.06125L4.36014,15.802c.29391,2.93937.96342,5.68281,3.95182,4.91531S11.12075,15.57334,11.12075,15.57334Z"/>
        <path class="cls-11" d="M4.752,21.55014a4.183,4.183,0,0,0,5.3644.39192L9.945,21.57464l-4.97248-.36743Z"/>
        <path class="cls-11" d="M11.01029,20.61011a7.25311,7.25311,0,0,0,1.25121-3.97443s.34347,2.99309-.61334,4.2443Z"/>
        <path class="cls-11" d="M4.32357,20.46291a7.25311,7.25311,0,0,1-1.25121-3.97443s-.34347,2.99309.61333,4.2443Z"/>
        <g>
          <path class="cls-12" d="M10.41554,17.5132a.95632.95632,0,0,0-.75508-.70474,1.53723,1.53723,0,0,0-.98159.27686,1.12137,1.12137,0,0,1-.60406.17619l-.33791-.65078-.00045-.00319.33836.10025.16359-.453H7.886l.20135-.27687-.44045-.01258-.00112.00785-.00113-.00785-.44045.01258.20135.27687H7.05322l.1636.453.33836-.10025-.00045.00319-.33791.65078a1.12137,1.12137,0,0,1-.60406-.17619,1.53723,1.53723,0,0,0-.98159-.27686.95632.95632,0,0,0-.75508.70474c-.12585.365-.27685.54114.56631,1.59823l.54114.86833-.12585.20137.453.22652a7.00582,7.00582,0,0,1,1.1592-.14227l.00081.01642c.0553-.0072.11448-.01121.17508-.01378.0606.00257.11977.00658.17506.01378l.00082-.01642a7.00562,7.00562,0,0,1,1.15919.14227l.453-.22652-.12585-.20137.54114-.86833C10.69239,18.05434,10.54139,17.87815,10.41554,17.5132Z"/>
          <g>
            <path class="cls-9" d="M6.33591,19.86651s.03775-.18877,0-.18877-.31462.03775-.31462.03775l.10067.18877Z"/>
            <polygon class="cls-9" points="7.041 19.841 7.116 19.602 6.688 19.602 6.676 19.854 7.041 19.841"/>
            <polygon class="cls-9" points="7.684 19.578 7.674 19.577 7.674 19.579 7.393 19.602 7.33 19.753 7.674 19.765 7.674 19.766 7.684 19.765 7.695 19.766 7.695 19.765 8.038 19.753 7.976 19.602 7.695 19.579 7.695 19.577 7.684 19.578"/>
            <path class="cls-9" d="M5.34173,17.09791,5.304,16.95947s-.27686.13844-.33979.67958a1.07869,1.07869,0,0,0,.22653.84316A1.25685,1.25685,0,0,1,5.34173,17.09791Z"/>
            <path class="cls-10" d="M5.41723,18.41929a3.79156,3.79156,0,0,1,.17619-.89351.65669.65669,0,0,1,.59147-.11325c.151.05033.99418.18875.99418.18875l.02517-.20135c-.41529.10068-.80541-.302-1.1452-.28944s-.60406.06292-.69214.42787A2.18787,2.18787,0,0,0,5.41723,18.41929Z"/>
            <path class="cls-9" d="M7.21682,17.26151c.03775,0,.22652.2391.22652.2391s.21394-.10068.20135-.18877,0-.59147,0-.59147A5.35923,5.35923,0,0,0,7.21682,17.26151Z"/>
            <polygon class="cls-10" points="7.456 16.355 7.116 16.242 7.242 16.569 7.456 16.355"/>
            <path class="cls-10" d="M7.56919,16.16665c.0092-.02757.07823-.05484.11509-.0677.03685.01286.10587.04013.11507.0677.01258.03775.26428-.23911.26428-.23911l-.34091.04561-.03844.07342-.03846-.07342-.3409-.04561S7.55661,16.2044,7.56919,16.16665Z"/>
            <path class="cls-9" d="M7.68428,19.91194a4.69222,4.69222,0,0,0-1.56232.14334l.151.20135c.22888-.0218,1.16447-.08126,1.4113-.09683.24683.01557,1.1824.075,1.41128.09683l.151-.20135A4.692,4.692,0,0,0,7.68428,19.91194Z"/>
            <path class="cls-9" d="M9.03264,19.86651l.21394.03775.10067-.18877s-.27686-.03775-.31461-.03775S9.03264,19.86651,9.03264,19.86651Z"/>
            <polygon class="cls-9" points="8.68 19.602 8.252 19.602 8.328 19.841 8.693 19.854 8.68 19.602"/>
            <path class="cls-9" d="M9.66187,18.822l-.1636-.13842-.13844.39012.23912-.0755s-.10068.21394-.18877.2391a1.4586,1.4586,0,0,1-.45305-.151s-.01259-.23911.10068-.26429.13842.18878.13842.18878.20137-.39012.07552-.46563-.28944.03775-.28944.03775a.57326.57326,0,0,0-.1762-.453c-.16359.10068-.16359.52855-.16359.52855s-.22653-.2391-.28945-.17618-.05033.453-.05033.453.151-.151.22652-.11327.03775.2517.03775.2517a.50258.50258,0,0,1-.72991-.12585l-.03775-.365-.11507.02094-.11509-.02094-.03775.365a.50258.50258,0,0,1-.72991.12585s-.03775-.21393.03775-.2517.22652.11327.22652.11327.0126-.39012-.05033-.453-.28944.17618-.28944.17618,0-.42787-.1636-.52855a.57324.57324,0,0,0-.17619.453s-.1636-.11326-.28945-.03775.07552.46563.07552.46563.02516-.21393.13842-.18878.10068.26429.10068.26429a1.45862,1.45862,0,0,1-.453.151c-.0881-.02516-.18877-.2391-.18877-.2391l.23911.0755-.13844-.39012-.1636.13842a.42625.42625,0,0,1,.07552-.35236l-.59148.151.20134.25169s.22653.41529.47822.50339.72991-.20137.72991-.20137a1.136,1.136,0,0,0,.72991.13844.568.568,0,0,0,.35419-.22686.56793.56793,0,0,0,.35417.22686,1.136,1.136,0,0,0,.72991-.13844s.47822.28945.72991.20137.47822-.50339.47822-.50339l.20135-.25169-.59149-.151A.42625.42625,0,0,1,9.66187,18.822Z"/>
            <path class="cls-9" d="M10.40436,17.63905c-.06293-.54114-.33979-.67958-.33979-.67958l-.03775.13844a1.25687,1.25687,0,0,1,.151,1.3843A1.0787,1.0787,0,0,0,10.40436,17.63905Z"/>
            <path class="cls-10" d="M8.18947,17.60128s.84317-.13842.99418-.18875a.65669.65669,0,0,1,.59147.11325,3.791,3.791,0,0,1,.17619.89351,2.18787,2.18787,0,0,0,.05033-.88093c-.08808-.365-.35236-.41528-.69214-.42787s-.72991.39012-1.1452.28944Z"/>
            <path class="cls-9" d="M7.9252,17.50061s.18877-.2391.22652-.2391a5.35923,5.35923,0,0,0-.42787-.54114s.01258.50339,0,.59147S7.9252,17.50061,7.9252,17.50061Z"/>
            <path class="cls-9" d="M7.79935,18.58288s.2391-.08809.26428-.21394a5.77819,5.77819,0,0,0,0-.667.5197.5197,0,0,1-.356.11327v0l-.00122,0c-.009.00018-.01556.0002-.02211.00018s-.01314,0-.02213-.00018l-.00122,0v0a.51968.51968,0,0,1-.356-.11327,5.7759,5.7759,0,0,0,0,.667c.02517.12585.26427.21394.26427.21394l.11509-.11509Z"/>
            <polygon class="cls-10" points="8.127 16.569 8.252 16.242 7.913 16.355 8.127 16.569"/>
          </g>
          <path class="cls-4" d="M11.08888,15.38023a8.87475,8.87475,0,0,1-.08426,1.08844c-.327,2.34468-.84995,4.20046-3.26266,4.27037-2.60579.0755-2.90114-1.69557-3.30723-4.01867-.07151-.40912-.13828-.87339-.18326-1.35665l-1.19112-.44364a9.48206,9.48206,0,0,0,.26365,3.193c.53517,2.32309,2.044,4.01867,4.35846,4.01867s3.86881-1.9257,4.29971-4.27035a5.553,5.553,0,0,0-.17738-2.95078Z"/>
          <path class="cls-9" d="M7.68243,22.26029c-2.21355,0-3.88967-1.53944-4.48376-4.11831a9.32674,9.32674,0,0,1-.26595-3.238l.02047-.16093L4.372,15.2714l.00753.0804c.0402.43316.10151.88618.18191,1.34647l.00653.03757c.4005,2.29106.68932,3.94532,3.1702,3.87446,2.376-.06884,2.82737-1.92435,3.13905-4.15939a8.7148,8.7148,0,0,0,.083-1.07273l.00113-.06821.90828-.59585.05578.15213a5.69543,5.69543,0,0,1,.18317,3.01832C11.62021,20.54272,9.88279,22.26029,7.68243,22.26029Zm-4.51253-7.162a9.54058,9.54058,0,0,0,.27952,2.9859c.56532,2.45375,2.14772,3.91882,4.233,3.91882,2.07008,0,3.70826-1.63492,4.1732-4.16492a5.53428,5.53428,0,0,0-.11846-2.72938l-.521.34183a8.95774,8.95774,0,0,1-.08417,1.0358c-.31608,2.26619-.81281,4.30662-3.38628,4.38125-2.70789.07487-3.02447-1.76-3.43113-4.08741L4.308,16.74249c-.07664-.43856-.13606-.87084-.17689-1.28629Z"/>
          <polygon class="cls-4" points="11.29 15.044 12.418 17.509 12.238 15.937 13.274 17.031 12.155 14.682 11.29 15.044"/>
          <path class="cls-9" d="M13.2837,16.88508l-1.06463-2.234a.07149.07149,0,0,0-.09183-.03505l-.86457.36256a.07113.07113,0,0,0-.03731.09535L12.252,17.31663a.189.189,0,0,0-.04331.11686.193.193,0,0,0,.38593,0,.19086.19086,0,0,0-.13376-.181l-.12734-1.11161.77314.81664a.18879.18879,0,0,0-.04221.11523.193.193,0,0,0,.38593,0A.19067.19067,0,0,0,13.2837,16.88508Zm-.99352-.99735a.07131.07131,0,0,0-.12261.05716l.129,1.12675-.91093-1.99006.734-.30791.8961,1.88051Z"/>
          <polygon class="cls-4" points="3.921 15.008 2.793 17.472 2.973 15.9 1.937 16.994 3.056 14.645 3.921 15.008"/>
          <path class="cls-9" d="M1.92739,16.84834l1.06463-2.234a.07149.07149,0,0,1,.09183-.03505l.86457.36256a.07113.07113,0,0,1,.03731.09535L2.95909,17.27988a.189.189,0,0,1,.04331.11687.193.193,0,0,1-.38593,0,.19086.19086,0,0,1,.13376-.181l.12734-1.11162-.77314.81664a.18881.18881,0,0,1,.04221.11523.193.193,0,1,1-.38593,0A.19066.19066,0,0,1,1.92739,16.84834Zm.99352-.99736a.07131.07131,0,0,1,.12261.05717l-.129,1.12675.91092-1.99006-.734-.30792-.8961,1.88052Z"/>
          <polygon class="cls-9" points="6.537 20.89 6.789 21.721 7.141 21.737 7.51 21.016 7.175 20.974 6.982 21.36 6.856 20.974 6.537 20.89"/>
          <polygon class="cls-9" points="8.207 21.033 8.45 21.737 9.037 21.486 8.962 21.318 8.651 21.368 8.458 20.94 8.207 21.033"/>
          <polygon class="cls-9" points="10.22 19.816 10.799 20.194 11.118 19.682 10.975 19.59 10.791 19.892 10.707 19.858 10.892 19.564 10.707 19.447 10.514 19.732 10.455 19.674 10.631 19.38 10.489 19.33 10.22 19.816"/>
          <polygon class="cls-9" points="10.892 18.608 11.101 18.365 10.892 18.314 10.892 18.608"/>
          <path class="cls-9" d="M11.28583,17.7607a4.12028,4.12028,0,0,0-.2433.44465,1.84867,1.84867,0,0,1,.31042-.10068l.151.07551.1594-.36914-.13423-.39432Z"/>
          <polygon class="cls-9" points="4.373 18.608 4.163 18.365 4.373 18.314 4.373 18.608"/>
          <path class="cls-9" d="M3.97839,17.7607a4.12028,4.12028,0,0,1,.2433.44465,1.849,1.849,0,0,0-.31042-.10068l-.151.07551-.1594-.36914.13423-.39432Z"/>
          <path class="cls-9" d="M5.00194,19.69032c-.02516-.05872-.21812-.41108-.21812-.41108l-.646.32719.12585.24329.22652-.05032a.3283.3283,0,0,0,.44466.21813C5.06067,19.9504,5.02711,19.74905,5.00194,19.69032Zm-.22653.12585c-.11744.042-.1594-.151-.1594-.151l.151-.05873S4.89288,19.77422,4.77541,19.81617Z"/>
          <path class="cls-9" d="M5.55567,20.35311c-.02517-.09229-.4111-.40271-.4111-.40271l-.4866.43627.16779.20975.20973-.12585-.06711.2433.23492.22652.06712-.302a.32576.32576,0,0,0,.151,0C5.5305,20.62158,5.58083,20.4454,5.55567,20.35311Zm-.2601.08391c-.04194,0-.18456-.12585-.18456-.12585l.06712-.10068a.9526.9526,0,0,1,.18458.11745C5.37109,20.35311,5.33753,20.437,5.29557,20.437Z"/>
          <path class="cls-9" d="M6.23523,20.739a.58446.58446,0,0,0-.5705-.18458c-.14264.07552-.24331.06712-.2517.344a.63952.63952,0,0,0,.24331.41949.49875.49875,0,0,0,.52016.01679A.68834.68834,0,0,0,6.23523,20.739Zm-.25169.36075c-.03356.05873-.16779.05873-.2517,0s.02518-.26846.02518-.26846c.03356-.06712.20135-.05873.25169.00838S6.0171,21.04106,5.98354,21.09979Z"/>
          <path class="cls-9" d="M7.99706,20.95717l-.31041.01678-.3356.78864.28526.04194L7.68665,21.62l.20973-.01677.09229.16779.31881-.00838Zm-.302.41949.11746-.26008.10906.26008Z"/>
          <path class="cls-9" d="M9.70017,20.60481a.36366.36366,0,0,0-.33558-.02518.5417.5417,0,0,0-.33558.26847s-.10069.25169.01677.37754a.55089.55089,0,0,0,.495.13423.81693.81693,0,0,0,.32721-.26008A.87789.87789,0,0,0,9.70017,20.60481Zm-.10067.44465c-.01678.04195-.21814.12585-.29364.00839a.13756.13756,0,0,1,.03356-.193.14665.14665,0,0,1,.26008.04194C9.63305,20.99912,9.61628,21.0075,9.5995,21.04946Z"/>
          <path class="cls-9" d="M10.707,20.3699l-.31881-.11746a.5063.5063,0,0,0-.14264-.24331c-.09229-.05873-.2349.01679-.2349.01679l-.31881.39431.495.50339.15939-.20137-.12583-.16779.36914-.01677Zm-.62085.09227-.11745-.09227.15941-.193a.14844.14844,0,0,1,.08388.10067C10.22035,20.34473,10.0861,20.46217,10.0861,20.46217Z"/>
          <path class="cls-13" d="M5.69828,15.60454c-.3272-.23491-.4866-.27686-.56211-.60406a1.69662,1.69662,0,0,1,.02517-.70473.39566.39566,0,0,1-.07551-.3272,1.02535,1.02535,0,0,1,.20136-.29364,1.40511,1.40511,0,0,1-.01678-.38593c.03355-.04195-.04195-.35237.01678-.44465s.37753.10067.37753.10067l-.00839-.14262s-.33558-.36076-.21813-.58728.42788-.02517.42788-.02517.1594-.42787.31042-.453.20974.4027.20974.4027.3272-.10067.453-.02517-.06711.62084-.06711.62084l-.06712.3272s.25169-.27686.32719-.23491.00839.53694.00839.53694a2.92169,2.92169,0,0,1,.46983.62084,2.54532,2.54532,0,0,0,.28525.47821s.22652.13424.3272.10068.495-.1678.67956-.22652a.71085.71085,0,0,1,.7383.25169s.38592-.10068.43626-.20136a.95028.95028,0,0,0-.14262-.54533,1.38971,1.38971,0,0,0-.74669-.06711,2.18369,2.18369,0,0,1-.8977.1594c-.20135-.06712-.41948-.20135-.36075-.51177s.20135-.41949.59567-.48661a.43847.43847,0,0,1,.31042-.22652,2.28057,2.28057,0,0,1,.688.07551l-.302.14263a1.40978,1.40978,0,0,0,.51177-.06712s-.04194.35237-.21813.37753a6.708,6.708,0,0,1-.92286-.0755c-.06712-.00839-.37754.05034-.43627.17618a.291.291,0,0,0,.193.38593,5.279,5.279,0,0,0,1.13261-.20975.65484.65484,0,0,1,.797.37754c.13423.41949.09228.61245,0,.69635a5.27031,5.27031,0,0,1-.5705.3272,2.37427,2.37427,0,0,0,.04195.84736.31918.31918,0,0,0,.38592.18457c.05873-.01678.2433,0,.25169.09229s-.0839.302-.07551.41109.00839.38593.07551.43627.1678.1594.10068.18457a.39664.39664,0,0,1-.1678.00839s-.04194.193-.151.23491a.75137.75137,0,0,1-.29364.01678s-.12584.11746-.17618.05034-.11746-.151-.11746-.151-.07551.14262-.10907.10067a.49409.49409,0,0,1-.0755-.344c.02517-.1594.36914-.31042.36914-.31042a1.5504,1.5504,0,0,0,.02517-.20135c0-.06712.04195-.151-.04194-.17618s-.52017.00839-.72152-.26847a3.15838,3.15838,0,0,1-.27686-.50339,1.18947,1.18947,0,0,0-.31881-.04194,1.55276,1.55276,0,0,1-.84736.38592c-.40271-.00839-.44466-.05873-.44466-.05873a.24946.24946,0,0,1-.11745.26009c-.151.0755-.2433.11745-.2433.11745l-.10907-.21813s-.151.46143-.18457.57889.02517.37754-.07551.453a.45961.45961,0,0,1-.26008.06712s-.1678.10068-.2433.0839l-.07551-.01678s-.151.06712-.17618.02517-.12585-.11746-.11746-.18458a.95826.95826,0,0,1,.151-.39431.56852.56852,0,0,1,.29363-.05873s.09229-.03356.09229-.0839.02517-.495.02517-.495S6.02548,15.83945,5.69828,15.60454Z"/>
          <g>
            <path class="cls-10" d="M9.268,15.33441l-.1798.07753c-.08262-.33881-.40181-.261-.63092-.452-2.17039,1.15195-.56431-.83336.60323-.61559C9.847,14.75682,9.18909,14.84263,9.268,15.33441Z"/>
            <path class="cls-10" d="M6.6301,13.30129c-.80563.193-.15432.4435-.1908.835-.16582-.04127-.33317-.1021-.49238-.15312l-.07878.16422a.24842.24842,0,0,1-.03215-.362c.3981-.41865-.59127-.46634-.15853-.76812.09714-.28162.323-.23089.57178-.27247.22723-.03206.37829.3842.37567.56136Z"/>
            <path class="cls-10" d="M9.51525,17.09321l-.1853.09144c-.09609-.14241.01957-.32762.12371-.41888.09862-.067.33164.04584.41879-.07257.01467-.099-.10544-.22672-.1007-.32677.03856-.22054-.16836-.26714-.29964-.38928-.02778-.02078-.06439-.06118-.08539-.05474-.224.0525-.34494-.18821-.33956-.36069.37509.03209.55535.49246.99289.40144.11387-.0191.18372.06271.11033.15334-.22625.31072-.00125.57316.117.84667l-.12874-.04365c-.07757.28736-.28087.35849-.56771.32366Z"/>
            <path class="cls-10" d="M5.67559,17.0249l-.07451.1269c-.41148-.10282-.15024-.633.20974-.56818.21288-.2109.1565-.66429.24036-.93645.1232-.0323.07287.1801.19952.07919C6.35456,16.04652,6.171,17.39966,5.67559,17.0249Z"/>
            <path class="cls-10" d="M7.18232,14.22868l.20657-.142.04969.02755-.1077.2801.15752-.10709.0397.26122.12664-.10637c.11788.44474-.60992.49435-.76148.895-.051-.22836.08727-.36656.2256-.50473l-.04247-.04156-.30662.25046v-.45211c.17119.036.33828.13538.41617-.12044l-.18521.07971-.03633-.02568q.088-.13737.17564-.27455Z"/>
            <path class="cls-10" d="M8.57879,13.84033c.02387-.09092.05793-.14928.063-.13279,1.5706-.77707,1.9186,1.05065.96171.94548C10.77022,13.91367,9.2928,13.55221,8.57879,13.84033Z"/>
            <path class="cls-10" d="M9.37337,12.98347c-.07413.44094-1.115-.02591-1.4863.359.05263-.35227.46176-.29684.67121-.52043.05626-.06475.20571-.04846.313-.06884l.021.06139-.163.11625c.22652.08629.42441.1785.64522.057Z"/>
            <path class="cls-10" d="M7.18232,14.22868c-.068.03278-.14018.05244-.21124.079-.1835-.29962.066-.54228.01019-.88193C7.22685,13.69222,7.38114,13.88583,7.18232,14.22868Z"/>
            <path class="cls-10" d="M6.35506,12.67917c-.14392-.30322.18116-.73032.46544-.4324a1.83488,1.83488,0,0,0-.38123.46233Z"/>
            <path class="cls-10" d="M5.30025,14.964c-.15777-.22279.14626-.54793.37875-.44232v.5797l-.24873-.336-.13546.19451Z"/>
            <path class="cls-10" d="M5.29481,14.95984c.229.26038.51589.44132.64182.77959-.1803-.18-.88842-.56965-.6362-.77536Z"/>
            <path class="cls-10" d="M6.00142,12.20777a.79869.79869,0,0,0,.058-.3885l.06148-.00475.158.65189c-.29334.095-.23164-.06114-.27222-.26508Z"/>
            <path class="cls-10" d="M5.64554,14.28331c-.11047-.32445-.57461-.77613-.21967-1.06819-.06677.43778.12841.63992.2689,1.05648Z"/>
            <path class="cls-10" d="M5.8432,14.31862a.39849.39849,0,0,1,.40878.14109A.21788.21788,0,0,1,5.8432,14.31862Z"/>
            <path class="cls-10" d="M6.62491,13.30611c.29572.10838.05934.6532-.17106.34494l.17627-.34965Z"/>
            <path class="cls-10" d="M5.40233,14.11564c-.07021-.06745-.12294-.21078-.24787-.051-.10828-.14538.02617-.21377.09376-.35627l.19429.38452Z"/>
            <path class="cls-10" d="M5.77128,13.63007c-.25208-.02879-.26039-.04256-.17409-.25288Z"/>
            <g>
              <path class="cls-10" d="M5.79755,12.1634a.15111.15111,0,0,0-.04146-.04623c-.103-.07029-.32374.01405-.33845.09838a.3248.3248,0,0,0,.103.28111.08741.08741,0,0,0,.04678.0065c.0653.12553.13635.22977.28422.127.09111-.14036-.08444-.3791.14662-.426l-.122-.13684Z"/>
              <polygon class="cls-10" points="6.007 12.201 5.998 12.204 6.001 12.208 6.007 12.201"/>
            </g>
          </g>
        </g>
      </g>
    </g>
  </g>
</svg>
