<svg xmlns="http://www.w3.org/2000/svg" width="25" height="25" viewBox="0 0 25 25">
  <metadata><?xpacket begin="﻿" id="W5M0MpCehiHzreSzNTczkc9d"?>
<x:xmpmeta xmlns:x="adobe:ns:meta/" x:xmptk="Adobe XMP Core 5.6-c138 79.159824, 2016/09/14-01:09:01        ">
   <rdf:RDF xmlns:rdf="http://www.w3.org/1999/02/22-rdf-syntax-ns#">
      <rdf:Description rdf:about=""/>
   </rdf:RDF>
</x:xmpmeta>
                                                                                                    
                                                                                                    
                                                                                                    
                                                                                                    
                                                                                                    
                                                                                                    
                                                                                                    
                                                                                                    
                                                                                                    
                                                                                                    
                                                                                                    
                                                                                                    
                                                                                                    
                                                                                                    
                                                                                                    
                                                                                                    
                                                                                                    
                                                                                                    
                                                                                                    
                                                                                                    
                           
<?xpacket end="w"?></metadata>
<defs>
    <style>
      .cls-1 {
        fill: #cf9700;
      }

      .cls-1, .cls-2, .cls-3, .cls-4, .cls-5, .cls-6, .cls-7, .cls-8 {
        fill-rule: evenodd;
      }

      .cls-2 {
        fill: #6a3108;
      }

      .cls-3 {
        fill: #2a6622;
      }

      .cls-4 {
        fill: #1c5686;
      }

      .cls-5 {
        fill: #194b74;
      }

      .cls-6 {
        fill: #2c76b5;
      }

      .cls-7 {
        fill: #246aa6;
      }

      .cls-8 {
        fill: #fff;
      }
    </style>
  </defs>
  <path class="cls-1" d="M7.9,22.143a0.769,0.769,0,0,1-.048-0.272l-0.026-.008A3.765,3.765,0,0,1,5.089,19.4c0.049-.494.514-0.646,1.312-0.523L6.676,19.1A3.83,3.83,0,0,1,8.5,21.035a1.869,1.869,0,0,1,.062.251q0.122-.026.265-0.043L9.17,21.406a4.842,4.842,0,0,1,2.5,1.51,1.232,1.232,0,0,1,.332.739c-0.055.158-.1,0.322-0.546,0.3A4.538,4.538,0,0,1,7.9,22.143h0Zm5.192,1.512a1.232,1.232,0,0,1,.332-0.739,4.843,4.843,0,0,1,2.5-1.51l0.349-.162q0.142,0.017.265,0.043a1.853,1.853,0,0,1,.062-0.251A3.83,3.83,0,0,1,18.413,19.1l0.275-.228c0.8-.123,1.263.029,1.312,0.523a3.765,3.765,0,0,1-2.737,2.464l-0.026.008a0.771,0.771,0,0,1-.048.272,4.538,4.538,0,0,1-3.553,1.814c-0.447.02-.49-0.143-0.546-0.3h0ZM4.639,17.43a3.866,3.866,0,0,1,.58-3.7,0.8,0.8,0,0,1,.253-0.117c0-.008,0-0.017,0-0.026a3.273,3.273,0,0,1,1.5-3.14c0.5-.089.813,0.29,0.965,1.045L7.8,11.8a3.353,3.353,0,0,1-1.287,2.166,1.886,1.886,0,0,1-.227.124q0.067,0.1.132,0.228l-0.042.359a4.1,4.1,0,0,1-.641,2.665,1.184,1.184,0,0,1-.617.5,0.445,0.445,0,0,1-.484-0.412h0Zm14.348-.088a4.1,4.1,0,0,1-.641-2.665L18.3,14.318q0.065-.124.132-0.228a1.862,1.862,0,0,1-.227-0.124A3.353,3.353,0,0,1,16.923,11.8l-0.132-.311c0.152-.755.46-1.134,0.965-1.045a3.272,3.272,0,0,1,1.5,3.14V13.61a0.8,0.8,0,0,1,.253.117,3.866,3.866,0,0,1,.58,3.7,0.445,0.445,0,0,1-.484.412,1.185,1.185,0,0,1-.616-0.5h0Z"/>
  <path class="cls-2" d="M20.727,18.94a0.463,0.463,0,0,1-.346,0l-0.019-.009-0.007.02a0.451,0.451,0,0,1-.245.239,0.477,0.477,0,0,1-.614-0.264,0.482,0.482,0,0,1-.034-0.13l-4.427.671-2.022,4.116a0.455,0.455,0,0,1,.3.172,0.46,0.46,0,0,1-.1.65,0.5,0.5,0,0,1-.147.076l-0.029.006,0,0.021a0.475,0.475,0,0,1-.193.4,0.48,0.48,0,0,1-.665-0.077,0.441,0.441,0,0,1-.089-0.328l0-.021H12.076a0.452,0.452,0,0,1-.2-0.822,0.5,0.5,0,0,1,.2-0.09L10,19.511l-4.459-.6a0.481,0.481,0,0,1-.669.421,0.45,0.45,0,0,1-.235-0.248l-0.006-.02-0.019.009a0.459,0.459,0,0,1-.567-0.635A0.485,0.485,0,0,1,4.4,18.169l0.021,0V18.138a0.482,0.482,0,0,1,.667-0.4,0.45,0.45,0,0,1,.176.141l3.14-3.06-0.809-4.4a0.5,0.5,0,0,1-.154.014,0.469,0.469,0,0,1-.451-0.487,0.443,0.443,0,0,1,.152-0.3l0.017-.013L7.142,9.62A0.442,0.442,0,0,1,7.031,9.3a0.471,0.471,0,0,1,.511-0.425,0.488,0.488,0,0,1,.385.226l0.01,0.019,0.027-.01A0.506,0.506,0,0,1,8.13,9.092a0.469,0.469,0,0,1,.451.487,0.44,0.44,0,0,1-.128.282l4,2.019,3.925-2.07a0.437,0.437,0,0,1-.084-0.23,0.469,0.469,0,0,1,.451-0.487,0.506,0.506,0,0,1,.165.017l0.027,0.01L16.943,9.1a0.488,0.488,0,0,1,.385-0.226,0.471,0.471,0,0,1,.511.425,0.441,0.441,0,0,1-.11.322l-0.015.015L17.73,9.648a0.443,0.443,0,0,1,.152.3,0.469,0.469,0,0,1-.451.487,0.5,0.5,0,0,1-.167-0.017L16.549,14.75l3.2,3.012a0.449,0.449,0,0,1,.21-0.174,0.477,0.477,0,0,1,.614.264,0.486,0.486,0,0,1,.037.159V18.04l0.021,0a0.485,0.485,0,0,1,.342.286A0.463,0.463,0,0,1,20.727,18.94ZM8,7h9L16,9.344H9Z"/>
  <path class="cls-1" d="M20.622,18.77a0.343,0.343,0,0,1-.376-0.085,0.332,0.332,0,0,1-.205.32,0.348,0.348,0,0,1-.447-0.194c-0.026-.063-0.06-0.136-0.084-0.207l-4.251.645A4.045,4.045,0,0,0,16.651,15.1l2.975,2.8a0.958,0.958,0,0,1,.352-0.216,0.353,0.353,0,0,1,.461.427,0.352,0.352,0,0,1,.361.216A0.337,0.337,0,0,1,20.622,18.77ZM17.775,9.959a0.364,0.364,0,0,1-.351.375,2.034,2.034,0,0,1-.335.008l-0.669,4.05a4.272,4.272,0,0,0-3.595-2.506L16.479,9.96A1.093,1.093,0,0,1,16.4,9.571,0.363,0.363,0,0,1,16.747,9.2a0.39,0.39,0,0,1,.243.065,0.371,0.371,0,0,1,.344-0.283,0.366,0.366,0,0,1,.4.328,0.353,0.353,0,0,1-.215.342A0.355,0.355,0,0,1,17.775,9.959ZM9,7h7V9H9V7Zm3.075,4.895a4.266,4.266,0,0,0-3.549,2.577l-0.76-4.128a2.21,2.21,0,0,1-.32-0.01,0.364,0.364,0,0,1-.351-0.375,0.355,0.355,0,0,1,.258-0.312,0.353,0.353,0,0,1-.215-0.342,0.366,0.366,0,0,1,.4-0.328,0.371,0.371,0,0,1,.344.283A0.39,0.39,0,0,1,8.123,9.2a0.363,0.363,0,0,1,.351.375,0.9,0.9,0,0,1-.119.445ZM8.2,16.063A4.155,4.155,0,0,0,9.779,19.3l-4.267-.571a2.377,2.377,0,0,1-.109.25,0.349,0.349,0,0,1-.455.177,0.332,0.332,0,0,1-.192-0.328,0.342,0.342,0,0,1-.379.07,0.337,0.337,0,0,1-.159-0.454,0.352,0.352,0,0,1,.369-0.2,0.353,0.353,0,0,1,.478-0.409,1.11,1.11,0,0,1,.311.194L8.3,15.174A4.133,4.133,0,0,0,8.2,16.063Zm0.39,0a3.9,3.9,0,1,1,3.895,3.825A3.862,3.862,0,0,1,8.593,16.062Zm7.352,0a3.456,3.456,0,1,0-3.456,3.394A3.427,3.427,0,0,0,15.945,16.062Zm-4.678-2.067-0.142-.89,0.606,0.615a1.114,1.114,0,0,1,.425-0.046c0.035,0,.073.012,0.109,0.016l0.4-.895,0.147,1.014a2.424,2.424,0,0,1,.41.179l0.809-.715-0.314,1.11a1.245,1.245,0,0,1,.2.386l1.119-.029-1.065.632a1.678,1.678,0,0,1-.012.186,0.793,0.793,0,0,1,.257.992,0.348,0.348,0,0,0,.134.43c0.056,0.123.056,0.218-.067,0.253a1.569,1.569,0,0,0,.535.738L14.76,18.2l-0.34-.389-0.521-.1a2.052,2.052,0,0,1-.322-1.249c0.078-.065.474-0.544,0.132-0.7a0.214,0.214,0,0,0-.222.156l-0.033-.14a2.921,2.921,0,0,0-2.253-.942c-0.051,0-.056-0.087-0.039-0.194a0.487,0.487,0,0,1-.058-0.314l-0.8-.671L11.262,14Zm-0.2.322,0.023,0.367-0.661-.255Zm-0.123.956-0.594-.089,0.695-.222ZM11.8,18.1l0.14-.6c0.078,0.013.162,0.023,0.25,0.03a2.112,2.112,0,0,0,1.145-.838l-0.019.013c0.016-.024.03-0.048,0,0h0v0a2.543,2.543,0,0,1-1.645.6l-0.128-.02,0,0a0.109,0.109,0,0,1-.078-0.041,0.315,0.315,0,0,1,.011-0.234L11.441,16.9l0.021-.055,0.007,0.007v0.017l0.026,0.117a0.24,0.24,0,0,0,.295-0.134l0.222-.117a1.6,1.6,0,0,1-.461,0c-0.093-.013-0.133,0-0.137.024l-0.032-.047a0.1,0.1,0,0,0,0-.083,0.243,0.243,0,0,1,.215-0.066,0.07,0.07,0,0,0,.047-0.113,0.951,0.951,0,0,0-.316-0.08,0.415,0.415,0,0,0-.177.1,0.152,0.152,0,0,1-.039-0.13,2.962,2.962,0,0,0,.085-0.629,0.444,0.444,0,0,1-.179-0.268l0.2-.478a2.727,2.727,0,0,1,2.152,1.006l0.01,0.165,0.157-.188c0.135-.03.2,0,0.213,0.072a0.759,0.759,0,0,1-.346.426l-0.006,0,0.006,0.1-0.023.047a2.662,2.662,0,0,0,.307,1.2C13.344,17.8,12.862,18.625,11.8,18.1Zm0.4-2.334a0.828,0.828,0,0,0-.784-0.136L11.449,15.9l0-.008c0.085,0.353.436,0.184,0.8-.013l-0.008,0a0.414,0.414,0,0,0,.189-0.153Zm-0.7.194-0.016-.1L11.9,15.9a0.933,0.933,0,0,0-.388-0.056l0.017-.073a0.312,0.312,0,0,1,.214-0.043c0.225,0.016.274,0.126,0.227,0.2l-0.018-.007A0.44,0.44,0,0,1,11.509,15.96Zm-0.364.515,0,0a0.112,0.112,0,0,0,0,.015Zm0.532,1.711c0.961,0.707,1.788-.229,2.66-0.286l0.39,0.5a3.381,3.381,0,0,1-4.126.241l-0.123-.164,1.3-.868Zm0.813,2.086a4.307,4.307,0,0,0,2.264-.649l-1.9,3.873a0.707,0.707,0,0,1,.38.3,0.336,0.336,0,0,1-.076.474,0.367,0.367,0,0,1-.225.073,0.341,0.341,0,0,1-.12.4,0.35,0.35,0,0,1-.485-0.053,0.328,0.328,0,0,1-.013-0.378,0.342,0.342,0,0,1-.367-0.113,0.336,0.336,0,0,1,.077-0.474,1.872,1.872,0,0,1,.261-0.178l-2-3.89A4.3,4.3,0,0,0,12.489,20.272Z"/>
  <path class="cls-1" d="M13.77,8.212a2.131,2.131,0,0,1,1.415.888c0.523,0.579.737,1.121,0.479,1.209a2.131,2.131,0,0,1-1.415-.888C13.726,8.842,13.512,8.3,13.77,8.212Zm-2.406,0A2.131,2.131,0,0,0,9.949,9.1c-0.523.579-.737,1.121-0.479,1.209a2.131,2.131,0,0,0,1.415-.888C11.408,8.842,11.622,8.3,11.364,8.212Z"/>
  <path class="cls-3" d="M20.031,17.031c-0.071.1-.129,0.1-0.165-0.022a6.206,6.206,0,0,0-.469-2.429c-0.056-.216.017-0.29,0.206-0.232A3.31,3.31,0,0,1,20.031,17.031ZM18.94,13.294a5.129,5.129,0,0,0-1.067-2.023c-0.108-.174-0.06-0.271.131-0.3a2.781,2.781,0,0,1,1.1,2.271C19.059,13.364,19.007,13.393,18.94,13.294Zm-0.12.556a9.059,9.059,0,0,1-1.513-2.6,0.094,0.094,0,0,1,.134-0.122A5.538,5.538,0,0,1,19,13.7C19.013,13.871,18.92,13.865,18.821,13.85Zm-0.452-.242c0.177,0.262.08,0.269-.094,0.213a3.125,3.125,0,0,1-1.216-1.934c0.021-.292.143-0.207,0.268-0.108A11.743,11.743,0,0,0,18.369,13.608Zm0.739,4.527-3.268.5a4.106,4.106,0,0,0,.918-2.568c0-.052-0.014-0.1-0.016-0.153Zm-2.883.264,0.963-.665,1.617,0.3-1.527-.581L16.79,16.342l0.154,1.193ZM13.65,12.047l2.867-1.513L16,13.681A4.263,4.263,0,0,0,13.65,12.047Zm1.644-.079-1.174.083,1.113,0.222,0.649,1.019-0.338-1.164,0.809-1.4ZM12.549,22.9l-1.495-2.909a4.116,4.116,0,0,0,2.934-.019Zm-1.056-2.632L12.406,21l0.145,1.61,0.154-1.6,0.956-.763-1.127.47ZM8.934,13.747L8.356,10.606l2.9,1.464A4.261,4.261,0,0,0,8.934,13.747ZM9.6,12.022l-1.1-1.2,0.855,1.372-0.3,1.174,0.615-1.04,1.105-.258ZM9.188,18.69L5.9,18.251l2.324-2.265c0,0.026-.008.051-0.008,0.077A4.108,4.108,0,0,0,9.188,18.69ZM7.725,17.467l-1.5.656,1.6-.381,1,0.616-0.763-.827,0.092-1.2ZM6.358,13.608A11.735,11.735,0,0,0,7.4,11.779c0.125-.1.246-0.184,0.268,0.108a3.124,3.124,0,0,1-1.216,1.934C6.278,13.877,6.181,13.87,6.358,13.608ZM5.83,13.7a5.43,5.43,0,0,1,1.423-2.571,0.094,0.094,0,0,1,.131.122A8.886,8.886,0,0,1,6,13.85C5.907,13.866,5.818,13.872,5.83,13.7Zm-0.043-.4c-0.067.1-.119,0.07-0.16-0.05a2.781,2.781,0,0,1,1.095-2.271c0.191,0.027.239,0.124,0.131,0.3A5.131,5.131,0,0,0,5.787,13.295ZM4.7,17.032a3.309,3.309,0,0,1,.429-2.682c0.189-.057.261,0.016,0.206,0.232a6.206,6.206,0,0,0-.469,2.429C4.825,17.135,4.767,17.129,4.7,17.032Zm1.126-2.683a10.423,10.423,0,0,1-.652,3.118c-0.089.055-.175,0.1-0.211-0.077a6.377,6.377,0,0,1,.7-3.106C5.68,14.244,5.832,14.2,5.822,14.349ZM5.99,14.833c0.092-.151.184-0.287,0.284-0.012a3.851,3.851,0,0,1-.635,2.408c-0.151.13-.246,0.166-0.148-0.165A14.411,14.411,0,0,0,5.99,14.833Zm-0.1,4.961a5.942,5.942,0,0,0,1.735,1.678c0.081,0.1.037,0.133-.093,0.129a3.209,3.209,0,0,1-1.977-1.791C5.63,19.646,5.74,19.635,5.886,19.794ZM5.84,19.413c-0.021-.035.034-0.158,0.156-0.069a10.816,10.816,0,0,1,2.233,2.149c-0.009.087-.026,0.166-0.195,0.093A6.576,6.576,0,0,1,5.84,19.413Zm2.252,1.644a13.519,13.519,0,0,0-1.548-1.589c-0.065-.149-0.117-0.29.182-0.208a3.55,3.55,0,0,1,1.606,1.785C8.339,21.223,8.306,21.31,8.092,21.057Zm0.694,1.279a7.363,7.363,0,0,0,2.306,1.271c0.116,0.077.094,0.127-.024,0.159A3.9,3.9,0,0,1,8.5,22.445C8.491,22.251,8.585,22.211,8.786,22.336Zm0.433-.518c-0.126-.137-0.237-0.269.065-0.265a4.55,4.55,0,0,1,2.241,1.416c0.089,0.183.1,0.283-.207,0.078A17.142,17.142,0,0,0,9.219,21.818Zm-0.542.021a13.448,13.448,0,0,1,2.963,1.624c0.033,0.094.053,0.18-.13,0.15a8.185,8.185,0,0,1-2.94-1.661C8.536,21.922,8.528,21.78,8.677,21.84Zm4.887,1.13A4.55,4.55,0,0,1,15.8,21.554c0.3,0,.191.128,0.065,0.265a17.142,17.142,0,0,0-2.1,1.23C13.465,23.252,13.475,23.153,13.564,22.97Zm2.848-1.13c0.149-.06.141,0.083,0.106,0.114a8.185,8.185,0,0,1-2.94,1.661c-0.183.03-.162-0.056-0.13-0.15A13.446,13.446,0,0,1,16.412,21.84Zm-0.109.5c0.2-.125.295-0.085,0.289,0.109a3.9,3.9,0,0,1-2.571,1.322C13.9,23.734,13.881,23.684,14,23.607A7.362,7.362,0,0,0,16.3,22.336Zm2.061-3.077c0.3-.081.247,0.059,0.182,0.208A13.527,13.527,0,0,0,17,21.057c-0.214.253-.247,0.166-0.239-0.013A3.55,3.55,0,0,1,18.364,19.259Zm0.73,0.085c0.122-.089.177,0.034,0.156,0.069a6.576,6.576,0,0,1-2.195,2.174c-0.169.073-.186-0.006-0.195-0.093A10.814,10.814,0,0,1,19.094,19.345Zm0.11,0.45c0.145-.159.256-0.149,0.335,0.017A3.209,3.209,0,0,1,17.562,21.6c-0.131,0-.174-0.034-0.093-0.129A5.942,5.942,0,0,0,19.2,19.794Zm-0.116-2.565a3.851,3.851,0,0,1-.635-2.408c0.1-.275.192-0.138,0.284,0.013a14.407,14.407,0,0,0,.5,2.23C19.334,17.395,19.239,17.359,19.088,17.229Zm-0.145-2.88a0.081,0.081,0,0,1,.148-0.065,6.9,6.9,0,0,1,.638,3.106c-0.033.174-.111,0.131-0.192,0.077A11.3,11.3,0,0,1,18.943,14.348Z"/>
  <path class="cls-4" d="M1,0H24L18,6H7Z"/>
  <path class="cls-5" d="M2,1L1,0H24L23,1H2ZM21,3H4L3,2H22ZM20,4L19,5H6L5,4H20Z"/>
  <path class="cls-6" d="M7,2.051v3.9a0.666,0.666,0,0,0,.026.327A4.354,4.354,0,0,0,8.6,7.947,1,1,0,0,0,9.045,8h6.927a0.671,0.671,0,0,0,.309-0.023,4.821,4.821,0,0,0,1.71-1.719,0.622,0.622,0,0,0,.022-0.3v-3.9a0.7,0.7,0,0,0-.038-0.392A4.691,4.691,0,0,0,16.348.041,0.908,0.908,0,0,0,15.973.006H9.045a0.909,0.909,0,0,0-.521.067,5.931,5.931,0,0,0-1.486,1.6A0.74,0.74,0,0,0,7,2.051H7Z"/>
  <path class="cls-7" d="M7,4V3h11.01V4H7ZM7.039,1.672A5.405,5.405,0,0,1,7.542,1h9.932c0.181,0.217.353,0.441,0.5,0.658a0.559,0.559,0,0,1,.04.342H7A0.586,0.586,0,0,1,7.039,1.672ZM7,6c0-.016,0-0.033,0-0.049V5h11.01V5.951c0,0.016,0,.032,0,0.049H7Zm8.971,2H9.045A1,1,0,0,1,8.6,7.947,3.483,3.483,0,0,1,7.531,7H17.44a4.337,4.337,0,0,1-1.159.973A0.3,0.3,0,0,1,16.142,8H16.086C16.048,8,16.01,8,15.973,8Z"/>
  <path class="cls-8" d="M14.1,5.007l0.156-.453-0.393-.275,0.479,0.009,0.14-.459,0.139,0.459L15.1,4.279l-0.393.275,0.156,0.453-0.382-.289L14.1,5.007h0Zm-1.935,1,0.156-.453-0.393-.275,0.479,0.009,0.14-.459,0.139,0.459,0.479-.009-0.393.275,0.156,0.453-0.382-.289-0.382.289h0ZM14.2,2.97l0.156-.453-0.393-.275L14.44,2.251l0.14-.459,0.14,0.459L15.2,2.242l-0.393.275L14.962,2.97,14.58,2.681,14.2,2.97h0Zm-4.091.094,0.156-.453L9.87,2.335l0.479,0.009,0.14-.459,0.139,0.459,0.479-.009-0.393.275,0.156,0.453-0.382-.289-0.382.289h0ZM12.152,2l0.156-.453-0.393-.275,0.479,0.009,0.14-.459,0.139,0.459,0.479-.009-0.393.275L12.917,2l-0.382-.289L12.152,2h0ZM12.121,4.01l0.156-.453-0.393-.275L12.364,3.29l0.14-.459,0.14,0.459,0.479-.009-0.393.275L12.886,4.01,12.5,3.721l-0.382.289h0Zm-4,.031L8.28,3.588,7.887,3.313,8.366,3.322l0.14-.459,0.14,0.459,0.479-.009-0.393.275L8.888,4.041,8.506,3.752l-0.382.289h0Zm7.963-.031,0.156-.453-0.393-.275L16.33,3.29l0.14-.459L16.609,3.29l0.479-.009L16.7,3.556,16.852,4.01l-0.382-.289-0.382.289h0Zm0.017,2,0.156-.453-0.393-.275,0.479,0.009,0.14-.459,0.139,0.459L17.1,5.279l-0.393.275,0.156,0.453-0.382-.289L16.1,6.007h0Zm-2,1,0.156-.453-0.393-.275,0.479,0.009,0.14-.459,0.139,0.459L15.1,6.279l-0.393.275,0.156,0.453-0.382-.289L14.1,7.007h0Zm-4-2,0.156-.453L9.868,4.279l0.479,0.009,0.14-.459,0.139,0.459L11.1,4.279l-0.393.275,0.156,0.453-0.382-.289L10.1,5.007h0Zm0,2,0.156-.453L9.868,6.279l0.479,0.009,0.14-.459,0.139,0.459L11.1,6.279l-0.393.275,0.156,0.453-0.382-.289L10.1,7.007h0Zm-2-1L8.26,5.553,7.868,5.279,8.347,5.288l0.14-.459,0.14,0.459L9.1,5.279l-0.393.275L8.868,6.007,8.486,5.718,8.1,6.007h0Z"/>
</svg>
