<svg width="48" height="48" viewBox="0 0 48 48" fill="none" xmlns="http://www.w3.org/2000/svg">
<path opacity="0.5" d="M35 3H13C7.47715 3 3 7.47715 3 13V35C3 40.5228 7.47715 45 13 45H35C40.5228 45 45 40.5228 45 35V13C45 7.47715 40.5228 3 35 3Z" fill="#2B2B2B"/>
<path d="M5 13V35C5 37.1217 5.84285 39.1566 7.34315 40.6569C8.84344 42.1571 10.8783 43 13 43H21V5H13C10.8783 5 8.84344 5.84285 7.34315 7.34315C5.84285 8.84344 5 10.8783 5 13ZM10 25.41C9.72113 25.41 9.44852 25.3273 9.21665 25.1724C8.98477 25.0174 8.80405 24.7972 8.69733 24.5396C8.59061 24.2819 8.56269 23.9984 8.61709 23.7249C8.6715 23.4514 8.80579 23.2002 9.00298 23.003C9.20017 22.8058 9.45141 22.6715 9.72492 22.6171C9.99844 22.5627 10.2819 22.5906 10.5396 22.6973C10.7972 22.8041 11.0174 22.9848 11.1724 23.2166C11.3273 23.4485 11.41 23.7211 11.41 24C11.41 24.374 11.2614 24.7326 10.997 24.997C10.7326 25.2614 10.374 25.41 10 25.41ZM13 28.41C12.7163 28.41 12.4391 28.3256 12.2035 28.1675C11.9679 28.0095 11.7847 27.785 11.677 27.5225C11.5694 27.2601 11.5423 26.9715 11.5991 26.6936C11.6559 26.4157 11.7941 26.1609 11.9961 25.9617C12.1981 25.7626 12.4548 25.628 12.7335 25.5751C13.0122 25.5222 13.3003 25.5534 13.5612 25.6647C13.8222 25.776 14.0441 25.9624 14.1988 26.2002C14.3535 26.4379 14.434 26.7164 14.43 27C14.43 27.3793 14.2793 27.743 14.0112 28.0112C13.743 28.2793 13.3793 28.43 13 28.43V28.41ZM13 22.41C12.7211 22.41 12.4485 22.3273 12.2166 22.1724C11.9848 22.0174 11.804 21.7972 11.6973 21.5396C11.5906 21.2819 11.5627 20.9984 11.6171 20.7249C11.6715 20.4514 11.8058 20.2002 12.003 20.003C12.2002 19.8058 12.4514 19.6715 12.7249 19.6171C12.9984 19.5627 13.2819 19.5906 13.5396 19.6973C13.7972 19.8041 14.0174 19.9848 14.1724 20.2166C14.3273 20.4485 14.41 20.7211 14.41 21C14.41 21.1852 14.3735 21.3685 14.3027 21.5396C14.2318 21.7107 14.128 21.8661 13.997 21.997C13.8661 22.128 13.7107 22.2318 13.5396 22.3027C13.3685 22.3735 13.1852 22.41 13 22.41ZM16 25.41C15.7187 25.41 15.4438 25.3265 15.2101 25.17C14.9763 25.0135 14.7943 24.7911 14.6872 24.5311C14.58 24.271 14.5525 23.985 14.6081 23.7093C14.6637 23.4335 14.7999 23.1806 14.9995 22.9824C15.1991 22.7842 15.453 22.6497 15.7292 22.5961C16.0053 22.5424 16.2911 22.572 16.5504 22.681C16.8097 22.79 17.0307 22.9736 17.1856 23.2084C17.3404 23.4432 17.422 23.7187 17.42 24C17.4174 24.3758 17.2669 24.7355 17.0012 25.0012C16.7355 25.2669 16.3758 25.4174 16 25.42V25.41ZM16 13C16 13.5933 15.8241 14.1734 15.4944 14.6667C15.1648 15.1601 14.6962 15.5446 14.1481 15.7716C13.5999 15.9987 12.9967 16.0581 12.4147 15.9424C11.8328 15.8266 11.2982 15.5409 10.8787 15.1213C10.4591 14.7018 10.1734 14.1672 10.0576 13.5853C9.94189 13.0033 10.0013 12.4001 10.2284 11.8519C10.4554 11.3038 10.8399 10.8352 11.3333 10.5056C11.8266 10.1759 12.4067 10 13 10C13.7956 10 14.5587 10.3161 15.1213 10.8787C15.6839 11.4413 16 12.2044 16 13Z" fill="white"/>
<path d="M35 5H27V43H35C37.1217 43 39.1566 42.1571 40.6569 40.6569C42.1571 39.1566 43 37.1217 43 35V13C43 10.8783 42.1571 8.84344 40.6569 7.34315C39.1566 5.84285 37.1217 5 35 5ZM35 8.57C35.2828 8.57 35.5593 8.65387 35.7945 8.811C36.0296 8.96813 36.2129 9.19146 36.3211 9.45276C36.4294 9.71406 36.4577 10.0016 36.4025 10.279C36.3473 10.5564 36.2112 10.8112 36.0112 11.0112C35.8112 11.2112 35.5564 11.3473 35.279 11.4025C35.0016 11.4577 34.7141 11.4294 34.4528 11.3211C34.1915 11.2129 33.9681 11.0296 33.811 10.7945C33.6539 10.5593 33.57 10.2828 33.57 10C33.57 9.62074 33.7207 9.25701 33.9888 8.98884C34.257 8.72066 34.6207 8.57 35 8.57ZM35 14.57C35.278 14.57 35.5498 14.6522 35.7812 14.8063C36.0127 14.9604 36.1934 15.1794 36.3006 15.4359C36.4079 15.6924 36.437 15.9749 36.3842 16.2478C36.3314 16.5208 36.1991 16.772 36.0039 16.97C35.8087 17.1679 35.5593 17.3038 35.2871 17.3604C35.0149 17.4171 34.7321 17.392 34.4741 17.2883C34.2162 17.1847 33.9946 17.0071 33.8373 16.7778C33.68 16.5486 33.5939 16.278 33.59 16C33.59 15.626 33.7386 15.2674 34.003 15.003C34.2674 14.7386 34.626 14.59 35 14.59V14.57ZM32 11.57C32.278 11.57 32.5498 11.6522 32.7812 11.8063C33.0127 11.9604 33.1934 12.1794 33.3006 12.4359C33.4079 12.6924 33.437 12.9749 33.3842 13.2478C33.3314 13.5208 33.1991 13.772 33.0039 13.97C32.8087 14.1679 32.5593 14.3038 32.2871 14.3604C32.0149 14.4171 31.7321 14.392 31.4741 14.2883C31.2162 14.1847 30.9946 14.0071 30.8373 13.7778C30.68 13.5486 30.5939 13.278 30.59 13C30.59 12.626 30.7386 12.2674 31.003 12.003C31.2674 11.7386 31.626 11.59 32 11.59V11.57ZM35 27C34.4067 27 33.8266 26.8241 33.3333 26.4944C32.8399 26.1648 32.4554 25.6962 32.2284 25.1481C32.0013 24.5999 31.9419 23.9967 32.0576 23.4147C32.1734 22.8328 32.4591 22.2982 32.8787 21.8787C33.2982 21.4591 33.8328 21.1734 34.4147 21.0576C34.9967 20.9419 35.5999 21.0013 36.148 21.2284C36.6962 21.4554 37.1648 21.8399 37.4944 22.3333C37.8241 22.8266 38 23.4067 38 24C38 24.7956 37.6839 25.5587 37.1213 26.1213C36.5587 26.6839 35.7956 27 35 27ZM38 14.41C37.7211 14.41 37.4485 14.3273 37.2166 14.1724C36.9848 14.0174 36.8041 13.7972 36.6973 13.5396C36.5906 13.2819 36.5627 12.9984 36.6171 12.7249C36.6715 12.4514 36.8058 12.2002 37.003 12.003C37.2002 11.8058 37.4514 11.6715 37.7249 11.6171C37.9984 11.5627 38.2819 11.5906 38.5396 11.6973C38.7972 11.804 39.0174 11.9848 39.1724 12.2166C39.3273 12.4485 39.41 12.7211 39.41 13C39.41 13.374 39.2614 13.7326 38.997 13.997C38.7326 14.2614 38.374 14.41 38 14.41Z" fill="white"/>
</svg>
