<svg id="Group_4074" data-name="Group 4074" xmlns="http://www.w3.org/2000/svg" xmlns:xlink="http://www.w3.org/1999/xlink" width="26.156" height="30" viewBox="0 0 26.156 30">
  <defs>
    <clipPath id="clip-path">
      <rect id="Rectangle_4308" data-name="Rectangle 4308" width="26.156" height="30" fill="#fafafa"/>
    </clipPath>
  </defs>
  <g id="Group_3327" data-name="Group 3327" clip-path="url(#clip-path)">
    <path id="Path_1665" data-name="Path 1665" d="M25.4,2.487a2.961,2.961,0,0,0-2.2-.978H20.69c-.012-.488-.028-.987-.052-1.508H5.518c-.024.522-.04,1.021-.051,1.508H2.957A2.958,2.958,0,0,0,.016,4.774L1.205,16.132A2.951,2.951,0,0,0,2.767,18.44s8.023,4.342,8.171,4.461a2.323,2.323,0,0,1,.672,2.744,5.729,5.729,0,0,1-5.279,3.277V30H19.824V28.923a5.729,5.729,0,0,1-5.279-3.277,2.323,2.323,0,0,1,.673-2.744c.148-.12,8.171-4.461,8.171-4.461a2.952,2.952,0,0,0,1.561-2.308L26.14,4.774A2.963,2.963,0,0,0,25.4,2.487M3.562,16.932h0a1.251,1.251,0,0,1-.661-.977L1.711,4.6A1.253,1.253,0,0,1,2.957,3.213H5.446c0,1.488.051,2.766.11,3.78.293,5.033.564,8.981,2.3,12.2Zm12.471-2.214-2.955-1.554-2.955,1.554.564-3.291L8.3,9.1l3.3-.48,1.478-2.994,1.478,2.994,3.3.48-2.39,2.33ZM24.444,4.6,23.255,15.954a1.25,1.25,0,0,1-.661.977h0L18.3,19.2c1.735-3.223,2.006-7.171,2.3-12.2.059-1.013.109-2.292.11-3.78H23.2A1.253,1.253,0,0,1,24.444,4.6" transform="translate(0)" fill="#fafafa"/>
  </g>
</svg>
