<svg id="jg52_2" xmlns="http://www.w3.org/2000/svg" width="150" height="150" viewBox="0 0 150 150">
  <defs>
    <style>
      .cls-1 {
        fill: #ce2626;
      }

      .cls-1, .cls-2 {
        fill-rule: evenodd;
      }

      .cls-2 {
        fill: #151515;
      }
    </style>
  </defs>
  <path class="cls-1" d="M145.363,75A70.363,70.363,0,1,1,75,4.637,70.364,70.364,0,0,1,145.363,75Z"/>
  <path class="cls-2" d="M75,148.5A73.5,73.5,0,0,1,23.028,23.028,73.5,73.5,0,1,1,126.972,126.972,73.015,73.015,0,0,1,75,148.5ZM75,7.774A67.226,67.226,0,1,0,142.226,75,67.3,67.3,0,0,0,75,7.774Z"/>
  <path class="cls-2" d="M116.634,64.29l-5.207,2.116-13.586,50.07a47.5,47.5,0,0,0,12.007-2.082l0.792,1.949c-1.305.664-2.63,1.271-3.939,1.8-25.43,10.334-54.52-1.655-65.813-26.749l-6.556,2.664,2.229,5.486-9.838-4.171,4.14-9.851,2.229,5.486,6.543-2.659c-9.8-26,2.679-55.22,28.291-65.628,1.313-.534,2.686-1.024,4.08-1.456l0.792,1.95a47.482,47.482,0,0,0-10.334,7.136l45.161,26.7,5.207-2.116-0.753,5.757ZM60.565,32.167a49.751,49.751,0,0,0-11.128,52.2L98.817,64.3l0.508-3.879,5.355-2.176Zm42.562,37.611-3.07-2.426L50.69,87.413a49.753,49.753,0,0,0,44.52,29.1L108.482,67.6Z"/>
</svg>
