<svg id="_75_regiment_icon" data-name="75_regiment_icon" xmlns="http://www.w3.org/2000/svg" width="150" height="150" viewBox="0 0 150 150">
  <defs>
    <style>
      .cls-1 {
        fill: #eee;
      }

      .cls-1, .cls-2 {
        fill-rule: evenodd;
      }

      .cls-2 {
        fill: #151515;
      }
    </style>
  </defs>
  <path class="cls-1" d="M126.945,124.493l-1.86-2.13a27.027,27.027,0,0,0-7.349-5.487,32.989,32.989,0,0,0-3.914-1.757L78.448,3.628A3.5,3.5,0,0,0,75.06,1.006H74.941a3.5,3.5,0,0,0-3.388,2.622L36.179,115.118a33.213,33.213,0,0,0-3.918,1.758,27,27,0,0,0-7.348,5.488l-1.857,2.126a3.485,3.485,0,0,0-.353,4.124,3.59,3.59,0,0,0,3.829,1.576l2.731-.674a51.429,51.429,0,0,1,10.816-1.153A33.848,33.848,0,0,1,51.436,130.1a54.624,54.624,0,0,1,13.829,7.114v3.35a8.442,8.442,0,0,0,8.432,8.433h2.6a8.442,8.442,0,0,0,8.432-8.433v-3.35A54.626,54.626,0,0,1,98.561,130.1a33.857,33.857,0,0,1,11.358-1.734,50.928,50.928,0,0,1,10.806,1.151l2.747,0.68a3.542,3.542,0,0,0,3.825-1.576A3.489,3.489,0,0,0,126.945,124.493Z"/>
  <path class="cls-2" d="M121.563,126.116a54.521,54.521,0,0,0-11.645-1.252A37.676,37.676,0,0,0,97.382,126.8c-9.549,3.417-14.9,7.651-16.15,8.707v5.053a4.937,4.937,0,0,1-4.932,4.932H73.7a4.937,4.937,0,0,1-4.932-4.932v-5.053c-1.244-1.055-6.6-5.289-16.15-8.707a37.674,37.674,0,0,0-12.536-1.938,54.511,54.511,0,0,0-11.645,1.252l-2.743.677,1.858-2.128a23.7,23.7,0,0,1,6.353-4.7,31.96,31.96,0,0,1,15.06-3.612c1.141,0,2.329.054,3.563,0.173C66.114,117.837,73.012,125.19,75,127.706c1.987-2.516,8.885-9.869,22.473-11.177,1.234-.119,2.423-0.174,3.564-0.174a31.954,31.954,0,0,1,15.059,3.613,23.7,23.7,0,0,1,6.353,4.7l1.861,2.131Zm-6.709-3.985a29.576,29.576,0,0,0-13.819-3.282c-1.091,0-2.209.054-3.323,0.162-14.378,1.384-20.548,9.881-21.2,10.845a1.825,1.825,0,0,1-3.016,0c-0.656-.964-6.826-9.461-21.2-10.845-1.114-.108-2.232-0.162-3.324-0.162a29.579,29.579,0,0,0-13.818,3.282q-0.494.261-.974,0.54,1.027-.105,2.058-0.177c1.261-.086,2.53-0.13,3.773-0.13a40.021,40.021,0,0,1,13.454,2.09c11.465,4.1,17.063,9.263,17.3,9.481l0.282,0.263,0.226,0.212v6.152A2.442,2.442,0,0,0,73.7,143h2.6a2.442,2.442,0,0,0,2.439-2.439V134.41l0.226-.212,0.282-.263c0.233-.218,5.83-5.377,17.295-9.481A40.021,40.021,0,0,1,110,122.364c1.241,0,2.511.044,3.773,0.131q1.029,0.07,2.058.176Q115.348,122.392,114.854,122.131ZM89.97,115.9L75,64,60.29,115.974c-5.322-1.585-12.155-2.2-20.612-.34L74.941,4.506h0.119l35.262,111.128A40.853,40.853,0,0,0,89.97,115.9Z"/>
</svg>
