<svg id="Layer_1" data-name="Layer 1" xmlns="http://www.w3.org/2000/svg" width="150" height="150" viewBox="0 0 150 150">
  <defs>
    <style>
      .cls-1 {
        fill: #c1272d;
      }

      .cls-2 {
        fill: #151515;
      }

      .cls-3 {
        fill: #c6a453;
      }
    </style>
  </defs>
  <g id="Layer_6" data-name="Layer 6">
    <g>
      <path class="cls-1" d="M74.80114,144.1488c-4.54132-5.96049-20.15266-9.93246-40.30423-16.46228-18.39456-5.96049-17.03-24.97728-17.03-24.97728V15.57264C34.21308,6.20617,74.80114,5.85138,74.80114,5.85138h.33839s40.58805.35479,57.33418,9.72126v87.13661s2.27066,19.01678-17.03,24.97727c-20.23993,6.25057-35.76291,10.5018-40.30423,16.4623Z"/>
      <path class="cls-2" d="M75.13947,146.50612h-.33824a2.35759,2.35759,0,0,1-1.875-.92865c-3.31012-4.3443-14.74253-7.93883-29.21659-12.48963-3.18545-1.0016-6.47892-2.03721-9.93956-3.15852a25.59876,25.59876,0,0,1-16.90689-16.17587,30.45321,30.45321,0,0,1-1.75352-11.11507V15.57266a2.35746,2.35746,0,0,1,1.20668-2.0574C33.39288,3.96387,73.09871,3.50876,74.78069,3.49388h.35878c1.70253.01488,41.40834.47,58.48489,10.02138a2.35748,2.35748,0,0,1,1.20666,2.0574v87.01509a28.58917,28.58917,0,0,1-1.39968,11.12462c-1.85871,5.54035-6.36737,12.85265-17.29188,16.22687q-3,.92652-5.85593,1.79779c-16.55767,5.0686-29.63557,9.07182-33.269,13.84044A2.35765,2.35765,0,0,1,75.13947,146.50612ZM19.82445,16.9929v85.71631c0,.05632-.00213.11264-.006.16859-.0464.69666-.95663,17.26425,15.40518,22.56624,3.44081,1.11495,6.72437,2.14737,9.90025,3.14577,14.0703,4.42437,24.67855,7.75928,29.84276,12.31714,5.63173-5.0137,17.77675-8.73147,33.93667-13.67823q2.84758-.8718,5.84495-1.7946c7.23792-2.2352,12.02-6.68364,14.213-13.22135a23.53385,23.53385,0,0,0,1.17161-9.22413,2.37473,2.37473,0,0,1-.01664-.27944V16.9929c-16.73155-8.35251-54.60736-8.78106-54.9973-8.78425h-.31771C74.43112,8.2122,36.54823,8.64464,19.82445,16.9929Z"/>
      <g>
        <path class="cls-3" d="M114.8761,54.59962a10.53167,10.53167,0,0,1-3.97367-6.95389c1.703-.99342,3.68984.85148,3.68984.85148,2.12872-.85148,3.83173-3.406,2.6964-5.39282s-6.10241-4.82515-8.6569.28385-.8515,8.373,3.68982,12.77243,6.95392,8.37309,6.52816,8.65691-2.69641.28387-5.67665-1.56107-6.95389-8.37307-9.65031-10.07605-16.6042-1.98683-16.6042-1.98683c6.24431-2.12875,8.94072-5.53473,8.94072-5.53473,7.23774-2.83834,6.812-4.54132,6.812-4.54132,8.6569-1.27727,12.2048-5.67667,12.2048-5.67667,6.24432-4.82515,7.52156-9.50838,7.52156-9.50838-24.40961-2.12874-51.23178,5.39282-51.23178,5.39282-1.56109-5.67667-9.36648-9.08265-9.36648-9.08265-13.482-2.27066-21.57128,3.12216-24.97727,6.95391s-.83745,7.02446-.83745,7.02446a8.118,8.118,0,0,0-3.70387,4.75459C29.72632,48.63914,38.809,51.61937,38.809,51.61937c0,5.53476,1.84492,9.65031,3.08411,10.331s2.45062-.96451,2.45062-.96451c-.56767,2.83836.853,6.638.853,6.638L40.0862,65.52717c-3.12216-1.41918-4.3994,1.8449-4.3994,1.8449l-1.41916.42576c-3.97366.5677-1.73012,2.44739-1.73012,2.44739L30.294,71.6296l4.96708,25.403L47.7497,94.7619l-.5677,2.9803s8.23113.42572,9.22455-.28386a8.4755,8.4755,0,0,0,1.56107-1.41919,10.88684,10.88684,0,0,1,2.5545-.14189c.85151.14189.70957-1.13535.70957-1.13535s.56768-1.41913.8515-2.27061.56768-5.109,1.13533-6.67009,3.97367-6.67009,4.11558-7.52157a13.925,13.925,0,0,0-.14191-2.83831,37.261,37.261,0,0,0,17.03-5.109s.14191,1.84491,3.12214,5.109S96.14315,80.996,96.14315,80.996v1.70305s-.42576,3.12214-.99342,3.83173-4.68325,3.83172-4.68325,3.83172c-3.406-.42572-5.39283,1.56108-5.67665,2.69642s-2.1356,5.3325-2.1356,5.3325l11.02982-.409c1.65647-4.443,7.71-10.45825,8.56149-11.0259s2.27066-3.97367,2.27066-3.97367a19.322,19.322,0,0,1-1.703-2.55448c-.28383-.70959.70957-1.703.70957-1.703,1.56109,1.98684,5.67668,3.406,5.67668,3.406a19.887,19.887,0,0,1,3.12214,3.406c.70958,1.27729-.14191,6.67008-.14191,6.67008-2.12875-.85148-3.12217.42578-3.83173,1.27726s-3.3637,5.28357-3.3637,5.28357,8.33075-.45839,8.75651-.60032a10.34336,10.34336,0,0,0,3.26407-1.703c.56766-.70958.14192-16.88807.14192-16.88807-4.96708-8.08921-5.53474-11.921-5.53474-11.921a7.66764,7.66764,0,0,0,7.23772,1.561,3.31135,3.31135,0,0,0,2.55451-3.68979C121.26233,63.25651,118.70783,57.86371,114.8761,54.59962ZM56.54849,84.11821c-.28383,1.27724-1.98683,4.54131-3.406,5.53473s-2.12874.56765-2.12874.56765L47.89159,69.3589s7.66348,7.6635,7.94733,8.08927A22.86008,22.86008,0,0,1,56.54849,84.11821Z"/>
        <rect class="cls-3" x="31.00356" y="98.59368" width="89.40727" height="13.0563"/>
        <g>
          <g>
            <path class="cls-2" d="M59.68075,50.08053c-.00747-.01267-.01168.02533.00962.063l-.00144-.01669Z"/>
            <path class="cls-2" d="M62.37721,41.75193a.34257.34257,0,0,0-.55517.3524,9.79139,9.79139,0,0,1,.59083,1.93789,5.17422,5.17422,0,0,1-.09394,1.99068,5.04537,5.04537,0,0,1-.80057,1.76889,5.39352,5.39352,0,0,1-.70047.77128c-.12161.11325-.24033.22085-.3468.33715a1.98562,1.98562,0,0,0-.43382-.37841.52712.52712,0,0,0-.69284.74821,2.92461,2.92461,0,0,1,.15817.27524c.00641.01191.03043.04553.05016.07743a.16694.16694,0,0,0,.00909.02921c.01326.03706.0286.073.04115.11037a2.662,2.662,0,0,1,.07755.307l.00019.00128a.07664.07664,0,0,1,.00678.02995l.00141.01632a.10926.10926,0,0,0,.008.03007l-.0066-.01338c.00563.05533.01209.1104.01434.16614q.00324.08016.00075.16042l-.002.0402a2.15749,2.15749,0,0,0-.06285.3316c-.0019.007-.01345.05724-.02612.10213l-.01607.03433c-.01117.02424-.02118.049-.03245.07325a2.99527,2.99527,0,0,1-.15772.27869c-.01286.01567-.02514.032-.03811.04746q-.05076.06054-.10634.11664c-.01851.01863-.03781.03645-.05674.05469-.02322.02241-.0856.04866-.01556.0153l.01638-.00793a.3533.3533,0,0,0-.03526.01957c-.02725.01873-.05379.03839-.08157.05634-.04425.0286-.09076.052-.13625.07787-.02526.00788-.05.01977-.07493.02851-.05567.01951-.11188.03434-.16888.04926-.00867.00228-.027.00522-.04236.00763l-.03762.00368c-.05771.00531-.11573.00777-.17368.0075-.02907-.00013-.05791-.0019-.08691-.00243-.09436-.00166-.02344.00347.01091.00411a1.04615,1.04615,0,0,1-.369-.08467l-.04155-.01421-.02375-.01016c-.053-.02621-.10738-.04912-.15976-.07683q-.07839-.04156-.15351-.089c-.025-.01583-.04923-.03281-.07409-.04883.117.07537-.00354-.00534-.02235-.0205a2.95341,2.95341,0,0,1-.28872-.273c-.02-.02117-.03887-.04352-.05895-.06462.09065.0951-.00359-.00717-.018-.02678-.039-.05289-.07367-.108-.10847-.16361-.03845-.06152-.08181-.11719-.12225-.17722-.01021-.01514-.06347-.11464-.06718-.11637a1.64677,1.64677,0,0,0-.10515-.239c.001.00166-.05731-.07251-.06572-.0821-.01771-.02375-.0354-.0475-.0522-.072a.299.299,0,0,0-.50851.01954.84785.84785,0,0,0-.15391.50663,2.07925,2.07925,0,0,0,.06329.51508,2.16708,2.16708,0,0,0,.57263.89876,2.81563,2.81563,0,0,0,1.83492.79335c.04624.00217.09233-.001.13852-.002l-.00734.02849q-.01314.0465-.02879.09224c-.02434.05953-.05128.11794-.08033.17532q-.04482.08855-.09621.1733-.02533.04263-.05276.0839.04178-.05392.00124-.00064a1.78066,1.78066,0,0,1-.5216.50175c-.05519.03581-.11245.06778-.16957.10035a.30376.30376,0,0,0-.04038.02518.52124.52124,0,0,0-.05027.01643,2.353,2.353,0,0,1-.35552.10571c-.01857.00008-.12328.012-.12226.01192-.06552.00456-.13149.00615-.19714.00488a.96972.96972,0,0,1-.29394-.03922,1.86227,1.86227,0,0,1-.64719-.267,2.20123,2.20123,0,0,1-.46977-.41385c-.17319-.21817-.3092-.54558-.5727-.66521-.01645-.01431-.03356-.02786-.04981-.04264a.344.344,0,0,0-.56209.17174c-.01588.05407-.02987.10774-.04244.16262-.24084.65909.60819,1.45553,1.08882,1.78581.02524.01731.05247.03219.07832.04874a.44531.44531,0,0,0-.28589.22358l-.02094-.01612a2.62056,2.62056,0,0,0-.12958,1.52632q.0324.83143.037,1.66369c.00609,1.10888-.02038,2.2201-.06926,3.32787-.04748,1.07643-.10047,2.15493-.186,3.2291-.04383.55048-.09478,1.10086-.15913,1.64939a13.92821,13.92821,0,0,0-.202,1.72705.34748.34748,0,0,0,.679.09191,9.21017,9.21017,0,0,0,.38472-1.70233c.10222-.543.1996-1.08652.28573-1.63227.17625-1.11667.31579-2.23436.38578-3.36285.06878-1.1091.08591-2.217.06134-3.32787q-.01938-.87612-.06962-1.75122a2.8402,2.8402,0,0,0-.26279-1.40811,2.868,2.868,0,0,0,1.52935.21848,3.127,3.127,0,0,0,2.62521-3.06009,2.27114,2.27114,0,0,0,.23437-.22423,2.8882,2.8882,0,0,0,.69443-1.75029,2.40749,2.40749,0,0,0-.04144-.62612,3.194,3.194,0,0,0,1.54918-1.37477,6.10322,6.10322,0,0,0,.94151-2.17825C63.714,44.78309,63.57667,42.8487,62.37721,41.75193Z"/>
          </g>
          <path class="cls-2" d="M59.89885,53.83453a.2195.2195,0,0,0-.0456-.10957.38754.38754,0,0,0-.04226-.04726l-.05855-.05538c-.03809-.036-.07606-.07186-.11594-.10592l-.23938-.20436a.21385.21385,0,0,0-.13395-.05678c-.00542-.01076-.00872-.02278-.01476-.03312a.7021.7021,0,0,0-.93814-.246,12.51877,12.51877,0,0,1-2.87606,1.02255,1.897,1.897,0,0,1-1.15023-.13911c-.03309-.01525-.06519-.03417-.0975-.05226a2.26183,2.26183,0,0,0,1.29364-1.3027.77872.77872,0,0,0,.46995.06438.91418.91418,0,0,0,.62525-.45148,1.88776,1.88776,0,0,0,.241-.55484,2.61139,2.61139,0,0,0-.437-2.119c-.02734-.03547-.05618-.068-.08546-.09977a1.73776,1.73776,0,0,0,1.256-1.38542.60147.60147,0,0,0-.07236-.42545.55543.55543,0,0,0-1.0092.17153,1.15032,1.15032,0,0,1-.03706.19193l-.00057.0018a.797.797,0,0,0-.03414.07471c-.01346.02554-.02882.04989-.04336.0748a1.63835,1.63835,0,0,1-.10953.12236l-.00872.008c-.02116.01421-.043.033-.06189.04558q-.04075.02709-.08359.0509l-.003.00159c-.04746.00757-.1088.04425-.15418.05676l-.02977.00836c.05509-.01624-.0317.00246-.05386.00381-.02658.00159-.05324.00279-.07989.00281l-.01844-.00055-.0172-.00357a.5916.5916,0,0,0-.34906-.14237c-.0056-.00388-.00626-.00363-.00314-.00023l-.00135-.00008-.01368-.01213c-.02453-.02068-.04843-.04186-.07309-.06236-.049-.04062-.09505-.08175-.14015-.12659l-.00874-.00821-.00449-.00679c-.01811-.026-.03637-.05125-.05244-.07868l-.02132-.0409c-.00693-.01942-.02543-.06665-.02794-.07394a.353.353,0,0,0-.686.11985,1.49036,1.49036,0,0,0,.42138,1.00787,8.74228,8.74228,0,0,1,.03738.88988c-.0019.08633-.00692.17238-.01246.25851l-.00192.02395q-.00714.06309-.01587.126c-.01884.13556-.04735.26953-.07708.40314a.30238.30238,0,0,0-.1579.19723,1.49712,1.49712,0,0,0-.06167.31353.50932.50932,0,0,0,.03121.14614l-.01244.03493-.0199.0501c-.03418.07916-.06722.15858-.104.23661a7.31845,7.31845,0,0,1-.52074.89.52215.52215,0,0,0-.07417.35739,2.27032,2.27032,0,0,1-2.47046-1.43,4.69743,4.69743,0,0,1-.30193-.84011.43859.43859,0,0,0,.15811-.06554.62979.62979,0,0,0,.23239-.3275c-.06079.1633-.00153.00821.01675-.03323q.03242-.07344.06911-.14483a2.82671,2.82671,0,0,1,.1544-.26464l.02238-.03325c.02955-.03765.0583-.0759.08892-.11278a2.96623,2.96623,0,0,1,.20785-.22543q.05228-.05112.107-.09961l.00575-.00536.02245-.01808c.08046-.0632.16518-.12064.24715-.18183a2.853,2.853,0,0,1,.24216-.16228c.04549-.0272.0939-.05038.1384-.079a.52671.52671,0,0,0,.11249-.09786.74461.74461,0,0,0,.22312-.17231.4145.4145,0,0,0,.09621-.33715.37039.37039,0,0,0-.20037-.28232.66243.66243,0,0,0-.31493-.049c-.04276.00423-.08527.01054-.12774.01687a.84581.84581,0,0,0-.37481.07752,4.24065,4.24065,0,0,0-.386.18455,2.69952,2.69952,0,0,0-.59446.48161,3.22536,3.22536,0,0,0-.45385.5833,5.024,5.024,0,0,1-2.16091-3.00477,5.21366,5.21366,0,0,1-.09042-2.27558.35639.35639,0,0,0,.07435-.36307,7.24812,7.24812,0,0,1,.40113-1.20988l.00456-.01426c.065-.0031.13-.00812.19621-.01324.35643-.02753.7914-.00261,1.00477-.3466a.374.374,0,0,0-.0576-.44633c-.28281-.28252-.71716-.15085-1.06755-.09655a2.72953,2.72953,0,0,0-.38824.077l-.39209.12011a.34716.34716,0,0,0-.24761.37927.32757.32757,0,0,0,.08354.17488,4.45671,4.45671,0,0,0-.44766,1.00878,6.54526,6.54526,0,0,0-3.58261.73885,5.84484,5.84484,0,0,0-2.74558,3.00825c-.13.31783.38658.52363.54895.23143a6.09773,6.09773,0,0,1,5.602-3.1207,6.21419,6.21419,0,0,0,.0066,1.54595.56518.56518,0,0,0-.57458-.04436,4.40452,4.40452,0,0,0-1.18425,1.28459,14.18093,14.18093,0,0,0-.98662,1.417,10.653,10.653,0,0,0-1.27069,3.143.26091.26091,0,0,0,.50273.1386,14.30374,14.30374,0,0,1,1.49433-2.857,10.53319,10.53319,0,0,1,.95539-1.20943,12.12007,12.12007,0,0,0,1.19151-1.15172c.01011.04223.01618.086.02711.12784a6.11893,6.11893,0,0,0,2.2961,3.3997.86015.86015,0,0,0,.00546.203c.03608.21571.0752.43092.125.644a5.701,5.701,0,0,0,.36728,1.08871,3.78347,3.78347,0,0,0,1.54128,1.75571,2.96327,2.96327,0,0,0,.6278.26453,1.1472,1.1472,0,0,0,.19643.39256.4071.4071,0,0,0-.02891.09014,20.64275,20.64275,0,0,0-.047,2.953q.01464,1.47769-.04281,2.95483c-.03666.95433-.07779,1.90781-.14878,2.86036-.03767.50576-.08836,1.01011-.13221,1.51534-.03575.41181-.07916.78011.27249,1.05013a.29134.29134,0,0,0,.29175,0c.39814-.17373.41171-.67073.45839-1.05013.0584-.47446.10725-.95025.15241-1.42613.09587-1.01042.17379-2.02451.20661-3.039q.04784-1.47693.02351-2.95488a17.37861,17.37861,0,0,0-.12675-2.20742,2.78109,2.78109,0,0,0,1.77.3805,11.8358,11.8358,0,0,0,3.594-1.185.57337.57337,0,0,0,.295-.35752l.0244.02835c.03327.0387.06818.07555.10337.1125l.05556.05837c.00879.00921.01736.01864.02685.02712a.2824.2824,0,0,0,.10222.05959.48864.48864,0,0,0,.0736.00958.21873.21873,0,0,0,.15628-.06472.21343.21343,0,0,0,.06472-.15628Z"/>
          <path class="cls-2" d="M60.61923,35.98249a2.87468,2.87468,0,0,0-3.08386-.75913,3.31619,3.31619,0,0,0-2.03069,2.57191A2.91584,2.91584,0,0,0,56.748,40.57434a.58013.58013,0,0,0-.009.33619,27.729,27.729,0,0,1,.65341,3.33237q.111.84938.17143,1.70432a6.2184,6.2184,0,0,0,.22866,1.72919.58314.58314,0,0,0,1.11389-.04281,4.77911,4.77911,0,0,0,.00124-1.86992c-.068-.58276-.15558-1.1627-.25677-1.7406-.12967-.74053-.29012-1.47423-.475-2.202a.32325.32325,0,0,0,.16743-.1988q.01914-.055.00409-.0187.00888-.02252.01923-.04443c.01286-.02721.02713-.05358.04179-.07981a.70253.70253,0,0,0,.09941-.11659c.02447-.0312.10613-.14865.15348-.16622h.002c-.04142.03342-.05233.0424-.02606.02151l.02821-.02153c.029.0006.05785-.001.08683-.00128a.48278.48278,0,0,0,.198.18175.40862.40862,0,0,0,.02081.15586l.05917.12644a.54109.54109,0,0,0,.20042.18558.69428.69428,0,0,0,.29964.10584l-.00155-.00015.00347.00049.00375.00063.01558.00587a.4421.4421,0,0,0,.233.00148.79973.79973,0,0,0,.111-.02254l.01753-.008a.67394.67394,0,0,0,.064.15511.615.615,0,0,0,.47919.28753.60746.60746,0,0,0,.46792-.14414.67172.67172,0,0,0,.23285-.51218,1.89049,1.89049,0,0,0-.73754-1.57422.42256.42256,0,0,0-.55829-.45785c-.01628.00634-.03309.01009-.04934.016a1.22944,1.22944,0,0,0-.62329.0563c-.08909.02724-.18008.0464-.26991.07065l-.01036.00308-.00107-.00009c-.064-.00034-.13133.01563-.19567.01948-.09406.00563-.18739.00166-.28143.0016l-.02906-.00161c-.034-.00432-.068-.00851-.10179-.014a2.81994,2.81994,0,0,1-.27756-.05958c-.04568-.01225-.09047-.02768-.13606-.04l-.03147-.00783-.02337-.01084a3.00292,3.00292,0,0,1-.474-.255c-.01656-.01241-.03814-.02857-.0476-.03675-.03531-.03061-.07194-.05953-.10662-.091q-.04137-.03748-.08108-.07694c-.01265-.01257-.089-.10238-.103-.11525a1.92168,1.92168,0,0,1-.12037-.17983c-.01818-.03149-.03506-.06378-.05155-.09622-.00574-.01337-.01268-.02951-.01514-.037-.03149-.09557-.06277-.1895-.0893-.28668l-.01129-.038L56.729,38.463c-.00419-.06112-.011-.12168-.01264-.18305-.00138-.051.00021-.10175.00133-.15275.00027-.01263.00373-.043.00637-.06539a2.67113,2.67113,0,0,1,.056-.28165c.01048-.03977.02356-.07861.03427-.11826l.01059-.04209.01738-.03765a3.16035,3.16035,0,0,1,.15186-.30515c.01417-.02463.1045-.16077.10615-.16792a2.68214,2.68214,0,0,1,.18841-.22409c.04259-.0453.08821-.0871.13193-.13118l.03092-.02822a2.34487,2.34487,0,0,1,.28782-.2006c.03513-.02086.07194-.039.10695-.06l.03831-.024.03326-.01251A2.55275,2.55275,0,0,1,58.207,36.33c.02544-.00672.05124-.01221.077-.018.00781.00088.11347-.01543.12086-.016a2.02668,2.02668,0,0,1,.27119-.0022c.028.00422.09961.01223.10683.01354.03907.00714.07808.01541.11668.02469.058.014.11454.03151.17158.04877l.025.00936a2.47319,2.47319,0,0,1,.26058.12822c.04331.02472.08554.05107.12749.07806l.01874.01213c.02462.01854.04922.03716.07318.05655a2.20672,2.20672,0,0,1,.70118.95836c.03375.09429.05818.19047.0842.287l.00952.03333.0054.04653c.01064.07974.02565.15858.03838.23793.00021.005.00906.07136.01032.08739.00542.06913.01082.13757.01207.207.00208.11684.00119.234-.00806.35045-.03725.46882.65495.563.853.19618A2.70862,2.70862,0,0,0,60.61923,35.98249Z"/>
          <path class="cls-2" d="M47.7553,48.6293c-.898,1.41064-1.79106,2.82234-2.65992,4.25115L43.83563,54.952c-.22388.36817-.438.74156-.65259,1.11515a1.23925,1.23925,0,0,0-.291,1.1304.333.333,0,0,0,.5051.26458,1.96912,1.96912,0,0,0,.497-.2968,2.55314,2.55314,0,0,0,.32874-.54279c.21446-.37344.429-.74636.634-1.12507l1.15261-2.12879c.79435-1.46711,1.56178-2.9465,2.32567-4.42968a.32892.32892,0,0,0-.57986-.3097Z"/>
          <path class="cls-2" d="M48.77778,53.53605c-.07071-.16043-.237-.34194-.43835-.3079a.93873.93873,0,0,0-.66489.32142,4.76927,4.76927,0,0,0-.31527.49275,9.97393,9.97393,0,0,1-.57991.84478,11.928,11.928,0,0,1-1.45428,1.57554,11.09222,11.09222,0,0,1-1.66695,1.23548,13.96736,13.96736,0,0,0-1.8217,1.19965c-.2751.23391-.008.67422.3063.6659,1.53173-.04066,2.97691-1.16655,4.08157-2.13285a11.98011,11.98011,0,0,0,1.54327-1.62862c.24045-.307.46829-.62559.68145-.95211C48.7172,54.43931,48.9977,54.03477,48.77778,53.53605Z"/>
          <path class="cls-2" d="M65.69342,57.73979A11.251,11.251,0,0,0,64.5,55.1829a6.668,6.668,0,0,0-1.94815-2.13014c-.28922-.18161-.63623.21044-.447.48273.32294.4646.70916.88106,1.03865,1.34214a12.51649,12.51649,0,0,1,.90752,1.45322,9.91968,9.91968,0,0,1,.63532,1.5106q.13815.41963.24061.84987c.02478.10405.04651.20879.06807.31354a.48258.48258,0,0,0-.20584.19444.59476.59476,0,0,0,.56189.869C66.50045,60.00375,65.88945,58.352,65.69342,57.73979Z"/>
          <g>
            <path class="cls-2" d="M58.54974,30.852c.01649.04684.02208.058.02073.05064-.0068-.016-.01335-.03216-.01947-.04841Z"/>
            <path class="cls-2" d="M59.72761,30.75327a2.6495,2.6495,0,0,0-2.89591-1.79208,2.3279,2.3279,0,0,0-1.71233,1.08017c-.00389.00644-.00383.01344-.00715.02-.02822-.02026-.05574-.04149-.084-.06168a.29129.29129,0,0,0,.00927-.071c.00481.10229.00647-.08549.00618-.08031a.59139.59139,0,0,0-.09252-.37111,1.05372,1.05372,0,0,0-.4545-.35158,3.44421,3.44421,0,0,0-.8121-.27458,4.40392,4.40392,0,0,0-1.81153.01459,3.87951,3.87951,0,0,0-1.5145.71957,3.196,3.196,0,0,0-.58667.58027,1.06205,1.06205,0,0,0-.52387-.30919,2.82533,2.82533,0,0,0-1.55024-.025,2.04036,2.04036,0,0,0-.76387.34827,1.79194,1.79194,0,0,0-.59125.64524c-.05337.07439-.10747.14824-.15342.22771a.28476.28476,0,0,0-.02207.063,2.20182,2.20182,0,0,0-.679.47732,2.322,2.322,0,0,0-.48852.931,2.9154,2.9154,0,0,0,.104,1.93682c.03462.07909.0736.15646.11606.23214-.62622-.29553-1.26462-.56851-1.89714-.84882a2.21747,2.21747,0,0,0-2.23333-.07081c-1.01126.70474-.98266,2.19907-.65622,3.25411.12938.41819.28106.82985.45137,1.23308a6.24512,6.24512,0,0,0,.31949.705,1.94213,1.94213,0,0,0,.34879.40149,2.49715,2.49715,0,0,0-1.04937.33516,6.23212,6.23212,0,0,0-1.41484.95689,6.84069,6.84069,0,0,0-1.90619,2.87884,5.61863,5.61863,0,0,0-.15748,3.32614c.27889.97886,1.02664,2.10763,2.169,2.0482.376-.01955.56953-.60739.17658-.76765-1.79025-.73022-1.71242-3.04465-1.04378-4.56178a5.76806,5.76806,0,0,1,1.63264-2.16294,5.52257,5.52257,0,0,1,1.14385-.71926c.21881-.10069.45724-.16116.67171-.27036a1.04741,1.04741,0,0,0,.45186-.48159.28687.28687,0,0,0-.03422-.32809.48081.48081,0,0,0,.42076-.5332,5.3025,5.3025,0,0,0-.1069-.68085c-.06106-.19287-.17713-.38393-.2588-.57875q-.24509-.58461-.43463-1.19084c-.03806-.1223-.06838-.24542-.09658-.36992-.00516-.03455-.02424-.13874-.0267-.16072q-.01-.09024-.01551-.1809a3.34145,3.34145,0,0,1,.00154-.34729c.02792.01448.05627.02805.08416.04259a5.247,5.247,0,0,1,.4831.28757l.033.02408q.05481.0414.10826.08458.10695.08629.2083.17933.10128.093.19661.19227.04766.04959.09366.10072l.03814.04429a4.36251,4.36251,0,0,1,.30468.42129c.09677.154.18692.31407.27608.47267q.03884.06909.07482.13972l.02349.04489.01449.03113a.61583.61583,0,0,0,.22367.25739.84822.84822,0,0,0,.23528.21466.36363.36363,0,0,0,.48318-.14674.756.756,0,0,0,.0914-.37313,1.114,1.114,0,0,0-.08819-.6627,3.17781,3.17781,0,0,0-.3149-.62747,4.92828,4.92828,0,0,0-.60181-.754c.41108.18947.822.37937,1.24246.54574a.731.731,0,0,0,.95869-.29115.6868.6868,0,0,0,.07719-.283,2.73288,2.73288,0,0,0,2.55641.57715.501.501,0,0,0-.1701-.97371,2.24684,2.24684,0,0,1-1.28129-.20954,1.671,1.671,0,0,1-.50718-.3712c-.03732-.03728-.07413-.07626-.10826-.11679-.00888-.014-.0584-.08073-.06484-.09q-.0508-.07337-.09567-.15057-.02976-.05136-.05667-.10418l-.00015-.00035a2.133,2.133,0,0,1-.11721-.33733c-.00608-.02358-.03519-.16763-.029-.12759.00506.03231-.01211-.13155-.01385-.16029a1.54608,1.54608,0,0,1,.05907-.61639,2.76346,2.76346,0,0,1,.22426-.587,2.85922,2.85922,0,0,1,.35048-.61938.37124.37124,0,0,0,.06949-.29656.90242.90242,0,0,1,.16907-.11451c.04788-.0278.09363-.05894.14211-.08588.02444-.01357.04928-.02628.074-.03927l.0201-.01083.01167-.00409a5.22115,5.22115,0,0,1,.63264-.20779c.05346-.01443.10754-.02482.16129-.03792.02448-.003.049-.00693.07351-.00978a2.5479,2.5479,0,0,1,.35752-.01627c.05622.00139.11232.00564.16847.00887l.00647-.00029c.02087.00257.04352.00709.05684.00912a2.31425,2.31425,0,0,1,.26712.06094.44391.44391,0,0,0-.36522.23952,2.72394,2.72394,0,0,0-.24607.65526,6.01478,6.01478,0,0,0-.08562.7486A5.579,5.579,0,0,0,48.292,33.9242a4.52817,4.52817,0,0,0,.44425,1.27691,2.0733,2.0733,0,0,0,.88393.97292,3.47441,3.47441,0,0,0-1.12882.8784,3.55029,3.55029,0,0,0-.81064,1.76569,2.81012,2.81012,0,0,0,.35181,1.89974.30821.30821,0,0,0,.56389-.17621,3.79555,3.79555,0,0,1,.49219-2.41152,2.60065,2.60065,0,0,1,1.97273-1.13938,2.29293,2.29293,0,0,1,1.97439.798,1.81324,1.81324,0,0,1,.4207.981,1.2428,1.2428,0,0,1-.20162.80034,1.514,1.514,0,0,1-.73741.55307,1.19422,1.19422,0,0,1-.44237.07114,2.79782,2.79782,0,0,0-.53936-.00133c-.28812-.03756-.6247.25311-.516.54214a2.46114,2.46114,0,0,0-.23526.18866,1.14618,1.14618,0,0,0-.33781.49109,1.65555,1.65555,0,0,0-.07469.201.66743.66743,0,0,0,.00956.3789,1.07019,1.07019,0,0,0-.00671.16941.576.576,0,0,0,.0646.22213.47459.47459,0,0,0,.05237.12854.40887.40887,0,0,0,.77491.01984.34576.34576,0,0,0,.08314.10809.47907.47907,0,0,0,.25073.10924.67938.67938,0,0,0,.162.24376.657.657,0,0,0,.9285-.03568l.09755-.13683c.00954-.018.01317-.03743.02094-.05585a.78892.78892,0,0,0,.4763.016c-.00534.431-.0021.86127-.014,1.28238-.015.5312-.03247,1.06237-.04022,1.59377a8.013,8.013,0,0,0-.001.90184.68381.68381,0,0,0-.22565.24331.83084.83084,0,0,0,.12316.95455A5.68658,5.68658,0,0,0,54.427,48.813c.049.033.09829.069.14736.10356-.00057.24161.02311.48586.03611.71153l.03969.68887a1.7657,1.7657,0,0,0,.14384.883.6202.6202,0,0,0,.51359.29461.59182.59182,0,0,0,.5136-.29461.90373.90373,0,0,0,.08565-.56515l-.0296-.31794-.05786-.62186A1.27938,1.27938,0,0,0,57,49.61286a3.16627,3.16627,0,0,0,.61407-.60549c.37483-.42308.76126-.83961,1.09923-1.29326a.96491.96491,0,0,0,.0977-.747,1.00427,1.00427,0,0,0-.34737-.50353.97042.97042,0,0,0-1.27282.0758c-.31143.31072-.58523.66467-.86892,1.00052-.04563.054-.0918.10778-.13707.16225a14.82372,14.82372,0,0,0-1.62652-1.0045,1.04436,1.04436,0,0,0,.01815-.10991c.01674-.2842.00834-.5731.01249-.85783.008-.55123.00742-1.10244.00793-1.65375a17.20779,17.20779,0,0,0-.12441-3.3781.40711.40711,0,0,0-.20741-.28752,2.58894,2.58894,0,0,0,.21647-2.74141,3.56945,3.56945,0,0,0-4.33366-1.70528.27635.27635,0,0,0,.012-.10665,4.10991,4.10991,0,0,0-.42144-1.08564,6.62886,6.62886,0,0,1-.36932-1.11485,6.14543,6.14543,0,0,1,.03728-2.189.619.619,0,0,0,.00518-.13306.32592.32592,0,0,0,.45505-.07325l.01439-.02169a3.14729,3.14729,0,0,1,1.00988-.87911,3.88624,3.88624,0,0,1,1.20355-.416c.06072-.011.1177-.01569.17641-.02344l-.00583.01733a3.26248,3.26248,0,0,0-.14189.7669A3.61627,3.61627,0,0,0,53.14235,33.509a3.05011,3.05011,0,0,0,.60457.48083,1.19885,1.19885,0,0,0,.907.20844.48857.48857,0,0,0,.26048-.71812.92369.92369,0,0,0-.34907-.29739c-.04451-.02867-.08832-.0586-.13235-.088.09555.06379-.062-.04345-.10822-.07591l-.03712-.02552-.01532-.01186c-.03431-.02685-.06854-.05379-.10176-.082a2.74473,2.74473,0,0,1-.22738-.21678c-.00412-.0044-.0551-.06376-.06528-.07414-.025-.03171-.04989-.06353-.07353-.09621q-.08511-.11758-.15856-.243c-.04936-.084-.09316-.17045-.13632-.25773l-.01446-.02829-.00965-.02648c-.01882-.04976-.04-.09843-.05826-.14846q-.05007-.13734-.08764-.27876c-.01368-.05131-.02543-.103-.03714-.15477l-.00824-.0412a3.90183,3.90183,0,0,1-.03139-.61978c.00018-.01067.00016-.01711.00014-.0234l.00108-.00711c.00655-.0521.01368-.104.02276-.15572a2.70833,2.70833,0,0,1,.06452-.28049c.01123-.039.02415-.07763.03726-.1161.006-.01237.03522-.0864.03752-.09146.00843-.01866.01392-.03518.02154-.05309a2.55063,2.55063,0,0,1,.52511.18842,1.19491,1.19491,0,0,0,.498.16693L54.4854,30.34a.22214.22214,0,0,0,.01541.02929c.06133.07342.11493.15216.17467.22654a.25025.25025,0,0,1,.02.02829,1.13033,1.13033,0,0,0,.07489.21947c.08524.17.1366.27642.20456.43389.049.11362.05846.11847.1072.23918q.05474.13551.098.2751.03911.12591.069.25435l.02178.09981c.00333.02375.016.1028.01583.10158a3.59342,3.59342,0,0,1,.03031.52526q-.00113.07319-.00545.14623c-.001.01707-.00454.05455-.006.0717-.00991.08058-.022.16086-.0375.24051a5.36654,5.36654,0,0,1-.12894.5377,1.04146,1.04146,0,0,0-.07973.69133.467.467,0,0,0,.56942.295c.46818-.10979.68418-.847.7495-1.26334a4.247,4.247,0,0,0-.02-1.43155,3.60415,3.60415,0,0,0-.43643-1.22565,2.5128,2.5128,0,0,0-.28549-.36951,1.97681,1.97681,0,0,1,.24658-.16657c.05-.028.09892-.0578.14946-.08485q.02851-.01533.05762-.0296l.00974-.00544.02362-.00819a2.9592,2.9592,0,0,1,.3261-.10435l.05339-.01162.11735-.02232c.02111-.004.04327-.00723.064-.01281l.00293-.00091.012-.00106a3.20319,3.20319,0,0,1,.34623-.02245c.04334.00025.08646.0029.12965.00525-.00173.00122.08593.00916.11674.01392a2.74214,2.74214,0,0,1,.339.07161c.02388.00684.10225.03506.11316.03746.04542.01905.09082.038.135.06q.06739.03354.1323.07172c.02.01176.06785.0449.08726.05738.08717.07128.16283.15389.24905.225l.00193.00106.0282.03644q.0504.06763.09481.13961c.02773.04489.05206.09122.07714.13755l-.00359-.01.00489.01217.00392.007a.18212.18212,0,0,1,.01556.04139l.01479.03684a2.91958,2.91958,0,0,1,.0893.30277l.00292.01091.00655.04554q.01191.09462.01614.18992a1.16111,1.16111,0,0,1-.00605.31863l.0049-.0188c-.00656.02639-.01406.05789-.01687.07423q-.01607.09426-.03956.187c-.01559.06194-.035.1223-.05379.18329l-.00821.02831c-.008.016-.01691.0317-.023.04522a2.85961,2.85961,0,0,1-.18349.3314c-.01905.03064-.08128.12164-.06953.10951-.02871.03725-.05742.07455-.08712.111a1.09517,1.09517,0,0,0-.30191.47789.49214.49214,0,0,0,.36316.586.79142.79142,0,0,0,.60909-.16383,2.16149,2.16149,0,0,0,.38215-.35461,2.58987,2.58987,0,0,0,.45773-.88182A2.97751,2.97751,0,0,0,59.72761,30.75327Z"/>
          </g>
          <path class="cls-2" d="M62.03956,31.9504A2.66614,2.66614,0,0,0,60.542,29.7441a.52354.52354,0,0,0-.50385.03126.31143.31143,0,0,0-.21871.50021.47091.47091,0,0,0,.06446.17924.50317.50317,0,0,0,.18635.17256l.01165.00788c.015.01287.06352.05276.07106.05927q.04853.04193.094.0871c.02718.027.05268.05537.07827.08376.00845.01071.02391.03005.03834.04988.05032.06911.10193.13786.14906.20921.04794.07261.08873.14856.13049.22468l.0042.00729.00431.01226c.01542.04094.03286.08094.04773.12213a2.61655,2.61655,0,0,1,.07694.25256c.01078.043.0194.08634.02911.12956l.00175.00707.002.02934a3.94215,3.94215,0,0,1,.01259.52771l-.00434.033q-.00966.06493-.02263.12935a2.43542,2.43542,0,0,1-.06529.25323c-.0119.03754-.07123.16186-.00006.00844-.01806.03895-.03284.07968-.05043.11888a2.15073,2.15073,0,0,1-.1186.22839c-.00868.01444-.0183.02826-.02741.04241-.00861.01112-.03724.05112-.0512.06849a2.61086,2.61086,0,0,1-.20062.22609.62529.62529,0,0,0,.79382.951A2.736,2.736,0,0,0,62.03956,31.9504Z"/>
          <g>
            <path class="cls-2" d="M32.54257,70.24758l.03308.00879a.08335.08335,0,0,0-.03814-.01116Z"/>
            <path class="cls-2" d="M32.11249,69.52613l-.00024.015a.128.128,0,0,0,.00352-.03274Z"/>
            <path class="cls-2" d="M33.0371,70.26681a.41019.41019,0,0,1,.04524-.01445l.01055-.0067A.10508.10508,0,0,0,33.0371,70.26681Z"/>
            <path class="cls-2" d="M45.44872,67.58351a.63855.63855,0,0,0-.02835-.16474l-.00892-.01933c-.1626-.51584-.825-.8753-1.25356-1.13865a7.9909,7.9909,0,0,0-1.526-.7116,6.63882,6.63882,0,0,0-1.59975-.3602c-.07479-.007-.15034-.0142-.2261-.02056a3.26575,3.26575,0,0,0-2.2177-.61843,4.318,4.318,0,0,0-2.48789.95353,4.72011,4.72011,0,0,0-1.28567,1.69311.82348.82348,0,0,0-.14033-.06,1.71852,1.71852,0,0,0-.3-.07282,3.74862,3.74862,0,0,0-1.14044.00533A2.82831,2.82831,0,0,0,31.3547,68.153a2.39771,2.39771,0,0,0-.43352,2.06472,1.97472,1.97472,0,0,0,1.34949,1.302,1.78948,1.78948,0,0,0,1.92447-.52189.824.824,0,0,0,.096-.16481c.00235.0214.00358.04306.00611.0644a.70886.70886,0,0,0,.71739.66429.69911.69911,0,0,0,.66394-.69638c.227-.021.454-.04235.68122-.07172.32716-.04226.65086-.10654.9753-.16593l.05383-.0092a1.66046,1.66046,0,0,0,.01354.52223c.21967,1.08446,1.56744,1.04653,2.41628.89982a5.16727,5.16727,0,0,0,3.90152-3.17138c.21-.06252.4201-.12439.6293-.19011a.58122.58122,0,0,0,.4118-.40278c.01849.00039.03562.003.05493.00209a.6701.6701,0,0,0,.6319-.68566l.00248.00052ZM33.23051,70.10462c-.02852.038-.06023.07218-.09088.10819l-.00488.00616-.00061.00029c-.01317.00769-.02725.01722-.04125.0264l.02371-.00384-.00038.00055a.16061.16061,0,0,0-.03388.01l-.01339.00857c-.02922.02071-.03992.01589-.03185.00588a.55558.55558,0,0,1-.06388.02616l-.01773.00431c-.04007.00017-.082.00786-.12181.00833-.03115.00031-.18309.00269-.07394.00009.10506-.00257-.05715-.01326-.09381-.02182-.00391-.00092-.0517-.01618-.09028-.0275.0267.01355.0454.02856-.00584.00381l-.02724-.0126-.01462-.00271.00956.00034-.04237-.01954c-.04305-.0214-.084-.04587-.12536-.0702l-.01287-.00708-.01757-.01789-.10189-.0971-.00982-.01738c-.00168-.00277-.03535-.06093-.05627-.09594-.0099-.03-.02116-.05934-.03016-.08966-.001-.00351-.01174-.03383-.0188-.0597l-.00077-.009c-.00511-.05629-.00986-.112-.01018-.16858-.0001-.01737.00042-.03466.0008-.052l-.00337.00465.00361-.01968.00008-.00544c.00045-.06382.00361-.04024.0032-.01226.0099-.05307.0274-.14541.02957-.15413.0079-.0318.01774-.06289.02627-.09454l.00127-.00448c.00624-.01743.01463-.04123.01852-.05011.01-.02276.02032-.0454.03115-.06779.02543-.0524.05328-.10363.0831-.15368.01709-.02871.03646-.05609.05334-.08483l.00021-.00039.00937-.01091a2.81129,2.81129,0,0,1,.24034-.25676l.01057-.00865.04224-.03a1.91641,1.91641,0,0,1,.168-.10765c.0194-.01107.12375-.05912.11893-.05928.05763-.02308.11528-.04564.1744-.06492q.10066-.03271.20372-.05736c.02918-.007.05877-.013.08828-.019.01107-.00113.05241-.00742.07684-.0103a3.32137,3.32137,0,0,1,.48909-.02c.04109.00126.0821.00358.12313.0059l.02028.00086.0316.00326c.0935.00939.18813.01776.28254.02056a7.26552,7.26552,0,0,0-.19355,1.876.58107.58107,0,0,0-.08551-.09127A.66471.66471,0,0,0,33.23051,70.10462Zm3.76467-.76991c-.28654.0601-.57388.1158-.85687.191-.16637.04419-.32975.09517-.49409.14389a4.29829,4.29829,0,0,1,1.23688-2.98068,2.97925,2.97925,0,0,1,1.68227-.71815,2.24593,2.24593,0,0,1,.62041.01937,14.73767,14.73767,0,0,0-.99235,2.04915c-.14851.37694-.28317.759-.40954,1.14391C37.51716,69.21283,37.25507,69.28015,36.99518,69.33471Zm6.25132-1.70094a.85855.85855,0,0,0-.70519.63057,3.5964,3.5964,0,0,1-.44769.90068,3.955,3.955,0,0,1-1.57307,1.31964,3.84561,3.84561,0,0,1-.92213.29472,3.458,3.458,0,0,1-.52272.04844c-.13514.0036-.3183-.04616-.43559-.03239a.25728.25728,0,0,0,.01828-.04776,6.41588,6.41588,0,0,0,.17612-.68129c.12729-.44719.27036-.89109.43416-1.32634a21.60973,21.60973,0,0,1,1.04286-2.305,1.22372,1.22372,0,0,0,.13309.03007.66443.66443,0,0,0,.24926-.01273c.04368.00678.08763.012.131.02026a8.29042,8.29042,0,0,1,1.37288.35962,6.961,6.961,0,0,1,1.22667.62434c.054.03434.102.06607.14792.09719C43.46361,67.58006,43.35449,67.60485,43.2465,67.63377Z"/>
          </g>
          <g>
            <path class="cls-2" d="M115.80987,96.22a.34711.34711,0,0,0-.06214-.02978c.02073.00949.04155.018.062.02987Z"/>
            <path class="cls-2" d="M117.78611,79.595a.65266.65266,0,0,0-.12044-.314.72086.72086,0,0,0-.02849-.89372,30.04874,30.04874,0,0,1-3.3929-5.74,30.82636,30.82636,0,0,1-1.1875-3.11187c-.34648-1.08-.58189-2.19827-.98478-3.25818a.68332.68332,0,0,0-1.32783.232,13.2241,13.2241,0,0,0,.71087,3.45152A30.86163,30.86163,0,0,0,112.6698,73.23a31.92323,31.92323,0,0,0,3.49528,6.09552.91172.91172,0,0,0,.2767.2528A42.08445,42.08445,0,0,0,116.24505,84q-.06915,2.31107-.131,4.62243-.06243,2.26581-.12489,4.53166-.03126,1.13292-.06247,2.26584c-.00482.171.0479.6252-.07964.7605a.36523.36523,0,0,1-.03717.03949l.01053.00531-.01063-.00522c-.011.01036-.01994.01735-.01567.00655-.04712.11953-.16716-.07451-.04638-.03639a.775.775,0,0,0-1.03427.79627c-.03489.01918-.069.03963-.10412.05835-.13676.07315-.27553.14225-.4151.20976-.03035.01382-.1118.05185-.11709.0542q-.116.05165-.23321.1005c-.35107.14654-.706.27834-1.05858.41636a.96514.96514,0,0,0-.87131-.22853c-.10971.01989-.22247.02813-.33365.04277.115-.28214.18468-.59448.2717-.88047q.14324-.47116.28655-.94224c.01421-.04666.0282-.09376.04276-.14056a.5593.5593,0,0,0,.25125-.24642.74236.74236,0,0,0-.51593-1.02307c-.57608-.11591-.90972.36249-1.05217.84178-.09344.31424-.17953.63087-.26925.94627-.10077.35414-.23076.7119-.30515,1.07235a2.42944,2.42944,0,0,0-.03869.438,10.05749,10.05749,0,0,1-1.27134-.11711,10.877,10.877,0,0,1-1.50866-.35236c-.28131-.08735-.56508-.15827-.84984-.22583.57892-.77538,1.05487-1.66285,1.58442-2.40533a4.16112,4.16112,0,0,1,1.69323-1.54456,1.69031,1.69031,0,0,1,1.73944.12365.90834.90834,0,0,0,1.47912-.69639.96673.96673,0,0,0,.09929-.20516,5.153,5.153,0,0,0,.1467-1.26343q.04455-.66089.06627-1.32311c.02617-.79742.04237-1.60149-.0031-2.39856a5.66332,5.66332,0,0,0-1.62816-3.84744,13.29973,13.29973,0,0,0-3.23683-2.0984,17.25319,17.25319,0,0,1-3.31461-2.21036,20.94137,20.94137,0,0,1-1.6437-1.655c-.54521-.58965-1.1474-1.1287-1.63737-1.76657-.224-.29158-.79382-.10054-.6313.2952a14.2827,14.2827,0,0,0,.82476,1.83135,7.21948,7.21948,0,0,0,.62309.87844.5863.5863,0,0,0-.27482.10157,1.48656,1.48656,0,0,0-.18206.14929.91774.91774,0,0,0-.17461.24038,1.24931,1.24931,0,0,0-.14123.64293,1.153,1.153,0,0,0,.05568.32866l.00719.01674a1.94349,1.94349,0,0,0,.63493,2.0292c.41928.43541.6478.665.49842,1.28826a4.26024,4.26024,0,0,1-.93441,1.659c-.43849.53383-.88845,1.05822-1.341,1.58006a60.78327,60.78327,0,0,0-5.35085,6.67172,20.47483,20.47483,0,0,0-1.15536,2.02022c-.17255.34855-.33742.70166-.47635,1.065-.04006.10479-.08728.21591-.13383.33014l-.01386-.01407a1.56178,1.56178,0,0,0-.26946-.20659,1.14311,1.14311,0,0,0-.52272-.10421c-.09609-.00314-.1924-.00247-.2886-.00389a3.94292,3.94292,0,0,0,.54817-1.05616.82845.82845,0,0,0-.61229-.988.83845.83845,0,0,0-.988.61229c-.01475.04339-.023.06862-.02633.07991-.01934.04547-.03925.09072-.06108.13508a2.52906,2.52906,0,0,1-.17443.30335l-.03669.04768q-.05535.06952-.11449.13569a3.15437,3.15437,0,0,1-.25139.25306,3.60226,3.60226,0,0,1-.49808.34505,3.082,3.082,0,0,1-.5482.27422,6.93048,6.93048,0,0,1-1.66064.35471c-.12429.01417-.24878.02222-.3733.03046a12.15678,12.15678,0,0,1,.70672-1.24537q.03077-.04583.06214-.09138l.0315-.04541q.04737-.06774-.03221.04427a1.63173,1.63173,0,0,1,.14749-.1994q.15015-.19763.31059-.387c.04684-.05526.09519-.10891.14251-.16363a1.273,1.273,0,0,0,.65576-.74921.75627.75627,0,0,0-1.22046-.869,9.34373,9.34373,0,0,0-1.407,1.73014,8.1397,8.1397,0,0,0-.72471,1.38314c-.0651.01505-.13016.03028-.1954.04463q-.24044.05286-.48223.09957c-.02173.00417-.21241.039-.22543.042q-.10317.01752-.20655.03382-.26384.04143-.52876.07553c-.2663.03418-.53383.0572-.80133.08013a3.30374,3.30374,0,0,0,.24225-.26474,5.35249,5.35249,0,0,0,.70714-1.25184,14.08417,14.08417,0,0,1,1.164-2.45708,3.53245,3.53245,0,0,1,1.86774-1.3077,3.47779,3.47779,0,0,1,1.13677-.16182,1.7513,1.7513,0,0,1,.1749.01572.9553.9553,0,0,0,1.243.22322.89627.89627,0,0,0,.84818-.634c.69923-.52764,1.39328-1.06261,2.08945-1.59334a10.79219,10.79219,0,0,0,2.13169-1.93508,4.97873,4.97873,0,0,0,1.0133-3.0482A9.32235,9.32235,0,0,1,96.83,83.045a3.80543,3.80543,0,0,0,.21487-1.87394c-.315-1.0148-1.30334-1.37995-2.20268-1.723a16.67646,16.67646,0,0,1-2.36139-1.12946,17.40626,17.40626,0,0,1-4.14464-3.34952,16.5079,16.5079,0,0,1-3.05864-4.82084q1.24808-.74376,2.44452-1.56838c1.45659-1.00817,3.25491-2.55581,5.15081-1.92122A.7126.7126,0,0,0,93.604,66.426c.1027.14149.20245.2852.30748.4251q.34188.45523.69989.89811c.127.157.3202.33017.45135.51683a.73246.73246,0,0,0-.02251.107.777.777,0,0,0,1.00257.82957,1.03016,1.03016,0,0,0,.3685-1.62247c-.30825-.4611-.71249-.87451-1.04825-1.31771-.68792-.90793-1.31935-1.8549-1.91885-2.82313-.62333-1.00665-1.10576-2.09893-1.73816-3.09522a.67742.67742,0,0,0-1.2117.56655,12.58744,12.58744,0,0,0,.97307,2.103c.356.6701.7318,1.33161,1.143,1.96944l.02962.04414a6.57217,6.57217,0,0,0-4.51515,1.41395c-1.52351,1.00749-2.9992,2.05731-4.5944,2.95436A42.65192,42.65192,0,0,1,73.34184,73.4876c-.97419.25271-1.95285.48549-2.94087.678-.743.14477-1.49641.24921-2.24044.39434.04365-.4378.1107-.87565.19024-1.30765.0931-.50594.25449-1.00073.32918-1.50844a.83661.83661,0,0,0-.51617-.95693.82771.82771,0,0,0-1.01938.37795,9.19649,9.19649,0,0,0-.7796,3.20227,12.97425,12.97425,0,0,0-.00919,2.98808,8.77256,8.77256,0,0,0-.92209,1.37439q-.56636,1.00262-1.06713,2.04036a34.12117,34.12117,0,0,0-1.70407,4.19452,33.55387,33.55387,0,0,0-1.11443,4.30464q-.21048,1.13026-.35019,2.27248a8.67889,8.67889,0,0,0-.056,1.3583,4.13649,4.13649,0,0,1-.54438.88358.742.742,0,0,0,.04287.99829c-.0251.028-.04881.05711-.07608.0835l-.01206.01151c-.01975.01585-.0541.04445-.06393.05146a1.95184,1.95184,0,0,1-.19482.12232l-.03367.01669-.05563.02236a1.93018,1.93018,0,0,1-.20783.06291c-.0533.0131-.10707.023-.16064.03472l-.00106.00026-.0101.00018c-.19827.00876-.39125.02993-.59072.02089-.03466-.00154-.069.0012-.1035.00018-.00815-.05861-.01382-.11723-.02747-.17592a.74586.74586,0,0,0-1.35554-.1245,1.91167,1.91167,0,0,0-.21747.8146c-.401.67723-1.6329.68586-2.30663.74346-.67465.05769-1.34812.11241-2.02008.19608-.4094.05109-.80707.12255-1.20324.20379.12208-.18019.2423-.34652.39272-.54025q.38436-.495.81573-.951c.14361-.15168.28743-.30352.43506-.45144a.97087.97087,0,0,0,.32106-.80615.51183.51183,0,0,0-.38986-.47322.96693.96693,0,0,0-.90651.28139c-.15951.15261-.316.30827-.46373.47234a12.86632,12.86632,0,0,0-.83459,1.02817q-.327.448-.62009.91864a.58385.58385,0,0,0-.049-.09182.73288.73288,0,0,0-.99386-.22021,8.35706,8.35706,0,0,1-.73153.41155l-.0189.00908c-.02984.0135-.05975.027-.08976.04016q-.08271.03612-.16633.07016-.20878.08522-.42258.15722c-.20148.068-.40659.12409-.61321.17417.45629-1.46248,1.11273-3.15615,2.52058-3.82611,1.02175-.48624,2.24256-.26784,3.32393-.531a3.59164,3.59164,0,0,0,2.4595-2.07679.77619.77619,0,0,0-.3098-1.02.7611.7611,0,0,0-1.02.30973,2.64883,2.64883,0,0,1-2.43821,1.512,5.77806,5.77806,0,0,0-3.15388.95008c-1.569,1.2127-2.22656,3.16642-2.73471,5.00919a.666.666,0,0,0-.01824.10528.493.493,0,0,0-.132.38277.59844.59844,0,0,0,.60566.56083,6.80439,6.80439,0,0,0,3.44238-.87747,1.10767,1.10767,0,0,0-.09311.5097c-.02864.11673-.06586.23287-.0974.34731a.41215.41215,0,0,0,.2581.47849.42039.42039,0,0,0,.50968-.189c.05105-.07814.10324-.16049.161-.23451a1.07257,1.07257,0,0,0,.277-.27413c.0249.00441.04774.01284.07366.01505a12.53212,12.53212,0,0,0,1.262.0912c.39548-.00664.7919-.02285,1.18708-.03967.81734-.0348,1.6463-.09059,2.45937-.18161a3.821,3.821,0,0,0,2.1851-.831,2.34206,2.34206,0,0,0,.49594-.61776,3.5973,3.5973,0,0,0,.52887.08162,2.81307,2.81307,0,0,0,1.39961-.19957,2.66745,2.66745,0,0,0,1.1132-.9104,1.97377,1.97377,0,0,0,.28507-.60733,1.34512,1.34512,0,0,0,.0218-.52343.62508.62508,0,0,0,.12631-.24286c.08337-.3003.16239-.59826.23655-.89717a12.87692,12.87692,0,0,0,.66082-3.37352l.01021-.051a39.03145,39.03145,0,0,1,1.16116-4.20945q.38808-1.14089.84358-2.25924a39.45513,39.45513,0,0,0,1.99367-3.53289,10.10622,10.10622,0,0,0,.54319-1.48355.88277.88277,0,0,0,.36538-.74408c-.01286-.3374-.02787-.68772-.04082-1.0388a16.55018,16.55018,0,0,0,3.581-.2249,41.39746,41.39746,0,0,0,4.41926-.89389,38.82264,38.82264,0,0,0,8.30925-3.02009,18.39781,18.39781,0,0,0,5.39714,6.40618,20.8053,20.8053,0,0,0,4.70623,2.54306,1.664,1.664,0,0,1,.71492.40195l.00607.00991a1.50394,1.50394,0,0,1-.07972.29415,5.50366,5.50366,0,0,0-.20658.86635,9.02758,9.02758,0,0,1-.31924,2.83769A5.87468,5.87468,0,0,1,92.79,87.65991c-.8652.65668-1.74057,1.30155-2.60161,1.964a5.89687,5.89687,0,0,0-2.27748.10373,5.2461,5.2461,0,0,0-2.67555,1.56784,8.48788,8.48788,0,0,0-1.44569,2.67327,21.23916,21.23916,0,0,1-1.27242,2.56188.58966.58966,0,0,0-.0091.53516.68157.68157,0,0,0-.39508.56243.70385.70385,0,0,0,.54116.7632c.25385.02577.32613.03351.55855.05622a4.42828,4.42828,0,0,0,.70229.01222q.55326-.03135,1.10409-.09505c.367-.04241.73219-.09668,1.09623-.15924.13824-.02378.28947-.04342.443-.06654a6.83972,6.83972,0,0,0,.85971.17761c.36776.04011.73693.074,1.10685.08493a5.69874,5.69874,0,0,0,2.11486-.3386c.08107-.03.15786-.0669.23664-.10063a11.41835,11.41835,0,0,0,1.15014.15052l.94454.063a1.01223,1.01223,0,0,0,.70465-.18692l.0083-.00656a.64761.64761,0,0,0,1.08329.236,2.6281,2.6281,0,0,0,.49684-.91563c.151-.33129.30222-.66293.46516-.9885a19.88846,19.88846,0,0,1,1.047-1.83109,31.43939,31.43939,0,0,1,2.53721-3.34841c.92982-1.0952,1.89982-2.15524,2.8544-3.2287a14.23657,14.23657,0,0,0,2.61279-3.42133,3.01086,3.01086,0,0,0,.14605-2.37864,3.646,3.646,0,0,0-.83813-1.14218c-.30413-.30993-.17764-.298-.30293-.71711a.82189.82189,0,0,0-.05525-.12277.52842.52842,0,0,0,.10731-.09412l.06266-.08792a15.6064,15.6064,0,0,0,2.68235,2.10512c1.94371,1.20809,4.742,2.069,5.10021,4.67688a18.14542,18.14542,0,0,1,.101,2.59429q-.005.66162-.03286,1.32289c-.00874.20763-.03243.42589-.05153.64473a4.303,4.303,0,0,0-4.23282,1.44535,17.22278,17.22278,0,0,0-1.73615,2.57888,9.62509,9.62509,0,0,1-1.88169,2.15558c-.54734.48376.08267,1.38328.72631,1.19047.01393.00585.02464.01523.03933.02019a2.27884,2.27884,0,0,0,.24787.0692.60314.60314,0,0,0,.12178.02266l.017.00841a1.52684,1.52684,0,0,0,.69033.07845.73862.73862,0,0,0,.19564.00133c.0537-.008.107-.01922.16058-.02868a1.656,1.656,0,0,0,.64993-.24686c.10163.04493.20276.0904.31041.12794a10.88679,10.88679,0,0,0,1.66529.4367,12.95023,12.95023,0,0,0,3.53207.12023.958.958,0,0,0,.10776-.02072l.01571.00257a5.52284,5.52284,0,0,0,2.04538-.40624c.34691-.1275.68455-.27514,1.01886-.43244.15326-.07217.30551-.14606.45572-.22437.06424-.03356.1285-.06739.19188-.10254l.01713-.00929q.05925-.02073.11829-.04211a.86882.86882,0,0,0,.36719-.25753,1.60627,1.60627,0,0,0,.272-.15362,2.4293,2.4293,0,0,0,.80474-2.08352c.03809-1.75113.05339-3.503.08006-5.25427.02668-1.7514.05645-3.50279.079-5.25419l.035-2.71749A23.65541,23.65541,0,0,0,117.78611,79.595Z"/>
          </g>
          <path class="cls-2" d="M100.48858,73.42934l-.04272-.1q.02381.1482-.01938-.10736a2.33739,2.33739,0,0,0-.223-.43527c-.14129-.25538-.28791-.50154-.449-.74492a15.66482,15.66482,0,0,0-.97549-1.40731.64955.64955,0,0,0-.36238-.25714.5895.5895,0,0,0-.63179.8907,14.31214,14.31214,0,0,0,.81124,1.34563c.14088.22187.2789.44283.437.65287l.23687.31472a2.03817,2.03817,0,0,0,.16526.20631.62852.62852,0,0,0,.12.09449.6428.6428,0,0,0,.38978.25638.4847.4847,0,0,0,.56432-.34971A.53858.53858,0,0,0,100.48858,73.42934Z"/>
          <path class="cls-2" d="M46.74757,39.82693a3.546,3.546,0,0,0-.60273-.27806c-.15787-.04954-.31576-.098-.47487-.1434l-.47663-.136a4.18354,4.18354,0,0,0-.524-.10072.60841.60841,0,0,0-.69476.37475.59872.59872,0,0,0,.2744.74011,5.12584,5.12584,0,0,0,.60566.262l.47066.1613q.23523.08061.47219.15486a2.91849,2.91849,0,0,0,.5275.086.64366.64366,0,0,0,.46264-.0787.62519.62519,0,0,0,.23583-.29806A.6042.6042,0,0,0,46.74757,39.82693Z"/>
          <path class="cls-2" d="M123.661,25.78575a2.07154,2.07154,0,0,0-.5615-1.4279.64982.64982,0,0,0-.46778-.173.74579.74579,0,0,0-.12619.02831.88541.88541,0,0,0-.19673-.02457q-9.81728-.1-19.61448.747a190.64575,190.64575,0,0,0-19.55061,2.72422q-2.68739.51858-5.35676,1.143c-1.46575.34514-2.93732.7066-4.37534,1.16171a9.6048,9.6048,0,0,0-1.646.44266,6.076,6.076,0,0,0-1.02128-1.86856,16.226,16.226,0,0,0-1.499-1.79633,17.2464,17.2464,0,0,0-3.51032-2.772,20.47409,20.47409,0,0,0-9.48172-2.75687,28.46586,28.46586,0,0,0-10.11194,1.32831,21.07737,21.07737,0,0,0-7.888,4.40956,13.16061,13.16061,0,0,0-3.12942,4.104,7.18775,7.18775,0,0,0-.6753,2.60372,4.70186,4.70186,0,0,0,.122,1.29665c.01552.068.0369.12715.05585.18973l.00268.01669a6.02341,6.02341,0,0,0,.32325,1.12521A8.433,8.433,0,0,0,31.53,42.81742a8.98371,8.98371,0,0,0,2.95736,7.04666,9.23871,9.23871,0,0,0,3.66843,2.05869c-.00071.01974-.00228.0394-.0029.05914a16.72472,16.72472,0,0,0,.39315,4.10967,16.0946,16.0946,0,0,0,1.412,3.87069,3.332,3.332,0,0,0,1.1777,1.55908q.04974.02391.10169.04276c.00994.00939.01453.02241.02539.031a2.09633,2.09633,0,0,0,.63017.35524,2.63246,2.63246,0,0,0,.46552.1221,3.3903,3.3903,0,0,0,1.10015.012l.03077-.00628a7.09974,7.09974,0,0,0,.737,3.73167,6.2197,6.2197,0,0,0,.71554,1.12344c.08616.10794.17634.22092.27079.3324a.55306.55306,0,0,0-.0162.35816c-.06408.02-.1285.03975-.19238.05968a21.63325,21.63325,0,0,0-2.12377.7659.70086.70086,0,0,0-.46574.777.68265.68265,0,0,0,.70155.573c.65859-.09024,1.29934-.21836,1.9471-.36631q.44481-.10173.88613-.21508c.21124-.05428.42629-.10183.63315-.17045a1.70249,1.70249,0,0,0,.0168.62478c.08735.46608.19092.92961.28418,1.39456q.26244,1.30821.50966,2.61956c.33848,1.79479.684,3.58806.99676,5.38762q.47169,2.71449.87576,5.44013c.262,1.76166.46492,3.53626.76566,5.29172a.96251.96251,0,0,0-.53567-.14512l.00193-.02028c-2.187.2976-4.36943.74607-6.54013,1.14523q-1.5955.29354-3.191.58687c-.65785.121-1.38329.19461-2.06269.36931-.07776-.34178-.156-.68338-.22649-1.02321q-.47772-2.30342-.95833-4.6064l-1.90263-9.02827q-.55026-2.61114-1.10053-5.22222a.70074.70074,0,0,0-.6135-.50363.85388.85388,0,0,0,.29764-.196.765.765,0,0,0-.59072-1.28415,4.46411,4.46411,0,0,0-1.32652.16036,3.763,3.763,0,0,0-.55444.19736,3.125,3.125,0,0,0-.384.18833.967.967,0,0,0-.41618.4692l-.00183.00045.03039-.08049c.02-.04356.09671-.12123.01521-.04561-.02331.02161-.0462.04365-.069.06579a.49708.49708,0,0,0-.05791.08571.66457.66457,0,0,0-.43327.65869,14.74445,14.74445,0,0,0,.362,2.434l.43836,2.4021c.29206,1.60035.59878,3.19777.90306,4.7958q.91257,4.79279,1.8251,9.58565.52158,2.73918,1.04309,5.47829a1.3077,1.3077,0,0,0-.26485.231.71971.71971,0,0,0,.54895,1.19348A15.39484,15.39484,0,0,0,36.05,97.48257c.565-.0749,1.12829-.15867,1.69185-.24359q1.73589-.26138,3.47182-.52285c2.315-.3486,4.63015-.69551,6.94327-1.05632l-.00184-.01053c.078-.007.1561-.01541.23223-.02949.84046-.15495.7234-1.4739.0222-1.6833a.61837.61837,0,0,0,.0261-.09633l.00449-.053a3.08618,3.08618,0,0,1,.14208-.64319,2.80783,2.80783,0,0,1,.23469-.44731.61788.61788,0,0,0,.07158-.44414c.01873-.03347.03353-.069.05382-.10164a.46176.46176,0,0,0-.09306-.553.48687.48687,0,0,0-.08742-.05429c.34515-.06462.69029-.12927,1.03329-.20108a.80189.80189,0,0,0,.57611-.63893.361.361,0,0,0,.40351.27661c.22982-.02143.45578-.04666.67893-.08075a4.90142,4.90142,0,0,0-.803.65664.755.755,0,0,0,.72779,1.25024,4.59965,4.59965,0,0,0,1.998-1.11,10.61552,10.61552,0,0,0,1.52721-1.48806,12.68874,12.68874,0,0,0,2.19172-3.82164,14.11965,14.11965,0,0,0-.055-9.33153,14.42217,14.42217,0,0,0-1.73346-3.61533,1.57247,1.57247,0,0,0,.12294-.31282,9.9236,9.9236,0,0,0,2.32775-1.47515A11.13187,11.13187,0,0,0,60.12017,68.765,10.29825,10.29825,0,0,0,61.469,63.14966a6.95084,6.95084,0,0,0,.88918.89048A9.145,9.145,0,0,0,65.371,65.66536a8.871,8.871,0,0,0,3.29386.40925,6.1458,6.1458,0,0,0,3.25562-.98142.672.672,0,0,0,.18315-.22924.70713.70713,0,0,0,.5451-.62867c.06891-.48442-.324-1.02551-.85042-.80911a.37692.37692,0,0,0-.17873.15725c-.16285-.12254-.366-.20506-.533-.32593a5.70644,5.70644,0,0,1-.98067-.91625,6.07631,6.07631,0,0,1-.59774-.85612,2.78812,2.78812,0,0,0,.76422-1.24191,8.15724,8.15724,0,0,0,.49184-2.014,9.88914,9.88914,0,0,0,.03591-1.81569.8058.8058,0,0,0,.36272-.00611,14.136,14.136,0,0,1,4.71-.50727,11.66108,11.66108,0,0,1,2.37572.49151,8.81124,8.81124,0,0,1,1.09121.4166c.21673.10138.53689.22862.65069.4591.2728.55268-.56314,1.00089-.95732,1.14389a15.003,15.003,0,0,1-2.45927.59369,37.41128,37.41128,0,0,1-5.441.60386c-.44825.0132-.54188.73244-.07761.805a18.18533,18.18533,0,0,0,5.07276.15548,22.60991,22.60991,0,0,0,2.59444-.47805,4.788,4.788,0,0,0,1.94731-.84205,2.442,2.442,0,0,0,.93448-1.97665,1.7561,1.7561,0,0,0-.0276-.20923,3.66831,3.66831,0,0,0,.66751-.20719,11.84432,11.84432,0,0,0,1.41293-.72624,9.34508,9.34508,0,0,0,2.24948-1.76742,3.03133,3.03133,0,0,0,.81132-2.15515c2.69085.016,5.36163-.07978,8.04973.17771,1.38564.13272,2.766.33133,4.13453.58536a15.72316,15.72316,0,0,1,3.76144,1.00254c2.10588.97738,3.3932,3.01522,4.73091,4.81487a22.661,22.661,0,0,0,4.7957,4.94392,10.33384,10.33384,0,0,0,7.08677,2.19916.89167.89167,0,0,0,.80545-1.14611c-.92727-2.80178-2.93779-4.98748-5.04889-6.97033-2.092-1.965-4.35723-3.84324-5.77232-6.389a6.96808,6.96808,0,0,1,.25582-7.6886c1.44486-1.80791,4.03215-2.68708,5.99572-1.10664a2.73167,2.73167,0,0,1,1.0356,3.05438,2.97641,2.97641,0,0,1-1.73813,1.7724,2.36249,2.36249,0,0,0-1.97982-3.04951,2.33518,2.33518,0,0,0-.55012.001c-.11618.016-.234.0363-.34882.0624-.01775.004-.03515.00895-.05261.01366.04927-.01428-.206.04337-.24328.05658a3.13733,3.13733,0,0,0-1.06726.68115,3.25691,3.25691,0,0,0-.98372,2.35824,3.39511,3.39511,0,0,0,.28905,1.41945,2.25862,2.25862,0,0,0,.45582.75376c.66959,2.47535,2.87349,4.21718,4.50669,6.06164a36.40123,36.40123,0,0,1,4.79681,6.85877,5.50152,5.50152,0,0,1,.84382,3.55113,2.64816,2.64816,0,0,1-2.3161,2.11257,7.64945,7.64945,0,0,1-4.02989-.37826,7.83827,7.83827,0,0,1-1.819-.95716,2.06264,2.06264,0,0,0-.87961-.51912.66268.66268,0,0,0-.7507.36055c-.24.67568.36641,1.08261.84491,1.42714a9.13081,9.13081,0,0,0,1.57151.92121,9.50438,9.50438,0,0,0,3.67657.8509,6.30158,6.30158,0,0,0,3.62585-.86152,4.195,4.195,0,0,0,1.77342-3.20423,7.25927,7.25927,0,0,0-.88792-3.78577,28.68347,28.68347,0,0,0-2.10672-3.55317,52.02886,52.02886,0,0,0-5.17888-6.192,8.16319,8.16319,0,0,1-2.08817-3.22379c-.07712-.27524-.32885-.97239.1575-.91873.42824.04724.76265.79512.94078,1.14A.69375.69375,0,0,0,114.217,49.376a4.53207,4.53207,0,0,0,4.0223-6.034,5.59856,5.59856,0,0,0-7.39917-2.8178l-.00177.0008a7.91522,7.91522,0,0,0-4.31253,8.151c.428,3.42793,2.72354,6.15445,5.14466,8.4503,2.25736,2.14055,4.92028,4.20114,6.27887,7.06073-3.88729-.2844-6.99376-3.62046-9.168-6.6197-1.38967-1.91706-2.78382-3.97836-4.96677-5.0639a14.47905,14.47905,0,0,0-3.8258-1.117q-2.05525-.385-4.13823-.59269a49.26837,49.26837,0,0,0-5.54043-.28936c.21724-.089.43406-.17917.64728-.2773a16.2402,16.2402,0,0,0,5.68985-4.3077.87943.87943,0,0,0,.07724-.11351,4.19182,4.19182,0,0,0,1.52636-.27249,10.69229,10.69229,0,0,0,1.92644-.86164,11.33317,11.33317,0,0,0,1.61595-1.08438c.2828-.22741.5601-.46275.82429-.7116a3.41189,3.41189,0,0,0,.35449-.37.99259.99259,0,0,0,.20217-.37972.53676.53676,0,0,0,.012-.07925c.44874-.08664.897-.223,1.31884-.3306.7284-.18585,1.44873-.39492,2.15527-.652a31.52657,31.52657,0,0,0,4.16022-1.86993,26.48623,26.48623,0,0,0,7.177-5.47725.74818.74818,0,0,0,.20852-.56064c.09815-.07884.19526-.15809.29091-.23676a16.95515,16.95515,0,0,0,2.02481-2.00888,24.10682,24.10682,0,0,0,1.74038-2.27863,9.47312,9.47312,0,0,0,1.39108-2.50269A.67881.67881,0,0,0,123.661,25.78575Zm-87.87606,70.179c-.07758.01425-.1569.02674-.2355.03984a1.62846,1.62846,0,0,0-.14973-.79467c-1.156-6.164-2.27489-12.33654-3.48059-18.49077l-.52079-2.65834c-.14835-.75714-.25779-1.54818-.47922-2.294.14285-.05269.28246-.12388.42452-.17567a3.81061,3.81061,0,0,1,.54326-.1492,3.94975,3.94975,0,0,1,.6336-.036.76526.76526,0,0,0-.41985.90528c1.25546,6.02257,2.50094,12.04744,3.77572,18.06593l.45638,2.1548a.64831.64831,0,0,0,.11214.54215c.16363.80973.29693,1.64241.53576,2.42974a.64716.64716,0,0,0,.12575.232c-.44086.07432-.88175.1479-1.3215.22892Zm2.59588-.44423a.64176.64176,0,0,0,.01311-.26358,8.7461,8.7461,0,0,0-.33605-1.93335l-.00429-.01922c.09658-.00991.19322-.025.28987-.03842a.81113.81113,0,0,0,.07124.0849c.01651.01664.03165.03463.04766.05172a2.76237,2.76237,0,0,1,.30224.48716c.03332.07393.0661.14813.10142.22127l-.09344-.19967a2.48356,2.48356,0,0,1,.167.50045c.00916.07677.01979.15336.02176.231a.87856.87856,0,0,0,.27364.59492.84767.84767,0,0,0,.16288.11378l-1.01709.169Zm2.68031-.44545-.61328.10191a.82955.82955,0,0,0,.22355-.59988,3.21415,3.21415,0,0,0-.39171-1.42183,1.4048,1.4048,0,0,0-.14012-.19843l.90814-.14636a.5125.5125,0,0,0-.00464.13219,7.48428,7.48428,0,0,0,.24477,1.05623,3.26406,3.26406,0,0,0,.34059.98257c-.18911.03135-.37829.06217-.56735.0936Zm1.6609-1.98993a4.41106,4.41106,0,0,0-.20794-.51108l.23473-.03781a3.91134,3.91134,0,0,0-.01114.45547,1.99914,1.99914,0,0,0,.01957.19931Zm1.855,1.40979a.84806.84806,0,0,0,.00642-.15548,3.12784,3.12784,0,0,0-.09288-.47513l-.1243-.56836a4.23183,4.23183,0,0,0-.13319-.56553c-.051-.13742-.10842-.27147-.17071-.40323l.32312-.05063c-.00069.02081-.00029.04161-.00146.06242a.96973.96973,0,0,0-.004.217c.00872.07376.02236.14717.03351.22048.03226.21223.0671.42369.107.63459l.17082.904a.52363.52363,0,0,0,.05884.15132Zm2.95944-2.48214a2.91853,2.91853,0,0,0-.25793.45281L47.275,92.443a2.31068,2.31068,0,0,0-.183-.60316c.25888-.0433.51694-.08952.77538-.13459a.81263.81263,0,0,0-.33089.30752ZM113.5565,47.08543l-.00448.01588c-.01316.051-.02081.10264-.02944.15418a2.20552,2.20552,0,0,0-1.68448-.58822,2.13237,2.13237,0,0,0-.43051.0887l.00823-.01762c.02909-.05514.06179-.10786.09368-.1614l.00189-.0029c.01919-.02471.0541-.07131.06222-.081q.06-.07188.1252-.13923c.01217-.01255.09012-.08554.115-.11039l.00776-.00614c.03373-.024.06638-.049.1007-.07232q.08922-.06067.18384-.11278c.00921-.00507.03334-.01706.05315-.027l.01-.0043c.05914-.026.11654-.05587.17356-.0858l-.00843.00431c.01518-.00166.1192-.02991.15088-.04037l.00219-.00036c.05009-.00386.09979-.00917.15008-.01075.016-.00046.07679.001.11242.00118.02008.00252.0419.00526.05079.00688.03029.00556.06053.01163.09044.01891a.56655.56655,0,0,1,.06906.02136c.04642.02177.09315.04235.13777.06869.01326.00783.02639.01631.03943.02486l.00117.00163c.03232.03831.08055.06911.11666.10466.05548.05458.10966.1465.03931.03606.0377.05915.08261.11323.11916.17355.01187.01958.05155.09948.06379.12025.01384.04.02951.07916.0422.11963.00774.02476.0152.04966.02189.07476.00232.00874.008.03615.01308.06.00341.03573.0099.0945.01065.11163.00209.04731-.00039.13687.00157.13452-.0038.0397-.00755.0793-.01038.119ZM48.02976,67.06055c.08223-.07659.16037-.1561.23754-.23614a.77239.77239,0,0,0,.09177.229c.01638.027.035.05242.05182.07916A2.37547,2.37547,0,0,0,48.02976,67.06055Zm7.7073,16.36509a7.39,7.39,0,0,1-.20453,1.56926.80583.80583,0,0,0-.38284.47318,7.78589,7.78589,0,0,1-.43462,1.09564,2.49694,2.49694,0,0,1-.22875.22021.71476.71476,0,0,0-.29071.65761,6.7269,6.7269,0,0,1-.73075.875,5.90009,5.90009,0,0,1-1.3,1.0001c-.21591.126-.43123.25119-.64886.37348a.69984.69984,0,0,0-.06286-.30291c-.15-1.76716-.434-3.53183-.69427-5.284q-.41124-2.76867-.88981-5.52663c-.27476-1.58564-.5644-3.169-.88077-4.74682L49.9951,75.548c.44963.76741.85471,1.56129,1.75341,1.86545a2.63524,2.63524,0,0,0,1.31341.03479,3.12988,3.12988,0,0,0,1.20036-.43068,1.06638,1.06638,0,0,0,.19773-.193A13.11754,13.11754,0,0,1,55.73706,83.42564ZM48.99871,65.89833a5.84269,5.84269,0,0,0,.2989-.50842,6.27515,6.27515,0,0,0,.47338.93c-.06455-.06871-.12593-.141-.19261-.20728A.71816.71816,0,0,0,48.99871,65.89833Zm2.46107,2.49011a16.756,16.756,0,0,1,1.95314,2.1417,4.72837,4.72837,0,0,1,.69443,1.35728,2.1021,2.1021,0,0,1,.05364.23633.63012.63012,0,0,0-.06922-.04215,1.21818,1.21818,0,0,0-.14612-.5326,2.9888,2.9888,0,0,0-.27024-.40792,5.27594,5.27594,0,0,0-.70709-1.05863,9.1171,9.1171,0,0,0-.95607-1.01285l-.01771-.01275C51.81571,68.83453,51.63862,68.61078,51.45978,68.38844ZM75.29922,54.12219a.25587.25587,0,0,0-.31872.17132l-.00572.02277a10.38629,10.38629,0,0,0-4.11919.69312,5.74231,5.74231,0,0,0,.09813-2.37178,8.7445,8.7445,0,0,0-1.02208-3.05674,8.29647,8.29647,0,0,0-1.28037-1.72329.63109.63109,0,0,0,.61286-.42866,4.31988,4.31988,0,0,0-.18592-2.23763,6.35766,6.35766,0,0,0-.9279-1.92461,6.07917,6.07917,0,0,0-1.517-1.51044,8.12365,8.12365,0,0,0-1.8472-.87223.233.233,0,0,0-.00388-.31824c-.04951-.05946-.07139-.14417-.12606-.20948a1.37876,1.37876,0,0,0-.16513-.16575,1.90564,1.90564,0,0,0-.4722-.27c-.15644-.06978-.31465-.13521-.475-.19469.02626-.00761.05157-.01822.078-.0255.19643-.05423.38721-.11366.58122-.17579a1.17078,1.17078,0,0,0,.70552-.39442.42431.42431,0,0,0-.05729-.70512l-.05861-.0295a.65581.65581,0,0,0-.3704-.16173,2.49161,2.49161,0,0,0-.44577-.00631,3.35624,3.35624,0,0,0-.73275.12722q-.29181.08745-.57453.20161c-.10152.041-.20168.085-.30114.13065a.76553.76553,0,0,0-.39754.33075l-.01463.02975a.68413.68413,0,0,0-.16228.26249l-.01148.01286a.41514.41514,0,0,0-.0455.06931,2.16568,2.16568,0,0,0-.78721.08792.5481.5481,0,0,0-.391.51365.53769.53769,0,0,0,.391.51364,9.63192,9.63192,0,0,0,1.008.03617c.27458.017.6162.05069.84876.0848a6.50428,6.50428,0,0,1,.83508.18791c.13677.04109.27123.09811.41115.12788a1.77271,1.77271,0,0,0,.28769.03726,1.416,1.416,0,0,0,.16162-.01472.23893.23893,0,0,0,.07644.35594,6.20772,6.20772,0,0,1,2.614,2.60956,7.00918,7.00918,0,0,1,.68533,1.64037c.15715.59327.16768,1.20282.26471,1.8044a6.4893,6.4893,0,0,0-3.071-1.50344c-.3637-.06545-.62255.484-.24192.64161A8.30721,8.30721,0,0,1,68.937,50.14351a7.46206,7.46206,0,0,1,.87278,2.53808c.00528.03714.00612.07517.01085.11245-1.0868-2.17335-3.112-4.24853-5.63276-3.89693-.502.07-.49642.83375.0309.80408a4.47317,4.47317,0,0,1,3.40429,1.91137,8.05269,8.05269,0,0,1,1.6145,3.10315,8.79428,8.79428,0,0,1,.24974,3.47515A9.92575,9.92575,0,0,1,69.084,59.931c-.04221.129-.08885.25571-.13347.38162-.03158-.0843-.06782-.16725-.09653-.25217a18.50385,18.50385,0,0,1-.68382-6.65c.01078-.271-.44912-.32026-.48077-.04632-.09054.7837-.20635,1.57184-.28856,2.36191-.03-.07013-.06023-.13936-.089-.20347a7.262,7.262,0,0,0-.51322-.92754,13.15619,13.15619,0,0,0-1.29312-1.7332,12.07268,12.07268,0,0,0-3.31877-2.64734c-.36573-.19409-.82634.322-.467.60519A20.87491,20.87491,0,0,1,64.6564,53.575a17.8985,17.8985,0,0,1,1.1906,1.52055c.191.27874.371.56456.563.84259.09237.1337.2005.25341.29253.38693a2.49325,2.49325,0,0,0,.33811.46282.37145.37145,0,0,0,.27267.08872,11.829,11.829,0,0,0,.008,1.31585,9.19559,9.19559,0,0,0,1.09024,3.89291,6.98712,6.98712,0,0,0,1.46694,1.85551c-.12336.035-.24471.08041-.3731.12769a.30869.30869,0,0,0-.21276.25713,4.16545,4.16545,0,0,1-1.57838.35161,15.48807,15.48807,0,0,1-4.05249-4.30871,23.89188,23.89188,0,0,1-1.63936-3.30277c-.23617-.57111-.45682-1.1485-.67054-1.72829a4.95945,4.95945,0,0,0-.78333-1.68348.30953.30953,0,0,0-.52238.2164,4.88487,4.88487,0,0,0,.47233,1.87111c.2228.63486.455,1.26653.70683,1.89041a21.34221,21.34221,0,0,0,1.74145,3.47746,13.04358,13.04358,0,0,0,2.67608,3.13622,5.7111,5.7111,0,0,1-1.00661-.56154c-1.804-1.26574-2.796-3.33022-4.014-5.09862a.4593.4593,0,0,0-.64345-.08881l-.01894.01515a3.45871,3.45871,0,0,0-.79864-.74926c-.31978-.21109-.74475.17531-.6216.517.25294.70188.68127,1.31646.96342,2.00524a8.7372,8.7372,0,0,1,.557,2.01482,9.17559,9.17559,0,0,1-.34587,4.26081,9.96772,9.96772,0,0,1-2.12458,3.52492,14.86138,14.86138,0,0,1-2.15569,1.96106A4.50492,4.50492,0,0,0,55.257,71.421c1.28347-.47053,1.89393-2.29187,2.22079-3.51165a20.893,20.893,0,0,0,.60814-3.38582c.05691-.58474.08332-1.17108.084-1.75857a8.07007,8.07007,0,0,0-.01614-.84187,1.02364,1.02364,0,0,0-.33228-.64752.31139.31139,0,0,0-.52807.02036c-.1005.15655-.21348.23677-.25043.43776a4.011,4.011,0,0,0-.01368.73819q.00328.71614-.04316,1.43122a21.53267,21.53267,0,0,1-.39661,3.01917,11.9766,11.9766,0,0,1-.75639,2.58848,2.57725,2.57725,0,0,1-.89818,1.15789c-.01094-.02143-.02179-.046-.03265-.06676a10.59784,10.59784,0,0,0-2.03071-2.52871,13.11574,13.11574,0,0,1-2.14322-2.45108A3.36491,3.36491,0,0,1,50.21,62.74238a.49547.49547,0,0,0-.06937-.4969c.03672-.05986.076-.11839.112-.17868a15.62084,15.62084,0,0,0,1.26968-2.7188,7.64909,7.64909,0,0,0,.63491-3.04377c-.03637-.451-.72234-.69082-.92759-.2134-.37055.86215-.52015,1.8171-.83561,2.70236a16.0844,16.0844,0,0,1-1.22445,2.61469,14.97519,14.97519,0,0,1-1.62984,2.29993,17.61834,17.61834,0,0,1-1.50111,1.485,6.0891,6.0891,0,0,1,.0085-4.62826,7.32348,7.32348,0,0,0,.92737-.57572,6.45535,6.45535,0,0,0,2.66886-4.03741.597.597,0,0,0-.20277-.55924.31774.31774,0,0,0-.46485-.10732.51512.51512,0,0,0-.36666.27661,9.69862,9.69862,0,0,1-.91669,1.91671,6.47161,6.47161,0,0,1-1.40519,1.48426.46981.46981,0,0,0-.52051.18487c-.06755.09687-.12943.19676-.19136.29664a6.2768,6.2768,0,0,1-.95532.46068.59782.59782,0,0,0-.51165.17975c-.22561.07075-.453.13645-.68349.18541-.1615.03427-.324.05587-.48611.0857-.19767.0364-.36939.13326-.5673.17638a.27045.27045,0,0,0-.13708.07615.49875.49875,0,0,0-.41441-.09067c-.00971.0023-.0207-.0046-.03079-.005a.46386.46386,0,0,0-.06172-.01036c-.22479-.114-.50845-.7303-.60849-.9181A14.17364,14.17364,0,0,1,40.42084,58.06a15.68892,15.68892,0,0,1-1.06319-6.58185c.02384-.46012.06258-.92137.11686-1.37949a16.92288,16.92288,0,0,0,.552,2.811,19.516,19.516,0,0,0,1.00767,2.97878,3.71176,3.71176,0,0,0,.8428,1.96567.38412.38412,0,0,0,.63734-.29325,5.438,5.438,0,0,0-.24469-1.4623A9.76382,9.76382,0,0,1,42.05578,54.7a11.57684,11.57684,0,0,1,.13806-2.90377,10.82211,10.82211,0,0,1,.83329-2.72117c.20989-.45356.42686-.90779.67432-1.34221.245-.43019.45166-.88444.72956-1.29349.22691-.334-.27934-.6226-.5403-.38472a7.64582,7.64582,0,0,0-1.13448,1.17145,8.34194,8.34194,0,0,0-.81264,1.34764,12.09238,12.09238,0,0,0-.97006,3.07641c-.00478.02793-.00673.05643-.01131.08441A12.32866,12.32866,0,0,1,40.6101,49.09a7.29858,7.29858,0,0,1,2.32235-5.72212c.40347-.31891.0176-.97185-.43862-.68827a5.94893,5.94893,0,0,0-2.2839,2.52,8.44522,8.44522,0,0,0-.73265,2.72239.28458.28458,0,0,0-.40056.0388l-.00444.00554a4.12023,4.12023,0,0,0-.69113,1.88744c-.01854.09623-.03293.19289-.04905.28941a.4791.4791,0,0,0-.5.059,8.00017,8.00017,0,0,1-4.06892-3.718,7.59574,7.59574,0,0,1-.111-6.55058,10.41067,10.41067,0,0,1,1.78455-2.6564c.09835.16551.2014.32722.31163.48106a6.53825,6.53825,0,0,0,2.11975,1.93667,4.13261,4.13261,0,0,0,1.6228.52856,2.46812,2.46812,0,0,0,.81422-.05609,1.07242,1.07242,0,0,0,.747-.65281.56846.56846,0,0,0-.48442-.84415,2.58481,2.58481,0,0,0-.27568-.06634,3.0209,3.0209,0,0,0-.39595.06791,1.72852,1.72852,0,0,1-.51025-.01625,3.1233,3.1233,0,0,1-1.03988-.427,4.95759,4.95759,0,0,1-1.5427-1.46477,5.72173,5.72173,0,0,1-.52871-.97255.68042.68042,0,0,0,.01117-.29773,6.61956,6.61956,0,0,1-.2907-1.96345,5.655,5.655,0,0,1,.58722-1.94475A12.02214,12.02214,0,0,1,39.09,28.29127a18.84383,18.84383,0,0,1,7.119-4.13c5.71193-1.92206,12.48681-2.12119,17.90106.798a15.97632,15.97632,0,0,1,3.64949,2.681,13.52371,13.52371,0,0,1,1.4689,1.7021c.42089.58182.75968,1.204,1.20477,1.76151a5.23129,5.23129,0,0,0-.53941.43988l-.01913.00793a.36873.36873,0,0,0-.18831.194A3.81416,3.81416,0,0,0,68.60485,34.081a4.04813,4.04813,0,0,0,.02462.89489c-.10814.12057-.218.2396-.33487.352q-.16214.15587-.33649.29826c-.02114.01727-.04286.03434-.06443.05149l-.01014.00711c-.06774.0487-.13523.09753-.20452.14406-.09928.06667-.20234.1283-.30565.18944a5.87654,5.87654,0,0,0,.13421-1.46565c-.02345-.7163-.11734-1.66764-.82274-2.04468a3.42268,3.42268,0,0,0-2.20286-.0466,3.77379,3.77379,0,0,0-2.0259,1.23762.40988.40988,0,0,0,.51869.62136,5.686,5.686,0,0,1,.9575-.38924c.07524-.02435.15407-.04947.23418-.0742-.06218.05286-.125.10477-.18444.162a3.29809,3.29809,0,0,0-1.02631,2.50833.408.408,0,0,0,.81542-.03134c-.00467.05741.00945-.0742.01171-.08928q.01155-.07671.02747-.15264.02746-.13027.0676-.25752c.011-.035.02305-.06985.03555-.10442.00494-.01047.027-.06449.03153-.07487q.05772-.13173.12821-.25729c.04715-.08434.0993-.16562.15108-.24715.01712-.027.03475-.05359.05232-.08024-.00254.00472.04091-.05886.05087-.07183a3.29625,3.29625,0,0,1,.39258-.42793c.00527-.00483.05165-.045.061-.05388.0259-.02083.05182-.04166.07832-.06165q.11588-.08742.23916-.16431c.08227-.05129.1669-.09723.25268-.14221l.01837-.00991.01833-.00735c.041-.017.08179-.03442.12325-.05029a5.14818,5.14818,0,0,0,.59951-.18889,4.3913,4.3913,0,0,1-.122,1.75323,4.87745,4.87745,0,0,1-.30169.85735c-.07613.16429-.15717.328-.24.48909a1.76831,1.76831,0,0,0-.251.56c-.04934.392.28887.8695.7378.68319a1.69422,1.69422,0,0,0,.70755-.6587,3.17522,3.17522,0,0,0,.78515-.21375,5.08751,5.08751,0,0,0,.98149-.498,6.93962,6.93962,0,0,0,.76685-.58519,2.61189,2.61189,0,0,0,.51978.562,2.54619,2.54619,0,0,0,.88869.4525,5.735,5.735,0,0,0-2.01422,2.81c-.00456.01386-.006.02776-.00945.04165-.09059-.08432-.17653-.17336-.27183-.25271a6.54443,6.54443,0,0,0-2.63623-1.29727c-.38194-.09625-.63207.50793-.24983.66262a7.14133,7.14133,0,0,1,3.584,3.50635,6.631,6.631,0,0,1,.63449,2.3565,6.78105,6.78105,0,0,1-.01159,1.20734c-.04343.4059-.15373.81135-.169,1.22063-.124.486.60139.95241.95417.49687a4.30072,4.30072,0,0,0,.56106-2.91823,8.14009,8.14009,0,0,0-.857-2.93418,7.56559,7.56559,0,0,0-.59324-.96761.45855.45855,0,0,0,.18285-.13856.58814.58814,0,0,0,.15842-.07765.88922.88922,0,0,0,.29122-.31453c.11124-.2081.17778-.4421.29173-.652a4.285,4.285,0,0,1,.76593-1.017A3.856,3.856,0,0,1,73.34309,38.109a1.03538,1.03538,0,0,0,.37581-.13014.51849.51849,0,0,0,.2518.294A2.44722,2.44722,0,0,1,75.2126,39.584a2.95348,2.95348,0,0,1,.07374,1.93742,4.84,4.84,0,0,1-3.4494,2.77822c-.39424.10514-.29084.77259.12565.71922A5.0294,5.0294,0,0,0,75.102,43.65059a.71092.71092,0,0,0,.093.04711l.00881.00828c.01365.01877.02738.03752.03956.05733a.9166.9166,0,0,1,.12341.56254,5.19173,5.19173,0,0,1-.27077,1.81284,3.06171,3.06171,0,0,1-.44577.80613.51252.51252,0,0,0-.4922.51464,2.40219,2.40219,0,0,1-1.48224.5827.29037.29037,0,0,0-.055.5702,2.56078,2.56078,0,0,0,1.80536-.1731,3.76725,3.76725,0,0,1-.44192,2.39,4.04508,4.04508,0,0,1-2.63244,1.99257c-.42785.1128-.28538.73921.12951.74138a4.15891,4.15891,0,0,0,3.38655-2.262,4.96812,4.96812,0,0,0,.37876-.85635,2.678,2.678,0,0,1,1.77054.895.40514.40514,0,0,0,.15247.20817,1.67625,1.67625,0,0,1,.27725.84278,1.47363,1.47363,0,0,1-.15506.70206,1.92018,1.92018,0,0,1-.49611.63716A1.69352,1.69352,0,0,1,75.29922,54.12219ZM91.77946,32.78661q3.20566-.344,6.41031-.69852c1.4048-.15307,2.80874-.31351,4.21328-.46861a.85585.85585,0,0,0,.171.2363c-.04464.04582-.08622.09467-.1334.1364a3.72656,3.72656,0,0,1-.65784.44438,12.34894,12.34894,0,0,1-1.49085.6602,35.5888,35.5888,0,0,1-3.461,1.16041,32.36947,32.36947,0,0,1-3.47686.7802c-1.03769.17149-2.08834.25-3.12788.40091-.0009-.157-.00378-.314-.00358-.47048,0-.03095.00676-.06178.00927-.09269.12066-.08618.2424-.17073.35708-.26577C91.02972,34.24411,91.89112,33.4528,91.77946,32.78661Zm2.37782,3.39506a32.89558,32.89558,0,0,0,4.21094-1.01113c.36513-.1149.731-.23663,1.0963-.36245a.48734.48734,0,0,0,.15064.09224,1.42,1.42,0,0,0,.30811.074,8.95924,8.95924,0,0,1-.8946,1.03313,9.99665,9.99665,0,0,1-2.615,1.81245,16.85651,16.85651,0,0,1-3.518,1.18566c-.9608.22913-1.95766.36275-2.9171.61031-.06791-.06122-.13787-.121-.20925-.17852-.31478-.25388-.61775-.54264-.95446-.76566A4.04742,4.04742,0,0,0,90.111,36.60589,19.58286,19.58286,0,0,0,94.15728,36.18167ZM88.83244,40.2673a.218.218,0,0,0,.20211.19406,1.36843,1.36843,0,0,0,.17481.13928c-.08753.07681-.15911.1793-.23929.26477A11.00605,11.00605,0,0,1,86.59631,42.783a12.157,12.157,0,0,1-2.74382,1.17934c-.59761.18045-1.214.28578-1.823.41644a3.3176,3.3176,0,0,0,.02678-.39151,2.71253,2.71253,0,0,0-.962-2.07126,3.27528,3.27528,0,0,0-.78049-.47973.89726.89726,0,0,0,.23873-.12976,1.30307,1.30307,0,0,0,.26268-.25547c.01426-.01944.02279-.03932.03569-.05866a.47108.47108,0,0,0,.17724.00211A30.232,30.232,0,0,0,87.0354,39.745a6.62571,6.62571,0,0,0,.817-.39154,5.61427,5.61427,0,0,0,.82578.76836C88.72382,40.16016,88.777,40.2122,88.83244,40.2673Zm-8.21766,2.83105c.03775.05525.07187.11256.10437.171.00356.00644.0186.03792.02861.05842l.02366.06131c.02134.06192.04255.12357.05938.18694.00749.02836.01386.057.02024.08558.003.01585.00792.04228.01.06187a1.68445,1.68445,0,0,1-.05478.77006c-.01693.06486-.03669.12883-.05793.19241l-.003.0091c-.01175.02919-.02394.05835-.03676.0871a3.00066,3.00066,0,0,1-.22079.40265c-.02058.0319-.04161.06411-.06284.0955l-.01676.02523-.0112.01313c-.04693.05961-.0953.11783-.147.17343a1.2006,1.2006,0,0,1-.29184.25415,1.99374,1.99374,0,0,1-.21646.12792l-.00618.00317-.017.00675c-.04354.01784-.0875.03451-.13221.04932-.04505.01494-.08834.02924-.1314.044a3.73339,3.73339,0,0,0-1.21347-.11562,10.06172,10.06172,0,0,0-1.42588.24383,5.97655,5.97655,0,0,1-.59881.09474c.01472-.04451.03338-.08713.047-.13214a6.33978,6.33978,0,0,0,.22876-1.318,3.04168,3.04168,0,0,0-.06587-1.2139A1.66154,1.66154,0,0,0,75.88,42.7318a4.26776,4.26776,0,0,0,.33307-.64088,9.29716,9.29716,0,0,1,2.07126-.04416,4.10293,4.10293,0,0,1,1.74768.50242A2.06807,2.06807,0,0,1,80.61478,43.09835Zm-4.73424,3.88979a5.44285,5.44285,0,0,0,1.64428-.014,3.854,3.854,0,0,1,1.73041.05784.922.922,0,0,1,.69593.88178,2.49706,2.49706,0,0,1-.93917,1.46888,10.99452,10.99452,0,0,1-.93533.74111q-.23064.17089-.46534.33618a3.25782,3.25782,0,0,0-.50288-.43869,3.51559,3.51559,0,0,0-1.64481-.60717,4.1748,4.1748,0,0,0-.15168-1.63983A3.85024,3.85024,0,0,0,75.88054,46.98814ZM82.497,55.1516c-.34566.20224-.7091.38127-1.05018.58979-.14523.08872-.28521.18249-.42558.27546a2.8491,2.8491,0,0,0-.68564-.50186,10.25165,10.25165,0,0,0-3.12169-.99382A2.76694,2.76694,0,0,0,78.1528,53.487a2.428,2.428,0,0,0,.13627-.32434.555.555,0,0,0,.41095.072,3.3061,3.3061,0,0,1,1.35954.00142c.25714.05516.51668.09332.771.16221a5.618,5.618,0,0,1,.62164.21065,4.885,4.885,0,0,1,1.21358.701c.16937.13826.326.28777.48246.43715C82.93231,54.88774,82.71438,55.02445,82.497,55.1516Zm27.44285-17.33936a28.56084,28.56084,0,0,1-3.90568,1.77546c-.65777.24144-1.31669.48152-1.98533.69144a13.98015,13.98015,0,0,0-2.15091.68971.49515.49515,0,0,0-.29751.51574c-.05452.0528-.10818.10659-.1622.15963-.18766.1843-.42385.40134-.5969.54419a10.96968,10.96968,0,0,1-1.5196,1.04552,11.72082,11.72082,0,0,1-1.51988.71585,7.67413,7.67413,0,0,0-1.54107.65494.67292.67292,0,0,0-.78608.22893,14.74633,14.74633,0,0,1-5.11509,3.98482A16.35553,16.35553,0,0,1,87.218,49.892a13.27568,13.27568,0,0,1-1.51387.27313c-.16224.01946-.33129.03469-.49936.05623a1.89852,1.89852,0,0,0-.51526-.07575.75935.75935,0,0,0,.05832,1.51757l.00557.00013.06536.01528-.03158-.01441h.00036l.035.01587.05945.0315c.01677.00741.02874.012.03726.01481a.3209.3209,0,0,0,.02506.02833c.01666.01729.07552.08144.08734.08983.03274.0465.06314.09427.0941.14209a.438.438,0,0,0,.02758.03922.28217.28217,0,0,0,.01049.04423c.01583.05392.0326.10727.048.16119.00145.01807.01938.11157.02068.13521.00128.02355-.00138.10377,0,.128a1.869,1.869,0,0,1-.04208.20174,1.73,1.73,0,0,1-.17225.38132,3.47669,3.47669,0,0,1-.66919.76479c-.03328.03015-.07087.05844-.1051.08824a4.07134,4.07134,0,0,0-.70507-.6794,6.05906,6.05906,0,0,0-1.55581-.88654,5.34564,5.34564,0,0,0-3.56556-.0391,2.63125,2.63125,0,0,0-.203-.94232c.18182-.11356.35466-.24646.53325-.376.34271-.24847.68283-.50155,1.00327-.77843a3.56163,3.56163,0,0,0,1.271-1.91912A1.93989,1.93989,0,0,0,80.5943,46.675a2.91168,2.91168,0,0,0,.6703-.553,3.01636,3.01636,0,0,0,.53609-.867,7.42039,7.42039,0,0,0,2.61157-.23929A10.82785,10.82785,0,0,0,87.7556,43.5354a11.69783,11.69783,0,0,0,1.43459-1.10115,5.37472,5.37472,0,0,0,1.22124-1.36547.98112.98112,0,0,0,.11178-.5809,20.05169,20.05169,0,0,0,2.63967-.366,15.76237,15.76237,0,0,0,3.91542-1.25909,11.198,11.198,0,0,0,2.62752-1.76661,1.29189,1.29189,0,0,1,.04141.722.54741.54741,0,0,0-.23371.9181A4.16326,4.16326,0,0,1,98.8,39.9241a7.51982,7.51982,0,0,1-3.20172,2.019c-1.32269.495-2.68427.90226-4.04041,1.29429a18.10079,18.10079,0,0,1-2.21284.5155,15.35682,15.35682,0,0,0-2.16133.27783c-.29179.09117-.39388.59371-.06587.71774a5.57234,5.57234,0,0,0,2.6106.04943c.151-.02037.30178-.04469.45252-.0686a2.398,2.398,0,0,1-.16544.73362,2.245,2.245,0,0,1-.81575.69051,9.03774,9.03774,0,0,1-2.21771.91619,9.87386,9.87386,0,0,1-4.80089.07138c-.5638-.13354-.73146.6825-.2021.86085a9.80664,9.80664,0,0,0,5.94631.0954,7.24931,7.24931,0,0,0,2.61682-1.28439c.54709-.46618,1.29856-1.64554.6695-2.27424.35086-.074.70024-.1548,1.04612-.24567a29.32208,29.32208,0,0,0,4.868-1.63726,6.92476,6.92476,0,0,0,3.38372-2.99386,5.10851,5.10851,0,0,0,.35032-.87174,46.75554,46.75554,0,0,0,7.93128-1.37855c1.17385-.29941,2.33422-.649,3.48148-1.03765C111.52318,36.88612,110.74889,37.36809,109.93985,37.81224Zm6.1174-4.4247c-.19987.17748-.4013.352-.60332.52557-.23039.10158-.45442.21609-.66232.3q-1.0211.41215-2.05962.77923c-1.38416.48982-2.79039.9172-4.20974,1.29256a56.05152,56.05152,0,0,1-7.486,1.37245c.00032-.04277.00255-.08551.0013-.12826a2.08692,2.08692,0,0,0-.46027-1.33,7.93435,7.93435,0,0,0,.48706-.64187c.11524-.17111.24267-.36015.36094-.55867.21583.0016.43165.00082.64692-.0066.83764-.02888,1.6793-.106,2.51342-.18665,1.61489-.15619,3.22364-.39855,4.82127-.67884,1.59726-.28017,3.19528-.5984,4.76474-1.00849.78476-.205,1.56474-.43063,2.34074-.66642.1495-.04543.30423-.089.46056-.13262A5.87639,5.87639,0,0,0,116.05725,33.38754ZM119.34,29.81642c-.22129.264-.45465.51629-.68825.76842-.00814.00051-.01469-.00281-.023-.0019a15.40022,15.40022,0,0,0-2.32785.62777q-1.17447.32441-2.35991.607c-1.5798.37777-3.15875.7443-4.75731,1.03572s-3.207.50434-4.8199.69761c-.80112.096-1.60534.15871-2.40683.24943.11145-.05131.22367-.1013.33233-.15714.67756-.34818,1.967-1.31448,1.8721-2.21937q3.93833-.43718,7.87649-.87606c2.47606-.28028,4.95079-.55961,7.42145-.88267C119.41849,29.71479,119.38128,29.76716,119.34,29.81642Zm1.53157-2.07c-.16738.25919-.34751.50917-.52655.75993a.54343.54343,0,0,0-.44387-.1385c-9.30754.85843-18.591,2.05164-27.87481,3.13351-1.3198.1538-2.63668.33038-3.9542.50253a21.27157,21.27157,0,0,0-3.8764.6123.4045.4045,0,0,0,.13724.78563,19.25771,19.25771,0,0,0,3.513-.23218c.77334-.07307,1.54708-.14455,2.32042-.21906a3.98213,3.98213,0,0,1-.43915.48385.95053.95053,0,0,0-.7012.5367,9.82113,9.82113,0,0,1-1.40294.72374c-.849.36517-1.71585.69575-2.577,1.03116-.96057.37414-1.9336.75076-2.91983,1.04871-.30794.093-.23487.63019.10051.5754a29.19939,29.19939,0,0,0,6.11938-1.47545c.145-.05738.28762-.12066.43031-.18362a2.68973,2.68973,0,0,1-.10054.75232,3.16443,3.16443,0,0,1-1.44607,1.67389,10.43874,10.43874,0,0,1-2.97239,1.02848c-1.07567.26377-2.12341.6374-3.184.95769a1.47044,1.47044,0,0,0-.09627-.49321,1.19832,1.19832,0,0,0-.247-.417,1.2354,1.2354,0,0,0-.28605-.202.49285.49285,0,0,0-.4003-.02c-.01624-.00148-.03211-.005-.04847-.0064a.308.308,0,0,0-.27728.20239.317.317,0,0,0,.042.29485.59544.59544,0,0,0,.08389.22608,1.01,1.01,0,0,1,.04966.09195l-.05558-.11876c.02356.05273.04879.10448.07334.15654a1.07869,1.07869,0,0,1,.06682.211q.00516.058.0047.11621a1.129,1.129,0,0,1-.0439.18776,1.40178,1.40178,0,0,1-.07249.137,1.69972,1.69972,0,0,0-.22147.2687.49727.49727,0,0,0,.00929.48119,4.20013,4.20013,0,0,0-.868-.107,5.731,5.731,0,0,0-1.39144.142c-.31991.074-.64422.1306-.9673.1934.36567-1.63117-.37733-3.6934-2.0564-4.2377a.5224.5224,0,0,0-.2154-.02492,1.01524,1.01524,0,0,0-.24746-.60493,2.1583,2.1583,0,0,0-1.5987-.65875,7.1245,7.1245,0,0,1-1.31324-.04071,1.536,1.536,0,0,1-.93062-1.54878,2.60773,2.60773,0,0,1,1.23038-2.17813c.03879-.02763.08-.05257.11958-.07938,1.19842-.16666,2.38158-.41985,3.5691-.67085q2.50044-.52851,5.01429-.99087,1.25605-.23112,2.51442-.44635a1.69793,1.69793,0,0,1,.164.58147,2.25323,2.25323,0,0,1-.19307,1.10265,6.14285,6.14285,0,0,1-1.726,2.02971,16.55518,16.55518,0,0,1-4.90039,2.94623.346.346,0,0,0,.20928.65909,14.69707,14.69707,0,0,0,5.93094-3.14936A5.61573,5.61573,0,0,0,83.80254,31.595a3.16041,3.16041,0,0,0-.01661-1.83834q3.12847-.51618,6.27083-.94806a194.62679,194.62679,0,0,1,20.25517-1.70135q5.46844-.1724,10.93455.00511c-.11987.216-.24266.42927-.37492.63409Z"/>
          <path class="cls-2" d="M120.26905,112.59612H31.14557a1.08785,1.08785,0,0,1-1.088-1.0877V98.73549a1.08786,1.08786,0,0,1,1.0877-1.088h89.12378a1.08786,1.08786,0,0,1,1.088,1.0877v12.7729a1.08785,1.08785,0,0,1-1.08766,1.088Zm-88.03546-2.17605H119.181V99.82351H32.23359Z"/>
          <g>
            <rect x="35.20166" y="102.09971" width="1.16457" height="6.23296"/>
            <polygon points="36.906 103.006 39.061 103.006 39.061 108.333 40.236 108.333 40.236 103.006 42.402 103.006 42.402 102.1 36.906 102.1 36.906 103.006"/>
            <polygon points="44.107 105.528 46.862 105.528 46.862 104.639 44.107 104.639 44.107 102.998 47.02 102.998 47.02 102.1 42.942 102.1 42.942 108.333 47.177 108.333 47.177 107.435 44.107 107.435 44.107 105.528"/>
            <path d="M52.43142,106.53291a1.77146,1.77146,0,0,0-.842-1.17968,1.66577,1.66577,0,0,0,1.14079-1.54837,1.52143,1.52143,0,0,0-.6063-1.23552,3.39214,3.39214,0,0,0-2.12638-.514,11.33892,11.33892,0,0,0-1.77733.12606l-.10363.01806v6.13323h1.16456v-2.59223h.73334a1.178,1.178,0,0,1,1.30022,1.04154l.00285.02914a6.39113,6.39113,0,0,0,.49072,1.46717l.03718.05438h1.24l-.12253-.1919A8.7093,8.7093,0,0,1,52.43142,106.53291Zm-.86574-2.63929c0,.61447-.57838,1.01143-1.47351,1.01143h-.811v-1.9563a5.1255,5.1255,0,0,1,.77821-.049C50.74663,102.90608,51.56568,103.08383,51.56568,103.89362Z"/>
            <path d="M58.065,105.76653c0,1.18383-.53827,1.78392-1.5997,1.78392-.98412,0-1.526-.6335-1.526-1.78392v-3.66681h-1.175v3.649a2.41328,2.41328,0,0,0,2.66953,2.68147,2.51468,2.51468,0,0,0,2.80632-2.71683V102.0997H58.065Z"/>
            <path d="M66.05875,102.09971l-1.29528,2.97091c-.28589.684-.49144,1.22113-.64531,1.68979-.15068-.477-.3471-1.01364-.6174-1.68979l-1.24137-2.97091H60.894l-.51474,6.233H61.5035l.19788-2.68148c.04669-.663.08619-1.35914.11241-1.97044.15849.48059.36051,1.02533.6252,1.68856l1.17761,2.92775h.86062l1.2838-2.978c.26615-.61473.49426-1.178.69091-1.70637.01622.63982.06182,1.36329.10034,1.97532l.18666,2.74463h1.14494l-.46012-6.233Z"/>
            <path d="M75.57936,106.53291a1.77144,1.77144,0,0,0-.842-1.17968,1.66577,1.66577,0,0,0,1.1408-1.54837,1.52141,1.52141,0,0,0-.6063-1.23552,3.39218,3.39218,0,0,0-2.12639-.514,11.33888,11.33888,0,0,0-1.77732.12606l-.10363.01806v6.13323h1.16456v-2.59223h.73333a1.178,1.178,0,0,1,1.30022,1.04154l.00285.02914a6.39163,6.39163,0,0,0,.49073,1.46717l.03718.05438h1.24l-.12252-.1919A8.70783,8.70783,0,0,1,75.57936,106.53291Zm-.86574-2.63929c0,.61447-.57837,1.01143-1.47351,1.01143h-.811v-1.9563a5.12558,5.12558,0,0,1,.77821-.049C73.89457,102.90608,74.71362,103.08383,74.71362,103.89362Z"/>
            <path d="M81.213,105.76653c0,1.18383-.53828,1.78392-1.5997,1.78392-.98413,0-1.526-.6335-1.526-1.78392v-3.66681h-1.175v3.649a2.41329,2.41329,0,0,0,2.66954,2.68147,2.51472,2.51472,0,0,0,2.80632-2.71683V102.0997H81.213Z"/>
            <path d="M88.74535,102.8278a4.67167,4.67167,0,0,0-2.948-.77247,15.58928,15.58928,0,0,0-1.96106.12533l-.10913.0139v6.10885l.1129.011c.49486.04731,1.05788.07145,1.67345.07145a4.98813,4.98813,0,0,0,3.21328-.88977,3.03073,3.03073,0,0,0,1.06508-2.42179A2.69291,2.69291,0,0,0,88.74535,102.8278Zm-3.05309,4.687c-.23384,0-.556-.00341-.80052-.02926v-4.507a6.34987,6.34987,0,0,1,.9478-.061,3.01243,3.01243,0,0,1,2.20648.70761,1.98837,1.98837,0,0,1,.53937,1.4757c0,1.5567-1.02753,2.414-2.89313,2.414Z"/>
            <rect x="90.7314" y="102.09971" width="1.16457" height="6.23296"/>
            <polygon points="92.435 103.006 94.591 103.006 94.591 108.333 95.766 108.333 95.766 103.006 97.932 103.006 97.932 102.1 92.435 102.1 92.435 103.006"/>
            <polygon points="101.866 102.1 100.701 102.1 100.701 108.333 104.894 108.333 104.894 107.435 101.866 107.435 101.866 102.1"/>
            <polygon points="106.83 105.528 109.585 105.528 109.585 104.639 106.83 104.639 106.83 102.998 109.743 102.998 109.743 102.1 105.665 102.1 105.665 108.333 109.901 108.333 109.901 107.435 106.83 107.435 106.83 105.528"/>
            <path d="M113.83569,102.00217a3.19968,3.19968,0,0,0-3.40987,2.97467q-.01.14615-.00652.29274a3.09829,3.09829,0,0,0,3.0278,3.1672q.14169.00318.28325-.00659a3.17008,3.17008,0,0,0,3.4164-3.27619,3.06194,3.06194,0,0,0-3.31106-3.15183Zm-.05267,5.54827a2.34281,2.34281,0,1,1,2.13842-2.53075q.00713.08478.00808.16992a2.13519,2.13519,0,0,1-2.14652,2.36083Z"/>
          </g>
        </g>
      </g>
    </g>
  </g>
</svg>
