<svg id="Layer_1" data-name="Layer 1" xmlns="http://www.w3.org/2000/svg" width="150" height="150" viewBox="0 0 150 150">
  <defs>
    <style>
      .cls-1 {
        fill: none;
      }

      .cls-2 {
        fill: #7fb4e7;
      }

      .cls-2, .cls-3, .cls-4, .cls-5, .cls-6 {
        fill-rule: evenodd;
      }

      .cls-3, .cls-7 {
        fill: #232323;
      }

      .cls-4 {
        fill: #f2f2f2;
      }

      .cls-5 {
        fill: #8e1400;
      }

      .cls-6 {
        fill: #303030;
      }
    </style>
  </defs>
  <rect class="cls-1" x="-0.88034" y="0.95652" width="151.76068" height="151.76095"/>
  <path class="cls-2" d="M73.10844,4.59071H131.964V77.57949c0,39.32016-40.63127,69.09822-56.2,69.90157a2.50589,2.50589,0,0,1-.282.01661h-.69718a2.04148,2.04148,0,0,1-.26562-.01661c-15.58532-.80335-56.2166-30.58141-56.2166-69.90157V4.59071H73.10844Z"/>
  <path class="cls-3" d="M75.90143,148.99122l-.01414.00306c6.42247-.346,17.0154-5.37234,27.36342-13.97314,15.37336-12.77726,30.24691-33.37123,30.24691-57.44053V4.59069A1.51817,1.51817,0,0,0,131.98,3.07308H18.30419a1.51754,1.51754,0,0,0-1.51761,1.51761V77.58061c0,24.0693,14.87256,44.66327,30.24592,57.44053,10.346,8.59978,20.93694,13.6251,27.36954,13.97416.19933.01818.97129.02426,1.31932.01213C75.79114,149.00437,75.85184,148.99832,75.90143,148.99122ZM130.4624,6.1083V77.58061c0,23.11523-14.38787,42.83607-29.15119,55.10644-9.64893,8.019-19.43847,12.89057-25.48265,13.271l-.22255.01417-1.036-.002-.00914-.00506-.12542-.00809c-6.04615-.3895-15.82458-5.259-25.46239-13.27-14.76431-12.27037-29.15126-31.99121-29.15126-55.10644V6.1083Z"/>
  <path class="cls-4" d="M33.54613,14.405c.01662-.52613-.63072-.86809-1.42748-1.02577a7.01025,7.01025,0,0,0-2.15769-.36677.50809.50809,0,0,1-.64734-.30873.52244.52244,0,0,1,.31537-.65063,7.56366,7.56366,0,0,1,2.27388-1.2581,3.91355,3.91355,0,0,1,.73031-.14274,1.93594,1.93594,0,0,1,1.67639.63736,2.7216,2.7216,0,0,1,.79666-1.45732.34964.34964,0,1,1,.68056,0,2.50691,2.50691,0,0,1,.913,1.46725.73842.73842,0,0,0,.23219-.07968,2.12676,2.12676,0,0,1,1.67639-.67388,3.91709,3.91709,0,0,1,.7304.14279,7.6345,7.6345,0,0,1,2.2905,1.2581.51044.51044,0,0,1-.34869.95936A7.10026,7.10026,0,0,0,39.123,13.273c-.34849.098-1.74285.4-1.82572,1.2648V30.76211a1.25654,1.25654,0,0,0,1.06228,1.23982c.31526.04979.63052.088.946.11787a14.7909,14.7909,0,0,0,2.00826.02989,12.437,12.437,0,0,0,1.89217-.23569,8.00654,8.00654,0,0,0,1.11212-.27884,2.2056,2.2056,0,0,0,.78-.35356,1.85534,1.85534,0,0,0,.63072-1.42576,2.18217,2.18217,0,0,0-.63072-1.81077.59909.59909,0,1,1,.54765-1.06563,3.60247,3.60247,0,0,1,2.14118,2.56438,4.20232,4.20232,0,0,1-.63073,3.62,5.28875,5.28875,0,0,1-2.83815,1.66641,10.84558,10.84558,0,0,1-2.82174.1942c-1.56009-.03485-5.57682.01327-6.0414-1.06724-.66395.70376-2.83836.97926-4.16616.90622a5.22143,5.22143,0,0,1-1.776-.4,4.46557,4.46557,0,0,1-.64724-.42822,2.27,2.27,0,0,1-.68056-1.74771,2.284,2.284,0,0,1,.14942-1.35607,3.11,3.11,0,0,1,.5975-.90126.3577.3577,0,0,1,.04974-.04979c-.04974-.08134-.06636-.11786.01661-.02821.01662.00664,0,.01661-.01661.02821.08307.13114.249.37514.249.37514l-.21578-.415a.26393.26393,0,0,1,.3652-.05977.25026.25026,0,0,1,.04974.36683,2.014,2.014,0,0,0,.1162,1.57675c.04984.09959.16593.156.26552.24734a2.4133,2.4133,0,0,0,.92947.395,3.41324,3.41324,0,0,0,1.04566.20418,2.26642,2.26642,0,0,0,1.39426-.29379h0a.73546.73546,0,0,0,.3652-.64065Z"/>
  <polygon class="cls-5" points="74.595 20.466 34.814 89.368 114.375 89.368 74.595 20.466"/>
  <path class="cls-4" d="M111.29067,73.34272S90.89406,106.79892,84.7336,114.8372c-5.24185,6.84036-15.98545,9.25034-19.07531,9.79163a1.17128,1.17128,0,0,1-1.00266-.31265c-.55138-2.61738-1.41745-15.06884.16086-19.43755,1.85452-5.13558,4.97977-11.6188,4.97977-11.6188L90.17169,55.81836l2.89355-6.62892,8.19913-12.9371,12.243,2.28855,1.10276-1.71389,4.97879,3.31953-.085,2.65479,5.06474,7.30477Z"/>
  <path class="cls-6" d="M112.28221,73.94773l.01717-.02831,13.27807-23.23765a1.16321,1.16321,0,0,0-.05366-1.23837l-5.06573-7.30476a1.15907,1.15907,0,0,0-.348-.3288l.53723-1.18171a1.16156,1.16156,0,0,0-.41379-1.4478l-4.97879-3.31952a1.16137,1.16137,0,0,0-1.62184.3379L112.953,37.255l-11.47511-2.14488a1.16468,1.16468,0,0,0-1.1949.52l-8.19906,12.9371a1.17183,1.17183,0,0,0-.084.15784l-2.87336,6.58239L68.77545,92.70438c-.00914.01719-.01822.03439-.02631.05159,0,0-3.15359,6.54395-5.02528,11.7281-1.62994,4.51133-.774,17.36852-.20539,20.07189a1.169,1.169,0,0,0,.33185.59794,2.33366,2.33366,0,0,0,1.99612.62122l.01217-.002c3.21127-.56252,14.34946-3.12018,19.79768-10.22969C91.83194,107.48591,112.28221,73.94773,112.28221,73.94773Zm6.52263-32.07518.78413-1.726-4.5012-2.99981-13.41164,21.801a.57435.57435,0,1,1-.97833-.602l12.24812-19.91-11.68155-2.18333-8.19913,12.9371-2.89355,6.62892L69.79626,93.25983s-3.12525,6.48322-4.97977,11.6188c-1.57831,4.36871-.71224,16.82017-.16086,19.43755a1.17128,1.17128,0,0,0,1.00266.31265c3.08986-.54129,13.83346-2.95127,19.07531-9.79163,5.52911-7.21473,22.5253-34.903,25.951-40.503a1.16321,1.16321,0,0,1-.54632-.83674l-1.727-12.85516a1.16491,1.16491,0,0,1,.13857-.7244l9.94133-17.68621A1.15562,1.15562,0,0,1,118.80484,41.87255Zm.69916.92877-9.94139,17.68624,1.72806,12.85516,13.27807-23.23663Z"/>
  <polygon class="cls-3" points="105.785 50.718 89.454 58.79 102.406 56.913 105.785 50.718"/>
  <path class="cls-7" d="M84.0329,45.116a1.08127,1.08127,0,0,0-1-.52373l-4.23045.28067-2.46212-2.61842a1.082,1.082,0,0,0-1.74346.23109L68.70672,53.50146a1.08587,1.08587,0,0,0-.12513.59263L69.022,59.9054a1.04654,1.04654,0,0,0,.03678.1152l-2.00557,3.86026.00617.0061L56.89459,83.43351,51.16806,81.606a4.37315,4.37315,0,0,0-5.02478,1.83538c-1.24986,1.99468-3.18536,5.0506-5.11786,8.17412-1.16507,1.88085-2.36616,3.76259-3.35707,5.48469-.6377,1.10856-1.17185,2.14823-1.63935,3.03914-.98,1.86571-1.57306,3.08236-1.57306,3.08236a.16269.16269,0,1,0,.27423.17512s.84913-1.05329,2.12289-2.7321c.609-.80228,1.32383-1.72833,2.05653-2.77539,1.14007-1.62813,2.33212-3.51507,3.541-5.36709,2.00769-3.07654,3.95368-6.126,5.22922-8.10358a2.536,2.536,0,0,1,2.92059-1.03925l5.41393,1.74722-.30566.59024-4.12484,8.91758L46.92036,97.023a.74621.74621,0,0,0-.41539.71873l.49847,5.55639-3.45528,1.46a.49786.49786,0,0,0-.31348.49552l.32889,3.26056-2.74676,4.593a.20225.20225,0,0,0,.34052.21834l3.11531-4.51926a.3734.3734,0,0,0,.05972-.23053l-.09582-3.01059,3.63377-1.31451a.60762.60762,0,0,0,.384-.60551l-.23588-5.49017,4.56549-2.16707a.83675.83675,0,0,0,.38539-.39059L57.337,86.512l.23978-.45312L61.99251,90.419a2.54578,2.54578,0,0,1,.45224,3.03168c-1.59471,2.9525-4.52036,8.198-6.92146,12.8055-.46709.89666-.90241,1.7725-1.306,2.60437-1.70853,3.51843-2.89072,6.16369-2.89072,6.16369a.16294.16294,0,0,0,.28471.15855s1.618-2.40438,3.69807-5.71659c.49189-.7829,1.00515-1.61627,1.51868-2.48718,2.63773-4.47605,5.53948-9.73431,7.2-12.64935a4.36969,4.36969,0,0,0-.72653-5.23107l-4.80274-4.77884,12.5699-23.70131,4.84294-1.79922a1.09248,1.09248,0,0,0,.54065-.44134L84.02269,46.245A1.08053,1.08053,0,0,0,84.0329,45.116Z"/>
</svg>
