<svg id="emblem_infantry_162" xmlns="http://www.w3.org/2000/svg" width="150" height="150" viewBox="0 0 150 150">
  <defs>
    <style>
      .cls-1 {
        fill: #eee;
      }

      .cls-1, .cls-2 {
        fill-rule: evenodd;
      }

      .cls-2 {
        fill: #151515;
      }
    </style>
  </defs>
  <path id="Shape_11_copy" data-name="Shape 11 copy" class="cls-1" d="M75,142.853h0A60.635,60.635,0,0,1,14.365,82.219V7.147h121.27V82.219A60.635,60.635,0,0,1,75,142.853Z"/>
  <path class="cls-2" d="M75,146.571c-35.484,0-64.953-28.868-64.953-64.353V3.029H139.953V82.218C139.953,117.7,110.484,146.571,75,146.571ZM132.116,11.065H17.884V82.218A57.152,57.152,0,0,0,75,139.135h0a57.152,57.152,0,0,0,57.116-56.917V11.065Z"/>
  <path class="cls-2" d="M108.771,48.249q-0.063-.824-0.188-1.562a12.41,12.41,0,0,1,5.369,4.246,1.109,1.109,0,0,0,1.986-.951c-2.794-8.4-7.9-11.541-11.7-12.7-0.519-.158-1.028-0.284-1.521-0.383a26.758,26.758,0,0,1,4.235-.566,1.112,1.112,0,0,0,.586-2.035,21.713,21.713,0,0,0-18.224-3.1A25.235,25.235,0,0,0,81.7,34.688a24.435,24.435,0,0,0-2.714-.2A106.874,106.874,0,0,0,88.86,24.4a1.11,1.11,0,0,0-1.568-1.562c-3.1,2.662-11.2,6.717-16.6,9.275a43.41,43.41,0,0,0,3.2-9.781,1.109,1.109,0,0,0-2.061-.75c-3,5.517-9.04,12.593-10.2,13.929-1.926.659-3.522,1.355-3.634,1.4a1.109,1.109,0,0,0-.2.112c-2.938,2.094-6.431,4.891-9.352,7.306l-0.011.007c-1.947,1.565-3.639,3.013-5.021,4.238-0.4.347-.707,0.61-0.882,0.763l-4.756,1.5a1.113,1.113,0,0,0-.267,2l1.723,1.11,2.281,4.843a1.109,1.109,0,0,0,2.017-.026,10.148,10.148,0,0,1,6.229-5.215c4.6-1.184,10.835.815,10.9,0.835a1.108,1.108,0,0,0,1.318-.525l0.853-1.568a1.1,1.1,0,0,0-.531-1.577,7.821,7.821,0,0,1,.466-0.741,5.4,5.4,0,0,1,.367-0.465c2.049,0.278,9.973,1.8,13.512,9.012a1.108,1.108,0,0,0,2.086-.292,14.31,14.31,0,0,0-.272-5.422,12.7,12.7,0,0,0-2.5-5.078,5.992,5.992,0,0,1,3.727,4.111,1.108,1.108,0,0,0,1.871.563c0.2-.2,1.632-1.8.443-5.376,3.583,1.459,6.5,5.155,7.574,9.82,1.013,4.407.3,10.347-4.735,13.805C75.2,77.26,70.138,75.4,70.1,75.389l-0.044-.017-0.009,0-0.006,0a40.3,40.3,0,0,0-10.006-1.933c-7.414-.464-13.361,1.488-17.2,5.645a19.9,19.9,0,0,0-3.869,19.965c2.033,5.741,8.687,15.835,30.4,18.945a1.184,1.184,0,0,0,.157.011,1.11,1.11,0,0,0,.863-0.413,71.613,71.613,0,0,1,13.257-12.225c9.9-6.839,18.323-7.745,25.026-2.692a1.111,1.111,0,0,0,1.416-1.708,24.218,24.218,0,0,0-16.863-5.567c-8.076.486-15.935,5.04-23.367,13.537-3.673-1.045-11.661-3.815-13.627-6.77A10.077,10.077,0,0,1,55.4,91.777c2.166-4.1,7.318-6.492,14.135-6.556a31.986,31.986,0,0,1,7.567.724,16.767,16.767,0,0,0,2.908.926,11.61,11.61,0,0,1,2.6,1.481,5.9,5.9,0,0,1,2.313,3.077,1.108,1.108,0,0,0,1.673.754,18.743,18.743,0,0,0,6.11-6.75c0.262-.19.711-0.535,1.275-1.036,2.359,3.274,2.583,8.952,2.585,9.014a1.108,1.108,0,0,0,2.056.54c4.553-7.52,6.277-13.636,5.126-18.177a7.708,7.708,0,0,0-2.126-3.813q0.11-.38.211-0.773c0.018-.057.037-0.113,0.055-0.17a1.121,1.121,0,0,0,.045-0.225q0.123-.5.232-1.026a46.329,46.329,0,0,1,3.38,10.007,1.109,1.109,0,0,0,1.035.886h0.052a1.109,1.109,0,0,0,1.06-.787c2.292-7.541,1.73-13.152.408-17.053,2.537,3.505,4.536,6.457,4.58,6.521a1.108,1.108,0,0,0,1.982-.311c1.891-6.46,1.382-11.944-1.512-16.3A17.472,17.472,0,0,0,108.771,48.249ZM94.9,40.927a7.394,7.394,0,0,1,.691-0.756,10.372,10.372,0,0,1,7.353,1.084,7.936,7.936,0,0,1,3.39,5.478,29.155,29.155,0,0,0-9.035-3A22.241,22.241,0,0,0,94.9,40.927Zm16.608,4.742a12.989,12.989,0,0,0-3.606-1.533,9.6,9.6,0,0,0-3.174-4.341A14.375,14.375,0,0,1,111.512,45.668ZM89.973,33.331A19.069,19.069,0,0,1,103.419,34.5c-2.745.473-6.527,1.529-9.132,3.866l-0.015.011c-0.008.007-.013,0.015-0.021,0.022a9.714,9.714,0,0,0-1.006,1.053,21.713,21.713,0,0,0-5.457-3.188,23.862,23.862,0,0,0-2.842-.941A23.608,23.608,0,0,1,89.973,33.331ZM69.615,29.055a12.686,12.686,0,0,1-2.962,4.932c-0.474.215-.816,0.368-0.992,0.447-0.085.013-.171,0.028-0.258,0.044C66.6,33.023,68.115,31.113,69.615,29.055Zm6.876,25.151a20.093,20.093,0,0,0-10.933-6.512,14.811,14.811,0,0,1,3.875-1.276c0.015,0,.029,0,0.044,0a10.126,10.126,0,0,1,1.463.053A10.44,10.44,0,0,1,76.491,54.206Zm1.344-8.018q0.727,0.074,1.49.178a11.37,11.37,0,0,1,.563,1.368A9.4,9.4,0,0,0,77.835,46.188ZM69.519,83C61.862,83.069,56,85.89,53.444,90.737a12.27,12.27,0,0,0,.943,12.659c2.937,4.415,14.284,7.528,15.569,7.869a1.111,1.111,0,0,0,1.125-.351c7.15-8.352,14.633-12.826,22.24-13.3a21.041,21.041,0,0,1,2.3-.017,34.494,34.494,0,0,0-13.273,5.957,72.43,72.43,0,0,0-12.182,10.882,31.414,31.414,0,0,1-11.141-2.672c-7.526-3.485-11.371-9.676-11.427-18.4a1.11,1.11,0,0,0-1.109-1.1H46.488a1.11,1.11,0,0,0-1.1,1.119c0.058,9.094,4,14.574,8.414,17.862-8.259-4.025-11.485-9.393-12.742-12.942a17.647,17.647,0,0,1,3.407-17.712C48.053,76.7,53.215,75.6,57.906,75.6c0.412,0,.821.009,1.224,0.025A17.967,17.967,0,0,0,50.5,80.481a17.479,17.479,0,0,0-4.375,7.509,1.109,1.109,0,1,0,2.16.507,15.529,15.529,0,0,1,3.874-6.535c4.01-4.053,9.812-5.554,17.245-4.464,1.037,0.35,6.774,1.785,16.676-5.013,4.983-3.421,7.145-9.605,5.643-16.139-1.479-6.433-6.1-11.3-11.51-12.1C69.3,42.62,64.189,45.473,62.035,47.466a1.109,1.109,0,0,0-.155.146,7.565,7.565,0,0,0-.938,1.085c-0.678.971-1.374,2.185-.966,3.184-2.261-.577-6.9-1.486-10.772-0.488a11.836,11.836,0,0,0-6.569,4.575l-1.2-2.544c0.657-.636,1.878-1.791,3.541-3.263,1.08-.928,2.82-2.411,4.838-4.08A17.619,17.619,0,0,0,48.3,47.825a1.11,1.11,0,0,0,1.456,1.615c4.644-2.724,6.533-2.748,6.829-2.731a0.96,0.96,0,0,0,.851-0.053,1.071,1.071,0,0,0,.521-0.785L58.5,43.423a9.544,9.544,0,0,1,2.208-1.681,1.111,1.111,0,0,0-.92-2.01A24.7,24.7,0,0,0,54.6,42.219c1.506-1.182,3.008-2.325,4.389-3.311a36.1,36.1,0,0,1,7.145-2.3,1.109,1.109,0,0,0,.291-0.084c0.48-.212,8.352-3.709,14.9-7.285-3.323,3.313-7.5,7.021-10.945,8.665h0c-0.326.155-.645,0.293-0.956,0.41a1.11,1.11,0,0,0-.277,1.929l-2.972-.555a1.112,1.112,0,0,0-.407,2.186l8.389,1.568a1.112,1.112,0,0,0,.973-1.893l-2.443-2.359a34.417,34.417,0,0,0,3.918-2.713,1.106,1.106,0,0,0,.858.279,22.045,22.045,0,0,1,9.494,1.565A19.5,19.5,0,0,1,92.632,41.8a1.1,1.1,0,0,0,.184.165,19.538,19.538,0,0,1,2.89,3.3,1.117,1.117,0,0,0,.163.235,24.317,24.317,0,0,1,2.816,5.726c0.006,0.021.014,0.041,0.022,0.062a32.5,32.5,0,0,1,1.02,3.693,36.363,36.363,0,0,1,.751,11.464,1.111,1.111,0,0,0-.031.293,28.27,28.27,0,0,1-.636,3.538c-0.01.025-.023,0.048-0.031,0.074-2.19,7.029-5.6,11.609-10.121,13.615a14.657,14.657,0,0,1-9.03.748A28.928,28.928,0,0,0,69.519,83ZM54.863,44.712c0.4-.276.817-0.552,1.261-0.821l-0.137.616A8.019,8.019,0,0,0,54.863,44.712Zm16.065-4.133-0.822-.154c0.031-.009.063-0.013,0.094-0.025q0.191-.072.386-0.152ZM86.518,89.494a8.874,8.874,0,0,0-1.691-2.171,15.856,15.856,0,0,0,4.636-.888A17.56,17.56,0,0,1,86.518,89.494Zm15.237-12.446c0.376,2.354.023,6.411-3.371,12.84a16.938,16.938,0,0,0-2.8-7.065A26.193,26.193,0,0,0,99,78.183a27.258,27.258,0,0,0,1.8-3.767A6.75,6.75,0,0,1,101.755,77.048ZM106.6,75a30.209,30.209,0,0,0-3.911-8.627,36.818,36.818,0,0,0-.245-8.807,15.77,15.77,0,0,1,2.452,3.393C106.972,64.817,107.545,69.613,106.6,75Zm6.527-8.943C110.312,62,104,53.139,100.688,50.266a27.8,27.8,0,0,0-1.751-3.937c3.287,0.793,9.188,2.83,12.381,7.645C113.48,57.232,114.084,61.288,113.125,66.055Z"/>
</svg>
