<svg id="emblem_infantry_137" xmlns="http://www.w3.org/2000/svg" width="150" height="150" viewBox="0 0 150 150">
  <defs>
    <style>
      .cls-1 {
        fill: #e42e2e;
      }

      .cls-1, .cls-2, .cls-3 {
        fill-rule: evenodd;
      }

      .cls-2 {
        fill: #eee;
      }

      .cls-3 {
        fill: #151515;
      }
    </style>
  </defs>
  <path class="cls-1" d="M106.845,141.6m-1.8-.487A136.014,136.014,0,0,1,66.987,122.6c-18.876-13.066-43.3-37.165-53.222-78.053C21,38.343,58.693,8.4,111.847,8.4c3.209,0,6.457.109,9.676,0.326,2.886,5.44,13.382,27.919,10.074,61.547C127.831,108.569,109.789,134.8,105.042,141.111Z"/>
  <path class="cls-2" d="M112.011,5.47h0Zm11.483,0.45q-5.855-.459-11.483-0.45h0c-60.966,0-101.383,38.073-101.383,38.073,19.141,83.166,95.707,100.987,95.707,100.987S130.24,116.1,134.715,70.6C138.675,30.342,123.494,5.921,123.494,5.921Zm5.309,64.1a144.434,144.434,0,0,1-24.76,67.682A134.494,134.494,0,0,1,69.03,120.333,126.834,126.834,0,0,1,17.254,45.664a149.7,149.7,0,0,1,24.361-16.11c15.5-8.276,40.3-18.142,70.394-18.143h0c2.585,0,5.2.073,7.8,0.217C123.253,18.661,131.79,39.655,128.8,70.023Z"/>
  <path class="cls-3" d="M106.962,146.112l-0.9-.209c-0.793-.184-19.666-4.69-41.187-19.532C45.013,112.67,19.233,87.222,9.238,43.793l-0.193-.839,0.626-.59c0.46-.434,46.814-43.306,114.013-38.026L124.44,4.4l0.4,0.644c0.631,1.015,15.4,25.317,11.439,65.623-4.469,45.433-28.484,74.456-28.726,74.744ZM12.362,43.979c9.92,41.967,34.923,66.614,54.22,79.922a135.566,135.566,0,0,0,39.257,18.846c3.663-4.712,23.47-31.857,27.456-72.376,3.51-35.689-8.351-59-10.632-63.1C61.456,2.818,18.061,38.961,12.362,43.979Z"/>
  <path id="Shape_47_copy_2" data-name="Shape 47 copy 2" class="cls-3" d="M104.882,100.006a2.484,2.484,0,0,1-1.238-.331C92.637,93.364,81.727,83.013,71.19,68.887A72.747,72.747,0,0,0,56.4,83.1a2.5,2.5,0,0,1-3.635.395l-7.639-6.627a2.481,2.481,0,0,1-.436-3.256c0.251-.375,6.007-8.876,17.385-18.074-5.214-8.343-8.127-14.318-8.257-14.585a2.483,2.483,0,0,1,1.08-3.281l11.956-6.3a2.493,2.493,0,0,1,3.5,1.339A83.6,83.6,0,0,0,76.545,45.7a98.749,98.749,0,0,1,25.094-9.909,2.5,2.5,0,0,1,2.835,1.339l3.985,8.283A2.483,2.483,0,0,1,107.14,48.8a189.443,189.443,0,0,0-21.2,10.468A142.1,142.1,0,0,0,112.6,84.536a2.482,2.482,0,0,1,.75,3.29l-6.31,10.935A2.492,2.492,0,0,1,104.882,100.006ZM71.72,62.926a2.489,2.489,0,0,1,2.02,1.029c9.89,13.637,20.056,23.761,30.252,30.133l3.923-6.8A146.945,146.945,0,0,1,80.243,60.075a2.482,2.482,0,0,1,.7-3.646,198.51,198.51,0,0,1,21.893-11.213l-1.971-4.1a94.2,94.2,0,0,0-23.923,10.1,2.493,2.493,0,0,1-3.4-.834,92.911,92.911,0,0,1-6.833-13.315L59.4,40.92c1.426,2.715,4.2,7.783,8.079,13.838a2.481,2.481,0,0,1-.572,3.3A95.38,95.38,0,0,0,50.128,74.615l3.93,3.41a86.091,86.091,0,0,1,16.209-14.63A2.482,2.482,0,0,1,71.72,62.926Z"/>
  <path id="Shape_47_copy" data-name="Shape 47 copy" class="cls-2" d="M82.22,58.563a190.884,190.884,0,0,1,23.994-12.07l-3.986-8.284A96.362,96.362,0,0,0,75.667,49.083,87.684,87.684,0,0,1,68.019,33.57l-11.956,6.3A176.311,176.311,0,0,0,65.377,56.1C53,65.678,46.763,74.989,46.763,74.989L54.4,81.616c4.447-5.98,10.7-11.448,17.32-16.2,8.435,11.63,19.845,24.474,33.163,32.11l6.31-10.934A143,143,0,0,1,82.22,58.563Z"/>
</svg>
