<svg id="_36_engineer_icon" data-name="36_engineer_icon" xmlns="http://www.w3.org/2000/svg" width="150" height="150" viewBox="0 0 150 150">
  <defs>
    <style>
      .cls-1 {
        fill: #151515;
      }

      .cls-1, .cls-2 {
        fill-rule: evenodd;
      }

      .cls-2 {
        fill: #eee;
      }
    </style>
  </defs>
  <path class="cls-1" d="M133.022,120.012h-17.95c0-.024.007-0.045,0.007-0.068V68.8a3.967,3.967,0,0,0,2.933,1.305H133a4,4,0,0,0,4-4.023C136.88,31.632,108.844,3,74.5,3S12.121,31.632,12,66.085a4,4,0,0,0,4,4.023H30.989A3.967,3.967,0,0,0,33.922,68.8v51.142c0,0.023.006,0.044,0.007,0.068H15.979a4,4,0,0,0-4,4.009v19.968a4,4,0,0,0,4,4.009H133.022a4,4,0,0,0,4-4.009V124.021A4,4,0,0,0,133.022,120.012Zm-79.116-.068V31.9a39.227,39.227,0,0,1,41.188,0v88.045c0,0.023.006,0.044,0.007,0.068H53.9C53.9,119.988,53.906,119.967,53.906,119.944Z"/>
  <path id="Shape_48_copy" data-name="Shape 48 copy" class="cls-2" d="M30.989,66.1C31.1,42.121,50.573,22.049,74.5,22.049s43.4,20.073,43.512,44.05H133C132.89,33.83,106.693,7.013,74.5,7.013S16.11,33.83,16,66.1H30.989Zm6.93-15.34v69.186H49.909V34.722A39.888,39.888,0,0,0,37.919,50.758ZM99.092,34.722v85.222h11.99V50.758A39.889,39.889,0,0,0,99.092,34.722Zm33.93,109.267H15.979V124.021H133.022v19.968Z"/>
</svg>
