<svg id="ger_moscow_radioman_2_icon" data-name="ger moscow radioman 2 icon" xmlns="http://www.w3.org/2000/svg" width="150" height="150" viewBox="0 0 150 150">
  <defs>
    <style>
      .cls-1 {
        fill: #ffb32f;
        fill-rule: evenodd;
      }
    </style>
  </defs>
  <g>
    <polygon class="cls-1" points="5.018 145.817 25.19 145.817 67.673 52.653 73.946 63.738 38.296 145.817 58.254 145.817 85.238 83.69 120.398 145.817 144.662 145.817 64.938 4.947 46.786 15.747 56.501 32.914 5.018 145.817"/>
    <path d="M148.09253,147.81665H119.23218L85.47339,88.16821,59.56567,147.81665H35.24634L71.7146,63.85571,67.8645,57.053,26.47632,147.81665H1.90747L54.25854,33.01147,44.0813,15.02905,65.67212,2.18335Zm-26.52832-4h19.66894L64.20435,7.71069,49.49048,16.46558,58.7439,32.81616,8.12817,143.81665H23.90405L67.48071,48.25317l8.69678,15.36719L41.345,143.81665H56.94165l28.061-64.60352Z"/>
  </g>
</svg>
