<svg xmlns="http://www.w3.org/2000/svg" width="150" height="150" viewBox="0 0 150 150">
  <defs>
    <style>
      .cls-1, .cls-3 {
        fill: #151515;
      }

      .cls-1, .cls-2 {
        fill-rule: evenodd;
      }

      .cls-2, .cls-4 {
        fill: #eee;
      }
    </style>
  </defs>
  <g id="Layer_3" data-name="Layer 3">
    <g>
      <path id="Shape_33_copy_8" data-name="Shape 33 copy 8" class="cls-1" d="M80.38981,145.55222c-3.285-1.549-14.632-6.9-26.656-12.593-9.768-4.622-16.533-10.182-21.29-17.5-5.26-8.087-8.01-18.435-8.409-31.634v-76.45h86.615a39.817,39.817,0,0,0,26.095,26.212v50.242c-.4,13.2-3.149,23.547-8.409,31.634-4.757,7.314-11.522,12.874-21.29,17.5C95.02081,138.65022,83.67281,144.00322,80.38981,145.55222Z"/>
      <path id="Shape_33_copy_7" data-name="Shape 33 copy 7" class="cls-2" d="M108.45081,10.43522a42.981,42.981,0,0,0,25.234,25.341v48.007c-.386,12.6-2.975,22.417-7.914,30.012a39.5174,39.5174,0,0,1-8.437,9.285,56.93391,56.93391,0,0,1-11.6,7.113c-10.544,4.991-20.756,9.811-25.344,11.972-4.588-2.165-14.8-6.985-25.347-11.976a56.93391,56.93391,0,0,1-11.6-7.113,39.49985,39.49985,0,0,1-8.437-9.285c-4.939-7.595-7.528-17.413-7.914-30.012v-73.344h81.356m4.542-6.12h-92.015v79.56c.85,28.56,12.41,42.84,31.45,51.85,13.157,6.226,25.648,12.118,27.48,12.981a1.134,1.134,0,0,0,.97,0c1.832-.863,14.323-6.755,27.48-12.981,19.04-9.01,30.6-23.29,31.45-51.85v-52.617a36.433,36.433,0,0,1-26.815-26.943Z"/>
      <path id="Shape_33_copy_6" data-name="Shape 33 copy 6" class="cls-1" d="M80.38981,150.26521a2.55863,2.55863,0,0,1-1.1-.247c-1.4-.658-14.027-6.615-27.481-12.982-10.41-4.926-17.979-11.178-23.139-19.112-5.729-8.809-8.718-19.931-9.137-34V4.31522a1.445,1.445,0,0,1,1.44-1.45h92.017a1.444,1.444,0,0,1,1.406,1.112,35.189,35.189,0,0,0,25.749,25.872,1.445,1.445,0,0,1,1.105,1.4v52.669c-.418,14.07-3.407,25.192-9.136,34-5.161,7.934-12.73,14.186-23.14,19.112-13.455,6.368-26.084,12.325-27.484,12.983A2.555,2.555,0,0,1,80.38981,150.26521Zm-57.97-66.412c.769,25.648,9.928,40.773,30.623,50.566,13.1,6.2,25.426,12.013,27.347,12.919,1.923-.907,14.245-6.719,27.347-12.919,20.7-9.793,29.854-24.918,30.623-50.566v-51.475a37.78,37.78,0,0,1-16.777-9.8,37.774,37.774,0,0,1-9.718-16.822h-89.445Z"/>
    </g>
  </g>
  <g id="Layer_6" data-name="Layer 6">
    <g>
      <rect class="cls-3" x="72.5" y="37.97826" width="15" height="66"/>
      <path class="cls-4" d="M86,39.47826v63H74v-63H86m3-3H71v69H89v-69Z"/>
    </g>
  </g>
</svg>
