<svg id="emblem_infantry_31" xmlns="http://www.w3.org/2000/svg" width="150" height="150" viewBox="0 0 150 150">
  <defs>
    <style>
      .cls-1 {
        fill: #eee;
      }

      .cls-1, .cls-2 {
        fill-rule: evenodd;
      }

      .cls-2 {
        fill: #151515;
      }
    </style>
  </defs>
  <path id="Shape_8_copy" data-name="Shape 8 copy" class="cls-1" d="M148,130H2V20H148V130Z"/>
  <path class="cls-2" d="M32.063,86.814s-3.614-1.648-5.021-4.525a15.283,15.283,0,0,1-1.506-5.531l1-5.028,1,2.011a9.7,9.7,0,0,0,2.511-4.023,9.7,9.7,0,0,1,2.51-4.023s0.4,8.408,2.511,12.571,1.281,12.556-5.021,15.085a53.43,53.43,0,0,0-.5,10.56,76.259,76.259,0,0,1-.5,12.067s2.537,0.992,3.013,2.514l0.5,1.509h6.527a37.553,37.553,0,0,0-4.017-5.531c-1.658-1.62-1.731-5.168-1.506-7.04s3.013-8.548,3.013-8.548,1.658,7.906,2.51,10.057a17.929,17.929,0,0,1,1,5.028c0.1,0.768,3.515,1.509,3.515,1.509s1.784,3.757,2.008,4.525h5.523a26.379,26.379,0,0,0-5.021-7.04c-2.913-2.625-2.861-9.065-3.013-11.565s3.541-10.573,4.017-14.581l9.038-7.542s10.947,5.643,20.084,6.034,12.05,0.5,12.05.5a7.97,7.97,0,0,1,1,2.514c0.1,1.02-.852,18.716-1,20.113s-1.1,4.008-.5,4.525,2.008,2.012,2.008,2.012l0.5,4.525H103.36s-3.489-4.037-4.519-5.531c0,0-1.857-2.4-1.506-3.017s2.286-8.562,2.511-9.554,0.152-2.528.5-4.022,4.8-10.7,5.523-14.582c0,0,4.294-5.922,4.519-9.051a21.666,21.666,0,0,0-.5-6.034s2.286-6.3,2.51-8.548,1.658-6.928,2.511-8.045,3.012,0,3.012,0a15.985,15.985,0,0,0,5.021.5l6.528,2.514a9.835,9.835,0,0,0,1.506,1.508,32.425,32.425,0,0,0,4.519.5s1.658-2.4,1.506-4.525-1.731-3.031-2.511-4.023-7.531-7.04-7.531-7.04l-2.008-4.023-1.507-1.006L124.95,31a8.629,8.629,0,0,0-5.523,3.52s-11.9,2.374-14.561,5.028S94.6,50.345,93.82,50.61s-8.76,2.249-12.552,4.525c0,0-8.76.614-12.552-.5S46.9,51.35,43.611,52.119s-8.033,4.023-8.033,4.023-14.283,3.506-16.569,5.531-2.61,12.682-1,16.09a17.634,17.634,0,0,0,6.025,7.04C26.514,86.7,28.548,86.814,32.063,86.814ZM94.824,99.887s0.528,5.391,0,7.04a15.587,15.587,0,0,0-.5,5.531c0.225,0.517,1.506,4.525,1.506,4.525s-3.614-3.785-4.017-5.028-0.1-4.666.5-6.537A51.381,51.381,0,0,1,94.824,99.887Z"/>
</svg>
