<svg xmlns="http://www.w3.org/2000/svg" width="150" height="150" viewBox="0 0 150 150">
  <defs>
    <style>
      .cls-1, .cls-3 {
        fill: #efefef;
      }

      .cls-2, .cls-3 {
        fill-rule: evenodd;
      }
    </style>
  </defs>
  <circle id="Shape_28_copy" data-name="Shape 28 copy" class="cls-1" cx="75" cy="75" r="71.25"/>
  <path class="cls-2" d="M75,1.775A73.225,73.225,0,1,0,148.225,75,73.308,73.308,0,0,0,75,1.775ZM75,129.5A54.5,54.5,0,1,1,129.5,75,54.561,54.561,0,0,1,75,129.5Z"/>
  <path class="cls-2" d="M99.923,80.2H91.159V34.86a1.267,1.267,0,0,0-.074-0.428c-2.027-5.658-6.9-10.108-7.1-10.295a1.268,1.268,0,0,0-.852-0.328H82.9a1.269,1.269,0,0,0-.852.328c-0.206.187-5.077,4.637-7.1,10.295a1.267,1.267,0,0,0-.074.428V80.2H66.1v8.447H76v31.49a4.059,4.059,0,0,0,4.054,4.054h5.908a4.059,4.059,0,0,0,4.054-4.054V88.648h9.9V80.2ZM87.481,120.138a1.516,1.516,0,0,1-1.514,1.514H80.059a1.516,1.516,0,0,1-1.515-1.514v-31.3h8.937v31.3ZM77.406,35.085a26.216,26.216,0,0,1,5.606-8.342,26.213,26.213,0,0,1,5.606,8.342V79.136H84.5V31.567h-2.54V79.136H77.406V35.085ZM97.384,86.109H68.641V82.741H97.384v3.368ZM61,94.188a0.918,0.918,0,1,0,.659,1.094A0.9,0.9,0,0,0,61,94.188Zm5.39-3.732a0.918,0.918,0,1,0,.659,1.094A0.9,0.9,0,0,0,66.387,90.456ZM73.3,90.3A0.889,0.889,0,1,0,72.224,91,0.9,0.9,0,0,0,73.3,90.3ZM48.755,109.823a1.231,1.231,0,1,0,1.711.055A1.211,1.211,0,0,0,48.755,109.823Zm6.8,0.951a1.191,1.191,0,1,0,1.437-.931A1.212,1.212,0,0,0,55.555,110.774Zm7.776,1.046a0.918,0.918,0,1,0,.659,1.094A0.9,0.9,0,0,0,63.33,111.82Z"/>
  <path id="Shape_39_copy" data-name="Shape 39 copy" class="cls-3" d="M93.251,104.5a3.405,3.405,0,0,0-2.642-3.334l0.38-.368A3.581,3.581,0,0,0,92.4,96.7a4.142,4.142,0,0,0-3.282-3.082l-2.554.74a14.9,14.9,0,0,0-5.8-5.174l-0.288.465a5.337,5.337,0,0,0-.032-1.555,19.84,19.84,0,0,0-12.417-.344l-0.568.4a11.189,11.189,0,0,0-5.684,2.194,24.575,24.575,0,0,0-4.242,3.975l-1.283-.02-6.622-3.64s-5.135,8.956-2.592,25.72l7.076-1.539c0.024,0.159.044,0.312,0.069,0.473l5.539-.823c0.011,0.592.028,1.192,0.058,1.808a22,22,0,0,0,6.483-1.152c0.144,0.7.313,1.406,0.518,2.1a43.376,43.376,0,0,0,7.947-.664c0.847,0.42,1.713.809,1.986,0.931a2.974,2.974,0,0,0,2.024.743s8.537-.39,8.651-0.5,1.882-.719,2.132-2.362c0.226-1.484-1.442-2.689-1.766-2.908l0.8-.063s2.143-.677,2.506-2.355a3.206,3.206,0,0,0-.688-2.762l0.433-.011S93.185,106.328,93.251,104.5Z"/>
  <path id="Shape_39_copy_2" data-name="Shape 39 copy 2" class="cls-2" d="M92.318,100.907a4.57,4.57,0,0,0,1-4.464,5.079,5.079,0,0,0-4.085-3.771l-0.192-.023-2.082.6a15.665,15.665,0,0,0-5.505-4.8c-0.015-.173-0.034-0.348-0.064-0.524L81.3,87.41l-0.492-.2a20.639,20.639,0,0,0-13.074-.365l-1.068.354a17.807,17.807,0,0,0-5.44,2.373l-0.79.568a36.042,36.042,0,0,0-3.332,3.22l-0.256,0-7.634-4.2-0.543.946c-0.218.379-5.3,9.487-2.726,26.44l0.177,1.171,7.231-1.573,0.039,0.249,5.412-.8c0.009,0.25.017,0.5,0.029,0.755l0.044,0.907h0.908a23.146,23.146,0,0,0,5.78-.879c0.094,0.382.194,0.764,0.305,1.146l0.2,0.673,0.7,0.011c0.033,0,.161,0,0.367,0a43.684,43.684,0,0,0,7.461-.622c0.617,0.3,1.206.569,1.564,0.73a3.834,3.834,0,0,0,2.477.9c0.051,0,.1,0,0.148,0,7.968-.364,8.829-0.43,9.164-0.675l0.037-.019a4.175,4.175,0,0,0,2.48-2.976,3.32,3.32,0,0,0-.79-2.565,4.238,4.238,0,0,0,2.322-2.7,4.094,4.094,0,0,0-.2-2.412,4.31,4.31,0,0,0,2.4-3.334A4.214,4.214,0,0,0,92.318,100.907ZM89.163,94.6a3.224,3.224,0,0,1,2.32,2.36,2.621,2.621,0,0,1-.835,2.913l-10.141,1.006c-0.734-.586-1.71-1.654-1.51-2.336a1.769,1.769,0,0,1,.844-1.243h0Zm-7.873-4.058a14.024,14.024,0,0,1,3.7,3.283l-4.983,1.444c-0.28-.13-0.64-0.292-1.055-0.463A10.365,10.365,0,0,0,81.291,90.539Zm-1.722-1.745a4.452,4.452,0,0,1-.014.544l-2.883,4.656a7.819,7.819,0,0,0-4.332-.288c-0.642-1.125-1.871-3.4-2.917-5.368A19.316,19.316,0,0,1,79.568,88.794ZM77.286,99.845l-3.992-2.016c-0.569-.721-1.02-1.585-0.6-2.165s2.738-.194,5.247.79A4.484,4.484,0,0,0,77.169,98,2.793,2.793,0,0,0,77.286,99.845ZM66.975,89.163l3.436,5.475L67.9,96.7a38.522,38.522,0,0,0-4.426-6.3A10.742,10.742,0,0,1,66.975,89.163Zm-13.947,24.78-5.053,1.1C46.33,102.671,49,94.834,50.131,92.2l4.716,2.592C53.687,97.025,51.557,102.864,53.028,113.942Zm5.736-.27-3.775.561c-1.351-9.557.076-15.071,1.122-17.614l4.28,3.79A49.937,49.937,0,0,0,58.764,113.672Zm6.409,0.829a21.679,21.679,0,0,1-4.476.8,49.879,49.879,0,0,1,1.309-13.465l1.242,1.1,2.128-1.878A39.632,39.632,0,0,0,65.173,114.5Zm-1.922-14.1L57.777,95.55a17.052,17.052,0,0,1,3.894-3.766L66.194,97.8Zm4.258,15.9c-1.7-6.506-.626-13.4.165-16.942L70.7,96.863a4.189,4.189,0,0,0,.216.684,3.183,3.183,0,0,0-1.89,2.136,3.922,3.922,0,0,0,1.218,3.911,3,3,0,0,0-1.306,1.7c-0.542,1.668.368,3.175,1.417,4.268a2.684,2.684,0,0,0-.884,2.145c0.094,1.848,1.632,3.493,2.567,4.329C70.2,116.238,68.449,116.288,67.509,116.3Zm7.6-.588a10.715,10.715,0,0,1-1.515-.854c-0.986-.815-2.157-2.154-2.213-3.245a0.784,0.784,0,0,1,.14-0.5l3.394,1.638,0.971,0.594A3.912,3.912,0,0,0,75.106,115.71Zm0.54-5.806a4.022,4.022,0,0,0-.007,1.057l-2.088-1.277c-0.876-.522-3.27-2.341-2.8-3.8A1.3,1.3,0,0,1,72.1,105l0.056,0,4.4,2.789A3.905,3.905,0,0,0,75.646,109.9Zm1.05-4.446-4.557-2.725c-0.157-.118-1.673-1.3-1.3-2.461A1.186,1.186,0,0,1,71.9,99.261L72.06,99.34a9.352,9.352,0,0,0,1.211,1.179l0.114,0.092,4.1,1.6a5.3,5.3,0,0,0-.7,1.446A3.576,3.576,0,0,0,76.7,105.458Zm11.889,9.8a2.327,2.327,0,0,1-1.455,1.563l-0.064.032c-0.9.1-5.514,0.328-8.36,0.458a1.5,1.5,0,0,1-1.678-1.3,2.24,2.24,0,0,1,.982-1.8l9.473-.743A2.38,2.38,0,0,1,88.584,115.257Zm1.553-5.384a2.812,2.812,0,0,1-1.771,1.616L88,111.518l-0.051-.032-9.743.54a2.162,2.162,0,0,1-.676-1.861,1.725,1.725,0,0,1,1.189-1.581l6.913-.2,4.265-.107A2.252,2.252,0,0,1,90.138,109.873Zm0.492-3.539-5.046.146-6.274.157a2.913,2.913,0,0,1-.709-2.391,2.113,2.113,0,0,1,.834-1.31l11.087-.813a2.458,2.458,0,0,1,1.778,2.338C92.265,105.41,91.085,106.1,90.63,106.334ZM61,94.188a0.918,0.918,0,1,0,.659,1.094A0.9,0.9,0,0,0,61,94.188Zm5.39-3.732a0.918,0.918,0,1,0,.659,1.094A0.9,0.9,0,0,0,66.387,90.456ZM73.3,90.3A0.889,0.889,0,1,0,72.224,91,0.9,0.9,0,0,0,73.3,90.3ZM48.755,109.823a1.231,1.231,0,1,0,1.711.055A1.211,1.211,0,0,0,48.755,109.823Zm6.8,0.951a1.191,1.191,0,1,0,1.437-.931A1.212,1.212,0,0,0,55.555,110.774Zm7.776,1.046a0.918,0.918,0,1,0,.659,1.094A0.9,0.9,0,0,0,63.33,111.82Z"/>
</svg>
