<svg id="sturzkampfgeschwader_2_icon" xmlns="http://www.w3.org/2000/svg" width="150" height="150" viewBox="0 0 150 150">
  <defs>
    <style>
      .cls-1 {
        fill: #151515;
      }

      .cls-1, .cls-2, .cls-3 {
        fill-rule: evenodd;
      }

      .cls-2 {
        fill: #ce2626;
      }

      .cls-3 {
        fill: #efefef;
      }
    </style>
  </defs>
  <path class="cls-1" d="M75,142.762a4.517,4.517,0,0,1-1.322-.2c-17.436-5.344-34.869-27.82-39.8-34.582C24.8,95.527,23.487,86.74,23.436,86.372L23.411,86.2V6.469H126.588V86.2l-0.024.174c-0.052.368-1.367,9.154-10.446,21.612-4.928,6.762-22.36,29.238-39.8,34.582A4.531,4.531,0,0,1,75,142.762Z"/>
  <path class="cls-2" d="M125,63H85v77H65V63H24V42H65V8H85V42h40V63Z"/>
  <path class="cls-3" d="M129.02,87.134a33.72,33.72,0,0,1-1.972,6.84,70.946,70.946,0,0,1-8.888,15.962,161.883,161.883,0,0,1-16.367,18.972c-8.806,8.684-17.127,14.277-24.731,16.623a7.038,7.038,0,0,1-4.125,0c-7.6-2.346-15.925-7.939-24.731-16.623A161.778,161.778,0,0,1,31.84,109.936a70.942,70.942,0,0,1-8.889-15.962,33.665,33.665,0,0,1-1.971-6.84l-0.049-.349V3.993H129.068V86.785ZM67.985,44.973V10.985H28.08V44.973h39.9ZM28.08,59.988V86.28c0.181,1.006,1.779,8.774,9.578,19.544,3.969,5.481,16.9,21.7,30.327,29.608V59.988H28.08Zm93.839-15.015V10.985H81.989V44.973h39.93ZM81.989,59.988v75.556c13.5-7.865,26.365-24.212,30.353-29.72,7.788-10.755,9.392-18.517,9.577-19.545V59.988H81.989Z"/>
  <path class="cls-2" d="M75,31.012L98.988,55,75,78.988,51.012,55Z"/>
</svg>
