<?xml version="1.0" encoding="utf-8"?>
<!-- Generator: Adobe Illustrator 27.0.1, SVG Export Plug-In . SVG Version: 6.00 Build 0)  -->
<svg version="1.1" id="Layer_1" xmlns="http://www.w3.org/2000/svg" xmlns:xlink="http://www.w3.org/1999/xlink" x="0px" y="0px"
	 viewBox="0 0 36 35.8" enable-background="new 0 0 36 35.8" xml:space="preserve">
<g id="Group_3231" transform="translate(-425 -482)">
	<path id="Path_1567" fill="#B83027" d="M427,482h34l-36,35.8V484C425,482.9,425.9,482,427,482z"/>
	<g id="Group_3228" transform="translate(3890.951 97.862)">
		
			<linearGradient id="Ellipse_1_copy_16_00000041270444086620017960000015748683665466714249_" gradientUnits="userSpaceOnUse" x1="-7082.667" y1="12.2648" x2="-7082.667" y2="11.2648" gradientTransform="matrix(15.097 0 0 14.381 103471.6797 225.3736)">
			<stop  offset="0" style="stop-color:#370B07"/>
			<stop  offset="1" style="stop-color:#A32B0B"/>
		</linearGradient>
		
			<path id="Ellipse_1_copy_16" fill-rule="evenodd" clip-rule="evenodd" fill="url(#Ellipse_1_copy_16_00000041270444086620017960000015748683665466714249_)" d="
			M-3450.7,401.7l-4.7-3.4l-4.6,3.4l1.8-5.5l-4.7-3.4h5.8l1.7-5.5l1.8,5.5h5.8l-4.7,3.4L-3450.7,401.7z"/>
		
			<linearGradient id="Ellipse_1_copy_16-2_00000114778124999286364920000008854488787081781933_" gradientUnits="userSpaceOnUse" x1="-7082.667" y1="12.2648" x2="-7082.667" y2="11.2648" gradientTransform="matrix(15.097 0 0 14.381 103471.6797 224.0006)">
			<stop  offset="0" style="stop-color:#8F4929"/>
			<stop  offset="0.362" style="stop-color:#CFC261"/>
			<stop  offset="0.614" style="stop-color:#FFEF76"/>
			<stop  offset="0.954" style="stop-color:#FFFFFF"/>
			<stop  offset="1" style="stop-color:#FFFFFF"/>
		</linearGradient>
		
			<path id="Ellipse_1_copy_16-2" fill-rule="evenodd" clip-rule="evenodd" fill="url(#Ellipse_1_copy_16-2_00000114778124999286364920000008854488787081781933_)" d="
			M-3450.7,400.3l-4.7-3.4l-4.6,3.4l1.8-5.5l-4.7-3.4h5.8l1.7-5.5l1.8,5.5h5.8l-4.7,3.4L-3450.7,400.3z"/>
	</g>
</g>
</svg>
