<svg xmlns="http://www.w3.org/2000/svg" width="25" height="25" viewBox="0 0 25 25">
  <metadata><?xpacket begin="﻿" id="W5M0MpCehiHzreSzNTczkc9d"?>
<x:xmpmeta xmlns:x="adobe:ns:meta/" x:xmptk="Adobe XMP Core 5.6-c138 79.159824, 2016/09/14-01:09:01        ">
   <rdf:RDF xmlns:rdf="http://www.w3.org/1999/02/22-rdf-syntax-ns#">
      <rdf:Description rdf:about=""/>
   </rdf:RDF>
</x:xmpmeta>
                                                                                                    
                                                                                                    
                                                                                                    
                                                                                                    
                                                                                                    
                                                                                                    
                                                                                                    
                                                                                                    
                                                                                                    
                                                                                                    
                                                                                                    
                                                                                                    
                                                                                                    
                                                                                                    
                                                                                                    
                                                                                                    
                                                                                                    
                                                                                                    
                                                                                                    
                                                                                                    
                           
<?xpacket end="w"?></metadata>
<defs>
    <style>
      .cls-1 {
        fill: #262626;
      }

      .cls-1, .cls-10, .cls-2, .cls-3, .cls-4, .cls-5, .cls-6, .cls-7, .cls-8 {
        fill-rule: evenodd;
      }

      .cls-2 {
        fill: #8f8f8f;
      }

      .cls-3 {
        fill: #602f00;
      }

      .cls-4 {
        fill: #c76700;
      }

      .cls-5 {
        fill: #da7b00;
      }

      .cls-6 {
        fill: #b36100;
      }

      .cls-7 {
        fill: #fde277;
      }

      .cls-8 {
        fill: #e6a738;
      }

      .cls-9 {
        fill: #cc331a;
      }

      .cls-10 {
        fill: #b13723;
      }
    </style>
  </defs>
  <path class="cls-1" d="M7,2L8,1h9l1,1V3L17,4H8L7,3V2ZM7,8L8,7h9l1,1V9l-1,1H15l-1,1H11l-1-1H8L7,9V8Z"/>
  <path class="cls-2" d="M7,1L8,0h9l1,1V2L17,3H8L7,2V1ZM7,7L8,6h9l1,1V8L17,9H15l-1,1H11L10,9H8L7,8V7Z"/>
  <path id="Ellipse_1_copy_16" data-name="Ellipse 1 copy 16" class="cls-3" d="M16.53,24.957l-4.015-2.088-4,2.116L8.445,20.548,6.01,16.62l4.375-.809,2.094-3.925L14.6,15.8l4.38,0.779-2.449,3.949Zm0-.75L12.515,22.29l-4,1.945L9.1,19.824,6.01,16.62l4.375-.809,2.094-3.925L14.6,15.8l4.38,0.779L15.917,19.8Z"/>
  <path id="Ellipse_1_copy_16-2" data-name="Ellipse 1 copy 16" class="cls-4" d="M16.53,24.207L12.515,22.29l-4,1.945L9.1,19.824,6.01,16.62l4.375-.809,2.094-3.925L14.6,15.8l4.38,0.779L15.917,19.8Z"/>
  <path id="Ellipse_1_copy_16-3" data-name="Ellipse 1 copy 16" class="cls-5" d="M16.53,24.207L12.5,18.063l-0.021-6.177L14.6,15.8l-1.916,2.359L15.917,19.8ZM9.1,19.824L5.985,16.613,12.5,18.448Z"/>
  <path id="Ellipse_1_copy_16-4" data-name="Ellipse 1 copy 16" class="cls-6" d="M16.53,24.207L12.515,22.29l-4,1.945,3.861-5.641L9.1,19.824,5.985,16.613,12.5,18.448l6.48-1.873L15.917,19.8l-3.229-1.2Z"/>
  <path id="Ellipse_1_copy_16-5" data-name="Ellipse 1 copy 16" class="cls-7" d="M8.514,24.235L9.1,19.824l3.154-1.762L10.385,15.81l2.094-3.925-0.01,6.177Z"/>
  <path class="cls-8" d="M12.5,9A1.5,1.5,0,1,1,11,10.5,1.5,1.5,0,0,1,12.5,9Zm0,1a0.5,0.5,0,1,1-.5.5A0.5,0.5,0,0,1,12.5,10Z"/>
  <rect class="cls-9" x="8" y="1" width="9" height="7"/>
  <path class="cls-10" d="M8,2h9V3H8V2ZM8,4h9V5H8V4ZM8,6h9V7H8V6Z"/>
</svg>
