<?xml version="1.0" encoding="UTF-8"?><svg id="Layer_2" xmlns="http://www.w3.org/2000/svg" width="22.19" height="21.28" viewBox="0 0 22.19 21.28"><g id="Layer_1-2"><g><path d="m11.25,17.46c-3.94,0-8.13,1.17-8.13,3.33v.5h16.26v-.5c0-2.16-4.19-3.33-8.13-3.33Zm-6.92,2.83c.72-.88,3.22-1.83,6.92-1.83s6.2.95,6.92,1.83H4.33Z" fill="#fcbd40"/><path d="m21.8,4.03c-.4-.55-1.01-.86-1.69-.86h-1.81l.1-1.04c.06-.6-.13-1.21-.5-1.62-.3-.33-.69-.51-1.1-.51H5.7c-.41,0-.8.18-1.1.51-.37.41-.56,1.02-.5,1.62l.1,1.04h-2.12c-.68,0-1.29.31-1.69.86S-.1,5.26.11,5.9l1.79,5.45c.31,1.35,1.49,2.3,2.87,2.3h1.06c.9,1.58,2.36,2.6,4.02,2.6h2.78c1.66,0,3.12-1.01,4.02-2.6h.76c1.39,0,2.57-.95,2.86-2.25l1.81-5.49c.21-.64.1-1.32-.29-1.87ZM4.77,12.65c-.92,0-1.7-.62-1.91-1.56l-1.81-5.49c-.11-.33-.05-.69.15-.97.21-.28.53-.45.88-.45h2.2v-.16l.69,7.02c.07.58.22,1.11.4,1.62h-.6Zm7.87,2.6h-2.78c-1.92,0-3.59-1.86-3.89-4.33l-.87-8.89c-.03-.33.06-.65.25-.85.07-.08.2-.18.36-.18h11.1c.16,0,.28.1.36.18.19.21.28.53.25.85l-.87,8.87c-.3,2.47-1.98,4.34-3.89,4.34Zm8.49-9.65l-1.82,5.54c-.2.89-.98,1.52-1.9,1.52h-.3c.19-.51.34-1.05.41-1.63l.67-6.85h1.91c.35,0,.67.16.88.45.21.28.26.64.15.97Z" fill="#fcbd40"/></g></g></svg>