<svg xmlns="http://www.w3.org/2000/svg" width="34" height="42" viewBox="0 0 34 42">
  <g id="Group_441" data-name="Group 441" transform="translate(-780 -2496)">
    <rect id="Rectangle_627" data-name="Rectangle 627" width="34" height="42" transform="translate(780 2496)" fill="#9b9685"/>
    <path id="Path_198" data-name="Path 198" d="M780.009,2515.9,814,2503.921l0,10-34,20.975Z" fill="#cececd"/>
    <g id="Group_439" data-name="Group 439">
      <path id="Path_178" data-name="Path 178" d="M786.555,2538l-.908-5.391h0l-1.749-7.626,1.172-6.684,4.005-1.373.007-.568.409-.4.01-.944.712.007.641.206.581-.188,1.63-.732.529-.82.627-1.629.722-.221-.242-1.01-.263-.27-.251-.232-.017-.489-.4-.406.006-.929v-.352l-.211-.46.3-.288.478.319.059-.84-.128-.846-.348-.31v-.023c.033-.22.307-1.991.308-2.081s.011-1.676.011-1.676l.284-.278h.283l.114-.541.289-.343.852.01.819-.624.511-.1.49.083h.3l.4-.2.312.285.922.843,2.221,1.782.221.6-.1.237.412,1.349-.246,2.926.726-.709.264.27.086.287-.128.206-.079.251-.007.675-.386,1.017-.072.535-.36.272-.381-.058-.26,1.9-.727,2.136.386.087.487,1.284.274.279.445,1.044,1.559,1.024,1.2,1.225,1.778.479,1.029,1.153.885,3,.53,3.862-.017,1.549.54,2.92V2538Z" fill="#3c3a32"/>
      <path id="Path_179" data-name="Path 179" d="M803.054,2517.014l1.593,1.1,1.082-3.347.12-.116v-.309l1.239-3.977v-.385l.228-.632v-.4l.944-3.154.5.006.188-.45-.22-.223h-.258l.151-.64s-.029-.284-.279-.286a1.851,1.851,0,0,0-.492.072l-1.125,3.633h-.252l.373-1.486.233-.23.091-.325-.337-.08-.174.532-.81,2.789-.294.287-1.437,4.324-.187.184-.1.294.107.3Z" fill="#3c3a32"/>
    </g>
  </g>
</svg>
