<svg xmlns="http://www.w3.org/2000/svg" width="150" height="150" viewBox="0 0 150 150">
  <defs>
    <style>
      .cls-1 {
        fill: #fff;
      }
    </style>
  </defs>
  <g id="Layer_1" data-name="Layer 1">
    <g>
      <rect class="cls-1" x="66.42355" y="16.99872" width="1.61084" height="9.89063"/>
      <path class="cls-1" d="M72.79733,86.66888,68.392,79.6203l4.40533-1.76221V61.11786L48.12747,47.02094V89.26788l24.66986,14.14124ZM64.86771,89.7525,56.0571,84.90668V76.977l6.16742,3.52441,2.64319,4.40528Zm0-19.38342-2.64319,1.76221L56.0571,68.60687V60.67743l8.81061,4.84582Z"/>
      <path class="cls-1" d="M77.20267,103.40912l7.92956-4.846v-12.467l16.74024-9.55957V47.02094L77.20267,61.11786ZM85.13223,65.8316l8.81067-5.15417V72.13129l-8.81067,5.28637Z"/>
      <polygon class="cls-1" points="101.872 42.616 49.009 42.616 75 57.594 101.872 42.616"/>
      <polygon class="cls-1" points="111.563 112.363 123.244 105.113 123.244 91.015 99.157 105.647 111.563 112.363"/>
      <polygon class="cls-1" points="26.756 106.147 38.437 113.397 50.843 106.681 26.756 92.05 26.756 106.147"/>
      <path class="cls-1" d="M129.85587,78.39191v-50.493L117.82138,7.0545H32.17874L20.14413,27.89911V78.392L6.99564,85.90533V101.6142l14.54992,8.81421.19647.09912L73.6257,142.109,75,142.9455l1.37427-.83655,52.0802-31.701v.01269l14.54986-8.81421v-15.701ZM91.4324,26.88934h7.79981V24.14813H94.76736V21.06805l3.27784-3.02441V16.99872H92.42166l-.98926-2.51563v-2.458h13.84717v4.71875l-2.40185,3.19335a2.40333,2.40333,0,0,1,2.51513,2.57227v6.83789a2.3596,2.3596,0,0,1-2.45849,2.459H91.4324ZM75.91867,25.25067c0-1.61133.28223-2.51562,1.667-3.36328L83.718,18.04364V16.99872H76.90744l-.98877-2.51563v-2.458H87.42014a2.35881,2.35881,0,0,1,2.45849,2.458v4.52149c0,1.583-.22607,2.54394-1.66748,3.36328l-6.104,3.44726v1.07422h7.77148v4.917h-13.96ZM60.26291,14.48309a2.35854,2.35854,0,0,1,2.4585-2.458h9.01464a2.38146,2.38146,0,0,1,2.48682,2.458V29.34735a2.36658,2.36658,0,0,1-2.48682,2.459H62.72141a2.35933,2.35933,0,0,1-2.4585-2.459ZM44.60715,25.25067c0-1.61133.28222-2.51562,1.667-3.36328l6.13232-3.84375V16.99872H45.59592l-.98877-2.51563v-2.458H56.10861a2.35881,2.35881,0,0,1,2.4585,2.458v4.52149c0,1.583-.22608,2.54394-1.66748,3.36328l-6.104,3.44726v1.07422h7.77149v4.917h-13.96Zm-.00391,11.63794h60.79352V94.1579L78.977,110.23944l-3.884-6.2749L75,103.90692l-.093.05762-3.884,6.2749L44.60324,94.1579Zm82.60944,71.18079L75,139.851,22.78732,108.0694V35.93085H28.0737V72.28534l10.57281,6.0415v-42.396H42.4006v59.465l1.05732.64356,26.40582,16.07312-8.751,14.13794,12.14069,7.51489,1.731-16.60278L75,117.10492l.01569.05762,1.731,16.60278,12.14069-7.51489-8.751-14.13794,26.40582-16.07312,1.05732-.64356v-59.465h3.75415v42.396l10.57275-6.0415V35.93085h5.28638Z"/>
    </g>
  </g>
</svg>
