<svg xmlns="http://www.w3.org/2000/svg" width="150" height="150" viewBox="0 0 150 150">
  <defs>
    <style>
      .cls-1 {
        fill: #fff;
      }
    </style>
  </defs>
  <g id="Layer_1" data-name="Layer 1">
    <g>
      <polygon class="cls-1" points="101.693 41.637 101.872 41.537 49.009 41.537 49.182 41.637 48.95 41.637 74.942 56.615 101.814 41.637 101.693 41.637"/>
      <polygon class="cls-1" points="38.472 97.927 28.592 104.286 74.942 132.462 121.408 104.178 111.516 97.894 74.942 120.085 38.472 97.927"/>
      <path class="cls-1" d="M48.1275,46.07589l-.05835-.03333V88.28963L72.739,102.4308v-.13372l.05835.03344V85.59029l-4.36688-6.987L72.739,76.8799v-.077l.05835-.02332V60.03939l-24.6698-14.097Zm7.92957,37.75225v-7.796l6.10913,3.491,2.64319,4.40533v4.71351Zm6.16748-12.77545-6.16748-3.52423V59.73122l8.75232,4.81372v4.78455Z"/>
      <path class="cls-1" d="M77.20264,60.10628l-.05835.03333V102.4308l7.92956-4.84588V97.5204l.05841-.0357V85.08449l16.68189-9.52618v-.067l.05835-.03332V45.94234l-24.66986,14.097Zm7.92962,16.23285v-11.52l8.75226-5.12V71.08773Z"/>
      <path class="cls-1" d="M130.19318,68.64235l19.14318-33.1571H129.8559V27.52913l-11.821-20.47467H32.39221L20.1441,28.26876v7.21649H.66364l19.14318,33.1571L5.26166,93.83547H20.1441v15.71942l1.26886.7724,52.21271,31.78162L75,142.94545l1.37433-.83654L128.587,110.32729l1.26886-.7724V93.83547h14.88244ZM91.43243,26.88466h7.79981V24.14345H94.7674V21.06337L98.04523,18.039V16.994H92.42169l-.98926-2.51563v-2.458H105.2796v4.71875l-2.40185,3.19336a2.40333,2.40333,0,0,1,2.51513,2.57227v6.83789a2.35959,2.35959,0,0,1-2.45849,2.459h-11.502ZM75.9187,25.246c0-1.61133.28223-2.51562,1.667-3.36328L83.718,18.039V16.994H76.90747l-.98877-2.51563v-2.458H87.42017a2.35882,2.35882,0,0,1,2.45849,2.458V18.9999c0,1.583-.22607,2.54394-1.66748,3.36328l-6.104,3.44726v1.07422h7.77148v4.917h-13.96ZM60.26294,14.47841a2.35855,2.35855,0,0,1,2.4585-2.458h9.01464a2.38147,2.38147,0,0,1,2.48682,2.458V29.34267a2.36658,2.36658,0,0,1-2.48682,2.459H62.72144a2.35932,2.35932,0,0,1-2.4585-2.459ZM44.60718,25.246c0-1.61133.28222-2.51562,1.667-3.36328L52.40649,18.039V16.994H45.596l-.98877-2.51563v-2.458H56.10864a2.35882,2.35882,0,0,1,2.4585,2.458V18.9999c0,1.583-.22608,2.54394-1.66748,3.36328l-6.104,3.44726v1.07422h7.77149v4.917h-13.96Zm-.004,11.64258h60.79358V94.15779L75,112.66017,44.60321,94.15779Zm82.6095,71.18085L75,139.85109,22.78729,108.06942V35.93087H42.40057V95.39565l1.05738.64368,30.39679,18.50238L75,115.23879l1.14526-.69708,30.39679-18.50238,1.05738-.64368V35.93087h19.61328Z"/>
      <rect class="cls-1" x="66.42358" y="16.99404" width="1.61084" height="9.89063"/>
    </g>
  </g>
</svg>
