<svg xmlns="http://www.w3.org/2000/svg" xmlns:xlink="http://www.w3.org/1999/xlink" width="150" height="150" viewBox="0 0 150 150">
  <defs>
    <style>
      .cls-1 {
        fill: url(#linear-gradient);
      }

      .cls-2, .cls-3 {
        fill-rule: evenodd;
      }

      .cls-3 {
        fill: #fff;
      }
    </style>
    <linearGradient id="linear-gradient" x1="99.07691" y1="12.06595" x2="21.17839" y2="191.62864" gradientUnits="userSpaceOnUse">
      <stop offset="0" stop-color="#00345c"/>
      <stop offset="0.84138" stop-color="#00c0c1"/>
      <stop offset="0.954" stop-color="#fff"/>
      <stop offset="1" stop-color="#fff"/>
    </linearGradient>
  </defs>
  <g id="Layer_1" data-name="Layer 1">
    <path class="cls-1" d="M127.70288,108.768,75,140.633,22.29706,108.768V30.59619A20.52746,20.52746,0,0,1,42.89318,10.1381h64.21358a20.52746,20.52746,0,0,1,20.59612,20.45809Z"/>
    <path class="cls-2" d="M129.8559,49.1766V54.351l15.8828-8.9403s-.125,19.1973-3.3727,22.2097l-12.5101,7.0688v37.8657l-1.2688.7725L76.3744,145.109,75,145.9455l-1.3743-.8365L21.413,113.3274l-1.2689-.7725V74.6893L7.634,67.6204C4.3863,64.608,4.2613,45.4107,4.2613,45.4107L20.1441,54.351V49.1767L7.634,42.1077C4.3863,39.0953,4.2613,19.8982,4.2613,19.8982L21.042,29.3438,32.1786,10.0545h85.6428L128.958,29.3438l16.7807-9.4456s-.125,19.1971-3.3727,22.2095ZM58.5671,29.9823H50.7956V28.9081l6.104-3.4474c1.4414-.8192,1.6675-1.7802,1.6675-3.3633V17.5759a2.35874,2.35874,0,0,0-2.4585-2.4579H44.6071v2.4579l.9888,2.5157h6.8106v1.0449l-6.1324,3.8438c-1.3847.8477-1.667,1.752-1.667,3.3633v6.5557h13.96ZM74.2229,17.5759a2.38137,2.38137,0,0,0-2.4868-2.4579H62.7214a2.35847,2.35847,0,0,0-2.4585,2.4579V32.4403a2.35935,2.35935,0,0,0,2.4585,2.459h9.0147a2.3666,2.3666,0,0,0,2.4868-2.459ZM89.8786,29.9823H82.1071V28.9081l6.1041-3.4474c1.4414-.8192,1.6674-1.7802,1.6674-3.3633V17.5759a2.35869,2.35869,0,0,0-2.4585-2.4579H75.9187v2.4579l.9887,2.5157H83.718v1.0449l-6.1323,3.8438c-1.3848.8477-1.667,1.752-1.667,3.3633v6.5557H89.8786Zm15.5143-4.38a2.40354,2.40354,0,0,0-2.5152-2.5723l2.4019-3.1932V15.118H91.4324v2.4579l.9893,2.5157h5.6235v1.0449l-3.2778,3.0244V27.241h4.4648v2.7413H91.4324v4.917h11.502a2.35963,2.35963,0,0,0,2.4585-2.459Zm.0039,14.2864H44.6033V97.1579L75,115.6603l30.3968-18.5024Zm21.8159,46.5837-13.1011-7.5177.0279-15.475,13.0732-7.4394V38.9309H107.5995V98.3957l-1.0575.6437L76.1453,117.5418,75,118.2389l-1.1452-.6971L43.458,99.0394l-1.0574-.6437V38.9309H22.7873V56.0403l13.0733,7.4394.0279,15.475L22.7873,86.4724v24.1804l12.5659-6.9311,13.2124,8.0569-.419,14.7269L75,142.8511l26.8534-16.3455-.419-14.727,13.2124-8.0569,12.5659,6.9311ZM75.0163,139.2171c-2.1103-6.0046-3.8211-7.7154-9.8258-9.8257,6.0047-2.1104,7.7155-3.8212,9.8258-9.8259,2.1104,6.0047,3.8211,7.7155,9.8258,9.8259C78.8374,131.5017,77.1267,133.2125,75.0163,139.2171Zm26.8562-59.6806L85.1323,89.0962v12.4669l-7.9296,4.846V64.1179l24.6698-14.097ZM93.9429,63.6773l-8.8106,5.1542V80.4177l8.8106-5.2864ZM49.0086,45.6155h52.8639L75,60.5937ZM72.7973,80.8581,68.392,82.6203l4.4053,7.0485v16.7403L48.1275,92.2679V50.0209l24.6698,14.097ZM64.8678,68.5233l-8.8107-4.846v7.9296l6.1675,3.5244,2.6432-1.7621Zm0,19.3834-2.6432-4.4054-6.1675-3.5241v7.9295l8.8107,4.8458Zm1.5558-67.8151h1.6108v9.8907H66.4236Z"/>
    <path class="cls-3" d="M129.8559,46.1766V51.351l15.8828-8.9403s-.125,19.1973-3.3727,22.2097l-12.5101,7.0688v37.8657l-1.2688.7725L76.3744,142.109,75,142.9455l-1.3743-.8365L21.413,110.3274l-1.2689-.7725V71.6893L7.634,64.6204C4.3863,61.608,4.2613,42.4107,4.2613,42.4107L20.1441,51.351V46.1767L7.634,39.1077C4.3863,36.0953,4.2613,16.8982,4.2613,16.8982L21.042,26.3438,32.1786,7.0545h85.6428L128.958,26.3438l16.7807-9.4456s-.125,19.1971-3.3727,22.2095ZM58.5671,26.9823H50.7956V25.9081l6.104-3.4474c1.4414-.8192,1.6675-1.7802,1.6675-3.3633V14.5759a2.35874,2.35874,0,0,0-2.4585-2.4579H44.6071v2.4579l.9888,2.5157h6.8106v1.0449l-6.1324,3.8438c-1.3847.8477-1.667,1.752-1.667,3.3633v6.5557h13.96ZM74.2229,14.5759a2.38137,2.38137,0,0,0-2.4868-2.4579H62.7214a2.35847,2.35847,0,0,0-2.4585,2.4579V29.4403a2.35935,2.35935,0,0,0,2.4585,2.459h9.0147a2.3666,2.3666,0,0,0,2.4868-2.459ZM89.8786,26.9823H82.1071V25.9081l6.1041-3.4474c1.4414-.8192,1.6674-1.7802,1.6674-3.3633V14.5759a2.35869,2.35869,0,0,0-2.4585-2.4579H75.9187v2.4579l.9887,2.5157H83.718v1.0449l-6.1323,3.8438c-1.3848.8477-1.667,1.752-1.667,3.3633v6.5557H89.8786Zm15.5143-4.38a2.40354,2.40354,0,0,0-2.5152-2.5723l2.4019-3.1932V12.118H91.4324v2.4579l.9893,2.5157h5.6235v1.0449l-3.2778,3.0244V24.241h4.4648v2.7413H91.4324v4.917h11.502a2.35963,2.35963,0,0,0,2.4585-2.459Zm.0039,14.2864H44.6033V94.1579L75,112.6603l30.3968-18.5024Zm21.8159,46.5837-13.1011-7.5177.0279-15.475,13.0732-7.4394V35.9309H107.5995V95.3957l-1.0575.6437L76.1453,114.5418,75,115.2389l-1.1452-.6971L43.458,96.0394l-1.0574-.6437V35.9309H22.7873V53.0403l13.0733,7.4394.0279,15.475L22.7873,83.4724v24.1804l12.5659-6.9311,13.2124,8.0569-.419,14.7269L75,139.8511l26.8534-16.3455-.419-14.727,13.2124-8.0569,12.5659,6.9311ZM75.0163,136.2171c-2.1103-6.0046-3.8211-7.7154-9.8258-9.8257,6.0047-2.1104,7.7155-3.8212,9.8258-9.8259,2.1104,6.0047,3.8211,7.7155,9.8258,9.8259C78.8374,128.5017,77.1267,130.2125,75.0163,136.2171Zm26.8562-59.6806L85.1323,86.0962V98.5631l-7.9296,4.846V61.1179l24.6698-14.097ZM93.9429,60.6773l-8.8106,5.1542V77.4177l8.8106-5.2864ZM49.0086,42.6155h52.8639L75,57.5937ZM72.7973,77.8581,68.392,79.6203l4.4053,7.0485v16.7403L48.1275,89.2679V47.0209l24.6698,14.097ZM64.8678,65.5233l-8.8107-4.846v7.9296l6.1675,3.5244,2.6432-1.7621Zm0,19.3834-2.6432-4.4054-6.1675-3.5241v7.9295l8.8107,4.8458Zm1.5558-67.8151h1.6108v9.8907H66.4236Z"/>
  </g>
</svg>
