<?xml version="1.0" encoding="utf-8"?>
<!-- Generator: Adobe Illustrator 27.1.1, SVG Export Plug-In . SVG Version: 6.00 Build 0)  -->
<svg version="1.1" id="Layer_1" xmlns="http://www.w3.org/2000/svg" xmlns:xlink="http://www.w3.org/1999/xlink" x="0px" y="0px"
	 viewBox="0 0 25 25" style="enable-background:new 0 0 25 25;" xml:space="preserve">
<g>
	<linearGradient id="SVGID_1_" gradientUnits="userSpaceOnUse" x1="12.5" y1="25.0975" x2="12.5" y2="1.1327">
		<stop  offset="0" style="stop-color:#5C1510"/>
		<stop  offset="1" style="stop-color:#FF460A"/>
	</linearGradient>
	<polygon style="fill:url(#SVGID_1_);" points="23,18.8 12.5,25 2,18.8 2,0 23,0 	"/>
	<g style="opacity:0.68;">
		<g style="enable-background:new    ;">
			<g>
				<path style="fill:#1F1F1F;" d="M11.8,8.8L3.7,4.2v13.9l8.1,4.6v-5.5l-1.4-2.3l1.4-0.6V8.8z M9.2,18.2l-2.9-1.6V14l2,1.2l0.9,1.4
					V18.2z M9.2,11.9l-0.9,0.6l-2-1.2V8.7l2.9,1.6V11.9z"/>
			</g>
		</g>
	</g>
	<g style="opacity:0.68;">
		<g style="enable-background:new    ;">
			<g>
				<path style="fill:#1F1F1F;" d="M15.8,14.2l0-3.8l2.9-1.7v3.8L15.8,14.2z M21.3,4.2l-8.1,4.6v13.9l2.6-1.6V17l5.5-3.2V4.2"/>
			</g>
		</g>
	</g>
	<polygon style="opacity:0.68;fill:#1F1F1F;" points="12.5,7.7 4,2.7 21.3,2.7 	"/>
	<g>
		<g>
			<g style="enable-background:new    ;">
				<g>
					
						<linearGradient id="SVGID_00000005236958040552391290000016804595050749221259_" gradientUnits="userSpaceOnUse" x1="17.5054" y1="23.9751" x2="-2.8792" y2="0.2195">
						<stop  offset="0" style="stop-color:#8F4929"/>
						<stop  offset="0.362" style="stop-color:#CFC261"/>
						<stop  offset="0.614" style="stop-color:#FFEF76"/>
						<stop  offset="0.954" style="stop-color:#FFFFFF"/>
						<stop  offset="1" style="stop-color:#FFFFFF"/>
					</linearGradient>
					<path style="fill:url(#SVGID_00000005236958040552391290000016804595050749221259_);" d="M11.8,8L3.7,3.3v13.9l8.1,4.6v-5.5
						L10.3,14l1.4-0.6V8z M9.2,17.4l-2.9-1.6v-2.6l2,1.2l0.9,1.4V17.4z M9.2,11l-0.9,0.6l-2-1.2V7.8l2.9,1.6V11z"/>
				</g>
			</g>
		</g>
		<g>
			<g style="enable-background:new    ;">
				<g>
					
						<linearGradient id="SVGID_00000107564936208805311420000005696498613092830593_" gradientUnits="userSpaceOnUse" x1="23.0957" y1="19.3704" x2="2.7334" y2="-4.3592">
						<stop  offset="0" style="stop-color:#8F4929"/>
						<stop  offset="0.362" style="stop-color:#CFC261"/>
						<stop  offset="0.614" style="stop-color:#FFEF76"/>
						<stop  offset="0.954" style="stop-color:#FFFFFF"/>
						<stop  offset="1" style="stop-color:#FFFFFF"/>
					</linearGradient>
					<path style="fill:url(#SVGID_00000107564936208805311420000005696498613092830593_);" d="M15.8,13.3l0-3.8l2.9-1.7v3.8
						L15.8,13.3z M21.3,3.3L13.2,8v13.9l2.6-1.6l0-4.1l5.5-3.1L21.3,3.3z"/>
				</g>
			</g>
		</g>
		
			<linearGradient id="SVGID_00000066514583159315696740000007674501964073512376_" gradientUnits="userSpaceOnUse" x1="25.9864" y1="17.4289" x2="5.0531" y2="-6.9661">
			<stop  offset="0" style="stop-color:#8F4929"/>
			<stop  offset="0.362" style="stop-color:#CFC261"/>
			<stop  offset="0.614" style="stop-color:#FFEF76"/>
			<stop  offset="0.954" style="stop-color:#FFFFFF"/>
			<stop  offset="1" style="stop-color:#FFFFFF"/>
		</linearGradient>
		<polygon style="fill:url(#SVGID_00000066514583159315696740000007674501964073512376_);" points="12.5,6.8 4,1.9 21.3,1.9 		"/>
	</g>
</g>
</svg>
