<?xml version="1.0" encoding="UTF-8"?>
<svg id="coin" xmlns="http://www.w3.org/2000/svg" width="100" height="100" xmlns:xlink="http://www.w3.org/1999/xlink" viewBox="0 0 100 100">
  <defs>
    <style>
      .cls-1 {
        fill: url(#linear-gradient);
      }
    </style>
    <linearGradient id="linear-gradient" x1="79.03" y1="94.23" x2="18.32" y2="1.73" gradientUnits="userSpaceOnUse">
      <stop offset="0" stop-color="#6d7174"/>
      <stop offset=".11" stop-color="#939ea1"/>
      <stop offset=".3" stop-color="#6d7174"/>
      <stop offset=".56" stop-color="#b9c0c4"/>
      <stop offset=".68" stop-color="#f4f5f5"/>
      <stop offset=".83" stop-color="#f0fbfc"/>
      <stop offset="1" stop-color="#d7d7d7"/>
    </linearGradient>
  </defs>
  <path id="silver" class="cls-1" d="m34.67,71.92c3.46,2.02,7.63,3.03,12.51,3.03,5.56,0,10-1.26,13.32-3.79,3.32-2.53,4.98-5.6,4.98-9.22,0-3.34-.76-6.09-2.27-8.25-1.52-2.16-4.15-4.02-7.91-5.58l-4.51-1.88c-2.91-1.23-4.83-2.18-5.77-2.87-.94-.68-1.67-1.53-2.2-2.54-.53-1.01-.79-2.13-.79-3.36,0-2,.73-3.63,2.2-4.91,1.47-1.27,3.48-1.91,6.03-1.91,1.75,0,3.66.3,5.71.89,2.05.59,3.58,1.21,4.58,1.84l2.22-5.73c-2.38-1.73-6.61-2.6-12.7-2.6-4.56,0-8.29,1.19-11.2,3.56-2.91,2.37-4.36,5.36-4.36,8.96,0,2.96.75,5.5,2.24,7.61,1.49,2.11,4.11,3.93,7.87,5.47l4.43,1.81c3.98,1.65,6.47,3.17,7.46,4.56.99,1.39,1.48,2.9,1.48,4.53,0,2.17-.89,3.96-2.67,5.37-1.78,1.41-4.13,2.11-7.06,2.11-1.65,0-3.53-.3-5.62-.91-2.09-.6-3.84-1.36-5.24-2.26l-2.74,6.06Zm15.35-56.99c19.38,0,35.09,15.7,35.09,35.07s-15.71,35.07-35.09,35.07S14.93,69.37,14.93,50c0-19.37,15.71-35.07,35.09-35.07ZM10.03,50.08c0,22.04,17.9,39.91,39.98,39.91s39.98-17.87,39.98-39.91S72.1,10.17,50.02,10.17,10.03,28.04,10.03,50.08ZM50,1c27.06,0,49,21.94,49,49s-21.94,49-49,49S1,77.06,1,50,22.94,1,50,1Z"/>
</svg>