<svg id="Group_1_copy_15" data-name="Group 1 copy 15" xmlns="http://www.w3.org/2000/svg" xmlns:xlink="http://www.w3.org/1999/xlink" width="23" height="29" viewBox="0 0 23 29">
  <defs>
    <style>
      .cls-1 {
        fill: url(#linear-gradient);
      }

      .cls-2, .cls-3, .cls-4, .cls-5 {
        fill-rule: evenodd;
      }

      .cls-2 {
        fill: url(#linear-gradient-2);
      }

      .cls-3 {
        fill: #7d7419;
        opacity: 0.75;
      }

      .cls-4 {
        fill: #8c4f00;
      }

      .cls-5 {
        fill: url(#linear-gradient-3);
      }
    </style>
    <linearGradient id="linear-gradient" x1="11.5" y1="29" x2="11.5" gradientUnits="userSpaceOnUse">
      <stop offset="0" stop-color="#a76f37"/>
      <stop offset="0.234" stop-color="#c4913f"/>
      <stop offset="0.478" stop-color="#fbd280"/>
      <stop offset="1" stop-color="#ffffc2"/>
    </linearGradient>
    <linearGradient id="linear-gradient-2" x1="21.938" y1="14.656" x2="1.125" y2="14.656" gradientUnits="userSpaceOnUse">
      <stop offset="0" stop-color="#fcd077"/>
      <stop offset="1" stop-color="#e19100"/>
    </linearGradient>
    <linearGradient id="linear-gradient-3" x1="11.5" y1="28.406" x2="11.5" y2="0.594" gradientUnits="userSpaceOnUse">
      <stop offset="0" stop-color="#9f6700"/>
      <stop offset="1" stop-color="#fcd88e"/>
    </linearGradient>
  </defs>
  <rect class="cls-1" width="23" height="29"/>
  <path class="cls-2" d="M11.533,6.836l7.734,7.823-7.734,7.823L3.8,14.659Zm0,18.343-10.4-10.52L2.75,13.023a3.243,3.243,0,0,0,.509.564L2.2,14.659,11.533,24.1l9.334-9.441L11.533,5.218,5.268,11.555,4.456,11.3l7.077-7.158,10.4,10.52Z"/>
  <path class="cls-3" d="M11.533,22.464l-0.523-.529a0.67,0.67,0,0,1,.212-0.487c0.485-.444.534-0.764,0.291-1.036a2.145,2.145,0,0,1-.728-1.6,1.872,1.872,0,0,1,1.8-1.825c0.971,0.1,2.038.37,2.62-.025a2.551,2.551,0,0,0,.9-3.009,2.453,2.453,0,0,0-2.329-1.6A1.5,1.5,0,0,1,12.1,11.091a3.6,3.6,0,0,1,1.023-2.669l6.149,6.219Zm-0.666-5.784a0.841,0.841,0,0,1-1.06-.324c-0.21-.326-0.937-0.37-1.079.441s0.6,1.2.938,2.245A3.169,3.169,0,0,1,9.66,20.57L6.315,17.186a4.431,4.431,0,0,0-.574-2.268l4.936-4.238a2.383,2.383,0,0,0,.176,1.682C11.291,13.311,12.2,15.858,10.866,16.679Z"/>
  <path class="cls-4" d="M20.526,21.813l-0.627.506-0.112.09-0.627.506c-1.044.562-.955-0.421-0.955-0.421l-3.515-4.5A1.782,1.782,0,0,0,13.6,16.466a1.322,1.322,0,0,1,.214-0.993l-0.711-.91a1.661,1.661,0,0,1-.222-1.658l0.009-.02,2.365-5.018a0.892,0.892,0,0,0-.123-0.882L13.668,5.113a0.307,0.307,0,0,0-.436-0.051l-0.438.353c0.561,0.836.72,1.7,0.369,2.073l0.02,0.025L4.87,14.219h0l-0.016.013,0,0c-0.468.348-1.425-.115-2.155-1.05s-0.965-2.016-.5-2.388A0.914,0.914,0,0,1,2.322,10.7L10.268,4.28a0.609,0.609,0,0,1,.171-0.164c0.379-.306,1.1-0.039,1.76.589l0.463-.374a1.214,1.214,0,0,1,1.725.2l1.462,1.872a1.836,1.836,0,0,1,.246,1.833l-0.009.02L13.72,13.276a0.717,0.717,0,0,0,.1.707l0.688,0.881a1.352,1.352,0,0,1,1.1-.022,1.786,1.786,0,0,0,1.214,1.428l3.515,4.5S21.3,20.907,20.526,21.813ZM3.981,12.142a1.032,1.032,0,0,0-1.17-.56,1.069,1.069,0,0,0,.271,1.286,1.032,1.032,0,0,0,1.17.56A1.069,1.069,0,0,0,3.981,12.142Z"/>
  <path id="Rectangle_2_copy" data-name="Rectangle 2 copy" class="cls-5" d="M0.582,28.408V0.592H22.418V28.408H0.582ZM18.161,1.48H4.839L1.456,4.9V24.1L4.839,27.52H18.161L21.544,24.1V4.9Z"/>
</svg>
