<svg id="Group_1_copy_20" data-name="Group 1 copy 20" xmlns="http://www.w3.org/2000/svg" width="100" height="100" viewBox="0 0 100 100">
  <defs>
    <style>
      .cls-1 {
        fill: #e8e8e8;
      }

      .cls-2 {
        fill: #81c96a;
      }

      .cls-2, .cls-3, .cls-4, .cls-5 {
        fill-rule: evenodd;
      }

      .cls-2, .cls-3 {
        opacity: 0.57;
      }

      .cls-3 {
        fill: #9fd58e;
      }

      .cls-4 {
        fill: #5aa243;
      }

      .cls-5 {
        fill: #38743e;
      }
    </style>
  </defs>
  <rect class="cls-1" x="11" y="1" width="79" height="98"/>
  <path class="cls-2" d="M50.612,24.1L77.178,50.539,50.612,76.975,24.047,50.539Z"/>
  <path id="Rectangle_4_copy" data-name="Rectangle 4 copy" class="cls-3" d="M50.612,14.987L86.338,50.539,50.612,86.09,14.887,50.539Zm0,3.646L82.674,50.539l-32.061,31.9-32.061-31.9Z"/>
  <path id="Rectangle_2_copy" data-name="Rectangle 2 copy" class="cls-4" d="M13,97V3H88V97H13ZM73.381,6H27.619L16,17.563V82.437L27.619,94H73.381L85,82.437V17.563Z"/>
  <path class="cls-4" d="M60.138,39.492L50.85,47.1l-9.988-.045V28.038h-9.7L50.5,9.031,69.841,28.038h-9.7V39.492Z"/>
  <path class="cls-5" d="M61.213,47.668L63.849,45.5a1.791,1.791,0,0,0,.554-0.786,3.049,3.049,0,0,1,.63-1.163L83.025,29.041a3.969,3.969,0,0,0-.494-1.776,3.177,3.177,0,0,0-.984-1.281l-4.2,3.389-0.213-.224s-2.212-.291-2.8-0.409l-0.209.169-0.659.531-0.21.169c-0.01.6-.193,2.824-0.193,2.824l0.173,0.255L49.292,52l-0.64-.793s-1.673.238-1.7,0.256l-0.929.749c-0.022.018-.609,1.6-0.609,1.6l0.374,0.464-0.646.521-3.473,2.8c-0.888.71-1.272,1.485-.987,2.267a1.808,1.808,0,0,0,.557.686l0.052,0.07a6.592,6.592,0,0,1-1.557,5.6A3.75,3.75,0,0,1,37.2,67.433a1.567,1.567,0,0,0-1.271.63L23.314,82.194a1.219,1.219,0,0,0,.136,1.027c0.332,0.473,5.667,6.6,6.257,6.961s1.654-.889,1.654-0.889a54.135,54.135,0,0,0,9.1-15.722,1.167,1.167,0,0,1,.906-0.759l0.752-.124A1.412,1.412,0,0,0,43.3,71.293c0-1.26.018-3.171,0.123-3.986A8.31,8.31,0,0,1,45.608,62.7a0.513,0.513,0,0,1,.348.136c0.375,0.327,1.583,1.5,1.583,1.5s0.562,0.7,1.9-.309S52.972,61.1,52.972,61.1s0.916-.7-0.053-2a10.57,10.57,0,0,1-.851-1.055,0.519,0.519,0,0,1,.174-0.474c0.139-.149.835-0.711,0.835-0.711l0.041-.043,4.915-3.964,6.625,7.166a1.232,1.232,0,0,0,1.74.068L67.584,59a1.231,1.231,0,0,0,.068-1.74l-6.439-6.963L61.1,48.119A0.388,0.388,0,0,1,61.213,47.668ZM79.786,28.639l0.569-.459a0.731,0.731,0,1,1,.918,1.138l-0.569.459A0.731,0.731,0,0,1,79.786,28.639Z"/>
</svg>
