<svg xmlns="http://www.w3.org/2000/svg" xmlns:xlink="http://www.w3.org/1999/xlink" width="70" height="46" viewBox="0 0 70 46">
  <defs>
    <linearGradient id="linear-gradient" x1="52.12" y1="53.6" x2="52.12" y2="15.96" gradientTransform="translate(85.73 -28.47) rotate(90)" gradientUnits="userSpaceOnUse">
      <stop offset="0" stop-color="#a66e37"/>
      <stop offset="0.27" stop-color="#c08c3a"/>
      <stop offset="0.58" stop-color="#fcd381"/>
      <stop offset="1" stop-color="#fcffc2"/>
    </linearGradient>
    <linearGradient id="linear-gradient-2" x1="38.41" y1="35.52" x2="65.2" y2="35.52" gradientTransform="matrix(0.98, 0.21, -0.21, 0.98, 7.2, -21.2)" gradientUnits="userSpaceOnUse">
      <stop offset="0" stop-color="#e19100"/>
      <stop offset="1" stop-color="#fcd077"/>
    </linearGradient>
    <linearGradient id="linear-gradient-3" x1="38.41" y1="35.52" x2="65.2" y2="35.52" xlink:href="#linear-gradient-2"/>
    <linearGradient id="linear-gradient-4" x1="52.12" y1="52.43" x2="52.12" y2="15.05" gradientTransform="matrix(0.98, 0.21, -0.21, 0.98, 7.2, -21.2)" gradientUnits="userSpaceOnUse">
      <stop offset="0" stop-color="#c0882f"/>
      <stop offset="1" stop-color="#fcd077"/>
    </linearGradient>
    <linearGradient id="linear-gradient-5" x1="34.98" y1="38.47" x2="34.98" y2="2.06" gradientUnits="userSpaceOnUse">
      <stop offset="0" stop-color="#626262"/>
      <stop offset="1" stop-color="#dadada"/>
    </linearGradient>
    <linearGradient id="linear-gradient-6" x1="24.98" y1="19.86" x2="45.06" y2="19.86" xlink:href="#linear-gradient-5"/>
    <linearGradient id="linear-gradient-7" x1="21.52" y1="19.86" x2="48.52" y2="19.86" xlink:href="#linear-gradient-5"/>
    <linearGradient id="linear-gradient-8" x1="34.98" y1="-248.13" x2="34.98" y2="-215.18" gradientTransform="matrix(1, 0, 0, -1, 0, -212)" gradientUnits="userSpaceOnUse">
      <stop offset="0" stop-color="#70757e"/>
      <stop offset="1" stop-color="#eaebec"/>
    </linearGradient>
    <linearGradient id="linear-gradient-9" x1="20.22" y1="-207.4" x2="20.22" y2="-241.65" gradientTransform="matrix(1, 0, 0, -1, -1.17, -200.87)" gradientUnits="userSpaceOnUse">
      <stop offset="0" stop-color="#f4be8d"/>
      <stop offset="1" stop-color="#956b4e"/>
    </linearGradient>
    <linearGradient id="linear-gradient-10" x1="30.3" y1="12.73" x2="10.22" y2="12.73" gradientTransform="matrix(0.98, -0.21, 0.21, 0.98, -3.33, 15.6)" xlink:href="#linear-gradient-9"/>
    <linearGradient id="linear-gradient-11" x1="33.76" y1="12.74" x2="6.76" y2="12.74" gradientTransform="matrix(0.98, -0.21, 0.21, 0.98, -3.33, 15.6)" xlink:href="#linear-gradient-9"/>
    <linearGradient id="linear-gradient-12" x1="20.22" y1="30.58" x2="20.22" y2="-5.52" gradientTransform="matrix(0.98, -0.21, 0.21, 0.98, -3.33, 15.6)" gradientUnits="userSpaceOnUse">
      <stop offset="0" stop-color="#8a5a3a"/>
      <stop offset="1" stop-color="#da9e70"/>
    </linearGradient>
  </defs>
  <g style="isolation: isolate">
    <g id="Layer_1" data-name="Layer 1">
      <g>
        <g>
          <rect x="32.13" y="8.73" width="37.64" height="29.85" transform="translate(17.22 68.57) rotate(-78)" fill="url(#linear-gradient)"/>
          <g>
            <path d="M53,14.46l7.71,12L48.75,34.32,41,22.3Z" fill-rule="evenodd" fill="url(#linear-gradient-2)"/>
            <path id="Rectangle_4_copy" data-name="Rectangle 4 copy" d="M53.7,11,64.06,27.2,48,37.74,37.66,21.58Zm-.29,1.37,9.3,14.51-14.4,9.47L39,21.87Z" fill-rule="evenodd" fill="url(#linear-gradient-3)"/>
          </g>
          <path id="Color_Fill_1_copy" data-name="Color Fill 1 copy" d="M42.21,10.08l1,5.73,1.36-.2,0,.53-.89,1.36,1.26,8.21h.12l2.28,10a35.19,35.19,0,0,1-5.29-1.83c-2-1-3.17-2.17-3-3.11a.81.81,0,0,0,0-.22c1.09-2,2.49-4.24,3.26-4.47a12.8,12.8,0,0,1,1.84-.29.07.07,0,0,0,0-.05c0-.15-.25-.35-2.29-.19l-.28-6.93.52-.51-.57-7.84Zm8.7,26.51-.82-.19L46.87,25.63h.29l1.45-2.57a4.78,4.78,0,0,1-.11-1.77,1.14,1.14,0,0,1-.36-.15,3.36,3.36,0,0,1-.51-1.57s-1.34-.06-1.33-.74c.09-.25,1.32-3,1.32-3s2.41-5.32,6-4.56l1.56.33c3.59.77,3.44,7,3.44,7s.16,2.62.13,2.88c-.26.62-1.47.14-1.47.14-.33.52-.84,1.18-1.11,1.23a1.6,1.6,0,0,1-.38,0A4.55,4.55,0,0,1,55,24.41l.13,2.88a26.87,26.87,0,0,1,4.38,2.37c.53.45.91,3.21,1.17,6-.73,1.4-4.79,1.79-9.73,1Z" fill="#8c4f00" fill-rule="evenodd"/>
          <path id="Rectangle_2_copy" data-name="Rectangle 2 copy" d="M33.34,38.36l7.5-35.31L68.56,8.94l-7.5,35.32ZM62.92,8.92,46,5.33,40.79,8.76,35.61,33.13,39,38.39,55.89,42l5.22-3.43,5.18-24.37Z" fill-rule="evenodd" fill="url(#linear-gradient-4)"/>
        </g>
        <polygon points="49.9 4.19 51.76 39.51 39.06 40.37 35.02 39.51 49.9 4.19" fill-rule="evenodd" opacity="0.5" style="mix-blend-mode: multiply"/>
        <g>
          <rect x="20.05" y="0.83" width="29.85" height="37.64" fill="url(#linear-gradient-5)"/>
          <g>
            <path d="M35,9.71l10,10.15L35,30,25,19.86Z" fill-rule="evenodd" fill="url(#linear-gradient-6)"/>
            <path id="Rectangle_4_copy-2" data-name="Rectangle 4 copy" d="M35,6.21l13.5,13.65L35,33.52,21.52,19.86Zm0,1.4L47.13,19.86,35,32.11,22.9,19.86Z" fill-rule="evenodd" fill="url(#linear-gradient-7)"/>
          </g>
          <path id="Rectangle_2_copy-2" data-name="Rectangle 2 copy" d="M20.8,37.71V1.6H49.15V37.71Zm22.82-35H26.33L21.94,7.2V32.11l4.39,4.44H43.62L48,32.11V7.2Z" fill-rule="evenodd" fill="url(#linear-gradient-8)"/>
          <path id="Color_Fill_1_copy-2" data-name="Color Fill 1 copy" d="M23.61,8.73l2.14,5.4L27,13.65l.13.51-.59,1.51,2.94,7.78.12,0,4.3,9.29a34.66,34.66,0,0,1-5.55-.7c-2.18-.6-3.55-1.46-3.55-2.41a1.43,1.43,0,0,0,0-.22c.65-2.15,1.55-4.67,2.26-5.05a10.74,10.74,0,0,1,1.74-.66v-.06c0-.15-.33-.29-2.29.29L24.8,17.18l.4-.61L23,9Zm14,24.12-.85,0L31.39,23l.28-.07.89-2.81a4.81,4.81,0,0,1-.48-1.71,1.51,1.51,0,0,1-.37-.07c-.26-.1-.61-.85-.84-1.43,0,0-1.32.22-1.45-.44,0-.27.67-3.21.67-3.21S31.34,7.52,35,7.52H36.6c3.68,0,4.83,6.13,4.83,6.13s.69,2.52.72,2.79c-.13.66-1.41.44-1.41.44-.22.58-.57,1.33-.83,1.43a1.51,1.51,0,0,1-.37.07,4.81,4.81,0,0,1-.48,1.71l.72,2.79a27.05,27.05,0,0,1,4.78,1.41c.61.33,1.56,2.95,2.38,5.58-.43,1.52-4.31,2.75-9.31,3Z" fill="#575760" fill-rule="evenodd"/>
        </g>
        <polygon points="29.74 2.14 41.04 39.63 38.18 40.18 35.02 39.51 29.74 2.14" fill-rule="evenodd" opacity="0.5" style="mix-blend-mode: multiply"/>
        <g>
          <rect x="4.12" y="4.83" width="29.85" height="37.64" transform="translate(-4.5 4.48) rotate(-12)" fill="url(#linear-gradient-9)"/>
          <g>
            <path d="M17,13.91,29,21.76l-7.7,12L9.31,25.93Z" fill-rule="evenodd" fill="url(#linear-gradient-10)"/>
            <path id="Rectangle_4_copy-3" data-name="Rectangle 4 copy" d="M16.3,10.49,32.34,21,22,37.2l-16-10.55Zm.29,1.37L31,21.33l-9.3,14.5L7.28,26.37Z" fill-rule="evenodd" fill="url(#linear-gradient-11)"/>
          </g>
          <path id="Rectangle_2_copy-3" data-name="Rectangle 2 copy" d="M8.94,44.26,1.44,8.94,29.16,3.05l7.5,35.31ZM24,5.33,7.08,8.92,3.71,14.18,8.89,38.55,14.11,42,31,38.39l3.37-5.26L29.21,8.76Z" fill-rule="evenodd" fill="url(#linear-gradient-12)"/>
          <path id="Color_Fill_1_copy-3" data-name="Color Fill 1 copy" d="M5.55,14.81l3.22,4.84,1.16-.74.24.48L9.9,21l4.49,7,.11-.05,6.14,8.19a33.5,33.5,0,0,1-5.57.47c-2.26-.13-3.78-.69-4-1.62a.72.72,0,0,0-.09-.2c.2-2.25.55-4.9,1.17-5.41a10.73,10.73,0,0,1,1.56-1,.43.43,0,0,1,0-.05c-.07-.14-.38-.21-2.18.76L8.47,22.83l.27-.68L5,15.23ZM24.28,35.49l-.83.16-7.33-8.53.26-.12.29-2.93a4.89,4.89,0,0,1-.83-1.58,1.2,1.2,0,0,1-.38,0c-.27-.05-.77-.71-1.11-1.23,0,0-1.25.49-1.51-.13,0-.26,0-3.28,0-3.28s0-5.84,3.63-6.6L18,10.93c3.59-.77,6,5,6,5s1.21,2.32,1.29,2.58c0,.67-1.28.72-1.28.72a3.44,3.44,0,0,1-.52,1.58,1.51,1.51,0,0,1-.35.14A4.61,4.61,0,0,1,23,22.72l1.29,2.58a26.12,26.12,0,0,1,5,.38c.67.19,2.14,2.56,3.49,5-.1,1.57-3.65,3.58-8.49,4.84Z" fill="#653d20" fill-rule="evenodd"/>
        </g>
      </g>
    </g>
  </g>
</svg>
