<svg id="Group_1_copy_17" data-name="Group 1 copy 17" xmlns="http://www.w3.org/2000/svg" width="100" height="100" viewBox="0 0 100 100">
  <defs>
    <style>
      .cls-1 {
        fill: #e8e8e8;
      }

      .cls-2 {
        fill: #81c96a;
      }

      .cls-2, .cls-3, .cls-4 {
        fill-rule: evenodd;
      }

      .cls-3 {
        fill: #5aa243;
      }

      .cls-4 {
        fill: #38743e;
      }
    </style>
  </defs>
  <rect class="cls-1" x="11" y="1" width="79" height="98"/>
  <path class="cls-2" d="M50.613,24.1L77.178,50.539,50.613,76.975,24.047,50.539Z"/>
  <path id="Rectangle_4_copy" data-name="Rectangle 4 copy" class="cls-2" d="M50.613,14.987L86.338,50.539,50.613,86.09,14.887,50.539Zm0,3.646L82.674,50.539l-32.061,31.9-32.061-31.9Z"/>
  <path id="Rectangle_2_copy" data-name="Rectangle 2 copy" class="cls-3" d="M13,97V3H88V97H13ZM73.381,6H27.619L16,17.563V82.437L27.619,94H73.381L85,82.437V17.563Z"/>
  <path class="cls-4" d="M83.115,43.353h0c-1.009-1.644-2.361-2.184-4.357-2.563a27.469,27.469,0,0,0-5.485-.183,0.657,0.657,0,0,0-.314.1l-3.326,2.055a0.653,0.653,0,0,0-.177.161A24.681,24.681,0,0,1,65.739,46.6a27.3,27.3,0,0,1-10.475,5.347,0.653,0.653,0,0,0-.464.834l0.179,0.554a26.166,26.166,0,0,1-5.8,1.15,29.111,29.111,0,0,1,1.626-6.256L51.4,48.4a0.653,0.653,0,0,0,.816-0.468,27.3,27.3,0,0,1,5.358-10.469,24.662,24.662,0,0,1,3.682-3.712,0.654,0.654,0,0,0,.161-0.177l2.059-3.324a0.653,0.653,0,0,0,.1-0.371L63.136,19.32c1.037-4.6-.62-6.581-2.408-8.214a2.692,2.692,0,0,0-2.521-.923A2.205,2.205,0,0,0,56.8,11.812a2,2,0,0,0,.834,1.761,4.729,4.729,0,0,1,1.527,2.9A2.776,2.776,0,0,1,57.52,19.2,11.966,11.966,0,0,0,48.026,28c-0.951,3.157-1.648,17.639-1.678,18.254a0.653,0.653,0,0,0,.428.644l0.293,0.107-3.428,7.771a180.829,180.829,0,0,0-25.307,17.4,0.653,0.653,0,0,0-.141.817l0.341,0.6a0.653,0.653,0,0,0,.857.263l19.4-9.578L28.783,82.755a0.653,0.653,0,0,0,.23.866L29.6,83.985a0.653,0.653,0,0,0,.822-0.11A180.125,180.125,0,0,0,48.368,59.866l7.778-2.854,0.147,0.383a0.653,0.653,0,0,0,.64.419c0.615-.029,15.1-0.71,18.256-1.657a12.788,12.788,0,0,0,6.226-3.916,12.4,12.4,0,0,0,2.516-4.678,0.66,0.66,0,0,0,.023-0.119A6.535,6.535,0,0,0,83.115,43.353Zm-3.4,4.9a7.758,7.758,0,0,1-7.2,4.451,3.217,3.217,0,0,1-2.948-4.772,7.265,7.265,0,0,1,2.941-3.3,7.75,7.75,0,0,1,3.086-1.122,6.027,6.027,0,0,1,1.177-.034A3.217,3.217,0,0,1,79.717,48.252ZM51.312,30.58a7.264,7.264,0,0,1,1.161-4.261h0a7.265,7.265,0,0,1,3.3-2.937,4.661,4.661,0,0,1,1.2-.324,3.108,3.108,0,0,1,2.053.405,3.522,3.522,0,0,1,1.52,2.873,7.757,7.757,0,0,1-4.459,7.2A3.217,3.217,0,0,1,51.312,30.58Z"/>
</svg>
