<svg id="Group_1_copy_17" data-name="Group 1 copy 17" xmlns="http://www.w3.org/2000/svg" width="100" height="100" viewBox="0 0 100 100">
  <defs>
    <style>
      .cls-1 {
        fill: #e8e8e8;
      }

      .cls-2 {
        fill: #81c96a;
      }

      .cls-2, .cls-3, .cls-4, .cls-5 {
        fill-rule: evenodd;
      }

      .cls-3 {
        fill: #9fd58e;
      }

      .cls-4 {
        fill: #5aa243;
      }

      .cls-5 {
        fill: #38743e;
      }
    </style>
  </defs>
  <rect class="cls-1" x="11" y="1" width="79" height="98"/>
  <path class="cls-2" d="M50.612,24.1L77.178,50.539,50.612,76.975,24.047,50.539Z"/>
  <path id="Rectangle_4_copy" data-name="Rectangle 4 copy" class="cls-3" d="M50.612,14.987L86.338,50.539,50.612,86.09,14.887,50.539Zm0,3.646L82.674,50.539l-32.061,31.9-32.061-31.9Z"/>
  <path id="Rectangle_2_copy" data-name="Rectangle 2 copy" class="cls-4" d="M13,97V3H88V97H13ZM73.381,6H27.619L16,17.563V82.437L27.619,94H73.381L85,82.437V17.563Z"/>
  <path class="cls-5" d="M20.805,51.776a30.5,30.5,0,0,1,11.4-23.832L20.745,21.723H48.489v22.7l-10.7-11.995a23.32,23.32,0,1,0,23.5-1.779c-2.532-1.7-.948-7.69,2.946-6.292a30.41,30.41,0,1,1-43.425,27.42h0Z"/>
</svg>
