<svg id="Group_1_copy_8" data-name="Group 1 copy 8" xmlns="http://www.w3.org/2000/svg" xmlns:xlink="http://www.w3.org/1999/xlink" width="23" height="29" viewBox="0 0 23 29">
  <defs>
    <style>
      .cls-1 {
        fill: #ae8cd9;
      }

      .cls-2 {
        fill: #b7a1d9;
      }

      .cls-2, .cls-4 {
        fill-rule: evenodd;
      }

      .cls-3 {
        fill: #5d4e84;
      }

      .cls-4 {
        fill: url(#linear-gradient);
      }
    </style>
    <linearGradient id="linear-gradient" x1="11.5" y1="29.19249" x2="11.5" y2="3.80751" gradientTransform="matrix(1, 0, 0, -1, 0, 31)" gradientUnits="userSpaceOnUse">
      <stop offset="0" stop-color="#c3b4d9"/>
      <stop offset="1" stop-color="#b399d9"/>
    </linearGradient>
  </defs>
  <rect class="cls-1" width="23" height="29"/>
  <path class="cls-2" d="M11.5329,6.83571,19.267,14.6595,11.5329,22.4824,3.79849,14.6595Z"/>
  <path id="Rectangle_4_copy" data-name="Rectangle 4 copy" class="cls-2" d="M11.5329,4.139l10.401,10.52049L11.5329,25.17969,1.13166,14.6595Zm0,1.07892,9.33421,9.44157L11.5329,24.10078,2.19868,14.661Z"/>
  <path class="cls-3" d="M18.25443,5.54226l-.27978.29887.05182.05a.57507.57507,0,0,1,.02163.80363l-.00009.00009-2.89858,3.1-.00844.30982-.72785.81408a1.07113,1.07113,0,0,0-.12606,1.24759l.58693,1.01736a1.28857,1.28857,0,0,1-.163,1.51244l-2.17743,2.36735a.94216.94216,0,0,0-.11412,1.11532l2.28544,3.86144a1.23965,1.23965,0,0,1-.15663,1.47485q-.02766.0296-.05823.05771l-2.61152,2.43836a.81.81,0,0,1-.61547.21662l-.21078-.01628a.825.825,0,0,1-.66962-.44979c-.61139-1.1967-2.35823-4.595-2.65257-4.97143-.35694-.46075-.568-.32462-.568-.32462l-.324.13849a.76317.76317,0,0,1-.85653-.17755C4.20784,18.53929,4.715,16.88658,4.715,16.88658l.7328-.78329L16.05458,4.76695a.55173.55173,0,0,1,.782-.024l.28241-.30036a.44239.44239,0,0,1,.63264-.01479l.48737.4711a.4601.4601,0,0,1,.01571.643ZM11.03185,10.857a.20149.20149,0,0,0-.28765.0068L8.87014,12.86653a.20963.20963,0,0,0,.00728.293.20156.20156,0,0,0,.28823-.0074l1.87406-2.00277A.20956.20956,0,0,0,11.03185,10.857Zm2.74952,1.6604a.70584.70584,0,0,0-.90632.00651l-.82509.88183a2.11149,2.11149,0,0,0,.21253,1.4864,1.02316,1.02316,0,0,0,1.11711.33971l.83848-.92592A1.339,1.339,0,0,0,13.78137,12.51735Z"/>
  <path id="Rectangle_2_copy" data-name="Rectangle 2 copy" class="cls-4" d="M.58228,28.40816V.59184H22.41772V28.40816ZM18.16156,1.47959H4.83844L1.4557,4.9013V24.0987l3.38274,3.42171H18.16156L21.5443,24.0987V4.9013Z"/>
</svg>
