<?xml version="1.0" encoding="utf-8"?>
<!-- Generator: Adobe Illustrator 25.3.1, SVG Export Plug-In . SVG Version: 6.00 Build 0)  -->
<!DOCTYPE svg PUBLIC "-//W3C//DTD SVG 1.1//EN" "http://www.w3.org/Graphics/SVG/1.1/DTD/svg11.dtd" [
	<!ENTITY ns_extend "http://ns.adobe.com/Extensibility/1.0/">
	<!ENTITY ns_ai "http://ns.adobe.com/AdobeIllustrator/10.0/">
	<!ENTITY ns_graphs "http://ns.adobe.com/Graphs/1.0/">
	<!ENTITY ns_vars "http://ns.adobe.com/Variables/1.0/">
	<!ENTITY ns_imrep "http://ns.adobe.com/ImageReplacement/1.0/">
	<!ENTITY ns_sfw "http://ns.adobe.com/SaveForWeb/1.0/">
	<!ENTITY ns_custom "http://ns.adobe.com/GenericCustomNamespace/1.0/">
	<!ENTITY ns_adobe_xpath "http://ns.adobe.com/XPath/1.0/">
]>
<svg version="1.1" id="Layer_2_copy_2" xmlns:x="&ns_extend;" xmlns:i="&ns_ai;" xmlns:graph="&ns_graphs;"
	 xmlns="http://www.w3.org/2000/svg" xmlns:xlink="http://www.w3.org/1999/xlink" x="0px" y="0px" width="70px" height="46px"
	 viewBox="0 0 70 46" style="enable-background:new 0 0 70 46;" xml:space="preserve">
<metadata>
	<x:xmpmeta  x:xmptk="Adobe XMP Core 6.0-c006 120.b669747, 2021/05/19-19:07:51        " xmlns:x="adobe:ns:meta/">
		<rdf:RDF  xmlns:rdf="http://www.w3.org/1999/02/22-rdf-syntax-ns#">
			
				<rdf:Description  rdf:about="" xmlns:dc="http://purl.org/dc/elements/1.1/" xmlns:stDim="http://ns.adobe.com/xap/1.0/sType/Dimensions#" xmlns:stEvt="http://ns.adobe.com/xap/1.0/sType/ResourceEvent#" xmlns:xmp="http://ns.adobe.com/xap/1.0/" xmlns:xmpG="http://ns.adobe.com/xap/1.0/g/" xmlns:xmpGImg="http://ns.adobe.com/xap/1.0/g/img/" xmlns:xmpMM="http://ns.adobe.com/xap/1.0/mm/" xmlns:xmpTPg="http://ns.adobe.com/xap/1.0/t/pg/">
				<xmp:CreatorTool>Adobe Illustrator 25.3 (Macintosh)</xmp:CreatorTool>
				<xmp:CreateDate>2021-07-21T13:58:52+03:00</xmp:CreateDate>
				<xmp:Thumbnails>
					<rdf:Alt>
						<rdf:li  rdf:parseType="Resource">
							<xmpGImg:width>256</xmpGImg:width>
							<xmpGImg:height>168</xmpGImg:height>
							<xmpGImg:format>JPEG</xmpGImg:format>
							<xmpGImg:image>/9j/4AAQSkZJRgABAgEASABIAAD/7QAsUGhvdG9zaG9wIDMuMAA4QklNA+0AAAAAABAASAAAAAEA
AQBIAAAAAQAB/+4ADkFkb2JlAGTAAAAAAf/bAIQABgQEBAUEBgUFBgkGBQYJCwgGBggLDAoKCwoK
DBAMDAwMDAwQDA4PEA8ODBMTFBQTExwbGxscHx8fHx8fHx8fHwEHBwcNDA0YEBAYGhURFRofHx8f
Hx8fHx8fHx8fHx8fHx8fHx8fHx8fHx8fHx8fHx8fHx8fHx8fHx8fHx8fHx8f/8AAEQgAqAEAAwER
AAIRAQMRAf/EAaIAAAAHAQEBAQEAAAAAAAAAAAQFAwIGAQAHCAkKCwEAAgIDAQEBAQEAAAAAAAAA
AQACAwQFBgcICQoLEAACAQMDAgQCBgcDBAIGAnMBAgMRBAAFIRIxQVEGE2EicYEUMpGhBxWxQiPB
UtHhMxZi8CRygvElQzRTkqKyY3PCNUQnk6OzNhdUZHTD0uIIJoMJChgZhJRFRqS0VtNVKBry4/PE
1OT0ZXWFlaW1xdXl9WZ2hpamtsbW5vY3R1dnd4eXp7fH1+f3OEhYaHiImKi4yNjo+Ck5SVlpeYmZ
qbnJ2en5KjpKWmp6ipqqusra6voRAAICAQIDBQUEBQYECAMDbQEAAhEDBCESMUEFURNhIgZxgZEy
obHwFMHR4SNCFVJicvEzJDRDghaSUyWiY7LCB3PSNeJEgxdUkwgJChgZJjZFGidkdFU38qOzwygp
0+PzhJSktMTU5PRldYWVpbXF1eX1RlZmdoaWprbG1ub2R1dnd4eXp7fH1+f3OEhYaHiImKi4yNjo
+DlJWWl5iZmpucnZ6fkqOkpaanqKmqq6ytrq+v/aAAwDAQACEQMRAD8A9U4q7FXYq7FXYq7FXYq7
FVsv90/+qf1YRzQeTCtL0+1ubYyS15ciNjTYUzbZssomg6qEAQjP0NYeDf8ABZT+Ykz8ILJNK0yN
C8jFEHVmeg+84RnmV8IJdc3vlK3rzuwx8I2Mn/EA2WROU9GwaUnooabqflzULw20IlQhS4kkIVTQ
gUG5PfJT8SItM9Lwiym36P0f/fo/5GDKvFyd32NPBF36P0f/AH6P+Rgx8XJ3fYvBF36P0f8A36P+
Rgx8XJ3fYvBF36P0f/fo/wCRgx8XJ3fYvBF36P0f/fo/5GDHxcnd9i8EXfo/R/8Afg/5GDHxcnd9
i8EVT9DWHg3/AAWR8eSfCDf6GsPBv+Cx/MSXwgh57G2trqzaKtWmQGpr3GWRyGQlfcjgAI97M81T
tHYq7FXYq7FXYq7FXYq7FXYq7FXYq7FXYq7FXYql155j0GzqLi/gRh1TmGb/AIFatlscE5cgU0Uh
v/zM8uxo6W4muWIIBROK/e5U/hmRDQz60E8BYbB51vLeD0ba3QEknk5LdfYcc2M8AkbLRj0YiNyo
y6/5qu+krxqegjAj/wCG2P45HgxRbhigEI2m6hcNzuZ+TeLsXb8cPjRHINgIHJWj0WAfbdm+VAP4
5A6g9EcSEipZ6soH2Q4Xc/svt+FcyIyuNteojxYyyTljTo3csaV3LGldyxpXcsaV3LGlTfStWK8b
edvh6Rue3scxc2HqG7Hk6FOueYlN6X6pMsctnIxoqTKzH2BBy2BqMj/RLA/UPey2O5hkFVYEeINf
1ZoY67GXamBCoGU9DmRHNCXIsabyxDsVdirsVdirsVdirsVdiqGu9T02zFbu6ig9pHVT9xOTjjlL
kLTSR3n5ieV7eoWd7lh+zCjH8W4L+OZEdFkPSk8JSK8/NhdxZaeT4PM9P+FUf8bZfHs/vLLgSi58
/eb7zaArbqf98xj/AIk/P9eXDSYo808ISu4/xBf/AO9t1JID+zLIzD6FqQMsE8ceQWwtj0Rf92Sk
+yin4muA6juC8Sr9S0yD+841/wAtv4ZHxJy5IsuOo6dDtGK+yLT+mPhTPNaKi+uCvwRbeJOTGn80
8KNtr2C4X4DRu6HqMpnjMWJCvXIISTW4gZge0iUNPbbMvAbjTMbilC4/MPy7Z2sRuLj1LsqPVt4B
zZXGzqTsoIbahOZmLTzmLDoZQIJCTS/m/YBqQ6dK6eLuqH7gG/XmSNAe9HCrWn5t6NIwW5tJ4K/t
LxkUfPdT+GRloZdCvCyvStf0nVYzJYXKTgfaUGjr/rIaMPuzFnilHmEUjuWQpDuWNK7ljSpvper0
pBOdukbn9RzFzYeoboT6FvzI9LRTXjTl8Xh8PXMevRP+qWy/VH3py2k3SGsbq3huVOcH4ZeiGYHm
71NYg68yB/sx/HG5BNQKpHr10ho6A069VOWQ1M48ixOAFFxeYYT9tWX7iP4ZlQ7RmObUdMUZFq1n
J0kX6TT9eZMO0geYazhkESs0bCoOxzJjrMZ6tZiV4IPQ5fHJGXIsadk1diry6/8AzH8zSTvb28MV
s6MVIRDI4IND9okf8Lm3josYFk22cASm51Pzbf8A+9F5NxPVefpr/wAAlB+GWAYo8gE7BCpork1l
lFT1oK/iaZI6gdAvErrpdjEKyEn3dqD8KZX40jyRxF31nSoPscKj+UVP348E5LRU5NbiH93GW92I
H9ckNOepTwoaTWLpvshU+QqfxywYIp4UNJd3Mn25WI8K0H3DLBCI6JpSySuxV2KtqzKwZSQw6EYk
KmVpq3RLj6JB/EZjTwdzExVNYTlAjj9lvwIwYDvSxeNarpd5J5p1Cxs4HnlaQTxxxqWJWZQ5NB/l
ls3mkygQIJ5Or1UammcX5b+a3QM1skRO/F5Er9ylsuOrx97jWh77yJ5ps0MjWTTRruWgIk/4VTy/
DDHUwPVbSW3uLm0uFmgkeCeM/C6kqwI+WXEAjdL1LyV59GqFdP1EhNQA/dSigWant2b9eazUabh3
HJgQzPlmJSHcsaVcjfGvzGAhUx82SldMdh1VJCPoQ5gAeif9UuR/EPezcOCKg7HOEd5S4NjaKadY
3FHUMPcA4pBIQ76bZP8AscT4qSPw6YDAMxkkEO+ip/uuUj2YV/EUyJxshmUTp2oQ7xNX/Uah/GmR
4CGfiRPNTj1a9Tb1OVOzAH+3AMhScUSjIvMMo+2gP+qSP11y+GrnHq1nThMbLVUumKopDAVNR/TM
zFr5k1zaJ4eF5X5jt/qPnO7QCiyS+oPCkw5frbOyxHiwj3fcxHJXyhgpXNwkELSN26DxPYZKEeI0
kBjskjyOXc1ZjUnM8ChTYtwq7FXAEmg64qiHsnCAqat3X+mQGRFocgg0OxyaXYq7FXYq7FU4c+tp
lep4V+lf9rMQbTY9WP2N39Q8027UAXUYGt2b/KjPNT+NB88vP1jzcLXR6pl5x119D0dLtKG4lmjS
FDvUBub19iqkfTmZgx8cqdcAnqsjwRXdu3KCVVkjYfysKg/cco60UEMb80eUdJ8ywzS2Rii1uDZn
QijtSvCWnf36j5ZkYc8sR3+lkC8fZbmzuirBobm3ehHRkdD+BBGbbYjyS9p8qa8NZ0aG6aguF/d3
KjtIvU/7Ib5qM2LglTAhN+WVUhcjfGvzGAhUf5ub/cVL/wAY5P8AiBzAr0T/AKpcgfUPezGwmD2F
vIfhDRI2/aqg5wJ5u+pL5fNenpex26H1ELcZJwfgX5eO+Yp1cRKnIGmkY2nQbMq3GpcGxtab5YbR
TfLG1pJNYtvSk9dB8Eh+L2b+3KZjq5GKVikvEmQbk+8uJUO/8zAf8CK/xzN0MbmHF1BYh+adqYdY
s7xRT1ouNfFomrX7nGdvoJXEhxockuVwyKw6MAR9ORIpCSald+vNxU/u02X3Pc5mYocI82YCEy1L
sVdiqJtIwKyvsq9P65XM9EFYbqT1S6mg7L2pkuAUtLprqxKcriRICP2nYKPvOQ3ijkkl55l0O2Yr
9aWYjp6QL1+kbfjkvECeIJVceerYVFvbO/gZCE/AcsByo40suPOmryVEXpwDtxXkf+GqPwyByFjx
Fl2i3b3elW1w55O6UdvFlPEn7xl0TYZg7Mj0tw1syH9kkfQcxswqVok89/M2K6g0iHULV2judMuk
kEikqygnh1H+UVzJvkWrURuLHdZ81atr1vaC/lEotlb0nChS3Ohq1Nq7Dtm7w4ox3j1dRSJHm/zJ
LpdtosFw0dvGPSRYQRJICTRWYfEevEAU2wfl4CRkRur1nQtAbQtGtbdf7xVD3Dj/AH82779xXYe2
avJl8SRYl59+adhFHrEGoRrx+uxn1gOhlioC30qVzP0Ujw13JBVfysvWW8vbIn4XjWYDwKNxP38x
jrI7Aok9G5Zr2LaN8a/MYlUd5vlC6RMx6LHKT9CHNedsc/6pciP1D3taNdazr+k2EcNYrIW8PJjU
A/APtH9o+2eX5TPLMgbRt62AhjAJ3Kd3Hle2TTmWCr3S/EJD+1TqtO2SlpQI7c2EdSeLfkivLeqG
e2+rTH9/AKCvUp2+7plmmy2KPMMNRjo2ORToPmS49N8sNopdyxtaWTIk0TRvurChxO6jYsYuI3t5
2ifqp6+I7HKCKcsGwyvy9FxtEJ6leR/2RqPwzbdmR3J8nC1B3SP80bP1dDhuQKtbTCp8FkBB/wCG
4502glUyO8NMObBrZjLpwUH4uBUfMbDMuYqaTzSXMxm0zKoJYgAdSemKoG413R7evq3cdR1VTzP3
LXAZBFhLLjzvpiGkMUsx8aBB953/AAyByBHGgbz8wdQlT07e3igT3Jdvv+EfhlYlvbHiSe48xa1P
UPduoPZKJ/xGmJmUcRS93d25OxZj1JNT+ORQtxV2KuxVnPkm456XJCTvDIaD/JYAj8a5djOzZDky
/SnpI6fzCv3f7eRzDZMkk88af9b0bVLYCpkgZ4x4uo5r/wAMuSxm4sZi4l45o03qWKg/ajJQ/RuP
wzdaOfFj9zp8goo9A5dQgJckBQvWvalMymD0/wAm235mgIJGCaeaVTUqseP+Sv8AejbxIGazUHB8
fJVL83rdYLbTgSCzvIV+hV5fRuMloJWSikm/Km3Fx5mkQ1FLWQ1Hb4ky7WyqHxTT0yZHhkKSCjDN
eDbClqN8a/MYSqO82lW0mVW3BjkB/wCAOa8j93P+qW6P1D3q2heZ4YPK2lwWYWSVLWJC1KIvFQO3
U7Z5lqdQIyIi9XhwGQsozQ9bnW9K3UhdLg7sx+y3b5DtmPgzni36tubCK26InVbeSxv01C3FFdqu
O3I9a+zZPNEwlxBhiPFHhKe211HcQJNGfhcV+XtmZGYkLDjSjRpWDZK2NNh8KKXB8VpIdcl9S+SN
ftBQPpJyqfNuxjZl+mRhLYAdOg+QFM33Z8ahfeXByndCebLP655c1CACreizqPFo/jH4rm108uHI
C1x5vJNIesbp/Ka/f/tZts43tskl9wnCeROwY0+WZETYZB555vSaPWJAzsY3VZI1JJABFDT6Qcpy
c2uXNJMgxdirsVdirsVdirsVdirJvI1wVvri3/Zkj5/Shp+pssxHdnBnVk/C5Q+Jp9+2TyC4syr6
qgLIxFQwKkf5/PIYSiLwc6VcaRqlxaS09N3kEVDX+7agr81Ncz+z8o4zF1WeNMqXyR5mGlWur20B
mimX1VWEkyoK/CeHXcCo41zP/Mw4jElx3sPlLW/0zodveNtcAeldJ0KzJs4I7V6/Tmoz4+CRHRXm
P5qa3HqHmEWkLcodPUxEjp6rGslPlsvzGbPQ4+GFnqqJ/K6xuEe81VQVSPjbpIP5j8bD8FwayQNR
QXqSNBqcHE0S4T8P7M1ZuB8k80rkikhn9OQUYEfT7jLwQRYYK3nORV0O5ZjRVhmJPsIzmBMfup/1
T9zfj+uPvDF/Jes6XL5fskW7h9RUKmP1FDCjEdCa55PqschkOz2mI+kMpjoQCDUHoRmOzLKtMuk1
Cxa2n3dRxbxI7N882GKfHGi4WSPDKwo6ZPJY3b2cx+Bj8J7V7H6cjikYS4SyyR4hYT3lmXbjU2Gw
2im+WNrTHo3+s68T2WQn6Ixt+rK+cm7lFn1qnC2jHtU/TvnT6aPDjA8nWTNlUZVdSrCqsCCPEHL2
Lw6KBrLVrmzbrE7xH5o1P4ZvpnigC3Hkh9TSlyW/nAP8P4ZPCfSoYR57ttrW5A/miY/8Mv8AHBlD
GbEcqYOxVf6Uvp+pwb0waF6GlfniqzFXYqm/lW3sbnXILe9jEsMvJQpJA5cSV6EeGKQ9Eu/Lulya
dPaW9tDC0sbKkioAQxHwkkCuxwsqY2n5dLGA1xdNIP2liULT6W5fqwxiDzQIpto+h6Tpk4mhiYy0
K+qzEmh67VC/hlhx9zLhTloEekkB3BrTtg4q2KbV79eVvy/lIP37ZDEd0B5b5y00Saym/DlJFLy8
Fb4JD93I4Y5PCy8Th6iO5e3wpBb2yRx0SCFAq9gEUUH3AZYSSXXME84/mJp9jHPaaEySahNtPeRg
cUoKVDD7b+HYZn6fSGW8+Xcl5faWt1fXkdtbo01zcOFRRuWZj/nU5s5SERZ5K+gfLPl+DRtDg00U
cqpNw/Z5G3c/wHtmgzZTOXElQvbWWwmWaFiIyfgPcHwOWQkJiixIpHRvb6rbfEOFxF3HY/0OVEHG
fJPNKPPBLeXb1RuTbzgD/nk2VS/u5/1T9zPH9Y97wDRqjTolIIKlgQf9Y551n+ovX4vpTS3vby2N
beeSE9axuyfqIygxB5tqeaX+YXm3TZVkhvjJx6rMqyAjwJI5fjkRjiDYRIWKL17yz5stfN+lNcRx
+jqdiFF7AAePx8qFCeoPAmnUZXmhYtqj6TXQss0289eABj+8TZvfwOSxTsebVkhRRYbLWuls0wih
eQ9EUsfoFcbWkl8rRma+dzuaBa+7n+zHDHikB3s8poPRQKCgzrHVuxV5D53tvqfnCZwKJOUmX/Zq
Ax/4IHN1pjxYm2PJKdVWqxv4Eg/TvlmE9FixTzfbmbRJGAqYXWT6K8T/AMSyzJyWXJgcME8zcYY2
kbwRSx/DKKa2ZeSNBvIruWa/saQNH+6eVVqH5DoD8Q2r2wsgGQ+bbQXHl27QLvEglX29Mhj/AMKD
ipeUYGLsVROm3X1TULa5/wB8yo5+QYE/hir2brhZuxVQntkYFh8LdSe2TjMhIKEiaRXHA7nt45aQ
OrJM3Be3ZT1K/jmMNiweTfmwby2Gn3ltI0atzhlp0rsyf8bZdOAPNp1A5FJYvMes6np8K3l9NOiq
EMbuxUFdvs1pm60giYAgbusmKKI0rRtT1W5Fvp9u88h68R8Kg92Y7KPnl88kYiyWL1fyz5a0byet
vNqMyS6xfSJbQsBWjSsF4RA703+Js1WbNLNYj9IVmlxdRW0RkkNAOg7k+AzDjEyNBKRA3eq3fgg/
4FF/rmVtjDHmj7q8t9OhFpbUMx+0fCvc++VRgZmykmko87SEeX7wg0It5yP+RZyqY/dz/qn7meP6
x73guj3Ek9kGkbkVZgPYdaD7885zj1PX4T6UdlDY7FXpX5H3Yi1jUbcmnrQIw+aPT/jfIyNNeQWH
qkqm0uhLH/dt2/WMx5DhlYQPUKTNJFZQwNQdxmQC0kILXLj0tMl33eiD6Tv+GMjsmI3VfIsHICQj
7TM30KKD8cy+zoXkHk1ak0Gb50br3Yq85/NezpPYXoG7K8Ln/VIZf+JHNp2fLYhsgxS6Pq2XLvQN
mRDaSRzQgiiS2b1kD+oKFGAII8CDlh9RpJ3UbeAO4VVCqNyAKD8MmTQSmQAAoOg6ZQwWTxLNDJC/
2JFKN8mFDirxaWNopXifZ42KsPcGhwMFmKuxV7BoN19a0aznJqzRKHP+Uo4t+Iwswj8VQt5N/utf
9l/TLccerIBq1jCqZn6DpjM3spV7SYyc69jUD2OQnGkEMP8AP+lWl5okyXJ4R20qzBqhaUJXqfZ8
nMnhsMMwuKQeQYfy7t/rUerSpKU4yw8pHceDfDF17dss0mXMbjF1mUdXp82u6bY+TJtZ0K3jFqik
28fD0kJEnpElRQ9d8tGKUsnDM7tLymy1zUNR826dqGozNPKLuBvZVEqnii9AM2ssQjjMY9yvWgbv
Vrv+VF/4FF/rmt2xhjzR95ewaZALW13mp8TdaV7n3yqEDM2eTImkiDs0nJiSxNST1JzKrZgqedm/
5169/wCYef8A5NHMCY/dz/qn7m3H9Y94eC+XjWyceEh/UM841H1PX4eSaZjtrsVZ3+WF3odjczTX
N8Ib6ZRFHDIOCca8qiQ7EkgbbfTlGYE8le0RSLdW9G+13+fY4AeINJHCWrSRkYwv9GOM1ssxe6W+
armkcEIP2iXI+QoP1nJyLGIZZ5KtvTsVJFCI1H0v8TZuOyocy4mqPIMkzcuG7FWK/mVZ+v5ZeUCp
tZUl96E+mf8AieZmhlWSu9lDm83smD2oB3pVTmxyCpMygrqRmkIIoF2Ay6AoJCvZtFw4g/Gd2ByG
S0FEZWh2KvJ/Nlr9W8w3qdnf1R/z0Af9ZwMSlGKHYq9J/L669XQzCTvbysoH+S1HH4scWQZHNKI0
Ld+w98lEWWQQMUbTSb/Njl8jQZFUu5RURL9leuRhHqgOsWpKR/MP1Y5BspQXmWw+u2F7aU3uYHRf
9ZlIB+/GHJBFinz3pk3o30ZOwJ4N/stv15dpZ8OQOsmLD3aF0X8mqMQCyuFHifrbZlkf4T+O5xmA
eXovV1/TIq09S7gWvhWRRmflNRJ8le53t7b6Xbi1tf78jc9SK/tN75poQMzZ5LyY+0hZizGrHck9
Scy6YOVviHzxKqvnRv8AcBef8w8//Js5gZB+7n/VP3NuL6x7w8H8uH/R5R4PX7xnm+p5h67ByTfM
ZudirsVez/lX5mbUdNFjK3K8sQENerw9Eb/Y9D9HjmPKJErDGQZ1MtSHHUdcZDqwixvWpTdazFb+
HCP6WNf+Nsbtap6loEXDT1alPUYsPkPh/hnS9mwrFfeXWag3JMcz2h2KoLXLP67o97agVaaF1Qf5
XE8fxyzFLhkD5pDxTTn2dfkRm8yhtK6UwySNFJsw6H54I2BYQhZbeSI1G69mGWRkCyBVYbwjaTcf
zZGWPuQQilYMKg1B75VTF5/+Y9rw1G1uQKCaIofnGf6OMDEsRxQ7FWY/lvdBbu8tSf7yNZR/sDQ/
8TxCQy64lMsm32RsozIjGg2gK+1vB/xY3+f4ZD6ijmg8tSvhbjKp9/14JDZSiL4bK30ZXjQHzr5n
svqPmLULYDisc7mMeCMeSf8ACkZI83AmKkXp9hPPeflnG4q0cUTE+C8rg1/4Y5tscwZCX879TgyF
FjehyNHrenyIaMlzCyn3EgIzLyC4keSvUGlZ2LMSzMaknqTmEAxa5Yq2rfEPniVVvOFX0O7UdWgm
A+mM5gZf7qf9U/c2YvrHvDwvQIni+sRvswKmgIPWvhnm2p6PW4Oqb5it6P0Wwjvr0RSMQiqXanUg
EbfjkZyoMoi0/vPK9jNVoCbd/b4l+45UMhZGKVLaa9oVyL60laJ4+lxCex7MPDxqKZYJgsDF7F5H
1/Uta0GO91FAkpdkR12WRUNOdKmnxVB+WVyju1nZS0yQXXmFpuqqzyfQNl/WMAYl7JZRejaQxnYq
ig/Om+dfghwwA7g6eZuRKtlrF2KuxV4hqNr9R8w3trSipNIqD/JrVfwpm+jLixgt3RBX6/vQ3iP1
ZPGdlC2G6ZPhf4l/HDKFqQve3jlXnCd+64BIjmtqKvLC1Oh7qcmQClIvPqpc6PFMBSSCUV/1XBB/
GmUyhTCQefZBg7FU28r3Rt9btzWiykxN78xQfjTJQ5pjzemWsY3lf7K9MtmejYVKaUyOW7dh7ZKI
oJCzCrsVRs/x29fYHKo7FiHiX5rWXoeZVuANruBHJ/ykqh/BRkpOLnHqZL5U1uD/AJVTe6XStwrl
hTtG81d/pU5kaIGWT+q4OUbpHpH/AB1rL/jPF/xMZupci1vTeWYbF3LFW1b4h88Sqv5r5Po9yiGj
NFKFPuUNMwM391P+qfuZ4frHvDFPye0i1tbq+dwJbvgh9VhUjdgeNenXPKO0ZEgPX6fqivzQ0tIb
u0volVElQxOqgD4lJYGg9myjTS2IcgsX0Gb0tWgJ6OSh/wBkKD8cvmNljzZvmM2pP5ouRFppir8U
zBQO9AeR/VlmMbsZcmf+W0fSvKNrC3wyRwGRh3DyVkp9BamSkXGPNF+Rbf19TUfzukf+xrVvwGT0
0OKYHmwymokvZ86507sVdirsVeT/AJjWv1bzR64FFuY45SfdfgP/ABDNzopXjrubY8mP3y1jVvA/
ry7HzUILLmS5HZDVTQ4kWqJWaGYcZRRuxyoxI5IpIvNbWUWm3NrNcRrLJHyjjLAOSDVfh67lcJmC
EE7PN8pa3YquR3R1dGKupBVgaEEdCDirJvJeoTtqFxDLKz+tHyqxJJKH3/1jlmPmzjzZllzN2Kux
VFwHlBx+YyqWxQXnH5s6VJc2NjdxAF4JHjbttIK/rTJzaNQNgWJaDcSWlnJbyfD68bRsD48+S/qy
3RTrKPNwcgsJjpP/AB1LP/jPH/xMZvJci470nlmIxdyxVUgR5JAqip6n2GCRoKr+Y2/3HS/6j/8A
ETmDnH7mf9Q/czw/WPeGL/l1qAh1G7RKMWhBr4UYf1zyzV4riL73rMMqLOZtIh1mMLfQiWEGoZ61
B6fDSh+7MIzENg5ABKTan+X3lpT/AKLNPb3C7qEcMoPieQ5f8NkoZJHnySTSBHk/UF/u9al6bB4+
W/zL5PbuXjLdv5Klk1GC51K+F3DDv6QTjWhqAd6U8cINckGVsn1e7pZFa7uQv8f4ZAsGSflZbepf
LIRtGkkp+ZpGP15sOy4XlvuDjauVRep50brXYq7FXYqwH817OttYXoH2HeFj48xyX/iBzY9ny3IZ
wYM59S19+NfpGZw2ky6oHLmTsVdirEPPkJ9a0n61RoyfZTUD/hjlOQMJhjltYX10aW1vJN/xjRm/
UMrYJlB5R12Q0eAQDxlYD8BVvwyQgSyESm8X5eukQe6vArHpHGlf+GJH6sRCyoimemeWtO0+ZZ4i
7zKCA7t4ih2AAy6MAGYjSbZJLsVcASaDqcVRsScEA79/nlRNsWN+dbT19CvVA+KMCZfbgQx/4WuS
O8WOUXF5VDKYpUkFCUYMAemxrlcTRsOAQ9Ej0bSJ2t76GP0mqkyGM0B6MKr0+7N/HISPe4ZTTlka
VfEjyuETcn8MBNITa3iSFOK7k/abxzHkbY2l/mRidMmA6mOSn/AHKs/91P8Aqn7mzD9Y97Ffy1it
4dblkuyOP1d9j0B5ofpzyvXSJht3vWYBvu9Au9deSsdv+7j6cv2j/TNfDFXNyTJAi498uYqi3Hvg
VUW498VQOrXPIxpXpVj9O2Rkoep/lRacdPurgjukKn/UXk3/ABMZveyYbSl8HA1ktwGd5t3Cdirs
VdirHvP9n9Z8rXdBV4OMy/7Bhy/4UnMnRyrIGUebye1asNPAkZt582ZQjChI8NstZNYq7FVOWCCX
j6saycTVeQBofauNKqoxQgqaU6UxIVFR3EUlBKAGHQ9sqMSOSKUJ5TI5P7I2Ue2WRjQSAp4Vdirs
VV7dP2z9GQkUFXrkEILUIFnikhf7EyMjfJhQ5ZHkmrDxSS1mjkaNqBkJVh7g0zHt1pZ/5O9a60ZE
qC1uxjNTvT7S/gaZttLmBhXc4uXYp59QuPFfv/szI8QNfEjreJIU4jdj9pvHKpG2JKrzwUhK/MUl
NNlPhHIf+FOV5x+6n/VP3N2D6x7w8/8AKN07a6hdvtI4A7dK/wAM8x1EfQ9TiPqZ8JM19OWuEmCl
XCTGlXiU+OCkIKWX1L0DqAQPoG5yB5pe9fl9aG38qWZYUeflM3+zY8f+FAzqNBDhxDz3dTqZXMsj
zMaHYq7FXYqo31st1ZXFq32Z43jNfB1K/wAclCVEFQ8Jtw0ckkbijLsw8CDQ50E9xbcVk8Lci43B
3OGMlBUckl2KuxV2KuxVwBPTFV4ikPb78HEFtcLdu5AwcSLX+hGPtH+GDiK2u9WJRSvTsMHCVpYb
kdh9+HhWkLe6jaQIHu54reMdGkcIPvYjCSI8yl4l5o8wWEfmC+W1k+sW5kLpLEVZDzAY8SD2Jpmr
y9oY4yIq3FlpyTaJ8p+fIrC4mjZZfTmUGg4/aX6fAnJ4O2sWO7iaa5aIy7mUj8ybU9Em/wCF/rmR
/oiwfzZfZ+tj/Jsu8N/8rGt/99z/APC/1w/6IMP82X2frR/J0u8N/wDKxYP99zf8L/XH/RBh/my+
z9a/ydLvChe+era6tZYTFKS6Mqk8aAsCPHK83b2KUJREZbgjozhoJRkDYSXyrLx1223oDzB/4Bs4
7OPQXcYvqegiTNbTmLhJjSrhJgpWpLpIxVj8h3yJICqFhznvBxFXY/CPEsaAfjlcBZUvp7T7RbOw
trRfs28SRCngihf4Z2MI8MQO50cjZtXySHYq7FXYq7FXivme0+peab+GlFMzOo9pf3g/4lm9wS4s
YLaOSCrklUpIVbcbNkhJNqPpSVpTJ8QTa4W7nqQMHEtrhbqOp/hg4kW3SBfD9eO6uM6D7I/hjwrS
0TSuwVFqx6AbnDwhaTO08r+aL3eGwm4nozj0h978cqlnxx5kLYTqz/K7XJaNdTw24PUVMjD6AAv/
AA2US18ByBKOMJ5Z/lXpEdDd3U1wR2QLGp+j4z+OY8u0JHkAGPGnlp5M8sWo/d6fE58ZQZf+ThbM
eWpyS6seIpDr/wCSf5Xa7I0t7oECTsKeral7Uj3pA0ak/MHMci+a8RYBqv8AziL5MmJbTNXvrMn9
icRXKD5ACFv+GyBxshNILv8A5xP1C0Jex1GC7A6VDQyH5BvUX/hsxcmCZ5U3wyQ62kF/+RfmHT6m
40+9cL1aHhMtPGsQemYOTFlHT9LkROM9UjbyfaW7lJI5A67FXZlYH3Hw5iSnlDeMUV6aHp0XW1r/
AKxc/wAcrOoyjmnwoomK00letlEfmoP664/mpdU+HHuRsH6NjYNHBHEw6FUUEfcMfHvmU8ACMS4R
ujA4QQUqgkw0hQlvwNo9z/N2ymWTuTSGMpY1Y1JyksmUflzY/XvNWnQ0qvrrIw/yYQZW/BczNDj4
sg97TnlUC+kM6l0zsVdirsVdirsVeXfmjaejrlvdqKC4hFfd42IP/Clc2+glcCO5shyYsXQdSMyq
StM8Y6VOHhKaWG5PYffh4VpF2mka7fb2tnNKp/bWNuP/AAVKfjkJZIR5kLsnVp+W3ma4oZlith/x
bJyNPknPKJa7GOW6OMJ5Z/lPbihvL938VhQJ/wAMxf8AVlEu0D0DHjTyz8geVrah+qmdh+1M7N/w
tQv4Zjy1mQ9UcRTu1sbK0Xja28cC+ESKg/4UDMeUyeZtjavkVdirsVdirsVdirsVdiqHvNN06+Th
e2sN0nTjNGsg+5gcjKIPMJEiOTGtQ/KryRe1P1D6tIf27d2jp8lqU/4XKJaTGejdHUzHVi+pfkNY
PVtP1OSP+VLmNZP+GQx0/wCBzGn2bE8i3R1p6hiupfkl5utqm3SC9Xr+4l4t90oT8Mw59mSHJvjq
4FiupeT/ADHptTeafcwKP92PE3D/AIMAr+OYk9FOPRvjlieRSspcAUrVfAHKDjkGdqZLL1BGVmJC
Ww+BXqX5GWHra5cXjCq2tuaHweVgB/wqtm57Lx735OFrJemnt2bx1rsVdirsVdirsVYx578tXmt2
totmE9eCQ1LniAjr8W+/dVzL0mcYyb5MommP2f5T3Boby/RPFYUL/wDDMU/VmTLtAdAy409s/wAt
fLUFDKst0f8Ai1yB90fDMeWuyHlsx4ynlnoWjWVDa2UMTD9tUXl/wVK5jyyzlzJRaOytDsVdirsV
dirsVdirsVdirsVdirsVdirsVdirsVdirsVSzUfLHl3Uqm+023ndusjRrz/4MDl+OVyxRlzAZxyS
HIsY1H8mvJl1U26T2LHp6MpZa/KUSfrzHlocZ5bN0dXMebFtS/IS53On6nFL4JcRtH97oZP+I5iz
7MvkW+Ot7wy38rvJuoeWrC+TUFQXNxMoUxtzUxRp8Jrt+07dcytHgOMG2jU5RMimbZmOM7FXYq//
2Q==
								</xmpGImg:image>
						</rdf:li>
					</rdf:Alt>
				</xmp:Thumbnails>
				<xmp:MetadataDate>2021-07-21T13:58:52+03:00</xmp:MetadataDate>
				<xmp:ModifyDate>2021-07-21T13:58:52+03:00</xmp:ModifyDate>
				<xmpTPg:MaxPageSize  rdf:parseType="Resource">
					<stDim:w>70.000000</stDim:w>
					<stDim:h>46.000000</stDim:h>
					<stDim:unit>Pixels</stDim:unit>
				</xmpTPg:MaxPageSize>
				<xmpTPg:NPages>1</xmpTPg:NPages>
				<xmpTPg:HasVisibleTransparency>True</xmpTPg:HasVisibleTransparency>
				<xmpTPg:HasVisibleOverprint>False</xmpTPg:HasVisibleOverprint>
				<xmpTPg:PlateNames>
					<rdf:Seq>
						<rdf:li>Cyan</rdf:li>
						<rdf:li>Magenta</rdf:li>
						<rdf:li>Yellow</rdf:li>
						<rdf:li>Black</rdf:li>
					</rdf:Seq>
				</xmpTPg:PlateNames>
				<xmpTPg:SwatchGroups>
					<rdf:Seq>
						<rdf:li  rdf:parseType="Resource">
							<xmpG:groupName>Default Swatch Group</xmpG:groupName>
							<xmpG:groupType>0</xmpG:groupType>
						</rdf:li>
					</rdf:Seq>
				</xmpTPg:SwatchGroups>
				<dc:format>image/svg+xml</dc:format>
				<xmpMM:DerivedFrom  rdf:parseType="Resource"></xmpMM:DerivedFrom>
				<xmpMM:DocumentID>xmp.did:a5174cf7-1ac0-43fe-86f9-3c26dbe3007c</xmpMM:DocumentID>
				<xmpMM:InstanceID>xmp.iid:a5174cf7-1ac0-43fe-86f9-3c26dbe3007c</xmpMM:InstanceID>
				<xmpMM:OriginalDocumentID>xmp.did:a5174cf7-1ac0-43fe-86f9-3c26dbe3007c</xmpMM:OriginalDocumentID>
				<xmpMM:History>
					<rdf:Seq>
						<rdf:li  rdf:parseType="Resource">
							<stEvt:action>saved</stEvt:action>
							<stEvt:instanceID>xmp.iid:a5174cf7-1ac0-43fe-86f9-3c26dbe3007c</stEvt:instanceID>
							<stEvt:when>2021-07-21T13:58:52+03:00</stEvt:when>
							<stEvt:softwareAgent>Adobe Illustrator 25.3 (Macintosh)</stEvt:softwareAgent>
							<stEvt:changed>/</stEvt:changed>
						</rdf:li>
					</rdf:Seq>
				</xmpMM:History>
			</rdf:Description>
		</rdf:RDF>
	</x:xmpmeta>
	<sfw  xmlns="&ns_sfw;">
		<slices></slices>
		<sliceSourceBounds  bottomLeftOrigin="true" height="44.7" width="69.1" x="0.5" y="0.8"></sliceSourceBounds>
	</sfw>
</metadata>
<g id="Layer_1_3_">
	<g>
		
			<rect x="32" y="8.5" transform="matrix(0.2079 -0.9781 0.9781 0.2079 17.3905 68.4784)" style="fill:#AE8CD9;" width="38" height="30"/>
		<path style="fill-rule:evenodd;clip-rule:evenodd;fill:#B7A1D9;" d="M53,13.8l7.5,11.7L48.9,33l-7.5-11.6L53,13.8z"/>
		<path id="Rectangle_4_copy_3_" style="fill-rule:evenodd;clip-rule:evenodd;fill:#B7A1D9;" d="M53.8,10l10.6,16.3L48.1,36.9
			L37.6,20.6L53.8,10z M53.6,11.3L63,26l-14.6,9.7l-9.5-14.8L53.6,11.3z"/>
		<polygon style="fill:#5D4E84;" points="43.4,11.8 42.7,15.6 42.3,16.9 42.1,18.2 45.9,19 46.2,17.8 48.7,18.3 45.9,31.1 
			44.8,30.8 44.2,33.4 45.5,33.6 48,34.2 49.3,34.5 51.9,35.1 53.1,35.3 53.7,32.7 52.4,32.4 55.1,19.6 57.6,20.2 57.4,21.4 
			61.2,22.2 61.5,21 61.7,19.8 62.6,15.9 		"/>
		
			<linearGradient id="Rectangle_2_copy_1_" gradientUnits="userSpaceOnUse" x1="-158.7796" y1="2140.0874" x2="-158.7796" y2="2107.8005" gradientTransform="matrix(0.9781 0.2079 -0.2079 0.9781 647.8528 -2021.0171)">
			<stop  offset="0" style="stop-color:#B399D9"/>
			<stop  offset="1" style="stop-color:#C3B4D9"/>
		</linearGradient>
		<path id="Rectangle_2_copy_9_" style="fill-rule:evenodd;clip-rule:evenodd;fill:url(#Rectangle_2_copy_1_);" d="M33.8,37.9
			l7.4-34.6L68.1,9l-7.3,34.6L33.8,37.9z M62.6,9.2L46.1,5.7l-4.7,3.1l-5.2,24.4l3,4.6l16.6,3.6l4.7-3.1l5.2-24.4L62.6,9.2z"/>
	</g>
</g>
<polygon style="opacity:0.5;fill-rule:evenodd;clip-rule:evenodd;enable-background:new    ;" points="49.9,4.2 51.8,39.5 
	39.1,40.4 35,39.5 "/>
<g>
	
		<image style="overflow:visible;enable-background:new    ;" width="23" height="29" id="Background_4_" xlink:href="52AAEE9D99C77AA0.jpg"  transform="matrix(1.3043 0 5.240771e-05 1.3103 19.898 0.4852)">
	</image>
	
		<linearGradient id="SVGID_1_" gradientUnits="userSpaceOnUse" x1="201.4136" y1="-736.931" x2="201.4136" y2="-698.8995" gradientTransform="matrix(1 -1.633265e-05 -1.633265e-05 -1 -166.5158 -698.3765)">
		<stop  offset="0" style="stop-color:#A76F37"/>
		<stop  offset="0.234" style="stop-color:#C4913F"/>
		<stop  offset="0.478" style="stop-color:#FBD280"/>
		<stop  offset="1" style="stop-color:#FFFFC2"/>
	</linearGradient>
	<polygon style="fill:url(#SVGID_1_);" points="19.9,0.5 49.9,0.5 49.9,38.5 19.9,38.5 	"/>
	
		<linearGradient id="SVGID_2_" gradientUnits="userSpaceOnUse" x1="215.0054" y1="-718.1349" x2="187.875" y2="-718.1349" gradientTransform="matrix(1 -1.633265e-05 -1.633265e-05 -1 -166.5158 -698.3765)">
		<stop  offset="0" style="stop-color:#FCD077"/>
		<stop  offset="1" style="stop-color:#E19100"/>
	</linearGradient>
	<path style="fill-rule:evenodd;clip-rule:evenodd;fill:url(#SVGID_2_);" d="M34.9,5.9l13.6,13.8L35,33.5L21.4,19.7L34.9,5.9z
		 M34.9,7.4l12.1,12.3L34.9,32.1L22.7,19.7L34.9,7.4z M35,9.4l10,10.2L34.9,29.9l-10-10.2L35,9.4z"/>
	<path id="Shape_28_copy_2_" style="fill-rule:evenodd;clip-rule:evenodd;fill:#CC862B;" d="M27.5,23.3l1,2.6l7.1-0.3l1.2-2.2
		L27.5,23.3z M39,21.5c-0.1,0.2,0.5,1.2,0.5,1.4c0.6,1,1.3,2,2.1,2.9l3.9-0.3c0.2-0.6,0.4-1.2,0.4-1.7c0-0.4-0.2-2.1-0.2-2.1l-4.6-1
		l-0.7,0.5L39,21.5z M31.5,15l3.2,0.7l-0.3,2.5l-3.3-2L31.5,15z"/>
	<path style="fill-rule:evenodd;clip-rule:evenodd;fill:#8C4F00;" d="M46.5,21.8l-0.3,0.1l0,0.1l0,0.1c0.1,0.3,0.1,0.6,0.1,0.8
		c0.1,0.3,0,0.6,0,0.9c0,0.1-0.1,0.2,0,0.3l0,0.1c0,0,0,0.1-0.1,0.1c0,0.1-0.1,0.2,0,0.3c-0.1,0.1-0.1,0.2-0.1,0.4
		c-0.1,0.3-0.3,0.6-0.4,0.8l-1.9,0.3l-1.6,0.2l-2.8,0c-0.1,0-0.2-0.1-0.3-0.1l0-0.2l0-0.1l0-0.2l0-0.2l0-0.2l-0.2,0L38.5,25
		l-0.2-0.3c0-0.2-0.2-0.4-0.2-0.6l-1.2,0.1L35.4,26l-8.5,0.5l-0.1,0l-0.1,0c-0.1,0-0.2-0.1-0.2-0.2l0,0L26.2,26l-0.1-0.2l0,0
		l-0.1-0.2l-0.1-0.2l-0.2-0.3c-0.4-0.4-0.8-0.9-1.1-1.3c0-0.1-0.1-0.2-0.1-0.2c0-0.1-0.1-0.1-0.1-0.2c0-0.1-0.1-0.2-0.1-0.2
		c0-0.1-0.2-0.3-0.2-0.4c0-0.2-0.1-0.4,0-0.5l0,0l-0.6-0.1c0-0.1,0-0.3,0.1-0.4c0-0.1,0.1-0.1,0.1-0.2c0.1-0.1,0.1-0.3,0.2-0.5
		c0.1-0.1,0.1-0.1,0.2-0.2c0.2-0.2,0.2-0.4,0.4-0.5c0.1-0.1,0.3-0.2,0.4-0.3l2.4,0l3.7-2.3l1.2-0.1l0-0.3l-0.7-0.7l0,0l0-0.1
		c-0.1-0.3,0-0.5,0-0.8l2.4,0.9l0.6-0.7l-2.8-0.9l-5.4-2c-0.3-0.1-0.5-0.5-0.4-0.8c0.1-0.3,0.4-0.5,0.7-0.4l0,0l5.4,2
		c0.1-0.1,0.3-0.3,0.3-0.3l0,0l0,0c0.2,0,4.7-0.3,5-0.2c0.1,0,0.2,0.1,0.3,0c0.2,0,0.5-0.1,0.7,0c0.2,0,0.3,0,0.5,0
		c0.6,0,1.1,0.2,1.5,0.6l0.3,0l0.1,0l0,0.1c0.1,0.5,0.9,2.9,0.9,3.1c-0.1,0.2-0.1,0.4-0.4,0.6l-0.1,0l0,0.3l1.7,0.4l0.9,1l0.9,1
		l1.5,0.5L46.5,21.8L46.5,21.8z M28.2,24l0.8,1.4l6.2-0.3l1-1.1L28.2,24z M45.3,22.2l-4.1-0.8l-0.3,0.7l-0.3,0.1
		c-0.1,0.2,0,0.4-0.1,0.7c0.1,0.3,1.2,2.8,1.2,2.8l3.1-0.4c0.2-0.5,0.4-0.9,0.4-1.3C45.4,23.5,45.3,22.1,45.3,22.2L45.3,22.2z"/>
	
		<linearGradient id="Rectangle_2_copy_2_" gradientUnits="userSpaceOnUse" x1="201.3998" y1="-736.1071" x2="201.3998" y2="-699.6586" gradientTransform="matrix(1 -1.633265e-05 -1.633265e-05 -1 -166.5158 -698.3765)">
		<stop  offset="0" style="stop-color:#9F6700"/>
		<stop  offset="1" style="stop-color:#FCD88E"/>
	</linearGradient>
	<path id="Rectangle_2_copy_7_" style="fill-rule:evenodd;clip-rule:evenodd;fill:url(#Rectangle_2_copy_2_);" d="M20.6,37.7l0-36.5
		l28.5,0l0,36.5L20.6,37.7z M43.6,2.4l-17.4,0L21.9,7L21.8,32l4.4,4.5l17.4,0l4.4-4.5l0-25.1L43.6,2.4z"/>
</g>
<polygon style="opacity:0.5;fill-rule:evenodd;clip-rule:evenodd;enable-background:new    ;" points="29.7,2.1 41,39.6 38.2,40.2 
	35,39.5 "/>
<g>
	
		<image style="overflow:visible;enable-background:new    ;" width="25" height="31" id="Background_5_" xlink:href="52AAEE9D99C77AA0.png"  transform="matrix(1.1738 -0.2495 0.2506 1.1791 0.5381 8.3111)">
	</image>
	
		<linearGradient id="SVGID_3_" gradientUnits="userSpaceOnUse" x1="18.2645" y1="-946.4644" x2="18.2645" y2="-908.4644" gradientTransform="matrix(0.9781 -0.2079 -0.2079 -0.9781 -191.5946 -879.9006)">
		<stop  offset="0" style="stop-color:#5A81EA"/>
		<stop  offset="1" style="stop-color:#90CFF9"/>
	</linearGradient>
	<polygon style="fill:url(#SVGID_3_);" points="0.5,8 29.8,1.8 37.7,39 8.4,45.2 	"/>
	
		<linearGradient id="SVGID_4_" gradientUnits="userSpaceOnUse" x1="31.8645" y1="-927.6644" x2="4.734" y2="-927.6644" gradientTransform="matrix(0.9781 -0.2079 -0.2079 -0.9781 -191.5946 -879.9006)">
		<stop  offset="0" style="stop-color:#AED6FC"/>
		<stop  offset="1" style="stop-color:#86C0F6"/>
	</linearGradient>
	<path style="opacity:0.9;fill-rule:evenodd;clip-rule:evenodd;fill:url(#SVGID_4_);enable-background:new    ;" d="M16.3,10.2
		l16.2,10.7L22,37.2L5.9,26.5L16.3,10.2z M16.6,11.6l14.5,9.6l-9.4,14.6L7.3,26.2L16.6,11.6z M17,13.6l12,8l-7.8,12.1L9.4,25.8
		L17,13.6z"/>
	
		<linearGradient id="Rectangle_2_copy_3_" gradientUnits="userSpaceOnUse" x1="18.3145" y1="-945.6644" x2="18.3145" y2="-909.2158" gradientTransform="matrix(0.9781 -0.2079 -0.2079 -0.9781 -191.5946 -879.9006)">
		<stop  offset="0" style="stop-color:#639EEF"/>
		<stop  offset="1" style="stop-color:#CFF1FB"/>
	</linearGradient>
	<path id="Rectangle_2_copy_8_" style="fill-rule:evenodd;clip-rule:evenodd;fill:url(#Rectangle_2_copy_3_);" d="M9,44.3L1.4,8.6
		l27.9-5.9l7.6,35.6L9,44.3L9,44.3z M24.1,5L7,8.6l-3.4,5.3l5.2,24.6l5.2,3.5l17-3.6l3.4-5.3L29.3,8.5L24.1,5z"/>
	<path style="fill-rule:evenodd;clip-rule:evenodd;fill:#234AC2;" d="M16.6,12.7c3.1-0.7,6.3,1.3,7,4.5l0,0.1
		c0.7,3.2-1.2,6.3-4.4,7.1c-3.1,0.7-6.3-1.3-7.1-4.4c0-0.1,0-0.1,0-0.2C11.3,16.6,13.3,13.5,16.6,12.7
		C16.5,12.7,16.6,12.7,16.6,12.7 M16.1,10.3c-4.5,1-7.3,5.3-6.3,9.8l0,0.1c0.9,4.5,5.2,7.4,9.7,6.5c4.4-0.8,7.4-5.2,6.4-9.7
		c0-0.1,0-0.1,0-0.2C25,12.4,20.7,9.5,16.1,10.3L16.1,10.3L16.1,10.3z M12.9,26.8c0.8,0.5,1.7,0.9,2.6,1.2l2,9.5l-2.1,1.3L12.9,26.8
		z M22.7,26.9l1.9,8.7l-3-0.4l-2.6,1.6L17,28.1C18.9,28.3,20.9,27.9,22.7,26.9z M25.7,24l2.6,12l-2.4-0.3l-2-9.5
		C24.5,25.6,25.1,24.9,25.7,24z M16.8,13.9l1.4,2.4l2.2-1.7l-0.7,2.7l2.8,0.4l-2.3,1.5l1.7,2.2l-2.7-0.7l-0.3,2.7l-1.4-2.4l-2.2,1.7
		l0.7-2.7l-2.8-0.4l2.3-1.5l-1.7-2.2l2.7,0.7L16.8,13.9z"/>
</g>
</svg>
