<svg id="Layer_1" data-name="Layer 1" xmlns="http://www.w3.org/2000/svg" width="100" height="100" viewBox="0 0 100 100">
  <defs>
    <style>
      .cls-1 {
        fill: #eee;
      }

      .cls-2 {
        fill: #a11724;
      }
    </style>
  </defs>
  <circle class="cls-1" cx="50" cy="50" r="50"/>
  <circle class="cls-2" cx="50" cy="50" r="44.56522"/>
  <g>
    <path class="cls-1" d="M23.63287,80.52807a44.14807,44.14807,0,0,0,16.241,8.172,39.96808,39.96808,0,0,0,10.72806,1.52527A33.411,33.411,0,0,0,76.73441,77.86893c4.67672-5.7816,6.88648-12.62808,5.76685-17.8677a6.99251,6.99251,0,0,0-.47873-1.49108l-.02825-.06031-.01908-.064a13.22849,13.22849,0,0,0-12.75129-9.17116c-7.31017,0-13.25746,5.663-13.25746,12.62368A12.57233,12.57233,0,0,0,62.605,72.774l1.15162.63356L62.751,74.254c-2.29077,1.928-10.62621,8.21883-21.70818,8.21883-7.205,0-19.07091-2.11407-27.25826-14.36146q.4723.96376,1.03385,1.96042A37.02464,37.02464,0,0,0,23.63287,80.52807Z"/>
    <path class="cls-1" d="M89.35428,56.601a44.15056,44.15056,0,0,0-1.52586-18.1169A35.99446,35.99446,0,0,0,74.147,18.50625,33.16292,33.16292,0,0,0,55.26149,12.4599c-5.881,0-11.05108,1.71063-14.18484,4.69337A7.00634,7.00634,0,0,0,40.05608,18.341l-.03676.05577-.04447.0496a13.22873,13.22873,0,0,0-1.15052,15.66484,13.45665,13.45665,0,0,0,11.33256,6.48868,12.155,12.155,0,0,0,6.35991-1.78841,12.5725,12.5725,0,0,0,5.85072-11.37666l-.06215-1.31292,1.24731.41475c2.84127.94469,12.56219,4.761,18.35626,14.20707,3.76725,6.1416,8.16938,17.36167,2.01039,30.74454q.57456-.90654,1.13049-1.90641A37.02629,37.02629,0,0,0,89.35428,56.601Z"/>
    <path class="cls-1" d="M49.88862,9.77464A37.03383,37.03383,0,0,0,36.539,12.25986,44.23341,44.23341,0,0,0,21.5254,22.18522,36.8096,36.8096,0,0,0,11.44132,38.88105a33.40538,33.40538,0,0,0-.2572,16.36077c2.09558,8.87734,7.69212,16.1939,13.92647,18.20612a6.99751,6.99751,0,0,0,1.531.32948l.06641.00572.06479.01541a12.24629,12.24629,0,0,0,2.82351.32874,13.64373,13.64373,0,0,0,12.96035-16.7871,12.16276,12.16276,0,0,0-11.84894-9.417,12.99593,12.99593,0,0,0-6.73121,1.90847l-1.12388.68155-.23129-1.29383c-.52694-2.94753-1.81608-13.31067,3.71632-22.91242A31.81662,31.81662,0,0,1,52.60433,9.87385C51.73581,9.81045,50.8292,9.77464,49.88862,9.77464Z"/>
  </g>
</svg>
