<?xml version="1.0" encoding="UTF-8" standalone="no"?>
<svg
   xmlns:dc="http://purl.org/dc/elements/1.1/"
   xmlns:cc="http://creativecommons.org/ns#"
   xmlns:rdf="http://www.w3.org/1999/02/22-rdf-syntax-ns#"
   xmlns:svg="http://www.w3.org/2000/svg"
   xmlns="http://www.w3.org/2000/svg"
   xmlns:sodipodi="http://sodipodi.sourceforge.net/DTD/sodipodi-0.dtd"
   xmlns:inkscape="http://www.inkscape.org/namespaces/inkscape"
   version="1.0"
   width="64.000000pt"
   height="64.000000pt"
   viewBox="0 0 64.000000 64.000000"
   preserveAspectRatio="xMidYMid meet"
   id="svg40"
   sodipodi:docname="lb_deaths.svg"
   inkscape:version="1.0.2 (e86c870879, 2021-01-15, custom)">
  <metadata
     id="metadata46">
    <rdf:RDF>
      <cc:Work
         rdf:about="">
        <dc:format>image/svg+xml</dc:format>
        <dc:type
           rdf:resource="http://purl.org/dc/dcmitype/StillImage" />
      </cc:Work>
    </rdf:RDF>
  </metadata>
  <defs
     id="defs44" />
  <sodipodi:namedview
     pagecolor="#ffffff"
     bordercolor="#666666"
     borderopacity="1"
     objecttolerance="10"
     gridtolerance="10"
     guidetolerance="10"
     inkscape:pageopacity="0"
     inkscape:pageshadow="2"
     inkscape:window-width="1920"
     inkscape:window-height="1137"
     id="namedview42"
     showgrid="false"
     inkscape:zoom="8.6132813"
     inkscape:cx="42.666667"
     inkscape:cy="42.666667"
     inkscape:window-x="1912"
     inkscape:window-y="-8"
     inkscape:window-maximized="1"
     inkscape:current-layer="svg40" />
  <g
     transform="translate(0.000000,64.000000) scale(0.100000,-0.100000)"
     fill="#000000"
     stroke="none"
     id="g38">
    <path
       d="M133 513 c-17 -21 -33 -43 -36 -50 -5 -7 17 -30 53 -59 33 -26 60 -50 60 -53 0 -3 -45 -40 -100 -81 -54 -41 -99 -79 -100 -84 0 -4 14 -27 32 -50 17 -22 33 -43 35 -45 1 -2 57 38 123 88 l121 93 82 -63 c45 -35 99 -76 119 -93 21 -16 39 -27 41 -25 2 2 18 23 35 45 18 23 32 46 32 50 0 5 -45 43 -100 84 -55 41 -100 78 -100 81 0 3 27 27 60 53 67 51 67 51 13 114 l-28 33 -72 -55 c-39 -31 -77 -56 -83 -56 -7 0 -40 22 -74 48 -85 67 -81 67 -113 25z m113 -43 l76 -59 77 59 76 60 27 -32 c15 -18 28 -36 28 -40 0 -4 -27 -28 -60 -54 -33 -26 -60 -50 -60 -54 0 -4 45 -41 100 -84 55 -42 100 -81 100 -86 0 -5 -12 -23 -28 -40 l-27 -30 -117 90 -116 90 -118 -92 -117 -91 -28 34 c-16 19 -29 36 -29 39 0 3 47 41 105 85 57 44 104 82 104 85 0 3 -29 27 -64 54 l-65 48 28 39 c15 21 28 39 30 39 1 0 37 -27 78 -60z"
       id="path36" />
  </g>
  <path
     style="fill:#ffffff;stroke-width:0.1161"
     d="M 8.9841252,67.782921 C 6.3851469,64.628465 4.5333086,62.259488 4.2442903,61.719452 4.1598092,61.561598 4.120181,61.355587 4.1562278,61.261651 4.3044465,60.875399 8.9549769,57.057574 14.222222,52.998033 24.546721,45.040793 29.575513,41.02946 31.375964,39.31495 c 0.271383,-0.25843 0.493424,-0.554912 0.493424,-0.658851 0,-0.580021 -5.152302,-4.786484 -12.422676,-10.142169 -2.330703,-1.716901 -4.330052,-3.20795 -4.442999,-3.313441 -0.194381,-0.181551 -0.06048,-0.393636 2.505188,-3.96788 2.974626,-4.143969 4.339314,-5.972905 4.690682,-6.286389 0.222734,-0.198719 0.272309,-0.173203 1.669858,0.859449 1.667389,1.232038 4.030032,3.061881 7.477498,5.791246 4.771197,3.777365 11.353493,8.851713 11.538311,8.894983 0.212803,0.04982 7.315554,-5.366359 15.186769,-11.580621 2.821786,-2.227778 5.176916,-4.050506 5.233622,-4.050506 0.09611,0 2.674514,3.010625 4.273357,4.989716 1.113063,1.377778 2.305265,3.021459 2.700502,3.723159 l 0.362703,0.643941 -0.285622,0.420331 c -0.536873,0.790078 -3.431252,3.313916 -8.185152,7.137281 -4.719887,3.796009 -7.546486,6.36295 -7.546486,6.853248 0,0.579164 5.52617,5.224202 14.676598,12.33646 6.979089,5.424565 11.91025,9.748786 11.91025,10.444306 0,0.317976 -0.238127,0.780104 -0.935514,1.815527 -0.815396,1.210634 -1.479442,2.008718 -4.009093,4.818323 l -2.283712,2.536452 -0.478358,-0.38485 c -0.263096,-0.211668 -3.900397,-3.0137 -8.082892,-6.226736 -6.033938,-4.635337 -15.17583,-11.704498 -21.735658,-16.807558 -0.382477,-0.297539 -0.735745,-0.488489 -0.833987,-0.450791 -0.09374,0.03597 -2.43351,1.828998 -5.199489,3.984501 -16.092539,12.540783 -25.997032,20.24288 -26.031279,20.24288 -0.02148,0 -1.208433,-1.419318 -2.6376838,-3.15404 z"
     id="path48"
     transform="scale(0.74999998)" />
</svg>
