<svg width="80" height="80" viewBox="0 0 80 80" fill="none" xmlns="http://www.w3.org/2000/svg">
<path fill-rule="evenodd" clip-rule="evenodd" d="M28 0H52V14.5714L64 14.5714L40 34L16 14.5714L28 14.5714V0ZM0 34V46V47V52C0 55.3137 2.68629 58 6 58H74C77.3137 58 80 55.3137 80 52V47V46V34H78V40H2V34H0ZM2 51V47V45V42H78V45V47V51C78 53.7614 75.7614 56 73 56H7C4.23858 56 2 53.7614 2 51ZM6 62C2.68629 62 0 64.6863 0 68V74C0 77.3137 2.68629 80 6 80H74C77.3137 80 80 77.3137 80 74V68C80 64.6863 77.3137 62 74 62H6ZM9 74C10.6569 74 12 72.6569 12 71C12 69.3431 10.6569 68 9 68C7.34315 68 6 69.3431 6 71C6 72.6569 7.34315 74 9 74ZM22 71C22 72.6569 20.6569 74 19 74C17.3431 74 16 72.6569 16 71C16 69.3431 17.3431 68 19 68C20.6569 68 22 69.3431 22 71ZM9 52C10.6569 52 12 50.6569 12 49C12 47.3431 10.6569 46 9 46C7.34315 46 6 47.3431 6 49C6 50.6569 7.34315 52 9 52ZM22 49C22 50.6569 20.6569 52 19 52C17.3431 52 16 50.6569 16 49C16 47.3431 17.3431 46 19 46C20.6569 46 22 47.3431 22 49Z" fill="white"/>
</svg>
