<svg width="80" height="80" viewBox="0 0 80 80" fill="none" xmlns="http://www.w3.org/2000/svg">
<path fill-rule="evenodd" clip-rule="evenodd" d="M0 6C0 2.68629 2.68629 0 6 0H74C77.3137 0 80 2.68629 80 6V14C80 17.3137 77.3137 20 74 20H6C2.68629 20 0 17.3137 0 14V6ZM12 10C12 11.6569 10.6569 13 9 13C7.34315 13 6 11.6569 6 10C6 8.34315 7.34315 7 9 7C10.6569 7 12 8.34315 12 10ZM19 13C20.6569 13 22 11.6569 22 10C22 8.34315 20.6569 7 19 7C17.3431 7 16 8.34315 16 10C16 11.6569 17.3431 13 19 13ZM80 64C80 72.8366 72.8366 80 64 80C55.1634 80 48 72.8366 48 64C48 55.1634 55.1634 48 64 48C72.8366 48 80 55.1634 80 64ZM61.1555 64L55.4667 69.6889L58.3111 72.5333L64 66.8445L69.6889 72.5334L72.5333 69.6889L66.8444 64L72.5333 58.3111L69.6889 55.4667L64 61.1556L58.3111 55.4667L55.4667 58.3112L61.1555 64ZM0 62H7V59C7 57.8954 7.89543 57 9 57H12H16H18V59V60H23V62H18V66H23V68H18V69V71H16H12H9C7.89543 71 7 70.1046 7 69V66H0V62ZM39 62H46V66H39V69C39 70.1046 38.1046 71 37 71H34H30H29.9989H28V69V68H32V66H28V62H32V60H28V59V57H30H34H37C38.1046 57 39 57.8954 39 59V62ZM6 24C2.68629 24 0 26.6863 0 30V38C0 41.3137 2.68629 44 6 44H74C77.3137 44 80 41.3137 80 38V30C80 26.6863 77.3137 24 74 24H6ZM9 37C10.6569 37 12 35.6569 12 34C12 32.3431 10.6569 31 9 31C7.34315 31 6 32.3431 6 34C6 35.6569 7.34315 37 9 37ZM22 34C22 35.6569 20.6569 37 19 37C17.3431 37 16 35.6569 16 34C16 32.3431 17.3431 31 19 31C20.6569 31 22 32.3431 22 34Z" fill="white"/>
</svg>
