<svg id="latency_variation" xmlns="http://www.w3.org/2000/svg" width="100" height="100" viewBox="0 0 100 100">
  <metadata><?xpacket begin="﻿" id="W5M0MpCehiHzreSzNTczkc9d"?>
<x:xmpmeta xmlns:x="adobe:ns:meta/" x:xmptk="Adobe XMP Core 5.6-c142 79.160924, 2017/07/13-01:06:39        ">
   <rdf:RDF xmlns:rdf="http://www.w3.org/1999/02/22-rdf-syntax-ns#">
      <rdf:Description rdf:about=""/>
   </rdf:RDF>
</x:xmpmeta>
                                                                                                    
                                                                                                    
                                                                                                    
                                                                                                    
                                                                                                    
                                                                                                    
                                                                                                    
                                                                                                    
                                                                                                    
                                                                                                    
                                                                                                    
                                                                                                    
                                                                                                    
                                                                                                    
                                                                                                    
                                                                                                    
                                                                                                    
                                                                                                    
                                                                                                    
                                                                                                    
                           
<?xpacket end="w"?></metadata>
<defs>
    <style>
      .cls-1 {
        fill: #fff;
        fill-rule: evenodd;
      }
    </style>
  </defs>
  <path class="cls-1" d="M93.3,72.595a4.781,4.781,0,0,1-4.186,2.428H65.653a4.781,4.781,0,0,1-4.186-2.429,4.675,4.675,0,0,1,0-4.774L73.2,47.4a4.822,4.822,0,0,1,8.373,0L93.3,67.821A4.675,4.675,0,0,1,93.3,72.595Zm-2.773-3.082L78.8,49.011a1.628,1.628,0,0,0-2.827,0L64.24,69.513a1.64,1.64,0,0,0,1.413,2.46H89.119A1.64,1.64,0,0,0,90.532,69.513ZM76,67.007h3V70H76V67.007ZM76,54h3V64.992H76V54ZM46.5,33A1.5,1.5,0,0,1,48,34.5v16A1.5,1.5,0,0,1,46.5,52h-15a1.5,1.5,0,0,1,0-3H45V34.5A1.5,1.5,0,0,1,46.5,33Zm31.948,4.74L66.816,35.668a0.649,0.649,0,0,1-.223-1.153l5-3.769A31.214,31.214,0,0,0,55.552,19.984a1.98,1.98,0,0,1,.457,1.221,2,2,0,0,1-.586,1.414l-2.8,2.8a2,2,0,0,1-2.828,0L47.368,23H46.657l-2.485,2.485a2,2,0,0,1-2.828,0l-2.829-2.828a1.942,1.942,0,0,1-.11-2.663,31.235,31.235,0,0,0-12.649,7.141l3.133,3.133-2.121,2.121L23.659,29.28a31.151,31.151,0,0,0-6.642,12.109,1.934,1.934,0,0,1,2.64.125l2.828,2.829a2,2,0,0,1,0,2.828l-2.841,2.841,2.778,2.778a2,2,0,0,1,0,2.828l-2.8,2.8a1.935,1.935,0,0,1-2.642.124,31.235,31.235,0,0,0,7.258,12.811l2.434-2.371L28.8,71.062,26.369,73.43a31.089,31.089,0,0,0,18.617,7.748V77.923H48v3.3A31.124,31.124,0,0,0,59.248,78.74l3.574,3.574A35.8,35.8,0,0,1,48,85.971V86H44.986V85.94A35.995,35.995,0,0,1,11.873,57.784l-0.7.7a2,2,0,0,1-2.828,0L5.515,55.657a2,2,0,0,1,0-2.828l2.841-2.841L5.577,47.209a2,2,0,0,1,0-2.828l2.8-2.8a2,2,0,0,1,2.828,0l0.683,0.682A35.992,35.992,0,0,1,39.235,14.867l-0.658-.658a2,2,0,0,1,0-2.828l2.8-2.8a2,2,0,0,1,2.828,0l2.778,2.778,2.841-2.841a2,2,0,0,1,2.828,0l2.829,2.828a2,2,0,0,1,0,2.829l-0.7.7a35.978,35.978,0,0,1,20.6,13.02l5.072-3.821a0.592,0.592,0,0,1,.923.626L79.148,37.213A0.621,0.621,0,0,1,78.448,37.74ZM9.8,42.992l-2.8,2.8,4.192,4.192L6.929,54.243l2.829,2.829,1.652-1.652h0l2.6-2.6h0L18.2,57.009l2.8-2.8L18.8,52h0l-1.987-1.987L17.828,49h0l3.243-3.242-2.829-2.828-4.255,4.255h0l-2.546-2.546h0ZM51.243,9.929l-4.255,4.255h0L46.808,14h0L42.8,9.991l-2.8,2.8,4.192,4.193-4.255,4.255,2.828,2.829L45,21.828h0l2.012-2.012h0l4.192,4.193,2.8-2.8L51.97,19.166h0l-2.154-2.154,2.592-2.592h0l1.663-1.663Z"/>
</svg>
