<svg width="100" height="100" viewBox="0 0 100 100" xmlns="http://www.w3.org/2000/svg">
<defs>
<style>.cls-1 {
        fill: #fff;
        fill-rule: evenodd;
      }</style>
</defs>
<path class="cls-1" d="M87.3,88.553a4.781,4.781,0,0,1-4.186,2.428H59.653A4.857,4.857,0,0,1,55.467,83.7L67.2,63.4a4.822,4.822,0,0,1,8.373,0L87.3,83.7A4.828,4.828,0,0,1,87.3,88.553Zm-2.773-3L72.8,65.011a1.628,1.628,0,0,0-2.827,0L58.24,85.555a1.64,1.64,0,0,0,1.413,2.46H83.119A1.64,1.64,0,0,0,84.532,85.555ZM70,83.028h3V86H70V83.028ZM70,70h3V80.971H70V70Zm1.484-14.007A7.568,7.568,0,0,0,64.869,59.8L57.8,72H11V54H82V66.532L78.1,59.8A7.569,7.569,0,0,0,71.483,55.993ZM21,62H16v5h5V62Zm9,0H25v5h5V62Zm20,0H45v5h5V62ZM11,32H82V50H11V32ZM45,45h5V40H45v5ZM25,45h5V40H25v5Zm-9,0h5V40H16v5ZM11,10H82V28H11V10ZM45,23h5V18H45v5ZM25,23h5V18H25v5Zm-9,0h5V18H16v5Zm9,53h5v5H52.582l-2.318,4H11V81H25V76Z"/>
</svg>
