<?xml version="1.0" encoding="UTF-8" standalone="no"?>
<svg
   xmlns:x="adobe:ns:meta/"
   xmlns:dc="http://purl.org/dc/elements/1.1/"
   xmlns:cc="http://creativecommons.org/ns#"
   xmlns:rdf="http://www.w3.org/1999/02/22-rdf-syntax-ns#"
   xmlns:svg="http://www.w3.org/2000/svg"
   xmlns="http://www.w3.org/2000/svg"
   xmlns:sodipodi="http://sodipodi.sourceforge.net/DTD/sodipodi-0.dtd"
   xmlns:inkscape="http://www.inkscape.org/namespaces/inkscape"
   id="low_fps"
   width="100"
   height="100"
   viewBox="0 0 100 100"
   version="1.1"
   sodipodi:docname="save_data.svg"
   inkscape:version="0.92.1 r15371">
  <sodipodi:namedview
     pagecolor="#ffffff"
     bordercolor="#666666"
     borderopacity="1"
     objecttolerance="10"
     gridtolerance="10"
     guidetolerance="10"
     inkscape:pageopacity="0"
     inkscape:pageshadow="2"
     inkscape:window-width="2396"
     inkscape:window-height="1270"
     id="namedview11"
     showgrid="false"
     inkscape:pagecheckerboard="true"
     inkscape:zoom="9.44"
     inkscape:cx="76.005759"
     inkscape:cy="45.368821"
     inkscape:window-x="0"
     inkscape:window-y="60"
     inkscape:window-maximized="0"
     inkscape:current-layer="low_fps" />
  <metadata
     id="metadata2">
<?xpacket begin="ÿ" id="W5M0MpCehiHzreSzNTczkc9d"?>    <x:xmpmeta
       x:xmptk="Adobe XMP Core 5.6-c142 79.160924, 2017/07/13-01:06:39        ">
      <metadata>
        <rdf:RDF>
          <rdf:Description
             rdf:about="" />
          <cc:Work
             rdf:about="">
            <dc:format>image/svg+xml</dc:format>
            <dc:type
               rdf:resource="http://purl.org/dc/dcmitype/StillImage" />
            <dc:title></dc:title>
          </cc:Work>
        </rdf:RDF>
      </metadata>
    </x:xmpmeta>
<?xpacket end="w"?>  </metadata>
  <defs
     id="defs6">
    <style
       id="style4">
      .cls-1 {
        fill: #fff;
        fill-rule: evenodd;
      }
    </style>
  </defs>
  <path
     inkscape:connector-curvature="0"
     style="fill:#ffffff;fill-opacity:1;stroke-width:0.17335048"
     d="M 86.613071,27.596119 72.072079,13.055134 C 70.511633,11.494675 68.39521,10.618013 66.188397,10.617999 H 19.710003 c -4.595521,0 -8.320818,3.725302 -8.320818,8.320823 v 61.019373 c 0,4.59552 3.725297,8.320817 8.320818,8.320817 h 61.019375 c 4.59552,0 8.320829,-3.725297 8.320829,-8.320817 V 33.479808 c -1.2e-5,-2.206815 -0.876675,-4.323241 -2.437136,-5.883689 z M 62.660315,16.92611 V 37.076469 H 32.306759 V 16.92611 Z m 19.359473,65.362594 -63.070523,0 c -0.574438,3e-6 -1.040113,-0.465672 -1.040109,-1.04011 l 0,-63.28238 c 0,-0.574436 0.465673,-1.040107 1.040109,-1.040104 h 9.081567 v 20.041163 c 0,2.29776 1.862648,4.160411 4.160414,4.160411 h 30.509676 c 2.297766,0 4.160415,-1.862651 4.160415,-4.160411 V 17.599058 l 15.893976,15.576173 c 0.195048,0.195083 0.304607,0.459661 0.304573,0.735526 v 47.337837 c 3e-6,0.574434 -0.465665,1.040107 -1.040098,1.04011 z"
     id="path2"
     sodipodi:nodetypes="cccssssssccccccccccsccssssccccc" />
  <path
     inkscape:connector-curvature="0"
     class="cls-1"
     d="m 65.822347,71.748117 c -0.85247,1.50787 -2.45386,2.43672 -4.186,2.428 h -23.46101 c -1.73235,0.009 -3.33378,-0.92074 -4.186,-2.429 -0.87375,-1.47139 -0.87375,-3.30261 0,-4.774 l 11.73301,-20.42 c 1.85122,-3.2391 6.52178,-3.2391 8.373,0 l 11.727,20.421 c 0.87376,1.47139 0.87376,3.30261 0,4.774 z m -2.773,-3.082 -11.727,-20.502 c -0.62498,-1.09372 -2.20202,-1.09372 -2.827,0 l -11.73301,20.502 c -0.62963,1.09054 0.15377,2.45442 1.413,2.46 h 23.46601 c 1.25924,-0.006 2.04264,-1.36946 1.413,-2.46 z m -14.527,-2.506 h 3 v 2.993 h -3 z m 0,-13.007 h 3 v 10.992 h -3 z"
     id="path8"
     style="fill:#ffffff;fill-rule:evenodd"
     sodipodi:nodetypes="ccccccccccccccccccccccccccc" />
  <path
     sodipodi:nodetypes="cccssssssccccccccccsccssssccccc"
     id="path4500"
     d="M 86.613071,27.596119 72.072079,13.055134 C 70.511633,11.494675 68.39521,10.618013 66.188397,10.617999 H 19.710003 c -4.595521,0 -8.320818,3.725302 -8.320818,8.320823 v 61.019373 c 0,4.59552 3.725297,8.320817 8.320818,8.320817 h 61.019375 c 4.59552,0 8.320829,-3.725297 8.320829,-8.320817 V 33.479808 c -1.2e-5,-2.206815 -0.876675,-4.323241 -2.437136,-5.883689 z M 62.660315,16.92611 V 37.076469 H 32.306759 V 16.92611 Z m 19.359473,65.362594 -63.070523,0 c -0.574438,3e-6 -1.040113,-0.465672 -1.040109,-1.04011 l 0,-63.28238 c 0,-0.574436 0.465673,-1.040107 1.040109,-1.040104 h 9.081567 v 20.041163 c 0,2.29776 1.862648,4.160411 4.160414,4.160411 h 30.509676 c 2.297766,0 4.160415,-1.862651 4.160415,-4.160411 V 17.599058 l 15.893976,15.576173 c 0.195048,0.195083 0.304607,0.459661 0.304573,0.735526 v 47.337837 c 3e-6,0.574434 -0.465665,1.040107 -1.040098,1.04011 z"
     style="fill:#ffffff;fill-opacity:1;stroke-width:0.17335048"
     inkscape:connector-curvature="0" />
</svg>
