<svg id="Layer_1" data-name="Layer 1" xmlns="http://www.w3.org/2000/svg" width="30" height="30" viewBox="0 0 30 30"><rect x="2" y="14" width="2" height="2" fill="#fff"/><rect x="6" y="14" width="2" height="2" fill="#fff"/><rect x="10" y="14" width="2" height="2" fill="#fff"/><rect x="14" y="14" width="2" height="2" fill="#fff"/><rect x="18" y="14" width="2" height="2" fill="#fff"/><rect x="22" y="14" width="2" height="2" fill="#fff"/><rect x="26" y="14" width="2" height="2" fill="#fff"/><polygon points="11 10.41 3.29 2.71 4.71 1.29 11 7.59 18 0.59 25.71 8.29 24.29 9.71 18 3.41 11 10.41" fill="#fff"/><polygon points="18 29.41 11 22.41 4.71 28.71 3.29 27.29 11 19.59 18 26.59 24.29 20.29 25.71 21.71 18 29.41" fill="#fff"/></svg>