<?xml version="1.0" encoding="utf-8"?>
<!-- Generator: Adobe Illustrator 26.0.1, SVG Export Plug-In . SVG Version: 6.00 Build 0)  -->
<svg version="1.1" id="Layer_1" xmlns="http://www.w3.org/2000/svg" xmlns:xlink="http://www.w3.org/1999/xlink" x="0px" y="0px"
	 width="24px" height="24px" viewBox="0 0 24 24" style="enable-background:new 0 0 24 24;" xml:space="preserve">
<defs><style>.cls-1{fill:#FFFFFF;}</style></defs>
<g class="cls-1" id="Layer_2_00000085250445281531452670000016163536946894947980_">
	<g id="Train">
		<path d="M21,18h-1v-5l-1-2V7l-1-2H6L5,7v4l0,0l-1,2v5H3v1h2l-1,3l8,2l8-2l-1-3h2V18z M8,21H7v-4h1V21z M7,15c-0.6,0-1-0.4-1-1
			s0.4-1,1-1s1,0.4,1,1S7.6,15,7,15z M11,22h-1v-5h1V22z M14,22h-1v-5h1V22z M12,10c-1.1,0-2-0.9-2-2s0.9-2,2-2s2,0.9,2,2
			S13.1,10,12,10z M17,21h-1v-4h1V21z M17,15c-0.6,0-1-0.4-1-1s0.4-1,1-1s1,0.4,1,1S17.6,15,17,15z M9,1V0h6v1h-1v3h-4V1H9z"/>
	</g>
</g>
</svg>
