<?xml version="1.0" encoding="utf-8"?>
<!-- Generator: Adobe Illustrator 26.0.1, SVG Export Plug-In . SVG Version: 6.00 Build 0)  -->
<svg version="1.1" id="Layer_1" xmlns="http://www.w3.org/2000/svg" xmlns:xlink="http://www.w3.org/1999/xlink" x="0px" y="0px"
	 width="74px" height="24px" viewBox="0 0 74 24" style="enable-background:new 0 0 74 24;" xml:space="preserve">
<g id="Layer_2_00000182516580734102682790000002222993777743393426_">
	<g id="Layer_1-2">
		<path id="Path_695" style="fill:#FFFFFF;" d="M52.7,5H49V0h-4v5H30V3.6L29,2H14l-1,1.6v7.7l1,1.7v5l1,1h2c0.5,1.2,1.7,2,3,2
			s2.5-0.8,3-2h1c0.7,1.7,2.6,2.4,4.2,1.8c0.8-0.3,1.4-1,1.8-1.8h14c0.7,1.7,2.6,2.4,4.2,1.8c0.8-0.3,1.4-1,1.8-1.8h3v-3l2-2V7.5
			L52.7,5z"/>
	</g>
</g>
</svg>
