<svg id="kbd_100" data-name="kbd 100" xmlns="http://www.w3.org/2000/svg" width="138" height="138" viewBox="0 0 138 138">
  <metadata><?xpacket begin="﻿" id="W5M0MpCehiHzreSzNTczkc9d"?>
<x:xmpmeta xmlns:x="adobe:ns:meta/" x:xmptk="Adobe XMP Core 5.6-c138 79.159824, 2016/09/14-01:09:01        ">
   <rdf:RDF xmlns:rdf="http://www.w3.org/1999/02/22-rdf-syntax-ns#">
      <rdf:Description rdf:about=""/>
   </rdf:RDF>
</x:xmpmeta>
                                                                                                    
                                                                                                    
                                                                                                    
                                                                                                    
                                                                                                    
                                                                                                    
                                                                                                    
                                                                                                    
                                                                                                    
                                                                                                    
                                                                                                    
                                                                                                    
                                                                                                    
                                                                                                    
                                                                                                    
                                                                                                    
                                                                                                    
                                                                                                    
                                                                                                    
                                                                                                    
                           
<?xpacket end="w"?></metadata>
<defs>
    <style>
      .cls-1 {
        fill: #181818;
        stroke: #e0e0e0;
        stroke-width: 4px;
      }

      .cls-1, .cls-2 {
        fill-rule: evenodd;
      }

      .cls-2 {
        fill: #e0e0e0;
      }
    </style>
  </defs>
  <path id="Rounded_Rectangle_1" data-name="Rounded Rectangle 1" class="cls-1" d="M24,14h90a10,10,0,0,1,10,10v90a10,10,0,0,1-10,10H24a10,10,0,0,1-10-10V24A10,10,0,0,1,24,14Z"/>
  <path class="cls-2" d="M75.006,114.982V90.009h4.013V101h7.989V90.009h3.966v24.973H87.008V103.991H79.019v10.991H75.006ZM71,114.607a21.761,21.761,0,0,1-6.712,1.16,10.93,10.93,0,0,1-8.546-3.576c-2.125-2.369-3.187-5.509-3.187-9.52,0-8.313,4.539-13.29,12.071-13.29a23.419,23.419,0,0,1,6.385.918v3.527a14.407,14.407,0,0,0-6.337-1.546C59.989,92.281,57,96.34,57,102.719c0,5.992,3.283,9.906,8.306,9.906a11.84,11.84,0,0,0,1.687-.144V103.97H71v10.637Zm-46,.406v-25h7.555c5.167,0,7.726,2.077,7.726,6.234a8.491,8.491,0,0,1-4.78,7.672l7.1,11.1H37.721l-6.278-10.034H28.982v10.034H25ZM28.982,102h1.3a5.332,5.332,0,0,0,5.649-5.465c0-2.707-1.3-3.563-5.167-3.563H28.982V102Zm16.024,13.014v-25h4v25h-4Zm57.008-.025v-22H95V90.015h18v2.977h-7.015v22h-3.975Zm-50.023-35v-26H28.419l40.55-31.1,40.55,31.1H85.994v26h-34ZM58,74.012H79.972V48.023H91.931L68.969,30.4,46.056,48.023H58V74.012Z"/>
</svg>
