<svg id="kbd_100" data-name="kbd 100" xmlns="http://www.w3.org/2000/svg" width="138" height="138" viewBox="0 0 138 138">
  <metadata><?xpacket begin="﻿" id="W5M0MpCehiHzreSzNTczkc9d"?>
<x:xmpmeta xmlns:x="adobe:ns:meta/" x:xmptk="Adobe XMP Core 5.6-c138 79.159824, 2016/09/14-01:09:01        ">
   <rdf:RDF xmlns:rdf="http://www.w3.org/1999/02/22-rdf-syntax-ns#">
      <rdf:Description rdf:about=""/>
   </rdf:RDF>
</x:xmpmeta>
                                                                                                    
                                                                                                    
                                                                                                    
                                                                                                    
                                                                                                    
                                                                                                    
                                                                                                    
                                                                                                    
                                                                                                    
                                                                                                    
                                                                                                    
                                                                                                    
                                                                                                    
                                                                                                    
                                                                                                    
                                                                                                    
                                                                                                    
                                                                                                    
                                                                                                    
                                                                                                    
                           
<?xpacket end="w"?></metadata>
<defs>
    <style>
      .cls-1 {
        fill: #181818;
        stroke: #e0e0e0;
        stroke-width: 4px;
      }

      .cls-1, .cls-2 {
        fill-rule: evenodd;
      }

      .cls-2 {
        fill: #e0e0e0;
      }
    </style>
  </defs>
  <path id="Rounded_Rectangle_1" data-name="Rounded Rectangle 1" class="cls-1" d="M24,14h90a10,10,0,0,1,10,10v90a10,10,0,0,1-10,10H24a10,10,0,0,1-10-10V24A10,10,0,0,1,24,14Z"/>
  <path class="cls-2" d="M55.489,84.694a9.927,9.927,0,0,1-8.511-4.155C44.971,77.755,43.967,73.922,43.967,69s1-8.755,3.011-11.539a9.927,9.927,0,0,1,8.511-4.155,9.9,9.9,0,0,1,8.471,4.155c2.047,2.784,3.051,6.617,3.051,11.539s-1,8.755-3.051,11.539a9.9,9.9,0,0,1-8.471,4.155h0Zm0-3.51c4.135,0,6.183-4.074,6.183-12.184s-2.048-12.184-6.183-12.184S49.267,60.891,49.267,69s2.087,12.184,6.222,12.184h0ZM35.979,83.97V71.007H26.013V83.97H21.02V54.031h4.992V66.992h9.966V54.031h5V83.97h-5ZM98,83.981V54.02h18.968v3.946H103.018V67h10.989v3.985H103.018v9H116.98v4H98ZM70,84.01V54H76.75l5.238,15.31L87.521,54h6.487V84.01L89.021,84,89.012,61.415l-5.078,14.6h-3.8L74.993,61.657V84.01H70Z"/>
</svg>
