<svg id="kbd_100" data-name="kbd 100" xmlns="http://www.w3.org/2000/svg" width="138" height="138" viewBox="0 0 138 138">
  <metadata><?xpacket begin="﻿" id="W5M0MpCehiHzreSzNTczkc9d"?>
<x:xmpmeta xmlns:x="adobe:ns:meta/" x:xmptk="Adobe XMP Core 5.6-c138 79.159824, 2016/09/14-01:09:01        ">
   <rdf:RDF xmlns:rdf="http://www.w3.org/1999/02/22-rdf-syntax-ns#">
      <rdf:Description rdf:about=""/>
   </rdf:RDF>
</x:xmpmeta>
                                                                                                    
                                                                                                    
                                                                                                    
                                                                                                    
                                                                                                    
                                                                                                    
                                                                                                    
                                                                                                    
                                                                                                    
                                                                                                    
                                                                                                    
                                                                                                    
                                                                                                    
                                                                                                    
                                                                                                    
                                                                                                    
                                                                                                    
                                                                                                    
                                                                                                    
                                                                                                    
                           
<?xpacket end="w"?></metadata>
<defs>
    <style>
      .cls-1 {
        fill: #181818;
        stroke: #e0e0e0;
        stroke-width: 4px;
      }

      .cls-1, .cls-2 {
        fill-rule: evenodd;
      }

      .cls-2 {
        fill: #e0e0e0;
      }
    </style>
  </defs>
  <path id="Rounded_Rectangle_1" data-name="Rounded Rectangle 1" class="cls-1" d="M24,14h90a10,10,0,0,1,10,10v90a10,10,0,0,1-10,10H24a10,10,0,0,1-10-10V24A10,10,0,0,1,24,14Z"/>
  <path class="cls-2" d="M22,84.015V53.985H32.209c6.53,0,9.815,2.678,9.815,8.035,0,6.7-4.1,9.986-12.247,9.986H26.991V84.015H22Zm4.991-16.029h2.135c5.029,0,7.543-1.583,7.543-5.925,0-3.043-2.149-4.094-6.408-4.094h-3.27V67.986ZM67,83.366a25.372,25.372,0,0,1-7.989,1.42,13.209,13.209,0,0,1-10.261-4.22c-2.555-2.841-3.811-6.655-3.811-11.485,0-4.991,1.257-8.846,3.811-11.646s6.124-4.221,10.625-4.221a28.107,28.107,0,0,1,7.62,1.1v4.22A17.158,17.158,0,0,0,59.455,56.7a7.941,7.941,0,0,0-6.692,3.367C51.1,62.3,50.29,65.348,50.29,69.163a13.065,13.065,0,0,0,2.677,8.6,8.993,8.993,0,0,0,7.259,3.206,10.547,10.547,0,0,0,1.8-.162V70H67V83.366Zm3.984-29.38H75.97V73.411c0,5.072,2.123,7.629,5.53,7.629,3.528,0,5.522-2.557,5.522-7.711V53.985h5v18.87a14.331,14.331,0,0,1-3.23,9.171c-1.46,1.827-3.882,2.76-7.329,2.76-6.692,0-10.477-3.734-10.477-11.2v-19.6ZM96,84.015V53.985h10.209c6.529,0,9.814,2.678,9.814,8.035,0,6.7-4.1,9.986-12.247,9.986h-2.785V84.015H96Zm4.991-16.029h2.135c5.029,0,7.543-1.583,7.543-5.925,0-3.043-2.149-4.094-6.407-4.094h-3.271V67.986Z"/>
</svg>
