<svg id="kbd_100" data-name="kbd 100" xmlns="http://www.w3.org/2000/svg" width="138" height="138" viewBox="0 0 138 138">
  <metadata><?xpacket begin="﻿" id="W5M0MpCehiHzreSzNTczkc9d"?>
<x:xmpmeta xmlns:x="adobe:ns:meta/" x:xmptk="Adobe XMP Core 5.6-c138 79.159824, 2016/09/14-01:09:01        ">
   <rdf:RDF xmlns:rdf="http://www.w3.org/1999/02/22-rdf-syntax-ns#">
      <rdf:Description rdf:about=""/>
   </rdf:RDF>
</x:xmpmeta>
                                                                                                    
                                                                                                    
                                                                                                    
                                                                                                    
                                                                                                    
                                                                                                    
                                                                                                    
                                                                                                    
                                                                                                    
                                                                                                    
                                                                                                    
                                                                                                    
                                                                                                    
                                                                                                    
                                                                                                    
                                                                                                    
                                                                                                    
                                                                                                    
                                                                                                    
                                                                                                    
                           
<?xpacket end="w"?></metadata>
<defs>
    <style>
      .cls-1 {
        fill: #181818;
        stroke: #e0e0e0;
        stroke-width: 4px;
      }

      .cls-1, .cls-2 {
        fill-rule: evenodd;
      }

      .cls-2 {
        fill: #e0e0e0;
      }
    </style>
  </defs>
  <path id="Rounded_Rectangle_1" data-name="Rounded Rectangle 1" class="cls-1" d="M24,14h90a10,10,0,0,1,10,10v90a10,10,0,0,1-10,10H24a10,10,0,0,1-10-10V24A10,10,0,0,1,24,14Z"/>
  <path class="cls-2" d="M75.006,99.982V75.009h4.013V86h7.989V75.009h3.966V99.982H87.008V88.991H79.019V99.982H75.006ZM71,99.607a21.753,21.753,0,0,1-6.712,1.16,10.929,10.929,0,0,1-8.546-3.576c-2.125-2.368-3.187-5.509-3.187-9.52,0-8.313,4.539-13.29,12.071-13.29a23.419,23.419,0,0,1,6.385.918v3.527a14.407,14.407,0,0,0-6.337-1.546C59.989,77.281,57,81.34,57,87.719c0,5.992,3.283,9.906,8.306,9.906a11.85,11.85,0,0,0,1.687-.144V88.97H71V99.607Zm-46,.406v-25h7.555c5.167,0,7.726,2.077,7.726,6.234a8.49,8.49,0,0,1-4.78,7.672l7.1,11.1H37.721L31.444,89.979H28.982v10.034H25ZM28.982,87h1.3a5.332,5.332,0,0,0,5.649-5.465c0-2.707-1.3-3.563-5.167-3.563H28.982V87Zm16.024,13.014v-25h4v25h-4Zm57.008-.025v-22H95V75.015h18v2.977h-7.015v22h-3.975ZM32.829,67L42.8,37h5.026L57.146,67H51.918l-2.554-8.034H39.355L36.639,67h-3.81ZM40.542,55h7.716L44.542,43.327ZM91,66.977V40.994h-9.01V37.023h23.014v3.971H96.016V66.977H91Zm-29.026,0V36.986h5.01V63.015H79.991v3.962H61.975Z"/>
</svg>
