<svg id="kbd_100" data-name="kbd 100" xmlns="http://www.w3.org/2000/svg" width="138" height="138" viewBox="0 0 138 138">
  <metadata><?xpacket begin="﻿" id="W5M0MpCehiHzreSzNTczkc9d"?>
<x:xmpmeta xmlns:x="adobe:ns:meta/" x:xmptk="Adobe XMP Core 5.6-c138 79.159824, 2016/09/14-01:09:01        ">
   <rdf:RDF xmlns:rdf="http://www.w3.org/1999/02/22-rdf-syntax-ns#">
      <rdf:Description rdf:about=""/>
   </rdf:RDF>
</x:xmpmeta>
                                                                                                    
                                                                                                    
                                                                                                    
                                                                                                    
                                                                                                    
                                                                                                    
                                                                                                    
                                                                                                    
                                                                                                    
                                                                                                    
                                                                                                    
                                                                                                    
                                                                                                    
                                                                                                    
                                                                                                    
                                                                                                    
                                                                                                    
                                                                                                    
                                                                                                    
                                                                                                    
                           
<?xpacket end="w"?></metadata>
<defs>
    <style>
      .cls-1 {
        fill: #181818;
        stroke: #e0e0e0;
        stroke-width: 4px;
      }

      .cls-1, .cls-2 {
        fill-rule: evenodd;
      }

      .cls-2 {
        fill: #e0e0e0;
      }
    </style>
  </defs>
  <path id="Rounded_Rectangle_1" data-name="Rounded Rectangle 1" class="cls-1" d="M24,14h90a10,10,0,0,1,10,10v90a10,10,0,0,1-10,10H24a10,10,0,0,1-10-10V24A10,10,0,0,1,24,14Z"/>
  <path class="cls-2" d="M56.98,83.523V79.061a23.03,23.03,0,0,0,8.79,2.149c3.692,0,6.288-1.987,6.288-4.745,0-1.663-1.176-3.164-3.57-4.422L62.768,69q-5.842-3.1-5.841-7.788c0-4.989,3.773-7.991,10.1-7.991a29.434,29.434,0,0,1,7.988,1.136v4.1a21.968,21.968,0,0,0-7.988-1.7c-3.61,0-5.436,1.217-5.436,3.691,0,1.5,1.136,2.88,3.367,4.057L70.8,67.58c4.259,2.231,6.409,4.99,6.409,8.275,0,5.558-4.382,8.924-11.642,8.924a38.226,38.226,0,0,1-8.587-1.257h0Zm46.992-.284a25.336,25.336,0,0,1-8.347,1.541A13.051,13.051,0,0,1,85.443,80.52c-2.555-2.879-3.813-6.693-3.813-11.439,0-4.908,1.258-8.762,3.813-11.6s6.044-4.259,10.425-4.259a30.891,30.891,0,0,1,8.12,1.055v4.259a21.7,21.7,0,0,0-7.876-1.785A7.787,7.787,0,0,0,89.5,60.157c-1.663,2.231-2.475,5.232-2.475,9A13.091,13.091,0,0,0,89.7,77.721a8.789,8.789,0,0,0,7.1,3.286,18.539,18.539,0,0,0,7.17-1.744v3.975ZM34.009,84V54H52.981v4.017H39v8.951H49.983v4.026H39v8.987H52.995V84H34.009Z"/>
</svg>
