<svg id="kbd_100" data-name="kbd 100" xmlns="http://www.w3.org/2000/svg" width="138" height="138" viewBox="0 0 138 138">
  <metadata><?xpacket begin="﻿" id="W5M0MpCehiHzreSzNTczkc9d"?>
<x:xmpmeta xmlns:x="adobe:ns:meta/" x:xmptk="Adobe XMP Core 5.6-c138 79.159824, 2016/09/14-01:09:01        ">
   <rdf:RDF xmlns:rdf="http://www.w3.org/1999/02/22-rdf-syntax-ns#">
      <rdf:Description rdf:about=""/>
   </rdf:RDF>
</x:xmpmeta>
                                                                                                    
                                                                                                    
                                                                                                    
                                                                                                    
                                                                                                    
                                                                                                    
                                                                                                    
                                                                                                    
                                                                                                    
                                                                                                    
                                                                                                    
                                                                                                    
                                                                                                    
                                                                                                    
                                                                                                    
                                                                                                    
                                                                                                    
                                                                                                    
                                                                                                    
                                                                                                    
                           
<?xpacket end="w"?></metadata>
<defs>
    <style>
      .cls-1 {
        fill: #181818;
        stroke: #e0e0e0;
        stroke-width: 4px;
      }

      .cls-1, .cls-2 {
        fill-rule: evenodd;
      }

      .cls-2 {
        fill: #e0e0e0;
      }
    </style>
  </defs>
  <path id="Rounded_Rectangle_1" data-name="Rounded Rectangle 1" class="cls-1" d="M24,14h90a10,10,0,0,1,10,10v90a10,10,0,0,1-10,10H24a10,10,0,0,1-10-10V24A10,10,0,0,1,24,14Z"/>
  <path class="cls-2" d="M99.975,66.977V36.986h5.01V63.015h13.006v3.962H99.975Zm-43.993,0v-26H47.011V37.023H70.005v3.953H61.016v26H55.982Zm19.036,0V37.023H84.08c5.864,0,8.8,2.66,8.8,7.523,0,3.707-1.813,6.577-5.478,8.57l8.1,13.861H89.9L82.769,55H79.989V66.977H75.018Zm4.971-16.014H81.5c3.857,0,6.364-2.391,6.364-6.1,0-3.189-1.389-3.882-5.825-3.882H79.989v9.98ZM42,65.991a23.265,23.265,0,0,1-7.908,1.514,12.225,12.225,0,0,1-9.683-4.185c-2.43-2.83-3.625-6.576-3.625-11.24,0-4.824,1.2-8.61,3.625-11.4a12.49,12.49,0,0,1,9.914-4.185,27.069,27.069,0,0,1,7.523,1.036v4.185a19.177,19.177,0,0,0-7.291-1.753,7.338,7.338,0,0,0-6.288,3.348c-1.582,2.193-2.353,5.142-2.353,8.849a13.161,13.161,0,0,0,2.546,8.411A8.255,8.255,0,0,0,35.207,63.8,17.036,17.036,0,0,0,42,62.085v3.906ZM30.013,100V75.015h4V96.968H45.984V100H30.013ZM70,99.988V75.015H86.019v2.977H73.975v8h9.047V89H73.975V99.988H70Zm27.012,0v-22H90V75.015h18v2.977h-7.015v22H97.014ZM49.973,100V75.015H66.009v2.977H54.022v7.966H62v3.033H54.022v7.977H65.991V100H49.973Z"/>
</svg>
