<svg id="kbd_100" data-name="kbd 100" xmlns="http://www.w3.org/2000/svg" width="138" height="138" viewBox="0 0 138 138">
  <metadata><?xpacket begin="﻿" id="W5M0MpCehiHzreSzNTczkc9d"?>
<x:xmpmeta xmlns:x="adobe:ns:meta/" x:xmptk="Adobe XMP Core 5.6-c138 79.159824, 2016/09/14-01:09:01        ">
   <rdf:RDF xmlns:rdf="http://www.w3.org/1999/02/22-rdf-syntax-ns#">
      <rdf:Description rdf:about=""/>
   </rdf:RDF>
</x:xmpmeta>
                                                                                                    
                                                                                                    
                                                                                                    
                                                                                                    
                                                                                                    
                                                                                                    
                                                                                                    
                                                                                                    
                                                                                                    
                                                                                                    
                                                                                                    
                                                                                                    
                                                                                                    
                                                                                                    
                                                                                                    
                                                                                                    
                                                                                                    
                                                                                                    
                                                                                                    
                                                                                                    
                           
<?xpacket end="w"?></metadata>
<defs>
    <style>
      .cls-1 {
        fill: #181818;
        stroke: #e0e0e0;
        stroke-width: 4px;
      }

      .cls-1, .cls-2 {
        fill-rule: evenodd;
      }

      .cls-2 {
        fill: #e0e0e0;
      }
    </style>
  </defs>
  <path id="Rounded_Rectangle_1" data-name="Rounded Rectangle 1" class="cls-1" d="M24,14h90a10,10,0,0,1,10,10v90a10,10,0,0,1-10,10H24a10,10,0,0,1-10-10V24A10,10,0,0,1,24,14Z"/>
  <path class="cls-2" d="M32.829,67L42.8,37h5.026L57.146,67H51.918l-2.554-8.034H39.355L36.639,67h-3.81ZM40.542,55h7.716L44.542,43.327ZM91,66.977V40.994h-9.01V37.023h23.014v3.971H96.016V66.977H91Zm-29.026,0V36.986h5.01V63.015H79.991v3.962H61.975ZM30.013,100V75.015h4V96.968H45.984V100H30.013ZM70,99.988V75.015H86.019v2.977H73.975v8h9.047V89H73.975V99.988H70Zm27.012,0v-22H90V75.015h18v2.977h-7.015v22H97.014ZM49.973,100V75.015H66.009v2.977H54.022v7.966H62v3.033H54.022v7.977H65.991V100H49.973Z"/>
</svg>
