<svg xmlns="http://www.w3.org/2000/svg" width="150" height="150" viewBox="0 0 150 150">
  <defs>
    <style>
      .cls-1 {
        fill: #f6f6f6;
      }

      .cls-2 {
        fill: #391a79;
      }

      .cls-3 {
        fill: #2e24a4;
      }

      .cls-4 {
        fill: #7088ac;
      }

      .cls-5 {
        fill: #397f37;
      }

      .cls-6 {
        fill: #f0c42a;
      }

      .cls-7 {
        fill: #de5c30;
      }

      .cls-8 {
        fill: #c23042;
      }

      .cls-9 {
        fill: none;
        stroke: #333;
        stroke-linecap: round;
        stroke-linejoin: round;
        stroke-width: 3px;
      }
    </style>
  </defs>
  <g id="Layer_7" data-name="Layer 7">
    <g>
      <path class="cls-1" d="M18.31046,5.08158V120.30749A16.46087,16.46087,0,0,0,34.7713,136.76833H64.23188c7.56266.81407,10.736,8.15009,10.736,8.15009h.06426s3.17329-7.336,10.736-8.15009H115.2287a16.46087,16.46087,0,0,0,16.46084-16.46084V5.08158Z"/>
      <path class="cls-2" d="M115.2287,136.76833a16.4102,16.4102,0,0,0,5.993-1.13022c-1.94944-7.55067-9.19573-35.163-13.62346-45.85217C102.44644,77.34868,79.48157,42.49987,63.904,31.57954c-12.97088-9.093-37.40676-13.06353-45.59352-14.138v11.757C23.67115,29.433,47.05188,31.614,68.0794,51.65371c23.66546,22.55365,35.70312,56.25691,42.33452,85.11462Z"/>
      <path class="cls-3" d="M112.804,91.53086c-5.86068-14.14863-31.9855-53.79268-49.70661-66.21565C51.14,16.93272,30.62019,12.37762,18.31046,10.30069V24.56651c9.99913.65457,30.86531,3.73705,50.73252,22.67089,24.87793,23.70916,38.33,56.26033,45.35477,89.53093h.831a16.387,16.387,0,0,0,10.29521-3.62106C122.02658,120.11372,116.53615,100.541,112.804,91.53086Z"/>
      <path class="cls-4" d="M18.31046,13.05255v6.70952c11.2565,1.31572,39.929,7.07882,61.65288,32.21285,25.7265,29.76493,35.1529,69.2765,39.30987,84.29116a16.39319,16.39319,0,0,0,5.83683-2.79353c-1.95155-6.42019-9.75855-31.68266-16.72165-48.25476-8.02966-19.11066-28.58966-46.43847-50.50865-59.75428C42.8447,16.32974,26.86526,13.76364,18.31046,13.05255Z"/>
      <path class="cls-5" d="M18.31046,8.03909v7.85476c4.74267.3066,25.86319,2.28339,42.86344,13.75857C80.44512,42.6605,95.7015,60.32577,109.51256,92.92628c9.73529,22.97982,13.24934,35.7898,14.47327,41.31691a16.5418,16.5418,0,0,0,3.83944-3.34339c-.65837-4.28571-3.46818-20.97706-9.15887-34.44046C112.082,80.88174,91.84725,47.63887,80.7663,37.03973,69.98172,26.724,43.83357,11.089,18.31046,8.03909Z"/>
      <path class="cls-6" d="M18.31046,10.73617c5.65387.30329,39.68361,3.29774,65.66772,31.92433,27.874,30.7087,39.37772,72.06942,43.7506,88.35067a16.39949,16.39949,0,0,0,3.619-7.35436c-3.012-11.17425-11.49652-41.1119-18.62329-51.60772C103.89179,59.041,81.89047,29.01,64.06457,17.4473,55.15166,11.66593,43.95024,7.6511,34.97706,5.08158H18.31046Z"/>
      <path class="cls-7" d="M131.68954,120.30749v-8.229c-2.10646-7.52512-5.42336-18.62648-8.04477-23.97007-4.17542-8.51144-22.16191-43.03907-34.52759-55.56538-8.65951-8.772-31.02053-20.53556-44.9161-27.4615H18.31046v1.1295c13.9109,2.10075,46.93242,9.06588,64.383,29.3833,21.98742,25.59961,36.907,52.43566,47.618,91.30745A16.39844,16.39844,0,0,0,131.68954,120.30749Z"/>
      <path class="cls-8" d="M92.65024,39.93039c23.121,28.96761,35.4666,62.44205,39.0393,73.13344V101.50238a231.01132,231.01132,0,0,0-33.25793-60.769C81.87964,19.12985,62.45228,9.25272,51.411,5.08158H34.90037A95.74038,95.74038,0,0,1,92.65024,39.93039Z"/>
      <polygon class="cls-3" points="27.292 63.899 28.571 67.577 32.464 67.657 29.361 70.009 30.488 73.737 27.292 71.512 24.096 73.737 25.223 70.009 22.12 67.657 26.014 67.577 27.292 63.899"/>
      <polygon class="cls-3" points="41.525 63.899 42.803 67.577 46.697 67.657 43.593 70.009 44.721 73.737 41.525 71.512 38.328 73.737 39.456 70.009 36.353 67.657 40.246 67.577 41.525 63.899"/>
      <polygon class="cls-3" points="55.757 63.899 57.036 67.577 60.929 67.657 57.826 70.009 58.954 73.737 55.757 71.512 52.561 73.737 53.689 70.009 50.585 67.657 54.479 67.577 55.757 63.899"/>
      <polygon class="cls-3" points="34.76 50.891 36.038 54.569 39.932 54.649 36.828 57.001 37.956 60.728 34.76 58.504 31.563 60.728 32.691 57.001 29.588 54.649 33.481 54.569 34.76 50.891"/>
      <polygon class="cls-3" points="48.992 50.891 50.271 54.569 54.164 54.649 51.061 57.001 52.189 60.728 48.992 58.504 45.796 60.728 46.924 57.001 43.82 54.649 47.714 54.569 48.992 50.891"/>
      <polygon class="cls-3" points="26.75 37.521 28.029 41.2 31.922 41.279 28.819 43.632 29.946 47.359 26.75 45.135 23.554 47.359 24.681 43.632 21.578 41.279 25.472 41.2 26.75 37.521"/>
      <polygon class="cls-3" points="40.983 37.521 42.261 41.2 46.155 41.279 43.051 43.632 44.179 47.359 40.983 45.135 37.786 47.359 38.914 43.632 35.811 41.279 39.704 41.2 40.983 37.521"/>
      <polygon class="cls-3" points="63.225 50.891 64.503 54.569 68.397 54.649 65.294 57.001 66.421 60.728 63.225 58.504 60.028 60.728 61.156 57.001 58.053 54.649 61.946 54.569 63.225 50.891"/>
      <polygon class="cls-3" points="110.078 37.281 111.357 40.959 115.25 41.038 112.147 43.391 113.274 47.118 110.078 44.894 106.882 47.118 108.009 43.391 104.906 41.038 108.8 40.959 110.078 37.281"/>
      <polygon class="cls-3" points="123.929 37.281 125.208 40.959 129.101 41.038 125.998 43.391 127.126 47.118 123.929 44.894 120.733 47.118 121.861 43.391 118.757 41.038 122.651 40.959 123.929 37.281"/>
      <polygon class="cls-3" points="117.184 50.289 118.463 53.967 122.356 54.046 119.253 56.399 120.381 60.126 117.184 57.902 113.988 60.126 115.116 56.399 112.012 54.046 115.906 53.967 117.184 50.289"/>
      <polygon class="cls-3" points="124.291 63.538 125.569 67.216 129.462 67.295 126.359 69.648 127.487 73.375 124.291 71.151 121.094 73.375 122.222 69.648 119.119 67.295 123.012 67.216 124.291 63.538"/>
      <polygon class="cls-3" points="69.99 63.899 71.268 67.577 75.162 67.657 72.059 70.009 73.186 73.737 69.99 71.512 66.793 73.737 67.921 70.009 64.818 67.657 68.711 67.577 69.99 63.899"/>
      <g>
        <path class="cls-1" d="M114.07227,79.53186c-.40507.15547-.84345.77522-1.465-.2163s-2.15015-3.72922-3.47359-3.83633-2.16243,1.74071-1.70975,4.51759a16.28351,16.28351,0,0,0,1.11544,3.63954,2.86014,2.86014,0,0,0-.97646,1.08235c-.598-1.81229-1.69381-8.3317-2.76819-9.66979a29.99069,29.99069,0,0,0-4.35528-3.75881l-.37991.1878a29.99119,29.99119,0,0,0,.34166,5.74285c.41072,1.66617,4.925,6.49572,6.00177,8.07135a2.86033,2.86033,0,0,0-1.45289.11854,16.2837,16.2837,0,0,0-2.21433-3.09632c-1.93138-2.04592-3.909-2.50147-4.62752-1.38489-.71856,1.11653.52835,3.99345.9387,5.08939s-.34833,1.06793-.7178,1.29534,1.11672,1.28422,2.22369.24435.74584-3.01106,1.18687-3.00513a7.03657,7.03657,0,0,1,2.36277,1.606c-.5751.95156.1854,1.20085.66678,1.50928a.30444.30444,0,0,0,.403.00666,1.39212,1.39212,0,0,1,.04178.89312c-.55731,1.70865-1.65661.37106-1.8671.65425s.46595,1.74025,1.91173,1.563,1.27771-2.37829.638-3.49517c0,0-.06861-.16212-.19383-.42886l.01551-.02046a1.67133,1.67133,0,0,1,1.08721-.33918,24.11576,24.11576,0,0,0,.79274,3.28384c.37419.88992,2.60124,1.93874,2.60124,1.93874l.1687-.08339s.51908-2.40632.03926-3.244a24.11641,24.11641,0,0,0-2.12766-2.624,1.67126,1.67126,0,0,1,.92966-.65781c.00846-.00071.01724.00061.02572.00011.13589.26147.223.41439.223.41439.4989,1.1865,2.14562,2.65658,3.16437,1.61556s.27187-2.4633-.08094-2.468.04233,1.68095-1.6536,1.08613a1.392,1.392,0,0,1-.68422-.57553c.13069-.02848.22193-.11331.23943-.32424.04726-.56975.311-1.32537-.79423-1.44628a7.03734,7.03734,0,0,1,.15874-2.8525c.2631-.354,1.61,1.1299,3.10837.88188S114.47735,79.37642,114.07227,79.53186Z"/>
        <path class="cls-1" d="M127.06219,110.216c-.41573.12416-.90005.70872-1.4443-.32727s-1.85984-3.88216-3.17127-4.08977-2.28874,1.57093-2.0489,4.37423a16.28362,16.28362,0,0,0,.835,3.71393,2.86031,2.86031,0,0,0-1.05607,1.00483c-.45821-1.85257-1.05425-8.43651-2.02358-9.85256a29.99073,29.99073,0,0,0-4.05631-4.07963l-.39311.15831a29.99045,29.99045,0,0,0-.09677,5.75219c.2826,1.69261,4.41592,6.852,5.36952,8.50506a2.86031,2.86031,0,0,0-1.4577.00754,16.2838,16.2838,0,0,0-1.972-3.256c-1.76992-2.18709-3.70705-2.792-4.50859-1.73336s.22263,4.02211.54831,5.14612-.42866,1.03829-.81438,1.23689c-.38574.19865,1.01565,1.36556,2.19861.413s.973-2.94551,1.41233-2.906a7.03669,7.03669,0,0,1,2.23357,1.78136c-.64591.905.0934,1.21148.54988,1.55568a.30444.30444,0,0,0,.40133.03734,1.392,1.392,0,0,1-.02637.8937c-.68584,1.66124-1.68006.2438-1.91151.51013s.332,1.77069,1.78712,1.7041c1.455-.06661,1.45516-2.27405.90236-3.43642,0,0-.05606-.16687-.1606-.44238l.017-.01921a1.67131,1.67131,0,0,1,1.10988-.25539,24.11647,24.11647,0,0,0,.5403,3.33469c.30532.91583,2.446,2.13125,2.446,2.13125l.17456-.0703s.70086-2.35979.28624-3.2316a24.11706,24.11706,0,0,0-1.9216-2.7784,1.6712,1.6712,0,0,1,.97706-.58508c.0085-.00006.01714.00192.02564.00207.11558.27106.1908.43017.1908.43017.40707,1.22106,1.937,2.8123,3.03211,1.85191s.45872-2.43544.1073-2.467-.08584,1.67928-1.73154.957a1.3921,1.3921,0,0,1-.63839-.626c.13249-.01844.22992-.09608.26344-.30507.09052-.56449.41107-1.29782-.68176-1.50257a7.03737,7.03737,0,0,1,.37556-2.83212c.2893-.33293,1.51926,1.24926,3.03216,1.11608S127.47794,110.09187,127.06219,110.216Z"/>
        <path class="cls-1" d="M96.89366,50.7736c-.37095.225-.69211.91288-1.48014.04773S92.63435,47.534,91.313,47.664s-1.81834,2.09757-.879,4.74967a16.28388,16.28388,0,0,0,1.745,3.3831,2.86023,2.86023,0,0,0-.76838,1.23877c-.9108-1.677-3.14873-7.89757-4.444-9.02324a29.99093,29.99093,0,0,0-4.9544-2.92421l-.34044.25238A29.99075,29.99075,0,0,0,83.02948,50.931c.70052,1.56654,6.00186,5.51615,7.34169,6.87513a2.86027,2.86027,0,0,0-1.40864.37508,16.2836,16.2836,0,0,0-2.72976-2.6531c-2.26448-1.66977-4.29154-1.76632-4.80006-.53973-.50851,1.22653,1.23023,3.8358,1.829,4.84128s-.15282,1.11285-.476,1.40235,1.32733,1.06512,2.2317-.15506.19838-3.09571.63343-3.16832a7.03662,7.03662,0,0,1,2.61075,1.16018c-.39668,1.03868.396,1.14872.9246,1.36661a.30443.30443,0,0,0,.39777-.06512,1.392,1.392,0,0,1,.2.87144c-.24451,1.78054-1.5642.6598-1.721.97591s.76805,1.62962,2.15926,1.19807c1.39115-.43157.83432-2.56763.00614-3.55292,0,0-.09636-.14732-.267-.38754l.01163-.02289a1.67125,1.67125,0,0,1,1.00954-.52715,24.11694,24.11694,0,0,0,1.36419,3.09048c.5265.80917,2.90459,1.44515,2.90459,1.44515l.15118-.11207s.0828-2.46027-.53837-3.19926a24.11585,24.11585,0,0,0-2.56044-2.20369c.16583-.2943.45715-.72083.79783-.81267l.02533-.00447c.18024.23313.29316.36812.29316.36812.702,1.07885,2.58393,2.23259,3.40127,1.027s-.1706-2.47238-.51863-2.41429.34064,1.64662-1.434,1.36294a1.39208,1.39208,0,0,1-.77568-.44466c.12355-.05127.19824-.151.17795-.36166-.05483-.56907.07032-1.35955-1.03881-1.28194a7.03729,7.03729,0,0,1-.35115-2.83526c.19593-.39515,1.7853.82552,3.21566.31494S97.26464,50.54858,96.89366,50.7736Z"/>
        <path class="cls-1" d="M74.04164,25.59029c-.27635.33449-.35352,1.08967-1.38218.53169s-3.70542-2.19091-4.91062-1.63372-1.02766,2.57877.7314,4.77461a16.28355,16.28355,0,0,0,2.76023,2.62136,2.86039,2.86039,0,0,0-.3184,1.42253c-1.41151-1.28437-5.57011-6.4234-7.16344-7.06067a29.99107,29.99107,0,0,0-5.64036-1.13285l-.23855.35027a29.991,29.991,0,0,0,3.12014,4.83341c1.1766,1.24916,7.48173,3.23635,9.19386,4.07931a2.86022,2.86022,0,0,0-1.207.81733,16.28317,16.28317,0,0,0-3.45025-1.60818c-2.68756-.83249-4.63368-.25725-4.71068,1.06834-.077,1.32553,2.42291,3.21813,3.31892,3.97088s.22154,1.10123.01154,1.48087,1.60372.56954,2.05666-.88013-.83039-2.98886-.44339-3.20045a7.03647,7.03647,0,0,1,2.847.23737c-.03315,1.11135.75168.95467,1.32249.98668.21133.01184.308-.06678.35425-.19228a1.39211,1.39211,0,0,1,.47535.75726c.35445,1.76195-1.26034,1.13737-1.30446,1.48745s1.26112,1.28653,2.43311.42159-.05619-2.69919-1.16226-3.35744c0,0-.13944-.10746-.37959-.27822l.00346-.02543c.07815-.34411.4927-.6523.78011-.82975a24.11662,24.11662,0,0,0,2.30439,2.4702c.76326.59109,3.21825.4099,3.21825.4099l.10593-.15554s-.73065-2.35073-1.56024-2.84443a24.11606,24.11606,0,0,0-3.1426-1.23942A1.67122,1.67122,0,0,1,72.551,32.843l.02245-.01255c.24686.16092.39789.25128.39789.25128,1.01765.78809,3.17428,1.259,3.54982-.14832s-.97393-2.27886-1.28351-2.10958.863,1.4431-.90626,1.75863a1.39207,1.39207,0,0,1-.87875-.16492.30444.30444,0,0,0,.04916-.40006c-.23887-.51942-.38055-1.3071-1.40252-.86917a7.03719,7.03719,0,0,1-1.26375-2.5622c.05513-.43761,1.95746.19269,3.14045-.75975S74.318,25.25582,74.04164,25.59029Z"/>
        <path class="cls-1" d="M42.55554,9.4743c-.1242.41573.09893,1.14131-1.06583,1.02816s-4.2662-.57423-5.15911.40847.05819,2.77538,2.53373,4.11243a16.28422,16.28422,0,0,0,3.5634,1.3389,2.86012,2.86012,0,0,0,.261,1.43417c-1.80037-.633-7.63249-3.74585-9.34819-3.712a29.99058,29.99058,0,0,0-5.63607,1.15406l-.08324.41553a29.99071,29.99071,0,0,0,4.75665,3.236c1.57029.69208,8.15143.06587,10.05669.17521a2.86029,2.86029,0,0,0-.79324,1.223,16.28353,16.28353,0,0,0-3.80417-.137c-2.79954.28033-4.3678,1.5683-3.92228,2.81915S37.4,24.99029,38.51852,25.33449s.633.92791.58755,1.35937,1.69889-.10024,1.55128-1.61184-1.9292-2.4292-1.65521-2.77484a7.03645,7.03645,0,0,1,2.71458-.89055c.40244,1.03646,1.06422.58639,1.6024.39349.19924-.07142.25762-.18148.25135-.31509a1.392,1.392,0,0,1,.73281.51224c1.01288,1.48464-.71765,1.53851-.6219,1.87812s1.66269.69357,2.40511-.55962-1.10332-2.464-2.37844-2.63937c0,0-.17028-.04465-.458-.10835l-.00672-.02478a1.6712,1.6712,0,0,1,.39522-1.06811,24.11566,24.11566,0,0,0,3.08467,1.37727c.93324.247,3.12367-.87626,3.12367-.87626l.037-.18452s-1.58873-1.88035-2.54511-2.01185a24.117,24.117,0,0,0-3.37716.08282,1.6712,1.6712,0,0,1,.04669-1.13789l.01579-.0203c.29005.052.46435.07641.46435.07641,1.24427.32936,3.414-.07713,3.21157-1.51956s-1.7848-1.71938-2.004-1.44286,1.35706.99285-.14952,1.97275a1.39214,1.39214,0,0,1-.87357.19045.30445.30445,0,0,0-.11058-.3876c-.42236-.38532-.85972-1.05557-1.63033-.2541a7.0375,7.0375,0,0,1-2.1621-1.86742c-.1197-.42451,1.87788-.58514,2.59634-1.9232S42.67978,9.05859,42.55554,9.4743Z"/>
      </g>
      <path class="cls-9" d="M18.31046,5.08158V120.30749A16.46087,16.46087,0,0,0,34.7713,136.76833H64.23188c7.56266.81407,10.736,8.15009,10.736,8.15009h.06426s3.17329-7.336,10.736-8.15009H115.2287a16.46087,16.46087,0,0,0,16.46084-16.46084V5.08158Z"/>
      <polygon class="cls-8" points="79.266 92.189 79.266 88.154 75.231 88.154 75.231 90.804 72.701 90.804 72.701 88.154 68.667 88.154 68.667 90.804 66.137 90.804 66.137 88.154 62.102 88.154 62.102 90.804 58.79 90.804 58.79 88.092 46.505 88.092 46.505 90.804 43.192 90.804 43.192 88.154 39.158 88.154 39.158 90.804 36.628 90.804 36.628 88.154 32.593 88.154 32.593 90.804 30.064 90.804 30.064 88.154 26.029 88.154 26.029 92.189 28.498 92.189 28.498 94.929 26.029 94.929 26.029 98.964 28.498 98.964 28.498 101.704 26.029 101.704 26.029 105.739 30.064 105.739 30.064 103.089 32.593 103.089 32.593 105.739 36.628 105.739 36.628 103.089 39.158 103.089 39.158 105.739 43.192 105.739 43.192 103.089 46.505 103.089 46.505 106.401 43.855 106.401 43.855 110.436 46.505 110.436 46.505 112.966 43.855 112.966 43.855 117.001 46.505 117.001 46.505 119.53 43.855 119.53 43.855 123.565 47.89 123.565 47.89 121.096 50.63 121.096 50.63 123.565 54.665 123.565 54.665 121.096 57.405 121.096 57.405 123.565 61.44 123.565 61.44 119.53 58.79 119.53 58.79 117.001 61.44 117.001 61.44 112.966 58.79 112.966 58.79 110.436 61.44 110.436 61.44 106.401 58.79 106.401 58.79 103.089 62.102 103.089 62.102 105.739 66.137 105.739 66.137 103.089 68.667 103.089 68.667 105.739 72.701 105.739 72.701 103.089 75.231 103.089 75.231 105.739 79.266 105.739 79.266 101.704 76.797 101.704 76.797 98.964 79.266 98.964 79.266 94.929 76.797 94.929 76.797 92.189 79.266 92.189"/>
    </g>
  </g>
</svg>
