<svg id="allies_tunisia_engineer_2_icon" data-name="allies tunisia engineer 2 icon" xmlns="http://www.w3.org/2000/svg" width="150" height="150" viewBox="0 0 150 150">
  <defs>
    <style>
      .cls-1 {
        fill: #222020;
      }

      .cls-1, .cls-2 {
        fill-rule: evenodd;
      }

      .cls-2, .cls-3 {
        fill: #be1e1e;
      }
    </style>
  </defs>
  <path id="Shape_281_copy" data-name="Shape 281 copy" class="cls-1" d="M77.613,1.686H72.387S47,1.915,37.847,8.548s-7.09,12.581-5.49,13.5,6.176,1.83,7.549,3.66,1.6,3.2.457,4.346S20.235,45.147,13.6,66.877C7,88.485,11.259,148.314,69.333,148.314c.328,0,.663,0,.995-.006h9.343c.335,0,.663.006.995.006,58.063,0,62.329-59.831,55.733-81.437-6.633-21.73-25.618-35.683-26.762-36.827s-.915-2.516.457-4.346,5.948-2.745,7.549-3.66,3.66-6.862-5.49-13.5-34.54-6.862-34.54-6.862"/>
  <path id="Shape_281_copy_2" data-name="Shape 281 copy 2" class="cls-2" d="M88.759,60.014a18.639,18.639,0,0,1-12.167,5.194c-.229,0-.352-.009-.352-.009H73.65s-.123.009-.352.009a18.64,18.64,0,0,1-12.167-5.194l-9.209,15.4s.72,2.135.288,2.9-6.044,3.964-6.044,3.964l-.576,9.608s3.951-5.2,8.14-5.2a3.4082,3.4082,0,0,1,.35.012c4.317.305,5.468,5.185,4.605,7.777s-9.21,11.284-9.21,11.284,6.907,5.185,9.065,10.675,3.31,10.674,2.878,14.334-2.447,5.948-1.152,7.472a1.359,1.359,0,0,0,1.092.425c1.841,0,4.892-2.01,5.816-2.255a7.786,7.786,0,0,1,1.943-.439,2.084,2.084,0,0,1,1.8,1.049c1.151,1.678,1.726,2.9,3.741,3.2h.576c2.014-.305,2.59-1.525,3.741-3.2a2.084,2.084,0,0,1,1.8-1.049,7.791,7.791,0,0,1,1.944.439c.923.245,3.974,2.255,5.815,2.255a1.35906,1.35906,0,0,0,1.092-.425c1.295-1.524-.72-3.812-1.151-7.472s.719-8.844,2.878-14.334,9.065-10.675,9.065-10.675-8.345-8.692-9.209-11.284.287-7.472,4.6-7.777c.117-.008.234-.012.35-.012,4.189,0,8.14,5.2,8.14,5.2l-.576-9.608s-5.612-3.2-6.044-3.964.288-2.9.288-2.9l-9.21-15.4m12.948-28.363s6.253,11.741,2.135,18.909A19.093,19.093,0,0,1,93.015,59.4l8.54,11.437S116.8,62.607,115.432,49.8s-13.725-18.146-13.725-18.146m-52.827,0S36.527,36.989,35.155,49.8,49.032,70.842,49.032,70.842L57.571,59.4a19.091,19.091,0,0,1-10.826-8.84c-4.117-7.168,2.135-18.909,2.135-18.909"/>
  <path class="cls-3" d="M46.166,82.278s-3.73774,14.80522,3.309,23.481S67.73913,91.21739,67.73913,91.21739,67.63636,79.86035,46.166,82.278Z"/>
  <path class="cls-3" d="M103.79218,82.278s3.73775,14.80522-3.309,23.481S82.21906,91.21739,82.21906,91.21739,82.32183,79.86035,103.79218,82.278Z"/>
  <path class="cls-1" d="M86.26087,97.45469S87.7592,90.862,95.55051,86.36706C95.55051,86.36706,103.04215,97.75435,86.26087,97.45469Z"/>
  <path class="cls-1" d="M64.087,97.45469S62.58863,90.862,54.79732,86.36706C54.79732,86.36706,47.30568,97.75435,64.087,97.45469Z"/>
  <path class="cls-2" d="M60.17391,120.95652s1.70556,8.92732,1.24409,9.81149-2.8093,6.36242-2.0267,8.18851,7.04348,6.26087,15.65218,5.73913,9.3913-10.17391,7.82609-14.087S60.17391,120.95652,60.17391,120.95652Z"/>
  <path class="cls-2" d="M88.57714,120.95652s-1.70556,8.92732-1.24409,9.81149,2.8093,6.36242,2.0267,8.18851-7.04348,6.26087-15.65218,5.73913-9.3913-10.17391-7.82608-14.087S88.57714,120.95652,88.57714,120.95652Z"/>
  <path class="cls-1" d="M79.73913,140s2.56842-5.61478,5.32769-4.11174S83.913,140.52174,79.73913,140Z"/>
  <path class="cls-1" d="M69.2943,140s-2.56843-5.61478-5.32769-4.11174S65.12038,140.52174,69.2943,140Z"/>
</svg>
