<svg xmlns="http://www.w3.org/2000/svg" width="150" height="150" viewBox="0 0 150 150">
  <defs>
    <style>
      .cls-1 {
        fill: #2e3192;
      }

      .cls-2, .cls-4 {
        fill: #f2f2f2;
      }

      .cls-3 {
        fill: #fcd121;
      }

      .cls-4 {
        stroke: #151515;
        stroke-linecap: round;
        stroke-linejoin: round;
      }

      .cls-4, .cls-6 {
        fill-rule: evenodd;
      }

      .cls-5 {
        fill: #c1272d;
      }

      .cls-6 {
        fill: #151515;
      }
    </style>
  </defs>
  <g id="Layer_1" data-name="Layer 1">
    <g id="Layer_2" data-name="Layer 2">
      <g>
        <circle class="cls-1" cx="75" cy="81.52651" r="63.47349"/>
        <path class="cls-2" d="M27.13894,60.53931a32.16768,32.16768,0,0,1-7.67825-22.26692c.76783-13.309,10.23766-26.87385,30.713-27.89762S72.69653,37.24863,72.69653,37.24863,83.958,39.808,84.72578,48.51005c0,0,3.07129-1.2797,6.91042,2.81536s12.02925,10.74954,13.053,22.52286,3.32724,17.404,7.42231,23.03474,10.4936,19.19561,2.55941,25.59415-37.36745.25594-41.20658.25594-9.98172,1.02377-12.54113,2.55941-8.44607,1.53565-12.28519-2.55941-5.88666-7.16636-7.42231-7.4223-6.91042-.76783-12.28519-12.79708S29.9543,73.33638,29.9543,73.33638,24.83547,71.28885,27.13894,60.53931Z"/>
        <polygon class="cls-3" points="104.945 5.768 115.695 5 93.684 33.41 98.547 33.921 47.614 106.097 55.548 105.585 27.651 132.971 22.02 136.81 43.775 110.448 38.4 110.192 87.541 39.808 82.678 39.552 104.945 5.768"/>
        <polygon class="cls-3" points="99.57 43.135 103.665 65.146 96.755 61.307 102.13 103.793 106.225 99.442 111.344 122.221 111.856 119.406 109.04 89.205 105.713 93.044 102.386 69.241 108.528 72.313 106.481 48.254 99.57 43.135"/>
        <polygon class="cls-3" points="81.143 23.94 52.989 42.623 58.62 43.903 42.751 54.909 43.519 49.79 16.389 69.497 37.377 59.004 36.865 63.867 69.113 41.856 65.53 39.808 83.958 27.779 81.143 23.94"/>
        <path class="cls-2" d="M47.83821,72.40859s-.95978.47989-.76783-1.15173,1.05576-2.11152,1.3437-3.26326,1.43967-4.03108,1.7276-5.18281,1.43967-6.52651,2.87934-7.8702,5.66271-1.15174,6.43053-1.63163,12.86106-2.39945,14.78064-2.11152a16.51649,16.51649,0,0,1,3.16726.76783s6.62249,2.49542,8.54206,6.23857a73.35045,73.35045,0,0,1,4.70291,14.10877c.47989,2.59141.95978,6.71847.288,8.44607s-3.45521,5.08684-4.12706,5.2788-8.35009.95978-8.638,1.05577a30.55176,30.55176,0,0,0-2.49542,2.39945,18.85493,18.85493,0,0,1,2.39945,4.319,4.46589,4.46589,0,0,1-.57587,4.319c-1.15174,1.63163-2.78336,2.68739-4.223,5.18282s-6.81444,7.67824-9.02193,8.638-3.64717-2.01554-3.64717-2.01554a5.59561,5.59561,0,0,1-1.82358-3.16727,1.40909,1.40909,0,0,1,0-2.11151,2.53414,2.53414,0,0,1,1.05576-2.20749,1.8116,1.8116,0,0,1,1.15173-1.3437,2.59932,2.59932,0,0,1,0-1.24771c.192-.38391-.95978-.096-.95978-.096a5.45709,5.45709,0,0,1-1.34369.47989,3.57867,3.57867,0,0,1-2.30347.192s-.86381.47989-1.24772.28793a2.80132,2.80132,0,0,1-1.24771-1.7276,22.40825,22.40825,0,0,1,0-3.64717,19.76586,19.76586,0,0,1-.8639-3.74315,11.73351,11.73351,0,0,1-2.78336-2.30346c-.47989-.8638-.57587-4.99086-1.05576-5.37478a1.78112,1.78112,0,0,1-.38391-2.01554c.38391-.47989,1.05576-1.34369,1.05576-1.34369S48.12614,77.87934,47.83821,72.40859Z"/>
      </g>
    </g>
  </g>
  <g id="Layer_2-2" data-name="Layer 2">
    <path class="cls-4" d="M67.24668,102.4463l-.23222-1.07378a3.007,3.007,0,0,1,1.60626.03246q.11463.032.23359.07445a5.492,5.492,0,0,1,1.90129,1.34278l.67335,1.0815s-.13186.38368-.24922.842l-.025-.007a.12.12,0,0,1-.08586-.12774c-.022-.43489-1.83257-1.86864-2.99429-2.19244a1.52673,1.52673,0,0,0-.43958-.06542,1.018,1.018,0,0,0-.3872.08932M75.841,24.10531c-1.12222-.31279-3.0905,2.14914-3.32932,2.73036-.22969.54847-.0342,4.75231-.32993,4.66988a.126.126,0,0,1-.05989-.06445c-.38075-.675-.95529-3.2768-1.19547-3.58458a2.19094,2.19094,0,0,0-.96416-.61547.7.7,0,0,0-.95013.48885c-.39131,1.10968-1.43835,5.451-1.89109,5.32477s-.66785-3.43649-.73479-3.78111-.30179-6.64191-1.46351-6.96571a.36368.36368,0,0,0-.05914-.01129s-2.22621,1.76717-3.11327,6.50288-1.672,9.4999-2.13326,11.542S50.49066,68.03081,49.47662,70.89055s-2.219,7.183.6229,9.81773,6.06629,2.34069,6.2787,3.91762-1.92529,3.79751-2.70842,4.663-5.12049,3.69279-3.447,7.89749c0,0-1.80346,2.09782-1.44079,3.41869s4.527,3.29338,4.527,3.29338a11.09289,11.09289,0,0,1-.58454-2.85268,1.277,1.277,0,0,1,.53364-.74508,2.125,2.125,0,0,0,.63967,2.37183l1.38781-1.4818s4.66923-1.299,6.31569-2.54681a11.528,11.528,0,0,1,5.27391-2.59323c2.71666-.69616,6.7393-2.46507,8.62637-1.9391a1.72775,1.72775,0,0,1,.33091.12753A3.44,3.44,0,0,1,77.61,98.067c-.20612,1.32428-.99187,2.97388-1.88435,2.96908A3.005,3.005,0,0,1,74.352,99.84135a1.413,1.413,0,0,0-1.03536-.66542,4.04285,4.04285,0,0,0-1.5831-.14538,2.33493,2.33493,0,0,0-1.15663.65241,12.48546,12.48546,0,0,0-2.6207-1.17892,3.61437,3.61437,0,0,0-.995-.15482,2.619,2.619,0,0,0-2.52787,1.49,2.144,2.144,0,0,0,.98307,2.30561,10.29961,10.29961,0,0,0,1.35526.64246,3.91794,3.91794,0,0,0-.76222,1.31566s1.18279.22587,1.87828.41972a2.92947,2.92947,0,0,1,.40445.13557,1.312,1.312,0,0,1,.296,1.5452.53.53,0,0,1-.5396.03646,2.85994,2.85994,0,0,1-1.40889-.90448,14.10691,14.10691,0,0,0-4.6659-3.08917,2.049,2.049,0,0,0-2.09537.22881c-.77546-.13413-1.69028,1.39749-1.69028,1.39749a1.60906,1.60906,0,0,1,.79381.01986,2.785,2.785,0,0,1,1.00411.59131,2.60021,2.60021,0,0,0,.68468.49708.32773.32773,0,0,0,.04913.01369.41538.41538,0,0,1,.07.01329,3.66286,3.66286,0,0,1,1.17338,1.06411c-2.2288-.45824-3.37026,1.01125-3.403,1.408a11.254,11.254,0,0,0,1.06763,2.31878,2.026,2.026,0,0,1,.84806-.91594.12307.12307,0,0,1,.04922.02825.30689.30689,0,0,0,.12429.0606,10.61265,10.61265,0,0,0,2.42479-.16295,7.88277,7.88277,0,0,1,1.72919.36985c2.60086.72492,7.10846,2.25536,7.278,2.30262a3.27,3.27,0,0,1,1.31031,1.422,2.554,2.554,0,0,1-1.0815.67336A9.19962,9.19962,0,0,0,74.57,114.743a2.17837,2.17837,0,0,0,.47511.07949,2.235,2.235,0,0,0,2.16807-2.24014c-.06144-1.23588-4.42311-4.24337-4.7606-4.49627a3.09107,3.09107,0,0,1,.24764-1.72277,13.83688,13.83688,0,0,1,2.18122.27888,1.52873,1.52873,0,0,1,.15294.05094,13.44582,13.44582,0,0,1,3.60125,3.11736c.48635.86224.53405,1.29078.01928,1.38711a1.96481,1.96481,0,0,1-.86031-.06435,2.22225,2.22225,0,0,1-.23733-.07965,3.95,3.95,0,0,0,2.04022,1.79779,2.09979,2.09979,0,0,0,.60738.07794c1.63346-.03159,1.878-.61848,1.878-.61848a1.43,1.43,0,0,0,1.5222-.79448c.34846-.95967-.66375-2.86646-2.15418-3.93277a37.70016,37.70016,0,0,0-3.32468-2.0686l.52377-.4229s4.91244-1.88112,5.14772-2.14048-1.27323-.67981-.96379-.91849,6.82019-4.35682,7.27075-4.80013c.34969-.34581-.40832-.60587-.76088-.70414l-.16761-.04672a7.22609,7.22609,0,0,0,1.21345-2.0183.3.3,0,0,0-.25576-.25192,1.72688,1.72688,0,0,0-.64973-.00046s1.73173-1.55,1.53617-2.01037a.312.312,0,0,0-.22168-.1656,1.8711,1.8711,0,0,0-.59255-.01567,1.87553,1.87553,0,0,1-.529.00205.128.128,0,0,1-.11476-.1358c.02915-.39882,2.62081-2.114,2.48737-2.801a.642.642,0,0,0-.5-.50789,1.52,1.52,0,0,0-.56807-.03272s1.92485-1.65808,1.88777-2.40029a1.09,1.09,0,0,0-.6466-1.00241.233.233,0,0,0-.21628.03107c-.19425.168-2.53343,1.96806-3.00351,1.837a.105.105,0,0,1-.07754-.09428c-.07924-.591,4.03559-4.56406,4.4392-5.42739.39332-.84129,1.37665-3.52377,1.10693-3.599a.05215.05215,0,0,0-.02377-.0004,19.29937,19.29937,0,0,1-2.76928.695.07591.07591,0,0,1-.02312-.00644c-.20543-.13823,4.32-3.8339,5.56738-7.1435a.1.1,0,0,0-.07458-.10488,1.29,1.29,0,0,0-.8268.42253c-.90129.69347-4.00582,3.28406-4.3526,3.1874a.04.04,0,0,1-.025-.01838c-.16328-.28947,4.60875-3.99841,5.87543-5.92091,1.24535-1.88692,2.32318-3.74267,1.84277-3.87761l-.02794-.00779c-.51788-.06752-4.92091,4.70867-5.2388,4.62007-.01926-.00537-.02352-.02732-.01171-.0697.27332-.98063,3.46582-4.56093,4.3768-6.66354.83858-1.93593,1.36183-3.47807,1.07863-3.557a.139.139,0,0,0-.09085.01308c-.44274.188-1.6212,1.67108-1.87743,1.59967a.055.055,0,0,1-.02744-.017c-.18422-.21434,5.91192-13.63122,6.73572-16.00209s2.34933-7.55357,2.16991-8.66039a1.657,1.657,0,0,0-1.16037-1.36777,1,1,0,0,0-.56971-.00826c-.53678.17532-1.9547,2.05566-3.75091,5.29327s-3.02732,5.904-6.19834,9.40722A111.39928,111.39928,0,0,1,83.89771,59.75337a4.39418,4.39418,0,0,1-1.279.2124s-.14014-1.82879-.2537-2.58712-1.215-4.97073-1.66776-5.09692-1.15253,1.22244-1.421,1.31058a.149.149,0,0,1-.08678.00592c-.1811-.05048-.15125-.57472.2476-1.74873a41.027,41.027,0,0,0,1.70975-4.96838c.17941-1.20611-.10325-2.38945-.54539-2.51269a.30111.30111,0,0,0-.04624-.01289c-.47368-.051-1.17636,2.76052-1.55709,2.97933a.615.615,0,0,1-.39493.12454c-.09633-.02685-.12728-.13929-.11211-.34268.02888-.39786.52221-7.41194.38371-8.6693-.09717-.8991-.21959-1.26438-.39491-1.31325a.28.28,0,0,0-.237.07929.915.915,0,0,1-.595.36566.34095.34095,0,0,1-.13418-.081c-.25936-.23527.08832-4.68947-.0733-6.44118s-.47465-6.5842-1.57039-6.94359l-.0289-.00805"/>
    <path class="cls-5" d="M54.71116,94.8558c-.20308.72862-.99547,1.65209-1.72408,1.449s-1.11756-1.45581-.91447-2.18443a2.14115,2.14115,0,0,1,2.237-1.10294C55.03818,93.22052,54.91425,94.12719,54.71116,94.8558Z"/>
  </g>
  <g id="Layer_3" data-name="Layer 3">
    <path class="cls-6" d="M69.47015,82.994c-.11792-1.02228-1.60711-1.4-1.91058-.25861-1.228,4.61975-7.16992,2.3227-9.95972.65235-4.50256-2.69587-2.68548-7.66529-1.37408-11.71C59.169,62.60022,62.18085,53.45129,64.22028,44.122c.02124-.09741-.12775-.17511-.17139-.07227-3.517,8.28485-6.25018,16.94056-8.94086,25.52405-1.09033,3.47821-2.95508,7.58429-1.48022,11.218a10.26067,10.26067,0,0,0,3.32025,4.053,1.13459,1.13459,0,0,0-.38568.13214.8985.8985,0,0,0-.50556.54816l-.02758.1452a1.21041,1.21041,0,0,0,.53314,1.31018,8.24112,8.24112,0,0,0,3.4223,1.21429,5.35582,5.35582,0,0,0,.76038.06733q.20745-.02041.41357-.05249-.18411.02416.02258.00317c.20514-.01654.4123-.04712.61536-.077a3.25186,3.25186,0,0,0,1.36176-.418,6.21757,6.21757,0,0,0,3.74414-.60334A4.35822,4.35822,0,0,0,69.47015,82.994Z"/>
    <path class="cls-6" d="M77.07605,79.22632a4.6731,4.6731,0,0,0-3.40558-.3291,4.51748,4.51748,0,0,0-2.69977,1.84771c-.204.28022.19.63746.465.465a7.94962,7.94962,0,0,1,2.60919-.95465,9.19509,9.19509,0,0,1,2.72827.08948C77.40186,80.40088,77.54,79.52191,77.07605,79.22632Z"/>
    <path class="cls-6" d="M81.67035,55.80591c-.00037-.0246-.00769-.05542-.00641-.07855a1.34609,1.34609,0,0,0-.01489-.36194c-.01807-.0918-.04175-.18177-.066-.272l-.11817-.43908c-.08233-.306-.17657-.60309-.28155-.902a3.69417,3.69417,0,0,0-.40137-.98267.58669.58669,0,0,0-.61371-.261,10.65786,10.65786,0,0,0,.22864-1.05884.563.563,0,0,0-1.08478-.29907c-.60748,1.481-.96515,3.0783-1.5473,4.57721-.59979,1.54425-1.29059,3.05377-2.03809,4.53192q-1.05725,2.09079-2.31909,4.06958-.66888,1.04836-1.39325,2.06a3.75443,3.75443,0,0,0-.93487,1.76459.21223.21223,0,0,0,.267.20343,3.0294,3.0294,0,0,0,1.35595-1.22851q.75413-.9918,1.45465-2.02265a46.89431,46.89431,0,0,0,2.64313-4.3883,42.81962,42.81962,0,0,0,1.83008-3.97455c-.00757.21478-.01.4295-.0235.64435a27.17875,27.17875,0,0,1-.85119,5.22839,42.19155,42.19155,0,0,1-4.10138,9.54547c-.13752.2486.20184.53571.4049.31244a21.11724,21.11724,0,0,0,4.728-9.40747,28.724,28.724,0,0,0,.75458-5.19952,23.98307,23.98307,0,0,0,.00744-2.71918c-.012-.19483-.01416-.42175-.02575-.65363.09222-.24426.18176-.48742.2669-.73443.85376,3.3211,1.88794,6.52624,1.77338,10.00824A20.44883,20.44883,0,0,1,78.3916,73.8277c-.22845.36859.31006.798.60736.46863a17.0206,17.0206,0,0,0,4.145-10.37482A15.37067,15.37067,0,0,0,81.67035,55.80591Z"/>
    <path class="cls-6" d="M71.5968,26.11853c-.12866-.60559-1.05-.34839-.92657.25543a41.31311,41.31311,0,0,1,.07763,15.77594,49.23966,49.23966,0,0,1-5.48224,14.56043.1642.1642,0,0,0,.28333.16559C72.09131,48.34735,73.79449,36.45789,71.5968,26.11853Z"/>
    <path class="cls-6" d="M99.9292,58.39984a.90017.90017,0,0,0-1.20416.31574,1.19469,1.19469,0,0,0-.18738.74.71266.71266,0,0,0-.28278.43493,9.983,9.983,0,0,0-.11456,1.77076,2.72991,2.72991,0,0,0-.23914,1.62561c-.08618.374-.18835.74444-.30493,1.10839-.22339.69764-.51855,1.36915-.80469,2.04255a13.9074,13.9074,0,0,1-.921,2.14367.29423.29423,0,0,0,.46015.355c.288-.28759.6004-.56439.89929-.85339a.383.383,0,0,0,.11371.02374,20.15889,20.15889,0,0,1-.72144,2.22461,19.36455,19.36455,0,0,1-2.105,3.95258c-.84411,1.22436-2.11151,2.31738-2.69024,3.68536a.58286.58286,0,0,0,.64849.84351,5.14341,5.14341,0,0,0,2.35779-1.51508c-.05023.27106-.10943.54059-.17846.80689a11.38453,11.38453,0,0,1-1.17133,2.85461,12.57219,12.57219,0,0,1-1.80866,2.42645,21.07844,21.07844,0,0,0-2.32373,2.20728.53047.53047,0,0,0,.45539.79352,5.38977,5.38977,0,0,0,3.05786-1.70124A12.18607,12.18607,0,0,0,95.144,81.93a13.3471,13.3471,0,0,0,1.40662-3.22186A12.30146,12.30146,0,0,0,96.9021,77.036c.10187-.72351.25848-1.44379-.27539-1.97223a19.97905,19.97905,0,0,0,3.3949-8.48675c.102-.68848.16943-1.38037.20764-2.07477.07672-.24182.14709-.48267.20874-.71637a9.534,9.534,0,0,0,.34344-2.62134C100.76141,60.28265,100.7829,58.9057,99.9292,58.39984Z"/>
    <path class="cls-5" d="M66.56522,102.17391S65,101.65217,64.86957,101A1.72542,1.72542,0,0,1,66.5,98.78261a6.57656,6.57656,0,0,1,4.23913,1.43478s.26087-.913,2.02174-.78261,1.69565,1.17392,1.69565,1.17392.39131.913,1.17391.84782.587,3,.587,3l1.76087.26087s-.65217.71739-.26087.97826,3.84783,2.087,4.69565,3.52174,1.43479,2.73913-.26087,2.73913c0,0-2.02174,1.5-3.587-.19565a1.17272,1.17272,0,0,0,.78261-1.5c-.32609-1.17391-3.587-3.587-4.1087-3.913a5.13533,5.13533,0,0,0-2.67391-.39131,3.21442,3.21442,0,0,0-.52174,2.28261s2.93478,2.28261,3.78261,3.06522,1.17391,1.30435.71739,2.087-1.43478,1.63044-3.32609.26087c0,0,.52174-.587.45652-.913a4.5865,4.5865,0,0,0-1.36956-1.63043c-.39131-.19566-8.93478-2.73913-8.93478-2.73913a1.3277,1.3277,0,0,0-.84783.06521A2.44437,2.44437,0,0,1,60.5,108.36957l-.84783.71739s-.913-1.23913-.45652-1.95653,2.413-.587,2.413-.587.97826-.19565.71739-.587-.78261-1.23913-1.36957-1.36956A11.45582,11.45582,0,0,0,59,103.34783s.78261-.587,1.30435-.39131c0,0,.13043-.65217,1.04348-.45652A12.31077,12.31077,0,0,1,65,104.45652a11.02553,11.02553,0,0,0,2.86957,2.15218c.7826.19565,1.17391-.13044,1.17391-.65218s0-1.17391-.39131-1.43478A12.12638,12.12638,0,0,0,66.5,103.86957s.45652-.97827.97826-1.04348a2.46888,2.46888,0,0,1,1.43478.32608,8.09921,8.09921,0,0,1,1.5,1.1087c.26087.32609.29425.774.76669.48484s.60288-.48484.47244-.94136a6.32252,6.32252,0,0,0-1.69565-2.15218,5.30142,5.30142,0,0,0-2.73913-.7826A.95253.95253,0,0,0,66.56522,102.17391Z"/>
    <path class="cls-6" d="M76.62311,39.88477c-.05384-.11078-.19849-.06165-.2356.03076-.766,1.9093-.54309,4.03875-.86236,6.07916a33.66862,33.66862,0,0,1-1.54639,6.03339,36.29114,36.29114,0,0,1-6.50232,11.14715.26971.26971,0,0,0,.38123.38117,29.3885,29.3885,0,0,0,7.24536-11.023,31.4293,31.4293,0,0,0,1.71112-6.5727c.15668-1.05359.26929-2.113.32489-3.17688A5.11534,5.11534,0,0,0,76.62311,39.88477Z"/>
    <path class="cls-6" d="M64.53534,67.97247a.48263.48263,0,0,0-.24585-.18908.39879.39879,0,0,0-.40027.10583c-.4284.51087-.80243,1.063-1.18957,1.60547q-.56681.7944-1.13367,1.58875c-.22943.32153.30475.74017.55218.426q.60343-.76611,1.20685-1.53229c.412-.523.84027-1.03564,1.21033-1.58941A.39963.39963,0,0,0,64.53534,67.97247Z"/>
    <path class="cls-6" d="M68.18134,74.28925a1.02492,1.02492,0,0,0-.52436.26208,6.40486,6.40486,0,0,0-.507.39648c-.34234.285-.69494.55976-1.01147.87336l-.922.91321c-.14856.14715-.30932.28839-.44653.44628-.16046.18476-.29193.4029-.43329.60242-.22546.31818.22638.7768.5451.54517.18207-.13233.37049-.2591.54639-.39948a5.20175,5.20175,0,0,0,.46729-.46582l.92669-.95813c.302-.31219.566-.65838.83991-.9953.13586-.16723.27624-.33081.39526-.51068a1.10209,1.10209,0,0,0,.27637-.55725A.1545.1545,0,0,0,68.18134,74.28925Z"/>
    <path class="cls-6" d="M76.51044,105.6106l-.00733-.05152a2.085,2.085,0,0,0-.19659-.60779,3.253,3.253,0,0,0-.335-.55059,5.97334,5.97334,0,0,0-.9867-1.097,4.68769,4.68769,0,0,0-1.40081-.87994,2.958,2.958,0,0,0-1.36524-.22315,1.55464,1.55464,0,0,0-.56616.07465c-.05145.00653-.10309.01129-.1546.01855-.04279.006-.39228.10407-.24372.069-.17077.04023-.34173.06922-.51074.11859-.41693.12183-.475.81574,0,.90406a3.67583,3.67583,0,0,1,.46668.1217,1.51445,1.51445,0,0,0,.1936.08966l.05072.02014.03583.0163a2.34675,2.34675,0,0,0,.242.1524,9.55714,9.55714,0,0,0,.9209.58857c.14887.10595.30414.19836.45642.29925.06366.04224.125.0874.18726.13159.03381.02832.06817.056.1015.085a4.92821,4.92821,0,0,1,.39081.379c.06048.06555.11767.13379.17566.20154.01135.01471.02215.02985.03271.04474.11163.15759.20758.32294.30286.4906.04461.07849.09234.15595.14373.2301.01862.02686.24323.383.15479.18927-.06958-.15252.01831.01648.04077.04822a1.05378,1.05378,0,0,0,1.15558.47028,1.02847,1.02847,0,0,0,.75122-.9867A1.95967,1.95967,0,0,0,76.51044,105.6106Z"/>
    <path class="cls-6" d="M78.84039,95.28546a3.72567,3.72567,0,0,0-.22705-.9458A3.53953,3.53953,0,0,0,77.348,92.7605a3.08565,3.08565,0,0,0-3.423.1134A3.527,3.527,0,0,0,72.66675,94.251a.24631.24631,0,0,0,.425.24847,2.057,2.057,0,0,1,1.343-.97461,3.08473,3.08473,0,0,1,.81214-.04822,1.44824,1.44824,0,0,1,.33648.05719c.08118.02063.15924.04877.23932.07282.03314.01294.04724.01813.05255.01965.01471.00678.02948.01325.04395.02045.13013.06732.2569.14075.38135.2182.04773.02966.09387.06152.13983.09369.01153.012.09161.07666.10913.093q.08039.075.1543.15649c.02209.02447.04333.04968.06451.07483.074.12152.15753.23468.22327.36212.034.066.06323.13367.09442.20093a.16239.16239,0,0,0,.01507.02856c.00348.01172.00354.01386.013.042a3.82374,3.82374,0,0,1,.12317.42627c.00653.031.02069.14014.02332.14631.00415.04748.009.09491.01086.1427a1.66986,1.66986,0,0,0,.05976.42956c.001.03473.00372.0694.00323.10419q-.00083.0618-.00464.12359c-.00055.00947-.00665.06922-.00921.09931l-.01142.065c-.00879.041-.01727.08185-.02752.1225a1.24718,1.24718,0,0,0-.06147.364.56568.56568,0,0,0,.84351.48407,2.04689,2.04689,0,0,0,.68494-1.20892A1.58868,1.58868,0,0,0,78.84039,95.28546Z"/>
  </g>
</svg>
