<svg id="Layer_1" data-name="Layer 1" xmlns="http://www.w3.org/2000/svg" width="150" height="150" viewBox="0 0 150 150">
  <defs>
    <style>
      .cls-1 {
        fill: #fcc34c;
      }

      .cls-2 {
        fill: #27299c;
      }

      .cls-3 {
        fill: #ed1c24;
      }
    </style>
  </defs>
  <g id="Layer_2" data-name="Layer 2">
    <g>
      <circle class="cls-1" cx="75" cy="75" r="70"/>
      <polygon class="cls-2" points="104.758 24.783 46.461 24.783 74.41 75.592 46.461 126.401 104.758 126.401 76.809 75.592 104.758 24.783"/>
      <path class="cls-3" d="M26.25514,70.108s6.48844,25.95375,34.23212,25.28253c0,0,2.46126-9.84453-4.02731-14.31931A48.67731,48.67731,0,0,1,26.25514,70.108Z"/>
      <path class="cls-3" d="M20.43794,52.8801s4.251,25.0588,34.90331,22.8214c0,0-.67121-11.41072-3.35608-14.31931s-15.438-8.72583-31.54723-25.73A42.43421,42.43421,0,0,0,44.378,65.63322S33.19108,65.63326,20.43794,52.8801Z"/>
      <path class="cls-3" d="M124.25851,70.108s-6.48844,25.95375-34.23212,25.28253c0,0-2.46126-9.84453,4.02731-14.31931A48.67731,48.67731,0,0,0,124.25851,70.108Z"/>
      <path class="cls-3" d="M130.07571,52.8801s-4.251,25.0588-34.90331,22.8214c0,0,.67121-11.41072,3.35608-14.31931s15.438-8.72583,31.54723-25.73a42.43421,42.43421,0,0,1-23.94009,29.981S117.32257,65.63326,130.07571,52.8801Z"/>
    </g>
  </g>
</svg>
