<svg id="usa_normandy_pilot_assaulter_1_icon" data-name="usa normandy pilot assaulter 1 icon" xmlns="http://www.w3.org/2000/svg" width="150" height="150" viewBox="0 0 150 150">
  <defs>
    <style>
      .cls-1 {
        fill: #151515;
      }

      .cls-1, .cls-10, .cls-11, .cls-2, .cls-3, .cls-4, .cls-5, .cls-6, .cls-7, .cls-8, .cls-9 {
        fill-rule: evenodd;
      }

      .cls-2 {
        fill: #207178;
      }

      .cls-3 {
        fill: #5a9499;
      }

      .cls-4 {
        fill: #23315a;
      }

      .cls-5 {
        fill: #d44459;
      }

      .cls-6 {
        fill: #dbbd91;
      }

      .cls-7 {
        fill: #f2e7e6;
      }

      .cls-8 {
        fill: #df2a2a;
      }

      .cls-9 {
        fill: #face48;
      }

      .cls-10 {
        fill: #d79e53;
      }

      .cls-11 {
        fill: #723d37;
      }
    </style>
  </defs>
  <path class="cls-1" d="M75,22.944A52.056,52.056,0,1,0,127.056,75h0A52.056,52.056,0,0,0,75,22.944"/>
  <path id="Shape_157_copy_2" data-name="Shape 157 copy 2" class="cls-2" d="M106.131,88.787l-3.156,5.15-1.412-3.156s-2.03039-4.25927-1.73691-6.118L122.662,69.93l-4.32,12.128Zm-7.725,24.09L53.384,136.8a19.553,19.553,0,0,1-6.554,1.27,10.884,10.884,0,0,1-10.558-7.583c-3.987-10.3,2.991-14.786,2.991-14.786l10.3-6.646S89.707,90.943,91.554,90.943a.153.153,0,0,1,.041,0c1.163.331,8.306,1.827,8.306,1.827,2.824,4.154,3.655,10.8,3.655,10.8A13.966,13.966,0,0,1,98.406,112.877Zm33.808-22.346-20.933,12.128-4.153.5-2.243-5.649,15.45-9.138Z"/>
  <path class="cls-3" d="M39.333,125.5a6.053,6.053,0,0,1,1.833-6.167c3-2.833,32.333-15,32.333-15s22-11,23-9.5S90.167,105,88,106.667s-38.167,19-40,19.833S41,126.5,39.333,125.5Z"/>
  <path id="Shape_157_copy_3" data-name="Shape 157 copy 3" class="cls-4" d="M121,89.369l-12.875,8.556-3.074.083-1.412-3.489,3.323-4.983L124.655,79.9ZM51.466,135.141c-8.565,1-11.3-2.412-11.3-2.412,5.565-.83,13.466-4.406,13.965-4.572s28.492-14.45,35.968-18.6a61.66254,61.66254,0,0,0,11.214-7.641c-.083,5.731-4.98,10.05-4.98,10.05Z"/>
  <path id="Shape_157_copy_4" data-name="Shape 157 copy 4" class="cls-5" d="M97.16,91.694s5.067,7.643,6.4,12.876l3.156-1.661a31.19992,31.19992,0,0,0-5.4-12.128S98.572,92.027,97.16,91.694Z"/>
  <path id="Shape_157_copy" data-name="Shape 157 copy" class="cls-6" d="M33.115,126.583l3.572-2.327a19.4838,19.4838,0,0,1,1.246,5.234l3.655-1.744a14.80516,14.80516,0,0,1,.664,4.983l-3.9-.664a12.1309,12.1309,0,0,1,2.326,4.236l-2.824,1.661s-1.08-4.983-1.412-5.233l-3.655,2.741-1-3.9,3.9-1.412A16.73582,16.73582,0,0,0,33.115,126.583Z"/>
  <path class="cls-1" d="M81.245,77.988a3.80014,3.80014,0,0,1-.856.307L42.413,100.22a2.8,2.8,0,0,1-.8.634c-1.688.884-3.965-.134-5.087-2.275a5.5309,5.5309,0,0,1-.275-.624,5.47427,5.47427,0,0,1-.64-.955c-1.122-2.141-.663-4.593,1.025-5.477a2.786,2.786,0,0,1,1.017-.3L75.193,69.55a3.8,3.8,0,0,1,1.2-.952,4.23,4.23,0,0,1,5.6,2.076,4.74265,4.74265,0,0,1,.246.595,4.68052,4.68052,0,0,1,.668.983A4.23,4.23,0,0,1,81.245,77.988Zm-24.983-.979L27.817,92.317a2.77889,2.77889,0,0,1-.822.606c-1.717.827-3.959-.268-5.007-2.446a5.5353,5.5353,0,0,1-.254-.633,5.46066,5.46066,0,0,1-.606-.975c-1.049-2.177-.507-4.613,1.21-5.44a2.785,2.785,0,0,1,1.027-.268l28-15.071a3.8,3.8,0,0,1,1.229-.911,4.23,4.23,0,0,1,5.528,2.264,4.73625,4.73625,0,0,1,.225.6,4.68024,4.68024,0,0,1,.634,1.006,4.23,4.23,0,0,1-1.854,5.679A3.79192,3.79192,0,0,1,56.262,77.009Z"/>
  <path id="Shape_163_copy" data-name="Shape 163 copy" class="cls-1" d="M82.245,78.988a3.80014,3.80014,0,0,1-.856.307L43.413,101.22a2.8,2.8,0,0,1-.8.634c-1.688.884-3.965-.134-5.087-2.275a5.5309,5.5309,0,0,1-.275-.624,5.47427,5.47427,0,0,1-.64-.955c-1.122-2.141-.663-4.593,1.025-5.477a2.786,2.786,0,0,1,1.017-.3L76.193,70.55a3.8,3.8,0,0,1,1.2-.952,4.23,4.23,0,0,1,5.6,2.076,4.74265,4.74265,0,0,1,.246.595,4.68052,4.68052,0,0,1,.668.983A4.23,4.23,0,0,1,82.245,78.988Zm-24.983-.979L28.817,93.317a2.77889,2.77889,0,0,1-.822.606c-1.717.827-3.959-.268-5.007-2.446a5.5353,5.5353,0,0,1-.254-.633,5.46066,5.46066,0,0,1-.606-.975c-1.049-2.177-.507-4.613,1.21-5.44a2.785,2.785,0,0,1,1.027-.268l28-15.071a3.8,3.8,0,0,1,1.229-.911,4.23,4.23,0,0,1,5.528,2.264,4.73625,4.73625,0,0,1,.225.6,4.68024,4.68024,0,0,1,.634,1.006,4.23,4.23,0,0,1-1.854,5.679A3.79192,3.79192,0,0,1,57.262,78.009Z"/>
  <path class="cls-7" d="M79.478,77.662a3.56381,3.56381,0,0,1-.8.288l-.023.014a.724.724,0,0,0-.315-.4,1.076,1.076,0,0,0-1.365.592,1.412,1.412,0,0,0-.193.887l-4.22,2.436a.734.734,0,0,0-.328-.427,1.076,1.076,0,0,0-1.365.593,1.4,1.4,0,0,0-.186.919L66.112,85.2a.729.729,0,0,0-.32-.41,1.076,1.076,0,0,0-1.365.592,1.4,1.4,0,0,0-.19.9l-5.355,3.092a.7.7,0,0,0-.275-.307,1.076,1.076,0,0,0-1.365.592,1.448,1.448,0,0,0-.2.777l-4.657,2.688a.71492.71492,0,0,0-.3-.361,1.076,1.076,0,0,0-1.365.593,1.43109,1.43109,0,0,0-.2.844l-7.532,4.348a2.61294,2.61294,0,0,1-.753.6,2.891,2.891,0,0,1-2.427.061,1.99013,1.99013,0,0,0,.953-.225c1.189-.623,1.512-2.351.722-3.859s-2.4-2.226-3.584-1.6a2.118,2.118,0,0,0-1.018,1.268,3.145,3.145,0,0,1,1.537-2.926,2.622,2.622,0,0,1,.956-.285l4.826-2.79a.66424.66424,0,0,0,.046.156,1.25,1.25,0,0,0,2.182-.978.7.7,0,0,0-.277-.3l3.8-2.2a.671.671,0,0,0,.052.21,1.25,1.25,0,0,0,2.182-.978.71306.71306,0,0,0-.327-.333l4.347-2.51h0a1.25,1.25,0,0,0,2.182-.978.67512.67512,0,0,0-.144-.2l4-2.309a1.25,1.25,0,0,0,2.18-.981.671.671,0,0,0-.142-.2l4.262-2.461a.09743.09743,0,0,0,.01.036,1.25,1.25,0,0,0,2.182-.978.67576.67576,0,0,0-.171-.224l3.144-1.815a.66716.66716,0,0,0,.051.193,1.25,1.25,0,0,0,2.182-.978.782.782,0,0,0-.555-.422,3.50622,3.50622,0,0,1,.381-.227,4.123,4.123,0,0,1,3.711,7.347ZM41.63,91.245a7.682,7.682,0,0,1,2.561,5.976,4.18,4.18,0,0,0-2.561-5.976Zm4.784,1.13A3.966,3.966,0,0,0,43.706,90a7.684,7.684,0,0,1,2.561,5.976A3.966,3.966,0,0,0,46.414,92.375Zm4.465-4.388a1.4125,1.4125,0,1,1,0,.001h0Zm6.368-3.6A1.412,1.412,0,1,0,58.66,85.8a1.412,1.412,0,0,0-1.412-1.412h-.001Zm5.7-3.378a1.93717,1.93717,0,1,0,.004.001Zm5.206-3.1a1.41,1.41,0,1,0,.004,0Zm6.036-3.322a1.22673,1.22673,0,1,0,.006-.001h-.002Zm4.873-2.824a1.16151,1.16151,0,1,0,.004-.001Zm-27.034,6.35a.728.728,0,0,0-.306-.42,1.076,1.076,0,0,0-1.384.546,1.406,1.406,0,0,0-.22.894L44.659,82.04a.7.7,0,0,0-.264-.316,1.076,1.076,0,0,0-1.384.546,1.446,1.446,0,0,0-.226.769L38.04,85.568a.716.716,0,0,0-.287-.371,1.076,1.076,0,0,0-1.384.546,1.431,1.431,0,0,0-.227.837l-7.674,4.091a2.613,2.613,0,0,1-.773.57,2.89,2.89,0,0,1-2.428-.021,1.992,1.992,0,0,0,.96-.192c1.209-.582,1.591-2.3.852-3.832s-2.318-2.305-3.528-1.723a2.118,2.118,0,0,0-1.06,1.233,3.145,3.145,0,0,1,1.635-2.873,2.6212,2.6212,0,0,1,.965-.252l4.919-2.622a.66637.66637,0,0,0,.041.158,1.25,1.25,0,0,0,2.214-.9A.7.7,0,0,0,32,79.9l3.874-2.065a.66684.66684,0,0,0,.045.212,1.25,1.25,0,0,0,2.214-.9.715.715,0,0,0-.316-.344l4.43-2.361h0a1.25,1.25,0,0,0,2.214-.9.67312.67312,0,0,0-.137-.2L48.4,71.157a1.25,1.25,0,0,0,2.212-.906.667.667,0,0,0-.135-.2s1.552-1.1,1.688-1.163a4.123,4.123,0,0,1,3.453,7.464C55.351,76.473,52.028,78.113,52.028,78.113Zm-24.674,5.21a7.683,7.683,0,0,1,2.358,6.059,4.18,4.18,0,0,0-2.358-6.059ZM32.1,84.614a3.966,3.966,0,0,0-2.625-2.467,7.684,7.684,0,0,1,2.358,6.059A3.965,3.965,0,0,0,32.1,84.614Zm4.611-4.234a1.06352,1.06352,0,1,1-.00054.00107L36.708,80.381ZM43.2,77a1.41155,1.41155,0,1,0,.0006,0Zm5.815-3.183a1.032,1.032,0,1,0,.00146-.00079L49.01,73.816Z"/>
  <path class="cls-8" d="M35.817,106.723l.332-2.436-5.649,6.2,1.108-3.655-8.971,5.316,1.218-3.433-13.623,7.2,10.633-10.189-7.2.664,7.974-4.762-4.652.443c2.437-1.662,9.747-5.1,9.747-5.1l.332-1.994a13.912,13.912,0,0,1,10.19.665A8.345,8.345,0,0,1,35.817,106.723ZM21.486,96.251l-5.855,6.007,1.231-3.615-5.146,3.009,1.334-3.39-11.816,5.19,8.929-8.28-7.217.42,8.131-4.49-4.664.285a33.62812,33.62812,0,0,1,5.914-2.762l.4-1.981a13.912,13.912,0,0,1,10.161,1.009,8.345,8.345,0,0,1-1.814,11.02Z"/>
  <path class="cls-9" d="M35.566,99.077l-1,2.707-5.515,3.409,2.507-2.306L13.21,114.417l7.921-6.818-6.317,3.51,4.913-4.211-8.422,3.91,5.815-3.71L6.991,112.011S26.843,98.375,28.247,97.974a13.54982,13.54982,0,0,1,4.311.1l2.206.2-3.208,2.607ZM19.987,93.716l-5.627,3.22,2.583-2.22-14.728,8.9,8.147-6.545L2.931,99.566l4.441-3.93L1.954,97.243s10.233-7,11.65-7.349,4.305-1.154,4.305-1.154l2.4,1.475-3.295,2.5,4.069-1.668Z"/>
  <path class="cls-1" d="M62.677,89.288s1.08,1.911,1.412,1.412.831-1.329,1.246-1.246,1.246.831,2.077.665,1.661-3.157,1.911-4.9l-6.064,3.24Z"/>
  <path id="Shape_157_copy_8" data-name="Shape 157 copy 8" class="cls-10" d="M57.7543,64.544s-5.65755-1.43021-6.105-6.082,5.3692-9.84677,13.49213-17.83826,24.835-23.3141,24.835-23.3141,1.36388-2.46815,1.98211-1.04322-1.24944,5.836-2.39338,6.93242c0,0,.75338,3.84309-4.91459,12.15151,0,0,3.141,4.301-5.79121,14.68391,0,0,2.18339,3.22732-2.65018,8.54786,0,0,1.9168,4.49246-.0203,6.33964a17.85587,17.85587,0,0,1-3.0133,2.45723,10.47613,10.47613,0,0,1-1.89385,5.00156c-1.582,1.84206-5.4333,2.24672-7.15833,1.6723S59.33407,72.08715,57.76,64.542"/>
  <path id="Shape_157_copy_7" data-name="Shape 157 copy 7" class="cls-11" d="M91.51549,14.97634c-.97913-.04749-1.78462,1.05384-2.216,1.80035-1.3976,1.28327-17.0413,15.65122-24.75917,23.24q-1.074,1.05721-2.09407,2.05012c-7.2827,7.12056-12.09265,11.825-11.645,16.47143.41942,4.35867,4.71488,6.165,6.229,6.66887,1.6063,7.14214,4.64975,8.92931,6.81984,9.65046a9.461,9.461,0,0,0,5.45551-.2742,6.04991,6.04991,0,0,0,2.614-1.652,10.751,10.751,0,0,0,2.04022-5.05256A22.60686,22.60686,0,0,0,76.77,65.53468c1.94022-1.85038.91107-5.41207.4122-6.7801,3.67986-4.26731,3.14967-7.34523,2.67492-8.58929,7.20139-8.55147,6.38815-13.21981,5.76784-14.751,4.51555-6.76217,4.85291-10.65384,4.81049-11.92145,1.28774-1.59552,3.03876-5.83993,2.29786-7.56523a1.4,1.4,0,0,0-1.21813-.95223m-1.22626,3.19748c-.645,1.36735-2.813,5.01683-9.9271,12.749-6.80337,7.393-10.83033,11.32061-12.64949,13.0261a16.52138,16.52138,0,0,0-.93073-3.74424c7.74135-7.53662,21.47184-20.16207,23.50732-22.03082M70.63261,71.82731c-1.29185,1.50164-4.70381,1.93326-6.248,1.42186-1.26818-.4212-4.24136-1.40791-5.79835-8.87963l-.11041-.51749-.51252-.13064c-.05015-.01324-5.08625-1.3497-5.471-5.34135-.36937-3.83816,4.45935-8.5587,11.143-15.09462q.87695-.85673,1.79942-1.76214a16.045,16.045,0,0,1-1.62363,13.04127l-.34255.58211.4911.46427c.03332.03181,3.31462,3.17946,1.92525,5.72639l-.51135.93955,1.03043.28589a1.83,1.83,0,0,1,1.12824,1.06509,5.52291,5.52291,0,0,1-.51088,2.91646L66.414,67.98326l1.53745-.27093c.02833-.00987,3.05791-.4904,4.11381,1.0023a7.91305,7.91305,0,0,1-1.43137,3.11328m4.96519-7.51713a17.80771,17.80771,0,0,1-2.84545,2.33414l-.27526.15521a6.344,6.344,0,0,0-3.45793-.86442,6.80042,6.80042,0,0,0,.26458-1.97607c.13314-.04639.28494-.094.44264-.14893a17.41815,17.41815,0,0,0,6.1251-3.6166c.37409,1.37762.63206,3.26692-.26066,4.11486m-.02181-6.29638-.36807.40251.00428.01227a15.573,15.573,0,0,1-6.4469,3.90875,3.53214,3.53214,0,0,0-1.04046-1.00461,4.63093,4.63093,0,0,0,.14922-2.064c1.4387-.65163,5.29274-2.70181,10.56751-7.88062.207,1.16261.03186,3.43475-2.86748,6.62637m3.44717-9.48208a.83585.83585,0,0,0-.33867.2133c-5.54159,5.7716-9.70223,8.115-11.27836,8.87062a10.66108,10.66108,0,0,0-1.80469-2.74824c.18765-.34283.356-.68318.51594-1.02057l.0549-.0096.23609-.12779c.54029-.41275,12.39406-9.50714,17.89517-16.58939.1731,1.76428-.38154,5.42137-5.28416,11.413m5.32747-14.246a.8419.8419,0,0,0-.28358.26506c-3.57408,5.44931-12.87075,13.17519-16.8446,16.35255a17.40693,17.40693,0,0,0,.64817-4.78676c.94131-.83309,5.05866-4.60157,13.7511-14.04952,3.29348-3.58309,5.56451-6.32283,7.13124-8.40631.006,1.005-.32771,4.4665-4.40427,10.62248"/>
  <path id="Shape_157_copy_8-2" data-name="Shape 157 copy 8" class="cls-10" d="M75.29754,75.79872s-6.24542-4.11746-4.82507-9.93728,10.65259-9.65527,23.85614-15.90325S134.22515,32.2103,134.22515,32.2103s2.692-2.41253,2.8394-.42687-3.97389,6.53768-5.8211,7.38245c0,0-.70889,4.96992-11.07432,12.637,0,0,1.98822,6.53128-13.20356,15.33279,0,0,1.2819,4.82763-6.8133,9.22968,0,0,.42559,6.24669-2.6984,7.66575a22.88785,22.88785,0,0,1-4.68406,1.70365,13.42923,13.42923,0,0,1-4.402,5.25579c-2.692,1.56263-7.52475.42815-9.37068-.99476s-4.96864-4.39948-3.69186-14.197"/>
  <path id="Shape_157_copy_7-2" data-name="Shape 157 copy 7" class="cls-11" d="M137.07226,30.03492c-1.16524-.47046-2.60482.523-3.4419,1.24472-2.23307.964-27.2301,11.75886-39.77348,17.69021q-1.74594.82683-3.3996,1.59853c-11.81911,5.54806-19.62587,9.21429-21.04365,15.0277-1.33062,5.4532,3.10732,9.45145,4.72764,10.7-1.06782,9.32326,1.86261,12.77029,4.1854,14.55853a12.12806,12.12806,0,0,0,6.71971,1.969,7.75542,7.75542,0,0,0,3.86109-.89732,13.78174,13.78174,0,0,0,4.60073-5.25579,28.98006,28.98006,0,0,0,4.39051-1.65237c3.12911-1.42163,3.38549-6.16721,3.35858-8.03366,6.25438-3.61367,6.91071-7.5632,6.86072-9.26941,12.32418-7.31452,13.30867-13.30867,13.20355-15.42381,8.31824-6.28131,10.368-10.85,10.85127-12.40237,2.23178-1.3883,6.14158-5.78778,5.97237-8.18877a1.79469,1.79469,0,0,0-1.073-1.66647m-2.833,3.35344c-1.35754,1.38317-5.52115,4.8866-17.39409,11.24611-11.35378,6.08-17.88505,9.13609-20.8065,10.43337a21.17941,21.17941,0,0,0,.4525-4.925c12.5498-5.85828,34.49591-15.35074,37.74809-16.75442M87.81526,90.047c-2.19717,1.27292-6.50949.35637-8.16313-.914-1.35753-1.04475-4.54048-3.49318-3.274-13.19459l.08461-.673-.56532-.37431c-.05512-.03718-5.5878-3.779-4.37-8.77332,1.17166-4.802,9.00791-8.47976,19.85533-13.57275q1.42292-.66723,2.92145-1.3742a20.56808,20.56808,0,0,1-7.46578,15.10206l-.66017.56019.39866.76914c.02693.05256,2.67148,5.24681-.0846,7.74395l-1.01527.92169,1.12679.78068a2.34593,2.34593,0,0,1,.91655,1.76518,7.08,7.08,0,0,1-1.8485,3.315l-1.34211,1.4857,1.9754.32048c.03846,0,3.90852.69607,4.55715,2.94837a10.14374,10.14374,0,0,1-3.04579,3.165m9.181-7.00557a22.82711,22.82711,0,0,1-4.429,1.62544l-.39866.07179a8.13245,8.13245,0,0,0-3.82135-2.50484,8.71708,8.71708,0,0,0,1.15371-2.28049c.18075,0,.38458.0064.59865.0064a22.32813,22.32813,0,0,0,8.94-1.79466c-.12819,1.82543-.61275,4.22129-2.051,4.87122M99.619,75.40646l-.61532.332v.01666A19.96285,19.96285,0,0,1,89.551,77.76771a4.52766,4.52766,0,0,0-.8358-1.65493,5.93671,5.93671,0,0,0,1.05116-2.43561c2.01642-.182,7.54654-1.03834,16.116-5.08273-.23971,1.4947-1.41009,4.1713-6.26592,6.812M107.78855,65.382a1.07146,1.07146,0,0,0-.49994.11537c-9.1425,4.64944-15.16743,5.73137-17.39409,5.98134a13.66624,13.66624,0,0,0-1.02552-4.088c.37175-.33586.71914-.67684,1.055-1.01782l.07051.01153.3397-.05512c.82811-.27176,19.01313-6.2813,28.65941-12.53441-.53456,2.20871-2.74839,6.40181-11.21021,11.58709M120.2409,50.38379a1.07935,1.07935,0,0,0-.45507.20126C113.161,55.67419,98.6486,61.1056,92.498,63.27585a22.31431,22.31431,0,0,0,2.80351-5.52113c1.49085-.61147,8.06443-3.43678,22.57168-11.20765,5.49807-2.94837,9.40274-5.30706,12.178-7.16838-.41661,1.21909-2.28051,5.26861-9.81166,11.00126"/>
</svg>
