<svg id="Layer_1" data-name="Layer 1" xmlns="http://www.w3.org/2000/svg" width="150" height="150" viewBox="0 0 150 150">
  <defs>
    <style>
      .cls-1 {
        fill: gray;
      }

      .cls-2 {
        fill: #eee;
      }

      .cls-3 {
        fill: #35379c;
      }

      .cls-4 {
        fill: #151515;
      }

      .cls-5 {
        fill: #c1272d;
      }
    </style>
  </defs>
  <g id="Layer_5" data-name="Layer 5">
    <g>
      <path class="cls-1" d="M21.62282,102.76641l.58794,4.99745s.73492,5.43841,1.46983,6.32032,21.94883,16.90317,51.17451,17.05014,51.50335-15.65748,52.12322-17.60318c0,0,.47292-8.63346,3.33909-11.24241l-4.189-1.874Z"/>
      <path class="cls-2" d="M140.56952,111.87941c.33072-1.76384,1.2126-5.73239-.11022-7.93717-1.32287-2.20472-6.945-4.40943-10.14189-1.65352s-2.97644,8.92924-3.85833,11.02377-5.32817,5.62214-18.40976,11.02384c-13.58541,5.6097-29.8377,6.798-29.8377,6.798H71.78841s-16.25229-1.1883-29.8377-6.798C28.86913,118.93464,24.42287,115.407,23.541,113.3125s-.66141-8.26786-3.85833-11.02377-8.819-.5512-10.14189,1.65352c-1.32283,2.20478-.44094,6.17333-.11022,7.93717a88.05718,88.05718,0,0,1,0,10.80333c-.11025.99206.66142,2.53547,3.85834,2.64566a4.603,4.603,0,0,0,4.29927-2.09446l.00392-.10868,1.537.21955c-.28626,2.7652-.17439,5.85792,1.215,7.82623,2.64569,3.748,25.28123,15.87421,50.85641,15.87421h7.599c25.57519,0,48.21074-12.12618,50.85642-15.87421,1.38893-1.96764,1.50117-5.05891,1.21528-7.82335l1.53684-.21961.00381.10585a4.603,4.603,0,0,0,4.29929,2.09446c3.19691-.11018,3.9686-1.65359,3.85834-2.64565A88.10905,88.10905,0,0,1,140.56952,111.87941Z"/>
      <path class="cls-3" d="M74.56151,129.17426c-4.41176-5.559-8.95283-5.96727-15.094-6.5197a69.343,69.343,0,0,1-17.96069-3.582c-16.502-5.6729-22.154-21.557-21.979-33.436.02531-1.72608.2377-5.68941.50621-10.707.531-9.90749,1.25783-23.47622,1.25783-32.72068A43.75937,43.75937,0,0,0,15.181,19.61744L34.821,5.08909a39.5401,39.5401,0,0,0,19.7341,5.40824A39.19694,39.19694,0,0,0,74.561,4.9895a39.20763,39.20763,0,0,0,20.00646,5.50783,39.54006,39.54006,0,0,0,19.73409-5.40824l19.64,14.52835a43.75935,43.75935,0,0,0-6.11089,22.59145c0,9.24005.72631,22.80329,1.25673,32.70692.26908,5.02473.48146,8.993.50678,10.72019.17552,11.879-5.47538,27.76363-21.9785,33.43653a69.34274,69.34274,0,0,1-17.9607,3.582C83.5138,123.207,78.97273,123.61525,74.56151,129.17426Z"/>
      <path class="cls-2" d="M74.56127,6.62761a41.0189,41.0189,0,0,0,20.006,5.27832,40.7254,40.7254,0,0,0,19.626-5.14475l17.893,13.23592A45.77312,45.77312,0,0,0,126.422,42.209c0,9.27988.72782,22.86788,1.25921,32.7894.26812,5.00581.47989,8.95964.5049,10.65883a38.30357,38.30357,0,0,1-4.0452,17.392,29.10356,29.10356,0,0,1-16.9832,14.69114,68.1148,68.1148,0,0,1-17.62878,3.51146c-5.78171.52017-10.50826.94557-14.96774,5.758-4.45948-4.81247-9.186-5.23787-14.96773-5.758a68.11487,68.11487,0,0,1-17.62879-3.51146,29.10356,29.10356,0,0,1-16.98322-14.69114,38.30385,38.30385,0,0,1-4.04519-17.392c.025-1.69926.23679-5.65337.50493-10.65938.53138-9.92138,1.25919-23.50917,1.25919-32.78885a45.77307,45.77307,0,0,0-5.66433-22.2119L34.929,6.76118a40.72518,40.72518,0,0,0,19.626,5.14475A41.01564,41.01564,0,0,0,74.56127,6.62761m39.83251-3.2223A38.26859,38.26859,0,0,1,94.5673,9.08867,37.408,37.408,0,0,1,74.70813,3.40531h-.294A37.40052,37.40052,0,0,1,54.555,9.08867,38.27465,38.27465,0,0,1,34.72851,3.40531L13.26887,19.27959A41.36367,41.36367,0,0,1,19.88314,42.209c0,13.96353-1.68813,38.26084-1.7638,43.40681-.147,9.99492,4.11553,28.32137,22.92947,34.78867,19.13218,6.57665,25.86918.294,33.21836,10.72981h.58793c7.34922-10.43585,14.08621-4.15316,33.21837-10.72981C126.8874,113.93721,131.15,95.61075,131.003,85.61584c-.07569-5.146-1.7638-29.44329-1.7638-43.40682a41.36366,41.36366,0,0,1,6.61428-22.92943Z"/>
      <path class="cls-4" d="M75.29387,131.61874H73.8286l-.25255-.35875c-4.08548-5.8011-7.93436-5.78714-14.311-6.36048a71.32562,71.32562,0,0,1-18.49057-3.69538C23.13182,115.13892,17.08862,98.23577,17.274,85.603c.02642-1.76955.23936-5.75213.50952-10.79447C18.31284,64.9269,19.038,51.39283,19.038,42.2089a40.93144,40.93144,0,0,0-6.44983-22.428l-.49906-.679L34.6779,2.3913l.48311.28833a36.9605,36.9605,0,0,0,38.76773.03411l.21844-.15351h.827l.21844.153a37.02543,37.02543,0,0,0,38.76884-.03356l.4831-.28833,22.58925,16.71-.4996.67954a40.9315,40.9315,0,0,0-6.44981,22.428c0,9.18008.72465,22.70865,1.25343,32.58642.27071,5.04894.48421,9.037.51006,10.80767.18652,12.63224-5.85612,29.53594-23.49988,35.60115a71.32128,71.32128,0,0,1-18.49057,3.69537c-6.37665.57334-10.22552.55938-14.311,6.36049ZM14.42494,19.47548a42.82232,42.82232,0,0,1,6.30347,22.73341c0,9.22905-.72631,22.789-1.25674,32.69042-.26906,5.02362-.482,8.99189-.50731,10.729-.17773,12.06716,5.57221,28.20658,22.35925,33.97687a69.82964,69.82964,0,0,0,18.0933,3.61062c6.43387.57885,10.74769.96676,15.1446,6.88286,4.39636-5.9161,8.71019-6.304,15.14406-6.88285a69.82973,69.82973,0,0,0,18.09329-3.61062c16.78815-5.77085,22.537-21.90972,22.3587-33.97688-.02531-1.73818-.23825-5.712-.50732-10.74219-.53043-9.89758-1.25618-23.452-1.25618-32.67721a42.82234,42.82234,0,0,1,6.30347-22.73341l-20.357-15.05822a38.74619,38.74619,0,0,1-39.77962-.099,38.74237,38.74237,0,0,1-39.77906.099Z"/>
      <circle class="cls-2" cx="74.56115" cy="29.42146" r="17.05013"/>
      <g>
        <path class="cls-2" d="M128.898,83.3645c-.588-7.64315-.88192-12.78753-.88192-12.78753L90.97613,44.85475V69.842l36.15806,26.31021A28.12265,28.12265,0,0,0,128.898,83.3645Z"/>
        <polygon class="cls-2" points="74.608 58.671 74.561 58.705 74.514 58.671 74.514 58.739 58.146 70.43 58.146 97.328 74.561 87.305 90.976 97.328 90.976 70.43 74.609 58.739 74.608 58.671"/>
        <path class="cls-2" d="M58.14616,44.85475,21.10622,70.577s-.294,5.14439-.88192,12.78755a28.12266,28.12266,0,0,0,1.76381,12.78768L58.14616,69.842Z"/>
      </g>
      <path class="cls-5" d="M78.9498,27.48961H76.39848v-5.2704h8.08408V18.54462H64.63977v3.67459h8.08408v5.2704H70.17249a6.63526,6.63526,0,0,0,0,13.27051H78.9498a6.63526,6.63526,0,1,0,.01662-13.27051ZM66.91787,34.12487a3.258,3.258,0,0,1,3.25462-3.25463h2.55136V37.3795H70.17249A3.258,3.258,0,0,1,66.91787,34.12487ZM78.9498,37.3795H76.39848V30.87024H78.9498a3.25463,3.25463,0,1,1,0,6.50926Z"/>
      <rect class="cls-4" x="130.64148" y="122.49916" width="1.77725" height="1.69023" transform="translate(-14.31753 17.31388) rotate(-7.14352)"/>
      <path class="cls-4" d="M141.68457,111.71068c.39551-2.06347,1.13379-5.90528-.31348-8.3164-.93847-1.5625-3.33593-2.9336-5.83006-3.335a7.13772,7.13772,0,0,0-5.918,1.42382c-2.50586,2.16016-3.127,5.98731-3.58106,8.78711a14.54948,14.54948,0,0,1-.56347,2.62989c-.47266,1.124-3.15723,4.3916-17.835,10.45312-12.70019,5.24413-27.77832,6.583-29.43164,6.71776l-6.3457.002c-.16016-.01172-16.19922-1.22265-29.50976-6.71972-14.67774-6.06153-17.36231-9.32911-17.835-10.45312a14.453,14.453,0,0,1-.56347-2.62989c-.45215-2.79492-1.07227-6.623-3.58106-8.78711a7.12065,7.12065,0,0,0-5.916-1.42382c-2.4961.40136-4.89453,1.77343-5.832,3.335-1.44727,2.41113-.709,6.25293-.3125,8.32031l.06933.36035a90.94666,90.94666,0,0,1-.0127,10.49117,2.97956,2.97956,0,0,0,.73633,2.25586c.58007.67089,1.7705,1.48731,4.1416,1.56934a5.91547,5.91547,0,0,0,4.71679-1.88575c-.13574,2.6045.15332,5.36037,1.50684,7.27832,2.86914,4.06445,25.78418,16.3252,51.72656,16.3252H78.7998c25.94336,0,48.85645-12.26075,51.72461-16.3252,1.35352-1.916,1.64162-4.6748,1.50489-7.28222a5.82839,5.82839,0,0,0,4.71875,1.88965c2.37207-.082,3.5625-.89844,4.14256-1.56934a2.98061,2.98061,0,0,0,.73633-2.25685,90.89661,90.89661,0,0,1-.0127-10.48828Zm-2.17187,11.08789a.839.839,0,0,1-.23145.63282c-.24707.28613-.91406.77636-2.60547.834a3.7103,3.7103,0,0,1-3.21191-1.36328c-.06055-1.64453-.24707-6.51074-.43164-9.65137-.05664-.9668-.08789-1.877-.09473-2.71875a4.32112,4.32112,0,0,0,4.23047.91992,3.88172,3.88172,0,0,0,2.76855-3.00683,5.4939,5.4939,0,0,0-1.75781-4.86621,5.67369,5.67369,0,0,0-5.18945-.80176,5.01637,5.01637,0,0,0-3.4834,3.66407c-.64648,2.58789-1.3916,9.43554-.75977,11.58106.97071,3.30273,2.07129,9.65918.041,12.53612-2.624,3.71875-25.18261,15.42383-49.9873,15.42383H71.20117c-24.80469,0-47.36426-11.70508-49.98828-15.42383-2.03516-2.88477-.93164-9.23632.041-12.53515.63183-2.14648-.11329-8.99414-.75977-11.582a5.01634,5.01634,0,0,0-3.4834-3.66406A6.27054,6.27054,0,0,0,15.124,102.49a5.08408,5.08408,0,0,0-3.30273,1.08887,5.49393,5.49393,0,0,0-1.75781,4.86621A3.88172,3.88172,0,0,0,12.832,111.4519a4.31885,4.31885,0,0,0,4.23047-.91992c-.00684.8418-.03809,1.752-.09473,2.71875-.18457,3.11914-.37109,8.002-.43164,9.65235a3.61491,3.61491,0,0,1-3.21093,1.3623c-1.69043-.05762-2.35938-.54785-2.60645-.835a.83544.83544,0,0,1-.23145-.62988c.11133-.998.3584-9.14551-.01171-11.11914l-.07129-.37012c-.34278-1.78516-.98047-5.10742.04785-6.82129a6.73631,6.73631,0,0,1,4.34765-2.33106,5.07916,5.07916,0,0,1,4.18848.93555c1.918,1.65332,2.46777,5.03809,2.874,7.53418a15.0119,15.0119,0,0,0,.69825,3.09668c1.28808,3.05957,7.498,6.85156,18.98437,11.59277,13.64746,5.63769,30.04785,6.86816,30.24317,6.87988l6.501-.00293c.16309-.01172,16.52246-1.24121,30.166-6.877,11.48633-4.74121,17.69629-8.5332,18.98436-11.59375a15.08267,15.08267,0,0,0,.70117-3.11328c.40137-2.47363.95019-5.86035,2.87109-7.5166a5.05378,5.05378,0,0,1,4.19141-.93457,6.71831,6.71831,0,0,1,4.34376,2.33008c1.0293,1.71484.39063,5.03809.04786,6.82422l-.07032.36914C139.15332,113.658,139.40137,121.80346,139.5127,122.79857Zm-6.51369-15.362c-.00788-.31042.14245-.8825,1.292-1.13214a1.91628,1.91628,0,0,1,1.95213.38574,15.81673,15.81673,0,0,0-.28076,2.84235c-1.415.06336-2.61321-1.56494-2.9634-2.096ZM14.03754,109.53032a15.81731,15.81731,0,0,0-.2807-2.84015,1.9229,1.9229,0,0,1,1.95214-.38574c1.1496.24964,1.29987.82178,1.292,1.1322C16.65155,107.96685,15.45752,109.59038,14.03754,109.53032Zm5.0523,3.84443q.04981-.854.07325-1.5752a21.45824,21.45824,0,0,1,.05078,5.62207c-.08692.29492-.23047.80565-.39063,1.46972C18.90039,117.05736,18.99609,114.98217,19.08984,113.37475Zm111.74707-1.5752c.01563.48145.03907,1.00585.07326,1.5752.09375,1.60058.18945,3.68065.2666,5.5205-.16015-.666-.30371-1.17773-.39062-1.47265A21.46656,21.46656,0,0,1,130.83691,111.79955Z"/>
      <rect class="cls-4" x="17.62479" y="122.45563" width="1.69023" height="1.77725" transform="translate(-106.21375 126.3323) rotate(-82.85648)"/>
      <g>
        <path class="cls-4" d="M22.657,128.05618a3.99264,3.99264,0,0,0,1.4218,1.54615,1.567,1.567,0,0,0,2.33739-.30979c.42808-.69494.27567-1.33651-.48971-2.34124-.948-1.17859-1.31065-2.26971-.66468-3.31735.7142-1.15824,2.20423-1.4273,3.64914-.53648a3.97115,3.97115,0,0,1,1.419,1.37724l-.74721.62011a3.48287,3.48287,0,0,0-1.19456-1.22317,1.41274,1.41274,0,0,0-2.08758.25036c-.42863.69494-.18708,1.3156.5937,2.34509.95851,1.26058,1.22427,2.26145.55078,3.35367-.707,1.14723-2.16846,1.61658-3.9226.53482a4.51005,4.51005,0,0,1-1.60448-1.64354Z"/>
        <path class="cls-4" d="M33.18292,125.633l-4.0211,7.75332L28.161,132.8669l4.02165-7.75332Z"/>
        <path class="cls-4" d="M37.99085,132.90868l-3.122-1.336L33.62971,134.468l3.47967,1.48894-.372.86992-4.51631-1.93242,3.43621-8.03119,4.33748,1.85593-.37251.86937-3.30029-1.4119-1.08616,2.53822,3.122,1.33542Z"/>
        <path class="cls-4" d="M48.02434,136.49675c.28888-1.18465.63607-2.60921.96181-3.64749l-.03686-.011c-.5805.89413-1.24133,1.83172-2.01,2.859l-2.69614,3.61227-.81875-.246-.15462-4.3892c-.04291-1.298-.05282-2.47771.00991-3.54131l-.02476-.0077c-.33839,1.035-.82205,2.41827-1.27324,3.64859l-1.30185,3.51818-1.02949-.30978,3.09781-8.18636,1.37724.41433.21019,4.47338c.03741,1.13459.04677,2.13822-.00331,3.0703l.03687.011c.465-.78022,1.03884-1.60888,1.72828-2.55142l2.70494-3.59631,1.37724.41377-1.994,8.51869-1.05479-.31747Z"/>
        <path class="cls-4" d="M52.58522,132.65337a13.084,13.084,0,0,1,2.15581.24981,3.58352,3.58352,0,0,1,2.26366,1.1819,2.34559,2.34559,0,0,1,.4,1.939,2.56833,2.56833,0,0,1-1.019,1.70187,3.616,3.616,0,0,1-2.80289.42919,3.89779,3.89779,0,0,1-.87542-.24982l-.67073,3.43291-1.10652-.21625Zm.29878,4.349a3.78639,3.78639,0,0,0,.898.268c1.33486.2608,2.27576-.2289,2.50686-1.41135.22119-1.13183-.47321-1.835-1.69417-2.07327a4.71091,4.71091,0,0,0-1.05975-.115Z"/>
        <path class="cls-4" d="M60.13386,134.0218a11.74758,11.74758,0,0,1,2.17067.05779,3.57047,3.57047,0,0,1,2.43258.98711,2.17417,2.17417,0,0,1,.50016,1.72387,2.294,2.294,0,0,1-1.88124,2.03421l-.00441.03852a2.17612,2.17612,0,0,1,1.08121,1.8928,13.9156,13.9156,0,0,0,.40552,2.45679l-1.15879-.12875a11.26846,11.26846,0,0,1-.34994-2.13765c-.12491-1.22592-.53868-1.72829-1.55166-1.8796l-1.0559-.11718-.41707,3.76083-1.12028-.12434Zm.68229,4.07778,1.14614.1271c1.19785.13262,2.03036-.43963,2.1404-1.43171.1238-1.12027-.63332-1.69966-1.81632-1.84383a4.64843,4.64843,0,0,0-1.11917-.0198Z"/>
        <path class="cls-4" d="M73.28167,139.44765l-3.39438-.08585-.07979,3.14844,3.7834.09518-.02365.94585-4.91028-.1238.2201-8.73219,4.716.11885-.02421.94585-3.5886-.09079-.06933,2.76,3.39438.0853Z"/>
        <path class="cls-4" d="M85.33287,140.11012l-.54253,2.84305-1.15659.15131,1.80751-9.04857,1.34973-.17719,4.09207,8.2755-1.19564.15682-1.2826-2.6037Zm2.72585-1.24627L86.884,136.48134c-.26741-.53978-.46328-1.03719-.65753-1.52194l-.02531.00384c-.06162.531-.13369,1.07625-.23164,1.62485l-.52,2.618Z"/>
        <path class="cls-4" d="M90.77577,133.26852l1.10431-.22448,1.55056,7.63171,3.65685-.74281.18818.92714-4.76172.96731Z"/>
        <path class="cls-4" d="M103.63911,134.89062l-3.264.93264.865,3.02737,3.63759-1.03938.25972.90954-4.721,1.34862-2.399-8.396,4.53447-1.29581.25971.90955-3.4505.986.75821,2.65321,3.26343-.93263Z"/>
        <path class="cls-4" d="M105.861,129.4015a11.78694,11.78694,0,0,1,1.95717-.94035,3.5701,3.5701,0,0,1,2.61416-.2344,2.174,2.174,0,0,1,1.23252,1.30459,2.29267,2.29267,0,0,1-.74337,2.66863l.01431.03631a2.17659,2.17659,0,0,1,1.82622,1.18906,13.87732,13.87732,0,0,0,1.48343,1.99954l-1.08946.41544a11.355,11.355,0,0,1-1.28811-1.74094c-.67128-1.03387-1.26883-1.2914-2.23889-.96291l-.99262.37856,1.34807,3.53468-1.05315.40168Zm2.47054,3.31461,1.07737-.41048a1.71817,1.71817,0,0,0,1.249-2.25155c-.40168-1.05315-1.33982-1.22206-2.4579-.80939a4.6515,4.6515,0,0,0-1.00417.49356Z"/>
        <path class="cls-4" d="M114.79837,126.63273l-2.40231,1.13513-.40937-.86717L117.834,124.138l.40937.86717-2.41387,1.14064,3.32229,7.03087-1.03112.487Z"/>
        <path class="cls-4" d="M121.78083,128.777l.548,2.84087-1.01848.56894L119.642,123.114l1.188-.66359,6.8614,6.17252-1.052.58765-2.15415-1.944Zm2.07107-2.16571-1.97258-1.7778c-.44789-.40332-.8138-.79234-1.17365-1.1709l-.02256.01266c.13976.51612.27456,1.04929.38626,1.59567l.48586,2.623Z"/>
      </g>
      <circle class="cls-2" cx="106.79661" cy="100.23729" r="7.77966"/>
      <circle class="cls-2" cx="42.11864" cy="100.23729" r="7.77966"/>
    </g>
    <path class="cls-4" d="M75.294,132.6189H73.82812a.99889.99889,0,0,1-.81835-.4258l-.252-.35938c-3.57325-5.07227-6.73047-5.34472-12.46191-5.84082l-1.1211-.09765a72.14916,72.14916,0,0,1-18.72559-3.7461C22.30078,115.91088,16.084,98.55541,16.27441,85.58861c.02637-1.78808.24024-5.77539.50977-10.82422.53125-9.91015,1.25391-23.41113,1.25391-32.55566a40.1558,40.1558,0,0,0-6.25684-21.83594l-.498-.67773a1.00013,1.00013,0,0,1,.21094-1.39649L34.083,1.58764A.99928.99928,0,0,1,35.18945,1.532l.4834.28809a36.17159,36.17159,0,0,0,37.68457.07226l.21582-.15136a1.00567,1.00567,0,0,1,.57422-.18067h.82715a.994.994,0,0,1,.57519.18262l.21778.15332a36.27344,36.27344,0,0,0,37.68262-.07617l.48143-.28711a.99722.99722,0,0,1,1.10742.05469l22.58986,16.71a1.00011,1.00011,0,0,1,.21093,1.39648l-.5.67969a40.16013,40.16013,0,0,0-6.25586,21.835c0,9.15918.72364,22.66894,1.25293,32.53319.27149,5.08008.48537,9.06154.51076,10.84668.19141,12.9668-6.02539,30.32325-24.17481,36.56055a72.13483,72.13483,0,0,1-18.72558,3.7461l-1.1211.09765c-5.73144.4961-8.88867.76855-12.46191,5.84277l-.25293.3584A.99763.99763,0,0,1,75.294,132.6189Zm-.94629-2h.42773c4.09375-5.77247,8.20117-6.127,13.8789-6.61818l1.11328-.09764a70.42885,70.42885,0,0,0,18.25489-3.64454c17.13769-5.89062,23.00683-22.34179,22.82519-34.64062-.02539-1.74707-.2373-5.71094-.50586-10.72949-.53222-9.92578-1.25781-23.4668-1.25781-32.67969a42.061,42.061,0,0,1,6.55566-22.89453L114.38477,3.59154a38.27074,38.27074,0,0,1-39.72559-.03125h-.19727a38.11507,38.11507,0,0,1-39.72461.03028L13.4834,19.31517a42.065,42.065,0,0,1,6.55469,22.89356c0,9.19824-.72461,22.72949-1.25391,32.61035-.27148,5.07911-.4834,9.04982-.50977,10.79883-.18066,12.29785,5.68848,28.75,22.8252,34.64062a70.44307,70.44307,0,0,0,18.25488,3.64454l1.11328.09765c5.67774.49121,9.78614.8457,13.87989,6.61818Z"/>
  </g>
</svg>
