<svg id="usa_normandy_pilot_fighter_2_icon" data-name="usa normandy pilot fighter 2 icon" xmlns="http://www.w3.org/2000/svg" width="150" height="150" viewBox="0 0 150 150">
  <defs>
    <style>
      .cls-1 {
        fill: #d8c0ac;
      }

      .cls-1, .cls-2, .cls-3, .cls-4, .cls-5, .cls-6, .cls-7, .cls-8, .cls-9 {
        fill-rule: evenodd;
      }

      .cls-2 {
        fill: #e2991a;
      }

      .cls-3 {
        fill: #f2f2f2;
      }

      .cls-4 {
        fill: #2d80d5;
      }

      .cls-5 {
        fill: #f9be20;
      }

      .cls-6 {
        fill: #282625;
      }

      .cls-7 {
        fill: #e86f33;
      }

      .cls-8 {
        fill: #163dad;
      }

      .cls-9 {
        fill: #f5b633;
      }
    </style>
  </defs>
  <path id="Shape_169_copy" data-name="Shape 169 copy" class="cls-1" d="M146.362,75A71.362,71.362,0,1,1,75,3.638h0A71.362,71.362,0,0,1,146.362,75Z"/>
  <path id="Shape_169_copy_2" data-name="Shape 169 copy 2" class="cls-2" d="M75,148.623A73.623,73.623,0,1,1,148.623,75,73.623,73.623,0,0,1,75,148.623ZM75,5.9A69.1,69.1,0,1,0,144.1,75,69.1,69.1,0,0,0,75,5.9Z"/>
  <path id="Shape_169_copy_3" data-name="Shape 169 copy 3" class="cls-3" d="M73.812,133.972a27.142,27.142,0,0,0,18.333,2.74c10.536-2.107,12.643-9.483,12.643-9.483s6.322.843,7.165-4.214-1.9-6.954-4.214-7.8c0,0,2.318-7.375-2.74-9.9s-11.053,4.37-11.053,4.37-13.391,2.584-15.709,2.162-10.958-1.9-14.119.211-2.529,7.8-.843,12.222S73.812,133.972,73.812,133.972Z"/>
  <path id="Shape_169_copy_4" data-name="Shape 169 copy 4" class="cls-4" d="M86.755,138.423A27.522,27.522,0,0,1,73.2,134.977c-.491-.293-9.227-5.559-11.025-10.279-1.788-4.694-2.523-11.077,1.29-13.619,3.035-2.023,9.822-1.329,14.981-.389,1.5.273,9.761-1.107,14.893-2.087,1.33-1.415,6.991-6.937,12.184-4.341,4.7,2.348,4.09,7.93,3.6,10.264,3.3,1.595,4.673,4.575,3.989,8.682-.725,4.345-4.832,5.319-7.541,5.26-.965,2.183-4.213,7.6-13.2,9.4A28.66979,28.66979,0,0,1,86.755,138.423Zm-12.324-5.451a26.18107,26.18107,0,0,0,17.483,2.586c9.642-1.928,11.664-8.384,11.745-8.658l.286-.963,1,.127c.21.024,5.2.62,5.849-3.243.562-3.371-.536-5.436-3.457-6.5l-1.056-.385.337-1.072c.02-.063,1.949-6.453-2.144-8.5-4.124-2.063-9.585,4.027-9.639,4.09l-.267.3-.4.078c-2.272.438-13.728,2.61-16.142,2.164-6.5-1.182-11.452-1.17-13.256.033-2.477,1.651-1.942,6.768-.4,10.824,1.262,3.313,7.675,7.693,10.04,9.1Z"/>
  <path id="Shape_169_copy_6" data-name="Shape 169 copy 6" class="cls-5" d="M106.939,56.419l-.518-1.9a.783.783,0,0,0-.694-.575.75189.75189,0,0,0-.08,0,.772.772,0,0,0-.7.462L93.328,80.1,72.651,116.579l-.574-2.525a.782.782,0,0,0-.678-.606.64217.64217,0,0,0-.076,0,.8.8,0,0,0-.719.448l-7.739,16.356,5.174-22.473,1.852,2.248a.777.777,0,0,0,.606.285.76656.76656,0,0,0,.103-.012.782.782,0,0,0,.61-.461l8.76-19.958,8.13-10.97.078-.132,16.459-34.853.682,2.614a.785.785,0,0,0,.666.581.765.765,0,0,0,.783-.41l7.576-14.2ZM58.013,109.677a.784.784,0,0,0-1.21.768l2.526,16.848-8.56-23.472,1.993.886a.784.784,0,0,0,1.093-.833l-5.064-33.5,1.22.751a.78492.78492,0,0,0,1.187-.785L47.811,47.575l1.508,1.206a.784.784,0,0,0,1.273-.662l-1.415-22.31,7.159,23.568-1.355-1.016a.784.784,0,0,0-1.252.681l.413,5.973L56.3,72.43l-.8-.867a.784.784,0,0,0-1.352.642l5.479,38.547Z"/>
  <path id="Shape_169_copy_5" data-name="Shape 169 copy 5" class="cls-6" d="M118.273,25.1,107.641,59.454a.822.822,0,0,1-.763.554.787.787,0,0,1-.743-.579l-.654-2.4L94.725,80.813l-21.706,38.3a.759.759,0,0,1-.8.389.784.784,0,0,1-.65-.6l-.52-2.286-9.867,20.851a.784.784,0,0,1-.709.449l-.257-.045a.782.782,0,0,1-.507-.915l.57-2.477L48.663,102.623a.786.786,0,0,1,.2-.842.8.8,0,0,1,.537-.21.768.768,0,0,1,.317.068l2.372,1.054-5.1-33.754a.785.785,0,0,1,1.187-.785l1.224.754L45.966,45.83a.78415.78415,0,0,1,1.265-.727l1.683,1.347L47.186,19.185a.783.783,0,0,1,.643-.821.7525.7525,0,0,1,.144-.014.784.784,0,0,1,.745.558l9.815,32.307a.784.784,0,0,1-1.22.855l-1.9-1.427.287,4.221,2.449,19.791a.784.784,0,0,1-.448.809.77494.77494,0,0,1-.329.073.785.785,0,0,1-.577-.253l-.748-.81,5.371,37.791a.784.784,0,0,1-1.21.762l-1.595-1.064,2.7,18.014,5.55-24.1a.784.784,0,0,1,.584-.587.7511.7511,0,0,1,.181-.022.782.782,0,0,1,.6.286l2.053,2.492,8.28-18.871.087-.151,8.134-10.98L104.138,41.3a.8.8,0,0,1,.728-.447h.053a.783.783,0,0,1,.686.581l.721,2.763,10.507-19.7a.783.783,0,0,1,1.44.603ZM56.8,110.445a.783.783,0,0,1,1.21-.768l1.61,1.074L54.145,72.2a.784.784,0,0,1,1.352-.641l.8.867L54.142,55.014l-.413-5.973a.784.784,0,0,1,1.252-.681l1.355,1.016L49.177,25.809,50.591,48.12a.784.784,0,0,1-1.273.662L47.81,47.576,51.2,70.342a.786.786,0,0,1-1.187.784l-1.22-.751,5.064,33.5a.784.784,0,0,1-1.093.833l-1.992-.886,8.56,23.472ZM106.765,46.71a.783.783,0,0,1-.683.417.76023.76023,0,0,1-.1-.007.784.784,0,0,1-.666-.581l-.682-2.614L88.175,78.779l-.078.132L79.97,89.881,71.213,109.84a.783.783,0,0,1-.61.461.76749.76749,0,0,1-.107.007.777.777,0,0,1-.606-.285l-1.852-2.248-5.174,22.473L70.6,113.892a.8.8,0,0,1,.719-.448.64267.64267,0,0,1,.075,0,.783.783,0,0,1,.678.606l.574,2.525L93.328,80.1,104.95,54.4a.772.772,0,0,1,.7-.462.75189.75189,0,0,1,.08,0,.783.783,0,0,1,.694.575l.518,1.9,7.4-23.913Z"/>
  <path class="cls-7" d="M94.314,100.079c-.92,1.738-.511,5.01-.511,5.623s1.636,3.68,1.738,5.01-.716,2.556-1.738,4.089-2.965,3.578-4.6,3.681a5.43793,5.43793,0,0,1-3.272-1.329,4.214,4.214,0,0,1-2.965.409c-1.227-.512-3.578-2.148-3.681-2.659s1.227-.92,1.227-.92c-1.738-2.249-1.022-3.885-1.022-3.885-5.112-2.249-7.259-4.907-7.668-5.418a1.288,1.288,0,0,1-.2-1.739c.511-.511.716-.2.409-.511a2.33,2.33,0,0,1-.511-2.044,1.609,1.609,0,0,1,1.329-.614c.307-.1-.1-.818-.2-1.534s1.227-.716,1.533-.613,3.067,1.329,3.272,1.738a7.67811,7.67811,0,0,0,1.534,1.329s.511-1.431.818-2.147a5.1449,5.1449,0,0,1,1.534-1.534c1.329,1.431,5.419,1.227,5.419,1.227a5.49347,5.49347,0,0,1-.409,1.534,16.15806,16.15806,0,0,0-1.329,2.658c-.1.614.716,1.432,1.227,2.045s.613,1.636.511,3.272a2.991,2.991,0,0,1-1.636,2.351,9.23939,9.23939,0,0,0,2.658.2c.614-.2.716-1.023.511-1.841a42.46182,42.46182,0,0,1-1.022-5.418,10.359,10.359,0,0,1,1.125-4.5,20.24743,20.24743,0,0,1,2.351-3.067,4.24,4.24,0,0,1,2.556-.1,7.9632,7.9632,0,0,1,2.454,1.738C95.95,97.523,95.235,98.341,94.314,100.079Zm-4.6-52.857a5.07893,5.07893,0,0,1-1.943,1.329c-.511.307-2.351,2.658-3.272,3.578S78.774,55.3,76.73,55.3a4.488,4.488,0,0,1-3.169-1.227,1.984,1.984,0,0,1-.307-1.943,8.95182,8.95182,0,0,1,1.227-2.658,1.236,1.236,0,0,0,0-1.227,7.6461,7.6461,0,0,1-3.067-.511,4.44,4.44,0,0,1-2.352-2.147c-.307-.613-1.227-2.658-1.227-2.658A8.38871,8.38871,0,0,1,66.3,40.883a4.155,4.155,0,0,1,.818-3.169c.511-.409,1.431-.2,2.351.716s2.352,2.76,2.352,2.76,1.022.2,1.84.409,2.249-1.431,2.76-1.943a2.221,2.221,0,0,1,2.249-.1,22.30738,22.30738,0,0,0,3.374.818s2.863,1.533,3.272,1.738A11.858,11.858,0,0,1,89.2,44.155,2.471,2.471,0,0,1,89.714,47.222Z"/>
  <path class="cls-8" d="M111.733,68.245c-.409.2-1.84-.409-2.965-.716a4.9,4.9,0,0,0-3.374.716,11.98419,11.98419,0,0,0-1.431,2.556,1.483,1.483,0,0,1-2.045.409c-.613-.409-1.636-1.534-2.249-1.534S98.34,70.9,97.931,71.21s-.614-.41-1.231-1.329-5.01-2.351-6.85-3.067-5.517-.514-5.517-.514a10.08388,10.08388,0,0,0,.818,1.84,38.67864,38.67864,0,0,1,2.556,4.805c.613,1.534.613,1.943-.1,3.272s-2.352,2.249-2.965,2.965-2.249,5.214-2.658,6.441a24.90953,24.90953,0,0,1-2.556,4.7c-.511.613-2.147,1.431-3.067,1.022s-2.965-3.169-3.272-3.578,1.329-.613,1.738-.818-.2-1.636-.614-2.147A52.02679,52.02679,0,0,0,69,81.74c.1-1.125,2.965-2.658,3.272-2.863a1.5,1.5,0,0,0,.2-1.534,26.21137,26.21137,0,0,1,.511-5.93,34.52781,34.52781,0,0,1,2.351-6.339c.511-.614.511-.818-.1-1.227a4.273,4.273,0,0,1-1.227-3.067c0-1.227,1.125-1.534,1.943-2.454s4.805-2.147,5.419-2.249a53.115,53.115,0,0,1,7.361-.409c1.227.2,9.406,1.738,12.984,3.374s9.712,7.566,10.121,8.179S112.142,68.041,111.733,68.245ZM94.966,35.938c-1.329.716-2.147-.1-2.147-.409A1.718,1.718,0,0,0,91.694,34.4c-.614-.2-2.352.92-2.965,1.022s-.511-.818-.716-1.738a2.015,2.015,0,0,0-1.84-1.329,9.54621,9.54621,0,0,0-2.249.409c-.613.2-2.147,2.863-2.249,3.169s-1.227.409-2.045.818a21.714,21.714,0,0,1-9,.409c-2.965-.716-2.045-2.147-2.045-2.147a4.594,4.594,0,0,1,1.84-2.76,16.39938,16.39938,0,0,1,4.4-.2,24.11171,24.11171,0,0,1,2.863,1.227c.307.2-.2-2.863-.2-2.863a14.182,14.182,0,0,1,12.984-4.7,23.29048,23.29048,0,0,1-.1,2.454,24.51849,24.51849,0,0,0,0,2.761,13.97228,13.97228,0,0,0,2.76-1.022,13.39193,13.39193,0,0,1,5.214-1.431c2.045-.1,1.227.307,1.738,1.431s-.2,1.84-1.125,3.374S96.3,35.222,94.966,35.938ZM64.5,92.475a13.81313,13.81313,0,0,1-3.578-.409c-.92-.409-.716-1.942-.716-1.942a8.41179,8.41179,0,0,0,2.556.716,11.492,11.492,0,0,0,3.783-.818c.818-.511.409.409.307.818S64.5,92.475,64.5,92.475Zm-.819-26.786c-.511.92-1.125,5.828-1.125,5.828a8.53329,8.53329,0,0,1-2.249-1.329c-.92-.818-4.6-3.476-4.6-3.476,4.5-6.236,3.067-9,3.067-9a8.65694,8.65694,0,0,1,1.636-1.431c.614-.307,2.658,1.636,3.783,2.556s2.454,1.738,2.249,2.351S64.192,64.769,63.681,65.689Zm-6.441,13.7c.14.491.818-1.022,1.534-.716a3.365,3.365,0,0,1,1.636,1.738,2.927,2.927,0,0,1-.613,2.249,47.29373,47.29373,0,0,1-6.645,3.681,6.00041,6.00041,0,0,1-2.045-.613c-.307-.2-2.147.511-2.658.1a4.3213,4.3213,0,0,1-.92-1.431L43.234,85.83S41.9,84.705,41.9,84.092a2.84006,2.84006,0,0,1,.511-1.329l7.872-2.454s-.2-.307.511-.818a28.25379,28.25379,0,0,1,4.4-1.534C55.809,77.753,56.831,77.958,57.24,79.389Z"/>
  <path class="cls-3" d="M107.29,82.262a33.71231,33.71231,0,0,0-1.738,3.783c-.307.716-1.124.613-1.738,1.227s0,.614.409,1.022,0,1.431-.1,2.045a3.17493,3.17493,0,0,1-1.534,1.534,13.21831,13.21831,0,0,0-2.453,3.374c-.921,1.636-4.806,4.6-4.806,4.6a1.7,1.7,0,0,1-.818-1.125,4.3568,4.3568,0,0,1,.92-1.534c.2-.2-2.352-1.84-3.169-2.045a2.8,2.8,0,0,0-2.352.818,7.357,7.357,0,0,0-1.84,2.658c-.307.716-1.022.2-2.454,0s-4.805-1.534-6.032-3.169a12.79079,12.79079,0,0,1-1.738-4.5s.818-.92,1.431-1.534a30.71035,30.71035,0,0,0,3.067-4.7c.2-.613,1.943-5.316,2.249-6.134s2.556-2.351,2.965-2.658a12.98326,12.98326,0,0,1,2.454-.716,29.27368,29.27368,0,0,1,4.7.2,9.58983,9.58983,0,0,1,4.294,1.738c.511.409,1.431,4.192,1.738,4.5s1.431-1.431,1.942-1.431a2.49086,2.49086,0,0,1,1.227.818,8.50019,8.50019,0,0,0,1.227-1.329,4.829,4.829,0,0,1,2.556-1.125,1.917,1.917,0,0,1,1.329,1.738C109.028,81.138,107.6,81.956,107.29,82.262ZM93.59,42.7c-.2.307.2,1.431.1,2.147A8.16379,8.16379,0,0,1,92.261,47.5a.941.941,0,0,0,.1,1.022,1.553,1.553,0,0,1-.92,1.329,22.90032,22.90032,0,0,1-3.476,1.431,10.66683,10.66683,0,0,0-.818,1.636A4.955,4.955,0,0,1,84.7,55.272c-.716.1-3.987.409-3.987.409a.877.877,0,0,1,.409-1.534,7.63191,7.63191,0,0,0,2.556-1.329,10.12,10.12,0,0,0,3.169-3.374c1.022-1.534.92-.716,1.329-.818A2.261,2.261,0,0,0,89.4,47.3c.307-.716-.511-2.863-1.125-3.578a6.59091,6.59091,0,0,0-2.863-1.636c-1.022-.307-3.169-1.534-3.68-1.636s-2.76-.716-3.374-.818-1.636.1-1.84-.409a3.752,3.752,0,0,1,.2-2.045c.2-.818,1.329-.409,1.943-.716a20.92068,20.92068,0,0,0,2.965-1.329A22.794,22.794,0,0,1,84.8,32.064a2.76,2.76,0,0,1,2.454.511,9.71725,9.71725,0,0,1,1.431,2.556s1.738-.818,2.351-1.022a1.1,1.1,0,0,1,1.227.614.955.955,0,0,0,1.022.511,2,2,0,0,1,1.636.409,2.112,2.112,0,0,1-.1,1.431s.614.511.92.716.1,1.431-.2,2.249A16.3409,16.3409,0,0,1,93.59,42.7ZM79.584,28.076c-.655.578-3.987-10.837-3.987-10.837.409-.613,8.077-4.4,8.077-4.4s6.236-1.227,6.85-.409-.307,12.677-.307,12.677S83.06,25.009,79.584,28.076ZM63.328,90.646a4.73,4.73,0,0,1-2.863-1.125,3.351,3.351,0,0,1-3.476-.1c-.511-.409-1.533-1.125-1.533-1.125a5.24789,5.24789,0,0,1-1.022-.1,5.79994,5.79994,0,0,1-2.045-1.84c-.2-.511,2.351-1.227,2.351-1.227s5.419-3.169,5.828-3.987,1.329-3.578,1.84-3.885.92,1.022,1.329,1.943-.1,2.147.307,2.556a3.641,3.641,0,0,0,2.454.716,25.3033,25.3033,0,0,0,2.249-1.329s3.783,2.454,4.09,2.76,2.556,2.249,2.351,2.658-3.476,1.125-4.089,1.329S64.759,90.544,63.328,90.646Zm2.556-11.962c-.818-2.863-1.227-10.633-.716-12.269S66.6,62.224,68.44,61s4.5-2.454,4.907-2.249,1.227.307,1.022,1.329-.307,2.045,0,2.351c0,0-.92-1.431-2.352,3.987A34.19,34.19,0,0,0,71.3,78.684c.2.613-2.556,2.454-2.556,2.454S66.7,81.547,65.884,78.684ZM55.865,65.6a4.174,4.174,0,0,1-1.125-2.352c0-.511-.2-2.76-.1-3.067s-.92.409-1.227.409a1.718,1.718,0,0,1-1.125-1.022,5.829,5.829,0,0,1,0-2.658c.1-.511,2.045-1.943,2.556-2.249a5.22193,5.22193,0,0,1,2.454-.2A7.51417,7.51417,0,0,1,58.932,56.4a17.3171,17.3171,0,0,1,.511,2.454,18.79124,18.79124,0,0,1-1.329,3.783C57.705,63.348,55.865,65.6,55.865,65.6ZM50.14,62.022a1.264,1.264,0,0,1,.409,1.125,3.386,3.386,0,0,1-1.125,1.534A3.059,3.059,0,0,1,49.73,65.8c0,.511-.511.613-1.022.613s-1.738-1.534-1.738-1.534c-2.045-1.84-1.636-2.76-1.636-2.76s.613-.511,0-.818-.307-1.636-.1-2.249,1.124-.409,1.124-.716.511-.92,0-1.125a2.978,2.978,0,0,1-1.227-1.84c-.1-.613.92-1.227,1.534-1.636s.716,0,1.227.511a2.2,2.2,0,0,1,.409,1.533,5.89048,5.89048,0,0,0,.92.511,2.83,2.83,0,0,1,1.636,1.534c.307.92-.511.92-.307,1.227a1.9,1.9,0,0,1,.716,1.227,7.25166,7.25166,0,0,1-1.127,1.741Z"/>
  <path class="cls-9" d="M92.744,16.824c-.307.818-2.965,8.384-2.965,8.384a12.18135,12.18135,0,0,0-3.118.1c.409-1.534,1.482-13.291,1.482-13.291.511-.307,4.294.307,5.01,1.84S93.051,16.006,92.744,16.824ZM77.2,30.114C76.693,29.4,73.217,20.1,73.217,20.1c.2-.716,3.578-3.578,3.578-3.578,1.124,1.738,2.914,11.451,2.914,11.451A12.03169,12.03169,0,0,0,77.2,30.114ZM66.06,66.818c-1.533,7.259.818,11.757,1.84,14.313,0,0-.614,1.022-1.022.92s-1.943-1.022-2.965-3.885-1.738-7.361-1.124-10.428a17.708,17.708,0,0,1,4.4-7.872c1.227-1.022,4.907-2.556,6.236-1.329C73.421,58.537,67.594,59.559,66.06,66.818Zm7.668-6.339s-.2,2.658,1.738,3.578A15.854,15.854,0,0,0,72.6,78.371L69.945,79.7a27.95793,27.95793,0,0,1-.511-12.064C70.661,61.3,73.728,60.479,73.728,60.479Z"/>
  <path class="cls-6" d="M112.511,67.574a.593.593,0,0,1-.142.57,1.841,1.841,0,0,1-1.883.391c-.769-.189-1.5-.508-2.279-.658a3.132,3.132,0,0,0-1.925.158,2.8729,2.8729,0,0,0-1.192,1.416c-.539,1.032-1.276,2.254-2.6,2.24a2.459,2.459,0,0,1-1.55-.666,4.89992,4.89992,0,0,1-.656-.706,3.35408,3.35408,0,0,0-.535-.682c-.424-.3-1.036.709-1.388.925a1.30908,1.30908,0,0,1-.488.186.5.5,0,0,1-.817.2,13.1447,13.1447,0,0,0-2.4-2.049,15.688,15.688,0,0,0-2.869-1.339,27.127,27.127,0,0,0-4.108-1.236q-1.511-.005-3.022-.039c.571.7,1.067,1.491,1.542,2.206a28.70131,28.70131,0,0,1,1.963,3.379,4.87,4.87,0,0,1,.569,3.162c.248-.079.489-.143.69-.2a10.36248,10.36248,0,0,1,2.534-.347,12.97409,12.97409,0,0,1,5.08.812,6.739,6.739,0,0,1,3.5,3.073,7.51331,7.51331,0,0,1,.662,1.769,1.9,1.9,0,0,1,1.072-.587,2.178,2.178,0,0,1,1.864.633,4.413,4.413,0,0,1,2.691-2.021,2.38,2.38,0,0,1,2.905,1.5,1.43,1.43,0,0,1-.694,1.573,4.42621,4.42621,0,0,0-1.318,1.228,13.37715,13.37715,0,0,0-1.419,3.405,1.778,1.778,0,0,1-1.214,1.331,3.0752,3.0752,0,0,0-.654.241.9721.9721,0,0,1,.211.134,1.945,1.945,0,0,1,.324,1.871,4.148,4.148,0,0,1-1.649,2.968,6.31514,6.31514,0,0,0-.863.465,2.44106,2.44106,0,0,0-.445.86,11.93532,11.93532,0,0,1-.912,1.67,15.46121,15.46121,0,0,1-2.569,3.041,16.24314,16.24314,0,0,1-1.513,1.215,5.36106,5.36106,0,0,1-1.762.946.7.7,0,0,1-.681-.236,10.658,10.658,0,0,0-.58,3.079,9.2723,9.2723,0,0,0,.34,2.893c.3,1.036.837,1.974,1.183,2.991.756,2.222-.265,4.278-1.539,6.08-1.109,1.569-2.6,3.09-4.577,3.414a4.517,4.517,0,0,1-4.216-1.355.592.592,0,0,1-.418.46,5.29,5.29,0,0,1-4.044-.671,5.65721,5.65721,0,0,1-1.432-1.067,3.90012,3.90012,0,0,1-.548-.728,1.69208,1.69208,0,0,1-.3-.853.5.5,0,0,1,.537-.455,1.88034,1.88034,0,0,0,.5-.212,5.133,5.133,0,0,1-1.159-3.633A14.961,14.961,0,0,1,72.2,106.5a5.023,5.023,0,0,1-1.786-3.114.931.931,0,0,1,.6-.985,2.2,2.2,0,0,1-.4-1.71,1.639,1.639,0,0,1,1.281-1.2h.015a1.65487,1.65487,0,0,1-.165-.778,1.82,1.82,0,0,1,1.6-1.64,4.23094,4.23094,0,0,1,2.9.984,9.042,9.042,0,0,1,1.937,1.786,5.486,5.486,0,0,1,.672-1.592,5.171,5.171,0,0,1,1-1.191c.083-.071.173-.15.267-.228a9.31093,9.31093,0,0,1-2.608-5.077,1.28093,1.28093,0,0,1-.686.094,3.89207,3.89207,0,0,1-1.745-1,13.237,13.237,0,0,1-1.737-1.636,7.94223,7.94223,0,0,1-.907-1.14c-.15.052-.3.1-.45.153q-2.19.782-4.378,1.57l-.059.022a.741.741,0,0,1,.028.071c.3,1.085-1.142,1.759-1.934,2.127a9.22282,9.22282,0,0,1-2.834.824,2.64,2.64,0,0,1-2.538-.907,3.21006,3.21006,0,0,1-.552-1.791,3.739,3.739,0,0,1-1.812.033,4.79967,4.79967,0,0,1-1.579-.62,2.012,2.012,0,0,1-.865-.935,2.53088,2.53088,0,0,1-1.449-.094,3.183,3.183,0,0,1-1.48-1.215,3.0336,3.0336,0,0,1-.441-.943.4.4,0,0,1-.135-.726c.076-.046.143-.092.209-.136a.2.2,0,0,1,.11-.072,1.55435,1.55435,0,0,1,.247-.131c.221-.091.446-.173.667-.262q.681-.275,1.348-.584c.812-.373,1.614-.768,2.4-1.2.221-.121.447-.242.672-.367a1.024,1.024,0,0,1-.76.109.61964.61964,0,0,1-.139-.049c-.136.058-.268.112-.383.165-.466.212-.941.406-1.423.576a13.81041,13.81041,0,0,1-1.483.437,2.688,2.688,0,0,1-1.506.028,2.214,2.214,0,0,1-1.257-1.942c-.035-.236-.062-.534-.116-.83a.584.584,0,0,1-.533-.47v-.018a.644.644,0,0,1-.394.24,13.63812,13.63812,0,0,0-1.929.46q-.91.294-1.814.6-1.694.579-3.369,1.211a4.15828,4.15828,0,0,0,.088.468,1.064,1.064,0,0,0,.152.341.58983.58983,0,0,0,.118.129l.019.014c0-.006,0-.009.047.007a1.133,1.133,0,0,0,.746-.11c.347-.113.7-.217,1.043-.334.714-.241,1.418-.509,2.125-.771a16.31073,16.31073,0,0,1,2.057-.744.738.738,0,0,1,.566,1.343,7.55326,7.55326,0,0,1-1.1.43c.025.064.051.128.07.193q.037.13.084.257c.024.064.028.076.039.1l.336-.089c.739-.2,1.477-.388,2.22-.566a.751.751,0,0,1,.9.514.743.743,0,0,1-.513.9c-.881.224-1.768.462-2.662.633a1.281,1.281,0,0,1-.906-.118,1.086,1.086,0,0,1-.47-.676,3.21862,3.21862,0,0,1-.109-.8l-.572.2c-.835.3-1.673.616-2.532.845a1.975,1.975,0,0,1-2.273-.431,2.386,2.386,0,0,1-.466-1.917.58413.58413,0,0,1-.075-.157.644.644,0,0,1,.436-.768c.26-.1.523-.2.784-.3a.64565.64565,0,0,1-.125-.093.66708.66708,0,0,1-.188-.455,1.479,1.479,0,0,1,.391-.991,1.42794,1.42794,0,0,1,.889-.465,1.384,1.384,0,0,1,1,.245,1.75373,1.75373,0,0,1,.442.453.96989.96989,0,0,1,.129.353l.258-.095q.867-.311,1.739-.609a17.28069,17.28069,0,0,0,1.785-.72.932.932,0,0,1,.7-.051.881.881,0,0,1,.176-.83,1.80008,1.80008,0,0,1,.848-.379q.538-.158,1.078-.313c.674-.193,1.345-.4,2.018-.6q.538-.158,1.078-.312a5.332,5.332,0,0,1,.99-.248,1.594,1.594,0,0,1,1.457,1.2c.011.024.021.049.033.073.166-.11.336-.213.513-.309a1.8,1.8,0,0,1,1.28-.293,1.98509,1.98509,0,0,1,.97.908l.293.392c.408-1.3,1.226-2.882,2.661-2.083.013.007.023.017.035.024a16.19117,16.19117,0,0,1-.72-3.673,15.35817,15.35817,0,0,1-.029-1.679.549.549,0,0,1-.414-.027A18.68084,18.68084,0,0,1,55.358,66.4a.51247.51247,0,0,1-.031-.047.414.414,0,0,1-.3-.412,8.14586,8.14586,0,0,1-.492-1.189,8.78267,8.78267,0,0,1-.372-1.381A11.32774,11.32774,0,0,1,54,61.918a4.75476,4.75476,0,0,1,0-1,1.97,1.97,0,0,1-1.552-.52,1.99978,1.99978,0,0,1-.266-.319A.341.341,0,0,1,51.888,60a1.894,1.894,0,0,1-.235.7,3.16993,3.16993,0,0,1-.94,1.034c.022.021.047.039.069.061a1.674,1.674,0,0,1-.188,2.261,2.8065,2.8065,0,0,1-.509.483,1.49389,1.49389,0,0,1,.214.8,1.429,1.429,0,0,1-.693,1.191,1.467,1.467,0,0,1-1.259.141,2.96809,2.96809,0,0,1-1.108-.891,3.94723,3.94723,0,0,1-.45-.577,3.406,3.406,0,0,1-.16-.32.53791.53791,0,0,1-.046-.19c-.022-.012-.044-.023-.065-.036a3.411,3.411,0,0,1-1.446-1.64,1.477,1.477,0,0,1,.163-1.493,1.78707,1.78707,0,0,1-.578-1.087,1.743,1.743,0,0,1,.192-1.063.86475.86475,0,0,1,.11-.154,1.148,1.148,0,0,1,.463-.7,1.37294,1.37294,0,0,1,.616-.25,1.267,1.267,0,0,1,.125-.979.94209.94209,0,0,1-.483-.152,1.636,1.636,0,0,1-.627-.733,2.142,2.142,0,0,1,.188-1.941,5.54032,5.54032,0,0,1,.574-.8,1.82792,1.82792,0,0,1,.813-.643,1.579,1.579,0,0,1,1.722.931,2.26211,2.26211,0,0,1,.3.977,1.43506,1.43506,0,0,1-.111.781,2.8,2.8,0,0,1,2.22,1.019A2.334,2.334,0,0,1,51.331,58a.861.861,0,0,1-.369.747,1.60912,1.60912,0,0,1,.612.326c.011.01.018.022.029.033a4.77231,4.77231,0,0,1,.042-.586A5.617,5.617,0,0,1,52,57.084a4.973,4.973,0,0,1,4.221-3.242,2.879,2.879,0,0,1,2.6,1.415,3.675,3.675,0,0,1,.332.7,1.5,1.5,0,0,1,1.494-.447,5.92208,5.92208,0,0,1,2.15,1.4,19.9208,19.9208,0,0,0,3.941,2.955,9.2854,9.2854,0,0,1,1.935-1.341,8.68485,8.68485,0,0,1,3.839-1,7.49967,7.49967,0,0,1,1.883.209,4.35407,4.35407,0,0,1,.719.224,8.33351,8.33351,0,0,1,.648-.544.753.753,0,0,1-.064-1.179,3.5934,3.5934,0,0,1,.284-.225,5.41671,5.41671,0,0,1-.921-.078,3.388,3.388,0,0,1-2.746-3.3,4.711,4.711,0,0,1,.54-2.318A9.10786,9.10786,0,0,1,73.59,49.1a9.23266,9.23266,0,0,1-1.828-.189,4.645,4.645,0,0,1-3.337-2.484c-.318-.7-.477-1.452-.8-2.147a5.45721,5.45721,0,0,0-.78-1.164,2.112,2.112,0,0,1-.792-.774,4.017,4.017,0,0,1-.573-1.636,3.54994,3.54994,0,0,1,.86-2.857c.94-.99,2.237-.636,3.239.053a5.12,5.12,0,0,1,2.087,2.884c.018.062.03.126.046.188a1.46471,1.46471,0,0,1,.26-.038c.2-.008.4.005.6,0a4.54214,4.54214,0,0,0,1.071-.148,7.03588,7.03588,0,0,0,1.828-1.313,3.41605,3.41605,0,0,1,.789-.375,1.888,1.888,0,0,1-.216-.678,2.12691,2.12691,0,0,1,.05-.706,1.43312,1.43312,0,0,1,.142-.368,23.66858,23.66858,0,0,1-2.478.142c-1.791,0-4.506-.16-5.308-2.007a1.851,1.851,0,0,1-.408-1.05,2.79984,2.79984,0,0,1,.337-1.522,4.16494,4.16494,0,0,1,2.6-1.9,9.19988,9.19988,0,0,1,5.651.243c-.136-.548-.269-1.1-.429-1.633q-.49-1.642-1.077-3.254c-.4-1.1-.828-2.19-1.294-3.264a13.444,13.444,0,0,1-1.279-3.247.529.529,0,0,1,.361-.587l.007-.015c.011-.026.023-.053.035-.079a.92693.92693,0,0,1,.354-.4c.049-.027.1-.057.145-.085l.191-.219q.477-.554.994-1.073a20.8861,20.8861,0,0,1,2.1-1.841A21.46708,21.46708,0,0,1,85.9,11.469a13.43208,13.43208,0,0,1,5.4-.15,4.365,4.365,0,0,1,3.1,2.536,1.3,1.3,0,0,1,.26.831c0,.044-.01.091-.013.136,0,.025.008.05.01.075a.735.735,0,0,1-.081.428,2.99851,2.99851,0,0,1-.075.308c-.047.144-.1.285-.159.425-.033.079-.065.151-.1.218l-.044.139c-.206.645-.4,1.292-.613,1.936q-.615,1.888-1.142,3.8a29.4737,29.4737,0,0,0-1.165,7.5c.24-.133.481-.262.727-.383A16.24192,16.24192,0,0,1,96.634,27.8a6.662,6.662,0,0,1,2.493-.1,2.282,2.282,0,0,1,1.66,1.612c.513,1.671-.537,3.324-1.75,4.381a8.809,8.809,0,0,1-3.612,2.213,1.624,1.624,0,0,1-.111.793c-.018.045-.041.085-.062.127h.007a1.611,1.611,0,0,1,1,1.547,5.14507,5.14507,0,0,1-.937,2.364c-.393.694-.823,1.368-1.264,2.034a4.08586,4.08586,0,0,1,.019,1.647,5.7818,5.7818,0,0,1-.514,1.691,5.376,5.376,0,0,1-.96,1.379,1.8,1.8,0,0,1-.39,2.474A9.36788,9.36788,0,0,1,88.835,51.5a2.19,2.19,0,0,0-.845.28,2.0088,2.0088,0,0,0-.306.657,6.85875,6.85875,0,0,1-.815,1.408,7.79163,7.79163,0,0,1-.781.894,27.178,27.178,0,0,1,5,.346,35.111,35.111,0,0,1,11.894,3.946,34.25019,34.25019,0,0,1,5.246,3.572q1.208.987,2.324,2.081a9.77185,9.77185,0,0,1,1.977,2.395A.534.534,0,0,1,112.511,67.574ZM56.676,81.009a7.50977,7.50977,0,0,0-.221-1.1,7.145,7.145,0,0,0-.375-1.064,3.91,3.91,0,0,1-.27-.552.75607.75607,0,0,0-.106.018q-1.319.363-2.631.749c-.658.193-1.334.383-1.986.616.053.252.113.5.169.752a2.32426,2.32426,0,0,1,.344.68c.158.5.146,1.369.62,1.7a1.219,1.219,0,0,0,.82-.069c.481-.114.958-.24,1.427-.4a13.41944,13.41944,0,0,0,1.273-.489c.288-.129.633-.363.972-.487C56.7,81.253,56.69,81.129,56.676,81.009ZM47.994,65.2q.121.115.248.224c.037.032.075.064.113.094-.066-.053.057.041.072.05.046.031.094.058.142.086l.026.016.025.007.065.022h.125l.113-.032h0l.011-.008q.035-.019.068-.04a.154.154,0,0,1,.032-.021l.038-.042c.013-.013.025-.027.037-.041a.30126.30126,0,0,0,.029-.06.37.37,0,0,0,.017-.056l.007-.03V65.28h0a.40784.40784,0,0,0-.046-.15l.026.064c-.011-.024-.024-.046-.037-.069s-.02-.033-.031-.05-.011-.017-.009-.015l-.026-.022a3.28981,3.28981,0,0,1-1.131.081A.37623.37623,0,0,1,47.994,65.2Zm-2.226-2.675a1.955,1.955,0,0,0,.6.85,2.7,2.7,0,0,0,2.1.7,2.01207,2.01207,0,0,0,1.456-.95.7421.7421,0,0,0,.14-.44.264.264,0,0,0-.135-.172,3.03822,3.03822,0,0,0-.395-.226,5.44393,5.44393,0,0,1-3.166-.115,3.66535,3.66535,0,0,1-.64-.292,1.35,1.35,0,0,0,.04.641Zm2.09-6.833a3.69952,3.69952,0,0,1-.116-.649,2.35408,2.35408,0,0,0-.252-.66,1.10511,1.10511,0,0,0-.362-.4.3.3,0,0,0-.185-.065c-.02,0-.055.007-.026,0a.96058.96058,0,0,1-.088.044,2.57381,2.57381,0,0,0-.495.547,3.76356,3.76356,0,0,0-.355.555,1.88156,1.88156,0,0,0-.176.543,1.12858,1.12858,0,0,0-.007.176v.071a1.46372,1.46372,0,0,0,.071.248,1.011,1.011,0,0,0,.3.386,1.605,1.605,0,0,0,.359.223,2.79091,2.79091,0,0,1,1.342-.888.79861.79861,0,0,0-.01-.135Zm2.4,2.185a1.60018,1.60018,0,0,0-.276-.445,1.821,1.821,0,0,0-.918-.57,1.706,1.706,0,0,0-1.841.832c-.1.165-.143.364-.242.527a7.747,7.747,0,0,0,3.07-.106c.077-.03.16-.093.239-.131a.83922.83922,0,0,0-.027-.112Zm.3,2.032a3.02631,3.02631,0,0,1-.337-.117,1.9081,1.9081,0,0,1-.686-.448.36151.36151,0,0,1-.046-.061,9.77277,9.77277,0,0,1-2.07-.052,4.5,4.5,0,0,0-1.307-.023c-.079.016-.161.03-.243.046a.17417.17417,0,0,1-.041.036c-.05.052-.07.046-.063-.014h0a.32412.32412,0,0,1-.044.158c-.023.053-.06.114-.087.166a1.191,1.191,0,0,0-.153.4.913.913,0,0,0,.211.715,3.048,3.048,0,0,0,2.274.674,3.22994,3.22994,0,0,0,2.3-.791,2.01959,2.01959,0,0,0,.328-.407c.043-.072.076-.148.113-.221l.011-.024c-.064-.019-.163-.046-.158-.046Zm36.1,5.464a11.02683,11.02683,0,0,1,2.022.263,28.04266,28.04266,0,0,1,3.527.926c1.942.672,4.207,1.7,5.418,3.474a2.031,2.031,0,0,0,.657-.607A2.671,2.671,0,0,1,99,68.767a1.194,1.194,0,0,1,1.5.273h0c-.08-.929-1.268-1.447-1.98-1.882a19.5428,19.5428,0,0,0-2.51-1.3,25.053,25.053,0,0,0-9.891-1.875,34.80583,34.80583,0,0,0-5.212.465c-.539.083-1.08.168-1.623.228.167.034.333.066.5.1,2.251.388,4.643.109,6.879.592Zm9.71,32.913a12.77516,12.77516,0,0,0,1.011-.8,5.36867,5.36867,0,0,1-1.452.26,9.64932,9.64932,0,0,0-.823,1.346c.418-.286.874-.533,1.27-.81Zm-15.7,15.308a.563.563,0,0,1,0,.781,2.61291,2.61291,0,0,1-1.089.566c.012.02.023.041.036.06a2.83082,2.83082,0,0,0,.432.487,4.71793,4.71793,0,0,0,1.2.768,4.437,4.437,0,0,0,3.169.48.567.567,0,0,1,.365-.008.644.644,0,0,1,1.177-.323,3.487,3.487,0,0,0,4.591.656A9.07694,9.07694,0,0,0,94,112.634a3.95094,3.95094,0,0,0,.079-2.994c-.333-.938-.829-1.809-1.121-2.765a10.431,10.431,0,0,1,1.82-9.554,1.62417,1.62417,0,0,1-.126-.132,4.60021,4.60021,0,0,0-1.028-1.081,3.462,3.462,0,0,0-1.273-.489,3.31381,3.31381,0,0,0-1.37.064c-.168.043-.335.106-.5.157h0a10.00833,10.00833,0,0,1-.888,1.131,9.77964,9.77964,0,0,0-.73,1.088,10.5332,10.5332,0,0,0-1.064,2.55,9.71383,9.71383,0,0,0-.054,4.81,21.5889,21.5889,0,0,1,.961,3.253l.3.057c.229.043.451.1.676.161a.619.619,0,0,1,.359.276.606.606,0,0,1,.061.462.613.613,0,0,1-.276.359.632.632,0,0,1-.463.06c-.226-.053-.45-.107-.672-.176l-.165-.052a1.9703,1.9703,0,0,1-.1.2c-.87,1.522-3.3,1.025-4.657.632-.227-.065-.45-.142-.671-.223a4.29344,4.29344,0,0,1-.461-.066.57.57,0,0,1-.421-.3,10.383,10.383,0,0,1-2.391-1.593,4.1875,4.1875,0,0,0-.332,1.02.634.634,0,0,1-.074.814,5.188,5.188,0,0,0,1.254,3.286ZM87.26,98.872a2.25486,2.25486,0,0,1-.282.08c-.271.6-.614,1.188-.931,1.756-.188.336-.383.668-.57,1a1.013,1.013,0,0,0-.221.758,2.09186,2.09186,0,0,0,.48.642,4.66886,4.66886,0,0,1,.543.735c.029.05.051.1.078.156-.009-.241-.011-.482,0-.727A13.076,13.076,0,0,1,87.26,98.872Zm-.127,8.814c-.017-.047-.032-.1-.049-.142a2.6,2.6,0,0,1-.858,1.81,4.22513,4.22513,0,0,1-.629.468,2.22906,2.22906,0,0,0,1.616-.249c.498-.448.105-1.379-.081-1.887ZM80,98.842a4.12894,4.12894,0,0,0-.635,2.286,3.841,3.841,0,0,0,.825,2.294,9.54414,9.54414,0,0,0,2.246,1.63.7.7,0,0,1,.281.857.679.679,0,0,1-.809.4,5.758,5.758,0,0,1-3.878-5.041v-.166a.494.494,0,0,1-.548-.17,8.39989,8.39989,0,0,0-3.085-2.642c-.446-.2-1.421-.4-1.573.3-.117.537.675,1.05,1.042,1.3a.56.56,0,0,1-.565.967,1.692,1.692,0,0,0-1.2-.34.565.565,0,0,0-.413.791,3.551,3.551,0,0,0,1.546,1.742c.493.31.17,1.209-.412.978-.265-.105-.53-.211-.793-.323l-.412-.175-.165-.07a.08711.08711,0,0,1-.036-.013l.017.068a2.46315,2.46315,0,0,0,.1.289,3.60985,3.60985,0,0,0,.371.681,9.97042,9.97042,0,0,0,2,2.006,13.69985,13.69985,0,0,0,4.6,2.626,5.44381,5.44381,0,0,1,.768-1.731.52.52,0,0,1,.8-.1,8.45384,8.45384,0,0,0,2.608,1.8.684.684,0,0,1,.32-.008,2.511,2.511,0,0,0,2.756-1.316,4.009,4.009,0,0,0-.134-1.8,4.51812,4.51812,0,0,0-.542-1.585,12.9552,12.9552,0,0,1-.95-1.278,1.807,1.807,0,0,1,.048-1.617,15.75,15.75,0,0,1,1.035-1.706c.145-.224.289-.454.435-.682a7.75717,7.75717,0,0,1-1.632-.154,7.43209,7.43209,0,0,1-2.965-1.312,3.41381,3.41381,0,0,0-.281.256A5.512,5.512,0,0,0,80,98.842Zm1.434-2.662a6.8,6.8,0,0,0,2.884,1.359,7.36907,7.36907,0,0,0,1.781.113,2.194,2.194,0,0,1,1.678.112h0a10.4292,10.4292,0,0,1,.56-.939,7.14822,7.14822,0,0,1,1.016-1.284,1.87394,1.87394,0,0,1-.234-1.124,7.29112,7.29112,0,0,1,.331-1.943.5.5,0,0,1,.957.264,6.18465,6.18465,0,0,0-.212,1.68c0,.01.015.18.026.309l.07-.03c.09-.038.181-.074.273-.106a4.244,4.244,0,0,1,2.5-.01,4.42109,4.42109,0,0,1,2.138,1.38.786.786,0,0,0,.847.5c.564-.118,1.123-.293,1.684-.431a.622.622,0,0,1,.753.4,13.94874,13.94874,0,0,0,1.835-2.441c.33-.561.579-1.205.963-1.729a6.47507,6.47507,0,0,1,1.608-1.039,2.94,2.94,0,0,0,.891-1.526,3.91808,3.91808,0,0,0,.122-1.578c-.007.024-.016.044-.022.07-.177.816-1.44.469-1.251-.345a2.378,2.378,0,0,1,1.267-1.608c.319-.154.67-.115.98-.244a1.076,1.076,0,0,0,.4-.752,12.21222,12.21222,0,0,1,1.648-3.688,5.16384,5.16384,0,0,1,.663-.739c.269-.24.654-.4.9-.652.449-.46-.4-.982-.8-1.048-1.555-.257-2.535,1.243-3.126,2.43a.549.549,0,0,1-.994-.13,1.014,1.014,0,0,0-1.1838-.80934l-.0442.00933a1.865,1.865,0,0,0-1,1.244,3.833,3.833,0,0,1-.173.923.683.683,0,0,1-1.335-.181,9.23757,9.23757,0,0,0,.015-1.942,5.66481,5.66481,0,0,0-.558-1.729,5.474,5.474,0,0,0-2.978-2.6,12.446,12.446,0,0,0-4.45-.738,11.41415,11.41415,0,0,0-2.18.216,8.66667,8.66667,0,0,0-1.118.3c-.118.041-.238.087-.359.129a3.025,3.025,0,0,1-1.5,1.21,5.94921,5.94921,0,0,1-.55.423,5.08172,5.08172,0,0,1-.616.657,4.74265,4.74265,0,0,0-.56.759,10.082,10.082,0,0,0-.822,1.808c-.475,1.3-.831,2.645-1.365,3.929a17.53973,17.53973,0,0,1-2.069,3.761,8.88893,8.88893,0,0,1-2.409,2.359,10.2569,10.2569,0,0,0,3.114,5.041ZM77.109,88.5l.6,1.278c.049.1.1.21.156.317a14.81214,14.81214,0,0,0,3.907-6.235c.448-1.266.738-2.589,1.251-3.832a8.64974,8.64974,0,0,1,.964-1.8,3.676,3.676,0,0,1,1.3-1.277l.032-.029c.078-.065.162-.124.243-.185a.17968.17968,0,0,1,.029-.02l.029-.027q.305-.245.587-.518a3.45872,3.45872,0,0,1,.585-.506l.069-.06a2.72189,2.72189,0,0,0,.468-1.129,5.119,5.119,0,0,0-.877-2.829q-.756-1.518-1.658-2.958c-.518-.826-1.161-1.6-1.654-2.443a22.69972,22.69972,0,0,1-4.16-.459,10.12492,10.12492,0,0,1-3.08-1.26c-.182.463-.442.9-.645,1.358-.228.511-.44,1.034-.643,1.556a22.05975,22.05975,0,0,0-.962,3.183,19.59992,19.59992,0,0,0-.307,6.643,6.41411,6.41411,0,0,0,1.692-1.741,4.00771,4.00771,0,0,0,.5-1.163c.109-.441.119-.884.265-1.317a.534.534,0,0,1,.962-.126c.583.921.14,2.169-.339,3.049a6.894,6.894,0,0,1-2.065,2.23,21.69051,21.69051,0,0,1-2.677,1.567c-.721.382-1.424.853-2.177,1.181.464.216.915.477,1.351.714a16.85869,16.85869,0,0,1,2.1,1.33,11.76369,11.76369,0,0,1,2.687,2.748.652.652,0,0,1,.192.065.574.574,0,0,1,.25.615v.012C76.456,87.1,76.782,87.8,77.109,88.5Zm-3.343-.632q.37.442.779.85a12.253,12.253,0,0,0,1.9,1.558c-.013-.03-.024-.055-.03-.067l-.255-.5c-.41-.808-.791-1.636-1.232-2.429-.268.078-.535.139-.744.209-.189.063-.376.129-.565.192.049.058.097.119.147.184ZM61.174,91.126a1.585,1.585,0,0,0,1.494.4,7.306,7.306,0,0,0,1.959-.566,8.88413,8.88413,0,0,0,.815-.416,11.61479,11.61479,0,0,1-2.133.45,3.34605,3.34605,0,0,1-2.475-.665A1.8781,1.8781,0,0,0,61.174,91.126Zm-1.4-10.873a1.38295,1.38295,0,0,1-.5-.507L59,79.353l-.262-.37c-.027-.038-.078-.09-.107-.138-.136.026-.271.05-.406.084a3.36929,3.36929,0,0,0-.418.14l-.037.015-.043.019a8.3598,8.3598,0,0,1,.251.845,6.16167,6.16167,0,0,1,.225,1.856A1.393,1.393,0,0,1,57.62,82.9a10.64136,10.64136,0,0,0,1.5-.957,2.673,2.673,0,0,0,.931-1.611.9841.9841,0,0,1-.273-.079ZM62.92,79.24a2.9121,2.9121,0,0,0-.331-1.119c-.21-.295-.319-.2-.475.086-.721,1.317-.584,2.972-1.608,4.126A6.679,6.679,0,0,1,58.789,83.6q-1.085.625-2.215,1.169-1.0335.498-2.1.921-.58.232-1.169.442c-.118.042-.236.087-.356.127a2.57844,2.57844,0,0,0,.289.5,1.964,1.964,0,0,0,1.039.708c.044.011.089.02.134.029.011,0,.1.012.1.012a2.36224,2.36224,0,0,0,.339-.006l.126-.012c.011,0,.1-.019.106-.021a2.39081,2.39081,0,0,0,.293-.089l.088-.039q.075-.038.146-.082c.037-.023.074-.049.11-.074.009-.009.055-.046.071-.062.041-.038.076-.079.116-.118l.023-.021.014-.023a1.75038,1.75038,0,0,1,.252-.357.64.64,0,0,1,.755-.1.653.653,0,0,1,.287.7,1.59,1.59,0,0,1-.6.838,2.86954,2.86954,0,0,1-.437.294l.064.046a3.71286,3.71286,0,0,0,.584.339,4.19014,4.19014,0,0,0,1.133.308,4.05241,4.05241,0,0,0,.639.035c.1,0,.2-.006.305-.013l.11-.01.092-.016a1.59069,1.59069,0,0,0,.488-.163c.037-.021.072-.044.107-.066l.051-.036q-.0555.042-.006,0l.09-.089c.028-.033.029-.031,0,.005l.037-.053a.65.65,0,0,1,.871-.228.675.675,0,0,1,.3.728c.005.005.011.007.017.013a1.754,1.754,0,0,0,1.366.774,6.1279,6.1279,0,0,0,1.913-.369c1.257-.376,2.489-.816,3.724-1.26,1.307-.47,2.616-.935,3.919-1.417.637-.236,1.269-.487,1.9-.73.061-.024.135-.059.2-.09a12.81994,12.81994,0,0,0-2.141-2.18,19.557,19.557,0,0,0-1.9-1.342c-.423-.265-.87-.5-1.3-.756a4.83,4.83,0,0,1-1.376.871,3.491,3.491,0,0,1-2.1.293,2.829,2.829,0,0,1-1.9-1.384h-.008C62.845,80.97,63.053,79.987,62.92,79.24Zm1.324,1.941a1.47641,1.47641,0,0,0,.263.32,1.81,1.81,0,0,0,1.079.4c.053,0,.106-.019.159-.022a7.49934,7.49934,0,0,1-.959-1.391c-.145-.232-.28-.471-.413-.711a2.5799,2.5799,0,0,1-.13,1.404ZM58.365,57.472a6.67575,6.67575,0,0,0-.137-.819,2.672,2.672,0,0,0-.667-1.278,2.352,2.352,0,0,0-2.775-.092,4.572,4.572,0,0,0-1.855,1.981,4.812,4.812,0,0,0-.432,1.278c-.011.059-.018.118-.026.178a.2.2,0,0,1,.1.187,1.074,1.074,0,0,0,.645.932,1.377,1.377,0,0,0,1.2-.124,5.037,5.037,0,0,0,2.158-2.306.593.593,0,0,1,.8-.211.6.6,0,0,1,.211.8,6.051,6.051,0,0,1-1.352,1.769,4.99083,4.99083,0,0,1-1.387.937,2.31455,2.31455,0,0,1,.035.566c.006.215.018.431.038.646a9.517,9.517,0,0,0,.21,1.286,12.73133,12.73133,0,0,0,.356,1.289c.067.195.147.383.229.571.064-.062.128-.125.187-.191a6.50922,6.50922,0,0,0,.7-.978,15.5732,15.5732,0,0,0,1.117-2.26,16.825,16.825,0,0,0,.775-2.5c.058-.257.112-.519.158-.781A1.345,1.345,0,0,1,58.365,57.472Zm4.323.976c-.528-.5-1.055-1.011-1.622-1.47a1.114,1.114,0,0,0-1.493-.269c.681.5.2,1.99.047,2.653a17.0134,17.0134,0,0,1-.878,2.722,14.82938,14.82938,0,0,1-1.326,2.551,5.99183,5.99183,0,0,1-1.178,1.408A22.34937,22.34937,0,0,0,58.975,68.5a20.1193,20.1193,0,0,0,2.888,1.758.30911.30911,0,0,1,.112.02,1.814,1.814,0,0,1,.449.225,14.925,14.925,0,0,1,.343-1.964,9.87163,9.87163,0,0,1,.138-1.606,12.80432,12.80432,0,0,1,.648-2.306A13.116,13.116,0,0,1,65.818,60.8,13.06213,13.06213,0,0,1,62.688,58.448Zm11.512.539a5.471,5.471,0,0,0-.755-.153,6.761,6.761,0,0,0-2.138.1,8.62692,8.62692,0,0,0-3.931,1.91,11.191,11.191,0,0,0-2.748,3.805,21.59037,21.59037,0,0,0-.878,2.267c-.114.345-.235.686-.355,1.028a19.588,19.588,0,0,0,.028,6.007,16.67784,16.67784,0,0,0,1.124,3.925c.144.335,1.91,3.8,2.2,3.542a.26.26,0,0,1,.36673.02669l.00027.00031c.339-.2.644-.449.969-.663a.494.494,0,0,1,.34-.193.60706.60706,0,0,1,.292-.049,5.569,5.569,0,0,1,2.045-1.676c.6-.354,1.214-.692,1.8-1.065a.412.412,0,0,1-.252-.325,20.231,20.231,0,0,1,.159-7.087,18.22755,18.22755,0,0,1,1.054-3.416,13.29343,13.29343,0,0,1,.767-1.55A7.88316,7.88316,0,0,1,75.2,64.05a4.5,4.5,0,0,1-1.611-1.985A3.1,3.1,0,0,1,74.2,58.987Zm1.4-17.929a3.868,3.868,0,0,1-2.114.975,4.88636,4.88636,0,0,1-1.184-.013c-.137-.017-.277-.032-.414-.059.105.867.1,1.752.147,2.617l-.007-.012a.589.589,0,0,1-.57788.59991L71.444,45.166H71.4a.639.639,0,0,1-.614-.468,16.09924,16.09924,0,0,1-.076-1.9,8.35712,8.35712,0,0,0-.223-1.631,4.008,4.008,0,0,0-1.419-2.287,2.369,2.369,0,0,0-1.281-.623,1.075,1.075,0,0,0-.9.571,2.8,2.8,0,0,0-.325,2.151A3.2052,3.2052,0,0,0,67.007,42c.027.041.058.085.087.127a3.92785,3.92785,0,0,1,.006-.567,1.345,1.345,0,0,1,.432-1.03l.029-.029a.3.3,0,0,1,.491.13.1576.1576,0,0,0,.009.036,2.169,2.169,0,0,1,.074,1.032,2.32761,2.32761,0,0,0,.009.251c0,.047.008.093.012.139v.034a3.73951,3.73951,0,0,0,.1.48c.091.33.19.656.29.984a.11753.11753,0,0,0,.01.03c.459.735.74,1.568,1.221,2.294a4.113,4.113,0,0,0,3.466,1.538,17.7888,17.7888,0,0,0,5.028-.851,46.90093,46.90093,0,0,1,5.286-1.264c1.5-.226,3.856-.513,4.313,1.45a.80229.80229,0,0,1-1.547.426h0c-.185-.687-1.577-.372-2.059-.307a24.62635,24.62635,0,0,0-2.871.6,43.37626,43.37626,0,0,1-6.55,1.534c-.28.615-.656,1.189-.88,1.833a3.832,3.832,0,0,0-.227,2.136c.317,1.389,1.555,1.7,2.823,1.473a14.484,14.484,0,0,0,3.763-1.228,16.06892,16.06892,0,0,0,6.1-5.092.767.767,0,0,1,1.331.166c.2-.284.5-.49.71-.773a2.50813,2.50813,0,0,0,.421-.957,2.435,2.435,0,0,0-.466-2,6.24228,6.24228,0,0,0-1.975-1.656,5.93355,5.93355,0,0,0-1.2-.5,7.7625,7.7625,0,0,1-1.275-.286.34193.34193,0,0,1-.147-.145.66265.66265,0,0,1-.2-.071.98475.98475,0,0,1-.209-.176q-.09-.092-.185-.179l-.058-.055c-.321-.067-.638-.3-.947-.381a1.50618,1.50618,0,0,0-.586-.053,2.469,2.469,0,0,0-1.546-.218,1.97968,1.97968,0,0,1,.186-.25h-.059a.467.467,0,0,1-.445-.328,1.65,1.65,0,0,1-1.228.048,5.13269,5.13269,0,0,0-1.114-.117,2.794,2.794,0,0,0-1.824.83ZM92.159,17.863c.231-.63.489-1.249.745-1.869.007-.047.022-.154.022-.142.006-.052.011-.1.016-.156.011-.137.015-.274.017-.412,0-.247-.014-.491-.019-.736-.406-1.491-2.477-1.814-3.783-1.8A20.146,20.146,0,0,0,80.6,14.866a21.69994,21.69994,0,0,0-3.761,2.344,20.27511,20.27511,0,0,0-1.683,1.467q-.414.4-.8.827a2.94472,2.94472,0,0,1-.413.4v.225a15.99162,15.99162,0,0,1,1.2,2.414c.491,1.1.953,2.216,1.374,3.345q.646,1.733,1.182,3.505a22.53391,22.53391,0,0,1,.889,3.511.717.717,0,0,1-.632.716.726.726,0,0,1-.773-.46,7.994,7.994,0,0,0-5.239-.976A3.686,3.686,0,0,0,69.7,33.223a2.109,2.109,0,0,0-.457,1,1.99,1.99,0,0,0,.077,1.093.391.391,0,0,1-.016.382c1.3,1.066,3.566.9,5.1.823a22.625,22.625,0,0,0,3.45-.435c.54-.111,1.075-.245,1.607-.387.5-.134.952-.343,1.434-.522a.384.384,0,0,1,.314.017c.1-.252.228-.5.34-.718a7.88029,7.88029,0,0,1,.909-1.41,4.6,4.6,0,0,1,2.551-1.641,3.424,3.424,0,0,1,2.845.674c.022.017.038.037.058.055a9.04687,9.04687,0,0,1,1.76-1.5c.058-.042.119-.081.178-.122a.748.748,0,0,1-.223-.561,31.87346,31.87346,0,0,1,1.229-8.164C91.226,20.475,91.68,19.165,92.159,17.863Zm4.7,15.778A9.49971,9.49971,0,0,0,98.9,31.892a2.5,2.5,0,0,0,.589-2.3c-.329-.878-1.383-.688-2.129-.605a16.184,16.184,0,0,0-4.893,1.382,16.54783,16.54783,0,0,0-2.237,1.237c-.6.393-1.133.878-1.73,1.264a4.242,4.242,0,0,1,.45,1.891,11.93766,11.93766,0,0,1,1.428-.846,1.859,1.859,0,0,1,1.648-.118,1.609,1.609,0,0,1,.926,1.041,2.11206,2.11206,0,0,1,1.171-.2.657.657,0,0,1,.355-.072,3.8,3.8,0,0,0,2.38-.925ZM86.667,52.129a3.136,3.136,0,0,1,.649-1.2,3.765,3.765,0,0,1,1.363-.559,12.89862,12.89862,0,0,0,1.585-.654,3.88584,3.88584,0,0,0,1.2-.755c.108-.12.345-.5.138-.658a1.63392,1.63392,0,0,1-.663.214.4.4,0,0,1-.277-.669,4.80152,4.80152,0,0,1,.638-.488,5.51112,5.51112,0,0,0,.55-.5,4.57593,4.57593,0,0,0,.812-1.227,3.99978,3.99978,0,0,0,.36-1.351,4.61765,4.61765,0,0,0-.009-.78c-.016-.159-.057-.321-.083-.485a.488.488,0,0,1-.017-.613q1.008-1.495,1.907-3.063a1.375,1.375,0,0,0,.267-1.4c-.313-.392-.862.12-1.113.342-.433.384-1.218-.132-.844-.651.027-.038.057-.072.086-.107h0l.007-.006c.252-.319.542-.58.824-.876a.787.787,0,0,0,.294-.688.679.679,0,0,1-.394-.273,2.56494,2.56494,0,0,0-1.383.88.588.588,0,0,1-.831-.831.646.646,0,0,0-.639-1.081,5.13689,5.13689,0,0,0-1.11.53,9.44866,9.44866,0,0,1-1.178.512.274.274,0,0,1-.34-.091.706.706,0,0,1-.934-.662,2.1,2.1,0,0,0-.651-1.882,2.213,2.213,0,0,0-1.9-.3,4.09,4.09,0,0,0-1.944,1.314,8.23563,8.23563,0,0,0-.785,1.1,4.34719,4.34719,0,0,1-.751,1.084.29305.29305,0,0,1-.447-.068,8.81614,8.81614,0,0,1-3.29.949c-.306.052-.613.1-.921.138a.23423.23423,0,0,1,0,.052q-.009.042-.016.084v.02a1.67631,1.67631,0,0,1-.025.18v.012a.26905.26905,0,0,1-.006.069v.142c0,.047.006.086.008.129h0a.39294.39294,0,0,0,.012.067,1.80693,1.80693,0,0,0,.074.261.186.186,0,1,1,.01.028.389.389,0,0,0,.043.107.3225.3225,0,0,0,.021.052h0a1.72079,1.72079,0,0,0,.135.236l.001.022c-.006,0-.006,0,.018.026h0l.008.013v-.008c.026.03.052.059.081.088l.018.019a5.35907,5.35907,0,0,1,.538-.038,6.05493,6.05493,0,0,1,1.116.071,1.14474,1.14474,0,0,1,.079-.2.29864.29864,0,0,1,.015-.03.55284.55284,0,0,1,.184-.184c-.074-.124-.15-.246-.22-.372a1.56836,1.56836,0,0,1-.123-.334.95211.95211,0,0,0-.115-.242.173.173,0,0,1,.234-.235,3.1561,3.1561,0,0,0,.287.132,1.05977,1.05977,0,0,1,.383.234,4.4476,4.4476,0,0,1,.485.588,4.77492,4.77492,0,0,1,.355.611,2.84387,2.84387,0,0,1,.292.728h.031a.3.3,0,0,1,.047-.216,5.80073,5.80073,0,0,1,.559-.607,3.26956,3.26956,0,0,0,.433-.663c.268-.509.492-1.041.763-1.549a12.42,12.42,0,0,1,2.378-3.125.625.625,0,0,1,.883.884c-.028.028-.055.058-.083.086a2.87582,2.87582,0,0,1,.614.634,3.3,3.3,0,0,1,.594,2.027.546.546,0,0,1-1.092,0c0-.04-.007-.079-.011-.119-.011-.059-.021-.119-.033-.177a3.8678,3.8678,0,0,0-.11-.394c-.018-.055-.04-.108-.06-.162h0c-.015-.031-.029-.062-.044-.092-.058-.116-.125-.227-.189-.339-.034-.059-.069-.117-.106-.174s-.072-.093-.1-.141c.017.022.035.038,0,0h0l-.014-.021.012.02c-.024-.027-.048-.055-.073-.081s-.037-.037-.056-.055a.118.118,0,0,1-.044-.039l-.026-.017-.032-.019a13.43833,13.43833,0,0,0-.947,1.26,1.19,1.19,0,0,1,.437.525,1.63393,1.63393,0,0,1,.113.588c0,.042.009.085.012.125a2.176,2.176,0,0,1-.3,1.249,2.42494,2.42494,0,0,1-1.487,1.116.51148.51148,0,0,1,.056.014q.128.042.253.091c.075.03.15.061.224.093h0l.021.008a2.98561,2.98561,0,0,1,.6.294,2.42432,2.42432,0,0,1,.443.35l.006-.006v-.013l.013-.023a.4999.4999,0,0,1,.2-.185c.037-.02.07-.045.106-.067h0l.048-.042c.147-.132.279-.282.418-.423l.493-.5c.078-.079.158-.154.242-.227a1.66555,1.66555,0,0,1,.316-.258.43.43,0,0,1,.466.033.417.417,0,0,1,.15.441,1.36006,1.36006,0,0,1-.3.417c-.087.1-.177.19-.27.281l-.532.516a2.83323,2.83323,0,0,1-.566.444l-.06.032c.172.026.338.059.486.089a5.87787,5.87787,0,0,1,1.488.54,6.46209,6.46209,0,0,1,2.426,2.133,3.6,3.6,0,0,1,.489,2.77,3.91111,3.91111,0,0,1-.541,1.294,2.171,2.171,0,0,1-1.126.981.613.613,0,0,1-.677-.348c-.009.015-.014.03-.024.045a16.86023,16.86023,0,0,1-3.688,3.964,15.45792,15.45792,0,0,1-2.358,1.489.59992.59992,0,0,1-.023.174,1.43887,1.43887,0,0,1-.5.8c-.019.014-.038.026-.057.04a17.72118,17.72118,0,0,1,2.062-.2h.28c.294-.081.59-.151.889-.207a10.05946,10.05946,0,0,0,1.7-1.623A6.22123,6.22123,0,0,0,86.667,52.129ZM109.33,65.464a33.52931,33.52931,0,0,0-2.6-2.2A38.69945,38.69945,0,0,0,96.219,57.6a30.48206,30.48206,0,0,0-10.494-1.879.381.381,0,0,1-.249.3,3.55034,3.55034,0,0,1-1.008.139c-.336.032-.667.073-1,.1-.675.049-1.353.092-2.023.188a11.82722,11.82722,0,0,0-3.5,1.007c-1.741.846-4.359,2.911-3.06,5.063a6.94485,6.94485,0,0,0,1.522,1.173,8.25953,8.25953,0,0,0,.785.372,4.32822,4.32822,0,0,0,.44.023,10.08884,10.08884,0,0,0,1.824-.2c1.043-.2,2.069-.441,3.121-.587a27.47789,27.47789,0,0,1,10.816.528,21.341,21.341,0,0,1,4.983,2.013c.83.466,4.059,2.189,2.733,3.459a.343.343,0,0,1-.308.1,2.786,2.786,0,0,0,1.551,1.246,1.738,1.738,0,0,0,1.5-1.207,7.27138,7.27138,0,0,1,1.128-1.85,3.344,3.344,0,0,1,2.033-.912,6.35811,6.35811,0,0,1,2.434.3,3.87693,3.87693,0,0,0,1.893.415C110.628,66.79,110,66.091,109.33,65.464Zm-24.123-30h0v-.006h0Zm-8.085,3.3a.16575.16575,0,0,0-.02-.029.09313.09313,0,0,1,.024.033Zm.6,4.629c.09-.045.176-.1.265-.144a3.81735,3.81735,0,0,0,.445-.273,3.35592,3.35592,0,0,0,.281-.249c.11-.113.205-.238.314-.352a.84.84,0,0,1,1.318,1.017,2.72478,2.72478,0,0,1-.584.669,4.5,4.5,0,0,1-.708.51,3.02179,3.02179,0,0,1-.808.319,1.085,1.085,0,0,1-1.2-.363.605.605,0,0,1,.034-.626.968.968,0,0,1,.293-.3.97945.97945,0,0,1,.2-.139c.046-.023.097-.045.147-.069Z"/>
</svg>
