<svg id="usa_normandy_pilot_assaulter_2_icon" data-name="usa normandy pilot assaulter 2 icon" xmlns="http://www.w3.org/2000/svg" width="150" height="150" viewBox="0 0 150 150">
  <defs>
    <style>
      .cls-1 {
        fill: #35508d;
      }

      .cls-1, .cls-2, .cls-3, .cls-4, .cls-5, .cls-6 {
        fill-rule: evenodd;
      }

      .cls-2 {
        fill: #f2f2f2;
      }

      .cls-3 {
        fill: #3a2828;
      }

      .cls-4 {
        fill: #b8864a;
      }

      .cls-5 {
        fill: #f5f6b4;
      }

      .cls-6 {
        fill: #8cc953;
      }

      .cls-7 {
        fill: #e03131;
      }
    </style>
  </defs>
  <path class="cls-1" d="M75,3.545A71.455,71.455,0,1,0,146.456,75,71.455,71.455,0,0,0,75,3.545"/>
  <path class="cls-2" d="M75,147.826A72.826,72.826,0,1,1,147.826,75,72.826,72.826,0,0,1,75,147.826ZM75,6.008a68.993,68.993,0,1,0,68.993,68.993V75A69.071,69.071,0,0,0,75,6.008Zm0,134.356A65.364,65.364,0,1,1,140.364,75,65.364,65.364,0,0,1,75,140.364ZM75,13.818A61.182,61.182,0,1,0,136.182,75,61.182,61.182,0,0,0,75,13.818Z"/>
  <path class="cls-2" d="M24.637,45.3A58.53725,58.53725,0,0,0,18.5,59.069L41.546,70.931,40.455,62.34l9.818,5.592L98.137,96.295l9.682,5.046,3.274-1.227,12.408,4.091L92.683,83.614,36.636,46.659l.682,8.041L24.637,45.3"/>
  <path class="cls-3" d="M113.217,55.641c-1.091,8.182-3.818,12.546-3.818,12.546s6.426,4.325,2.455,15C109.671,89.051,101.9,96.55,101.9,96.55c-3.5413,3.27609-6.96522,4.15652-11.319,5.591,0,0-4.772,2.047-23.454,2.591a2.053,2.053,0,0,1-.818,1.5.875.875,0,0,1-.325.056c-.784,0-2.192-.782-4.311-2.783,0,0-4.061.182-7.051.182a13.80562,13.80562,0,0,1-3.04-.182,30.90017,30.90017,0,0,1-6.526.712,16.81009,16.81009,0,0,1-8.2-1.8c-5.726-3.273-8.59-8.865-8.59-10.5,0,0,.409-1.773,3-4.909,0,0,3.955-5.454,7.227-7.772a35.7056,35.7056,0,0,1,7.5-3.819A19.44385,19.44385,0,0,1,50.352,71.6s-1.635-4.64-1.226-7.1a18.0169,18.0169,0,0,1,2.181-5.317s1.909-2.318,2.454-2.865c0,0,1.774-5.454.955-9.272s-5.046-9.409-5.046-9.409.117-.006.34-.006c1.859,0,11.1.436,21.206,8.6a31.22459,31.22459,0,0,1,8.15-1.061,23.616,23.616,0,0,1,10.26,2.152s9.137-9.955,19.636-14.045C109.262,33.278,115.556,38.1,113.217,55.641Z"/>
  <path class="cls-2" d="M94.022,91.253a11.079,11.079,0,0,1-5.045,2.932,6.74411,6.74411,0,0,0,1.5-4.091,1.612,1.612,0,0,1,.955-.75c.75-.273,2.864-.477,3.068-.2A2.955,2.955,0,0,1,94.022,91.253ZM92.59,87.639a2.787,2.787,0,0,1-1.977-.477,29.04518,29.04518,0,0,1-1.636-3.273,5.59,5.59,0,0,1,2.523-.068c.818.341,2.386,3,2.386,3A4.179,4.179,0,0,1,92.59,87.639Zm-5.318,1.977a7.57607,7.57607,0,0,1-2.864-.546c-.408-.204-1.5-3.07-1.5-3.07,2.932-2.046,4.773-1.977,5.046-1.841a9.39993,9.39993,0,0,1,1.3,2.932A16.90751,16.90751,0,0,1,87.272,89.616ZM80.318,91.8c-.273.273-2.727,0-3.068-.136A2.71088,2.71088,0,0,1,76.7,90.3c.75-.75,5.182-3.75,5.182-3.75a17.583,17.583,0,0,1,1.227,2.114C83.181,89,80.59,91.525,80.318,91.8Zm-9.273,4.773a18.80706,18.80706,0,0,1,3-2.25c.682-.2,2.455-.341,2.591-.068a4.767,4.767,0,0,1-1.091,2.386c-.345.134-4.5-.07-4.5-.07Zm2.182-2.591a8.35126,8.35126,0,0,1-1.091-.273l3.886-2.932a1.745,1.745,0,0,1,.2,1.091,26.85479,26.85479,0,0,1-2.995,2.112Zm-11.8,4.568S64.022,95.48,67.5,95c0,0,.545,2.727-1.159,9.273-.001.002-.887.889-4.91-5.725Zm19.432-5.8c.341-.068,1.909,0,1.909.273s-.818,3-1.3,3.068a41.35078,41.35078,0,0,1-4.432.409,5.66429,5.66429,0,0,1,.409-1.909,32.87391,32.87391,0,0,1,3.418-1.838Zm5.454-1.773a17.22,17.22,0,0,1,3.136-.273,8.047,8.047,0,0,1-2.318,4.159,29.15963,29.15963,0,0,1-4.432.886,18.153,18.153,0,0,1,.954-2.659c.21-.133,2.324-1.974,2.665-2.11Z"/>
  <path class="cls-4" d="M104.742,69.333c3.067.886,7.022,7.022,4.158,13.364a55.024,55.024,0,0,1-8.386,12.339l-2.114-1.5c1.977-2.385,5.114-9.068,1.5-14.385-2.334-3.436-5.123-4.225-6.99-4.225a4.13409,4.13409,0,0,0-2.01.406,5.69992,5.69992,0,0,1-2.518.874.664.664,0,0,1-.55-.191c-.409-.546-.955-2.8,1.909-5.114A16.327,16.327,0,0,1,96.9,68.037a1.721,1.721,0,0,1-.477-.75c-.2-.546-.34-2.659-.818-6.069S93.218,54.2,87.15,53.856q-.38-.021-.747-.021c-5.624,0-9.062,3.619-10.434,4.862s-5.167,3.5-7.942,3.5c-.152,0-.3-.007-.446-.021-2.8-.273-3.75-2.524-5.25-4.432s-3.545-2.592-3.75-2.932.273-.818,0-.886a.15936.15936,0,0,0-.04,0,12.43519,12.43519,0,0,0-2.074.754,18.28214,18.28214,0,0,0,.818-7.16c-.341-4.021-4.091-8.182-4.091-8.182,6,1.159,11.522,6,12.545,7.091s1.024,1.5.886,1.977a18.2864,18.2864,0,0,1-1.3,2.25,22.336,22.336,0,0,1,12.841-3.821,25.3013,25.3013,0,0,1,4.137.344,23.345,23.345,0,0,1,15,8.66h.683c2.453-13.637,10.636-17.046,10.636-17.046l-.478-.955c-7.705,4.3-11.317,13.022-11.317,13.022l-4.092-2.112c9.751-12.069,16.841-13.637,16.841-13.637C116.605,50.786,104.742,69.333,104.742,69.333ZM78.619,53.124a12.621,12.621,0,0,0-9.4,4.344,1.1,1.1,0,0,1-.587.318.281.281,0,0,1-.229-.112c-.232-.288-2.415-3.8-5.807-3.8a5.33118,5.33118,0,0,0-1.967.389h.113a6.064,6.064,0,0,1,4.865,2.867c2.112,3.068,2.726,3.749,3,3.749a1.085,1.085,0,0,0,.953-.682c.409-.614,3-5.318,10.569-6.954A8.18986,8.18986,0,0,0,78.619,53.124ZM60.763,100.7l.887,1.3s-6-.273-7.364-.409l1.841-.75Zm10.909-.819s10.364.751,18.137-1.568a1.887,1.887,0,0,1,.955,1.637s-5.864,3.272-23.251,2.25l.341-1.7Z"/>
  <path class="cls-5" d="M92.114,68.141c-.2.137-6.409,2.727-7.3,9.613a45.22461,45.22461,0,0,0-7.841,7.363c-4.228,4.909-14.727,12.478-23.25,15.069a24.8561,24.8561,0,0,1-7.2,1.2,11.521,11.521,0,0,1-8.069-2.767s6.409-3.682,5.932-7.227c-.462-3.423-6-4.368-9.578-4.368h-.377A30.60892,30.60892,0,0,1,42.546,79.6c5.591-3.688,13.977-5.6,15.614-5.8,0,0-3.437-.386-5.376-.386a6.80148,6.80148,0,0,0-.9.045,16.967,16.967,0,0,1,9.866-3.174,16.771,16.771,0,0,1,4.111.515s-1.022-.818-6.136-1.568c0,0,.614-.954.954-1.636a9.29906,9.29906,0,0,0,1.98.415A1.14132,1.14132,0,0,0,62.8,68c.612-.068.682-1.5.682-1.5a4.32,4.32,0,0,1-2.728-1.024c-1.022-1.022-3.272-4.908-3.886-5.591a3.723,3.723,0,0,0-2.563-.964,3.12126,3.12126,0,0,0-.711.078,4.861,4.861,0,0,1,3.96-2.281,4.7006,4.7006,0,0,1,.54.031c3,.339,4.09,4.023,4.431,4.908.334.868,1.645,3.755,4.763,3.755h.215c3.273-.137,6.068-3,6.886-3.614s5.455-5.113,8.66-6.137a9.81482,9.81482,0,0,1,2.96-.462,7.3,7.3,0,0,1,6.721,3.874C94.842,63.027,92.32,68,92.114,68.141Zm-7-7.433A3.16507,3.16507,0,0,0,83.84,60.5a8.81707,8.81707,0,0,0-5.747,2.416c-2.818,2.568-5.864,5.273-6.068,5.318a5.79957,5.79957,0,0,1-1.114.1,3.114,3.114,0,0,1-2.273-.762,5.15228,5.15228,0,0,0,.431,1.932,3.069,3.069,0,0,0,2.091,1.272,4.198,4.198,0,0,0,.469.023,11.064,11.064,0,0,0,1.554-.137,5.542,5.542,0,0,0,2.364,3.387,4.928,4.928,0,0,0,2.469.526,10.994,10.994,0,0,0,5.553-1.48c1.591-1.159,2.114-4.022,2.206-5.365a28.43677,28.43677,0,0,0-.615-4.771,4.90908,4.90908,0,0,1,3.024,1.659s-.001-2.449-3.069-3.91ZM54.069,62.072A4.62193,4.62193,0,0,0,52.3,63.846c-.818,1.772-.477,2.863-.137,4.5a9.70958,9.70958,0,0,0,1.3,2.318,4.082,4.082,0,0,1-1.364.067c-.273-.136-1.5-1.432-1.568-4.7s1.7-4.363,2.114-4.637a.952.952,0,0,1,1.424.678ZM36.819,98.89a34.41,34.41,0,0,0,4.5,3.41s-2.8-.136-6.2-3.341A3.38113,3.38113,0,0,0,36.819,98.89Z"/>
  <path class="cls-6" d="M79.462,73.312A4.941,4.941,0,0,1,74.348,69.6l1.364-1.227A3.189,3.189,0,0,0,78.2,70.517a2.729,2.729,0,0,0,3.239-3.136A3.522,3.522,0,0,0,79.564,65.1l2.693-2.045a6.5,6.5,0,0,1,2.216,4.5A5.628,5.628,0,0,1,79.462,73.312ZM55.735,69.119a1.732,1.732,0,0,1-1.909-.2,9.0071,9.0071,0,0,1-.818-3.2,4.955,4.955,0,0,1,2.114-4.023,4.24319,4.24319,0,0,1,1.3.955,11.21379,11.21379,0,0,0-1.364,2.523,2.335,2.335,0,0,0,.955,2.386c.682.409,2.182.2,3.545-1.7l1.568,1.091-.955,1.636S56.826,68.574,55.735,69.119Z"/>
  <g>
    <path class="cls-7" d="M87.306,97.91235a30.58869,30.58869,0,0,0,6.51276-2.5274A8.25818,8.25818,0,0,0,92.658,95.3a6.48027,6.48027,0,0,0-1.806.231,42.64424,42.64424,0,0,1-6.682,2.182c-3.887.886-15.819,1.295-15.819,1.295a49.40282,49.40282,0,0,0,6.831.475,44.928,44.928,0,0,0,11.51-1.43C86.89362,97.9928,87.10083,97.95709,87.306,97.91235Z"/>
    <path class="cls-7" d="M89.858,81.905c2.597,0,5.069,1.024,6.242,3.746A6.7,6.7,0,0,1,94.056,93.629l2.24115.1242a12.59878,12.59878,0,0,0,1.02112-.9082c1.204-1.48419,3.27759-4.55627,2.73572-7.602-.844-4.757-4.657-6.649-8.491-6.649a12.12731,12.12731,0,0,0-3.237.445c-4.636,1.295-10.364,7.431-11.113,8.386-.749.955-5.59,5.046-5.59,5.046,4.841-2.796,8.658-6.751,12.341-8.933A12.00025,12.00025,0,0,1,89.858,81.905Z"/>
  </g>
  <path class="cls-4" d="M100.02174,91.02174l1.82609,2.44565s-2.73913,6.81522-17.86957,8.25l.587-2.28261S91.47826,98.94565,100.02174,91.02174Z"/>
  <path class="cls-7" d="M96.20652,90.82609l.09066,2.92708S94.837,95.587,88.11957,97.6413l-1.07609-.68478S93.79348,95.06522,96.20652,90.82609Z"/>
</svg>
