<svg id="Layer_1" data-name="Layer 1" xmlns="http://www.w3.org/2000/svg" width="150" height="150" viewBox="0 0 150 150">
  <defs>
    <style>
      .cls-1 {
        fill: none;
      }

      .cls-2 {
        fill: #7c7c7a;
      }

      .cls-3 {
        fill: #bdbdbb;
      }

      .cls-3, .cls-4, .cls-6, .cls-7, .cls-8 {
        fill-rule: evenodd;
      }

      .cls-4, .cls-9 {
        fill: #181887;
      }

      .cls-5 {
        fill: #181787;
      }

      .cls-6 {
        fill: #db2413;
      }

      .cls-7 {
        fill: #100100;
      }

      .cls-8 {
        fill: #716e61;
      }
    </style>
  </defs>
  <g id="usa_normandy_prem_mgun_2_icon" data-name="usa normandy prem mgun 2 icon">
    <g id="background">
      <rect class="cls-1" x="0.9961" y="1.00167" width="147.99991" height="148"/>
    </g>
    <ellipse class="cls-2" cx="76.86872" cy="82.89422" rx="51.80001" ry="50.31996"/>
    <path class="cls-3" d="M76.37376,1.00173c13.95146,10.17548,31.95119,13.175,53.83347,3.94666C136.51694,61.79714,118.7096,103.174,76.37376,124.335,34.0379,103.174,17.77174,61.79714,24.08048,4.94839,45.96276,14.17671,62.42229,11.17721,76.37376,1.00173Z"/>
    <g>
      <path class="cls-4" d="M77.16279,70.07528l3.39584-2.43437s-.91107,1.754.60939,2.19054S83.102,72.329,83.102,72.329V75.5424a1.436,1.436,0,0,0,1.26493.83369,6.89563,6.89563,0,0,1-2.27.8582A2.30114,2.30114,0,0,1,83.102,78.98758a1.71124,1.71124,0,0,0-1.62019,0,3.97767,3.97767,0,0,1,1.17052,1.38522c-.83442-.03867-1.26528.19591-1.48427.57461a1.66,1.66,0,0,0,.92882,2.18982c-1.5666.55439-2.32258-.6548-2.6271.47489-.26654.9888.97283,1.70573,2.012,1.83668a3.02723,3.02723,0,0,1-2.51672.47666A12.62318,12.62318,0,0,0,80.3148,90.057a20.72145,20.72145,0,0,0,3.73444,4.74381s1.853-.75846,2.51.8376c.65659,1.59606,2.55255,4.41942,3.68581,3.97825s2.1185-2.11743,1.21842-4.37931a17.58742,17.58742,0,0,1-1.21842-7.017c-.071-3.13177,1.50093-5.51682,2.9277-7.5771a6.47492,6.47492,0,0,0,.592-6.1372c-.712-1.30893-3.24-1.17228-4.48154,0a2.15516,2.15516,0,0,0,0,3.17719c.5707.4071,1.78772-1.30715,1.78772-1.30715.7258.56361-.29423,2.75734-1.4037,2.61149-.57283-.07526.56964.94265.29565,1.95983-.274,1.01683-2.24805,1.71247-2.51956,2.66471a4.00484,4.00484,0,0,0,.40638,2.31334c-2.22177-1.529-2.3318-3.6024-.81169-6.09567-1.89206-.22111-2.05923-1.30325-1.80582-2.5955,0,0,1.18507,1.393,1.80582,1.09917.6211-.29353.40531-2.27.40531-2.27-.21047-2.53482,3.02177-3.97186,5.13174-3.73444,1.88638.21225,3.36142,3.21342,3.36142,3.21342a2.696,2.696,0,0,1,2.51281,2.14084c-.12068-.14834-1.96127-.50254-2.51281.2708-.53132.746-.13132,2.10537-1.52436,3.8512s-1.97477,1.979-1.83706,3.19c.13771,1.21132,2.286.45357,2.286.45357A3.34272,3.34272,0,0,1,93.17272,87.54c-.87594.40957-1.66314-.14515-1.70928,1.73839-.0465,1.88354,2.68317.77867,2.68317.77867.16753,2.09863-2.24945,1.74832-1.57157,4.34843.45572,1.74867,2.88619-.811,2.88619-.811.03975,1.81608-.58419,2.82122-1.6965,3.22938,0,0-.62821,4.6178-3.80187,4.879s-3.66133-3.67515-3.90692-4.352c-.24561-.67647-1.38347-.527-1.38347-.527s.23992,3.35-.62323,4.879c-.86316,1.52934-3.17581,2.60082-3.73444,3.79831-.559,1.19785.85322,1.77848.85322,1.77848,1.46261.30276,2.35488-.10435,2.88122-.96713.91035,1.371.49688,2.67-.94728,3.91293v1.00264a2.447,2.447,0,0,0,2.13021-.351,2.41845,2.41845,0,0,1-2.57988,1.9492l-.55545,1.436a2.43513,2.43513,0,0,0,2.27,0,3.01087,3.01087,0,0,1-2.88512,1.40333l-.31375.4472a2.76355,2.76355,0,0,1-.85322,3.71065c-.41383-1.12545-.756-1.354-1.07256-1.26032a5.58172,5.58172,0,0,1-2.08265,2.47128,3.01275,3.01275,0,0,1-.279-3.11545,3.08294,3.08294,0,0,1-2.69666.35741,5.83561,5.83561,0,0,1,.50717-1.92826c.42555-.82163,1.5627-1.38808,1.17584-1.72453-.38685-.33681-1.17584,0-1.17584,0s.16327-.84505,1.54993-1.415c1.387-.56964,1.07007,1.73517,2.04609,2.45707s1.9815-1.59179,2.88086-2.83933c.89972-1.24751.268-3.876-.85322-4.42579-2.26969-1.11231-1.30609,1.59357-5.048,2.47659,0,0,1.73377-1.18506,1.61381-2.05174a10.42187,10.42187,0,0,0-.63956-2.93623c-1.04026-2.87838,3.44269-6.69372,3.44269-6.69372s-3.14208,1.08073-4.41694,1.38028c-1.2745.29954-2.511-1.49384-3.79512,0-1.28373,1.49383,1.58754,2.83009,1.48106,3.77381-.10611.94372-3.35786.44116-2.94012,1.1517a2.2273,2.2273,0,0,1,0,2.26649c-1.52153-1.09561-2.58167-1.35151-3.30463-.993q-1.04718,1.49863,1.13715,2.05071a2.22488,2.22488,0,0,1-2.5838,0,4.20062,4.20062,0,0,1-3.4331,2.05174,3.32817,3.32817,0,0,1,0-3.10941c-1.57016.19167-2.22391-.30557-2.62532-.993.64346-1.464,2.49081-1.42287,4.0858-1.89065.81453-.23885-.85-1.452-.85-1.452a5.34335,5.34335,0,0,1,1.84308,0c.78862.19167.52314,1.43883.97956,2.06916.45643.63068,1.03317-.17035,2.14832-.6172s3.327-2.12594,2.603-2.42655c-2.13341-.88551-.79111-2.02692-2.16748-2.429-2.077-.60726-2.6814-1.55986-2.5838-2.67749,1.05269,1.08568,1.87148,1.19535,2.5838.86138,0,0-.3283-.20159,1.07362-1.85124,1.40157-1.64965,5.97786-1.48354,7.76664-1.26811,1.78914.21543,2.96427,1.77919,3.62938,1.26811.66512-.51073-1.61558-3.19318-2.70092-4.1085-1.08568-.91534-2.09613-.647-3.68864-1.338a2.26208,2.26208,0,0,1-1.102-1.22162,4.41194,4.41194,0,0,0-1.79339-.69209c-.9384-.01809-.43726,2.87411-.43726,2.87411s-.99306-1.9492-2.34919-1.70359-.6424,2.63206-.6424,2.63206-2.04113-1.4225-3.17757-.51179c-1.1368.9107,1.18293,2.66115,1.18293,2.66115-.121.78366-2.89931-.411-3.5016-1.03033-.51854-.53343-.5771.805-.5771.805.37515,1.68407.18243,3.19638-1.924,4.13051a3.61274,3.61274,0,0,1-.417-2.86063,3.13674,3.13674,0,0,1-2.61077.47523c.351-1.90022.756-2.27465,1.59465-2.828.51-.33683-1.59465-.84115-1.59465-.84115s1.77707-1.95312,2.80349-1.47219c1.02607.48055.80389,1.26421,1.66172,1.20351.85748-.06033,2.795-2.72256,3.9591-3.5339,1.16412-.81169,3.80151-1.57973,4.731-3.11936.92917-1.53961-.59094-2.16781-1.48781-2.35238-.89688-.18419-1.40228,1.60139-1.40228,1.60139-.56467-.46778-.09654-4.3243-.35456-4.81939-.50327-.965-1.78559,1.94742-1.78559,1.94742-1.01967-2.209.20585-3.0026.08589-4.15466l-.2676-.2637c-1.77814,1.08-2.763,1.2745-4.04535.49334,1.64256-.0834,2.285-.87841,2.31442-2.10926-.17143-.07028-.36273-.12777-.40851-.14232-1.15526-.367-1.21417.37478-2.23669.406a1.6629,1.6629,0,0,1-1.6312-.93343c-.15332-.23638-.63885-1.43279-.35846-1.38842.98844.29175,1.74228.219,1.91442-.14694.2598-.55154-.35634-1.68585.05643-2.58271,1.41328-.394,2.11921.88408,2.49862.91248.79253-.39644.685-1.67307.685-1.67307.37941-.24489,2.00883,1.59285,1.36608,2.74065a3.42838,3.42838,0,0,0-.17036,1.69543c.21117.43868.85393.63744,1.25889.828A12.32625,12.32625,0,0,1,67.93,77.729a13.7089,13.7089,0,0,1,2.29844,2.3293c.21365.28359.39572.96716.66049,1.15632.21225.15155,1.118-.45216,1.40831-.50432,1.51018-.27046,3.20419.29209,4.58056-.5945.88729-.57141,1.38595-2.90215-.12529-2.94651a2.31471,2.31471,0,0,0-1.45835.471,4.42878,4.42878,0,0,1-1.29651.69954c-.6857.02485,1.49988-2.067-.20976-1.49739-.69137-.033-1.19074.84434-1.771,1.0896A1.888,1.888,0,0,1,69.2808,76.171a2.53571,2.53571,0,0,1,1.02038-1.63473c-.22147.74959-.48978,1.2791.00284,1.81574.76414.833,1.88532-.11641,2.5806-.428a3.12557,3.12557,0,0,1,.97531-.22573c.4834-.05075,1.25321.011,1.64114-.33078a.94473.94473,0,0,0-.66725-1.59216c-.88409-.0227-2.36623,1.89667-2.59585.17852a2.45781,2.45781,0,0,1-.03763-.57459c.12635-1.23866,1.4257-1.2312,2.26863-1.65676.35456-.17924.35527-.6179.66014-.8564A4.23376,4.23376,0,0,1,77.16279,70.07528Z"/>
      <path class="cls-5" d="M77.15975,121.23147a.1968.1968,0,0,1-.16394-.08766,3.214,3.214,0,0,1-.48324-2.80805,3.1752,3.1752,0,0,1-2.39038.12767.19713.19713,0,0,1-.1347-.20154,5.97474,5.97474,0,0,1,.52875-2.0043,4.0475,4.0475,0,0,1,.80489-.97237c.16982-.165.42556-.41379.428-.50265l-.01138-.01031c-.23981-.20916-.794-.04228-.96922.03252a.197.197,0,0,1-.27073-.21853c.00749-.03881.20027-.95632,1.66833-1.55987a.96964.96964,0,0,1,.798-.03453c.41031.18883.58.70285.75972,1.24712a2.55737,2.55737,0,0,0,.6805,1.2684.41806.41806,0,0,0,.34353.09033c.50452-.097,1.09483-1.05107,1.61567-1.89283.22282-.36025.43346-.70057.64477-.99378a3.12092,3.12092,0,0,0,.26136-2.47871,2.51829,2.51829,0,0,0-1.04156-1.655c-1.00141-.49061-1.23346-.19552-1.74294.45085a5.03524,5.03524,0,0,1-3.17312,2.0407.197.197,0,0,1-.15645-.35437c.63139-.43212,1.605-1.31965,1.52989-1.86217-.02368-.171-.04148-.32975-.05915-.48592a8.945,8.945,0,0,0-.57049-2.41046c-.82731-2.28895,1.58368-5.05565,2.822-6.28-1.02832.34353-2.70407.889-3.56591,1.09147a2.62384,2.62384,0,0,1-1.59613-.29388c-.7529-.30793-1.403-.574-2.09463.23045-.6348.73872-.1078,1.4136.70613,2.28627.46772.50158.8716.93463.82122,1.38121-.07361.65454-1.07837.75839-1.96489.84992a3.75176,3.75176,0,0,0-1.00195.17866l.0008.00134a2.40789,2.40789,0,0,1-.00535,2.47469.19677.19677,0,0,1-.27956.05139c-1.3428-.96675-2.37112-1.30212-3.0573-.9974a1.05569,1.05569,0,0,0-.23734.92848c.12272.32934.55691.59044,1.29054.77578a.197.197,0,0,1,.063.35357,2.37785,2.37785,0,0,1-2.63636.09729,4.336,4.336,0,0,1-3.48367,1.98878.19733.19733,0,0,1-.19244-.1274,3.86221,3.86221,0,0,1-.16173-2.94924,2.35494,2.35494,0,0,1-2.44933-1.12346.197.197,0,0,1-.01024-.17853c.52834-1.20215,1.80651-1.46806,3.04265-1.72514.38789-.08069.789-.1642,1.168-.27528.06751-.0198.08223-.04054.08237-.04068.04289-.12191-.39037-.62349-.99292-1.06311a.19694.19694,0,0,1,.08077-.35289,5.48538,5.48538,0,0,1,1.92487.00241c.59579.1448.71028.74594.81131,1.27629a2.27076,2.27076,0,0,0,.2813.86879c.1798.24825.33778.18936.93618-.17183a6.57625,6.57625,0,0,1,.97926-.51282c1.09643-.43921,2.67189-1.73344,2.62224-2.05194h0l-.02155-.0099c-1.27127-.52768-1.41172-1.18877-1.51423-1.67148-.07982-.37591-.128-.60288-.63292-.75036-1.95311-.571-2.84439-1.51423-2.72482-2.88366a.197.197,0,0,1,.33771-.12c1.03628,1.069,1.745,1.0532,2.21246.88164a4.23346,4.23346,0,0,1,1.15344-1.86191c1.39734-1.64471,5.80474-1.59332,7.94032-1.33611a5.86186,5.86186,0,0,1,2.27957.91282c.60342.356.98469.56514,1.20617.39465.01111-.00856.04041-.03105.04242-.11656.01633-.71356-1.70265-2.80163-2.75037-3.68514a3.79348,3.79348,0,0,0-1.8682-.777,8.808,8.808,0,0,1-1.77178-.531,2.39461,2.39461,0,0,1-1.177-1.26371,3.94027,3.94027,0,0,0-1.64377-.63366.18138.18138,0,0,0-.15785.07454c-.31924.372-.21947,1.77318-.08157,2.569a.197.197,0,0,1-.36956.12312c-.0093-.01807-.94273-1.81588-2.13859-1.59935a.68048.68048,0,0,0-.48538.32413,3.30535,3.30535,0,0,0-.00341,2.05783.197.197,0,0,1-.30131.218c-.01927-.01338-1.93438-1.32768-2.94181-.51964a.56927.56927,0,0,0-.23968.47119c.0097.67087,1.027,1.58382,1.41807,1.87891a.19689.19689,0,0,1,.076.18735.47087.47087,0,0,1-.34634.38341c-.78957.252-2.96972-.77043-3.4911-1.30653a.33122.33122,0,0,0-.07307-.06036,1.63279,1.63279,0,0,0-.1648.71128c.32051,1.45749.36828,3.25838-2.04224,4.32737A.19733.19733,0,0,1,59.446,98.976a3.44434,3.44434,0,0,1-.51469-2.60183,3.24442,3.24442,0,0,1-2.40665.28853.19691.19691,0,0,1-.14252-.2259c.34647-1.87543.7458-2.333,1.62437-2.9198a5.79764,5.79764,0,0,0-1.47656-.522.197.197,0,0,1-.09977-.32412c.19191-.21078,1.90815-2.045,3.03275-1.518a2.20259,2.20259,0,0,1,.93242.81553c.18829.2627.28378.39358.63179.36989.42536-.03,1.36274-1.02644,2.11591-1.82725a13.76942,13.76942,0,0,1,1.74448-1.67187,12.02222,12.02222,0,0,1,1.50225-.81272,7.49439,7.49439,0,0,0,3.17279-2.24679,1.22425,1.22425,0,0,0,.19151-1.12989c-.27153-.62068-1.25535-.867-1.55037-.92768-.58588-.1203-1.05481,1.04451-1.173,1.462a.19717.19717,0,0,1-.31523.0981c-.38019-.315-.38662-1.45669-.353-3.16242a8.40067,8.40067,0,0,0-.05059-1.71765c-.0111-.02114-.04951-.08993-.082-.08993h-.00074c-.27675.0091-.92038,1.05481-1.34788,2.02571a.19684.19684,0,0,1-.17853.11763H64.701a.19718.19718,0,0,1-.17885-.11442,3.678,3.678,0,0,1-.136-3.1477,2.665,2.665,0,0,0,.21018-1.00088l-.10639-.10478c-1.60791.95939-2.70535,1.27455-4.11847.41392a.197.197,0,0,1,.09254-.36494c1.368-.06946,2.04551-.63594,2.12133-1.77947-.10144-.03654-.19492-.06571-.243-.0807l-.02228-.007a1.21141,1.21141,0,0,0-1.15384.11188,2.09846,2.09846,0,0,1-1.01708.30325,1.8559,1.8559,0,0,1-1.80249-1.0231c-.04938-.07614-.64-1.24383-.42362-1.57679a.25605.25605,0,0,1,.26123-.11335l.02495.00569c.94729.27956,1.57272.18688,1.68045-.04189a1.84165,1.84165,0,0,0-.02061-.88679,2.90009,2.90009,0,0,1,.07635-1.69443.19706.19706,0,0,1,.126-.10739,2.31484,2.31484,0,0,1,2.23856.66745,2.40442,2.40442,0,0,0,.28893.22275c.59291-.37036.51369-1.43367.51275-1.44478a.19746.19746,0,0,1,.08946-.18173c.201-.12954.48947-.02683.83454.29729.58521.54962,1.32032,1.76081.82041,2.68668a3.281,3.281,0,0,0-.175,1.53189c.141.29294.57283.47816.91978.627.08718.03734.17042.0732.24563.10853a7.336,7.336,0,0,1,1.64986,1.30092c.20088.1903.39064.37016.56187.517a13.84942,13.84942,0,0,1,2.32749,2.36014,2.87689,2.87689,0,0,1,.27681.52594,2.05071,2.05071,0,0,0,.326.57692l.00228.00013a2.97353,2.97353,0,0,0,.70271-.28692,2.5717,2.5717,0,0,1,.56889-.23941,8.87946,8.87946,0,0,1,1.74187-.07722,4.691,4.691,0,0,0,2.7669-.48886,2.15048,2.15048,0,0,0,.70459-2.032.70763.70763,0,0,0-.72894-.55217,2.12625,2.12625,0,0,0-1.33518.43226,4.60676,4.60676,0,0,1-1.40683.73831.31246.31246,0,0,1-.29977-.14212c-.12306-.20582.03881-.48244.26276-.86505a2.82552,2.82552,0,0,0,.29121-.58842,1.267,1.267,0,0,0-.40877.08819.20026.20026,0,0,1-.07173.0099c-.33711-.01419-.6423.25842-.96455.549a2.78391,2.78391,0,0,1-.72038.5254,2.141,2.141,0,0,1-2.04913-.11041,2.17956,2.17956,0,0,1-.96053-1.82778,3.02042,3.02042,0,0,1,.974-1.7412.34155.34155,0,0,1,.29816-.08712.19685.19685,0,0,1,.134.245c-.02965.10043-.06016.19692-.0896.29006-.20382.645-.28685.9713.04865,1.33678.46778.50947,1.09837.216,1.87428-.22094.171-.09636.33263-.18736.48064-.25374a3.27683,3.27683,0,0,1,1.0352-.24182c.117-.01231.246-.0182.38247-.02435a2.0589,2.0589,0,0,0,1.14916-.25829.61875.61875,0,0,0,.16929-.6997.81416.81416,0,0,0-.71142-.54782,2.2705,2.2705,0,0,0-.97545.43059c-.50131.30432-.97485.592-1.36508.40509-.24069-.11509-.38642-.386-.4455-.828L72.03458,73.92a2.3353,2.3353,0,0,1-.03024-.56052c.10619-1.04076.93878-1.31015,1.67328-1.54783a4.99089,4.99089,0,0,0,.70258-.265.71913.71913,0,0,0,.28364-.36246,1.29669,1.29669,0,0,1,.34387-.47327,4.43692,4.43692,0,0,1,2.081-.82483l3.35513-2.40524a.197.197,0,0,1,.28973.25072,1.97472,1.97472,0,0,0-.17,1.39767.93563.93563,0,0,0,.65882.51288c1.617.46431,2.05489,2.55921,2.07269,2.64813a.19886.19886,0,0,1,.00388.03875V75.5061a1.26628,1.26628,0,0,0,1.0987.67541.197.197,0,0,1,.08471.35424,6.14554,6.14554,0,0,1-1.9521.79224,2.59945,2.59945,0,0,1,.76722,1.63615.197.197,0,0,1-.29188.19525,1.41029,1.41029,0,0,0-1.14313-.10586,3.86084,3.86084,0,0,1,.96943,1.23829.197.197,0,0,1-.1887.27769c-.88244-.04095-1.1632.24008-1.29636.4625a1.45992,1.45992,0,0,0,.84792,1.9343.197.197,0,0,1-.03226.35665,2.99442,2.99442,0,0,1-1.804.04844c-.48378-.10773-.58481-.13061-.6987.292a.82277.82277,0,0,0,.12606.697,2.56684,2.56684,0,0,0,1.72046.893.19689.19689,0,0,1,.08779.357,3.18355,3.18355,0,0,1-2.39721.55939,13.46285,13.46285,0,0,0,1.29369,3.79849A20.24383,20.24383,0,0,0,84.09577,94.573a1.991,1.991,0,0,1,2.64559.99057c.726,1.76489,2.52461,4.22379,3.43221,3.86955a2.25512,2.25512,0,0,0,1.19372-1.22931,3.67205,3.67205,0,0,0-.087-2.89357,17.65809,17.65809,0,0,1-1.23226-7.08551c-.075-3.307,1.68071-5.8424,2.96275-7.6936a6.24723,6.24723,0,0,0,.58094-5.93093,1.71543,1.71543,0,0,0-1.29958-.79024,3.6088,3.6088,0,0,0-2.87363.83929,1.95808,1.95808,0,0,0-.02087,2.87376.15814.15814,0,0,0,.13155.02181c.38849-.06531,1.05333-.82142,1.38107-1.28271a.19664.19664,0,0,1,.13182-.08083.19468.19468,0,0,1,.14962.03921c.37631.29227.426.91483.12954,1.62477-.28277.67755-.88766,1.36542-1.57593,1.34588.0253.05674.05768.12285.08659.18173a2.34573,2.34573,0,0,1,.321,1.62584,3.32865,3.32865,0,0,1-1.36676,1.48841c-.51068.38167-1.03875.77645-1.15344,1.17913a3.83273,3.83273,0,0,0,.39331,2.17145.19706.19706,0,0,1-.288.25011c-2.14816-1.47823-2.49008-3.53164-1.01868-6.1059a2.16814,2.16814,0,0,1-1.45-.776,2.59521,2.59521,0,0,1-.23045-2.00939.19695.19695,0,0,1,.34326-.08979c.43882.51509,1.241,1.20362,1.57151,1.04878.33671-.15911.37431-1.32968.29375-2.07067a3.037,3.037,0,0,1,.99111-2.48032,5.83742,5.83742,0,0,1,4.35855-1.4712c1.799.20241,3.19146,2.69784,3.46808,3.22779a2.86814,2.86814,0,0,1,2.57372,2.26914.197.197,0,0,1-.32466.19659c-.23553-.13449-1.78068-.3707-2.21748.24169a2.5766,2.5766,0,0,0-.31663,1.01586,5.79038,5.79038,0,0,1-1.21406,2.84379c-.33992.42583-.637.76842-.87562,1.0437-.75879.87468-1.01426,1.16936-.91978,2.00122a.48147.48147,0,0,0,.22549.38462,2.71643,2.71643,0,0,0,1.79942-.09462.197.197,0,0,1,.25721.23072,3.51306,3.51306,0,0,1-1.7966,2.22457,2.74716,2.74716,0,0,1-.72614.20341c-.54172.095-.84.14735-.86986,1.36141a.79753.79753,0,0,0,.29214.7343c.53316.36922,1.71135.02208,2.12032-.14306a.197.197,0,0,1,.2702.167,2.29514,2.29514,0,0,1-.898,2.00657,1.96957,1.96957,0,0,0-.6793,2.30782c.10064.38608.28532.43373.34594.44938.54213.13945,1.64163-.75156,2.20691-1.34641a.197.197,0,0,1,.33978.13142c.03841,1.75565-.53891,2.89075-1.716,3.376-.12378.74768-.91884,4.68241-3.96323,4.93306-2.91859.24116-3.70227-2.89477-3.99762-4.075-.0455-.18187-.08137-.3256-.11068-.40616-.13543-.37364-.694-.41459-.99017-.40937.03761.756.1092,3.42887-.65976,4.79107a8.23166,8.23166,0,0,1-2.09141,2.1301,5.91762,5.91762,0,0,0-1.636,1.65461.93316.93316,0,0,0-.05527.76267,1.588,1.588,0,0,0,.78971.74367,2.2507,2.2507,0,0,0,2.65321-.881.19741.19741,0,0,1,.16447-.09434.20317.20317,0,0,1,.16782.08806c.91884,1.38361.61105,2.76656-.91429,4.1115v.75331a2.204,2.204,0,0,0,1.8235-.35477.197.197,0,0,1,.2999.21492,2.58914,2.58914,0,0,1-2.63421,2.09276l-.43975,1.13657a2.20811,2.20811,0,0,0,1.93792-.07534.197.197,0,0,1,.2445.28906,3.19513,3.19513,0,0,1-2.95031,1.4963l-.18829.26832a2.93745,2.93745,0,0,1-.95993,3.84546.19687.19687,0,0,1-.30231-.09019c-.27394-.745-.52767-1.13-.75558-1.14769a5.78071,5.78071,0,0,1-2.10908,2.4569A.19581.19581,0,0,1,77.15975,121.23147Zm-.27916-3.50943a.19692.19692,0,0,1,.17906.27916,2.77911,2.77911,0,0,0,.15858,2.75786,5.51032,5.51032,0,0,0,1.84558-2.2793.19629.19629,0,0,1,.12245-.10546c.57077-.16956.94775.464,1.21607,1.12815a2.5668,2.5668,0,0,0,.58535-3.31057.1968.1968,0,0,1,.01914-.19217l.31369-.44711a.19774.19774,0,0,1,.1737-.08351,2.80483,2.80483,0,0,0,2.28493-.79345,2.60532,2.60532,0,0,1-1.76622-.23513.19712.19712,0,0,1-.09984-.24931l.55551-1.43595a.19713.19713,0,0,1,.18374-.12593h.002a2.18846,2.18846,0,0,0,2.21949-1.32232,2.71683,2.71683,0,0,1-1.816.11321.19712.19712,0,0,1-.15282-.192v-1.00275a.19708.19708,0,0,1,.06851-.14935c1.331-1.14541,1.68112-2.26084,1.06432-3.401a2.71081,2.71081,0,0,1-2.90963.79746.18893.18893,0,0,1-.03506-.0107,2.003,2.003,0,0,1-1.022-.97144,1.32308,1.32308,0,0,1,.06517-1.07247,6.11383,6.11383,0,0,1,1.746-1.795,7.96034,7.96034,0,0,0,1.99534-2.01674c.82382-1.45937.6006-4.73527.59833-4.76819a.19687.19687,0,0,1,.17076-.20931c.05313-.00695,1.29824-.16085,1.59439.65508.03614.09956.07428.252.12245.445.2987,1.19412.99994,3.99106,3.583,3.77788,2.97787-.24517,3.61689-4.66474,3.623-4.70931a.19677.19677,0,0,1,.12727-.15831,2.53681,2.53681,0,0,0,1.562-2.57065c-.532.49154-1.5406,1.30052-2.24559,1.11825a.906.906,0,0,1-.62884-.73149,2.35906,2.35906,0,0,1,.78475-2.68855,1.96732,1.96732,0,0,0,.78769-1.4326,2.86809,2.86809,0,0,1-2.22859.00763,1.17345,1.17345,0,0,1-.46183-1.06806c.03493-1.42965.49609-1.61714,1.19546-1.73986a2.39392,2.39392,0,0,0,.62724-.1721,3.04131,3.04131,0,0,0,1.462-1.61513,2.505,2.505,0,0,1-1.76381-.05474.88018.88018,0,0,1-.408-.67421c-.11415-1.00369.23915-1.41118,1.01346-2.3038.24865-.28679.53048-.61171.86518-1.03125a5.37318,5.37318,0,0,0,1.13457-2.66928,2.871,2.871,0,0,1,.38341-1.17338,1.6952,1.6952,0,0,1,1.38777-.5626,4.28616,4.28616,0,0,1,.9729.08792,2.46108,2.46108,0,0,0-2.2247-1.62718.19751.19751,0,0,1-.1523-.10853c-.01432-.029-1.45-2.907-3.20672-3.10467A5.4118,5.4118,0,0,0,88.51307,73.887a2.65371,2.65371,0,0,0-.87347,2.16013c.03814.34835.19458,2.128-.51737,2.46439-.55216.26043-1.32956-.40442-1.75967-.8435a1.796,1.796,0,0,0,.22509,1.30547,2.014,2.014,0,0,0,1.47329.66056.197.197,0,0,1,.14533.29816c-1.38054,2.26432-1.31978,4.03469.19271,5.391a2.26543,2.26543,0,0,1,1.15143-3.15171c.54079-.40442,1.10018-.82249,1.22222-1.27536a2.00326,2.00326,0,0,0-.29454-1.35c-.142-.28987-.23594-.48137-.11964-.6433a.328.328,0,0,1,.33442-.11054c.49971.06571,1.01614-.50292,1.26492-1.09884a1.43157,1.43157,0,0,0,.11442-.99017c-.3003.38608-.947,1.14059-1.47743,1.23a.55577.55577,0,0,1-.426-.08966,2.24774,2.24774,0,0,1-.77833-1.608,2.29181,2.29181,0,0,1,.75745-1.87275,4.02934,4.02934,0,0,1,3.20618-.94193,2.09557,2.09557,0,0,1,1.58369.991,6.67643,6.67643,0,0,1-.60315,6.34351c-1.25127,1.80677-2.96476,4.28133-2.89263,7.46048a17.322,17.322,0,0,0,1.20442,6.94874,4.16335,4.16335,0,0,1,.082,3.19641,2.65042,2.65042,0,0,1-1.412,1.43929.89575.89575,0,0,1-.32734.06062c-1.35176.00027-3.07035-2.83067-3.61207-4.14751-.57545-1.3982-2.18523-.75811-2.25321-.73028a.19706.19706,0,0,1-.20917-.03827A20.647,20.647,0,0,1,80.139,90.14563a12.7099,12.7099,0,0,1-1.3701-4.203.19688.19688,0,0,1,.23928-.2093,2.8518,2.8518,0,0,0,1.93645-.19565A2.69633,2.69633,0,0,1,79.45887,84.58a1.21606,1.21606,0,0,1-.17933-1.01908c.21211-.78663.69629-.67863,1.16481-.574a2.82874,2.82874,0,0,0,1.1778.07294,1.74877,1.74877,0,0,1-.63875-2.18108.19712.19712,0,0,1,.01419-.03,1.47551,1.47551,0,0,1,1.325-.67354,4.39006,4.39006,0,0,0-.965-1.03487.19692.19692,0,0,1,.04269-.33216,1.99992,1.99992,0,0,1,1.44477-.1448,2.01013,2.01013,0,0,0-.85741-1.26518.197.197,0,0,1,.06316-.35544,9.188,9.188,0,0,0,1.79727-.59084,1.40179,1.40179,0,0,1-.93129-.84269.19746.19746,0,0,1-.01177-.06692V72.35017c-.04443-.19652-.47722-1.95211-1.79125-2.32943a1.32121,1.32121,0,0,1-.91256-.73691A1.79478,1.79478,0,0,1,80.16,68.16914L77.27765,70.2354a.19755.19755,0,0,1-.09154.03546,4.03983,4.03983,0,0,0-1.93564.75029.96457.96457,0,0,0-.23487.34052,1.06706,1.06706,0,0,1-.45775.53657,5.35213,5.35213,0,0,1-.75892.28826c-.70967.22964-1.32259.4279-1.40262,1.21272a2.00668,2.00668,0,0,0,.02857.46725l.00837.06116c.03894.29161.11676.47307.225.52486.19806.09495.61921-.16092.99064-.38642a2.51058,2.51058,0,0,1,1.19-.48772,1.21535,1.21535,0,0,1,1.07167.80736,1.00134,1.00134,0,0,1-.27929,1.12976,2.2976,2.2976,0,0,1-1.39158.3561c-.13048.00589-.25373.01151-.359.02262a2.931,2.931,0,0,0-.91537.20944c-.13148.059-.28545.14573-.44845.23754-.69294.3901-1.64176.92446-2.35786.144a1.2444,1.2444,0,0,1-.26685-1.26879,1.98058,1.98058,0,0,0-.41432.95,1.79246,1.79246,0,0,0,.7806,1.50594,1.75973,1.75973,0,0,0,1.68178.07828,2.48229,2.48229,0,0,0,.61-.455,1.91711,1.91711,0,0,1,1.19968-.65106l.00917.00013c.31462-.10211.65119-.17089.81967.0368.1986.2449-.01893.61667-.27092,1.04705-.068.11616-.15986.27314-.21145.38595a5.70144,5.70144,0,0,0,1.08031-.63219,2.4994,2.4994,0,0,1,1.58167-.50987,1.09255,1.09255,0,0,1,1.097.84029,2.53178,2.53178,0,0,1-.8708,2.46867,5.05346,5.05346,0,0,1-2.98865.55163,8.57779,8.57779,0,0,0-1.66385.07119,2.91,2.91,0,0,0-.46323.20449c-.53838.26738-.88057.4186-1.09423.26631a1.89387,1.89387,0,0,1-.47146-.74808,2.72416,2.72416,0,0,0-.23192-.45006,13.53584,13.53584,0,0,0-2.26934-2.29818c-.17866-.15323-.37183-.3363-.57638-.52994a7.08918,7.08918,0,0,0-1.54682-1.23053c-.07133-.03372-.15035-.06744-.23306-.10291a2.04921,2.04921,0,0,1-1.11931-.81807,3.68894,3.68894,0,0,1,.16012-1.8405.19533.19533,0,0,1,.01579-.03646,1.73263,1.73263,0,0,0-.24269-1.60972,2.49778,2.49778,0,0,0-.75-.81379,1.81662,1.81662,0,0,1-.7984,1.62832.20165.20165,0,0,1-.10284.02027,1.09971,1.09971,0,0,1-.55263-.33035,1.95365,1.95365,0,0,0-1.78737-.612,2.81254,2.81254,0,0,0-.01,1.38429,2.02287,2.02287,0,0,1-.01218,1.1157c-.21325.45353-.95979.56467-1.9691.30177a4.49329,4.49329,0,0,0,.4002,1.04244,1.46565,1.46565,0,0,0,1.46.84376,1.72056,1.72056,0,0,0,.84376-.25721,1.59558,1.59558,0,0,1,1.4585-.13971l.02027.00642c.07294.02275.2437.076.40335.14145a.19687.19687,0,0,1,.12225.187,2.1018,2.1018,0,0,1-1.84244,2.22149c.91844.35451,1.789.12339,3.27417-.77859a.19663.19663,0,0,1,.24048.028l.26759.26364a.19721.19721,0,0,1,.05767.12,2.81792,2.81792,0,0,1-.22382,1.23734,3.229,3.229,0,0,0-.04771,2.44686c.3432-.70713.97184-1.83166,1.50493-1.84933a.47719.47719,0,0,1,.445.30164,5.9656,5.9656,0,0,1,.09522,1.90755,16.5583,16.5583,0,0,0,.06724,2.471c.23888-.56649.7248-1.4124,1.45937-1.26238a2.5773,2.5773,0,0,1,1.832,1.15572,1.58773,1.58773,0,0,1-.21519,1.49148,7.74475,7.74475,0,0,1-3.3376,2.39721,11.8223,11.8223,0,0,0-1.44939.7818A13.60178,13.60178,0,0,0,63.43,90.7809c-.96374,1.0247-1.79607,1.90955-2.37506,1.95023a.98008.98008,0,0,1-.9798-.53343,1.83842,1.83842,0,0,0-.77933-.68812c-.6348-.29817-1.7509.60569-2.34181,1.18622.94106.25173,1.44143.51469,1.48867.78315a.32055.32055,0,0,1-.1636.32988c-.75109.49555-1.13952.81954-1.47442,2.51564a2.9434,2.9434,0,0,0,2.275-.49261.19707.19707,0,0,1,.30111.1994,3.5212,3.5212,0,0,0,.29047,2.57881c1.59452-.76013,2.09249-1.91758,1.66425-3.83984a.19472.19472,0,0,1-.00455-.05139c.01251-.28545.07909-.96368.42677-1.096a.43968.43968,0,0,1,.48839.16233c.47167.48511,2.50748,1.39218,3.08882,1.2059l.00247-.00081c-.39331-.32466-1.41239-1.24444-1.4243-2.06786a.95291.95291,0,0,1,.38723-.78448c.92131-.73845,2.31443-.13156,3.00216.25159a2.92832,2.92832,0,0,1,.15477-1.90607,1.06794,1.06794,0,0,1,.75116-.50586,2.2917,2.2917,0,0,1,2.08306,1.07756,3.291,3.291,0,0,1,.27788-2.03937.58843.58843,0,0,1,.46438-.212,4.32313,4.32313,0,0,1,1.88954.71944.19651.19651,0,0,1,.07989.08939,2.05425,2.05425,0,0,0,1.00055,1.12119,8.49887,8.49887,0,0,0,1.6981.50733,4.1552,4.1552,0,0,1,2.0391.8609c.849.71583,2.913,3.0025,2.89022,3.99535a.51779.51779,0,0,1-.19632.41981c-.4439.34165-1.00115.01271-1.64618-.36762a5.54642,5.54642,0,0,0-2.12662-.86116c-2.39748-.28826-6.39744-.2069-7.593,1.20014-.98361,1.15745-1.05695,1.53832-1.06016,1.61393a.19709.19709,0,0,1-.08.28826,2.16294,2.16294,0,0,1-2.46847-.57759c.078.675.5541,1.47475,2.44017,2.02611a1.1378,1.1378,0,0,1,.90773,1.04665c.0983.46277.19994.94133,1.28,1.38964a.3968.3968,0,0,1,.26411.37725c-.00462.73243-2.016,2.07215-2.86935,2.41394a6.27165,6.27165,0,0,0-.92225.48445c-.53912.32519-1.04826.63286-1.4589.06557a2.537,2.537,0,0,1-.34915-1.026c-.10452-.54908-.1915-.88806-.5173-.96728a4.30366,4.30366,0,0,0-1.30566-.05487c.37591.32038.83647.79452.77417,1.15237a.44826.44826,0,0,1-.35972.352c-.394.11562-.80308.20073-1.1986.283-1.15431.24008-2.24659.46731-2.71933,1.40677.32874.51857.89228.9907,2.37821.8095a.197.197,0,0,1,.18989.30151,3.11372,3.11372,0,0,0-.03138,2.79842,4.03113,4.03113,0,0,0,3.13553-1.95746.19693.19693,0,0,1,.2643-.05821,2.06275,2.06275,0,0,0,1.98222.22442,1.66421,1.66421,0,0,1-1.11122-.88472,1.44658,1.44658,0,0,1,.31282-1.33437.19782.19782,0,0,1,.074-.0637c.805-.3992,1.89329-.11121,3.32348.88a2.00536,2.00536,0,0,0-.10124-1.877.368.368,0,0,1-.02776-.36868c.13516-.26725.57042-.32453,1.32808-.40282.6275-.0649,1.57572-.16286,1.61393-.50211.03-.26645-.35022-.67421-.71791-1.06846-.68813-.73791-1.63059-1.74842-.71683-2.81167.87675-1.02014,1.76174-.65775,2.54261-.33844a2.30724,2.30724,0,0,0,1.35678.275c1.25073-.29374,4.36658-1.36394,4.3979-1.37478a.197.197,0,0,1,.19177.3363c-.04376.0372-4.36685,3.76022-3.38511,6.47673a9.27455,9.27455,0,0,1,.59151,2.50012c.01726.153.0348.30847.058.476.074.5341-.402,1.12828-.8712,1.57218a4.58727,4.58727,0,0,0,1.97124-1.5861c.52459-.66564.93892-1.191,2.22578-.56086a2.85715,2.85715,0,0,1,1.25033,1.9133,3.57246,3.57246,0,0,1-.324,2.80471c-.20328.28183-.41018.61639-.62938.97063-.591.95511-1.202,1.94274-1.87623,2.07242a.80742.80742,0,0,1-.65213-.16059,2.85855,2.85855,0,0,1-.82035-1.46151c-.152-.46062-.29575-.89556-.55042-1.01279a.60738.60738,0,0,0-.48351.04109,2.72418,2.72418,0,0,0-1.259.91871,1.10568,1.10568,0,0,1,.93959.16554.3979.3979,0,0,1,.1464.29441c.00723.25936-.2374.49716-.54707.79827a3.69065,3.69065,0,0,0-.72969.87107,5.40974,5.40974,0,0,0-.46945,1.69637,2.90777,2.90777,0,0,0,2.38188-.38462A.19673.19673,0,0,1,76.88059,117.722ZM67.95191,98.0468l.00027.00013Zm-.00073-.00054.00053.00041Zm-.00067-.0004.00053.0004Zm-.00074-.0004.0006.0004Zm-.00067-.00053.0006.0004Zm-.0008-.00041.00067.00041Zm3.02826-17.00288Zm27.34389-3.21127Zm-.024-.02275.0004.0004ZM77.16283,70.07527h0Z"/>
    </g>
    <path class="cls-6" d="M110.90786,12.84172v4.93333h-1.97333v3.94667h1.97333l.98666,1.97333h3.94667V18.76172h-1.97333l2.96-5.92,2.96,5.92h-1.97333V23.695h1.97333l-4.93333,3.94667,3.56284,12.82666h2.35716v4.93333H106.9612V38.495a2.96,2.96,0,0,0-5.92,0v6.90667H87.22788V40.46838H89.585l3.56285-12.82666L88.21455,23.695h1.97333V18.76172H88.21455l2.96-5.92,2.96,5.92H92.16121V23.695h3.94666l.98667-1.97333h1.97333V17.77505H97.09454V12.84172h1.97333v2.96h1.97333v-2.96h1.97333v2.96h1.97333v-2.96h1.97334v2.96h1.97333v-2.96Zm-.98667,17.76h2.96v2.96h-2.96Zm-14.8,0h2.96v2.96h-2.96Zm7.89332-8.88H101.0412V17.77505h1.97333Zm3.94667,0h-1.97334V17.77505h1.97334Z"/>
    <path class="cls-7" d="M35.818,80.47066l.296-.34435,4.48736,3.86181-1.84506,2.144Q37.19641,83.37049,35.818,80.47066Zm81.91694-.21213q-1.409,2.8623-2.99553,5.59537l-1.60529-1.86578,4.48733-3.86181ZM39.45,76.62561l-2.09667,2.08878,4.17754,4.19433,2.09666-2.08878Zm74.83563,0,2.09666,2.08878-4.17755,4.19433L110.108,80.81994ZM43.06805,73.37947l-2.2565,1.91513,3.83024,4.513,2.25748-1.91513Zm67.59944,0L112.925,75.2946l-3.83122,4.513-2.25652-1.91513Zm-76.8366,2.60876H36.9083v1.0804l-.59989.597a1.47949,1.47949,0,0,0-.43414,1.00045,1.4833,1.4833,0,0,0-.65612.2822h-.10656Q34.44854,77.48448,33.83089,75.98823Zm85.87543,0q-.63048,1.45778-1.30241,2.882a1.48291,1.48291,0,0,0-.54265-.20424,1.47044,1.47044,0,0,0-.43414-1.00045l-.5989-.597v-1.0804Zm-72.738-5.55888L44.555,72.1422,47.97967,76.97l2.41438-1.71185Zm59.79885,0,2.41436,1.71285L105.75585,76.97l-2.41437-1.71185ZM51.18733,67.82059l-2.57026,1.46916,2.93729,5.13956,2.57028-1.46916Zm51.36185,0,2.56928,1.46916-2.93729,5.13956-2.56928-1.46916ZM120.77489,73.416c-.08091.20029-.16182.40155-.24173.5989h-6.82874l-1.80953-1.53625V71.0549h8.88Zm-87.81325.39171.074.19337.00591.01382h6.99054l1.80954-1.53625V71.0549h-8.88ZM55.723,65.644l-2.71727,1.17314L55.352,72.25174l2.71727-1.17317Zm42.29047,0,2.71727,1.17314-2.34728,5.43458-2.71727-1.17317ZM60.58334,64.00024l-2.84455.81892,1.63886,5.68914,2.84356-.819Zm32.56985,0,2.84355.81892L94.35888,70.5083l-2.84456-.819ZM65.565,63.01159l-2.92152.47855.958,5.842,1.96349-.32164Zm22.60548,0,2.92151.47855-.95707,5.842-1.96444-.32164Zm-43.36888,3.11h-5.92v2.96h5.92Zm64.13327,0h5.92v2.96h-5.92Zm-78.582,0h6.5554v2.96H31.2774Q30.79641,67.61639,30.3529,66.12157Zm93.01394,0q-.46914,1.49481-.97778,2.96h-5.56084v-2.96Zm-16.40527,2.84061V66.12157h-4.92544a1.40751,1.40751,0,0,1,.11249.27431,1.47263,1.47263,0,0,1,1.13466.1401l2.57024,1.46814a1.48,1.48,0,0,1,.70944.96A1.45635,1.45635,0,0,1,106.96157,68.96218ZM51.69941,66.12157H46.775v2.84061a1.45668,1.45668,0,0,1,.3986.002,1.47361,1.47361,0,0,1,.70943-.96L50.45225,66.536a1.47318,1.47318,0,0,1,1.13468-.1401A1.47036,1.47036,0,0,1,51.69941,66.12157Zm-2.95112-4.93333h-5.92v2.96h5.92Zm-7.89332,0h-5.92v2.96h5.92ZM56.64162,63.8266V61.18824h-5.92v2.96h5.698A1.43742,1.43742,0,0,1,56.64162,63.8266Zm40.45329,0V61.18824h5.92v2.96h-5.699A1.46689,1.46689,0,0,0,97.09491,63.8266Zm7.89333-2.63836h5.92v2.96h-5.92Zm-75.97228,0h3.94568v2.96H29.78852Q29.3845,62.68007,29.016,61.18824Zm95.70559.25356q-.36408,1.36455-.75677,2.70644h-3.18989v-2.96h3.94666Zm-11.84-.25356h5.92v2.96h-5.92Zm-48.34662.49234v-.49234h-5.92V63.0274l1.55795-.449a1.47391,1.47391,0,0,1,1.19287.16576,1.476,1.476,0,0,1,1.039-.71435ZM95.12158,63.0274l-1.55895-.449a1.47445,1.47445,0,0,0-1.19286.16576,1.474,1.474,0,0,0-1.039-.71435l-2.12922-.34928v-.49234h5.92ZM52.695,56.25491h-5.92v2.96h5.92Zm7.89333,0h-5.92v2.96h5.92Zm7.89332,0h-5.92v2.96h5.92Zm-23.68,0h-5.92v2.96h5.92Zm40.45329,0h5.92v2.96h-5.92Zm-57.22661.56734v-.56734h8.88v2.96h-8.361Q28.27646,58.02646,28.02831,56.82225Zm65.11994-.56734h5.92v2.96h-5.92Zm7.89332,0h5.92v2.96h-5.92Zm7.89333,0h5.92v2.96h-5.92ZM125.70821,57.435q-.20424.89242-.42031,1.77993h-8.45968v-2.96h8.88Zm-61.17327-6.1134h-5.92v2.96h5.92Zm-15.78665,0h-5.92v2.96h5.92Zm33.54663,0h4.93333v2.96h-5.92Zm-10.85332,0H66.50827v2.96h5.92Zm-14.8,0h-5.92v2.96h5.92Zm-29.6.11345v-.11345h5.92v2.96H27.532Q27.27155,52.86965,27.04165,51.435ZM40.855,51.32158h-5.92v2.96h5.92Zm64.13327,0h5.92v2.96h-5.92Zm-15.78666,0h5.92v2.96h-5.92Zm23.68,0h5.92v2.96h-5.92Zm-15.78665,0h5.92v2.96h-5.92Zm29.6,1.32312q-.15243.82138-.31475,1.63688h-5.60524v-2.96h5.92ZM26.32927,46.38825h43.139v2.96H26.723Q26.51131,47.88008,26.32927,46.38825Zm101.36215,0q-.19981,1.49034-.43218,2.96h-42.991v-2.96Z"/>
    <path class="cls-8" d="M76.37376,1.00173c13.95146,10.17548,31.95119,13.175,53.83347,3.94666C136.51694,61.79714,118.7096,103.174,76.37376,124.335,34.0379,103.174,17.77174,61.79714,24.08048,4.94839,45.96276,14.17671,62.42229,11.17721,76.37376,1.00173Zm0,1.15541a48.75207,48.75207,0,0,0,26.23643,9.20061c8.1617.39764,17.10089-1.14053,26.7998-5.06552,2.72715,25.9286.37789,48.58542-7.1168,67.50672-8.56428,21.61982-23.85266,38.34382-45.91943,49.48724-22.11612-11.17106-36.99208-27.95227-45.138-49.653C24.14559,54.74444,22.1476,32.14489,24.8777,6.29223c9.64465,3.91216,18.24541,5.45232,26.047,5.06949A47.0198,47.0198,0,0,0,76.37376,2.15714Z"/>
    <path class="cls-3" d="M83.72657,132.27852a53.8626,53.8626,0,0,1-.72224-8.91649l-.08485-.4529c-.15787-.20225-.2062-.38872-.10262-.54759l.10262.54759a1.555,1.555,0,0,0,.10361.1184c.06019-.87911.2062-1.45335.46768-1.52339,20.23553-5.35663,30.53828-13.78373,37.664-22.88672.64232-.81992,1.24318-1.61023,1.8036-2.38082-.54955-.52393-1.13367-1.11593-1.71384-1.73555-2.442-2.60677-5.82526-4.3226-4.22982-6.26335a35.77439,35.77439,0,0,0,4.22982-4.75673c2.98764-4.17557,2.24764-6.67873,2.71333-9.64761.58412-3.73258,1.95165-11.36641,8.3265-13.67126a10.07232,10.07232,0,0,0,.53772,8.25249c3.37046-2.16869,6.15383-2.36011,8.59978-1.41785a14.33377,14.33377,0,0,0-5.82232,11.21149c-.13221,3.73454.23679,7.81932-3.36947,13.4532,1.59842,1.29154,3.27869,2.71135,4.48835,3.88843,1.17414,1.14355.57226,4.17361,0,5.05471-7.55193,11.6101-17.317,23.03963-38.847,30.89053l3.06262,7.9328a3.78807,3.78807,0,0,1-2.369,4.26437,55.41706,55.41706,0,0,1-20.715,3.64278q-.37-.00149-.72124-.02369-.34932.02221-.72127.02369a55.41545,55.41545,0,0,1-20.71405-3.64278,3.78807,3.78807,0,0,1-2.369-4.26437l3.06261-7.9328c-21.531-7.8509-31.29506-19.28142-38.847-30.89053-.57325-.8811-1.17413-3.91116,0-5.05471C18.7497,94.37278,20.43,92.953,22.02839,91.66143c-3.60724-5.63388-3.23724-9.71866-3.36946-13.4532a14.33685,14.33685,0,0,0-5.82231-11.21149c2.446-.94226,5.22933-.75084,8.59978,1.41785a10.07232,10.07232,0,0,0,.53773-8.25249C28.348,62.467,29.7155,70.10078,30.3006,73.83336c.4657,2.96888-.27527,5.472,2.71235,9.64761a35.861,35.861,0,0,0,4.23082,4.75673c1.59445,1.94075-1.78784,3.65658-4.23082,6.26335-.58017.61962-1.16427,1.21162-1.71286,1.73555.56043.77059,1.16131,1.5609,1.80363,2.38082,7.1257,9.103,17.42747,17.53009,37.663,22.88672.92054.24369.41243,6.72413-.23483,10.77438a52.20737,52.20737,0,0,0,6.2594.35127q.17019-.00149.33745.0059c.11246-.00494.225-.00689.33841-.0059A52.20742,52.20742,0,0,0,83.72657,132.27852Z"/>
    <path class="cls-8" d="M121.98058,96.3185c-.41734-.41243-.84753-.85445-1.27576-1.31129-1.50267-1.60333-3.34773-2.882-4.216-4.07394a2.72055,2.72055,0,0,1-.61471-1.88354,2.38,2.38,0,0,1,.56834-1.2817.84406.84406,0,0,1,.05721-.06214c.81991-.79426,1.54512-1.54218,2.18546-2.25059a27.32552,27.32552,0,0,0,1.95755-2.40549,11.73769,11.73769,0,0,0,2.04831-4.31272c.40453-1.78884.27036-3.327.53576-5.01818.38481-2.45778,1.11394-6.54853,3.28856-9.80846a11.107,11.107,0,0,1,5.51645-4.44394.74048.74048,0,0,1,.95906.91464,11.71776,11.71776,0,0,0-.57918,3.94468,8.16236,8.16236,0,0,0,.70645,3.04091,12.279,12.279,0,0,1,3.698-1.46618,8.52584,8.52584,0,0,1,4.87118.40553.73937.73937,0,0,1,.16576,1.29154,12.76784,12.76784,0,0,0-3.99107,4.65113,14.65651,14.65651,0,0,0-1.52342,5.98612,35.05292,35.05292,0,0,1-.6058,7.18392,20.42029,20.42029,0,0,1-2.52981,6.07983q.19092.15541.37985.31179c1.332,1.09717,2.65118,2.23478,3.65167,3.20962a3.58962,3.58962,0,0,1,.89389,2.47555,7.17791,7.17791,0,0,1-.79031,3.51252c-5.327,8.18932-11.74821,16.28689-22.54628,23.12942a85.14675,85.14675,0,0,1-15.9603,7.7917l2.79325,7.23228a.73582.73582,0,0,1,.04242.16477,4.7592,4.7592,0,0,1-.49333,3.02513A4.63934,4.63934,0,0,1,98.83835,144.38a50.57906,50.57906,0,0,1-10.3294,2.85443,62.85756,62.85756,0,0,1-10.66092.84063l-.71928-.0227-.71829.0227a62.85755,62.85755,0,0,1-10.66094-.84063A50.56144,50.56144,0,0,1,55.42012,144.38a4.63926,4.63926,0,0,1-2.33544-2.02858,4.7592,4.7592,0,0,1-.49334-3.02513.7353.7353,0,0,1,.04243-.16477l2.79228-7.23228a85.10472,85.10472,0,0,1-15.95932-7.7917c-10.79807-6.84253-17.2193-14.9401-22.5463-23.12942a7.18811,7.18811,0,0,1-.7913-3.51252A3.59477,3.59477,0,0,1,17.024,95.02c1.00047-.97484,2.31866-2.11245,3.65066-3.20962q.19092-.1569.37986-.31179a20.41423,20.41423,0,0,1-2.52881-6.07983,34.98858,34.98858,0,0,1-.60681-7.18392,14.62459,14.62459,0,0,0-1.52341-5.98612,12.75494,12.75494,0,0,0-3.99007-4.65113.73969.73969,0,0,1,.16476-1.29154,8.53,8.53,0,0,1,4.87216-.40553,12.27889,12.27889,0,0,1,3.698,1.46618,8.16275,8.16275,0,0,0,.70645-3.04091,11.74347,11.74347,0,0,0-.57918-3.94468.73962.73962,0,0,1,.95806-.91464,11.10954,11.10954,0,0,1,5.51743,4.44394c2.17461,3.25993,2.90375,7.35068,3.28855,9.80846.26543,1.69114.13124,3.22934.53576,5.01818a11.71715,11.71715,0,0,0,2.04735,4.31272,27.52822,27.52822,0,0,0,1.95853,2.40549c.63935.70841,1.36455,1.45633,2.18546,2.25059a.83341.83341,0,0,1,.05623.06214,2.38209,2.38209,0,0,1,.56932,1.2817,2.7218,2.7218,0,0,1-.61569,1.88354c-.86728,1.1919-2.71333,2.47061-4.215,4.07394-.4282.45684-.85839.89886-1.27576,1.31129q.66748.89835,1.409,1.84307a56.08174,56.08174,0,0,0,16.62728,14.45764,84.0726,84.0726,0,0,0,20.642,8.16959,1.29672,1.29672,0,0,1,.81006.90871.73812.73812,0,0,1,.295.25949,1.05813,1.05813,0,0,1,.08289,1.034,1.43177,1.43177,0,0,1-.10556.20225l-.04737.25061a42.23943,42.23943,0,0,1-.24272,5.15239c-.10361,1.04092-.23188,2.07989-.37,3.03006a51.66553,51.66553,0,0,0,5.40989.26344l.3404.0059.3404-.0059a51.66632,51.66632,0,0,0,5.40989-.26344c-.13815-.94918-.26542-1.98914-.369-3.03006a42.04084,42.04084,0,0,1-.24272-5.15239l-.04733-.25061a1.43015,1.43015,0,0,1-.1056-.20225,1.05813,1.05813,0,0,1,.0829-1.034.75215.75215,0,0,1,.294-.26048,1.29971,1.29971,0,0,1,.811-.90772,84.08779,84.08779,0,0,0,20.642-8.16959,56.094,56.094,0,0,0,16.62731-14.45764Q121.31309,97.2144,121.98058,96.3185ZM77.10012,133.3747l.36409-.00491a52.57608,52.57608,0,0,0,7.42171-.49433,47.316,47.316,0,0,0,7.27467-1.59445c1.89242-.57623,3.00242-1.08633,3.65856-1.83223a3.06773,3.06773,0,0,0,.30782-.41441l4.08481,10.57706a3.2932,3.2932,0,0,1-.33447,2.02563,3.14038,3.14038,0,0,1-1.58656,1.3685,49.15312,49.15312,0,0,1-10.02847,2.76958,61.407,61.407,0,0,1-10.40934.81991l-.67782-.02171a.7098.7098,0,0,0-.09178,0l-.67782.02171a61.407,61.407,0,0,1-10.40934-.81991,49.15312,49.15312,0,0,1-10.02847-2.76958,3.13669,3.13669,0,0,1-1.58656-1.3685,3.28987,3.28987,0,0,1-.33546-2.02169c.001-.00394,4.08481-10.581,4.08481-10.581a3.162,3.162,0,0,0,.30881.41441c.65614.7459,1.76614,1.256,3.65757,1.83223a47.35465,47.35465,0,0,0,7.27567,1.59445,52.56217,52.56217,0,0,0,7.42074.49433Zm8.15086-2.04831-1.26393-6.74286a19.01555,19.01555,0,0,0,3.56878,1.45236,5.86411,5.86411,0,0,0,1.34383.18942c1.51255.0523,3.18-.38773,4.664-.17166a.77377.77377,0,0,0,.10656.00789,1.5432,1.5432,0,0,1,1.11889.47063,2.55084,2.55084,0,0,1,.42624.57424,2.34575,2.34575,0,0,1-.50715,1.36455,6.50145,6.50145,0,0,1-2.97873,1.39515A45.73292,45.73292,0,0,1,85.251,131.32639Zm-16.24349,0,1.26392-6.74286a19.01575,19.01575,0,0,1-3.56877,1.45236,5.86427,5.86427,0,0,1-1.34384.18942c-1.51354.0523-3.181-.38773-4.664-.17166a.77342.77342,0,0,1-.10656.00789,1.54319,1.54319,0,0,0-1.11888.47063,2.55089,2.55089,0,0,0-.42625.57424,2.34568,2.34568,0,0,0,.50716,1.36455,6.49064,6.49064,0,0,0,2.97875,1.39515A45.66985,45.66985,0,0,0,69.00749,131.32639Zm1.45829-8.59879a6.51568,6.51568,0,0,1-.79821.50321,17.15239,17.15239,0,0,1-3.35465,1.37638,5.21441,5.21441,0,0,1-1.55007.13812,26.03227,26.03227,0,0,0-4.23771-.16178,2.96074,2.96074,0,0,0-2.09965.89982,3.78968,3.78968,0,0,0-.37689.441.74242.74242,0,0,0-.47361.44106l-1.61517,4.18345A83.77742,83.77742,0,0,1,40.258,122.88742c-10.58594-6.70931-16.874-14.6569-22.09738-22.68639a5.2279,5.2279,0,0,1-.54464-2.19239,2.53645,2.53645,0,0,1,.44-1.92792c.97583-.95018,2.26145-2.05918,3.55989-3.12874,1.88059-1.54908,3.78782-3.01721,4.83171-3.80951h0A25.15732,25.15732,0,0,0,28.199,92.84936a52.234,52.234,0,0,0,4.32158,6.2249,57.55141,57.55141,0,0,0,17.05452,14.82661,85.33145,85.33145,0,0,0,20.78215,8.26038,2.58958,2.58958,0,0,1,.071.292C70.4431,122.53913,70.45494,122.63091,70.46578,122.7276Zm27.83286,7.8213-1.61516-4.18345a.74175.74175,0,0,0-.47461-.44106,3.6858,3.6858,0,0,0-.3759-.441,2.97662,2.97662,0,0,0-2.11148-.90181,26.26377,26.26377,0,0,0-4.22687.16377,5.21073,5.21073,0,0,1-1.54907-.13812,17.15221,17.15221,0,0,1-3.35466-1.37638,6.53424,6.53424,0,0,1-.7992-.50321c.01084-.09669.02367-.18847.03849-.27431a2.58527,2.58527,0,0,1,.071-.292,85.33145,85.33145,0,0,0,20.78215-8.26038,57.534,57.534,0,0,0,17.05353-14.82661,52.13017,52.13017,0,0,0,4.32256-6.2249,25.15008,25.15008,0,0,0,1.75037-3.70689h0c1.04387.7923,2.9521,2.26043,4.83267,3.80951,1.29846,1.06956,2.58409,2.17856,3.55892,3.12874a2.53234,2.53234,0,0,1,.441,1.92792,5.2276,5.2276,0,0,1-.54464,2.19239c-5.22341,8.02949-11.51142,15.97708-22.09835,22.68639A83.73641,83.73641,0,0,1,98.29864,130.5489Zm28.30645-42.43158a23.29242,23.29242,0,0,1-1.83124,3.99993c-.40158.7035-.84066,1.407-1.31918,2.12036L120.01023,91.176c.06413-.01481.12727-.03059.19042-.04836a5.91406,5.91406,0,0,0,2.62947-1.81347q.02367-.02665.04438-.0533a6.3314,6.3314,0,0,1,1.85692-1.81546.95234.95234,0,0,1,1.04388-.01876ZM30.80381,94.23761c1.65462-1.47112,3.44345-3.06162,3.44345-3.06162-.06314-.01481-.12628-.03059-.18944-.04836a5.914,5.914,0,0,1-2.62946-1.81347q-.02369-.02665-.0444-.0533a6.33127,6.33127,0,0,0-1.85691-1.81546.95246.95246,0,0,0-1.04882-.01578l-.82486.6877a23.32466,23.32466,0,0,0,1.83126,3.99993C29.88522,92.82075,30.32527,93.52426,30.80381,94.23761Zm6.07785-5.17605a.74224.74224,0,0,0-.42032.15,2.207,2.207,0,0,1-1.999.49234,4.40566,4.40566,0,0,1-1.91414-1.35865,7.726,7.726,0,0,0-2.32754-2.20718,2.3204,2.3204,0,0,0-2.62453.10262.4393.4393,0,0,0-.04243.03258l-2.32064,1.93386c-.76663.58508-1.847,1.41981-3.01525,2.35221a18.83677,18.83677,0,0,1-2.2496-5.47207,33.55184,33.55184,0,0,1-.57029-6.90567,16.143,16.143,0,0,0-1.68127-6.6008,14.20628,14.20628,0,0,0-3.29449-4.26731h-.001a7.12853,7.12853,0,0,1,2.72713.03749,11.45945,11.45945,0,0,1,3.88747,1.6862.73849.73849,0,0,0,1.04291-.25652A9.53933,9.53933,0,0,0,23.32488,64.387a12.124,12.124,0,0,0-.24963-2.91264,9.97988,9.97988,0,0,1,3.43655,3.257c2.04142,3.06063,2.69656,6.90962,3.05768,9.21645.32166,2.04831.09176,3.87859.84557,6.16766a14.02845,14.02845,0,0,0,1.997,3.79569,28.82456,28.82456,0,0,0,2.06312,2.53574c.65121.72223,1.38824,1.483,2.221,2.291A1.09432,1.09432,0,0,1,36.88166,89.06156Zm95.159,1.49776c-1.1682-.9324-2.2486-1.76713-3.01525-2.35221l-2.32162-1.93386a.42987.42987,0,0,0-.04143-.03258,2.322,2.322,0,0,0-2.62553-.10262,7.70374,7.70374,0,0,0-2.32556,2.20718,4.42419,4.42419,0,0,1-1.91513,1.35865,2.20836,2.20836,0,0,1-2-.49234.73672.73672,0,0,0-.41932-.15,1.09085,1.09085,0,0,1,.18253-.32068c.83373-.81,1.57175-1.57175,2.22394-2.294a28.81912,28.81912,0,0,0,2.06312-2.53574,14.02781,14.02781,0,0,0,1.997-3.79569c.75382-2.28907.52393-4.11935.8456-6.16766.36112-2.30683,1.01626-6.15582,3.05767-9.21645a9.99135,9.99135,0,0,1,3.43656-3.258,12.14,12.14,0,0,0-.25064,2.91363,9.56325,9.56325,0,0,0,1.24616,4.39362.73937.73937,0,0,0,1.04391.25652,11.45941,11.45941,0,0,1,3.88746-1.6862,7.12847,7.12847,0,0,1,2.72715-.03749h-.001a14.19019,14.19019,0,0,0-3.29447,4.26731,16.14621,16.14621,0,0,0-1.68228,6.6008,33.61394,33.61394,0,0,1-.5693,6.90567A18.85286,18.85286,0,0,1,132.04063,90.55932Z"/>
    <g id="text">
      <path class="cls-9" d="M78.35814,144.79043l-.70646-8.44586,6.26235-.52392.11939,1.42869-4.55739.38186.15687,1.87168,4.2407-.35419.11839,1.42276-4.2397.35521.19241,2.29793,4.71822-.39466.11938,1.42375Zm-8.37287-9.03094,3.3754.293a9.85191,9.85191,0,0,1,1.4869.21312,2.20766,2.20766,0,0,1,.8505.42525,2.17469,2.17469,0,0,1,.58707.76171,1.92239,1.92239,0,0,1,.17365,1.01034,2.01042,2.01042,0,0,1-1.3458,1.72865,2.23451,2.23451,0,0,1,1.11985.86923,2.04146,2.04146,0,0,1,.30391,1.30834,2.51766,2.51766,0,0,1-.36507,1.09718,2.264,2.264,0,0,1-.80711.80609,2.42241,2.42241,0,0,1-1.17808.30092q-.43067.00891-2.06114-.12134l-2.87415-.24965Zm18.98741,7.62595-.83373-3.46815L83.97224,135.871l1.94966-.46864,2.7242,2.79324L89.761,134.4778l1.91711-.46078-1.87863,5.51251.83178,3.45631Zm-28.48208-5.696a5.38632,5.38632,0,0,1,.94719-1.994,3.97285,3.97285,0,0,1,1.06757-.91269,3.309,3.309,0,0,1,1.258-.447,4.63535,4.63535,0,0,1,1.851.15886,3.98014,3.98014,0,0,1,2.58406,1.91119,5.19209,5.19209,0,0,1-1.69212,6.217,3.94573,3.94573,0,0,1-3.183.33152,3.986,3.986,0,0,1-2.59494-1.90624A4.374,4.374,0,0,1,60.4906,137.6894Zm10.78524,2.98072-.19635,2.25848,1.57867.13715a7.6549,7.6549,0,0,0,1.17314.04932,1.05669,1.05669,0,0,0,.64826-.28316,1.04082,1.04082,0,0,0,.30191-.69661,1.10962,1.10962,0,0,0-.12827-.661,1.05583,1.05583,0,0,0-.49926-.43214,5.81825,5.81825,0,0,0-1.50171-.25161Zm-9.06944-2.57124a3.1722,3.1722,0,0,0,.06512,2.28016,2.2866,2.2866,0,0,0,3.24714.89492,3.23819,3.23819,0,0,0,1.21556-1.95951,3.18335,3.18335,0,0,0-.04242-2.26541,2.36647,2.36647,0,0,0-3.28363-.88995A3.20707,3.20707,0,0,0,62.2064,138.09888Zm9.36149-.78637-.16971,1.95258,1.1169.09672q.99753.0873,1.24125.07892a1.12605,1.12605,0,0,0,.71434-.24272.89361.89361,0,0,0,.30782-.63738.92833.92833,0,0,0-.16082-.65515.98041.98041,0,0,0-.61567-.35224q-.25163-.05031-1.45534-.15588ZM98.644,128.56569l-3.88846-7.63383,5.55494-2.7903.65809,1.29157-4.04235,2.03054.86234,1.69213,3.76115-1.88944.65515,1.2866-3.76115,1.88947,1.05869,2.07791,4.18544-2.10257.65514,1.2856Zm-50.612-3.46317,3.555-7.69307,5.7049,2.63541L56.69,121.34627l-4.1509-1.91808-.78836,1.706,3.86281,1.78487-.59893,1.29648-3.86279-1.78487-.96791,2.09368,4.29792,1.98616-.5989,1.2965Zm57.712-.12828-4.26535-7.43257,1.43068-.815,5.8302,3.26686-2.8485-4.96392,1.36651-.77749,4.26536,7.43254-1.47606.83967-5.71771-3.17511,2.78141,4.84749Zm-63.13969-2.89191,1.63-8.85239,1.6053.93141-1.29055,6.50213,4.94219-4.38571,1.56979.91067L44.185,122.99793Zm65.68531-8.437,2.54657-1.75527a5.899,5.899,0,0,1,1.407-.7696,2.79164,2.79164,0,0,1,1.48789-.06709,3.76453,3.76453,0,0,1,1.44646.68969,6.4595,6.4595,0,0,1,1.37443,1.51255,5.727,5.727,0,0,1,.82286,1.64774,3.78411,3.78411,0,0,1,.11939,1.75627,2.94449,2.94449,0,0,1-.591,1.23827,5.00706,5.00706,0,0,1-1.13072.99949l-2.62155,1.80658Zm-70.69757,5.19186,4.80507-6.98263,1.409.96989L39.002,119.80707Zm72.91362-4.958,3.21949,4.67579,1.03993-.71729a4.48125,4.48125,0,0,0,.79625-.64826,1.54794,1.54794,0,0,0,.36111-.6808,1.84027,1.84027,0,0,0-.1046-.93337,5.69917,5.69917,0,0,0-.74885-1.39021,5.232,5.232,0,0,0-1.00741-1.15935,1.96312,1.96312,0,0,0-.86629-.41044,1.59393,1.59393,0,0,0-.87321.11147,7.5401,7.5401,0,0,0-1.1909.72127Zm-79.94953-.60387,5.398-6.53368,2.77648,2.294a6.15186,6.15186,0,0,1,1.37641,1.43363,1.94214,1.94214,0,0,1,.2427,1.254,2.43435,2.43435,0,0,1-.56535,1.26592,2.26537,2.26537,0,0,1-1.4356.8564,2.68891,2.68891,0,0,1-1.79178-.46373,3.97313,3.97313,0,0,1,.25357,1.13171,9.638,9.638,0,0,1-.1253,1.68129l-.25555,1.93386-1.57768-1.30337.221-2.21016a12.16161,12.16161,0,0,0,.09866-1.53426,1.30735,1.30735,0,0,0-.17265-.59989,2.80511,2.80511,0,0,0-.60286-.62257l-.26739-.221-2.25354,2.72812Zm83.97313-3.95061,1.26786-1.12084,3.05473,3.49181a9.74841,9.74841,0,0,0,.99061,1.036,1.37976,1.37976,0,0,0,.94325.293,1.76055,1.76055,0,0,0,1.04685-.50122,1.688,1.688,0,0,0,.61667-.9462,1.20619,1.20619,0,0,0-.15688-.84855,9.99007,9.99007,0,0,0-.90281-1.14454l-3.12081-3.56679,1.26787-1.12183,2.96294,3.38721a11.7349,11.7349,0,0,1,1.333,1.7316,2.44347,2.44347,0,0,1,.32857,1.14454,2.57977,2.57977,0,0,1-.27925,1.17907,4.22115,4.22115,0,0,1-1.037,1.26489,4.5394,4.5394,0,0,1-1.551.9926,2.58511,2.58511,0,0,1-1.21951.09572,2.36846,2.36846,0,0,1-.98076-.3996,10.70722,10.70722,0,0,1-1.556-1.5264Zm-79.539,1.26986.97581.80708a6.52365,6.52365,0,0,0,1.25207.89887.91828.91828,0,0,0,.59792.02959,1.10136,1.10136,0,0,0,.53873-.37987,1.01161,1.01161,0,0,0,.26442-.67785,1.04934,1.04934,0,0,0-.28515-.667q-.14208-.15537-.94424-.81793L36.3607,108.937Zm-8.39258-1.56684,5.23425-4.71033-1.68226-1.86976,1.0656-.959,4.50511,5.00635-1.06559.959-1.67832-1.86478-5.23427,4.71033Zm99.94035.96595-6.54948-5.50559,2.26341-2.75874a5.95315,5.95315,0,0,1,1.41782-1.36256,1.90016,1.90016,0,0,1,1.24716-.22794,2.4829,2.4829,0,0,1,1.26392.58412,2.34057,2.34057,0,0,1,.86529,1.45335,2.68231,2.68231,0,0,1-.44892,1.79279,3.90423,3.90423,0,0,1,1.12578-.23977,9.56329,9.56329,0,0,1,1.67535.148l1.928.2822-1.28663,1.56683-2.20223-.25064a12.03882,12.03882,0,0,0-1.52932-.11936,1.28069,1.28069,0,0,0-.596.16576,2.70811,2.70811,0,0,0-.61468.59692l-.21806.26642,2.73405,2.29792Zm-2.70444-4.48736.79621-.9699a6.38426,6.38426,0,0,0,.886-1.24516.92835.92835,0,0,0,.02466-.5999,1.14246,1.14246,0,0,0-.38283-.5466,1.02815,1.02815,0,0,0-.67683-.27331,1.012,1.012,0,0,0-.66207.27726q-.15393.1406-.80708.93731l-.83967,1.02319ZM22.63223,98.83942l1.04686,1.30437a2.03273,2.03273,0,0,0-.69758,1.185,1.84607,1.84607,0,0,0,.35026,1.25306,1.90563,1.90563,0,0,0,.97384.8515,1.04459,1.04459,0,0,0,.91464-.09672.7738.7738,0,0,0,.33152-.4282,1.41305,1.41305,0,0,0-.0296-.7163q-.077-.30786-.44-1.34878a4.64578,4.64578,0,0,1-.3552-2.075A2.22439,2.22439,0,0,1,26.942,96.82662a2.29246,2.29246,0,0,1,1.29745.41537,4.24039,4.24039,0,0,1,1.15933,1.23532,3.5788,3.5788,0,0,1,.72915,2.39266,2.46661,2.46661,0,0,1-1.09915,1.73061l-.99949-1.39118a1.454,1.454,0,0,0,.52886-.90774,1.73169,1.73169,0,0,0-.35422-1.06462,1.95714,1.95714,0,0,0-.8949-.809.61675.61675,0,0,0-.589.06016.65133.65133,0,0,0-.29206.49433,4.49836,4.49836,0,0,0,.38679,1.626,8.34208,8.34208,0,0,1,.49925,1.87959,2.37457,2.37457,0,0,1-.20819,1.256,2.66913,2.66913,0,0,1-2.30781,1.42869,2.41835,2.41835,0,0,1-1.41784-.44007,4.80724,4.80724,0,0,1-1.26787-1.37443,3.673,3.673,0,0,1-.72914-2.47356A3.23337,3.23337,0,0,1,22.63223,98.83942Zm109.25448,4.437-7.15628-4.663,3.32012-5.27966,1.21063.78935-2.41536,3.8411,1.58656,1.034L130.68,95.42358l1.20569.78538-2.2476,3.5747,1.94767,1.26887,2.5012-3.97726,1.20569.78538Z"/>
    </g>
    <rect class="cls-9" x="41.86844" y="19.26219" width="20.34895" height="20.34895" transform="translate(-5.57185 45.4217) rotate(-45)"/>
    <polygon class="cls-6" points="59.648 87.609 55.195 75.618 50.741 87.609 59.648 87.609"/>
  </g>
</svg>
