<svg id="_79_infantry_division" data-name=" 79 infantry division" xmlns="http://www.w3.org/2000/svg" width="150" height="150" viewBox="0 0 150 150">
  <defs>
    <style>
      .cls-1 {
        fill: #373faa;
      }

      .cls-1, .cls-2 {
        fill-rule: evenodd;
      }

      .cls-2 {
        fill: #9e9e9e;
      }
    </style>
  </defs>
  <path class="cls-1" d="M126.76,12.5H23.244V66.089l-.023.327a50.79985,50.79985,0,0,0,1.941,14.146A69.90786,69.90786,0,0,0,31.15,95.567a81.12085,81.12085,0,0,0,12.612,17.306A129.7429,129.7429,0,0,0,75,137a129.76,129.76,0,0,0,31.242-24.129,81.18484,81.18484,0,0,0,12.611-17.3,69.97774,69.97774,0,0,0,5.986-15.007,50.88006,50.88006,0,0,0,1.942-14.133l-.023-.3V12.5"/>
  <path class="cls-2" d="M75,130.749A124.55531,124.55531,0,0,1,47.987,109.2,75.681,75.681,0,0,1,36.269,93.054a64.69221,64.69221,0,0,1-5.5-13.834,46.74387,46.74387,0,0,1-1.754-12.4l.033-.458V18.13h91.9V66.417l.031.415a46.762,46.762,0,0,1-1.756,12.388,64.68882,64.68882,0,0,1-5.494,13.834,75.73488,75.73488,0,0,1-11.72,16.145A124.5654,124.5654,0,0,1,75,130.749M132.583,6.5H17.415V65.977l-.012.156a55.38228,55.38228,0,0,0,2.126,16.076,76.27828,76.27828,0,0,0,6.478,16.326A87.34514,87.34514,0,0,0,39.516,117.17,133.2807,133.2807,0,0,0,75,144a133.281,133.281,0,0,0,35.482-26.829A87.36875,87.36875,0,0,0,123.99,98.534a76.24916,76.24916,0,0,0,6.477-16.326,55.35947,55.35947,0,0,0,2.127-16.062l-.011-.156V6.5"/>
  <path class="cls-1" d="M74.5,138.569c-2.176-1.173-5.32-2.98-9.067-5.465a130.5936,130.5936,0,0,1-23.127-19.5A83.29114,83.29114,0,0,1,29.651,96.1a74.621,74.621,0,0,1-6.608-15.284,52.96587,52.96587,0,0,1-2.082-15.067l.02-.23V10.036H128.02V65.147l-.009.257.029.34a53.00027,53.00027,0,0,1-2.081,15.069A74.6784,74.6784,0,0,1,119.351,96.1,83.26414,83.26414,0,0,1,106.7,113.6a130.563,130.563,0,0,1-23.126,19.5c-3.748,2.485-6.891,4.292-9.068,5.465M136,2H13V65.147S11,92.6,36.131,119.45A134.506,134.506,0,0,0,74.05,147.9a1.074,1.074,0,0,0,.9,0,134.49957,134.49957,0,0,0,37.92-28.447C138,92.6,136,65.147,136,65.147V2"/>
  <path class="cls-2" d="M55.22539,55.61575h.387v.541a3.325,3.325,0,0,0,6.65,0v-.54h26.113v.541a3.325,3.325,0,0,0,6.65,0v-.541h1.315a3.634,3.634,0,1,0,0-7.268h-1.314v-.542a3.325,3.325,0,1,0-6.65,0v.541h-8.584v-11.113h.54095a3.325,3.325,0,0,0,0-6.65h-.54095v-.387a4.029,4.029,0,0,0-8.019,0v.387h-.541a3.325,3.325,0,1,0-.0022,6.65h.54322v11.113h-9.511v-.541a3.325,3.325,0,0,0-6.65,0v.541h-.387a3.634,3.634,0,1,0,0,7.26794Z"/>
  <path class="cls-2" d="M108.48189,67.51376v-.579a3.325,3.325,0,0,0-6.65,0v.541l-52.56-.002v-.539a3.325,3.325,0,1,0-6.65,0v.683a3.63509,3.63509,0,0,0-2.629,3.492,3.346,3.346,0,0,0,2.629,3.242v.683a3.325,3.325,0,1,0,6.65,0v-.542h52.558v.542a3.325,3.325,0,1,0,6.65,0v-.582a3.389,3.389,0,0,0,3.093-3.344A3.63506,3.63506,0,0,0,108.48189,67.51376Z"/>
  <path class="cls-2" d="M96.34038,86.25647h-1.315v-.541a3.325,3.325,0,0,0-6.65,0v.541h-26.113v-.54a3.325,3.325,0,0,0-6.65,0v.541h-.387a3.634,3.634,0,1,0,0,7.26794h.387v.541a3.325,3.325,0,0,0,6.65,0v-.541h26.114v.541a3.325,3.325,0,1,0,6.65,0v-.542h1.314a3.634,3.634,0,1,0,0-7.268Z"/>
</svg>
