<?xml version="1.0" encoding="utf-8"?>
<!-- Generator: Adobe Illustrator 27.0.1, SVG Export Plug-In . SVG Version: 6.00 Build 0)  -->
<svg version="1.1" id="Layer_1" xmlns="http://www.w3.org/2000/svg" xmlns:xlink="http://www.w3.org/1999/xlink" x="0px" y="0px"
	 viewBox="0 0 296 68" enable-background="new 0 0 296 68" xml:space="preserve">
<path fill="none" d="M296,2v64c0,1.1-0.9,2-2,2H2c-0.8,0-1.4-0.4-1.8-1C0.1,66.7,0,66.3,0,66V2c0-1.1,0.9-2,2-2h292
	C295.1,0,296,0.9,296,2z"/>
<g id="Mask_Group_325" transform="translate(-5342 147)" opacity="0.237">
	
		<linearGradient id="Path_2173_00000091703277859240671060000014383927721203736493_" gradientUnits="userSpaceOnUse" x1="5390.3564" y1="-12.7582" x2="5390.3564" y2="-13.3247" gradientTransform="matrix(341.961 0 0 -120.043 -1837801.625 -1678.537)">
		<stop  offset="0" style="stop-color:#FFFFFF"/>
		<stop  offset="1" style="stop-color:#808080;stop-opacity:0"/>
	</linearGradient>
	
		<path id="Path_2173" opacity="0.269" fill="url(#Path_2173_00000091703277859240671060000014383927721203736493_)" enable-background="new    " d="
		M5347.2-147l-5.2,18v24.9l12.3-43H5347.2z M5361.5-147l-19.2,67c0.3,0.6,1,1,1.8,1h5.1l19.5-68H5361.5z M5375.8-147l-19.5,68h7.2
		l19.5-68H5375.8z M5390.1-147l-19.5,68h7.2l19.5-68H5390.1z M5404.4-147l-19.5,68h7.2l19.5-68H5404.4z M5418.7-147l-19.5,68h7.2
		l19.5-68H5418.7z M5433-147l-19.5,68h7.2l19.5-68H5433z M5447.3-147l-19.5,68h7.2l19.5-68H5447.3z M5461.6-147l-19.5,68h7.2
		l19.5-68H5461.6z M5475.9-147l-19.5,68h7.2l19.5-68H5475.9z M5490.2-147l-19.5,68h7.2l19.5-68H5490.2z M5504.5-147L5485-79h7.2
		l19.5-68H5504.5z M5518.8-147l-19.5,68h7.2l19.5-68H5518.8z M5533.1-147l-19.5,68h7.2l19.5-68H5533.1z M5547.4-147l-19.5,68h7.2
		l19.5-68H5547.4z M5561.7-147l-19.5,68h7.2l19.5-68H5561.7z M5576-147l-19.5,68h7.2l19.5-68H5576z M5590.3-147l-19.5,68h7.2
		l19.5-68H5590.3z M5604.6-147l-19.5,68h7.2l19.5-68H5604.6z M5618.9-147l-19.5,68h7.2l19.5-68H5618.9z M5636-147h-2.8l-19.5,68h7.2
		l17.1-59.7v-6.3C5638-146.1,5637.1-147,5636-147z M5628-79h7.2l2.8-9.9v-25L5628-79z"/>
</g>
</svg>
