<svg id="Layer_3" data-name="Layer 3" xmlns="http://www.w3.org/2000/svg" width="18" height="18" viewBox="0 0 18 18"><path id="Path_477" data-name="Path 477" d="M5,5V1H4V4H1V5Z"/><path id="Path_478" data-name="Path 478" d="M5,17V13H1v1H4v3Z"/><path id="Path_479" data-name="Path 479" d="M13,1V5h4V4H14V1Z"/><path id="Path_480" data-name="Path 480" d="M13,13v4h1V14h3V13Z"/><path id="Path_481" data-name="Path 481" d="M11,17H7V11H1V7H7V1h4V7h6v4H11Z"/><polygon points="5 1 7 1 7 7 1 7 1 5 5 5 5 1" fill="#fff"/><polygon points="11 1 11 7 17 7 17 5 13 5 13 1 11 1" fill="#fff"/><polygon points="1 11 7 11 7 17 5 17 5 13 1 13 1 11" fill="#fff"/><polygon points="11 17 13 17 13 13 17 13 17 11 11 11 11 17" fill="#fff"/></svg>