<svg xmlns="http://www.w3.org/2000/svg" width="16" height="16" viewBox="0 0 16 16">
  <metadata><?xpacket begin="﻿" id="W5M0MpCehiHzreSzNTczkc9d"?>
<x:xmpmeta xmlns:x="adobe:ns:meta/" x:xmptk="Adobe XMP Core 5.6-c138 79.159824, 2016/09/14-01:09:01        ">
   <rdf:RDF xmlns:rdf="http://www.w3.org/1999/02/22-rdf-syntax-ns#">
      <rdf:Description rdf:about=""/>
   </rdf:RDF>
</x:xmpmeta>
                                                                                                    
                                                                                                    
                                                                                                    
                                                                                                    
                                                                                                    
                                                                                                    
                                                                                                    
                                                                                                    
                                                                                                    
                                                                                                    
                                                                                                    
                                                                                                    
                                                                                                    
                                                                                                    
                                                                                                    
                                                                                                    
                                                                                                    
                                                                                                    
                                                                                                    
                                                                                                    
                           
<?xpacket end="w"?></metadata>
<defs>
    <style>
      .cls-1 {
        fill: #fff;
        fill-rule: evenodd;
      }
    </style>
  </defs>
  <path class="cls-1" d="M14.918,10.911c-0.09.13-1.419,1.43-1.784,1.787l0.709,0.843-0.071.2,0.016,0.016-0.025.009-0.009.025-0.016-.016-0.2.071-0.843-.709c-0.357.365-1.657,1.694-1.787,1.784a0.909,0.909,0,0,1-.424.071,1.753,1.753,0,0,1-.735-0.141,0.386,0.386,0,0,1-.2-0.5l1.557-2.543C9.859,10.772,8.524,9.671,8.087,9.35c-1.061.814-4.869,3.731-5.078,3.821a2.307,2.307,0,0,1-.841.176A1.107,1.107,0,0,1,1.3,13a1.07,1.07,0,0,1-.209-1.183L5.783,7.126C5.3,6.618,4.032,5.317,4.032,5.317s-1.445-1.448-.963-2.21L3.059,3.1c0.007-.005.015-0.007,0.021-0.012s0.007-.015.012-0.021L3.1,3.073a0.665,0.665,0,0,1,.362-0.1A3.735,3.735,0,0,1,5.312,4.037s1.3,1.27,1.809,1.752L11.81,1.1a1,1,0,0,1,.432-0.093,1.116,1.116,0,0,1,.751.3,1.57,1.57,0,0,1,.174,1.7c-0.09.21-3.007,4.017-3.821,5.078,0.321,0.437,1.422,1.772,2.461,3.019l2.543-1.557A0.434,0.434,0,0,1,14.5,9.526a0.372,0.372,0,0,1,.343.226A1.709,1.709,0,0,1,14.918,10.911Z"/>
</svg>
