<svg xmlns="http://www.w3.org/2000/svg" width="14" height="15" viewBox="0 0 14 15">
  <path id="Path_2240" data-name="Path 2240" d="M3.92,4.811v9.057H0V4.811a.28.28,0,0,1,.279-.282H3.641a.28.28,0,0,1,.279.282M.28,15H3.64v-.566H.28ZM1.935,0C.993,0,.23,1.824.23,4.074H3.64C3.64,1.824,2.876,0,1.935,0M8.681,4.529H5.319a.28.28,0,0,0-.279.282v9.057H8.96V4.811a.28.28,0,0,0-.279-.282M5.32,15H8.68v-.566H5.32ZM6.975,0C6.033,0,5.27,1.824,5.27,4.074H8.68C8.68,1.824,7.916,0,6.975,0m6.746,4.529H10.359a.28.28,0,0,0-.279.282v9.057H14V4.811a.28.28,0,0,0-.279-.282M10.36,15h3.36v-.566H10.36ZM12.015,0c-.942,0-1.705,1.824-1.705,4.074h3.41C13.72,1.824,12.956,0,12.015,0" fill="#fff"/>
</svg>
