<svg width="64" height="64" enable-background="new 0 0 58.01 58.01" version="1.1" viewBox="0 0 7.2512 7.2512" xmlns="http://www.w3.org/2000/svg">
<path d="m3.6071 7.0991c1.9051 0 3.455-1.55 3.455-3.455 0-1.9051-1.55-3.455-3.455-3.455-1.9051 0-3.455 1.55-3.455 3.455 0 1.9051 1.55 3.455 3.455 3.455zm-0.1335-6.2421-0.050828 0.96728c-0.0081773 0.15562-0.086884 0.19046-0.19448 0.077607l-0.39747-0.4188c-0.034784-0.03664-0.081473-0.055193-0.12832-0.055193-0.043752 0-0.087502 0.016078-0.12182 0.048545-0.070961 0.067405-0.073898 0.17934-0.00651 0.25013l0.87457 0.92094c0.033083 0.034785 0.078845 0.054574 0.12662 0.055038 0.048236-1.546e-4 0.093997-0.018707 0.1277-0.053028l0.90473-0.92078c0.068486-0.069724 0.067558-0.1818-0.0021544-0.25029-0.069724-0.068332-0.1818-0.067405-0.25013 0.0023102l-0.3964 0.40336c-0.10915 0.11116-0.18926 0.074749-0.19773-0.080855l-0.051486-0.94625c1.4531 0.06063 2.6237 1.2313 2.6843 2.6846l-0.99421-0.050818c-0.15562-0.0079544-0.19045-0.086881-0.077604-0.19447l0.41879-0.39762c0.036638-0.034782 0.055036-0.08147 0.055036-0.12831 0-0.04375-0.016078-0.087499-0.048543-0.12166-0.067404-0.070956-0.17933-0.074049-0.25012-0.0066439l-0.9209 0.87468c-0.034782 0.032928-0.054726 0.078842-0.055036 0.12646 1.545e-4 0.048389 0.018706 0.094147 0.053026 0.12769l0.92075 0.90498c0.069721 0.068483 0.1818 0.067401 0.25028-0.00215 0.068328-0.069721 0.067401-0.1818-0.00231-0.25028l-0.40334-0.39639c-0.11115-0.10899-0.07476-0.18949 0.080851-0.19772l0.97334-0.051474c-0.06063 1.4529-1.2313 2.6236-2.6843 2.6842l0.050846-1.0209c0.00775-0.15564 0.086883-0.19046 0.19448-0.077605l0.39746 0.41879c0.034783 0.036639 0.08147 0.055037 0.12831 0.055037 0.043749 0 0.0875-0.016078 0.12182-0.048544 0.070959-0.067402 0.073897-0.17933 0.00651-0.25013l-0.87456-0.92092c-0.033082-0.034784-0.078844-0.054726-0.12661-0.055192-0.048233 1.547e-4 -0.093994 0.018705-0.1277 0.053027l-0.90484 0.92077c-0.068484 0.069721-0.067559 0.1818 0.00215 0.25028 0.069722 0.06833 0.1818 0.067404 0.25013-0.00231l0.39639-0.40333c0.10914-0.11115 0.18971-0.074771 0.19772 0.080853l0.051506 1.0001c-1.453-0.060522-2.6237-1.2313-2.6842-2.6842l0.99396 0.050873c0.15563 0.00797 0.19046 0.086885 0.077607 0.19448l-0.4188 0.39733c-0.03664 0.034784-0.055037 0.081474-0.055037 0.12832 0 0.043752 0.016077 0.087503 0.048544 0.12198 0.067406 0.07096 0.17934 0.073744 0.25014 0.00633l0.92095-0.8744c0.034785-0.033238 0.054728-0.078846 0.055193-0.12677-1.546e-4 -0.047926-0.018707-0.093841-0.053028-0.1277l-0.92079-0.90471c-0.069724-0.068486-0.1818-0.067714-0.25029 0.00215-0.068331 0.069724-0.067251 0.1818 0.00232 0.24999l0.40335 0.39655c0.11116 0.1093 0.074762 0.1895-0.080855 0.19773l-0.97325 0.051482c0.06063-1.4531 1.2313-2.6238 2.6843-2.6843z" fill="#fff" stroke="#000" stroke-width=".1133"/>
</svg>
