<svg width="64" height="64" version="1.1" xmlns="http://www.w3.org/2000/svg">
<g transform="matrix(.12661 0 0 .12661 -.10072 -68.706)" fill="#fff">
<path d="m317.6 857.96 35.383 92.687 17.588-17.565 94.801 94.801 22.151-22.151-94.801-94.801 17.565-17.588z"/>
<path d="m24.475 1005.7 22.151 22.151 94.801-94.801 17.588 17.565 35.383-92.687-92.688 35.383 17.565 17.588z"/>
<path d="m46.627 564.84-22.151 22.151 94.801 94.801-17.565 17.588 92.688 35.383-35.383-92.688-17.588 17.565z"/>
<path d="m487.52 586.99-22.151-22.151-94.801 94.801-17.588-17.565-35.383 92.688 92.687-35.383-17.565-17.588z"/>
</g>
</svg>
