<svg xmlns="http://www.w3.org/2000/svg" width="38" height="38" viewBox="0 0 38 38">
  <metadata><?xpacket begin="﻿" id="W5M0MpCehiHzreSzNTczkc9d"?>
<x:xmpmeta xmlns:x="adobe:ns:meta/" x:xmptk="Adobe XMP Core 5.6-c138 79.159824, 2016/09/14-01:09:01        ">
   <rdf:RDF xmlns:rdf="http://www.w3.org/1999/02/22-rdf-syntax-ns#">
      <rdf:Description rdf:about=""/>
   </rdf:RDF>
</x:xmpmeta>
                                                                                                    
                                                                                                    
                                                                                                    
                                                                                                    
                                                                                                    
                                                                                                    
                                                                                                    
                                                                                                    
                                                                                                    
                                                                                                    
                                                                                                    
                                                                                                    
                                                                                                    
                                                                                                    
                                                                                                    
                                                                                                    
                                                                                                    
                                                                                                    
                                                                                                    
                                                                                                    
                           
<?xpacket end="w"?></metadata>
<defs>
    <style>
      .cls-1 {
        fill: #fff;
        fill-rule: evenodd;
      }
    </style>
  </defs>
  <path id="Ellipse_1_copy" data-name="Ellipse 1 copy" class="cls-1" d="M33.454,28.386A2.883,2.883,0,0,1,34,30c0,2.59-3.975,4.791-9.532,5.631l1.438,2.363-3.588,0L21.29,35.95C20.7,35.98,20.107,36,19.5,36c-5.853,0-10.883-1.438-13.174-3.5L3,33,2,32l3.46-.524A2.822,2.822,0,0,1,5,30c0-1.681,1.676-3.2,4.368-4.286A43.794,43.794,0,0,1,5.826,21.6l0,0L1.564,15.656,1,13.826,3.659,12l1.6,1.123,4.1,5.736h0l0.154,0.215,0,0A44.276,44.276,0,0,1,12.723,24.7c0.851-.187,1.745-0.343,2.686-0.458L14.782,23h2l0.65,1.068C18.109,24.028,18.8,24,19.5,24c5.73,0,10.669,1.379,13.024,3.375L35,27l1,1ZM19.525,25.546a26.041,26.041,0,0,0-6.125.691c0.55,1.374.79,2.436,0.415,2.693-0.437.3-1.639-.543-3.021-1.818-1.706.776-2.742,1.781-2.742,2.881,0,2.456,5.137,4.447,11.473,4.447S31,32.449,31,29.993,25.862,25.546,19.525,25.546Zm0.2,5.274c-1.3,0-2.345-.413-2.345-0.923s1.05-.924,2.345-0.924,2.345,0.414,2.345.924S21.018,30.82,19.723,30.82ZM30.8,22.945c-0.992.683-5.924-4.55-7.969-7.34l0,0-0.153-.215h0l-4.1-5.746L18.01,7.813l2.654-1.826,1.593,1.125,4.095,5.746h0l0.153,0.215,0,0C28.469,15.919,31.787,22.262,30.8,22.945ZM18.788,21.906c-1.225.882-7.311-5.877-9.836-9.48l0,0-0.189-.278h0L3.7,4.73l-0.7-2.368L6.283,0,8.249,1.457,13.3,8.878h0l0.189,0.278,0,0C15.917,12.832,20.012,21.025,18.788,21.906Z"/>
</svg>
