<svg xmlns="http://www.w3.org/2000/svg" xmlns:xlink="http://www.w3.org/1999/xlink" width="19.277" height="21.757" viewBox="0 0 19.277 21.757">
  <defs>
    <clipPath id="clip-path">
      <rect id="Rectangle_5841" data-name="Rectangle 5841" width="19.277" height="21.757" fill="none"/>
    </clipPath>
  </defs>
  <g id="Group_4546" data-name="Group 4546" transform="translate(0 0)">
    <g id="Group_4545" data-name="Group 4545" transform="translate(0 0)" clip-path="url(#clip-path)">
      <path id="Path_2573" data-name="Path 2573" d="M7.752,2.17l-1.016.309H2.724a.454.454,0,0,1-.454-.455V.771A.454.454,0,0,1,2.724.316H6.736L7.752.625Z" transform="translate(0.478 0.067)" fill="#fff"/>
      <path id="Path_2574" data-name="Path 2574" d="M8.464,2.118H7.132V.571H8.464a4.7,4.7,0,0,1,2.086.488l.262.13a.174.174,0,0,1,0,.311l-.262.13a4.69,4.69,0,0,1-2.086.489" transform="translate(1.502 0.121)" fill="#fff"/>
      <path id="Path_2575" data-name="Path 2575" d="M9.123,7.792l-.857.625L4.476,9.733a.454.454,0,0,1-.579-.28L3.485,8.269a.455.455,0,0,1,.281-.579L7.557,6.374l1.059-.041Z" transform="translate(0.729 1.334)" fill="#fff"/>
      <path id="Path_2576" data-name="Path 2576" d="M9.8,7.369l-1.258.437L8.034,6.343l1.259-.436a4.677,4.677,0,0,1,2.13-.223l.289.036a.174.174,0,0,1,.1.294l-.2.208A4.7,4.7,0,0,1,9.8,7.369" transform="translate(1.692 1.19)" fill="#fff"/>
      <path id="Path_2577" data-name="Path 2577" d="M8.213,5.056l-.948.477-3.953.684a.455.455,0,0,1-.527-.37L2.572,4.612a.456.456,0,0,1,.37-.527L6.9,3.4l1.053.131Z" transform="translate(0.54 0.717)" fill="#fff"/>
      <path id="Path_2578" data-name="Path 2578" d="M8.917,4.8,7.6,5.03,7.341,3.5l1.312-.226a4.68,4.68,0,0,1,2.138.126l.28.082a.173.173,0,0,1,.053.306l-.235.173A4.7,4.7,0,0,1,8.917,4.8" transform="translate(1.546 0.676)" fill="#fff"/>
      <path id="Path_2579" data-name="Path 2579" d="M10.334,10.335l-.777.723L5.949,12.814a.455.455,0,0,1-.608-.209l-.548-1.126A.456.456,0,0,1,5,10.87L8.61,9.113l1.047-.167Z" transform="translate(1 1.885)" fill="#fff"/>
      <path id="Path_2580" data-name="Path 2580" d="M10.978,9.791l-1.2.584L9.1,8.983,10.3,8.4a4.7,4.7,0,0,1,2.09-.475l.292,0a.173.173,0,0,1,.136.28l-.178.231a4.7,4.7,0,0,1-1.661,1.352" transform="translate(1.918 1.67)" fill="#fff"/>
      <path id="Path_2581" data-name="Path 2581" d="M11.782,12.592l-.625.858-3.2,2.418a.454.454,0,0,1-.637-.09l-.754-1a.455.455,0,0,1,.088-.637l3.2-2.418,1-.364Z" transform="translate(1.363 2.393)" fill="#fff"/>
      <path id="Path_2582" data-name="Path 2582" d="M12.35,11.891l-1.063.8-.932-1.235,1.063-.8a4.7,4.7,0,0,1,1.959-.867l.287-.054a.174.174,0,0,1,.188.249l-.131.26a4.7,4.7,0,0,1-1.37,1.646" transform="translate(2.181 2.05)" fill="#fff"/>
      <path id="Path_2583" data-name="Path 2583" d="M9.057,21.757c-.076,0-.154,0-.228-.011a2.422,2.422,0,0,1-1.671-.916A34.035,34.035,0,0,1,0,0H1.379A32.654,32.654,0,0,0,8.246,19.983a1.023,1.023,0,0,0,.713.391.977.977,0,0,0,.777-.248l7.812-6.812a1.025,1.025,0,0,0,.16-1.37A20.243,20.243,0,0,1,13.777,0h1.379a18.831,18.831,0,0,0,3.661,11.124,2.41,2.41,0,0,1-.363,3.229l-7.812,6.812a2.424,2.424,0,0,1-1.585.592" transform="translate(0 0)" fill="#fff"/>
    </g>
  </g>
</svg>
