<?xml version="1.0" encoding="UTF-8" standalone="no"?>
<svg
   xmlns:x="adobe:ns:meta/"
   xmlns:dc="http://purl.org/dc/elements/1.1/"
   xmlns:cc="http://creativecommons.org/ns#"
   xmlns:rdf="http://www.w3.org/1999/02/22-rdf-syntax-ns#"
   xmlns:svg="http://www.w3.org/2000/svg"
   xmlns="http://www.w3.org/2000/svg"
   xmlns:sodipodi="http://sodipodi.sourceforge.net/DTD/sodipodi-0.dtd"
   xmlns:inkscape="http://www.inkscape.org/namespaces/inkscape"
   id="guns_sights"
   data-name="guns sights"
   width="128"
   height="128"
   viewBox="0 0 128 128"
   version="1.1"
   sodipodi:docname="assault_rifle.svg"
   inkscape:version="0.92.1 r15371">
  <sodipodi:namedview
     pagecolor="#ffffff"
     bordercolor="#666666"
     borderopacity="1"
     objecttolerance="10"
     gridtolerance="10"
     guidetolerance="10"
     inkscape:pageopacity="0"
     inkscape:pageshadow="2"
     inkscape:window-width="3840"
     inkscape:window-height="2055"
     id="namedview11"
     showgrid="true"
     inkscape:zoom="5.2149125"
     inkscape:cx="7.73482"
     inkscape:cy="46.39167"
     inkscape:window-x="-13"
     inkscape:window-y="47"
     inkscape:window-maximized="1"
     inkscape:current-layer="guns_sights">
    <inkscape:grid
       type="xygrid"
       id="grid4494" />
  </sodipodi:namedview>
  <metadata
     id="metadata2">
<?xpacket begin="xFF" id="W5M0MpCehiHzreSzNTczkc9d"?>    <x:xmpmeta
       x:xmptk="Adobe XMP Core 5.6-c138 79.159824, 2016/09/14-01:09:01        ">
      <metadata>
        <rdf:RDF>
          <rdf:Description
             rdf:about="" />
          <cc:Work
             rdf:about="">
            <dc:format>image/svg+xml</dc:format>
            <dc:type
               rdf:resource="http://purl.org/dc/dcmitype/StillImage" />
            <dc:title></dc:title>
          </cc:Work>
        </rdf:RDF>
      </metadata>
    </x:xmpmeta>
<?xpacket end="w"?>  </metadata>
  <defs
     id="defs6">
    <style
       id="style4">
      .cls-1 {
        fill: #e0e0e0;
        fill-rule: evenodd;
      }
    </style>
    <style
       id="style26">
      .cls-1 {
        fill: #fff;
        fill-rule: evenodd;
      }
    </style>
  </defs>
  <path
     d="m 120.82506,17.406752 -0.20123,4.706117 -34.723886,25.756483 c 0,0 4.056817,8.754046 7.947438,11.364485 3.890622,2.610441 17.858648,8.559468 18.358528,8.657685 0.49989,0.09821 -4.15202,14.248828 -4.15202,14.248828 L 95.340782,76.716546 c 0,0 -12.999455,-8.598421 -14.604072,-10.001789 l -5.462241,3.995707 -2.629648,-0.178987 -4.304017,3.148449 c 0,0 0.591653,9.998503 1.266046,11.6931 0.674391,1.694598 1.597849,3.342081 1.147683,4.069513 a 1.9136397,1.9694828 53.814001 0 1 -1.260516,1.277555 c -0.641317,0.138544 -9.934799,2.360163 -9.934799,2.360163 a 12.716953,13.088055 53.814001 0 1 -2.37433,-7.729342 77.759186,80.028324 53.814001 0 1 0.764975,-7.9214 3.548984,3.652549 53.814001 0 0 -1.289773,-3.263516 7.5641846,7.7849197 53.814001 0 0 -3.974396,-0.949535 c 0,0 -2.555197,0.968042 -3.112163,1.224396 -0.556967,0.256354 -4.365501,2.48426 -4.365501,2.48426 a 7.8281349,8.0565725 53.814001 0 0 -2.204253,1.967914 C 42.009706,80.174745 22.305408,110.8622 22.305408,110.8622 l 0.176804,3.72752 -0.857044,1.329 -2.373644,1.73635 L 4.9545151,97.610547 a 0.55802537,0.57430946 53.814001 0 1 0.1420905,-0.806 C 5.5639262,96.443147 34.767152,75.100125 34.767152,75.100125 l 2.996873,-8.853787 c 0,0 0.298897,-0.426597 0.545562,-0.754558 0.246668,-0.327957 4.510161,-3.299247 4.510161,-3.299247 l -0.550062,-2.752428 2.136518,-1.562893 -1.314532,-4.297599 1.429906,-1.045996 3.530012,2.325026 55.41721,-40.255869 -1.44581,-4.477056 1.4299,-1.045997 3.59067,2.908061 4.03472,-2.951454 6.44581,4.825645 5.84953,-3.928875 2.67298,3.654024 z M 76.086155,61.35256 73.087406,60.74152 70,63 a 2.4946173,2.5674142 53.814001 0 0 1.336485,1.827011 17.070699,17.56885 53.814001 0 1 1.884589,1.075926 l -0.307247,0.580227 a 8.0504843,8.2854104 53.814001 0 1 -3.806698,-0.720293 2.4616235,2.5334576 53.814001 0 1 -1.241107,-1.196505 l -1.429905,1.045997 1.680137,5.782626 9.020323,-6.598493 -0.47944,-3.156007 z"
     class="cls-1"
     id="riffle"
     inkscape:connector-curvature="0"
     style="fill:#e6e6e6;fill-rule:evenodd;stroke-width:1.4552927" />
</svg>
