<svg id="Layer_1" data-name="Layer 1" xmlns="http://www.w3.org/2000/svg" width="16" height="16" viewBox="0 0 16 16">
  <defs>
    <style>
      .cls-1 {
        fill: #fff;
      }
    </style>
  </defs>
  <path class="cls-1" d="M15.49068,12.1203l-.11951-.524-.5084-.53382-1.96685,1.42183q-.39033-.41362-.74527-.8598l-.46283-.58362L9.4351,8.53372l4.75243-6.94229a.23669.23669,0,0,0-.015-.287L13.54926.5711a.20178.20178,0,0,0-.276-.02986L8.53608,4.14768l-.97819-.9782A.83731.83731,0,0,0,6.759,3.05615l-.01766.01765a.83729.83729,0,0,0,.11333.79887l.8829.8829-1.01148.77A9.98117,9.98117,0,0,0,5.08626,4.2017c-.73038-.41351-.96-.0886-.96-.0886L4.132,4.132l-.01888-.00565s-.3249.22958.08862.96A9.98094,9.98094,0,0,0,5.5256,6.72612l-.77,1.01147-.8829-.88289a.83726.83726,0,0,0-.79887-.11333L3.05614,6.759a.83735.83735,0,0,0,.11333.79887l.9782.9782L.54124,13.27329a.2018.2018,0,0,0,.02986.276l.73331.62331a.23669.23669,0,0,0,.287.015L8.53371,9.43511l2.50719,2.25271.58363.46284q.44648.35407.8598.74526L11.0625,14.86278l.53382.50839.524.11951a.37211.37211,0,0,0,.34587-.09968l1.26955-1.26954.01607.01581a.25718.25718,0,0,0,.3506-.02153l.00071.00058.00629-.00693.00691-.00629-.00057-.0007a.25718.25718,0,0,0,.02153-.3506l-.01581-.01607L15.391,12.46619A.37217.37217,0,0,0,15.49068,12.1203Z"/>
</svg>
