<svg id="Layer_2" data-name="Layer 2" xmlns="http://www.w3.org/2000/svg" width="100" height="100" viewBox="0 0 100 100">
  <defs>
    <style>
      .cls-1 {
        fill: #fff;
      }
    </style>
  </defs>
  <g>
    <circle class="cls-1" cx="49.74492" cy="66.27753" r="19.69901"/>
    <path class="cls-1" d="M22.33245,79.074c-2.16993.26612-4.43067.25959-5.7229-.58117,0,0,3.62231,6.49011,9.99926,7.25879A30.34155,30.34155,0,0,1,22.33245,79.074Z"/>
    <path class="cls-1" d="M19.49944,66.86755c-3.66016.11341-8.23291-.22558-11.4856-2.12085,0,0,1.19458,10.5578,12.89392,10.69733A30.13013,30.13013,0,0,1,19.49944,66.86755Z"/>
    <path class="cls-1" d="M22.87651,52.38391c-4.34472-.29559-17.17608-1.64215-21.27118-7.37036,0,0,.46631,9.88434,4.70856,14.49048,2.45838,2.66931,8.6062,3.40289,13.34448,3.54889A30.01409,30.01409,0,0,1,22.87651,52.38391Z"/>
    <path class="cls-1" d="M77.15728,79.074a30.33727,30.33727,0,0,1-4.27613,6.67756C79.258,84.9826,82.8803,78.4928,82.8803,78.4928,81.58806,79.33356,79.32732,79.34009,77.15728,79.074Z"/>
    <path class="cls-1" d="M79.99016,66.86755A30.13006,30.13006,0,0,1,78.582,75.444C90.28142,75.3045,91.47588,64.7467,91.47588,64.7467,88.22319,66.642,83.65032,66.981,79.99016,66.86755Z"/>
    <path class="cls-1" d="M76.61321,52.38391a30.01388,30.01388,0,0,1,3.21814,10.669c4.73816-.146,10.88611-.87958,13.3446-3.54889,4.24219-4.60614,4.7085-14.49048,4.7085-14.49048C93.78936,50.7417,80.95793,52.08832,76.61321,52.38391Z"/>
    <path class="cls-1" d="M49.74492,92.21033a25.9328,25.9328,0,1,0-25.93274-25.9328A25.96211,25.96211,0,0,0,49.74492,92.21033Zm0-47.959A22.02625,22.02625,0,1,1,27.71868,66.27753,22.02632,22.02632,0,0,1,49.74492,44.25128Z"/>
    <polygon class="cls-1" points="68.723 25.13 49.745 37.652 30.767 25.13 30.767 4.783 68.723 4.783 68.723 25.13"/>
  </g>
</svg>
