<svg xmlns="http://www.w3.org/2000/svg" width="100" height="100" viewBox="0 0 100 100">
  <defs>
    <style>
      .cls-1 {
        fill: #fff;
        fill-rule: evenodd;
      }
    </style>
  </defs>
  <g id="Layer_3" data-name="Layer 3">
    <path class="cls-1" d="M50.0509,48.2123l1.37027-3.97379L93.41319,6.3299,90.71375,3.30845l-1.94236,1.754L86.99688,3.06865l-3.871,3.4942,1.7745,1.98689L46.37856,43.35468h0l-1.78478-.298L21.097,64.23764l1.37027,1.43879-2.6138,4.4945a4.217,4.217,0,0,1-2.398,1.9081l-3.6826,1.15788L2.63945,86.78891A2.80906,2.80906,0,0,0,3.025,90.74277q.03792.0312.07693.061l7.283,5.55646a2.77821,2.77821,0,0,0,4.15878-.93864l12.747-24.61695,1.77793,1.88412c2.398.43849,5.02205-3.62094,5.02205-3.62094l5.35091-7.13227.54469-3.621L49.99951,48.15749ZM44.056,34.58493,15.10208,8.54974,16.88344,6.556l-3.8813-3.48735L11.22078,5.0624,9.28527,3.30845,6.58583,6.3299,41.03107,37.32548Zm53.30362,52.204-11.14374-13.552L82.54349,72.079a4.21364,4.21364,0,0,1-2.398-1.9081l-2.61036-4.4945,1.37027-1.43879L60.61913,47.89028l-5.74145,5.19334,5.13852,5.22759.54469,3.62094,5.35092,7.13227s2.62064,4.05944,5.022,3.621l1.77792-1.88413,12.75039,24.617a2.77821,2.77821,0,0,0,4.15878.93864l7.283-5.55646a2.809,2.809,0,0,0,.513-3.93934Q97.38888,86.82452,97.35957,86.78891Z"/>
  </g>
</svg>
