<svg xmlns="http://www.w3.org/2000/svg" width="128" height="128" viewBox="0 0 128 128">
  <defs>
    <style>
      .cls-1 {
        fill: #e4d551;
        fill-rule: evenodd;
      }
    </style>
  </defs>
  <path id="Shape_43_copy_2" data-name="Shape 43 copy 2" class="cls-1" d="M107.077,22.3l-11.155.9,0.02,0.206a1.745,1.745,0,0,1-1.563,1.9h0a1.745,1.745,0,0,1-1.9-1.563l-0.026-.262-2.11.171C82.253,28.4,77.521,29.6,75.3,29.887a12.024,12.024,0,0,1,.722,3.291,2.861,2.861,0,0,1,1.415,2.565c0,0.049-.006.108-0.01,0.157L76.05,51.072a6.9,6.9,0,0,0-4.825-2.526L71.4,43.608a12.013,12.013,0,0,1-14.8,0l0.177,4.937a6.9,6.9,0,0,0-4.825,2.526L50.576,35.9a2.866,2.866,0,0,1,1.405-2.726,12.025,12.025,0,0,1,.722-3.286c-2.225-.284-6.956-1.491-15.046-6.23l-1.867-.151-0.024.242A1.74,1.74,0,1,1,32.3,23.41l0.018-.186-11.4-.924a1.9,1.9,0,0,1,.307-3.79L32.69,19.439l0.018-.186a1.74,1.74,0,1,1,3.464.338l-0.013.129L38.4,19.9a1.9,1.9,0,0,1,.815.259c10.111,5.984,15.393,6.006,15.707,6.005a12.03,12.03,0,0,1,18.146-.013c1.408-.08,6.828-0.731,15.718-5.992A1.9,1.9,0,0,1,89.6,19.9l2.483-.2-0.011-.109a1.74,1.74,0,1,1,3.464-.338l0.016,0.166,11.217-.909A1.9,1.9,0,0,1,107.077,22.3ZM64,25.742a8.353,8.353,0,1,0,8.353,8.353A8.353,8.353,0,0,0,64,25.742ZM40.728,44.9H10.661A9.891,9.891,0,0,1,.77,35.009H39.975Zm1.028,13.506H22.16a9.891,9.891,0,0,1-9.891-9.891H41Zm1.028,13.507h-6.25a9.891,9.891,0,0,1-9.891-9.891H42.03ZM55.531,85.138h0.125V91.4H55.531A3.141,3.141,0,0,1,52.4,88.27h0A3.141,3.141,0,0,1,55.531,85.138Zm0.125-.354a1.548,1.548,0,0,1-.759-1.172l-1-11.021a6.864,6.864,0,0,0,1.757.7V84.784ZM53.1,66.587V55.43a4.211,4.211,0,0,1,4.206-4.206h4.418v6.033a1.663,1.663,0,0,0,1.663,1.663h1.222a1.663,1.663,0,0,0,1.663-1.663V51.224h4.418A4.211,4.211,0,0,1,74.9,55.43V66.587a4.211,4.211,0,0,1-4.206,4.206H57.308A4.211,4.211,0,0,1,53.1,66.587Zm16.707,41.638a5.809,5.809,0,1,1-11.618,0V73.5H69.809v34.726ZM73.1,83.612a1.537,1.537,0,0,1-.759,1.173V73.29a6.863,6.863,0,0,0,1.757-.7Zm2.5,4.658h0A3.141,3.141,0,0,1,72.469,91.4H72.344V85.138h0.125A3.141,3.141,0,0,1,75.6,88.27Zm25.758-26.249a9.891,9.891,0,0,1-9.891,9.891h-6.25l0.752-9.891h15.389ZM87,48.515h28.734a9.892,9.892,0,0,1-9.892,9.891H86.245Zm1.028-13.506H127.23a9.891,9.891,0,0,1-9.891,9.891H87.273Z"/>
</svg>
