<svg xmlns="http://www.w3.org/2000/svg" width="38" height="38" viewBox="0 0 38 38">
  <defs>
    <style>
      .cls-1 {
        fill: #fff;
        fill-rule: evenodd;
      }
    </style>
  </defs>
  <path id="binoculars_icon" class="cls-1" d="M36.866,28.387a3.208,3.208,0,0,1-.051.35l0,0.03H36.811c-0.283,2.391-3.132,4.276-6.645,4.276s-6.362-1.886-6.645-4.276H23.514l-0.022-.205c0-.059-0.025-0.115-0.025-0.175,0-.009,0-0.017,0-0.026L22.9,23.088a4.07,4.07,0,0,1-.108-0.4H21.071a2.079,2.079,0,0,1-4.143,0H15.208a4.1,4.1,0,0,1-.108.4l-0.57,5.274c0,0.009,0,.017,0,0.026,0,0.06-.022.116-0.025,0.175l-0.022.205H14.478c-0.283,2.391-3.132,4.276-6.645,4.276s-6.362-1.886-6.645-4.276H1.181l0-.03a3.208,3.208,0,0,1-.051-0.35,3.317,3.317,0,0,1,.207-1.1l0.563-5.2c0-.023-0.01-0.044-0.01-0.066a4.292,4.292,0,0,1,2.444-3.569l0.894-7.769v0c0-.006,0-0.012,0-0.018l0.034-.3H5.278C5.513,8.51,7.726,7.052,10.453,7.052s4.94,1.458,5.175,3.311h0.009l0,0.034a2.486,2.486,0,0,1,.041.283,2.587,2.587,0,0,1-.176.887l-0.033.284h7.069L22.5,11.567a2.587,2.587,0,0,1-.176-0.887,2.486,2.486,0,0,1,.041-0.283l0-.034h0.009c0.235-1.853,2.448-3.311,5.175-3.311s4.94,1.458,5.175,3.311h0.009l0.034,0.3c0,0.006,0,.012,0,0.018v0l0.894,7.769a4.292,4.292,0,0,1,2.444,3.569c0,0.023-.009.044-0.009,0.066l0.563,5.2A3.317,3.317,0,0,1,36.866,28.387ZM7.834,24.5c-2.86,0-5.179,1.612-5.179,3.6s2.319,3.6,5.179,3.6,5.179-1.612,5.179-3.6S10.694,24.5,7.834,24.5Zm7.216-9.04-0.416,3.611h2.275V15.653c0-.065.013-0.127,0.019-0.19H15.05Zm7.9,0H21.071c0.006,0.064.019,0.125,0.019,0.19v3.421h2.275Zm7.216,9.04c-2.86,0-5.179,1.612-5.179,3.6s2.319,3.6,5.179,3.6,5.179-1.612,5.179-3.6S33.027,24.5,30.166,24.5ZM27.547,5.983A6.568,6.568,0,0,0,24,6.965a1.625,1.625,0,0,1-.054-0.37c0-1.274,1.486-2.308,3.32-2.308s3.32,1.033,3.32,2.308c0,0.023-.009.045-0.01,0.068A6.827,6.827,0,0,0,27.547,5.983Zm-16.662,0a6.826,6.826,0,0,0-3.025.681c0-.023-0.01-0.044-0.01-0.068,0-1.274,1.486-2.308,3.32-2.308S14.49,5.321,14.49,6.6a1.625,1.625,0,0,1-.054.37A6.567,6.567,0,0,0,10.885,5.983Z"/>
</svg>
