<svg id="wire_fence_building" xmlns="http://www.w3.org/2000/svg" width="200" height="200" viewBox="0 0 200 200">
  <defs>
    <style>
      .cls-1 {
        fill: #1e1e1e;
      }

      .cls-1, .cls-2 {
        fill-rule: evenodd;
      }

      .cls-2 {
        fill: #fff;
      }
    </style>
  </defs>
  <path class="cls-1" d="M197.264,101.854l-0.537,3.044a4.846,4.846,0,0,1-5.817,3.887l-2.407-.534c-2.3,14.074-7.573,26.94-15.086,36.666q-1.014,1.311-2.076,2.544a4.842,4.842,0,0,1,2.405,4.185v7.493a4.843,4.843,0,0,1-4.843,4.843H158.688a38.027,38.027,0,0,1-8.979-1.126c-0.121-.03-0.24-0.065-0.358-0.1-0.463-.153-0.921-0.316-1.378-0.481a35.653,35.653,0,0,1-11.575,1.711h-5.221a4.842,4.842,0,0,1-4.146,2.338h-7.28l-7.287,3.214a4.843,4.843,0,0,1-6.627-5.7l1-3.652a75.645,75.645,0,0,1-7.367-2.829c-3.13,1.271-6.657,2.448-7.6,2.758l-0.081.027-0.164.053,0,0A77.531,77.531,0,0,1,84,162.232a4.845,4.845,0,0,1-4.785,4.088h-7.28l-7.286,3.214a4.842,4.842,0,0,1-6.666-5.552s-2.685-.533-4.428-0.9a118.544,118.544,0,0,1-12.966.9c-0.039,0-.079,0-0.119,0H40.3c-1.639.021-2.624,0-2.624,0H31.09a4.843,4.843,0,0,1-4.843-4.843v-7.493a4.836,4.836,0,0,1,2.412-4.184q-1.069-1.237-2.084-2.546a78.392,78.392,0,0,1-13.59-29.294l-3.895.863A4.843,4.843,0,0,1,3.273,112.6l-0.537-3.044a4.842,4.842,0,0,1,2.551-5.147l3.688-1.9V98.326a4.826,4.826,0,0,1,1.279-3.279,69.014,69.014,0,0,1,6.633-31.693c5.4-10.962,13.563-18.965,23.6-23.145q0.472-.2.956-0.377a4.843,4.843,0,0,1,4.835-4.564h7.28l7.286-3.215a4.843,4.843,0,0,1,6.627,5.7l-1.2,4.383a42.593,42.593,0,0,1,5.115,3.313,4.834,4.834,0,0,1,1.792,2.732A35.218,35.218,0,0,1,90.02,37.53a4.844,4.844,0,0,1,4.741-3.85h7.28l7.286-3.215a4.843,4.843,0,0,1,6.627,5.705l-1.061,3.89a35.551,35.551,0,0,1,8.113,5.745,4.834,4.834,0,0,1,1.507,3.153l0.159-.167c0.057-.06.115-0.118,0.175-0.174a42.668,42.668,0,0,1,12.883-8.409q1.186-.494,2.424-0.878a4.845,4.845,0,0,1,4.524-3.111h7.28L159.245,33a4.843,4.843,0,0,1,6.627,5.7l-1.126,4.126c7.648,4.533,13.93,11.532,18.36,20.517a65.684,65.684,0,0,1,6.375,23.726,4.829,4.829,0,0,1,1.544,3.545v4.182l3.688,1.9A4.842,4.842,0,0,1,197.264,101.854ZM61.279,115.538L57,116.486a4.9,4.9,0,0,1-1.048.114,4.843,4.843,0,0,1-4.769-4l-0.537-3.044a4.842,4.842,0,0,1,2.551-5.147l3.688-1.9V98.326a4.823,4.823,0,0,1,1.136-3.117A77.915,77.915,0,0,1,64.67,61.653a4.84,4.84,0,0,1-1.878-1.041,25.664,25.664,0,0,0-5.924-4,4.878,4.878,0,0,1-.518.028H46.275q-0.21,0-.416-0.018C34.971,61.907,27.937,75.577,27.452,91.966l4.083-.583a4.84,4.84,0,0,1,5.279,3.263l0.537,1.612a4.843,4.843,0,0,1-2.633,5.96l-4.774,2.114v5.68a4.839,4.839,0,0,1-.265,1.585c3.772,15.367,11.867,27.526,21.7,32.618,5.873-3.045,11.231-8.677,15.384-16.171A66.687,66.687,0,0,1,61.279,115.538Zm16.59,27.07q-0.835,1.191-1.7,2.309l-0.025.032h3.068a4.824,4.824,0,0,1,1.314.18Q79.165,143.9,77.868,142.608ZM112.816,60a18.444,18.444,0,0,0-6.719-5.115,4.851,4.851,0,0,1-1.262.166H94.761A4.83,4.83,0,0,1,92.9,54.68a18.59,18.59,0,0,0-7.552,5.73q-0.3.386-.607,0.792,0.591,1.075,1.121,2.151A64.505,64.505,0,0,1,91.8,83.212a4.836,4.836,0,0,1,1.99,3.914v4.182l3.688,1.9a4.842,4.842,0,0,1,2.551,5.147L99.5,101.4a4.843,4.843,0,0,1-4.769,4,4.895,4.895,0,0,1-1.048-.114l-1.917-.425a92.23,92.23,0,0,1-5.35,21.494,53,53,0,0,0,12.834,11.393,53.756,53.756,0,0,0,13.843-12.674,89.552,89.552,0,0,1-2.86-9.454l-3.9.866a4.9,4.9,0,0,1-1.048.114,4.841,4.841,0,0,1-4.769-4l-0.538-3.044a4.842,4.842,0,0,1,2.552-5.147l3.688-1.9V98.326a4.824,4.824,0,0,1,1.288-3.29,69.374,69.374,0,0,1,6.3-30.984c0.024-.052.05-0.1,0.077-0.155q0.633-1.215,1.288-2.353A4.845,4.845,0,0,1,112.816,60Zm11.006,84.916q-1.188-1.538-2.314-3.2-1.612,1.669-3.336,3.232h5.674Zm31.935-87.43a4.86,4.86,0,0,1-1,.1H144.678A4.82,4.82,0,0,1,142.356,57a26.827,26.827,0,0,0-7.8,6.3,75.744,75.744,0,0,1,5.326,20.261,4.84,4.84,0,0,1,2.267,4.1v4.182l3.688,1.9a4.845,4.845,0,0,1,2.552,5.147l-0.538,3.045a4.842,4.842,0,0,1-5.817,3.886l-2.388-.53a66.2,66.2,0,0,1-7.148,21.376c4.252,8.194,9.877,14.312,16.127,17.546,5.4-2.791,10.33-7.727,14.355-14.393a68.38,68.38,0,0,0,8.533-24.051,4.828,4.828,0,0,1-1.455-3.461V96.63l-4.774-2.114a4.843,4.843,0,0,1-2.634-5.959l0.538-1.612a4.84,4.84,0,0,1,5.279-3.263l3.334,0.476C169.794,71.985,163.972,62.268,155.757,57.486Z"/>
  <path id="Shape_1_copy" data-name="Shape 1 copy" class="cls-2" d="M186.182,97.76V90.625h-1.333a62.435,62.435,0,0,0-6.087-25.13c-4.878-9.9-12.179-17.093-21.115-20.816-0.3-.123-0.6-0.237-0.9-0.348l3.241-2.463,1.208-4.433-8.22,3.627h-8.3v2.16a23.151,23.151,0,0,0-5.087,1.457,37.818,37.818,0,0,0-11.422,7.462,62.142,62.142,0,0,0-9.995,13.995c-4.456,9.35-6.416,20.422-5.7,32.19h-1.42v7.135l-6.312,3.252,0.537,3.044,7.877-1.746h0.807a85.578,85.578,0,0,0,4.586,15.777,58.182,58.182,0,0,1-19.3,17.61,58.342,58.342,0,0,1-18.364-16.289,88.319,88.319,0,0,0,6.485-26.715c0.042-.483.071-0.963,0.1-1.444l7.253,1.607,0.537-3.044-6.313-3.252V87.126H87.373a61.144,61.144,0,0,0-5.857-21.631C80.742,63.925,79.9,62.431,79.008,61a42.6,42.6,0,0,1,2.537-3.592,22.939,22.939,0,0,1,13.216-8.346v1.147h10.074V49.324a22.982,22.982,0,0,1,11.7,7.574,47.307,47.307,0,0,1,3.149-7.569,30.119,30.119,0,0,0-13.154-7.308l3.543-2.692,1.209-4.432-8.22,3.627h-8.3v2.923a30.272,30.272,0,0,0-19.1,11.316c-0.483.612-.951,1.243-1.409,1.885l-0.032-.035a63.007,63.007,0,0,0-4.154,6.694L70.16,61.42c-5.372,10.541-7.966,23.628-7.167,36.906H61.73v7.135l-6.313,3.252,0.537,3.044,7.877-1.746h0.909A61.886,61.886,0,0,0,72.307,127.9c-5.183,10.43-12.532,18.154-20.929,21.661-12.688-5.3-22.981-20.211-27.025-39.545H25.1v-8.832l7.656-3.391-0.537-1.612-9.533,1.362C21.5,76.072,30.4,57.773,45.227,51.6c0.345-.144.7-0.27,1.048-0.388V51.8H56.349V51.168c0.395,0.129.785,0.268,1.17,0.428A30.115,30.115,0,0,1,66.021,57a44.123,44.123,0,0,1,2.451-7.681A37.075,37.075,0,0,0,60.4,44.679a23.138,23.138,0,0,0-2.586-.895l3.773-2.868L62.8,36.484l-8.22,3.627h-8.3v3.336a23.137,23.137,0,0,0-3.93,1.233C33.41,48.4,26.109,55.6,21.231,65.495c-4.675,9.482-6.734,20.794-6,32.831h-1.41v7.135L7.5,108.713l0.537,3.044,7.877-1.746h0.8c2.356,12.277,7.08,23.386,13.691,31.945a52.79,52.79,0,0,0,6.487,7.018A51.741,51.741,0,0,0,53.42,158.1a13.116,13.116,0,0,0,3.8,1.042h8.7L63.9,160.671,62.693,165.1l8.22-3.627h8.3V158.2a72.365,72.365,0,0,0,13.491-3.51c-1.617-1.84-3.318-3.916-5.023-6.211a64.483,64.483,0,0,1-8.468,2.12v-0.808H69.14v1.831c-0.574.014-1.149,0.023-1.727,0.023H62.6a50.467,50.467,0,0,0,9.735-9.69,62.55,62.55,0,0,0,4.831-7.3,64.3,64.3,0,0,0,7.756,7.895,66.23,66.23,0,0,0,6.206,4.711l-0.007,0a75.674,75.674,0,0,0,8.685,4.924,71.278,71.278,0,0,0,16,5.378l-4.093,3.11L110.51,165.1l8.22-3.627h8.3v-2.449c0.434,0.024.87,0.039,1.305,0.055v0.056h9.408c-1.667-2.07-3.546-4.58-5.465-7.493h-1.193c-1.364,0-2.715-.045-4.055-0.125v-1.729H116.957v0.347a63.827,63.827,0,0,1-9.589-2.882,66.233,66.233,0,0,0,6.206-4.711,64.212,64.212,0,0,0,8.637-8.985,63.157,63.157,0,0,0,5.443,8.395,53.193,53.193,0,0,0,6.051,6.627,51.649,51.649,0,0,0,17.17,9.572,33.065,33.065,0,0,0,7.834.984H168.9v-7.493H159.85a50.481,50.481,0,0,0,9.735-9.69c7.956-10.3,13.18-24.291,14.828-39.572l7.545,1.673,0.537-3.045ZM79.905,99.746a83.333,83.333,0,0,1-3.933,19.248,53.907,53.907,0,0,1-3.472-8.983h0.513V98.326H70.5a67.011,67.011,0,0,1,4.4-29.268,54.265,54.265,0,0,1,4.934,18.068H77.669V98.811h2.3C79.95,99.123,79.933,99.433,79.905,99.746ZM121.6,110.011h0.738V98.326h-2.352a59.653,59.653,0,0,1,4.3-27.5,64.765,64.765,0,0,1,3.632,16.835h-1.894V99.349h1.9c-0.011.133-.019,0.265-0.03,0.4a54.013,54.013,0,0,1-4.479,17.352Q122.364,113.672,121.6,110.011Zm53.3-16.533v8.833h1.988c-2.669,23.025-13.945,41.264-28.264,47.245-8.765-3.66-16.388-11.91-21.6-23.035a61.979,61.979,0,0,0,8.333-26.127c0.029-.332.051-0.663,0.075-0.995l7.648,1.7,0.538-3.045L137.306,94.8V87.663h-1.883a70.418,70.418,0,0,0-6.494-25.053A32.116,32.116,0,0,1,142.473,51.6a15.661,15.661,0,0,1,2.206-.731v1.882h10.073V51.591l0.013,0.005c13.018,5.423,21.464,20.19,22.53,38.239l-9.514-1.359-0.537,1.612ZM35,151.646H31.09v7.493h9.379C38.8,157.069,36.922,154.559,35,151.646Z"/>
</svg>
