<svg xmlns="http://www.w3.org/2000/svg" width="64" height="64" viewBox="0 0 64 64">
  <metadata><?xpacket begin="﻿" id="W5M0MpCehiHzreSzNTczkc9d"?>
<x:xmpmeta xmlns:x="adobe:ns:meta/" x:xmptk="Adobe XMP Core 5.6-c138 79.159824, 2016/09/14-01:09:01        ">
   <rdf:RDF xmlns:rdf="http://www.w3.org/1999/02/22-rdf-syntax-ns#">
      <rdf:Description rdf:about=""/>
   </rdf:RDF>
</x:xmpmeta>
                                                                                                    
                                                                                                    
                                                                                                    
                                                                                                    
                                                                                                    
                                                                                                    
                                                                                                    
                                                                                                    
                                                                                                    
                                                                                                    
                                                                                                    
                                                                                                    
                                                                                                    
                                                                                                    
                                                                                                    
                                                                                                    
                                                                                                    
                                                                                                    
                                                                                                    
                                                                                                    
                           
<?xpacket end="w"?></metadata>
<defs>
    <style>
      .cls-1 {
        fill: #161b21;
      }

      .cls-1, .cls-2 {
        fill-rule: evenodd;
      }

      .cls-2 {
        fill: #dfdfdf;
      }
    </style>
  </defs>
  <path class="cls-1" d="M46,59H37a1.779,1.779,0,0,1-.935-0.645L29.4,37.566,9.526,49.851A1,1,0,0,1,9,50H5.643A2.929,2.929,0,0,1,4,47.97V45a1,1,0,0,1,.385-0.789L21.4,30.961,5.352,21.87a1,1,0,0,1-.474-1.125,2.9,2.9,0,0,1,.274-1.275l4.433-7.282c0.968-1.552,1.782-.646,3.01.264L24.05,20.9l-5-15.6A1,1,0,0,1,20,4h1.22a1,1,0,0,1,.78.374V3c0-2.406,1.5-2,1.5-2L24,2l9.477,19.551,16.9-13.334a2.857,2.857,0,0,1,2.328.077s5.606,5.673,8.252,8.426a1,1,0,0,1-.42,1.123l-21.6,13.82L60.571,47.179A1,1,0,0,1,61,48v3a1,1,0,0,1-1,1H58L44.037,43.974s3.534,7,2.856,5.576L47,50v8A1,1,0,0,1,46,59Z"/>
  <path class="cls-2" d="M58,51l-3.315-2.014,1.16-.87L60,50.72V51H58Zm-0.57-4.787L60,48v2.24l-3.8-2.485ZM51,20l1.4,1.871-13.22,8.477L37.134,26.7,51.458,17H60l-4.678,3H51ZM52,9l7,7H52V9ZM34.525,22.053L45,13.752,48,16V11.377L51,9v6.4L36.412,25.413ZM42,45h1.6l1.811,3.779-3,2.668L22.936,5H23V2l1,2.087V7l0.713-1.426L42,41.652V45ZM36.566,56.646l-1.172-3.654,2.058-2.959-3.936-2.968-0.015.022L21.1,8.426l1.161-.871L40.725,52.948ZM20,5h1.22l0.814,2H20.642Zm3.666,22.5L12,19.88V13.257l4,2.963V20l3.314-1.326,3.221,2.386ZM11,12v8H6ZM23.952,29.13L24.368,31.5l-11.4-6.462L14,24,8.23,22.352,5.845,21h5.133ZM8,45l2.278-3.8,10.083-7.253,2.57,1.133L5,47.97V45l3-2.158V45Zm17.172-8.928,0.457,2.6L13.83,46H10l1.735,1.3L9,49H5.643L24.377,35.722ZM45.99,49.979L46,50v8H37l8.99-7.991v-0.03ZM42.109,35.56L56,45.219v2.408L44.762,40.284ZM55.66,48h-2.6l-6.019-3.656-1.512-2.693Z"/>
</svg>
