<svg id="building_machine_gun" xmlns="http://www.w3.org/2000/svg" width="200" height="200" viewBox="0 0 200 200">
  <defs>
    <style>
      .cls-1 {
        fill: #1e1e1e;
      }

      .cls-1, .cls-2 {
        fill-rule: evenodd;
      }

      .cls-2 {
        fill: #fff;
      }
    </style>
  </defs>
  <path class="cls-1" d="M194.8,47.119l-3.533.378a3.04,3.04,0,0,1-2.683-1.109l-2.357-.075a3.019,3.019,0,0,1-1.881-.741l-26.3,2.714c0.006,0.044.021,0.085,0.026,0.13l0.227,2.2a3.035,3.035,0,0,1-2.707,3.331L93.8,60.33l0.453,4.384a3.035,3.035,0,0,1-2.707,3.331l-5.923.611,3.6,3.494h6.451a3.035,3.035,0,0,1,3.035,3.035v7.785a3.035,3.035,0,0,1-3,3.035l32.931,94c0.01,0.028.02,0.057,0.029,0.086a4.977,4.977,0,0,1-3.239,6.247,5.028,5.028,0,0,1-1.514.233c-1.64,0-3.022-.734-4.8-1.77a3.033,3.033,0,0,1-1.333-1.617L91.8,108.937l10.152,71.014a3.042,3.042,0,0,1-.111,1.347,5.845,5.845,0,0,1-4.651,4.267,4.953,4.953,0,0,1-.644.042c-1.818,0-3.5-.952-5-2.829a3.036,3.036,0,0,1-.635-1.467L77.944,90.6,18.287,184.229a3.039,3.039,0,0,1-1.024.988,9.144,9.144,0,0,1-4.589,1.517,5.254,5.254,0,0,1-2.658-.7l-0.027-.016A5.242,5.242,0,0,1,8.1,178.878c0.023-.04.046-0.078,0.07-0.116L67.813,85.343a3.03,3.03,0,0,1-1.144-2.374V75.184a3.022,3.022,0,0,1,1.529-2.62l-1.966-1.908L55.489,71.765l1.787,17.313a3.035,3.035,0,0,1-2.707,3.33L35.135,94.414a3.032,3.032,0,0,1-3.33-2.707L29.66,70.929,7.552,73.211a3.074,3.074,0,0,1-.311.016A3.035,3.035,0,0,1,4.222,70.5L2.508,53.895a3.035,3.035,0,0,1,2.707-3.33l5.62-.58h0L34.326,47.56,34.045,44.83A3.035,3.035,0,0,1,36.752,41.5l23.783-2.455a3.035,3.035,0,0,1,2.74,1.2l3.012,4.017,6.97-.719a3.032,3.032,0,0,1,3.33,2.707l0.086,0.833,25.1-2.59a3.014,3.014,0,0,1-.919-1.868L100.5,39.2a3.035,3.035,0,0,1,2.708-3.331l18.953-1.956L120.39,16.789a3.035,3.035,0,0,1,2.708-3.331l1.712-.177a3.036,3.036,0,0,1,3.331,2.707l2.391,23.172a3.015,3.015,0,0,1-.887,2.453l30.293-3.127-0.677-6.549a3.035,3.035,0,0,1,2.708-3.33l3.15-.325a3.033,3.033,0,0,1,3.33,2.707l0.676,6.549,14.157-1.461A3.022,3.022,0,0,1,185,34.908l2.287-.572a3.087,3.087,0,0,1,.348-0.54,3.037,3.037,0,0,1,2.04-1.112l3.532-.379A3.035,3.035,0,0,1,196.551,35l0.94,8.779A3.035,3.035,0,0,1,194.8,47.119Z"/>
  <path id="Shape_11_copy" data-name="Shape 11 copy" class="cls-2" d="M190.941,44.48l-0.113-1.056-4.507-.143-0.582-5.428,4.375-1.095L190,35.7l3.533-.378,0.94,8.779ZM155.294,51.1L75.97,59.292l-1.211-1.175A7.459,7.459,0,0,0,62.1,63.274l-49.368,5.1L11.147,53l62.42-6.443,0.4,3.851L112.3,46.456l-0.511-4.961-7.915.817-0.354-3.426L123.6,36.813l0.353,3.426-8.741.9,0.512,4.961,47.546-4.907-1.024-9.923,3.189-.329,1.024,9.923,17.483-1.8,0.357,3.465-29.543,3.049ZM123.6,16.647l1.713-.177L127.7,39.643l-1.712.177ZM37.063,44.519l23.783-2.455,1.919,2.561L37.345,47.248Zm-2,24.038L35.292,70.8a3.034,3.034,0,0,0,3.33,2.707l12.089-1.248L52.5,89.571,34.823,91.4l-2.33-22.573ZM66.376,60.39h0a4.434,4.434,0,0,1,6.269-.095L84.863,72.149H72.129l-5.659-5.49A4.434,4.434,0,0,1,66.376,60.39ZM69.7,82.969V75.184H95.672v7.785H91.43L125.776,181a1.941,1.941,0,0,1-1.263,2.437,1.988,1.988,0,0,1-.6.091,7.407,7.407,0,0,1-3.265-1.355L85.933,82.969H79.206L15.728,182.6a6.46,6.46,0,0,1-3.054,1.1,2.235,2.235,0,0,1-1.141-.3l0,0a2.2,2.2,0,0,1-.806-3.007L72.929,82.969H69.7ZM5.526,53.583l2.6-.269L9.714,68.682a3.029,3.029,0,0,0,.4,1.214l-2.878.3Zm93.426,126.8a2.888,2.888,0,0,1-2.149,2.175,1.965,1.965,0,0,1-.253.017,3.693,3.693,0,0,1-2.635-1.691l-9.523-66.616,6.055,6.622Z"/>
</svg>
