<svg xmlns="http://www.w3.org/2000/svg" width="128" height="128" viewBox="0 0 128 128">
  <metadata><?xpacket begin="﻿" id="W5M0MpCehiHzreSzNTczkc9d"?>
<x:xmpmeta xmlns:x="adobe:ns:meta/" x:xmptk="Adobe XMP Core 5.6-c138 79.159824, 2016/09/14-01:09:01        ">
   <rdf:RDF xmlns:rdf="http://www.w3.org/1999/02/22-rdf-syntax-ns#">
      <rdf:Description rdf:about=""/>
   </rdf:RDF>
</x:xmpmeta>
                                                                                                    
                                                                                                    
                                                                                                    
                                                                                                    
                                                                                                    
                                                                                                    
                                                                                                    
                                                                                                    
                                                                                                    
                                                                                                    
                                                                                                    
                                                                                                    
                                                                                                    
                                                                                                    
                                                                                                    
                                                                                                    
                                                                                                    
                                                                                                    
                                                                                                    
                                                                                                    
                           
<?xpacket end="w"?></metadata>
<defs>
    <style>
      .cls-1 {
        fill: #fff;
        fill-rule: evenodd;
      }
    </style>
  </defs>
  <path id="Rounded_Rectangle_1" data-name="Rounded Rectangle 1" class="cls-1" d="M113,68l-3-3V58l-5-5c-5.331-5.331-12-2-12-2L77,35c2.232-2.194,8.929-11.071,2-18-4.665-4.665-19-4-19-4l-2-1c3.033-.824,19.572-7.59,36.688,9.527L109,36c-2.1,5.141-.819,6.277,3,10.1l5,4.9h7l3,3ZM56.5,86.581L31.756,112.744,16.907,97.895,43.07,73.146ZM25.4,119.1a1,1,0,0,1-1.41,0L10.545,105.662a0.991,0.991,0,0,1,0-1.405l3.533-3.534,14.849,14.849ZM45.9,70.317l30.41-28.964a1,1,0,0,1,1.41,0L88.3,51.894a0.991,0.991,0,0,1,0,1.405L59.333,83.752Z"/>
</svg>
