<svg xmlns="http://www.w3.org/2000/svg" width="200" height="200" viewBox="0 0 200 200">
  <defs>
    <style>
      .cls-1 {
        fill: #1e1e1e;
      }

      .cls-1, .cls-2 {
        fill-rule: evenodd;
      }

      .cls-2 {
        fill: #fff;
      }
    </style>
  </defs>
  <path id="machine_gun" class="cls-1" d="M197.7,65.266a21.247,21.247,0,0,0-4.113-8.755c-2.162-2.606-4.794-4.041-7.413-4.041a7.046,7.046,0,0,0-2.521.463l-136.218,33a4.718,4.718,0,0,0-2.629,1.721l-6.6,5.9-2.877.7-0.839-2.642a18.913,18.913,0,0,0-4.832-8.034,11.212,11.212,0,0,0-7.718-3.35,9.381,9.381,0,0,0-2.844.442c-3.486,1.107-5.86,4.033-6.8,7.847a14.022,14.022,0,0,0-3.959,14.1l2.458,8.656-6.2,1.5-2.885.7,0.7,2.885,0.717,2.958,0.7,2.885,2.885-.7,7.641-1.851a4.84,4.84,0,0,0,7.007-1.7l6.457-1.565h0l2.885-.7,12.154-2.944,8.567,2.226a4.687,4.687,0,0,0,3.129.328l29.415-7.126v9.872l1.889,1.89h4.488v2.369H78.2L76.311,124.2v3.327l0.921,0.92-8.956,7.284-0.067,2.506,0,0,0,0,0.009,0.028v0.043l-0.021-.067L25.751,151.457a4.115,4.115,0,0,0-2.7,5.152l0.624,2a4.115,4.115,0,0,0,5.152,2.705l39.69-12.364-1.371,10.391h1.865l4.971-10.867h46.734l4.971,10.867h1.865l-1.274-9.654,37.408,11.653a4.111,4.111,0,0,0,5.152-2.705l0.624-2a4.119,4.119,0,0,0-2.7-5.152l-42.444-13.221-0.107.343-0.157-.157-0.072-2.719-8.82-7.173,1.032-1.031V124.2l-1.889-1.889H102.15V119.94h4.488l1.889-1.89V102.228l81.658-19.784a6.979,6.979,0,0,0,1.118-.157c2.868-.647,5.142-3.055,6.238-6.606A20.635,20.635,0,0,0,197.7,65.266Zm-93.011,64.147,10.741,8.736H102.15v-8.736h2.542Zm-14.347,0v8.736H76.816l10.741-8.736h2.789Z"/>
  <path class="cls-2" d="M12.417,116.978l-0.808-2.844L5.3,115.663l0.717,2.958,6.432-1.558C12.437,117.034,12.426,117.007,12.417,116.978ZM26.4,110.55l-5.342,1.294,0.7,2.48c0.043,0.152.077,0.3,0.1,0.456l5.249-1.272ZM17.99,85.315a13.912,13.912,0,0,1,10.221,1.026A8.714,8.714,0,0,0,21.94,83.2,6.4,6.4,0,0,0,20,83.5a6.54,6.54,0,0,0-3.155,2.2C17.215,85.558,17.6,85.427,17.99,85.315ZM69.468,137.2l1.054,0.955h3.3l10.741-8.736H79.035Zm97.561,20.88,0.624-2a2.224,2.224,0,0,0-1.463-2.786l-42.444-13.222v-0.026h-55v0L26.313,153.26a2.226,2.226,0,0,0-1.463,2.787l0.624,2a2.224,2.224,0,0,0,2.786,1.463l41.492-12.925h52.915l41.576,12.951A2.22,2.22,0,0,0,167.029,158.075ZM78.2,127.525H114.3V124.2H78.2v3.327Zm43.526,10.625,1.054-.955-9.567-7.781h-5.527l10.741,8.736h3.3Zm-86.2-35.462-2.047-7.207a12.121,12.121,0,0,0-23.32,6.623l4.078,14.358a2.969,2.969,0,1,0,5.712-1.622l-4.078-14.358a6.184,6.184,0,1,1,11.9-3.379l1.983,6.984Zm50.333-13.68V118.05h20.781V89.008H101.18v12.525a4.839,4.839,0,0,1-4.933,4.739c-0.154,0-.306-0.009-0.456-0.022-0.047,0-.092-0.01-0.139-0.015-0.106-.013-0.21-0.028-0.314-0.047-0.049-.008-0.1-0.017-0.147-0.027-0.111-.024-0.221-0.051-0.329-0.081-0.034-.01-0.068-0.017-0.1-0.027q-0.2-.061-0.392-0.138c-0.052-.021-0.1-0.044-0.152-0.066-0.078-.034-0.156-0.069-0.232-0.107-0.059-.029-0.116-0.059-0.174-0.091s-0.128-.073-0.191-0.111-0.118-.071-0.175-0.109-0.11-.078-0.164-0.118c-0.114-.082-0.223-0.169-0.329-0.26-0.035-.03-0.07-0.06-0.1-0.091-0.067-.061-0.131-0.124-0.194-0.188-0.026-.027-0.052-0.055-0.078-0.083a4.733,4.733,0,0,1-.757-1.08l-0.027-.054a4.557,4.557,0,0,1-.478-2.024V89.008H85.857Zm102.72-22.071c-1.026-4.734-1.1-8.975-.333-11.013a4.621,4.621,0,0,0-2.979-.383,4.13,4.13,0,0,0-.7.228L98.39,76.646l0.472,1.926-44.3,10.856-0.5-2.043-5.926,1.436a1.719,1.719,0,0,0-1.086.813L39.63,96.27l-3.709.9,2.652,10.241-9.33,2.261L30,112.809l12.878-3.12,9.634,2.5a1.725,1.725,0,0,0,1.338.226l30.114-7.3V89.008l1.889-1.889h5.458L93.2,89.008v12.525a2.684,2.684,0,0,0,.325,1.274l5.763-1.4v-12.4l1.889-1.889h5.458l1.889,1.889V99.173l81.249-19.684a4.13,4.13,0,0,0,.873-0.1,4.726,4.726,0,0,0,2.712-1.857C191.69,76.449,189.722,72.217,188.577,66.938Z"/>
</svg>
