<svg xmlns="http://www.w3.org/2000/svg" width="200" height="200" viewBox="0 0 200 200">
  <defs>
    <style>
      .cls-1 {
        fill: #1e1e1e;
      }

      .cls-2 {
        fill: #fff;
      }
    </style>
  </defs>
  <g id="Layer_2" data-name="Layer 2">
    <g>
      <path class="cls-1" d="M57.55112,65.47636S86.61485,35.72957,98.33986,4.46288c0,0,13.27659,31.91808,35.85809,59.49357a14.36783,14.36783,0,0,1-11.07362,1.08565s18.456,31.48382,23.88428,36.91207l-9.77085.21713s24.7528,44.94587,31.2667,52.97967l-9.33658-1.737,18.2389,28.22688L149.1799,171.21858l-5.64537,16.06761-25.83845-13.89631-2.60556,1.95417v20.19307H81.86966v-18.456L61.0252,186.6348l-8.03381-13.67918L22.59322,183.37785l18.456-28.444-9.988,2.38843,30.39818-53.1968,2.1713-6.07964-18.8903,2.82269S66.67057,73.51016,70.14465,65.25923Z"/>
      <path class="cls-2" d="M97.391,15.37365s-12.036,30.941-34.16629,48.04l13.83146-2.44271S91.09,36.86951,95.54678,24.00456c0,0-7.27179,27.8469-20.02746,45.10872L91.80969,59.01675,109.6369,75.95287l3.381-16.12189s5.84,2.60556,17.21247,3.257c0,0-22.2353-21.17016-31.76363-50.48268Z"/>
      <path class="cls-2" d="M120.85574,67.97335s13.063,23.77572,20.5935,32.24378l-19.51772-3.41979-7.22309-13.842,7.22309,27.35836L101.03066,98.91435,83.81819,113.57061l3.914-28.33544L76.74878,115.09052,69.83305,91.74907,50.469,97.77442s15.82933-14.33057,21.05455-26.707l1.53682,5.53681L91.04128,63.25078l21.36191,19.54168,3.68839-18.89029Z"/>
      <path class="cls-2" d="M65.37625,104.77686s-17.51983,35.175-27.6629,49.1799L67.83518,139.3005l2.15156,15.959,11.83357-13.67918,17.67352,23.12433,5.22522-6.67675-2.00493-41.20038,7.07646,39.24622,20.5935,6.351,4.14943-21.98439-.55269-4.83114,5.00949,7.111,23.66715,9.77084s-19.21035-27.5212-29.35341-51.62261h-8.29887l.92209,15.1448-23.97451-8.30521L77.97824,121.22444l-6.14731,3.41979-4.30312-27.684Z"/>
      <polygon class="cls-2" points="47.856 153.305 29.107 178.71 55.848 168.939 62.303 181.641 88.384 172.521 101.338 184.246 115.169 169.264 141.296 183.269 145.445 165.519 171.11 177.732 154.666 153.631 138.99 148.094 132.075 170.404 108.407 159.168 98.879 170.567 79.822 150.537 65.223 164.216 65.069 144.674 47.856 153.305"/>
      <rect class="cls-2" x="86.89184" y="170.89289" width="23.51347" height="20.84446"/>
      <path class="cls-1" d="M86.86365,173.38988,101.338,184.24637,115.172,169.42726l-.73282,7.65382-13.46205,10.8565-17.80464-9.11946C83.38957,177.9496,86.86365,173.38988,86.86365,173.38988Z"/>
      <path class="cls-1" d="M113.78774,64.60784a93.30862,93.30862,0,0,1-9.11945-19.32455S106.62246,62.65367,112.485,73.293Z"/>
      <path class="cls-1" d="M114.79806,106.7955s-1.7424,14.98684.07313,22.26178c0,0-6.52715-14.2354-5.708-20.18479l1.89232-4.16129Z"/>
      <ellipse class="cls-1" cx="80.64831" cy="130.26247" rx="5.94393" ry="5.71963"/>
      <ellipse class="cls-1" cx="126.24557" cy="136.45067" rx="5.94393" ry="5.71963"/>
      <ellipse class="cls-1" cx="101.49277" cy="40.69642" rx="5.94393" ry="5.71963"/>
      <ellipse class="cls-1" cx="93.0247" cy="74.56867" rx="5.94393" ry="5.71963"/>
      <polygon class="cls-1" points="44.306 152.98 40.615 160.796 65.585 146.683 65.802 142.34 44.306 152.98"/>
      <polygon class="cls-1" points="70.959 179.687 76.333 168.45 76.984 177.57 70.959 179.687"/>
    </g>
  </g>
</svg>
