<svg id="bridge_building" xmlns="http://www.w3.org/2000/svg" width="200" height="200" viewBox="0 0 200 200">
  <defs>
    <style>
      .cls-1 {
        fill: #1e1e1e;
      }

      .cls-1, .cls-2 {
        fill-rule: evenodd;
      }

      .cls-2 {
        fill: #fff;
      }
    </style>
  </defs>
  <path class="cls-1" d="M196.975,121.6L163.456,73.436a4.268,4.268,0,0,0-3.495-1.871H40.039a4.269,4.269,0,0,0-3.5,1.871L3.025,121.6a4.836,4.836,0,0,0-.382,4.809,4.324,4.324,0,0,0,3.878,2.529h64.8a4.27,4.27,0,0,0,3.5-1.871L96.9,95.334h6.2l22.082,31.731a4.272,4.272,0,0,0,3.5,1.871h64.8a4.325,4.325,0,0,0,3.878-2.529A4.836,4.836,0,0,0,196.975,121.6Zm-36.7-45.607H40.349L6.831,124.153h64.8L91.69,95.334H33.872l5.733-8.29h63.557l25.825,37.109h64.8ZM118.635,91.1l-2.809-4.052h45.946l2.957,4.265H118.8Zm10.073,14.528-2.957-4.265H171.7l2.957,4.265H128.708Zm7.34,10.585h45.946l2.957,4.265H139.005Z"/>
  <path id="Shape_3_copy" data-name="Shape 3 copy" class="cls-2" d="M160.271,75.991H40.349L6.831,124.153h64.8L91.69,95.334H33.872l5.733-8.29h63.557l25.825,37.109h64.8ZM118.635,91.1l-2.809-4.052h45.946l2.957,4.265H118.8Zm10.073,14.528-2.957-4.265H171.7l2.957,4.265H128.708Zm7.34,10.585h45.946l2.957,4.265H139.005Z"/>
</svg>
