<svg id="ammo_box" xmlns="http://www.w3.org/2000/svg" width="200" height="200" viewBox="0 0 200 200">
  <defs>
    <style>
      .cls-1 {
        fill: #1e1e1e;
      }

      .cls-1, .cls-2 {
        fill-rule: evenodd;
      }

      .cls-2 {
        fill: #fff;
      }
    </style>
  </defs>
  <path id="Shape_5_copy" data-name="Shape 5 copy" class="cls-1" d="M193.8,65.212a3.816,3.816,0,0,0,2.022-3.368v-7.3A7.268,7.268,0,0,0,191.1,50.62l-13.508-3.038a3.814,3.814,0,0,0-1.618-6.632l-14.785-3.366a3.819,3.819,0,0,0-2.642.353l-7.078,3.77L105.587,31.388a3.816,3.816,0,0,0-2.091-6.155L88.71,21.866a3.816,3.816,0,0,0-2.641.353l-6.309,3.36L66.351,22.563a3.817,3.817,0,0,0-2.636.358L7.784,52.82a3.813,3.813,0,0,0-1.8,2.09,3.815,3.815,0,0,0-.811,2.349v7.3a3.816,3.816,0,0,0,2.971,3.722l1.285,0.291c0,0.028,0,.056,0,0.085v66.9a3.74,3.74,0,0,0-.435-0.026,3.816,3.816,0,0,0-3.816,3.817v7.295a3.817,3.817,0,0,0,2.971,3.722l122.383,27.778a3.79,3.79,0,0,0,1.905-.059,3.788,3.788,0,0,0,.939-0.348L193.8,145.546a3.814,3.814,0,0,0,2.022-3.368v-7.295a3.8,3.8,0,0,0-4.948-3.638V66.77Z"/>
  <path class="cls-2" d="M36.228,111.357l1.742-3.089v-3.539l7.2,1.635v3.225l1.8,4.206v23.919l-10.741-2.438V111.357Zm8.943-6.588-7.2-1.634V91.022l0.211,0.048c0.451-6.459,1.759-12.382,3.389-12.012s2.974,6.894,3.439,13.562l0.162,0.037v3.571c0.008,0.407.015,0.812,0.015,1.21,0,0.161-.013.279-0.015,0.436v6.9Zm3.574,36.805L34.4,138.318v-1.755l14.345,3.256v1.755ZM55.36,115.7L57.1,112.61v-3.538l7.2,1.634v3.225l1.8,4.206v23.919L55.36,139.618V115.7Zm8.943-6.588-7.2-1.634V95.365l0.211,0.048C57.764,88.953,59.072,83.031,60.7,83.4s2.974,6.895,3.439,13.562L64.3,97v3.571c0.008,0.406.015,0.812,0.015,1.21,0,0.16-.013.279-0.015,0.435v6.9Zm3.574,36.806-14.345-3.256v-1.756l14.345,3.256v1.756Zm5.4-26.151,1.742-3.089v-3.539l7.2,1.635V118l1.8,4.206v23.919l-10.741-2.438V119.766Zm8.943-6.588-7.2-1.634V99.431l0.211,0.048c0.451-6.459,1.759-12.382,3.389-12.012s2.974,6.894,3.439,13.562l0.162,0.037v3.571c0.008,0.406.015,0.812,0.015,1.21,0,0.16-.013.279-0.015,0.435v6.9Zm3.574,36.805-14.345-3.256v-1.755l14.345,3.256v1.755ZM91.5,123.9l1.742-3.089v-3.538l7.2,1.634v3.226l1.8,4.2v23.919L91.5,147.82V123.9Zm8.943-6.587-7.2-1.635V103.567l0.211,0.048C93.9,97.155,95.21,91.233,96.84,91.6s2.974,6.894,3.439,13.562l0.162,0.036v3.571c0.008,0.407.015,0.813,0.015,1.21,0,0.161-.014.279-0.015,0.436v6.9Zm3.574,36.805-14.346-3.256v-1.756l14.346,3.256v1.756Zm87.991-11.941L131.582,174.36v-7.3l60.424-32.182v7.3Zm-64.24,24.886a3.806,3.806,0,0,1,.075-0.749L8.994,139.339v7.3l118.772,26.958v-6.529ZM13.245,69.433v66.958l10.749,2.44V71.873ZM115.864,92.725v66.958l11.869,2.694V95.418Zm17.512,4.669a3.817,3.817,0,0,1-1.794.448l-0.033,0v64.473l55.509-29.673V68.8Zm41.838-46.435L122.627,79.137l9.6,2.178a3.816,3.816,0,0,1,.843.3L186.051,53.4ZM98.12,70.118L146.3,44.457l-42.63-9.588L51.279,62.943,96.116,73.12A3.817,3.817,0,0,1,98.12,70.118ZM25.645,54.4L74.6,28.329l-9.083-2.043-52.377,28L23.778,56.7A3.813,3.813,0,0,1,25.645,54.4Zm18.664,3.858a3.562,3.562,0,0,1,1.64.893l56.7-30.2L87.863,25.587,32,55.338ZM118.62,82.141a3.557,3.557,0,0,1-3.292.895L99.961,79.388a3.573,3.573,0,0,1-2.445-2.037L46.1,65.682a3.56,3.56,0,0,1-3.446,1.054L27.292,63.089a3.574,3.574,0,0,1-2.531-2.251L8.994,57.259v7.3L131.377,92.332v-7.3Zm16.564,2.671c0,0.075.009,0.149,0.009,0.225V92.1l56.813-30.259v-7.3Zm-18.2-10.254a3.566,3.566,0,0,1,1.124.482l57.021-30.37L160.338,41.3,103.783,71.426Z"/>
</svg>
