<svg id="mg_nest_building" xmlns="http://www.w3.org/2000/svg" width="200" height="200" viewBox="0 0 200 200">
  <defs>
    <style>
      .cls-1 {
        fill: #1e1e1e;
      }

      .cls-1, .cls-2 {
        fill-rule: evenodd;
      }

      .cls-2 {
        fill: #fff;
      }
    </style>
  </defs>
  <path class="cls-1" d="M196.207,29.279l-3.893,14.528a2.994,2.994,0,0,1-1.5,1.877l-0.334.174a9.9,9.9,0,0,1-.613,2.116c-0.257.547-.548,1.168-3.483,2.908-2.753,1.633-3.884,1.815-4.255,1.875a4.481,4.481,0,0,1-.715.056c-2.637,0-5.918-2.478-6.758-4.084-0.174-.332-0.539-1.03-0.843-4.011a6.259,6.259,0,0,1-3.239.959c-0.106,0-.213,0-0.318-0.009a6.18,6.18,0,0,1-4.292-2.505c-0.058.168-.109,0.325-0.147,0.443a6.635,6.635,0,0,1-.671,1.589c-0.767,1.209-2.441,2.684-6.054,2.845-0.145.006-.291,0.01-0.431,0.01-3.163,0-4.706-1.72-5.067-3.193-0.015-.064-0.029-0.128-0.04-0.192l-0.1-.548-16.494,3a4.826,4.826,0,0,1-3.3,2.286l-23.608,4.3,15.1,35.012a2.993,2.993,0,0,1,.029,2.3c19.106,7.159,25.617,14.057,27.8,17.549a4.727,4.727,0,0,1,1.166.85,25.753,25.753,0,0,1,6.391,19.336c0.068,4.855-6.74,9.959-6.74,9.959,2.06,1.84,4.451,5.635,6.578,13.247a4.718,4.718,0,0,1-1.752,5.074c-0.762.56-18.872,13.79-36.687,20.692a4.722,4.722,0,0,1-1.7.319q-0.088,0-.177,0c-1.318-.05-32.529-1.444-54.273-21.858a4.671,4.671,0,0,1-.526-0.583,24.082,24.082,0,0,1-4.27-11.426c-1.081.467-2.166,0.915-3.249,1.334a4.171,4.171,0,0,1-1.509.282l-0.157,0c-1.167-.044-28.794-1.278-48.042-19.349a4.089,4.089,0,0,1-.466-0.516c-0.253-.332-6.145-8.235-2.87-17.619A4.175,4.175,0,0,1,6.873,105.9,35.609,35.609,0,0,1,4.2,96.112a18.914,18.914,0,0,1-.488-4.6h0c-0.595-9.262,9.432-16.187,9.433-16.188C25.351,65.106,40.7,63,41.448,62.9a4.182,4.182,0,0,1,1.592.1c13.31,3.467,22.52,7.11,28.894,10.453h0l0.013,0.007c0.336,0.176.662,0.352,0.983,0.526Q74.553,74.863,76,75.714c0.008-.012.015-0.024,0.023-0.036L89.558,57.246a4.836,4.836,0,0,1-4.3-3.951c0-.017-0.006-0.034-0.009-0.051l-11.53,2.1a4.058,4.058,0,0,1-2.092,1.078,3.822,3.822,0,0,1-.475.056l-3.249.591-13.167,4.55a4.749,4.749,0,0,1-1.925.407c-2.994,0-5.579-2.714-6.287-6.6-0.785-4.316,1.1-8.021,4.386-8.619a4.787,4.787,0,0,1,.852-0.077c0.137,0,.276.006,0.414,0.018l11.428-.312,5.477-1a3.887,3.887,0,0,1,.524-0.134,4,4,0,0,1,.716-0.064,4.17,4.17,0,0,1,2,.521l13.552-2.466a5.518,5.518,0,0,1,3.116-2.885L89.129,38A4.563,4.563,0,0,1,95.292,34l1.234,0.464A4.542,4.542,0,0,1,99.481,38.5l13.809-2.513a3.753,3.753,0,0,1-.56-2.24l0.239-4.093c0.066-1.123.638-2.689,2.99-3.772a17.127,17.127,0,0,1,4.064-1.161,70.435,70.435,0,0,1,11.953-.85c2.376,0,4.854.075,7.365,0.222a117.606,117.606,0,0,1,11.75,1.253l3.881-.557a5.26,5.26,0,0,1,1.143-1.763,4.11,4.11,0,0,1,2.959-1.067h0.007a24.264,24.264,0,0,1,5.5,1.03,2.992,2.992,0,0,1,2.065,3.539l-0.015.068a5.942,5.942,0,0,1,4.019,2.487,11.616,11.616,0,0,1,1.95-1.01q0.142-.056.288-0.1l14-3.972a2.994,2.994,0,0,1,1.648,0l5.61,1.622A2.993,2.993,0,0,1,196.207,29.279Zm-112.59,51.5a34.378,34.378,0,0,1,7.311,7.185,66.426,66.426,0,0,1,12.606-3.239,4.706,4.706,0,0,1,1.8.113c3.033,0.79,5.872,1.589,8.541,2.391L100.811,57.135Z"/>
  <path id="Shape_4_copy" data-name="Shape 4 copy" class="cls-2" d="M150.024,141.792L117.7,157.83c-37.052-5.273-51.219-20.582-51.219-20.582-2.906,8.329,2.543,15.491,2.543,15.491,20.705,19.439,51.219,20.583,51.219,20.583,17.436-6.756,35.6-20.1,35.6-20.1C152.93,142.827,150.024,141.792,150.024,141.792ZM82.115,87.055S78.643,76.59,41.986,67.042c0,0-19.378,2.518-30.954,16.248A71.858,71.858,0,0,0,54.462,100.8Zm-12.942,20.7a81.172,81.172,0,0,0,49.063,19.778L150.257,110.2S139.4,96.783,104.142,89.4C104.142,89.4,82.251,92.248,69.173,107.759ZM117.7,133.007c-37.052-5.272-51.219-20.582-51.219-20.582-2.906,8.329,2.543,15.492,2.543,15.492,20.705,19.439,51.219,20.582,51.219,20.582,17.436-6.756,35.6-20.095,35.6-20.095,0.249-9.665-3.1-15.174-3.1-15.174ZM53.983,127.9c-32.8-4.668-45.338-18.22-45.338-18.22C6.072,117.05,10.9,123.39,10.9,123.39c18.328,17.208,45.338,18.22,45.338,18.22,1.51-.586,3.027-1.227,4.534-1.908a16.67,16.67,0,0,1,4.38-9.227,14.409,14.409,0,0,1-3.424-6.418ZM187.706,26.882l-14,3.972s-2.336.928-3.027,2.333l-1.726.3-0.279-1.533a2.951,2.951,0,0,0-3.432-2.375l-2.469.449,0.957-4.166s-4.785-1.421-5.511-.7a4.243,4.243,0,0,0-.82,2.31l-6.34.91a112.9,112.9,0,0,0-11.893-1.293c-12.685-.743-23.076.487-23.209,2.748l-0.239,4.093c-0.069,1.17,2.625,2.387,7,3.392L96.3,42.122l0.193-3.3a1.572,1.572,0,0,0-1.017-1.564L94.24,36.8a1.573,1.573,0,0,0-2.123,1.38l-0.279,4.757-1.095.2a1.977,1.977,0,0,0-.485.026,2.955,2.955,0,0,0-2.079,2.756L71.522,48.946a1.486,1.486,0,0,0-1.379-.7,1.014,1.014,0,0,0-.252.085l-5.973,1.087-11.865.324a1.808,1.808,0,0,0-.6.006c-1.557.283-2.443,2.584-1.978,5.139s2.1,4.4,3.661,4.113a1.793,1.793,0,0,0,.484-0.164l13.528-4.674,3.717-.677a1,1,0,0,0,.233-0.012,1.353,1.353,0,0,0,.943-0.868l16.875-3.071a4.125,4.125,0,0,0,.89,1.056l-0.112.02a1.846,1.846,0,1,0,.661,3.633l5.914-1.076L78.436,77.449c0.821,0.607,1.649,1.269,2.457,1.985L99.737,53.524l2.876,0.245L117.6,88.3c1.429,0.462,3.071,1,4.807,1.6l-16.6-38.468,27.311-4.97a1.845,1.845,0,0,0,1.51-1.96l21.243-3.866,0.62,3.512s0.245,1,2.457.9,3.241-.8,3.66-1.459,0.694-3.17,2.367-4.045a4.451,4.451,0,0,1,2.274.133s1.428,2.9,3.171,3,3.219-1.713,3.219-1.713l2.966,1.315s0.282,4.276.692,5.061,2.962,2.684,4.344,2.46a18.354,18.354,0,0,0,5.506-3.1c0.174-.37.7-2.849,0.7-2.849l1.57-.821L193.316,28.5ZM65.239,100.056h0L53.983,105.64c-32.8-4.667-45.338-18.219-45.338-18.219C6.072,94.793,10.9,101.134,10.9,101.134c18.328,17.207,45.338,18.219,45.338,18.219,1.507-.584,3.02-1.224,4.524-1.9C57.552,105.862,65.239,100.056,65.239,100.056Z"/>
</svg>
