<svg xmlns="http://www.w3.org/2000/svg" width="64" height="64" viewBox="0 0 64 64">
  <metadata><?xpacket begin="﻿" id="W5M0MpCehiHzreSzNTczkc9d"?>
<x:xmpmeta xmlns:x="adobe:ns:meta/" x:xmptk="Adobe XMP Core 5.6-c138 79.159824, 2016/09/14-01:09:01        ">
   <rdf:RDF xmlns:rdf="http://www.w3.org/1999/02/22-rdf-syntax-ns#">
      <rdf:Description rdf:about=""/>
   </rdf:RDF>
</x:xmpmeta>
                                                                                                    
                                                                                                    
                                                                                                    
                                                                                                    
                                                                                                    
                                                                                                    
                                                                                                    
                                                                                                    
                                                                                                    
                                                                                                    
                                                                                                    
                                                                                                    
                                                                                                    
                                                                                                    
                                                                                                    
                                                                                                    
                                                                                                    
                                                                                                    
                                                                                                    
                                                                                                    
                           
<?xpacket end="w"?></metadata>
<defs>
    <style>
      .cls-1 {
        fill: #2d2d2d;
      }

      .cls-1, .cls-2 {
        fill-rule: evenodd;
      }

      .cls-2 {
        fill: #dfdfdf;
      }
    </style>
  </defs>
  <path class="cls-1" d="M57,47v4H7V47H9V43l2,0.017H10.987L11,25.036c0-8.255,2.572-12.009,10.452-12.009l21.1-.031c7.88,0,10.472,3.756,10.472,12.03L53,30V43l2.013,0.017H55V47h2Z"/>
  <path class="cls-2" d="M8,50V48H56v2H8Zm2-6H54v2H10V44ZM34,28v4H52l0.013,10.017L26,42V32H18V42.011l-6.013.005L12,26.036c0-8.255,2.572-12.009,10.452-12.009L24,14.021l0.992,0,16.556-.022c7.88,0,10.472,3.756,10.472,12.03L52,28H34Z"/>
</svg>
