<?xml version="1.0" encoding="utf-8"?>
<!-- Generator: Adobe Illustrator 23.0.3, SVG Export Plug-In . SVG Version: 6.00 Build 0)  -->
<svg version="1.1" id="Layer_1" xmlns="http://www.w3.org/2000/svg" xmlns:xlink="http://www.w3.org/1999/xlink" x="0px" y="0px"
	 viewBox="0 0 100 100" style="enable-background:new 0 0 100 100;" xml:space="preserve">
<style type="text/css">
	.st0{fill:#F1F2F2;}
	.st1{fill:#BCBEC0;}
	.st2{fill:#6D6E71;}
</style>
<g>
	<circle class="st0" cx="50" cy="50.01" r="46.3" style="fill:#F1F2F2" />
	<path class="st1" style="fill:#BCBEC0" d="M4.56,41.09l18.22,17.76l-4.3,25.06C9.4,75.47,3.7,63.4,3.7,50.01C3.7,46.96,3.99,43.97,4.56,41.09z"/>
	<path class="st1" style="fill:#BCBEC0" d="M33.18,26.85L8,30.51C14.61,16.29,28.24,5.99,44.43,4.05L33.18,26.85z"/>
	<path class="st1" style="fill:#BCBEC0" d="M50,78.63l22.52,11.84c-6.66,3.72-14.34,5.84-22.52,5.84s-15.86-2.12-22.52-5.84L50,78.63z"/>
	<path class="st1" style="fill:#BCBEC0" d="M66.83,26.85L55.57,4.05C71.76,5.99,85.4,16.29,92,30.51L66.83,26.85z"/>
	<polygon points="71.23,56.9 76.24,86.12 50,72.33 23.77,86.12 28.78,56.9 7.55,36.22 36.88,31.95 50,5.37 63.13,31.95 92.45,36.22 
			"/>
	<path class="st1" style="fill:#BCBEC0" d="M96.3,50.01c0,13.39-5.69,25.46-14.79,33.91l-4.3-25.06l18.22-17.76C96.01,43.97,96.3,46.96,96.3,50.01z"/>
	<polygon points="63.13,31.95 92.45,36.22 71.23,56.9 76.24,86.12 50,72.33 23.77,86.12 28.78,56.9 7.55,36.22 36.88,31.95 50,5.37 
			"/>
	<polygon class="st2" style="fill:#6D6E71" points="71.23,56.9 76.24,86.12 50,72.33 23.77,86.12 28.78,56.9 7.55,36.22 36.88,31.95 50,5.37 63.13,31.95 
		92.45,36.22 	"/>
</g>
</svg>
