<?xml version="1.0" encoding="utf-8"?>
<!-- Generator: Adobe Illustrator 27.3.1, SVG Export Plug-In . SVG Version: 6.00 Build 0)  -->
<svg version="1.1" id="Layer_1" xmlns="http://www.w3.org/2000/svg" xmlns:xlink="http://www.w3.org/1999/xlink" x="0px" y="0px"
	 viewBox="0 0 100 100" style="enable-background:new 0 0 100 100;" xml:space="preserve">
<g>
	<path style="opacity:0.45;fill:#131313;enable-background:new    ;" d="M86,37.5l-7.4-2.2c-0.4-0.1-0.7-0.2-1.1-0.3
		c-0.5-0.1-0.9-0.2-1.4-0.3c0.7-3.9,0.8-9.7,0.8-11.2C76.9,10.6,66.3,0,53.1,0h-7.2C32.8,0,22.1,10.6,22.1,23.6
		c0,1.5,0.2,7.4,0.9,11.4c-0.5,0.1-1,0.2-1.4,0.3L14,37.5C4,40.4-1.9,50.6,0.6,60.7l6.2,24.6c2.2,8.7,10,14.7,19,14.7h48.5
		c9,0,16.8-6.1,19-14.7l6.2-24.6C101.9,50.6,96,40.4,86,37.5z"/>
	<g>
		<path style="fill:#FFFFFF;" d="M83.5,45.6l-7.4-2.2c-0.3-0.1-0.6-0.2-1-0.3c-1.8-0.5-3.7,0.4-4.5,2c-3.5,6.4-10.3,10.6-17.9,10.6
			h-6.5c-7.5,0-14.3-4.1-17.8-10.4c-0.9-1.6-2.8-2.5-4.5-2c0,0-0.1,0-0.1,0l-7.4,2.2c-5.6,1.6-9,7.4-7.5,13l6.2,24.6
			c1.2,4.8,5.6,8.3,10.7,8.3h48.5c5,0,9.4-3.4,10.7-8.3l6.2-24.6C92.5,53,89.2,47.3,83.5,45.6z"/>
		<path style="fill:#FFFFFF;" d="M53.1,8.5h-7.2c-8.4,0-15.2,6.7-15.2,15v0c0,2.4,0.3,8.4,0.9,10.7l1.3,5c1.6,6,7.1,10.2,13.3,10.2
			h6.5c6.3,0,11.7-4.2,13.3-10.2l1.3-5c0.6-2.3,0.9-8.3,0.9-10.7v0C68.3,15.2,61.5,8.5,53.1,8.5z"/>
	</g>
</g>
</svg>
