<svg xmlns="http://www.w3.org/2000/svg" width="22" height="22" viewBox="0 0 22 22"><g transform="translate(-2 -1)"><circle cx="3" cy="3" r="3" transform="translate(10 1)" fill="#eee"/><circle cx="3" cy="3" r="3" transform="translate(2 14)" fill="#eee"/><path d="M17,4a3.453,3.453,0,0,1-.5,1.8A8.081,8.081,0,0,1,21,13a4.552,4.552,0,0,1,2,.5V13a10.162,10.162,0,0,0-6-9.2Z" fill="#eee"/><path d="M17.8,19.4a8,8,0,0,1-9.6,0,4.013,4.013,0,0,1-1.6,1.3A9.659,9.659,0,0,0,13,23a10.207,10.207,0,0,0,6.4-2.3A5.088,5.088,0,0,1,17.8,19.4Z" fill="#eee"/><path d="M5,13A8.016,8.016,0,0,1,9.5,5.8,3.453,3.453,0,0,1,9,4V3.8A10.162,10.162,0,0,0,3,13v.5A4.552,4.552,0,0,1,5,13Z" fill="#eee"/><circle cx="3" cy="3" r="3" transform="translate(18 14)" fill="#eee"/></g></svg>