<svg xmlns="http://www.w3.org/2000/svg" width="100" height="100" viewBox="0 0 100 100">
  <defs>
    <style>
      .cls-1 {
        fill: #131313;
        opacity: 0.45;
      }

      .cls-1, .cls-2 {
        fill-rule: evenodd;
      }

      .cls-2 {
        fill: #fff;
      }
    </style>
  </defs>
  <path class="cls-1" d="M96.235,19.947L54.792,6.309A8,8,0,0,0,38.966,7.992V54.01H21.886a7.292,7.292,0,0,0-6.8,4.608L2.545,89.92a7.347,7.347,0,0,0,6.8,10.089H84.605a7.347,7.347,0,0,0,6.8-10.088L78.86,58.617a7.291,7.291,0,0,0-6.8-4.607H54.97V44.531L96.506,27.445A4,4,0,0,0,96.235,19.947Z"/>
  <path id="Shape_5_copy" data-name="Shape 5 copy" class="cls-2" d="M95.011,23.737L51,41.842V78a4,4,0,0,1-8,0V7.983a4,4,0,0,1,8,0v1.27ZM54.983,78V58h17.1A3.326,3.326,0,0,1,75.173,60.1L87.716,91.4a3.368,3.368,0,0,1-.328,3.126A3.321,3.321,0,0,1,84.631,96H9.369a3.321,3.321,0,0,1-2.757-1.475A3.368,3.368,0,0,1,6.284,91.4L18.827,60.1A3.326,3.326,0,0,1,21.912,58H39V78A7.992,7.992,0,1,0,54.983,78Z"/>
</svg>
