<?xml version="1.0" encoding="UTF-8" standalone="no"?>
<svg
   xmlns:dc="http://purl.org/dc/elements/1.1/"
   xmlns:cc="http://creativecommons.org/ns#"
   xmlns:rdf="http://www.w3.org/1999/02/22-rdf-syntax-ns#"
   xmlns:svg="http://www.w3.org/2000/svg"
   xmlns="http://www.w3.org/2000/svg"
   xmlns:sodipodi="http://sodipodi.sourceforge.net/DTD/sodipodi-0.dtd"
   xmlns:inkscape="http://www.inkscape.org/namespaces/inkscape"
   aria-hidden="true"
   focusable="false"
   data-prefix="fas"
   data-icon="dice"
   class="svg-inline--fa fa-dice fa-w-20"
   role="img"
   viewBox="0 0 640 640"
   version="1.1"
   id="svg4"
   sodipodi:docname="dice_solid.svg"
   width="640"
   height="640"
   inkscape:version="0.92.1 r15371">
  <metadata
     id="metadata10">
    <rdf:RDF>
      <cc:Work
         rdf:about="">
        <dc:format>image/svg+xml</dc:format>
        <dc:type
           rdf:resource="http://purl.org/dc/dcmitype/StillImage" />
        <dc:title></dc:title>
      </cc:Work>
    </rdf:RDF>
  </metadata>
  <defs
     id="defs8" />
  <sodipodi:namedview
     pagecolor="#ffffff"
     bordercolor="#666666"
     borderopacity="1"
     objecttolerance="10"
     gridtolerance="10"
     guidetolerance="10"
     inkscape:pageopacity="0"
     inkscape:pageshadow="2"
     inkscape:window-width="2690"
     inkscape:window-height="1669"
     id="namedview6"
     showgrid="false"
     inkscape:pagecheckerboard="true"
     inkscape:zoom="0.4609375"
     inkscape:cx="346.0339"
     inkscape:cy="256"
     inkscape:window-x="0"
     inkscape:window-y="60"
     inkscape:window-maximized="0"
     inkscape:current-layer="svg4" />
  <path
     d="M 592,257.59322 H 473.26 c 12.69,29.59 7.12,65.2 -17,89.32 L 320,483.17322 v 46.42 c 0,26.51 21.49,48 48,48 h 224 c 26.51,0 48,-21.49 48,-48 v -224 c 0,-26.51 -21.49,-48 -48,-48 z m -112,184 c -13.25,0 -24,-10.75 -24,-24 0,-13.26 10.75,-24 24,-24 13.25,0 24,10.74 24,24 0,13.25 -10.75,24 -24,24 z m -46.37,-186.7 -174.93,-174.93 c -19.16,-19.16 -50.23,-19.16 -69.39,0 l -174.94,174.93 c -19.16,19.16 -19.16,50.23 0,69.39 l 174.93,174.94 c 19.16,19.16 50.23,19.16 69.39,0 l 174.94,-174.93 c 19.16,-19.17 19.16,-50.24 0,-69.4 z m -337.63,58.7 c -13.25,0 -24,-10.75 -24,-24 0,-13.26 10.75,-24 24,-24 13.25,0 24,10.74 24,24 0,13.25 -10.75,24 -24,24 z m 128,128 c -13.25,0 -24,-10.75 -24,-24 0,-13.26 10.75,-24 24,-24 13.25,0 24,10.74 24,24 0,13.25 -10.75,24 -24,24 z m 0,-128 c -13.25,0 -24,-10.75 -24,-24 0,-13.26 10.75,-24 24,-24 13.25,0 24,10.74 24,24 0,13.25 -10.75,24 -24,24 z m 0,-128 c -13.25,0 -24,-10.75 -24,-24 0,-13.26 10.75,-24 24,-24 13.25,0 24,10.74 24,24 0,13.25 -10.75,24 -24,24 z m 128,128 c -13.25,0 -24,-10.75 -24,-24 0,-13.26 10.75,-24 24,-24 13.25,0 24,10.74 24,24 0,13.25 -10.75,24 -24,24 z"
     id="path2"
     inkscape:connector-curvature="0"
     style="fill:#ffffff;fill-opacity:1" />
</svg>
