<svg id="guns_sights" data-name="guns sights" xmlns="http://www.w3.org/2000/svg" width="128" height="128" viewBox="0 0 128 128">
  <metadata><?xpacket begin="﻿" id="W5M0MpCehiHzreSzNTczkc9d"?>
<x:xmpmeta xmlns:x="adobe:ns:meta/" x:xmptk="Adobe XMP Core 5.6-c138 79.159824, 2016/09/14-01:09:01        ">
   <rdf:RDF xmlns:rdf="http://www.w3.org/1999/02/22-rdf-syntax-ns#">
      <rdf:Description rdf:about=""/>
   </rdf:RDF>
</x:xmpmeta>
                                                                                                    
                                                                                                    
                                                                                                    
                                                                                                    
                                                                                                    
                                                                                                    
                                                                                                    
                                                                                                    
                                                                                                    
                                                                                                    
                                                                                                    
                                                                                                    
                                                                                                    
                                                                                                    
                                                                                                    
                                                                                                    
                                                                                                    
                                                                                                    
                                                                                                    
                                                                                                    
                           
<?xpacket end="w"?></metadata>
<defs>
    <style>
      .cls-1 {
        fill: #e0e0e0;
        fill-rule: evenodd;
      }
    </style>
  </defs>
  <path class="cls-1" d="M99.877,101.787l-9.155-9.7a39.225,39.225,0,0,0,4.7-5.345L71.085,74.8a13.044,13.044,0,0,1-14.2-.026L32.566,86.74A39.2,39.2,0,0,0,37.3,92.119l-9.151,9.708A51.994,51.994,0,1,1,99.877,101.787ZM25.068,63.8a38.711,38.711,0,0,0,4.071,17.329l23.2-11.419A13.059,13.059,0,0,1,52.5,57.534L29.2,46.343A38.749,38.749,0,0,0,25.068,63.8ZM63.995,24.873A38.867,38.867,0,0,0,32.644,40.731L57.283,52.567a13.032,13.032,0,0,1,13.886.268l24.322-11.9A38.866,38.866,0,0,0,63.995,24.873ZM98.951,46.665l-23.2,11.354a13,13,0,0,1-.089,11.727L98.851,81.131A38.938,38.938,0,0,0,98.951,46.665Z"/>
</svg>
