<svg xmlns="http://www.w3.org/2000/svg" width="56.85" height="50.834" viewBox="0 0 56.85 50.834">
  <g id="Group_4540" data-name="Group 4540" transform="translate(0 0)">
    <path id="Path_2570" data-name="Path 2570" d="M.507,0,0,.709l4.243,3.05L3.925,4.2l1.038.743.166,1.014L22.465,18.42l2.158,1.551L32.645,27.6l.156.935,6.408,7.429.9-.146.54-.752,3.119,3.139L52.6,50.833l3.988-4.3.259-1.6-9.026-7.382-1.6-.259-2.778-2.8-.166-1,.656-.915-.719-.517-.2-1.236L39.062,27.97l-7.415-5.327.573-.8-3.537-2.543-1.041.2Z" transform="translate(0 0)" fill="#fff"/>
    <path id="Path_2571" data-name="Path 2571" d="M17.8,11.791l-3.978,2.847-.2,1.227-.7.534.633.9-.166,1.028-2.751,2.784-1.624.265L0,28.763l.265,1.591L4.243,34.66l8.851-12.626,3.113-3.149.534.762.9.166,6.431-7.458.133-.928,2.715-2.586L24.5,6.984Z" transform="translate(0.001 16.169)" fill="#fff"/>
    <path id="Path_2572" data-name="Path 2572" d="M9.28,18.369l1.893,1.293L30.233,5.938l.162-.994,1.064-.762-.335-.431L35.368.7,34.871,0Z" transform="translate(21.482 0.011)" fill="#fff"/>
  </g>
</svg>
