<svg xmlns="http://www.w3.org/2000/svg" width="128" height="128"><defs id="defs6"/><path style="line-height:normal;font-variant-ligatures:normal;font-variant-position:normal;font-variant-caps:normal;font-variant-numeric:normal;font-variant-alternates:normal;font-feature-settings:normal;text-indent:0;text-align:start;text-decoration-line:none;text-decoration-style:solid;text-decoration-color:#000;text-transform:none;text-orientation:mixed;white-space:normal;shape-padding:0;isolation:auto;mix-blend-mode:normal;solid-color:#000;solid-opacity:1" d="M 42.265625,2.7851562 C 32.259911,2.885384 22.623465,6.5421035 15.126953,13.101562 6.8664327,20.141383 2.0512854,30.385092 2,41.185547 v 0.01758 0.01758 C 2,54.944486 8.2358161,67.872096 19.324219,78.796875 L 64,126 69.173828,120.5332 108.625,78.847656 C 119.74563,67.912167 126,54.963785 126,41.21875 v -0.01563 -0.01758 C 125.94872,30.387781 121.13542,20.145454 112.87891,13.105469 105.38119,6.5425888 95.743094,2.8853494 85.734375,2.7851562 h -0.0293 -0.02734 C 77.911361,2.7678648 70.410271,5.1050127 64,9.2929688 57.589459,5.1050063 50.08886,2.7677836 42.322266,2.7851562 h -0.0293 z M 42.382812,17.03125 c 6.258882,-0.0067 12.281185,2.288559 16.865235,6.394531 L 64,27.681641 68.751953,23.423828 c 4.583789,-4.106262 10.606314,-6.399247 16.865235,-6.392578 6.633943,0.07251 13.002463,2.505141 17.910152,6.8125 l 0.043,0.03711 0.043,0.03711 c 5.16671,4.391567 8.10393,10.689737 8.14063,17.318359 -0.005,9.59587 -4.04038,18.573288 -13.216801,27.554688 l -0.09766,0.0957 L 64,105.27539 29.560547,68.888672 l -0.09766,-0.0957 c -9.176423,-8.981401 -13.2118,-17.958817 -13.216797,-27.554688 0.03613,-6.629367 2.97308,-12.928615 8.140625,-17.320312 l 0.04297,-0.03711 0.04297,-0.03711 c 4.907364,-4.307246 11.27653,-6.739947 17.910156,-6.8125 z" id="path8" color="#000" font-style="normal" font-variant="normal" font-weight="400" font-stretch="normal" font-size="medium" font-family="sans-serif" text-decoration="none" letter-spacing="normal" word-spacing="normal" writing-mode="lr-tb" direction="ltr" dominant-baseline="auto" baseline-shift="baseline" text-anchor="start" clip-rule="nonzero" display="inline" overflow="visible" visibility="visible" opacity="1" color-interpolation="sRGB" color-interpolation-filters="linearRGB" vector-effect="none" fill="#fffffe" fill-opacity="1" fill-rule="evenodd" stroke="none" stroke-width="14.24506092" stroke-linecap="butt" stroke-linejoin="miter" stroke-miterlimit="4" stroke-dasharray="none" stroke-dashoffset="0" stroke-opacity="1" color-rendering="auto" image-rendering="auto" shape-rendering="auto" text-rendering="auto"/></svg>