<svg id="guns_sights" data-name="guns sights" xmlns="http://www.w3.org/2000/svg" width="128" height="128" viewBox="0 0 128 128">
  <defs>
    <style>
      .cls-1 {
        fill: #e0e0e0;
        fill-rule: evenodd;
      }
    </style>
  </defs>
  <path class="cls-1" d="M65.5,59.495L29.475,95.516a2.038,2.038,0,0,0,0,2.882L30.2,99.119a2.038,2.038,0,0,0,2.882,0L69.124,63.074a32.335,32.335,0,0,0,8.131,5.008L31.666,113.345a12.545,12.545,0,0,1-8.823,3.647,11.682,11.682,0,0,1-6.992-2.277,11.838,11.838,0,0,1-1.336-17.96L60.3,51.291A32.345,32.345,0,0,0,65.5,59.495Zm-42.92,40.878a5.114,5.114,0,1,0,5.114,5.114A5.114,5.114,0,0,0,22.576,100.373ZM89.987,66.06a28.181,28.181,0,0,1-8.363-.986l-0.01,0A28.056,28.056,0,0,1,63.672,47.947l0.005-.005a27.591,27.591,0,0,1,6.565-29.026C77.707,11.5,88.99,9.354,98.678,12.148a1.9,1.9,0,0,1,1.3,1.391,1.929,1.929,0,0,1-.518,1.825L85.654,29.07,90.047,41.53l12.55,4.362,11.9-11.813a1.964,1.964,0,0,1,2.019-.462,1.933,1.933,0,0,1,1.209,1.256,28.037,28.037,0,0,1,.234,3.449A27.745,27.745,0,0,1,89.987,66.06Z"/>
</svg>
