<svg xmlns="http://www.w3.org/2000/svg" width="38" height="38" viewBox="0 0 38 38">
  <defs>
    <style>
      .cls-1 {
        fill: #fff;
        fill-rule: evenodd;
      }
    </style>
  </defs>
  <path id="flask_icon" class="cls-1" d="M22.132,9.061a1.163,1.163,0,0,1-.106-0.46V5.935H15.911V8.6a1.163,1.163,0,0,1-.105.46A11.056,11.056,0,0,0,8,19.4v6.742a11,11,0,0,0,22,0V19.4A11.114,11.114,0,0,0,22.132,9.061Zm0.14-5.021V2.033A1.052,1.052,0,0,0,21.214.988h-4.49a1.052,1.052,0,0,0-1.058,1.046V4.04h6.607Z"/>
</svg>
