<?xml version="1.0" encoding="UTF-8" standalone="no"?>
<!-- Created with Inkscape (http://www.inkscape.org/) -->

<svg
   xmlns:dc="http://purl.org/dc/elements/1.1/"
   xmlns:cc="http://creativecommons.org/ns#"
   xmlns:rdf="http://www.w3.org/1999/02/22-rdf-syntax-ns#"
   xmlns:svg="http://www.w3.org/2000/svg"
   xmlns="http://www.w3.org/2000/svg"
   xmlns:sodipodi="http://sodipodi.sourceforge.net/DTD/sodipodi-0.dtd"
   xmlns:inkscape="http://www.inkscape.org/namespaces/inkscape"
   width="200mm"
   height="200mm"
   viewBox="0 0 200 200"
   version="1.1"
   id="svg8"
   inkscape:version="0.92.2 (5c3e80d, 2017-08-06)"
   sodipodi:docname="forbid.svg">
  <defs
     id="defs2" />
  <sodipodi:namedview
     id="base"
     pagecolor="#a0a0a0"
     bordercolor="#666666"
     borderopacity="1.0"
     inkscape:pageopacity="0"
     inkscape:pageshadow="2"
     inkscape:zoom="0.24748737"
     inkscape:cx="-788.92673"
     inkscape:cy="730.06032"
     inkscape:document-units="px"
     inkscape:current-layer="layer1"
     showgrid="true"
     inkscape:window-width="1920"
     inkscape:window-height="1000"
     inkscape:window-x="-11"
     inkscape:window-y="-11"
     inkscape:window-maximized="1" />
  <metadata
     id="metadata5">
    <rdf:RDF>
      <cc:Work
         rdf:about="">
        <dc:format>image/svg+xml</dc:format>
        <dc:type
           rdf:resource="http://purl.org/dc/dcmitype/StillImage" />
        <dc:title></dc:title>
      </cc:Work>
    </rdf:RDF>
  </metadata>
  <g
     inkscape:label="Layer 1"
     inkscape:groupmode="layer"
     id="layer1"
     transform="translate(0,-97.000001)">
    <path
       style="fill:#ffffff;fill-opacity:1;stroke:none;stroke-width:0.15875;stroke-miterlimit:4;stroke-dasharray:none;stroke-dashoffset:0"
       d="m 100.00026,111.38843 a 85.611609,85.611609 0 0 0 -85.61183,85.61183 85.611609,85.611609 0 0 0 85.61183,85.61131 85.611609,85.611609 0 0 0 85.61131,-85.61131 85.611609,85.611609 0 0 0 -85.61131,-85.61183 z m 0,18.90375 a 66.708183,66.708183 0 0 1 66.70807,66.70808 66.708183,66.708183 0 0 1 -66.70807,66.70807 66.708183,66.708183 0 0 1 -66.708076,-66.70807 66.708183,66.708183 0 0 1 66.708076,-66.70808 z"
       id="path4779"
       inkscape:connector-curvature="0" />
    <path
       style="fill:#ffffff;fill-opacity:1;stroke:none;stroke-width:0.14731376;stroke-miterlimit:4;stroke-dasharray:none;stroke-dashoffset:0"
       d="m 54.220368,166.87507 c -0.25372,0.25372 -0.253718,0.66199 2e-6,0.91571 L 83.429588,197 54.22037,226.20922 c -0.25372,0.25372 -0.253722,0.66199 -2e-6,0.91571 l 15.654792,15.65479 c 0.25372,0.25372 0.661991,0.25372 0.915711,0 l 29.209219,-29.20922 29.20885,29.20885 c 0.25372,0.25372 0.66235,0.25409 0.91607,3.7e-4 l 15.6548,-15.65479 c 0.25372,-0.25372 0.25335,-0.66236 -3.7e-4,-0.91608 L 116.57059,197 145.77944,167.79114 c 0.25372,-0.25372 0.25409,-0.66235 3.7e-4,-0.91607 l -15.6548,-15.65479 c -0.25372,-0.25372 -0.66235,-0.25336 -0.91607,3.6e-4 L 100.00009,180.4295 70.790871,151.22028 c -0.25372,-0.25372 -0.661991,-0.25372 -0.915711,0 z"
       id="rect4785"
       inkscape:connector-curvature="0" />
  </g>
</svg>
