<svg xmlns="http://www.w3.org/2000/svg" width="128" height="128"><defs id="defs6"/><path style="line-height:normal;font-variant-ligatures:normal;font-variant-position:normal;font-variant-caps:normal;font-variant-numeric:normal;font-variant-alternates:normal;font-feature-settings:normal;text-indent:0;text-align:start;text-decoration-line:none;text-decoration-style:solid;text-decoration-color:#000;text-transform:none;text-orientation:mixed;white-space:normal;shape-padding:0;isolation:auto;mix-blend-mode:normal;solid-color:#000;solid-opacity:1" d="M 42.265625,2.7851562 C 32.259911,2.885384 22.623465,6.5421035 15.126953,13.101562 6.8664327,20.141383 2.0512854,30.385092 2,41.185547 v 0.01758 0.01758 C 2,54.944486 8.2358161,67.872096 19.324219,78.796875 L 64,126 69.173828,120.5332 108.625,78.847656 C 119.74563,67.912167 126,54.963785 126,41.21875 V 41.20312 41.18554 C 125.94872,30.387781 121.13542,20.145454 112.87891,13.105469 105.38119,6.5425888 95.743094,2.8853494 85.734375,2.7851562 h -0.0293 -0.02734 C 77.911361,2.7678648 70.410271,5.1050127 64,9.2929688 57.589459,5.1050063 50.08886,2.7677836 42.322266,2.7851562 h -0.0293 z" id="path8" color="#000" font-style="normal" font-variant="normal" font-weight="400" font-stretch="normal" font-size="medium" font-family="sans-serif" text-decoration="none" letter-spacing="normal" word-spacing="normal" writing-mode="lr-tb" direction="ltr" dominant-baseline="auto" baseline-shift="baseline" text-anchor="start" clip-rule="nonzero" display="inline" overflow="visible" visibility="visible" opacity="1" color-interpolation="sRGB" color-interpolation-filters="linearRGB" vector-effect="none" fill="#fff" fill-opacity="1" fill-rule="evenodd" stroke="none" stroke-width="14.24506092" stroke-linecap="butt" stroke-linejoin="miter" stroke-miterlimit="4" stroke-dasharray="none" stroke-dashoffset="0" stroke-opacity="1" color-rendering="auto" image-rendering="auto" shape-rendering="auto" text-rendering="auto"/></svg>