<svg id="guns_sights" data-name="guns sights" xmlns="http://www.w3.org/2000/svg" width="128" height="128" viewBox="0 0 128 128">
  <metadata><?xpacket begin="﻿" id="W5M0MpCehiHzreSzNTczkc9d"?>
<x:xmpmeta xmlns:x="adobe:ns:meta/" x:xmptk="Adobe XMP Core 5.6-c138 79.159824, 2016/09/14-01:09:01        ">
   <rdf:RDF xmlns:rdf="http://www.w3.org/1999/02/22-rdf-syntax-ns#">
      <rdf:Description rdf:about=""/>
   </rdf:RDF>
</x:xmpmeta>
                                                                                                    
                                                                                                    
                                                                                                    
                                                                                                    
                                                                                                    
                                                                                                    
                                                                                                    
                                                                                                    
                                                                                                    
                                                                                                    
                                                                                                    
                                                                                                    
                                                                                                    
                                                                                                    
                                                                                                    
                                                                                                    
                                                                                                    
                                                                                                    
                                                                                                    
                                                                                                    
                           
<?xpacket end="w"?></metadata>
<defs>
    <style>
      .cls-1 {
        fill: #e0e0e0;
        fill-rule: evenodd;
      }
    </style>
  </defs>
  <path id="Rounded_Rectangle_1" data-name="Rounded Rectangle 1" class="cls-1" d="M108,116H67.005v-8.121A44.045,44.045,0,0,0,107.879,67H116v41A8,8,0,0,1,108,116ZM67.005,20.121V12h41a8,8,0,0,1,8,8V61h-8.121A44.045,44.045,0,0,0,67.005,20.121Zm0,9.021A35.044,35.044,0,0,1,98.86,61H89.024v6H98.86A35.044,35.044,0,0,1,67.005,98.857V88.994H61v9.863a35.045,35.045,0,0,1-31.853-31.83H39V60.973H29.142A35.044,35.044,0,0,1,61,29.143V39h6.01V29.143Zm-8,29.85V69.013H69V58.992H59Zm-38.878,1.98H12V20a8,8,0,0,1,8-8H61v8.121A44.045,44.045,0,0,0,20.123,60.973ZM61,107.879V116H20a8,8,0,0,1-8-8V67.027h8.123A44.046,44.046,0,0,0,61,107.879Z"/>
</svg>
