<svg xmlns="http://www.w3.org/2000/svg" viewBox="0 0 269.08 314.71"><defs><style>.cls-1{opacity:0.05;}.cls-2{fill:#e6e6e6;}</style></defs><g id="Layer_2" data-name="Layer 2"><path class="cls-1" d="M278.59,192l-.35-1.34c-1.5-5-4-11.77-4.31-12.47l-48.19-130c-5-13.55-17.72-23-32.17-23.21a34.51,34.51,0,0,0-14.63,3q-1.22.54-2.37,1.17A34.77,34.77,0,0,0,144.4,7.26a34.36,34.36,0,0,0-12,2.17,34.88,34.88,0,0,0-10,5.7,34.62,34.62,0,0,0-19.64-6.2A33.94,33.94,0,0,0,93,10.36,34.56,34.56,0,0,0,69.13,36a34.4,34.4,0,0,0-12.46,3c-16.6,7.41-24.58,26.75-18.18,44l34.94,94.25-.35-.2a35.89,35.89,0,0,0-18-4.83h0a34.83,34.83,0,0,0-26.9,12.53,35.24,35.24,0,0,0,4.13,49.07L101,292.6c4.67,4.34,26.65,23.12,58.32,24.63,1.32.07,2.7.1,4.09.1,15.59,0,34.43-4.1,53.07-11.54s33.4-16.7,41.69-26.12C273.77,261.94,287.34,229.59,278.59,192Z" transform="translate(-12.25 -2.62)"/><path class="cls-1" d="M57.14,40a32.42,32.42,0,0,0-18.55,23.4C37,69.52,37.94,78.16,40.3,84.53l35.18,94.9-.07,0c-.91-.42-2.2-1-3.79-1.55a45.29,45.29,0,0,0-15.15-3.2,35.26,35.26,0,0,0-16.89,3.59,33.39,33.39,0,0,0-8.94,6.49,32.82,32.82,0,0,0-8.8,18.88,33.43,33.43,0,0,0,10.9,28.92c.1.14,4.53,4,4.66,4.08l63.28,54.2.35.32a99.08,99.08,0,0,0,10.92,8.5c9.61,6.43,26.25,15.4,47.32,16.44l.92,0q1.58.06,3.21.06c15.44,0,34.14-4.07,52.64-11.45s33.09-16.54,41.26-25.82c15.42-17.51,28.81-49.47,20.16-86.66l-.08-.31-.08-.33s-.18-.66-.19-.68c-1.48-4.94-4-11.68-4.26-12.34l-23.06-62.22L224.43,47.92a33.35,33.35,0,0,0-21.7-20.29,31.54,31.54,0,0,0-24.34,2.44c-.76.41-1.51.83-2.23,1.28-2.06-5.19-6.08-11.39-10.3-14.75a32.27,32.27,0,0,0-28.25-7.46,32.73,32.73,0,0,0-13.5,6.42c-.56.46-1.1,1-1.62,1.45A32.42,32.42,0,0,0,103,10.1q-1.2,0-2.4.06a32.07,32.07,0,0,0-5.43.82c-.68.16-1.36.35-2,.56a32.43,32.43,0,0,0-20.3,18.53c-.13.31-.25.63-.37.95s-.23.68-.35,1a31.45,31.45,0,0,0-2.34,5.19,32.75,32.75,0,0,0-4.84.45A32,32,0,0,0,57.14,40Z" transform="translate(-12.25 -2.62)"/><path class="cls-1" d="M57.61,41.05A30.63,30.63,0,0,0,39.77,64.9c-1.43,5.53.22,15.47,2.35,21.2l35.41,95.53-.06,0c-11-4.3-17.74-4.71-17.74-4.71a35.71,35.71,0,0,0-26.64,7.85,30.73,30.73,0,0,0-9.63,17.78,31.84,31.84,0,0,0,9.7,28.75c.19.27,4.3,3.86,4.56,4.08L100.38,289l.35.32a109.38,109.38,0,0,0,11,8.63c8.9,6,25.8,15.83,47.53,16.93l.93,0c1.06.05,2.15.07,3.24.07,15.3,0,33.84-4,52.21-11.38,18.22-7.27,32.78-16.37,40.82-25.5,15.23-17.3,28.46-48.88,19.91-85.64l-.08-.31-.09-.32-.18-.67c-1.48-4.91-4-11.6-4.22-12.22l-23.06-62.22L223.34,48.32a32,32,0,0,0-21.58-19.69,30.84,30.84,0,0,0-10.33-1,30.12,30.12,0,0,0-13.59,4.61c-.71.44-1.41.89-2.09,1.38-1.85-4.67-6.19-12.19-10-15.21a30.35,30.35,0,0,0-33.61-6.22,28.93,28.93,0,0,0-8,5.13c-.55.51-1.07,1.06-1.57,1.61a30.56,30.56,0,0,0-19.33-7.62c-.81,0-1.62,0-2.44,0a29.13,29.13,0,0,0-5.49.83c-.69.17-1.38.36-2,.58a30.44,30.44,0,0,0-11.82,7.09,30.08,30.08,0,0,0-7.69,12.25c-.11.32-.21.65-.3,1s-.16.72-.27,1a28.47,28.47,0,0,0-2.77,4.38,30.84,30.84,0,0,0-4.89.33A30.5,30.5,0,0,0,57.61,41.05Z" transform="translate(-12.25 -2.62)"/><path class="cls-1" d="M58.08,42.1A29.11,29.11,0,0,0,41,66.42c-1.26,4.91,1.09,16.15,3,21.24l35.65,96.18,0,0a45.74,45.74,0,0,0-19.75-5.47c-5.39-.21-15.44-.62-24.24,6.42a30.16,30.16,0,0,0-2,45.26c.28.41,4.08,3.74,4.47,4.08l62,53.14.36.32a124.06,124.06,0,0,0,11,8.76c8.19,5.61,25.36,16.25,47.75,17.42l.94.05c1.06,0,2.16.06,3.26.06,15.16,0,33.55-4,51.78-11.29,18-7.2,32.47-16.21,40.38-25.19,15-17.09,28.1-48.29,19.65-84.62l-.08-.3-.08-.32s-.17-.61-.18-.66c-1.48-4.88-4-11.52-4.19-12.1l-23.06-62.22L222.26,48.72A30.72,30.72,0,0,0,200.8,29.63a29.24,29.24,0,0,0-10.18-.71,28.41,28.41,0,0,0-13.33,5.4c-.67.48-1.32,1-1.94,1.48-1.65-4.15-6.31-13-9.68-15.66a28.78,28.78,0,0,0-28.23-8.56,29.33,29.33,0,0,0-5.39,1.93A27,27,0,0,0,124.19,19a19.47,19.47,0,0,0-1.52,1.77,28.86,28.86,0,0,0-19.17-8.32c-.82,0-1.65,0-2.47,0a28.39,28.39,0,0,0-5.57.83c-.69.18-1.38.38-2.07.61a28.82,28.82,0,0,0-11.73,7.45,28.45,28.45,0,0,0-7,12.7c-.08.33-.16.66-.22,1s-.1.76-.2,1a25.46,25.46,0,0,0-3.18,3.57,30.51,30.51,0,0,0-5,.22A29.05,29.05,0,0,0,58.08,42.1Z" transform="translate(-12.25 -2.62)"/><path class="cls-1" d="M58.55,43.16A27.72,27.72,0,0,0,42.14,67.94c-1.11,4.29,2,16.83,3.6,21.29L81.62,186h0a48.56,48.56,0,0,0-23.14-6.22c-5.55-.05-13.09-.1-20.47,5a29.52,29.52,0,0,0-11.3,15.6A29.06,29.06,0,0,0,34,228.77c.38.55,3.86,3.64,4.38,4.1l61.41,52.59.36.33a141.48,141.48,0,0,0,11.07,8.89c7.48,5.2,24.91,16.67,48,17.91l1,.05c1.07,0,2.18.06,3.29.06,15,0,33.25-4,51.35-11.2,17.85-7.13,32.16-16,39.94-24.89,14.85-16.86,27.75-47.68,19.4-83.59l-.08-.3-.09-.31-.18-.66c-1.47-4.84-3.94-11.42-4.14-12l-23.06-62.22L221.17,49.13a29.39,29.39,0,0,0-21.34-18.49,27.65,27.65,0,0,0-10-.39,26.72,26.72,0,0,0-13.07,6.2c-.62.51-1.23,1-1.8,1.58-1.44-3.63-6.41-13.78-9.36-16.13a27.38,27.38,0,0,0-21.18-10,27.27,27.27,0,0,0-12.45,3,25.4,25.4,0,0,0-7.72,5.85,20.88,20.88,0,0,0-1.48,1.92,27.47,27.47,0,0,0-19-9c-.83,0-1.66,0-2.49,0a27,27,0,0,0-5.64.84c-.7.18-1.4.39-2.09.63A27.46,27.46,0,0,0,81.86,22.9a26.91,26.91,0,0,0-6.27,13.15c-.06.33-.11.67-.15,1s0,.8-.12,1a21.49,21.49,0,0,0-3.61,2.76,28,28,0,0,0-5,.1A27.62,27.62,0,0,0,58.55,43.16Z" transform="translate(-12.25 -2.62)"/><path class="cls-1" d="M59,44.21a26.58,26.58,0,0,0-15.7,25.24c-1,3.68,2.82,17.52,4.24,21.34l36.11,97.46h0a47.83,47.83,0,0,0-20.15-7.1c-5.62-.63-14.4-1.6-23.06,3.66A28.51,28.51,0,0,0,28.3,199.3a27.81,27.81,0,0,0,6.09,28.22c.48.68,3.64,3.53,4.29,4.1l60.78,52.06.38.33c1,.9,8.2,7.09,11.12,9,6.77,4.8,24.45,17.09,48.16,18.4l1,.05c1.08,0,2.2.07,3.32.07,14.87,0,32.95-3.95,50.92-11.13,17.66-7.05,31.85-15.87,39.51-24.57,14.66-16.65,27.38-47.09,19.13-82.57l-.07-.29-.09-.31c0-.09-.15-.55-.18-.65-1.47-4.81-3.92-11.34-4.11-11.85l-23-62.21L220.09,49.53a28.21,28.21,0,0,0-21.23-17.89,26.57,26.57,0,0,0-9.86-.06,25.41,25.41,0,0,0-12.81,7c-.57.55-1.13,1.1-1.65,1.69-1.24-3.11-6.53-14.58-9-16.59A26.26,26.26,0,0,0,137.28,14a26.63,26.63,0,0,0-5.44,2.21,24.41,24.41,0,0,0-7.57,6.2,20.35,20.35,0,0,0-1.43,2.09A26.33,26.33,0,0,0,104,14.79c-.84,0-1.68-.06-2.53,0a26.25,26.25,0,0,0-5.7.84c-.71.19-1.42.41-2.11.66a26.32,26.32,0,0,0-11.58,8.19A25.55,25.55,0,0,0,76.5,38c0,.34-.06.69-.07,1-.08.17,0,.84-.05,1a18.87,18.87,0,0,0-4,2,25.36,25.36,0,0,0-5.08,0A26.38,26.38,0,0,0,59,44.21Z" transform="translate(-12.25 -2.62)"/><path class="cls-1" d="M59.49,45.27A25.54,25.54,0,0,0,44.5,71c-.79,3.07,3.69,18.21,4.87,21.39l36.35,98.09h0a50.37,50.37,0,0,0-19.11-7.71c-5.91-1.05-14.69-2.6-23.72,2.07-2.31,1.19-9.45,5.09-13,13.4a26.65,26.65,0,0,0,4.89,28,45.38,45.38,0,0,0,4.2,4.11L99.16,281.9l.38.33c.82.75,8.74,7.54,11.17,9.15,6.06,4.39,24,17.52,48.38,18.89l1,.05c1.09.05,2.21.07,3.34.07,14.73,0,32.66-3.92,50.49-11,17.47-7,31.53-15.71,39.07-24.27,14.47-16.43,27-46.48,18.88-81.53l-.08-.3-.08-.3c0-.11-.15-.53-.19-.64-1.45-4.79-3.88-11.26-4.06-11.73l-23.06-62.21L219,49.93a27.07,27.07,0,0,0-21.12-17.29,25.4,25.4,0,0,0-9.71.27,24.26,24.26,0,0,0-12.54,7.78c-.53.59-1,1.18-1.51,1.8-1-2.6-6.63-15.38-8.74-17a25.27,25.27,0,0,0-28.19-10.2,26.09,26.09,0,0,0-5.47,2.35,23.52,23.52,0,0,0-7.42,6.56,19.39,19.39,0,0,0-1.38,2.25A25.38,25.38,0,0,0,104.23,16c-.84-.06-1.7-.08-2.55-.06a25,25,0,0,0-5.77.86c-.72.2-1.44.42-2.14.68A25.23,25.23,0,0,0,82.28,26a24.47,24.47,0,0,0-4.87,14c0,.34,0,.69,0,1-.07.14.09.88,0,1A17.06,17.06,0,0,0,73,43.25a25.29,25.29,0,0,0-13.51,2Z" transform="translate(-12.25 -2.62)"/><path class="cls-1" d="M60,46.32A24.66,24.66,0,0,0,45.68,72.48c-.63,2.46,4.56,18.9,5.5,21.44l36.59,98.74h0a50.3,50.3,0,0,0-19.54-8.84c-5.6-1.18-13.9-2.93-22.9,1-2.43,1.06-9.88,4.38-13.8,12.31A25.61,25.61,0,0,0,35.21,225a38,38,0,0,0,4.11,4.11l59.53,51,.39.33c.66.61,9.28,8,11.22,9.27,5.35,4,23.56,17.95,48.59,19.4l1,0c1.1,0,2.23.08,3.37.08,14.58,0,32.36-3.9,50.06-11,17.29-6.9,31.22-15.55,38.63-24,14.28-16.22,26.67-45.89,18.62-80.51l-.07-.3-.09-.29c0-.12-.14-.5-.18-.63-1.45-4.76-3.86-11.18-4-11.6l-23.06-62.22L217.92,50.33a26,26,0,0,0-21-16.69,24.47,24.47,0,0,0-9.56.6,23.33,23.33,0,0,0-12.28,8.58c-.48.62-1,1.24-1.37,1.9-.82-2.08-6.74-16.18-8.42-17.52A24.45,24.45,0,0,0,131.63,19a22.83,22.83,0,0,0-7.28,6.92A18.33,18.33,0,0,0,123,28.28a24.55,24.55,0,0,0-18.54-11.15,24.81,24.81,0,0,0-2.59-.08,24,24,0,0,0-5.83.87c-.73.2-1.45.43-2.16.7a24.4,24.4,0,0,0-11.42,8.93A23.63,23.63,0,0,0,78.33,42c0,.35,0,.71.08,1.06-.06.11.15.93.1,1a16.8,16.8,0,0,0-4.86.34,23.69,23.69,0,0,0-5.2-.24A24.51,24.51,0,0,0,60,46.32Z" transform="translate(-12.25 -2.62)"/><path class="cls-1" d="M60.43,47.38A23.87,23.87,0,0,0,46.87,74c-.48,1.84,5.42,19.58,6.12,21.49l36.83,99.37v0a59.16,59.16,0,0,0-17.2-8.61c-6.74-2.08-15.29-4.73-24.85-1.42-2.68.93-10.28,3.59-14.63,11.22a24.66,24.66,0,0,0,2.48,27.68,32.6,32.6,0,0,0,4,4.13l58.91,50.45.39.35c.5.45,9.82,8.43,11.27,9.39,4.64,3.58,23.11,18.37,48.8,19.89l1,.05c1.11.05,2.25.07,3.4.07,14.44,0,32.07-3.86,49.64-10.88,17.09-6.82,30.9-15.37,38.18-23.64,14.09-16,26.32-45.29,18.36-79.49l-.07-.29-.08-.29-.18-.63c-1.45-4.72-3.84-11.08-4-11.47L242.2,119.17,216.84,50.73A24.9,24.9,0,0,0,196,34.64a23.74,23.74,0,0,0-9.4.93,22.65,22.65,0,0,0-12,9.37c-.44.66-.85,1.32-1.22,2-.62-1.55-6.85-17-8.12-18a23.68,23.68,0,0,0-33.68-8.66,22.34,22.34,0,0,0-7.13,7.28,20.45,20.45,0,0,0-1.29,2.56A23.84,23.84,0,0,0,104.73,18.3a25.39,25.39,0,0,0-2.62-.1,23.58,23.58,0,0,0-5.9.87c-.74.21-1.47.46-2.18.73a23.63,23.63,0,0,0-11.34,9.3A23,23,0,0,0,79.24,44c.05.36.1.71.16,1.07,0,.08.22,1,.18,1.06a16.86,16.86,0,0,0-5.29-.48,23.59,23.59,0,0,0-13.86,1.7Z" transform="translate(-12.25 -2.62)"/><path class="cls-1" d="M60.9,48.43A23.23,23.23,0,0,0,48.05,75.52c-.32,1.22,6.29,20.26,6.76,21.54l37.06,100v0A64.83,64.83,0,0,0,73.2,187.3c-7.08-2.33-14.32-4.7-23-2.43-2.92.77-10.7,2.84-15.46,10.12A23.84,23.84,0,0,0,36,222.5,28.84,28.84,0,0,0,40,226.63l58.29,49.92.4.35c.32.3,10.34,8.88,11.31,9.52,3.93,3.18,22.66,18.8,49,20.38l1,.05c1.11,0,2.26.08,3.42.08,14.3,0,31.77-3.84,49.21-10.8,16.9-6.75,30.59-15.21,37.75-23.34,13.9-15.78,25.95-44.69,18.1-78.46l-.07-.29-.08-.28-.19-.62c-1.44-4.69-3.81-11-3.94-11.35l-23.06-62.21L215.75,51.13A23.84,23.84,0,0,0,195,35.65a22.78,22.78,0,0,0-9.25,1.25A22.19,22.19,0,0,0,174,47.07c-.38.68-.75,1.38-1.07,2.1-.41-1-7-17.76-7.8-18.44A23,23,0,0,0,137,18.91a23.25,23.25,0,0,0-5.53,2.76A21.09,21.09,0,0,0,123.19,32a23,23,0,0,0-20.86-12.68,22.47,22.47,0,0,0-6,.88c-.74.21-1.48.47-2.19.75a23,23,0,0,0-11.27,9.67A22.46,22.46,0,0,0,80.16,46c.06.37.14.73.23,1.09,0,.06.28,1,.25,1.07a18.13,18.13,0,0,0-5.7-1.28,22.89,22.89,0,0,0-14,1.53Z" transform="translate(-12.25 -2.62)"/><path class="cls-1" d="M61.38,49.49A22.65,22.65,0,0,0,49.23,77c-.16.62,7.15,21,7.39,21.59l37.3,100.65v0c-.13-.07,1.36,4.23,1.26,4.26l0,0a68.21,68.21,0,0,0-26.4-16.32c-9-2.95-14.67-2.48-16.11-2.33a24,24,0,0,0-6.45,1.46,22.27,22.27,0,0,0-9.85,7.57,23.12,23.12,0,0,0,.08,27.33,25.75,25.75,0,0,0,3.84,4.13l57.66,49.39.41.35c.16.15,10.88,9.33,11.37,9.65,3.21,2.77,22.2,19.22,49.22,20.87l1,.05c1.12.05,2.28.08,3.45.08,14.16,0,31.48-3.8,48.78-10.71,16.72-6.68,30.28-15.05,37.31-23,13.71-15.57,25.6-44.09,17.84-77.44l-.06-.28-.09-.28c-.05-.18-.12-.42-.18-.61-1.44-4.66-3.79-10.92-3.91-11.23L240,120,214.67,51.53A22.9,22.9,0,0,0,194,36.65a22.33,22.33,0,0,0-9.1,1.58,21.83,21.83,0,0,0-11.5,11c-.34.72-.65,1.46-.92,2.21-.21-.52-7.07-18.56-7.49-18.9A22.44,22.44,0,0,0,131.31,23a22,22,0,0,0-6.85,8,21.12,21.12,0,0,0-1.18,2.89,22.82,22.82,0,0,0-18.06-13.26,19.88,19.88,0,0,0-2.68-.15,22.12,22.12,0,0,0-6,.88q-1.12.35-2.22.78a22.48,22.48,0,0,0-11.18,10,22.15,22.15,0,0,0-2,15.82c.09.37.19.73.31,1.1,0,0,.34,1.06.33,1.09a20,20,0,0,0-6.13-2.1,22.87,22.87,0,0,0-5.38-.58A22.51,22.51,0,0,0,61.38,49.49Z" transform="translate(-12.25 -2.62)"/><path class="cls-1" d="M266.21,194.85l-.07-.28-.08-.27c-1.41-4.68-3.94-11.42-4.05-11.71L239,120.38,213.8,52.52a22.42,22.42,0,0,0-20.57-14.87,21.68,21.68,0,0,0-21.13,16l-7-18.89a22.34,22.34,0,0,0-18.23-14.62,22,22,0,0,0-13.22,2.67A21.32,21.32,0,0,0,126,30a22.65,22.65,0,0,0-2.66,5.83,22.36,22.36,0,0,0-20.6-14.14,21.46,21.46,0,0,0-6.11.89A21.9,21.9,0,0,0,82.37,51.13l.4,1.1a21.75,21.75,0,0,0-20.92-1.68,22.17,22.17,0,0,0-11.44,28L97.8,206.42,67.12,188.27a23.5,23.5,0,0,0-6.87-2.8,22.3,22.3,0,0,0-19.64,38.66l57,48.85.41.36,11.42,9.78c2.54,2.39,22.23,20.07,50.45,21.41,1.13.06,2.3.08,3.48.08,14,0,31.18-3.77,48.35-10.63,16.53-6.6,30-14.88,36.87-22.71C262.14,255.91,273.86,227.77,266.21,194.85Z" transform="translate(-12.25 -2.62)"/></g><g id="Layer_1" data-name="Layer 1"><path class="cls-2" d="M148,293.74c-1.15,0-2.29,0-3.39-.08-28.2-1.35-47.66-19.28-49.53-21.06L82.69,262,23.42,211.22a18.45,18.45,0,0,1,12-32.53,19.34,19.34,0,0,1,9.86,2.7l33.45,19.79a4.2,4.2,0,0,0,2.12.61,4.33,4.33,0,0,0,3.45-1.87,3.94,3.94,0,0,0,.43-3.75L35,61.84c-3.31-8.94.66-19.05,9-23a18.07,18.07,0,0,1,24.7,10l32.4,87.42a2.46,2.46,0,0,0,3.15,1.45,2.45,2.45,0,0,0,1.45-3.15L68.17,33.36A18.06,18.06,0,0,1,79.59,9.88a16.86,16.86,0,0,1,5.19-.81A18.88,18.88,0,0,1,102.19,21.2l38.3,103.34a2.45,2.45,0,1,0,4.6-1.71L111.3,31.65A18.07,18.07,0,0,1,128.24,7.3a18.16,18.16,0,0,1,16.94,11.79l36,97.07a2.46,2.46,0,0,0,2.3,1.6,2.25,2.25,0,0,0,.85-.16,2.45,2.45,0,0,0,1.45-3.15L162,50.43c-3.31-9,.66-19,9-23a17.93,17.93,0,0,1,7.76-1.76,18.13,18.13,0,0,1,16.94,11.8l50.34,135.82h0s.47,1.24,1.11,3a86.78,86.78,0,0,1,5.26,35.39c-1.19,18.21-8.45,36.51-19.43,49-13.1,14.88-54.92,33.07-85,33.07Z" transform="translate(-12.25 -2.62)"/><path d="M128.24,12a13.39,13.39,0,0,1,12.55,8.74l36,97.06a7.13,7.13,0,1,0,13.38-5l-23.72-64a13.68,13.68,0,0,1,6.63-17.15,13.39,13.39,0,0,1,18.31,7.43l26.36,71.13,24,64.7s.46,1.22,1.09,3a82.82,82.82,0,0,1,5,33.5c-1.33,20.25-9.86,36.63-18.27,46.18-12.59,14.29-52.93,31.48-81.53,31.48-1.07,0-2.13,0-3.17-.07-27.6-1.32-46.6-19.85-46.6-19.85L86.14,258.78l-.4-.35L26.47,207.67A13.87,13.87,0,0,1,25,188a13.64,13.64,0,0,1,10.39-4.65,14.65,14.65,0,0,1,7.47,2l33.46,19.79a8.8,8.8,0,0,0,12.77-10.67L39.35,60.22c-2.44-6.58.3-14.16,6.63-17.15A13.37,13.37,0,0,1,64.29,50.5l32.4,87.42a7.13,7.13,0,0,0,6.69,4.66,7.23,7.23,0,0,0,2.48-.45h0a7.13,7.13,0,0,0,4.21-9.17L72.56,31.73A13.38,13.38,0,0,1,81,14.34a12.14,12.14,0,0,1,3.75-.59,14.2,14.2,0,0,1,13,9.08l38.3,103.34a7.15,7.15,0,0,0,9.17,4.21h0a7.14,7.14,0,0,0,4.21-9.18L115.69,30a13.38,13.38,0,0,1,7.9-17.2h0a13.29,13.29,0,0,1,4.65-.84m0-9.36h0a22.74,22.74,0,0,0-21.85,16.44A23.68,23.68,0,0,0,84.79,4.39a21.51,21.51,0,0,0-6.63,1A22.57,22.57,0,0,0,64.65,17.14,22.88,22.88,0,0,0,63.77,35l.43,1.15A22.68,22.68,0,0,0,42,34.6c-10.55,5-15.57,17.67-11.42,28.87l49.26,132.9-32.15-19A24,24,0,0,0,35.43,174a23.17,23.17,0,0,0-15.06,40.78l59.27,50.77.43.37,11.87,10.16c2.64,2.48,23.1,20.86,52.43,22.25,1.18.06,2.39.09,3.62.09,14.56,0,32.4-3.92,50.24-11.05,17.18-6.86,31.15-15.46,38.32-23.61,5.59-6.34,18.77-24.09,20.58-51.76a91.56,91.56,0,0,0-5.53-37.3c-.66-1.82-1.13-3.09-1.13-3.09L226.5,107,200.14,35.83a22.75,22.75,0,0,0-31.09-12.65,22.61,22.61,0,0,0-12,14.45l-7.47-20.17A22.84,22.84,0,0,0,128.24,2.62Z" transform="translate(-12.25 -2.62)"/></g></svg>