<svg id="guns_sights" data-name="guns sights" xmlns="http://www.w3.org/2000/svg" width="128" height="128" viewBox="0 0 128 128">
  <metadata><?xpacket begin="﻿" id="W5M0MpCehiHzreSzNTczkc9d"?>
<x:xmpmeta xmlns:x="adobe:ns:meta/" x:xmptk="Adobe XMP Core 5.6-c138 79.159824, 2016/09/14-01:09:01        ">
   <rdf:RDF xmlns:rdf="http://www.w3.org/1999/02/22-rdf-syntax-ns#">
      <rdf:Description rdf:about=""/>
   </rdf:RDF>
</x:xmpmeta>
                                                                                                    
                                                                                                    
                                                                                                    
                                                                                                    
                                                                                                    
                                                                                                    
                                                                                                    
                                                                                                    
                                                                                                    
                                                                                                    
                                                                                                    
                                                                                                    
                                                                                                    
                                                                                                    
                                                                                                    
                                                                                                    
                                                                                                    
                                                                                                    
                                                                                                    
                                                                                                    
                           
<?xpacket end="w"?></metadata>
<defs>
    <style>
      .cls-1 {
        fill: #e0e0e0;
        fill-rule: evenodd;
      }
    </style>
  </defs>
  <path class="cls-1" d="M97.539,66.407l1.972,4.251s7.313,1.828,10.034,3.269a1.3,1.3,0,0,1,.443.511c-2.11,7.825-8.63,10.424-17.977,16.586-2.586-8.012-6.576-19.177-9.135-20.532a24.149,24.149,0,0,0-2.52-1.1l1.489-2.735,1.092-.578a2.126,2.126,0,0,0,.2-1.026,10.773,10.773,0,0,1-2.6-6.115,1.171,1.171,0,0,1-1.126-.405c-0.255-.3-0.146-0.668-0.173-1.568-3.495-.849-3.5-2.082-3.5-2.082,0.241-.4,1.361-6.532,1.361-6.532s1.457-12.512,11.931-12.512h1.569c9.185,0,11.751,12.229,11.751,12.229s1.281,6.234,1.35,6.794c-0.278,1.4-3.377,2.038-3.377,2.038-0.47,1.216-.124,1.792-0.666,2.01a2.328,2.328,0,0,1-.716.146c-0.373,3.039-1.4,4.837-2.76,6a1.585,1.585,0,0,0,.1.968ZM67.386,49.7c-0.619,1.6-.164,2.357-0.877,2.644a3.06,3.06,0,0,1-.941.192c-0.491,4-1.845,6.362-3.63,7.886a2.086,2.086,0,0,0,.131,1.274l1.646,0.513,2.593,5.59s9.618,2.4,13.2,4.3,8.3,23.691,8.3,23.691v2.446a43.924,43.924,0,0,1-8.594,3.632L39.8,67.745l0.535-.175,2.743-5.039,1.436-.76a2.8,2.8,0,0,0,.263-1.35,14.168,14.168,0,0,1-3.414-8.042,1.54,1.54,0,0,1-1.48-.533c-0.336-.4-0.192-0.879-0.228-2.062-4.6-1.116-4.6-2.739-4.6-2.739,0.317-.531,1.79-8.591,1.79-8.591S38.758,22,52.533,22H54.6c12.079,0,15.454,16.083,15.454,16.083s1.685,8.2,1.777,8.935C71.462,48.859,67.386,49.7,67.386,49.7ZM34.64,69.435l37.41,34.18a106.652,106.652,0,0,1-18.643,1.4c-12.919,0-24.809-1.355-34.4-6.779V95.788S22.7,77.424,26.5,72.1Z"/>
</svg>
