<svg xmlns="http://www.w3.org/2000/svg" width="128" height="128" viewBox="0 0 128 128">
  <defs>
    <style>
      .cls-1 {
        fill: #e0e0e0;
        fill-rule: evenodd;
      }
    </style>
  </defs>
  <path id="gun" class="cls-1" d="M120.3,13.2l-2.444,1.2,0.212,0.427a3.721,3.721,0,0,1-1.7,5L91.037,32.226l-0.761,1.889L83.827,37.45a6.928,6.928,0,0,0-3.64,7.393l1.377,7.618a8.332,8.332,0,0,1-4.478,8.94L57.97,70.962a6.1,6.1,0,0,0-3.264,6.607L60.3,106.62a8.022,8.022,0,0,1-4.351,8.723c-0.161.078-.326,0.153-0.494,0.221l-22.01,9.015a5.525,5.525,0,0,1-4.373-.083l-1.291-.585a5.511,5.511,0,0,1-3.195-4.315c-1.125-8.781-4.376-33.737-5.366-36.741-1.205-3.655-2.853-3.3-2.853-3.3L14,79.657a5.187,5.187,0,0,1-4.993-3.063c-6.868-15.712.1-24.722,0.1-24.722l6.4-3.135,92.7-45.385a3.759,3.759,0,0,1,4.982,1.655l2.457-1.2a3.012,3.012,0,0,1,4.019,1.367l2,4.026A2.976,2.976,0,0,1,120.3,13.2ZM62.67,29.287a1.373,1.373,0,0,0-1.827-.622L44.467,36.683A1.357,1.357,0,0,0,43.85,38.5a1.374,1.374,0,0,0,1.827.622L62.053,31.1A1.357,1.357,0,0,0,62.67,29.287ZM76.2,45.856a4.816,4.816,0,0,0-5.724-2.048l-7.21,3.53s-3.375,5.139-2.052,9.646,6.262,4.666,6.262,4.666l7.394-3.772C79.155,54.568,78.506,49.277,76.2,45.856Z"/>
</svg>
