<svg xmlns="http://www.w3.org/2000/svg" width="128" height="128" viewBox="0 0 128 128">
  <defs>
    <style>
      .cls-1 {
        fill: #e0e0e0;
        fill-rule: evenodd;
      }
    </style>
  </defs>
  <path id="shovel_icon" class="cls-1" d="M122.823,13.332L74.29,61.866a3.035,3.035,0,0,1-.7,3.176l-7.126,7.126L78.848,84.556a3.893,3.893,0,0,1,0,5.506L38.29,49.5h0a3.893,3.893,0,0,1,5.506,0L55.832,61.541l7.126-7.126a3.035,3.035,0,0,1,3.176-.7L114.668,5.177a5.124,5.124,0,0,1,7.246,0l0.909,0.909A5.124,5.124,0,0,1,122.823,13.332ZM43.594,72.965L35.071,84.906a8.449,8.449,0,0,0-1.527,4.569l-0.139,3.2A1.915,1.915,0,0,0,35.327,94.6l3.2-.139a8.448,8.448,0,0,0,4.569-1.527l11.941-8.523a8.051,8.051,0,0,1,10.37.86l8.65,8.65-28.8,28.8a5.739,5.739,0,0,1-5.139,1.5l-25.067-4.291a12.434,12.434,0,0,1-4.553-2.268l-0.159-.158a12.432,12.432,0,0,1-2.267-4.554L3.78,87.882a5.738,5.738,0,0,1,1.5-5.139l28.8-28.8,8.651,8.651A8.051,8.051,0,0,1,43.594,72.965Z"/>
</svg>
