<svg xmlns="http://www.w3.org/2000/svg" width="128" height="128" viewBox="0 0 128 128">
  <defs>
    <style>
      .cls-1 {
        fill: #e0e0e0;
        fill-rule: evenodd;
      }
    </style>
  </defs>
  <path id="grenade" class="cls-1" d="M80.639,124.066c-22.293,0-40.366-18.292-40.366-40.856A42.21,42.21,0,0,1,54.654,51.374h51.969A42.208,42.208,0,0,1,121,83.21C121,105.774,102.932,124.066,80.639,124.066Zm20.5-105.744H96.847A87.274,87.274,0,0,1,101.9,44.955H59.377a101.092,101.092,0,0,1,1.682-14.6,22.535,22.535,0,0,0-6.66,2.368c0.078,0.8.121,1.6,0.121,2.418A23.934,23.934,0,0,1,34.666,58.827c-2.958,8.968-5.08,19.549-4.926,35.009a4.912,4.912,0,0,1-9.816.381,154.564,154.564,0,0,1,2.5-36.6,24.062,24.062,0,0,1,8.347-46.508,23.387,23.387,0,0,1,11.871,3.241A55.176,55.176,0,0,1,56.415,3.9h44.719A7.21,7.21,0,0,1,101.134,18.322ZM47.116,37.965a43.589,43.589,0,0,0-8.852,12.121A16.734,16.734,0,0,0,47.116,37.965ZM14.154,35.144A16.811,16.811,0,0,0,24,50.476c2.673-10.653,7-21.414,13.85-30.5a16.3,16.3,0,0,0-7.072-1.653A16.723,16.723,0,0,0,14.154,35.144Z"/>
</svg>
