<svg id="guns_sights" data-name="guns sights" xmlns="http://www.w3.org/2000/svg" width="128" height="128" viewBox="0 0 128 128">
  <metadata><?xpacket begin="﻿" id="W5M0MpCehiHzreSzNTczkc9d"?>
<x:xmpmeta xmlns:x="adobe:ns:meta/" x:xmptk="Adobe XMP Core 5.6-c138 79.159824, 2016/09/14-01:09:01        ">
   <rdf:RDF xmlns:rdf="http://www.w3.org/1999/02/22-rdf-syntax-ns#">
      <rdf:Description rdf:about=""/>
   </rdf:RDF>
</x:xmpmeta>
                                                                                                    
                                                                                                    
                                                                                                    
                                                                                                    
                                                                                                    
                                                                                                    
                                                                                                    
                                                                                                    
                                                                                                    
                                                                                                    
                                                                                                    
                                                                                                    
                                                                                                    
                                                                                                    
                                                                                                    
                                                                                                    
                                                                                                    
                                                                                                    
                                                                                                    
                                                                                                    
                           
<?xpacket end="w"?></metadata>
<defs>
    <style>
      .cls-1 {
        fill: #fff;
        fill-rule: evenodd;
      }
    </style>
  </defs>
  <path class="cls-1" d="M43.07,89.793h15.4V86.055h-8.41l2.294-6.425,6.183-6.658h23.3l3.738,4.672h4.673l0.934,2.579h24.783V83.7H92.115V85.12H86.508v5.658H99.342l6.046,3.388c6.9,0,8.871,6.945,5.914,9.919l-19.909,11.9H37.044s-8.316-8.192-10.7-10.741ZM87.215,40.626l-7.8-10.145-1.834-1.842-11.4-11.464c0.628-1.339,4.72-.813,6.433.869,2.546,2.575,1.285,2.908,5.614,8.969l0.284-.343a0.605,0.605,0,0,1,.922-0.033l0.694,0.649,0.372-.362a0.35,0.35,0,0,1,.512-0.061l0.093,0.094a0.4,0.4,0,0,1-.037.545l-0.4.376L81.4,28.536a0.768,0.768,0,0,1-.084.958l-0.326.273c6.014,4.322,5.33,4.465,7.965,7.077a4.248,4.248,0,0,1,.8,1.212ZM77.855,30.22l-0.143.145,0.167-.121c1.555,1.682-.249,5.645-1.018,6.946L67.337,47.8,85.019,65.715H59.53l-4.7-3.436C48.161,67.437,40.182,74.715,34.1,78.591a87.094,87.094,0,0,1,4.544,8.288l-6.077,6.555L26.786,87.84H20.725V81.776L12.6,73.164a2.965,2.965,0,0,1,.8-4.115c2.965-2.589,9.211.85,16.538,5.328,3.835-6.136,11.05-14.189,16.156-20.917L24.7,23.659C20.745,17.5,27.177,7.553,33.973,14.23l26.461,26.6,10.538-9.58C72.267,30.471,76.194,28.651,77.855,30.22Z"/>
</svg>
