<svg xmlns="http://www.w3.org/2000/svg" width="100" height="100" viewBox="0 0 100 100">
  <defs>
    <style>
      .cls-1 {
        fill: #fff;
      }
    </style>
  </defs>
  <g id="Layer_3" data-name="Layer 3">
    <path class="cls-1" d="M97.90083,56.01985l-9.63171-8.17858H60.163V45.97243H65.4356v-4.442H88.67138V36.63214H65.4356V33.726H60.163V30.98544H49.65971V25.6307H35.41964v5.35474h-5.397l-5.43847,5.48015v8.46955h-4.442v2.90613H7.43848L2,53.27929V63.53343L12.83535,74.3693H81.54354A54.40358,54.40358,0,0,0,90.303,68.64038a34.81523,34.81523,0,0,0,5.68771-5.771,10.26931,10.26931,0,0,0,1.64029-3.196A7.96222,7.96222,0,0,0,97.90083,56.01985ZM19.24556,70.404a6.44643,6.44643,0,0,1-6.42872-7.2923H25.67427a6.44643,6.44643,0,0,1-6.42871,7.2923Zm19.23678,0a6.44635,6.44635,0,0,1-6.42858-7.2923H44.91118a6.44635,6.44635,0,0,1-6.42884,7.2923Zm19.23692,0a6.44635,6.44635,0,0,1-6.42858-7.2923H64.1481a6.44635,6.44635,0,0,1-6.42884,7.2923Zm19.23691,0a6.44643,6.44643,0,0,1-6.42858-7.2923H83.385a6.44738,6.44738,0,0,1-6.42885,7.2923Z"/>
  </g>
</svg>
