<svg xmlns="http://www.w3.org/2000/svg" width="100" height="100" viewBox="0 0 100 100">
  <defs>
    <style>
      .cls-1 {
        fill: #fff;
      }
    </style>
  </defs>
  <g id="Layer_3" data-name="Layer 3">
    <g>
      <path class="cls-1" d="M45.62993,25.2969v-12.396a24.66947,24.66947,0,0,1,8.35049,2.3156,25.03242,25.03242,0,0,1,6.89,4.86684,24.71586,24.71586,0,0,1,1.66648,1.86483,37.10333,37.10333,0,0,1,4.51083-.288c1.07776,0,2.15827.05755,3.237.15239a31.45391,31.45391,0,0,0-4.85712-6.28642,31.83769,31.83769,0,0,0-8.932-6.27061A30.44359,30.44359,0,0,0,45.62993,6.41178V2H40.48951V6.41178a30.41867,30.41867,0,0,0-7.40089,1.47608,31.32684,31.32684,0,0,0-6.63538,3.11727,31.86671,31.86671,0,0,0-5.68748,4.521,30.94426,30.94426,0,0,0-4.50256,5.70556,32.06712,32.06712,0,0,0-3.09871,6.67234,30.64,30.64,0,0,0-1.477,7.419H7.27615v5.14122h4.41137a30.58115,30.58115,0,0,0,1.477,7.38282,31.61386,31.61386,0,0,0,3.09871,6.65346A31.20114,31.20114,0,0,0,20.76576,60.188a31.831,31.831,0,0,0,5.68748,4.521,31.32684,31.32684,0,0,0,6.63538,3.11727c.88443.29627,1.78985.53912,2.70549.75523A12.53662,12.53662,0,0,1,36.872,65.32308c.3586-.71737.74955-1.42963,1.16181-2.1166.13156-.21935.25153-.44348.37206-.66695a24.0438,24.0438,0,0,1-3.56763-.94774,24.80874,24.80874,0,0,1-5.10426-2.479,26.44761,26.44761,0,0,1-4.39249-3.5181,24.341,24.341,0,0,1-3.518-4.39379,26.92818,26.92818,0,0,1-2.4795-5.08618,23.00774,23.00774,0,0,1-1.276-5.65044H30.53738V35.323H18.06789a24.751,24.751,0,0,1,2.38823-8.34888,25.8392,25.8392,0,0,1,4.88532-6.89079,24.8137,24.8137,0,0,1,6.85432-4.86684,24.44488,24.44488,0,0,1,8.29375-2.3156v12.396Z"/>
      <path class="cls-1" d="M90.91989,65.77912l-1.38432-2.34884V61.12205a13.85416,13.85416,0,0,0,1.48921-3.35558,35.46034,35.46034,0,0,0,.98584-4.02756q.3779-2.05483.54544-3.92267.16707-1.86637.16779-3.08436a14.10094,14.10094,0,0,0-1.00666-5.28567,16.92284,16.92284,0,0,0-2.79037-4.63631,22.037,22.037,0,0,0-4.23693-3.83862,28.265,28.265,0,0,0-5.30748-2.916,32.61435,32.61435,0,0,0-5.99931-1.846,31.18176,31.18176,0,0,0-12.67027,0,32.05618,32.05618,0,0,0-5.97856,1.846,27.86471,27.86471,0,0,0-5.26541,2.916,22.308,22.308,0,0,0-4.21618,3.83862,16.897,16.897,0,0,0-2.78979,4.63631,14.09,14.09,0,0,0-1.00716,5.28567q0,1.21758.147,3.08436a38.27493,38.27493,0,0,0,.52461,3.92267,35.155,35.155,0,0,0,.98592,4.02756,12.81924,12.81924,0,0,0,1.5312,3.35558v1.67873a8.48542,8.48542,0,0,1-.62951,1.74114q-.41948.85962-.923,1.69947-.50337.83884-.94377,1.71934a6.62383,6.62383,0,0,0-.60826,1.88858q0,1.17442.10489,2.34892a14.11068,14.11068,0,0,0,.3984,2.30725,5.80628,5.80628,0,0,0,1.42639,2.24492q.965.94425,1.846,1.74114l-.67116,3.44061a3.359,3.359,0,0,0,.96508,1.59362A14.88091,14.88091,0,0,0,47.62332,85.351a13.88173,13.88173,0,0,0,2.18161,1.38473,2.7404,2.7404,0,0,0,1.12939.35414.64809.64809,0,0,0,.339-.082q.83811-.4602,1.63617-.98583a16.79936,16.79936,0,0,0,1.59418-1.1957,3.53656,3.53656,0,0,0,.52453-.293q.48184-.294,1.0275-.62951.54483-.33558.98632-.60875a3.04553,3.04553,0,0,1,.48205-.27219q.04159.08463-.31426.46122-.35711.37718-.79729.83937-.44028.46179-.83888.86019c-.26628.2653-.39889.44047-.39889.52364v4.48984l.96509,1.38375v4.74128L57.56613,98h1.04874l.25193-.50281.16779-2.68539.29392,2.68539.20937.37709L60.16739,98h1.0908l.54545-.12572.25184-.37709.1678-2.68539.29351,2.68539L62.72665,98H65.0339l.294-.50281.12572-2.68539.20978,2.68539L65.87326,98h2.34941l.29343-.50281L68.726,94.8118l.12621,2.68539L69.1456,98h2.18161l.33559-.50281.29391-2.68539.12573,2.68539L72.2923,98h2.26526l.29392-.587.16779-2.60125L75.31278,98h1.09081l1.63617-1.67775V91.581l.88143-1.38375V85.70738q0-.12475-.65033-.65033-.65111-.52418-1.4268-1.13239-.77658-.60721-1.40507-1.13231-.62958-.52418-.58751-.60875a.01758.01758,0,0,1,.01289-.00381,3.474,3.474,0,0,1,.74233.38089q.71275.42021,1.59418.9235.88116.50339,1.63617.92253a4.79062,4.79062,0,0,0,.83888.41972q.79652.67251,1.55251,1.1957a17.55035,17.55035,0,0,0,1.59418.98583.64979.64979,0,0,0,.34061.082,2.84057,2.84057,0,0,0,1.149-.35414A13.44313,13.44313,0,0,0,86.5146,85.351a14.90019,14.90019,0,0,0,2.01382-1.82527,3.80409,3.80409,0,0,0,1.00715-1.59362l-.79729-3.44061q.83884-.839,1.846-1.76189a5.43491,5.43491,0,0,0,1.46838-2.22417,12.97708,12.97708,0,0,0,.4613-2.30725,21.96967,21.96967,0,0,0,.12621-2.34892,8.28523,8.28523,0,0,0-.6924-2.07664Q91.46449,66.78684,90.91989,65.77912ZM63.75455,71.48548a.88926.88926,0,0,1-.3984.41972,62.02894,62.02894,0,0,1-6.04146,3.209A38.89366,38.89366,0,0,1,51.651,77.19087q-.21775.02-.425.01994a3.50657,3.50657,0,0,1-1.2325-.209,3.98338,3.98338,0,0,1-1.27934-.75522A7.98244,7.98244,0,0,1,47.707,75.17754,11.72022,11.72022,0,0,1,46.8681,73.96a6.47989,6.47989,0,0,1-.69241-2.74773,7.7862,7.7862,0,0,1,.31476-2.70622c-.1678-.02667-.18263-.14647-.04207-.35633a4.43553,4.43553,0,0,1,.6924-.75523,9.73153,9.73153,0,0,1,1.21653-.92253,8.85483,8.85483,0,0,1,1.57334-.81853l13.4255,4.48887a.75512.75512,0,0,1,.3984.3355,1.0768,1.0768,0,0,1,.10489.483A1.36274,1.36274,0,0,1,63.75455,71.48548Zm6.16711,14.13873a.25238.25238,0,0,1-.17825.096q-.22056,0-.43-.59984a1.29216,1.29216,0,0,0-.86011-.71364,4.12089,4.12089,0,0,0-1.26914-.18992q-.06771,0-.13642.00187a4.38975,4.38975,0,0,0-1.42639.27219,1.602,1.602,0,0,0-.88094.6295q-.15.60017-.34264.59984a.22733.22733,0,0,1-.16065-.096,2.0583,2.0583,0,0,1-.294-1.30066,17.51707,17.51707,0,0,1,.39889-2.51809,16.83413,16.83413,0,0,1,.67116-2.15981,18.49734,18.49734,0,0,1,.923-2.0143q.524-.98439,1.11155-2.07665.62946,1.09127,1.15412,2.07665a18.79391,18.79391,0,0,1,.923,2.0143,17.06653,17.06653,0,0,1,.67108,2.15981,22.36641,22.36641,0,0,1,.44048,2.51809A1.9538,1.9538,0,0,1,69.92166,85.62421ZM87.06,73.96a14.34862,14.34862,0,0,1-.81812,1.2175,7.09531,7.09531,0,0,1-.98584,1.06908,3.998,3.998,0,0,1-1.27983.75522,3.51052,3.51052,0,0,1-1.23258.209q-.20694,0-.42442-.01994a33.55566,33.55566,0,0,1-5.60091-2.03506,66.28751,66.28751,0,0,1-5.97856-3.209.79636.79636,0,0,1-.41923-.37814,1.15,1.15,0,0,1-.12621-.52364,1.03407,1.03407,0,0,1,.12621-.50378.65754.65754,0,0,1,.41923-.31475l13.38343-4.48887a15.45074,15.45074,0,0,1,1.42639.86012,15.23422,15.23422,0,0,1,1.23776.92252,5.80287,5.80287,0,0,1,.776.75523c.16779.20986.15344.31483-.04159.31483a10.5804,10.5804,0,0,1,.27277,2.68539A5.22211,5.22211,0,0,1,87.06,73.96Z"/>
    </g>
  </g>
</svg>
