<svg xmlns="http://www.w3.org/2000/svg" width="100" height="100" viewBox="0 0 100 100">
  <defs>
    <style>
      .cls-1 {
        fill: #fff;
      }
    </style>
  </defs>
  <g id="Layer_3" data-name="Layer 3">
    <path class="cls-1" d="M46.48422,98V92.18908A42.35922,42.35922,0,0,1,36.572,90.16263a41.924,41.924,0,0,1-8.88751-4.175,42.62455,42.62455,0,0,1-7.61738-6.05516,41.78275,41.78275,0,0,1-6.03042-7.61733,42.34148,42.34148,0,0,1-4.15027-8.91107A40.95405,40.95405,0,0,1,7.9083,53.516H2V46.63027H7.9083a41.03254,41.03254,0,0,1,1.97808-9.9364,42.95208,42.95208,0,0,1,4.15027-8.93642,41.43928,41.43928,0,0,1,6.03042-7.64153,42.67632,42.67632,0,0,1,7.61738-6.05515,41.924,41.924,0,0,1,8.88751-4.175,40.72883,40.72883,0,0,1,9.91226-1.97692V2h6.88525V7.90884A40.77336,40.77336,0,0,1,67.921,11.71751,42.38665,42.38665,0,0,1,88.283,32.07877a40.7727,40.7727,0,0,1,3.80869,14.5515H98V53.516H92.0917a40.76683,40.76683,0,0,1-1.9775,9.91221,41.86243,41.86243,0,0,1-4.175,8.88688,42.41077,42.41077,0,0,1-32.56969,19.874V98Zm0-14.50311V71.72874h6.88525V83.49689A32.34807,32.34807,0,0,0,64.55129,80.3472a34.59563,34.59563,0,0,0,9.2291-6.54247,33.24611,33.24611,0,0,0,6.51889-9.18066A32.72527,32.72527,0,0,0,83.4,53.516H71.68077V46.63027H83.4a33.03511,33.03511,0,0,0-3.10075-11.18176,33.30562,33.30562,0,0,0-15.748-15.74732,33.0328,33.0328,0,0,0-11.18182-3.10131V28.31964H46.48422V16.59988a32.73344,32.73344,0,0,0-11.10867,3.10131,33.24193,33.24193,0,0,0-9.18013,6.51827,34.60636,34.60636,0,0,0-6.54309,9.229,33.14928,33.14928,0,0,0-3.19867,11.18176H28.27084V53.516H16.45366a30.81312,30.81312,0,0,0,1.70907,7.5678,36.06628,36.06628,0,0,0,3.32079,6.812,32.60139,32.60139,0,0,0,4.7119,5.88466,35.38182,35.38182,0,0,0,5.88411,4.71186,33.13875,33.13875,0,0,0,6.83628,3.3202A32.30561,32.30561,0,0,0,46.48422,83.49689ZM43.115,49.95046a6.63677,6.63677,0,0,1,.53744-2.66122,7.12514,7.12514,0,0,1,1.44006-2.17276,6.56592,6.56592,0,0,1,2.17335-1.46425,6.93888,6.93888,0,0,1,2.7344-.53686,6.93264,6.93264,0,0,1,4.883,2.00111,6.93973,6.93973,0,0,1,1.46484,2.17276,6.65615,6.65615,0,0,1,.53686,2.66122,6.94985,6.94985,0,0,1-.53686,2.735,6.85972,6.85972,0,0,1-6.34781,4.19921,6.93888,6.93888,0,0,1-2.7344-.53686,6.53413,6.53413,0,0,1-2.17335-1.4654,7.02128,7.02128,0,0,1-1.44006-2.197A6.92967,6.92967,0,0,1,43.115,49.95046Z"/>
  </g>
</svg>
