<svg xmlns="http://www.w3.org/2000/svg" width="100" height="100" viewBox="0 0 100 100">
  <defs>
    <style>
      .cls-1 {
        fill: #fff;
      }
    </style>
  </defs>
  <g id="Layer_3" data-name="Layer 3">
    <path class="cls-1" d="M82.05123,18.77231l-3.29474,3.843,5.142-1.49691,8.53628,11.18149q-.54942.89921-1.2484,1.84787A19.01512,19.01512,0,0,1,89.81373,35.819a7.80245,7.80245,0,0,1-1.29788,1.1483q-.62361.424-1.02345.22495L73.81468,30.35306,59.63761,49.12274,84.24772,82.56828q.2005.24909-.14958,1.04819A11.4929,11.4929,0,0,1,83.05,85.43961q-.6987,1.02111-1.64766,2.17058-.94779,1.1483-1.89676,2.19649a18.09725,18.09725,0,0,1-2.79537,2.19649q-1.29757.79851-1.84729.20022l-29.652-29.60256L37.923,68.44125a4.72527,4.72527,0,0,1-1.44745.99873,2.05182,2.05182,0,0,1-1.19835.12484,2.41839,2.41839,0,0,1-1.02346-.5241q-.47346-.401-1.02346-.89861l-.54883.54882.14958.14958a43.01928,43.01928,0,0,0,4.31819,3.76877,38.72482,38.72482,0,0,1,3.86888,3.32006,2.38638,2.38638,0,0,1,.72373,1.09883,2.61037,2.61037,0,0,1,.12484,1.02228.75766.75766,0,0,1-.27442.57474c-.15016.10011-.34095.04947-.57415-.14957L32.132,69.54009l-.29915.29914a.52011.52011,0,0,1-.34979.20022.55446.55446,0,0,1-.49877-.20022l-.10011-.1001a1.82289,1.82289,0,0,1-.32447.27441c-.08244.05064-.1908-.00825-.32447-.17431q-.24909-.25086-.19963-.37452a1.11327,1.11327,0,0,1,.24969-.32388l-.14958-.14957a.56558.56558,0,0,1-.15016-.47463,1.11215,1.11215,0,0,1,.15016-.37452l.29915-.29915a41.963,41.963,0,0,0-4.29287-3.744,38.70564,38.70564,0,0,1-3.89362-3.34479,2.42708,2.42708,0,0,1-.72372-1.07293,2.49173,2.49173,0,0,1-.12484-.99872.71841.71841,0,0,1,.29914-.57356c.16724-.10011.34979-.05065.54942.14957l9.035,9.03446.54942-.54882q-.49818-.54942-.89862-1.02346a2.19118,2.19118,0,0,1-.49936-1.02346,2.25324,2.25324,0,0,1,.12484-1.173,4.4154,4.4154,0,0,1,.9734-1.42272l5.89048-7.28787-29.602-29.652q-.59888-.54942.20022-1.8467a15.39069,15.39069,0,0,1,2.246-2.74532q.99991-.94867,2.17176-1.92208,1.173-.97339,2.17176-1.67239a13.33671,13.33671,0,0,1,1.77132-1.07293q.77466-.37452,1.02346-.17548L50.9017,40.38742,69.67138,26.16029,62.83223,12.53263a1.095,1.095,0,0,1,.20022-1.04819,6.56871,6.56871,0,0,1,1.123-1.32378,17.48768,17.48768,0,0,1,1.69712-1.37207q.97341-.69958,1.872-1.24841l11.18207,8.58575L77.3591,21.21848l3.84356-3.29532q.34979-.29856.79851.14957a1.73184,1.73184,0,0,1,.1749.34979A.28352.28352,0,0,1,82.05123,18.77231Z"/>
  </g>
</svg>
