<svg xmlns="http://www.w3.org/2000/svg" width="100" height="100" viewBox="0 0 100 100">
  <defs>
    <style>
      .cls-1 {
        fill: #fff;
        fill-rule: evenodd;
      }
    </style>
  </defs>
  <path class="cls-1" d="M84.34,73.588a15.449,15.449,0,0,1-6.789,13.9l-5.692,3.828a20.94,20.94,0,0,1-26.974-3.083A152.531,152.531,0,0,1,23.743,59.3h0L13.884,45.165a4.227,4.227,0,0,1,1.049-5.886l0.4-.277a4.227,4.227,0,0,1,5.886,1.048L31.155,54.3l3.092-2.085L15.632,25.531a4.362,4.362,0,0,1,1.082-6.074h0a4.362,4.362,0,0,1,6.074,1.082l18.694,26.8,2.7-1.822L22.122,13.889a4.389,4.389,0,0,1,7.2-5.022l22.142,31.74,2.6-1.756L35.877,12.775a4.358,4.358,0,1,1,7.148-4.987L61.3,33.978l0.032-.022,5.4,7.18a1.983,1.983,0,0,0,3.566-1.127l0.273-8.325-0.086-6.859c0.4-3.067,2.666-4.853,5-4.4a5.474,5.474,0,0,1,4.494,4.49L85.13,58.591Z"/>
</svg>
