<svg width="64" height="64" enable-background="new 0 0 80 80" version="1.1" viewBox="0 0 80 80" xmlns="http://www.w3.org/2000/svg">
<path d="m40.508 1.6949c-20.457 0-37.034 10.72-37.034 23.941 0 22.859 37.034 52.669 37.034 52.669s37.034-29.811 37.034-52.669c0-13.221-16.581-23.941-37.034-23.941zm0 42.919c-9.1155-0.03993-18.837-2.737-19.708-11.064-0.39015-3.728-1.4754-20.985-1.4754-20.985s7.7822 1.4473 21.183 1.4473c13.456 0 20.409-1.6619 20.409-1.6619s-0.40968 17.483-0.40968 21.37c-0.26282 8-10.879 10.934-19.998 10.894z" fill="#fff" stroke-width="1.191"/>
</svg>
