<svg id="guns_sights" data-name="guns sights" xmlns="http://www.w3.org/2000/svg" width="128" height="128" viewBox="0 0 128 128">
  <metadata><?xpacket begin="﻿" id="W5M0MpCehiHzreSzNTczkc9d"?>
<x:xmpmeta xmlns:x="adobe:ns:meta/" x:xmptk="Adobe XMP Core 5.6-c138 79.159824, 2016/09/14-01:09:01        ">
   <rdf:RDF xmlns:rdf="http://www.w3.org/1999/02/22-rdf-syntax-ns#">
      <rdf:Description rdf:about=""/>
   </rdf:RDF>
</x:xmpmeta>
                                                                                                    
                                                                                                    
                                                                                                    
                                                                                                    
                                                                                                    
                                                                                                    
                                                                                                    
                                                                                                    
                                                                                                    
                                                                                                    
                                                                                                    
                                                                                                    
                                                                                                    
                                                                                                    
                                                                                                    
                                                                                                    
                                                                                                    
                                                                                                    
                                                                                                    
                                                                                                    
                           
<?xpacket end="w"?></metadata>
<defs>
    <style>
      .cls-1 {
        fill: #e0e0e0;
        fill-rule: evenodd;
      }
    </style>
  </defs>
  <path class="cls-1" d="M116.027,95.023h-6.006V60.012h6.006V95.023Zm-99.056,0h-6V60.012h6V95.023Zm66.045,0H76.973V60.012h6.042V95.023Zm-33.042,0H43.985V60.012h5.989V95.023ZM30.5,43.985a13.852,13.852,0,0,0,6.5-1.429V34.374c0-2.574-2.909-17.974-6.5-17.974S24,31.8,24,34.374v8.182A13.853,13.853,0,0,0,30.5,43.985Zm-0.2,56.049c4.5,0,8.312-1.546,9.7-3.32V60.006H39.995a17.3,17.3,0,0,0-3-7.568V47.6A19.3,19.3,0,0,1,30.3,48.722,17.071,17.071,0,0,1,24,47.6v4.838a17.3,17.3,0,0,0-3,7.568H20.994V96.715C22.382,98.488,25.8,100.034,30.3,100.034Zm0,5.664a17.549,17.549,0,0,1-9.306-2.381v5.016h0.035c0.395,2.05,4.393,3.661,9.272,3.661s9.272-1.611,9.666-3.661H40v-5.016A19.054,19.054,0,0,1,30.3,105.7ZM63.5,43.985A13.852,13.852,0,0,0,70,42.557V34.374C70,31.8,67.086,16.4,63.5,16.4S57,31.8,57,34.374v8.182A13.853,13.853,0,0,0,63.5,43.985Zm-0.2,56.049c4.5,0,8.313-1.546,9.7-3.32V60.006H72.995a17.3,17.3,0,0,0-3-7.568V47.6A19.3,19.3,0,0,1,63.3,48.722,17.071,17.071,0,0,1,57,47.6v4.838a17.3,17.3,0,0,0-3,7.568H53.994V96.715C55.382,98.488,58.8,100.034,63.3,100.034Zm0,5.664a17.549,17.549,0,0,1-9.306-2.381v5.016h0.035c0.395,2.05,4.393,3.661,9.272,3.661s9.272-1.611,9.666-3.661H73v-5.016A19.054,19.054,0,0,1,63.3,105.7ZM96.5,43.985a13.852,13.852,0,0,0,6.5-1.429V34.374C103,31.8,100.086,16.4,96.5,16.4S90,31.8,90,34.374v8.182A13.853,13.853,0,0,0,96.5,43.985Zm-0.2,56.049c4.5,0,8.313-1.546,9.7-3.32V60.006h-0.007a17.3,17.3,0,0,0-3-7.568V47.6a19.3,19.3,0,0,1-6.7,1.122A17.071,17.071,0,0,1,90,47.6v4.838a17.3,17.3,0,0,0-3,7.568H86.994V96.715C88.382,98.488,91.8,100.034,96.3,100.034Zm0,5.664a17.549,17.549,0,0,1-9.306-2.381v5.016h0.035c0.395,2.05,4.393,3.661,9.272,3.661s9.272-1.611,9.666-3.661H106v-5.016A19.054,19.054,0,0,1,96.3,105.7Z"/>
</svg>
