<svg xmlns="http://www.w3.org/2000/svg" width="100" height="100" viewBox="0 0 100 100">
  <defs>
    <style>
      .cls-1 {
        fill: #fff;
        fill-rule: evenodd;
      }
    </style>
  </defs>
  <g id="Layer_1" data-name="Layer 1">
    <g>
      <path class="cls-1" d="M72.83228,32.89282,100,20.12488l-1.63257-3.474L44.54224,41.94678l-4.31958,2.03L17.342,22.794l-4.3374,3.82678,1.85986,4.5155A16.85641,16.85641,0,0,1,26.50244,44.8457l2.44617,4.42957L7.746,59.23975a4.42977,4.42977,0,0,0-2.12488,5.89306L6.778,67.59424a4.42955,4.42955,0,0,0,5.893,2.125l12.32348-5.79163a20.5304,20.5304,0,0,1,30.932-14.537l16.18933-7.60839a4.42969,4.42969,0,0,0,2.12476-5.89307Z"/>
      <path class="cls-1" d="M45.33569,50.70483A16.32215,16.32215,0,1,0,61.65784,67.027,16.32215,16.32215,0,0,0,45.33569,50.70483Zm0,22.3208A5.99872,5.99872,0,1,1,51.33447,67.027,5.99873,5.99873,0,0,1,45.33569,73.02563Z"/>
      <polygon class="cls-1" points="0 77.213 0.374 79.938 27.2 76.374 26.084 73.305 0 77.213"/>
    </g>
  </g>
</svg>
