<svg xmlns="http://www.w3.org/2000/svg" width="100" height="100" viewBox="0 0 100 100">
  <defs>
    <style>
      .cls-1 {
        fill: #fff;
        fill-rule: evenodd;
      }
    </style>
  </defs>
  <g id="Layer_1" data-name="Layer 1">
    <g>
      <path class="cls-1" d="M86.3137,53.16A13.68624,13.68624,0,1,0,100,66.84623,13.68624,13.68624,0,0,0,86.3137,53.16Zm.00012,20.30467a6.61844,6.61844,0,1,1,6.61837-6.61843A6.61854,6.61854,0,0,1,86.31382,73.46466Z"/>
      <path class="cls-1" d="M96.18214,50.85466V36.86H63.82554L56.51622,19.46753l-3.032.43132,5.9326,20.03222v7.06142c0,1.94036-1.29064,3.51332-2.88274,3.51332H44.72157a2.85839,2.85839,0,0,1-2.51795-1.779l-2.53769-5.40172c-1.58272-3.36866-4.524-5.44686-7.70916-5.44686H7.10236V31.47161a3.55118,3.55118,0,0,0-7.10236,0v17.965a3.534,3.534,0,0,0,6.21035,2.325V62.66748a26.56275,26.56275,0,0,0,2.87564.09145,17.26325,17.26325,0,0,1,34.03817,4.0873c0,.03317-.00481.06519-.00505.0983H68.19035l5.68194-16.08987Z"/>
      <path class="cls-1" d="M25.85056,53.16a13.68624,13.68624,0,1,0,13.6863,13.68624A13.68624,13.68624,0,0,0,25.85056,53.16Zm0,20.30467a6.61844,6.61844,0,1,1,6.6185-6.61843A6.61841,6.61841,0,0,1,25.85056,73.46466Z"/>
    </g>
  </g>
</svg>
