<?xml version="1.0" encoding="UTF-8" standalone="no"?>
<!-- Created with Inkscape (http://www.inkscape.org/) -->

<svg
   xmlns:dc="http://purl.org/dc/elements/1.1/"
   xmlns:cc="http://creativecommons.org/ns#"
   xmlns:rdf="http://www.w3.org/1999/02/22-rdf-syntax-ns#"
   xmlns:svg="http://www.w3.org/2000/svg"
   xmlns="http://www.w3.org/2000/svg"
   xmlns:sodipodi="http://sodipodi.sourceforge.net/DTD/sodipodi-0.dtd"
   xmlns:inkscape="http://www.inkscape.org/namespaces/inkscape"
   width="200"
   height="260"
   viewBox="0 0 200 260"
   id="svg2"
   version="1.1"
   inkscape:version="0.91 r13725"
   sodipodi:docname="map_pin.svg">
  <defs
     id="defs4" />
  <sodipodi:namedview
     id="base"
     pagecolor="#26282f"
     bordercolor="#666666"
     borderopacity="1.0"
     inkscape:pageopacity="0"
     inkscape:pageshadow="2"
     inkscape:zoom="0.7"
     inkscape:cx="326.24839"
     inkscape:cy="323.1472"
     inkscape:document-units="px"
     inkscape:current-layer="layer1"
     showgrid="false"
     units="px"
     inkscape:window-width="1920"
     inkscape:window-height="1147"
     inkscape:window-x="-8"
     inkscape:window-y="-8"
     inkscape:window-maximized="1" />
  <metadata
     id="metadata7">
    <rdf:RDF>
      <cc:Work
         rdf:about="">
        <dc:format>image/svg+xml</dc:format>
        <dc:type
           rdf:resource="http://purl.org/dc/dcmitype/StillImage" />
        <dc:title></dc:title>
      </cc:Work>
    </rdf:RDF>
  </metadata>
  <g
     inkscape:label="Layer 1"
     inkscape:groupmode="layer"
     id="layer1"
     transform="translate(0,-792.36216)">
    <path
       style="opacity:1;fill:#ffffff;fill-opacity:1;stroke:none;stroke-width:6.82230663;stroke-miterlimit:4;stroke-dasharray:none"
       d="M 100,801.0597 C 51.15316,801.06007 11.555065,840.65817 11.554689,889.505 11.555402,981.92329 100,1043.6646 100,1043.6646 c 0,0 88.44531,-61.73512 88.44531,-154.1596 C 188.44493,840.65817 148.84684,801.06007 100,801.0597 Z m 0,26.78516 c 34.05394,6e-5 61.66009,27.60621 61.66016,61.66015 -6e-5,34.05394 -27.60622,61.6601 -61.66016,61.66016 -34.053937,-7e-5 -61.660091,-27.60622 -61.660155,-61.66016 6.7e-5,-34.05394 27.60622,-61.66009 61.660155,-61.66015 z"
       id="path4136"
       inkscape:connector-curvature="0"
       sodipodi:nodetypes="cccccsssss" />
  </g>
</svg>
