<svg xmlns="http://www.w3.org/2000/svg" width="100" height="100" viewBox="0 0 100 100">
  <defs>
    <style>
      .cls-1 {
        fill: #fff;
        fill-rule: evenodd;
      }
    </style>
  </defs>
  <g id="Layer_1" data-name="Layer 1">
    <g>
      <path class="cls-1" d="M82.14526,48.82291a17.7108,17.7108,0,0,0-4.51489.60254L75.9093,45.06918A22.52619,22.52619,0,0,1,93.611,47.32175l3.4176-5.80585a29.02992,29.02992,0,0,0-14.8833-4.10913,28.53244,28.53244,0,0,0-8.7207,1.37292l-1.51929-3.84491a14.03253,14.03253,0,0,0,3.77.46009c2.09278,0,3.78931-2.749,3.78931-6.14014s-1.69653-6.14014-3.78931-6.14014c-3.53393,0-5.99963,1.13349-7.31836,2.83857l-.2821-.71405a9.99859,9.99859,0,0,0-5.71191-5.84345L52.03174,15.37741A2.26963,2.26963,0,1,0,50.386,19.60782l10.3313,4.01727a5.48627,5.48627,0,0,1,3.12133,3.24054l2.95362,7.47626a5.93019,5.93019,0,0,0-1.24878-.76154,10.0053,10.0053,0,0,0-5.15625-.7301,12.158,12.158,0,0,0-6.71289,3.1214L42.47,46.0007a30.10359,30.10359,0,0,0-8.27942-5.55151,2.672,2.672,0,0,0,1.02429-2.0907V35.40335A2.69215,2.69215,0,0,0,32.53052,32.719h-16.177a2.69231,2.69231,0,0,0-2.68433,2.68439v2.95514a2.66525,2.66525,0,0,0,.05347.52747A29.89021,29.89021,0,0,0,0,47.07047L4.87085,51.475A22.51874,22.51874,0,0,1,43.77,69.25687H59.66919A22.56649,22.56649,0,0,1,69.49585,48.0657l1.946,4.37a17.80659,17.80659,0,1,0,10.70337-3.61279Zm0,27.97668a10.00725,10.00725,0,0,1-5.748-18.14551l2.86425,7.25031a2.26908,2.26908,0,0,0,4.221-1.66687l-2.886-7.30438a9.98931,9.98931,0,1,1,1.54882,19.86645Z"/>
      <path class="cls-1" d="M21.37195,48.94492A17.85468,17.85468,0,1,0,39.22656,66.79959,17.85475,17.85475,0,0,0,21.37195,48.94492Zm0,27.7868a9.93216,9.93216,0,1,1,9.932-9.93213A9.93213,9.93213,0,0,1,21.37195,76.73172Z"/>
    </g>
  </g>
</svg>
