<svg xmlns="http://www.w3.org/2000/svg" width="100" height="100" viewBox="0 0 100 100">
  <defs>
    <style>
      .cls-1 {
        fill: #fff;
      }
    </style>
  </defs>
  <g id="Layer_1" data-name="Layer 1">
    <g>
      <path class="cls-1" d="M95.21535,7.14771,90.66683,0,10.97549,50.71265,15.524,57.86047ZM89.606,3.36511l2.18823,3.43872-2.28473,1.454-2.18829-3.4386Z"/>
      <path class="cls-1" d="M32.69094,64.15784V62.51672l-.84521-.94348a10.09528,10.09528,0,0,1-2.54749-7.48376L5.99093,68.92139a2.60422,2.60422,0,0,0-.79883,3.59509l2.74213,4.30908a2.60414,2.60414,0,0,0,3.595.799Z"/>
      <path class="cls-1" d="M43.00716,45.3656a10.12157,10.12157,0,0,1,3.931,2.68848l4.01514,4.4823,9.01154-5.7345a3.58543,3.58543,0,0,0,1.09985-4.94971L57.45126,36.174Z"/>
      <path class="cls-1" d="M60.89791,73.372l-.04047-.0332a5.0292,5.0292,0,0,0-1.27819-3.56238l-16.4231-18.3346a5.05352,5.05352,0,0,0-7.52832,6.74365l2.14069,2.38978V91.44788H10.687V100H78.58511V91.44788H60.89791Z"/>
    </g>
  </g>
</svg>
