<svg xmlns="http://www.w3.org/2000/svg" width="200" height="200" viewBox="0 0 200 200">
  <defs>
    <style>
      .cls-1 {
        fill: #1e1e1e;
      }

      .cls-1, .cls-2 {
        fill-rule: evenodd;
      }

      .cls-2 {
        fill: #fff;
      }
    </style>
  </defs>
  <path id="Shape_9_copy" data-name="Shape 9 copy" class="cls-1" d="M197.151,86.983c-0.6-.363-8.952-3.479-8.952-3.479V66.369l2.921-1.561a3.825,3.825,0,0,0,2.019-3.374V54.128a3.8,3.8,0,0,0-4.253-3.8,3.783,3.783,0,0,0-.465-0.139L63.875,22.093a3.8,3.8,0,0,0-2.632.358L5.4,52.4A3.815,3.815,0,0,0,3.61,54.49,3.829,3.829,0,0,0,2.8,56.842v7.307a3.82,3.82,0,0,0,2.967,3.727L7.05,68.169c0,0.028,0,.056,0,0.085V89.981a4.978,4.978,0,0,0-1.482-.249l-1.6-.013C2.218,89.705.991,90.71,1,92.148l0.05,13.71c0.007,2,2.345,3.944,4.774,3.964l1.225,0.01v25.421a3.958,3.958,0,0,0-.434-0.025A3.815,3.815,0,0,0,2.8,139.05v7.307a3.819,3.819,0,0,0,2.967,3.727l122.187,27.821a4.5,4.5,0,0,0,2.839-.407l60.327-32.231a3.826,3.826,0,0,0,2.019-3.374v-7.307a3.789,3.789,0,0,0-4.94-3.643V105.632l8.782-4.692A3.823,3.823,0,0,0,199,97.566V90.259A3.825,3.825,0,0,0,197.151,86.983Z"/>
  <path class="cls-2" d="M184.388,103.338h0L135.84,129.276l-0.021-7.3L195.19,90.259v7.307ZM132.607,84.663c0-.076,0-0.15-0.01-0.225l56.732-30.311v7.307L132.607,91.74V84.663ZM43.044,36.545l20-10.723L183.383,52.974,163.008,63.86Zm87.438,44.693a3.8,3.8,0,0,0-.842-0.3L10.747,53.865,37.639,39.443l119.95,27.312ZM128.8,91.97L6.61,64.149V56.842L128.8,84.663V91.97ZM23.11,71.826v67.062L10.855,136.1V69.035ZM77.833,86.537v21.6l22.322,5.162v18.318l-22.321-5.161v21.6L58.9,143.674v-21.6l-22.321-5.161V98.6L58.9,103.758V82.16Zm47.327,8.524v67.062l-10.326-2.351V92.71Zm0.033,71.757v6.539l-118.582-27V139.05l118.657,27.017A3.818,3.818,0,0,0,125.192,166.818Zm5.6-69.778,53.6-28.635V85.562l-55.84,30.169V97.46A3.764,3.764,0,0,0,130.793,97.04Zm1.405,37.784s3.943-1.378,4.456-1.652l47.734-25.5V132.34l-55.84,29.945V132.8A3.088,3.088,0,0,0,132.2,134.824Zm57.131,7.069L129,174.125v-7.307l60.327-32.232v7.307ZM7,94v13l-3-1V94H7Z"/>
</svg>
