<svg xmlns="http://www.w3.org/2000/svg" width="38" height="38" viewBox="0 0 38 38">
  <metadata><?xpacket begin="﻿" id="W5M0MpCehiHzreSzNTczkc9d"?>
<x:xmpmeta xmlns:x="adobe:ns:meta/" x:xmptk="Adobe XMP Core 5.6-c138 79.159824, 2016/09/14-01:09:01        ">
   <rdf:RDF xmlns:rdf="http://www.w3.org/1999/02/22-rdf-syntax-ns#">
      <rdf:Description rdf:about=""/>
   </rdf:RDF>
</x:xmpmeta>
                                                                                                    
                                                                                                    
                                                                                                    
                                                                                                    
                                                                                                    
                                                                                                    
                                                                                                    
                                                                                                    
                                                                                                    
                                                                                                    
                                                                                                    
                                                                                                    
                                                                                                    
                                                                                                    
                                                                                                    
                                                                                                    
                                                                                                    
                                                                                                    
                                                                                                    
                                                                                                    
                           
<?xpacket end="w"?></metadata>
<defs>
    <style>
      .cls-1 {
        fill: #fff;
        fill-rule: evenodd;
      }
    </style>
  </defs>
  <path class="cls-1" d="M33,37H5a4,4,0,0,1-4-4V5A4,4,0,0,1,5,1H33a4,4,0,0,1,4,4V33A4,4,0,0,1,33,37ZM29,22H22v7a1,1,0,0,1-1,1H17a1,1,0,0,1-1-1V22H9a1,1,0,0,1-1-1V17a1,1,0,0,1,1-1h7V9a1,1,0,0,1,1-1h4a1,1,0,0,1,1,1v7h7a1,1,0,0,1,1,1v4A1,1,0,0,1,29,22Z"/>
</svg>
