<svg xmlns="http://www.w3.org/2000/svg" width="50" height="50" viewBox="0 0 50 50">
  <metadata><?xpacket begin="﻿" id="W5M0MpCehiHzreSzNTczkc9d"?>
<x:xmpmeta xmlns:x="adobe:ns:meta/" x:xmptk="Adobe XMP Core 5.6-c138 79.159824, 2016/09/14-01:09:01        ">
   <rdf:RDF xmlns:rdf="http://www.w3.org/1999/02/22-rdf-syntax-ns#">
      <rdf:Description rdf:about=""/>
   </rdf:RDF>
</x:xmpmeta>
                                                                                                    
                                                                                                    
                                                                                                    
                                                                                                    
                                                                                                    
                                                                                                    
                                                                                                    
                                                                                                    
                                                                                                    
                                                                                                    
                                                                                                    
                                                                                                    
                                                                                                    
                                                                                                    
                                                                                                    
                                                                                                    
                                                                                                    
                                                                                                    
                                                                                                    
                                                                                                    
                           
<?xpacket end="w"?></metadata>
<defs>
    <style>
      .cls-1 {
        fill: #fff;
        fill-rule: evenodd;
      }
    </style>
  </defs>
  <path id="kill_melee" class="cls-1" d="M41.536,14.708L25.2,30.909l2.21,2.192L25.93,34.572l-2.925-2.9a1.739,1.739,0,0,0-1.513,1.7,1.691,1.691,0,0,0,.1.487l-0.985.977a1.73,1.73,0,0,0-.491-0.1A1.763,1.763,0,0,0,18.345,36.5a1.691,1.691,0,0,0,.1.487l-0.985.977a1.73,1.73,0,0,0-.491-0.1A1.763,1.763,0,0,0,15.2,39.62a1.694,1.694,0,0,0,.1.487l-0.985.977a1.73,1.73,0,0,0-.491-0.1,1.763,1.763,0,0,0-1.771,1.756,1.694,1.694,0,0,0,.1.487l-0.3.294c-1.049.976-.393,3.122-0.393,3.122-8.066,2.081-7.454-5.919-7.454-5.919L18.07,26.776,15.543,24.27,17.027,22.8l1.882,1.867L33.143,10.546s11.391-5.352,12.59-9.366C45.733,1.179,47.532,7.869,41.536,14.708ZM7.984,41.441a1.366,1.366,0,1,0,1.377,1.366A1.372,1.372,0,0,0,7.984,41.441Z"/>
</svg>
