<?xml version="1.0" encoding="utf-8"?>
<!-- Generator: Adobe Illustrator 26.2.1, SVG Export Plug-In . SVG Version: 6.00 Build 0)  -->
<svg version="1.1" id="Layer_1" xmlns="http://www.w3.org/2000/svg" xmlns:xlink="http://www.w3.org/1999/xlink" x="0px" y="0px"
	 viewBox="0 0 16 16" style="enable-background:new 0 0 16 16;" xml:space="preserve">
<g>
	<rect y="11" transform="matrix(1.364303e-12 -1 1 1.364303e-12 -11 15)" style="fill:#FFFFFF;" width="4" height="4"/>
	<rect x="6" y="11" transform="matrix(1.364303e-12 -1 1 1.364303e-12 -5 21)" style="fill:#FFFFFF;" width="4" height="4"/>
	<rect x="3" y="6" transform="matrix(1.364303e-12 -1 1 1.364303e-12 -3 13)" style="fill:#FFFFFF;" width="4" height="4"/>
	<rect x="6" y="1" transform="matrix(9.095560e-13 -1 1 9.095560e-13 5 11)" style="fill:#FFFFFF;" width="4" height="4"/>
	<rect x="9" y="6" transform="matrix(1.819051e-12 -1 1 1.819051e-12 3 19)" style="fill:#FFFFFF;" width="4" height="4"/>
	<rect x="12" y="11" transform="matrix(1.364303e-12 -1 1 1.364303e-12 1 27)" style="fill:#FFFFFF;" width="4" height="4"/>
</g>
</svg>
