<svg xmlns="http://www.w3.org/2000/svg" width="38" height="38" viewBox="0 0 38 38">
  <defs>
    <style>
      .cls-1 {
        fill: #fff;
        fill-rule: evenodd;
      }
    </style>
  </defs>
  <path id="explosive_mortar" class="cls-1" d="M36.707,19.126l-6.648-3.859,6.177-7.223-7.78.472L27.8,0.05,19.85,8.987,15.96,2.032,13.484,12.288,6.353,10.249l4.071,11c1.98-3.2,3.378-5.5,3.4-5.529a1.793,1.793,0,0,1,.173-0.238,17.742,17.742,0,0,1,2.759-2.595q0.06-.045.124-0.086a8.734,8.734,0,0,1,4.606-1.187h0.107l0.263-.248c0.161-.152.538-0.5,3.592-2.074A2.062,2.062,0,0,1,26.51,9a3.288,3.288,0,0,1,2.251,1.138c1.2,1.273,1.188,2.547.649,3.35-1.757,2.964-2.134,3.319-2.3,3.471l-0.259.244a8.845,8.845,0,0,1-1.471,4.637q-0.044.061-.094,0.119a17.726,17.726,0,0,1-2.759,2.6,1.818,1.818,0,0,1-.249.158c-0.03.016-1.893,1-4.612,2.453l14.086,1.15-4.362-5.069Zm-9.263-7.745a1.59,1.59,0,0,0-.934-0.568,0.233,0.233,0,0,0-.165.057l0,0s-2.894,1.484-3.251,1.82L22.763,13l2.784,2.961,0.329-.31c0.357-.336,2.014-3.134,2.014-3.134l0,0A1.069,1.069,0,0,0,27.444,11.381Zm-5.176,2.081a7.123,7.123,0,0,0-.784-0.038,7.029,7.029,0,0,0-3.64.907,15.9,15.9,0,0,0-2.478,2.33s-2.847,4.685-6.234,10.08L6.274,29.435,8.131,31.41l2.864-2.688c5.594-3.05,10.445-5.6,10.445-5.6a15.888,15.888,0,0,0,2.478-2.331,7.664,7.664,0,0,0,1.135-4.365ZM5.94,30.069l-0.006-.006h0L5.5,29.6h0l-0.654-.7-1.9-.063L1.293,30.406l0.925,0.984h0l3.756,3.993h0l0.887,0.943,1.776-1.66,0.051-1.674-0.66-.7Z"/>
</svg>
