<svg width="64" height="64" version="1.1" xmlns="http://www.w3.org/2000/svg">
<g transform="matrix(.12661 0 0 .12661 -.10072 -68.706)" fill="#fff" stroke="#000" stroke-width="12.122">
<path d="m457.63 558.34 34.194 34.194-83.548 83.548 27.116 27.149-136.67 48.217 48.217-136.68 27.149 27.116z"/>
<path d="m457.63 1033.4 34.194-34.194-83.548-83.548 27.116-27.149-136.67-48.217 48.217 136.68 27.149-27.116z"/>
<path d="m50.961 1035.5-34.194-34.194 83.548-83.548-27.116-27.149 136.67-48.217-48.217 136.68-27.149-27.116z"/>
<path d="m53.103 560.48-34.194 34.194 83.548 83.548-27.116 27.149 136.67 48.217-48.217-136.68-27.149 27.116z"/>
</g>
</svg>
