<svg xmlns="http://www.w3.org/2000/svg" width="128" height="128" viewBox="0 0 128 128">
  <defs>
    <style>
      .cls-1 {
        fill: #e4d551;
        fill-rule: evenodd;
      }
    </style>
  </defs>
  <path id="paratrooper" class="cls-1" d="M105,36.662C105,19.728,86.422,6,63.5,6S22,19.728,22,36.662A18.825,18.825,0,0,0,23.1,42.886a1.092,1.092,0,0,0,.115.535L23.54,44.06c0.336,0.847.711,1.69,1.12,2.538,0.072,0.115.125,0.223,0.145,0.257L31.962,60.84,62.158,121h2.687L95.038,60.843,102.2,46.854c0.015-.016.17-0.354,0.194-0.405,0.377-.784.725-1.554,1.036-2.322l0.355-.707a1.094,1.094,0,0,0,.115-0.532A18.434,18.434,0,0,0,105,36.662Zm-9.273,3.443c2.474,0,4.583.916,5.436,2.209a1,1,0,0,0-.071.11L70.724,102.937,90.388,42.382a1.883,1.883,0,0,1,.53-0.767A7.516,7.516,0,0,1,95.731,40.106Zm-14.937-.738c2.793,0,5.216.794,6.427,1.959a2.134,2.134,0,0,1,.336.424L66.608,106.257l7.417-64.533C75.062,40.348,77.7,39.368,80.794,39.368ZM63.5,38.615c3.487,0,6.459,1.069,7.645,2.574L63.5,107.711,55.855,41.189C57.042,39.684,60.013,38.615,63.5,38.615Zm-17.293.753c2.872,0,5.349.841,6.522,2.059a2.192,2.192,0,0,1,.249.316l7.415,64.514L39.446,41.752a2.181,2.181,0,0,1,.38-0.468C41.052,40.143,43.449,39.368,46.208,39.368Zm-15,.738a7.049,7.049,0,0,1,5.3,1.945l19.773,60.887L25.906,42.425a1.215,1.215,0,0,0-.109-0.169,2.135,2.135,0,0,1,.348-0.456A7.386,7.386,0,0,1,31.21,40.106Z"/>
</svg>
