<svg xmlns="http://www.w3.org/2000/svg" width="200" height="200" viewBox="0 0 200 200">
  <defs>
    <style>
      .cls-1, .cls-2 {
        fill-rule: evenodd;
      }

      .cls-2 {
        fill: #fff;
      }
    </style>
  </defs>
  <g id="Layer_2" data-name="Layer 2">
    <g>
      <path class="cls-1" d="M195.8209,95.39183c-1.6219-4.46043-10.0462-16.55865-15.80943-24.56792V70.5312a3.64589,3.64589,0,0,0,1.53465-2.34365l2.57867-13.76974a3.65074,3.65074,0,0,0,.06221-.66628l.0109-7.87725a6.92993,6.92993,0,0,0-4.51577-3.75955L114.564,27.46907l.01077-.01818-3.36619-.73649-50.74563-11.413a3.64716,3.64716,0,0,0-2.51956.34186L4.49061,44.21757a3.64377,3.64377,0,0,0-1.71426,1.99271A3.64778,3.64778,0,0,0,2.00027,48.501L2.093,56.70107a3.64385,3.64385,0,0,0,.07163.67934L4.35234,68.23427v6.62l1.7109.38831v37.00847A3.64632,3.64632,0,0,0,2,115.87376v6.97246a3.64724,3.64724,0,0,0,2.83988,3.55671l1.22336.27763v17.31757A3.64608,3.64608,0,0,0,2,147.62081v6.97232a3.64724,3.64724,0,0,0,2.83988,3.55672l116.961,26.547a4.31419,4.31419,0,0,0,2.71763-.38818l57.74689-30.75595a3.64723,3.64723,0,0,0,1.93266-3.219v-2.769a17.89488,17.89488,0,0,0,8.012-3.66254,10.93685,10.93685,0,0,0,3.79557-7.73709c.08887-1.4229.31453-5.04478-5.117-14.403a26.296,26.296,0,0,0,5.21309-7.07708C198.7211,109.25245,198.6317,103.12192,195.8209,95.39183Zm-19.999,25.7136Zm13.85389,14.66376a4.54459,4.54459,0,0,1-1.62083,3.34128,10.9348,10.9348,0,0,1-4.55778,2.10312,3.61061,3.61061,0,0,0-4.02809-1.32825v-8.4484a19.86043,19.86043,0,0,1,2.9519-2.62795c1.26914-.93523,2.475-1.8508,3.61164-2.75775C188.37033,130.198,189.80616,133.68546,189.67583,135.76919Zm.71306-23.83843a18.44548,18.44548,0,0,1-2.96644,4.276q-1.44424-2.17978-3.22724-4.67734a3.64246,3.64246,0,0,0-2.45063-3.36108c-.77338-1.03883-1.53559-2.04447-2.27545-3.00663V81.02293c4.9986,7.16493,9.46118,13.97817,10.39143,16.53611C192.07812,103.657,192.241,108.08941,190.38889,111.93076Z"/>
      <path class="cls-2" d="M163.4238,42.19632c-.71993,2.43171-.19712,5.56726.64655,8.31827l10.78916-5.74626Z"/>
      <path class="cls-2" d="M119.15689,174.11735a3.64754,3.64754,0,0,1,.07177-.71656l-113.58147-25.78v6.97232L119.15689,180.357Z"/>
      <polygon class="cls-2" points="122.804 181.09 180.551 150.334 180.551 143.361 122.804 174.117 122.804 181.09"/>
      <polygon class="cls-2" points="9.71 133.205 9.71 144.803 119.125 169.637 119.125 158.206 9.71 133.205"/>
      <polygon class="cls-2" points="122.369 158.05 122.369 169.792 175.822 141.218 175.822 130.533 122.369 158.05"/>
      <polygon class="cls-2" points="110.296 98.901 110.296 136.675 119.125 138.679 119.125 100.905 110.296 98.901"/>
      <polygon class="cls-2" points="137.919 93.29 122.369 101.294 122.369 138.045 137.919 129.733 137.919 93.29"/>
      <polygon class="cls-2" points="166.405 53.403 166.405 71.653 178.337 65.51 180.54 53.746 180.551 45.869 166.405 53.403"/>
      <g>
        <polygon class="cls-2" points="157.341 83.291 146.983 88.624 146.983 124.888 157.341 119.35 157.341 83.291"/>
        <polygon class="cls-2" points="166.405 78.625 166.405 114.505 175.822 109.471 175.822 73.777 166.405 78.625"/>
      </g>
      <g>
        <polygon class="cls-2" points="148.09 38.748 112.611 30.768 92.662 64.47 102.231 66.642 148.09 38.748"/>
        <path class="cls-2" d="M78.34383,23.06115,59.03625,33.34433A95.70226,95.70226,0,0,0,86.70674,24.942Z"/>
        <path class="cls-2" d="M45.63112,40.484,28.10661,49.81755l8.575,1.94625,25.25433-12.423c-2.1361.33021-4.32916.58476-6.56153.737C51.76785,40.32365,48.52755,40.44583,45.63112,40.484Z"/>
        <polygon class="cls-2" points="103.653 28.753 99.824 27.892 46.682 54.034 83.349 62.356 103.653 28.753"/>
        <path class="cls-2" d="M139.103,52.44449l-27.01774,16.434,11.33015,2.57167a3.63564,3.63564,0,0,1,.80247.29l13.45831-7.168A21.44765,21.44765,0,0,1,139.103,52.44449Z"/>
        <path class="cls-2" d="M155.36815,44.11807l-.66406.53944c-8.04838,6.53945-9.502,12.77662-9.63783,15.97869l12.063-6.42473A28.01325,28.01325,0,0,1,155.36815,44.11807Z"/>
        <path class="cls-2" d="M44.07762,34.15178l25.2888-13.10973-9.70368-2.18241L32.14521,33.56972A103.19255,103.19255,0,0,0,44.07762,34.15178Z"/>
        <path class="cls-2" d="M32.75932,40.01915a45.17617,45.17617,0,0,1-5.9924-.8922,3.15953,3.15953,0,0,1-2.03148-1.59619L9.60622,45.61839l8.59058,1.94982Z"/>
      </g>
      <polygon class="cls-2" points="180.551 111.614 122.804 142.37 122.804 149.343 180.551 118.587 180.551 111.614"/>
      <polygon class="cls-2" points="9.71 116.796 9.71 123.769 119.125 148.603 119.125 141.63 9.71 116.796"/>
      <path class="cls-2" d="M119.15689,142.3703v-.27575a3.64661,3.64661,0,0,1,.02922-.45038L5.64719,115.87376v6.97246l113.5097,25.76368Z"/>
      <polygon class="cls-2" points="146.983 63.748 146.983 81.651 157.341 76.319 157.341 58.231 146.983 63.748"/>
      <polygon class="cls-2" points="91.414 94.615 91.414 132.389 100.801 134.52 100.801 96.746 91.414 94.615"/>
      <polygon class="cls-2" points="44.045 57.175 44.045 76.891 81.918 85.487 81.918 65.939 44.045 57.175"/>
      <polygon class="cls-2" points="44.045 83.863 44.045 121.638 81.918 130.234 81.918 92.46 44.045 83.863"/>
      <g>
        <polygon class="cls-2" points="16.53 50.941 16.579 50.941 5.647 48.46 5.74 56.66 8.177 68.75 16.53 70.646 16.53 50.941"/>
        <polygon class="cls-2" points="26.025 53.085 26.025 72.801 34.55 74.736 34.55 55.041 34.644 55.041 26.025 53.085"/>
      </g>
      <g>
        <polygon class="cls-2" points="16.53 77.618 9.71 76.07 9.71 113.844 16.53 115.392 16.53 77.618"/>
        <polygon class="cls-2" points="26.025 79.773 26.025 117.548 34.55 119.482 34.55 81.708 26.025 79.773"/>
      </g>
      <path class="cls-2" d="M126.0745,74.88344c.00592.11364.00741.22828.00269.34394l-.33485,8.19663a3.64847,3.64847,0,0,1-.06275.54085l-1.84985,9.60532,14.08911-7.253V68.57511Z"/>
      <g>
        <polygon class="cls-2" points="91.414 87.643 100.801 89.773 100.801 70.057 91.414 67.926 91.414 87.643"/>
        <polygon class="cls-2" points="110.188 72.299 110.188 91.988 119.984 94.255 122.098 83.275 122.433 75.078 110.188 72.299"/>
      </g>
    </g>
  </g>
</svg>
