<?xml version="1.0" encoding="utf-8"?>
<!-- Generator: Adobe Illustrator 27.3.1, SVG Export Plug-In . SVG Version: 6.00 Build 0)  -->
<svg version="1.1" id="Layer_1" xmlns="http://www.w3.org/2000/svg" xmlns:xlink="http://www.w3.org/1999/xlink" x="0px" y="0px"
	 viewBox="0 0 100 100" style="enable-background:new 0 0 100 100;" xml:space="preserve">
<g>
	<path style="opacity:0.45;fill:#131313;enable-background:new    ;" d="M69.4,55.2L77.9,39c0.8-1.5,1.4-3.1,1.8-4.7
		c0.7-2.8,0.9-5.5,0.5-8.1C78,11.3,65.1,0.1,50,0.1C35,0.1,22,11.3,19.8,26.2c-0.4,2.6-0.2,5.3,0.5,8.1c0.4,1.6,1,3.2,1.8,4.7
		l8.4,16.3c-10.4,4.2-17,11.7-17,20.6c0,13.7,15.7,24.1,36.6,24.1c20.8,0,36.6-10.4,36.6-24.1C86.6,66.8,79.9,59.3,69.4,55.2z
		 M50,85.5c-11.7,0-21.5-5.4-21.5-11.7c0-3.3,2.8-6.2,7.4-8.1l6.5,12.5c1.4,2.8,4.3,4.5,7.4,4.5h0c3.1,0,6-1.7,7.4-4.5l6.7-12.7
		c4.7,2,7.6,4.9,7.6,8.2C71.5,80.2,61.7,85.5,50,85.5z"/>
	<path style="fill:#FFFFFF;" d="M24.2,33.3c0.3,1.3,0.8,2.6,1.4,3.8l20.3,39.2c0.8,1.5,2.2,2.4,3.9,2.4c1.6,0,3.1-0.9,3.9-2.3
		l20.7-39.2c0.6-1.2,1.1-2.5,1.5-3.9c0.5-2.1,0.7-4.3,0.4-6.5C74.4,14,63.3,4.1,50,4.1c-13.3,0-24.4,9.9-26.2,22.7
		C23.5,28.9,23.6,31.1,24.2,33.3L24.2,33.3z M31.4,35.3h7l6.3,26.8L31.4,35.3z M49.9,62.3l-5.4-27h11L49.9,62.3z M55.1,62.1
		l6.5-26.8h6.9L55.1,62.1z M50,10.1c10.9,0,19.8,8.5,20.5,19.2H29.5C30.2,18.6,39.1,10.1,50,10.1z M82.6,75.8
		c0,11.3-14.3,20.1-32.6,20.1c-18.3,0-32.6-8.8-32.6-20.1c0-7.2,5.9-13.4,14.9-17l1.7,3.2c-5.8,2.6-9.5,6.7-9.5,11.7
		c0,8.8,11.2,15.7,25.5,15.7c14.3,0,25.5-6.9,25.5-15.7c0-5.1-3.8-9.2-9.7-11.8l1.7-3.2C76.6,62.3,82.6,68.5,82.6,75.8z"/>
</g>
<g>
	<path style="opacity:0.45;fill:#131313;enable-background:new    ;" d="M385.5,42l-2-1.4l4.4-8.3c0.5-0.9,0.9-1.9,1.1-2.9
		c0.4-1.7,0.5-3.4,0.3-5c-1.3-8.8-9-15.5-17.9-15.5c-8.9,0-16.7,6.7-17.9,15.5c-0.2,1.6-0.1,3.3,0.3,5c0.3,1,0.6,2,1.1,2.9l4.3,8.4
		l-1.9,1.4c-3.8,2.7-5.9,6.5-5.9,10.6c0,3.1,1.2,6,3.4,8.4l5.2,3.8c3.3,1.6,7.3,2.5,11.4,2.5s8.1-0.9,11.4-2.5L388,61
		c2.2-2.4,3.4-5.3,3.4-8.4C391.4,48.5,389.3,44.7,385.5,42z"/>
	<g>
		<path d="M371.2,54.6c-1.6,0-3.1-0.9-3.8-2.3l-10.8-20.9c-0.4-0.8-0.7-1.6-0.9-2.5c-0.4-1.5-0.5-2.9-0.3-4.3
			c1.1-7.9,8-13.8,16-13.8c8,0,14.8,5.9,16,13.8c0.2,1.4,0.1,2.8-0.3,4.3c-0.2,0.9-0.5,1.7-1,2.5l-11,20.9
			C374.4,53.7,372.9,54.6,371.2,54.6L371.2,54.6z"/>
	</g>
	<path d="M356.2,59.6c-1.9-2.1-2.9-4.5-2.9-7c0-3.4,1.8-6.6,5.1-9l0.3-0.2c0.5-0.4,1.3-0.4,1.8,0l2.6,2c0.8,0.6,0.8,1.9,0,2.5
		l-0.5,0.4c-1.6,1.2-2.6,2.6-2.6,3.9c0,1.2,0.9,2.2,1.6,2.9l0.6,0.6c0.6,0.6,0.6,1.6-0.1,2.1l-3.8,2.5c-0.5,0.4-1.3,0.3-1.7-0.2
		L356.2,59.6z"/>
	<path d="M380.6,57.7c-0.7-0.5-0.8-1.5-0.1-2.1l0.6-0.6c0.7-0.6,1.6-1.7,1.6-2.9c0-1.3-0.9-2.7-2.6-3.9l-0.5-0.4
		c-0.8-0.6-0.9-1.9,0-2.5l2.6-2c0.5-0.4,1.3-0.4,1.8,0l0.3,0.2c3.3,2.4,5.1,5.5,5.1,9c0,2.5-1,5-2.9,7l-0.4,0.4
		c-0.4,0.5-1.2,0.6-1.7,0.2L380.6,57.7z"/>
	<path d="M371.4,65.3c-3.9,0-7.5-0.8-10.6-2.3l-1-0.5c-0.9-0.4-1-1.7-0.2-2.3l4.7-3.5l1,0.4c1.8,0.7,3.9,1,6.1,1s4.2-0.4,6.1-1
		l1-0.4l4.7,3.5c0.8,0.6,0.7,1.8-0.2,2.3l-1,0.5C378.9,64.5,375.2,65.3,371.4,65.3z"/>
	<g>
		<path style="fill:#E6E6E6;" d="M357.6,28.4c0.2,0.7,0.4,1.4,0.8,2l10.8,20.9c0.4,0.8,1.2,1.3,2.1,1.3c0.9,0,1.7-0.5,2.1-1.2
			l11-20.9c0.3-0.7,0.6-1.3,0.8-2.1c0.3-1.1,0.4-2.3,0.2-3.5c-1-6.8-6.9-12.1-14-12.1c-7.1,0-13,5.3-14,12.1
			C357.2,26,357.3,27.2,357.6,28.4L357.6,28.4z M361.5,29.4h3.7l3.4,14.3L361.5,29.4z M371.3,43.8l-2.9-14.4h5.9L371.3,43.8z
			 M374.1,43.7l3.5-14.3h3.7L374.1,43.7z"/>
		<g>
			<path style="fill:#E6E6E6;" d="M358,52.1c0-2,1.3-3.9,3.4-5.5l-1.9-1.4c-2.7,1.9-4.3,4.5-4.3,7.3c0,2.1,0.9,4,2.4,5.7l2.6-1.7
				C358.9,55.2,358,53.7,358,52.1z"/>
			<path style="fill:#E6E6E6;" d="M383.2,45.2l-1.9,1.4c2.1,1.5,3.4,3.5,3.4,5.5c0,1.6-0.8,3.1-2.3,4.4l2.6,1.7
				c1.5-1.6,2.4-3.6,2.4-5.7C387.4,49.7,385.8,47.1,383.2,45.2z"/>
			<path style="fill:#E6E6E6;" d="M378.1,59c-2,0.7-4.3,1.1-6.7,1.1c-2.4,0-4.7-0.4-6.7-1.1l-2.9,2.2c2.7,1.3,6,2.1,9.7,2.1
				c3.7,0,7-0.8,9.7-2.1L378.1,59z"/>
		</g>
	</g>
</g>
</svg>
