<?xml version="1.0" encoding="utf-8"?>
<!-- Generator: Adobe Illustrator 27.3.1, SVG Export Plug-In . SVG Version: 6.00 Build 0)  -->
<svg version="1.1" id="Layer_1" xmlns="http://www.w3.org/2000/svg" xmlns:xlink="http://www.w3.org/1999/xlink" x="0px" y="0px"
	 viewBox="0 0 100 100" style="enable-background:new 0 0 100 100;" xml:space="preserve">
<path style="fill:#FFFFFF;" d="M21.6,41.1c0.4,1.4,0.9,2.9,1.6,4.2l22.4,43.2c0.8,1.6,2.5,2.6,4.3,2.6c1.8,0,3.5-1,4.3-2.6
	l22.8-43.2c0.7-1.3,1.3-2.8,1.6-4.2c0.6-2.3,0.8-4.8,0.4-7.2c-2.1-14.1-14.2-25-28.9-25c-14.7,0-26.8,10.9-28.9,25
	C20.8,36.3,21,38.7,21.6,41.1L21.6,41.1z M29.5,43.3h7.7l7,29.6L29.5,43.3z M49.8,73l-5.9-29.7H56L49.8,73z M55.6,72.8l7.2-29.5h7.6
	L55.6,72.8z"/>
</svg>
