<svg id="guns_sights" data-name="guns sights" xmlns="http://www.w3.org/2000/svg" width="128" height="128" viewBox="0 0 128 128">
  <metadata><?xpacket begin="﻿" id="W5M0MpCehiHzreSzNTczkc9d"?>
<x:xmpmeta xmlns:x="adobe:ns:meta/" x:xmptk="Adobe XMP Core 5.6-c138 79.159824, 2016/09/14-01:09:01        ">
   <rdf:RDF xmlns:rdf="http://www.w3.org/1999/02/22-rdf-syntax-ns#">
      <rdf:Description rdf:about=""/>
   </rdf:RDF>
</x:xmpmeta>
                                                                                                    
                                                                                                    
                                                                                                    
                                                                                                    
                                                                                                    
                                                                                                    
                                                                                                    
                                                                                                    
                                                                                                    
                                                                                                    
                                                                                                    
                                                                                                    
                                                                                                    
                                                                                                    
                                                                                                    
                                                                                                    
                                                                                                    
                                                                                                    
                                                                                                    
                                                                                                    
                           
<?xpacket end="w"?></metadata>
<defs>
    <style>
      .cls-1 {
        fill: #e0e0e0;
        fill-rule: evenodd;
      }
    </style>
  </defs>
  <path id="Shape_35_copy" data-name="Shape 35 copy" class="cls-1" d="M109.428,67.108c0.012,0.01.026,0.017,0.038,0.027,0.473,0.1,10.942,38.092-6.55,54.282,0,0-.1.084-0.3,0.226-6.449,4.628-14.436-3.089-10.674-10.079A67.663,67.663,0,0,0,99,69a18.551,18.551,0,0,0,5.7-7.29A10.34,10.34,0,0,1,99.6,63.6a12.3,12.3,0,0,1-9.34,5.4q-0.724.051-1.424,0.051c-11.617,0-18.182-10.617-22.107-16,0,0-.816-2.062-2.449-2.062H63.739c-1.633,0-2.449,2.062-2.449,2.062-3.925,5.379-10.242,16-21.857,16-0.467,0-.94-0.016-1.424-0.051a12.3,12.3,0,0,1-9.34-5.4,10.345,10.345,0,0,1-5.1-1.889A19.432,19.432,0,0,0,29,69a66.909,66.909,0,0,0,7.1,42.564c3.762,6.99-4.27,14.707-10.72,10.079-0.2-.142-0.3-0.226-0.3-0.226-17.425-16.284-7.052-54.234-6.55-54.282C15.988,60.2,12.3,40.023,25.013,22.077,37.528,4.417,60.726,4.967,60.726,4.967h6.389S90.9,4.309,103.26,22.077c12.464,17.913,8.641,38.073,6.479,45.059Zm-47.6-34.139h7.956c0.667-1.472,4.668-4.123,4.668-4.123a55.734,55.734,0,0,0-9.335-.825H63.159a55.734,55.734,0,0,0-9.335.825s4,2.651,4.668,4.123h3.334Zm-36.6,25.265c0.846,0.987,2.7,1.772,5.739,1.772,3.3,0,8-.716,14.288-3.325C57.328,51.674,58.5,42.839,57.912,39.011c-0.459-2.982-3.954-4.733-5.478-5.116-0.433-.109-0.707-0.152-0.707-0.152a46.342,46.342,0,0,0-8.9-.765c-7.407,0-15.7,1.848-17.9,5.444C21.693,43.723,23.46,56.172,25.227,58.234Zm17.6-25.256h0Zm51.528-8.222C84.977,21.68,67.389,21.016,66.645,21H61.628c-0.744.012-18.333,0.677-27.714,3.753-3.856,1.264-6.982,4.367-9.21,9.018A18.507,18.507,0,0,1,30.334,31.4a10.42,10.42,0,0,1,4.682-3.284C44,25.169,61.687,24.987,61.687,24.987h4.9s17.69,0.182,26.672,3.127A10.42,10.42,0,0,1,97.939,31.4a18.5,18.5,0,0,1,5.629,2.376C101.341,29.123,98.215,26.021,94.359,24.756Zm8.853,13.666c-2.2-3.6-10.362-5.444-17.769-5.444a48.947,48.947,0,0,0-9.2.855s-0.274.043-.707,0.152c-1.524.383-4.976,2.044-5.435,5.026-0.589,3.829.841,12.664,12.915,17.67,6.292,2.609,10.858,3.325,14.159,3.325,3.034,0,4.892-.784,5.738-1.772C104.684,56.172,106.451,43.723,103.212,38.422ZM63.258,56.46c0.261-.364.512-0.715,0.753-1.047,0.242,0.333.493,0.684,0.754,1.049a60.935,60.935,0,0,0,6.9,8.576c-1.862-.044-3.662-0.071-5.347-0.071h-4.5c-1.686,0-3.611.026-5.473,0.071A60.934,60.934,0,0,0,63.258,56.46Z"/>
</svg>
