<svg xmlns="http://www.w3.org/2000/svg" width="128" height="128" viewBox="0 0 128 128">
  <defs>
    <style>
      .cls-1 {
        fill: #e0e0e0;
        fill-rule: evenodd;
      }
    </style>
  </defs>
  <path id="Shape_5_copy_2" data-name="Shape 5 copy 2" class="cls-1" d="M119.478,96.01c-1.482.75-40.347,21.2-51.708,23.668a13.306,13.306,0,0,1-3.464.253,13.7,13.7,0,0,1-3.957-.215c-11.386-2.467-50.335-22.931-51.82-23.682S6,91.916,6,91.916C18.062,71.875,16.122,58.86,18.639,54.849s5.056-3.089,5.056-3.089L62.876,71.323a4.161,4.161,0,0,1,1.161.149,4.207,4.207,0,0,1,1.211-.16l39.1-19.552s2.533-.921,5.044,3.087S109.964,71.864,122,91.894C122,91.894,120.96,95.26,119.478,96.01Zm-25.348-18A100.435,100.435,0,0,1,68.2,89.623,45.359,45.359,0,0,1,64.025,94.5a45.468,45.468,0,0,1-4.219-4.877A101.922,101.922,0,0,1,33.622,78.008c0.009-.031-1.2,2.768,1.727,6.11,3.4,1.883,7.526,3.851,7.526,3.851a26.091,26.091,0,0,1-5.164-.508c0.556,1.515,1.977,3.9,5.6,5.913C46.151,93.307,48.625,93,48.625,93a7.157,7.157,0,0,1-1.159,2.109,93.459,93.459,0,0,0,10.671,3.077,7.15,7.15,0,0,0,4.552,2.687v0.078a9.741,9.741,0,0,0,1.335.049,9.933,9.933,0,0,0,1.348-.049v-0.084a7.071,7.071,0,0,0,4.481-2.681,91.775,91.775,0,0,0,10.274-2.969A7.058,7.058,0,0,1,78.875,93s2.669,0.333,5.651.382c3.6-2.015,5.008-4.412,5.557-5.928a26.376,26.376,0,0,1-5.209.515s4.152-1.982,7.563-3.871C95.31,80.764,94.122,77.977,94.13,78.008ZM30.681,46.925S46.168,14.291,50.426,11.793c3.969-2.329,12.328,5.994,13.443,7.134L64,18.732S73.317,8.9,77.575,11.414,97.319,46.785,97.319,46.785L64,67.52Zm34.733,9.618a106.578,106.578,0,0,0,12.341-41.47C73.556,29.179,65.793,43.984,63.563,48.1c-2.23-4.116-9.994-18.921-14.191-33.027a106.577,106.577,0,0,0,12.34,41.47l1.234,0.61v0.61l0.617-.3,0.617,0.3v-0.61Z"/>
</svg>
