<?xml version="1.0" encoding="UTF-8" standalone="no"?>
<svg
   xmlns:x="adobe:ns:meta/"
   xmlns:dc="http://purl.org/dc/elements/1.1/"
   xmlns:cc="http://creativecommons.org/ns#"
   xmlns:rdf="http://www.w3.org/1999/02/22-rdf-syntax-ns#"
   xmlns:svg="http://www.w3.org/2000/svg"
   xmlns="http://www.w3.org/2000/svg"
   xmlns:sodipodi="http://sodipodi.sourceforge.net/DTD/sodipodi-0.dtd"
   xmlns:inkscape="http://www.inkscape.org/namespaces/inkscape"
   id="guns_sights"
   data-name="guns sights"
   width="128"
   height="128"
   viewBox="0 0 128 128"
   version="1.1"
   sodipodi:docname="pistol.svg"
   inkscape:version="0.92.1 r15371">
  <sodipodi:namedview
     pagecolor="#ffffff"
     bordercolor="#666666"
     borderopacity="1"
     objecttolerance="10"
     gridtolerance="10"
     guidetolerance="10"
     inkscape:pageopacity="0"
     inkscape:pageshadow="2"
     inkscape:window-width="2204"
     inkscape:window-height="1529"
     id="namedview11"
     showgrid="true"
     inkscape:zoom="5.2149125"
     inkscape:cx="20.582591"
     inkscape:cy="20.504371"
     inkscape:window-x="0"
     inkscape:window-y="60"
     inkscape:window-maximized="0"
     inkscape:current-layer="guns_sights">
    <inkscape:grid
       type="xygrid"
       id="grid4494" />
  </sodipodi:namedview>
  <metadata
     id="metadata2">
<?xpacket begin="xFF" id="W5M0MpCehiHzreSzNTczkc9d"?>    <x:xmpmeta
       x:xmptk="Adobe XMP Core 5.6-c138 79.159824, 2016/09/14-01:09:01        ">
      <metadata>
        <rdf:RDF>
          <rdf:Description
             rdf:about="" />
          <cc:Work
             rdf:about="">
            <dc:format>image/svg+xml</dc:format>
            <dc:type
               rdf:resource="http://purl.org/dc/dcmitype/StillImage" />
            <dc:title></dc:title>
          </cc:Work>
        </rdf:RDF>
      </metadata>
    </x:xmpmeta>
<?xpacket end="w"?>  </metadata>
  <defs
     id="defs6">
    <style
       id="style4">
      .cls-1 {
        fill: #e0e0e0;
        fill-rule: evenodd;
      }
    </style>
  </defs>
  <path
     style="fill:#e0e0e0;fill-opacity:1;stroke-width:0.28884289"
     d="m 39.261719,28.695313 -2.019531,3.408203 h -7 c -1,4 -1,5 -3,7 -0.597831,0.771935 -0.752797,3.059322 -1,4.355932 -0.247203,1.29661 4,0.644068 4,0.644068 h 70.169492 7.83051 l 3.05187,-2.424534 -0.0519,-10.989528 -5.49609,0.01758 v 1.257812 l -64.503912,0.13867 -0.802734,-3.408203 z M 25.583985,46.595704 c -0.108652,1.096888 -0.19752,1.920768 -0.341797,3.507812 0,0 8.356168,2.361266 5.257812,10.912109 l -7.376953,21.257813 c 0,0 -2.564586,4.80775 -1.28125,13.236328 0.399788,1.93442 1.040067,1.74678 5.041016,2.27539 l 13.732256,1.89463 c 1.627119,-0.92482 0.627119,-3.57627 4.627119,-12.57627 l 4.816406,-14.513672 c 0,0 0.883463,-4.722755 5.390625,-3.84375 0,0 8.503699,3.466658 19.941407,-2.697266 0,0 -2.672423,-14.964843 12.503906,-14.964843 h 16.248048 l 0.86719,-4.488281 z m 33.027344,7.125 1.49414,1.134765 L 60,58 c 0,0 3.204293,7.546307 7.158204,7.671875 0,0 0.857434,-0.756923 0,-1.005859 0,0 -6.519087,-3.400124 -3.845704,-10.945312 h 4.808594 c 0,-10e-7 5.878906,-0.124937 5.878906,6.539062 0,0 0.287762,4.872524 -4.007812,6.392578 -3.519581,1.242475 -7.97489,2.013085 -14.910156,-0.728516 0,10e-7 -2.029559,-1.256577 -2.351563,-3.523437 -0.321069,-2.262457 5.34e-4,-8.679687 5.88086,-8.679687 z"
     id="path2"
     inkscape:connector-curvature="0"
     sodipodi:nodetypes="cccczcccccccccccccccccccccsccccccccccccccc" />
</svg>
