<svg id="guns_sights" data-name="guns sights" xmlns="http://www.w3.org/2000/svg" width="128" height="128" viewBox="0 0 128 128">
  <metadata><?xpacket begin="﻿" id="W5M0MpCehiHzreSzNTczkc9d"?>
<x:xmpmeta xmlns:x="adobe:ns:meta/" x:xmptk="Adobe XMP Core 5.6-c138 79.159824, 2016/09/14-01:09:01        ">
   <rdf:RDF xmlns:rdf="http://www.w3.org/1999/02/22-rdf-syntax-ns#">
      <rdf:Description rdf:about=""/>
   </rdf:RDF>
</x:xmpmeta>
                                                                                                    
                                                                                                    
                                                                                                    
                                                                                                    
                                                                                                    
                                                                                                    
                                                                                                    
                                                                                                    
                                                                                                    
                                                                                                    
                                                                                                    
                                                                                                    
                                                                                                    
                                                                                                    
                                                                                                    
                                                                                                    
                                                                                                    
                                                                                                    
                                                                                                    
                                                                                                    
                           
<?xpacket end="w"?></metadata>
<defs>
    <style>
      .cls-1 {
        fill: #e0e0e0;
        fill-rule: evenodd;
      }
    </style>
  </defs>
  <path class="cls-1" d="M114.014,105.51v3.307a3.17,3.17,0,0,1-3.166,3.173H94.16a3.169,3.169,0,0,1-3.165-3.173V67.165a3.169,3.169,0,0,1,3.165-3.173h4.1C97.409,40.609,84.959,25,64,25S30.434,40.609,29.576,63.992H33.84a3.169,3.169,0,0,1,3.165,3.173v41.652a3.169,3.169,0,0,1-3.165,3.173H17.152a3.169,3.169,0,0,1-3.165-3.173V105.51A12.326,12.326,0,0,1,5.994,93.968V82.557a12.326,12.326,0,0,1,7.993-11.542v-3.85a3.169,3.169,0,0,1,3.165-3.173h2.884C20.78,35.027,37.614,16,64,16s43.22,19.027,43.964,47.992h2.884a3.17,3.17,0,0,1,3.166,3.173v3.85a12.326,12.326,0,0,1,7.992,11.542V93.968A12.326,12.326,0,0,1,114.014,105.51Z"/>
</svg>
