<svg id="rating_player_icon_5" xmlns="http://www.w3.org/2000/svg" width="12" height="12" viewBox="0 0 12 12">
  <path id="Path_1002" data-name="Path 1002" d="M10,1V0H2V1H0V2L1,5c.1.6.4,1,1,1H4.2L5,7H7l.8-1H10c.6,0,.9-.4,1-1l1-3V1ZM2,5,1,2H2.1A6.036,6.036,0,0,0,3.2,4.6l.3.4Zm8,0H8.5l.3-.4A5.035,5.035,0,0,0,9.9,2H11Z" fill="#fff"/>
  <rect id="Rectangle_2815" data-name="Rectangle 2815" width="4" height="1" transform="translate(4 8)" fill="#fff"/>
  <path id="Path_1003" data-name="Path 1003" d="M7,10H5v1L3,12H9L7,11Z" fill="#fff"/>
</svg>
