<svg id="guns_sights" data-name="guns sights" xmlns="http://www.w3.org/2000/svg" xmlns:xlink="http://www.w3.org/1999/xlink" width="128" height="128" viewBox="0 0 128 128">
  <metadata><?xpacket begin="﻿" id="W5M0MpCehiHzreSzNTczkc9d"?>
<x:xmpmeta xmlns:x="adobe:ns:meta/" x:xmptk="Adobe XMP Core 5.6-c138 79.159824, 2016/09/14-01:09:01        ">
   <rdf:RDF xmlns:rdf="http://www.w3.org/1999/02/22-rdf-syntax-ns#">
      <rdf:Description rdf:about=""/>
   </rdf:RDF>
</x:xmpmeta>
                                                                                                    
                                                                                                    
                                                                                                    
                                                                                                    
                                                                                                    
                                                                                                    
                                                                                                    
                                                                                                    
                                                                                                    
                                                                                                    
                                                                                                    
                                                                                                    
                                                                                                    
                                                                                                    
                                                                                                    
                                                                                                    
                                                                                                    
                                                                                                    
                                                                                                    
                                                                                                    
                           
<?xpacket end="w"?></metadata>
<defs>
    <style>
      .cls-1 {
        fill-rule: evenodd;
        fill: url(#linear-gradient);
      }
    </style>
    <linearGradient id="linear-gradient" x1="64" y1="122.031" x2="64" y2="5.813" gradientUnits="userSpaceOnUse">
      <stop offset="0" stop-color="#dfc742"/>
      <stop offset="0.005" stop-color="#dfc742"/>
      <stop offset="0.99" stop-color="#eae25f"/>
      <stop offset="1" stop-color="#eae25f"/>
    </linearGradient>
  </defs>
  <path class="cls-1" d="M64,113.01c4.035,0,6.812-1.727,7.99-4.144V64.007H71.985a20.1,20.1,0,0,0-2.067-8.7V49.8a14.889,14.889,0,0,1-11.835,0v5.5a20.1,20.1,0,0,0-2.067,8.7H56.01v44.859C57.188,111.283,59.966,113.01,64,113.01Zm0-65.992c2.541,0,5.115-.673,5.98-1.949V26.48c0-2.96-2.712-20.67-5.98-20.67s-5.98,17.711-5.98,20.67V45.069C59.01,46.345,61.459,47.018,64,47.018Zm0,69.988c-5.745,0-7.99-2.643-7.99-2.643v3.482h0.033c0.37,2.358,3.376,4.18,7.958,4.18s7.587-1.822,7.958-4.18H71.99v-3.482S69.745,117.006,64,117.006Z"/>
</svg>
