<svg xmlns="http://www.w3.org/2000/svg" width="200" height="200" viewBox="0 0 200 200">
  <metadata><?xpacket begin="﻿" id="W5M0MpCehiHzreSzNTczkc9d"?>
<x:xmpmeta xmlns:x="adobe:ns:meta/" x:xmptk="Adobe XMP Core 5.6-c138 79.159824, 2016/09/14-01:09:01        ">
   <rdf:RDF xmlns:rdf="http://www.w3.org/1999/02/22-rdf-syntax-ns#">
      <rdf:Description rdf:about=""/>
   </rdf:RDF>
</x:xmpmeta>
                                                                                                    
                                                                                                    
                                                                                                    
                                                                                                    
                                                                                                    
                                                                                                    
                                                                                                    
                                                                                                    
                                                                                                    
                                                                                                    
                                                                                                    
                                                                                                    
                                                                                                    
                                                                                                    
                                                                                                    
                                                                                                    
                                                                                                    
                                                                                                    
                                                                                                    
                                                                                                    
                           
<?xpacket end="w"?></metadata>
<defs>
    <style>
      .cls-1 {
        fill: #1e1e1e;
      }

      .cls-1, .cls-2 {
        fill-rule: evenodd;
      }

      .cls-2 {
        fill: #fff;
      }
    </style>
  </defs>
  <path class="cls-1" d="M191.217,70.87L177.66,73.658a5.994,5.994,0,0,1-3.635,2.293l-11.932,2.377c0,0.039-.007.077-0.011,0.115-0.681,6.778-9.5,8.066-12.4,8.489a15.092,15.092,0,0,1-4.15-.009c-0.042.158-.091,0.315-0.146,0.469-0.661,1.851-2.621,6.354-6.529,8.22a12.8,12.8,0,0,1-5.577,1.07c-1.324,0-5.2-.218-7.181-1.211a6.244,6.244,0,0,1-1.1-.694l-1.722,1.961c-0.088.1-.179,0.2-0.274,0.291-0.016.017-.184,0.183-0.472,0.462,7.066,5.806,13.709,11.348,13.788,11.413,0.144,0.121.283,0.248,0.415,0.382a9.483,9.483,0,0,1,1.359,1.729c2.131,2.677,10.489,13.91,5.494,19.377-0.584.641-4.142,4.051-7.023,6.8a5.99,5.99,0,0,1-1.738,1.156l-11.043,4.83-2.7,2.361a6,6,0,0,1-2.739,1.361l-5.929,1.226a6.023,6.023,0,0,1-2.411.005l-2.884-.586a8.105,8.105,0,0,0-.623.8c-0.18.991-.448,3.062-0.681,5.129l0.51,0.849a5.981,5.981,0,0,1,.855,3.116l-0.019,3.132a5.989,5.989,0,0,1-2.35,4.72,7.941,7.941,0,0,1-4.938,1.457,18.77,18.77,0,0,1-3.957-.481c-0.067-.014-0.133-0.03-0.2-0.046a15.564,15.564,0,0,1-9.4-6.8,8.612,8.612,0,0,1-1.174-3.008,29.721,29.721,0,0,1-9.249,2.634,5.993,5.993,0,0,1-.8.053h0a26.577,26.577,0,0,0,.239,3.149c5.24,3.779,5.1,8.482,5.007,9.461a5.991,5.991,0,0,1-2.38,4.23l-2.486,1.856a6.007,6.007,0,0,1-3.593,1.193,5.857,5.857,0,0,1-.686-0.039c-8.493-.977-10.576-2.794-11.36-3.478-2.107-1.841-3.126-4.8-4.437-9.114,0-.014-0.009-0.03-0.014-0.045a6,6,0,0,1-1.563-1.487,17.715,17.715,0,0,1-3-5.886,12.458,12.458,0,0,1-6.529.023q-0.1-.023-0.2-0.048a14.358,14.358,0,0,1-8.656-6.265,7.581,7.581,0,0,1-.882-1.932,27.936,27.936,0,0,1-7.46,1.951H27.072c0.034,0.7.082,1.225,0.131,1.616,3.571,2.712,4.659,6.183,4.413,8.745a5.987,5.987,0,0,1-2.379,4.228l-2.168,1.62a6.008,6.008,0,0,1-3.594,1.193,6.082,6.082,0,0,1-.686-0.039c-7.646-.879-9.593-2.579-10.326-3.218-1.955-1.708-2.882-4.319-4.034-8.088A6,6,0,0,1,7.1,157.4c-1.367-1.877-5.525-7.589-1.177-13.792,1.41-2.01,4.546-4.163,7.189-5.745l0.215-1.376a5.989,5.989,0,0,1,1.858-3.477l13.339-12.294,3.658-11.134c-0.736-.933-1.625-2.691-3.437-7.309a6,6,0,0,1-4.6-3.06c-2.265-4.1-2.288-9.433-2.08-12.373a14.509,14.509,0,0,1-3.682-2.5c-0.091-.091-0.179-0.185-0.264-0.282a14.218,14.218,0,0,1-3.069-7.349,5.978,5.978,0,0,1,.208-2.805C17.8,66.013,25.538,59.337,30.4,55.349c0.813-.667,1.8-1.475,2.247-1.889,2.064-3.186,5.677-5.689,10.492-7.26a43.535,43.535,0,0,1,10.478-1.505c0-4.19,1.362-9.262,6.143-12.312a16.822,16.822,0,0,1,15.762-1.046,12.938,12.938,0,0,1,7.584,10.143,31.263,31.263,0,0,1,.325,4.774c2.3-3.288,6.154-5.895,11.267-7.562,3.773-1.23,9.359-1.6,12.542-1.708l0.085-.079c-0.173-4.7,1.16-10.66,6.624-14.147a18.264,18.264,0,0,1,9.732-2.743c8.243,0,14.694,5.161,15.689,12.549,0.273,2.026.949,7.058-.612,10.866l0.112,2.81a5.987,5.987,0,0,1-2.705,5.249c0.091,0.112.18,0.225,0.269,0.338a6.131,6.131,0,0,1,.447.665c1.5,2.586,1.945,6.951,2.076,9.323l0.109,1.528L178.783,58.6a6,6,0,0,1,4.716-3.084l1.34-.122a6.009,6.009,0,0,1,4.855,1.8,6.152,6.152,0,0,1,3.679,1.205,5.986,5.986,0,0,1,2.337,3.995l0.244,1.822A5.991,5.991,0,0,1,191.217,70.87Z"/>
  <path class="cls-2" d="M53.453,136.393l4.349,0.883,5.172-1.069,2.961-2.592,6.927-3.03,6.651-6.131,1.619-4.93a27.018,27.018,0,0,0-4.215-6.559,3.07,3.07,0,0,0-.562-0.777s-8.17-6.818-15.5-12.806c0.479-1.068.984-2.2,1.461-3.287,1.245-1.139,2.087-1.978,2.087-1.978l5.642-6.427c0.9,1.1,1.879,2.575,2.512,3.425a34.814,34.814,0,0,1-.05-7.857c-3.3-1.694-4.313-2.514-4.95-3.153L67.447,80l-0.1-.115a14.868,14.868,0,0,1-3.495-7.389l-0.188-1.14,0.354-1.1c1.6-4.989,5.406-9.612,9.362-13.475L74,55.626l0.319-1.272h1.114l1.245-.621,0.029-.025L76.55,49.744s1.513-.954.637-7.47-9.312-7.948-14.168-4.848S60,47.678,60,47.678s0,0.179.008,0.471a7.274,7.274,0,0,0-1.679.721c-0.318.32-1.91,1.75-1.91,1.75s-7.482,0-11.382,1.272-6.368,3.179-7.482,5.086S23.728,67.071,20.942,75.733a8.812,8.812,0,0,0,2.069,4.376c1.05,1.053,5.9,3.476,9.619,5.137l-4.422.505s-0.955,6.681,1.194,10.57l3.227-.764c1.17,3.126,3.734,9.845,4.344,10.331,0.131,0.1.871,0.568,2,1.264-0.133.709-.3,1.574-0.474,2.516l-4.73,14.4-14.485,13.35L18.724,141a11.2,11.2,0,0,1-1.807,1.6s-4.935,2.861-6.049,4.45-1.433,3.334,1.114,6.834a1.784,1.784,0,0,1,1.432.8c0.478,0.795,1.751,6.517,3.025,7.63s7.064,1.778,7.064,1.778l2.169-1.62s0.212-2.224-3.183-4.132c-1.309-.735-1.433-5.407-1.433-7.629s2.706-4.764,2.706-4.764l2.546,0.794s5.889-.793,7.482-2.544a54.423,54.423,0,0,1,4.285-3.666,7.856,7.856,0,0,0,.4,1.857s1.006-1.1,1.206.268,0.166,5.805.819,6.765a8.411,8.411,0,0,0,5.076,3.694c2.815,0.607,3.469.108,3.469,0.108l0.017-2.733-1.347-2.242s0.68-6.733,1.09-7.632S51.244,136.7,53.453,136.393Zm10.08-53,1.105-.875c0.632,0.649,2.04,2.084,3.175,3.094A27.161,27.161,0,0,1,64.4,90.8c-0.107-1.533-2.429-3.987-2.429-3.987Zm-16.07,47.769a35.555,35.555,0,0,0,1.326-4.549c1.837-3.4,3.838-7.168,5.424-10.233,3.6,2.167,6.326,3.807,6.326,3.807l0.487,0.122-8.582,5.5-1.711,3.842ZM173.334,68.437L190.034,65l-0.244-1.822-3.284.486-1.095-2.309-1.34.122-0.243,2.552-50.274,6.008L133,62.144s-0.273-4.92-1.278-6.651a16.03,16.03,0,0,0-3.728-3.486l1.812-3.344,0.365-1.458h1.277l1.46-.729-0.182-4.555s1.735-1.094.73-8.564C132.784,28.39,128.286,26,123.71,26a12.218,12.218,0,0,0-6.5,1.8c-5.566,3.554-3.467,11.753-3.467,11.753s0,0.205.009,0.54a8.343,8.343,0,0,0-1.925.827c-0.365.367-2.19,2.006-2.19,2.006s-8.577,0-13.048,1.458-7.3,3.644-8.577,5.831-16.241,11.57-19.434,21.5a10.1,10.1,0,0,0,2.372,5.016c1.2,1.207,7.158,3.985,11.421,5.889l-5.034.58s-1.095,7.659,1.369,12.118l3.664-.876c1.342,3.584,4.281,11.286,4.98,11.844,0.151,0.117,1,.651,2.293,1.449-0.153.813-.34,1.805-0.544,2.885l-5.422,16.507L67.072,142.432l-0.642,4.1a12.841,12.841,0,0,1-2.072,1.838s-5.658,3.28-6.935,5.1S55.78,157.3,58.7,161.31a2.043,2.043,0,0,1,1.642.91c0.548,0.912,2.007,7.472,3.468,8.748s8.1,2.038,8.1,2.038l2.486-1.857s0.243-2.55-3.649-4.737c-1.5-.843-1.642-6.2-1.642-8.746s3.1-5.462,3.1-5.462l2.919,0.911s6.752-.91,8.577-2.916a62.558,62.558,0,0,1,4.912-4.2,9.024,9.024,0,0,0,.462,2.129,1.491,1.491,0,0,1,.829-0.48c0.242,0,.466.186,0.553,0.788,0.229,1.572.191,6.655,0.939,7.755a9.646,9.646,0,0,0,5.82,4.236,13.075,13.075,0,0,0,2.689.344,2.348,2.348,0,0,0,1.287-.222l0.019-3.132-1.544-2.571s0.779-7.719,1.249-8.749,2.794-4.489,5.327-4.836l4.986,1.012,5.929-1.226,3.395-2.972,11.893-5.2s6.167-5.885,6.736-6.507c0.542-.594-1.574-6.9-6.039-11.964a3.536,3.536,0,0,0-.644-0.891s-9.366-7.816-17.774-14.681c0.55-1.224,1.128-2.526,1.675-3.768,1.427-1.305,2.392-2.267,2.392-2.267l6.468-7.368c1.471,1.806,3.146,4.491,3.555,4.695a16.441,16.441,0,0,0,4.491.576,7.385,7.385,0,0,0,2.988-.484c2.1-1,3.468-4.829,3.468-4.829a62.339,62.339,0,0,0-1.186-6.742c-0.049-.087-0.173-0.284-0.349-0.557,2.3,1.21,6.249,3,9.508,3a7.644,7.644,0,0,0,1.1-.076c4.988-.728,7.177-1.943,7.3-3.158,0.068-.678-1.39-2.462-2.686-3.9l19.424-3.87Zm-58.41,54.384-9.838,6.306-1.962,4.405-3.748,1.731a40.777,40.777,0,0,0,1.52-5.215c2.105-3.9,4.4-8.218,6.218-11.731,4.126,2.484,7.252,4.364,7.252,4.364ZM118.8,88.984c-0.123-1.758-2.786-4.57-2.786-4.57L117.8,80.5l1.267-1c0.724,0.744,2.339,2.389,3.639,3.547A31.139,31.139,0,0,1,118.8,88.984Zm33.564-11.741c-0.543.906-2.571,1.811-5.233,1.811a12.418,12.418,0,0,1-2.916-.353,12.918,12.918,0,0,1-4.019-2.118l10.65-2.118h0C151.735,75.284,152.819,76.495,152.362,77.243Z"/>
</svg>
