<svg xmlns="http://www.w3.org/2000/svg" width="200" height="200" viewBox="0 0 200 200">
  <metadata><?xpacket begin="﻿" id="W5M0MpCehiHzreSzNTczkc9d"?>
<x:xmpmeta xmlns:x="adobe:ns:meta/" x:xmptk="Adobe XMP Core 5.6-c138 79.159824, 2016/09/14-01:09:01        ">
   <rdf:RDF xmlns:rdf="http://www.w3.org/1999/02/22-rdf-syntax-ns#">
      <rdf:Description rdf:about=""/>
   </rdf:RDF>
</x:xmpmeta>
                                                                                                    
                                                                                                    
                                                                                                    
                                                                                                    
                                                                                                    
                                                                                                    
                                                                                                    
                                                                                                    
                                                                                                    
                                                                                                    
                                                                                                    
                                                                                                    
                                                                                                    
                                                                                                    
                                                                                                    
                                                                                                    
                                                                                                    
                                                                                                    
                                                                                                    
                                                                                                    
                           
<?xpacket end="w"?></metadata>
<defs>
    <style>
      .cls-1 {
        fill: #1e1e1e;
      }

      .cls-1, .cls-2 {
        fill-rule: evenodd;
      }

      .cls-2 {
        fill: #fff;
      }
    </style>
  </defs>
  <path class="cls-1" d="M176.51,4H22.49a6.489,6.489,0,0,0-6.482,6.482V108.23a6.455,6.455,0,0,0,1.12,3.642l0.822,1.209c0.289,0.426,29.409,43.024,69.24,79.928l1.365,1.265A6.466,6.466,0,0,0,92.961,196h13.078a6.466,6.466,0,0,0,4.4-1.725l1.367-1.267c39.863-36.932,68.952-79.5,69.242-79.929l0.819-1.206a6.454,6.454,0,0,0,1.122-3.644V10.481A6.489,6.489,0,0,0,176.51,4h0Z"/>
  <path class="cls-2" d="M22.491,10a0.482,0.482,0,0,0-.482.482V108.23a0.484,0.484,0,0,0,.083.271l0.821,1.207c0.285,0.419,28.854,42.3,68.356,78.9l1.365,1.265a0.484,0.484,0,0,0,.328.128h13.078a0.483,0.483,0,0,0,.327-0.128l1.366-1.265c39.5-36.6,68.071-78.481,68.356-78.9l0.82-1.207a0.479,0.479,0,0,0,.084-0.271V10.481A0.482,0.482,0,0,0,176.51,10H22.491Zm144.427,95.723c-5.218,7.428-30.938,42.549-64.658,74.16a0.487,0.487,0,0,1-.332.131H97.073a0.486,0.486,0,0,1-.332-0.131c-33.723-31.613-59.443-66.735-64.658-74.16A0.468,0.468,0,0,1,32,105.449V20.469a0.482,0.482,0,0,1,.482-0.482H166.521a0.482,0.482,0,0,1,.482.482v84.98A0.467,0.467,0,0,1,166.918,105.722ZM129.346,67.3h0l-6.131,1.23a0.485,0.485,0,0,0-.161.887,8.8,8.8,0,0,0,1.742.785c0.02,0.007.042,0.013,0.063,0.018,2.725,0.654,5.027-.178,5.522-1.01C130.692,68.69,129.953,67.858,129.346,67.3ZM99.2,97.61c-1.2,2.3-2.53,5.339-3.868,7.839a0.452,0.452,0,0,0-.043.117q-0.276,1.251-.664,2.47a0.479,0.479,0,0,0,.658.581l1.375-.641a0.48,0.48,0,0,0,.237-0.242L98.1,105a0.482,0.482,0,0,1,.179-0.21l6.584-4.257-0.38-.1s-2-1.446-4.606-3.015A0.479,0.479,0,0,0,99.2,97.61Zm8.147-26.585-0.434.347a0.483,0.483,0,0,0-.138.178l-1.039,2.3a0.482,0.482,0,0,0,.075.518,10.079,10.079,0,0,1,1.455,2.1,0.474,0.474,0,0,0,.806.092A21.407,21.407,0,0,0,110,73.526a0.489,0.489,0,0,0-.1-0.586c-0.671-.622-1.411-1.371-1.9-1.877A0.477,0.477,0,0,0,107.349,71.024Zm-5.082-45.038H38.48a0.482,0.482,0,0,0-.482.482v77.524a0.472,0.472,0,0,0,.087.277,529.4,529.4,0,0,0,60.934,69.713h0.964a528.339,528.339,0,0,0,60.9-69.713,0.468,0.468,0,0,0,.088-0.277L161,26.468a0.482,0.482,0,0,0-.482-0.482H102.267ZM144.6,63.435l-0.154.556a0.481,0.481,0,0,1-.368.345l-12.137,2.439a0.484,0.484,0,0,0-.27.787,4.924,4.924,0,0,1,1.288,2.058c-0.083.835-1.575,1.671-4.974,2.171-2.333.344-5.485-1.081-7.234-2.01,0.121,0.188.2,0.324,0.238,0.383,0.344,1.489.859,3.558,1.044,5.076a0.485,0.485,0,0,1-.028.236c-0.2.513-1.069,2.6-2.321,3.2-1.43.689-4.725,0.125-5.1-.063-0.246-.124-1.411-2.133-2.31-3.324a0.479,0.479,0,0,0-.745-0.027l-4.016,4.614-0.02.023c-0.084.084-.683,0.681-1.546,1.479a0.5,0.5,0,0,0-.115.161c-0.312.713-.637,1.453-0.953,2.165a0.48,0.48,0,0,0,.134.567c5.656,4.661,11.831,9.859,11.831,9.859a2.419,2.419,0,0,1,.439.613c3.044,3.481,4.486,7.816,4.116,8.224s-4.01,3.914-4.529,4.414a0.477,0.477,0,0,1-.139.093l-7.96,3.512a0.462,0.462,0,0,0-.124.08l-2.163,1.909a0.484,0.484,0,0,1-.219.11l-3.821.8a0.482,0.482,0,0,1-.193,0l-3.205-.656a0.5,0.5,0,0,0-.192,0c-1.689.311-3.22,2.614-3.535,3.309-0.287.635-.244,5.375-0.335,6.263a0.479,0.479,0,0,0,.066.3l0.9,1.513a0.487,0.487,0,0,1,.068.252l-0.01,1.663A0.48,0.48,0,0,1,95.6,127a6.771,6.771,0,0,1-2.3-.207,6.575,6.575,0,0,1-3.966-2.912c-0.51-.756-0.984-4.657-1.14-5.737-0.077-.535-0.309-0.592-0.523-0.513a0.475,0.475,0,0,1-.607-0.361l0-.014a0.477,0.477,0,0,0-.764-0.28q-1.4,1.133-2.707,2.382c-1.131,1.255-5.038,1.885-5.738,1.99a0.474,0.474,0,0,1-.212-0.018l-1.608-.506a0.473,0.473,0,0,0-.486.124c-0.534.559-1.906,2.133-1.906,3.544,0,1.751-.091,5.433.932,6.012,1.991,1.128,2.394,2.4,2.472,2.96a0.482,0.482,0,0,1-.189.451l-1.335,1.006a0.474,0.474,0,0,1-.346.093c-0.872-.111-4.268-0.61-5.14-1.378-1-.877-1.99-5.386-2.363-6.013a1.4,1.4,0,0,0-.9-0.6,0.535,0.535,0,0,1-.345-0.205c-1.849-2.638-1.592-3.98-.741-5.2,0.831-1.195,4.38-3.3,4.7-3.494l0.048-.031a8.786,8.786,0,0,0,1.284-1.133,0.5,0.5,0,0,0,.127-0.266l0.388-2.5a0.482,0.482,0,0,1,.149-0.28l11.1-10.323a0.484,0.484,0,0,0,.13-0.2l3.647-11.2a0.5,0.5,0,0,0,.016-0.062c0.111-.593.215-1.147,0.3-1.629a0.48,0.48,0,0,0-.22-0.5c-0.724-.452-1.191-0.75-1.283-0.822-0.452-.364-2.279-5.15-3.246-7.743a0.479,0.479,0,0,0-.561-0.3l-1.838.413a0.477,0.477,0,0,1-.545-0.252c-1.209-2.578-.932-6.4-0.8-7.607a0.478,0.478,0,0,1,.422-0.425l1.332-.155c0.482-.056.713-0.714,0.272-0.918-2.6-1.2-5.79-2.61-6.511-3.306-0.018-.017-0.032-0.033-0.048-0.052a6.969,6.969,0,0,1-1.569-3.286,0.527,0.527,0,0,1,.018-0.262c2.262-6.78,12.665-13.159,13.53-14.653s2.8-3.006,5.846-4.008c2.73-.9,7.707-0.992,8.713-1a0.469,0.469,0,0,0,.314-0.123c0.307-.279,1.055-0.96,1.313-1.212a0.51,0.51,0,0,1,.1-0.08,7.467,7.467,0,0,1,1.471-.534c-0.007-.23-0.006-0.371-0.006-0.371s-1.43-5.637,2.363-8.08,10.385-1.315,11.07,3.821c0.548,4.108-.318,5.411-0.6,5.768a0.485,0.485,0,0,0-.11.317l0.1,2.622a0.483,0.483,0,0,1-.265.452l-0.616.311a0.478,0.478,0,0,1-.215.051h-0.382a0.48,0.48,0,0,0-.466.366l-0.143.577a0.5,0.5,0,0,1-.044.113l-0.943,1.872a0.483,0.483,0,0,0,.145.618,10.664,10.664,0,0,1,2.1,2.11,0.716,0.716,0,0,1,.057.087c0.665,1.227.846,4.528,0.846,4.528l0.345,4.732a0.48,0.48,0,0,0,.536.446l33.379-3.836a0.481,0.481,0,0,0,.421-0.434l0.092-.967a0.48,0.48,0,0,1,.434-0.435l0.183-.017a0.479,0.479,0,0,1,.477.274l0.451,0.958a0.478,0.478,0,0,0,.5.271l1.405-.21a0.48,0.48,0,0,1,.546.414L156,60.342a0.483,0.483,0,0,1-.379.537l-10.657,2.211A0.481,0.481,0,0,0,144.6,63.435Z"/>
</svg>
