<svg xmlns="http://www.w3.org/2000/svg" width="200" height="200" viewBox="0 0 200 200">
  <metadata><?xpacket begin="﻿" id="W5M0MpCehiHzreSzNTczkc9d"?>
<x:xmpmeta xmlns:x="adobe:ns:meta/" x:xmptk="Adobe XMP Core 5.6-c138 79.159824, 2016/09/14-01:09:01        ">
   <rdf:RDF xmlns:rdf="http://www.w3.org/1999/02/22-rdf-syntax-ns#">
      <rdf:Description rdf:about=""/>
   </rdf:RDF>
</x:xmpmeta>
                                                                                                    
                                                                                                    
                                                                                                    
                                                                                                    
                                                                                                    
                                                                                                    
                                                                                                    
                                                                                                    
                                                                                                    
                                                                                                    
                                                                                                    
                                                                                                    
                                                                                                    
                                                                                                    
                                                                                                    
                                                                                                    
                                                                                                    
                                                                                                    
                                                                                                    
                                                                                                    
                           
<?xpacket end="w"?></metadata>
<defs>
    <style>
      .cls-1 {
        fill: #1e1e1e;
      }

      .cls-1, .cls-2 {
        fill-rule: evenodd;
      }

      .cls-2 {
        fill: #fff;
      }
    </style>
  </defs>
  <path class="cls-1" d="M57.327,178.018A22.142,22.142,0,0,1,46.2,175.313c-2.606-1.462-6.029-3.576-7.91-4.752-5.66-.411-11.358-2.792-12.089-8.47-0.464-3.6,1.43-9.8,3-14.144-0.448-1.516-1.095-3.759-1.753-6.218-6.047-1.881-9.409-4.026-11-6.932-2.215-4.059-2.831-9.414-3-12.258a10.634,10.634,0,0,1-1.232-5.04c0-2.137.636-7.071,0.831-8.532a6,6,0,0,1,2.325-3.99c-2.772-1.311-3.132-1.527-3.381-1.675-0.111-.068-9.451-6.438-7.8-13.028a39.961,39.961,0,0,1,2.375-5.733,6.721,6.721,0,0,1-2.4-4.893,7.407,7.407,0,0,1,1.039-4.032A6,6,0,0,1,5.314,72.1c4.08-11.991,7.058-13.521,9.758-14.059,0.392-.081,2.019-0.53,5.677-1.679,5.288-12.207,10.439-13.14,12.21-13.46a19.412,19.412,0,0,1,9.625,1.244l0.546-.389q0.178-.128.364-0.24c0.115-4.14.913-10.937,4.5-14.9,5.2-5.745,18.338-9.776,27.981-3.356A18.7,18.7,0,0,1,84.4,38.82a5.981,5.981,0,0,1,4.36.716l0.761,0.456,11.852,1.045,4.5,1.958h8.2l4.132,1.98,56.939,1.744A6.163,6.163,0,0,1,180.62,43h2.724a6.16,6.16,0,0,1,5.668,4.2l1.97,0.325A6,6,0,0,1,196,53.449v2.527a6,6,0,0,1-6,6h-0.012l-25.763-.009L158.7,64.426,138.775,66.2a7.475,7.475,0,0,1-3.943,4.222,8.956,8.956,0,0,1-6.338,0,35.129,35.129,0,0,1-7.143.608l-0.146-.006-0.2.389a22.893,22.893,0,0,0,2.164,3.861,6,6,0,0,1-.038,6.24c-0.8,1.3-2.524,3.479-3.539,4.8-0.132.337-.323,0.875-0.471,1.3-0.431,1.213-.914,2.577-1.537,3.91,4.139,3.232,9.091,10.724.6,26.254-10.239,22.653-13.051,24.715-14.564,25.824-0.546.409-1.088,0.753-4.773,2.4a9.86,9.86,0,0,0-.1,1.269l0.18,0.08a51.325,51.325,0,0,0,5.5,1.646,10.925,10.925,0,0,0,1.5.055c1.955,0,5.594-.015,8.106,3.117,0.98,1.221,3.791,5.546,2.747,9.927a7.13,7.13,0,0,1-4,4.876c-3.852,1.753-16.067,2.114-17.926,2.019-2.176-.088-4.327-1.026-6.416-1.621a37.352,37.352,0,0,1-5.261.611C83.081,168,82.972,168,82.862,168a39.728,39.728,0,0,1-9.232-.818c-0.083-.017-0.164-0.037-0.245-0.058a47.583,47.583,0,0,1-4.429,7.239,6,6,0,0,1-2.322,1.88A22.118,22.118,0,0,1,57.327,178.018Z"/>
  <path class="cls-2" d="M162.661,55.962l-4.49,2.528-23.827,2.128c-0.466,1.73-1.22,4.114-1.893,4.405-1.07.462-3.4-.851-4.012-0.6a28.948,28.948,0,0,1-6.929.655,8.816,8.816,0,0,0-4.413.863l-2.527,4.911a28.292,28.292,0,0,0,3.456,7.557s-2.593,3.644-3.42,4.584-1.895,6.057-3.792,8.225a23.791,23.791,0,0,1-3.725,3,12.236,12.236,0,0,1,6.508,1.86c5.8,4.14,2.722,12.717-.78,19.062-3.453,7.649-10.044,21.692-12.741,23.67-0.439.327-3.371,1.637-6.25,2.9a15.765,15.765,0,0,0-1,7.2c0.146,2.9,2.772,3.511,3.817,4.034a56.869,56.869,0,0,0,6.541,1.964c2.512,0.511,5.056-.352,6.186,1.058s2.573,4.811.865,5.589-10.927,1.692-15.086,1.417c-2.2-.085-4.381-1.035-6.456-1.782a31.225,31.225,0,0,1-5.907.784,34.328,34.328,0,0,1-7.863-.614c-0.644-2.528-.328-9.72.778-10.63s6.388-9.436,9.14-15.04L83.9,134.332a33.04,33.04,0,0,1,3.112-9.256c-0.48.319-1.07,0.726-1.823,1.278-6.112,4.468-12.156,5.661-13.385,7.752s-2.188,9.973-2.188,9.973,0.724,6.549.785,8.349a23.42,23.42,0,0,1-2.13,11.537,38.643,38.643,0,0,1-4.133,6.552,16.39,16.39,0,0,1-14.96-.681c-3.653-2.05-9.057-5.167-9.057-5.167s-7.548,0-7.974-3.3S35.528,148.2,35.528,148.2s-1.763-5.716-3.13-11.263c-4.709-1.21-9.551-2.906-10.678-4.97-2.334-4.276-2.334-11.275-2.334-11.275a4.649,4.649,0,0,1-1.166-3.11c0-1.945.778-7.777,0.778-7.777l7.353-.587c-0.242-1.079-.388-1.718-0.388-1.718a21.931,21.931,0,0,1-1.9-5.04c-3.643-1.688-8.4-3.911-9-4.265-0.973-.584-5.446-4.861-5.057-6.416s4.084-8.94,4.084-8.94a31.664,31.664,0,0,0-3.5-2.722c-1.556-.971,1.556-3.3,1.556-3.3l-1.158-2.731s3.307-9.719,5.252-10.108c1.379-.277,6.266-1.819,9-2.695,2.048-5.353,5.384-11.809,8.783-12.424,3.817-.693,9.286,2.187,9.286,2.187l3.3-2.349,0.043,0.121,2.362-2.169s-0.123-10.1,3.425-14.014S65.93,25.7,72.719,30.283c4.17,2.576,6.92,7.388,6.191,12.232a35.356,35.356,0,0,1-1.175,3.473,2.723,2.723,0,0,1-.554.7L77.221,46.9l0.093-.043,3.5,1.166,0.2,1.943,2.722-1.555-0.193-1.166,2.139-2.526,1.944,1.166,13.226,1.166,2.722,1.956h10.5l2.332,1.954,63.438,1.943,0.777-3.693h2.724l0.778,3.3L190,53.49v2.528ZM68.95,91.4l3.209,12.331a150.342,150.342,0,0,1,15.725-6.057A64.443,64.443,0,0,1,70.619,87.5Zm31.318-28.785s-7.391-.195-9.725-0.39-1.751-1.75-1.751-1.75l-2.528-1.943-0.973.972L81.4,62.229a21.633,21.633,0,0,1-3.7,0,41.944,41.944,0,0,1-5.057-1.555l-0.616.616L80.818,66.5a23.647,23.647,0,0,1,2.724,5.054c0,0.512,2.593,2.968,5.047,5.178a46.96,46.96,0,0,0,7.984-8.871,34.71,34.71,0,0,1,3.7-3.7V62.618Zm0,8.747V70.8c-3.089,2.911-7.427,6.968-9.009,8.308,0.955,0.835,1.614,1.4,1.614,1.4s0.778,0,2.723-2.138a84.078,84.078,0,0,1,9.725-7.192l0.444-.722Z"/>
</svg>
