<svg xmlns="http://www.w3.org/2000/svg" width="200" height="200" viewBox="0 0 200 200">
  <metadata><?xpacket begin="﻿" id="W5M0MpCehiHzreSzNTczkc9d"?>
<x:xmpmeta xmlns:x="adobe:ns:meta/" x:xmptk="Adobe XMP Core 5.6-c138 79.159824, 2016/09/14-01:09:01        ">
   <rdf:RDF xmlns:rdf="http://www.w3.org/1999/02/22-rdf-syntax-ns#">
      <rdf:Description rdf:about=""/>
   </rdf:RDF>
</x:xmpmeta>
                                                                                                    
                                                                                                    
                                                                                                    
                                                                                                    
                                                                                                    
                                                                                                    
                                                                                                    
                                                                                                    
                                                                                                    
                                                                                                    
                                                                                                    
                                                                                                    
                                                                                                    
                                                                                                    
                                                                                                    
                                                                                                    
                                                                                                    
                                                                                                    
                                                                                                    
                                                                                                    
                           
<?xpacket end="w"?></metadata>
<defs>
    <style>
      .cls-1 {
        fill: #1e1e1e;
      }

      .cls-1, .cls-2 {
        fill-rule: evenodd;
      }

      .cls-2 {
        fill: #fff;
      }
    </style>
  </defs>
  <path class="cls-1" d="M102.53,180.025a16.924,16.924,0,0,1-8.359-2.277c-1.556-.873-3.491-2.074-4.769-2.882-5.284-.515-8.794-3.222-9.324-7.321-0.272-2.11.316-5.317,1.748-9.55-0.2-.7-0.447-1.549-0.7-2.476-3.92-1.349-6.143-2.945-7.371-5.192q-0.242-.442-0.458-0.919a83.377,83.377,0,0,1-9.268,1.9V162.97a6,6,0,0,1-6,6h-11a6,6,0,0,1-6-6V151.308a85.046,85.046,0,0,1-30.341-10.559,6,6,0,0,1,1.2-10.884c5.162-1.662,8.826-5.9,11.234-9.834a28.543,28.543,0,0,1-7.253-2.49,6,6,0,0,1-.106-10.551c4.978-2.761,9.986-8.6,13.85-14.035-2.151-.133-3.646-0.353-3.734-0.367a6,6,0,0,1-1.791-11.3C27.262,79.7,31.019,74.41,34.016,69c-1.776-.389-3.047-0.8-3.3-0.885a6,6,0,0,1-1.078-10.905c8.492-4.843,14.923-23.725,16.506-29.73A6,6,0,0,1,51.946,23h1.049a6,6,0,0,1,5.8,4.471C61.172,36.431,67.756,52.9,75.3,57.206a6,6,0,0,1-1.078,10.905c-0.252.084-1.52,0.5-3.293,0.884,3,5.418,6.76,10.712,9.922,12.291a6,6,0,0,1,3.281,6.055,8.276,8.276,0,0,1,1.943-.606,13.111,13.111,0,0,1,5.4.293c0.294-2.908,1.145-6.444,3.376-8.905,4.443-4.9,14.17-7.136,21.087-2.558a14.057,14.057,0,0,1,6.159,8.471,6.031,6.031,0,0,1,1.6.537l0.908,0.454,7.025,0.439a6,6,0,0,1,3.5,1.405l0.081,0.068h4.8a6,6,0,0,1,2.684.634l0.8,0.4,36.423,1.039a5.51,5.51,0,0,1,4.093-2.041h1.657a5.973,5.973,0,0,1,5.216,3l0.583,0.145a6,6,0,0,1,4.544,5.821v1a6,6,0,0,1-6,6H173.842l-4.259,1.974-11.976,1.118a6.632,6.632,0,0,1-3.087,2.779,7.668,7.668,0,0,1-5.111.22c-0.585.094-.861,0.167-1.451,0.219a6.041,6.041,0,0,1-.47,6.04c-0.823,1.332-1.507,2.367-2.044,3.093a1.774,1.774,0,0,0-.344,1.9c2.637,2.765,5.159,8.494-.557,18.763-6.676,14.74-8.764,16.668-10.077,17.646h0.071c1.393,0.01,4.656.032,6.91,2.839,0.793,0.986,3.311,4.5,2.407,8.3a6.734,6.734,0,0,1-3.785,4.6c-2.687,1.222-10.262,1.674-12.875,1.523a14.945,14.945,0,0,1-3.936-.762,12.358,12.358,0,0,1-3.515.819c-0.162.01-.325,0.014-0.484,0.015a16.888,16.888,0,0,1-5.048-.913l-0.136-.041a27.52,27.52,0,0,1-2.232,3.5,6.017,6.017,0,0,1-2.322,1.878A16.912,16.912,0,0,1,102.53,180.025Z"/>
  <path class="cls-2" d="M172,97l-3,2-14.868,1.122a7.841,7.841,0,0,1-2.021,3.243c-0.707.3-2.248-.562-2.649-0.393a19.171,19.171,0,0,1-4.576.432,5.83,5.83,0,0,0-2.914.569l-1.669,3.239a18.053,18.053,0,0,0,2.055,4.983s-1.485,2.4-2.031,3.023-1.251,3.995-2.5,5.424a15.609,15.609,0,0,1-2.46,1.978,8.079,8.079,0,0,1,4.3,1.227c3.829,2.73,1.8,8.386-.515,12.571-2.28,5.044-6.633,14.305-8.413,15.61-0.29.216-2.226,1.079-4.128,1.913a10.388,10.388,0,0,0-.662,4.75c0.1,1.915,1.83,2.316,2.521,2.66a35.575,35.575,0,0,0,4.194,1.265c1.659,0.337,3.339-.2,4.085.728s1.947,3.173.819,3.686-7.339,1.113-10.085.931a14.666,14.666,0,0,1-4.263-1.14c-1.276.337-2.583,1.114-3.9,1.2-1.745.023-3.394-.749-5.1-1.123-0.425-1.667-.217-6.41.513-7.01s4.125-6.223,5.942-9.919l-0.619-.9a21.751,21.751,0,0,1,2.055-6.105c-0.317.211-.707,0.48-1.2,0.844-4.036,2.946-8.027,3.733-8.838,5.112s-1.6,6.577-1.6,6.577,0.478,4.318.518,5.506a15.412,15.412,0,0,1-1.406,7.608A25.522,25.522,0,0,1,107,173.048a10.83,10.83,0,0,1-9.878-.449c-2.412-1.351-5.855-3.582-5.855-3.582s-4.984,0-5.266-2.179,2.106-8.622,2.106-8.622-1.164-3.77-2.067-7.428c-3.11-.8-6.307-1.916-7.051-3.278a9.96,9.96,0,0,1-.8-2.016,80.284,80.284,0,0,0,14.82-6.764,3.588,3.588,0,0,0-.721-6.511C84.933,129.849,80.416,122.914,78,118a27.142,27.142,0,0,0,9.927-2.529,3.587,3.587,0,0,0,.064-6.312,36.632,36.632,0,0,1-8.936-7.55c0.822-.256,1.632-0.513,2.265-0.716,1.352-3.53,3.555-7.412,5.8-7.818,2.52-.457,6.132,1.067,6.132,1.067l3.761-2.9s-0.077-6.6,2.266-9.182,8.907-4.568,13.39-1.546a8.066,8.066,0,0,1,3.745,8.067c-0.123.615-.433,2.23-0.433,2.23a0.313,0.313,0,0,1-.365.463l0.026,0.64,2.328,0.116,0.173,1.406L120,92.412l-0.034-.769L121,90l2,1,7.93,0.015L133,93h7l2,1,42,1V93h1.656L186,95l4,1v1H172Zm-61.821,23.762,2.119,8.132a99.356,99.356,0,0,1,10.384-4,42.544,42.544,0,0,1-11.4-6.71Zm20.837-18.733s-5.037-.129-6.578-0.257-1.157-1.154-1.157-1.154l-1.669-1.532-0.642.641-2.568,1.794a14.407,14.407,0,0,1-2.44,0,27.743,27.743,0,0,1-3.339-1.026l-0.407.406,5.8,3.44a15.592,15.592,0,0,1,1.8,3.333c0,0.338,1.712,1.957,3.332,3.415a30.989,30.989,0,0,0,5.272-5.851,24.48,24.48,0,0,1,2.6-2.44v-0.77Zm-0.157,5.518v-0.375c-2.04,1.919-4.9,4.595-5.949,5.479,0.631,0.55,1.066.921,1.066,0.921s0.514,0,1.8-1.41a55.515,55.515,0,0,1,6.422-4.743l0.293-.476Zm-67.1-21.73S74.1,105.566,86.244,112.3a19.457,19.457,0,0,1-9.105,2.694,12.9,12.9,0,0,1-4.834-1.348s4.946,17.5,18.886,21.992A78.149,78.149,0,0,1,58,146v17H47V146a78.753,78.753,0,0,1-33.3-10.364c13.939-4.488,18.886-21.992,18.886-21.992a12.9,12.9,0,0,1-4.834,1.348,19.457,19.457,0,0,1-9.106-2.694c12.141-6.732,22.483-26.481,22.483-26.481C38.676,86.838,35.48,87,32.723,87c-3.308,0-5.984-.28-5.984-0.28,8.993-4.488,16.637-23.339,16.637-23.339a10.006,10.006,0,0,1-3.117.611,25.422,25.422,0,0,1-7.675-1.509C45.175,55.3,51.92,29,51.92,29H52.67l0.3-.031S59.714,55.3,72.3,62.479a25.418,25.418,0,0,1-7.675,1.509,10.006,10.006,0,0,1-3.117-.611s7.644,18.85,16.637,23.339c0,0-2.676.28-5.984,0.28C69.41,87,66.214,86.837,63.761,85.817Z"/>
</svg>
