<svg xmlns="http://www.w3.org/2000/svg" width="200" height="200" viewBox="0 0 200 200">
  <metadata><?xpacket begin="﻿" id="W5M0MpCehiHzreSzNTczkc9d"?>
<x:xmpmeta xmlns:x="adobe:ns:meta/" x:xmptk="Adobe XMP Core 5.6-c138 79.159824, 2016/09/14-01:09:01        ">
   <rdf:RDF xmlns:rdf="http://www.w3.org/1999/02/22-rdf-syntax-ns#">
      <rdf:Description rdf:about=""/>
   </rdf:RDF>
</x:xmpmeta>
                                                                                                    
                                                                                                    
                                                                                                    
                                                                                                    
                                                                                                    
                                                                                                    
                                                                                                    
                                                                                                    
                                                                                                    
                                                                                                    
                                                                                                    
                                                                                                    
                                                                                                    
                                                                                                    
                                                                                                    
                                                                                                    
                                                                                                    
                                                                                                    
                                                                                                    
                                                                                                    
                           
<?xpacket end="w"?></metadata>
<defs>
    <style>
      .cls-1 {
        fill: #1e1e1e;
      }

      .cls-1, .cls-2 {
        fill-rule: evenodd;
      }

      .cls-2 {
        fill: #fff;
      }
    </style>
  </defs>
  <path class="cls-1" d="M152,127.98h-4c0,0.013,0,.024,0,0.037v61.977a6,6,0,0,1-6,6H58.027a6,6,0,0,1-6-6V128.017c0-.013,0-0.024,0-0.037H48a6,6,0,0,1-6-6V91a6,6,0,0,1,6-6H89.026V14.269c0-6.048,6.057-10.263,11.494-10.263a10.419,10.419,0,0,1,10.455,9.382l41.381,17.562a6,6,0,0,1-.169,11.115L111.012,58.076V85H152a6,6,0,0,1,6,6v30.984A6,6,0,0,1,152,127.98Z"/>
  <path class="cls-2" d="M47.979,121.981V91H67v12H77.011V91H94.989v12H105V91h18.025v12h10.007V91h18.944v30.983H47.979ZM104.988,85H95V14.269c0-2.354,3.012-4.263,5.494-4.263a4.383,4.383,0,0,1,4.493,4.263v3.107l45,19.1-45,17.5V85Zm36.986,105H58V128.016h83.972v61.978ZM88.988,145.41a7,7,0,1,0-14,0v26.61h14V145.41Z"/>
</svg>
