<svg xmlns="http://www.w3.org/2000/svg" width="200" height="200" viewBox="0 0 200 200">
  <metadata><?xpacket begin="﻿" id="W5M0MpCehiHzreSzNTczkc9d"?>
<x:xmpmeta xmlns:x="adobe:ns:meta/" x:xmptk="Adobe XMP Core 5.6-c138 79.159824, 2016/09/14-01:09:01        ">
   <rdf:RDF xmlns:rdf="http://www.w3.org/1999/02/22-rdf-syntax-ns#">
      <rdf:Description rdf:about=""/>
   </rdf:RDF>
</x:xmpmeta>
                                                                                                    
                                                                                                    
                                                                                                    
                                                                                                    
                                                                                                    
                                                                                                    
                                                                                                    
                                                                                                    
                                                                                                    
                                                                                                    
                                                                                                    
                                                                                                    
                                                                                                    
                                                                                                    
                                                                                                    
                                                                                                    
                                                                                                    
                                                                                                    
                                                                                                    
                                                                                                    
                           
<?xpacket end="w"?></metadata>
<defs>
    <style>
      .cls-1 {
        fill: #1e1e1e;
      }

      .cls-1, .cls-2 {
        fill-rule: evenodd;
      }

      .cls-2 {
        fill: #fff;
      }
    </style>
  </defs>
  <path class="cls-1" d="M100.008,4A12.046,12.046,0,0,0,88,16.06V110.6q-5.09.514-10,1.466L78,103a6,6,0,0,0-8.991-5.2l-5.653,3.25C57.628,92.678,46.092,79.39,29.55,77.232a33.573,33.573,0,0,0-4.326-.278c-12.487,0-22.288,6.864-22.7,7.156A6.244,6.244,0,0,0,.488,92.1a5.88,5.88,0,0,0,5.056,3.116A5.575,5.575,0,0,0,7.7,94.775a5.152,5.152,0,0,1,.551-0.026c2.046,0,12.4,1.145,27.341,22.269L29.01,120.8a6,6,0,0,0,.634,10.72l6.284,2.683A30.1,30.1,0,0,0,29.015,153c0,24.113,31.187,43,71,43s71-18.889,71-43a30.109,30.109,0,0,0-6.943-18.834l6.284-2.68a6,6,0,0,0,.634-10.722l-6.567-3.77C179.355,95.912,189.71,94.77,191.755,94.77a5.164,5.164,0,0,1,.555.027,5.585,5.585,0,0,0,2.146.436,5.878,5.878,0,0,0,5.059-3.122,6.242,6.242,0,0,0-2.042-7.983c-0.411-.292-10.21-7.144-22.7-7.144a33.59,33.59,0,0,0-4.325.278c-16.541,2.155-28.078,15.424-33.807,23.782L130.988,97.8A6,6,0,0,0,122,103l0,9.061q-4.9-.947-9.989-1.462V79.53l62.878-26.838a6,6,0,0,0,.024-11.026L111.907,14.448A12.042,12.042,0,0,0,100.008,4h0Zm0,156.01a12.046,12.046,0,0,0,12.006-12.058V125.659a96.31,96.31,0,0,1,9.992,1.636l0,15.721a6,6,0,0,0,8.353,5.518l18.82-8.024c2.069,2.289,3.83,5.2,3.83,8.493,0,11.352-21.765,24-53,24s-53-12.649-53-24c0-3.269,1.742-6.169,3.792-8.448l18.83,8.04a6,6,0,0,0,8.356-5.516L78,127.3A96.784,96.784,0,0,1,88,125.66v22.293a12.046,12.046,0,0,0,12.006,12.058h0Z"/>
  <path class="cls-2" d="M138.66,109.12c3.2-5.663,14.656-23.574,32.567-25.908C183.551,81.607,194,89.022,194,89.022s-15.634-5.037-38.159,29.962L168,125.964l-14.365,6.125c7.174,5.947,11.377,13.147,11.377,20.908,0,20.436-29.1,37-65,37s-65-16.566-65-37c0-7.745,4.187-14.93,11.333-20.871L32,126l12.159-6.991C21.634,83.955,6,89,6,89s10.449-7.426,22.773-5.818c17.911,2.337,29.365,20.277,32.568,25.948L72,103l0,16.616a104.859,104.859,0,0,1,22-3.458V16.06a6.006,6.006,0,1,1,12.012,0v2.378l66.523,28.736L106.013,75.568v40.59A104.879,104.879,0,0,1,128,119.609L128,103Zm-32.647,10.036v28.8a6.006,6.006,0,1,1-12.012,0v-28.8A103.487,103.487,0,0,0,72,122.6l0,20.474-22.466-9.593c-5.4,4.529-8.512,9.838-8.512,15.519,0,16.569,26.415,30,59,30s59-13.432,59-30c0-5.7-3.133-11.021-8.557-15.558l-22.446,9.57,0-20.419A103.574,103.574,0,0,0,106.013,119.156Z"/>
</svg>
