<svg xmlns="http://www.w3.org/2000/svg" width="200" height="200" viewBox="0 0 200 200">
  <metadata><?xpacket begin="﻿" id="W5M0MpCehiHzreSzNTczkc9d"?>
<x:xmpmeta xmlns:x="adobe:ns:meta/" x:xmptk="Adobe XMP Core 5.6-c138 79.159824, 2016/09/14-01:09:01        ">
   <rdf:RDF xmlns:rdf="http://www.w3.org/1999/02/22-rdf-syntax-ns#">
      <rdf:Description rdf:about=""/>
   </rdf:RDF>
</x:xmpmeta>
                                                                                                    
                                                                                                    
                                                                                                    
                                                                                                    
                                                                                                    
                                                                                                    
                                                                                                    
                                                                                                    
                                                                                                    
                                                                                                    
                                                                                                    
                                                                                                    
                                                                                                    
                                                                                                    
                                                                                                    
                                                                                                    
                                                                                                    
                                                                                                    
                                                                                                    
                                                                                                    
                           
<?xpacket end="w"?></metadata>
<defs>
    <style>
      .cls-1 {
        fill: #1e1e1e;
      }

      .cls-1, .cls-2 {
        fill-rule: evenodd;
      }

      .cls-2 {
        fill: #fff;
      }
    </style>
  </defs>
  <path class="cls-1" d="M107,200H93.005a6,6,0,0,1-6-6v-4.65A90.892,90.892,0,0,1,10.653,113H6a6,6,0,0,1-6-6V93.005a6,6,0,0,1,6-6h4.649A90.893,90.893,0,0,1,87.005,10.653V6a6,6,0,0,1,6-6H107a6,6,0,0,1,6,6v4.649a90.893,90.893,0,0,1,76.352,76.354H194a6,6,0,0,1,6,6V107a6,6,0,0,1-6,6h-4.65A90.89,90.89,0,0,1,113,189.347V194A6,6,0,0,1,107,200ZM34.227,113a67.451,67.451,0,0,0,52.778,52.778v-28.8a6,6,0,0,1,6-6H107a6,6,0,0,1,6,6v28.8A67.453,67.453,0,0,0,165.773,113H137.012a6,6,0,0,1-6-6V93.007a6,6,0,0,1,6-6h28.761A67.454,67.454,0,0,0,113,34.227V62.991a6,6,0,0,1-6,6H93.005a6,6,0,0,1-6-6V34.227A67.451,67.451,0,0,0,34.227,87.005h28.76a6,6,0,0,1,6,6V107a6,6,0,0,1-6,6H34.227ZM100,118.01A18.014,18.014,0,1,1,118.015,100,18.035,18.035,0,0,1,100,118.01Z"/>
  <path class="cls-2" d="M100,87.981A12.014,12.014,0,1,0,112.015,100,12.015,12.015,0,0,0,100,87.981Zm94,5.025h-9.99A84.816,84.816,0,0,0,107,15.993V6H93.005v9.99A84.815,84.815,0,0,0,15.993,93.005H6V107h9.99a84.815,84.815,0,0,0,77.012,77.012V194H107v-9.99A84.814,84.814,0,0,0,184.007,107H194V93.007Zm-87,79.714V136.978H93.005v35.743A73.574,73.574,0,0,1,27.28,107H62.988V93.005H27.28A73.575,73.575,0,0,1,93.005,27.279V62.991H107V27.279a73.578,73.578,0,0,1,65.726,65.728H137.013V107h35.708A73.575,73.575,0,0,1,107,172.721Z"/>
</svg>
