<svg xmlns="http://www.w3.org/2000/svg" width="200" height="200" viewBox="0 0 200 200">
  <metadata><?xpacket begin="﻿" id="W5M0MpCehiHzreSzNTczkc9d"?>
<x:xmpmeta xmlns:x="adobe:ns:meta/" x:xmptk="Adobe XMP Core 5.6-c138 79.159824, 2016/09/14-01:09:01        ">
   <rdf:RDF xmlns:rdf="http://www.w3.org/1999/02/22-rdf-syntax-ns#">
      <rdf:Description rdf:about=""/>
   </rdf:RDF>
</x:xmpmeta>
                                                                                                    
                                                                                                    
                                                                                                    
                                                                                                    
                                                                                                    
                                                                                                    
                                                                                                    
                                                                                                    
                                                                                                    
                                                                                                    
                                                                                                    
                                                                                                    
                                                                                                    
                                                                                                    
                                                                                                    
                                                                                                    
                                                                                                    
                                                                                                    
                                                                                                    
                                                                                                    
                           
<?xpacket end="w"?></metadata>
<defs>
    <style>
      .cls-1 {
        fill: #1e1e1e;
      }

      .cls-1, .cls-2 {
        fill-rule: evenodd;
      }

      .cls-2 {
        fill: #fff;
      }
    </style>
  </defs>
  <path class="cls-1" d="M99.995,4A12.046,12.046,0,0,0,87.989,16.06V110.6c-14.883,1.5-28.587,5.8-39.061,12.3C36.078,130.868,29,141.558,29,153c0,24.113,31.187,43,71,43s71-18.889,71-43c0-11.441-7.078-22.131-19.931-30.1C140.593,116.4,126.887,112.1,112,110.6V79.53l62.878-26.838a6,6,0,0,0,.024-11.026L111.894,14.447A12.042,12.042,0,0,0,99.995,4h0Zm0,156.01A12.046,12.046,0,0,0,112,147.953v-22.3c25.492,2.775,41,13.813,41,23.353,0,11.352-21.766,24-53,24s-53-12.649-53-24c0-9.538,15.5-20.575,40.986-23.351v22.3a12.046,12.046,0,0,0,12.006,12.058h0Z"/>
  <path class="cls-2" d="M172.536,47.174L106.013,75.568v40.59c33.084,1.725,59,17.556,59,36.84,0,20.436-29.1,37-65,37s-65-16.566-65-37c0-19.282,25.909-35.111,58.987-36.839V16.06a6.006,6.006,0,1,1,12.012,0v2.378ZM41.014,149c0,16.569,26.415,30,59,30s59-13.432,59-30c0-15.539-23.232-28.318-53-29.847v28.8a6.006,6.006,0,1,1-12.012,0v-28.8C64.241,120.688,41.014,133.466,41.014,149Z"/>
</svg>
