<svg xmlns="http://www.w3.org/2000/svg" width="200" height="200" viewBox="0 0 200 200">
  <metadata><?xpacket begin="﻿" id="W5M0MpCehiHzreSzNTczkc9d"?>
<x:xmpmeta xmlns:x="adobe:ns:meta/" x:xmptk="Adobe XMP Core 5.6-c138 79.159824, 2016/09/14-01:09:01        ">
   <rdf:RDF xmlns:rdf="http://www.w3.org/1999/02/22-rdf-syntax-ns#">
      <rdf:Description rdf:about=""/>
   </rdf:RDF>
</x:xmpmeta>
                                                                                                    
                                                                                                    
                                                                                                    
                                                                                                    
                                                                                                    
                                                                                                    
                                                                                                    
                                                                                                    
                                                                                                    
                                                                                                    
                                                                                                    
                                                                                                    
                                                                                                    
                                                                                                    
                                                                                                    
                                                                                                    
                                                                                                    
                                                                                                    
                                                                                                    
                                                                                                    
                           
<?xpacket end="w"?></metadata>
<defs>
    <style>
      .cls-1 {
        fill: #1e1e1e;
      }

      .cls-1, .cls-2 {
        fill-rule: evenodd;
      }

      .cls-2 {
        fill: #fff;
      }
    </style>
  </defs>
  <path class="cls-1" d="M99.993,4A12.046,12.046,0,0,0,87.987,16.06V110.6q-5.09.514-10,1.466l0-9.066a6,6,0,0,0-8.991-5.2l-5.653,3.25C57.613,92.678,46.077,79.39,29.535,77.232a33.573,33.573,0,0,0-4.326-.278c-12.487,0-22.288,6.864-22.7,7.156A6.245,6.245,0,0,0,.473,92.1a5.88,5.88,0,0,0,5.056,3.116,5.575,5.575,0,0,0,2.152-.439,5.152,5.152,0,0,1,.551-0.026c2.046,0,12.4,1.145,27.341,22.269L28.995,120.8a6,6,0,0,0,.634,10.72l6.284,2.683A30.1,30.1,0,0,0,29,153c0,24.113,31.187,43,71,43s71-18.889,71-43c0-11.441-7.078-22.131-19.931-30.1C140.591,116.4,126.884,112.1,112,110.6V79.53l62.878-26.838a6,6,0,0,0,.024-11.026L111.892,14.448A12.042,12.042,0,0,0,99.993,4h0Zm0,156.01A12.046,12.046,0,0,0,112,147.953v-22.3c25.491,2.775,41,13.813,41,23.353,0,11.352-21.766,24-53,24s-53-12.649-53-24c0-3.269,1.742-6.169,3.791-8.448l18.83,8.04a6,6,0,0,0,8.356-5.516l0-15.779a96.79,96.79,0,0,1,10.006-1.64v22.293a12.046,12.046,0,0,0,12.006,12.058h0Z"/>
  <path class="cls-2" d="M106.013,75.568v40.59c33.084,1.725,59,17.556,59,36.84,0,20.436-29.1,37-65,37s-65-16.566-65-37c0-7.745,4.187-14.93,11.333-20.871L32,126l12.159-6.991C21.634,83.955,6,89,6,89s10.449-7.426,22.773-5.818c17.911,2.337,29.365,20.277,32.568,25.948L72,103l0,16.616a104.859,104.859,0,0,1,22-3.458V16.06a6.006,6.006,0,1,1,12.012,0v2.378l66.523,28.736Zm-6.006,78.444A6.032,6.032,0,0,1,94,147.953v-28.8A103.487,103.487,0,0,0,72,122.6l0,20.474-22.466-9.593c-5.4,4.529-8.512,9.838-8.512,15.519,0,16.569,26.415,30,59,30s59-13.432,59-30c0-15.539-23.232-28.318-53-29.847v28.8A6.032,6.032,0,0,1,100.007,154.011Z"/>
</svg>
