<svg id="guns_sights" data-name="guns sights" xmlns="http://www.w3.org/2000/svg" width="128" height="128" viewBox="0 0 128 128">
  <metadata><?xpacket begin="﻿" id="W5M0MpCehiHzreSzNTczkc9d"?>
<x:xmpmeta xmlns:x="adobe:ns:meta/" x:xmptk="Adobe XMP Core 5.6-c138 79.159824, 2016/09/14-01:09:01        ">
   <rdf:RDF xmlns:rdf="http://www.w3.org/1999/02/22-rdf-syntax-ns#">
      <rdf:Description rdf:about=""/>
   </rdf:RDF>
</x:xmpmeta>
                                                                                                    
                                                                                                    
                                                                                                    
                                                                                                    
                                                                                                    
                                                                                                    
                                                                                                    
                                                                                                    
                                                                                                    
                                                                                                    
                                                                                                    
                                                                                                    
                                                                                                    
                                                                                                    
                                                                                                    
                                                                                                    
                                                                                                    
                                                                                                    
                                                                                                    
                                                                                                    
                           
<?xpacket end="w"?></metadata>
<defs>
    <style>
      .cls-1 {
        fill: #e0e0e0;
        fill-rule: evenodd;
      }
    </style>
  </defs>
  <path class="cls-1" d="M116.546,74.607l0.016,0.019-0.208.2h0L91,99c1.441-4.294-1.737-10.057-5.782-14.719s-9.643-8.5-13.668-7.7L98.471,54.215h0l0.221-.184,0.016,0.019c3.37-2.458,9.727-.11,14.46,5.345S119.385,71.537,116.546,74.607ZM80.857,88.164c4.222,4.867,6.794,11.534,5.161,15.586L72.723,116.427l0,0c-0.03.03-.057,0.062-0.087,0.091-3.582,3.416-11.242.824-17.038-5.857s-7.351-14.708-3.547-17.868c0.032-.027.067-0.05,0.1-0.076l0,0L66.561,80.729C70.575,79.6,76.634,83.3,80.857,88.164ZM60.17,106.873c1.195,1.246,2.756,1.692,3.473,1.011,0.7-.666.328-2.166-0.82-3.364s-2.674-1.676-3.421-1.057C58.638,104.1,58.975,105.628,60.17,106.873Zm10.912-10c-5.338-6.152-11.92-8.862-15.087-6.172-0.421.358-.413,0.42-0.837,0.782,3.741-.767,8.815,1.989,13.578,7.479s6.99,10.68,5.574,14.594a2.729,2.729,0,0,0,.846-0.772C78.437,109.617,76.42,103.023,71.082,96.871ZM52.009,83.006h-0.03c-0.311,5.1-7.337,9.18-15.981,9.18s-15.67-4.08-15.981-9.18h-0.03V82.657h0V66.681c2.3,4.036,9.269,5.477,16.011,5.477s13.882-1.792,16.011-5.477V82.656h0v0.349ZM36,66.114c-6.943,0-14.073-2.467-16.011-6.365V19.211h0.006c0-.038-0.006-0.076-0.006-0.115,0-4.476,7.168-8.1,16.011-8.1s16.011,3.628,16.011,8.1c0,0.039,0,.077-0.006.115h0.006V60.137C50.186,63.92,42.941,66.114,36,66.114Zm0-52.127c-7.389,0-13.026,3.131-13.026,7.047S28.61,28.08,36,28.08s13.07-3.131,13.07-7.047S43.387,13.986,36,13.986Z"/>
</svg>
