<svg id="svg4" xmlns="http://www.w3.org/2000/svg" width="64" height="64" viewBox="0 0 64 64">
  <defs>
    <style>
      .cls-1 {
        fill: #fff;
        fill-rule: evenodd;
      }
    </style>
  </defs>
  <path id="kill_headshot" data-name="kill headshot" class="cls-1" d="M50.39614,31.03664v1.32983L51.54522,34.424a10.28448,10.28448,0,0,1,1.42608,3.36039,15.37631,15.37631,0,0,1-.39555,3.8733A10.02354,10.02354,0,0,1,49.7588,44.9512l.63382,2.91319c-.16315,1.365-4.51768,4.83342-5.47075,4.19726a13.49849,13.49849,0,0,1-2.61977-1.85332c-.18662.02465-3.88386-2.21366-3.966-2.09628-.10211.14437,3.432,2.662,3.41908,2.88268v3.7348l-.8087,1.13852v3.95312l-1.30988,1.37326h-.40729l-.06807-.1655.034-.58686-.11738.74884h-.35211L38.52153,58.523l-.19131,2.25356-.19132.41785h-.19132l-.257-.11738-.047.11738h-.9871l-.10916-.07277-.1702.07277h-.2007L36.059,60.793l-.169-2.26764-.20775,2.26529-.23475.40377H33.66346l-.23474-.40024-.17606-2.26765-.14085,2.26178-.243.40611h-.527l-.02348-.95894-.04813.74179-.061.21714H30.93806l-.19367-.40376L30.6,58.52654l-.16432,2.26177-.15728.40611h-1.905l-.19366-.40376-.20892-2.26412L27.803,60.78362l-.216.35212-.42958.05869H26.276l-.53522-.05517-.21244-.35212L25.33351,58.523,25.161,60.79419l-.17606.40024h-.87678l-1.20542-1.37327V55.861L22.094,54.72249V50.983c-.01408-.24531,2.09628-2.06929,1.96717-2.216-.081-.09272-2.34746,1.45073-2.51413,1.4296a13.49781,13.49781,0,0,1-2.61389,1.85918c-.95307.63617-5.30643-2.831-5.47075-4.19725l.52817-2.88033a9.85944,9.85944,0,0,1-2.709-3.32517,15.376,15.376,0,0,1-.39555-3.87331c.37325-2.24651,2.10332-3.912,2.58221-5.93085V29.1845c-1.99535-3.162-2.63855-8.00249-2.63855-10.6692C10.818,9.17829,21.37217,2.508,31.92634,2.508S53.03468,9.17829,53.03468,18.5153c0,2.66789-.64673,7.51186-2.63855,10.67037Zm-21.47689,7.486L18.743,35.02028c-1.69369.77-3.07869,2.135-2.64676,2.16787a5.7876,5.7876,0,0,0,.331,4.19843c.73475,1.27115,1.71482,2.64089,3.62682,2.46483a36.59061,36.59061,0,0,0,8.86752-4.00124.76647.76647,0,0,0-.0011-1.32749Zm3.00709,4.00946a17.19636,17.19636,0,0,0-2.61976,7.31c0,1.05636.45423,1.49886.743.62443.4331-.86387,3.28644-1.18077,3.75593,0,.28874.87443.74532.42841.743-.62443A17.19981,17.19981,0,0,0,31.92634,42.53214Zm13.181-7.51186L34.92991,38.52151a.76644.76644,0,0,0,0,1.33335,36.5912,36.5912,0,0,0,8.86752,4.00125c1.912.17019,2.89207-1.19838,3.62683-2.46483a5.78771,5.78771,0,0,0,.331-4.19843C48.2846,37.2,46.63316,35.69752,45.10732,35.02028Z"/>
</svg>
