<svg xmlns="http://www.w3.org/2000/svg" width="100" height="100" viewBox="0 0 100 100">
  <defs>
    <style>
      .cls-1, .cls-2 {
        fill-rule: evenodd;
      }

      .cls-1 {
        opacity: 0.45;
      }

      .cls-2 {
        fill: #fff;
      }
    </style>
  </defs>
  <path class="cls-1" d="M90,61.287c0,22.6-17.909,38.7-40,38.7s-40-16.1-40-38.7A41.071,41.071,0,0,1,20.01,34.222h0L49.993,0.01,80.019,34.237H80A41.292,41.292,0,0,1,90,61.287Z"/>
  <path class="cls-2" d="M86,61.176c0,20.346-16.118,34.839-36,34.839S14,81.522,14,61.176a37.269,37.269,0,0,1,6.219-20.7,36.872,36.872,0,0,1,2.788-3.662h0l26.987-30.8L77.018,36.822H77A37.182,37.182,0,0,1,86,61.176Zm-5-.413c0,17.519-13.879,30-31,30s-31-12.48-31-30a32.093,32.093,0,0,1,5.355-17.828,31.769,31.769,0,0,1,2.4-3.153h0L49.995,13.258l23.27,26.534H73.253A32.017,32.017,0,0,1,81,60.763Z"/>
</svg>
