<svg xmlns="http://www.w3.org/2000/svg" width="100" height="100" viewBox="0 0 100 100">
  <defs>
    <style>
      .cls-1, .cls-2 {
        fill-rule: evenodd;
      }

      .cls-1 {
        opacity: 0.45;
      }

      .cls-2 {
        fill: #fff;
      }
    </style>
  </defs>
  <path class="cls-1" d="M89.756,26.525l2.673-1.13a2.9,2.9,0,0,0-.2-5.414l-2.749-.93L52.951,6.7A7.51,7.51,0,0,0,44.89.245,7.687,7.687,0,0,0,38.02,8V52.309l-0.573.083C20.679,54.82,8.968,64.444,8.968,75.8c0,13.449,16.053,23.984,36.547,23.984S82.062,89.246,82.062,75.8c0-11.349-11.706-20.973-28.468-23.4l-0.574-.083V42.051Z"/>
  <path id="Rectangle_8_copy_22" data-name="Rectangle 8 copy 22" class="cls-2" d="M49,39.18V55.711c16.326,1.074,29.042,9.558,29.042,19.867,0,11.037-14.572,19.984-32.547,19.984S12.948,86.615,12.948,75.578c0-10.312,12.721-18.8,29.052-19.868V7.5a3.5,3.5,0,0,1,7,0V9.375L88.179,22.622ZM45.5,76A3.5,3.5,0,0,1,42,72.5v-14c-14.288.94-25.365,7.6-25.365,15.68,0,8.725,12.91,15.8,28.836,15.8s28.836-7.073,28.836-15.8c0-8.07-11.047-14.721-25.306-15.675V72.5A3.5,3.5,0,0,1,45.5,76ZM49,14.583V33.809L74.269,23.128Z"/>
</svg>
