<?xml version="1.0" encoding="UTF-8" standalone="no"?>
<svg
   xmlns:dc="http://purl.org/dc/elements/1.1/"
   xmlns:cc="http://creativecommons.org/ns#"
   xmlns:rdf="http://www.w3.org/1999/02/22-rdf-syntax-ns#"
   xmlns:svg="http://www.w3.org/2000/svg"
   xmlns="http://www.w3.org/2000/svg"
   xmlns:sodipodi="http://sodipodi.sourceforge.net/DTD/sodipodi-0.dtd"
   xmlns:inkscape="http://www.inkscape.org/namespaces/inkscape"
   width="100"
   height="100"
   data-name="Layer 1"
   version="1.1"
   viewBox="0 0 100 100"
   id="svg839"
   sodipodi:docname="squad_ussr_default.svg"
   inkscape:version="0.92.1 r15371">
  <defs
     id="defs843" />
  <sodipodi:namedview
     pagecolor="#ffffff"
     bordercolor="#666666"
     borderopacity="1"
     objecttolerance="10"
     gridtolerance="10"
     guidetolerance="10"
     inkscape:pageopacity="0"
     inkscape:pageshadow="2"
     inkscape:window-width="3840"
     inkscape:window-height="2055"
     id="namedview841"
     showgrid="false"
     inkscape:zoom="8.08"
     inkscape:cx="37.160813"
     inkscape:cy="58.667761"
     inkscape:window-x="-13"
     inkscape:window-y="47"
     inkscape:window-maximized="1"
     inkscape:current-layer="svg839" />
  <metadata
     id="metadata815">
    <rdf:RDF>
      <cc:Work
         rdf:about="">
        <dc:format>image/svg+xml</dc:format>
        <dc:type
           rdf:resource="http://purl.org/dc/dcmitype/StillImage" />
        <dc:title>wild</dc:title>
      </cc:Work>
    </rdf:RDF>
  </metadata>
  <title
     id="title817">wild</title>
  <g
     id="g837"
     transform="matrix(0.68224426,0,0,0.68224426,15.887737,15.69647)"
     style="fill:#cc0000">
    <path
       d="m 34.77,43.67 3.52,-1 a 35.21,35.21 0 0 1 2.77,6.06 l -2.36,0.4 a 39.31,39.31 0 0 0 -3.93,-5.46 z"
       id="path831"
       inkscape:connector-curvature="0" />
    <path
       d="m 63.77,66.39 h 0.15 a 1,1 0 0 0 0.84,-1.13 l -0.3,-2.13 a 2.38,2.38 0 1 1 -2,0.28 l 0.31,2.13 a 1,1 0 0 0 0.97,0.85 z"
       id="path833"
       inkscape:connector-curvature="0" />
    <path
       d="m 69.2,53.27 a 0.25,0.25 0 0 1 0.25,-0.25 h 0.25 a 0.25,0.25 0 0 1 0.25,0.25 v 5.38 A 0.25,0.25 0 0 1 69.7,58.9 H 69.45 A 0.25,0.25 0 0 1 69.2,58.65 Z"
       id="path835"
       inkscape:connector-curvature="0" />
  </g>
  <path
     style="fill:#cc0000;fill-opacity:1;stroke:#ffcc00;stroke-width:2.0467329;stroke-linecap:butt;stroke-linejoin:miter;stroke-miterlimit:4;stroke-dasharray:none;stroke-opacity:1"
     d="m 18.075674,42.460052 22.056628,-3.199604 9.870804,-19.970914 c 0,0 9.863702,19.970914 9.863702,19.970914 L 81.923436,42.460052 65.95972,58.004021 69.723407,79.947198 49.996003,69.589282 30.268601,79.947198 34.032289,58.004021 Z"
     id="path959"
     inkscape:connector-curvature="0" />
  <path
     style="opacity:1;fill:#ffcc00;fill-opacity:1;fill-rule:evenodd;stroke:none;stroke-width:2.30079222;stroke-miterlimit:4;stroke-dasharray:none;stroke-opacity:1"
     d="m 50.646217,39.115304 c -0.387189,0.0065 -0.716082,0.101662 -1.011374,0.230524 0.300708,0.0833 0.59988,0.184305 0.895446,0.305144 0.315465,0.13114 0.626359,0.28438 0.932755,0.457051 0.513133,0.296258 0.963927,0.560533 1.412459,0.819493 0.277367,0.164376 0.548652,0.34345 0.811498,0.537 0.263006,0.193339 0.517651,0.400348 0.763527,0.62095 0.245715,0.220564 0.481422,0.453972 0.707562,0.699566 0.226433,0.245504 0.443002,0.503398 0.647599,0.771523 0.204193,0.268234 0.39666,0.546032 0.576976,0.83415 0.180416,0.288178 0.347631,0.586247 0.502356,0.891448 0.155099,0.305341 0.297245,0.617386 0.42507,0.936753 0.127242,0.319319 0.241073,0.645321 0.33979,0.975396 0.09925,0.329956 0.183431,0.66457 0.253176,1.002047 0.06968,0.337342 0.124397,0.676553 0.163899,1.018036 0.0276,0.241881 0.04768,0.485081 0.05996,0.727549 0.01773,0.342643 0.01965,0.685102 0.0067,1.026032 -0.01275,0.340531 -0.04068,0.678592 -0.08395,1.014039 -0.0178,0.111137 -0.03748,0.221597 -0.05863,0.331794 -0.03273,0.222707 -0.0725,0.444669 -0.118594,0.663589 -0.07359,0.327242 -0.160842,0.649231 -0.263836,0.964737 -0.103064,0.315532 -0.221676,0.624129 -0.353115,0.92476 -0.131276,0.300402 -0.276105,0.591592 -0.434398,0.874125 -0.158653,0.282373 -0.330265,0.55519 -0.514348,0.816828 -0.183742,0.262312 -0.37889,0.513893 -0.586303,0.752868 -0.0255,0.02678 -0.05148,0.0522 -0.07729,0.07862 l -7.717889,-8.526721 3.699044,-3.214009 -5.873697,-2.39585 -6.895731,5.587207 4.229382,4.229382 3.335268,-2.898206 7.055632,8.977108 C 49.807669,60.5096 46.344101,60.08743 43.126872,57.509249 l -1.333841,1.333841 c -2.031039,1.845479 -4.025304,2.075649 -4.077475,3.874934 -3.9e-5,1.18446 0.959546,2.144045 2.144006,2.144006 1.184461,3.9e-5 1.334298,-0.74155 2.144006,-2.144006 0.492661,-0.853314 0.995248,-1.57965 1.484414,-2.377195 2.120701,1.577518 4.651713,2.436091 7.207537,2.445153 1.672976,-0.0057 3.304516,-0.376078 4.785038,-1.085994 l 2.689002,3.421881 c 2.107315,0.136086 2.522028,-1.005651 2.346547,-2.346547 l -2.502451,-2.766287 c 2.548471,-2.256694 3.912557,-5.605692 3.721696,-9.14234 -0.326085,-5.608212 -4.451335,-10.45288 -9.907199,-11.635462 -0.390422,-0.06272 -0.796278,-0.122482 -1.181935,-0.115929 z"
     id="path920"
     inkscape:connector-curvature="0" />
</svg>
