<?xml version="1.0" encoding="utf-8"?>
<!-- Generator: Adobe Illustrator 27.3.1, SVG Export Plug-In . SVG Version: 6.00 Build 0)  -->
<svg version="1.1" id="Layer_1" xmlns="http://www.w3.org/2000/svg" xmlns:xlink="http://www.w3.org/1999/xlink" x="0px" y="0px"
	 viewBox="0 0 20 20" style="enable-background:new 0 0 20 20;" xml:space="preserve">
<style type="text/css">
	.st0{opacity:0.25;fill:#3B3B3B;}
</style>
<polygon class="st0" points="5.6,12.1 3.3,8.5 7.3,7 10,3.8 12.7,7 16.7,8.5 14.4,12.1 14.1,16.2 10,15.2 5.9,16.2 "/>
<polygon class="st0" points="5.8,12 3.6,8.6 7.4,7.2 10,4.1 12.6,7.2 16.4,8.6 14.2,12 13.9,16 10,15 6.1,16 "/>
<polygon class="st0" points="6,11.9 3.9,8.7 7.5,7.3 10,4.4 12.4,7.3 16.1,8.7 14,11.9 13.8,15.7 10,14.8 6.2,15.7 "/>
<polygon class="st0" points="6.2,11.9 4.2,8.8 7.6,7.5 10,4.7 12.3,7.4 15.8,8.8 13.8,11.9 13.6,15.5 10.1,14.6 6.4,15.5 "/>
</svg>
