<svg id="guns_sights" data-name="guns sights" xmlns="http://www.w3.org/2000/svg" width="128" height="128" viewBox="0 0 128 128">
  <metadata><?xpacket begin="﻿" id="W5M0MpCehiHzreSzNTczkc9d"?>
<x:xmpmeta xmlns:x="adobe:ns:meta/" x:xmptk="Adobe XMP Core 5.6-c138 79.159824, 2016/09/14-01:09:01        ">
   <rdf:RDF xmlns:rdf="http://www.w3.org/1999/02/22-rdf-syntax-ns#">
      <rdf:Description rdf:about=""/>
   </rdf:RDF>
</x:xmpmeta>
                                                                                                    
                                                                                                    
                                                                                                    
                                                                                                    
                                                                                                    
                                                                                                    
                                                                                                    
                                                                                                    
                                                                                                    
                                                                                                    
                                                                                                    
                                                                                                    
                                                                                                    
                                                                                                    
                                                                                                    
                                                                                                    
                                                                                                    
                                                                                                    
                                                                                                    
                                                                                                    
                           
<?xpacket end="w"?></metadata>
<defs>
    <style>
      .cls-1 {
        fill: #fff;
        fill-rule: evenodd;
      }
    </style>
  </defs>
  <path class="cls-1" d="M115.6,68h0a51.616,51.616,0,0,1-14.595,32.147c-0.037.038-.073,0.077-0.109,0.115-0.469.476-.95,0.94-1.437,1.4-0.106.1-.209,0.2-0.316,0.3-0.445.412-.9,0.812-1.36,1.209-0.157.136-.313,0.275-0.472,0.409-0.43.362-.868,0.714-1.309,1.062-0.2.157-.4,0.316-0.6,0.471-0.419.32-.845,0.632-1.274,0.94-0.235.169-.469,0.338-0.707,0.5-0.411.286-.828,0.563-1.248,0.837-0.266.173-.533,0.346-0.8,0.514q-0.609.381-1.229,0.745-0.441.26-.888,0.511-0.6.339-1.215,0.661-0.48.253-.967,0.5c-0.4.2-.8,0.4-1.2,0.584-0.344.162-.692,0.317-1.04,0.471-0.4.175-.791,0.347-1.192,0.512-0.367.151-.737,0.3-1.109,0.438-0.392.151-.785,0.3-1.182,0.443s-0.782.269-1.175,0.4-0.777.257-1.17,0.377c-0.411.124-.826,0.238-1.24,0.353-0.385.106-.768,0.215-1.156,0.313-0.433.109-.871,0.205-1.309,0.3-0.378.084-.754,0.173-1.135,0.25-0.459.092-.924,0.168-1.388,0.248-0.367.063-.731,0.132-1.1,0.188-0.5.074-1,.13-1.5,0.19-0.345.042-.687,0.091-1.033,0.126-0.38.038-.765,0.061-1.149,0.087V120H60v-4.393A51.855,51.855,0,0,1,12.363,68H8V60h4.361A51.855,51.855,0,0,1,60,12.359V8h8v4.363c0.384,0.026.769,0.05,1.15,0.088,0.347,0.034.689,0.084,1.034,0.125,0.5,0.06,1,.117,1.5.191,0.37,0.055.734,0.125,1.1,0.188,0.464,0.08.928,0.156,1.388,0.248,0.381,0.076.758,0.166,1.136,0.25,0.438,0.1.876,0.194,1.309,0.3,0.388,0.1.772,0.207,1.157,0.313,0.415,0.115.83,0.228,1.24,0.353,0.393,0.119.782,0.249,1.171,0.378s0.786,0.259,1.174.4,0.79,0.293,1.183.444c0.371,0.143.741,0.287,1.108,0.438,0.4,0.165.8,0.338,1.193,0.513,0.348,0.154.7,0.309,1.039,0.471q0.607,0.284,1.2.585,0.486,0.243.966,0.5,0.613,0.323,1.216.662,0.447,0.251.888,0.511,0.621,0.365,1.23.745c0.269,0.169.536,0.341,0.8,0.515,0.42,0.274.837,0.551,1.249,0.837,0.238,0.165.473,0.335,0.708,0.5,0.429,0.308.854,0.62,1.273,0.941,0.2,0.155.4,0.315,0.6,0.473,0.441,0.348.878,0.7,1.307,1.061,0.161,0.136.318,0.276,0.477,0.413,0.457,0.4.911,0.795,1.355,1.206,0.11,0.1.217,0.208,0.326,0.311,0.483,0.456.96,0.916,1.426,1.39,0.044,0.044.085,0.091,0.129,0.135A51.618,51.618,0,0,1,115.605,60H120v8h-4.4Zm-8.919-9.9c-0.008-.061-0.015-0.123-0.023-0.184-0.084-.593-0.183-1.181-0.291-1.766-0.018-.095-0.033-0.19-0.051-0.285-0.107-.562-0.229-1.119-0.358-1.672-0.026-.114-0.052-0.229-0.079-0.343-0.13-.538-0.272-1.071-0.422-1.6-0.036-.126-0.071-0.252-0.108-0.378q-0.228-.778-0.485-1.542c-0.044-.132-0.088-0.264-0.134-0.4q-0.26-.753-0.547-1.493c-0.052-.134-0.106-0.268-0.159-0.4q-0.292-.733-0.61-1.452c-0.058-.132-0.119-0.264-0.179-0.4-0.217-.477-0.44-0.95-0.674-1.417-0.063-.127-0.129-0.252-0.194-0.379-0.24-.468-0.485-0.933-0.741-1.39-0.065-.117-0.134-0.232-0.2-0.348-0.265-.463-0.534-0.922-0.815-1.374-0.062-.1-0.128-0.2-0.19-0.3-0.294-.464-0.593-0.924-0.9-1.376-0.048-.069-0.1-0.137-0.147-0.206-0.332-.477-0.671-0.95-1.022-1.413l-0.012-.015A43.468,43.468,0,0,0,93.2,32.322c-0.039-.036-0.077-0.075-0.117-0.111-0.353-.324-0.717-0.636-1.081-0.948-0.147-.126-0.291-0.257-0.44-0.381-0.326-.272-0.66-0.533-0.993-0.8-0.2-.155-0.39-0.312-0.589-0.463-0.314-.238-0.635-0.467-0.955-0.7-0.228-.164-0.455-0.329-0.687-0.489-0.309-.212-0.624-0.416-0.938-0.621-0.253-.164-0.5-0.329-0.761-0.488-0.307-.191-0.619-0.374-0.931-0.557-0.273-.16-0.546-0.319-0.823-0.474-0.307-.171-0.617-0.336-0.929-0.5-0.29-.153-0.582-0.3-0.876-0.45s-0.618-.3-0.93-0.447-0.615-.283-0.925-0.419-0.619-.267-0.932-0.4-0.646-.259-0.971-0.384c-0.31-.118-0.62-0.235-0.933-0.346-0.336-.12-0.676-0.233-1.016-0.344-0.31-.1-0.62-0.2-0.933-0.3-0.351-.106-0.706-0.2-1.061-0.3-0.309-.085-0.618-0.171-0.929-0.249-0.367-.092-0.738-0.174-1.109-0.257-0.306-.068-0.611-0.139-0.919-0.2-0.386-.077-0.777-0.142-1.167-0.209-0.3-.051-0.6-0.107-0.9-0.151-0.414-.062-0.832-0.11-1.25-0.159-0.282-.034-0.563-0.074-0.847-0.1-0.088-.009-0.177-0.013-0.265-0.02V34H60V21.057A43.181,43.181,0,0,0,21.062,60H34v8H21.065A43.182,43.182,0,0,0,60,106.909V94h8v12.9c0.088-.008.177-0.011,0.264-0.02,0.284-.028.564-0.068,0.846-0.1,0.418-.05.836-0.1,1.251-0.159,0.3-.045.6-0.1,0.9-0.151,0.391-.067.781-0.132,1.168-0.209,0.308-.062.612-0.132,0.917-0.2,0.372-.083.743-0.165,1.111-0.257,0.311-.078.618-0.164,0.927-0.249,0.356-.1.711-0.2,1.064-0.3,0.312-.095.621-0.195,0.929-0.3,0.341-.112.682-0.225,1.019-0.345,0.311-.111.621-0.227,0.929-0.345q0.491-.187.976-0.385,0.466-.192.926-0.394t0.931-.422q0.464-.216.923-0.443c0.3-.147.591-0.3,0.884-0.453,0.309-.162.617-0.326,0.921-0.5,0.28-.156.556-0.318,0.832-0.479,0.309-.181.617-0.363,0.921-0.551,0.26-.162.516-0.329,0.772-0.5,0.31-.2.621-0.4,0.926-0.612,0.236-.162.468-0.332,0.7-0.5,0.315-.226.632-0.451,0.941-0.686,0.2-.155.4-0.318,0.606-0.477,0.328-.258.656-0.514,0.976-0.781,0.155-.129.3-0.265,0.458-0.4,0.358-.307.716-0.613,1.063-0.932,0.038-.035.074-0.071,0.111-0.106a43.474,43.474,0,0,0,5.053-5.546c0.035-.046.072-0.09,0.107-0.137,0.332-.438.651-0.885,0.967-1.336,0.067-.095.136-0.188,0.2-0.283,0.3-.432.582-0.873,0.864-1.316,0.076-.119.154-0.237,0.229-0.357,0.27-.435.53-0.877,0.785-1.323,0.077-.133.155-0.266,0.23-0.4,0.248-.443.485-0.892,0.718-1.344,0.073-.142.147-0.283,0.218-0.426q0.339-.68.654-1.374c0.067-.146.134-0.293,0.2-0.44q0.309-.7.594-1.41,0.088-.221.175-0.444,0.279-.72.534-1.453c0.05-.145.1-0.291,0.148-0.437,0.166-.5.325-1,0.473-1.5,0.041-.139.08-0.278,0.119-0.417,0.147-.517.286-1.037,0.413-1.562,0.031-.127.059-0.254,0.088-0.381,0.127-.542.246-1.087,0.351-1.636,0.021-.106.038-0.212,0.057-0.318,0.106-.574.2-1.151,0.287-1.733,0.01-.069.017-0.139,0.027-0.209,0.085-.621.161-1.246,0.219-1.875H94V60h12.9C106.845,59.363,106.769,58.73,106.683,58.1ZM60,60h8v8H60V60Z"/>
</svg>
