<svg xmlns="http://www.w3.org/2000/svg" width="100" height="100" viewBox="0 0 100 100">
  <defs>
    <style>
      .cls-1 {
        fill: #fff;
      }
    </style>
  </defs>
  <g id="Layer_1" data-name="Layer 1">
    <g>
      <rect class="cls-1" x="31.74289" y="40.95961" width="30.37719" height="20.96253" transform="translate(-19.52383 72.23558) rotate(-65.00016)"/>
      <path class="cls-1" d="M69.75535,2.49485a10.58653,10.58653,0,0,0-11.35212,17.6442l-2.28046,4.89044a2.05945,2.05945,0,0,1-2.73685.99615l-2.91643-1.35995A2.37211,2.37211,0,0,0,47.31715,25.813l-2.12929,4.5663,18.99847,8.85913,2.1293-4.56629a2.37209,2.37209,0,0,0-1.14736-3.15234l-2.91643-1.35995a2.05944,2.05944,0,0,1-.99613-2.73688l2.27606-4.88108A10.5924,10.5924,0,0,0,69.75535,2.49485ZM72.323,15.37871a7.80615,7.80615,0,0,1-7.05072,4.48995,7.70218,7.70218,0,0,1-3.27775-.73073A7.77374,7.77374,0,0,1,65.28612,4.31951,7.77442,7.77442,0,0,1,72.323,15.37871Z"/>
      <polygon class="cls-1" points="29.677 63.643 27.524 68.26 33.524 71.057 31.472 75.457 33.872 76.576 24.127 97.474 26.327 98.5 36.072 77.602 38.471 78.721 40.523 74.321 46.523 77.119 48.675 72.502 29.677 63.643"/>
    </g>
  </g>
</svg>
