<svg xmlns="http://www.w3.org/2000/svg" width="100" height="100" viewBox="0 0 100 100">
  <defs>
    <style>
      .cls-1 {
        fill: #fff;
      }
    </style>
  </defs>
  <g id="Layer_1" data-name="Layer 1">
    <g>
      <polygon class="cls-1" points="60.005 63.951 50 46.003 39.995 63.951 60.005 63.951"/>
      <path class="cls-1" d="M98.52022,53.53583c-.98009-.47606-1.86874-1.0484-2.85275-1.47627-.95554-.46746-1.89638-.93817-2.8834-1.32722l-1.45422-.61141-1.47493-.5594c-.96781-.39338-1.97512-.706-2.96156-1.04472a95.10732,95.10732,0,0,0-12.10207-3.09633,137.62166,137.62166,0,0,0-49.58271,0,95.10732,95.10732,0,0,0-12.10207,3.09633c-.98644.3387-1.99375.65134-2.96156,1.04472L8.67,50.12093l-1.45422.61141c-.987.389-1.92786.85976-2.8834,1.32722-.984.42787-1.87266,1.00021-2.85275,1.47627l-.0233.01135a.31767.31767,0,0,1-.371-.50253,35.19494,35.19494,0,0,1,4.9082-4.4055c.44257-.33.87729-.68123,1.33606-.98869l1.38584-.91228c.91879-.63,1.893-1.14459,2.85191-1.70829a65.06532,65.06532,0,0,1,12.24036-5.15984,91.67557,91.67557,0,0,1,52.38443,0,65.06532,65.06532,0,0,1,12.24036,5.15984c.95888.5637,1.93312,1.07833,2.85191,1.70829l1.38584.91228c.45877.30746.89349.65868,1.33606.98869a35.19494,35.19494,0,0,1,4.9082,4.4055.31773.31773,0,0,1-.37034.503Z"/>
    </g>
  </g>
</svg>
