<svg xmlns="http://www.w3.org/2000/svg" width="50" height="50" viewBox="0 0 50 50">
  <defs>
    <style>
      .cls-1 {
        fill: #fff;
        fill-rule: evenodd;
      }
    </style>
  </defs>
  <path class="cls-1" d="M0.923,42.03V33.014L11.457,33V28.988h-2v2H0.923V27.774L2.7,26H4.447v-1.47h0l1.777-3.557h7.246V18.939H9.463V17.16l3.555-7.24h3.773L16.9,8.931a8.919,8.919,0,0,1,6.879.062L23.9,9.92h3.553l3.07,1.688,4.015-1.06,0.86,0.863L48.472,8.146l0.5,1.9L35.882,13.951l-0.187.873-4.65,1.411-0.023,2.7H27.529v2.03h7.257l1.777,3.557v1.465h1.729l1.777,1.782v3.212H31.546V28.988H29.518V33h10.55V42.03h-8.9l-1.776-3.495H11.459L9.682,42.03H0.923Z"/>
</svg>
