<svg xmlns="http://www.w3.org/2000/svg" width="180" height="220" viewBox="0 0 180 220">
  <defs>
    <style>
      .cls-1 {
        fill: #fff;
      }

      .cls-1, .cls-2 {
        fill-rule: evenodd;
      }
    </style>
  </defs>
  <path class="cls-1" d="M90.437,207a76.455,76.455,0,0,1-56.4-128.159,77.961,77.961,0,0,1,6.333-6.135l0.2-.174L90.5,16.044l49.8,56.341,0.69,0.593c0.427,0.364.854,0.728,1.271,1.109a76.418,76.418,0,0,1,4.7,108.077A76.9,76.9,0,0,1,90.438,207h0Z"/>
  <path id="Shape_1_copy" data-name="Shape 1 copy" class="cls-2" d="M90.5,22.088l46.617,52.74,0.361,0.408,0.412,0.355,0.509,0.436c0.388,0.332.777,0.662,1.156,1.009a72.424,72.424,0,0,1,4.456,102.426A72.665,72.665,0,0,1,41.445,183.97,72.424,72.424,0,0,1,36.989,81.544a73.816,73.816,0,0,1,6.006-5.817l0.4-.348,0.352-.4L90.5,22.088M90.5,10L37.742,69.687a81.372,81.372,0,0,0-6.659,6.452,80.535,80.535,0,1,0,113.884-5c-0.6-.553-1.227-1.072-1.844-1.6L90.5,10h0Z"/>
</svg>
