<svg id="time_bomb" xmlns="http://www.w3.org/2000/svg" width="38" height="38" viewBox="0 0 38 38">
  <defs>
    <style>
      .cls-1 {
        fill: #fff;
        fill-rule: evenodd;
      }
    </style>
  </defs>
  <path id="Shape_54_copy" data-name="Shape 54 copy" class="cls-1" d="M30.716,29.114h1.262V32.3H30.716v2.847A1.847,1.847,0,0,1,28.873,37H25.906a1.847,1.847,0,0,1-1.843-1.85V32.3H22.327v2.847A1.847,1.847,0,0,1,20.483,37H17.517a1.847,1.847,0,0,1-1.844-1.85V32.3H13.937v2.847A1.847,1.847,0,0,1,12.094,37H9.127a1.847,1.847,0,0,1-1.843-1.85V32.3H6.021V29.114H7.284V29.023h5.9a8.554,8.554,0,0,1-1.569-1.995H7.284V17.992h4.7A8.556,8.556,0,0,1,13.893,16H6.021v-3.11H7.284V10.856A1.847,1.847,0,0,1,9.127,9.006h2.967a1.847,1.847,0,0,1,1.843,1.851v2.031h1.736V10.856a1.847,1.847,0,0,1,1.844-1.851h1.028a4.926,4.926,0,0,1,4.843-4.139,0.527,0.527,0,0,1,0,1.054A3.883,3.883,0,0,0,19.6,9.006h0.884a1.847,1.847,0,0,1,1.843,1.851v2.031h1.736V10.856a1.847,1.847,0,0,1,1.843-1.851h2.967a1.847,1.847,0,0,1,1.844,1.851v2.031h1.262V16H24.107a8.558,8.558,0,0,1,1.91,1.995h4.7v9.035H26.385a8.554,8.554,0,0,1-1.569,1.995h5.9v0.091Zm-4.752-6.3A6.964,6.964,0,1,0,19,29.8,6.977,6.977,0,0,0,25.964,22.809Zm-3.2,1.141H18.025V19.2a0.688,0.688,0,1,1,1.377,0v3.373h3.36A0.691,0.691,0,0,1,22.762,23.95ZM27.814,5.987L26.04,5.964a0.4,0.4,0,0,1,.01-0.791L27.824,5.2A0.4,0.4,0,0,1,27.814,5.987ZM25.353,4.282A0.395,0.395,0,1,1,24.8,3.72l1.259-1.254a0.395,0.395,0,0,1,.555.561ZM23.517,3.4a0.4,0.4,0,0,1-.4-0.393L23.111,1.23a0.394,0.394,0,1,1,.788,0l0.009,1.781A0.4,0.4,0,0,1,23.517,3.4Z"/>
</svg>
