<?xml version="1.0" encoding="UTF-8" standalone="no"?>
<svg
   xmlns:dc="http://purl.org/dc/elements/1.1/"
   xmlns:cc="http://creativecommons.org/ns#"
   xmlns:rdf="http://www.w3.org/1999/02/22-rdf-syntax-ns#"
   xmlns:svg="http://www.w3.org/2000/svg"
   xmlns="http://www.w3.org/2000/svg"
   xmlns:sodipodi="http://sodipodi.sourceforge.net/DTD/sodipodi-0.dtd"
   xmlns:inkscape="http://www.inkscape.org/namespaces/inkscape"
   width="100"
   height="100"
   data-name="Layer 1"
   version="1.1"
   viewBox="0 0 100 100"
   id="svg839"
   sodipodi:docname="Soviet Red Army Hammer and Sickle.svg"
   inkscape:version="0.92.3 (2405546, 2018-03-11)">
  <defs
     id="defs843" />
  <sodipodi:namedview
     pagecolor="#ffffff"
     bordercolor="#666666"
     borderopacity="1"
     objecttolerance="10"
     gridtolerance="10"
     guidetolerance="10"
     inkscape:pageopacity="0"
     inkscape:pageshadow="2"
     inkscape:window-width="1920"
     inkscape:window-height="1001"
     id="namedview841"
     showgrid="false"
     inkscape:zoom="8.08"
     inkscape:cx="68.967744"
     inkscape:cy="58.667761"
     inkscape:window-x="-9"
     inkscape:window-y="-9"
     inkscape:window-maximized="1"
     inkscape:current-layer="svg839" />
  <metadata
     id="metadata815">
    <rdf:RDF>
      <cc:Work
         rdf:about="">
        <dc:format>image/svg+xml</dc:format>
        <dc:type
           rdf:resource="http://purl.org/dc/dcmitype/StillImage" />
        <dc:title>wild</dc:title>
      </cc:Work>
    </rdf:RDF>
  </metadata>
  <title
     id="title817">wild</title>
  <g
     fill="#c00"
     id="g837">
    <path
       d="m34.77 43.67 3.52-1a35.21 35.21 0 0 1 2.77 6.06l-2.36 0.4a39.31 39.31 0 0 0-3.93-5.46z"
       id="path831" />
    <path
       d="m63.77 66.39h0.15a1 1 0 0 0 0.84-1.13l-0.3-2.13a2.38 2.38 0 1 1-2 0.28l0.31 2.13a1 1 0 0 0 0.97 0.85z"
       id="path833" />
    <path
       d="m69.2 53.27a0.25 0.25 0 0 1 0.25-0.25h0.25a0.25 0.25 0 0 1 0.25 0.25v5.38a0.25 0.25 0 0 1-0.25 0.25h-0.25a0.25 0.25 0 0 1-0.25-0.25z"
       id="path835" />
  </g>
  <path
     style="fill:#cc0000;fill-opacity:1;stroke:#ffcc00;stroke-width:3;stroke-linecap:butt;stroke-linejoin:miter;stroke-miterlimit:4;stroke-dasharray:none;stroke-opacity:1"
     d="M 3.2069705,39.228738 35.536488,34.538916 50.004626,5.266535 c 0,0 14.457728,29.272381 14.457728,29.272381 L 96.791872,39.228738 73.393043,62.012322 78.909671,94.175549 49.994215,78.993426 21.078761,94.175549 26.595389,62.012322 Z"
     id="path959"
     inkscape:connector-curvature="0" />
  <path
     style="opacity:1;fill:#ffcc00;fill-opacity:1;fill-rule:evenodd;stroke:none;stroke-width:3.37238789;stroke-miterlimit:4;stroke-dasharray:none;stroke-opacity:1"
     d="M 50.947266 34.326172 C 50.379743 34.335772 49.897669 34.475183 49.464844 34.664062 C 49.905607 34.786159 50.344118 34.934208 50.777344 35.111328 C 51.239737 35.303546 51.695431 35.528158 52.144531 35.78125 C 52.896656 36.21549 53.557407 36.602851 54.214844 36.982422 C 54.621394 37.223357 55.019031 37.485835 55.404297 37.769531 C 55.789798 38.052918 56.163045 38.356341 56.523438 38.679688 C 56.883595 39.00298 57.229082 39.345099 57.560547 39.705078 C 57.892442 40.064926 58.209877 40.442934 58.509766 40.835938 C 58.809062 41.229103 59.09117 41.636285 59.355469 42.058594 C 59.619913 42.480991 59.865009 42.917886 60.091797 43.365234 C 60.319133 43.812789 60.527485 44.270169 60.714844 44.738281 C 60.901349 45.206323 61.068197 45.684161 61.212891 46.167969 C 61.358366 46.651602 61.481756 47.142063 61.583984 47.636719 C 61.686117 48.131179 61.766319 48.628377 61.824219 49.128906 C 61.864679 49.483443 61.894109 49.839915 61.912109 50.195312 C 61.938099 50.697541 61.940915 51.199501 61.921875 51.699219 C 61.903185 52.198353 61.862242 52.693866 61.798828 53.185547 C 61.772738 53.348446 61.743891 53.510353 61.712891 53.671875 C 61.664911 53.998308 61.606629 54.323648 61.539062 54.644531 C 61.43119 55.124186 61.303307 55.596141 61.152344 56.058594 C 61.001278 56.521086 60.827423 56.973412 60.634766 57.414062 C 60.442348 57.854377 60.230065 58.281189 59.998047 58.695312 C 59.765501 59.1092 59.51396 59.509082 59.244141 59.892578 C 58.974821 60.277062 58.688782 60.645817 58.384766 60.996094 C 58.347386 61.035344 58.309303 61.072601 58.271484 61.111328 L 46.958984 48.613281 L 52.380859 43.902344 L 43.771484 40.390625 L 33.664062 48.580078 L 39.863281 54.779297 L 44.751953 50.53125 L 55.09375 63.689453 C 49.718163 65.684875 44.641437 65.066079 39.925781 61.287109 L 37.970703 63.242188 C 34.993705 65.9472 32.07061 66.284571 31.994141 68.921875 C 31.994083 70.657998 33.400596 72.06451 35.136719 72.064453 C 36.872843 72.06451 37.092467 70.977526 38.279297 68.921875 C 39.001415 67.671129 39.738082 66.606502 40.455078 65.4375 C 43.563497 67.749747 47.273329 69.008202 51.019531 69.021484 C 53.471696 69.013184 55.863127 68.470248 58.033203 67.429688 L 61.974609 72.445312 C 65.063408 72.64478 65.671274 70.971278 65.414062 69.005859 L 61.746094 64.951172 C 65.481516 61.643421 67.480927 56.734625 67.201172 51.550781 C 66.723213 43.33054 60.676624 36.229465 52.679688 34.496094 C 52.107426 34.404163 51.512543 34.316567 50.947266 34.326172 z "
     id="path920" />
</svg>
