<svg xmlns="http://www.w3.org/2000/svg" width="100" height="100" viewBox="0 0 100 100">
  <defs>
    <style>
      .cls-1 {
        fill: #fff;
        fill-rule: evenodd;
      }
    </style>
  </defs>
  <path class="cls-1" d="M47.959,8.989c0.8,0,1.263.014,1.312,0.016l0.112,0h1.235l0.1,0c0.055,0,.519-0.016,1.319-0.016,4.839,0,20.732.505,34.648,6.565-1.02,13.822-3.873,40.965-8.638,49.87C73.463,74,58.1,85.037,50,90.241c-8.1-5.2-23.451-16.22-28.051-24.817-4.764-8.905-7.617-36.049-8.638-49.87,13.917-6.06,29.81-6.565,34.649-6.565m4.082-6.074c-0.989,0-1.535.02-1.535,0.02H49.494s-0.545-.02-1.535-0.02c-5.551,0-25.09.629-40.984,8.937,0,0,2.531,43.192,9.617,56.437s32.9,28.795,32.9,28.795h1.012s25.815-15.549,32.9-28.795,9.617-56.437,9.617-56.437C77.13,3.544,57.59,2.915,52.041,2.915h0ZM50,14.982a27.8,27.8,0,1,0,27.8,27.8A27.8,27.8,0,0,0,50,14.982ZM67.558,59.6a1.946,1.946,0,0,1-1.166.388q-0.838.076-2.3,0.076-1.524,0-2.377-.045a5.9,5.9,0,0,1-1.3-.18,1.187,1.187,0,0,1-.629-0.373,2.032,2.032,0,0,1-.3-0.628l-2.6-7.778H42.344l-2.453,7.568a2.476,2.476,0,0,1-.314.7,1.29,1.29,0,0,1-.628.449,4.652,4.652,0,0,1-1.227.224q-0.792.059-2.079,0.059a19.985,19.985,0,0,1-2.154-.09,1.629,1.629,0,0,1-1.076-.434,1.168,1.168,0,0,1-.21-0.972,9.741,9.741,0,0,1,.449-1.675L44.587,22.556a3.041,3.041,0,0,1,.419-0.822,1.483,1.483,0,0,1,.763-0.479,6.042,6.042,0,0,1,1.451-.208Q48.146,21,49.671,21q1.766,0,2.812.045a7.506,7.506,0,0,1,1.63.208,1.567,1.567,0,0,1,.838.494,2.926,2.926,0,0,1,.433.9L67.35,56.954A10.6,10.6,0,0,1,67.8,58.66,1.03,1.03,0,0,1,67.558,59.6ZM49.553,28.569L44.078,45.02H55.056l-5.474-16.45H49.553Z"/>
</svg>
