<svg xmlns="http://www.w3.org/2000/svg" width="150" height="150" viewBox="0 0 150 150">
  <defs>
    <style>
      .cls-1 {
        fill: #754c29;
      }

      .cls-1, .cls-2, .cls-3, .cls-4, .cls-5 {
        fill-rule: evenodd;
      }

      .cls-2 {
        fill: #b83027;
      }

      .cls-3 {
        fill: #231f20;
      }

      .cls-4 {
        fill: #f7ba3f;
      }

      .cls-5 {
        fill: #f7f7f7;
      }
    </style>
  </defs>
  <g id="ussr_moscow_event_antitank_1_icon_по_рефу_ussr_antitank_" data-name="ussr_moscow_event_antitank_1_icon по рефу ussr_antitank ">
    <path id="Shape_1_copy_7" data-name="Shape 1 copy 7" class="cls-1" d="M71.156,125.147a88.45,88.45,0,0,0-31.728,5.816c3.494,5.621,7.687,16.477,7.687,16.477,5.451-1.939,24.04-2.714,24.04-2.714h7.687s18.589,0.775,24.04,2.714c0,0,4.193-10.856,7.687-16.477a88.448,88.448,0,0,0-31.727-5.816H71.156Z"/>
    <path id="Shape_1_copy_7-2" data-name="Shape 1 copy 7" class="cls-2" d="M75,1.989L91.244,51.983H143.81l-42.527,30.9,16.244,49.994L75,101.976l-42.527,30.9L48.717,82.88,6.19,51.983H58.756Z"/>
    <path class="cls-3" d="M124.816,116.976a3.386,3.386,0,0,1-4.758.6,3.247,3.247,0,0,1-.862-1.063c-2.534,1.849-5.514,2.4-7.861,1.421H111.25l-0.086-.069c-0.082-.037-0.17-0.061-0.251-0.1,0.037,0,.084-0.006.122,0l-1.391-1.125a8.139,8.139,0,0,1-3.449.958,3.3,3.3,0,0,1-2.116-.672c-0.958-.767-1.316-2.128-1.2-3.8l0,0,0.009-.075c0.01-.129,0-0.245.016-0.377l0.024,0.023,0.165-1.444L89.2,99.126a5.4,5.4,0,0,1-2.07.515,2.172,2.172,0,0,1-1.394-.439C85,98.616,84.791,97.5,85,96.1l-0.5-1.073-9.549-8.335-9.362,8.151-0.6,1.2c0.223,1.426.012,2.562-.729,3.156a2.171,2.171,0,0,1-1.394.439,5.509,5.509,0,0,1-2.149-.554L55.308,103.8l-8.475,7.4,0.259,1.474,0,0c0.228,1.885-.131,3.412-1.178,4.251a3.3,3.3,0,0,1-2.116.672,8.015,8.015,0,0,1-3.31-.9L39,118H38.509a8.292,8.292,0,0,1-7.708-1.484,3.235,3.235,0,0,1-.862,1.063,3.447,3.447,0,0,1-4.3-5.387,3.231,3.231,0,0,1,1.224-.608c-1.309-3.039-1.124-6.257.581-8.335l0.006-.063,1.372-1.032c-0.562-2.429-.288-4.429.971-5.438a3.273,3.273,0,0,1,2.1-.665,6.925,6.925,0,0,1,2.3.449l-0.055.037,1.376,0.6L45.4,89.871l5.011-3.684c-0.319-1.594-.126-2.862.676-3.5a2.153,2.153,0,0,1,1.383-.435,5.212,5.212,0,0,1,1.932.443v0l1.21-.33,7.812-5.742L54.376,68.73a4.97,4.97,0,0,1-2.293.758,1.556,1.556,0,0,1-1-.314c-0.579-.464-0.713-1.393-0.477-2.579l0.021,0V65.455L36.5,53.125l0-.014c-0.039-.026-0.086-0.037-0.122-0.067a1.8,1.8,0,0,1-.448-0.562l-0.078-.188c-0.554-1.306,0-3.469,1.523-5.374s3.5-2.925,4.9-2.671l0.2,0.035a1.8,1.8,0,0,1,.646.314c0.034,0.027.054,0.068,0.085,0.1L58.46,55.917l1.1-.48,0,0.039a4.021,4.021,0,0,1,1.5-.367,1.544,1.544,0,0,1,.992.311c0.7,0.56.746,1.8,0.279,3.347L75.018,68.1,87.67,58.8c-0.478-1.564-.432-2.812.272-3.376a1.544,1.544,0,0,1,.992-0.311,4.121,4.121,0,0,1,1.623.412c0,0.011-.005.026-0.01,0.037l0.865,0.487,15.144-11.133,0.044,0a1.681,1.681,0,0,1,.277-0.316,1.8,1.8,0,0,1,.646-0.314l0.2-.035c1.393-.254,3.376.767,4.9,2.671s2.076,4.068,1.522,5.374l-0.077.188a2.277,2.277,0,0,1-.156.2l0.023,0.078L113.655,53c-0.016.014-.022,0.035-0.038,0.048s-0.031.014-.045,0.024L99.233,65.554l0.13,1.043,0.029,0c0.235,1.186.1,2.115-.477,2.579a1.557,1.557,0,0,1-1,.314,4.991,4.991,0,0,1-2.315-.769l-9.037,7.868,7.8,5.74,1.322,0.3,0.007,0.036a5.145,5.145,0,0,1,1.836-.412,2.153,2.153,0,0,1,1.382.435c0.8,0.64.993,1.9,0.679,3.486l14.819,10.9,1.42-.552L115.8,96.5a6.925,6.925,0,0,1,2.3-.449,3.273,3.273,0,0,1,2.1.665c1.263,1.012,1.536,3.021.966,5.461,0,0,.381.249,1.357,1.035,1.732,2.077,1.923,5.316.607,8.372a3.228,3.228,0,0,1,1.224.608A3.4,3.4,0,0,1,124.816,116.976Z"/>
    <path id="Rounded_Rectangle_1" data-name="Rounded Rectangle 1" class="cls-3" d="M110.578,40.021l2.259,2.5a2.293,2.293,0,1,1-3.4,3.075l-2.258-2.5A2.293,2.293,0,1,1,110.578,40.021Zm-71.3,0-2.258,2.5a2.293,2.293,0,1,0,3.4,3.075l2.258-2.5A2.293,2.293,0,1,0,39.276,40.021Z"/>
    <path id="Shape_24_copy" data-name="Shape 24 copy" class="cls-4" d="M87.127,93.641a2.172,2.172,0,0,1-1.394-.439c-0.756-.606-0.967-1.773-0.721-3.241a2.857,2.857,0,0,0,.564.054c1.988,0,4.84-1.8,7.176-4.727,2.567-3.218,3.671-6.745,2.846-8.595a5.212,5.212,0,0,1,1.932-.443,2.153,2.153,0,0,1,1.382.435c1.876,1.5.447,6.42-3.192,10.981C92.8,91.323,89.349,93.641,87.127,93.641Zm-30.2-37.056c2.152-2.7,3.137-5.6,2.512-7.064a4.121,4.121,0,0,1,1.623-.412,1.543,1.543,0,0,1,.992.311c1.444,1.157.159,5.174-2.871,8.972-2.473,3.1-5.344,5.1-7.1,5.1a1.556,1.556,0,0,1-1-.314c-0.579-.464-0.713-1.393-0.477-2.579a2.086,2.086,0,0,0,.382.034C52.567,60.628,54.943,59.073,56.928,56.585ZM37.377,40.921c1.52-1.9,3.5-2.925,4.9-2.671l0.2,0.035a1.8,1.8,0,0,1,.646.314,1.779,1.779,0,0,1,.389.445L58.567,50.092c0.284,1.078-.5,3.464-2.416,5.87s-4.053,3.669-5.164,3.669h0L36.9,47.327a1.773,1.773,0,0,1-.518-0.282,1.8,1.8,0,0,1-.448-0.562l-0.078-.188C35.3,44.988,35.857,42.826,37.377,40.921ZM37.52,45.2c0.678,0.543,2.136-.155,3.257-1.56s1.48-2.984.8-3.527-2.137.155-3.257,1.559S36.841,44.661,37.52,45.2ZM106.2,111.6a3.3,3.3,0,0,1-2.116-.672c-1.047-.839-1.407-2.366-1.179-4.251,0.066,0.063.125,0.132,0.2,0.189a3.6,3.6,0,0,0,2.306.743c2.56,0,5.93-1.983,8.582-5.307,3.572-4.477,4.489-9.692,2.047-11.648-0.072-.057-0.152-0.1-0.228-0.15a6.925,6.925,0,0,1,2.3-.449,3.273,3.273,0,0,1,2.1.665c2.576,2.064,1.055,8.261-3.4,13.841C113.336,108.905,109.11,111.6,106.2,111.6Zm9.273-19.738c0.8,0.643.973,1.925,0.617,3.5h0a18.48,18.48,0,0,1-8.39,10.515h0c-1.459.7-2.745,0.811-3.548,0.168l-0.008.01-12.821-11.2a19.923,19.923,0,0,0,6.4-5.591,19.975,19.975,0,0,0,4.035-7.486Zm3.359,14.32c2.865-3.591,4.35-7.311,3.7-8.966,1.732,2.077,1.923,5.316.607,8.372a3.228,3.228,0,0,1,1.224.608,3.447,3.447,0,0,1-4.3,5.387,3.247,3.247,0,0,1-.862-1.063c-2.685,1.96-5.88,2.485-8.283,1.25C112.668,112.038,115.963,109.768,118.827,106.178ZM72.794,60.532L64.5,54.447a24.479,24.479,0,0,1-3.386,5.492,24.446,24.446,0,0,1-4.6,4.519l5.066,4.425ZM94.69,77.1l-0.333-.747-5.423-3.979L77.414,82.713l6.995,6.109,0.8,0.161a1.871,1.871,0,0,0,.368.034c1.409,0,4.012-1.362,6.4-4.353C94.512,81.485,95.267,78.394,94.69,77.1ZM62.869,93.641a2.171,2.171,0,0,0,1.394-.439c0.757-.606.967-1.773,0.721-3.241a2.856,2.856,0,0,1-.564.054c-1.988,0-4.84-1.8-7.176-4.727-2.568-3.218-3.671-6.745-2.846-8.595a5.212,5.212,0,0,0-1.932-.443,2.153,2.153,0,0,0-1.383.435c-1.876,1.5-.447,6.42,3.192,10.981C57.195,91.323,60.648,93.641,62.869,93.641Zm30.2-37.056c-2.152-2.7-3.137-5.6-2.512-7.064a4.121,4.121,0,0,0-1.623-.412,1.543,1.543,0,0,0-.992.311c-1.444,1.157-.159,5.174,2.872,8.972,2.473,3.1,5.344,5.1,7.1,5.1a1.557,1.557,0,0,0,1-.314c0.579-.464.713-1.393,0.477-2.579a2.088,2.088,0,0,1-.382.034C97.43,60.628,95.054,59.073,93.069,56.585ZM112.62,40.921c-1.52-1.9-3.5-2.925-4.9-2.671l-0.2.035a1.651,1.651,0,0,0-1.035.759L91.43,50.092c-0.284,1.078.5,3.464,2.416,5.87s4.053,3.669,5.164,3.669h0l14.088-12.3a1.779,1.779,0,0,0,.519-0.282,1.807,1.807,0,0,0,.448-0.562l0.077-.188C114.7,44.988,114.139,42.826,112.62,40.921ZM112.477,45.2c-0.678.543-2.136-.155-3.257-1.56s-1.479-2.984-.8-3.527,2.136,0.155,3.257,1.559S113.155,44.661,112.477,45.2ZM88.882,59.939A24.476,24.476,0,0,1,85.5,54.447L55.64,76.353l-0.333.747c-0.577,1.294.178,4.386,2.715,7.565,2.386,2.991,4.99,4.353,6.4,4.353a1.871,1.871,0,0,0,.368-0.034l0.8-.161,27.9-24.364A24.44,24.44,0,0,1,88.882,59.939ZM75.967,73.923a2.838,2.838,0,1,1,.444-3.992A2.83,2.83,0,0,1,75.967,73.923ZM43.8,111.6a3.3,3.3,0,0,0,2.116-.672c1.047-.839,1.406-2.366,1.178-4.251-0.066.063-.125,0.132-0.2,0.189a3.6,3.6,0,0,1-2.307.743c-2.559,0-5.93-1.983-8.582-5.307-3.572-4.477-4.488-9.692-2.047-11.648,0.072-.057.152-0.1,0.228-0.15a6.925,6.925,0,0,0-2.3-.449,3.273,3.273,0,0,0-2.1.665c-2.576,2.064-1.055,8.261,3.4,13.841C36.661,108.905,40.886,111.6,43.8,111.6ZM34.529,91.858c-0.8.643-.974,1.925-0.617,3.5h0a20.64,20.64,0,0,0,3.283,6.146,20.474,20.474,0,0,0,5.107,4.369s0,0,0,0c1.459,0.7,2.746.811,3.548,0.168l0.008,0.01,12.821-11.2a19.923,19.923,0,0,1-6.4-5.591,19.965,19.965,0,0,1-4.035-7.486Zm-3.36,14.32c-2.865-3.591-4.35-7.311-3.7-8.966-1.732,2.077-1.923,5.316-.607,8.372a3.231,3.231,0,0,0-1.224.608,3.447,3.447,0,0,0,4.3,5.387,3.235,3.235,0,0,0,.862-1.063c2.685,1.96,5.88,2.485,8.283,1.25C37.329,112.038,34.034,109.768,31.169,106.178Z"/>
    <path id="_308" data-name="308" class="cls-5" d="M62.512,128.3a6.79,6.79,0,0,0-4.979,2l1.932,2.076a3.577,3.577,0,0,1,2.549-1.161,1.721,1.721,0,0,1,1.125.336,1.159,1.159,0,0,1,.408.947,1.314,1.314,0,0,1-.418,1.028,1.791,1.791,0,0,1-1.235.376H61.078l-0.438,2.687h1.195a2.191,2.191,0,0,1,1.464.407,1.613,1.613,0,0,1,.468,1.282,1.449,1.449,0,0,1-.488,1.18,1.905,1.905,0,0,1-1.265.408,3.076,3.076,0,0,1-1.364-.3,5.049,5.049,0,0,1-1.3-.987l-2.051,2.056a6.042,6.042,0,0,0,5,2.239,7.064,7.064,0,0,0,3-.58,4.341,4.341,0,0,0,1.872-1.547,3.828,3.828,0,0,0,.627-2.127,3.253,3.253,0,0,0-.876-2.453,3.789,3.789,0,0,0-2.25-1.007,3.936,3.936,0,0,0,1.991-1.262,3.273,3.273,0,0,0,.677-2.1,3.076,3.076,0,0,0-.558-1.812,3.631,3.631,0,0,0-1.643-1.241,6.852,6.852,0,0,0-2.619-.448h0Zm12.665,0a4.753,4.753,0,0,0-4.043,1.883,8.831,8.831,0,0,0-1.414,5.383,8.929,8.929,0,0,0,1.414,5.4,5.245,5.245,0,0,0,8.085,0,8.931,8.931,0,0,0,1.414-5.4,8.833,8.833,0,0,0-1.414-5.383,4.754,4.754,0,0,0-4.043-1.883h0Zm0,2.91a1.1,1.1,0,0,1,.876.346,2.569,2.569,0,0,1,.428,1.273,28.9,28.9,0,0,1,0,5.464,2.656,2.656,0,0,1-.428,1.293,1.08,1.08,0,0,1-.876.356,1.045,1.045,0,0,1-.866-0.387,2.771,2.771,0,0,1-.438-1.313,27.631,27.631,0,0,1,0-5.342,2.722,2.722,0,0,1,.438-1.313,1.058,1.058,0,0,1,.866-0.377h0Zm15.911,3.827a4.374,4.374,0,0,0,1.573-1.445,3.176,3.176,0,0,0,.518-1.69,3.062,3.062,0,0,0-1.364-2.635,6.238,6.238,0,0,0-3.674-.967,6.671,6.671,0,0,0-2.668.5,4.113,4.113,0,0,0-1.772,1.363,3.267,3.267,0,0,0-.617,1.944,3.833,3.833,0,0,0,1.892,3.318,4.33,4.33,0,0,0-1.782,1.353,3.237,3.237,0,0,0-.627,1.984,3.536,3.536,0,0,0,.647,2.056,4.448,4.448,0,0,0,1.882,1.5,7.1,7.1,0,0,0,2.947.56,7.479,7.479,0,0,0,3.067-.57,4.493,4.493,0,0,0,1.932-1.527A3.59,3.59,0,0,0,93.7,138.7a3.509,3.509,0,0,0-.627-2.045,5.406,5.406,0,0,0-1.981-1.618h0Zm-2.927-4.112a1.191,1.191,0,0,1,.906.326,1.22,1.22,0,0,1,.309.875,2.665,2.665,0,0,1-.179,1,2.225,2.225,0,0,1-.717.875L88,133.8a2.156,2.156,0,0,1-.856-0.7,1.654,1.654,0,0,1-.259-0.926,1.2,1.2,0,0,1,.338-0.926,1.321,1.321,0,0,1,.936-0.316h0Zm0.02,9.139a1.773,1.773,0,0,1-1.245-.427,1.445,1.445,0,0,1-.468-1.12,2.508,2.508,0,0,1,.249-1.119,2.226,2.226,0,0,1,.747-0.855l0.757,0.285a3.609,3.609,0,0,1,1.215.753,1.5,1.5,0,0,1,.359,1.058,1.38,1.38,0,0,1-.408,1.018,1.634,1.634,0,0,1-1.2.407h0Z"/>
  </g>
</svg>
