<svg xmlns="http://www.w3.org/2000/svg" width="50" height="50" viewBox="0 0 50 50">
  <metadata><?xpacket begin="﻿" id="W5M0MpCehiHzreSzNTczkc9d"?>
<x:xmpmeta xmlns:x="adobe:ns:meta/" x:xmptk="Adobe XMP Core 5.6-c138 79.159824, 2016/09/14-01:09:01        ">
   <rdf:RDF xmlns:rdf="http://www.w3.org/1999/02/22-rdf-syntax-ns#">
      <rdf:Description rdf:about=""/>
   </rdf:RDF>
</x:xmpmeta>
                                                                                                    
                                                                                                    
                                                                                                    
                                                                                                    
                                                                                                    
                                                                                                    
                                                                                                    
                                                                                                    
                                                                                                    
                                                                                                    
                                                                                                    
                                                                                                    
                                                                                                    
                                                                                                    
                                                                                                    
                                                                                                    
                                                                                                    
                                                                                                    
                                                                                                    
                                                                                                    
                           
<?xpacket end="w"?></metadata>
<defs>
    <style>
      .cls-1 {
        fill: #fff;
        fill-rule: evenodd;
      }
    </style>
  </defs>
  <path id="kill_headshot" class="cls-1" d="M49.3,20.032a5.767,5.767,0,0,1-1.059-.743c-0.264-.3.3-1.453,0.3-1.453L49.8,16.806l0.155,1.5Zm-2.736-3.477c-0.05.026-.1,0.022-0.154,0.044a2.107,2.107,0,0,1-1.13.364,2.163,2.163,0,0,1-.812-4.17c0.043-.026.069-0.068,0.114-0.091,1.064-.547,3.58-0.845,4.127.219S47.627,16.008,46.562,16.555ZM44.687,9.708c-0.315-.039.569-1.79,0.569-1.79l0.655-.4,1.736,0.96L46.5,9.7S45,9.747,44.687,9.708Zm0.185,8.412c0.224,0.374-.5.886-0.973,1.056s-0.963-.842-0.963-0.842S44.647,17.746,44.872,18.12Zm-5.966,6.186v1.133l0.979,1.753A8.762,8.762,0,0,1,41.1,30.055a13.1,13.1,0,0,1-.337,3.3,8.54,8.54,0,0,1-2.4,2.806l0.54,2.482c-0.139,1.163-3.849,4.118-4.661,3.576a11.5,11.5,0,0,1-2.232-1.579c-0.159.021-3.309-1.886-3.379-1.786-0.087.123,2.924,2.268,2.913,2.456v3.182l-0.689.97V48.83L29.739,50H29.392l-0.058-.141,0.029-.5-0.1.638h-0.3l-0.174-2.273-0.163,1.92L28.463,50H28.3l-0.219-.1-0.04.1H27.2l-0.093-.062L26.962,50H26.791l-0.1-.342-0.144-1.932-0.177,1.93-0.2.344-1.52,0-0.2-.341L24.3,47.727l-0.12,1.927L23.973,50H23.524l-0.02-.817-0.041.632L23.411,50H22.328l-0.165-.344L22.04,47.727,21.9,49.654,21.766,50H20.143l-0.165-.344L19.8,47.727,19.657,49.65l-0.184.3L19.107,50H18.356L17.9,49.953l-0.181-.3-0.166-1.929-0.147,1.935L17.256,50H16.509L15.482,48.83V45.456l-0.689-.97V41.3c-0.012-.209,1.786-1.763,1.676-1.888-0.069-.079-2,1.236-2.142,1.218A11.5,11.5,0,0,1,12.1,42.214c-0.812.542-4.521-2.412-4.661-3.576l0.45-2.454a8.4,8.4,0,0,1-2.308-2.833,13.1,13.1,0,0,1-.337-3.3c0.318-1.914,1.792-3.333,2.2-5.053V22.728c-1.7-2.694-2.248-6.818-2.248-9.09C5.186,5.683,14.178,0,23.17,0S41.154,5.683,41.154,13.638c0,2.273-.551,6.4-2.248,9.091v1.577ZM18.584,14.076c-0.059-.62-1.734-0.276-2.315-0.566a2.975,2.975,0,0,0-2.216-.384,5.2,5.2,0,0,0-2.418,2.65,7.827,7.827,0,0,0,.389,2.344l1.837,0.158a8.932,8.932,0,0,0,1.019,1.477c0.414,0.4,2.334.025,2.793-.576a7.709,7.709,0,0,0,1.561-2.571C19.392,15.741,18.643,14.7,18.584,14.076Zm2.024,16.608L11.938,27.7c-1.443.656-2.623,1.819-2.255,1.847a4.931,4.931,0,0,0,.282,3.577c0.626,1.083,1.461,2.25,3.09,2.1a31.175,31.175,0,0,0,7.555-3.409A0.653,0.653,0,0,0,20.609,30.684ZM23.17,34.1a14.651,14.651,0,0,0-2.232,6.228c0,0.9.387,1.277,0.633,0.532,0.369-.736,2.8-1.006,3.2,0,0.246,0.745.635,0.365,0.633-.532A14.654,14.654,0,0,0,23.17,34.1ZM34.4,27.7l-8.671,2.983a0.653,0.653,0,0,0,0,1.136,31.175,31.175,0,0,0,7.555,3.409c1.629,0.145,2.464-1.021,3.09-2.1a4.931,4.931,0,0,0,.282-3.577C37.107,29.557,35.7,28.277,34.4,27.7Zm13.117-5.056a10.664,10.664,0,0,1-1.076-.6,3.977,3.977,0,0,1-.583-1.186,9.645,9.645,0,0,1,1.912-.266Z"/>
</svg>
