<svg xmlns="http://www.w3.org/2000/svg" width="50" height="50" viewBox="0 0 50 50">
  <metadata><?xpacket begin="﻿" id="W5M0MpCehiHzreSzNTczkc9d"?>
<x:xmpmeta xmlns:x="adobe:ns:meta/" x:xmptk="Adobe XMP Core 5.6-c138 79.159824, 2016/09/14-01:09:01        ">
   <rdf:RDF xmlns:rdf="http://www.w3.org/1999/02/22-rdf-syntax-ns#">
      <rdf:Description rdf:about=""/>
   </rdf:RDF>
</x:xmpmeta>
                                                                                                    
                                                                                                    
                                                                                                    
                                                                                                    
                                                                                                    
                                                                                                    
                                                                                                    
                                                                                                    
                                                                                                    
                                                                                                    
                                                                                                    
                                                                                                    
                                                                                                    
                                                                                                    
                                                                                                    
                                                                                                    
                                                                                                    
                                                                                                    
                                                                                                    
                                                                                                    
                           
<?xpacket end="w"?></metadata>
<defs>
    <style>
      .cls-1 {
        fill: #fff;
        fill-rule: evenodd;
      }
    </style>
  </defs>
  <path id="kill_grenade" class="cls-1" d="M31,50A16.994,16.994,0,0,1,20.057,20H41.943A16.994,16.994,0,0,1,31,50ZM39.965,6H37.826a35.388,35.388,0,0,1,2.128,11H22.045a40.446,40.446,0,0,1,.709-5.991,9.568,9.568,0,0,0-2.8.985C19.982,12.325,20,12.66,20,13a9.994,9.994,0,0,1-8.361,9.854A46.135,46.135,0,0,0,9.647,37.915a2.069,2.069,0,0,1-4.134.159,66.284,66.284,0,0,1,.971-15.722A9.993,9.993,0,1,1,15,4.349,23.211,23.211,0,0,1,20.8,0H39.965A3,3,0,1,1,39.965,6ZM16.882,14.174a18.152,18.152,0,0,0-3.728,5.043A6.97,6.97,0,0,0,16.882,14.174ZM3,13a6.991,6.991,0,0,0,4.145,6.379A35.088,35.088,0,0,1,12.978,6.688,6.961,6.961,0,0,0,3,13Z"/>
</svg>
