<?xml version="1.0" encoding="UTF-8" standalone="no"?>
<svg
   xmlns:x="adobe:ns:meta/"
   xmlns:dc="http://purl.org/dc/elements/1.1/"
   xmlns:cc="http://creativecommons.org/ns#"
   xmlns:rdf="http://www.w3.org/1999/02/22-rdf-syntax-ns#"
   xmlns:svg="http://www.w3.org/2000/svg"
   xmlns="http://www.w3.org/2000/svg"
   xmlns:sodipodi="http://sodipodi.sourceforge.net/DTD/sodipodi-0.dtd"
   xmlns:inkscape="http://www.inkscape.org/namespaces/inkscape"
   width="50"
   height="50"
   viewBox="0 0 50 50"
   version="1.1"
   id="svg9"
   sodipodi:docname="kill_explosion.svg"
   inkscape:version="0.92.1 r15371">
  <sodipodi:namedview
     pagecolor="#ffffff"
     bordercolor="#666666"
     borderopacity="1"
     objecttolerance="10"
     gridtolerance="10"
     guidetolerance="10"
     inkscape:pageopacity="0"
     inkscape:pageshadow="2"
     inkscape:window-width="2416"
     inkscape:window-height="1616"
     id="namedview11"
     showgrid="false"
     inkscape:pagecheckerboard="true"
     inkscape:zoom="4.72"
     inkscape:cx="-85.076468"
     inkscape:cy="71.913337"
     inkscape:window-x="0"
     inkscape:window-y="60"
     inkscape:window-maximized="0"
     inkscape:current-layer="svg9" />
  <metadata
     id="metadata2">
<?xpacket begin="ÿ" id="W5M0MpCehiHzreSzNTczkc9d"?>    <x:xmpmeta
       x:xmptk="Adobe XMP Core 5.6-c138 79.159824, 2016/09/14-01:09:01        ">
      <metadata>
        <rdf:RDF>
          <rdf:Description
             rdf:about="" />
          <cc:Work
             rdf:about="">
            <dc:format>image/svg+xml</dc:format>
            <dc:type
               rdf:resource="http://purl.org/dc/dcmitype/StillImage" />
            <dc:title></dc:title>
          </cc:Work>
        </rdf:RDF>
      </metadata>
    </x:xmpmeta>
<?xpacket end="w"?>  </metadata>
  <defs
     id="defs6">
    <style
       id="style4">
      .cls-1 {
        fill: #fff;
        fill-rule: evenodd;
      }
    </style>
  </defs>
  <path
     style="fill:#ffffff;fill-opacity:1;stroke:none;stroke-width:4;stroke-linecap:butt;stroke-linejoin:miter;stroke-miterlimit:4;stroke-dasharray:none;stroke-opacity:1"
     d="M 31.759766,2.8105469 25.017578,22.583984 15.880859,6.5546875 17.378906,24.419045 3.5957031,13.896484 13.931641,28.277344 2.6972656,29.175781 15.28125,34.419922 9.4375,41.910156 22.621094,37.865234 30.261719,42.509766 31.609375,37.566406 45.09375,41.310547 39.400391,35.019531 39.25,34.419922 c 0.749054,0 7.791016,-5.542969 7.791016,-5.542969 H 37.453125 L 42.996094,16.142578 32.509766,25.28125 c 0,0 -0.461949,-19.0278299 -0.75,-22.4707031 z M 28.044922,24.576172 c 0.134637,1.778269 1.621094,4.722656 1.621094,4.722656 l 2.835937,-0.695312 -2.088081,2.957825 2.920112,0.811706 c 0,0 -2.378697,0.822502 -2.728812,0.822502 0.191744,0.690414 0.906228,1.456478 1.423484,1.936684 l -3.788422,-0.813874 -0.736328,2.394532 -3.359375,-1.550782 -4.177116,0.928811 1.419624,-2.783013 -3.098519,-1.997489 2.875542,-1.38073 v 0 l 0.570313,-3.576172 3.423828,2.453125 z"
     id="path5086"
     inkscape:connector-curvature="0"
     sodipodi:nodetypes="cccccccccccccccccccccccccccccccccccccc" />
  <ellipse
     style="fill:#ffffff;fill-opacity:1;stroke:none;stroke-width:4;stroke-miterlimit:4;stroke-dasharray:none;stroke-opacity:1;paint-order:markers stroke fill"
     id="path5114"
     cx="25.635593"
     cy="31.859112"
     rx="3.0720339"
     ry="2.7807202"
     inkscape:transform-center-x="0.74152542"
     inkscape:transform-center-y="0.63559322" />
</svg>
