<svg id="wire_fence" xmlns="http://www.w3.org/2000/svg" width="200" height="200" viewBox="0 0 200 200">
  <defs>
    <style>
      .cls-1 {
        fill: #1e1e1e;
      }

      .cls-1, .cls-2 {
        fill-rule: evenodd;
      }

      .cls-2 {
        fill: #fff;
      }
    </style>
  </defs>
  <path class="cls-1" d="M189.9,125.1l-41.663.116,20.549,47.025a5.912,5.912,0,0,1-8.534,7.392L134.5,163.66A5.913,5.913,0,0,1,132.2,161l-10.1-23.1a15.218,15.218,0,0,1-5.817,6.472,13.482,13.482,0,0,1-6.942,1.953c-5.588,0-10.561-3.42-13-8.929-0.027.048-.051,0.1-0.079,0.146a15.222,15.222,0,0,1-2.721,3.437,14.3,14.3,0,0,1-2.423,1.838,13.8,13.8,0,0,1-1.23.654l-0.223.1c-0.4.18-.815,0.343-1.237,0.484-0.072.025-.145,0.048-0.217,0.07l-0.024.008a13.3,13.3,0,0,1-1.3.34l-0.161.031c-0.38.073-.768,0.128-1.177,0.169-0.08.009-.16,0.017-0.247,0.024-0.37.029-.709,0.044-1.039,0.044-0.111,0-.221,0-0.333-0.009q-0.11,0-.219-0.009H83.692c-0.341-.015-0.684-0.044-1.023-0.086-0.111-.012-0.221-0.025-0.326-0.041-0.427-.064-0.853-0.149-1.264-0.252-0.1-.025-0.2-0.053-0.3-0.083-0.326-.091-0.654-0.195-0.973-0.31l-0.027-.01c-0.1-.036-0.2-0.072-0.3-0.112-0.425-.166-0.81-0.336-1.189-0.527q-0.083-.042-0.165-0.087c-0.314-.164-0.627-0.345-0.954-0.551-0.1-.062-0.2-0.126-0.3-0.192-0.293-.195-0.579-0.4-0.846-0.608-0.071-.053-0.141-0.107-0.214-0.166-0.325-.262-0.64-0.541-0.97-0.86-0.071-.068-0.14-0.138-0.209-0.209l-0.022-.023q-0.363-.366-0.713-0.773c-0.069-.078-0.137-0.158-0.2-0.237-0.235-.285-0.457-0.579-0.668-0.877L63.29,161a5.917,5.917,0,0,1-2.3,2.657L35.234,179.634a5.913,5.913,0,0,1-8.535-7.392l20.549-47.025L10.1,125.1a5.912,5.912,0,0,1-5.913-5.912V93.88A5.913,5.913,0,0,1,10.1,87.968l40.355-.057L38.747,61.118a5.914,5.914,0,0,1-.454-3.057L42.27,24.2a5.913,5.913,0,0,1,11.29-1.678L74.521,70.492a15.076,15.076,0,0,1,5.364-5.6,13.483,13.483,0,0,1,6.942-1.953c5.6,0,10.584,3.435,13.017,8.966a14.932,14.932,0,0,1,5.681-6.276,13.726,13.726,0,0,1,1.231-.654q0.109-.053.222-0.1c0.4-.181.817-0.344,1.239-0.486l0.211-.068,0.023-.007a13.088,13.088,0,0,1,1.315-.345l0.148-.028c0.382-.073.77-0.129,1.177-0.169,0.082-.009.163-0.017,0.247-0.024,0.369-.03.709-0.044,1.039-0.044,0.111,0,.222,0,0.334.008l0.218,0.009h0.024c0.34,0.015.683,0.044,1.025,0.086,0.108,0.012.216,0.025,0.324,0.041,0.426,0.063.851,0.148,1.267,0.253,0.1,0.025.2,0.053,0.306,0.084,0.323,0.089.648,0.193,0.964,0.307l0.024,0.009c0.105,0.037.209,0.076,0.307,0.114,0.425,0.166.81,0.337,1.183,0.525q0.092,0.046.183,0.1c0.309,0.162.616,0.34,0.928,0.536,0.106,0.066.211,0.134,0.317,0.2,0.286,0.191.568,0.393,0.836,0.6,0.078,0.058.154,0.116,0.223,0.172,0.324,0.262.638,0.54,0.954,0.846,0.077,0.073.151,0.149,0.226,0.225l0.022,0.022c0.239,0.242.475,0.5,0.712,0.773,0.068,0.078.136,0.157,0.2,0.234,0.279,0.339.544,0.689,0.78,1.032,0.057,0.083.113,0.168,0.172,0.26,0.191,0.289.377,0.593,0.552,0.9,0.062,0.108.123,0.217,0.181,0.325,0.229,0.425.423,0.82,0.593,1.208l0.012,0.027,3.02,6.912,24.9-56.983a5.912,5.912,0,0,1,11.29,1.678l3.977,33.86a5.9,5.9,0,0,1-.454,3.057L156.27,87.91,189.9,87.968a5.913,5.913,0,0,1,5.913,5.913v25.309A5.912,5.912,0,0,1,189.9,125.1Z"/>
  <path id="Shape_2_copy" data-name="Shape 2 copy" class="cls-2" d="M141.429,107.106h0l21.13-48.355-3.977-33.86h0l-26.54,60.735,9.387,21.481h0ZM48.142,24.891h0l-3.977,33.86L76.829,133.5v0c0.117,0.268.246,0.523,0.381,0.773,0.037,0.068.075,0.136,0.114,0.2,0.115,0.2.236,0.4,0.362,0.589,0.029,0.044.056,0.089,0.085,0.132,0.154,0.223.316,0.436,0.484,0.641,0.041,0.05.085,0.1,0.127,0.147q0.207,0.242.427,0.463c0.047,0.047.093,0.095,0.14,0.141,0.185,0.179.375,0.349,0.571,0.508,0.031,0.025.064,0.047,0.1,0.072,0.171,0.134.346,0.259,0.524,0.378l0.172,0.112c0.2,0.123.394,0.238,0.6,0.342,0.016,0.009.032,0.019,0.049,0.027,0.218,0.11.441,0.206,0.666,0.294,0.061,0.024.122,0.045,0.183,0.067q0.278,0.1.561,0.178c0.049,0.013.1,0.029,0.148,0.042q0.346,0.087.7,0.139c0.054,0.008.108,0.013,0.163,0.02q0.287,0.036.576,0.048c0.063,0,.127.007,0.19,0.008,0.041,0,.082,0,0.124,0,0.189,0,.378-0.01.567-0.025,0.041,0,.081-0.009.122-0.013a7.112,7.112,0,0,0,.705-0.1l0.037-.006c0.24-.05.48-0.115,0.718-0.19l0.135-.043q0.347-.117.689-0.27l0.127-.06a7.777,7.777,0,0,0,.7-0.373,8.347,8.347,0,0,0,1.42-1.078,9.339,9.339,0,0,0,1.663-2.105,11.257,11.257,0,0,0,.539-10.009ZM157.668,93.88l-5.951,14.878v0.029l4.623,10.4H189.9V93.88H157.668ZM59.642,111.62L32.118,174.61h0l25.754-15.975L69.029,133.1l-7.7-17.629Zm60.174-36.68v0c-0.118-.268-0.247-0.523-0.381-0.773-0.037-.069-0.076-0.137-0.115-0.2q-0.171-.3-0.36-0.586c-0.03-.044-0.057-0.091-0.087-0.134-0.154-.223-0.316-0.435-0.483-0.639-0.043-.051-0.087-0.1-0.13-0.15q-0.206-.239-0.423-0.46c-0.048-.048-0.095-0.1-0.143-0.144-0.185-.178-0.374-0.348-0.569-0.506-0.033-.027-0.068-0.05-0.1-0.076-0.169-.132-0.342-0.256-0.517-0.373l-0.177-.115c-0.194-.122-0.39-0.236-0.591-0.339l-0.054-.03c-0.217-.11-0.44-0.205-0.664-0.293-0.062-.024-0.124-0.046-0.186-0.068q-0.276-.1-0.558-0.177c-0.05-.014-0.1-0.03-0.149-0.043q-0.346-.087-0.7-0.139c-0.054-.008-0.108-0.013-0.162-0.019q-0.287-.036-0.576-0.049c-0.063,0-.127-0.007-0.19-0.008-0.041,0-.083,0-0.124,0-0.189,0-.378.01-0.567,0.025l-0.122.012a7.088,7.088,0,0,0-.706.1l-0.036.006a7.325,7.325,0,0,0-.719.191l-0.134.042q-0.347.117-.69,0.27l-0.126.06a7.912,7.912,0,0,0-.7.372h0a9.524,9.524,0,0,0-4.14,5.716,11.272,11.272,0,0,0-.343,1.837c-0.032.312-.052,0.627-0.058,0.943a11.168,11.168,0,0,0,.919,4.7l32.665,74.752,25.753,15.975h0ZM94.444,74.3c-2.155-4.931-7.308-6.879-11.511-4.351h0c-4.2,2.528-5.863,8.575-3.708,13.507l22.5,51.5c2.155,4.931,7.308,6.879,11.511,4.351h0c4.2-2.528,5.863-8.575,3.708-13.506ZM51.012,108.787v-0.815L45.375,93.88H10.1v25.309H46.389Z"/>
</svg>
