<svg xmlns="http://www.w3.org/2000/svg" width="50" height="50" viewBox="0 0 50 50">
  <metadata><?xpacket begin="﻿" id="W5M0MpCehiHzreSzNTczkc9d"?>
<x:xmpmeta xmlns:x="adobe:ns:meta/" x:xmptk="Adobe XMP Core 5.6-c138 79.159824, 2016/09/14-01:09:01        ">
   <rdf:RDF xmlns:rdf="http://www.w3.org/1999/02/22-rdf-syntax-ns#">
      <rdf:Description rdf:about=""/>
   </rdf:RDF>
</x:xmpmeta>
                                                                                                    
                                                                                                    
                                                                                                    
                                                                                                    
                                                                                                    
                                                                                                    
                                                                                                    
                                                                                                    
                                                                                                    
                                                                                                    
                                                                                                    
                                                                                                    
                                                                                                    
                                                                                                    
                                                                                                    
                                                                                                    
                                                                                                    
                                                                                                    
                                                                                                    
                                                                                                    
                           
<?xpacket end="w"?></metadata>
<defs>
    <style>
      .cls-1 {
        fill: #fff;
        fill-rule: evenodd;
      }
    </style>
  </defs>
  <path id="kill_asphyxia" class="cls-1" d="M31.336,42.051A52.246,52.246,0,0,1,25.949,44.8L25.5,45H24.513l-0.461-.2a52.086,52.086,0,0,1-5.388-2.751c-7.142-4.185-12.242-8.64-15.29-13.065H9.348a49.71,49.71,0,0,0,11.686,9.078c1.287,0.754,2.617,1.451,3.966,2.08,1.35-.629,2.68-1.326,3.966-2.08C42.59,30.08,45.386,23.343,45.333,19.1A9.737,9.737,0,0,0,43.2,13.022c-2.47-2.946-6.32-3.352-7.86-3.389a12.306,12.306,0,0,0-8.695,3.544L25,14.807l-1.646-1.631A12.4,12.4,0,0,0,14.932,9.63c-0.09,0-.181,0-0.273,0-1.54.037-5.39,0.443-7.86,3.389a10.052,10.052,0,0,0-2.131,6.2c0,0.244.006,0.5,0.023,0.758H0.035C0.024,19.713,0,19.441,0,19.169a14.668,14.668,0,0,1,3.21-9.108c3.692-4.4,9.153-5,11.33-5.056A16.649,16.649,0,0,1,25,8.475,16.632,16.632,0,0,1,35.456,5c2.176,0.053,7.638.652,11.33,5.056A14.358,14.358,0,0,1,50,19.039C50.1,26.995,43.817,34.738,31.336,42.051ZM19.056,12.44l4.632,13.812,4.607-9.9L30.647,23h0.04a3.769,3.769,0,1,1,.031,3.009H28.491L27.91,24.369,23.228,34.434,18.572,20.547l-4.282,9.037L12.265,26.01H2.009V23l12.04,0Z"/>
</svg>
