<?xml version="1.0" encoding="UTF-8"?>
<svg id="speed_perks" xmlns="http://www.w3.org/2000/svg" width="50" height="50" viewBox="0 0 50 50">
  <defs>
    <style>
      .cls-1 {
        fill: #fff;
        fill-rule: evenodd;
      }
    </style>
  </defs>
  <path class="cls-1" d="m10.18,21.27l-7.74,2.89-.67-1.8,8.66-3.23-4.15-2.26,1.08-1.98,3.61,1.97,1.8.29.27-1.68,1.82.29.24-1.49,1.92.31-.36,2.23,11.47-4.28-3.77-2.06,1.08-1.98,3.61,1.97,1.8.29.27-1.68,1.82.29.24-1.49,1.92.31-.3,1.86,13.27-4.95.67,1.8-12.49,4.66,2.85,1.56-1.08,1.98-3.71-2.02-.12.73-1.82-.29-.25,1.55-1.88-.3-.4,2.51-1.92-.31.39-2.45-9.77,3.64,2.48,1.35-1.08,1.98-3.71-2.02-.12.73-1.82-.29-.25,1.55-1.88-.3-.4,2.51-1.92-.31.33-2.08Zm25.42,5.44c-.38-1.9.86-3.75,2.77-4.13,1.9-.38,3.75.86,4.13,2.77.38,1.9-.86,3.75-2.77,4.13-1.9.38-3.75-.86-4.13-2.77Zm-14.27,8.14l1.46,5.04c.24.81-.12,1.68-.87,2.09l-9.78,5.35c-.87.48-1.97.16-2.45-.72-.48-.87-.16-1.97.72-2.45l8.51-4.65-2.01-6.94c-.05-.11-.1-.23-.14-.36-.46-1.48.36-3.05,1.84-3.51l11.22-3.5c.85-.27,1.73-.1,2.42.36.32.22,1.53,1.21,1.81,1.49.32.31.56.7.7,1.16.72.63,6,5.24,6,5.24l7.51-.27c.92-.03,1.68.68,1.72,1.6.03.92-.68,1.68-1.6,1.72l-8.17.29c-.42.02-.83-.13-1.15-.41l-5.6-4.9c-.2.11-.41.2-.64.26l-10.99,3.01c-.17.05-.34.08-.51.09Zm14.04.95l-4.92,2.01c-.45.18-.96.16-1.39-.07-.43-.23-.74-.63-.85-1.1l.13-1.59,4.7-1.29,2.34,2.04Zm-19.69-.29l-3.95,2.38c-.08.05-.17.09-.26.13l-8.51,3.27c-.85.33-1.81-.1-2.14-.95-.33-.85.1-1.81.95-2.14l8.37-3.21,4.57-2.75c.04.2.08.39.14.59.05.16.1.31.17.45,0,0,.31,1.07.65,2.25Z"/>
</svg>