<?xml version="1.0" encoding="UTF-8"?>
<svg id="weapon_pers" xmlns="http://www.w3.org/2000/svg" width="50" height="50" viewBox="0 0 50 50">
  <defs>
    <style>
      .cls-1 {
        fill: #fff;
        fill-rule: evenodd;
      }
    </style>
  </defs>
  <path class="cls-1" d="m32.52,23.03c.27,0,.48-.22.48-.48v-3.13c0-.27-.22-.48-.48-.48h-5.45v-5.45c0-.27-.22-.48-.48-.48h-3.13c-.27,0-.48.22-.48.48v5.45h-5.48c-.27,0-.48.22-.48.48v3.13c0,.27.22.48.48.48h5.48v5.48c0,.27.22.48.48.48h3.13c.27,0,.48-.22.48-.48v-5.48h5.45ZM13,9h24v18.06l-12,9.94-12-9.94V9Zm27.86-3.7s-31.77,0-31.77,0v24.28l15.89,13.61,15.89-13.61V5.3Zm2.11-1.05v25.82c0,.31-.13.6-.37.8l-16.94,14.52c-.39.34-.98.34-1.37,0L7.35,30.86c-.23-.2-.37-.49-.37-.8V4.25c0-.58.47-1.05,1.05-1.05h33.88c.58,0,1.05.47,1.05,1.05Z"/>
</svg>