<?xml version="1.0" encoding="UTF-8"?>
<svg id="speed_perks" xmlns="http://www.w3.org/2000/svg" width="50" height="50" viewBox="0 0 50 50">
  <defs>
    <style>
      .cls-1 {
        fill: #fff;
        fill-rule: evenodd;
      }
    </style>
  </defs>
  <path class="cls-1" d="m39,38c2.21,0,4,1.79,4,4s-1.79,4-4,4-4-1.79-4-4,1.79-4,4-4Zm0-34c2.21,0,4,1.79,4,4s-1.79,4-4,4-4-1.79-4-4,1.79-4,4-4Zm-14,34c2.21,0,4,1.79,4,4s-1.79,4-4,4-4-1.79-4-4,1.79-4,4-4Zm0-34c2.21,0,4,1.79,4,4s-1.79,4-4,4-4-1.79-4-4,1.79-4,4-4Zm-14,34c2.21,0,4,1.79,4,4s-1.79,4-4,4-4-1.79-4-4,1.79-4,4-4Zm0-34c2.21,0,4,1.79,4,4s-1.79,4-4,4-4-1.79-4-4,1.79-4,4-4Zm25.73,32h4.2v-6h-4.2v6Zm-23.97-10.11v9.89h-3.85V14.23h3.85v7.96h10.12v-8.19h3.9v8.19h9.95v-7.72h4.2v11.43h-4.2v-.03h-9.95v10.11h-3.9v-10.11h-10.12Z"/>
</svg>