<?xml version="1.0" encoding="UTF-8"?>
<svg id="speed_perks" xmlns="http://www.w3.org/2000/svg" width="50" height="50" viewBox="0 0 50 50">
  <defs>
    <style>
      .cls-1 {
        fill: #fff;
        fill-rule: evenodd;
      }
    </style>
  </defs>
  <path class="cls-1" d="m5.18,18.24c-.02-.14-.06-.7-.06-.86.03-.94,1.6-1.79,2.31-.63,1.62,2.67,4.9,5.49,8.99,8.3,2.37,1.39,8.78,3.99,10.81,3.95,2.03-.03,7.63,2.7,8.76,3.27,1.21.6,2.28.35,2.92,0l.36,1.09-2.4,3.72s-.82.45-2.63-.21c-1.8-.66-6.13-3.05-6.13-3.05l.87-1.75-1.31-.65c-1.79.11-4.11-.14-6.78-.64,0,0-6.54-3.53-10.4-7.01-3.58-3.22-5.2-4.63-5.3-5.52Zm37.31,8.04l-.06.89-2.1,3.64c-.31.4-1.75,1.32-3.5.44-1.13-.56-6.73-3.3-8.76-3.27-2.03.03-8.44-2.57-10.81-3.95-4.09-2.81-7.42-5.59-8.99-8.3-.24-.37-.09-.91.22-1.53.38-.73,2.32-2.01,3.68-1.87l9.35,4.4,6.21.1s.77-.47,2.07-1.43c.07.07.14.14.23.19l3.4,2c.46.27,1.06.12,1.33-.34.27-.46.12-1.06-.34-1.33l-2.99-1.77c.55-.44,1.15-.93,1.79-1.47l3.47,1.78c.48.25,1.07.06,1.31-.42s.06-1.07-.42-1.31l-2.79-1.43c.76-.69,1.57-1.45,2.4-2.27.18-.17,2.87,2.39,4.4,2.94,1.19.43,2.99-.34,4.4.49,1.94,1.14,2.99,2.62,2.99,2.62l-6.18,9.26c-2.76-1.41-6.67-2.18-10.49.02-.45.26-.61.84-.35,1.29.26.45.84.61,1.29.35,3.41-1.96,6.91-1.05,9.21.3Zm-31.27,6.96l-6.11,5.76h11.71l-5.6-5.76Zm10.34,5.76h22.01v4H1v-4h.1l8.2-7.73L1,22.73l2.43-2.37,18.12,18.63Z"/>
</svg>