<?xml version="1.0" encoding="UTF-8"?>
<svg id="speed_perks" xmlns="http://www.w3.org/2000/svg" width="50" height="50" viewBox="0 0 50 50">
  <defs>
    <style>
      .cls-1 {
        fill: #fff;
        fill-rule: evenodd;
      }
    </style>
  </defs>
  <path class="cls-1" d="m28.02,40.92v2.2c0,5.46-4.48,5.89-10,5.89-5.52,0-10-.43-10-5.89v-2.2h20Zm-14.57-6.8c-1.07-3.57,5.23-2.58,4.56,1.11,8.96-1.4,7.15-8.29,6.31-9.98-.22,3.05-1.99,3.21-2.99,2.93-1-.27-1.68-1.16-1.62-2.14,0-1.45,4.68-6.24-3.16-10.88,4.08,6.86-11.72,8.95-3.1,18.96Zm2.8-25.5v-2.3c-2.96.15-6.13,1.03-7.81,3.59-.33.5-1,.64-1.5.31-.5-.33-.64-1-.31-1.5,2.08-3.18,5.99-4.39,9.63-4.57V1.43h3.79v2.97l4.01.02c2.47.01,4.83.96,6.62,2.63.89-.76,2.21-.78,3.12-.03l10.02,8.24c.55.45.87,1.12.89,1.82.02.71-.28,1.39-.8,1.86l-3.83,3.45c-.53.47-1.24.69-1.94.6-.7-.09-1.33-.49-1.72-1.08l-7.1-10.86c-.49-.75-.52-1.68-.13-2.44-1.39-1.29-3.21-2.02-5.12-2.02l-4-.02v2.08c4.56.92,7.98,4.91,7.98,9.69v20.81H8.02v-20.81c0-4.87,3.55-8.91,8.23-9.74Z"/>
</svg>