<?xml version="1.0" encoding="UTF-8"?>
<svg id="weapon_pers" xmlns="http://www.w3.org/2000/svg" width="50" height="50" viewBox="0 0 50 50">
  <defs>
    <style>
      .cls-1 {
        fill: #fff;
        fill-rule: evenodd;
      }
    </style>
  </defs>
  <path class="cls-1" d="m10.53,10.48l4.55,4.52H5V5l3.4,3.37C12.65,4.13,18.52,1.5,25,1.5c12.97,0,23.5,10.53,23.5,23.5,0,2.29-.33,4.51-.94,6.61-.23.79-1.07,1.25-1.86,1.02-.79-.23-1.25-1.07-1.02-1.86.54-1.83.82-3.76.82-5.76,0-11.31-9.19-20.5-20.5-20.5-5.65,0-10.76,2.29-14.47,5.98Zm30.05,32.1c-4.15,3.68-9.61,5.92-15.58,5.92-12.97,0-23.5-10.53-23.5-23.5,0-2.26.32-4.45.92-6.52.23-.8,1.06-1.25,1.86-1.02.8.23,1.25,1.06,1.02,1.86-.52,1.81-.8,3.72-.8,5.69,0,11.31,9.19,20.5,20.5,20.5,5.15,0,9.86-1.9,13.46-5.04l-3.46-3.46h10v10l-4.42-4.42Zm-6.72-20.71l-5.73-5.73c2.39-3.83,9.69-5.86,10.64-4.91s-1.08,8.25-4.91,10.64Zm-8.23-4.2c.55-.55,1.45-.55,2.01,0l4.68,4.68c.55.55.55,1.45,0,2.01l-12.01,12.01c-.55.55-1.45.55-2.01,0l-4.68-4.68c-.55-.55-.55-1.45,0-2.01l12.01-12.01Zm-8.89,20.76l.8.8c.22.22.22.58,0,.8l-.8.8c-.22.22-.58.22-.8,0l-6.78-6.78c-.22-.22-.22-.58,0-.8l.8-.8c.22-.22.58-.22.8,0l.8.8.93-.93,5.18,5.18-.93.93Z"/>
</svg>