<?xml version="1.0" encoding="UTF-8"?>
<svg id="weapon_pers" xmlns="http://www.w3.org/2000/svg" width="50" height="50" viewBox="0 0 50 50">
  <defs>
    <style>
      .cls-1 {
        fill: #fefefe;
        fill-rule: evenodd;
      }
    </style>
  </defs>
  <path class="cls-1" d="m31.8,32.52l2.41-2.51,6.81,6.52,6.38-6.79,2.54,2.38-8.79,9.35-9.35-8.95Zm2.41-8.53l-2.41-2.51,9.35-8.95,8.79,9.35-2.54,2.38-6.38-6.79-6.81,6.52ZM1.69,28.45l.77-3.1-1.14-.72.41-1.66,1.66.41.72-1.14-.62-1.04L32.43,3.77l.41-1.66,1.86-.42,1.97.93c1.05.67,1.64,1.73,1.87,3.11l-2.51,1.51c-.57.34-1.05.81-1.4,1.37L1.69,28.45Zm25.24-8.78c-.77-1.28-2.44-1.7-3.72-.93l-3.62,2.18c-1.28.77-1.69,2.44-.92,3.72.77,1.28,2.44,1.7,3.72.93l3.62-2.18c1.28-.77,1.69-2.44.92-3.72Zm5.12-7.73l-1.26,1.99s-1.33,1.21-1.96,2.59c-.63,1.38.21,2.69.21,2.69l-.05-.02c.83,1.92.14,4.2-1.69,5.31l-6.31,3.8c-1.46.88-2.13,2.64-1.63,4.26l2.8,9.14c.1.98-.29,1.58-.93,1.97l-7.75,4.67s-2.35,1.16-3.32-.83c-.97-1.98-1.27-12.64-1.27-12.64,0,0-1.12-3.43-3.12-3.45-2-.02-3.93-.07-3.93-.07l-.54-.9,30.75-18.52Z"/>
</svg>