<?xml version="1.0" encoding="UTF-8"?>
<svg id="speed_perks" xmlns="http://www.w3.org/2000/svg" width="50" height="50" viewBox="0 0 50 50">
  <defs>
    <style>
      .cls-1 {
        fill: #fff;
        fill-rule: evenodd;
      }
    </style>
  </defs>
  <path class="cls-1" d="m29.67,44.9c9-2.04,15.73-10.1,15.73-19.72,0-11.16-9.06-20.22-20.22-20.22S4.95,14.02,4.95,25.18c0,9.5,6.56,17.47,15.39,19.64-.05-3.21-.14-8.84-.15-8.98-.29-5.95-.39-9.81-4.32-13.26-.37-.33-.41-.9-.09-1.27.32-.37.89-.41,1.26-.09,3.18,2.79,4.18,5.79,4.61,9.79h1.34v-5.81h4v5.81h1.36c.45-3.97,1.49-6.95,4.79-9.73.39-.33.98-.29,1.31.09s.3.94-.09,1.27c-4.1,3.46-4.2,7.31-4.5,13.26,0,.16-.14,5.83-.21,9ZM25.18,1.35c13.15,0,23.82,10.67,23.82,23.82s-10.67,23.82-23.82,23.82S1.35,38.33,1.35,25.18,12.03,1.35,25.18,1.35Z"/>
</svg>