<?xml version="1.0" encoding="UTF-8"?>
<svg id="speed_perks" xmlns="http://www.w3.org/2000/svg" width="50" height="50" viewBox="0 0 50 50">
  <defs>
    <style>
      .cls-1 {
        fill: #fefefe;
        fill-rule: evenodd;
      }
    </style>
  </defs>
  <path class="cls-1" d="m12.15,6.17c2.11.64,3.32,2.87,2.68,4.98-.64,2.11-2.87,3.32-4.98,2.68-2.11-.64-3.32-2.87-2.68-4.98s2.87-3.32,4.98-2.68Zm-.27,31.45c-1.17.16-2.05-.15-2.55-.39-1.23-.49-2.13-1.66-2.2-3.07l-.75-14.28c-.1-1.93,1.38-3.58,3.31-3.68,1.15-.06,2.2.44,2.88,1.27.23.28,6.28,7.23,6.28,7.23l6.03-.41c.94-.06,1.75.65,1.82,1.59.06.94-.65,1.75-1.59,1.82l-6.86.46c-.52.04-1.03-.17-1.38-.55l-3.27-3.6.45,8.58,9.59-2.26c.65-.15,1.34,0,1.87.42.53.42.83,1.05.83,1.72v11.27c0,1.21-.99,2.2-2.2,2.2s-2.2-.99-2.2-2.2v-8.49l-10.07,2.37Zm1.44,1.72l1.48,5c.18.59.07,1.23-.29,1.73-.36.5-.93.81-1.55.83l-10,.37c-1.1.04-2.03-.82-2.07-1.93-.04-1.1.82-2.03,1.93-2.07l7.43-.27-1.1-3.73c.59.33,2.39.49,3.21.3l.98-.23Zm18.47-6.81l2.41-2.51,6.81,6.52,6.38-6.79,2.54,2.38-8.79,9.35-9.35-8.95Zm2.41-10.53l-2.41-2.51,9.35-8.95,8.79,9.35-2.54,2.38-6.38-6.79-6.81,6.52Z"/>
</svg>