<?xml version="1.0" encoding="UTF-8"?>
<svg id="weapon_pers" xmlns="http://www.w3.org/2000/svg" width="50" height="50" viewBox="0 0 50 50">
  <defs>
    <style>
      .cls-1 {
        fill: #fff;
        fill-rule: evenodd;
      }
    </style>
  </defs>
  <path class="cls-1" d="m9.51,28.41c1.48,1.62,2.57,1.79,2.57,1.79l-.66.61h0c-.55.3-1.67-.23-2.85-1.52-1.18-1.29-1.61-2.45-1.26-2.97h0s.66-.62.66-.62c0,0,.08,1.09,1.56,2.71Zm13.33-12.24c-.66-.72-1.16-1.52-1.17-2.02l3.54-3.25c.56-.52,4.64-2.85,5.48-1.93.84.92-1.83,4.78-2.39,5.3l-3.54,3.25c-.47-.02-1.26-.63-1.92-1.34Zm-12.57,11.54c-1.04-1.14-1.43-2.22-1.27-2.98l8.54-7.84h0c.58-.52,1.33-.84,2.19-.94l1.05-.96c.66,1.35,1.77,2.56,3.06,3.33l-1.05.96c-.17.85-.56,1.57-1.12,2.1h0s-8.54,7.85-8.54,7.85c-.76.09-1.81-.39-2.85-1.52Zm4.62,6.62c1.48,1.62,2.57,1.79,2.57,1.79l-.66.61h0c-.55.3-1.67-.23-2.85-1.52-1.18-1.29-1.61-2.45-1.26-2.97h0s.66-.62.66-.62c0,0,.08,1.09,1.56,2.71Zm13.33-12.24c-.66-.72-1.16-1.52-1.17-2.02l3.54-3.25c.56-.52,4.64-2.85,5.48-1.93.84.92-1.83,4.78-2.39,5.3l-3.54,3.25c-.47-.02-1.26-.63-1.92-1.34Zm-12.57,11.54c-1.04-1.14-1.43-2.22-1.27-2.98l8.55-7.84h0c.58-.52,1.33-.84,2.19-.94l1.05-.96c.66,1.35,1.77,2.56,3.06,3.33l-1.05.96c-.17.85-.56,1.57-1.12,2.1h0s-8.54,7.85-8.54,7.85c-.76.09-1.81-.39-2.85-1.52Zm4.62,6.63c1.48,1.62,2.57,1.78,2.57,1.78l-.66.61h0c-.54.3-1.67-.23-2.85-1.52-1.18-1.29-1.61-2.45-1.26-2.97h0s.66-.62.66-.62c0,0,.08,1.09,1.56,2.71Zm13.33-12.24c-.66-.71-1.16-1.52-1.17-2.02l3.54-3.25c.56-.52,4.64-2.85,5.48-1.93.84.92-1.83,4.78-2.39,5.3l-3.54,3.25c-.47-.02-1.26-.63-1.91-1.34Zm-12.57,11.54c-1.04-1.13-1.43-2.22-1.27-2.97l8.54-7.84h0c.58-.52,1.33-.84,2.19-.94l1.05-.96c.66,1.35,1.77,2.55,3.05,3.33l-1.05.96c-.17.85-.56,1.57-1.12,2.1h0s-8.55,7.85-8.55,7.85c-.76.09-1.81-.39-2.85-1.52ZM10.53,10.48l4.55,4.52H5V5l3.4,3.37C12.65,4.13,18.52,1.5,25,1.5c12.97,0,23.5,10.53,23.5,23.5,0,2.29-.33,4.51-.94,6.61-.23.79-1.07,1.25-1.86,1.02-.79-.23-1.25-1.07-1.02-1.86.54-1.83.82-3.76.82-5.76,0-11.31-9.19-20.5-20.5-20.5-5.65,0-10.76,2.29-14.47,5.98Zm30.05,32.1c-4.15,3.68-9.61,5.92-15.58,5.92-12.97,0-23.5-10.53-23.5-23.5,0-2.26.32-4.45.92-6.52.23-.8,1.06-1.25,1.86-1.02.8.23,1.25,1.06,1.02,1.86-.52,1.81-.8,3.72-.8,5.69,0,11.31,9.19,20.5,20.5,20.5,5.15,0,9.86-1.9,13.46-5.04l-3.46-3.46h10v10l-4.42-4.42Z"/>
</svg>