<?xml version="1.0" encoding="UTF-8"?>
<svg id="weapon_pers" xmlns="http://www.w3.org/2000/svg" width="50" height="50" viewBox="0 0 50 50">
  <defs>
    <style>
      .cls-1 {
        fill: #fff;
        fill-rule: evenodd;
      }
    </style>
  </defs>
  <path class="cls-1" d="m14.35,35.59c1.56,1.56,2.72,1.63,2.72,1.63l-.72.72h0c-.59.38-1.78-.07-3.03-1.31s-1.69-2.44-1.3-3.03h0s.72-.73.72-.73c0,0,.07,1.16,1.63,2.72Zm14.44-14.44c-.69-.69-1.22-1.5-1.23-2.03l3.84-3.84c.61-.61,5-3.53,5.89-2.64s-2.03,5.28-2.64,5.89l-3.84,3.84c-.5.03-1.34-.53-2.03-1.23Zm-13.62,13.62c-1.1-1.1-1.5-2.21-1.32-3.03l9.26-9.26c.63-.62,1.44-1.04,2.36-1.23l1.14-1.14c.69,1.37,1.86,2.53,3.22,3.22l-1.14,1.14c-.2.92-.62,1.73-1.23,2.36l-9.26,9.26c-.82.18-1.93-.22-3.03-1.32Zm-4.65-24.28l4.55,4.52H5V5l3.4,3.37C12.65,4.13,18.52,1.5,25,1.5c12.97,0,23.5,10.53,23.5,23.5,0,2.29-.33,4.51-.94,6.61-.23.79-1.07,1.25-1.86,1.02-.79-.23-1.25-1.07-1.02-1.86.54-1.83.82-3.76.82-5.76,0-11.31-9.19-20.5-20.5-20.5-5.65,0-10.76,2.29-14.47,5.98Zm30.05,32.1c-4.15,3.68-9.61,5.92-15.58,5.92-12.97,0-23.5-10.53-23.5-23.5,0-2.26.32-4.45.92-6.52.23-.8,1.06-1.25,1.86-1.02.8.23,1.25,1.06,1.02,1.86-.52,1.81-.8,3.72-.8,5.69,0,11.31,9.19,20.5,20.5,20.5,5.15,0,9.86-1.9,13.46-5.04l-3.46-3.46h10v10l-4.42-4.42Z"/>
</svg>