<?xml version="1.0" encoding="UTF-8"?>
<svg id="vitality_perks" xmlns="http://www.w3.org/2000/svg" width="50" height="50" viewBox="0 0 50 50">
  <defs>
    <style>
      .cls-1 {
        fill: #fff;
        fill-rule: evenodd;
      }
    </style>
  </defs>
  <path class="cls-1" d="m32.31,31.67l1.69,2.32-3.02,2.19,1.61,2.21-1.21.88,6.64,9.52-1.11.8-6.64-9.52-1.21.88-1.61-2.21-3.02,2.19-1.69-2.32,9.56-6.94ZM3.52,9.55c1,1.37,2.71,2.05,4.38,1.73.63-.12,1.22-.38,1.74-.76,1.38-1,2.05-2.71,1.73-4.38-.46-2.36-2.78-3.92-5.14-3.47h0c-2.36.46-3.92,2.78-3.46,5.14.12.63.38,1.22.76,1.74Zm.04-7.41c.71-.51,1.52-.86,2.37-1.03,3.21-.62,6.37,1.51,7,4.72.33,1.71-.1,3.49-1.19,4.85l1.79,2.46c.37.52,1.11.63,1.62.26l1.47-1.07c.59-.43,1.44-.3,1.87.3l1.67,2.3-9.56,6.94-1.67-2.3c-.11-.16-.19-.34-.23-.53-.1-.51.11-1.03.53-1.34l1.47-1.07c.36-.26.54-.72.46-1.16-.03-.17-.1-.32-.2-.46l-1.78-2.46c-.31.12-.63.2-.95.27-3.22.62-6.38-1.51-7-4.72-.44-2.27.48-4.61,2.35-5.97Zm17.64,14.24l10.06,13.86-9.56,6.94-10.06-13.86,9.56-6.94Zm15.8,18.63h6v-2h-6v2Zm12-24h-6l.03,6.06h-6.05l.02-6.06h-6L40,1l9,10Zm-12,20h6v-4h-6v4Zm0-6h6v-6h-6v6Z"/>
</svg>