<?xml version="1.0" encoding="UTF-8"?>
<svg id="speed_perks" xmlns="http://www.w3.org/2000/svg" width="50" height="50" viewBox="0 0 50 50">
  <defs>
    <style>
      .cls-1 {
        fill: #fff;
        fill-rule: evenodd;
      }
    </style>
  </defs>
  <path class="cls-1" d="m17.8,31.67l9.56,6.94-1.69,2.32-3.02-2.19-1.61,2.21-1.21-.88-6.64,9.52-1.11-.8,6.64-9.52-1.21-.88,1.61-2.21-3.02-2.19,1.69-2.32Zm28.78-22.13c.38-.52.63-1.11.76-1.74.46-2.36-1.11-4.68-3.46-5.14-2.36-.46-4.68,1.11-5.14,3.47-.32,1.67.35,3.38,1.73,4.38.52.38,1.11.63,1.74.76,1.67.32,3.38-.35,4.38-1.73Zm-.04-7.41c1.87,1.36,2.79,3.7,2.35,5.97-.62,3.22-3.78,5.35-7,4.72-.32-.06-.64-.15-.95-.27l-1.78,2.46c-.1.14-.17.29-.2.46-.09.44.09.9.46,1.16l1.47,1.07c.42.3.63.83.53,1.34-.04.19-.12.37-.23.53l-1.67,2.3-9.56-6.94,1.67-2.3c.43-.59,1.27-.73,1.87-.3l1.47,1.07c.52.37,1.25.26,1.62-.26l1.79-2.46c-1.09-1.37-1.52-3.14-1.19-4.85.62-3.21,3.78-5.35,7-4.72.86.17,1.67.52,2.37,1.03Zm-17.64,14.24l9.56,6.94-10.06,13.86-9.56-6.94,10.06-13.86Zm-14.12-2.37h-5.2l3.62-5.88-3.62-6.12h5.2l3.62,6-3.62,6Zm8.59,0h-5.2l3.62-5.88-3.62-6.12h5.2l3.62,6-3.62,6Zm-17.18,0H1l3.62-5.88L1,2h5.2l3.62,6-3.62,6Z"/>
</svg>