<?xml version="1.0" encoding="UTF-8"?>
<svg id="speed_perks" xmlns="http://www.w3.org/2000/svg" width="50" height="50" viewBox="0 0 50 50">
  <defs>
    <style>
      .cls-1 {
        fill: #fff;
        fill-rule: evenodd;
      }
    </style>
  </defs>
  <path class="cls-1" d="m3,30.44l6-3.56,6,3.56v5.11l-6.12-3.56-5.88,3.56v-5.11Zm0-10.44l6-3.56,6,3.56v5.11l-6.12-3.56-5.88,3.56v-5.11Zm0-10.44l6-3.56,6,3.56v5.11l-6.12-3.56-5.88,3.56v-5.11Zm0,31.33l6-3.56,6,3.56v5.11l-6.12-3.56-5.88,3.56v-5.11ZM31.1,4.42c1.99.47,3.23,2.46,2.77,4.46-.47,1.99-2.46,3.23-4.46,2.77s-3.23-2.46-2.77-4.46c.47-1.99,2.46-3.23,4.46-2.77Zm-1.23,28.71l-5.29.51c-1.05.1-1.98-.67-2.08-1.72-.1-1.05.67-1.98,1.72-2.08l4.58-.44,1.58-2.67c.35.68.84,1.26,1.43,1.72,0,0-.3,2.47-.3,2.47l-1.63,2.21Zm8.07-8.08c.01.12,0,.25,0,.38l-.87,7.19c-.04.32-.16.62-.35.88l-5.34,7.23c-.61.83-1.78,1-2.61.39-.83-.61-1-1.78-.39-2.61l5.04-6.83.52-4.33c-1.02-.34-1.84-1.2-2.07-2.33l-1.67-8.3c-.29-1.45.48-2.87,1.78-3.44.14-.09.29-.17.46-.23l6.54-2.25,4.85-6.68c.64-.88,1.86-1.07,2.74-.43.88.64,1.07,1.86.43,2.74l-5.22,7.18c-.24.33-.57.57-.95.7l-4.5,1.55,1.6,7.93c.09.42.08.84,0,1.24Z"/>
</svg>