<?xml version="1.0" encoding="UTF-8"?>
<svg id="weapon_pers" xmlns="http://www.w3.org/2000/svg" width="50" height="50" viewBox="0 0 50 50">
  <defs>
    <style>
      .cls-1 {
        fill: #fff;
        fill-rule: evenodd;
      }
    </style>
  </defs>
  <path class="cls-1" d="m41.14,44.78c-4.18,1.44-9.85,2.33-16.11,2.33-12.82,0-23.22-3.73-23.22-8.32,0-3.26,6.96-6.94,14.56-8.45l-.41,1.23c-4.14,1.47-6.64,2.21-10.35,5.45-.86.67-.95,2.4.86,3.15,1.58.91,3.79,1.56,6.4,2.1,3.49.73,7.66,1.14,12.15,1.05,4.49.09,8.66-.32,12.15-1.05.87-.18,1.69-.38,2.47-.59l-1.51-3.15,10.8.96-5.92,9.2-1.89-3.92ZM22.18,1.63c-2.02-.39-3.99.93-4.38,2.96-.39,2.02.93,3.99,2.96,4.38,2.02.39,3.99-.93,4.38-2.96.39-2.02-.93-3.99-2.96-4.38Zm5.62,26.46h0s-2.25,3.17-2.25,3.17l.23.78c.07.24.18.46.33.65l5.6,7.47c.69.92,1.99,1.1,2.9.41.92-.69,1.1-1.99.41-2.9l-5.38-7.18-.96-3.23c-.26.3-.56.58-.89.81Zm3.56-7.08c-.3.09-.62.07-.9-.07l-1.38-.67.1-.58-1.97-.27-.64-3.54,2.95.54,2.28,4.45-.44.13Zm-16.68,1.07l3.96,1.96c.25.12.51.19.78.2l-.59-3.26.6.45v-.02s1.61.32,1.61.32l.48,2.67c.08.44.24.84.47,1.19l-3.08,4.34c-.14.19-.24.41-.31.64l-2.18,7.8c-.31,1.1.34,2.25,1.44,2.55,1.1.31,2.25-.34,2.55-1.44l2.08-7.45,3.85-5.43c.88-.52,1.47-1.44,1.57-2.46.27,0,.53-.04.7-.21l.12-.76,7.2,3.9c.27.15.6.13.85-.04.15-.1.26-.25.32-.42l.86-3.41s0-.02,0-.03c.07-.24.03-.5-.11-.7-.11-.16-.27-.28-.45-.33l-2.14-.63c.4-.56.47-1.32.14-1.97l-2.92-5.7c-.27-.53-.77-.9-1.36-1.01l-7.42-1.37c-.29-.05-.57-.04-.83.03-.13,0-.26.02-.39.05-1.76.32-2.93,2-2.61,3.76l.57,3.19-.55-.08-1.29-.17-14.28-1.58.1-.78-1.53-.21-.1.78-.77-.11-.16,2.03,11.75,1.64c-.15.82.25,1.68,1.03,2.07Z"/>
</svg>