<?xml version="1.0" encoding="UTF-8"?>
<svg id="vitality_perks" xmlns="http://www.w3.org/2000/svg" width="50" height="50" viewBox="0 0 50 50">
  <defs>
    <style>
      .cls-1 {
        fill: #fff;
        fill-rule: evenodd;
      }
    </style>
  </defs>
  <path class="cls-1" d="m11.95,28.98l2.08-.03s.21,5.12,2.04,10.3c.58,1.65,1.34,3.17,2.34,4.29.88.98,1.95,1.64,3.31,1.69,8.63.31,10.4-6.13,11.58-9.04l2.17-.17c-1.35,3.35-3.9,11.43-13.83,11.07-2.85-.1-4.96-1.97-6.4-4.64-3.01-5.59-3.28-13.46-3.28-13.46Zm-7.11-3.27c-.34-.28-.32-.52,0-.71,0,0,2.25-.08,3.32-1.42,2.85-3.56,1.19-10.92,7.6-14.01,4.52-2.18,16.79-2.74,23.04,2.61,4.99,4.27,2.54,11.88,3.32,15.44.79,3.56,2.55,6.09,1.9,6.65-.65.56-7.65,1.13-11.64.48-3.99-.65-4.02-1.82-7.84-4.75-3.81-2.93-5.39-2.61-9.02-3.09-3.63-.48-10.69-1.19-10.69-1.19ZM37.31,4.58c-.72-.16-1.17-.88-1.01-1.6s.88-1.17,1.6-1.01l5.11,1.15c.69.15,1.14.81,1.03,1.51l-.61,3.94,3.89.87c.69.15,1.14.81,1.03,1.51l-.8,5.17c-.11.73-.8,1.23-1.52,1.11-.73-.11-1.23-.8-1.11-1.53,0,0,.61-3.94.61-3.94l-3.89-.87c-.69-.15-1.14-.81-1.03-1.51,0,0,.61-3.94.61-3.94l-3.89-.87ZM12.72,1.98c.72-.16,1.43.29,1.6,1.01.16.72-.29,1.43-1.01,1.6,0,0-3.89.87-3.89.87l.61,3.94c.11.69-.34,1.35-1.03,1.51l-3.89.87.61,3.94c.11.73-.39,1.41-1.11,1.53-.73.11-1.41-.39-1.53-1.11l-.8-5.17c-.11-.69.34-1.35,1.03-1.51l3.89-.87-.61-3.94c-.11-.69.34-1.35,1.03-1.51l5.11-1.15Z"/>
</svg>