<?xml version="1.0" encoding="UTF-8"?>
<svg id="weapon_pers" xmlns="http://www.w3.org/2000/svg" width="50" height="50" viewBox="0 0 50 50">
  <defs>
    <style>
      .cls-1 {
        fill: #fff;
        fill-rule: evenodd;
      }
    </style>
  </defs>
  <path class="cls-1" d="m13,39.89v5.11l-5.88-3.56-6.12,3.56v-5.11l6-3.56,6,3.56Zm0-10.44v5.11l-5.88-3.56-6.12,3.56v-5.11l6-3.56,6,3.56Zm0-10.44v5.11l-5.88-3.56-6.12,3.56v-5.11l6-3.56,6,3.56Zm0-10.44v5.11l-5.88-3.56-6.12,3.56v-5.11l6-3.56,6,3.56Zm3.99,13.88c0,1.98,1.15,3.78,2.95,4.6.8-3.19,2.1-6.42,4.15-9.14-.66-.32-1.39-.49-2.12-.5-2.75.02-5,2.29-4.98,5.04Zm9.88.85c-1.09,1.05-1.99,2.28-2.65,3.63,1.41-.72,2.39-2.07,2.65-3.63Zm16.19-5.89h-1.29c.92,2.57,1.43,5.26,1.51,7.98h-12.75c.06-1.47.23-2.93.5-4.38-.7.13-1.37.37-2,.71.02.24.04.48.04.72.01,3.49-2.52,6.51-5.95,7.1-.89,2.69-1.52,5.86-1.48,10.5,0,.01,0,.03,0,.04,0,.81-.66,1.47-1.47,1.47s-1.43-.62-1.47-1.4c-.19-3.67.07-7.36.75-10.97-2.78-1.07-4.62-3.75-4.62-6.73,0-3.92,3.2-7.16,7.12-7.21,1.25,0,2.48.34,3.56.97,1.2-1.25,2.6-2.31,4.13-3.13h13.41c1.19,0,2.16.98,2.16,2.16s-.98,2.16-2.16,2.16Zm-6.14,31.7c-6.68,0-12.1-5.48-12.1-12.25,0-3.65,1.56-7.14,4.31-9.54h15.58c2.75,2.41,4.32,5.89,4.31,9.54,0,6.76-5.42,12.25-12.1,12.25Z"/>
</svg>