<?xml version="1.0" encoding="UTF-8"?>
<svg id="weapon_pers" xmlns="http://www.w3.org/2000/svg" width="50" height="50" viewBox="0 0 50 50">
  <defs>
    <style>
      .cls-1 {
        fill: #fff;
        fill-rule: evenodd;
      }
    </style>
  </defs>
  <path class="cls-1" d="m15,41.22s-3.34,3.19-4.49,4.29c-.25.24-.42.55-.48.89-.02.12-.05.24-.07.36-.06.31-.21.59-.43.8-.2.19-.45.42-.61.58-.14.13-.31.22-.49.27-2.7.63-5.21-2.28-6.1-3.47-.2-.27-.17-.64.07-.88,1.79-1.76,8.92-8.67,8.92-8.67l.29-2.6c1.65,2.29,2.94,4.93,3.39,8.42Zm9.32-1.7c.28.3.26.76-.03,1.04-.32.31-.73.69-1.05,1-.14.14-.34.21-.53.2-.2,0-.38-.09-.52-.24-1.9-2.05-8.57-9.23-10.45-11.26-.28-.3-.26-.76.03-1.04.32-.31.73-.69,1.05-1,.14-.14.34-.21.53-.2.2,0,.39.09.52.24,1.9,2.05,8.57,9.23,10.45,11.26Zm14.1-26.73c-.13-.14-.31-.22-.5-.22-.19,0-.37.07-.51.2-.4.39-.94.91-1.34,1.3-.28.27-.29.72-.02,1,.13.14.28.3.41.44.13.14.31.22.5.22.19,0,.37-.07.51-.2.4-.39.94-.91,1.34-1.3.28-.27.29-.72.02-1-.13-.14-.28-.3-.41-.44Zm-22.68,15.37L37.32,7.61c2.72-1,6-2.84,10.54-6.61,0,0,1.07,8.26-2.69,12.07-7.19,7.29-20.74,21.09-20.74,21.09l-2.93-.13-5.76-5.87Z"/>
</svg>