<?xml version="1.0" encoding="UTF-8"?>
<svg id="weapon_pers" xmlns="http://www.w3.org/2000/svg" width="50" height="50" viewBox="0 0 50 50">
  <defs>
    <style>
      .cls-1 {
        fill: #fff;
        fill-rule: evenodd;
      }
    </style>
  </defs>
  <path class="cls-1" d="m15.13,48.74C-2.89,45.32-.34,27.23,4.39,23.5c.45,5.79,1.87,8.02,5.09,9.23,0,0-4.05-7.48-.49-16.71C13.48,4.44,18.22,2.84,21.73,1c-3.93,3.16-9.25,18-1.43,19.6,7.47,1.53,4.97-6.63,4.97-6.63,7.87,5.89,11.91,13.25,6.15,24.33,0,0,3.8,0,4.98-4.05-.02,7.1-4.07,13.42-12.94,14.75,1.69-.76,3.39-4.45,1.96-8.85-1.06-3.26-3.84-6.92-9.61-10.06,1.76,5.62,2.26,9.17.04,11.13-2.06,1.82-2.93,4.25-.7,7.51ZM48.8,12.42c-.1.25-.35.42-.62.41h-7.34v7.34c0,.13-.03.25-.09.37-.07.11-.18.2-.3.26-.18.08-.37.13-.57.15-.28.03-.57.05-.86.04-.49.03-.98-.04-1.44-.2-.25-.1-.42-.35-.41-.62v-7.34h-7.32c-.28.01-.54-.16-.64-.42-.16-.46-.23-.95-.2-1.44-.03-.48.04-.96.2-1.41.11-.26.36-.42.64-.41h7.32V1.84c0-.28.16-.54.42-.64.46-.16.95-.23,1.43-.2.48-.03.96.04,1.41.2.26.11.42.36.41.64v7.31h7.34c.27-.02.52.14.62.39.08.18.13.37.15.57.03.28.05.57.04.86.03.49-.04.98-.2,1.45Z"/>
</svg>