<?xml version="1.0" encoding="UTF-8"?>
<svg id="weapon_pers" xmlns="http://www.w3.org/2000/svg" width="50" height="50" viewBox="0 0 50 50">
  <defs>
    <style>
      .cls-1 {
        fill: #fff;
        fill-rule: evenodd;
      }
    </style>
  </defs>
  <path class="cls-1" d="m36.71,41.31h0s0,2.4,0,2.4l3.48,3.52-1.76,1.76-2.97-2.94v-3.5s1.25-1.24,1.25-1.24Zm.83-.83l1.18-1.17,4.7,4.7-2.64,2.64-3.23-3.23v-2.94Zm5.81-3.16l3.37,3.37-2.72,2.72-4.7-4.7,1.4-1.4h2.65Zm.41-.82h-2.25s1.25-1.25,1.25-1.25h3.08l3.15,3.17-1.68,1.68-3.55-3.6ZM7.95,19.47c-2.28-3.37-1.85-8.08-1.85-8.08l5.28-5.28s4.72-.44,8.09,1.84c1.63,1.31,3.11,2.79,4.42,4.42,0,0,4.97,8.77,10.89,18.88l5.1,5.11-3.52,3.52-5.11-5.1c-10.11-5.92-17.25-9.58-18.88-10.89-1.63-1.31-3.11-2.79-4.42-4.42ZM1.11,4.04c-.32-.32.07-1.24.88-2.05.81-.81,1.73-1.2,2.05-.88h0s5.24,2.88,5.87,3.52l.59.59-5.29,5.28-.59-.59c-.64-.64-3.53-5.87-3.53-5.87h0Zm47.68,8.38c-.1.25-.35.42-.62.41h-7.34v7.34c0,.13-.03.25-.09.37-.07.11-.18.2-.3.26-.18.08-.37.13-.57.15-.28.03-.57.05-.86.04-.49.03-.98-.04-1.44-.2-.25-.1-.42-.35-.41-.62v-7.34h-7.32c-.28.01-.54-.16-.64-.42-.16-.46-.23-.95-.2-1.44-.03-.48.04-.96.2-1.41.11-.26.36-.42.64-.41h7.32V1.84c0-.28.16-.54.42-.64.46-.16.95-.23,1.43-.2.48-.03.96.04,1.41.2.26.11.42.36.41.64v7.31h7.34c.27-.02.52.14.62.39.08.18.13.37.15.57.03.28.05.57.04.86.03.49-.04.98-.2,1.45Z"/>
</svg>