<?xml version="1.0" encoding="UTF-8"?>
<svg id="weapon_pers" xmlns="http://www.w3.org/2000/svg" width="50" height="50" viewBox="0 0 50 50">
  <defs>
    <style>
      .cls-1 {
        fill: #fff;
        fill-rule: evenodd;
      }
    </style>
  </defs>
  <path class="cls-1" d="m49,32l-9.25-7.03,9.25-6.97v14Zm-48,0v-14s9.25,6.97,9.25,6.97l-9.25,7.03Zm6-14v-5.24c0-3.18,2.58-5.76,5.76-5.76h4.24v3.43h-4.24c-1.29,0-2.33,1.04-2.33,2.33v5.24h-3.43Zm32.57,0v-5.24c0-1.29-1.04-2.33-2.33-2.33h-4.24v-3.43h4.24c3.18,0,5.76,2.58,5.76,5.76v5.24h-3.43Zm3.43,16v3.24c0,3.18-2.58,5.76-5.76,5.76h-4.24v-3.43h4.24c1.29,0,2.33-1.04,2.33-2.33v-3.24h3.43Zm-32.57,0v3.24c0,1.29,1.04,2.33,2.33,2.33h4.24v3.43h-4.24c-3.18,0-5.76-2.58-5.76-5.76v-3.24h3.43Zm14.57-13c2.21,0,4,1.79,4,4s-1.79,4-4,4-4-1.79-4-4,1.79-4,4-4Z"/>
</svg>