<svg xmlns="http://www.w3.org/2000/svg" width="128" height="128" viewBox="0 0 128 128">
  <metadata><?xpacket begin="﻿" id="W5M0MpCehiHzreSzNTczkc9d"?>
<x:xmpmeta xmlns:x="adobe:ns:meta/" x:xmptk="Adobe XMP Core 5.6-c138 79.159824, 2016/09/14-01:09:01        ">
   <rdf:RDF xmlns:rdf="http://www.w3.org/1999/02/22-rdf-syntax-ns#">
      <rdf:Description rdf:about=""/>
   </rdf:RDF>
</x:xmpmeta>
                                                                                                    
                                                                                                    
                                                                                                    
                                                                                                    
                                                                                                    
                                                                                                    
                                                                                                    
                                                                                                    
                                                                                                    
                                                                                                    
                                                                                                    
                                                                                                    
                                                                                                    
                                                                                                    
                                                                                                    
                                                                                                    
                                                                                                    
                                                                                                    
                                                                                                    
                                                                                                    
                           
<?xpacket end="w"?></metadata>
<defs>
    <style>
      .cls-1 {
        fill: #fff;
        fill-rule: evenodd;
      }
    </style>
  </defs>
  <path class="cls-1" d="M42.034,87.426a1.1,1.1,0,0,1,.967.585l2.671,5L50.394,80.4a1.1,1.1,0,0,1,1.028-.72h0a1.1,1.1,0,0,1,1.027.729l2.668,7.311H68.167c4.3-8.667,3.9-16.86-2.433-19.579C54.293,63.231,49,75.961,49,75.961H48.957s-5.238-12.73-16.68-7.817c-6.26,2.688-6.724,10.725-2.581,19.282H42.034Zm12.322,2.531a1.1,1.1,0,0,1-1.032-.729L51.41,83.979,46.877,96.086a1.1,1.1,0,0,1-.955.718l-0.073,0a1.1,1.1,0,0,1-.967-0.585l-3.5-6.562h-10.5a47.371,47.371,0,0,0,17.9,17.346h0.452A47.457,47.457,0,0,0,66.96,89.957h-12.6Zm35.535-52.1L94.674,32,83.956,23.03l-5.262,5.791ZM87.531,58.991H101c0-.12.325-5.022-1.735-5.022-2.09,0-7.664.519-7.664,0.519l-2-4.465H84.012a1.027,1.027,0,0,1,0-2.027h5l-1.273-3-4.842-.013a0.961,0.961,0,0,1-.861-0.978,1,1,0,0,1,.861-1.014h4.3L86.9,41.375l1.871-2.2-0.029-.02L77.534,30.127l-0.014-.014L74.077,33.9,68.641,38.95ZM101,61.018L86.875,61S67.631,40.323,67.55,40.255a0.843,0.843,0,0,1-.064-0.066,24.862,24.862,0,0,0-3.1,4.431L85,64.032l15.992-1.163ZM74.247,58H51.795a1.015,1.015,0,0,0,0,1.983H74.247A1.032,1.032,0,0,0,74.247,58Zm-5-5H55.795a1.015,1.015,0,0,0,0,1.983H69.247A1.032,1.032,0,0,0,69.247,53Z"/>
</svg>
