<svg id="ger" xmlns="http://www.w3.org/2000/svg" width="64" height="128" viewBox="0 0 64 128">
  <metadata><?xpacket begin="﻿" id="W5M0MpCehiHzreSzNTczkc9d"?>
<x:xmpmeta xmlns:x="adobe:ns:meta/" x:xmptk="Adobe XMP Core 5.6-c138 79.159824, 2016/09/14-01:09:01        ">
   <rdf:RDF xmlns:rdf="http://www.w3.org/1999/02/22-rdf-syntax-ns#">
      <rdf:Description rdf:about=""/>
   </rdf:RDF>
</x:xmpmeta>
                                                                                                    
                                                                                                    
                                                                                                    
                                                                                                    
                                                                                                    
                                                                                                    
                                                                                                    
                                                                                                    
                                                                                                    
                                                                                                    
                                                                                                    
                                                                                                    
                                                                                                    
                                                                                                    
                                                                                                    
                                                                                                    
                                                                                                    
                                                                                                    
                                                                                                    
                                                                                                    
                           
<?xpacket end="w"?></metadata>
<defs>
    <style>
      .cls-1 {
        fill: #484848;
      }

      .cls-2 {
        fill: #161616;
      }

      .cls-2, .cls-3 {
        fill-rule: evenodd;
      }

      .cls-3 {
        fill: #e0e0e0;
      }
    </style>
  </defs>
  <path class="cls-1" d="M30,12h4A24,24,0,0,1,58,36v80a0,0,0,0,1,0,0H6a0,0,0,0,1,0,0V36A24,24,0,0,1,30,12Z"/>
  <path class="cls-2" d="M30.727,16.994h2.546C44.319,16.994,53,26.221,53,37.267V111H11V37.267C11,26.221,19.682,16.994,30.727,16.994Z"/>
  <path id="_4" data-name="4" class="cls-3" d="M32.015,54.619l11.86,11.86-11.86,11.86-11.86-11.86Zm-0.072,47.4c-0.024,0-.044-0.006-0.067-0.008s-0.037.007-.058,0.008C7.91,101.541,7.769,81.331,15.722,74c-0.69,5.225,3.132,15.013,10.638,20.5a8.5,8.5,0,0,1,5.577-1.87,8.517,8.517,0,0,1,5.556,1.853C45.079,88.99,48.938,79.217,48.24,74,56.292,81.331,56.15,101.541,31.943,102.015Z"/>
</svg>
