<svg xmlns="http://www.w3.org/2000/svg" width="128" height="128" viewBox="0 0 128 128">
  <metadata><?xpacket begin="﻿" id="W5M0MpCehiHzreSzNTczkc9d"?>
<x:xmpmeta xmlns:x="adobe:ns:meta/" x:xmptk="Adobe XMP Core 5.6-c138 79.159824, 2016/09/14-01:09:01        ">
   <rdf:RDF xmlns:rdf="http://www.w3.org/1999/02/22-rdf-syntax-ns#">
      <rdf:Description rdf:about=""/>
   </rdf:RDF>
</x:xmpmeta>
                                                                                                    
                                                                                                    
                                                                                                    
                                                                                                    
                                                                                                    
                                                                                                    
                                                                                                    
                                                                                                    
                                                                                                    
                                                                                                    
                                                                                                    
                                                                                                    
                                                                                                    
                                                                                                    
                                                                                                    
                                                                                                    
                                                                                                    
                                                                                                    
                                                                                                    
                                                                                                    
                           
<?xpacket end="w"?></metadata>
<defs>
    <style>
      .cls-1 {
        fill: #fff;
        fill-rule: evenodd;
      }
    </style>
  </defs>
  <path class="cls-1" d="M56.44,87.83L65.8,81.2a20.337,20.337,0,0,0,2.315,5.786l1.473-4.1s-3.577-6.733-2.841-11.573c0,0,6.891-6.523,13.1-8.942A61.752,61.752,0,0,1,85,67.893a54.8,54.8,0,0,1,4.05,5.366,1.88,1.88,0,0,1-.023,1.666c-0.45,1.145-1.341,2.91-2.608,3.121-1.894.316-4.945-1.157-7.259-3.682a7.768,7.768,0,0,1,1.683-4.313L79.8,68.577s-3.261,3.367-3.367,6.418S83.793,80.36,86,80.781a5.514,5.514,0,0,0,1,3.682c1.365,1.821,4.313,1.841,4.313,1.841a4.784,4.784,0,0,0,.736,3.156c1.473,2.314,4.541,1.6,4.541,1.6s-8.381,5.4-12.064,6.347c0,0-.736.526-4.313-1.368l-11.573,10.31Zm37.19-2.157s-0.7,1.692,1.42,3.1a4.772,4.772,0,0,0,4.05.631s7.26-4.156,8-6.733-1.946-5.26-2.893-5.839C104.2,76.836,98.364,83.043,93.63,85.673Zm-5.155-6.049s-1.263,3.472,3.682,4.682c0,0,7.733-4.787,10.257-8.68,1.755-2.7,1.421-3.945.789-5.208S100.679,69,100.679,69,96.418,73.89,92.1,76.2A8.771,8.771,0,0,1,88.475,79.624Zm0.21-10.573a55.156,55.156,0,0,1,4.05,4.471S97.68,70,98.68,68s0.947-2.841.053-3.945-3.261-1.315-3.84-1.368C94.892,62.686,90.684,67.052,88.685,69.051Zm-1.21-1.841L93.1,61.423a6.171,6.171,0,0,0-2.472-3.682c-1.894-1.052-8,3.524-8,3.524ZM38.339,45.865a1.3,1.3,0,0,1,1.144.683l3.158,5.845,5.582-14.73a1.3,1.3,0,0,1,1.216-.841h0.006a1.3,1.3,0,0,1,1.214.851l3.154,8.539H69.236c5.082-10.123,4.611-19.692-2.876-22.868-13.528-5.739-19.788,9.13-19.788,9.13H46.523S40.33,17.606,26.8,23.344c-7.4,3.14-7.95,12.526-3.051,22.52H38.339Zm14.569,2.956a1.3,1.3,0,0,1-1.22-.851l-2.264-6.13L44.064,55.979a1.3,1.3,0,0,1-1.129.838c-0.029,0-.058,0-0.087,0a1.3,1.3,0,0,1-1.144-.683l-4.14-7.664H25.146A55.694,55.694,0,0,0,46.314,68.733h0.535A55.808,55.808,0,0,0,67.809,48.821h-14.9Z"/>
</svg>
