<svg xmlns="http://www.w3.org/2000/svg" width="128" height="128" viewBox="0 0 128 128">
  <metadata><?xpacket begin="﻿" id="W5M0MpCehiHzreSzNTczkc9d"?>
<x:xmpmeta xmlns:x="adobe:ns:meta/" x:xmptk="Adobe XMP Core 5.6-c138 79.159824, 2016/09/14-01:09:01        ">
   <rdf:RDF xmlns:rdf="http://www.w3.org/1999/02/22-rdf-syntax-ns#">
      <rdf:Description rdf:about=""/>
   </rdf:RDF>
</x:xmpmeta>
                                                                                                    
                                                                                                    
                                                                                                    
                                                                                                    
                                                                                                    
                                                                                                    
                                                                                                    
                                                                                                    
                                                                                                    
                                                                                                    
                                                                                                    
                                                                                                    
                                                                                                    
                                                                                                    
                                                                                                    
                                                                                                    
                                                                                                    
                                                                                                    
                                                                                                    
                                                                                                    
                           
<?xpacket end="w"?></metadata>
<defs>
    <style>
      .cls-1 {
        fill: #fff;
        fill-rule: evenodd;
      }
    </style>
  </defs>
  <path class="cls-1" d="M21.083,73.867L36.911,62.722a34.084,34.084,0,0,0,3.913,9.73l2.49-6.9s-6.047-11.322-4.8-19.46c0,0,11.648-10.968,22.141-15.037a104.04,104.04,0,0,1,8.714,9.288,92.17,92.17,0,0,1,6.847,9.022,3.146,3.146,0,0,1-.038,2.8c-0.762,1.926-2.266,4.893-4.408,5.248-3.2.531-8.359-1.946-12.271-6.192a13.019,13.019,0,0,1,2.845-7.253l-1.778-2.477s-5.513,5.661-5.691,10.791,12.449,9.022,16.184,9.73a9.234,9.234,0,0,0,1.69,6.192c2.308,3.061,7.291,3.1,7.291,3.1a8.009,8.009,0,0,0,1.245,5.307c2.49,3.892,7.677,2.683,7.677,2.683S74.791,88.373,68.567,89.965c0,0-1.245.885-7.292-2.3L41.712,105ZM83.95,70.24s-1.178,2.845,2.4,5.219A8.1,8.1,0,0,0,93.2,76.52s12.271-6.988,13.516-11.322-3.29-8.845-4.891-9.818C101.823,55.38,91.953,65.817,83.95,70.24ZM75.236,60.068S73.1,65.906,81.46,67.94c0,0,13.071-8.049,17.34-14.595,2.966-4.549,2.4-6.634,1.333-8.757S95.865,42.2,95.865,42.2s-7.2,8.226-14.494,12.118C81.371,54.319,78.881,58.653,75.236,60.068Zm0.356-17.779a92.932,92.932,0,0,1,6.847,7.518S90.8,43.881,92.486,40.52s1.6-4.776.089-6.634-5.513-2.211-6.491-2.3C86.084,31.586,78.97,38.928,75.591,42.289Zm-2.045-3.1,9.515-9.73s-0.978-4.423-4.179-6.192S65.365,29.2,65.365,29.2Z"/>
</svg>
