<svg xmlns="http://www.w3.org/2000/svg" width="128" height="128" viewBox="0 0 128 128">
  <metadata><?xpacket begin="﻿" id="W5M0MpCehiHzreSzNTczkc9d"?>
<x:xmpmeta xmlns:x="adobe:ns:meta/" x:xmptk="Adobe XMP Core 5.6-c138 79.159824, 2016/09/14-01:09:01        ">
   <rdf:RDF xmlns:rdf="http://www.w3.org/1999/02/22-rdf-syntax-ns#">
      <rdf:Description rdf:about=""/>
   </rdf:RDF>
</x:xmpmeta>
                                                                                                    
                                                                                                    
                                                                                                    
                                                                                                    
                                                                                                    
                                                                                                    
                                                                                                    
                                                                                                    
                                                                                                    
                                                                                                    
                                                                                                    
                                                                                                    
                                                                                                    
                                                                                                    
                                                                                                    
                                                                                                    
                                                                                                    
                                                                                                    
                                                                                                    
                                                                                                    
                           
<?xpacket end="w"?></metadata>
<defs>
    <style>
      .cls-1 {
        fill: #fff;
        fill-rule: evenodd;
      }
    </style>
  </defs>
  <path class="cls-1" d="M50.7,64.784a2.105,2.105,0,0,1,1.846,1.082l5.1,9.26L66.66,51.79a2.1,2.1,0,0,1,1.963-1.333h0.009a2.1,2.1,0,0,1,1.96,1.349l5.092,13.528h24.9c8.2-16.036,7.444-31.195-4.642-36.226C74.1,20.017,63.995,43.571,63.995,43.571H63.916s-10-23.554-31.835-14.463c-11.948,4.974-12.833,19.844-4.926,35.676H50.7Zm23.518,4.683a2.1,2.1,0,0,1-1.969-1.349L68.6,58.406l-8.651,22.4a2.1,2.1,0,0,1-1.823,1.328c-0.047,0-.094,0-0.14,0a2.105,2.105,0,0,1-1.846-1.082L49.454,68.916H29.409c6.977,11.806,18.674,23.716,34.169,32.094h0.863C79.7,92.762,91.264,81.092,98.277,69.466H74.222Z"/>
</svg>
