<svg xmlns="http://www.w3.org/2000/svg" width="128" height="128" viewBox="0 0 128 128">
  <metadata><?xpacket begin="﻿" id="W5M0MpCehiHzreSzNTczkc9d"?>
<x:xmpmeta xmlns:x="adobe:ns:meta/" x:xmptk="Adobe XMP Core 5.6-c138 79.159824, 2016/09/14-01:09:01        ">
   <rdf:RDF xmlns:rdf="http://www.w3.org/1999/02/22-rdf-syntax-ns#">
      <rdf:Description rdf:about=""/>
   </rdf:RDF>
</x:xmpmeta>
                                                                                                    
                                                                                                    
                                                                                                    
                                                                                                    
                                                                                                    
                                                                                                    
                                                                                                    
                                                                                                    
                                                                                                    
                                                                                                    
                                                                                                    
                                                                                                    
                                                                                                    
                                                                                                    
                                                                                                    
                                                                                                    
                                                                                                    
                                                                                                    
                                                                                                    
                                                                                                    
                           
<?xpacket end="w"?></metadata>
<defs>
    <style>
      .cls-1 {
        fill: #fff;
        fill-rule: evenodd;
      }
    </style>
  </defs>
  <path class="cls-1" d="M65.191,69.519l9.363-6.628a20.34,20.34,0,0,0,2.315,5.786l1.473-4.1S74.765,57.841,75.5,53c0,0,6.891-6.523,13.1-8.942a61.741,61.741,0,0,1,5.155,5.523,54.8,54.8,0,0,1,4.051,5.365,1.88,1.88,0,0,1-.023,1.666c-0.451,1.145-1.341,2.91-2.607,3.121-1.894.316-4.945-1.157-7.259-3.682A7.768,7.768,0,0,1,89.6,51.739l-1.052-1.473s-3.261,3.367-3.367,6.417,7.364,5.366,9.574,5.786a5.514,5.514,0,0,0,1,3.682c1.366,1.821,4.314,1.841,4.314,1.841a4.784,4.784,0,0,0,.736,3.156c1.473,2.314,4.542,1.6,4.542,1.6s-8.382,5.4-12.064,6.347c0,0-.736.526-4.313-1.368L77.4,88.035Zm37.19-2.157s-0.7,1.692,1.421,3.1a4.77,4.77,0,0,0,4.05.631s7.259-4.156,8-6.733-1.947-5.26-2.893-5.839C112.955,58.525,107.116,64.732,102.381,67.362Zm-5.155-6.049s-1.262,3.472,3.683,4.682c0,0,7.732-4.787,10.257-8.679,1.755-2.7,1.42-3.945.789-5.208s-2.525-1.42-2.525-1.42-4.261,4.892-8.574,7.206A8.77,8.77,0,0,1,97.226,61.313Zm0.21-10.573a55.162,55.162,0,0,1,4.05,4.471s4.945-3.524,5.944-5.523,0.947-2.841.053-3.945-3.262-1.315-3.84-1.368C103.644,44.375,99.436,48.741,97.437,50.74ZM96.227,48.9l5.628-5.786a6.168,6.168,0,0,0-2.472-3.682c-1.894-1.052-8,3.524-8,3.524ZM29.765,63.993a1.3,1.3,0,0,1,1.143.688l3.156,5.884,5.579-14.829a1.3,1.3,0,0,1,1.215-.847h0.006a1.3,1.3,0,0,1,1.213.857l3.153,8.6H60.644c5.08-10.191,4.608-19.824-2.874-23.021-13.52-5.777-19.776,9.191-19.776,9.191H37.945s-6.189-14.968-19.709-9.191c-7.4,3.161-7.945,12.61-3.049,22.671H29.765Zm14.56,2.976a1.3,1.3,0,0,1-1.219-.857L40.843,59.94,35.488,74.175a1.3,1.3,0,0,1-1.129.844c-0.029,0-.058,0-0.087,0a1.3,1.3,0,0,1-1.143-.688l-4.138-7.715H16.581a55.844,55.844,0,0,0,21.154,20.4H38.27A55.955,55.955,0,0,0,59.218,66.969H44.326Z"/>
</svg>
