<svg xmlns="http://www.w3.org/2000/svg" width="128" height="128" viewBox="0 0 128 128">
  <metadata><?xpacket begin="﻿" id="W5M0MpCehiHzreSzNTczkc9d"?>
<x:xmpmeta xmlns:x="adobe:ns:meta/" x:xmptk="Adobe XMP Core 5.6-c138 79.159824, 2016/09/14-01:09:01        ">
   <rdf:RDF xmlns:rdf="http://www.w3.org/1999/02/22-rdf-syntax-ns#">
      <rdf:Description rdf:about=""/>
   </rdf:RDF>
</x:xmpmeta>
                                                                                                    
                                                                                                    
                                                                                                    
                                                                                                    
                                                                                                    
                                                                                                    
                                                                                                    
                                                                                                    
                                                                                                    
                                                                                                    
                                                                                                    
                                                                                                    
                                                                                                    
                                                                                                    
                                                                                                    
                                                                                                    
                                                                                                    
                                                                                                    
                                                                                                    
                                                                                                    
                           
<?xpacket end="w"?></metadata>
<defs>
    <style>
      .cls-1 {
        fill: #fff;
        fill-rule: evenodd;
      }
    </style>
  </defs>
  <path class="cls-1" d="M31.157,90.882a1.264,1.264,0,0,1,1.111.664l3.069,5.68,5.425-14.314a1.264,1.264,0,0,1,1.181-.817h0.005a1.264,1.264,0,0,1,1.18.827l3.065,8.3H61.182C66.121,81.382,65.663,72.084,58.387,69,45.241,63.421,39.158,77.87,39.158,77.87H39.11S33.092,63.421,19.946,69c-7.193,3.051-7.725,12.173-2.965,21.884H31.157Zm14.157,2.873a1.264,1.264,0,0,1-1.185-.827l-2.2-5.957-5.208,13.741a1.263,1.263,0,0,1-1.1.814l-0.084,0a1.264,1.264,0,0,1-1.111-.664L30.4,93.417H18.338A54.122,54.122,0,0,0,38.907,113.1h0.52A54.229,54.229,0,0,0,59.8,93.754H45.315Zm19.226,2.371,9.1-6.441a19.765,19.765,0,0,0,2.249,5.623l1.431-3.987s-3.476-6.543-2.76-11.246c0,0,6.7-6.338,12.728-8.69a60,60,0,0,1,5.01,5.367,53.244,53.244,0,0,1,3.936,5.214,1.827,1.827,0,0,1-.022,1.619c-0.438,1.113-1.3,2.828-2.534,3.033-1.84.307-4.8-1.125-7.054-3.578a7.549,7.549,0,0,1,1.636-4.192l-1.022-1.431s-3.169,3.272-3.272,6.236,7.156,5.214,9.3,5.623a5.359,5.359,0,0,0,.971,3.578c1.327,1.769,4.192,1.789,4.192,1.789a4.649,4.649,0,0,0,.716,3.067c1.431,2.249,4.413,1.551,4.413,1.551s-8.145,5.248-11.723,6.168c0,0-.716.511-4.192-1.329L76.4,114.119Zm36.14-2.1s-0.678,1.644,1.38,3.016a4.636,4.636,0,0,0,3.936.613s7.054-4.038,7.769-6.543-1.891-5.112-2.811-5.674C110.955,85.442,105.281,91.474,100.681,94.03Zm-5.01-5.878s-1.227,3.374,3.578,4.549c0,0,7.514-4.652,9.968-8.434,1.7-2.629,1.38-3.834.767-5.061a3.3,3.3,0,0,0-2.454-1.38s-4.14,4.754-8.332,7A8.522,8.522,0,0,1,95.671,88.151Zm0.2-10.274a53.588,53.588,0,0,1,3.936,4.345s4.806-3.425,5.776-5.367,0.92-2.76.051-3.834-3.169-1.278-3.732-1.329C101.907,71.692,97.818,75.934,95.876,77.877ZM94.7,76.088l5.469-5.623a6,6,0,0,0-2.4-3.578C95.927,65.864,90,70.312,90,70.312ZM73.333,30.739l5.719-6.727s-11.961-9.543-12.276-9.65l-5.813,6.4,12.277,9.888A0.989,0.989,0,0,1,73.333,30.739ZM70.587,53.81h15.2c0.005-.133.176-4.28-2.1-4.28-2.308,0-8.466.429-8.466,0.429l-2.068-5.982H66.547a1.076,1.076,0,0,1-.95-1.095,0.909,0.909,0,0,1,.95-0.91H72.5l-1.475-4a0.924,0.924,0,0,1-.313.058H65.6a0.972,0.972,0,0,1,0-1.943h4.779l-0.354-1.459,2.067-2.432c-0.011-.008-0.022-0.014-0.032-0.022L59.682,22.2c-0.006,0-.01-0.011-0.016-0.015l-3.8,4.185a57.869,57.869,0,0,0-6.006,5.576C50.018,32.081,58.989,39.188,70.587,53.81Zm15.23,2H70.133a0.813,0.813,0,0,1-.74-0.114c-11.659-14.761-20.65-22.175-20.74-22.25a0.931,0.931,0,0,1-.071-0.072,27.468,27.468,0,0,0-3.421,4.894L67.825,59.823l18.046-1.394S85.871,56.811,85.817,55.814Zm-48.5-4H53.489a0.972,0.972,0,0,0,0-1.943H37.315A0.972,0.972,0,0,0,37.315,51.819ZM61.37,57.795H33.419a0.972,0.972,0,0,0,0,1.943H61.37A0.975,0.975,0,0,0,61.37,57.795Z"/>
</svg>
