<?xml version="1.0" encoding="UTF-8"?>
<svg id="vitality_perks" xmlns="http://www.w3.org/2000/svg" width="50" height="50" viewBox="0 0 50 50">
  <defs>
    <style>
      .cls-1 {
        fill: #fff;
        fill-rule: evenodd;
      }
    </style>
  </defs>
  <path class="cls-1" d="m14.33,47.93s-.62-6.19-2.27-9.98c-1.16-2.69-3.72-7.75-5.11-10.48-.53-1.04-.14-2.31.87-2.88C20.35,17.44,31.03,9.28,40.83,1.5c.58-.1,1.53.43.01,3.6-.73,1.53-4.79,6.4-13.06,12.65-3.47,2.62-7.68,5.48-12.7,8.44-.52.3-.76.92-.6,1.5.75,2.71,2.68,10.46,1.78,15.77-.79,4.66-1.94,4.46-1.94,4.46Zm4.87-6.27c4.58-1.07,7.94-2,13.2-4.8,0,0,.82.8-3.38,5.32-2.88,3.11-10.54,4.04-10.54,4.04.44-1.45.69-2.97.72-4.56Zm-.7-6.49c12.81-5.97,13.64-5.67,19.13-11.46,0,0,2.08,3.9-3.63,9.32-3.91,3.72-14.94,6.08-14.94,6.08-.11-1.15-.28-2.44-.56-3.93Zm-.58-6.17c8.83-6.05,15.87-12.08,21.18-18.08,0,0,3.68,4.45-2.1,10.69-3.96,4.28-18.72,11.73-18.72,11.73,0,0-.5-2.18-.76-3.31-.09-.39.07-.8.4-1.03Z"/>
</svg>