<?xml version="1.0" encoding="UTF-8"?>
<svg id="speed_perks" xmlns="http://www.w3.org/2000/svg" width="50" height="50" viewBox="0 0 50 50">
  <defs>
    <style>
      .cls-1 {
        fill: #fff;
        fill-rule: evenodd;
      }
    </style>
  </defs>
  <path class="cls-1" d="m31,17c2.21,0,4-1.79,4-4s-1.79-4-4-4-4,1.79-4,4,1.79,4,4,4Zm-16,2h20v-2H15v2Zm10.19,0l-6.19,10h12.37l-6.19-10Zm-6.19-2c2.21,0,4-1.79,4-4s-1.79-4-4-4-4,1.79-4,4,1.79,4,4,4Zm-8.97,1.13c.34-.89-1.12-2.62-1.12-2.62,0,0-.43-1.6,2.56-6.73C14.46,3.66,21.99-.51,30.38,1.52c8.38,2.03,12.39,9.4,11.96,15.86-.43,6.46-2.39,9.48-5.03,12.68-.8.97-1.38,3.67,1.07,9.6,2.46,5.93,6.41,9.34,6.41,9.34h-27.45l1.34-1.07s1.5-3.52,1.5-5.18-3.04-4.22-3.04-4.22c-.44-.41-1.02-.69-1.76-.8l-4.85,1.02c-1.02.23-2.38-1.65-1.93-3.1l.64-1.6-1.17-1.92.43-1.01-.69-1.76.75-2.46-2.96-.57c-.45-.17-.87-.75-.3-1.4,0,0,4.15-5.22,4.75-6.78Z"/>
</svg>