<?xml version="1.0" encoding="UTF-8"?>
<svg id="weapon_pers" xmlns="http://www.w3.org/2000/svg" width="50" height="50" viewBox="0 0 50 50">
  <defs>
    <style>
      .cls-1 {
        fill: #fff;
        fill-rule: evenodd;
      }
    </style>
  </defs>
  <path class="cls-1" d="m17.26,23.23c-.17.56-.26,1.15-.26,1.76,0,3.31,2.69,5.99,6,5.99s6-2.68,6-5.99-2.69-5.99-6-5.99c-.62,0-1.21.09-1.77.26,1.04.47,1.77,1.52,1.77,2.74,0,1.66-1.34,3-3,3-1.22,0-2.27-.73-2.74-1.77Zm5.74-6.23c4.42,0,8,3.58,8,8s-3.58,8-8,8-8-3.58-8-8,3.58-8,8-8ZM4.02,25.42c1.47,1.38,5.97,5.39,11.4,8,2.89,1.39,6.06,2.39,9.15,2.34,3.03-.05,5.99-1.1,8.64-2.53,4.57-2.46,8.23-6.04,9.85-7.75-1.78-1.66-6-5.35-10.96-7.83-2.78-1.39-5.79-2.4-8.73-2.31-1.75,0-3.45.46-5.12,1.05-1.79.63-3.54,1.41-5.16,2.33-4.37,2.48-7.86,5.57-9.08,6.7Zm-1.57-.44s4.2-6.7,10.57-11.01c1.49-1.01,3.11-1.85,4.8-2.43,1.79-.62,3.68-.9,5.56-.88,3.65.13,7.34,1.51,10.65,3.49,6.81,4.07,12.01,10.34,12.01,10.34l.83.92-.82.93s-5.08,5.54-11.81,8.88c-3,1.49-6.31,2.55-9.67,2.52-3.38-.03-6.81-1.18-9.93-2.77-6.82-3.48-12.15-9.06-12.15-9.06l-.43-.44.39-.49Z"/>
</svg>