<?xml version="1.0" encoding="UTF-8"?>
<svg id="weapon_pers" xmlns="http://www.w3.org/2000/svg" width="50" height="50" viewBox="0 0 50 50">
  <defs>
    <style>
      .cls-1 {
        fill: #fff;
        fill-rule: evenodd;
      }
    </style>
  </defs>
  <path class="cls-1" d="m28,2.2c11.23,1.5,19.9,11.14,19.9,22.8,0,12.69-10.28,23-22.95,23S2,37.69,2,25c0-3.7.87-7.2,2.43-10.3l1.72,1.17c-1.19,2.48-1.92,5.23-2.05,8.13h14.07c1.12.76,2.13,1.44,2.96,2H4.1c.5,10.79,9.13,19.49,19.9,19.98v-18.15c.31.11.65.17,1,.17s.69-.06,1-.17v18.14c10.73-.53,19.3-9.21,19.81-19.97h-17.98c.11-.31.17-.65.17-1v-1h17.81c-.47-10.08-8.03-18.34-17.81-19.78v-2.02Zm4,31.8c1.1,0,2,.9,2,2s-.9,2-2,2-2-.9-2-2,.9-2,2-2Zm-21-6c1.66,0,3,1.34,3,3s-1.34,3-3,3-3-1.34-3-3,1.34-3,3-3Zm6-18c1.66,0,3,1.34,3,3s-1.34,3-3,3-3-1.34-3-3,1.34-3,3-3Zm0-2c-2.76,0-5,2.24-5,5s2.24,5,5,5,5-2.24,5-5-2.24-5-5-5Zm9-5.98v22.98c0,.55-.45,1-1,1-.2,0-.38-.06-.54-.16-.1-.06-14.45-9.78-19.06-12.89C9.45,6.38,16.69,2,24.95,2c.35,0,.7,0,1.05.02Z"/>
</svg>