<?xml version="1.0" encoding="UTF-8"?>
<svg id="vitality_perks" xmlns="http://www.w3.org/2000/svg" width="50" height="50" viewBox="0 0 50 50">
  <defs>
    <style>
      .cls-1 {
        fill: #fff;
        fill-rule: evenodd;
      }
    </style>
  </defs>
  <path class="cls-1" d="m10.37,42.02c-.29-.18-.58-.36-.87-.56-4.44-3-7.24-7.21-8.2-11.88-.93-4.5-.15-9.46,2.6-14.24,1.29-2.24,2.96-4.04,4.86-5.38l1.97-5.88c.25-.75,1.06-1.16,1.82-.9.29.1,1.29,1.93,2.39,4.17,3.65-.66,7.49.06,10.83,2.32,2.48,1.68,4.24,4.14,5.19,6.94.91,2.68,1.05,5.67.36,8.54-.16.65-1.27,3.08-1.6,3.81s-.81,1.37-1.44,1.92c-2.34,2.03-5.89,1.77-7.92-.58-2.03-2.34-1.77-5.89.58-7.92,1.68-1.45,3.97-1.73,5.88-.92.02-1.14-.14-2.26-.47-3.32-.58-1.82-1.67-3.45-3.26-4.57-1.88-1.32-4.01-1.92-6.12-1.85.92,2.12,1.59,3.87,1.48,4.14-.29.74-1.13,1.1-1.86.81l-6.11-2.42c-1.08.89-2.05,1.99-2.83,3.3-2.25,3.76-3,7.67-2.33,11.25.7,3.72,2.9,7.06,6.37,9.51.08.06.16.11.24.17,1.19-2.58,2.33-4.81,2.65-4.92.76-.27,1.59.13,1.86.88l2.42,6.84c2.48.42,5.01.28,7.44-.37,4.76-1.28,9.13-4.5,12.06-9.37,1.32-2.2,2.18-4.27,2.73-6.4.19-.74.34-1.49.47-2.25-2.17-.22-4.04-.5-4.2-.73-.4-.56-.32-1.39.19-1.85l5.23-4.76c.49-.44,1.19-.38,1.6.13l4.44,5.57c.43.54.39,1.37-.1,1.86-.19.2-2,.17-4.11.04-.13.93-.29,1.84-.51,2.75-.57,2.42-1.5,4.78-2.95,7.29-3.31,5.75-8.37,9.56-13.89,11.15-3.34.96-6.86,1.11-10.28.37l-6.24,2.6c-.74.31-1.59-.04-1.9-.78-.12-.28.58-2.2,1.54-4.47Z"/>
</svg>