<?xml version="1.0" encoding="UTF-8"?>
<svg id="vitality_perks" xmlns="http://www.w3.org/2000/svg" width="50" height="50" viewBox="0 0 50 50">
  <defs>
    <style>
      .cls-1 {
        fill: #fff;
        fill-rule: evenodd;
      }
    </style>
  </defs>
  <path class="cls-1" d="m25,17c-2.76,0-3.54,1.29-3.54,3.5s.78,2.5,3.54,2.5,3.54-.3,3.54-2.5-.78-3.5-3.54-3.5Zm5.32,7.9v3.39c0,.4,1.23.77,1.56.98.34.21,7.42.58,8.78-2.13,1.36-2.7.07-11.17-.6-14.09-.36-1.57-2.45-2.44-3.39-3.39-1.43-1.68-1.25-4.23.41-5.68,1.66-1.45,4.17-1.27,5.6.41,1.32,1.82,2.85,3.94,3.04,6.25.35,4.25.64,15.3-.97,19.26-1.24,3.05-5.46,4.06-8.68,4.53-5.14.75-17.02.75-22.16,0-3.22-.47-7.45-1.48-8.68-4.53-1.61-3.97-1.31-15.01-.96-19.26.19-2.31,1.72-4.43,3.04-6.25,1.43-1.68,3.95-1.87,5.6-.41,1.66,1.45,1.84,4,.41,5.68-.94.95-3.03,1.82-3.39,3.39-.66,2.91-1.96,11.39-.6,14.09,1.36,2.7,8.44,2.32,8.77,2.12.33-.21,1.56-.57,1.56-.97,0-1.31,0-2.49,0-3.39-1.05-1.05-1.68-2.41-1.68-3.9,0-3.31,3.14-6,7-6s7,2.69,7,6c0,1.49-.63,2.85-1.68,3.9Zm-8.26,22.1h5.93v-10h-5.93v10Z"/>
</svg>