<?xml version="1.0" encoding="UTF-8"?>
<svg id="weapon_pers" xmlns="http://www.w3.org/2000/svg" width="50" height="50" viewBox="0 0 50 50">
  <defs>
    <style>
      .cls-1 {
        fill: #fff;
        fill-rule: evenodd;
      }
    </style>
  </defs>
  <path class="cls-1" d="m37.62,39.5c-1.05-.02-1.93.85-1.95,1.91h0c0,1.05.86,1.92,1.89,1.92s1.89-.86,1.89-1.91-.82-1.88-1.84-1.91ZM2.27,23.98l-1.27-6.32,1.27-1.28h2.56l3.84,3.81h5.09l2.56-2.53v-5.07l-3.83-3.81v-2.54l1.28-1.25,6.37,1.25,5.1,5.07v10.14s6.74,6.7,6.74,6.7l11.46,11.38v5.07l-2.54,2.54h-5.1l-18.2-18.09H7.37l-5.1-5.07Zm46.53-11.56c-.1.25-.35.42-.62.41h-7.34v7.34c0,.13-.03.25-.09.37-.07.11-.18.2-.3.26-.18.08-.37.13-.57.15-.28.03-.57.05-.86.04-.49.03-.98-.04-1.44-.2-.25-.1-.42-.35-.41-.62v-7.34h-7.32c-.28.01-.54-.16-.64-.42-.16-.46-.23-.95-.2-1.44-.03-.48.04-.96.2-1.41.11-.26.36-.42.64-.41h7.32V1.84c0-.28.16-.54.42-.64.46-.16.95-.23,1.43-.2.48-.03.96.04,1.41.2.26.11.42.36.41.64v7.31h7.34c.27-.02.52.14.62.39.08.18.13.37.15.57.03.28.05.57.04.86.03.49-.04.98-.2,1.45Z"/>
</svg>