<?xml version="1.0" encoding="UTF-8"?>
<svg id="speed_perks" xmlns="http://www.w3.org/2000/svg" width="50" height="50" viewBox="0 0 50 50">
  <defs>
    <style>
      .cls-1 {
        fill: #fff;
        fill-rule: evenodd;
      }
    </style>
  </defs>
  <path class="cls-1" d="m14.79,14h-5.2l3.62-5.88-3.62-6.12h5.2l3.62,6-3.62,6Zm8.59,0h-5.2l3.62-5.88-3.62-6.12h5.2l3.62,6-3.62,6Zm-17.18,0H1l3.62-5.88L1,2h5.2l3.62,6-3.62,6Zm6.59,27.5c-1.02.03-1.84.88-1.84,1.91s.86,1.91,1.89,1.91,1.89-.87,1.89-1.92c-.02-1.06-.89-1.93-1.95-1.91Zm35.35-15.52l-5.1,5.07h-10.2l-18.2,18.09h-5.1l-2.54-2.54v-5.07l11.46-11.38,6.75-6.7v-8.14s5.09-7.07,5.09-7.07l6.37-1.25,1.28,1.25v2.54l-3.83,3.81v5.07l2.56,2.53h5.09l3.84-3.81h2.56l1.27,1.28-1.27,6.32Z"/>
</svg>