<?xml version="1.0" encoding="UTF-8"?>
<svg id="speed_perks" xmlns="http://www.w3.org/2000/svg" width="50" height="50" viewBox="0 0 50 50">
  <defs>
    <style>
      .cls-1 {
        fill: #fff;
        fill-rule: evenodd;
      }
    </style>
  </defs>
  <path class="cls-1" d="m31.51,19.74l4.06-.32c1.11-.09,2.07.74,2.16,1.84.09,1.11-.74,2.07-1.84,2.16l-4.74.38.36-4.06Zm-6.56,11.75l-1.75,4.67c-.06.17-.15.33-.25.48l-6.16,8.8c-.69.98-2.05,1.22-3.03.53-.98-.69-1.22-2.05-.53-3.03l6.01-8.58,2.07-5.5c.58.75,2.89,2.12,3.66,2.62ZM28.11,1.98c2.19.29,3.73,2.3,3.44,4.49-.29,2.19-2.3,3.73-4.49,3.44-2.19-.29-3.73-2.3-3.44-4.49.29-2.19,2.3-3.73,4.49-3.44Zm-5.27,16.03l-1.89,1.1,1.68,1.26.21-2.36Zm-.65,7.28l.02-.2s-.05-.03-.07-.05l-6.02-4.54c-.54-.41-.84-1.05-.8-1.72.04-.67.41-1.28,1-1.62l8.25-4.79c.23-.13.48-.22.72-.25.47-.18.98-.25,1.51-.21,1.87.17,3.25,1.82,3.08,3.69l-.93,10.31c-.02.19-.05.38-.1.56l4.53,2.9c.72.46,1.1,1.3.98,2.14l-1.37,9.62c-.17,1.19-1.27,2.02-2.46,1.85-1.19-.17-2.02-1.27-1.85-2.46l1.17-8.24s-6.78-4.33-7.25-5c-.62-.89-.49-1.29-.43-1.98Z"/>
</svg>