<?xml version="1.0" encoding="UTF-8"?>
<svg id="speed_perks" xmlns="http://www.w3.org/2000/svg" width="50" height="50" viewBox="0 0 50 50">
  <defs>
    <style>
      .cls-1 {
        fill: #fff;
        fill-rule: evenodd;
      }
    </style>
  </defs>
  <path class="cls-1" d="m31.8,32.52l2.41-2.51,6.81,6.52,6.38-6.79,2.54,2.38-8.79,9.35-9.35-8.95Zm2.41-10.53l-2.41-2.51,9.35-8.95,8.79,9.35-2.54,2.38-6.38-6.79-6.81,6.52ZM25,4.61v2.96c0,.82-.66,1.48-1.48,1.48h-9.04c-.82,0-1.48-.66-1.48-1.48v-2.96c0-.82.66-1.48,1.48-1.48h9.04c.82,0,1.48.66,1.48,1.48Zm-13.97,32.46h-1s-3.12-2.33-3.12-2.33l2.6-23.71h1.51s0,26.04,0,26.04Zm13.94-16.01v15.81s0,.1,0,.14l-11.95.05v-16s11.94,0,11.94,0Zm-11.95-2v-8.02s11.95.03,11.95.03v7.99h-11.95Zm-4.1,27.95h-3.92c-1.18-.31-1.87-.56-3.06-3.93-2.21-6.29,0-6.48,1.11-6.86,1.11-.38,3.89.79,4.98,2.86h.89v7.93Zm18.11,0H10.93v-7.93s16.11,0,16.11,0v7.93Zm9.79-6.63c-.15.75-.4,1.63-.77,2.7-1.18,3.37-1.88,3.62-3.06,3.93h-3.96v-7.93s.93,0,.93,0c.61-1.17,1.76-2.05,2.85-2.53l4,3.83Zm-5.88-5.63l-1.95,2.25h-1.94s0-.08,0-.13V11.08h1.78s1.74,19.52,1.74,19.52l-.38.4c-.84.88-.81,2.27.07,3.11l.67.64Z"/>
</svg>