<?xml version="1.0" encoding="UTF-8"?>
<svg id="speed_perks" xmlns="http://www.w3.org/2000/svg" width="50" height="50" viewBox="0 0 50 50">
  <defs>
    <style>
      .cls-1 {
        fill: #fff;
        fill-rule: evenodd;
      }
    </style>
  </defs>
  <path class="cls-1" d="m14.79,14h-5.2l3.62-5.88-3.62-6.12h5.2l3.62,6-3.62,6Zm8.59,0h-5.2l3.62-5.88-3.62-6.12h5.2l3.62,6-3.62,6Zm-17.18,0H1l3.62-5.88L1,2h5.2l3.62,6-3.62,6Zm23.29,7.08l-3.21-.03-3.61,4.6c-.7.89-1.99,1.05-2.88.35-.89-.7-1.05-1.99-.35-2.88l4.23-5.39c.39-.5.99-.79,1.63-.78l8.07.07c.31,0,.61.08.87.2.13.03.27.08.4.13,1.78.69,2.67,2.7,1.98,4.48l-3.43,8.88,6.25,3.75c.61.37,1.01,1.01,1.07,1.72l.7,8.64c.1,1.22-.81,2.29-2.03,2.39-1.22.1-2.29-.81-2.39-2.03l-.61-7.5-8-4.81c-.09-.05-.17-.11-.25-.18-1.33-.88-1.93-2.59-1.33-4.14l2.89-7.46Zm9.36-.09l2.24,2.29,4.74-1.9c1.05-.42,2.24.09,2.66,1.14.42,1.05-.09,2.24-1.14,2.66l-6,2.4c-.77.31-1.65.12-2.22-.47l-1.71-1.75,1.09-2.82c.2-.51.31-1.04.35-1.56Zm-11.41,13.76l-3.18,3.42c-.69.74-1.79.92-2.68.44l-8.38-4.53c-1.08-.58-1.48-1.93-.9-3.01.58-1.08,1.93-1.48,3.01-.9l6.87,3.71,2.4-2.59c.35,1.2,1.1,2.28,2.17,3,.12.09.25.18.4.27l.29.17Zm9.56-27.76c2.21,0,4,1.79,4,4s-1.79,4-4,4-4-1.79-4-4,1.79-4,4-4Z"/>
</svg>