<?xml version="1.0" encoding="UTF-8"?>
<svg id="vitality_perks" xmlns="http://www.w3.org/2000/svg" width="50" height="50" viewBox="0 0 50 50">
  <defs>
    <style>
      .cls-1 {
        fill: #fff;
        fill-rule: evenodd;
      }
    </style>
  </defs>
  <path class="cls-1" d="m28.7,8.71l-2.58,14.16,8.73.03-12.42,18.92,2.07-12.61-8.73-.03,12.92-20.47ZM5,13.79c-.13-.34-.14-.73,0-1.08v-7.71l3.4,3.37C12.65,4.13,18.52,1.5,25,1.5c2.88,0,5.64.52,8.19,1.47.78.29,1.17,1.15.88,1.93-.29.78-1.15,1.17-1.93.88-2.22-.83-4.63-1.28-7.14-1.28-5.65,0-10.76,2.29-14.47,5.98l4.55,4.52H5v-1.21Zm37.65-4.3c3.64,4.14,5.85,9.57,5.85,15.51,0,2.57-.42,5.05-1.18,7.37-.26.79-1.11,1.21-1.9.95-.79-.26-1.21-1.11-.95-1.89.67-2.02,1.03-4.18,1.03-6.43,0-5.11-1.87-9.78-4.96-13.37l-3.54,3.58V5h10.08l-4.43,4.49Zm-2.07,33.09c-4.15,3.68-9.61,5.92-15.58,5.92-2.43,0-4.77-.37-6.98-1.06-.79-.25-1.23-1.09-.99-1.88.25-.79,1.09-1.23,1.88-.99,1.92.6,3.97.92,6.09.92,5.15,0,9.86-1.9,13.46-5.04l-3.46-3.46h10v10l-4.42-4.42Zm-33.17-2c-3.68-4.15-5.92-9.61-5.92-15.58,0-2.27.32-4.47.92-6.54.23-.8,1.06-1.25,1.86-1.02.8.23,1.25,1.06,1.02,1.86-.52,1.81-.81,3.73-.81,5.71,0,5.15,1.9,9.86,5.04,13.46l3.46-3.46v10H3l4.42-4.42Z"/>
</svg>