<svg id="guns_sights" data-name="guns sights" xmlns="http://www.w3.org/2000/svg" width="128" height="128" viewBox="0 0 128 128">
  <defs>
    <style>
      .cls-1 {
        fill: #e0e0e0;
        fill-rule: evenodd;
      }
    </style>
  </defs>
  <path id="Color_Fill_1_copy_9" data-name="Color Fill 1 copy 9" class="cls-1" d="M115.474,89.637c-0.338-.436-0.676-0.888-1.01-1.373a4.045,4.045,0,0,0-2.817-4.152l-2.786-.879a4.042,4.042,0,0,0-4.869,2.119q-0.5,1.052-1.04,2.009a4.046,4.046,0,0,0-3.947-3.155H88.492a4.015,4.015,0,0,0-.463.037c-2.833-7.317-5.753-13.8-7.509-14.722a34.681,34.681,0,0,0-5.838-2.138c1.976-.5,3.42-0.816,3.42-0.816l2.569-7.956c-0.844-1.263-.943-2.651-1.388-4.851a4.113,4.113,0,0,1-1.085-.2c-0.731-.292-1.406-1.994-2.04-3.624,0,0-3.811.621-4.186-1.255,0.094-.75,1.849-9.516,1.849-9.516S77.427,23,88.027,23h4.026c10.6,0,13.914,17.364,13.914,17.364s2,7.573,2.091,8.323c-0.375,1.876-4.066,1.255-4.066,1.255-0.634,1.63-1.381,3.332-2.111,3.624a4.113,4.113,0,0,1-1.085.2c-0.444,2.2-.544,3.588-1.387,4.851l2.082,7.9s10.137,2.049,13.8,3.979c1.759,0.926,3.9,6.377,5.646,11.8C120.618,84.921,118.674,87.4,115.474,89.637ZM63.672,47c-0.74,1.905-1.944,4.4-2.8,4.737a4.789,4.789,0,0,1-1.265.229c-0.518,2.572-.634,4.194-1.618,5.671l2.428,9.239s11.822,2.4,16.1,4.651c1.623,0.856,3.953,6.458,6.22,13.08a4.017,4.017,0,0,0-1.959-.512H65.807a4.027,4.027,0,0,0-1.869.457l-2.168-.957A4.045,4.045,0,0,0,56.4,85.746a52.21,52.21,0,0,1-5.322,10.059,4.044,4.044,0,0,0-.523,3.631l0.128,0.376L50.336,99.8,32.194,67.149c0.581-.135.948-0.216,0.948-0.216l3-9.3c-0.984-1.476-1.1-3.1-1.618-5.671a4.789,4.789,0,0,1-1.265-.229C32.4,51.392,31.2,48.9,30.459,47c0,0-4.445.725-4.882-1.467,0.109-.877,2.25-10.624,2.25-10.624S32.031,16,44.394,16h5.342C62.1,16,65.965,36.3,65.965,36.3s2.339,8.352,2.449,9.229C67.976,47.721,63.672,47,63.672,47ZM25.9,68.748l0.4-.108L40.778,99.4C22.949,98.347,10,95.552,10,88.5c0-.022-0.007-0.057-0.008-0.081,2.21-7.146,5.233-15.5,7.618-16.756a36.955,36.955,0,0,1,5.85-2.2,0.878,0.878,0,0,0-.005-0.184c-0.125-.483-1.084-0.951-7.692.954L10,48l1.374-2.025L4,21l2-1,7.22,17.88,4.343-1.592L18,38l-2,5Zm39,45.1a84.989,84.989,0,0,1-10.8,4.335l-0.8-2.935a84.254,84.254,0,0,0,10.9-4.3Zm7.576-5.972h-6.5v-2.9H81.914v2.9H75.549v7.082h8v2.934H64.8v-2.934h7.679v-7.082ZM63.11,93.607l2.7,1.433a74.9,74.9,0,0,1-7.61,12.61,53.333,53.333,0,0,0,6.245-2.064l0.461,2.8a61.107,61.107,0,0,1-10.375,3.157l-0.887-2.628a58.768,58.768,0,0,0,5.733-8.1l-4.812.938-0.887-2.61a57.565,57.565,0,0,0,5.921-11.16L62.376,89.2A60.252,60.252,0,0,1,57.6,98.317a22.97,22.97,0,0,0,3.532-.768A31.181,31.181,0,0,0,63.11,93.607ZM82.477,104.34a50.77,50.77,0,0,0-8.429-5.2,43.475,43.475,0,0,1-8.839,5.306l-1.5-2.661a34.285,34.285,0,0,0,13.5-10H65.43V88.846H80.839v2.935a29.622,29.622,0,0,1-4.471,5.29,49.706,49.706,0,0,1,8,4.931Zm14.3,6.143a58.172,58.172,0,0,1-7.491,2.867l-1.007-2.7a46,46,0,0,0,7.44-2.782Zm-0.392,4.88a1.645,1.645,0,0,0,.512-0.734,23.292,23.292,0,0,0,.333-3.711q0.162-3.251.162-6.066H88.978l1.228-12.013,2.816,0.495-0.87,8.736h3.6l0.665-10.357H88.773V88.966H99.592l-0.836,13.1h1.656q-0.069,4.761-.265,9.036a25.9,25.9,0,0,1-.546,5.264,3.167,3.167,0,0,1-1.169,1.57,5.116,5.116,0,0,1-2.832.58H93.654l-0.87-2.969q0.87,0.086,2.167.085A2.519,2.519,0,0,0,96.384,115.363Zm18.309-12.781,2.867,0.8a61.986,61.986,0,0,1-3.208,11.638h4.539v2.866H100.616v-2.866h10.7A49.341,49.341,0,0,0,114.693,102.582Zm-6.365,11.126a47.75,47.75,0,0,0-1.638-10.665l2.8-.768a52.907,52.907,0,0,1,1.6,10.733Zm-1.945-.358-2.833.665a42.39,42.39,0,0,0-2.371-10.477l2.679-.887A48.593,48.593,0,0,1,106.383,113.35Zm12.934-14.812-1.928,2.406a14.509,14.509,0,0,1-2.338-1.672v1.945H104.216v-2.3a18.7,18.7,0,0,1-2.764,2.2l-1.775-2.406q5.272-3.515,8.8-10.938l2.867,0.9a2.891,2.891,0,0,1-.393.956Q114.847,95.911,119.317,98.538Zm-9.9-6.16a35.372,35.372,0,0,1-4.573,5.938h9.283A35.482,35.482,0,0,1,109.42,92.378Z"/>
</svg>
