<svg xmlns="http://www.w3.org/2000/svg" width="33.181" height="24.258" viewBox="0 0 33.181 24.258">
  <g id="Group_82" data-name="Group 82" transform="translate(0)">
    <g id="Group_80" data-name="Group 80" transform="translate(0 0.158)">
      <g id="Group_78" data-name="Group 78">
        <path id="Path_53" data-name="Path 53" d="M40.968,181.771l1.692,7.646-2.206.46-4.56-.961-1.935-8.661,3.464-1.935,3.031.961,3.031-.961,1.84,1.028Z" transform="translate(-33.959 -170.292)" fill="#c4c4c4"/>
        <path id="Path_54" data-name="Path 54" d="M41.143,179.918l-1.557.5-1.557-.5-1.6-3.357.549-3.075,2.607-1.1,2.607,1.1.549,3.075Z" transform="translate(-33.086 -172.388)" fill="#c4c4c4"/>
      </g>
      <g id="Group_79" data-name="Group 79" transform="translate(21.814)">
        <path id="Path_55" data-name="Path 55" d="M61.446,180.255l-1.922,8.661-4.574.961-2.206-.46,1.705-7.646-4.371-2.422,1.84-1.028,3.031.961,3.031-.961Z" transform="translate(-50.079 -170.292)" fill="#c4c4c4"/>
        <path id="Path_56" data-name="Path 56" d="M56.06,179.918l-1.557.5-1.557-.5-1.6-3.357.549-3.075,2.607-1.1,2.607,1.1.549,3.075Z" transform="translate(-49.63 -172.388)" fill="#c4c4c4"/>
      </g>
    </g>
    <g id="Group_81" data-name="Group 81" transform="translate(8.548)">
      <path id="Path_57" data-name="Path 57" d="M53.981,192.739l-5.661,1.192-5.661-1.192-2.385-10.731,4.292-2.385,3.754,1.192,3.754-1.192,4.292,2.385Z" transform="translate(-40.275 -169.674)" fill="#c4c4c4"/>
      <path id="Path_58" data-name="Path 58" d="M49.169,181.6l-1.928.621-1.928-.621-1.981-4.159.68-3.809,3.229-1.36,3.229,1.36.68,3.809Z" transform="translate(-39.196 -172.271)" fill="#c4c4c4"/>
    </g>
    <path id="Path_59" data-name="Path 59" d="M42.856,184.2" transform="translate(-30.816 -168.058)" fill="#c4c4c4"/>
    <path id="Path_60" data-name="Path 60" d="M36.68,182.9" transform="translate(-32.997 -168.518)" fill="#c4c4c4"/>
  </g>
</svg>
