<svg xmlns="http://www.w3.org/2000/svg" width="27.271" height="17.093" viewBox="0 0 27.271 17.093">
  <g id="Group_6900" data-name="Group 6900" transform="translate(0.002)">
    <g id="Group_3289" data-name="Group 3289" transform="translate(0 4.051)">
      <path id="Path_1637" data-name="Path 1637" d="M-1403.631,112.514l1.377-.682-.244-.369.386-.983v-.69l1.143-.463-.089-.359v-.3a2.974,2.974,0,0,0-2.974-2.974h0a2.975,2.975,0,0,0-2.975,2.974v.3l-.09.359,1.143.463v.69l.386.983-.4.6-2.236.463-.8.7.51,4.814,6.08.191Z" transform="translate(1408.999 -105.691)" fill="#fff"/>
    </g>
    <path id="Path_1638" data-name="Path 1638" d="M-1383.515,109.346c-1.23,0-1.778.292-2.87.334v.429l.577,1.069.065,1.11a.566.566,0,0,0,.211.412l.641.648a1.5,1.5,0,0,0,.938.33h.877a1.5,1.5,0,0,0,.938-.33l.64-.648a.564.564,0,0,0,.211-.412l.066-1.11.577-1.069v-.429C-1381.736,109.638-1382.285,109.346-1383.515,109.346Z" transform="translate(1397.157 -103.554)" fill="#fff"/>
    <path id="Path_1639" data-name="Path 1639" d="M-1385.393,102.339a34.439,34.439,0,0,1,4.578.282l-.134-.536v-.453a4.444,4.444,0,0,0-4.444-4.444h0a4.444,4.444,0,0,0-4.444,4.444v.453l-.135.536A34.446,34.446,0,0,1-1385.393,102.339Z" transform="translate(1399.035 -97.187)" fill="#fff"/>
    <g id="Group_3290" data-name="Group 3290" transform="translate(6.606 9.076)">
      <path id="Path_1640" data-name="Path 1640" d="M-1395.131,119.931l1.724,6.03h2.978l-3.817-6.466Z" transform="translate(1395.131 -117.945)" fill="#fff"/>
      <path id="Path_1641" data-name="Path 1641" d="M-1380.825,117.289l-1.552-1.048-1.1,1.986-2.043,1.754-2.043-1.754-1.1-1.986-1.552,1.048,4.69,6.968h5.313l1.724-6.03Z" transform="translate(1392.552 -116.241)" fill="#fff"/>
    </g>
    <g id="Group_3291" data-name="Group 3291" transform="translate(19.239 4.051)">
      <path id="Path_1642" data-name="Path 1642" d="M-1361.377,112.527l-2.236-.463-.4-.6.386-.983v-.69l1.143-.463-.09-.359v-.3a2.975,2.975,0,0,0-2.974-2.974h0a2.974,2.974,0,0,0-2.974,2.974v.3l-.09.359,1.143.463v.69l.386.983-.244.369,1.377.682-1.222,5.72,6.08-.191.511-4.814Z" transform="translate(1368.609 -105.691)" fill="#fff"/>
    </g>
  </g>
</svg>
