<svg id="_124_tank_icon" data-name="124_tank_icon" xmlns="http://www.w3.org/2000/svg" width="150" height="150" viewBox="0 0 150 150">
  <defs>
    <style>
      .cls-1 {
        fill: #754c29;
      }

      .cls-1, .cls-2, .cls-3, .cls-4, .cls-5 {
        fill-rule: evenodd;
      }

      .cls-2 {
        fill: #b83027;
      }

      .cls-3 {
        fill: #231f20;
      }

      .cls-4 {
        fill: #fbbd40;
      }

      .cls-5 {
        fill: #f7f7f7;
      }
    </style>
  </defs>
  <path class="cls-1" d="M71.156,125.147a88.45,88.45,0,0,0-31.728,5.816c3.494,5.621,7.687,16.477,7.687,16.477,5.451-1.939,24.04-2.714,24.04-2.714h7.687s18.589,0.775,24.04,2.714c0,0,4.193-10.856,7.687-16.477a88.448,88.448,0,0,0-31.727-5.816H71.156Z"/>
  <path class="cls-2" d="M75,1.989L91.244,51.983H143.81l-42.527,30.9,16.244,49.994L75,101.976l-42.527,30.9L48.717,82.88,6.19,51.983H58.756Z"/>
  <path class="cls-3" d="M123.8,87.059l-7.015-2.037-4.356-4.356-4.356-4.356-7.58-1.679V73.217l0.544-.229c0.392-.359,1.659-1.619,1.5-2.744-0.117-.816-3.438-11.371-4.1-13.479l-0.139-.442-0.452-.1-1.389-.311c-0.481-1.456-2.68-2.419-6.436-2.8a22.806,22.806,0,0,0-2.3-.126,9.8,9.8,0,0,0-3.112.41,10.762,10.762,0,0,0-1.647-.243c-1.142,0-21.688,1.2-22.562,1.246l-0.219.013-0.182.122A15.386,15.386,0,0,0,58.213,55.9l-24.8-8.914a2.83,2.83,0,0,0-1.914,5.327l24.7,8.877c-0.126.427-.252,0.843-0.375,1.231a17.963,17.963,0,0,0-.814,5.945L55.055,68.6l0.164,0.17,2.941,3.054v1.37l-5.642.064L35.652,83.463l-10.5-.138a10.266,10.266,0,0,0-1.874,1.2A9.958,9.958,0,0,0,21.3,86.678a10.548,10.548,0,0,0-.6,1.009,11.726,11.726,0,0,0-.81,1.922c-0.088.277-.157,0.537-0.218,0.786a10.3,10.3,0,0,0-.305,1.982l2.459-.016s0,0.008,0,.012a7.468,7.468,0,0,0,.235,2.313,7.885,7.885,0,0,0,.7,1.763,9.7,9.7,0,0,0,.605.941c0.174,0.245.372,0.512,0.591,0.8s0.457,0.588.711,0.9c1.4,1.74,3.278,3.89,4.945,5.754,0.3,0.338.6,0.668,0.884,0.983,0.3,0.33.582,0.643,0.85,0.938,0.234,0.258.455,0.5,0.66,0.724l0.057,0.063,0.557,0.606c0.553,0.6.889,0.963,0.889,0.963s0.009,0.012.028,0.033a2.1,2.1,0,0,0,1.106.56,3.784,3.784,0,0,0,.62.089,5,5,0,0,0,.622,0l38.581-1.923,6.562-7.694,5.4-.236c0.408,0.87.826,1.761,1.239,2.633l0.6,1.265c0.294,0.621.579,1.22,0.848,1.787l0.468,0.982q0.168,0.354.323,0.678l0.377,0.79,0.326,0.682,0.13,0.271L91.1,109.8a3.21,3.21,0,0,0,1.584.566h12.333l7.36-1.165,8.366-1.324a23.042,23.042,0,0,0,2.046-3.586,16.683,16.683,0,0,0,.683-1.752,11.886,11.886,0,0,0,.326-1.224q0.058-.283.107-0.6t0.088-.655c0.051-.454.089-0.94,0.115-1.445a34.512,34.512,0,0,0-.045-3.982,24.284,24.284,0,0,0-.5-3.627c-0.047-.205-0.1-0.4-0.15-0.586s-0.108-.358-0.166-0.518Z"/>
  <path class="cls-4" d="M124.7,83.62l-0.9-2.6-7.015-2.037-4.356-4.356-4.356-4.356-7.58-1.679V67.176l0.544-.229c0.392-.359,1.659-1.619,1.5-2.744-0.117-.816-3.438-11.371-4.1-13.479l-0.139-.442-0.452-.1-1.389-.311c-0.481-1.456-2.68-2.419-6.436-2.8a22.806,22.806,0,0,0-2.3-.126,9.8,9.8,0,0,0-3.112.41,10.762,10.762,0,0,0-1.647-.243c-1.142,0-21.688,1.2-22.562,1.246l-0.219.013-0.182.122a15.382,15.382,0,0,0-1.777,1.373l-24.8-8.914a2.83,2.83,0,0,0-1.914,5.327L56.2,55.15c-0.126.427-.252,0.843-0.375,1.231a17.964,17.964,0,0,0-.814,5.945l0.046,0.231,0.164,0.17,2.941,3.054v1.37l-5.642.064L35.652,77.422l-10.5-.138a10.266,10.266,0,0,0-1.874,1.2A9.958,9.958,0,0,0,21.3,80.637a10.56,10.56,0,0,0-.6,1.009,11.726,11.726,0,0,0-.81,1.922c-0.088.277-.157,0.537-0.218,0.786a10.3,10.3,0,0,0-.305,1.982l2.459-.016s0,0.008,0,.012a7.468,7.468,0,0,0,.235,2.313,7.883,7.883,0,0,0,.7,1.763,9.7,9.7,0,0,0,.605.941c0.174,0.245.372,0.512,0.591,0.8s0.457,0.587.711,0.9c1.4,1.739,3.278,3.89,4.945,5.753,0.3,0.339.6,0.668,0.884,0.984s0.582,0.643.85,0.938c0.234,0.258.455,0.5,0.66,0.724l0.057,0.063,0.557,0.606c0.553,0.6.889,0.963,0.889,0.963s0.009,0.012.028,0.033a2.091,2.091,0,0,0,1.106.559,3.672,3.672,0,0,0,.62.09,5,5,0,0,0,.622,0l38.581-1.923,6.562-7.694,5.4-.236c0.408,0.87.826,1.761,1.239,2.633l0.6,1.265c0.294,0.621.579,1.221,0.848,1.787l0.468,0.982q0.168,0.354.323,0.678l0.377,0.79,0.326,0.682,0.13,0.271,0.366,0.765a3.21,3.21,0,0,0,1.584.566h12.333l7.36-1.165,8.366-1.324a23.037,23.037,0,0,0,2.046-3.586,16.714,16.714,0,0,0,.683-1.752,11.865,11.865,0,0,0,.326-1.224c0.039-.189.075-0.389,0.107-0.6s0.062-.428.088-0.655c0.051-.454.089-0.939,0.115-1.445a34.512,34.512,0,0,0-.045-3.982,24.284,24.284,0,0,0-.5-3.627c-0.047-.205-0.1-0.4-0.15-0.586s-0.108-.358-0.166-0.518l1.244-.207Z"/>
  <path class="cls-3" d="M41.737,93.384L45.5,99.56l27.923-1.343,4.564-5.1Zm56.142-8.061a13.454,13.454,0,0,0-.04,3.069c0.195,1.273,5.521,12.268,5.521,12.268l14.318-1.49s2.132-3.935,2.159-5.946S119.4,85.3,119.4,85.3l-18.727-3.43-1.308,2.841ZM55.217,54.932l13.436,4.555L66.237,62.91,54.412,58.557Z"/>
  <path class="cls-5" d="M65.991,128.8v13.347H62.222v-9.657l-2.728,1.668-1.688-2.531,4.731-2.827h3.454Zm10.736,0.216a3.869,3.869,0,0,1,1.678,1.423,3.611,3.611,0,0,1,.559,1.954,4.772,4.772,0,0,1-.362,1.864,7.9,7.9,0,0,1-1.414,2.041,33.666,33.666,0,0,1-3.111,2.944h5.162l-0.392,2.9H69.681v-2.67q2.276-2.157,3.366-3.316a11.334,11.334,0,0,0,1.521-1.9A2.863,2.863,0,0,0,75,132.823a1.44,1.44,0,0,0-.373-1.05,1.386,1.386,0,0,0-1.041-.383,2.16,2.16,0,0,0-1.167.324,4.425,4.425,0,0,0-1.07,1.011l-2.218-1.767a6.274,6.274,0,0,1,2.081-1.805,5.813,5.813,0,0,1,2.807-.668A6.293,6.293,0,0,1,76.727,129.015Zm15.467,7.635v2.866H90.82v2.63H87.012l-0.02-2.63H81.4v-2.531l3.67-8.6,3.317,1.178-3,7.085h1.649l0.451-2.905H90.82v2.905h1.374Z"/>
</svg>
