<svg xmlns="http://www.w3.org/2000/svg" width="150" height="150" viewBox="0 0 150 150">
  <defs>
    <style>
      .cls-1 {
        fill: #b83027;
      }

      .cls-1, .cls-2, .cls-3, .cls-4, .cls-5 {
        fill-rule: evenodd;
      }

      .cls-2 {
        fill: #fbbd40;
      }

      .cls-3 {
        fill: #754c29;
      }

      .cls-4 {
        fill: #f7f7f7;
      }

      .cls-5 {
        fill: #231f20;
      }
    </style>
  </defs>
  <g id="_167_regiment_icon" data-name="167_regiment_icon">
    <path id="Shape_11_copy_3" data-name="Shape 11 copy 3" class="cls-1" d="M124.179,7.034C114.16,28.843,85.009,24.2,52.7,25.7S7.763,49,7.763,49l30.655,68.242s11.861-19.273,42.5-20.756,58.315,2.471,67.7-16.8Z"/>
    <path id="Shape_11_copy_2" data-name="Shape 11 copy 2" class="cls-2" d="M1.376,46.4l43.93,96.567,2.77-5.145L8.1,42.837,3.355,41.649Z"/>
    <path id="Shape_11_copy" data-name="Shape 11 copy" class="cls-3" d="M85.767,106.5a106.852,106.852,0,0,0-38.323,7.024c4.221,6.791,9.285,19.9,9.285,19.9,6.584-2.342,29.038-3.278,29.038-3.278h9.285s22.454,0.936,29.038,3.278c0,0,5.064-13.112,9.285-19.9A106.852,106.852,0,0,0,95.053,106.5H85.767Z"/>
    <path id="_167_copy" data-name="167 copy" class="cls-4" d="M79.014,111.052l-5.251,3.138L75.637,117l3.029-1.852v10.72h4.184V111.052H79.014Zm14.36,4.707a4.53,4.53,0,0,0-2.9,1.046,4.452,4.452,0,0,1,.861-2.353,2.14,2.14,0,0,1,1.71-.785,3.046,3.046,0,0,1,.97.142,5.605,5.605,0,0,1,.9.4l1.547-2.506a5.779,5.779,0,0,0-1.58-.73,6.834,6.834,0,0,0-1.972-.272,6.475,6.475,0,0,0-3.7,1.056,6.814,6.814,0,0,0-2.419,2.975,10.939,10.939,0,0,0-.85,4.467,8.169,8.169,0,0,0,1.5,5.208,5.41,5.41,0,0,0,4.51,1.9,6.038,6.038,0,0,0,3.094-.762,5.131,5.131,0,0,0,1.983-2.016,5.673,5.673,0,0,0,.675-2.735,6.134,6.134,0,0,0-.545-2.68,4.076,4.076,0,0,0-1.525-1.743,4.207,4.207,0,0,0-2.266-.61h0ZM92,123.3a1.141,1.141,0,0,1-.915-0.381,2.561,2.561,0,0,1-.468-1.242,15.68,15.68,0,0,1-.142-2.408,2.434,2.434,0,0,1,1.547-.654,1.161,1.161,0,0,1,1.057.491,3.351,3.351,0,0,1,.316,1.71,4.054,4.054,0,0,1-.338,1.831A1.116,1.116,0,0,1,92,123.3h0Zm6.689-12.246v3.182h5.644L99.584,125l3.9,1.307,5.382-12.42v-2.833H98.691Z"/>
    <path id="Shape_23_copy_2" data-name="Shape 23 copy 2" class="cls-5" d="M32.246,94.418l5.609,12.566a1.955,1.955,0,0,0,1.933,1.28,1.752,1.752,0,0,0,.686-0.431L56.6,87.385a3.938,3.938,0,0,0,3.357-.551c1.816-1.151,1.87-3.915,1.87-3.915s0.034-2.886,4.522-7.607a1.192,1.192,0,0,1,1-.421c0.584,0.091,1.922.84,3.233,0.367S75.8,71.767,74.9,70.011a3.909,3.909,0,0,0-1.85-2.065l10.363-7.59L102.142,44.8l-1.629-.674,27.268-19.638a3.531,3.531,0,0,0-1.976-2.663L69.364,61.047,68.121,63.5a3.152,3.152,0,0,0-1.5.643L65.071,64s0.251,1.2-.383,1.555a5.632,5.632,0,0,0-1.762,1.319c-0.133.338,1.952,1.542,1.952,1.542s-4.988,7.016-6.255,7.974a13.483,13.483,0,0,1-3.55,1.657C54.562,78.251,33.1,92.8,33.1,92.8A1.921,1.921,0,0,0,32.246,94.418Z"/>
    <path id="Shape_23_copy" data-name="Shape 23 copy" class="cls-2" d="M32.246,88.316l5.609,12.565a1.955,1.955,0,0,0,1.933,1.28,1.752,1.752,0,0,0,.686-0.431L56.6,81.284a3.938,3.938,0,0,0,3.357-.551c1.816-1.151,1.87-3.915,1.87-3.915s0.034-2.886,4.522-7.607a1.192,1.192,0,0,1,1-.421c0.584,0.091,1.922.84,3.233,0.367S75.8,65.666,74.9,63.909a3.909,3.909,0,0,0-1.85-2.065l10.363-7.59L102.142,38.7l-1.629-.674,27.268-19.638a3.531,3.531,0,0,0-1.976-2.663L69.364,54.945,68.121,57.4a3.152,3.152,0,0,0-1.5.643L65.071,57.9s0.251,1.2-.383,1.555a5.633,5.633,0,0,0-1.762,1.319c-0.133.338,1.952,1.542,1.952,1.542s-4.988,7.016-6.255,7.974a13.483,13.483,0,0,1-3.55,1.657c-0.51.2-21.974,14.744-21.974,14.744A1.921,1.921,0,0,0,32.246,88.316Z"/>
  </g>
</svg>
