<svg xmlns="http://www.w3.org/2000/svg" width="150" height="150" viewBox="0 0 150 150">
  <defs>
    <style>
      .cls-1 {
        fill: #b83027;
      }

      .cls-1, .cls-2, .cls-3, .cls-4, .cls-5 {
        fill-rule: evenodd;
      }

      .cls-2 {
        fill: #fbbd40;
      }

      .cls-3 {
        fill: #231f20;
      }

      .cls-4 {
        fill: #754c29;
      }

      .cls-5 {
        fill: #f7f7f7;
      }
    </style>
  </defs>
  <g id="_220_regiment_icon" data-name="220_regiment_icon">
    <path id="Shape_11_copy_3" data-name="Shape 11 copy 3" class="cls-1" d="M124.179,7.034C114.16,28.843,85.009,24.2,52.7,25.7S7.763,49,7.763,49l30.655,68.242s11.861-19.273,42.5-20.756,58.315,2.471,67.7-16.8Z"/>
    <path id="Shape_11_copy_2" data-name="Shape 11 copy 2" class="cls-2" d="M1.376,46.4l43.93,96.567,2.77-5.145L8.1,42.837,3.355,41.649Z"/>
    <g id="_505_regiment_icon_copy" data-name="505_regiment_icon copy">
      <path class="cls-3" d="M135.488,103.077l-2.535,7.161a1.239,1.239,0,0,1-1.409.8l-2.011-.4a1.237,1.237,0,0,1-.85-0.628,19.8,19.8,0,0,1-1.782-4.207c-0.386-1.789.637-3.725,0.718-4.663,0.06-.7-1.243-2.88-1.916-3.954a27.859,27.859,0,0,1-1.273,5.276,1.851,1.851,0,0,1-2.42,1.094l-0.617-.241a1.854,1.854,0,0,1-1.123-2.167c0.226-.927.511-2.124,0.739-3.19l-1.166-1.091-0.415,1.281a2.316,2.316,0,0,1-2.845,1.512l-4.08-1.177-3.431-3L108.5,90.67a1.618,1.618,0,0,1-.639-2.022l1.1-2.541L97.431,79.632l4.168,30.78-3.329-.862L91.986,78.886a6.868,6.868,0,0,1-.8-0.332c-0.247-.123-0.469-0.258-0.689-0.394L90.5,78.173,65.4,106.7l-1.952-.844,24.24-30.679a8.451,8.451,0,0,1-.578-1.346L29.853,41.666h0a9.181,9.181,0,0,1-2.328,1.719l-4.8-.685L17.4,40.215s-1.725-1.9-.539-6.257c1.351-4.958,4.319-6.242,4.319-6.242l5.75,0.632L29.9,29.955s1.612,0.293,2.307,2.642l0.308-.616a2.754,2.754,0,0,1-.168-2.22c1.086-2.2,2.481-1.631,2.481-1.631l2.939,1.919a2.784,2.784,0,0,1-.878,3.389l-1.062,3.142a1.548,1.548,0,0,1,.986-0.179s1.492,0.444,1.634,1.4a3.808,3.808,0,0,1-.9,2.217L61.5,53.481a1.563,1.563,0,0,1,2.071-2.248l42.54,24.936a1.624,1.624,0,0,1,.156-0.486,1.687,1.687,0,0,1,2.29-.642l4.69,2.635a1.686,1.686,0,0,1,.642,2.289,1.666,1.666,0,0,1-.438.506L128.341,89.2c1.687,0.988.74,3.881,0.74,3.881s2.373,4.3,2.735,5.321c0.257,0.725,2.161,2.317,3.245,3.181A1.34,1.34,0,0,1,135.488,103.077Z"/>
      <path id="Shape_9_copy" data-name="Shape 9 copy" class="cls-2" d="M135.488,96.707l-2.535,7.161a1.239,1.239,0,0,1-1.409.8l-2.011-.4a1.237,1.237,0,0,1-.85-0.628,19.793,19.793,0,0,1-1.782-4.207c-0.386-1.788.637-3.725,0.718-4.663,0.06-.7-1.243-2.879-1.916-3.953A27.854,27.854,0,0,1,124.43,96.1a1.852,1.852,0,0,1-2.42,1.094l-0.617-.242a1.853,1.853,0,0,1-1.123-2.166c0.226-.928.511-2.125,0.739-3.19L119.843,90.5l-0.415,1.281a2.316,2.316,0,0,1-2.845,1.512l-4.08-1.177-3.431-3-0.005-6.3a8.185,8.185,0,0,1-1.183-1.865l-3.428-1.909,0.161-1.749-7.193-4.041,4.781,37.154-1.812-1.165L92.948,72.771a6.719,6.719,0,0,1-1.762-.587c-0.247-.123-0.469-0.258-0.689-0.394L90.5,71.8,65.4,100.331l-1.952-.844,24.24-30.679a8.451,8.451,0,0,1-.578-1.346L29.853,35.3h0a9.181,9.181,0,0,1-2.328,1.719l-4.8-.685L17.4,33.845s-1.725-1.9-.539-6.257c1.351-4.958,4.319-6.242,4.319-6.242l5.75,0.632L29.9,23.585s1.612,0.293,2.307,2.642l0.308-.616a2.754,2.754,0,0,1-.168-2.22c1.086-2.2,2.481-1.631,2.481-1.631l2.939,1.919a2.784,2.784,0,0,1-.878,3.389l-1.062,3.143a1.548,1.548,0,0,1,.986-0.179s1.492,0.444,1.634,1.4a3.808,3.808,0,0,1-.9,2.217L61.5,47.111a1.563,1.563,0,0,1,2.071-2.248L106.114,69.8a1.624,1.624,0,0,1,.156-0.486,1.687,1.687,0,0,1,2.29-.642l4.69,2.636a1.686,1.686,0,0,1,.642,2.289,1.666,1.666,0,0,1-.438.506l14.887,8.726c1.687,0.988.74,3.881,0.74,3.881s2.373,4.3,2.735,5.321c0.257,0.725,2.161,2.317,3.245,3.181A1.34,1.34,0,0,1,135.488,96.707Z"/>
      <path id="Shape_9_copy_2" data-name="Shape 9 copy 2" class="cls-3" d="M23.267,28.138c-0.662,1.494-2.079,2.316-3.166,1.835s-1.432-2.083-.77-3.577S21.41,24.08,22.5,24.561,23.928,26.644,23.267,28.138Z"/>
    </g>
    <path id="Shape_11_copy" data-name="Shape 11 copy" class="cls-4" d="M85.767,106.5a106.852,106.852,0,0,0-38.323,7.024c4.221,6.791,9.285,19.9,9.285,19.9,6.584-2.342,29.038-3.278,29.038-3.278h9.285s22.454,0.936,29.038,3.278c0,0,5.064-13.112,9.285-19.9A106.852,106.852,0,0,0,95.053,106.5H85.767Z"/>
    <path id="_220_copy" data-name="220 copy" class="cls-5" d="M77.544,110.7a6.454,6.454,0,0,0-3.116.741,6.959,6.959,0,0,0-2.31,2l2.462,1.961a4.933,4.933,0,0,1,1.188-1.122,2.4,2.4,0,0,1,1.3-.359,1.539,1.539,0,0,1,1.155.424,1.6,1.6,0,0,1,.414,1.166,3.181,3.181,0,0,1-.479,1.591,12.607,12.607,0,0,1-1.689,2.114q-1.209,1.285-3.737,3.682v2.963H82.9l0.436-3.224H77.609a37.524,37.524,0,0,0,3.454-3.269,8.789,8.789,0,0,0,1.569-2.266,5.287,5.287,0,0,0,.4-2.07,4,4,0,0,0-.621-2.168,4.288,4.288,0,0,0-1.863-1.58,6.985,6.985,0,0,0-3.007-.588h0Zm12.638,0a6.454,6.454,0,0,0-3.116.741,6.959,6.959,0,0,0-2.31,2l2.462,1.961a4.933,4.933,0,0,1,1.188-1.122,2.4,2.4,0,0,1,1.3-.359,1.539,1.539,0,0,1,1.155.424,1.6,1.6,0,0,1,.414,1.166,3.182,3.182,0,0,1-.479,1.591,12.607,12.607,0,0,1-1.689,2.114q-1.209,1.285-3.737,3.682v2.963H95.542l0.436-3.224H90.247a37.511,37.511,0,0,0,3.454-3.269,8.784,8.784,0,0,0,1.569-2.266,5.285,5.285,0,0,0,.4-2.07,4,4,0,0,0-.621-2.168,4.287,4.287,0,0,0-1.863-1.58,6.985,6.985,0,0,0-3.007-.588h0Zm13.88,0a5.246,5.246,0,0,0-4.424,2.015,9.307,9.307,0,0,0-1.547,5.764,9.4,9.4,0,0,0,1.547,5.785,5.821,5.821,0,0,0,8.847,0,9.4,9.4,0,0,0,1.547-5.785,9.3,9.3,0,0,0-1.547-5.764,5.246,5.246,0,0,0-4.423-2.015h0Zm0,3.116a1.212,1.212,0,0,1,.959.37,2.714,2.714,0,0,1,.468,1.362,30.207,30.207,0,0,1,0,5.851,2.807,2.807,0,0,1-.468,1.383,1.192,1.192,0,0,1-.959.382,1.154,1.154,0,0,1-.948-0.414,2.934,2.934,0,0,1-.479-1.406,28.872,28.872,0,0,1,0-5.72,2.873,2.873,0,0,1,.479-1.405,1.167,1.167,0,0,1,.948-0.4h0Z"/>
  </g>
</svg>
