<svg id="_505_regiment_icon" data-name="505_regiment_icon" xmlns="http://www.w3.org/2000/svg" width="150" height="150" viewBox="0 0 150 150">
  <defs>
    <style>
      .cls-1 {
        fill: #b83027;
      }

      .cls-1, .cls-2, .cls-3, .cls-4, .cls-5 {
        fill-rule: evenodd;
      }

      .cls-2 {
        fill: #754c29;
      }

      .cls-3 {
        fill: #f7f7f7;
      }

      .cls-4 {
        fill: #231f20;
      }

      .cls-5 {
        fill: #fbbd40;
      }
    </style>
  </defs>
  <path class="cls-1" d="M145.953,58.963H91.368L78.734,20.091,74.5,7.066,70.266,20.091,57.632,58.963H3.047l11.083,8.05L47.207,91.037,34.573,129.909l-4.234,13.025,11.084-8.05L74.5,110.86l33.077,24.024,11.084,8.05-4.234-13.025L101.793,91.037,134.87,67.013Z"/>
  <path class="cls-2" d="M71.156,125.147a88.45,88.45,0,0,0-31.728,5.816c3.494,5.621,7.687,16.477,7.687,16.477,5.451-1.939,24.04-2.714,24.04-2.714h7.687s18.589,0.775,24.04,2.714c0,0,4.193-10.856,7.687-16.477a88.448,88.448,0,0,0-31.727-5.816H71.156Z"/>
  <path class="cls-3" d="M79.076,130.435a8.386,8.386,0,0,1,1.394,5.192,8.473,8.473,0,0,1-1.394,5.211,5.243,5.243,0,0,1-7.969,0,8.472,8.472,0,0,1-1.393-5.211,8.385,8.385,0,0,1,1.393-5.192A5.281,5.281,0,0,1,79.076,130.435Zm-4.838,1.355a2.582,2.582,0,0,0-.432,1.265,26.107,26.107,0,0,0,0,5.152,2.64,2.64,0,0,0,.432,1.267,1.043,1.043,0,0,0,.854.373,1.076,1.076,0,0,0,.864-0.344,2.529,2.529,0,0,0,.422-1.246,27.313,27.313,0,0,0,0-5.27,2.444,2.444,0,0,0-.422-1.227,1.094,1.094,0,0,0-.864-0.334A1.051,1.051,0,0,0,74.238,131.79Zm17.882-.148H87.508v2.14a4.438,4.438,0,0,1,1.864-.412,3.781,3.781,0,0,1,1.973.52,3.642,3.642,0,0,1,1.384,1.521,5.175,5.175,0,0,1,.511,2.375,4.764,4.764,0,0,1-.687,2.561,4.548,4.548,0,0,1-1.963,1.718,6.821,6.821,0,0,1-2.964.608,5.735,5.735,0,0,1-4.73-2.218l2.139-1.943a2.935,2.935,0,0,0,2.414,1.295,1.768,1.768,0,0,0,1.354-.5,2.053,2.053,0,0,0,.471-1.462,2.15,2.15,0,0,0-.4-1.463,1.477,1.477,0,0,0-1.148-.442,2.744,2.744,0,0,0-1.413.472H83.778v-7.479h8.753Zm-26.125,0H61.383v2.14a4.438,4.438,0,0,1,1.864-.412,3.781,3.781,0,0,1,1.973.52,3.642,3.642,0,0,1,1.384,1.521,5.175,5.175,0,0,1,.511,2.375,4.764,4.764,0,0,1-.687,2.561,4.548,4.548,0,0,1-1.963,1.718,6.821,6.821,0,0,1-2.964.608,5.735,5.735,0,0,1-4.73-2.218l2.139-1.943a2.935,2.935,0,0,0,2.414,1.295,1.768,1.768,0,0,0,1.354-.5,2.053,2.053,0,0,0,.471-1.462,2.15,2.15,0,0,0-.4-1.463,1.477,1.477,0,0,0-1.148-.442,2.744,2.744,0,0,0-1.413.472H57.653v-7.479h8.753Z"/>
  <path class="cls-4" d="M137.793,118.989l-2.785,7.869a1.36,1.36,0,0,1-1.548.881l-2.21-.437a1.362,1.362,0,0,1-.935-0.691,21.724,21.724,0,0,1-1.958-4.623c-0.424-1.966.7-4.094,0.789-5.125,0.066-.766-1.366-3.164-2.1-4.344a30.63,30.63,0,0,1-1.4,5.8,2.035,2.035,0,0,1-2.66,1.2l-0.677-.265a2.037,2.037,0,0,1-1.235-2.381c0.249-1.019.561-2.335,0.812-3.506l-1.281-1.2-0.456,1.407a2.545,2.545,0,0,1-3.127,1.662l-4.483-1.294-3.77-3.292-0.631-5.3a1.779,1.779,0,0,1-.7-2.222l1.207-2.792L95.973,93.225l4.579,33.824-3.658-.946-6.905-33.7a7.546,7.546,0,0,1-.88-0.365c-0.271-.135-0.515-0.284-0.757-0.433l0.007,0.015L60.771,122.971l-2.145-.927L85.263,88.331a9.276,9.276,0,0,1-.635-1.479L21.711,51.5h0a10.091,10.091,0,0,1-2.558,1.889l-5.276-.753L8.031,49.91s-1.9-2.092-.593-6.876c1.485-5.449,4.747-6.859,4.747-6.859L18.5,36.87l3.26,1.765s1.771,0.322,2.535,2.9l0.338-.677a3.026,3.026,0,0,1-.185-2.439c1.193-2.412,2.726-1.792,2.726-1.792l3.23,2.109a3.059,3.059,0,0,1-.965,3.724l-1.167,3.453a1.7,1.7,0,0,1,1.084-.2s1.639,0.488,1.8,1.54a4.185,4.185,0,0,1-.993,2.437L56.491,64.489a1.717,1.717,0,0,1,2.276-2.471l46.747,27.4a1.765,1.765,0,0,1,.172-0.534,1.853,1.853,0,0,1,2.516-.705l5.154,2.9a1.852,1.852,0,0,1,.705,2.516,1.83,1.83,0,0,1-.481.556l16.36,9.589c1.853,1.086.812,4.265,0.812,4.265s2.608,4.726,3.006,5.848c0.282,0.8,2.374,2.546,3.566,3.5A1.473,1.473,0,0,1,137.793,118.989Z"/>
  <path id="Shape_9_copy" data-name="Shape 9 copy" class="cls-5" d="M137.793,111.989l-2.785,7.869a1.36,1.36,0,0,1-1.548.881l-2.21-.437a1.362,1.362,0,0,1-.935-0.691,21.724,21.724,0,0,1-1.958-4.623c-0.424-1.966.7-4.094,0.789-5.125,0.066-.766-1.366-3.164-2.1-4.344a30.63,30.63,0,0,1-1.4,5.8,2.035,2.035,0,0,1-2.66,1.2l-0.677-.265a2.037,2.037,0,0,1-1.235-2.381c0.249-1.019.561-2.335,0.812-3.506l-1.281-1.2-0.456,1.407a2.545,2.545,0,0,1-3.127,1.662l-4.483-1.294-3.77-3.292-0.006-6.922a9.027,9.027,0,0,1-1.3-2.049l-3.767-2.1,0.177-1.922-7.9-4.44,5.254,40.828-1.991-1.28L91.046,85.685a7.381,7.381,0,0,1-1.937-.645c-0.271-.135-0.515-0.284-0.757-0.433l0.007,0.015L60.771,115.971l-2.145-.927L85.263,81.331a9.276,9.276,0,0,1-.635-1.479L21.711,44.5h0a10.091,10.091,0,0,1-2.558,1.889l-5.276-.753L8.031,42.91s-1.9-2.092-.593-6.876c1.485-5.449,4.747-6.859,4.747-6.859L18.5,29.87l3.26,1.765s1.771,0.322,2.535,2.9l0.338-.677a3.026,3.026,0,0,1-.185-2.439c1.193-2.412,2.726-1.792,2.726-1.792l3.23,2.109a3.059,3.059,0,0,1-.965,3.724l-1.167,3.453a1.7,1.7,0,0,1,1.084-.2s1.639,0.488,1.8,1.54a4.185,4.185,0,0,1-.993,2.437L56.491,57.489a1.717,1.717,0,0,1,2.276-2.471l46.747,27.4a1.765,1.765,0,0,1,.172-0.534,1.853,1.853,0,0,1,2.516-.705l5.154,2.9a1.852,1.852,0,0,1,.705,2.516,1.83,1.83,0,0,1-.481.556l16.36,9.589c1.853,1.086.812,4.265,0.812,4.265s2.608,4.726,3.006,5.848c0.282,0.8,2.374,2.546,3.566,3.5A1.473,1.473,0,0,1,137.793,111.989Z"/>
  <path id="Shape_9_copy_2" data-name="Shape 9 copy 2" class="cls-4" d="M14.473,36.639c-0.727,1.642-2.284,2.545-3.479,2.016s-1.573-2.289-.846-3.931,2.284-2.545,3.478-2.016S15.2,35,14.473,36.639Z"/>
</svg>
