<svg id="_698_regiment_icon" data-name="698_regiment_icon" xmlns="http://www.w3.org/2000/svg" width="150" height="150" viewBox="0 0 150 150">
  <defs>
    <style>
      .cls-1 {
        fill: #b83027;
      }

      .cls-1, .cls-2, .cls-3, .cls-4, .cls-5, .cls-6 {
        fill-rule: evenodd;
      }

      .cls-2 {
        fill: #fbbd40;
      }

      .cls-3 {
        fill: #754c29;
      }

      .cls-4 {
        fill: #231f20;
      }

      .cls-5 {
        fill: #f7ba3f;
      }

      .cls-6 {
        fill: #f7f7f7;
      }
    </style>
  </defs>
  <path id="Shape_11_copy_3" data-name="Shape 11 copy 3" class="cls-1" d="M124.179,7.034C114.16,28.843,85.009,24.2,52.7,25.7S7.763,49,7.763,49l30.655,68.242s11.861-19.273,42.5-20.756,58.315,2.471,67.7-16.8Z"/>
  <path id="Shape_11_copy_2" data-name="Shape 11 copy 2" class="cls-2" d="M1.376,46.4l43.93,96.567,2.77-5.145L8.1,42.837,3.355,41.649Z"/>
  <path id="Shape_11_copy" data-name="Shape 11 copy" class="cls-3" d="M85.767,106.5a106.852,106.852,0,0,0-38.323,7.024c4.221,6.791,9.285,19.9,9.285,19.9,6.584-2.342,29.038-3.278,29.038-3.278h9.285s22.454,0.936,29.038,3.278c0,0,5.064-13.112,9.285-19.9A106.852,106.852,0,0,0,95.053,106.5H85.767Z"/>
  <path class="cls-4" d="M125.23,26.573l-4.105,3.011-1.338-1.824L117.962,29.1l1.339,1.824-9.163,6.721-0.532-.812L52.4,77.29l1.984,3.046h0l-1.364,4.391s-0.3,1.645-1.5,1.548-1.815-.322-3.134.645c-1.083.794-10.987,8.617-14.5,11.394a1.457,1.457,0,0,0-.169,2.128l5.976,6.513a1.458,1.458,0,0,0,2.254-.131L51.8,93.211A1.314,1.314,0,0,1,52.94,92.3c0.873-.039,1.684.042,2.349-0.9s0.318-4.986,3.986-8.495l0.006-.005a0.985,0.985,0,0,1,1.248.071c0.7,0.541,1.294,1.456,2.76.381s2.688-1.971,2.081-3.105a3.823,3.823,0,0,1-.6-1.79L69.8,74.4a18.846,18.846,0,0,0,7.546,7.522l4-6.018a14.739,14.739,0,0,1-5.776-6.176l34.486-27.91,0.907-1.768,3.323-2.437L115,38.586l1.759-1.29-0.717-.977,10.62-7.79Z"/>
  <path id="Shape_15_copy" data-name="Shape 15 copy" class="cls-5" d="M125.23,20.573l-4.105,3.011-1.338-1.824L117.962,23.1l1.339,1.824-9.163,6.721-0.532-.812L52.4,71.29l1.984,3.046h0l-1.364,4.391s-0.3,1.645-1.5,1.548-1.815-.322-3.134.645c-1.083.794-10.987,8.617-14.5,11.394a1.456,1.456,0,0,0-.169,2.128l5.976,6.513a1.458,1.458,0,0,0,2.254-.131L51.8,87.211A1.314,1.314,0,0,1,52.94,86.3c0.873-.039,1.684.042,2.349-0.9s0.318-4.986,3.986-8.495l0.006-.005a0.985,0.985,0,0,1,1.248.071c0.7,0.541,1.294,1.456,2.76.381s2.688-1.971,2.081-3.105a3.823,3.823,0,0,1-.6-1.79L69.8,68.4a18.846,18.846,0,0,0,7.546,7.522l4-6.018a14.739,14.739,0,0,1-5.776-6.176l34.486-27.91,0.907-1.768,3.323-2.437L115,32.586l1.759-1.29-0.717-.977,10.62-7.79Z"/>
  <path id="_698" data-name="698" class="cls-6" d="M78.976,116.5a4.531,4.531,0,0,0-2.9,1.046,4.457,4.457,0,0,1,.861-2.354,2.139,2.139,0,0,1,1.711-.784,3.046,3.046,0,0,1,.97.142,5.52,5.52,0,0,1,.9.4l1.547-2.506a5.75,5.75,0,0,0-1.58-.73,6.8,6.8,0,0,0-1.972-.273,6.477,6.477,0,0,0-3.7,1.057,6.808,6.808,0,0,0-2.419,2.975,10.937,10.937,0,0,0-.85,4.467,8.169,8.169,0,0,0,1.5,5.209,5.41,5.41,0,0,0,4.511,1.9,6.039,6.039,0,0,0,3.094-.762,5.131,5.131,0,0,0,1.983-2.016,5.673,5.673,0,0,0,.675-2.735,6.13,6.13,0,0,0-.545-2.68,4.073,4.073,0,0,0-1.525-1.744,4.208,4.208,0,0,0-2.266-.61h0Zm-1.373,7.54a1.141,1.141,0,0,1-.915-0.381,2.56,2.56,0,0,1-.469-1.242,15.7,15.7,0,0,1-.142-2.408,2.434,2.434,0,0,1,1.547-.654,1.161,1.161,0,0,1,1.057.49A3.353,3.353,0,0,1,79,121.555a4.053,4.053,0,0,1-.338,1.83,1.115,1.115,0,0,1-1.057.654h0Zm13.075-12.6a6.84,6.84,0,0,0-3.04.665A5.21,5.21,0,0,0,85.5,113.96a4.861,4.861,0,0,0-.774,2.713,5.577,5.577,0,0,0,.588,2.626,4.3,4.3,0,0,0,1.569,1.722,4.053,4.053,0,0,0,2.157.6,4.138,4.138,0,0,0,1.624-.283,4.086,4.086,0,0,0,1.275-.894,5.073,5.073,0,0,1-1.166,1.82,5.909,5.909,0,0,1-1.907,1.188,19.213,19.213,0,0,1-3.095.893l0.85,2.964A17.352,17.352,0,0,0,92.3,125.5a7.994,7.994,0,0,0,3.28-3.29,10.8,10.8,0,0,0,1.068-5.034,6.347,6.347,0,0,0-.675-2.975,4.792,4.792,0,0,0-2.027-2.027,6.8,6.8,0,0,0-3.269-.73h0Zm-0.2,7.257q-1.438,0-1.438-2.245a2.327,2.327,0,0,1,.436-1.525,1.427,1.427,0,0,1,1.155-.523,1.4,1.4,0,0,1,.992.316,1.879,1.879,0,0,1,.479,1.024,9.772,9.772,0,0,1,.12,1.972,2.267,2.267,0,0,1-.806.741,2,2,0,0,1-.937.24h0Zm17.456-.044a4.739,4.739,0,0,0,1.721-1.547,3.342,3.342,0,0,0,.567-1.809,3.259,3.259,0,0,0-1.493-2.822,6.944,6.944,0,0,0-4.021-1.035,7.453,7.453,0,0,0-2.92.534,4.491,4.491,0,0,0-1.939,1.46,3.445,3.445,0,0,0-.676,2.081,4.083,4.083,0,0,0,2.07,3.552,4.741,4.741,0,0,0-1.95,1.45,3.414,3.414,0,0,0-.686,2.124,3.728,3.728,0,0,0,.708,2.2,4.839,4.839,0,0,0,2.059,1.6,7.907,7.907,0,0,0,3.225.6,8.339,8.339,0,0,0,3.356-.61,4.888,4.888,0,0,0,2.114-1.634,3.787,3.787,0,0,0,.719-2.223,3.705,3.705,0,0,0-.686-2.19,5.909,5.909,0,0,0-2.168-1.733h0Zm-3.2-4.4a1.323,1.323,0,0,1,.992.349,1.291,1.291,0,0,1,.337.937,2.791,2.791,0,0,1-.2,1.068,2.39,2.39,0,0,1-.784.937l-0.523-.218a2.346,2.346,0,0,1-.937-0.752,1.742,1.742,0,0,1-.284-0.991,1.277,1.277,0,0,1,.371-0.992,1.464,1.464,0,0,1,1.024-.338h0Zm0.022,9.785a1.962,1.962,0,0,1-1.362-.458,1.528,1.528,0,0,1-.512-1.2,2.64,2.64,0,0,1,.272-1.2,2.4,2.4,0,0,1,.817-0.915l0.828,0.3a4,4,0,0,1,1.33.806,1.586,1.586,0,0,1,.392,1.134,1.458,1.458,0,0,1-.447,1.089,1.813,1.813,0,0,1-1.318.436h0Z"/>
</svg>
