<svg xmlns="http://www.w3.org/2000/svg" width="150" height="150" viewBox="0 0 150 150">
  <defs>
    <style>
      .cls-1 {
        fill: #b83027;
      }

      .cls-1, .cls-2, .cls-3, .cls-4, .cls-5 {
        fill-rule: evenodd;
      }

      .cls-2 {
        fill: #fbbd40;
      }

      .cls-3 {
        fill: #754c29;
      }

      .cls-4 {
        fill: #f7f7f7;
      }

      .cls-5 {
        fill: #231f20;
      }
    </style>
  </defs>
  <g id="allies_stalingrad_sniper_1_icon">
    <g id="back_copy" data-name="back copy">
      <path id="Shape_694_copy" data-name="Shape 694 copy" class="cls-1" d="M141.93,75A66.93,66.93,0,1,1,75,8.07,66.93,66.93,0,0,1,141.93,75Z"/>
      <path id="Shape_694_copy_2" data-name="Shape 694 copy 2" class="cls-2" d="M134.494,73.833s-0.02-.58-0.049-1.451a30.284,30.284,0,0,0-.236-3.184c-0.119-1.156-.225-2.313-0.4-3.168l-0.25-1.431s1.527-1.629,2.848-3.4c1.36-1.762,2.666-3.7,2.666-3.7a8.534,8.534,0,0,1,2,12.609A11.14,11.14,0,0,1,134.494,73.833Zm-2.288-14.943-0.443-1.384c-0.263-.832-0.606-1.943-1.063-3.014a46.281,46.281,0,0,0-1.853-4.263l0.614-1.238c0.376-.758.828-1.766,1.237-2.793,0.843-2.055,1.59-4.262,1.59-4.262a8.552,8.552,0,0,1,5.279,11.634A11.157,11.157,0,0,1,132.206,58.889Zm-6.167-13.814s-0.317-.487-0.8-1.217-1.1-1.715-1.82-2.627c-1.352-1.9-2.908-3.628-2.908-3.628s0.107-.542.267-1.355c0.165-.828.334-1.917,0.461-3.016,0.277-2.2.421-4.528,0.421-4.528a8.551,8.551,0,0,1,8.138,9.838A11.134,11.134,0,0,1,126.039,45.075Zm-16.868,85.5a8.43,8.43,0,0,1-4.587,5.088,7.309,7.309,0,0,1-3.649.737,9.357,9.357,0,0,1-3.537-.813,10.852,10.852,0,0,1-5.213-5.469c0.063,0.217,8.865-2.887,8.76-3.135,0,0,1.921,1.009,4,1.934A39.875,39.875,0,0,0,109.171,130.576Zm-18.2,8.873a8.1,8.1,0,0,1-3.317,1.223,9.311,9.311,0,0,1-3.706-.175,9.549,9.549,0,0,1-3.194-1.8,10.876,10.876,0,0,1-3.586-6.552l4.652-.226a23.608,23.608,0,0,0,3.18-.357l1.441-.217,1.016,0.943c0.615,0.549,1.471,1.347,2.338,2.017,1.727,1.358,3.629,2.665,3.629,2.665A9.623,9.623,0,0,1,90.966,139.449ZM85.578,126.06l-1.3.2a20.2,20.2,0,0,1-2.882.325l-4.221.21a19.539,19.539,0,0,1,.605-2.549,49.262,49.262,0,0,0,9.243-1.4c-0.305.757-.623,1.46-0.881,2.035ZM66.056,140.5a9.309,9.309,0,0,1-3.705.175,8.1,8.1,0,0,1-3.317-1.223,9.638,9.638,0,0,1-2.453-2.475s1.9-1.307,3.629-2.665c0.867-.67,1.723-1.468,2.338-2.017l1.016-.943L65,131.566a23.616,23.616,0,0,0,3.18.357l4.652,0.226A10.872,10.872,0,0,1,69.25,138.7,9.55,9.55,0,0,1,66.056,140.5Zm-0.329-14.241-1.3-.2-0.56-1.182c-0.258-.575-0.576-1.278-0.881-2.035a49.263,49.263,0,0,0,9.243,1.4,19.523,19.523,0,0,1,.605,2.549l-4.221-.21A20.2,20.2,0,0,1,65.727,126.256ZM52.6,135.588a9.355,9.355,0,0,1-3.538.813,7.312,7.312,0,0,1-3.649-.737,8.43,8.43,0,0,1-4.586-5.088,39.913,39.913,0,0,0,4.224-1.658c2.082-.925,4-1.934,4-1.934-0.106.248,8.7,3.352,8.759,3.135A10.85,10.85,0,0,1,52.6,135.588Zm-7.172-16.615A22.376,22.376,0,0,1,43,117.4l-2.327-1.731c-0.64-.467-1.046-0.8-1.046-0.8s0.209-2.157.551-4.193c0.035-.214.071-0.426,0.108-0.636a49.528,49.528,0,0,0,7.3,5.97,18.854,18.854,0,0,1-1.022,3.652Zm-2.836,4.551,1.246,0.753a11.3,11.3,0,0,1-6.487,3.924,9.1,9.1,0,0,1-6.959-1.79,9.261,9.261,0,0,1-2.4-3.417l3.146,1.673,2.528-5.2c1.434-.252,2.52-0.484,2.52-0.484s0.447,0.371,1.152.887l2.568,1.911A26.141,26.141,0,0,0,42.595,123.524ZM30.32,104.777l0.443-1.216c0.274-.725.723-1.721,1.157-2.664,0.163-.353.328-0.7,0.49-1.028,0.459,0.785.945,1.551,1.446,2.307l-3.231,3Zm-2.851-4.49a7.111,7.111,0,0,1-.628-1.156l-1.262-2.607c-0.226-.475-0.47-0.944-0.668-1.395l-0.464-1.267-0.454-1.235s1.206-1.731,2.5-3.3c0.334-.39.67-0.768,0.988-1.12a48.976,48.976,0,0,0,3.314,8.67A19.448,19.448,0,0,1,27.468,100.287ZM24.756,43.858l-0.795,1.217A11.136,11.136,0,0,1,20.2,38.542,8.552,8.552,0,0,1,28.335,28.7s0.144,2.325.421,4.528c0.127,1.1.3,2.187,0.461,3.016L29.484,37.6s-1.556,1.732-2.908,3.628C25.853,42.143,25.234,43.128,24.756,43.858Zm-3.6,6.37A46.372,46.372,0,0,0,19.3,54.492c-0.457,1.07-.8,2.182-1.064,3.014l-0.442,1.384a11.158,11.158,0,0,1-5.362-5.319,8.553,8.553,0,0,1,5.279-11.634s0.747,2.207,1.59,4.262c0.409,1.027.861,2.035,1.237,2.792ZM16.445,64.6s-0.1.572-.25,1.431c-0.179.855-.285,2.012-0.4,3.168a30.208,30.208,0,0,0-.237,3.184c-0.029.871-.048,1.451-0.048,1.451a11.143,11.143,0,0,1-6.578-3.72,8.535,8.535,0,0,1,2-12.609s1.306,1.934,2.667,3.7C14.919,62.97,16.445,64.6,16.445,64.6ZM9.6,75.216c0.678,0.549,1.583,1.259,2.489,1.933,1.812,1.36,3.62,2.542,3.62,2.542-0.259.027,1.31,9.2,1.522,9.154a11,11,0,0,1-7.336-1.881A8.5,8.5,0,0,1,8.524,74.287Zm11.328-2.591a26.087,26.087,0,0,1,.215-2.887c0.108-1.048.2-2.1,0.366-2.871,0.135-.778.226-1.3,0.226-1.3a41.617,41.617,0,0,1,3.884-1.576c0.487-.175.97-0.339,1.423-0.487a49.273,49.273,0,0,0-1.3,9.057,18.137,18.137,0,0,1-4.859,1.377S20.9,73.414,20.923,72.625Zm0.136,6.631s1.675-1.358,3.356-2.537c0.439-.312.874-0.609,1.282-0.884A49.51,49.51,0,0,0,26.691,85a17.743,17.743,0,0,1-4.252,2.549A54.128,54.128,0,0,1,21.058,79.256ZM10.616,91.1s2.065,1.023,4.089,1.87c2.126,0.832,4.235,1.481,4.235,1.481l0.5,1.364,0.517,1.4c0.218,0.5.484,1.017,0.733,1.542l1.4,2.877a8.549,8.549,0,0,0,.694,1.275,10.75,10.75,0,0,1-7.517.087,9.629,9.629,0,0,1-3.115-1.923,8.446,8.446,0,0,1-1.971-3.14,8.643,8.643,0,0,1-.55-3.486A9.645,9.645,0,0,1,10.616,91.1Zm10.9,16.406c1.113,0.133,2.175.255,3.015,0.3l1.4,0.056s0.294,0.4.741,1l-6.737,6.262a9.9,9.9,0,0,1-1.532-1.606,7.162,7.162,0,0,1-1.394-3.249,9.356,9.356,0,0,1,.011-3.447S19.308,107.242,21.514,107.508Zm84.645,16.769,1.246-.753a26.035,26.035,0,0,0,2.682-1.742c0.933-.695,1.867-1.389,2.568-1.91s1.151-.888,1.151-0.888,0.644,0.137,1.583.314L118,124.667l4.279-2.393a9.262,9.262,0,0,1-2.673,4.137,9.1,9.1,0,0,1-6.959,1.79A11.306,11.306,0,0,1,106.159,124.277Zm13.078-20.716c0.267,0.729.443,1.216,0.443,1.216l-0.529.7-3.29-2.885c0.6-.889,1.186-1.791,1.73-2.721,0.162,0.332.327,0.675,0.49,1.028C118.515,101.84,118.963,102.836,119.237,103.561Zm-9.414,7.108c0.341,2.036.552,4.193,0.552,4.193s-0.407.335-1.046,0.8L107,117.4a22.331,22.331,0,0,1-2.432,1.578l-1.128.682A18.884,18.884,0,0,1,102.419,116a49.6,49.6,0,0,0,7.3-5.97Q109.771,110.348,109.823,110.669Zm9.384-13.79a48.9,48.9,0,0,0,3.314-8.67c0.319,0.351.655,0.73,0.989,1.12,1.293,1.568,2.5,3.3,2.5,3.3l-0.455,1.235L125.09,95.13c-0.2.451-.441,0.919-0.668,1.395-0.459.948-.918,1.9-1.261,2.607a7.175,7.175,0,0,1-.629,1.156A19.433,19.433,0,0,1,119.207,96.879Zm6.264,10.929c0.841-.044,1.9-0.167,3.016-0.3,2.206-.266,4.5-0.69,4.5-0.69a9.354,9.354,0,0,1,.011,3.447,7.154,7.154,0,0,1-1.394,3.249,9.857,9.857,0,0,1-1.49,1.572l-6.907-6.057c0.524-.7.869-1.166,0.869-1.166Zm0.115-31.09c1.68,1.179,3.356,2.537,3.356,2.537a54.14,54.14,0,0,1-1.381,8.294A17.742,17.742,0,0,1,123.309,85a49.558,49.558,0,0,0,1-9.166C124.712,76.109,125.147,76.407,125.586,76.718Zm-1.2-12.725a41.631,41.631,0,0,1,3.884,1.576s0.09,0.519.227,1.3c0.166,0.774.257,1.823,0.365,2.871a26.07,26.07,0,0,1,.215,2.887c0.026,0.79.044,1.316,0.044,1.316a18.149,18.149,0,0,1-4.859-1.377,49.273,49.273,0,0,0-1.3-9.057C123.417,63.655,123.9,63.819,124.387,63.993Zm2.831,38.915a8.556,8.556,0,0,0,.694-1.274l1.395-2.878c0.249-.525.515-1.043,0.733-1.542,0.189-.511.366-0.988,0.518-1.4l0.5-1.364s2.108-.649,4.234-1.481c2.024-.846,4.089-1.87,4.089-1.87a9.633,9.633,0,0,1,.987,3.343,8.637,8.637,0,0,1-.551,3.486,8.44,8.44,0,0,1-1.971,3.14A9.62,9.62,0,0,1,134.735,103,10.751,10.751,0,0,1,127.218,102.908Zm5.557-14.064c0.212,0.049,1.781-9.127,1.522-9.154,0,0,1.808-1.181,3.62-2.542,0.905-.674,1.81-1.384,2.488-1.933l1.071-.929a8.5,8.5,0,0,1-1.365,12.676A11,11,0,0,1,132.775,88.844Z"/>
      <path id="Shape_11_copy_4" data-name="Shape 11 copy 4" class="cls-3" d="M70.764,117.484a106.932,106.932,0,0,0-38.354,7.03c4.224,6.8,9.293,19.918,9.293,19.918,6.589-2.343,29.061-3.28,29.061-3.28h9.293s22.472,0.937,29.061,3.28c0,0,5.069-13.122,9.293-19.918a106.931,106.931,0,0,0-38.354-7.03H70.764Z"/>
    </g>
    <path id="_170" data-name="170" class="cls-4" d="M61.938,121.56l-5.525,3.3,1.972,2.958,3.187-1.949v11.279h4.4V121.56H61.938Zm6.786,0v3.347h5.938l-5,11.325,4.1,1.376L79.43,124.54v-2.98H68.724Zm18.753-.367a5.52,5.52,0,0,0-4.654,2.121,9.791,9.791,0,0,0-1.628,6.064,9.891,9.891,0,0,0,1.628,6.086,6.123,6.123,0,0,0,9.308,0,9.894,9.894,0,0,0,1.628-6.086,9.793,9.793,0,0,0-1.628-6.064,5.52,5.52,0,0,0-4.654-2.121h0Zm0,3.279a1.277,1.277,0,0,1,1.009.389,2.855,2.855,0,0,1,.493,1.433,31.867,31.867,0,0,1,0,6.156,2.949,2.949,0,0,1-.493,1.455,1.254,1.254,0,0,1-1.009.4,1.213,1.213,0,0,1-1-.436,3.081,3.081,0,0,1-.5-1.479,30.457,30.457,0,0,1,0-6.018,3.024,3.024,0,0,1,.5-1.478,1.228,1.228,0,0,1,1-.424h0Z"/>
    <path class="cls-5" d="M133.055,132.207l-15.764-16.685a3.314,3.314,0,0,0-.4-0.322c-0.026-.023-0.053-0.044-0.085-0.069a3.222,3.222,0,0,0-.32-0.212,2.9,2.9,0,0,0-.462-0.208c-0.064-.024-0.121-0.064-0.188-0.084l-0.89-.269a7.056,7.056,0,0,1-3.856-2.889c-0.832-1.821-3.937-8.828-3.937-8.828l2.509,0.282,2.428-2.447a4.928,4.928,0,0,0,0-3.351l3.535,3.509,2.833-2.855L102.212,81.829,99.22,84.682l10.5,10.761a4.989,4.989,0,0,1-.858,2.714L79.768,69.144c0.4-.426.808-0.869,1.257-1.346L97.813,51.136l15.1-16.871-0.337-.34L126.844,19.76l-1.687-1.7L118.769,24.4l-2.564-2.583-1.7,1.686,2.564,2.583-6.185,6.139-1.349-1.359L93.159,46.447,76.871,62.612l-0.044-.045L75,64.389l-1.826-1.821-0.044.045L56.842,46.447,40.464,30.867l-1.349,1.359L32.93,26.088l2.563-2.583-1.7-1.686L31.231,24.4l-6.389-6.341-1.687,1.7L37.429,33.926l-0.337.34,15.1,16.871L68.974,67.8c0.449,0.477.862,0.919,1.257,1.346L41.137,98.156a4.994,4.994,0,0,1-.858-2.714l10.5-10.761-2.993-2.853L31.535,97.78l2.833,2.855L37.9,97.125a4.924,4.924,0,0,0,0,3.351l2.428,2.447,2.508-.282s-3.1,7.007-3.937,8.828a7.054,7.054,0,0,1-3.856,2.889l-0.89.269c-0.066.02-.123,0.06-0.187,0.084a2.874,2.874,0,0,0-.462.208,3.208,3.208,0,0,0-.32.212c-0.032.025-.059,0.046-0.085,0.069a3.331,3.331,0,0,0-.4.322L16.945,132.207l-0.014.014h0l12.426,8.442,11.316-20.271,1.817-1.545a2.593,2.593,0,0,0,.907-2.18,13.565,13.565,0,0,1,.15-4.389c0.547-1.488,3.478-6.555,3.478-6.555l0.018-.018a2.81,2.81,0,0,1,1.743-.111s1.314,1.664,2.465,1.6,3.6-2.9,3.6-2.9A2.229,2.229,0,0,0,55,101.454a4.913,4.913,0,0,1-1.044-1.392c0-.183-0.037-0.737-0.071-1.212l5.177-5.19A76.924,76.924,0,0,0,66.417,99.3l5.853-7.968a68.3,68.3,0,0,1-5.735-5.222l0.679-.687,6.807-9.454A13.369,13.369,0,0,1,75,74.613a13.392,13.392,0,0,1,.979,1.352l6.807,9.454,0.679,0.688a68.3,68.3,0,0,1-5.735,5.222L83.583,99.3a76.926,76.926,0,0,0,7.356-5.637l5.177,5.191c-0.035.475-.072,1.029-0.071,1.212A4.913,4.913,0,0,1,95,101.454a2.229,2.229,0,0,0,.146,2.844s2.448,2.834,3.6,2.9,2.466-1.6,2.466-1.6a2.809,2.809,0,0,1,1.743.111l0.018,0.018s2.93,5.067,3.478,6.555a13.574,13.574,0,0,1,.15,4.389,2.593,2.593,0,0,0,.907,2.18l1.817,1.545,11.316,20.271,12.426-8.442h0Z"/>
    <path class="cls-2" d="M133.067,124.242l-12.426,8.442-11.316-20.271-1.817-1.546a2.591,2.591,0,0,1-.907-2.18,13.574,13.574,0,0,0-.15-4.389c-0.548-1.487-3.478-6.555-3.478-6.555l-0.018-.018a2.8,2.8,0,0,0-1.743-.111s-1.314,1.664-2.466,1.6-3.6-2.9-3.6-2.9A2.228,2.228,0,0,1,95,93.474a4.918,4.918,0,0,0,1.044-1.392c0-.183.037-0.738,0.071-1.212l-5.177-5.19a76.893,76.893,0,0,1-7.356,5.637L77.73,83.348a68.285,68.285,0,0,0,5.735-5.222l-0.679-.687-5.187-7.2,5.452-5.8,25.812,25.739a4.989,4.989,0,0,0,.858-2.714L99.22,76.7l2.992-2.853L118.464,89.8l-2.833,2.855L112.1,89.144a4.928,4.928,0,0,1,0,3.351l-2.428,2.447-2.509-.282s3.105,7.007,3.937,8.829a7.061,7.061,0,0,0,3.856,2.889l0.89,0.268c0.067,0.02.124,0.06,0.188,0.084a2.99,2.99,0,0,1,.462.208,3.408,3.408,0,0,1,.32.212l0.085,0.069a3.322,3.322,0,0,1,.4.323l15.764,16.685,0.014,0.014h0ZM112.908,26.285l-15.1,16.871L84.247,56.621l-0.038-.037-0.676.746-2.507,2.488c-0.449.476-.862,0.919-1.257,1.346l0.153,0.153L75.049,66.7,75,66.632c-0.236.3-.4,0.526-0.546,0.719l-0.663.732,0.059,0.137-6.637,9.218-0.679.687a68.285,68.285,0,0,0,5.735,5.222l-5.853,7.968a76.891,76.891,0,0,1-7.356-5.637l-5.177,5.191c0.035,0.475.072,1.03,0.071,1.212A4.918,4.918,0,0,0,55,93.474a2.228,2.228,0,0,1-.146,2.843s-2.448,2.835-3.6,2.9-2.465-1.6-2.465-1.6a2.8,2.8,0,0,0-1.743.111l-0.018.018s-2.931,5.068-3.478,6.555a13.565,13.565,0,0,0-.15,4.389,2.59,2.59,0,0,1-.907,2.18l-1.817,1.546L29.359,132.684l-12.426-8.442h0l0.014-.014,15.764-16.685a3.339,3.339,0,0,1,.4-0.323c0.026-.022.053-0.044,0.085-0.069a3.392,3.392,0,0,1,.32-0.212,2.964,2.964,0,0,1,.462-0.208c0.065-.024.121-0.064,0.188-0.084l0.89-.268a7.059,7.059,0,0,0,3.856-2.889c0.832-1.822,3.937-8.829,3.937-8.829l-2.508.282L37.906,92.5a4.924,4.924,0,0,1,0-3.351l-3.536,3.509L31.535,89.8,47.788,73.848,50.78,76.7l-10.5,10.761a4.994,4.994,0,0,0,.858,2.714L69.243,62.149l0.049,0.017,6.348-6.4,1.187-1.183,0.044,0.045L93.159,38.466l16.377-15.58,1.349,1.359,6.185-6.138-2.564-2.583,1.7-1.686,2.564,2.583,6.388-6.341,1.687,1.7L112.571,25.945ZM68.354,59.2L52.187,43.156l-15.1-16.871,0.337-.34L23.156,11.779l1.687-1.7,6.389,6.341,2.564-2.583,1.7,1.686L32.93,18.107l6.185,6.138,1.349-1.359,16.377,15.58L73.091,54.594Z"/>
  </g>
</svg>
