<svg xmlns="http://www.w3.org/2000/svg" width="150" height="150" viewBox="0 0 150 150">
  <defs>
    <style>
      .cls-1 {
        fill: #b83027;
      }

      .cls-1, .cls-2, .cls-3, .cls-4, .cls-5 {
        fill-rule: evenodd;
      }

      .cls-2 {
        fill: #fbbd40;
      }

      .cls-3 {
        fill: #754c29;
      }

      .cls-4 {
        fill: #231f20;
      }

      .cls-5 {
        fill: #f7f7f7;
      }
    </style>
  </defs>
  <g id="allies_stalingrad_rifle_3_icon">
    <g id="back_copy_8" data-name="back copy 8">
      <path id="Shape_694_copy" data-name="Shape 694 copy" class="cls-1" d="M141.93,75A66.93,66.93,0,1,1,75,8.07,66.931,66.931,0,0,1,141.93,75Z"/>
      <path id="Shape_694_copy_2" data-name="Shape 694 copy 2" class="cls-2" d="M134.494,73.833s-0.02-.58-0.049-1.451a30.284,30.284,0,0,0-.236-3.184c-0.119-1.156-.225-2.313-0.4-3.168l-0.25-1.431s1.527-1.629,2.848-3.4c1.36-1.762,2.666-3.7,2.666-3.7a8.536,8.536,0,0,1,2,12.609A11.14,11.14,0,0,1,134.494,73.833Zm-2.288-14.943-0.443-1.384c-0.263-.832-0.606-1.943-1.063-3.014a46.281,46.281,0,0,0-1.853-4.263l0.614-1.238c0.376-.758.828-1.766,1.237-2.793,0.843-2.055,1.59-4.262,1.59-4.262a8.552,8.552,0,0,1,5.279,11.634A11.157,11.157,0,0,1,132.206,58.889Zm-6.167-13.814-0.8-1.217c-0.477-.73-1.1-1.715-1.82-2.627-1.353-1.9-2.908-3.628-2.908-3.628s0.107-.542.267-1.355c0.164-.828.334-1.917,0.461-3.016,0.277-2.2.421-4.528,0.421-4.528a8.551,8.551,0,0,1,8.138,9.838A11.134,11.134,0,0,1,126.039,45.075ZM115.369,32.4c-0.648-.584-1.509-1.367-2.445-2.061a46.134,46.134,0,0,0-3.756-2.746s-0.038-.552-0.1-1.378c-0.057-.844-0.183-1.933-0.347-3.03-0.31-2.2-.781-4.483-0.781-4.483a8.574,8.574,0,0,1,10.438,7.379,11.147,11.147,0,0,1-1.927,7.289Zm-74.44-6.185-0.1,1.378a46.224,46.224,0,0,0-3.756,2.746c-0.936.694-1.8,1.477-2.445,2.061l-1.084.969a11.135,11.135,0,0,1-1.927-7.289A8.574,8.574,0,0,1,42.057,18.7s-0.471,2.282-.781,4.483C41.113,24.279,40.986,25.367,40.929,26.211ZM24.756,43.858l-0.795,1.217A11.136,11.136,0,0,1,20.2,38.542,8.552,8.552,0,0,1,28.335,28.7s0.144,2.325.421,4.528c0.127,1.1.3,2.187,0.461,3.016L29.484,37.6s-1.556,1.732-2.908,3.628C25.853,42.143,25.234,43.128,24.756,43.858Zm-3.6,6.37A46.372,46.372,0,0,0,19.3,54.492c-0.457,1.07-.8,2.182-1.064,3.014l-0.442,1.384a11.158,11.158,0,0,1-5.362-5.319,8.553,8.553,0,0,1,5.279-11.634s0.747,2.207,1.59,4.262c0.409,1.027.861,2.035,1.237,2.792ZM16.445,64.6s-0.1.572-.25,1.431c-0.179.855-.285,2.012-0.4,3.168a30.208,30.208,0,0,0-.237,3.184c-0.029.871-.048,1.451-0.048,1.451a11.143,11.143,0,0,1-6.578-3.72,8.535,8.535,0,0,1,2-12.609s1.306,1.934,2.667,3.7C14.919,62.97,16.445,64.6,16.445,64.6ZM9.595,75.216c0.678,0.549,1.583,1.259,2.489,1.933,1.812,1.36,3.62,2.542,3.62,2.542-0.259.027,1.31,9.2,1.522,9.154a11,11,0,0,1-7.336-1.881A8.5,8.5,0,0,1,8.524,74.287ZM10.616,91.1s2.065,1.023,4.089,1.87c2.126,0.832,4.235,1.481,4.235,1.481l0.5,1.364,0.517,1.4c0.218,0.5.484,1.017,0.733,1.542l1.4,2.877a8.549,8.549,0,0,0,.694,1.275,10.75,10.75,0,0,1-7.517.087,9.629,9.629,0,0,1-3.115-1.923,8.446,8.446,0,0,1-1.971-3.14,8.643,8.643,0,0,1-.55-3.486A9.645,9.645,0,0,1,10.616,91.1Zm10.9,16.406c1.113,0.133,2.175.255,3.015,0.3l1.4,0.056s1.38,1.874,2.812,3.7L31.877,115a11.082,11.082,0,0,1-7.237,2.051,8.46,8.46,0,0,1-6.241-3.54,7.162,7.162,0,0,1-1.394-3.249,9.361,9.361,0,0,1,.011-3.448S19.308,107.242,21.514,107.508Zm14.68,11.476s0.447,0.371,1.152.887l2.568,1.911a26.141,26.141,0,0,0,2.681,1.742l1.246,0.753a11.3,11.3,0,0,1-6.487,3.924,9.1,9.1,0,0,1-6.959-1.79,9.174,9.174,0,0,1-3.085-6.106s2.338-.207,4.554-0.544S36.194,118.984,36.194,118.984Zm12.862,8c-0.106.248,8.7,3.352,8.759,3.135a10.854,10.854,0,0,1-5.213,5.469,9.355,9.355,0,0,1-3.538.813,7.312,7.312,0,0,1-3.649-.737,8.43,8.43,0,0,1-4.586-5.088,39.794,39.794,0,0,0,4.224-1.659C47.135,127.993,49.056,126.984,49.056,126.984Zm13.491,5.308,1.016-.943L65,131.566a23.616,23.616,0,0,0,3.18.357l4.652,0.226A10.872,10.872,0,0,1,69.25,138.7a9.55,9.55,0,0,1-3.194,1.8,9.309,9.309,0,0,1-3.705.175,8.1,8.1,0,0,1-3.317-1.223,9.638,9.638,0,0,1-2.453-2.475s1.9-1.307,3.629-2.665C61.077,133.639,61.933,132.841,62.548,132.292Zm6.061-5.711a20.2,20.2,0,0,1-2.882-.325l-1.3-.2-0.56-1.182c-0.258-.575-0.576-1.278-0.881-2.035a49.263,49.263,0,0,0,9.243,1.4,19.523,19.523,0,0,1,.605,2.549ZM20.923,72.625a26.087,26.087,0,0,1,.215-2.887c0.108-1.048.2-2.1,0.366-2.871,0.135-.778.226-1.3,0.226-1.3a41.617,41.617,0,0,1,3.884-1.576c0.487-.175.97-0.339,1.423-0.487a49.273,49.273,0,0,0-1.3,9.057,18.137,18.137,0,0,1-4.859,1.377S20.9,73.414,20.923,72.625Zm0.136,6.631s1.675-1.358,3.356-2.537c0.439-.312.874-0.609,1.282-0.884A49.51,49.51,0,0,0,26.691,85a17.743,17.743,0,0,1-4.252,2.549A54.128,54.128,0,0,1,21.058,79.256Zm6.41,21.031a7.111,7.111,0,0,1-.628-1.156l-1.262-2.607c-0.226-.475-0.47-0.944-0.668-1.395l-0.464-1.267-0.454-1.235s1.206-1.731,2.5-3.3c0.334-.39.67-0.768,0.988-1.12a48.976,48.976,0,0,0,3.314,8.67A19.448,19.448,0,0,1,27.468,100.287Zm5.4,7.849-2.547-3.359,0.443-1.216c0.274-.725.723-1.721,1.157-2.664,0.163-.353.328-0.7,0.49-1.028a49.462,49.462,0,0,0,5.477,7.6,18.9,18.9,0,0,1-2.174,3.781ZM47.581,116a18.854,18.854,0,0,1-1.022,3.652l-1.129-.682A22.376,22.376,0,0,1,43,117.4c-0.846-.63-1.693-1.259-2.327-1.732s-1.046-.8-1.046-0.8,0.209-2.158.551-4.193c0.035-.214.071-0.426,0.108-0.636A49.528,49.528,0,0,0,47.581,116ZM85,131.566l1.441-.217,1.016,0.943c0.615,0.549,1.471,1.347,2.338,2.017,1.727,1.358,3.629,2.665,3.629,2.665a9.623,9.623,0,0,1-2.453,2.475,8.1,8.1,0,0,1-3.317,1.223,9.311,9.311,0,0,1-3.706-.175,9.549,9.549,0,0,1-3.194-1.8,10.876,10.876,0,0,1-3.586-6.552l4.652-.226A23.608,23.608,0,0,0,85,131.566Zm15.948-4.582s1.921,1.009,4,1.933a39.757,39.757,0,0,0,4.224,1.659,8.43,8.43,0,0,1-4.587,5.088,7.309,7.309,0,0,1-3.649.737,9.357,9.357,0,0,1-3.537-.813,10.856,10.856,0,0,1-5.213-5.469C92.247,130.336,101.05,127.232,100.944,126.984Zm5.215-2.707,1.246-.753a26.035,26.035,0,0,0,2.682-1.742c0.933-.695,1.867-1.389,2.568-1.91s1.151-.888,1.151-0.888,2.1,0.45,4.33.777,4.554,0.544,4.554.544a8.492,8.492,0,0,1-10.043,7.9A11.306,11.306,0,0,1,106.159,124.277Zm15.1-12.71c1.433-1.83,2.813-3.7,2.813-3.7l1.4-.056c0.841-.043,1.9-0.166,3.016-0.3,2.205-.266,4.5-0.691,4.5-0.691a9.359,9.359,0,0,1,.011,3.448,7.154,7.154,0,0,1-1.394,3.249,8.46,8.46,0,0,1-6.24,3.54A11.084,11.084,0,0,1,118.123,115Zm7.011-46s0.09,0.519.227,1.3c0.166,0.774.257,1.823,0.365,2.871a25.806,25.806,0,0,1,.214,2.887l0.045,1.316a18.149,18.149,0,0,1-4.859-1.377,49.272,49.272,0,0,0-1.3-9.057c0.453,0.148.936,0.312,1.423,0.487A41.631,41.631,0,0,1,128.271,65.57ZM107,117.4a22.231,22.231,0,0,1-2.431,1.578l-1.128.682A18.884,18.884,0,0,1,102.419,116a49.6,49.6,0,0,0,7.3-5.97q0.055,0.315.108,0.636c0.341,2.035.552,4.193,0.552,4.193s-0.407.335-1.046,0.8Zm7.287-6.145a18.922,18.922,0,0,1-2.173-3.781,49.549,49.549,0,0,0,5.477-7.6c0.162,0.332.327,0.675,0.489,1.028,0.435,0.943.883,1.939,1.157,2.664s0.443,1.216.443,1.216-1.273,1.68-2.547,3.359C115.711,109.693,114.287,111.25,114.287,111.25Zm10.8-16.12c-0.2.451-.442,0.919-0.668,1.395l-1.262,2.607a7.132,7.132,0,0,1-.628,1.156,19.433,19.433,0,0,1-3.325-3.408,48.9,48.9,0,0,0,3.314-8.67c0.319,0.351.655,0.73,0.989,1.12,1.293,1.568,2.5,3.3,2.5,3.3l-0.455,1.235Zm3.852-15.874a54.14,54.14,0,0,1-1.381,8.294A17.742,17.742,0,0,1,123.309,85a49.473,49.473,0,0,0,.994-9.166c0.409,0.275.844,0.573,1.283,0.884C127.266,77.9,128.942,79.256,128.942,79.256Zm-42.8,45.622-0.559,1.182-1.3.2a20.2,20.2,0,0,1-2.882.325l-4.221.21a19.523,19.523,0,0,1,.605-2.549,49.262,49.262,0,0,0,9.243-1.4C86.714,123.6,86.4,124.3,86.138,124.878Zm41.08-21.97a8.54,8.54,0,0,0,.694-1.275l1.395-2.877c0.249-.525.515-1.043,0.733-1.542,0.189-.511.366-0.988,0.518-1.4,0.3-.819.5-1.364,0.5-1.364s2.108-.649,4.234-1.481c2.024-.846,4.089-1.87,4.089-1.87a9.654,9.654,0,0,1,.987,3.343,8.637,8.637,0,0,1-.551,3.486,8.44,8.44,0,0,1-1.971,3.14A9.631,9.631,0,0,1,134.735,103,10.751,10.751,0,0,1,127.218,102.908Zm5.557-14.064c0.212,0.049,1.781-9.127,1.522-9.154,0,0,1.808-1.181,3.62-2.542,0.905-.674,1.81-1.384,2.488-1.933,0.642-.558,1.071-0.929,1.071-0.929a8.5,8.5,0,0,1-1.365,12.676A11,11,0,0,1,132.775,88.844Z"/>
      <path id="Shape_11_copy_4" data-name="Shape 11 copy 4" class="cls-3" d="M70.764,117.484a106.932,106.932,0,0,0-38.354,7.03c4.224,6.8,9.293,19.918,9.293,19.918,6.589-2.343,29.061-3.28,29.061-3.28h9.293s22.472,0.937,29.061,3.28c0,0,5.069-13.122,9.293-19.918a106.931,106.931,0,0,0-38.354-7.03H70.764Z"/>
    </g>
    <g id="allies_stalingrad_rifle_1_icon_copy" data-name="allies_stalingrad_rifle_1_icon copy">
      <g id="ussr_moscow_rifle_2_icon_copy" data-name="ussr_moscow_rifle_2_icon copy">
        <path class="cls-1" d="M103.25,29.5l7.25,8.75,10-11.5s-3.5-5.25-6-6.25Zm-57.344,0-7.25,8.75-10-11.5s3.5-5.25,6-6.25ZM114.35,96.4L112.5,103l14.2,16.65,5.2-5.5S121.6,101.15,114.35,96.4Zm-78.169,0,1.85,6.6-14.2,16.65-5.2-5.5S28.931,101.15,36.181,96.4Z"/>
        <path class="cls-4" d="M132.3,126.183S120.132,112.2,119.29,111.447a15.5,15.5,0,0,0-4.07-2.388,6.671,6.671,0,0,1-3.333-2.36c-0.59-1.037-4.27-7.387-4.27-7.387-0.081-.15-0.155-0.3-0.223-0.457l1.921-2.481-1.614-1.45-0.053-.023L86.524,75.923l1.135-1.263-5.545-4.981-2.2.306L78.6,68.8l42.132-37.851-0.378-.421,5.4-4.855-0.694-.772-5.4,4.855-0.378-.421,7.579-6.809-1.134-1.263-2.106,1.892-2.081-2.316-2.105,1.891,2.081,2.316-3.369,3.026L117.9,27.8,75.435,65.94l-0.378-.421L75,65.57l-0.056-.051-0.378.421L32.105,27.8l-0.252.281-3.369-3.026,2.081-2.316-2.106-1.891-2.081,2.316-2.105-1.892L23.139,22.53l7.58,6.809-0.378.421-5.4-4.855-0.693.772,5.4,4.855-0.378.421L71.4,68.8l-1.313,1.18-2.2-.306-5.545,4.981,1.135,1.263L42.352,94.9l0,0-1.614,1.45,1.865,2.5c-0.068.154-.142,0.307-0.223,0.457,0,0-3.68,6.35-4.27,7.387a6.666,6.666,0,0,1-3.333,2.36,15.517,15.517,0,0,0-4.069,2.388C29.868,112.2,17.7,126.183,17.7,126.183s-1.13,1.142-.247,2.124l8.97,7.161s0.456,0.225,1.319-.931,17.748-30.784,17.748-30.784a4.134,4.134,0,0,1,.671-1.229l1.825,2.031s1.037,0.59,2.988-.909l3.952-3.93,6.712-9.328s-0.371-1.141.351-3.951L75,73.638l13.015,12.8c0.723,2.81.351,3.951,0.351,3.951l6.712,9.328,3.952,3.93c1.951,1.5,2.988.909,2.988,0.909l1.825-2.031a4.137,4.137,0,0,1,.671,1.229s16.884,29.627,17.748,30.784,1.319,0.931,1.319.931l8.97-7.161C133.434,127.325,132.3,126.183,132.3,126.183Z"/>
        <path class="cls-2" d="M132.552,121.164l-8.97,7.16s-0.455.225-1.319-.931S104.515,96.61,104.515,96.61a4.133,4.133,0,0,0-.671-1.229l-1.825,2.031s-1.037.59-2.988-.909l-3.952-3.93-6.712-9.328s0.371-1.141-.351-3.951l-10-9.837,5.523-5.645,4.123,3.7-1.135,1.263,21.124,18.978L107.7,87.78l1.614,1.45-1.921,2.481c0.068,0.154.142,0.307,0.223,0.457,0,0,3.68,6.35,4.27,7.387a6.675,6.675,0,0,0,3.333,2.361,15.5,15.5,0,0,1,4.07,2.387c0.842,0.757,13.014,14.736,13.014,14.736S133.434,120.181,132.552,121.164ZM119.66,22.616l5.4-4.855,0.694,0.772-5.4,4.855,0.378,0.421L78.6,61.66l0.66,0.593-4.235,4.266L75,66.494l-13.016,12.8c-0.723,2.81-.351,3.951-0.351,3.951l-6.712,9.328L50.969,96.5c-1.951,1.5-2.988.909-2.988,0.909L46.156,95.38a4.129,4.129,0,0,0-.671,1.229S28.6,126.237,27.737,127.393s-1.319.931-1.319,0.931l-8.97-7.16c-0.883-.983.247-2.125,0.247-2.125S29.868,105.06,30.71,104.3a15.514,15.514,0,0,1,4.069-2.387,6.67,6.67,0,0,0,3.333-2.361c0.59-1.037,4.27-7.387,4.27-7.387,0.081-.15.155-0.3,0.223-0.457l-1.865-2.5,1.614-1.45,0,0L63.476,68.779l-1.135-1.263,5.545-4.981,2.2,0.306L71.4,61.66l-0.107-.1,3.158-2.87,0.114,0.1,0.378-.421L75,58.426l0.056-.051L75.435,58.8,117.9,20.651l0.252,0.281,3.369-3.026-2.081-2.316L121.54,13.7l2.081,2.316,2.106-1.891,1.134,1.263-7.579,6.81Zm-50.534,37L29.268,23.81l0.378-.421-5.4-4.855,0.693-.772,5.4,4.855,0.378-.421-7.58-6.809,1.135-1.263,2.105,1.891L28.459,13.7l2.106,1.891-2.081,2.316,3.369,3.026,0.252-.281L72.171,56.646Z"/>
        <path id="_484" data-name="484" class="cls-5" d="M65.435,130.73v-3.393h-3.9L61.01,130.73H59.084l3.508-8.276-3.874-1.375L54.43,131.12v2.957h6.534l0.023,3.072h4.447v-3.072h1.6V130.73h-1.6ZM78.8,128.782a4.993,4.993,0,0,0,1.811-1.628,3.522,3.522,0,0,0,.6-1.9,3.429,3.429,0,0,0-1.57-2.969,7.311,7.311,0,0,0-4.23-1.089,7.847,7.847,0,0,0-3.072.562,4.73,4.73,0,0,0-2.04,1.536,3.626,3.626,0,0,0-.711,2.189,4.3,4.3,0,0,0,2.178,3.737,4.979,4.979,0,0,0-2.052,1.525,3.591,3.591,0,0,0-.722,2.235,3.92,3.92,0,0,0,.745,2.315,5.091,5.091,0,0,0,2.166,1.685,8.312,8.312,0,0,0,3.393.631,8.777,8.777,0,0,0,3.53-.642,5.157,5.157,0,0,0,2.224-1.719,3.989,3.989,0,0,0,.757-2.339,3.891,3.891,0,0,0-.722-2.3,6.2,6.2,0,0,0-2.281-1.822h0Zm-3.37-4.631a1.386,1.386,0,0,1,1.043.367,1.355,1.355,0,0,1,.355.985,2.944,2.944,0,0,1-.206,1.124,2.516,2.516,0,0,1-.825.985l-0.55-.229a2.477,2.477,0,0,1-.986-0.791,1.834,1.834,0,0,1-.3-1.043,1.34,1.34,0,0,1,.39-1.043,1.539,1.539,0,0,1,1.078-.355h0Zm0.023,10.293a2.069,2.069,0,0,1-1.433-.481,1.61,1.61,0,0,1-.539-1.261,2.775,2.775,0,0,1,.287-1.261,2.521,2.521,0,0,1,.86-0.963L75.5,130.8a4.18,4.18,0,0,1,1.4.848,1.664,1.664,0,0,1,.413,1.192,1.538,1.538,0,0,1-.47,1.147,1.908,1.908,0,0,1-1.387.458h0ZM94.87,130.73v-3.393h-3.9l-0.527,3.393H88.52l3.507-8.276-3.874-1.375L83.866,131.12v2.957H90.4l0.023,3.072H94.87v-3.072h1.6V130.73h-1.6Z"/>
      </g>
    </g>
  </g>
</svg>
