<svg xmlns="http://www.w3.org/2000/svg" width="150" height="150" viewBox="0 0 150 150">
  <defs>
    <style>
      .cls-1 {
        fill: #b83027;
      }

      .cls-1, .cls-2, .cls-3, .cls-4, .cls-5 {
        fill-rule: evenodd;
      }

      .cls-2 {
        fill: #fbbd40;
      }

      .cls-3 {
        fill: #754c29;
      }

      .cls-4 {
        fill: #f7f7f7;
      }

      .cls-5 {
        fill: #231f20;
      }
    </style>
  </defs>
  <g id="allies_stalingrad_radioman_1_icon">
    <g id="back_copy_5" data-name="back copy 5">
      <path id="Shape_694_copy" data-name="Shape 694 copy" class="cls-1" d="M141.93,75A66.93,66.93,0,1,1,75,8.07,66.93,66.93,0,0,1,141.93,75Z"/>
      <path id="Shape_694_copy_2" data-name="Shape 694 copy 2" class="cls-2" d="M134.494,73.833s-0.02-.58-0.049-1.451a30.284,30.284,0,0,0-.236-3.184c-0.119-1.156-.225-2.313-0.4-3.168l-0.25-1.431s1.527-1.629,2.848-3.4c1.36-1.762,2.666-3.7,2.666-3.7a8.534,8.534,0,0,1,2,12.609A11.14,11.14,0,0,1,134.494,73.833Zm-2.288-14.943-0.443-1.384c-0.263-.832-0.606-1.943-1.063-3.014a46.281,46.281,0,0,0-1.853-4.263l0.614-1.238c0.376-.758.828-1.766,1.237-2.793,0.843-2.055,1.59-4.262,1.59-4.262a8.552,8.552,0,0,1,5.279,11.634A11.157,11.157,0,0,1,132.206,58.889Zm-6.167-13.814-0.8-1.217c-0.477-.73-1.1-1.715-1.82-2.627-1.353-1.9-2.908-3.628-2.908-3.628s0.107-.542.267-1.355c0.164-.828.334-1.917,0.461-3.016,0.277-2.2.421-4.528,0.421-4.528a8.551,8.551,0,0,1,8.138,9.838A11.134,11.134,0,0,1,126.039,45.075ZM115.369,32.4c-0.648-.584-1.509-1.367-2.445-2.061a46.134,46.134,0,0,0-3.756-2.746s-0.038-.552-0.1-1.378c-0.057-.844-0.183-1.933-0.347-3.03-0.31-2.2-.781-4.483-0.781-4.483a8.574,8.574,0,0,1,10.438,7.379,11.141,11.141,0,0,1-1.927,7.289Zm-74.44-6.185-0.1,1.378a46.224,46.224,0,0,0-3.756,2.746c-0.936.694-1.8,1.477-2.445,2.061l-1.084.969a11.135,11.135,0,0,1-1.927-7.289A8.574,8.574,0,0,1,42.057,18.7s-0.471,2.282-.781,4.483C41.113,24.279,40.986,25.367,40.929,26.211ZM24.756,43.858l-0.795,1.217A11.136,11.136,0,0,1,20.2,38.542,8.552,8.552,0,0,1,28.335,28.7s0.144,2.325.421,4.528c0.127,1.1.3,2.187,0.461,3.016L29.484,37.6s-1.556,1.732-2.908,3.628C25.853,42.143,25.234,43.128,24.756,43.858Zm-3.6,6.37A46.372,46.372,0,0,0,19.3,54.492c-0.457,1.07-.8,2.182-1.064,3.014l-0.442,1.384a11.158,11.158,0,0,1-5.362-5.319,8.553,8.553,0,0,1,5.279-11.634s0.747,2.207,1.59,4.262c0.409,1.027.861,2.035,1.237,2.792ZM16.445,64.6s-0.1.572-.25,1.431c-0.179.855-.285,2.012-0.4,3.168a30.208,30.208,0,0,0-.237,3.184c-0.029.871-.048,1.451-0.048,1.451a11.143,11.143,0,0,1-6.578-3.72,8.535,8.535,0,0,1,2-12.609s1.306,1.934,2.667,3.7C14.919,62.97,16.445,64.6,16.445,64.6ZM9.6,75.216c0.678,0.549,1.583,1.259,2.489,1.933,1.812,1.36,3.62,2.542,3.62,2.542-0.259.027,1.31,9.2,1.522,9.154a11,11,0,0,1-7.336-1.881A8.5,8.5,0,0,1,8.524,74.287ZM10.616,91.1s2.065,1.023,4.089,1.87c2.126,0.832,4.235,1.481,4.235,1.481l0.5,1.364,0.517,1.4c0.218,0.5.484,1.017,0.733,1.542l1.4,2.877a8.549,8.549,0,0,0,.694,1.275,10.75,10.75,0,0,1-7.517.087,9.6,9.6,0,0,1-3.115-1.923,8.446,8.446,0,0,1-1.971-3.14,8.643,8.643,0,0,1-.55-3.486A9.645,9.645,0,0,1,10.616,91.1Zm10.9,16.406c1.113,0.133,2.175.255,3.015,0.3l1.4,0.056s1.38,1.874,2.812,3.7L31.877,115a11.082,11.082,0,0,1-7.237,2.051,8.46,8.46,0,0,1-6.241-3.54,7.162,7.162,0,0,1-1.394-3.249,9.356,9.356,0,0,1,.011-3.447S19.308,107.242,21.514,107.508Zm14.68,11.476s0.447,0.371,1.152.887l2.568,1.911a25.973,25.973,0,0,0,2.681,1.742l1.246,0.753a11.3,11.3,0,0,1-6.487,3.924,9.091,9.091,0,0,1-6.959-1.79,9.174,9.174,0,0,1-3.085-6.106s2.338-.207,4.554-0.544S36.194,118.984,36.194,118.984Zm12.862,8c-0.106.248,8.7,3.352,8.759,3.135a10.85,10.85,0,0,1-5.213,5.469,9.355,9.355,0,0,1-3.538.813,7.312,7.312,0,0,1-3.649-.737,8.43,8.43,0,0,1-4.586-5.088,39.913,39.913,0,0,0,4.224-1.658C47.135,127.993,49.056,126.984,49.056,126.984Zm13.491,5.308,1.016-.943L65,131.566a23.616,23.616,0,0,0,3.18.357l4.652,0.226A10.872,10.872,0,0,1,69.25,138.7a9.532,9.532,0,0,1-3.194,1.8,9.309,9.309,0,0,1-3.705.175,8.1,8.1,0,0,1-3.317-1.223,9.638,9.638,0,0,1-2.453-2.475s1.9-1.307,3.629-2.665C61.077,133.639,61.933,132.841,62.548,132.292Zm6.061-5.711a20.2,20.2,0,0,1-2.882-.325l-1.3-.2-0.56-1.182c-0.258-.575-0.576-1.278-0.881-2.035a49.263,49.263,0,0,0,9.243,1.4,19.523,19.523,0,0,1,.605,2.549ZM20.923,72.625a26.087,26.087,0,0,1,.215-2.887c0.108-1.048.2-2.1,0.366-2.871,0.135-.778.226-1.3,0.226-1.3a41.617,41.617,0,0,1,3.884-1.576c0.487-.175.97-0.339,1.423-0.487a49.273,49.273,0,0,0-1.3,9.057,18.137,18.137,0,0,1-4.859,1.377S20.9,73.414,20.923,72.625Zm0.136,6.631s1.675-1.358,3.356-2.537c0.439-.312.874-0.609,1.282-0.884A49.51,49.51,0,0,0,26.691,85a17.743,17.743,0,0,1-4.252,2.549A54.128,54.128,0,0,1,21.058,79.256Zm6.41,21.031a7.111,7.111,0,0,1-.628-1.156l-1.262-2.607c-0.226-.475-0.47-0.944-0.668-1.395l-0.464-1.267-0.454-1.235s1.206-1.731,2.5-3.3c0.334-.39.67-0.768,0.988-1.12a48.976,48.976,0,0,0,3.314,8.67A19.448,19.448,0,0,1,27.468,100.287Zm5.4,7.849-2.547-3.359,0.443-1.216c0.274-.725.723-1.721,1.157-2.664,0.163-.353.328-0.7,0.49-1.028a49.462,49.462,0,0,0,5.477,7.6,18.9,18.9,0,0,1-2.174,3.781ZM47.581,116a18.854,18.854,0,0,1-1.022,3.652l-1.129-.682A22.376,22.376,0,0,1,43,117.4l-2.327-1.731c-0.64-.467-1.046-0.8-1.046-0.8s0.209-2.157.551-4.193c0.035-.214.071-0.426,0.108-0.636A49.528,49.528,0,0,0,47.581,116ZM85,131.566l1.441-.217,1.016,0.943c0.615,0.549,1.471,1.347,2.338,2.017,1.727,1.358,3.629,2.665,3.629,2.665a9.623,9.623,0,0,1-2.453,2.475,8.1,8.1,0,0,1-3.317,1.223,9.311,9.311,0,0,1-3.706-.175,9.532,9.532,0,0,1-3.194-1.8,10.876,10.876,0,0,1-3.586-6.552l4.652-.226A23.608,23.608,0,0,0,85,131.566Zm15.948-4.582s1.921,1.009,4,1.934a39.875,39.875,0,0,0,4.224,1.658,8.43,8.43,0,0,1-4.587,5.088,7.309,7.309,0,0,1-3.649.737,9.357,9.357,0,0,1-3.537-.813,10.852,10.852,0,0,1-5.213-5.469C92.247,130.336,101.05,127.232,100.944,126.984Zm5.215-2.707,1.246-.753a25.869,25.869,0,0,0,2.682-1.742c0.933-.695,1.867-1.389,2.568-1.91s1.151-.888,1.151-0.888,2.1,0.45,4.33.777,4.554,0.544,4.554.544a8.492,8.492,0,0,1-10.043,7.9A11.306,11.306,0,0,1,106.159,124.277Zm15.1-12.71c1.433-1.83,2.813-3.7,2.813-3.7l1.4-.055c0.841-.044,1.9-0.167,3.016-0.3,2.205-.266,4.5-0.69,4.5-0.69a9.354,9.354,0,0,1,.011,3.447,7.154,7.154,0,0,1-1.394,3.249,8.46,8.46,0,0,1-6.24,3.54A11.084,11.084,0,0,1,118.123,115Zm7.011-46s0.09,0.519.227,1.3c0.166,0.774.257,1.823,0.365,2.871a26.07,26.07,0,0,1,.215,2.887c0.026,0.79.044,1.316,0.044,1.316a18.149,18.149,0,0,1-4.859-1.377,49.273,49.273,0,0,0-1.3-9.057c0.453,0.148.936,0.312,1.423,0.487A41.631,41.631,0,0,1,128.271,65.57ZM107,117.4a22.331,22.331,0,0,1-2.432,1.578l-1.128.682A18.884,18.884,0,0,1,102.419,116a49.6,49.6,0,0,0,7.3-5.97q0.055,0.315.108,0.636c0.341,2.036.552,4.193,0.552,4.193s-0.407.335-1.046,0.8Zm7.286-6.145a18.922,18.922,0,0,1-2.173-3.781,49.482,49.482,0,0,0,5.477-7.6c0.162,0.332.327,0.675,0.489,1.028,0.435,0.943.883,1.939,1.157,2.664s0.443,1.216.443,1.216-1.273,1.68-2.547,3.359C115.711,109.693,114.287,111.25,114.287,111.25Zm10.8-16.12c-0.2.451-.441,0.919-0.668,1.395l-1.262,2.607a7.132,7.132,0,0,1-.628,1.156,19.433,19.433,0,0,1-3.325-3.408,48.9,48.9,0,0,0,3.314-8.67c0.319,0.351.655,0.73,0.989,1.12,1.293,1.568,2.5,3.3,2.5,3.3l-0.455,1.235Zm3.852-15.874a54.14,54.14,0,0,1-1.381,8.294A17.742,17.742,0,0,1,123.309,85a49.558,49.558,0,0,0,1-9.166c0.408,0.275.843,0.573,1.282,0.884C127.266,77.9,128.942,79.256,128.942,79.256Zm-42.8,45.622-0.559,1.182-1.3.2a20.2,20.2,0,0,1-2.882.325l-4.221.21a19.539,19.539,0,0,1,.605-2.549,49.262,49.262,0,0,0,9.243-1.4C86.714,123.6,86.4,124.3,86.138,124.878Zm41.08-21.97a8.556,8.556,0,0,0,.694-1.274l1.395-2.878c0.249-.525.515-1.043,0.733-1.542,0.189-.511.366-0.988,0.518-1.4,0.3-.819.5-1.364,0.5-1.364s2.108-.649,4.234-1.481c2.024-.846,4.089-1.87,4.089-1.87a9.633,9.633,0,0,1,.987,3.343,8.637,8.637,0,0,1-.551,3.486,8.44,8.44,0,0,1-1.971,3.14A9.6,9.6,0,0,1,134.735,103,10.751,10.751,0,0,1,127.218,102.908Zm5.557-14.064c0.212,0.049,1.781-9.127,1.522-9.154,0,0,1.808-1.181,3.62-2.542,0.905-.674,1.81-1.384,2.488-1.933,0.642-.558,1.071-0.929,1.071-0.929a8.5,8.5,0,0,1-1.365,12.676A11,11,0,0,1,132.775,88.844Z"/>
      <path id="Shape_11_copy_4" data-name="Shape 11 copy 4" class="cls-3" d="M70.764,117.484a106.932,106.932,0,0,0-38.354,7.03c4.224,6.8,9.293,19.918,9.293,19.918,6.589-2.343,29.061-3.28,29.061-3.28h9.293s22.472,0.937,29.061,3.28c0,0,5.069-13.122,9.293-19.918a106.931,106.931,0,0,0-38.354-7.03H70.764Z"/>
    </g>
    <g id="radio">
      <path id="_322" data-name="322" class="cls-4" d="M61.778,121.193a7.908,7.908,0,0,0-5.731,2.247l2.224,2.338a4.16,4.16,0,0,1,2.934-1.306,2.013,2.013,0,0,1,1.3.378,1.291,1.291,0,0,1,.47,1.066,1.465,1.465,0,0,1-.481,1.158,2.09,2.09,0,0,1-1.421.424h-0.94l-0.5,3.026H61a2.57,2.57,0,0,1,1.685.458,1.8,1.8,0,0,1,.539,1.445,1.615,1.615,0,0,1-.562,1.329,2.227,2.227,0,0,1-1.456.459,3.606,3.606,0,0,1-1.57-.333,5.837,5.837,0,0,1-1.5-1.111l-2.361,2.315a7.022,7.022,0,0,0,5.754,2.522,8.267,8.267,0,0,0,3.45-.654,4.97,4.97,0,0,0,2.155-1.742,4.243,4.243,0,0,0,.722-2.4,3.616,3.616,0,0,0-1.009-2.762,4.4,4.4,0,0,0-2.591-1.135,4.541,4.541,0,0,0,2.293-1.421,3.633,3.633,0,0,0,.779-2.361,3.412,3.412,0,0,0-.642-2.041,4.173,4.173,0,0,0-1.891-1.4,8.059,8.059,0,0,0-3.015-.5h0Zm13.045,0a6.787,6.787,0,0,0-3.278.78,7.327,7.327,0,0,0-2.43,2.109l2.591,2.063a5.168,5.168,0,0,1,1.249-1.18,2.521,2.521,0,0,1,1.364-.379,1.619,1.619,0,0,1,1.215.447,1.684,1.684,0,0,1,.436,1.227,3.343,3.343,0,0,1-.5,1.673,13.226,13.226,0,0,1-1.777,2.224q-1.272,1.353-3.932,3.874v3.118H80.462l0.459-3.393H74.891a39.407,39.407,0,0,0,3.634-3.438,9.229,9.229,0,0,0,1.651-2.385,5.56,5.56,0,0,0,.424-2.177,4.218,4.218,0,0,0-.653-2.282,4.517,4.517,0,0,0-1.96-1.662,7.355,7.355,0,0,0-3.164-.619h0Zm13.3,0a6.787,6.787,0,0,0-3.278.78,7.325,7.325,0,0,0-2.43,2.109L85,126.145a5.168,5.168,0,0,1,1.249-1.18,2.521,2.521,0,0,1,1.364-.379,1.619,1.619,0,0,1,1.215.447,1.684,1.684,0,0,1,.436,1.227,3.343,3.343,0,0,1-.5,1.673,13.221,13.221,0,0,1-1.777,2.224q-1.272,1.353-3.932,3.874v3.118H93.758l0.459-3.393H88.188a39.38,39.38,0,0,0,3.634-3.438,9.227,9.227,0,0,0,1.651-2.385,5.56,5.56,0,0,0,.424-2.177,4.217,4.217,0,0,0-.653-2.282,4.516,4.516,0,0,0-1.96-1.662,7.355,7.355,0,0,0-3.164-.619h0Z"/>
      <path id="Shape_21_copy_2" data-name="Shape 21 copy 2" class="cls-5" d="M111.316,83.8a3.669,3.669,0,0,1-5.2,1.756l-0.867-.5a9.92,9.92,0,0,1,2.409,5.567c2.975,3.669,2.753,10.217-.88,15.9-3.9,6.1-10.348,9.052-15.041,7.152-6.117,1.17-18.475-5.9-15.016-3.688-6.276-4.013-6.8-14.4-1.172-23.21S90.827,74.091,97.1,78.1c0.226,0.144.41,0.331,0.621,0.492a7.883,7.883,0,0,1,3.936,2.62,3.627,3.627,0,0,1,.21-1.688c2.549-6.532,7.833-22.566,2.891-32.684,0,0-1.582-4.518-5.121-6.853,0,0-15.363-8.284-30.123,1.657C59.054,48.693,53.742,59.557,51.531,65.3c0.269,0.025.537,0.041,0.806,0.091a8.8,8.8,0,0,1,2.2.738,8.7,8.7,0,0,1,1.689.125c6.73,1.232,10.778,9.924,9.04,19.416s-8.6,16.187-15.331,14.956c-0.11-.02-0.212-0.059-0.32-0.083a8.87,8.87,0,0,1-3.571.079,8.979,8.979,0,0,1-3.325-1.378c-3.023-.777-5.359-3.447-6.634-7.149-3.122-2.239-4.756-7.213-3.78-12.545,1.035-5.654,1.028-9.313,5.012-9.958-0.2.206,6.373-9.02,5.577-6.869,2.242-6.061,8.354-19.778,20.22-28.377,15.589-11.3,29.6-6.627,38.633.828l7.832,6.778S122.745,56.548,111.316,83.8Z"/>
      <path id="Shape_21_copy_2-2" data-name="Shape 21 copy 2" class="cls-2" d="M111.316,77.966a3.669,3.669,0,0,1-5.2,1.756l-0.867-.5a9.92,9.92,0,0,1,2.409,5.567c2.975,3.669,2.753,10.217-.88,15.9-3.9,6.1-10.348,9.051-15.041,7.152a8.579,8.579,0,0,1-6.353-1.007c-5.217-3.335-5.323-12.49-.235-20.448,4.671-7.307,12.09-11.047,17.312-9.031a3.667,3.667,0,0,1-.587-3.668c2.549-6.532,7.833-22.565,2.891-32.684,0,0-1.582-4.518-5.121-6.853,0,0-15.363-8.284-30.123,1.657-10.84,7.3-16.16,18.714-18.223,24.263a3.308,3.308,0,0,1-.676,1.095,9.495,9.495,0,0,1,5.609-.756c6.73,1.232,10.778,9.924,9.04,19.416s-8.6,16.187-15.331,14.955S39.16,84.859,40.9,75.368c1.076-5.88,4.122-10.682,7.882-13.2a3.264,3.264,0,0,1-1.822-.179l-1.21-.491c-3.312,2.757-6.048,7.7-7.138,13.656-1.439,7.861.416,15.1,4.251,18.288-3.092-.728-5.478-3.434-6.773-7.193-3.122-2.239-4.756-7.213-3.78-12.545,1.035-5.654,4.671-9.9,8.655-10.541a12.733,12.733,0,0,1,3.158-2.416,3.308,3.308,0,0,1-1.224-3.87c2.242-6.061,8.354-19.778,20.22-28.377,15.589-11.3,29.6-6.627,38.633.828l7.832,6.778S122.745,50.712,111.316,77.966ZM52.867,87.986c3.368,0.616,7-3.834,8.122-9.94a15.929,15.929,0,0,0-.69-9.008,18.389,18.389,0,0,1-.138,6.072c-1.118,6.106-4.754,10.557-8.122,9.941a4.911,4.911,0,0,1-3.385-3.164C49.168,85.181,50.7,87.589,52.867,87.986ZM97.1,72.267a9.94,9.94,0,0,1,2.785,2.688c-5.9-.892-13.087,3.01-17.641,10.133-4.633,7.248-5.094,15.566-1.614,20.521a9.989,9.989,0,0,1-3.917-1.454c-6.276-4.012-6.8-14.4-1.172-23.209S90.827,68.254,97.1,72.267Z"/>
    </g>
  </g>
</svg>
