<svg xmlns="http://www.w3.org/2000/svg" width="150" height="150" viewBox="0 0 150 150">
  <defs>
    <style>
      .cls-1 {
        fill: #b83027;
      }

      .cls-1, .cls-2, .cls-3, .cls-4, .cls-5 {
        fill-rule: evenodd;
      }

      .cls-2 {
        fill: #fbbd40;
      }

      .cls-3 {
        fill: #754c29;
      }

      .cls-4 {
        fill: #231f20;
      }

      .cls-5 {
        fill: #f7f7f7;
      }
    </style>
  </defs>
  <g id="allies_stalingrad_engineer_2_icon">
    <g id="back_copy_3" data-name="back copy 3">
      <path id="Shape_694_copy" data-name="Shape 694 copy" class="cls-1" d="M141.93,75A66.93,66.93,0,1,1,75,8.07,66.93,66.93,0,0,1,141.93,75Z"/>
      <path id="Shape_694_copy_2" data-name="Shape 694 copy 2" class="cls-2" d="M134.494,73.833s-0.02-.58-0.049-1.451a30.284,30.284,0,0,0-.236-3.184c-0.119-1.156-.225-2.313-0.4-3.168l-0.25-1.431s1.527-1.629,2.848-3.4c1.36-1.762,2.666-3.7,2.666-3.7a8.534,8.534,0,0,1,2,12.609A11.14,11.14,0,0,1,134.494,73.833Zm-2.288-14.943-0.443-1.384c-0.263-.832-0.606-1.943-1.063-3.014a46.281,46.281,0,0,0-1.853-4.263l0.614-1.238c0.376-.758.828-1.766,1.237-2.793,0.843-2.055,1.59-4.262,1.59-4.262a8.552,8.552,0,0,1,5.279,11.634A11.157,11.157,0,0,1,132.206,58.889Zm-6.167-13.814-0.8-1.217c-0.477-.73-1.1-1.715-1.82-2.627-1.353-1.9-2.908-3.628-2.908-3.628s0.107-.542.267-1.355c0.164-.828.334-1.917,0.461-3.016,0.277-2.2.421-4.528,0.421-4.528a8.551,8.551,0,0,1,8.138,9.838A11.134,11.134,0,0,1,126.039,45.075ZM115.369,32.4c-0.648-.584-1.509-1.367-2.445-2.061a46.134,46.134,0,0,0-3.756-2.746s-0.038-.552-0.1-1.378c-0.057-.844-0.183-1.933-0.347-3.03-0.31-2.2-.781-4.483-0.781-4.483a8.574,8.574,0,0,1,10.438,7.379,11.141,11.141,0,0,1-1.927,7.289Zm-74.44-6.185-0.1,1.378a46.224,46.224,0,0,0-3.756,2.746c-0.936.694-1.8,1.477-2.445,2.061l-1.084.969a11.135,11.135,0,0,1-1.927-7.289A8.574,8.574,0,0,1,42.057,18.7s-0.471,2.282-.781,4.483C41.113,24.279,40.986,25.367,40.929,26.211ZM24.756,43.858l-0.795,1.217A11.136,11.136,0,0,1,20.2,38.542,8.552,8.552,0,0,1,28.335,28.7s0.144,2.325.421,4.528c0.127,1.1.3,2.187,0.461,3.016L29.484,37.6s-1.556,1.732-2.908,3.628C25.853,42.143,25.234,43.128,24.756,43.858Zm-3.6,6.37A46.372,46.372,0,0,0,19.3,54.492c-0.457,1.07-.8,2.182-1.064,3.014l-0.442,1.384a11.158,11.158,0,0,1-5.362-5.319,8.553,8.553,0,0,1,5.279-11.634s0.747,2.207,1.59,4.262c0.409,1.027.861,2.035,1.237,2.792ZM16.445,64.6s-0.1.572-.25,1.431c-0.179.855-.285,2.012-0.4,3.168a30.208,30.208,0,0,0-.237,3.184c-0.029.871-.048,1.451-0.048,1.451a11.143,11.143,0,0,1-6.578-3.72,8.535,8.535,0,0,1,2-12.609s1.306,1.934,2.667,3.7C14.919,62.97,16.445,64.6,16.445,64.6ZM9.6,75.216c0.678,0.549,1.583,1.259,2.489,1.933,1.812,1.36,3.62,2.542,3.62,2.542-0.259.027,1.31,9.2,1.522,9.154a11,11,0,0,1-7.336-1.881A8.5,8.5,0,0,1,8.524,74.287ZM10.616,91.1s2.065,1.023,4.089,1.87c2.126,0.832,4.235,1.481,4.235,1.481l0.5,1.364,0.517,1.4c0.218,0.5.484,1.017,0.733,1.542l1.4,2.877a8.549,8.549,0,0,0,.694,1.275,10.75,10.75,0,0,1-7.517.087,9.6,9.6,0,0,1-3.115-1.923,8.446,8.446,0,0,1-1.971-3.14,8.643,8.643,0,0,1-.55-3.486A9.645,9.645,0,0,1,10.616,91.1Zm10.9,16.406c1.113,0.133,2.175.255,3.015,0.3l1.4,0.056s1.38,1.874,2.812,3.7L31.877,115a11.082,11.082,0,0,1-7.237,2.051,8.46,8.46,0,0,1-6.241-3.54,7.162,7.162,0,0,1-1.394-3.249,9.356,9.356,0,0,1,.011-3.447S19.308,107.242,21.514,107.508Zm14.68,11.476s0.447,0.371,1.152.887l2.568,1.911a25.973,25.973,0,0,0,2.681,1.742l1.246,0.753a11.3,11.3,0,0,1-6.487,3.924,9.091,9.091,0,0,1-6.959-1.79,9.174,9.174,0,0,1-3.085-6.106s2.338-.207,4.554-0.544S36.194,118.984,36.194,118.984Zm12.862,8c-0.106.248,8.7,3.352,8.759,3.135a10.85,10.85,0,0,1-5.213,5.469,9.355,9.355,0,0,1-3.538.813,7.312,7.312,0,0,1-3.649-.737,8.43,8.43,0,0,1-4.586-5.088,39.913,39.913,0,0,0,4.224-1.658C47.135,127.993,49.056,126.984,49.056,126.984Zm13.491,5.308,1.016-.943L65,131.566a23.616,23.616,0,0,0,3.18.357l4.652,0.226A10.872,10.872,0,0,1,69.25,138.7a9.532,9.532,0,0,1-3.194,1.8,9.309,9.309,0,0,1-3.705.175,8.1,8.1,0,0,1-3.317-1.223,9.638,9.638,0,0,1-2.453-2.475s1.9-1.307,3.629-2.665C61.077,133.639,61.933,132.841,62.548,132.292Zm6.061-5.711a20.2,20.2,0,0,1-2.882-.325l-1.3-.2-0.56-1.182c-0.258-.575-0.576-1.278-0.881-2.035a49.263,49.263,0,0,0,9.243,1.4,19.523,19.523,0,0,1,.605,2.549ZM20.923,72.625a26.087,26.087,0,0,1,.215-2.887c0.108-1.048.2-2.1,0.366-2.871,0.135-.778.226-1.3,0.226-1.3a41.617,41.617,0,0,1,3.884-1.576c0.487-.175.97-0.339,1.423-0.487a49.273,49.273,0,0,0-1.3,9.057,18.137,18.137,0,0,1-4.859,1.377S20.9,73.414,20.923,72.625Zm0.136,6.631s1.675-1.358,3.356-2.537c0.439-.312.874-0.609,1.282-0.884A49.51,49.51,0,0,0,26.691,85a17.743,17.743,0,0,1-4.252,2.549A54.128,54.128,0,0,1,21.058,79.256Zm6.41,21.031a7.111,7.111,0,0,1-.628-1.156l-1.262-2.607c-0.226-.475-0.47-0.944-0.668-1.395l-0.464-1.267-0.454-1.235s1.206-1.731,2.5-3.3c0.334-.39.67-0.768,0.988-1.12a48.976,48.976,0,0,0,3.314,8.67A19.448,19.448,0,0,1,27.468,100.287Zm5.4,7.849-2.547-3.359,0.443-1.216c0.274-.725.723-1.721,1.157-2.664,0.163-.353.328-0.7,0.49-1.028a49.462,49.462,0,0,0,5.477,7.6,18.9,18.9,0,0,1-2.174,3.781ZM47.581,116a18.854,18.854,0,0,1-1.022,3.652l-1.129-.682A22.376,22.376,0,0,1,43,117.4l-2.327-1.731c-0.64-.467-1.046-0.8-1.046-0.8s0.209-2.157.551-4.193c0.035-.214.071-0.426,0.108-0.636A49.528,49.528,0,0,0,47.581,116ZM85,131.566l1.441-.217,1.016,0.943c0.615,0.549,1.471,1.347,2.338,2.017,1.727,1.358,3.629,2.665,3.629,2.665a9.623,9.623,0,0,1-2.453,2.475,8.1,8.1,0,0,1-3.317,1.223,9.311,9.311,0,0,1-3.706-.175,9.532,9.532,0,0,1-3.194-1.8,10.876,10.876,0,0,1-3.586-6.552l4.652-.226A23.608,23.608,0,0,0,85,131.566Zm15.948-4.582s1.921,1.009,4,1.934a39.875,39.875,0,0,0,4.224,1.658,8.43,8.43,0,0,1-4.587,5.088,7.309,7.309,0,0,1-3.649.737,9.357,9.357,0,0,1-3.537-.813,10.852,10.852,0,0,1-5.213-5.469C92.247,130.336,101.05,127.232,100.944,126.984Zm5.215-2.707,1.246-.753a25.869,25.869,0,0,0,2.682-1.742c0.933-.695,1.867-1.389,2.568-1.91s1.151-.888,1.151-0.888,2.1,0.45,4.33.777,4.554,0.544,4.554.544a8.492,8.492,0,0,1-10.043,7.9A11.306,11.306,0,0,1,106.159,124.277Zm15.1-12.71c1.433-1.83,2.813-3.7,2.813-3.7l1.4-.055c0.841-.044,1.9-0.167,3.016-0.3,2.205-.266,4.5-0.69,4.5-0.69a9.354,9.354,0,0,1,.011,3.447,7.154,7.154,0,0,1-1.394,3.249,8.46,8.46,0,0,1-6.24,3.54A11.084,11.084,0,0,1,118.123,115Zm7.011-46s0.09,0.519.227,1.3c0.166,0.774.257,1.823,0.365,2.871a26.07,26.07,0,0,1,.215,2.887c0.026,0.79.044,1.316,0.044,1.316a18.149,18.149,0,0,1-4.859-1.377,49.273,49.273,0,0,0-1.3-9.057c0.453,0.148.936,0.312,1.423,0.487A41.631,41.631,0,0,1,128.271,65.57ZM107,117.4a22.331,22.331,0,0,1-2.432,1.578l-1.128.682A18.884,18.884,0,0,1,102.419,116a49.6,49.6,0,0,0,7.3-5.97q0.055,0.315.108,0.636c0.341,2.036.552,4.193,0.552,4.193s-0.407.335-1.046,0.8Zm7.286-6.145a18.922,18.922,0,0,1-2.173-3.781,49.482,49.482,0,0,0,5.477-7.6c0.162,0.332.327,0.675,0.489,1.028,0.435,0.943.883,1.939,1.157,2.664s0.443,1.216.443,1.216-1.273,1.68-2.547,3.359C115.711,109.693,114.287,111.25,114.287,111.25Zm10.8-16.12c-0.2.451-.441,0.919-0.668,1.395l-1.262,2.607a7.132,7.132,0,0,1-.628,1.156,19.433,19.433,0,0,1-3.325-3.408,48.9,48.9,0,0,0,3.314-8.67c0.319,0.351.655,0.73,0.989,1.12,1.293,1.568,2.5,3.3,2.5,3.3l-0.455,1.235Zm3.852-15.874a54.14,54.14,0,0,1-1.381,8.294A17.742,17.742,0,0,1,123.309,85a49.558,49.558,0,0,0,1-9.166c0.408,0.275.843,0.573,1.282,0.884C127.266,77.9,128.942,79.256,128.942,79.256Zm-42.8,45.622-0.559,1.182-1.3.2a20.2,20.2,0,0,1-2.882.325l-4.221.21a19.539,19.539,0,0,1,.605-2.549,49.262,49.262,0,0,0,9.243-1.4C86.714,123.6,86.4,124.3,86.138,124.878Zm41.08-21.97a8.556,8.556,0,0,0,.694-1.274l1.395-2.878c0.249-.525.515-1.043,0.733-1.542,0.189-.511.366-0.988,0.518-1.4,0.3-.819.5-1.364,0.5-1.364s2.108-.649,4.234-1.481c2.024-.846,4.089-1.87,4.089-1.87a9.633,9.633,0,0,1,.987,3.343,8.637,8.637,0,0,1-.551,3.486,8.44,8.44,0,0,1-1.971,3.14A9.6,9.6,0,0,1,134.735,103,10.751,10.751,0,0,1,127.218,102.908Zm5.557-14.064c0.212,0.049,1.781-9.127,1.522-9.154,0,0,1.808-1.181,3.62-2.542,0.905-.674,1.81-1.384,2.488-1.933,0.642-.558,1.071-0.929,1.071-0.929a8.5,8.5,0,0,1-1.365,12.676A11,11,0,0,1,132.775,88.844Z"/>
      <path id="Shape_11_copy_4" data-name="Shape 11 copy 4" class="cls-3" d="M70.764,117.484a106.932,106.932,0,0,0-38.354,7.03c4.224,6.8,9.293,19.918,9.293,19.918,6.589-2.343,29.061-3.28,29.061-3.28h9.293s22.472,0.937,29.061,3.28c0,0,5.069-13.122,9.293-19.918a106.931,106.931,0,0,0-38.354-7.03H70.764Z"/>
    </g>
    <g id="eng">
      <path id="Shape_1_copy_4" data-name="Shape 1 copy 4" class="cls-4" d="M105.635,76.665l-4.488-19.924A169.807,169.807,0,0,0,83.178,73.893c-0.891,1.028-2.111,2.308-3.507,3.718,0.071,0.066.137,0.134,0.208,0.2,5.932,5.479,18.843,16.871,20.064,17.915s11.515,13.045,11.515,13.045a2.829,2.829,0,0,1-.174,2.609c-0.785,1.565-5.266,4.627-9.247,3.3-0.785-.26-1.832-3.217-2.443-4.522s-3.577-7.566-7.328-11.131c-2.475-2.353-10.753-9.812-17.683-16.442C67.659,89.2,59.367,96.661,56.891,99.01c-3.743,3.551-6.7,9.787-7.312,11.086s-1.654,4.244-2.437,4.5c-3.972,1.317-8.443-1.732-9.227-3.291a2.816,2.816,0,0,1-.174-2.6s10.271-11.952,11.49-12.991,14.1-12.385,20.02-17.842c0.09-.083.175-0.169,0.264-0.253-1.434-1.449-2.683-2.762-3.593-3.813A170.309,170.309,0,0,0,47.913,56.588l-4.5,20.005-22.855-16L38.879,49.461s1.309-6.348,8.375-11.653l8.9,6.957a9.034,9.034,0,0,1-1.279,3l11.4,10.389a57.417,57.417,0,0,1,3.315,5.566,47.807,47.807,0,0,0,5.008,8.188,47.5,47.5,0,0,0,4.929-8.065A57.158,57.158,0,0,1,82.83,58.3L94.2,47.956a8.987,8.987,0,0,1-1.277-2.991l8.878-6.929c7.051,5.283,8.356,11.606,8.356,11.606L128.44,60.728Z"/>
      <path id="_403" data-name="403" class="cls-5" d="M66.122,130.73v-3.393h-3.9L61.7,130.73H59.772l3.508-8.276-3.874-1.375L55.118,131.12v2.957h6.534l0.023,3.072h4.447v-3.072h1.6V130.73h-1.6Zm10-9.537a5.52,5.52,0,0,0-4.654,2.121,9.791,9.791,0,0,0-1.628,6.064,9.891,9.891,0,0,0,1.628,6.086,6.123,6.123,0,0,0,9.308,0,9.894,9.894,0,0,0,1.628-6.086,9.793,9.793,0,0,0-1.628-6.064,5.52,5.52,0,0,0-4.654-2.121h0Zm0,3.279a1.277,1.277,0,0,1,1.009.389,2.855,2.855,0,0,1,.493,1.433,31.867,31.867,0,0,1,0,6.156,2.949,2.949,0,0,1-.493,1.455,1.254,1.254,0,0,1-1.009.4,1.213,1.213,0,0,1-1-.436,3.081,3.081,0,0,1-.5-1.479,30.457,30.457,0,0,1,0-6.018,3.024,3.024,0,0,1,.5-1.478,1.228,1.228,0,0,1,1-.424h0Zm13.48-3.279a7.908,7.908,0,0,0-5.731,2.247l2.224,2.338a4.16,4.16,0,0,1,2.934-1.306,2.013,2.013,0,0,1,1.3.378,1.29,1.29,0,0,1,.47,1.066,1.465,1.465,0,0,1-.481,1.158,2.09,2.09,0,0,1-1.421.424h-0.94l-0.5,3.026h1.375a2.57,2.57,0,0,1,1.685.458,1.8,1.8,0,0,1,.539,1.445,1.615,1.615,0,0,1-.562,1.329,2.227,2.227,0,0,1-1.456.459,3.606,3.606,0,0,1-1.57-.333,5.837,5.837,0,0,1-1.5-1.111l-2.361,2.315a7.022,7.022,0,0,0,5.754,2.522,8.267,8.267,0,0,0,3.45-.654,4.971,4.971,0,0,0,2.155-1.742,4.244,4.244,0,0,0,.722-2.4,3.616,3.616,0,0,0-1.009-2.762,4.4,4.4,0,0,0-2.59-1.135,4.541,4.541,0,0,0,2.292-1.421,3.633,3.633,0,0,0,.779-2.361A3.412,3.412,0,0,0,94.5,123.1a4.173,4.173,0,0,0-1.891-1.4,8.059,8.059,0,0,0-3.015-.5h0Z"/>
      <path id="Shape_1_copy_3" data-name="Shape 1 copy 3" class="cls-2" d="M105.635,69.852l-4.488-19.924a173.032,173.032,0,0,0-17.356,16.46L73.56,76.75c-6.7,6.357-14.314,13.213-16.668,15.447-3.743,3.551-6.7,9.787-7.312,11.087s-1.654,4.243-2.437,4.5c-3.972,1.318-8.443-1.732-9.227-3.291a2.813,2.813,0,0,1-.174-2.6s10.271-11.952,11.49-12.992c1.12-.955,12.072-10.6,18.436-16.393h0.263s6.65-6.65,7.786-8.759a2.908,2.908,0,0,0,.214-0.535,45.579,45.579,0,0,0,3.592-6.186,57.165,57.165,0,0,1,3.308-5.543L94.2,41.144a8.987,8.987,0,0,1-1.277-2.991l8.878-6.929c7.051,5.283,8.356,11.606,8.356,11.606L128.44,53.916Zm-37.986-.964c-0.655-.69-1.242-1.329-1.727-1.89A170.329,170.329,0,0,0,47.913,49.776l-4.5,20.005-22.855-16L38.879,42.648s1.309-6.348,8.375-11.653l8.9,6.957a9.034,9.034,0,0,1-1.279,3l11.4,10.389a57.417,57.417,0,0,1,3.315,5.566,45.69,45.69,0,0,0,3.545,6.13ZM99.943,88.914c1.222,1.043,11.515,13.045,11.515,13.045a2.83,2.83,0,0,1-.174,2.609c-0.785,1.565-5.266,4.628-9.247,3.305-0.785-.261-1.832-3.218-2.443-4.522s-3.577-7.566-7.328-11.132c-2.14-2.034-8.617-7.886-14.811-13.718L82.5,73.393C88.964,79.259,98.88,88.005,99.943,88.914Z"/>
    </g>
  </g>
</svg>
