<svg xmlns="http://www.w3.org/2000/svg" width="150" height="150" viewBox="0 0 150 150">
  <defs>
    <style>
      .cls-1 {
        fill: #b83027;
      }

      .cls-1, .cls-2, .cls-3, .cls-4, .cls-5 {
        fill-rule: evenodd;
      }

      .cls-2 {
        fill: #fbbd40;
      }

      .cls-3 {
        fill: #231f20;
      }

      .cls-4 {
        fill: #754c29;
      }

      .cls-5 {
        fill: #f7f7f7;
      }
    </style>
  </defs>
  <g id="Layer_2" data-name="Layer 2">
    <g>
      <path id="Shape_694_copy" data-name="Shape 694 copy" class="cls-1" d="M142.45115,73.749a66.93,66.93,0,1,1-66.93-66.93h0A66.93,66.93,0,0,1,142.45115,73.749Z"/>
      <path id="Shape_694_copy_2" data-name="Shape 694 copy 2" class="cls-2" d="M134.49342,72.582s-.02-.58-.049-1.451a30.2841,30.2841,0,0,0-.236-3.184c-.119-1.156-.225-2.313-.4-3.168l-.25-1.431s1.527-1.629,2.848-3.4c1.36-1.762,2.666-3.7,2.666-3.7a8.53407,8.53407,0,0,1,2,12.609A11.14,11.14,0,0,1,134.49342,72.582Zm-2.288-14.943-.443-1.384c-.263-.832-.606-1.943-1.063-3.014a46.28063,46.28063,0,0,0-1.853-4.263l.614-1.238c.376-.758.828-1.766,1.237-2.793.843-2.055,1.59-4.262,1.59-4.262a8.552,8.552,0,0,1,5.279,11.634,11.157,11.157,0,0,1-5.361,5.319Zm-6.167-13.814-.8-1.217c-.477-.73-1.1-1.715-1.82-2.627-1.353-1.9-2.908-3.628-2.908-3.628s.107-.542.267-1.355c.164-.828.334-1.917.461-3.016.277-2.2.421-4.528.421-4.528a8.551,8.551,0,0,1,8.138,9.838,11.134,11.134,0,0,1-3.759,6.532Zm-10.67-12.676c-.648-.584-1.509-1.367-2.445-2.061a46.13151,46.13151,0,0,0-3.756-2.746s-.038-.552-.1-1.378c-.057-.844-.183-1.933-.347-3.03-.31-2.2-.781-4.483-.781-4.483a8.574,8.574,0,0,1,10.438,7.379,11.14093,11.14093,0,0,1-1.927,7.289Zm-74.44-6.185-.1,1.378a46.22491,46.22491,0,0,0-3.756,2.746c-.936.694-1.8,1.477-2.445,2.061l-1.084.969a11.135,11.135,0,0,1-1.927-7.289c.53895-4.70452,3.48722-4.83031,8.19174-4.29136.31806.03644,1.93625-3.1604,2.24826-3.08864,0,0-.471,2.282-.781,4.483-.163,1.096-.29,2.184-.347,3.028Zm-16.173,17.643-.795,1.217a11.136,11.136,0,0,1-3.761-6.533,8.552,8.552,0,0,1,8.135-9.842s.144,2.325.421,4.528c.127,1.1.3,2.187.461,3.016l.267,1.356s-1.556,1.732-2.908,3.628C25.85242,40.892,25.23342,41.877,24.75542,42.607Zm-3.6,6.37a46.37061,46.37061,0,0,0-1.856,4.264c-.457,1.07-.8,2.182-1.064,3.014l-.442,1.384a11.15805,11.15805,0,0,1-5.362-5.319,8.553,8.553,0,0,1,5.279-11.634s.747,2.207,1.59,4.262c.409,1.027.861,2.035,1.237,2.792Zm-4.711,14.372s-.1.572-.25,1.431c-.179.855-.285,2.012-.4,3.168a30.207,30.207,0,0,0-.237,3.184c-.029.871-.048,1.451-.048,1.451a11.143,11.143,0,0,1-6.578-3.72,8.53494,8.53494,0,0,1,2-12.609s1.306,1.934,2.667,3.7C14.91842,61.719,16.44442,63.349,16.44442,63.349Zm-6.845,10.616c.678.549,1.583,1.259,2.489,1.933,1.812,1.36,3.62,2.542,3.62,2.542-.259.027,1.31,9.2,1.522,9.154a11,11,0,0,1-7.336-1.881,8.5,8.5,0,0,1-1.371-12.677Zm1.016,15.884s2.065,1.023,4.089,1.87c2.126.832,4.235,1.481,4.235,1.481l.5,1.364.517,1.4c.218.5.484,1.017.733,1.542l1.4,2.877a8.54969,8.54969,0,0,0,.694,1.275,10.75,10.75,0,0,1-7.517.087,9.6,9.6,0,0,1-3.115-1.923,8.446,8.446,0,0,1-1.971-3.14,8.643,8.643,0,0,1-.55-3.486A9.645,9.645,0,0,1,10.61542,89.849Zm10.9,16.406c1.113.133,2.175.255,3.015.3l1.4.056s1.38,1.874,2.812,3.7l3.134,3.438a11.082,11.082,0,0,1-7.237,2.051,8.46,8.46,0,0,1-6.241-3.54,7.162,7.162,0,0,1-1.394-3.249,9.35617,9.35617,0,0,1,.011-3.447s2.292.427,4.498.693Zm14.68,11.476s.447.371,1.152.887l2.568,1.911a25.9715,25.9715,0,0,0,2.681,1.742l1.246.753a11.30007,11.30007,0,0,1-6.487,3.924,9.09108,9.09108,0,0,1-6.959-1.79,9.17394,9.17394,0,0,1-3.085-6.106s2.338-.207,4.554-.544,4.328-.775,4.328-.775Zm12.862,8c-.106.248,8.7,3.352,8.759,3.135a10.85,10.85,0,0,1-5.213,5.469,9.35478,9.35478,0,0,1-3.538.813,7.312,7.312,0,0,1-3.649-.737,8.43,8.43,0,0,1-4.586-5.088,39.91377,39.91377,0,0,0,4.224-1.658c2.08-.923,4.001-1.932,4.001-1.932Zm13.491,5.308,1.016-.943,1.435.219a23.61534,23.61534,0,0,0,3.18.357l4.652.226a10.87193,10.87193,0,0,1-3.582,6.551,9.53213,9.53213,0,0,1-3.194,1.8,9.30923,9.30923,0,0,1-3.705.175,8.09981,8.09981,0,0,1-3.317-1.223,9.63793,9.63793,0,0,1-2.453-2.475s1.9-1.307,3.629-2.665c.867-.673,1.723-1.471,2.338-2.02Zm6.061-5.711a20.19951,20.19951,0,0,1-2.882-.325l-1.3-.2-.56-1.182c-.258-.575-.576-1.278-.881-2.035a49.26309,49.26309,0,0,0,9.243,1.4,19.52216,19.52216,0,0,1,.605,2.549Zm-47.687-53.954a26.08623,26.08623,0,0,1,.215-2.887c.108-1.048.2-2.1.366-2.871.135-.778.226-1.3.226-1.3a41.61594,41.61594,0,0,1,3.884-1.576c.487-.175.97-.339,1.423-.487a49.27313,49.27313,0,0,0-1.3,9.057,18.137,18.137,0,0,1-4.859,1.377S20.89942,72.163,20.92242,71.374Zm.136,6.631s1.675-1.358,3.356-2.537c.439-.312.874-.609,1.282-.884a49.50992,49.50992,0,0,0,.994,9.165,17.74316,17.74316,0,0,1-4.252,2.549,54.12778,54.12778,0,0,1-1.381-8.293Zm6.41,21.031a7.11039,7.11039,0,0,1-.628-1.156l-1.262-2.607c-.226-.475-.47-.944-.668-1.395l-.464-1.267-.454-1.235s1.206-1.731,2.5-3.3c.334-.39.67-.768.988-1.12a48.975,48.975,0,0,0,3.314,8.67,19.44825,19.44825,0,0,1-3.327,3.41Zm5.4,7.849-2.547-3.359.443-1.216c.274-.725.723-1.721,1.157-2.664.163-.353.328-.7.49-1.028a49.4607,49.4607,0,0,0,5.477,7.6,18.90016,18.90016,0,0,1-2.174,3.781Zm14.712,7.864a18.854,18.854,0,0,1-1.022,3.652l-1.129-.682a22.37649,22.37649,0,0,1-2.43-1.57l-2.327-1.731c-.64-.467-1.046-.8-1.046-.8s.209-2.157.551-4.193q.0525-.321.108-.636A49.52732,49.52732,0,0,0,47.58042,114.749Zm37.419,15.566,1.441-.217,1.016.943c.615.549,1.471,1.347,2.338,2.017,1.727,1.358,3.629,2.665,3.629,2.665a9.62312,9.62312,0,0,1-2.453,2.475,8.1,8.1,0,0,1-3.317,1.223,9.31088,9.31088,0,0,1-3.706-.175,9.532,9.532,0,0,1-3.194-1.8,10.876,10.876,0,0,1-3.586-6.552l4.652-.226A23.6104,23.6104,0,0,0,84.99942,130.315Zm15.948-4.582s1.921,1.009,4,1.934a39.87649,39.87649,0,0,0,4.224,1.658,8.43,8.43,0,0,1-4.587,5.088,7.30906,7.30906,0,0,1-3.649.737,9.35706,9.35706,0,0,1-3.537-.813,10.85194,10.85194,0,0,1-5.213-5.469c.061.217,8.864-2.887,8.758-3.135Zm5.215-2.707,1.246-.753a25.8672,25.8672,0,0,0,2.682-1.742c.933-.695,1.867-1.389,2.568-1.91s1.151-.888,1.151-.888,2.1.45,4.33.777,4.554.544,4.554.544a8.492,8.492,0,0,1-10.043,7.9,11.306,11.306,0,0,1-6.492-3.928Zm15.1-12.71c1.433-1.83,2.813-3.7,2.813-3.7l1.4-.055c.841-.044,1.9-.167,3.016-.3,2.205-.266,4.5-.69,4.5-.69a9.3538,9.3538,0,0,1,.011,3.447,7.15393,7.15393,0,0,1-1.394,3.249,8.46,8.46,0,0,1-6.24,3.54,11.084,11.084,0,0,1-7.246-2.058Zm7.011-46s.09.519.227,1.3c.166.774.257,1.823.365,2.871a26.07393,26.07393,0,0,1,.215,2.887c.026.79.044,1.316.044,1.316a18.14889,18.14889,0,0,1-4.859-1.377,49.27314,49.27314,0,0,0-1.3-9.057c.453.148.936.312,1.423.487a41.63123,41.63123,0,0,1,3.882,1.576Zm-21.274,51.833a22.33258,22.33258,0,0,1-2.432,1.578l-1.128.682a18.88364,18.88364,0,0,1-1.021-3.66,49.60032,49.60032,0,0,0,7.3-5.97q.055.315.108.636c.341,2.036.552,4.193.552,4.193s-.407.335-1.046.8Zm7.286-6.145a18.92179,18.92179,0,0,1-2.173-3.781,49.48141,49.48141,0,0,0,5.477-7.6c.162.332.327.675.489,1.028.435.943.883,1.939,1.157,2.664s.443,1.216.443,1.216-1.273,1.68-2.547,3.359c-1.421,1.552-2.845,3.109-2.845,3.109Zm10.8-16.12c-.2.451-.441.919-.668,1.395l-1.262,2.607a7.13265,7.13265,0,0,1-.628,1.156,19.43288,19.43288,0,0,1-3.325-3.408,48.89978,48.89978,0,0,0,3.314-8.67c.319.351.655.73.989,1.12,1.293,1.568,2.5,3.3,2.5,3.3l-.455,1.235Zm3.852-15.874a54.14174,54.14174,0,0,1-1.381,8.294,17.742,17.742,0,0,1-4.248-2.555,49.55866,49.55866,0,0,0,1-9.166c.408.275.843.573,1.282.884,1.675,1.182,3.351,2.538,3.351,2.538Zm-42.8,45.622-.559,1.182-1.3.2a20.20126,20.20126,0,0,1-2.882.325l-4.221.21a19.54106,19.54106,0,0,1,.605-2.549,49.26283,49.26283,0,0,0,9.243-1.4c-.31.749-.624,1.449-.886,2.027Zm41.08-21.97a8.5564,8.5564,0,0,0,.694-1.274l1.395-2.878c.249-.525.515-1.043.733-1.542.189-.511.366-.988.518-1.4.3-.819.5-1.364.5-1.364s2.108-.649,4.234-1.481c2.024-.846,4.089-1.87,4.089-1.87a9.63307,9.63307,0,0,1,.987,3.343,8.63721,8.63721,0,0,1-.551,3.486,8.4401,8.4401,0,0,1-1.971,3.14,9.60018,9.60018,0,0,1-3.111,1.927,10.751,10.751,0,0,1-7.517-.092Zm5.557-14.064c.212.049,1.781-9.127,1.522-9.154,0,0,1.808-1.181,3.62-2.542.905-.674,1.81-1.384,2.488-1.933.642-.558,1.071-.929,1.071-.929a8.5,8.5,0,0,1-1.365,12.676,11.00006,11.00006,0,0,1-7.336,1.877Z"/>
      <g>
        <polygon class="cls-3" points="98.765 79.299 104.439 78.32 109.33 66.581 107.96 64.429 111.873 60.907 104.439 52.494 97.004 50.929 94.265 78.712 98.765 79.299"/>
        <polygon class="cls-3" points="102.678 112.559 115.395 99.255 110.504 78.712 106.247 80.744 107.765 96.32 95.439 110.407 102.678 112.559"/>
        <path class="cls-3" d="M44.102,109.21769s-1.2938,2.6243-1.03294,8.233c0,0,9.12173,1.515,11.86957,1.56521s11.1643-2.08031,11.1643-2.08031l6.70527-.26751-1.1652-5.31091-12.6585-2.51426Z"/>
        <path class="cls-3" d="M79.87332,116.01573s-.08863,4.84913.52543,6.639c0,0,12.25789,1.67925,13.38936,1.69993s9.75735-3.05552,9.75735-3.05552l6.83015-2.13886-3.13967-4.337-12.65062,1.29962Z"/>
        <path class="cls-3" d="M103.69823,113.75255,99.97,112.45406l-1.14508-4.73232,10.34-10.78618L105.2683,79.17848l-2.36419,1.03335.23958,4.00289-4.74923-5.31566-2.43822.01693,1.43116-2.99425,1.69394-.39351,4.72057-10.21766-2.14586-2.346,5.39538-4.36134-3.1228-2.52288-1.797-2.02692-.34538.29608-3.5298-2.85158,2.96539,1.001.80124-1.06186,2.174.80865.51671-2.605-9.36145-4.94548-.11986-.13193,9.0236,4.45386L97.55642,39.206l-7.05608-1.54635a2.52675,2.52675,0,0,0,1.1677-1.32952c.17578-1.0733-1.61249-5.87346-2.06157-6.95818-.44928-1.08477-.90979-1.55457-2.61761-2.20091A27.41934,27.41934,0,0,0,83.56,26.39056l-.481-1.45645a2.4056,2.4056,0,0,0-1.78729-1.597A24.33162,24.33162,0,0,0,74.772,22.9479a2.42433,2.42433,0,0,0-2.05,1.40379l-.25849.565c-3.21663.05-14.21489.80628-14.21489.80628s-.77219.42175-1.5761.95651L32.0341,18.97427a1.83874,1.83874,0,0,0-2.30237,1.17234c-.20875.64723-.40678,2.3641-.57019,2.871a1.79915,1.79915,0,0,0,1.19319,2.26553l24.22193,7.575a22.33736,22.33736,0,0,0,.05382,2.64131.54014.54014,0,0,0,.21451.25219l-.187.161c.44084,1.546,5.141,1.81863,5.141,1.81863l.05509-.00081c.16852.05256.323.10033.46065.14239l-6.83168.5276L43.63865,46.679,42.51553,56.80863l5.38291,4.86585L44.5845,71.91785l.08194.09809-3.04851-.3061s-3.1494,9.785-1.01759,12.89974L47.08307,89.188l5.79669-.663,3.31842-2.71633,3.53294,4.22564L54.3835,91.782l-2.96326,10.82778-1.27373.7062-3.66265,1.54757s-3.51138,3.93439-2.9678,8.40421l4.203.99959s3.879,1.60878,10.63021.04048l1.75579-1.96719,2.12194.15489.214.34918,5.16039-.05948.80947-1.52311-3.24829-1.90485-2.53332-6.81305-.10083-.00331,9.00477-8.13862-.86642-12.47284-3.20642,2.39076L65.454,81.30248l-1.64979-.26733-3.02475-5.59174,2.54-2.10665,10.31778.03477,2.63825-1.31319L74.78633,78.929l-1.58242,1.04759,1.456,5.87065.44647,1.23846,10.06312,5.41278s2.83855-1.33222,3.00329-1.7906S93.288,93.10823,93.288,93.10823l-4.09813,10.38283-1.22068,2.10948-.3816.01426-1.60208,2.12379.07106.009-.55124.59743-3.76219.54638a16.681,16.681,0,0,0-1.74839,10.11818A62.72031,62.72031,0,0,0,90.28725,120.428a14.21091,14.21091,0,0,0,7.38231-1.86436l7.05524-1.10137-.50465-1.4,1.16081-.27966ZM83.42367,87.49414l.6573-.25144c.17335.16413.354.32491.55055.47846Z"/>
        <polygon class="cls-2" points="101.24 108.668 112.397 97.031 108.5 79.274 106.136 80.307 106.376 84.31 101.626 78.994 95.528 79.036 92.285 85.436 101.65 94.835 92.422 103.586 90.485 106.934 101.24 108.668"/>
        <path class="cls-2" d="M54.60017,102.89483l-4.88427,2.06379s-3.5114,3.93437-2.96773,8.40422l4.20293.99955s3.87911,1.60879,10.63041.04049l1.7557-1.96719,5.62075.41031-6.42643-7.65316Z"/>
        <path class="cls-2" d="M89.85388,107.23008,88.73738,108.44l-3.76215.54641s-4.42643,4.58674-3.42794,9.83385A84.29791,84.29791,0,0,0,93.51945,120.523a48.81189,48.81189,0,0,0,7.20175-.33319l6.78261-2.087-1.82609-2.73913-3.581-2.21968-2.87113-5.43512Z"/>
        <polygon class="cls-3" points="46.127 78.903 43.832 84.705 47.373 89.407 56.112 88.62 63.095 82.904 56.276 71.091 46.127 78.903"/>
        <path class="cls-2" d="M64.22543,38.17137S58.0048,36.366,57.86256,35.59444a37.49242,37.49242,0,0,1,.28835-7.22286c.32943-.91672,3.32982-2.55357,3.32982-2.55357s12.36644-.85052,14.71076-.80768A96.63146,96.63146,0,0,1,90.22091,27.266c1.70793.64637,2.16836,1.11616,2.61756,2.2009s2.23756,5.88491,2.0616,6.95822-2.85814,2.40841-3.48049,2.24324S70.12223,40.586,64.22543,38.17137Z"/>
        <path class="cls-2" d="M87.38805,28.29076l-1.07684-3.26162a2.40609,2.40609,0,0,0-1.78735-1.59707,24.33173,24.33173,0,0,0-6.51986-.38913,2.42419,2.42419,0,0,0-2.04989,1.40375l-1.37046,2.9949Z"/>
        <path class="cls-3" d="M66.44536,35.65407,33.58675,25.37813a1.79921,1.79921,0,0,1-1.19319-2.26553v0a1.83872,1.83872,0,0,1,2.30237-1.17237L67.55455,32.21616a1.79921,1.79921,0,0,1,1.19318,2.26554h0A1.83871,1.83871,0,0,1,66.44536,35.65407Z"/>
        <polygon class="cls-2" points="67.988 37.625 56.715 38.495 46.871 46.774 45.748 56.904 75.596 57.603 96.487 43.682 107.488 49.112 100.788 39.301 91.601 37.288 67.988 37.625"/>
        <polygon class="cls-3" points="107.946 49.736 96.487 43.682 75.61 56.834 45.748 56.904 51.131 61.769 47.817 72.013 62.963 90.129 57.616 91.877 54.6 102.895 64.591 103.693 74.765 94.497 73.899 82.025 72.853 79.391 69.73 79.18 67.036 81.13 64.012 75.538 66.551 73.432 76.869 73.467 79.552 72.131 80.409 67.995 99.637 50.968 104.454 52.594 105.255 51.532 107.429 52.341 107.946 49.736"/>
        <polygon class="cls-2" points="78.861 58.585 89.607 52.323 88.085 58.6 78.861 58.585"/>
        <path class="cls-3" d="M57.89021,36.00767l3.61756-3.11483L68.566,31.63773s7.45126,2.90439,9.94625,3.25757a36.98652,36.98652,0,0,0,7.03859-.17894L81.2777,37.56027l-18.24659.26607S58.331,37.55362,57.89021,36.00767Z"/>
        <path class="cls-2" d="M67.01565,32.78311,34.157,22.50718a1.79922,1.79922,0,0,1-1.19319-2.26554h0a1.8387,1.8387,0,0,1,2.30236-1.17237L68.12483,29.3452A1.79921,1.79921,0,0,1,69.318,31.61074h0A1.8387,1.8387,0,0,1,67.01565,32.78311Z"/>
        <path class="cls-2" d="M48.59519,72.18088l-3.7453-.376s-3.1493,9.785-1.01745,12.89976l13.19311-.25392Z"/>
        <polygon class="cls-2" points="78.018 79.024 80.409 67.995 99.961 50.359 110.283 58.698 104.888 63.06 107.034 65.406 102.313 75.623 88.811 78.76 92.285 85.436 86.144 87.785 77.892 85.942 76.436 80.072 78.018 79.024"/>
        <polygon class="cls-3" points="105.364 54.148 90.434 66.948 91.971 68.36 108.274 57.431 105.364 54.148"/>
        <path class="cls-3" d="M100.7477,75.74844,88.81079,78.75987l-2.91328-3.129s-.647,8.62987,1.96607,12.18534L77.892,85.94224l.44638,1.23848,10.06321,5.41277s2.83848-1.33223,3.00319-1.79059,5.11537,2.40033,5.11537,2.40033l-4.09827,10.38282,12.842-9.76165,4.36765.54119-.56334-3.39367-8.45885-9.55657-1.97489-1.24562Z"/>
        <polygon class="cls-3" points="51.286 103.755 55.393 102.294 65.861 102.639 68.395 109.452 71.643 111.357 70.833 112.88 65.673 112.94 61.574 106.252 51.286 103.755"/>
        <polygon class="cls-3" points="83.895 108.972 98.243 111.059 100.428 119.603 109.852 118.625 106.93 113.848 103.202 112.549 101.894 107.143 99.111 105.4 90.82 105.71 83.895 108.972"/>
        <polygon class="cls-3" points="54.585 43.839 61.982 43.69 60.956 45.955 52.786 46.233 54.585 43.839"/>
        <polygon class="cls-3" points="91.554 39.286 97.978 47.093 99.404 46.042 93.58 39.631 91.554 39.286"/>
        <path class="cls-3" d="M50.77733,109.18514a17.82262,17.82262,0,0,0-1.63742,6.71719l2.60529.5984,1.77759-6.85232Z"/>
        <path class="cls-3" d="M86.97342,112.71285a21.66616,21.66616,0,0,0-1.99053,8.16576l3.16713.72744,2.16092-8.33Z"/>
      </g>
      <path id="Shape_11_copy_4" data-name="Shape 11 copy 4" class="cls-4" d="M70.76342,116.233a106.93162,106.93162,0,0,0-38.354,7.03c4.224,6.8,9.293,19.918,9.293,19.918,6.589-2.343,29.061-3.28,29.061-3.28h9.293s22.472.937,29.061,3.28c0,0,5.069-13.122,9.293-19.918a106.931,106.931,0,0,0-38.354-7.03Z"/>
      <g>
        <path class="cls-5" d="M73.06341,119.79851V136.6798H68.29673V124.46543l-3.45067,2.11016-2.135-3.20216,5.98293-3.57492Z"/>
        <path class="cls-5" d="M86.39463,119.79851v3.227l-6.132,14.15058L75.819,135.68649l5.41173-12.26336H74.80117v-3.62462Z"/>
      </g>
      <polygon class="cls-1" points="41.634 16.103 49.829 21.011 57.678 25.885 36.678 19.494 41.634 16.103"/>
    </g>
  </g>
</svg>
