<svg xmlns="http://www.w3.org/2000/svg" width="150" height="150" viewBox="0 0 150 150">
  <defs>
    <style>
      .cls-1 {
        fill: #b83027;
      }

      .cls-1, .cls-2, .cls-3, .cls-4, .cls-5 {
        fill-rule: evenodd;
      }

      .cls-2 {
        fill: #fbbd40;
      }

      .cls-3 {
        fill: #754c29;
      }

      .cls-4 {
        fill: #231f20;
      }

      .cls-5 {
        fill: #f7f7f7;
      }
    </style>
  </defs>
  <g id="allies_stalingrad_flametrooper_1_icon">
    <g id="back_copy_10" data-name="back copy 10">
      <path id="Shape_694_copy" data-name="Shape 694 copy" class="cls-1" d="M141.93,75A66.93,66.93,0,1,1,75,8.07,66.93,66.93,0,0,1,141.93,75Z"/>
      <path id="Shape_694_copy_2" data-name="Shape 694 copy 2" class="cls-2" d="M134.494,73.833s-0.02-.58-0.049-1.451a30.284,30.284,0,0,0-.236-3.184c-0.119-1.156-.225-2.313-0.4-3.168l-0.25-1.431s1.527-1.629,2.848-3.4c1.36-1.762,2.666-3.7,2.666-3.7a8.534,8.534,0,0,1,2,12.609A11.14,11.14,0,0,1,134.494,73.833Zm-2.288-14.943-0.443-1.384c-0.263-.832-0.606-1.943-1.063-3.014a46.281,46.281,0,0,0-1.853-4.263l0.614-1.238c0.376-.758.828-1.766,1.237-2.793,0.843-2.055,1.59-4.262,1.59-4.262a8.552,8.552,0,0,1,5.279,11.634A11.157,11.157,0,0,1,132.206,58.889Zm-6.167-13.814s-0.317-.487-0.8-1.217-1.1-1.715-1.82-2.627c-1.352-1.9-2.908-3.628-2.908-3.628s0.107-.542.267-1.355c0.106-.535.213-1.184,0.311-1.869l5.406-3.63-0.33-.563a7.557,7.557,0,0,1,1.659,1.482,8.552,8.552,0,0,1,1.974,6.873A11.134,11.134,0,0,1,126.039,45.075ZM123.51,89.329c1.293,1.568,2.5,3.3,2.5,3.3l-0.455,1.235L125.09,95.13c-0.2.451-.441,0.919-0.668,1.395-0.459.948-.918,1.9-1.261,2.607a7.175,7.175,0,0,1-.629,1.156,19.433,19.433,0,0,1-3.325-3.408,48.9,48.9,0,0,0,3.314-8.67C122.84,88.561,123.176,88.939,123.51,89.329ZM112.924,30.335a46.134,46.134,0,0,0-3.756-2.746s-0.038-.552-0.1-1.378c-0.057-.844-0.183-1.933-0.346-3.03-0.311-2.2-.781-4.483-0.781-4.483a8.574,8.574,0,0,1,10.437,7.379c0.007,0.07.006,0.141,0.012,0.212l-5.4,4.1C112.966,30.371,112.947,30.352,112.924,30.335Zm-3.209,79.7q0.055,0.315.108,0.636c0.341,2.035.552,4.193,0.552,4.193s-0.407.335-1.046,0.8L107,117.4a22.331,22.331,0,0,1-2.432,1.578l-1.128.682A18.884,18.884,0,0,1,102.419,116,49.6,49.6,0,0,0,109.715,110.033Zm-0.544,20.543a8.43,8.43,0,0,1-4.587,5.088,7.309,7.309,0,0,1-3.649.737,9.357,9.357,0,0,1-3.537-.813,10.856,10.856,0,0,1-5.213-5.469c0.063,0.217,8.865-2.887,8.76-3.135,0,0,1.921,1.009,4,1.934A39.875,39.875,0,0,0,109.171,130.576Zm-18.2,8.873a8.1,8.1,0,0,1-3.317,1.223,9.311,9.311,0,0,1-3.706-.175,9.532,9.532,0,0,1-3.194-1.8,10.876,10.876,0,0,1-3.586-6.552l4.652-.226a23.608,23.608,0,0,0,3.18-.357l1.441-.217,1.016,0.943c0.615,0.549,1.471,1.347,2.338,2.017,1.727,1.358,3.629,2.665,3.629,2.665A9.623,9.623,0,0,1,90.966,139.449ZM85.578,126.06l-1.3.2a20.2,20.2,0,0,1-2.882.325l-4.221.21a19.539,19.539,0,0,1,.605-2.549,49.262,49.262,0,0,0,9.243-1.4c-0.305.757-.623,1.46-0.881,2.035ZM66.056,140.5a9.309,9.309,0,0,1-3.705.175,8.1,8.1,0,0,1-3.317-1.223,9.638,9.638,0,0,1-2.453-2.475s1.9-1.307,3.629-2.665c0.867-.67,1.723-1.468,2.338-2.017l1.016-.943L65,131.566a23.616,23.616,0,0,0,3.18.357l4.652,0.226A10.872,10.872,0,0,1,69.25,138.7,9.532,9.532,0,0,1,66.056,140.5Zm-0.329-14.241-1.3-.2-0.56-1.182c-0.258-.575-0.576-1.278-0.881-2.035a49.263,49.263,0,0,0,9.243,1.4,19.523,19.523,0,0,1,.605,2.549l-4.221-.21A20.2,20.2,0,0,1,65.727,126.256ZM52.6,135.588a9.355,9.355,0,0,1-3.538.813,7.312,7.312,0,0,1-3.649-.737,8.43,8.43,0,0,1-4.586-5.088,39.913,39.913,0,0,0,4.224-1.658c2.082-.925,4-1.934,4-1.934-0.106.248,8.7,3.352,8.759,3.135A10.854,10.854,0,0,1,52.6,135.588Zm-7.172-16.615A22.376,22.376,0,0,1,43,117.4l-2.327-1.731c-0.64-.467-1.046-0.8-1.046-0.8s0.209-2.158.551-4.193c0.035-.214.071-0.426,0.108-0.636a49.528,49.528,0,0,0,7.3,5.97,18.854,18.854,0,0,1-1.022,3.652Zm-4.5-92.762-0.1,1.378a46.224,46.224,0,0,0-3.756,2.746c-0.936.694-1.8,1.477-2.445,2.061l-1.084.969a11.135,11.135,0,0,1-1.927-7.289A8.574,8.574,0,0,1,42.057,18.7s-0.471,2.282-.781,4.483C41.113,24.279,40.986,25.367,40.929,26.211ZM24.756,43.858l-0.795,1.217A11.136,11.136,0,0,1,20.2,38.542,8.552,8.552,0,0,1,28.335,28.7s0.144,2.325.421,4.528c0.127,1.1.3,2.187,0.461,3.016L29.484,37.6s-1.556,1.732-2.908,3.628C25.853,42.143,25.234,43.128,24.756,43.858Zm-3.6,6.37A46.372,46.372,0,0,0,19.3,54.492c-0.457,1.07-.8,2.182-1.064,3.014l-0.442,1.384a11.158,11.158,0,0,1-5.362-5.319,8.553,8.553,0,0,1,5.279-11.634s0.747,2.207,1.59,4.262c0.409,1.027.861,2.035,1.237,2.792ZM16.445,64.6s-0.1.572-.25,1.431c-0.179.855-.285,2.012-0.4,3.168a30.208,30.208,0,0,0-.237,3.184c-0.029.871-.048,1.451-0.048,1.451a11.143,11.143,0,0,1-6.578-3.72,8.535,8.535,0,0,1,2-12.609s1.306,1.934,2.667,3.7C14.919,62.97,16.445,64.6,16.445,64.6ZM9.6,75.216c0.678,0.549,1.583,1.259,2.489,1.933,1.812,1.36,3.62,2.542,3.62,2.542-0.259.027,1.31,9.2,1.522,9.154a11,11,0,0,1-7.336-1.881A8.5,8.5,0,0,1,8.524,74.287Zm17.382,34.053c0.5,0.664,1.122,1.481,1.762,2.3L31.877,115a11.082,11.082,0,0,1-7.237,2.051A8.029,8.029,0,0,1,19.9,115.1Zm5.889-1.133-1.735-2.288,3.35-2.759a49.539,49.539,0,0,0,3.405,4.38,18.9,18.9,0,0,1-2.174,3.781ZM29.228,93.352l-3.787,2.889c-0.184-.376-0.374-0.751-0.532-1.11l-0.464-1.267-0.454-1.235s1.206-1.731,2.5-3.3c0.334-.39.67-0.768,0.988-1.12A49.177,49.177,0,0,0,29.228,93.352ZM21.137,69.738c0.108-1.048.2-2.1,0.366-2.871,0.135-.778.226-1.3,0.226-1.3a41.617,41.617,0,0,1,3.884-1.576c0.487-.175.97-0.339,1.423-0.487a49.273,49.273,0,0,0-1.3,9.057,18.137,18.137,0,0,1-4.859,1.377s0.018-.526.044-1.316A26.087,26.087,0,0,1,21.137,69.738Zm3.277,6.981c0.439-.312.874-0.609,1.282-0.884A49.51,49.51,0,0,0,26.691,85a17.743,17.743,0,0,1-4.252,2.549,54.128,54.128,0,0,1-1.381-8.294S22.734,77.9,24.414,76.718ZM10.616,91.1s2.065,1.023,4.089,1.87c2.126,0.832,4.235,1.481,4.235,1.481l0.5,1.364,0.517,1.4c0.218,0.5.484,1.017,0.733,1.542l0.392,0.808L16.2,103.293c-0.315-.085-0.627-0.182-0.932-0.3a9.6,9.6,0,0,1-3.115-1.923,8.446,8.446,0,0,1-1.971-3.14,8.643,8.643,0,0,1-.55-3.486A9.645,9.645,0,0,1,10.616,91.1Zm25.578,27.882s0.447,0.371,1.152.887l2.568,1.911a26.141,26.141,0,0,0,2.681,1.742l1.246,0.753a11.3,11.3,0,0,1-6.487,3.924,9.1,9.1,0,0,1-6.959-1.79,9.174,9.174,0,0,1-3.085-6.106s2.338-.207,4.554-0.544S36.194,118.984,36.194,118.984Zm69.965,5.293,1.246-.753a26.035,26.035,0,0,0,2.682-1.742c0.933-.695,1.867-1.389,2.568-1.91s1.151-.888,1.151-0.888,2.1,0.45,4.33.777,4.554,0.544,4.554.544a8.492,8.492,0,0,1-10.043,7.9A11.306,11.306,0,0,1,106.159,124.277Zm8.128-13.027a18.922,18.922,0,0,1-2.173-3.781,49.482,49.482,0,0,0,5.477-7.6c0.162,0.332.327,0.675,0.49,1.028,0.434,0.943.882,1.939,1.156,2.664s0.443,1.216.443,1.216-1.273,1.68-2.547,3.359C115.711,109.693,114.287,111.25,114.287,111.25Zm6.973,0.317c1.433-1.83,2.813-3.7,2.813-3.7l1.4-.055c0.841-.044,1.9-0.167,3.016-0.3,2.206-.266,4.5-0.69,4.5-0.69a9.354,9.354,0,0,1,.011,3.447,7.154,7.154,0,0,1-1.394,3.249,8.46,8.46,0,0,1-6.24,3.54A11.084,11.084,0,0,1,118.123,115Zm4.326-34.849c1.68,1.179,3.356,2.537,3.356,2.537a54.14,54.14,0,0,1-1.381,8.294A17.742,17.742,0,0,1,123.309,85a49.558,49.558,0,0,0,1-9.166C124.712,76.109,125.147,76.407,125.586,76.718Zm-1.2-12.725a41.631,41.631,0,0,1,3.884,1.576s0.09,0.519.227,1.3c0.166,0.774.257,1.823,0.365,2.871a26.07,26.07,0,0,1,.215,2.887c0.026,0.79.044,1.316,0.044,1.316a18.149,18.149,0,0,1-4.859-1.377,49.273,49.273,0,0,0-1.3-9.057C123.417,63.655,123.9,63.819,124.387,63.993Zm2.831,38.915a8.556,8.556,0,0,0,.694-1.274l1.395-2.878c0.249-.525.515-1.043,0.733-1.542,0.189-.511.366-0.988,0.518-1.4l0.5-1.364s2.108-.649,4.234-1.481c2.024-.846,4.089-1.87,4.089-1.87a9.633,9.633,0,0,1,.987,3.343,8.637,8.637,0,0,1-.551,3.486,8.44,8.44,0,0,1-1.971,3.14A9.586,9.586,0,0,1,134.735,103,10.751,10.751,0,0,1,127.218,102.908Zm5.557-14.064c0.212,0.049,1.781-9.127,1.522-9.154,0,0,1.808-1.181,3.62-2.542,0.905-.674,1.81-1.384,2.488-1.933l1.071-.929a8.5,8.5,0,0,1-1.365,12.676A11,11,0,0,1,132.775,88.844Z"/>
      <path id="Shape_11_copy_4" data-name="Shape 11 copy 4" class="cls-3" d="M70.764,117.484a106.932,106.932,0,0,0-38.354,7.03c4.224,6.8,9.293,19.918,9.293,19.918,6.589-2.343,29.061-3.28,29.061-3.28h9.293s22.472,0.937,29.061,3.28c0,0,5.069-13.122,9.293-19.918a106.931,106.931,0,0,0-38.354-7.03H70.764Z"/>
    </g>
    <g id="flame">
      <path id="Shape_22_copy_2" data-name="Shape 22 copy 2" class="cls-4" d="M131.769,42.156l-15.558,9.779a2.085,2.085,0,0,1-1.169-.579l-14.5,9.7-46.07,32L56.17,96.51l0.119,0.937c-3.3,5.414-8.925,6.131-9.349,5.267a6.569,6.569,0,0,0-1.833-1.81c-11.824,18.1-28.02,32.32-28.02,32.32l-1.041.574-8.253-9.271c-1.085-1.219.911-3.332,0.911-3.332s18.727-14.4,19.136-14.932,3.831-1.464,4.467-1.939,7.181-6.245,7.04-7.713a17.486,17.486,0,0,1,.819-4.6L54.075,82.53,55.027,83.8,97.122,56.131l14.15-9.47c-1.449-2.913-.481-3.969-0.481-3.969l14.974-9.756s1.862,0.139,4.006,3.394A10.542,10.542,0,0,1,131.769,42.156Zm-32.1,15.6,0.624,0.961,13.2-8.834c-0.247-.277-0.5-0.568-0.739-0.884Z"/>
      <path id="Shape_22_copy_2-2" data-name="Shape 22 copy 2" class="cls-2" d="M131.769,34.733l-15.558,9.779a2.085,2.085,0,0,1-1.169-.579l-14.5,9.7-46.066,32,1.694,3.453,0.119,0.937c-3.3,5.414-8.925,6.13-9.349,5.267a6.564,6.564,0,0,0-1.833-1.81c-11.824,18.1-28.02,32.319-28.02,32.319l-1.041.574L7.793,117.1c-1.085-1.219.911-3.332,0.911-3.332s18.727-14.4,19.136-14.932,3.831-1.463,4.467-1.939,7.181-6.245,7.04-7.713a17.487,17.487,0,0,1,.819-4.6l13.909-9.482,0.952,1.272L97.122,48.708l14.15-9.47c-1.449-2.913-.481-3.969-0.481-3.969l14.974-9.756s1.862,0.139,4.006,3.394A10.542,10.542,0,0,1,131.769,34.733Zm-32.1,15.6,0.624,0.961,13.2-8.833c-0.247-.277-0.5-0.568-0.739-0.884Z"/>
      <path class="cls-2" d="M131.714,24.358s-4.275-6.531.831-10.568,9.5,0.475,12.587-7.481c0,0,1.187,5.106,0,6.887s-6.769,4.393-5.344,8.549c0,0,2.375,1.9,4.037-2.731,0,0,2.653,6.32-3.681,8.431a6.577,6.577,0,0,1-4.749,0,18.643,18.643,0,0,1,1.9-9.143S132.664,19.846,131.714,24.358Z"/>
      <path id="_716" data-name="716" class="cls-5" d="M56.757,121.56v3.347H62.7l-5,11.325,4.1,1.376,5.662-13.068v-2.98H56.757Zm17.377,0-5.525,3.3,1.971,2.958,3.187-1.949v11.279h4.4V121.56H74.135Zm15.108,4.952a4.768,4.768,0,0,0-3.049,1.1,4.686,4.686,0,0,1,.906-2.475,2.249,2.249,0,0,1,1.8-.826,3.232,3.232,0,0,1,1.02.149,6,6,0,0,1,.951.424l1.628-2.636a6.061,6.061,0,0,0-1.662-.768,7.17,7.17,0,0,0-2.075-.287,6.81,6.81,0,0,0-3.9,1.112,7.168,7.168,0,0,0-2.545,3.13,11.507,11.507,0,0,0-.894,4.7,8.591,8.591,0,0,0,1.582,5.479,5.689,5.689,0,0,0,4.745,2,6.347,6.347,0,0,0,3.255-.8,5.39,5.39,0,0,0,2.086-2.12,5.97,5.97,0,0,0,.711-2.877,6.452,6.452,0,0,0-.573-2.82,4.284,4.284,0,0,0-1.6-1.834,4.419,4.419,0,0,0-2.384-.642h0ZM87.8,134.444a1.2,1.2,0,0,1-.963-0.4,2.7,2.7,0,0,1-.493-1.307,16.508,16.508,0,0,1-.149-2.533,2.559,2.559,0,0,1,1.628-.688,1.221,1.221,0,0,1,1.112.516,3.529,3.529,0,0,1,.332,1.8,4.259,4.259,0,0,1-.355,1.925,1.173,1.173,0,0,1-1.112.688h0Z"/>
    </g>
  </g>
</svg>
