<svg xmlns="http://www.w3.org/2000/svg" width="150" height="150" viewBox="0 0 150 150">
  <defs>
    <style>
      .cls-1 {
        fill: #b83027;
      }

      .cls-1, .cls-2, .cls-3, .cls-4, .cls-5 {
        fill-rule: evenodd;
      }

      .cls-2 {
        fill: #fbbd40;
      }

      .cls-3 {
        fill: #754c29;
      }

      .cls-4 {
        fill: #231f20;
      }

      .cls-5 {
        fill: #f7f7f7;
      }
    </style>
  </defs>
  <g id="allies_stalingrad_mortarman_1_icon">
    <g id="back_copy_6" data-name="back copy 6">
      <path id="Shape_694_copy" data-name="Shape 694 copy" class="cls-1" d="M141.93,75A66.93,66.93,0,1,1,75,8.07,66.93,66.93,0,0,1,141.93,75Z"/>
      <path id="Shape_694_copy_2" data-name="Shape 694 copy 2" class="cls-2" d="M134.494,73.833s-0.02-.58-0.049-1.451a30.284,30.284,0,0,0-.236-3.184c-0.119-1.156-.225-2.313-0.4-3.168l-0.25-1.431s1.527-1.629,2.848-3.4c1.36-1.762,2.666-3.7,2.666-3.7a8.534,8.534,0,0,1,2,12.609A11.14,11.14,0,0,1,134.494,73.833Zm-2.288-14.943-0.443-1.384c-0.263-.832-0.606-1.943-1.063-3.014a46.281,46.281,0,0,0-1.853-4.263l0.614-1.238c0.376-.758.828-1.766,1.237-2.793,0.843-2.055,1.59-4.262,1.59-4.262a8.552,8.552,0,0,1,5.279,11.634A11.157,11.157,0,0,1,132.206,58.889Zm-6.167-13.814s-0.317-.487-0.8-1.217-1.1-1.715-1.82-2.627c-1.352-1.9-2.908-3.628-2.908-3.628s0.107-.542.267-1.355c0.165-.828.334-1.917,0.461-3.016,0.277-2.2.421-4.528,0.421-4.528a8.551,8.551,0,0,1,8.138,9.838A11.134,11.134,0,0,1,126.039,45.075ZM123.51,89.329c1.293,1.568,2.5,3.3,2.5,3.3l-0.455,1.235L125.09,95.13c-0.2.451-.441,0.919-0.668,1.395-0.459.948-.918,1.9-1.261,2.607a7.175,7.175,0,0,1-.629,1.156,19.433,19.433,0,0,1-3.325-3.408,48.9,48.9,0,0,0,3.314-8.67C122.84,88.561,123.176,88.939,123.51,89.329ZM115.369,32.4c-0.648-.584-1.509-1.367-2.445-2.061a46.134,46.134,0,0,0-3.756-2.746s-0.038-.552-0.1-1.378c-0.057-.844-0.183-1.933-0.346-3.03-0.311-2.2-.781-4.483-0.781-4.483a8.574,8.574,0,0,1,10.437,7.379,11.141,11.141,0,0,1-1.927,7.289Zm-5.654,77.636q0.055,0.315.108,0.636c0.341,2.035.552,4.193,0.552,4.193s-0.407.335-1.046,0.8L107,117.4a22.331,22.331,0,0,1-2.432,1.578l-1.128.682A18.884,18.884,0,0,1,102.419,116,49.6,49.6,0,0,0,109.715,110.033Zm-0.544,20.543a8.43,8.43,0,0,1-4.587,5.088,7.309,7.309,0,0,1-3.649.737,9.357,9.357,0,0,1-3.537-.813,10.856,10.856,0,0,1-5.213-5.469c0.063,0.217,8.865-2.887,8.76-3.135,0,0,1.921,1.009,4,1.934A39.875,39.875,0,0,0,109.171,130.576Zm-18.2,8.873a8.1,8.1,0,0,1-3.317,1.223,9.311,9.311,0,0,1-3.706-.175,9.532,9.532,0,0,1-3.194-1.8,10.876,10.876,0,0,1-3.586-6.552l4.652-.226a23.608,23.608,0,0,0,3.18-.357l1.441-.217,1.016,0.943c0.615,0.549,1.471,1.347,2.338,2.017,1.727,1.358,3.629,2.665,3.629,2.665A9.623,9.623,0,0,1,90.966,139.449ZM85.578,126.06l-1.3.2a20.2,20.2,0,0,1-2.882.325l-4.221.21a19.539,19.539,0,0,1,.605-2.549,49.262,49.262,0,0,0,9.243-1.4c-0.305.757-.623,1.46-0.881,2.035ZM66.056,140.5a9.309,9.309,0,0,1-3.705.175,8.1,8.1,0,0,1-3.317-1.223,9.638,9.638,0,0,1-2.453-2.475s1.9-1.307,3.629-2.665c0.867-.67,1.723-1.468,2.338-2.017l1.016-.943L65,131.566a23.616,23.616,0,0,0,3.18.357l4.652,0.226A10.872,10.872,0,0,1,69.25,138.7,9.532,9.532,0,0,1,66.056,140.5Zm-0.329-14.241-1.3-.2-0.56-1.182c-0.258-.575-0.576-1.278-0.881-2.035a49.263,49.263,0,0,0,9.243,1.4,19.523,19.523,0,0,1,.605,2.549l-4.221-.21A20.2,20.2,0,0,1,65.727,126.256ZM52.6,135.588a9.355,9.355,0,0,1-3.538.813,7.312,7.312,0,0,1-3.649-.737,8.43,8.43,0,0,1-4.586-5.088,39.913,39.913,0,0,0,4.224-1.658c2.082-.925,4-1.934,4-1.934-0.106.248,8.7,3.352,8.759,3.135A10.854,10.854,0,0,1,52.6,135.588Zm-7.172-16.615A22.376,22.376,0,0,1,43,117.4l-2.327-1.731c-0.64-.467-1.046-0.8-1.046-0.8s0.209-2.158.551-4.193c0.035-.214.071-0.426,0.108-0.636a49.528,49.528,0,0,0,7.3,5.97,18.854,18.854,0,0,1-1.022,3.652Zm-4.5-92.762-0.1,1.378a46.224,46.224,0,0,0-3.756,2.746c-0.936.694-1.8,1.477-2.445,2.061l-1.084.969a11.135,11.135,0,0,1-1.927-7.289A8.574,8.574,0,0,1,42.057,18.7s-0.471,2.282-.781,4.483C41.113,24.279,40.986,25.367,40.929,26.211ZM26.84,99.131l-1.262-2.607c-0.226-.475-0.47-0.944-0.668-1.395l-0.464-1.267-0.454-1.235s0.562-.8,1.324-1.808c1.047,0.243,2.2.526,3.255,0.793a48.769,48.769,0,0,0,2.222,5.267,19.448,19.448,0,0,1-3.325,3.408A7.111,7.111,0,0,1,26.84,99.131ZM24.756,43.858l-0.795,1.217A11.136,11.136,0,0,1,20.2,38.542,8.552,8.552,0,0,1,28.335,28.7s0.144,2.325.421,4.528c0.127,1.1.3,2.187,0.461,3.016L29.484,37.6s-1.556,1.732-2.908,3.628C25.853,42.143,25.234,43.128,24.756,43.858Zm-3.6,6.37A46.372,46.372,0,0,0,19.3,54.492c-0.457,1.07-.8,2.182-1.064,3.014l-0.442,1.384a11.158,11.158,0,0,1-5.362-5.319,8.553,8.553,0,0,1,5.279-11.634s0.747,2.207,1.59,4.262c0.409,1.027.861,2.035,1.237,2.792ZM16.445,64.6s-0.1.572-.25,1.431c-0.179.855-.285,2.012-0.4,3.168a30.208,30.208,0,0,0-.237,3.184c-0.029.871-.048,1.451-0.048,1.451a11.143,11.143,0,0,1-6.578-3.72,8.535,8.535,0,0,1,2-12.609s1.306,1.934,2.667,3.7C14.919,62.97,16.445,64.6,16.445,64.6ZM9.6,75.216c0.678,0.549,1.583,1.259,2.489,1.933,1.812,1.36,3.62,2.542,3.62,2.542-0.259.027,1.31,9.2,1.522,9.154a11,11,0,0,1-7.336-1.881A8.5,8.5,0,0,1,8.524,74.287Zm11.328-2.591a26.087,26.087,0,0,1,.215-2.887c0.108-1.048.2-2.1,0.366-2.871,0.135-.778.226-1.3,0.226-1.3a41.617,41.617,0,0,1,3.884-1.576c0.487-.175.97-0.339,1.423-0.487a49.273,49.273,0,0,0-1.3,9.057,18.137,18.137,0,0,1-4.859,1.377S20.9,73.414,20.923,72.625Zm0.136,6.631s1.675-1.358,3.356-2.537c0.24-.17.466-0.322,0.7-0.482l-3.83,5.3A9.81,9.81,0,0,1,21.058,79.256ZM10.616,91.1s2.065,1.023,4.089,1.87c2.126,0.832,4.235,1.481,4.235,1.481l0.5,1.364,0.517,1.4c0.218,0.5.484,1.017,0.733,1.542l1.4,2.877a8.549,8.549,0,0,0,.694,1.275,10.75,10.75,0,0,1-7.517.087,9.6,9.6,0,0,1-3.115-1.923,8.446,8.446,0,0,1-1.971-3.14,8.643,8.643,0,0,1-.55-3.486A9.645,9.645,0,0,1,10.616,91.1Zm10.9,16.406c1.113,0.133,2.175.255,3.015,0.3l1.4,0.056s1.38,1.874,2.812,3.7L31.877,115a11.082,11.082,0,0,1-7.237,2.051,8.46,8.46,0,0,1-6.241-3.54,7.162,7.162,0,0,1-1.394-3.249,9.356,9.356,0,0,1,.011-3.447S19.308,107.242,21.514,107.508Zm11.353,0.628-2.547-3.359,0.443-1.216c0.274-.725.723-1.721,1.157-2.664,0.163-.353.328-0.7,0.49-1.028a49.462,49.462,0,0,0,5.477,7.6,18.9,18.9,0,0,1-2.174,3.781Zm3.327,10.848s0.447,0.371,1.152.887l2.568,1.911a26.141,26.141,0,0,0,2.681,1.742l1.246,0.753a11.3,11.3,0,0,1-6.487,3.924,9.1,9.1,0,0,1-6.959-1.79,9.174,9.174,0,0,1-3.085-6.106s2.338-.207,4.554-0.544S36.194,118.984,36.194,118.984Zm69.965,5.293,1.246-.753a26.035,26.035,0,0,0,2.682-1.742c0.933-.695,1.867-1.389,2.568-1.91s1.151-.888,1.151-0.888,2.1,0.45,4.33.777c1.582,0.241,3.211.413,4.023,0.493l0.472,0.384a8.438,8.438,0,0,1-9.984,7.563A11.306,11.306,0,0,1,106.159,124.277Zm19.427-47.559c1.68,1.179,3.356,2.537,3.356,2.537a54.14,54.14,0,0,1-1.381,8.294A17.742,17.742,0,0,1,123.309,85a49.558,49.558,0,0,0,1-9.166C124.712,76.109,125.147,76.407,125.586,76.718Zm-1.2-12.725a41.631,41.631,0,0,1,3.884,1.576s0.09,0.519.227,1.3c0.166,0.774.257,1.823,0.365,2.871a26.07,26.07,0,0,1,.215,2.887c0.026,0.79.044,1.316,0.044,1.316a18.149,18.149,0,0,1-4.859-1.377,49.273,49.273,0,0,0-1.3-9.057C123.417,63.655,123.9,63.819,124.387,63.993Zm10.348,39a10.751,10.751,0,0,1-7.517-.087,8.556,8.556,0,0,0,.694-1.274l1.395-2.878c0.249-.525.515-1.043,0.733-1.542,0.189-.511.366-0.988,0.518-1.4l0.5-1.364s2.108-.649,4.234-1.481c2.024-.846,4.089-1.87,4.089-1.87a9.633,9.633,0,0,1,.987,3.343,8.637,8.637,0,0,1-.551,3.486,8.44,8.44,0,0,1-1.971,3.14A9.586,9.586,0,0,1,134.735,103Zm-1.96-14.151c0.212,0.049,1.781-9.127,1.522-9.154,0,0,1.808-1.181,3.62-2.542,0.905-.674,1.81-1.384,2.488-1.933l1.071-.929a8.5,8.5,0,0,1-1.365,12.676A11,11,0,0,1,132.775,88.844Z"/>
      <path id="Shape_11_copy_4" data-name="Shape 11 copy 4" class="cls-3" d="M70.764,117.484a106.932,106.932,0,0,0-38.354,7.03c4.224,6.8,9.293,19.918,9.293,19.918,6.589-2.343,29.061-3.28,29.061-3.28h9.293s22.472,0.937,29.061,3.28c0,0,5.069-13.122,9.293-19.918a106.931,106.931,0,0,0-38.354-7.03H70.764Z"/>
    </g>
    <g id="mortm">
      <path id="Shape_10_copy_3" data-name="Shape 10 copy 3" class="cls-4" d="M126.624,123.468a12.319,12.319,0,0,0-7.048-1.736L105.1,98.222h0L90.361,74.554v17.12a0.338,0.338,0,0,1,.067.2,1.392,1.392,0,0,1-.731,1.317v4.056a10.548,10.548,0,0,1,3.836,2.318,9.514,9.514,0,0,1,.948,2.634s1.9,3.635-.632,3.845-1.475-2.476-1.422-2.844,0.474-2.423.158-3-2.658-1.159-4.081-1.58-1.212-1-1.212-1v-4.53c-0.821,0-.618-1.453-0.609-1.516V74.5L56.347,117.628H50.363c0.631-.794,1.251-1.615,1.85-2.466L84.3,69.541a2.4,2.4,0,0,1,2.383-.974V54.416l-5.258,9.108a1.9,1.9,0,0,1-2.581.692,1.862,1.862,0,0,1-.6-0.563,2.664,2.664,0,0,1-.566-0.282l-0.9-.6L70.836,71.62a2.014,2.014,0,0,1-2.786.547l-0.188-.126a2,2,0,0,1-.873-1.813c-0.049-.014-0.1-0.022-0.146-0.037L56.278,85.925c0.728,1.252.915,2.454,0.372,3.293l0.011,0.007-3.331,4.96c2.268,2,4.122,3.994,4.548,5.176,0.919,2.554-1.226,8.887-1.226,8.887-3.984-.2-11.032,3.065-11.032,3.065-6.742-9.7-16.344-5.414-16.344-5.414l-0.919-3.371c-2.043-1.634-3.882-7.253-3.882-7.253l-2.094-.5-0.46-.11s4.188-6.64,7.15-8.172c2.3-1.19,8.354-.59,12.86.694l3.225-4.8a1.923,1.923,0,0,1,.278-0.657c0.591-.88,1.88-1.146,3.423-0.885L59.934,64.348a2.669,2.669,0,0,1,.032-2.154l-0.074-.049,7.659-11.406H67.274a2.4,2.4,0,1,1,0-4.8H72.3l2.743-4.084V37.562a2.043,2.043,0,0,1,2.043-2.043h1.642L85.5,25.428a1.975,1.975,0,0,1,.132-0.294c1.014-1.511,3.9-1.352,6.436.353s3.777,4.313,2.763,5.824c-0.014.022-.038,0.035-0.053,0.056l0.011,0.007-6.58,9.8L93.2,45.938h12.284a2.4,2.4,0,0,1,0,4.8H90.361v18.43a2.407,2.407,0,0,1,2.9.966L116.778,107.9c4.658,7.482,7.088,8.721,9.437,9.13s3.677,3.371,3.677,3.371C127.339,120.506,126.624,123.468,126.624,123.468Z"/>
      <path id="Shape_10_copy_2" data-name="Shape 10 copy 2" class="cls-2" d="M126.624,115.742a12.325,12.325,0,0,0-7.048-1.737L105.1,90.5h0L90.361,66.828v17.12a0.339,0.339,0,0,1,.067.2,1.392,1.392,0,0,1-.731,1.317v4.056a10.548,10.548,0,0,1,3.836,2.318,9.51,9.51,0,0,1,.948,2.634s1.9,3.635-.632,3.845-1.475-2.476-1.422-2.844,0.474-2.423.158-3-2.658-1.159-4.081-1.58-1.212-1-1.212-1v-4.53c-0.821,0-.618-1.453-0.609-1.516V66.771L55.375,111.283s-2.281,4.053-4.3,8.133h-11c3.457-1.994,8.223-6.421,12.134-11.982L84.3,61.814a2.4,2.4,0,0,1,2.383-.974V46.689L81.426,55.8a1.9,1.9,0,0,1-2.581.692,1.864,1.864,0,0,1-.6-0.563,2.66,2.66,0,0,1-.566-0.282l-0.9-.6-5.944,8.851a2.013,2.013,0,0,1-2.786.547l-0.188-.126A2,2,0,0,1,66.99,62.5c-0.049-.014-0.1-0.022-0.146-0.037L56.278,78.2c0.728,1.252.915,2.454,0.372,3.293L56.662,81.5l-3.331,4.96c2.268,2,4.122,3.994,4.548,5.176,0.919,2.554-1.226,8.887-1.226,8.887-3.984-.205-11.032,3.064-11.032,3.064-6.742-9.7-16.344-5.414-16.344-5.414L28.358,94.8c-2.043-1.634-3.882-7.252-3.882-7.252l-2.094-.5-0.46-.11s4.188-6.64,7.15-8.172c2.3-1.19,8.354-.59,12.86.694l3.225-4.8A1.922,1.922,0,0,1,45.436,74c0.591-.88,1.88-1.146,3.423-0.885L59.934,56.622a2.669,2.669,0,0,1,.032-2.154l-0.074-.049,7.659-11.406H67.274a2.4,2.4,0,0,1,0-4.8H72.3l2.743-4.084V29.836a2.043,2.043,0,0,1,2.043-2.043h1.642L85.5,17.7a1.976,1.976,0,0,1,.132-0.294c1.014-1.511,3.9-1.352,6.436.353s3.777,4.313,2.763,5.824c-0.014.022-.038,0.035-0.053,0.056l0.011,0.007-6.58,9.8L93.2,38.212h12.284a2.4,2.4,0,0,1,0,4.8H90.361v18.43a2.407,2.407,0,0,1,2.9.966l23.512,37.768c4.658,7.482,7.088,8.721,9.437,9.129s3.677,3.371,3.677,3.371C127.339,112.779,126.624,115.742,126.624,115.742Z"/>
      <path id="_114" data-name="114" class="cls-5" d="M62.248,121.56l-5.525,3.3,1.971,2.958,3.187-1.949v11.279h4.4V121.56H62.248Zm11.738,0-5.525,3.3,1.971,2.958,3.187-1.949v11.279h4.4V121.56H73.986Zm18.134,9.17v-3.393h-3.9l-0.527,3.393H85.769l3.508-8.276L85.4,121.079,81.115,131.12v2.957h6.534l0.023,3.072h4.448v-3.072h1.6V130.73h-1.6Z"/>
    </g>
  </g>
</svg>
