<svg xmlns="http://www.w3.org/2000/svg" width="150" height="150" viewBox="0 0 150 150">
  <defs>
    <style>
      .cls-1 {
        fill: #b83027;
      }

      .cls-1, .cls-2, .cls-3, .cls-4, .cls-5 {
        fill-rule: evenodd;
      }

      .cls-2 {
        fill: #fbbd40;
      }

      .cls-3 {
        fill: #231f20;
      }

      .cls-4 {
        fill: #754c29;
      }

      .cls-5 {
        fill: #f7f7f7;
      }
    </style>
  </defs>
  <g id="allies_stalingrad_mgun_1_icon">
    <g id="back_copy_4" data-name="back copy 4">
      <path id="Shape_694_copy" data-name="Shape 694 copy" class="cls-1" d="M141.93,75A66.93,66.93,0,1,1,75,8.07,66.93,66.93,0,0,1,141.93,75Z"/>
      <path id="Shape_694_copy_2" data-name="Shape 694 copy 2" class="cls-2" d="M134.494,73.833s-0.02-.58-0.049-1.451a30.284,30.284,0,0,0-.236-3.184c-0.119-1.156-.225-2.313-0.4-3.168l-0.25-1.431s1.527-1.629,2.848-3.4c1.36-1.762,2.666-3.7,2.666-3.7a8.534,8.534,0,0,1,2,12.609A11.14,11.14,0,0,1,134.494,73.833Zm-2.288-14.943-0.443-1.384c-0.263-.832-0.606-1.943-1.063-3.014a46.281,46.281,0,0,0-1.853-4.263l0.614-1.238c0.376-.758.828-1.766,1.237-2.793,0.843-2.055,1.59-4.262,1.59-4.262a8.552,8.552,0,0,1,5.279,11.634A11.157,11.157,0,0,1,132.206,58.889Zm-6.167-13.814s-0.317-.487-0.8-1.217-1.1-1.715-1.82-2.627c-1.352-1.9-2.908-3.628-2.908-3.628s0.107-.542.267-1.355c0.165-.828.334-1.917,0.461-3.016,0.277-2.2.421-4.528,0.421-4.528a8.551,8.551,0,0,1,8.138,9.838A11.134,11.134,0,0,1,126.039,45.075ZM114.287,111.25a18.922,18.922,0,0,1-2.173-3.781,49.482,49.482,0,0,0,5.477-7.6c0.162,0.332.327,0.675,0.49,1.028,0.434,0.943.882,1.939,1.156,2.664s0.443,1.216.443,1.216l-2.547,3.36ZM115.369,32.4c-0.648-.584-1.509-1.367-2.445-2.061a46.134,46.134,0,0,0-3.756-2.746s-0.038-.552-0.1-1.378c-0.057-.844-0.183-1.933-0.347-3.03-0.31-2.2-.781-4.483-0.781-4.483a8.574,8.574,0,0,1,10.438,7.379,11.141,11.141,0,0,1-1.927,7.289Zm-5.654,77.636q0.055,0.315.108,0.636c0.341,2.035.552,4.193,0.552,4.193s-0.407.335-1.046,0.8L107,117.4a22.424,22.424,0,0,1-2.431,1.578l-1.129.682A18.884,18.884,0,0,1,102.419,116,49.6,49.6,0,0,0,109.715,110.033Zm-0.544,20.543a8.43,8.43,0,0,1-4.587,5.088,7.309,7.309,0,0,1-3.649.737,9.357,9.357,0,0,1-3.537-.813,10.852,10.852,0,0,1-5.213-5.469c0.063,0.217,8.865-2.887,8.76-3.135,0,0,1.921,1.009,4,1.934A39.875,39.875,0,0,0,109.171,130.576Zm-18.2,8.873a8.1,8.1,0,0,1-3.317,1.223,9.311,9.311,0,0,1-3.706-.175,9.532,9.532,0,0,1-3.194-1.8,10.876,10.876,0,0,1-3.586-6.552l4.652-.226a23.608,23.608,0,0,0,3.18-.357l1.441-.217,1.016,0.943c0.615,0.549,1.471,1.347,2.338,2.017,1.727,1.358,3.629,2.665,3.629,2.665A9.623,9.623,0,0,1,90.966,139.449ZM85.578,126.06l-1.3.2a20.2,20.2,0,0,1-2.882.325l-4.221.21a19.539,19.539,0,0,1,.605-2.549,49.262,49.262,0,0,0,9.243-1.4c-0.305.757-.623,1.46-0.881,2.035ZM66.056,140.5a9.309,9.309,0,0,1-3.705.175,8.1,8.1,0,0,1-3.317-1.223,9.638,9.638,0,0,1-2.453-2.475s1.9-1.307,3.629-2.665c0.867-.67,1.723-1.468,2.338-2.017l1.016-.943L65,131.566a23.616,23.616,0,0,0,3.18.357l4.652,0.226A10.872,10.872,0,0,1,69.25,138.7,9.532,9.532,0,0,1,66.056,140.5Zm-0.329-14.241-1.3-.2-0.56-1.182c-0.258-.575-0.576-1.278-0.881-2.035a49.263,49.263,0,0,0,9.243,1.4,19.523,19.523,0,0,1,.605,2.549l-4.221-.21A20.2,20.2,0,0,1,65.727,126.256ZM52.6,135.588a9.355,9.355,0,0,1-3.538.813,7.312,7.312,0,0,1-3.649-.737,8.43,8.43,0,0,1-4.586-5.088,39.913,39.913,0,0,0,4.224-1.658c2.082-.925,4-1.934,4-1.934-0.106.248,8.7,3.352,8.759,3.135A10.85,10.85,0,0,1,52.6,135.588Zm-7.172-16.615A22.376,22.376,0,0,1,43,117.4l-2.327-1.731c-0.64-.467-1.046-0.8-1.046-0.8s0.209-2.158.551-4.193c0.035-.214.071-0.426,0.108-0.636a49.528,49.528,0,0,0,7.3,5.97,18.854,18.854,0,0,1-1.022,3.652Zm-4.5-92.762-0.1,1.378a46.224,46.224,0,0,0-3.756,2.746c-0.936.694-1.8,1.477-2.445,2.061l-0.769.687L32.87,32.2a10.839,10.839,0,0,1-1.251-6.124A8.574,8.574,0,0,1,42.057,18.7s-0.471,2.282-.781,4.483C41.113,24.279,40.986,25.367,40.929,26.211ZM30.157,97.619a18.98,18.98,0,0,1-2.689,2.668,7.111,7.111,0,0,1-.628-1.156l-1.262-2.607c-0.226-.475-0.47-0.944-0.668-1.395l-0.464-1.267-0.454-1.235s1.206-1.731,2.5-3.3c0.334-.39.67-0.768,0.988-1.12a48.964,48.964,0,0,0,3.3,8.644ZM20.878,73.941s0.018-.526.044-1.316a26.087,26.087,0,0,1,.215-2.887c0.108-1.048.2-2.1,0.366-2.871,0.135-.778.226-1.3,0.226-1.3a41.617,41.617,0,0,1,3.884-1.576c0.487-.175.97-0.339,1.423-0.487a49.273,49.273,0,0,0-1.3,9.057A18.137,18.137,0,0,1,20.878,73.941ZM18.237,57.506l-0.442,1.384a11.158,11.158,0,0,1-5.362-5.319,8.553,8.553,0,0,1,5.279-11.634s0.747,2.207,1.59,4.262c0.409,1.027.861,2.035,1.237,2.792l0.613,1.238A46.372,46.372,0,0,0,19.3,54.492C18.843,55.562,18.5,56.674,18.237,57.506ZM16.445,64.6s-0.1.572-.25,1.431c-0.179.855-.285,2.012-0.4,3.168a30.208,30.208,0,0,0-.237,3.184c-0.029.871-.048,1.451-0.048,1.451a11.143,11.143,0,0,1-6.578-3.72,8.535,8.535,0,0,1,2-12.609s1.306,1.934,2.667,3.7C14.919,62.97,16.445,64.6,16.445,64.6ZM9.6,75.216c0.678,0.549,1.583,1.259,2.489,1.933,1.812,1.36,3.62,2.542,3.62,2.542-0.259.027,1.31,9.2,1.522,9.154a11,11,0,0,1-7.336-1.881A8.5,8.5,0,0,1,8.524,74.287Zm11.463,4.04s1.675-1.358,3.356-2.537c0.439-.312.874-0.609,1.282-0.884A49.51,49.51,0,0,0,26.691,85a17.743,17.743,0,0,1-4.252,2.549A54.128,54.128,0,0,1,21.058,79.256ZM10.616,91.1s2.065,1.023,4.089,1.87c2.126,0.832,4.235,1.481,4.235,1.481l0.5,1.364,0.517,1.4c0.218,0.5.484,1.017,0.733,1.542l1.4,2.877a8.549,8.549,0,0,0,.694,1.275,10.75,10.75,0,0,1-7.517.087,9.6,9.6,0,0,1-3.115-1.923,8.446,8.446,0,0,1-1.971-3.14,8.643,8.643,0,0,1-.55-3.486A9.645,9.645,0,0,1,10.616,91.1Zm10.9,16.406,0.542,0.061-4.19,5.147a7.572,7.572,0,0,1-.86-2.451,9.356,9.356,0,0,1,.011-3.447S19.308,107.242,21.514,107.508Zm3.236,8.242,3.668-4.6c0.107,0.138.214,0.276,0.322,0.414L31.877,115a11.076,11.076,0,0,1-7.237,2.051,7.8,7.8,0,0,1-2.934-.779Zm8.117-7.613-1-1.314,2.781-3.485a49.461,49.461,0,0,0,3.235,4.131,18.9,18.9,0,0,1-2.174,3.781Zm3.327,10.847s0.447,0.371,1.152.887l2.568,1.911a26.165,26.165,0,0,0,2.681,1.743l1.246,0.752a11.3,11.3,0,0,1-6.487,3.924,9.091,9.091,0,0,1-6.959-1.79,9.174,9.174,0,0,1-3.085-6.106s2.338-.207,4.554-0.544S36.194,118.984,36.194,118.984Zm69.965,5.293,1.246-.752a26.059,26.059,0,0,0,2.682-1.743c0.933-.695,1.867-1.389,2.568-1.91s1.151-.888,1.151-0.888,2.1,0.45,4.33.777,4.554,0.544,4.554.544a8.492,8.492,0,0,1-10.043,7.9A11.306,11.306,0,0,1,106.159,124.277Zm19.427-47.559c1.68,1.179,3.356,2.537,3.356,2.537a54.14,54.14,0,0,1-1.381,8.294A17.742,17.742,0,0,1,123.309,85a49.558,49.558,0,0,0,1-9.166C124.712,76.109,125.147,76.407,125.586,76.718Zm-1.2-12.725a41.631,41.631,0,0,1,3.884,1.576s0.09,0.519.227,1.3c0.166,0.774.257,1.823,0.365,2.871a26.07,26.07,0,0,1,.215,2.887c0.026,0.79.044,1.316,0.044,1.316a18.149,18.149,0,0,1-4.859-1.377,49.273,49.273,0,0,0-1.3-9.057C123.417,63.655,123.9,63.819,124.387,63.993Zm-3.127,47.574c1.433-1.83,2.813-3.7,2.813-3.7l1.4-.055c0.5-.027,1.094-0.084,1.717-0.152l4.55,5.656c-0.048.066-.086,0.137-0.137,0.2a8.46,8.46,0,0,1-6.24,3.54A11.079,11.079,0,0,1,118.123,115ZM134.3,79.69s1.808-1.181,3.62-2.542c0.905-.674,1.81-1.384,2.488-1.933,0.642-.558,1.071-0.929,1.071-0.929a8.5,8.5,0,0,1-1.365,12.676,11,11,0,0,1-7.336,1.881C132.987,88.893,134.556,79.717,134.3,79.69ZM139.384,91.1a9.654,9.654,0,0,1,.987,3.343,7.747,7.747,0,0,1-.1,1.776l-6.176-2.8c0.39-.143.791-0.292,1.2-0.451C137.319,92.125,139.384,91.1,139.384,91.1Z"/>
    </g>
    <g id="mgun">
      <path class="cls-3" d="M123.893,100.148a5.118,5.118,0,0,0-1.909.785,2.321,2.321,0,0,1-1.01-1.684c0-1.011-.225-3.817-0.225-3.817a30.988,30.988,0,0,0-4.183-3.22c-0.528-.308-1.28-0.743-2.2-1.275l0.071-.018a34.042,34.042,0,0,0-3.173-1.572l1.2-3.367a8.736,8.736,0,0,0,1.291-.082l-0.065-.025a14.242,14.242,0,0,0,2.667-.7,6.09,6.09,0,0,0,2.227-1.68,1.144,1.144,0,0,0,0-.488l0.026-3.177s-1.909-4.716-18.415-7.747C86.265,69.518,79.374,69.839,77.566,70L59.1,59.723l0.451-2.58a2.539,2.539,0,0,1,.225-1.46,6.168,6.168,0,0,0,.561-2.021C60,52.091,57.646,51.53,57.646,51.53l-0.561.786a3.709,3.709,0,0,0-2.47-.561c-1.011.337-.449,2.246-0.337,2.919a1.53,1.53,0,0,1-.674,1.235l-0.5,2.006a5.638,5.638,0,0,0-1.32.659L38.293,51.245a2.741,2.741,0,0,0-1.405-2.022l-1.168-.634-14.2-9.88c-1.579-1.008-3.9-.194-5.185,1.818s-1.047,4.461.532,5.469a2.692,2.692,0,0,0,.368.193l-0.015.026L33.1,53.42l1.167,0.634a2.738,2.738,0,0,0,2.231.172L49.51,61.3c-1.2,2.586-.6,5.49,1.49,6.7a3.915,3.915,0,0,0,.579.267l5.8,3.153a6.122,6.122,0,0,0,.77,2.9,1.739,1.739,0,0,0-.22.218L19.418,121.245a1.72,1.72,0,0,0-.35.737l-2.854,6.011,1.011,4.379,5.951-.561,0.088-9.764,37.352-45.3a1.717,1.717,0,0,0,.144-0.216,4.393,4.393,0,0,0,.423.122,4.525,4.525,0,0,0,2.89-.327l17.42,46.734,3.744,0.326L68.143,77.26l39.8,21.682a3.776,3.776,0,0,1,1.127,2.441c0.224,2.021,0,3.48.561,4.379s3.256,2.021,4.154,1.684c0.786-.3,1.659-1.364,2.24-3.582,0.666,1.384,2.132,4.483,2.476,5.6,0.449,1.46,1.011,3.144,2.358,3.368a1.6,1.6,0,0,0,1.8-.673,4.638,4.638,0,0,1,2.582,3.368c0.674,2.695.449,7.972,1.572,9.207s6.625,1.348,6.625,1.348,5.726-16.843,5.838-18.527S124.342,100.26,123.893,100.148Z"/>
      <path id="Shape_11_copy_4" data-name="Shape 11 copy 4" class="cls-4" d="M70.764,117.484a106.932,106.932,0,0,0-38.354,7.03c4.224,6.8,9.293,19.918,9.293,19.918,6.589-2.343,29.061-3.28,29.061-3.28h9.293s22.472,0.937,29.061,3.28c0,0,5.069-13.122,9.293-19.918a106.931,106.931,0,0,0-38.354-7.03H70.764Z"/>
      <path id="_1328" data-name="1328" class="cls-5" d="M54.751,121.56l-5.525,3.3,1.971,2.958,3.187-1.949v11.279h4.4V121.56H54.751Zm12.334-.367a7.908,7.908,0,0,0-5.731,2.247l2.224,2.338a4.16,4.16,0,0,1,2.934-1.306,2.012,2.012,0,0,1,1.3.378,1.29,1.29,0,0,1,.47,1.066,1.465,1.465,0,0,1-.481,1.158,2.091,2.091,0,0,1-1.421.424h-0.94l-0.5,3.026h1.376a2.57,2.57,0,0,1,1.685.458,1.8,1.8,0,0,1,.539,1.445,1.615,1.615,0,0,1-.562,1.329,2.227,2.227,0,0,1-1.456.459,3.606,3.606,0,0,1-1.57-.333,5.835,5.835,0,0,1-1.5-1.111l-2.361,2.315a7.023,7.023,0,0,0,5.754,2.522,8.268,8.268,0,0,0,3.45-.654,4.971,4.971,0,0,0,2.155-1.742,4.244,4.244,0,0,0,.722-2.4,3.616,3.616,0,0,0-1.009-2.762,4.4,4.4,0,0,0-2.591-1.135,4.54,4.54,0,0,0,2.293-1.421,3.633,3.633,0,0,0,.779-2.361,3.412,3.412,0,0,0-.642-2.041,4.173,4.173,0,0,0-1.891-1.4,8.059,8.059,0,0,0-3.015-.5h0Zm13.045,0a6.787,6.787,0,0,0-3.278.78,7.326,7.326,0,0,0-2.43,2.109l2.591,2.063a5.166,5.166,0,0,1,1.249-1.18,2.52,2.52,0,0,1,1.364-.379,1.619,1.619,0,0,1,1.215.447,1.684,1.684,0,0,1,.436,1.227,3.343,3.343,0,0,1-.5,1.673,13.231,13.231,0,0,1-1.777,2.224q-1.272,1.353-3.932,3.874v3.118H85.769l0.459-3.393H80.2a39.4,39.4,0,0,0,3.634-3.438,9.229,9.229,0,0,0,1.651-2.385,5.56,5.56,0,0,0,.424-2.177,4.217,4.217,0,0,0-.653-2.282,4.516,4.516,0,0,0-1.96-1.662,7.355,7.355,0,0,0-3.164-.619h0ZM98.1,128.782a4.993,4.993,0,0,0,1.811-1.628,3.521,3.521,0,0,0,.6-1.9,3.429,3.429,0,0,0-1.571-2.969,7.311,7.311,0,0,0-4.23-1.089,7.848,7.848,0,0,0-3.072.562,4.73,4.73,0,0,0-2.04,1.536,3.626,3.626,0,0,0-.711,2.189,4.3,4.3,0,0,0,2.178,3.737,4.978,4.978,0,0,0-2.052,1.525,3.591,3.591,0,0,0-.722,2.235,3.921,3.921,0,0,0,.745,2.315,5.092,5.092,0,0,0,2.166,1.685,8.312,8.312,0,0,0,3.393.631,8.777,8.777,0,0,0,3.531-.642,5.156,5.156,0,0,0,2.224-1.719,3.993,3.993,0,0,0,.757-2.339,3.888,3.888,0,0,0-.723-2.3,6.191,6.191,0,0,0-2.281-1.822h0Zm-3.37-4.631a1.386,1.386,0,0,1,1.043.367,1.355,1.355,0,0,1,.355.985,2.942,2.942,0,0,1-.206,1.124,2.514,2.514,0,0,1-.825.985l-0.55-.229a2.477,2.477,0,0,1-.986-0.791,1.834,1.834,0,0,1-.3-1.043,1.34,1.34,0,0,1,.39-1.043,1.539,1.539,0,0,1,1.077-.355h0Zm0.023,10.293a2.07,2.07,0,0,1-1.433-.481,1.61,1.61,0,0,1-.539-1.261,2.775,2.775,0,0,1,.287-1.261,2.521,2.521,0,0,1,.86-0.963L94.8,130.8a4.179,4.179,0,0,1,1.4.848,1.664,1.664,0,0,1,.413,1.192,1.538,1.538,0,0,1-.47,1.147,1.908,1.908,0,0,1-1.387.458h0Z"/>
      <path class="cls-2" d="M123.893,92.29a5.131,5.131,0,0,0-1.909.786,2.323,2.323,0,0,1-1.01-1.684c0-1.011-.225-3.817-0.225-3.817a30.983,30.983,0,0,0-4.183-3.22c-0.528-.308-1.28-0.743-2.2-1.275l0.071-.018a34.067,34.067,0,0,0-3.173-1.572l1.2-3.367a8.736,8.736,0,0,0,1.291-.082l-0.065-.025a14.25,14.25,0,0,0,2.667-.7,6.092,6.092,0,0,0,2.227-1.68,1.143,1.143,0,0,0,0-.487l0.026-3.177s-1.909-4.716-18.415-7.747c-13.936-2.56-20.827-2.238-22.635-2.075L59.1,51.866l0.451-2.579a2.539,2.539,0,0,1,.225-1.46,6.168,6.168,0,0,0,.561-2.021c-0.337-1.572-2.695-2.133-2.695-2.133l-0.561.786a3.709,3.709,0,0,0-2.47-.561c-1.011.337-.449,2.245-0.337,2.919a1.53,1.53,0,0,1-.674,1.235l-0.5,2.006a5.642,5.642,0,0,0-1.32.659L38.293,43.388a2.741,2.741,0,0,0-1.405-2.022l-1.168-.634-14.2-9.88c-1.579-1.008-3.9-.194-5.185,1.818s-1.047,4.461.532,5.469a2.7,2.7,0,0,0,.368.193l-0.015.026,15.871,7.2L34.263,46.2a2.738,2.738,0,0,0,2.231.172L49.51,53.439c-1.2,2.586-.6,5.49,1.49,6.7a3.905,3.905,0,0,0,.579.267l5.8,3.153a6.122,6.122,0,0,0,.77,2.9,1.733,1.733,0,0,0-.22.218L19.418,113.388a1.72,1.72,0,0,0-.35.737l-2.854,6.011,1.011,4.379,5.951-.561,0.088-9.764,37.352-45.3a1.715,1.715,0,0,0,.144-0.215c0.138,0.046.278,0.089,0.423,0.121a4.525,4.525,0,0,0,2.89-.327L81.494,115.2l3.744,0.326L68.143,69.4l39.8,21.682a3.775,3.775,0,0,1,1.127,2.44c0.224,2.021,0,3.481.561,4.379s3.256,2.021,4.154,1.684c0.786-.295,1.659-1.363,2.24-3.582,0.666,1.384,2.132,4.483,2.476,5.6,0.449,1.459,1.011,3.144,2.358,3.368a1.6,1.6,0,0,0,1.8-.674,4.641,4.641,0,0,1,2.582,3.369c0.674,2.695.449,7.972,1.572,9.207s6.625,1.347,6.625,1.347,5.726-16.842,5.838-18.526S124.342,92.4,123.893,92.29Z"/>
    </g>
  </g>
</svg>
