<svg xmlns="http://www.w3.org/2000/svg" width="150" height="150" viewBox="0 0 150 150">
  <defs>
    <style>
      .cls-1 {
        fill: #b83027;
      }

      .cls-1, .cls-2, .cls-3, .cls-4, .cls-5 {
        fill-rule: evenodd;
      }

      .cls-2 {
        fill: #fbbd40;
      }

      .cls-3 {
        fill: #754c29;
      }

      .cls-4 {
        fill: #231f20;
      }

      .cls-5 {
        fill: #f7f7f7;
      }
    </style>
  </defs>
  <g id="allies_stalingrad_prem_assault_1_icon">
    <g id="back_copy_9" data-name="back copy 9">
      <path id="Shape_694_copy" data-name="Shape 694 copy" class="cls-1" d="M141.93,75A66.93,66.93,0,1,1,75,8.07,66.931,66.931,0,0,1,141.93,75Z"/>
      <path id="Shape_694_copy_2" data-name="Shape 694 copy 2" class="cls-2" d="M134.494,73.833s-0.02-.58-0.049-1.451a30.284,30.284,0,0,0-.236-3.184c-0.119-1.156-.225-2.313-0.4-3.168l-0.25-1.431s1.527-1.629,2.848-3.4c1.36-1.762,2.666-3.7,2.666-3.7a8.536,8.536,0,0,1,2,12.609A11.14,11.14,0,0,1,134.494,73.833Zm-2.288-14.943-0.443-1.384c-0.263-.832-0.606-1.943-1.063-3.014a46.281,46.281,0,0,0-1.853-4.263l0.614-1.238c0.376-.758.828-1.766,1.237-2.793,0.843-2.055,1.59-4.262,1.59-4.262a8.552,8.552,0,0,1,5.279,11.634A11.157,11.157,0,0,1,132.206,58.889Zm-6.167-13.814-0.8-1.217c-0.477-.73-1.1-1.715-1.82-2.627-1.353-1.9-2.908-3.628-2.908-3.628s0.107-.542.267-1.355c0.164-.828.334-1.917,0.461-3.016,0.277-2.2.421-4.528,0.421-4.528a8.551,8.551,0,0,1,8.138,9.838A11.134,11.134,0,0,1,126.039,45.075ZM123.51,89.329c1.293,1.568,2.5,3.3,2.5,3.3l-0.455,1.235L125.09,95.13c-0.2.451-.442,0.919-0.668,1.395l-1.262,2.607a7.132,7.132,0,0,1-.628,1.156,19.433,19.433,0,0,1-3.325-3.408,48.9,48.9,0,0,0,3.314-8.67C122.84,88.561,123.176,88.939,123.51,89.329ZM115.369,32.4c-0.436-.393-0.987-0.874-1.574-1.36,1.564-2.538,3.357-5.63,4.1-6.917a9.6,9.6,0,0,1,.487,1.957,11.147,11.147,0,0,1-1.927,7.289ZM112.5,22.25a39.534,39.534,0,0,0-3.544,2.712c-0.063-.565-0.14-1.169-0.232-1.781-0.31-2.2-.781-4.483-0.781-4.483a8.9,8.9,0,0,1,5.846.723A7.192,7.192,0,0,1,112.5,22.25Zm-3.329,108.326a8.43,8.43,0,0,1-4.587,5.088,7.309,7.309,0,0,1-3.649.737,9.357,9.357,0,0,1-3.537-.813,10.856,10.856,0,0,1-5.213-5.469c0.063,0.217,8.865-2.887,8.76-3.135,0,0,1.921,1.009,4,1.933A39.757,39.757,0,0,0,109.171,130.576Zm-18.2,8.873a8.1,8.1,0,0,1-3.317,1.223,9.311,9.311,0,0,1-3.706-.175,9.549,9.549,0,0,1-3.194-1.8,10.876,10.876,0,0,1-3.586-6.552l4.652-.226a23.608,23.608,0,0,0,3.18-.357l1.441-.217,1.016,0.943c0.615,0.549,1.471,1.347,2.338,2.017,1.727,1.358,3.629,2.665,3.629,2.665A9.623,9.623,0,0,1,90.966,139.449ZM85.578,126.06l-1.3.2a20.2,20.2,0,0,1-2.882.325l-4.221.21a19.523,19.523,0,0,1,.605-2.549,49.262,49.262,0,0,0,9.243-1.4c-0.305.757-.623,1.46-0.881,2.035ZM66.056,140.5a9.309,9.309,0,0,1-3.705.175,8.1,8.1,0,0,1-3.317-1.223,9.638,9.638,0,0,1-2.453-2.475s1.9-1.307,3.629-2.665c0.867-.67,1.723-1.468,2.338-2.017l1.016-.943L65,131.566a23.616,23.616,0,0,0,3.18.357l4.652,0.226A10.872,10.872,0,0,1,69.25,138.7,9.55,9.55,0,0,1,66.056,140.5Zm-0.329-14.241-1.3-.2-0.56-1.182c-0.258-.575-0.576-1.278-0.881-2.035a49.263,49.263,0,0,0,9.243,1.4,19.523,19.523,0,0,1,.605,2.549l-4.221-.21A20.2,20.2,0,0,1,65.727,126.256ZM52.6,135.588a9.355,9.355,0,0,1-3.538.813,7.312,7.312,0,0,1-3.649-.737,8.43,8.43,0,0,1-4.586-5.088,39.794,39.794,0,0,0,4.224-1.659c2.082-.924,4-1.933,4-1.933-0.106.248,8.7,3.352,8.759,3.135A10.854,10.854,0,0,1,52.6,135.588Zm-7.172-16.615A22.376,22.376,0,0,1,43,117.4c-0.846-.63-1.693-1.259-2.327-1.732s-1.046-.8-1.046-0.8,0.209-2.158.551-4.193c0.035-.214.071-0.426,0.108-0.636a49.528,49.528,0,0,0,7.3,5.97,18.854,18.854,0,0,1-1.022,3.652Zm-4.5-92.762-0.1,1.378a46.224,46.224,0,0,0-3.756,2.746c-0.936.694-1.8,1.477-2.445,2.061l-1.084.969a11.135,11.135,0,0,1-1.927-7.289A8.574,8.574,0,0,1,42.057,18.7s-0.471,2.282-.781,4.483C41.113,24.279,40.986,25.367,40.929,26.211Zm-3.042,81.258a18.9,18.9,0,0,1-2.174,3.781l-2.846-3.114-2.257-2.977,3.852-2.1A49.6,49.6,0,0,0,37.886,107.469ZM24.756,43.858l-0.795,1.217A11.136,11.136,0,0,1,20.2,38.542,8.552,8.552,0,0,1,28.335,28.7s0.144,2.325.421,4.528c0.127,1.1.3,2.187,0.461,3.016L29.484,37.6s-1.556,1.732-2.908,3.628C25.853,42.143,25.234,43.128,24.756,43.858Zm-3.6,6.37A46.372,46.372,0,0,0,19.3,54.492c-0.457,1.07-.8,2.182-1.064,3.014l-0.442,1.384a11.158,11.158,0,0,1-5.362-5.319,8.553,8.553,0,0,1,5.279-11.634s0.747,2.207,1.59,4.262c0.409,1.027.861,2.035,1.237,2.792ZM16.445,64.6s-0.1.572-.25,1.431c-0.179.855-.285,2.012-0.4,3.168a30.208,30.208,0,0,0-.237,3.184c-0.029.871-.048,1.451-0.048,1.451a11.143,11.143,0,0,1-6.578-3.72,8.535,8.535,0,0,1,2-12.609s1.306,1.934,2.667,3.7C14.919,62.97,16.445,64.6,16.445,64.6ZM9.595,75.216c0.678,0.549,1.583,1.259,2.489,1.933,1.812,1.36,3.62,2.542,3.62,2.542-0.259.027,1.31,9.2,1.522,9.154a11,11,0,0,1-7.336-1.881A8.5,8.5,0,0,1,8.524,74.287ZM10.616,91.1s2.065,1.023,4.089,1.87c2.126,0.832,4.235,1.481,4.235,1.481l0.5,1.364,0.517,1.4c0.2,0.464.448,0.946,0.681,1.434l-5.212,4.4c-0.054-.019-0.11-0.033-0.164-0.053a9.629,9.629,0,0,1-3.115-1.923,8.446,8.446,0,0,1-1.971-3.14,8.643,8.643,0,0,1-.55-3.486A9.645,9.645,0,0,1,10.616,91.1Zm18.048,0.771-3.778,3.191-0.439-1.2-0.454-1.235s1.206-1.731,2.5-3.3c0.334-.39.67-0.768,0.988-1.12C27.824,89.453,28.227,90.671,28.664,91.873ZM25.7,75.835A49.51,49.51,0,0,0,26.691,85a17.743,17.743,0,0,1-4.252,2.549,54.128,54.128,0,0,1-1.381-8.294s1.675-1.358,3.356-2.537C24.854,76.407,25.288,76.109,25.7,75.835Zm-4.774-3.21a26.087,26.087,0,0,1,.215-2.887c0.108-1.048.2-2.1,0.366-2.871,0.135-.778.226-1.3,0.226-1.3a41.617,41.617,0,0,1,3.884-1.576c0.487-.175.97-0.339,1.423-0.487a49.273,49.273,0,0,0-1.3,9.057,18.137,18.137,0,0,1-4.859,1.377S20.9,73.414,20.923,72.625Zm5,35.238s1.38,1.874,2.812,3.7L31.877,115a11.082,11.082,0,0,1-7.237,2.051,8.46,8.46,0,0,1-6.241-3.54,6.468,6.468,0,0,1-.774-1.283l8.04-4.379Zm10.267,11.121s0.447,0.371,1.152.887l2.568,1.911a26.141,26.141,0,0,0,2.681,1.742l1.246,0.753a11.3,11.3,0,0,1-6.487,3.924,9.1,9.1,0,0,1-6.959-1.79,9.174,9.174,0,0,1-3.085-6.106s2.338-.207,4.554-0.544S36.194,118.984,36.194,118.984Zm69.965,5.293,1.246-.753a26.035,26.035,0,0,0,2.682-1.742c0.933-.695,1.867-1.389,2.568-1.91s1.151-.888,1.151-0.888,2.1,0.45,4.33.777,4.554,0.544,4.554.544a8.492,8.492,0,0,1-10.043,7.9A11.306,11.306,0,0,1,106.159,124.277Zm8.128-13.027a18.922,18.922,0,0,1-2.173-3.781,49.549,49.549,0,0,0,5.477-7.6c0.162,0.332.327,0.675,0.489,1.028,0.435,0.943.883,1.939,1.157,2.664s0.443,1.216.443,1.216-1.273,1.68-2.547,3.359C115.711,109.693,114.287,111.25,114.287,111.25Zm-4.464-.581c0.341,2.035.552,4.193,0.552,4.193s-0.407.335-1.046,0.8L107,117.4a22.231,22.231,0,0,1-2.431,1.578l-1.128.682A18.884,18.884,0,0,1,102.419,116a49.6,49.6,0,0,0,7.3-5.97Q109.771,110.348,109.823,110.669Zm11.437,0.9c1.433-1.83,2.813-3.7,2.813-3.7l1.4-.056c0.841-.043,1.9-0.166,3.016-0.3,2.205-.266,4.5-0.691,4.5-0.691a9.359,9.359,0,0,1,.011,3.448,7.154,7.154,0,0,1-1.394,3.249,8.46,8.46,0,0,1-6.24,3.54A11.084,11.084,0,0,1,118.123,115Zm4.326-34.849c1.68,1.179,3.356,2.537,3.356,2.537a54.14,54.14,0,0,1-1.381,8.294A17.742,17.742,0,0,1,123.309,85a49.473,49.473,0,0,0,.994-9.166C124.712,76.109,125.147,76.407,125.586,76.718Zm-1.2-12.725a41.631,41.631,0,0,1,3.884,1.576s0.09,0.519.227,1.3c0.166,0.774.257,1.823,0.365,2.871a26.07,26.07,0,0,1,.215,2.887c0.026,0.79.044,1.316,0.044,1.316a18.149,18.149,0,0,1-4.859-1.377,49.272,49.272,0,0,0-1.3-9.057C123.417,63.655,123.9,63.819,124.387,63.993Zm2.831,38.915a8.54,8.54,0,0,0,.694-1.275l1.395-2.877c0.249-.525.515-1.043,0.733-1.542,0.189-.511.366-0.988,0.518-1.4,0.3-.819.5-1.364,0.5-1.364s2.108-.649,4.234-1.481c2.024-.846,4.089-1.87,4.089-1.87a9.654,9.654,0,0,1,.987,3.343,8.637,8.637,0,0,1-.551,3.486,8.44,8.44,0,0,1-1.971,3.14A9.631,9.631,0,0,1,134.735,103,10.751,10.751,0,0,1,127.218,102.908Zm5.557-14.064c0.212,0.049,1.781-9.127,1.522-9.154,0,0,1.808-1.181,3.62-2.542,0.905-.674,1.81-1.384,2.488-1.933,0.642-.558,1.071-0.929,1.071-0.929a8.5,8.5,0,0,1-1.365,12.676A11,11,0,0,1,132.775,88.844Z"/>
      <path id="Shape_11_copy_4" data-name="Shape 11 copy 4" class="cls-3" d="M70.764,117.484a106.932,106.932,0,0,0-38.354,7.03c4.224,6.8,9.293,19.918,9.293,19.918,6.589-2.343,29.061-3.28,29.061-3.28h9.293s22.472,0.937,29.061,3.28c0,0,5.069-13.122,9.293-19.918a106.931,106.931,0,0,0-38.354-7.03H70.764Z"/>
    </g>
    <g id="assault">
      <path class="cls-4" d="M91.661,59.924l5.352-3.612A3.391,3.391,0,0,0,98.2,54.929a5.767,5.767,0,0,1,1.394-2.079L136.08,28.708a7.526,7.526,0,0,0-.614-3.435,6.012,6.012,0,0,0-1.627-2.59l-8.52,5.637-0.361-.459s-4.116-.943-5.2-1.27l-0.425.281-1.336.884-0.425.281c-0.125,1.13-.866,5.287-0.866,5.287l0.281,0.512L68.426,65.963l-1.064-1.609s-3.195.15-3.24,0.18L62.237,65.78c-0.046.03-1.433,2.912-1.433,2.912l0.622,0.941-1.309.866-7.043,4.66c-1.8,1.18-2.662,2.572-2.264,4.1a3.423,3.423,0,0,0,.928,1.392l0.085,0.141c0.729,5.191-2.7,9.117-3.933,10.283a7.1,7.1,0,0,1-4.993,1.82,2.965,2.965,0,0,0-2.507.96L14.1,118.23a2.308,2.308,0,0,0,.074,1.959c0.542,0.951,9.5,13.44,10.55,14.231S28,133.038,28,133.038a102.459,102.459,0,0,0,19.949-28,2.208,2.208,0,0,1,1.842-1.27l1.439-.1a2.672,2.672,0,0,0,2.475-2.416c0.224-2.374.6-5.971,0.942-7.489a15.73,15.73,0,0,1,4.934-8.3,0.97,0.97,0,0,1,.631.318c0.649,0.684,2.715,3.114,2.715,3.114s0.934,1.411,3.635-.245,7.18-4.881,7.18-4.881S75.592,82.607,74,80a20,20,0,0,1-1.416-2.14A0.982,0.982,0,0,1,72.992,77c0.289-.256,1.7-1.19,1.7-1.19l0.085-.074,9.968-6.595L95.953,83.819a2.331,2.331,0,0,0,3.267.439l2.428-1.854a2.331,2.331,0,0,0,.438-3.267L91.195,64.868l0.178-4.116A0.733,0.733,0,0,1,91.661,59.924Zm38.386-32.549,1.154-.763a1.383,1.383,0,1,1,1.526,2.307l-1.153.763A1.383,1.383,0,0,1,130.047,27.375Z"/>
      <path class="cls-2" d="M91.661,51.264l5.352-3.612A3.391,3.391,0,0,0,98.2,46.269a5.766,5.766,0,0,1,1.394-2.079L136.08,20.049a7.526,7.526,0,0,0-.614-3.435,6.013,6.013,0,0,0-1.627-2.59l-8.52,5.637-0.361-.459s-4.116-.943-5.2-1.27l-0.425.281-1.336.884-0.425.281c-0.125,1.13-.866,5.287-0.866,5.287l0.281,0.512L68.426,57.3l-1.064-1.609s-3.195.15-3.24,0.18l-1.884,1.247c-0.046.03-1.433,2.912-1.433,2.912l0.622,0.941-1.309.866L53.076,66.5c-1.8,1.18-2.662,2.572-2.264,4.1a3.423,3.423,0,0,0,.928,1.392l0.085,0.141c0.729,5.192-2.7,9.117-3.933,10.284a7.1,7.1,0,0,1-4.993,1.82,2.966,2.966,0,0,0-2.507.961L14.1,109.57a2.308,2.308,0,0,0,.074,1.959c0.542,0.951,9.5,13.44,10.55,14.231S28,124.378,28,124.378a102.46,102.46,0,0,0,19.949-28A2.208,2.208,0,0,1,49.79,95.1l1.439-.1A2.672,2.672,0,0,0,53.7,92.589c0.224-2.374.6-5.971,0.942-7.489a15.73,15.73,0,0,1,4.934-8.3,0.971,0.971,0,0,1,.631.318c0.649,0.684,2.715,3.114,2.715,3.114s0.934,1.412,3.635-.245,7.18-4.881,7.18-4.881,1.852-1.159.255-3.769A19.99,19.99,0,0,1,72.58,69.2a0.982,0.982,0,0,1,.412-0.862c0.289-.256,1.7-1.19,1.7-1.19l0.085-.074,9.968-6.595L95.953,75.159a2.331,2.331,0,0,0,3.267.438l2.428-1.854a2.331,2.331,0,0,0,.438-3.267L91.195,56.209l0.178-4.116A0.733,0.733,0,0,1,91.661,51.264Zm38.386-32.549,1.154-.763a1.383,1.383,0,1,1,1.526,2.307l-1.153.763A1.383,1.383,0,0,1,130.047,18.715Z"/>
      <path id="_1343" data-name="1343" class="cls-5" d="M75.28,121.193a7.908,7.908,0,0,0-5.731,2.247l2.224,2.338a4.16,4.16,0,0,1,2.934-1.306,2.013,2.013,0,0,1,1.3.378,1.291,1.291,0,0,1,.47,1.066,1.465,1.465,0,0,1-.481,1.158,2.091,2.091,0,0,1-1.421.424h-0.94l-0.5,3.026H74.5a2.57,2.57,0,0,1,1.685.458,1.8,1.8,0,0,1,.539,1.445,1.615,1.615,0,0,1-.562,1.329,2.227,2.227,0,0,1-1.456.459,3.606,3.606,0,0,1-1.57-.333,5.835,5.835,0,0,1-1.5-1.111l-2.361,2.315a7.023,7.023,0,0,0,5.754,2.522,8.267,8.267,0,0,0,3.45-.654,4.97,4.97,0,0,0,2.155-1.742,4.243,4.243,0,0,0,.722-2.4,3.616,3.616,0,0,0-1.009-2.762,4.4,4.4,0,0,0-2.591-1.135,4.541,4.541,0,0,0,2.293-1.421,3.634,3.634,0,0,0,.779-2.361,3.412,3.412,0,0,0-.642-2.041,4.173,4.173,0,0,0-1.891-1.4,8.059,8.059,0,0,0-3.015-.5h0Z"/>
    </g>
  </g>
</svg>
