<svg xmlns="http://www.w3.org/2000/svg" width="150" height="150" viewBox="0 0 150 150">
  <defs>
    <style>
      .cls-1 {
        fill: #b83027;
      }

      .cls-1, .cls-2, .cls-3, .cls-4, .cls-5 {
        fill-rule: evenodd;
      }

      .cls-2 {
        fill: #fbbd40;
      }

      .cls-3 {
        fill: #754c29;
      }

      .cls-4 {
        fill: #231f20;
      }

      .cls-5 {
        fill: #f7f7f7;
      }
    </style>
  </defs>
  <g id="allies_stalingrad_tank_2_icon">
    <g id="back_copy_7" data-name="back copy 7">
      <path id="Shape_694_copy" data-name="Shape 694 copy" class="cls-1" d="M141.93,75A66.93,66.93,0,1,1,75,8.07,66.93,66.93,0,0,1,141.93,75Z"/>
      <path id="Shape_694_copy_2" data-name="Shape 694 copy 2" class="cls-2" d="M134.494,73.833s-0.02-.58-0.049-1.451a30.284,30.284,0,0,0-.236-3.184c-0.119-1.156-.225-2.313-0.4-3.168l-0.25-1.431s1.527-1.629,2.848-3.4c1.36-1.762,2.666-3.7,2.666-3.7a8.534,8.534,0,0,1,2,12.609A11.14,11.14,0,0,1,134.494,73.833Zm-2.288-14.943-0.443-1.384c-0.263-.832-0.606-1.943-1.063-3.014a46.281,46.281,0,0,0-1.853-4.263l0.614-1.238c0.376-.758.828-1.766,1.237-2.793,0.843-2.055,1.59-4.262,1.59-4.262a8.552,8.552,0,0,1,5.279,11.634A11.157,11.157,0,0,1,132.206,58.889Zm-6.167-13.814-0.8-1.217c-0.477-.73-1.1-1.715-1.82-2.627-1.353-1.9-2.908-3.628-2.908-3.628s0.107-.542.267-1.355c0.164-.828.334-1.917,0.461-3.016,0.277-2.2.421-4.528,0.421-4.528a8.551,8.551,0,0,1,8.138,9.838A11.134,11.134,0,0,1,126.039,45.075ZM115.369,32.4c-0.648-.584-1.509-1.367-2.445-2.061a46.134,46.134,0,0,0-3.756-2.746s-0.038-.552-0.1-1.378c-0.057-.844-0.183-1.933-0.347-3.03-0.31-2.2-.781-4.483-0.781-4.483a8.574,8.574,0,0,1,10.438,7.379,11.141,11.141,0,0,1-1.927,7.289Zm-74.44-6.185-0.1,1.378a46.224,46.224,0,0,0-3.756,2.746c-0.936.694-1.8,1.477-2.445,2.061l-1.084.969a11.135,11.135,0,0,1-1.927-7.289A8.574,8.574,0,0,1,42.057,18.7s-0.471,2.282-.781,4.483C41.113,24.279,40.986,25.367,40.929,26.211ZM24.756,43.858l-0.795,1.217A11.136,11.136,0,0,1,20.2,38.542,8.552,8.552,0,0,1,28.335,28.7s0.144,2.325.421,4.528c0.127,1.1.3,2.187,0.461,3.016L29.484,37.6s-1.556,1.732-2.908,3.628C25.853,42.143,25.234,43.128,24.756,43.858Zm-3.6,6.37A46.372,46.372,0,0,0,19.3,54.492c-0.457,1.07-.8,2.182-1.064,3.014l-0.442,1.384a11.158,11.158,0,0,1-5.362-5.319,8.553,8.553,0,0,1,5.279-11.634s0.747,2.207,1.59,4.262c0.409,1.027.861,2.035,1.237,2.792ZM16.445,64.6s-0.1.572-.25,1.431c-0.179.855-.285,2.012-0.4,3.168a30.208,30.208,0,0,0-.237,3.184c-0.029.871-.048,1.451-0.048,1.451a11.143,11.143,0,0,1-6.578-3.72,8.535,8.535,0,0,1,2-12.609s1.306,1.934,2.667,3.7C14.919,62.97,16.445,64.6,16.445,64.6ZM9.6,75.216c0.678,0.549,1.583,1.259,2.489,1.933,1.812,1.36,3.62,2.542,3.62,2.542-0.259.027,1.31,9.2,1.522,9.154a11,11,0,0,1-7.336-1.881A8.5,8.5,0,0,1,8.524,74.287ZM10.616,91.1s2.065,1.023,4.089,1.87c2.126,0.832,4.235,1.481,4.235,1.481l0.5,1.364,0.517,1.4c0.218,0.5.484,1.017,0.733,1.542l1.4,2.877a8.549,8.549,0,0,0,.694,1.275,10.75,10.75,0,0,1-7.517.087,9.6,9.6,0,0,1-3.115-1.923,8.446,8.446,0,0,1-1.971-3.14,8.643,8.643,0,0,1-.55-3.486A9.645,9.645,0,0,1,10.616,91.1Zm10.9,16.406c1.113,0.133,2.175.255,3.015,0.3l1.4,0.056s1.38,1.874,2.812,3.7L31.877,115a11.082,11.082,0,0,1-7.237,2.051,8.46,8.46,0,0,1-6.241-3.54,7.162,7.162,0,0,1-1.394-3.249,9.356,9.356,0,0,1,.011-3.447S19.308,107.242,21.514,107.508Zm14.68,11.476s0.447,0.371,1.152.887l2.568,1.911a25.973,25.973,0,0,0,2.681,1.742l1.246,0.753a11.3,11.3,0,0,1-6.487,3.924,9.091,9.091,0,0,1-6.959-1.79,9.174,9.174,0,0,1-3.085-6.106s2.338-.207,4.554-0.544S36.194,118.984,36.194,118.984Zm12.862,8c-0.106.248,8.7,3.352,8.759,3.135a10.85,10.85,0,0,1-5.213,5.469,9.355,9.355,0,0,1-3.538.813,7.312,7.312,0,0,1-3.649-.737,8.43,8.43,0,0,1-4.586-5.088,39.913,39.913,0,0,0,4.224-1.658C47.135,127.993,49.056,126.984,49.056,126.984Zm13.491,5.308,1.016-.943L65,131.566a23.616,23.616,0,0,0,3.18.357l4.652,0.226A10.872,10.872,0,0,1,69.25,138.7a9.532,9.532,0,0,1-3.194,1.8,9.309,9.309,0,0,1-3.705.175,8.1,8.1,0,0,1-3.317-1.223,9.638,9.638,0,0,1-2.453-2.475s1.9-1.307,3.629-2.665C61.077,133.639,61.933,132.841,62.548,132.292Zm6.061-5.711a20.2,20.2,0,0,1-2.882-.325l-1.3-.2-0.56-1.182c-0.258-.575-0.576-1.278-0.881-2.035a49.263,49.263,0,0,0,9.243,1.4,19.523,19.523,0,0,1,.605,2.549ZM20.923,72.625a26.087,26.087,0,0,1,.215-2.887c0.108-1.048.2-2.1,0.366-2.871,0.135-.778.226-1.3,0.226-1.3a41.617,41.617,0,0,1,3.884-1.576c0.487-.175.97-0.339,1.423-0.487a49.273,49.273,0,0,0-1.3,9.057,18.137,18.137,0,0,1-4.859,1.377S20.9,73.414,20.923,72.625Zm0.136,6.631s1.675-1.358,3.356-2.537c0.439-.312.874-0.609,1.282-0.884A49.51,49.51,0,0,0,26.691,85a17.743,17.743,0,0,1-4.252,2.549A54.128,54.128,0,0,1,21.058,79.256Zm6.41,21.031a7.111,7.111,0,0,1-.628-1.156l-1.262-2.607c-0.226-.475-0.47-0.944-0.668-1.395l-0.464-1.267-0.454-1.235s1.206-1.731,2.5-3.3c0.334-.39.67-0.768,0.988-1.12a48.976,48.976,0,0,0,3.314,8.67A19.448,19.448,0,0,1,27.468,100.287Zm5.4,7.849-2.547-3.359,0.443-1.216c0.274-.725.723-1.721,1.157-2.664,0.163-.353.328-0.7,0.49-1.028a49.462,49.462,0,0,0,5.477,7.6,18.9,18.9,0,0,1-2.174,3.781ZM47.581,116a18.854,18.854,0,0,1-1.022,3.652l-1.129-.682A22.376,22.376,0,0,1,43,117.4l-2.327-1.731c-0.64-.467-1.046-0.8-1.046-0.8s0.209-2.157.551-4.193c0.035-.214.071-0.426,0.108-0.636A49.528,49.528,0,0,0,47.581,116ZM85,131.566l1.441-.217,1.016,0.943c0.615,0.549,1.471,1.347,2.338,2.017,1.727,1.358,3.629,2.665,3.629,2.665a9.623,9.623,0,0,1-2.453,2.475,8.1,8.1,0,0,1-3.317,1.223,9.311,9.311,0,0,1-3.706-.175,9.532,9.532,0,0,1-3.194-1.8,10.876,10.876,0,0,1-3.586-6.552l4.652-.226A23.608,23.608,0,0,0,85,131.566Zm15.948-4.582s1.921,1.009,4,1.934a39.875,39.875,0,0,0,4.224,1.658,8.43,8.43,0,0,1-4.587,5.088,7.309,7.309,0,0,1-3.649.737,9.357,9.357,0,0,1-3.537-.813,10.852,10.852,0,0,1-5.213-5.469C92.247,130.336,101.05,127.232,100.944,126.984Zm5.215-2.707,1.246-.753a25.869,25.869,0,0,0,2.682-1.742c0.933-.695,1.867-1.389,2.568-1.91s1.151-.888,1.151-0.888,2.1,0.45,4.33.777,4.554,0.544,4.554.544a8.492,8.492,0,0,1-10.043,7.9A11.306,11.306,0,0,1,106.159,124.277Zm15.1-12.71c1.433-1.83,2.813-3.7,2.813-3.7l1.4-.055c0.841-.044,1.9-0.167,3.016-0.3,2.205-.266,4.5-0.69,4.5-0.69a9.354,9.354,0,0,1,.011,3.447,7.154,7.154,0,0,1-1.394,3.249,8.46,8.46,0,0,1-6.24,3.54A11.084,11.084,0,0,1,118.123,115Zm7.011-46s0.09,0.519.227,1.3c0.166,0.774.257,1.823,0.365,2.871a26.07,26.07,0,0,1,.215,2.887c0.026,0.79.044,1.316,0.044,1.316a18.149,18.149,0,0,1-4.859-1.377,49.273,49.273,0,0,0-1.3-9.057c0.453,0.148.936,0.312,1.423,0.487A41.631,41.631,0,0,1,128.271,65.57ZM107,117.4a22.331,22.331,0,0,1-2.432,1.578l-1.128.682A18.884,18.884,0,0,1,102.419,116a49.6,49.6,0,0,0,7.3-5.97q0.055,0.315.108,0.636c0.341,2.036.552,4.193,0.552,4.193s-0.407.335-1.046,0.8Zm7.286-6.145a18.922,18.922,0,0,1-2.173-3.781,49.482,49.482,0,0,0,5.477-7.6c0.162,0.332.327,0.675,0.489,1.028,0.435,0.943.883,1.939,1.157,2.664s0.443,1.216.443,1.216-1.273,1.68-2.547,3.359C115.711,109.693,114.287,111.25,114.287,111.25Zm10.8-16.12c-0.2.451-.441,0.919-0.668,1.395l-1.262,2.607a7.132,7.132,0,0,1-.628,1.156,19.433,19.433,0,0,1-3.325-3.408,48.9,48.9,0,0,0,3.314-8.67c0.319,0.351.655,0.73,0.989,1.12,1.293,1.568,2.5,3.3,2.5,3.3l-0.455,1.235Zm3.852-15.874a54.14,54.14,0,0,1-1.381,8.294A17.742,17.742,0,0,1,123.309,85a49.558,49.558,0,0,0,1-9.166c0.408,0.275.843,0.573,1.282,0.884C127.266,77.9,128.942,79.256,128.942,79.256Zm-42.8,45.622-0.559,1.182-1.3.2a20.2,20.2,0,0,1-2.882.325l-4.221.21a19.539,19.539,0,0,1,.605-2.549,49.262,49.262,0,0,0,9.243-1.4C86.714,123.6,86.4,124.3,86.138,124.878Zm41.08-21.97a8.556,8.556,0,0,0,.694-1.274l1.395-2.878c0.249-.525.515-1.043,0.733-1.542,0.189-.511.366-0.988,0.518-1.4,0.3-.819.5-1.364,0.5-1.364s2.108-.649,4.234-1.481c2.024-.846,4.089-1.87,4.089-1.87a9.633,9.633,0,0,1,.987,3.343,8.637,8.637,0,0,1-.551,3.486,8.44,8.44,0,0,1-1.971,3.14A9.6,9.6,0,0,1,134.735,103,10.751,10.751,0,0,1,127.218,102.908Zm5.557-14.064c0.212,0.049,1.781-9.127,1.522-9.154,0,0,1.808-1.181,3.62-2.542,0.905-.674,1.81-1.384,2.488-1.933,0.642-.558,1.071-0.929,1.071-0.929a8.5,8.5,0,0,1-1.365,12.676A11,11,0,0,1,132.775,88.844Z"/>
      <path id="Shape_11_copy_4" data-name="Shape 11 copy 4" class="cls-3" d="M70.764,117.484a106.932,106.932,0,0,0-38.354,7.03c4.224,6.8,9.293,19.918,9.293,19.918,6.589-2.343,29.061-3.28,29.061-3.28h9.293s22.472,0.937,29.061,3.28c0,0,5.069-13.122,9.293-19.918a106.931,106.931,0,0,0-38.354-7.03H70.764Z"/>
    </g>
    <g id="allies_stalingrad_tank_1_icon_copy" data-name="allies_stalingrad_tank_1_icon copy">
      <path class="cls-4" d="M125.828,85.965l-7.152-2.076-4.44-4.441L109.8,75.007,102.067,73.3V71.854l0.555-.233c0.4-.366,1.691-1.651,1.527-2.8-0.119-.832-3.5-11.592-4.182-13.741l-0.142-.451-0.461-.1-1.416-.317c-0.49-1.484-2.732-2.466-6.561-2.858a23.227,23.227,0,0,0-2.345-.129,9.989,9.989,0,0,0-3.173.417,10.974,10.974,0,0,0-1.679-.248c-1.164,0-22.11,1.218-23,1.27l-0.223.013L60.78,52.8a15.689,15.689,0,0,0-1.811,1.4L33.682,45.113a2.885,2.885,0,0,0-1.951,5.43l25.183,9.05c-0.129.435-.257,0.86-0.382,1.255a18.309,18.309,0,0,0-.83,6.06l0.047,0.236,0.167,0.173,3,3.113v1.4l-5.751.066L35.969,82.3l-10.708-.141a10.467,10.467,0,0,0-1.91,1.224,10.153,10.153,0,0,0-2.014,2.194,10.749,10.749,0,0,0-.61,1.028,11.951,11.951,0,0,0-.826,1.959c-0.09.283-.16,0.547-0.222,0.8a10.5,10.5,0,0,0-.311,2.021l2.507-.016s0,0.009,0,.012a7.612,7.612,0,0,0,.24,2.358,8.04,8.04,0,0,0,.714,1.8,9.9,9.9,0,0,0,.617.959c0.178,0.25.38,0.522,0.6,0.813s0.466,0.6.725,0.921C26.2,100,28.113,102.2,29.812,104.1c0.309,0.345.611,0.681,0.9,1s0.593,0.656.866,0.956c0.239,0.263.464,0.51,0.673,0.738l0.058,0.064,0.568,0.619c0.563,0.612.906,0.98,0.906,0.98a0.421,0.421,0,0,0,.029.035,2.139,2.139,0,0,0,1.128.57,3.8,3.8,0,0,0,.632.091,5.194,5.194,0,0,0,.634,0l39.332-1.96,6.69-7.844,5.5-.241c0.416,0.887.843,1.794,1.263,2.685l0.61,1.289c0.3,0.633.59,1.244,0.864,1.822l0.477,1,0.329,0.691,0.384,0.806,0.332,0.694,0.132,0.277,0.373,0.78a3.273,3.273,0,0,0,1.615.577h12.572l7.5-1.187,8.529-1.35a23.472,23.472,0,0,0,2.086-3.656,16.891,16.891,0,0,0,.7-1.786,12.1,12.1,0,0,0,.333-1.248c0.04-.193.076-0.4,0.109-0.611s0.063-.437.089-0.668c0.052-.462.091-0.957,0.117-1.473a34.738,34.738,0,0,0-.046-4.059,24.744,24.744,0,0,0-.5-3.7c-0.049-.209-0.1-0.409-0.153-0.6s-0.111-.365-0.17-0.528Z"/>
      <path class="cls-2" d="M126.75,82.459l-0.922-2.653-7.152-2.076-4.44-4.441L109.8,68.849l-7.728-1.711V65.695l0.555-.233c0.4-.366,1.691-1.651,1.527-2.8-0.119-.832-3.5-11.592-4.182-13.741l-0.142-.451-0.461-.1-1.416-.317c-0.49-1.484-2.732-2.466-6.561-2.858a23.226,23.226,0,0,0-2.345-.129,9.989,9.989,0,0,0-3.173.417,10.959,10.959,0,0,0-1.679-.248c-1.164,0-22.11,1.218-23,1.27l-0.223.013-0.186.124a15.677,15.677,0,0,0-1.811,1.4L33.682,38.954a2.885,2.885,0,0,0-1.951,5.43l25.183,9.05c-0.129.435-.257,0.86-0.382,1.255a18.309,18.309,0,0,0-.83,6.06l0.047,0.236,0.167,0.173,3,3.113v1.4l-5.751.066L35.969,76.14,25.261,76a10.472,10.472,0,0,0-1.91,1.224,10.151,10.151,0,0,0-2.014,2.194,10.737,10.737,0,0,0-.61,1.028,11.947,11.947,0,0,0-.826,1.959c-0.09.283-.16,0.547-0.222,0.8a10.5,10.5,0,0,0-.311,2.021l2.507-.016s0,0.009,0,.012a7.612,7.612,0,0,0,.24,2.358,8.04,8.04,0,0,0,.714,1.8,9.9,9.9,0,0,0,.617.959c0.178,0.25.38,0.522,0.6,0.813s0.466,0.6.725,0.921c1.426,1.773,3.342,3.966,5.041,5.865,0.309,0.345.611,0.681,0.9,1s0.593,0.656.866,0.956l0.673,0.738L32.31,100.7l0.568,0.619c0.563,0.613.906,0.981,0.906,0.981s0.009,0.012.029,0.034a2.139,2.139,0,0,0,1.128.57,3.8,3.8,0,0,0,.632.091,5.391,5.391,0,0,0,.634,0l39.332-1.961,6.69-7.843,5.5-.241c0.416,0.887.843,1.795,1.263,2.684l0.61,1.289c0.3,0.633.59,1.245,0.864,1.822l0.477,1,0.329,0.691,0.384,0.8,0.332,0.7,0.132,0.276,0.373,0.781a3.273,3.273,0,0,0,1.615.577h12.572l7.5-1.188,8.529-1.35a23.47,23.47,0,0,0,2.086-3.656,16.83,16.83,0,0,0,.7-1.786,12.056,12.056,0,0,0,.333-1.248q0.06-.29.109-0.611c0.033-.214.063-0.437,0.089-0.668,0.052-.463.091-0.958,0.117-1.473a34.74,34.74,0,0,0-.046-4.059,24.744,24.744,0,0,0-.5-3.7c-0.049-.209-0.1-0.409-0.153-0.6s-0.111-.365-0.17-0.528l1.268-.211Z"/>
      <path class="cls-4" d="M42.172,92.413L46,98.708,74.471,97.34l4.653-5.2ZM99.406,84.2a13.716,13.716,0,0,0-.041,3.129c0.2,1.3,5.628,12.507,5.628,12.507l14.6-1.52s2.174-4.012,2.2-6.062-0.441-8.081-.441-8.081l-19.091-3.5-1.333,2.9ZM55.914,53.212l13.7,4.644-2.463,3.49L55.093,56.908Z"/>
      <path id="_99" data-name="99" class="cls-5" d="M68.082,121.193a7.2,7.2,0,0,0-3.2.7,5.481,5.481,0,0,0-2.247,1.948,5.113,5.113,0,0,0-.814,2.854,5.869,5.869,0,0,0,.619,2.763,4.524,4.524,0,0,0,1.651,1.811,4.263,4.263,0,0,0,2.27.63,4.349,4.349,0,0,0,1.708-.3,4.269,4.269,0,0,0,1.341-.94,5.34,5.34,0,0,1-1.227,1.915,6.2,6.2,0,0,1-2.006,1.249,20.024,20.024,0,0,1-3.255.94l0.894,3.118a18.263,18.263,0,0,0,5.972-1.9,8.406,8.406,0,0,0,3.45-3.462,11.353,11.353,0,0,0,1.123-5.3,6.681,6.681,0,0,0-.711-3.13,5.043,5.043,0,0,0-2.132-2.132,7.158,7.158,0,0,0-3.439-.768h0Zm-0.206,7.634q-1.513,0-1.513-2.361a2.45,2.45,0,0,1,.459-1.6,1.5,1.5,0,0,1,1.215-.55,1.473,1.473,0,0,1,1.043.333,1.975,1.975,0,0,1,.5,1.077,10.3,10.3,0,0,1,.126,2.075,2.394,2.394,0,0,1-.848.779,2.092,2.092,0,0,1-.986.252h0Zm14.695-7.634a7.2,7.2,0,0,0-3.2.7,5.481,5.481,0,0,0-2.247,1.948,5.113,5.113,0,0,0-.814,2.854,5.868,5.868,0,0,0,.619,2.763,4.523,4.523,0,0,0,1.651,1.811,4.262,4.262,0,0,0,2.27.63,4.35,4.35,0,0,0,1.708-.3,4.269,4.269,0,0,0,1.341-.94,5.338,5.338,0,0,1-1.227,1.915,6.2,6.2,0,0,1-2.006,1.249,20.028,20.028,0,0,1-3.255.94l0.894,3.118a18.264,18.264,0,0,0,5.972-1.9,8.406,8.406,0,0,0,3.45-3.462,11.353,11.353,0,0,0,1.123-5.3,6.681,6.681,0,0,0-.711-3.13,5.043,5.043,0,0,0-2.132-2.132,7.158,7.158,0,0,0-3.439-.768h0Zm-0.206,7.634q-1.513,0-1.513-2.361a2.449,2.449,0,0,1,.459-1.6,1.5,1.5,0,0,1,1.215-.55,1.473,1.473,0,0,1,1.043.333,1.975,1.975,0,0,1,.5,1.077A10.284,10.284,0,0,1,84.2,127.8a2.393,2.393,0,0,1-.848.779,2.092,2.092,0,0,1-.986.252h0Z"/>
    </g>
  </g>
</svg>
