<svg id="_515_aviation_icon" data-name="515_aviation_icon" xmlns="http://www.w3.org/2000/svg" width="150" height="150" viewBox="0 0 150 150">
  <defs>
    <style>
      .cls-1 {
        fill: #b83027;
      }

      .cls-1, .cls-2, .cls-3, .cls-4, .cls-5, .cls-6 {
        fill-rule: evenodd;
      }

      .cls-2 {
        fill: #fbbd40;
      }

      .cls-3 {
        fill: #754c29;
      }

      .cls-4 {
        fill: #f7f7f7;
      }

      .cls-5 {
        fill: #231f20;
      }

      .cls-6 {
        fill: #f7ba3f;
      }
    </style>
  </defs>
  <path id="Shape_11_copy_3" data-name="Shape 11 copy 3" class="cls-1" d="M124.179,7.034C114.16,28.843,85.009,24.2,52.7,25.7S7.763,49,7.763,49l30.655,68.242s11.861-19.273,42.5-20.756,58.315,2.471,67.7-16.8Z"/>
  <path id="Shape_11_copy_2" data-name="Shape 11 copy 2" class="cls-2" d="M1.376,46.4l43.93,96.567,2.77-5.145L8.1,42.837,3.355,41.649Z"/>
  <path id="Shape_11_copy" data-name="Shape 11 copy" class="cls-3" d="M85.767,106.5a106.852,106.852,0,0,0-38.323,7.024c4.221,6.791,9.285,19.9,9.285,19.9,6.584-2.342,29.038-3.278,29.038-3.278h9.285s22.454,0.936,29.038,3.278c0,0,5.064-13.112,9.285-19.9A106.852,106.852,0,0,0,95.053,106.5H85.767Z"/>
  <path id="_515" data-name="515" class="cls-4" d="M84.076,111.792H74.356v8.3h2.811a3.039,3.039,0,0,1,1.569-.523,1.637,1.637,0,0,1,1.275.49,2.386,2.386,0,0,1,.447,1.624,2.282,2.282,0,0,1-.523,1.623,1.964,1.964,0,0,1-1.5.556,3.259,3.259,0,0,1-2.68-1.439l-2.375,2.158a6.368,6.368,0,0,0,5.252,2.462,7.57,7.57,0,0,0,3.291-.675,5.043,5.043,0,0,0,2.179-1.907,5.29,5.29,0,0,0,.763-2.844,5.74,5.74,0,0,0-.567-2.637,4.052,4.052,0,0,0-1.536-1.689,4.208,4.208,0,0,0-2.19-.577,4.919,4.919,0,0,0-2.07.458V114.8h5.121Zm6.363,0-5.252,3.138,1.874,2.811,3.029-1.852v10.722h4.184V111.792H90.439Zm17.15,0H97.87v8.3h2.811a3.041,3.041,0,0,1,1.569-.523,1.637,1.637,0,0,1,1.275.49,2.384,2.384,0,0,1,.447,1.624,2.285,2.285,0,0,1-.523,1.623,1.965,1.965,0,0,1-1.5.556,3.259,3.259,0,0,1-2.68-1.439l-2.375,2.158a6.368,6.368,0,0,0,5.252,2.462,7.571,7.571,0,0,0,3.291-.675,5.045,5.045,0,0,0,2.179-1.907,5.294,5.294,0,0,0,.763-2.844,5.736,5.736,0,0,0-.567-2.637,4.054,4.054,0,0,0-1.536-1.689,4.209,4.209,0,0,0-2.19-.577,4.925,4.925,0,0,0-2.071.458V114.8h5.122Z"/>
  <path class="cls-5" d="M141.856,38.3S116.333,57.918,109.062,63.68a12.492,12.492,0,0,1-.022,2.293c13.213-1.019,14.363-.2,14.363-0.2s3.324,0.82,2.59,2.547-7.079,1.338-7.079,1.338l-10.329-1.316c-0.054.192-.095,0.384-0.159,0.576-1.51,4.565-5.143,7.649-8.826,7.886a1.575,1.575,0,0,1-.241.046,44.385,44.385,0,0,1-2.978,5.671c-4.317,6.863-6.734,7.986-6.734,7.986a1.143,1.143,0,0,1-1.036-.6c-0.216-.6.432-3.928,2.676-8.418a40.189,40.189,0,0,1,2.971-4.741,21.3,21.3,0,0,1-4.438-.568l-0.078-.029L25.865,103.641a28.653,28.653,0,0,1-6.563,1.953c-1.944.328-3.868,0.437-4.145-.332-0.583-1.618,9.114-7.2,9.114-7.2l43.771-24.8s2.007-1.1,2.331-2.072a8.361,8.361,0,0,0-.622-3.131l-0.738-.3S60.725,62.67,56.5,58.7l-0.018-.024c-3.133,1.369-11.365,4.949-13.45,5.679-2.59.906-3.151,0.95-3.151,0.6s4.36-2.935,4.36-2.935L55.05,56.416a41.33,41.33,0,0,1-2.871-6.351c-2.029-5.655-1.209-6.518-.647-6.691l7.986,8.59,3.826,0.219c3.4-1.484,10.938-4.722,11.671-4.622,0.95,0.13-.3.907-0.3,0.907L68.2,52.461l0.377,0.022s3.5-2.038,6.648-1.943a6.79,6.79,0,0,1,4.187,1.3l2.676,2.245,14.944,0.405L95,50.411S90.294,40.4,92.539,40.4s4.446,6.087,4.705,6.691c0.131,0.306,1.481,4.058,2.782,7.686a13.452,13.452,0,0,1,1.535.415l28.7-15.007s10.943-4.662,12.173-3.95S141.856,38.3,141.856,38.3Z"/>
  <path class="cls-6" d="M141.856,32.3S116.333,51.918,109.062,57.68a13.055,13.055,0,0,1-.636,5.242c-1.51,4.565-5.143,7.649-8.825,7.886a1.29,1.29,0,0,1-.328.063c-2.892.043-7.986-.173-9.453-0.691l-0.057-.021c0.043,0.13.1,0.242,0.142,0.377l-3.742,1.61a2.363,2.363,0,0,0,.168-0.527L25.865,97.641A28.639,28.639,0,0,1,19.3,99.594c-1.944.327-3.868,0.437-4.145-.332-0.583-1.619,9.114-7.2,9.114-7.2l43.771-24.8s2.007-1.1,2.331-2.072a8.363,8.363,0,0,0-.622-3.13l-0.738-.3S60.725,56.67,56.5,52.7l-0.018-.024c-3.133,1.369-11.364,4.949-13.45,5.679-2.59.906-3.151,0.95-3.151,0.6s4.36-2.935,4.36-2.935L55.05,50.416a41.335,41.335,0,0,1-2.871-6.351c-2.029-5.655-1.209-6.518-.647-6.691l7.986,8.59,3.826,0.219c3.4-1.484,10.938-4.721,11.671-4.622,0.95,0.13-.3.907-0.3,0.907L68.2,46.461l0.377,0.022s3.5-2.038,6.648-1.942a6.79,6.79,0,0,1,4.187,1.3l2.676,2.245,15.928,0.432a12.756,12.756,0,0,1,3.54.676l28.7-15.007s10.943-4.662,12.173-3.95S141.856,32.3,141.856,32.3Z"/>
  <path id="Shape_14_copy" data-name="Shape 14 copy" class="cls-5" d="M107.535,61.69c-1.388,4.194-5.187,6.709-8.485,5.618s-4.847-5.376-3.459-9.57,5.187-6.709,8.485-5.618S108.923,57.5,107.535,61.69ZM76.054,63.5s12.066-.884,14.351,7.47l-3.617,2.61S88.867,66.876,76.054,63.5ZM74.647,52.634s-0.719-3.658.777-5.439,3.756-.259,5.18,1.425A52.464,52.464,0,0,0,74.647,52.634Z"/>
  <path id="Shape_14_copy_2" data-name="Shape 14 copy 2" class="cls-6" d="M125.993,62.324c-0.734,1.727-7.079,1.338-7.079,1.338l-11.181-1.425,0.112-.519c-0.919,2.163-4.208,3.342-6.2,3.046a51.965,51.965,0,0,1-5.265,11.761c-4.317,6.864-6.734,7.986-6.734,7.986a1.143,1.143,0,0,1-1.036-.6c-0.216-.6.431-3.928,2.676-8.417,1.828-3.655,6.686-9.74,8.43-11.876a5.088,5.088,0,0,1-.584-4.689,5.67,5.67,0,0,1,1.8-2.646L95,44.41S90.294,34.4,92.539,34.4s4.446,6.086,4.7,6.691c0.241,0.561,4.572,12.687,5.188,14.414a3,3,0,0,1,1.721.021c1.683,0.557,3.939,2.743,3.959,4.96l0.1-.445c14.029-1.122,15.2-.259,15.2-0.259S126.727,60.6,125.993,62.324Z"/>
</svg>
