<svg xmlns="http://www.w3.org/2000/svg" width="150" height="150" viewBox="0 0 150 150">
  <defs>
    <style>
      .cls-1 {
        fill: #754c29;
      }

      .cls-1, .cls-2, .cls-3, .cls-4, .cls-5 {
        fill-rule: evenodd;
      }

      .cls-2 {
        fill: #b83027;
      }

      .cls-3 {
        fill: #f7f7f7;
      }

      .cls-4 {
        fill: #231f20;
      }

      .cls-5 {
        fill: #fbbd40;
      }
    </style>
  </defs>
  <path class="cls-1" d="M71.156,125.147a88.45,88.45,0,0,0-31.728,5.816c3.494,5.621,7.687,16.477,7.687,16.477,5.451-1.939,24.04-2.714,24.04-2.714h7.687s18.589,0.775,24.04,2.714c0,0,4.193-10.856,7.687-16.477a88.448,88.448,0,0,0-31.727-5.816H71.156Z"/>
  <path class="cls-2" d="M75,1.989L91.244,51.983H143.81l-42.527,30.9,16.244,49.994L75,101.976l-42.527,30.9L48.717,82.88,6.19,51.983H58.756Z"/>
  <g id="_359_regiment_icon" data-name="359_regiment_icon">
    <path id="_359" data-name="359" class="cls-3" d="M62.73,128.054a6.875,6.875,0,0,0-4.982,1.953l1.933,2.033a3.618,3.618,0,0,1,2.551-1.136,1.75,1.75,0,0,1,1.126.329,1.122,1.122,0,0,1,.409.927,1.271,1.271,0,0,1-.419,1.006,1.818,1.818,0,0,1-1.236.369H61.3l-0.438,2.631h1.2a2.235,2.235,0,0,1,1.465.4,1.563,1.563,0,0,1,.468,1.256,1.406,1.406,0,0,1-.488,1.156,1.936,1.936,0,0,1-1.266.4,3.134,3.134,0,0,1-1.365-.289,5.051,5.051,0,0,1-1.305-.966l-2.053,2.013a6.105,6.105,0,0,0,5,2.192,7.2,7.2,0,0,0,3-.568,4.329,4.329,0,0,0,1.873-1.515,3.688,3.688,0,0,0,.628-2.082,3.146,3.146,0,0,0-.877-2.4,3.822,3.822,0,0,0-2.252-.986,3.955,3.955,0,0,0,1.993-1.236,3.158,3.158,0,0,0,.678-2.053A2.969,2.969,0,0,0,67,129.708a3.627,3.627,0,0,0-1.644-1.215,7.008,7.008,0,0,0-2.621-.439h0Zm16.561,0.319H70.4v7.593h2.571a2.78,2.78,0,0,1,1.435-.478,1.5,1.5,0,0,1,1.166.448,2.182,2.182,0,0,1,.409,1.485,2.09,2.09,0,0,1-.478,1.485,1.8,1.8,0,0,1-1.375.508,2.98,2.98,0,0,1-2.451-1.315l-2.172,1.973a5.826,5.826,0,0,0,4.8,2.252,6.916,6.916,0,0,0,3.009-.618,4.613,4.613,0,0,0,1.993-1.744,4.835,4.835,0,0,0,.7-2.6,5.25,5.25,0,0,0-.518-2.411,3.705,3.705,0,0,0-1.405-1.545,3.85,3.85,0,0,0-2-.528,4.511,4.511,0,0,0-1.893.419v-2.173h4.683Zm7.653-.319a6.257,6.257,0,0,0-2.78.608,4.774,4.774,0,0,0-1.953,1.694,4.445,4.445,0,0,0-.707,2.481,5.1,5.1,0,0,0,.538,2.4,3.932,3.932,0,0,0,1.435,1.574,3.706,3.706,0,0,0,1.973.548,3.782,3.782,0,0,0,1.485-.259,3.723,3.723,0,0,0,1.166-.817,4.628,4.628,0,0,1-1.066,1.664,5.387,5.387,0,0,1-1.744,1.086,17.487,17.487,0,0,1-2.83.818l0.777,2.71a15.882,15.882,0,0,0,5.192-1.654,7.314,7.314,0,0,0,3-3.01,9.869,9.869,0,0,0,.977-4.6,5.808,5.808,0,0,0-.618-2.721,4.378,4.378,0,0,0-1.853-1.853,6.213,6.213,0,0,0-2.989-.668h0Zm-0.179,6.637q-1.315,0-1.315-2.053a2.129,2.129,0,0,1,.4-1.4,1.306,1.306,0,0,1,1.056-.478,1.28,1.28,0,0,1,.907.289,1.716,1.716,0,0,1,.439.936,8.954,8.954,0,0,1,.11,1.8,2.083,2.083,0,0,1-.737.678,1.829,1.829,0,0,1-.857.219h0Z"/>
    <path class="cls-4" d="M126.691,128.129s-10.98-12.61-11.74-13.292a13.966,13.966,0,0,0-3.671-2.154,6.014,6.014,0,0,1-3.006-2.129c-0.532-.936-3.852-6.664-3.852-6.664-0.073-.135-0.14-0.274-0.2-0.412l1.733-2.238L104.5,99.932l-0.048-.02L85.395,82.793l1.024-1.14-5-4.493-1.985.276-1.185-1.064,38-34.143-0.341-.38,4.874-4.379-0.625-.7-4.875,4.379-0.341-.38,6.837-6.142-1.024-1.14-1.9,1.706-1.877-2.089-1.9,1.706,1.877,2.089-3.039,2.73-0.228-.253-38.3,34.409-0.341-.38L75,73.454l-0.051-.046-0.341.38L36.307,39.38l-0.228.253L33.041,36.9l1.877-2.089-1.9-1.706L31.142,35.2l-1.9-1.706-1.023,1.14,6.837,6.142-0.341.38L29.84,36.773l-0.626.7,4.874,4.379-0.341.38,38,34.143-1.185,1.064-1.985-.276-5,4.493,1.024,1.14L45.55,99.911l0,0L44.1,101.223l1.683,2.255c-0.062.138-.128,0.277-0.2,0.412,0,0-3.32,5.728-3.852,6.664a6.013,6.013,0,0,1-3.007,2.129,13.98,13.98,0,0,0-3.671,2.154c-0.76.682-11.74,13.292-11.74,13.292s-1.019,1.03-.223,1.916l8.091,6.46s0.411,0.2,1.19-.84S48.377,107.9,48.377,107.9a3.72,3.72,0,0,1,.605-1.109l1.646,1.832s0.936,0.532,2.7-.82l3.565-3.545,6.055-8.414a7.246,7.246,0,0,1,.317-3.564L75,80.732l11.74,11.545a7.245,7.245,0,0,1,.317,3.564l6.055,8.414,3.564,3.545c1.76,1.352,2.7.82,2.7,0.82l1.646-1.832a3.721,3.721,0,0,1,.605,1.109s15.231,26.724,16.01,27.768,1.19,0.84,1.19.84l8.091-6.46C127.71,129.159,126.691,128.129,126.691,128.129Z"/>
    <path class="cls-5" d="M126.691,121.685s-10.98-12.61-11.74-13.292a13.966,13.966,0,0,0-3.671-2.154,6.014,6.014,0,0,1-3.006-2.129c-0.532-.936-3.852-6.664-3.852-6.664-0.073-.135-0.14-0.274-0.2-0.413l1.733-2.238L104.5,93.488l-0.048-.02L85.395,76.349l1.024-1.14-5-4.493-1.985.276-1.185-1.064,38-34.143-0.341-.38,4.874-4.379-0.625-.7-4.875,4.379-0.341-.38,6.837-6.142-1.024-1.14-1.9,1.706-1.877-2.089-1.9,1.706,1.877,2.089-3.039,2.73-0.228-.253-38.3,34.409-0.341-.38L75,67.01l-0.051-.046-0.341.38-38.3-34.409-0.228.253-3.039-2.73,1.877-2.089-1.9-1.706-1.877,2.089-1.9-1.706-1.023,1.14,6.837,6.142-0.341.38L29.84,30.329l-0.626.7L34.089,35.4l-0.341.38,38,34.143-1.185,1.064-1.985-.276-5,4.493,1.024,1.14L45.55,93.468l0,0L44.1,94.779l1.683,2.254c-0.062.139-.128,0.277-0.2,0.413,0,0-3.32,5.728-3.852,6.664a6.013,6.013,0,0,1-3.007,2.129,13.98,13.98,0,0,0-3.671,2.154c-0.76.682-11.74,13.292-11.74,13.292s-1.019,1.03-.223,1.917l8.091,6.459s0.411,0.2,1.19-.84,16.01-27.768,16.01-27.768a3.72,3.72,0,0,1,.605-1.109l1.646,1.832s0.936,0.532,2.7-.82l3.565-3.545L62.943,89.4a7.246,7.246,0,0,1,.317-3.564L75,74.288l11.74,11.545a7.245,7.245,0,0,1,.317,3.564l6.055,8.414,3.564,3.545c1.76,1.352,2.7.82,2.7,0.82l1.646-1.832a3.721,3.721,0,0,1,.605,1.109s15.231,26.725,16.01,27.768,1.19,0.84,1.19.84l8.091-6.459A1.457,1.457,0,0,0,126.691,121.685Z"/>
  </g>
</svg>
