<svg id="radio_copy" data-name="radio copy" xmlns="http://www.w3.org/2000/svg" width="150" height="150" viewBox="0 0 150 150">
  <defs>
    <style>
      .cls-1 {
        fill: #754c29;
      }

      .cls-1, .cls-2, .cls-3, .cls-4, .cls-5 {
        fill-rule: evenodd;
      }

      .cls-2 {
        fill: #b83027;
      }

      .cls-3 {
        fill: #231f20;
      }

      .cls-4 {
        fill: #f7f7f7;
      }

      .cls-5 {
        fill: #fbbd40;
      }
    </style>
  </defs>
  <g id="ussr_moscow_assault_4_icon">
    <path id="Shape_1_copy_9" data-name="Shape 1 copy 9" class="cls-1" d="M71.156,125.147a88.45,88.45,0,0,0-31.728,5.816c3.494,5.621,7.687,16.477,7.687,16.477,5.451-1.939,24.04-2.714,24.04-2.714h7.687s18.589,0.775,24.04,2.714c0,0,4.193-10.856,7.687-16.477a88.448,88.448,0,0,0-31.727-5.816H71.156Z"/>
    <path id="Shape_1_copy_10" data-name="Shape 1 copy 10" class="cls-2" d="M75,1.989L91.244,51.983H143.81l-42.527,30.9,16.244,49.994L75,101.976l-42.527,30.9L48.717,82.88,6.19,51.983H58.756Z"/>
    <path class="cls-3" d="M83.437,77.961L87.5,75.218a2.575,2.575,0,0,0,.9-1.05,4.379,4.379,0,0,1,1.059-1.579L117.178,54.25a5.707,5.707,0,0,0-.466-2.609,4.572,4.572,0,0,0-1.236-1.967L109,53.956l-0.274-.349s-3.127-.716-3.954-0.965l-0.323.214-1.014.671-0.323.214c-0.095.858-.658,4.016-0.658,4.016l0.213,0.389-36.883,24.4-0.809-1.222s-2.427.114-2.461,0.137l-1.431.947C61.052,82.433,60,84.622,60,84.622l0.473,0.715-0.994.658-5.35,3.539c-1.368.9-2.022,1.954-1.72,3.112a2.6,2.6,0,0,0,.7,1.057l0.065,0.107c0.554,3.943-2.049,6.925-2.987,7.811A5.393,5.393,0,0,1,46.4,103a2.253,2.253,0,0,0-1.9.729L24.52,122.252a1.751,1.751,0,0,0,.056,1.487c0.412,0.723,7.219,10.209,8.014,10.81s2.488-1.049,2.488-1.049a77.826,77.826,0,0,0,15.154-21.272,1.678,1.678,0,0,1,1.4-.965l1.093-.076a2.029,2.029,0,0,0,1.88-1.834c0.17-1.8.455-4.536,0.716-5.689a11.948,11.948,0,0,1,3.748-6.3,0.736,0.736,0,0,1,.479.242c0.493,0.519,2.062,2.365,2.062,2.365s0.709,1.073,2.761-.186,5.454-3.708,5.454-3.708,1.406-.881.194-2.863a15.194,15.194,0,0,1-1.075-1.626,0.746,0.746,0,0,1,.313-0.655c0.219-.195,1.291-0.9,1.291-0.9l0.064-.056,7.571-5.009L86.7,96.112a1.77,1.77,0,0,0,2.482.333l1.845-1.408a1.77,1.77,0,0,0,.333-2.481L83.083,81.717l0.135-3.126A0.557,0.557,0,0,1,83.437,77.961ZM112.6,53.237l0.876-.58a1.051,1.051,0,1,1,1.159,1.752l-0.876.58A1.051,1.051,0,1,1,112.6,53.237Z"/>
    <path id="_21" data-name="21" class="cls-4" d="M69.388,127.7a6.454,6.454,0,0,0-3.116.741,6.959,6.959,0,0,0-2.31,2l2.462,1.961a4.933,4.933,0,0,1,1.188-1.122,2.4,2.4,0,0,1,1.3-.359,1.539,1.539,0,0,1,1.155.424,1.6,1.6,0,0,1,.414,1.166A3.181,3.181,0,0,1,70,134.11a12.607,12.607,0,0,1-1.689,2.114q-1.209,1.286-3.737,3.682v2.963H74.748l0.436-3.224H69.453a37.524,37.524,0,0,0,3.454-3.269,8.789,8.789,0,0,0,1.569-2.266,5.287,5.287,0,0,0,.4-2.07,4,4,0,0,0-.621-2.168,4.288,4.288,0,0,0-1.863-1.58,6.985,6.985,0,0,0-3.007-.588h0Zm12.137,0.348-5.251,3.138L78.147,134l3.029-1.852v10.72H85.36V128.052H81.525Z"/>
    <path class="cls-5" d="M83.437,71.383L87.5,68.64a2.576,2.576,0,0,0,.9-1.05,4.379,4.379,0,0,1,1.059-1.579l27.717-18.338a5.707,5.707,0,0,0-.466-2.609,4.573,4.573,0,0,0-1.236-1.967L109,47.378l-0.274-.349s-3.127-.716-3.954-0.965l-0.323.214-1.014.671-0.323.214c-0.095.859-.658,4.016-0.658,4.016l0.213,0.389-36.883,24.4-0.809-1.222s-2.427.114-2.461,0.137l-1.431.947C61.052,75.855,60,78.044,60,78.044l0.473,0.715-0.994.658-5.35,3.54c-1.368.9-2.022,1.954-1.72,3.112a2.6,2.6,0,0,0,.7,1.057l0.065,0.107c0.554,3.943-2.049,6.925-2.987,7.811A5.392,5.392,0,0,1,46.4,96.425a2.253,2.253,0,0,0-1.9.73L24.52,115.673a1.753,1.753,0,0,0,.056,1.488c0.412,0.723,7.219,10.209,8.014,10.81s2.488-1.049,2.488-1.049A77.826,77.826,0,0,0,50.232,105.65a1.678,1.678,0,0,1,1.4-.965l1.093-.076a2.029,2.029,0,0,0,1.88-1.834c0.17-1.8.455-4.537,0.716-5.689a11.948,11.948,0,0,1,3.748-6.3,0.737,0.737,0,0,1,.479.242c0.493,0.519,2.062,2.365,2.062,2.365s0.709,1.072,2.761-.186,5.454-3.708,5.454-3.708,1.406-.881.194-2.863a15.184,15.184,0,0,1-1.075-1.626,0.745,0.745,0,0,1,.313-0.654c0.219-.195,1.291-0.9,1.291-0.9l0.064-.056,7.571-5.009L86.7,89.534a1.771,1.771,0,0,0,2.482.333l1.845-1.408a1.77,1.77,0,0,0,.333-2.481L83.083,75.139l0.135-3.126A0.557,0.557,0,0,1,83.437,71.383ZM112.6,46.659l0.876-.58a1.051,1.051,0,1,1,1.159,1.753l-0.876.58A1.05,1.05,0,1,1,112.6,46.659Z"/>
  </g>
</svg>
