<svg xmlns="http://www.w3.org/2000/svg" width="150" height="150" viewBox="0 0 150 150">
  <defs>
    <style>
      .cls-1 {
        fill: #754c29;
      }

      .cls-1, .cls-2, .cls-3, .cls-4, .cls-5 {
        fill-rule: evenodd;
      }

      .cls-2 {
        fill: #b83027;
      }

      .cls-3 {
        fill: #f7f7f7;
      }

      .cls-4 {
        fill: #231f20;
      }

      .cls-5 {
        fill: #fbbd40;
      }
    </style>
  </defs>
  <g id="ussr_moscow_flametrooper_2_icon">
    <path id="Shape_1_copy_2" data-name="Shape 1 copy 2" class="cls-1" d="M71.156,125.147a88.45,88.45,0,0,0-31.728,5.816c3.494,5.621,7.687,16.477,7.687,16.477,5.451-1.939,24.04-2.714,24.04-2.714h7.687s18.589,0.775,24.04,2.714c0,0,4.193-10.856,7.687-16.477a88.448,88.448,0,0,0-31.727-5.816H71.156Z"/>
    <path id="Shape_1_copy_2-2" data-name="Shape 1 copy 2" class="cls-2" d="M75,1.989L91.244,51.983H143.81l-42.527,30.9,16.244,49.994L75,101.976l-42.527,30.9L48.717,82.88,6.19,51.983H58.756Z"/>
    <path id="_927" data-name="927" class="cls-3" d="M63.57,127.7a6.838,6.838,0,0,0-3.04.664,5.224,5.224,0,0,0-2.135,1.852,4.862,4.862,0,0,0-.774,2.713,5.576,5.576,0,0,0,.588,2.626,4.3,4.3,0,0,0,1.569,1.721,4.054,4.054,0,0,0,2.157.6,4.137,4.137,0,0,0,1.623-.284,4.065,4.065,0,0,0,1.275-.893,5.067,5.067,0,0,1-1.166,1.819,5.873,5.873,0,0,1-1.907,1.188,19,19,0,0,1-3.094.893l0.85,2.964a17.348,17.348,0,0,0,5.676-1.809,7.988,7.988,0,0,0,3.279-3.29,10.794,10.794,0,0,0,1.068-5.034,6.349,6.349,0,0,0-.675-2.974,4.784,4.784,0,0,0-2.027-2.026,6.788,6.788,0,0,0-3.268-.73h0Zm-0.2,7.256q-1.438,0-1.438-2.245a2.328,2.328,0,0,1,.436-1.525,1.427,1.427,0,0,1,1.155-.523,1.4,1.4,0,0,1,.991.316A1.88,1.88,0,0,1,65,132.007a9.78,9.78,0,0,1,.12,1.972,2.276,2.276,0,0,1-.806.741,2,2,0,0,1-.937.24h0ZM75.947,127.7a6.454,6.454,0,0,0-3.116.741,6.959,6.959,0,0,0-2.31,2l2.462,1.961a4.934,4.934,0,0,1,1.188-1.122,2.4,2.4,0,0,1,1.3-.359,1.539,1.539,0,0,1,1.155.424,1.6,1.6,0,0,1,.414,1.166,3.181,3.181,0,0,1-.479,1.591,12.6,12.6,0,0,1-1.689,2.114q-1.209,1.286-3.737,3.682v2.963H81.307l0.436-3.224H76.012a37.524,37.524,0,0,0,3.454-3.269,8.787,8.787,0,0,0,1.569-2.266,5.287,5.287,0,0,0,.4-2.07,4,4,0,0,0-.621-2.168,4.287,4.287,0,0,0-1.863-1.58,6.985,6.985,0,0,0-3.007-.588h0Zm7.213,0.348v3.182H88.8L84.053,142l3.9,1.307,5.382-12.42v-2.833H83.159Z"/>
    <path id="Shape_22_copy_2" data-name="Shape 22 copy 2" class="cls-4" d="M120.826,48.936l-12.474,7.84a1.672,1.672,0,0,1-.937-0.464L95.794,64.09,58.858,89.744l1.358,2.769,0.1,0.751c-2.649,4.34-7.156,4.915-7.5,4.222a5.262,5.262,0,0,0-1.469-1.451,144.323,144.323,0,0,1-22.464,25.911l-0.835.46-6.616-7.432c-0.87-.977.73-2.672,0.73-2.672S37.176,100.755,37.5,100.331s3.071-1.173,3.581-1.555,5.757-5.006,5.644-6.184a14.018,14.018,0,0,1,.657-3.686l11.151-7.6,0.763,1.02L93.048,60.14l11.344-7.592c-1.162-2.335-.385-3.182-0.385-3.182l12-7.821s1.492,0.112,3.211,2.721A8.454,8.454,0,0,1,120.826,48.936ZM95.093,61.443l0.5,0.771,10.582-7.082c-0.2-.222-0.4-0.455-0.592-0.709Z"/>
    <path id="Shape_22_copy_2-2" data-name="Shape 22 copy 2" class="cls-5" d="M120.826,42.985l-12.474,7.84a1.672,1.672,0,0,1-.937-0.464L95.79,58.141,58.858,83.793l1.358,2.769,0.1,0.751c-2.649,4.34-7.156,4.915-7.5,4.222a5.263,5.263,0,0,0-1.469-1.451A144.315,144.315,0,0,1,28.883,116l-0.835.46-6.616-7.432c-0.87-.978.73-2.672,0.73-2.672S37.176,94.8,37.5,94.38s3.071-1.173,3.581-1.555,5.757-5.006,5.644-6.184a14.019,14.019,0,0,1,.657-3.686l11.151-7.6,0.763,1.02L93.048,54.189,104.392,46.6c-1.162-2.335-.385-3.182-0.385-3.182l12-7.821s1.492,0.112,3.211,2.721A8.454,8.454,0,0,1,120.826,42.985ZM95.093,55.492l0.5,0.771,10.582-7.082c-0.2-.222-0.4-0.455-0.592-0.709Z"/>
    <path class="cls-5" d="M120.781,34.667s-3.427-5.236.667-8.473,7.616,0.381,10.091-6c0,0,.952,4.094,0,5.522s-5.427,3.522-4.284,6.854c0,0,1.9,1.523,3.237-2.19,0,0,2.126,5.067-2.952,6.759a5.272,5.272,0,0,1-3.807,0,14.951,14.951,0,0,1,1.523-7.33S121.543,31.05,120.781,34.667Z"/>
  </g>
</svg>
