<svg xmlns="http://www.w3.org/2000/svg" width="150" height="150" viewBox="0 0 150 150">
  <defs>
    <style>
      .cls-1 {
        fill: #754c29;
      }

      .cls-1, .cls-2, .cls-3, .cls-4, .cls-5 {
        fill-rule: evenodd;
      }

      .cls-2 {
        fill: #f7f7f7;
      }

      .cls-3 {
        fill: #b83027;
      }

      .cls-4 {
        fill: #231f20;
      }

      .cls-5 {
        fill: #fbbd40;
      }
    </style>
  </defs>
  <g id="ussr_moscow_radioman_2_icon">
    <path id="Shape_1_copy_2" data-name="Shape 1 copy 2" class="cls-1" d="M71.156,125.147a88.45,88.45,0,0,0-31.728,5.816c3.494,5.621,7.687,16.477,7.687,16.477,5.451-1.939,24.04-2.714,24.04-2.714h7.687s18.589,0.775,24.04,2.714c0,0,4.193-10.856,7.687-16.477a88.448,88.448,0,0,0-31.727-5.816H71.156Z"/>
    <path id="_195" data-name="195" class="cls-2" d="M61.925,128.052l-5.251,3.138L58.548,134l3.029-1.852v10.72H65.76V128.052H61.925Zm12.616-.348a6.838,6.838,0,0,0-3.04.664,5.224,5.224,0,0,0-2.135,1.852,4.862,4.862,0,0,0-.773,2.713,5.577,5.577,0,0,0,.588,2.626,4.3,4.3,0,0,0,1.569,1.721,4.054,4.054,0,0,0,2.157.6,4.137,4.137,0,0,0,1.623-.284,4.066,4.066,0,0,0,1.275-.893,5.069,5.069,0,0,1-1.166,1.819,5.874,5.874,0,0,1-1.907,1.188,19,19,0,0,1-3.094.893l0.85,2.964a17.348,17.348,0,0,0,5.676-1.809,7.988,7.988,0,0,0,3.279-3.29,10.794,10.794,0,0,0,1.068-5.034,6.349,6.349,0,0,0-.675-2.974,4.783,4.783,0,0,0-2.026-2.026,6.788,6.788,0,0,0-3.268-.73h0Zm-0.2,7.256q-1.438,0-1.438-2.245a2.328,2.328,0,0,1,.436-1.525,1.427,1.427,0,0,1,1.155-.523,1.4,1.4,0,0,1,.991.316,1.879,1.879,0,0,1,.479,1.024,9.78,9.78,0,0,1,.12,1.972,2.276,2.276,0,0,1-.806.741,2,2,0,0,1-.937.24h0Zm18.5-6.908H83.126v8.3h2.811a3.048,3.048,0,0,1,1.569-.523,1.637,1.637,0,0,1,1.275.491,2.383,2.383,0,0,1,.447,1.623,2.282,2.282,0,0,1-.523,1.623,1.963,1.963,0,0,1-1.5.556,3.258,3.258,0,0,1-2.68-1.438l-2.375,2.157a6.367,6.367,0,0,0,5.251,2.462,7.568,7.568,0,0,0,3.29-.675,5.041,5.041,0,0,0,2.179-1.907,5.284,5.284,0,0,0,.763-2.843,5.742,5.742,0,0,0-.567-2.637,4.046,4.046,0,0,0-1.536-1.689,4.207,4.207,0,0,0-2.19-.577,4.932,4.932,0,0,0-2.07.457v-2.375h5.121Z"/>
    <path id="Shape_1_copy_2-2" data-name="Shape 1 copy 2" class="cls-3" d="M75,1.989L91.244,51.983H143.81l-42.527,30.9,16.244,49.994L75,101.976l-42.527,30.9L48.717,82.88,6.19,51.983H58.756Z"/>
    <path id="Shape_21_copy_2" data-name="Shape 21 copy 2" class="cls-4" d="M104.01,85.554a3.148,3.148,0,0,1-4.465,1.506L98.8,86.635a8.506,8.506,0,0,1,2.067,4.776c2.553,3.147,2.362,8.765-.754,13.64-3.344,5.23-8.878,7.765-12.9,6.135-5.248,1-15.849-5.061-12.882-3.164-5.385-3.442-5.835-12.357-1.005-19.911s13.109-10.888,18.494-7.446c0.194,0.124.352,0.284,0.533,0.422a6.766,6.766,0,0,1,3.377,2.247,3.11,3.11,0,0,1,.18-1.448c2.186-5.6,6.72-19.359,2.48-28.039a13.069,13.069,0,0,0-4.393-5.879s-13.179-7.107-25.842,1.421c-8.976,6.045-13.533,15.366-15.43,20.288,0.23,0.021.461,0.035,0.691,0.078a7.551,7.551,0,0,1,1.889.633,7.471,7.471,0,0,1,1.449.107c5.774,1.057,9.246,8.514,7.756,16.656s-7.378,13.886-13.152,12.83c-0.094-.017-0.182-0.05-0.275-0.071a7.6,7.6,0,0,1-3.063.067A7.694,7.694,0,0,1,45.163,98.8c-2.593-.667-4.6-2.957-5.691-6.133-2.678-1.921-4.08-6.188-3.243-10.762,0.888-4.851.882-7.99,4.3-8.543-0.171.177,5.467-7.738,4.784-5.892,1.923-5.2,7.167-16.967,17.347-24.344,13.373-9.691,25.39-5.685,33.142.711l6.719,5.814S113.815,62.174,104.01,85.554Z"/>
    <path id="Shape_21_copy_2-2" data-name="Shape 21 copy 2" class="cls-5" d="M104.01,80.547a3.148,3.148,0,0,1-4.465,1.506L98.8,81.628a8.506,8.506,0,0,1,2.067,4.776c2.553,3.147,2.362,8.765-.754,13.64-3.344,5.23-8.878,7.765-12.9,6.135a7.36,7.36,0,0,1-5.45-.863c-4.476-2.861-4.566-10.716-.2-17.543C85.565,81.5,91.93,78.3,96.41,80.026a3.147,3.147,0,0,1-.5-3.147c2.186-5.6,6.72-19.359,2.48-28.039a13.07,13.07,0,0,0-4.393-5.879s-13.179-7.106-25.842,1.421c-9.3,6.263-13.864,16.055-15.633,20.815a2.837,2.837,0,0,1-.58.939,8.146,8.146,0,0,1,4.812-.648C62.524,66.545,66,74,64.506,82.145s-7.378,13.887-13.152,12.83S42.108,86.461,43.6,78.318c0.923-5.044,3.536-9.164,6.762-11.32a2.8,2.8,0,0,1-1.563-.153l-1.038-.421c-2.842,2.365-5.188,6.6-6.124,11.716-1.234,6.744.357,12.951,3.647,15.689-2.653-.625-4.7-2.946-5.81-6.171-2.678-1.921-4.08-6.188-3.243-10.762,0.888-4.851,4.007-8.489,7.425-9.043a10.921,10.921,0,0,1,2.709-2.072,2.838,2.838,0,0,1-1.05-3.32c1.923-5.2,7.167-16.967,17.347-24.344,13.373-9.691,25.39-5.685,33.142.711l6.719,5.814S113.815,57.167,104.01,80.547Zm-50.143,8.6c2.889,0.529,6.009-3.289,6.968-8.528a13.665,13.665,0,0,0-.592-7.728,15.777,15.777,0,0,1-.118,5.209c-0.959,5.239-4.078,9.057-6.968,8.528a4.213,4.213,0,0,1-2.9-2.714C50.694,86.737,52,88.8,53.867,89.143ZM91.817,75.658a8.529,8.529,0,0,1,2.39,2.306c-5.063-.765-11.227,2.582-15.134,8.693-3.975,6.218-4.37,13.354-1.384,17.6a8.569,8.569,0,0,1-3.36-1.247c-5.385-3.442-5.835-12.357-1.005-19.911S86.432,72.216,91.817,75.658Z"/>
  </g>
</svg>
