<svg xmlns="http://www.w3.org/2000/svg" width="150" height="150" viewBox="0 0 150 150">
  <defs>
    <style>
      .cls-1 {
        fill: #b83027;
      }

      .cls-1, .cls-2, .cls-3, .cls-4, .cls-5, .cls-6 {
        fill-rule: evenodd;
      }

      .cls-2 {
        fill: #fbbd40;
      }

      .cls-3 {
        fill: #754c29;
      }

      .cls-4 {
        fill: #231f20;
      }

      .cls-5 {
        fill: #f7ba3f;
      }

      .cls-6 {
        fill: #f7f7f7;
      }
    </style>
  </defs>
  <g id="ussr_berlin_sniper_2_icon">
    <path id="Shape_11_copy_3" data-name="Shape 11 copy 3" class="cls-1" d="M124.179,7.034C114.16,28.843,85.009,24.2,52.7,25.7S7.763,49,7.763,49l30.655,68.242s11.861-19.273,42.5-20.756,58.315,2.471,67.7-16.8Z"/>
    <path id="Shape_11_copy_2" data-name="Shape 11 copy 2" class="cls-2" d="M1.376,46.4l43.93,96.567,2.77-5.145L8.1,42.837,3.355,41.649Z"/>
    <path id="Shape_11_copy" data-name="Shape 11 copy" class="cls-3" d="M85.767,106.5a106.852,106.852,0,0,0-38.323,7.024c4.221,6.791,9.285,19.9,9.285,19.9,6.584-2.342,29.038-3.278,29.038-3.278h9.285s22.454,0.936,29.038,3.278c0,0,5.064-13.112,9.285-19.9A106.852,106.852,0,0,0,95.053,106.5H85.767Z"/>
    <path class="cls-4" d="M32.538,100.544l0.012-.009L46.228,89.887a2.5,2.5,0,0,1,.333-0.2l0.071-.042a2.424,2.424,0,0,1,.263-0.121,2.156,2.156,0,0,1,.369-0.1c0.051-.011.1-0.034,0.15-0.042l0.7-.1a5.329,5.329,0,0,0,3.209-1.715c0.83-1.264,3.95-6.139,3.95-6.139l-1.9-.077-1.532-2.1a3.718,3.718,0,0,1,.383-2.5l-3.041,2.214-1.788-2.455L61.343,66.465l1.907,2.472-9.071,6.829a3.771,3.771,0,0,0,.329,2.124L85.224,55.415l0.028,0.039,14.009-10.2L113.27,35.5l0.851,1.169,5.32-3.873-1.617-2.221,1.461-1.064,1.617,2.222,5.5-4,1.065,1.462L115.185,38.13l0.213,0.292L102.2,49.286,87.759,59.8c-5.192,4.049-6.164,5.293-6.164,5.293L75.431,71.37l-0.585.435a51.583,51.583,0,0,0,3.682,4.555l-5.282,5.277a58.081,58.081,0,0,1-4.845-5.05l-4.459,3.281c-0.029.358-.064,0.777-0.086,0.913a3.714,3.714,0,0,0,.62,1.159,1.682,1.682,0,0,1-.435,2.105s-2.152,1.835-3.019,1.751-1.657-1.477-1.657-1.477a2.115,2.115,0,0,0-1.314-.117l-0.015.011s-2.768,3.447-3.347,4.494a10.241,10.241,0,0,0-.615,3.259,1.956,1.956,0,0,1-.926,1.523l-1.534.946L40.847,108.27l-8.308-7.725h0Z"/>
    <path id="Shape_17_copy" data-name="Shape 17 copy" class="cls-5" d="M32.538,93.544l0.012-.009L46.228,82.887a2.5,2.5,0,0,1,.333-0.2l0.071-.042a2.424,2.424,0,0,1,.263-0.121,2.156,2.156,0,0,1,.369-0.1c0.051-.011.1-0.034,0.15-0.042l0.7-.1a5.329,5.329,0,0,0,3.209-1.715c0.83-1.264,3.95-6.139,3.95-6.139l-1.9-.077-1.532-2.1a3.718,3.718,0,0,1,.383-2.5l-3.041,2.214-1.788-2.455L61.343,59.465l1.907,2.472-9.071,6.829a3.771,3.771,0,0,0,.329,2.124L85.224,48.415l0.028,0.039,14.009-10.2L113.27,28.5l0.851,1.169,5.32-3.873-1.617-2.221,1.461-1.064,1.617,2.222,5.5-4,1.065,1.462L115.185,31.13l0.213,0.292L102.2,42.286,87.759,52.8c-5.192,4.049-6.164,5.293-6.164,5.293L75.431,64.37l-0.585.435a51.583,51.583,0,0,0,3.682,4.555l-5.282,5.277a58.081,58.081,0,0,1-4.845-5.05l-4.459,3.281c-0.029.358-.064,0.777-0.086,0.913a3.714,3.714,0,0,0,.62,1.159,1.682,1.682,0,0,1-.435,2.105s-2.152,1.835-3.019,1.751-1.657-1.477-1.657-1.477a2.115,2.115,0,0,0-1.314-.117l-0.015.011s-2.768,3.447-3.347,4.494a10.241,10.241,0,0,0-.615,3.259,1.956,1.956,0,0,1-.926,1.523l-1.534.946L40.847,101.27l-8.308-7.725h0Z"/>
    <path id="_435" data-name="435" class="cls-6" d="M82.822,120.509v-3.226h-3.7l-0.5,3.226H76.786l3.334-7.867-3.683-1.308-4.075,9.545v2.811h6.211l0.022,2.921h4.228V123.69h1.525v-3.181H82.822Zm8-9.066a7.517,7.517,0,0,0-5.448,2.136l2.114,2.223a3.956,3.956,0,0,1,2.789-1.243,1.911,1.911,0,0,1,1.231.36,1.228,1.228,0,0,1,.447,1.013,1.391,1.391,0,0,1-.458,1.1,1.988,1.988,0,0,1-1.351.4H89.251l-0.48,2.877h1.308a2.443,2.443,0,0,1,1.6.435,1.709,1.709,0,0,1,.512,1.373,1.536,1.536,0,0,1-.534,1.264,2.116,2.116,0,0,1-1.384.436,3.428,3.428,0,0,1-1.493-.316,5.537,5.537,0,0,1-1.427-1.057l-2.245,2.2a6.672,6.672,0,0,0,5.47,2.4,7.866,7.866,0,0,0,3.28-.621,4.73,4.73,0,0,0,2.049-1.656,4.034,4.034,0,0,0,.686-2.277,3.438,3.438,0,0,0-.959-2.626,4.183,4.183,0,0,0-2.463-1.079,4.319,4.319,0,0,0,2.179-1.351,3.453,3.453,0,0,0,.741-2.245,3.244,3.244,0,0,0-.61-1.939,3.961,3.961,0,0,0-1.8-1.329,7.648,7.648,0,0,0-2.866-.48h0Zm18.109,0.349H99.21v8.3h2.811a3.041,3.041,0,0,1,1.569-.523,1.637,1.637,0,0,1,1.275.49,2.384,2.384,0,0,1,.447,1.624,2.285,2.285,0,0,1-.523,1.623,1.965,1.965,0,0,1-1.5.556,3.258,3.258,0,0,1-2.68-1.439l-2.376,2.158a6.368,6.368,0,0,0,5.252,2.462,7.571,7.571,0,0,0,3.291-.675,5.045,5.045,0,0,0,2.179-1.907,5.285,5.285,0,0,0,.763-2.844,5.736,5.736,0,0,0-.567-2.637,4.054,4.054,0,0,0-1.536-1.689,4.209,4.209,0,0,0-2.19-.577,4.917,4.917,0,0,0-2.07.458V114.8h5.121Z"/>
  </g>
</svg>
