<svg xmlns="http://www.w3.org/2000/svg" width="80" height="80" viewBox="0 0 80 80">
  <defs>
    <style>
      .cls-1 {
        fill: #7f8a46;
      }

      .cls-2 {
        fill: #f2f2f2;
      }

      .cls-3 {
        fill: #1a1a1a;
      }

      .cls-4 {
        fill: #333625;
      }

      .cls-5 {
        fill: #3c4029;
      }
    </style>
  </defs>
  <g id="Layer_5" data-name="Layer 5">
    <g>
      <path class="cls-1" d="M40,78.49976A32.34633,32.34633,0,0,1,7.69043,46.19019V13.63745C21.77686,13.01245,34.17432,8.46851,40,1.81128c5.82568,6.65723,18.22314,11.20117,32.30957,11.82617V46.19019A32.34633,32.34633,0,0,1,40,78.49976Z"/>
      <path class="cls-2" d="M40,1.81126C34.17432,8.46849,21.77686,13.01244,7.69043,13.63744V46.19017a32.30957,32.30957,0,0,0,64.61914,0V13.63744C58.22314,13.01244,45.82568,8.46849,40,1.81126Zm30.80945,44.3794a30.80951,30.80951,0,0,1-61.619,0V15.0609c13.22278-.81738,24.55627-4.90369,30.80945-11.06226,6.25317,6.15869,17.58667,10.24488,30.80957,11.06226Z"/>
      <path class="cls-3" d="M39.99994,2.55713C45.99188,9.011,58.08466,13.4176,71.80951,14.114V46.19067a31.80951,31.80951,0,0,1-63.619,0V14.114C21.91522,13.4176,34.008,9.011,39.99994,2.55713M40.45416,0h-.90832C34.2962,6.86426,21.43524,11.81079,6.19049,12.18823V46.19067a33.80951,33.80951,0,0,0,67.619,0V12.18823C58.56464,11.81079,45.70367,6.86426,40.45416,0Z"/>
      <path class="cls-4" d="M40,75.28648A28.68736,28.68736,0,0,1,11.34521,46.63121V17.20836l.478-.05957c11.06006-1.35547,20.95313-4.85156,27.85742-9.84473L40,7.07359l.31934.23047c6.9038,4.99317,16.79687,8.48926,27.85742,9.84473l.478.05957V46.63121A28.68736,28.68736,0,0,1,40,75.28648ZM12.43408,18.17027V46.63121a27.56592,27.56592,0,0,0,55.13184,0V18.17027C56.687,16.77184,46.93213,13.31969,40,8.41539,33.06738,13.31969,23.3125,16.77184,12.43408,18.17027Z"/>
      <circle class="cls-5" cx="40" cy="49.09373" r="20.60058"/>
      <polygon class="cls-2" points="40 11.22 41.765 16.652 47.477 16.652 42.856 20.01 44.621 25.442 40 22.085 35.379 25.442 37.144 20.01 32.523 16.652 38.235 16.652 40 11.22"/>
      <g>
        <polygon class="cls-2" points="54.884 19.504 55.928 22.717 59.306 22.717 56.573 24.703 57.617 27.915 54.884 25.93 52.151 27.915 53.195 24.703 50.462 22.717 53.84 22.717 54.884 19.504"/>
        <polygon class="cls-2" points="25.116 19.504 26.16 22.717 29.538 22.717 26.805 24.703 27.849 27.915 25.116 25.93 22.383 27.915 23.427 24.703 20.694 22.717 24.072 22.717 25.116 19.504"/>
      </g>
      <path class="cls-2" d="M52.17962,60.43135a2.75771,2.75771,0,0,1,.18878.78787.54393.54393,0,0,1-.16671.45522,1.08086,1.08086,0,0,1-.58843.20021,10.94534,10.94534,0,0,1-1.09922.04415q-.68854,0-1.09923-.0335a2.47292,2.47292,0,0,1-.62155-.11114.65294.65294,0,0,1-.311-.21086,1.69127,1.69127,0,0,1-.18879-.33266l-2.46449-6.995H33.88258l-2.35374,6.90592a1.16493,1.16493,0,0,1-.17775.34408.85593.85593,0,0,1-.322.24435,1.98471,1.98471,0,0,1-.59947.14464,9.44342,9.44342,0,0,1-1.01054.04415,8.23554,8.23554,0,0,1-1.05469-.05557,1.06291,1.06291,0,0,1-.5774-.21086.56184.56184,0,0,1-.15529-.45522,2.73029,2.73029,0,0,1,.18879-.78864l9.63685-26.69042a1.15693,1.15693,0,0,1,.23332-.39964.96687.96687,0,0,1,.42172-.24436,3.217,3.217,0,0,1,.71061-.1218q.43334-.0331,1.09923-.03349.71022,0,1.17686.03349a3.52,3.52,0,0,1,.75515.1218.99621.99621,0,0,1,.44418.25578,1.20327,1.20327,0,0,1,.244.4103ZM39.81107,36.87113H39.789L34.83717,51.19376h9.99235Z"/>
    </g>
  </g>
</svg>
