<svg id="_756_regiment_icon" data-name="756_regiment_icon" xmlns="http://www.w3.org/2000/svg" width="150" height="150" viewBox="0 0 150 150">
  <defs>
    <style>
      .cls-1 {
        fill: #b83027;
      }

      .cls-1, .cls-2, .cls-3, .cls-4, .cls-5, .cls-6 {
        fill-rule: evenodd;
      }

      .cls-2 {
        fill: #fbbd40;
      }

      .cls-3 {
        fill: #754c29;
      }

      .cls-4 {
        fill: #231f20;
      }

      .cls-5 {
        fill: #f7ba3f;
      }

      .cls-6 {
        fill: #f7f7f7;
      }
    </style>
  </defs>
  <path id="Shape_11_copy_3" data-name="Shape 11 copy 3" class="cls-1" d="M124.179,7.034C114.16,28.843,85.009,24.2,52.7,25.7S7.763,49,7.763,49l30.655,68.242s11.861-19.273,42.5-20.756,58.315,2.471,67.7-16.8Z"/>
  <path id="Shape_11_copy_2" data-name="Shape 11 copy 2" class="cls-2" d="M1.376,46.4l43.93,96.567,2.77-5.145L8.1,42.837,3.355,41.649Z"/>
  <path id="Shape_11_copy" data-name="Shape 11 copy" class="cls-3" d="M85.767,106.5a106.852,106.852,0,0,0-38.323,7.024c4.221,6.791,9.285,19.9,9.285,19.9,6.584-2.342,29.038-3.278,29.038-3.278h9.285s22.454,0.936,29.038,3.278c0,0,5.064-13.112,9.285-19.9A106.852,106.852,0,0,0,95.053,106.5H85.767Z"/>
  <path class="cls-4" d="M116.264,29.461l-1.723,1.413-0.151-.185-0.859-.085-0.021.017-0.79-.964-2.277-.225-2.3,1.884c-0.088.889-.137,1.388-0.225,2.277l0.791,0.964L88.9,50.8l-2.215,1.816L73.212,63.665a5.313,5.313,0,0,0-1.924.137c-0.189.126-2.953,2.226-6.064,4.6l-2.259-.1-0.984.807-0.3,1.995c-2.971,2.266-5.479,4.182-5.479,4.182l-0.29,1.4,1.506-.069L36.182,94.03l1.077,5.5,2.839,1.789,1.6-.558,3.9-3.2a5.69,5.69,0,0,1,2.636.788,7.349,7.349,0,0,1,1.466,2.708l3.455,8.9a2.423,2.423,0,0,0,2.383,1.065l5.857-2.814a1.318,1.318,0,0,0,.42-1.579,11.658,11.658,0,0,1-1.483-1.391L56.26,97.6s-0.375-1.545.756-1.923l1.273-.289,5.948-4.878a4.2,4.2,0,0,0,.541-3.942l0.364-1.4-1.984-2.009L78.1,70.905l3.546,2.856,0.158,1.448a4.645,4.645,0,0,0,1.972,1.4,1.7,1.7,0,0,0,1.967-.446l1.244-1.548c2.716,2,11.718,8.127,22.4,10.219l1.643-6.7s-8.456-1.3-19.554-9.106l0.414-.515L86.66,63.89l7.753-6.358s0.5-4.248,1.36-5.369l0.8-.863,20.43-16.752,0-.065,2.021-1.657A2.175,2.175,0,1,0,116.264,29.461Zm1.013,3.86-0.436.358L115,31.433l0.436-.358A1.452,1.452,0,0,1,117.277,33.321Z"/>
  <path id="Shape_18_copy" data-name="Shape 18 copy" class="cls-5" d="M116.264,23.461l-1.723,1.413-0.151-.185-0.859-.085-0.021.017-0.79-.964-2.277-.225-2.3,1.884c-0.088.889-.137,1.388-0.225,2.277l0.791,0.964L88.9,44.8l-2.215,1.816L73.212,57.665a5.313,5.313,0,0,0-1.924.137c-0.189.126-2.953,2.226-6.064,4.6l-2.259-.1-0.984.807-0.3,1.995c-2.971,2.266-5.479,4.182-5.479,4.182l-0.29,1.4,1.506-.069L36.182,88.03l1.077,5.5L40.1,95.316l1.6-.558,3.9-3.2a5.69,5.69,0,0,1,2.636.788A7.349,7.349,0,0,1,49.7,95.059l3.455,8.9a2.423,2.423,0,0,0,2.383,1.065l5.857-2.814a1.318,1.318,0,0,0,.42-1.579,11.663,11.663,0,0,1-1.483-1.391L56.26,91.6s-0.375-1.545.756-1.923l1.273-.289,5.948-4.878a4.2,4.2,0,0,0,.541-3.942l0.364-1.4-1.984-2.009L78.1,64.905l3.546,2.856,0.158,1.448a4.645,4.645,0,0,0,1.972,1.4,1.7,1.7,0,0,0,1.967-.446l1.244-1.548c2.716,2,11.718,8.127,22.4,10.219l1.643-6.7s-8.456-1.3-19.554-9.106l0.414-.515L86.66,57.89l7.753-6.358s0.5-4.248,1.36-5.369l0.8-.863,20.43-16.752,0-.065,2.021-1.657A2.175,2.175,0,1,0,116.264,23.461Zm1.013,3.86-0.436.358L115,25.433l0.436-.358A1.452,1.452,0,0,1,117.277,27.321Z"/>
  <path id="_756" data-name="756" class="cls-6" d="M72.558,111.792v3.182H78.2l-4.751,10.765,3.9,1.307,5.383-12.421v-2.833H72.558Zm22.076,0H84.915v8.3h2.811a3.039,3.039,0,0,1,1.569-.523,1.637,1.637,0,0,1,1.275.49,2.386,2.386,0,0,1,.447,1.624,2.282,2.282,0,0,1-.523,1.623,1.963,1.963,0,0,1-1.5.556,3.26,3.26,0,0,1-2.68-1.439l-2.375,2.158a6.368,6.368,0,0,0,5.252,2.462,7.57,7.57,0,0,0,3.291-.675,5.042,5.042,0,0,0,2.179-1.907,5.291,5.291,0,0,0,.763-2.844,5.742,5.742,0,0,0-.567-2.637,4.053,4.053,0,0,0-1.536-1.689,4.207,4.207,0,0,0-2.19-.577,4.919,4.919,0,0,0-2.07.458V114.8h5.121Zm10.438,4.707a4.532,4.532,0,0,0-2.9,1.046,4.455,4.455,0,0,1,.861-2.354,2.138,2.138,0,0,1,1.71-.784,3.046,3.046,0,0,1,.97.142,5.5,5.5,0,0,1,.9.4l1.548-2.506a5.766,5.766,0,0,0-1.58-.73,6.8,6.8,0,0,0-1.972-.273,6.478,6.478,0,0,0-3.7,1.057,6.807,6.807,0,0,0-2.419,2.975,10.937,10.937,0,0,0-.85,4.467,8.169,8.169,0,0,0,1.5,5.209,5.411,5.411,0,0,0,4.511,1.9,6.035,6.035,0,0,0,3.094-.762,5.126,5.126,0,0,0,1.983-2.016,5.675,5.675,0,0,0,.676-2.735,6.13,6.13,0,0,0-.545-2.68,4.075,4.075,0,0,0-1.525-1.744,4.21,4.21,0,0,0-2.267-.61h0Zm-1.373,7.54a1.141,1.141,0,0,1-.915-0.381,2.566,2.566,0,0,1-.469-1.242,15.8,15.8,0,0,1-.141-2.408,2.433,2.433,0,0,1,1.547-.654,1.161,1.161,0,0,1,1.057.49,3.357,3.357,0,0,1,.316,1.711,4.053,4.053,0,0,1-.338,1.83,1.115,1.115,0,0,1-1.057.654h0Z"/>
</svg>
