<svg xmlns="http://www.w3.org/2000/svg" width="150" height="150" viewBox="0 0 150 150">
  <defs>
    <style>
      .cls-1 {
        fill: #b83027;
      }

      .cls-1, .cls-2, .cls-3, .cls-4, .cls-5 {
        fill-rule: evenodd;
      }

      .cls-2 {
        fill: #231f20;
      }

      .cls-3 {
        fill: #fbbd40;
      }

      .cls-4 {
        fill: #754c29;
      }

      .cls-5 {
        fill: #f7f7f7;
      }
    </style>
  </defs>
  <path class="cls-1" d="M75,1.989L91.244,51.983H143.81l-42.527,30.9,16.244,49.994L75,101.976l-42.527,30.9L48.717,82.88,6.19,51.983H58.756Z"/>
  <g id="ussr_moscow_mortarman_1_icon">
    <path id="Shape_10_copy_3" data-name="Shape 10 copy 3" class="cls-2" d="M131.74,136.2a12.755,12.755,0,0,0-7.3-1.8L109.45,110.056h0L94.195,85.55v17.725a0.353,0.353,0,0,1,.07.2,1.44,1.44,0,0,1-.757,1.363v4.2a10.934,10.934,0,0,1,3.972,2.4,9.843,9.843,0,0,1,.982,2.727s1.963,3.763-.655,3.982-1.527-2.564-1.473-2.946,0.491-2.509.164-3.109-2.752-1.2-4.225-1.636-1.254-1.036-1.254-1.036v-4.691c-0.85,0-.64-1.5-0.631-1.57V85.491L58.976,130.149l-0.132,0H52.78c0.653-.821,1.3-1.672,1.915-2.553L87.919,80.359a2.487,2.487,0,0,1,2.468-1.008V64.7l-5.445,9.43a1.962,1.962,0,0,1-2.673.716,1.93,1.93,0,0,1-.623-0.583,2.755,2.755,0,0,1-.586-0.292l-0.928-.623-6.154,9.164a2.085,2.085,0,0,1-2.884.567L70.9,82.948a2.076,2.076,0,0,1-.9-1.877c-0.051-.014-0.1-0.023-0.151-0.038L58.905,97.323c0.754,1.3.947,2.541,0.385,3.41l0.011,0.008-3.449,5.135c2.348,2.073,4.268,4.135,4.709,5.359,0.952,2.644-1.269,9.2-1.269,9.2-4.125-.212-11.422,3.173-11.422,3.173C40.89,113.562,30.949,118,30.949,118L30,114.514c-2.115-1.692-4.019-7.509-4.019-7.509l-2.168-.521-0.476-.114s4.336-6.874,7.4-8.461c2.382-1.232,8.65-.611,13.315.718l3.339-4.972a1.991,1.991,0,0,1,.288-0.68c0.612-.911,1.946-1.186,3.544-0.916L62.69,74.983a2.763,2.763,0,0,1,.033-2.23L62.647,72.7l7.93-11.809H70.29a2.485,2.485,0,1,1,0-4.971h5.2l2.84-4.229V47.249a2.115,2.115,0,0,1,2.115-2.115h1.7l7.017-10.449a2.04,2.04,0,0,1,.137-0.3c1.05-1.564,4.034-1.4,6.664.366s3.911,4.466,2.86,6.03c-0.015.023-.039,0.036-0.055,0.058l0.011,0.007L91.967,50.987l5.165,4.934H109.85a2.485,2.485,0,0,1,0,4.971H94.195V79.975a2.492,2.492,0,0,1,3.007,1l24.344,39.1c4.823,7.746,7.339,9.029,9.771,9.452s3.808,3.49,3.808,3.49C132.481,133.128,131.74,136.2,131.74,136.2Z"/>
    <path id="Shape_10_copy_2" data-name="Shape 10 copy 2" class="cls-3" d="M131.74,128.2a12.755,12.755,0,0,0-7.3-1.8L109.45,102.056h0L94.195,77.55V95.276a0.351,0.351,0,0,1,.07.2,1.441,1.441,0,0,1-.757,1.364v4.2a10.934,10.934,0,0,1,3.972,2.4,9.843,9.843,0,0,1,.982,2.727s1.963,3.763-.655,3.982-1.527-2.564-1.473-2.946,0.491-2.509.164-3.109-2.752-1.2-4.225-1.636-1.254-1.036-1.254-1.036V96.733c-0.85,0-.64-1.5-0.631-1.57V77.491L57.97,123.578s-2.362,4.2-4.449,8.422H42.132c3.579-2.065,8.514-6.649,12.564-12.406L87.919,72.359a2.487,2.487,0,0,1,2.468-1.008V56.7l-5.445,9.43a1.962,1.962,0,0,1-2.673.716,1.93,1.93,0,0,1-.623-0.583,2.755,2.755,0,0,1-.586-0.292l-0.928-.623-6.154,9.164a2.085,2.085,0,0,1-2.884.567L70.9,74.948a2.076,2.076,0,0,1-.9-1.877c-0.051-.014-0.1-0.023-0.151-0.038L58.905,89.323c0.754,1.3.947,2.541,0.385,3.41L59.3,92.741l-3.449,5.135c2.348,2.072,4.268,4.135,4.709,5.359,0.952,2.644-1.269,9.2-1.269,9.2-4.125-.212-11.422,3.173-11.422,3.173C40.89,105.562,30.949,110,30.949,110L30,106.514C27.881,104.822,25.978,99,25.978,99l-2.168-.52-0.476-.114s4.336-6.875,7.4-8.461c2.382-1.232,8.65-.611,13.315.718l3.339-4.972a1.991,1.991,0,0,1,.288-0.68c0.612-.911,1.946-1.186,3.544-0.916L62.69,66.983a2.763,2.763,0,0,1,.033-2.23L62.647,64.7l7.93-11.809H70.29a2.485,2.485,0,1,1,0-4.971h5.2l2.84-4.229V39.249a2.115,2.115,0,0,1,2.115-2.115h1.7l7.017-10.449a2.04,2.04,0,0,1,.137-0.3c1.05-1.564,4.034-1.4,6.664.366s3.911,4.466,2.86,6.03c-0.015.023-.039,0.036-0.055,0.058l0.011,0.007L91.967,42.987l5.165,4.934H109.85a2.485,2.485,0,0,1,0,4.971H94.195V71.975a2.492,2.492,0,0,1,3.007,1l24.344,39.1c4.823,7.746,7.339,9.029,9.771,9.452s3.808,3.49,3.808,3.49C132.481,125.128,131.74,128.2,131.74,128.2Z"/>
    <path id="Shape_1_copy" data-name="Shape 1 copy" class="cls-4" d="M71.156,125.147a88.45,88.45,0,0,0-31.728,5.816c3.494,5.621,7.687,16.477,7.687,16.477,5.451-1.939,24.04-2.714,24.04-2.714h7.687s18.589,0.775,24.04,2.714c0,0,4.193-10.856,7.687-16.477a88.448,88.448,0,0,0-31.727-5.816H71.156Z"/>
    <path id="_17" data-name="17" class="cls-5" d="M69.48,128l-5.288,3.16,1.887,2.83,3.05-1.865v10.8h4.213V128H69.48Zm6.494,0v3.2h5.683l-4.783,10.839,3.927,1.316,5.419-12.506V128H75.974Z"/>
    <path id="Shape_10_copy" data-name="Shape 10 copy" class="cls-2" d="M97.527,32.083c-0.684,1.019-2.8.794-4.736-.5s-2.941-3.174-2.257-4.193,2.8-.794,4.736.5S98.212,31.063,97.527,32.083Z"/>
  </g>
</svg>
