<svg id="_267_tank_icon" data-name="267_tank_icon" xmlns="http://www.w3.org/2000/svg" width="150" height="150" viewBox="0 0 150 150">
  <defs>
    <style>
      .cls-1 {
        fill: #b83027;
      }

      .cls-1, .cls-2, .cls-3, .cls-4, .cls-5 {
        fill-rule: evenodd;
      }

      .cls-2 {
        fill: #fbbd40;
      }

      .cls-3 {
        fill: #754c29;
      }

      .cls-4 {
        fill: #231f20;
      }

      .cls-5 {
        fill: #f7f7f7;
      }
    </style>
  </defs>
  <path id="Shape_11_copy_3" data-name="Shape 11 copy 3" class="cls-1" d="M124.179,7.034C114.16,28.843,85.009,24.2,52.7,25.7S7.763,49,7.763,49l30.655,68.242s11.861-19.273,42.5-20.756,58.315,2.471,67.7-16.8Z"/>
  <path id="Shape_11_copy_2" data-name="Shape 11 copy 2" class="cls-2" d="M1.376,46.4l43.93,96.567,2.77-5.145L8.1,42.837,3.355,41.649Z"/>
  <path id="Shape_11_copy" data-name="Shape 11 copy" class="cls-3" d="M85.767,106.5a106.852,106.852,0,0,0-38.323,7.024c4.221,6.791,9.285,19.9,9.285,19.9,6.584-2.342,29.038-3.278,29.038-3.278h9.285s22.454,0.936,29.038,3.278c0,0,5.064-13.112,9.285-19.9A106.852,106.852,0,0,0,95.053,106.5H85.767Z"/>
  <path id="Shape_5_copy" data-name="Shape 5 copy" class="cls-4" d="M134.816,79.578l-6.859-1.991L123.7,73.328l-4.259-4.259-7.412-1.641V66.044l0.533-.224c0.383-.351,1.621-1.583,1.464-2.683-0.114-.8-3.361-11.118-4.011-13.179l-0.136-.432-0.442-.1-1.359-.3c-0.47-1.424-2.62-2.365-6.292-2.741a22.294,22.294,0,0,0-2.25-.123,9.582,9.582,0,0,0-3.043.4,10.521,10.521,0,0,0-1.611-.238c-1.116,0-21.205,1.169-22.06,1.218l-0.214.012-0.178.119a15.036,15.036,0,0,0-1.737,1.342L46.44,40.4a2.767,2.767,0,0,0-1.872,5.208l24.153,8.68c-0.124.417-.246,0.825-0.366,1.2a17.563,17.563,0,0,0-.8,5.812L67.6,61.527l0.16,0.166,2.875,2.986v1.34l-5.516.063-16.489,9.98-10.27-.135A10.036,10.036,0,0,0,36.531,77.1a9.734,9.734,0,0,0-1.932,2.1,10.275,10.275,0,0,0-.585.986,11.463,11.463,0,0,0-.792,1.879c-0.086.271-.153,0.525-0.213,0.768a10.076,10.076,0,0,0-.3,1.938l2.4-.015s0,0.008,0,.012a7.3,7.3,0,0,0,.23,2.261,7.709,7.709,0,0,0,.684,1.724,9.462,9.462,0,0,0,.592.92c0.17,0.24.364,0.5,0.577,0.779s0.447,0.574.7,0.884c1.367,1.7,3.205,3.8,4.834,5.625,0.3,0.331.586,0.653,0.864,0.962s0.569,0.629.831,0.917l0.645,0.708,0.056,0.061,0.544,0.594c0.541,0.587.869,0.941,0.869,0.941s0.009,0.012.027,0.033a2.055,2.055,0,0,0,1.082.546,3.629,3.629,0,0,0,.606.088,5.179,5.179,0,0,0,.608,0l37.723-1.88L93,92.41l5.276-.231c0.4,0.851.808,1.721,1.211,2.574l0.585,1.236c0.287,0.608.566,1.194,0.829,1.747l0.457,0.961c0.109,0.23.215,0.452,0.315,0.663,0.133,0.279.255,0.532,0.369,0.772l0.318,0.667c0.046,0.094.088,0.182,0.127,0.265,0.225,0.469.358,0.748,0.358,0.748a3.143,3.143,0,0,0,1.549.553h12.058l7.2-1.139,8.18-1.294a22.493,22.493,0,0,0,2-3.506,16.072,16.072,0,0,0,.668-1.713,11.594,11.594,0,0,0,.319-1.2c0.038-.185.073-0.381,0.1-0.586s0.06-.419.085-0.641c0.05-.444.088-0.918,0.113-1.413a33.648,33.648,0,0,0-.044-3.893,23.718,23.718,0,0,0-.484-3.546c-0.046-.2-0.095-0.392-0.146-0.573s-0.106-.35-0.163-0.507Z"/>
  <path id="_267" data-name="267" class="cls-5" d="M78.224,111.443a6.455,6.455,0,0,0-3.116.741,6.963,6.963,0,0,0-2.31,2l2.463,1.961a4.935,4.935,0,0,1,1.188-1.122,2.4,2.4,0,0,1,1.3-.36,1.54,1.54,0,0,1,1.155.425,1.6,1.6,0,0,1,.414,1.166,3.182,3.182,0,0,1-.479,1.591,12.61,12.61,0,0,1-1.689,2.114q-1.21,1.285-3.737,3.683v2.964H83.585l0.436-3.226H78.29a37.375,37.375,0,0,0,3.454-3.269,8.752,8.752,0,0,0,1.569-2.266,5.287,5.287,0,0,0,.4-2.07,4.01,4.01,0,0,0-.621-2.169,4.292,4.292,0,0,0-1.863-1.579,6.971,6.971,0,0,0-3.007-.589h0ZM93.566,116.5a4.531,4.531,0,0,0-2.9,1.046,4.459,4.459,0,0,1,.861-2.354,2.139,2.139,0,0,1,1.711-.784,3.046,3.046,0,0,1,.97.142,5.524,5.524,0,0,1,.9.4l1.547-2.506a5.749,5.749,0,0,0-1.58-.73,6.8,6.8,0,0,0-1.972-.273,6.477,6.477,0,0,0-3.7,1.057,6.809,6.809,0,0,0-2.419,2.975,10.937,10.937,0,0,0-.85,4.467,8.17,8.17,0,0,0,1.5,5.209,5.41,5.41,0,0,0,4.511,1.9,6.039,6.039,0,0,0,3.094-.762,5.131,5.131,0,0,0,1.983-2.016,5.672,5.672,0,0,0,.676-2.735,6.13,6.13,0,0,0-.545-2.68,4.073,4.073,0,0,0-1.525-1.744,4.207,4.207,0,0,0-2.266-.61h0Zm-1.373,7.54a1.141,1.141,0,0,1-.915-0.381,2.56,2.56,0,0,1-.468-1.242,15.689,15.689,0,0,1-.142-2.408,2.435,2.435,0,0,1,1.547-.654,1.161,1.161,0,0,1,1.057.49,3.352,3.352,0,0,1,.316,1.711,4.052,4.052,0,0,1-.338,1.83,1.115,1.115,0,0,1-1.057.654h0Zm6.69-12.247v3.182h5.644l-4.75,10.765,3.9,1.307,5.383-12.421v-2.833H98.883Z"/>
  <path id="Shape_5_copy-2" data-name="Shape 5 copy" class="cls-2" d="M135.7,76.216l-0.885-2.544-6.859-1.991L123.7,67.421l-4.259-4.259-7.412-1.641V60.138l0.533-.224c0.383-.351,1.621-1.583,1.464-2.683-0.114-.8-3.361-11.118-4.011-13.179l-0.136-.432-0.442-.1-1.359-.3c-0.47-1.424-2.62-2.365-6.292-2.741a22.294,22.294,0,0,0-2.25-.123,9.579,9.579,0,0,0-3.043.4,10.515,10.515,0,0,0-1.611-.238c-1.116,0-21.205,1.168-22.06,1.218l-0.214.012-0.178.119a15.024,15.024,0,0,0-1.737,1.342L46.44,34.491A2.767,2.767,0,0,0,44.568,39.7l24.153,8.68c-0.124.417-.246,0.825-0.366,1.2a17.562,17.562,0,0,0-.8,5.812L67.6,55.621l0.16,0.166,2.875,2.986v1.34l-5.516.063-16.489,9.98-10.27-.135a10.036,10.036,0,0,0-1.832,1.174A9.734,9.734,0,0,0,34.6,73.3a10.287,10.287,0,0,0-.585.986,11.46,11.46,0,0,0-.792,1.879c-0.086.271-.153,0.525-0.213,0.768a10.076,10.076,0,0,0-.3,1.938l2.4-.015s0,0.008,0,.012a7.3,7.3,0,0,0,.23,2.261,7.71,7.71,0,0,0,.684,1.724,9.475,9.475,0,0,0,.592.919c0.17,0.24.364,0.5,0.577,0.78s0.447,0.574.7,0.884c1.367,1.7,3.205,3.8,4.834,5.625,0.3,0.331.586,0.653,0.864,0.962s0.569,0.629.831,0.917l0.645,0.708,0.056,0.061L45.669,94.3c0.541,0.588.869,0.941,0.869,0.941s0.009,0.012.027,0.033a2.053,2.053,0,0,0,1.082.547,3.634,3.634,0,0,0,.606.087,5.083,5.083,0,0,0,.608,0l37.723-1.881L93,86.5l5.276-.231c0.4,0.851.808,1.722,1.211,2.574l0.585,1.237c0.287,0.607.566,1.194,0.829,1.747l0.457,0.961,0.315,0.663c0.133,0.279.255,0.532,0.369,0.773s0.224,0.468.318,0.666c0.046,0.094.088,0.183,0.127,0.265l0.358,0.748a3.142,3.142,0,0,0,1.549.553h12.058l7.2-1.139,8.18-1.295a22.487,22.487,0,0,0,2-3.506,16.07,16.07,0,0,0,.668-1.713,11.607,11.607,0,0,0,.319-1.2c0.038-.185.073-0.381,0.1-0.586s0.06-.419.085-0.641c0.05-.444.088-0.918,0.113-1.413a33.65,33.65,0,0,0-.044-3.893,23.722,23.722,0,0,0-.484-3.546c-0.046-.2-0.095-0.392-0.146-0.573s-0.106-.35-0.163-0.507l1.216-.2Z"/>
  <path id="Shape_5_copy-3" data-name="Shape 5 copy" class="cls-4" d="M128.833,91.419l-14,1.457s-5.207-10.751-5.4-12a13.144,13.144,0,0,1,.039-3l1.457-.6L112.21,74.5l18.31,3.353s0.449,5.785.424,7.751S128.833,91.419,128.833,91.419ZM58.258,91.8l-3.675-6.038,35.44-.263L85.56,90.488ZM66.975,51.71l0.788-3.544L80.9,52.619l-2.363,3.347Z"/>
</svg>
