<svg xmlns="http://www.w3.org/2000/svg" width="150" height="150" viewBox="0 0 150 150">
  <defs>
    <style>
      .cls-1 {
        fill: #b83027;
      }

      .cls-1, .cls-2, .cls-3, .cls-4, .cls-5, .cls-6 {
        fill-rule: evenodd;
      }

      .cls-2 {
        fill: #fbbd40;
      }

      .cls-3 {
        fill: #754c29;
      }

      .cls-4 {
        fill: #231f20;
      }

      .cls-5 {
        fill: #f7ba3f;
      }

      .cls-6 {
        fill: #f7f7f7;
      }
    </style>
  </defs>
  <g id="ussr_berlin_prem_assault_2_icon">
    <path id="Shape_11_copy_3" data-name="Shape 11 copy 3" class="cls-1" d="M124.179,7.034C114.16,28.843,85.009,24.2,52.7,25.7S7.763,49,7.763,49l30.655,68.242s11.861-19.273,42.5-20.756,58.315,2.471,67.7-16.8Z"/>
    <path id="Shape_11_copy_2" data-name="Shape 11 copy 2" class="cls-2" d="M1.376,46.4l43.93,96.567,2.77-5.145L8.1,42.837,3.355,41.649Z"/>
    <path id="Shape_11_copy" data-name="Shape 11 copy" class="cls-3" d="M85.767,106.5a106.852,106.852,0,0,0-38.323,7.024c4.221,6.791,9.285,19.9,9.285,19.9,6.584-2.342,29.038-3.278,29.038-3.278h9.285s22.454,0.936,29.038,3.278c0,0,5.064-13.112,9.285-19.9A106.852,106.852,0,0,0,95.053,106.5H85.767Z"/>
    <path class="cls-4" d="M116.264,29.461l-1.723,1.413-0.151-.185-0.859-.085-0.021.017-0.79-.964-2.277-.225-2.3,1.884c-0.088.889-.137,1.388-0.225,2.277l0.791,0.964L88.9,50.8l-2.215,1.816L73.212,63.665a5.313,5.313,0,0,0-1.924.137c-0.189.126-2.953,2.226-6.064,4.6l-2.259-.1-0.984.807-0.3,1.995c-2.971,2.266-5.479,4.182-5.479,4.182l-0.29,1.4,1.506-.069L36.182,94.03l1.077,5.5,2.839,1.789,1.6-.558,3.9-3.2a5.69,5.69,0,0,1,2.636.788,7.349,7.349,0,0,1,1.466,2.708l3.455,8.9a2.423,2.423,0,0,0,2.383,1.065l5.857-2.814a1.318,1.318,0,0,0,.42-1.579,11.658,11.658,0,0,1-1.483-1.391L56.26,97.6s-0.375-1.545.756-1.923l1.273-.289,5.948-4.878a4.2,4.2,0,0,0,.541-3.942l0.364-1.4-1.984-2.009L78.1,70.905l3.546,2.856,0.158,1.448a4.645,4.645,0,0,0,1.972,1.4,1.7,1.7,0,0,0,1.967-.446l1.244-1.548c2.716,2,11.718,8.127,22.4,10.219l1.643-6.7s-8.456-1.3-19.554-9.106l0.414-.515L86.66,63.89l7.753-6.358s0.5-4.248,1.36-5.369l0.8-.863,20.43-16.752,0-.065,2.021-1.657A2.175,2.175,0,1,0,116.264,29.461Zm1.013,3.86-0.436.358L115,31.433l0.436-.358A1.452,1.452,0,0,1,117.277,33.321Z"/>
    <path id="Shape_18_copy" data-name="Shape 18 copy" class="cls-5" d="M116.264,23.461l-1.723,1.413-0.151-.185-0.859-.085-0.021.017-0.79-.964-2.277-.225-2.3,1.884c-0.088.889-.137,1.388-0.225,2.277l0.791,0.964L88.9,44.8l-2.215,1.816L73.212,57.665a5.313,5.313,0,0,0-1.924.137c-0.189.126-2.953,2.226-6.064,4.6l-2.259-.1-0.984.807-0.3,1.995c-2.971,2.266-5.479,4.182-5.479,4.182l-0.29,1.4,1.506-.069L36.182,88.03l1.077,5.5L40.1,95.316l1.6-.558,3.9-3.2a5.69,5.69,0,0,1,2.636.788A7.349,7.349,0,0,1,49.7,95.059l3.455,8.9a2.423,2.423,0,0,0,2.383,1.065l5.857-2.814a1.318,1.318,0,0,0,.42-1.579,11.663,11.663,0,0,1-1.483-1.391L56.26,91.6s-0.375-1.545.756-1.923l1.273-.289,5.948-4.878a4.2,4.2,0,0,0,.541-3.942l0.364-1.4-1.984-2.009L78.1,64.905l3.546,2.856,0.158,1.448a4.645,4.645,0,0,0,1.972,1.4,1.7,1.7,0,0,0,1.967-.446l1.244-1.548c2.716,2,11.718,8.127,22.4,10.219l1.643-6.7s-8.456-1.3-19.554-9.106l0.414-.515L86.66,57.89l7.753-6.358s0.5-4.248,1.36-5.369l0.8-.863,20.43-16.752,0-.065,2.021-1.657A2.175,2.175,0,1,0,116.264,23.461Zm1.013,3.86-0.436.358L115,25.433l0.436-.358A1.452,1.452,0,0,1,117.277,27.321Z"/>
    <path id="_870" data-name="870" class="cls-6" d="M81.7,118.656a4.735,4.735,0,0,0,1.722-1.547,3.344,3.344,0,0,0,.567-1.809,3.259,3.259,0,0,0-1.493-2.822,6.944,6.944,0,0,0-4.021-1.035,7.451,7.451,0,0,0-2.92.534,4.492,4.492,0,0,0-1.939,1.46,3.445,3.445,0,0,0-.675,2.081,4.083,4.083,0,0,0,2.07,3.552,4.738,4.738,0,0,0-1.95,1.45,3.414,3.414,0,0,0-.686,2.124,3.728,3.728,0,0,0,.708,2.2,4.839,4.839,0,0,0,2.059,1.6,7.905,7.905,0,0,0,3.225.6,8.341,8.341,0,0,0,3.356-.61,4.892,4.892,0,0,0,2.114-1.634,3.791,3.791,0,0,0,.719-2.223,3.7,3.7,0,0,0-.687-2.19,5.9,5.9,0,0,0-2.168-1.733h0Zm-3.2-4.4a1.321,1.321,0,0,1,.992.349,1.291,1.291,0,0,1,.338.937,2.8,2.8,0,0,1-.2,1.068,2.388,2.388,0,0,1-.785.937l-0.523-.218a2.352,2.352,0,0,1-.937-0.752,1.741,1.741,0,0,1-.283-0.991,1.275,1.275,0,0,1,.37-0.992,1.464,1.464,0,0,1,1.024-.338h0Zm0.022,9.785a1.963,1.963,0,0,1-1.362-.458,1.529,1.529,0,0,1-.512-1.2,2.642,2.642,0,0,1,.272-1.2,2.394,2.394,0,0,1,.817-0.915l0.828,0.3a3.994,3.994,0,0,1,1.329.806,1.583,1.583,0,0,1,.392,1.134,1.46,1.46,0,0,1-.447,1.089,1.814,1.814,0,0,1-1.318.436h0Zm7.344-12.247v3.182h5.644l-4.751,10.765,3.9,1.307,5.383-12.421v-2.833H85.863Zm17.826-.349a5.245,5.245,0,0,0-4.424,2.016,9.306,9.306,0,0,0-1.547,5.764,9.4,9.4,0,0,0,1.547,5.786,5.822,5.822,0,0,0,8.847,0,9.4,9.4,0,0,0,1.548-5.786,9.3,9.3,0,0,0-1.548-5.764,5.244,5.244,0,0,0-4.423-2.016h0Zm0,3.116a1.209,1.209,0,0,1,.958.371,2.713,2.713,0,0,1,.469,1.362,30.207,30.207,0,0,1,0,5.851,2.807,2.807,0,0,1-.469,1.384,1.191,1.191,0,0,1-.958.381,1.154,1.154,0,0,1-.948-0.414,2.929,2.929,0,0,1-.48-1.405,29.086,29.086,0,0,1,0-5.721,2.872,2.872,0,0,1,.48-1.405,1.168,1.168,0,0,1,.948-0.4h0Z"/>
  </g>
</svg>
