<svg xmlns="http://www.w3.org/2000/svg" width="150" height="150" viewBox="0 0 150 150">
  <defs>
    <style>
      .cls-1 {
        fill: #754c29;
      }

      .cls-1, .cls-2, .cls-3, .cls-4, .cls-5 {
        fill-rule: evenodd;
      }

      .cls-2 {
        fill: #b83027;
      }

      .cls-3 {
        fill: #f7f7f7;
      }

      .cls-4 {
        fill: #231f20;
      }

      .cls-5 {
        fill: #fbbd40;
      }
    </style>
  </defs>
  <path id="Shape_1_copy_8" data-name="Shape 1 copy 8" class="cls-1" d="M71.156,125.147a88.45,88.45,0,0,0-31.728,5.816c3.494,5.621,7.687,16.477,7.687,16.477,5.451-1.939,24.04-2.714,24.04-2.714h7.687s18.589,0.775,24.04,2.714c0,0,4.193-10.856,7.687-16.477a88.448,88.448,0,0,0-31.727-5.816H71.156Z"/>
  <path id="Shape_1_copy_8-2" data-name="Shape 1 copy 8" class="cls-2" d="M75,1.989L91.244,51.983H143.81l-42.527,30.9,16.244,49.994L75,101.976l-42.527,30.9L48.717,82.88,6.19,51.983H58.756Z"/>
  <g id="ussr_moscow_rifle_2_icon">
    <path id="_709" data-name="709" class="cls-3" d="M57.9,128.616v2.945h5.224l-4.4,9.965,3.611,1.21,4.982-11.5v-2.622H57.9Zm16.5-.323a4.855,4.855,0,0,0-4.095,1.866,8.614,8.614,0,0,0-1.432,5.335,8.7,8.7,0,0,0,1.432,5.356,5.388,5.388,0,0,0,8.19,0,8.706,8.706,0,0,0,1.432-5.356,8.617,8.617,0,0,0-1.432-5.335,4.855,4.855,0,0,0-4.095-1.866h0Zm0,2.885a1.12,1.12,0,0,1,.888.343,2.506,2.506,0,0,1,.434,1.26,28.012,28.012,0,0,1,0,5.416,2.6,2.6,0,0,1-.434,1.281,1.1,1.1,0,0,1-.888.353,1.067,1.067,0,0,1-.877-0.383,2.709,2.709,0,0,1-.444-1.3,26.8,26.8,0,0,1,0-5.295,2.657,2.657,0,0,1,.444-1.3,1.081,1.081,0,0,1,.877-0.373h0Zm12.688-2.885a6.331,6.331,0,0,0-2.814.615,4.831,4.831,0,0,0-1.977,1.715,4.5,4.5,0,0,0-.716,2.511,5.163,5.163,0,0,0,.545,2.431,3.982,3.982,0,0,0,1.452,1.594,3.754,3.754,0,0,0,2,.554,3.83,3.83,0,0,0,1.5-.262,3.776,3.776,0,0,0,1.18-.827,4.685,4.685,0,0,1-1.079,1.684,5.448,5.448,0,0,1-1.765,1.1,17.656,17.656,0,0,1-2.864.827l0.787,2.743a16.076,16.076,0,0,0,5.255-1.674,7.4,7.4,0,0,0,3.036-3.046,9.992,9.992,0,0,0,.989-4.66,5.874,5.874,0,0,0-.625-2.753,4.429,4.429,0,0,0-1.876-1.876,6.282,6.282,0,0,0-3.026-.676h0Zm-0.181,6.717q-1.331,0-1.331-2.077a2.152,2.152,0,0,1,.4-1.412,1.322,1.322,0,0,1,1.069-.485,1.3,1.3,0,0,1,.918.293,1.739,1.739,0,0,1,.444.948,9.058,9.058,0,0,1,.111,1.826,2.1,2.1,0,0,1-.746.685,1.837,1.837,0,0,1-.867.222h0Z"/>
    <path class="cls-4" d="M126.691,128.129s-10.98-12.61-11.74-13.292a13.966,13.966,0,0,0-3.671-2.154,6.014,6.014,0,0,1-3.006-2.129c-0.532-.936-3.852-6.664-3.852-6.664-0.073-.135-0.14-0.274-0.2-0.412l1.733-2.238L104.5,99.932l-0.048-.02L85.395,82.793l1.024-1.14-5-4.493-1.985.276-1.185-1.064,38-34.143-0.341-.38,4.874-4.379-0.625-.7-4.875,4.379-0.341-.38,6.837-6.142-1.024-1.14-1.9,1.706-1.877-2.089-1.9,1.706,1.877,2.089-3.039,2.73-0.228-.253-38.3,34.409-0.341-.38L75,73.454l-0.051-.046-0.341.38L36.307,39.38l-0.228.253L33.041,36.9l1.877-2.089-1.9-1.706L31.142,35.2l-1.9-1.706-1.023,1.14,6.837,6.142-0.341.38L29.84,36.773l-0.626.7,4.874,4.379-0.341.38,38,34.143-1.185,1.064-1.985-.276-5,4.493,1.024,1.14L45.55,99.911l0,0L44.1,101.223l1.683,2.255c-0.062.138-.128,0.277-0.2,0.412,0,0-3.32,5.728-3.852,6.664a6.013,6.013,0,0,1-3.007,2.129,13.98,13.98,0,0,0-3.671,2.154c-0.76.682-11.74,13.292-11.74,13.292s-1.019,1.03-.223,1.916l8.091,6.46s0.411,0.2,1.19-.84S48.377,107.9,48.377,107.9a3.72,3.72,0,0,1,.605-1.109l1.646,1.832s0.936,0.532,2.7-.82l3.565-3.545,6.055-8.414a7.246,7.246,0,0,1,.317-3.564L75,80.732l11.74,11.545a7.245,7.245,0,0,1,.317,3.564l6.055,8.414,3.564,3.545c1.76,1.352,2.7.82,2.7,0.82l1.646-1.832a3.721,3.721,0,0,1,.605,1.109s15.231,26.724,16.01,27.768,1.19,0.84,1.19.84l8.091-6.46C127.71,129.159,126.691,128.129,126.691,128.129Z"/>
    <path class="cls-5" d="M126.691,121.685s-10.98-12.61-11.74-13.292a13.966,13.966,0,0,0-3.671-2.154,6.014,6.014,0,0,1-3.006-2.129c-0.532-.936-3.852-6.664-3.852-6.664-0.073-.135-0.14-0.274-0.2-0.413l1.733-2.238L104.5,93.488l-0.048-.02L85.395,76.349l1.024-1.14-5-4.493-1.985.276-1.185-1.064,38-34.143-0.341-.38,4.874-4.379-0.625-.7-4.875,4.379-0.341-.38,6.837-6.142-1.024-1.14-1.9,1.706-1.877-2.089-1.9,1.706,1.877,2.089-3.039,2.73-0.228-.253-38.3,34.409-0.341-.38L75,67.01l-0.051-.046-0.341.38-38.3-34.409-0.228.253-3.039-2.73,1.877-2.089-1.9-1.706-1.877,2.089-1.9-1.706-1.023,1.14,6.837,6.142-0.341.38L29.84,30.329l-0.626.7L34.089,35.4l-0.341.38,38,34.143-1.185,1.064-1.985-.276-5,4.493,1.024,1.14L45.55,93.468l0,0L44.1,94.779l1.683,2.254c-0.062.139-.128,0.277-0.2,0.413,0,0-3.32,5.728-3.852,6.664a6.013,6.013,0,0,1-3.007,2.129,13.98,13.98,0,0,0-3.671,2.154c-0.76.682-11.74,13.292-11.74,13.292s-1.019,1.03-.223,1.917l8.091,6.459s0.411,0.2,1.19-.84,16.01-27.768,16.01-27.768a3.72,3.72,0,0,1,.605-1.109l1.646,1.832s0.936,0.532,2.7-.82l3.565-3.545L62.943,89.4a7.246,7.246,0,0,1,.317-3.564L75,74.288l11.74,11.545a7.245,7.245,0,0,1,.317,3.564l6.055,8.414,3.564,3.545c1.76,1.352,2.7.82,2.7,0.82l1.646-1.832a3.721,3.721,0,0,1,.605,1.109s15.231,26.725,16.01,27.768,1.19,0.84,1.19.84l8.091-6.459A1.457,1.457,0,0,0,126.691,121.685Z"/>
  </g>
</svg>
