<svg xmlns="http://www.w3.org/2000/svg" width="150" height="150" viewBox="0 0 150 150">
  <defs>
    <style>
      .cls-1 {
        fill: #754c29;
      }

      .cls-1, .cls-2, .cls-3, .cls-4, .cls-5 {
        fill-rule: evenodd;
      }

      .cls-2 {
        fill: #b83027;
      }

      .cls-3 {
        fill: #231f20;
      }

      .cls-4 {
        fill: #f7f7f7;
      }

      .cls-5 {
        fill: #fbbd40;
      }
    </style>
  </defs>
  <path id="Shape_1_copy_8" data-name="Shape 1 copy 8" class="cls-1" d="M71.156,125.147a88.45,88.45,0,0,0-31.728,5.816c3.494,5.621,7.687,16.477,7.687,16.477,5.451-1.939,24.04-2.714,24.04-2.714h7.687s18.589,0.775,24.04,2.714c0,0,4.193-10.856,7.687-16.477a88.448,88.448,0,0,0-31.727-5.816H71.156Z"/>
  <path id="Shape_1_copy_8-2" data-name="Shape 1 copy 8" class="cls-2" d="M75,1.989L91.244,51.983H143.81l-42.527,30.9,16.244,49.994L75,101.976l-42.527,30.9L48.717,82.88,6.19,51.983H58.756Z"/>
  <g id="ussr_moscow_prem_sniper_1_icon">
    <path class="cls-3" d="M123.829,130.622L110.57,116.588a2.794,2.794,0,0,0-.333-0.271c-0.022-.019-0.044-0.037-0.072-0.058a2.649,2.649,0,0,0-.268-0.178,2.444,2.444,0,0,0-.389-0.175c-0.054-.02-0.1-0.054-0.158-0.071l-0.749-.226a5.936,5.936,0,0,1-3.243-2.429c-0.7-1.532-3.311-7.426-3.311-7.426l2.11,0.237,2.042-2.058a4.135,4.135,0,0,0,0-2.818l2.974,2.951,2.383-2.4L97.888,88.249l-2.517,2.4L104.2,99.7a4.2,4.2,0,0,1-.721,2.282L79.011,77.58c0.332-.359.679-0.731,1.058-1.132L94.188,62.435l12.7-14.19-0.284-.286,12.005-11.914-1.419-1.429-5.373,5.333-2.156-2.172-1.429,1.418,2.156,2.172-5.2,5.163-1.135-1.143L90.273,58.49l-13.7,13.6-0.037-.038L75,73.581l-1.536-1.532-0.037.038-13.7-13.6-13.775-13.1L44.818,46.53l-5.2-5.163,2.156-2.172-1.429-1.418-2.156,2.172-5.373-5.333L31.4,36.044l12,11.914-0.284.286,12.7,14.19L69.932,76.448c0.378,0.4.725,0.773,1.057,1.132l-24.471,24.4A4.2,4.2,0,0,1,45.8,99.7l8.832-9.051-2.517-2.4L38.443,101.665l2.383,2.4,2.974-2.951a4.14,4.14,0,0,0,0,2.818l2.042,2.058,2.11-.237s-2.611,5.894-3.311,7.426a5.933,5.933,0,0,1-3.243,2.429l-0.749.226c-0.056.017-.1,0.051-0.158,0.071a2.409,2.409,0,0,0-.389.175,2.674,2.674,0,0,0-.269.178c-0.027.021-.049,0.039-0.071,0.058a2.788,2.788,0,0,0-.333.271L26.171,130.622l-0.011.012h0l10.451,7.1,9.518-17.05,1.529-1.3a2.179,2.179,0,0,0,.763-1.833,11.414,11.414,0,0,1,.126-3.692c0.46-1.251,2.925-5.513,2.925-5.513l0.015-.015a2.359,2.359,0,0,1,1.466-.093s1.105,1.4,2.074,1.346,3.027-2.438,3.027-2.438a1.873,1.873,0,0,0,.123-2.391,4.136,4.136,0,0,1-.878-1.171c0-.154-0.031-0.62-0.06-1.02L61.594,98.2a64.727,64.727,0,0,0,6.186,4.741l4.923-6.7a57.451,57.451,0,0,1-4.824-4.393l0.571-.578,5.725-7.952A11.255,11.255,0,0,1,75,82.18a11.255,11.255,0,0,1,.824,1.137l5.725,7.952,0.571,0.578A57.451,57.451,0,0,1,77.3,96.24l4.923,6.7A64.716,64.716,0,0,0,88.406,98.2l4.355,4.365c-0.029.4-.061,0.866-0.06,1.02a4.134,4.134,0,0,1-.878,1.171,1.873,1.873,0,0,0,.123,2.391s2.059,2.385,3.027,2.438,2.074-1.346,2.074-1.346a2.359,2.359,0,0,1,1.466.093l0.015,0.015s2.465,4.262,2.926,5.513a11.412,11.412,0,0,1,.126,3.692,2.178,2.178,0,0,0,.763,1.833l1.528,1.3,9.518,17.05,10.451-7.1h0Z"/>
    <path id="_18" data-name="18" class="cls-4" d="M68.353,128.052L63.1,131.19,64.976,134,68,132.149v10.72h4.184V128.052H68.353Zm16.1,6.864a4.742,4.742,0,0,0,1.721-1.547,3.344,3.344,0,0,0,.567-1.809,3.259,3.259,0,0,0-1.493-2.821,6.942,6.942,0,0,0-4.02-1.035,7.45,7.45,0,0,0-2.92.534,4.49,4.49,0,0,0-1.939,1.459,3.448,3.448,0,0,0-.675,2.081,4.083,4.083,0,0,0,2.07,3.552,4.735,4.735,0,0,0-1.95,1.449,3.415,3.415,0,0,0-.686,2.125,3.727,3.727,0,0,0,.708,2.2,4.839,4.839,0,0,0,2.059,1.6,7.921,7.921,0,0,0,3.225.6,8.339,8.339,0,0,0,3.356-.61,4.891,4.891,0,0,0,2.114-1.634,3.791,3.791,0,0,0,.719-2.223,3.7,3.7,0,0,0-.686-2.19,5.9,5.9,0,0,0-2.168-1.732h0Zm-3.2-4.4a1.32,1.32,0,0,1,.991.348,1.291,1.291,0,0,1,.338.937,2.8,2.8,0,0,1-.2,1.068,2.388,2.388,0,0,1-.784.937l-0.523-.218a2.36,2.36,0,0,1-.937-0.752,1.741,1.741,0,0,1-.283-0.991,1.276,1.276,0,0,1,.37-0.992,1.464,1.464,0,0,1,1.024-.337h0Zm0.022,9.783a1.967,1.967,0,0,1-1.362-.457,1.531,1.531,0,0,1-.512-1.2,2.636,2.636,0,0,1,.272-1.2,2.4,2.4,0,0,1,.817-0.915l0.828,0.305a3.96,3.96,0,0,1,1.329.806,1.581,1.581,0,0,1,.392,1.133,1.458,1.458,0,0,1-.447,1.089,1.814,1.814,0,0,1-1.318.436h0Z"/>
    <path class="cls-5" d="M123.829,123.909L110.57,109.876a2.794,2.794,0,0,0-.333-0.271c-0.022-.019-0.044-0.037-0.072-0.058a2.49,2.49,0,0,0-.268-0.178,2.358,2.358,0,0,0-.389-0.175c-0.054-.021-0.1-0.055-0.158-0.071L108.6,108.9a5.938,5.938,0,0,1-3.243-2.43c-0.7-1.532-3.311-7.426-3.311-7.426l2.11,0.237,2.042-2.058a4.137,4.137,0,0,0,0-2.819l2.974,2.952,2.383-2.4L97.888,81.537l-2.517,2.4,8.832,9.051a4.2,4.2,0,0,1-.721,2.283l-24.471-24.4c0.332-.359.679-0.731,1.058-1.132L94.188,55.722l12.7-14.19-0.284-.286,12.005-11.914L117.186,27.9l-5.373,5.333-2.156-2.172-1.429,1.418,2.156,2.172-5.2,5.163-1.135-1.143-13.774,13.1-13.7,13.6-0.037-.038L75,66.869l-1.536-1.532-0.037.038-13.7-13.6-13.775-13.1-1.135,1.143-5.2-5.163,2.156-2.172-1.429-1.418-2.156,2.172L32.814,27.9,31.4,29.332l12,11.914-0.284.286,12.7,14.19L69.932,69.736c0.378,0.4.725,0.773,1.057,1.132L46.518,95.27a4.2,4.2,0,0,1-.721-2.283l8.832-9.051-2.517-2.4L38.443,94.953l2.383,2.4L43.8,94.4a4.142,4.142,0,0,0,0,2.819l2.042,2.058,2.11-.237s-2.611,5.894-3.311,7.426A5.935,5.935,0,0,1,41.4,108.9l-0.749.226c-0.056.016-.1,0.05-0.158,0.071a2.325,2.325,0,0,0-.389.175,2.513,2.513,0,0,0-.269.178c-0.027.021-.049,0.039-0.071,0.058a2.788,2.788,0,0,0-.333.271L26.171,123.909l-0.011.012h0l10.451,7.1,9.518-17.05,1.529-1.3a2.18,2.18,0,0,0,.763-1.833,11.414,11.414,0,0,1,.126-3.692c0.46-1.251,2.925-5.513,2.925-5.513l0.015-.015a2.352,2.352,0,0,1,1.466-.093s1.105,1.4,2.074,1.346,3.027-2.438,3.027-2.438a1.873,1.873,0,0,0,.123-2.391,4.137,4.137,0,0,1-.878-1.171c0-.154-0.031-0.62-0.06-1.02l4.355-4.366a64.7,64.7,0,0,0,6.186,4.741l4.923-6.7a57.422,57.422,0,0,1-4.824-4.392l0.571-.578,5.725-7.951A11.229,11.229,0,0,1,75,75.468a11.229,11.229,0,0,1,.824,1.137l5.725,7.951,0.571,0.578A57.422,57.422,0,0,1,77.3,89.527l4.923,6.7a64.685,64.685,0,0,0,6.187-4.741l4.355,4.366c-0.029.4-.061,0.866-0.06,1.02a4.135,4.135,0,0,1-.878,1.171,1.873,1.873,0,0,0,.123,2.391s2.059,2.384,3.027,2.438,2.074-1.346,2.074-1.346a2.352,2.352,0,0,1,1.466.093l0.015,0.015s2.465,4.262,2.926,5.513a11.412,11.412,0,0,1,.126,3.692,2.179,2.179,0,0,0,.763,1.833l1.528,1.3,9.518,17.05,10.451-7.1h0Z"/>
  </g>
</svg>
