<svg xmlns="http://www.w3.org/2000/svg" width="150" height="150" viewBox="0 0 150 150">
  <defs>
    <style>
      .cls-1 {
        fill: #754c29;
      }

      .cls-1, .cls-2, .cls-3, .cls-4, .cls-5 {
        fill-rule: evenodd;
      }

      .cls-2 {
        fill: #b83027;
      }

      .cls-3 {
        fill: #f7f7f7;
      }

      .cls-4 {
        fill: #231f20;
      }

      .cls-5 {
        fill: #fbbd40;
      }
    </style>
  </defs>
  <path id="Shape_1_copy_8" data-name="Shape 1 copy 8" class="cls-1" d="M71.156,125.147a88.45,88.45,0,0,0-31.728,5.816c3.494,5.621,7.687,16.477,7.687,16.477,5.451-1.939,24.04-2.714,24.04-2.714h7.687s18.589,0.775,24.04,2.714c0,0,4.193-10.856,7.687-16.477a88.448,88.448,0,0,0-31.727-5.816H71.156Z"/>
  <path id="Shape_1_copy_8-2" data-name="Shape 1 copy 8" class="cls-2" d="M75,1.989L91.244,51.983H143.81l-42.527,30.9,16.244,49.994L75,101.976l-42.527,30.9L48.717,82.88,6.19,51.983H58.756Z"/>
  <g id="ussr_moscow_mgun_2">
    <path id="_400" data-name="400" class="cls-3" d="M66.447,136.345V133.4H63.059l-0.458,2.95H60.927l3.049-7.195-3.368-1.2-3.727,8.729v2.571h5.68l0.02,2.67h3.866v-2.67h1.4v-2.91h-1.4Zm8.689-8.291a4.8,4.8,0,0,0-4.046,1.844,8.51,8.51,0,0,0-1.415,5.271,8.6,8.6,0,0,0,1.415,5.291,5.322,5.322,0,0,0,8.091,0,8.6,8.6,0,0,0,1.415-5.291,8.512,8.512,0,0,0-1.415-5.271,4.8,4.8,0,0,0-4.046-1.844h0Zm0,2.85a1.107,1.107,0,0,1,.877.339,2.479,2.479,0,0,1,.428,1.246,27.682,27.682,0,0,1,0,5.351,2.563,2.563,0,0,1-.428,1.265,1.09,1.09,0,0,1-.877.349,1.054,1.054,0,0,1-.867-0.379,2.674,2.674,0,0,1-.438-1.285,26.467,26.467,0,0,1,0-5.232,2.626,2.626,0,0,1,.438-1.285,1.068,1.068,0,0,1,.867-0.369h0Zm12.994-2.85a4.8,4.8,0,0,0-4.046,1.844,8.51,8.51,0,0,0-1.415,5.271,8.6,8.6,0,0,0,1.415,5.291,5.322,5.322,0,0,0,8.091,0,8.6,8.6,0,0,0,1.415-5.291,8.512,8.512,0,0,0-1.415-5.271,4.8,4.8,0,0,0-4.046-1.844h0Zm0,2.85a1.107,1.107,0,0,1,.877.339,2.48,2.48,0,0,1,.428,1.246,27.682,27.682,0,0,1,0,5.351,2.564,2.564,0,0,1-.428,1.265,1.09,1.09,0,0,1-.877.349,1.055,1.055,0,0,1-.867-0.379,2.676,2.676,0,0,1-.438-1.285,26.487,26.487,0,0,1,0-5.232,2.627,2.627,0,0,1,.438-1.285,1.068,1.068,0,0,1,.867-0.369h0Z"/>
    <path class="cls-4" d="M115.7,105.716a4.292,4.292,0,0,0-1.6.658,1.945,1.945,0,0,1-.846-1.41c0-.846-0.188-3.2-0.188-3.2a25.892,25.892,0,0,0-3.5-2.7c-0.442-.258-1.072-0.622-1.843-1.067l0.059-.015a28.436,28.436,0,0,0-2.655-1.316l1.006-2.819a7.3,7.3,0,0,0,1.081-.068l-0.054-.021a11.936,11.936,0,0,0,2.233-.589,5.1,5.1,0,0,0,1.864-1.407,0.951,0.951,0,0,0,0-.408l0.022-2.66s-1.6-3.948-15.417-6.486C84.2,80.072,78.428,80.342,76.915,80.477L61.458,71.872l0.378-2.16a2.126,2.126,0,0,1,.188-1.222,5.163,5.163,0,0,0,.47-1.692c-0.282-1.316-2.256-1.786-2.256-1.786l-0.47.658A3.106,3.106,0,0,0,57.7,65.2c-0.846.282-.376,1.88-0.282,2.444a1.281,1.281,0,0,1-.564,1.034l-0.42,1.68a4.725,4.725,0,0,0-1.1.551L44.035,64.775a2.3,2.3,0,0,0-1.176-1.693l-0.977-.531L30,54.279c-1.322-.844-3.265-0.163-4.341,1.522s-0.876,3.735.446,4.579a2.252,2.252,0,0,0,.309.162l-0.012.022,13.287,6.032,0.977,0.531a2.293,2.293,0,0,0,1.868.144l10.9,5.919c-1,2.165-.506,4.6,1.247,5.608a3.269,3.269,0,0,0,.485.224l4.859,2.639a5.126,5.126,0,0,0,.645,2.427,1.447,1.447,0,0,0-.184.182L28.233,123.379a1.442,1.442,0,0,0-.293.617l-2.389,5.033L26.4,132.7l4.982-.47,0.074-8.175L62.725,86.122a1.452,1.452,0,0,0,.121-0.18c0.116,0.038.233,0.075,0.354,0.1a3.788,3.788,0,0,0,2.42-.274L80.2,124.9l3.134,0.273L69.026,86.554l33.322,18.153a3.152,3.152,0,0,1,.944,2.043c0.188,1.692,0,2.914.47,3.666s2.726,1.692,3.478,1.41c0.658-.247,1.388-1.141,1.875-3,0.557,1.159,1.784,3.754,2.073,4.691,0.376,1.222.846,2.632,1.974,2.82a1.342,1.342,0,0,0,1.5-.564,3.884,3.884,0,0,1,2.162,2.82c0.564,2.256.376,6.675,1.316,7.709s5.546,1.128,5.546,1.128,4.8-14.1,4.889-15.511S116.076,105.81,115.7,105.716Z"/>
    <path class="cls-5" d="M115.7,99.138a4.292,4.292,0,0,0-1.6.658,1.945,1.945,0,0,1-.846-1.41c0-.846-0.188-3.2-0.188-3.2a25.918,25.918,0,0,0-3.5-2.7c-0.442-.258-1.072-0.622-1.843-1.067l0.059-.015a28.436,28.436,0,0,0-2.655-1.316l1.006-2.819a7.307,7.307,0,0,0,1.081-.068l-0.054-.021a11.944,11.944,0,0,0,2.233-.588,5.1,5.1,0,0,0,1.864-1.407,0.951,0.951,0,0,0,0-.408l0.022-2.66s-1.6-3.948-15.417-6.486C84.2,73.494,78.428,73.764,76.915,73.9L61.458,65.294l0.378-2.16a2.126,2.126,0,0,1,.188-1.222,5.162,5.162,0,0,0,.47-1.692c-0.282-1.316-2.256-1.786-2.256-1.786l-0.47.658a3.106,3.106,0,0,0-2.068-.47c-0.846.282-.376,1.88-0.282,2.444a1.281,1.281,0,0,1-.564,1.034l-0.42,1.68a4.725,4.725,0,0,0-1.1.552L44.035,58.2A2.3,2.3,0,0,0,42.859,56.5l-0.977-.531L30,47.7c-1.322-.844-3.265-0.163-4.341,1.522s-0.876,3.735.446,4.579a2.252,2.252,0,0,0,.309.162l-0.012.022,13.287,6.032,0.977,0.531a2.293,2.293,0,0,0,1.868.144l10.9,5.919c-1,2.165-.506,4.6,1.247,5.608a3.27,3.27,0,0,0,.485.224l4.859,2.639a5.126,5.126,0,0,0,.645,2.427,1.448,1.448,0,0,0-.184.182L28.233,116.8a1.442,1.442,0,0,0-.293.617l-2.389,5.033,0.846,3.666,4.982-.47,0.074-8.175L62.725,79.544a1.451,1.451,0,0,0,.121-0.18,3.673,3.673,0,0,0,.354.1,3.788,3.788,0,0,0,2.42-.274L80.2,118.317l3.134,0.273L69.026,79.976l33.322,18.153a3.152,3.152,0,0,1,.944,2.043c0.188,1.692,0,2.914.47,3.666s2.726,1.692,3.478,1.41c0.658-.247,1.388-1.141,1.875-3,0.557,1.159,1.784,3.754,2.073,4.691,0.376,1.222.846,2.632,1.974,2.82a1.342,1.342,0,0,0,1.5-.564,3.884,3.884,0,0,1,2.162,2.82c0.564,2.256.376,6.674,1.316,7.708s5.546,1.128,5.546,1.128,4.8-14.1,4.889-15.51S116.076,99.232,115.7,99.138Z"/>
  </g>
</svg>
