<svg xmlns="http://www.w3.org/2000/svg" width="150" height="150" viewBox="0 0 150 150">
  <defs>
    <style>
      .cls-1 {
        fill: #754c29;
      }

      .cls-1, .cls-2, .cls-3, .cls-4, .cls-5 {
        fill-rule: evenodd;
      }

      .cls-2 {
        fill: #b83027;
      }

      .cls-3 {
        fill: #f7f7f7;
      }

      .cls-4 {
        fill: #231f20;
      }

      .cls-5 {
        fill: #fbbd40;
      }
    </style>
  </defs>
  <path id="Shape_1_copy_8" data-name="Shape 1 copy 8" class="cls-1" d="M71.156,125.147a88.45,88.45,0,0,0-31.728,5.816c3.494,5.621,7.687,16.477,7.687,16.477,5.451-1.939,24.04-2.714,24.04-2.714h7.687s18.589,0.775,24.04,2.714c0,0,4.193-10.856,7.687-16.477a88.448,88.448,0,0,0-31.727-5.816H71.156Z"/>
  <path id="Shape_1_copy_8-2" data-name="Shape 1 copy 8" class="cls-2" d="M75,1.989L91.244,51.983H143.81l-42.527,30.9,16.244,49.994L75,101.976l-42.527,30.9L48.717,82.88,6.19,51.983H58.756Z"/>
  <g id="ussr_moscow_prem_mgun_1_icon">
    <path id="_521" data-name="521" class="cls-3" d="M68.908,129.373H60.02v7.593h2.571a2.78,2.78,0,0,1,1.435-.478,1.5,1.5,0,0,1,1.166.448,2.182,2.182,0,0,1,.409,1.485,2.09,2.09,0,0,1-.478,1.485,1.8,1.8,0,0,1-1.375.508A2.98,2.98,0,0,1,61.3,139.1l-2.172,1.973a5.826,5.826,0,0,0,4.8,2.252,6.917,6.917,0,0,0,3.009-.618,4.613,4.613,0,0,0,1.993-1.744,4.835,4.835,0,0,0,.7-2.6,5.248,5.248,0,0,0-.518-2.411,3.7,3.7,0,0,0-1.405-1.545,3.849,3.849,0,0,0-2-.528,4.512,4.512,0,0,0-1.893.419v-2.173H68.49Zm6.776-.319a5.9,5.9,0,0,0-2.85.678,6.369,6.369,0,0,0-2.112,1.833l2.252,1.794a4.5,4.5,0,0,1,1.086-1.026A2.2,2.2,0,0,1,75.246,132a1.4,1.4,0,0,1,1.056.389,1.463,1.463,0,0,1,.379,1.066,2.911,2.911,0,0,1-.439,1.455,11.531,11.531,0,0,1-1.544,1.933q-1.106,1.176-3.418,3.368v2.71h9.307l0.4-2.949H75.744a34.353,34.353,0,0,0,3.159-2.99,8.034,8.034,0,0,0,1.435-2.072,4.84,4.84,0,0,0,.369-1.894,3.666,3.666,0,0,0-.568-1.983,3.928,3.928,0,0,0-1.7-1.445,6.4,6.4,0,0,0-2.75-.538h0Zm11.1,0.319-4.8,2.87,1.714,2.571,2.77-1.694v9.805h3.826V129.373H86.785Z"/>
    <path class="cls-4" d="M115.7,105.716a4.292,4.292,0,0,0-1.6.658,1.945,1.945,0,0,1-.846-1.41c0-.846-0.188-3.2-0.188-3.2a25.892,25.892,0,0,0-3.5-2.7c-0.442-.258-1.072-0.622-1.843-1.067l0.059-.015a28.436,28.436,0,0,0-2.655-1.316l1.006-2.819a7.3,7.3,0,0,0,1.081-.068l-0.054-.021a11.936,11.936,0,0,0,2.233-.589,5.1,5.1,0,0,0,1.864-1.407,0.951,0.951,0,0,0,0-.408l0.022-2.66s-1.6-3.948-15.417-6.486C84.2,80.072,78.428,80.342,76.915,80.477L61.458,71.872l0.378-2.16a2.126,2.126,0,0,1,.188-1.222,5.163,5.163,0,0,0,.47-1.692c-0.282-1.316-2.256-1.786-2.256-1.786l-0.47.658A3.106,3.106,0,0,0,57.7,65.2c-0.846.282-.376,1.88-0.282,2.444a1.281,1.281,0,0,1-.564,1.034l-0.42,1.68a4.725,4.725,0,0,0-1.1.551L44.035,64.775a2.3,2.3,0,0,0-1.176-1.693l-0.977-.531L30,54.279c-1.322-.844-3.265-0.163-4.341,1.522s-0.876,3.735.446,4.579a2.252,2.252,0,0,0,.309.162l-0.012.022,13.287,6.032,0.977,0.531a2.293,2.293,0,0,0,1.868.144l10.9,5.919c-1,2.165-.506,4.6,1.247,5.608a3.269,3.269,0,0,0,.485.224l4.859,2.639a5.126,5.126,0,0,0,.645,2.427,1.447,1.447,0,0,0-.184.182L28.233,123.379a1.442,1.442,0,0,0-.293.617l-2.389,5.033L26.4,132.7l4.982-.47,0.074-8.175L62.725,86.122a1.452,1.452,0,0,0,.121-0.18c0.116,0.038.233,0.075,0.354,0.1a3.788,3.788,0,0,0,2.42-.274L80.2,124.9l3.134,0.273L69.026,86.554l33.322,18.153a3.152,3.152,0,0,1,.944,2.043c0.188,1.692,0,2.914.47,3.666s2.726,1.692,3.478,1.41c0.658-.247,1.388-1.141,1.875-3,0.557,1.159,1.784,3.754,2.073,4.691,0.376,1.222.846,2.632,1.974,2.82a1.342,1.342,0,0,0,1.5-.564,3.884,3.884,0,0,1,2.162,2.82c0.564,2.256.376,6.675,1.316,7.709s5.546,1.128,5.546,1.128,4.8-14.1,4.889-15.511S116.076,105.81,115.7,105.716Z"/>
    <path class="cls-5" d="M115.7,99.138a4.292,4.292,0,0,0-1.6.658,1.945,1.945,0,0,1-.846-1.41c0-.846-0.188-3.2-0.188-3.2a25.918,25.918,0,0,0-3.5-2.7c-0.442-.258-1.072-0.622-1.843-1.067l0.059-.015a28.436,28.436,0,0,0-2.655-1.316l1.006-2.819a7.307,7.307,0,0,0,1.081-.068l-0.054-.021a11.944,11.944,0,0,0,2.233-.588,5.1,5.1,0,0,0,1.864-1.407,0.951,0.951,0,0,0,0-.408l0.022-2.66s-1.6-3.948-15.417-6.486C84.2,73.494,78.428,73.764,76.915,73.9L61.458,65.294l0.378-2.16a2.126,2.126,0,0,1,.188-1.222,5.162,5.162,0,0,0,.47-1.692c-0.282-1.316-2.256-1.786-2.256-1.786l-0.47.658a3.106,3.106,0,0,0-2.068-.47c-0.846.282-.376,1.88-0.282,2.444a1.281,1.281,0,0,1-.564,1.034l-0.42,1.68a4.725,4.725,0,0,0-1.1.552L44.035,58.2A2.3,2.3,0,0,0,42.859,56.5l-0.977-.531L30,47.7c-1.322-.844-3.265-0.163-4.341,1.522s-0.876,3.735.446,4.579a2.252,2.252,0,0,0,.309.162l-0.012.022,13.287,6.032,0.977,0.531a2.293,2.293,0,0,0,1.868.144l10.9,5.919c-1,2.165-.506,4.6,1.247,5.608a3.27,3.27,0,0,0,.485.224l4.859,2.639a5.126,5.126,0,0,0,.645,2.427,1.448,1.448,0,0,0-.184.182L28.233,116.8a1.442,1.442,0,0,0-.293.617l-2.389,5.033,0.846,3.666,4.982-.47,0.074-8.175L62.725,79.544a1.451,1.451,0,0,0,.121-0.18,3.673,3.673,0,0,0,.354.1,3.788,3.788,0,0,0,2.42-.274L80.2,118.317l3.134,0.273L69.026,79.976l33.322,18.153a3.152,3.152,0,0,1,.944,2.043c0.188,1.692,0,2.914.47,3.666s2.726,1.692,3.478,1.41c0.658-.247,1.388-1.141,1.875-3,0.557,1.159,1.784,3.754,2.073,4.691,0.376,1.222.846,2.632,1.974,2.82a1.342,1.342,0,0,0,1.5-.564,3.884,3.884,0,0,1,2.162,2.82c0.564,2.256.376,6.674,1.316,7.708s5.546,1.128,5.546,1.128,4.8-14.1,4.889-15.51S116.076,99.232,115.7,99.138Z"/>
  </g>
</svg>
