<svg xmlns="http://www.w3.org/2000/svg" width="150" height="150" viewBox="0 0 150 150">
  <defs>
    <style>
      .cls-1 {
        fill: #b83027;
      }

      .cls-1, .cls-2, .cls-3, .cls-4, .cls-5, .cls-6 {
        fill-rule: evenodd;
      }

      .cls-2 {
        fill: #fbbd40;
      }

      .cls-3 {
        fill: #754c29;
      }

      .cls-4 {
        fill: #231f20;
      }

      .cls-5 {
        fill: #f7ba3f;
      }

      .cls-6 {
        fill: #f7f7f7;
      }
    </style>
  </defs>
  <g id="ussr_berlin_pilot_assaulter_2_icon">
    <path id="Shape_11_copy_3" data-name="Shape 11 copy 3" class="cls-1" d="M124.179,7.034C114.16,28.843,85.009,24.2,52.7,25.7S7.763,49,7.763,49l30.655,68.242s11.861-19.273,42.5-20.756,58.315,2.471,67.7-16.8Z"/>
    <path id="Shape_11_copy_2" data-name="Shape 11 copy 2" class="cls-2" d="M1.376,46.4l43.93,96.567,2.77-5.145L8.1,42.837,3.355,41.649Z"/>
    <path id="Shape_11_copy" data-name="Shape 11 copy" class="cls-3" d="M85.767,106.5a106.852,106.852,0,0,0-38.323,7.024c4.221,6.791,9.285,19.9,9.285,19.9,6.584-2.342,29.038-3.278,29.038-3.278h9.285s22.454,0.936,29.038,3.278c0,0,5.064-13.112,9.285-19.9A106.852,106.852,0,0,0,95.053,106.5H85.767Z"/>
    <path class="cls-4" d="M141.856,38.3S116.333,57.918,109.062,63.68a12.492,12.492,0,0,1-.022,2.293c13.213-1.019,14.363-.2,14.363-0.2s3.324,0.82,2.59,2.547-7.079,1.338-7.079,1.338l-10.329-1.316c-0.054.192-.095,0.384-0.159,0.576-1.51,4.565-5.143,7.649-8.826,7.886a1.575,1.575,0,0,1-.241.046,44.366,44.366,0,0,1-2.978,5.671c-4.317,6.863-6.734,7.986-6.734,7.986a1.143,1.143,0,0,1-1.036-.6c-0.216-.6.432-3.928,2.676-8.417a40.189,40.189,0,0,1,2.971-4.741,21.3,21.3,0,0,1-4.438-.569l-0.078-.029L25.865,103.641a28.655,28.655,0,0,1-6.563,1.953c-1.944.328-3.868,0.437-4.145-.332-0.583-1.618,9.114-7.2,9.114-7.2l43.771-24.8s2.007-1.1,2.331-2.072a8.361,8.361,0,0,0-.622-3.13l-0.738-.3S60.725,62.67,56.5,58.7l-0.018-.024c-3.133,1.369-11.365,4.949-13.45,5.679-2.59.907-3.151,0.95-3.151,0.6s4.36-2.935,4.36-2.935L55.05,56.416a41.327,41.327,0,0,1-2.871-6.351c-2.029-5.655-1.209-6.518-.648-6.691l7.986,8.59,3.826,0.219c3.4-1.485,10.938-4.722,11.671-4.622,0.95,0.13-.3.907-0.3,0.907L68.2,52.461l0.377,0.021s3.5-2.038,6.648-1.942a6.789,6.789,0,0,1,4.187,1.295l2.676,2.245,14.944,0.405L95,50.41S90.294,40.4,92.539,40.4s4.446,6.087,4.705,6.691c0.131,0.306,1.481,4.058,2.782,7.686a13.452,13.452,0,0,1,1.535.415l28.7-15.007s10.943-4.662,12.173-3.95S141.856,38.3,141.856,38.3Z"/>
    <path class="cls-5" d="M141.856,32.3S116.333,51.918,109.062,57.68a13.055,13.055,0,0,1-.636,5.242c-1.51,4.565-5.143,7.649-8.825,7.886a1.29,1.29,0,0,1-.328.063c-2.892.043-7.986-.173-9.454-0.691l-0.057-.021c0.043,0.13.1,0.242,0.142,0.377l-3.742,1.61a2.361,2.361,0,0,0,.168-0.527L25.865,97.641A28.645,28.645,0,0,1,19.3,99.594c-1.944.327-3.868,0.437-4.145-.332-0.583-1.619,9.114-7.2,9.114-7.2l43.771-24.8s2.007-1.1,2.331-2.072a8.36,8.36,0,0,0-.622-3.13l-0.738-.3S60.725,56.67,56.5,52.7l-0.018-.024c-3.133,1.369-11.364,4.949-13.45,5.679-2.59.907-3.151,0.95-3.151,0.6s4.36-2.935,4.36-2.935L55.05,50.416a41.337,41.337,0,0,1-2.871-6.351c-2.029-5.655-1.209-6.518-.647-6.691l7.986,8.59,3.826,0.219c3.4-1.484,10.938-4.721,11.671-4.622,0.95,0.13-.3.907-0.3,0.907L68.2,46.461l0.377,0.022s3.5-2.038,6.648-1.942a6.79,6.79,0,0,1,4.187,1.295l2.676,2.245,15.928,0.432a12.756,12.756,0,0,1,3.54.676l28.7-15.007s10.943-4.662,12.173-3.95S141.856,32.3,141.856,32.3Z"/>
    <path id="Shape_14_copy" data-name="Shape 14 copy" class="cls-4" d="M107.535,61.69c-1.388,4.194-5.187,6.709-8.485,5.618s-4.847-5.376-3.459-9.571,5.187-6.709,8.485-5.618S108.923,57.5,107.535,61.69ZM76.054,63.5s12.066-.885,14.351,7.47l-3.617,2.61S88.867,66.876,76.054,63.5ZM74.647,52.634s-0.718-3.658.777-5.439,3.755-.259,5.18,1.425A52.454,52.454,0,0,0,74.647,52.634Z"/>
    <path id="Shape_14_copy_2" data-name="Shape 14 copy 2" class="cls-5" d="M125.993,62.324c-0.734,1.727-7.079,1.338-7.079,1.338l-11.181-1.425,0.112-.519c-0.919,2.163-4.208,3.342-6.2,3.046a51.962,51.962,0,0,1-5.265,11.761c-4.317,6.863-6.734,7.986-6.734,7.986a1.143,1.143,0,0,1-1.036-.6c-0.216-.6.432-3.928,2.676-8.417,1.828-3.655,6.686-9.74,8.43-11.876a5.088,5.088,0,0,1-.584-4.689,5.671,5.671,0,0,1,1.8-2.646L95,44.41S90.294,34.4,92.539,34.4s4.446,6.086,4.705,6.691c0.241,0.561,4.572,12.687,5.188,14.414a3,3,0,0,1,1.721.021c1.683,0.557,3.939,2.743,3.959,4.96l0.1-.445c14.029-1.122,15.2-.259,15.2-0.259S126.727,60.6,125.993,62.324Z"/>
    <path id="_948" data-name="948" class="cls-6" d="M77.146,111.443a6.84,6.84,0,0,0-3.04.665,5.21,5.21,0,0,0-2.136,1.852,4.861,4.861,0,0,0-.774,2.713,5.576,5.576,0,0,0,.588,2.626,4.3,4.3,0,0,0,1.569,1.722,4.054,4.054,0,0,0,2.157.6,4.139,4.139,0,0,0,1.624-.283,4.085,4.085,0,0,0,1.275-.894,5.073,5.073,0,0,1-1.166,1.82,5.909,5.909,0,0,1-1.907,1.188,19.213,19.213,0,0,1-3.094.893l0.85,2.964a17.352,17.352,0,0,0,5.677-1.809,7.994,7.994,0,0,0,3.28-3.29,10.8,10.8,0,0,0,1.068-5.034,6.347,6.347,0,0,0-.675-2.975,4.792,4.792,0,0,0-2.027-2.027,6.8,6.8,0,0,0-3.269-.73h0Zm-0.2,7.257q-1.438,0-1.438-2.245a2.327,2.327,0,0,1,.436-1.525,1.427,1.427,0,0,1,1.155-.523,1.4,1.4,0,0,1,.992.316,1.88,1.88,0,0,1,.48,1.024,9.781,9.781,0,0,1,.12,1.972,2.267,2.267,0,0,1-.806.741,2,2,0,0,1-.937.24h0Zm18.371,1.809v-3.226h-3.7l-0.5,3.226H89.284l3.334-7.867-3.683-1.308-4.075,9.545v2.811h6.211l0.022,2.921H95.32V123.69h1.525v-3.181H95.32Zm12.7-1.853a4.734,4.734,0,0,0,1.722-1.547,3.349,3.349,0,0,0,.566-1.809,3.259,3.259,0,0,0-1.493-2.822,6.941,6.941,0,0,0-4.02-1.035,7.446,7.446,0,0,0-2.92.534,4.491,4.491,0,0,0-1.94,1.46,3.445,3.445,0,0,0-.675,2.081,4.083,4.083,0,0,0,2.07,3.552,4.737,4.737,0,0,0-1.951,1.45,3.414,3.414,0,0,0-.686,2.124,3.728,3.728,0,0,0,.708,2.2,4.845,4.845,0,0,0,2.059,1.6,7.909,7.909,0,0,0,3.226.6,8.342,8.342,0,0,0,3.356-.61,4.9,4.9,0,0,0,2.114-1.634,3.794,3.794,0,0,0,.719-2.223,3.7,3.7,0,0,0-.687-2.19,5.892,5.892,0,0,0-2.168-1.733h0Zm-3.2-4.4a1.32,1.32,0,0,1,.991.349,1.292,1.292,0,0,1,.338.937,2.81,2.81,0,0,1-.2,1.068,2.393,2.393,0,0,1-.785.937l-0.523-.218a2.353,2.353,0,0,1-.937-0.752,1.741,1.741,0,0,1-.283-0.991,1.276,1.276,0,0,1,.37-0.992,1.467,1.467,0,0,1,1.025-.338h0Zm0.021,9.785a1.964,1.964,0,0,1-1.362-.458,1.531,1.531,0,0,1-.512-1.2,2.641,2.641,0,0,1,.273-1.2,2.385,2.385,0,0,1,.817-0.915l0.828,0.3a3.992,3.992,0,0,1,1.329.806,1.581,1.581,0,0,1,.392,1.134,1.461,1.461,0,0,1-.446,1.089,1.815,1.815,0,0,1-1.319.436h0Z"/>
  </g>
</svg>
