<svg xmlns="http://www.w3.org/2000/svg" width="150" height="150" viewBox="0 0 150 150">
  <defs>
    <style>
      .cls-1 {
        fill: #754c29;
      }

      .cls-1, .cls-2, .cls-3, .cls-4, .cls-5 {
        fill-rule: evenodd;
      }

      .cls-2 {
        fill: #b83027;
      }

      .cls-3 {
        fill: #f7f7f7;
      }

      .cls-4 {
        fill: #231f20;
      }

      .cls-5 {
        fill: #fbbd40;
      }
    </style>
  </defs>
  <path id="Shape_1_copy_8" data-name="Shape 1 copy 8" class="cls-1" d="M71.156,125.147a88.45,88.45,0,0,0-31.728,5.816c3.494,5.621,7.687,16.477,7.687,16.477,5.451-1.939,24.04-2.714,24.04-2.714h7.687s18.589,0.775,24.04,2.714c0,0,4.193-10.856,7.687-16.477a88.448,88.448,0,0,0-31.727-5.816H71.156Z"/>
  <path id="Shape_1_copy_8-2" data-name="Shape 1 copy 8" class="cls-2" d="M75,1.989L91.244,51.983H143.81l-42.527,30.9,16.244,49.994L75,101.976l-42.527,30.9L48.717,82.88,6.19,51.983H58.756Z"/>
  <g id="ussr_moscow_prem_engineer_1_icon">
    <path id="_696" data-name="696" class="cls-3" d="M64.448,132.586a4.166,4.166,0,0,0-2.669.964,4.1,4.1,0,0,1,.793-2.167,1.969,1.969,0,0,1,1.575-.723,2.818,2.818,0,0,1,.893.131,5.131,5.131,0,0,1,.833.371l1.425-2.308a5.358,5.358,0,0,0-1.455-.672,6.281,6.281,0,0,0-1.816-.251,5.958,5.958,0,0,0-3.411.974,6.274,6.274,0,0,0-2.227,2.738,10.082,10.082,0,0,0-.782,4.114,7.521,7.521,0,0,0,1.385,4.795,4.979,4.979,0,0,0,4.153,1.746,5.558,5.558,0,0,0,2.849-.7,4.717,4.717,0,0,0,1.826-1.856,5.222,5.222,0,0,0,.622-2.518,5.65,5.65,0,0,0-.5-2.468,3.755,3.755,0,0,0-1.4-1.6,3.872,3.872,0,0,0-2.087-.562h0Zm-1.264,6.943a1.05,1.05,0,0,1-.843-0.351,2.359,2.359,0,0,1-.431-1.144,14.446,14.446,0,0,1-.13-2.217,2.244,2.244,0,0,1,1.425-.6,1.069,1.069,0,0,1,.973.451,3.086,3.086,0,0,1,.291,1.575,3.732,3.732,0,0,1-.311,1.686,1.028,1.028,0,0,1-.973.6h0Zm12.039-11.6a6.309,6.309,0,0,0-2.8.612,4.808,4.808,0,0,0-1.966,1.706,4.475,4.475,0,0,0-.712,2.5,5.137,5.137,0,0,0,.542,2.418,3.961,3.961,0,0,0,1.445,1.585,3.736,3.736,0,0,0,1.986.552,3.81,3.81,0,0,0,1.495-.261,3.756,3.756,0,0,0,1.174-.823,4.678,4.678,0,0,1-1.073,1.676,5.44,5.44,0,0,1-1.756,1.093,17.637,17.637,0,0,1-2.849.823l0.782,2.728a15.961,15.961,0,0,0,5.227-1.665,7.354,7.354,0,0,0,3.02-3.03,9.939,9.939,0,0,0,.983-4.635,5.843,5.843,0,0,0-.622-2.738,4.405,4.405,0,0,0-1.866-1.866,6.255,6.255,0,0,0-3.01-.673h0Zm-0.181,6.682q-1.324,0-1.324-2.067a2.142,2.142,0,0,1,.4-1.4,1.316,1.316,0,0,1,1.063-.482,1.291,1.291,0,0,1,.913.291,1.733,1.733,0,0,1,.441.943,9.007,9.007,0,0,1,.11,1.816,2.1,2.1,0,0,1-.742.682,1.83,1.83,0,0,1-.863.221h0Zm14.466-2.027a4.166,4.166,0,0,0-2.669.964,4.1,4.1,0,0,1,.793-2.167,1.969,1.969,0,0,1,1.575-.723,2.818,2.818,0,0,1,.893.131,5.135,5.135,0,0,1,.833.371l1.425-2.308a5.358,5.358,0,0,0-1.455-.672,6.281,6.281,0,0,0-1.816-.251,5.958,5.958,0,0,0-3.411.974,6.274,6.274,0,0,0-2.227,2.738,10.08,10.08,0,0,0-.782,4.114,7.521,7.521,0,0,0,1.385,4.795A4.979,4.979,0,0,0,88.2,142.3a5.558,5.558,0,0,0,2.849-.7,4.718,4.718,0,0,0,1.826-1.856,5.222,5.222,0,0,0,.622-2.518,5.65,5.65,0,0,0-.5-2.468,3.756,3.756,0,0,0-1.4-1.6,3.872,3.872,0,0,0-2.087-.562h0Zm-1.264,6.943a1.05,1.05,0,0,1-.843-0.351,2.359,2.359,0,0,1-.431-1.144,14.446,14.446,0,0,1-.13-2.217,2.244,2.244,0,0,1,1.425-.6,1.069,1.069,0,0,1,.973.451,3.086,3.086,0,0,1,.291,1.575,3.732,3.732,0,0,1-.311,1.686,1.028,1.028,0,0,1-.973.6h0Z"/>
    <path id="Shape_1_copy_4" data-name="Shape 1 copy 4" class="cls-4" d="M101.921,76.228L97.969,58.68A149.542,149.542,0,0,0,82.143,73.787c-0.785.905-1.859,2.032-3.089,3.275,0.062,0.058.121,0.118,0.183,0.176,5.224,4.825,16.6,14.859,17.671,15.778S107.05,104.5,107.05,104.5a2.492,2.492,0,0,1-.154,2.3c-0.691,1.378-4.638,4.075-8.144,2.91-0.692-.23-1.613-2.834-2.151-3.983s-3.15-6.663-6.454-9.8c-2.18-2.072-9.47-8.642-15.574-14.481-6.1,5.825-13.4,12.394-15.582,14.462-3.3,3.127-5.9,8.62-6.439,9.764s-1.457,3.738-2.146,3.967c-3.5,1.16-7.436-1.526-8.126-2.9a2.477,2.477,0,0,1-.153-2.288s9.046-10.527,10.119-11.442S64.665,82.1,69.877,77.3c0.08-.073.154-0.149,0.232-0.223-1.263-1.276-2.363-2.432-3.165-3.358a150.01,150.01,0,0,0-15.86-15.168L47.123,76.165,26.994,62.072l16.134-9.8s1.152-5.591,7.376-10.263l7.837,6.127a7.955,7.955,0,0,1-1.127,2.645l10.039,9.15a50.576,50.576,0,0,1,2.919,4.9,42.1,42.1,0,0,0,4.411,7.212,41.827,41.827,0,0,0,4.341-7.1,50.35,50.35,0,0,1,2.913-4.882l10.017-9.113a7.914,7.914,0,0,1-1.124-2.634l7.819-6.1c6.21,4.653,7.359,10.222,7.359,10.222l16.1,9.764Z"/>
    <path id="Shape_1_copy_3" data-name="Shape 1 copy 3" class="cls-5" d="M101.921,70.228L97.969,52.68A149.542,149.542,0,0,0,82.143,67.787c-0.785.905-1.859,2.032-3.089,3.275,0.062,0.058.121,0.118,0.183,0.176,5.224,4.825,16.6,14.859,17.671,15.778S107.05,98.5,107.05,98.5a2.492,2.492,0,0,1-.154,2.3c-0.691,1.378-4.638,4.075-8.144,2.91-0.692-.23-1.613-2.834-2.151-3.983s-3.15-6.663-6.454-9.8c-2.18-2.072-9.47-8.642-15.574-14.481-6.1,5.825-13.4,12.394-15.582,14.462-3.3,3.127-5.9,8.62-6.439,9.764s-1.457,3.738-2.146,3.967c-3.5,1.16-7.436-1.526-8.126-2.9a2.478,2.478,0,0,1-.153-2.288s9.046-10.527,10.119-11.442S64.665,76.1,69.877,71.3c0.08-.073.154-0.149,0.232-0.223-1.263-1.276-2.363-2.432-3.165-3.358a150,150,0,0,0-15.86-15.168L47.123,70.165,26.994,56.072l16.134-9.8s1.152-5.591,7.376-10.263l7.837,6.127a7.956,7.956,0,0,1-1.127,2.645l10.039,9.15a50.576,50.576,0,0,1,2.919,4.9,42.1,42.1,0,0,0,4.411,7.212,41.827,41.827,0,0,0,4.341-7.1,50.35,50.35,0,0,1,2.913-4.882l10.017-9.113a7.914,7.914,0,0,1-1.124-2.634l7.819-6.1c6.21,4.653,7.359,10.222,7.359,10.222l16.1,9.764Z"/>
  </g>
</svg>
