<svg xmlns="http://www.w3.org/2000/svg" width="150" height="150" viewBox="0 0 150 150">
  <defs>
    <style>
      .cls-1 {
        fill: #b83027;
      }

      .cls-1, .cls-2, .cls-3, .cls-4, .cls-5, .cls-6 {
        fill-rule: evenodd;
      }

      .cls-2 {
        fill: #fbbd40;
      }

      .cls-3 {
        fill: #754c29;
      }

      .cls-4 {
        fill: #231f20;
      }

      .cls-5 {
        fill: #f7ba3f;
      }

      .cls-6 {
        fill: #f7f7f7;
      }
    </style>
  </defs>
  <g id="ussr_berlin_prem_rifle_1_icon">
    <path id="Shape_11_copy_3" data-name="Shape 11 copy 3" class="cls-1" d="M124.179,7.034C114.16,28.843,85.009,24.2,52.7,25.7S7.763,49,7.763,49l30.655,68.242s11.861-19.273,42.5-20.756,58.315,2.471,67.7-16.8Z"/>
    <path id="Shape_11_copy_2" data-name="Shape 11 copy 2" class="cls-2" d="M1.376,46.4l43.93,96.567,2.77-5.145L8.1,42.837,3.355,41.649Z"/>
    <path id="Shape_11_copy" data-name="Shape 11 copy" class="cls-3" d="M85.767,106.5a106.852,106.852,0,0,0-38.323,7.024c4.221,6.791,9.285,19.9,9.285,19.9,6.584-2.342,29.038-3.278,29.038-3.278h9.285s22.454,0.936,29.038,3.278c0,0,5.064-13.112,9.285-19.9A106.852,106.852,0,0,0,95.053,106.5H85.767Z"/>
    <path id="Shape_16_copy" data-name="Shape 16 copy" class="cls-4" d="M125.494,29.334l-0.777-1.042-1.738,1.3-1.425-1.911-1.737,1.3,1.425,1.911-2.779,2.074-0.173-.232L83.26,58.869,83,58.521l-4.1,3.06L77.244,61.2,72.67,64.609l0.778,1.042L56.019,78.657l0,0-1.332.994,1.249,2.036c-0.063.113-.13,0.224-0.2,0.333,0,0-3.248,4.587-3.77,5.337a5.106,5.106,0,0,1-2.706,1.569,11.882,11.882,0,0,0-3.269,1.538C45.3,90.985,35.044,100.8,35.044,100.8a1.236,1.236,0,0,0-.336,1.6l6.343,6.084s0.332,0.2,1.071-.619S57.794,85.626,57.794,85.626a3.163,3.163,0,0,1,.6-0.891l1.251,1.676s0.75,0.522,2.342-.486L65.271,83.2l5.767-6.647a6.152,6.152,0,0,1,.543-2.988L85.637,62.053,85.2,61.474l35.03-26.142-0.259-.347,4.458-3.327-0.475-.637L119.5,34.348,119.241,34Z"/>
    <path class="cls-5" d="M125.494,22.147L124.717,21.1l-1.738,1.3-1.425-1.911-1.737,1.3,1.425,1.911-2.779,2.074-0.173-.232L83.26,51.681,83,51.334l-4.1,3.06-1.657-.386L72.67,57.421l0.778,1.042L56.019,71.469l0,0-1.332.994L55.939,74.5c-0.063.112-.13,0.224-0.2,0.333,0,0-3.248,4.587-3.77,5.337a5.108,5.108,0,0,1-2.706,1.569,11.876,11.876,0,0,0-3.269,1.538C45.3,83.8,35.044,93.613,35.044,93.613a1.236,1.236,0,0,0-.336,1.6l6.343,6.084s0.332,0.2,1.071-.618S57.794,78.438,57.794,78.438a3.162,3.162,0,0,1,.6-0.891l1.251,1.676s0.75,0.522,2.342-.486l3.286-2.723,5.767-6.647a6.152,6.152,0,0,1,.543-2.988L85.637,54.866,85.2,54.287l35.03-26.142-0.259-.347,4.458-3.327-0.475-.637L119.5,27.161l-0.259-.348Z"/>
    <path id="_66" data-name="66" class="cls-6" d="M85.884,116.5a4.531,4.531,0,0,0-2.9,1.046,4.457,4.457,0,0,1,.861-2.354,2.139,2.139,0,0,1,1.711-.784,3.046,3.046,0,0,1,.97.142,5.52,5.52,0,0,1,.9.4l1.547-2.506a5.75,5.75,0,0,0-1.58-.73,6.8,6.8,0,0,0-1.972-.273,6.477,6.477,0,0,0-3.7,1.057,6.808,6.808,0,0,0-2.419,2.975,10.937,10.937,0,0,0-.85,4.467,8.169,8.169,0,0,0,1.5,5.209,5.41,5.41,0,0,0,4.511,1.9,6.039,6.039,0,0,0,3.094-.762,5.131,5.131,0,0,0,1.983-2.016,5.673,5.673,0,0,0,.675-2.735,6.13,6.13,0,0,0-.545-2.68,4.073,4.073,0,0,0-1.525-1.744,4.208,4.208,0,0,0-2.266-.61h0Zm-1.373,7.54a1.141,1.141,0,0,1-.915-0.381,2.56,2.56,0,0,1-.469-1.242,15.7,15.7,0,0,1-.142-2.408,2.434,2.434,0,0,1,1.547-.654,1.161,1.161,0,0,1,1.057.49,3.353,3.353,0,0,1,.316,1.711,4.054,4.054,0,0,1-.338,1.83,1.115,1.115,0,0,1-1.057.654h0Zm15.145-7.54a4.531,4.531,0,0,0-2.9,1.046,4.458,4.458,0,0,1,.861-2.354,2.139,2.139,0,0,1,1.711-.784,3.051,3.051,0,0,1,.97.142,5.539,5.539,0,0,1,.9.4l1.547-2.506a5.739,5.739,0,0,0-1.58-.73,6.8,6.8,0,0,0-1.972-.273,6.477,6.477,0,0,0-3.7,1.057,6.808,6.808,0,0,0-2.419,2.975,10.937,10.937,0,0,0-.85,4.467,8.169,8.169,0,0,0,1.5,5.209,5.41,5.41,0,0,0,4.511,1.9,6.04,6.04,0,0,0,3.095-.762,5.139,5.139,0,0,0,1.983-2.016,5.674,5.674,0,0,0,.675-2.735,6.13,6.13,0,0,0-.544-2.68,4.077,4.077,0,0,0-1.526-1.744,4.207,4.207,0,0,0-2.266-.61h0Zm-1.373,7.54a1.141,1.141,0,0,1-.915-0.381,2.561,2.561,0,0,1-.469-1.242,15.7,15.7,0,0,1-.142-2.408,2.434,2.434,0,0,1,1.547-.654,1.161,1.161,0,0,1,1.057.49,3.353,3.353,0,0,1,.316,1.711,4.052,4.052,0,0,1-.338,1.83,1.115,1.115,0,0,1-1.057.654h0Z"/>
  </g>
</svg>
