<svg xmlns="http://www.w3.org/2000/svg" width="80" height="80" viewBox="0 0 80 80">
  <defs>
    <style>
      .cls-1 {
        fill: #7f8a46;
      }

      .cls-2 {
        fill: #f2f2f2;
      }

      .cls-3 {
        fill: #1a1a1a;
      }

      .cls-4 {
        fill: #333625;
      }

      .cls-5 {
        fill: #3c4029;
      }
    </style>
  </defs>
  <g id="Layer_5" data-name="Layer 5">
    <path class="cls-1" d="M40,78.49976A32.34633,32.34633,0,0,1,7.69043,46.19019V13.63745C21.77686,13.01245,34.17432,8.46851,40,1.81128c5.82568,6.65723,18.22314,11.20117,32.30957,11.82617V46.19019A32.34633,32.34633,0,0,1,40,78.49976Z"/>
    <path class="cls-2" d="M40,1.81126C34.17432,8.46849,21.77686,13.01244,7.69043,13.63744V46.19017a32.30957,32.30957,0,0,0,64.61914,0V13.63744C58.22314,13.01244,45.82568,8.46849,40,1.81126Zm30.80945,44.3794a30.80951,30.80951,0,0,1-61.619,0V15.0609c13.22278-.81738,24.55627-4.90369,30.80945-11.06226,6.25317,6.15869,17.58667,10.24488,30.80957,11.06226Z"/>
    <path class="cls-3" d="M39.99994,2.55713C45.99188,9.011,58.08466,13.4176,71.80951,14.114V46.19067a31.80951,31.80951,0,0,1-63.619,0V14.114C21.91522,13.4176,34.008,9.011,39.99994,2.55713M40.45416,0h-.90832C34.2962,6.86426,21.43524,11.81079,6.19049,12.18823V46.19067a33.80951,33.80951,0,0,0,67.619,0V12.18823C58.56464,11.81079,45.70367,6.86426,40.45416,0Z"/>
    <path class="cls-4" d="M40,75.28648A28.68736,28.68736,0,0,1,11.34521,46.63121V17.20836l.478-.05957c11.06006-1.35547,20.95313-4.85156,27.85742-9.84473L40,7.07359l.31934.23047c6.9038,4.99317,16.79687,8.48926,27.85742,9.84473l.478.05957V46.63121A28.68736,28.68736,0,0,1,40,75.28648ZM12.43408,18.17027V46.63121a27.56592,27.56592,0,0,0,55.13184,0V18.17027C56.687,16.77184,46.93213,13.31969,40,8.41539,33.06738,13.31969,23.3125,16.77184,12.43408,18.17027Z"/>
    <circle class="cls-5" cx="40" cy="49.09373" r="20.60058"/>
    <polygon class="cls-2" points="40 11.22 41.765 16.652 47.477 16.652 42.856 20.01 44.621 25.442 40 22.085 35.379 25.442 37.144 20.01 32.523 16.652 38.235 16.652 40 11.22"/>
    <g>
      <polygon class="cls-2" points="54.884 19.504 55.928 22.717 59.306 22.717 56.573 24.703 57.617 27.915 54.884 25.93 52.151 27.915 53.195 24.703 50.462 22.717 53.84 22.717 54.884 19.504"/>
      <polygon class="cls-2" points="25.116 19.504 26.16 22.717 29.538 22.717 26.805 24.703 27.849 27.915 25.116 25.93 22.383 27.915 23.427 24.703 20.694 22.717 24.072 22.717 25.116 19.504"/>
    </g>
    <path class="cls-2" d="M51.17736,55.34437a8.71923,8.71923,0,0,1-.34726,2.52154,7.46351,7.46351,0,0,1-.975,2.07286,7.2186,7.2186,0,0,1-1.51277,1.61341,8.75993,8.75993,0,0,1-1.99449,1.1655,11.40342,11.40342,0,0,1-2.37556.70606,16.02274,16.02274,0,0,1-2.90223.2351h-7.575a1.58622,1.58622,0,0,1-.975-.34727A1.44026,1.44026,0,0,1,32.06069,62.09V36.2277a1.44224,1.44224,0,0,1,.45944-1.22159,1.591,1.591,0,0,1,.975-.34727H40.084a15.27565,15.27565,0,0,1,4.25826.49325A7.54,7.54,0,0,1,47.11,36.58649a5.92926,5.92926,0,0,1,1.6695,2.308,8.09794,8.09794,0,0,1,.56009,3.09315,7.77145,7.77145,0,0,1-.24624,1.97221,6.5402,6.5402,0,0,1-.72834,1.73634,5.92636,5.92636,0,0,1-1.21045,1.42365,6.40339,6.40339,0,0,1-1.6695,1.03028,7.04,7.04,0,0,1,2.21883.81824,6.75756,6.75756,0,0,1,1.804,1.51277,7.064,7.064,0,0,1,1.22159,2.15122A7.89219,7.89219,0,0,1,51.17736,55.34437Zm-5.80445-12.9757a5.88055,5.88055,0,0,0-.29042-1.90537,3.52734,3.52734,0,0,0-.91695-1.44516A4.11261,4.11261,0,0,0,42.5333,38.11a9.19749,9.19749,0,0,0-2.6606-.31347H35.89332v9.39008h4.382A6.22983,6.22983,0,0,0,42.69,46.7948a4.33477,4.33477,0,0,0,1.52045-1.05333,4.09352,4.09352,0,0,0,.88315-1.54657A6.03155,6.03155,0,0,0,45.37291,42.36867Zm1.74825,13.2a5.86749,5.86749,0,0,0-.41411-2.28644,4.33359,4.33359,0,0,0-1.20776-1.658,5.32548,5.32548,0,0,0-1.99065-1.01953,10.9644,10.9644,0,0,0-3.00786-.348H35.89332V60.47657h5.59126a7.59026,7.59026,0,0,0,2.30411-.31423A5.16739,5.16739,0,0,0,45.522,59.2327a4.2877,4.2877,0,0,0,1.17395-1.535A5.01915,5.01915,0,0,0,47.12116,55.56871Z"/>
  </g>
</svg>
