<svg xmlns="http://www.w3.org/2000/svg" width="150" height="150" viewBox="0 0 150 150">
  <defs>
    <style>
      .cls-1 {
        fill: #754c29;
      }

      .cls-1, .cls-2, .cls-3, .cls-4, .cls-5 {
        fill-rule: evenodd;
      }

      .cls-2 {
        fill: #b83027;
      }

      .cls-3 {
        fill: #231f20;
      }

      .cls-4 {
        fill: #f7f7f7;
      }

      .cls-5 {
        fill: #fbbd40;
      }
    </style>
  </defs>
  <path class="cls-1" d="M71.156,125.147a88.45,88.45,0,0,0-31.728,5.816c3.494,5.621,7.687,16.477,7.687,16.477,5.451-1.939,24.04-2.714,24.04-2.714h7.687s18.589,0.775,24.04,2.714c0,0,4.193-10.856,7.687-16.477a88.448,88.448,0,0,0-31.727-5.816H71.156Z"/>
  <path class="cls-2" d="M75,1.989L91.244,51.983H143.81l-42.527,30.9,16.244,49.994L75,101.976l-42.527,30.9L48.717,82.88,6.19,51.983H58.756Z"/>
  <path id="Shape_1_copy_8" data-name="Shape 1 copy 8" class="cls-1" d="M71.156,125.147a88.45,88.45,0,0,0-31.728,5.816c3.494,5.621,7.687,16.477,7.687,16.477,5.451-1.939,24.04-2.714,24.04-2.714h7.687s18.589,0.775,24.04,2.714c0,0,4.193-10.856,7.687-16.477a88.448,88.448,0,0,0-31.727-5.816H71.156Z"/>
  <path id="Shape_1_copy_8-2" data-name="Shape 1 copy 8" class="cls-2" d="M75,1.989L91.244,51.983H143.81l-42.527,30.9,16.244,49.994L75,101.976l-42.527,30.9L48.717,82.88,6.19,51.983H58.756Z"/>
  <g id="ussr_moscow_prem_assault_2_icon">
    <path class="cls-3" d="M83.437,77.961L87.5,75.218a2.575,2.575,0,0,0,.9-1.05,4.379,4.379,0,0,1,1.059-1.579L117.178,54.25a5.707,5.707,0,0,0-.466-2.609,4.572,4.572,0,0,0-1.236-1.967L109,53.956l-0.274-.349s-3.127-.716-3.954-0.965l-0.323.214-1.014.671-0.323.214c-0.095.858-.658,4.016-0.658,4.016l0.213,0.389-36.883,24.4-0.809-1.222s-2.427.114-2.461,0.137l-1.431.947C61.052,82.433,60,84.622,60,84.622l0.473,0.715-0.994.658-5.35,3.539c-1.368.9-2.022,1.954-1.72,3.112a2.6,2.6,0,0,0,.7,1.057l0.065,0.107c0.554,3.943-2.049,6.925-2.987,7.811A5.393,5.393,0,0,1,46.4,103a2.253,2.253,0,0,0-1.9.729L24.52,122.252a1.751,1.751,0,0,0,.056,1.487c0.412,0.723,7.219,10.209,8.014,10.81s2.488-1.049,2.488-1.049a77.826,77.826,0,0,0,15.154-21.272,1.678,1.678,0,0,1,1.4-.965l1.093-.076a2.029,2.029,0,0,0,1.88-1.834c0.17-1.8.455-4.536,0.716-5.689a11.948,11.948,0,0,1,3.748-6.3,0.736,0.736,0,0,1,.479.242c0.493,0.519,2.062,2.365,2.062,2.365s0.709,1.073,2.761-.186,5.454-3.708,5.454-3.708,1.406-.881.194-2.863a15.194,15.194,0,0,1-1.075-1.626,0.746,0.746,0,0,1,.313-0.655c0.219-.195,1.291-0.9,1.291-0.9l0.064-.056,7.571-5.009L86.7,96.112a1.77,1.77,0,0,0,2.482.333l1.845-1.408a1.77,1.77,0,0,0,.333-2.481L83.083,81.717l0.135-3.126A0.557,0.557,0,0,1,83.437,77.961ZM112.6,53.237l0.876-.58a1.051,1.051,0,1,1,1.159,1.752l-0.876.58A1.051,1.051,0,1,1,112.6,53.237Z"/>
    <path id="_1308" data-name="1308" class="cls-4" d="M56.542,128.373l-4.8,2.87,1.714,2.571,2.77-1.694v9.805H60.05V128.373H56.542Zm10.722-.319a6.875,6.875,0,0,0-4.982,1.953l1.933,2.033a3.618,3.618,0,0,1,2.551-1.136,1.75,1.75,0,0,1,1.126.329,1.122,1.122,0,0,1,.408.927,1.271,1.271,0,0,1-.418,1.006,1.818,1.818,0,0,1-1.236.369H65.829l-0.439,2.631h1.2a2.235,2.235,0,0,1,1.465.4,1.563,1.563,0,0,1,.468,1.256,1.406,1.406,0,0,1-.488,1.156,1.936,1.936,0,0,1-1.266.4,3.134,3.134,0,0,1-1.365-.289,5.052,5.052,0,0,1-1.305-.966l-2.053,2.013a6.106,6.106,0,0,0,5,2.192,7.2,7.2,0,0,0,3-.568,4.329,4.329,0,0,0,1.873-1.515,3.689,3.689,0,0,0,.628-2.082,3.146,3.146,0,0,0-.877-2.4,3.822,3.822,0,0,0-2.252-.986,3.955,3.955,0,0,0,1.993-1.236,3.158,3.158,0,0,0,.678-2.053,2.97,2.97,0,0,0-.558-1.774,3.628,3.628,0,0,0-1.644-1.215,7.008,7.008,0,0,0-2.621-.439h0Zm12.675,0a4.8,4.8,0,0,0-4.046,1.844,8.51,8.51,0,0,0-1.415,5.271,8.6,8.6,0,0,0,1.415,5.291,5.322,5.322,0,0,0,8.091,0,8.6,8.6,0,0,0,1.415-5.291,8.512,8.512,0,0,0-1.415-5.271,4.8,4.8,0,0,0-4.046-1.844h0Zm0,2.85a1.107,1.107,0,0,1,.877.339,2.48,2.48,0,0,1,.428,1.246,27.7,27.7,0,0,1,0,5.351,2.564,2.564,0,0,1-.428,1.265,1.09,1.09,0,0,1-.877.349,1.054,1.054,0,0,1-.867-0.379,2.674,2.674,0,0,1-.438-1.285,26.487,26.487,0,0,1,0-5.232,2.626,2.626,0,0,1,.438-1.285,1.068,1.068,0,0,1,.867-0.369h0Zm15.923,3.747a4.34,4.34,0,0,0,1.574-1.415,3.061,3.061,0,0,0,.518-1.654A2.981,2.981,0,0,0,96.59,129a6.35,6.35,0,0,0-3.677-.947,6.806,6.806,0,0,0-2.671.489,4.1,4.1,0,0,0-1.774,1.335,3.151,3.151,0,0,0-.618,1.9,3.737,3.737,0,0,0,1.893,3.249,4.327,4.327,0,0,0-1.784,1.325,3.122,3.122,0,0,0-.628,1.943,3.412,3.412,0,0,0,.648,2.013,4.441,4.441,0,0,0,1.883,1.465,7.243,7.243,0,0,0,2.95.548,7.63,7.63,0,0,0,3.069-.558,4.478,4.478,0,0,0,1.933-1.5,3.465,3.465,0,0,0,.658-2.033,3.385,3.385,0,0,0-.628-2,5.388,5.388,0,0,0-1.983-1.584h0Zm-2.93-4.026a1.209,1.209,0,0,1,.907.319,1.18,1.18,0,0,1,.309.857,2.557,2.557,0,0,1-.179.977,2.189,2.189,0,0,1-.717.857l-0.478-.2a2.153,2.153,0,0,1-.857-0.687,1.6,1.6,0,0,1-.259-0.907A1.165,1.165,0,0,1,92,130.934a1.338,1.338,0,0,1,.937-0.309h0Zm0.02,8.949a1.8,1.8,0,0,1-1.246-.419,1.4,1.4,0,0,1-.468-1.1,2.411,2.411,0,0,1,.249-1.1,2.192,2.192,0,0,1,.747-0.837l0.757,0.279a3.635,3.635,0,0,1,1.216.737,1.447,1.447,0,0,1,.359,1.036,1.337,1.337,0,0,1-.409,1,1.659,1.659,0,0,1-1.206.4h0Z"/>
    <path class="cls-5" d="M83.437,71.383L87.5,68.64a2.576,2.576,0,0,0,.9-1.05,4.379,4.379,0,0,1,1.059-1.579l27.717-18.338a5.707,5.707,0,0,0-.466-2.609,4.573,4.573,0,0,0-1.236-1.967L109,47.378l-0.274-.349s-3.127-.716-3.954-0.965l-0.323.214-1.014.671-0.323.214c-0.095.859-.658,4.016-0.658,4.016l0.213,0.389-36.883,24.4-0.809-1.222s-2.427.114-2.461,0.137l-1.431.947C61.052,75.855,60,78.044,60,78.044l0.473,0.715-0.994.658-5.35,3.54c-1.368.9-2.022,1.954-1.72,3.112a2.6,2.6,0,0,0,.7,1.057l0.065,0.107c0.554,3.943-2.049,6.925-2.987,7.811A5.392,5.392,0,0,1,46.4,96.425a2.253,2.253,0,0,0-1.9.73L24.52,115.673a1.753,1.753,0,0,0,.056,1.488c0.412,0.723,7.219,10.209,8.014,10.81s2.488-1.049,2.488-1.049A77.826,77.826,0,0,0,50.232,105.65a1.678,1.678,0,0,1,1.4-.965l1.093-.076a2.029,2.029,0,0,0,1.88-1.834c0.17-1.8.455-4.537,0.716-5.689a11.948,11.948,0,0,1,3.748-6.3,0.737,0.737,0,0,1,.479.242c0.493,0.519,2.062,2.365,2.062,2.365s0.709,1.072,2.761-.186,5.454-3.708,5.454-3.708,1.406-.881.194-2.863a15.184,15.184,0,0,1-1.075-1.626,0.745,0.745,0,0,1,.313-0.654c0.219-.195,1.291-0.9,1.291-0.9l0.064-.056,7.571-5.009L86.7,89.534a1.771,1.771,0,0,0,2.482.333l1.845-1.408a1.77,1.77,0,0,0,.333-2.481L83.083,75.139l0.135-3.126A0.557,0.557,0,0,1,83.437,71.383ZM112.6,46.659l0.876-.58a1.051,1.051,0,1,1,1.159,1.753l-0.876.58A1.05,1.05,0,1,1,112.6,46.659Z"/>
  </g>
</svg>
