<svg xmlns="http://www.w3.org/2000/svg" width="150" height="150" viewBox="0 0 150 150">
  <defs>
    <style>
      .cls-1 {
        fill: #b83027;
      }

      .cls-1, .cls-2, .cls-3, .cls-4, .cls-5, .cls-6 {
        fill-rule: evenodd;
      }

      .cls-2 {
        fill: #fbbd40;
      }

      .cls-3 {
        fill: #754c29;
      }

      .cls-4 {
        fill: #231f20;
      }

      .cls-5 {
        fill: #f7ba3f;
      }

      .cls-6 {
        fill: #f7f7f7;
      }
    </style>
  </defs>
  <g id="ussr_berlin_assault_3_icon">
    <path id="Shape_11_copy_3" data-name="Shape 11 copy 3" class="cls-1" d="M124.179,7.034C114.16,28.843,85.009,24.2,52.7,25.7S7.763,49,7.763,49l30.655,68.242s11.861-19.273,42.5-20.756,58.315,2.471,67.7-16.8Z"/>
    <path id="Shape_11_copy_2" data-name="Shape 11 copy 2" class="cls-2" d="M1.376,46.4l43.93,96.567,2.77-5.145L8.1,42.837,3.355,41.649Z"/>
    <path id="Shape_11_copy" data-name="Shape 11 copy" class="cls-3" d="M85.767,106.5a106.852,106.852,0,0,0-38.323,7.024c4.221,6.791,9.285,19.9,9.285,19.9,6.584-2.342,29.038-3.278,29.038-3.278h9.285s22.454,0.936,29.038,3.278c0,0,5.064-13.112,9.285-19.9A106.852,106.852,0,0,0,95.053,106.5H85.767Z"/>
    <path class="cls-4" d="M116.264,29.461l-1.723,1.413-0.151-.185-0.859-.085-0.021.017-0.79-.964-2.277-.225-2.3,1.884c-0.088.889-.137,1.388-0.225,2.277l0.791,0.964L88.9,50.8l-2.215,1.816L73.212,63.665a5.313,5.313,0,0,0-1.924.137c-0.189.126-2.953,2.226-6.064,4.6l-2.259-.1-0.984.807-0.3,1.995c-2.971,2.266-5.479,4.182-5.479,4.182l-0.29,1.4,1.506-.069L36.182,94.03l1.077,5.5,2.839,1.789,1.6-.558,3.9-3.2a5.69,5.69,0,0,1,2.636.788,7.349,7.349,0,0,1,1.466,2.708l3.455,8.9a2.423,2.423,0,0,0,2.383,1.065l5.857-2.814a1.318,1.318,0,0,0,.42-1.579,11.658,11.658,0,0,1-1.483-1.391L56.26,97.6s-0.375-1.545.756-1.923l1.273-.289,5.948-4.878a4.2,4.2,0,0,0,.541-3.942l0.364-1.4-1.984-2.009L78.1,70.905l3.546,2.856,0.158,1.448a4.645,4.645,0,0,0,1.972,1.4,1.7,1.7,0,0,0,1.967-.446l1.244-1.548c2.716,2,11.718,8.127,22.4,10.219l1.643-6.7s-8.456-1.3-19.554-9.106l0.414-.515L86.66,63.89l7.753-6.358s0.5-4.248,1.36-5.369l0.8-.863,20.43-16.752,0-.065,2.021-1.657A2.175,2.175,0,1,0,116.264,29.461Zm1.013,3.86-0.436.358L115,31.433l0.436-.358A1.452,1.452,0,0,1,117.277,33.321Z"/>
    <path id="Shape_18_copy" data-name="Shape 18 copy" class="cls-5" d="M116.264,23.461l-1.723,1.413-0.151-.185-0.859-.085-0.021.017-0.79-.964-2.277-.225-2.3,1.884c-0.088.889-.137,1.388-0.225,2.277l0.791,0.964L88.9,44.8l-2.215,1.816L73.212,57.665a5.313,5.313,0,0,0-1.924.137c-0.189.126-2.953,2.226-6.064,4.6l-2.259-.1-0.984.807-0.3,1.995c-2.971,2.266-5.479,4.182-5.479,4.182l-0.29,1.4,1.506-.069L36.182,88.03l1.077,5.5L40.1,95.316l1.6-.558,3.9-3.2a5.69,5.69,0,0,1,2.636.788A7.349,7.349,0,0,1,49.7,95.059l3.455,8.9a2.423,2.423,0,0,0,2.383,1.065l5.857-2.814a1.318,1.318,0,0,0,.42-1.579,11.663,11.663,0,0,1-1.483-1.391L56.26,91.6s-0.375-1.545.756-1.923l1.273-.289,5.948-4.878a4.2,4.2,0,0,0,.541-3.942l0.364-1.4-1.984-2.009L78.1,64.905l3.546,2.856,0.158,1.448a4.645,4.645,0,0,0,1.972,1.4,1.7,1.7,0,0,0,1.967-.446l1.244-1.548c2.716,2,11.718,8.127,22.4,10.219l1.643-6.7s-8.456-1.3-19.554-9.106l0.414-.515L86.66,57.89l7.753-6.358s0.5-4.248,1.36-5.369l0.8-.863,20.43-16.752,0-.065,2.021-1.657A2.175,2.175,0,1,0,116.264,23.461Zm1.013,3.86-0.436.358L115,25.433l0.436-.358A1.452,1.452,0,0,1,117.277,27.321Z"/>
    <path id="_284" data-name="284" class="cls-6" d="M76.644,111.443a6.455,6.455,0,0,0-3.116.741,6.964,6.964,0,0,0-2.31,2l2.462,1.961a4.935,4.935,0,0,1,1.188-1.122,2.4,2.4,0,0,1,1.3-.36,1.54,1.54,0,0,1,1.155.425,1.6,1.6,0,0,1,.414,1.166,3.181,3.181,0,0,1-.48,1.591,12.605,12.605,0,0,1-1.689,2.114q-1.209,1.285-3.737,3.683v2.964H82.005l0.436-3.226H76.71a37.388,37.388,0,0,0,3.454-3.269,8.755,8.755,0,0,0,1.569-2.266,5.287,5.287,0,0,0,.4-2.07,4.009,4.009,0,0,0-.621-2.169,4.292,4.292,0,0,0-1.863-1.579,6.971,6.971,0,0,0-3.007-.589h0Zm17.085,7.213a4.734,4.734,0,0,0,1.722-1.547,3.344,3.344,0,0,0,.567-1.809,3.259,3.259,0,0,0-1.493-2.822,6.944,6.944,0,0,0-4.021-1.035,7.451,7.451,0,0,0-2.92.534,4.492,4.492,0,0,0-1.94,1.46,3.445,3.445,0,0,0-.675,2.081,4.083,4.083,0,0,0,2.07,3.552,4.738,4.738,0,0,0-1.95,1.45,3.414,3.414,0,0,0-.686,2.124,3.728,3.728,0,0,0,.708,2.2,4.84,4.84,0,0,0,2.059,1.6,7.905,7.905,0,0,0,3.225.6,8.34,8.34,0,0,0,3.356-.61,4.892,4.892,0,0,0,2.114-1.634,3.791,3.791,0,0,0,.719-2.223,3.7,3.7,0,0,0-.686-2.19,5.9,5.9,0,0,0-2.168-1.733h0Zm-3.2-4.4a1.321,1.321,0,0,1,.992.349,1.291,1.291,0,0,1,.338.937,2.8,2.8,0,0,1-.2,1.068,2.386,2.386,0,0,1-.784.937l-0.523-.218a2.352,2.352,0,0,1-.937-0.752,1.741,1.741,0,0,1-.283-0.991,1.276,1.276,0,0,1,.371-0.992,1.464,1.464,0,0,1,1.024-.338h0Zm0.022,9.785a1.963,1.963,0,0,1-1.362-.458,1.529,1.529,0,0,1-.512-1.2,2.642,2.642,0,0,1,.272-1.2,2.4,2.4,0,0,1,.817-0.915l0.828,0.3a3.994,3.994,0,0,1,1.329.806,1.583,1.583,0,0,1,.392,1.134,1.46,1.46,0,0,1-.447,1.089,1.814,1.814,0,0,1-1.318.436h0Zm18.458-3.53v-3.226h-3.7l-0.5,3.226h-1.831l3.335-7.867-3.683-1.308-4.075,9.545v2.811h6.21l0.022,2.921h4.228V123.69h1.525v-3.181h-1.525Z"/>
  </g>
</svg>
