<svg xmlns="http://www.w3.org/2000/svg" width="150" height="150" viewBox="0 0 150 150">
  <defs>
    <style>
      .cls-1 {
        fill: #754c29;
      }

      .cls-1, .cls-2, .cls-3, .cls-4, .cls-5 {
        fill-rule: evenodd;
      }

      .cls-2 {
        fill: #b83027;
      }

      .cls-3 {
        fill: #231f20;
      }

      .cls-4 {
        fill: #f7ba3f;
      }

      .cls-5 {
        fill: #f7f7f7;
      }
    </style>
  </defs>
  <path id="Shape_1_copy_8" data-name="Shape 1 copy 8" class="cls-1" d="M71.156,125.147a88.45,88.45,0,0,0-31.728,5.816c3.494,5.621,7.687,16.477,7.687,16.477,5.451-1.939,24.04-2.714,24.04-2.714h7.687s18.589,0.775,24.04,2.714c0,0,4.193-10.856,7.687-16.477a88.448,88.448,0,0,0-31.727-5.816H71.156Z"/>
  <path id="Shape_1_copy_8-2" data-name="Shape 1 copy 8" class="cls-2" d="M75,1.989L91.244,51.983H143.81l-42.527,30.9,16.244,49.994L75,101.976l-42.527,30.9L48.717,82.88,6.19,51.983H58.756Z"/>
  <g id="ussr_moscow_pilot_assaulter_2">
    <path id="Shape_13_copy" data-name="Shape 13 copy" class="cls-3" d="M141.856,38.3S116.333,57.918,109.062,63.68a12.492,12.492,0,0,1-.022,2.293c13.213-1.019,14.363-.2,14.363-0.2s3.324,0.82,2.59,2.547-7.079,1.338-7.079,1.338l-10.329-1.316c-0.054.192-.095,0.384-0.159,0.576-1.51,4.565-5.143,7.649-8.826,7.886a1.575,1.575,0,0,1-.241.046,44.366,44.366,0,0,1-2.978,5.671c-4.317,6.863-6.734,7.986-6.734,7.986a1.143,1.143,0,0,1-1.036-.6c-0.216-.6.432-3.928,2.676-8.417a40.189,40.189,0,0,1,2.971-4.741,21.3,21.3,0,0,1-4.438-.569l-0.078-.029L25.865,103.641a28.655,28.655,0,0,1-6.563,1.953c-1.944.328-3.868,0.437-4.145-.332-0.583-1.618,9.114-7.2,9.114-7.2l43.771-24.8s2.007-1.1,2.331-2.072a8.361,8.361,0,0,0-.622-3.13l-0.738-.3S60.725,62.67,56.5,58.7l-0.018-.024c-3.133,1.369-11.365,4.949-13.45,5.679-2.59.907-3.151,0.95-3.151,0.6s4.36-2.935,4.36-2.935L55.05,56.416a41.327,41.327,0,0,1-2.871-6.351c-2.029-5.655-1.209-6.518-.648-6.691l7.986,8.59,3.826,0.219c3.4-1.485,10.938-4.722,11.671-4.622,0.95,0.13-.3.907-0.3,0.907L68.2,52.461l0.377,0.021s3.5-2.038,6.648-1.942a6.789,6.789,0,0,1,4.187,1.295l2.676,2.245,14.944,0.405L95,50.41S90.294,40.4,92.539,40.4s4.446,6.087,4.705,6.691c0.131,0.306,1.481,4.058,2.782,7.686a13.452,13.452,0,0,1,1.535.415l28.7-15.007s10.943-4.662,12.173-3.95S141.856,38.3,141.856,38.3Z"/>
    <path id="Shape_14_copy_3" data-name="Shape 14 copy 3" class="cls-4" d="M141.856,32.3S116.333,51.918,109.062,57.68a13.055,13.055,0,0,1-.636,5.242c-1.51,4.565-5.143,7.649-8.825,7.886a1.29,1.29,0,0,1-.328.063c-2.892.043-7.986-.173-9.454-0.691l-0.057-.021c0.043,0.13.1,0.242,0.142,0.377l-3.742,1.61a2.361,2.361,0,0,0,.168-0.527L25.865,97.641A28.645,28.645,0,0,1,19.3,99.594c-1.944.327-3.868,0.437-4.145-.332-0.583-1.619,9.114-7.2,9.114-7.2l43.771-24.8s2.007-1.1,2.331-2.072a8.36,8.36,0,0,0-.622-3.13l-0.738-.3S60.725,56.67,56.5,52.7l-0.018-.024c-3.133,1.369-11.364,4.949-13.45,5.679-2.59.907-3.151,0.95-3.151,0.6s4.36-2.935,4.36-2.935L55.05,50.416a41.337,41.337,0,0,1-2.871-6.351c-2.029-5.655-1.209-6.518-.647-6.691l7.986,8.59,3.826,0.219c3.4-1.484,10.938-4.721,11.671-4.622,0.95,0.13-.3.907-0.3,0.907L68.2,46.461l0.377,0.022s3.5-2.038,6.648-1.942a6.79,6.79,0,0,1,4.187,1.295l2.676,2.245,15.928,0.432a12.756,12.756,0,0,1,3.54.676l28.7-15.007s10.943-4.662,12.173-3.95S141.856,32.3,141.856,32.3Z"/>
    <path id="Shape_14_copy_3-2" data-name="Shape 14 copy 3" class="cls-3" d="M107.535,61.69c-1.388,4.194-5.187,6.709-8.485,5.618s-4.847-5.376-3.459-9.571,5.187-6.709,8.485-5.618S108.923,57.5,107.535,61.69ZM76.054,63.5s12.066-.885,14.351,7.47l-3.617,2.61S88.867,66.876,76.054,63.5ZM74.647,52.634s-0.718-3.658.777-5.439,3.755-.259,5.18,1.425A52.454,52.454,0,0,0,74.647,52.634Z"/>
    <path id="_13" data-name="13" class="cls-5" d="M69.083,128.052l-5.251,3.138L65.706,134l3.029-1.852v10.72h4.184V128.052H69.083Zm11.723-.348a7.519,7.519,0,0,0-5.448,2.135l2.114,2.223a3.954,3.954,0,0,1,2.789-1.242,1.91,1.91,0,0,1,1.231.359,1.228,1.228,0,0,1,.447,1.013,1.393,1.393,0,0,1-.458,1.1,1.987,1.987,0,0,1-1.351.4H79.237l-0.479,2.876h1.307a2.442,2.442,0,0,1,1.6.436,1.708,1.708,0,0,1,.512,1.373,1.538,1.538,0,0,1-.534,1.264,2.121,2.121,0,0,1-1.384.435,3.427,3.427,0,0,1-1.493-.316,5.53,5.53,0,0,1-1.427-1.056l-2.244,2.2a6.671,6.671,0,0,0,5.469,2.4,7.865,7.865,0,0,0,3.279-.621,4.73,4.73,0,0,0,2.048-1.656,4.034,4.034,0,0,0,.686-2.277,3.439,3.439,0,0,0-.959-2.626,4.182,4.182,0,0,0-2.462-1.078,4.326,4.326,0,0,0,2.179-1.351,3.453,3.453,0,0,0,.741-2.244,3.245,3.245,0,0,0-.61-1.94,3.975,3.975,0,0,0-1.8-1.329,7.668,7.668,0,0,0-2.865-.479h0Z"/>
    <path id="Shape_14_copy_3-3" data-name="Shape 14 copy 3" class="cls-4" d="M125.993,62.324c-0.734,1.727-7.079,1.338-7.079,1.338l-11.181-1.425,0.112-.519c-0.919,2.163-4.208,3.342-6.2,3.046a51.962,51.962,0,0,1-5.265,11.761c-4.317,6.863-6.734,7.986-6.734,7.986a1.143,1.143,0,0,1-1.036-.6c-0.216-.6.432-3.928,2.676-8.417,1.828-3.655,6.686-9.74,8.43-11.876a5.088,5.088,0,0,1-.584-4.689,5.671,5.671,0,0,1,1.8-2.646L95,44.41S90.294,34.4,92.539,34.4s4.446,6.086,4.705,6.691c0.241,0.561,4.572,12.687,5.188,14.414a3,3,0,0,1,1.721.021c1.683,0.557,3.939,2.743,3.959,4.96l0.1-.445c14.029-1.122,15.2-.259,15.2-0.259S126.727,60.6,125.993,62.324Z"/>
  </g>
</svg>
