<svg xmlns="http://www.w3.org/2000/svg" width="150" height="150" viewBox="0 0 150 150">
  <defs>
    <style>
      .cls-1 {
        fill: #b83027;
      }

      .cls-1, .cls-2, .cls-3, .cls-4, .cls-5, .cls-6 {
        fill-rule: evenodd;
      }

      .cls-2 {
        fill: #fbbd40;
      }

      .cls-3 {
        fill: #754c29;
      }

      .cls-4 {
        fill: #f7f7f7;
      }

      .cls-5 {
        fill: #231f20;
      }

      .cls-6 {
        fill: #fabc40;
      }
    </style>
  </defs>
  <g id="ussr_berlin_engineer_2_icon">
    <path id="Shape_11_copy_3" data-name="Shape 11 copy 3" class="cls-1" d="M124.179,7.034C114.16,28.843,85.009,24.2,52.7,25.7S7.763,49,7.763,49l30.655,68.242s11.861-19.273,42.5-20.756,58.315,2.471,67.7-16.8Z"/>
    <path id="Shape_11_copy_2" data-name="Shape 11 copy 2" class="cls-2" d="M1.376,46.4l43.93,96.567,2.77-5.145L8.1,42.837,3.355,41.649Z"/>
    <path id="Shape_11_copy" data-name="Shape 11 copy" class="cls-3" d="M85.767,106.5a106.852,106.852,0,0,0-38.323,7.024c4.221,6.791,9.285,19.9,9.285,19.9,6.584-2.342,29.038-3.278,29.038-3.278h9.285s22.454,0.936,29.038,3.278c0,0,5.064-13.112,9.285-19.9A106.852,106.852,0,0,0,95.053,106.5H85.767Z"/>
    <path id="_579" data-name="579" class="cls-4" d="M82.4,111.112H72.057v8.835h2.992a3.236,3.236,0,0,1,1.67-.556,1.742,1.742,0,0,1,1.357.522,2.539,2.539,0,0,1,.475,1.727,2.431,2.431,0,0,1-.557,1.728,2.092,2.092,0,0,1-1.6.591,3.468,3.468,0,0,1-2.852-1.53l-2.528,2.3a6.777,6.777,0,0,0,5.589,2.62,8.054,8.054,0,0,0,3.5-.719,5.364,5.364,0,0,0,2.319-2.029,5.627,5.627,0,0,0,.812-3.026,6.109,6.109,0,0,0-.6-2.806,4.3,4.3,0,0,0-1.635-1.8,4.465,4.465,0,0,0-2.331-.615,5.243,5.243,0,0,0-2.2.487v-2.528h5.45Zm1.994,0V114.5H90.4l-5.055,11.456,4.151,1.391,5.728-13.218v-3.015H84.394Zm18.668-.371a7.284,7.284,0,0,0-3.235.707,5.55,5.55,0,0,0-2.273,1.972,5.17,5.17,0,0,0-.823,2.887,5.936,5.936,0,0,0,.626,2.794,4.578,4.578,0,0,0,1.67,1.832,4.321,4.321,0,0,0,2.3.638,4.4,4.4,0,0,0,1.727-.3,4.324,4.324,0,0,0,1.357-.951,5.4,5.4,0,0,1-1.241,1.937,6.28,6.28,0,0,1-2.029,1.264,20.325,20.325,0,0,1-3.293.95l0.9,3.154a18.454,18.454,0,0,0,6.04-1.924,8.516,8.516,0,0,0,3.491-3.5,11.493,11.493,0,0,0,1.136-5.357,6.754,6.754,0,0,0-.719-3.165,5.089,5.089,0,0,0-2.157-2.157,7.224,7.224,0,0,0-3.478-.777h0Zm-0.209,7.722q-1.53,0-1.53-2.388a2.484,2.484,0,0,1,.463-1.624,1.52,1.52,0,0,1,1.229-.556,1.494,1.494,0,0,1,1.056.336,2.006,2.006,0,0,1,.51,1.09,10.387,10.387,0,0,1,.127,2.1,2.415,2.415,0,0,1-.858.788,2.112,2.112,0,0,1-1,.255h0Z"/>
    <path class="cls-5" d="M108.429,40.579l2.919-2.522,5.511,6.708-2.383,2.068ZM128,56.046s-2.813,9.976-16.993,14.986a28.837,28.837,0,0,0-4.982-15l-6.986-8,7.633-6.557,6.351,6.568S120.009,54,128,56.047h0ZM65.042,98L49.061,96.983C54.368,86.732,69.2,76.292,81.049,66.011c8.478-7.351,15.024-14.1,17.4-16.611l5.788,6.632C86.265,77.257,71.5,81.3,65.042,98Zm-9.21-41.98,5.809-6.629c2.387,2.524,8.792,9.13,17.088,16.363-2.354,2-4.765,4-7.2,6.012a140.582,140.582,0,0,1-15.7-15.746h0ZM48.989,70.97C34.8,65.934,32,55.949,32,55.949c8.01-2.032,15.012-7.992,15.012-7.992L53.379,41.4l7.634,6.573-7.009,8A28.831,28.831,0,0,0,48.989,70.97ZM43.174,44.68l5.53-6.7,2.981,2.581-6.066,6.248ZM111,97.032l-16.007.988c-2.907-7.55-7.521-12.521-13.36-17.661,2.309-1.949,4.731-3.963,7.252-6.1C98.087,81.861,107.1,89.5,111,97.032Z"/>
    <path class="cls-6" d="M108.429,34.579l2.919-2.522,5.511,6.708-2.383,2.068ZM128,50.046s-2.813,9.976-16.993,14.986a28.837,28.837,0,0,0-4.982-15l-6.986-8,7.633-6.557,6.351,6.568S120.009,48,128,50.047h0ZM65.042,92L49.061,90.983C54.368,80.732,69.2,70.292,81.049,60.011c8.478-7.351,15.024-14.1,17.4-16.611l5.788,6.632C86.265,71.257,71.5,75.3,65.042,92Zm-9.21-41.98,5.809-6.629c2.387,2.524,8.792,9.13,17.088,16.363-2.354,2-4.765,4-7.2,6.012a140.582,140.582,0,0,1-15.7-15.746h0ZM48.989,64.97C34.8,59.934,32,49.949,32,49.949c8.01-2.032,15.012-7.992,15.012-7.992L53.379,35.4l7.634,6.573-7.009,8A28.831,28.831,0,0,0,48.989,64.97ZM43.174,38.68l5.53-6.7,2.981,2.581-6.066,6.248ZM111,91.032l-16.007.988c-2.907-7.55-7.521-12.521-13.36-17.661,2.309-1.949,4.731-3.963,7.252-6.1C98.087,75.861,107.1,83.5,111,91.032Z"/>
  </g>
</svg>
