<svg xmlns="http://www.w3.org/2000/svg" width="150" height="150" viewBox="0 0 150 150">
  <defs>
    <style>
      .cls-1 {
        fill: #754c29;
      }

      .cls-1, .cls-2, .cls-3, .cls-4, .cls-5 {
        fill-rule: evenodd;
      }

      .cls-2 {
        fill: #b83027;
      }

      .cls-3 {
        fill: #f7f7f7;
      }

      .cls-4 {
        fill: #231f20;
      }

      .cls-5 {
        fill: #fbbd40;
      }
    </style>
  </defs>
  <g id="_420_regiment_icon" data-name="420_regiment_icon">
    <path id="Shape_1_copy_2" data-name="Shape 1 copy 2" class="cls-1" d="M71.156,125.147a88.45,88.45,0,0,0-31.728,5.816c3.494,5.621,7.687,16.477,7.687,16.477,5.451-1.939,24.04-2.714,24.04-2.714h7.687s18.589,0.775,24.04,2.714c0,0,4.193-10.856,7.687-16.477a88.448,88.448,0,0,0-31.727-5.816H71.156Z"/>
    <path id="Shape_1_copy_2-2" data-name="Shape 1 copy 2" class="cls-2" d="M75,1.989L91.244,51.983H143.81l-42.527,30.9,16.244,49.994L75,101.976l-42.527,30.9L48.717,82.88,6.19,51.983H58.756Z"/>
    <path id="_420_copy" data-name="420 copy" class="cls-3" d="M66.741,136.768v-3.225h-3.7l-0.5,3.225H60.7l3.334-7.866L60.356,127.6l-4.075,9.544v2.811h6.21l0.022,2.919h4.227V139.95h1.525v-3.182H66.741Zm7.823-9.064a6.454,6.454,0,0,0-3.116.741,6.96,6.96,0,0,0-2.31,2L71.6,132.41a4.933,4.933,0,0,1,1.188-1.122,2.4,2.4,0,0,1,1.3-.359,1.539,1.539,0,0,1,1.155.424,1.6,1.6,0,0,1,.414,1.166,3.181,3.181,0,0,1-.479,1.591,12.607,12.607,0,0,1-1.689,2.114q-1.209,1.286-3.737,3.682v2.963H79.924l0.436-3.224H74.629a37.524,37.524,0,0,0,3.454-3.269,8.789,8.789,0,0,0,1.569-2.266,5.287,5.287,0,0,0,.4-2.07,4,4,0,0,0-.621-2.168,4.287,4.287,0,0,0-1.863-1.58,6.985,6.985,0,0,0-3.007-.588h0Zm13.88,0a5.246,5.246,0,0,0-4.423,2.015,9.307,9.307,0,0,0-1.547,5.764,9.4,9.4,0,0,0,1.547,5.785,5.821,5.821,0,0,0,8.847,0,9.407,9.407,0,0,0,1.547-5.785,9.31,9.31,0,0,0-1.547-5.764,5.247,5.247,0,0,0-4.423-2.015h0Zm0,3.116a1.211,1.211,0,0,1,.959.37,2.71,2.71,0,0,1,.468,1.362,30.27,30.27,0,0,1,0,5.851,2.8,2.8,0,0,1-.468,1.383,1.191,1.191,0,0,1-.959.382,1.154,1.154,0,0,1-.948-0.414,2.933,2.933,0,0,1-.479-1.406,28.933,28.933,0,0,1,0-5.72,2.871,2.871,0,0,1,.479-1.4,1.167,1.167,0,0,1,.948-0.4h0Z"/>
    <path id="Shape_22_copy_2" data-name="Shape 22 copy 2" class="cls-4" d="M120.826,48.936l-12.474,7.84a1.672,1.672,0,0,1-.937-0.464L95.794,64.09,58.858,89.744l1.358,2.769,0.1,0.751c-2.649,4.34-7.156,4.915-7.5,4.222a5.262,5.262,0,0,0-1.469-1.451,144.323,144.323,0,0,1-22.464,25.911l-0.835.46-6.616-7.432c-0.87-.977.73-2.672,0.73-2.672S37.176,100.755,37.5,100.331s3.071-1.173,3.581-1.555,5.757-5.006,5.644-6.184a14.018,14.018,0,0,1,.657-3.686l11.151-7.6,0.763,1.02L93.048,60.14l11.344-7.592c-1.162-2.335-.385-3.182-0.385-3.182l12-7.821s1.492,0.112,3.211,2.721A8.454,8.454,0,0,1,120.826,48.936ZM95.093,61.443l0.5,0.771,10.582-7.082c-0.2-.222-0.4-0.455-0.592-0.709Z"/>
    <path id="Shape_22_copy_2-2" data-name="Shape 22 copy 2" class="cls-5" d="M120.826,42.985l-12.474,7.84a1.672,1.672,0,0,1-.937-0.464L95.79,58.141,58.858,83.793l1.358,2.769,0.1,0.751c-2.649,4.34-7.156,4.915-7.5,4.222a5.263,5.263,0,0,0-1.469-1.451A144.315,144.315,0,0,1,28.883,116l-0.835.46-6.616-7.432c-0.87-.978.73-2.672,0.73-2.672S37.176,94.8,37.5,94.38s3.071-1.173,3.581-1.555,5.757-5.006,5.644-6.184a14.019,14.019,0,0,1,.657-3.686l11.151-7.6,0.763,1.02L93.048,54.189,104.392,46.6c-1.162-2.335-.385-3.182-0.385-3.182l12-7.821s1.492,0.112,3.211,2.721A8.454,8.454,0,0,1,120.826,42.985ZM95.093,55.492l0.5,0.771,10.582-7.082c-0.2-.222-0.4-0.455-0.592-0.709Z"/>
    <path class="cls-5" d="M120.781,34.667s-3.427-5.236.667-8.473,7.616,0.381,10.091-6c0,0,.952,4.094,0,5.522s-5.427,3.522-4.284,6.854c0,0,1.9,1.523,3.237-2.19,0,0,2.126,5.067-2.952,6.759a5.272,5.272,0,0,1-3.807,0,14.951,14.951,0,0,1,1.523-7.33S121.543,31.05,120.781,34.667Z"/>
  </g>
</svg>
