<svg xmlns="http://www.w3.org/2000/svg" width="150" height="150" viewBox="0 0 150 150">
  <defs>
    <style>
      .cls-1 {
        fill: #b83027;
      }

      .cls-1, .cls-2, .cls-3, .cls-4, .cls-5 {
        fill-rule: evenodd;
      }

      .cls-2 {
        fill: #fbbd40;
      }

      .cls-3 {
        fill: #754c29;
      }

      .cls-4 {
        fill: #231f20;
      }

      .cls-5 {
        fill: #f7f7f7;
      }
    </style>
  </defs>
  <g id="ussr_berlin_radioman_2_icon">
    <path id="Shape_11_copy_3" data-name="Shape 11 copy 3" class="cls-1" d="M124.179,7.034C114.16,28.843,85.009,24.2,52.7,25.7S7.763,49,7.763,49l30.655,68.242s11.861-19.273,42.5-20.756,58.315,2.471,67.7-16.8Z"/>
    <path id="Shape_11_copy_2" data-name="Shape 11 copy 2" class="cls-2" d="M1.376,46.4l43.93,96.567,2.77-5.145L8.1,42.837,3.355,41.649Z"/>
    <path id="Shape_11_copy" data-name="Shape 11 copy" class="cls-3" d="M85.767,106.5a106.852,106.852,0,0,0-38.323,7.024c4.221,6.791,9.285,19.9,9.285,19.9,6.584-2.342,29.038-3.278,29.038-3.278h9.285s22.454,0.936,29.038,3.278c0,0,5.064-13.112,9.285-19.9A106.852,106.852,0,0,0,95.053,106.5H85.767Z"/>
    <path class="cls-4" d="M113.01,75.554a3.148,3.148,0,0,1-4.464,1.506l-0.745-.425a8.5,8.5,0,0,1,2.067,4.776c2.553,3.147,2.362,8.765-.754,13.64-3.344,5.23-8.878,7.765-12.9,6.135-5.248,1-15.849-5.061-12.882-3.164-5.385-3.442-5.835-12.357-1.005-19.911s13.109-10.888,18.494-7.446c0.193,0.124.352,0.284,0.532,0.422a6.767,6.767,0,0,1,3.377,2.247,3.118,3.118,0,0,1,.18-1.448c2.187-5.6,6.72-19.359,2.48-28.039a13.064,13.064,0,0,0-4.393-5.879s-13.179-7.107-25.842,1.421c-8.976,6.045-13.533,15.366-15.43,20.288,0.23,0.021.461,0.035,0.691,0.078a7.551,7.551,0,0,1,1.889.633,7.471,7.471,0,0,1,1.449.107c5.774,1.057,9.246,8.514,7.756,16.656s-7.378,13.887-13.152,12.83c-0.094-.017-0.182-0.05-0.275-0.071a7.612,7.612,0,0,1-3.063.067A7.694,7.694,0,0,1,54.163,88.8c-2.593-.667-4.6-2.957-5.691-6.133-2.678-1.921-4.08-6.188-3.243-10.762,0.888-4.851,1.695-8.865,5.112-9.418,0.993-1.027,3.408-3.493,3.972-5.017,1.923-5.2,7.167-16.967,17.347-24.344,13.373-9.691,25.39-5.685,33.142.711l6.719,5.814S122.815,52.174,113.01,75.554Z"/>
    <path id="_602" data-name="602" class="cls-5" d="M79.456,116.5a4.531,4.531,0,0,0-2.9,1.046,4.457,4.457,0,0,1,.861-2.354,2.139,2.139,0,0,1,1.711-.784,3.046,3.046,0,0,1,.97.142,5.52,5.52,0,0,1,.9.4l1.547-2.506a5.75,5.75,0,0,0-1.58-.73A6.8,6.8,0,0,0,79,111.443a6.477,6.477,0,0,0-3.7,1.057,6.808,6.808,0,0,0-2.419,2.975,10.937,10.937,0,0,0-.85,4.467,8.169,8.169,0,0,0,1.5,5.209,5.41,5.41,0,0,0,4.511,1.9,6.039,6.039,0,0,0,3.095-.762,5.131,5.131,0,0,0,1.983-2.016,5.673,5.673,0,0,0,.675-2.735,6.13,6.13,0,0,0-.545-2.68,4.073,4.073,0,0,0-1.525-1.744,4.208,4.208,0,0,0-2.266-.61h0Zm-1.373,7.54a1.141,1.141,0,0,1-.915-0.381,2.56,2.56,0,0,1-.469-1.242,15.7,15.7,0,0,1-.142-2.408,2.434,2.434,0,0,1,1.547-.654,1.161,1.161,0,0,1,1.057.49,3.353,3.353,0,0,1,.316,1.711,4.053,4.053,0,0,1-.338,1.83,1.115,1.115,0,0,1-1.057.654h0Zm13.685-12.6a5.245,5.245,0,0,0-4.424,2.016,9.306,9.306,0,0,0-1.547,5.764,9.4,9.4,0,0,0,1.547,5.786,5.822,5.822,0,0,0,8.848,0,9.407,9.407,0,0,0,1.547-5.786,9.308,9.308,0,0,0-1.547-5.764,5.245,5.245,0,0,0-4.424-2.016h0Zm0,3.116a1.212,1.212,0,0,1,.959.371,2.711,2.711,0,0,1,.469,1.362,30.292,30.292,0,0,1,0,5.851,2.805,2.805,0,0,1-.469,1.384,1.194,1.194,0,0,1-.959.381,1.155,1.155,0,0,1-.948-0.414,2.928,2.928,0,0,1-.479-1.405,28.943,28.943,0,0,1,0-5.721,2.871,2.871,0,0,1,.479-1.405,1.168,1.168,0,0,1,.948-0.4h0Zm12.748-3.116a6.454,6.454,0,0,0-3.116.741,6.966,6.966,0,0,0-2.31,2l2.463,1.961a4.924,4.924,0,0,1,1.187-1.122,2.4,2.4,0,0,1,1.3-.36,1.539,1.539,0,0,1,1.155.425,1.6,1.6,0,0,1,.414,1.166,3.184,3.184,0,0,1-.479,1.591,12.638,12.638,0,0,1-1.689,2.114q-1.211,1.285-3.738,3.683v2.964h10.177l0.436-3.226h-5.731a37.529,37.529,0,0,0,3.454-3.269,8.754,8.754,0,0,0,1.569-2.266,5.28,5.28,0,0,0,.4-2.07,4.01,4.01,0,0,0-.621-2.169,4.292,4.292,0,0,0-1.863-1.579,6.973,6.973,0,0,0-3.008-.589h0Z"/>
    <path id="Shape_21_copy" data-name="Shape 21 copy" class="cls-2" d="M113.01,70.547a3.148,3.148,0,0,1-4.464,1.506l-0.745-.425a8.5,8.5,0,0,1,2.067,4.776c2.553,3.147,2.362,8.765-.754,13.64-3.344,5.231-8.878,7.765-12.9,6.135a7.362,7.362,0,0,1-5.45-.863c-4.476-2.861-4.566-10.715-.2-17.543,4.007-6.269,10.371-9.477,14.852-7.747a3.146,3.146,0,0,1-.5-3.147c2.187-5.6,6.72-19.359,2.48-28.039a13.064,13.064,0,0,0-4.393-5.879s-13.179-7.106-25.842,1.421c-9.3,6.263-13.864,16.055-15.633,20.815a2.837,2.837,0,0,1-.58.939,8.146,8.146,0,0,1,4.812-.648C71.524,56.545,75,64,73.506,72.145s-7.378,13.887-13.152,12.83S51.108,76.461,52.6,68.318c0.923-5.044,3.536-9.164,6.762-11.32a2.8,2.8,0,0,1-1.563-.153l-1.038-.421c-2.842,2.365-5.188,6.6-6.124,11.716-1.234,6.744.357,12.951,3.647,15.689-2.653-.625-4.7-2.946-5.81-6.171-2.678-1.921-4.08-6.188-3.243-10.762,0.888-4.851,4.007-8.489,7.425-9.043a10.921,10.921,0,0,1,2.709-2.072,2.838,2.838,0,0,1-1.05-3.32c1.923-5.2,7.167-16.967,17.347-24.344,13.373-9.691,25.39-5.685,33.142.711l6.719,5.814S122.815,47.167,113.01,70.547Zm-50.143,8.6c2.889,0.529,6.009-3.289,6.968-8.528a13.666,13.666,0,0,0-.592-7.728,15.777,15.777,0,0,1-.118,5.209c-0.959,5.239-4.078,9.057-6.968,8.528a4.213,4.213,0,0,1-2.9-2.714C59.694,76.737,61,78.8,62.867,79.143Zm37.95-13.485a8.512,8.512,0,0,1,2.389,2.306c-5.063-.765-11.227,2.582-15.133,8.693-3.975,6.218-4.37,13.354-1.384,17.6a8.57,8.57,0,0,1-3.36-1.247c-5.385-3.442-5.835-12.357-1.005-19.911S95.432,62.216,100.817,65.658Z"/>
  </g>
</svg>
