<svg id="_273_guards_icon" data-name="273_guards_icon" xmlns="http://www.w3.org/2000/svg" width="150" height="150" viewBox="0 0 150 150">
  <defs>
    <style>
      .cls-1 {
        fill: #b83027;
      }

      .cls-1, .cls-2, .cls-3, .cls-4, .cls-5 {
        fill-rule: evenodd;
      }

      .cls-2 {
        fill: #fbbd40;
      }

      .cls-3 {
        fill: #231f20;
      }

      .cls-4 {
        fill: #754c29;
      }

      .cls-5 {
        fill: #f7f7f7;
      }
    </style>
  </defs>
  <path id="Shape_11_copy_3" data-name="Shape 11 copy 3" class="cls-1" d="M124.179,7.034C114.16,28.843,85.009,24.2,52.7,25.7S7.763,49,7.763,49l30.655,68.242s11.861-19.273,42.5-20.756,58.315,2.471,67.7-16.8Z"/>
  <path id="Shape_11_copy_2" data-name="Shape 11 copy 2" class="cls-2" d="M1.376,46.4l43.93,96.567,2.77-5.145L8.1,42.837,3.355,41.649Z"/>
  <path id="Shape_10_copy_3" data-name="Shape 10 copy 3" class="cls-3" d="M127.565,114.906a10.771,10.771,0,0,0-6.161-1.518L108.746,92.836h0L95.865,72.146V87.112a0.3,0.3,0,0,1,.059.172,1.216,1.216,0,0,1-.639,1.151V91.98a9.22,9.22,0,0,1,3.354,2.026,8.312,8.312,0,0,1,.829,2.3s1.658,3.178-.553,3.362-1.289-2.164-1.243-2.487a6.993,6.993,0,0,0,.138-2.625c-0.276-.507-2.324-1.013-3.567-1.382S93.183,92.3,93.183,92.3v-3.96c-0.718,0-.54-1.27-0.532-1.325V72.1L66.13,109.8H60.9c0.552-.693,1.094-1.411,1.617-2.155L90.567,67.763a2.1,2.1,0,0,1,2.084-.851V54.541l-4.6,7.962a1.657,1.657,0,0,1-2.257.6,1.627,1.627,0,0,1-.526-0.492,2.329,2.329,0,0,1-.495-0.247l-0.784-.526-5.2,7.737a1.76,1.76,0,0,1-2.435.479l-0.164-.11a1.752,1.752,0,0,1-.763-1.585c-0.043-.012-0.084-0.019-0.128-0.032L66.07,82.086a2.8,2.8,0,0,1,.325,2.879l0.01,0.007-2.912,4.336c1.983,1.75,3.6,3.491,3.975,4.525,0.8,2.232-1.072,7.769-1.072,7.769-3.483-.179-9.644,2.679-9.644,2.679C50.86,95.8,42.466,99.547,42.466,99.547l-0.8-2.947c-1.786-1.429-3.393-6.34-3.393-6.34l-1.83-.439-0.4-.1s3.661-5.8,6.251-7.144c2.011-1.04,7.3-.516,11.242.606l2.819-4.2a1.678,1.678,0,0,1,.243-0.574c0.517-.769,1.643-1,2.992-0.773l9.682-14.417a2.332,2.332,0,0,1,.028-1.883L69.229,61.3l6.7-9.971H75.682a2.1,2.1,0,1,1,0-4.2h4.391l2.4-3.571V39.808a1.786,1.786,0,0,1,1.786-1.786h1.436L91.617,29.2a1.74,1.74,0,0,1,.116-0.257c0.887-1.32,3.406-1.182,5.626.309s3.3,3.77,2.415,5.091c-0.013.019-.033,0.031-0.047,0.049L99.736,34.4l-5.752,8.566,4.361,4.166h10.738a2.1,2.1,0,1,1,0,4.2H95.865V67.439a2.1,2.1,0,0,1,2.539.845L118.958,101.3c4.072,6.541,6.2,7.624,8.25,7.981s3.215,2.947,3.215,2.947C128.19,112.316,127.565,114.906,127.565,114.906Z"/>
  <path id="Shape_10_copy_2" data-name="Shape 10 copy 2" class="cls-2" d="M127.565,108.151a10.771,10.771,0,0,0-6.161-1.518L108.746,86.082h0L95.865,65.391V80.357a0.3,0.3,0,0,1,.059.172,1.216,1.216,0,0,1-.639,1.151v3.546a9.22,9.22,0,0,1,3.354,2.026,8.313,8.313,0,0,1,.829,2.3s1.658,3.177-.553,3.362-1.289-2.164-1.243-2.487A6.993,6.993,0,0,0,97.81,87.8c-0.276-.506-2.324-1.013-3.567-1.381s-1.059-.875-1.059-0.875v-3.96c-0.718,0-.54-1.27-0.532-1.326V65.342l-27.37,38.911s-1.994,3.544-3.756,7.111H51.908c3.022-1.744,7.189-5.614,10.608-10.475l28.051-39.88a2.1,2.1,0,0,1,2.084-.851V47.787l-4.6,7.962a1.657,1.657,0,0,1-2.257.6,1.628,1.628,0,0,1-.526-0.492,2.328,2.328,0,0,1-.495-0.246l-0.784-.526-5.2,7.737a1.76,1.76,0,0,1-2.435.479l-0.164-.11a1.752,1.752,0,0,1-.763-1.585c-0.043-.012-0.084-0.019-0.128-0.032L66.07,75.332A2.8,2.8,0,0,1,66.4,78.21l0.01,0.007-2.912,4.336c1.983,1.75,3.6,3.491,3.975,4.525,0.8,2.232-1.072,7.769-1.072,7.769-3.483-.179-9.644,2.679-9.644,2.679-5.894-8.483-14.287-4.733-14.287-4.733l-0.8-2.947c-1.786-1.429-3.393-6.34-3.393-6.34l-1.83-.439-0.4-.1s3.661-5.8,6.251-7.144c2.011-1.04,7.3-.516,11.242.606l2.819-4.2a1.678,1.678,0,0,1,.243-0.574c0.517-.769,1.643-1,2.992-0.773L69.266,56.47a2.333,2.333,0,0,1,.028-1.883l-0.064-.043,6.7-9.971H75.682a2.1,2.1,0,1,1,0-4.2h4.391l2.4-3.57V33.054a1.786,1.786,0,0,1,1.786-1.786h1.436l5.924-8.822a1.736,1.736,0,0,1,.116-0.257c0.887-1.32,3.406-1.182,5.626.309s3.3,3.77,2.415,5.091c-0.013.019-.033,0.031-0.047,0.049l0.009,0.006L93.984,36.21l4.361,4.166h10.738a2.1,2.1,0,1,1,0,4.2H95.865V60.684a2.1,2.1,0,0,1,2.539.845l20.554,33.016c4.072,6.54,6.2,7.624,8.25,7.981s3.215,2.946,3.215,2.946C128.19,105.562,127.565,108.151,127.565,108.151Z"/>
  <path id="Shape_11_copy" data-name="Shape 11 copy" class="cls-4" d="M85.767,106.5a106.852,106.852,0,0,0-38.323,7.024c4.221,6.791,9.285,19.9,9.285,19.9,6.584-2.342,29.038-3.278,29.038-3.278h9.285s22.454,0.936,29.038,3.278c0,0,5.064-13.112,9.285-19.9A106.852,106.852,0,0,0,95.053,106.5H85.767Z"/>
  <path id="_273" data-name="273" class="cls-5" d="M78.66,111.443a6.455,6.455,0,0,0-3.116.741,6.963,6.963,0,0,0-2.31,2L75.7,116.15a4.935,4.935,0,0,1,1.188-1.122,2.4,2.4,0,0,1,1.3-.36,1.54,1.54,0,0,1,1.155.425,1.6,1.6,0,0,1,.414,1.166,3.181,3.181,0,0,1-.479,1.591,12.61,12.61,0,0,1-1.689,2.114q-1.21,1.285-3.737,3.683v2.964H84.021l0.436-3.226H78.725a37.385,37.385,0,0,0,3.454-3.269,8.752,8.752,0,0,0,1.569-2.266,5.287,5.287,0,0,0,.4-2.07,4.01,4.01,0,0,0-.621-2.169,4.292,4.292,0,0,0-1.863-1.579,6.971,6.971,0,0,0-3.007-.589h0Zm7.213,0.349v3.182h5.644l-4.751,10.765,3.9,1.307,5.383-12.421v-2.833H85.873Zm16.759-.349a7.518,7.518,0,0,0-5.449,2.136L99.3,115.8a3.955,3.955,0,0,1,2.79-1.243,1.91,1.91,0,0,1,1.231.36,1.227,1.227,0,0,1,.447,1.013,1.393,1.393,0,0,1-.458,1.1,1.986,1.986,0,0,1-1.351.4h-0.894l-0.479,2.877h1.308a2.44,2.44,0,0,1,1.6.435,1.706,1.706,0,0,1,.512,1.373,1.537,1.537,0,0,1-.533,1.264,2.119,2.119,0,0,1-1.384.436,3.427,3.427,0,0,1-1.493-.316,5.54,5.54,0,0,1-1.427-1.057l-2.245,2.2a6.673,6.673,0,0,0,5.47,2.4,7.871,7.871,0,0,0,3.28-.621,4.735,4.735,0,0,0,2.048-1.656,4.032,4.032,0,0,0,.687-2.277,3.438,3.438,0,0,0-.959-2.626,4.185,4.185,0,0,0-2.463-1.079,4.317,4.317,0,0,0,2.179-1.351,3.452,3.452,0,0,0,.741-2.245,3.241,3.241,0,0,0-.61-1.939,3.96,3.96,0,0,0-1.8-1.329,7.647,7.647,0,0,0-2.865-.48h0Z"/>
  <path id="Shape_10_copy_4" data-name="Shape 10 copy 4" class="cls-3" d="M98.5,26.688c-0.515.767-2.11,0.6-3.562-.378s-2.213-2.388-1.7-3.155,2.11-.6,3.562.378S99.02,25.922,98.5,26.688Z"/>
</svg>
