<svg xmlns="http://www.w3.org/2000/svg" width="150" height="150" viewBox="0 0 150 150">
  <defs>
    <style>
      .cls-1 {
        fill: #b83027;
      }

      .cls-1, .cls-2, .cls-3, .cls-4, .cls-5, .cls-6 {
        fill-rule: evenodd;
      }

      .cls-2 {
        fill: #fbbd40;
      }

      .cls-3 {
        fill: #754c29;
      }

      .cls-4 {
        fill: #231f20;
      }

      .cls-5 {
        fill: #f7ba3f;
      }

      .cls-6 {
        fill: #f7f7f7;
      }
    </style>
  </defs>
  <g id="ussr_berlin_pilot_fighter_2_icon">
    <path id="Shape_11_copy_3" data-name="Shape 11 copy 3" class="cls-1" d="M124.179,7.034C114.16,28.843,85.009,24.2,52.7,25.7S7.763,49,7.763,49l30.655,68.242s11.861-19.273,42.5-20.756,58.315,2.471,67.7-16.8Z"/>
    <path id="Shape_11_copy_2" data-name="Shape 11 copy 2" class="cls-2" d="M1.376,46.4l43.93,96.567,2.77-5.145L8.1,42.837,3.355,41.649Z"/>
    <path id="Shape_11_copy" data-name="Shape 11 copy" class="cls-3" d="M85.767,106.5a106.852,106.852,0,0,0-38.323,7.024c4.221,6.791,9.285,19.9,9.285,19.9,6.584-2.342,29.038-3.278,29.038-3.278h9.285s22.454,0.936,29.038,3.278c0,0,5.064-13.112,9.285-19.9A106.852,106.852,0,0,0,95.053,106.5H85.767Z"/>
    <path class="cls-4" d="M141.856,38.3S116.333,57.918,109.062,63.68a12.492,12.492,0,0,1-.022,2.293c13.213-1.019,14.363-.2,14.363-0.2s3.324,0.82,2.59,2.547-7.079,1.338-7.079,1.338l-10.329-1.316c-0.054.192-.095,0.384-0.159,0.576-1.51,4.565-5.143,7.649-8.826,7.886a1.575,1.575,0,0,1-.241.046,44.366,44.366,0,0,1-2.978,5.671c-4.317,6.863-6.734,7.986-6.734,7.986a1.143,1.143,0,0,1-1.036-.6c-0.216-.6.432-3.928,2.676-8.417a40.189,40.189,0,0,1,2.971-4.741,21.3,21.3,0,0,1-4.438-.569l-0.078-.029L25.865,103.641a28.655,28.655,0,0,1-6.563,1.953c-1.944.328-3.868,0.437-4.145-.332-0.583-1.618,9.114-7.2,9.114-7.2l43.771-24.8s2.007-1.1,2.331-2.072a8.361,8.361,0,0,0-.622-3.13l-0.738-.3S60.725,62.67,56.5,58.7l-0.018-.024c-3.133,1.369-11.365,4.949-13.45,5.679-2.59.907-3.151,0.95-3.151,0.6s4.36-2.935,4.36-2.935L55.05,56.416a41.327,41.327,0,0,1-2.871-6.351c-2.029-5.655-1.209-6.518-.648-6.691l7.986,8.59,3.826,0.219c3.4-1.485,10.938-4.722,11.671-4.622,0.95,0.13-.3.907-0.3,0.907L68.2,52.461l0.377,0.021s3.5-2.038,6.648-1.942a6.789,6.789,0,0,1,4.187,1.295l2.676,2.245,14.944,0.405L95,50.41S90.294,40.4,92.539,40.4s4.446,6.087,4.705,6.691c0.131,0.306,1.481,4.058,2.782,7.686a13.452,13.452,0,0,1,1.535.415l28.7-15.007s10.943-4.662,12.173-3.95S141.856,38.3,141.856,38.3Z"/>
    <path class="cls-5" d="M141.856,32.3S116.333,51.918,109.062,57.68a13.055,13.055,0,0,1-.636,5.242c-1.51,4.565-5.143,7.649-8.825,7.886a1.29,1.29,0,0,1-.328.063c-2.892.043-7.986-.173-9.454-0.691l-0.057-.021c0.043,0.13.1,0.242,0.142,0.377l-3.742,1.61a2.361,2.361,0,0,0,.168-0.527L25.865,97.641A28.645,28.645,0,0,1,19.3,99.594c-1.944.327-3.868,0.437-4.145-.332-0.583-1.619,9.114-7.2,9.114-7.2l43.771-24.8s2.007-1.1,2.331-2.072a8.36,8.36,0,0,0-.622-3.13l-0.738-.3S60.725,56.67,56.5,52.7l-0.018-.024c-3.133,1.369-11.364,4.949-13.45,5.679-2.59.907-3.151,0.95-3.151,0.6s4.36-2.935,4.36-2.935L55.05,50.416a41.337,41.337,0,0,1-2.871-6.351c-2.029-5.655-1.209-6.518-.647-6.691l7.986,8.59,3.826,0.219c3.4-1.484,10.938-4.721,11.671-4.622,0.95,0.13-.3.907-0.3,0.907L68.2,46.461l0.377,0.022s3.5-2.038,6.648-1.942a6.79,6.79,0,0,1,4.187,1.295l2.676,2.245,15.928,0.432a12.756,12.756,0,0,1,3.54.676l28.7-15.007s10.943-4.662,12.173-3.95S141.856,32.3,141.856,32.3Z"/>
    <path id="Shape_14_copy" data-name="Shape 14 copy" class="cls-4" d="M107.535,61.69c-1.388,4.194-5.187,6.709-8.485,5.618s-4.847-5.376-3.459-9.571,5.187-6.709,8.485-5.618S108.923,57.5,107.535,61.69ZM76.054,63.5s12.066-.885,14.351,7.47l-3.617,2.61S88.867,66.876,76.054,63.5ZM74.647,52.634s-0.718-3.658.777-5.439,3.755-.259,5.18,1.425A52.454,52.454,0,0,0,74.647,52.634Z"/>
    <path id="Shape_14_copy_2" data-name="Shape 14 copy 2" class="cls-5" d="M125.993,62.324c-0.734,1.727-7.079,1.338-7.079,1.338l-11.181-1.425,0.112-.519c-0.919,2.163-4.208,3.342-6.2,3.046a51.962,51.962,0,0,1-5.265,11.761c-4.317,6.863-6.734,7.986-6.734,7.986a1.143,1.143,0,0,1-1.036-.6c-0.216-.6.432-3.928,2.676-8.417,1.828-3.655,6.686-9.74,8.43-11.876a5.088,5.088,0,0,1-.584-4.689,5.671,5.671,0,0,1,1.8-2.646L95,44.41S90.294,34.4,92.539,34.4s4.446,6.086,4.705,6.691c0.241,0.561,4.572,12.687,5.188,14.414a3,3,0,0,1,1.721.021c1.683,0.557,3.939,2.743,3.959,4.96l0.1-.445c14.029-1.122,15.2-.259,15.2-0.259S126.727,60.6,125.993,62.324Z"/>
    <path id="_287" data-name="287" class="cls-6" d="M77.93,111.443a6.455,6.455,0,0,0-3.116.741,6.963,6.963,0,0,0-2.31,2l2.462,1.961a4.935,4.935,0,0,1,1.188-1.122,2.4,2.4,0,0,1,1.3-.36,1.54,1.54,0,0,1,1.155.425,1.6,1.6,0,0,1,.414,1.166,3.181,3.181,0,0,1-.479,1.591,12.61,12.61,0,0,1-1.689,2.114q-1.209,1.285-3.737,3.683v2.964H83.291l0.436-3.226H78a37.385,37.385,0,0,0,3.454-3.269,8.752,8.752,0,0,0,1.569-2.266,5.287,5.287,0,0,0,.4-2.07,4.01,4.01,0,0,0-.621-2.169,4.292,4.292,0,0,0-1.863-1.579,6.971,6.971,0,0,0-3.007-.589h0Zm17.085,7.213a4.733,4.733,0,0,0,1.722-1.547A3.344,3.344,0,0,0,97.3,115.3a3.259,3.259,0,0,0-1.493-2.822,6.944,6.944,0,0,0-4.021-1.035,7.451,7.451,0,0,0-2.92.534,4.491,4.491,0,0,0-1.94,1.46,3.445,3.445,0,0,0-.676,2.081,4.083,4.083,0,0,0,2.07,3.552,4.737,4.737,0,0,0-1.95,1.45,3.414,3.414,0,0,0-.686,2.124,3.728,3.728,0,0,0,.708,2.2,4.84,4.84,0,0,0,2.059,1.6,7.906,7.906,0,0,0,3.225.6,8.34,8.34,0,0,0,3.356-.61,4.893,4.893,0,0,0,2.114-1.634,3.791,3.791,0,0,0,.719-2.223,3.7,3.7,0,0,0-.686-2.19,5.9,5.9,0,0,0-2.168-1.733h0Zm-3.2-4.4a1.321,1.321,0,0,1,.992.349,1.291,1.291,0,0,1,.338.937,2.8,2.8,0,0,1-.2,1.068,2.388,2.388,0,0,1-.785.937l-0.523-.218a2.353,2.353,0,0,1-.937-0.752,1.742,1.742,0,0,1-.283-0.991,1.276,1.276,0,0,1,.371-0.992,1.465,1.465,0,0,1,1.024-.338h0Zm0.022,9.785a1.963,1.963,0,0,1-1.362-.458,1.529,1.529,0,0,1-.512-1.2,2.643,2.643,0,0,1,.272-1.2,2.4,2.4,0,0,1,.817-0.915l0.828,0.3a3.994,3.994,0,0,1,1.329.806,1.583,1.583,0,0,1,.392,1.134,1.46,1.46,0,0,1-.447,1.089,1.814,1.814,0,0,1-1.319.436h0Zm7.344-12.247v3.182h5.645l-4.751,10.765,3.9,1.307,5.382-12.421v-2.833H99.177Z"/>
  </g>
</svg>
