<svg xmlns="http://www.w3.org/2000/svg" width="150" height="150" viewBox="0 0 150 150">
  <defs>
    <style>
      .cls-1 {
        fill: #754c29;
      }

      .cls-1, .cls-2, .cls-3, .cls-4, .cls-5 {
        fill-rule: evenodd;
      }

      .cls-2 {
        fill: #b83027;
      }

      .cls-3 {
        fill: #231f20;
      }

      .cls-4 {
        fill: #fbbd40;
      }

      .cls-5 {
        fill: #f7f7f7;
      }
    </style>
  </defs>
  <g id="_381_engineer_icon" data-name="381_engineer_icon">
    <path id="Shape_1_copy_5" data-name="Shape 1 copy 5" class="cls-1" d="M71.156,125.147a88.45,88.45,0,0,0-31.728,5.816c3.494,5.621,7.687,16.477,7.687,16.477,5.451-1.939,24.04-2.714,24.04-2.714h7.687s18.589,0.775,24.04,2.714c0,0,4.193-10.856,7.687-16.477a88.448,88.448,0,0,0-31.727-5.816H71.156Z"/>
    <path id="Shape_1_copy_5-2" data-name="Shape 1 copy 5" class="cls-2" d="M75,1.989L91.244,51.983H143.81l-42.527,30.9,16.244,49.994L75,101.976l-42.527,30.9L48.717,82.88,6.19,51.983H58.756Z"/>
    <path id="Shape_1_copy_4" data-name="Shape 1 copy 4" class="cls-3" d="M101.921,76.228L97.969,58.68A149.552,149.552,0,0,0,82.143,73.787c-0.785.905-1.859,2.032-3.089,3.275,0.062,0.058.121,0.118,0.183,0.176,5.224,4.825,16.6,14.859,17.671,15.778S107.05,104.5,107.05,104.5a2.492,2.492,0,0,1-.154,2.3c-0.691,1.378-4.638,4.075-8.144,2.91-0.692-.23-1.613-2.834-2.151-3.983s-3.15-6.663-6.454-9.8c-2.18-2.072-9.47-8.642-15.574-14.481-6.1,5.825-13.4,12.394-15.582,14.462-3.3,3.127-5.9,8.62-6.439,9.764s-1.457,3.738-2.146,3.967c-3.5,1.16-7.436-1.526-8.126-2.9a2.477,2.477,0,0,1-.153-2.288s9.046-10.527,10.119-11.442S64.665,82.1,69.877,77.3c0.08-.073.154-0.149,0.232-0.223-1.263-1.276-2.363-2.432-3.165-3.358a150.01,150.01,0,0,0-15.86-15.168L47.123,76.165,26.994,62.072l16.134-9.8s1.152-5.591,7.376-10.263l7.837,6.127a7.956,7.956,0,0,1-1.127,2.645l10.039,9.15a50.576,50.576,0,0,1,2.919,4.9,42.1,42.1,0,0,0,4.411,7.212,41.836,41.836,0,0,0,4.341-7.1,50.356,50.356,0,0,1,2.913-4.882l10.017-9.113a7.914,7.914,0,0,1-1.124-2.634l7.819-6.1c6.21,4.653,7.359,10.221,7.359,10.221l16.1,9.764Z"/>
    <path id="Shape_1_copy_3" data-name="Shape 1 copy 3" class="cls-4" d="M101.921,70.228L97.969,52.68A149.552,149.552,0,0,0,82.143,67.787c-0.785.905-1.859,2.032-3.089,3.275,0.062,0.058.121,0.118,0.183,0.176,5.224,4.825,16.6,14.859,17.671,15.778S107.05,98.5,107.05,98.5a2.492,2.492,0,0,1-.154,2.3c-0.691,1.378-4.638,4.075-8.144,2.91-0.692-.23-1.613-2.834-2.151-3.983s-3.15-6.663-6.454-9.8c-2.18-2.072-9.47-8.642-15.574-14.481-6.1,5.825-13.4,12.394-15.582,14.462-3.3,3.127-5.9,8.62-6.439,9.764s-1.457,3.738-2.146,3.967c-3.5,1.16-7.436-1.526-8.126-2.9a2.478,2.478,0,0,1-.153-2.288s9.046-10.527,10.119-11.442S64.665,76.1,69.877,71.3c0.08-.073.154-0.149,0.232-0.223-1.263-1.276-2.363-2.432-3.165-3.358a150.01,150.01,0,0,0-15.86-15.168L47.123,70.165,26.994,56.072l16.134-9.8s1.152-5.591,7.376-10.263l7.837,6.127a7.956,7.956,0,0,1-1.127,2.645l10.039,9.15a50.576,50.576,0,0,1,2.919,4.9,42.1,42.1,0,0,0,4.411,7.212,41.836,41.836,0,0,0,4.341-7.1,50.356,50.356,0,0,1,2.913-4.882l10.017-9.113a7.914,7.914,0,0,1-1.124-2.634l7.819-6.1c6.21,4.653,7.359,10.221,7.359,10.221l16.1,9.764Z"/>
    <path id="_381" data-name="381" class="cls-5" d="M63.142,128.986a6.764,6.764,0,0,0-4.9,1.918l1.9,2a3.559,3.559,0,0,1,2.508-1.115,1.722,1.722,0,0,1,1.107.323,1.1,1.1,0,0,1,.4.909,1.247,1.247,0,0,1-.411.988,1.786,1.786,0,0,1-1.215.362h-0.8L61.3,136.949h1.175a2.194,2.194,0,0,1,1.44.391,1.532,1.532,0,0,1,.46,1.232,1.38,1.38,0,0,1-.48,1.135,1.905,1.905,0,0,1-1.244.391,3.091,3.091,0,0,1-1.342-.283,5,5,0,0,1-1.283-.949l-2.018,1.976a6.006,6.006,0,0,0,4.917,2.152,7.074,7.074,0,0,0,2.948-.558,4.249,4.249,0,0,0,1.841-1.487,3.617,3.617,0,0,0,.617-2.044,3.083,3.083,0,0,0-.862-2.357,3.759,3.759,0,0,0-2.214-.969,3.885,3.885,0,0,0,1.959-1.213,3.1,3.1,0,0,0,.666-2.015,2.91,2.91,0,0,0-.549-1.741,3.571,3.571,0,0,0-1.616-1.193,6.889,6.889,0,0,0-2.576-.431h0Zm15.339,6.476a4.258,4.258,0,0,0,1.548-1.389,3,3,0,0,0,.509-1.624,2.924,2.924,0,0,0-1.342-2.533,6.244,6.244,0,0,0-3.614-.93,6.7,6.7,0,0,0-2.625.48,4.031,4.031,0,0,0-1.743,1.31,3.094,3.094,0,0,0-.607,1.869,3.665,3.665,0,0,0,1.861,3.188,4.262,4.262,0,0,0-1.753,1.3,3.067,3.067,0,0,0-.617,1.908,3.347,3.347,0,0,0,.637,1.976,4.36,4.36,0,0,0,1.851,1.438,7.133,7.133,0,0,0,2.9.538,7.513,7.513,0,0,0,3.017-.548,4.4,4.4,0,0,0,1.9-1.467,3.4,3.4,0,0,0,.647-2,3.32,3.32,0,0,0-.617-1.966,5.292,5.292,0,0,0-1.949-1.555h0ZM75.6,131.51a1.189,1.189,0,0,1,.891.313,1.157,1.157,0,0,1,.3.841,2.509,2.509,0,0,1-.176.959,2.146,2.146,0,0,1-.705.841l-0.47-.2a2.114,2.114,0,0,1-.842-0.674,1.567,1.567,0,0,1-.255-0.891,1.144,1.144,0,0,1,.333-0.89,1.318,1.318,0,0,1,.921-0.3h0Zm0.02,8.784a1.77,1.77,0,0,1-1.224-.411,1.373,1.373,0,0,1-.46-1.076,2.367,2.367,0,0,1,.245-1.076,2.154,2.154,0,0,1,.735-0.822l0.744,0.274a3.586,3.586,0,0,1,1.2.724,1.418,1.418,0,0,1,.353,1.017,1.311,1.311,0,0,1-.4.979,1.633,1.633,0,0,1-1.185.391h0Zm10.931-11-4.721,2.818,1.685,2.523,2.723-1.663V142.6H90V129.3H86.552Z"/>
  </g>
</svg>
