<svg xmlns="http://www.w3.org/2000/svg" width="150" height="150" viewBox="0 0 150 150">
  <defs>
    <style>
      .cls-1 {
        fill: #754c29;
      }

      .cls-1, .cls-2, .cls-3, .cls-4, .cls-5 {
        fill-rule: evenodd;
      }

      .cls-2 {
        fill: #b83027;
      }

      .cls-3 {
        fill: #231f20;
      }

      .cls-4 {
        fill: #f7f7f7;
      }

      .cls-5 {
        fill: #fbbd40;
      }
    </style>
  </defs>
  <path id="Shape_1_copy_8" data-name="Shape 1 copy 8" class="cls-1" d="M71.156,125.147a88.45,88.45,0,0,0-31.728,5.816c3.494,5.621,7.687,16.477,7.687,16.477,5.451-1.939,24.04-2.714,24.04-2.714h7.687s18.589,0.775,24.04,2.714c0,0,4.193-10.856,7.687-16.477a88.448,88.448,0,0,0-31.727-5.816H71.156Z"/>
  <path id="Shape_1_copy_8-2" data-name="Shape 1 copy 8" class="cls-2" d="M75,1.989L91.244,51.983H143.81l-42.527,30.9,16.244,49.994L75,101.976l-42.527,30.9L48.717,82.88,6.19,51.983H58.756Z"/>
  <g id="_ussr_moscow_sniper_2" data-name=" ussr_moscow_sniper_2">
    <path class="cls-3" d="M123.829,130.622L110.57,116.588a2.794,2.794,0,0,0-.333-0.271c-0.022-.019-0.044-0.037-0.072-0.058a2.649,2.649,0,0,0-.268-0.178,2.444,2.444,0,0,0-.389-0.175c-0.054-.02-0.1-0.054-0.158-0.071l-0.749-.226a5.936,5.936,0,0,1-3.243-2.429c-0.7-1.532-3.311-7.426-3.311-7.426l2.11,0.237,2.042-2.058a4.135,4.135,0,0,0,0-2.818l2.974,2.951,2.383-2.4L97.888,88.249l-2.517,2.4L104.2,99.7a4.2,4.2,0,0,1-.721,2.282L79.011,77.58c0.332-.359.679-0.731,1.058-1.132L94.188,62.435l12.7-14.19-0.284-.286,12.005-11.914-1.419-1.429-5.373,5.333-2.156-2.172-1.429,1.418,2.156,2.172-5.2,5.163-1.135-1.143L90.273,58.49l-13.7,13.6-0.037-.038L75,73.581l-1.536-1.532-0.037.038-13.7-13.6-13.775-13.1L44.818,46.53l-5.2-5.163,2.156-2.172-1.429-1.418-2.156,2.172-5.373-5.333L31.4,36.044l12,11.914-0.284.286,12.7,14.19L69.932,76.448c0.378,0.4.725,0.773,1.057,1.132l-24.471,24.4A4.2,4.2,0,0,1,45.8,99.7l8.832-9.051-2.517-2.4L38.443,101.665l2.383,2.4,2.974-2.951a4.14,4.14,0,0,0,0,2.818l2.042,2.058,2.11-.237s-2.611,5.894-3.311,7.426a5.933,5.933,0,0,1-3.243,2.429l-0.749.226c-0.056.017-.1,0.051-0.158,0.071a2.409,2.409,0,0,0-.389.175,2.674,2.674,0,0,0-.269.178c-0.027.021-.049,0.039-0.071,0.058a2.788,2.788,0,0,0-.333.271L26.171,130.622l-0.011.012h0l10.451,7.1,9.518-17.05,1.529-1.3a2.179,2.179,0,0,0,.763-1.833,11.414,11.414,0,0,1,.126-3.692c0.46-1.251,2.925-5.513,2.925-5.513l0.015-.015a2.359,2.359,0,0,1,1.466-.093s1.105,1.4,2.074,1.346,3.027-2.438,3.027-2.438a1.873,1.873,0,0,0,.123-2.391,4.136,4.136,0,0,1-.878-1.171c0-.154-0.031-0.62-0.06-1.02L61.594,98.2a64.727,64.727,0,0,0,6.186,4.741l4.923-6.7a57.451,57.451,0,0,1-4.824-4.393l0.571-.578,5.725-7.952A11.255,11.255,0,0,1,75,82.18a11.255,11.255,0,0,1,.824,1.137l5.725,7.952,0.571,0.578A57.451,57.451,0,0,1,77.3,96.24l4.923,6.7A64.716,64.716,0,0,0,88.406,98.2l4.355,4.365c-0.029.4-.061,0.866-0.06,1.02a4.134,4.134,0,0,1-.878,1.171,1.873,1.873,0,0,0,.123,2.391s2.059,2.385,3.027,2.438,2.074-1.346,2.074-1.346a2.359,2.359,0,0,1,1.466.093l0.015,0.015s2.465,4.262,2.926,5.513a11.412,11.412,0,0,1,.126,3.692,2.178,2.178,0,0,0,.763,1.833l1.528,1.3,9.518,17.05,10.451-7.1h0Z"/>
    <path id="_29" data-name="29" class="cls-4" d="M68.19,127.7a6.454,6.454,0,0,0-3.116.741,6.959,6.959,0,0,0-2.31,2l2.462,1.961a4.935,4.935,0,0,1,1.188-1.122,2.4,2.4,0,0,1,1.3-.359,1.539,1.539,0,0,1,1.155.424,1.6,1.6,0,0,1,.414,1.166,3.181,3.181,0,0,1-.479,1.591,12.607,12.607,0,0,1-1.689,2.114q-1.209,1.286-3.737,3.682v2.963H73.55l0.436-3.224H68.255a37.527,37.527,0,0,0,3.454-3.269,8.786,8.786,0,0,0,1.569-2.266,5.286,5.286,0,0,0,.4-2.07,4,4,0,0,0-.621-2.168,4.287,4.287,0,0,0-1.863-1.58,6.985,6.985,0,0,0-3.007-.588h0Zm13.379,0a6.838,6.838,0,0,0-3.04.664,5.224,5.224,0,0,0-2.135,1.852,4.862,4.862,0,0,0-.774,2.713,5.577,5.577,0,0,0,.588,2.626,4.3,4.3,0,0,0,1.569,1.721,4.054,4.054,0,0,0,2.157.6,4.136,4.136,0,0,0,1.623-.284,4.064,4.064,0,0,0,1.275-.893,5.069,5.069,0,0,1-1.166,1.819,5.875,5.875,0,0,1-1.907,1.188,19.008,19.008,0,0,1-3.094.893l0.85,2.964a17.349,17.349,0,0,0,5.676-1.809,7.988,7.988,0,0,0,3.279-3.29,10.794,10.794,0,0,0,1.068-5.034,6.349,6.349,0,0,0-.675-2.974,4.783,4.783,0,0,0-2.026-2.026,6.788,6.788,0,0,0-3.268-.73h0Zm-0.2,7.256q-1.438,0-1.438-2.245a2.327,2.327,0,0,1,.436-1.525,1.427,1.427,0,0,1,1.155-.523,1.4,1.4,0,0,1,.992.316A1.881,1.881,0,0,1,83,132.007a9.781,9.781,0,0,1,.12,1.972,2.276,2.276,0,0,1-.806.741,2,2,0,0,1-.937.24h0Z"/>
    <path class="cls-5" d="M123.829,123.909L110.57,109.876a2.794,2.794,0,0,0-.333-0.271c-0.022-.019-0.044-0.037-0.072-0.058a2.49,2.49,0,0,0-.268-0.178,2.358,2.358,0,0,0-.389-0.175c-0.054-.021-0.1-0.055-0.158-0.071L108.6,108.9a5.938,5.938,0,0,1-3.243-2.43c-0.7-1.532-3.311-7.426-3.311-7.426l2.11,0.237,2.042-2.058a4.137,4.137,0,0,0,0-2.819l2.974,2.952,2.383-2.4L97.888,81.537l-2.517,2.4,8.832,9.051a4.2,4.2,0,0,1-.721,2.283l-24.471-24.4c0.332-.359.679-0.731,1.058-1.132L94.188,55.722l12.7-14.19-0.284-.286,12.005-11.914L117.186,27.9l-5.373,5.333-2.156-2.172-1.429,1.418,2.156,2.172-5.2,5.163-1.135-1.143-13.774,13.1-13.7,13.6-0.037-.038L75,66.869l-1.536-1.532-0.037.038-13.7-13.6-13.775-13.1-1.135,1.143-5.2-5.163,2.156-2.172-1.429-1.418-2.156,2.172L32.814,27.9,31.4,29.332l12,11.914-0.284.286,12.7,14.19L69.932,69.736c0.378,0.4.725,0.773,1.057,1.132L46.518,95.27a4.2,4.2,0,0,1-.721-2.283l8.832-9.051-2.517-2.4L38.443,94.953l2.383,2.4L43.8,94.4a4.142,4.142,0,0,0,0,2.819l2.042,2.058,2.11-.237s-2.611,5.894-3.311,7.426A5.935,5.935,0,0,1,41.4,108.9l-0.749.226c-0.056.016-.1,0.05-0.158,0.071a2.325,2.325,0,0,0-.389.175,2.513,2.513,0,0,0-.269.178c-0.027.021-.049,0.039-0.071,0.058a2.788,2.788,0,0,0-.333.271L26.171,123.909l-0.011.012h0l10.451,7.1,9.518-17.05,1.529-1.3a2.18,2.18,0,0,0,.763-1.833,11.414,11.414,0,0,1,.126-3.692c0.46-1.251,2.925-5.513,2.925-5.513l0.015-.015a2.352,2.352,0,0,1,1.466-.093s1.105,1.4,2.074,1.346,3.027-2.438,3.027-2.438a1.873,1.873,0,0,0,.123-2.391,4.137,4.137,0,0,1-.878-1.171c0-.154-0.031-0.62-0.06-1.02l4.355-4.366a64.7,64.7,0,0,0,6.186,4.741l4.923-6.7a57.422,57.422,0,0,1-4.824-4.392l0.571-.578,5.725-7.951A11.229,11.229,0,0,1,75,75.468a11.229,11.229,0,0,1,.824,1.137l5.725,7.951,0.571,0.578A57.422,57.422,0,0,1,77.3,89.527l4.923,6.7a64.685,64.685,0,0,0,6.187-4.741l4.355,4.366c-0.029.4-.061,0.866-0.06,1.02a4.135,4.135,0,0,1-.878,1.171,1.873,1.873,0,0,0,.123,2.391s2.059,2.384,3.027,2.438,2.074-1.346,2.074-1.346a2.352,2.352,0,0,1,1.466.093l0.015,0.015s2.465,4.262,2.926,5.513a11.412,11.412,0,0,1,.126,3.692,2.179,2.179,0,0,0,.763,1.833l1.528,1.3,9.518,17.05,10.451-7.1h0Z"/>
  </g>
</svg>
