<?xml version="1.0" encoding="UTF-8"?><svg id="a" xmlns="http://www.w3.org/2000/svg" width="150" height="150" viewBox="0 0 150 150"><g><circle cx="75.26" cy="79.05" r="50.04" fill="#1f2b5e"/><path d="M75,23.95c-30.32,0-54.89,24.58-54.89,54.89s24.58,54.89,54.89,54.89,54.89-24.58,54.89-54.89-24.58-54.89-54.89-54.89Zm0,95.13c-22.22,0-40.24-18.02-40.24-40.24s18.02-40.24,40.24-40.24,40.24,18.02,40.24,40.24-18.02,40.24-40.24,40.24Z" fill="#ddd"/><g><g><g><path d="M101.32,116.38c-2.36,1.6-4.78,3.13-7.38,4.29,1.39-.79,2.66-1.77,3.95-2.68,.33-.22,.63-.48,.93-.74l.91-.76c.6-.51,1.22-.99,1.77-1.56,.05-.64,.09-1.27,.11-1.9-2.42,2.11-5.16,3.84-7.98,5.37-1.25,.62-2.14,1.81-2.67,3.17-.39,1.07-.81,2.16-1.28,3.26l2.41-.99c.4-.17,.81-.32,1.2-.51l1.16-.59c.77-.4,1.56-.76,2.31-1.19l2.23-1.34c.64-.36,1.14-.92,1.52-1.52,.38-.6,.64-1.28,.75-1.98l.05-.34Z" fill="#bc8d0f"/><path d="M105.43,119.74c-.81,.63-1.72,1.12-2.58,1.67l-1.31,.8c-.44,.26-.9,.48-1.35,.72-.91,.46-1.8,.96-2.73,1.37l-2.81,1.2,2.43-1.29,.61-.32,.58-.36,1.16-.73c1.58-.93,3-2.06,4.47-3.14l-.37-.04c-.77-.09-1.53-.04-2.24,.13-.72,.17-1.38,.49-2.02,.85l-2.25,1.35c-.76,.44-1.56,.8-2.33,1.2l-1.17,.59c-.39,.19-.81,.34-1.21,.51l-2.43,1c1.08,.47,2.19,.92,3.35,1.35,1.52,.61,3.23,.41,4.74-.35,3.39-1.83,6.66-3.92,9.57-6.44-.7-.02-1.39-.05-2.08-.09Z" fill="#bc8d0f"/></g><g><path d="M112.45,104.45l-1.23,1.74-1.35,1.64c-.86,1.13-1.9,2.1-2.86,3.14l1.44-1.89c.12-.16,.24-.31,.36-.47l.32-.5,.64-.99c.9-1.29,1.61-2.7,2.36-4.06-.14-.6-.35-1.22-.55-1.82-1.63,2.73-3.47,5.37-5.67,7.69-.89,1.06-1.45,2.36-1.41,3.88,0,.57,.02,1.17,0,1.74-.03,.57-.06,1.14-.1,1.73l1-.82c.32-.29,.63-.59,.94-.89,.62-.6,1.25-1.19,1.87-1.79,1.14-1.29,2.36-2.52,3.37-3.92,.45-.58,.77-1.23,.95-1.91,.14-.71,.14-1.43-.02-2.14l-.07-.34Z" fill="#bc8d0f"/><path d="M117.49,106.27l-1.85,2.44c-.63,.8-1.34,1.54-2,2.3-.34,.37-.66,.77-1.02,1.12l-1.09,1.06c-.73,.7-1.42,1.43-2.22,2.06,2.5-2.64,4.81-5.47,6.67-8.57l-.35,.09c-.74,.18-1.43,.49-2.03,.9-.63,.39-1.2,.87-1.65,1.45-1.02,1.41-2.26,2.65-3.4,3.95-.62,.61-1.26,1.21-1.88,1.81-.32,.3-.62,.61-.95,.9l-1.01,.83c.6,.05,1.21,.1,1.82,.14,.61,.04,1.2,.03,1.81,.04,1.58,0,3.24-.64,4.33-1.91,2.63-2.79,4.86-5.94,6.81-9.23-.66,.22-1.29,.43-1.98,.6Z" fill="#bc8d0f"/></g><g><path d="M118.82,89.55l-.12,.52-.16,.51-.32,1.01c-.22,.67-.42,1.35-.64,2.01l-.79,1.96c-.27,.65-.51,1.31-.84,1.93,.3-.73,.47-1.51,.69-2.26l.32-1.14c.11-.38,.22-.75,.28-1.14,.29-1.55,.66-3.06,.78-4.61-.37-.52-.75-1.03-1.13-1.53l-.47,2.33c-.06,.39-.19,.77-.3,1.15l-.33,1.14-.32,1.15c-.1,.38-.27,.75-.4,1.12l-.83,2.23c-.58,1.25-.54,2.71,0,4.11,.38,1.06,.75,2.16,1.09,3.29l1.26-2.25c.38-.77,.73-1.56,1.09-2.33l.54-1.17,.45-1.21c.29-.81,.61-1.6,.88-2.41,.39-1.4,.25-2.9-.53-4.12l-.19-.29Z" fill="#bc8d0f"/><path d="M124.16,89.55l-.4,1.47c-.14,.49-.33,.96-.49,1.44-.35,.95-.66,1.91-1.04,2.85l-1.24,2.76c-.19,.46-.44,.9-.68,1.35l-.72,1.32c1.54-3.28,2.55-6.78,3.34-10.28l-.29,.2c-1.27,.84-2.24,2.03-2.64,3.44-.28,.82-.6,1.62-.89,2.44l-.45,1.22-.54,1.18c-.37,.78-.72,1.58-1.1,2.35l-1.27,2.27c1.15-.31,2.31-.65,3.5-1.03,1.51-.51,2.73-1.72,3.43-3.23l1-2.68c.16-.45,.35-.89,.48-1.35l.39-1.38,.39-1.38c.13-.46,.27-.91,.35-1.38l.57-2.8c-.56,.42-1.12,.83-1.68,1.23Z" fill="#bc8d0f"/></g><g><path d="M119.63,73.39c.06,.7,.14,1.4,.19,2.1l.02,2.11c.07,1.41-.08,2.81-.17,4.21l-.1-2.36c-.04-.78-.18-1.57-.27-2.34-.14-1.56-.51-3.09-.82-4.61l-.77-.54-.82-.52,.12,.58c.04,.19,.05,.39,.08,.59l.14,1.18,.14,1.18,.07,.59,.02,.6,.1,2.38,.02,.6-.03,.6-.05,1.19c-.04,.69,.13,1.37,.36,2.03,.22,.65,.58,1.28,1.08,1.84,.74,.87,1.55,1.79,2.2,2.73,.2-.83,.25-1.69,.36-2.54l.15-1.27,.08-.64c.02-.21,.02-.43,.03-.64,.06-1.71,.19-3.42,.06-5.13-.03-.72-.2-1.43-.5-2.06-.35-.63-.83-1.19-1.41-1.64l-.28-.21Z" fill="#bc8d0f"/><path d="M124.7,71.62l.17,3.03c.03,1.01-.03,2.02-.05,3.03-.02,.5-.02,1-.05,1.51l-.16,1.5-.16,1.49c-.06,.5-.09,.99-.2,1.49,.17-3.6,.14-7.22-.45-10.78l-.22,.29c-.45,.61-.78,1.27-.97,1.96-.24,.69-.36,1.42-.33,2.15,.13,1.73,0,3.45-.06,5.18-.01,.22-.01,.43-.03,.65l-.08,.64-.15,1.29c-.12,.86-.16,1.72-.37,2.56,1.04-.66,1.93-1.39,2.9-2.14,.62-.5,1.14-1.12,1.52-1.84,.37-.71,.53-1.52,.57-2.34l.06-1.43,.03-.71-.02-.71-.11-2.85-.03-.71-.08-.71-.17-1.42-.17-1.42c-.03-.24-.05-.47-.09-.71l-.14-.7-.55,.86-.6,.85Z" fill="#bc8d0f"/></g><g><path d="M114.88,57.91c.31,.63,.56,1.3,.85,1.94l.42,.97c.14,.32,.28,.65,.38,.98l.68,2,.34,1,.26,1.02c-.14-.37-.27-.74-.42-1.1l-.51-1.07-1.01-2.13-1.17-2.05c-.2-.34-.38-.68-.58-1.02l-.66-.97c-.63-.17-1.25-.32-1.86-.47l1.17,2.08c.35,.72,.67,1.44,1.01,2.16,.16,.36,.34,.72,.5,1.08l.41,1.12c.27,.75,.58,1.48,.81,2.24,.19,.66,.52,1.27,.98,1.8,.46,.53,1.06,.99,1.68,1.37,.99,.57,1.98,1.19,2.99,1.85l-.51-2.52c-.07-.42-.2-.83-.32-1.24l-.35-1.24c-.41-1.67-1.09-3.25-1.67-4.86-.58-1.34-1.72-2.37-3.07-2.85l-.34-.1Z" fill="#bc8d0f"/><path d="M118.99,54.57c1.68,3.7,3.03,7.54,3.75,11.48l-.8-2.59c-.32-.85-.66-1.68-.99-2.52-.17-.42-.33-.84-.51-1.26l-.59-1.22c-.4-.81-.78-1.63-1.21-2.42l-.09,.34c-.47,1.46-.39,2.96,.19,4.3,.58,1.63,1.27,3.23,1.68,4.91l.36,1.25c.12,.42,.25,.83,.32,1.26l.51,2.54c.68-.95,1.35-1.95,2.01-2.98,.45-.68,.67-1.43,.76-2.22,.08-.79,0-1.62-.22-2.41-.28-.91-.65-1.8-.97-2.69l-.5-1.34c-.18-.44-.39-.87-.59-1.31-.4-.87-.79-1.74-1.21-2.6l-1.4-2.51c-.16,.68-.32,1.34-.49,1.99Z" fill="#bc8d0f"/></g><g><path d="M105,44.96l1.5,1.52c.5,.5,.93,1.07,1.4,1.6,.45,.55,.94,1.06,1.36,1.63l1.25,1.71-1.61-1.76c-.57-.56-1.16-1.09-1.73-1.63l-.86-.81c-.3-.26-.61-.5-.92-.75l-1.83-1.48c-.66,.06-1.3,.13-1.94,.21l.93,.76c.3,.27,.58,.55,.87,.83,.57,.56,1.17,1.1,1.73,1.67,1.06,1.2,2.19,2.34,3.12,3.64,.42,.55,.99,.98,1.58,1.34,.59,.36,1.28,.62,2.03,.74,1.15,.2,2.34,.42,3.46,.73-.39-.76-.89-1.47-1.36-2.19l-.71-1.08c-.23-.36-.47-.72-.75-1.05l-1.58-2.04c-.25-.35-.54-.67-.84-.99l-.87-.96c-.24-.27-.51-.52-.8-.73-.14-.11-.29-.21-.45-.3-.16-.08-.33-.16-.5-.23-.68-.27-1.4-.41-2.13-.39h-.35Z" fill="#bc8d0f"/><path d="M107.75,40.42c2.86,2.94,5.36,6.15,7.48,9.56-.25-.38-.54-.73-.83-1.08l-.86-1.06-.86-1.06c-.28-.35-.61-.67-.92-1.01l-1.87-1.98-2.01-1.84,.02,.36c.04,.75,.22,1.47,.51,2.13,.07,.16,.15,.33,.24,.48,.08,.17,.17,.33,.26,.48,.19,.31,.41,.61,.65,.88l.87,.97c.29,.32,.59,.64,.84,.99l1.6,2.06c.28,.34,.52,.7,.75,1.06l.72,1.09c.48,.72,.98,1.44,1.38,2.21,.36-1.15,.61-2.29,.85-3.47,.16-.77,.14-1.58-.03-2.36-.18-.78-.58-1.5-1.08-2.17-1.13-1.55-2.47-2.93-3.74-4.36-.67-.68-1.38-1.33-2.07-2-.35-.33-.69-.67-1.05-.99l-1.11-.92c.09,.68,.18,1.35,.25,2.01Z" fill="#bc8d0f"/></g><g><path d="M91.26,36.05l.98,.44c.32,.15,.63,.34,.95,.5l1.88,1.01c.32,.16,.62,.35,.92,.54l.9,.58c.59,.39,1.21,.75,1.79,1.16-.7-.39-1.43-.72-2.14-1.08l-1.07-.53c-.36-.18-.74-.31-1.1-.46l-2.2-.89c-.75-.26-1.51-.49-2.26-.73-.59,.26-1.17,.52-1.73,.78l2.23,.92c.37,.16,.75,.29,1.11,.47l1.08,.54,1.08,.54c.36,.18,.73,.35,1.06,.57l2.07,1.24c.15,.09,.3,.17,.46,.24,.15,.08,.31,.16,.47,.22,.32,.13,.65,.23,1,.3,.69,.13,1.44,.13,2.2-.01,1.14-.19,2.29-.31,3.49-.43-2.61-2.27-5.56-4.14-8.59-5.8-.66-.33-1.37-.53-2.08-.59-.36-.02-.71-.03-1.07,.03-.36,.06-.72,.16-1.06,.3l-.33,.13Z" fill="#bc8d0f"/><path d="M92.28,30.88l1.39,.68c.46,.22,.92,.44,1.36,.72l2.65,1.55c.86,.54,1.69,1.15,2.52,1.72,.85,.55,1.63,1.2,2.42,1.84-1.48-1.07-3.11-1.92-4.69-2.84-.81-.43-1.64-.8-2.46-1.2l-1.24-.59c-.42-.18-.85-.33-1.28-.5l.15,.33c.15,.34,.33,.66,.54,.96,.2,.3,.42,.62,.67,.89,.49,.55,1.07,1,1.74,1.34,3.06,1.68,6.04,3.57,8.67,5.86-.09-1.16-.2-2.38-.38-3.57-.13-.77-.43-1.51-.87-2.18-.22-.34-.48-.65-.76-.95-.14-.15-.29-.29-.45-.42-.17-.12-.34-.24-.52-.35l-2.48-1.49c-.41-.26-.84-.47-1.27-.68l-1.29-.65-1.29-.65c-.43-.22-.89-.38-1.33-.57l-2.68-1.1c.31,.63,.62,1.25,.91,1.87Z" fill="#bc8d0f"/></g></g><g><g><path d="M46.11,119.66c2.46,1.88,5.02,3.68,7.8,5.11-1.65-.63-3.2-1.47-4.79-2.26-.4-.19-.78-.43-1.16-.65l-1.14-.69c-.76-.46-1.54-.9-2.25-1.43-.68,.04-1.37,.07-2.08,.09,2.91,2.51,6.18,4.61,9.57,6.44,1.5,.76,3.21,.96,4.74,.35,1.15-.43,2.27-.89,3.35-1.35l-2.43-1c-.4-.17-.82-.32-1.21-.51l-1.17-.59c-.78-.4-1.58-.77-2.33-1.2l-2.25-1.35c-.65-.36-1.31-.68-2.02-.85-.72-.17-1.47-.22-2.24-.13l-.37,.04Z" fill="#bc8d0f"/><path d="M48.5,114.94c.63,.65,1.37,1.18,2.06,1.77l1.06,.87c.35,.29,.74,.53,1.11,.8,.75,.51,1.48,1.08,2.26,1.56l2.37,1.41-2.26-1.07-.57-.27-.54-.31-1.09-.62c-1.48-.78-2.83-1.77-4.23-2.69l.05,.34c.11,.7,.37,1.38,.75,1.98,.39,.6,.88,1.16,1.52,1.52l2.23,1.34c.75,.43,1.54,.79,2.31,1.19l1.16,.59c.39,.19,.8,.34,1.2,.51l2.41,.99c-.47-1.1-.89-2.19-1.28-3.26-.53-1.36-1.42-2.55-2.67-3.17-2.82-1.53-5.55-3.26-7.98-5.37,.03,.62,.07,1.26,.11,1.9Z" fill="#bc8d0f"/></g><g><path d="M34.01,106.68c.41,.65,.81,1.31,1.23,1.96l1.37,1.87c.88,1.28,1.94,2.41,2.94,3.6l-1.9-1.82c-.16-.15-.32-.3-.47-.46l-.44-.49-.88-.98c-1.22-1.28-2.26-2.7-3.35-4.1-.69-.17-1.32-.39-1.98-.6,1.95,3.28,4.17,6.43,6.81,9.23,1.08,1.27,2.75,1.91,4.33,1.91,.61,0,1.2,0,1.81-.04,.62-.04,1.22-.09,1.82-.14l-1.01-.83c-.33-.29-.63-.6-.95-.9-.63-.6-1.27-1.2-1.88-1.81-1.15-1.31-2.38-2.54-3.4-3.95-.45-.58-1.01-1.06-1.65-1.45-.6-.41-1.28-.71-2.03-.9l-.35-.09Z" fill="#bc8d0f"/><path d="M37.86,103.05l1.32,2.36c.46,.78,.99,1.51,1.48,2.27,.26,.37,.49,.77,.77,1.12l.84,1.08c.57,.71,1.1,1.47,1.74,2.12-2.39-2.3-4.63-4.79-6.47-7.56l-.07,.34c-.15,.71-.15,1.43-.02,2.14,.17,.68,.5,1.33,.95,1.91,1.01,1.4,2.23,2.62,3.37,3.92,.61,.61,1.25,1.2,1.87,1.79,.31,.3,.62,.6,.94,.89l1,.82c-.04-.58-.07-1.16-.1-1.73-.02-.57,0-1.17,0-1.74,.04-1.52-.52-2.81-1.41-3.88-2.21-2.32-4.04-4.96-5.67-7.69-.2,.6-.41,1.22-.55,1.82Z" fill="#bc8d0f"/></g><g><path d="M27.07,90.46l.1,.57,.14,.56,.29,1.12c.19,.74,.38,1.49,.58,2.23l.75,2.19c.25,.73,.48,1.47,.81,2.17-.45-.75-.78-1.56-1.15-2.35l-.55-1.19c-.18-.4-.37-.79-.51-1.21-.59-1.64-1.27-3.28-1.69-4.99-.56-.4-1.12-.81-1.68-1.23l.57,2.8c.08,.47,.23,.92,.35,1.38l.39,1.38,.39,1.38c.12,.46,.32,.9,.48,1.35l1,2.68c.69,1.51,1.92,2.72,3.43,3.23,1.19,.38,2.35,.72,3.5,1.03l-1.27-2.27c-.39-.78-.73-1.57-1.1-2.35l-.54-1.18-.45-1.22c-.3-.81-.61-1.62-.89-2.44-.39-1.41-1.37-2.6-2.64-3.44l-.29-.2Z" fill="#bc8d0f"/><path d="M31.98,88.33l.17,1.34c.06,.45,.17,.88,.26,1.32,.19,.88,.34,1.77,.57,2.64l.76,2.61c.11,.44,.28,.86,.44,1.29l.48,1.28c-1.55-2.92-2.61-6.07-3.49-9.25l-.19,.29c-.78,1.22-.92,2.72-.53,4.12,.28,.81,.59,1.61,.88,2.41l.45,1.21,.54,1.17c.36,.78,.71,1.56,1.09,2.33l1.26,2.25c.34-1.13,.71-2.23,1.09-3.29,.54-1.4,.58-2.86,0-4.11l-.83-2.23c-.13-.37-.3-.74-.4-1.12l-.32-1.15-.33-1.14c-.11-.38-.23-.76-.3-1.15l-.47-2.33c-.38,.5-.75,1-1.13,1.53Z" fill="#bc8d0f"/></g><g><path d="M26.19,72.89c-.11,.76-.23,1.52-.32,2.28l-.15,2.3c-.15,1.53-.09,3.07-.07,4.61l-.3-2.59c-.09-.87-.08-1.74-.12-2.61-.12-1.75,0-3.49,.08-5.26l-.6-.85-.55-.86-.14,.7c-.04,.23-.06,.47-.09,.71l-.17,1.42-.17,1.42-.08,.71-.03,.71-.11,2.85-.02,.71,.03,.71,.06,1.43c.04,.82,.2,1.63,.57,2.34,.38,.71,.9,1.34,1.52,1.84,.97,.76,1.86,1.48,2.9,2.14-.2-.84-.25-1.71-.37-2.56l-.15-1.29-.08-.64c-.02-.21-.02-.43-.03-.65-.06-1.73-.19-3.45-.06-5.18,.03-.73-.09-1.45-.33-2.15-.19-.69-.52-1.35-.97-1.96l-.22-.29Z" fill="#bc8d0f"/><path d="M31.51,72.5l-.52,2.64c-.15,.89-.21,1.79-.33,2.68l-.15,1.35-.04,1.36-.05,1.36c0,.45-.05,.91-.01,1.36-.31-3.27-.44-6.59-.05-9.88l-.28,.21c-.58,.45-1.05,1.01-1.41,1.64-.31,.63-.47,1.34-.5,2.06-.13,1.71,0,3.42,.06,5.13,.01,.21,.01,.43,.03,.64l.08,.64,.15,1.27c.12,.85,.16,1.71,.36,2.54,.65-.94,1.45-1.86,2.2-2.73,.49-.57,.86-1.19,1.08-1.84,.23-.65,.39-1.34,.36-2.03l-.05-1.19-.03-.6,.02-.6,.09-2.38,.02-.6,.07-.59,.14-1.18,.14-1.18c.03-.2,.04-.4,.08-.59l.12-.58-.82,.52-.77,.54Z" fill="#bc8d0f"/></g><g><path d="M31.37,56.04c-.38,.67-.69,1.37-1.04,2.06l-.51,1.04c-.17,.34-.34,.69-.48,1.05l-.86,2.15-.43,1.08-.35,1.1c.09-.42,.17-.85,.27-1.28l.36-1.25c.24-.84,.48-1.68,.73-2.52l.92-2.46c.16-.41,.3-.83,.47-1.23l.55-1.2c-.17-.65-.33-1.32-.49-1.99l-1.4,2.51c-.42,.86-.81,1.73-1.21,2.6-.2,.44-.41,.86-.59,1.31l-.5,1.34c-.32,.9-.69,1.78-.97,2.69-.23,.8-.3,1.62-.22,2.41,.08,.79,.31,1.54,.76,2.22,.66,1.04,1.33,2.03,2.01,2.98l.51-2.54c.07-.43,.2-.84,.32-1.26l.36-1.25c.42-1.68,1.1-3.28,1.68-4.91,.58-1.34,.66-2.84,.19-4.3l-.09-.34Z" fill="#bc8d0f"/><path d="M36.54,57.48c-1.92,3.03-3.61,6.28-4.74,9.74l.62-2.39,.8-2.34c.14-.39,.26-.78,.41-1.17l.49-1.14c.34-.76,.64-1.53,1-2.27l-.34,.1c-1.35,.47-2.5,1.51-3.07,2.85-.58,1.61-1.26,3.19-1.67,4.86l-.35,1.24c-.12,.41-.25,.82-.32,1.24l-.51,2.52c1-.66,2-1.27,2.99-1.85,.62-.38,1.23-.84,1.68-1.37,.46-.53,.79-1.14,.98-1.8,.23-.76,.55-1.49,.81-2.24l.41-1.12c.15-.37,.33-.72,.5-1.08,.34-.72,.66-1.45,1.01-2.16l1.17-2.08c-.61,.14-1.24,.3-1.86,.47Z" fill="#bc8d0f"/></g><g><path d="M42.11,41.96l-1.72,1.56c-.57,.52-1.08,1.11-1.62,1.66-.52,.57-1.09,1.11-1.58,1.71l-1.47,1.8,1.45-2.19c.52-.7,1.07-1.39,1.6-2.09l.81-1.04c.29-.33,.59-.66,.88-.99l1.78-1.97c.07-.66,.16-1.33,.25-2.01l-1.11,.92c-.36,.32-.7,.66-1.05,.99-.69,.67-1.4,1.32-2.07,2-1.28,1.43-2.62,2.81-3.74,4.36-.5,.66-.9,1.38-1.08,2.17-.17,.79-.18,1.59-.03,2.36,.24,1.18,.49,2.32,.85,3.47,.4-.77,.9-1.48,1.38-2.21l.72-1.09c.24-.36,.48-.73,.75-1.06l1.6-2.06c.26-.35,.55-.67,.84-.99l.87-.97c.25-.27,.46-.57,.65-.88,.09-.16,.18-.32,.26-.48,.09-.16,.17-.32,.24-.48,.29-.66,.47-1.38,.51-2.13l.02-.36Z" fill="#bc8d0f"/><path d="M46.45,44.99c-2.85,2.23-5.48,4.78-7.82,7.61,.21-.36,.46-.68,.71-1.02l.74-1,.74-1c.24-.34,.53-.63,.8-.95l1.63-1.89,1.77-1.77h-.35c-.73-.02-1.46,.12-2.13,.39-.17,.07-.34,.14-.5,.23-.15,.09-.3,.19-.45,.3-.29,.22-.56,.46-.8,.73l-.87,.96c-.29,.32-.58,.64-.84,.99l-1.58,2.04c-.27,.33-.51,.69-.75,1.05l-.71,1.08c-.47,.72-.97,1.42-1.36,2.19,1.12-.31,2.31-.54,3.46-.73,.75-.13,1.44-.38,2.03-.74,.6-.36,1.17-.78,1.58-1.34,.93-1.3,2.06-2.44,3.12-3.64,.56-.57,1.16-1.11,1.73-1.67,.29-.27,.57-.56,.87-.83l.93-.76c-.64-.08-1.28-.15-1.94-.21Z" fill="#bc8d0f"/></g><g><path d="M57.06,32.26l-1.09,.42c-.36,.15-.71,.33-1.06,.49l-2.11,1c-.36,.16-.7,.35-1.04,.54l-1.02,.58c-.67,.39-1.37,.75-2.03,1.17,.69-.54,1.42-1.02,2.14-1.54l1.08-.76c.36-.25,.75-.46,1.13-.7l2.28-1.37c.78-.42,1.58-.81,2.38-1.21,.29-.62,.59-1.24,.91-1.87l-2.68,1.1c-.44,.19-.9,.36-1.33,.57l-1.29,.65-1.29,.65c-.43,.22-.87,.43-1.27,.68l-2.48,1.49c-.18,.11-.35,.22-.52,.35-.16,.13-.31,.27-.45,.42-.29,.29-.54,.61-.76,.95-.44,.67-.74,1.41-.87,2.18-.18,1.2-.28,2.41-.38,3.57,2.64-2.29,5.61-4.18,8.67-5.86,.66-.33,1.24-.79,1.74-1.34,.25-.27,.46-.58,.67-.89,.21-.3,.39-.62,.54-.96l.15-.33Z" fill="#bc8d0f"/><path d="M60.1,36.58l-1.3,.43c-.43,.14-.87,.28-1.29,.47l-2.53,1.06c-.83,.38-1.64,.82-2.46,1.23-.84,.39-1.61,.88-2.4,1.36,1.3-1.04,2.75-1.88,4.15-2.78,.72-.43,1.47-.79,2.2-1.2l1.11-.59c.38-.18,.77-.34,1.15-.51l-.33-.13c-.34-.14-.7-.23-1.06-.3-.36-.06-.71-.05-1.07-.03-.71,.06-1.43,.26-2.08,.59-3.04,1.67-5.98,3.54-8.59,5.8,1.2,.12,2.34,.24,3.49,.43,.76,.14,1.5,.14,2.2,.01,.35-.07,.68-.17,1-.3,.16-.07,.31-.14,.47-.22,.16-.07,.31-.15,.46-.24l2.07-1.24c.34-.22,.7-.39,1.06-.57l1.08-.54,1.08-.54c.36-.18,.74-.31,1.11-.47l2.23-.92c-.56-.26-1.14-.53-1.73-.78Z" fill="#bc8d0f"/></g></g></g><polygon points="74.58 39.53 60.08 47.15 62.85 31.01 51.12 19.57 67.33 17.21 74.58 2.52 81.83 17.21 98.05 19.57 86.31 31.01 89.08 47.15 74.58 39.53" fill="#bc8d0f"/><polygon points="74.58 7.16 80.47 19.09 93.64 21 84.11 30.29 86.36 43.4 74.58 37.21 62.8 43.4 65.05 30.29 55.53 21 68.69 19.09 74.58 7.16" fill="#c91d15"/><rect x="62.51" y="116.37" width="25.05" height="25.05" transform="translate(-69.16 90.81) rotate(-45)" fill="#bc8d0f"/><path d="M75.04,147.74l-18.85-18.85,18.85-18.85,18.85,18.85-18.85,18.85Zm-16.58-18.85l16.58,16.58,16.58-16.58-16.58-16.58-16.58,16.58Z" fill="#ddd"/><circle cx="75.04" cy="77.56" r="26.57" fill="#0096d5"/><path d="M74.53,104.71c-.16,0-.31,0-.47,0-8.05-.13-15.57-3.81-20.65-10.09-3.88-4.8-6.01-10.84-6.01-17.03s2.14-12.23,6.02-17.03c5.07-6.28,12.59-9.96,20.65-10.09,.28-.01,.62-.02,.95,0,8.03,.13,15.56,3.81,20.62,10.09,3.88,4.8,6.02,10.85,6.02,17.03s-2.14,12.23-6.01,17.03c-5.07,6.28-12.59,9.96-20.65,10.09-.15,0-.31,0-.46,0Zm-.03-53.14c-.13,0-.27,0-.4,0-7.74,.13-14.96,3.65-19.82,9.67-3.72,4.6-5.77,10.4-5.77,16.33s2.05,11.73,5.77,16.33c4.87,6.03,12.08,9.55,19.8,9.68,.3,0,.59,0,.89,0,7.73-.13,14.94-3.65,19.81-9.68,3.72-4.6,5.77-10.4,5.77-16.33s-2.05-11.73-5.77-16.33c-4.86-6.02-12.08-9.55-19.8-9.67-.16,0-.3,0-.45,0h-.03Z" fill="#bc8d0f"/><path d="M101.09,78.13v-1.11h-8.45c-.06-4.48-.87-8.86-2.33-12.75,1.94-.83,3.7-1.81,5.21-2.93l.47-.34-.36-.45c-4.74-5.87-11.58-9.44-19.02-10.01-.29-.59-.58-1.16-.89-1.72l.55,.14c.45,.11,.78-.42,.48-.77l-3.37-4.02c-.19-.22-.55-.08-.53,.22l.35,4.72c.03,.4,.52,.57,.79,.28l.24-.25c.2,.44,.4,.87,.59,1.33-.1,0-.2,0-.3,0-8.24,0-15.93,3.68-21.11,10.09l-.36,.45,.47,.34c1.5,1.11,3.26,2.09,5.22,2.93-1.47,3.88-2.27,8.27-2.34,12.75h-8.45v1.11h8.45c.06,4.48,.86,8.87,2.32,12.76-1.94,.83-3.69,1.81-5.2,2.92l-.47,.34,.37,.45c4.34,5.37,10.47,8.83,17.19,9.8,.22,.4,1.12,1.97,1.97,2.09h0c.71,.13,1.67,.3,2.63,.46,1.24,.21,2.45-.55,3.02-1.89,.09-.22,.17-.45,.26-.67,6.71-.98,12.83-4.44,17.15-9.8l.36-.45-.47-.34c-1.51-1.11-3.27-2.09-5.2-2.92,1.46-3.88,2.26-8.27,2.32-12.76h8.45Zm-9.56-1.11h-9.08v-.06c-.14-3.54-.49-6.96-1.01-10.2,2.77-.44,5.42-1.13,7.84-2.08,1.41,3.76,2.19,7.99,2.25,12.33Zm2.86-16.23c-1.33,.92-2.84,1.74-4.49,2.45-2.07-4.95-5.07-8.67-8.57-10.77,5.05,1.36,9.6,4.23,13.06,8.32Zm-5.52,2.87c-2.36,.92-4.93,1.59-7.63,2.02-.5-2.82-1.13-5.51-1.88-7.98-.63-2.07-1.35-3.98-2.12-5.75,4.77,1.17,8.98,5.38,11.63,11.72Zm-14.38-12.05h.03c.14,0,.28,0,.43,0,.11,0,.22,.02,.33,.03,.79,2.07,1.49,4.32,2.05,6.77,.55,2.38,.98,4.93,1.29,7.59-1.35,.13-2.72,.2-4.1,.2-5.15,0-10.09-.88-14.35-2.54,3.06-7.33,8.23-11.83,13.92-12.05,.13,0,.27,0,.4,0Zm-19.85,9.18c3.46-4.09,8.01-6.96,13.06-8.32-3.5,2.11-6.5,5.83-8.57,10.77-1.66-.72-3.18-1.54-4.49-2.45Zm5.11,3.9c4.39,1.71,9.47,2.62,14.76,2.62,1.43,0,2.84-.07,4.23-.2,.32,3.16,.46,6.48,.4,9.91h-21.65c.06-4.34,.84-8.58,2.25-12.33Zm-5.11,29.67c1.32-.92,2.83-1.73,4.48-2.44,2.03,4.89,4.98,8.59,8.43,10.72-4.99-1.38-9.49-4.23-12.9-8.28Zm21.64,2.87c-.67,2.3-1.45,4.41-2.3,6.35-5.66-.27-10.79-4.77-13.83-12.08,4.27-1.67,9.22-2.55,14.37-2.55,1.2,0,2.4,.06,3.57,.15-.47,2.88-1.07,5.61-1.81,8.13Zm1.99-9.23c-1.24-.1-2.49-.16-3.75-.16-5.29,0-10.38,.91-14.78,2.63-1.41-3.76-2.18-8-2.24-12.34h21.63c-.1,3.42-.4,6.73-.86,9.87Zm2.6,8.49c.48-2.17,.86-4.48,1.13-6.89,2.43,.43,4.74,1.07,6.89,1.9-2.29,5.5-5.76,9.41-9.74,11.12,.66-1.9,1.24-3.94,1.72-6.14Zm13.52-2.12c-3.41,4.04-7.91,6.89-12.9,8.28,3.44-2.13,6.39-5.83,8.42-10.72,1.65,.71,3.15,1.53,4.48,2.44Zm-5.1-3.9c-2.24-.87-4.65-1.54-7.18-1.98,.33-3.29,.46-6.77,.36-10.36h9.06c-.06,4.35-.83,8.58-2.24,12.34Z" fill="#bc8d0f"/></g><path d="M77.35,132.6v1.71c0,1.65,.14,1.9,2.25,2.06v1.02h-7.78v-1.02c1.92-.17,2.01-.52,2.01-2.17v-1.59h-7.07v-1.13c2.91-3.96,6.21-8.39,8.55-11.38h2.04v10.92h2.56v1.59h-2.56Zm-3.52-8.74c-1.32,1.84-3.22,4.45-5.06,7.15h5.06v-7.15Z" fill="#ddd"/></svg>