<svg xmlns="http://www.w3.org/2000/svg" width="80" height="80" viewBox="0 0 80 80">
  <defs>
    <style>
      .cls-1 {
        fill: #7f8a46;
      }

      .cls-2 {
        fill: #f2f2f2;
      }

      .cls-3 {
        fill: #1a1a1a;
      }

      .cls-4 {
        fill: #333625;
      }

      .cls-5 {
        fill: #3c4029;
      }
    </style>
  </defs>
  <g id="Layer_5" data-name="Layer 5">
    <g>
      <path class="cls-1" d="M40,78.49976A32.34633,32.34633,0,0,1,7.69043,46.19019V13.63745C21.77686,13.01245,34.17432,8.46851,40,1.81128c5.82568,6.65723,18.22314,11.20117,32.30957,11.82617V46.19019A32.34633,32.34633,0,0,1,40,78.49976Z"/>
      <path class="cls-2" d="M40,1.81126C34.17432,8.46849,21.77686,13.01244,7.69043,13.63744V46.19017a32.30957,32.30957,0,0,0,64.61914,0V13.63744C58.22314,13.01244,45.82568,8.46849,40,1.81126Zm30.80945,44.3794a30.80951,30.80951,0,0,1-61.619,0V15.0609c13.22278-.81738,24.55627-4.90369,30.80945-11.06226,6.25317,6.15869,17.58667,10.24488,30.80957,11.06226Z"/>
      <path class="cls-3" d="M39.99994,2.55713C45.99188,9.011,58.08466,13.4176,71.80951,14.114V46.19067a31.80951,31.80951,0,0,1-63.619,0V14.114C21.91522,13.4176,34.008,9.011,39.99994,2.55713M40.45416,0h-.90832C34.2962,6.86426,21.43524,11.81079,6.19049,12.18823V46.19067a33.80951,33.80951,0,0,0,67.619,0V12.18823C58.56464,11.81079,45.70367,6.86426,40.45416,0Z"/>
      <path class="cls-4" d="M40,75.28648A28.68736,28.68736,0,0,1,11.34521,46.63121V17.20836l.478-.05957c11.06006-1.35547,20.95313-4.85156,27.85742-9.84473L40,7.07359l.31934.23047c6.9038,4.99317,16.79687,8.48926,27.85742,9.84473l.478.05957V46.63121A28.68736,28.68736,0,0,1,40,75.28648ZM12.43408,18.17027V46.63121a27.56592,27.56592,0,0,0,55.13184,0V18.17027C56.687,16.77184,46.93213,13.31969,40,8.41539,33.06738,13.31969,23.3125,16.77184,12.43408,18.17027Z"/>
      <circle class="cls-5" cx="40" cy="49.09373" r="20.60058"/>
      <polygon class="cls-2" points="40 11.22 41.765 16.652 47.477 16.652 42.856 20.01 44.621 25.442 40 22.085 35.379 25.442 37.144 20.01 32.523 16.652 38.235 16.652 40 11.22"/>
      <g>
        <polygon class="cls-2" points="54.884 19.504 55.928 22.717 59.306 22.717 56.573 24.703 57.617 27.915 54.884 25.93 52.151 27.915 53.195 24.703 50.462 22.717 53.84 22.717 54.884 19.504"/>
        <polygon class="cls-2" points="25.116 19.504 26.16 22.717 29.538 22.717 26.805 24.703 27.849 27.915 25.116 25.93 22.383 27.915 23.427 24.703 20.694 22.717 24.072 22.717 25.116 19.504"/>
      </g>
    </g>
    <path class="cls-2" d="M49.2535,59.54377q0,.34976-.02174.61254a2.55008,2.55008,0,0,1-.07648.45884,1.54861,1.54861,0,0,1-.14245.35013,1.92467,1.92467,0,0,1-.30589.37188,6.37367,6.37367,0,0,1-.91881.66727,11.02266,11.02266,0,0,1-1.73865.87419,14.43151,14.43151,0,0,1-2.3838.722,13.74947,13.74947,0,0,1-2.94124.2954,12.91177,12.91177,0,0,1-4.97566-.91843,10.05371,10.05371,0,0,1-3.78357-2.71182,12.37027,12.37027,0,0,1-2.40554-4.42872,19.94565,19.94565,0,0,1-.842-6.06916,20.03286,20.03286,0,0,1,.90756-6.27683,13.63731,13.63731,0,0,1,2.548-4.66939,10.89507,10.89507,0,0,1,3.92564-2.91949A12.43611,12.43611,0,0,1,41.16154,34.896a12.19348,12.19348,0,0,1,2.3838.23017,15.24169,15.24169,0,0,1,2.14351.57955,9.75624,9.75624,0,0,1,1.74953.809,5.92027,5.92027,0,0,1,1.06051.75424,2.56585,2.56585,0,0,1,.38274.44835,1.52321,1.52321,0,0,1,.14245.36138,3.61058,3.61058,0,0,1,.08734.49183,6.0518,6.0518,0,0,1,.03262.67776,5.35239,5.35239,0,0,1-.04386.74375,2.08093,2.08093,0,0,1-.132.51357.77706.77706,0,0,1-.2088.30664.45772.45772,0,0,1-.2969.09822,1.63025,1.63025,0,0,1-.85733-.4266,13.9894,13.9894,0,0,0-1.41851-.94018,11.47,11.47,0,0,0-2.11052-.94018,9.201,9.201,0,0,0-2.9791-.4266,7.75381,7.75381,0,0,0-3.44094.75424,7.26231,7.26231,0,0,0-2.64958,2.22,10.91036,10.91036,0,0,0-1.70416,3.57551,17.54481,17.54481,0,0,0-.6043,4.82234,17.587,17.587,0,0,0,.58255,4.75711,9.88035,9.88035,0,0,0,1.67118,3.45556,6.98287,6.98287,0,0,0,2.67095,2.09927,8.66,8.66,0,0,0,3.58414.71076,9.49526,9.49526,0,0,0,2.95661-.41536,11.5627,11.5627,0,0,0,2.15475-.92968,16.87783,16.87783,0,0,0,1.462-.92968,1.75388,1.75388,0,0,1,.90156-.41535.50753.50753,0,0,1,.26391.06522.46.46,0,0,1,.17582.25192,2.29492,2.29492,0,0,1,.099.51357Q49.25312,59.04071,49.2535,59.54377Z"/>
  </g>
</svg>
