<svg id="_54_ussr_berlin_prem_engineer_1_icon" data-name="54 ussr_berlin_prem_engineer_1_icon" xmlns="http://www.w3.org/2000/svg" width="150" height="150" viewBox="0 0 150 150">
  <metadata><?xpacket begin="﻿" id="W5M0MpCehiHzreSzNTczkc9d"?>
<x:xmpmeta xmlns:x="adobe:ns:meta/" x:xmptk="Adobe XMP Core 5.6-c138 79.159824, 2016/09/14-01:09:01        ">
   <rdf:RDF xmlns:rdf="http://www.w3.org/1999/02/22-rdf-syntax-ns#">
      <rdf:Description rdf:about=""/>
   </rdf:RDF>
</x:xmpmeta>
                                                                                                    
                                                                                                    
                                                                                                    
                                                                                                    
                                                                                                    
                                                                                                    
                                                                                                    
                                                                                                    
                                                                                                    
                                                                                                    
                                                                                                    
                                                                                                    
                                                                                                    
                                                                                                    
                                                                                                    
                                                                                                    
                                                                                                    
                                                                                                    
                                                                                                    
                                                                                                    
                           
<?xpacket end="w"?></metadata>
<defs>
    <style>
      .cls-1 {
        fill: #b83027;
      }

      .cls-1, .cls-2, .cls-3, .cls-4, .cls-5 {
        fill-rule: evenodd;
      }

      .cls-2 {
        fill: #754c29;
      }

      .cls-3 {
        fill: #231f20;
      }

      .cls-4 {
        fill: #fbbd40;
      }

      .cls-5 {
        fill: #f7f7f7;
      }
    </style>
  </defs>
  <path id="Shape_11_copy_3" data-name="Shape 11 copy 3" class="cls-1" d="M124.179,7.034C114.16,28.843,85.009,24.2,52.7,25.7S7.763,49,7.763,49l30.655,68.242s11.861-19.273,42.5-20.756,58.315,2.471,67.7-16.8Z"/>
  <path id="Shape_11_copy" data-name="Shape 11 copy" class="cls-2" d="M85.767,106.5a106.852,106.852,0,0,0-38.323,7.024c4.221,6.791,9.285,19.9,9.285,19.9,6.584-2.342,29.038-3.278,29.038-3.278h9.285s22.454,0.936,29.038,3.278c0,0,5.064-13.112,9.285-19.9A106.852,106.852,0,0,0,95.053,106.5H85.767Z"/>
  <path class="cls-3" d="M108.433,40.568l2.919-2.522,5.511,6.708-2.383,2.068Zm19.575,15.467s-2.813,9.976-16.993,14.986a28.838,28.838,0,0,0-4.982-15l-6.986-8.005,7.633-6.557,6.351,6.568S120.013,53.991,128.008,56.036ZM65.046,97.985L49.065,96.972C54.372,86.721,69.2,76.281,81.053,66c8.478-7.351,15.024-14.1,17.4-16.611l5.788,6.632C86.269,77.246,71.5,81.288,65.046,97.985Zm-9.21-41.98,5.809-6.629c2.387,2.524,8.792,9.13,17.088,16.363-2.354,2-4.765,4-7.2,6.012A140.575,140.575,0,0,1,55.837,56.005ZM48.993,70.959C34.8,65.923,32,55.938,32,55.938c8.01-2.032,15.012-7.992,15.012-7.992l6.371-6.562,7.634,6.573-7.009,8A28.831,28.831,0,0,0,48.993,70.959Zm-5.815-26.29,5.53-6.7,2.981,2.581-6.066,6.248ZM111,97.021l-16.007.988c-2.907-7.55-7.521-12.521-13.36-17.661,2.309-1.949,4.731-3.963,7.252-6.1C98.091,81.85,107.108,89.49,111,97.021Z"/>
  <path class="cls-4" d="M108.433,34.568l2.919-2.522,5.511,6.708-2.383,2.068Zm19.575,15.467s-2.813,9.976-16.993,14.986a28.838,28.838,0,0,0-4.982-15l-6.986-8.005,7.633-6.557,6.351,6.568S120.013,47.991,128.008,50.036ZM65.046,91.985L49.065,90.972C54.372,80.721,69.2,70.281,81.053,60c8.478-7.351,15.024-14.1,17.4-16.611l5.788,6.632C86.269,71.246,71.5,75.288,65.046,91.985Zm-9.21-41.98,5.809-6.629c2.387,2.524,8.792,9.13,17.088,16.363-2.354,2-4.765,4-7.2,6.012A140.575,140.575,0,0,1,55.837,50.005ZM48.993,64.959C34.8,59.923,32,49.938,32,49.938c8.01-2.032,15.012-7.992,15.012-7.992l6.371-6.562,7.634,6.573-7.009,8A28.831,28.831,0,0,0,48.993,64.959Zm-5.815-26.29,5.53-6.7,2.981,2.581-6.066,6.248ZM111,91.021l-16.007.988c-2.907-7.55-7.521-12.521-13.36-17.661,2.309-1.949,4.731-3.963,7.252-6.1C98.091,75.85,107.108,83.49,111,91.021Z"/>
  <path class="cls-4" d="M1.376,46.4l43.93,96.567,2.77-5.145L8.1,42.837,3.355,41.649Z"/>
  <path id="_48" data-name="48" class="cls-5" d="M87.255,119.818v-3.225h-3.7l-0.5,3.225H81.219l3.334-7.867-3.683-1.307-4.075,9.545V123h6.211l0.022,3.017h4.228V123h1.525v-3.182H87.255Zm13.145-1.884a4.743,4.743,0,0,0,1.722-1.547,3.354,3.354,0,0,0,.566-1.809,3.258,3.258,0,0,0-1.492-2.822,6.947,6.947,0,0,0-4.021-1.035,7.451,7.451,0,0,0-2.92.534,4.484,4.484,0,0,0-1.939,1.46,3.443,3.443,0,0,0-.676,2.081,4.084,4.084,0,0,0,2.07,3.552,4.736,4.736,0,0,0-1.95,1.449,3.417,3.417,0,0,0-.687,2.125,3.731,3.731,0,0,0,.708,2.2,4.847,4.847,0,0,0,2.059,1.6,7.922,7.922,0,0,0,3.225.6,8.341,8.341,0,0,0,3.356-.61,4.9,4.9,0,0,0,2.114-1.634,3.794,3.794,0,0,0,.719-2.223,3.7,3.7,0,0,0-.687-2.19,5.882,5.882,0,0,0-2.168-1.733h0Zm-3.011-3.969a1.321,1.321,0,0,1,.992.349,1.291,1.291,0,0,1,.338.937,2.8,2.8,0,0,1-.2,1.068,2.388,2.388,0,0,1-.784.937l-0.523-.218a2.352,2.352,0,0,1-.937-0.752,1.741,1.741,0,0,1-.283-0.991,1.276,1.276,0,0,1,.37-0.992,1.464,1.464,0,0,1,1.024-.338h0Zm-0.123,9.063a1.968,1.968,0,0,1-1.362-.458,1.529,1.529,0,0,1-.512-1.2,2.64,2.64,0,0,1,.272-1.2,2.4,2.4,0,0,1,.817-0.915l0.828,0.305a3.961,3.961,0,0,1,1.329.806,1.581,1.581,0,0,1,.392,1.133,1.46,1.46,0,0,1-.447,1.09,1.814,1.814,0,0,1-1.319.436h0Z"/>
</svg>
