<svg id="_594_regiment_icon" data-name="594_regiment_icon" xmlns="http://www.w3.org/2000/svg" width="150" height="150" viewBox="0 0 150 150">
  <defs>
    <style>
      .cls-1 {
        fill: #b83027;
      }

      .cls-1, .cls-2, .cls-3, .cls-4, .cls-5, .cls-6 {
        fill-rule: evenodd;
      }

      .cls-2 {
        fill: #fbbd40;
      }

      .cls-3 {
        fill: #754c29;
      }

      .cls-4 {
        fill: #231f20;
      }

      .cls-5 {
        fill: #f7ba3f;
      }

      .cls-6 {
        fill: #f7f7f7;
      }
    </style>
  </defs>
  <path id="Shape_11_copy_3" data-name="Shape 11 copy 3" class="cls-1" d="M124.179,7.034C114.16,28.843,85.009,24.2,52.7,25.7S7.763,49,7.763,49l30.655,68.242s11.861-19.273,42.5-20.756,58.315,2.471,67.7-16.8Z"/>
  <path id="Shape_11_copy_2" data-name="Shape 11 copy 2" class="cls-2" d="M1.376,46.4l43.93,96.567,2.77-5.145L8.1,42.837,3.355,41.649Z"/>
  <path id="Shape_11_copy" data-name="Shape 11 copy" class="cls-3" d="M85.767,106.5a106.852,106.852,0,0,0-38.323,7.024c4.221,6.791,9.285,19.9,9.285,19.9,6.584-2.342,29.038-3.278,29.038-3.278h9.285s22.454,0.936,29.038,3.278c0,0,5.064-13.112,9.285-19.9A106.852,106.852,0,0,0,95.053,106.5H85.767Z"/>
  <path id="Shape_16_copy" data-name="Shape 16 copy" class="cls-4" d="M125.494,29.334l-0.777-1.042-1.738,1.3-1.425-1.911-1.737,1.3,1.425,1.911-2.779,2.074-0.173-.232L83.26,58.869,83,58.521l-4.1,3.06L77.244,61.2,72.67,64.609l0.778,1.042L56.019,78.657l0,0-1.332.994,1.249,2.036c-0.063.113-.13,0.224-0.2,0.333,0,0-3.248,4.587-3.77,5.337a5.108,5.108,0,0,1-2.706,1.569,11.879,11.879,0,0,0-3.269,1.538C45.3,90.985,35.044,100.8,35.044,100.8a1.236,1.236,0,0,0-.336,1.6l6.343,6.084s0.332,0.2,1.071-.619S57.794,85.626,57.794,85.626a3.163,3.163,0,0,1,.6-0.891l1.251,1.676s0.75,0.522,2.342-.486L65.271,83.2l5.767-6.647a6.152,6.152,0,0,1,.543-2.988L85.637,62.053,85.2,61.474l35.03-26.142-0.259-.347,4.458-3.327-0.475-.637L119.5,34.348,119.241,34Z"/>
  <path class="cls-5" d="M125.494,22.147L124.717,21.1l-1.738,1.3-1.425-1.911-1.737,1.3,1.425,1.911-2.779,2.074-0.173-.232L83.26,51.681,83,51.334l-4.1,3.06-1.657-.386L72.67,57.421l0.778,1.042L56.019,71.469l0,0-1.332.994L55.939,74.5c-0.063.113-.13,0.224-0.2,0.333,0,0-3.248,4.587-3.77,5.337a5.108,5.108,0,0,1-2.706,1.569,11.879,11.879,0,0,0-3.269,1.538C45.3,83.8,35.044,93.613,35.044,93.613a1.236,1.236,0,0,0-.336,1.6l6.343,6.084s0.332,0.2,1.071-.618S57.794,78.438,57.794,78.438a3.162,3.162,0,0,1,.6-0.891l1.251,1.676s0.75,0.522,2.342-.486l3.286-2.723,5.767-6.647a6.152,6.152,0,0,1,.543-2.988L85.637,54.866,85.2,54.287l35.03-26.142-0.259-.347,4.458-3.327-0.475-.637L119.5,27.161l-0.259-.348Z"/>
  <path id="_594" data-name="594" class="cls-6" d="M82.3,111.792H72.58v8.3h2.811a3.039,3.039,0,0,1,1.569-.523,1.637,1.637,0,0,1,1.275.49,2.386,2.386,0,0,1,.447,1.624,2.282,2.282,0,0,1-.523,1.623,1.964,1.964,0,0,1-1.5.556,3.259,3.259,0,0,1-2.68-1.439L71.6,124.584a6.368,6.368,0,0,0,5.252,2.462,7.571,7.571,0,0,0,3.291-.675,5.043,5.043,0,0,0,2.179-1.907,5.29,5.29,0,0,0,.763-2.844,5.74,5.74,0,0,0-.567-2.637,4.052,4.052,0,0,0-1.536-1.689,4.208,4.208,0,0,0-2.19-.577,4.919,4.919,0,0,0-2.07.458V114.8h5.121Zm8.368-.349a6.84,6.84,0,0,0-3.04.665,5.21,5.21,0,0,0-2.136,1.852,4.862,4.862,0,0,0-.774,2.713,5.576,5.576,0,0,0,.588,2.626,4.3,4.3,0,0,0,1.569,1.722,4.054,4.054,0,0,0,2.157.6,4.138,4.138,0,0,0,1.624-.283,4.087,4.087,0,0,0,1.275-.894,5.075,5.075,0,0,1-1.166,1.82,5.91,5.91,0,0,1-1.907,1.188,19.21,19.21,0,0,1-3.095.893l0.85,2.964a17.352,17.352,0,0,0,5.677-1.809,8,8,0,0,0,3.28-3.29,10.8,10.8,0,0,0,1.068-5.034,6.346,6.346,0,0,0-.676-2.975,4.791,4.791,0,0,0-2.027-2.027,6.8,6.8,0,0,0-3.269-.73h0Zm-0.2,7.257q-1.438,0-1.438-2.245a2.327,2.327,0,0,1,.436-1.525,1.428,1.428,0,0,1,1.155-.523,1.4,1.4,0,0,1,.992.316,1.881,1.881,0,0,1,.479,1.024,9.78,9.78,0,0,1,.12,1.972,2.267,2.267,0,0,1-.806.741,2,2,0,0,1-.937.24h0Zm18.37,1.809v-3.226h-3.7l-0.5,3.226h-1.83l3.334-7.867-3.683-1.308-4.075,9.545v2.811h6.211l0.022,2.921h4.227V123.69h1.526v-3.181h-1.526Z"/>
</svg>
