<svg xmlns="http://www.w3.org/2000/svg" xmlns:xlink="http://www.w3.org/1999/xlink" width="150" height="150" viewBox="0 0 150 150">
  <defs>
    <style>
      .cls-1 {
        fill: url(#linear-gradient);
      }

      .cls-2 {
        fill: #fff;
      }
    </style>
    <linearGradient id="linear-gradient" x1="98.93679" y1="12.51703" x2="21.50754" y2="190.99801" gradientUnits="userSpaceOnUse">
      <stop offset="0" stop-color="#a72d57"/>
      <stop offset="0.84654" stop-color="#ffae17"/>
      <stop offset="0.954" stop-color="#fff"/>
      <stop offset="1" stop-color="#fff"/>
    </linearGradient>
  </defs>
  <g id="Layer_1" data-name="Layer 1">
    <g>
      <path class="cls-1" d="M127.53527,108.67667V75.995l-5.22754-2.999.02881-15.76562,5.19873-2.959V30.85147a20.29006,20.29006,0,0,0-20.37842-20.1543h-64.314a20.29006,20.29006,0,0,0-20.37841,20.1543V54.27139l5.19873,2.959L27.692,72.996l-5.22754,2.999v32.68164l52.53564,31.63086Z"/>
      <g>
        <rect class="cls-2" x="66.42352" y="16.92709" width="1.61084" height="9.89063"/>
        <path class="cls-2" d="M48.1275,89.268l24.6698,14.14112V86.66873L68.392,79.62027l4.40533-1.76221V61.11789L48.1275,47.02084Zm7.92957-28.59063,8.81067,4.84576v4.846l-2.64319,1.76221-6.16748-3.52442Zm0,16.29962,6.16748,3.52441,2.64319,4.40528v4.84582l-8.81067-4.84582Z"/>
        <path class="cls-2" d="M77.20264,103.40909l7.92962-4.846V86.0961l16.74024-9.55957V47.02084L77.20264,61.11789Zm7.92962-37.57752,8.81061-5.15423V72.13126l-8.81061,5.28637Z"/>
        <polygon class="cls-2" points="101.872 42.616 49.009 42.616 75 57.594 101.872 42.616"/>
        <path class="cls-2" d="M122.58618,57.37582l16.64545-9.64709-.02789-15.47516-10.17731-5.79132L117.82135,7.05453H32.17865l-11.205,19.40772L10.79626,32.25357l-.02789,15.47516,16.64545,9.64709L27.44171,72.851l-7.29761,4.1875V109.555l1.26892.77234,52.21265,31.78162L75,142.94547l1.37433-.83655L128.587,110.3273l1.26892-.77234V77.03848l-7.29755-4.1875ZM91.43243,26.81772h7.79981V24.07651H94.7674V20.99643L98.04523,17.972V16.92709H92.42169l-.98926-2.51562v-2.458H105.2796v4.71875l-2.40185,3.19336a2.40333,2.40333,0,0,1,2.51513,2.57227v6.83789a2.35959,2.35959,0,0,1-2.45849,2.459h-11.502ZM75.91864,25.17905c0-1.61133.28223-2.51563,1.667-3.36328L83.718,17.972V16.92709H76.90741l-.98877-2.51562v-2.458H87.4201a2.35882,2.35882,0,0,1,2.4585,2.458V18.933c0,1.583-.22607,2.54395-1.66748,3.36328l-6.104,3.44727v1.07422H89.8786v4.917h-13.96ZM60.26288,14.41147a2.35854,2.35854,0,0,1,2.45849-2.458H71.736a2.38146,2.38146,0,0,1,2.48682,2.458V29.27573a2.36658,2.36658,0,0,1-2.48682,2.459H62.72137a2.35933,2.35933,0,0,1-2.45849-2.459ZM44.60712,25.17905c0-1.61133.28222-2.51563,1.667-3.36328L52.40643,17.972V16.92709H45.59589l-.98877-2.51562v-2.458H56.10858a2.35882,2.35882,0,0,1,2.4585,2.458V18.933c0,1.583-.22608,2.54395-1.66748,3.36328l-6.104,3.44727v1.07422h7.77149v4.917h-13.96Zm-.00391,11.70953h60.79352V94.15787L75,112.66019,44.60321,94.15787Zm-21.81592,43.48L35.88843,72.851l-.0279-15.47516-11.311-6.43646.027-15.00848h17.824V88.64151H22.78729ZM75,139.8511,43.74969,120.82925h62.50062Zm38.15723-23.22619H36.84277l-11.98864-7.29736H65.28864l8.5661,5.21411L75,115.2388l1.14526-.69714,8.566-5.21411h40.43457Zm14.05548-36.25635v8.27295H107.59943V35.93088h17.824l.027,15.00848-11.311,6.43646-.0279,15.47516Z"/>
      </g>
    </g>
  </g>
</svg>
