<svg xmlns="http://www.w3.org/2000/svg" xmlns:xlink="http://www.w3.org/1999/xlink" width="150" height="150" viewBox="0 0 150 150">
  <defs>
    <style>
      .cls-1 {
        fill: url(#linear-gradient);
      }

      .cls-2 {
        fill: #fff;
      }
    </style>
    <linearGradient id="linear-gradient" x1="99.05568" y1="12.72866" x2="21.39332" y2="191.747" gradientUnits="userSpaceOnUse">
      <stop offset="0" stop-color="#081700"/>
      <stop offset="0.84138" stop-color="#c7d344"/>
      <stop offset="0.954" stop-color="#fff"/>
      <stop offset="1" stop-color="#fff"/>
    </linearGradient>
  </defs>
  <g id="Layer_1" data-name="Layer 1">
    <g>
      <path class="cls-1" d="M128.16009,109.16584,75,140.88353,21.83988,109.16584V31.35554A20.57222,20.57222,0,0,1,42.61467,10.99206H107.3853a20.57222,20.57222,0,0,1,20.77479,20.36348Z"/>
      <g>
        <polygon class="cls-2" points="101.693 42.681 101.872 42.58 49.009 42.58 49.182 42.681 48.95 42.681 74.942 57.659 101.814 42.681 101.693 42.681"/>
        <polygon class="cls-2" points="38.472 97.927 28.592 104.286 74.942 132.462 121.408 104.178 111.516 97.894 74.942 120.085 38.472 97.927"/>
        <path class="cls-2" d="M48.1275,47.11936l-.05835-.03332V89.33311L72.739,103.47428v-.13373l.05835.03345V86.63377l-4.36688-6.987L72.739,77.92338v-.077l.05835-.02331V61.08286l-24.6698-14.097Zm7.92957,37.75226v-7.796l6.10913,3.491,2.64319,4.40533v4.7135Zm6.16748-12.77545-6.16748-3.52423V60.7747l8.75232,4.81372V70.373Z"/>
        <path class="cls-2" d="M77.20264,61.14976l-.05835.03332v42.2912l7.92956-4.84588v-.06452l.05841-.0357V86.128l16.68189-9.52618v-.067l.05835-.03333V46.98582l-24.66986,14.097Zm7.92962,16.23285v-11.52l8.75226-5.12V72.1312Z"/>
        <path class="cls-2" d="M130.19318,68.64235l19.14318-33.1571H129.8559V27.52913l-11.821-20.47467H32.39221L20.1441,28.26876v7.21649H.66364l19.14318,33.1571L5.26166,93.83547H20.1441v15.71942l1.26886.7724,52.21271,31.78162L75,142.94545l1.37433-.83654L128.587,110.32729l1.26886-.7724V93.83547h14.88244ZM91.43243,26.88466h7.79981V24.14345H94.7674V21.06337L98.04523,18.039V16.994H92.42169l-.98926-2.51563v-2.458H105.2796v4.71875l-2.40185,3.19336a2.40333,2.40333,0,0,1,2.51513,2.57227v6.83789a2.35959,2.35959,0,0,1-2.45849,2.459h-11.502ZM75.9187,25.246c0-1.61133.28223-2.51562,1.667-3.36328L83.718,18.039V16.994H76.90747l-.98877-2.51563v-2.458H87.42017a2.35882,2.35882,0,0,1,2.45849,2.458V18.9999c0,1.583-.22607,2.54394-1.66748,3.36328l-6.104,3.44726v1.07422h7.77148v4.917h-13.96ZM60.26294,14.47841a2.35855,2.35855,0,0,1,2.4585-2.458h9.01464a2.38147,2.38147,0,0,1,2.48682,2.458V29.34267a2.36658,2.36658,0,0,1-2.48682,2.459H62.72144a2.35932,2.35932,0,0,1-2.4585-2.459ZM44.60718,25.246c0-1.61133.28222-2.51562,1.667-3.36328L52.40649,18.039V16.994H45.596l-.98877-2.51563v-2.458H56.10864a2.35882,2.35882,0,0,1,2.4585,2.458V18.9999c0,1.583-.22608,2.54394-1.66748,3.36328l-6.104,3.44726v1.07422h7.77149v4.917h-13.96Zm-.004,11.64258h60.79358V94.15779L75,112.66017,44.60321,94.15779Zm82.6095,71.18085L75,139.85109,22.78729,108.06942V35.93087H42.40057V95.39565l1.05738.64368,30.39679,18.50238L75,115.23879l1.14526-.69708,30.39679-18.50238,1.05738-.64368V35.93087h19.61328Z"/>
        <rect class="cls-2" x="66.42358" y="16.99404" width="1.61084" height="9.89063"/>
      </g>
    </g>
  </g>
</svg>
