<svg id="Layer_1" data-name="Layer 1" xmlns="http://www.w3.org/2000/svg" width="18" height="18" viewBox="0 0 18 18">
  <defs>
    <style>
      .cls-1 {
        fill: #fff;
      }
    </style>
  </defs>
  <path class="cls-1" d="M9,0a9,9,0,1,0,9,9A9,9,0,0,0,9,0ZM2.05945,6.9986A6.62526,6.62526,0,0,1,3.87457,3.99335,7.96124,7.96124,0,0,1,6.577,2.20679,6.66664,6.66664,0,0,1,8.98,1.7594c.16925,0,.33246.00647.48877.01788a5.727,5.727,0,0,0-4.728,2.958,6.372,6.372,0,0,0-.66894,4.12427l.04162.23285.20227-.12268a2.33941,2.33941,0,0,1,1.21161-.34351,2.18932,2.18932,0,0,1,2.13282,1.695A2.45567,2.45567,0,0,1,5.32733,13.3429a2.20238,2.20238,0,0,1-.50824-.05921l-.01166-.00275-.012-.001a1.25884,1.25884,0,0,1-.27557-.05933,4.44386,4.44386,0,0,1-2.50678-3.2771A6.01285,6.01285,0,0,1,2.05945,6.9986Zm11.75274,7.01782a6.01406,6.01406,0,0,1-4.70385,2.22412,7.19231,7.19231,0,0,1-1.931-.27454,7.94638,7.94638,0,0,1-2.9234-1.47094A6.66388,6.66388,0,0,1,2.6673,12.61285q-.10109-.17934-.1861-.35284a5.71519,5.71519,0,0,0,4.9065,2.58508,6.3724,6.3724,0,0,0,3.90753-1.47943l.181-.15234-.20728-.114a2.263,2.263,0,0,1-1.195-1.96838,2.33406,2.33406,0,0,1,2.3863-2.27228,2.38116,2.38116,0,0,1,2.29528,1.65082l.00342.01154.005.0108a1.25647,1.25647,0,0,1,.08618.26837A4.10423,4.10423,0,0,1,13.81219,14.01642Zm1.49677-1.4917q-.10007.18-.20349.34314a5.71491,5.71491,0,0,0-.36188-5.534,6.37218,6.37218,0,0,0-3.30408-2.55725L11.215,4.702l.01117.23632A2.26316,2.26316,0,0,1,10.173,6.98608,2.188,2.188,0,0,1,9.0282,7.308,2.42215,2.42215,0,0,1,6.98834,6.14a2.38119,2.38119,0,0,1,.20709-2.8197l.008-.00891.00665-.01a1.258,1.258,0,0,1,.18372-.2138A3.72582,3.72582,0,0,1,9.947,2.2428a5.96887,5.96887,0,0,1,3.39942,1.08838,6.47882,6.47882,0,0,1,2.46264,3.596,7.946,7.946,0,0,1,.27466,3.261A6.66386,6.66386,0,0,1,15.309,12.52472Z"/>
</svg>
