<svg xmlns="http://www.w3.org/2000/svg" width="18" height="18" viewBox="0 0 18 18">
  <defs>
    <style>
      .cls-1, .cls-2 {
        fill: #fff;
      }

      .cls-2 {
        fill-rule: evenodd;
      }
    </style>
  </defs>
  <g id="Layer_1" data-name="Layer 1">
    <g>
      <path class="cls-1" d="M16.47162,3.97314,10.99853,4.99639,9,0,7.00141,4.99639l-5.47-1.03325L5.00286,8.9935,1.52539,14.05686l5.476-1.06624L8.993,18l2.00551-5.00938,5.46809,1.07619L12.99708,8.9935ZM13.5138,11.92577l-3.34914-1.10808-1.172,3.74485L7.82748,10.81622,4.39587,11.94578,6.63693,8.99722,4.40368,5.98475,7.83089,7.19042,9.001,3.43484l1.1759,3.75656,3.33988-1.16859L11.15905,9.00454Z"/>
      <polygon class="cls-2" points="4.026 14.588 3.976 17.126 6.909 15.463 6.379 14.13 4.026 14.588"/>
      <polygon class="cls-2" points="11.618 14.131 11.088 15.456 14.031 17.118 13.979 14.596 11.618 14.131"/>
      <polygon class="cls-2" points="3.79 8.995 2.624 7.306 0.007 9.004 2.621 10.696 3.79 8.995"/>
      <polygon class="cls-2" points="14.21 8.997 15.371 10.695 17.993 8.994 15.382 7.304 14.21 8.997"/>
      <polygon class="cls-2" points="6.379 3.862 6.909 2.537 3.966 0.875 4.02 3.416 6.379 3.862"/>
      <polygon class="cls-2" points="11.622 3.863 13.969 3.425 14.019 0.867 11.088 2.529 11.622 3.863"/>
    </g>
  </g>
</svg>
