<svg id="_11_armored_division" data-name="11_armored_division" xmlns="http://www.w3.org/2000/svg" width="150" height="150" viewBox="0 0 150 150">
  <defs>
    <style>
      .cls-1 {
        fill: #eed366;
      }

      .cls-1, .cls-2, .cls-3 {
        fill-rule: evenodd;
      }

      .cls-2 {
        fill: #151515;
      }

      .cls-3 {
        fill: #d32d2d;
      }
    </style>
  </defs>
  <path id="Shape_7_copy_5" data-name="Shape 7 copy 5" class="cls-1" d="M146,128.929H4V20.072H146V128.929"/>
  <path id="Shape_7_copy_3" data-name="Shape 7 copy 3" class="cls-2" d="M45.171,29.213c-5.343,0-6.574,2.521-7.113,3.006a3.377,3.377,0,0,1-1.5.784c-11.685,2.351-18.882,8.835-19.167,18.668S27.441,68.416,27.441,68.416,21.456,75.684,21.314,79.6s3.633,6.556,3.633,9.335-6.341,2.922-8.123,5.272-2.707,8.765-2.992,10.189a23.913,23.913,0,0,1-1.71,4.133c-0.5,1.212.286,5.558,1.069,6.27a5.144,5.144,0,0,0,2.683.424c1.582,0,3.5-.162,4.8-0.281,2.352-.214,2.28-1.5,2.28-1.5-0.5-1.283-2.636-.856-2.85-2.494s0.143-7.624,3.349-11.614c2.565-3.192,7.683-3.967,9.957-3.967a3.089,3.089,0,0,1,1.088.12c0.641,0.356-1.71,3.206-.143,3.562a3.176,3.176,0,0,0,.684.062c2.031,0,6.183-1.168,7.653-3.2,1.5-2.066.285-6.912,0.285-6.912,2.138,2.067,1.711,5.986,1.14,7.482s-3.277,4.347-2.708,6.841,5.773,5.486,6.484,5.843,1,1.425,1.426,2.992a12.7,12.7,0,0,0,1.14,2.779,9.667,9.667,0,0,0,2.674.321c2.918,0,6.341-.866,6.447-2.245,0.142-1.852-2.351-3.491-3.634-4.56s-5.558-4.276-5.558-6.271,2.138-7.267,3.349-7.909a0.451,0.451,0,0,1,.214-0.048c1.478,0,5.848,5.347,7.268,5.82a2.229,2.229,0,0,0,.7.127c0.947,0,1.3-.848,1.651-1.552a5.046,5.046,0,0,1,2.279-2.281,0.413,0.413,0,0,1,.127-0.016c1.256,0,7.666,3.232,10.063,3.438,0.173,0.015.35,0.022,0.531,0.022a20.79,20.79,0,0,0,5.882-1.377,0.647,0.647,0,0,1,.153-0.022c0.355,0,.086.5-0.3,0.949-0.427.5-1.638,1.994-.855,3.206a2.582,2.582,0,0,0,2.245.786c0.341,0,.68-0.02.986-0.04s0.58-.04.794-0.04c0.066,0,.127,0,0.18.007,0.855,0.071,8.907,5.985,8.907,5.985s-5.344.854-6.983,2.423-4.987,7.766-4.987,7.766a6.252,6.252,0,0,0,3.168.876,9.041,9.041,0,0,0,5.026-1.874c1.14-.783,5.772-3.778,6.446-4.152a2.824,2.824,0,0,1,1.389-.33,8.7,8.7,0,0,1,2,.35,1.574,1.574,0,0,0,.3.031c0.867,0,1.306-.844,1.37-2.065a4.231,4.231,0,0,1,1.035-2.384c0.855,0.356,4.062,4.489,4.417,5.629s0.856,4.346,1.854,4.917a5.278,5.278,0,0,0,2.554.515c3.621,0,8.681-1.92,8.347-2.867-0.428-1.211-4.061-1.282-4.7-1.5s-0.641-.5-0.285-1a2.7,2.7,0,0,0-.142-2.922c-0.784-1.211-4.418-3.705-5.986-6.128-1.662-2.57.855-6.626-.142-8.052s-4.846-2.921-6.7-6.911,2.352-8.907,2.352-8.907-1.781,3.705-1.07,6.7,5.06,6.627,5.985,7.553,1,3.7,1.212,4.774c0.2,1.025-.181,6.443,7.964,6.443q0.519,0,1.085-.03c9.264-.5,7.767-7.482,7.7-9.335a3.2,3.2,0,0,1,.926-2.636c4.917-4.916,5.629-7.054,4.56-7.624a2.364,2.364,0,0,1-1.567-1.71,12.767,12.767,0,0,1-.285-3.705s1.56,2.53,3.155,2.53a1.744,1.744,0,0,0,1.405-.82c1.924-2.565-1.568-4.417-3.135-5.985s-2.209-5.487-2.209-5.487-0.357-4.561-1.069-6.057-3.349-4.132-7.838-7.553c-9.98-7.6-17.941-10.759-23.389-10.759a12.219,12.219,0,0,0-1.905.142c-5.382.85-43.278,12.186-45.984,12.186H50.384c-1.758-.11-7.535-1.616-11.821-1.616a9.236,9.236,0,0,0-3.284.477A8.741,8.741,0,0,0,31.359,63.5c-10.26-5.059-10.4-14.251-7.41-19.666s14.535-7.41,15.889-7.624a3.884,3.884,0,0,1,.606-0.044,11.054,11.054,0,0,1,1.434.131,11.321,11.321,0,0,0,1.5.131,4.874,4.874,0,0,0,.877-0.075c5.009-.911,7.482-6.2,7.482-6.2a27.227,27.227,0,0,0-6.568-.94"/>
  <path id="Shape_7_copy_4" data-name="Shape 7 copy 4" class="cls-3" d="M14.615,117.3s6.484-2.352,10.19-1.782l2.423,5.13a7.074,7.074,0,0,1-2.708.856s-2.346-3.217-3.562-4.846c0,0,.5,3.634,1.5,4.917,0,0-3.776,1-6.413.213Zm37.978-.713s6.056-1.924,9.691-1.853c0,0,2.209,5.2,2.779,5.7l-2.636.428a37.036,37.036,0,0,1-3.064-3.99s0.926,4.418,1.354,4.773c0,0-5.415.571-6.982-.141A17.371,17.371,0,0,1,52.593,116.584Zm28.145,2.209,3.776-5.986A6.623,6.623,0,0,0,82.8,110.1s-5.558,1.64-7.624,4.632Zm3.99-9.477,1.14,2.281,1.71-1.5A6.192,6.192,0,0,0,84.729,109.316Zm28.145,12.469s7.553-1.211,9.975-2.208a30.925,30.925,0,0,1,2.637,4.2s0,1.355-2.922,1.64a21.276,21.276,0,0,1-3.42-3.99s0.927,3.918,1.283,4.63a22.387,22.387,0,0,1-6.912-.071Zm11.614-50.447,0.143,6.983s13.752-1.924,19.309,8.835c0,0,.713-5.558-4.916-10.617S125.913,70.056,124.488,71.338ZM109.169,73.19l0.142,6.627S94.49,79.746,89.5,89.935c0,0-1.069-5.558,5.558-11.472S108.67,72.264,109.169,73.19ZM130.236,88.7s-3.8.095-5.13,1.282-1.188,2.8.617,3.99,4.228-2.564,4.656-3.515S131.281,88.985,130.236,88.7Zm-4.655,14.108a6.539,6.539,0,0,0-3.231.57c-1.045.713-.949,2.613-0.664,3.136s2.707-.095,3.847-0.9S127.481,102.475,125.581,102.808ZM107.685,88.7s3.8,0.095,5.13,1.282,1.187,2.8-.617,3.99-4.229-2.564-4.656-3.515S106.639,88.985,107.685,88.7Zm5.747,14.108a6.534,6.534,0,0,1,3.23.57c1.046,0.713.951,2.613,0.665,3.136s-2.707-.095-3.847-0.9S111.532,102.475,113.432,102.808Z"/>
</svg>
