<svg id="_2_ranger_battalion" data-name="2_ranger_battalion" xmlns="http://www.w3.org/2000/svg" width="150" height="150" viewBox="0 0 150 150">
  <defs>
    <style>
      .cls-1 {
        fill: #151515;
      }

      .cls-1, .cls-2, .cls-3 {
        fill-rule: evenodd;
      }

      .cls-2 {
        fill: #bd2727;
      }

      .cls-3 {
        fill: #eee;
      }
    </style>
  </defs>
  <path class="cls-1" d="M77.1,37.841c-0.423,0-.648.005-0.648,0.005h-2.9s-0.224-.005-0.648-0.005c-4.133,0-27.2.494-45.584,11.112V60.061s-15.573,7.137-22.947,12a3.383,3.383,0,0,0-1.52,2.826V108.37a3.786,3.786,0,0,0,3.793,3.789,3.737,3.737,0,0,0,2.132-.673c8.334-5.735,24.281-15.776,40.157-20.654V76.722s7.956-4.954,24.617-4.954h2.9c16.662,0,24.617,4.954,24.617,4.954v14.11c15.876,4.877,31.823,14.919,40.157,20.654a3.735,3.735,0,0,0,2.131.673,3.786,3.786,0,0,0,3.793-3.789V74.888a3.382,3.382,0,0,0-1.519-2.826c-7.375-4.863-22.947-12-22.947-12V48.953C104.3,38.334,81.23,37.841,77.1,37.841"/>
  <path class="cls-2" d="M143.426,75.83A85.085,85.085,0,0,0,118.93,63.7V52.6a1.276,1.276,0,0,0-.738-1.157,106.706,106.706,0,0,0-28.177-8.463,82.789,82.789,0,0,0-12.439-1.113H72.663a85.216,85.216,0,0,0-12.7,1.112,101.056,101.056,0,0,0-27.941,8.47A1.276,1.276,0,0,0,31.3,52.6V63.625A85.161,85.161,0,0,0,6.574,75.83a1.276,1.276,0,0,0-.5,1.01v30.02a1.277,1.277,0,0,0,2.049,1.016C24.118,95.7,44.274,89.076,44.476,89.01a1.276,1.276,0,0,0,.882-1.214V74.7a85.718,85.718,0,0,1,26.866-5.368h5.782a84.193,84.193,0,0,1,26.636,5.2V87.8a1.276,1.276,0,0,0,.882,1.214c0.2,0.065,20.346,6.678,36.349,18.865a1.276,1.276,0,0,0,2.049-1.016V76.839A1.275,1.275,0,0,0,143.426,75.83ZM115.279,79.6l-8.085,5.7V75.543A61.838,61.838,0,0,1,115.279,79.6ZM8.63,77.484A85.967,85.967,0,0,1,31.3,66.3V79.616a1.275,1.275,0,0,0,.412.938l-0.021.03L41.357,87.4C35.8,89.439,21.291,95.225,8.63,104.329V77.484ZM42.806,85.3L34.84,79.685a63.49,63.49,0,0,1,7.966-3.967V85.3Zm35.221-18.52H72.148a88.283,88.283,0,0,0-29.531,6.238,67.057,67.057,0,0,0-8.77,4.279V53.4a100.1,100.1,0,0,1,38.8-8.987h4.942a102.124,102.124,0,0,1,38.787,9V77.279a65.336,65.336,0,0,0-8.738-4.313,86.1,86.1,0,0,0-29.571-6.183H78.027Zm63.343,37.547c-12.661-9.1-27.169-14.89-32.727-16.926l9.275-6.54a1.27,1.27,0,0,0,1.012-1.247V66.376a85.938,85.938,0,0,1,22.44,11.108v26.845Z"/>
  <path class="cls-3" d="M60.738,61.605a1.058,1.058,0,0,1-.712-0.131,4.338,4.338,0,0,1-.961-1.488c-1.421-2.919-2.891-5.91-4.367-8.89a0.226,0.226,0,0,0-.254-0.119l-0.169.041a0.225,0.225,0,0,0-.156.134c-1.446,3.555-2.889,7.16-4.289,10.714a10.419,10.419,0,0,1-.991,2.065,2.524,2.524,0,0,1-.941.785,1,1,0,0,1-.64-0.017,3.371,3.371,0,0,1-.726-0.66c-0.873-.945-1.76-1.894-2.639-2.825a6.506,6.506,0,0,0,1.5-1.348,4.3,4.3,0,0,0,.984-2.662,2.4,2.4,0,0,0-.7-1.837A2.245,2.245,0,0,0,43.9,54.8a11.357,11.357,0,0,0-3.158.964c-1.794.766-3.584,1.6-5.321,2.487a0.225,0.225,0,0,0-.123.2v0.327a0.225,0.225,0,0,0,.327.2,2.443,2.443,0,0,1,.949-0.356,0.21,0.21,0,0,1,.211.095,3.082,3.082,0,0,1,.083,1.056v7.77a4.1,4.1,0,0,1-.1,1.195,1.552,1.552,0,0,1-.345.517,4.1,4.1,0,0,1-1,.642,0.225,0.225,0,0,0-.123.2v0.327a0.225,0.225,0,0,0,.327.2c1.9-.97,3.868-1.88,5.838-2.7a0.225,0.225,0,0,0,.138-0.208V67.382a0.225,0.225,0,0,0-.312-0.208,2.629,2.629,0,0,1-.977.295,0.244,0.244,0,0,1-.227-0.113A3.064,3.064,0,0,1,40,66.3V63.088l0.477-.209c1.207,1.251,2.43,2.539,3.637,3.83a0.224,0.224,0,0,0,.244.057c1.215-.457,2.456-0.892,3.688-1.293,1.3-.424,2.63-0.821,3.949-1.181a0.225,0.225,0,0,0,.166-0.217V63.748a0.225,0.225,0,0,0-.082-0.174,0.228,0.228,0,0,0-.187-0.047,3.132,3.132,0,0,1-1.065.123,0.348,0.348,0,0,1-.245-0.408,2.957,2.957,0,0,1,.232-0.954l0.462-1.2c1.3-.368,2.63-0.709,3.951-1.015l0.564,1.184c0.213,0.451.248,0.546,0.252,0.56s0,0.013.006,0.02a0.74,0.74,0,0,1,.041.243,0.365,0.365,0,0,1-.122.282,2.107,2.107,0,0,1-.889.366l-0.241.056a0.225,0.225,0,0,0-.174.219v0.327a0.225,0.225,0,0,0,.277.219c1.93-.454,3.9-0.846,5.855-1.164a0.225,0.225,0,0,0,.189-0.222V61.83a0.225,0.225,0,0,0-.073-0.166A0.231,0.231,0,0,0,60.738,61.605ZM42.76,59.845a3.04,3.04,0,0,1-.867,1.106,8.069,8.069,0,0,1-1.725.944L40,61.969V57.216q0.386-.17.773-0.336a2.06,2.06,0,0,1,1.785-.192,1.828,1.828,0,0,1,.521,1.587A3.663,3.663,0,0,1,42.76,59.845Zm9.03-.026c0.489-1.235.987-2.484,1.484-3.724Q54,57.576,54.722,59.07C53.743,59.3,52.76,59.553,51.789,59.819ZM73.917,48.84c-1.354.011-2.726,0.054-4.078,0.129a0.225,0.225,0,0,0-.213.225V49.52a0.226,0.226,0,0,0,.072.165,0.22,0.22,0,0,0,.17.06,1.493,1.493,0,0,1,1.275.349,2.063,2.063,0,0,1,.263,1.3v4.532c-1.869-2.212-3.776-4.408-5.672-6.535a0.225,0.225,0,0,0-.192-0.074c-1.451.153-2.915,0.346-4.352,0.572a0.225,0.225,0,0,0-.19.222v0.327a0.225,0.225,0,0,0,.253.223,1.687,1.687,0,0,1,.751.026,1.656,1.656,0,0,1,.6.47l0.2,0.217v8.362a1.9,1.9,0,0,1-.341,1.257,2.15,2.15,0,0,1-1.273.542,0.225,0.225,0,0,0-.188.222v0.327a0.225,0.225,0,0,0,.225.225l0.035,0c1.43-.225,2.886-0.416,4.329-0.569a0.225,0.225,0,0,0,.2-0.224V61.185a0.225,0.225,0,0,0-.249-0.224l-0.29.031a1.453,1.453,0,0,1-.963-0.2,1.3,1.3,0,0,1-.377-1.144V52.61c2.656,2.87,5.316,5.857,7.912,8.885a0.211,0.211,0,0,0,.178.078l0.308-.009a0.225,0.225,0,0,0,.219-0.225V51.371a3.078,3.078,0,0,1,.132-1.112,0.825,0.825,0,0,1,.326-0.407,2.787,2.787,0,0,1,.964-0.237,0.225,0.225,0,0,0,.2-0.223V49.065a0.225,0.225,0,0,0-.067-0.16A0.234,0.234,0,0,0,73.917,48.84Zm14.707,8.09c-1.969-.323-3.975-0.582-5.963-0.768a0.225,0.225,0,0,0-.246.224v0.327a0.225,0.225,0,0,0,.2.224l0.316,0.03a1.462,1.462,0,0,1,.655.21,0.869,0.869,0,0,1,.328.324,2.408,2.408,0,0,1,.079.832v2.312a6.272,6.272,0,0,1-.751.122,4.6,4.6,0,0,1-.868.006,4.167,4.167,0,0,1-2.1-.739,3.534,3.534,0,0,1-1.264-1.868,9.9,9.9,0,0,1-.407-2.971,9.8,9.8,0,0,1,.373-2.693A3.552,3.552,0,0,1,80.2,50.584a2.978,2.978,0,0,1,2.137-.534,4.43,4.43,0,0,1,2.523,1.127,6.149,6.149,0,0,1,1.748,2.772,0.225,0.225,0,0,0,.182.152l0.332,0.048a0.225,0.225,0,0,0,.258-0.223V49.706a0.225,0.225,0,0,0-.192-0.223l-0.334-.049a0.227,0.227,0,0,0-.242.143,1.1,1.1,0,0,1-.315.523,0.421,0.421,0,0,1-.309.079,6.81,6.81,0,0,1-.983-0.443,8.962,8.962,0,0,0-1.323-.561,8.506,8.506,0,0,0-1.693-.307,6.372,6.372,0,0,0-5.08,1.642,6.163,6.163,0,0,0-2.025,4.7,6.1,6.1,0,0,0,.662,2.839,6.327,6.327,0,0,0,1.436,1.793,8.431,8.431,0,0,0,2.1,1.338,9.115,9.115,0,0,0,2.979.686c0.481,0.042.956,0.063,1.421,0.063,0.428,0,.847-0.018,1.255-0.053a12.975,12.975,0,0,0,2.484-.457,0.225,0.225,0,0,0,.162-0.216v-2.49A2.084,2.084,0,0,1,87.44,58a0.511,0.511,0,0,1,.284-0.279,2.132,2.132,0,0,1,.842-0.019,0.225,0.225,0,0,0,.247-0.224V57.152A0.225,0.225,0,0,0,88.624,56.93Zm11.545,3.942-0.325-.1a0.225,0.225,0,0,0-.282.15,2.7,2.7,0,0,1-1.329,1.8,3.741,3.741,0,0,1-2.54.037q-0.36-.091-0.721-0.178a1.659,1.659,0,0,1-.655-0.273,0.792,0.792,0,0,1-.249-0.338A4.672,4.672,0,0,1,94,60.817V57.733a2.957,2.957,0,0,1,.957.428,2.528,2.528,0,0,1,.724.99,5.447,5.447,0,0,1,.428,1.721,0.225,0.225,0,0,0,.167.2l0.335,0.088a0.225,0.225,0,0,0,.283-0.218V54.67a0.225,0.225,0,0,0-.167-0.218l-0.337-.089a0.225,0.225,0,0,0-.281.195,3.317,3.317,0,0,1-.6,1.817,1.387,1.387,0,0,1-1.442.243L94,56.6V52.19q0.484,0.112.967,0.23a7.158,7.158,0,0,1,1.8.611A3.655,3.655,0,0,1,98,54.153a5.525,5.525,0,0,1,.684,1.987,0.225,0.225,0,0,0,.158.175l0.333,0.1a0.225,0.225,0,0,0,.29-0.216V52.658a0.225,0.225,0,0,0-.161-0.216,86.627,86.627,0,0,0-10.123-2.368,0.225,0.225,0,0,0-.263.222v0.327a0.225,0.225,0,0,0,.187.222l0.4,0.07a1.612,1.612,0,0,1,.823.364,0.851,0.851,0,0,1,.261.421,5.848,5.848,0,0,1,.039.956v7.876a2.951,2.951,0,0,1-.078,1,0.406,0.406,0,0,1-.235.239,1.417,1.417,0,0,1-.732.019l-0.405-.07a0.225,0.225,0,0,0-.263.222v0.327a0.225,0.225,0,0,0,.187.222,86.13,86.13,0,0,1,10.4,2.453,0.227,0.227,0,0,0,.065.01,0.225,0.225,0,0,0,.223-0.192l0.535-3.642A0.225,0.225,0,0,0,100.169,60.872Zm13.65,9.026a2.43,2.43,0,0,1-.722-0.637,12.157,12.157,0,0,1-.742-1.322c-0.835-1.642-1.691-3.3-2.548-4.939a2.489,2.489,0,0,0,1.327-.162,1.971,1.971,0,0,0,1.035-1.962,4.715,4.715,0,0,0-.633-2.291,6.019,6.019,0,0,0-1.632-1.9,14.143,14.143,0,0,0-3.122-1.632c-1.791-.72-3.632-1.388-5.472-1.986a0.225,0.225,0,0,0-.294.214v0.327a0.224,0.224,0,0,0,.155.214,3.191,3.191,0,0,1,1.032.477,1.2,1.2,0,0,1,.351.456,3.848,3.848,0,0,1,.1,1.18V63.7a3,3,0,0,1-.088,1.066,0.328,0.328,0,0,1-.256.151,2.532,2.532,0,0,1-1-.209,0.225,0.225,0,0,0-.294.214v0.327a0.224,0.224,0,0,0,.155.214c2.014,0.655,4.029,1.394,5.991,2.2a0.224,0.224,0,0,0,.31-0.208V67.131a0.225,0.225,0,0,0-.14-0.208,3.83,3.83,0,0,1-1.023-.546,1.294,1.294,0,0,1-.351-0.477,3.94,3.94,0,0,1-.1-1.186V61.687l0.381,0.15c1.239,2.294,2.479,4.637,3.685,6.964a0.229,0.229,0,0,0,.107.1c1.2,0.541,2.4,1.12,3.574,1.718a0.232,0.232,0,0,0,.1.025,0.226,0.226,0,0,0,.225-0.225V70.094A0.226,0.226,0,0,0,113.819,69.9Zm-5.168-9.031a0.818,0.818,0,0,1-.737.329,5.99,5.99,0,0,1-1.709-.483l-0.347-.136V55.816l0.611,0.241a3.979,3.979,0,0,1,1.893,1.4,3.812,3.812,0,0,1,.579,2.164A2.1,2.1,0,0,1,108.651,60.867ZM19.534,84.953a0.226,0.226,0,0,0-.239-0.012l-0.3.168a0.226,0.226,0,0,0-.1.118,6.864,6.864,0,0,1-.437,1.019,1.973,1.973,0,0,1-.4.469,9.36,9.36,0,0,1-1.125.73c-0.539.318-1.082,0.644-1.622,0.974a48.562,48.562,0,0,0,3.167-5.964,7.9,7.9,0,0,0,.628-2.815,2.061,2.061,0,0,0-.445-1.294,1.574,1.574,0,0,0-1.271-.613,3.153,3.153,0,0,0-1.665.528,6.785,6.785,0,0,0-2.14,2.166,10.427,10.427,0,0,0-1.355,3.435,0.225,0.225,0,0,0,.278.266l0.3-.079a0.225,0.225,0,0,0,.153-0.138A4.805,4.805,0,0,1,14.8,81.43a1.044,1.044,0,0,1,1.07-.176,1.075,1.075,0,0,1,.416,1.024,8.605,8.605,0,0,1-.629,2.913c-0.431,1.16-1.7,3.71-3.6,7.448a0.225,0.225,0,0,0-.025.1v0.194a0.225,0.225,0,0,0,.349.188c2.115-1.389,4.3-2.727,6.5-3.974A0.224,0.224,0,0,0,19,88.991q0.315-1.909.631-3.816A0.226,0.226,0,0,0,19.534,84.953Zm6.447-11.139a5.289,5.289,0,0,0-2.246.643c-1.1.533-2.211,1.1-3.29,1.69a0.226,0.226,0,0,0-.117.2v0.21a0.225,0.225,0,0,0,.333.2l0.24-.13a0.733,0.733,0,0,1,.36-0.124,0.082,0.082,0,0,0,.054,0,2.4,2.4,0,0,1,.037.608v5.05a3.083,3.083,0,0,1-.035.662,1.1,1.1,0,0,1-.208.347,1.515,1.515,0,0,1-.423.315l-0.242.131a0.225,0.225,0,0,0-.117.2v0.209a0.225,0.225,0,0,0,.333.2c1.072-.585,2.172-1.149,3.27-1.68a9.574,9.574,0,0,0,1.076-.579,9.351,9.351,0,0,0,1.316-1.022,6.584,6.584,0,0,0,.966-1.156,6.068,6.068,0,0,0,.687-1.457,5.389,5.389,0,0,0,.267-1.666,3.355,3.355,0,0,0-.564-2.018A2.025,2.025,0,0,0,25.981,73.815Zm-0.822,6.633a2.842,2.842,0,0,1-1.3,1.206,0.955,0.955,0,0,1-.276.1,3.647,3.647,0,0,1-.017-0.428V75.475a3.029,3.029,0,0,1,1.085-.372,0.827,0.827,0,0,1,.725.418,3.813,3.813,0,0,1,.414,2.034A5.878,5.878,0,0,1,25.159,80.448Zm102.8,2.178a2.3,2.3,0,0,0,1.4-.232,1.586,1.586,0,0,0,.708-1.439,4.263,4.263,0,0,0-.5-1.881,6.028,6.028,0,0,0-1.355-1.78,10.97,10.97,0,0,0-2.9-1.682c-1.861-.808-3.768-1.576-5.667-2.284a0.225,0.225,0,0,0-.3.211v0.327a0.225,0.225,0,0,0,.146.211,3.456,3.456,0,0,1,1.042.529,1.3,1.3,0,0,1,.355.477,3.86,3.86,0,0,1,.1,1.186v7.77A2.969,2.969,0,0,1,120.9,85.1a0.3,0.3,0,0,1-.248.133,2.608,2.608,0,0,1-1.006-.257,0.225,0.225,0,0,0-.3.211v0.327a0.224,0.224,0,0,0,.147.211c2.006,0.748,4.018,1.563,5.98,2.422a7.917,7.917,0,0,0,3.026.8,2.711,2.711,0,0,0,.9-0.14,1.839,1.839,0,0,0,1.194-1.937,4.453,4.453,0,0,0-1-2.683A8.726,8.726,0,0,0,127.956,82.627Zm-3.771-6.333a5.642,5.642,0,0,1,1.455.869,3.482,3.482,0,0,1,.82,1.091,3.122,3.122,0,0,1,.284,1.344,1.613,1.613,0,0,1-.258,1.023,0.941,0.941,0,0,1-.727.317,4.423,4.423,0,0,1-1.574-.421V76.294ZM126.868,86.6a0.927,0.927,0,0,1-.724.412,2.4,2.4,0,0,1-1.161-.225,1.384,1.384,0,0,1-.609-0.465,1.17,1.17,0,0,1-.2-0.687l0.009-3.942a6.905,6.905,0,0,1,1.616.943,3.688,3.688,0,0,1,.98,1.318,3.854,3.854,0,0,1,.357,1.585A1.872,1.872,0,0,1,126.868,86.6Zm11-4.29c-0.711-.467-1.44-0.927-2.166-1.367a0.225,0.225,0,0,0-.342.192v0.195a0.227,0.227,0,0,0,.111.194,1.741,1.741,0,0,1,.694.682,2,2,0,0,1,.145.869V85.19c-0.931-1.843-1.886-3.688-2.845-5.5a0.232,0.232,0,0,0-.09-0.092c-0.791-.438-1.6-0.865-2.406-1.271a0.225,0.225,0,0,0-.326.2v0.194a0.226,0.226,0,0,0,.119.2,1.69,1.69,0,0,1,.419.3,2.6,2.6,0,0,1,.346.522l0.118,0.214V84.92a0.681,0.681,0,0,1-.1.491,0.8,0.8,0,0,1-.573-0.163,0.225,0.225,0,0,0-.325.2v0.194a0.225,0.225,0,0,0,.124.2c0.8,0.4,1.605.828,2.39,1.263a0.225,0.225,0,0,0,.334-0.2V86.717a0.224,0.224,0,0,0-.116-0.2l-0.159-.088a1.68,1.68,0,0,1-.535-0.483,1.38,1.38,0,0,1-.222-0.837V81.474c1.385,2.552,2.752,5.156,4.068,7.752a0.225,0.225,0,0,0,.08.089l0.163,0.1a0.226,0.226,0,0,0,.121.035A0.23,0.23,0,0,0,137,89.425a0.225,0.225,0,0,0,.116-0.2V83.3a1.474,1.474,0,0,1,.056-0.559,0.257,0.257,0,0,1,.02-0.034,1.458,1.458,0,0,1,.449.185,0.225,0.225,0,0,0,.329-0.2V82.5A0.224,0.224,0,0,0,137.866,82.315Z"/>
</svg>
