<svg id="_5_armored_division" data-name="5_armored_division" xmlns="http://www.w3.org/2000/svg" width="150" height="150" viewBox="0 0 150 150">
  <defs>
    <style>
      .cls-1 {
        fill: #eee;
      }

      .cls-1, .cls-2, .cls-3, .cls-4 {
        fill-rule: evenodd;
      }

      .cls-2 {
        fill: #dbdbdb;
      }

      .cls-3 {
        fill: #5c5c5c;
      }

      .cls-4 {
        fill: #61b44b;
      }
    </style>
  </defs>
  <path id="Shape_106_copy" data-name="Shape 106 copy" class="cls-1" d="M136.083,76.281A18.265,18.265,0,0,0,134,76.159c-7.237,0-11.2,4.441-11.631,6.712a5.725,5.725,0,0,0,.592,3.427,14.619,14.619,0,0,1,.971,4.918,12.925,12.925,0,0,0-4.688,1.846c-1.69,1.379-2.006,4.21-2.031,4.485-0.247,1.763-.978,6.627-1.381,7.934l-0.109.352,7.1,16.346h0.656c1.087,0,2.915-1.162,3.279-8.723a12.213,12.213,0,0,0,6.434-1.729c3.269-2.282,4.068-4.305,4.26-5.07,0.063-.253.112-0.629,0.187-1.2,0.272-2.081.839-6.41,2.9-9.537,0.755-1.147,1.453-2.1,2.069-2.934,1.611-2.192,2.776-3.776,2.984-6.261C145.965,82.246,143.665,77.148,136.083,76.281ZM31.791,97.591c-0.03-.318-0.346-3.15-2.036-4.528a12.908,12.908,0,0,0-4.688-1.847,14.732,14.732,0,0,1,.971-4.918,5.738,5.738,0,0,0,.591-3.432C26.2,80.6,22.238,76.159,15,76.159a18.28,18.28,0,0,0-2.082.122c-7.582.868-9.882,5.965-9.507,10.446,0.207,2.485,1.372,4.069,2.984,6.261,0.616,0.837,1.314,1.787,2.069,2.934,2.058,3.127,2.624,7.456,2.9,9.536,0.075,0.57.124,0.946,0.187,1.2,0.192,0.764.991,2.786,4.259,5.069a12.213,12.213,0,0,0,6.434,1.729c0.365,7.561,2.192,8.723,3.279,8.723h0.657l7.1-16.346-0.109-.352C32.764,104.174,32.033,99.311,31.791,97.591Z"/>
  <path id="Shape_106_copy_3" data-name="Shape 106 copy 3" class="cls-2" d="M140.346,83.434c-2.059-2.953-7.981-3.595-11.2-1.412s-2.06,4.751-2.06,4.751a13.242,13.242,0,0,0,7.338-.9l-0.644,4.365a20.612,20.612,0,0,0,7.209-1.8S142.354,86.313,140.346,83.434ZM119.878,99.355c1.287,0.385,5.536,3.081,5.793,3.98s0.554,7.758.554,7.758a8.645,8.645,0,0,0,7.427-2.366s-1.287-2.439-1.416-7.7a9.788,9.788,0,0,1,3.733-7.96c-3.6,1.027-7.466.77-12.487,1.669S119.878,99.355,119.878,99.355ZM14.576,85.874a13.24,13.24,0,0,0,7.338.9s1.159-2.568-2.06-4.751-9.14-1.541-11.2,1.412c-2.008,2.879-.644,5.007-0.644,5.007a20.612,20.612,0,0,0,7.209,1.8Zm10.942,8.859c-5.02-.9-8.882-0.642-12.487-1.669a9.789,9.789,0,0,1,3.733,7.96c-0.129,5.264-1.416,7.7-1.416,7.7a8.647,8.647,0,0,0,7.427,2.366s0.3-6.859.554-7.758,4.506-3.6,5.793-3.98C29.122,99.355,30.538,95.631,25.518,94.733Z"/>
  <path id="Shape_106_copy_2" data-name="Shape 106 copy 2" class="cls-3" d="M136.2,75.29a19.368,19.368,0,0,0-2.2-.128c-7.211,0-12.035,4.446-12.613,7.519a6.7,6.7,0,0,0,.663,4.03,14.263,14.263,0,0,1,.852,3.724,12.14,12.14,0,0,0-4.291,1.855c-1.913,1.561-2.322,4.469-2.393,5.158-0.342,2.428-1,6.641-1.342,7.74l-0.217.7,0.294,0.675,6.694,15.407,0.522,1.2h1.312c2.406,0,3.825-2.947,4.225-8.767a12.377,12.377,0,0,0,6.062-1.865c3.418-2.386,4.384-4.56,4.655-5.644a12.611,12.611,0,0,0,.209-1.312c0.263-2.007.809-6.183,2.741-9.119,0.741-1.125,1.431-2.064,2.04-2.892,1.643-2.236,2.942-4,3.173-6.767C147,81.863,144.488,76.239,136.2,75.29ZM116.8,105.8l-0.013-.03c0-.013.009-0.033,0.014-0.048A0.677,0.677,0,0,0,116.8,105.8Zm1.167-6.5a5.082,5.082,0,0,0,2.29,1.327,5.128,5.128,0,0,1,1.607.768c0.036,0.026.072,0.055,0.109,0.083a0.664,0.664,0,0,0,.143.114,1.245,1.245,0,0,1,.636,1.25c-0.351.912-3.456,1.91-5.444,2.3a0.637,0.637,0,0,0-.443.347C117.213,104.164,117.687,101.178,117.968,99.3Zm5.514,21.876-6.5-14.958a0.638,0.638,0,0,0,.449.193,0.667,0.667,0,0,0,.124-0.012c0.939-.183,5.664-1.192,6.4-3.095a1.955,1.955,0,0,0,.122-0.723,3.84,3.84,0,0,1,.855,1.465c0.856,2.562.741,10.238,0.74,10.314a0.642,0.642,0,0,0,.022.116C125.2,121.16,123.482,121.181,123.482,121.181ZM139.7,95.375c-2.7,4.109-2.961,10.014-3.219,11.041s-1.287,2.7-3.862,4.494a11.171,11.171,0,0,1-5.661,1.541c-0.022-2.533-.16-6.865-0.808-8.8a4.371,4.371,0,0,0-3.42-3.193c-0.041-.031-0.07-0.062-0.114-0.094a6.451,6.451,0,0,0-2.007-.962,3.3,3.3,0,0,1-2-1.373,2.442,2.442,0,0,1-.049-1.94,0.624,0.624,0,0,0,.008-0.075,4.64,4.64,0,0,1,1.31-2.176A5.164,5.164,0,0,1,121,93.18c0.013,0,.024.011,0.038,0.011a0.639,0.639,0,0,0,.283-0.065c0.02-.01,2.058-0.98,7.1-1.347,4.7-.344,12.5-1.395,16.109-4.6C144.1,89.917,142.245,91.511,139.7,95.375ZM124.375,87.4a5.965,5.965,0,0,0,1.717.518,18.059,18.059,0,0,0,7.5-1.062l-0.568,3.115c-1.829.276-3.5,0.437-4.7,0.524-1.324.1-2.45,0.233-3.4,0.385A14.913,14.913,0,0,0,124.375,87.4Zm10,2.349,0.686-3.763a0.643,0.643,0,0,0-.875-0.71c-0.046.019-4.644,1.852-7.9,1.372-2.174-.321-2.732-1.493-2.875-2.1-0.009-.05-0.023-0.1-0.03-0.15a1.751,1.751,0,0,1-.021-0.2c0-.015-0.008-0.027-0.009-0.042a4.543,4.543,0,0,1,.009-1.109c0.352-1.876,4.032-5.892,10.647-5.892a17.325,17.325,0,0,1,1.968.114c6.693,0.766,8.424,4.792,8.632,7.874C143,87.653,138.493,89.016,134.372,89.752Zm-101.591,7.7c-0.071-.689-0.48-3.6-2.393-5.158A12.142,12.142,0,0,0,26.1,90.436a14.27,14.27,0,0,1,.853-3.725,6.694,6.694,0,0,0,.664-4.018c-0.58-3.084-5.4-7.53-12.614-7.53a19.382,19.382,0,0,0-2.2.128C4.512,76.239,2,81.863,2.413,86.81c0.231,2.765,1.529,4.531,3.173,6.767,0.609,0.828,1.3,1.767,2.039,2.892,1.932,2.936,2.479,7.111,2.741,9.118a12.824,12.824,0,0,0,.209,1.313c0.272,1.084,1.238,3.258,4.655,5.644a12.377,12.377,0,0,0,6.063,1.865c0.4,5.82,1.818,8.767,4.224,8.767H26.83l0.522-1.2,6.694-15.407,0.293-.675-0.217-.7C33.784,104.089,33.123,99.876,32.781,97.449ZM13.031,77.271A17.335,17.335,0,0,1,15,77.157c6.615,0,10.294,4.016,10.647,5.892a4.522,4.522,0,0,1,.008,1.11c0,0.014-.008.026-0.008,0.039a1.618,1.618,0,0,1-.02.2c-0.008.05-.022,0.1-0.032,0.156-0.145.608-.7,1.776-2.875,2.1-3.257.477-7.857-1.353-7.9-1.372a0.643,0.643,0,0,0-.875.71l0.686,3.763c-4.117-.735-8.621-2.095-10.229-4.6C4.6,82.071,6.333,78.038,13.031,77.271ZM24.625,87.4a14.943,14.943,0,0,0-.553,3.48c-0.949-.152-2.075-0.289-3.4-0.385-1.191-.087-2.866-0.248-4.7-0.524l-0.567-3.115a18,18,0,0,0,7.5,1.062A5.952,5.952,0,0,0,24.625,87.4ZM22.04,112.451a11.175,11.175,0,0,1-5.662-1.541c-2.575-1.8-3.6-3.467-3.862-4.494S12,99.483,9.3,95.375c-2.542-3.864-4.4-5.457-4.827-8.2,3.614,3.205,11.406,4.256,16.109,4.6,5.023,0.365,7.065,1.33,7.1,1.347a0.648,0.648,0,0,0,.285.066c0.014,0,.025-0.01.038-0.011a5.162,5.162,0,0,1,1.121.653,4.631,4.631,0,0,1,1.31,2.178,0.614,0.614,0,0,0,.008.073,2.442,2.442,0,0,1-.049,1.94,3.3,3.3,0,0,1-2,1.373,6.465,6.465,0,0,0-2.006.961c-0.044.032-.074,0.063-0.116,0.095a4.372,4.372,0,0,0-3.419,3.193C22.2,105.586,22.062,109.918,22.04,112.451Zm3.478,8.73s-1.719-.021-2.21-6.7a0.6,0.6,0,0,0,.021-0.117c0-.076-0.117-7.752.74-10.314a3.832,3.832,0,0,1,.856-1.465,1.942,1.942,0,0,0,.121.723c0.734,1.9,5.459,2.912,6.4,3.095a0.663,0.663,0,0,0,.124.012,0.635,0.635,0,0,0,.448-0.193Zm6.174-16.037c-1.988-.387-5.093-1.385-5.444-2.3a1.213,1.213,0,0,1,.6-1.221,0.63,0.63,0,0,0,.186-0.149l0.1-.078a5.135,5.135,0,0,1,1.607-.767,5.087,5.087,0,0,0,2.29-1.327c0.281,1.873.755,4.859,1.1,6.186A0.632,0.632,0,0,0,31.691,105.144ZM32.2,105.8a0.634,0.634,0,0,0,0-.078c0,0.015.009,0.035,0.013,0.048Z"/>
  <path id="Shape_106_copy_4" data-name="Shape 106 copy 4" class="cls-4" d="M110.279,97.8c0.266-.107.406-0.167,0.406-0.167s6.809-9.054,8.952-33.2c0.4-4.482.561-8.968,0.563-13.3a3.131,3.131,0,0,0,3.6.782c2.558-.945,1.545-5.007,1.545-5.007s-1.8-9.886-1.8-14.637A68.871,68.871,0,0,1,124.7,21.485a21.16,21.16,0,0,0,.514-4.237,3.257,3.257,0,0,0-1.8-2.311,3.808,3.808,0,0,0-5.406,2.7s-0.126.692-.308,1.836c-0.344-2.2-.583-3.448-0.583-3.448a60.207,60.207,0,0,0-14.028-3.075c1.726-1.441,2.92-3.678,1.008-5.585-1.739-1.734-5.02,0-5.02,0L93.669,9.8a52.429,52.429,0,0,1-9.136,3.134c-4.422.405-7.922,0.992-9.86,1.36H74.326c-1.938-.368-5.438-0.954-9.86-1.36A52.428,52.428,0,0,1,55.331,9.8L49.924,7.362s-3.282-1.734-5.021,0c-1.912,1.907-.717,4.144,1.008,5.585a60.206,60.206,0,0,0-14.027,3.075s-0.239,1.25-.584,3.448c-0.182-1.145-.307-1.837-0.307-1.837a3.808,3.808,0,0,0-5.407-2.7,3.258,3.258,0,0,0-1.8,2.311,21.22,21.22,0,0,0,.515,4.237A68.932,68.932,0,0,1,25.458,32.27c0,4.751-1.8,14.637-1.8,14.637s-1.013,4.062,1.545,5.007a3.132,3.132,0,0,0,3.6-.782c0,4.335.165,8.821,0.562,13.3,2.144,24.144,8.952,33.2,8.952,33.2s0.141,0.06.406,0.167c-1.32,1.666-7.781,10.415-14.555,29.994,0,0-.644,3.21,1.03,4.366s17.522,9.327,26.519,10.143a33.64,33.64,0,0,0,11.972-1.413,57.03,57.03,0,0,1,9.4-1.155h2.832a57.026,57.026,0,0,1,9.4,1.155A33.64,33.64,0,0,0,97.286,142.3c9-.816,24.846-8.988,26.519-10.143s1.03-4.366,1.03-4.366C118.061,108.214,111.6,99.465,110.279,97.8Z"/>
  <path id="Shape_106_copy_6" data-name="Shape 106 copy 6" class="cls-1" d="M49.2,26.236a2.311,2.311,0,1,0-2.317-2.311A2.314,2.314,0,0,0,49.2,26.236Zm15.383,5.714a2.311,2.311,0,1,0-2.317-2.311A2.314,2.314,0,0,0,64.588,31.949ZM99.8,21.614a2.311,2.311,0,1,0,2.317,2.311A2.314,2.314,0,0,0,99.8,21.614ZM84.412,27.327a2.311,2.311,0,1,0,2.317,2.311A2.314,2.314,0,0,0,84.412,27.327ZM74.5,132.993a2.311,2.311,0,1,0,2.317,2.311A2.314,2.314,0,0,0,74.5,132.993Zm34.693-2.054a2.311,2.311,0,1,0,2.317,2.311A2.315,2.315,0,0,0,109.193,130.939Zm-69.386,0a2.311,2.311,0,1,0,2.317,2.311A2.315,2.315,0,0,0,39.807,130.939Z"/>
  <path id="Shape_106_copy_5" data-name="Shape 106 copy 5" class="cls-1" d="M126.355,127.269C120.14,109.3,114.2,100.358,112.07,97.492c1.755-2.924,6.727-12.776,8.516-32.932,0.329-3.7.489-7.395,0.543-11.015a4.526,4.526,0,0,0,1.345.228,5.435,5.435,0,0,0,1.884-.353c3.058-1.13,3.054-4.807,2.561-6.846-0.132-.735-1.768-9.916-1.768-14.3a64.156,64.156,0,0,1,1.134-10.508l0.067-.366a15.213,15.213,0,0,0,.446-4.441,4.884,4.884,0,0,0-2.7-3.471,5.725,5.725,0,0,0-4.941.114,5.1,5.1,0,0,0-1.656,1.359,59.894,59.894,0,0,0-11.669-2.7,5.349,5.349,0,0,0,.842-2.405,4.509,4.509,0,0,0-1.436-3.62c-2.017-2.013-5.239-1.152-6.864-.309L93,8.34a49.634,49.634,0,0,1-17.487,4.351h-2.01A49.592,49.592,0,0,1,55.994,8.339L50.63,5.919c-1.625-.843-4.848-1.7-6.864.309a4.51,4.51,0,0,0-1.436,3.62,5.355,5.355,0,0,0,.843,2.408,59.826,59.826,0,0,0-11.671,2.7A5.1,5.1,0,0,0,29.848,13.6a5.727,5.727,0,0,0-4.941-.114,4.883,4.883,0,0,0-2.7,3.471,15.15,15.15,0,0,0,.445,4.441l0.066,0.366A63.949,63.949,0,0,1,23.849,32.27c0,4.389-1.636,13.569-1.768,14.3-0.493,2.038-.5,5.716,2.561,6.846a5.437,5.437,0,0,0,1.884.353,4.522,4.522,0,0,0,1.341-.226c0.055,3.62.219,7.316,0.547,11.014C30.2,84.716,35.175,94.568,36.93,97.492c-2.132,2.866-8.07,11.811-14.285,29.777l-0.057.21c-0.087.434-.78,4.294,1.691,6,1.535,1.06,17.747,9.557,27.29,10.422,0.834,0.076,1.651.109,2.445,0.109a35.817,35.817,0,0,0,9.526-1.421c0.215-.057.4-0.107,0.537-0.142a56.249,56.249,0,0,1,9.007-1.107h2.832a56.235,56.235,0,0,1,9.007,1.107c0.142,0.035.322,0.085,0.538,0.143A33.808,33.808,0,0,0,97.432,143.9c9.543-.865,25.754-9.362,27.287-10.422,2.473-1.705,1.78-5.565,1.693-6ZM119.59,17.919a1.954,1.954,0,0,1,1.041-1.471,2.511,2.511,0,0,1,2.1-.056,1.636,1.636,0,0,1,.9,1.125,18.7,18.7,0,0,1-.443,3.3l-0.071.39a67.187,67.187,0,0,0-1.182,11.061c0,4.84,1.754,14.515,1.848,15.019,0.129,0.532.437,2.76-.541,3.12a1.6,1.6,0,0,1-1.334.029,3.356,3.356,0,0,1-1.355-1.761,51.318,51.318,0,0,1-2.61-13.383C117.693,28.49,119.571,18.024,119.59,17.919Zm-3.821,3.54a86.9,86.9,0,0,0-1.044,13.952,53.589,53.589,0,0,0,2.78,14.3,6.539,6.539,0,0,0,.422.975c0.008,4.436-.14,9.016-0.547,13.592-1.743,19.63-6.606,29.1-8.08,31.578a106.155,106.155,0,0,1-33.127,6.275V79.237c7.572,10.731,13.775,17.806,13.775,17.806l3.733-3.21C89.635,87.269,83.437,78.784,78,71.624c2.413-3.7,4.855-7.669,7.189-11.814a28.565,28.565,0,0,1,6.565.9s-0.129-4.622,1.8-7.96a18.121,18.121,0,0,1,4.12-5.007s5.793-4.237,9.783-21.827c0,0-10.427,4.109-16.22,13.995,0,0-1.931,3.338-2.832,4.622a27.971,27.971,0,0,1-8.5,6.676,12.9,12.9,0,0,1,2.446,5.906s-2.544,3.141-6.179,7.8V24.224c12.483-.213,22.732-6.372,26.623-9.069a60.824,60.824,0,0,1,12.374,2.4C115.329,18.519,115.538,19.842,115.769,21.459ZM46.042,8.5a1.3,1.3,0,0,1,.938-0.3,5.509,5.509,0,0,1,2.191.583l5.5,2.484A51.909,51.909,0,0,0,73.482,15.9h2.061a51.937,51.937,0,0,0,18.79-4.636l5.491-2.482c0.705-.365,2.473-0.946,3.134-0.286a1.347,1.347,0,0,1,.5,1.107,3.9,3.9,0,0,1-1.733,2.371c-2.905,2.126-13.383,9.061-26.21,9.061H73.482c-12.827,0-23.3-6.936-26.21-9.061A3.9,3.9,0,0,1,45.539,9.6,1.348,1.348,0,0,1,46.042,8.5ZM27.094,50.438a1.6,1.6,0,0,1-1.335-.029c-0.977-.36-0.669-2.588-0.542-3.114l0.021-.1c0.075-.41,1.828-10.085,1.828-14.924a67.035,67.035,0,0,0-1.182-11.062l-0.07-.389a19.616,19.616,0,0,1-.448-3.277,1.641,1.641,0,0,1,.9-1.151,2.327,2.327,0,0,1,.979-0.2,2.488,2.488,0,0,1,1.123.26,1.956,1.956,0,0,1,1.041,1.471c0.019,0.105,1.9,10.565,1.649,17.374a51.309,51.309,0,0,1-2.623,13.421A3.327,3.327,0,0,1,27.094,50.438Zm4.526,13.84c-0.406-4.573-.554-9.153-0.546-13.59a6.386,6.386,0,0,0,.4-0.928,53.631,53.631,0,0,0,2.8-14.349,86.831,86.831,0,0,0-1.044-13.945c0.231-1.618.44-2.945,0.6-3.907A60.818,60.818,0,0,1,46.2,15.151c3.887,2.7,14.14,8.86,26.628,9.073V64.915c-3.635-4.66-6.179-7.8-6.179-7.8a12.9,12.9,0,0,1,2.446-5.906,27.968,27.968,0,0,1-8.5-6.676c-0.9-1.284-2.832-4.622-2.832-4.622-5.793-9.886-16.22-13.995-16.22-13.995,3.991,17.59,9.784,21.827,9.784,21.827a18.122,18.122,0,0,1,4.119,5.007c1.931,3.338,1.8,7.96,1.8,7.96a28.566,28.566,0,0,1,6.565-.9C66.15,63.955,68.591,67.922,71,71.624c-5.441,7.16-11.64,15.645-15.685,22.21l3.733,3.21s6.2-7.075,13.774-17.806V102.13A106.162,106.162,0,0,1,39.7,95.856C38.212,93.352,33.36,83.88,31.62,64.277Zm8.011,34.981a110.018,110.018,0,0,0,33.325,6.083v0.048c0.52,0,1.032-.007,1.545-0.015,0.513,0.008,1.025.015,1.545,0.015v-0.048a110.023,110.023,0,0,0,33.324-6.083,64.4,64.4,0,0,1,4.822,7.784c-17.463,5.782-37.245,5.537-37.245,5.537H72.054s-19.783.245-37.245-5.537A64.491,64.491,0,0,1,39.631,99.258ZM72.054,126.7h4.892c18.022,0,30.943-2.2,38.207-3.881-2.449,2.275-6.841,5.23-14.2,6.963a42.737,42.737,0,0,1-16.735.642,49.032,49.032,0,0,0-9.011-.9H73.792a49.028,49.028,0,0,0-9.011.9,42.738,42.738,0,0,1-16.735-.642c-7.358-1.733-11.749-4.688-14.2-6.963C41.111,124.505,54.032,126.7,72.054,126.7Zm50.834,4.137c-1.4.965-16.954,9.068-25.748,9.865A30.933,30.933,0,0,1,86.3,139.492c-0.241-.065-0.442-0.12-0.6-0.16a58.574,58.574,0,0,0-9.788-1.2H73.084a58.6,58.6,0,0,0-9.789,1.2c-0.158.04-.359,0.095-0.6,0.159A30.933,30.933,0,0,1,51.861,140.7c-8.794-.8-24.351-8.9-25.749-9.865-0.473-.326-0.539-1.722-0.385-2.638,0.534-1.54,1.066-3,1.594-4.411a2.511,2.511,0,0,1,2.574-.426c0.9,0.257,2.189,1.284,4.763,3.338s8.11,4.622,17.121,6.291,13.774,0.257,16.349-.385a30.2,30.2,0,0,1,6.051-.642h0.644a30.2,30.2,0,0,1,6.05.642c2.575,0.642,7.338,2.054,16.349.385s14.547-4.237,17.122-6.291,3.862-3.081,4.763-3.338a2.509,2.509,0,0,1,2.573.426c0.528,1.407,1.06,2.871,1.594,4.411C123.427,129.121,123.361,130.513,122.888,130.839Z"/>
  <path id="Shape_106_copy_7" data-name="Shape 106 copy 7" class="cls-3" d="M92.108,47.687a0.389,0.389,0,0,0-.5.04l-8.5,8.6a0.386,0.386,0,0,0,.551.541l6.614-6.7L85.746,58.6a0.386,0.386,0,0,0,.68.364L92.219,48.18A0.385,0.385,0,0,0,92.108,47.687Zm-34.711.04a0.386,0.386,0,0,0-.616.453l5.793,10.785a0.386,0.386,0,0,0,.681-0.364l-4.526-8.427,6.614,6.7a0.386,0.386,0,0,0,.551-0.541Z"/>
  <path id="Shape_106_copy_8" data-name="Shape 106 copy 8" class="cls-3" d="M42.539,119.513q-1.03-.144-2.058-0.3l-0.4,1.473q-0.8-.12-1.594-0.246,1.166-3.561,2.333-7.132,0.69,0.1,1.381.2,1.176,3.91,2.353,7.808-0.807-.1-1.613-0.216Zm-1.73-1.508c0.465,0.068.931,0.136,1.4,0.2l-0.7-2.768Zm7.5,1.038-0.751-.087v2.736q-0.757-.088-1.512-0.183v-7.488q1.206,0.15,2.413.287a2.754,2.754,0,0,1,1.759.782,2.42,2.42,0,0,1,.621,1.738,1.934,1.934,0,0,1-1.087,1.974q0.657,1.6,1.314,3.2v0.072q-0.814-.084-1.628-0.172Q48.874,120.476,48.31,119.043ZM47.559,117.7c0.286,0.033.573,0.067,0.859,0.1a0.717,0.717,0,0,0,.68-0.224,1.2,1.2,0,0,0,.227-0.78,1.024,1.024,0,0,0-.88-1.225c-0.3-.033-0.59-0.068-0.885-0.1V117.7Zm7.093-2.77q0.709,2.769,1.419,5.534,0.707-2.65,1.414-5.307,0.991,0.073,1.983.138v7.488q-0.762-.049-1.523-0.1v-2.026q0.07-1.557.139-3.112-0.751,2.52-1.5,5.036c-0.344-.027-0.688-0.054-1.032-0.083q-0.751-2.635-1.5-5.277,0.07,1.567.139,3.135v2.026q-0.758-.067-1.516-0.139v-7.488Q53.661,114.842,54.652,114.926Zm8.414,8.06q-0.76-.038-1.519-0.08,0-3.744,0-7.488,0.759,0.042,1.519.08v7.488Zm5.25-1.764a0.958,0.958,0,0,0-.235-0.7,2.867,2.867,0,0,0-.856-0.512,4.135,4.135,0,0,1-1.629-1.057,2.077,2.077,0,0,1-.5-1.375,1.818,1.818,0,0,1,.675-1.493,2.5,2.5,0,0,1,1.714-.515,2.652,2.652,0,0,1,1.236.325,2.093,2.093,0,0,1,.835.84,2.486,2.486,0,0,1,.292,1.209q-0.758-.015-1.515-0.035a1.263,1.263,0,0,0-.225-0.806,0.814,0.814,0,0,0-.649-0.294,0.794,0.794,0,0,0-.62.214,0.849,0.849,0,0,0-.222.622,0.8,0.8,0,0,0,.248.567,2.934,2.934,0,0,0,.879.544,3.948,3.948,0,0,1,1.6,1.013,2.2,2.2,0,0,1,.5,1.477,1.887,1.887,0,0,1-.626,1.514,2.416,2.416,0,0,1-1.7.5,2.97,2.97,0,0,1-1.329-.343,2.363,2.363,0,0,1-.938-0.889,2.541,2.541,0,0,1-.339-1.325q0.762,0.032,1.525.058a1.462,1.462,0,0,0,.253.95,1.071,1.071,0,0,0,.827.32A0.7,0.7,0,0,0,68.316,121.222Zm10.459-1.232q-1.184.021-2.369,0.032v1.985q1.4-.012,2.8-0.04v1.254q-2.162.045-4.324,0.048v-7.488q2.157,0,4.314-.047v1.26q-1.4.029-2.793,0.04V118.8q1.184-.01,2.369-0.032v1.219Zm7.081-3.228q-0.93.047-1.861,0.084,0,3.114,0,6.228-0.762.032-1.525,0.058V116.9q-0.915.031-1.83,0.056V115.7q2.609-.07,5.216-0.2v1.26Zm8.464,2.6q-1.179.1-2.358,0.191v3.055q-0.759.057-1.518,0.11V115.23q2.081-.144,4.159-0.326v1.26q-1.32.115-2.642,0.216V118.3q1.179-.088,2.358-0.191v1.255Zm3.524,2.724q-0.757.076-1.515,0.149v-7.488q0.758-.072,1.515-0.149v7.488Zm2.063-.219v-7.488q0.992-.11,1.981-0.228a2.469,2.469,0,0,1,2.091.573,2.9,2.9,0,0,1,.794,2.18v1.214a3.673,3.673,0,0,1-.779,2.419,3.151,3.151,0,0,1-2.147,1.107Q100.878,121.76,99.907,121.867Zm1.513-6.4v4.973l0.453-.053a1.438,1.438,0,0,0,1.065-.528,2.582,2.582,0,0,0,.324-1.417v-1.3a2.463,2.463,0,0,0-.293-1.426,1.058,1.058,0,0,0-1-.313Zm8.663,1.8q-1.173.183-2.349,0.354v1.986q1.392-.2,2.78-0.422v1.255q-2.142.338-4.289,0.636v-7.488q2.142-.3,4.279-0.635v1.26q-1.385.219-2.77,0.42v1.77q1.176-.173,2.349-0.355v1.219Z"/>
  <path id="Shape_106_copy_9" data-name="Shape 106 copy 9" class="cls-3" d="M125.053,55.289a7.632,7.632,0,0,1-1.969.451c-0.086,3.174-.252,6.135-0.506,9-1.629,18.343-5.839,28.368-8.139,32.629a78.419,78.419,0,0,1,5.05,8.5c-0.637.19-1.31,0.37-1.976,0.537a69.165,69.165,0,0,0-5.443-8.911c1.755-2.924,6.727-12.776,8.516-32.932,0.329-3.7.489-7.395,0.543-11.015a4.526,4.526,0,0,0,1.345.228,5.435,5.435,0,0,0,1.884-.353c3.058-1.13,3.054-4.807,2.561-6.846-0.132-.735-1.768-9.916-1.768-14.3a64.156,64.156,0,0,1,1.134-10.508l0.067-.366a15.213,15.213,0,0,0,.446-4.441,4.884,4.884,0,0,0-2.7-3.471,5.576,5.576,0,0,0-2.342-.505,5.684,5.684,0,0,0-2.6.619,5.1,5.1,0,0,0-1.656,1.359,59.894,59.894,0,0,0-11.669-2.7,5.349,5.349,0,0,0,.842-2.405,4.509,4.509,0,0,0-1.436-3.62,4.425,4.425,0,0,0-3.229-1.235,8.306,8.306,0,0,0-3.635.926L93,8.34a49.634,49.634,0,0,1-17.487,4.351h-2.01A49.592,49.592,0,0,1,55.994,8.339L50.63,5.919A8.31,8.31,0,0,0,47,4.993a4.425,4.425,0,0,0-3.229,1.235,4.51,4.51,0,0,0-1.436,3.62,5.355,5.355,0,0,0,.843,2.408,59.826,59.826,0,0,0-11.671,2.7A5.1,5.1,0,0,0,29.848,13.6a5.7,5.7,0,0,0-2.6-.619,5.568,5.568,0,0,0-2.341.505,4.883,4.883,0,0,0-2.7,3.471,15.15,15.15,0,0,0,.445,4.441l0.066,0.366A63.949,63.949,0,0,1,23.849,32.27c0,4.389-1.636,13.569-1.768,14.3-0.493,2.038-.5,5.716,2.561,6.846a5.437,5.437,0,0,0,1.884.353,4.522,4.522,0,0,0,1.341-.226c0.055,3.62.219,7.316,0.547,11.014C30.2,84.716,35.175,94.568,36.93,97.492a69.388,69.388,0,0,0-5.482,8.985c-0.661-.163-1.333-0.34-1.98-0.527a78.76,78.76,0,0,1,5.093-8.584c-2.3-4.261-6.51-14.286-8.138-32.629-0.256-2.878-.423-5.839-0.509-9a7.621,7.621,0,0,1-1.966-.45c-3.8-1.4-4.659-5.582-3.825-9.122,0.154-.861,1.727-9.766,1.727-13.9a62.016,62.016,0,0,0-1.1-10.154l-0.066-.363a15.551,15.551,0,0,1-.444-5.164,6.909,6.909,0,0,1,3.825-4.913,7.6,7.6,0,0,1,3.186-.692,7.7,7.7,0,0,1,3.518.842,7.1,7.1,0,0,1,1.281.846,61,61,0,0,1,8.375-2.014A6.465,6.465,0,0,1,40.337,10a6.554,6.554,0,0,1,2.015-5.183A6.407,6.407,0,0,1,47,3,10.344,10.344,0,0,1,51.5,4.123l5.319,2.4A48.011,48.011,0,0,0,73.508,10.7h1.968a48.118,48.118,0,0,0,16.7-4.174l5.319-2.4A10.347,10.347,0,0,1,102.005,3a6.408,6.408,0,0,1,4.643,1.819A6.559,6.559,0,0,1,108.664,10q-0.025.328-.084,0.655a61.126,61.126,0,0,1,8.374,2.017,7.075,7.075,0,0,1,1.279-.845,7.692,7.692,0,0,1,3.519-.843,7.608,7.608,0,0,1,3.187.692,6.907,6.907,0,0,1,3.824,4.913,15.54,15.54,0,0,1-.444,5.162l-0.064.354a62.194,62.194,0,0,0-1.1,10.165c0,4.132,1.573,13.036,1.727,13.9C129.712,49.708,128.855,53.885,125.053,55.289ZM20.641,127.022l0.017-.063,0.057-.209,0.018-.066,0.023-.065c1.064-3.076,2.021-5.793,3.054-8.365a6.6,6.6,0,0,0,1.3,2.151c-0.844,2.158-1.6,4.365-2.466,6.864l-0.057.21c-0.087.434-.78,4.294,1.691,6,1.535,1.06,17.747,9.557,27.29,10.422,0.834,0.076,1.651.109,2.445,0.109a35.817,35.817,0,0,0,9.526-1.421c0.215-.057.4-0.107,0.537-0.142a56.249,56.249,0,0,1,9.007-1.107h2.832a56.235,56.235,0,0,1,9.007,1.107c0.142,0.035.322,0.085,0.538,0.143a35.818,35.818,0,0,0,9.519,1.421c0.8,0,1.614-.034,2.451-0.11,9.543-.865,25.754-9.362,27.287-10.422,2.473-1.705,1.78-5.565,1.693-6l-0.057-.21c-0.9-2.6-1.628-4.651-2.506-6.883a6.089,6.089,0,0,0,1.3-2.053c1.089,2.691,1.973,5.032,3.1,8.286l0.023,0.065,0.018,0.066,0.056,0.209,0.017,0.063,0.013,0.064c0.186,0.924.938,5.651-2.514,8.031-1.649,1.14-18.15,9.854-28.245,10.769-0.858.078-1.744,0.118-2.633,0.118a37.625,37.625,0,0,1-10.043-1.49l-0.113-.031c-0.149-.04-0.276-0.075-0.385-0.1a54.3,54.3,0,0,0-8.522-1.048H73.084a54.359,54.359,0,0,0-8.524,1.048c-0.09.022-.2,0.052-0.321,0.085l-0.174.047A37.6,37.6,0,0,1,54.014,146c-0.888,0-1.771-.039-2.626-0.117-10.09-.914-26.6-9.628-28.246-10.768-3.452-2.382-2.7-7.108-2.514-8.032Z"/>
</svg>
