<svg id="_5_ranger_battalion" data-name="5_ranger_battalion" xmlns="http://www.w3.org/2000/svg" width="150" height="150" viewBox="0 0 150 150">
  <defs>
    <style>
      .cls-1 {
        fill: #275cbd;
      }

      .cls-1, .cls-2 {
        fill-rule: evenodd;
      }

      .cls-2 {
        fill: #ffb431;
      }
    </style>
  </defs>
  <path class="cls-1" d="M6.185,75L75,37.905,143.815,75,75,112.1Z"/>
  <path class="cls-2" d="M29.573,82.107H26.065V67.874H31.42c3.526,0,5.187,1.171,5.187,3.924a3.481,3.481,0,0,1-2.612,3.651c1.045,0.254,1.735,1.113,2.444,2.616l1.9,4.041H34.61l-1.66-3.534c-0.634-1.347-1.175-1.855-2.388-1.855H29.573v5.389ZM33.1,72.345c0-1.328-.616-1.816-2.052-1.816H29.573V74.18h1.474C32.484,74.18,33.1,73.672,33.1,72.345ZM43.526,79.51l-0.858,2.6H39.141l5.038-14.233h4.179L53.4,82.107H49.869l-0.858-2.6H43.526Zm4.608-2.636-1.866-5.662L44.4,76.874h3.731Zm10.739-9,4.944,9.762V67.874h3.321V82.107H63.22l-4.944-9.762v9.762H54.955V67.874h3.918ZM77.407,82.38c-4.552,0-7.37-2.851-7.37-7.38,0-4.549,2.836-7.38,7.556-7.38a11.379,11.379,0,0,1,4.944,1.054v2.948a8.748,8.748,0,0,0-4.515-1.347c-2.8,0-4.366,1.7-4.366,4.725s1.53,4.725,4.2,4.725a5.24,5.24,0,0,0,1.866-.293V76.66H77.575V74.2h5.467v6.853A12.322,12.322,0,0,1,77.407,82.38ZM95.514,67.874v2.772H89.562V73.3h5.6v2.772h-5.6v3.261h6.157v2.772H86.055V67.874h9.459Zm6.874,14.233H98.881V67.874h5.355c3.526,0,5.186,1.171,5.186,3.924a3.481,3.481,0,0,1-2.612,3.651c1.045,0.254,1.735,1.113,2.444,2.616l1.9,4.041h-3.731l-1.661-3.534c-0.634-1.347-1.175-1.855-2.388-1.855h-0.989v5.389Zm3.527-9.762c0-1.328-.616-1.816-2.053-1.816h-1.474V74.18h1.474C105.3,74.18,105.915,73.672,105.915,72.345Zm16.791-1.015a10.165,10.165,0,0,0-4.2-1.054c-1.661,0-2.463.469-2.463,1.484,0,0.84.6,1.171,1.885,1.445l1.492,0.312c2.892,0.605,4.179,1.718,4.179,4.217,0,3.143-1.753,4.647-5.41,4.647a14.249,14.249,0,0,1-5.206-1.015v-3.1a10.019,10.019,0,0,0,4.87,1.464c1.548,0,2.369-.566,2.369-1.542,0-1.054-.69-1.367-2.071-1.679l-1.362-.312c-2.667-.605-3.917-1.855-3.917-4.159,0-2.831,1.791-4.412,5.074-4.412a17.619,17.619,0,0,1,4.758.7V71.33Z"/>
  <path class="cls-2" d="M75,40.34L139.3,75,75,109.66,10.7,75,75,40.34m0-4.869L1.669,75,75,114.529,148.331,75,75,35.471h0Z"/>
</svg>
