<svg id="_66_armored_regiment" data-name="66_armored_regiment" xmlns="http://www.w3.org/2000/svg" width="150" height="150" viewBox="0 0 150 150">
  <defs>
    <style>
      .cls-1 {
        fill: #ffcd48;
      }

      .cls-1, .cls-2, .cls-3, .cls-4, .cls-5 {
        fill-rule: evenodd;
      }

      .cls-2 {
        fill: #d64242;
      }

      .cls-3 {
        fill: #3049a6;
      }

      .cls-4 {
        fill: silver;
      }

      .cls-5 {
        fill: #4a4a4a;
      }
    </style>
  </defs>
  <path class="cls-1" d="M76.838,2.569c-0.931,0-1.465.025-1.465,0.025H74.627s-0.533-.025-1.465-0.025c-3.626,0-13.287.38-21.028,4.1-7.87,3.781-13.259,6.24-17.773,6.24a10.861,10.861,0,0,1-3.075-.427s2.906-1.011,2.021-4.929a2.927,2.927,0,0,0-3.074-2.511,4.756,4.756,0,0,0-2.991,1L10.172,30.93s16,19.06,15.3,40.434a98.3,98.3,0,0,1-10.615,40.814l-0.252.632s6.7,17.942,28.81,18.195c0,0,10.235,16.427,31.211,16.427h0.746c20.976,0,31.211-16.427,31.211-16.427,22.113-.253,28.809-18.195,28.809-18.195l-0.252-.632a98.29,98.29,0,0,1-10.614-40.814c-0.7-21.374,15.3-40.434,15.3-40.434L122.757,6.037a4.754,4.754,0,0,0-2.991-1,2.928,2.928,0,0,0-3.074,2.511c-0.884,3.918,2.022,4.929,2.022,4.929a10.854,10.854,0,0,1-3.075.427c-4.515,0-9.905-2.459-17.774-6.24-7.741-3.72-17.4-4.1-21.027-4.1"/>
  <path class="cls-2" d="M65.762,5.134c-11.757,0-15.16,6.24-24.739,8.45a29.129,29.129,0,0,1-6.557.782c-5.7,0-8.795-1.919-8.795-1.919L12.4,30.738A82.105,82.105,0,0,1,26.049,60.59c4.359,18.291-7.96,49.943-7.96,49.943L73.054,71.677V11.594L66.8,5.15q-0.53-.016-1.037-0.016"/>
  <path id="Shape_11_copy" data-name="Shape 11 copy" class="cls-3" d="M84.4,5.134q-0.508,0-1.037.016l-6.255,6.444V71.677l54.967,38.856s-12.32-31.653-7.961-49.943a82.109,82.109,0,0,1,13.646-29.852L124.5,12.448s-3.092,1.919-8.8,1.919a29.12,29.12,0,0,1-6.557-.782c-9.58-2.211-12.983-8.45-24.74-8.45"/>
  <path class="cls-3" d="M55,76.427c-12.558-6.281-13.781-13.62-13.857-14.193V25.24H68.857v37C68.79,62.755,67.6,70.124,55,76.427Z"/>
  <path class="cls-1" d="M55.066,23.942H39.9v38.3s0.628,8.466,15.033,15.479h0.133C69.471,70.712,70.1,62.246,70.1,62.246v-38.3H55.066Zm-0.133,2.485H67.318L55,47.031l-12.319-20.6H54.933ZM43.792,65.474a10.328,10.328,0,0,1-1.407-3.385V31.018L53.558,49.4ZM55,74.978a30.482,30.482,0,0,1-9.649-7.326L55,51.775l9.649,15.877A30.481,30.481,0,0,1,55,74.978ZM67.615,62.089a10.323,10.323,0,0,1-1.406,3.385L56.442,49.4,67.615,31.018V62.089Zm-14.026-.245s-3.476.48-2.318,4.183c0,0,1.837-1.441,2.459-1.159s0.48,1.583.48,1.583a2.246,2.246,0,0,0-.9,0c-0.339.113-.169,0.933,0.933,1.243a0.882,0.882,0,0,1-.085.735c-0.226.4-.989,0.367-1.3-0.4a2.1,2.1,0,0,0,.085,1.555,1.138,1.138,0,0,0,1.357.226s-0.085,1.47.593,1.47h0.272c0.678,0,.593-1.47.593-1.47a1.138,1.138,0,0,0,1.357-.226,2.093,2.093,0,0,0,.085-1.555c-0.311.763-1.074,0.791-1.3,0.4a0.882,0.882,0,0,1-.085-0.735c1.1-.311,1.272-1.13.933-1.243a2.244,2.244,0,0,0-.9,0s-0.141-1.3.48-1.583,2.459,1.159,2.459,1.159c1.159-3.7-2.318-4.183-2.318-4.183a7.5,7.5,0,0,0-1.385-3.928h-0.1A7.483,7.483,0,0,0,53.589,61.844Zm5.643-10.459s1.837-1.441,2.459-1.159,0.48,1.583.48,1.583a2.244,2.244,0,0,0-.9,0c-0.339.113-.17,0.933,0.933,1.244a0.881,0.881,0,0,1-.085.735c-0.226.4-.989,0.367-1.3-0.4a2.1,2.1,0,0,0,.085,1.554,1.138,1.138,0,0,0,1.357.226s-0.085,1.47.593,1.47h0.272c0.678,0,.593-1.47.593-1.47a1.137,1.137,0,0,0,1.356-.226,2.094,2.094,0,0,0,.085-1.554c-0.311.763-1.074,0.791-1.3,0.4a0.881,0.881,0,0,1-.085-0.735c1.1-.311,1.272-1.131.933-1.244a2.244,2.244,0,0,0-.9,0s-0.141-1.3.481-1.583,2.459,1.159,2.459,1.159c1.159-3.7-2.318-4.183-2.318-4.183a7.5,7.5,0,0,0-1.385-3.929h-0.1A7.486,7.486,0,0,0,61.549,47.2S58.073,47.682,59.231,51.385ZM48.075,50.226c0.622-.283,2.459,1.159,2.459,1.159,1.159-3.7-2.317-4.183-2.317-4.183a7.5,7.5,0,0,0-1.385-3.929h-0.1A7.483,7.483,0,0,0,45.344,47.2s-3.476.48-2.318,4.183c0,0,1.837-1.441,2.459-1.159s0.48,1.583.48,1.583a2.245,2.245,0,0,0-.9,0c-0.339.113-.169,0.933,0.933,1.244a0.882,0.882,0,0,1-.085.735c-0.226.4-.989,0.367-1.3-0.4a2.094,2.094,0,0,0,.085,1.554,1.137,1.137,0,0,0,1.357.226s-0.085,1.47.593,1.47h0.272c0.678,0,.593-1.47.593-1.47a1.137,1.137,0,0,0,1.357-.226,2.094,2.094,0,0,0,.085-1.554c-0.311.763-1.074,0.791-1.3,0.4a0.882,0.882,0,0,1-.085-0.735c1.1-.311,1.272-1.131.933-1.244a2.245,2.245,0,0,0-.9,0S47.453,50.509,48.075,50.226Z"/>
  <path class="cls-4" d="M134.578,29.93H15.422L22.5,41.049h8.178V61.9h8.4V41.049H70.8V61.9h8.4V41.049h31.553V61.9h8.4V41.049H127.5l7.076-11.119m0,0h0"/>
  <path class="cls-5" d="M134.714,30.194L127.163,35l0.756,5.7a0.621,0.621,0,0,1-.534.7,0.77,0.77,0,0,1-.083,0,0.62,0.62,0,0,1-.614-0.539L125.962,35.4h-9.978V56.928l3.429,4.282a0.661,0.661,0,0,1-1.032.826l-2.9-3.627-2.815,3.619a0.66,0.66,0,1,1-1.043-.811l3.131-4.025c0-.014-0.008-0.026-0.008-0.039V35.4H75.917V57.05l3.332,4.16a0.661,0.661,0,1,1-1.031.826l-2.9-3.627L72.5,62.028a0.66,0.66,0,1,1-1.043-.811l3.221-4.14V35.4H35.3V57.047l3.334,4.163a0.661,0.661,0,1,1-1.031.826l-2.9-3.627-2.815,3.619a0.66,0.66,0,1,1-1.043-.811l3.218-4.137V35.4H24.038l-0.726,5.473a0.62,0.62,0,0,1-.615.539,0.768,0.768,0,0,1-.083,0,0.622,0.622,0,0,1-.534-0.7L22.837,35l-7.55-4.811a0.622,0.622,0,0,1,.668-1.049l7.866,5.012H126.18l7.866-5.012A0.622,0.622,0,0,1,134.714,30.194Z"/>
  <path class="cls-1" d="M74.539,6.321h0.922l0.084,0S76.015,6.3,76.812,6.3a9.308,9.308,0,0,0-1.551,6.817c0.419,3.952,3.1,5.714,5.664,5.714a5.415,5.415,0,0,0,2.613-.66c2.969-1.643,2.717-5.875.38-7.2a4.534,4.534,0,0,0-2.253-.643,3.236,3.236,0,0,0-1.728.454,3.476,3.476,0,0,1,.948-2.4,7.389,7.389,0,0,1,4.558-1.441,45.851,45.851,0,0,1,5.871,1.255c4.91,2.318,7.071,8.653,7.071,8.653A6.156,6.156,0,0,0,98.2,9.133a13.084,13.084,0,0,1,5.243,4.422c2.642,4.595,5.98,5.5,8.2,5.5a7.188,7.188,0,0,0,2.414-.382,7.781,7.781,0,0,1-4.316-2.967,21.26,21.26,0,0,0,5.9.93,14.683,14.683,0,0,0,4.124-.577l4.455-1.3,11,16.041c-4.329,5.87-15.014,22.3-14.415,40.689a102.655,102.655,0,0,0,10.479,41.367c-1.958,3.821-8.758,14.243-24.739,14.426l-2.031.034-1.083,1.711A34.6,34.6,0,0,1,75.374,143.7H74.627a34.594,34.594,0,0,1-28.046-14.671L45.5,127.3l-2.042-.023c-15.993-.183-22.791-10.621-24.74-14.424A102.646,102.646,0,0,0,29.2,71.486C29.8,53.094,19.112,36.667,14.785,30.8l11-16.041,4.455,1.3a14.68,14.68,0,0,0,4.124.577,21.235,21.235,0,0,0,5.9-.93,7.779,7.779,0,0,1-4.316,2.967,7.191,7.191,0,0,0,2.413.382c2.22,0,5.559-.905,8.2-5.5a13.448,13.448,0,0,1,4.8-4.226,6.205,6.205,0,0,0-.475,1.311,5.85,5.85,0,0,0,.728,6.2s2.161-6.335,7.072-8.653a45.8,45.8,0,0,1,5.87-1.255,7.389,7.389,0,0,1,4.558,1.441,3.478,3.478,0,0,1,.948,2.4,3.238,3.238,0,0,0-1.727-.454,4.531,4.531,0,0,0-2.253.643c-2.337,1.327-2.591,5.559.379,7.2a5.419,5.419,0,0,0,2.613.66c2.568,0,5.245-1.761,5.663-5.714A9.315,9.315,0,0,0,73.189,6.3c0.8,0,1.262.022,1.264,0.022l0.087,0m2.3-3.753c-0.931,0-1.463.026-1.463,0.026H74.627s-0.532-.026-1.463-0.026c-3.626,0-13.287.38-21.029,4.1-7.868,3.781-13.258,6.239-17.772,6.239a10.867,10.867,0,0,1-3.077-.426s2.906-1.011,2.022-4.929a2.927,2.927,0,0,0-3.073-2.512,4.752,4.752,0,0,0-2.992,1L10.173,30.93s16,19.06,15.3,40.434a98.289,98.289,0,0,1-10.614,40.813l-0.252.631s6.7,17.943,28.81,18.2c0,0,10.235,16.427,31.21,16.427h0.747c20.976,0,31.21-16.427,31.21-16.427,22.113-.253,28.809-18.2,28.809-18.2l-0.252-.631a98.289,98.289,0,0,1-10.614-40.813c-0.7-21.374,15.3-40.434,15.3-40.434L122.758,6.037a4.755,4.755,0,0,0-2.992-1,2.929,2.929,0,0,0-3.074,2.512c-0.884,3.918,2.022,4.929,2.022,4.929a10.866,10.866,0,0,1-3.077.426c-4.514,0-9.9-2.458-17.772-6.239-7.742-3.721-17.4-4.1-21.029-4.1"/>
</svg>
