<svg xmlns="http://www.w3.org/2000/svg" width="150" height="150" viewBox="0 0 150 150">
  <defs>
    <style>
      .cls-1 {
        fill: #2f2c7b;
      }

      .cls-2 {
        fill: #666;
      }

      .cls-3 {
        fill: #e6e7e8;
      }

      .cls-4 {
        fill: #fcd421;
      }

      .cls-5 {
        fill: #999;
        stroke: #e6e7e8;
        stroke-miterlimit: 10;
        stroke-width: 1.54927px;
      }

      .cls-6 {
        fill: #f15a24;
      }

      .cls-7 {
        fill: #538440;
      }

      .cls-8 {
        fill: #e09d00;
      }
    </style>
  </defs>
  <g id="Layer_5" data-name="Layer 5">
    <g>
      <g>
        <path class="cls-1" d="M74.62152,146.93139a.77223.77223,0,0,1-.67481-.39454,15.77948,15.77948,0,0,0-8.77539-7.10253,12.97257,12.97257,0,0,0-4.23633-.6875H27.562A14.96181,14.96181,0,0,1,12.61664,123.8015V3.8435a.77437.77437,0,0,1,.77441-.77442H136.60882a.77437.77437,0,0,1,.77442.77442v119.958a14.96181,14.96181,0,0,1-14.94532,14.94532H89.06585a12.98273,12.98273,0,0,0-4.2373.6875,15.77475,15.77475,0,0,0-8.77441,7.10253.77224.77224,0,0,1-.67481.39454Z"/>
        <path class="cls-2" d="M136.60858,3.84307V123.802a14.17063,14.17063,0,0,1-14.17066,14.17072H89.06537a13.76964,13.76964,0,0,0-4.489.729,16.59476,16.59476,0,0,0-9.19751,7.4552h-.75769a16.59476,16.59476,0,0,0-9.19751-7.4552,13.76954,13.76954,0,0,0-4.489-.729H27.56207A14.17074,14.17074,0,0,1,13.39129,123.802V3.84307H136.60858m0-1.54926H13.39129A1.54932,1.54932,0,0,0,11.842,3.84307V123.802a15.73783,15.73783,0,0,0,15.72009,15.72H60.93463a12.20338,12.20338,0,0,1,3.98437.64453,15.0113,15.0113,0,0,1,8.35181,6.74994,1.54931,1.54931,0,0,0,1.35034.78974h.75769a1.54931,1.54931,0,0,0,1.35034-.78974,15.01136,15.01136,0,0,1,8.35181-6.74994,12.20344,12.20344,0,0,1,3.98438-.64453h33.37255a15.73781,15.73781,0,0,0,15.72-15.72V3.84307a1.54925,1.54925,0,0,0-1.54932-1.54926Z"/>
      </g>
      <polygon class="cls-3" points="91.52 20.515 80.532 20.515 80.532 9.526 69.468 9.526 69.468 20.515 58.48 20.515 58.48 31.578 69.468 31.578 69.468 42.566 80.532 42.566 80.532 31.578 91.52 31.578 91.52 20.515"/>
      <path class="cls-4" d="M81.47243,43.50657H68.52757V32.51871H57.53971V19.5746H68.52757V8.586H81.47243V19.5746H92.46029V32.51871H81.47243ZM70.40817,41.626h9.18366V30.6381H90.57968V21.45521H79.59183V10.46659H70.40817V21.45521H59.42032V30.6381H70.40817Z"/>
      <g>
        <polygon class="cls-5" points="127.894 72.774 127.894 79.319 119.255 72.651 119.255 65.931 108.494 57.408 108.494 64.315 99.856 57.647 99.856 50.565 89.853 42.642 89.853 75.379 135.775 111.601 135.775 79.016 127.894 72.774"/>
        <polygon class="cls-5" points="22.106 72.774 22.106 79.319 30.745 72.651 30.745 65.931 41.506 57.408 41.506 64.315 50.144 57.647 50.144 50.565 60.147 42.642 60.147 75.379 14.225 111.601 14.225 79.016 22.106 72.774"/>
      </g>
      <path class="cls-4" d="M99.73783,114.3295c-.65681-3.63734-3.08171-6.87072-4.14267-8.53781s-2.22291-5.5066-1.91975-6.719c.30316-1.21254.65681-2.52607,1.5156-2.07143a8.16639,8.16639,0,0,1,1.81877,1.56619s.25247-3.13229-.15168-3.68793c-.40415-.55572-2.77854.65672-2.77854.65672s.15158-2.82913-.25257-3.23328a2.10906,2.10906,0,0,1-.70731-1.06087,8.37364,8.37364,0,0,0,.15158-2.77864c-.25267-1.06087-1.162,1.97034-1.71768,1.76827-.55573-.20217-1.31353-2.3239-1.51551-3.08171-.20217-.7578-1.36412,2.72805-.55583,3.68793s2.72806,2.07134,3.03122,2.67746c.30315.60632-.20208,1.91976-.20208,1.91976s-.65672-1.31344-1.71768-.90929-1.5156,1.46511-.70731,2.87963c0,0,.10109-.95987,1.21254-.60622a2.6464,2.6464,0,0,1,1.465,1.76817,8.22614,8.22614,0,0,0,.20217,4.95087,24.84928,24.84928,0,0,0,2.77855,5.10246c.101.25266-.40415,1.01046-.70731.7073-.30316-.30306-2.07124-1.86926-2.12183-2.829a4.03085,4.03085,0,0,0,.40415,3.1827c.50107.84394.68433,1.13519.74617,1.22266a1.50047,1.50047,0,0,0-.34193,1.657c.35356,1.11146,1.11136.7578,1.11136.7578s-.7578-1.01037.25257-1.5156a2.02372,2.02372,0,0,1,2.72806,1.01037c.50523,1.061.60631,3.789-.45465,4.09217-.93217.26628-2.80067,1.19155-5.26207-2.6299a4.48766,4.48766,0,0,0-.39611-1.56326c-1.11145-2.4249-7.93158-12.731-7.93158-12.731,2.02074.55572,1.97025-1.21245,1.97025-1.21245-1.81877-.20208-1.364-2.57657-1.364-2.57657s.7578-.101,1.41452-1.36393a5.33714,5.33714,0,0,0,.40415-2.87973c2.425.70731,2.07133-1.21244,2.07133-1.21244-1.51551.30316-.85888-1.6166-.85888-1.6166.7073-.101,1.31362-3.03121,1.31362-3.03121a3.91479,3.91479,0,0,1-1.061.30316c-.65681.101-.40415-.60622-.40415-.60622.90929-.55573.65681-3.08171.65681-3.08171l-1.5156.35356s-1.31363-1.162-.50523-1.81858c.80829-.65681,1.16195-3.63752,1.16195-3.63752s-1.5661.85888-1.76818.90947c-.20217.0505-.8083-.70731-.8083-.70731a3.39169,3.39169,0,0,0-.45473-3.63743,3.03589,3.03589,0,0,1-1.21245,1.5661c.40415-.90938-.7578-3.03112-.7578-2.82914,0,.20217-1.11137,2.52608-1.11137,2.52608s-1.162-.75781-2.17241-1.31363c-1.01038-.55563-1.6166.8083-1.6166.8083a5.59225,5.59225,0,0,0-2.62706.40424c-1.11146.55573-.40415.75771-.30316,1.66719.10108.90928-.8083-.65682-1.01028-.45474-.20217.20207-1.31362,0-2.07143.40415a12.85219,12.85219,0,0,0-2.27331,2.47548,10.17815,10.17815,0,0,0,.25257,1.16195c.10108.25267.7578.60622,2.3744.50514a2.2616,2.2616,0,0,1,2.425,1.76827c.10108.60622-2.3744.35365-2.98063.35365-.60631,0-1.11145.40415-1.162,1.263a2.992,2.992,0,0,0,.40415,1.97024c.25257.15158.95978-1.061,1.26294-1.26294a14.12514,14.12514,0,0,1,2.87963-.15158,1.88985,1.88985,0,0,1,1.11146,1.263c.0505.60613-.30306,1.5661-2.02084,1.6166-1.71758.05049-1.81867-.65682-1.81867-.65682a2.38734,2.38734,0,0,0-.40415,2.32391,4.50846,4.50846,0,0,1-5.00146-.60613A54.09933,54.09933,0,0,1,61.747,84.32093a4.91987,4.91987,0,0,1,1.5156-1.11146c.65672-.20217-.30306-3.53635-.60622-2.77864-.30316.7578-1.86926.65672-1.86926.65672s-.8083-.8083-1.6166-.45464-.40415,1.61659-.40415,1.61659a4.15058,4.15058,0,0,0-1.71768.25267c-.45473.30315.65672,1.97025.65672,1.97025s1.21245.7073,1.11146.95987-1.97025.70722-2.12183,1.01037,1.51561,1.66719,2.17232,1.41462a1.58,1.58,0,0,1,1.5661-.05049c.60632.30306-.80829,1.61659-.80829,1.61659s2.02074.35365,2.2734.70731c.25267.35356-.7073.85879-.7073.85879s1.01046-.05049,2.02084,1.51561a10.6859,10.6859,0,0,0,3.63743,2.829,14.86269,14.86269,0,0,1-7.578.40415c-.50514-.20208-3.63734-2.3744-3.63734-2.3744a9.90408,9.90408,0,0,1,.8588-1.061c.20207-.15149-.0505-1.6166-.65682-1.76808-.60613-.15168-1.41442.8083-1.41442.8083s-1.21254-.8083-1.97035-.35366c-.75771.45464-.40415,1.41452-.05049,1.76818.35365.35356.40415.7577.25257.80829-.15149.05059-1.91976-.20207-2.27341.20208s.15167,1.76817.15167,1.76817l1.71759.65672a2.491,2.491,0,0,0-1.21245.30316c-.40415.30316.50514,1.97025.50514,1.97025a1.60793,1.60793,0,0,0,1.46511.20217c.95988-.25267.60622-1.21254.60622-1.46511,0-.25267,1.11146-.20217,1.11146-.20217a14.04071,14.04071,0,0,0,1.364,2.27341c.60622.70731,2.67755,1.263,2.87963,1.5661a3.19167,3.19167,0,0,1,.15158,1.263c1.162.55573,3.73842-.60622,3.58684-.25257a9.75907,9.75907,0,0,0,.101,2.22292s1.21254-1.51561,1.46511-1.71778c.25267-.202,2.425-.30306,2.52608.20217.101.50514-.55583,1.41443-.55583,1.41443A4.72891,4.72891,0,0,0,70.79,101.39655c.50514,2.02075,4.7488,4.24366,7.72951,5.355a18.36243,18.36243,0,0,1,5.45611,3.48586s-1.21245,1.01037-2.07124.80839a21.08955,21.08955,0,0,1-4.79948-2.42508c-2.52589-1.51552-3.9405-.65663-3.9405-.65663l-.35366-1.5661a1.91539,1.91539,0,0,0-1.31343,2.27331,9.11015,9.11015,0,0,0-1.263.60623c-.70721.40415-.8083,1.46511-.65672,1.364a4.82448,4.82448,0,0,1,1.21245,0,11.11482,11.11482,0,0,0-.20208,5.30453c-3.43536,2.425-8.08316.55582-8.38623.40415-.30316-.15149.15149-1.162.75781-1.5661.60613-.40415.30306-1.91976-.45474-2.52589-.7578-.60631-1.81867.15149-1.81867,1.06087s-.55573,1.01037-.70731-.05059c-.15148-1.06077-.90929-1.41442-1.61659-1.162-.70731.25266-.90939,1.46511-.90939,1.91975,0,.45474.60623,1.31363.20208,1.21255s-.55573-.85889-1.061-.8084a3.47341,3.47341,0,0,0-1.76808,2.12193c-.15168.80829,1.5156,1.26294,1.5156,1.26294a1.89756,1.89756,0,0,0-.50533,1.01047c-.15148.70721,2.82923,2.829,2.82923,2.829s.95979-1.81877,1.21245-2.32391c.25257-.50513,1.81867.20208,1.81867.20208s.10108.85889.15158,1.364,1.26294.30316,1.5661.101c.30316-.202,7.0727.75781,7.0727.75781.50523.80829,2.17242,1.01046,2.17242,1.01046a5.27483,5.27483,0,0,1,.65672-2.22291s.60622,0,1.465-2.3239c.85889-2.32391,6.41608-3.63734,6.71914-3.53635.30316.101,1.71768.95987,1.71768.95987s-4.14266,1.66719-5.5066,3.03112c-1.36412,1.36412-.55572,3.28388-.40415,4.49632a2.15,2.15,0,0,1-1.11145,1.91976c1.061.90928,2.62706-.45465,2.62706-.45465a6.57308,6.57308,0,0,0,3.43527,2.02075c-.90939,1.97025-5.5067,3.9405-5.5067,3.9405a4.55114,4.55114,0,0,0-.95978-1.5661c-.70731-.75781-2.22291-.25257-2.47548-.15149-.25257.101-.30307,1.6166-.30307,1.6166s-.30316-.25267-1.061.202c-.7578.45473-.30316,2.12192-.30316,2.12192A5.63373,5.63373,0,0,0,71.952,134.891c.35365.7578,2.47539.90938,2.47539.90938.7578,1.263,2.72815,1.11146,2.72815,1.11146s.05049-2.22282.95987-2.72815c.90929-.50514,8.23465-2.12173,8.99246-2.728a2.26958,2.26958,0,0,0,.85879-1.31344c3.03121-.50514,2.57657-1.26294,2.57657-1.26294a11.27011,11.27011,0,0,1-1.66709-.60632,1.98894,1.98894,0,0,0,.60612-2.3239,2.03667,2.03667,0,0,0,1.97025-2.62706,2.44662,2.44662,0,0,1-1.465.60632,4.50984,4.50984,0,0,1-2.77864-2.27341c-.35356-.90929.96-1.41462,2.52607-2.67756a6.13623,6.13623,0,0,0,1.59031-2.00089,6.86323,6.86323,0,0,0,3.15849,2.10188A4.05194,4.05194,0,0,0,99.73783,114.3295Z"/>
      <path class="cls-6" d="M65.18234,80.60768a1.39709,1.39709,0,0,0,.53046,1.51559,3.73535,3.73535,0,0,0,2.72806.60623c.30312-.15155,4.54676-.15155,4.54676-.15155l-.60623-.7578s-4.54677.90935-5.5319.07578a5.15919,5.15919,0,0,1-1.364-1.74293Z"/>
      <path class="cls-7" d="M75.00038,36.22608A10.14174,10.14174,0,1,1,85.14173,26.08472,10.15309,10.15309,0,0,1,75.00038,36.22608Zm0-17.95957a7.81784,7.81784,0,1,0,7.81745,7.81821A7.82681,7.82681,0,0,0,75.00038,18.26651Z"/>
      <g>
        <path class="cls-8" d="M72.53809,24.69468H70.96545l.04033-1.16939a2.32688,2.32688,0,0,1,.59142-1.45166,2.31329,2.31329,0,0,1,1.68016-.3898,1.76286,1.76286,0,0,1,1.51887,1.6264,4.07887,4.07887,0,0,1-.69895,2.78235s-1.02154,1.33069-1.12907,1.53231a.88191.88191,0,0,0-.10753.37636h1.97587v1.492H70.91169a8.3822,8.3822,0,0,1,.28227-1.707,7.51738,7.51738,0,0,1,1.3038-2.13717,3.26516,3.26516,0,0,0,.72584-1.31725,3.65552,3.65552,0,0,0-.05377-1.10219.35229.35229,0,0,0-.53765.02688A4.32191,4.32191,0,0,0,72.53809,24.69468Z"/>
        <path class="cls-8" d="M76.81243,23.98229H75.29356a3.97978,3.97978,0,0,1,.16129-1.31724,1.31969,1.31969,0,0,1,.98122-.9409,5.94707,5.94707,0,0,1,1.38446,0,1.40913,1.40913,0,0,1,1.12907,1.10219,7.1025,7.1025,0,0,1,.04032,1.92211.48084.48084,0,0,1-.28227.44356.64479.64479,0,0,1,.3226.43013,19.04432,19.04432,0,0,1,.05376,2.04308,1.77762,1.77762,0,0,1-1.20972,1.80113,1.94316,1.94316,0,0,1-2.37911-.71239,6.2361,6.2361,0,0,1-.2285-2.2447l1.50542-.01344.01344,1.156s-.04032.48388.34948.49732.34947-.55109.34947-.55109l-.05376-1.30381a.41145.41145,0,0,0-.41668-.3898,7.19761,7.19761,0,0,0-.81992-.02688V24.6006l.88712-.06721s.336.04032.34948-.44356a4.16184,4.16184,0,0,0-.04033-.7796.20482.20482,0,0,0-.21506-.1613C76.98716,23.14893,76.799,23.18926,76.81243,23.98229Z"/>
      </g>
      <g>
        <path class="cls-7" d="M81.83635,33.92752c-1.81867-.30316-4.39515-2.80389-6.59272-1.59135a1.71241,1.71241,0,0,0-.24358.17012,1.724,1.724,0,0,0-.24359-.17012c-2.19757-1.21254-4.77414,1.28819-6.5929,1.59135a2.15213,2.15213,0,0,1-2.4249-1.21245s.60632,3.86466,2.27341,3.63734,3.48586-2.42489,4.471-2.19757,2.4249,4.16782,2.4249,4.16782.03593-.08416.0921-.2294c.05617.14524.092.2294.092.2294s1.43977-3.9405,2.425-4.16782c.98513-.22732,2.8038,1.97025,4.471,2.19757,1.66709.22732,2.27332-3.63734,2.27332-3.63734A2.1521,2.1521,0,0,1,81.83635,33.92752Z"/>
        <path class="cls-4" d="M75.09222,38.7096a.37145.37145,0,0,1-.0923-.01135.44333.44333,0,0,1-.10363.01135.3885.3885,0,0,1-.35252-.25418c-.66041-1.808-1.68165-3.81568-2.14765-3.9231-.31923-.0764-1.03032.42061-1.65744.85861a6.73662,6.73662,0,0,1-2.67415,1.345c-1.98727.28065-2.64087-3.52746-2.709-3.96093a.38716.38716,0,0,1,.74211-.20349,1.75859,1.75859,0,0,0,2.0024.97359,7.8448,7.8448,0,0,0,1.96231-.80262c1.5243-.77086,3.25059-1.64535,4.8808-.74514.01967.01059.03858.02119.05673.03253.01892-.01134.03783-.02269.05825-.03328,1.6287-.89643,3.35574-.025,4.87929.74589a7.84465,7.84465,0,0,0,1.96231.80262h0a1.76559,1.76559,0,0,0,2.00315-.97586.38748.38748,0,0,1,.74135.20576c-.06808.43422-.727,4.24082-2.70819,3.96093a6.73941,6.73941,0,0,1-2.67491-1.345c-.62712-.438-1.33518-.94031-1.65744-.85861-.466.10742-1.48724,2.11512-2.14765,3.9231a.38851.38851,0,0,1-.35252.25418Zm-2.75964-4.95872a1.04385,1.04385,0,0,1,.23753.02648c.90551.20954,1.90406,2.39047,2.42981,3.70372.52576-1.31325,1.52431-3.49418,2.42981-3.70372.66117-.15205,1.40706.37294,2.27549.97888a6.25118,6.25118,0,0,0,2.33525,1.21264c.65511.09985,1.17255-.91307,1.50086-1.92751a2.66454,2.66454,0,0,1-1.76865.26779h0a8.30632,8.30632,0,0,1-2.18471-.87524c-1.41916-.71714-2.88748-1.45925-4.15761-.75875a1.33117,1.33117,0,0,0-.18836.13314.38684.38684,0,0,1-.48415,0,1.33689,1.33689,0,0,0-.18685-.13238c-1.27391-.70126-2.74.04009-4.15912.758a8.30632,8.30632,0,0,1-2.18471.87524,2.65731,2.65731,0,0,1-1.76865-.267c.32831,1.01368.84272,2.02812,1.50161,1.92675a6.25666,6.25666,0,0,0,2.33525-1.21264A4.24434,4.24434,0,0,1,72.33258,33.75088Z"/>
      </g>
    </g>
  </g>
</svg>
