<svg id="allies_tunisia_sniper_1_icon" xmlns="http://www.w3.org/2000/svg" width="150" height="150" viewBox="0 0 150 150">
  <defs>
    <style>
      .cls-1 {
        fill: #ededed;
      }

      .cls-1, .cls-2, .cls-3, .cls-4 {
        fill-rule: evenodd;
      }

      .cls-2 {
        fill: #cf0917;
      }

      .cls-3 {
        fill: #8c0a09;
      }

      .cls-4 {
        fill: #609230;
      }
    </style>
  </defs>
  <path class="cls-1" d="M68.962,0.974H15.007V124.588s-0.721,15.477,20.2,15.477H57.6s11.9-.134,17.311,8.761h0.174c5.41-8.895,17.311-8.761,17.311-8.761h22.4c20.917,0,20.2-15.477,20.2-15.477V0.974H68.962Z"/>
  <path id="Shape_247_copy" data-name="Shape 247 copy" class="cls-2" d="M96.469,108.385L90.821,84.013V83.878a0.687,0.687,0,0,0,0-1.374V77.7a2.037,2.037,0,0,0,1.638-1.714h0.185a0.489,0.489,0,1,0,0-.979H92.478v-7h0.166a0.489,0.489,0,1,0,0-.979h-0.1l0.013-.245A2.492,2.492,0,0,0,90.5,64.335l0-.02a0.452,0.452,0,0,0-.9,0l0,0.02a2.492,2.492,0,0,0-2.051,2.448l0.009,0.183v0.062H87.4a0.489,0.489,0,1,0,0,.979h0.166v7H87.4a0.488,0.488,0,0,0-.334.133H83.216v-2.09H82.148V67.139h1.379V63.092h-3.2v1.824H77.879V63.047H75.033v1.824H72.1V63.047H69.251v1.868H66.805V63.092H63.6v4.047h1.378v5.915H63.914v2.09H60.2a0.485,0.485,0,0,0-.333-0.133H59.7v-7h0.166a0.489,0.489,0,0,0,0-.979H59.7V66.966l0.009-.183a2.492,2.492,0,0,0-2.051-2.448l0-.02a0.452,0.452,0,0,0-.9,0l0,0.02a2.492,2.492,0,0,0-2.051,2.448l0.013,0.245H54.616a0.489,0.489,0,0,0,0,.979h0.167v7H54.616a0.489,0.489,0,0,0,0,.979H54.8a1.99,1.99,0,0,0,1.508,1.674V82.5H56.243a0.689,0.689,0,1,0,0,1.379h0.066v0.133l-5.648,24.372H50.127v8.628H67.116V103.984a6.164,6.164,0,0,1,.9-3.276,6.02,6.02,0,0,1,4.97-2.774h1.156a6.022,6.022,0,0,1,4.97,2.774,6.168,6.168,0,0,1,.9,3.276v13.029H97v-8.628H96.469Z"/>
  <path id="Shape_247_copy_2" data-name="Shape 247 copy 2" class="cls-3" d="M89.264,73.12V69.54h1.468v3.58H89.264ZM82.771,91.174h2.713v2.535H82.771V91.174ZM76.233,69.007h2.713v2.535H76.233V69.007Zm-8.139,0h2.713v2.535H68.095V69.007ZM61.557,91.174H64.27v2.535H61.557V91.174ZM56.4,69.54h1.468v3.58H56.4V69.54Z"/>
  <path id="Shape_247_copy_3" data-name="Shape 247 copy 3" class="cls-2" d="M53.255,33.978c0.2-.867,1.134-2.335.534-3.669s-1.6-3-4.536-1.935c-2.873,1.044-4.591,7.065-4.6,10.073H43.818a29.292,29.292,0,0,1,.328-3.936c0.267-1.067,2.4-7,2.468-8.272s-1.734-3.4-2-3.6a7.593,7.593,0,0,1-1.134-2.068,1.454,1.454,0,0,0-.533-0.734H42.682a1.452,1.452,0,0,0-.533.734,7.591,7.591,0,0,1-1.134,2.068c-0.267.2-2.068,2.335-2,3.6s2.2,7.2,2.468,8.272a29.4,29.4,0,0,1,.328,3.936H40.975c-0.01-3.008-1.727-9.029-4.6-10.073-2.935-1.067-3.936.6-4.536,1.935s0.334,2.8.534,3.669a5.526,5.526,0,0,1-.133,2.135,2,2,0,0,0,1.6.2c1.134-.2,2.268-1.868,2.268-1.868a4.664,4.664,0,0,1,2.268,1.4,8.828,8.828,0,0,1,1.134,2.469v0.133h-1.3v2.335h1.132c-0.441,2.3-1.605,2.757-1.967,2.6-0.467-.2-0.534-0.867-1.668-1.067a0.943,0.943,0,0,0-1.2.867c0.534-.133.867,0.467,1.134,1s1.067,2.6,3.068,1.334c1.5-.951,1.989-2.689,2.167-4.736h0.98c0,0.531-.015.98-0.042,1.267-0.133,1.4-1.4,4.2-1.334,5.337s0.734,2.269,2.2,3.536h0.264c1.467-1.267,2.135-2.4,2.2-3.536s-1.2-3.935-1.334-5.337c-0.027-.288-0.04-0.736-0.042-1.267h0.98c0.178,2.047.666,3.786,2.167,4.736,2,1.268,2.8-.8,3.068-1.334s0.6-1.134,1.134-1a0.943,0.943,0,0,0-1.2-.867c-1.134.2-1.2,0.867-1.668,1.067-0.362.155-1.526-.3-1.967-2.6h1.132V38.448h-1.3V38.315a8.836,8.836,0,0,1,1.134-2.469,4.667,4.667,0,0,1,2.269-1.4s1.134,1.667,2.268,1.868a2,2,0,0,0,1.6-.2A5.532,5.532,0,0,1,53.255,33.978Z"/>
  <path id="Shape_247_copy_4" data-name="Shape 247 copy 4" class="cls-4" d="M104.944,15.612a1.53,1.53,0,0,0-1.325.955c-0.2.533-.133,6.87-0.2,7.338s0.467,14.609.467,14.609c-1.267-.934-1.6-4-1.669-5.27s-0.265-9.54-.533-10.607a0.957,0.957,0,0,0-.915-0.883,0.694,0.694,0,0,0-.152.015,1.186,1.186,0,0,0-1,1.2c-0.067.467,0,7.406,0,8.206a21.2,21.2,0,0,0,1.268,7.805c1.185,2.846,2.318,3,2.555,3a0.345,0.345,0,0,0,.046,0,42.986,42.986,0,0,0,.2,5.07c0.133,0.866.067,3.069-.335,3.335a6.305,6.305,0,0,1-2.067.8c-0.934.2-5.4,0.667-5.8,0.667a0.393,0.393,0,0,0-.4.4,2.385,2.385,0,0,0,.667.4,1.7,1.7,0,0,1,.6.733,1.59,1.59,0,0,0,.768.093c0.546,0,1.3-.041,2.007-0.083s1.367-.084,1.707-0.084a1.667,1.667,0,0,1,.186.008c0.534,0.066,1.6.4,2.6,0.533a4.374,4.374,0,0,0,.594.037c0.826,0,1.969-.171,5.545-0.171a24.132,24.132,0,0,0,6.737-.734,10.287,10.287,0,0,1,1.1-.085,1.917,1.917,0,0,1,.3.019,0.419,0.419,0,0,0,.068.006c0.361,0,.575-0.481.2-0.606-0.4-.133-1.535-0.467-1.535-0.467s-4.469-.6-4.87-0.667-3.4-.734-3.4-0.734l-0.468-1.334a5.016,5.016,0,0,1,.134-1.534,16.763,16.763,0,0,0,.4-3.669c-0.066-.734-0.133-2.335-0.133-2.335a5.145,5.145,0,0,0,2.4-1.867c1.134-1.268,1-6.071.934-7.339s0.466-7.4.267-8.139-0.4-1.534-1.067-1.6a0.968,0.968,0,0,0-.1-0.005,1.662,1.662,0,0,0-1.366,1.339,48.463,48.463,0,0,0-.2,8.939,10.465,10.465,0,0,1-.935,5.4s0.2-13.409.135-15.01,0.133-2.735-.534-3.4a1.475,1.475,0,0,0-1.042-.5,0.773,0.773,0,0,0-.225.028c0-2.868-.734-3.669-1.4-3.8a1.078,1.078,0,0,0-.211-0.021"/>
</svg>
