<svg xmlns="http://www.w3.org/2000/svg" width="150" height="150" viewBox="0 0 150 150">
  <defs>
    <style>
      .cls-1 {
        fill: #ac2415;
      }

      .cls-2 {
        fill: #ffd457;
      }

      .cls-3 {
        fill: #2f2c7b;
      }

      .cls-4 {
        fill: #fff;
        stroke: #d8ac4c;
        stroke-miterlimit: 10;
        stroke-width: 1.00894px;
      }

      .cls-5 {
        fill: #101130;
      }

      .cls-6 {
        fill: #dbad25;
      }
    </style>
  </defs>
  <g id="Layer_7" data-name="Layer 7">
    <g>
      <circle class="cls-1" cx="74.99985" cy="74.99988" r="70.32997"/>
      <path class="cls-2" d="M75,6.68792a68.31209,68.31209,0,0,1,48.30391,116.616A68.312,68.312,0,1,1,26.69612,26.69609,67.86479,67.86479,0,0,1,75,6.68792m0-4.03578A72.34786,72.34786,0,1,0,147.34783,75,72.34789,72.34789,0,0,0,75,2.65214Z"/>
      <circle class="cls-3" cx="75.00002" cy="75.00001" r="46.88298"/>
      <path class="cls-2" d="M74.99985,122.63945a47.63958,47.63958,0,1,1,47.64007-47.63957A47.6936,47.6936,0,0,1,74.99985,122.63945Zm0-93.76573A46.12616,46.12616,0,1,0,121.1265,74.99988,46.17854,46.17854,0,0,0,74.99985,28.87372Z"/>
      <path class="cls-4" d="M87.92985,99.64239H85.912V96.94452H82.75359v2.69787H75.31805V33.403c0-1.01757-.82488-2.85133-1.84244-2.85133-1.0175,0-1.84238,1.83376-1.84238,2.85133V99.64239H64.06615V96.94452H60.90772v2.69787H59.02143c-1.0175,0-2.85138.82481-2.85138,1.84238s1.83388,1.84238,2.85138,1.84238h1.88629V106.025h3.15843v-2.69787h7.56708v6.97491H66.36916v3.15843h5.26407v1.62309c0,1.01757.82488,2.85133,1.84238,2.85133,1.01756,0,1.84244-1.83376,1.84244-2.85133v-1.62309h5.264v-3.15843h-5.264v-6.97491h7.43554V106.025H85.912v-2.69787h2.01789c1.01756,0,2.85138-.82482,2.85138-1.84238S88.94741,99.64239,87.92985,99.64239Z"/>
      <g>
        <path class="cls-2" d="M69.76855,92.59961A12.71206,12.71206,0,0,1,57.07129,79.90234V52.59473c0-.0752.04-8.00586,9.42578-9.77344a61.06722,61.06722,0,0,1,7.22656-.34473c2.06153,0,4.21094.06934,6.3877.20508.29394.03223,6.66406.75391,9.73535,2.29l.374.18652-2.36328,8.34571-.501-.167a50.83376,50.83376,0,0,0-8.77051-2.082c-.96-.08886-2.25782-.13574-3.75293-.13574a47.29023,47.29023,0,0,0-6.708.34961,1.82254,1.82254,0,0,1-.29395.13965c-.665.27832-2.04785.8584-2.251,3.58984l.001,2.584a12.6038,12.6038,0,0,1,4.1875-.71094h8.42286A12.71206,12.71206,0,0,1,90.88867,69.76855V79.90234A12.71206,12.71206,0,0,1,78.19141,92.59961Zm0-25.66211a2.83449,2.83449,0,0,0-2.832,2.83105V79.90234a2.83449,2.83449,0,0,0,2.832,2.83106h8.42286a2.83365,2.83365,0,0,0,2.831-2.83106V69.76855a2.83365,2.83365,0,0,0-2.831-2.83105Z"/>
        <path class="cls-5" d="M73.72241,42.98126c1.81885,0,3.95117.05371,6.35767.2041,0,0,6.51416.72388,9.541,2.23725L87.51562,52.858a51.05,51.05,0,0,0-8.883-2.10559c-1.06348-.09845-2.41528-.138-3.79883-.138a40.64333,40.64333,0,0,0-6.92676.40125c-.39477.26318-2.56616.59216-2.82934,4.14538v3.35529a12.12436,12.12436,0,0,1,4.69116-.93976h8.42285a12.20577,12.20577,0,0,1,12.19189,12.192v10.1333A12.20593,12.20593,0,0,1,78.19165,92.09448H69.7688A12.20624,12.20624,0,0,1,57.57617,79.90192V52.59485s-.06567-7.56708,9.01465-9.27789a61.44991,61.44991,0,0,1,7.13159-.3357M69.7688,83.23865h8.42285a3.34059,3.34059,0,0,0,3.33618-3.33673V69.76862a3.34013,3.34013,0,0,0-3.33618-3.33619H69.7688a3.34039,3.34039,0,0,0-3.33667,3.33619v10.1333a3.34086,3.34086,0,0,0,3.33667,3.33673m3.95386-41.26636h-.00025a61.96292,61.96292,0,0,0-7.26147.34412l-.02857.00372-.02832.00531c-9.79638,1.84576-9.8374,10.194-9.83667,10.2782l-.00024,17.16382V79.90192A13.21657,13.21657,0,0,0,69.7688,93.10339h8.42285A13.21611,13.21611,0,0,0,91.39258,79.90192V69.76862A13.21583,13.21583,0,0,0,78.19165,56.56769H69.7688a13.1135,13.1135,0,0,0-3.68213.52289v-1.891c.188-2.39251,1.32642-2.86907,1.93945-3.12579.10767-.04516.20581-.08624.29981-.1355a52.49933,52.49933,0,0,1,6.50781-.31488c1.47974,0,2.76123.04621,3.70581.13367a50.33448,50.33448,0,0,1,8.657,2.05817l1.002.3338.28784-1.01612,2.10547-7.43542.22778-.80377-.74731-.37354c-3.15162-1.57574-9.60743-2.30725-9.88086-2.33758-2.23633-.14093-4.39649-.21027-6.46875-.21033ZM69.7688,82.22974a2.33037,2.33037,0,0,1-2.32764-2.32782V69.76862a2.33,2.33,0,0,1,2.32764-2.32721h8.42285a2.32979,2.32979,0,0,1,2.32715,2.32721v10.1333a2.33011,2.33011,0,0,1-2.32715,2.32782Z"/>
      </g>
      <g>
        <path class="cls-6" d="M25.809,90.21239l.82862,1.76531-5.7524,3.26148q-3.37737,1.936-5.23988,2.857l11.20638-1.76934L27.653,98.0351l-8.46954,7.651q2.39877-1.12629,5.66353-2.35307l6.04123-2.29652.81045,1.72744L17.962,107.87457l-1.1523-2.45658,8.309-7.29453-10.858,1.86327L13.09933,97.511Z"/>
        <path class="cls-6" d="M9.92066,84.51049l1.62443-.11059,1.18866,5.53427,4.66372-1.00233-1.03313-4.80865,1.57545-.33832,1.03313,4.80865,4.89146-1.0508L22.5909,81.61459l1.57494-.33832,1.69663,7.89693-14.281,3.06809Z"/>
        <path class="cls-6" d="M9.4046,76.94884l12.84545-.208L22.1526,70.742l1.76329.2045.12624,7.77928-14.6047.23682Z"/>
        <path class="cls-6" d="M26.54971,58.63225l-3.827.15-1.38357,5.357,3.27512,1.985-.509,1.97032-12.97067-8.1893.63623-2.46315,15.30911-.86246Zm-6.66939,4.62687,1.14018-4.41328-7.957.28783Z"/>
        <path class="cls-6" d="M32.60206,46.32154,31.3114,48.68421,17.58178,47.949q1.34444.58928,2.46871,1.119,1.124.52944,2.66816,1.373l5.87965,3.211-.90487,1.65573L14.87423,48.3065l1.26036-2.30712,13.7786.68926q-.51429-.20829-1.7744-.77611-1.26036-.56655-2.2647-1.11594l-6.9961-3.821.90437-1.65574Z"/>
        <path class="cls-6" d="M28.515,28.68562l1.05535,1.23966-3.74118,4.24815,3.5796,3.15241,3.25037-3.69119,1.20935,1.06494L30.6181,38.39078l3.75431,3.30642,4.0073-4.55011L39.58906,38.212l-5.33834,6.06143-10.962-9.65365Z"/>
        <path class="cls-6" d="M36.95423,21.91776a6.8584,6.8584,0,0,1,2.37882-.20854l-.12623,1.64664a6.29237,6.29237,0,0,0-1.87388.22168,4.71284,4.71284,0,0,0-1.54111.79529,3.16708,3.16708,0,0,0-1.174,1.56889,1.78077,1.78077,0,0,0,.35347,1.67946,2.09211,2.09211,0,0,0,.85336.69482,2.269,2.269,0,0,0,1.23259.05605,12.24417,12.24417,0,0,0,2.05364-.614,13.161,13.161,0,0,1,2.37175-.67058,3.98087,3.98087,0,0,1,1.9885.17118,3.89707,3.89707,0,0,1,1.76834,1.382A4.071,4.071,0,0,1,46.111,30.8044a4.18,4.18,0,0,1-.5004,2.30813,6.51786,6.51786,0,0,1-1.8759,2.13392,6.794,6.794,0,0,1-5.08435,1.52293l.12624-1.64664a7.15577,7.15577,0,0,0,2.094-.23077,5.34465,5.34465,0,0,0,1.84055-.94425,3.64142,3.64142,0,0,0,1.37649-1.89761A2.27688,2.27688,0,0,0,43.613,29.9687a2.3673,2.3673,0,0,0-.94779-.78217,2.45552,2.45552,0,0,0-1.271-.10705,9.68931,9.68931,0,0,0-2.00364.57514,8.5273,8.5273,0,0,1-3.60081.70542,3.33744,3.33744,0,0,1-2.39852-1.41942,3.45824,3.45824,0,0,1-.73773-1.91932,3.88179,3.88179,0,0,1,.4691-2.0703,5.60013,5.60013,0,0,1,1.59565-1.83852A6.7631,6.7631,0,0,1,36.95423,21.91776Z"/>
        <path class="cls-6" d="M43.4373,17.73121l7.1804,12.71972-1.75369.99021L41.6836,18.72142Z"/>
        <path class="cls-6" d="M61.53979,25.98716l-2.247-3.1009L54.06753,24.7061l.16511,3.826-1.92184.66956-.38023-15.33486,2.40206-.8367,9.20929,12.25971Zm-7.549-2.98274L58.295,21.50471l-4.65262-6.46085Z"/>
        <path class="cls-6" d="M93.41281,27.55554l-1.89407-.46506L92.59782,20.566q.61729-3.84318,1.0715-5.87107l-5.66757,9.82837-1.83247-.44991-.62714-11.39675q-.63246,2.57375-1.72946,5.88369l-2.01122,6.14273-1.85267-.45546L84.607,10.35085l2.63534.64785.45142,11.04782,5.37521-9.61679,2.65553.6529Z"/>
        <path class="cls-6" d="M101.62483,15.69323,95.76537,29.07342l-1.84458-.80792,5.85945-13.37969Z"/>
        <path class="cls-6" d="M111.92532,21.58348a6.62142,6.62142,0,0,1,.97405,1.90468l-1.61937.515a4.42279,4.42279,0,0,0-1.82187-2.40811,3.56793,3.56793,0,0,0-3.23219-.36407,7.2383,7.2383,0,0,0-3.32056,3.22664,7.2688,7.2688,0,0,0-1.41184,4.35318,3.51125,3.51125,0,0,0,1.72693,2.76107,3.91379,3.91379,0,0,0,1.55374.59281,8.57007,8.57007,0,0,0,1.73046.02879l.17371,1.60625a5.42979,5.42979,0,0,1-2.092.07119,6.01274,6.01274,0,0,1-2.31621-.89275,5.60214,5.60214,0,0,1-2.69391-5.761,9.87707,9.87707,0,0,1,1.51132-3.89115A9.542,9.542,0,0,1,103.94,20.2696a5.94043,5.94043,0,0,1,3.215-1.03212,5.63981,5.63981,0,0,1,3.06909.8867A6.32767,6.32767,0,0,1,111.92532,21.58348Z"/>
        <path class="cls-6" d="M114.01077,34.18807l-1.6315-1.57645-4.30167,4.45164-1.4482-1.39972,10.15-10.504,2.75956,2.66664a6.93829,6.93829,0,0,1,2.25864,3.62707,3.5999,3.5999,0,0,1-1.13715,3.20543,3.782,3.782,0,0,1-2.28743,1.23864,4.79662,4.79662,0,0,1-2.70956-.61351l-1.71633,7.45105-1.72239-1.66482Zm.9074-1.275a3.76953,3.76953,0,0,0,2.1723,1.19926,2.52046,2.52046,0,0,0,2.03041-.94173,2.28029,2.28029,0,0,0,.7756-1.97739,4.4598,4.4598,0,0,0-1.46284-2.2536l-1.29621-1.25228-3.68261,3.81137Z"/>
        <path class="cls-6" d="M130.22324,42.11833a5.80139,5.80139,0,0,1-.95436,3.22512,9.873,9.873,0,0,1-3.00244,2.91559,9.7607,9.7607,0,0,1-3.821,1.6017,5.63725,5.63725,0,0,1-5.87712-2.57979,5.95789,5.95789,0,0,1-1.05989-3.17564,5.72352,5.72352,0,0,1,.94526-3.21906,11.14575,11.14575,0,0,1,6.80574-4.50568,5.899,5.899,0,0,1,3.38266.3666,5.82122,5.82122,0,0,1,2.52981,2.19A5.91269,5.91269,0,0,1,130.22324,42.11833Zm-5.27018-3.94771a7.633,7.633,0,0,0-4.333,1.59716,7.42424,7.42424,0,0,0-3.12111,3.35035,3.49642,3.49642,0,0,0,.4479,3.24987q2.22379,3.35842,7.138.10553,4.93161-3.26526,2.70856-6.62395A3.473,3.473,0,0,0,124.95306,38.17062Z"/>
        <path class="cls-6" d="M123.90226,62.66782l-.914-2.53233,9.65062-9.79353q-1.33307.6158-2.47426,1.10686-1.14144.4908-2.79642,1.08816l-6.30128,2.2743-.64079-1.7749,13.73922-4.95862.89275,2.47275L125.409,60.41119q.49687-.24691,1.75723-.81448,1.26036-.56808,2.33692-.95588l7.498-2.706.64028,1.7744Z"/>
        <path class="cls-6" d="M139.73651,70.29359l-1.628-.00859-.78015-5.60647-4.72432.65745.67764,4.87126-1.59564.22218-.67815-4.87126-4.95509.68926.83519,6.00538-1.59564.22218-1.11291-8.00045,14.46735-2.01273Z"/>
        <path class="cls-6" d="M139.20631,82.6351a6.863,6.863,0,0,1-1.43709,1.9072l-1.13917-1.19573a6.292,6.292,0,0,0,1.08918-1.54111,4.69589,4.69589,0,0,0,.44083-1.67694,3.17258,3.17258,0,0,0-.38023-1.92285,1.78288,1.78288,0,0,0-1.48456-.86145,2.0858,2.0858,0,0,0-1.08716.16966,2.2694,2.2694,0,0,0-.867.87761,12.28354,12.28354,0,0,0-.918,1.9375,13.10658,13.10658,0,0,1-1.08867,2.21067,3.97051,3.97051,0,0,1-1.4583,1.36287,3.89136,3.89136,0,0,1-2.21017.38931,4.07193,4.07193,0,0,1-2.191-.80034,4.17892,4.17892,0,0,1-1.38-1.91629,6.52243,6.52243,0,0,1-.33024-2.82218,6.79243,6.79243,0,0,1,2.27077-4.797l1.13917,1.19522a7.17978,7.17978,0,0,0-1.23006,1.71077,5.34541,5.34541,0,0,0-.5297,1.99961,3.64377,3.64377,0,0,0,.4888,2.293,2.27637,2.27637,0,0,0,1.86377,1.0402,2.37272,2.37272,0,0,0,1.21592-.18077,2.45516,2.45516,0,0,0,.93012-.87306,9.69809,9.69809,0,0,0,.91346-1.87388,8.53744,8.53744,0,0,1,1.88549-3.14736,3.34006,3.34006,0,0,1,2.66008-.83215,3.46114,3.46114,0,0,1,1.91982.73621,3.882,3.882,0,0,1,1.224,1.734,5.59421,5.59421,0,0,1,.29843,2.41619A6.76658,6.76658,0,0,1,139.20631,82.6351Z"/>
        <path class="cls-6" d="M138.09441,89.7544l-14.281-3.06808.42315-1.9688,14.281,3.06808Z"/>
        <path class="cls-6" d="M119.90709,97.80888l3.81137.37669,2.10665-5.11616-2.97164-2.41569.7746-1.882,11.72294,9.8935-.96849,2.35207L119.10017,99.7691Zm7.2415-3.667-1.735,4.21432,7.92066.80843Z"/>
      </g>
      <polygon class="cls-6" points="71.94 9.466 73.768 15.09 79.681 15.09 74.897 18.566 76.724 24.19 71.94 20.714 67.156 24.19 68.984 18.566 64.2 15.09 70.113 15.09 71.94 9.466"/>
      <polygon class="cls-6" points="33.44 105.904 35.267 111.528 41.181 111.528 36.397 115.004 38.224 120.628 33.44 117.152 28.656 120.628 30.483 115.004 25.699 111.528 31.613 111.528 33.44 105.904"/>
      <polygon class="cls-6" points="118.259 105.122 120.087 110.746 126 110.746 121.216 114.221 123.043 119.845 118.259 116.37 113.475 119.845 115.303 114.221 110.519 110.746 116.432 110.746 118.259 105.122"/>
      <g>
        <path class="cls-6" d="M53.31692,120.86543a5.57065,5.57065,0,0,1,.738,3.17265,8.75644,8.75644,0,0,1-1.18433,3.76531,8.65554,8.65554,0,0,1-2.52926,2.97905,5.6366,5.6366,0,0,1-3.081,1.08185,6.21118,6.21118,0,0,1-3.25493-.836,6.32714,6.32714,0,0,1-2.45683-2.28638,5.50368,5.50368,0,0,1-.74242-3.16428,9.85142,9.85142,0,0,1,3.70373-6.72662,5.65553,5.65553,0,0,1,3.10467-1.103,6.17,6.17,0,0,1,3.25049.82223A6.26831,6.26831,0,0,1,53.31692,120.86543ZM46.843,119.68012a6.81577,6.81577,0,0,0-2.97461,3.1894,6.63749,6.63749,0,0,0-1.07595,4.189,3.613,3.613,0,0,0,1.96321,2.6066q3.55224,1.95606,6.22707-2.9012,2.68395-4.875-.868-6.83057A3.58589,3.58589,0,0,0,46.843,119.68012Z"/>
        <path class="cls-6" d="M62.03187,137.49871l.94687-3.66924a1.67476,1.67476,0,0,0-.19558-1.36907,2.17759,2.17759,0,0,0-1.371-.86854l-4.01952-1.03653-1.38976,5.38858-1.82329-.47,3.49238-13.53946,5.86547,1.51293a4.33359,4.33359,0,0,1,2.50117,1.41735,2.87569,2.87569,0,0,1,.29756,2.51792l-.533,2.06666a2.55982,2.55982,0,0,1-.8715,1.49519,2.16208,2.16208,0,0,1-1.45577.37638,2.25026,2.25026,0,0,1,1.204,1.08284,2.46312,2.46312,0,0,1,.14139,1.81837l-.96608,3.74708Zm2.51841-10.24708a1.666,1.666,0,0,0-1.41143-2.25929l-4.04267-1.04244-1.33508,5.17625,4.18308,1.0789a1.91727,1.91727,0,0,0,1.41094-.05862,1.446,1.446,0,0,0,.6971-.96362Z"/>
        <path class="cls-6" d="M71.86513,124.89923l-1.09171,13.69956-1.88882-.15025L69.97582,124.749Z"/>
        <path class="cls-6" d="M83.28126,124.53319l-.14878,1.53017-6.163.42713.31037,4.47718,5.35509-.37145.10493,1.51243-5.35508.37145.32564,4.69593,6.60148-.45767.10444,1.51243-8.79426.6094-.95032-13.70991Z"/>
        <path class="cls-6" d="M100.13131,133.82208l-2.49773.838-9.21695-9.216q.5557,1.26511.99564,2.34845.43969,1.08335.96608,2.65242l2.0041,5.97632-1.75038.58674-4.36979-13.02956,2.43861-.81779,9.28247,9.215q-.22391-.47146-.73453-1.66811-.51063-1.19565-.85278-2.21741l-2.38491-7.11039,1.75038-.58723Z"/>
        <path class="cls-6" d="M106.14852,114.5216l.68576,1.47745-3.352,2.113,6.4665,10.2594-1.66712,1.05081-6.4665-10.25939L98.376,121.33049l-.86164-1.36661Z"/>
      </g>
    </g>
  </g>
</svg>
