<svg id="allies_tunisia_pilot_assaulter_1_icon" xmlns="http://www.w3.org/2000/svg" width="150" height="150" viewBox="0 0 150 150">
  <defs>
    <style>
      .cls-1 {
        fill: #15396b;
      }

      .cls-1, .cls-2, .cls-3, .cls-4, .cls-5, .cls-6, .cls-7, .cls-8 {
        fill-rule: evenodd;
      }

      .cls-2 {
        fill: #e8eef6;
      }

      .cls-3 {
        fill: #ffc334;
      }

      .cls-4 {
        fill: #7a8d93;
      }

      .cls-5 {
        fill: #1a1a1a;
      }

      .cls-6 {
        fill: #ebf0f7;
      }

      .cls-7 {
        fill: #c42316;
      }

      .cls-8 {
        fill: #f3a50e;
      }
    </style>
  </defs>
  <path id="Shape_268_copy" data-name="Shape 268 copy" class="cls-1" d="M140.65,27.96L117.324,5.812,98.611,25.522a53.593,53.593,0,0,0-69.9,73.626L9.237,119.654l22.145,24.388,20.7-21.988a53.591,53.591,0,0,0,70.386-74.776Z"/>
  <path class="cls-2" d="M98.5,30.01l-5.949,34.37L123.4,80.658,88.869,85.621,82.92,119.99l-15.389-31.3L33.005,93.651,58.02,69.342,42.631,38.04,73.48,54.318Z"/>
  <path id="Shape_268_copy_2" data-name="Shape 268 copy 2" class="cls-3" d="M144.114,27.862L117.234,2.341l-18.3,19.275A57.267,57.267,0,0,0,24.826,99.668L5.886,119.617l25.463,28.042L51.742,126A57.266,57.266,0,0,0,126.378,46.7ZM76.108,124.241a49.862,49.862,0,0,1-23.8-6.008l-20.89,22.192L12.587,119.692,32.471,98.75A50.1,50.1,0,0,1,98.408,29.3L117.414,9.284l19.772,18.773-18.524,19.68A50.09,50.09,0,0,1,76.108,124.241Z"/>
  <path id="Shape_269_copy_3" data-name="Shape 269 copy 3" class="cls-4" d="M48.718,116A10.8,10.8,0,0,1,42.7,114.2c-3.2-2.1-4.066-6.171-4.227-9.216-0.244-4.633,1.07-9.956,2.825-11.493L69.5,56.624,84.359,55.1l5.443-5,0.491-1.08L91.947,39.7l16.709-16.71L108.5,28.922,118.466,39l6.074-.151L107.9,55.1l-0.227.027c-0.019,0-2.058.252-9.32,1.726l-0.923.369c-0.681.972-4.048,5.766-4.7,6.527a19.425,19.425,0,0,0-.977,2.217A115.709,115.709,0,0,1,83.71,82.3c-6.259,10.548-24.6,29.27-25.373,30.062C58.112,112.549,53.908,116,48.718,116Z"/>
  <path id="Shape_269_copy_4" data-name="Shape 269 copy 4" class="cls-5" d="M107.944,24.647l-0.117,4.543,10.367,10.483,4.659-.116L107.6,54.465s-1.98.233-9.435,1.747L97,56.678S92.918,62.5,92.22,63.317s-2.8,8.037-9.085,18.636-25.275,29.935-25.275,29.935-4.135,3.445-9.141,3.445a10.12,10.12,0,0,1-5.651-1.7c-6.241-4.092-3.844-17.588-1.281-19.684l28.071-36.69,14.793-1.514L90.356,50.5l0.583-1.281,1.631-9.2,15.375-15.375m1.425-3.319L107,23.7,91.622,39.075l-0.3.3-0.073.415-1.6,9.035-0.4.879L84.07,54.459,69.72,55.928l-0.576.059-0.352.46L40.8,93.031c-1.89,1.742-3.254,7.142-3,11.983,0.169,3.2,1.091,7.487,4.529,9.741a11.464,11.464,0,0,0,6.386,1.917c5.429,0,9.814-3.6,10-3.755l0.052-.043,0.047-.048c0.78-.794,19.171-19.572,25.472-30.189A116.364,116.364,0,0,0,92.37,66.225c0.367-.9.746-1.829,0.894-2.067,0.7-.837,3.684-5.078,4.6-6.384l0.682-.273c7.157-1.452,9.188-1.7,9.208-1.706l0.451-.054,0.326-.318,15.259-14.909,2.438-2.382-3.407.085-4.081.1-9.558-9.665,0.1-3.972,0.086-3.354h0Z"/>
  <path class="cls-5" d="M105.475,50.5l-3.561-3.561,9.423-9.423,3.561,3.561Zm-9.268-9.385,9.423-9.424,3.561,3.561-9.423,9.423ZM78.325,46.2a8.883,8.883,0,0,1-1.049,6.406c1.514,7.338-3.611,10.6-3.611,10.6,1.281,8.154-3.727,11.765-3.727,11.765a11.924,11.924,0,0,1,.815,3.96c0,0.349,4.542.466,5.241,0.816s0.232,2.213-.233,3.727a24.635,24.635,0,0,1-2.212,6.057,16.859,16.859,0,0,1-3.845,4.426,6.016,6.016,0,0,1-3.145,1.514,4.838,4.838,0,0,0-.7,1.4c-0.117.582-.7,5.474-2.563,7.338S57.942,107.7,57.01,107.7s-2.912-1.631-4.077-3.378-0.7-5.125-.349-5.94,1.863-3.844,2.795-4.193S60.5,92.8,60.5,92.8a5.287,5.287,0,0,1,1.747-2.1,8.378,8.378,0,0,1,3.145-.582,17.114,17.114,0,0,0,2.1-2.68,2.356,2.356,0,0,0-.349-1.63,7.44,7.44,0,0,1-2.071.248,11.888,11.888,0,0,1-4.8-1.064,30.3,30.3,0,0,1-7.687-5.475l-4.077,5.009c-5.008,0-7.105-2.913-7.921-7.338a13.346,13.346,0,0,1,2.8-10.483,8.847,8.847,0,0,1,4.194-2.447c1.98-4.659,10.6-14.793,11.764-16.074S81.237,26.4,81.237,26.4c3.261,6.872-.7,13.279-0.7,13.279C80.888,42.71,78.325,46.2,78.325,46.2ZM36.452,117.9s-0.408,2.679-.408,3.2,0.291,5.707-2.737,7.163-5.241,1.893-7.455.437-4.585-3.364-4.717-4.718c-0.349-3.581,2.155-8.066,2.737-8.881s7.28-1.863,7.8-1.63l0.7-.117,6.231-6.115,2.5,5.533S36.743,117.488,36.452,117.9ZM43.673,98.91c0.087-.007.172-0.011,0.255-0.011a1.607,1.607,0,0,1,1.754,1.409c0.175,1.048-1.921,4.542-2.271,4.891a0.978,0.978,0,0,1-.68.275,0.538,0.538,0,0,1-.456-0.187,7.359,7.359,0,0,1-.524-3.319C41.926,100.221,42.625,99,43.673,98.91Zm5.678,4.106a10.379,10.379,0,0,1,1.485,4.542c0.087,2.359-1.659,5.679-3.931,8.3,0,0-3.32-.7-4.455-2.358C42.45,113.5,48.827,107.908,49.351,103.016Z"/>
  <path class="cls-6" d="M46.923,115.546l-1.66-.524L47.709,111l0.961-.523-0.437-1.136-0.262,1.048-0.873.262-2.446,3.757-0.961-.35s5.241-5.94,5.416-8.561C49.106,105.5,51.465,109.606,46.923,115.546ZM42.275,102.61a1.485,1.485,0,0,0-.157.007h0c-0.631,0-.343-1.748.7-2.01a3.179,3.179,0,0,1,.744-0.153,1.03,1.03,0,0,1,.916.678c0.525,0.961-.523,2.708-0.523,2.708A1.624,1.624,0,0,0,42.275,102.61Z"/>
  <path class="cls-7" d="M66.878,94.563a3.391,3.391,0,0,1-1.31.961,6.521,6.521,0,0,1-2.883-1.747,1.723,1.723,0,0,1,0-2.271,4.129,4.129,0,0,1,3.145.087A2.652,2.652,0,0,1,66.878,94.563Zm-2.533,1.31s0.7,3.232,0,5.067-2.533,3.32-4.368,4.543-2.97,1.048-4.892-.175-1.747-4.892-1.572-6.028,1.223-2.621,1.922-2.708,3.407,0.874,6.115-.7A12.01,12.01,0,0,1,64.345,95.873Zm-4.979,0c-0.524,0-4.018.262-4.018,0.262a1.979,1.979,0,0,1,1.485-1.922,15.038,15.038,0,0,0,2.708-.087,15.377,15.377,0,0,0,1.747-1.136,3.328,3.328,0,0,1-.087,1.835A2.267,2.267,0,0,1,59.366,95.873ZM30.014,120.246c0.175-.7.175-3.494,0.349-4.193s1.922-1.631,1.922-1.631l3.145,3.2a9.576,9.576,0,0,1-.233,2.446C34.964,120.3,29.839,120.945,30.014,120.246Zm-2.1.116a52.014,52.014,0,0,0,5.183,1.515c1.631,0.291,1.864.116,1.98,0.466a5.794,5.794,0,0,1-1.048,4.484,6.581,6.581,0,0,1-5.358,1.922c-1.631-.175-5.183-2.8-5.824-3.96s0-4.31.641-6.232a6.621,6.621,0,0,1,2.446-3.494,10.093,10.093,0,0,1,3.727-.058,14.149,14.149,0,0,1-.291,4.134C29.2,119.314,27.917,120.362,27.917,120.362Z"/>
  <path class="cls-8" d="M72.968,43.842c3.436-3.2,8.27-10.076,8.27-10.076s0.175,4.077-3.378,8.62S64.028,54.878,64.028,54.878l-0.437,1.31C78.792,43.871,79.665,41.4,79.665,41.4c-0.291,2.854-3.144,6.231-6.057,9.026S64,58.692,64,58.692l-0.117,1.165c5.533-3.494,13.453-12.172,13.453-12.172s0.64,1.98-3.553,7.8a47.922,47.922,0,0,1-9.61,9.726l-0.058.874c5.706-2.738,11.938-12,11.938-12s1.223,2.271-2.912,8.5a25.717,25.717,0,0,1-8.852,8.561l-0.117.816c4.484-1.165,9.086-8.154,9.086-8.154C74.482,71.8,64.581,77.1,64.581,77.1V77.62c2.388-.058,4.426-2.678,4.426-2.678a8,8,0,0,1,.815,5.125s5.242,0.059,5.65.7S74.191,87,73.434,88.394c-0.712,1.314-4.051,5.409-5.269,5.409a0.4,0.4,0,0,1-.2-0.051c-0.99-.583-1.806-2.5-1.573-2.912s1.864-2.678,1.98-3.611a4.478,4.478,0,0,0-.465-2.1,4.329,4.329,0,0,1-1.791.331c-3.852,0-10.08-3.265-12.652-5.688-3.029-2.854-5.242-5.649-5.592-8.27S48.916,65.1,48.916,65.1c4.834-11.239,12.055-16.481,12.055-16.481,3.669,1.106.7,4.252,0.7,4.252s0.641,0.407.524,1.979a4.221,4.221,0,0,1-1.339,2.621,2.29,2.29,0,0,1,1.514.641c0.407,0.582-.758,1.34-0.758,1.34l0.816,0.407c1.689,2.8-.7,6.406-0.7,6.406,2.8,2.621.173,5.417,0.173,5.417,2.855,3.086.583,6.872,0.583,6.872l0.525,0.641s1.4-2.737.874-4.892-1.106-2.621-1.106-2.621a3.246,3.246,0,0,0,.815-3.029c-0.291-2.155-1.106-2.388-1.106-2.388,2.621-2.388.466-6.93,0.466-6.93a2.136,2.136,0,0,0-.466-2.272,4.6,4.6,0,0,0,.117-4.192s1.747-1.98,1.048-3.321A3.194,3.194,0,0,0,61.5,47.977L81,28.176c0.582,1.747-.059,6.115-4.717,11.24a85.451,85.451,0,0,1-12,10.25l0.174,1.281S69.532,47.045,72.968,43.842ZM50.9,66.788c-1.049,1.281-.641,4.077,1.63,4.251,0,0-2.1-2.1-1.048-3.378s4.135-5.067,4.135-5.067l0.058-.757S51.944,65.507,50.9,66.788ZM47.984,83.851a8.153,8.153,0,0,1-5.592-4.31c-1.747-3.669-.407-11.823,4.543-13.861a18.189,18.189,0,0,0,0,7.8,10.879,10.879,0,0,0,4.484,5.766ZM33.161,114.357c2.017-1.874,5.171-5.4,5.171-5.4,0.1,1.022,1.965,3.806,1.965,3.806-1.034.8-4.5,4.657-4.5,4.657A22.633,22.633,0,0,1,33.161,114.357Z"/>
</svg>
