<svg xmlns="http://www.w3.org/2000/svg" width="150" height="150" viewBox="0 0 150 150">
  <defs>
    <style>
      .cls-1 {
        fill: #d02e2e;
        fill-rule: evenodd;
      }

      .cls-2 {
        fill: #10257a;
      }

      .cls-3 {
        fill: #3c56b8;
      }

      .cls-4 {
        fill: #fafafa;
      }
    </style>
  </defs>
  <g id="Layer_2" data-name="Layer 2">
    <path class="cls-1" d="M75.42074,121.53935a56.269,56.269,0,0,1-56.269-56.269h56.269V9.00143A56.269,56.269,0,1,1,75.45,121.53935ZM31.57736,21.4633A56.28944,56.28944,0,0,1,71.3654,4.98239v56.269H15.09565A56.28952,56.28952,0,0,1,31.57736,21.4633Z"/>
    <g>
      <path class="cls-2" d="M116.0913,142.29517c1.42044,6.45057-8.28365,6.64228-10.24557,4.08756s.872-7.91964.872-7.91964l1.52594-2.55473S114.34738,134.37553,116.0913,142.29517Z"/>
      <path class="cls-2" d="M33.9087,142.29517c-1.42044,6.45057,8.28365,6.64228,10.24557,4.08756s-.872-7.91964-.872-7.91964l-1.52594-2.55473S35.65262,134.37553,33.9087,142.29517Z"/>
      <path class="cls-3" d="M75,147.00462a24.22862,24.22862,0,0,1-10.25532-2.29873c-7.91244-3.68814-12.5473-6.02728-20.37241-7.52017-5.85295-1.11663-10.46356,5.10945-10.46356,5.10945-1.09-4.08756-6.32174-12.0072-6.32174-12.0072,6.53973-15.5838,22.3598-9.27377,26.81289-6.3868,10.24558,6.64228,19.83718,5.85322,19.83718,5.85322H75.763s9.5916.78906,19.83718-5.85322c4.45309-2.887,20.27316-9.197,26.81289,6.3868,0,0-5.23178,7.91964-6.32174,12.0072,0,0-4.61061-6.22608-10.46356-5.10945-7.82511,1.49289-12.46,3.832-20.37241,7.52017A24.22862,24.22862,0,0,1,75,147.00462Z"/>
      <path class="cls-4" d="M71.8166,143.24023l3.709-9.40136H71.11348v-1.9502H79.0002l-4.46973,11.35156Z"/>
    </g>
  </g>
</svg>
