<svg xmlns="http://www.w3.org/2000/svg" width="150" height="150" viewBox="0 0 150 150">
  <defs>
    <style>
      .cls-1 {
        fill: #1a1a1a;
      }

      .cls-2 {
        fill: #c1272d;
      }

      .cls-3 {
        fill: #ccc;
      }

      .cls-4 {
        fill: #6b8594;
      }

      .cls-5 {
        fill: #f4f4f4;
      }

      .cls-6 {
        fill: #eee;
      }

      .cls-7 {
        fill: #333;
      }

      .cls-8 {
        fill: #fbb03b;
      }

      .cls-9 {
        fill: #fcee21;
      }
    </style>
  </defs>
  <g id="Layer_7" data-name="Layer 7">
    <g>
      <g>
        <path class="cls-1" d="M74.99951,142.3042A67.3042,67.3042,0,1,1,142.3042,75.00049,67.38,67.38,0,0,1,74.99951,142.3042Z"/>
        <path class="cls-2" d="M75,13.69568A61.30432,61.30432,0,1,1,13.69568,75,61.37372,61.37372,0,0,1,75,13.69568m0-12A73.30432,73.30432,0,1,0,148.30432,75,73.30432,73.30432,0,0,0,75,1.69568Z"/>
        <path class="cls-1" d="M75,7.69568A67.30432,67.30432,0,1,1,7.69568,75,67.3806,67.3806,0,0,1,75,7.69568m0-6A73.30432,73.30432,0,1,0,148.30432,75,73.30432,73.30432,0,0,0,75,1.69568Z"/>
        <path class="cls-3" d="M74.99951,148.8042A73.8042,73.8042,0,1,1,148.8042,75.00049,73.88755,73.88755,0,0,1,74.99951,148.8042Zm0-146.6084A72.8042,72.8042,0,1,0,147.8042,75.00049,72.88645,72.88645,0,0,0,74.99951,2.1958Z"/>
      </g>
      <g>
        <path class="cls-4" d="M115.43476,84.91306s5.6087-10.69565,7.69565-18.3913,3.39131-17.6087,1.95653-18-11.2174,8.087-11.2174,8.087-7.95652,13.95652-6.65217,19.56521S115.30433,85.4348,115.43476,84.91306Z"/>
        <path class="cls-5" d="M25.63041,52.69567s.19566,17.6087,10.95653,27.587S61.23911,95.34785,76.10867,92.80437,102.913,71.67393,103.5,68.5435c0,0-.19565-4.8913.587-6.06522s5.47826-3.71739,5.47826-3.71739,2.15217-3.32609,5.2826-1.56522a10.4446,10.4446,0,0,0-1.36956,1.95653,24.53952,24.53952,0,0,0-.3913,2.93478S112.5,77.9348,112.89128,79.5s2.73913,2.93478,3.32609,3.32609,11.54348-1.76087,11.54348-1.76087,2.15217,11.34782-7.63044,14.087c0,0,.587,5.86956-.587,9.19565,0,0-6.84783.97826-12.52174-7.43479,0,0-1.95652,9.587.97826,16.63044,0,0-5.86957,7.82609-22.5,3.913l-38.15218-14.087S31.5,96.32611,25.04346,80.47828,25.63041,52.69567,25.63041,52.69567Z"/>
        <path class="cls-2" d="M76.9565,92.34785a43.57743,43.57743,0,0,0,23.21739-18.52174L99.913,76.69567l2.86957-3.13043L102,77.21741l1.04348,1.17392a17.66679,17.66679,0,0,0,2.21739-2.2174c.13043-.3913,1.04348-2.47826,1.04348-2.47826l.3913,2.21739,2.21739-2.34782-1.17391,4.17391.78261.913,1.69565-3-.13043,4.43478,1.82608-1.17392.65218-1.04347,1.04347-3s1.82609,7.69565,2.6087,7.95652,8.73913-3,8.73913-3,3.78261,1.04348,2.80435,1.23913S126.78259,84,126.78259,84h3.26087l-2.6087,2.86957S129,89.34785,128.47824,89.47828s-3.65217,1.43478-3.13044,1.56522,1.69566,1.69565,1.17392,1.56522a37.05313,37.05313,0,0,0-4.56522.52174L120,94.17393l.78261,3.39131-1.30435,1.69565,1.56522,4.30435-3.26087.65217-2.73913.39131s-5.86957-1.82609-7.69566-6.52174c0,0,.913,8.73913,1.43479,9.913s2.47826,6.78261,2.47826,6.78261l-3.13044-.3913L108,117.6522l-2.47826-2.087-2.34783,3.3913-3.13043.913-3.13044.913-1.69565-1.56522-4.04348,1.04348-1.95652-1.43478-3.3913-20.47826-9.39131,3.78261,6.39131-6.52174-7.95653,1.56521,4.17392-3.13043L75,93.78263l2.087-.913Z"/>
        <polygon class="cls-2" points="106.957 66.652 104.087 73.304 107.739 69.913 108.652 73.043 110.739 73.304 112.826 67.565 110.348 69.783 111.13 66 109.304 68.217 108.522 65.609 106.957 66.652"/>
        <polygon class="cls-6" points="105.913 103.826 108.522 112.957 106.174 110.348 106.174 114.391 104.217 110.217 103.043 115.696 101.087 111.913 99.391 118.174 98.348 114.261 96.261 118.435 96.522 112.696 99.391 112.174 101.087 107.217 102.391 110.217 103.435 105.913 105.522 107.609 105.913 103.826"/>
        <polygon class="cls-6" points="109.174 95.348 111.913 98.217 112.304 96.783 117.13 99.913 114.13 95.217 114 96.913 111.261 95.087 109.174 95.348"/>
        <polygon class="cls-6" points="119.478 89.217 124.826 90 121.957 87.522 119.478 89.217"/>
        <polygon class="cls-6" points="118.174 83.609 123.783 82.043 120.522 84.522 127.565 84.522 122.087 85.696 125.609 88.174 117.783 86.217 119.739 85.957 118.174 83.609"/>
        <polygon class="cls-6" points="78.913 95.217 85.304 91.304 84.261 93.261 78.913 95.217"/>
        <polygon class="cls-6" points="82.043 98.348 87.522 93.261 87.522 95.348 82.043 98.348"/>
        <path class="cls-7" d="M108.65215,60.39133l-1.95652,1.82608,1.04348.913s1.30435-.913,1.30435-1.82609S108.65215,60.39133,108.65215,60.39133Z"/>
        <path class="cls-8" d="M109.5652,58.76089l3.65217,2.02174a5.85135,5.85135,0,0,1,1.63043-3.587S112.69563,54.6522,109.5652,58.76089Z"/>
        <path class="cls-8" d="M127.71338,84.99951l-.29688-.95508,3.57911-1.11035c.3291-.51465,1.3955-1.41015,4.82714-2.03515l.17969.98437c-3.71094.67481-4.17676,1.61328-4.18066,1.623l-.06348.2832-.26172.03613Z"/>
        <path class="cls-8" d="M131.32178,83.53662l-.99219-.11719c.3291-2.80078,1.17773-4.65332,2.52246-5.50683a3.02121,3.02121,0,0,1,2.43652-.38672l-.31152.95019a2.018,2.018,0,0,0-1.6084.293C132.31689,79.45166,131.60889,81.1001,131.32178,83.53662Z"/>
        <path class="cls-8" d="M135.6499,88.91748a6.95142,6.95142,0,0,1-4.79492-5.49023l.98633-.15821a5.949,5.949,0,0,0,4.07519,4.68457Z"/>
        <path class="cls-8" d="M129.36768,97.2583c-.05567-.01758-5.57325-1.78516-10.22657-1.2832l-.10742-.99414a29.7249,29.7249,0,0,1,10.64258,1.32617Z"/>
        <path class="cls-8" d="M125.90576,100.48975c-.35449-.17774-3.46582-1.79883-3.69629-3.74805a2.11,2.11,0,0,1,.8584-1.90625c1.7002-1.4375,3.1377-2.61328,3.1377-2.61328l.63281.77344c-.001.001-1.43262,1.17285-3.124,2.60351a1.15567,1.15567,0,0,0-.51172,1.02442c.14062,1.19824,2.37988,2.583,3.15332,2.97363Z"/>
        <path class="cls-4" d="M101.3478,91.56524A11.91884,11.91884,0,0,0,93.65215,93C90,95.21741,82.69563,102.78263,82.43476,103.17393s-2.73913.52174-2.73913.52174-24.78261.26087-27.913-.26087c-2.602-.43366-16.95652-.52174-19.82609,1.30435s-3.913,7.69565-1.82609,11.21739,29.73913,7.69566,33.13044,8.47826,11.86956.52174,13.82609-.13043,22.43478-15.913,25.82608-21.52174,3-9.52174,2.34783-10.04348S101.3478,91.56524,101.3478,91.56524Z"/>
        <path class="cls-5" d="M114.13041,76.4348S123.26085,60,125.08694,48.52176a13.84572,13.84572,0,0,1,1.69565,4.43478c.3913,2.34783-5.34783,25.17392-9.78261,29.34783l-.913-2.47826s5.60869-6.13044,9.13043-23.6087c0,0-3.78261,16.17392-10.43478,22.82609Z"/>
        <path class="cls-5" d="M103.5652,91.69567S90,106.0435,87.65215,107.087s-34.30435-.65218-35.087-.65218-16.69566-.3913-18.78261.26087S27.39128,114,31.69563,117.6522c0,0-4.30435-2.34783-3.52174-7.04348s4.43478-6.78261,5.73913-6.913,45.91305,2.087,49.82609,1.56522S99.913,91.30437,99.913,91.30437A3.33658,3.33658,0,0,1,103.5652,91.69567Z"/>
        <rect class="cls-7" x="65.45122" y="102.05636" width="2.53041" height="5.08696" rx="1.12344" transform="translate(50.59443 -18.41353) rotate(25.0642)"/>
        <rect class="cls-7" x="117.4947" y="69.96941" width="2.53041" height="5.08696" rx="1.12344" transform="translate(191.27279 -46.24702) rotate(90)"/>
        <rect class="cls-7" x="122.05991" y="58.88245" width="2.53041" height="5.08696" rx="1.12344" transform="translate(184.75105 -61.89919) rotate(90)"/>
        <rect class="cls-7" x="120.03912" y="64.36959" width="2.53041" height="5.08696" rx="1.12344" transform="translate(188.21739 -54.39126) rotate(90)"/>
        <rect class="cls-7" x="73.14687" y="102.25202" width="2.53041" height="5.08696" rx="1.12344" transform="translate(51.40199 -21.65524) rotate(25.0642)"/>
        <rect class="cls-7" x="79.53818" y="102.1868" width="2.53041" height="5.08696" rx="1.12344" transform="translate(51.9762 -24.36895) rotate(25.0642)"/>
      </g>
      <g>
        <g>
          <path class="cls-9" d="M34.20068,37.00342l1.8877,1.98437,2.61035-2.47949,1.52734,1.60449-2.61035,2.48145,3.377,3.55176-1.74512,1.65722-8.32422-8.751,4.7373-4.50293,1.53125,1.61035Z"/>
          <path class="cls-1" d="M39.23877,46.15674l-.17188-.18164-8.49707-8.93164,5.09961-4.84766,1.876,1.97266L34.5542,37.01221l1.543,1.62207,2.61035-2.47949,1.87207,1.96679L37.96924,40.603l3.377,3.55176ZM31.27686,37.061l7.97949,8.38867,1.38281-1.3125-3.37695-3.55176L39.87256,38.104l-1.18262-1.24218-2.61035,2.47949-2.23242-2.34668,2.99121-2.84375-1.18652-1.248Z"/>
        </g>
        <g>
          <path class="cls-9" d="M44.96436,40.648l-7.2168-9.68359,1.916-1.42872,7.21778,9.68457Z"/>
          <path class="cls-1" d="M44.91357,40.99756,37.398,30.91357,39.71436,29.186,47.231,39.271Zm-6.8164-9.98242,6.918,9.2832,1.5166-1.12891-6.919-9.28418Z"/>
        </g>
        <g>
          <path class="cls-9" d="M45.62842,25.61865a7.45825,7.45825,0,0,1,3.13086-1.02636l.75683,1.98632a8.34351,8.34351,0,0,0-3.042,1.11133c-.834.46289-1.05176,1.3877-.43555,2.49707l1.94434,3.49317c.56543,1.0166,1.42285,1.43945,2.2998.96582l.20606-.11231a2.73947,2.73947,0,0,0,1.09863-.98437L50.355,31.3335l-1.30176.72363-.96679-1.73535,3.09765-1.72266,2.93555,5.2793a5.7967,5.7967,0,0,1-2.44531,2.54394l-.37207.207c-2.11817,1.15723-4.15332.47461-5.44922-1.85546l-1.86817-3.3584c-1.38574-2.49121-.65136-4.52246,1.29981-5.60742Z"/>
          <path class="cls-1" d="M49.30518,37.437a4.27266,4.27266,0,0,1-3.6709-2.542l-1.86817-3.3584a4.74272,4.74272,0,0,1-.624-3.5166,3.97443,3.97443,0,0,1,2.02148-2.43066l.34375-.18946a7.72117,7.72117,0,0,1,3.22852-1.05664l.18945-.01758.93457,2.45215-.30468.04785a8.01773,8.01773,0,0,0-2.959,1.083,1.18648,1.18648,0,0,0-.63769.834,2.01327,2.01327,0,0,0,.29882,1.32324l1.94434,3.49219c.24805.44726.93945,1.42089,1.96191.86816l.20508-.11231a2.59157,2.59157,0,0,0,.92676-.77539L50.2583,31.67334l-1.30176.72363-1.21-2.17187,3.53418-1.96582,3.124,5.61816-.06641.1211a6.04006,6.04006,0,0,1-2.543,2.64257l-.37207.207A4.41833,4.41833,0,0,1,49.30518,37.437ZM45.74951,25.8374l-.34375.18946a3.4864,3.4864,0,0,0-1.78027,2.12207,4.25554,4.25554,0,0,0,.57812,3.1455l1.86817,3.3584c1.23242,2.21778,3.0957,2.8584,5.11035,1.75684l.37109-.20606a5.44628,5.44628,0,0,0,2.28028-2.32519L51.0874,28.939l-2.66113,1.4795.72363,1.29883,1.30176-.72364,1.42578,2.5625-.07715.125a3.0151,3.0151,0,0,1-1.19043,1.07129l-.207.11328c-.9707.52539-1.98047.11817-2.63867-1.06445l-1.94434-3.49219a2.4958,2.4958,0,0,1-.35253-1.66015,1.689,1.689,0,0,1,.88574-1.17774,8.72273,8.72273,0,0,1,2.82129-1.08691l-.58008-1.52344a7.33392,7.33392,0,0,0-2.84473.97656Z"/>
        </g>
        <g>
          <path class="cls-9" d="M61.23584,32.2749l-1.53223-4.6748-3.13867,1.02929,1.53125,4.67676-2.27441.7461L52.061,22.57764l2.27539-.7461,1.53808,4.69239,3.13965-1.03028L57.4751,20.80127l2.28125-.75,3.76074,11.47461Z"/>
          <path class="cls-1" d="M55.66162,34.36768l-3.916-11.9502,2.751-.90137,1.53711,4.69239,2.665-.874-1.53906-4.69238,2.75586-.90625,3.917,11.94922-2.75586.90527-1.5332-4.6748-2.66309.874,1.53125,4.67578ZM52.37646,22.73779l3.60547,10.999,1.79883-.58985-1.53125-4.67773,3.61426-1.18457,1.53125,4.6748,1.80664-.59277-3.60449-11-1.80664.59375,1.53906,4.69238-3.61523,1.18653L54.17627,22.147Z"/>
        </g>
        <g>
          <path class="cls-9" d="M68.397,20.84717l1.27832,9.793-2.38086.30957-1.27734-9.79395-2.85547.373-.2832-2.17969,8.05176-1.04785L71.21533,20.48Z"/>
          <path class="cls-1" d="M67.07861,31.23,65.80127,21.436l-2.85547.373-.34766-2.67578L71.146,18.021l.34961,2.6748-2.81836.36719,1.27832,9.793Zm-.8457-10.35449,1.27734,9.79394,1.88477-.24511-1.27832-9.793,2.81836-.36719-.2207-1.68262-7.55567.9834.21875,1.6836Z"/>
        </g>
        <g>
          <path class="cls-9" d="M73.606,30.39014l.00488-12.0752h2.39062l-.00585,12.07715Z"/>
          <path class="cls-1" d="M76.24561,30.64209l-2.88965-.002.00488-12.5752h2.89062Zm-2.38965-.502,1.88965.002.00585-11.57715H73.86084Z"/>
        </g>
        <g>
          <path class="cls-9" d="M83.34229,31.11572l-2.59571-7.709-1.01172,7.20215-2.333-.32715L79.0835,18.31982l2.29.32227,2.58789,7.76855L84.981,19.148l2.34082.32812L85.64209,31.438Z"/>
          <path class="cls-1" d="M85.855,31.72021l-2.70019-.37792-2.30762-6.85352-.89942,6.40234-2.82812-.39648.03418-.248,1.7168-12.209,2.6914.3789,2.29981,6.9043.90625-6.45508,2.83593.39746Zm-2.32519-.83105,1.89941.2666L87.03955,19.689l-1.8457-.25878L84.061,27.50049l-2.876-8.63281L79.29639,18.602l-1.61231,11.4668,1.83789.25781,1.124-8.002Z"/>
        </g>
        <g>
          <path class="cls-9" d="M94.55127,21.49756a7.496,7.496,0,0,1,2.86035,1.63769l-.96582,1.89161a8.38575,8.38575,0,0,0-2.86621-1.51368c-.90332-.30957-1.73535.14746-2.14453,1.34864l-1.291,3.78125c-.376,1.09961-.11328,2.01855.82422,2.35351l.22266.07617a2.74247,2.74247,0,0,0,1.46777.15723l.81836-2.39746-1.41016-.48242.64161-1.87891L96.062,27.61768l-1.95117,5.71289a5.80028,5.80028,0,0,1-3.52734-.11328l-.40235-.13672c-2.27929-.79688-3.13769-2.76563-2.27734-5.28809L89.145,24.15967c.91992-2.69629,2.9209-3.51172,5.03418-2.78906Z"/>
          <path class="cls-1" d="M92.44678,33.79932a5.85232,5.85232,0,0,1-1.94434-.34571l-.40137-.13672c-2.43261-.8496-3.34082-2.94531-2.43359-5.60546l1.24121-3.63282a4.73405,4.73405,0,0,1,2.19238-2.81836,3.97183,3.97183,0,0,1,3.15918-.126l.37305.127a7.75973,7.75973,0,0,1,2.94727,1.68945l.14062.12891-1.19238,2.335-.24024-.19336a8.08561,8.08561,0,0,0-2.79-1.47168,1.22166,1.22166,0,0,0-.95411.03418,1.9057,1.9057,0,0,0-.873,1.15918l-1.291,3.78125c-.16406.48145-.42871,1.64356.67188,2.03711l.21972.0752a2.65221,2.65221,0,0,0,1.19922.16894l.68848-2.01758-1.41016-.48242.80274-2.35156,3.82714,1.30859-2.07617,6.08008-.13476.03125A7.45289,7.45289,0,0,1,92.44678,33.79932Zm.31054-12.42871a3.10884,3.10884,0,0,0-1.42871.335,4.25527,4.25527,0,0,0-1.94726,2.53515l-1.24121,3.63282c-.81836,2.40136-.04493,4.21289,2.123,4.9707l.40039.13672a5.46082,5.46082,0,0,0,3.25586.13672l1.8252-5.34473-2.87988-.98438-.48047,1.40625,1.41015.48243-.94629,2.77246-.14453.02636a2.99172,2.99172,0,0,1-1.59375-.167l-.22265-.07617c-1.042-.37207-1.416-1.39453-.9795-2.6709l1.291-3.78125a2.38563,2.38563,0,0,1,1.125-1.44531,1.717,1.717,0,0,1,1.33691-.05859,8.75427,8.75427,0,0,1,2.7002,1.36621l.74023-1.4502a7.36373,7.36373,0,0,0-2.63086-1.459l-.37207-.127A4.15929,4.15929,0,0,0,92.75732,21.37061Z"/>
        </g>
      </g>
      <g>
        <g>
          <path class="cls-9" d="M35.92041,60.57764l2.2959,1.12207,1.47363-3.02149,1.85938.90821-1.47461,3.02246,4.10742,2.00781-.98633,2.01855L33.07275,61.686l2.67579-5.48243,1.8623.91114Z"/>
          <path class="cls-1" d="M43.311,66.96924l-10.57227-5.168,2.89453-5.93262,2.31152,1.13086L36.25439,60.4624l1.84668.90235,1.47364-3.02051,2.30859,1.127-1.47461,3.02246,4.10742,2.00781Zm-9.9043-5.39844,9.67383,4.73047.76757-1.56934-4.10742-2.00781,1.47461-3.02246-1.41015-.68945-1.47364,3.02246-2.74511-1.3418L37.27686,57.23l-1.41309-.69141Z"/>
        </g>
        <g>
          <path class="cls-9" d="M39.48877,49.37646l1.60547-1.72753a2.12186,2.12186,0,0,1,2.91992-.47754l7.60156,7.0498-1.58984,1.71192L46.2251,52.40869l-1.60449,1.72852,3.80078,3.52441-1.58887,1.71289-7.60059-7.0498A2.12313,2.12313,0,0,1,39.48877,49.37646Zm3.19531-.252a.41479.41479,0,0,0-.56836.0918l-.98633,1.06348a.41347.41347,0,0,0-.05078.57226l2.21094,2.05176L44.894,51.17334Z"/>
          <path class="cls-1" d="M46.84619,59.728,39.062,52.5083a1.87371,1.87371,0,0,1-.55664-1.58008,2.94158,2.94158,0,0,1,.79981-1.72168L40.91064,47.479a2.94922,2.94922,0,0,1,1.65625-.92773,1.87749,1.87749,0,0,1,1.61719.43652l7.78516,7.21973-1.92969,2.0791-3.80078-3.52441-1.26465,1.36133L48.7749,57.648ZM39.67236,49.54639a2.44875,2.44875,0,0,0-.66894,1.42578,1.38183,1.38183,0,0,0,.39844,1.16894l7.417,6.87989,1.249-1.34571-3.80078-3.52441,1.94434-2.0957,3.80078,3.52441,1.25-1.34473-7.418-6.87988a1.38288,1.38288,0,0,0-1.19629-.30957,2.43938,2.43938,0,0,0-1.37012.77344Zm3.63086,3.71093-2.39453-2.22168a.5674.5674,0,0,1-.1709-.47265.77891.77891,0,0,1,.208-.45313l.98633-1.06347a.77617.77617,0,0,1,.4375-.24121.56045.56045,0,0,1,.48437.13671l2.39356,2.21778Zm-.8291-3.96093a.10227.10227,0,0,0-.02344.00293.27441.27441,0,0,0-.15234.08691L41.313,50.44971a.28339.28339,0,0,0-.07715.1582l.0127.06055,2.02734,1.88183L44.54053,51.187l-2.02637-1.87988A.06326.06326,0,0,0,42.47412,49.29639Z"/>
        </g>
        <g>
          <path class="cls-9" d="M59.561,46.312l1.03906,1.78028L55.27,51.20264,49.59521,41.48l1.93458-1.12988,4.63476,7.94433Z"/>
          <path class="cls-1" d="M55.18018,51.54443,49.25342,41.39014l2.36621-1.38184,4.63476,7.94434,3.39649-1.98243,1.291,2.21192ZM49.937,41.56982l5.42285,9.291,4.89844-2.8584-.78711-1.34863-3.39648,1.98242-4.63477-7.94434Z"/>
        </g>
        <g>
          <path class="cls-9" d="M65.53076,34.69678a7.708,7.708,0,0,1,2.15918-.126l.29981,1.8916a13.079,13.079,0,0,0-1.99317.25489l-.24414.05566a1.59347,1.59347,0,0,0-1.02734,2.11914l.84082,3.63867c.2666,1.1543,1.07617,1.63281,1.85449,1.45215l.24219-.05762a13.06246,13.06246,0,0,0,1.90234-.64648l.56055,1.831a7.70074,7.70074,0,0,1-1.9961.8291l-.35742.083c-1.90625.44043-3.82031-.56152-4.39843-3.05664l-.8086-3.501c-.57617-2.49415.70313-4.24415,2.60938-4.68555Z"/>
          <path class="cls-1" d="M66.90576,46.37354A3.94077,3.94077,0,0,1,63.13037,43.022l-.80859-3.501c-.56055-2.42481.58984-4.47461,2.7959-4.98536l.35742-.082a7.95625,7.95625,0,0,1,2.23242-.13183l.19824.01367.374,2.3623-.27637.01465a12.9167,12.9167,0,0,0-1.95313.249l-.24218.05566a1.108,1.108,0,0,0-.74024.56738,1.78964,1.78964,0,0,0-.09961,1.251l.84082,3.63867a1.73007,1.73007,0,0,0,.708,1.127,1.088,1.088,0,0,0,.84668.13868l.24121-.05762a12.6303,12.6303,0,0,0,1.86231-.63379l.25585-.1084.69922,2.28613-.1709.09961a8.09972,8.09972,0,0,1-2.06542.85645l-.35743.083A4.06363,4.06363,0,0,1,66.90576,46.37354ZM67.022,34.79736a6.54631,6.54631,0,0,0-1.43457.14258h-.001l-.35645.082c-1.62207.376-3.001,1.87793-2.42187,4.38574l.80859,3.501c.581,2.50293,2.47656,3.24414,4.09863,2.87012l.35742-.083a7.35034,7.35034,0,0,0,1.75489-.70508l-.4209-1.376a12.97745,12.97745,0,0,1-1.68555.55371l-.24316.05761a1.59852,1.59852,0,0,1-1.22559-.20019,2.21471,2.21471,0,0,1-.92969-1.43848l-.84082-3.63867a2.27259,2.27259,0,0,1,.14453-1.59863,1.59988,1.59988,0,0,1,1.06934-.82031l.24512-.05665A12.94172,12.94172,0,0,1,67.69971,36.23l-.22559-1.42187C67.34131,34.80225,67.188,34.79736,67.022,34.79736Z"/>
        </g>
        <g>
          <path class="cls-9" d="M78.76807,33.95361a3.74143,3.74143,0,0,1,3.28906,4.28321l-.30859,3.57129a3.69549,3.69549,0,0,1-3.97266,3.65429l-.44141-.03906c-2.206-.19141-3.45508-2-3.25879-4.28125l.3086-3.57031a3.65116,3.65116,0,0,1,3.94336-3.65625Zm-.51368,2.03614c-.80273-.06348-1.54492.57226-1.64257,1.70507l-.32032,3.71485a1.6172,1.6172,0,0,0,1.32911,1.95508l.23535.0205c.77148.0625,1.56054-.49023,1.66406-1.69629l.32031-3.71484a1.65314,1.65314,0,0,0-1.34765-1.96387Z"/>
          <path class="cls-1" d="M78.10693,45.72705c-.11718,0-.23437-.00488-.35254-.01562l-.44238-.03907c-2.26562-.19629-3.69922-2.06836-3.48535-4.55175l.30859-3.57032a4.38244,4.38244,0,0,1,1.37012-2.96484,3.70057,3.70057,0,0,1,2.84375-.919l.44043.03809a3.9864,3.9864,0,0,1,3.5166,4.55371l-.30859,3.57129a4.43874,4.43874,0,0,1-1.36328,2.93164A3.71476,3.71476,0,0,1,78.10693,45.72705Zm-.11328-11.57617a3.18986,3.18986,0,0,0-2.15429.80664,3.89808,3.89808,0,0,0-1.20606,2.63574l-.30859,3.57031c-.19141,2.22461,1.02636,3.83692,3.03125,4.01075l.44238.03906a3.26045,3.26045,0,0,0,2.5-.82227,3.93915,3.93915,0,0,0,1.20117-2.60449l.3086-3.57129a3.49409,3.49409,0,0,0-3.06153-4.01269l-.44043-.03809C78.20166,34.15576,78.09717,34.15088,77.99365,34.15088Zm-.02246,9.48926c-.0459,0-.09082-.002-.13574-.00586l-.23633-.02051a1.87145,1.87145,0,0,1-1.55664-2.22559l.32031-3.71484a1.86769,1.86769,0,0,1,1.91114-1.93262l.24023.02051a1.906,1.906,0,0,1,1.5752,2.23438L79.769,41.71045A1.86954,1.86954,0,0,1,77.97119,43.64014Zm.16895-7.40528c-.68262,0-1.20313.59473-1.2793,1.48145l-.32031,3.71484c-.09278,1.07813.50683,1.62891,1.10351,1.68457l.2334.02051c.62793.0625,1.30078-.38379,1.39356-1.46875l.32031-3.71484a1.40541,1.40541,0,0,0-1.12207-1.69336l-.23535-.02051C78.20166,36.23682,78.17041,36.23486,78.14014,36.23486Z"/>
        </g>
        <g>
          <path class="cls-9" d="M90.17334,48.90088,89.87939,41.314l-2.80273,6.1836-2.00293-.9082L89.731,36.3208l1.96679.8916.27149,7.6377,2.82617-6.2334,2.00977.91016L92.14893,49.79639Z"/>
          <path class="cls-1" d="M92.273,50.12744l-2.34375-1.0625-.25879-6.68457-2.46973,5.44824-2.458-1.11523,4.86425-10.72363,2.335,1.05859.23926,6.72852,2.49024-5.49122,2.46484,1.11622Zm-1.85547-1.39062,1.60742.72851,4.44922-9.81347-1.55469-.70411-3.16211,6.97559-.30371-8.54688-1.59863-.7246-4.45019,9.81347,1.54785.70117,3.13574-6.91894Z"/>
        </g>
        <g>
          <path class="cls-9" d="M101.86182,47.022c1.80078-1.80078,3.3457-1.43457,4.7041-.07715a5.85861,5.85861,0,0,1,1.60449,2.26661l-1.63574,1.376a5.18326,5.18326,0,0,0-1.42676-2.10156.916.916,0,0,0-1.374-.09082l-.11621.11719a.9688.9688,0,0,0-.251.94043l.69824,2.09863a2.60148,2.60148,0,0,1-.72461,3.30176l-.16015.1582c-1.75879,1.7334-3.34278,1.55566-4.83008.07129a7.55968,7.55968,0,0,1-1.83985-2.55762l1.61621-1.38379a7.54264,7.54264,0,0,0,1.82325,2.56934,1.017,1.017,0,0,0,1.44922-.11133l.17382-.17578a1.062,1.062,0,0,0,.28907-1.05371l-.75586-2.17481a2.38162,2.38162,0,0,1,.623-3.03906Z"/>
          <path class="cls-1" d="M100.70264,56.50342a3.627,3.627,0,0,1-2.5293-1.24414,7.86263,7.86263,0,0,1-1.89551-2.6416l-.0664-.166,2.0039-1.71582.13867.30078a7.28833,7.28833,0,0,0,1.77051,2.49512.77428.77428,0,0,0,1.09766-.10938l.17285-.1748a.81245.81245,0,0,0,.22559-.8125l-.751-2.1582a2.62417,2.62417,0,0,1,.68164-3.29688l.13379-.13477c1.70215-1.70019,3.4043-1.73046,5.05762-.07714a6.14943,6.14943,0,0,1,1.66406,2.36132l.05664.16211L106.40967,51.019l-.11328-.35547a4.9058,4.9058,0,0,0-1.36524-2.001.67287.67287,0,0,0-1.02051-.09082l-.11523.11621a.71688.71688,0,0,0-.1875.69824l.69434,2.08594a2.83919,2.83919,0,0,1-.78516,3.55762l-.16113.15917A3.85717,3.85717,0,0,1,100.70264,56.50342ZM96.812,52.59619a7.67438,7.67438,0,0,0,1.71485,2.30957c1.49218,1.49024,2.916,1.46582,4.47753-.07226l.16016-.15821a2.35637,2.35637,0,0,0,.666-3.03711l-.70118-2.10644a1.22094,1.22094,0,0,1,.31153-1.19629l.11523-.11621a1.16087,1.16087,0,0,1,1.72852.08984,5.95017,5.95017,0,0,1,1.36035,1.8584l1.22949-1.03418a5.912,5.912,0,0,0-1.48535-2.01172c-1.458-1.45605-2.83984-1.43262-4.34961.07617l-.13281.13379a2.14933,2.14933,0,0,0-.56543,2.77832l.75683,2.17774a1.31433,1.31433,0,0,1-.34863,1.3125l-.17285.1748a1.25839,1.25839,0,0,1-1.80273.11328,7.726,7.726,0,0,1-1.7334-2.34472Z"/>
        </g>
      </g>
      <polygon class="cls-9" points="28.318 45.707 31.043 47.043 33.155 44.865 32.726 47.869 35.45 49.205 32.461 49.725 32.032 52.729 30.614 50.047 27.624 50.567 29.737 48.389 28.318 45.707"/>
      <polygon class="cls-9" points="101.65 29.85 104.066 31.655 106.428 29.772 105.559 32.771 107.975 34.576 105.022 34.624 104.153 37.623 103.197 34.654 100.244 34.703 102.606 32.819 101.65 29.85"/>
      <polygon class="cls-9" points="108.812 35.656 111.001 37.762 113.563 36.201 112.354 39.064 114.542 41.171 111.606 40.834 110.397 43.696 109.792 40.625 106.855 40.288 109.417 38.727 108.812 35.656"/>
      <polygon class="cls-9" points="114.81 42.517 116.817 44.819 119.498 43.502 118.058 46.241 120.065 48.543 117.168 47.934 115.728 50.674 115.377 47.558 112.48 46.95 115.161 45.633 114.81 42.517"/>
    </g>
  </g>
</svg>
