<svg id="allies_tunisia_rifle_1_icon" xmlns="http://www.w3.org/2000/svg" width="150" height="150" viewBox="0 0 150 150">
  <defs>
    <style>
      .cls-1 {
        fill: #f4f4f4;
      }

      .cls-1, .cls-2, .cls-3, .cls-4 {
        fill-rule: evenodd;
      }

      .cls-2 {
        fill: #2a3bb9;
      }

      .cls-3 {
        fill: #ffc231;
      }

      .cls-4 {
        fill: #c52525;
      }
    </style>
  </defs>
  <path class="cls-1" d="M75,147.284a1.266,1.266,0,0,1-1.111-.659,17.262,17.262,0,0,0-1.451-2.292c-1.87-2.068-3.592-3.161-4.979-3.161H30.979a15.156,15.156,0,0,1-15.212-15.065V3.732a1.266,1.266,0,0,1,1.266-1.266H132.967a1.266,1.266,0,0,1,1.266,1.266V126.107a15.156,15.156,0,0,1-15.212,15.065H82.543c-1.387,0-3.109,1.093-4.979,3.161a17.237,17.237,0,0,0-1.454,2.293,1.266,1.266,0,0,1-1.111.658h0Z"/>
  <path id="Shape_246_copy" data-name="Shape 246 copy" class="cls-2" d="M129.457,120.266c-4.014-3.787-6.264-5.911-10.278-9.7v-14.4l-6.69-4.554h21.42v24.445Zm-10.278-68.2v-14.4l-6.69-4.554h21.42V57.566l-4.452,4.2Zm2.34-29.127-10.278,9.7-10.277-9.7V8.3L94.273,3.744h33.936L121.519,8.3V22.943Zm-36.242,0L75,32.64l-10.278-9.7V8.3L58.032,3.744H91.968L85.277,8.3V22.943Zm-36.241,0-10.277,9.7-10.277-9.7V8.3L21.791,3.744H55.727L49.036,8.3V22.943ZM30.821,37.675v14.4l-10.277,9.7-4.181-3.945v-24.7h21.15Zm0,58.5v14.4l-10.277,9.7-4.181-3.946V91.62h21.15Zm18.216,29.185v14.395l-1.5,1.419H30.979c-0.348,0-.693-0.016-1.036-0.039l-1.462-1.38V125.358L21.791,120.8H55.727ZM46.7,96.174L40.006,91.62H73.942l-6.691,4.554v14.4l-10.277,9.7-10.277-9.7v-14.4Zm38.581,29.185v14.395l-1.5,1.419H82.543c-1.387,0-3.109,1.093-4.979,3.161a17.237,17.237,0,0,0-1.454,2.293,1.266,1.266,0,0,1-1.111.658h0a1.266,1.266,0,0,1-1.111-.659,17.262,17.262,0,0,0-1.451-2.292c-1.87-2.068-3.592-3.161-4.979-3.161H66.226l-1.5-1.419V125.358L58.032,120.8H91.968Zm-2.34-29.184L76.247,91.62h33.937l-6.691,4.554v14.4l-10.277,9.7-10.278-9.7v-14.4Zm20.555-58.5v14.4l-10.277,9.7-10.278-9.7v-14.4l-6.691-4.554h33.937ZM85.277,66.994v14.4L75,91.086l-10.278-9.7v-14.4L58.032,62.44H91.968ZM67.252,37.675v14.4l-10.277,9.7L46.7,52.07v-14.4l-6.691-4.554H73.942ZM38.759,91.086l-10.277-9.7v-14.4L21.791,62.44H55.727l-6.691,4.554v14.4Zm72.482,0-10.277-9.7v-14.4L94.273,62.44h33.936l-6.69,4.554v14.4Zm10.278,34.272v14.395l-1.462,1.38c-0.343.023-.688,0.039-1.036,0.039H102.467l-1.5-1.419V125.358L94.273,120.8h33.936Z"/>
  <path id="Shape_246_copy_2" data-name="Shape 246 copy 2" class="cls-3" d="M132.967,1.2H17.033A2.532,2.532,0,0,0,14.5,3.732V126.107a16.424,16.424,0,0,0,16.479,16.331H67.457c0.469,0,1.8.267,4.04,2.744a17.028,17.028,0,0,1,1.279,2.05,2.533,2.533,0,0,0,4.444,0,17.043,17.043,0,0,1,1.283-2.052c2.24-2.477,3.571-2.744,4.04-2.744h36.478A16.424,16.424,0,0,0,135.5,126.107V3.732A2.532,2.532,0,0,0,132.967,1.2Zm0,31.038H112.945l9.445-8.911V8.768l7.4-5.036h3.179V32.239ZM120.648,139.369l-0.518.489c-0.366.029-.735,0.047-1.109,0.047H102.4l-0.568-.536V124.888l-4.7-3.2h28.221l-4.7,3.2v14.481Zm-56.8.536H49.907V125.828l6.788-4.62,0.279,0.263,0.2-.188,6.678,4.545v14.077Zm-33.982-.047-0.518-.489V124.888l-4.7-3.2H52.869l-4.7,3.2v14.481l-0.569.536H30.979C30.605,139.905,30.236,139.887,29.87,139.858ZM24.648,4.626H52.869l-4.7,3.2V22.559l-9.407,8.875-9.407-8.875V7.828ZM127.957,61.558H94.715l9.649-9.1V38.145l6.642-4.521,0.235,0.222,0.315-.3,6.753,4.6V52.454Zm-34.741,57.5-9.407-8.875V95.7l-4.7-3.2h28.221l-4.7,3.2v14.482ZM76.8,90.737H76.647l9.5-8.964V67.464l6.871-4.677,0.2,0.185,0.117-.11,6.761,4.6V81.773l9.5,8.964H76.8ZM56.974,119.06l-9.407-8.875V95.7l-4.7-3.2H71.085l-4.7,3.2v14.482ZM40.406,90.737l9.5-8.964V67.464l6.871-4.677,0.2,0.185,0.117-.11,6.761,4.6V81.773l9.5,8.964H40.406ZM24.648,63.322H52.869l-4.7,3.2V81.005L38.759,89.88l-9.407-8.875V66.524ZM42.864,34H71.085l-4.7,3.2V51.686l-9.407,8.876-9.407-8.876V37.2Zm66.674-1.764H76.7l9.445-8.911V8.768l6.972-4.746,6.972,4.746V23.327ZM79.105,34h28.221l-4.7,3.2V51.686l-9.406,8.876-9.407-8.876V37.2Zm5.3-26.175V22.559L75,31.435l-9.407-8.875V7.828l-4.7-3.2H89.111Zm-20.555.94V23.327L73.3,32.239H40.462l9.445-8.911V8.768l6.973-4.746Zm4.27,43.686V38.145l6.643-4.521L75,33.846l0.315-.3,6.753,4.6V52.454l9.649,9.1H58.474ZM60.89,63.322H89.111l-4.7,3.2V81.005L75,89.88l-9.407-8.875V66.524Zm40.945,17.683V66.524l-4.7-3.2h28.221l-4.7,3.2V81.005l-9.407,8.875Zm0-58.446V7.828l-4.7-3.2h28.221l-4.7,3.2V22.559l-9.407,8.875ZM38.759,33.846l0.315-.3,6.753,4.6V52.454l9.648,9.1H22.042l9.649-9.1V38.145l6.753-4.6ZM29.95,37.2V51.686l-9.407,8.876-3.51-3.312V34H34.653ZM19.043,61.558h-0.11l0.4,0.27,1.213,1.145,0.2-.185,6.871,4.677V81.773l9.5,8.964H17.033V59.661ZM34.653,92.5l-4.7,3.2v14.482l-9.407,8.875-3.51-3.312V92.5H34.653Zm-2.962,18.451V96.644l6.786-4.618,0.282,0.266,0.282-.266,6.785,4.618v14.309l9.506,8.969H22.185Zm36.431,0V96.644L74.8,92.1,75,92.292l0.282-.266,6.785,4.618v14.309l9.506,8.969H58.616Zm24.814,10.255,0.279,0.263,0.2-.188,6.678,4.545v14.077H86.148V125.828Zm1.921-1.286,9.506-8.969V96.644l6.675-4.543,0.2,0.191,0.282-.266,6.786,4.618v14.309l9.506,8.969H94.858Zm34.6-.862-9.407-8.875V95.7l-4.7-3.2h17.62v23.246ZM113.041,90.737h-0.152l9.5-8.964V67.464l6.871-4.677,0.2,0.185,1.213-1.145,0.4-.27h-0.111l2.011-1.9V90.737H113.041Zm16.416-30.176-9.407-8.876V37.2l-4.7-3.2h17.62V57.249ZM20.212,3.732l7.4,5.036V23.327l9.445,8.911H17.033V3.732h3.18Zm-3.18,122.375v-7.948l3.51,3.312,0.279-.263,6.788,4.62V139.5A13.832,13.832,0,0,1,17.033,126.107Zm59.592,17.376A19.463,19.463,0,0,0,75,146.018a19.365,19.365,0,0,0-1.624-2.535c-1.495-1.653-3.676-3.578-5.918-3.578h-1.3l-0.568-.536V124.888l-4.7-3.2H89.111l-4.7,3.2v14.481l-0.569.536h-1.3C80.3,139.905,78.12,141.83,76.625,143.483ZM122.39,139.5v-13.67l6.788-4.62,0.279,0.263,3.51-3.312v7.948A13.832,13.832,0,0,1,122.39,139.5Z"/>
  <path id="Shape_246_copy_3" data-name="Shape 246 copy 3" class="cls-4" d="M99.845,103.41l2.37-7.292-6.2-4.507L90.4,95.69,79.023,87.427,81.2,80.715,75,76.208l-6.2,4.507,2.181,6.712L59.6,95.69l-5.615-4.08-6.2,4.507,2.37,7.292h6.767l4.34,13.358-5.426,3.943L58.2,128h7.668l2.023-6.226H82.1L84.127,128H91.8l2.37-7.292-5.426-3.943,4.34-13.358h6.767Z"/>
  <path id="Shape_246_copy_4" data-name="Shape 246 copy 4" class="cls-3" d="M92.445,128.9H83.478l-2.023-6.226H68.546L66.523,128.9H57.555l-2.771-8.529,5.427-3.942-3.939-12.122H49.505l-2.771-8.529,7.255-5.271,5.615,4.08,10.322-7.5-2.181-6.712L75,75.1l7.255,5.271-2.181,6.712,10.322,7.5,5.615-4.08,7.255,5.271-2.771,8.529H93.728L89.79,116.427l5.426,3.942Zm-7.668-1.789h6.369l1.968-6.057-5.426-3.942,4.742-14.594H99.2l1.968-6.057-5.153-3.743L90.4,96.8,77.972,87.769l2.181-6.712L75,77.313l-5.152,3.743,2.181,6.712L59.6,96.8l-5.615-4.08-5.152,3.743,1.968,6.057h6.767l4.742,14.594-5.427,3.942,1.968,6.057h6.369l2.023-6.226H82.754Z"/>
  <path id="Shape_246_copy_5" data-name="Shape 246 copy 5" class="cls-2" d="M122.976,58.01L103.191,46.076a1.818,1.818,0,0,0-2.029.1l-5.029,3.766-9.245-5.628c9.228-10.354,26.438-16.69,26.614-16.754a1.82,1.82,0,0,0,1.2-1.673l0.022-1.138a1.818,1.818,0,0,0-1.675-1.849c-1.584-.125-3.2-0.188-4.792-0.188-7.31,0-14.677,1.373-19.706,3.672-2.3,1.053-8.391,5.393-14.629,10.036L63.757,30.233a1.818,1.818,0,0,0-.946-0.265c-0.032,0-.065,0-0.1.006a1.8,1.8,0,0,0-.736-0.879l-1.337-.814a1.813,1.813,0,0,0-.724-2.255L58.2,24.981l1.321-2.105A2.8,2.8,0,0,0,57.484,18.6l-19.628-2.38a2.878,2.878,0,0,0-.344-0.021A2.8,2.8,0,0,0,35.16,20.52L45.842,37.158a2.8,2.8,0,0,0,4.733-.025l1.364-2.174,1.853,1.128a1.811,1.811,0,0,0,2.286-.33l1.345,0.819a1.81,1.81,0,0,0,.944.265c0.033,0,.066,0,0.1-0.006a1.8,1.8,0,0,0,.737.879l7.2,4.38c-4.5,3.432-8.174,6.3-9.291,7.172a3.908,3.908,0,0,0-4.5.28l-0.128.1a3.9,3.9,0,0,0-1.309,4.059c-3.342,2.044-8.375,5.1-9.124,5.5-0.034.012-.069,0.023-0.1,0.034a4.3,4.3,0,0,0-3.564-2.39,3.665,3.665,0,0,0-2.365.92,5.116,5.116,0,0,0-1.864,4.077,3.912,3.912,0,0,0,1.347,3.028,3.247,3.247,0,0,1,.533,1.383c-0.067.125-.179,0.311-0.267,0.457a7.334,7.334,0,0,0-1.319,5.319,5.027,5.027,0,0,0,4.673,4.349,3.319,3.319,0,0,0,1.789-.5,4.339,4.339,0,0,0,1.691-3.162,11.293,11.293,0,0,1,.624-2.226,3.663,3.663,0,0,1,1.7-1.934,1.821,1.821,0,0,0,.336-0.165l11.575-7.247a3.892,3.892,0,0,0,5.033.125l0.129-.1a3.9,3.9,0,0,0,.814-5.163,55.113,55.113,0,0,1,13.675-7.778L91.36,57.293l-1.04,6.379a1.818,1.818,0,0,0,.849,1.846l19.736,12.015a1.818,1.818,0,0,0,2.74-1.261l1-6.151a3.381,3.381,0,0,0,1.909-1.482l1.008-1.655a3.386,3.386,0,0,0,.473-2.151l5.088-3.81A1.818,1.818,0,0,0,122.976,58.01Z"/>
  <path id="Shape_246_copy_6" data-name="Shape 246 copy 6" class="cls-3" d="M85.007,43.7a58.879,58.879,0,0,0-23.734,11.2l-3.359-3.961S84.133,30.4,89.3,28.038s13.935-4.087,23.6-3.325l-0.022,1.138S94.53,32.507,85.007,43.7ZM60.415,35.722l2.128-3.5,9.362,5.7c-1.189.892-2.368,1.783-3.514,2.652Zm-4.023-1.9,2.664-4.376,1.976,1.2-2.664,4.376Zm-3.631-.489L57,26.376l1.976,1.2-4.234,6.955Zm-3.727,2.836a0.984,0.984,0,0,1-1.663.009L36.69,19.538a0.985,0.985,0,0,1,.947-1.509l19.628,2.38a0.985,0.985,0,0,1,.716,1.5ZM37.175,59.175c1.708-1.423,3.036.569,3.415,1.423s1.708,0.474,2.182.285S52.544,55,52.544,55l3.415,4.554L44.29,66.86A5.339,5.339,0,0,0,41.539,69.8c-0.949,2.277-.636,3.932-1.613,4.554-1.044.664-3.226-.19-3.7-2.657s1.518-4.269,1.613-5.123a4.368,4.368,0,0,0-1.233-3.131C35.846,62.875,35.467,60.6,37.175,59.175Zm16.445-8.109,0.129-.1a2.084,2.084,0,0,1,2.922.312l4.492,5.564a2.084,2.084,0,0,1-.312,2.922l-0.128.1a2.084,2.084,0,0,1-2.922-.312l-4.492-5.564A2.084,2.084,0,0,1,53.619,51.066Zm61.725,13.3a1.438,1.438,0,0,1,.48,1.976l-0.633,1.039a1.438,1.438,0,0,1-1.976.481L79.267,47.2A53.04,53.04,0,0,1,84.6,45.651ZM113,68.947l-1.146,7.032L92.116,63.965l1.146-7.032Zm-2.637,4.4,0.665-4.083L109,68.09l-0.665,4.082Zm-3.487-2.063,0.665-4.083-2.029-1.176-0.665,4.083Zm-3.486-2.064,0.665-4.082-2.029-1.176-0.666,4.083Zm-3.487-2.1,0.665-4.083-2.029-1.176-0.665,4.082Zm-3.558-2.17,0.665-4.082-2.029-1.176-0.665,4.082Zm5.91-17.319,19.784,11.935-5.7,4.27L96.548,51.9Zm13.2,13.96,3.313-2.477-1.98-1.256-3.314,2.476Zm-3.415-2.206,3.313-2.476-1.981-1.256-3.313,2.477Zm-3.451-2.028,3.313-2.476-1.981-1.256L106.6,56.1ZM105.1,55.295l3.313-2.476-1.98-1.256-3.313,2.477Zm-0.138-4.5-1.98-1.256-3.313,2.476,1.98,1.256Z"/>
</svg>
