<svg xmlns="http://www.w3.org/2000/svg" width="150" height="150" viewBox="0 0 150 150">
  <defs>
    <style>
      .cls-1 {
        fill: #c1272d;
      }

      .cls-11, .cls-2 {
        fill: #fcd421;
      }

      .cls-3 {
        fill: #0c644f;
      }

      .cls-4 {
        fill: #998675;
      }

      .cls-4, .cls-5, .cls-6, .cls-7, .cls-8 {
        stroke: #876e4a;
      }

      .cls-11, .cls-4, .cls-5, .cls-6, .cls-7, .cls-8 {
        stroke-miterlimit: 10;
      }

      .cls-4, .cls-5, .cls-6 {
        stroke-width: 0.51676px;
      }

      .cls-5, .cls-7 {
        fill: #ebcba7;
      }

      .cls-6, .cls-8 {
        fill: #c7b299;
      }

      .cls-7, .cls-8 {
        stroke-width: 0.58739px;
      }

      .cls-9 {
        fill: #d8ac4c;
      }

      .cls-10 {
        fill: #8c6239;
      }

      .cls-11 {
        stroke: #8c6239;
        stroke-width: 0.73561px;
      }

      .cls-12 {
        fill: #a67c52;
      }
    </style>
  </defs>
  <g id="Layer_7" data-name="Layer 7">
    <g>
      <path class="cls-1" d="M53.18493,12.79728a8.42413,8.42413,0,0,0-2.02208-6.60837C48.53413,3.50076,43.27671,2.2687,35.59278,2.04468S20.22492,6.41292,20.22492,6.41292s4.7519,1.45608,6.26847,2.68815a13.03352,13.03352,0,0,0-6.26847,9.40852S31.04308,14.14135,42.569,16.15746Z"/>
      <path class="cls-2" d="M19.23869,19.74234l1.27625-.51373c.10648-.0429,10.76-4.26021,21.92022-2.30774l.18672.0328,11.25558-3.56228.07368-.47537a9.14807,9.14807,0,0,0-2.23406-7.2689c-2.6837-2.74425-7.80029-4.13555-16.10168-4.37728-7.80684-.23668-15.46683,4.28594-15.78829,4.47821l-1.49779.89474,1.66836.51171a36.60911,36.60911,0,0,1,5.03937,1.94994,14.05218,14.05218,0,0,0-5.57732,9.2804ZM36.174,14.84477a48.47709,48.47709,0,0,0-14.90365,2.46215,11.99025,11.99025,0,0,1,5.57127-7.51364l1.06581-.54L26.982,8.49937a19.34881,19.34881,0,0,0-4.79361-2.25172C24.78271,4.96384,30.2253,2.66316,35.57,2.8191c7.767.22658,12.68625,1.50636,15.0389,3.912a7.46361,7.46361,0,0,1,1.849,5.48346l-9.9435,3.147A38.016,38.016,0,0,0,36.174,14.84477Z"/>
      <path class="cls-1" d="M96.81507,12.79728a8.42413,8.42413,0,0,1,2.02208-6.60837c2.62872-2.68815,7.88614-3.92021,15.57007-4.14423s15.36786,4.36824,15.36786,4.36824-4.7519,1.45608-6.26847,2.68815a13.03352,13.03352,0,0,1,6.26847,9.40852s-10.81816-4.36824-22.34406-2.35213Z"/>
      <path class="cls-2" d="M130.76131,19.74234l-1.27625-.51373c-.10648-.0429-10.76-4.26021-21.92022-2.30774l-.18672.0328L96.12254,13.39139l-.07368-.47537a9.14807,9.14807,0,0,1,2.23406-7.2689c2.6837-2.74425,7.80029-4.13555,16.10168-4.37728,7.80684-.23668,15.46683,4.28594,15.78829,4.47821l1.49779.89474-1.66836.51171A36.60911,36.60911,0,0,0,124.963,9.10444a14.05218,14.05218,0,0,1,5.57732,9.2804ZM113.826,14.84477a48.47709,48.47709,0,0,1,14.90365,2.46215,11.99025,11.99025,0,0,0-5.57127-7.51364l-1.06581-.54.92552-.75394a19.34881,19.34881,0,0,1,4.79361-2.25172c-2.59437-1.28381-8.037-3.58449-13.38164-3.42855-7.767.22658-12.68625,1.50636-15.0389,3.912a7.46361,7.46361,0,0,0-1.849,5.48346l9.9435,3.147A38.016,38.016,0,0,1,113.826,14.84477Z"/>
      <path class="cls-1" d="M108.0376,13.36042c-1.21316-2.932-3.03316-3.23534-3.03316-3.23534L75.2799,16.69687l-.0979.06523-.0979-.06523L45.35955,10.12508s-1.82.30333-3.03316,3.23534c-1.21329,2.932-.30329,8.18946,0,8.49278.28323.2832,28.86185,6.82487,32.64542,7.69l.0048.095.20539-.047.20551.047.00467-.095c3.78357-.86515,32.36232-7.40682,32.64542-7.69C108.3409,21.54988,109.25089,16.29246,108.0376,13.36042Z"/>
      <path class="cls-2" d="M75.2812,17.49011l-30.49665-6.6073a.775.775,0,0,1,.328-1.51495l30.16561,6.53565,29.55851-6.53565a.77529.77529,0,1,1,.33508,1.51394Z"/>
      <path class="cls-2" d="M75.30543,29.98762l-.17865-.03886L42.44654,22.87163a.8349.8349,0,1,1,.35325-1.632l32.5016,7.03827L107.15,21.24012a.83517.83517,0,0,1,.36031,1.631Z"/>
      <path class="cls-2" d="M80.0239,16.45166h22.98146a1.12672,1.12672,0,0,1,1.12672,1.12672v0a1.12673,1.12673,0,0,1-1.12673,1.12673H80.0239a1.12673,1.12673,0,0,1-1.12673-1.12673v0a1.12673,1.12673,0,0,1,1.12673-1.12673Z" transform="translate(-1.65944 19.16612) rotate(-11.84936)"/>
      <rect class="cls-2" x="86.11064" y="20.60549" width="14.08001" height="2.35481" rx="0.86875" transform="translate(-2.48792 19.59165) rotate(-11.84936)"/>
      <path class="cls-2" d="M46.55837,16.45166H69.53982a1.12672,1.12672,0,0,1,1.12672,1.12672v0a1.12673,1.12673,0,0,1-1.12673,1.12673H46.55837a1.12673,1.12673,0,0,1-1.12673-1.12673v0a1.12673,1.12673,0,0,1,1.12673-1.12673Z" transform="translate(111.25168 46.70196) rotate(-168.15064)"/>
      <rect class="cls-2" x="55.15574" y="16.60104" width="2.51469" height="10.36372" rx="0.7747" transform="translate(23.51054 72.52099) rotate(-78.15064)"/>
      <path class="cls-3" d="M74.26884,146.61086c-2.8043-1.847-16.11126-11.29949-32.39108-34.05641C26.02033,90.388,22.74973,57.39837,22.1593,48.9693c15.22763-1.32671,20.61118-11.45643,22.15236-15.44413H104.226c1.54118,3.9877,6.92472,14.11742,22.15236,15.44413-.59044,8.42907-3.861,41.41866-19.71846,63.58515C90.38314,135.30633,77.0782,144.75982,74.26884,146.61086Z"/>
      <path class="cls-1" d="M24.55081,48.67276l69.61842,79.62911q1.97946-2.23608,4.08434-4.78605L31.2024,46.822A28.87349,28.87349,0,0,1,24.55081,48.67276Z"/>
      <g>
        <path class="cls-2" d="M93.30225,129.27312c.56836-.632,1.14277-1.27782,1.7279-1.94913L26.03358,48.40561q-1.43634.29683-3.01916.47216Z"/>
        <path class="cls-2" d="M29.92161,47.32012l67.49652,77.20247c.54955-.65774,1.10416-1.32873,1.6657-2.02022L32.43474,46.2692A25.964,25.964,0,0,1,29.92161,47.32012Z"/>
      </g>
      <path class="cls-1" d="M44.31166,33.52517c-.03217.08327-.06863.1731-.10421.26166l65.21717,74.595c1.15109-1.87248,2.22548-3.80028,3.2277-5.76593l-60.404-69.09076Z"/>
      <g>
        <path class="cls-2" d="M50.5319,33.52517l61.48079,70.32152q.65136-1.22951,1.26388-2.47988L53.964,33.52517Z"/>
        <path class="cls-2" d="M108.70752,109.52444q.72781-1.13792,1.41767-2.304L45.695,33.52517H44.31166c-.17385.44977-.39968.98091-.68,1.56554Z"/>
      </g>
      <path class="cls-1" d="M102.82072,35.59213a25.34014,25.34014,0,0,0,3.90393,6.12077c3.07706,3.5742,8.49719,7.80236,17.438,9.08233-.90609,10.5733-4.66922,40.26719-19.18392,60.55646-14.46436,20.219-26.50983,29.76706-30.70935,32.75273-4.20949-2.99273-16.25156-12.54135-30.71037-32.75273C29.04429,91.06242,25.281,61.36758,24.37507,50.79523c8.94065-1.2799,14.36078-5.50813,17.438-9.08233a25.34311,25.34311,0,0,0,3.9038-6.12077h57.10388m2.89148-4.134H42.82536s-3.43751,14.96345-22.84953,15.5701c0,0,1.4154,40.44173,20.22084,66.72883,18.80543,26.28716,33.56665,34.98211,33.56665,34.98211h1.01105S89.53559,140.04418,108.341,113.757c18.80531-26.2871,20.22084-66.72883,20.22084-66.72883-19.412-.60665-22.84966-15.5701-22.84966-15.5701Z"/>
      <rect class="cls-1" x="70.42822" y="98.18846" width="22.24024" height="22.24024" transform="translate(-53.40788 89.67912) rotate(-45)"/>
      <path class="cls-2" d="M81.54833,95.04393l14.26452,14.26452L81.54833,123.573,67.28381,109.30845,81.54833,95.04393m0-2.92321L64.36054,109.30845l17.18779,17.18774L98.736,109.30845,81.54833,92.12072Z"/>
      <path class="cls-2" d="M84.34558,109.84767V98.59139c0,.06743-3.37027,0-3.37027,0l-8.223,10.043v4.51606h7.95357v3.97673H84.413v-3.63975H86.8394v-3.63974Zm-3.63975-.20224H76.055l4.6508-5.66185Z"/>
      <polygon class="cls-4" points="76.695 68.058 76.695 69.979 70.932 73.113 45.757 73.113 39.59 69.878 62.743 67.856 75.785 67.35 76.695 68.058"/>
      <polygon class="cls-5" points="36.658 67.35 42.32 66.238 78.414 64.519 78.414 68.26 74.37 68.26 71.842 70.08 39.186 70.08 36.658 67.35"/>
      <rect class="cls-6" x="28.36743" y="62.59824" width="17.59215" height="1.81988"/>
      <polygon class="cls-7" points="44.645 63.508 46.997 61.587 71.033 61.183 71.033 64.216 45.952 65.328 44.645 63.508"/>
      <rect class="cls-8" x="55.86781" y="59.46401" width="5.56074" height="1.71877"/>
      <rect class="cls-8" x="51.11591" y="58.55407" width="7.38062" height="0.90994"/>
      <rect class="cls-8" x="60.3164" y="61.4861" width="5.25743" height="2.83092"/>
      <rect class="cls-8" x="68.00033" y="61.4861" width="1.01104" height="2.52761"/>
      <g>
        <path class="cls-9" d="M64.46917,39.38353l-.07519.82618h.51172a1.22243,1.22243,0,0,1,1.30566,1.08007v.668a1.19532,1.19532,0,0,1-1.26074,1.126h-.48438A2.26364,2.26364,0,0,1,63.26605,42.78l.13867-.65527a2.31306,2.31306,0,0,0,1.06934.19628h.291a.40316.40316,0,0,0,.4336-.39453v-.54883a.40256.40256,0,0,0-.4209-.38476H63.68988l-.36426-.30176.24219-2.0625h2.42968v.75488Z"/>
        <path class="cls-9" d="M68.37542,38.615a1.18689,1.18689,0,0,1,1.26075,1.11133v.2373a.80142.80142,0,0,1-.48438.72656.85821.85821,0,0,1,.52735.77442v.48926a1.19055,1.19055,0,0,1-1.26075,1.124H67.934a2.447,2.447,0,0,1-1.13086-.25586l.14062-.65039a3.08826,3.08826,0,0,0,1.06446.14551h.22461a.40372.40372,0,0,0,.43359-.39453v-.46192a.40835.40835,0,0,0-.43359-.40136h-.49707V40.363h.49707a.40456.40456,0,0,0,.43359-.39942v-.19336a.4072.4072,0,0,0-.43359-.40136h-.20411a3.72446,3.72446,0,0,0-1.09082.127l-.14062-.64746A2.79,2.79,0,0,1,67.934,38.615Z"/>
        <path class="cls-9" d="M74.50628,38.49486a1.64388,1.64388,0,0,1,1.80664,1.60449v1.3379a1.63321,1.63321,0,0,1-1.80664,1.60156H72.6391v-4.543ZM73.767,42.20092h.67968a.70292.70292,0,0,0,.74317-.73633V40.072a.71272.71272,0,0,0-.74317-.73828H73.767Z"/>
        <path class="cls-9" d="M79.75628,43.03881l-.28808-.97266H78.07562l-.28516.97266H76.61468l1.4541-4.541h1.41016l1.4541,4.541Zm-.44238-1.80567-.542-1.88476-.541,1.88476Z"/>
        <path class="cls-9" d="M83.32367,43.03881h-1.124V41.22338l-1.52148-2.72363h1.19922l.88476,1.75976.88672-1.75976h1.19922l-1.52441,2.72949Z"/>
        <path class="cls-9" d="M85.07757,39.8015c0-1.02441.67871-1.36035,1.64258-1.36035a3.574,3.574,0,0,1,1.373.18945l-.09278.85645a3.17135,3.17135,0,0,0-1.251-.19141c-.20606,0-.51953.06739-.51953.36426v.06641a.38655.38655,0,0,0,.24414.33984l.99218.39942c.66993.24707.91407.49609.91407,1.14648v.09082c-.00977.99316-.63477,1.39453-1.68946,1.39453a4.62762,4.62762,0,0,1-1.55957-.20508l.082-.85449a4.59868,4.59868,0,0,0,1.55859.21289.45133.45133,0,0,0,.47461-.44336v-.09961a.42223.42223,0,0,0-.27051-.38281l-1.041-.4043c-.61718-.23242-.85351-.43847-.85742-1.043Z"/>
      </g>
      <g>
        <g>
          <g>
            <path class="cls-2" d="M101.64229,76.34523a.18269.18269,0,0,1-.17814-.13878l-.2826-1.11677c-.08276.00454-.16653.00706-.25232.00706a7.1564,7.1564,0,0,1-4.62052-1.83943,13.87837,13.87837,0,0,0-3.36042-2.16845.1732.1732,0,0,1-.09033-.02523l-.14686-.09841c-.22709-.11556-.38453-.19328-.385-.19328a.64548.64548,0,0,1-.163-.29219c.00051-.001.01766-.17612.04037-.45064l-.00706-.15543a.1829.1829,0,0,1,.02725-.10346,13.8496,13.8496,0,0,0-.06863-3.98517,7.17044,7.17044,0,0,1,1.01635-5.106l-.79986-.82963a.18385.18385,0,0,1,.0217-.27453,7.10928,7.10928,0,0,1,3.86052-1.31662,4.7239,4.7239,0,0,1,1.48517.23466.18406.18406,0,0,1,.09689.274c-.01816.02826-1.80359,2.81793-1.94994,4.16331a.183.183,0,0,1-.114.15089.18037.18037,0,0,1-.06863.01312.18394.18394,0,0,1-.11809-.0429l-.8907-.74536a10.7752,10.7752,0,0,0-.2609,3.18633,1.71326,1.71326,0,0,0,1.49829,1.254.75855.75855,0,0,0,.1085-.00757c.08276-.04492,2.17653-1.18945,4.60084-2.51464,3.8035-2.07964,8.48256-4.63718,9.63719-5.22761l-1.05521-1.898a.83164.83164,0,0,1,1.45388-.80793l1.06429,1.91512.21649-.12061a1.18779,1.18779,0,0,1,.19984-.08781,2.49483,2.49483,0,1,1,1.32469,2.38243,1.237,1.237,0,0,1-.18066.12364l-.21649.1201,1.06429,1.91512a.83165.83165,0,0,1-1.45388.80794l-1.0547-1.898c-1.10719.66664-5.72368,3.27565-9.47671,5.39667-2.43087,1.37414-4.5307,2.56056-4.64727,2.63878a1.70546,1.70546,0,0,0,.24324,1.99284,10.76483,10.76483,0,0,0,2.84367,1.46044l-.1625-1.15059a.18306.18306,0,0,1,.07368-.1741.18111.18111,0,0,1,.1085-.03533.17729.17729,0,0,1,.07973.01817,13.94747,13.94747,0,0,0,4.3682.543l.19933-.001a.18293.18293,0,0,1,.17865.22658c-.66209,2.7483-3.61527,3.92058-3.74042,3.969A.18972.18972,0,0,1,101.64229,76.34523Zm12.99863-19.03366a.86392.86392,0,1,0,.75646.44409A.86356.86356,0,0,0,114.64092,57.31157Z"/>
            <path class="cls-10" d="M114.63864,55.8657a2.30983,2.30983,0,0,1,1.126,4.3289,2.28847,2.28847,0,0,1-1.11514.28967,2.33124,2.33124,0,0,1-1.192-.3289,1.183,1.183,0,0,1-.24513.18716l-.37734.20974,1.15374,2.0756a.64956.64956,0,0,1-.25144.88079.64228.64228,0,0,1-.31275.08113.64947.64947,0,0,1-.568-.33257l-1.14819-2.06563c.05387-.03425.08074-.05362.07822-.05658l-.08377.04661.00555.01c-1.13633.72284-14.24459,8.07815-14.29972,8.14388a1.85315,1.85315,0,0,0,.21788,2.26806,12.73475,12.73475,0,0,0,3.20285,1.61474l-.20615-1.45716a14.11861,14.11861,0,0,0,4.44907.56122c.12667,0,.19845-.00113.19845-.00113-.64746,2.68622-3.62864,3.84034-3.62864,3.84034l-.32045-1.26785a3.89242,3.89242,0,0,1-.39337.01917A6.985,6.985,0,0,1,96.449,73.13841a15.56323,15.56323,0,0,0-3.46766-2.23961l-.02094.01217-.14673-.09872c-.24778-.12717-.40661-.20539-.40661-.20539l-.00253-.07-.05816-.03911s.01741-.17624.04025-.45373l-.00644-.17676.02145-.01135a15.56834,15.56834,0,0,0-.07153-4.12736,6.91221,6.91221,0,0,1,1.08145-5.06511l-.90773-.94154a6.99784,6.99784,0,0,1,3.75026-1.27959,4.52207,4.52207,0,0,1,1.427.22514s-1.82555,2.838-1.9777,4.24292L94.57463,61.966a12.7376,12.7376,0,0,0-.31944,3.57262,1.89766,1.89766,0,0,0,1.6763,1.39156.94846.94846,0,0,0,.135-.00927c.08491-.01218,13.25158-7.26208,14.46537-7.84577l.00555.00991.0839-.04662-.00151-.00063a.47051.47051,0,0,0-.08794.03734l-1.14819-2.06569a.64951.64951,0,0,1,.25131-.88067.64174.64174,0,0,1,.31288-.08112.64934.64934,0,0,1,.568.33243l1.15374,2.0756.37735-.20974a1.18019,1.18019,0,0,1,.28828-.10932,2.30557,2.30557,0,0,1,2.30344-2.2709m.00556,3.35753a1.04783,1.04783,0,1,0-.91783-.53884,1.041,1.041,0,0,0,.91783.53884m-9.37339,13.098h.00252m9.36531-16.82326a2.6721,2.6721,0,0,0-2.65329,2.36874c-.0405.0176-.07935.03678-.11708.05778l-.05588.031-.9751-1.75415a1.01546,1.01546,0,0,0-1.77509.98677l.96286,1.73213c-1.39193.72536-5.81463,3.143-9.43987,5.12485-2.19091,1.19765-4.267,2.33253-4.62115,2.51647l-.03255.00082a1.53949,1.53949,0,0,1-1.32053-1.1169,9.41965,9.41965,0,0,1,.2059-2.79731l.65048.54432A.36777.36777,0,0,0,96.069,62.95a14.39915,14.39915,0,0,1,1.92143-4.08358.36768.36768,0,0,0-.19379-.5481,4.90093,4.90093,0,0,0-1.54244-.24381,7.31628,7.31628,0,0,0-3.97168,1.35358.368.368,0,0,0-.04352.54912l.696.72189a7.28673,7.28673,0,0,0-.955,5.1422,13.6632,13.6632,0,0,1,.06195,3.89333.33657.33657,0,0,0-.02927.146l.00555.15486c-.02158.26014-.03772.4246-.03785.42611a.64478.64478,0,0,0,.26418.47518c.00139.0007.14963.07368.38189.19278l.12868.08654a.36674.36674,0,0,0,.152.05873,13.60872,13.60872,0,0,1,3.26126,2.1014,7.373,7.373,0,0,0,4.75993,1.9044q.056,0,.11153-.00138l.24563.97238a.36769.36769,0,0,0,.48938.25283c.12868-.04977,3.14734-1.24786,3.84614-4.067a.36763.36763,0,0,0-.3477-.48408h-.00252l-.00719.00006c-.01085.00019-.07885.00107-.19126.00107a13.03362,13.03362,0,0,1-4.28973-.52489.36786.36786,0,0,0-.52357.383l.11885.83979a9.41779,9.41779,0,0,1-2.48436-1.30191,1.51017,1.51017,0,0,1-.23416-1.73812c.342-.20312,2.40148-1.367,4.57473-2.5952,3.59785-2.03334,7.98712-4.514,9.33818-5.3134l.96286,1.73213a1.01546,1.01546,0,0,0,1.77509-.98677l-.975-1.75408.05577-.03109c.03785-.021.07456-.04385.11089-.06889a2.6735,2.6735,0,0,0,2.44135-.079,2.67758,2.67758,0,0,0-1.30464-5.01812Zm.00556,3.35746a.67851.67851,0,1,1,.32839-.08541.68225.68225,0,0,1-.32839.08541Z"/>
          </g>
          <path class="cls-10" d="M106.18992,59.39381a6.16882,6.16882,0,0,1,2.90309,1.156,5.994,5.994,0,0,1,1.16771,1.136,16.6817,16.6817,0,0,0,1.08254,1.46076,1.94677,1.94677,0,0,0,1.33545.65459,1.37848,1.37848,0,0,0,.64169-.172c.4282-.21856.84618-.46022,1.26427-.69731a2.08725,2.08725,0,0,0,1.06262-1.12545,4.47492,4.47492,0,0,0,.13181-1.77032c.38126.32788-.73212.39645-.80815.43871-.0857.04764-.80433.364-.79922.45479a5.16236,5.16236,0,0,1-.06564,1.54856,2.10891,2.10891,0,0,1-.26433.627,1.75254,1.75254,0,0,1-.24582.30452c-.59244.58328,1.62246-.67578,1.04883-.554-1.03406.2196-1.74556-.573-2.27654-1.35056a7.10776,7.10776,0,0,0-1.93583-2.03623,6.16482,6.16482,0,0,0-2.6351-.96876,1.103,1.103,0,0,0-.23856.12517q-.28579.1549-.5696.31355-.28415.15795-.567.31825c-.04422.0252-.18943.14189-.23224.13653Z"/>
          <path class="cls-10" d="M98.46605,72.64392c.28419-.14939.4103-.225.377-.22623.07427-.04539.1498-.09035.223-.13592,2.013-1.2523,1.22359-4.059.25058-5.49486a6.10178,6.10178,0,0,0-2.85679-2.25525c-.108-.04205-.77084.418-.887.4825-.208.11564-.41592.23141-.62268.34922a1.59387,1.59387,0,0,1-.25537.1494,5.836,5.836,0,0,1,3.83607,5.54051,3.03977,3.03977,0,0,1-.38522,1.34769.37985.37985,0,0,1-.12819.21416c-.00768.01058-.017.02011-.02487.03067l-.05241.00828c-.42839.156-2.0359.08415-4.412-1.111a5.72849,5.72849,0,0,1-.66173.37128,3.74881,3.74881,0,0,0,2.64815,1.73206,3.06813,3.06813,0,0,0,1.55577-.26267A15.62014,15.62014,0,0,0,98.46605,72.64392Z"/>
          <path class="cls-10" d="M94.60657,63.20835a11.46426,11.46426,0,0,1,3.514,2.27307s-1.39768.9416-1.79837,1.10945a1.54806,1.54806,0,0,1-1.68231-.65661A5.5688,5.5688,0,0,1,94.60657,63.20835Z"/>
        </g>
        <circle class="cls-11" cx="104.16676" cy="63.81823" r="6.47654"/>
        <path class="cls-11" d="M101.72006,49.42591a1.81618,1.81618,0,0,1,.95949-.86354s.14392-.43177,1.05544-.47975,1.10341.43177,1.24733,1.15139.096,2.01492.67164,2.11087.86354-.43177.76759-.95948-.23987-1.29531.71962-1.48721,2.63859.86354,3.9339,1.823,3.40618,2.39872,4.3177,2.44669c0,0-.52772,1.63113-5.9968.71962L106.08573,54.895S107.525,56.67,107.525,57.77345c0,0-2.54264-.47974-2.68656-.52772s-.43177-1.19936-.67164-1.15138-.52772.91151-.52772.91151a23.74849,23.74849,0,0,0-2.68657,1.15139c-.14392.1919-.23987-.91152.14393-1.53518s.91151-1.77506.91151-1.77506l-2.87847-.86353a6.345,6.345,0,0,1-6.81236-.47975,16.24748,16.24748,0,0,0,3.88593-1.823,19.11205,19.11205,0,0,1,3.5501-2.30277c.95861-.33833,1.67911.43177,1.871,1.34329s.33582.76759.76759.62366a.8225.8225,0,0,0,.52772-.95948A1.77465,1.77465,0,0,0,101.72006,49.42591Z"/>
        <path class="cls-12" d="M105.558,54.895s-.62366-.71962-.47974-.86354a20.99472,20.99472,0,0,0,2.11087-3.02239c.048-.38379.23988-1.05543.86354-1.05543s5.18124,3.64605,5.9968,3.79c0,0-1.72708.1919-2.0629-.096s-3.21428-2.25479-3.40618-2.11087a10.17419,10.17419,0,0,0,.28785,2.49467Z"/>
        <path class="cls-9" d="M100.61665,59.50053a2.24553,2.24553,0,0,0-.57569,1.6791,1.61162,1.61162,0,0,0,1.19936,1.29531,10.932,10.932,0,0,1,2.78251,1.29531,1.67819,1.67819,0,0,0,.86354.47975,1.29708,1.29708,0,0,0,.3838,1.2953,1.71448,1.71448,0,0,1,.47974,1.39126c.048.23987-.1919,2.20682.096,2.2548s2.63859-3.35821,2.87846-4.07782-.52771-1.43924-.91151-1.72708a7.00327,7.00327,0,0,0-2.30277-.3838,16.96314,16.96314,0,0,1-2.11087-1.10341s1.43923-1.24733,1.53518-2.0629.76759-.33582.43177-.86354S102.82347,57.43763,100.61665,59.50053Z"/>
        <path class="cls-12" d="M102.31518,54.895s.692-.71961.53234-.86353a21.12216,21.12216,0,0,1-2.3423-3.02239c-.05323-.3838-.26617-1.05544-.95821-1.05544s-5.74927,3.64606-6.65425,3.79c0,0,1.91642.1919,2.28906-.096s3.56668-2.2548,3.77962-2.11087-.31941,2.49467-.31941,2.49467Z"/>
        <path class="cls-10" d="M104.88637,59.06876a18.35929,18.35929,0,0,0-1.63113,1.67911c-.048.19189-1.19936.23987-1.4872.76759a.80125.80125,0,0,0,.57569,1.10341,15.949,15.949,0,0,1,2.54264,1.15138s-1.919-1.39126-1.6791-1.823a5.97887,5.97887,0,0,1,1.24733-1.15139l.81557-1.48721Z"/>
        <path class="cls-10" d="M105.606,63.8662a.65246.65246,0,0,1,.91151.47974c.1919.7676-.62367,4.3177-.62367,4.3177s.1919-3.26226-.09594-3.50213a3.98074,3.98074,0,0,1-.62367-1.15139Z"/>
      </g>
    </g>
  </g>
</svg>
