<svg xmlns="http://www.w3.org/2000/svg" width="150" height="150" viewBox="0 0 150 150">
  <defs>
    <style>
      .cls-1 {
        fill: #025801;
      }

      .cls-2 {
        fill: #f6f6f6;
      }

      .cls-3 {
        fill: #1a1a1a;
      }

      .cls-4 {
        fill: #80a2b3;
      }

      .cls-5 {
        fill: #b3b3b3;
      }
    </style>
  </defs>
  <g id="Layer_2" data-name="Layer 2">
    <g>
      <circle class="cls-1" cx="75" cy="75" r="70.69565"/>
      <g>
        <path class="cls-2" d="M79.42579,123.3605l-9.564-.063-.00032.05027-2.1543-.4659-3.34722,5.54851c-.5293.88-1.1095,1.855-1.63181,2.81643-.05166-.98285-.142-2.03883-.25654-3.23467l-.59817-6.392L59.463,121.0987l1.36155,13.23666,2.1898.47378,6.84405-11.00388-.01035,1.5635,3.614.024-.06962,10.5782,2.31782.01522.07013-10.5782,3.632.024Z"/>
        <rect class="cls-2" x="78.49555" y="129.54722" width="5.12187" height="1.91283" transform="translate(-13.54321 9.45716) rotate(-6.16355)"/>
        <path class="cls-2" d="M93.07172,129.726a3.36486,3.36486,0,0,0-2.5851-2.46656,3.15354,3.15354,0,0,0,.79607-2.95767c-.37358-1.49756-1.90382-2.82741-4.38136-2.21027-2.208.55088-3.46127,2.352-2.98013,4.28266a3.08318,3.08318,0,0,0,2.0261,2.15811,3.46009,3.46009,0,0,0-1.07532,3.475v.00012a3.4994,3.4994,0,0,0,3.5818,2.53606,5.63934,5.63934,0,0,0,1.36405-.17581C92.22424,133.76739,93.59278,131.81528,93.07172,129.726Zm-4.86225-2.76365c-1.64379-.055-2.01337-.68414-2.14987-1.23078a1.413,1.413,0,0,1,.14274-1.08193,1.66865,1.66865,0,0,1,1.06783-.71484,2.14915,2.14915,0,0,1,.51956-.069,1.38816,1.38816,0,0,1,1.35032,1.134A1.89371,1.89371,0,0,1,88.20947,126.96239Zm.05216,1.95835c1.57916.06975,2.3303.5157,2.58185,1.5245v.00013a1.55133,1.55133,0,0,1-.19789,1.26809,2.04833,2.04833,0,0,1-1.2525.80667,1.96016,1.96016,0,0,1-1.5547-.19265,1.65543,1.65543,0,0,1-.73393-1.09515A2.09619,2.09619,0,0,1,88.26163,128.92074Z"/>
      </g>
      <circle class="cls-3" cx="75.59996" cy="84.29943" r="29.69817"/>
      <g>
        <path class="cls-2" d="M129.43,48.70162c-2.39985-2.13321-3.33312-1.5999-8.39948-1.19992a15.10755,15.10755,0,0,1-5.60613-.79272c-.26862-.39967-.79552-.97664-1.06012-1.34049-.5333-.73329.53329-.4,1.19992-.5333s1.93322.6,3.26646,1.13327,1.59992-.06668,2.93316-.66663.93328-2.1332-.4-3.1998-.26666.53329-1.06661,2.06653-.86661,1.26659-2.46651.86661-1.33326-.53329-1.73323-1.46658.26665-.46663,1.66657-1.33324.33332-1.06661-.2-1.73324-.06666-1.19991-.13332-2.79981-2.06655-.6-3.26648-.53331-1.79988.33332-1.33324,1.13327.66663.4.4,1.33324-.79995.2-1.86655-.2-1.73323-.06666-2.93315-.06666-.53331-.73329-1.13327-1.86655.2-.99995.6-1.66657.53331-.13333.93328.4-.06667,1.66656.4,2.06654.93327-.73329.66663-1.59991.13332-.93327.86661-1.19992.79995-.2,1.13325-.86661,1.19994.26664,2.39987-.2-.66663-1.73324-2.19987-2.59985-1.39991.33332-2.33319,0a5.03456,5.03456,0,0,1-2.26652-1.93321c-.4-.66663.53329-.4.6-1.19993s-1.13326.13332-1.73323.5333-.3333.26665-.93327,1.19992-.06666,1.19993.6,1.73324,1.13325-.46665,1.66656-.73329,1.66656.46663,1.73322,1.33324-.3333,1.19993-.93327.73329-.66663.33332-.93327,1.26659-.06666,1.19993-.6.73329-1.73322-2.13321-2.26653-1.5999.4.99993,0,2.33319,1.7832.43038,1.99989,1.33325c.4,1.66657-1.5999,1.59991-2.13321,1.99987l-.00231.00191c-.89-1.03143-1.85034-2.158-2.86418-3.26837-1.57885-1.7292-5.70122-3.7973-9.35525-5.22464.94906-.02489,1.95128.15828,2.42234.15828.79995,0,.33332-1.3999.86661-1.93321s.4.33331.99995,1.26658,2.33319-1.26658,2.33319-1.26658a4.50267,4.50267,0,0,0,2.59983.46663c1.19994-.26664-.06666-1.33324-.99993-1.99987a2.59336,2.59336,0,0,0-2.59985-.26666c-1.06659.26666-1.86654-.59995-2.26653.26666a5.46431,5.46431,0,0,0-.46663,1.33326,2.41681,2.41681,0,0,0-1.99988.13332c-1.03835.43718-1.19759,1.1871-1.94245,1.4435-.62985-.23043-1.23623-.43831-1.80056-.61636.70127-.346.24221-1.415.60987-2.36038.46665-1.19993,1.66656-.26666,3.46646-.33332s1.3999-1.73322.99994-3.53311-1.13328.6-2.13321,1.26658-2.53317.79995-3.39978,1.66658-.13334.86661-.4,1.66656c-.17382.52148-.63424.73175-1.57783.99934a3.53392,3.53392,0,0,0-.95534-.06607,78.4818,78.4818,0,0,0-15.59905,4.2664c-6.26628,2.53319-9.46608,4.933-9.86605,4.79972s.4-1.73324.4-1.73324l.79995-2.13319L64.90062,32.436s-.93327-1.19993-.26665-1.73322,1.73323,0,2.93316.8l3.73309-1.5999a34.76816,34.76816,0,0,0,1.59992-3.73311,10.33733,10.33733,0,0,0-.13334-1.19993s3.99976-1.33325,3.7331-.4-3.59976,3.46645-3.59976,3.46645v1.06661a22.9921,22.9921,0,0,1,3.59976-1.73324c.8-.13332-.66662,2.26653-.26664,2.26653s3.86643-2.53317,4.26639-2.6665-.13332-1.33325-.13332-1.33325L77.43318,27.103s.93328-1.0666,1.46657-1.73323,1.19994-3.33313.53331-3.86642-1.5999.79995-1.5999.79995c-3.73311-3.06648-7.73286-.26666-7.73286-.26666-2.79983-.93328-5.333,2.66651-5.59965,3.19981s.53329,1.19992.53329,1.19992a8.791,8.791,0,0,1,5.46633-2.79983l-.26664,1.06661-6.66627,4.26639a21.40884,21.40884,0,0,1-3.86642.53331c-3.06648.26664-3.19981,2.53317-4.39972,2.53317a3.06559,3.06559,0,0,0-1.65973.75116.96744.96744,0,0,0,.05983-.28452c.02068-.24819-.042-.27168-.09661-.24588a12.66241,12.66241,0,0,0,.76322-1.02071c1.39992-1.99987,3.06648-1.99987,1.66658-2.26653s-2.13321,1.06661-2.59985,1.86656-1.0666.93327-1.46658.66663a1.9979,1.9979,0,0,1-.18539-.14312c1.01583-.95406,2.04293-1.98109,2.8519-2.79.10551-.10551.19891-.21052.28514-.315a4.89834,4.89834,0,0,0,3.98126.58169c2.66651-.6,3.3998-.79995,3.59978-1.66656s-.6-.6.2-1.39992,2.39985-.79995,1.06661-1.46658S61.5675,21.57,61.10085,23.83648s.26666,3.73311-.93327,3.46645-1.33326.4-1.33326-.6-.4-2.13319-1.26657-1.53324.26664,1.73324-.2,2.39987c-.36177.51682-1.44273.43183-2.0976.1815a2.72707,2.72707,0,0,0-.23559-3.048C46.63507,28.16954,44.50188,32.56927,42.76864,37.369s-.93327,8.93278-1.33323,11.73262-2.53319,5.733-4.13309,8.13282-3.06648,2.26653-4.933,5.19969-3.86642,8.26616-3.99976,10.39936-.13333,8.53281-1.19992,10.79934-9.73274,17.19893-9.73274,17.19893l.8.66663S20.37,98.43189,24.5031,92.96556,36.63569,81.63292,36.63569,81.63292a18.57869,18.57869,0,0,0,6.5632-2.20562c.685.92707,1.1167,2.67464,1.703,2.20562a8.34717,8.34717,0,0,0,.46664-1.5999c.2-.99993-.06666-1.5999.26665-1.73322s1.93322,1.99987,2.33319,1.33324a3.14269,3.14269,0,0,0,.06666-2.06653,2.27786,2.27786,0,0,0-.644-1.37242c.13961-.16342.27444-.32713.40226-.49043a3.65156,3.65156,0,0,0,.70836,1.46287c.46663.4.99994,1.5999,1.26658.5333a4.44252,4.44252,0,0,0-.13332-2.86649,2.87934,2.87934,0,0,0-.76448-.69225,14.397,14.397,0,0,0,1.23112-2.50755s1.86655,4.933,2.26653,5.46633-.26666,2.53317,1.86655-.26665,7.06623-10.666,10.1327-13.33252a19.56126,19.56126,0,0,0,4.6664-7.06623s.26664-2.66649-.4-3.7331,1.19994-1.33324,2.13321-1.99987-.13332-1.19993-.79995-1.73324.93327-1.33324,1.73322.13334,1.86655-.4,2.39985-1.46658-2.66649-.26666-1.99986-1.33326,1.06659-.13332,2.93314,0a1.34172,1.34172,0,0,0,1.33325-2.1332c-.4-.53329-.4-.66663.66663-.93327s2.53317.8,3.1998,0-1.19992-.53331-2.6665-.66663,1.19992-1.5999,2.39985-1.5999a8.72505,8.72505,0,0,0,3.99976-.66663c1.33325-.66663-1.46658-.13332-2.79984,0s.66663-1.19992,1.73324-1.46658a24.94158,24.94158,0,0,1,4.53306,0l-.26666-.93327a29.06036,29.06036,0,0,0,3.1998-.26664l1.06661-.13333c7.9995.93328,10.93265,3.06648,11.466,6.93291s-1.86656,4.7997-5.59967,4.7997-8.66613.26665-11.1993,2.53317,0,3.1998,0,3.1998C90.49905,51.36813,96.632,53.50132,96.632,53.50132s4.66638,1.86656,7.19955,1.19993,2.39985-2.26653,3.06648-3.99975.8.13332,1.46658.13332,1.06659,2.13321,1.06659,2.13321-2.53317.8-1.73322,1.19991.79995.53331,3.06648.26666.5333.53329,1.99988,1.19992,2.26653.53331,1.46656-.26664-1.86654-1.06661-1.86654-1.99989,1.19993.13333,2.53317.66663,3.19982.13332,3.06648-.26664-2.13319-.53331-3.73311-1.06661,3.59979-.26665,3.59979-.26665a37.28,37.28,0,0,0,4.13309.8c1.46656.13332.53328-1.5999,1.19991-1.99988s7.06623.93329,8.13284.8S131.82983,50.83482,129.43,48.70162Zm-76.9286-15.599a2.8005,2.8005,0,0,1,.88033-.10732,8.96012,8.96012,0,0,0-.78531.748C52.40927,33.14082,51.88415,33.34946,52.50138,33.10258Zm-.26664,6.79958A5.6964,5.6964,0,0,1,50.36818,42.702c-1.46658,1.19993-2.26653-.26664-2.6665-1.06659s.93328-1.86656.53329-2.26653-.13332-2.26653-.53329-2.13321-1.33325,3.86643-1.73323,3.99975-1.46657,2.39987-2.13319,1.73324c-.5546-.55459.73576-5.72012,1.41565-7.8255a2.30627,2.30627,0,0,0,1.45082-.04069c1.17949-.35383.90071.01968,1.88169-1.135a14.781,14.781,0,0,0,2.31535-1.79594c.02369.28676.1224.44786-.39727.66438-.8.33332-1.53324.99995-1.33324,1.53324.212.56523.2,1.46658.86661.5333s.86661-1.86654,1.19992-1.33325c.32987.52778-.18716,1.64087.44816,1.34085-.04071.06537-.08031.13025-.11484.19239-.66663,1.19993-2.79983,1.99988-2.79983,1.99988s2.1332.79995,3.06648.4,3.06647,1.0666,3.06647,1.0666S52.50138,39.36886,52.23474,39.90216ZM91.6405,37.47628c.09216-.01152.06209-.00775,0,0Zm-.19233.024.02014-.00251Zm.05854-.00731.12479-.01561Zm17.05979,6.04892a11.50082,11.50082,0,0,1-1.13516-2.50652c-.33332-1.79988,1.33324-.4,2.13319-.2s-.3333.86661-1.06659,1.39991.73329.06666,1.99988-.26666.59995-.66663,2.26653-.53329,1.79988.2,2.86648-.2.13332-.93327.86661-1.86654.53331,1.19993.33332,2.26653-.4.6-1.79988.93327-2.39987.06666-2.79983,1.33325a1.80989,1.80989,0,0,0,.7705,1.90723A38.89847,38.89847,0,0,1,108.5665,43.54194Z"/>
        <path class="cls-2" d="M49.1016,39.96883c-.8.66662-1.13327,1.73322-.33332,1.86654s.93327.73329,1.66656-.33331,1.06661-1.33325.99995-1.53323A3.46558,3.46558,0,0,0,49.1016,39.96883Z"/>
        <path class="cls-2" d="M99.63181,42.502c-.79995-.99994-1.06659-1.19994-1.79988-.46665s-1.46658.93329-1.0666,1.86656-.13332,1.46658.86661,1.33326,1.66657-.46664,1.0666.26664-.86661.99994-.26665,1.39992,1.39992.4,1.46658,1.0666c.20173,2.01739,2.06653-1.26658,1.19992-2.19987s-1.86655-.73329-1.53324-1.5999S100.43176,43.50193,99.63181,42.502Z"/>
      </g>
      <g>
        <path class="cls-4" d="M65.16726,54.03462c-1.06659.66663.33333,3.86643-.26664,4.33307s-1.0666-.2-1.86655.73329.33331,1.86655-.86661,2.26653-2.79983-.13334-2.06654,1.0666,2.26653,1.19993,1.13325,1.86654S58.701,64.634,58.301,65.83389s.33331,2.86649-.99994,2.79983-2.13321.93328-1.46658-.66662.86661-2.39986.06666-2.13321-.86661,2.46653-2.06653,2.19987a1.79464,1.79464,0,0,1-.98286-.64384,3.5316,3.5316,0,0,0,.34956-.6894c.79995-2.09988-1.19993-.79995-3.89976.6s-4.29974,3.79976-5.79965,5.99963-5.39966,4.89971-6.99956,6.49961-7.59954,5.59965-9.69941,7.9995-9.49941,13.39918-9.49941,13.39918l.93327.3c8.73279-13.09919,11.366-15.29906,14.76577-17.49893A52.10548,52.10548,0,0,0,42.902,75.4c3.79976-3.99975,4.89971-5.19969,6.19963-5.89965a11.01187,11.01187,0,0,1,1.51719-.59015.753.753,0,0,1,.28269.52349c.13333.99994-.26664,1.33326.66663,2.06655s.86661.86661,1.39992,2.06654,2.66649-.5333,3.86643-2.33319,3.79976-5.19968,3.79976-5.19968,2.86648-1.73324,3.39979-2.8665.26664-1.53323,1.13325-4.59971S66.23387,53.368,65.16726,54.03462Z"/>
        <path class="cls-4" d="M60.3009,52.10142c-.4.26664-.66663.46662-1.06659.13332s-.93328-.26666-.46665.53329c.3359.57582.13333.6,1.19994.33332s2.79981.13332,1.86654-.79995S60.70088,51.83475,60.3009,52.10142Z"/>
        <path class="cls-4" d="M68.83371,39.70216c-1.53324-.26664-2.79982-1.79988-1.86655.66663s1.26658,2.13321.86661,2.79984-1.06659.4-.6,1.19991c.27081.46425.26666,1.19994,1.13327-.2s2.59983-.86661,1.26658-1.5999-2.39985-.46663-1.66656-1.39992S70.367,39.96883,68.83371,39.70216Z"/>
        <path class="cls-4" d="M131.3632,49.56823c-.73329-.86661-3.46646-2.73316-5.39966-2.79982s-8.06618.4-9.2661.06666-5.933-.8-11.3993-6.86624c-3.66741-4.06994-6.5872-7.0879-11.04929-9.01714.04294-.43235.41634-.64894-.55-.64894-1.19993,0,.2-.79995-.73328-.93328a1.71384,1.71384,0,0,0-1.23859.66175,32.88411,32.88411,0,0,0-4.99924-1.06811.6752.6752,0,0,1-.22845-.46025c0-.73329,1.13327-.4,1.86656-.66662s.3333-.4,1.39992-1.13328,1.46656-.3333,2.93314-.8,1.13327-1.5999.46664-1.99986-.33331.13332-.73329,1.19991-.66663.26666-1.53324.26666-.46664,0-1.39992.59995-.79995.6-1.46657.99995a10.74629,10.74629,0,0,1-2.46651.86662c-1.00749.32056-.69365.67257-.204.96961-.43744-.03435-.87781-.049-1.31932-.05415a.87086.87086,0,0,1-.2766-.5155c0-.53329.4-.13332,1.46658-.53329s-.26666-.79995,0-1.33325.66663-.26665,1.79988,0,1.19994-.99994,1.73323-2.13321-.86662-.53329-1.66657-.06666-.5333.33332-1.66656.53331-.66662.46662-.79995,1.46657-.33332.53329-1.06661.79995-.3333.6-.53329,1.33326a.82158.82158,0,0,1-.27987.47031c-8.77362.42052-17.92862,5.97641-21.91876,9.26241-4.53306,3.73311-6.39962,7.33289-9.53276,10.066s-4.13307,4.39973-5.79963,5.26634c-.53331-.26664-1.53324.66663-1.13327-1.19991s.86661-5.26635.06666-5.59967-1.86655-.53329-2.19985.06666-.26667,4.06643-.33333,5.39967.06666,2.53319.93328,2.79983-1.86655,5.133-2.39985,5.59965-.99994-.2-2.19987-.06666-3.46645.8-5.733,4.19975-1.79989,3.86643-2.39985,4.06641a3.13327,3.13327,0,0,0-.99995,3.93309,19.67552,19.67552,0,0,1,1.39991,3.99975s-1.46658,3.06648-.4,3.13316.93327-1.06661,1.39991-2.73317,1.86655-5.46633,3.33312-6.5996a52.60534,52.60534,0,0,1,4.933-2.86648c1.53324-.93329,7.06624-4.86638,8.33282-6.46628s5.99963-8.73279,6.5996-9.2661,1.0666-.5333,1.26658-.06666-6.19962,9.2661-6.19962,9.2661A87.85009,87.85009,0,0,0,42.302,66.36719c-3.19982,2.66652-4.933,4.39974-4.33308,5.19969a1.29856,1.29856,0,0,0,1.99989.3333c.59995-.6-.33332-.3333.86661-2.06652a18.31381,18.31381,0,0,1,6.3996-5.533c3.3998-1.93321,4.19975-1.53324,5.06636-3.26646s1.66656-3.93309,2.13319-4.33306.73329-.8.53331.4-.46663,3.26646.66662,3.66644,1.99989,1.73323,1.5999-.06666-1.13325-2.73317-.66662-3.3998.93327.2,2.26652.26666,3.66645-1.06661,2.79984-1.53324-3.06648-.06666-3.3998-.4-.2-.3333-1.13326-.46663-2.1332.53329-.93327-.6,1.5999-2.19987,1.26658-2.79984,0-.5333.73329-1.26659a11.88785,11.88785,0,0,1,2.99981-2.39985c1.06661-.46663,1.66656-.2,1.53324-1.33324s-.26664-1.53324,1.06661-1.5999,2.99982-.2,1.93321-.86663-1.79988-.13332-3.26646.26666-1.33326,2.13321-1.93322,2.6665-2.06653,1.33325-1.33324.13332,1.3999-3.33312.3333-2.53317-.66663,4.46639-1.99988,4.7997a5.23237,5.23237,0,0,0-3.33312,1.5999c-1.66657,1.46658-6.93291,9.26611-7.93284,9.99938s-7.33289,5.733-7.99952,5.933-2.86648-.99994-3.13314-.06667.4,1.19994-.6,2.06655S32.036,73.56676,31.56934,73.3001s-.93329-1.86654-.46664-3.33312a28.53193,28.53193,0,0,1,3.7331-6.133c1.33326-1.73322,3.59979-2.86649,4.19974-2.79983s-.4,1.33325.2,1.99988,5.933-7.39955,6.79958-8.39948c.48383-.55828,1.36219-1.55266,1.96276-2.29919,2.33274-2.18357,6.32585-5.70775,7.57-7.30023a48.25216,48.25216,0,0,1,9.7994-8.73279c3.1941-2.0111,9.38085-4.59872,16.97478-6.13455a.67749.67749,0,0,1,.22416.73488c-.2.8-1.99987,2.39985-1.99987,2.39985a6.34889,6.34889,0,0,0-2.46653.33331c-.6.4-.46662-.73327-.99993-.53329s-.79995.4-.53331.93327c.28284.56566.46665.4.2,1.19994s.06667,1.9332,1.0666.66661.6-1.3999,1.46658-1.53324,1.39991,1.13327,1.79988-.13332A2.93736,2.93736,0,0,1,83.43281,32.436c.53331-.06666,1.5999-.73329.86661.13332s-.53329,2.06655.46665,1.39992,1.39991-.93327,1.39991-1.66656-1.39991-.53331-.93327-1.39992a4.38142,4.38142,0,0,1,.80138-.95875,11.36427,11.36427,0,0,1,1.86764.35258c.85463.23737,1.84551.53243,2.8545.87478-.06234.08064-.11966.15438-.16943.21689a7.03425,7.03425,0,0,0-.95437.7811,4.56953,4.56953,0,0,1-2.46651,1.26658c-1.26658.06666-3.39979,1.99988-3.39979,1.99988a10.64166,10.64166,0,0,1-2.1332-.66663c-.79995-.4-.13333.4-.53331,1.19993s-.86661,0-1.93321.2-.33332.79995-.86661,1.73322-2.06654.13332-2.06654.13332-.79995-.26664-.26665-1.33325-.06667-.73328-1.06661-.4-1.13325.8-2.19986,2.06654-.6,1.19992-.06666,1.93321a2.22224,2.22224,0,0,1,.6,1.46658c0,.4-1.46658,1.06659-1.93322,1.46658a8.54591,8.54591,0,0,0-1.86655,2.33319c-1.26659,1.86654-.26664.46664-2.66649,1.33325s-.2.13332-.53331,1.26658-.5333.26666-1.19993-.2-1.66656.06666-2.59983,1.06661.66663,1.19991,1.53324,1.66656-.11806-.92286.3333-1.5999c.13334-.2.93329.2,1.93322.46663s2.33319-1.26658,2.8665-1.99987a16.93009,16.93009,0,0,1,2.46651-3.3998c1.19992-1.0666,1.5999-.13332,3.39978-.73329s.73329-1.33324.2-2.33319.53329-.86661,2.39985-1.06659,1.39991-.46665,1.99987-1.66657.73329-.86661,2.53319-1.53323a17.32759,17.32759,0,0,0,2.39985-.86662c1.79988-.8,1.86655-.46664,2.6665-1.66657s2.99981-1.26658,2.99981-1.26658a9.45425,9.45425,0,0,0,.76332-.56037,3.40136,3.40136,0,0,0,1.90319-.0396,6.59059,6.59059,0,0,0,.74435-.17685,31.98554,31.98554,0,0,1,6.52187,3.8433,23.29472,23.29472,0,0,1,5.133,5.26634,17.41875,17.41875,0,0,0,5.933,4.66638,20.629,20.629,0,0,0,8.53282,1.53324c2.39985-.26666,4.33305-.79995,5.99962-.13334s3.99976,2.13321,4.33307,3.06648.06666,1.59992-.6,1.33325c0,0-3.26646-1.46657-5.133-1.39991s-5.79965,1.06661-6.86624.86662-3.06648-1.19993-5.19968-1.39991-3.53313-.86661-5.79965.13332-3.66643,2.06655-4.933,2.33319-4.26641-.13332-4.19975.26664.73329.86662,1.73324.99995a7.94078,7.94078,0,0,0,5.333-.99995c2.86648-1.5999,3.13314-2.53317,3.93309-2.46651s2.93315,1.99989,5.533,2.26653a8.06456,8.06456,0,0,0,4.66637-.73329,27.13971,27.13971,0,0,1,10.81205.1026c-.17659.03366,1.54225,1.22156,2.38714.49737C132.62978,51.50145,132.09649,50.43484,131.3632,49.56823Z"/>
        <path class="cls-4" d="M43.50193,44.96851c.6-.46663,1.5999-.6,3.33314-1.13326s.61814-.06265.93327-1.53324c.2-.93327-.4-.73328-1.19993-.2s-.6.8-1.19992,1.19992-1.26659.46664-1.93322-1.19992.0936-6.05171,1.5999-8.86613c2.53319-4.733,6.99957-6.46626,8.73281-7.33289s1.26658-.99993.86661-1.33324-5.26634,2.53318-8.26616,5.333-3.46646,5.333-4.33307,8.53281a11.97459,11.97459,0,0,0,.2,6.3996C42.36868,45.63514,42.902,45.43515,43.50193,44.96851Z"/>
        <path class="cls-4" d="M92.3656,53.03469a21.73983,21.73983,0,0,0-6.3996,1.66656,1.39993,1.39993,0,0,1-.4-2.13321c.93327-1.39991,4.13307-2.66649,5.79965-2.93315s6.19961-.4,8.06616-.66663c1.70828-.244,2.355-.65741,2.81023-1.64529-.04683.34069.93534-.4707,1.38952-.75456.53329-.33331.4-.66663,1.66656-.59995s.06666-.73329.06666-.73329l-1.86656-1.39992A4.35375,4.35375,0,0,0,102.765,42.302a37.68152,37.68152,0,0,0-2.73318-3.06647c-.73328-.66663-4.66637-1.46658-5.19968-2.13321s-.33331-1.5999-1.13326-1.79988-.66662.53329-1.33325.8a3.59633,3.59633,0,0,1-1.66656.2c-.66663,0-2.13321.6-.73329,1.39992,0,0,7.79952.26664,10.53269,2.53317a6.19236,6.19236,0,0,1,1.86654,6.79958s-1.13325,1.99989-4.86636,1.86655-7.93285-.13332-11.3993,1.66658-3.66644,4.59971-.6,5.46632a4.01388,4.01388,0,0,0,1.79989-.66662c.86661-.6,3.79977-2.59985,10.3327-1.46658A7.52618,7.52618,0,0,0,92.3656,53.03469Z"/>
      </g>
      <circle class="cls-2" cx="75.29998" cy="83.0995" r="21.59867"/>
      <g>
        <path class="cls-2" d="M77.59384,98.63864c-1.49206,0-4.99026-1.94961-5.83025-3.48971-.72569-1.3306-3.23193-5.80966-5.00075-7.57873A5.30007,5.30007,0,0,0,65.271,86.43961a4.244,4.244,0,0,1-1.82571-1.86526,12.58977,12.58977,0,0,1-1.131-3.30418,10.68557,10.68557,0,0,0-.86269-2.61991c-.68078-.99021-2.18532-4.60845-.74142-6.88859,1.48857-2.34965,4.66011-6.31139,9.17872-6.44427.4749-.014.90787-.02071,1.32362-.02071,3.68187,0,8.77021.51145,10.44544,4.93448,1.74636,4.61033,1.82047,8.47724,1.47185,9.523a20.28948,20.28948,0,0,0-.568,2.56388,28.49705,28.49705,0,0,1,1.98618,6.616c.02395.28835.0539.59118.08459.90312.23134,2.34627.51907,5.26639-1.246,6.5084a16.32249,16.32249,0,0,1-5.4704,2.26056A1.49465,1.49465,0,0,1,77.59384,98.63864Z"/>
        <path class="cls-5" d="M71.21239,65.68c4.1811,0,8.57965.707,10.08723,4.687,1.66656,4.39973,1.79988,8.26616,1.46656,9.26609a21.65191,21.65191,0,0,0-.6,2.73317,29.46218,29.46218,0,0,1,1.99987,6.5996c.2,2.39985.79995,5.79964-.99993,7.06623a15.84627,15.84627,0,0,1-5.333,2.19987,1.1109,1.1109,0,0,1-.2393.02343c-1.39339,0-4.74119-1.91035-5.49367-3.28991-.8-1.46656-3.26648-5.86629-5.06637-7.66619s-1.79989-.66662-3.26646-2.93314c-.87066-1.34557-1.26659-4.86638-1.99988-5.933s-1.99988-4.46639-.73329-6.46627,4.33307-6.133,8.86613-6.26628c.43244-.01271.87115-.02059,1.31207-.02059m.00018-.76662h-.00018c-.41952,0-.85606.00685-1.33461.02092-4.69639.13812-7.9624,4.20842-9.49124,6.6224-1.5459,2.44088.03157,6.26692.74922,7.31076a10.97416,10.97416,0,0,1,.80682,2.49662,12.77734,12.77734,0,0,0,1.18115,3.4185,4.61774,4.61774,0,0,0,1.9696,1.99658,4.91741,4.91741,0,0,1,1.39842,1.06218c1.73359,1.73362,4.21593,6.17215,4.93543,7.49122.9136,1.67493,4.564,3.68943,6.16668,3.68943a1.87788,1.87788,0,0,0,.40559-.04169,16.71676,16.71676,0,0,0,5.60791-2.3213c1.94766-1.37058,1.64781-4.41367,1.40687-6.85884-.03056-.31013-.06027-.61129-.08416-.898a28.34619,28.34619,0,0,0-1.97184-6.63025,19.11992,19.11992,0,0,1,.53524-2.39644c.43715-1.31143.1671-5.43978-1.47694-9.78007-1.75942-4.64486-7.00863-5.182-10.804-5.182Z"/>
      </g>
      <g>
        <path class="cls-4" d="M82.96618,92.63224c-.86661.4-.4,1.2666-1.19993,1.99989s-1.53324-.4-2.46651.26664a3.80564,3.80564,0,0,1-3.26646.93329c-1.73324-.2-1.93323-2.06655-2.33319-3.46646s.2-1.13326-.4-1.73323-1.06659-.26666-2.06654-1.99988-1.66656-2.1332-1.19992-2.59983,1.19992-.13332.6-.46665-.53331-.46663-1.66658-1.13325a4.0896,4.0896,0,0,1-2.26653-2.46651c-.26664-1.13328.53331-1.59992,1.13327-2.46653s.53331-2.06653,1.2666-2.46651A11.66312,11.66312,0,0,0,70.96691,75.5s-1.13325-1.13326-1.99988-2.13321-.59995-5.06634-.59995-5.06634a14.33377,14.33377,0,0,0-1.73324,4.13307c-.13332,1.46658,1.19993,2.66651,1.46658,3.3998s-.73329.99993-1.46658,1.06659S65.23394,75.3,64.90062,74.5a24.02583,24.02583,0,0,1-.73329-3.26646c-2.46651,3.33313-.99993,5.26633-.06666,6.99957a25.89106,25.89106,0,0,1,1.66656,5.26634l1.66656,1.26658a3.98566,3.98566,0,0,0,.99995,2.73318,24.4789,24.4789,0,0,1,3.13314,5.19968A19.26368,19.26368,0,0,0,74.9,97.6986c.99994.86661,3.1998.66663,5.46633,0s2.46653-1.86654,3.3998-3.79976S83.83279,92.23227,82.96618,92.63224Z"/>
        <path class="cls-4" d="M72.10019,76.03327a7.00434,7.00434,0,0,1,2.0984,2.22648,3.78921,3.78921,0,0,1,.36811-1.82651C75.1,75.5,76.63323,74.76668,76.96655,75.16666s-.53331-1.26659-1.13327-2.1332a10.89919,10.89919,0,0,1-1.0666-2.66651,10.06764,10.06764,0,0,1-.73329,2.86649A5.29731,5.29731,0,0,1,72.10019,75.3C71.7002,75.43331,70.90025,75.1,72.10019,76.03327Z"/>
        <path class="cls-4" d="M73.3001,82.29955s.53331,1.13326.66663,1.33326A10.52369,10.52369,0,0,1,75.3,81.033c.6-.6,1.33324.93329,1.53324,1.66656s1.53323,1.46658,1.99986,2.1332-.86661,1.39992-.53329,1.7999-.46664.33331-1.53324.33331-.5333.2-1.53323,0a6.39559,6.39559,0,0,1-2.39987-.99993c-.26665-.26666.06668.99993.66663,2.06653a2.421,2.421,0,0,0,2.33319,1.06661c.4-.06667,3.79976-.86662,3.79976-.86662s2.13321-.26666,2.33319-1.19993-.86661-2.99982-.86661-2.99982a13.49176,13.49176,0,0,0-.46663-2.59983c-.26666-.5333-1.46658-.4-2.1332-.5333a3.44146,3.44146,0,0,1-2.46651-1.39992c-1.2666-1.33324-1.7999-1.0666-1.7999-1.0666a.554.554,0,0,0-.03479-.17337,1.70842,1.70842,0,0,0,.01922.23788Z"/>
      </g>
      <path class="cls-3" d="M37.40231,73.70008a1.34615,1.34615,0,0,0,.8,1.39991c.7.4,1.49991-.5,1.5999-1.4999a2.02932,2.02932,0,0,0-1.39991-2.09987c-.7-.1-1.19993.6-.89994.99993s1.09993.4.79995.7S37.40231,73.50009,37.40231,73.70008Z"/>
      <path class="cls-3" d="M29.10282,69.20036c.35353.35353.99994.4.99994,1.09993s-.89994.1-.7.6.3.7-.1.99994-.89994.8-1.19993-.5S28.50286,68.60039,29.10282,69.20036Z"/>
      <path class="cls-3" d="M64.60064,44.60187c0,.9219.5,1.39991.79995,1.29992s1.27129-.585,1.29992-.89995a1.09974,1.09974,0,0,0-.99994-1.29992A.86116.86116,0,0,0,64.60064,44.60187Z"/>
      <path class="cls-3" d="M69.20036,43.002a1.59478,1.59478,0,0,0,2.09987.23332c.3-.43331.79995-1.03327.2-1.43325s-.4-.7-.99994-.5S68.70039,42.202,69.20036,43.002Z"/>
      <path class="cls-3" d="M72.70014,39.80216c.2.8,1.29992,1.89989,1.6999,1.19993s.7-1.09993,1.29992-.89994.99994-.2.5-.9S74.6,37.80229,74.3,38.30226s-.4,1.09993-.89994.99994S72.70014,39.80216,72.70014,39.80216Z"/>
      <path class="cls-3" d="M57.30109,33.60254c-.99994,0-1.6999,1.19993-2.29986.8s-1.6999-.2-1.6999.1-.1.99993-.1.99993c.6.89994,1.89988,1.39992,2.49984.8s.3-1.39992.8-1.69989,2.09988-.3,2.59985-1.19993.5-1.19992.8-1.39992,1.29991,0,1.6999-.79995.4-1.29991.89994-.89994.6,1.09994,1.69989,0,.79995-1.79989,1.99988-1.5999,1.99987.4,2.29986-.3,1.49991-.4,2.29986-1.5999.26665-2.49984-.56663-2.09987S69.50034,26.403,68.60039,26.803s-.99993,1.19992-1.4999.5-.89995-1.19992-.99994-.6a4.78043,4.78043,0,0,1-.5,1.29993s-1.3666,1.53322-2.03322.9666-1.46657-.56662-1.66656-.06666-.79995,1.7999-1.19992,1.89989a17.18,17.18,0,0,1-1.79989.4c-.7.1-1.49991-.79995-1.6999.4S58.301,33.60254,57.30109,33.60254Z"/>
      <path class="cls-3" d="M71.85019,29.20282c.16124.88679-.4,1.39991-.6,1.94988s.6,1.94988,1.29992,1.34991.3-1.09993.55-1.64989.6-.84995.25-1.24993-.15-1.69989-.65-1.44991S71.7502,28.65285,71.85019,29.20282Z"/>
      <path class="cls-3" d="M86.69928,24.15313c.23545.94178.84995,1.44991,1.49991,1.14993a6.81236,6.81236,0,0,0,1.29992-.84995l.94994.3s1.14993.89994,1.6499,0,1.29992-.89994.35-1.34992-1.34992-.55-2.04988-.2-1.09993.79995-1.6499.5-.7-.45-1.09993-.35S86.59929,23.75315,86.69928,24.15313Z"/>
      <path class="cls-3" d="M85.69934,29.85278c.04438.79872.05,1.74989.94994,1.34991a3.11845,3.11845,0,0,0,1.25245-.90615l.59744.65617s-1.19993,1.14993-.85,1.5499,2.14987-.15,2.14987-.15a1.72294,1.72294,0,0,0,.3-1.14993c-.1-.6.35.84995.3-.75s-.35-1.44991-.55-1.44991-.45.3-.75.6a.91031.91031,0,0,1-1.19992.1c-.4-.3-.45-.25-.6-.7s-.79995-.5-.79995-.5A1.5459,1.5459,0,0,0,85.69934,29.85278Z"/>
      <path class="cls-3" d="M108.44794,42.702c-.89024.3462-1.39991.74995-1.39991,1.79989a2.51486,2.51486,0,0,0,.5,1.74989c.3.5,0,.35-.2,1.39991s-.2,1.44991.15,1.99988.55.84995,1.04994.4.15-.55.7-1.99987.99994-.94994.65-2.09987a2.45785,2.45785,0,0,1,.05-1.79989C109.99785,43.70192,109.34789,42.352,108.44794,42.702Z"/>
      <path class="cls-3" d="M113.09766,43.002c.13527.47346.55,1.49991,1.29992.99994s.79995-.55.84994-.95.75-.2,0-.74995-.35-.94994-.89994-.6S112.89767,42.302,113.09766,43.002Z"/>
      <path class="cls-3" d="M116.19747,44.65187c-.05.84994.15,1.64989.7,1.74989s1.24993-.5,1.24993-.5,1.84988.65.4-.7a23.01718,23.01718,0,0,0-1.69989-1.5999c-.2-.1-.65.4-.65.4Z"/>
      <path class="cls-3" d="M110.89779,37.70229c.03161.9481.75.84995,1.39992.9s1.24992,1.5499,1.29992.05-.2-1.79989-.2-1.79989a6.77632,6.77632,0,0,1-1.34992-.3C111.79774,36.40237,110.8478,36.20239,110.89779,37.70229Z"/>
      <path class="cls-3" d="M108.64793,33.40256c-.9219.9219,1.09993,1.6499,1.09993,1.6499s.7,1.29992,1.14993.05.25-1.5499-.05-1.84988a1.22716,1.22716,0,0,0-.6-.35l-1.04993.65S108.79792,33.25257,108.64793,33.40256Z"/>
      <path class="cls-3" d="M64.30066,80.69965c-.79995.5333-.33331,1.79989-.26665,2.33319a2.14312,2.14312,0,0,0,.66662,1.39991c.4.33332.73329.46664.99994-.26665a5.96491,5.96491,0,0,0,.4-2.06654c0-.66662-1.33325-1.53324-1.33325-1.53324Z"/>
      <path class="cls-3" d="M68.5004,81.36628a2.81685,2.81685,0,0,0,2.39985.5333c.73329-.26665,1.86655-.6,2.1332-1.46658s.8-1.39991.26665-2.33319-1.13326-1.39991-1.86655-.99994-1.5999,1.86655-2.06654,2.39985S68.03376,80.9663,68.5004,81.36628Z"/>
      <path class="cls-3" d="M76.09993,78.8331a8.65114,8.65114,0,0,0,2.79983,1.5999c.73329.2,1.79989.13332,2.06654-.73329s.4-1.26659-.33331-1.73323a23.61626,23.61626,0,0,0-2.86649-1.66656,1.59138,1.59138,0,0,0-1.66657.33331A1.707,1.707,0,0,0,76.09993,78.8331Z"/>
      <path class="cls-3" d="M69.567,86.366c.34294,1.11455.73329,1.53324,1.39991,1.19992s.93328-.93327,1.33326-1.13326-.93328-.26665-1.33326-.5333S69.30035,85.49935,69.567,86.366Z"/>
      <path class="cls-3" d="M75.03333,81.56626a15.27386,15.27386,0,0,0-.06666,3.26647c.2.66662.4,1.86655.8,1.66656s.73329-.99994,1.13326-.93327a7.30261,7.30261,0,0,1,1.46658.73329,2.4503,2.4503,0,0,0,.46663-1.46659c-.13332-.59995-1.26658-1.19992-1.53323-1.79988a11.35148,11.35148,0,0,1-.6-1.5999C76.49991,80.76631,75.1,80.16635,75.03333,81.56626Z"/>
      <path class="cls-3" d="M73.10012,91.299c.10718.80387.66662.6,1.0666,1.33325S74.3,94.76545,74.7,95.0321s.93327.66663.73329-.06666-.8-1.66657-.46664-2.06654,1.0666-.93328,1.13326-.26665.06666,2.59984.46664,1.86655,0-1.79989,0-2.06654,1.0666-1.39991,1.19993-.4.26665,2.73316.5333,2.06654-.2-2.06654.06666-2.33319.93328-.46664.99994.4.33331,1.99988.46664,1.33325-.13333-1.53324,0-1.86655.99993-.5333,1.0666.06666.06666,1.93322.33331.93328.13333-1.79989.33331-1.73323.66663-.2.79995.13333.33332,1.39991.4,1.19992.46664-1.39991-.13333-1.5999-1.26658.33331-1.39991,0-.2-.99994-.66663-1.33325.13333,1.13326-.06666,1.33325-.66662.4-.93327.2-.06667-.93328-.79995-1.5999.5333,1.33325.13332,1.66656-.79995.66663-1.0666.33332-.26665-1.93322-.6-1.66657.33331,1.66657,0,1.86655-.4,1.13327-.86662.26665-1.13326-2.39985-.99994-1.33325S75.7,91.63231,75.3,91.8323s-.8.46664-1.13326-.13333S72.96679,90.29906,73.10012,91.299Z"/>
    </g>
  </g>
</svg>
