<svg xmlns="http://www.w3.org/2000/svg" width="150" height="150" viewBox="0 0 150 150">
  <defs>
    <style>
      .cls-1 {
        fill: #0040b8;
        stroke: #999;
        stroke-miterlimit: 10;
        stroke-width: 2px;
      }

      .cls-2 {
        fill: #f6f6f6;
      }

      .cls-3 {
        fill: #332318;
      }

      .cls-4 {
        fill: #ccc;
      }

      .cls-5 {
        fill: #fbb03b;
      }

      .cls-6 {
        fill: #bd742d;
      }
    </style>
  </defs>
  <g id="Layer_5" data-name="Layer 5">
    <path class="cls-1" d="M73.25729,4.0086H17.93478V120.38652a19.34855,19.34855,0,0,0,19.34855,19.34854H63.22471s10.31923.85994,14.18894,8.16939h.10749c3.86971-7.30945,14.18893-8.16939,14.18893-8.16939h25.94138A19.34855,19.34855,0,0,0,137,120.38652V4.0086H73.25729Z"/>
    <rect class="cls-2" x="19" y="5" width="41.78823" height="43.00862"/>
    <path class="cls-3" d="M25.17257,30.98907s-1.7557-.75245-1.86319-2.114a4.65683,4.65683,0,0,1,1.21824-3.40391c.82411-1.07492,2.43648-1.93485,2.57981-1.71987s.50163,1.25407.75244,1.21824.89577-.03583.85994-.28664-.17916-.85994.07166-.85994,1.25407.85994,1.54071.68078,0-1.07492.215-1.11075a5.33284,5.33284,0,0,0,1.86319-.3583,5.65387,5.65387,0,0,1,2.65147-2.65147.634.634,0,0,0,.215-.53746,8.35111,8.35111,0,0,1-1.03909-4.98046s-.14332-.215.215-.28664,2.759-.43,4.12052.43a9.79665,9.79665,0,0,1,1.93486,1.79153c.17915.03584.46579-.3583.53746-.8241a14.58812,14.58812,0,0,1,.78827-2.00652A3.72717,3.72717,0,0,1,44.7361,15.976a5.41455,5.41455,0,0,1,.57329,3.0456s1.2899-.57329,2.544-1.18241,1.54071-.78827,1.54071-.78827.60913,2.29316,0,3.47557l1.07492-.25081a2.21462,2.21462,0,0,1-.28664,1.61238l1.11075-.14333a5.49584,5.49584,0,0,1-1.46906,2.47232,1.97925,1.97925,0,0,1-.32247,1.11075,3.45518,3.45518,0,0,0,1.82736-1.11075s.64495.89576-.14332,2.72313a1.0835,1.0835,0,0,0,1.18241-.17916s.68078,1.50489-1.684,2.90228a5.514,5.514,0,0,0,2.329-.03583s.25081,3.58307-2.72313,5.15962a4.84693,4.84693,0,0,1,.9316,2.68729s-1.28991.50163-3.11727-1.03908a3.53453,3.53453,0,0,1,.60912,2.544,4.54317,4.54317,0,0,1-4.26384-1.7557s-5.33877.8241-7.5961.50163a14.5568,14.5568,0,0,1-4.62215-1.7557s-.35831,0-.39414.17915a7.92187,7.92187,0,0,1-3.33225.82411c-1.71987.14332-2.544-1.07492-2.93811-3.18893,0,0-1.03909-.50163-.96743-.78828s.645-.39413.96743-.39413,3.18893-.07166,3.5114-.07166,1.00326-.71662,1.54072-.96743,2.6873-1.00326,2.57981-1.43323-4.873.03583-4.94463.25082-.17916,1.39739-.4658,1.36156-.89577-1.14658-.89577-1.14658-.60912.17915-.71661.43-.32248,1.14658-.50163,1.03909A3.987,3.987,0,0,1,25.17257,30.98907Z"/>
    <path class="cls-4" d="M38.39408,24.75454s-.96743.53746-1.11075.25081-.14332-1.03909.75244-1.899,1.54072-.82411,2.18567-.32248,1.11075,1.21824.71661,1.3974-.78827.43-1.07492-.07166a.91969.91969,0,0,0-1.21824-.39414C38.35825,23.93043,38.78822,24.50372,38.39408,24.75454Z"/>
    <path class="cls-5" d="M132.37787,70.72523s.57328-.10747.53747-.43-1.36157-.39414-1.36157-.39414.50165-.85992.35826-1.03909c-.14332-.17916-1.18237-.07166-1.18237-.07166s.78829-.8241.46577-1.469-1.00323-.17917-1.00323-.17917-.1792-1.469-.53747-1.61236c-.35833-.14335-.8241,1.00324-.8241,1.00324s-.7883-.93158-1.36157-.7166a4.12963,4.12963,0,0,1-1.25407.215s.0717-.75244.28664-.8241,1.00324,0,1.36157-.32249-.7166-.68079-.7166-.68079,1.36157-.07166.75241-.96742c0,0,.7166-.53747.39415-1.11074s-.85992-.10751-.85992-.10751.14325-1.36154-.07169-1.4332-.57328.28664-.57328.28664.7166-1.97069.32252-2.36484a.801.801,0,0,0-.75248-.28664s-.57328-1.86319-.8241-1.64821a4.819,4.819,0,0,0-.71667,2.00651c-.07162.645-.10744.32249-.10744.32249s-.39414-.53747-.57328-.32249c-.1792.215.14326,1.46908.14326,1.46908l-.50159-.14332s-.17913-1.14659-.60916-.86a1.05535,1.05535,0,0,0,.14339-1.00324c-.215-.57331-.68085-.645-.78829-.57331-.10751.07166.53746-.46581.53746-.46581s.43.35833,1.21819-.10747c.78829-.46581.8241-1.07493.68085-1.14659-.14339-.07166.43-.89577.25082-1.18241-.1792-.28664-1.57658-.50162-1.57658-.50162s.50165-1.14659.1792-1.6482c-.32252-.50166-.68085-.14332-.68085-.14332a11.56873,11.56873,0,0,0-.68072-1.64821c-.14339-.10751-.8958.53743-.86.64493a9.6246,9.6246,0,0,1-.0717,1.11075s-.50158-.85992-.85992-.60913a8.55571,8.55571,0,0,0-.68071.53747s-.14339-1.5407-.46584-1.71987-1.50489.75244-1.50489.75244-.10751-.60912-.53747-.25082c0,0-.1075-1.21822-.60916-1.36157-.50158-.14332-1.3615.53746-1.3615.53746s-.39415-.93157-.8241-1.00323-1.00324.93157-1.00324.93157-1.18244-1.03908-1.54077-.215c-.35827.82411-.07163,1.03909-.07163,1.03909s-.85992-.32245-1.07493.17916a9.82489,9.82489,0,0,0-.28664,2.07817l-.645.43s-.03581-1.11074-.39415-1.0749a1.38114,1.38114,0,0,0-.60909.215s-.39414-1.36157-.96742-1.11074c-.57335.25079-.57335,1.36157-.57335,1.36157s-.93154-.57331-1.07486,0a4.47788,4.47788,0,0,0,.14332,1.64821s-.96743-.10751-1.18244.39411a6.83767,6.83767,0,0,0,.17913,2.29318s-.75241.03582-.78822.39412a5.3615,5.3615,0,0,0,.25076,1.28991s-.68072-.3583-.93155,0,.85992,2.114.85992,2.114a.51493.51493,0,0,0-.6449.43,5.64492,5.64492,0,0,0,0,1.6124l-.46584.07166a.94906.94906,0,0,0-.28664-1.14659c-.60909-.43-1.18237-.32249-1.21825.42995-.03582.75245-.0717,1.07494-.0717,1.07494s-.10743-.10751-.35826,0-.25083,1.11074-.03581,1.32572c.21494.215.89573,1.03908.89573,1.03908s-1.03912-.53743-1.28988-.215c-.25083.32249.215,1.93485.215,1.93485s-.68072,0-.75242.215-1.32575-.215-1.68408.215c-.35827.43.645,2.00651.645,2.00651s-.60915-.28664-.71666.10748c-.10744.39414,1.18237,1.79156,1.64821,1.93488a1.3262,1.3262,0,0,0,.89573-.07166s-1.11074,1.36154-.64491,2.04232a3.148,3.148,0,0,0,1.57659.96742l.6449.43s-1.32575.28664-1.14655.7166c.17913.43,1.28987.8241,1.28987.8241s-.43.75245,0,.85995a5.42259,5.42259,0,0,0,1.79153-.43s-.215,1.18244.93161.71663c0,0-.43.68079.35833.75245s1.82735-.89577,1.82735-.89577l.75241-1.07493s.03581,1.25406.75248.93161c.7166-.32248.96742-1.71987.96742-1.71987s.68079.85992,1.00324-.03584a4.44323,4.44323,0,0,0,.28664-1.64821c0-.04246.1688-.02277.37174.01582.34237.49555,1.63889,2.36749,2.011,2.83273a4.6589,4.6589,0,0,1,.37624,2.14983v5.58326c-.10791-.03115-.22588-.06358-.36108-.09872a12.19365,12.19365,0,0,0-5.86705.908,1.02063,1.02063,0,0,1-.27135-.92789l-.54511-.073a1.61423,1.61423,0,0,0,.32956,1.27965c-.024.018-.05452.03622-.07525.05416a3.94994,3.94994,0,0,1-2.50772.95394,1.7057,1.7057,0,0,1-1.35151-.96736c-.23876-.62827.235-1.22542.67387-1.61548l-.36483-.411c-1.0296.91532-1.01565,1.71313-.8225,2.22176a2.23333,2.23333,0,0,0,1.865,1.32146,4.18687,4.18687,0,0,0,1.10611-.15582,1.07246,1.07246,0,0,1-.13661.437c-.14433.26129-.33533.42225-.51721.40669-.58321-.04882-1.7979-.15023-2.21.81069A2.31763,2.31763,0,0,0,104.1276,91.28l.46142-.29777a1.8,1.8,0,0,1-.24681-1.40892c.23554-.55048.97917-.53653,1.65894-.48019a1.13211,1.13211,0,0,0,1.04355-.68783,1.52835,1.52835,0,0,0,.199-.89255,4.49657,4.49657,0,0,0,1.21791-.74278c.75275-.65242,4.6034-1.469,5.93184-1.124.219.05674.37745.103.499.14158v.07619a4.36134,4.36134,0,0,1-.34928,2.6604,8.265,8.265,0,0,1-1.73083,1.21446,7.66252,7.66252,0,0,0-2.592,1.6466c-.0169.02039-.02656.04084-.04252.06123l-.00845-.04836a.556.556,0,0,1-.50326-.09818,1.28718,1.28718,0,0,1-.19852-.93838l-.544-.07458a1.80716,1.80716,0,0,0,.36,1.40784.98515.98515,0,0,0,.59689.25673,1.39785,1.39785,0,0,0-.0888.88876c.23125.93194,1.39873,1.42609,1.44863,1.44647l.05418.0161a2.33247,2.33247,0,0,1,1.67128,1.37565,1.04461,1.04461,0,0,1-.68729,1.373l.088.26022.08692.26075a1.57663,1.57663,0,0,0,1.03389-2.06777,2.32767,2.32767,0,0,0-.26894-.54079,1.47087,1.47087,0,0,0,.754-.74312,1.61,1.61,0,0,0-.00966-1.15568l-.50594.21515a1.05806,1.05806,0,0,1,.007.73289,1.01172,1.01172,0,0,1-.60627.51668l.00134.00345a3.22122,3.22122,0,0,0-1.43119-.76371c-.28275-.1234-.9695-.52418-1.10256-1.06125a1.1137,1.1137,0,0,1,.31816-.97272,7.35749,7.35749,0,0,1,2.40418-1.50066c1.1703-.5536,2.37118-1.12373,2.68706-2.01966a.7223.7223,0,0,0,.3136-.25542c.24183-.43.29562-.8062,1.02114-.75244a3.919,3.919,0,0,1,2.0331.90344c.244.43958.44646,1.00394.1908,1.35255-.37879.51721-.73236.45658-1.2206.37128-.12179-.02093-.242-.04185-.36054-.05258a1.54992,1.54992,0,0,0-1.14334.42171,1.47023,1.47023,0,0,0-.49951,1.08807c0,.88152,1.22811,1.65465,1.36815,1.73942l.286-.46892c-.42708-.26075-1.10471-.83645-1.10471-1.2705a.92686.92686,0,0,1,.3203-.68246,1.02546,1.02546,0,0,1,.72324-.28007c.10409.00966.20978.0279.31655.04668a2.858,2.858,0,0,0,.64008.05962,2.27972,2.27972,0,0,0,.23446,1.56069,2.138,2.138,0,0,0,1.52.84342,1.71858,1.71858,0,0,1,.21622.04883,1.79712,1.79712,0,0,1,.80747,2.05006.847.847,0,0,1-.39649.5714,2.35085,2.35085,0,0,1-1.52.08531l-.14647.52955a3.59048,3.59048,0,0,0,.87615.11106,2.10147,2.10147,0,0,0,1.06983-.25324,1.38647,1.38647,0,0,0,.65242-.92068,2.46388,2.46388,0,0,0-.15721-1.64747,1.27188,1.27188,0,0,0,.77046-.43425,1.99525,1.99525,0,0,0,.24465-1.59724l-.53116.14a1.431,1.431,0,0,1-.1395,1.11007.86886.86886,0,0,1-.66851.26464,1.8905,1.8905,0,0,0-.64544-.51413,1.66158,1.66158,0,0,0-.32835-.08369,1.65567,1.65567,0,0,1-1.16051-.59877,1.96425,1.96425,0,0,1-.11113-1.43232,1.62486,1.62486,0,0,0,.53069-.48039,1.71683,1.71683,0,0,0-.06009-1.7627.831.831,0,0,0,.05352-.30783.877.877,0,0,1,.23849-.50061,6.5412,6.5412,0,0,0,4.06083.08165,5.64489,5.64489,0,0,0,1.63963-1.02852,3.31005,3.31005,0,0,1,1.59831-.83859,1.42112,1.42112,0,0,1,1.40087.28972,2.02116,2.02116,0,0,1,.51936,1.75874c-.18188.99955-1.68362,1.54841-2.14825,1.54841a4.93712,4.93712,0,0,1-1.58008-.66046l-.279.47322a9.36159,9.36159,0,0,0,.96307.48824,1.212,1.212,0,0,0-.25324.43458,2.48552,2.48552,0,0,0,.264,1.7142l.48072-.265a1.91041,1.91041,0,0,1-.22319-1.2764.70448.70448,0,0,1,.35652-.39455,1.29893,1.29893,0,0,0,.27122.03562c.56067,0,2.43475-.60145,2.68907-1.9991a2.562,2.562,0,0,0-.68461-2.25824,1.87991,1.87991,0,0,0-.33667-.24975,1.87907,1.87907,0,0,0-.7675-1.39953,1.9895,1.9895,0,0,0-1.72923-.22159c-1.3613.39706-1.38987,2.39076-1.38189,2.78729a5.12679,5.12679,0,0,1-1.0137.55634c-1.64928.6991-4.17578-.26236-4.20047-.272l-.00462.012a4.701,4.701,0,0,1-2.35193-1.906V77.26432a1.93838,1.93838,0,0,1,.80613-1.18241c.267-.15576.792-.47734,1.31556-.80073a.20384.20384,0,0,0,.064.102c.25083.17917,1.18237-.28664,1.18237-.28664l.78829.3583s-.14332.25083.14332.75245a1.3888,1.3888,0,0,0-.75241,1.32572,1.94181,1.94181,0,0,0,1.254.10751,1.98028,1.98028,0,0,0,.07169,1.79153s1.57652-.17917,2.07817-.86a4.404,4.404,0,0,0,.57328-.89576s.68085,1.03912.85992.57331c.1792-.4658.25082-.71663.25082-.71663s.645,2.14986,1.07493,1.68406a1.36,1.36,0,0,0,.32246-1.07494s.89579.68079.93167-.14331c.03582-.82411-.10757-1.57655-.43-1.57655a8.33812,8.33812,0,0,1-1.25407-.2508s-.21494-1.00327,0-1.25409.7166-1.00324.75242-.43c.03588.57328.03588,1.684.57334,1.36157a.85477.85477,0,0,1,.93161-.03585s.03582.89576.53747.89576c.50158,0,.8241-1.57654.46577-2.14982,0,0,.32245-.215.46577,0,.14339.215.25083.43.8958.17916a1.62126,1.62126,0,0,0,0-1.21825s.46577.07166.57328-.32248a.99276.99276,0,0,0-.14332-.75245s1.14656-.215,1.32576-.64494C133.09447,71.3702,132.37787,70.72523,132.37787,70.72523Zm-6.01446,13.25264a1.42366,1.42366,0,0,1,1.25923.14272,1.29678,1.29678,0,0,1,.49373.73387,2.29192,2.29192,0,0,0-.98251.04409,3.7792,3.7792,0,0,0-1.74029.885C125.4434,85.17228,125.63722,84.1896,126.36341,83.97787Zm-11.0947-7.251A6.24836,6.24836,0,0,1,114.195,75.369a.43283.43283,0,0,0,.3034-.09333,2.424,2.424,0,0,1,.64947-.38331,5.45886,5.45886,0,0,1,.7121,1.35077A.50791.50791,0,0,1,115.26871,76.72688Zm1.10176-1.74676c-.12548.03585-.26565-.12417-.3971-.35132a1.121,1.121,0,0,0,.38818-1.07295.66063.66063,0,0,1,.97493-.72941C117.17338,73.36028,116.68092,74.89146,116.37047,74.98012Zm1.15554.51061c-.6449.26873-.48368-.32249-.16122-.75245a9.84554,9.84554,0,0,0,.60976-1.0754,1.12589,1.12589,0,0,0,.35773.6096c.28664.14332,1.14655-.43,1.14655-.43s-.04915.23486-.08892.5216A16.34187,16.34187,0,0,1,117.526,75.49073Z"/>
    <path class="cls-5" d="M55.95112,70.72523s.57327-.10747.53746-.43-1.36157-.39414-1.36157-.39414.50165-.85992.35827-1.03909c-.14332-.17916-1.18237-.07166-1.18237-.07166s.78829-.8241.46577-1.469-1.00324-.17917-1.00324-.17917-.1792-1.469-.53747-1.61236c-.35833-.14335-.8241,1.00324-.8241,1.00324s-.78829-.93158-1.36157-.7166a4.12958,4.12958,0,0,1-1.25406.215s.07169-.75244.28664-.8241,1.00323,0,1.36157-.32249-.7166-.68079-.7166-.68079,1.36157-.07166.75241-.96742c0,0,.7166-.53747.39414-1.11074s-.85991-.10751-.85991-.10751.14325-1.36154-.0717-1.4332-.57328.28664-.57328.28664.7166-1.97069.32252-2.36484a.801.801,0,0,0-.75247-.28664s-.57328-1.86319-.82411-1.64821a4.81916,4.81916,0,0,0-.71666,2.00651c-.07163.645-.10744.32249-.10744.32249s-.39415-.53747-.57328-.32249c-.1792.215.14325,1.46908.14325,1.46908l-.50158-.14332s-.17914-1.14659-.60916-.86a1.05533,1.05533,0,0,0,.14338-1.00324c-.215-.57331-.68085-.645-.78829-.57331-.1075.07166.53747-.46581.53747-.46581s.43.35833,1.21818-.10747c.78829-.46581.82411-1.07493.68085-1.14659-.14338-.07166.43-.89577.25083-1.18241-.1792-.28664-1.57658-.50162-1.57658-.50162s.50165-1.14659.1792-1.6482c-.32252-.50166-.68086-.14332-.68086-.14332a11.56858,11.56858,0,0,0-.68071-1.64821c-.14339-.10751-.8958.53743-.86.64493A9.6248,9.6248,0,0,1,45.09437,52.38s-.50159-.85992-.85992-.60913a8.55479,8.55479,0,0,0-.68072.53747s-.14339-1.5407-.46584-1.71987-1.50489.75244-1.50489.75244-.1075-.60912-.53746-.25082c0,0-.10751-1.21822-.60916-1.36157-.50159-.14332-1.36151.53746-1.36151.53746s-.39414-.93157-.8241-1.00323-1.00324.93157-1.00324.93157-1.18243-1.03908-1.54077-.215c-.35826.82411-.07162,1.03909-.07162,1.03909s-.85992-.32245-1.07493.17916a9.82422,9.82422,0,0,0-.28664,2.07817l-.645.43s-.03581-1.11074-.39414-1.0749a1.38108,1.38108,0,0,0-.60909.215s-.39415-1.36157-.96743-1.11074c-.57334.25079-.57334,1.36157-.57334,1.36157s-.93155-.57331-1.07487,0a4.47788,4.47788,0,0,0,.14332,1.64821s-.96742-.10751-1.18243.39411a6.83767,6.83767,0,0,0,.17913,2.29318s-.75241.03582-.78823.39412a5.3615,5.3615,0,0,0,.25076,1.28991s-.68072-.3583-.93154,0,.85992,2.114.85992,2.114a.51494.51494,0,0,0-.64491.43,5.64492,5.64492,0,0,0,0,1.6124l-.46584.07166a.94906.94906,0,0,0-.28664-1.14659c-.60909-.43-1.18237-.32249-1.21825.42995-.03581.75245-.07169,1.07494-.07169,1.07494s-.10744-.10751-.35827,0-.25082,1.11074-.03581,1.32572c.21495.215.89573,1.03908.89573,1.03908s-1.03912-.53743-1.28988-.215c-.25082.32249.21495,1.93485.21495,1.93485s-.68072,0-.75241.215-1.32576-.215-1.68409.215c-.35827.43.645,2.00651.645,2.00651s-.60916-.28664-.71667.10748c-.10744.39414,1.18237,1.79156,1.64821,1.93488a1.3262,1.3262,0,0,0,.89573-.07166s-1.11074,1.36154-.6449,2.04232a3.148,3.148,0,0,0,1.57658.96742l.64491.43s-1.32576.28664-1.14656.7166c.17913.43,1.28988.8241,1.28988.8241s-.43.75245,0,.85995a5.42259,5.42259,0,0,0,1.79153-.43s-.215,1.18244.93161.71663c0,0-.43.68079.35833.75245s1.82734-.89577,1.82734-.89577l.75241-1.07493s.03582,1.25406.75248.93161c.7166-.32248.96743-1.71987.96743-1.71987s.68078.85992,1.00323-.03584a4.443,4.443,0,0,0,.28664-1.64821c0-.04246.16881-.02277.37175.01582.34237.49555,1.63889,2.36749,2.011,2.83273a4.659,4.659,0,0,1,.37624,2.14983v5.58326c-.10791-.03115-.22588-.06358-.36109-.09872a12.19365,12.19365,0,0,0-5.867.908,1.02063,1.02063,0,0,1-.27135-.92789l-.54511-.073a1.61431,1.61431,0,0,0,.32956,1.27965c-.024.018-.05452.03622-.07524.05416a3.95,3.95,0,0,1-2.50773.95394,1.70573,1.70573,0,0,1-1.35151-.96736c-.23875-.62827.235-1.22542.67388-1.61548l-.36484-.411c-1.02959.91532-1.01564,1.71313-.82249,2.22176a2.23331,2.23331,0,0,0,1.865,1.32146,4.187,4.187,0,0,0,1.10612-.15582,1.07276,1.07276,0,0,1-.13661.437c-.14433.26129-.33533.42225-.51722.40669-.5832-.04882-1.7979-.15023-2.21.81069a2.31762,2.31762,0,0,0,.2908,1.92345l.46141-.29777a1.79992,1.79992,0,0,1-.2468-1.40892c.23553-.55048.97916-.53653,1.65894-.48019a1.13209,1.13209,0,0,0,1.04354-.68783,1.52828,1.52828,0,0,0,.199-.89255A4.49647,4.49647,0,0,0,32.03491,86.77c.75275-.65242,4.6034-1.469,5.93184-1.124.219.05674.37744.103.499.14158v.07619a4.36142,4.36142,0,0,1-.34928,2.6604,8.26524,8.26524,0,0,1-1.73084,1.21446,7.66262,7.66262,0,0,0-2.592,1.6466c-.0169.02039-.02655.04084-.04252.06123l-.00845-.04836a.556.556,0,0,1-.50326-.09818,1.28722,1.28722,0,0,1-.19851-.93838l-.544-.07458a1.80716,1.80716,0,0,0,.36,1.40784.98509.98509,0,0,0,.59688.25673,1.39777,1.39777,0,0,0-.08879.88876c.23124.93194,1.39872,1.42609,1.44862,1.44647l.05419.0161a2.33248,2.33248,0,0,1,1.67128,1.37565,1.04462,1.04462,0,0,1-.68729,1.373l.088.26022.08692.26075a1.57662,1.57662,0,0,0,1.03388-2.06777,2.32726,2.32726,0,0,0-.26893-.54079,1.47088,1.47088,0,0,0,.75395-.74312,1.61,1.61,0,0,0-.00965-1.15568l-.50595.21515a1.0581,1.0581,0,0,1,.007.73289,1.01174,1.01174,0,0,1-.60628.51668l.00134.00345a3.22126,3.22126,0,0,0-1.43118-.76371c-.28275-.1234-.96951-.52418-1.10256-1.06125a1.11367,1.11367,0,0,1,.31816-.97272,7.35733,7.35733,0,0,1,2.40417-1.50066c1.1703-.5536,2.37118-1.12373,2.68706-2.01966a.72224.72224,0,0,0,.3136-.25542c.24184-.43.29563-.8062,1.02114-.75244a3.91894,3.91894,0,0,1,2.0331.90344c.244.43958.44646,1.00394.19081,1.35255-.37879.51721-.73236.45658-1.2206.37128-.12179-.02093-.242-.04185-.36055-.05258a1.54992,1.54992,0,0,0-1.14334.42171,1.47026,1.47026,0,0,0-.4995,1.08807c0,.88152,1.22811,1.65465,1.36814,1.73942l.286-.46892c-.42708-.26075-1.10471-.83645-1.10471-1.2705a.92688.92688,0,0,1,.32031-.68246,1.02544,1.02544,0,0,1,.72324-.28007c.10408.00966.20978.0279.31655.04668a2.85785,2.85785,0,0,0,.64007.05962,2.27977,2.27977,0,0,0,.23446,1.56069,2.138,2.138,0,0,0,1.52.84342,1.71815,1.71815,0,0,1,.21622.04883A1.79712,1.79712,0,0,1,44.97,94.93857a.847.847,0,0,1-.3965.5714,2.35085,2.35085,0,0,1-1.52.08531l-.14647.52955a3.59067,3.59067,0,0,0,.87615.11106,2.10142,2.10142,0,0,0,1.06983-.25324,1.38647,1.38647,0,0,0,.65242-.92068,2.46389,2.46389,0,0,0-.1572-1.64747,1.27189,1.27189,0,0,0,.77045-.43425,1.99527,1.99527,0,0,0,.24466-1.59724l-.53116.14a1.43107,1.43107,0,0,1-.1395,1.11007.86889.86889,0,0,1-.66851.26464,1.89052,1.89052,0,0,0-.64545-.51413,1.66139,1.66139,0,0,0-.32835-.08369,1.65569,1.65569,0,0,1-1.16051-.59877,1.96426,1.96426,0,0,1-.11112-1.43232,1.62505,1.62505,0,0,0,.53069-.48039,1.71685,1.71685,0,0,0-.06009-1.7627.83121.83121,0,0,0,.05352-.30783.877.877,0,0,1,.23848-.50061,6.54123,6.54123,0,0,0,4.06084.08165,5.64481,5.64481,0,0,0,1.63962-1.02852,3.3101,3.3101,0,0,1,1.59831-.83859,1.42111,1.42111,0,0,1,1.40087.28972,2.02113,2.02113,0,0,1,.51936,1.75874c-.18188.99955-1.68362,1.54841-2.14825,1.54841a4.93708,4.93708,0,0,1-1.58007-.66046l-.279.47322a9.36214,9.36214,0,0,0,.96306.48824,1.212,1.212,0,0,0-.25324.43458,2.48552,2.48552,0,0,0,.264,1.7142l.48073-.265a1.91035,1.91035,0,0,1-.2232-1.2764.70449.70449,0,0,1,.35653-.39455,1.29892,1.29892,0,0,0,.27121.03562c.56067,0,2.43476-.60145,2.68907-1.9991a2.562,2.562,0,0,0-.68461-2.25824,1.87991,1.87991,0,0,0-.33667-.24975,1.879,1.879,0,0,0-.7675-1.39953,1.98948,1.98948,0,0,0-1.72922-.22159c-1.36131.39706-1.38988,2.39076-1.38189,2.78729a5.12708,5.12708,0,0,1-1.0137.55634c-1.64929.6991-4.17579-.26236-4.20047-.272l-.00463.012a4.701,4.701,0,0,1-2.35193-1.906V77.26432a1.93843,1.93843,0,0,1,.80613-1.18241c.26706-.15576.792-.47734,1.31556-.80073a.20392.20392,0,0,0,.064.102c.25082.17917,1.18237-.28664,1.18237-.28664l.78829.3583s-.14332.25083.14332.75245a1.38879,1.38879,0,0,0-.75241,1.32572,1.94179,1.94179,0,0,0,1.254.10751,1.98026,1.98026,0,0,0,.0717,1.79153s1.57651-.17917,2.07816-.86a4.40332,4.40332,0,0,0,.57328-.89576s.68085,1.03912.85992.57331c.1792-.4658.25083-.71663.25083-.71663s.645,2.14986,1.07493,1.68406a1.36,1.36,0,0,0,.32245-1.07494s.8958.68079.93168-.14331c.03581-.82411-.10758-1.57655-.43-1.57655a8.33793,8.33793,0,0,1-1.25406-.2508s-.21495-1.00327,0-1.25409.7166-1.00324.75241-.43c.03588.57328.03588,1.684.57335,1.36157a.85477.85477,0,0,1,.93161-.03585s.03581.89576.53746.89576c.50159,0,.82411-1.57654.46577-2.14982,0,0,.32246-.215.46578,0,.14338.215.25082.43.89579.17916a1.62126,1.62126,0,0,0,0-1.21825s.46578.07166.57328-.32248a.99276.99276,0,0,0-.14332-.75245s1.14656-.215,1.32576-.64494C56.66771,71.3702,55.95112,70.72523,55.95112,70.72523ZM49.93665,83.97787a1.42365,1.42365,0,0,1,1.25923.14272,1.29679,1.29679,0,0,1,.49374.73387,2.29192,2.29192,0,0,0-.98251.04409,3.77925,3.77925,0,0,0-1.7403.885C49.01664,85.17228,49.21046,84.1896,49.93665,83.97787ZM38.842,76.72688A6.248,6.248,0,0,1,37.76823,75.369a.43287.43287,0,0,0,.30341-.09333,2.424,2.424,0,0,1,.64946-.38331,5.459,5.459,0,0,1,.71211,1.35077A.50791.50791,0,0,1,38.842,76.72688Zm1.10175-1.74676c-.12548.03585-.26565-.12417-.39709-.35132a1.12106,1.12106,0,0,0,.38817-1.07295.66064.66064,0,0,1,.97494-.72941C40.74662,73.36028,40.25416,74.89146,39.94371,74.98012Zm1.15555.51061c-.64491.26873-.48368-.32249-.16123-.75245a9.84386,9.84386,0,0,0,.60976-1.0754,1.12589,1.12589,0,0,0,.35773.6096c.28664.14332,1.14656-.43,1.14656-.43s-.04916.23486-.08893.5216A16.34188,16.34188,0,0,1,41.09926,75.49073Z"/>
  </g>
  <g id="Layer_7" data-name="Layer 7">
    <g>
      <path class="cls-6" d="M112.31553,55.20868a1.83045,1.83045,0,0,0,.46906.4691,1.25426,1.25426,0,0,0,.70419.17376,1.39836,1.39836,0,0,0,.74551-.26038c-.01409.02183-.03367.0383-.047.0609a1.7619,1.7619,0,0,0-.24163.89308,1.93329,1.93329,0,0,0,.53934,1.50522,4.78928,4.78928,0,0,0,.58723.44113,1.71881,1.71881,0,0,0,1.733,0,1.761,1.761,0,0,0,.85033-1.48239c.00516-.09386.00851-.18041.00959-.266a.73889.73889,0,0,0,.268.36108,1.162,1.162,0,0,0,.22085.29033.26158.26158,0,0,0,.30428.03926.93833.93833,0,0,0,.35156-.40487.75828.75828,0,0,0,.2134-.72069,2.29941,2.29941,0,0,0-.31662-.7951.9506.9506,0,0,0-.06391-.071c.01515-.0112.03286-.01288.04681-.02747a2.05064,2.05064,0,0,0,.34418-.43193,1.03661,1.03661,0,0,0,.02817-.68726,3.5424,3.5424,0,0,0-.421-1.12932.36447.36447,0,0,0-.66295.27946,2.61338,2.61338,0,0,1,.02354.91947,1.12975,1.12975,0,0,0-.035.47818,1.22986,1.22986,0,0,0,.06653.18376.38713.38713,0,0,0-.52056.36223c.0122.17832-.01228.3536-.0047.53079.00128.02887.01026.05657.014.08507a1.91626,1.91626,0,0,0-.1737-.30626.89123.89123,0,0,0,.1576-.557c-.00737-.12373-.01059-.24861-.0224-.37208a1.02763,1.02763,0,0,0-.141-.52127q-.09266-.12313-.18886-.24341c-.04547-.07428-.16431-.33694-.24137-.49508a.42844.42844,0,0,0-.15116-.16609,2.98467,2.98467,0,0,0-.02435-.47365,1.76065,1.76065,0,0,0-.523-.93091.61752.61752,0,0,0-1.0259.27085,2.99229,2.99229,0,0,0-.10181.65935c-.00751-.00271-.01375-.00761-.02139-.01009a.75664.75664,0,0,0-.3869-.08652.77405.77405,0,0,0-.11013.00976,1.15036,1.15036,0,0,0,.01254-.45722,2.02749,2.02749,0,0,0-.59876-1.07533.84412.84412,0,0,0-1.39886.36933,1.96774,1.96774,0,0,0,.10476,1.38565c.015.02883.03595.05023.05271.07679a.91058.91058,0,0,0-.69681.65825c-.0106.05462-.02173.10921-.03179.16394a1.44774,1.44774,0,0,0,.13105,1.06179A2.62876,2.62876,0,0,0,112.31553,55.20868Z"/>
      <path class="cls-6" d="M115.61008,63.35343a1.8121,1.8121,0,0,0,.33734-.34781,1.88067,1.88067,0,0,0,.25947-1.391,1.41235,1.41235,0,0,0-.74047-.91927,1.01668,1.01668,0,0,0-1.18331.15268c.22816-.1952.139-.11167.0617-.05842a1.48116,1.48116,0,0,0-.48924.51772c-.0047.00888-.05037.11528-.0945.2243a2.4997,2.4997,0,0,0-.77126-.46346c-.134-.05016-.2307.14081-.13574.23316a1.86408,1.86408,0,0,1,.52674,1.79622c-.10315.54823.31138,1.32052.8915.9194a2.73964,2.73964,0,0,0-.13393.2736,2.28767,2.28767,0,0,0-.19771.5946,2.7177,2.7177,0,0,0,.01965.85684,1.30144,1.30144,0,0,0,1.09459.94311,1.35113,1.35113,0,0,0,1.31194-.62861,2.61249,2.61249,0,0,0,.35846-1.41582A1.305,1.305,0,0,0,115.61008,63.35343Z"/>
      <path class="cls-6" d="M111.57714,67.07471a1.28026,1.28026,0,0,0-.18249-.0336c-.02052-.00386-.08343-.013-.10817-.01868a1.00012,1.00012,0,0,0-1.20115.682,1.81226,1.81226,0,0,0,.15821,1.435,2.79384,2.79384,0,0,0,.98016.99965,1.451,1.451,0,0,0,1.7525-.22612,1.39211,1.39211,0,0,0,.37188-.63816,1.46923,1.46923,0,0,0-.66456-1.63315c-.21266-.0953-.40561-.2242-.61264-.3296A3.37289,3.37289,0,0,0,111.57714,67.07471Z"/>
      <path class="cls-6" d="M106.20369,66.25992A1.40917,1.40917,0,0,1,107.4,67.65221c-.01878.89908,1.44708.77055,1.25071-.16924a2.375,2.375,0,0,0-.5993-1.13013,1.45268,1.45268,0,0,1,.22158-.14865.31048.31048,0,0,0,.0621-.482.2605.2605,0,0,0-.06136-.23191l-.10462-.13541c-.06217-.0724-.1391-.15955-.20717-.22594-.15506-.1512-.3246-.28114-.47429-.43979a1.91345,1.91345,0,0,0-.629-.38563,1.23213,1.23213,0,0,1-.40474-.359c-.22165-.27376-.588-.0171-.61915.25646a2.33293,2.33293,0,0,0,.23593,1.50432A.31924.31924,0,0,0,106.20369,66.25992Z"/>
      <path class="cls-6" d="M111.8051,71.23329a1.47606,1.47606,0,0,0-.72532-.97048,1.73819,1.73819,0,0,0-.89164-.31443,3.43243,3.43243,0,0,0-.60735.08607.97879.97879,0,0,0-.71686.94161c.00228.08071.01227.15908.0183.23755a2.18579,2.18579,0,0,0-.241-.16968,3.52327,3.52327,0,0,1-.62988-.48965.59086.59086,0,0,0-.97923.57,2.65758,2.65758,0,0,0,1.20953,1.97294,1.23934,1.23934,0,0,0-.09892.27108,1.95193,1.95193,0,0,0-.04306.51289c-.10429.01847-.20757.04064-.31092.063a1.96755,1.96755,0,0,0-.98513-2.108,1.93333,1.93333,0,0,0-.27845-.10875.70288.70288,0,0,0-.00993-.167,1.56442,1.56442,0,0,0-1.5845-1.23739,4.60162,4.60162,0,0,1-.542-.44941.31327.31327,0,0,0-.51265.08c-.01925-.02032-.03823-.04085-.05634-.06217a.10075.10075,0,0,0-.01059-.01137c-.00752-.01331-.015-.0273-.02227-.03752a1.55251,1.55251,0,0,0-.56905-.46329c-.0503-.02918-.09819-.0611-.147-.09286l-.00871-.005c-.00255-.00328.00161-.00067-.00363-.00623-.08738-.09457-.18215-.17578-.2647-.27618a.80915.80915,0,0,0-1.35225.78718,3.4224,3.4224,0,0,0,.61633,1.03962,1.42694,1.42694,0,0,0,.62754.44945,2.06624,2.06624,0,0,0,.63639.0512.8186.8186,0,0,0,.14365-.02652,5.01058,5.01058,0,0,0-.292.544,2.88363,2.88363,0,0,0,2.03893,3.7632,1.52313,1.52313,0,0,0,1.24032.04614,1.20768,1.20768,0,0,0,.17007.25247c-.08812.03749-.17591.07679-.2688.10768-.20253.06736-.418.06894-.6164.14472a.64747.64747,0,0,1-.6105-.01448c-.40172-.14872-.69332.42191-.40722.69946a5.21538,5.21538,0,0,0,.82632.61124,1.5102,1.5102,0,0,0,1.10424.14315,1.36821,1.36821,0,0,0,1.22234-.97473,2.33239,2.33239,0,0,0,.26135.05777,1.87939,1.87939,0,0,0,1.26372-.1351,2.30676,2.30676,0,0,0,.5989-.52539,1.26666,1.26666,0,0,0,.138-.19567,1.44089,1.44089,0,0,0,.63149-.2021,1.60515,1.60515,0,0,0,.73082-.95043,1.6231,1.6231,0,0,0-.16035-1.22539q-.14365-.22906-.28745-.45812a1.78211,1.78211,0,0,0-.10717-.14245l.01107-.00024a.97438.97438,0,0,0,.9249-1.21416C111.85379,71.4988,111.82978,71.366,111.8051,71.23329Z"/>
      <path class="cls-6" d="M116.31715,69.58974a.34151.34151,0,0,0-.15418-.19543c.318-.6225-.21482-1.36945-.52734-1.93357a.36552.36552,0,0,0-.67582.183c-.01141.71506-.14627,1.721.6449,2.04293.02522.39525-.04876,1.00337.25022,1.29433a.41986.41986,0,0,0,.65389-.08426.83055.83055,0,0,0-.00348-.69035Z"/>
      <path class="cls-6" d="M118.89174,69.33925a1.259,1.259,0,0,0-1.52145-.1963,1.27983,1.27983,0,0,0-.577,1.4178c.011.03112.01878.06315.02763.0949-.00168.03028-.00168.06931-.00114.1068-.00429.015-.00738.03038-.01234.04524a1.64,1.64,0,0,0,.17357,1.17087,1.4055,1.4055,0,0,0,2.19305.28261A2.19224,2.19224,0,0,0,118.89174,69.33925Z"/>
      <path class="cls-6" d="M125.91769,68.77238c-.18732-.254-.69681-.11666-.56094.23647a6.36886,6.36886,0,0,1,.2126,2.56416,1.62324,1.62324,0,0,0-.73732-.28392,2.53023,2.53023,0,0,0-.52312-.66352.42217.42217,0,0,0-.69949.40719c.009.04846.00684.10167.01314.15154a1.90386,1.90386,0,0,0-.5879-.36129.589.589,0,0,0-.71794.40176,1.58,1.58,0,0,0-.83825-.57754c-.0609-.01388-.12434-.01954-.187-.028a4.13431,4.13431,0,0,0,.68072-1.10387,2.16336,2.16336,0,0,0,.40078.26012c.61661.30079,1.39806-.33443.99244-.99244a4.4457,4.4457,0,0,0-1.25332-1.16812.56081.56081,0,0,0-.35062-.10171,1.167,1.167,0,0,0-.3462-.312,1.70475,1.70475,0,0,0-.03366-.58827,1.65783,1.65783,0,0,0-.50038-.84449.97344.97344,0,0,0,1.17466-.94912c-.00014-.027-.00121-.05321-.00135-.08011a.62309.62309,0,0,0,.33587-.24325,2.27372,2.27372,0,0,0,.43553.3855.99167.99167,0,0,0,1.258-.19882c.01254.016.02314.03109.03608.04742a1.42633,1.42633,0,0,0,2.42222-1.00331A2.92357,2.92357,0,0,0,125.01954,61.39a.90107.90107,0,0,0-1.3114.53354,3.9353,3.9353,0,0,0-.2126,1.10012,1.37219,1.37219,0,0,0-.1572-.034,1.50156,1.50156,0,0,1-.7832-.394.37378.37378,0,0,0-.19623-.07884,1.08615,1.08615,0,0,0-.84174-.49029,3.2082,3.2082,0,0,0-.5142-.79754.99466.99466,0,0,0-.331-.25421l.01851-.03649c.133-.27406.01368-.39408.05935-.66764q-.02706-.19752-.04742-.39592a.6977.6977,0,0,0,.24332-.14034,1.58155,1.58155,0,0,0,.25042-1.04062.8231.8231,0,0,0,.2242-.252,1.45453,1.45453,0,0,0,.21951-.73853.88224.88224,0,0,0,.911-.89111,1.49833,1.49833,0,0,0-.2-.83369,2.89191,2.89191,0,0,0-.43056-.49122,4.21019,4.21019,0,0,0-.93644-.66459.86.86,0,0,0-.22769-.07756,1.13491,1.13491,0,0,0-.00107-.54616,2.76,2.76,0,0,0-.50018-1.04.39453.39453,0,0,0-.72793.19714,1.83243,1.83243,0,0,1-.22.7047,1.69462,1.69462,0,0,0-.08886,1.02114.57547.57547,0,0,0,.61278.56516.81547.81547,0,0,0,.20629.4025,2.44106,2.44106,0,0,1,.15506.197.97783.97783,0,0,0-.63417.17024c-.08249.0056-.16485.01442-.24868.02623-.33332.04688-.30529.47147-.10624.64356a.8049.8049,0,0,0,.02992.31256,2.48554,2.48554,0,0,0,.24653.47469l.00235.009a1.6855,1.6855,0,0,0,.15941.39213,1.1296,1.1296,0,0,0,.55631.45015c-.00979-.00208-.00221.004.04219.02619.01287.00647.02669.01.03983.01589l.0055.00282.00483.00131a1.0055,1.0055,0,0,0,.21924.06713,1.55579,1.55579,0,0,1-.10965.31813q-.138.04606-.27081.10492c-.1004.1516-.25244.25009-.322.43985q-.02725.182-.03735.36581.03681.47961-.006.11291a.279.279,0,0,1-.08088-.01328,1.49964,1.49964,0,0,0-.10959-.28744,2.69594,2.69594,0,0,0-1.06151-1.07936.78131.78131,0,1,0-.78856,1.34906,1.04866,1.04866,0,0,1,.26464.36165,1.45127,1.45127,0,0,0-.24412.51024,1.60025,1.60025,0,0,0-.04333.391,2.16341,2.16341,0,0,0,.19094,3.63191c.01335.00805.0281.012.04158.01975q-.06106.209-.122.41789a1.17538,1.17538,0,0,0,.60855,1.30178,1.96552,1.96552,0,0,0,.26612.25935,1.72865,1.72865,0,0,0-.27457.62639,1.78484,1.78484,0,0,0,.71224,1.80709,1.70716,1.70716,0,0,0,.35438.19925,1.23819,1.23819,0,0,0,.655,1.22177l.00309.00114-.20435.15791a1.58924,1.58924,0,0,0-.409.70181l-.13815.33925a1.6193,1.6193,0,0,0,.1629,1.24525,1.616,1.616,0,0,0,2.211.57975c.03581-.02311.0676-.05164.10187-.077a1.63471,1.63471,0,0,0,.00865.641c.01348.0628.02059.09117.02394.1011l.00027.00241a2.02213,2.02213,0,0,0,.65524,1.40812,1.37919,1.37919,0,0,1,.15747.22966.36374.36374,0,0,0,.44612.25335c.227-.08481.42365-.04729.639-.19684a1.45357,1.45357,0,0,0,.1285-.11824,1.36754,1.36754,0,0,0,.844-1.36667.8107.8107,0,0,0,.544.3076l.00415.00208a.42372.42372,0,0,0,.55974-.14677.11974.11974,0,0,1,.09208-.07542.82377.82377,0,0,0,.12628-.97846c-.03776-.08852-.08108-.18091-.12762-.27319a1.0505,1.0505,0,0,0,.27034-.66144,1.71032,1.71032,0,0,0-.00731-.239C127.325,71.65607,126.70491,69.84006,125.91769,68.77238Z"/>
      <path class="cls-6" d="M130.64751,70.3774a.40579.40579,0,0,0-.27618-.11442.39728.39728,0,0,0-.22608.08139c-.02388-.05738-.04775-.11408-.06894-.169a.60455.60455,0,0,0-.5649-.43016.61739.61739,0,0,0-.565.43016,3.74179,3.74179,0,0,0-.208.57915,3.96258,3.96258,0,0,0-.2684-.34848.717.717,0,0,0,.36155-.445,1.50721,1.50721,0,0,0-.19938-1.291,3.00581,3.00581,0,0,0-.80319-.814c-.44464-.312-.89.27731-.687.68708a5.57848,5.57848,0,0,1,.21676,1.14807,1.79353,1.79353,0,0,0,.11347.304.83917.83917,0,0,0-.55885.97537,4.10613,4.10613,0,0,1-.01348,1.03634,3.29243,3.29243,0,0,0,.2252,1.18421.7732.7732,0,0,0,1.12148.45622,1.79878,1.79878,0,0,0,.93342-1.71769,1.63129,1.63129,0,0,0-.04936-.30589.68641.68641,0,0,0,.38073.11669.9163.9163,0,0,0,.38992-.10546.76144.76144,0,0,0,.32681-.39937.21772.21772,0,0,0,.3584-.09266q.08068-.19273.16143-.38546A.37916.37916,0,0,0,130.64751,70.3774Z"/>
      <path class="cls-6" d="M114.52173,71.22259a1.20051,1.20051,0,0,0-.8736.59779,6.20642,6.20642,0,0,0-.5441-1.27052c-.16773-.36531-.83189-.19688-.77991.21122.06908.54145.03085,2.07515.93751,1.82771a.60979.60979,0,0,0,.2462-.12665,2.16553,2.16553,0,0,0,.211,1.11054,1.20381,1.20381,0,0,0,2.18681-.28584,2.42482,2.42482,0,0,0-.09825-1.22489A1.16718,1.16718,0,0,0,114.52173,71.22259Z"/>
      <path class="cls-6" d="M124.35324,66.27676a2.43988,2.43988,0,0,0-.44618-.21927.754.754,0,0,0-.85067.34619c-.01421.02515-.03018.04969-.04594.07427a1.67111,1.67111,0,0,0-.32875.707,1.18213,1.18213,0,0,0,1.12731,1.4799,1.16941,1.16941,0,0,0,1.12737-1.4799A1.31131,1.31131,0,0,0,124.35324,66.27676Z"/>
      <path class="cls-6" d="M108.01836,63.11618a1.57947,1.57947,0,0,0,.17129.99777,2.6419,2.6419,0,0,0,.37335.47647,2.31433,2.31433,0,0,0,.01375,1.49027,1.26807,1.26807,0,0,0,1.82962.74436,1.40661,1.40661,0,0,0,.68548-.849,1.06838,1.06838,0,0,0,1.13248-.9417,2.94406,2.94406,0,0,0-.10141-1.05575.68546.68546,0,0,0,.68783-.66851,7.05834,7.05834,0,0,0-.35907-2.057.5379.5379,0,0,0-.61768-.41095,2.77993,2.77993,0,0,0-.15519-1.98173.9407.9407,0,0,0,.55169-.80411,2.449,2.449,0,0,0-.27189-1.10434,1.94839,1.94839,0,0,0-1.58939-.82377c-.13179-.01308-.1684.15569-.09866.23815a.74947.74947,0,0,1,.23326.53887,3.13478,3.13478,0,0,0,.05747.7006c.00356.02086.00007.04165.00195.06251a1.46374,1.46374,0,0,0-.40025-.07706,1.03018,1.03018,0,0,0-.99526.4537,1.7973,1.7973,0,0,0-.12829,1.38152c-.00262-.035.016-.00372.0169.08722.00047.05312-.00094.1059-.00181.15868-.00255.02468-.00832.082-.02066.148a2.1097,2.1097,0,0,0-.05372.588,1.51269,1.51269,0,0,0,1.07594,1.41318,1.64482,1.64482,0,0,0,1.24313-.21934c-.00114.20385-.004.40873-.00523.6167a1.28865,1.28865,0,0,0-.5706.04956,3.91622,3.91622,0,0,0-.43874-.214.82661.82661,0,0,0-.922.3752,2.71432,2.71432,0,0,0-.25351.43566,2.01534,2.01534,0,0,1-.41232-.52251.28252.28252,0,0,0-.5099.06663,3.08416,3.08416,0,0,0-.13769.50024.11827.11827,0,0,0-.04916.18239Z"/>
      <path class="cls-6" d="M106.58235,68.59606a.61782.61782,0,0,0,.657-.26739l.07217-.08239a.22933.22933,0,0,0,0-.31565l-.00181-.00208a.5926.5926,0,0,0-.27907-.39592c-.387-.20908-.90042-.47358-.96561-.962a.39809.39809,0,0,0-.33868-.38362.3872.3872,0,0,0-.42855.2798A1.75872,1.75872,0,0,0,106.58235,68.59606Z"/>
      <path class="cls-6" d="M106.8272,70.50915a.73946.73946,0,0,0,.17458-1.33612,2.744,2.744,0,0,0-.89895-.25143,1.58341,1.58341,0,0,1-.50253-.13061c-.44988-.21733-1.02349.24331-.72525.72528A1.78365,1.78365,0,0,0,106.8272,70.50915Z"/>
    </g>
    <g>
      <path class="cls-6" d="M35.88878,55.20868a1.83029,1.83029,0,0,0,.46906.4691,1.25422,1.25422,0,0,0,.70419.17376,1.39832,1.39832,0,0,0,.7455-.26038c-.01408.02183-.03366.0383-.047.0609a1.76181,1.76181,0,0,0-.24164.89308,1.93336,1.93336,0,0,0,.53934,1.50522,4.78928,4.78928,0,0,0,.58723.44113,1.71881,1.71881,0,0,0,1.733,0,1.761,1.761,0,0,0,.85033-1.48239c.00516-.09386.00852-.18041.00959-.266a.7389.7389,0,0,0,.268.36108,1.162,1.162,0,0,0,.22084.29033.26158.26158,0,0,0,.30428.03926.93826.93826,0,0,0,.35156-.40487.75825.75825,0,0,0,.2134-.72069,2.29939,2.29939,0,0,0-.31661-.7951.95074.95074,0,0,0-.06392-.071c.01516-.0112.03286-.01288.04681-.02747a2.051,2.051,0,0,0,.34419-.43193,1.03661,1.03661,0,0,0,.02816-.68726,3.5424,3.5424,0,0,0-.421-1.12932.36447.36447,0,0,0-.66294.27946,2.61386,2.61386,0,0,1,.02354.91947,1.12959,1.12959,0,0,0-.035.47818,1.22875,1.22875,0,0,0,.06653.18376.38713.38713,0,0,0-.52057.36223c.01221.17832-.01227.3536-.00469.53079.00127.02887.01026.05657.014.08507a1.91626,1.91626,0,0,0-.1737-.30626.89117.89117,0,0,0,.15761-.557c-.00738-.12373-.0106-.24861-.0224-.37208a1.02773,1.02773,0,0,0-.141-.52127q-.09266-.12313-.18886-.24341c-.04547-.07428-.16431-.33694-.24137-.49508a.42854.42854,0,0,0-.15117-.16609,2.98462,2.98462,0,0,0-.02434-.47365,1.76072,1.76072,0,0,0-.523-.93091.61752.61752,0,0,0-1.02591.27085,2.99285,2.99285,0,0,0-.1018.65935c-.00751-.00271-.01375-.00761-.0214-.01009a.75661.75661,0,0,0-.3869-.08652.77391.77391,0,0,0-.11012.00976,1.15054,1.15054,0,0,0,.01254-.45722,2.02749,2.02749,0,0,0-.59876-1.07533.84412.84412,0,0,0-1.39886.36933,1.96779,1.96779,0,0,0,.10475,1.38565c.015.02883.03595.05023.05272.07679a.91059.91059,0,0,0-.69682.65825c-.01059.05462-.02173.10921-.03179.16394a1.44774,1.44774,0,0,0,.13105,1.06179A2.62887,2.62887,0,0,0,35.88878,55.20868Z"/>
      <path class="cls-6" d="M39.18332,63.35343a1.8121,1.8121,0,0,0,.33734-.34781,1.88068,1.88068,0,0,0,.25948-1.391,1.41237,1.41237,0,0,0-.74047-.91927,1.01668,1.01668,0,0,0-1.18331.15268c.22815-.1952.139-.11167.0617-.05842a1.48128,1.48128,0,0,0-.48925.51772c-.00469.00888-.05036.11528-.09449.2243a2.49993,2.49993,0,0,0-.77126-.46346c-.134-.05016-.23071.14081-.13574.23316a1.86409,1.86409,0,0,1,.52673,1.79622c-.10314.54823.31139,1.32052.89151.9194a2.7353,2.7353,0,0,0-.13393.2736,2.28767,2.28767,0,0,0-.19771.5946,2.7174,2.7174,0,0,0,.01965.85684,1.30143,1.30143,0,0,0,1.09458.94311,1.35113,1.35113,0,0,0,1.31194-.62861,2.6125,2.6125,0,0,0,.35847-1.41582A1.305,1.305,0,0,0,39.18332,63.35343Z"/>
      <path class="cls-6" d="M35.15038,67.07471a1.28036,1.28036,0,0,0-.18248-.0336c-.02052-.00386-.08343-.013-.10818-.01868a1.00012,1.00012,0,0,0-1.20115.682,1.81226,1.81226,0,0,0,.15821,1.435,2.794,2.794,0,0,0,.98017.99965,1.451,1.451,0,0,0,1.75249-.22612,1.392,1.392,0,0,0,.37188-.63816,1.46922,1.46922,0,0,0-.66455-1.63315c-.21267-.0953-.40561-.2242-.61265-.3296A3.3724,3.3724,0,0,0,35.15038,67.07471Z"/>
      <path class="cls-6" d="M29.77694,66.25992a1.40916,1.40916,0,0,1,1.19625,1.39229c-.01878.89908,1.44708.77055,1.25071-.16924a2.37489,2.37489,0,0,0-.5993-1.13013,1.45231,1.45231,0,0,1,.22159-.14865.31048.31048,0,0,0,.0621-.482.2605.2605,0,0,0-.06137-.23191l-.10462-.13541c-.06217-.0724-.13909-.15955-.20717-.22594-.155-.1512-.32459-.28114-.47428-.43979a1.91355,1.91355,0,0,0-.629-.38563,1.23217,1.23217,0,0,1-.40475-.359c-.22165-.27376-.588-.0171-.61915.25646a2.33287,2.33287,0,0,0,.23594,1.50432A.31924.31924,0,0,0,29.77694,66.25992Z"/>
      <path class="cls-6" d="M35.37834,71.23329a1.47606,1.47606,0,0,0-.72532-.97048,1.73819,1.73819,0,0,0-.89164-.31443,3.43219,3.43219,0,0,0-.60734.08607.9788.9788,0,0,0-.71687.94161c.00228.08071.01227.15908.01831.23755a2.18686,2.18686,0,0,0-.241-.16968,3.524,3.524,0,0,1-.62988-.48965.59086.59086,0,0,0-.97923.57,2.65761,2.65761,0,0,0,1.20953,1.97294,1.23934,1.23934,0,0,0-.09892.27108,1.9515,1.9515,0,0,0-.04305.51289c-.10429.01847-.20757.04064-.31092.063a1.96756,1.96756,0,0,0-.98513-2.108,1.93344,1.93344,0,0,0-.27846-.10875.70287.70287,0,0,0-.00992-.167,1.56443,1.56443,0,0,0-1.5845-1.23739,4.6017,4.6017,0,0,1-.542-.44941.31327.31327,0,0,0-.51265.08c-.01925-.02032-.03823-.04085-.05633-.06217a.10016.10016,0,0,0-.0106-.01137c-.00751-.01331-.015-.0273-.02227-.03752a1.55243,1.55243,0,0,0-.56905-.46329c-.0503-.02918-.09818-.0611-.14694-.09286l-.00872-.005c-.00255-.00328.00161-.00067-.00362-.00623-.08739-.09457-.18215-.17578-.26471-.27618a.80915.80915,0,0,0-1.35225.78718,3.42243,3.42243,0,0,0,.61634,1.03962,1.42686,1.42686,0,0,0,.62753.44945,2.06626,2.06626,0,0,0,.63639.0512A.81843.81843,0,0,0,27.03877,71.3a5.01231,5.01231,0,0,0-.292.544,2.88363,2.88363,0,0,0,2.03893,3.7632,1.52313,1.52313,0,0,0,1.24032.04614,1.20773,1.20773,0,0,0,.17008.25247c-.08813.03749-.17591.07679-.2688.10768-.20254.06736-.418.06894-.6164.14472a.64747.64747,0,0,1-.6105-.01448c-.40173-.14872-.69333.42191-.40723.69946a5.21629,5.21629,0,0,0,.82632.61124,1.51022,1.51022,0,0,0,1.10424.14315,1.36821,1.36821,0,0,0,1.22234-.97473,2.33257,2.33257,0,0,0,.26136.05777,1.87939,1.87939,0,0,0,1.26372-.1351,2.30693,2.30693,0,0,0,.5989-.52539,1.26734,1.26734,0,0,0,.138-.19567,1.44093,1.44093,0,0,0,.63149-.2021,1.60518,1.60518,0,0,0,.73082-.95043A1.62311,1.62311,0,0,0,34.91,73.44656q-.14366-.22906-.28744-.45812a1.78211,1.78211,0,0,0-.10717-.14245l.01106-.00024a.97438.97438,0,0,0,.92491-1.21416C35.427,71.4988,35.403,71.366,35.37834,71.23329Z"/>
      <path class="cls-6" d="M39.8904,69.58974a.34152.34152,0,0,0-.15419-.19543c.318-.6225-.21481-1.36945-.52734-1.93357a.36552.36552,0,0,0-.67582.183c-.0114.71506-.14627,1.721.64491,2.04293.02521.39525-.04876,1.00337.25022,1.29433a.41986.41986,0,0,0,.65389-.08426.83055.83055,0,0,0-.00349-.69035Z"/>
      <path class="cls-6" d="M42.465,69.33925a1.259,1.259,0,0,0-1.52145-.1963,1.27984,1.27984,0,0,0-.577,1.4178c.011.03112.01878.06315.02763.0949-.00167.03028-.00167.06931-.00114.1068-.00429.015-.00737.03038-.01234.04524a1.64,1.64,0,0,0,.17357,1.17087,1.4055,1.4055,0,0,0,2.193.28261A2.19223,2.19223,0,0,0,42.465,69.33925Z"/>
      <path class="cls-6" d="M49.49093,68.77238c-.18731-.254-.69681-.11666-.56093.23647a6.36868,6.36868,0,0,1,.21259,2.56416,1.62324,1.62324,0,0,0-.73732-.28392,2.53,2.53,0,0,0-.52311-.66352.42218.42218,0,0,0-.6995.40719c.009.04846.00684.10167.01315.15154a1.9041,1.9041,0,0,0-.5879-.36129.589.589,0,0,0-.71794.40176,1.58,1.58,0,0,0-.83826-.57754c-.06089-.01388-.12434-.01954-.187-.028a4.13405,4.13405,0,0,0,.68072-1.10387,2.16344,2.16344,0,0,0,.40079.26012c.6166.30079,1.398-.33443.99244-.99244a4.44574,4.44574,0,0,0-1.25333-1.16812.56079.56079,0,0,0-.35062-.10171,1.16709,1.16709,0,0,0-.34619-.312,1.70451,1.70451,0,0,0-.03367-.58827,1.65783,1.65783,0,0,0-.50038-.84449.97344.97344,0,0,0,1.17466-.94912c-.00013-.027-.00121-.05321-.00134-.08011a.62307.62307,0,0,0,.33586-.24325,2.274,2.274,0,0,0,.43553.3855.99167.99167,0,0,0,1.258-.19882c.01254.016.02314.03109.03608.04742a1.42633,1.42633,0,0,0,2.42222-1.00331A2.92356,2.92356,0,0,0,48.59279,61.39a.90109.90109,0,0,0-1.31141.53354,3.9353,3.9353,0,0,0-.2126,1.10012,1.37173,1.37173,0,0,0-.1572-.034,1.5015,1.5015,0,0,1-.78319-.394.37385.37385,0,0,0-.19624-.07884,1.08615,1.08615,0,0,0-.84174-.49029,3.20816,3.20816,0,0,0-.51419-.79754.99459.99459,0,0,0-.331-.25421l.01851-.03649c.133-.27406.01368-.39408.05935-.66764q-.02706-.19752-.04741-.39592a.69766.69766,0,0,0,.24331-.14034,1.58163,1.58163,0,0,0,.25043-1.04062.82323.82323,0,0,0,.2242-.252,1.45461,1.45461,0,0,0,.2195-.73853.88225.88225,0,0,0,.911-.89111,1.49841,1.49841,0,0,0-.2-.83369,2.89153,2.89153,0,0,0-.43057-.49122,4.21019,4.21019,0,0,0-.93644-.66459.86.86,0,0,0-.22769-.07756,1.13479,1.13479,0,0,0-.00107-.54616,2.76,2.76,0,0,0-.50018-1.04.39453.39453,0,0,0-.72793.19714,1.83241,1.83241,0,0,1-.22.7047,1.69454,1.69454,0,0,0-.08887,1.02114.57547.57547,0,0,0,.61278.56516.81549.81549,0,0,0,.2063.4025,2.44553,2.44553,0,0,1,.15506.197.97786.97786,0,0,0-.63418.17024c-.08249.0056-.16485.01442-.24868.02623-.33332.04688-.30528.47147-.10623.64356a.8049.8049,0,0,0,.02991.31256,2.48554,2.48554,0,0,0,.24653.47469l.00235.009a1.68509,1.68509,0,0,0,.15942.39213,1.12952,1.12952,0,0,0,.55631.45015c-.00979-.00208-.00222.004.04218.02619.01288.00647.02669.01.03984.01589l.0055.00282.00483.00131a1.0055,1.0055,0,0,0,.21924.06713,1.55585,1.55585,0,0,1-.10966.31813q-.138.04606-.27081.10492c-.1004.1516-.25243.25009-.322.43985q-.02727.182-.03736.36581.03683.47961-.006.11291a.27909.27909,0,0,1-.08089-.01328,1.49961,1.49961,0,0,0-.10958-.28744,2.696,2.696,0,0,0-1.06152-1.07936.78131.78131,0,1,0-.78856,1.34906,1.04853,1.04853,0,0,1,.26464.36165,1.45127,1.45127,0,0,0-.24412.51024,1.59974,1.59974,0,0,0-.04332.391A2.16341,2.16341,0,0,0,41.4643,65.044c.01334.00805.0281.012.04158.01975q-.06106.209-.122.41789a1.17538,1.17538,0,0,0,.60856,1.30178,1.96552,1.96552,0,0,0,.26612.25935,1.72865,1.72865,0,0,0-.27457.62639,1.7848,1.7848,0,0,0,.71224,1.80709,1.70735,1.70735,0,0,0,.35437.19925,1.2382,1.2382,0,0,0,.655,1.22177l.00308.00114-.20435.15791a1.58922,1.58922,0,0,0-.409.70181l-.13816.33925A1.61926,1.61926,0,0,0,43.12,73.34258a1.616,1.616,0,0,0,2.211.57975c.03582-.02311.0676-.05164.10188-.077a1.63434,1.63434,0,0,0,.00865.641c.01348.0628.02059.09117.02394.1011l.00027.00241a2.02212,2.02212,0,0,0,.65523,1.40812,1.37856,1.37856,0,0,1,.15747.22966.36375.36375,0,0,0,.44612.25335c.22695-.08481.42366-.04729.639-.19684a1.452,1.452,0,0,0,.12849-.11824,1.36752,1.36752,0,0,0,.844-1.36667.81072.81072,0,0,0,.544.3076l.00416.00208a.42371.42371,0,0,0,.55973-.14677.11975.11975,0,0,1,.09208-.07542.82377.82377,0,0,0,.12629-.97846c-.03776-.08852-.08109-.18091-.12763-.27319a1.05044,1.05044,0,0,0,.27034-.66144,1.70879,1.70879,0,0,0-.00731-.239C50.89824,71.65607,50.27815,69.84006,49.49093,68.77238Z"/>
      <path class="cls-6" d="M54.22075,70.3774a.40579.40579,0,0,0-.27618-.11442.39728.39728,0,0,0-.22608.08139c-.02387-.05738-.04775-.11408-.06894-.169a.60455.60455,0,0,0-.56489-.43016.6174.6174,0,0,0-.565.43016,3.74179,3.74179,0,0,0-.208.57915,3.96065,3.96065,0,0,0-.2684-.34848.717.717,0,0,0,.36156-.445,1.50725,1.50725,0,0,0-.19939-1.291,3.00578,3.00578,0,0,0-.80318-.814c-.44465-.312-.89.27731-.687.68708a5.57779,5.57779,0,0,1,.21675,1.14807,1.79356,1.79356,0,0,0,.11348.304.83918.83918,0,0,0-.55886.97537,4.10567,4.10567,0,0,1-.01348,1.03634,3.29244,3.29244,0,0,0,.22521,1.18421.77319.77319,0,0,0,1.12147.45622,1.79875,1.79875,0,0,0,.93342-1.71769,1.63048,1.63048,0,0,0-.04936-.30589.68647.68647,0,0,0,.38074.11669.91634.91634,0,0,0,.38992-.10546.76154.76154,0,0,0,.32681-.39937.21772.21772,0,0,0,.3584-.09266q.08067-.19273.16142-.38546A.37914.37914,0,0,0,54.22075,70.3774Z"/>
      <path class="cls-6" d="M38.095,71.22259a1.20049,1.20049,0,0,0-.8736.59779,6.207,6.207,0,0,0-.54411-1.27052c-.16773-.36531-.83188-.19688-.77991.21122.06908.54145.03085,2.07515.93752,1.82771a.60992.60992,0,0,0,.2462-.12665,2.16552,2.16552,0,0,0,.211,1.11054,1.20381,1.20381,0,0,0,2.18682-.28584,2.425,2.425,0,0,0-.09825-1.22489A1.16719,1.16719,0,0,0,38.095,71.22259Z"/>
      <path class="cls-6" d="M47.92649,66.27676a2.44,2.44,0,0,0-.44619-.21927.754.754,0,0,0-.85066.34619c-.01422.02515-.03018.04969-.04594.07427a1.67125,1.67125,0,0,0-.32876.707,1.18213,1.18213,0,0,0,1.12731,1.4799,1.16942,1.16942,0,0,0,1.12738-1.4799A1.31137,1.31137,0,0,0,47.92649,66.27676Z"/>
      <path class="cls-6" d="M31.5916,63.11618a1.57954,1.57954,0,0,0,.17129.99777,2.642,2.642,0,0,0,.37336.47647A2.31426,2.31426,0,0,0,32.15,66.08069a1.26808,1.26808,0,0,0,1.82963.74436,1.40668,1.40668,0,0,0,.68548-.849,1.06838,1.06838,0,0,0,1.13247-.9417,2.94407,2.94407,0,0,0-.1014-1.05575.68546.68546,0,0,0,.68782-.66851,7.058,7.058,0,0,0-.35907-2.057.53789.53789,0,0,0-.61767-.41095,2.78,2.78,0,0,0-.15519-1.98173.94069.94069,0,0,0,.55168-.80411,2.449,2.449,0,0,0-.27188-1.10434,1.94841,1.94841,0,0,0-1.5894-.82377c-.13178-.01308-.1684.15569-.09865.23815a.7495.7495,0,0,1,.23325.53887,3.13479,3.13479,0,0,0,.05748.7006c.00355.02086.00007.04165.00194.06251a1.46374,1.46374,0,0,0-.40025-.07706,1.03015,1.03015,0,0,0-.99525.4537,1.79726,1.79726,0,0,0-.1283,1.38152c-.00261-.035.016-.00372.0169.08722.00047.05312-.00094.1059-.00181.15868-.00255.02468-.00832.082-.02066.148a2.10969,2.10969,0,0,0-.05371.588,1.51267,1.51267,0,0,0,1.07593,1.41318,1.64482,1.64482,0,0,0,1.24313-.21934c-.00114.20385-.004.40873-.00523.6167a1.28859,1.28859,0,0,0-.57059.04956,3.91637,3.91637,0,0,0-.43875-.214.82662.82662,0,0,0-.922.3752,2.71507,2.71507,0,0,0-.25351.43566,2.01555,2.01555,0,0,1-.41232-.52251.28252.28252,0,0,0-.5099.06663,3.0862,3.0862,0,0,0-.13769.50024.11827.11827,0,0,0-.04915.18239Z"/>
      <path class="cls-6" d="M30.15559,68.59606a.61783.61783,0,0,0,.657-.26739l.07216-.08239a.22933.22933,0,0,0,0-.31565l-.00181-.00208a.59256.59256,0,0,0-.27906-.39592c-.387-.20908-.90043-.47358-.96561-.962a.39811.39811,0,0,0-.33869-.38362.38721.38721,0,0,0-.42855.2798A1.75874,1.75874,0,0,0,30.15559,68.59606Z"/>
      <path class="cls-6" d="M30.40045,70.50915A.73946.73946,0,0,0,30.575,69.173a2.74394,2.74394,0,0,0-.89895-.25143,1.58336,1.58336,0,0,1-.50252-.13061c-.44988-.21733-1.0235.24331-.72525.72528A1.78364,1.78364,0,0,0,30.40045,70.50915Z"/>
    </g>
    <g>
      <path class="cls-2" d="M82.0093,76.45815a24.72876,24.72876,0,0,1,4.013-11.39414c3.58307-4.94463,5.44626-5.15962,6.73617-5.01629s4.08469,1.93485,3.5114,5.87622-2.72313,3.86971-3.43974,5.23128-.43,2.29316.43,2.72312,1.07492,1.07492.57329,1.43323a2.36042,2.36042,0,0,1-1.43322.215s0,.9316-.57329,1.07492a4.04183,4.04183,0,0,1-1.64821-.215s.78827.50163-.71661.645-4.51466-1.2899-3.79805-6.16287a10.49563,10.49563,0,0,0-2.07818,7.16613c.28665,4.443,2.29316,3.86971,2.72313,3.5114s.14332-1.07492-.07166-1.00326-1.14658.35831-.9316-.3583a2.16032,2.16032,0,0,1,2.72313-1.21824c1.57655.3583,1.64821,3.00977.14332,4.658s-5.7329.07166-6.23453-3.29642S82.0093,76.45815,82.0093,76.45815Z"/>
      <path class="cls-2" d="M74.14388,76.45815a24.72876,24.72876,0,0,0-4.013-11.39414c-3.58307-4.94463-5.44626-5.15962-6.73616-5.01629s-4.0847,1.93485-3.51141,5.87622,2.72313,3.86971,3.43974,5.23128.43,2.29316-.43,2.72312-1.07492,1.07492-.57329,1.43323a2.36042,2.36042,0,0,0,1.43322.215s0,.9316.57329,1.07492a4.04183,4.04183,0,0,0,1.64821-.215s-.78827.50163.71661.645,4.51467-1.2899,3.798-6.16287a10.49563,10.49563,0,0,1,2.07818,7.16613c-.28665,4.443-2.29316,3.86971-2.72313,3.5114s-.14332-1.07492.07166-1.00326,1.14658.35831.9316-.3583a2.16032,2.16032,0,0,0-2.72313-1.21824c-1.57655.3583-1.64821,3.00977-.14332,4.658s5.7329.07166,6.23453-3.29642S74.14388,76.45815,74.14388,76.45815Z"/>
    </g>
    <path class="cls-2" d="M77.63387,48.58191s1.07492-.14332,2.00652,1.36157A10.37422,10.37422,0,0,1,80.71531,51.95a30.48877,30.48877,0,0,0,3.22475,2.50815c.9316.50163,2.29317,2.07817,2.43649,5.01629s-3.08144,7.59609-3.36808,8.16938a27.02967,27.02967,0,0,0-2.29316,9.17265c-.14333,4.228.93159,5.37459,1.21824,5.66124s1.21824,2.29316.85993,3.00977-.78827,1.71987-2.2215,1.28991c0,0,.5733,1.79153-.14332,2.79479a8.00812,8.00812,0,0,1-2.50814,1.86319,12.10573,12.10573,0,0,0-1.8632-2.72313c-.78827-.645-2.36482-2.2215-2.43648-3.00977A11.942,11.942,0,0,1,75.484,81.11613c.645-.71661.43-7.66775-.93159-10.82085s-4.24656-8.11879-4.658-10.1759c-.645-3.22476,1.36157-4.94463,3.58307-6.6645S77.56221,49.1552,77.63387,48.58191Z"/>
    <rect class="cls-2" x="71.41209" y="76.7448" width="13.329" height="3.43974" rx="1.71987"/>
  </g>
</svg>
