<svg id="allies_tunisia_engineer_2_icon" xmlns="http://www.w3.org/2000/svg" width="150" height="150" viewBox="0 0 150 150">
  <defs>
    <style>
      .cls-1 {
        fill: #222020;
      }

      .cls-1, .cls-2 {
        fill-rule: evenodd;
      }

      .cls-2 {
        fill: #be1e1e;
      }
    </style>
  </defs>
  <path id="Shape_281_copy" data-name="Shape 281 copy" class="cls-1" d="M77.613,1.686H72.387S47,1.915,37.847,8.548s-7.09,12.581-5.49,13.5,6.176,1.83,7.549,3.66,1.6,3.2.457,4.346S20.235,45.147,13.6,66.877c-6.6,21.608-2.341,81.437,55.733,81.437,0.328,0,.663,0,0.995-0.006h9.343c0.335,0,.663.006,0.995,0.006,58.063,0,62.329-59.831,55.733-81.437-6.633-21.73-25.618-35.683-26.762-36.827s-0.915-2.516.457-4.346,5.948-2.745,7.549-3.66,3.66-6.862-5.49-13.5-34.54-6.862-34.54-6.862"/>
  <path id="Shape_281_copy_2" data-name="Shape 281 copy 2" class="cls-2" d="M88.759,60.014a18.639,18.639,0,0,1-12.167,5.194c-0.229,0-.352-0.009-0.352-0.009H73.65s-0.123.009-.352,0.009a18.64,18.64,0,0,1-12.167-5.194l-9.209,15.4s0.72,2.135.288,2.9-6.044,3.964-6.044,3.964L45.59,91.886s3.951-5.2,8.14-5.2c0.117,0,.233,0,0.35.012,4.317,0.305,5.468,5.185,4.605,7.777s-9.21,11.284-9.21,11.284,6.907,5.185,9.065,10.675,3.31,10.674,2.878,14.334-2.447,5.948-1.152,7.472a1.359,1.359,0,0,0,1.092.425c1.841,0,4.892-2.01,5.816-2.255a7.786,7.786,0,0,1,1.943-.439,2.084,2.084,0,0,1,1.8,1.049c1.151,1.678,1.726,2.9,3.741,3.2h0.576c2.014-.305,2.59-1.525,3.741-3.2a2.084,2.084,0,0,1,1.8-1.049,7.791,7.791,0,0,1,1.944.439c0.923,0.245,3.974,2.255,5.815,2.255a1.359,1.359,0,0,0,1.092-.425c1.295-1.524-.72-3.812-1.151-7.472s0.719-8.844,2.878-14.334,9.065-10.675,9.065-10.675-8.345-8.692-9.209-11.284,0.287-7.472,4.6-7.777c0.117-.008.234-0.012,0.35-0.012,4.189,0,8.14,5.2,8.14,5.2l-0.576-9.608s-5.612-3.2-6.044-3.964,0.288-2.9.288-2.9l-9.21-15.4m12.948-28.363s6.253,11.741,2.135,18.909A19.093,19.093,0,0,1,93.015,59.4l8.54,11.437S116.8,62.607,115.432,49.8s-13.725-18.146-13.725-18.146m-52.827,0S36.527,36.989,35.155,49.8,49.032,70.842,49.032,70.842L57.571,59.4A19.091,19.091,0,0,1,46.745,50.56c-4.117-7.168,2.135-18.909,2.135-18.909"/>
</svg>
