<svg id="allies_tunisia_assault_3_icon" xmlns="http://www.w3.org/2000/svg" width="150" height="150" viewBox="0 0 150 150">
  <defs>
    <style>
      .cls-1 {
        fill: #ad2626;
      }

      .cls-1, .cls-2, .cls-4 {
        fill-rule: evenodd;
      }

      .cls-2 {
        fill: #1c0f0f;
      }

      .cls-3 {
        fill: #151515;
      }

      .cls-4 {
        fill: #f2f2f2;
      }
    </style>
  </defs>
  <path id="Shape_264_copy_3" data-name="Shape 264 copy 3" class="cls-1" d="M124.98,117.03H25.02V2.977h99.96V117.03Z"/>
  <path id="Shape_264_copy_4" data-name="Shape 264 copy 4" class="cls-2" d="M111.285,62.85c-0.91-2.73-2.47-4.289-4.354-3.509s-2.015,2.989-1.43,5.069a28.161,28.161,0,0,1,.715,5.2,26.535,26.535,0,0,1-4.224,15.4s1.234-2.924,1.039-10.138-3.574-10.333-5.979-10.528-6.109,2.275-6.109,2.275c0.325-.715,1.56-7.019.585-11.308A46.876,46.876,0,0,0,87.5,45.5a29.664,29.664,0,0,0,1.7-7.885L101.475,40a0.664,0.664,0,1,0,.253-1.3L89.263,36.272c0-.065,0-0.13,0-0.194l13.921-.574a0.664,0.664,0,0,0-.055-1.328l-13.877.572c-0.005-.152-0.011-0.3-0.019-0.448l13.993-3.408a0.664,0.664,0,0,0-.315-1.291L89.132,32.959c-0.02-.184-0.04-0.362-0.063-0.531l12.739-6.264a0.664,0.664,0,0,0-.586-1.192L88.843,31.059a11.627,11.627,0,0,0-.3-1.223c1.625-2.989,2.664-5.784,2.4-8.578a26.529,26.529,0,0,0-1.625-6.174s-4.094,2.34-5.459,3.379a24.814,24.814,0,0,0-3.509,4.224s-2.534-2.34-9.293-2.34-9.1,2.275-9.1,2.275A50.221,50.221,0,0,0,58.19,18.2a45.593,45.593,0,0,0-5.264-3.249s-1.95,5.849-1.69,8.383,2.534,6.629,2.534,6.629c-0.124.41-.229,0.819-0.323,1.227l-12.559-6.05a0.664,0.664,0,0,0-.577,1.2l12.875,6.2c-0.031.195-.059,0.389-0.084,0.583L39.287,29.69a0.664,0.664,0,1,0-.32,1.289l14.008,3.484c-0.006.1-.011,0.205-0.016,0.308L38.9,34.09a0.664,0.664,0,1,0-.064,1.327l14.1,0.682c0,0.048,0,.1,0,0.143L40.471,38.694A0.664,0.664,0,0,0,40.6,40.01,0.677,0.677,0,0,0,40.728,40l12.264-2.413a26.366,26.366,0,0,0,1.884,8.108C46.817,56.676,51.5,66.879,51.5,66.879s-3.444-2.47-6.824-2.4S36.224,72.6,40.448,85.141s14.1,19.041,30.154,19.691,29.96-4.614,37.3-15.6S112.2,65.579,111.285,62.85Z"/>
  <rect id="Rectangle_2_copy_3" data-name="Rectangle 2 copy 3" class="cls-3" x="46" y="119" width="58" height="30"/>
  <path id="Rectangle_2_copy_3-2" data-name="Rectangle 2 copy 3" class="cls-4" d="M46,146v-3h58v3H46Zm0-24h58v3H46v-3Z"/>
  <path id="_35_copy" data-name="35 copy" class="cls-4" d="M68.771,138.313a4.472,4.472,0,0,1-2.093-.518l-0.917,2.692a4.161,4.161,0,0,0,1.485.538,9.334,9.334,0,0,0,1.844.2,4.6,4.6,0,0,0,3.29-1.166,4.676,4.676,0,0,0,1.236-3.559,4.507,4.507,0,0,0-.748-2.8,2.974,2.974,0,0,0-1.9-1.166l-0.9.1v-0.139l0.877-.519,2.073-2.751v-2.253H66.039v2.911h2.313l1.555-.239-1.156.937-1.635,2.233v2.153h1.156a2.369,2.369,0,0,1,1.565.4,1.625,1.625,0,0,1,.449,1.276A1.414,1.414,0,0,1,68.771,138.313Zm10.941-.159a4.091,4.091,0,0,1-1.954-.419l-0.9,2.811a4.939,4.939,0,0,0,1.386.479,7.8,7.8,0,0,0,1.665.2,5.05,5.05,0,0,0,3.589-1.246,4.734,4.734,0,0,0,1.336-3.638,5.1,5.1,0,0,0-.977-3.3,3.5,3.5,0,0,0-2.632-1.306l-0.638.12V130.2h3.768v-3.23h-6.5v7.736l1.236-.06a3.224,3.224,0,0,1,1.834.409,1.554,1.554,0,0,1,.578,1.365,1.819,1.819,0,0,1-.429,1.246A1.727,1.727,0,0,1,79.711,138.154Z"/>
</svg>
