<svg xmlns="http://www.w3.org/2000/svg" width="150" height="150" viewBox="0 0 150 150">
  <defs>
    <style>
      .cls-1 {
        fill: #151515;
      }

      .cls-2 {
        fill: #b09438;
      }

      .cls-3 {
        fill: #fec400;
      }

      .cls-4 {
        fill: #f2f2f2;
      }
    </style>
  </defs>
  <g id="Layer_7" data-name="Layer 7">
    <g>
      <path class="cls-1" d="M74.49851,147.2393a1.50387,1.50387,0,0,1-.42187-.06055c-3.25781-.9541-12.74609-4.90429-30.44922-20.93164-20.666-18.71191-19.67676-38.07519-19.5625-39.60449V4.26078a1.50039,1.50039,0,0,1,1.5-1.5H124.435a1.50039,1.50039,0,0,1,1.5,1.5V86.64262c.11426,1.5293,1.10351,20.89258-19.5625,39.60449-17.70313,16.02735-27.19141,19.97754-30.44922,20.93164a1.50388,1.50388,0,0,1-.42188.06055Z"/>
      <path class="cls-2" d="M124.43528,4.26088V86.70179s1.69617,19.63157-19.07007,38.43338c-17.73071,16.0535-27.0437,19.7775-29.8634,20.604H74.49839c-2.8197-.82645-12.13269-4.55045-29.86365-20.604-20.766-18.80181-19.07006-38.43338-19.07006-38.43338V4.26088h98.8706m0-3H25.56468a3,3,0,0,0-3,3v82.331c-.13721,2.06256-.85169,21.83655,20.05651,40.76715,17.9292,16.23294,27.6753,20.27472,31.03345,21.259a2.9993,2.9993,0,0,0,.84375.1211h1.00342a2.9993,2.9993,0,0,0,.84375-.1211c3.35815-.98425,13.10437-5.02606,31.0332-21.25894,20.90845-18.93066,20.19373-38.70468,20.05652-40.76724V4.26088a3,3,0,0,0-3-3Z"/>
    </g>
    <g>
      <g>
        <path class="cls-3" d="M107.2342,55.82828c-1.47034.05883-3.94044,1.76439-3.94044,1.76439s2.11724-4.05806,2.9994-6.35173a21.594,21.594,0,0,0,1.05866-5.46958,22.33658,22.33658,0,0,0-5.29312,4.58739,40.482,40.482,0,0,0,3.3523-7.35157,33.1471,33.1471,0,0,0,1.76436-7.58682,24.734,24.734,0,0,0-5.646,5.70483,82.72784,82.72784,0,0,0,3.82282-9.76289c1.0586-3.82281.35286-5.52836.35286-5.52836C103.1173,27.069,101.1765,30.833,101.1765,30.833s2.70538-6.881,3.05824-8.35136A23.083,23.083,0,0,0,104.47,14.2479a34.76021,34.76021,0,0,1-.58811-6.1753c-4.88145,3.8228-9.704,7.46918-11.88012,11.23316s-4.29331,12.35063-4.6462,15.997-.294,16.70275-.47049,20.76081A7.52653,7.52653,0,0,1,84.12089,61.886v3.46995s2.64656,1.70555,2.17607,6.70459c-.47049,4.99909-5.58721,6.93989-5.58721,6.93989v2.65223c.16887-.03129.34175-.06657.50781-.103q.50023-.10874.99742-.247a20.0686,20.0686,0,0,0,1.95668-.64615,17.51978,17.51978,0,0,0,3.629-1.897,13.0018,13.0018,0,0,0,2.95317-2.76292c.10411-.13253.20756-.26562.30063-.406.09374-.14074.19735-.271.28366-.42024l.53169-.88153a20.24862,20.24862,0,0,0,.90969-1.86011,28.32025,28.32025,0,0,0,2.03035-8.11152c.07849-.69819.12764-1.40049.15538-2.09753.01062-.70133.06057-1.42633.08892-2.13831l.20071-4.29006.40138-8.57876.20071-4.28871c.07125-1.42669.11894-2.86182.23-4.2947.217-2.861.536-5.714,1.02033-8.54283.23626-1.41518.53959-2.81947.88329-4.21338a28.61512,28.61512,0,0,1,1.37707-4.08358l.20643.09066A28.35737,28.35737,0,0,0,98.301,25.94938c-.3106,1.39081-.58115,2.79072-.78508,4.2026-.4196,2.821-.67469,5.6674-.82789,8.51486-.079,1.42185-.09506,2.84749-.135,4.27919l-.10645,4.28785-.21292,8.57436-.10645,4.28651c-.01274.71765-.04665,1.42137-.042,2.15045-.01293.73256-.04818,1.4591-.11341,2.184a29.564,29.564,0,0,1-1.94093,8.52105,17.9829,17.9829,0,0,1-2.1199,3.91991,14.49775,14.49775,0,0,1-3.21828,3.1496,19.10477,19.10477,0,0,1-3.91192,2.15742,21.73077,21.73077,0,0,1-2.10045.74517q-.53425.16058-1.07888.29235c-.2964.07086-.57966.13413-.89161.19058v3.82881S91.002,86.05789,97.70656,79.23565s8.35136-13.52687,8.35136-13.52687l-3.52873,1.29388a17.0578,17.0578,0,0,0,3.17586-5.11669A25.28261,25.28261,0,0,0,107.2342,55.82828Z"/>
        <path class="cls-3" d="M42.766,55.82828c1.47034.05883,3.94044,1.76439,3.94044,1.76439s-2.11724-4.05806-2.99941-6.35173a21.59422,21.59422,0,0,1-1.05865-5.46958,22.33658,22.33658,0,0,1,5.29312,4.58739,40.482,40.482,0,0,1-3.3523-7.35157,33.1471,33.1471,0,0,1-1.76436-7.58682,24.734,24.734,0,0,1,5.646,5.70483A82.72784,82.72784,0,0,1,44.648,31.3623c-1.0586-3.82281-.35286-5.52836-.35286-5.52836C46.88286,27.069,48.82366,30.833,48.82366,30.833s-2.70538-6.881-3.05824-8.35136a23.083,23.083,0,0,1-.23525-8.23374,34.76021,34.76021,0,0,0,.58811-6.1753c4.88145,3.8228,9.70405,7.46918,11.88012,11.23316s4.29331,12.35063,4.6462,15.997.294,16.70275.47049,20.76081A7.52653,7.52653,0,0,0,65.87927,61.886v3.46995s-2.64656,1.70555-2.17607,6.70459c.47049,4.99909,5.58721,6.93989,5.58721,6.93989v2.65223c-.16887-.03129-.34175-.06657-.50781-.103q-.50024-.10874-.99742-.247a20.0686,20.0686,0,0,1-1.95668-.64615,17.51978,17.51978,0,0,1-3.629-1.897,13.0018,13.0018,0,0,1-2.95317-2.76292c-.10411-.13253-.20756-.26562-.30063-.406-.09374-.14074-.19735-.271-.28366-.42024l-.53169-.88153a20.24862,20.24862,0,0,1-.90969-1.86011,28.32025,28.32025,0,0,1-2.03035-8.11152c-.07849-.69819-.12764-1.40049-.15538-2.09753-.01063-.70133-.06057-1.42633-.08892-2.13831l-.20071-4.29006-.40138-8.57876-.20071-4.28871c-.07125-1.42669-.11894-2.86182-.23-4.2947-.217-2.861-.536-5.714-1.02033-8.54283-.23626-1.41518-.53959-2.81947-.88329-4.21338a28.61512,28.61512,0,0,0-1.37707-4.08358L50.426,21.88a28.35737,28.35737,0,0,1,1.27315,4.06934c.3106,1.39081.58115,2.79072.78508,4.2026.4196,2.821.67469,5.6674.82789,8.51486.079,1.42185.09506,2.84749.135,4.27919l.10645,4.28785.21292,8.57436.10645,4.28651c.01274.71765.04665,1.42137.042,2.15045.01294.73256.04819,1.4591.11342,2.184a29.564,29.564,0,0,0,1.94093,8.52105,17.9829,17.9829,0,0,0,2.1199,3.91991,14.49775,14.49775,0,0,0,3.21828,3.1496,19.10477,19.10477,0,0,0,3.91192,2.15742,21.72982,21.72982,0,0,0,2.10045.74517q.53426.16058,1.07888.29235c.2964.07086.57966.13413.89161.19058v3.82881S58.99819,86.05789,52.2936,79.23565s-8.35136-13.52687-8.35136-13.52687L47.471,67.00266A17.0578,17.0578,0,0,1,44.29511,61.886,25.28261,25.28261,0,0,1,42.766,55.82828Z"/>
      </g>
      <rect class="cls-4" x="69.94956" y="63.67298" width="10.10104" height="4.32156"/>
      <g>
        <rect class="cls-4" x="81.17525" y="63.67298" width="1.19095" height="4.32156"/>
        <rect class="cls-4" x="67.5715" y="63.67298" width="1.19095" height="4.32156"/>
      </g>
      <path class="cls-4" d="M75.57324,68.85941l-.39671,54.72079-.29406.17646-.75013-54.82083-3.602,1.12507v49.46124a34.76938,34.76938,0,0,0,4.17568,16.4087h.35289c3.82279-5.58721,4.41093-15.5265,4.41093-15.5265V69.94328Z"/>
      <path class="cls-4" d="M78.96182,40.0024c-.30559-.63294-1.58389-3.12187-3.96174-3.08788-2.37785-.034-3.65615,2.45494-3.96174,3.08788a3.881,3.881,0,0,0-.19847,1.69821h8.32042A3.881,3.881,0,0,0,78.96182,40.0024Z"/>
      <g>
        <path class="cls-4" d="M74.253,43.09538H72.72359L79.05753,51.22q.00294-1.68207-.02234-2.9931l-4.00054-5.13152Z"/>
        <path class="cls-4" d="M70.94235,51.139q.00174,1.36939.028,3.0003l6.55505,8.40828h1.22681q.03183-.6704.05966-1.31427Z"/>
        <path class="cls-4" d="M78.99837,46.71314c-.07728-2.497-.20209-3.61776-.20209-3.61776H76.178Z"/>
        <path class="cls-4" d="M70.99968,46.78161c-.02474.81769-.04428,1.77912-.05281,2.89669L78.86891,59.84c.03869-.9972.07023-1.94251.09588-2.84143Z"/>
        <path class="cls-4" d="M71.14807,60.26488c.02958.73551.06242,1.49378.09987,2.28274h1.67974Z"/>
        <path class="cls-4" d="M71.58028,43.09538h-.37643s-.08008.72016-.15169,2.287l7.9497,10.19716q.03563-1.55868.04756-2.90341Z"/>
        <path class="cls-4" d="M70.99987,55.64381q.03343,1.44618.09005,3.07992L74.071,62.54762h2.31106Z"/>
      </g>
      <path class="cls-1" d="M66.722,101.40794s4.83884,3.71182,8.0573,3.82281c3.41112.11762,7.91312-3.50653,7.91312-3.50653l1.6145,13.97514a17.76274,17.76274,0,0,1-9.23355,2.52893c-3.12608.09286-9.70406-1.99962-9.70406-1.99962Z"/>
      <g>
        <path class="cls-3" d="M102.13389,81.47053c-.88217-1.20567-2.3819-.76458-3.70519.26463l1.99963,2.88184S102.98334,82.63145,102.13389,81.47053Z"/>
        <path class="cls-3" d="M94.95878,94.73272l.61753,1.05863a15.07511,15.07511,0,0,0,3.44053-1.11744A10.68341,10.68341,0,0,1,94.95878,94.73272Z"/>
        <path class="cls-3" d="M102.98669,86.20493c-1.3821,1.52909-6.08708,4.38153-6.70464,4.76379-.61751.38229-.41166.67635-.11763.76458.29409.08823,2.88184-.26467,4.35215-.17647a3.01157,3.01157,0,0,1,2.23488,1.52915A15.247,15.247,0,0,0,106.633,89.616c1.41153-1.97022.97043-3.35233.97043-3.35233l-3.02885-3.08763C104.604,83.676,104.36877,84.67578,102.98669,86.20493Z"/>
        <path class="cls-3" d="M109.25019,86.99889a1.23107,1.23107,0,0,0-1.11742-.4117s.64693,1.088-.941,3.44055a13.702,13.702,0,0,1-4.17569,3.617,4.37259,4.37259,0,0,1-.32347,1.76437s4.53945-2.24562,6.0283-4.79322C110.04418,88.35158,109.6325,87.5282,109.25019,86.99889Z"/>
        <path class="cls-3" d="M80.40271,106.20114a10.51847,10.51847,0,0,1-5.19455,1.50553l-.02353-.03522s-.06362.01221-.18455.02284c-.12092-.01063-.18455-.02284-.18455-.02284l-.02356.03522a10.51878,10.51878,0,0,1-5.19451-1.50553c-3.49934-1.882-5.955-3.94358-10.93912-6.14587-3.79339-1.67617-9.41-3.02885-10.67444-4.1169l-3.11708,5.11669s.02942,2.17607,5.35193,4.17568,7.14572,1.94082,9.23356,3.67577c2.04309,1.69779,6.82,6.37759,15.26291,6.77045l.01208.0224c.09219-.00218.18144-.00779.27278-.011.09134.00319.18059.0088.27278.011l.01209-.0224c8.44286-.39286,13.21981-5.07266,15.2629-6.77045,2.08784-1.73495,3.911-1.67616,9.23353-3.67577s5.352-4.17568,5.352-4.17568l-3.11707-5.11669c-1.26446,1.088-6.88106,2.44073-10.67445,4.1169C86.35767,102.25756,83.90205,104.31915,80.40271,106.20114Z"/>
        <path class="cls-3" d="M105.57444,101.408c-1.02924,2.823-4.02866,3.82279-6.79285,4.79319s-5.38132,1.32329-7.32215,2.61717-1.35268,1.4703-6.05767,4.41092a22.394,22.394,0,0,1-10.40169,2.90649,22.394,22.394,0,0,1-10.40169-2.90649c-4.705-2.94062-4.11684-3.11705-6.05767-4.41092s-4.558-1.64675-7.32215-2.61717-5.76364-1.97019-6.79285-4.79319a.99822.99822,0,0,0-.55872.82336c0,.55872.52933,2.3819,4.94026,4.41092,0,0,2.47012.73519,4.852,1.38208a18.15688,18.15688,0,0,1,6.61642,3.32293,20.38382,20.38382,0,0,0,14.51355,6.14012c.05386.00394.08509.00576.08509.00576.04255,0,.08339-.00193.12574-.00215.04236.00022.0832.00215.12574.00215,0,0,.03124-.00182.0851-.00576a20.384,20.384,0,0,0,14.51355-6.14012,18.15683,18.15683,0,0,1,6.61641-3.32293c2.3819-.64689,4.852-1.38208,4.852-1.38208,4.41092-2.029,4.94025-3.8522,4.94025-4.41092A.99822.99822,0,0,0,105.57444,101.408Z"/>
        <path class="cls-3" d="M51.74787,89.05732c1.49973.91158,3.14647,1.61735,2.99946,2.52893s-1.52915.47052-3.88165.49991-2.9994.61753-3.17587,1.882.70577,1.882,3.88163,2.9994a74.93322,74.93322,0,0,1,9.23356,3.58757c3.02884,1.52914,9.704,5.82245,11.17438,6.26355a11.19752,11.19752,0,0,0,2.87493.38371l.023.00031.06164.00057.06115.00011.06115-.00011.06162-.00057.023-.00031a11.19765,11.19765,0,0,0,2.87495-.38371c1.47031-.4411,8.14554-4.73441,11.17439-6.26355a74.93465,74.93465,0,0,1,9.23353-3.58757c3.17589-1.11744,4.05806-1.73495,3.88165-2.9994-.17646-1.26449-.82339-1.85262-3.17589-1.882s-3.73458.41171-3.88162-.49991,1.49972-1.61735,2.99945-2.52893,5.46953-3.7934,5.96947-5.96947c.49988-2.176-.29409-4.64617-3.17589-4.61678a6.319,6.319,0,0,0-4.52855,1.99964l.91159,1.4115A11.257,11.257,0,0,1,99.8108,80.5001a2.37,2.37,0,0,1,2.52894.26467,2.00382,2.00382,0,0,1-.02939,2.64656c-.82339,1.088-3.73458,3.20528-6.79285,4.88141s-3.05824,4.6462-1.44089,5.499a7.80494,7.80494,0,0,0,4.49916.47049c.67634-.11763,1.17622-.32345,1.32326-.0294s-.02942.55873-1.588,1.17626-6.48228,1.57937-12.35058,4.99906c-3.99206,2.32631-7.56328,5.212-10.96041,5.34552-3.39712-.13353-6.96835-3.01921-10.96041-5.34552-5.8683-3.41969-10.79207-4.38153-12.35058-4.99906s-1.735-.88217-1.588-1.17626.64692-.08823,1.32327.0294a7.80491,7.80491,0,0,0,4.49915-.47049c1.61735-.85278,1.61735-3.82282-1.44089-5.499s-5.96946-3.79336-6.79285-4.88141a2.00383,2.00383,0,0,1-.02939-2.64656,2.37,2.37,0,0,1,2.52891-.26467,11.257,11.257,0,0,1,2.38193,1.38211l.91159-1.4115a6.319,6.319,0,0,0-4.52855-1.99964c-2.88181-.02939-3.67577,2.44074-3.17589,4.61678C46.27834,85.26392,50.24817,88.14573,51.74787,89.05732Z"/>
        <path class="cls-3" d="M47.86628,81.47053c-.84945,1.16092,1.70555,3.14647,1.70555,3.14647l1.99961-2.88184C50.24817,80.706,48.74844,80.26486,47.86628,81.47053Z"/>
        <path class="cls-3" d="M54.42385,95.79135l.61753-1.05863a10.68335,10.68335,0,0,1-4.058-.05881A15.0751,15.0751,0,0,0,54.42385,95.79135Z"/>
        <path class="cls-3" d="M47.24872,93.086a3.01154,3.01154,0,0,1,2.23488-1.52915c1.47031-.0882,4.05806.2647,4.35214.17647.294-.08823.49988-.38229-.11762-.76458-.61756-.38226-5.32254-3.2347-6.70465-4.76379-1.38208-1.52915-1.61732-2.529-1.58793-3.02885l-3.02885,3.08763s-.4411,1.38211.97043,3.35233A15.24658,15.24658,0,0,0,47.24872,93.086Z"/>
        <path class="cls-3" d="M46.98408,93.6447a13.70184,13.70184,0,0,1-4.17568-3.617c-1.58793-2.3525-.941-3.44055-.941-3.44055a1.23112,1.23112,0,0,0-1.11744.4117c-.38229.52931-.794,1.35269.5293,3.617,1.48886,2.5476,6.0283,4.79322,6.0283,4.79322A4.37278,4.37278,0,0,1,46.98408,93.6447Z"/>
      </g>
      <g>
        <path class="cls-1" d="M49.68163,103.53l.76551-2.96186-.01673-.00793-1.77914,2.49115-.90466-.42029,1.22411-5.00014.913.424-.9,3.27317.01674.00793,1.91366-2.80247.7873.3657-.90839,3.26921.01673.00792,1.922-2.79872.88792.41259-3.03341,4.15977Z"/>
        <path class="cls-1" d="M54.86429,105.32852l.66423-2.0975-1.10918-.35116-.66424,2.0975-.93305-.29546,1.52441-4.81366.93306.29546-.64244,2.02858,1.10918.35117.64244-2.02859.93305.29524-1.52419,4.81366Z"/>
        <path class="cls-1" d="M61.37519,103.81819l-1.20253,2.35069c-.36129.70651-1.11579.86326-1.98742.41721-.87141-.44583-1.1858-1.14969-.8243-1.8562l1.20232-2.35069c.36151-.70628,1.116-.86326,1.98742-.41721C61.4223,102.40783,61.73648,103.11169,61.37519,103.81819Zm-1.94361-.98655-1.19593,2.33792a.60081.60081,0,0,0,1.0689.54689l1.19571-2.33792a.60071.60071,0,0,0-1.06868-.54689Z"/>
        <path class="cls-1" d="M67.74387,107.1572c.92336.505,1.2109,1.17237.81262,1.90023l-1.19857,2.19c-.3985.72808-1.11557.84565-2.03894.34059l-1.23159-.67348,2.42488-4.43079Zm-2.45813,3.60672.34015.186c.41325.22611.69308.157.89739-.21642l1.15013-2.10147c.20454-.37339.11163-.64618-.30162-.87228l-.34015-.186Z"/>
        <path class="cls-1" d="M70.52013,113.65709l.11471-1.1607-1.03808-.30008-.52288,1.04247-.94032-.27212,2.47728-4.53912,1.19769.34632-.33025,5.16042Zm-.60655-2.09.78951.22831.21025-2.15408-.02664-.00771Z"/>
        <path class="cls-1" d="M74.628,111.99464l-.45222-.0185-.0874,2.13317-.978-.04007.207-5.04483,1.41169.0579c1.05172.04315,1.60544.51342,1.57153,1.34212l-.015.36041a1.12519,1.12519,0,0,1-.73755,1.08144l.80074,2.33572-1.03345-.04227Zm-.42316-.72478.39674.01629c.47049.01915.69065-.16667.70826-.5918l.01057-.25957c.01739-.42514-.1867-.62857-.65719-.64773l-.39673-.01629Z"/>
        <path class="cls-1" d="M77.80667,109.59023l.26023,1.40464,1.40707-.26133.1288.695-1.40707.26134.27322,1.47554,1.743-.32364.1288.695-2.70538.50242-.91984-4.96558,2.70537-.50219.1288.69506Z"/>
        <path class="cls-1" d="M82.74649,108.49755l.04821.12065-.84741.41721-.06979-.17414c-.10744-.26794-.3265-.34346-.62659-.22325s-.40664.32606-.2992.594l.024.06033c.11008.27454.3582.44715,1.1279.60523,1.05172.2162,1.51582.481,1.74127,1.04379l.09379.23448c.26838.66973-.08432,1.25405-.98457,1.61446-.9.36063-1.55876.18141-1.82714-.48855l-.12615-.31461.84763-.41721.13408.33487q.17733.44187.69153.236.5142-.20607.33729-.64794l-.06164-.15411c-.11823-.2948-.39212-.45706-1.16181-.61514-1.0515-.2162-1.49007-.49141-1.71-1.04071l-.04029-.1004c-.26838-.66974.06737-1.24723.93327-1.594C81.83655,107.64178,82.47811,107.82782,82.74649,108.49755Z"/>
        <path class="cls-1" d="M91.41477,107.11427l-2.24655-2.07505-.01475.011,1.35247,2.74478-.7981.59775-3.8249-3.44292.80558-.60325,2.457,2.34078.01476-.011-1.563-3.01052.69462-.52047,2.44976,2.34629.01475-.011-1.55567-3.016.78312-.58674,2.22894,4.63841Z"/>
        <path class="cls-1" d="M93.55873,106.04075l-1.68558-4.76082.92293-.32629,1.68557,4.76082Z"/>
        <path class="cls-1" d="M97.82616,104.668l-2.25778-2.78508-.01761.00573,1.03741,3.18291-.87779.28621L94.145,100.55625l1.03609-.33773,2.02969,2.5026.01762-.00573L96.296,99.855l.8778-.28622,1.56536,4.80155Z"/>
        <path class="cls-1" d="M100.87433,99.19586l.052.1191-.83376.4443-.0753-.17195c-.11581-.2642-.33751-.33267-.63341-.20277-.29612.12989-.39607.33905-.28027.60347l.0262.05944c.11867.2708.3723.43548,1.14683.56868,1.05789.18208,1.53058.432,1.77386.987l.10128.23139c.28973.66071-.04425,1.25625-.93262,1.6455-.88814.38947-1.55237.23161-1.84189-.42932l-.13628-.31043.834-.44451.14487.33047q.19122.43624.69858.21378.50758-.22259.31638-.65873l-.06649-.15192c-.12748-.29083-.40643-.44429-1.181-.57749-1.05811-.18207-1.50526-.44319-1.7426-.985l-.04359-.09907c-.28952-.66093.02752-1.249.88176-1.62349C99.93731,98.3698,100.58459,98.53514,100.87433,99.19586Z"/>
      </g>
      <g>
        <path class="cls-1" d="M100.42833,84.72969l-.017-.00132a.11314.11314,0,0,1-.07574-.04712l-1.99952-2.88172a.11265.11265,0,0,1,.02355-.15323,3.77357,3.77357,0,0,1,2.65364-.996,1.77185,1.77185,0,0,1,1.21156.75384c.90377,1.23512-1.61953,3.21813-1.72741,3.30179A.11151.11151,0,0,1,100.42833,84.72969ZM98.5827,81.75924l1.869,2.6937c.44121-.36525,2.27891-1.976,1.59134-2.91584h0a1.55563,1.55563,0,0,0-1.061-.66358A3.48323,3.48323,0,0,0,98.5827,81.75924Z"/>
        <path class="cls-1" d="M95.57636,95.9041a.11272.11272,0,0,1-.09731-.05592l-.61756-1.05855a.11264.11264,0,0,1,.12505-.166,10.64675,10.64675,0,0,0,4.00654-.06011.1128.1128,0,0,1,.0742.21114,15.32064,15.32064,0,0,1-3.47044,1.12746Zm-.38947-1.00417.44649.76529a16.34111,16.34111,0,0,0,2.52991-.738A9.75526,9.75526,0,0,1,95.18689,94.89993Z"/>
        <path class="cls-1" d="M102.7515,93.19873a.11659.11659,0,0,1-.02994-.004.11321.11321,0,0,1-.06957-.05592,2.919,2.919,0,0,0-2.1422-1.4696,24.62054,24.62054,0,0,0-2.97881.11757,7.08589,7.08589,0,0,1-1.39892.05438A.46223.46223,0,0,1,95.771,91.487c-.02708-.205.12483-.41171.45155-.614l.14355-.08851c4.33436-2.66508,5.94706-4.00257,6.53688-4.65492h0c1.46783-1.62415,1.57946-2.60189,1.5592-2.94689a.11285.11285,0,0,1,.19309-.08564l3.02879,3.08779a.11637.11637,0,0,1,.02686.0447c.01871.05878.44187,1.4588-.98634,3.45216a15.49014,15.49014,0,0,1-3.91451,3.50083A.113.113,0,0,1,102.7515,93.19873Zm-2.77274-1.769c.1922,0,.37516.00441.54468.01453a3.03064,3.03064,0,0,1,2.26681,1.48435,15.00825,15.00825,0,0,0,3.75115-3.37819,4.10165,4.10165,0,0,0,.961-3.22871l-2.82294-2.878a5.39387,5.39387,0,0,1-1.60917,2.83681h0c-.59973.66358-2.22916,2.0167-6.5862,4.6961l-.14289.08784c-.23073.14311-.36041.29-.34676.393.00881.06781.08829.13364.20233.168a9.89023,9.89023,0,0,0,1.31658-.06341C98.2835,91.50171,99.20466,91.42971,99.97876,91.42971Z"/>
        <path class="cls-1" d="M102.69272,95.5219a.11277.11277,0,0,1-.1-.16491,4.28718,4.28718,0,0,0,.31065-1.70913.11283.11283,0,0,1,.05879-.10215,13.67854,13.67854,0,0,0,4.13621-3.581c1.51869-2.24985.943-3.31016.937-3.32073a.11326.11326,0,0,1,.07948-.1682,1.33357,1.33357,0,0,1,1.22675.45706h0c.4771.66071.74393,1.57109-.52333,3.7397-1.489,2.54774-5.88894,4.74541-6.07564,4.83766A.11171.11171,0,0,1,102.69272,95.5219Zm.4368-1.81151a4.88366,4.88366,0,0,1-.21136,1.45484c1.00285-.53213,4.4614-2.47728,5.70555-4.60626,1.36787-2.34078.82627-3.0911.53521-3.494a1.01168,1.01168,0,0,0-.86238-.376c.12594.38925.27653,1.494-1.01143,3.40175A13.76706,13.76706,0,0,1,103.12952,93.71039Z"/>
        <path class="cls-1" d="M75.27286,115.81219h-.00264c-.05372-.00132-.10634-.00374-.15874-.00617l-.11514-.00484-.10766.00484c-.0524.00243-.105.00485-.15874.00617a.118.118,0,0,1-.07354-.0251,23.47918,23.47918,0,0,1-14.7371-6.33653c-.19727-.16887-.3767-.32254-.539-.45728a11.87975,11.87975,0,0,0-4.5979-2.10543c-1.18778-.367-2.666-.82385-4.6034-1.55171-5.33325-2.00349-5.42352-4.18752-5.42484-4.27955a.11347.11347,0,0,1,.01651-.0601l3.11708-5.11661a.11247.11247,0,0,1,.16975-.02686c.69175.59533,2.73531,1.27761,5.10163,2.06756,1.81525.60589,3.87246,1.29258,5.54483,2.03167a53.78993,53.78993,0,0,1,7.35281,4.01513c1.19086.74415,2.31568,1.44692,3.59417,2.13449a10.57481,10.57481,0,0,0,5.08116,1.49359.1148.1148,0,0,1,.1048-.03479c.0033.00066.06274.01167.17305.02136.09048-.00969.14993-.0207.15323-.02136a.11369.11369,0,0,1,.1048.03479,10.6065,10.6065,0,0,0,5.08116-1.49359h0c1.27849-.68757,2.4033-1.39034,3.59417-2.13449a53.78933,53.78933,0,0,1,7.35281-4.01513c1.67236-.73909,3.72979-1.42578,5.545-2.03189,2.3661-.79,4.40966-1.472,5.10164-2.06734a.11246.11246,0,0,1,.16974.02686l3.11708,5.11661a.11338.11338,0,0,1,.01651.0601c-.00132.092-.0918,2.27606-5.42505,4.27955-1.93744.72786-3.41562,1.1847-4.6034,1.55171a11.87961,11.87961,0,0,0-4.5979,2.10543c-.16226.13474-.3417.28841-.539.45728a23.47922,23.47922,0,0,1-14.73711,6.33653A.11232.11232,0,0,1,75.27286,115.81219ZM44.98229,101.08213c.03281.25936.441,2.22674,5.276,4.04309,1.931.72544,3.40571,1.18118,4.59063,1.54731a12.03655,12.03655,0,0,1,4.6754,2.14726c.16314.1354.34345.29.5416.45948a23.26378,23.26378,0,0,0,14.65454,6.28523.1131.1131,0,0,1,.05988.02048c.03281-.0011.06539-.00264.098-.00418l.118-.00507.12549.00507c.03258.00154.06517.00308.098.00418a.11314.11314,0,0,1,.05989-.02048,23.2638,23.2638,0,0,0,14.65454-6.28523c.19814-.16953.37846-.32408.5416-.45948a12.03648,12.03648,0,0,1,4.6754-2.14726c1.18492-.36613,2.65957-.82187,4.59063-1.54731,4.83171-1.81525,5.24276-3.78109,5.276-4.04309l-3.03121-4.9757a23.9761,23.9761,0,0,1-5.07411,2.02793c-1.81041.60435-3.86256,1.28928-5.52523,2.024a53.61972,53.61972,0,0,0-7.32441,4.00015c-1.19417.74614-2.32207,1.45088-3.60672,2.142a10.639,10.639,0,0,1-5.252,1.51891.112.112,0,0,1-.06847-.02642c-.0317.00419-.07376.009-.12571.01365-.06231-.00462-.11009-.00968-.14487-.01409a.113.113,0,0,1-.06913.02686,10.63793,10.63793,0,0,1-5.252-1.51891c-1.28466-.69109-2.41255-1.39583-3.60672-2.142a53.62032,53.62032,0,0,0-7.32441-4.00015c-1.66268-.73447-3.7146-1.41962-5.525-2.024a23.95871,23.95871,0,0,1-5.07411-2.02793Z"/>
        <path class="cls-1" d="M74.87436,117.60586l-.09356-.00594A20.29531,20.29531,0,0,1,60.477,111.689c-.10348-.09709-.19573-.18383-.27741-.25869a17.97235,17.97235,0,0,0-6.56969-3.29717c-2.356-.6398-4.83017-1.37559-4.85483-1.38285-4.77953-2.19746-5.02083-4.14965-5.02083-4.51886a1.10271,1.10271,0,0,1,.62328-.92535.11366.11366,0,0,1,.09093-.00242.11221.11221,0,0,1,.06319.06583c.98963,2.71418,3.81742,3.70579,6.55207,4.66483l.17239.06054c.92975.3265,1.841.58211,2.7221.82958a16.19088,16.19088,0,0,1,4.625,1.80006,12.73709,12.73709,0,0,1,1.52266,1.18184,30.03737,30.03737,0,0,0,4.53229,3.22738,22.08517,22.08517,0,0,0,10.34527,2.88943,22.08293,22.08293,0,0,0,10.33867-2.88943,30.03737,30.03737,0,0,0,4.53229-3.22738,12.73768,12.73768,0,0,1,1.52265-1.18184,16.191,16.191,0,0,1,4.625-1.80006c.8811-.24747,1.79236-.50308,2.72211-.82958l.172-.06032c2.73487-.959,5.56287-1.95065,6.55251-4.665a.11221.11221,0,0,1,.06319-.06583.11364.11364,0,0,1,.09092.00242,1.10271,1.10271,0,0,1,.62329.92535c0,.36921-.2413,2.3214-5.00587,4.51313-.03962.013-2.51382.74878-4.86958,1.38858a17.97533,17.97533,0,0,0-6.5699,3.29717c-.08168.07486-.17393.1616-.27741.25869a20.30144,20.30144,0,0,1-14.31064,5.91118l-.08036.0055-.13276-.002ZM44.36759,101.5731a.817.817,0,0,0-.38792.65829c0,.21136.13672,2.12876,4.87464,4.30838.00969.00176,2.48125.73667,4.83458,1.37581a18.21877,18.21877,0,0,1,6.663,3.34869c.08212.07529.17525.1627.27939.26045a20.08859,20.08859,0,0,0,14.15939,5.85l.09005.00595.11867-.00243.12637.00221.07706-.00551a20.09458,20.09458,0,0,0,14.166-5.85019c.10413-.09775.19726-.18516.27938-.26045a18.22016,18.22016,0,0,1,6.66326-3.34869c2.35311-.63914,4.82467-1.37405,4.84933-1.38153,4.72295-2.17368,4.85967-4.0913,4.85967-4.30266a.817.817,0,0,0-.38793-.65829c-1.06559,2.71858-3.89976,3.71262-6.6419,4.67407l-.17173.06033c-.93679.32892-1.85135.58564-2.736.834A16.03809,16.03809,0,0,0,91.522,108.912a12.521,12.521,0,0,0-1.4991,1.164,30.24928,30.24928,0,0,1-4.56157,3.24874,22.32012,22.32012,0,0,1-10.458,2.92377,22.32243,22.32243,0,0,1-10.4646-2.92377A30.25024,30.25024,0,0,1,59.9772,110.076a12.52,12.52,0,0,0-1.49909-1.164,16.03821,16.03821,0,0,0-4.56091-1.77056c-.88462-.24834-1.79918-.50506-2.736-.834l-.17217-.06033C48.26714,105.2855,45.43319,104.29146,44.36759,101.5731Z"/>
        <path class="cls-1" d="M75.00008,107.31607l-.12395-.00066-.02312-.00022a11.27531,11.27531,0,0,1-2.90594-.38859,50.19031,50.19031,0,0,1-5.8383-3.21461c-1.97906-1.17259-4.02548-2.38525-5.35461-3.05631a58.7158,58.7158,0,0,0-7.5536-3.00326c-.55151-.19-1.10676-.38154-1.66664-.57859-3.08911-1.08673-4.15118-1.72168-3.95568-3.12126.19991-1.43349,1.05987-1.95131,3.28617-1.97905.6781-.01013,1.26858.02157,1.78861.048,1.31437.06759,1.89781.07442,1.98323-.45331.10634-.66049-.95749-1.26793-2.08385-1.91124-.284-.16227-.57617-.32915-.863-.50352v.00022c-1.39694-.84917-5.50167-3.78131-6.02082-6.04041a4.30736,4.30736,0,0,1,.614-3.63535,3.22034,3.22034,0,0,1,2.62215-1.11975l.05064.00022a6.49234,6.49234,0,0,1,4.614,2.04.1125.1125,0,0,1,.00814.13342L52.666,81.94352a.11277.11277,0,0,1-.16381.028,11.212,11.212,0,0,0-2.35377-1.36634,2.24934,2.24934,0,0,0-2.41387.24438,1.89871,1.89871,0,0,0,.04513,2.4938c.832,1.09928,3.8,3.2298,6.75705,4.85065a4.37633,4.37633,0,0,1,2.57459,3.67255,2.23689,2.23689,0,0,1-1.13516,2.02484,7.991,7.991,0,0,1-4.571.48172c-.1572-.0273-.30493-.05922-.44121-.08872-.43945-.09555-.69109-.14223-.762-.0011a.18345.18345,0,0,0-.01959.15807c.10061.26354.93195.61888,1.54841.86305.35733.14156.90157.30382,1.59046.509a46.65875,46.65875,0,0,1,10.77526,4.49751c.95177.55459,1.88416,1.14375,2.78573,1.71353,2.86125,1.80821,5.564,3.516,8.12228,3.61641,2.5495-.10039,5.25223-1.8082,8.11348-3.61641.90157-.56978,1.834-1.15894,2.78573-1.71353a46.65871,46.65871,0,0,1,10.77525-4.49751c.68889-.20519,1.23314-.36745,1.59047-.509.61645-.24417,1.44779-.59951,1.54841-.86305a.18343.18343,0,0,0-.0196-.15807c-.07067-.14113-.32232-.09423-.76176.0011-.13607.0295-.284.06142-.44121.08872a7.9956,7.9956,0,0,1-4.57126-.48172,2.2369,2.2369,0,0,1-1.13517-2.02484,4.37635,4.37635,0,0,1,2.5746-3.67255c2.957-1.62063,5.925-3.75115,6.757-4.85065a1.8987,1.8987,0,0,0,.04514-2.4938,2.24831,2.24831,0,0,0-2.41388-.24438A11.21264,11.21264,0,0,0,97.498,81.97148a.11276.11276,0,0,1-.1638-.028l-.91148-1.41169a.11248.11248,0,0,1,.00815-.13342,6.49293,6.49293,0,0,1,4.614-2.04,3.22243,3.22243,0,0,1,2.673,1.11975,4.307,4.307,0,0,1,.61381,3.63513c-.51914,2.2591-4.62387,5.19124-6.02081,6.04041-.28688.17415-.579.341-.86305.5033-1.12635.64309-2.19018,1.25075-2.08363,1.91124.08521.52773.67.52112,1.983.45331.51959-.02642,1.11029-.05768,1.78861-.048,2.2263.02774,3.08626.54556,3.28616,1.97905.19551,1.39958-.86656,2.03453-3.95568,3.12126-.56031.19705-1.116.38881-1.668.57925a58.69453,58.69453,0,0,0-7.55228,3.0026c-1.32912.67106-3.37555,1.88372-5.3546,3.05631a50.19031,50.19031,0,0,1-5.8383,3.21461,11.27536,11.27536,0,0,1-2.90594.38859l-.02312.00022ZM51.10086,92.19742q-.11491,0-.23381.00155c-2.385.02972-2.90374.62438-3.06556,1.78486-.1627,1.16445.6202,1.756,3.80729,2.87732.55944.19683,1.11425.38815,1.66532.57815a58.91962,58.91962,0,0,1,7.58178,3.01515c1.336.67458,3.38568,1.889,5.36781,3.06357a51.93193,51.93193,0,0,0,5.78811,3.19282,11.05264,11.05264,0,0,0,2.84385.3789l.02158.11295.0011-.11273.18295.00066.06055-.00066.024.11251-.00132-.11273a11.05269,11.05269,0,0,0,2.84385-.3789,51.93285,51.93285,0,0,0,5.78811-3.19282c1.98213-1.17457,4.03185-2.389,5.36781-3.06357A58.86592,58.86592,0,0,1,96.72474,97.44c.55151-.19022,1.10676-.38176,1.66664-.57881,3.18709-1.12129,3.97-1.71287,3.80729-2.87732-.16182-1.16048-.68053-1.75514-3.06556-1.78486-.6737-.009-1.258.02135-1.77452.04777-1.30733.06715-2.09618.107-2.21683-.64266-.13166-.8146.94626-1.43018,2.19415-2.14285.28247-.16116.57265-.32716.85776-.50043,1.376-.83618,5.41647-3.71461,5.91822-5.89819a4.084,4.084,0,0,0-.56956-3.44314,2.98692,2.98692,0,0,0-2.49534-1.03565,6.28349,6.28349,0,0,0-4.38808,1.898l.79875,1.23754a11.04476,11.04476,0,0,1,2.31216-1.32428A2.46626,2.46626,0,0,1,102.414,80.68a2.09882,2.09882,0,0,1-.01387,2.79938c-.84829,1.12107-3.84758,3.27868-6.82838,4.91229a4.15868,4.15868,0,0,0-2.45747,3.47309,2.01564,2.01564,0,0,0,1.015,1.82714,7.76712,7.76712,0,0,0,4.42727.45926c.15411-.02686.29876-.05835.43218-.08719.4793-.10413.85864-.1867,1.01121.11845a.40469.40469,0,0,1,.02862.33949c-.08872.23206-.40774.48943-1.67588.99206-.36658.14509-.915.30867-1.6094.51563a46.45367,46.45367,0,0,0-10.72594,4.47592c-.94846.55284-1.87887,1.14067-2.7789,1.70936-2.88767,1.82493-5.61506,3.54837-8.23391,3.65141-2.62765-.103-5.355-1.82648-8.24271-3.65141-.9-.56869-1.83044-1.15652-2.77891-1.70936A46.45364,46.45364,0,0,0,53.25693,96.0296c-.6944-.207-1.24283-.37054-1.6094-.51563-1.26814-.50263-1.58716-.76-1.67589-.99206a.40473.40473,0,0,1,.02862-.33949c.15236-.30493.53148-.2228,1.01144-.11845.13342.02884.27806.06033.43218.08719a7.76837,7.76837,0,0,0,4.42705-.45926,2.01564,2.01564,0,0,0,1.015-1.82714,4.1587,4.1587,0,0,0-2.45747-3.47309c-2.9808-1.63383-5.98031-3.79144-6.82838-4.91229A2.09882,2.09882,0,0,1,47.58617,80.68a2.46651,2.46651,0,0,1,2.64417-.28489,11.04489,11.04489,0,0,1,2.31215,1.32428l.79876-1.23754a6.28279,6.28279,0,0,0-4.38808-1.898l-.05086-.00022a2.96418,2.96418,0,0,0-2.44426,1.03565,4.08432,4.08432,0,0,0-.56978,3.44336c.50175,2.18358,4.54219,5.062,5.91822,5.89819h0c.28511.17349.57551.33927.85776.50043,1.24788.71267,2.32581,1.32825,2.19437,2.14285-.12087.74944-.91016.70959-2.21705.64266C52.18583,92.2234,51.67637,92.19742,51.10086,92.19742Z"/>
        <path class="cls-1" d="M49.57183,84.72969a.11156.11156,0,0,1-.06914-.02378c-.10788-.08366-2.63117-2.06667-1.7274-3.30179h0a1.77183,1.77183,0,0,1,1.21156-.75384,3.77544,3.77544,0,0,1,2.65363.996.11264.11264,0,0,1,.02356.15323l-1.99953,2.88172a.11309.11309,0,0,1-.07573.04712ZM49.257,80.85745a1.727,1.727,0,0,0-.23888.01607,1.55565,1.55565,0,0,0-1.061.66358h0c-.688.94054,1.14992,2.55059,1.59135,2.91584l1.869-2.6937A3.8198,3.8198,0,0,0,49.257,80.85745Zm-1.39077.61316h0Z"/>
        <path class="cls-1" d="M54.42379,95.9041l-.02047-.002a15.32384,15.32384,0,0,1-3.47044-1.12746.1128.1128,0,0,1,.07419-.21114,10.62792,10.62792,0,0,0,4.00654.06011.11112.11112,0,0,1,.11779.04139.11274.11274,0,0,1,.00727.12461l-.61756,1.05855A.11274.11274,0,0,1,54.42379,95.9041Zm-2.5867-.97664a16.36476,16.36476,0,0,0,2.52968.73776l.44649-.76529A9.77541,9.77541,0,0,1,51.83709,94.92746Z"/>
        <path class="cls-1" d="M47.24866,93.19873a.113.113,0,0,1-.05857-.01629,15.4905,15.4905,0,0,1-3.91451-3.50083c-1.428-1.99336-1.005-3.39338-.98633-3.45216a.11624.11624,0,0,1,.02686-.0447L45.3449,83.097a.11285.11285,0,0,1,.19309.08564c-.02026.345.09136,1.32274,1.55919,2.94689.58982.65235,2.20252,1.98984,6.53689,4.65492l.14332.08851c.32717.20233.47908.40906.452.614a.46256.46256,0,0,1-.36129.35424,7.12509,7.12509,0,0,1-1.39892-.05438,24.57076,24.57076,0,0,0-2.97882-.11757,2.919,2.919,0,0,0-2.14219,1.4696.11323.11323,0,0,1-.06957.05592A.1167.1167,0,0,1,47.24866,93.19873Zm-4.75092-6.877a4.1027,4.1027,0,0,0,.961,3.22871,15.00825,15.00825,0,0,0,3.75115,3.37819,3.03064,3.03064,0,0,1,2.2668-1.48435,24.79277,24.79277,0,0,1,3.01008.11779,9.84791,9.84791,0,0,0,1.31658.06341c.114-.03435.19353-.10018.20255-.168.01365-.103-.11624-.24988-.34719-.393l-.14267-.08784c-4.357-2.6794-5.98647-4.03252-6.5862-4.6961a5.394,5.394,0,0,1-1.60918-2.83681Z"/>
        <path class="cls-1" d="M47.30766,95.5219a.11178.11178,0,0,1-.05-.01167c-.18669-.09225-4.58689-2.28992-6.07563-4.83766-1.26749-2.16861-1.00065-3.079-.52355-3.7397a1.33284,1.33284,0,0,1,1.22675-.45706.1128.1128,0,0,1,.079.16909c-.00551.00968-.581,1.07.93745,3.31984a13.67865,13.67865,0,0,0,4.13622,3.581.11281.11281,0,0,1,.05878.10215,4.28485,4.28485,0,0,0,.31088,1.70913.11277.11277,0,0,1-.1.16491Zm-5.61373-8.83253a1.03412,1.03412,0,0,0-.8527.3756c-.29105.4029-.83266,1.15322.53544,3.494,1.24415,2.129,4.7027,4.07413,5.70532,4.60626a4.8839,4.8839,0,0,1-.21135-1.45484,13.76886,13.76886,0,0,1-4.15559-3.61971c-1.2873-1.90684-1.13737-3.0114-1.01166-3.40131Z"/>
      </g>
    </g>
  </g>
</svg>
