<svg xmlns="http://www.w3.org/2000/svg" width="150" height="150" viewBox="0 0 150 150">
  <defs>
    <style>
      .cls-1 {
        fill: #312d2d;
      }

      .cls-1, .cls-2, .cls-3, .cls-4 {
        fill-rule: evenodd;
      }

      .cls-2 {
        fill: #ececec;
      }

      .cls-3 {
        fill: #357236;
      }

      .cls-4 {
        fill: #3d2626;
      }

      .cls-5 {
        fill: #10257a;
      }

      .cls-6 {
        fill: #3c56b8;
      }

      .cls-7 {
        fill: #fafafa;
      }
    </style>
  </defs>
  <g id="Layer_2" data-name="Layer 2">
    <g>
      <path id="Shape_262_copy_4" data-name="Shape 262 copy 4" class="cls-1" d="M128.89559,129.95652H21.10441V2.82609H128.89559Z"/>
      <path id="Shape_262_copy_5" data-name="Shape 262 copy 5" class="cls-2" d="M64.00938,95.61149s-3.69861,14.05526-4.016,16.06328a6.84414,6.84414,0,0,0,2.32457,6.87022s8.0312-1.58451,8.9826-2.00715,7.292-.74007,15.85195,2.53589c0,0,2.85331-4.86133,2.11324-8.55995a63.8185,63.8185,0,0,0-1.90191-8.34862,14.65007,14.65007,0,0,1-.1061-10.14532s2.008,3.69861,7.926,3.17074,10.14532-2.642,11.942-6.55193c0,0,6.23451-.42265,8.0312-3.06464a44.075,44.075,0,0,0,3.06464-6.12928c.42265-.634,2.7481-3.69861,2.95681-5.49531a28.74356,28.74356,0,0,0-.42352-5.60054s2.74809-9.08869,1.79669-13.10386-4.86133-10.88452-4.86133-10.88452-2.85332-6.12928-4.64914-7.50333-10.56015-4.33606-13.20649-4.12126a16.10754,16.10754,0,0,0-5.49531,1.79669S92.64865,26.07788,89.16135,23.542,79.96656,16.4587,73.626,15.71863s-10.88452.42265-15.64062,5.6014c0,0-4.22737,1.90192-5.81273,3.69862s-4.86134,11.942-4.86134,11.942a13.21864,13.21864,0,0,0-8.45385,6.76326c-3.17074,5.81273-2.85332,16.69725-1.4784,20.29063,0,0-6.55194,7.50333-7.81988,11.20194s.21132,10.88452.21132,10.88452-4.54391,5.70663-1.90192,11.30543,10.25054,8.24253,13.84393,8.34863c0,0,4.75524,3.06464,8.45472,2.642s6.55194-1.0575,7.81988-1.7967S63.37541,99.4162,64.00938,95.61149Z"/>
      <path id="Shape_262_copy_6" data-name="Shape 262 copy 6" class="cls-3" d="M36.11019,87.05155s-3.59252,4.22736-2.9568,7.50332,4.96656,5.49531,6.76325,5.81186a18.65894,18.65894,0,0,0,3.59252,0c.42265.1061,6.44671,2.642,8.666,2.008A10.05491,10.05491,0,0,0,58.51582,95.928c1.16272-3.59251,2.642-5.91361,4.86133-6.44584s2.32457-1.47839,4.65.31656L80.0744,85.67749l1.6906-2.43066s3.48729,2.21934,6.02405,3.69861,6.44584,3.69948,10.99062,1.58537,4.54391-3.06465,4.86046-3.80471.84617-2.11325,1.58537-2.21935,3.48729-.31655,5.17876-1.4784,4.86133-7.1859,5.07266-8.666-.1061-4.43521.21132-5.70663,2.53589-7.292,1.16185-10.35665-4.65-8.24339-4.86134-9.19392a20.42191,20.42191,0,0,0-3.91342-5.918c-1.26795-1.05662-6.02319-3.38206-8.0312-2.9568s-9.0887,4.4352-9.0887,4.4352-4.54391-14.16048-7.50333-17.0138-12.04724-5.49531-14.37268-5.39182-5.38485,2.64895-6.86325,4.3352-2.32457,1.05662-5.17789,3.69861-4.54391,9.72267-4.96656,12.78383c0,0-4.75524-.74007-8.24253,5.70664S41.716,60.52465,44.99191,63.37536c0,0-3.276,5.49531-5.70663,7.292a12.04118,12.04118,0,0,0-4.65436,8.24688C34.20827,82.40154,36.11019,87.05155,36.11019,87.05155Z"/>
      <path id="Shape_262_copy_7" data-name="Shape 262 copy 7" class="cls-4" d="M98.03786,51.4377c-1.90192.74007-3.276.74007-3.80472.42265s-6.23537-.52875-7.60855.21132a7.0763,7.0763,0,0,0-2.74722,3.38206c-.21132.74008-1.58537,4.016-1.79669,4.54392s-1.374,6.024-1.68886,7.61116a28.38475,28.38475,0,0,1-2.32457,5.17789s2.11325.74007,2.642.42265,3.276-2.74809,4.54392-3.17074,2.008-.21132,3.38206,1.05662,3.48729,3.91342,4.12126,4.12126,4.54391,1.4784,6.23538,2.11325,4.33259-.52875,4.33259-.52875.10523,1.26795-2.008,2.008-2.9568,1.05662-3.80471.74007-3.59251-1.6906-3.91342-1.58537-1.58536.8453-2.11324.634-4.12126-3.17074-4.75524-3.38206a3.75165,3.75165,0,0,0-3.91342,1.05662c-1.58537,1.58536-3.16987,1.58536-4.016,2.32456s-1.58537,1.90192-1.26795,2.85332,1.16272,1.58537,1.58537,2.32457a21.69253,21.69253,0,0,1,1.6906,5.39181C81.0197,90.858,79.33,94.02784,79.223,95.61321s1.90192,7.81988,2.642,9.827,1.9028,4.65.31742,6.658c0,0-2.9568-1.7967-8.666-1.4784a48.85831,48.85831,0,0,0-7.39722.7392S69.289,95.92976,69.50034,94.97924s-.9514-5.60141-1.26795-6.44671-1.58537-3.91342-2.85331-3.80471-6.34061,4.75611-7.50333,5.60141S50.79507,93.5,50.37242,93.92261a2.7202,2.7202,0,0,1-1.69059.7392,10.8706,10.8706,0,0,1-5.07266-2.9568c-1.374-1.69147-6.12928-7.926-6.12928-7.926l3.48728-.74007s2.95681,4.43521,4.12127,5.39182,2.85331,2.435,6.44583,1.16185S61.99614,81.244,61.99614,81.244a36.27,36.27,0,0,1-3.276-2.21935c-.52875-.52875-3.17074-5.284-3.91342-5.70663a50.28731,50.28731,0,0,0-4.96656-1.58537,24.16232,24.16232,0,0,1,3.69861-1.69059,8.13207,8.13207,0,0,1,5.49531,2.9568c2.11325,2.74722,4.43521,6.44584,6.87022,7.292s4.12126-2.008,3.91342-5.39182-3.316-9.21393-6.23538-10.6732c-.8453-.42265-3.06464,0-3.91342,0a10.7834,10.7834,0,0,1-3.48729-.42265c-1.16272-.42265-7.926-5.918-7.926-5.918l1.69059-.8453s4.22736,2.85332,5.284,3.276,4.4352,1.37405,5.07266,1.16272a8.30163,8.30163,0,0,1,4.12126-.10523,20.192,20.192,0,0,1,4.86133,1.90192c.8453.52874,3.69862,5.07266,3.69862,5.07266s1.374-2.642,1.16272-4.22737-3.4873-4.33259-4.016-4.86133-9.19393-6.55194-9.19393-6.55194,1.16273-.84529.74008-3.48728a9.5766,9.5766,0,0,0-2.95681-5.39183c-.74007-.52874-4.54391-3.276-4.54391-3.276l1.69059-2.435,3.91342,2.95681a30.60469,30.60469,0,0,1,1.69322-6.85976l1.79669,1.26795s-1.58536,5.07266-1.374,6.3406,1.26794,1.90018,1.79843,3.27423a57.89356,57.89356,0,0,1,1.26795,6.76326s7.71465,5.17789,8.66517,5.70663a18.49674,18.49674,0,0,1,2.95681,3.06464s-2.74722-14.90056-2.74722-16.06328-.31742-9.72267-.52875-10.568-5.4953-6.3406-5.4953-6.3406a2.64549,2.64549,0,0,0,1.69059-1.16272c.52875-.9514,1.16272-1.90192,1.16272-1.90192s4.22736,5.39181,4.43521,6.4467c0,0,1.16271-3.17074,2.11324-4.12126l2.95681,1.69059s-2.008,7.292-2.43067,9.61658a13.79087,13.79087,0,0,0-.10523,5.4953c.31742,1.05663,2.32457,8.34863,2.32457,8.34863s2.32457-3.16987,4.12126-4.016,4.12127-1.26795,5.39182-.8453a41.8483,41.8483,0,0,0,7.18591,1.6906c1.37317,0,3.91342-1.16272,4.96743-1.58537s2.53589.52875,2.53589.52875A49.69882,49.69882,0,0,1,98.03786,51.4377ZM69.29337,39.39046a21.07949,21.07949,0,0,1,1.16272,5.284c.31742,2.32457,2.642,6.02406,2.642,6.02406s-2.9568-.52875-3.91342-2.642-1.16271-6.4467-1.4784-7.71465-2.74808-3.38206-2.74808-3.38206l.52787-.74007S68.87072,38.64952,69.29337,39.39046ZM62.10746,58.30357s-2.642-1.7967-4.4352-1.6906a6.56324,6.56324,0,0,1-5.17789-2.43066c-1.05662-1.47841-2.32457-2.95681-1.90192-7.39723,0,0,1.05662.31655,1.90192,2.85331s1.58537,3.59252,3.38206,3.80471A8.5365,8.5365,0,0,1,62.10746,58.30357Z"/>
    </g>
    <g>
      <path class="cls-5" d="M116.0913,142.30387c1.42044,6.45056-8.28365,6.64227-10.24557,4.08755s.872-7.91964.872-7.91964l1.52594-2.55472S114.34738,134.38423,116.0913,142.30387Z"/>
      <path class="cls-5" d="M33.9087,142.30387c-1.42044,6.45056,8.28365,6.64227,10.24557,4.08755s-.872-7.91964-.872-7.91964l-1.52594-2.55472S35.65262,134.38423,33.9087,142.30387Z"/>
      <path class="cls-6" d="M75,147.01331a24.22861,24.22861,0,0,1-10.25532-2.29872c-7.91244-3.68815-12.5473-6.02729-20.37241-7.52017-5.85295-1.11663-10.46356,5.10945-10.46356,5.10945-1.09-4.08756-6.32174-12.0072-6.32174-12.0072,6.53973-15.58381,22.3598-9.27378,26.81289-6.38681,10.24558,6.64228,19.83718,5.85323,19.83718,5.85323H75.763s9.5916.78905,19.83718-5.85323c4.45309-2.887,20.27316-9.197,26.81289,6.38681,0,0-5.23178,7.91964-6.32174,12.0072,0,0-4.61061-6.22608-10.46356-5.10945-7.82511,1.49288-12.46,3.832-20.37241,7.52017A24.22861,24.22861,0,0,1,75,147.01331Z"/>
      <g>
        <path class="cls-7" d="M70.57129,139.07324l.65918-3.23242h1.65137v3.23242h1.41894v1.93946H72.88184v2.22656H70.57129V141.0127h-4.7002v-1.22852l3.11133-7.88672h2.24121l-2.84082,7.17578Z"/>
        <path class="cls-7" d="M80.34863,131.89746a12.0332,12.0332,0,0,1,2.49414.335v1.84278a17.418,17.418,0,0,0-2.46093-.22754H79.5957a1.40846,1.40846,0,0,0-1.45508,1.49414v.89258a7.54817,7.54817,0,0,1,1.45215-.16993h.93262A2.64542,2.64542,0,0,1,83.29,138.9541v1.48438a2.89279,2.89279,0,0,1-3.02734,2.91113h-1.5c-1.92969,0-3.12793-1.13184-3.12793-3.44629v-4.43555a3.5129,3.5129,0,0,1,3.82714-3.57031Zm-1.26074,6.10645a1.48513,1.48513,0,0,0-.999.33007v2.01172a1.00356,1.00356,0,0,0,1.04394,1.06446h.69727a1.00808,1.00808,0,0,0,.99512-1.06446v-1.27832a1.01129,1.01129,0,0,0-.99512-1.06347Z"/>
      </g>
    </g>
  </g>
</svg>
