<?xml version="1.0" encoding="UTF-8"?>
<svg xmlns="http://www.w3.org/2000/svg" width="150" height="150" viewBox="0 0 150 150">
  <defs>
    <style>
      .cls-1 {
        fill: #f6f6f6;
      }

      .cls-2 {
        fill: #c1272d;
      }

      .cls-3 {
        fill: #1a1b4d;
      }

      .cls-4 {
        fill: #35379c;
      }
    </style>
  </defs>
  <g id="Layer_5" data-name="Layer 5">
    <g>
      <polygon class="cls-4" points="23.45602 118.86327 23.45602 5.30146 126.08903 5.30146 126.08903 118.86327 74.77253 144.39985 23.45602 118.86327"/>
      <path class="cls-3" d="m123.53597,7.85452v109.42754l-48.76348,24.2661-48.76341-24.2661V7.85452h97.52689m5.10612-5.10612H20.90296v117.69613l53.8695,26.80707h.00012l53.8695-26.80707V2.7484h0Z"/>
    </g>
    <g>
      <polygon class="cls-1" points="73.21286 109.37423 75.06776 115.08304 81.07037 115.08304 76.21416 118.61128 78.06907 124.3201 73.21286 120.79186 68.35665 124.3201 70.21156 118.61128 65.35535 115.08304 71.35795 115.08304 73.21286 109.37423"/>
      <polygon class="cls-1" points="107.93447 77.71628 109.78938 83.4251 115.79198 83.4251 110.93578 86.95334 112.79068 92.66216 107.93447 89.13391 103.07826 92.66216 104.93317 86.95334 100.07696 83.4251 106.07957 83.4251 107.93447 77.71628"/>
      <polygon class="cls-1" points="105.38141 41.97344 107.23632 47.68226 113.23892 47.68226 108.38272 51.2105 110.23762 56.91932 105.38141 53.39107 100.5252 56.91932 102.38011 51.2105 97.5239 47.68226 103.52651 47.68226 105.38141 41.97344"/>
      <polygon class="cls-1" points="81.89326 16.95346 83.74817 22.66227 89.75077 22.66227 84.89456 26.19051 86.74947 31.89933 81.89326 28.37109 77.03705 31.89933 78.89196 26.19051 74.03575 22.66227 80.03836 22.66227 81.89326 16.95346"/>
      <polygon class="cls-1" points="41.55491 43.50528 43.40982 49.21409 49.41243 49.21409 44.55622 52.74234 46.41112 58.45115 41.55491 54.92291 36.69871 58.45115 38.55361 52.74234 33.6974 49.21409 39.70001 49.21409 41.55491 43.50528"/>
    </g>
  </g>
  <g id="_Слой_10" data-name="Слой 10">
    <g>
      <g>
        <rect class="cls-2" x="52.18085" y="50.29364" width="45.18335" height="45.18335" transform="translate(-29.63733 74.21977) rotate(-45)"/>
        <path class="cls-1" d="m74.77246,106.24877l-33.36328-33.36328,33.36328-33.36328,33.36377,33.36328-33.36377,33.36328Zm-30.53516-33.36328l30.53516,30.53516,30.53564-30.53516-30.53564-30.53516-30.53516,30.53516Z"/>
      </g>
      <path class="cls-1" d="m92.04477,68.30627c-.50612-6.5364-8.04613-11.72015-17.27041-11.72015-9.21555,0-16.75556,5.17501-17.27041,11.70273-.02621.23559-.03494.47997-.03494.72429,0,.44508.02621.89016.10477,1.3265l.02615.05236,17.17443,30.67489,17.17443-30.73599.03489-.06109c.06983-.41887.09604-.82906.09604-1.25667,0-.23559-.00874-.47123-.03494-.70687Zm-32.48337,1.89784c-.48912-.87361-.09702-2.00626.8499-2.33148.84748-.29107,1.83374-.45646,2.88728-.45646,1.57161,0,2.99274.37424,4.02705.97951.57639.33729.96812.91632,1.09119,1.5727l4.5246,24.13328-13.38002-23.89755Zm15.20608,24.16483l-4.61905-24.63702c-.10715-.57151.16649-1.14233.67363-1.42678,1.02972-.57757,2.42122-.93265,3.95229-.93265,1.5318,0,2.92358.3556,3.95336.93374.48204.27063.71292.84069.6122,1.38425l-4.57244,24.67846Zm1.81925-.23649l4.47736-24.16517c.1196-.64552.4998-1.21537,1.0596-1.55834,1.04238-.63865,2.5054-1.03644,4.1265-1.03644,1.05276,0,2.03556.16517,2.88178.45429.94806.32391,1.34204,1.45677.85328,2.33133l-13.39852,23.97434Z"/>
    </g>
  </g>
</svg>