<svg xmlns="http://www.w3.org/2000/svg" width="150" height="150" viewBox="0 0 150 150">
  <defs>
    <style>
      .cls-1 {
        fill: #312d2d;
      }

      .cls-1, .cls-2 {
        fill-rule: evenodd;
      }

      .cls-2 {
        fill: #ce923d;
      }

      .cls-3 {
        fill: #10257a;
      }

      .cls-4 {
        fill: #3c56b8;
      }

      .cls-5 {
        fill: #fafafa;
      }
    </style>
  </defs>
  <g id="Layer_2" data-name="Layer 2">
    <g>
      <path id="Shape_247_copy_6" data-name="Shape 247 copy 6" class="cls-1" d="M138.52174,132.07723H11.47826V1.42406H138.52174V132.07723Z"/>
      <path id="Shape_247_copy_5" data-name="Shape 247 copy 5" class="cls-2" d="M107.78723,64.79584c-1.89306-.48694-5.26371-4.36129-9.92579-4.36129S91.99523,62.841,91.99523,62.841c-.52928-1.8022-.61749-4.34011-3.0416-5.84768l-.11733-8.89193c.90243-4.51213,5.86533-7.821,5.86533-7.821-7.67459-7.21941-9.475-23.763-9.475-23.763h-.15s-1.80485,16.54358-9.475,23.7621c0,0,4.9629,3.3089,5.86533,7.821l-.10674,8.12359c-3.85317,1.5605-4.55535,6.46606-4.55535,6.46606-2.70728-.75157-13.08473-5.41455-13.53638-16.99523S73.94761,22.37921,73.94761,22.37921c-11.27987,0-28.12514,4.05782-38.20179,16.69442s-9.4759,27.97783-9.4759,27.97783v.15085s-.60162,15.33858,9.475,27.9743S62.66685,111.871,73.94673,111.871c0,0-11.12991-11.73241-10.67826-23.31221s10.8291-16.24365,13.53638-16.99523c0,0,.66866,4.65768,4.27042,6.339l-.51076,38.77694a10.769,10.769,0,0,0,3.91051.90242h1.35319a10.769,10.769,0,0,0,3.91051-.90242l-.52045-39.59292c2.16829-1.52256,2.26708-3.93874,2.777-5.67389,0,0,1.20323,2.40646,5.86621,2.40646s8.03273-3.87434,9.92579-4.36128c5.26459-1.35408,15.04043-2.10566,15.04043-2.10566v-.45166S113.05182,66.149,107.78723,64.79584Z"/>
    </g>
    <g>
      <path class="cls-3" d="M116.0913,142.29517c1.42044,6.45057-8.28365,6.64228-10.24557,4.08756s.872-7.91964.872-7.91964l1.52594-2.55473S114.34738,134.37553,116.0913,142.29517Z"/>
      <path class="cls-3" d="M33.9087,142.29517c-1.42044,6.45057,8.28365,6.64228,10.24557,4.08756s-.872-7.91964-.872-7.91964l-1.52594-2.55473S35.65262,134.37553,33.9087,142.29517Z"/>
      <path class="cls-4" d="M75,147.00462a24.22862,24.22862,0,0,1-10.25532-2.29873c-7.91244-3.68814-12.5473-6.02728-20.37241-7.52017-5.85295-1.11663-10.46356,5.10945-10.46356,5.10945-1.09-4.08756-6.32174-12.0072-6.32174-12.0072,6.53973-15.5838,22.3598-9.27377,26.81289-6.3868,10.24558,6.64228,19.83718,5.85322,19.83718,5.85322H75.763s9.5916.78906,19.83718-5.85322c4.45309-2.887,20.27316-9.197,26.81289,6.3868,0,0-5.23178,7.91964-6.32174,12.0072,0,0-4.61061-6.22608-10.46356-5.10945-7.82511,1.49289-12.46,3.832-20.37241,7.52017A24.22862,24.22862,0,0,1,75,147.00462Z"/>
    </g>
    <g>
      <path class="cls-5" d="M69.24325,143.47363v-8.87011l-1.50977.46289-.60449-2.01563,3.03027-.92871h1.69239v11.35156Z"/>
      <path class="cls-5" d="M75.68758,143.47363l3.709-9.40136H74.98446v-1.9502h7.88672l-4.46973,11.35156Z"/>
    </g>
  </g>
</svg>
