<svg xmlns="http://www.w3.org/2000/svg" width="150" height="150" viewBox="0 0 150 150">
  <defs>
    <style>
      .cls-1 {
        fill: #ed1c24;
      }

      .cls-2 {
        fill: #fbc83b;
      }
    </style>
  </defs>
  <g id="Layer_5" data-name="Layer 5">
    <g>
      <path class="cls-1" d="M74.13424,145.61262a6.91177,6.91177,0,0,1-1.98775-.29664c-4.42874-1.32829-6.17-6.06416-7.70673-10.242a22.57883,22.57883,0,0,0-2.023-4.5743c-2.3638-3.28241-7.023-7.43215-9.40336-9.36642-2.06329-1.67676-3.58126-4.98729-5.50063-9.48165-.55691-1.304-1.13311-2.65217-1.45456-3.18812-.33084-.55249-1.54389-2.02028-2.61413-3.31494-3.40316-4.11886-6.07794-7.48342-6.97394-10.17088-1.18-3.54046-.27735-8.62039.44772-12.7023.17865-1.00408.34683-1.95247.43836-2.65218.33028-2.53527-1.21306-10.26462-4.38408-16.60612-2.13442-4.26829-7.27666-16.47434-5.47031-21.63477.7361-2.103,3.2427-5.45929,7.28382-10.73661,1.9293-2.51874,3.92422-5.124,4.81306-6.56592A18.86171,18.86171,0,0,0,42.15379,16.298a13.66535,13.66535,0,0,1,1.56208-5.31593c.53264-.87119,1.8681-2.33181,4.83512-2.33181,3.632,0,8.434,2.17412,12.23307,5.53923.97265.86127,1.80138,1.62494,2.5248,2.29212A18.14793,18.14793,0,0,0,66.3641,19.0114c-.00331-.005.10311-.01213.33248-.081,2.5237-.75761,2.95378-.976,3.97385-2.64611,1.42478-2.33181,6.53835-10.03579,12.51483-11.27255l1.67842-.34738L86.13794,5.8112a14.933,14.933,0,0,1,3.3414,4.84338l.80723,1.84549-1.23621,1.59131a41.97816,41.97816,0,0,0-4.81085,7.522q-.08684.22827-.15935.43835l.19078-.21559.1599-.14116c2.41563-2.12835,6.19208-5.72615,7.02523-7.06,1.83281-2.93117,6.38285-6.09393,10.53921-6.09393A7.894,7.894,0,0,1,103.537,8.69c4.796.95886,6.00956,6.6591,6.81293,10.43059.08382.39314.16432.77084.24482,1.12538.19409.8541.37164,1.8113.55966,2.82475.51224,2.7608,1.14964,6.19649,2.29377,8.133a52.24966,52.24966,0,0,0,3.38,4.65812,49.01816,49.01816,0,0,1,4.66088,6.69274c2.49612,4.78493,1.3939,12.26615-.98478,17.18287-2.41342,4.98785-5.33688,11.358-6.52842,16.39108-1.02172,4.3135-.88333,9.84171-.81716,12.49829.01378.54643.02426.98919.02426,1.30293,0,.209.01213.43946.02426.69034a14.25118,14.25118,0,0,1-3.638,10.94062c-.4764.5558-.93681,1.08513-1.38067,1.59516-2.76135,3.17434-4.58589,5.27126-5.64841,8.35186a22.45052,22.45052,0,0,1-6.9574,10.50944c-.42567.34572-.885.69144-1.37461,1.05866a22.92442,22.92442,0,0,0-7.23089,8.12634c-.563,1.00849-1.12648,2.07818-1.6707,3.11258C82.24625,140.12467,79.35643,145.61207,74.13424,145.61262Z"/>
      <path class="cls-2" d="M83.87181,8.32952a11.57839,11.57839,0,0,1,2.504,3.68237s-4.12417,5.30248-5.30255,8.39562c-1.17831,3.09315-1.031,5.15527-.14729,6.039a1.59037,1.59037,0,0,0,1.14847.38652,6.80853,6.80853,0,0,0,4.596-2.59593s6.18629-5.44977,7.65918-7.80646c1.3316-2.13056,4.83022-4.50194,7.666-4.50194a4.47093,4.47093,0,0,1,.877.08319c2.94585.58916,3.6823,5.74435,4.41874,8.98478s1.32561,8.69027,3.24043,11.93071c1.91477,3.24043,6.18629,7.80647,7.95376,11.19419,1.76754,3.38772,1.17839,9.574-1.031,14.14-2.20941,4.56611-5.44984,11.48884-6.77545,17.0859-1.3256,5.59713-.88373,12.66715-.88373,14.582,0,1.91476.73644,5.30249-2.79857,9.42665-3.535,4.12424-6.18628,6.77545-7.65918,11.047a19.12813,19.12813,0,0,1-5.8917,8.98479c-2.3567,1.91483-5.89171,3.82959-9.42672,10.16316-3.25753,5.83643-6.01481,12.6735-9.88534,12.6735a3.513,3.513,0,0,1-1.01428-.15363c-4.41874-1.32561-5.30255-9.86859-7.95375-13.55089-2.65128-3.6823-7.65925-8.10105-10.01588-10.01588-2.3567-1.91483-4.86068-9.574-6.18629-11.78342-1.32567-2.20933-8.10111-9.27936-9.27943-12.81437s.58916-10.45774,1.031-13.84546-1.32561-11.78342-4.71333-18.55886-6.33357-16.05488-5.30255-19.00066c1.03109-2.94586,9.38357-12.75117,11.78342-16.644,3.63805-5.90135,2.504-10.45774,4.12417-13.109a2.19565,2.19565,0,0,1,1.94419-.71011c2.35428,0,6.33185,1.45,9.98651,4.687,4.29965,3.8083,5.73084,5.67012,7.79648,5.67012a4.63614,4.63614,0,0,0,1.33559-.22028c2.94586-.8838,4.27153-1.473,5.89171-4.12423,1.62018-2.65121,6.039-8.8375,10.31046-9.7213M85.85618,1,82.499,1.69461c-7.1111,1.47131-12.66233,9.45773-14.719,12.82313a5.09283,5.09283,0,0,1-.41733.608c-.06968.03418-.1801.08078-.35323.14405-.42712-.37853-.93192-.84383-1.4039-1.27881-.73666-.679-1.57166-1.44863-2.5756-2.33781-4.45045-3.94173-9.99837-6.39044-14.47887-6.39044A8.72909,8.72909,0,0,0,40.8255,9.21532a16.74988,16.74988,0,0,0-2.02083,6.57378,15.58154,15.58154,0,0,1-2.08955,6.5127c-.799,1.29611-2.74081,3.8318-4.61862,6.284-4.74469,6.19587-6.91571,9.173-7.79221,11.67721-.679,1.93985-1.192,5.07938.88477,12.19971a75.6101,75.6101,0,0,0,4.75261,12.06938c3.07192,6.14377,4.23424,13.05912,4.05428,14.65794-.08043.61659-.24226,1.52707-.41347,2.491-.79241,4.46-1.7785,10.01071-.32614,14.3679C34.33968,99.2988,37.08,102.765,40.83308,107.307c.85238,1.0315,2.01553,2.43913,2.32893,2.91428.23123.41017.81074,1.76713,1.23524,2.76114,2.11181,4.94519,3.81277,8.613,6.48,10.78024a56.82513,56.82513,0,0,1,8.78994,8.71633,23.8241,23.8241,0,0,1,1.59295,3.76432c1.63,4.43218,3.8624,10.50233,9.91243,12.31729A10.30088,10.30088,0,0,0,74.13376,149c7.26735,0,10.93476-6.96367,14.17044-13.10764.53519-1.01614,1.08851-2.06688,1.63121-3.03918a19.76176,19.76176,0,0,1,6.30456-7.067c.4835-.36267.98354-.73768,1.47841-1.13978a26.075,26.075,0,0,0,8.0244-12.03451c.81144-2.35318,2.19569-4.00734,5.00046-7.2313.44938-.51658.91558-1.05246,1.39784-1.61508a17.54,17.54,0,0,0,4.45-13.30394c-.00958-.20318-.02033-.43353-.02033-.53209,0-.334-.01068-.80564-.02522-1.38784-.06293-2.51439-.19389-7.74637.72659-11.63261,1.25943-5.31765,4.77859-12.59058,6.28133-15.69627,2.66313-5.50373,4.09294-14.1805.93908-20.22529a51.26288,51.26288,0,0,0-4.9906-7.206,50.80986,50.80986,0,0,1-3.137-4.30089c-.83963-1.42086-1.46566-4.796-1.88-7.02936-.19422-1.04722-.37763-2.03634-.58667-2.956-.07727-.3398-.15418-.7024-.23441-1.07893-.86726-4.0722-2.48159-11.65212-9.46263-13.04823a11.27237,11.27237,0,0,0-2.20575-.21477,16.22949,16.22949,0,0,0-9.64321,3.63592,18.18,18.18,0,0,0-3.94786-5.49568L85.85618,1Z"/>
      <polygon class="cls-2" points="75 35.579 90.058 69 74.151 69 87.554 101 74 101 74 127.489 58.538 91 70.321 91 55.592 58 75 58 75 35.579"/>
    </g>
  </g>
</svg>
