<svg id="allies_tunisia_tank_1_icon" xmlns="http://www.w3.org/2000/svg" width="150" height="150" viewBox="0 0 150 150">
  <defs>
    <style>
      .cls-1 {
        fill: #ce261e;
      }

      .cls-1, .cls-2, .cls-3, .cls-4 {
        fill-rule: evenodd;
      }

      .cls-2 {
        fill: #ffc451;
      }

      .cls-3 {
        fill: #261a1a;
      }

      .cls-4 {
        fill: #f0f0f0;
      }
    </style>
  </defs>
  <path id="Shape_246_copy_7" data-name="Shape 246 copy 7" class="cls-1" d="M78.13,1.04h63.759V59.456s2.97,34.058-28.315,63.957c0,0-19.947,18.578-37.88,25.027a2.029,2.029,0,0,1-.694.12h0a2.029,2.029,0,0,1-.694-0.12c-17.933-6.449-37.879-25.027-37.879-25.027C5.141,93.514,8.111,59.456,8.111,59.456V1.04H78.13Z"/>
  <path id="Shape_246_copy_8" data-name="Shape 246 copy 8" class="cls-2" d="M8.111,1.04H75.137V148.548c-0.046,0-.091.012-0.137,0.012a2.029,2.029,0,0,1-.694-0.12c-17.933-6.449-37.879-25.027-37.879-25.027C5.141,93.514,8.111,59.457,8.111,59.457V1.04Z"/>
  <path id="Shape_246_copy_9" data-name="Shape 246 copy 9" class="cls-3" d="M46.679,21.028h56.4l-28.2,49.22Zm56.4,98.857h-56.4l28.2-49.219Z"/>
  <path id="Shape_246_copy_10" data-name="Shape 246 copy 10" class="cls-4" d="M74.814,25.943a1.271,1.271,0,0,0-.2.544,3.874,3.874,0,0,1-.248,1.683,0.713,0.713,0,0,1-.792,0,17.684,17.684,0,0,1,0,2.327c-0.1.544-.446,0.5-0.693,0.3s-1.237-1.188-1.237-1.188-0.1,5.049-.149,5.3-0.346.643-.594,0.446-1.881-2.129-1.881-2.129a10.457,10.457,0,0,1-.148,1.535c-0.1.247-.5,0-0.743-0.347S67.339,33.2,67.339,33.2a1.75,1.75,0,0,1-.495.644,7.069,7.069,0,0,1-1.832-.3,11.818,11.818,0,0,1,.569,1.485,0.394,0.394,0,0,1-.346.446,10.567,10.567,0,0,1,1.015,1.139,0.7,0.7,0,0,1,.074.718,5.1,5.1,0,0,1-1.064.52s0.866,0.842.99,0.965a0.9,0.9,0,0,1,.248.668,0.659,0.659,0,0,1-.446.322s2,0.965,2.228,1.163a1.152,1.152,0,0,1,.421.817,8.923,8.923,0,0,1-1.708,1.757,9.53,9.53,0,0,1,1.757.2,0.674,0.674,0,0,1,.124.619,4.056,4.056,0,0,1-.3.545,12.922,12.922,0,0,0,1.336-.322,2.249,2.249,0,0,1,1.46,0,2.521,2.521,0,0,1,.074,1.262,3.925,3.925,0,0,0,2.945-.99L74.368,48.1h1.138l-0.025-3.242a3.925,3.925,0,0,0,2.945.99,2.524,2.524,0,0,1,.074-1.262,2.249,2.249,0,0,1,1.46,0A12.928,12.928,0,0,0,81.3,44.9a4.044,4.044,0,0,1-.3-0.545,0.674,0.674,0,0,1,.124-0.619,9.531,9.531,0,0,1,1.757-.2,8.923,8.923,0,0,1-1.708-1.757,1.152,1.152,0,0,1,.421-0.817c0.223-.2,2.227-1.163,2.227-1.163a0.659,0.659,0,0,1-.445-0.322,0.9,0.9,0,0,1,.248-0.668c0.124-.124.99-0.965,0.99-0.965a5.1,5.1,0,0,1-1.064-.52,0.7,0.7,0,0,1,.074-0.718,10.557,10.557,0,0,1,1.015-1.139,0.4,0.4,0,0,1-.347-0.446,11.818,11.818,0,0,1,.569-1.485,7.069,7.069,0,0,1-1.832.3,1.749,1.749,0,0,1-.5-0.644s-0.544.866-.792,1.213S81.1,35,81,34.755a10.459,10.459,0,0,1-.149-1.535s-1.634,1.93-1.881,2.129-0.544-.2-0.594-0.446-0.148-5.3-.148-5.3-0.99.99-1.238,1.188-0.594.247-.693-0.3a17.7,17.7,0,0,1,0-2.327,0.713,0.713,0,0,1-.792,0,3.873,3.873,0,0,1-.247-1.683,1.27,1.27,0,0,0-.2-0.544H74.814Z"/>
</svg>
