<?xml version="1.0" encoding="UTF-8" standalone="no"?>
<!DOCTYPE svg PUBLIC "-//W3C//DTD SVG 1.1//EN" "http://www.w3.org/Graphics/SVG/1.1/DTD/svg11.dtd">
<svg width="100%" height="100%" viewBox="0 0 150 150" version="1.1" xmlns="http://www.w3.org/2000/svg" xmlns:xlink="http://www.w3.org/1999/xlink" xml:space="preserve" xmlns:serif="http://www.serif.com/" style="fill-rule:evenodd;clip-rule:evenodd;stroke-linejoin:round;stroke-miterlimit:2;">
    <g transform="matrix(1,0,0,1,-381,-21)">
        <g transform="matrix(1.93109,0,0,1.67541,953.959,28.482)">
            <g id="allies_tunisia_prem_radioman_1_icon" transform="matrix(0.507688,0,0,0.585166,-308.887,-46.5977)">
                <rect x="24" y="72" width="153" height="153" style="fill:none;"/>
                <g transform="matrix(1.02,0,0,1.02,-364.62,50.58)">
                    <path d="M418.596,107.597C440.489,105.019 472.033,104.975 494.249,107.465L510.162,144.914C498.762,158.953 479.198,168.223 456.995,168.223C434.325,168.223 414.405,158.558 403.119,144.021L418.596,107.597ZM388.05,79.033C388.05,94.404 525.985,94.404 525.985,79.033C525.985,48.291 495.082,23.333 457.018,23.333C418.954,23.333 388.05,48.291 388.05,79.033Z" style="fill:rgb(40,39,104);"/>
                </g>
                <g transform="matrix(1.02,0,0,1.02,-364.62,50.58)">
                    <path d="M457.018,102.153C482.287,102.153 502.803,113.32 502.803,127.074C502.803,140.828 482.287,151.995 457.018,151.995C431.748,151.995 411.233,140.828 411.233,127.074C411.233,113.32 431.748,102.153 457.018,102.153ZM407.071,67.121C407.071,70.174 407.153,83.441 407.071,85.5C406.878,90.344 506.784,90.267 506.965,85.5C507.044,83.441 506.965,70.174 506.965,67.121C506.965,50.63 484.585,37.242 457.018,37.242C429.451,37.242 407.071,50.63 407.071,67.121Z" style="fill:rgb(155,78,43);"/>
                </g>
                <g transform="matrix(1.02,0,0,1.02,-364.62,50.58)">
                    <path d="M451.402,106.388L411.535,75.241L410.34,76.771L408.467,75.241C406.076,80.261 407,86.511 409.235,93.247C396.212,93.391 387.981,86.324 384.573,73.979C392.055,74.219 398.12,73.245 401.978,70.377L400.307,68.902L401.765,67.036C401.61,66.556 401.099,65.112 401.202,64.725L397.942,64.932L395.543,58.499L402.43,59.187L403.018,62.401C403.369,62.207 404.989,62.231 405.493,62.265L408.467,58.499L413.089,58.637L411.678,56.23L418.643,55.788L419.899,62.653L416.991,62.015L418.158,65.807L415.817,69.76L457.05,101.975L498.284,69.76L495.943,65.807L497.109,62.015L494.202,62.653L495.457,55.788L502.422,56.23L501.012,58.637L505.634,58.499L508.608,62.265C509.112,62.231 510.732,62.207 511.083,62.401L511.671,59.187L518.558,58.499L516.159,64.932L512.898,64.725C513.002,65.112 512.491,66.556 512.336,67.036L513.793,68.902L512.123,70.377C515.981,73.245 522.046,74.219 529.528,73.979C526.119,86.324 517.889,93.391 504.866,93.247C507.101,86.511 508.025,80.261 505.634,75.241L503.761,76.771L502.565,75.241L462.699,106.388L500.517,135.935C501.661,136.829 501.864,138.483 500.971,139.627L499.927,140.963C499.034,142.106 497.379,142.31 496.236,141.416L457.05,110.801L417.865,141.416C416.721,142.31 415.067,142.106 414.173,140.963L413.13,139.627C412.236,138.483 412.44,136.829 413.583,135.935L451.402,106.388Z" style="fill:rgb(255,209,42);"/>
                </g>
                <g transform="matrix(1.1823,0,0,1.1823,-319.952,-808.799)">
                    <path d="M329.76,785.812C330.693,784.91 331.671,784.057 332.689,783.253C330.344,781.855 329,780.231 329,778.5C329,773.257 341.322,769 356.5,769C371.678,769 384,773.257 384,778.5C384,780.231 382.656,781.855 380.311,783.253C381.402,784.114 382.445,785.032 383.436,786.003L385.428,784.572L386.59,786.059L384.759,787.364C385.147,787.783 385.525,788.21 385.894,788.646L387.428,787.572L388.59,789.059L387.078,790.115C388.567,792.059 389.876,794.149 390.978,796.361L392.736,795.264L393.898,796.751L391.798,798.115C392.034,798.656 392.259,799.204 392.471,799.757L394.736,798.264L395.771,799.588L393.133,801.634C394.345,805.372 395,809.36 395,813.5C395,820.512 393.121,827.089 389.841,832.752L392.377,834.591C392.035,835.121 391.682,835.644 391.318,836.158L388.849,834.371C388.539,834.851 388.219,835.323 387.888,835.788L390.301,837.532C389.917,838.03 389.522,838.52 389.116,839L386.756,837.299C385.235,839.23 383.532,841.012 381.673,842.621L383.946,844.397C383.451,844.811 382.947,845.215 382.432,845.608L380.18,843.849C379.715,844.212 379.242,844.566 378.76,844.908L381,846.657C380.458,847.037 379.908,847.405 379.348,847.761L377.113,846.015C371.15,849.805 364.079,852 356.5,852C349.023,852 342.04,849.864 336.131,846.169L334,847.834C333.437,847.482 332.882,847.116 332.337,846.739L334.472,845.071C333.987,844.732 333.51,844.382 333.041,844.021L330.895,845.698C330.378,845.308 329.87,844.907 329.371,844.494L331.537,842.801C329.666,841.206 327.95,839.434 326.413,837.512L324,839.397C323.591,838.919 323.193,838.432 322.805,837.936L325.271,836.009C324.937,835.547 324.613,835.077 324.3,834.6L321.78,836.568C321.412,836.057 321.056,835.536 320.711,835.009L323.297,832.989C319.931,827.272 318,820.61 318,813.5C318,809.258 318.687,805.176 319.957,801.359L317.784,799.757C318.014,799.144 318.259,798.537 318.517,797.936L320.632,799.493C320.847,798.942 321.075,798.397 321.315,797.858L319.246,796.337C319.524,795.759 319.815,795.188 320.119,794.625L322.146,796.113C323.264,793.912 324.586,791.832 326.089,789.9L324.359,788.549L325.521,787.062L327.283,788.439C327.655,788.005 328.036,787.58 328.427,787.164L326.359,785.549L327.521,784.062L329.76,785.812Z" style="fill:rgb(35,35,35);"/>
                </g>
                <g transform="matrix(1.02,0,0,1.02,-364.62,50.58)">
                    <path d="M445.625,89.092L445.651,89.005C444.733,85.892 444.229,82.508 444.229,78.97C444.229,67.237 449.77,57.191 457.597,53.106C465.425,57.191 470.966,67.237 470.966,78.97C470.966,82.508 470.462,85.892 469.544,89.005C469.636,89.318 469.725,89.634 469.808,89.953C470.07,90.189 470.453,90.341 471.01,90.335C473.382,90.309 473.436,87.474 474.984,85.925C476.143,84.766 478.62,83.2 481.279,83.026C481.776,82.923 482.372,83.101 483.098,82.448C485.505,78.491 476.718,68.76 476.718,68.76C476.718,68.76 484.651,71.218 488.894,75.493C491.474,78.003 495.174,84.099 495.109,91.977C495.044,99.856 491.555,103.891 492.371,109.108C492.819,113.375 498.247,113.483 498.247,113.483C498.247,113.483 497.154,114.839 494.591,115.867C492.028,116.894 488.916,115.786 485.416,111.426C481.917,107.066 478.514,106.633 474.698,108.556C473.361,109.229 472.428,110.919 471.778,112.832C471.596,113.876 471.64,114.822 471.739,115.84C471.79,116.795 472.226,117.177 472.451,117.557C473.961,119.236 476.162,119.386 477.096,119.075C478.255,118.688 480.341,115.945 478.462,113.744C483.486,114.882 486.318,119.19 484.775,124.88C482.831,130.294 476.137,131.931 469.348,130.324C466.677,135.711 462.548,139.999 457.597,142.291C452.588,139.972 448.41,135.731 445.733,130.351C438.984,131.913 432.353,130.264 430.42,124.88C428.876,119.19 431.709,114.882 436.733,113.744C434.854,115.945 436.94,118.688 438.099,119.075C439.04,119.388 441.268,119.234 442.779,117.518C442.879,117.005 442.989,116.488 442.989,116.062C442.989,115.87 442.985,115.683 442.977,115.5C442.373,112.663 441.281,109.534 439.338,108.556C435.521,106.633 432.119,107.066 428.619,111.426C425.12,115.786 422.008,116.894 419.444,115.867C416.881,114.839 415.789,113.483 415.789,113.483C415.789,113.483 421.216,113.375 421.665,109.108C422.481,103.891 418.992,99.856 418.927,91.977C418.861,84.099 422.562,78.003 425.142,75.493C429.385,71.218 437.318,68.76 437.318,68.76C437.318,68.76 428.531,78.491 430.938,82.448C431.664,83.101 432.259,82.923 432.756,83.026C435.416,83.2 437.892,84.766 439.052,85.925C440.6,87.474 440.654,90.309 443.025,90.335C444.486,90.351 445.252,89.64 445.625,89.092Z" style="fill:rgb(255,209,42);"/>
                </g>
                <g transform="matrix(1.1823,0,0,1.1823,-319.952,-808.799)">
                    <path d="M366.752,806.077C370.367,806.905 377.368,807.811 380.496,803.461C384.301,799.029 378.399,789.543 378.399,789.543C378.399,789.543 390.416,795.996 385.496,807.461C383.314,813.461 374.23,814.987 370.807,815.352C370.533,816.71 370.783,817.088 370.217,818.342C369.361,820.236 368.269,822.135 366.012,824.281C365.51,825.78 365.225,827.85 365.205,828.922C365.204,829.955 364.864,830.958 364.239,831.779C364.195,831.928 364.106,832.044 364.02,832.157C363.469,832.88 363.137,833.744 363.06,834.648C362.823,837.304 362.023,843.098 359.5,845C358.946,845.316 358.803,835.931 358.772,833.14C358.767,832.543 358.413,832.004 357.868,831.761C356.946,831.457 356.155,832.046 355.123,832.426C354.557,832.63 354.171,833.156 354.146,833.756C354.084,836.329 353.81,843.237 353.612,843.424C353.56,844.864 352.925,844.725 351.999,843.704C349.032,841.282 344.761,834.619 346.734,827.188C346.84,825.793 345.754,823.506 344.928,822.378C344.396,821.648 343.845,820.874 343.245,819.794C342.705,818.032 342.372,816.888 342.188,815.834C338.455,815.378 330.083,813.728 328,808C322.903,796.535 334.628,789.916 334.628,789.916C334.628,789.916 328.453,798.54 333,804C335.725,807.79 341.389,807.591 345.193,806.929C347.852,804.534 351.93,803 356.5,803C360.501,803 364.126,804.176 366.752,806.077ZM350.784,820.259C350.616,819.854 350.293,819.791 349.831,819.354C349.442,818.986 349.073,818.641 349.032,818.614C348.356,818.179 347.596,818.136 346.863,818.46C346.617,818.569 346.399,818.719 346.206,818.905C344.738,820.318 346.664,821.433 347.29,822.599C347.673,823.311 347.677,824.423 348.47,824.839C349.151,825.197 349.966,824.938 350.317,824.259C350.617,823.681 350.871,822.884 350.963,822.096C351.04,821.433 350.972,820.716 350.784,820.259ZM367.116,814.9C366.802,814.695 365.543,814.833 364.936,815.112C364.328,815.39 363.742,816.1 363.469,816.571C363.123,817.171 362.811,817.932 362.874,818.638C362.913,819.077 363.139,819.47 363.206,819.905C363.344,820.791 363.793,822.493 364.833,822.569C365.889,822.646 366.223,820.928 366.72,820.193C367.202,819.477 367.821,818.759 368.042,817.905C368.307,816.882 368.068,815.523 367.116,814.9Z" style="fill:rgb(190,20,29);"/>
                </g>
                <g transform="matrix(1.02,0,0,1.02,-364.62,50.58)">
                    <path d="M513.762,67.801C514.023,68.123 513.973,68.595 513.651,68.855L504.078,76.608C503.756,76.868 503.284,76.819 503.023,76.497L497.331,69.468C497.07,69.146 497.12,68.673 497.442,68.413L507.015,60.661C507.337,60.4 507.809,60.45 508.07,60.771L513.762,67.801ZM400.339,67.801C400.078,68.123 400.128,68.595 400.45,68.855L410.023,76.608C410.345,76.868 410.817,76.819 411.078,76.497L416.77,69.468C417.031,69.146 416.981,68.673 416.659,68.413L407.086,60.661C406.764,60.4 406.292,60.45 406.031,60.771L400.339,67.801ZM512.124,68.162L507.376,62.298C507.376,62.298 498.969,69.107 498.969,69.107C498.969,69.107 503.717,74.97 503.717,74.97L512.124,68.162ZM401.977,68.162L406.725,62.298C406.725,62.298 415.132,69.107 415.132,69.107C415.132,69.107 410.384,74.97 410.384,74.97L401.977,68.162ZM501.722,58.616L496.972,62.462L496.181,65.032L504.196,58.542L501.722,58.616ZM412.379,58.616L417.129,62.462L417.92,65.032L409.905,58.542L412.379,58.616Z" style="fill:rgb(170,137,59);"/>
                </g>
                <g transform="matrix(1.02,0,0,1.02,-364.62,50.58)">
                    <path d="M411.518,88.826C405.428,87.997 400.179,86.969 396.176,85.744C392.861,84.73 390.376,83.565 388.91,82.29C387.75,81.282 387.181,80.179 387.181,79.033C387.181,47.867 418.429,22.463 457.018,22.463C495.607,22.463 526.855,47.867 526.855,79.033C526.855,80.179 526.285,81.282 525.126,82.29C523.66,83.565 521.174,84.73 517.86,85.744C513.857,86.969 508.607,87.997 502.518,88.826C502.874,90.224 503.166,91.647 503.393,93.092C503.768,95.478 503.962,97.924 503.962,100.414C503.962,104.617 503.408,108.691 502.371,112.567C501.888,114.37 501.301,116.13 500.616,117.84C502.597,120.714 503.672,123.83 503.672,127.074C503.672,127.186 503.671,127.298 503.668,127.41L510.962,144.574C511.088,144.87 511.04,145.212 510.837,145.462C499.291,159.681 479.483,169.092 456.995,169.092C434.031,169.092 413.864,159.279 402.432,144.554C402.239,144.305 402.195,143.971 402.319,143.681L410.696,123.966C411.155,121.837 412.081,119.783 413.42,117.84C412.755,116.181 412.183,114.475 411.709,112.729C410.643,108.804 410.074,104.675 410.074,100.414C410.074,97.863 410.278,95.359 410.67,92.918C410.893,91.533 411.176,90.168 411.518,88.826ZM410.48,128.92L404.12,143.889C415.313,158.014 434.827,167.353 456.995,167.353C478.698,167.353 497.857,158.401 509.156,144.77L503.203,130.761C502.087,135.102 499.028,139.111 494.482,142.486C486.03,148.761 472.395,152.864 457.018,152.864C441.641,152.864 428.006,148.761 419.553,142.486C414.371,138.639 411.121,133.968 410.48,128.92ZM465.999,164.597L464,164.754L463.043,162.75L459.406,163.037L458.818,165.163L456.869,165.317L459.695,155.938L461.638,155.785L465.999,164.597ZM450.098,164.609L450.871,157.066L448.177,156.79L448.334,155.254L455.549,155.992L455.392,157.528L452.704,157.253L451.932,164.797L450.098,164.609ZM474.892,159.481L476.758,159.66C476.699,160.691 476.409,161.51 475.888,162.117C475.367,162.723 474.627,163.13 473.67,163.335C472.485,163.59 471.424,163.394 470.487,162.749C469.55,162.103 468.931,161.078 468.629,159.674C468.31,158.189 468.446,156.953 469.036,155.967C469.627,154.98 470.547,154.353 471.796,154.084C472.888,153.85 473.844,153.982 474.664,154.48C475.152,154.775 475.574,155.257 475.93,155.928L474.239,156.737C474.034,156.297 473.735,155.979 473.343,155.783C472.95,155.587 472.515,155.541 472.036,155.644C471.375,155.786 470.889,156.139 470.579,156.702C470.269,157.265 470.229,158.078 470.457,159.142C470.699,160.27 471.075,161.029 471.584,161.421C472.092,161.813 472.671,161.939 473.32,161.799C473.799,161.696 474.178,161.456 474.458,161.077C474.738,160.699 474.882,160.167 474.892,159.481ZM439.514,162.956L441.019,155.524L438.365,154.986L438.671,153.473L445.78,154.913L445.474,156.426L442.825,155.89L441.32,163.322L439.514,162.956ZM434.591,161.905L432.712,161.206L432.688,158.985L429.268,157.714L427.84,159.395L426.007,158.713L432.52,151.398L434.347,152.077L434.591,161.905ZM462.332,161.264L460.812,157.986L459.85,161.459L462.332,161.264ZM481.695,161.116L478.323,152.635L480.036,151.954L481.533,155.72L483.496,150.578L485.798,149.663L483.918,154.236L489.343,158.075L487.128,158.956L483.214,155.903L482.389,157.872L483.408,160.435L481.695,161.116ZM432.67,157.338L432.671,153.725L430.335,156.47L432.67,157.338ZM414.241,119.764C412.856,122.064 412.102,124.519 412.102,127.074C412.102,132.326 415.286,137.152 420.59,141.09C428.805,147.189 442.072,151.126 457.018,151.126C471.964,151.126 485.23,147.189 493.446,141.09C498.75,137.152 501.934,132.326 501.934,127.074C501.934,124.519 501.18,122.064 499.795,119.764C499.444,120.538 499.072,121.302 498.681,122.053L499.964,122.984C500.96,123.706 501.219,125.081 500.553,126.116L499.267,128.017C499.058,128.313 498.785,128.552 498.471,128.719C498.403,129.068 498.254,129.399 498.033,129.685L496.595,131.467C495.813,132.393 494.451,132.561 493.468,131.852C493.468,131.852 492.492,131.149 492.492,131.149C491.997,131.72 491.488,132.279 490.966,132.825C490.577,133.232 490.181,133.632 489.778,134.025L490.258,134.4C490.81,134.831 491.137,135.488 491.149,136.187C491.161,136.887 490.857,137.554 490.32,138.004L488.484,139.473C488.18,139.706 487.832,139.853 487.473,139.915C487.304,140.242 487.057,140.528 486.748,140.745L484.744,142.083C483.916,142.609 482.847,142.557 482.074,141.953C482.074,141.953 480.749,140.918 480.749,140.918C477.439,142.863 473.87,144.414 470.107,145.506C465.951,146.712 461.559,147.358 457.018,147.358C452.538,147.358 448.203,146.729 444.098,145.555C440.384,144.492 436.856,142.983 433.579,141.089L432.365,142.038C431.597,142.639 430.535,142.694 429.708,142.177L427.691,140.849C427.379,140.633 427.13,140.348 426.959,140.022C426.598,139.962 426.249,139.817 425.943,139.586L424.094,138.126C423.553,137.679 423.244,137.01 423.254,136.308C423.264,135.605 423.591,134.945 424.145,134.513C424.145,134.513 424.486,134.246 424.486,134.246C424.084,133.86 423.69,133.467 423.302,133.066C422.792,132.54 422.293,132.001 421.808,131.45L420.774,132.258C419.796,133.022 418.391,132.881 417.585,131.938L416.135,130.166C415.912,129.881 415.762,129.551 415.691,129.203C415.377,129.037 415.102,128.8 414.891,128.506L413.593,126.613C412.935,125.604 413.159,124.26 414.107,123.519C414.107,123.519 415.538,122.401 415.538,122.401C415.079,121.538 414.646,120.658 414.241,119.764ZM499.726,87.442L500.032,88.496L500.255,89.335C501.162,92.878 501.644,96.59 501.644,100.414C501.644,105.788 500.692,110.942 498.948,115.713L498.599,116.636L498.394,117.15C498.34,117.283 498.286,117.416 498.231,117.549C497.486,119.337 496.627,121.067 495.664,122.729L498.603,124.861C498.208,125.476 497.798,126.081 497.376,126.677L494.515,124.607C494.155,125.162 493.784,125.709 493.4,126.249L496.198,128.27C495.752,128.847 495.294,129.415 494.824,129.972L492.088,128C490.325,130.238 488.351,132.304 486.197,134.169L488.831,136.227C488.258,136.708 487.673,137.176 487.077,137.631L484.466,135.592C483.927,136.014 483.378,136.423 482.82,136.819L485.416,138.847C484.789,139.288 484.15,139.714 483.501,140.126L480.911,138.103C473.999,142.496 465.803,145.04 457.018,145.04C448.351,145.04 440.257,142.564 433.408,138.282L430.938,140.211C430.285,139.803 429.642,139.38 429.01,138.942L431.485,137.009C430.923,136.616 430.37,136.21 429.826,135.791L427.338,137.735C426.739,137.283 426.151,136.818 425.572,136.34L428.083,134.378C425.914,132.528 423.924,130.475 422.143,128.246L419.346,130.431C418.873,129.877 418.411,129.313 417.962,128.738L420.82,126.505C420.433,125.969 420.057,125.425 419.694,124.872L416.773,127.153C416.347,126.56 415.934,125.957 415.535,125.346L418.532,123.004C417.504,121.258 416.591,119.436 415.805,117.549L415.418,116.588L415.088,115.713C413.343,110.94 412.392,105.787 412.392,100.414C412.392,96.515 412.893,92.733 413.834,89.127L414.065,88.277L414.327,87.384C414.434,87.035 414.545,86.687 414.66,86.342L412.142,84.485C412.409,83.773 412.692,83.07 412.991,82.373L415.442,84.178C415.692,83.539 415.956,82.908 416.234,82.283L413.836,80.52C414.158,79.85 414.496,79.188 414.848,78.536L417.198,80.261C418.493,77.709 420.026,75.299 421.767,73.059L419.763,71.492L421.109,69.769L423.152,71.365C423.583,70.863 424.025,70.37 424.478,69.888L422.081,68.015L423.427,66.292L426.023,68.32C427.105,67.275 428.238,66.286 429.418,65.355C426.699,63.734 425.142,61.852 425.142,59.845C425.142,53.768 439.425,48.833 457.018,48.833C474.611,48.833 488.894,53.768 488.894,59.845C488.894,61.852 487.336,63.734 484.617,65.355C485.882,66.352 487.092,67.416 488.24,68.542L490.549,66.883L491.896,68.606L489.773,70.119C490.223,70.605 490.661,71.1 491.089,71.605L492.867,70.36L494.214,72.084L492.461,73.308C494.188,75.562 495.704,77.984 496.982,80.548L499.02,79.276L500.366,81L497.932,82.581C498.207,83.208 498.467,83.843 498.712,84.485L501.338,82.754L502.538,84.289L499.48,86.66C499.565,86.92 499.646,87.18 499.726,87.442ZM502.768,87.044L503.958,86.12C504.445,85.743 504.762,85.187 504.838,84.575C504.914,83.964 504.744,83.347 504.364,82.861L503.165,81.326C503.023,81.145 502.859,80.99 502.68,80.863C502.653,80.397 502.485,79.946 502.193,79.572L500.847,77.849C500.133,76.935 498.857,76.692 497.86,77.27C497.539,76.702 497.206,76.143 496.861,75.592C496.492,75.002 496.111,74.42 495.717,73.848C496.141,73.487 496.423,72.983 496.506,72.428C496.601,71.798 496.432,71.158 496.041,70.656L494.694,68.933C494.552,68.752 494.389,68.597 494.21,68.47C494.182,68.004 494.014,67.553 493.722,67.179L492.376,65.456C491.61,64.475 490.207,64.274 489.196,65L488.437,65.546L488.366,65.482C488.931,64.97 489.41,64.444 489.8,63.91C490.747,62.613 491.212,61.243 491.212,59.845C491.212,58.334 490.668,56.851 489.557,55.461C488.151,53.704 485.72,52.041 482.44,50.676C476.377,48.154 467.239,46.515 457.018,46.515C446.797,46.515 437.659,48.154 431.596,50.676C428.316,52.041 425.884,53.704 424.479,55.461C423.367,56.851 422.824,58.334 422.824,59.845C422.824,61.243 423.289,62.613 424.235,63.91C424.312,64.016 424.393,64.121 424.478,64.225C423.509,63.731 422.295,63.975 421.6,64.864L420.254,66.588C419.953,66.973 419.793,67.425 419.767,67.879C419.588,68.005 419.424,68.16 419.282,68.342L417.936,70.065C417.148,71.074 417.326,72.531 418.335,73.319L418.562,73.497C418.146,74.091 417.742,74.695 417.353,75.308C417.037,75.807 416.73,76.311 416.432,76.822C416.432,76.822 416.22,76.667 416.22,76.667C415.68,76.27 414.994,76.127 414.34,76.274C413.685,76.421 413.127,76.844 412.808,77.434L411.747,79.514C411.582,79.857 411.508,80.224 411.518,80.584C411.236,80.816 411.01,81.114 410.862,81.457L409.971,83.671C409.607,84.641 409.932,85.735 410.766,86.351L411.807,87.118C405.806,86.302 400.634,85.29 396.684,84.081C393.667,83.159 391.385,82.138 390.051,80.978C389.343,80.363 388.92,79.732 388.92,79.033C388.92,48.715 419.478,24.202 457.018,24.202C494.557,24.202 525.116,48.715 525.116,79.033C525.116,79.732 524.693,80.363 523.985,80.978C522.65,82.138 520.369,83.159 517.352,84.081C513.52,85.253 508.539,86.241 502.768,87.044ZM409.014,58.521C410.689,55.555 412.965,52.781 415.747,50.269C425.059,41.861 440.078,36.373 457.018,36.373C473.958,36.373 488.977,41.861 498.288,50.269C501.102,52.81 503.398,55.617 505.078,58.622C505.098,58.657 503.09,58.661 503.066,58.622C501.529,56.096 499.523,53.726 497.123,51.559C488.078,43.393 473.472,38.112 457.018,38.112C440.563,38.112 425.958,43.393 416.913,51.559C414.545,53.697 412.56,56.033 411.032,58.521L409.014,58.521ZM413.247,49.754L411.941,51.025L410.107,50.179L407.73,52.492L408.554,54.321L407.28,55.56L403.81,47.36L405.079,46.124L413.247,49.754ZM501.84,49.418L507.497,43.348L508.723,44.49L506.211,47.186L511.199,46.798L512.847,48.334L508.358,48.568L507.314,54.519L505.728,53.041L506.714,48.638L504.775,48.726L503.066,50.56L501.84,49.418ZM408.747,49.552L405.78,48.143L407.124,51.131L408.747,49.552ZM415.598,47.978L411.409,42.503L409.454,43.999L408.601,42.884L413.838,38.878L414.691,39.993L412.74,41.485L416.928,46.961L415.598,47.978ZM500.144,44.462L501.223,45.781C500.52,46.403 499.805,46.74 499.08,46.792C498.355,46.844 497.619,46.627 496.873,46.14C495.951,45.538 495.398,44.728 495.215,43.71C495.032,42.692 495.297,41.636 496.01,40.543C496.765,39.386 497.649,38.683 498.664,38.432C499.679,38.182 500.673,38.374 501.646,39.009C502.496,39.564 503.023,40.265 503.226,41.114C503.349,41.617 503.307,42.199 503.102,42.858L501.497,42.284C501.65,41.87 501.664,41.474 501.539,41.095C501.415,40.716 501.166,40.405 500.793,40.162C500.278,39.826 499.739,39.738 499.177,39.899C498.615,40.059 498.064,40.554 497.524,41.382C496.951,42.26 496.701,42.989 496.774,43.568C496.847,44.147 497.136,44.602 497.642,44.931C498.014,45.175 498.413,45.265 498.836,45.204C499.259,45.142 499.695,44.895 500.144,44.462ZM422.299,43.366L418.837,37.404L416.708,38.641L416.003,37.427L421.705,34.116L422.41,35.33L420.286,36.563L423.748,42.524L422.299,43.366ZM492.357,43.132L490.708,42.357L490.855,40.343L487.854,38.931L486.432,40.345L484.823,39.588L491.28,33.456L492.883,34.21L492.357,43.132ZM433.891,37.795L432.213,38.508L430.809,37.057L427.757,38.355L427.864,40.357L426.229,41.052L425.957,32.152L427.587,31.459L433.891,37.795ZM490.963,38.849L491.239,35.576L488.915,37.885L490.963,38.849ZM480.506,38.12L482.764,31.607L480.437,30.801L480.897,29.474L487.127,31.634L486.667,32.96L484.346,32.156L482.089,38.669L480.506,38.12ZM429.768,35.981L427.511,33.595L427.684,36.867L429.768,35.981ZM440.099,32.937L441.801,33.023C441.79,33.962 441.56,34.718 441.111,35.29C440.662,35.862 440.007,36.261 439.146,36.487C438.08,36.766 437.108,36.631 436.231,36.083C435.354,35.535 434.75,34.629 434.419,33.366C434.069,32.03 434.142,30.902 434.638,29.983C435.135,29.063 435.945,28.455 437.069,28.161C438.051,27.903 438.924,27.985 439.69,28.404C440.144,28.652 440.547,29.073 440.898,29.667L439.394,30.471C439.191,30.08 438.906,29.803 438.542,29.641C438.178,29.479 437.78,29.455 437.35,29.567C436.755,29.723 436.328,30.063 436.07,30.588C435.811,31.112 435.807,31.852 436.058,32.808C436.324,33.823 436.695,34.498 437.173,34.833C437.651,35.168 438.182,35.259 438.766,35.106C439.197,34.993 439.531,34.759 439.77,34.404C440.008,34.049 440.118,33.56 440.099,32.937ZM472.676,35.955L474.233,29.24L471.834,28.684L472.151,27.316L478.575,28.806L478.258,30.173L475.865,29.618L474.308,36.334L472.676,35.955ZM469.792,35.266L467.984,35.041L467.498,33.081L464.207,32.67L463.294,34.456L461.531,34.236L465.765,26.402L467.522,26.622L469.792,35.266ZM444.916,35.015L444.004,26.768L445.669,26.584L446.074,30.246L449.033,26.211L451.272,25.963L448.522,29.519L452.353,34.192L450.199,34.43L447.503,30.811L446.306,32.338L446.582,34.83L444.916,35.015ZM467.138,31.627L466.384,28.43L464.891,31.347L467.138,31.627Z" style="fill:rgb(255,209,42);"/>
                </g>
            </g>
        </g>
    </g>
</svg>
