<svg xmlns="http://www.w3.org/2000/svg" width="150" height="150" viewBox="0 0 150 150">
  <defs>
    <style>
      .cls-1 {
        fill: #4577a4;
      }

      .cls-2 {
        fill: #151515;
      }

      .cls-3 {
        fill: #bf0000;
      }
    </style>
  </defs>
  <g id="Layer_3" data-name="Layer 3">
    <g>
      <path class="cls-1" d="M74.79085,146.21741C27.341,128.3147,26.08685,87.591,26.08685,87.591V3.78266h97.82606V87.591s-1.25418,40.72375-48.704,58.62646Z"/>
      <path class="cls-2" d="M75.48242,147.71777h-.96484l-.25586-.09668c-47.83594-18.04882-49.66113-59.5664-49.67383-59.98437l-.001-85.35449H125.41309V87.59082c-.01368.46387-1.83887,41.98145-49.67481,60.03027ZM27.58691,5.28223V87.59082c.0127.34863,1.8252,39.72168,47.41309,57.10156,45.58789-17.37988,47.40039-56.75293,47.41406-57.14941l-.001-82.26074Z"/>
      <path class="cls-3" d="M68.17557,82.893l47.81348-52.20819-4.40223-3.7174-38.2406,41.5711c-2.75744-1.55456-1.71374-5.51825-.30285-8.50592,1.663-3.52173,7.924-10.17389,12.913-16.63043,4.98926-6.45648,3.13049-11.93475,3.13049-11.93475A5.38709,5.38709,0,0,1,85.076,35.86959S84.6846,34.5,86.34769,32.15218a11.97413,11.97413,0,0,0,1.66308-5.96735,3.872,3.872,0,0,1-3.52172,2.05432c3.52172-2.64129,1.95654-6.94567,1.95654-6.94567a4.59079,4.59079,0,0,1-3.52173,3.7174c4.01074-5.576-.39136-9.68475-.39136-9.68475.29346,3.52173-3.03271,8.31518-3.03271,8.31518a29.00476,29.00476,0,0,0-.489-7.43475,7.02966,7.02966,0,0,0-3.42395-4.40216c.68482,5.47821-4.5,10.56519-6.65222,14.96735-2.1521,4.40222-1.663,9.29352-1.76074,13.59784a26.87628,26.87628,0,0,1-1.85876,8.51086c-1.076-2.44562-.587-5.77173.587-10.8587a22.09433,22.09433,0,0,0-.1958-9.88044c-.09778,1.07612-.97827.97828-.97827.97828a8.168,8.168,0,0,0-.88037-4.20655,3.68373,3.68373,0,0,1-1.95654,2.64136,8.34,8.34,0,0,0-.97828-8.11957,5.43461,5.43461,0,0,1-1.46728,3.71735,6.90462,6.90462,0,0,0-3.03272-5.96735C58.076,27.75,53.96732,37.14131,52.49979,40.07613c-1.46729,2.93475-5.08692,10.95648-2.93469,17.70648S63.16287,71.38045,65.11942,72.75a7.68522,7.68522,0,0,1,2.08374,2.46649L48.6846,95.34786l.29346,5.18475L41.41287,109.174l.78272,2.08691,18.62976-20.3421,5.5658,4.72253a1.21075,1.21075,0,0,1,0,1.46741L55.23905,108.75l-4.89136,2.54346,11.05444-.19562L71.96732,99.5544s.58691-.78265-.0979-4.30438C71.3848,92.758,69.334,86.4001,68.17557,82.893Z"/>
    </g>
  </g>
</svg>
