<svg xmlns="http://www.w3.org/2000/svg" width="150" height="150" viewBox="0 0 150 150">
  <defs>
    <style>
      .cls-1 {
        fill: #f6f6f6;
      }

      .cls-2 {
        fill: #c12746;
      }

      .cls-3 {
        fill: #408468;
      }

      .cls-4 {
        fill: #999;
      }
    </style>
  </defs>
  <g id="Layer_2" data-name="Layer 2">
    <g>
      <path class="cls-1" d="M74.77323,145.1243a1.13462,1.13462,0,0,1-1.03674-.67373c-3.21838-7.24079-12.112-7.91806-12.61154-7.95H37.03213A18.78829,18.78829,0,0,1,18.2653,117.73377V6.0104A1.13461,1.13461,0,0,1,19.4,4.8757H130.60034A1.13461,1.13461,0,0,1,131.735,6.0104V117.73377a18.78838,18.78838,0,0,1-18.76727,18.76683H88.87494c-.48446.03058-9.39006.703-12.61109,7.95a1.13463,1.13463,0,0,1-1.03674.67373Z"/>
      <path class="cls-2" d="M131.735,6.0104a1.13461,1.13461,0,0,0-1.13469-1.1347h-15.765L75,51.22637,35.16464,4.8757H19.4a1.13461,1.13461,0,0,0-1.1347,1.1347V22.6023l40.6676,47.319-40.6676,47.319v.49339a18.79528,18.79528,0,0,0,15.78686,18.5277L75,88.61637l40.94784,47.6451a18.79527,18.79527,0,0,0,15.78719-18.5277v-.493L91.0671,69.92134,131.735,22.60191Z"/>
      <path class="cls-1" d="M87.24523,59.07479c-1.01968-.775-4.20331-.94726-6.92659,2.72327a19.39787,19.39787,0,0,0-3.2561,8.28817,7.45552,7.45552,0,0,1-1.15824.0154l-.00388-.35337c.35525-1.23642,2.69612-9.51362,2.20335-11.26553-.53278-1.89441-3.07842-4.79532-3.07842-4.79532L75,53.75357l-.02526-.06616s-2.54565,2.90091-3.07842,4.79532c-.49278,1.752,1.84809,10.02927,2.20335,11.26564l-.004.35326a7.45475,7.45475,0,0,1-1.15819-.0154,19.39743,19.39743,0,0,0-3.25605-8.28817c-2.72327-3.67053-5.907-3.49828-6.92664-2.72327a3.81994,3.81994,0,0,0-.7104,4.97294c1.23221,1.812,2.4273,1.65761,2.78244,2.01282a1.55913,1.55913,0,0,1,.296,1.0656s2.13127,0,1.77607-2.60481c0,0,4.08491,2.42724,4.61774,5.38732a1.12656,1.12656,0,0,0-.4736,1.0656,1.58926,1.58926,0,0,0,.11834,2.1905s-.41437.41443.2368,1.06561a3.93939,3.93939,0,0,1-1.3024,2.90084c-1.30241.94727-1.776.71046-1.776.71046a2.75328,2.75328,0,0,0,.23681-2.07209c-.41443-.82875-1.59844-.65118-1.59844-.65118s.2368.71041-.05923,1.00644c-.296.296-1.59844,2.96007.53283,4.49934,2.13121,1.53921,5.50572-2.36813,5.68335-6.157h.88637c-.10194.91961-.48845,4.32382-.74354,5.44655a4.69967,4.69967,0,0,0,.47361,4.08491,16.76021,16.76021,0,0,1,1.12816,2.15431l.10637.45056s.01341-.0395.03391-.09674c.02061.05724.03391.09674.03391.09674l.10649-.45061a16.75855,16.75855,0,0,1,1.12816-2.15426,4.69963,4.69963,0,0,0,.4736-4.08491c-.25519-1.12273-.64159-4.52694-.74354-5.44655H76.885c.17757,3.78888,3.55208,7.69622,5.68335,6.157,2.13121-1.53927.8288-4.20337.53277-4.49934-.296-.296-.05917-1.00644-.05917-1.00644s-1.184-.17757-1.59844.65118a2.753,2.753,0,0,0,.2368,2.07209s-.4736.23681-1.77607-.71046a3.9393,3.9393,0,0,1-1.30246-2.90084c.65123-.65118.23686-1.06561.23686-1.06561a1.58929,1.58929,0,0,0,.1184-2.1905,1.12656,1.12656,0,0,0-.47361-1.0656c.53278-2.96008,4.61769-5.38732,4.61769-5.38732-.35515,2.60481,1.77607,2.60481,1.77607,2.60481a1.55965,1.55965,0,0,1,.296-1.0656c.35526-.35521,1.55035-.20085,2.7825-2.01282A3.81988,3.81988,0,0,0,87.24523,59.07479Z"/>
      <path class="cls-3" d="M77.19361,32.34524l.08882-9.191s2.664-4.12934,2.48647-4.26254a8.33142,8.33142,0,0,0-1.332-.39958L76.6164,16.80482c-.29326-6.02875-1.06439-7.34434-1.45422-7.61837a.17864.17864,0,0,0-.09131-.06306.4854.4854,0,0,0-.14172,0,.17864.17864,0,0,0-.09131.06306c-.38983.274-1.161,1.58962-1.45427,7.61837l-1.8204,1.68725a8.33142,8.33142,0,0,0-1.332.39958c-.17763.1332,2.48648,4.26254,2.48648,4.26254l.08875,9.191a1.48616,1.48616,0,0,0,0,1.86483l.35526,6.083s-.444.39964-.39963.79922,1.02122,1.37643,1.15447,1.998a4.8674,4.8674,0,0,0,.9768,2.04246,1.09654,1.09654,0,0,1,.21353,0,4.86739,4.86739,0,0,0,.97679-2.04246c.13319-.62159,1.11-1.59843,1.15442-1.998.04444-.39958-.39958-.79922-.39958-.79922l.3552-6.083A1.48614,1.48614,0,0,0,77.19361,32.34524Z"/>
      <path class="cls-3" d="M72.11278,115.5531a16.54671,16.54671,0,0,1-1.15443-5.639c.1332-2.39766.666-3.15248,1.776-3.41889a4.32041,4.32041,0,0,1,.84363-2.22006c.666-.57721,1.59844-.84362,2.08685-.0888.43149.66685.444,2.22006-1.50964,3.28569a12.21788,12.21788,0,0,1,.53282,4.21811,22.99114,22.99114,0,0,1-.888,3.81851,4.71694,4.71694,0,0,1,1.59845-.08881s-.275-4.23689.1332-5.46134c.888-2.66408,2.61967-2.93048,2.61967-2.93048a1.8549,1.8549,0,0,1-.222-1.55405,1.2989,1.2989,0,0,1,1.68724-.71041c.57722.222,1.28764.97682.48841,2.35326a3.31209,3.31209,0,0,1,1.332,2.84168,7.6287,7.6287,0,0,1-.26641,2.79727,3.94228,3.94228,0,0,1,1.554.0888,2.68,2.68,0,0,1,.48842,2.66408c-.35521,1.24323-3.5077,3.15248-3.5077,3.15248a16.69962,16.69962,0,0,1-.0888,7.859c-1.06563,4.57333-4.08491,4.92854-5.63895,4.35132s-4.26252-4.21811-4.44012-9.76826c0,0-1.68725-.62162-2.39767-3.4189,0,0-2.17566-.666-2.70847-1.95365a1.614,1.614,0,0,1,.79922-2.26446c.57722-.26641,1.99806,1.15443,1.99806,1.15443l.35521-.1776a4.01023,4.01023,0,0,1-.13321-1.15443,4.56444,4.56444,0,0,1-.1776-2.93048c.53281-1.11,1.64284,0,1.95365.84362a3.9031,3.9031,0,0,1-.0444,2.04245,4.13619,4.13619,0,0,1,1.73165,3.33009A4.49088,4.49088,0,0,1,72.11278,115.5531Z"/>
      <path class="cls-4" d="M130.60017,6.0104V117.73371A17.6322,17.6322,0,0,1,112.968,135.3659H88.84331s-9.98534.45388-13.61637,8.6237h-.45388c-3.631-8.16982-13.61637-8.6237-13.61637-8.6237H37.03207a17.63225,17.63225,0,0,1-17.63224-17.63219V6.0104H130.60017m0-2.26939H19.39983a2.26944,2.26944,0,0,0-2.2694,2.26939V117.73371a19.92414,19.92414,0,0,0,19.90164,19.90158H61.08921c.60718.04333,8.70819.74675,11.61,7.276a2.26939,2.26939,0,0,0,2.07381,1.34773h.45388a2.26939,2.26939,0,0,0,2.07381-1.34773c2.89526-6.51437,10.96607-7.22943,11.61215-7.276H112.968a19.92413,19.92413,0,0,0,19.90159-19.90158V6.0104a2.26944,2.26944,0,0,0-2.2694-2.26939Z"/>
    </g>
  </g>
</svg>
