<svg xmlns="http://www.w3.org/2000/svg" width="150" height="150" viewBox="0 0 150 150">
  <defs>
    <style>
      .cls-1 {
        fill: #2e3192;
      }

      .cls-2 {
        fill: #f2f2f2;
      }

      .cls-3 {
        fill: #fcd121;
      }

      .cls-4 {
        fill: #c1272d;
      }

      .cls-5 {
        fill: #1a1a1a;
      }
    </style>
  </defs>
  <g id="Layer_2" data-name="Layer 2">
    <g>
      <circle class="cls-1" cx="75" cy="81.52651" r="63.47349"/>
      <path class="cls-2" d="M27.13894,60.53931a32.16764,32.16764,0,0,1-7.67825-22.26692c.76783-13.309,10.23766-26.87385,30.713-27.89762S72.69653,37.24863,72.69653,37.24863,83.958,39.808,84.72578,48.51005c0,0,3.07129-1.2797,6.91042,2.81536s12.02925,10.74954,13.053,22.52285,3.32724,17.404,7.42231,23.03474,10.4936,19.19561,2.55941,25.59415-37.36746.25594-41.20658.25594-9.98172,1.02377-12.54113,2.55941-8.44607,1.53565-12.28519-2.55941-5.88666-7.16636-7.42231-7.4223-6.91042-.76783-12.28519-12.79708S29.9543,73.33638,29.9543,73.33638,24.83547,71.28885,27.13894,60.53931Z"/>
      <polygon class="cls-3" points="104.945 5.768 115.695 5 93.684 33.41 98.547 33.921 47.614 106.097 55.548 105.585 27.651 132.971 22.02 136.81 43.775 110.448 38.4 110.192 87.541 39.808 82.678 39.552 104.945 5.768"/>
      <polygon class="cls-3" points="99.57 43.135 103.665 65.146 96.755 61.307 102.13 103.793 106.225 99.442 111.344 122.221 111.856 119.406 109.04 89.205 105.713 93.044 102.386 69.241 108.528 72.313 106.481 48.254 99.57 43.135"/>
      <polygon class="cls-3" points="81.143 23.94 52.989 42.623 58.62 43.903 42.751 54.909 43.519 49.79 16.389 69.497 37.377 59.004 36.865 63.867 69.113 41.856 65.53 39.808 83.958 27.779 81.143 23.94"/>
      <path class="cls-2" d="M47.83821,72.40859s-.95978.47989-.76783-1.15173,1.05576-2.11152,1.3437-3.26326,1.43967-4.03108,1.7276-5.18281,1.43967-6.52651,2.87934-7.8702,5.66271-1.15174,6.43053-1.63163,12.86106-2.39945,14.78063-2.11152a16.51623,16.51623,0,0,1,3.16727.76783s6.62249,2.49542,8.54205,6.23857a73.35027,73.35027,0,0,1,4.70292,14.10877c.47989,2.59141.95978,6.71847.28794,8.44607s-3.45521,5.08684-4.12706,5.2788-8.35009.95978-8.638,1.05576a30.553,30.553,0,0,0-2.49543,2.39945,18.855,18.855,0,0,1,2.39945,4.319,4.46585,4.46585,0,0,1-.57587,4.319c-1.15174,1.63163-2.78336,2.68739-4.223,5.18282s-6.81444,7.67824-9.02193,8.638-3.64717-2.01554-3.64717-2.01554a5.59565,5.59565,0,0,1-1.82358-3.16727,1.4091,1.4091,0,0,1,0-2.11152,2.53413,2.53413,0,0,1,1.05576-2.20749,1.8116,1.8116,0,0,1,1.15173-1.3437,2.59946,2.59946,0,0,1,0-1.24771c.192-.38391-.95978-.096-.95978-.096a5.4565,5.4565,0,0,1-1.34369.47989,3.57869,3.57869,0,0,1-2.30347.192s-.86381.47989-1.24772.28793a2.80131,2.80131,0,0,1-1.24771-1.7276,22.4078,22.4078,0,0,1,0-3.64717A19.76619,19.76619,0,0,1,53.021,91.6042a11.73346,11.73346,0,0,1-2.78336-2.30347c-.47989-.8638-.57587-4.99086-1.05576-5.37477a1.78112,1.78112,0,0,1-.38391-2.01554c.38391-.47989,1.05576-1.34369,1.05576-1.34369S48.12614,77.87934,47.83821,72.40859Z"/>
      <path class="cls-4" d="M48.12614,73.20841s1.21572,6.1426,2.04753,7.16636c0,0,1.47167-.70384,2.17551-.95978a4.27379,4.27379,0,0,0,2.11151-3.19927,8.46953,8.46953,0,0,0-.76782-3.83912c-.25594-.4479-.38391-.8958-.76782-.76782s-1.66362.31992-2.04754-.064-.25594-.8958-.89579-.83181A2.11582,2.11582,0,0,0,48.12614,73.20841Z"/>
      <path class="cls-4" d="M58.49177,75.51188s.31993,2.81536,1.40768,3.19927,2.36746,0,2.6234-.76782-.128-1.66362.4479-1.79159,2.49543.25594,3.0713-.63986.19195-2.30347-.31993-3.26325-.63985-1.02377-.63985-1.91956.064-1.85558-.51189-1.85558-2.1755,1.08775-3.39122.70384-2.04753-.89579-2.94333-.31993a2.99567,2.99567,0,0,0-1.34369,2.49543,2.05545,2.05545,0,0,0,.83181,2.23949A2.80139,2.80139,0,0,1,58.49177,75.51188Z"/>
      <path class="cls-4" d="M52.09324,86.26143a3.79861,3.79861,0,0,1,.95978,1.47166c.25594.83181,0,1.79159.89579,1.85558a2.4497,2.4497,0,0,0,2.43145-1.66362,11.64265,11.64265,0,0,0,.128-3.64717,1.69112,1.69112,0,0,0-2.04754-1.53565,12.89226,12.89226,0,0,0-2.87934.8958C51.32541,83.83,50.74954,84.91773,52.09324,86.26143Z"/>
      <path class="cls-4" d="M61.37112,99.76234s.44789-.76782,1.15173-.57587a1.3466,1.3466,0,0,1,.76783,1.66362c-.25595.38391-1.08775.63986-.83181,1.34369a2.08417,2.08417,0,0,1-.064,1.59964c-.128.192-1.15174,1.08775-.89579,1.34369s1.21572-.63985,1.59963-.83181c0,0,.38391-1.7276,1.79159-1.91956,0,0,.51188-1.59963,1.66362-1.79159,0,0,.064-1.40768,1.34369-1.53565,0,0,1.27971-2.49543,2.94333-2.04753l1.02377-1.15174s-.38392-4.223-.51189-5.11883S71.09689,83.83,71.09689,83.83s.064,5.82267-.57587,6.46252a11.22216,11.22216,0,0,1-1.85557,1.3437s.70384,1.59963-.064,2.49543-1.15173.70384-1.15173.70384-.064,1.2797-1.21573,1.21572c0,0-.25594,1.91956-1.85557,1.79159s-.25594-.064-.25594-.064a5.51216,5.51216,0,0,1-2.04754.95978.93869.93869,0,0,0-.89579.63986Z"/>
      <g>
        <path class="cls-5" d="M91.12679,72.22332A74.26919,74.26919,0,0,0,86.3779,57.98c-1.98306-3.867-8.52794-6.36906-8.80244-6.47254a16.917,16.917,0,0,0-3.27052-.79523c-1.98138-.29271-14.19111,1.60484-15.1133,2.18115a8.06487,8.06487,0,0,1-1.71909.29318c-1.67287.19258-3.75485.43307-4.78626,1.395-1.24292,1.16028-2.20726,4.69524-2.9086,7.64576-.04551.19162-.08311.34923-.11186.46468-.138.55235-.49989,1.56556-.84985,2.54523-.37438,1.04818-.72792,2.03839-.87787,2.63769a3.84129,3.84129,0,0,1-.51474,1.0889,5.07069,5.07069,0,0,0-.84027,2.23576c-.03473.29653-.14084,1.19812.43307,1.60149a.89567.89567,0,0,0,.36408.14946,19.17943,19.17943,0,0,0,1.88437,7.57389c-.228.29223-.6.76745-.84961,1.07932a1.75105,1.75105,0,0,0-.229,1.452,2.26416,2.26416,0,0,0,.65392,1.22351,13.09971,13.09971,0,0,1,.39833,2.34116,10.09425,10.09425,0,0,0,.57056,2.91841,10.37272,10.37272,0,0,0,2.74452,2.34882,20.78637,20.78637,0,0,0,.83571,3.522,20.4162,20.4162,0,0,0,.017,3.69113,3.2668,3.2668,0,0,0,1.50712,2.06,1.92134,1.92134,0,0,0,1.54543-.21366,4.1497,4.1497,0,0,0,2.40032-.24384,7.01916,7.01916,0,0,0,1.34878-.47954c.069-.0158.14037-.0297.20911-.04119a3.30089,3.30089,0,0,0,.02228.62564,2.32564,2.32564,0,0,0-1.0283,1.33178,2.97448,2.97448,0,0,0-1.12243,2.3469,2.03949,2.03949,0,0,0-.46109,1.43047,1.88144,1.88144,0,0,0,.49511,1.08938,6.09187,6.09187,0,0,0,1.8858,3.23651c.49727.96865,1.65658,2.38905,3.17543,2.38905a2.64017,2.64017,0,0,0,1.06231-.2309c2.27792-.99021,7.7248-6.19661,9.25132-8.84244a16.22454,16.22454,0,0,1,2.59816-3.294,16.23283,16.23283,0,0,0,1.60077-1.85155,4.93166,4.93166,0,0,0,.651-4.72063,16.92681,16.92681,0,0,0-2.24079-4.15151c.84889-.8762,1.77515-1.78976,2.03839-1.98378.33486-.05461,1.81778-.21988,3.13567-.36648,2.94716-.32767,5.06387-.56864,5.45957-.68169.91189-.26109,3.7812-3.8545,4.44949-5.57288C92.26072,78.69682,91.32345,73.28539,91.12679,72.22332Zm-42.37117-.5902A1.95176,1.95176,0,0,1,50.006,70.9567c.24049-.022.264.02634.377.26683a1.64031,1.64031,0,0,0,.32121.49487c.50684.50732,1.93826.24288,2.29852.12311.08287-.02778.1315-.00191.33917.39954.04311.08335.08814.17006.138.25725a8.23173,8.23173,0,0,1,.73655,3.69689,4.0821,4.0821,0,0,1-1.951,2.98931c-.56266.20456-1.58329.67883-2.00725.87859-.63457-1.0909-1.52981-5.1004-1.86677-6.78021-.012-.1392-.02015-.28645-.03024-.42981A1.902,1.902,0,0,1,48.75562,71.63312Zm6.59614,28.65a2.34385,2.34385,0,0,1-.98805-1.395,9.03862,9.03862,0,0,1-.06965-1.64074,2.32056,2.32056,0,0,1,1.00021.03782.38286.38286,0,0,0,.182.05332l.71753,2.649a.48547.48547,0,0,0-.05113.01731A2.20375,2.20375,0,0,1,55.35176,100.28314Zm1.3499-.29654-.75958-2.80425c.10078-.05791.20567-.124.31941-.19848.35331-.23138.83835-.54708,1.08028-.40241a1.08861,1.08861,0,0,0,.39761.14276.23994.23994,0,0,0,0,.079l.61556,3.04946A3.24365,3.24365,0,0,1,56.70166,99.9866Zm3.06413-.63906a4.93439,4.93439,0,0,1-.94266.3451l-.60259-2.9853a3.67732,3.67732,0,0,0,.51768-.15462,2.5972,2.5972,0,0,1,.41348-.12318l.98683,2.80506c-.07255.01473-.14863.03165-.23022.0521A.55863.55863,0,0,0,59.76579,99.34754Zm9.35024-7.5533a10.22277,10.22277,0,0,0,1.66521-1.24171.86526.86526,0,0,0,.16264-.25486c.01485.21941.0297.38995.04455.49487.11138.77846.4242,4.1654.49534,4.94147l-.777.87428c-1.55526-.22707-2.71386,1.544-3.04345,2.1136a1.88347,1.88347,0,0,0-1.4434,1.578,3.05674,3.05674,0,0,0-1.60173,1.76341,2.82115,2.82115,0,0,0-1.83478,2.00007c-.11139.0709-.2369.16192-.37511.263l.02228-.02347a2.7021,2.7021,0,0,0,.27043-.30564,2.42854,2.42854,0,0,0,.10371-1.92917c-.07185-.19785-.011-.29749.36217-.594a1.95043,1.95043,0,0,0,.42995-.42013,1.41375,1.41375,0,0,0,.02539-1.20818,1.65712,1.65712,0,0,0-.77271-.92554,7.855,7.855,0,0,0,1.31764-.72529c.05725.00479.11785.00958.182.01485a2.131,2.131,0,0,0,2.18977-1.80365,1.34908,1.34908,0,0,0,.72961-.33151,1.729,1.729,0,0,0,.4951-.87955,2.30333,2.30333,0,0,0,1.11717-.824A2.76588,2.76588,0,0,0,69.116,91.79424Zm1.60149,7.14083a3.62963,3.62963,0,0,0-.46948,1.045.23723.23723,0,0,0-.04862-.04428L68.432,98.87543c.39211-.61287,1.295-1.78668,2.31334-1.50879a.37216.37216,0,0,0,.37055-.11114l.0718-.08081A2.277,2.277,0,0,1,70.71752,98.93507Zm-7.853,9.54683a.23321.23321,0,0,0-.01842-.038,8.51054,8.51054,0,0,0-1.8588-1.85686.24236.24236,0,0,0,.14162-.10057,9.71727,9.71727,0,0,1,.71589-.97309,1.5044,1.5044,0,0,0,.2389-.09668,21.178,21.178,0,0,1,1.58948,1.85494.23177.23177,0,0,0,.25411.08447c-.00994.02263-.02664.041-.03518.06452A2.2909,2.2909,0,0,1,62.86455,108.4819Zm-1.39661-7.41712a.4635.4635,0,0,0-.00173-.06449,2.58083,2.58083,0,0,1-.05551-.87419.35739.35739,0,0,0,.27707-.17639c.0127-.02155.31953-.52025.73847-.40815a.88823.88823,0,0,1,.50636.561.79812.79812,0,0,1,.052.54325,1.51357,1.51357,0,0,1-.27546.252,2.57517,2.57517,0,0,0-.43109.41Zm2.63578,5.99687a.24323.24323,0,0,0-.0439-.09183,18.9533,18.9533,0,0,0-1.545-1.81491c.10638-.07336.21342-.15129.3198-.22875a4.35583,4.35583,0,0,1,.42876-.29175.3613.3613,0,0,0,.14809-.15075l1.698,1.53906a.22357.22357,0,0,0,.23776.04857,3.1478,3.1478,0,0,1-.44759.33276A3.38947,3.38947,0,0,0,64.10372,107.06165Zm1.40786-1.26379a.24.24,0,0,0-.07255-.13826l-1.84662-1.6738a2.006,2.006,0,0,1,1.06564-1.16237l1.81571,2.25423c-.06293.03982-.12545.07887-.18584.11629A2.7057,2.7057,0,0,0,65.51158,105.79786Zm1.36612-.997-.00485-.00932-1.7276-2.14485a.36671.36671,0,0,0,.09521-.14839c.0012-.00365.0347-.10336.09881-.249l1.90389,1.35995a.24539.24539,0,0,0,.285-.39953l-1.95971-1.39981a1.67329,1.67329,0,0,1,1.03543-.85l1.91128,1.63837a1.75957,1.75957,0,0,1-.58747.78916,1.73682,1.73682,0,0,0-.65511.938A.95321.95321,0,0,1,66.8777,104.80086ZM68.682,102.095l-1.75826-1.50717a1.18679,1.18679,0,0,1,1.01048-1.16318.36011.36011,0,0,0,.23483-.13489l1.77793,1.06665a.23382.23382,0,0,0,.25668-.007c-.04159.38546-.38863.66625-.75921.96126A2.819,2.819,0,0,0,68.682,102.095Zm-.35352-10.31131c.16887.38755.49678,1.52148-.00623,2.10833-.41079.47905-.67978.58876-.76146.59259-.00883-.00269-.01832-.00051-.0273-.00255l-1.32951-2.382.03989-.02515a2.76444,2.76444,0,0,1,2.133-.66607A.36881.36881,0,0,0,68.32846,91.78371Zm-2.54406.57154,1.325,2.374a.36011.36011,0,0,0-.02724.086c-.00935.15186-.08743.90829-.82782.86853-.00392-.0003-.00736.00156-.01125.00138l-1.705-1.98923a3.20447,3.20447,0,0,0,.402-.62637c.1418-.26683.2757-.51881.44624-.55283A1.448,1.448,0,0,0,65.7844,92.35525ZM64.15225,93.999l1.71706,2.00329c-.00967.0703-.22336,1.583-1.46169,1.47355-.0297-.00239-.05845-.00431-.086-.0067a.38188.38188,0,0,0-.08608-.02749l-1.29864-2.774-.00823-.01117a1.35528,1.35528,0,0,1,.84227-.53735A1.17739,1.17739,0,0,0,64.15225,93.999ZM62.56034,95.0198l1.11441,2.38049c-.29465.00952-.43073.08057-.44753.34289a.60435.60435,0,0,0,.00743.16623,3.65442,3.65442,0,0,1-1.03716.44166l-.89386-2.51427c.03287-.05449.06144-.10971.08737-.16028.132-.25773.21988-.40384.492-.40384A1.04721,1.04721,0,0,0,62.56034,95.0198Zm-1.66708,1.12779.81023,2.27905a1.31891,1.31891,0,0,0-.83913.74712c-.04452-.00416-.09216-.00683-.145-.00683-.02572,0-.05557.00219-.08342.00333l-.96913-2.75482a3.68825,3.68825,0,0,0,.57589-.13147,2.12369,2.12369,0,0,1,.55259-.11545A.46716.46716,0,0,0,60.89326,96.14759Zm.23473,5.42852a.47853.47853,0,0,0,.12351-.06452l.8129.24378a1.01544,1.01544,0,0,0,.04854.56376,1.76283,1.76283,0,0,1-.02228,1.26711c-.02806.03853-.09189.10377-.16719.182l-1.56954-1.35995A1.23764,1.23764,0,0,1,61.128,101.57611Zm-1.0453,1.29777c.01141-.00671.01791-.019.02868-.02653l1.47775,1.28046a1.87354,1.87354,0,0,0-.48723.80826l-1.84279-.23022a.48386.48386,0,0,0,.01039-.07671A2.06124,2.06124,0,0,1,60.08269,102.87388Zm-1.0677,2.29579,2.24409.28037c-.15013.19168-.328.44052-.54164.7691a.24383.24383,0,0,0-.00162.26114,2.34,2.34,0,0,0-1.4816.12815.50879.50879,0,0,0-.13934-.21588A.86784.86784,0,0,1,59.015,105.16967Zm.333,1.9203c.00688-.00269.01419-.00227.02093-.00566a1.86575,1.86575,0,0,1,1.2786-.11737,6.98359,6.98359,0,0,1,1.80269,1.76692l-.05365.03194a9.212,9.212,0,0,1-1.60694.67871A5.25548,5.25548,0,0,1,59.348,107.09ZM90.475,80.581a16.31928,16.31928,0,0,1-3.80468,4.98459c-.34707.09965-3.32657.43115-5.29837.65056-2.71146.30181-3.21375.36313-3.35963.41151-.12048.04024-.40312.13414-2.69469,2.52607a.49023.49023,0,0,0-.04312.62661,18.56062,18.56062,0,0,1,2.32079,4.15007c.3672,1.46879.53942,2.44367-.50061,3.91773a15.51589,15.51589,0,0,1-1.50831,1.7385,17.301,17.301,0,0,0-2.739,3.48179c-1.39358,2.41588-6.73483,7.53892-8.79262,8.43332-1.53391.66733-2.65568-1.12935-2.94066-1.64745a8.83321,8.83321,0,0,0,1.53487-.66783l.11521-.069a3.266,3.266,0,0,0,1.5888-1.52915,1.98811,1.98811,0,0,1,.81679-.77464c.3442-.22755.64146-.424.72409-.71331a2.39591,2.39591,0,0,1,.65248-.4896c.52337-.32432,1.11668-.69224,1.2089-1.19764a1.35329,1.35329,0,0,1,.50277-.663,2.04828,2.04828,0,0,0,.76443-1.15357l.00619-.02176c.00156-.00967.0062-.01683.00761-.02662.046-.32288.37031-.58062.71356-.85368a1.90014,1.90014,0,0,0,.9526-1.4204,2.43441,2.43441,0,0,1,.43906-1.09178,2.54243,2.54243,0,0,0,.43833-2.39241.2324.2324,0,0,0-.02155-.03227l.58133-.65422a.3673.3673,0,0,0,.0915-.27737c-.01581-.17294-.38612-4.243-.514-5.13789-.09868-.6908-.20815-4.79344-.25222-6.86585a.36122.36122,0,0,0-.03051-.137A36.37342,36.37342,0,0,0,74.14263,81.139a13.105,13.105,0,0,0,1.565,5.43879.368.368,0,0,0,.63259-.37606,12.528,12.528,0,0,1-1.48346-5.88731c.05138-.06881.09974-.1354.1354-.1924a34.08,34.08,0,0,0,1.77227-5.41527.368.368,0,0,0-.71332-.18108,32.45161,32.45161,0,0,1-1.68316,5.20639,26.19619,26.19619,0,0,1-5.01549,4.59129,6.84829,6.84829,0,0,1-2.15887.3545.36792.36792,0,0,0,.00024.73583,7.47062,7.47062,0,0,0,2.44846-.4139,6.19455,6.19455,0,0,0,1.0894-.73814c.008,2.57664-.16189,5.4067-.4707,5.77063a9.02445,9.02445,0,0,1-1.41082,1.05935.24517.24517,0,0,0-.075-.0586c-1.0132-.5078-2.04318.14947-2.79506.62853a2.9417,2.9417,0,0,1-.69008.37414c-.39833.07952-.594.44744-.783.80338-.20192.38037-.39282.73918-.80074.79332a1.86577,1.86577,0,0,0-1.166.721c-.24958.274-.40312.42875-.65726.42875a.98868.98868,0,0,0-.92865.67116c-.06731.13126-.11833.22468-.15905.22468a2.49846,2.49846,0,0,0-.69152.13557,1.90561,1.90561,0,0,1-.75.12216l-.00947-.00009c-.00491-.00042-.00964,0-.01458-.00015a1.8324,1.8324,0,0,0-.75658.15546,1.13558,1.13558,0,0,1-.97895.06994c-.5066-.30372-1.11333.09342-1.60149.41247a2.56405,2.56405,0,0,1-.47786.27354,2.53834,2.53834,0,0,0-1.20818-.09509c.01805-.55268.0468-1.06935.06755-1.37082a.49051.49051,0,0,0-.024-.18875,19.385,19.385,0,0,1-.84-3.62072.49006.49006,0,0,0-.22923-.38324,10.59908,10.59908,0,0,1-2.6147-2.12558,12.23076,12.23076,0,0,1-.45414-2.56008c-.23139-1.91288-.35355-2.66356-.72386-2.9601a1.30271,1.30271,0,0,1-.34252-.69032.889.889,0,0,1,.03521-.63523c.38564-.48193,1.06015-1.349,1.06015-1.349a.48717.48717,0,0,0,.1-.301c.28235-.13407,1.48691-.70137,2.0919-.92153A4.50816,4.50816,0,0,0,54.705,76.23591a8.69372,8.69372,0,0,0-.7993-3.981c-.04623-.081-.08815-.16192-.12815-.23905-.18659-.36121-.41989-.80865-.93009-.64-.45415.15138-1.549.24288-1.79646-.00431a1.18606,1.18606,0,0,1-.2242-.3569.76267.76267,0,0,0-.86949-.54565,2.42839,2.42839,0,0,0-1.58185.85416,2.18936,2.18936,0,0,0-.34977.6417.50111.50111,0,0,0-.398.00072.2401.2401,0,0,1-.0491.01485,1.46214,1.46214,0,0,1-.02108-.66589,4.1257,4.1257,0,0,1,.70446-1.8415,4.73972,4.73972,0,0,0,.628-1.36052c.138-.55235.4999-1.56556.84985-2.54523.37438-1.04818.72792-2.03839.87787-2.63769.02946-.11784.06779-.27929.11449-.4757.3557-1.49562,1.43765-6.0481,2.62332-7.15472.79524-.74206,2.78021-.97105,4.22936-1.13824a6.09124,6.09124,0,0,0,2.11671-.43019c.84266-.43115,12.55872-2.333,14.45771-2.048a16.24122,16.24122,0,0,1,3.06692.74158c.06467.02443,6.46871,2.47385,8.27883,6.00306A72.88662,72.88662,0,0,1,90.162,72.40153C90.72319,75.43109,91.03745,79.13468,90.475,80.581Z"/>
        <path class="cls-5" d="M65.72191,71.73516a2.14893,2.14893,0,0,1-.39426-1.406l.001-.24432c.00455-.69751.00886-1.35669-.30684-1.6743-.28145-.28313-.71954-.172-1.429.11162a3.8688,3.8688,0,0,1-2.33947.42157c-.23115-.0733-.44816-.15091-.65439-.22468a2.60328,2.60328,0,0,0-2.49565-.068,3.228,3.228,0,0,0-1.4549,2.67458,2.303,2.303,0,0,0,.91883,2.45517,2.57165,2.57165,0,0,1,.6793,1.73179l.00168.0273c.03449.30373.37175,2.98022,1.56963,3.40275a2.95272,2.95272,0,0,0,.97584.16384,2.67636,2.67636,0,0,0,1.16746-.25438,1.46812,1.46812,0,0,0,.79428-.83117,3.09769,3.09769,0,0,0,.11521-1.00314c0-.4872.02707-.59883.1533-.62661a3.86144,3.86144,0,0,1,.68458-.0206c.86637.01293,2.0518.034,2.54-.72577.63-.98015.25294-2.45661-.30971-3.51149C65.857,71.98044,65.78515,71.85014,65.72191,71.73516Zm.114,3.64419c-.34085.52984-1.36891.51355-2.11935.50062a3.85144,3.85144,0,0,0-.79907.03209c-.5375.11929-.5375.64338-.5375,1.10567a2.71692,2.71692,0,0,1-.09006.84793,1.00811,1.00811,0,0,1-.54445.54564,2.36669,2.36669,0,0,1-1.76437.06851c-.68313-.241-1.12459-1.95168-1.24435-2.98309a2.99728,2.99728,0,0,0-.8556-2.09252,1.81978,1.81978,0,0,1-.74517-2.024,2.726,2.726,0,0,1,1.23261-2.31624c.6211-.401,1.22711-.18348,2.065.11689.2115.07569.43451.15569.67188.23043a4.20423,4.20423,0,0,0,2.66954-.434,3.2351,3.2351,0,0,1,.79548-.25869.12892.12892,0,0,1,.10347.03785c.17175.17246.16744.812.16408,1.32555l-.001.24719a2.60872,2.60872,0,0,0,.45511,1.64317c.06228.11257.13318.241.21366.39186C65.98036,73.25377,66.35139,74.57741,65.83593,75.37935Z"/>
        <path class="cls-5" d="M55.9628,82.83061a1.96184,1.96184,0,0,0-1.54712-.32912,12.724,12.724,0,0,0-2.98165.94039,1.3776,1.3776,0,0,0-.43762.97488A2.59865,2.59865,0,0,0,51.9198,86.435l.00838.00815a3.56548,3.56548,0,0,1,.89033,1.36243,4.02837,4.02837,0,0,1,.12671.70039c.068.5648.15282,1.26758.98614,1.32746.04862.00336.09773.00527.14779.00527a2.683,2.683,0,0,0,2.54-1.85778,12.03907,12.03907,0,0,0,.1327-3.73186A2.01991,2.01991,0,0,0,55.9628,82.83061Zm.17869,5.03824a2.20851,2.20851,0,0,1-2.17516,1.475c-.39451-.02827-.45678-.25486-.53415-.89632a4.48691,4.48691,0,0,0-.14468-.78613A4.01257,4.01257,0,0,0,52.263,86.08436a2.1316,2.1316,0,0,1-.77727-1.6331.94365.94365,0,0,1,.24264-.617,13.2271,13.2271,0,0,1,2.77758-.8508,1.48591,1.48591,0,0,1,1.16626.24192,1.53743,1.53743,0,0,1,.59236,1.08123A11.50311,11.50311,0,0,1,56.14149,87.86885Z"/>
      </g>
    </g>
  </g>
</svg>
