<svg xmlns="http://www.w3.org/2000/svg" width="150" height="150" viewBox="0 0 150 150">
  <defs>
    <style>
      .cls-1 {
        fill: #231f20;
      }

      .cls-2 {
        fill: #ed1c24;
      }
    </style>
  </defs>
  <g id="Layer_5" data-name="Layer 5">
    <g>
      <circle class="cls-1" cx="75" cy="75" r="72.86957"/>
      <path class="cls-2" d="M75,16.70435A58.29565,58.29565,0,1,1,16.70435,75,58.36167,58.36167,0,0,1,75,16.70435m0-6.80116A65.09681,65.09681,0,1,0,140.09681,75,65.09684,65.09684,0,0,0,75,9.90319Z"/>
      <path class="cls-2" d="M78.88638,116.29275H70.142V76.64526L50.45112,55.14874a31.21584,31.21584,0,0,0-7.02793,19.874A31.64491,31.64491,0,0,0,53.82228,98.44445l-5.86752,6.48426a40.32246,40.32246,0,0,1-.4431-59.40578l3.226-3.00682L75.21728,69.2397l24.38-26.47594,3.22031,3.06944a39.9703,39.9703,0,0,1,12.50358,29.18957,40.3987,40.3987,0,0,1-13.33855,29.96287l-3.2222,2.90339-19.874-21.69672Zm2.25819-40.58113,18.003,19.65391a31.63923,31.63923,0,0,0,7.42928-20.34276A31.26323,31.26323,0,0,0,99.79558,55.4571Z"/>
      <polygon class="cls-2" points="74.028 118.384 75.651 123.379 80.904 123.379 76.654 126.466 78.277 131.461 74.028 128.374 69.779 131.461 71.402 126.466 67.153 123.379 72.405 123.379 74.028 118.384"/>
      <polygon class="cls-2" points="124.34 67.058 125.963 72.053 131.215 72.053 126.966 75.14 128.589 80.136 124.34 77.048 120.091 80.136 121.714 75.14 117.465 72.053 122.717 72.053 124.34 67.058"/>
      <polygon class="cls-2" points="74.916 18.774 76.539 23.769 81.791 23.769 77.542 26.856 79.165 31.852 74.916 28.764 70.666 31.852 72.289 26.856 68.04 23.769 73.293 23.769 74.916 18.774"/>
      <polygon class="cls-2" points="24.984 67.438 26.607 72.434 31.859 72.434 27.61 75.521 29.233 80.516 24.984 77.429 20.735 80.516 22.358 75.521 18.109 72.434 23.361 72.434 24.984 67.438"/>
      <polygon class="cls-2" points="53.334 80.872 54.469 84.366 58.143 84.366 55.171 86.526 56.306 90.02 53.334 87.861 50.361 90.02 51.497 86.526 48.524 84.366 52.198 84.366 53.334 80.872"/>
      <polygon class="cls-2" points="58.656 68.579 59.792 72.073 63.466 72.073 60.494 74.233 61.629 77.728 58.656 75.568 55.684 77.728 56.819 74.233 53.847 72.073 57.521 72.073 58.656 68.579"/>
      <polygon class="cls-2" points="91.733 69.466 92.868 72.961 96.543 72.961 93.57 75.12 94.705 78.615 91.733 76.455 88.76 78.615 89.896 75.12 86.923 72.961 90.597 72.961 91.733 69.466"/>
    </g>
  </g>
</svg>
