<svg id="allies_tunisia_prem_biker_1_icon" xmlns="http://www.w3.org/2000/svg" width="150" height="150" viewBox="0 0 150 150">
  <defs>
    <style>
      .cls-1 {
        fill: #151515;
      }

      .cls-1, .cls-2 {
        fill-rule: evenodd;
      }

      .cls-2 {
        fill: #eee;
      }
    </style>
  </defs>
  <path id="Shape_281_copy_3" data-name="Shape 281 copy 3" class="cls-1" d="M149.1,147.023H0.9V2.977H149.1V147.023Z"/>
  <path class="cls-2" d="M67.692,86.919c0.783-1.044.783-2,2.175-3.654s4.263-4.437,4.176-5.133-2-1.3-2.523-1.566S62.385,69.519,61.167,69a5.325,5.325,0,0,0-5.22,1.392A13.681,13.681,0,0,1,50.293,75c-2.871,1.218-4,1.479-4.959,2.958s-2,3.567.087,5.046c0,0,7.743,4.959,13.224,5.655S66.909,87.963,67.692,86.919ZM63.6,52.033c-0.609,2.175-1.044,10.962-.261,12.528s8.7,6.873,9.831,7.569,4.524,2.175,5.568.7,0.261-2.523,2.436-4,4.7-2.175,5.394-3.654,0.435-2.262-.609-4.089-1.131-4-1.74-6.612-0.87-3.219-2.175-3.654-16.53-.783-16.53-0.783S64.212,49.858,63.6,52.033ZM52.468,66.039a2.323,2.323,0,0,0-2.871.609s-2.349,1.653-2.523,2.7,0.783,2,1.305,2.436,5.22-1.74,5.655-2.436S53.163,66.213,52.468,66.039Zm3.567-6.7c-0.087-1.305-2.871-4-3.306-4.176s-1.566-1.131-2,0c0,0-1.218,4.872-.87,5.829a4.674,4.674,0,0,0,3.306,2.349C54.294,63.342,56.122,60.645,56.035,59.34Zm5.307-10.875c-0.261-.522-5.307-1.044-6.438-0.957s-2.175,1.392-2.61,2a2.422,2.422,0,0,0-.174,2.436s2.871,2.958,4,3.393C61.363,57.354,60.276,46.334,61.341,48.466Zm-7.047-4.785c1.827,0.348,3.828-.087,4.089-0.87s-1.218-3.915-2.262-4.263-3.045.609-3.48,0.957-1.914,1.218-1.131,2.349A4.6,4.6,0,0,0,54.294,43.681Zm6.84-3.323s1.686,2.453,2.643,4.019,1.142,1.833,3.578,2.616,9.885,1.283,11.364.761,3.328-1.637,2.98-2.507-1.479-1.479-1.566-2.436-0.261-6.7-1.044-7.656-4.943-5.563-5.812-5.911-8.51,5.552-9.554,6.6S60.525,38.792,61.134,40.358ZM53.6,26.455c-0.7,3.741-2,6.351-1.74,7.308a5.664,5.664,0,0,0,4.524,3.48c2.523,0.174,2.784.087,3.132-.174s10.875-9.222,11.136-10.44-4.959-5.655-8.091-8.091A12.938,12.938,0,0,0,54.9,15.494a4.748,4.748,0,0,0-3.045,1.653c-0.261.435-.609,1.131,0.609,2.262A11.7,11.7,0,0,1,53.6,26.455ZM34.72,30.718a6.374,6.374,0,0,0,.087,7.656,5.508,5.508,0,0,0,6.177,2.349,25.856,25.856,0,0,0,6.786-4.7,17.2,17.2,0,0,0,4.089-10.266,14.872,14.872,0,0,0-1.218-6.438c-0.609-1.3-1.914-.261-2.349.087S36.2,28.717,34.72,30.718Zm-3.132-2.784a1.79,1.79,0,0,0,.783-0.957s1.653-1.827,3.306-2,3.48-.783,4-1.479,2.175-2,1.653-2.7A27.755,27.755,0,0,0,36.2,17.233c-1.218-.609-5.046,3.393-5.568,3.828S29.5,24.454,29.5,25.15,31.153,28.021,31.588,27.934ZM26.629,45.508c5.133,0.783,16.268,6.612,16.7,7.221s1.3,0.609,2.436-.087,5.916-6.177,5.394-7.83-3.219-3.915-4.437-4.263a3.037,3.037,0,0,0-3.045.783,6.466,6.466,0,0,1-4.611,1.653c-1.914-.174-5.481-2.784-6.786-4.785s-1.044-5.394-1.044-5.394a2.745,2.745,0,0,0,.087-1.653c-0.261-.261-9.831-0.783-11.484.348a15.146,15.146,0,0,0-4.176,5.307c-0.174.87,2.436,6.351,3.219,7.047S21.5,44.725,26.629,45.508ZM15.58,61.515c0.7,0.783,22.794.435,23.4,0.435s4.524-.174,5.655-2.349-1.131-4.872-2.61-5.742-17.661-6.438-17.661-6.438a3.985,3.985,0,0,0-4.176.87c-0.609.7-4,1.392-5.568,1.479a4.843,4.843,0,0,0-4.263,4.611C10.274,57.339,14.884,60.732,15.58,61.515Zm21.141,3.306C31.414,65,17.407,63.69,17.407,63.69c-1.479-.261-2.349-0.261-2.784.087s-3.654,2.349-3.654,4,5.742,7.134,7.743,7.569,22.01,0.087,23.576,0,3.045-2.088,2.958-3.741S42.028,64.647,36.721,64.821ZM28.543,77.175a1.869,1.869,0,0,0-1.392,1.653s13.833,3.045,14.964,3.219,1.131-3.828.783-4.611S29.413,77.088,28.543,77.175Zm112.923,13.05c-0.087-.87-25.751-2.436-26.621-2.7s-2.784-1.3-1.566-2.61,20.619-4.959,19.314-6.351-29.058-2-30.189-2.175-1.218-1.566.261-2.175,12.789-3.306,13.659-4-1.392-1.653-2.262-1.914-24.272-2-24.794-1.914S74.217,79.872,68.3,89.268a1.574,1.574,0,0,1-1.218.783c-0.87.087-3.306-.087-3.654,0.174a0.612,0.612,0,0,0-.174.7,119.65,119.65,0,0,1,5.481,15.4c2.61,9.135,3.915,11.223,3.915,11.223a1.147,1.147,0,0,0,1.044-1.131c0.174-1.131.522-10.962,1.914-11.832s6,22.794,6.786,23.4,2.871-7.395,3.567-9.831,1.218-4.089,2.175-3.915,1.131,6.7,1.827,10.353,2.784,12.353,3.567,12.788,3.045-4.349,4.089-8.612,1.74-9.744,5.22-14.007,12.006-13.746,17.052-16.877,15.137-5.568,17.921-6.177S141.553,91.095,141.466,90.225ZM83.352,91.573c-2.218,2.61-4.176,9-4.176,9s-1.566.522-1.566-.261,2.741-7.177,4.959-9.917S95.358,78,95.88,77.74a0.685,0.685,0,0,1,.391,1.3C95.358,79.567,85.57,88.963,83.352,91.573Zm10.309,13.963c-1.044,1.3-3.132,5.09-3.654,5.481s-1.435-.913-1.435-0.913,3.262-5.09,3.915-5.873,15.659-16.7,15.92-17.095,1.044-.131,1.305.783S94.705,104.231,93.661,105.536Z"/>
</svg>
