<svg xmlns="http://www.w3.org/2000/svg" width="150" height="150" viewBox="0 0 150 150">
  <defs>
    <style>
      .cls-1 {
        fill: #f6f6f6;
      }

      .cls-2 {
        fill: #2c56db;
      }

      .cls-3 {
        fill: #333;
      }
    </style>
  </defs>
  <g id="Layer_3" data-name="Layer 3">
    <path class="cls-1" d="M70.67343,2.33736H13.77609V120.04373A18.84725,18.84725,0,0,0,32.62334,138.891H60.96927a16.79963,16.79963,0,0,1,9.23,2.61159,10.7412,10.7412,0,0,1,4.74144,6.16008h.11854a10.7412,10.7412,0,0,1,4.74144-6.16008,16.79963,16.79963,0,0,1,9.23-2.61159h28.34593a18.84725,18.84725,0,0,0,18.84725-18.84724V2.33736H70.67343Z"/>
    <g>
      <polygon class="cls-2" points="57.397 14.824 57.397 8.924 18.521 43.825 25.093 43.825 57.397 14.824"/>
      <polygon class="cls-2" points="47.797 2.93 14.369 32.94 14.369 38.947 54.487 2.93 47.797 2.93"/>
      <polygon class="cls-2" points="34.679 43.825 57.397 43.825 57.397 23.43 34.679 43.825"/>
      <polygon class="cls-2" points="38.211 2.93 14.369 2.93 14.369 24.334 38.211 2.93"/>
    </g>
    <polygon class="cls-2" points="63.206 78.596 14.369 116.685 14.369 85.392 63.206 47.302 63.206 78.596"/>
    <polygon class="cls-2" points="86.755 78.596 135.592 116.685 135.592 85.392 86.755 47.302 86.755 78.596"/>
    <polygon class="cls-2" points="86.755 78.596 74.98 70.018 63.206 78.596 63.206 108.783 74.98 100.205 86.755 108.783 86.755 78.596"/>
    <path class="cls-3" d="M75.05957,148.66292h-.11914a.99914.99914,0,0,1-.96582-.74219,9.67766,9.67766,0,0,0-4.32324-5.582,15.76031,15.76031,0,0,0-8.68164-2.44727H32.62305a19.86954,19.86954,0,0,1-19.84668-19.84765V2.33772a.99942.99942,0,0,1,1-1H136.22363a.99942.99942,0,0,1,1,1V120.04378A19.86954,19.86954,0,0,1,117.377,139.89143H89.03027a15.76031,15.76031,0,0,0-8.68164,2.44727,9.67766,9.67766,0,0,0-4.32324,5.582A.99914.99914,0,0,1,75.05957,148.66292ZM14.77637,3.33772V120.04378a17.86756,17.86756,0,0,0,17.84668,17.84765H60.96973a17.74226,17.74226,0,0,1,9.77734,2.77539A12.4614,12.4614,0,0,1,75,145.12a12.4614,12.4614,0,0,1,4.25293-4.45313,17.74226,17.74226,0,0,1,9.77734-2.77539H117.377a17.86756,17.86756,0,0,0,17.84668-17.84765V3.33772Z"/>
  </g>
</svg>
