<svg xmlns="http://www.w3.org/2000/svg" width="150" height="150" viewBox="0 0 150 150">
  <defs>
    <style>
      .cls-1 {
        fill: #c12727;
      }

      .cls-2 {
        fill: #1a1a1a;
      }

      .cls-3 {
        fill: #fcd421;
      }

      .cls-4 {
        fill: #f6f6f6;
      }

      .cls-5 {
        fill: #b3b3b3;
      }
    </style>
  </defs>
  <g id="Layer_5" data-name="Layer 5">
    <g>
      <circle class="cls-1" cx="75" cy="79.59017" r="54.6304"/>
      <path class="cls-2" d="M75,136.49668a56.90651,56.90651,0,1,1,56.9065-56.90651A56.971,56.971,0,0,1,75,136.49668ZM75,27.23589a52.35429,52.35429,0,1,0,52.35429,52.35428A52.41389,52.41389,0,0,0,75,27.23589Z"/>
      <g>
        <g>
          <path class="cls-3" d="M121.57243,51.03481s6.76837,10.636,7.25183,23.68928c0,0,10.40545-6.239,14.9871-16.92091,3.74152-8.72321,3.05837-19.04392.4309-27.83019a62.31966,62.31966,0,0,0-5.74891-12.78S133.90053,35.32253,121.57243,51.03481Z"/>
          <path class="cls-2" d="M127.46548,77.22966l-.09064-2.45174c-.46221-12.4839-6.961-22.86166-7.02662-22.965l-.54908-.86588.63217-.80733C132.41429,34.8674,137.042,17.015,137.08737,16.83652l.84652-3.3332,1.79643,2.93189a63.17555,63.17555,0,0,1,5.90155,13.12221c1.82145,6.09087,4.18018,17.93457-.48771,28.8175-4.71227,10.98632-15.133,17.32836-15.57395,17.59322Zm-4.14005-26.0891a54.88366,54.88366,0,0,1,6.7745,20.94814c3.16371-2.3441,9.24419-7.54926,12.37862-14.85727,4.30671-10.0416,2.083-21.12848.37439-26.84307a56.68447,56.68447,0,0,0-3.9479-9.46419A103.80423,103.80423,0,0,1,123.32543,51.14056Z"/>
          <path class="cls-2" d="M123.52727,53.904s13.62082-16.74225,18.0665-29.13341l1.89178,3.78356a166.46495,166.46495,0,0,1-19.48533,25.91738Z"/>
          <path class="cls-2" d="M123.75627,58.155s15.4464-15.07443,21.28021-26.87577l1.4466,3.97511A166.46509,166.46509,0,0,1,124.1612,58.77292Z"/>
          <path class="cls-2" d="M124.90576,61.54274s15.46074-12.25711,21.49539-22.22461l1.27559,3.56006a147.32552,147.32552,0,0,1-22.39809,19.22863Z"/>
          <path class="cls-2" d="M125.83261,64.96573s14.21445-9.12791,20.0545-17.026l.91536,3.07032A124.75406,124.75406,0,0,1,126.127,65.46463Z"/>
          <path class="cls-2" d="M127.37943,68.627s11.679-6.39357,16.68065-12.26924l.57275,2.45355A98.1273,98.1273,0,0,1,127.5876,69.03339Z"/>
        </g>
        <g>
          <path class="cls-3" d="M28.42757,51.03481s-6.76837,10.636-7.25183,23.68928c0,0-10.40545-6.239-14.9871-16.92091C2.44712,49.08,3.13027,38.75926,5.75774,29.973a62.31966,62.31966,0,0,1,5.74891-12.78S16.09947,35.32253,28.42757,51.03481Z"/>
          <path class="cls-2" d="M22.53452,77.22966l.09064-2.45174c.46221-12.4839,6.961-22.86166,7.02662-22.965l.54908-.86588-.63217-.80733C17.58571,34.8674,12.958,17.015,12.91263,16.83652l-.84652-3.3332-1.79643,2.93189A63.17555,63.17555,0,0,0,4.36813,29.55742C2.54668,35.64829.188,47.492,4.85584,58.37492c4.71227,10.98632,15.133,17.32836,15.574,17.59322Zm4.14-26.0891a54.88366,54.88366,0,0,0-6.7745,20.94814c-3.16371-2.3441-9.24419-7.54926-12.37862-14.85727-4.30671-10.0416-2.083-21.12848-.37439-26.84307a56.68447,56.68447,0,0,1,3.9479-9.46419A103.80423,103.80423,0,0,0,26.67457,51.14056Z"/>
          <path class="cls-2" d="M26.47273,53.904S12.85191,37.16176,8.40623,24.7706L6.51445,28.55416A166.46495,166.46495,0,0,0,25.99978,54.47154Z"/>
          <path class="cls-2" d="M26.24373,58.155S10.79733,43.08059,4.96352,31.27925l-1.4466,3.97511A166.46509,166.46509,0,0,0,25.8388,58.77292Z"/>
          <path class="cls-2" d="M25.09424,61.54274S9.6335,49.28563,3.59885,39.31813L2.32326,42.87819A147.32552,147.32552,0,0,0,24.72135,62.10682Z"/>
          <path class="cls-2" d="M24.16739,64.96573s-14.21445-9.12791-20.0545-17.026l-.91536,3.07032A124.75406,124.75406,0,0,0,23.873,65.46463Z"/>
          <path class="cls-2" d="M22.62057,68.627S10.94161,62.2334,5.93992,56.35773l-.57275,2.45355A98.1273,98.1273,0,0,0,22.4124,69.03339Z"/>
        </g>
      </g>
      <g>
        <g>
          <path class="cls-4" d="M49.89455,61.10955a42.76747,42.76747,0,0,1-14.6801-5.06633,14.50431,14.50431,0,1,0,26.46162,5.45486A45.13226,45.13226,0,0,1,49.89455,61.10955Z"/>
          <path class="cls-3" d="M48.43618,61.36188a23.70578,23.70578,0,0,1-8.79107-3.32263,10.49285,10.49285,0,0,0-1.41617,4.69849c-.32069,5.33983,3.30842,9.90214,8.10587,10.19025s8.94649-3.80707,9.26718-9.1469a10.75683,10.75683,0,0,0-.09562-2.20766A24.36033,24.36033,0,0,1,48.43618,61.36188Z"/>
          <path class="cls-2" d="M46.43222,79.72517a15.81455,15.81455,0,0,1-12.31866-24.398l.68367-1.051,1.08146.63394A41.424,41.424,0,0,0,50.10361,59.813a43.58171,43.58171,0,0,0,11.436.37889l1.22464-.12794.20617,1.21374a15.8092,15.8092,0,0,1-16.5382,18.44745ZM35.69549,57.81875A13.19225,13.19225,0,1,0,60.52973,62.918a46.78774,46.78774,0,0,1-10.84389-.51171h0A44.88438,44.88438,0,0,1,35.69549,57.81875Z"/>
          <path class="cls-2" d="M46.33482,72.928a7.92237,7.92237,0,0,0,3.54372-.61063,30.275,30.275,0,0,1-2.71234-9.02531s-2.7184,5.48105-5.51835,7.74718A8.0444,8.0444,0,0,0,46.33482,72.928Z"/>
        </g>
        <g>
          <path class="cls-4" d="M100.10545,61.10955a42.76747,42.76747,0,0,0,14.6801-5.06633,14.50431,14.50431,0,1,1-26.46162,5.45486A45.13226,45.13226,0,0,0,100.10545,61.10955Z"/>
          <path class="cls-3" d="M101.56382,61.36188a23.70578,23.70578,0,0,0,8.79107-3.32263,10.49285,10.49285,0,0,1,1.41617,4.69849c.32069,5.33983-3.30842,9.90214-8.10587,10.19025s-8.94649-3.80707-9.26718-9.1469a10.75683,10.75683,0,0,1,.09562-2.20766A24.36033,24.36033,0,0,0,101.56382,61.36188Z"/>
          <path class="cls-2" d="M103.56778,79.72517a15.81455,15.81455,0,0,0,12.31866-24.398l-.68367-1.051-1.08146.63394A41.424,41.424,0,0,1,99.89639,59.813a43.58171,43.58171,0,0,1-11.436.37889L87.23575,60.064l-.20617,1.21374a15.8092,15.8092,0,0,0,16.5382,18.44745Zm10.73673-21.90642A13.19225,13.19225,0,1,1,89.47027,62.918a46.78774,46.78774,0,0,0,10.84389-.51171h0A44.88438,44.88438,0,0,0,114.30451,57.81875Z"/>
          <path class="cls-2" d="M103.66518,72.928a7.92237,7.92237,0,0,1-3.54372-.61063,30.275,30.275,0,0,0,2.71234-9.02531s2.7184,5.48105,5.51835,7.74718A8.0444,8.0444,0,0,1,103.66518,72.928Z"/>
        </g>
      </g>
      <path class="cls-2" d="M85.56176,113.87345,84.679,79.0647l-2.144,1.26116V77.299l2.27009-1.51345L82.4088,53.4626,79.382,58.63342l-3.7836-7.441H74.40164l-3.78354,7.441L67.5912,53.4626,65.195,75.78556,67.46514,77.299v3.02685l-2.144-1.26116-.88288,34.80875s-.33237,11.86624,9.50586,13.032H76.0559C85.89426,125.73969,85.56176,113.87345,85.56176,113.87345Z"/>
      <g>
        <polygon class="cls-5" points="78.235 86.334 76.332 61.998 78.461 58.274 79.72 58.993 77.813 62.331 79.441 83.147 82.369 80.31 83.379 81.351 78.235 86.334"/>
        <polygon class="cls-5" points="71.765 86.334 73.668 61.998 71.539 58.274 70.28 58.993 72.187 62.331 70.559 83.147 67.631 80.31 66.621 81.351 71.765 86.334"/>
      </g>
    </g>
  </g>
</svg>
