<svg xmlns="http://www.w3.org/2000/svg" width="150" height="150" viewBox="0 0 150 150">
  <defs>
    <style>
      .cls-1 {
        fill: #d42b31;
      }

      .cls-2 {
        fill: #151515;
      }

      .cls-3 {
        fill: #1f701f;
      }

      .cls-4 {
        fill: #fbdb26;
      }
    </style>
  </defs>
  <g id="Layer_5" data-name="Layer 5">
    <g>
      <circle class="cls-1" cx="74.99988" cy="75" r="71.04"/>
      <path class="cls-2" d="M75,6.92A68.08,68.08,0,1,1,6.92,75,68.15708,68.15708,0,0,1,75,6.92M75,1a74,74,0,1,0,74,74A74,74,0,0,0,75,1Z"/>
      <path class="cls-3" d="M72.76735,128.57484a3.50526,3.50526,0,0,1-.84984-.10695c-1.62068-.41336-8.98117-6.73323-13.57823-11.65789-2.6324-2.82029-4.70786-6.8026-6.37575-10.00253-.48081-.92211-.92115-1.76713-1.32391-2.48593a58.59365,58.59365,0,0,0-3.92547-5.657,54.42805,54.42805,0,0,1-4.281-6.25531c-1.12252-2.16508-1.31041-5.73885-1.62067-11.66078-.12141-2.32117-.2592-4.95164-.47888-8.034a38.84985,38.84985,0,0,0-1.35282-6.924c-.86815-3.37143-1.76713-6.85753-1.479-10.81.48948-6.7419,2.22674-10.47562,5.471-15.40125,3.22112-4.8919,4.87648-9.02838,5.2089-13.01937.19657-2.36453,2.78271-6.079,5.815-6.17052l.20909-.00289c3.53909,0,6.89414,2.61505,8.51385,5.0451,1.87409,2.81065,3.35409,5.03065,5.5288,5.03065a3.1596,3.1596,0,0,0,1.97815-.72265c1.057-.846,1.64573-2.34045,2.46089-4.40821a27.70858,27.70858,0,0,1,2.3337-4.93333c2.34718-3.58919,4.19718-4.00448,5.38427-4.00448l.211.00482c1.18805.054,1.50891,2.48979,1.59467,3.937a26.10937,26.10937,0,0,1-.1879,3.03516c-.33049,3.48705-.59161,6.24182,1.83362,6.64458a2.85591,2.85591,0,0,0,.46925.03854c2.0851,0,4.62115-2.4869,6.38154-4.573.66869-.75638,2.84919-2.934,4.54888-3.52849a3.35812,3.35812,0,0,1,1.11578-.20908c2.22578,0,4.03916,3.16138,5.16843,5.81208A67.53142,67.53142,0,0,0,107.12532,38.477c.237.38157.476.767.72266,1.17167,1.479,2.43005,4.81674,8.75956,3.8532,15.0168a41.2792,41.2792,0,0,1-2.802,9.673,21.72975,21.72975,0,0,0-1.02906,2.91568,80.04943,80.04943,0,0,0-.8113,17.15682c.477,4.0594-1.29693,11.02485-4.30029,13.92125-4.043,3.89849-7.88851,7.92706-8.6526,10.97956-.50683,2.02633-2.41367,6.39213-6.00287,8.41172-1.10807.62341-2.061,1.05508-2.98216,1.47229a14.50541,14.50541,0,0,0-6.91823,5.40161C76.30548,127.23648,74.47668,128.57484,72.76735,128.57484Z"/>
      <path class="cls-4" d="M79.93972,18.41349a9.16109,9.16109,0,0,1,.30074,2.03692,27.03926,27.03926,0,0,1-.18175,2.73718c-.34049,3.59462-.76433,8.06822,3.47237,8.77438a4.84414,4.84414,0,0,0,.7948.06528c.84888,0,3.42852.00012,7.86057-5.23926a13.00581,13.00581,0,0,1,3.72192-2.973,1.49527,1.49527,0,0,1,.46407-.09816c.38614,0,1.74112.82853,3.35252,4.61187a69.12775,69.12775,0,0,0,5.72235,11.186c.23439.37759.47094.75891.71471,1.15938,1.06652,1.7522,4.47722,7.91766,3.58883,13.69217a39.51866,39.51866,0,0,1-2.683,9.23542,23.44433,23.44433,0,0,0-1.11891,3.20161,81.4364,81.4364,0,0,0-.85,17.83817c.41336,3.514-1.21755,9.86618-3.71047,12.27-4.9166,4.74123-8.36222,8.583-9.19713,11.92214-.50574,2.02332-2.2695,5.60239-5.05558,7.16947-1.03328.58126-1.94612.99462-2.82884,1.39449a16.533,16.533,0,0,0-7.707,6.048c-1.4205,1.97622-2.85281,3.15608-3.8314,3.15608a1.454,1.454,0,0,1-.27835-.02758c-1.84506-.81985-8.65465-6.7678-12.70815-11.111-2.44932-2.62433-4.45662-6.47476-6.06947-9.56857-.47755-.91621-.92861-1.78147-1.35148-2.53653A59.7317,59.7317,0,0,0,48.295,97.48352,53.51053,53.51053,0,0,1,44.18485,91.501c-.92584-1.78568-1.11493-5.392-1.40111-10.85092-.12225-2.33117-.26075-4.97332-.48237-8.07629a41.0117,41.0117,0,0,0-1.40954-7.27606c-.829-3.21751-1.6862-6.5445-1.42219-10.1738.46142-6.34552,2.02874-9.71864,5.15122-14.46,3.40985-5.17783,5.16615-9.60747,5.52723-13.94028.11671-1.40087,1.99947-4.30414,3.90885-4.36195l.148-.00229c2.65962,0,5.52592,2.14677,6.87234,4.1666,2.11389,3.17077,3.93944,5.90916,7.17068,5.90916a5.10678,5.10678,0,0,0,3.21173-1.15577c1.46651-1.17311,2.1711-2.9606,3.06322-5.22348a26.24489,26.24489,0,0,1,2.15014-4.57839c1.533-2.34466,2.63625-2.92194,3.26665-3.06406m.46418-3.99316c-2.695,0-4.92454,1.671-7.03409,4.89732-2.18772,3.34614-3.08863,7.85046-4.37557,8.88a1.18022,1.18022,0,0,1-.74626.29087c-1.063,0-2.22289-1.65573-3.8868-4.15166-2.01585-3.024-6.00456-5.9241-10.15622-5.9241-.089,0-.179.00145-.2681.0041-4.24705.12863-7.46444,4.89033-7.72182,7.97909-.25739,3.08863-1.41557,6.82091-4.89034,12.09738-3.47489,5.27648-5.27659,9.26614-5.79137,16.34432C35.01856,61.916,37.97856,67.44981,38.3647,72.855c.81684,11.43639.51477,16.98784,2.31648,20.46261S47.116,102.069,48.91765,105.2864c1.80182,3.21739,4.37568,9.00864,7.97921,12.86955,3.6034,3.86091,11.96863,11.58261,14.54261,12.22614a5.46115,5.46115,0,0,0,1.32909.16621c2.20735,0,4.57742-1.37859,7.03614-4.79928,2.96-4.1183,5.14772-3.98955,9.266-6.30614,4.1183-2.31648,6.30614-7.0783,6.94954-9.65216.64353-2.57386,4.50444-6.56353,8.10785-10.0383,3.60352-3.47477,5.40522-11.19647,4.89045-15.57216a79.622,79.622,0,0,1,.77216-16.47307c.51477-2.18772,2.83137-6.04863,3.86091-12.74079s-2.31659-13.38431-4.1183-16.34431a69.00221,69.00221,0,0,1-6.17738-11.84c-2.31419-5.43329-4.78531-7.01194-6.98351-7.01194a5.3456,5.3456,0,0,0-1.76774.31966c-2.574.90091-5.40523,4.1183-5.40523,4.1183s-3.26749,3.87247-4.87359,3.87247a.88146.88146,0,0,1-.14562-.01156c-.96679-.16116.12876-5.66262,0-7.85046-.12863-2.18784-.6434-5.66261-3.47477-5.79137-.10129-.00457-.20162-.00686-.30159-.00686Z"/>
    </g>
  </g>
</svg>
