<svg xmlns="http://www.w3.org/2000/svg" width="150" height="150" viewBox="0 0 150 150">
  <defs>
    <style>
      .cls-1 {
        fill: #1555bf;
      }

      .cls-2 {
        fill: #b3b3b3;
        stroke-miterlimit: 10;
      }

      .cls-2, .cls-5 {
        stroke: #1a1a1a;
        stroke-width: 1.44643px;
      }

      .cls-3 {
        fill: #f4f4f4;
      }

      .cls-4 {
        fill: #c12748;
      }

      .cls-5 {
        fill: none;
        stroke-linecap: round;
        stroke-linejoin: round;
      }

      .cls-6 {
        fill: #1a1a1a;
      }
    </style>
  </defs>
  <g id="Layer_7" data-name="Layer 7">
    <path class="cls-1" d="M74.76722,125.49571c-3.67541-2.2996-21.06933-14.06647-36.19285-39.38188C19.32391,53.8902,20.77081,13.02139,21.3476,4.17423H128.18638c.573,8.85234,2.00673,49.74516-17.22631,81.9396C95.83891,111.42547,78.44687,123.19328,74.76722,125.49571Z"/>
    <path class="cls-2" d="M115.69712,88.3818c-5.78574,1.25777-7.79824,9.559-9.68492,15.219-1.88655,5.66-8.6786,7.6724-13.8354,11.44569s-7.79812,9.8106-10.31372,12.07459c-1.85183,1.66676-4.9288,1.96975-6.42444,2.0138l-.0067-.00138s-.10642.00539-.29216.00745l-.0731.00055-.06663.00021-.06662-.00021-.07322-.00055c-.18575-.00206-.29216-.00745-.29216-.00745l-.00671.00138c-1.49563-.044-4.57248-.347-6.42443-2.0138-2.5156-2.264-5.15692-8.30127-10.31372-12.07459-5.15692-3.77329-11.94885-5.78573-13.83552-11.44569-1.88656-5.65993-3.89906-13.96121-9.6848-15.219s-9.87348,16.28809-9.87348,16.28809,5.84871,13.77257,11.38277,17.67163c5.53431,3.89909,10.94266,6.16309,13.96124,9.93638,3.0187,3.77331,3.89918,6.16308,6.5405,9.18172C58.9551,144.47826,64.86666,148,73.92264,148a6.11526,6.11526,0,0,0,1.07741-.10341A6.11407,6.11407,0,0,0,76.07734,148c9.056,0,14.96743-3.52174,17.60887-6.54038,2.6412-3.01864,3.52168-5.40841,6.54026-9.18172,3.0187-3.77329,8.42717-6.03729,13.96124-9.93638,5.5343-3.89906,11.38289-17.67163,11.38289-17.67163S121.48285,87.124,115.69712,88.3818Z"/>
    <path class="cls-3" d="M117.69385,23.70108c-1.08483,1.03765-.51887,3.44314-.51887,3.44314-.66036-.283-2.64132-1.03765-2.64132-1.03765s-.37726-.283-.33018-1.132c.0472-.849,1.22631-1.46215,1.22631-1.46215a2.02543,2.02543,0,0,0-2.7828,1.60364c-1.46209-1.22632.09428-2.31114,1.03762-2.83a5.73373,5.73373,0,0,1,2.68852-.33015,2.44036,2.44036,0,0,0,.37738.89616c.283.37732,1.88667-.66033,2.26394-.89616s2.31114-1.46215,2.31114-1.46215l-1.3678-.18869c.94333-.94331.99053-3.77329.99053-3.77329a2.68594,2.68594,0,0,0,.89614-2.35831l-.89614.566s.09429-4.15064-2.83-4.811-4.99965,1.17917-6.13156,4.05632a7.12889,7.12889,0,0,0-.3303,4.90528,2.80529,2.80529,0,0,1-.14149,1.88665,6.45931,6.45931,0,0,0-1.46209,1.55649,3.67548,3.67548,0,0,0-.56607,2.12248c.18869,3.72614,3.82055,4.3393,4.48079,4.48082.66036.14148,3.91483,1.03765,3.82055,3.86763s-2.73573,1.981-3.396,1.46214c-.66036-.51884-1.93387-2.7828-2.78281-3.72614a11.3582,11.3582,0,0,1-2.49982-3.113,9.04024,9.04024,0,0,1-.283-3.25447,18.40671,18.40671,0,0,0-1.32072,1.7923l-.42447-1.132a4.49408,4.49408,0,0,1-1.83947,2.59414l-.66036-1.132A3.90718,3.90718,0,0,1,101.563,29.644a6.24323,6.24323,0,0,1,2.73561,1.88667,4.243,4.243,0,0,1-.47167,3.16013,5.77306,5.77306,0,0,0-1.46209,4.19781,3.2257,3.2257,0,0,0,1.79227,3.113,3.24685,3.24685,0,0,1-.0472-2.4998s.23589-.23584.99053.75464,1.698.66033,2.31114.80185,1.27352.566,1.13191,2.78281c-.14149,2.21682-1.55637,2.35831-1.55637,2.35831s-.80185-1.17917-1.50929-1.415a1.24612,1.24612,0,0,0-1.132.09432,1.583,1.583,0,0,0-1.32072,1.03765c1.27352-.23583,1.36792.47167,1.36792.47167a.89663.89663,0,0,0-1.32072.51884,2.02406,2.02406,0,0,0-.47166,1.83947,1.495,1.495,0,0,1,.94333-.61315l.89614-.04718s-.99042.23584-1.13191.849a4.567,4.567,0,0,0,0,1.46218,2.87713,2.87713,0,0,0,.84893,1.22631s.18869-1.36783.23589-1.55649c.04709-.18866,1.08483-.849,1.08483-.849a2.94543,2.94543,0,0,0-.42459,1.22631,2.01513,2.01513,0,0,0,.37738.849,3.057,3.057,0,0,0,.75465,1.60364,5.45271,5.45271,0,0,1,.47167-1.88664,1.44354,1.44354,0,0,0,.94333-.18866,4.16217,4.16217,0,0,0,.99043-1.27349,5.38655,5.38655,0,0,0,.37738.94331,1.684,1.684,0,0,0,.66024.89616l.18881-.849a1.76948,1.76948,0,0,0,.613-.4245c.33018-.33015.23589-1.74515.23589-1.74515l.61316-.66033a1.29436,1.29436,0,0,0,.566-.04717c.37738-.09432.89613-.94331.89613-.94331s-.613-.09435-.75452-.09435c-.14161,0-.2831-.61315.37726-.849s.89613-1.88664.89613-1.88664a1.42557,1.42557,0,0,1-.70744.18866c-.283-.04717.18857-.566.18857-.566a1.57126,1.57126,0,0,0,.99054-1.65081c-.33018.283-.849-.14149-.849-.14149a2.85563,2.85563,0,0,0,.99054-1.22634,1.58408,1.58408,0,0,0-.18869-1.698s-1.50929,1.46214-2.12245,1.415-1.03762-.18866-.89613-1.32066a9.47221,9.47221,0,0,1,1.74518-3.113,4.22239,4.22239,0,0,0,4.85805,1.79233.6878.6878,0,0,1,.42459-.47167,1.54537,1.54537,0,0,1,.566.4245c.37738.37732,1.65078.04717,1.65078.04717-.70744-.14152-1.03762-1.132-1.03762-1.132a6.52762,6.52762,0,0,0,1.3678-4.05629c-.09428-2.31117-.75464-2.87715-.75464-2.87715a1.79662,1.79662,0,0,0,.70744-.47167c.283-.33015,0-1.88664.14149-3.72614s2.26405-2.68846,2.26405-2.68846S118.77867,22.66343,117.69385,23.70108Zm-4.15073-4.85814c.849.66033,2.49983.18866,2.49983.18866l-.18869-1.132c1.50941,0,1.6037-2.264,1.6037-2.264a2.1339,2.1339,0,0,1-1.6037,0,1.63658,1.63658,0,0,1,.0944-2.92433,1.92417,1.92417,0,0,1,2.68852,1.36784,4.47366,4.47366,0,0,1-.66035,4.29212c-1.415,1.5565-5.04686,1.8395-5.04686,1.8395Z"/>
    <path class="cls-3" d="M100.88687,30.33581a5.2538,5.2538,0,0,1,2.48409,1.16343,3.19593,3.19593,0,0,1-.12577,3.113l-.94333-2.29543s-.31444.22011-.283.37733.566,2.9872.566,2.9872l-.40878.53455s-.97477-2.547-1.28921-3.2073l-.31444.12577s.69177,2.67276,1.16343,4.18208l-.09433.88044a48.01783,48.01783,0,0,1-1.91809-4.6223l-.44022.47166a20.03465,20.03465,0,0,0,2.547,5.53418s.03144,1.57221-.47167,1.698-.88043.18867-.88043.18867l.62888.5031a1.64985,1.64985,0,0,1-1.60365,1.16344c-1.415.15722-1.6351.18866-1.88666.37733s.15723.88044,0,1.60365-1.28921,1.03766-1.28921,1.03766a1.57967,1.57967,0,0,1-1.54076.12578s1.00621-.566,1.00621-1.22633-.25155-.97477-.34589-.97477a.96228.96228,0,0,0-1.132.25156c-.47166.566-1.132.75466-1.57221.40877a1.63467,1.63467,0,0,0-.97477.566,4.50117,4.50117,0,0,1,.12578-2.07532,2.331,2.331,0,0,1,.88044-.97477s-1.32066.06289-1.44644-.849a1.526,1.526,0,0,0-1.25776.37733,2.87178,2.87178,0,0,1,.66032-1.54077,1.91852,1.91852,0,0,1,1.6351-.283.98413.98413,0,0,1-.53455-.849A1.41445,1.41445,0,0,0,90.82473,38.7s1.415-1.415,2.57842-.72322a3.83493,3.83493,0,0,1,1.6351,1.88665c.15722.31444.03144,1.00622,1.25777.34589a3.07961,3.07961,0,0,0,1.72943-2.2011c-.09433-.31444-.75466.18867-.75466.18867a3.38932,3.38932,0,0,1-.47166-1.32066c-.09434-.75466-.59744.03145-.75467.44022a3.04765,3.04765,0,0,1-.44021-3.05009,1.4697,1.4697,0,0,0-1.10055.18867,3.207,3.207,0,0,1,1.44643-2.7042A5.32063,5.32063,0,0,1,100.88687,30.33581Z"/>
    <path class="cls-3" d="M94.12637,24.73874a3.3494,3.3494,0,0,0-.03145,2.01243,7.47349,7.47349,0,0,0,3.08154-.88044,2.76933,2.76933,0,0,0,.37733,1.66654.67408.67408,0,0,0,.72321.12578l-.12577.75466s-2.01243.81755-2.13821.94333.34589.66033-.283,1.10055a2.37312,2.37312,0,0,1-.94332.47166,1.61846,1.61846,0,0,1-.66033,1.25777s-.18867-.88044-.44022-1.06911-1.03766,0-1.03766,0,.566,2.42121-.66033,2.86143a1.52665,1.52665,0,0,1-.62888.09433,2.759,2.759,0,0,1-1.44644.12578,2.02572,2.02572,0,0,0,.59744-1.00622c.03145-.47166-.31444-1.44643-.53455-1.415s-.97477.81755-1.50932.72322a1.02254,1.02254,0,0,1-.72322-.44022,2.42029,2.42029,0,0,0-.69177,1.38354s-.849-1.19488-.566-1.91809,1.0691-1.38355,1.415-1.32066c0,0-.44022.40878-1.132-.53455,0,0-.59744-.47166-1.54076.25155a3.07351,3.07351,0,0,1,.849-1.66654c.62889-.44022,1.82377-.03144,1.82377-.03144a2.29966,2.29966,0,0,1-.566-.88044A1.57682,1.57682,0,0,0,85.8251,26.877a2.43124,2.43124,0,0,1,2.23254-.97477.91758.91758,0,0,1,1.00621-.09434,7.61292,7.61292,0,0,1,1.66654,1.79232c.12578.15722,1.66655-1.38354,1.88666-1.88665S94.12637,24.73874,94.12637,24.73874Z"/>
    <path class="cls-3" d="M98.71722,28.13471a5.75206,5.75206,0,0,0,1.79232-1.94954,12.62141,12.62141,0,0,1,.59744,3.396A4.82986,4.82986,0,0,1,98.71722,28.13471Z"/>
    <path class="cls-3" d="M92.11394,13.41883a42.64039,42.64039,0,0,0,2.89287,4.811,2.21232,2.21232,0,0,1,.03144,2.10676,3.21946,3.21946,0,0,1-1.981,1.10055s1.10054,1.50932,2.16965,1.54076a5.25732,5.25732,0,0,0-.44022,2.10677s-.47167-.37733-.44022-.78611a7.367,7.367,0,0,1-2.38976-.7861c-.44022-.44022-.40878-2.32687-.40878-2.32687l-.44022.62888a5.57925,5.57925,0,0,1-.91188-3.01864S88.65508,18.67,88.37208,17.821c0,0,1.0691,0,.72322-.566a6.26679,6.26679,0,0,0-.849-1.19488c-.09433-.03144-1.28921-1.19488-1.698-1.0691,0,0,.40877-1.25777,1.3521-.75466,0,0-.44022-1.19488-.66033-1.25777s-1.44644-.69177-2.10676-.09433c0,0,.12577-1.03766.7861-1.32066a1.06921,1.06921,0,0,1,1.16344-.283,1.51178,1.51178,0,0,0-1.79232-.75466s.62888-.66033.91188-.72322,1.00621-1.03765,1.94954.18867a1.09019,1.09019,0,0,0-.12578-.75466c-.22011-.34589-1.03766-.53455-1.03766-.53455A2.07452,2.07452,0,0,1,88.718,8.545a1.99494,1.99494,0,0,1,1.50932,1.47787s.5031-.97477.22011-1.38354c0,0,1.132.25155,1.25776,1.03766a2.1497,2.1497,0,0,1,.566,1.60365A10.38821,10.38821,0,0,0,92.11394,13.41883Z"/>
    <path class="cls-3" d="M110.47734,11.59506a2.193,2.193,0,0,0-1.44644-.88045s.47167-.34586.53453-.69176S110.6346,8.9852,110.6346,8.9852a5.61164,5.61164,0,0,0-2.4212-.22012c-.15726-.37732-1.415-1.16343-1.415-1.16343a3.725,3.725,0,0,1-.88048.81754,1.8,1.8,0,0,0-.69179.97476s-2.60989-.283-3.2387.06289a.78052.78052,0,0,0-.37738.97479s-3.17585.12578-3.61609.09432-.50309.44021-.44024,1.57221c.063,1.132.7862,3.30164,1.44644,3.113a5.35236,5.35236,0,0,1,2.16965.3459s.62893-1.06911,1.03774-1.03768c.40869.03145.3144.97479.3144.97479s1.38352-1.00622,2.01245-.283a8.30863,8.30863,0,0,1,1.132,2.264c-.26885.8482-1.09862.55135-1.44645-.06291a3.93394,3.93394,0,0,1,0,3.08156c-1.698-.31447-1.94952-.849-1.94952-.849-.4087,1.76087-2.48407,1.57222-2.48407,1.57222-.37738-1.38355.03143-1.7609.03143-1.7609-2.16965.7861-2.07536-.47167-2.07536-.47167a2.61958,2.61958,0,0,0-1.79227-.849c.88036,3.01864-1.72941,3.58465-1.72941,3.58465-.03143.12578,1.44643,1.00623,2.26393.44021a11.4939,11.4939,0,0,0,1.82382-1.82375l.566.12577-.34583.44021a32.54712,32.54712,0,0,0-2.7043,2.45266,5.1095,5.1095,0,0,0-.66036,2.29542c1.761-.18866,2.01251-.40878,2.73573-1.2892s2.57846-2.7042,2.57846-2.7042l.15714.31443a18.67469,18.67469,0,0,0-2.29536,2.79852,8.05923,8.05923,0,0,0-.37738,2.51555,1.93713,1.93713,0,0,0,1.19488-.44021,8.90714,8.90714,0,0,0,1.761-3.20731,7.27926,7.27926,0,0,1,1.352-2.23253l.283.34586c-.91179,1.132-1.82369,3.27022-1.60369,4.11921.22012.849.6919,2.79852.6919,2.79852a5.59433,5.59433,0,0,0,1.72941-1.32066c.75465-.88042.84894-2.57843,1.0062-3.27019s.72321-3.42742.72321-3.42742a1.01883,1.01883,0,0,1,.34584.72322c0,.44021-.47167,2.04387-.566,2.98721a4.153,4.153,0,0,0,.62881,2.10676c.66036-.69178,1.478-3.36453,2.0125-4.6223a4.50008,4.50008,0,0,0,.31441-2.38977l.47167.25155c.37738.97479-.5031,2.51554-.72322,3.30164a1.841,1.841,0,0,0,.31441,1.4779,49.35751,49.35751,0,0,1,3.05013-4.30788c.283-.40875-.06286-1.50932-.31441-3.01864a5.40715,5.40715,0,0,1,.59738-3.05007A4.2817,4.2817,0,0,0,110.47734,11.59506Zm-7.73526,0c-.14149.14149.17289.37731-.06289.566-.23589.18866-.88045-.81755-.88045-1.00621s1.17911-.47167,1.3678-.14152a6.78745,6.78745,0,0,1,.23589,1.698S102.88357,11.45358,102.74208,11.59506Zm4.57513-.959c.61328.04717,1.69795.80182,1.74515,2.547s-1.8867,1.415-1.8867,1.415.9-.38312.99054-.89617a2.1243,2.1243,0,0,0-.70756-2.264,1.76241,1.76241,0,0,0-1.46209-.18866A2.23464,2.23464,0,0,1,107.31721,10.636Zm-.849,9.33892a10.13982,10.13982,0,0,0-1.17923-4.38647l.42458-.14149a10.00654,10.00654,0,0,1,1.415,3.82047Zm2.92429-.99051a9.1154,9.1154,0,0,0-2.64132-3.44314l.42447-.18866a5.42888,5.42888,0,0,1,2.49983,3.2073Z"/>
    <path class="cls-3" d="M101.65725,15.77714a1.26249,1.26249,0,0,1,.51883,1.03766,1.78763,1.78763,0,0,1-.66032,1.32066,5.99619,5.99619,0,0,1-1.698-.566c-.1415-.09433-1.22633.37733-1.88665.18867,0,0,.23583,1.415,1.03766,1.415a2.73571,2.73571,0,0,0,1.415-.4245l.23584.1415a2.35832,2.35832,0,0,0-.47167,1.55649,2.50927,2.50927,0,0,0,1.981-2.07532,7.21362,7.21362,0,0,0,1.88665,1.60365s-.04717-2.264-.89616-3.16014l1.50932.33017s-.33016-1.132-1.03766-1.27349a1.97467,1.97467,0,0,0-1.27349.18866s-.18866-.75466-.37733-.80183S101.65725,15.77714,101.65725,15.77714Z"/>
    <path class="cls-3" d="M94.771,11.15484A3.01146,3.01146,0,0,1,95.903,10.07c.61316-.23583.94332.80183,1.03765,1.698s-.04716,3.82047,1.03766,4.245a5.01927,5.01927,0,0,0,2.83,0c.283-.09433,1.22632.94333.89616,1.132a2.33287,2.33287,0,0,1-1.50932.09433,13.187,13.187,0,0,1-3.01864-.18867c-.3458-.09725-1.08483-.23583-1.27349-2.21681C95.80418,13.79657,95.62,11.43784,94.771,11.15484Z"/>
    <path class="cls-3" d="M110.96007,86.11383a103.23793,103.23793,0,0,0,6.36028-12.5796l-73.8419-69.36H21.3476a168.84778,168.84778,0,0,0,.22871,22.82791l78.99741,74.20248A140.95479,140.95479,0,0,0,110.96007,86.11383Z"/>
    <path class="cls-4" d="M110.96007,86.11383a101.19971,101.19971,0,0,0,5.0159-9.54448L38.90267,4.17423H21.3476a163.84793,163.84793,0,0,0-.05486,18.26358l81.20379,76.27493A141.98771,141.98771,0,0,0,110.96007,86.11383Z"/>
    <path class="cls-3" d="M126.37151,6.10281a171.67256,171.67256,0,0,1-.60033,24.28658c-1.39229,14.72606-5.37939,36.176-16.46683,54.73552-13.80268,23.10441-29.49863,34.73294-34.53689,38.07577-5.04533-3.34777-20.73763-14.97645-34.53737-38.07577C29.175,66.6196,25.18262,45.24147,23.78009,30.56606a172.175,172.175,0,0,1-.61515-24.46325H126.37151m3.60125-3.85716H19.56168S14.74024,49.978,36.91888,87.10307C54.3493,116.28,74.52615,127.60321,74.52615,127.60321h.48214S95.18514,116.28,112.61556,87.10307C134.7942,49.978,129.97276,2.24565,129.97276,2.24565Z"/>
    <path class="cls-5" d="M62.95468,2.24565h-43.393S14.74024,49.978,36.91888,87.10307C54.34925,116.28,74.52615,127.60321,74.52615,127.60321h.48214S95.18519,116.28,112.61556,87.10307C134.7942,49.978,129.97276,2.24565,129.97276,2.24565H62.95468Z"/>
    <g>
      <path class="cls-3" d="M93.37171,66.99975l6.509,6.19451.849.06288L97.08212,69.1694l.15722-.283,4.37075,4.65374,1.38354.18867L97.86823,68.289l.44022-.22011,6.03728,6.19451,1.50933.12578-6.13162-6.16307.34588-.34588,6.76051,6.63472a2.11592,2.11592,0,0,0,2.1382-.62888,37.26342,37.26342,0,0,1-3.58464-2.35832c-1.00621-.849-9.93637-10.34514-10.37658-10.87969a2.72049,2.72049,0,0,0-3.49031-.40878,2.32606,2.32606,0,0,0-.40878,3.71042C92.08249,64.86154,93.40315,66.21364,93.37171,66.99975Z"/>
      <path class="cls-3" d="M87.31386,73.77151l6.54054,6.16115.10913.84429-4.28074-3.419-.274.17243,4.88536,4.11022.2639,1.37119L88.84657,78.191l-.19575.45158,6.51479,5.69018.208,1.50021L88.885,80.04684l-.3265.36425,6.99384,6.38829a2.116,2.116,0,0,1-.51124,2.16935,37.26433,37.26433,0,0,0-2.55046-3.45058c-.90265-.95837-10.87206-9.3569-11.42984-9.76729a2.72047,2.72047,0,0,1-.59867-3.46279,2.32606,2.32606,0,0,1,3.68257-.61069C85.10847,72.60093,86.53064,73.84582,87.31386,73.77151Z"/>
      <path class="cls-3" d="M105.85506,81.36975a3.76144,3.76144,0,0,0,2.73561-.94333c-3.30168.15723-7.578-3.14442-8.23837-4.55942a33.279,33.279,0,0,0-6.88621-8.0497,18.68222,18.68222,0,0,0-6.66621-3.71043,6.50324,6.50324,0,0,0-.69179-2.07531,2.91156,2.91156,0,0,0-4.11918-.72321,4.00557,4.00557,0,0,0-1.415,3.113,23.82838,23.82838,0,0,1-.47167,2.48412l1.57226-.15723a21.62924,21.62924,0,0,0,3.05.50309A21.19351,21.19351,0,0,0,89.4412,74.8608,20.201,20.201,0,0,0,97.30229,80.112s2.35823,2.51551,3.05,3.36454,1.44644,4.43361,1.44644,4.43361a4.32042,4.32042,0,0,0,1.03762-3.52174c-.18857-.31446-4.8424-5.18829-4.8424-5.18829l.22012-.283,4.811,4.68519.12583-1.22634-4.811-4.27642.18869-.40875,4.6537,3.962,1.35215.06289-5.06252-4.18207.53453-.34589S104.03136,81.33829,105.85506,81.36975ZM83.08939,64.23264a2.30544,2.30544,0,0,1-1.069.3459,1.239,1.239,0,0,1,.5975-1.35209C83.43534,62.78621,83.52963,63.91821,83.08939,64.23264Z"/>
    </g>
    <g>
      <path class="cls-3" d="M67.05291,42.8506l6.50895,6.19451.849.06289-3.64752-4.08775.15722-.283L75.29129,49.391l1.38355.18867-5.12541-5.43985.44022-.22011,6.03729,6.19451,1.50932.12578-6.13162-6.16307.34588-.34588L80.511,50.36577a2.11594,2.11594,0,0,0,2.1382-.62889,37.26368,37.26368,0,0,1-3.58463-2.35831c-1.00622-.849-9.93637-10.34515-10.37659-10.8797a2.72047,2.72047,0,0,0-3.49031-.40877,2.32605,2.32605,0,0,0-.40877,3.71041C65.7637,40.71239,67.08435,42.0645,67.05291,42.8506Z"/>
      <path class="cls-3" d="M60.99506,49.62237l6.54054,6.16114.10913.84429-4.28074-3.419-.274.17243,4.88536,4.11022.2639,1.37119-5.71149-4.82085-.19575.45157,6.5148,5.69019.208,1.5002-6.48855-5.78609-.32649.36425,6.99383,6.3883a2.11594,2.11594,0,0,1-.51124,2.16934A37.26557,37.26557,0,0,0,66.17189,61.369c-.90265-.95837-10.87206-9.3569-11.42985-9.76729a2.72047,2.72047,0,0,1-.59867-3.46279,2.32606,2.32606,0,0,1,3.68258-.61068C58.78967,48.45178,60.21184,49.69667,60.99506,49.62237Z"/>
      <path class="cls-3" d="M79.53626,57.2206a3.76144,3.76144,0,0,0,2.73561-.94333c-3.30168.15723-7.578-3.14442-8.23836-4.55942a33.27911,33.27911,0,0,0-6.88622-8.0497,18.68213,18.68213,0,0,0-6.66621-3.71043,6.50284,6.50284,0,0,0-.69179-2.0753,2.91155,2.91155,0,0,0-4.11918-.72322,4.00559,4.00559,0,0,0-1.415,3.113,23.82806,23.82806,0,0,1-.47167,2.48411l1.57227-.15723a21.62938,21.62938,0,0,0,3.05.5031,21.19351,21.19351,0,0,0,4.71668,7.60952,20.201,20.201,0,0,0,7.8611,5.25117s2.35822,2.51552,3.05,3.36454S75.47994,63.761,75.47994,63.761a4.32037,4.32037,0,0,0,1.03762-3.52173c-.18857-.31447-4.84239-5.18829-4.84239-5.18829l.22012-.283,4.811,4.68519.12584-1.22634-4.811-4.27641.18869-.40876,4.65371,3.962,1.35214.06289L73.15315,53.3844l.53452-.34589S77.71257,57.18915,79.53626,57.2206ZM56.77059,40.0835a2.3055,2.3055,0,0,1-1.069.34589,1.239,1.239,0,0,1,.5975-1.35209C57.11655,38.63706,57.21083,39.76906,56.77059,40.0835Z"/>
    </g>
    <g>
      <path class="cls-3" d="M41.48877,18.32412l6.50895,6.19451.849.06289-3.64753-4.08775.15722-.283,4.37074,4.65374,1.38355.18866-5.12541-5.43984.44022-.22011,6.03729,6.1945,1.50932.12578L47.8405,19.55045l.34589-.34589,6.7605,6.63473a2.116,2.116,0,0,0,2.13821-.62889,37.26344,37.26344,0,0,1-3.58464-2.35831c-1.00622-.849-9.93637-10.34514-10.37659-10.8797a2.72047,2.72047,0,0,0-3.4903-.40877,2.32606,2.32606,0,0,0-.40878,3.71042C40.19956,16.18592,41.52022,17.538,41.48877,18.32412Z"/>
      <path class="cls-3" d="M35.43092,25.09589,41.97146,31.257l.10914.8443-4.28074-3.419-.274.17243L42.41123,32.965l.2639,1.37118-5.71149-4.82085-.19576.45158,6.5148,5.69018.208,1.50021-6.48855-5.7861-.32649.36425,6.99383,6.3883a2.11594,2.11594,0,0,1-.51124,2.16934,37.26253,37.26253,0,0,0-2.55045-3.45057c-.90265-.95838-10.87206-9.35691-11.42984-9.7673a2.72046,2.72046,0,0,1-.59867-3.46279,2.326,2.326,0,0,1,3.68257-.61068C33.22554,23.9253,34.6477,25.17019,35.43092,25.09589Z"/>
      <path class="cls-3" d="M53.97213,32.69413a3.76141,3.76141,0,0,0,2.7356-.94334c-3.30168.15723-7.578-3.14441-8.23836-4.55942a33.2792,33.2792,0,0,0-6.88621-8.0497A18.68222,18.68222,0,0,0,34.917,15.43124a6.50323,6.50323,0,0,0-.69179-2.0753,2.91155,2.91155,0,0,0-4.11918-.72322,4.00561,4.00561,0,0,0-1.415,3.113,23.82806,23.82806,0,0,1-.47167,2.48411l1.57227-.15723a21.62938,21.62938,0,0,0,3.05.5031,21.19351,21.19351,0,0,0,4.71668,7.60952,20.201,20.201,0,0,0,7.8611,5.25118s2.35822,2.51551,3.05,3.36453,1.44643,4.43362,1.44643,4.43362a4.32041,4.32041,0,0,0,1.03763-3.52174c-.18858-.31447-4.8424-5.18829-4.8424-5.18829l.22012-.283,4.811,4.68519.12583-1.22634-4.811-4.27641.18869-.40875,4.65371,3.96194,1.35215.06289L47.589,28.85792l.53453-.34589S52.14843,32.66267,53.97213,32.69413ZM31.20646,15.557a2.3055,2.3055,0,0,1-1.06905.34589,1.239,1.239,0,0,1,.5975-1.35209C31.55241,14.11058,31.6467,15.24258,31.20646,15.557Z"/>
    </g>
    <path class="cls-2" d="M118.77862,85.11161a11.11912,11.11912,0,0,0-5.34551,3.71041c-2.13821,2.83-.88044,5.9744.69177,6.66618s10.125,2.1382,10.125,2.1382Z"/>
    <path class="cls-2" d="M121.29416,69.138s5.094,2.70421,6.10017,6.85484a34.76284,34.76284,0,0,1,.81755,8.48993,15.54074,15.54074,0,0,1,9.2446-2.1382,24.723,24.723,0,0,0-4.02486,6.41462c-1.19488,3.2073-1.57221,9.559-1.6351,11.06836s-1.132,6.54039-6.22595,4.8424l-11.19414-8.93015s3.01865-1.00622,2.95576-6.5404S117.89818,73.85458,121.29416,69.138Z"/>
    <path class="cls-2" d="M31.22138,85.11161A11.11912,11.11912,0,0,1,36.56689,88.822c2.13821,2.83.88044,5.9744-.69177,6.66618s-10.125,2.1382-10.125,2.1382Z"/>
    <path class="cls-2" d="M28.70584,69.138s-5.094,2.70421-6.10017,6.85484a34.76284,34.76284,0,0,0-.81755,8.48993,15.54074,15.54074,0,0,0-9.2446-2.1382,24.723,24.723,0,0,1,4.02486,6.41462c1.19488,3.2073,1.57221,9.559,1.6351,11.06836s1.132,6.54039,6.226,4.8424l11.19414-8.93015s-3.01865-1.00622-2.95576-6.5404S32.10182,73.85458,28.70584,69.138Z"/>
    <g>
      <path class="cls-6" d="M33.93279,101.5933a3.3879,3.3879,0,0,0-2.06889.61022,3.24481,3.24481,0,0,0-1.45491,1.65407,1.96889,1.96889,0,0,0,.19634,1.75908,3.01572,3.01572,0,0,0,1.26,1.07164q.5855.30157.38044.75806a.56125.56125,0,0,1-.35737.323.87842.87842,0,0,1-.60174-.0226,3.61514,3.61514,0,0,1-1.78308-1.55661,3.17824,3.17824,0,0,1-.46425-2.81754,4.65566,4.65566,0,0,1,2.0703-2.34857,4.47868,4.47868,0,0,1,3.03506-.79007,3.24921,3.24921,0,0,1,2.34009,1.62723,3.45053,3.45053,0,0,1,.64224,2.02369.63217.63217,0,0,1-.57349.67472q-.47321.07346-.606-.6168a3.98107,3.98107,0,0,0-.49956-1.405A1.89349,1.89349,0,0,0,33.93279,101.5933Z"/>
      <path class="cls-6" d="M36.10385,111.59356l-1.68091-2.30666-1.65832.49391q-.83692.26556-.99442-.4021-.11017-.52474.63564-.73828l6.74531-1.82264a.72215.72215,0,0,1,.85741.21329.67565.67565,0,0,1-.02307.81362l-3.803,5.95854a.81112.81112,0,0,1-.41952.36772.54019.54019,0,0,1-.533-.04425.63353.63353,0,0,1-.30981-.45484.83167.83167,0,0,1,.16621-.56737Zm-.59279-2.6598,1.24962,1.71435,1.72188-2.58729Z"/>
      <path class="cls-6" d="M41.83779,111.12507a.73392.73392,0,0,1,1.00855-.089,7.64921,7.64921,0,0,1,1.24538,1.11685q1.9606,2.10608.19964,3.746a2.45027,2.45027,0,0,1-1.27363.67,2.01239,2.01239,0,0,1-1.2807-.20387l-.67284,2.5548a.96463.96463,0,0,1-.348.55183.615.615,0,0,1-.54853.11583q-.65543-.19423-.40917-1.00008l.90638-2.99975a3.40442,3.40442,0,0,1-.3423-.33382,4.2588,4.2588,0,0,1-.41294-.51134l-1.8377,1.71152a.72921.72921,0,0,1-.49344.21706.71275.71275,0,0,1-.67-.71945.744.744,0,0,1,.2552-.4732Zm.41058,4.20229A1.21643,1.21643,0,0,0,43.2781,114.93q.91462-.85176-.16809-2.01428a7.46476,7.46476,0,0,0-.62622-.57066l-1.81228,1.688a5.74392,5.74392,0,0,0,.4812.58431A2.06255,2.06255,0,0,0,42.24837,115.32736Z"/>
      <path class="cls-6" d="M50.76029,118.86387q.14973.62292-.34607.81927-.44919.17656-.76654-.42282a3.89712,3.89712,0,0,0-.89036-1.17664,1.95517,1.95517,0,0,0-1.777-.49862,3.43636,3.43636,0,0,0-1.82452,1.195,3.28936,3.28936,0,0,0-.93651,1.97754,2.035,2.035,0,0,0,.7816,1.66491,2.74126,2.74126,0,0,0,1.5359.74111l1.01937-1.16817-.94639-.82539a.53513.53513,0,1,1,.70014-.80232l1.26422,1.10319a.5625.5625,0,0,1,.10641.89178l-1.445,1.65643a.8964.8964,0,0,1-.7703.34136,3.4419,3.4419,0,0,1-1.14557-.30087,4.5368,4.5368,0,0,1-1.19971-.76276A3.272,3.272,0,0,1,42.8002,120.694a4.68488,4.68488,0,0,1,1.32354-2.86038,4.36036,4.36036,0,0,1,2.69558-1.60228,3.3627,3.3627,0,0,1,2.74361.912A3.49385,3.49385,0,0,1,50.76029,118.86387Z"/>
      <path class="cls-6" d="M52.85649,121.51566a3.71973,3.71973,0,0,1,4.06809,3.53981,5.043,5.043,0,0,1-3.87976,4.45419,3.73318,3.73318,0,0,1-4.06809-3.53981,5.06762,5.06762,0,0,1,3.87976-4.45419ZM50.34124,125.976a2.12836,2.12836,0,0,0,2.51383,2.18754,3.94793,3.94793,0,0,0,2.713-3.1151,2.12762,2.12762,0,0,0-2.51384-2.18707,3.95025,3.95025,0,0,0-2.713,3.11463Z"/>
      <path class="cls-6" d="M62.70843,130.27336q.52476-.48943.93368-.05038.4167.44778-.10876.93651l-4.8012,4.47161a.74345.74345,0,0,1-.48968.22083.58026.58026,0,0,1-.45813-.20341.75589.75589,0,0,1-.15491-.67519l1.22279-6.209-3.48849,3.24929q-.517.481-.93321.03391-.40893-.4393.10782-.92l4.79273-4.46408q.53392-.4965.95769-.04143a.782.782,0,0,1,.16715.73969l-1.26186,6.18454Z"/>
      <path class="cls-6" d="M64.60593,132.31589a.75.75,0,0,1,.42565-.33948.629.629,0,0,1,.53064.09605l3.17066,2.00956a.63341.63341,0,0,1,.29946.38845.61007.61007,0,0,1-.09935.47791.59372.59372,0,0,1-.38374.28392.63252.63252,0,0,1-.47932-.105L65.453,133.469l-1.08388,1.70964,2.09149,1.32543a.66177.66177,0,0,1,.31217.38938.58848.58848,0,0,1-.09653.4732.6122.6122,0,0,1-.387.2891.63412.63412,0,0,1-.49156-.10641l-2.09149-1.32543-1.20207,1.89562,2.71113,1.71764a.63335.63335,0,0,1,.29945.38845.60775.60775,0,0,1-.09935.4779.59487.59487,0,0,1-.38373.28439.63451.63451,0,0,1-.47932-.105l-3.255-2.06277a.64772.64772,0,0,1-.31829-.44165.7372.7372,0,0,1,.121-.533Z"/>
      <path class="cls-6" d="M69.27859,135.15131a.74972.74972,0,0,1,.28345-.46519.62769.62769,0,0,1,.53158-.09088l3.66788.80279a.63373.63373,0,0,1,.41434.26273.61111.61111,0,0,1,.07063.48356.59491.59491,0,0,1-.2632.39833.63151.63151,0,0,1-.48639.06545l-3.02752-.66295-.43271,1.979,2.42014.5297a.66451.66451,0,0,1,.42658.25944.58917.58917,0,0,1,.07157.4779.61256.61256,0,0,1-.26461.404.63424.63424,0,0,1-.49816.06874l-2.42014-.53017-.47931,2.19366,3.13582.687a.63131.63131,0,0,1,.41481.26274.61076.61076,0,0,1,.07063.48355.59388.59388,0,0,1-.26367.39834.63243.63243,0,0,1-.48592.06544l-3.76581-.82491a.64671.64671,0,0,1-.45012-.30558.73833.73833,0,0,1-.06922-.54242Z"/>
      <path class="cls-6" d="M74.71543,136.15562a.765.765,0,0,1,.11771-.5297.69791.69791,0,0,1,.97794-.10217.75162.75162,0,0,1,.23025.49344l.30228,2.89946,2.37023-3.51626q.46471-.68792.96193-.30982a.59136.59136,0,0,1,.23495.48732.96773.96773,0,0,1-.20576.54477l-2.07783,2.8924,2.80858,2.5096a1.09546,1.09546,0,0,1,.35785.53864.64405.64405,0,0,1-.11018.5523q-.43435.54524-1.08765-.03766l-3.17914-2.95926.30463,2.92253a.73006.73006,0,0,1-.12383.52452.71275.71275,0,0,1-.97794.10264.7445.7445,0,0,1-.22412-.48873Z"/>
      <path class="cls-6" d="M86.82789,130.89865q.63989-.01554.72746.51133.07769.476-.57537.65965a3.9024,3.9024,0,0,0-1.33814.62246,1.95507,1.95507,0,0,0-.86259,1.63195,3.43506,3.43506,0,0,0,.783,2.03593,3.28707,3.28707,0,0,0,1.73506,1.333,2.03549,2.03549,0,0,0,1.7925-.41246,2.74551,2.74551,0,0,0,1.049-1.3452l-.92709-1.243-1.00667.75052a.53484.53484,0,1,1-.63611-.85317l1.3452-1.00337a.56241.56241,0,0,1,.89414.08381l1.31412,1.76284a.8961.8961,0,0,1,.17139.82445,3.44224,3.44224,0,0,1-.53629,1.05658,4.531,4.531,0,0,1-.99913,1.01231,3.27138,3.27138,0,0,1-2.82271.74064,4.68685,4.68685,0,0,1-2.51666-1.8975,4.36044,4.36044,0,0,1-.99678-2.97338,3.36242,3.36242,0,0,1,1.47092-2.48983A3.48939,3.48939,0,0,1,86.82789,130.89865Z"/>
      <path class="cls-6" d="M91.37437,126.35123a.80053.80053,0,0,1-.24861-.47885.56764.56764,0,0,1,.1921-.47649.58484.58484,0,0,1,.48168-.193.782.782,0,0,1,.48073.24814l2.82883,2.84908a5.34526,5.34526,0,0,1,.81032,1.02126,3.32994,3.32994,0,0,1,.41482,1.07964,2.10958,2.10958,0,0,1-.12007,1.17146,3.37849,3.37849,0,0,1-.80514,1.17523,2.64774,2.64774,0,0,1-2.25158.94028,3.91922,3.91922,0,0,1-2.20025-1.23079l-2.84484-2.86556a.76476.76476,0,0,1-.2406-.48638.59954.59954,0,0,1,.2001-.4845.6298.6298,0,0,1,.49722-.20858.75409.75409,0,0,1,.48873.24013l2.88581,2.90652q1.44219,1.4535,2.60094.30275,1.15827-1.1505-.30087-2.62025Z"/>
      <path class="cls-6" d="M97.62482,125.94772l-3.79171-1.02644q-.8454-.26131-.70108-.90826a.62249.62249,0,0,1,.3908-.4473,1.07559,1.07559,0,0,1,.63187.033l3.18667.93933-.53017-3.25071a1.09032,1.09032,0,0,1,.0452-.59138.61159.61159,0,0,1,.4652-.32818.58653.58653,0,0,1,.484.19258,1.03749,1.03749,0,0,1,.21093.52217l.57585,3.94661,1.8377,2.11362a.72963.72963,0,0,1,.19964.50051.71258.71258,0,0,1-.74158.64553.744.744,0,0,1-.46378-.27121Z"/>
      <path class="cls-6" d="M99.84532,119.42935a3.72244,3.72244,0,0,1,4.06433-3.54687,5.04017,5.04017,0,0,1,3.88352,4.45042,3.735,3.735,0,0,1-4.06479,3.54687,5.06463,5.06463,0,0,1-3.88306-4.45042Zm4.0761,3.09957a2.12872,2.12872,0,0,0,2.51148-2.19131,3.94642,3.94642,0,0,0-2.71535-3.11228,2.12953,2.12953,0,0,0-2.512,2.19131,3.948,3.948,0,0,0,2.71583,3.11228Z"/>
      <path class="cls-6" d="M108.95757,113.43645l-.70579-2.90652q-.19917-.7543.40963-.88331.55371-.11865.742.61163L110.13,113.509l3.71308.36161a.84382.84382,0,0,1,.51793.23542.62194.62194,0,0,1,.20246.50474.62826.62826,0,0,1-.26273.47226.80809.80809,0,0,1-.54194.10594l-3.40891-.37385.81126,3.20692q.20835.7776-.3988.92285a.614.614,0,0,1-.50145-.1323.83327.83327,0,0,1-.2552-.46237l-.84517-3.62268-3.31474-.30605a.94588.94588,0,0,1-.5297-.23071.61741.61741,0,0,1-.21376-.50051.66013.66013,0,0,1,.29145-.51322.87609.87609,0,0,1,.57584-.08381Z"/>
      <path class="cls-6" d="M109.86677,108.94554a.76919.76919,0,0,1-.30746-.44778.69884.69884,0,0,1,.59279-.78489.75359.75359,0,0,1,.51793.16856l5.23485,3.95462a.73181.73181,0,0,1,.29945.44871.71215.71215,0,0,1-.59279.78443.74305.74305,0,0,1-.50992-.1695Z"/>
      <path class="cls-6" d="M116.95486,104.86049l-1.93-3.89718a.76847.76847,0,0,1-.01319-.7896.55965.55965,0,0,1,.41529-.28015.79416.79416,0,0,1,.52452.14784l5.506,3.56665a.7418.7418,0,0,1,.33383.42093.71237.71237,0,0,1-.53394.82586.72793.72793,0,0,1-.52358-.1276l-3.95226-2.56,1.41065,2.84626a.66818.66818,0,0,1-.65966,1.042l-3.14571-.07863,3.90377,2.52844q.59256.38349.25426.90637-.33759.52194-.92992.13843l-5.49663-3.56005a.76867.76867,0,0,1-.36773-.44354.59567.59567,0,0,1,.0937-.47508.7876.7876,0,0,1,.75288-.33336Z"/>
    </g>
  </g>
</svg>
