<svg xmlns="http://www.w3.org/2000/svg" width="150" height="150" viewBox="0 0 150 150">
  <defs>
    <style>
      .cls-1 {
        fill: #0060e6;
      }

      .cls-2 {
        fill: #fb9b3b;
      }
    </style>
  </defs>
  <g id="Layer_7" data-name="Layer 7">
    <g>
      <path class="cls-1" d="M75,144.52079c-5.58449-2.69257-34.43965-16.74676-43.012-23.74746-7.34879-6.00027-8.67425-9.53111-8.87136-10.20946l-.01115.20083v-.1205l.00892-.08777-.00892-.032V56.15008c8.59987-9.16442,3.50034-22.29853-1.38422-29.49484l4.90688-7.24912c.06322,0,.1257.00074.18892.00074,11.05666,0,18.761-7.54218,20.90836-9.9112C59.48051,5.37349,74.47413,5.32515,74.62735,5.32515h.7453c.15248,0,15.17138.05876,26.90193,4.17051,2.14737,2.369,9.85244,9.9112,20.90836,9.9112.06322,0,.1257-.00074.18892-.00074l4.90688,7.24912c-4.88456,7.19631-9.98409,20.33042-1.38422,29.49484v54.37437c-.154.566-1.37455,4.11844-8.88251,10.24888C109.43965,127.774,80.58449,141.82822,75,144.52079Z"/>
      <path class="cls-2" d="M75.37246,8.37163c.14486,0,14.05308.045,25.20755,3.76379,2.89451,3.00065,10.50513,9.707,21.14953,10.27846l2.90437,4.29133c-4.84347,8.01869-8.93625,20.89316-.78638,30.60437v52.6783c-.389.84613-2.02408,3.74013-7.76217,8.42587-7.0747,5.7769-30.24254,17.47784-41.08555,22.72654-10.84132-5.24754-34.00657-16.94652-41.085-22.72649-5.73827-4.68579-7.37334-7.57979-7.76235-8.42592V57.30958c8.14987-9.71121,4.05709-22.58568-.78638-30.60437l2.90437-4.29133C38.91505,21.8424,46.5251,15.13677,49.42,12.1357,60.531,8.43425,74.48584,8.37182,74.62754,8.37163h.74492m0-6.09325h-.74492s-16.17943,0-28.68149,4.61963c0,0-7.6041,9.46157-19.12843,9.46157q-.86412,0-1.75761-.07335L18,26.71763s13.67876,17.43529,2.05922,28.16473v55.88238s.14709,4.32156,10.00158,12.36864c9.85467,8.047,44.56674,24.58824,44.56674,24.58824h.74492s34.71207-16.5412,44.56674-24.58824c9.85449-8.04708,10.00158-12.36864,10.00158-12.36864V54.88236C118.32124,44.15292,132,26.71763,132,26.71763l-7.06-10.4314c-.596.04974-1.18079.07335-1.75761.07335-11.523,0-19.12843-9.46157-19.12843-9.46157C91.55189,2.27838,75.37246,2.27838,75.37246,2.27838Z"/>
      <path class="cls-2" d="M48.4,25.17775c.037-.29574,4.96733,8.44445,10.92812,11.12681s15.69674,6.35817,20.9621,12.21961l.69542-.49673s-.59607-2.583-4.0732-5.86144A21.21807,21.21807,0,0,1,71.051,26.76729a43.881,43.881,0,0,1,8.04706,9.8353c3.17909,5.56341,5.96079,9.53726,5.96079,9.53726s-.298-5.76209-1.39085-8.54379S79.098,27.06533,86.44968,19.7137a73.754,73.754,0,0,0,2.285,9.6366c1.09281,2.7817,1.58954,7.0536,2.08627,14.30589S93.702,58.16078,94.79478,59.84967s8.84184,8.84183,8.84184,8.84183a7.773,7.773,0,0,1-3.47713-.59608s.69543,1.98693,4.66929,5.5634a30.56408,30.56408,0,0,1,9.43791,15.99479s-5.46406-1.88759-7.94772-6.45752S99.166,72.9634,97.97387,72.268a31.96385,31.96385,0,0,0,1.2915,7.451c1.09281,3.17909,3.37778,15.99478,3.57648,23.9425s-.49674,8.14641-1.39085,8.3451-2.48367-1.98693-3.17909-5.86144c0,0-2.9804-2.583-3.57647-5.46406s-.99347-8.3451-1.39085-9.23922-1.78824.39739-2.38432,1.39085-1.19216,9.43792-1.4902,11.22615-.298,5.86144-5.76209,7.25229-11.52419,2.38432-14.30589,3.97386-6.75556,2.38432-6.95425.59608.39738-10.13334,0-11.42484-2.08628-2.18562-4.07321-1.58955-8.24576,3.17909-9.63661.69543-.09934-5.36471.09935-7.0536a5.99436,5.99436,0,0,0-.59608-3.77516,1.94375,1.94375,0,0,1-.49673-.89412l1.39085-.59608-2.08628-.298s.298-3.17909,0-3.27843a10.33741,10.33741,0,0,0-2.18562-.49674c-.99346-.09934-2.7817.39739-2.98039-.59608s1.09281-4.0732,3.07974-7.55033a46.32706,46.32706,0,0,1,3.27843-4.96732,30.05351,30.05351,0,0,1,6.35818-13.11373c5.5634-6.95425,15.10066-9.63661,16.98824-9.63661,0,0-.59608-1.4902-8.84183-5.464S47.40652,33.12547,48.4,25.17775Z"/>
    </g>
  </g>
</svg>
