<svg xmlns="http://www.w3.org/2000/svg" width="150" height="150" viewBox="0 0 150 150">
  <defs>
    <style>
      .cls-1 {
        fill: #ac2415;
      }

      .cls-2 {
        fill: #2f2c7b;
      }

      .cls-3 {
        fill: #ebaa21;
      }

      .cls-4 {
        fill: #eee;
      }

      .cls-5 {
        fill: #ffd457;
      }

      .cls-6 {
        fill: #101130;
      }
    </style>
  </defs>
  <g id="Layer_7" data-name="Layer 7">
    <g>
      <circle class="cls-1" cx="75" cy="75" r="71.26087"/>
      <circle class="cls-2" cx="75" cy="75" r="46.72347"/>
      <g>
        <path class="cls-3" d="M13.89157,49.71178l11.09071,5.29254a.27339.27339,0,0,0,.36428-.12854l2.749-5.7603a.27246.27246,0,0,0-.12908-.36429l-1.26566-.60376a.27282.27282,0,0,0-.36376.12854l-2.0817,4.36182-3.28817-1.56968,1.19313-2.49986a.27285.27285,0,0,0-.12854-.36429l-1.17127-.559a.27822.27822,0,0,0-.20907-.0112.27418.27418,0,0,0-.15521.13974l-1.19366,2.50093L16.18876,48.788l2.08064-4.36182a.27206.27206,0,0,0-.12908-.36375l-1.26566-.60377a.27258.27258,0,0,0-.36375.12908L13.7625,49.348A.27243.27243,0,0,0,13.89157,49.71178Z"/>
        <path class="cls-3" d="M17.93978,41.57375l10.23413,6.80516a.26869.26869,0,0,0,.15094.04587.25947.25947,0,0,0,.05387-.00534.27159.27159,0,0,0,.17334-.1168l.64324-.96752a.27245.27245,0,0,0-.07574-.37815L22.0968,42.28686l9.19834,1.59581a.26736.26736,0,0,0,.27415-.11734l.68-1.02192a.27246.27246,0,0,0-.07627-.37868L21.93892,35.55958a.27368.27368,0,0,0-.37815.07573l-.63417.95365a.273.273,0,0,0,.07574.37869l6.72355,4.47116L18.89823,39.9326a.27379.27379,0,0,0-.27308.11788l-.76164,1.14459a.27246.27246,0,0,0,.07627.37868Z"/>
        <path class="cls-3" d="M33.52672,40.84838a.2732.2732,0,0,0,.38509-.02986l.831-.96912a.27385.27385,0,0,0-.02987-.38509L25.38177,31.466a.27513.27513,0,0,0-.38509.02987l-.831.96912a.27256.27256,0,0,0,.02987.38508Z"/>
        <path class="cls-3" d="M36.02018,21.465a.2733.2733,0,0,0-.19254-.13494.26632.26632,0,0,0-.22615.06454l-.93178.82351a.27433.27433,0,0,0-.056.34135l4.4765,7.76413L31.8605,24.98783a.27323.27323,0,0,0-.34295.01493l-.88325.77978a.27289.27289,0,0,0-.0576.33815l4.39489,7.84787-7.1561-5.404a.2741.2741,0,0,0-.34562.01333l-.99365.87738a.27284.27284,0,0,0,.01867.42456l10.11092,7.46705a.27337.27337,0,0,0,.343-.01494l1.04272-.92111a.27354.27354,0,0,0,.05761-.33762l-4.13782-7.43772L40.726,33.70561a.27468.27468,0,0,0,.344-.0144l1.07953-.95311a.27357.27357,0,0,0,.05707-.33922Z"/>
        <path class="cls-3" d="M49.49128,26.06682a.27189.27189,0,0,0-.168-.12427.27628.27628,0,0,0-.20641.03146L44.978,28.46961l-1.8817-3.1207,2.37292-1.431a.272.272,0,0,0,.09281-.37442l-.6699-1.111a.27275.27275,0,0,0-.37442-.09281l-2.37346,1.43048-1.782-2.95536,4.13835-2.49559a.272.272,0,0,0,.09281-.37442l-.72431-1.20113a.273.273,0,0,0-.37442-.09281L38.02935,19.9465a.27218.27218,0,0,0-.0928.37442L44.283,30.84573a.27188.27188,0,0,0,.168.12428.27613.27613,0,0,0,.0656.008.27016.27016,0,0,0,.14081-.03947l5.46535-3.29617a.27217.27217,0,0,0,.0928-.37442Z"/>
        <path class="cls-3" d="M48.68217,16.35752,50.766,15.3932a.27337.27337,0,0,0,.13334-.36269L50.31,13.75738a.27335.27335,0,0,0-.36269-.13334L44.155,16.30418a.273.273,0,0,0-.13334.36269L44.611,17.94a.27413.27413,0,0,0,.36268.13334l2.054-.95045,4.45729,9.6325a.27373.27373,0,0,0,.36269.13334l1.15846-.536a.273.273,0,0,0,.13334-.36269Z"/>
        <path class="cls-3" d="M59.99636,13.49177a3.39284,3.39284,0,0,0-1.24113-1.8689,2.47023,2.47023,0,0,0-2.21132-.20214l-2.23745.6843a2.468,2.468,0,0,0-1.71955,1.40487,3.39126,3.39126,0,0,0,.01706,2.24385l2.01024,6.57154A3.36067,3.36067,0,0,0,55.85,24.17765a2.09152,2.09152,0,0,0,1.21979.36429,3.41353,3.41353,0,0,0,.99152-.16161l2.238-.68483a2.46917,2.46917,0,0,0,1.71955-1.40488,3.36267,3.36267,0,0,0-.01173-2.22678Zm.27894,7.91134a.7802.7802,0,0,1-.54616.42829l-2.238.68483a.78451.78451,0,0,1-.6923-.04906,1.23536,1.23536,0,0,1-.44643-.69177L54.347,15.22092a1.23,1.23,0,0,1-.01654-.823.78209.78209,0,0,1,.54616-.42882l2.238-.68484a1.122,1.122,0,0,1,.32855-.05494.63319.63319,0,0,1,.36322.10508,1.22964,1.22964,0,0,1,.447.69123l2.00544,6.555A1.22846,1.22846,0,0,1,60.2753,21.40311Z"/>
        <path class="cls-3" d="M66.754,15.00651,69.552,9.6889a.27322.27322,0,0,0-.28055-.39735L67.45221,9.554a.27361.27361,0,0,0-.20428.14615l-2.5676,5.02479-.63576-4.4029a.27666.27666,0,0,0-.30935-.23147l-1.58195.22827a.27326.27326,0,0,0-.23148.30935l1.71262,11.862a.27339.27339,0,0,0,.26988.23415.327.327,0,0,0,.03947-.00267l1.58142-.22828a.27352.27352,0,0,0,.23147-.30935l-.599-4.149.50936-.97232,3.31217,4.77945a.2801.2801,0,0,0,.26348.11467l1.81876-.26295a.273.273,0,0,0,.18294-.42935Z"/>
        <path class="cls-3" d="M101.67745,20.4756l-2.94469-1.2438a.27417.27417,0,0,0-.35789.14561l-.66616,1.57714a.27379.27379,0,0,0,.1456.35789l1.22087.51523-.93445,2.214c-.37975.30455-.99792.28-1.84063-.07574a1.41137,1.41137,0,0,1-.927-1.07206,3.85967,3.85967,0,0,1,.39789-2.1073l1.09872-2.60227a4.07089,4.07089,0,0,1,1.26087-1.81556,1.3959,1.3959,0,0,1,1.42034-.10081,1.75262,1.75262,0,0,1,1.032.90352,1.88107,1.88107,0,0,1-.13654,1.40807.27337.27337,0,0,0,.19841.37388l1.58408.31629a.272.272,0,0,0,.311-.17761c.81284-2.32012.10294-3.97034-2.11051-4.90479a3.4283,3.4283,0,0,0-3.1943.0704,6.24269,6.24269,0,0,0-2.34092,3.09243L93.7949,19.95237c-1.2854,3.045-.73817,5.09573,1.62676,6.09418a5.21785,5.21785,0,0,0,2.031.44642,4.07005,4.07005,0,0,0,2.199-.64483.27443.27443,0,0,0,.10667-.12534l2.06464-4.88932A.27316.27316,0,0,0,101.67745,20.4756Z"/>
        <path class="cls-3" d="M108.73968,29.61634l5.06533-7.79027a.27294.27294,0,0,0-.08-.37762l-1.07045-.696a.27251.27251,0,0,0-.37762.08l-5.0648,7.79027a1.50431,1.50431,0,0,1-.79364.69444,1.0912,1.0912,0,0,1-.89178-.21281l-1.35847-.88325a1.11652,1.11652,0,0,1-.567-.7371,1.4882,1.4882,0,0,1,.30935-1.00805l5.06479-7.78974a.27293.27293,0,0,0-.08-.37762l-1.07046-.696a.2725.2725,0,0,0-.37762.08l-5.06479,7.79027c-1.16646,1.79422-.90671,3.31217.751,4.38956l1.28967.83844a3.28654,3.28654,0,0,0,1.77929.60377,2.28949,2.28949,0,0,0,.575-.07254A3.49647,3.49647,0,0,0,108.73968,29.61634Z"/>
        <path class="cls-3" d="M107.674,32.7541a.27417.27417,0,0,0,.08907.22241l.93285.84751a.27456.27456,0,0,0,.33815.02293l1.88437-1.29553,2.52759,2.29772-1.08965,2.0225a.27381.27381,0,0,0,.05707.33175l1.01765.92432a.27374.27374,0,0,0,.18348.07094.279.279,0,0,0,.04693-.00427.27285.27285,0,0,0,.19415-.14081l5.94057-11.208a.273.273,0,0,0-.0576-.33015l-1.08966-.99046a.273.273,0,0,0-.33548-.02453l-10.51895,7.0473A.27243.27243,0,0,0,107.674,32.7541Zm9.25755-4.292-2.64494,4.84932-1.9201-1.74569Z"/>
        <path class="cls-3" d="M114.58,39.1715a.27143.27143,0,0,0,.0528.20214l.70244.92591a.27369.27369,0,0,0,.38242.05281l6.08885-4.61784-4.94479,6.23872a.273.273,0,0,0-.00374.33442l.78138,1.02992a.27451.27451,0,0,0,.32268.08747l7.35132-3.06629-6.08832,4.6173a.27254.27254,0,0,0-.0528.38242l.6923.91312a.27082.27082,0,0,0,.18028.1056.29989.29989,0,0,0,.03733.00267.27159.27159,0,0,0,.16481-.05547l9.792-7.42652a.273.273,0,0,0,.05281-.38242l-.97925-1.29073a.27227.27227,0,0,0-.32536-.08641L119.58664,41.082l6.28726-7.78494a.27314.27314,0,0,0,.00533-.33655l-1.01872-1.343a.27266.27266,0,0,0-.38242-.05281l-9.7925,7.42652A.2708.2708,0,0,0,114.58,39.1715Z"/>
        <path class="cls-3" d="M127.96787,71.82439l.08534,2.33878a2.46861,2.46861,0,0,0,.91525,2.023,3.25372,3.25372,0,0,0,1.966.56483q.0936,0,.18881-.0032l6.86808-.25175a3.39213,3.39213,0,0,0,2.12545-.7179,2.47068,2.47068,0,0,0,.7643-2.08491l-.08587-2.33879a2.4656,2.4656,0,0,0-.91524-2.023,3.40241,3.40241,0,0,0-2.17185-.5611l-6.86809.25175a3.35952,3.35952,0,0,0-2.10784.71737A2.4688,2.4688,0,0,0,127.96787,71.82439Zm9.88745-1.23367a1.17176,1.17176,0,0,1,.71843.19681.78373.78373,0,0,1,.27415.63844l.08534,2.33878a.77967.77967,0,0,1-.22615.656,1.22756,1.22756,0,0,1-.783.25334l-6.85049.25122a1.22274,1.22274,0,0,1-.799-.19575.78.78,0,0,1-.27362-.6379l-.08587-2.33878a.78144.78144,0,0,1,.22615-.65657,1.22813,1.22813,0,0,1,.78351-.25335l6.85-.25068C137.802,70.59126,137.82865,70.59072,137.85532,70.59072Z"/>
        <path class="cls-3" d="M140.24531,79.45358l-11.89875-1.43634a.26029.26029,0,0,0-.20108.056.27258.27258,0,0,0-.1024.18241l-.19148,1.58675a.27287.27287,0,0,0,.23841.30348l4.16182.50243.80591.7451-5.47655,1.95317a.27222.27222,0,0,0-.17921.22455l-.22028,1.82462a.27265.27265,0,0,0,.36695.288l7.21157-2.70521,4.405,4.08608a.27306.27306,0,0,0,.27948.05654.27381.27381,0,0,0,.17708-.224l.22028-1.82517a.27336.27336,0,0,0-.08747-.23521l-4.18315-3.78793,4.41729.53336a.27228.27228,0,0,0,.30348-.23841l.19148-1.58675A.27287.27287,0,0,0,140.24531,79.45358Z"/>
        <path class="cls-3" d="M139.00258,89.5181l-11.94942-2.87161a.2734.2734,0,0,0-.32962.20161l-.29815,1.24113a.27328.27328,0,0,0,.20161.32961l11.94942,2.87162a.29123.29123,0,0,0,.064.00747.27316.27316,0,0,0,.26562-.20908l.29815-1.24113A.27329.27329,0,0,0,139.00258,89.5181Z"/>
        <path class="cls-3" d="M137.81745,94.34075l-11.53233-4.24769a.27368.27368,0,0,0-.35042.16161l-.40162,1.09019a.272.272,0,0,0,.16161.35042l7.91347,2.91482-9.31834.57976a.27354.27354,0,0,0-.239.17814l-.424,1.15206a.27267.27267,0,0,0,.16161.35042l11.53233,4.24769a.26571.26571,0,0,0,.0944.01707.27282.27282,0,0,0,.256-.17868l.39629-1.07526a.272.272,0,0,0-.16161-.35041L128.329,96.74034l8.93646-.58136a.2728.2728,0,0,0,.23841-.17814l.47523-1.28967a.272.272,0,0,0-.16161-.35042Z"/>
        <path class="cls-3" d="M123.60125,97.52225a.27044.27044,0,0,0-.22882-.0704.2739.2739,0,0,0-.19627.13654l-.61443,1.09979a.27279.27279,0,0,0,.0544.33495l1.68755,1.543-1.66728,2.98149-2.21612-.6043a.27517.27517,0,0,0-.31041.13014l-.67044,1.20006a.27348.27348,0,0,0,.16854.39736l12.26037,3.254a.28206.28206,0,0,0,.06987.00907.27284.27284,0,0,0,.23841-.13974l.719-1.28594a.27309.27309,0,0,0-.05173-.33281Zm.72377,6.49687,1.2662-2.26572,4.05461,3.74633Z"/>
        <path class="cls-3" d="M129.68529,111.75232l-11.17284-5.7571a.271.271,0,0,0-.33655.06934l-.88218,1.07525a.27356.27356,0,0,0-.0032.34242l5.27227,6.682-7.53745-3.917a.27144.27144,0,0,0-.33709.06881l-.91311,1.11365a.27371.27371,0,0,0-.00214.344l7.85214,9.80584a.27354.27354,0,0,0,.21175.10241h.0016a.27411.27411,0,0,0,.21121-.09974l.78831-.96165a.27319.27319,0,0,0,.00053-.34562l-5.65789-6.95022,7.98868,4.11328a.27284.27284,0,0,0,.336-.06934l.74777-.911a.2729.2729,0,0,0,.00266-.34295l-5.59122-7.04517,7.92734,4.19222a.27323.27323,0,0,0,.33869-.06827l.84058-1.02512a.27365.27365,0,0,0-.08588-.416Z"/>
        <path class="cls-3" d="M112.71535,113.07132a.27312.27312,0,0,0-.42189-.08534l-.95791.81924a.27344.27344,0,0,0-.06507.33282l1.04965,2.03211-2.5964,2.21984-1.8705-1.33446a.27343.27343,0,0,0-.336.01493l-1.04432.89338a.27381.27381,0,0,0,.02027.431l10.37547,7.298a.27371.27371,0,0,0,.335-.016l1.119-.95738a.273.273,0,0,0,.06667-.32962Zm-1.57128,6.34539,1.97237-1.687,2.50679,4.91866Z"/>
        <path class="cls-3" d="M35.27294,111.89793l-.04853-.00054a3.55121,3.55121,0,0,0-2.53667,1.26513c-1.18726,1.23367-1.3238,2.80068-.40588,4.65891.79684,1.60222.95631,2.72068.46082,3.23537-.40322.41815-1.06139.85658-2.12331-.16534a1.72865,1.72865,0,0,1-.6267-1.14726,1.65005,1.65005,0,0,1,.5579-1.15313.27294.27294,0,0,0-.03574-.40962l-1.28807-.943a.27305.27305,0,0,0-.36588.03947c-1.60222,1.81289-1.53768,3.57618.19254,5.2408a3.94887,3.94887,0,0,0,2.68547,1.29554,3.56784,3.56784,0,0,0,2.54894-1.27047c1.191-1.23846,1.32806-2.806.40642-4.65837-.79311-1.60649-.95312-2.72548-.46136-3.23591a1.21792,1.21792,0,0,1,.98618-.45015,2.09692,2.09692,0,0,1,1.19473.671,1.86665,1.86665,0,0,1,.6699,1.19472,1.604,1.604,0,0,1-.544,1.16113.27264.27264,0,0,0,.02986.40536l1.25874.97391a.273.273,0,0,0,.37068-.03413c1.63049-1.82623,1.55688-3.61886-.21921-5.32828A4.11424,4.11424,0,0,0,35.27294,111.89793Z"/>
        <path class="cls-3" d="M34.4809,110.19277a.27322.27322,0,0,0-.0448-.23468l-.75631-1.008a.27349.27349,0,0,0-.328-.0864L31.2562,109.78l-2.0481-2.73348,1.45181-1.77982a.27393.27393,0,0,0,.00693-.33655l-.82458-1.10033a.27317.27317,0,0,0-.21387-.10933.32616.32616,0,0,0-.21762.10187l-7.94921,9.88584a.27306.27306,0,0,0-.00586.33495l.88324,1.1782a.2738.2738,0,0,0,.21868.10934.26908.26908,0,0,0,.10667-.02187l11.6598-4.93572A.272.272,0,0,0,34.4809,110.19277Zm-4.83171.28215-5.0696,2.18571,3.51272-4.26262Z"/>
        <path class="cls-3" d="M29.23156,103.11454a.27492.27492,0,0,0-.016-.20855l-.52589-1.03632a.27473.27473,0,0,0-.36749-.12L21.508,105.20745l5.97791-5.25681a.273.273,0,0,0,.06347-.32855l-.58456-1.15259a.27461.27461,0,0,0-.30242-.14294l-7.78013,1.70569L25.697,96.575a.27349.27349,0,0,0,.12-.36749l-.51843-1.02192a.27627.27627,0,0,0-.15894-.136.27267.27267,0,0,0-.20854.016l-10.96,5.56135a.27362.27362,0,0,0-.12.36749l.73337,1.44487a.27271.27271,0,0,0,.30508.14241l9.75677-2.23905-7.57532,6.53794a.27417.27417,0,0,0-.06507.33068l.7627,1.503a.27365.27365,0,0,0,.24375.14935.27909.27909,0,0,0,.12374-.02934l10.9595-5.56082A.27627.27627,0,0,0,29.23156,103.11454Z"/>
        <path class="cls-3" d="M15.29911,96.44966l6.59554-1.9313a3.35958,3.35958,0,0,0,1.86676-1.21286,2.46607,2.46607,0,0,0,.22828-2.20918l-.65763-2.246A2.466,2.466,0,0,0,21.948,87.11424a3.35917,3.35917,0,0,0-2.22625-.0144l-6.59554,1.9313a3.388,3.388,0,0,0-1.8833,1.21767,2.46629,2.46629,0,0,0-.22881,2.20918l.65763,2.246a2.4649,2.4649,0,0,0,1.38354,1.73609,2.79943,2.79943,0,0,0,1.05446.19468A4.23261,4.23261,0,0,0,15.29911,96.44966Zm5.38108-7.66973a.92478.92478,0,0,1,.35948.06667.784.784,0,0,1,.423.5515l.65763,2.246a.78347.78347,0,0,1-.05813.6923,1.22955,1.22955,0,0,1-.69711.43789l-6.57847,1.9265a1.23439,1.23439,0,0,1-.823.0064.78177.78177,0,0,1-.42242-.551l-.65763-2.246a.78066.78066,0,0,1,.05867-.69176,1.22941,1.22941,0,0,1,.69657-.43843l6.57847-1.9265A1.66977,1.66977,0,0,1,20.68019,88.77993Z"/>
        <path class="cls-3" d="M22.14693,85.79631a.27316.27316,0,0,0,.27095-.30722l-.15734-1.2502a.27315.27315,0,0,0-.24215-.23734l-2.27425-.24161L19.318,80.37043l2.143-.82724a.27371.27371,0,0,0,.17281-.28909l-.17174-1.36433a.27329.27329,0,0,0-.37122-.21975L9.2892,82.32093a.27309.27309,0,0,0-.17068.288l.184,1.46141a.27244.27244,0,0,0,.23895.23681l12.57345,1.487A.21505.21505,0,0,0,22.14693,85.79631Zm-4.14368-2.22945-5.48668-.61123,5.16293-1.96384Z"/>
      </g>
      <g>
        <rect class="cls-3" x="14.34008" y="57.91665" width="2.99202" height="14.67512" rx="1.49601"/>
        <rect class="cls-3" x="14.62503" y="58.20161" width="2.99202" height="14.67512" rx="1.49601" transform="translate(72.74058 28.80366) rotate(70.84298)"/>
        <path class="cls-3" d="M15.69361,58.20161h0a1.496,1.496,0,0,1,1.496,1.496V71.38072a1.496,1.496,0,0,1-1.496,1.496h0a1.496,1.496,0,0,1-1.496-1.496V59.69761a1.496,1.496,0,0,1,1.496-1.496Z" transform="translate(80.29901 84.71764) rotate(119.99995)"/>
      </g>
      <g>
        <rect class="cls-3" x="43.54785" y="121.46137" width="2.99202" height="14.67512" rx="1.49601"/>
        <rect class="cls-3" x="43.8328" y="121.74632" width="2.99202" height="14.67512" rx="1.49601" transform="translate(152.38922 43.90515) rotate(70.84288)"/>
        <rect class="cls-3" x="43.40537" y="121.74632" width="2.99202" height="14.67512" rx="1.49601" transform="translate(179.14199 154.7401) rotate(120)"/>
      </g>
      <g>
        <rect class="cls-3" x="101.39365" y="121.87913" width="2.99202" height="14.67512" rx="1.49601" transform="translate(4.4423 -3.4157) rotate(1.94387)"/>
        <rect class="cls-3" x="101.66877" y="122.17359" width="2.99202" height="14.67512" rx="1.49601" transform="translate(196.34587 -7.35884) rotate(72.78683)"/>
        <rect class="cls-3" x="101.24159" y="122.15909" width="2.99202" height="14.67512" rx="1.49601" transform="translate(266.98141 110.83217) rotate(121.9439)"/>
      </g>
      <g>
        <rect class="cls-3" x="129.33713" y="48.75578" width="2.99202" height="14.67512" rx="1.49601" transform="translate(-11.36725 49.54953) rotate(-20.57194)"/>
        <rect class="cls-3" x="129.70404" y="48.92243" width="2.99202" height="14.67512" rx="1.49601" transform="translate(90.61076 -80.6018) rotate(50.27098)"/>
        <rect class="cls-3" x="129.30387" y="49.07263" width="2.99202" height="14.67512" rx="1.49601" transform="translate(207.87422 -63.38239) rotate(99.42803)"/>
      </g>
      <g>
        <rect class="cls-3" x="80.61617" y="8.16491" width="2.99202" height="14.67512" rx="1.49601" transform="translate(0.74086 34.51418) rotate(-23.84215)"/>
        <rect class="cls-3" x="80.99199" y="8.31036" width="2.99202" height="14.67512" rx="1.49601" transform="translate(37.67641 -55.35242) rotate(47.00075)"/>
        <rect class="cls-3" x="80.60103" y="8.48314" width="2.99202" height="14.67512" rx="1.49601" transform="translate(106.63285 -64.1056) rotate(96.15786)"/>
      </g>
      <path class="cls-4" d="M94.14143,102.32648H90.10484a6.45574,6.45574,0,0,0-4.61607-2.22871H83.06344v2.22871H77.64729l-2.17308-69.483h-1.7334l-2.17314,69.483H66.15152v-2.22871H63.72619a6.45563,6.45563,0,0,0-4.616,2.22871H55.07359v3.1464h4.14358a6.51984,6.51984,0,0,0,4.509,2.09755h2.42533v-2.09755h5.31776l-.07374,2.35975s.03791,2.99045.29507,5.89956H67.06927v2.88414h4.97838a9.42692,9.42692,0,0,0,.46954,1.83548h4.18064a9.42639,9.42639,0,0,0,.46961-1.83548h4.97832v-2.88414H77.52447c.2571-2.90911.295-5.89956.295-5.89956l-.0738-2.35975h5.31775v2.09755h2.42533a6.52,6.52,0,0,0,4.50908-2.09755h4.14358Z"/>
      <g>
        <path class="cls-5" d="M56.59954,65.57824l.06532-.58073a8.69691,8.69691,0,0,1,1.30741-3.67575A23.51373,23.51373,0,0,1,62.116,56.879a23.23552,23.23552,0,0,0,2.90723-2.87,3.21777,3.21777,0,0,0,.64707-1.81619,1.84914,1.84914,0,0,0-.48683-1.40437,1.96129,1.96129,0,0,0-1.42581-.47561,1.9394,1.9394,0,0,0-1.42835.50368,2.81864,2.81864,0,0,0-.61237,1.83047l-.03623.53634-4.652-.447.05919-.52766A6.0984,6.0984,0,0,1,59.30928,47.743a7.48337,7.48337,0,0,1,4.53817-1.34619,6.79135,6.79135,0,0,1,4.72086,1.57736,5.16839,5.16839,0,0,1,1.76005,3.97224,6.58133,6.58133,0,0,1-.494,2.52143,9.96643,9.96643,0,0,1-1.5202,2.44183,22.90205,22.90205,0,0,1-2.41682,2.36528c-1.12064.989-1.83405,1.64778-2.12033,1.95805q-.039.0421-.07655.0842h6.62788v4.26107Z"/>
        <path class="cls-6" d="M63.84745,46.91952a6.2629,6.2629,0,0,1,4.36964,1.44124,4.64533,4.64533,0,0,1,1.58885,3.58543,6.032,6.032,0,0,1-.45482,2.3226,9.38563,9.38563,0,0,1-1.44162,2.3101,22.56728,22.56728,0,0,1-2.35762,2.30385q-1.70412,1.50338-2.15924,1.9962a5.99692,5.99692,0,0,0-.73663.961h7.14993V65.0555H57.18448a8.1411,8.1411,0,0,1,1.23023-3.45575,23.30417,23.30417,0,0,1,4.049-4.33086,24.93244,24.93244,0,0,0,2.98556-2.9571,3.71336,3.71336,0,0,0,.74326-2.11919,2.3563,2.3563,0,0,0-.64694-1.78021,2.83472,2.83472,0,0,0-3.58173.03088,3.277,3.277,0,0,0-.76878,2.16836l-3.58747-.34484A5.57673,5.57673,0,0,1,59.61916,48.164a6.94215,6.94215,0,0,1,4.22829-1.24452m0-1.04511a7.99129,7.99129,0,0,0-4.84768,1.44781,6.5895,6.5895,0,0,0-2.43072,4.82822l-.11814,1.05506,1.05672.10162,3.58747.34484,1.07012.10282.07259-1.0726a2.44139,2.44139,0,0,1,.45774-1.49259,1.4464,1.4464,0,0,1,1.06234-.35409,1.47354,1.47354,0,0,1,1.06348.33043,1.27126,1.27126,0,0,1,.32609,1.02667,2.68257,2.68257,0,0,1-.55713,1.52385,22.97346,22.97346,0,0,1-2.82392,2.774,23.96933,23.96933,0,0,0-4.23683,4.55367,9.21568,9.21568,0,0,0-1.3837,3.89455l-.13064,1.162H70.85105v-5.3058H64.98467c.30784-.28246.71635-.65,1.25855-1.12836a23.21345,23.21345,0,0,0,2.47614-2.427,10.45831,10.45831,0,0,0,1.59778-2.57183,7.10151,7.10151,0,0,0,.53391-2.72147,5.67221,5.67221,0,0,0-1.93152-4.35925,7.29312,7.29312,0,0,0-5.07208-1.71253Z"/>
      </g>
      <g>
        <path class="cls-5" d="M77.57576,65.57824l.06532-.58073a8.69691,8.69691,0,0,1,1.30741-3.67575A23.51267,23.51267,0,0,1,83.09168,56.879a23.20812,23.20812,0,0,0,2.90723-2.86946,3.2167,3.2167,0,0,0,.64707-1.8167,1.84634,1.84634,0,0,0-.48683-1.40386,2.32305,2.32305,0,0,0-2.85365.02756,2.81911,2.81911,0,0,0-.61288,1.83047l-.03623.53634-4.651-.447.05869-.52766A6.095,6.095,0,0,1,80.2855,47.743a7.48337,7.48337,0,0,1,4.53817-1.34619A6.79086,6.79086,0,0,1,89.544,47.97414a5.16887,5.16887,0,0,1,1.76057,3.97224,6.59077,6.59077,0,0,1-.494,2.52143,9.95107,9.95107,0,0,1-1.52072,2.44183,22.74909,22.74909,0,0,1-2.41682,2.36528c-1.12064.989-1.83405,1.64778-2.12033,1.95805q-.039.0421-.07655.0842h6.6284v4.26107Z"/>
        <path class="cls-6" d="M84.82354,46.91952a6.26335,6.26335,0,0,1,4.36965,1.44124,4.64566,4.64566,0,0,1,1.58871,3.58543,6.03222,6.03222,0,0,1-.45481,2.3226,9.38232,9.38232,0,0,1-1.44162,2.3101,22.56764,22.56764,0,0,1-2.35763,2.30385q-1.7041,1.50338-2.15924,1.9962a6.00568,6.00568,0,0,0-.73663.961H90.7819V65.0555H78.16045a8.13969,8.13969,0,0,1,1.23035-3.45575,23.30237,23.30237,0,0,1,4.04891-4.33086,24.9308,24.9308,0,0,0,2.98556-2.9571,3.71349,3.71349,0,0,0,.74339-2.11919,2.35632,2.35632,0,0,0-.64707-1.78021,2.83471,2.83471,0,0,0-3.58172.03088,3.277,3.277,0,0,0-.76878,2.16836l-3.58747-.34484A5.57633,5.57633,0,0,1,80.59526,48.164a6.9416,6.9416,0,0,1,4.22828-1.24452m0-1.04511a7.99074,7.99074,0,0,0-4.84767,1.44781A6.58937,6.58937,0,0,0,77.545,52.15044l-.11814,1.05506,1.05672.10162,3.58747.34484,1.07011.10282.0726-1.0726a2.44139,2.44139,0,0,1,.45774-1.49259,1.44639,1.44639,0,0,1,1.06234-.35409,1.47354,1.47354,0,0,1,1.06348.33043,1.27137,1.27137,0,0,1,.32621,1.02667,2.68249,2.68249,0,0,1-.55725,1.52385,22.97346,22.97346,0,0,1-2.82392,2.774,23.96009,23.96009,0,0,0-4.23671,4.55367,9.21508,9.21508,0,0,0-1.38383,3.89455l-.13064,1.162H91.827v-5.3058H85.96064c.30771-.28246.71634-.65,1.25854-1.12836a23.21379,23.21379,0,0,0,2.47615-2.427,10.45715,10.45715,0,0,0,1.59777-2.57183,7.10132,7.10132,0,0,0,.53391-2.72147A5.67234,5.67234,0,0,0,89.89575,47.587a7.294,7.294,0,0,0-5.07221-1.7126Z"/>
      </g>
      <g>
        <path class="cls-3" d="M60.977,79.73283H59.486a.4903.4903,0,0,0-.47605.372l-1.992,8.003-1.97977-8.00252a.49033.49033,0,0,0-.47605-.37249H53.01127a.49011.49011,0,0,0-.49028.49028V91.53146a.49011.49011,0,0,0,.49028.49028h1.0689a.49011.49011,0,0,0,.49028-.49028V86.39014L55.924,91.65366a.49038.49038,0,0,0,.47507.36808H57.5887a.48989.48989,0,0,0,.47457-.3671l1.36925-5.27971v5.15653a.49011.49011,0,0,0,.49028.49028H60.977a.49011.49011,0,0,0,.49028-.49028V80.22311A.49011.49011,0,0,0,60.977,79.73283Z"/>
        <path class="cls-3" d="M66.82747,80.1014a.49.49,0,0,0-.47507-.36857h-1.355a.49033.49033,0,0,0-.47605.37249L61.7205,91.41367a.49012.49012,0,0,0,.47605.60807h1.15969a.49031.49031,0,0,0,.47752-.37838l.43777-1.864h2.767l.46427,1.87033a.49083.49083,0,0,0,.476.372H69.244a.49034.49034,0,0,0,.47507-.612Zm-.28563,7.633H64.76132l.88584-3.68225Z"/>
        <path class="cls-3" d="M76.79356,86.37689a1.96709,1.96709,0,0,0,.23459-.30035,2.95215,2.95215,0,0,0,.37053-1.61071V82.73978a3.17883,3.17883,0,0,0-.70622-2.2492,2.75007,2.75007,0,0,0-2.08774-.75775H70.8248a.49011.49011,0,0,0-.49028.49028V91.53146a.49011.49011,0,0,0,.49028.49028h1.1749a.49011.49011,0,0,0,.49028-.49028V87.52088H74.5895a.67826.67826,0,0,1,.585.22428,1.094,1.094,0,0,1,.21987.72143v3.06487a.49011.49011,0,0,0,.49028.49028h1.17441a.49011.49011,0,0,0,.49028-.49028V88.40181a2.86258,2.86258,0,0,0-.45838-1.67745A2.28727,2.28727,0,0,0,76.79356,86.37689ZM72.49,82.00363h2.11474c.267,0,.71456,0,.71456.99381v1.61365a.91035.91035,0,0,1-.16048.58451c-.03043.0373-.12368.15116-.46378.15116H72.49Z"/>
        <rect class="cls-3" x="78.91761" y="79.73283" width="2.15498" height="12.28891" rx="0.49028"/>
        <path class="cls-3" d="M89.42159,79.73283H88.3679a.49011.49011,0,0,0-.49028.49028v6.3015l-2.88671-6.50075a.48977.48977,0,0,0-.44808-.291H83.27812a.49011.49011,0,0,0-.49028.49028V91.53146a.49011.49011,0,0,0,.49028.49028H84.347a.49011.49011,0,0,0,.49028-.49028V84.90752l3.00646,6.82172a.49.49,0,0,0,.44857.2925h1.12926a.49011.49011,0,0,0,.49028-.49028V80.22311A.49011.49011,0,0,0,89.42159,79.73283Z"/>
        <path class="cls-3" d="M97.91439,82.00363a.49012.49012,0,0,0,.49028-.49028V80.22311a.49011.49011,0,0,0-.49028-.49028H92.04133a.49011.49011,0,0,0-.49028.49028V91.53146a.49011.49011,0,0,0,.49028.49028h5.87306a.49011.49011,0,0,0,.49028-.49028V90.24073a.49012.49012,0,0,0-.49028-.49028H93.70651V86.87551h2.31056a.49011.49011,0,0,0,.49028-.49028V85.19168a.49011.49011,0,0,0-.49028-.49028H93.70651V82.00363Z"/>
      </g>
      <g>
        <path class="cls-3" d="M61.09563,127.33931a3.42429,3.42429,0,0,0-3.176.35331,6.23786,6.23786,0,0,0-2.057,3.28728l-.86461,2.68951c-1.01127,3.14711-.28495,5.14116,2.15965,5.92614a5.22645,5.22645,0,0,0,1.45582.2688c1.54086.0411,2.66312-.82639,3.3457-2.59237a.27316.27316,0,0,0-.13068-.34176l-1.43548-.73138a.27348.27348,0,0,0-.38415.16,1.738,1.738,0,0,1-.78946,1.09246,1.807,1.807,0,0,1-1.37054-.00562,1.4127,1.4127,0,0,1-1.01837-.9865,3.85909,3.85909,0,0,1,.209-2.134l.86353-2.689c.8594-2.67417,2.09678-2.27728,2.50147-2.147a1.52976,1.52976,0,0,1,1.0974,2.2243.27305.27305,0,0,0,.23117.35458l1.60563.17355a.26975.26975,0,0,0,.2941-.2045C64.23569,129.65492,63.382,128.07418,61.09563,127.33931Z"/>
        <path class="cls-3" d="M72.38814,129.48239l-1.27947-.17926a.27392.27392,0,0,0-.30821.23294l-.71581,5.11206-3.65665-.51159.71529-5.11207a.2739.2739,0,0,0-.23295-.3082l-1.26407-.17672a.2804.2804,0,0,0-.3082.23294l-1.70286,12.17075a.27356.27356,0,0,0,.23241.30819l1.264.17725a.26941.26941,0,0,0,.20256-.05275.27248.27248,0,0,0,.10618-.18018l.7272-5.19872,3.65666.51105-.72723,5.19979a.2739.2739,0,0,0,.23294.30821l1.28.17874.03088.00242a.27321.27321,0,0,0,.27732-.23536l1.70288-12.17128A.27361.27361,0,0,0,72.38814,129.48239Z"/>
        <path class="cls-3" d="M76.16231,129.54894a.29381.29381,0,0,0-.19312-.08092l-1.27665-.00525a.27369.27369,0,0,0-.274.27227l-.0515,12.29a.27309.27309,0,0,0,.26587.27387l.0064.00017,1.27611.00524a.27356.27356,0,0,0,.274-.27174l.052-12.29A.27369.27369,0,0,0,76.16231,129.54894Z"/>
        <path class="cls-3" d="M85.04306,128.69635a.27831.27831,0,0,0-.20183-.05447l-1.13563.149a.27385.27385,0,0,0-.23547.30638l1.04773,8.0056-4.66525-7.6438a.27236.27236,0,0,0-.26868-.12881l-1.36372.17864a.27355.27355,0,0,0-.23546.30637l1.59568,12.18566a.27341.27341,0,0,0,.26311.23751.29478.29478,0,0,0,.04327-.002l1.15222-.15066a.27379.27379,0,0,0,.23547-.30638l-1.09478-8.36221,4.8419,7.98251a.27709.27709,0,0,0,.26919.12937l1.21649-.15963a.27384.27384,0,0,0,.23546-.30638l-1.59515-12.18563A.27271.27271,0,0,0,85.04306,128.69635Z"/>
        <path class="cls-3" d="M96.22442,138.34567l-6.5221-10.88023a.27426.27426,0,0,0-.31209-.12144l-1.41126.42067a.27405.27405,0,0,0-.19514.27491l.59363,12.64711a.27246.27246,0,0,0,.115.20955.27366.27366,0,0,0,.23585.03938l1.208-.35994a.27359.27359,0,0,0,.19469-.27812l-.1349-2.28293,3.27376-.976,1.168,1.97862a.27339.27339,0,0,0,.31311.12307l1.31713-.39224a.27326.27326,0,0,0,.15639-.40239Zm-6.32364-2.07989-.29578-5.51253,2.78323,4.7711Z"/>
      </g>
    </g>
  </g>
</svg>
