<svg xmlns="http://www.w3.org/2000/svg" width="150" height="150" viewBox="0 0 150 150">
  <defs>
    <style>
      .cls-1 {
        fill: #c12727;
      }

      .cls-2 {
        fill: #21239c;
      }

      .cls-3 {
        fill: #fbb03b;
      }

      .cls-4 {
        fill: #f6f6f6;
      }

      .cls-5 {
        fill: #e6e7e8;
      }
    </style>
  </defs>
  <g id="Layer_5" data-name="Layer 5">
    <g>
      <path class="cls-1" d="M69.48891,5.65042H17.47874V118.6018a18.38743,18.38743,0,0,0,18.38743,18.38744h23.641s9.98175,0,15.2353,7.88033h.52536c5.25355-7.88033,15.2353-7.88033,15.2353-7.88033h23.641a18.38743,18.38743,0,0,0,18.38743-18.38744V5.65042H69.48891Z"/>
      <path class="cls-2" d="M132.75164,118.46384V5.29637H17.47874V24.79285l95.50214,112.0936H114.329A18.42262,18.42262,0,0,0,132.75164,118.46384Z"/>
      <path class="cls-3" d="M132.83419,118.68615v-4.42236L39.85413,5.13043H17.16581V28.70114L109.58141,137.172h4.767A18.48582,18.48582,0,0,0,132.83419,118.68615Z"/>
      <polygon class="cls-4" points="82.087 61.633 80.398 57.455 75.903 57.77 75.375 59.886 69.216 60.318 68.521 58.598 64.025 58.913 62.935 63.286 64.509 64.269 63.016 70.26 60.84 70.412 59.75 74.785 63.572 77.173 64.932 76.032 70.979 79.81 70.476 81.829 74.298 84.217 77.75 81.32 76.891 79.194 81.768 75.101 83.713 76.315 87.165 73.418 85.476 69.239 83.4 69.385 80.728 62.774 82.087 61.633"/>
      <polygon class="cls-2" points="47.792 84.876 24.614 125.021 70.969 125.021 47.792 84.876"/>
      <path class="cls-3" d="M72.78931,126.07152H22.79437L47.79184,82.77486ZM26.43389,123.9701h42.7159L47.79184,86.9777Z"/>
      <path class="cls-3" d="M55.77567,113.199a3.04341,3.04341,0,0,0-2.7061-1.84606c.03521-.15718.0615-.31725.08459-.4786l3.87148-.6649-3.82909-.7813a6.21108,6.21108,0,0,0-.2444-1.26779l.132-.09184a1.27463,1.27463,0,0,1,1.14459-.77777c.94144-.10889,2.42477-.28615,2.46466-2.36705a1.52512,1.52512,0,0,1-1.51521.77572,3.1698,3.1698,0,0,0-2.95365.904q-.06637-.10273-.13634-.20272l2.3196-3.23364-3.29553,2.1458a6.25007,6.25007,0,0,0-.75084-.57153l.06567-.20085a1.27459,1.27459,0,0,1,.44519-1.31018c.68581-.654,1.76314-1.689.54152-3.374a1.52508,1.52508,0,0,1-.74224,1.53188,3.08835,3.08835,0,0,0-1.81072,2.64339,6.20614,6.20614,0,0,0-.97728-.21644l-.738-3.74912-.66214,3.702a6.20982,6.20982,0,0,0-1.47942.30013,1.4372,1.4372,0,0,1-.17854-1.01178c.14006-.93726.35534-2.41559-1.64334-2.9961a1.52508,1.52508,0,0,1,.35426,1.665,3.21938,3.21938,0,0,0,.05316,3.02464c-.07478.04855-.14763.0994-.22016.151L40.36247,102.748l1.99407,3.05632a6.24686,6.24686,0,0,0-.82484,1.14261,1.46106,1.46106,0,0,1-.72185-.58962c-.532-.78425-1.37521-2.01747-3.23858-1.0904a1.52511,1.52511,0,0,1,1.38855.98465,3.28963,3.28963,0,0,0,1.98515,2.17235,6.2013,6.2013,0,0,0-.13435.67273l-3.56507.61219,3.517.71761a6.21094,6.21094,0,0,0,.28384,1.4843,1.33789,1.33789,0,0,1-1.20052.41986c-.94374-.08606-2.432-.21625-2.89689,1.81245a1.52505,1.52505,0,0,1,1.64186-.44917,3.11762,3.11762,0,0,0,3.142-.33983c.09671.15039.20047.2952.30936.43635l-2.124,2.96089,3.05209-1.98733a6.25121,6.25121,0,0,0,.89987.62662,1.45216,1.45216,0,0,1-.51195.81285c-.71948.61674-1.85016,1.59325-.71948,3.34061a1.52513,1.52513,0,0,1,.82228-1.49045,3.38293,3.38293,0,0,0,1.89044-2.04916,6.196,6.196,0,0,0,1.05487.19361l.71935,3.65434.65862-3.68243a6.19265,6.19265,0,0,0,1.37386-.34034,1.45336,1.45336,0,0,1,.27205.91687c-.00969.94759-.01937,2.44151,2.04017,2.74125a1.525,1.525,0,0,1-.58012-1.60024,3.36322,3.36322,0,0,0-.31706-2.80166c.07067-.04983.139-.10242.2074-.15513l3.12814,2.23956-2.10308-3.22332a6.2483,6.2483,0,0,0,.70774-1.07393l.11351.03893a1.27452,1.27452,0,0,1,1.30415.46283c.64464.69453,1.665,1.78577,3.36639.587A1.52512,1.52512,0,0,1,55.77567,113.199Z"/>
      <polygon class="cls-5" points="117.672 21.022 101.791 31.456 112.225 15.575 88.994 15.575 99.428 31.456 83.547 21.022 83.547 44.254 99.428 33.819 88.994 49.7 112.225 49.7 101.791 33.819 117.672 44.254 117.672 21.022"/>
    </g>
  </g>
</svg>
