<svg xmlns="http://www.w3.org/2000/svg" width="150" height="150" viewBox="0 0 150 150">
  <defs>
    <style>
      .cls-1 {
        fill: #35449c;
      }

      .cls-2 {
        fill: #f6f6f6;
      }

      .cls-3 {
        fill: #c1272d;
      }
    </style>
  </defs>
  <g id="Layer_3" data-name="Layer 3">
    <g>
      <path class="cls-1" d="M120.86957,136.25167a95.56674,95.56674,0,0,1-45.13714,11.7192,96.4987,96.4987,0,0,1-46.602-11.7192V13.56653a96.94069,96.94069,0,0,1,91.73914,0Z"/>
      <path class="cls-2" d="M74.99826,139.12425a83.162,83.162,0,0,1-39.208-9.87637l-.73963-.39689V20.59268l.7506-.39483a84.62911,84.62911,0,0,1,38.73365-9.68307c.15491-.00069.3112-.00137.46544-.00137A84.586,84.586,0,0,1,114.198,20.19785l.7506.39483V128.851l-.73963.39689a83.23247,83.23247,0,0,1-38.37034,9.87226C75.5583,139.12288,75.27656,139.12425,74.99826,139.12425ZM37.85835,127.16677a79.958,79.958,0,0,0,74.28256,0V22.29335a81.36191,81.36191,0,0,0-74.28256,0Z"/>
      <g>
        <path class="cls-2" d="M103.15337,55.45342a82.29578,82.29578,0,0,0-12.772-29.38951l-.82395-.54932H82.96534a22.94576,22.94576,0,0,0-5.49343-13.04676L70.468,12.7425c-3.9828,3.15868-6.04284,11.39873-6.04284,11.39873-7.416,1.51067-9.888,6.45473-9.888,6.45473l3.98263,3.708a25.45257,25.45257,0,0,1,3.29613-2.19735,3.713,3.713,0,0,0,2.1973,3.84536v8.92673c-2.33474,1.37332-3.43339,5.08137-3.43339,5.08137a93.985,93.985,0,0,0-4.26813,11.46446l-3.14789-.20308a70.05958,70.05958,0,0,0-2.884,10.57471l3.20924,1.41808q-.347,1.92927-.59654,3.674l-3.71135.40126-.54941,8.37732,3.34547.65463c-.05381,1.25691-.04935,1.95482-.04935,1.95482.00651.5955.023,1.18022.03993,1.76442l-3.47332.84485.412,7.69073,3.77562.78658q.25577,2.02766.57974,3.92951l-3.53141,1.876,1.64806,6.31737H55.04c.32012,1.20122.65086,2.34794.98743,3.42962l-2.58888,2.88775s3.296,7.96543,5.9054,10.3H61.5952c.05107.08534.08329.13744.08329.13744h2.88415v5.49325c2.33457,3.84537,13.32125,4.12007,16.2054,2.74671,2.884-1.37335,3.15868-3.29595,3.15868-3.29595v-5.21872h4.944l.05072-.13735h1.18519c3.29613-3.02133,5.49343-10.30009,5.49343-10.30009l-2.55615-2.55614c.31669-1.12539.63372-2.28873.94356-3.48652h3.94733l1.64789-6.31737L95.887,103.10313c.27145-1.4216.51428-2.84362.71667-4.24885l3.51393.27025c.02177-.08535.06461-.24275.15184-.54821.2747-.9613.2747-7.27867.2747-7.27867l-3.29029-.98709c-.00206-.22013.00034-.44445-.00566-.66089-.02845-1.021-.07934-2.03167-.14635-3.03084l3.1676-.81452a43.23447,43.23447,0,0,0-.96122-7.96543l-3.27984-.19879c-.26014-1.535-.54478-2.99948-.83971-4.37057l3.29544-1.336a39.10366,39.10366,0,0,0-3.02142-10.43739l-3.50794.10025a106.91314,106.91314,0,0,0-4.04535-13.28432h5.49343c6.31737,14.42007,7.828,31.99882,7.828,31.99882s-.4992,3.22707,1.78533,3.7081c2.60944.54924,2.472-1.23609,2.472-1.23609S107.13617,73.30688,103.15337,55.45342Z"/>
        <path class="cls-2" d="M100.13212,99.12573l-.01457-.0012C100.07094,99.30806,100.13212,99.12573,100.13212,99.12573Z"/>
      </g>
      <path class="cls-3" d="M85.62054,101.735H80.21863V21.98969l-5.31023-8.24h-.64093l-5.31023,7.87383v79.83682l-.11944.27471H63.18928v4.8525h5.54929a3.42532,3.42532,0,0,1,1.409,1.55647c.366,1.28176-.64093,2.92982-1.28185,3.75376-.64092.824-3.29612,4.761-1.83125,7.96543A40.40382,40.40382,0,0,0,70.88,126.18053a3.5901,3.5901,0,0,1-.36639,3.75377,6.59192,6.59192,0,0,1-3.02125,1.83117,7.0435,7.0435,0,0,0,5.58494,4.3946c4.48612.824,7.0498-3.29595,7.14132-6.31737V106.5875h5.40191Z"/>
    </g>
  </g>
</svg>
