<svg xmlns="http://www.w3.org/2000/svg" width="150" height="150" viewBox="0 0 150 150">
  <defs>
    <style>
      .cls-1 {
        fill: #1d3678;
      }

      .cls-2 {
        fill: #eee;
      }

      .cls-3 {
        fill: #c1272d;
      }
    </style>
  </defs>
  <g id="Layer_2" data-name="Layer 2">
    <g>
      <polygon class="cls-1" points="75 149 75 149 15 120.104 15 2 135 2 135 120.104 75 149"/>
      <polygon class="cls-2" points="112.631 70.525 75 108.443 37.369 70.525 75 32.606 112.631 70.525"/>
      <polygon class="cls-3" points="108.067 70.525 75 103.845 41.933 70.525 75 37.205 108.067 70.525"/>
      <polygon class="cls-2" points="53.529 15.07 55.975 22.655 63.89 22.655 57.486 27.343 59.932 34.929 53.529 30.241 47.125 34.929 49.571 27.343 43.167 22.655 51.083 22.655 53.529 15.07"/>
      <polygon class="cls-2" points="90.037 9.341 92.483 16.926 100.399 16.926 93.995 21.614 96.441 29.2 90.037 24.512 83.634 29.2 86.08 21.614 79.676 16.926 87.591 16.926 90.037 9.341"/>
      <polygon class="cls-2" points="113.978 31.956 116.424 39.542 124.339 39.542 117.935 44.23 120.381 51.815 113.978 47.127 107.574 51.815 110.02 44.23 103.616 39.542 111.532 39.542 113.978 31.956"/>
      <polygon class="cls-2" points="115.623 84.725 118.069 92.311 125.985 92.311 119.581 96.999 122.027 104.584 115.623 99.896 109.22 104.584 111.666 96.999 105.262 92.311 113.177 92.311 115.623 84.725"/>
      <polygon class="cls-2" points="63.853 110.959 66.299 118.545 74.214 118.545 67.811 123.233 70.256 130.818 63.853 126.13 57.449 130.818 59.895 123.233 53.492 118.545 61.407 118.545 63.853 110.959"/>
      <path class="cls-2" d="M62.73067,71.05231s-.44887,1.80923-1.197,2.26154-.89776-.60308-.89776-.60308-.14963-6.93539-.14963-7.68923S58.99,57.78462,66.62095,53.56308s14.06484-2.26154,17.35661-.15077a12.0863,12.0863,0,0,1,5.68578,9.95077c.14963,4.3723-.5985,8.14154-1.197,8.44307s-1.64588,0-2.54364-1.96c0,0,.14963,2.41231.89776,3.16616s1.49626,1.20615,1.49626,2.11077,0,2.26154-1.04738,2.71384-4.0399,0-5.53616,1.65846-1.79551,2.71385-1.79551,3.4677,0,2.56307-.59851,3.01538c0,0-.29925.60308-.89775,0a1.53385,1.53385,0,0,1-.29926-1.05538,8.74574,8.74574,0,0,0-.14962-2.26154,16.0002,16.0002,0,0,0-.74813,2.86461,5.955,5.955,0,0,1-2.54364-.30153,2.20284,2.20284,0,0,1-.14963-.90462,4.70339,4.70339,0,0,0-.29925-1.50769c0,.15077-.29925,1.96-.29925,2.71384s-1.34663.75385-1.64589.45231-.14962-3.31692-.29925-3.46769-.44888.60308-.74813.75385-1.34663.60307-1.79551-1.20616S67.96758,78.44,65.57357,78.44s-3.4414.60308-4.48878-1.20615,0-1.80923.5985-2.26154S63.02993,73.61538,62.73067,71.05231Z"/>
      <path class="cls-2" d="M64.52618,85.22462s-.14962-3.01539-.14962-3.92-.29925-1.65847.74813-1.80924,1.79551,2.11077,2.24439,3.61847.29925,3.16615,1.04738,4.07077,1.197,1.50769,1.49626,1.20615.14962-.90462.44888-1.05539,1.04738-.15076,1.34663-.30153.14963-.15077.44888-.30154,1.49626-.60308,1.64588,0,.29925,2.56307.59851,2.26154.44887-2.11077.74813-2.26154,1.34663-.30154,1.49626.15077a15.74507,15.74507,0,0,0,.44887,1.80923c.14963.15077.59851-1.65846.89776-1.80923a3.08676,3.08676,0,0,1,1.197,0c.29925.15077.29925.90461.29925,1.20615s1.197.15077,1.64588-1.65846.74813-3.31692.89776-3.61846,1.04738-1.80923,1.94514-1.96.89775.75384.89775.90461-.5985,4.67385-.5985,5.4277a8.2439,8.2439,0,0,1-2.394,4.22153c-1.49626,1.5077-1.34663,1.5077-1.94513,1.65847s-7.33167,1.50769-10.02494-.60308-2.394-2.71385-3.89028-3.61846-1.64588-1.20616-1.64588-1.65846S64.52618,85.67692,64.52618,85.22462Z"/>
      <path class="cls-3" d="M77.394,69.99692s1.34664,1.80923,1.64589,2.41231.89776,1.96,2.84289.90462,1.79551-4.07077,1.79551-4.52308S82.78055,66.37846,79.788,66.68s-2.99252,2.41231-2.84289,2.71385A2.81046,2.81046,0,0,0,77.394,69.99692Z"/>
      <path class="cls-3" d="M68.41646,66.68a4.703,4.703,0,0,1,2.69327.30154c1.04738.60308,1.64588,1.35692,1.49626,1.80923a14.43371,14.43371,0,0,1-1.34664,2.71385c-.74813,1.20615-1.34663,2.56307-3.591,1.80923s-1.94514-4.52308-1.64589-5.12616A2.71169,2.71169,0,0,1,68.41646,66.68Z"/>
      <path class="cls-3" d="M75.29925,72.40923s1.04738,2.71385,1.49626,3.76923.74813,1.35692.44888,1.50769-.89776.45231-1.197,0S75.29925,76.32923,75,76.48s-1.197,1.20615-1.49626,1.20615-.74813.15077-.74813-.15077a39.12266,39.12266,0,0,1,2.09476-5.88C75.14963,71.50462,75.29925,72.40923,75.29925,72.40923Z"/>
    </g>
  </g>
</svg>
