<svg xmlns="http://www.w3.org/2000/svg" width="150" height="150" viewBox="0 0 150 150">
  <defs>
    <style>
      .cls-1 {
        fill: #fcc34c;
      }

      .cls-2 {
        fill: #27299c;
      }

      .cls-3 {
        fill: #ed1c24;
      }
    </style>
  </defs>
  <g id="Layer_2" data-name="Layer 2">
    <g>
      <circle class="cls-1" cx="75" cy="75" r="70"/>
      <polygon class="cls-2" points="104.758 24.783 46.461 24.783 74.41 75.592 46.461 126.401 104.758 126.401 76.809 75.592 104.758 24.783"/>
      <path class="cls-3" d="M24.529,98.96739s10.27173,16.61232,23.96739,20.03623l2.28261-3.80434A46.38347,46.38347,0,0,1,28.84058,98.96739s11.28623,4.81884,15.09058-.63406c0,0-17.11957-.38043-22.44565-16.86594,0,0-10.27174,21.43116,8.49637,31.32247C29.98188,112.78986,24.40217,105.56159,24.529,98.96739Z"/>
      <path class="cls-3" d="M102.77174,118.87681l2.40942,4.3116s11.03261-3.42392,16.61232-8.75,10.9058-16.23189,11.53985-21.05073-.19835-12.42754-7.35507-12.42754c-5.07246,0-5.32609,4.81885-5.32609,7.10145s-2.53623,6.4674-4.692,7.98913c0,0,.25363,1.39493,4.058,1.90218,0,0,4.18478-4.3116,4.94565-6.97464s.12681-5.07246.76087-5.57971,3.55072.25362,2.91666,7.35507-7.86231,16.48551-9.00362,17.75363S111.26812,117.6087,102.77174,118.87681Z"/>
      <path class="cls-3" d="M86.92029,87.68116l5.96014,11.15942s15.72464-.88768,19.27537-1.90217,5.57971-3.55073,5.57971-5.07247-7.22826-14.837-7.22826-14.837l-6.46739.12681,5.07246,10.779s1.26811,1.90218-.63406,2.40942S100.99638,90.72464,86.92029,87.68116Z"/>
      <path class="cls-3" d="M94.27536,57.11957,102.89855,75l14.2029.88768s7.48188-7.35507,8.49638-13.442,1.26811-17.88043,1.26811-17.88043l-3.42391,3.2971-29.29348.25362a7.48327,7.48327,0,0,0-3.42391,2.53623c-1.39493,1.90218-1.77536,4.058-1.39493,4.81884S94.27536,57.11957,94.27536,57.11957Z"/>
      <path class="cls-3" d="M97.74155,72.29469,104.843,85.56763s.16908,3.71981-.33817,3.97343-19.529-4.31159-20.12077-5.07246-5.32609-9.63768-5.24155-9.89131a21.4742,21.4742,0,0,1,1.69082-1.94444L98.50242,84.215,95.88164,72.54831Z"/>
      <path class="cls-3" d="M82.77778,71.02657s3.46618,5.66425,12.08937,7.86232l-1.8599-7.86232Z"/>
      <path class="cls-3" d="M80.24155,62.14976s-2.19807.50724-2.53624,1.26811a1.3579,1.3579,0,0,0,0,1.26812s3.55073,1.77536,13.94928,1.18358a5.17157,5.17157,0,0,0,.25362-1.18358c0-.4227-2.28261-1.4372-2.28261-1.4372s2.28261-1.099,2.45169-1.77536a2.489,2.489,0,0,0-.50724-1.60628,70.66375,70.66375,0,0,0-13.18841-.76087,1.24034,1.24034,0,0,0-.84541.76087C77.36715,60.45894,78.21256,61.558,80.24155,62.14976Z"/>
      <path class="cls-3" d="M65.36232,62.40338,71.872,73.901l-1.52174,2.87439s-9.13043,2.95894-9.55314,3.2971,0,5.57971.25362,6.50967A46.96105,46.96105,0,0,0,63.587,91.65459a5.18063,5.18063,0,0,1-2.36715,4.48068,8.17628,8.17628,0,0,1-.50725-1.52174c-.25362-1.0145-5.157-6.84783-5.74879-7.86232s-1.01449-4.48068-.59179-5.157,9.89131-12.59662,10.39855-13.69565S65.36232,62.40338,65.36232,62.40338Z"/>
      <path class="cls-3" d="M75.93,89.6256s-8.87681.33817-10.14493.25363-1.94444-1.77537-2.029-2.45169-.33817-6.76329-.08454-7.186,3.55072-.93,3.55072-.93l8.96135,2.11353.08455.76087s-6.93237.67633-7.186.76087,0,.67633,0,.67633l8.0314,1.4372-.16909.76087-8.4541.50724v.59179L75.93,88.69565Z"/>
      <path class="cls-3" d="M23.09179,65.95411a7.40759,7.40759,0,0,0,7.60869,6.256l-.16908-3.97343S25.54348,68.15217,23.09179,65.95411Z"/>
      <path class="cls-3" d="M18.01932,56.82367s2.45169,9.80676,12.93479,9.55314c0,0,.93-3.71981-1.52174-5.41063A18.393,18.393,0,0,1,18.01932,56.82367Z"/>
      <path class="cls-3" d="M15.82126,50.314s1.60628,9.4686,13.1884,8.62319c0,0-.25362-4.3116-1.26811-5.41063s-5.83334-3.2971-11.92029-9.72222a16.034,16.034,0,0,0,9.04589,11.3285S20.6401,55.13285,15.82126,50.314Z"/>
      <path class="cls-3" d="M18.61111,40s2.70532-.08454,3.2971,1.26812,1.0145,9.13043,8.36957,11.92029a11.25666,11.25666,0,0,0,.84541,4.14251,14.38047,14.38047,0,0,0,2.95894,3.63526,2.77873,2.77873,0,0,1,2.95893-2.87439c3.128-.16908,4.64976,2.36715,4.98793,4.81884S40,67.814,32.47585,65.1087c0,0-.93,8.96135,1.18357,10.56763S45.157,79.48068,47.27053,80.24155s3.38164,1.60628,4.3116.92995,10.73671-13.18841,11.244-14.71015a9.45384,9.45384,0,0,0-.16909-4.14251s5.07247-4.227,5.32609-9.04589.92995-7.43962,1.4372-8.45411c0,0-3.21256.59179-3.63527,3.46618s-.67632,4.39614-3.128,5.07247S54.03382,57.5,54.03382,57.5s.16908,4.7343-2.95894,4.90338-4.39614-3.128-3.71981-5.91787,3.55073-3.04348,5.157-.84541L58.9372,52.343s-1.94445-3.88889-2.95894-4.64976l.67633-1.60628s6.1715-8.62319-1.4372-11.75121c0,0,1.8599,2.45169,1.26812,4.22705a8.72136,8.72136,0,0,1-3.128,3.97343,1.65138,1.65138,0,0,1-1.94445-.4227,12.29676,12.29676,0,0,0-10.06038-2.28261C35.773,41.099,31.63043,46.84783,30.95411,47.6087s-.76087.59178-1.18358.4227-2.78985-.76087-4.48067-4.98792S21.90821,38.5628,18.61111,40Z"/>
      <ellipse class="cls-2" cx="38.30918" cy="63.84058" rx="2.78986" ry="2.45169"/>
      <ellipse class="cls-2" cx="50.82126" cy="59.86715" rx="2.78986" ry="2.45169"/>
      <path class="cls-2" d="M41.099,73.98551a17.53,17.53,0,0,0,8.62319,1.099c4.56522-.67633,6.76329-6.34058,6.93237-7.43961s.08454-2.95894-1.099-1.77536-1.85991,5.32608-5.66426,7.27053-8.4541-.67633-9.13043-.84541-1.099.16908-1.099.59178S41.099,73.98551,41.099,73.98551Z"/>
      <path class="cls-2" d="M43.46618,69.58937s3.128,1.4372,5.24155.92995,3.71981-3.04347,3.38164-3.88889-1.26811-.84541-1.94444.08455-1.26812,2.53623-3.21256,2.45169-2.19807-.93-2.8744-1.0145S42.11353,68.23671,43.46618,69.58937Z"/>
    </g>
  </g>
</svg>
