<svg id="allies_tunisia_prem_tank_1" xmlns="http://www.w3.org/2000/svg" width="150" height="150" viewBox="0 0 150 150">
  <defs>
    <style>
      .cls-1 {
        fill: #009252;
      }

      .cls-1, .cls-10, .cls-11, .cls-2, .cls-3, .cls-4, .cls-5, .cls-6, .cls-7, .cls-8, .cls-9 {
        fill-rule: evenodd;
      }

      .cls-2 {
        fill: #085a36;
      }

      .cls-3 {
        fill: #12100f;
      }

      .cls-4 {
        fill: #919da6;
      }

      .cls-5 {
        fill: #eaeaea;
      }

      .cls-6 {
        fill: #a5b3be;
      }

      .cls-7 {
        fill: #a3bbc7;
      }

      .cls-8 {
        fill: #da390e;
      }

      .cls-9 {
        fill: #ffb414;
      }

      .cls-10 {
        fill: #fff;
      }

      .cls-11 {
        fill: #127b7c;
      }
    </style>
  </defs>
  <path id="Shape_315_copy_5" data-name="Shape 315 copy 5" class="cls-1" d="M131.735,85.6l-10.384-7.248s-4.112-3.485-2.927-13.381a45.268,45.268,0,0,1,3.837,3.131V68.091l-0.423-.4a16.5,16.5,0,0,1-2.312-4.253c-0.234-.031-5.91-0.856-9.4-8.7l-0.236-.324c-7.674-3.055-11.239-10.206-11.523-10.8A30.143,30.143,0,0,1,90.2,37.581s11.57-1.115,13.242-.209l0.451,0.817a24.184,24.184,0,0,1-.939-3.814,18.639,18.639,0,0,0,4.67,2.857c5.223,2.159,9.472,5.64,10.869,11a36.018,36.018,0,0,1,0-4.031s3.468,3.49,5.018,4.809c4.571,3.888,6.068,8.914,4.1,16.641l0.526,1.263c0.183-.454.38-0.916,0.6-1.387a29.5,29.5,0,0,1,3.485,5.785C133.687,74.589,133.617,81.21,131.735,85.6ZM118.492,48.262l-0.02.2,0.035,0.019C118.5,48.406,118.5,48.336,118.492,48.262Zm0.892,14.787-0.547-.266,0.685,0.639C119.475,63.3,119.429,63.175,119.384,63.049ZM93.851,131.442s-1.486,1.905-2.441,3.211c3.42-.888,9.445.03,9.445,0.03a16.735,16.735,0,0,1-12.714,8.1l-0.053.028a5.341,5.341,0,0,1,.536.131c1.464,0.47,7.579,3.973,7.579,3.973a37.963,37.963,0,0,1-10.088-.523l-8.991-2.457,0.155-.311a2.918,2.918,0,0,1-4.047.264l0.024,0.047-8.991,2.457a37.965,37.965,0,0,1-10.088.523s6.116-3.5,7.579-3.973c0.1-.032.238-0.067,0.4-0.1l-0.07-.066a16.8,16.8,0,0,1-12.564-8.09s6.025-.918,9.445-0.03c-0.955-1.306-2.441-3.211-2.441-3.211,11.813-.941,16.361,7.893,16.361,7.893l-0.038.092,0.207,0.148a2.922,2.922,0,0,1,4.1-.017l0.327-.223S82.038,130.5,93.851,131.442ZM54.967,45.562a22.555,22.555,0,0,0-4.6,4.077c-1.986,2.4-5.75,4.914-11.291,5.75l-0.026-.005A21.3,21.3,0,0,1,27.682,66.992l0.368-1.149c-2.635,5.511-5.386,6.585-5.386,6.585l-0.014-.177L16.7,75.46s-3.136-7.527,4.6-17.249a17.7,17.7,0,0,1,.563,1.689,11.847,11.847,0,0,1,2.538-3.241l0.253-.738c-0.32-.867-0.817-4.706,9.4-14.018a5.3,5.3,0,0,1,.347,3.674c2.5-4.189,7.334-9.37,16.484-11.829,0,0-1.541,2.85-3.311,5.891l0.113,0.007L47.649,39.6C51.622,37.3,60.4,37.826,60.4,37.826c-0.685,1.076-6.223,6.915-6.929,7.657C53.962,45.5,54.459,45.527,54.967,45.562Zm-20.849.483,0.009,0.016L34.161,46ZM16.67,81.419s8.642,6.969,10.176,14.5l-0.036.03L26.9,96.014c0.075-.921.171-1.879,0.3-2.886,0,0,5.007,8.693,5.782,12.393a12.388,12.388,0,0,1,.56-1.312s5.018,3.764,6.063,8.085a27.569,27.569,0,0,1,.283,9.241c0.588,0.741.9,1.213,0.9,1.213l-3,.906s-6.412-1.533-9.409-4.251a13.089,13.089,0,0,1-3.6-6.407l-0.09.2c-5.994-2.788-6.412-14.775-6.412-14.775a26.1,26.1,0,0,1,2.893,1.663l0-.073C19.759,98.844,15.063,93.919,16.67,81.419Zm16.162,24.522c0.032-.1.062-0.194,0.1-0.291l-0.117.27Zm81.762,3.771,0,0A14.527,14.527,0,0,1,123.93,97.1a26.378,26.378,0,0,1,.379,3.819l0.02-.006A25.023,25.023,0,0,1,133.2,92.5a24.621,24.621,0,0,0-1.533,5.924c-0.767,4.878-1.534,9.2-5.088,11.081l-0.027-.1c-1.683,10.325-11.99,14.448-12.874,14.784a0.054,0.054,0,0,1-.062.023,25.027,25.027,0,0,0-2.634-.965c-0.1.126-.154,0.2-0.154,0.2l-3.276-1.045s-1.045-9.27,5.646-15.612A9.831,9.831,0,0,1,114.594,109.712Z"/>
  <path class="cls-2" d="M130.9,83.481l-3.214-2.794a26.652,26.652,0,0,1,1.118-8.663C132.715,79.15,130.9,83.481,130.9,83.481ZM120.42,75.8a25.326,25.326,0,0,1-.28-6.986c1.118,2.794,6.567,11.876,6.567,11.876S121.118,78.87,120.42,75.8Zm2.1-8.243a53.12,53.12,0,0,1-.559-7.824c3.213,3.353,4.331,11.6,4.331,11.6S123.074,70.347,122.516,67.553Zm-2.1-13.413a10.94,10.94,0,0,1,0-4.471c2.375,4.192,4.331,8.244,4.331,8.244S120.979,55.956,120.42,54.14Zm-2.934,8.244c-2.1-1.956-2.376-6.008-2.376-6.008,0.978,1.816,3.493,1.956,3.493,1.956l1.258,5.729S119.581,64.34,117.486,62.383Zm-8.8-20.679s5.31,6.707,10.2,7.964l0.139,3.493A22.631,22.631,0,0,1,108.683,41.7Zm-11.038-.7c2.934,2.1,7.825,1.4,7.825,1.4l2.934,4.052A13.116,13.116,0,0,1,97.645,41.006ZM86.607,143L82,141.745l13.413-4.611S90.659,142.164,86.607,143Zm-8.942-.838v-1.118s5.868-.978,9.222-4.89C86.887,136.156,85.21,141.465,77.665,142.164Zm-14.251-6.008c3.353,3.912,9.221,4.89,9.221,4.89v1.118C65.09,141.465,63.414,136.156,63.414,136.156ZM47.066,45.338s4.89-2.655,8.1-2.655L52.655,45.2Zm2.283,2.377a11.922,11.922,0,0,1-8.989,7.4V54l-4.89.7s6.986-4.331,10.339-5.17C48.72,48.8,49.257,47.932,49.349,47.714ZM37.006,48.831a7.674,7.674,0,0,1,3.772-4.192c3.074-1.677,5.03-2.515,5.03-2.515l-2.1,3.772Zm-7.545,17.6c0.838-1.4,1.258-4.89,1.258-4.89l5.376-4.751C34.837,61.825,29.462,66.435,29.462,66.435Zm3.493,49.042-2.934-1.4a21.53,21.53,0,0,1-.7-11.317,32.291,32.291,0,0,0,3.214,8.662Zm-10.06-9.221c0.559,0.559,5.589,7.405,5.589,7.405L24.571,112.4C23.873,110.028,22.895,106.256,22.895,106.256ZM22.475,71.745c0.838-1.257.978-5.309,0.978-5.309l4.376-9.95a56.253,56.253,0,0,1-2.42,13.862Zm-3.772,1.4s0.7-5.868,2.794-9.5a10.523,10.523,0,0,1,.237,8.22Zm7.405,32.136-3.633-3.913c-1.4-2.235-2.375-9.92-2.375-9.92a47.715,47.715,0,0,0,6.287,10.2Zm8.663,5.03c0.559,2.794,3.912,9.78,3.912,9.78l-4.471-4.052A28.5,28.5,0,0,1,34.771,110.308Zm3.353,12.575-1.537.7a4.482,4.482,0,0,1-2.794-1.677,20.466,20.466,0,0,1-2.375-4.331A55.891,55.891,0,0,1,38.124,122.883ZM63.693,143c-4.052-.838-8.8-5.868-8.8-5.868L68.3,141.745Zm54.631-89.561-0.559,3.074c-6.846-1.258-12.3-7.545-12.3-7.545C109.941,52.6,117.905,53.721,118.324,53.441Zm-6.288,69.581-3.073-1.257s4.052-5.03,5.03-9.082C113.993,112.683,114.552,119.389,112.036,123.022Zm4.472-8.662s4.051-6.567,4.89-11.6a10.661,10.661,0,0,1,.838,7.545S117.905,112.4,116.508,114.36Zm6.066-.13a57.336,57.336,0,0,1-6.066,8.932l-3.493-.14S116.986,115.487,122.574,114.23Zm5.111-5.459s-3.213,0-3.912.978c0,0,3.353-5.869,5.03-9.92C128.8,99.829,129.921,104.719,127.685,108.771Z"/>
  <path class="cls-3" d="M131.29,85.391c1.929-4.5,1.807-10.916.492-13.859a29.443,29.443,0,0,0-2.878-4.953c-4.447,10.46.586,16.664,0.638,16.728l-0.817.689c-0.173-.206-3.132-3.825-2.718-10.206-0.7-2.715-5.282-6.436-7.1-7.828-0.782,8.741,2.8,11.954,2.841,11.986l-0.693.814c-0.177-.15-4.317-3.786-3.113-13.853l0.108-.894,0.733,0.522c0.065,0.046.453,0.326,1.014,0.759-0.206-.417-0.414-0.879-0.618-1.386-1.364-.284-6.35-1.8-9.535-9.057-7.294-2.978-10.963-9.556-11.618-10.831a30.8,30.8,0,0,1-8.162-6.066l-0.78-.8,1.111-.107c1.756-.169,9.84-0.9,12.746-0.378-0.182-.71-0.344-1.443-0.468-2.21l-0.24-1.473,1.12,0.986a18.247,18.247,0,0,0,4.52,2.765c4.885,2.019,8.264,4.867,10.093,8.485,0.01-.341.023-0.688,0.042-1.05l0.066-1.2,0.847,0.853c0.034,0.035,3.47,3.489,4.985,4.778,4.81,4.092,6.172,9.288,4.378,16.742L128.3,65.3l0.362-.78,0.539,0.67a29.668,29.668,0,0,1,3.556,5.9c1.611,3.6,1.389,10.344-.484,14.716Zm-3.407-19.139-0.093-.025c0,0.087,0,.175-0.006.262Zm-1.64,5.531c0-.013.005-0.026,0.007-0.04l-0.043-.019Zm-7.525-9.113a22.489,22.489,0,0,1-1.108-6.358c-0.13,0-.261.007-0.388,0.007a20.01,20.01,0,0,1-6.149-.951C113.6,60.426,117.075,62.132,118.718,62.67ZM117.6,55.24q0.014-1.113.14-2.311a25.212,25.212,0,0,1-9.411-6.358l0,0.046c-0.045,0-.21.013-0.48,0.013A21.7,21.7,0,0,1,99.7,44.8C101.682,48.017,107.392,55.444,117.6,55.24ZM103.258,37.794l-0.027.049c-1.022-.554-7.352-0.22-11.8.167,6.865,6.566,13.7,7.441,16,7.538A22.605,22.605,0,0,1,103.258,37.794Zm14.748,10.535c-1.227-4.648-4.772-8.216-10.543-10.6a18.869,18.869,0,0,1-3.673-2.06c2.495,11.2,11.97,15.373,14.07,16.169l0.1-.748,0.444,0.526A25.31,25.31,0,0,1,118.006,48.328Zm1.009,5.54c-0.091-.092-0.2-0.2-0.278-0.28a20.3,20.3,0,0,0,3.559,13.76l-0.014.012a25.2,25.2,0,0,1,3.457,3.676,12.133,12.133,0,0,0-3.282-14.081,39.706,39.706,0,0,1-3.422-3.067l-0.01,0S119.018,53.875,119.015,53.869Zm4.2-4.45c-1.084-.921-3.051-2.849-4.186-3.975a22.922,22.922,0,0,0,.91,7.837,39.4,39.4,0,0,0,3.189,2.842,12.867,12.867,0,0,1,4.432,7.518C128.736,57.4,127.359,52.947,123.212,49.418ZM93.893,130.962l0.989,0.079-0.61.782c-0.013.017-.819,1.051-1.618,2.108a36.01,36.01,0,0,1,8.282.276l0.8,0.122-0.421.686a17.336,17.336,0,0,1-11.165,8.064c2.294,1.12,6.123,3.309,6.324,3.424l1.563,0.9-1.8.1c-1.118.064-2.153,0.09-3.1,0.09a33,33,0,0,1-7.145-.627L77.1,144.535a3.436,3.436,0,0,1-3.927.029l-8.768,2.4a32.96,32.96,0,0,1-7.161.631c-0.947,0-1.98-.026-3.1-0.09l-1.8-.1,1.562-.9c0.2-.115,4.03-2.3,6.324-3.424a17.338,17.338,0,0,1-11.166-8.064l-0.421-.686,0.8-.122a36.018,36.018,0,0,1,8.282-.276c-0.8-1.057-1.606-2.091-1.619-2.108l-0.61-.782,0.989-.079c10.763-.854,15.739,6.3,16.7,7.873a3.432,3.432,0,0,1,3.96.077C77.987,137.5,82.947,130.082,93.893,130.962Zm6.055,4.193c-1.708-.2-5.675-0.572-8.223.025-0.115.158-.221,0.306-0.311,0.436a19.122,19.122,0,0,1-9.159,5.876c2.112,0.254,4.536.572,5.827,0.828V142.3A16.293,16.293,0,0,0,99.948,135.155ZM86.255,145.928a34.834,34.834,0,0,0,8.047.579,60.58,60.58,0,0,0-5.843-3c-1.119-.36-7.306-1.077-9.923-1.36a3.438,3.438,0,0,1-.568,1.521Zm-30.178.579a34.338,34.338,0,0,0,8.062-.583L72.3,143.7a3.429,3.429,0,0,1-.593-1.537c-2.692.292-8.686,0.992-9.785,1.345A60.655,60.655,0,0,0,56.078,146.507Zm-5.646-11.352A16.293,16.293,0,0,0,62.3,142.3v0.017c1.291-.257,3.715-0.574,5.827-0.828a19.118,19.118,0,0,1-9.158-5.876c-0.09-.13-0.2-0.278-0.311-0.436C56.107,134.583,52.139,134.951,50.432,135.155Zm7.142-3.185c0.672,0.873,1.718,2.244,2.269,3.035,0.626,0.9,5.439,5.741,11.9,5.975A3.43,3.43,0,0,1,72.4,139.6C72.1,139.04,67.956,131.619,57.574,131.97Zm17.547,7.342a2.393,2.393,0,1,0,2.393,2.393A2.4,2.4,0,0,0,75.12,139.312Zm2.844,0.321-0.155-.08a3.425,3.425,0,0,1,.7,1.435c6.527-.169,11.4-5.077,12.033-5.983,0.55-.791,1.6-2.162,2.269-3.035C82.248,131.6,78.14,139.295,77.965,139.633ZM54.7,45.01c0.117,0.007.229,0.01,0.347,0.018l1.613,0.111-1.361.872a22.216,22.216,0,0,0-4.476,3.968c-1.172,1.417-4.608,4.794-11.348,5.889A21.631,21.631,0,0,1,27.913,67.494l-0.025-.068c-2.445,4.435-4.817,5.435-4.983,5.5l-0.393-.994c0.063-.026,6.2-2.716,8.724-19.187-2.012,1-6.883,3.72-8.746,7.213,0.814,2.908,1.789,8.523-.995,13.162l-0.916-.55c2.618-4.363,1.572-9.868.809-12.545l-0.107-.048c0.018-.039.042-0.076,0.06-0.116-0.059-.2-0.115-0.386-0.167-0.548-6.675,8.961-3.959,15.87-3.93,15.941l-0.987.41c-0.133-.32-3.167-7.932,4.675-17.788l0.566-.711,0.347,0.84c0.02,0.049.106,0.266,0.223,0.6a14.094,14.094,0,0,1,2.149-2.454c-0.448-1.087-.912-5.126,9.529-14.643l0.459-.419,0.345,0.518a4.629,4.629,0,0,1,.549,2.071c2.794-3.928,7.584-8.264,15.7-10.445L52,32.91,51.407,34c-0.249.46-1.248,2.3-2.486,4.467,4.372-1.576,11.235-1.2,11.56-1.177l0.907,0.054-0.488.766C60.311,39.039,56.462,43.149,54.7,45.01ZM40.313,53.463l-0.262.831c-0.045.144-.1,0.273-0.151,0.414,5.988-1.13,9.042-4.128,10.1-5.41a21.918,21.918,0,0,1,3.461-3.284,35.358,35.358,0,0,0-10.076.956c-0.058.054-.123,0.126-0.175,0.165l-0.078-.1c-7.913,2.1-10.771,6.641-11.043,7.1-0.08.472-.163,0.934-0.249,1.383a43.66,43.66,0,0,1,7.613-1.914ZM28.616,66A20.829,20.829,0,0,0,38.745,54.818c-2.166.4-5.928,1.226-7.171,2.024A41.791,41.791,0,0,1,28.616,66ZM33.9,42.82c-8.3,7.7-8.887,11.34-8.767,12.536a31.393,31.393,0,0,1,6.313-3.9,21.918,21.918,0,0,1,2.476-5.965A6.267,6.267,0,0,0,33.9,42.82Zm15.958-8.2c-8.144,2.519-12.56,7.324-14.908,11.234,0,0.009,0,.016,0,0.025l-0.01,0a20.242,20.242,0,0,0-2.489,6.01,20.553,20.553,0,0,1,10.45-5.924C44.293,44.4,47.541,38.831,49.855,34.616Zm-1.84,5.422c-1.188,2.036-2.469,4.132-3.483,5.546A38.313,38.313,0,0,1,53.3,44.94c1.542-1.623,4.693-4.981,6.082-6.618C56.984,38.274,51.03,38.329,48.015,40.039ZM16.186,81.351l0.122-.947L17.052,81c0.32,0.258,7.065,5.77,9.625,12.37,0.013-.108.019-0.2,0.033-0.313l0.2-1.577L27.7,92.861a85.832,85.832,0,0,1,5.416,11.08l0.272-.543,0.512,0.384c0.211,0.158,5.184,3.929,6.262,8.386a27.6,27.6,0,0,1,.325,9.209c0.464,0.6.734,1,.785,1.075l-0.89.592c-0.063-.095-6.254-9.251-14.975-9.9a12.5,12.5,0,0,0,3.374,5.866c2.859,2.593,9.111,4.112,9.174,4.127l-0.248,1.039c-0.268-.064-6.581-1.6-9.644-4.374a13.3,13.3,0,0,1-3.627-6.15c-6.154-2.948-6.636-14.7-6.654-15.206l-0.031-.895,0.8,0.4c0.091,0.045.17,0.092,0.26,0.138C17,95.343,15.048,90.2,16.186,81.351ZM33.451,114.88a28.056,28.056,0,0,1,6.088,5.339,25.711,25.711,0,0,0-.412-7.8c-0.793-3.278-4.066-6.289-5.348-7.364A14.834,14.834,0,0,0,33.451,114.88Zm-1.328-.775a15.715,15.715,0,0,1,.346-8.6c-0.621-2.724-3.466-8.1-4.885-10.671a42.837,42.837,0,0,0,.281,12.129c0.017,0.054.028,0.091,0.031,0.105l-0.011,0c0.8,4.2,2.122,5.979,2.145,6.009l-0.041.032A18.981,18.981,0,0,1,32.123,114.105Zm-7.989-1.86-0.037-.221,0.647,0.015a14.991,14.991,0,0,1,3.783.591,20.214,20.214,0,0,1-1.721-5.458c-0.3-.834-1.959-4.64-7.888-7.837C19.146,101.98,20.141,109.527,24.134,112.245ZM21.881,99.856l-0.022.035a18.35,18.35,0,0,1,4.54,4.339,47.672,47.672,0,0,1,.009-8.216l-0.039.008c-1.214-5.96-7.128-11.665-9.238-13.542C15.74,95.756,21.818,99.815,21.881,99.856ZM113.3,106l0.362,0.457a7.988,7.988,0,0,1,.738,1.223A15,15,0,0,1,123.778,96.6l0.6-.238L124.5,97c0.022,0.108.188,0.992,0.3,2.3a26.59,26.59,0,0,1,8.176-7.26l1.451-.838-0.7,1.524a24.565,24.565,0,0,0-1.491,5.784c-0.715,4.55-1.461,9.246-5.18,11.358-1.986,10.694-13.1,14.807-13.218,14.848l-0.362-1.006c0.111-.04,10.874-4.036,12.585-14.352a16.54,16.54,0,0,0-10.71,7.075l-0.017-.012a25.747,25.747,0,0,1-4.048,7.36l-0.834-.669c0.045-.054,4.406-5.543,4.274-9.614a13.516,13.516,0,0,0-.609-3.645H114.1s0-.04,0-0.058a10.809,10.809,0,0,0-.951-2.167c-5.91,6.061-5.035,14.626-5.025,14.714l-1.062.119c-0.044-.389-1-9.607,5.808-16.059Zm13.368,2.207,0.636-.033-0.033.264c2.43-1.869,3.158-5.283,3.914-10.1a32.2,32.2,0,0,1,1.036-4.581,24.527,24.527,0,0,0-7.319,7.315,17.833,17.833,0,0,1-1.356,7.8A13.1,13.1,0,0,1,126.667,108.206ZM115.8,113.461a6.831,6.831,0,0,1-.02.7A17.744,17.744,0,0,1,122,109.481c2.425-3.7,1.842-9.655,1.562-11.624a13.844,13.844,0,0,0-8.378,11.809A14.546,14.546,0,0,1,115.8,113.461Z"/>
  <path id="Shape_503_copy" data-name="Shape 503 copy" class="cls-4" d="M119.815,124.253a3.677,3.677,0,0,0,.473-2.676l-1.7,1.008-0.1.167c-0.053.086-.148,0.23-0.311,0.475a3.172,3.172,0,0,1-2.232,1.086,2.95,2.95,0,0,1-.443.031c-2.194,0-7.329-1.95-10.051-3.179l-15.137-7.724c-0.3-.164-7.241-3.88-14.365-3.88H74.059c-7.14,0-14.054,3.712-14.345,3.87L44.6,121.147c-2.75,1.242-7.9,3.195-10.1,3.195a2.948,2.948,0,0,1-.431-0.029,3.175,3.175,0,0,1-2.233-1.086,1.156,1.156,0,0,1-.239-0.833l-1.876-.832a3.679,3.679,0,0,0,.469,2.691,4.832,4.832,0,0,0,3.486,1.953l0.108,0.018,0.091,0.061a20.425,20.425,0,0,1,5.217,5.32l0.082,0.125v0.434a6.406,6.406,0,0,0,1.161,4.013,3.456,3.456,0,0,0,2.517,1.247c0.154,0.009.311,0.014,0.469,0.014,3.609,0,8.3-2.322,10.511-3.694,0.628-.39,1.319-0.8,2.112-1.24l8.279-4.63c0.532-.312,5.379-3.1,8.9-3.1H77.3c3.641,0,8.869,3.078,8.921,3.109l8.26,4.618c0.787,0.44,1.478.846,2.112,1.24,2.208,1.372,6.9,3.695,10.5,3.695,0.163,0,.325,0,0.483-0.015a3.459,3.459,0,0,0,2.518-1.247,7.036,7.036,0,0,0,1.142-4.621l-0.013-.2-0.011-.178,0.1-.144a21,21,0,0,1,4.819-4.746l0.091-.061,0.108-.018A4.828,4.828,0,0,0,119.815,124.253Z"/>
  <path id="Shape_503_copy_2" data-name="Shape 503 copy 2" class="cls-5" d="M105.227,137.258a27.465,27.465,0,0,1-8.635-3.514c-0.259-.161-0.536-0.326-0.817-0.493l6.069-13.922,3.6,1.836A52.9,52.9,0,0,0,113.31,124ZM73.118,124.777c-3.523,0-8.37,2.785-8.9,3.1l-0.586.328L53.388,116.659l6.326-3.228c0.291-.158,7.205-3.87,14.345-3.87h1.882c0.495,0,.987.021,1.478,0.055l-0.341,15.161h-3.96ZM42.845,137.424a3.456,3.456,0,0,1-2.517-1.247,6.406,6.406,0,0,1-1.161-4.013V131.73l-0.082-.125a20.425,20.425,0,0,0-5.217-5.32l-0.091-.061-0.108-.018a4.832,4.832,0,0,1-3.486-1.953,3.679,3.679,0,0,1-.469-2.691l1.876,0.832a1.156,1.156,0,0,0,.239.833,3.175,3.175,0,0,0,2.233,1.086,2.948,2.948,0,0,0,.431.029,12,12,0,0,0,2.874-.522l10.138,12.853a14.208,14.208,0,0,1-4.192.765C43.156,137.438,43,137.433,42.845,137.424Z"/>
  <path class="cls-3" d="M120.738,121.313l-0.142-.5-2.577,1.525,0.036,0.151c-0.052.083-.143,0.223-0.3,0.461a2.773,2.773,0,0,1-1.892.869c-1.7.268-7.01-1.663-10.212-3.109L90.534,113c-0.3-.161-7.345-3.935-14.593-3.935H74.059c-7.248,0-14.3,3.774-14.584,3.93L44.368,120.7c-3.218,1.453-8.526,3.377-10.23,3.118a2.772,2.772,0,0,1-1.892-.869,0.58,0.58,0,0,1-.151-0.517l0.082-.326-2.79-1.238-0.126.444a4.15,4.15,0,0,0,.5,3.21,5.3,5.3,0,0,0,3.825,2.176,20.107,20.107,0,0,1,5.079,5.181v0.284a6.889,6.889,0,0,0,1.276,4.332,3.945,3.945,0,0,0,2.871,1.427c3.763,0.23,8.856-2.249,11.275-3.754,0.633-.394,1.318-0.8,2.093-1.229l8.278-4.629c0.21-.124,5.19-3.034,8.658-3.034H77.3c3.508,0,8.606,3,8.666,3.039l8.27,4.624c0.774,0.433,1.459.835,2.092,1.229,2.253,1.4,7.054,3.77,10.76,3.77,0.174,0,.347,0,0.515-0.016a3.946,3.946,0,0,0,2.871-1.427,7.521,7.521,0,0,0,1.256-4.971l-0.013-.2a20.324,20.324,0,0,1,4.694-4.623,5.3,5.3,0,0,0,3.824-2.176A4.147,4.147,0,0,0,120.738,121.313Zm-10.881,14.671a3.159,3.159,0,0,1-2.3,1.139c-3.577.23-8.525-2.219-10.8-3.635-0.643-.4-1.338-0.807-2.124-1.247l-8.262-4.62c-0.053-.031-5.337-3.146-9.066-3.146H73.118c-3.684,0-8.847,3.017-9.083,3.156l-8.245,4.61c-0.786.439-1.481,0.848-2.124,1.247-2.339,1.454-7.249,3.859-10.8,3.635a3.161,3.161,0,0,1-2.3-1.139,4.847,4.847,0,0,1-.956-2.235c0.084,0.115.173,0.226,0.262,0.337,0.018,0.041.039,0.08,0.056,0.122l0.03-.013a3.4,3.4,0,0,0,2.836,1.574,1.121,1.121,0,0,0,.16.021c2.673,0.161,7.062-1.6,10.014-3.436,0.662-.411,1.374-0.829,2.178-1.279l8.241-4.608c0.229-.136,5.653-3.328,9.738-3.328H77.3c4.078,0,9.509,3.192,9.747,3.333l8.233,4.6c0.8,0.449,1.515.867,2.177,1.279,2.95,1.833,7.34,3.594,10.066,3.427,1.322-.021,2.487-1.267,3.379-2.663A5.378,5.378,0,0,1,109.857,135.984Zm1.785-5.9v-0.026l-0.041.081a16.319,16.319,0,0,0-2.217,3.665,2.949,2.949,0,0,1-1.962,1.189c-2.5.145-6.7-1.551-9.542-3.317-0.671-.417-1.394-0.842-2.209-1.3l-8.224-4.6c-0.594-.352-5.924-3.44-10.147-3.44H73.118c-4.23,0-9.554,3.088-10.138,3.435l-8.232,4.6c-0.815.455-1.538,0.88-2.209,1.3C49.7,133.44,45.518,135.154,43,134.99l-0.025.4-0.112-.421-0.055-.008-0.055.007a2.8,2.8,0,0,1-2.209-1.333A19.123,19.123,0,0,0,35,126.748c3.552-.269,9.343-2.811,10.615-3.387l15.238-7.776c0.066-.036,6.712-3.585,13.2-3.585h1.882c6.542,0,13.134,3.548,13.21,3.589l15.247,7.78c0.732,0.331,6.943,3.1,10.6,3.378A21.009,21.009,0,0,0,111.642,130.081Zm7.919-5.991a4.6,4.6,0,0,1-3.374,1.841,4.1,4.1,0,0,1-.617.042h0c-3.37,0-10.086-2.993-10.869-3.348l-15.174-7.744c-0.067-.037-6.8-3.683-13.585-3.683H74.059c-6.69,0-13.3,3.531-13.6,3.691l-15.187,7.749c-3.1,1.4-9,3.667-11.458,3.293a4.6,4.6,0,0,1-3.375-1.841A3.278,3.278,0,0,1,29.95,122l1.325,0.588a1.64,1.64,0,0,0,.3.811,3.451,3.451,0,0,0,2.437,1.217c2.234,0.344,8.465-2.179,10.7-3.187L59.848,113.7c0.289-.157,7.164-3.838,14.211-3.838h1.882c7.047,0,13.922,3.681,14.22,3.842l15.141,7.727c2.217,1,8.455,3.53,10.681,3.179a3.453,3.453,0,0,0,2.438-1.217c0.187-.282.3-0.459,0.374-0.584l1.261-.746A3.266,3.266,0,0,1,119.561,124.09Z"/>
  <path class="cls-3" d="M109.151,129.536l-1.534-.732-2.509,4.7-1.986-.871,2.334-4.46-1.568-.767,0.941-1.812,5.436,2.091Zm-10.629.907,1.289-2.37-1.254-.662-1.533,2.474-1.951-1.115,3.659-6.377,1.743,0.941-1.115,2.09,1.254,0.7,1.254-2.092,1.952,0.976-3.624,6.308ZM94.444,122.6a0.862,0.862,0,0,0-.83-1.1,0.751,0.751,0,0,0-.355.085,2.827,2.827,0,0,0-1.6,2.369,1.146,1.146,0,0,0,1.3,1.193,1.592,1.592,0,0,0,.161-0.007l0.278-.488-0.836-.488,0.906-1.464,2.405,1.533L94.2,127.027a6.256,6.256,0,0,1-.867.062c-2.045,0-3.448-1.069-3.664-2.327a5.354,5.354,0,0,1,2.265-4.7,2.9,2.9,0,0,1,1.72-.563,2.68,2.68,0,0,1,2.741,3.734Zm-8.232,1.3a3.056,3.056,0,0,1-1.177-.251l-0.523-.279s-1.951-1.01-.906-3.659l1.881-4.146,1.952,0.94-1.847,3.938a1.217,1.217,0,0,0,.1,1.359,0.63,0.63,0,0,0,.385.134,1.413,1.413,0,0,0,1.043-.8l1.708-4.008,1.777,0.906-1.882,4.251A3.119,3.119,0,0,1,86.213,123.9Zm-5.839-3.479-1.7-.412-0.418,1.032-2.247-.532L79.939,114l2.094,0.44,0.423,7.677-2.021-.469Zm-0.029-3.132a0.268,0.268,0,0,0-.189-0.185,0.317,0.317,0,0,0-.23.18l-0.569.99,1.147,0.241Zm-8.829.506,0.139,3-1.916.1-0.593-7.283,1.882-.139,1.986,2.858-0.14-3.067,2.056-.105,0.349,7.353-1.742.07Zm-9.13,3.625a0.59,0.59,0,0,0-.293-0.143,0.046,0.046,0,0,0-.02,0l-0.314.173,1.114,2.2-1.672.941-3.346-6.517,3.45-1.707A1.994,1.994,0,0,1,61.8,116.3a2.027,2.027,0,0,1,1.705,1.184,2.157,2.157,0,0,1,.069,2.439,1.579,1.579,0,0,1,.7.209l2.021,1.952-1.917,1.046S62.629,121.591,62.385,121.418Zm-0.454-2.809a0.552,0.552,0,0,0-.519-0.268,1.048,1.048,0,0,0-.268.035l-0.663.475,0.527,0.913,0.912-.527A0.521,0.521,0,0,0,61.932,118.609Zm-3.414,7.548-0.872-.872-1.533.837,0.384,1.044-2.022,1.116-1.463-7.457,1.847-1.081,5.471,5.4Zm-3-3.172a0.391,0.391,0,0,0-.162-0.045c-0.094,0-.188.061-0.151,0.324l0.244,1.115,1.011-.592ZM52.454,127.2l0.976,1.673L49,131.14l-3.695-6.413,4.216-2.23,1.115,1.533-2.509,1.36,0.488,0.7,2.125-1.186,0.976,1.4-2.334,1.463,0.488,0.8Zm-7.493.383,0.871,1.637-1.916.837,1.359,2.37-1.882.836-3.659-6.273,4.356-1.812,0.732,1.673-2.16.871,0.348,0.663Z"/>
  <path id="Shape_506_copy" data-name="Shape 506 copy" class="cls-6" d="M107.284,121.3L105,120.644l0.13-6a3.849,3.849,0,0,1-.2-3.392c1.891-2.934,5.673-.717,5.673-0.717C107.676,115.035,107.284,121.3,107.284,121.3Zm-62.905-.2-3.585,1.287-0.227-.438c1.044-8.8-1.3-11.543-1.3-11.543s4.044-.913,5.413.587-0.2,3.717-.2,3.717Z"/>
  <path class="cls-3" d="M110.2,113.145l-0.353-.157c-1.087-.481-2.37-0.762-2.62-0.239a3.46,3.46,0,0,0,2.055,1.851l0.355,0.147-1.009,2.758-0.052-.022c-0.15.986-.5,3.368-0.551,4.515l-0.8-.037c0.06-1.3.466-4,.591-4.811a7.846,7.846,0,0,1-2.281-1.669,50.271,50.271,0,0,1-.16,5.222l-0.8-.095c0.231-1.919.143-6.046,0.137-6.3a4.528,4.528,0,0,1-.222-0.453,2.938,2.938,0,0,1,.081-2.373c1.209-2.539,4.19-2.3,6.577-1.235l0.379,0.169Zm-2.26-2.844a2.7,2.7,0,0,0-2.642,1.53,2.15,2.15,0,0,0-.057,1.74,5.909,5.909,0,0,0,2.926,2.86l0.457-1.248a4.033,4.033,0,0,1-2.137-2.093,0.8,0.8,0,0,1,.017-0.684c0.556-1.171,2.3-.7,3.311-0.3l0.626-1.282A7.329,7.329,0,0,0,107.938,110.3Zm-62.9,4.127c-0.1,1.62-.241,5.428.1,6.412l-0.759.259a23.837,23.837,0,0,1-.194-5.62,11.871,11.871,0,0,1-3.3,2.106,9.751,9.751,0,0,0,1.382,4.491l-0.673.435a10.62,10.62,0,0,1-1.528-5.454l0.082,0-0.115-2.3,0.261-.109a4.121,4.121,0,0,0,2.288-1.845c-0.261-.618-1.768-0.328-2.705.088l-0.382.169-1.027-2.6,0.35-.156c3.024-1.353,5.428-.91,6.426,1.186a2.942,2.942,0,0,1,.081,2.373A3.61,3.61,0,0,1,45.041,114.428Zm-0.517-2.6c-1.039-2.182-3.64-1.505-5.023-.949L39.944,112c1.111-.405,2.846-0.707,3.375.4a0.81,0.81,0,0,1,.016.686,4.732,4.732,0,0,1-2.468,2.184l0.07,1.406c1-.48,3.071-1.621,3.644-3.11A2.157,2.157,0,0,0,44.525,111.831Z"/>
  <path id="Shape_508_copy" data-name="Shape 508 copy" class="cls-7" d="M133.555,89.345a6.886,6.886,0,0,0-3.128-5.722l-0.318-.206,0.089-.368c0.106-.441-0.35-1.237-1.4-1.845a3.364,3.364,0,0,0-1.611-.5,1.061,1.061,0,0,0-.658.181l-0.291.237-0.321-.194-3.195-1.923-0.365-.22,0.133-.4a1.006,1.006,0,0,0-.206-0.821,3.547,3.547,0,0,0-1.187-1.06,3.369,3.369,0,0,0-1.613-.5,1.013,1.013,0,0,0-.68.2l-0.294.269-0.342-.206-2.857-1.72-0.459-.276,0.278-.458,0.013-.021,0,0a0.965,0.965,0,0,0-.181-0.894,3.9,3.9,0,0,0-2.7-1.557c-0.038,0-.076,0-0.113,0a0.883,0.883,0,0,0-.739.284l-0.285.414-0.43-.259-3.332-2.006-0.513-.309,0.364-.475a0.378,0.378,0,0,0,.037-0.051,0.945,0.945,0,0,0-.167-0.916,3.536,3.536,0,0,0-1.186-1.06,3.374,3.374,0,0,0-1.615-.5,0.9,0.9,0,0,0-.763.3c-0.005.01-.01,0.02-0.014,0.029l-0.264.5-0.485-.292-2.029-1.222c-0.194-.118-0.388-0.23-0.582-0.341l-0.012-.007L99.745,65.2l0.155-.423a0.98,0.98,0,0,0-.264-0.858,3.534,3.534,0,0,0-1.28-.944,3.573,3.573,0,0,0-1.456-.357,0.992,0.992,0,0,0-.927.378l-0.21.409-0.436-.147a26.969,26.969,0,0,0-3.831-.987l-0.4-.073-0.034-.409-0.273-3.28H76.359l-0.5,2.89-0.076.444H73.593l-0.088-.427-0.6-2.907H58.482l-0.93,2.959-0.118.374h-1.88l-0.016-.518-0.088-2.816H40.5l-1.595,6.38-0.153.612-0.579-.252a2.2,2.2,0,0,0-.862-0.153,3.957,3.957,0,0,0-1.067.157c-1.244.35-1.935,1.1-1.8,1.58a0.5,0.5,0,0,0,.023.057l0.225,0.53-0.545.185-2.916.985-0.34.115-0.235-.272a1.606,1.606,0,0,0-1.182-.376,3.968,3.968,0,0,0-1.07.157c-1.2.338-1.866,1.028-1.814,1.5l0.046,0.426-0.406.137-4.017,1.357-0.041.014-0.043.007a6.867,6.867,0,0,0-5.684,6.715,6.788,6.788,0,0,0,4.205,6.29l0.011,0,0.011,0.005,0.756,0.354L21.817,85.2l-0.093.419c-0.1.461,0.47,1.228,1.605,1.715a3.653,3.653,0,0,0,1.406.32,1.245,1.245,0,0,0,.888-0.276l0.265-.278,0.348,0.162,2.855,1.328,0.383,0.178-0.085.414c-0.095.461,0.48,1.225,1.606,1.707a3.654,3.654,0,0,0,1.406.32,1.247,1.247,0,0,0,.888-0.276l0.264-.276L33.9,90.82c1.043,0.482,2.1.971,3.165,1.46l0.374,0.172-0.071.406c-0.081.459,0.5,1.218,1.608,1.693a3.652,3.652,0,0,0,1.406.321,1.254,1.254,0,0,0,.886-0.273l0.262-.271,0.343,0.157c1.174,0.536,2.321,1.057,3.418,1.553l0.395,0.178-0.093.423a1,1,0,0,0,.3.8,3.537,3.537,0,0,0,1.3.911,3.651,3.651,0,0,0,1.406.32,1.177,1.177,0,0,0,.913-0.308l0.257-.317,0.373,0.164c1.118,0.492,2.062.9,2.806,1.212l0.368,0.154-0.043.4c-0.051.465,0.581,1.181,1.726,1.576a3.866,3.866,0,0,0,1.235.225,1.245,1.245,0,0,0,1.106-.42l0.2-.362,0.4,0.107c1.067,0.285,2.257.576,3.539,0.867l0.322,0.073,0.079,0.32a2.4,2.4,0,0,0,1.849,1.273,4.069,4.069,0,0,0,.967.123,1.43,1.43,0,0,0,1.348-.545l0.154-.37,0.4,0.044a35.923,35.923,0,0,0,3.728.215l0.45,0,0.074,0.444c0.079,0.468.906,0.953,2.153,0.953,1.277,0,2.113-.514,2.155-0.991l0.043-.479,0.481-.008,3.446-.058,0.475-.008,0.064,0.471c0.065,0.476.888,0.969,2.154,0.969,1.3,0,2.135-.526,2.157-1.012l0.023-.5,0.5-.009,3.233-.054,0.477-.008,0.062,0.473c0.061,0.467.9,0.971,2.154,0.971,1.306,0,2.137-.526,2.157-1.013l0.021-.5,0.5-.008,1.223-.021c0.831-.014,1.712-0.058,2.616-0.131l0.424-.035,0.129,0.406a1.009,1.009,0,0,0,.649.545,3.242,3.242,0,0,0,1.139.186,4.18,4.18,0,0,0,.443-0.023,3.545,3.545,0,0,0,1.516-.481,0.966,0.966,0,0,0,.528-0.749c0-.01,0-0.021,0-0.031l-0.059-.485,0.478-.1,0.1-.021c0.208-.045.417-0.089,0.624-0.138l2.811-.631,0.481-.108,0.146,0.469a1.375,1.375,0,0,0,1.384.594,4.1,4.1,0,0,0,.942-0.116c1.217-.289,1.92-0.973,1.872-1.441l-0.048-.472,0.462-.1,3.619-.814,0.467-.1,0.156,0.452a0.992,0.992,0,0,0,.733.5,2.814,2.814,0,0,0,.652.071,4.085,4.085,0,0,0,.938-0.114,3.533,3.533,0,0,0,1.44-.675,0.981,0.981,0,0,0,.435-0.751l-0.034-.46,0.449-.1,3.967-.891,0.39-.088,0.194,0.349a1.54,1.54,0,0,0,1.347.5,4.1,4.1,0,0,0,.942-0.116,2.254,2.254,0,0,0,1.874-1.345l0.032-.347,0.331-.11A6.8,6.8,0,0,0,133.555,89.345Z"/>
  <path class="cls-3" d="M129.075,96.306c-0.071.763-.977,1.507-2.282,1.817a4.645,4.645,0,0,1-1.065.13,2,2,0,0,1-1.815-.776l-3.979.894c0.056,0.819-.872,1.649-2.271,1.981a4.617,4.617,0,0,1-1.066.131,1.843,1.843,0,0,1-1.883-.939l-3.635.817a1.441,1.441,0,0,1-.606,1.227,4.066,4.066,0,0,1-1.662.785,4.609,4.609,0,0,1-1.065.131,1.822,1.822,0,0,1-1.894-.968l-2.807.631c-0.245.057-.494,0.1-0.74,0.152,0,0.01.007,0.02,0.009,0.031a1.389,1.389,0,0,1-.771,1.272,4.09,4.09,0,0,1-1.75.563c-0.174.017-.344,0.026-0.509,0.026-1.169,0-2.068-.438-2.281-1.111-0.884.071-1.77,0.124-2.656,0.139l-1.227.021c-0.037.872-1.176,1.525-2.687,1.525-1.458,0-2.563-.609-2.673-1.436l-3.248.054c-0.041.87-1.178,1.522-2.687,1.522-1.455,0-2.559-.608-2.672-1.432l-3.465.058c-0.077.848-1.2,1.478-2.68,1.478-1.437,0-2.531-.593-2.667-1.4a36.219,36.219,0,0,1-3.814-.221,1.849,1.849,0,0,1-1.823.88,4.622,4.622,0,0,1-1.094-.139,2.85,2.85,0,0,1-2.228-1.662c-1.147-.26-2.381-0.557-3.581-0.878a1.464,1.464,0,0,1-1.146.669,3.038,3.038,0,0,1-.411.026,4.374,4.374,0,0,1-1.413-.252,4.061,4.061,0,0,1-1.575-.947,1.49,1.49,0,0,1-.5-1.188c-0.781-.328-1.744-0.745-2.834-1.224a1.649,1.649,0,0,1-1.32.512,4.178,4.178,0,0,1-1.616-.364,4.068,4.068,0,0,1-1.5-1.059,1.468,1.468,0,0,1-.4-1.254c-1.1-.5-2.253-1.021-3.434-1.56a1.734,1.734,0,0,1-1.269.437,4.181,4.181,0,0,1-1.616-.364,4.065,4.065,0,0,1-1.5-1.059,1.494,1.494,0,0,1-.412-1.215c-1.066-.49-2.13-0.981-3.176-1.464a1.726,1.726,0,0,1-1.273.443,4.182,4.182,0,0,1-1.616-.364,4.069,4.069,0,0,1-1.5-1.058,1.477,1.477,0,0,1-.405-1.243l-2.869-1.334a1.725,1.725,0,0,1-1.274.444,4.179,4.179,0,0,1-1.616-.364c-1.31-.56-2.08-1.524-1.906-2.317l-0.79-.37a7.3,7.3,0,0,1-4.512-6.773,7.387,7.387,0,0,1,6.131-7.241l4.03-1.361c-0.086-.814.806-1.68,2.189-2.069a4.061,4.061,0,0,1,1.834-.119,1.644,1.644,0,0,1,.957.505l2.936-.992a1.015,1.015,0,0,1-.056-0.118c-0.242-.86.69-1.823,2.169-2.239a4.083,4.083,0,0,1,1.835-.12,2.228,2.228,0,0,1,.453.139l1.7-6.784H55.969l0.1,3.333h0.97l1.048-3.333H73.345L74.029,61.3h1.308l0.572-3.333H91.277l0.316,3.783a27.394,27.394,0,0,1,3.9,1c0.394-.782,1.706-0.9,3.082-0.27,1.358,0.624,2.117,1.677,1.814,2.482,0.2,0.117.411,0.223,0.611,0.345l2.032,1.223c0-.011.006-0.023,0.012-0.034a1.371,1.371,0,0,1,1.37-.579,4.425,4.425,0,0,1,3.114,1.8,1.386,1.386,0,0,1,.183,1.476,1.08,1.08,0,0,1-.085.1l3.348,2.015a1.411,1.411,0,0,1,1.315-.515,4.429,4.429,0,0,1,3.115,1.8,1.39,1.39,0,0,1,.183,1.475,0.111,0.111,0,0,0-.01.013l2.86,1.722a1.569,1.569,0,0,1,1.17-.339,4.427,4.427,0,0,1,3.115,1.8,1.482,1.482,0,0,1,.257,1.275l3.2,1.928a1.581,1.581,0,0,1,1.125-.3,4.423,4.423,0,0,1,3.115,1.8,1.535,1.535,0,0,1,.282,1.206A7.33,7.33,0,0,1,129.075,96.306Zm-2.475,1a2.961,2.961,0,0,0,1.458-.75c-0.109.02-.216,0.044-0.327,0.059l-2.848.64A2.8,2.8,0,0,0,126.6,97.309Zm-9.13,2.23a2.4,2.4,0,0,0,1.611-.976l-3.531.794A2.276,2.276,0,0,0,117.47,99.539Zm-8.852,2.021a3.277,3.277,0,0,0,1.316-.612,0.977,0.977,0,0,0,.309-0.4l-3.56.8A2.143,2.143,0,0,0,108.618,101.56Zm-8.91,1.793a3.288,3.288,0,0,0,1.384-.435,0.8,0.8,0,0,0,.38-0.429q-1.765.339-3.556,0.522A2.574,2.574,0,0,0,99.708,103.353Zm-9.274.6a2.058,2.058,0,0,0,1.841-.675l-3.664.061A2.3,2.3,0,0,0,90.434,103.949Zm-8.607.14a2.076,2.076,0,0,0,1.84-.671l-3.659.061A2.308,2.308,0,0,0,81.826,104.089Zm-8.816.1a2.241,2.241,0,0,0,1.828-.628l-3.612.061A2.429,2.429,0,0,0,73.01,104.193Zm-9.2-.857a2.734,2.734,0,0,0,1.76-.055c-0.869-.12-1.734-0.26-2.59-0.443l-0.445-.1A3.278,3.278,0,0,0,63.81,103.336Zm-9.955-2.814a3.6,3.6,0,0,0,2.687.926,1.273,1.273,0,0,0,.342-0.093c-0.866-.245-1.695-0.5-2.42-0.759-0.2-.072-0.47-0.176-0.772-0.3A1.227,1.227,0,0,0,53.856,100.522Zm-7.728-3.279a3.283,3.283,0,0,0,1.191.828,2.748,2.748,0,0,0,1.734.236c-0.968-.429-2.019-0.9-3.132-1.4A1.192,1.192,0,0,0,46.127,97.244Zm-8.224-3.8a3.284,3.284,0,0,0,1.191.828,2.968,2.968,0,0,0,1.615.265c-0.983-.449-1.979-0.906-2.978-1.365A1.253,1.253,0,0,0,37.9,93.445Zm-7.98-3.659a3.28,3.28,0,0,0,1.191.828,2.929,2.929,0,0,0,1.633.261l-3.019-1.4A1.236,1.236,0,0,0,29.923,89.786Zm-6.475-2.726a2.919,2.919,0,0,0,1.64.259L22.05,85.9A2.605,2.605,0,0,0,23.448,87.059ZM29.933,68.4a2.416,2.416,0,0,0-.455-0.041,3.728,3.728,0,0,0-.992.144,2.6,2.6,0,0,0-1.538.967l3.088-1.043C30,68.417,29.971,68.406,29.933,68.4Zm7.84-2.962a2.36,2.36,0,0,0-.454-0.04,3.733,3.733,0,0,0-.993.144c-1.075.3-1.669,0.927-1.591,1.207a0.222,0.222,0,0,0,.047.075l3.372-1.139,0.023-.093A1.119,1.119,0,0,0,37.773,65.436Zm17.159-6.4H40.918l-1.559,6.238,2.528-.854a1.009,1.009,0,0,1-.08-0.167c-0.242-.861.691-1.824,2.169-2.239,1.435-.4,2.691-0.094,2.985.71a28.355,28.355,0,0,1,3.12-.821,1.016,1.016,0,0,1-.068-0.278c-0.087-.89,1-1.674,2.529-1.823a3.239,3.239,0,0,1,2.433.576ZM42.611,64.03a0.269,0.269,0,0,0,.091.118l3.454-1.167a1.179,1.179,0,0,0-.967-0.3,3.689,3.689,0,0,0-.989.144C43.127,63.124,42.533,63.749,42.611,64.03Zm8.233-2.483a0.314,0.314,0,0,0,.108.174,28.269,28.269,0,0,1,3.533-.362,0.3,0.3,0,0,0,.059-0.173,1.572,1.572,0,0,0-1.526-.567c-0.126,0-.258.006-0.395,0.02C51.511,60.746,50.816,61.257,50.844,61.547Zm21.629-2.507h-13.6L58.163,61.3H59.6c0-.026-0.013-0.051-0.013-0.078,0-.894,1.158-1.568,2.694-1.568s2.694,0.674,2.694,1.568c0,0.027-.011.052-0.013,0.078h2.762a1.023,1.023,0,0,1-.018-0.113c0-.894,1.158-1.568,2.694-1.568a3.248,3.248,0,0,1,2.362.806ZM60.419,61.226a0.234,0.234,0,0,0,.023.078h3.67a0.234,0.234,0,0,0,.023-0.078c0-.292-0.741-0.732-1.858-0.732S60.419,60.935,60.419,61.226Zm8.12-.035a0.237,0.237,0,0,0,.033.113h3.65a0.237,0.237,0,0,0,.033-0.113c0-.291-0.741-0.732-1.858-0.732S68.538,60.9,68.538,61.192Zm21.756-2.152H76.81L76.421,61.3h0.934a1,1,0,0,1-.035-0.217c0-.894,1.158-1.568,2.694-1.568s2.694,0.674,2.694,1.568a1,1,0,0,1-.035.217H85.8a1.03,1.03,0,0,1-.011-0.106c0.056-.892,1.248-1.49,2.787-1.4a3.938,3.938,0,0,1,1.822.529ZM78.156,61.087a0.34,0.34,0,0,0,.117.217h3.483a0.34,0.34,0,0,0,.117-0.217c0-.292-0.741-0.732-1.858-0.732S78.156,60.8,78.156,61.087Zm8.472,0.163a0.229,0.229,0,0,0,.012.055h0.092a27.428,27.428,0,0,1,3.582.24,0.213,0.213,0,0,0,.022-0.062c0.018-.291-0.694-0.777-1.809-0.847-0.087-.006-0.173-0.008-0.257-0.008C87.3,60.627,86.644,60.982,86.627,61.25Zm11.6,1.995a3.331,3.331,0,0,0-1.346-.328,1.02,1.02,0,0,0-.57.129,27.442,27.442,0,0,1,3.307,1.487A2.363,2.363,0,0,0,98.231,63.244Zm8.6,4.933a3.609,3.609,0,0,0-2.462-1.421c-0.031,0-.062,0-0.092,0a0.6,0.6,0,0,0-.506.165,0.377,0.377,0,0,0,0,.059L106.9,68.86a0.249,0.249,0,0,0,.09-0.084h0A0.687,0.687,0,0,0,106.834,68.177Zm7.875,4.878a3.609,3.609,0,0,0-2.461-1.421l-0.092,0a0.687,0.687,0,0,0-.445.124l3.156,1.9h0A0.684,0.684,0,0,0,114.709,73.055Zm7.318,4.669a3.61,3.61,0,0,0-2.462-1.421l-0.091,0a1.078,1.078,0,0,0-.173.023l2.885,1.737A1.262,1.262,0,0,0,122.027,77.725Zm7.7,4.7a3.6,3.6,0,0,0-2.461-1.421l-0.092,0c-0.031,0-.051.009-0.08,0.011l2.747,1.654A1.283,1.283,0,0,0,129.728,82.429ZM129,84.65l-0.089-.048L99.9,67.139a25.293,25.293,0,0,0-13.166-3.7H55.776A26.155,26.155,0,0,0,47.16,64.9l-24.7,8.326a5.2,5.2,0,0,0-1.178,9.961c3.086,1.442,29.85,13.952,33.9,15.4a73.438,73.438,0,0,0,8.245,2.164,34.081,34.081,0,0,0,7.668.742l23.216-.388a39.282,39.282,0,0,0,8.258-1.019l24.841-5.578A5.2,5.2,0,0,0,129,84.65ZM126.434,93.1a3.856,3.856,0,1,1,3.857-3.857A3.861,3.861,0,0,1,126.434,93.1Zm0-5.575a1.719,1.719,0,1,0,1.719,1.719A1.721,1.721,0,0,0,126.434,87.522ZM120.255,81.5h1.068V94.677h-1.068V81.5Zm-12.336,7.434H93.829V93H92.76V84.85h1.068v3.02h14.09V85.361h2.614V74.84H111.6V85.361h6.377V95.629H107.919V88.938Zm1.068,5.623h7.923V86.429h-7.923v8.131Zm-3.9-13.962a2.207,2.207,0,1,1-2.207-2.207A2.209,2.209,0,0,1,105.084,80.6Zm-3.345,0a1.139,1.139,0,1,0,1.138-1.139A1.14,1.14,0,0,0,101.739,80.6Zm-7.806-4.53H92.865V73.153H90.786V72.084h2.079V67.5h1.068v4.588h12.638v1.068H93.933v2.916ZM93.4,77.02a3.578,3.578,0,1,1-3.334,4.849v8.393L85.5,93.227l-0.162,0L60.666,92.9V79.53H58.18v8.888l1.557,0v1.068l-1.556,0v1.532H57.112V89.485L35.8,89.461V88.393l1.765,0V73.048H29.733V71.98h7.829V69.273h1.068V71.98H57.112v-7.2H58.18v7.2h2.5v1.068h-2.5V76.24h2.486V73.677L66.382,70.2H90.065v9.125A3.575,3.575,0,0,1,93.4,77.02ZM57.112,73.048H38.631V88.4l18.481,0.02V73.048Zm9.1,9.281,2.9-.039V80.118H68.1V79.53H64.608l-0.02,3.355,1.448-.523A0.525,0.525,0,0,1,66.211,82.329Zm4.112-4.641a1.289,1.289,0,0,0-.916-1.439H68.817v2.877h0.589A1.288,1.288,0,0,0,70.323,77.689Zm-0.14,2.223v2.364l3.342-.045V74.407H70.307V75.55a2.543,2.543,0,0,1,1.007,2.138A2.493,2.493,0,0,1,70.183,79.912ZM61.734,91.849L62.2,91.855l3.485-1.818V83.625l-1.453.525a0.529,0.529,0,0,1-.182.032,0.534,0.534,0,0,1-.534-0.538L63.54,79.53H61.734v12.32Zm-3.11-14.542v1.153h9.124V77.308H58.625ZM66,71.686l-4.263,2.591V76.24h1.859V74.814a0.534,0.534,0,0,1,.315-0.487L66,73.386v-1.7Zm0.335,2.721-1.671.753v1.08h3.473v-0.98h1.1V74.407H66.333ZM89,71.271H67.066v2.068h6.993a0.534,0.534,0,0,1,.534.534v8.886a0.534,0.534,0,0,1-.527.534l-7.314.1v6.48l21.805,0.1L89,89.682V71.271Zm4.4,10.768a1.44,1.44,0,1,0-1.44-1.44A1.442,1.442,0,0,0,93.4,82.038Zm-11.987-.092a3.578,3.578,0,1,1,3.578-3.578A3.582,3.582,0,0,1,81.412,81.946Zm0-5.018a1.44,1.44,0,1,0,1.44,1.44A1.442,1.442,0,0,0,81.412,76.928ZM30.988,78.856a2.805,2.805,0,1,1-2.757,3.283l-1.762-.918a4.271,4.271,0,1,1,1.166-2.352L29.3,79.437A2.777,2.777,0,0,1,30.988,78.856Zm-7.213-3.537a3.1,3.1,0,1,0,1.936,5.506l-0.949-.495a2.02,2.02,0,1,1,.884-2.145l0.023,0.01L26.859,78.6c0-.062.017-0.12,0.017-0.183A3.1,3.1,0,0,0,23.774,75.319Zm1.1,3.4-0.006-.25a1.2,1.2,0,0,0-1.2-1.055,1.219,1.219,0,1,0,.8,2.14l0.226-.2,0.357,0.228,3.173,1.651a2.78,2.78,0,0,1,.459-1.166Zm6.109,4.95a2,2,0,1,0-2-2A2.005,2.005,0,0,0,30.988,83.665Zm20.381,7.924a1.048,1.048,0,0,1,.813-0.03L58.6,93.944a1.064,1.064,0,0,1,.627,1.366,1.123,1.123,0,0,1-1.038.78,1.043,1.043,0,0,1-.361-0.066h0l-6.422-2.385a1.064,1.064,0,0,1-.627-1.366A1.125,1.125,0,0,1,51.369,91.589Zm0.366,1.171,6.422,2.386a0.129,0.129,0,0,0,.162-0.074c0.056-.152.023-0.226-0.041-0.25l-6.423-2.385a0.145,0.145,0,0,0-.162.074C51.64,92.654,51.68,92.74,51.735,92.76ZM68.35,95.885H81.572a1.042,1.042,0,1,1,0,2.084H68.35A1.042,1.042,0,1,1,68.35,95.885Zm0,1.283H81.572a0.241,0.241,0,0,0,.241-0.241,0.244,0.244,0,0,0-.241-0.24H68.35a0.244,0.244,0,0,0-.241.24A0.241,0.241,0,0,0,68.35,97.168ZM90.4,95.557l10.687-.75a0.986,0.986,0,0,1,1.047.91l0.009,0.123a0.984,0.984,0,0,1-.91,1.047h0l-10.685.751-0.068,0a0.984,0.984,0,0,1-.98-0.913L89.491,96.6A0.983,0.983,0,0,1,90.4,95.557Zm-0.1,1.114a0.181,0.181,0,0,0,.192.166l10.686-.75a0.182,0.182,0,0,0,.166-0.191l-0.008-.123a0.2,0.2,0,0,0-.184-0.166h-0.008l-10.686.75a0.2,0.2,0,0,0-.166.191Z"/>
  <path class="cls-3" d="M60.889,29.188a2.7,2.7,0,0,0,2.739.049l6.6-.978s1.467,0.342,2.25.489a51.71,51.71,0,0,0,5.674-.44l1.908,0.1s6.848,1.174,7.435.978a4.221,4.221,0,0,1,1.467-.1L92,31.1s0,2.446-.88,3.131-4.94,1.516-4.94,1.516S74,33.981,69.6,34.323s-8.266,1.223-9.1.978A6.379,6.379,0,0,1,58,32.807C57.954,32.416,60.889,29.188,60.889,29.188Z"/>
  <path class="cls-8" d="M58.853,26.75l-0.831-1.761a1.5,1.5,0,0,1,.685-1.957,8.9,8.9,0,0,1,3.179-.978s0.391-1.467,1.125-1.712,3.962,0.587,4.793.832,3.62,1.027,3.62,1.027,0.342,1.37.391,1.614a2.5,2.5,0,0,0,1.174.929c0.294,0.049,3.766.2,3.962,0.2a1.07,1.07,0,0,0,1.125-.685,8.88,8.88,0,0,0-.147-2.005s2.788-.685,3.326-0.881,5.674-2.837,6.163.245L88.25,22.25a2.975,2.975,0,0,1,3.864,2.4l-1.272,2.005-0.245.88,0.832,2.495L90.6,31.3s-19.239-3.073-31.508.322l-0.53-1.4L59.587,26.9Z"/>
  <path id="Shape_510_copy" data-name="Shape 510 copy" class="cls-9" d="M93.039,27.014l-1.81-.049,0.342-.783s3.375-5.821-.978-8.217c0,0-3.082-1.027-5.332.147S80.615,21,78.511,20.264l-0.369-1.8c0.017,0.447.027,0.775,0.027,0.775a36,36,0,0,1,0,4.6c-0.2.245-.978,1.027-0.978,1.027l0.685,0.2a11.572,11.572,0,0,0-1.468,3.326l0.049,0.489,2.4-1.418,0.2,4.6-2.495-1.321-0.88.587s1.467,1.712,1.761,1.907a8.881,8.881,0,0,0,3.228.44,4.417,4.417,0,0,0,1.468-.685,0.85,0.85,0,0,1-.1-0.783,2.169,2.169,0,0,0,.245-0.685,3.475,3.475,0,0,0-.343-1.027C81.74,30.242,81.4,30,81.2,30.193a2.577,2.577,0,0,0-.1,1.174,3.216,3.216,0,0,1-1.467-1.859,1.44,1.44,0,0,1,.832-1.81,2.323,2.323,0,0,1,2.1.294,4.422,4.422,0,0,1,1.907-4.109A3.228,3.228,0,0,1,85.7,25.938a8.924,8.924,0,0,1-.245,2.544s1.174-.734,1.81,0a2.114,2.114,0,0,1,.44,2.25A2.522,2.522,0,0,1,85.849,32.2a1.744,1.744,0,0,0-.1-1.076c-0.245-.244-1.272.685-1.272,0.685a0.349,0.349,0,0,1,.245.44,3.258,3.258,0,0,1-.587.88s0.832,0.832,1.174,1.125a7.419,7.419,0,0,0,3.082,1.027,9.761,9.761,0,0,0,2.592-1.516,2.546,2.546,0,0,0,.44-1.125l-0.44-.294-2.837.489,1.272-4.891s0.587,2.1,1.712,2.348l0.489-.1s-0.685-2.544-1.027-3.326l3.62,0.782-0.978,2.69a2.908,2.908,0,0,0-1.956.44S90.3,32.3,92.7,33.03l-1.468,5.038V39c0,0.147-1.418,3.228-1.418,3.228a42.592,42.592,0,0,0-13.255-2.2c-8.12-.2-15.065,1.223-16.092,2.4l-1.174-3.571,0.147-.685-1.712-5.332a3.572,3.572,0,0,0,1.467-.636,2.432,2.432,0,0,0-.1-1.468,2.626,2.626,0,0,0-.983-0.408l-0.876.163-1.125-2.935,0.978-.343a11.9,11.9,0,0,1-1.321-5.674A5.863,5.863,0,0,1,59.1,16.084a6.076,6.076,0,0,1,5.127.169c1.223,0.685,5.038,2.3,6.066,2.152a3.6,3.6,0,0,1,1.663.1s0.049-1.712.1-2.054a1.755,1.755,0,0,1,.831-0.929,2.675,2.675,0,0,1,.962.489c0.016,0.1-.082,2.3-0.033,2.446s0.147,5.38.147,5.38a1.25,1.25,0,0,1-.489.832,1.207,1.207,0,0,1-1.272-.342c-0.049-.244-0.293-4.06-0.293-4.06a6.042,6.042,0,0,1-3.962-.832c-2.1-1.223-5.87-2.69-8.364-1.418a3.783,3.783,0,0,0-2.152,3.375,7.12,7.12,0,0,0,.978,4.207l0.88,0.929,0.734,0.147A9.343,9.343,0,0,0,58.8,30.144l0.489,0.1a15.9,15.9,0,0,0,1.81-2.25l1.076,4.7a7.9,7.9,0,0,0-2.788-.147,1.454,1.454,0,0,0,.1.978,7.4,7.4,0,0,0,3.228,1.565c1.516,0.245,3.326-1.761,3.326-1.761a1.843,1.843,0,0,1-.391-1.076c0.147-.293.245-0.538,0.245-0.538a2.391,2.391,0,0,0-.978-0.831,0.693,0.693,0,0,0-.342.783,3.065,3.065,0,0,0,.244.538,2.453,2.453,0,0,1-2.25-1.957,1.678,1.678,0,0,1,2.495-1.81,4.136,4.136,0,0,1,.783-4.647,4.61,4.61,0,0,1,2.005,4.06l-0.049.587a1.877,1.877,0,0,1,1.321-.88,1.468,1.468,0,0,1,1.712.978,1.663,1.663,0,0,0,.636.44c0-.147.049-1.565,0.049-1.565l2.152,1.223,0.391-.342a22.43,22.43,0,0,0-1.418-3.033l3.424-.2,0.343-.636-0.049-7.875a1.186,1.186,0,0,1,.538-0.832,1.364,1.364,0,0,1,1.076.245,21.271,21.271,0,0,1,.165,2.4,6.055,6.055,0,0,0,3.6-.4c2.005-.831,5.576-2.4,7.582-2.25s4.744,2.152,5.136,3.766S94.31,25.644,93.039,27.014Zm-19.027,3.62a7.289,7.289,0,0,0-1.418.685,9.084,9.084,0,0,1-1.174.831l-0.2-2.543-0.44.1a3.011,3.011,0,0,1-1.37,1.467s0.1-1.516-.782-0.978l-0.587,1.419a0.459,0.459,0,0,1,.293.44,10.265,10.265,0,0,1-.1,1.027,19.912,19.912,0,0,0,2.788.831,4.049,4.049,0,0,0,2.446-.881,8.177,8.177,0,0,0,1.321-1.761Zm1.174-14.478a3.513,3.513,0,0,1-1.545-6.672l-0.265,0L74.7,7.155,75.655,7.18l1.357,2.272-0.332,0A3.515,3.515,0,0,1,75.185,16.155Zm1.086-9.544,0.042-1.017,2.3-1.4L78.577,8.054Zm-2.219,0L71.747,8.054,71.714,4.191l2.3,1.4Zm0.469-1.577L73.267,2.142l3.451,0.041L75.43,5Z"/>
  <path class="cls-10" d="M95.83,20.534a1.589,1.589,0,1,1,1.588-1.589A1.591,1.591,0,0,1,95.83,20.534Zm-1.952-2.648A1.591,1.591,0,0,1,92.29,16.3a1.567,1.567,0,0,1,.193-0.742,1.576,1.576,0,0,1-2.827-.824,1.58,1.58,0,0,1-2.971.044,1.582,1.582,0,0,1-2.828.969c0,0.022.007,0.043,0.007,0.065a1.588,1.588,0,0,1-2.907.884,1.576,1.576,0,1,1-.254-1.036,1.576,1.576,0,0,1,2.814-.828c0-.022-0.007-0.043-0.007-0.065a1.586,1.586,0,0,1,3.067-.569,1.584,1.584,0,0,1,3.162-.13,1.584,1.584,0,0,1,3.081.525,1.566,1.566,0,0,1-.193.742A1.586,1.586,0,1,1,93.879,17.886ZM75.163,31.02A1.219,1.219,0,1,1,76.382,29.8,1.219,1.219,0,0,1,75.163,31.02ZM75.132,7.351a1.219,1.219,0,1,1,1.219-1.219A1.219,1.219,0,0,1,75.132,7.351ZM76.2,24.837H73.848v-8.8H76.2v8.8ZM70.74,18.094a1.586,1.586,0,0,1-1.568-1.385,1.577,1.577,0,0,1-2.8-.925,1.579,1.579,0,0,1-2.766-.722,1.587,1.587,0,1,1,.224-1.154,1.582,1.582,0,0,1,2.915.776,1.576,1.576,0,0,1,2.775.817A1.585,1.585,0,1,1,70.74,18.094ZM59.1,16.108a1.585,1.585,0,0,1-1.29-.668,1.569,1.569,0,0,1,.16.683,1.6,1.6,0,1,1-.3-0.92,1.569,1.569,0,0,1-.16-0.683A1.589,1.589,0,1,1,59.1,16.108Zm-3.116,2.785A1.589,1.589,0,1,1,54.4,17.3,1.59,1.59,0,0,1,55.986,18.893Zm-0.471,3.5a1.589,1.589,0,1,1-1.588-1.588A1.59,1.59,0,0,1,55.515,22.395Zm-0.439,2a1.589,1.589,0,1,1-1.589,1.588A1.59,1.59,0,0,1,55.076,24.4Zm3.034,5.952a1.219,1.219,0,1,1-1.219,1.219A1.219,1.219,0,0,1,58.111,30.348ZM75.218,39.92c8.883,0,15.841,1.739,15.841,3.958S84.1,47.837,75.218,47.837,59.377,46.1,59.377,43.878,66.335,39.92,75.218,39.92Zm17.145-9.637A1.219,1.219,0,1,1,91.144,31.5,1.219,1.219,0,0,1,92.363,30.283Zm2.666-5.922A1.589,1.589,0,1,1,93.44,25.95,1.59,1.59,0,0,1,95.029,24.361ZM94.486,22.5a1.588,1.588,0,1,1,1.588,1.588A1.59,1.59,0,0,1,94.486,22.5Z"/>
  <path class="cls-3" d="M62.22,44.9c0,0.77,5.788,1.394,12.928,1.394s12.928-.624,12.928-1.394-5.788-1.394-12.928-1.394S62.22,44.13,62.22,44.9ZM96.074,24.206a1.731,1.731,0,0,0,0-3.461,1.713,1.713,0,0,0-1.05.365,6.768,6.768,0,0,0-.117-0.729,1.735,1.735,0,1,0,.363-3.088,1.725,1.725,0,0,0-2.336-2.466,1.7,1.7,0,0,0,.026-0.261,1.729,1.729,0,0,0-3.171-.956,1.721,1.721,0,0,0-3.29.123,1.722,1.722,0,0,0-3.106.742,1.712,1.712,0,0,0-2.774.834,1.717,1.717,0,0,0-2.611.168,1.358,1.358,0,0,0-.228-0.147,3.724,3.724,0,0,0-.76-5.863l0.075-.037L76.045,7.3a1.474,1.474,0,0,0,.245-0.25l2.531,1.558L78.862,3.94,76.234,5.217a1.46,1.46,0,0,0-.351-0.3c0.21-.527,1.045-2.654,1.045-2.654l0.12-.3L72.9,1.912l0.166,0.331c0.324,0.648,1.01,2.3,1.2,2.754a1.457,1.457,0,0,0-.234.22L71.4,3.94l0.041,4.667,2.531-1.558a1.451,1.451,0,0,0,.223.232l-1,2.189,0.019,0.008a3.717,3.717,0,0,0-.774,5.8,1.361,1.361,0,0,0-.306.187,1.711,1.711,0,0,0-2.536-.284,1.711,1.711,0,0,0-2.753-.83,1.721,1.721,0,0,0-2.961-.777,1.72,1.72,0,0,0-3.266.107,1.725,1.725,0,0,0-3.252.808,1.686,1.686,0,0,0,.02.2,1.727,1.727,0,0,0-2.225,2.629,1.708,1.708,0,0,0-.77-0.189,1.73,1.73,0,1,0,.982,3.153,6.8,6.8,0,0,0-.153.949,1.725,1.725,0,1,0,.131,2.1c0.058,0.347.13,0.664,0.208,0.965a1.7,1.7,0,0,0-.488-0.079,1.731,1.731,0,1,0,.678,3.323l1.156,2.974a1.486,1.486,0,0,0-.357.958,1.5,1.5,0,0,0,.638,1.221l-0.006,0,1.742,5.66a1.1,1.1,0,0,0-.175.574V39.05l0.056,0.094a10.582,10.582,0,0,1,1.228,3.218,1.947,1.947,0,0,0-.935,1.492c0,2.75,8.3,4.234,16.117,4.234S91.335,46.6,91.335,43.854a2.077,2.077,0,0,0-1.106-1.608,25.418,25.418,0,0,1,1.4-3.109l0.052-.092v-0.1a1.1,1.1,0,0,0-.175-0.574l1.742-5.66L93.22,32.7a1.5,1.5,0,0,0,.629-1.214,1.486,1.486,0,0,0-.358-0.958L94.627,27.6a1.731,1.731,0,1,0,.1-3.379c0.043-.171.084-0.347,0.121-0.533A1.724,1.724,0,0,0,96.074,24.206Zm-42.147-.639a1.2,1.2,0,1,1,1.2-1.2A1.2,1.2,0,0,1,53.927,23.567Zm42.147-2.289a1.2,1.2,0,1,1-1.107,1.638c0.031-.239.07-0.465,0.089-0.725,0.007-.1,0-0.2,0-0.3A1.181,1.181,0,0,1,96.074,21.279Zm-2.756,4.453a5.022,5.022,0,0,1-.73,1.144l-0.95-.193a9.046,9.046,0,0,0,1.519-3.51c0.5-2.829-.4-4.7-2.655-5.566-2.278-.872-4.351-0.262-6.958,1.007-3.353,1.633-4.777,1.414-5.017,1.357v-1.05c0.707,0.085,2.4.026,5.613-1.454,2.62-1.208,4.557-1.756,6.7-.98a5.727,5.727,0,0,1,3.4,5.646,10.284,10.284,0,0,1-.559,2.728A1.71,1.71,0,0,0,93.318,25.731ZM93.6,26.9a1.744,1.744,0,0,0,.182.221l-0.291-.059C93.523,27.012,93.561,26.952,93.6,26.9Zm-0.421,4.586a0.885,0.885,0,1,1-.884-0.85A0.868,0.868,0,0,1,93.178,31.483Zm-2.244.723a10.672,10.672,0,0,0-2.3.216l0.822-3.569a6.831,6.831,0,0,0,1.534,1.806A1.455,1.455,0,0,0,90.934,32.206Zm-1.323-4.347-0.389-.777-1.427,6.2,0.5-.134a9.961,9.961,0,0,1,2.567-.312,4.032,4.032,0,0,1-2.925,1.935A4.685,4.685,0,0,1,84.6,33.141a0.888,0.888,0,0,0,.4-0.628l0.02-.164a0.876,0.876,0,0,0-.108-0.514l0.036,0.015a1.323,1.323,0,0,1,.486-0.617,0.112,0.112,0,0,1,.1.006,0.125,0.125,0,0,1,.074.083,1.062,1.062,0,0,1-.169.628l-0.285.48,0.558-.008a2.551,2.551,0,0,0,2.43-2.249,1.785,1.785,0,0,0-.669-1.908,2.124,2.124,0,0,0-1.608-.273c0.04-.153.087-0.3,0.116-0.461a4.036,4.036,0,0,0-1.2-3.963l-0.163-.127-0.18.1a4.654,4.654,0,0,0-2.03,2.628,5.105,5.105,0,0,0-.134,1.406,2,2,0,0,0-1.72-.189,1.906,1.906,0,0,0-1.308,1.741v-2.7l-0.618.56a14.32,14.32,0,0,1-1.882,1.264,7.267,7.267,0,0,1,1.563-2.939l0.7-.67H78.19a1.356,1.356,0,0,0,.339-0.892v-1.1a14.445,14.445,0,0,0,4.2-1.2,10.2,10.2,0,0,1,3.494-.979,1.489,1.489,0,0,1,1.421,1.5v0.437l0.437-.026a3.683,3.683,0,0,1,3.007.825,2.451,2.451,0,0,1,.575,1.817l0.024,0a8.815,8.815,0,0,1-.914,1.469l-1.09-.222,0.438,0.637A8.581,8.581,0,0,1,91.21,30.06,8.545,8.545,0,0,1,89.611,27.859ZM74.739,30.7a1,1,0,1,1,.89,0h-0.89Zm-16.631-.066a0.85,0.85,0,1,1-.884.85A0.868,0.868,0,0,1,58.108,30.634Zm1.3,0.026a6.832,6.832,0,0,0,1.534-1.807l0.822,3.569a10.62,10.62,0,0,0-2.3-.216A1.454,1.454,0,0,0,59.412,30.66ZM62.1,33.144l0.5,0.134-1.427-6.2-0.389.777a8.549,8.549,0,0,1-1.6,2.2,8.574,8.574,0,0,1,1.091-3.138l0.438-.638-1.2.245a8.724,8.724,0,0,1-.935-1.5,2.446,2.446,0,0,1,.575-1.815,3.666,3.666,0,0,1,3.007-.825L62.6,22.414l0-.432a1.49,1.49,0,0,1,1.421-1.5,10.228,10.228,0,0,1,3.494.979,14.985,14.985,0,0,0,4.095,1.183v1.113a1.356,1.356,0,0,0,.339.892h-0.6l0.7,0.67a7.325,7.325,0,0,1,1.57,2.963A14.62,14.62,0,0,1,71.7,26.992l-0.618-.56v2.21a1.939,1.939,0,0,0-1.238-1.253,2,2,0,0,0-1.72.189,5.106,5.106,0,0,0-.134-1.406,4.654,4.654,0,0,0-2.03-2.628l-0.18-.1-0.164.127a4.037,4.037,0,0,0-1.2,3.963c0.029,0.158.076,0.308,0.116,0.461a2.124,2.124,0,0,0-1.608.273,1.784,1.784,0,0,0-.669,1.908,2.55,2.55,0,0,0,2.43,2.249l0.557,0.007-0.284-.48a1.064,1.064,0,0,1-.168-0.628,0.124,0.124,0,0,1,.074-0.082,0.1,0.1,0,0,1,.1-0.006,1.324,1.324,0,0,1,.486.617l0.036-.016a0.878,0.878,0,0,0-.108.515l0.02,0.164a0.9,0.9,0,0,0,.341.6,0.861,0.861,0,0,0,.08.043,4.644,4.644,0,0,1-3.324,1.61,4.033,4.033,0,0,1-2.925-1.935A9.985,9.985,0,0,1,62.1,33.144ZM56.8,27.082l-0.5.1a1.731,1.731,0,0,0,.293-0.406C56.666,26.892,56.735,27,56.8,27.082Zm-0.761-4.951a5.728,5.728,0,0,1,3.4-5.646c2.142-.776,4.077-0.227,6.7.98,3.03,1.4,4.708,1.528,5.482,1.466v1.058c-0.459.061-1.908,0.073-4.886-1.376-2.606-1.27-4.679-1.881-6.957-1.007-2.257.865-3.151,2.737-2.655,5.566A9.066,9.066,0,0,0,58.648,26.7l-0.959.2,0.008-.008A7.991,7.991,0,0,1,56.036,22.131Zm7.512-6.79a1.692,1.692,0,0,0,.152.31c-0.13-.037-0.258-0.065-0.386-0.1A1.742,1.742,0,0,0,63.548,15.341Zm2.719,0.721a1.719,1.719,0,0,0,.367.726l-0.16-.071c-0.265-.122-0.519-0.232-0.774-0.341A1.718,1.718,0,0,0,66.267,16.062Zm2.823,0.912a1.731,1.731,0,0,0,.669.93,14.29,14.29,0,0,1-1.653-.509A1.716,1.716,0,0,0,69.09,16.974Zm5.236-.637a3.487,3.487,0,0,0,1.485.023,1.323,1.323,0,0,0-.019.183v7.214a1.356,1.356,0,0,0,.339.892H74.008a1.356,1.356,0,0,0,.339-0.892V16.542A1.356,1.356,0,0,0,74.326,16.337ZM73.191,15.2a3.194,3.194,0,0,1-.811-0.928,12.045,12.045,0,0,1,5.5,0,3.189,3.189,0,0,1-.8.918,1.36,1.36,0,0,0-1,.528,2.969,2.969,0,0,1-2.068-.051A1.358,1.358,0,0,0,73.191,15.2Zm7.847,1.8a1.726,1.726,0,0,0,.895.489,13.41,13.41,0,0,1-1.57.459A1.732,1.732,0,0,0,81.038,16.992Zm2.94-.943a1.719,1.719,0,0,0,.589.33c-0.254.108-.507,0.218-0.77,0.339l-0.094.042A1.719,1.719,0,0,0,83.979,16.048Zm8.39,6.985c-0.031.174-.076,0.341-0.12,0.509a2.864,2.864,0,0,0-.551-0.878,4.193,4.193,0,0,0-3.274-1.11A2.266,2.266,0,0,0,86.3,19.661a10.231,10.231,0,0,0-3.867,1.031,14.121,14.121,0,0,1-3.9,1.136V20.784c0.653,0.093,2.268.058,5.367-1.45,2.477-1.206,4.305-1.751,6.32-.98C92.09,19.072,92.795,20.6,92.369,23.034Zm-13.84-5.021a1.675,1.675,0,0,0,.172.093c-0.072-.006-0.128-0.013-0.172-0.021V18.012ZM76.8,29.079c0.316-.181,1.08-0.628,1.7-1.061v3.446c-0.591-.412-1.315-0.838-1.657-1.036A1.719,1.719,0,0,0,76.8,29.079Zm-1.622-1.051a1.764,1.764,0,0,0-.766.179,9.723,9.723,0,0,0-1.254-2.782H77.2a9.723,9.723,0,0,0-1.254,2.782A1.764,1.764,0,0,0,75.183,28.028Zm-1.672,2.384c-0.326.187-1.076,0.626-1.687,1.052V28.018c0.641,0.446,1.431.906,1.728,1.076A1.717,1.717,0,0,0,73.512,30.411Zm-1.9-8.6a14.76,14.76,0,0,1-3.8-1.123,10.125,10.125,0,0,0-3.867-1.031,2.265,2.265,0,0,0-2.127,1.892,4.17,4.17,0,0,0-3.274,1.11,2.879,2.879,0,0,0-.535.832c-0.039-.153-0.081-0.3-0.109-0.463-0.426-2.431.279-3.961,2.153-4.679,2.016-.772,3.844-0.226,6.319.98,2.91,1.417,4.51,1.533,5.236,1.465v1.017Zm0-3.714a3.166,3.166,0,0,1-.323.013,1.724,1.724,0,0,0,.323-0.146V18.1ZM58.1,16.249c0-.051.015-0.1,0.015-0.151a1.684,1.684,0,0,0-.02-0.2,1.723,1.723,0,0,0,.307.178C58.3,16.132,58.2,16.186,58.1,16.249Zm2.486-.876a1.713,1.713,0,0,0,.167-0.384,1.727,1.727,0,0,0,.231.334C60.85,15.333,60.717,15.356,60.584,15.374ZM64.2,31.7a1.912,1.912,0,0,1-1.319-1.628,1.2,1.2,0,0,1,.4-1.291,1.51,1.51,0,0,1,1.462-.062l0.013-.022a10.489,10.489,0,0,0,1.476,2.637l-0.068.008a0.865,0.865,0,0,0-.229.077,1.646,1.646,0,0,0-.755-0.774,0.733,0.733,0,0,0-.592.034,0.746,0.746,0,0,0-.395.467A1.113,1.113,0,0,0,64.2,31.7Zm2.749-.477a9.171,9.171,0,0,1-1.909-3.805,3.553,3.553,0,0,1,.806-3.208A4.045,4.045,0,0,1,67.39,26.34C67.79,27.786,67.042,30.844,66.946,31.225Zm-0.7.739,1.541-.19,0.034,0a0.277,0.277,0,0,1,.274.243l0.02,0.164a0.277,0.277,0,0,1-.241.309l-1.541.19h0a0.265,0.265,0,0,1-.2-0.057,0.275,0.275,0,0,1-.105-0.184L66,32.273A0.278,0.278,0,0,1,66.242,31.964Zm1.631-.8a0.876,0.876,0,0,0-.166-0.012l-0.1.013a21,21,0,0,0,.471-2.731,1.389,1.389,0,0,1,1.565-.455,1.309,1.309,0,0,1,.91,1.294,1.708,1.708,0,0,1-.83,1.441,0.923,0.923,0,0,0-.209-0.658,0.848,0.848,0,0,0-.84-0.238A1.525,1.525,0,0,0,67.873,31.166Zm0.839,0.773a0.886,0.886,0,0,0-.243-0.492A1.792,1.792,0,0,1,68.8,30.43a0.262,0.262,0,0,1,.238.038,0.762,0.762,0,0,1-.04.665l-0.194.541,0.559-.13a2.422,2.422,0,0,0,1.719-1.68v3.186L71.7,32.49a16.834,16.834,0,0,1,2.2-1.447,1.78,1.78,0,0,0,.344.277,4.532,4.532,0,0,1-2.314,1.9,4.356,4.356,0,0,1-3.365-.483,0.893,0.893,0,0,0,.169-0.634Zm7.743-.882a16.593,16.593,0,0,1,2.173,1.434l0.618,0.559v-3.6a2.4,2.4,0,0,0,1.79,2.1l0.559,0.13L81.4,31.133a0.761,0.761,0,0,1-.04-0.665A0.265,0.265,0,0,1,81.6,30.43a1.793,1.793,0,0,1,.334,1.018,0.888,0.888,0,0,0-.243.491l-0.02.165a0.894,0.894,0,0,0,.175.647,4.339,4.339,0,0,1-3.337.47,4.554,4.554,0,0,1-2.333-1.928A1.791,1.791,0,0,0,76.456,31.056Zm8.909-3.636a9.187,9.187,0,0,1-1.909,3.8c-0.1-.384-0.844-3.438-0.444-4.885a4.045,4.045,0,0,1,1.547-2.128A3.551,3.551,0,0,1,85.365,27.42ZM85.644,28.7l0.013,0.022a1.511,1.511,0,0,1,1.462.062,1.2,1.2,0,0,1,.4,1.291A1.912,1.912,0,0,1,86.2,31.7a1.1,1.1,0,0,0,0-.554,0.748,0.748,0,0,0-.4-0.468,0.732,0.732,0,0,0-.592-0.034,1.645,1.645,0,0,0-.754.773,0.873,0.873,0,0,0-.23-0.077l-0.068-.008A10.489,10.489,0,0,0,85.644,28.7Zm-1.485,3.265a0.278,0.278,0,0,1,.241.31l-0.02.164a0.276,0.276,0,0,1-.309.241l-1.542-.19a0.277,0.277,0,0,1-.241-0.309l0.02-.165a0.281,0.281,0,0,1,.276-0.243l0.033,0Zm-1.362-.8-0.1-.013a0.832,0.832,0,0,0-.166.012,1.525,1.525,0,0,0-.8-1.346,0.848,0.848,0,0,0-.84.238,0.924,0.924,0,0,0-.209.659,1.71,1.71,0,0,1-.83-1.441,1.309,1.309,0,0,1,.91-1.294,1.389,1.389,0,0,1,1.565.455A20.988,20.988,0,0,0,82.8,31.166ZM91.97,16.123a1.748,1.748,0,0,0,.2-0.111,1.705,1.705,0,0,0-.022.222C92.092,16.2,92.032,16.159,91.97,16.123Zm-2.528-.786a1.736,1.736,0,0,0,.162-0.2,1.7,1.7,0,0,0,.107.24C89.622,15.365,89.532,15.346,89.443,15.337ZM93.892,18a1.712,1.712,0,0,0,.546-0.1,1.722,1.722,0,0,0-.262.536C94.092,18.287,93.988,18.147,93.892,18Zm3.135,0.919a1.2,1.2,0,1,1-1.2-1.2A1.2,1.2,0,0,1,97.027,18.921Zm-3.148-3.845a1.2,1.2,0,1,1-.445,2.3,6,6,0,0,0-.665-0.679,1.182,1.182,0,0,1-.087-0.428A1.2,1.2,0,0,1,93.879,15.076ZM91.23,13.368a1.2,1.2,0,0,1,0,2.393l-0.011,0c-0.035-.014-0.064-0.036-0.1-0.049-0.171-.062-0.338-0.1-0.507-0.147a1.179,1.179,0,0,1-.578-1A1.2,1.2,0,0,1,91.23,13.368Zm-3.066-.383a1.2,1.2,0,0,1,1.2,1.2,1.182,1.182,0,0,1-.88,1.132c-0.136.007-.273,0.031-0.409,0.045A1.189,1.189,0,0,1,88.164,12.985Zm-1.078,2.54c-0.174.04-.349,0.079-0.526,0.128a1.722,1.722,0,0,0,.2-0.465A1.734,1.734,0,0,0,87.086,15.525ZM85.1,13.543a1.2,1.2,0,1,1-1.2,1.2A1.2,1.2,0,0,1,85.1,13.543Zm-2.822,1.045a1.2,1.2,0,1,1-1.2,1.2A1.2,1.2,0,0,1,82.275,14.588Zm-2.893.731a1.2,1.2,0,1,1-.854,2.031V16.542a1.351,1.351,0,0,0-.158-0.625A1.18,1.18,0,0,1,79.382,15.32Zm-1.655,1.674v6.762a0.566,0.566,0,1,1-1.132,0V16.542a0.564,0.564,0,0,1,1.078-.234A1.352,1.352,0,0,0,77.727,16.993Zm0.528-4.954a15.331,15.331,0,0,0-2.079-.6V9.684A3.19,3.19,0,0,1,78.255,12.039ZM78.4,4.665L78.376,7.8,76.5,6.652A1.417,1.417,0,0,0,76.479,5.6ZM73.626,2.372L76.388,2.4c-0.237.6-.756,1.923-0.922,2.342a1.346,1.346,0,0,0-.8.041C74.486,4.357,73.976,3.129,73.626,2.372ZM71.886,7.8L71.858,4.665,73.783,5.6a1.418,1.418,0,0,0-.026,1.052Zm3.245-2.648a1.013,1.013,0,0,1,1.012,1.012,1,1,0,0,1-.53.872H74.649a1,1,0,0,1-.53-0.872A1.013,1.013,0,0,1,75.131,5.155ZM74.583,7.521a1.423,1.423,0,0,0,1.071.008L76.476,9.2a3.586,3.586,0,0,0-2.649-.013Zm-0.6,2.2v1.771a8.744,8.744,0,0,0-1.971.539A3.194,3.194,0,0,1,73.982,9.717Zm-2.025,2.82a8.392,8.392,0,0,1,2.271-.622l0.206-.019V9.576a2.986,2.986,0,0,1,1.291-.022V11.8L75.9,11.842a12.959,12.959,0,0,1,2.4.718c0,0.042.012,0.081,0.012,0.123a3.16,3.16,0,0,1-.229,1.169,12.29,12.29,0,0,0-5.92,0,3.16,3.16,0,0,1-.229-1.17C71.942,12.633,71.954,12.586,71.956,12.537Zm1.023,3.44a0.567,0.567,0,0,1,.566.566v7.214a0.566,0.566,0,1,1-1.132,0V16.9a1.711,1.711,0,0,0,.058-0.422c0-.052-0.011-0.1-0.015-0.151A0.565,0.565,0,0,1,72.979,15.976Zm-2.239-.691a1.184,1.184,0,0,1,1.032.627,1.35,1.35,0,0,0-.161.63v0.747a1.184,1.184,0,0,1-.871.389,1.2,1.2,0,0,1-1.2-1.2,1.167,1.167,0,0,1,.069-0.341c0.013-.048.029-0.094,0.038-0.144A1.2,1.2,0,0,1,70.74,15.285Zm-2.788-.8a1.2,1.2,0,0,1,1.2,1.2,1.167,1.167,0,0,1-.069.34c-0.013.048-.029,0.094-0.038,0.144A1.195,1.195,0,1,1,67.952,14.484Zm-2.788-.941a1.2,1.2,0,1,1-1.2,1.2A1.2,1.2,0,0,1,65.165,13.543Zm-2.893-.558a1.194,1.194,0,0,1,.032,2.387l-0.144-.016A1.187,1.187,0,0,1,62.272,12.985ZM59.1,13.3a1.194,1.194,0,0,1,.483,2.287l-0.1.028a1.168,1.168,0,0,1-.387.078A1.2,1.2,0,1,1,59.1,13.3Zm-2.718,1.6a1.2,1.2,0,1,1-1.2,1.2A1.2,1.2,0,0,1,56.383,14.9ZM54.4,20.065a1.2,1.2,0,1,1,1.2-1.2A1.2,1.2,0,0,1,54.4,20.065Zm1.217-2.424a1.713,1.713,0,0,0,.769.188c0.041,0,.079-0.009.119-0.012a6.818,6.818,0,0,0-.424.657A1.726,1.726,0,0,0,55.614,17.641ZM53.88,25.96a1.2,1.2,0,0,1,1.2-1.2,1.167,1.167,0,0,1,.7.254,9.306,9.306,0,0,0,.456,1.129,1.182,1.182,0,0,1-1.158,1.01A1.2,1.2,0,0,1,53.88,25.96Zm5.54,1.226a10.214,10.214,0,0,0-.854,2.852,1.488,1.488,0,0,0-1.141.086l-0.913-2.346ZM90.533,43.854c0,1.624-6.29,3.433-15.315,3.433S59.9,45.477,59.9,43.854s6.289-3.432,15.315-3.432S90.533,42.23,90.533,43.854Zm0.043-4.423a0.9,0.9,0,0,0-.529-0.535l-1.158-.421a0.913,0.913,0,0,0-1.167.544l-0.057.156a0.913,0.913,0,0,0,.544,1.167l1.158,0.421a0.892,0.892,0,0,0,.6-0.007c-0.141.329-.288,0.689-0.437,1.079-2.863-1.447-8.7-2.215-14.309-2.215-5.69,0-11.624.79-14.438,2.28a7.722,7.722,0,0,0-.326-1.126,0.882,0.882,0,0,0,.524-0.011l1.158-.421a0.913,0.913,0,0,0,.544-1.167l-0.057-.156a0.913,0.913,0,0,0-1.166-.544L60.3,38.9a0.9,0.9,0,0,0-.483.43c-0.1-.2-0.2-0.373-0.252-0.473,0.288-1.149,6.19-2.683,15.653-2.683s15.376,1.537,15.653,2.686C90.811,38.969,90.705,39.17,90.575,39.431Zm0.29-1.7c-2.489-1.71-10.171-2.362-15.648-2.362s-13.159.652-15.648,2.362l-1.376-4.473,0.579-.161a4.911,4.911,0,0,0,3.686,2.471,5.543,5.543,0,0,0,4.074-2l1.53-.177a5.163,5.163,0,0,0,4.118.586,5.387,5.387,0,0,0,2.849-2.4c0.051,0,.1.016,0.154,0.016a1.766,1.766,0,0,0,.219-0.022,5.387,5.387,0,0,0,2.853,2.409,5.17,5.17,0,0,0,4.117-.586l1.53,0.177a5.557,5.557,0,0,0,4.074,2A4.911,4.911,0,0,0,91.663,33.1l0.579,0.161Zm2.11-7.607a1.49,1.49,0,0,0-1.141-.086,10.218,10.218,0,0,0-.853-2.852l2.907,0.592Zm2.053-5.4a1.2,1.2,0,1,1-1.109,1.628,8.794,8.794,0,0,0,.636-1.529A1.187,1.187,0,0,1,95.029,24.728ZM76.612,37.059H74a0.941,0.941,0,1,0,0,1.882h2.614A0.941,0.941,0,0,0,76.612,37.059ZM65.567,38.541l2.183,1.037L69.581,38,67.4,36.963ZM80.715,38l1.831,1.578,2.183-1.037L82.9,36.963Z"/>
  <path id="Shape_515_copy_2" data-name="Shape 515 copy 2" class="cls-8" d="M90.418,39.985l-0.057.156a0.913,0.913,0,0,1-1.166.544l-1.158-.421a0.913,0.913,0,0,1-.544-1.166l0.057-.156a0.913,0.913,0,0,1,1.166-.544l1.158,0.421A0.913,0.913,0,0,1,90.418,39.985Zm-29.612.7a0.913,0.913,0,0,1-1.166-.544l-0.057-.156a0.913,0.913,0,0,1,.545-1.167l1.158-.421a0.913,0.913,0,0,1,1.166.544L62.508,39.1a0.913,0.913,0,0,1-.544,1.166Z"/>
  <path id="Shape_515_copy" data-name="Shape 515 copy" class="cls-11" d="M82.372,39.5l-1.831-1.578,2.183-1.037,1.831,1.578Zm-5.934-.638H73.825a0.941,0.941,0,1,1,0-1.882h2.613A0.941,0.941,0,0,1,76.439,38.863Zm-11.045-.4,1.831-1.578,2.183,1.037L67.577,39.5Z"/>
  <path class="cls-8" d="M130.843,66.34a1.673,1.673,0,1,1,1.672-1.672A1.673,1.673,0,0,1,130.843,66.34Zm0.139,44.047a1.673,1.673,0,1,1-1.673-1.672A1.673,1.673,0,0,1,130.982,110.387Zm-11.43-43.7a1.673,1.673,0,1,1,1.673-1.673A1.673,1.673,0,0,1,119.552,66.689Zm-0.906-21.535a1.673,1.673,0,1,1,1.673-1.673A1.673,1.673,0,0,1,118.646,45.154Zm-3.415,63.074a1.673,1.673,0,1,1,1.673-1.673A1.673,1.673,0,0,1,115.231,108.227Zm-4.46-49.762a1.673,1.673,0,1,1,1.672-1.673A1.673,1.673,0,0,1,110.771,58.465Zm-8.5-20.978a1.673,1.673,0,1,1,1.673-1.673A1.673,1.673,0,0,1,102.268,37.487ZM37.975,43.411a1.673,1.673,0,1,1,1.673-1.673A1.673,1.673,0,0,1,37.975,43.411ZM34.8,105.369a1.673,1.673,0,1,1,1.673-1.672A1.673,1.673,0,0,1,34.8,105.369ZM26.963,93.347a1.673,1.673,0,1,1,1.673-1.673A1.673,1.673,0,0,1,26.963,93.347Zm-0.279,20.839a1.673,1.673,0,1,1-1.673-1.673A1.673,1.673,0,0,1,26.684,114.186ZM23.2,59.371A1.673,1.673,0,1,1,24.872,57.7,1.673,1.673,0,0,1,23.2,59.371Zm-4.042,40.806A1.673,1.673,0,1,1,20.83,98.5,1.673,1.673,0,0,1,19.157,100.177Z"/>
</svg>
