<svg id="allies_tunisia_prem_assault_1_icon" xmlns="http://www.w3.org/2000/svg" width="150" height="150" viewBox="0 0 150 150">
  <defs>
    <style>
      .cls-1 {
        fill: #ea2b2b;
      }

      .cls-1, .cls-2 {
        fill-rule: evenodd;
      }

      .cls-2 {
        fill: #222;
      }
    </style>
  </defs>
  <path class="cls-1" d="M75,131.437C35.214,131.437,2.96,106.169,2.96,75S35.214,18.564,75,18.564,147.04,43.831,147.04,75,114.786,131.437,75,131.437Z"/>
  <path id="Shape_521_copy" data-name="Shape 521 copy" class="cls-2" d="M83.947,33.638a0.4,0.4,0,0,0-.15.03c-0.83.332-1.826,2.656-1.826,2.656H78.818s-0.165-1.992-1.328-2.158a0.423,0.423,0,0,0-.059,0c-1.164,0-2.934,4.694-3.26,7.142-0.332,2.49-1.66,10.457-7.968,13.279,0,0-12.615,6.141-17.263,16.765s-4.482,27.222,5.976,35.19c5.1,3.887,12.061,5.522,18.506,5.522,6.765,0,12.964-1.8,15.854-4.692,5.644-5.644,6.972-17.6,3.984-28.218,0,0,0-5.692-2.561-5.693a1.963,1.963,0,0,0-.426.049c-2.988.664-4.15,4.15-1,11.454S91.267,107.7,78.652,108.2q-1.547.062-3.025,0.062c-11.066,0-19.1-2.757-21.541-12.511,0,0-1.748-7.149,5.325-7.149q0.236,0,.484.011s1.992,1.162,1,4.15-2.49,6.474.83,7.3a30.965,30.965,0,0,0,6.371.48c2.782,0,5.248-.147,5.248-0.147a9.684,9.684,0,0,0,5.349,2.175,4.572,4.572,0,0,0,2.453-.682c3.486-2.158,3.651-5.81,2.49-7.8-1.1-1.89-3.252-3.332-6.59-3.332q-0.269,0-.548.013c-1.836.083-3.479,0.45-4.729,0.45-1.72,0-2.7-.693-2.408-3.769A13.293,13.293,0,0,0,77.49,83.8c3.486-3.486,4.15-6.141,2.822-7.47S76,75,76,75s-2.988-3.984,1.162-5.145a10.127,10.127,0,0,1,2.751-.387c2.623,0,4.455,1.05,5.714,1.05,1.659,0,3.32-2.157,1.992-5.145S82.47,59.9,82.3,59.231c-0.158-.635,1.05-2.334,3.772-2.334,0.123,0,.249,0,0.378.011,0.3,0.017.614,0.027,0.933,0.027,2.853,0,6.254-.793,6.7-4.675,0,0-.166-1.161-1.992-1.992s-4.979-2.822-5.145-5.145,0.007-7.1-1-8.3c-0.778-.934-1.265-3.184-2.008-3.184"/>
</svg>
