<svg xmlns="http://www.w3.org/2000/svg" width="150" height="150" viewBox="0 0 150 150">
  <defs>
    <style>
      .cls-1 {
        fill: #f6f6f6;
      }

      .cls-2 {
        fill: #1a1a1a;
      }

      .cls-3 {
        fill: #35379c;
      }

      .cls-4 {
        fill: #ed1c24;
      }

      .cls-5 {
        fill: #c1272d;
      }
    </style>
  </defs>
  <g id="Layer_7" data-name="Layer 7">
    <g>
      <g>
        <g>
          <path class="cls-1" d="M21.42375,111.80728v-9.678a10.60669,10.60669,0,0,0-9.10869-1.99252c-5.12364,1.42323-4.98132,5.12364-4.98132,6.83152l1.70788,11.38586Z"/>
          <path class="cls-2" d="M9.0415,119.8094a1.45538,1.45538,0,0,1-1.439-1.23926l-1.708-11.38574a1.44989,1.44989,0,0,1-.01611-.21582v-.13184c-.00342-1.75488-.01319-6.418,6.04687-8.10156a12.01484,12.01484,0,0,1,10.44532,2.29,1.45535,1.45535,0,0,1,.5083,1.10449v9.67774a1.4551,1.4551,0,0,1-.77491,1.28613L9.72168,119.64046A1.45689,1.45689,0,0,1,9.0415,119.8094Zm-.25341-12.95019,1.38769,9.25,9.793-5.17872v-8.07031a8.9211,8.9211,0,0,0-7.26465-1.32226c-3.9248,1.09082-3.91943,3.51953-3.916,5.293Zm12.63574,4.94824h0Z"/>
        </g>
        <g>
          <path class="cls-1" d="M18.10287,132.15951a28.76221,28.76221,0,0,1,4.93387-17.45832l-2.0874-3.60553S1.40349,114.70117,5.00907,127.79492C5.00907,127.79492,8.42489,134.05715,18.10287,132.15951Z"/>
          <path class="cls-2" d="M14.55859,133.97835c-7.73339,0-10.687-5.23145-10.82666-5.48731a1.444,1.444,0,0,1-.12548-.30957,11.37825,11.37825,0,0,1,1.21435-9.41406c4.32715-6.9043,15.39551-9.01563,15.86475-9.10254a1.4539,1.4539,0,0,1,1.523.70215l2.0874,3.60547a1.45437,1.45437,0,0,1-.04492,1.52929,27.62674,27.62674,0,0,0-4.70166,16.501,1.458,1.458,0,0,1-1.16651,1.585A19.90489,19.90489,0,0,1,14.55859,133.97835Zm-8.19677-6.75684c.48974.76074,3.32422,4.58789,10.22754,3.71094a30.8932,30.8932,0,0,1,4.74414-16.26953l-1.1084-1.915c-2.66309.65332-9.97559,2.8291-12.94239,7.57031A8.418,8.418,0,0,0,6.36182,127.22151Z"/>
        </g>
        <path class="cls-2" d="M18.00781,112.408a1.45636,1.45636,0,0,1-1.38037-.99511l-1.08984-3.27051c-1.86328.61621-5.02637,1.40039-7.13916.51074a3.56076,3.56076,0,0,1-1.99268-2.00879,1.455,1.455,0,0,1,2.71-1.06055.65339.65339,0,0,0,.41162.3877c1.32325.55957,4.50977-.28027,6.34912-1.05469a1.45512,1.45512,0,0,1,1.94629.87989l1.56543,4.69628a1.45642,1.45642,0,0,1-1.38037,1.915Z"/>
      </g>
      <g>
        <path class="cls-1" d="M126.60692,10.26753C111.36978,4.5764,86.58849,3.80164,77.2674,3.71923c-.22394-.003-.86071-.00932-1.80934-.009-.94862-.00036-1.58548.00594-1.80943.009-9.32108.08241-34.10237.85717-49.33951,6.5483L15.80879,25.3538l6.7416,8.824v79.98571l52.79366,17.3634H75.572l52.79366-17.3634V34.1778l6.74169-8.824Z"/>
        <path class="cls-2" d="M75.80811,133.00374h-.7002L21.07373,115.23225V34.67659l-7.02881-9.2002L23.2876,9.07307l.50488-.18847C39.1416,3.1512,63.76221,2.32991,73.63525,2.243c.22022-.00293.86377-.00976,1.82276-.00976s1.60254.00683,1.8291.00976c9.8667.08692,34.4873.90821,49.83643,6.64161l.50488.18847,9.24267,16.40332-7.0288,9.2002v80.55566ZM24.02686,113.09553l51.43115,16.915,51.43115-16.915v-79.417l6.45459-8.44824L125.5874,11.46565c-14.94531-5.40137-38.72461-6.18555-48.333-6.26953-.228-.00293-.85791-.00977-1.79638-.00977s-1.56836.00684-1.79.00977c-9.61475.084-33.394.86816-48.33936,6.26953L17.57227,25.2303l6.45459,8.44824Z"/>
      </g>
      <rect class="cls-3" x="25.92955" y="32.81785" width="99.05702" height="12.8091"/>
      <polygon class="cls-4" points="126.302 16.024 75.846 16.024 75.07 16.024 24.614 16.024 19.762 24.753 23.061 29.117 50.424 29.117 100.492 29.117 127.855 29.117 131.154 24.753 126.302 16.024"/>
      <polygon class="cls-4" points="113.221 59.859 101.456 75.42 88.742 60.049 75.458 75.29 62.175 60.049 49.46 75.42 37.695 59.859 25.17 75.23 25.17 112.044 75.458 128.554 125.746 112.044 125.746 75.23 113.221 59.859"/>
      <g>
        <g>
          <rect class="cls-1" x="86.44856" y="90.69599" width="5.12364" height="21.63314"/>
          <path class="cls-2" d="M91.57227,113.05647H86.44873a.7278.7278,0,0,1-.72754-.72754V90.69612a.7278.7278,0,0,1,.72754-.72754h5.12354a.72779.72779,0,0,1,.72753.72754v21.63281A.72779.72779,0,0,1,91.57227,113.05647Zm-4.396-1.45508h3.66846V91.42366H87.17627Z"/>
        </g>
        <g>
          <path class="cls-1" d="M86.16391,96.67357v10.05751H48.59056a32.61692,32.61692,0,0,1-15.94021-5.20835s6.07246-4.13077,16.5095-4.66956C49.15985,96.85317,86.54344,96.67357,86.16391,96.67357Z"/>
          <path class="cls-2" d="M86.16406,107.43928H48.59033a33.03733,33.03733,0,0,1-16.3208-5.32031.70778.70778,0,0,1-.01709-1.18164c.2544-.17383,6.35694-4.24805,16.87061-4.791.398-.00195,36.34228-.1748,37.02636-.18066a.7111.7111,0,0,1,.7251.70606c0,.05664.00049.10839-.00293.15527v9.9043A.70809.70809,0,0,1,86.16406,107.43928ZM34.023,101.534a32.0298,32.0298,0,0,0,14.56787,4.48926H85.45654V97.34065c-.93652.04981-2.49023.05664-5.06836.06934l-31.22509.15136A36.07674,36.07674,0,0,0,34.023,101.534Z"/>
        </g>
        <path class="cls-2" d="M86.35352,104.992h-2.4668a.72889.72889,0,0,1-.582-.291l-2.62842-3.50488h-30.188a.72754.72754,0,1,1,0-1.45508H81.04a.72892.72892,0,0,1,.582.291l2.62842,3.50488h2.103a.72754.72754,0,0,1,0,1.45508Z"/>
        <g>
          <rect class="cls-1" x="91.76196" y="96.57869" width="23.4359" height="10.1524"/>
          <path class="cls-2" d="M115.19775,107.43928h-23.436a.70809.70809,0,0,1-.70752-.708V96.57893a.7081.7081,0,0,1,.70752-.708h23.436a.7081.7081,0,0,1,.70752.708v10.15235A.70809.70809,0,0,1,115.19775,107.43928Zm-22.72851-1.416h22.021V97.28694h-22.021Z"/>
        </g>
        <path class="cls-2" d="M111.97168,107.17366a.72779.72779,0,0,1-.72754-.72754v-4.0166h-3.82666a.72941.72941,0,0,1-.51416-.21289l-1.32812-1.32813a.72689.72689,0,0,1-.21338-.51465V96.57893a.72754.72754,0,1,1,1.45507,0v3.49317l.90186.90234h4.25293a.72779.72779,0,0,1,.72754.72754v4.74414A.72779.72779,0,0,1,111.97168,107.17366Z"/>
      </g>
      <g>
        <g>
          <path class="cls-1" d="M128.57625,111.80728v-9.678a10.60669,10.60669,0,0,1,9.10869-1.99252c5.12364,1.42323,4.98132,5.12364,4.98132,6.83152l-1.70788,11.38586Z"/>
          <path class="cls-2" d="M140.9585,119.8094a1.45689,1.45689,0,0,1-.68018-.16894L127.896,113.09358a1.4551,1.4551,0,0,1-.77491-1.28613v-9.67774a1.45535,1.45535,0,0,1,.5083-1.10449,12.01226,12.01226,0,0,1,10.44483-2.29c6.06055,1.6836,6.05078,6.34668,6.04736,8.10156v.13184a1.44989,1.44989,0,0,1-.01611.21582l-1.708,11.38574a1.45538,1.45538,0,0,1-1.439,1.23926Zm-10.92725-8.87891,9.793,5.17872,1.38769-9.27833c.00342-1.77343.00879-4.20214-3.9165-5.293a8.9134,8.9134,0,0,0-7.26416,1.32226Z"/>
        </g>
        <g>
          <path class="cls-1" d="M131.89713,132.15951a28.76221,28.76221,0,0,0-4.93387-17.45832l2.0874-3.60553s19.54585,3.60551,15.94027,16.69926C144.99093,127.79492,141.57511,134.05715,131.89713,132.15951Z"/>
          <path class="cls-2" d="M135.44141,133.97835a19.90489,19.90489,0,0,1-3.82422-.39063,1.45487,1.45487,0,0,1-1.16651-1.585h0a27.62674,27.62674,0,0,0-4.70166-16.501,1.45437,1.45437,0,0,1-.04492-1.52929l2.0874-3.60547a1.45561,1.45561,0,0,1,1.52295-.70215c.46924.08691,11.5376,2.19824,15.86475,9.10254a11.37825,11.37825,0,0,1,1.21435,9.41406,1.444,1.444,0,0,1-.12548.30957C146.12842,128.7469,143.17383,133.97835,135.44141,133.97835Zm-2.03077-3.0459c6.88624.8789,9.72364-2.93067,10.228-3.71289a8.41484,8.41484,0,0,0-.92138-6.90137c-2.9668-4.74121-10.2793-6.917-12.94239-7.57031l-1.1084,1.915A30.8932,30.8932,0,0,1,133.41064,130.93245Z"/>
        </g>
        <path class="cls-2" d="M131.99219,112.408a1.45642,1.45642,0,0,1-1.38037-1.915l1.56543-4.69628a1.45512,1.45512,0,0,1,1.94629-.87989c1.83886.77442,5.02587,1.61524,6.34912,1.05469a.65339.65339,0,0,0,.41162-.3877,1.455,1.455,0,0,1,2.71,1.06055,3.56076,3.56076,0,0,1-1.99268,2.00879c-2.11181.89063-5.27636.10645-7.13916-.51074l-1.08984,3.27051A1.45636,1.45636,0,0,1,131.99219,112.408Z"/>
      </g>
      <g>
        <path class="cls-1" d="M130.99763,131.52691H18.93805s-12.594-.31621-13.9933-3.732c0,0,.39736,9.17937,3.133,14.4361a5.39486,5.39486,0,0,0,4.80846,2.83247H137.04936a5.39485,5.39485,0,0,0,4.80846-2.83247c2.73565-5.25673,3.13311-14.4361,3.13311-14.4361C143.59153,131.2107,130.99763,131.52691,130.99763,131.52691Z"/>
        <path class="cls-2" d="M137.04932,146.57893H12.88623a6.87435,6.87435,0,0,1-6.15283-3.64844c-2.85742-5.49121-3.28565-14.68164-3.30225-15.07031a1.51513,1.51513,0,0,1,2.916-.63965c.54443,1.3291,6.44629,2.63379,12.6289,2.792l112.002-.001c6.17627-.15918,12.0664-1.46289,12.61035-2.791a1.51512,1.51512,0,0,1,2.916.63965c-.0166.38867-.44482,9.5791-3.30224,15.07031A6.87435,6.87435,0,0,1,137.04932,146.57893ZM6.749,131.03889c.35547,3.03418,1.11524,7.499,2.67286,10.49317a3.90426,3.90426,0,0,0,3.46435,2.01562H137.04932a3.90428,3.90428,0,0,0,3.46435-2.01562c1.55762-2.99317,2.3169-7.458,2.67285-10.49317-3.854,1.63672-9.87451,1.94629-12.15088,2.00293l-.03808.001H18.938C16.63428,132.98518,10.60547,132.67561,6.749,131.03889Z"/>
      </g>
      <g>
        <g>
          <path class="cls-4" d="M15.03991,135.65156v1.8612h3.45956v1.50743H15.03991V142.349h-2.313v-8.20632H19.006v1.50885Z"/>
          <path class="cls-4" d="M20.47148,142.349v-8.2049h2.296v8.2049Z"/>
          <path class="cls-4" d="M29.11753,134.14413c1.79087,0,2.86568.99169,2.86568,2.465v.77858a2.09049,2.09049,0,0,1-1.29361,1.98054l1.65022,2.98076H29.6766l-1.16289-2.49628H26.94945V142.349H24.6535v-8.2049ZM26.958,138.33822h1.80224a.82961.82961,0,0,0,.927-.77716v-1.09683a.85044.85044,0,0,0-.927-.78284H26.958Z"/>
          <path class="cls-4" d="M33.60714,136.49833c0-1.85267,1.39164-2.45934,3.36934-2.45934a8.24926,8.24926,0,0,1,2.81666.34241l-.189,1.54863a7.289,7.289,0,0,0-2.56732-.34667c-.42268,0-1.067.12077-1.067.65924v.11934a.71214.71214,0,0,0,.50224.61377l2.03524.72175c1.37459.44754,1.8754.8965,1.8754,2.07289l-.00071.16339c-.01918,1.79584-1.30141,2.52043-3.46452,2.52043a10.71248,10.71248,0,0,1-3.20027-.3694l.16836-1.54437a10.68042,10.68042,0,0,0,3.19813.385.88443.88443,0,0,0,.97252-.80273v-.179a.7735.7735,0,0,0-.55552-.69191l-2.134-.73169c-1.26732-.41913-1.7518-.79279-1.7589-1.88393Z"/>
          <path class="cls-4" d="M46.24979,135.63735V142.349H43.946v-6.71168H41.18122v-1.49322h7.79572v1.49322Z"/>
          <path class="cls-4" d="M54.64863,142.349v-8.2049h2.296v8.2049Z"/>
          <path class="cls-4" d="M64.44833,142.349l-3.49791-4.94v4.94H58.69v-8.2049h2.22137l3.4972,4.98119v-4.98119h2.26967v8.2049Z"/>
          <path class="cls-4" d="M68.01231,139.44641v-1.34972h5.37688v1.34972Z"/>
          <path class="cls-4" d="M81.30354,140.84871V142.349H74.95345v-8.1978h2.30447v6.69748Z"/>
          <path class="cls-4" d="M88.77036,142.349l-.591-1.7589H85.32217l-.58535,1.7589H82.32436l2.98289-8.20632h2.89267l2.98289,8.20632Zm-.90858-3.26491-1.111-3.40557L85.639,139.08412Z"/>
          <path class="cls-4" d="M92.24057,136.49833c0-1.85267,1.39164-2.45934,3.36934-2.45934a8.24926,8.24926,0,0,1,2.81666.34241l-.189,1.54863a7.28893,7.28893,0,0,0-2.56732-.34667c-.42268,0-1.067.12077-1.067.65924v.11934a.71214.71214,0,0,0,.50224.61377l2.03524.72175c1.37459.44754,1.87541.8965,1.87541,2.07289l-.00071.16339c-.01919,1.79584-1.30142,2.52043-3.46453,2.52043a10.71253,10.71253,0,0,1-3.20027-.3694l.16836-1.54437a10.68044,10.68044,0,0,0,3.19814.385.88442.88442,0,0,0,.97251-.80273v-.179a.7735.7735,0,0,0-.55552-.69191l-2.134-.73169c-1.26731-.41913-1.75179-.79279-1.7589-1.88393Z"/>
          <path class="cls-4" d="M104.88393,135.63735V142.349h-2.30376v-6.71168H99.81536v-1.49322h7.79573v1.49322Z"/>
          <path class="cls-4" d="M117.19342,134.04468c1.9777,0,3.75081,1.13092,3.75081,2.90119v2.60852c0,1.70208-1.60262,2.89978-3.75081,2.89978h-.45607c-2.27961,0-3.721-1.23322-3.721-2.89978v-2.60852c0-1.76458,1.6218-2.90119,3.721-2.90119Zm-.34667,1.51027a1.40313,1.40313,0,0,0-1.53442,1.33835v2.71508a1.39515,1.39515,0,0,0,1.53584,1.3341h.24366a1.40338,1.40338,0,0,0,1.55645-1.3341V136.8933a1.42879,1.42879,0,0,0-1.55645-1.33835Z"/>
          <path class="cls-4" d="M130.27792,139.68084c0,1.91945-1.761,2.77333-3.70108,2.77333h-.42339c-2.05868,0-3.67551-.8894-3.67551-2.77333v-5.53671h2.29879v5.53671c0,.87661.71607,1.26306,1.48541,1.26306h.24295a1.30414,1.30414,0,0,0,1.474-1.26306v-5.53671h2.29879Z"/>
          <path class="cls-4" d="M136.74381,135.63735V142.349h-2.30376v-6.71168h-2.76481v-1.49322H139.471v1.49322Z"/>
        </g>
        <g>
          <path class="cls-5" d="M15.03991,135.65156v1.8612h3.45956v1.50743H15.03991V142.349h-2.313v-8.20632H19.006v1.50885Z"/>
          <path class="cls-5" d="M20.47148,142.349v-8.2049h2.296v8.2049Z"/>
          <path class="cls-5" d="M29.11753,134.14413c1.79087,0,2.86568.99169,2.86568,2.465v.77858a2.09049,2.09049,0,0,1-1.29361,1.98054l1.65022,2.98076H29.6766l-1.16289-2.49628H26.94945V142.349H24.6535v-8.2049ZM26.958,138.33822h1.80224a.82961.82961,0,0,0,.927-.77716v-1.09683a.85044.85044,0,0,0-.927-.78284H26.958Z"/>
          <path class="cls-5" d="M33.60714,136.49833c0-1.85267,1.39164-2.45934,3.36934-2.45934a8.24926,8.24926,0,0,1,2.81666.34241l-.189,1.54863a7.289,7.289,0,0,0-2.56732-.34667c-.42268,0-1.067.12077-1.067.65924v.11934a.71214.71214,0,0,0,.50224.61377l2.03524.72175c1.37459.44754,1.8754.8965,1.8754,2.07289l-.00071.16339c-.01918,1.79584-1.30141,2.52043-3.46452,2.52043a10.71248,10.71248,0,0,1-3.20027-.3694l.16836-1.54437a10.68042,10.68042,0,0,0,3.19813.385.88443.88443,0,0,0,.97252-.80273v-.179a.7735.7735,0,0,0-.55552-.69191l-2.134-.73169c-1.26732-.41913-1.7518-.79279-1.7589-1.88393Z"/>
          <path class="cls-5" d="M46.24979,135.63735V142.349H43.946v-6.71168H41.18122v-1.49322h7.79572v1.49322Z"/>
          <path class="cls-5" d="M54.64863,142.349v-8.2049h2.296v8.2049Z"/>
          <path class="cls-5" d="M64.44833,142.349l-3.49791-4.94v4.94H58.69v-8.2049h2.22137l3.4972,4.98119v-4.98119h2.26967v8.2049Z"/>
          <path class="cls-5" d="M68.01231,139.44641v-1.34972h5.37688v1.34972Z"/>
          <path class="cls-5" d="M81.30354,140.84871V142.349H74.95345v-8.1978h2.30447v6.69748Z"/>
          <path class="cls-5" d="M88.77036,142.349l-.591-1.7589H85.32217l-.58535,1.7589H82.32436l2.98289-8.20632h2.89267l2.98289,8.20632Zm-.90858-3.26491-1.111-3.40557L85.639,139.08412Z"/>
          <path class="cls-5" d="M92.24057,136.49833c0-1.85267,1.39164-2.45934,3.36934-2.45934a8.24926,8.24926,0,0,1,2.81666.34241l-.189,1.54863a7.28893,7.28893,0,0,0-2.56732-.34667c-.42268,0-1.067.12077-1.067.65924v.11934a.71214.71214,0,0,0,.50224.61377l2.03524.72175c1.37459.44754,1.87541.8965,1.87541,2.07289l-.00071.16339c-.01919,1.79584-1.30142,2.52043-3.46453,2.52043a10.71253,10.71253,0,0,1-3.20027-.3694l.16836-1.54437a10.68044,10.68044,0,0,0,3.19814.385.88442.88442,0,0,0,.97251-.80273v-.179a.7735.7735,0,0,0-.55552-.69191l-2.134-.73169c-1.26731-.41913-1.75179-.79279-1.7589-1.88393Z"/>
          <path class="cls-5" d="M104.88393,135.63735V142.349h-2.30376v-6.71168H99.81536v-1.49322h7.79573v1.49322Z"/>
          <path class="cls-5" d="M117.19342,134.04468c1.9777,0,3.75081,1.13092,3.75081,2.90119v2.60852c0,1.70208-1.60262,2.89978-3.75081,2.89978h-.45607c-2.27961,0-3.721-1.23322-3.721-2.89978v-2.60852c0-1.76458,1.6218-2.90119,3.721-2.90119Zm-.34667,1.51027a1.40313,1.40313,0,0,0-1.53442,1.33835v2.71508a1.39515,1.39515,0,0,0,1.53584,1.3341h.24366a1.40338,1.40338,0,0,0,1.55645-1.3341V136.8933a1.42879,1.42879,0,0,0-1.55645-1.33835Z"/>
          <path class="cls-5" d="M130.27792,139.68084c0,1.91945-1.761,2.77333-3.70108,2.77333h-.42339c-2.05868,0-3.67551-.8894-3.67551-2.77333v-5.53671h2.29879v5.53671c0,.87661.71607,1.26306,1.48541,1.26306h.24295a1.30414,1.30414,0,0,0,1.474-1.26306v-5.53671h2.29879Z"/>
          <path class="cls-5" d="M136.74381,135.63735V142.349h-2.30376v-6.71168h-2.76481v-1.49322H139.471v1.49322Z"/>
        </g>
      </g>
    </g>
  </g>
</svg>
