<svg id="allies_tunisia_pilot_fighter_1_icon" xmlns="http://www.w3.org/2000/svg" width="150" height="150" viewBox="0 0 150 150">
  <defs>
    <style>
      .cls-1 {
        fill: #101010;
      }

      .cls-1, .cls-10, .cls-11, .cls-12, .cls-13, .cls-14, .cls-15, .cls-16, .cls-17, .cls-18, .cls-19, .cls-2, .cls-3, .cls-4, .cls-5, .cls-6, .cls-7, .cls-8, .cls-9 {
        fill-rule: evenodd;
      }

      .cls-2 {
        fill: #c09c4e;
      }

      .cls-3 {
        fill: #9e7723;
      }

      .cls-4 {
        fill: #d8b05b;
      }

      .cls-5 {
        fill: #77cef6;
      }

      .cls-6 {
        fill: #d9ad4f;
      }

      .cls-7 {
        fill: #e9e9e9;
      }

      .cls-8 {
        fill: #2c417a;
      }

      .cls-9 {
        fill: #cdaa5e;
      }

      .cls-10 {
        fill: #9b3939;
      }

      .cls-11 {
        fill: #5b87c2;
      }

      .cls-12 {
        fill: #f2fbff;
      }

      .cls-13 {
        fill: #8b282a;
      }

      .cls-14 {
        fill: #d8ac4c;
      }

      .cls-15 {
        fill: #f1f1f1;
      }

      .cls-16 {
        fill: #50bd45;
      }

      .cls-17 {
        fill: #2a7094;
      }

      .cls-18 {
        fill: #9e1e20;
      }

      .cls-19 {
        fill: #e7ac58;
      }
    </style>
  </defs>
  <path class="cls-1" d="M121.406,93.144a15.63,15.63,0,0,1-1.519,6.356l1.163-.032a17.519,17.519,0,0,1-1.616,5.04l1.034,0.1a18.772,18.772,0,0,1-2.875,5.072q0.033,0,.069,0a4.629,4.629,0,0,1,1.159.26c-0.679,2.151-4.039,4.88-4.039,4.88,0.06,0,.12-0.007.18-0.007a3.612,3.612,0,0,1,1.467.36c-0.743,1.926-4.136,4.43-4.136,4.43l1.163,0.385c-0.647,1.734-3.846,3.788-3.846,3.788l0.711,0.257c-1.1,1.284-5.009,3.339-5.009,3.339a2.459,2.459,0,0,1,.647.739,28.974,28.974,0,0,1-7.909,5.486l0.056,0.043a11.626,11.626,0,0,1-1.238.54c-1.162.553-2.443,1.1-3.853,1.639a1.631,1.631,0,0,1,.179.205,12.45,12.45,0,0,1-1.949.432q-1.473.5-3.111,0.966a0.769,0.769,0,0,1,.1.239c-0.393.02-.765,0.032-1.119,0.039-1.447.382-2.985,0.735-4.621,1.048a0.817,0.817,0,0,1,.033.117c-0.285.019-.558,0.028-0.818,0.029q-2.656.48-5.644,0.806H73.934q-2.991-.321-5.644-0.806H68.228c-0.28,0-.574-0.009-0.882-0.029a0.925,0.925,0,0,1,.041-0.139c-1.588-.307-3.086-0.652-4.495-1.024-0.393,0-.81-0.019-1.253-0.041a0.8,0.8,0,0,1,.118-0.269q-1.537-.436-2.929-0.911a12.241,12.241,0,0,1-2.149-.457,1.719,1.719,0,0,1,.214-0.239c-1.241-.473-2.382-0.959-3.428-1.447a11.456,11.456,0,0,1-1.7-.7s0.036-.03.109-0.08a40.585,40.585,0,0,1-3.642-2.108l-0.055-.027,0-.006a22.665,22.665,0,0,1-4.144-3.308,2.467,2.467,0,0,1,.646-0.739s-3.91-2.055-5.009-3.339l0.711-.257s-3.2-2.054-3.845-3.788l1.163-.385s-3.393-2.5-4.137-4.43a3.616,3.616,0,0,1,1.468-.36c0.06,0,.12,0,0.18.007,0,0-3.361-2.729-4.039-4.88a4.626,4.626,0,0,1,1.159-.26q0.036,0,.069,0a18.747,18.747,0,0,1-2.876-5.072l1.034-.1a17.508,17.508,0,0,1-1.616-5.04L30.113,99.5a15.634,15.634,0,0,1-1.518-6.356l0.743,0.032a20.4,20.4,0,0,1-.259-6.42l0.744,0.289a17.4,17.4,0,0,1,.194-5.554l0.872,0.61a22,22,0,0,1,.421-5.554l0.9,0.673a17.455,17.455,0,0,1,1-4.205l0.84,0.482a12.883,12.883,0,0,1,1.615-4.623l0.711,0.738a9.626,9.626,0,0,1,1.486-4.2l1.067,1.027a13.594,13.594,0,0,1,3.005-5.682s0.452,0.867.614,1.284c0,0,.485-1.958,3.587-4.719l0.227,0.867a31.681,31.681,0,0,1,4.977-4.912,7.016,7.016,0,0,1,.452,1.091,28.16,28.16,0,0,1,3.071-2.728,23.2,23.2,0,0,0,2.552-2.151l0.873-.256S64.71,46.311,75,46.305s16.707,2.922,16.707,2.922l0.873,0.256a23.147,23.147,0,0,0,2.553,2.151,28.192,28.192,0,0,1,3.07,2.728,7.039,7.039,0,0,1,.453-1.091,31.7,31.7,0,0,1,4.977,4.912l0.227-.867c3.1,2.761,3.586,4.719,3.586,4.719,0.162-.416.614-1.284,0.614-1.284a13.588,13.588,0,0,1,3.006,5.682l1.066-1.027a9.623,9.623,0,0,1,1.487,4.2l0.711-.738a12.886,12.886,0,0,1,1.615,4.623l0.841-.482a17.5,17.5,0,0,1,1,4.205l0.9-.673a21.983,21.983,0,0,1,.419,5.554l0.873-.61a17.417,17.417,0,0,1,.194,5.554l0.744-.289a20.4,20.4,0,0,1-.26,6.42Z"/>
  <path id="Shape_247_copy_8" data-name="Shape 247 copy 8" class="cls-2" d="M75.46,52.637l-0.027-.081h0.093a54.54,54.54,0,0,1,6.232.515,39.19,39.19,0,0,1,15.868,6.26,53.276,53.276,0,0,1,10.546,9.607,47.788,47.788,0,0,1,6.6,12.978,57.883,57.883,0,0,1,1.854,12.81,62.178,62.178,0,0,1-2.793,14.4c-1.421,3.829-6.6,11.365-8.138,12.786a46.325,46.325,0,0,1-7.825,6.6,50.623,50.623,0,0,1-12.087,5.441c-0.722.1-6.4,1.469-10.065,1.493l-0.777.012-0.778-.012c-3.659-.024-9.343-1.4-10.064-1.493a50.611,50.611,0,0,1-12.087-5.441,46.366,46.366,0,0,1-7.826-6.6c-1.541-1.421-6.718-8.957-8.139-12.786a62.231,62.231,0,0,1-2.793-14.4,57.959,57.959,0,0,1,1.854-12.809,47.8,47.8,0,0,1,6.6-12.978,53.277,53.277,0,0,1,10.546-9.607,39.182,39.182,0,0,1,15.867-6.26,54.63,54.63,0,0,1,6.233-.515h0.093l-0.028.081a2.077,2.077,0,0,1,1.046,0m1.193-2.07-0.505.072,0.529,0.842-0.433-.048-0.916-.77-0.216-.072-0.175.514-0.175-.514-0.217.072-0.915.77-0.433.048,0.529-.842-0.506-.072L72.21,51.578l-0.458.048,0.505-.939-0.6-.047-0.866,1.011L70.4,51.7l0.41-.842-0.578-.024-0.843.987-0.385.048,0.361-.747-0.578-.072L67.9,52.108l-0.385.048,0.385-.963-0.505.024L66.6,52.349l-0.313.024,0.434-.915-0.747.1L65.2,52.782l-0.457.048,0.385-.963H64.7l-0.819,1.179-0.409.1L63.9,52.2l-0.529.1-0.8.987-0.289.072,0.193-.747-0.505.072-0.6,1.011-0.385.1,0.313-.915-0.482.1-0.6,1.036-0.409.121,0.336-1.084-0.336.1-0.7,1.228-0.337.048,0.41-1.2H58.87l-0.818,1.06-0.337-.049,0.626-1.155-0.169-.217-0.746.578L58,52.4l-0.12-.289a5.35,5.35,0,0,0-1.108,1.686,7.07,7.07,0,0,1-1.276,2.07,6.987,6.987,0,0,1-1.324.843,15.973,15.973,0,0,0,2.118-2.962,3.281,3.281,0,0,0,.482-2.889,4.505,4.505,0,0,1-.963.77,10.709,10.709,0,0,0-3.25,2.721c-0.7,1.156-2.143,4.214-2.432,4.551s-1.493,1.517-1.493,1.517a26.154,26.154,0,0,0,1.686-2.865A5.939,5.939,0,0,0,50.78,54.4a17.374,17.374,0,0,0-3.733,4.334c-0.505,1.084-1.276,3.925-1.444,4.214a12.739,12.739,0,0,1-1.132,1.229h0a6.379,6.379,0,0,1,.844-1.3c0.938-1.349.265-4.334,0.265-4.334-2.408,2.046-2.528,3.708-2.625,4.695s-0.482,2.649-.529,2.866a15.4,15.4,0,0,1-1.036,1.588c1.421-2.383.289-5.706,0.289-5.706-2.793,2.841-2.191,4.912-2.239,5.827s-0.313,2.408-.361,2.769a4.577,4.577,0,0,1-.53,1.132,23.992,23.992,0,0,0,.313-2.48,4.963,4.963,0,0,0-.987-2.6,6.284,6.284,0,0,0-.794,5.538,14.7,14.7,0,0,1,.1,2.071l-0.554,1.156a7.123,7.123,0,0,0-.963-5.418c-1.661,4-.505,6.285-0.361,6.719a5.96,5.96,0,0,1,.1,1.468l-0.482,1.156a4.914,4.914,0,0,0-1.493-5.225,8.878,8.878,0,0,0,.361,6.237c0.048,0.12.313,0.963,0.313,0.963l-0.313,1.733a6.645,6.645,0,0,0-2.143-5.177c-1.276,4.791.747,6.574,1.011,6.935a3.417,3.417,0,0,1,.41,1.06l-0.241,2a6.905,6.905,0,0,0-2.552-5.249c-0.915,4.43,1.276,6.669,1.637,7.1a4.024,4.024,0,0,1,.649,1.227v1.806a9.11,9.11,0,0,0-2.986-5.08,8.079,8.079,0,0,0,1.951,7.007,8.967,8.967,0,0,1,1.059,1.757L32.746,98a8.8,8.8,0,0,0-3.2-4.358c-0.505,4.6,1.4,5.875,2.239,6.717a14.786,14.786,0,0,1,1.468,1.734l0.169,1.2a8.4,8.4,0,0,0-3.853-3.3c0.6,4.6,3.107,5.537,3.95,6.044a2.406,2.406,0,0,1,.939.745l0.433,1.277a6.393,6.393,0,0,0-4.575-2.986,8.238,8.238,0,0,0,4.383,5.057,5.875,5.875,0,0,1,1.541,1.131c0.12,0.169.505,1.083,0.505,1.083-2.125-1.973-3.6-2.268-4.294-2.268a1.487,1.487,0,0,0-.45.054c1.2,2.455,5.177,5.08,5.827,5.345a1.818,1.818,0,0,1,.794.481l0.747,1.277a5.609,5.609,0,0,0-3.9-1.932,2.558,2.558,0,0,0-.938.15,9.189,9.189,0,0,0,5.971,4.478,5.275,5.275,0,0,1,1.661.891l0.819,0.915a7.057,7.057,0,0,0-4.142-1.683,2.644,2.644,0,0,0-1.323.287c1.3,2.479,4.527,3.274,5.779,3.467a7.286,7.286,0,0,1,2.046.6l0.915,0.868A9.509,9.509,0,0,0,41.882,124a3.274,3.274,0,0,0-1.19.173c1.589,2.986,8.09,3.13,8.09,3.13l1.131,0.843a9.937,9.937,0,0,0-3.053-.583,2.335,2.335,0,0,0-1.931.606C46.058,129.732,48.68,130,50.466,130c0.472,0,.886-0.019,1.2-0.038s0.529-.038.594-0.038h0.014a10.332,10.332,0,0,1,1.373.7A12.555,12.555,0,0,0,51.4,130.4c-2.4,0-3.155.927-3.218,1.011l0.05,0.033a9.969,9.969,0,0,0,4.359,1,8.191,8.191,0,0,0,2.159-.257,11.288,11.288,0,0,1,1.429-.147c0.039,0,.077,0,0.112,0a5.936,5.936,0,0,1,1.59.554,14.686,14.686,0,0,0-1.631-.095,7.791,7.791,0,0,0-4.376,1.05q0.755,0.387,1.589.778a9.017,9.017,0,0,0,2.725.437,6.469,6.469,0,0,0,3.162-.725,9.249,9.249,0,0,1,1.252-.217,1.508,1.508,0,0,1,.153-0.007,5.645,5.645,0,0,1,1.7.416l-0.256,0c-3.326,0-4.8,1.058-5.308,1.545q0.93,0.354,1.935.7a10.379,10.379,0,0,0,1.206.071,7.181,7.181,0,0,0,3.748-.889,11.853,11.853,0,0,1,1.252-.434,2.371,2.371,0,0,1,.593-0.077,2.063,2.063,0,0,1,1.093.294c-3.609.449-4.661,1.46-4.963,1.946,0.372,0.1.75,0.209,1.135,0.31l0.439,0c5.29,0,5.9-1.438,6.494-1.657a3.749,3.749,0,0,1,1.16-.139c0.489,0,.911.043,0.911,0.043-3.535.808-4.342,2.31-4.51,2.774q0.447,0.085.9,0.168c4.423-.021,5.267-2.389,5.267-2.389a4.377,4.377,0,0,0,.53,2.456l0.409,0.53,0.441-1.5,0.44,1.5,0.41-.53a4.37,4.37,0,0,0,.529-2.456s0.853,2.389,5.33,2.389H81.71c0.263-.047.527-0.1,0.785-0.146-0.15-.435-0.923-1.975-4.518-2.8,0,0,.422-0.043.911-0.043a3.747,3.747,0,0,1,1.16.139c0.592,0.219,1.2,1.657,6.493,1.657,0.186,0,.377,0,0.574,0q0.517-.136,1.019-0.278c-0.276-.472-1.294-1.517-4.98-1.976a2.06,2.06,0,0,1,1.092-.294,2.371,2.371,0,0,1,.594.077,11.853,11.853,0,0,1,1.252.434,7.183,7.183,0,0,0,3.748.889,10.472,10.472,0,0,0,1.406-.1q0.916-.314,1.77-0.637c-0.469-.469-1.937-1.579-5.344-1.579l-0.256,0a5.653,5.653,0,0,1,1.7-.416,1.5,1.5,0,0,1,.153.007,9.28,9.28,0,0,1,1.252.217,6.468,6.468,0,0,0,3.162.725,9.2,9.2,0,0,0,3.185-.595q0.614-.291,1.182-0.583a7.615,7.615,0,0,0-4.428-1.087,14.685,14.685,0,0,0-1.631.095,5.938,5.938,0,0,1,1.589-.554c0.035,0,.073,0,0.112,0a11.283,11.283,0,0,1,1.429.147,8.191,8.191,0,0,0,2.159.257,9.955,9.955,0,0,0,4.414-1.028s-0.709-1.017-3.223-1.017a12.551,12.551,0,0,0-2.243.223,10.276,10.276,0,0,1,1.373-.7h0.014c0.064,0,.277.019,0.593,0.038s0.727,0.038,1.2.038c1.786,0,4.408-.271,5.538-1.834a2.336,2.336,0,0,0-1.931-.606,9.941,9.941,0,0,0-3.054.583l1.132-.843s6.5-.144,8.091-3.13a3.283,3.283,0,0,0-1.191-.173,9.509,9.509,0,0,0-4.371,1.281l0.914-.868a7.3,7.3,0,0,1,2.047-.6c1.252-.193,4.479-0.988,5.779-3.467a2.647,2.647,0,0,0-1.324-.287,7.058,7.058,0,0,0-4.142,1.683l0.819-.915a5.273,5.273,0,0,1,1.661-.891,9.188,9.188,0,0,0,5.971-4.478,2.559,2.559,0,0,0-.938-0.15,5.609,5.609,0,0,0-3.9,1.932l0.746-1.277a1.818,1.818,0,0,1,.8-0.481c0.65-.265,4.622-2.89,5.826-5.345a1.481,1.481,0,0,0-.449-0.054c-0.693,0-2.168.3-4.294,2.268,0,0,.385-0.914.506-1.083a5.852,5.852,0,0,1,1.541-1.131,8.24,8.24,0,0,0,4.382-5.057,6.391,6.391,0,0,0-4.574,2.986l0.432-1.277a2.4,2.4,0,0,1,.939-0.745c0.843-.507,3.348-1.445,3.95-6.044a8.393,8.393,0,0,0-3.853,3.3l0.168-1.2a14.753,14.753,0,0,1,1.469-1.734c0.843-.843,2.745-2.119,2.239-6.717a8.8,8.8,0,0,0-3.2,4.358l0.168-1.59a9.009,9.009,0,0,1,1.06-1.757,8.078,8.078,0,0,0,1.951-7.007,9.113,9.113,0,0,0-2.987,5.08V90.921a4.008,4.008,0,0,1,.651-1.227c0.361-.434,2.552-2.673,1.637-7.1a6.905,6.905,0,0,0-2.552,5.249l-0.241-2a3.4,3.4,0,0,1,.409-1.06c0.265-.361,2.287-2.143,1.011-6.935a6.644,6.644,0,0,0-2.142,5.177L115.78,81.29s0.264-.843.313-0.963a8.883,8.883,0,0,0,.361-6.237,4.915,4.915,0,0,0-1.493,5.225l-0.482-1.156a5.953,5.953,0,0,1,.1-1.468c0.145-.434,1.3-2.721-0.36-6.719a7.12,7.12,0,0,0-.963,5.418L112.7,74.236a14.723,14.723,0,0,1,.1-2.071A6.29,6.29,0,0,0,112,66.626a4.966,4.966,0,0,0-.988,2.6,23.9,23.9,0,0,0,.313,2.48,4.562,4.562,0,0,1-.53-1.132c-0.047-.361-0.313-1.854-0.36-2.769s0.553-2.986-2.24-5.827c0,0-1.132,3.323.289,5.706a15.354,15.354,0,0,1-1.035-1.588c-0.048-.217-0.433-1.879-0.53-2.866s-0.217-2.649-2.624-4.695c0,0-.674,2.985.264,4.334a6.315,6.315,0,0,1,.844,1.3h0a12.625,12.625,0,0,1-1.132-1.229c-0.17-.289-0.94-3.13-1.445-4.214A17.365,17.365,0,0,0,99.094,54.4a5.939,5.939,0,0,0,.458,3.154,26.07,26.07,0,0,0,1.685,2.865s-1.2-1.179-1.492-1.517S98.01,55.5,97.312,54.347a10.718,10.718,0,0,0-3.251-2.721,4.486,4.486,0,0,1-.963-0.77,3.282,3.282,0,0,0,.481,2.889A15.943,15.943,0,0,0,95.7,56.707a6.987,6.987,0,0,1-1.325-.843,7.055,7.055,0,0,1-1.276-2.07,5.362,5.362,0,0,0-1.108-1.686l-0.12.289,0.578,1.035L91.7,52.855l-0.169.217,0.626,1.155-0.336.049L91,53.216H90.691l0.409,1.2-0.337-.048-0.7-1.228-0.337-.1,0.337,1.084-0.41-.121-0.6-1.036-0.481-.1,0.313,0.915L88.5,53.7l-0.6-1.011-0.505-.072,0.192,0.747L87.3,53.288,86.5,52.3l-0.529-.1L86.4,53.144,86,53.047l-0.819-1.179H84.744l0.385,0.963-0.458-.048L83.9,51.554l-0.747-.1,0.434,0.915-0.313-.024L82.48,51.217l-0.505-.024,0.385,0.963-0.385-.048-0.892-1.06-0.578.072,0.361,0.747-0.385-.048-0.843-.987-0.578.024L79.47,51.7l-0.386-.048L78.218,50.64l-0.6.047,0.506,0.939-0.458-.048-1.011-1.011"/>
  <path class="cls-3" d="M124.019,137.5a5.15,5.15,0,0,1-4.013,4.012,4.242,4.242,0,0,1-.709.06,3.116,3.116,0,0,1-3.143-2.05,3.247,3.247,0,0,1,.365-2.2,2.422,2.422,0,0,0-.39.647l-0.154-.016c-0.159-1.006-.693-3.932-1.747-5.3a5.9,5.9,0,0,1,3.254-1,5.45,5.45,0,0,1,1.9.341,10.5,10.5,0,0,1,3.855-1.569,0.471,0.471,0,0,1,.5.24A18.473,18.473,0,0,1,124.019,137.5Zm-90.149.471a2.359,2.359,0,0,0-.39-0.647,3.25,3.25,0,0,1,.365,2.2,3.116,3.116,0,0,1-3.144,2.05,4.237,4.237,0,0,1-.709-0.06,5.152,5.152,0,0,1-4.013-4.012,18.457,18.457,0,0,1,.289-6.838,0.47,0.47,0,0,1,.5-0.24,10.5,10.5,0,0,1,3.856,1.569,5.453,5.453,0,0,1,1.9-.341,5.9,5.9,0,0,1,3.254,1c-1.054,1.37-1.589,4.3-1.747,5.3Z"/>
  <path class="cls-4" d="M117.893,123.365a15.376,15.376,0,0,0-7.742,2.152c-4.719,2.7-7.32,5.779-16.663,9.728a47.531,47.531,0,0,1-16.757,3.949l-3.226-.049H73.492a47.62,47.62,0,0,1-16.98-3.9c-9.343-3.949-11.942-7.031-16.661-9.728a15.392,15.392,0,0,0-7.743-2.152,16.449,16.449,0,0,0-4.97.8c-3.66,1.155-5.972,5.393-5.876,6.067s1.927,1.83,2.505,3.083,2.215,4.815,2.215,4.815a6.38,6.38,0,0,1,6.068-5.779c0.176-.013.349-0.02,0.52-0.02,2.27,0,4.181,1.172,6.7,3.2,5.81,4.666,15.953,13.1,33.594,13.1l0.6,0h3.076l0.6,0c17.643,0,27.784-8.435,33.594-13.1,2.523-2.027,4.435-3.2,6.705-3.2,0.171,0,.344.007,0.52,0.02a6.379,6.379,0,0,1,6.066,5.779s1.638-3.563,2.216-4.815,2.407-2.409,2.5-3.083-2.215-4.912-5.876-6.067a16.437,16.437,0,0,0-4.97-.8"/>
  <path class="cls-1" d="M128.165,131.937a6.661,6.661,0,0,0-1.372,1.643c-0.538,1.165-1.993,4.332-2.192,4.764a5.865,5.865,0,0,1-1.021,2.223v0a5.526,5.526,0,0,1-3.471,2.188,5.048,5.048,0,0,1-.833.071h0a3.7,3.7,0,0,1-3.716-2.518,3.17,3.17,0,0,1-.039-1.289,0.688,0.688,0,0,1-.151-0.333A15.612,15.612,0,0,0,113.96,134a23.063,23.063,0,0,0-2.847,2.022l-0.338.272c-6.047,4.864-16.122,12.964-33.633,12.965l-0.61,0h-3.07l-0.61,0h0c-17.5,0-27.578-8.1-33.624-12.964l-0.339-.273A23.007,23.007,0,0,0,36.04,134a15.591,15.591,0,0,0-1.407,4.693,0.684,0.684,0,0,1-.152.333,3.166,3.166,0,0,1-.038,1.289,3.7,3.7,0,0,1-3.718,2.518,5.044,5.044,0,0,1-.833-0.071,5.53,5.53,0,0,1-3.472-2.188v0a5.851,5.851,0,0,1-1.021-2.222c-0.2-.433-1.654-3.6-2.192-4.764a6.621,6.621,0,0,0-1.372-1.643,3.383,3.383,0,0,1-1.182-1.61c-0.159-1.113,2.476-5.534,6.3-6.741a17.127,17.127,0,0,1,5.182-.84,15.93,15.93,0,0,1,8.022,2.241c1.566,0.9,2.894,1.826,4.3,2.812a58.905,58.905,0,0,0,12.3,6.883A47.317,47.317,0,0,0,73.5,138.534h0.013l3.226,0.048a47.464,47.464,0,0,0,16.51-3.9,58.848,58.848,0,0,0,12.295-6.883c1.407-.986,2.736-1.917,4.3-2.812a15.931,15.931,0,0,1,8.022-2.241,17.127,17.127,0,0,1,5.181.84c3.821,1.207,6.458,5.628,6.3,6.741A3.382,3.382,0,0,1,128.165,131.937Zm-11.415,8.074a2.508,2.508,0,0,0,2.54,1.584,3.769,3.769,0,0,0,.615-0.051,4.549,4.549,0,0,0,3.492-3.45,6.084,6.084,0,0,0-2.051-3.841c-0.053,1.053-.124,2.794-0.083,3.63l0.084,1.67-1.146-1.218a2.423,2.423,0,0,0-1.6-.681,1.994,1.994,0,0,0-.346.031,2.046,2.046,0,0,0-1.216.619A2.616,2.616,0,0,0,116.75,140.011Zm-0.4-2.765a3.355,3.355,0,0,1,1.687-.774,3.3,3.3,0,0,1,.558-0.048,3.37,3.37,0,0,1,1.427.325c0.018-1.106.084-2.442,0.118-3.073a5.523,5.523,0,0,0-1.193-.549,7.617,7.617,0,0,0-1.045-.154c-0.156-.012-0.311-0.018-0.464-0.018a5.911,5.911,0,0,0-1.771.274,5.144,5.144,0,0,0-.58.258A14.1,14.1,0,0,1,116.352,137.246Zm-81.441-3.759a5.194,5.194,0,0,0-.583-0.259,5.918,5.918,0,0,0-1.768-.273q-0.229,0-.464.018a7.582,7.582,0,0,0-1.04.152,5.468,5.468,0,0,0-1.2.551c0.034,0.631.1,1.967,0.119,3.073a3.369,3.369,0,0,1,1.427-.326,3.3,3.3,0,0,1,.558.049,3.35,3.35,0,0,1,1.687.774A14.09,14.09,0,0,1,34.911,133.487Zm-4.817,8.057a3.765,3.765,0,0,0,.615.051,2.506,2.506,0,0,0,2.539-1.584,2.614,2.614,0,0,0-.282-1.706,2.052,2.052,0,0,0-1.217-.62,1.983,1.983,0,0,0-.346-0.03,2.414,2.414,0,0,0-1.607.683l-1.139,1.179,0.079-1.634c0.042-.839-0.031-2.587-0.083-3.638a6.022,6.022,0,0,0-2.051,3.848A4.549,4.549,0,0,0,30.094,141.544Zm92.584-16.785a15.876,15.876,0,0,0-4.8-.778,14.743,14.743,0,0,0-7.424,2.075c-1.517.865-2.823,1.781-4.2,2.75a59.868,59.868,0,0,1-12.523,7.009,47.718,47.718,0,0,1-17,4l-3.23-.048H73.463a47.823,47.823,0,0,1-17.191-3.949,59.793,59.793,0,0,1-12.523-7.009c-1.383-.969-2.689-1.885-4.2-2.75a14.745,14.745,0,0,0-7.425-2.075,15.876,15.876,0,0,0-4.8.778,9.852,9.852,0,0,0-5.444,5.412,6.16,6.16,0,0,0,.816.886,7.445,7.445,0,0,1,1.631,2.007c0.322,0.7.971,2.11,1.485,3.227a6.667,6.667,0,0,1,4.964-4.362,5.981,5.981,0,0,1,1.723-.253,6.408,6.408,0,0,1,1.8.265,14.717,14.717,0,0,1,5.356,3.117L40,135.33c5.92,4.761,15.783,12.693,32.865,12.693l0.594,0h3.082l0.6,0c17.09,0,26.948-7.933,32.867-12.694l0.339-.272a14.836,14.836,0,0,1,5.317-3.1,6.41,6.41,0,0,1,1.842-.277,5.977,5.977,0,0,1,1.723.253,6.668,6.668,0,0,1,4.966,4.362c0.512-1.117,1.163-2.53,1.484-3.227a7.45,7.45,0,0,1,1.631-2.007,6,6,0,0,0,.815-0.893A9.862,9.862,0,0,0,122.678,124.759Zm-13.161,9.5a1.451,1.451,0,0,1-.347-0.043,18.933,18.933,0,0,1-1.964-.657,0.355,0.355,0,0,0-.131-0.028,0.3,0.3,0,0,0-.171.057l-0.287.224,0,0.066c0.338,0.429.75,0.939,0.977,1.213a0.469,0.469,0,0,0,.328.213,0.4,0.4,0,0,0,.157-0.038,3.479,3.479,0,0,0,.437-0.239l0.171,0.248c-0.15.117-.511,0.366-1.048,0.788s-0.85.7-1,.82l-0.18-.228c0.119-.129.222-0.234,0.291-0.322,0.13-.16.107-0.293-0.065-0.54-0.149-.219-0.9-1.191-1.238-1.621-0.551-.7-0.968-1.232-1.207-1.508a0.429,0.429,0,0,0-.312-0.192,0.369,0.369,0,0,0-.156.039,3.957,3.957,0,0,0-.416.223l-0.166-.241c0.173-.135.705-0.518,0.962-0.721,0.538-.422.913-0.74,1.293-1.038a1.929,1.929,0,0,1,1.172-.471,1.278,1.278,0,0,1,1.021.52,1.5,1.5,0,0,1,.036,1.756l0.037,0.063a13.493,13.493,0,0,0,2.372.661c0.125,0.013.222,0.022,0.307,0.022a1.179,1.179,0,0,0,.674-0.248l0.135,0.276a4.483,4.483,0,0,1-1.453.922A1.087,1.087,0,0,1,109.517,134.257Zm-2.6-2.558a1.3,1.3,0,0,0-1.006-.57,1.238,1.238,0,0,0-.764.293l-0.186.205,0.034,0.146c0.131,0.2.661,0.871,1.3,1.688l0.082,0.016a2.8,2.8,0,0,0,.767-0.719A0.961,0.961,0,0,0,106.916,131.7Zm-2.185,5.315a2.962,2.962,0,0,1-1.412,2.287,3.072,3.072,0,0,1-1.664.539,2.475,2.475,0,0,1-.6-0.074,3.029,3.029,0,0,1-1.8-1.37,2.665,2.665,0,0,1-.422-2.043,3.088,3.088,0,0,1,1.425-2.048,3.017,3.017,0,0,1,1.629-.516,2.758,2.758,0,0,1,2.306,1.36A3.012,3.012,0,0,1,104.731,137.014Zm-1.432-.921a3.143,3.143,0,0,0-2.045-1.557,1.884,1.884,0,0,0-.2-0.011,1.451,1.451,0,0,0-.811.245,1.316,1.316,0,0,0-.508.574,2.4,2.4,0,0,0,.452,2.143,3.253,3.253,0,0,0,2.141,1.571c0.044,0,.088,0,0.132,0a1.586,1.586,0,0,0,.888-0.268,1.214,1.214,0,0,0,.51-0.673A2.8,2.8,0,0,0,103.3,136.093Zm-4.336,5.575c-0.3.139-.761,0.329-1.3,0.587-0.7.331-1.116,0.558-1.372,0.679l-0.124-.264a4.691,4.691,0,0,0,.512-0.344c0.208-.158.211-0.3,0.052-0.679-0.329-.781-1.1-2.383-1.717-3.691l-0.072-.046c-0.152.061-.663,0.3-0.881,0.416a0.474,0.474,0,0,0-.258.455,5.423,5.423,0,0,0,.037.868l-0.323.063c-0.093-.369-0.343-1.088-0.489-1.461l0.059-.088a2.213,2.213,0,0,0,.779-0.228l2.956-1.4a2.953,2.953,0,0,0,.838-0.528l0.093,0.027a9.216,9.216,0,0,0,.476,1.517l-0.293.149a3.282,3.282,0,0,0-.5-0.659,0.386,0.386,0,0,0-.276-0.138,0.475,0.475,0,0,0-.157.031c-0.288.115-.819,0.378-0.964,0.456v0.081c0.556,1.177,1.56,3.321,1.811,3.787a0.447,0.447,0,0,0,.372.3l0.049,0a3.208,3.208,0,0,0,.6-0.162Zm-4.887,1.652a0.638,0.638,0,0,0,.4-0.467,6.364,6.364,0,0,0,.2-1.2l0.34,0.007a7.627,7.627,0,0,1,.024,1.7c0,0.078-.081.154-0.416,0.271-0.645.225-1.77,0.569-2.371,0.78-0.576.2-1.005,0.38-1.273,0.474l-0.1-.284a2.927,2.927,0,0,0,.5-0.261,0.34,0.34,0,0,0,.117-0.436c-0.046-.216-0.353-1.121-0.687-2.076s-0.5-1.447-.623-1.73a0.36,0.36,0,0,0-.341-0.317l-0.059,0a4.184,4.184,0,0,0-.482.082l-0.07-.283c0.318-.111.576-0.173,1.238-0.4,0.6-.21.919-0.35,1.194-0.447l0.1,0.275a4,4,0,0,0-.394.224,0.32,0.32,0,0,0-.106.442c0.061,0.2.269,0.823,0.566,1.674,0.316,0.932.663,1.872,0.777,2.14a0.289,0.289,0,0,0,.254.2A7.487,7.487,0,0,0,94.076,143.32Zm-5.194-3.22c-0.219.109-.262,0.267-0.191,0.708,0.136,0.808.329,1.856,0.389,2.476a2.1,2.1,0,0,1-1.861,2.607,3.816,3.816,0,0,1-.747.081,1.732,1.732,0,0,1-1.8-1.276c-0.207-.609-0.525-2.273-0.707-3.128a0.414,0.414,0,0,0-.367-0.39,1.507,1.507,0,0,0-.179-0.009c-0.1,0-.207,0-0.3.014l-0.049-.289c0.277-.055.8-0.134,1.3-0.235,0.527-.107.968-0.224,1.281-0.286l0.057,0.286c-0.155.059-.293,0.114-0.394,0.163a0.4,0.4,0,0,0-.2.533c0.126,0.717.336,1.66,0.432,2.133a5.436,5.436,0,0,0,.321,1.032,1.222,1.222,0,0,0,1.2.745,2.277,2.277,0,0,0,.453-0.049,1.336,1.336,0,0,0,1.109-1.776c-0.091-.678-0.34-1.956-0.5-2.574-0.092-.363-0.2-0.5-0.491-0.5h-0.02c-0.039,0-.083,0-0.13,0-0.113,0-.246.007-0.387,0.016l-0.049-.288c0.277-.057.657-0.106,1.1-0.2,0.58-.117.842-0.2,1.03-0.235l0.057,0.285A3.384,3.384,0,0,0,88.882,140.1Zm-9.533,2.593a3.313,3.313,0,0,0-.18-0.808,0.364,0.364,0,0,0-.349-0.28c-0.094,0-.214-0.006-0.34-0.006-0.29,0-.612.009-0.726,0.016l-0.035.074c0.012,1.3.026,3.671,0.058,4.2a0.421,0.421,0,0,0,.259.443,3.011,3.011,0,0,0,.612.1l-0.025.291H78.531c-0.14,0-.306,0-0.492-0.007s-0.407-.008-0.64-0.008l-0.207,0c-0.774.007-1.247,0.039-1.53,0.042l0-.292a4.7,4.7,0,0,0,.61-0.1c0.254-.057.317-0.185,0.331-0.6,0.029-.847,0-2.623-0.011-4.071l-0.046-.073c-0.053,0-.147,0-0.259,0-0.236,0-.549.006-0.716,0.014a0.472,0.472,0,0,0-.425.3,5.469,5.469,0,0,0-.33.805l-0.319-.079c0.07-.375.144-1.131,0.168-1.532l0.091-.055a2.181,2.181,0,0,0,.77.12h0.033l3.269-.031a2.951,2.951,0,0,0,.983-0.127L79.88,141.1a9.269,9.269,0,0,0-.2,1.578Zm-5.827,4.079H73.441c-0.764-.015-1.565-0.067-2.53-0.087-0.134,0-.273,0-0.413,0l-0.42,0H69.7c-0.124,0-.242,0-0.352,0l0.006-.3a4.435,4.435,0,0,0,.676-0.087,0.386,0.386,0,0,0,.283-0.459c0.035-.4.05-1.156,0.07-2.185,0.015-.728.02-1.474,0.008-1.747s-0.066-.358-0.248-0.416a2.943,2.943,0,0,0-.481-0.091l0.024-.291c0.318,0.006.855,0.044,1.32,0.053l1.82,0.037c0.115,0,.248,0,0.383,0,0.271,0,.555-0.006.737-0.027l0.036,0.038a10.521,10.521,0,0,0-.172,1.326l-0.329.02a2.106,2.106,0,0,0-.133-0.64,0.418,0.418,0,0,0-.386-0.281c-0.162-.017-0.737-0.031-1.074-0.031-0.116,0-.2,0-0.237,0l-0.1.162c-0.02.564-.034,1.275-0.036,1.821l0.053,0.074c0.193,0,.563.016,0.873,0.016,0.142,0,.271,0,0.365-0.01a0.318,0.318,0,0,0,.325-0.294,2.807,2.807,0,0,0,.088-0.335l0.346,0.025c-0.022.209-.065,0.572-0.072,0.873-0.005.283,0,.646,0,0.884l-0.337,0c-0.059-.257-0.049-0.256-0.084-0.375a0.333,0.333,0,0,0-.3-0.261c-0.2-.022-0.919-0.037-1.211-0.042l-0.056.071c-0.019.51-.025,1.238-0.033,1.675a0.314,0.314,0,0,0,.194.323,9.108,9.108,0,0,0,1.2.087,0.744,0.744,0,0,0,.725-0.267,3.731,3.731,0,0,0,.49-0.82l0.307,0.125a8.059,8.059,0,0,1-.426,1.294C73.91,146.72,73.859,146.772,73.522,146.772Zm-8.189-.751-0.127.28a4.5,4.5,0,0,1-1.634-.538,1.327,1.327,0,0,1-.356-0.459,19.018,19.018,0,0,1-.739-1.935,0.3,0.3,0,0,0-.214-0.215l-0.356-.078-0.047.045c-0.118.534-.25,1.176-0.317,1.525a0.367,0.367,0,0,0,.173.485,3.52,3.52,0,0,0,.463.187l-0.083.289c-0.187-.041-0.608-0.161-1.275-0.309-0.685-.15-1.082-0.21-1.269-0.25l0.063-.285c0.154,0.009.286,0.021,0.392,0.021h0.041c0.206,0,.294-0.1.376-0.393,0.074-.253.347-1.452,0.465-1.985,0.192-.872.336-1.53,0.4-1.89a0.355,0.355,0,0,0-.179-0.459,4,4,0,0,0-.436-0.18l0.08-.28c0.214,0.047.848,0.214,1.169,0.284,0.667,0.148,1.151.235,1.622,0.339a1.447,1.447,0,0,1,1.355,1.724,1.5,1.5,0,0,1-1.333,1.143l-0.024.069a13.284,13.284,0,0,0,1,2.252A1.165,1.165,0,0,0,65.333,146.021Zm-1.606-4.055a1.166,1.166,0,0,0-.91-1.543l-0.276-.014-0.092.119c-0.069.228-.252,1.064-0.475,2.077l0.039,0.075a4.034,4.034,0,0,0,.892.15,0.629,0.629,0,0,0,.15-0.015A0.959,0.959,0,0,0,63.727,141.966Zm-5.618,1.565a2.826,2.826,0,0,1-1.527.44,3.234,3.234,0,0,1-1.152-.218,2.833,2.833,0,0,1-1.718-1.547,3.033,3.033,0,0,1,.037-2.258,2.978,2.978,0,0,1,.667-1.053l-0.065-.058a3.285,3.285,0,0,0,.222-0.8,0.363,0.363,0,0,0-.176-0.411c-0.265-.159-0.795-0.425-0.944-0.493l-0.066.048c-0.6,1.153-1.708,3.247-1.928,3.728a0.421,0.421,0,0,0,.02.514,3.137,3.137,0,0,0,.489.38l-0.159.245c-0.291-.151-0.721-0.408-1.254-0.686-0.686-.358-1.118-0.554-1.368-0.684l0.134-.259a4.741,4.741,0,0,0,.583.2,0.523,0.523,0,0,0,.142.023,0.557,0.557,0,0,0,.431-0.392c0.425-.734,1.239-2.311,1.909-3.594l-0.006-.086c-0.141-.085-0.642-0.345-0.864-0.451a0.469,0.469,0,0,0-.2-0.05,0.572,0.572,0,0,0-.317.117,5.527,5.527,0,0,0-.67.555l-0.244-.22c0.169-.214.434-0.6,0.648-0.925l-0.059-.021a0.443,0.443,0,0,0-.148-0.029,0.694,0.694,0,0,0-.491.387c-0.484.663-1.1,1.533-1.5,2.009a2.258,2.258,0,0,1-1.747,1,2.557,2.557,0,0,1-1.418-.509c-1.3-.887-1.352-1.834-0.925-2.656,0.291-.573,1.259-1.964,1.743-2.692a0.414,0.414,0,0,0,.023-0.535,2.741,2.741,0,0,0-.34-0.342l0.023-.062a11.294,11.294,0,0,0-.909.9l-0.262-.2a3.265,3.265,0,0,0,.371-0.742,0.364,0.364,0,0,0-.1-0.437c-0.231-.207-0.7-0.568-0.833-0.663l-0.074.034c-0.812,1.018-2.294,2.864-2.6,3.294a0.422,0.422,0,0,0-.079.508,3.16,3.16,0,0,0,.409.466l-0.2.21c-0.257-.2-0.631-0.537-1.1-0.912-0.606-.482-0.993-0.756-1.214-0.932l0.182-.228a4.666,4.666,0,0,0,.534.309,0.438,0.438,0,0,0,.194.055,0.661,0.661,0,0,0,.438-0.308c0.556-.639,1.656-2.033,2.558-3.166l0.01-.085c-0.122-.109-0.564-0.461-0.762-0.607a0.44,0.44,0,0,0-.264-0.094,0.654,0.654,0,0,0-.258.063,5.38,5.38,0,0,0-.764.416l-0.2-.263c0.29-.246.825-0.787,1.1-1.083l0.1,0.014a2.2,2.2,0,0,0,.547.6l2.556,2.038a2.949,2.949,0,0,0,.843.52l0.017,0.1L46.075,132c0.239,0.166.639,0.468,1.042,0.742,0.444,0.3.836,0.536,1.1,0.715l-0.165.241c-0.151-.07-0.286-0.129-0.392-0.169a0.4,0.4,0,0,0-.15-0.033,0.488,0.488,0,0,0-.37.264c-0.425.592-.953,1.4-1.225,1.8a5.614,5.614,0,0,0-.514.949,1.334,1.334,0,0,0,.659,1.671,1.5,1.5,0,0,0,.833.3,1.589,1.589,0,0,0,1.213-.751c0.421-.539,1.161-1.61,1.49-2.158,0.2-.326.219-0.5,0-0.715a3.987,3.987,0,0,0-.371-0.362l0.172-.236c0.233,0.159.534,0.4,0.911,0.653,0.269,0.183.461,0.3,0.608,0.394l0.034-.055,0.106-.006a2.225,2.225,0,0,0,.651.484l2.9,1.514a2.991,2.991,0,0,0,.926.351l0.035,0.09a6.919,6.919,0,0,0-.607.8l0.182-.092a2.786,2.786,0,0,1,1.283-.3,3.383,3.383,0,0,1,1.21.229A2.7,2.7,0,0,1,59.293,142,3.017,3.017,0,0,1,58.109,143.531Zm-0.07-4.269a1.462,1.462,0,0,0-.785-0.672,1.428,1.428,0,0,0-.508-0.1,1.128,1.128,0,0,0-.256.028,2.4,2.4,0,0,0-1.456,1.637,3.249,3.249,0,0,0,.006,2.655,1.594,1.594,0,0,0,.817.664,1.25,1.25,0,0,0,.448.082,1.1,1.1,0,0,0,.4-0.07,2.8,2.8,0,0,0,1.3-1.657A3.135,3.135,0,0,0,58.039,139.262Z"/>
  <path id="Shape_251_copy" data-name="Shape 251 copy" class="cls-5" d="M75,52.683A41.317,41.317,0,1,0,116.318,94,41.317,41.317,0,0,0,75,52.683"/>
  <path id="Shape_251_copy_2" data-name="Shape 251 copy 2" class="cls-6" d="M46.571,86.156A29.586,29.586,0,0,1,56.645,70.792a29.435,29.435,0,0,1,36.709,0,29.586,29.586,0,0,1,10.074,15.364H98.607v15.292h4.821a29.591,29.591,0,0,1-10.074,15.364,29.433,29.433,0,0,1-36.709,0,29.591,29.591,0,0,1-10.074-15.364h4.822V86.156H46.571m28.38-24.913a32.56,32.56,0,0,0-32.13,27.3H48.37v10.5H42.822a32.556,32.556,0,0,0,64.259,0h-5.548v-10.5h5.548a32.559,32.559,0,0,0-32.13-27.3"/>
  <path id="Shape_251_copy_3" data-name="Shape 251 copy 3" class="cls-7" d="M75,64.369a29.111,29.111,0,0,0-18.354,6.423A29.586,29.586,0,0,0,46.571,86.156h4.822v15.292H46.571a29.591,29.591,0,0,0,10.074,15.364,29.433,29.433,0,0,0,36.709,0,29.591,29.591,0,0,0,10.074-15.364H98.607V86.156h4.821A29.586,29.586,0,0,0,93.354,70.792,29.111,29.111,0,0,0,75,64.369"/>
  <path class="cls-1" d="M75,135.81A41.81,41.81,0,1,1,116.81,94,41.858,41.858,0,0,1,75,135.81Zm0-82.635A40.825,40.825,0,1,0,115.825,94,40.871,40.871,0,0,0,75,53.175Zm38.943,41.32a2.039,2.039,0,0,1-1,1.687,2.982,2.982,0,0,1-1.647.482,2.263,2.263,0,0,1-.924-0.171,0.707,0.707,0,0,1-.341-0.362,3.256,3.256,0,0,1-.181-0.752l0.271-.152a1.86,1.86,0,0,0,.733.824,1.711,1.711,0,0,0,.864.191,1.074,1.074,0,0,0,1.054-1.195,1.39,1.39,0,0,0-1.5-1.426,1.461,1.461,0,0,0-.331.03l0.2-.512c0.884-.18,1.236-0.512,1.236-1.054a0.963,0.963,0,0,0-1-1.025,1.7,1.7,0,0,0-1.145.533l-0.16-.271a2.665,2.665,0,0,1,1.878-1.1,1.4,1.4,0,0,1,1.5,1.405,1.606,1.606,0,0,1-.924,1.245l-0.011.04A1.713,1.713,0,0,1,113.943,94.494Zm-3.97,18.46c-0.425.709-.9,1.433-1.437,2.329-0.288.482-.591,1.047-0.842,1.469l-0.28-.167a4.9,4.9,0,0,0,.281-0.681,0.418,0.418,0,0,0-.28-0.511c-0.357-.247-1.059-0.666-2.014-1.237-0.676-.4-1.374-0.809-1.639-0.943a0.7,0.7,0,0,0-.3-0.1,0.326,0.326,0,0,0-.224.109,3.3,3.3,0,0,0-.344.4l-0.26-.178c0.177-.3.5-0.78,0.758-1.211l1.009-1.691a11.234,11.234,0,0,0,.578-1.065l0.055-.014a11.133,11.133,0,0,0,1.153.873l-0.156.319a2.31,2.31,0,0,0-.673-0.218,0.667,0.667,0,0,0-.086-0.006,0.452,0.452,0,0,0-.385.219c-0.137.191-.673,1.089-0.727,1.217l0.1,0.183c0.519,0.322,1.178.715,1.691,1.01l0.1-.01c0.158-.263.529-0.866,0.67-1.161a0.342,0.342,0,0,0-.1-0.462,3.174,3.174,0,0,0-.267-0.262l0.209-.312c0.183,0.133.5,0.369,0.781,0.536,0.262,0.156.605,0.35,0.83,0.472l-0.178.318c-0.273-.082-0.267-0.09-0.4-0.123a0.641,0.641,0,0,0-.115-0.012,0.345,0.345,0,0,0-.293.159c-0.128.176-.526,0.843-0.688,1.114l0.038,0.091c0.467,0.291,1.149.687,1.555,0.929a0.428,0.428,0,0,0,.214.062,0.262,0.262,0,0,0,.192-0.072,9.675,9.675,0,0,0,.726-1.08,0.805,0.805,0,0,0,.137-0.824,4,4,0,0,0-.507-0.9l0.282-.222a8.667,8.667,0,0,1,.987,1.094C110.18,112.492,110.2,112.573,109.973,112.954Zm-3.631-16.371a0.907,0.907,0,0,1-.4-0.171l-0.01-.171c0.532-1.074,2.029-3.885,2.36-4.739l-0.031-.071c-0.185,0-.576-0.009-1.007-0.009-0.524,0-1.106.007-1.443,0.029a1,1,0,0,0-.762.763l-0.311-.121a14.225,14.225,0,0,0,.44-1.828,3.759,3.759,0,0,0,.814.071h2.068c0.383,0,.834,0,1.085-0.021l0.06,0.151c-0.361,1.135-2.48,5.252-2.791,6.065ZM101.9,98.676h5.613l-0.07.428a32.925,32.925,0,0,1-64.988,0l-0.07-.428H48V88.917H42.388l0.07-.428A32.924,32.924,0,0,1,59.84,64.549c-0.15-.016-0.3-0.033-0.459-0.044Q59.3,64.5,59.208,64.5a2.02,2.02,0,0,0-.668.1,4,4,0,0,1-1.3.255,2.6,2.6,0,0,1-.318-0.019,3.009,3.009,0,0,1-2.291-1.691,3.2,3.2,0,0,1-.4-1.879,3.379,3.379,0,0,1,1.837-2.457,3.288,3.288,0,0,1,1.557-.419A2.928,2.928,0,0,1,60.2,60.027a3.16,3.16,0,0,1,.361,2.273,3.228,3.228,0,0,1-.729,1.343,11.134,11.134,0,0,1,1.253-.12A8.724,8.724,0,0,0,62.3,63.4q0.494-.205,1-0.394a2.434,2.434,0,0,0,.638-0.582L64.144,62.7a32.926,32.926,0,0,1,43.3,25.789l0.07,0.428H101.9v9.759ZM59.162,60.96a3.056,3.056,0,0,0-2.353-1.851,1.743,1.743,0,0,0-.832.22c-1.005.539-.913,1.729-0.281,2.906A3.046,3.046,0,0,0,58.133,64.1a1.971,1.971,0,0,0,.94-0.248C59.879,63.418,59.826,62.2,59.162,60.96Zm47.483,27.218A32.035,32.035,0,0,0,74.952,61.612a32.411,32.411,0,0,0-11.387,2.052,3.422,3.422,0,0,1-.921.749,2.7,2.7,0,0,1-1.257.277l-0.229-.011a32,32,0,0,0-17.9,23.5H48.74V99.414H43.259a32.188,32.188,0,0,0,63.386,0h-5.481V88.178h5.481Zm-7.423,12.654h5a30.055,30.055,0,0,1-58.44,0h5V86.771h-5a30.056,30.056,0,0,1,58.44,0h-5v14.061Zm3.392-15.292A28.991,28.991,0,0,0,92.97,71.272a28.818,28.818,0,0,0-35.94,0A28.993,28.993,0,0,0,47.386,85.54h4.623v16.524H47.386a28.99,28.99,0,0,0,9.644,14.267,28.819,28.819,0,0,0,35.94,0,28.988,28.988,0,0,0,9.644-14.267H97.992V85.54h4.622ZM101.4,64.513a0.674,0.674,0,0,0-.224-0.046,0.622,0.622,0,0,0-.444.261c-0.547.625-1.408,1.746-2.286,2.89-0.265.35-.6,0.807-0.8,1.085a6.629,6.629,0,0,0-.711-0.526c0.024-.96-0.035-4.807-0.054-5.824l-0.04-.03c-0.651.828-1.872,2.458-2.119,2.834a0.528,0.528,0,0,0-.025.751,4.6,4.6,0,0,0,.4.428l-0.21.245c-0.251-.19-0.585-0.481-0.97-0.771-0.431-.326-0.793-0.564-1.012-0.73l0.194-.257a2.8,2.8,0,0,0,.5.247,0.478,0.478,0,0,0,.159.03,0.63,0.63,0,0,0,.451-0.266c0.358-.375,1.452-1.772,2.449-3.072a0.628,0.628,0,0,0,.088-0.655,1.95,1.95,0,0,0-.44-0.541l0.2-.251c0.256,0.183.617,0.5,1.08,0.853,0.212,0.161.421,0.307,0.521,0.37a1.917,1.917,0,0,0-.034.648c0.025,1.351.1,3.938,0.16,4.852l0.029,0.01c0.753-1,1.639-2.133,1.987-2.69a0.5,0.5,0,0,0-.008-0.69,4.277,4.277,0,0,0-.429-0.459l0.195-.242c0.2,0.148.54,0.444,1.034,0.818,0.384,0.29.769,0.546,0.91,0.652l-0.187.249A3.721,3.721,0,0,0,101.4,64.513Zm-8.89-.867a3.032,3.032,0,0,1-1.417.347,3.449,3.449,0,0,1-1.48-.345,3.07,3.07,0,0,1-1.721-1.8,3.238,3.238,0,0,1,.223-2.41A2.846,2.846,0,0,1,89.744,57.9a2.937,2.937,0,0,1,1.13-.217,3.625,3.625,0,0,1,1.554.361,2.9,2.9,0,0,1,1.481,4.063A3.215,3.215,0,0,1,92.514,63.647Zm0.271-4.569A1.59,1.59,0,0,0,92,58.291a1.515,1.515,0,0,0-.642-0.153,1.149,1.149,0,0,0-.172.013,2.561,2.561,0,0,0-1.7,1.622,3.469,3.469,0,0,0-.209,2.838,1.725,1.725,0,0,0,.825.781,1.371,1.371,0,0,0,.582.131A1.152,1.152,0,0,0,91,63.479a2.987,2.987,0,0,0,1.531-1.658A3.345,3.345,0,0,0,92.785,59.077Zm-5.637,2.834L87,62.2a4.857,4.857,0,0,1-1.741-.644,1.427,1.427,0,0,1-.366-0.508,20.345,20.345,0,0,1-.723-2.1,0.325,0.325,0,0,0-.222-0.239l-0.381-.1-0.053.047c-0.147.566-.314,1.248-0.4,1.618a0.4,0.4,0,0,0,.167.527,4.182,4.182,0,0,0,.492.218l-0.1.306c-0.2-.052-0.649-0.2-1.362-0.385-0.732-.191-1.158-0.27-1.358-0.323l0.078-.3c0.188,0.019.345,0.04,0.466,0.041h0.022a0.421,0.421,0,0,0,.4-0.405c0.09-.268.431-1.54,0.578-2.106,0.24-.924.422-1.622,0.5-2a0.38,0.38,0,0,0-.176-0.5,4.139,4.139,0,0,0-.463-0.211l0.1-.3c0.228,0.06.906,0.266,1.248,0.355,0.713,0.185,1.232.3,1.736,0.431a1.559,1.559,0,0,1,1.394,1.9,1.609,1.609,0,0,1-1.482,1.166l-0.029.073a14.239,14.239,0,0,0,.986,2.453A1.259,1.259,0,0,0,87.148,61.911ZM85.573,57.5a1.251,1.251,0,0,0-.921-1.69l-0.3-.027-0.1.123c-0.083.241-.313,1.128-0.594,2.2L83.7,58.193a4.079,4.079,0,0,0,1,.2,0.6,0.6,0,0,0,.116-0.01A1.028,1.028,0,0,0,85.573,57.5ZM79.4,59.7a3.7,3.7,0,0,1-2.2.614c-0.155,0-.313-0.006-0.475-0.017-0.589-.04-1.39-0.125-2.292-0.2l-0.233-.016c-0.263.026-.69,0.05-1.282,0.118-0.7.081-1.111,0.148-1.423,0.194l-0.036-.32a2.2,2.2,0,0,0,.485-0.173,0.177,0.177,0,0,0,.072-0.224c-0.127-.338-0.473-1.025-0.662-1.376l-0.1-.058c-0.157.008-.488,0.056-0.81,0.093-0.459.054-.654,0.075-0.78,0.1l-0.1.1a8.044,8.044,0,0,0-.268,1.366,0.288,0.288,0,0,0,.321.3,2.958,2.958,0,0,0,.455.033h0.033l0.008,0.322c-0.254.03-.677,0.048-1.244,0.114-0.42.049-.788,0.12-1.08,0.154L67.765,60.5a1.038,1.038,0,0,0,1-.94c0.385-1.29.957-3.633,1.113-4.337a3.3,3.3,0,0,0,.112-0.662c0.118,0,.275-0.012.442-0.031,0.2-.023.34-0.049,0.437-0.069,0.057,0.151.151,0.365,0.228,0.523,0.386,0.78,1.542,3.169,1.981,3.972a0.981,0.981,0,0,0,1.03.791,3.663,3.663,0,0,0,.546-0.045A0.417,0.417,0,0,0,75,59.27c0.056-.378.112-1.2,0.184-2.245,0.061-.885.109-1.586,0.118-2a0.4,0.4,0,0,0-.274-0.459,3.353,3.353,0,0,0-.532-0.134l0.051-.309c0.206,0.014,1.086.1,1.371,0.124,0.7,0.039,1.041.033,1.855,0.089a3.18,3.18,0,0,1,2.035.775,2.835,2.835,0,0,1,.827,2.286A2.945,2.945,0,0,1,79.4,59.7Zm-9.2-3.856-0.038,0c-0.126.544-.324,1.479-0.427,1.963l0.028,0.065c0.108,0,.333-0.029.636-0.063s0.556-.065.652-0.085l0.022-.061C70.906,57.276,70.448,56.308,70.206,55.846Zm8.22-.728a2.459,2.459,0,0,0-1.378-.456c-0.046,0-.093,0-0.138,0a0.8,0.8,0,0,0-.248.027l-0.1.139c-0.033.33-.115,1.527-0.175,2.4-0.062.9-.122,1.78-0.111,2.045a0.575,0.575,0,0,0,.134.351,1.63,1.63,0,0,0,.895.306c0.043,0,.085,0,0.128,0a1.5,1.5,0,0,0,1.1-.467,2.952,2.952,0,0,0,.769-2.019A2.69,2.69,0,0,0,78.426,55.118ZM65.244,61.787a3.725,3.725,0,0,1-1.062.174A1.825,1.825,0,0,1,62.4,60.767c-0.28-.629-0.782-2.371-1.06-3.265a0.442,0.442,0,0,0-.432-0.379H60.878a3.233,3.233,0,0,0-.49.052l-0.08-.3c0.291-.087.846-0.222,1.373-0.38,0.555-.167,1.018-0.336,1.347-0.433l0.09,0.3c-0.161.079-.3,0.152-0.408,0.214a0.432,0.432,0,0,0-.163.588c0.205,0.753.52,1.738,0.669,2.233a5.81,5.81,0,0,0,.443,1.069,1.283,1.283,0,0,0,1.186.682,2.3,2.3,0,0,0,.658-0.105,1.436,1.436,0,0,0,1.021-2c-0.163-.714-0.554-2.053-0.787-2.7a0.53,0.53,0,0,0-.5-0.489,0.856,0.856,0,0,0-.1.006,4.415,4.415,0,0,0-.555.065l-0.081-.3c0.291-.087.7-0.177,1.166-0.319,0.612-.183.886-0.3,1.083-0.354l0.09,0.3a3.782,3.782,0,0,0-.37.2c-0.225.138-.256,0.311-0.138,0.773,0.224,0.85.532,1.948,0.656,2.6A2.259,2.259,0,0,1,65.244,61.787ZM54.512,64.876c0.62,0.79.487,1.96-.673,2.869a3.57,3.57,0,0,1-1.361.669A6.943,6.943,0,0,1,51.295,67.4l0.2-.277a2.414,2.414,0,0,0,1.353.524H52.91a1.614,1.614,0,0,0,.89-0.363,0.829,0.829,0,0,0,.189-1.225,1.08,1.08,0,0,0-.983-0.4,6.591,6.591,0,0,0-.774.059,7.169,7.169,0,0,1-.873.069,1.761,1.761,0,0,1-1.52-.671,1.809,1.809,0,0,1,.537-2.614,12.8,12.8,0,0,1,1.363-.857,8.957,8.957,0,0,0,.741,1.216l-0.249.208a1.469,1.469,0,0,0-.941-0.547H51.251a1.246,1.246,0,0,0-.735.3,0.866,0.866,0,0,0-.164,1.256,1.045,1.045,0,0,0,.913.4c0.062,0,.127,0,0.194-0.007,0.487-.047.852-0.124,1.312-0.173a3.7,3.7,0,0,1,.415-0.026A1.54,1.54,0,0,1,54.512,64.876ZM43.441,91.06a1.7,1.7,0,0,0-1.144.533l-0.161-.271a2.665,2.665,0,0,1,1.877-1.1,1.4,1.4,0,0,1,1.5,1.405,1.607,1.607,0,0,1-.924,1.245l-0.009.04a1.712,1.712,0,0,1,1.435,1.587,2.037,2.037,0,0,1-1,1.687,2.98,2.98,0,0,1-1.647.482,2.26,2.26,0,0,1-.923-0.171,0.706,0.706,0,0,1-.342-0.362,3.275,3.275,0,0,1-.18-0.752l0.27-.152a1.86,1.86,0,0,0,.734.824,1.707,1.707,0,0,0,.863.191,1.074,1.074,0,0,0,1.054-1.195,1.39,1.39,0,0,0-1.5-1.426,1.468,1.468,0,0,0-.331.03l0.2-.512c0.884-.18,1.234-0.512,1.234-1.054A0.962,0.962,0,0,0,43.441,91.06Zm0.451,17.647a4.355,4.355,0,0,0-.168-0.481l0.284-.137c0.116,0.206.437,0.838,0.61,1.148,0.361,0.643.638,1.1,0.894,1.553a1.565,1.565,0,0,1-.418,2.334,1.47,1.47,0,0,1-.73.2,1.91,1.91,0,0,1-1.151-.454l-0.073.03a14.444,14.444,0,0,0-1.1,2.425,1.256,1.256,0,0,0,.078,1.084l-0.317.1a4.833,4.833,0,0,1-.743-1.7,1.443,1.443,0,0,1,.117-0.619A20.276,20.276,0,0,1,42.2,112.2a0.326,0.326,0,0,0,.019-0.328l-0.193-.343-0.071-.006c-0.515.289-1.128,0.645-1.458,0.842a0.4,0.4,0,0,0-.267.488,3.812,3.812,0,0,0,.183.507l-0.292.142c-0.1-.18-0.307-0.607-0.669-1.25-0.371-.661-0.609-1.025-0.71-1.2l0.275-.154c0.117,0.148.212,0.276,0.295,0.365a0.323,0.323,0,0,0,.248.125,0.826,0.826,0,0,0,.34-0.105c0.258-.122,1.422-0.765,1.937-1.053,0.841-.473,1.476-0.83,1.811-1.039A0.385,0.385,0,0,0,43.892,108.707Zm-1.466,2.618a3.055,3.055,0,0,0,.64.94,0.826,0.826,0,0,0,.473.146,1.446,1.446,0,0,0,.7-0.215,1.26,1.26,0,0,0,.591-1.845l-0.187-.233-0.163.012c-0.232.108-1.039,0.561-2.018,1.11ZM38.41,96.583a0.912,0.912,0,0,1-.4-0.171L38,96.241c0.533-1.074,2.028-3.885,2.36-4.739l-0.03-.071c-0.186,0-.577-0.009-1.007-0.009-0.524,0-1.107.007-1.443,0.029a1,1,0,0,0-.763.763L36.8,92.095a14.152,14.152,0,0,0,.442-1.828,3.739,3.739,0,0,0,.813.071h2.069c0.381,0,.833,0,1.085-0.021l0.06,0.151c-0.361,1.135-2.48,5.252-2.792,6.065Zm6.255,18.675a2.953,2.953,0,0,1,1.894-.752,2.367,2.367,0,0,1,.237.011,3.333,3.333,0,0,1,2.4,1.238,2.913,2.913,0,0,1-.348,4.336,3.254,3.254,0,0,1-1.922.837q-0.094.006-.187,0.006a3.227,3.227,0,0,1-2.465-1.2,3.067,3.067,0,0,1-.819-2.361A3.286,3.286,0,0,1,44.665,115.258Zm0.154,4.442a1.305,1.305,0,0,0,.793.452,1.342,1.342,0,0,0,.168.01,3.263,3.263,0,0,0,1.927-.9,3.392,3.392,0,0,0,1.379-2.412,1.586,1.586,0,0,0-.393-1.047,1.434,1.434,0,0,0-.686-0.464,1.452,1.452,0,0,0-.394-0.054,3.051,3.051,0,0,0-1.839.843,3.518,3.518,0,0,0-1.381,2.517A1.713,1.713,0,0,0,44.819,119.7Zm4.165,4.048a0.385,0.385,0,0,0,.177.048,0.587,0.587,0,0,0,.41-0.276c0.312-.343.55-0.645,0.828-0.964a1.34,1.34,0,0,0,.224-0.453c0.131-.481.373-1.65,0.509-2.382a1.122,1.122,0,0,0-.1-1.082,2.571,2.571,0,0,0-.29-0.343l0.2-.228c0.242,0.2.609,0.545,1,.867,0.424,0.352.944,0.759,1.071,0.852l-0.194.248-0.286-.149a0.165,0.165,0,0,0-.243.169c-0.125.473-.471,2.043-0.532,2.363l0.053,0.044a19.013,19.013,0,0,0,2.154-.911,0.228,0.228,0,0,0,.061-0.4,3.883,3.883,0,0,0-.322-0.383l0.224-.223c0.2,0.171.518,0.47,0.867,0.76,0.386,0.321.617,0.475,0.859,0.675l-0.2.242a3.27,3.27,0,0,0-.39-0.208,0.912,0.912,0,0,0-.37-0.083,1.984,1.984,0,0,0-.584.121c-0.692.231-1.9,0.7-2.351,0.9a0.877,0.877,0,0,0-.354.257c-0.283.34-.546,0.671-0.861,1.064-0.206.264-.3,0.44-0.134,0.669,0.1,0.124.219,0.26,0.382,0.434l-0.224.223c-0.234-.195-0.722-0.64-1.169-1.011-0.583-.485-0.867-0.684-1.154-0.922l0.2-.243A4.166,4.166,0,0,0,48.984,123.748ZM52.3,126.33a1.258,1.258,0,0,0,.715-0.33c1.1-.794,3-2.315,3.56-2.783a3.369,3.369,0,0,0,.5-0.459c0.1,0.07.226,0.159,0.369,0.246a4.186,4.186,0,0,0,.389.213c-0.048.154-.106,0.384-0.142,0.558-0.176.86-.736,3.478-0.885,4.39a1.025,1.025,0,0,0,.452,1.366l-0.194.263c-0.219-.133-0.591-0.393-1.147-0.728-0.606-.368-0.97-0.565-1.245-0.719l0.169-.279a2.157,2.157,0,0,0,.49.159h0.014a0.178,0.178,0,0,0,.183-0.135c0.107-.349.257-1.109,0.324-1.506l-0.04-.1c-0.129-.091-0.42-0.255-0.7-0.423-0.4-.24-0.564-0.342-0.679-0.4l-0.139.02a8.253,8.253,0,0,0-1.055.926,0.292,0.292,0,0,0,.071.435,3.1,3.1,0,0,0,.367.325l-0.194.263c-0.218-.133-0.566-0.377-1.054-0.672-0.362-.219-0.7-0.388-0.95-0.541l0.168-.278A1.769,1.769,0,0,0,52.3,126.33Zm3.092-.721c0.253,0.153.481,0.29,0.57,0.333l0.055-.036c0.105-.419.34-1.474,0.435-1.992l-0.034-.02c-0.435.357-1.171,0.983-1.55,1.306l-0.019.069C54.94,125.333,55.133,125.451,55.395,125.609Zm3.064,4.3,0.053,0a0.372,0.372,0,0,0,.352-0.275c0.115-.209.507-1.165,0.912-2.181s0.621-1.532.718-1.854a0.381,0.381,0,0,0-.1-0.539,4.493,4.493,0,0,0-.452-0.276l0.144-.282c0.339,0.135.593,0.268,1.3,0.548,0.64,0.256,1,.367,1.291.485l-0.117.292a4.577,4.577,0,0,0-.481-0.1l-0.059,0a0.348,0.348,0,0,0-.341.289c-0.092.206-.365,0.861-0.725,1.766-0.4.984-.786,2-0.885,2.3a0.315,0.315,0,0,0,.064.344,8.272,8.272,0,0,0,1.259.564,0.584,0.584,0,0,0,.219.044,0.849,0.849,0,0,0,.434-0.143,6.891,6.891,0,0,0,1.013-.837l0.272,0.247a8.238,8.238,0,0,1-1.185,1.4,0.142,0.142,0,0,1-.114.042,1.3,1.3,0,0,1-.418-0.116c-0.685-.273-1.847-0.789-2.488-1.045-0.612-.244-1.09-0.4-1.373-0.516l0.12-.3A3.213,3.213,0,0,0,58.458,129.911Zm6.837,2.53a0.975,0.975,0,0,0,1.041-.637c0.73-1.145,1.93-3.262,2.276-3.9a3.334,3.334,0,0,0,.291-0.609c0.115,0.028.269,0.064,0.434,0.091a3.679,3.679,0,0,0,.441.053c0.013,0.162.044,0.4,0.075,0.572,0.156,0.863.6,3.5,0.8,4.4a1.026,1.026,0,0,0,.925,1.1l-0.083.315c-0.252-.042-0.695-0.145-1.335-0.252-0.7-.116-1.111-0.164-1.423-0.206l0.053-.321h0.084a1.959,1.959,0,0,0,.432-0.035,0.18,0.18,0,0,0,.132-0.2c-0.029-.365-0.172-1.127-0.257-1.52l-0.076-.083c-0.153-.035-0.485-0.081-0.805-0.134-0.457-.075-0.651-0.108-0.779-0.119l-0.121.069a8.2,8.2,0,0,0-.637,1.252,0.292,0.292,0,0,0,.227.377,3.026,3.026,0,0,0,.461.166l-0.082.316c-0.253-.042-0.665-0.141-1.228-0.234-0.418-.069-0.791-0.1-1.083-0.15l0.053-.321Zm2.474-2c0.105,0.028.328,0.065,0.63,0.115s0.554,0.092.652,0.1l0.039-.053c-0.058-.43-0.23-1.5-0.334-2.012l-0.039-.006c-0.271.493-.723,1.346-0.955,1.787Zm4.909,2.95c0.267-.051.32-0.157,0.359-0.492,0.029-.314.062-1.406,0.093-2.371s0.045-1.495.039-1.928a0.4,0.4,0,0,0-.242-0.431,3.282,3.282,0,0,0-.549-0.115l0.02-.316c0.3,0.01.776,0.053,1.4,0.073,0.378,0.011.664,0.013,0.883,0.013h0.386l0.139,0-0.009.315a3.908,3.908,0,0,0-.515.072,0.425,0.425,0,0,0-.261.494c-0.03.334-.053,1.082-0.079,1.938-0.034,1.112-.059,1.91-0.05,2.274a0.423,0.423,0,0,0,.3.5,4.712,4.712,0,0,0,.557.115l-0.049.324c-0.344-.021-0.777-0.053-1.406-0.073-0.35-.01-0.614-0.012-0.831-0.012H72.5c-0.1,0-.2,0-0.295,0l0.01-.324A3.084,3.084,0,0,0,72.678,133.4Zm6.019-5.8a3.1,3.1,0,0,1,.313-0.016,1.487,1.487,0,0,1,1.663,1.327,1.623,1.623,0,0,1-.981,1.626v0.08a14.5,14.5,0,0,0,1.786,1.973,1.265,1.265,0,0,0,1.028.36l-0.036.329a6.722,6.722,0,0,1-1.1.094,2.429,2.429,0,0,1-.758-0.09,1.436,1.436,0,0,1-.522-0.352,20.224,20.224,0,0,1-1.416-1.735,0.33,0.33,0,0,0-.286-0.148H78.379l-0.392.041-0.033.063c0.061,0.587.144,1.292,0.193,1.672a0.4,0.4,0,0,0,.342.44,3.761,3.761,0,0,0,.538.034l0.014,0.325c-0.206.021-.679,0.041-1.413,0.116-0.754.078-1.182,0.152-1.388,0.173l-0.032-.313c0.183-.049.338-0.084,0.453-0.126,0.21-.071.266-0.206,0.252-0.531-0.009-.286-0.136-1.61-0.2-2.2-0.1-.959-0.173-1.685-0.234-2.074a0.384,0.384,0,0,0-.339-0.411,4.3,4.3,0,0,0-.509-0.036l-0.012-.316c0.235-.024.944-0.067,1.3-0.1C77.651,127.728,78.178,127.654,78.7,127.6Zm-0.8,2.983,0.065,0.063a3.064,3.064,0,0,0,1.116-.214,1.039,1.039,0,0,0,.4-1.1,1.257,1.257,0,0,0-1.275-1.286,1.662,1.662,0,0,0-.184.01l-0.289.08-0.053.154C77.686,128.546,77.781,129.468,77.9,130.583Zm8.672-4.8a7.031,7.031,0,0,0,1.029-.4l0.078,0.047a9.214,9.214,0,0,0,.306,1.474l-0.312.123a3.307,3.307,0,0,0-.438-0.675,0.4,0.4,0,0,0-.31-0.15,0.629,0.629,0,0,0-.156.023,13,13,0,0,0-1.44.472l-0.05.193c0.152,0.5.407,1.306,0.646,2.005l0.066,0.041c0.318-.1,1.057-0.347,1.341-0.46a0.377,0.377,0,0,0,.295-0.4,3.12,3.12,0,0,0-.026-0.457l0.352-.095c0.054,0.231.14,0.587,0.263,0.961,0.114,0.346.227,0.661,0.328,0.939l-0.327.137a2.8,2.8,0,0,0-.257-0.4,0.353,0.353,0,0,0-.292-0.184,0.475,0.475,0,0,0-.115.016c-0.259.065-1.166,0.362-1.41,0.442l-0.019.068c0.194,0.59.38,1.191,0.537,1.606a0.413,0.413,0,0,0,.4.383H87.1c0.191-.021.393-0.066,0.655-0.121l0.063,0.321c-0.44.144-.87,0.254-1.45,0.444-0.524.172-.9,0.326-1.375,0.482l-0.107-.3c0.162-.075.315-0.145,0.437-0.216,0.234-.139.232-0.273,0.146-0.566-0.064-.258-0.407-1.338-0.655-2.095-0.35-1.067-.539-1.647-0.669-1.977-0.115-.292-0.19-0.353-0.374-0.353H83.731a4.725,4.725,0,0,0-.554.079l-0.089-.3c0.281-.092.8-0.229,1.357-0.413Zm4.408-2.222a3.343,3.343,0,0,1,1.6-.437,2.947,2.947,0,0,1,2.579,1.655,3.253,3.253,0,0,1,.43,2.05,3.2,3.2,0,0,1-1.7,2.357,3.437,3.437,0,0,1-1.641.459,2.661,2.661,0,0,1-.836-0.134,3.281,3.281,0,0,1-1.83-1.617,2.882,2.882,0,0,1-.294-2.236A3.329,3.329,0,0,1,90.977,123.56Zm-0.326,3.425a3.516,3.516,0,0,0,2.185,1.861,1.981,1.981,0,0,0,.275.02,1.729,1.729,0,0,0,.846-0.225,1.313,1.313,0,0,0,.6-0.685,3.03,3.03,0,0,0-.449-2.232,3.393,3.393,0,0,0-2.083-1.838,1.822,1.822,0,0,0-.332-0.032,1.571,1.571,0,0,0-.772.206,1.429,1.429,0,0,0-.593.579A2.592,2.592,0,0,0,90.651,126.985Zm5.956-3.3c-0.612-.746-1.073-1.309-1.339-1.6a0.466,0.466,0,0,0-.336-0.2,0.4,0.4,0,0,0-.173.045,4.6,4.6,0,0,0-.444.25l-0.185-.256c0.183-.15.75-0.576,1.024-0.8,0.571-.468.97-0.821,1.373-1.152a2.069,2.069,0,0,1,1.286-.536,1.381,1.381,0,0,1,1.085.54,1.622,1.622,0,0,1,.078,1.9l0.043,0.068a14.463,14.463,0,0,0,2.579.661c0.119,0.01.215,0.016,0.3,0.016a1.245,1.245,0,0,0,.756-0.283l0.152,0.3a4.847,4.847,0,0,1-1.549,1.028,1.223,1.223,0,0,1-.288.032,1.553,1.553,0,0,1-.341-0.038,20.38,20.38,0,0,1-2.138-.666,0.392,0.392,0,0,0-.135-0.027,0.327,0.327,0,0,0-.191.065l-0.3.249,0.008,0.071c0.374,0.456.831,1,1.082,1.289a0.518,0.518,0,0,0,.354.222,0.428,0.428,0,0,0,.173-0.044,3.956,3.956,0,0,0,.467-0.268l0.191,0.263c-0.16.132-.544,0.408-1.114,0.877-0.587.48-.9,0.778-1.063,0.908l-0.2-.243c0.126-.142.236-0.257,0.308-0.355,0.136-.174.109-0.317-0.082-0.581C97.816,125.179,96.981,124.145,96.606,123.688Zm1.8-1.564a1.04,1.04,0,0,0-.272-1.139,1.418,1.418,0,0,0-1.078-.594,1.325,1.325,0,0,0-.841.334l-0.2.226,0.039,0.157c0.147,0.211.734,0.926,1.445,1.8l0.09,0.015A3.058,3.058,0,0,0,98.405,122.124Zm1.608-5.088a4.2,4.2,0,0,1,.976-1.794c0.512-.6,1.11-1.072,1.413-1.4a12.875,12.875,0,0,0,1.118,1.162l-0.2.282a1.916,1.916,0,0,0-.95-0.4,0.927,0.927,0,0,0-.32.061,2.47,2.47,0,0,0-.948.731c-0.761.891-.573,2.049,0.753,3.181a3.247,3.247,0,0,0,2.032.854,2.091,2.091,0,0,0,1.631-.792,1.476,1.476,0,0,0,.4-0.967,3.922,3.922,0,0,0-.254-1.2l0.321-.088a3.423,3.423,0,0,1,.528,1.488,4.639,4.639,0,0,1-.786,1.285,3.5,3.5,0,0,1-2.6,1.431,3.244,3.244,0,0,1-2.1-.881A2.921,2.921,0,0,1,100.013,117.036Z"/>
  <path class="cls-8" d="M93.151,107.259a10.437,10.437,0,0,1,.128,5.522c-0.513,2.7-3.916,4.687-3.916,4.687l-14.062.578a11.688,11.688,0,0,0-1.027-2.376,18.42,18.42,0,0,0-3.467-2.953c-1.156-.9-2.953-4.173-3.789-6.613s-1.156-5.779-1.413-6.485a0.937,0.937,0,0,0-.94-0.587,1.111,1.111,0,0,0-.151.009,12.487,12.487,0,0,1-3.018,1.221,10.782,10.782,0,0,1-2.447.325c-0.121,0-.185,0-0.185,0l-0.449.9a14.06,14.06,0,0,0,.128,2.825,12.8,12.8,0,0,0,.77,1.991,2.03,2.03,0,0,1-.064,1.669,1.245,1.245,0,0,0,.706.642,4.357,4.357,0,0,1,1.091,1.091,3.428,3.428,0,0,0,1.156.257,3.516,3.516,0,0,1-1.092.707l0.963,0.642a1.119,1.119,0,0,1-1,.452c-0.055,0-.089,0-0.089,0a4.416,4.416,0,0,0,1.156.642,6.38,6.38,0,0,1-1.33.223,1.01,1.01,0,0,1-.275-0.031c-0.409-.116-0.765-0.393-0.971-0.393a0.2,0.2,0,0,0-.056.008,0.1,0.1,0,0,1-.032,0,4.591,4.591,0,0,1-1.123-.583,7.279,7.279,0,0,1-1.541-1.733,9.356,9.356,0,0,1-.192-1.99s-0.322-.707-0.45-0.9a23.465,23.465,0,0,1-.064-3.145,6.914,6.914,0,0,0-.513-2.376,3.773,3.773,0,0,1-.129-1.926,2.815,2.815,0,0,1,.963-1.349,6.41,6.41,0,0,0,1.477-.963c0.257-.256,1.862-1.926,2.632-2.054a3.531,3.531,0,0,0,1.541-.9,9.269,9.269,0,0,0-1.67-.9c-0.385-.065-0.192-0.642-0.192-0.642a5.623,5.623,0,0,0-.385-1.349,8.69,8.69,0,0,1-.77-1.734,14.512,14.512,0,0,1-.193-1.926,14.57,14.57,0,0,1-.642-1.991,1.684,1.684,0,0,1,.513-1.091s-0.577-1.412-.706-1.734a2.684,2.684,0,0,1,.128-1.156,10.959,10.959,0,0,1-.513-2.183,0.3,0.3,0,0,1,.344-0.241,1.067,1.067,0,0,1,.3.048V79.137l-0.578-.513-0.256-1.606s-0.77-.578-1.027-0.834a3.591,3.591,0,0,1-.321-1.606,3.662,3.662,0,0,0-.385-0.963l-1.285-.257a7.371,7.371,0,0,1,.706-0.449,0.772,0.772,0,0,1,.31-0.044,6.654,6.654,0,0,1,.975.109L56.36,72.2l-0.578-.578,0.65-.32,0.827,0.063-0.192-.707,0.642,0.321a5.543,5.543,0,0,1,1.605,1.349,15.555,15.555,0,0,0,.514,2.183,24.15,24.15,0,0,1,.513,2.375c0.192,0.578.321,2.12,0.513,2.5a11.637,11.637,0,0,1,.9,1.8c0.128,0.513.449,2.953,0.449,2.953a13.322,13.322,0,0,1,1.477,5.264l0.9,0.193s0.835-.77,1.156-1.092,1.156-.963,1.156-0.963a6.818,6.818,0,0,1,1.092-1.734,8.023,8.023,0,0,1,2.761-1.862,4.657,4.657,0,0,0,.77-1.348c0.257-.514,1.605-1.477,1.605-1.8,0-.078-0.027-0.111-0.071-0.111a2.083,2.083,0,0,0-.7.56,2.832,2.832,0,0,1-1.22.449l-1.22.449a1.1,1.1,0,0,0-.321-0.77,1.484,1.484,0,0,1-.386-1.22l0.158-.189,0.07-.5,0.012-.086,0.07,0.052,0.384,0.287,0.185-.064,0.229-.612,0.306,0.4a2.657,2.657,0,0,1,1.01-.128,4.765,4.765,0,0,1,.915.065,0.171,0.171,0,0,0,.054.008,0.817,0.817,0,0,0,.588-0.971,4.807,4.807,0,0,0-1.22-1.862,2.645,2.645,0,0,0-.981-0.305,0.533,0.533,0,0,0-.239.048,5.605,5.605,0,0,1-.9.77c-0.113.042-.255,0.088-0.407,0.133l0.1,0.493-0.626.1-0.048.337-0.614-.614-0.012,0a1.317,1.317,0,0,1-.9-0.513,3.721,3.721,0,0,1-.641-1.413,3.817,3.817,0,0,1-.9-1.349c0.963-1.156,3.853-2.183,3.853-2.183a6.928,6.928,0,0,0,.128-1.027c0-.385,1.669-1.22,2.055-1.284a11.093,11.093,0,0,0,3.146-1.284,2.513,2.513,0,0,1,1.443-.524,1,1,0,0,1,.162.011c1.862,0.449,3.788.256,5.008,1.349s2.568,5.072,2.632,5.715-0.706,5.522-.963,7.383a17.446,17.446,0,0,1-1.8,4.558c-0.065.193,0,.642-0.129,2.248a64.442,64.442,0,0,1-1.8,6.934,2.353,2.353,0,0,0,0,1.156c0.129,0.385,1.67,4.174,2.119,5.265s1.54,7.191,1.54,7.191,1.221,1.285,1.863,1.862a7.008,7.008,0,0,1,1.155,2.44,4.664,4.664,0,0,0,1.485.177,3.713,3.713,0,0,0,1.726-.305c0.706-.45,1.413-2.5,1.156-3.853a26.684,26.684,0,0,0-2.5-6.42,14.679,14.679,0,0,1-1.862-6.806c-0.065-2.7,1.734-5.265,2.568-6.228s1.541-3.66,1.734-4.045a17.733,17.733,0,0,1,1.99-1.926,14.077,14.077,0,0,1,0,1.67c-0.064.321-.385,1.606-0.642,2.568a27.025,27.025,0,0,1-2.311,4.495,6.263,6.263,0,0,0-.513,3.6C89.17,98.014,92.766,106.3,93.151,107.259Z"/>
  <path id="Shape_252_copy_2" data-name="Shape 252 copy 2" class="cls-9" d="M72.842,71.928a0.837,0.837,0,0,0-.3.178,0.684,0.684,0,0,0-.053.073,1.25,1.25,0,0,1,.354-0.25m0.931-.19H73.762a0.854,0.854,0,0,1-.484,1.171,0.7,0.7,0,0,1-.245.046,0.9,0.9,0,0,1-.7-0.462,0.724,0.724,0,0,1-.18.256,3.142,3.142,0,0,0,1.156.546,0.966,0.966,0,0,0,.122.008,1.563,1.563,0,0,0,1.162-.682c0.289-.385,0-0.674-0.482-0.834a1.094,1.094,0,0,0-.34-0.047"/>
  <path id="Shape_252_copy" data-name="Shape 252 copy" class="cls-10" d="M72.048,77.062a2.193,2.193,0,0,0-1.017.31c-0.9.481-1.573,1.22-1.83,1.284a3,3,0,0,1-.871.171,1.681,1.681,0,0,1-.862-0.235,2.591,2.591,0,0,0-.948-0.481,0.735,0.735,0,0,0-.4.159c-0.482.321-.9,0.8-0.514,0.867a6.449,6.449,0,0,0,1.8.61c0.134,0.013.271,0.019,0.407,0.019a4.59,4.59,0,0,0,1.619-.285l0.012-.086,0.07,0.052A1.6,1.6,0,0,0,70,79.137a3.352,3.352,0,0,1,1.795-.823,0.6,0.6,0,0,1,.164.02,4.147,4.147,0,0,0,1,.1c0.132,0,.218,0,0.218,0h0a2.547,2.547,0,0,0-.835-1.316,0.678,0.678,0,0,0-.3-0.053"/>
  <path class="cls-11" d="M92.157,111.974c-0.391,1.695-1.5,3.065-3,3.065,0,0,2.543-1.3,2.152-3.913a18.314,18.314,0,0,0-2.348-6.652c-0.913-1.37-2.674-6.2-2.283-8.283a8.521,8.521,0,0,1,3-5.217,10.146,10.146,0,0,0-1.891,5.8c0.13,3.13,1.891,6.848,2.739,8.348S92.548,110.278,92.157,111.974ZM81.852,79.3c-0.326.717-.391,1.174-1.239,1.174-0.67,0-1.136-.61-1.816-0.61a1.322,1.322,0,0,0-.6.153,2.918,2.918,0,0,1-1.092.391,0.408,0.408,0,0,1-.407-0.391c-0.131-.522.13-3.456,0.065-4.174a11.81,11.81,0,0,1,.262-2.739A4.647,4.647,0,0,0,76.9,70.43a1,1,0,0,0-.827-0.639,1.317,1.317,0,0,0-.346.052c-0.717.2-1.761,0.2-1.043,0.456s1.174,1.37.848,1.37c-0.28,0-1.182-.287-1.681-0.287a0.688,0.688,0,0,0-.211.027c-0.391.13-1.239,1.043-1.63,1.043s-0.782-.13-0.587-0.586a4.378,4.378,0,0,0,.26-0.783,2.9,2.9,0,0,0-.782,1.566,0.969,0.969,0,0,0,.392.653s1.565,0.587,1.956.717a2.035,2.035,0,0,0,.631.107,1.309,1.309,0,0,0,1.065-.5,0.766,0.766,0,0,1,.6-0.316,0.645,0.645,0,0,1,.641.773c-0.13.653-.783,2.153-1.565,2.153a3.054,3.054,0,0,1-2.218-.914,2.876,2.876,0,0,0-1.7-.913,11.43,11.43,0,0,1-1.3-.587,0.731,0.731,0,0,0-.257-0.044,2.017,2.017,0,0,0-.981.37s0.053,0,.136,0a1.058,1.058,0,0,1,.907.331,1.292,1.292,0,0,1-.2,1.3,5.545,5.545,0,0,1-1.043.457L67.5,75.387s0.391-.848.065-0.978-0.978-.13-0.326-0.521,2.152-.978,2.413-1.175,0.913,0,.782-0.652-0.457-.522.522-1.043S75.2,69,75.2,69l1.826-.457a10.248,10.248,0,0,0,3.2,1.313,0.9,0.9,0,0,0,.127-0.008,2.827,2.827,0,0,1,.4-0.031,1.163,1.163,0,0,1,1.23,1.139c0.195,0.978.912-.456,0.326,3.066S82.178,78.583,81.852,79.3ZM66.07,74.6c0.2-.2.782-0.522,0.848-0.261a4.332,4.332,0,0,1-.065,1.044S65.874,74.8,66.07,74.6Zm0.587,14.608c0.913-.522,1.63-1.3,2.348-1.239s1.63,1.3,1.044,1.7a7.919,7.919,0,0,1-2.739,1.239c-0.652,0-.913-0.457-1.3,0S64.765,92.474,64.57,92.8s-0.718,1.239-.718,1.239l0.065-1.7a8.566,8.566,0,0,0,.717-2.022c0-.522,2.152-2.348,2.152-2.348S65.744,89.735,66.657,89.213Zm-4.826,3.326s0.521,1.043.13,1.109l-0.033,0a4.125,4.125,0,0,1-1.4-1.111,5.181,5.181,0,0,0-.391-2.8,12.467,12.467,0,0,1-1.044-3c-0.065-.717-0.13-3.326-0.2-4.174s-0.587-1.239-.652-1.957a1.118,1.118,0,0,1,.457-1.043,7.674,7.674,0,0,1-.522-1.174,4.947,4.947,0,0,1-.065-1.3S57.526,76.5,57.266,76.3a2.208,2.208,0,0,1-.587-1.239,1.43,1.43,0,0,0-.522-1.24s0.145-.01.333-0.01a1.432,1.432,0,0,1,.776.141,9,9,0,0,1,.652.913l0.522,0.522a7.288,7.288,0,0,0-.783-1.761c-0.326-.326-0.913-0.782-0.913-0.782l0.13-.522a3,3,0,0,1,1.174.391,7.366,7.366,0,0,1,.742,1.407L57.852,71.93a3.715,3.715,0,0,1,.849.457,8.413,8.413,0,0,1,.651,2.413l-0.326.782a8.8,8.8,0,0,1,.587,1.7c0.13,0.718.652,2.413,0.652,2.413a2.238,2.238,0,0,1,.782,1.761c0.131,1.37.131,2.152,0.392,3.782a15.5,15.5,0,0,0,.847,3.848c0.457,0.978,1.827,2.282,1.5,2.478S61.831,92.539,61.831,92.539Zm-4.109,5.739c0.848-.391.913-0.913,1.7-1.761a9.807,9.807,0,0,1,3.391-1.63A7.233,7.233,0,0,0,65.222,92.8a2.332,2.332,0,0,1,1.435-1.239c0.457-.13,1.957-0.326,2.217-0.457s0.391,1.174.391,1.174A24.824,24.824,0,0,1,65.483,94.3c-0.522,0,.2.456,1.108,1.63s-0.587.782-1.3,0.848a8.078,8.078,0,0,0-2.935.457,14.053,14.053,0,0,0-2.022,1.5L57.657,99,57.4,100.3a5.588,5.588,0,0,1-.913,1.435c-0.326.2-.718-0.979-0.718-1.37a3.827,3.827,0,0,1,.391-1.174A3.6,3.6,0,0,1,57.722,98.278Zm-0.522,5.8s-0.2,1.762.13,2.087a1.688,1.688,0,0,1,.913,1.305,5.159,5.159,0,0,0,.391,1.695l1.5,0.718-0.848.261s-0.2.13,0.261,0.783,0.522,1.043.13,0.978A2.739,2.739,0,0,1,57.918,111a14.25,14.25,0,0,1-.717-2.609c-0.13-.522-0.522-0.848-0.717-1.565a7.032,7.032,0,0,1-.2-2.478A1.4,1.4,0,0,1,57.2,104.082ZM76.114,82.039a1.024,1.024,0,0,1-.326.913c-0.456.587-.717,0.522-0.392,0.848s0.261,0.782-.456,1.043-0.261.717-.261,1.108-1.37,0-1.37,0,0.2,0.848.261,1.239-0.783.2-1.239-.065-0.391,1.37-.391,1.826-1.109-.326-1.239-0.783a1.622,1.622,0,0,0-1.5-.978,2.217,2.217,0,0,0-1.826.848,17.046,17.046,0,0,1,1.435-2.152c0.587-.522,2.152-1.3,2.609-1.826a11.135,11.135,0,0,1,2.152-2.348C74.614,81,76.114,82.039,76.114,82.039ZM72.07,76.5a6.088,6.088,0,0,0-1.565-.326,2.807,2.807,0,0,1,1.3-.391A10.939,10.939,0,0,1,73.7,77.735a2.439,2.439,0,0,1,.391,1.957c-0.2.065-1.435,0.13-1.435,0.13s1.043-.913.783-1.3A18.163,18.163,0,0,0,72.07,76.5Zm0.457,21.326a2.33,2.33,0,0,1,3.261.13,5.134,5.134,0,0,0,1.239,2.022c1.108,1.174.13,1.3-.326,2.087s0.2,1.37,1.239,2.674,0.456,1.891-.522,1.3-0.13.913,0.457,2.283-0.065.652-.261,0.978-1.174-1.891-1.174-1.891l-0.783,1.956L75.2,107.148a1.721,1.721,0,0,0-1.37.848c-0.522.848-.522-2.218-0.522-2.218s-0.261-2.152-.978-1.434-0.717.2-.326-1.175a15.541,15.541,0,0,1,.913-2.413s-2.283,1.109-2.609.848,1.37-1.76,2.022-2.217-1.109.065-1.957,0.2S72.216,98.093,72.527,97.822ZM78.4,110.474a4.353,4.353,0,0,1,1.631,1.695c0.326,0.914,1.3,3.2.522,3a1.022,1.022,0,0,0-1.108.718s0.782,1.5.326,1.565a29.84,29.84,0,0,1-3.065-.261,12.191,12.191,0,0,0,1.435-3.065A18.069,18.069,0,0,0,78.4,110.474Z"/>
  <path class="cls-12" d="M74.351,46.951c-6.774,0-14.228,2-15.314,2.819a2,2,0,0,0-.626,1.637c0.035,0.818.337,1.541,0.722,1.589h0.011c0.23,0,1.711-.651,4.265-1.3a43.282,43.282,0,0,1,10.714-1.3q0.374,0,.756.006A47.879,47.879,0,0,1,90.145,53a1.672,1.672,0,0,0,.412.053,0.729,0.729,0,0,0,.791-0.535c0.193-.77.433-2.023,0-2.6s-8.619-2.648-15.7-2.937c-0.429-.017-0.863-0.026-1.3-0.026"/>
  <path class="cls-1" d="M94.552,40.758a13.648,13.648,0,0,1-1.8,3.719s-2.414-.49-5.808-1c-8.417.679-22.788,1.491-26.291,1.491a3.11,3.11,0,0,1-.78-0.045c-0.141-.1-0.45-0.333-0.829-0.639-0.937.176-1.446,0.285-1.446,0.285l-2.377-4.336s-1.283-6.739-.513-8.666,3.563-6.26,6.068-6.838a6.037,6.037,0,0,1,3.154-1,4.279,4.279,0,0,1,1.083.136c2.215,0.578,6.839,2.022,7.8,2.311a4.915,4.915,0,0,0,1.212.1,25.287,25.287,0,0,0,4.278-.393c0.577-.164,4.317-2.86,7.5-2.86a4.449,4.449,0,0,1,1.557.261s7.705,6.837,8.186,10.5Z"/>
  <path id="Shape_259_copy" data-name="Shape 259 copy" class="cls-13" d="M86.544,25.5c-0.254,0-.514.01-0.775,0.032a12.523,12.523,0,0,0-4.882,1.8c-0.893.483-5.386,0.822-6.739,0.822a2.705,2.705,0,0,1-.333-0.014,49.77,49.77,0,0,1-6.276-1.256,19.462,19.462,0,0,0-4.97-.6,3.654,3.654,0,0,0-.808.056c-0.6.18-1.992,1.437-2.789,1.886s-2.789,4.309-2.789,4.309c-0.4.36-.2,7.721,0.2,8.888a9.517,9.517,0,0,0,2.657,2.862c2.113-.4,6.4-1.137,11.942-1.737a32.734,32.734,0,0,1,3.49-.167,90.03,90.03,0,0,1,12.468,1.1,42.957,42.957,0,0,0,6.2-.709c0.9-.629,1.2-4.848,1.156-5.095s0.935-3.344.736-4.871-5.18-6.823-5.18-6.823a12.321,12.321,0,0,0-3.309-.481"/>
  <path class="cls-1" d="M97.2,34.117l-0.048.027,0.139,0.219a0.494,0.494,0,0,1-.042.382L95.9,37.152l-0.043.057a1.7,1.7,0,0,1-.612,2.247,0.859,0.859,0,0,1-.268.851,7.852,7.852,0,0,1-4.042,1.655,26.8,26.8,0,0,1,2.685,1.163,0.862,0.862,0,0,1-.775,1.539l-0.116-.058,0,0.019L91.836,48.7a0.494,0.494,0,0,1-.481.388,0.5,0.5,0,0,1-.174-0.032,49.811,49.811,0,0,0-15.506-2.745H74.326A49.749,49.749,0,0,0,58.82,49.058l-0.174.032-0.235-.059a0.494,0.494,0,0,1-.246-0.328l-0.885-4.076,0-.019-0.117.058a0.861,0.861,0,0,1-.775-1.539,27.093,27.093,0,0,1,2.689-1.165,7.9,7.9,0,0,1-4.047-1.654,0.857,0.857,0,0,1-.294-0.59l0-.145a1.7,1.7,0,0,1-.461-2.243L54.1,37.152l-1.348-2.407a0.5,0.5,0,0,1-.042-0.382l0.139-.219L52.8,34.117a0.492,0.492,0,0,1-.17-0.5,24.049,24.049,0,0,1,9.022-13.064A19.2,19.2,0,0,1,71.88,17.015l0.035,0h0.022a0.5,0.5,0,0,1,.338.129l0.02,0.022,0.028-.03a4.6,4.6,0,0,1,.906-7.987A0.487,0.487,0,0,1,73.2,8.731c0.194-.5.689-1.812,0.837-2.386l0,0-0.025.015a11.312,11.312,0,0,0-2.175,1.189,0.5,0.5,0,0,1-.3.1l-0.222-.053a0.493,0.493,0,0,1-.27-0.443L71.068,3.9a0.492,0.492,0,0,1,.826-0.358,4.7,4.7,0,0,0,1.961.977l0.118-.142A14.291,14.291,0,0,0,72.768,1.9,0.48,0.48,0,0,1,72.6,1.353a0.5,0.5,0,0,1,.473-0.327h0.007l3.564,0.048a0.492,0.492,0,0,1,.406.759A7.937,7.937,0,0,0,75.974,4.28l-0.008.032,0.07-.011a8.42,8.42,0,0,0,2.492-1.108,0.491,0.491,0,0,1,.492-0.012,0.494,0.494,0,0,1,.257.419l0.1,3.756a0.493,0.493,0,0,1-.329.478l-0.163.028a0.491,0.491,0,0,1-.392-0.194A12.6,12.6,0,0,0,76.011,6.25L76,6.265a23.264,23.264,0,0,0,.963,2.55A0.492,0.492,0,0,1,77,9.257a4.594,4.594,0,0,1,.676,7.878l0.028,0.03,0.021-.024a0.49,0.49,0,0,1,.329-0.128h0.031l0.034,0a19.2,19.2,0,0,1,10.224,3.539,24.052,24.052,0,0,1,9.021,13.064A0.492,0.492,0,0,1,97.2,34.117Zm-12,6.227a6.42,6.42,0,0,1-1.47-1.6A4.9,4.9,0,0,1,82.085,39.8C83.069,39.94,84.118,40.119,85.2,40.344ZM67.916,39.8a4.873,4.873,0,0,1-1.645-1.056,6.42,6.42,0,0,1-1.47,1.6C65.882,40.119,66.932,39.94,67.916,39.8Zm5.962-4.546a0.488,0.488,0,0,1-.357.18,5.26,5.26,0,0,0-2.37,1.493,0.493,0.493,0,0,1-.349.145l-0.186-.037a0.492,0.492,0,0,1-.307-0.45l-0.048-4.527a0.492,0.492,0,0,1,.863-0.328,4.981,4.981,0,0,0,2.451,1.281,1.7,1.7,0,0,1,.263-0.3l0,0a5.849,5.849,0,0,0-2.551-3.051,0.493,0.493,0,0,1,.22-0.933h0.738L72.2,28.5v-9.11l-0.174.044a19.158,19.158,0,0,0-8.772,3.307,19.606,19.606,0,0,0-7.691,9.977,0.493,0.493,0,0,1,.707.544,20.814,20.814,0,0,0-.133,3.158l-0.013.1a1.722,1.722,0,0,1,.5.2,7.194,7.194,0,0,0,1.1-2.311,0.492,0.492,0,0,1,.446-0.355h0.025a0.492,0.492,0,0,1,.457.3l1.638,3.948a0.492,0.492,0,0,1-.455.681l-0.177-.032a21.01,21.01,0,0,0-2.21-.541,1.7,1.7,0,0,1-.565,1.06,6.312,6.312,0,0,0,3.034.8,6.1,6.1,0,0,0,1.7-.244A5.047,5.047,0,0,0,65.142,37.2l-0.907.234L64,37.465a0.925,0.925,0,0,1-.8-1.4l0.148-.185a1.755,1.755,0,0,0-.808-0.473,0.141,0.141,0,0,0-.037,0h0a0.4,0.4,0,0,0-.283.166,2.876,2.876,0,0,0,.159,1.5,1.887,1.887,0,0,1-.192,1.741,1.221,1.221,0,0,1-.931.418l-0.069,0a0.493,0.493,0,0,1-.439-0.6,3.222,3.222,0,0,0-.429-1.334l-0.149-.191a3,3,0,0,1-.819-2.616A2.614,2.614,0,0,1,60.6,32.765a2.517,2.517,0,0,1,1.252-.336,2.414,2.414,0,0,1,.732.113,1.733,1.733,0,0,1,.36.172,10.3,10.3,0,0,1-.01-5.885,0.494,0.494,0,0,1,.373-0.32A0.483,0.483,0,0,1,63.4,26.5a0.492,0.492,0,0,1,.372.171,9.772,9.772,0,0,1,2.246,5.746,2.469,2.469,0,0,1,.566-0.73,1.885,1.885,0,0,1,1.762-.4,2.275,2.275,0,0,1,1.49,1.42,3.637,3.637,0,0,1-.366,2.871,2.538,2.538,0,0,0-.075,1.054,0.492,0.492,0,0,1-.442.709,1.6,1.6,0,0,1-1.448-1.5,5.92,5.92,0,0,0-.338-1.414l-0.029-.014a4.9,4.9,0,0,0-.307.65l0.1,0.044a0.923,0.923,0,0,1-.043,1.616l0,0.006a3.144,3.144,0,0,0,3.015,1.7,5.371,5.371,0,0,0,.782-0.06c1.986-.291,3.1-2.514,3.323-3.019ZM75,37.139a7.2,7.2,0,0,1-2.036,2.147c0.94-.052,1.5-0.057,1.526-0.057h1.015c0.025,0,.588.005,1.531,0.057A7.2,7.2,0,0,1,75,37.139Zm0.991-1.787c0.226,0.5,1.336,2.728,3.323,3.019a5.386,5.386,0,0,0,.779.059,3.2,3.2,0,0,0,2.955-1.574L82.835,36.8a0.921,0.921,0,0,1-.143-1.737,4.823,4.823,0,0,0-.307-0.649l-0.045.025a6.752,6.752,0,0,0-.321,1.4,1.6,1.6,0,0,1-1.448,1.5,0.492,0.492,0,0,1-.443-0.709,2.494,2.494,0,0,0-.082-1.065,1.956,1.956,0,0,1-.259-0.507l-0.016,1.52a0.491,0.491,0,0,1-.306.45l-0.186.037a0.491,0.491,0,0,1-.347-0.145,5.26,5.26,0,0,0-2.371-1.493,0.494,0.494,0,0,1-.391-0.224Zm10.757-12.61a19.148,19.148,0,0,0-8.773-3.307L77.8,19.39V28.5l-0.05.214h0.738a0.492,0.492,0,0,1,.222.932A5.917,5.917,0,0,0,76.161,32.7v0a1.76,1.76,0,0,1,.274.324l0.057-.016a5.033,5.033,0,0,0,2.464-1.284,0.492,0.492,0,0,1,.864.328l0,0.362a2.271,2.271,0,0,1,1.363-1.129,1.911,1.911,0,0,1,.516-0.072,1.932,1.932,0,0,1,1.246.471,2.443,2.443,0,0,1,.565.73,9.768,9.768,0,0,1,2.247-5.746,0.49,0.49,0,0,1,.463-0.162,0.5,0.5,0,0,1,.373.32,10.29,10.29,0,0,1-.01,5.885,1.71,1.71,0,0,1,.359-0.172,2.416,2.416,0,0,1,.732-0.113,2.52,2.52,0,0,1,1.253.336,2.613,2.613,0,0,1,1.246,1.729,3,3,0,0,1-.819,2.616L89.2,37.3a3.237,3.237,0,0,0-.428,1.334,0.493,0.493,0,0,1-.44.6l-0.069,0a1.217,1.217,0,0,1-.93-0.418,1.883,1.883,0,0,1-.191-1.741,2.871,2.871,0,0,0,.158-1.5,0.4,0.4,0,0,0-.283-0.166,0.143,0.143,0,0,0-.035,0,1.766,1.766,0,0,0-.811.473,0.925,0.925,0,0,1-.648,1.581l-0.232-.03-0.374-.1a5.127,5.127,0,0,0,3.469,2.7,6.052,6.052,0,0,0,1.688.242,6.406,6.406,0,0,0,3.234-.907,1.715,1.715,0,0,1-.636-0.973,22.206,22.206,0,0,0-2.326.565l-0.177.032a0.492,0.492,0,0,1-.455-0.681l1.638-3.948a0.494,0.494,0,0,1,.458-0.3h0.024a0.494,0.494,0,0,1,.446.355A7.7,7.7,0,0,0,93.3,36.642a1.693,1.693,0,0,1,.564-0.283,20.363,20.363,0,0,0-.134-3.1,0.492,0.492,0,0,1,.707-0.544A19.6,19.6,0,0,0,86.748,22.742ZM61.934,49.057a11.544,11.544,0,0,1,2.162.23s-3.515,1.637-3.755,1.686H60.33c-0.229,0-.183-1.59-0.183-1.59A4.05,4.05,0,0,1,61.934,49.057Zm8.567-.684a11.7,11.7,0,0,1-4.815,1.108l-0.241-1.3a3.924,3.924,0,0,1,1.637-.278A16.264,16.264,0,0,1,70.5,48.373Zm3.516-1.108a17,17,0,0,0,2.552.915c-0.55.7-2.99,0.779-4.214,0.779-0.387,0-.652-0.008-0.7-0.008a5.341,5.341,0,0,1-.192-1.733s0.847-.094,1.576-0.094A2.111,2.111,0,0,1,74.017,47.265Zm6.79,0.626c0.433,0.29,2.071,1.3,2.071,1.3a4.651,4.651,0,0,1-1.04.079c-1.462,0-3.727-.223-3.727-0.223l0.1-1.541A10.255,10.255,0,0,1,80.806,47.891Zm6.694,1.4c0.289,0.193,1.686,1.445,1.686,1.445q-0.142.007-.286,0.007a13.551,13.551,0,0,1-4.145-.873l0.29-1.3A18.37,18.37,0,0,1,87.5,49.288Z"/>
  <path class="cls-14" d="M95.008,32.761a20.251,20.251,0,0,0-7.972-10.477,19.618,19.618,0,0,0-9.028-3.4l0.05-1.437a18.741,18.741,0,0,1,9.995,3.446,23.521,23.521,0,0,1,8.834,12.782ZM76.063,4.734a9.4,9.4,0,0,0,2.721-1.179l0.1,3.756a14.721,14.721,0,0,0-2.865-1.661ZM74.45,4.181A14.375,14.375,0,0,0,73.077,1.46l3.563,0.048a8.629,8.629,0,0,0-1.156,2.649ZM73.824,5.842a11.76,11.76,0,0,0-2.288,1.252l0.025-3.25A5.128,5.128,0,0,0,73.8,4.951ZM71.992,18.885a19.618,19.618,0,0,0-9.028,3.4,20.253,20.253,0,0,0-7.973,10.477l-1.877.915a23.517,23.517,0,0,1,8.833-12.782,18.745,18.745,0,0,1,10-3.446ZM55.642,36.372l-1.108.481-1.349-2.408,2.6-1.348A22.242,22.242,0,0,0,55.642,36.372ZM67.834,31.65a1.709,1.709,0,0,1,1.538,1.159,3.193,3.193,0,0,1-.289,2.408,2.451,2.451,0,0,0-.128,1.573,1.1,1.1,0,0,1-.963-1.092c-0.193-1.091-.289-1.573-0.546-1.733a0.639,0.639,0,0,0-.333-0.114,0.442,0.442,0,0,0-.341.178,7.647,7.647,0,0,0-.578,1.252l-0.385-.032s0.128-2.44,1.091-3.242A1.443,1.443,0,0,1,67.834,31.65Zm-1.376,3.764a0.434,0.434,0,0,1,.109.854l-2.456.634a0.429,0.429,0,0,1-.108.014,0.434,0.434,0,0,1-.108-0.854l2.455-.634A0.429,0.429,0,0,1,66.458,35.413Zm-1.082-.1-0.578.1a10.059,10.059,0,0,1-1.4-8.475C66.435,30.45,65.376,35.313,65.376,35.313Zm-8.434,1.734a7.7,7.7,0,0,0,1.252-2.552l1.638,3.948a26.179,26.179,0,0,0-2.6-.626Zm4.913-4.183a1.927,1.927,0,0,1,.584.09c1.06,0.337,1.878,2.5,1.878,2.5l-0.433.193a2.587,2.587,0,0,0-1.347-.787,0.6,0.6,0,0,0-.146.017c-0.963.24-.77,1.155-0.481,2.263,0.382,1.467-.466,1.542-0.642,1.542H61.235A3.421,3.421,0,0,0,60.752,37a2.943,2.943,0,0,1-.914-2.456A2.079,2.079,0,0,1,61.854,32.864Zm17.425,3.653s-1.589-1.59-2.7-1.637V33.435a5.492,5.492,0,0,0,2.745-1.445ZM73.5,34.88c-1.108.047-2.7,1.637-2.7,1.637L70.755,31.99A5.489,5.489,0,0,0,73.5,33.435V34.88Zm2.2-2.408H74.3a6.345,6.345,0,0,0-2.793-3.323h6.982A6.342,6.342,0,0,0,75.7,32.472ZM74.546,6.252l0.939-.025a26.945,26.945,0,0,0,1.06,2.793,7.367,7.367,0,0,0-1.9-.264,4.837,4.837,0,0,0-.991.1A27.369,27.369,0,0,0,74.546,6.252Zm2.766,22.191H72.688V17.4h4.624V28.443Zm10.359,4.42a2.08,2.08,0,0,1,2.017,1.679A2.94,2.94,0,0,1,88.772,37a3.419,3.419,0,0,0-.481,1.685H88.26c-0.177,0-1.026-.075-0.643-1.542,0.289-1.108.481-2.023-.482-2.263a0.593,0.593,0,0,0-.146-0.017,2.582,2.582,0,0,0-1.346.787l-0.433-.193s0.819-2.166,1.877-2.5A1.929,1.929,0,0,1,87.671,32.864Zm-2.944,2.546-0.578-.1s-1.059-4.863,1.974-8.379A10.056,10.056,0,0,1,84.727,35.409Zm1.214,1.18a0.435,0.435,0,0,1-.421.325,0.43,0.43,0,0,1-.108-0.014l-2.456-.634a0.434,0.434,0,0,1,.109-0.854,0.428,0.428,0,0,1,.108.014l2.456,0.634A0.436,0.436,0,0,1,85.942,36.59Zm-5.789-3.781a1.711,1.711,0,0,1,1.538-1.159,1.442,1.442,0,0,1,.933.357c0.964,0.8,1.092,3.242,1.092,3.242l-0.386.032a7.7,7.7,0,0,0-.578-1.252,0.442,0.442,0,0,0-.341-0.178,0.642,0.642,0,0,0-.333.114c-0.256.161-.353,0.642-0.545,1.733a1.1,1.1,0,0,1-.963,1.092,2.454,2.454,0,0,0-.129-1.573A3.2,3.2,0,0,1,80.152,32.809Zm11.654,1.686a7.7,7.7,0,0,0,1.252,2.552l-0.289.771a26.233,26.233,0,0,0-2.6.626ZM55.593,39.23a0.367,0.367,0,0,1,.242.091,6.762,6.762,0,0,0,4.076,1.392,6.589,6.589,0,0,0,1.84-.265c3.385-.98,3.956-3.423,3.979-3.527a0.37,0.37,0,0,1,.328-0.29h0.032a0.37,0.37,0,0,1,.342.228A3.643,3.643,0,0,0,69.9,38.865a5.887,5.887,0,0,0,.857-0.065c2.533-.371,3.743-3.4,3.754-3.428a0.37,0.37,0,0,1,.344-0.236h0.289a0.368,0.368,0,0,1,.344.236C75.5,35.4,76.71,38.429,79.243,38.8a5.909,5.909,0,0,0,.855.065,3.645,3.645,0,0,0,3.469-2.008A0.367,0.367,0,0,1,83.9,36.63l0.039,0a0.368,0.368,0,0,1,.326.29c0.022,0.1.594,2.546,3.979,3.526a6.587,6.587,0,0,0,1.839.265,6.768,6.768,0,0,0,4.077-1.392,0.369,0.369,0,1,1,.484.557,7.325,7.325,0,0,1-4.529,1.58,7.439,7.439,0,0,1-2.076-.3,6.372,6.372,0,0,1-4.221-3.321A4.513,4.513,0,0,1,80.092,39.6a6.623,6.623,0,0,1-.956-0.072c-2.35-.345-3.665-2.5-4.136-3.45-0.471.948-1.786,3.105-4.135,3.45a6.6,6.6,0,0,1-.958.073,4.512,4.512,0,0,1-3.729-1.767,6.372,6.372,0,0,1-4.221,3.321,7.413,7.413,0,0,1-2.075.3,7.33,7.33,0,0,1-4.529-1.58A0.369,0.369,0,0,1,55.593,39.23Zm18.9,0.433h1.013c0.106,0,10.433.093,17.888,3.844a0.369,0.369,0,0,1-.166.7l-0.165-.04C85.762,40.494,75.605,40.4,75.5,40.4h-1.01c-0.1,0-10.257.092-17.555,3.765a0.369,0.369,0,0,1-.332-0.66C64.062,39.756,74.389,39.664,74.492,39.663Zm0.026,1.381h0.962s0.207-.008.585-0.008a40.139,40.139,0,0,1,16.174,3.427L91.354,48.54a49.869,49.869,0,0,0-15.68-2.777H74.326a49.868,49.868,0,0,0-15.68,2.777L57.76,44.463a40.141,40.141,0,0,1,16.173-3.427C74.312,41.036,74.519,41.044,74.519,41.044Zm19.7-7.946,2.6,1.348-1.348,2.408-1.108-.481A22.228,22.228,0,0,0,94.214,33.1Z"/>
  <path class="cls-15" d="M97.505,33.471a1.22,1.22,0,1,1,1.219-1.22A1.22,1.22,0,0,1,97.505,33.471Zm-0.819-2.745a1.22,1.22,0,1,1,1.22-1.219A1.219,1.219,0,0,1,96.686,30.725Zm-1.4-2.744a1.22,1.22,0,1,1,1.221-1.22A1.22,1.22,0,0,1,95.289,27.981ZM93.6,25.525a1.22,1.22,0,1,1,1.22-1.22A1.219,1.219,0,0,1,93.6,25.525Zm-2.071-2.167a1.22,1.22,0,1,1,1.221-1.219A1.219,1.219,0,0,1,91.533,23.358Zm-2.455-1.926a1.22,1.22,0,1,1,1.22-1.219A1.22,1.22,0,0,1,89.078,21.432Zm-2.553-1.493a1.22,1.22,0,1,1,1.22-1.219A1.22,1.22,0,0,1,86.526,19.939Zm-2.89-1.4a1.22,1.22,0,1,1,1.221-1.22A1.22,1.22,0,0,1,83.636,18.542ZM80.7,17.676a1.22,1.22,0,1,1,1.221-1.22A1.22,1.22,0,0,1,80.7,17.676ZM75,35.253a1.22,1.22,0,1,1,1.22-1.22A1.22,1.22,0,0,1,75,35.253Zm0-7.127a1.22,1.22,0,1,1,1.22-1.22A1.22,1.22,0,0,1,75,28.126Zm1.22-3.917a1.22,1.22,0,1,1-1.417-1.2,1.22,1.22,0,0,1-.26-2.336,1.221,1.221,0,0,1,.065-2.287,1.22,1.22,0,1,1,.783,0,1.221,1.221,0,0,1,.065,2.287,1.22,1.22,0,0,1-.26,2.336A1.22,1.22,0,0,1,76.22,24.209ZM74.976,6.3A0.895,0.895,0,1,1,75.87,5.4,0.895,0.895,0,0,1,74.976,6.3ZM69.3,17.676a1.22,1.22,0,1,1,1.219-1.22A1.22,1.22,0,0,1,69.3,17.676Zm-2.938.866a1.22,1.22,0,1,1,1.22-1.22A1.22,1.22,0,0,1,66.364,18.542Zm-2.89,1.4a1.22,1.22,0,1,1,1.22-1.219A1.22,1.22,0,0,1,63.475,19.939Zm-2.552,1.493a1.22,1.22,0,1,1,1.22-1.219A1.219,1.219,0,0,1,60.923,21.432Zm-2.455,1.926a1.22,1.22,0,1,1,1.22-1.219A1.22,1.22,0,0,1,58.467,23.358Zm-0.852.948a1.22,1.22,0,1,1-1.22-1.22A1.219,1.219,0,0,1,57.616,24.305ZM55.93,26.761a1.22,1.22,0,1,1-1.219-1.219A1.22,1.22,0,0,1,55.93,26.761Zm-1.4,2.745a1.22,1.22,0,1,1-1.22-1.22A1.219,1.219,0,0,1,54.534,29.506Zm-0.818,2.745a1.22,1.22,0,1,1-1.22-1.22A1.22,1.22,0,0,1,53.716,32.251Zm1.953,4.8a1.22,1.22,0,1,1-1.219,1.22A1.22,1.22,0,0,1,55.669,37.05Zm38.589-.192a1.22,1.22,0,1,1-1.22,1.219A1.22,1.22,0,0,1,94.258,36.858Z"/>
  <path class="cls-16" d="M75.989,42.218H74.352a1.517,1.517,0,1,0,0,3.034h1.637a1.517,1.517,0,0,0,0-3.034"/>
  <path id="Shape_258_copy_2" data-name="Shape 258 copy 2" class="cls-17" d="M85.6,44.917A1.692,1.692,0,0,1,83.81,46.05a2.856,2.856,0,0,1-.559-0.056A1.877,1.877,0,0,1,81.5,44.1a1.689,1.689,0,0,1,1.792-1.132,2.852,2.852,0,0,1,.56.056A1.877,1.877,0,0,1,85.6,44.917Zm-19,1.093a2.9,2.9,0,0,1-.378.025,1.753,1.753,0,0,1-1.9-1.256A1.877,1.877,0,0,1,66.208,43a2.9,2.9,0,0,1,.377-0.025,1.753,1.753,0,0,1,1.9,1.256A1.878,1.878,0,0,1,66.6,46.01Z"/>
  <path id="Shape_258_copy" data-name="Shape 258 copy" class="cls-18" d="M92.981,47.11a0.964,0.964,0,0,1-1.209.627L90.395,47.3a0.963,0.963,0,0,1,.293-1.881,0.952,0.952,0,0,1,.289.045L92.354,45.9A0.966,0.966,0,0,1,92.981,47.11Zm-34.763.238a0.954,0.954,0,0,1-.279.042,0.963,0.963,0,0,1-.282-1.885l1.382-.421a0.953,0.953,0,0,1,.279-0.042,0.963,0.963,0,0,1,.282,1.884Z"/>
  <path class="cls-15" d="M78.978,14.772s-0.072-.019-0.2-0.05a4.154,4.154,0,0,1-7.633.02l-0.12.03a4.26,4.26,0,0,1-.289-2.359l0.131-.033a4.157,4.157,0,0,1,3.168-3.334V8.874a2.316,2.316,0,0,1,.795-0.12h0.348a2.309,2.309,0,0,1,.794.12V9.068a4.157,4.157,0,0,1,3.072,3.291c0.082,0.017.158,0.035,0.227,0.054A4.256,4.256,0,0,1,78.978,14.772Z"/>
  <path id="Shape_260_copy" data-name="Shape 260 copy" class="cls-2" d="M74.954,8.943a4.162,4.162,0,0,0-.922.1v3.03a22.873,22.873,0,0,0-3.168.3,4.169,4.169,0,0,0,.278,2.362,16.061,16.061,0,0,1,3.588-.426H75.27a16.114,16.114,0,0,1,3.5.407,4.137,4.137,0,0,0,.331-1.627,4.184,4.184,0,0,0-.065-0.736,24.136,24.136,0,0,0-3.072-.283V9.068a4.162,4.162,0,0,0-1.015-.125"/>
  <path class="cls-19" d="M74.434,87.4a3.684,3.684,0,0,0-.579,1.219l-0.834-.064a4.3,4.3,0,0,0,.193,1.348,1.379,1.379,0,0,1-.545-0.193,0.762,0.762,0,0,0-.447-0.134c-0.094,0-.164.021-0.164,0.07a5.983,5.983,0,0,0,.258.8l-0.706-.289a4.472,4.472,0,0,0,.289.738,0.624,0.624,0,0,0,.26.266l-0.035-.009a0.8,0.8,0,0,0,.224.546,3.922,3.922,0,0,1,.738.771c0.018,0.072-.085.114-0.2,0.114a0.362,0.362,0,0,1-.246-0.082c-0.129-.129-0.931-0.707-1.349-1a1.458,1.458,0,0,0-.807-0.208,1.878,1.878,0,0,0-.252.015l-0.1.418-0.738-.225L69.843,92.6l-0.642.128L70,93.277a1.2,1.2,0,0,0,.513.642c0.289,0.064,1.06.193,1.06,0.193a0.673,0.673,0,0,1-.385.193c-0.192,0-1.637-.161-1.637-0.161l-0.032.546,0.386,0.482-1.028.706a1.486,1.486,0,0,0,.948.231c0.124,0,.209-0.006.209-0.006l-0.257.449a3.675,3.675,0,0,0,1.65.569,1.2,1.2,0,0,0,.47-0.087,3.663,3.663,0,0,0,1.412-1.284l0.257,0.064a5.411,5.411,0,0,0,.449,2.794,3.245,3.245,0,0,1,.353,1.926l1.092,0.065c-0.1-.868-0.771-2.119-1.027-3.18a2.3,2.3,0,0,1,.192-1.733l0.289,0.1a1.778,1.778,0,0,0,.77.9,3.213,3.213,0,0,0,1.124.225l-0.193-.386,0.642,0.064-0.032-.321,0.578,0.1-0.1-.289a4.409,4.409,0,0,0,.674.064,1.588,1.588,0,0,0,.738-0.321L78.03,95.3s0.288-.064.482-0.1a0.457,0.457,0,0,0,.289-0.258,6.679,6.679,0,0,0-1-.289l0.1-.289a1.246,1.246,0,0,0-.221-0.018c-0.306,0-.64.082-0.871,0.082a0.346,0.346,0,0,1-.353-0.225l0.353-.193a3.817,3.817,0,0,0,1.38-.224,2.423,2.423,0,0,0,.642-0.867l-0.674-.16a1.46,1.46,0,0,0,.545-0.386l-0.61-.032a1.852,1.852,0,0,0,.8-0.8,2.149,2.149,0,0,0-.423-0.041,1.868,1.868,0,0,0-.187.009,3.126,3.126,0,0,0-.9.386,1.552,1.552,0,0,0-.289-0.611l-0.9.77a3.126,3.126,0,0,1-.792.228l-0.043,0c-0.224-.032.257-0.513,0.546-0.706a4.031,4.031,0,0,0,.706-1.124l-0.45-.032a1.43,1.43,0,0,0,.193-0.995l-0.675.1a2.267,2.267,0,0,0-.417-1.22l-0.321.224a3.067,3.067,0,0,0-.513-1.123"/>
</svg>
