<svg xmlns="http://www.w3.org/2000/svg" width="150" height="150" viewBox="0 0 150 150">
  <defs>
    <style>
      .cls-1 {
        fill: #f6f6f6;
      }

      .cls-2 {
        fill: #1a1a1a;
      }

      .cls-3 {
        fill: #ffe12e;
      }

      .cls-4 {
        fill: none;
        stroke: #1a1a1a;
        stroke-miterlimit: 10;
        stroke-width: 1.51713px;
      }

      .cls-5 {
        fill: #c1272d;
      }
    </style>
  </defs>
  <g id="Layer_6" data-name="Layer 6">
    <g>
      <circle class="cls-1" cx="75" cy="75" r="73.82609"/>
      <circle class="cls-2" cx="75" cy="75" r="72.33508"/>
      <circle class="cls-1" cx="75" cy="75" r="56.42737"/>
      <circle class="cls-3" cx="75" cy="75" r="53.42591"/>
      <circle class="cls-4" cx="75" cy="75" r="53.72606"/>
      <g>
        <polygon class="cls-1" points="135.3 53.088 136.321 52.067 136.895 53.662 137.661 54.81 136.066 55.129 135.492 55.958 134.79 54.746 133.642 53.79 135.3 53.088"/>
        <polygon class="cls-1" points="131.218 51.43 133.132 51.43 133.578 49.069 131.665 49.261 131.409 50.281 130.516 50.537 131.218 51.43"/>
        <polygon class="cls-1" points="131.771 57.118 132.692 55.44 130.792 53.889 130.043 55.661 130.835 56.386 130.634 57.295 131.771 57.118"/>
        <polygon class="cls-1" points="133.486 59.736 135.39 59.925 136.072 57.569 134.149 57.575 133.792 58.587 132.878 58.758 133.486 59.736"/>
        <polygon class="cls-1" points="137.783 56.588 138.512 58.358 140.912 57.852 140.002 56.157 138.941 56.318 138.36 55.592 137.783 56.588"/>
        <polygon class="cls-1" points="138.804 52.315 139.533 54.084 141.932 53.578 141.023 51.883 139.961 52.045 139.38 51.318 138.804 52.315"/>
        <polygon class="cls-1" points="135.551 48.934 136.28 50.703 138.679 50.197 137.77 48.503 136.708 48.664 136.127 47.938 135.551 48.934"/>
      </g>
      <g>
        <polygon class="cls-1" points="138.977 73.723 139.998 72.702 140.572 74.297 141.337 75.445 139.743 75.764 139.169 76.593 138.467 75.381 137.319 74.425 138.977 73.723"/>
        <polygon class="cls-1" points="134.895 72.065 136.808 72.065 137.255 69.704 135.341 69.896 135.086 70.916 134.193 71.172 134.895 72.065"/>
        <polygon class="cls-1" points="135.448 77.753 136.368 76.075 134.469 74.524 133.72 76.296 134.512 77.021 134.311 77.93 135.448 77.753"/>
        <polygon class="cls-1" points="137.162 80.371 139.067 80.56 139.749 78.204 137.826 78.21 137.469 79.222 136.554 79.393 137.162 80.371"/>
        <polygon class="cls-1" points="141.46 77.223 142.189 78.993 144.589 78.487 143.679 76.792 142.618 76.953 142.036 76.227 141.46 77.223"/>
        <polygon class="cls-1" points="142.481 72.95 143.21 74.719 145.609 74.213 144.699 72.518 143.638 72.68 143.057 71.953 142.481 72.95"/>
        <polygon class="cls-1" points="139.227 69.569 139.956 71.338 142.356 70.832 141.446 69.138 140.385 69.299 139.804 68.573 139.227 69.569"/>
      </g>
      <g>
        <polygon class="cls-1" points="135.891 94.581 136.912 93.56 137.486 95.155 138.251 96.303 136.656 96.622 136.082 97.451 135.381 96.239 134.233 95.282 135.891 94.581"/>
        <polygon class="cls-1" points="131.809 92.922 133.722 92.922 134.169 90.562 132.255 90.754 132 91.774 131.107 92.029 131.809 92.922"/>
        <polygon class="cls-1" points="132.362 98.611 133.282 96.933 131.383 95.382 130.634 97.154 131.425 97.879 131.224 98.787 132.362 98.611"/>
        <polygon class="cls-1" points="134.076 101.228 135.98 101.418 136.663 99.062 134.739 99.068 134.382 100.08 133.468 100.251 134.076 101.228"/>
        <polygon class="cls-1" points="138.374 98.081 139.103 99.85 141.502 99.345 140.593 97.65 139.531 97.811 138.95 97.085 138.374 98.081"/>
        <polygon class="cls-1" points="139.394 93.807 140.123 95.577 142.523 95.071 141.613 93.376 140.552 93.537 139.971 92.811 139.394 93.807"/>
        <polygon class="cls-1" points="136.141 90.427 136.87 92.196 139.27 91.69 138.36 89.995 137.299 90.157 136.718 89.43 136.141 90.427"/>
      </g>
      <g>
        <polygon class="cls-1" points="125.986 112.439 127.007 111.419 127.581 113.014 128.346 114.162 126.752 114.481 126.178 115.31 125.476 114.098 124.328 113.141 125.986 112.439"/>
        <polygon class="cls-1" points="121.904 110.781 123.817 110.781 124.264 108.421 122.35 108.612 122.095 109.633 121.202 109.888 121.904 110.781"/>
        <polygon class="cls-1" points="122.457 116.47 123.377 114.792 121.478 113.241 120.729 115.012 121.521 115.738 121.32 116.646 122.457 116.47"/>
        <polygon class="cls-1" points="124.171 119.087 126.076 119.276 126.758 116.921 124.835 116.926 124.478 117.939 123.563 118.11 124.171 119.087"/>
        <polygon class="cls-1" points="128.469 115.94 129.198 117.709 131.598 117.203 130.688 115.508 129.626 115.67 129.045 114.943 128.469 115.94"/>
        <polygon class="cls-1" points="129.49 111.666 130.219 113.435 132.618 112.929 131.708 111.235 130.647 111.396 130.066 110.67 129.49 111.666"/>
        <polygon class="cls-1" points="126.236 108.285 126.965 110.055 129.365 109.549 128.455 107.854 127.394 108.015 126.813 107.289 126.236 108.285"/>
      </g>
      <g>
        <polygon class="cls-1" points="110.679 127.597 111.699 126.576 112.273 128.171 113.039 129.319 111.444 129.638 110.87 130.467 110.168 129.255 109.02 128.298 110.679 127.597"/>
        <polygon class="cls-1" points="106.596 125.938 108.51 125.938 108.956 123.578 107.043 123.77 106.788 124.79 105.895 125.045 106.596 125.938"/>
        <polygon class="cls-1" points="107.15 131.627 108.07 129.949 106.17 128.398 105.422 130.17 106.213 130.895 106.012 131.803 107.15 131.627"/>
        <polygon class="cls-1" points="108.864 134.244 110.768 134.434 111.451 132.078 109.527 132.084 109.17 133.096 108.256 133.267 108.864 134.244"/>
        <polygon class="cls-1" points="113.162 131.097 113.891 132.866 116.29 132.361 115.38 130.666 114.319 130.827 113.738 130.101 113.162 131.097"/>
        <polygon class="cls-1" points="114.182 126.823 114.911 128.593 117.311 128.087 116.401 126.392 115.34 126.553 114.758 125.827 114.182 126.823"/>
        <polygon class="cls-1" points="110.929 123.443 111.658 125.212 114.058 124.706 113.148 123.011 112.087 123.173 111.505 122.446 110.929 123.443"/>
      </g>
      <g>
        <polygon class="cls-1" points="90.719 136.451 91.74 135.43 92.314 137.025 93.079 138.173 91.485 138.492 90.91 139.321 90.209 138.11 89.061 137.153 90.719 136.451"/>
        <polygon class="cls-1" points="86.637 134.793 88.55 134.793 88.997 132.433 87.083 132.624 86.828 133.644 85.935 133.9 86.637 134.793"/>
        <polygon class="cls-1" points="87.19 140.481 88.11 138.803 86.211 137.252 85.462 139.024 86.253 139.749 86.052 140.658 87.19 140.481"/>
        <polygon class="cls-1" points="88.904 143.099 90.808 143.288 91.491 140.932 89.568 140.938 89.211 141.95 88.296 142.122 88.904 143.099"/>
        <polygon class="cls-1" points="93.202 139.951 93.931 141.721 96.331 141.215 95.421 139.52 94.359 139.681 93.778 138.955 93.202 139.951"/>
        <polygon class="cls-1" points="94.222 135.678 94.951 137.447 97.351 136.941 96.441 135.246 95.38 135.408 94.799 134.681 94.222 135.678"/>
        <polygon class="cls-1" points="90.969 132.297 91.698 134.066 94.098 133.56 93.188 131.866 92.127 132.027 91.546 131.301 90.969 132.297"/>
      </g>
      <g>
        <polygon class="cls-1" points="67.308 138.102 68.328 137.081 68.902 138.676 69.668 139.824 68.073 140.143 67.499 140.972 66.797 139.76 65.649 138.804 67.308 138.102"/>
        <polygon class="cls-1" points="63.225 136.443 65.139 136.443 65.585 134.083 63.672 134.275 63.417 135.295 62.524 135.55 63.225 136.443"/>
        <polygon class="cls-1" points="63.779 142.132 64.699 140.454 62.799 138.903 62.051 140.675 62.842 141.4 62.641 142.308 63.779 142.132"/>
        <polygon class="cls-1" points="65.493 144.75 67.397 144.939 68.08 142.583 66.156 142.589 65.799 143.601 64.885 143.772 65.493 144.75"/>
        <polygon class="cls-1" points="69.791 141.602 70.52 143.371 72.919 142.866 72.009 141.171 70.948 141.332 70.367 140.606 69.791 141.602"/>
        <polygon class="cls-1" points="70.811 137.328 71.54 139.098 73.94 138.592 73.03 136.897 71.969 137.058 71.387 136.332 70.811 137.328"/>
        <polygon class="cls-1" points="67.558 133.948 68.287 135.717 70.687 135.211 69.777 133.516 68.715 133.678 68.134 132.951 67.558 133.948"/>
      </g>
      <g>
        <polygon class="cls-1" points="46.298 131.649 47.318 130.628 47.892 132.223 48.658 133.371 47.063 133.69 46.489 134.519 45.787 133.307 44.639 132.35 46.298 131.649"/>
        <polygon class="cls-1" points="42.215 129.99 44.129 129.99 44.575 127.63 42.662 127.822 42.407 128.842 41.514 129.097 42.215 129.99"/>
        <polygon class="cls-1" points="42.768 135.679 43.689 134.001 41.789 132.45 41.04 134.222 41.832 134.947 41.631 135.855 42.768 135.679"/>
        <polygon class="cls-1" points="44.483 138.296 46.387 138.486 47.07 136.13 45.146 136.136 44.789 137.148 43.875 137.319 44.483 138.296"/>
        <polygon class="cls-1" points="48.78 135.149 49.509 136.918 51.909 136.412 50.999 134.718 49.938 134.879 49.357 134.153 48.78 135.149"/>
        <polygon class="cls-1" points="49.801 130.875 50.53 132.645 52.93 132.139 52.02 130.444 50.958 130.605 50.377 129.879 49.801 130.875"/>
        <polygon class="cls-1" points="46.548 127.495 47.277 129.264 49.676 128.758 48.767 127.063 47.705 127.225 47.124 126.498 46.548 127.495"/>
      </g>
      <g>
        <polygon class="cls-1" points="28.889 120.093 29.91 119.073 30.484 120.667 31.249 121.815 29.655 122.134 29.08 122.964 28.379 121.752 27.231 120.795 28.889 120.093"/>
        <polygon class="cls-1" points="24.807 118.435 26.72 118.435 27.167 116.075 25.253 116.266 24.998 117.287 24.105 117.542 24.807 118.435"/>
        <polygon class="cls-1" points="25.36 124.123 26.28 122.446 24.381 120.894 23.632 122.666 24.423 123.391 24.223 124.3 25.36 124.123"/>
        <polygon class="cls-1" points="27.074 126.741 28.978 126.93 29.661 124.575 27.738 124.58 27.381 125.592 26.466 125.764 27.074 126.741"/>
        <polygon class="cls-1" points="31.372 123.593 32.101 125.363 34.501 124.857 33.591 123.162 32.529 123.323 31.948 122.597 31.372 123.593"/>
        <polygon class="cls-1" points="32.392 119.32 33.121 121.089 35.521 120.583 34.611 118.888 33.55 119.05 32.969 118.323 32.392 119.32"/>
        <polygon class="cls-1" points="29.139 115.939 29.868 117.708 32.268 117.202 31.358 115.508 30.297 115.669 29.716 114.943 29.139 115.939"/>
      </g>
      <g>
        <polygon class="cls-1" points="16.283 101.634 17.304 100.614 17.878 102.208 18.643 103.356 17.048 103.675 16.474 104.505 15.773 103.293 14.625 102.336 16.283 101.634"/>
        <polygon class="cls-1" points="12.201 99.976 14.114 99.976 14.561 97.616 12.647 97.807 12.392 98.828 11.499 99.083 12.201 99.976"/>
        <polygon class="cls-1" points="12.754 105.664 13.674 103.987 11.775 102.435 11.026 104.207 11.817 104.932 11.616 105.841 12.754 105.664"/>
        <polygon class="cls-1" points="14.468 108.282 16.372 108.471 17.055 106.116 15.131 106.121 14.774 107.133 13.86 107.305 14.468 108.282"/>
        <polygon class="cls-1" points="18.766 105.134 19.495 106.904 21.894 106.398 20.985 104.703 19.923 104.864 19.342 104.138 18.766 105.134"/>
        <polygon class="cls-1" points="19.786 100.861 20.515 102.63 22.915 102.124 22.005 100.429 20.944 100.591 20.363 99.864 19.786 100.861"/>
        <polygon class="cls-1" points="16.533 97.48 17.262 99.249 19.662 98.744 18.752 97.049 17.691 97.21 17.11 96.484 16.533 97.48"/>
      </g>
      <g>
        <polygon class="cls-1" points="9.98 79.573 11 78.553 11.575 80.148 12.34 81.296 10.745 81.615 10.171 82.444 9.47 81.232 8.321 80.275 9.98 79.573"/>
        <polygon class="cls-1" points="5.898 77.915 7.811 77.915 8.258 75.555 6.344 75.746 6.089 76.767 5.196 77.022 5.898 77.915"/>
        <polygon class="cls-1" points="6.451 83.604 7.371 81.926 5.472 80.375 4.723 82.147 5.514 82.872 5.313 83.78 6.451 83.604"/>
        <polygon class="cls-1" points="8.165 86.221 10.069 86.41 10.752 84.055 8.828 84.06 8.471 85.073 7.557 85.244 8.165 86.221"/>
        <polygon class="cls-1" points="12.463 83.074 13.192 84.843 15.591 84.337 14.682 82.642 13.62 82.804 13.039 82.077 12.463 83.074"/>
        <polygon class="cls-1" points="13.483 78.8 14.212 80.569 16.612 80.064 15.702 78.369 14.641 78.53 14.06 77.804 13.483 78.8"/>
        <polygon class="cls-1" points="10.23 75.419 10.959 77.189 13.359 76.683 12.449 74.988 11.388 75.149 10.806 74.423 10.23 75.419"/>
      </g>
      <g>
        <polygon class="cls-1" points="12.831 55.412 13.852 54.391 14.426 55.986 15.191 57.134 13.597 57.453 13.023 58.282 12.321 57.07 11.173 56.113 12.831 55.412"/>
        <polygon class="cls-1" points="8.749 53.753 10.663 53.753 11.109 51.393 9.195 51.585 8.94 52.605 8.047 52.86 8.749 53.753"/>
        <polygon class="cls-1" points="9.302 59.442 10.222 57.764 8.323 56.213 7.574 57.985 8.366 58.71 8.165 59.618 9.302 59.442"/>
        <polygon class="cls-1" points="11.016 62.059 12.921 62.249 13.603 59.893 11.68 59.899 11.323 60.911 10.408 61.082 11.016 62.059"/>
        <polygon class="cls-1" points="15.314 58.912 16.043 60.681 18.443 60.176 17.533 58.481 16.472 58.642 15.89 57.916 15.314 58.912"/>
        <polygon class="cls-1" points="16.335 54.638 17.064 56.408 19.463 55.902 18.554 54.207 17.492 54.368 16.911 53.642 16.335 54.638"/>
        <polygon class="cls-1" points="13.082 51.258 13.811 53.027 16.21 52.521 15.3 50.826 14.239 50.988 13.658 50.261 13.082 51.258"/>
      </g>
      <g>
        <polygon class="cls-1" points="21.686 36.653 22.706 35.632 23.28 37.227 24.046 38.375 22.451 38.694 21.877 39.523 21.175 38.311 20.027 37.354 21.686 36.653"/>
        <polygon class="cls-1" points="17.603 34.994 19.517 34.994 19.963 32.634 18.05 32.825 17.795 33.846 16.902 34.101 17.603 34.994"/>
        <polygon class="cls-1" points="18.156 40.683 19.077 39.005 17.177 37.454 16.428 39.226 17.22 39.951 17.019 40.859 18.156 40.683"/>
        <polygon class="cls-1" points="19.871 43.3 21.775 43.49 22.458 41.134 20.534 41.14 20.177 42.152 19.263 42.323 19.871 43.3"/>
        <polygon class="cls-1" points="24.168 40.153 24.897 41.922 27.297 41.416 26.387 39.722 25.326 39.883 24.745 39.157 24.168 40.153"/>
        <polygon class="cls-1" points="25.189 35.879 25.918 37.649 28.318 37.143 27.408 35.448 26.346 35.609 25.765 34.883 25.189 35.879"/>
        <polygon class="cls-1" points="21.936 32.499 22.665 34.268 25.064 33.762 24.155 32.067 23.093 32.229 22.512 31.502 21.936 32.499"/>
      </g>
      <g>
        <polygon class="cls-1" points="36.393 22.246 37.413 21.225 37.987 22.82 38.753 23.968 37.158 24.287 36.584 25.116 35.882 23.904 34.734 22.947 36.393 22.246"/>
        <polygon class="cls-1" points="32.31 20.587 34.224 20.587 34.67 18.227 32.757 18.418 32.502 19.439 31.609 19.694 32.31 20.587"/>
        <polygon class="cls-1" points="32.864 26.276 33.784 24.598 31.884 23.047 31.136 24.819 31.927 25.544 31.726 26.452 32.864 26.276"/>
        <polygon class="cls-1" points="34.578 28.893 36.482 29.083 37.165 26.727 35.241 26.733 34.884 27.745 33.97 27.916 34.578 28.893"/>
        <polygon class="cls-1" points="38.876 25.746 39.605 27.515 42.004 27.009 41.094 25.315 40.033 25.476 39.452 24.75 38.876 25.746"/>
        <polygon class="cls-1" points="39.896 21.472 40.625 23.242 43.025 22.736 42.115 21.041 41.054 21.202 40.472 20.476 39.896 21.472"/>
        <polygon class="cls-1" points="36.643 18.092 37.372 19.861 39.772 19.355 38.862 17.66 37.801 17.822 37.219 17.095 36.643 18.092"/>
      </g>
      <g>
        <polygon class="cls-1" points="54.101 13.391 55.122 12.371 55.696 13.965 56.461 15.114 54.867 15.433 54.293 16.262 53.591 15.05 52.443 14.093 54.101 13.391"/>
        <polygon class="cls-1" points="50.019 11.733 51.933 11.733 52.379 9.373 50.465 9.564 50.21 10.585 49.317 10.84 50.019 11.733"/>
        <polygon class="cls-1" points="50.572 17.422 51.492 15.744 49.593 14.193 48.844 15.964 49.636 16.69 49.435 17.598 50.572 17.422"/>
        <polygon class="cls-1" points="52.286 20.039 54.191 20.228 54.873 17.873 52.95 17.878 52.593 18.891 51.678 19.062 52.286 20.039"/>
        <polygon class="cls-1" points="56.584 16.892 57.313 18.661 59.713 18.155 58.803 16.46 57.742 16.622 57.16 15.895 56.584 16.892"/>
        <polygon class="cls-1" points="57.605 12.618 58.334 14.387 60.733 13.881 59.824 12.187 58.762 12.348 58.181 11.622 57.605 12.618"/>
        <polygon class="cls-1" points="54.352 9.237 55.081 11.007 57.48 10.501 56.57 8.806 55.509 8.967 54.928 8.241 54.352 9.237"/>
      </g>
      <g>
        <polygon class="cls-1" points="75.262 9.79 76.282 8.769 76.856 10.364 77.622 11.512 76.027 11.831 75.453 12.66 74.751 11.448 73.603 10.491 75.262 9.79"/>
        <polygon class="cls-1" points="71.179 8.131 73.093 8.131 73.539 5.771 71.626 5.962 71.371 6.983 70.478 7.238 71.179 8.131"/>
        <polygon class="cls-1" points="71.732 13.82 72.653 12.142 70.753 10.591 70.004 12.363 70.796 13.088 70.595 13.996 71.732 13.82"/>
        <polygon class="cls-1" points="73.447 16.437 75.351 16.626 76.034 14.271 74.11 14.276 73.753 15.289 72.839 15.46 73.447 16.437"/>
        <polygon class="cls-1" points="77.744 13.29 78.473 15.059 80.873 14.553 79.963 12.859 78.902 13.02 78.321 12.294 77.744 13.29"/>
        <polygon class="cls-1" points="78.765 9.016 79.494 10.786 81.894 10.28 80.984 8.585 79.922 8.746 79.341 8.02 78.765 9.016"/>
        <polygon class="cls-1" points="75.512 5.636 76.241 7.405 78.64 6.899 77.731 5.204 76.669 5.366 76.088 4.639 75.512 5.636"/>
      </g>
      <g>
        <polygon class="cls-1" points="96.422 13.842 97.442 12.821 98.016 14.416 98.782 15.564 97.187 15.883 96.613 16.712 95.912 15.5 94.763 14.543 96.422 13.842"/>
        <polygon class="cls-1" points="92.339 12.183 94.253 12.183 94.7 9.823 92.786 10.014 92.531 11.035 91.638 11.29 92.339 12.183"/>
        <polygon class="cls-1" points="92.893 17.872 93.813 16.194 91.914 14.643 91.165 16.415 91.956 17.14 91.755 18.048 92.893 17.872"/>
        <polygon class="cls-1" points="94.607 20.489 96.511 20.678 97.194 18.323 95.27 18.328 94.913 19.341 93.999 19.512 94.607 20.489"/>
        <polygon class="cls-1" points="98.905 17.342 99.634 19.111 102.033 18.605 101.123 16.911 100.062 17.072 99.481 16.346 98.905 17.342"/>
        <polygon class="cls-1" points="99.925 13.068 100.654 14.837 103.054 14.332 102.144 12.637 101.083 12.798 100.501 12.072 99.925 13.068"/>
        <polygon class="cls-1" points="96.672 9.687 97.401 11.457 99.801 10.951 98.891 9.256 97.83 9.417 97.248 8.691 96.672 9.687"/>
      </g>
      <g>
        <polygon class="cls-1" points="112.9 22.558 113.921 21.537 114.495 23.132 115.261 24.28 113.666 24.599 113.092 25.428 112.39 24.216 111.242 23.259 112.9 22.558"/>
        <polygon class="cls-1" points="108.818 20.899 110.732 20.899 111.178 18.539 109.265 18.731 109.009 19.751 108.116 20.006 108.818 20.899"/>
        <polygon class="cls-1" points="109.371 26.588 110.292 24.91 108.392 23.359 107.643 25.131 108.435 25.856 108.234 26.764 109.371 26.588"/>
        <polygon class="cls-1" points="111.086 29.206 112.99 29.395 113.672 27.039 111.749 27.045 111.392 28.057 110.478 28.228 111.086 29.206"/>
        <polygon class="cls-1" points="115.383 26.058 116.112 27.827 118.512 27.322 117.602 25.627 116.541 25.788 115.96 25.062 115.383 26.058"/>
        <polygon class="cls-1" points="116.404 21.784 117.133 23.554 119.533 23.048 118.623 21.353 117.561 21.514 116.98 20.788 116.404 21.784"/>
        <polygon class="cls-1" points="113.151 18.404 113.88 20.173 116.279 19.667 115.37 17.972 114.308 18.134 113.727 17.407 113.151 18.404"/>
      </g>
      <g>
        <polygon class="cls-1" points="126.107 35.764 127.127 34.744 127.702 36.338 128.467 37.486 126.872 37.805 126.298 38.635 125.597 37.423 124.448 36.466 126.107 35.764"/>
        <polygon class="cls-1" points="122.025 34.106 123.938 34.106 124.385 31.746 122.471 31.937 122.216 32.958 121.323 33.213 122.025 34.106"/>
        <polygon class="cls-1" points="122.578 39.794 123.498 38.117 121.599 36.565 120.85 38.337 121.641 39.062 121.44 39.971 122.578 39.794"/>
        <polygon class="cls-1" points="124.292 42.412 126.196 42.601 126.879 40.246 124.955 40.251 124.598 41.264 123.684 41.435 124.292 42.412"/>
        <polygon class="cls-1" points="128.59 39.265 129.319 41.034 131.718 40.528 130.809 38.833 129.747 38.995 129.166 38.268 128.59 39.265"/>
        <polygon class="cls-1" points="129.61 34.991 130.339 36.76 132.739 36.254 131.829 34.559 130.768 34.721 130.187 33.994 129.61 34.991"/>
        <polygon class="cls-1" points="126.357 31.61 127.086 33.379 129.486 32.874 128.576 31.179 127.515 31.34 126.933 30.614 126.357 31.61"/>
      </g>
      <g>
        <path class="cls-2" d="M119.42152,79.202c-.30009-5.55269-2.55121-20.56-13.6566-22.21076s-14.25688,4.202-17.40846,8.85428C85.205,70.4978,81.7533,75,79.80227,75.75036c-1.95093.75037-8.55409-2.8514-10.80521-4.50219s-4.50213-7.35355-7.80372-13.65662a31.66,31.66,0,0,0-8.55418-10.05489c2.55121-1.95093,4.95242-1.35065,5.85288-1.80086,1.07378-.53691-2.85149-2.40116-3.45167-2.40116-.60037,0,.60018-2.40116.75037-3.15153.15-.75037-1.80093-1.05051-2.5513-.90044s.45018-2.101.30018-3.15152c-.15009-1.05051-2.101.60028-2.85139.90042s-.75037-2.101-1.20065-2.40116c-.45019-.30014-2.8513,1.95095-3.45168,2.25109-.60018.30014-1.20055-2.101-1.80083-1.80086s-2.55121,5.85284-2.55121,5.85284a3.07732,3.07732,0,0,0-1.20056,2.101l-1.50074.90042a2.14706,2.14706,0,0,0-.35384.28869c-.03287.00417-.06283.007-.09635.01147a7.0565,7.0565,0,0,0-5.3277,3.67677,5.57924,5.57924,0,0,1,2.50655.1588c-1.879,2.78211-3.03173,4.86864-3.03173,4.86864.45018-.075,5.85288-1.05051,6.37807-1.2756.52528-.22512-.1501,3.15151-.52519,4.35209A4.04448,4.04448,0,0,0,40.108,59.84264c1.05056.67533,3.45168.90044,4.27714-.97547.82537-1.8759-.90046-4.95241-1.12556-5.32758s.60028-.90044,1.42575-.82541c.82537.075,2.40111,1.72583,4.277,5.02744s2.55121,6.52816,2.101,12.53109-.30019,12.30595.52527,13.88172c.82538,1.57576,5.55261,8.47911,7.87882,10.73021,2.32611,2.25109,5.32751,3.22655,6.153,3.67679.82538.45021,1.95093,4.127,2.176,4.65225s-.45019,3.5267-.75038,4.65226-2.4762,7.35355-2.77639,8.40407c-.30009,1.05051-.90037,3.3016-1.87584,3.22655a1.79314,1.79314,0,0,0-1.50074.60031,6.03111,6.03111,0,0,0-4.127,2.026c-1.35075-.22509-3.67686,1.27563-4.05205,1.87591-.37509.6003.90046,1.05051,6.003,3.00146,5.10241,1.951,18.53392,2.7013,18.90911,2.47621s.97546-2.25109.52528-3.9019-2.47621-2.62628-2.8514-3.00145,0-3.82686,0-3.82686,7.20354.60028,8.77928.52526,3.60177-2.40116,3.15149-2.92642c-.45019-.52525-.75037.45021-3.0014,1.05051-2.25111.60028-5.10251-.15007-5.3276-.67532s2.9264-.97549,3.52667-1.35068.82538-2.176-.45018-1.35065c-1.27565.8254-4.65223,1.65082-4.87742,1.20058-.22509-.45021,1.12565-4.35211,1.27565-4.87734.15009-.52526,2.25112-2.17607,2.25112-3.45168s-2.026-2.92644-2.026-2.92644c.67538-3.15151-.97546-4.50216-1.42565-5.92786a4.37769,4.37769,0,0,1,0-2.62628c8.85428.6003,17.33337.90044,18.534-.22512,1.20056-1.12553-2.17611-3.60174-3.22658-4.27706-1.05055-.67533-2.77639-1.35066-1.05055-1.57577s2.77639-1.80086,3.37667-1.87591,2.251,1.27563,3.15149,1.80089.45028-1.4257-.67528-2.77635-1.65084-2.2511-.75037-2.70133.82537.67535,1.27555,1.35068c.45028.67532,1.05056.22509,2.40121,1.2756s.90047,2.8514,1.57575,3.97693c.67537,1.12556,1.65083-.45021,1.57583-1.65079-.07509-1.20058-.60037-.37519-.82546-2.62628s2.101.15007,2.47621.90044a50.238,50.238,0,0,1,2.25111,4.50219c.37519,1.12553,1.80084.82539,2.25112-.22512.45019-1.05051-1.65084-2.92642-2.40121-3.82686s-1.27556-1.72584-.82537-2.77635,1.20056-.67532,1.65074.075a15.97308,15.97308,0,0,1,.82547,2.47619c.30009.75037,1.27556,4.202,2.32611,2.62627,1.05047-1.57576-.22518-1.95093-.67537-3.60174s1.35065-1.50072,1.80093.30014c.45019,1.80088.60028,2.25109,1.65075,2.40116,1.05055.1501,0-3.15151.30018-4.052s1.35065.45021,1.20056-1.20058-.60028-2.7013,1.20056-1.65082c1.80093,1.05052,1.50074,7.50365,1.05056,9.60468s-.90047,4.65225.90037,3.75181C120.322,94.50945,119.72171,84.75473,119.42152,79.202ZM70.6979,118.82124c-.40018.80039-1.80084,1.10053-3.10149.90044-.57659-.08869.3001-1.80086,1.10056-1.80086C69.49734,117.92082,71.09809,118.02087,70.6979,118.82124Zm1.70084-4.40212c-.20009.30014-3.50168.20009-3.10149-.20011a63.707,63.707,0,0,0,3.10149-8.40407s1.70084,1.00048,1.80093,1.60076A47.74873,47.74873,0,0,1,72.39874,114.41912Z"/>
        <path class="cls-1" d="M61.49345,90.30742s-5.30257-7.00339-5.30257-9.80475.90043-5.30257,4.202-5.70277,8.10393.90044,8.10393.90044S61.5935,72.29869,58.2919,71.6984s-5.20253,1.10053-5.80282,2.30111-1.10053,7.10345,1.10054,10.7052S61.49345,90.30742,61.49345,90.30742Z"/>
        <path class="cls-1" d="M54.39,62.694s2.40117,3.5017,9.80476,6.103c0,0-2.60126-3.90189-3.1015-6.00291a8.14153,8.14153,0,0,0-5.50267-5.90286,2.551,2.551,0,0,0,.20009,2.40116,9.07411,9.07411,0,0,1,1.40068,3.7018C57.09131,63.29432,54.39,62.694,54.39,62.694Z"/>
        <path class="cls-1" d="M73.39922,81.50315S65.39534,78.1015,63.39437,78.7018s1.10054,4.00194,1.10054,4.00194-4.50219-.70034-3.9019.30014,4.202,3.40165,4.202,3.40165-1.10053.90044-.60029,1.20058,3.70179,2.30112,3.70179,2.30112.4002,1.20058-.90043.80039-4.90238-3.3016-4.90238-2.90141.60029,2.40117,5.50267,4.50218,23.7115,2.60127,24.01164,2.30112S81.8033,91.9082,82.0034,91.60805s11.10538,2.001,10.80524,1.50073-4.50219-2.40116-5.00243-2.40116-6.30306-.60029-8.70422-1.80088-3.00146-2.60126-2.30112-2.9014,2.40117,1.90092,4.60224,2.70131,5.50266,1.50073,5.90286,1.00048-7.90384-3.90189-9.80476-4.80233-7.00339.80039-7.40359.10005,4.40214-1.10053,5.20253-1.40068-6.203-.40019-6.70326-1.10053.6003-.90044,1.30064-.90044S72.899,82.40359,73.39922,81.50315Z"/>
        <path class="cls-1" d="M83.10393,85.40505s2.50121,1.30063,2.60126.80038-.70034-2.70131-1.20058-2.70131S83.10393,85.40505,83.10393,85.40505Z"/>
        <path class="cls-1" d="M87.10587,87.10587s2.101,2.20107,2.50121,2.101.10005-2.50121-.20009-2.70131S86.70568,87.00582,87.10587,87.10587Z"/>
        <path class="cls-1" d="M83.40408,79.70228s5.10247,5.90286,5.40262,5.90286a6.15712,6.15712,0,0,1,1.80087.30015c.40019.2001,1.90092-.80039,1.30063-1.10053s-2.70131.90043-3.20155-.4002-1.90092-3.80184,4.00194-5.80281L89.407,76.10053s6.8033-3.70179,7.00339-4.202-1.80087-.90044-1.20058-1.60078,6.70325-5.10248,6.6032-5.90286-2.50121-.90044-2.50121-.90044,2.50121-2.30112,5.20252-2.101a16.21986,16.21986,0,0,1,5.50267,1.70083l2.30112-.4002s-4.00194-3.90189-9.20447-3.90189S93.30888,67.29626,91.60805,70.798,83.40408,79.70228,83.40408,79.70228Z"/>
        <path class="cls-1" d="M91.30791,87.306S93.509,85.205,93.609,85.80524,93.70907,89.10684,91.30791,87.306Z"/>
        <path class="cls-1" d="M97.21077,77.101s1.70083-3.40165,2.20107-4.50218,1.50073-3.20156,3.80184-3.10151,4.40214.4002,4.40214.4002a5.277,5.277,0,0,1,1.80087-3.10151c1.40068-.90044,2.70131-1.10053,2.80136-1.60078a9.18952,9.18952,0,0,0,0-1.70082s3.00146,1.40068,2.90141,3.60175c0,0-1.80088-.90044-2.001-.50025s1.80087,3.00146,2.101,3.9019c0,0-1.30064.50024-.90044,1.10053s3.60175,8.10393,3.1015,8.70422-3.5017-8.00388-5.10247-8.50412a4.32055,4.32055,0,0,0-3.10151.40019c-.50024.1-1.80087-.70034-1.80087-.70034a1.70293,1.70293,0,0,0,.80039,1.70083c1.00048.60029,1.20058,0,1.80087.20009S111.01747,75.2001,109.71684,75a11.54524,11.54524,0,0,1-3.3016-1.50073s-.90044,2.80136-1.10054,2.50122-1.50073-2.101-2.20107-1.90093-1.60077,1.30063-.90043,1.40068,2.70131,1.70083,2.101,1.80088S100.81252,75.2001,97.21077,77.101Z"/>
        <path class="cls-1" d="M97.21077,81.8033a3.49388,3.49388,0,0,0,1.80088,1.60078c1.20058.40019,3.60174,1.40068,3.40164.70034S99.812,81.8033,97.21077,81.8033Z"/>
        <path class="cls-1" d="M98.11121,79.40213s3.90189,2.20107,4.30208,2.60127,1.30064,2.001,2.101,1.70082.6003-1.30063-.40019-2.001S97.41087,78.1015,98.11121,79.40213Z"/>
        <path class="cls-1" d="M104.21417,80.40262A17.77547,17.77547,0,0,0,106.015,81.6032c.60029.30015,1.00049.4002,1.60078-.60029s1.00048-1.60078.30014-1.70082S103.914,79.30209,104.21417,80.40262Z"/>
        <path class="cls-1" d="M112.21805,75s1.30063,4.50218,1.60078,4.90238,1.60077,1.40068,1.70082.40019S113.51868,74.69985,112.21805,75Z"/>
        <path class="cls-1" d="M66.39583,93.30888s4.40213.60029,6.00291,1.90092,1.40068,2.101,1.40068,2.101l-2.30112-.90044s.4002.1,2.20107,2.50122S75,102.11315,75,102.11315l4.50218,4.90238a9.415,9.415,0,0,0-2.30111,4.00194c-.70034,2.50121-3.60175,10.20495-3.7018,10.90529s1.20058,2.70131,1.10054,3.70179a1.57619,1.57619,0,0,1-.70034,1.30063s-1.30063-1.80087-1.60078-1.70082-2.101.80039-2.101.80039-.40019-1.80088-.70034-1.70083-1.50073,1.10053-1.80087,1.10053-2.001-.20009-2.001-.20009.1-1.80088.40019-2.001,3.3016.10005,3.90189-.2001-2.20106-.60029-2.60126-.80039.50024-.90043.50024-.90043,2.90141-.6003,3.40165-1.10054,4.202-12.00582,4.40214-12.80621S75.2001,106.015,74.9,105.7149s-1.70082-2.20107-2.30111-2.30112a7.67757,7.67757,0,0,1-2.90141-1.70082c-.30015-.50025-2.101-6.203-2.30112-6.50316A6.48993,6.48993,0,0,1,66.39583,93.30888Z"/>
        <path class="cls-1" d="M68.3968,104.01407s2.30111,1.10054,2.30111,1.40068-1.10053,4.50218-1.30063,5.00243-3.00145,9.20446-3.5017,9.60465a14.88279,14.88279,0,0,0-1.30063,1.30064l1.20059.80038-2.60127.80039c-1.30063.4002-2.40116-.40019-3.40165.50024s-1.70082,1.10054-2.001.2001,1.00049-2.001,1.80088-2.101,2.9014-.30014,2.9014-.30014a8.70617,8.70617,0,0,0,2.101-2.20107A72.74742,72.74742,0,0,0,68.3968,104.01407Z"/>
        <path class="cls-1" d="M68.69694,116.62019s1.80088-.70034,2.20107-.80039.50024,1.10053.2001,1.50072S68.69694,116.62019,68.69694,116.62019Z"/>
        <path class="cls-1" d="M54.08986,124.22387a8.54026,8.54026,0,0,1,1.90092-.60029c.50024,0,1.00049,1.50073,1.00049,1.50073Z"/>
        <path class="cls-1" d="M59.79262,126.82513s-1.50072-.90043-1.20058-1.30063a10.80442,10.80442,0,0,1,1.80088-1.30063Z"/>
        <path class="cls-1" d="M62.29384,125.32441s2.001-.2001,2.20107-.50025a2.29114,2.29114,0,0,0,.1-1.10053l-3.1015.50024Z"/>
        <path class="cls-1" d="M75.50024,125.42445s.1.90044-.20009,1.20059,1.80087,2.50121,1.90092,1.90092a3.95413,3.95413,0,0,0-.30015-2.20107A5.101,5.101,0,0,0,75.50024,125.42445Z"/>
        <path class="cls-1" d="M35.781,51.2885s5.40262-1.20058,6.4031-1.40068,5.80282,2.90141,6.40311,2.90141.40019-2.101.50024-2.40117,2.70131-.60029,2.50122-1.30063-2.90141-2.30111-3.10151-2.60126-.05-3.00145-4.55221-3.15153c-2.35355-.07845-4.7523,1.75085-5.15249,1.6508s-3.7018,1.90093-3.7018,1.90093,4.60223-.2001,5.00243.20009a1.44794,1.44794,0,0,1,.30014,1.10054,27.20184,27.20184,0,0,0-3.00145-.1,34.36913,34.36913,0,0,0-2.60127,3.40165Z"/>
        <path class="cls-2" d="M43.68481,46.28607a1.00048,1.00048,0,0,1-1.00048,1.00049c-.55256,0-1.70083-.44793-1.70083-1.00049s1.14827-1.00048,1.70083-1.00048A1.00048,1.00048,0,0,1,43.68481,46.28607Z"/>
        <path class="cls-5" d="M40.85844,52.71419c.15652-.29684,1.12555.60029,1.35066.90044a14.90623,14.90623,0,0,1,.90043,3.15153c.15008.90043-.45021,2.85138-1.6508,2.25109S38.68239,56.84119,40.85844,52.71419Z"/>
        <path class="cls-5" d="M43.8599,41.23362c.26906-.02832,3.67678-.075,5.70276,1.20059s2.40117,3.3016,2.77635,3.3016,3.97693-.60029,3.52671-.97548-2.85138-.2251-2.4762-1.12554,1.50073-3.15153.75036-3.07649-2.25109,1.20058-2.62627.52525,1.35065-3.00145.52525-3.00145-2.55123,1.27561-2.92641.75036.2251-1.87591-.52526-1.57576-1.57576,1.42569-2.55124,1.20058S44.91041,37.18166,44.16,37.932,42.43421,41.3837,43.8599,41.23362Z"/>
        <path class="cls-2" d="M45.73581,50.01288C45.5107,49.86281,43.0345,48.137,43.8599,48.137s1.87591-.15007,1.50073-.75036-1.87591-1.42569-1.05051-1.57577,2.25109-.52525,2.101.15008-.8254.67532-.075,1.42569-.30015,1.42569-.60029,1.50073S45.73581,50.01288,45.73581,50.01288Z"/>
        <path class="cls-2" d="M40.73782,48.55083l-2.06728,2.6977-3.04407.77667S37.77543,49.11923,40.73782,48.55083Z"/>
      </g>
    </g>
  </g>
</svg>
