<svg xmlns="http://www.w3.org/2000/svg" width="150" height="150" viewBox="0 0 150 150">
  <defs>
    <style>
      .cls-1, .cls-4 {
        fill: #1a1a1a;
      }

      .cls-1 {
        stroke: #999;
        stroke-miterlimit: 10;
        stroke-width: 2px;
      }

      .cls-2 {
        fill: #f6f6f6;
      }

      .cls-3 {
        fill: #248447;
      }

      .cls-5 {
        fill: #db464c;
      }
    </style>
  </defs>
  <g id="Layer_7" data-name="Layer 7">
    <g>
      <circle class="cls-1" cx="75" cy="74.99999" r="71.52173"/>
      <path class="cls-2" d="M96.90983,77.42392s-3.022-4.43863-2.361-7.64955S99.2708,61.55819,101.254,58.725s6.13853-9.255,6.233-15.01579a2.42656,2.42656,0,0,1-2.361-1.88877c-.37776-1.88878.09444-8.59394-.56663-10.48272,0,0-2.361,1.41658-3.30537-.18888s1.13327-5.5719-1.32214-9.53833a3.53566,3.53566,0,0,1-2.64429.66107c-1.2277-.37775-.94439-5.0997-2.54985-6.894,0,0-6.42184,1.60546-7.27179-2.45541A8.182,8.182,0,0,0,85.38828,15.472c-.4722,1.22771-1.13327,1.98322-1.60546,1.98322s-.94439-.84995-1.88878-2.1721S75.94439,7.82245,65.745,12.45c0,0,2.9276,2.361,1.2277,3.49424s-5.57189-1.13327-9.44389.37775c0,0,2.92761,3.68312.84995,5.19414s-7.36623,0-9.44389,4.15531c0,0,3.96644.75551,5.0997,3.21093a2.90843,2.90843,0,0,1-1.6999,4.06087c-.75551.28332-3.30536,3.11648-3.11648,4.91082s.28332,5.19414-.28332,6.7996-5.383,7.08292-6.13853,7.36624a45.51783,45.51783,0,0,0-4.72194,2.54985,1.43,1.43,0,0,0-.28332,2.07765,5.40734,5.40734,0,0,1,1.41659,1.60546c.18887.4722.66107,5.00527,1.511,6.32741s1.98322,1.13327,2.45541,1.60546,1.03883,1.88878,1.6999,2.07766,1.511.18888,1.88878.84995-.84995,1.13326.37775,1.60546,4.722-.37776,5.28858-.09444-1.60546,3.3998-2.26653,4.53307-2.92761,5.383-1.88878,8.40506a14.02776,14.02776,0,0,0,2.64429,4.722l-.47219,6.42184s-3.68312,2.26653-4.72195,4.81638-.84995,6.61073,1.22771,8.9717a5.09754,5.09754,0,0,0-1.41659,3.022c-.18888,1.88878,2.1721,5.00527,2.1721,5.00527a23.62508,23.62508,0,0,0-3.96644,5.28858c-1.60546,3.022-3.022,6.13852-2.9276,6.7996s.84995,1.98321,3.3998,1.98321h61.00753s1.88878-.37775,1.79434-3.3998-1.511-7.64955-4.43863-10.01052a12.28214,12.28214,0,0,0,.47219-5.5719c-.56663-2.45541-2.9276-4.72194-3.11648-5.19414s.18888-3.77755-.85-5.00526a6.391,6.391,0,0,1-1.511-4.6275c.18888-1.60547,1.6999-6.98848,1.79434-8.87726s.28331-5.0997.18887-6.13853S96.90983,77.42392,96.90983,77.42392Z"/>
      <path class="cls-3" d="M51.45323,108.24248h45.4566l-.12592-3.77755a7.27326,7.27326,0,0,1-2.26654-4.0294,10.78368,10.78368,0,0,1,.88143-4.7849s-1.63694-1.511-.75551-4.659,1.76286-7.30327,1.38511-8.1847-4.659-7.42919-5.03675-11.20675,1.88878-6.29593,3.27389-6.54776c0,0,4.15531-12.08818.62959-22.53942A31.74958,31.74958,0,0,0,83.68838,27.025l-4.53307,4.659A17.07581,17.07581,0,0,1,84.318,44.5277c-.25184,8.18471-10.07348,12.59186-10.07348,12.59186l2.89613,2.51837a2.64937,2.64937,0,0,1,.12591,4.15531c-2.26653,2.26653-5.91817-1.511-5.91817-1.511a7.4919,7.4919,0,0,0-7.17735-.88143A14.22761,14.22761,0,0,0,58.25283,65.682s0,3.52572-.50367,4.40715-6.54776,7.05143-6.7996,9.69572,2.26653,6.42185,3.148,7.4292.37776,7.93287-1.00735,9.06613-4.659,2.77021-4.659,5.54042A8.06966,8.06966,0,0,0,51.45323,108.24248Z"/>
      <path class="cls-3" d="M43.7722,128.13761s2.77021-7.55511,6.54777-10.45124H99.55411s4.659,4.659,3.90348,10.45124Z"/>
      <path class="cls-3" d="M86.45859,24.75849A28.47653,28.47653,0,0,1,97.16166,38.3577c3.65164,9.44389,1.13327,20.52472,1.13327,20.52472s6.04409-6.42185,6.42184-12.46594c0,0-2.51837-.75551-2.64428-2.51837s.62959-2.39245.75551-3.3998-.12592-5.16266-.12592-5.16266-3.3998.37776-3.90348-.62959,1.511-4.28123,0-9.19206a4.52846,4.52846,0,0,1-2.7702,1.00735c-1.38511-.12592-1.511-3.77755-1.511-4.7849s-1.511-4.02939-1.511-4.02939-1.25918,1.63694-2.26653,1.25918A20.0579,20.0579,0,0,1,87.2141,16.196s-1.38511,4.40715-1.13327,4.78491a11.82212,11.82212,0,0,1,1.76286,2.26653C88.09553,24.003,86.45859,24.75849,86.45859,24.75849Z"/>
      <path class="cls-3" d="M74.24449,32.81728a22.62237,22.62237,0,0,1,4.7849-6.67368c2.89613-2.51837,5.03674-4.28123,5.03674-5.28858s-.50367-3.022-3.52571-2.26653S71.47428,24.003,68.83,27.151a17.18267,17.18267,0,0,1-6.29593,4.659c-1.13326.62959-7.42919,2.77021-8.68837,4.15531s-1.511,5.16266-2.0147,8.18471-4.28123,8.56246-6.92552,10.07348-4.15531,2.0147-3.65164,3.02205a20.55648,20.55648,0,0,0,2.39245,3.022,2.71589,2.71589,0,0,0-.12591,2.64429A19.11164,19.11164,0,0,0,46.16466,65.682c.50367.62959,1.511,1.88878,1.63694.88143a8.43777,8.43777,0,0,1,2.89612-4.659c1.76286-1.3851,2.39245,1.38511,1.88878,2.14062s-3.77756,3.022-3.3998,3.65163,2.51837,1.88878,3.90347,1.00735,1.00735-2.26653,1.63695-3.27388,2.64428-.75551,2.89612-2.39245-.37775-4.40715.25184-4.91082,3.90347.50367,4.28123-.88143-1.3851-3.52572-1.3851-4.28123.37775-.6296,1.13326-.6296,10.70308-.12592,15.11023-5.91817,1.78864-9.61243,1.3851-10.1994c-1.3851-2.0147-3.77756-1.13327-4.28123-1.3851S73.6149,33.69871,74.24449,32.81728Z"/>
      <path class="cls-3" d="M56.86773,30.173s5.79225-1.511,8.56246-4.53307,6.67368-7.05143,10.1994-8.43654a16.32993,16.32993,0,0,1,5.16266-1.3851s-3.77755-6.17-11.96226-3.022c0,0,2.14062,3.65164-.62959,4.78491s-7.80695.50367-7.80695.50367,2.14061,4.28123.25184,5.4145-6.54777.75551-8.05879,1.25918C52.5865,24.75849,57.24549,26.52135,56.86773,30.173Z"/>
      <path class="cls-4" d="M51.45323,115.92351h45.4566s3.148-.75551,3.148-3.148-3.27388-3.022-3.27388-3.022H51.45323s-2.89612.50367-2.7702,3.148A3.25727,3.25727,0,0,0,51.45323,115.92351Z"/>
      <path class="cls-5" d="M54.03456,46.16464s-1.0703-3.58867.81847-5.47745,3.96644-1.07031,5.0997-2.95909c0,0-.37775,2.39245-1.3851,3.148a11.08826,11.08826,0,0,0-1.511,1.32214,6.42534,6.42534,0,0,1,1.63694.12592s-2.14062,1.32214-2.95909,1.95174A10.50747,10.50747,0,0,0,54.03456,46.16464Z"/>
    </g>
  </g>
</svg>
