<svg xmlns="http://www.w3.org/2000/svg" width="150" height="150" viewBox="0 0 150 150">
  <defs>
    <style>
      .cls-1 {
        fill: #0c644f;
      }

      .cls-2 {
        fill: #333;
      }

      .cls-3 {
        fill: #d8ac4c;
      }

      .cls-4 {
        fill: #c1272d;
      }

      .cls-5 {
        fill: #fcd421;
      }

      .cls-6 {
        fill: #8c6239;
      }

      .cls-7 {
        fill: #eedab0;
      }

      .cls-8 {
        fill: #a67c52;
      }
    </style>
  </defs>
  <g id="Layer_3" data-name="Layer 3">
    <g>
      <path class="cls-1" d="M75.00019,145.28974a2.67062,2.67062,0,0,1-1.41732-.40265c-7.13108-4.456-31.49317-21.25135-45.5866-50.29259C16.02576,69.92717,14.8646,41.886,14.75876,35.50349c12.06639-9.17039,19.32861-21.532,21.16469-24.89128C48.506,4.87928,71.59188,4.71055,74.23324,4.71055h1.53313c2.64137,0,25.72726.16873,38.3098,5.90166,1.83607,3.35923,9.0983,15.72089,21.16469,24.89128-.10507,6.38254-1.26623,34.42368-13.23752,59.091-14.09266,29.04124-38.45475,45.83663-45.58506,50.29259A2.66839,2.66839,0,0,1,75.00019,145.28974Z"/>
      <g>
        <g>
          <path class="cls-2" d="M114.116,24.68875a2.81911,2.81911,0,0,0-5.26587,1.04582c-.04275.01856-.08359.03874-.12347.06088l-.05887.03269-1.02752-1.84839a1.07,1.07,0,0,0-1.87039,1.03979l1.01448,1.82519c-.09127.04765-.19538.10229-.31061.16327a6.52811,6.52811,0,0,0-1.95188-.59027,6.81634,6.81634,0,0,0-10.57334,7.053,12.46336,12.46336,0,0,0-3.29442-2.05863c.03432-.22491.07-.44339.10507-.63906l.68546.57353a.38742.38742,0,0,0,.63388-.25549,15.17358,15.17358,0,0,1,2.02475-4.303.38742.38742,0,0,0-.2042-.57756,5.16314,5.16314,0,0,0-1.62536-.25692,7.70884,7.70884,0,0,0-4.185,1.42633.38754.38754,0,0,0-.04582.57861l.73339.76067a7.67868,7.67868,0,0,0-1.00643,5.41848,14.39293,14.39293,0,0,1,.06539,4.1025.35568.35568,0,0,0-.03087.15387l.00575.16322c-.02263.27409-.03969.44737-.03988.449a.68017.68017,0,0,0,.2784.50072c.00153.00072.15761.0776.40245.2031l.13556.09121a.38714.38714,0,0,0,.16029.06189c.20631.10785.40361.21354.59516.31766a5.192,5.192,0,0,1-.6381.3562,3.95018,3.95018,0,0,0,2.79053,1.82509,3.2356,3.2356,0,0,0,.928-.05277A8.07954,8.07954,0,0,0,97.199,44.08418c.03931,0,.07861-.00043.11754-.00144l.25865,1.02464a.38759.38759,0,0,0,.51577.26642c.13556-.05249,3.31647-1.31493,4.05274-4.28561a.38738.38738,0,0,0-.36641-.51006h-.00268l-.00748,0c-.01131.00024-.083.00115-.20151.00115a13.73281,13.73281,0,0,1-4.5202-.55311.38758.38758,0,0,0-.55163.40361l.12521.88491c-.36219-.14428-.79226-.32657-1.20469-.52047a3.17214,3.17214,0,0,0,1.03615-3.38761,6.81,6.81,0,0,0,10.80111-6.95343c.06769-.03887.12943-.07459.19347-.11149a6.78222,6.78222,0,0,0,.72841.95647,2.0515,2.0515,0,0,0,1.40715.68978,1.16907,1.16907,0,0,0,.18637-.02632,1.06079,1.06079,0,0,0,1.62574-.585c.00882-.03063.00172-.06174.00786-.09261.24446-.15386.41568-.28933.32825-.29973a2.08421,2.08421,0,0,0,.97978-1.09827,3.54762,3.54762,0,0,0,.16221-1.28857c.04985-.024.10123-.04424.14974-.07118a2.82423,2.82423,0,0,0,1.0954-3.83756Zm-2.81451.74485a.71655.71655,0,1,1-.27821.97431A.71612.71612,0,0,1,111.30145,25.4336Zm-.14764,3.52853a6.84861,6.84861,0,0,1-.013,1.31508l-.86838-1.56228.05886-.03274c.03988-.02214.07861-.0462.11677-.07262a2.8312,2.8312,0,0,0,.84613.23052C111.21057,28.89128,111.15247,28.93591,111.15381,28.96213ZM94.001,39.94285a1.59177,1.59177,0,0,1-.24676-1.83147c.098-.05814.33841-.196.66973-.38472a5.231,5.231,0,0,1,.24868,1.903,3.46883,3.46883,0,0,1-.116.71748A2.73451,2.73451,0,0,1,94.001,39.94285Z"/>
          <path class="cls-2" d="M97.95139,46.9704a1.95693,1.95693,0,0,1-1.879-1.405A10.04312,10.04312,0,0,1,91.947,43.94249a4.60835,4.60835,0,0,1-.60128-.01688,5.47324,5.47324,0,0,1-3.9122-2.465l-.02531-.03681a1.55873,1.55873,0,0,1-.25233-.62046,2.203,2.203,0,0,1-.94871-1.94881l.00076-.013.02915-.32442-.00307-.06366a1.97639,1.97639,0,0,1,.04678-.49315,12.42177,12.42177,0,0,0-.0069-3.34389,8.97272,8.97272,0,0,1,.58672-5.62326,1.95879,1.95879,0,0,1,.27993-2.86531A9.25814,9.25814,0,0,1,92.27367,24.383a6.72986,6.72986,0,0,1,2.11831.33669,1.9612,1.9612,0,0,1,.98323.7286,8.37849,8.37849,0,0,1,8.69258-1.09136,2.70623,2.70623,0,0,1,.09817-.57982,2.63695,2.63695,0,0,1,2.53706-1.91737,2.64637,2.64637,0,0,1,2.01478.93108A4.37682,4.37682,0,0,1,111.646,21.668a4.399,4.399,0,0,1,3.84318,2.25789l.00076.00077a4.40064,4.40064,0,0,1-1.08676,5.55653,4.25151,4.25151,0,0,1-.21781.93645,3.49424,3.49424,0,0,1-1.32376,1.69955c-.04218.04448-.08436.08667-.12731.12578a2.61283,2.61283,0,0,1-1.086,1.14582,2.64588,2.64588,0,0,1-2.1973.16489,3.16139,3.16139,0,0,1-.57291-.08052,8.424,8.424,0,0,1-5.45223,6.44082,1.92637,1.92637,0,0,1,.30831,1.05,1.96394,1.96394,0,0,1-.07669.543c-.93568,3.67215-4.58865,5.17153-5.00357,5.331A1.93,1.93,0,0,1,97.95139,46.9704ZM97.604,42.5382a1.57168,1.57168,0,0,1,1.05992.73781,5.62863,5.62863,0,0,0,1.26393-1.17036,18.22936,18.22936,0,0,1-1.85755-.19021A1.56447,1.56447,0,0,1,97.604,42.5382Zm4.153-.3896h.02071v-.00077ZM90.87476,40.5242a1.72188,1.72188,0,0,0,.76541.2738,1.69951,1.69951,0,0,0,.47935-.02991,1.62723,1.62723,0,0,1,.51308-.01534,3.16088,3.16088,0,0,1-.16566-3.54176,1.56214,1.56214,0,0,1,.48471-.4502c.102-.06059.352-.204.69563-.39958a1.5785,1.5785,0,0,1,1.34676-.09894,1.61688,1.61688,0,0,1,.25769.12885,1.59381,1.59381,0,0,1,.36737-.31752,1.573,1.573,0,0,1,1.79159.08974,5.19053,5.19053,0,0,0,3.20047,1.09673,5.23244,5.23244,0,0,0,5.11094-6.44926,1.57092,1.57092,0,0,1,.74854-1.72026l.1833-.10584a1.56933,1.56933,0,0,1,2.0953.48164,5.6332,5.6332,0,0,0,.5522.73857l.00537.00537-.40725-.73244a1.57106,1.57106,0,0,1,.62046-2.14208,1.61358,1.61358,0,0,1,.168-.0997c-.013-.02148-.0253-.04372-.03758-.06519s-.02377-.043-.03451-.06443c-.04755.02608-.09663.04985-.14649.07133a1.64463,1.64463,0,0,1-1.19183.15339,1.56906,1.56906,0,0,1-.76772.90653l-.2968.15646a1.57231,1.57231,0,0,1-1.42423.02761,4.937,4.937,0,0,0-1.48327-.4479,1.58094,1.58094,0,0,1-.68565-.27,5.24827,5.24827,0,0,0-8.26233,4.30181,5.2717,5.2717,0,0,0,.12578,1.12895A1.57108,1.57108,0,0,1,92.87879,34.621a11.01043,11.01043,0,0,0-2.8423-1.76474,1.568,1.568,0,0,1-.79993-.767,4.04764,4.04764,0,0,0,.02838,1.56687,14.6194,14.6194,0,0,1,.13651,4.70139c-.00153.02531-.00383.04986-.0069.0744.02838.013.056.02684.08437.04141l.60972.32519a1.56664,1.56664,0,0,1,.78612,1.72563Zm-2.12828-2.42432.01151.00613Zm20.66694-7.67024-.01074.00153ZM90.17377,28.00225a1.57065,1.57065,0,0,1,.066,1.28847,1.55078,1.55078,0,0,1,.77845-.06673c.24159-.576.5361-1.16115.816-1.67654A5.67053,5.67053,0,0,0,90.17377,28.00225Zm21.06115-2.68892-.0023.00153a.85355.85355,0,0,0-.32749,1.16346.87842.87842,0,0,0,1.15963.32826.85343.85343,0,0,0,.33132-1.16193.87691.87691,0,0,0-1.16116-.33132l.06672.12041ZM89.16984,26.8641l.00613.0069Z"/>
        </g>
        <g>
          <path class="cls-2" d="M95.07418,21.76011l2.868.67424.39441.1183s-.55623,1.21327-.96061,1.87044-.30332,1.81988-.15166,1.61764a25.02784,25.02784,0,0,1,2.831-1.21321s.30333-.90994.556-.96051c.25271-.05052.556,1.16269.7077,1.21326s2.831.55609,2.831.55609c0-1.16274-1.51664-3.03314-1.51664-3.03314l3.48808-1.0616c5.763.96051,6.31907-.75827,6.31907-.75827-.9606-.05057-3.18475-1.56711-4.54973-2.57814-1.365-1.01108-3.13432-2.1232-4.14516-1.921-1.01122.20223-.85936,1.01108-.75831,1.56711.101.55609-.20229,1.11217-.80894,1.01108-.60666-.10114-.556-1.466-.7077-2.22429-.15167-.75832-.35376-1.26384-1.31436-1.21327-.96041.05057-1.11207.50552-1.11207.50552a1.91384,1.91384,0,0,0-1.011.90993,1.87011,1.87011,0,0,1,1.26374,1.011.86675.86675,0,0,1-.556,1.01108c-.455.15161-.60666.30328-.80875-.65718-.20228-.96051-.96156-1.772-1.97163-1.4155a20.13555,20.13555,0,0,0-3.74079,2.42653,17.12233,17.12233,0,0,1-4.09473,1.921A6.59672,6.59672,0,0,0,95.07418,21.76011Z"/>
          <path class="cls-2" d="M97.17217,27.62338a1.5641,1.5641,0,0,1-.882-.26614c-1.1857-.80682-.79456-2.87528-.25233-3.75727l-.8145-.19174a8.01883,8.01883,0,0,1-8.06368-1.03231,1.57127,1.57127,0,0,1,.49391-2.73724,15.27008,15.27008,0,0,0,3.63763-1.68958l.12578-.092a19.05912,19.05912,0,0,1,4.01957-2.54856,2.886,2.886,0,0,1,1.82611-.05062,3.35922,3.35922,0,0,1,.77461-.59055,3.00219,3.00219,0,0,1,2.03625-.81066,2.48518,2.48518,0,0,1,2.48184,1.20947,3.02389,3.02389,0,0,1,.882-.32212c1.323-.26,2.98036.41569,5.38858,2.19884a14.9006,14.9006,0,0,0,3.735,2.27554,1.532,1.532,0,0,1,1.1926.67568,1.56267,1.56267,0,0,1,.18177,1.37207c-.28607.88735-1.61059,2.817-7.70322,1.88362l-1.13738.34589a4.9127,4.9127,0,0,1,.62583,2.14055,1.57,1.57,0,0,1-1.86215,1.5431c-2.78326-.52459-2.92361-.57137-3.03635-.609a1.63977,1.63977,0,0,1-.40571-.19941c-.90347.34436-1.93655.76388-2.25023.92571A1.6754,1.6754,0,0,1,97.17217,27.62338Zm1.30151-.63044-.00154.00154Zm.00153-.00306-.00153.0023Zm.0023-.0023-.00153.0023Zm.00154-.00231-.00154.00231Zm-3.40448-6.79592a1.58812,1.58812,0,0,1,.35969.04142l2.86762.67414c.03068.00767.06059.01534.09127.02455l.39421.11811A1.57,1.57,0,0,1,99.904,22.458a1.71882,1.71882,0,0,1,.398-.13114,1.6367,1.6367,0,0,1,.78229.0207,1.59857,1.59857,0,0,1,.04831-.20554,1.57028,1.57028,0,0,1,1.04382-1.04151l3.48808-1.06146a1.57113,1.57113,0,0,1,.71556-.04678c.60205.10047,1.132.168,1.59755.21091q-.47626-.33247-1.02157-.73551a12.266,12.266,0,0,0-2.37984-1.46333,2.4584,2.4584,0,0,1-.67952,1.78622,2.21511,2.21511,0,0,1-1.97719.62123,1.92927,1.92927,0,0,1-1.43189-1.02388,2.4142,2.4142,0,0,1-1.25012.96482l-.0836.02915a1.95739,1.95739,0,0,1-1.685-.06366,2.47386,2.47386,0,0,1-1.07373-1.78852.86769.86769,0,0,0-.06519-.19557,25.25762,25.25762,0,0,0-3.05475,2.05618l-.12655.092c-.18177.13345-.3758.26306-.57674.3873a5.82861,5.82861,0,0,0,1.8192-.52382A1.56927,1.56927,0,0,1,95.07457,20.18935Zm2.80089-1.78622h0Zm3.5663-.2715v0Zm-.9096-1.69725-.00076.00076Zm.00077-.00384-.00077.0023Zm.00154-.0023-.00154.0023Z"/>
        </g>
      </g>
      <g>
        <path class="cls-3" d="M41.007,8.73372a40.73263,40.73263,0,0,0-5.08352,1.87849c-.40649.74375-1.08025,1.93021-2.01209,3.42428L121.77249,95.054c.07574-.15444.1555-.30428.23085-.4595,1.27659-2.63063,2.42356-5.30008,3.466-7.97711Z"/>
        <path class="cls-4" d="M122.38432,93.78374q1.37073-2.889,2.55451-5.82113L39.52982,9.20625a37.8177,37.8177,0,0,0-3.60637,1.406c-.29336.53662-.72669,1.30506-1.29442,2.25147Z"/>
        <path class="cls-3" d="M15.849,50.59328l82.802,76.35251c1.96684-1.96808,3.96224-4.08706,5.95113-6.35809L14.8228,37.80136C14.93171,40.69161,15.19918,45.1469,15.849,50.59328Z"/>
        <path class="cls-4" d="M15.61736,48.54529l83.98306,77.44163q2.04315-2.08587,4.107-4.38944l-88.798-81.88157C15.031,42.0631,15.24424,45.06091,15.61736,48.54529Z"/>
      </g>
      <path class="cls-3" d="M75.76733,7.45919c9.07069,0,26.416,1.13791,36.36271,5.30268a87.19324,87.19324,0,0,0,20.33332,24.06427c-.23737,8.13665-1.87941,33.79195-12.93285,56.56881C105.783,121.72307,82.02217,138.138,75,142.5316,67.97783,138.138,44.217,121.72307,30.46949,93.395c-11.02219-22.71248-12.68455-48.4255-12.93-56.57111a87.19511,87.19511,0,0,0,20.33063-24.062c9.94673-4.16472,27.29241-5.30268,36.36329-5.30268l.21417.00048.02051.00019h1.06357l.019-.00014.21666-.00053m-.00077-5.49748c-.16777,0-.25539.00067-.25539.00067H74.48883s-.08724-.00067-.25539-.00067c-2.771,0-27.36815.18249-40.30981,6.55668,0,0-7.78529,15.36561-21.92166,25.60934,0,0-.47915,32.81721,13.52167,61.66743,13.00647,26.80108,34.922,44.12432,46.60184,51.42278a5.44636,5.44636,0,0,0,5.749,0c11.67984-7.29846,33.59537-24.6217,46.60184-51.42278C138.47718,66.94494,137.998,34.12773,137.998,34.12773,123.86166,23.884,116.07656,8.51839,116.07656,8.51839c-12.94243-6.37462-37.54151-6.55668-40.31-6.55668Z"/>
      <g>
        <g>
          <polygon class="cls-3" points="35.458 73.976 40.682 84.834 46.317 89.137 98.047 89.137 103.886 77.254 42.629 70.493 35.458 73.976"/>
          <path class="cls-2" d="M98.29191,89.52908H46.184L40.36973,85.09,34.93437,73.79362,42.5586,70.0908l.11274.01227,61.81367,6.822Zm-51.84259-.78535H97.8026L103.287,77.58311l-60.58886-6.687L35.982,74.15869,40.99556,84.5792Z"/>
        </g>
        <g>
          <path class="cls-3" d="M42.73121,70.90283l5.83893-6.96576,40.15551-.51218L93.33534,60.864h18.029s6.45357,1.22925,7.17063,9.32181a9.338,9.338,0,0,1-6.24869,10.14132Z"/>
          <path class="cls-2" d="M112.31708,80.72759l-.0836-.0115L41.97265,71.19674l6.41245-7.65031,40.23637-.51232L93.23312,60.471h18.13141c.14112.01994,6.8266,1.38818,7.56134,9.68042a9.79656,9.79656,0,0,1-6.52826,10.55243ZM43.48967,70.60925l68.76222,9.31688c.77769-.25539,6.539-2.40131,5.89169-9.70572-.68335-7.70782-6.79055-8.95948-6.85267-8.971l-17.85378.0069L88.83008,63.8164l-.09894.00153-39.97637.50926Z"/>
        </g>
        <polygon class="cls-2" points="109.824 71.207 44.637 70.57 49.607 64.907 50.197 65.425 46.357 69.802 109.831 70.421 109.824 71.207"/>
        <rect class="cls-2" x="109.02534" y="60.96642" width="0.78535" height="17.82386"/>
        <rect class="cls-2" x="59.0357" y="63.93681" width="0.78535" height="6.14632"/>
        <rect class="cls-2" x="61.08422" y="63.63003" width="0.78535" height="6.65787"/>
        <rect class="cls-2" x="87.718" y="63.52726" width="0.78535" height="6.86341"/>
        <rect class="cls-2" x="85.56748" y="63.63003" width="0.78535" height="6.65787"/>
        <rect class="cls-2" x="94.25728" y="60.96639" width="1.53656" height="2.66338"/>
        <polygon class="cls-2" points="44.857 77.766 43.32 77.766 44.473 75.103 46.009 75.103 44.857 77.766"/>
        <polygon class="cls-2" points="47.815 77.766 46.278 77.766 47.431 75.103 48.967 75.103 47.815 77.766"/>
        <polygon class="cls-2" points="50.773 77.766 49.236 77.766 50.388 75.103 51.925 75.103 50.773 77.766"/>
        <polygon class="cls-2" points="53.692 77.766 52.155 77.766 53.308 75.103 54.844 75.103 53.692 77.766"/>
        <polygon class="cls-2" points="56.611 77.766 55.075 77.766 56.227 75.103 57.764 75.103 56.611 77.766"/>
        <rect class="cls-2" x="99.94256" y="60.96639" width="1.53656" height="2.66338"/>
        <rect class="cls-2" x="106.29369" y="60.96639" width="1.53656" height="2.66338"/>
        <polygon class="cls-2" points="117.825 75.381 111.906 73.901 111.154 72.273 112.78 65.876 113.816 65.58 115.147 65.912 114.957 66.674 113.83 66.393 113.431 66.506 111.984 72.196 112.461 73.231 118.016 74.619 117.825 75.381"/>
        <rect class="cls-2" x="113.22541" y="58.42784" width="0.78483" height="13.06722" transform="translate(-10.08993 107.68606) rotate(-48.81218)"/>
        <rect class="cls-2" x="114.65968" y="68.91899" width="0.78468" height="6.73362" transform="translate(18.41355 167.8013) rotate(-76.80582)"/>
        <rect class="cls-2" x="114.86445" y="67.07495" width="0.78468" height="6.73345" transform="translate(20.37769 166.58799) rotate(-76.81217)"/>
        <rect class="cls-2" x="115.06923" y="65.43599" width="0.78468" height="6.73345" transform="translate(22.13149 165.52232) rotate(-76.81217)"/>
        <g>
          <polygon class="cls-3" points="61.785 71.927 42.117 71.927 34.946 74.181 34.229 72.132 42.629 69.571 62.092 69.571 61.785 71.927"/>
          <path class="cls-2" d="M34.70122,74.66947l-.97786-2.79322,8.905-2.69812H62.53911l-.40955,3.14142H42.17742Zm.033-2.2809.45633,1.30381,6.9263-2.15819H61.43931l.20554-1.57071H42.68668Z"/>
        </g>
        <g>
          <polyline class="cls-3" points="37.814 71.005 39.146 67.318 40.58 67.83 40.682 69.878"/>
          <polygon class="cls-2" points="38.184 71.138 37.445 70.872 38.909 66.816 40.959 67.548 41.075 69.858 40.291 69.898 40.201 68.111 39.382 67.819 38.184 71.138"/>
        </g>
        <g>
          <g>
            <circle class="cls-3" cx="86.3952" cy="87.67697" r="4.50725"/>
            <path class="cls-2" d="M86.395,92.58614a4.90924,4.90924,0,1,1,4.90923-4.90923A4.91531,4.91531,0,0,1,86.395,92.58614Zm0-9.01471a4.10548,4.10548,0,1,0,4.10547,4.10548A4.10979,4.10979,0,0,0,86.395,83.57143Z"/>
          </g>
          <g>
            <path class="cls-2" d="M84.80744,90.76694a1.24629,1.24629,0,1,1,1.24629-1.24629A1.24773,1.24773,0,0,1,84.80744,90.76694Zm0-2.09991a.85362.85362,0,1,0,.85361.85362A.85429.85429,0,0,0,84.80744,88.667Z"/>
            <path class="cls-2" d="M84.21842,88.02663a1.24629,1.24629,0,1,1,1.24629-1.24629A1.24773,1.24773,0,0,1,84.21842,88.02663Zm0-2.0999a.85362.85362,0,1,0,.85362.85361A.8543.8543,0,0,0,84.21842,85.92673Z"/>
            <path class="cls-2" d="M86.59979,86.46513a1.24668,1.24668,0,1,1,1.24629-1.24629A1.24774,1.24774,0,0,1,86.59979,86.46513Zm0-2.10067a.854.854,0,1,0,.85362.85438A.85495.85495,0,0,0,86.59979,84.36446Z"/>
            <path class="cls-2" d="M88.75108,88.51365a1.24629,1.24629,0,1,1,1.24629-1.24629A1.24774,1.24774,0,0,1,88.75108,88.51365Zm0-2.09991a.85362.85362,0,1,0,.85362.85362A.8543.8543,0,0,0,88.75108,86.41374Z"/>
            <path class="cls-2" d="M87.67582,91.12587a1.24629,1.24629,0,1,1,1.24629-1.24629A1.24774,1.24774,0,0,1,87.67582,91.12587Zm0-2.0999a.85361.85361,0,1,0,.85361.85361A.85429.85429,0,0,0,87.67582,89.026Z"/>
          </g>
        </g>
        <g>
          <g>
            <circle class="cls-3" cx="73.20637" cy="87.67697" r="4.50725"/>
            <path class="cls-2" d="M73.20659,92.58614a4.90924,4.90924,0,1,1,4.90923-4.90923A4.91531,4.91531,0,0,1,73.20659,92.58614Zm0-9.01471a4.10548,4.10548,0,1,0,4.10547,4.10548A4.10979,4.10979,0,0,0,73.20659,83.57143Z"/>
          </g>
          <g>
            <path class="cls-2" d="M71.61824,90.76694a1.24629,1.24629,0,1,1,1.24629-1.24629A1.24774,1.24774,0,0,1,71.61824,90.76694Zm0-2.09991a.85362.85362,0,1,0,.85361.85362A.85429.85429,0,0,0,71.61824,88.667Z"/>
            <path class="cls-2" d="M71.02922,88.02663a1.24629,1.24629,0,1,1,1.24629-1.24629A1.24773,1.24773,0,0,1,71.02922,88.02663Zm0-2.0999a.85362.85362,0,1,0,.85362.85361A.8543.8543,0,0,0,71.02922,85.92673Z"/>
            <path class="cls-2" d="M73.41136,86.46513a1.24668,1.24668,0,1,1,1.24629-1.24629A1.24774,1.24774,0,0,1,73.41136,86.46513Zm0-2.10067a.854.854,0,1,0,.85362.85438A.85495.85495,0,0,0,73.41136,84.36446Z"/>
            <path class="cls-2" d="M75.56265,88.51365a1.24629,1.24629,0,1,1,1.24629-1.24629A1.24774,1.24774,0,0,1,75.56265,88.51365Zm0-2.09991a.85362.85362,0,1,0,.85361.85362A.8543.8543,0,0,0,75.56265,86.41374Z"/>
            <path class="cls-2" d="M74.48662,91.12587a1.24629,1.24629,0,1,1,1.24629-1.24629A1.24774,1.24774,0,0,1,74.48662,91.12587Zm0-2.0999a.85361.85361,0,1,0,.85362.85361A.85429.85429,0,0,0,74.48662,89.026Z"/>
          </g>
        </g>
        <g>
          <g>
            <circle class="cls-3" cx="54.92127" cy="85.32091" r="4.50725"/>
            <path class="cls-2" d="M54.921,90.23007a4.90923,4.90923,0,1,1,4.90924-4.90923A4.91531,4.91531,0,0,1,54.921,90.23007Zm0-9.0147a4.10547,4.10547,0,1,0,4.10547,4.10547A4.10978,4.10978,0,0,0,54.921,81.21537Z"/>
          </g>
          <g>
            <path class="cls-2" d="M53.33344,88.41087a1.24629,1.24629,0,1,1,1.24629-1.24629A1.24773,1.24773,0,0,1,53.33344,88.41087Zm0-2.0999a.85362.85362,0,1,0,.85362.85361A.8543.8543,0,0,0,53.33344,86.311Z"/>
            <path class="cls-2" d="M52.74443,85.67057a1.24629,1.24629,0,1,1,1.24629-1.24629A1.24772,1.24772,0,0,1,52.74443,85.67057Zm0-2.0999a.85361.85361,0,1,0,.85361.85361A.85429.85429,0,0,0,52.74443,83.57067Z"/>
            <path class="cls-2" d="M55.1258,84.10907a1.24668,1.24668,0,1,1,1.24629-1.24629A1.24773,1.24773,0,0,1,55.1258,84.10907Zm0-2.10067a.854.854,0,1,0,.85361.85438A.85494.85494,0,0,0,55.1258,82.0084Z"/>
            <path class="cls-2" d="M57.27709,86.15758a1.24629,1.24629,0,1,1,1.24629-1.24629A1.24772,1.24772,0,0,1,57.27709,86.15758Zm0-2.0999a.85361.85361,0,1,0,.85361.85361A.8543.8543,0,0,0,57.27709,84.05768Z"/>
            <path class="cls-2" d="M56.20183,88.76981a1.24629,1.24629,0,1,1,1.24629-1.24629A1.24773,1.24773,0,0,1,56.20183,88.76981Zm0-2.09991a.85362.85362,0,1,0,.85361.85362A.8543.8543,0,0,0,56.20183,86.6699Z"/>
          </g>
        </g>
        <g>
          <g>
            <circle class="cls-3" cx="62.14312" cy="87.44649" r="4.50725"/>
            <path class="cls-2" d="M62.14337,92.35529a4.90885,4.90885,0,1,1,4.90923-4.90847A4.91465,4.91465,0,0,1,62.14337,92.35529Zm0-9.01394a4.10509,4.10509,0,1,0,4.10547,4.10547A4.10978,4.10978,0,0,0,62.14337,83.34135Z"/>
          </g>
          <g>
            <path class="cls-2" d="M60.555,90.53685a1.24629,1.24629,0,1,1,1.24629-1.24629A1.24773,1.24773,0,0,1,60.555,90.53685Zm0-2.0999a.85362.85362,0,1,0,.85361.85361A.8543.8543,0,0,0,60.555,88.437Z"/>
            <path class="cls-2" d="M59.966,87.79655a1.24629,1.24629,0,1,1,1.24629-1.24629A1.24773,1.24773,0,0,1,59.966,87.79655Zm0-2.0999a.85361.85361,0,1,0,.85361.85361A.85429.85429,0,0,0,59.966,85.69665Z"/>
            <path class="cls-2" d="M62.34814,86.23428A1.24629,1.24629,0,1,1,63.59443,84.988,1.24773,1.24773,0,0,1,62.34814,86.23428Zm0-2.09991a.85362.85362,0,1,0,.85362.85362A.8543.8543,0,0,0,62.34814,84.13437Z"/>
            <path class="cls-2" d="M64.49943,88.28279a1.24629,1.24629,0,1,1,1.24629-1.24629A1.24773,1.24773,0,0,1,64.49943,88.28279Zm0-2.0999a.85362.85362,0,1,0,.85362.85361A.8543.8543,0,0,0,64.49943,86.18289Z"/>
            <path class="cls-2" d="M63.42341,90.895a1.24629,1.24629,0,1,1,1.24629-1.24629A1.24773,1.24773,0,0,1,63.42341,90.895Zm0-2.09991a.85362.85362,0,1,0,.85361.85362A.8543.8543,0,0,0,63.42341,88.79511Z"/>
          </g>
        </g>
        <g>
          <g>
            <circle class="cls-3" cx="47.64821" cy="87.4721" r="4.50725"/>
            <path class="cls-2" d="M47.64806,92.38136a4.90923,4.90923,0,1,1,4.90923-4.90923A4.9153,4.9153,0,0,1,47.64806,92.38136Zm0-9.0147a4.10547,4.10547,0,1,0,4.10547,4.10547A4.10978,4.10978,0,0,0,47.64806,83.36666Z"/>
          </g>
          <g>
            <path class="cls-2" d="M46.06048,90.56216a1.24629,1.24629,0,1,1,1.24629-1.24629A1.24772,1.24772,0,0,1,46.06048,90.56216Zm0-2.0999a.85361.85361,0,1,0,.85361.85361A.85429.85429,0,0,0,46.06048,88.46226Z"/>
            <path class="cls-2" d="M45.47146,87.82186a1.24629,1.24629,0,1,1,1.24629-1.24629A1.24774,1.24774,0,0,1,45.47146,87.82186Zm0-2.0999a.85361.85361,0,1,0,.85362.85361A.85429.85429,0,0,0,45.47146,85.722Z"/>
            <path class="cls-2" d="M47.85284,86.25959a1.24629,1.24629,0,1,1,1.24629-1.24629A1.24773,1.24773,0,0,1,47.85284,86.25959Zm0-2.09991a.85362.85362,0,1,0,.85361.85362A.8543.8543,0,0,0,47.85284,84.15968Z"/>
            <path class="cls-2" d="M50.00412,88.30887a1.24629,1.24629,0,1,1,1.24629-1.24629A1.24773,1.24773,0,0,1,50.00412,88.30887Zm0-2.0999a.85361.85361,0,1,0,.85362.85361A.85429.85429,0,0,0,50.00412,86.209Z"/>
            <path class="cls-2" d="M48.92886,90.92109a1.24629,1.24629,0,1,1,1.24629-1.24629A1.24773,1.24773,0,0,1,48.92886,90.92109Zm0-2.0999a.85362.85362,0,1,0,.85362.85361A.8543.8543,0,0,0,48.92886,88.82119Z"/>
          </g>
        </g>
        <g>
          <g>
            <circle class="cls-3" cx="39.22272" cy="81.45389" r="4.50725"/>
            <path class="cls-2" d="M39.22237,86.36312a4.90923,4.90923,0,1,1,4.90924-4.90923A4.91465,4.91465,0,0,1,39.22237,86.36312Zm0-9.0147a4.10547,4.10547,0,1,0,4.10547,4.10547A4.10961,4.10961,0,0,0,39.22237,77.34842Z"/>
          </g>
          <g>
            <path class="cls-2" d="M37.63479,84.54392a1.24629,1.24629,0,1,1,1.24629-1.24629A1.24773,1.24773,0,0,1,37.63479,84.54392Zm0-2.0999a.85362.85362,0,1,0,.85362.85361A.8543.8543,0,0,0,37.63479,82.444Z"/>
            <path class="cls-2" d="M37.04578,81.80362a1.24629,1.24629,0,1,1,1.24629-1.24629A1.24772,1.24772,0,0,1,37.04578,81.80362Zm0-2.0999a.85361.85361,0,1,0,.85361.85361A.85429.85429,0,0,0,37.04578,79.70372Z"/>
            <path class="cls-2" d="M39.42792,80.24135a1.24629,1.24629,0,1,1,1.24629-1.24629A1.24773,1.24773,0,0,1,39.42792,80.24135Zm0-2.0999a.85361.85361,0,1,0,.85361.85361A.85429.85429,0,0,0,39.42792,78.14145Z"/>
            <path class="cls-2" d="M41.57844,82.29063a1.24629,1.24629,0,1,1,1.24629-1.24629A1.24772,1.24772,0,0,1,41.57844,82.29063Zm0-2.0999a.85362.85362,0,1,0,.85361.85361A.8543.8543,0,0,0,41.57844,80.19073Z"/>
            <path class="cls-2" d="M40.50318,84.90286a1.24629,1.24629,0,1,1,1.24629-1.24629A1.24773,1.24773,0,0,1,40.50318,84.90286Zm0-2.09991a.85362.85362,0,1,0,.85361.85362A.8543.8543,0,0,0,40.50318,82.803Z"/>
          </g>
        </g>
        <path class="cls-2" d="M47.70251,95.249a5.43421,5.43421,0,0,1-2.98572-.88813L35.61235,88.3894a8.711,8.711,0,0,1-3.824-9.11441l.03758-.16566a6.06342,6.06342,0,0,1,1.97643-3.21888,7.57562,7.57562,0,0,1,4.99743-1.77778H75.10172v1.57071H38.79979a6.00834,6.00834,0,0,0-3.96589,1.39124,4.53268,4.53268,0,0,0-1.48021,2.39825l-.02761.12117a7.14214,7.14214,0,0,0,3.14679,7.48158l9.1052,5.97145a3.78317,3.78317,0,0,0,2.14438.6312l59.95-.293.00767,1.5707-59.95.293Z"/>
        <rect class="cls-2" x="98.61896" y="67.49891" width="0.8031" height="17.05153" transform="translate(10.57739 164.13044) rotate(-82.40638)"/>
        <g>
          <circle class="cls-3" cx="105.42297" cy="85.65383" r="8.70719"/>
          <path class="cls-2" d="M105.423,95.14621a9.49251,9.49251,0,1,1,9.49251-9.49251A9.503,9.503,0,0,1,105.423,95.14621Zm0-17.41431a7.9218,7.9218,0,1,0,7.9218,7.9218A7.93119,7.93119,0,0,0,105.423,77.7319Z"/>
        </g>
        <path class="cls-2" d="M105.423,92.3016a6.6479,6.6479,0,1,1,6.6479-6.6479A6.655,6.655,0,0,1,105.423,92.3016Zm0-12.70219a6.05429,6.05429,0,1,0,6.05428,6.05429A6.06091,6.06091,0,0,0,105.423,79.59941Z"/>
        <path class="cls-2" d="M105.423,87.78811a2.134,2.134,0,1,1,2.13441-2.13441A2.13639,2.13639,0,0,1,105.423,87.78811Zm0-3.48271a1.34868,1.34868,0,1,0,1.34906,1.3483A1.35035,1.35035,0,0,0,105.423,84.3054Z"/>
        <rect class="cls-2" x="103.35522" y="89.38412" width="4.45613" height="0.78538" transform="translate(14.98437 194.65551) rotate(-89.55239)"/>
        <rect class="cls-2" x="108.03293" y="86.18829" width="0.78533" height="4.48889" transform="translate(-29.79721 110.13331) rotate(-48.12339)"/>
        <rect class="cls-2" x="107.25337" y="85.04315" width="4.61076" height="0.78548" transform="translate(-1.48465 1.93874) rotate(-1.00705)"/>
        <rect class="cls-2" x="106.04057" y="82.2779" width="4.34746" height="0.78551" transform="translate(-26.27113 104.08188) rotate(-46.42419)"/>
        <rect class="cls-2" x="105.07503" y="79.32788" width="0.78565" height="4.18837" transform="translate(-2.21101 2.94733) rotate(-1.58444)"/>
        <rect class="cls-2" x="102.13616" y="80.53527" width="0.78551" height="4.34746" transform="translate(-28.06365 99.98727) rotate(-46.4296)"/>
        <rect class="cls-2" x="99.03347" y="85.1011" width="4.64787" height="0.78538" transform="translate(-0.66481 0.79444) rotate(-0.44761)"/>
        <rect class="cls-2" x="100.39653" y="88.32849" width="4.49561" height="0.78446" transform="translate(-31.47437 109.19993) rotate(-49.52022)"/>
        <rect class="cls-2" x="97.27919" y="91.49277" width="1.74144" height="2.76581"/>
        <rect class="cls-2" x="94.0524" y="91.49277" width="1.74144" height="2.76581"/>
        <rect class="cls-2" x="90.97928" y="91.49277" width="1.74144" height="2.76581"/>
        <rect class="cls-2" x="87.90615" y="91.49277" width="1.74144" height="2.76581"/>
        <rect class="cls-2" x="84.83303" y="91.49277" width="1.74144" height="2.76581"/>
        <rect class="cls-2" x="81.7599" y="91.49277" width="1.74144" height="2.76581"/>
        <rect class="cls-2" x="78.68678" y="91.49277" width="1.74144" height="2.76581"/>
        <rect class="cls-2" x="75.61365" y="91.49277" width="1.74144" height="2.76581"/>
        <rect class="cls-2" x="72.54052" y="91.49277" width="1.74144" height="2.76581"/>
        <rect class="cls-2" x="69.4674" y="91.49277" width="1.74144" height="2.76581"/>
        <rect class="cls-2" x="66.39427" y="91.49277" width="1.74144" height="2.76581"/>
        <rect class="cls-2" x="63.32115" y="91.49277" width="1.74144" height="2.76581"/>
        <rect class="cls-2" x="60.24802" y="91.49277" width="1.74144" height="2.76581"/>
        <rect class="cls-2" x="57.1749" y="91.49277" width="1.74144" height="2.76581"/>
        <rect class="cls-2" x="54.03348" y="91.49277" width="1.74144" height="2.76581"/>
        <rect class="cls-2" x="50.10671" y="91.49277" width="1.74144" height="2.76581"/>
        <rect class="cls-2" x="44.60923" y="91.49277" width="1.74144" height="2.76581" transform="matrix(0.84046, 0.54188, -0.54188, 0.84046, 57.58314, -9.82695)"/>
        <rect class="cls-2" x="41.46781" y="89.13671" width="1.74144" height="2.76581" transform="translate(55.80525 -8.50058) rotate(32.81149)"/>
        <rect class="cls-2" x="38.32639" y="86.78064" width="1.74144" height="2.76581" transform="translate(54.02737 -7.17421) rotate(32.81149)"/>
        <rect class="cls-2" x="35.18497" y="84.42458" width="1.74144" height="2.76581" transform="translate(52.24949 -5.84784) rotate(32.81149)"/>
        <g>
          <polygon class="cls-3" points="57.807 63.827 57.807 62.256 59.378 61.471 91.577 61.471 87.403 63.392 57.807 63.827"/>
          <path class="cls-2" d="M57.41437,64.226V62.01407L59.285,61.0784H93.37041l-5.96149,2.70579Zm.78536-1.72717v.92954l29.11409-.428,2.47034-1.13662H59.47056Z"/>
        </g>
        <g>
          <polygon class="cls-3" points="86.251 61.471 86.251 60.686 90.007 60.686 92.363 58.33 92.363 52.047 83.724 48.12 82.153 50.476 79.797 49.691 69.587 49.691 61.734 50.476 59.378 51.261 57.022 62.256 57.807 62.256 60.163 61.471 86.251 61.471"/>
          <path class="cls-2" d="M57.8707,62.6491H56.53622l2.50485-11.689,2.65364-.87432,7.85354-.78536,10.31238-.0023,2.13211.711,1.58988-2.38444,9.1727,4.16913v6.69852L90.16917,61.0784H86.64351v.78535H60.22677Zm-.36353-.78535h.23622l2.41972-.78535h25.695V60.293H89.844l2.126-2.126V52.29991L83.86563,48.6155l-1.55231,2.32768-2.58-.85974H69.58736l-7.77071.77921-2.1022.70023Z"/>
        </g>
        <g>
          <path class="cls-3" d="M91.57728,53.61753h1.7969L94.7187,52.273V46.54934H91.57728Z"/>
          <path class="cls-2" d="M93.53684,54.01021H91.18461V46.15666h3.92677v6.279ZM91.97,53.22485h1.24169L94.326,52.11048V46.942H91.97Z"/>
        </g>
        <rect class="cls-2" x="91.62867" y="48.01728" width="2.919" height="0.78535"/>
        <rect class="cls-2" x="91.78206" y="50.47611" width="2.84307" height="0.78535"/>
        <g>
          <path class="cls-3" d="M62.70271,45.7213H78.95186a0,0,0,0,1,0,0v2.689a0,0,0,0,1,0,0H62.70271a1.34449,1.34449,0,0,1-1.34449-1.34449v0A1.34449,1.34449,0,0,1,62.70271,45.7213Z"/>
          <path class="cls-2" d="M79.34447,48.80263h-16.642a1.73714,1.73714,0,0,1,0-3.47427h16.642Zm-16.642-2.68892a.95179.95179,0,0,0,0,1.90357H78.55912V46.11371Z"/>
        </g>
        <g>
          <rect class="cls-3" x="56.44121" y="53.40412" width="1.61339" height="8.22061" transform="translate(14.48655 -11.45439) rotate(13.06761)"/>
          <path class="cls-2" d="M57.39827,62.1713l-2.33689-.54147,2.03624-8.77235,2.33689.54147Zm-1.39355-1.129.80606.18713,1.68039-7.24305-.80607-.18713Z"/>
        </g>
        <g>
          <rect class="cls-3" x="54.90465" y="53.01998" width="1.61339" height="8.22061" transform="translate(14.3599 -11.11692) rotate(13.06761)"/>
          <path class="cls-2" d="M55.8613,61.78859l-2.33689-.543,2.037-8.77235,2.33689.54147Zm-1.39354-1.13048.80606.18713,1.68115-7.243-.80606-.18713Z"/>
        </g>
        <g>
          <polygon class="cls-3" points="52.523 59.397 30.857 58.859 30.857 56.247 52.523 55.709 52.523 59.397"/>
          <path class="cls-2" d="M52.91546,59.79913,30.4646,59.24156V55.86392l22.45086-.55757ZM31.25,58.47614l20.88015.51769V56.11164L31.25,56.62933Z"/>
        </g>
        <g>
          <polygon class="cls-3" points="55.855 52.944 54.213 53.327 52.523 55.248 52.6 59.781 53.996 60.952 55.855 52.944"/>
          <path class="cls-2" d="M54.23384,61.66358l-2.024-1.69726-.08206-4.864,1.87365-2.12828,2.37908-.556Zm-1.24476-2.06846.76925.645,1.57148-6.76984-.905.21091-1.507,1.71259Z"/>
        </g>
        <rect class="cls-2" x="64.26935" y="45.95189" width="0.78535" height="2.07459"/>
        <rect class="cls-2" x="66.88157" y="45.87519" width="0.78535" height="2.07383"/>
        <rect class="cls-2" x="69.4938" y="45.87519" width="0.78535" height="2.30468"/>
        <rect class="cls-2" x="72.3361" y="46.02858" width="0.78535" height="2.38137"/>
        <rect class="cls-2" x="88.54707" y="53.6344" width="0.78535" height="6.53056"/>
        <rect class="cls-2" x="85.62731" y="53.32762" width="0.78535" height="4.07172"/>
        <path class="cls-2" d="M71.73865,59.48238H60.07031l.84134-6.98153,1.5431-1.17956h9.2839ZM60.95537,58.697H70.9533V52.10664H62.72011l-1.06912.81757Z"/>
        <path class="cls-2" d="M85.18324,59.86585H74.04256l-.40034-.66724V52.543l.688-1.37514h9.94424l.90883,1.01007ZM74.48739,59.0805h9.9105V52.47861l-.47321-.52536h-9.1098l-.38731.77539v6.25215Z"/>
        <rect class="cls-2" x="61.20463" y="53.62597" width="9.9105" height="0.78535"/>
        <rect class="cls-2" x="64.26935" y="51.48311" width="0.78535" height="7.37573"/>
        <rect class="cls-2" x="66.88157" y="51.79066" width="0.78535" height="6.60725"/>
        <rect class="cls-2" x="69.03286" y="51.56058" width="0.78535" height="6.68395"/>
        <rect class="cls-2" x="75.8702" y="51.79066" width="0.78535" height="7.45243"/>
        <rect class="cls-2" x="77.8681" y="51.79066" width="0.78535" height="7.06819"/>
        <rect class="cls-2" x="80.01862" y="51.63727" width="0.78535" height="6.99149"/>
        <rect class="cls-2" x="82.2466" y="51.63727" width="0.78535" height="7.37497"/>
        <rect class="cls-2" x="64.73872" y="56.16149" width="6.29971" height="0.78535"/>
        <rect class="cls-2" x="74.03489" y="53.85682" width="10.52559" height="0.78535"/>
        <rect class="cls-2" x="73.9582" y="56.23819" width="10.52559" height="0.78535"/>
        <polygon class="cls-2" points="69.041 49.793 69.272 48.641 78.952 48.641 79.259 46.874 81.026 47.104 79.797 49.691 69.041 49.793"/>
      </g>
      <rect class="cls-4" x="60.76827" y="58.04021" width="29.89341" height="29.89341" transform="translate(-29.43314 74.91595) rotate(-45)"/>
      <path class="cls-5" d="M79.47479,73.71151V58.5818c0,.09063-4.53,0-4.53,0L63.89206,72.08071v6.0701h10.6905V83.496h4.98279V78.60374h3.26143V73.71151Zm-4.89223-.27183h-6.2512l6.2512-7.61017Z"/>
      <g>
        <g>
          <g>
            <path class="cls-3" d="M97.95126,45.206a.19252.19252,0,0,1-.18771-.14624l-.29779-1.17678c-.0872.00479-.17548.00745-.26587.00745a7.54085,7.54085,0,0,1-4.86878-1.93826,14.62377,14.62377,0,0,0-3.541-2.285.18245.18245,0,0,1-.09519-.02659l-.15474-.10369c-.23929-.12177-.4052-.20366-.40573-.20366a.68009.68009,0,0,1-.17176-.30789c.00053-.00107.01861-.18559.04254-.47486l-.00744-.16378a.19273.19273,0,0,1,.02871-.109,14.59319,14.59319,0,0,0-.07232-4.1993,7.55575,7.55575,0,0,1,1.071-5.38032l-.84283-.87421a.19373.19373,0,0,1,.02286-.28928,7.49144,7.49144,0,0,1,4.06795-1.38735,4.97776,4.97776,0,0,1,1.565.24726.194.194,0,0,1,.1021.28875c-.01914.02978-1.9005,2.96933-2.05471,4.387a.19277.19277,0,0,1-.12018.159.19.19,0,0,1-.07232.01382.19379.19379,0,0,1-.12443-.0452l-.93855-.7854A11.35339,11.35339,0,0,0,90.3551,33.77a1.80529,1.80529,0,0,0,1.57879,1.32141.7995.7995,0,0,0,.11433-.008c.0872-.04733,2.29347-1.25336,4.848-2.64975,4.00786-2.19138,8.93832-4.88632,10.155-5.50848l-1.1119-1.99994a.87633.87633,0,0,1,1.532-.85135l1.12148,2.018.22812-.12709a1.25139,1.25139,0,0,1,.21058-.09252,2.62886,2.62886,0,1,1,1.39586,2.51043,1.30329,1.30329,0,0,1-.19037.13028l-.22812.12656,1.12147,2.018a.87632.87632,0,0,1-1.532.85134L108.487,29.509c-1.16668.70245-6.0312,3.45164-9.98588,5.68662-2.56148,1.448-4.77412,2.69814-4.897,2.78056a1.7971,1.7971,0,0,0,.25631,2.09991A11.34327,11.34327,0,0,0,96.8569,41.615l-.17122-1.21241a.19291.19291,0,0,1,.07763-.18346.19089.19089,0,0,1,.11433-.03722.1868.1868,0,0,1,.084.01914,14.69682,14.69682,0,0,0,4.60289.57218l.21005-.00107a.19276.19276,0,0,1,.18824.23876c-.69767,2.89595-3.80951,4.13123-3.94139,4.18228A.19992.19992,0,0,1,97.95126,45.206Zm13.697-20.05631a.91034.91034,0,1,0,.7971.46795A.90995.90995,0,0,0,111.64828,25.14965Z"/>
            <path class="cls-6" d="M111.64588,23.6261a2.43393,2.43393,0,0,1,1.18649,4.56148,2.41144,2.41144,0,0,1-1.175.30523,2.45649,2.45649,0,0,1-1.256-.34657,1.24669,1.24669,0,0,1-.2583.19721l-.39762.221,1.21573,2.18711a.68446.68446,0,0,1-.26495.92812.67679.67679,0,0,1-.32955.08548.68437.68437,0,0,1-.5985-.35043l-1.20988-2.17661c.05677-.0361.08508-.0565.08242-.05963l-.08827.04912.00585.01051c-1.19738.76167-15.00992,8.51218-15.068,8.58144a1.95271,1.95271,0,0,0,.22959,2.38992A13.41915,13.41915,0,0,0,97.09473,41.911l-.21722-1.53545a14.87728,14.87728,0,0,0,4.68811.59138c.13347,0,.20911-.0012.20911-.0012-.68224,2.83055-3.8236,4.04668-3.8236,4.04668l-.33767-1.336a4.09976,4.09976,0,0,1-.4145.02021,7.3603,7.3603,0,0,1-4.72-1.86979,16.39929,16.39929,0,0,0-3.654-2.35994l-.02207.01282-.15461-.104c-.26109-.134-.42846-.21643-.42846-.21643l-.00266-.07371-.06129-.04121s.01835-.18572.04241-.47812L88.19151,38.38l.0226-.012a16.405,16.405,0,0,0-.07538-4.34912,7.2836,7.2836,0,0,1,1.13956-5.33725l-.9565-.99213a7.37387,7.37387,0,0,1,3.95176-1.34833,4.765,4.765,0,0,1,1.50368.23723s-1.92364,2.99047-2.084,4.47088l-1.18941-.99518a13.42187,13.42187,0,0,0-.3366,3.76458A1.99961,1.99961,0,0,0,91.93362,35.285a.99871.99871,0,0,0,.14225-.00977c.08947-.01283,13.96356-7.65226,15.24257-8.26731l.00585.01044.0884-.04912-.00159-.00067a.497.497,0,0,0-.09266.03935l-1.20988-2.17668a.68439.68439,0,0,1,.26481-.928.67618.67618,0,0,1,.32969-.08548.68424.68424,0,0,1,.5985.35029l1.21573,2.18712.39762-.221a1.24341,1.24341,0,0,1,.30377-.11519,2.42942,2.42942,0,0,1,2.4272-2.39291m.00585,3.53791a1.10412,1.10412,0,1,0-.96713-.56778,1.09692,1.09692,0,0,0,.96713.56778m-9.877,13.80171h.00266m9.86849-17.72714a2.81566,2.81566,0,0,0-2.79585,2.496c-.04267.01855-.08361.03876-.12336.06089l-.0589.0327-1.02748-1.84839a1.07,1.07,0,0,0-1.87046,1.03979l1.01459,1.82519c-1.46672.76434-6.127,3.31192-9.94706,5.4002-2.30863,1.262-4.49628,2.45785-4.86944,2.65168l-.0343.00086a1.62219,1.62219,0,0,1-1.39147-1.17691,9.92539,9.92539,0,0,1,.21695-2.9476l.68544.57357a.38754.38754,0,0,0,.634-.25551,15.1729,15.1729,0,0,1,2.02466-4.303.38743.38743,0,0,0-.20419-.57755,5.16454,5.16454,0,0,0-1.62532-.25691,7.70944,7.70944,0,0,0-4.18507,1.42631.38772.38772,0,0,0-.04586.57862l.73343.76068a7.67819,7.67819,0,0,0-1.00635,5.41848,14.39724,14.39724,0,0,1,.06527,4.10251.35475.35475,0,0,0-.03084.15387l.00585.16319c-.02274.27412-.03975.44741-.03988.449a.67941.67941,0,0,0,.27837.50072c.00146.00073.15767.07763.40241.20313l.1356.09119a.38638.38638,0,0,0,.16019.06189,14.33988,14.33988,0,0,1,3.43648,2.2143A7.76911,7.76911,0,0,0,97.199,44.08422q.059,0,.11751-.00147l.25884,1.02463a.38743.38743,0,0,0,.51567.26641c.1356-.05244,3.31644-1.3149,4.05279-4.28556a.3874.3874,0,0,0-.36638-.51009h-.00266l-.00758.00006c-.01143.0002-.08308.00113-.20153.00113a13.73394,13.73394,0,0,1-4.52021-.55309.38763.38763,0,0,0-.5517.4036l.12523.88491a9.92423,9.92423,0,0,1-2.61784-1.37186,1.59133,1.59133,0,0,1-.24674-1.83151c.3604-.214,2.5305-1.4404,4.82052-2.73463,3.79117-2.14259,8.41626-4.75651,9.83991-5.59888l1.01459,1.82519a1.07,1.07,0,0,0,1.87046-1.03978L110.27249,28.715l.05876-.03277c.03988-.02213.07856-.04619.11685-.07258a2.81709,2.81709,0,0,0,2.57251-.08329,2.82144,2.82144,0,0,0-1.37473-5.28773Zm.00585,3.53785a.715.715,0,1,1,.346-.09.71888.71888,0,0,1-.346.09Z"/>
          </g>
          <path class="cls-6" d="M102.74323,27.34377a6.50023,6.50023,0,0,1,3.05906,1.21813,6.31652,6.31652,0,0,1,1.23045,1.19707,17.57452,17.57452,0,0,0,1.14071,1.53924,2.05136,2.05136,0,0,0,1.40719.68977,1.45252,1.45252,0,0,0,.67618-.1812c.4512-.2303.89163-.48494,1.33219-.73477a2.19942,2.19942,0,0,0,1.11972-1.18592,4.71553,4.71553,0,0,0,.13889-1.86543c.40173.34549-.77146.41775-.85158.46228-.0903.0502-.84754.38352-.84216.47922a5.44,5.44,0,0,1-.06916,1.63176,2.22209,2.22209,0,0,1-.27854.66075,1.84655,1.84655,0,0,1-.259.32088c-.62427.61461,1.70964-.71209,1.10519-.58372-1.08962.23139-1.83935-.60376-2.39885-1.42313a7.49,7.49,0,0,0-2.03984-2.14564,6.49608,6.49608,0,0,0-2.77669-1.0208,1.16277,1.16277,0,0,0-.25137.13189q-.30116.16323-.6002.3304-.29942.16642-.59745.33535c-.0466.02655-.19961.14951-.24471.14387Z"/>
          <path class="cls-6" d="M94.60436,41.30579c.29946-.15743.43234-.23708.3973-.23839.07826-.04783.15785-.09521.235-.14323,2.1212-1.31958,1.28933-4.2771.26405-5.79008a6.4296,6.4296,0,0,0-3.01029-2.37643c-.11378-.04431-.81225.44042-.93461.50843-.2192.12185-.43827.24384-.65614.368a1.67937,1.67937,0,0,1-.26909.15743,6.14959,6.14959,0,0,1,4.04218,5.83819,3.20315,3.20315,0,0,1-.40592,1.42009.4002.4002,0,0,1-.13508.22567c-.00809.01116-.01788.0212-.0262.03232-.01834.00284-.03673.00618-.05523.00873-.4514.16442-2.14529.08867-4.64906-1.1707a6.03352,6.03352,0,0,1-.69729.39124,3.95026,3.95026,0,0,0,2.79044,1.82512,3.233,3.233,0,0,0,1.63935-.27679A16.46162,16.46162,0,0,0,94.60436,41.30579Z"/>
          <path class="cls-6" d="M90.53752,31.36326a12.0799,12.0799,0,0,1,3.70275,2.3952s-1.47277.99218-1.895,1.169a1.63122,1.63122,0,0,1-1.77269-.69189A5.86791,5.86791,0,0,1,90.53752,31.36326Z"/>
        </g>
        <g>
          <circle class="cls-7" cx="100.61136" cy="32.0059" r="6.82452"/>
          <path class="cls-6" d="M100.61116,39.21809a7.212,7.212,0,1,1,7.21238-7.21238A7.21978,7.21978,0,0,1,100.61116,39.21809Zm0-13.64937a6.43738,6.43738,0,1,0,6.43776,6.437A6.4442,6.4442,0,0,0,100.61116,25.56872Z"/>
        </g>
        <g>
          <path class="cls-3" d="M98.03321,16.8403a1.91374,1.91374,0,0,1,1.011-.90993s.15165-.455,1.11214-.50552,1.1627.455,1.31435,1.21324.10111,2.12319.70773,2.22429.90993-.455.80883-1.011-.25276-1.3649.75828-1.56711,2.78036.90993,4.14526,1.921,3.58919,2.5276,4.54968,2.57816c0,0-.55607,1.71876-6.319.75828l-3.48808,1.06159S104.15,24.47365,104.15,25.63635c0,0-2.67926-.50552-2.83091-.55608s-.455-1.26379-.70773-1.21324-.55607.96049-.55607.96049a25.02411,25.02411,0,0,0-2.83092,1.21324c-.15165.20221-.25276-.96049.15166-1.61766s.96049-1.87042.96049-1.87042l-3.03312-.90994a6.6859,6.6859,0,0,1-7.17838-.50552,17.12019,17.12019,0,0,0,4.09471-1.921,20.1384,20.1384,0,0,1,3.74084-2.42649c1.01011-.35651,1.76932.455,1.97153,1.41545s.35387.80884.80883.65718a.86671.86671,0,0,0,.55608-1.011A1.87006,1.87006,0,0,0,98.03321,16.8403Z"/>
          <path class="cls-6" d="M97.20131,26.45455a.4372.4372,0,0,1-.24542-.07593c-.40418-.27457-.28991-1.5408.0905-2.159.24465-.398.553-1.01927.74777-1.42575l-2.45193-.73474a7.077,7.077,0,0,1-7.4555-.61586l-.58211-.454.70482-.22165a16.845,16.845,0,0,0,3.98123-1.86445l.12655-.092a19.0402,19.0402,0,0,1,3.71432-2.38674,1.66105,1.66105,0,0,1,1.40582.10353,1.88115,1.88115,0,0,1,.38117.28684l.06289-.13728a2.33026,2.33026,0,0,1,1.09827-1.05839,1.67319,1.67319,0,0,1,1.356-.58134c1.31455-.069,1.56074.7516,1.7149,1.52469.04065.20094.06826.44329.09587.69408.08743.7938.18713,1.20565.296,1.224a.267.267,0,0,0,.25923-.06442.58656.58656,0,0,0,.1043-.49468c-.09587-.52613-.31675-1.741,1.06376-2.01707.92724-.191,2.39134.46323,4.45213,1.98946,2.03854,1.51012,3.70129,2.46957,4.33939,2.50255l.50311.02684-.15492.48011c-.06749.20708-.826,1.98946-6.66171,1.03538l-2.86915.87279a5.95412,5.95412,0,0,1,1.25856,2.82466v.46784l-.4594-.08666c-1.01007-.191-2.72726-.51846-2.88142-.56985-.23162-.07669-.32135-.2991-.48471-.70175-.02838-.06826-.066-.16106-.10507-.25156a4.28365,4.28365,0,0,0-.18407.45633l-.05829.17487-.17256.06519a26.89569,26.89569,0,0,0-2.70272,1.13048A.346.346,0,0,1,97.20131,26.45455ZM95.254,21.224l3.62,1.08524-.1856.40494c-.023.04986-.57061,1.24246-.98246,1.912a1.90473,1.90473,0,0,0-.22318.82831c.39345-.18637,1.073-.47244,2.26633-.92494.35126-.95562.67568-1.02081.78612-1.04228.46477-.09817.67262.42105.89426.96712.03528.08666.08283.204.11888.28223.33209.07133,1.30458.25847,2.12981.41569a8.49866,8.49866,0,0,0-1.346-2.30544l-.362-.44713,4.12541-1.2555.08974.01534c3.43285.57214,4.897.1741,5.499-.16949a20.35059,20.35059,0,0,1-4.02417-2.47341c-2.42586-1.79619-3.45357-1.935-3.83858-1.85218-.54146.10814-.589.37274-.454,1.11131a1.33754,1.33754,0,0,1-.31368,1.18493,1.0292,1.0292,0,0,1-.93875.28377c-.7424-.12348-.84747-1.06912-.93951-1.90279-.02454-.227-.04831-.4456-.08436-.62737-.14879-.74087-.28991-.93107-.9142-.90193-.64194.03375-.77462.26537-.77615.26843l-.05983.1787-.16642.036a1.38733,1.38733,0,0,0-.53073.352,2.227,2.227,0,0,1,1.02618,1.0975,1.2513,1.2513,0,0,1-.80683,1.48481l-.10431.03681a.83188.83188,0,0,1-.71173.01994c-.26843-.15108-.385-.48164-.49391-1.00163a1.60235,1.60235,0,0,0-.69639-1.08139.89643.89643,0,0,0-.76771-.04832,19.442,19.442,0,0,0-3.51416,2.2809l-.12578.092a15.238,15.238,0,0,1-3.475,1.72564,6.31432,6.31432,0,0,0,6.13482.05368Zm2.69275-4.00269a2.71527,2.71527,0,0,1,.3643.90423,3.06232,3.06232,0,0,0,.11658.43562l.07209-.02531.11811-.04065a.48489.48489,0,0,0,.30678-.53763,1.55264,1.55264,0,0,0-.92954-.73166Z"/>
        </g>
        <path class="cls-8" d="M102.07737,22.60323s-.65718-.75828-.50552-.90994a22.12351,22.12351,0,0,0,2.22428-3.18477c.05055-.40442.25276-1.11215.90994-1.11215s5.45961,3.842,6.319,3.99361c0,0-1.81987.20221-2.17374-.1011s-3.387-2.37595-3.58919-2.22429a10.72084,10.72084,0,0,0,.30331,2.6287Z"/>
        <path class="cls-3" d="M96.87051,27.45622a2.36615,2.36615,0,0,0-.60662,1.76932,1.69821,1.69821,0,0,0,1.2638,1.3649,11.51917,11.51917,0,0,1,2.932,1.36491,1.76845,1.76845,0,0,0,.90994.50552,1.36678,1.36678,0,0,0,.40441,1.3649,1.80657,1.80657,0,0,1,.50552,1.466c.05056.25276-.2022,2.32539.10111,2.37594s2.78036-3.53864,3.03312-4.29692-.55608-1.51656-.96049-1.81987a7.37976,7.37976,0,0,0-2.4265-.40442,17.87434,17.87434,0,0,1-2.22428-1.16269s1.51656-1.31435,1.61766-2.17374.80883-.35386.455-.90993S99.1959,25.28248,96.87051,27.45622Z"/>
        <path class="cls-8" d="M98.6603,22.6032s.72922-.75828.56094-.90993a22.25633,22.25633,0,0,1-2.46815-3.18478c-.05609-.40442-.28047-1.11214-1.00969-1.11214S89.68523,21.2383,88.73163,21.39c0,0,2.01939.20221,2.41205-.1011s3.75831-2.37594,3.98268-2.22429-.33656,2.62871-.33656,2.62871Z"/>
        <path class="cls-6" d="M101.36964,27.00125a19.34461,19.34461,0,0,0-1.71877,1.76932c-.05055.20221-1.2638.25276-1.56711.80883a.8443.8443,0,0,0,.60662,1.1627,16.80689,16.80689,0,0,1,2.67926,1.21325s-2.02208-1.466-1.76932-1.921a6.30008,6.30008,0,0,1,1.31435-1.21325l.85938-1.56711Z"/>
        <path class="cls-6" d="M102.12792,32.05645a.68752.68752,0,0,1,.96048.50552c.20221.80883-.65717,4.54968-.65717,4.54968s.20221-3.43754-.1011-3.6903a4.19453,4.19453,0,0,1-.65718-1.21324Z"/>
      </g>
    </g>
  </g>
</svg>
