<svg xmlns="http://www.w3.org/2000/svg" width="150" height="150" viewBox="0 0 150 150">
  <defs>
    <style>
      .cls-1 {
        fill: #eee;
      }

      .cls-2 {
        fill: #1a1a1a;
      }
    </style>
  </defs>
  <g id="Layer_5" data-name="Layer 5">
    <g>
      <g>
        <g>
          <path class="cls-1" d="M117.661,114.82107s5.1174-4.187,13.8635-16.56177l.46522,12.09568,12.18872-.74435s-11.63046,14.04959-20.28351,21.1209l-7.25741-9.30436Z"/>
          <path class="cls-2" d="M123.61054,133.26634l-8.85329-11.35,1.24555-8.04313.52665-.43051c.09125-.07593,5.1236-4.30717,13.53872-16.213l3.03655-4.29534.597,15.529,14.47219-.88331-2.62206,3.16751c-.47927.57959-11.84038,14.2653-20.52857,21.36451Zm-5.093-12.328,5.64328,7.23435a184.02276,184.02276,0,0,0,15.94066-16.52651l-9.82437.59979L129.94,103.4672a89.73372,89.73372,0,0,1-10.61643,12.26741Z"/>
        </g>
        <polygon class="cls-2" points="127.338 121.148 123.895 131.569 119.429 125.242 127.338 121.148"/>
      </g>
      <g>
        <g>
          <path class="cls-1" d="M32.34,114.68151s-5.1174-4.187-13.8635-16.56177l-.46522,12.09567-12.18872-.74435S17.453,123.52065,26.10605,130.592l7.25741-9.30437Z"/>
          <path class="cls-2" d="M26.39015,133.12771l-1.41273-1.155c-8.6875-7.09921-20.0493-20.78492-20.52857-21.36451L1.82609,107.4407l14.47358.88331.597-15.529,3.03655,4.29533C28.441,109.1286,33.4197,113.26092,33.46916,113.30133l.52873.4319,1.24555,8.04313ZM9.89986,111.50685a184.00554,184.00554,0,0,0,15.94,16.52651l5.64328-7.235-.806-5.20372A89.701,89.701,0,0,1,20.0607,103.32788l-.33786,8.77875Z"/>
        </g>
        <polygon class="cls-2" points="22.663 121.008 26.106 131.429 30.572 125.102 22.663 121.008"/>
      </g>
      <g>
        <path class="cls-1" d="M75.047,67.648l50.02291,53.53946a73.27187,73.27187,0,0,1-100.04583,0Z"/>
        <path class="cls-2" d="M75.04667,142.70339A74.81238,74.81238,0,0,1,23.8064,122.49108l-1.30267-1.21768L75.04667,65.03561l52.54364,56.23779-1.30267,1.21768A74.81279,74.81279,0,0,1,75.04667,142.70339ZM27.55977,121.086a71.48935,71.48935,0,0,0,94.9745,0L75.04667,70.26023Z"/>
      </g>
      <g>
        <circle class="cls-1" cx="75.04701" cy="67.64795" r="58.61749"/>
        <path class="cls-2" d="M75.04667,127.99922a60.35131,60.35131,0,1,1,60.352-60.3513A60.41938,60.41938,0,0,1,75.04667,127.99922Zm0-117.23486a56.88356,56.88356,0,1,0,56.88425,56.88356A56.94782,56.94782,0,0,0,75.04667,10.76436Z"/>
      </g>
      <g>
        <polygon class="cls-2" points="51.825 124.268 47.868 122.239 47.325 123.295 48.398 123.961 44.432 127.031 44.545 121.979 45.813 122.525 46.358 121.464 41.791 119.123 41.27 120.135 42.415 120.854 42.427 129.173 43.444 129.695 49.875 124.714 51.308 125.278 51.825 124.268"/>
        <path class="cls-2" d="M58.04256,132.45929l-1.8119-6.77946-3.44477-.8854-.28352,1.102,1.38836.49112-1.49843,5.82719-1.45871-.21735-.28213,1.09717,4.19781,1.07976L55.1307,133.08l-1.25669-.48137.85265-3.31589.16719-.79275,1.65725,6.12186,1.18007.30373,4.28209-4.64225-.77115,3.001q-.15151.58725-.31835,1.1536l-1.37025-.21665-.28282,1.1,4.95572,1.27411.28353-1.10275-1.426-.50086q.14-.59352.28492-1.18216.18182-.73666.36851-1.46568l.1442-.56008q.19122-.7398.38871-1.47822.15673-.5862.31626-1.15708l1.49076.24939.28352-1.10274-3.63912-.93556Z"/>
        <path class="cls-2" d="M73.89753,128.43912l-1.45871-.04458-3.7067,7.22251-1.48866.11982-.03414,1.13061,4.41376.13514.03483-1.13409-1.41622-.18042.64994-1.26715,3.34585.1031.56008,1.31242-1.42806.08221-.03414,1.13687,5.11386.15744.03622-1.13827-1.33611-.15674Zm-2.38591,4.76276,1.17937-2.32739,1.02333,2.39566Z"/>
        <rect class="cls-2" x="80.84142" y="132.56274" width="4.46492" height="1.46151" transform="translate(-15.40769 10.94234) rotate(-6.89808)"/>
        <path class="cls-2" d="M90.1454,133.75569c.01462-.016.02925-.032.04319-.04806.255-.28074.47021-.52386.64228-.72448a24.76665,24.76665,0,0,0,1.582-1.922,4.98621,4.98621,0,0,0,.75374-1.39671,2.33348,2.33348,0,0,0,.04806-1.22465,2.08631,2.08631,0,0,0-1.224-1.46916,4.03327,4.03327,0,0,0-2.58653-.032,6.21276,6.21276,0,0,0-1.52977.5775,3.33739,3.33739,0,0,0-1.12991.96133,1.99439,1.99439,0,0,0-.37966,1.36327l.01184.147.115.09265a1.33758,1.33758,0,0,0,1.18982.23894,1.18169,1.18169,0,0,0,.6987-.43608,1.76216,1.76216,0,0,0,.29328-.852l.08638-.66109c.06618-.02369.13166-.04528.19505-.06479.1233-.03692.23406-.06757.33507-.09126a1.89972,1.89972,0,0,1,1.26018.05713,1.07156,1.07156,0,0,1,.5977.77185,2.10678,2.10678,0,0,1-.20133,1.31451,9.12073,9.12073,0,0,1-1.30476,1.97839q-.41274.50887-.89933,1.0909-.48588.57993-1.01079,1.17589l-.117.133.29815,1.24973,7.18072-1.71576-.38384-1.605Z"/>
        <path class="cls-2" d="M102.2477,127.40186a2.92966,2.92966,0,0,0-1.02472-.13236,3.16407,3.16407,0,0,0,.427-.62834,1.82938,1.82938,0,0,0,.12051-1.5444,1.85519,1.85519,0,0,0-1.53952-1.14733,4.76179,4.76179,0,0,0-2.49389.37687,5.01346,5.01346,0,0,0-1.7903,1.13618,2.06666,2.06666,0,0,0-.64158,1.68372l.01184.12191.08638.08638a.93008.93008,0,0,0,.63114.28283,1.49029,1.49029,0,0,0,.61441-.10868,1.20946,1.20946,0,0,0,.69244-.567,1.66438,1.66438,0,0,0,.13653-.78787l-.01184-.40892q.08673-.04284.163-.07941.15255-.07106.29467-.12678a2.28153,2.28153,0,0,1,1.29988-.19645.80485.80485,0,0,1,.60327.53639.9837.9837,0,0,1-.10449.99129,2.74583,2.74583,0,0,1-1.29362.88958l-.92441.36363.466,1.18425,1.04632-.4117a2.977,2.977,0,0,1,1.69765-.26541,1.04615,1.04615,0,0,1,.77951.68477,1.13849,1.13849,0,0,1-.07941,1.07418,2.68609,2.68609,0,0,1-1.35144.946c-.10658.04179-.22988.08568-.36642.13235-.07941.02647-.16579.05086-.25844.07454l-.29049-.33995a2.23591,2.23591,0,0,0-.67293-.55729,1.13057,1.13057,0,0,0-.91466.02786,1.298,1.298,0,0,0-.83733.90073l-.03831.15465.09334.12887a2.20137,2.20137,0,0,0,1.73388.93486q.11286.00627.22779.00627a5.40758,5.40758,0,0,0,1.96516-.41031,5.93356,5.93356,0,0,0,1.78264-1.047,3.47868,3.47868,0,0,0,.97944-1.35213,2.00673,2.00673,0,0,0,.00488-1.47683A1.89552,1.89552,0,0,0,102.2477,127.40186Z"/>
        <path class="cls-2" d="M111.41308,125.83239l-2.17623.8631c-.101-.17206-.20063-.34413-.29955-.51758-.14629-.25845-.28909-.51341-.427-.76767l-1.63217-2.98918-.84569-1.70671-.59213.01463-2.95922,2.40959.54127.992,1.82722-1.14454,1.85857,3.40785q.20689.38035.4131.77324.13792.26646.27377.53361l-1.88992,1.35492.51131.93834,5.90939-3.22464Z"/>
      </g>
      <circle class="cls-2" cx="75.04701" cy="67.64795" r="49.12704"/>
      <rect class="cls-1" x="46.48261" y="29.96527" width="56.94271" height="74.24882" rx="3.72175"/>
      <path class="cls-2" d="M82.51414,59.64623a27.22066,27.22066,0,0,1-7.62968-9.86269c-.11625-.27917-.30233-.20933-.37339,0a27.22066,27.22066,0,0,1-7.62968,9.86269c-5.30351,4.18692-8.09468,7.25734-6.88518,13.77035,1.2095,6.51318,7.16435,6.60618,9.30435,6.60618a9.895,9.895,0,0,0,4.62492-1.79509,11.86826,11.86826,0,0,1-4.29855,7.93593H79.76861a11.86772,11.86772,0,0,1-4.29847-7.93585,9.89571,9.89571,0,0,0,4.62483,1.795c2.14,0,8.09485-.093,9.30435-6.60618C90.609,66.90357,87.81765,63.83315,82.51414,59.64623Z"/>
      <path class="cls-2" d="M55.27251,45.63929a7.39684,7.39684,0,0,1-2.07327-2.68006c-.03159-.07586-.08216-.05688-.10146,0a7.3968,7.3968,0,0,1-2.07328,2.68006c-1.44116,1.13775-2.19963,1.9721-1.871,3.74193a2.25635,2.25635,0,0,0,2.52834,1.79514,2.68885,2.68885,0,0,0,1.25677-.48779,3.225,3.225,0,0,1-1.16808,2.15649h2.75587a3.22493,3.22493,0,0,1-1.16805-2.15647,2.689,2.689,0,0,0,1.25674.48777,2.25635,2.25635,0,0,0,2.52834-1.79514C57.47219,47.61139,56.71367,46.777,55.27251,45.63929Z"/>
      <path d="M49.35854,41.23258v-.50923l.97387-.16091,2.46811-7.6983h.73l2.46881,7.74776.86938.11145v.50923H53.71657v-.50923l1.13548-.14907-.6374-2.03621H51.52571l-.64854,2.02437,1.13548.16091v.50923Zm3.52349-6.978L51.711,37.955H54.0405Z"/>
      <path class="cls-2" d="M99.003,90.04588a7.39684,7.39684,0,0,0-2.07327,2.68006c-.03159.07586-.08216.05688-.10147,0A7.39684,7.39684,0,0,0,94.755,90.04588c-1.44116-1.13775-2.19963-1.9721-1.871-3.74193a2.25635,2.25635,0,0,1,2.52834-1.79514,2.68885,2.68885,0,0,1,1.25677.48779,3.225,3.225,0,0,0-1.16808-2.15649H98.257a3.22493,3.22493,0,0,0-1.16805,2.15647,2.689,2.689,0,0,1,1.25674-.48777A2.25635,2.25635,0,0,1,100.874,86.304C101.20269,88.07378,100.44418,88.90813,99.003,90.04588Z"/>
      <path d="M97.40762,94.53065a4.13388,4.13388,0,0,1,1.26853.19506,3.98583,3.98583,0,0,1,1.02194.4723l-.07036,1.76174h-.728l-.23546-1.48518a2.07916,2.07916,0,0,0-.558-.23894,2.60084,2.60084,0,0,0-.66387-.07593,2.05931,2.05931,0,0,0-1.32706.39637,1.3637,1.3637,0,0,0-.4939,1.12643,1.23846,1.23846,0,0,0,.34692.93764,3.62421,3.62421,0,0,0,1.09856.64855l.45837.20132a4.153,4.153,0,0,1,1.4622.97527,2.43146,2.43146,0,0,1,.21177,2.80039,2.29347,2.29347,0,0,1-.946.799,3.34734,3.34734,0,0,1-2.42005.10728,3.01562,3.01562,0,0,1-.85753-.47858l.07036-1.64889h.71682l.2466,1.42249a1.88674,1.88674,0,0,0,.96342.25148,1.77115,1.77115,0,0,0,1.12782-.35875,1.26847,1.26847,0,0,0,.45837-1.063,1.35855,1.35855,0,0,0-.34691-.95645,2.72965,2.72965,0,0,0-.98084-.64228l-.47021-.18879a4.20355,4.20355,0,0,1-1.64471-1.07557,2.48179,2.48179,0,0,1-.13515-2.769,2.33285,2.33285,0,0,1,.98153-.8241A3.394,3.394,0,0,1,97.40762,94.53065Z"/>
    </g>
  </g>
</svg>
