<svg xmlns="http://www.w3.org/2000/svg" width="150" height="150" viewBox="0 0 150 150">
  <defs>
    <style>
      .cls-1 {
        fill: #eee;
      }

      .cls-2 {
        fill: #ed1c24;
      }
    </style>
  </defs>
  <g id="Layer_2" data-name="Layer 2">
    <g>
      <g>
        <circle class="cls-1" cx="74.99964" cy="75" r="68.58305"/>
        <path class="cls-2" d="M75,9.8339A65.1661,65.1661,0,1,1,9.8339,75,65.24,65.24,0,0,1,75,9.8339M75,3a72,72,0,1,0,72,72A72,72,0,0,0,75,3Z"/>
      </g>
      <g>
        <path class="cls-2" d="M65.48136,35.461v79.078H58.07173L43.27119,99.73844V50.26156L58.07173,35.461h7.40963m6.83389-6.8339H55.24111L36.43729,47.431v55.1381l18.80382,18.80383H72.31525V28.62712Z"/>
        <path class="cls-2" d="M91.92827,35.461l14.80054,14.80054V99.73844L91.92827,114.539H84.51864V35.461h7.40963m2.83062-6.8339H77.68475v92.74576H94.75889l18.80382-18.80383V47.431L94.75889,28.62712Z"/>
      </g>
    </g>
  </g>
</svg>
