<?xml version="1.0" encoding="UTF-8"?>
<svg id="Layer_6" data-name="Layer 6" xmlns="http://www.w3.org/2000/svg" width="148" height="148" xmlns:xlink="http://www.w3.org/1999/xlink" viewBox="0 0 148 148">
  <defs>
    <style>
      .cls-1 {
        fill: #7d5257;
      }

      .cls-1, .cls-2, .cls-3, .cls-4, .cls-5, .cls-6, .cls-7, .cls-8, .cls-9, .cls-10, .cls-11, .cls-12, .cls-13, .cls-14, .cls-15, .cls-16, .cls-17, .cls-18, .cls-19, .cls-20, .cls-21, .cls-22, .cls-23, .cls-24, .cls-25, .cls-26, .cls-27, .cls-28, .cls-29, .cls-30, .cls-31, .cls-32 {
        fill-rule: evenodd;
      }

      .cls-2 {
        fill: #642818;
      }

      .cls-3 {
        fill: #590200;
      }

      .cls-4 {
        fill: #2b0c03;
      }

      .cls-5 {
        fill: #0f0005;
      }

      .cls-6 {
        fill: #b3908d;
      }

      .cls-7 {
        fill: #2c1614;
      }

      .cls-8 {
        fill: #dfc28f;
      }

      .cls-9 {
        fill: #d5932c;
      }

      .cls-10 {
        fill: #cd9b6a;
      }

      .cls-11 {
        fill: #d8c3b2;
      }

      .cls-12 {
        fill: #120000;
      }

      .cls-13 {
        fill: #070f10;
      }

      .cls-14 {
        fill: #e2cdc3;
      }

      .cls-15 {
        fill: #37180c;
      }

      .cls-16 {
        fill: #d45d68;
      }

      .cls-17 {
        fill: #b0452a;
      }

      .cls-18 {
        fill: #c0562d;
      }

      .cls-19 {
        fill: #4f7694;
      }

      .cls-20 {
        fill: #20303c;
      }

      .cls-21 {
        fill: #572517;
      }

      .cls-22 {
        fill: #706777;
      }

      .cls-23 {
        fill: #d79c88;
      }

      .cls-33 {
        clip-rule: evenodd;
      }

      .cls-33, .cls-34, .cls-35 {
        fill: none;
      }

      .cls-24 {
        fill: #b6a198;
      }

      .cls-25 {
        fill: #d46833;
      }

      .cls-34 {
        clip-path: url(#clippath);
      }

      .cls-36 {
        fill: #b3b3b3;
      }

      .cls-26 {
        fill: #7d182a;
      }

      .cls-27 {
        fill: #7f331e;
      }

      .cls-28 {
        fill: #a73033;
      }

      .cls-37 {
        fill: #1a1a1a;
      }

      .cls-35 {
        clip-path: url(#clippath-1);
      }

      .cls-29 {
        fill: #41536d;
      }

      .cls-30 {
        fill: #080203;
      }

      .cls-31 {
        fill: #99202c;
      }
    </style>
    <clipPath id="clippath">
      <path class="cls-33" d="m53.74,104.67c-.65.19-1.34.29-1.86.3-5.63.07-12.03.27-17.38.12-2.09-.06-4.08-.89-5.48-2.43l-17.9-19.6c-.94-1.03-.94-2.6,0-3.63l.06-.07c.96-1.06,2.58-1.19,3.69-.29l22.01,17.69c1.33,1.07,3.03,1.59,4.73,1.45.36-.03,2.36-1.06,2.77-1.09,2.82-.23,4.78-.36,7.77-.08,1.09.1,2.36.58,3.16,1.32.81.74,1.27,1.79,1.27,2.89h0c0,.98-.41,1.76-1.07,2.46l13.81-.19,1.94,4.26c.49,1.07,1.43,1.88,2.56,2.19,5.57,1.56,23.69,6.24,28.68,7.71.53.16,1.15.66,1.24,1.11.09.44-.23,1.25-.71,1.55-.62.38-1.97.82-3,.75-6.36-.44-25.42-2.37-35.17-3.39-2.85-.3-5.36-2-6.68-4.54l-4.44-8.49Z"/>
    </clipPath>
    <clipPath id="clippath-1">
      <path class="cls-33" d="m64.9,67.6l.19-.06c-.08.1-.15.2-.21.31l-.14,1.58c.13.28.33.57.62.85,0,0,1.74-.66,4.89-.7s3.96,2.1,5.8,3.74c1.84,1.64.88,3.33,0,4.83-.78,1.32-2.36,2.98-2.36,2.98,0,0-4.03,3.96-4.76,5.75-.73,1.78-.66,3.49-.66,3.49l-10.41.15s.66-3.45-.86-3.96c-1.52-.51-1.34-3.47-1.34-3.47l.51-2.24-.37-1.71c-1.05-.57-3.11-1.76-4.18-2.77-1.47-1.4-1.24-4.54-1.24-4.54,0,0,10.04-4.32,12.13-4.87,2.09-.54,2.4.32,2.4.32l-.03.33Z"/>
    </clipPath>
  </defs>
  <circle class="cls-36" cx="74" cy="74" r="70"/>
  <circle class="cls-37" cx="74" cy="74" r="68"/>
  <path class="cls-11" d="m19.92,83.2s.97-11.2,21.22-7.26c-.52.14-.53-2.95.45-3.59-5.63-4.38-7.54-7-7.01-12.6.6-6.31,3.2-7.04,5.08-9.16-1.3-15.06,10.61-24.37,20.93-21.74,3-9.2,14.25-11.69,21.39-4.8,13.99-6.16,25.19,6.4,25.03,15.57,2.17.16,9.96.44,12.63,6.8,2.07,5.58-4.33,10.05-5.58,10.64-.32,1.02.63,2.26,1.56,2.79,2.25-.53,6.97-.56,7.66,2.28,1.11,4.61-3.74,6.29-6.25,5.36-.4.42-.83.95-.81,1.53,1.2,1.02,2.05,5.6,1.17,8.16-.73,2.11-3.61,4.77-6.15,6.19-.31.15-.51.45-.54.79-.03.34.13.67.41.86,1.18.84,2.83,1.96,2.04,4.87,2.55-.28,6.65,1.47,8.01,6.82.73,1.72-.24,4.85-1.77,6.34-1.53,1.5-4.79,2.6-7.39,2.64-2.6.05-5.99-.41-8.22-2.37-.57,1.37-1.9,1.72-3.51,1.4.24.67.93,2.81.13,4.21-.65,1.08-1.98.9-2.42,1.45-.39.48-.34,1.23-.23,1.84.13.75,1.08,1.46,1.04,2.64,0,.63-.74,2.46-1.63,2.24-7.59-1.92-31.08-8.82-43.89-13.74-11.38-4.38-27.42-12.47-32.97-15.83-1.24-.75-.36-4.34-.36-4.34Z"/>
  <path class="cls-30" d="m41.03,75.93s.07.01.11.02c-.04.01-.08,0-.11-.02Zm0,0c-20.14-3.88-21.11,7.28-21.11,7.28,0,0-.88,3.59.36,4.34,5.56,3.36,21.59,11.45,32.97,15.83,12.81,4.93,36.3,11.83,43.89,13.74.89.23,1.63-1.61,1.63-2.24.05-1.18-.9-1.89-1.04-2.64-.11-.61-.16-1.36.23-1.84.44-.55,1.77-.36,2.42-1.45.8-1.4.11-3.55-.13-4.21,1.61.32,2.95-.03,3.51-1.4,2.23,1.96,5.62,2.41,8.22,2.37,2.6-.05,5.86-1.15,7.39-2.64,1.53-1.5,2.5-4.62,1.77-6.34-1.36-5.35-5.46-7.11-8.01-6.82.79-2.91-.86-4.03-2.04-4.87-.28-.2-.43-.52-.41-.86.03-.34.23-.64.54-.79,2.54-1.42,5.43-4.08,6.15-6.19.88-2.56.03-7.14-1.17-8.16-.02-.58.41-1.11.81-1.53,2.51.93,7.36-.75,6.25-5.36-.69-2.85-5.41-2.81-7.66-2.28-.92-.53-1.87-1.77-1.56-2.79,1.25-.59,7.65-5.06,5.58-10.64-2.67-6.36-10.46-6.64-12.63-6.8.16-9.17-11.04-21.74-25.03-15.57-7.15-6.88-18.39-4.4-21.39,4.8-10.31-2.63-22.23,6.68-20.93,21.74-1.88,2.12-4.49,2.85-5.08,9.16-.53,5.59,1.39,8.22,7.01,12.6-.91.59-.97,3.28-.56,3.57Zm-22.1,7.11h0c.06-.52.53-3.35,3.37-5.71,2.76-2.29,7.9-4.23,17.5-2.64,0-.45.06-.94.17-1.39.07-.27.15-.52.26-.75-5.41-4.33-7.18-7.18-6.64-12.89.6-6.37,3.09-7.4,5.05-9.42-1.07-15.18,10.76-24.58,21.32-22.55,3.56-9.01,14.76-11.45,22.24-4.81,14.03-5.7,25.24,6.36,25.8,15.81,1.33.11,3.38.34,5.48,1.06,2.79.97,5.63,2.8,7.1,6.28,0,.01.01.03.02.04,1.17,3.16,0,6.02-1.7,8.16-1.32,1.66-2.93,2.87-3.86,3.44.04.15.12.29.21.44.16.26.37.49.6.67,1.5-.28,3.69-.34,5.41.21,1.5.48,2.65,1.42,3.01,2.9,1.26,5.19-3.71,7.34-6.87,6.72-.02.03-.04.06-.06.09,0,.01-.01.02-.02.04.43.6.82,1.53,1.08,2.62.46,1.96.54,4.45-.04,6.14-.79,2.28-3.86,5.19-6.61,6.73.83.6,1.82,1.34,2.31,2.55.24.58.37,1.27.3,2.11,2.81.29,6.45,2.38,7.77,7.5.33.84.38,1.92.16,3.05-.31,1.61-1.14,3.3-2.18,4.33-1.67,1.64-5.22,2.88-8.07,2.93-2.48.04-5.62-.37-7.98-1.92-.61.66-1.44,1-2.42,1.06.07.36.13.76.15,1.16.04.85-.09,1.72-.5,2.44,0,0,0,.01-.01.02-.47.78-1.15,1.13-1.83,1.36-.24.08-.61.21-.7.24-.04.08-.05.18-.06.27-.02.24.02.49.06.72.05.27.28.52.46.82.34.57.62,1.22.59,2,0,.61-.48,2.01-1.2,2.69-.5.48-1.09.66-1.68.51-7.61-1.92-31.16-8.84-44-13.78-11.43-4.4-27.55-12.53-33.13-15.91-.6-.36-.98-1.09-1.1-2-.16-1.3.19-2.98.27-3.36Z"/>
  <path class="cls-19" d="m77.8,98.49l-1.19,5.99-31.05-.56-5.9-6.32,4.37-9.55,12.56,3.09,16.91-.5,3.8,2.91s.01,0,.02,0h30.74v4.95h-30.25Z"/>
  <path class="cls-9" d="m53.74,104.67c-.65.19-1.34.29-1.86.3-5.63.07-12.03.27-17.38.12-2.09-.06-4.08-.89-5.48-2.43l-17.9-19.6c-.94-1.03-.94-2.6,0-3.63l.06-.07c.96-1.06,2.58-1.19,3.69-.29l22.01,17.69c1.33,1.07,3.03,1.59,4.73,1.45.36-.03,2.36-1.06,2.77-1.09,2.82-.23,4.78-.36,7.77-.08,1.09.1,2.36.58,3.16,1.32.81.74,1.27,1.79,1.27,2.89h0c0,.98-.41,1.76-1.07,2.46l13.81-.19,1.94,4.26c.49,1.07,1.43,1.88,2.56,2.19,5.57,1.56,23.69,6.24,28.68,7.71.53.16,1.15.66,1.24,1.11.09.44-.23,1.25-.71,1.55-.62.38-1.97.82-3,.75-6.36-.44-25.42-2.37-35.17-3.39-2.85-.3-5.36-2-6.68-4.54l-4.44-8.49Z"/>
  <g class="cls-34">
    <path class="cls-8" d="m54.1,105.16l-21.03-.24c-1.24-.01-2.42-.51-3.54-1.4l-18.67-20.81-.15-2.42,19.59,20.95c.97,1.04,2.32,1.65,3.75,1.7l17.87.54c1.01.03,2.01-.15,2.94-.54l1.22-.51-.79,1.98c.35.64,3.27,5.95,5.12,8.69.9,1.33,3.4,2.54,5,2.75,7.42.98,28.38,3.26,33.53,3.87.74.09,1.5.04,2.22-.13.59-.14,2.16-.79,2.16-.79-.06,1.74-1.38,2.06-3.29,2.31l-36.41-3.87c-1.87.04-3.48-.84-4.86-2.55l-4.67-9.53Z"/>
  </g>
  <path class="cls-3" d="m109.47,95.76s1.63-1.1,5.42-1.21c2.42-.07,4.54.7,5.15,1.1.21.17.48.24.75.19,1.7-.19,4.75.4,6.3,1.4.56.37.82.72-.15,1.6-.81.73-5.25,1.22-6.88.8-.28-.07-.9-.03-1.35.03-.61.09-1.21.54-2.34.52-1.23-.03-1.43-.48-1.94-.6-.36-.09-.72-.2-1.11-.15-.5.06-1.57-.02-2.28-.5-.96-.64-1.75-1.43-1.75-1.43-.61-.62-.22-1.29.19-1.75Z"/>
  <path class="cls-31" d="m109.67,97.06c.09.54.59,1.2,1.63,1.5.73.21,1.89-.03,2.88.08.58.07,1.01.44,1.63.48.84.05,1.88-.35,2.8-.37.72-.02,1.42.19,2.02.16,2.08-.08,1.4-.1,2.66-.15,1.64-.07,3.04-.58,3.04-.99s-1.12-.5-2.63-.61c-1.51-.11-1.87-.89-3.75-1-.53-.03-1.66-.66-2.81-.69-.59-.02-1.33.15-1.94.15-.51,0-1.35-.5-1.82-.49-1.85.03-2.89.38-3.53.95-.42.37-.17.96-.17.96Z"/>
  <path class="cls-23" d="m110.38,97.14s.7,1.05,2.38,1.19c.36.03,1.79-.12,2.05.1.48.35,1.31.59,2.16.34.62-.18.77-.3.98-.43.37-.22.81-.22,1.22-.25.54-.04,1.31-.03,2.04-.25,1.02-.32-.3-1.12-1.51-1.15-1.2-.02-.77-.79-2.66-.87-.99-.04-1.33.21-1.79.17-.58-.06-.68-.47-2.26-.41-1.54.06-2.36.5-2.58.99-.22.49-.04.56-.04.56Z"/>
  <path class="cls-14" d="m110.78,97.08s.41.53,1.72.63c.28.02,1.46-.14,1.67-.03.37.18,1.02.31,1.69.21.48-.08.6-.13.77-.19.29-.1.63-.09.96-.1.43,0,1.03.01,1.59-.08.79-.14-.24-.54-1.18-.58-.94-.03-.64-.49-2.12-.57-.78-.04-.85.11-1.2.08-.45-.04-.56-.32-1.79-.32-1.2,0-1.93.25-2.1.48-.17.23,0,.48,0,.48Z"/>
  <path class="cls-20" d="m47.14,98.72c2.95-.04,5.74-.21,5.74.93-.37,1.12-.95,1.96-1.8,2.45-1.13.47-2.83.52-5.09.49-2.99-.04-3.22-.87-2.76-1.91.59-1.32.92-1.92,3.91-1.96Zm18.07-5.62l-.9,2.52h-8.92l.9-2.52h8.92Z"/>
  <path class="cls-13" d="m77.87,89.15c.46-.08.9-.43,1.26-.91.39-.52.69-1.2.81-1.94.12-.72.07-1.38-.14-1.9-.22-.58-.62-.99-1.17-1-.34.06-.59.33-.87.61-.17.17-.34.37-.49.59-.36.52-.65,1.16-.76,1.88-.11.68-.06,1.31.14,1.8.08.2.18.37.3.52l.55-1.32c-.06-.08-.11-.18-.14-.3-.07-.24-.05-.6.06-1.02.1-.34.23-.65.42-.86.05-.06.1-.11.16-.14.06-.04.11-.08.17-.1.15-.05.24-.08.36-.07.03,0,.06,0,.08,0,.23-.01.41.14.5.43.06.22.05.57-.05.96-.11.4-.3.75-.49.98-.12.14-.25.23-.38.29l-.33,1.5Zm29.36,5.19h-3.62c.38.19.61.45.61.73,0,.59-1.03,1.07-2.29,1.07s-2.29-.48-2.29-1.07c0-.28.23-.53.61-.73h-5.03c.38.19.61.45.61.73,0,.59-1.03,1.07-2.29,1.07s-2.29-.48-2.29-1.07c0-.28.23-.53.61-.73h-4.37c.35.19.56.45.56.73,0,.59-.94,1.07-2.1,1.07s-2.1-.48-2.1-1.07c0-.28.21-.53.56-.73h-3.4c.35.19.56.45.56.73,0,.59-.94,1.07-2.1,1.07s-2.1-.48-2.1-1.07c0-.28.21-.53.56-.73h-.61c-.43,0-.85.17-1.15.48s-.48.72-.48,1.15v.09c0,.43.17.85.48,1.15s.72.48,1.15.48h4.27c.11-.54,1-.96,2.09-.96s1.98.42,2.09.96h2.3c.11-.54,1-.96,2.09-.96s1.98.42,2.09.96h3.22c.12-.54,1.1-.96,2.28-.96s2.16.42,2.28.96h3.83c.12-.54,1.1-.96,2.28-.96.34,0,.65.03.94.09-.04-.28-.07-.59-.07-.9,0-.58.08-1.13.22-1.58Zm-31.64-1.1l-1.47-1.13-1.22,7.52,3.22,3.22.61-3.62c-.64-.12-1.23-.43-1.69-.89-.61-.61-.95-1.43-.95-2.28v-.09c0-.86.34-1.68.95-2.28.17-.17.36-.32.56-.45Zm2.54-6.44c.04-.06.08-.13.12-.18.08-.13.15-.27.21-.43.06-.17.13-.39.15-.54,0,.03-.01.05-.03.08-.02.04-.04.08-.07.12-.1.16-.21.34-.28.56-.05.14-.08.27-.1.39Zm2.54,26.62c.62-.13,1.21.12,1.3.57.1.45-.33.92-.95,1.06s-1.21-.12-1.3-.57c-.1-.45.33-.92.95-1.06Zm-5.84-1.7c.59-.13,1.15.12,1.24.55.09.43-.31.88-.91,1.01-.59.13-1.15-.12-1.24-.55-.09-.43.31-.88.91-1.01Zm2.81.92c.61-.13,1.19.12,1.28.56.09.44-.33.91-.94,1.04-.61.13-1.19-.12-1.28-.56-.09-.44.33-.91.94-1.04Zm-22.76-7.56l4.02,7.7c1.2,2.3,3.48,3.85,6.06,4.12,9.74,1.02,28.79,2.95,35.14,3.39.87.06,2-.31,2.52-.63.12-.07.2-.22.26-.36.06-.13.11-.26.09-.36-.02-.08-.11-.14-.19-.21-.14-.13-.32-.23-.49-.28-4.98-1.47-23.1-6.16-28.67-7.71-1.36-.38-2.49-1.34-3.08-2.63l-1.73-3.79-1.73.02c.13.38.95,2.76.83,3.44-.13.73-1.4.61-2.37.73-.87.11-1.5-3.39-1.62-4.12l-8.08.11c-.26.23-.6.42-.98.59Zm9.21-11.19h-7.22l-.33.92h7.22l.33-.92Zm1.89-.53l-.9,2.52c-.11.32-.42.53-.75.53h-8.92c-.26,0-.5-.13-.65-.34-.15-.21-.19-.48-.1-.73l.9-2.52c.11-.32.42-.53.75-.53h8.92c.26,0,.5.13.65.34.15.21.19.48.1.73Zm-25.34,4.04c.29.02.59.02.88,0,.09-.04.71-.28,1.15-.48.7-.31,1.42-.59,1.66-.61,2.87-.23,4.86-.36,7.9-.08,1.26.12,2.71.67,3.63,1.53.5.46.88,1.01,1.14,1.62l14.36-.33,1.24-7.59-15.99.48c-.07,0-.14,0-.21-.02l-11.91-2.93-3.85,8.43Zm-13.38-6.04c.63.11,1.07.58.99,1.06-.08.48-.66.78-1.29.67-.63-.11-1.07-.58-.99-1.06.08-.48.66-.78,1.28-.67Zm24.75,8.36c-.12-.04-.28-.1-.43-.13-1.05-.19-2.71-.11-4.42-.09-1.48.02-2.19.12-2.61.5-.26.24-.39.57-.57.98-.07.15-.14.29-.11.41.01.04.07.05.13.08.16.08.38.14.66.19.36.06.81.1,1.36.1,2.09.03,3.66.01,4.73-.41.57-.35.97-.92,1.26-1.65Zm-4.87-1.81c2.17-.03,4.26-.09,5.32.26.84.28,1.23.8,1.23,1.47,0,.09-.01.17-.04.25-.44,1.33-1.15,2.31-2.15,2.89-.03.02-.06.03-.1.05-1.21.5-3,.58-5.41.55-1.22-.02-2.03-.17-2.55-.39-.52-.22-.82-.52-.99-.83-.28-.51-.24-1.14.06-1.82.29-.65.55-1.14.96-1.52.6-.54,1.56-.89,3.67-.91Zm-17.43-4.47c.69.12,1.17.63,1.08,1.16-.09.52-.72.85-1.4.73-.69-.12-1.17-.63-1.08-1.16.09-.52.72-.85,1.4-.73Zm2.72,2.13c.66.11,1.12.61,1.03,1.1-.08.5-.69.81-1.34.7-.66-.11-1.12-.61-1.03-1.1.08-.5.69-.81,1.34-.7Zm12.08,2.33c-.07.03-.73.28-1.18.48-.7.31-1.41.59-1.63.61-1.91.16-3.81-.43-5.3-1.63l-22.01-17.69c-.78-.63-1.92-.54-2.6.21l-.06.07c-.66.73-.65,1.83,0,2.55l17.9,19.6c1.26,1.38,3.05,2.12,4.91,2.17,5.34.15,11.73-.05,17.34-.12.87-.01,2.34-.29,2.95-.91.58-.58.96-1.2.96-2.02h0c0-.88-.37-1.71-1.01-2.3-.69-.63-1.77-1.03-2.7-1.11-2.92-.27-4.84-.14-7.59.08Zm12.89,3.07c0,.09,0,.18,0,.27h0c0,.6-.12,1.14-.34,1.64l12.27-.17c.32,0,.61.18.74.47l.18.39,4.41.08-3-3-14.26.33Zm13.58,4.21l1.03,2.26c.39.86,1.14,1.5,2.05,1.76,5.58,1.56,23.7,6.25,28.69,7.72.44.13.92.43,1.27.78.29.3.47.63.53.94.07.35,0,.84-.19,1.3-.19.45-.52.85-.88,1.08-.72.44-2.29.95-3.48.87-6.37-.44-25.44-2.37-35.2-3.39-3.11-.33-5.86-2.19-7.31-4.97l-4.15-7.95c-.52.11-1.01.17-1.42.18-5.64.07-12.06.27-17.41.12-2.3-.07-4.5-.99-6.05-2.69l-17.9-19.6c-1.22-1.33-1.22-3.37-.01-4.71l.06-.07c1.24-1.37,3.34-1.54,4.79-.38l22.01,17.69c.5.4,1.05.71,1.64.93l4.27-9.34c.16-.35.55-.54.92-.44l12.45,3.06,16.8-.5s.03,0,.05,0c.18,0,.36.05.51.16l1.84,1.4.53-1.26c-.3-.2-.57-.47-.78-.81-.48-.74-.71-1.83-.56-3.05.16-1.2.65-2.31,1.36-3.01.17-.17.36-.33.56-.44.56-.32,1.12-.47,1.67-.37.77-.02,1.43.39,1.88,1.08.46.71.69,1.75.55,2.92-.14,1.17-.64,2.22-1.28,2.95-.61.69-1.38,1.08-2.14,1.09-.03,0-.05,0-.08,0l-.41,1.88.47.36h29.71l.79-2.78c.05-.27.32-.45.59-.4.27.05.45.32.4.59l-.3,2.95c.58.36,1.01,1.49,1.01,2.82s-.43,2.48-1.02,2.83c-.11.31-.41.54-.76.54h-29.6l-.79,3.97-.24,1.4c-.05.3-.26.54-.55.63-.16.05-.34.05-.49,0l-5.43-.1Z"/>
  <path class="cls-5" d="m72.31,49.08s-.05.07-.09.06c-.04-.01-.07-.05-.06-.09.08-.63.2-1.19.39-1.66.1-.24.22-.45.36-.63.11-.14.22-.27.35-.37.14-.11.3-.2.46-.26.24-.09.5-.12.77-.09.22.02.46.08.7.19.28.12.56.3.87.55.04.02.05.07.03.11-.02.04-.07.05-.11.03-.38-.17-.71-.26-1.02-.31-.36-.06-.66-.02-.93.09-.16.07-.3.17-.44.29-.14.12-.27.26-.39.42-.14.19-.27.39-.4.63-.17.32-.35.67-.5,1.06Zm2-3.91s.04.07.01.11c-.03.03-.07.04-.06.03,0,0-.36-.17-.86-.21-.1,0-.2,0-.31,0-.14,0-.28.03-.43.08-.14.03-.25.08-.34.15-.08.06-.15.13-.2.2-.19.26-.3.54-.34.68-.01.05-.04.09-.06.12l.03-.03s-.03.08-.08.08-.08-.03,0,0c-.02-.01-.14-.07-.07-.08,0,0,0-.01,0-.03,0-.04-.02-.13-.03-.25,0-.12,0-.27.03-.43.03-.16.08-.33.16-.49.09-.16.22-.3.38-.42.1-.07.22-.12.36-.16.11-.02.21-.04.32-.04.26,0,.5.05.7.14.36.15.61.36.73.47.03.03.05.05.06.06,0,0,0,0,0,0Zm19.59-18.96l-4.29,1.79c-1.55.57-2.4,1.32-3.87,2.06-.19.1-.35-.05-.21-.24.44-.62,1.03-1.15,1.65-1.59,1.2-.85,2.34-1.62,3.78-1.95.68-.16,2.18-.39,2.88-.38.28,0,.27.28.06.32Zm-2.48-1.23l-2.69,1.17c-1.12.4-1.4.72-2.45,1.26-.09.05-.29.05-.27-.13.02-.18.22-.32.34-.43.25-.24.48-.5.75-.72.78-.62,1.47-1.03,2.42-1.25.49-.12,1.13-.23,1.64-.25.11,0,.23,0,.32.06.13.07.07.27-.06.29Zm-43.34,56.8c.06-.18.26-.05.25.09,0,.25-.09.5-.11.75-.06.88.08,1.89.26,2.74.07.32.17.64.27.95.04.11.11.21.14.32.02.07-.03.25-.11.22-.34-.13-.47-.52-.62-.82-.67-1.31-.77-2.86-.08-4.25Zm2.78-1.72s.14-.07.19-.03c.05.04.05.13.03.19-.24.8-.65,1.52-.72,2.37-.08.93.05,1.94.3,2.84.09.32.21.64.34.95,0,0,.28.4.15.51-.17.13-.39-.23-.49-.41-.22-.4-.44-.81-.6-1.23-.44-1.14-.56-2.48-.08-3.63.16-.39.37-.76.59-1.13.09-.15.2-.29.31-.42Zm1.73.24c.03-.05.13-.07.18-.04.05.03.05.12.04.18-.13.64-.44,1.22-.48,1.9-.04.73.02,1.54.19,2.24.08.32.19.62.29.93.03.08.13.33-.06.3-.15-.02-.31-.32-.34-.37-.17-.32-.35-.65-.47-.99-.34-.93-.44-1.97-.06-2.9.13-.32.29-.62.46-.92.07-.12.16-.23.24-.34Z"/>
  <path class="cls-24" d="m84.23,39.38s1.33-6.01,4.1-8.37,8.31-3.42,8.31-3.42c0,0-.11,3.24-2.97,6.22-2.58,2.69-6.54,4.89-6.54,4.89l-2.89.68Z"/>
  <path class="cls-26" d="m88.34,31.19s1.33-.97,2.18-.71c.85.27.21,1.71.21,1.71,0,0,1.89-.82,2.74-.5s.32,1.8.32,1.8c1.47-1.6,2.46-3.43,2.59-5.66-2.98.36-5.62,1.59-8.04,3.36Z"/>
  <path class="cls-32" d="m86.72,38.43c.16-.04.27-.06.27-.06.44-.25,4.02-2.31,6.41-4.8,2.12-2.21,2.68-4.56,2.82-5.53-1.38.31-5.44,1.34-7.67,3.24-1.07.91-1.91,2.39-2.54,3.84-.67,1.52-1.1,3.01-1.3,3.79,0,0,.19-.04.45-.11.3-.07.54-.27.67-.54,2.12-4.45,4.98-7.1,8.65-8.54-3.63,2.77-6.31,5.66-7.77,8.72Zm-2.84.87s.48-2.2,1.48-4.47c.68-1.54,1.59-3.12,2.73-4.09,2.82-2.4,8.47-3.5,8.47-3.5.11-.02.21,0,.3.08s.13.17.12.28c0,0-.11,3.36-3.07,6.45-2.62,2.72-6.62,4.96-6.62,4.96-.03.02-.06.03-.09.03l-2.89.68c-.12.03-.24,0-.33-.09-.09-.09-.12-.21-.1-.33Z"/>
  <path class="cls-24" d="m70.15,38.99l1.22.39s-3.27,4.27-5.94,6.4c-2.67,2.14-8.02,5.08-9.25,3.48-1.32-1.73,1.92-5.09,5.29-7.03,1.68-.97,3.33-1.69,4.72-2.2-2.15.4-4.96.74-7.65.5-4.68-.41-5.48-3.81-5.48-3.81,0,0,4,0,6.2-.23,2.19-.23,3.93-.88,6.42-1.15,2.49-.28,6.3,2.3,6.3,2.3l-1.84,1.34Z"/>
  <path class="cls-26" d="m61.06,36.46c-2.23.56-1.21,1.81,1.15,1.86-2.7.49-2.86,1.59-.61,2.29-5.03.74-8.45-1.48-8.9-4.26l8.36.11Zm-.6,6.67c-1.5,1.39-.27,2.79,1.93,1.54-2.29,1.73-1.07,3.59.64,2.84-3.43,1.76-6.29,2.94-6.77,1.75-1.06-1.36.09-3.18,4.19-6.13Z"/>
  <path class="cls-5" d="m69.61,38.22c.58.12,1.18.01,1.67-.31.22-.14.4-.25.4-.25-.53-.3-1.95-1.06-3.45-1.52-.86-.26-1.74-.42-2.49-.31-1.96.3-3.64.49-5.28.73-4.29.63-6.73.09-7.39.11,1.04,2.47,3.07,3.52,5.02,3.71,3.2.31,4.64,0,6.39-.16.46-.04.9-.11,1.32-.19.12-.02,1.77-1.48,1.37-1.51-.95-.06-2.65-.11-3.98.02-1.42.13-3.98-.37-3.98-.37,0,0,2.4.02,3.92-.21,1.45-.22,2.89-.28,4.42-.11.68.08,1.43.22,2.06.36Zm-2.39,2.61c-.27.06-1.71.1-2.15.27-.64.25-.62.22-1.34.57-.64.31-1.31.65-1.98,1.03-1.64.93-3.25,2.2-4.29,3.45-.51.62-.89,1.22-1.03,1.78-.1.39-.08.75.14,1.05.15.21.42.27.75.28.7.02,1.63-.25,2.62-.66,1.84-.77,3.91-2.04,5.27-3.11.82-.64,1.7-1.49,2.52-2.35.74-.78.75-.81,1.32-1.48.5-.59-1.28-.57-2.02-.02-3.97,2.99-5.03,3.6-7.01,4.53,1.98-1.56,3.39-2.64,7.21-5.34Zm-5.08.41c-1.19.12-2.44.17-3.66.11-1.64-.1-2.86-.55-3.76-1.12-2.11-1.33-3-4.26-2.83-4.48.17-.22.91.08,1.19.08,0,0,2.26.04,4.3,0,.66-.01,1.29-.03,1.82-.07,1.78-.12,3.27-.52,5.12-.76.42-.05.86-.1,1.33-.13.87-.06,1.88.19,2.84.59,1.9.78,3.6,2.06,3.6,2.06.04.03.07.08.07.13,0,.05-.02.1-.07.13l-1.34,1.1.71.22c.09.03.16.1.19.19.03.09.01.19-.05.27,0,0-1.55,2.06-3.38,4.05-.83.9-1.72,1.79-2.55,2.47-1.64,1.34-4.29,2.99-6.4,3.71-.91.31-1.74.45-2.36.36-.48-.07-.85-.28-1.11-.61-.64-.83-.5-1.99.28-3.22,1-1.59,3.03-3.35,5.12-4.57.31-.18.62-.36.93-.52Z"/>
  <path class="cls-5" d="m78.02,37.69c.24.25.57.64.99,1.15,2.15,2.66,6.47,8.6,10.69,14.63,5.39,7.71,10.61,15.57,10.95,16.93,0,0,0,0,0,.01.34.88.05,1.65-.45,2.15-.67.69-1.72.84-2.21.26,0,0-.01-.02-.02-.03,0,0-3.57-5.63-7.25-11.16-1.78-2.68-3.59-5.33-5.02-7.31-1.81-2.5-3.72-4.99-5.43-7.17-2.73-3.48-5.07-6.3-5.66-6.99-.14.03-.28.06-.42.08l-2.86,3.45c-1.76-1.45-2.91-3.18-4.1-4.95,0,0,2.07-.79,3.28-1.91.76-.7.74-.71.74-.71-.02-.24.02-.52.19-.85,0,0,.48-.73,1.19-1.11s1.08-.34,1.08-.34l3.06-5.32c2.29.11,7.02,5.08,6.77,6.25-.68.13-3.78,1.3-4.14,1.78-.27.35-.92.62-1.37,1.1,0,.02,0,.03,0,.05Z"/>
  <path class="cls-1" d="m79.27,39.5c2.23,2.88,6.24,8.48,10.15,14.17,5.32,7.74,10.49,15.6,10.75,16.87,0,.01,0,.03.01.04.26.67.04,1.25-.34,1.64-.27.27-.61.44-.92.46-.2.02-.38-.03-.51-.17-.21-.34-3.64-5.83-7.16-11.21-1.77-2.7-3.56-5.38-4.98-7.37-1.8-2.52-3.69-5.03-5.39-7.24-1.26-1.63-2.41-3.08-3.33-4.25-.43-.98-.71-2.03-.45-2.55.58-1.15,1.29-1.13,2.18-.39Z"/>
  <path class="cls-6" d="m77.45,40.57c-.04.38.09.75.34,1.04,1.26,1.42,5.71,6.49,9.56,11.84,3.86,5.37,11.31,17.98,11.31,17.98.29-.08,1.11-.24.79-1.12-.47-2.31-19.93-30.36-20.66-30.18,0,0,0,0,0,0-.78-.48-1.32.09-1.34.44Z"/>
  <path class="cls-29" d="m67.94,38.93c1.07,1.46,2.2,2.75,3.46,3.68l2.46-2.83c.08.06.46,0,.71-.03.52-.13,1.19-.39,1.55-.61.59-.36,1.3-.92,1.38-1.55,1.46-1.51,3.11-2.84,4.57-3.22-1.79-2.51-3.5-4.21-5.04-4.41,0,0-1.71,2.39-2.51,3.74-.07.12,1.86,2.55,1.8,2.64-.08.12-2.15-2.1-2.25-1.97-1.15,1.45-2.54,2.08-2.54,2.08,0,0,1.6,1.46,1.36,1.73-.1.11-1.51-1.35-1.69-1.21-.67.51-1.19.98-1.9,1.37-.4.22-1.37.58-1.37.58Z"/>
  <path class="cls-24" d="m76.91,29.97c2.03.43,3.92,3.9,4.1,4.84l1.09-.43c-1.11-2.04-2.66-3.7-5.03-4.64l-.17.23Z"/>
  <path class="cls-22" d="m68.02,38.93l.54-.18c.95,1.97,2.41,2.42,3.82,2.74l-.94,1.12c-1.33-.95-2.48-2.18-3.42-3.68Z"/>
  <path class="cls-17" d="m97.3,64.22c-.15.05-.34.09-.56.11l-1.64-.48s-.92.78-1.51,1.34c-.59.56-1.92,1.33-1.92,1.33l-3.03.15-6.39.06.06.23-1.67,2.2s.09,2.12-.74,3.28c-.83,1.16-2.99,2.66-2.99,2.66,0,0-1.38-3.18-3.96-4.74-2.58-1.57-7.55-.23-7.55-.23-.97-.51-1-1.39-.31-2.67,0,0,3.86-4.42,4.82-5.72.62-.83,1.04-2.01,1.26-2.74.26-2.72,1.39-7.48,4.14-7.82,1.9-.23,2.96-.04,3.71.47.62-.63,1.27-1.34,1.37-1.62.18-.55-.63-2.03-.66-2.98-.04-.96-.39-2.11.4-3.84.79-1.73,3.65-4.2,7.67-4.06,4.03.14,6.79,1.94,7.56,2.86.77.92.51,2.04.29,3.33-.08.47-.24,1.44-.64,1.93-.68.84-1.72,1.09-1.72,1.09,0,0,.07,2.17-.19,3.2-.26,1.03-.41,1.91-1.35,2.97-.88.99-1.58,1.7-2.05,2.32-.38.5-2.45.35-3.32-.32-.72-.55-1.38-1.01-2.15-.61-.42.22-1.4.73-2.2,1.15.98,2.39,1.94,4.86,1.94,4.86l4.97,1.15s.68-2.29,1.89-3.29c2.49-2.04,5.87-1.47,5.87-1.47.53-.03.25.85-.33.99l-1.79.38-1.55.82,1.8-.47.91.09.57.48-.14-.42c.59-.14,2.15-.19,3.41.59-.59-.41-1.26-.62-2.01-.66l-.68-.81c-.02-.35-.04-.66.55-.56,1.18.5,2.28,1.61,2.97,3.31.15.82.46,2.5.22,3.54-.07,1.14-.93.77-1.98,1.12l-.61-.86-.77-1.63Z"/>
  <path class="cls-27" d="m73.53,58.72s.78-.81,1.15-.91c.36-.1.71.05,1.08.3.38.25,2.59,3.22,2.59,3.22,0,0-1.59-3.87-3.04-4.28-1.13-.32-1.83,1.21-1.78,1.67Z"/>
  <path class="cls-25" d="m98.15,63.75s.74.16,1.46.73c.92.73.92,1.26.92,1.26,0,0-.25.58-.86.4-.61-.18-1.29-.37-1.52-.91-.24-.54-.75-1-.75-1l.75-.47Zm-15.17-2.78c-.92-.06-1.97.51-2.99,1.11.79-1.29,1.53-2.23,2.48-2.25.16-.01.66,1.15.51,1.14Zm2.08-8s.72.81,1.53,1.28c.81.47,2.07.43,2.32.81.25.38.41.77-.11.92s-1.51.14-2.41-.52c-.9-.65-1.33-2.5-1.33-2.5Zm7.06-3.35s-.05.09-.1.12c-.05.02-.51-.21-.55-.23-.39-.15-.83-.19-1.17-.09-.11.03-.09-.19-.06-.23.17-.23,1.01-1.32,1.22-1.35.82-.1.77,1.58.66,1.78Zm-9.26,3.55s.31.25.82,1.46c.38.9-1.36,1.3-1.36,1.3,0,0,.22-1.6.09-2.18l.45-.58Zm6.13-9.19s.1-.5.63-.21c.53.29.47.71.47.71l-.11.2c-.05.02-.1.02-.16,0-.17-.03-.45-.09-.45-.09-.6-.06-.47-.28-.38-.61Zm3.91,1.96s.15-.44.68-.17c.39.2.42.51.42.51l-.09.38c-.06.02-.12.03-.17.01-.18-.03-.42-.09-.42-.09-.6-.08-.51-.32-.42-.65Zm-14.46,14.12s2.84,4.52,3.65,4.95c.81.43.73.47,3.59.28,2.86-.18,5.14-.07,5.14-.07.26.11,1.47-.75,2.14-1.42.83-.84,1.24-.7,1.85-.68,1.15.05,2.2.76,2.2.76,0,0,.05.38-.38.4-.41.02-1.09-.55-1.52-.35-1.39.65-2.94,2.21-3.52,2.31-.94.17-9.05.38-9.45.31-.4-.07-1.18-.31-1.25-.85-.07-.54-.23-1.15-.76-1.91-.53-.75-2.25-4.01-2.25-4.01l.57.29Zm-10.79,5.43s-1.67,2.28,1,2.17c1.22-.05,2.74-.29,3.69-.38s2.74.99,4.62.26c.86-.33,1.1-.79,1.91-1.35.44-.3,1.71.4,2.12,1.2.18.35-1.05.59-1.08,1.26-.05.85.05,1.55-.2,2.2-.44,1.15-1.22,2.11-1.78,2.26s-.91.49-1.15-.21c-.24-.7.08-1.03-.39-1.48-.47-.44-.84-.14-1.37-.64-.53-.5-.39-1.08-.95-1.26-.56-.18-.43-.33-1.61-.45-1.18-.12-2.4-.29-3.46-.05-1.06.24-2.09.27-2.85.5-1.5.46-.92-1.29-.65-1.82.28-.53.58-.75,1.11-1.34.53-.59,1.06-.85,1.06-.85Zm26.98-23.36c.12.15.25.34.4.56.35.51.39,1.19.39,1.56,0,.13-.03.26-.07.38-.04.16-.14.43-.22.66-.02.06-.07.1-.12.1-.05,0-.1-.04-.11-.1-.12-.31-.07-.31-.51-.53-.1-.05-.14-.19-.1-.32.18-.57.36-1.34.32-2-.01-.07.02-.15.07-.19.02-.01,0-.07-.04-.12Zm0,0s-.07-.09-.1-.13c-.03-.03.05.05.1.13Z"/>
  <path class="cls-27" d="m91.46,66.71l1.99-1.14,1.15,2.1c-.68.38-1.36.41-2.42.35-1.02-.02-2.2-.17-3.79-.63l-5.46-.68h8.53Zm-2.57-3.97l-.33.2-4.47-1.14-1.72-4.43,3.31,4.06,3.21,1.31Z"/>
  <path class="cls-27" d="m76.46,68.53c-.06.03-.1.09-.1.15,0,.07.04.13.1.16.29.12.68.31.83.59.13.24.25.53.32.75.02.07.08.11.16.12.07,0,.14-.04.16-.1.18-.41.38-1.09-.09-1.54-.44-.43-1.01-.29-1.38-.13Z"/>
  <path class="cls-25" d="m92.56,60.56l.41-.94s.51-.35,1.07-.56c.56-.21,1.85-.42,1.85-.42l.72.11-.1.37-3.1,1.26-.86.18Z"/>
  <path class="cls-2" d="m92.79,45.29s.71-.4,1.25-.18c.61.25.9.52.98.86-.05.41-.27.72-.68.93,0,0,.18-.84-.3-1.21-.5-.39-1.25-.39-1.25-.39Zm-3.42-1.78s-1.43.11-1.29-.65c.13-.72,1.27-.47,1.86-.09,1.17.76.95,1.74.95,1.74-.23-.43-.41-.87-1.51-1Zm2.38,8.36c.08.04.28,1.76-.04,2.43-.36.54-1.53,1.67-2,2.19-.47.53-.84.85-1.58.75-.74-.1-1.2-.23-1.78-.63-.58-.4-1.53-.9-1.53-.9l-1.03.26s1.35-.49-.14-2.83c-.71-1.11-1.67-3.11-1.55-3.08.03.09,2.66,3.33,2.58,3.62.35.85,1.27,1.88,2.01,2.22.88.41,1.51.46,2.05.45.38,0,1.03-1.32.41-1.6-.25-.11-.93-.29-1.72-1.25-.21-.25.11-1.55.73-2.18.42-.43,1.04-.41,1.36-.27.66.13,1.39.66,1.54,1.53.25-.11-.1-.83-.26-1.13l.34-.5-.35-.13c-.75-.23-.88-.78-.93-.91-.17-.47.33-.74.33-.74,0,0-.38.49-.02.5.31.01.63-.15,1.02-.02.32.11.55.21.66.3.45.37.91-.25.7-1.03-.07-.26-.27-.75-.29-.86-.12-.59-.25-1.12-1.37-1.05-1.52.09-2.46-.72-2.5-2.22,0-.05,1.21-.05,2.57.82.32.2.57.27,1.21.66,0,0,.97.34,1.17.43.96.39.64.72.64.72l-.83,1.07c-.06-.04.14.51-.31,1.76-.05.15-.4.87-.46,1.02-.08.2-.48.41-.6.61,0,0-.01,0-.02.03,0-.01.01-.02.02-.03Z"/>
  <path class="cls-15" d="m83.47,46.43s0,0,0,0c.2-.12.45-.05.57.15.12.2.05.46-.36.63,0,0-.35.16-.74.16-.29,0-.61-.04-.93-.21-.6-.31-.88-.72-.97-1.13-.17-.71.2-1.39.2-1.39.02-.04.06-.06.1-.04.04.02.06.06.04.1,0,0-.23.64,0,1.22.12.29.37.55.85.71.24.08.46.07.65.04.26-.04.45-.15.55-.21.02,0,.03-.02.04-.03Zm-.75-2.07c.06.02.11.05.16.09.17.15.18.42.03.59-.21.2-.39.23-.53.2-.15-.04-.31-.12-.38-.31-.09-.23-.07-.73.2-1.03.19-.22.47-.45.76-.57.26-.11.51-.15.72-.07l.1.02c.46.12.62.43.6.75-.02.39-.32.75-.58.67-.04-.01-.07-.05-.06-.09s.05-.07.09-.06c.05,0,.1-.02.14-.07.09-.1.13-.27.12-.44-.02-.17-.14-.32-.39-.34l-.15-.02c-.14-.03-.28.07-.43.19-.16.12-.29.29-.38.44-.01.02-.02.04-.02.06Z"/>
  <path class="cls-10" d="m84.64,50.34c-.09-.19,1.45-1.23,1.8-1.14.33.08.64.29.49.52-.15.23-1.66.97-1.89,1-.27.03-.39-.38-.39-.38Zm-.95-.98c-.13-.25,1.72-1.81,2.2-1.7.45.11.95.7.63.89-.37.22-2.14,1.19-2.29,1.31-.29.24-.54-.5-.54-.5Z"/>
  <path class="cls-4" d="m92.62,47.35c.15-.11.9-.14,1.05.06.16.21-.46.9-.61,1.01-.15.11-.23-.3-.39-.5-.16-.21-.2-.46-.05-.57Zm-3.46-2.03c.44-.22.99-.01,1.24.47.24.48.17.85-.08.91-.27.07-.75-.08-1.04-.32-.42-.34-.55-.84-.11-1.06Z"/>
  <path class="cls-12" d="m87.51,53.47c-.16-.35.16-1.3.96-2.14.42-.18,1.88,0,2.34,1.2.12.3-.5,1.37-.67,1.72-.02.03-.03.06-.05.09-.11.18-.31.28-.51.26-.21-.02-.34-.17-.47-.34-.12-.17-.82-.36-1.6-.8Z"/>
  <path class="cls-21" d="m87.57,53.36s-.14-.87.99-.51c.48.15.88.25,1.14.79.11.23.16.58.11.76-.06.22-.29.12-.39,0-.25-.31-.7-.55-1.85-1.02Z"/>
  <path class="cls-18" d="m88.56,67.4s2.01.28,3.39.18c1.38-.1,2.09-.58,2.09-.58l.65.68s-1,.52-2.66.37c-1.66-.15-3.48-.65-3.48-.65Z"/>
  <path class="cls-7" d="m91.67,50.51s.17-.24.27-.16c.28.22.17.44.17.44-.11,0-.64-.15-.44-.29Zm-1.52-.51s.15-.19.54-.23c.38-.04.73.14.76.35.03.21-.22.4-.22.4-.64-.08-.94-.23-1.08-.51Z"/>
  <path class="cls-28" d="m64.9,67.6l.19-.06c-.08.1-.15.2-.21.31l-.14,1.58c.13.28.33.57.62.85,0,0,1.74-.66,4.89-.7s3.96,2.1,5.8,3.74c1.84,1.64.88,3.33,0,4.83-.78,1.32-2.36,2.98-2.36,2.98,0,0-4.03,3.96-4.76,5.75-.73,1.78-.66,3.49-.66,3.49l-10.41.15s.66-3.45-.86-3.96c-1.52-.51-1.34-3.47-1.34-3.47l.51-2.24-.37-1.71c-1.05-.57-3.11-1.76-4.18-2.77-1.47-1.4-1.24-4.54-1.24-4.54,0,0,10.04-4.32,12.13-4.87,2.09-.54,2.4.32,2.4.32l-.03.33Z"/>
  <g class="cls-35">
    <path class="cls-16" d="m58.41,89.32l8.17-.48s.69-1.64,1.62-2.46c.93-.82,1.74-1.4,1.74-1.4,0,0-1.42,1.89-1.74,3.06-.33,1.18-.27,1.93-.27,1.93l-9.64.2.13-.86Zm-7.65-17.29s.39,2.4,1.44,3.21c1.05.81,3.19,1.53,3.19,1.53,1-2.39,2.45-4.08,4.45-5.78-1.96,2.27-3.28,4.61-4.34,7.58,0,0-3.24-1.53-4.05-2.97-.81-1.44-.69-3.57-.69-3.57Zm6.18,7.31s.33-1.44,1.82-2.47c1.49-1.03,2.41-1.23,4.04-1.54,2.32-.44,5.79.65,5.37.93,0,0-3.72,0-6.49.9-2.76.91-4.74,2.18-4.74,2.18Zm-.86,4.36s1.27,2.24,3.33,2.36c2.06.11,2.78.36,5.14-.22,2.36-.57,3.93-2.01,3.93-2.01,0,0-1.86,2.76-3.56,3.04-1.69.28-4.06.66-7.06-.2-1.85-.53-1.79-2.96-1.79-2.96Zm11.48-1.91s1.22.19,2.86-.56c1.64-.75,2.84-1.03,3.72-2.41,2.95-4.62-1.86-8.85-1.51-8.61,5.25,3.74,4.01,6.06,4.01,6.06,0,0-.73,2.96-2.61,4.22-1.88,1.26-4.9,2.45-4.9,2.45l-1.57-1.15Z"/>
  </g>
  <path class="cls-32" d="m82.86,58.16c.64,1.57,1.19,2.99,1.38,3.47,0,0,3.93.91,4.43,1.02l-2.99-1.22-2.81-3.28Zm13.91,1.36c-.09.06-.19.1-.3.13,0,0,0,0-.01,0l-.61.13c.05.01.1.04.14.07l.11.09s.02,0,.03,0c.21-.05.53-.09.91-.09l-.28-.33Zm-15.95-16.81c-.15.22-.27.43-.36.63-.76,1.65-.4,2.76-.37,3.68.02.55.32,1.27.5,1.88.16.51.23.96.14,1.23-.21.62-1.18,1.45-1.18,1.45,0,0-.01,0-.02.01.35.31.63.69.91,1.13.36.56,1.06,2.16,1.76,3.86.23-.12,1.18-.62,1.86-.97.9-.47,1.7,0,2.53.64.47.37,1.34.55,2.03.54.22,0,.42-.02.59-.06.1-.02.18-.04.21-.09.48-.63,1.18-1.35,2.07-2.35.89-1.01,1.03-1.85,1.27-2.82.25-1,.18-3.1.18-3.1,0-.17.11-.31.27-.35,0,0,.92-.23,1.53-.97.36-.44.49-1.33.56-1.76.11-.62.23-1.2.22-1.74,0-.34-.06-.67-.21-.97-.37-.23-.83-.52-1.32-.74-2.33-1.05-3.33-2.27-7.7-1.72-2.36.03-4.39,1.46-5.49,2.62Zm16.35,16.41s0,.05,0,.08c0,0,.56.66.56.66.45.03.87.13,1.26.28-.48-.53-1.02-.92-1.58-1.16-.06,0-.11-.01-.15-.01-.02.05-.05.1-.08.14Zm-3.64,6.58c-.67.53-1.67,1.11-1.67,1.11-.05.03-.1.04-.16.05l-3.03.15s0,0-.01,0l-3.13.03,2.88.36c1.58.46,2.77.61,3.79.63,1.06.06,1.74.03,2.42-.35l-1.08-1.96Zm3.09-5.33l.67.57c.11,0,.25,0,.41,0,.27.02.62.09,1.04.24.33.12.61.25.82.38.3.19.5.36.61.47-.16-.37-.33-.71-.52-1.02-.05,0-.11,0-.16-.04,0,0,0,0-.01,0-.99-.6-2.16-.67-2.85-.6Zm1.07,1.04l.18.81c.19.04.44.1.7.16.24.05.48.11.69.17.23.06.45.18.63.32.21.16.39.35.51.49-.05-.36-.11-.71-.16-.99-.06.04-.14.03-.08.03,0,0-.07-.02-.16-.11-.09-.09-.28-.25-.61-.42-.21-.11-.46-.21-.78-.3-.31-.09-.57-.13-.79-.14-.05,0-.1,0-.14,0Zm.29,1.31l.21.97c.01.07,0,.14-.02.2-.08.2-.23.38-.46.52,0,0,0,0,0,0l.59,1.3s.49.69.49.7c.37-.1.71-.13.99-.17.19-.03.35-.06.46-.16.11-.1.16-.25.18-.5,0-.01,0-.03,0-.04.11-.49.1-1.13.03-1.75-.03-.01-.07-.04-.12-.1-.08-.1-.27-.29-.51-.47-.19-.14-.41-.26-.65-.31-.21-.04-.46-.08-.69-.11-.18-.03-.35-.05-.51-.08Zm-39.6,24.82c.21.81.15,1.82.08,2.45,0,0,9.34-.13,9.34-.13.03-.67.17-1.91.69-3.19.44-1.08,2.05-2.94,3.31-4.28-1.32.6-2.51,1.01-2.51,1.01-.1.04-.21.02-.3-.03l-.05-.03c.03.12.03.24.03.36-.05.76-.9,1.44-1.35,2.02,0,0,0,0,0,.01,0,0-.59.7-1.27,1.21-.37.28-.77.49-1.11.55-.6.24-2.81.59-4.8.44-.74-.06-1.45-.19-2.04-.39Zm5.11-20l.46-.27c-.3-.03-.72,0-1.28.16-1.86.49-10.11,4.01-11.77,4.72,0,.4,0,1.13.17,1.9.15.71.41,1.45.93,1.94,1.03.98,2.61,1.89,3.41,2.32.52-1.39,1.24-2.76,2.11-4.1,1.3-2.16,2.87-4.21,4.65-6.17.06-.06.13-.11.21-.14l1.1-.36Zm-7.24,15.34c-.04.16-.06.26-.06.26,0,.2-.02,1.04.2,1.82.14.48.35.96.81,1.11.35.12.63.35.84.65.61.27,1.5.35,2.44.39,1.9.07,4-.14,4.48-.35.04-.02.07-.03.11-.03.26-.03.55-.2.83-.39.63-.44,1.18-1.06,1.19-1.06.41-.48,1.21-.99,1.28-1.63.03-.31-.15-.62-.63-.99-.04-.03-.07-.07-.09-.11-.51-.26-1.06-.41-1.63-.45h0c-1.57-.12-4.3-.28-5.42-.32-1.28-.05-2.29-.03-3.06.19-.57.17-1,.45-1.28.92Zm8.31-12.81c-.26-.37-.4-.75-.43-1.12-.02-.19,0-.38.03-.57l-.25.08c-.31.18-.55.32-.55.32-.47.47-.93.94-1.38,1.41.74-.21,1.47-.2,1.98-.03l.6-.09Zm-4.06,1.8c-.78.93-1.48,1.87-2.1,2.82-.81,1.35-1.52,2.74-2.1,4.18l.14.64c.27-.27.72-.67,1.43-1.15.71-.48,1.67-1.03,2.95-1.58,1.51-.64,3.06-.94,4.35-1.03.43-.03.83-.05,1.19-.02,1.1.09,1.77.35,1.77.35.15.02.26.17.24.32-.02.15-.17.26-.32.24,0,0-.66.05-1.69.14-.16.01-.33.02-.5.03-.6.02-1.28.05-2.01.15-.86.12-1.79.31-2.7.65-1.25.46-2.2.93-2.9,1.35-1.12.67-1.6,1.18-1.66,1.24l.12.54c.02.07.02.15,0,.22,0,0-.07.3-.16.69.24-.14.5-.25.8-.34.82-.24,1.91-.28,3.29-.22,1.12.05,3.87.2,5.44.32.81.06,1.6.32,2.28.75.34.21.69.43.88.55.42-.15,1.61-.6,2.79-1.17.58-.28,1.09-.6,1.49-.89.39-.43,1.53-1.7,2.15-2.75.77-1.3,1.7-2.77.1-4.2-.75-.66-1.33-1.41-1.96-2.06-.85-.88-1.79-1.57-3.5-1.55-3.04.04-5.1.7-5.24.57l-1.05.25c-.06.01-.13,0-.19-.01-.38-.12-.92-.07-1.49.09-.29.08-.58.21-.88.35-.32.15-.65.32-.94.55Zm16.87,2.27c.68-.52,1.66-1.32,2.15-2.01.75-1.05.64-2.97.64-2.97,0-.12.03-.23.1-.32l1.43-1.87-.99-.77c-.06-.05-.11-.12-.13-.2l-.26-1.04-4.15-7.12c-.1-.08-.35-.28-.64-.44-.2-.11-.42-.21-.6-.18-.47.07-.51.05-.75.4-.2.29-.54,1.33-.69,1.21-.15-.12-.03-1.05.25-1.62.14-.29.31-.57,1.07-.68.31-.04.71.06,1.05.25.4.21.73.49.8.55.04.03,4.3,7.31,4.3,7.31.02.03.28,1.07.28,1.07l.84.65,6.59-.06s2.94-.14,2.94-.14c.28-.17,1.29-.77,1.77-1.23.6-.57,1.52-1.35,1.52-1.35.09-.08.21-.1.33-.07,0,0,1.57.46,1.58.46.23-.03.41-.07.54-.14.06-.03.11-.07.14-.11l-.11-.49c-.37-.19-1.29-.68-1.29-.68-.25-.07-.5-.12-.75-.16-.27-.03-.54-.04-.81-.02-.1.01-.19-.06-.2-.16-.01-.1.06-.19.16-.2.29-.05.59-.07.88-.06.29,0,.59.04.88.09.02,0,.03.01.05.02l.9.36-.08-.35c-.2-.14-.56-.37-.94-.55-.27-.13-.54-.24-.78-.28-.24-.04-.45-.05-.62-.05-.42,0-.66.09-.66.09-.15,0-.17-.08-.17-.17,0-.08.14-.2.18-.21.1-.04.31-.1.63-.14.2-.02.43-.03.7-.02.22.01.46.07.71.15l-.52-.44-.74-.07-1.74.45c-.17.05-.35-.05-.42-.21-.06-.17,0-.36.16-.44l1.55-.82s.06-.03.09-.03c0,0,1.78-.38,1.78-.38.13-.04.24-.15.29-.26,0-.01.01-.03.02-.04-.36-.05-3.33-.42-5.55,1.4-1.15.94-1.78,3.12-1.78,3.12-.05.18-.24.29-.42.24l-4.97-1.15c-.11-.03-.21-.11-.25-.22,0,0-2.92-7.59-3.79-8.96-.32-.51-.64-.92-1.09-1.21-.69-.44-1.68-.59-3.41-.38-1,.12-1.75.92-2.32,1.97-.86,1.57-1.31,3.71-1.48,5.28,0,.02,0,.05,0,.07,0,.34-.31,1.93-1.24,3.19-.87,1.18-4.09,4.88-4.73,5.63-.02.07-.05.15-.1.21-.04.05-.08.1-.11.15-.12.26-.2.5-.23.71-.01.09-.02.17-.02.25.03.16.1.32.2.47.05.05.1.09.16.14.54-.13,2.05-.45,3.69-.49.19,0,.39,0,.59,0,.16,0,.33,0,.49-.01,1.82-.02,2.93.61,3.87,1.49.73.6,1.34,1.29,1.83,1.95.14.14.29.28.44.42.45.4.76.81.95,1.21Zm.27,1.04c.06,1.11-.53,2.19-1.12,3.2-.8,1.36-2.42,3.07-2.42,3.07,0,0,0,0-.01.01,0,0-3.94,3.85-4.65,5.58-.69,1.68-.62,3.28-.62,3.28,0,.13-.04.27-.14.36-.09.1-.22.15-.36.16l-10.41.15c-.15,0-.29-.06-.39-.18-.1-.12-.14-.27-.11-.42,0,0,.22-1.16.1-2.19-.04-.3-.1-.6-.23-.83-.09-.17-.21-.31-.39-.37-.76-.26-1.22-.98-1.45-1.78-.3-1.04-.23-2.2-.23-2.2,0-.03,0-.06.01-.08l.49-2.14-.3-1.39c-.43-.22-2.71-1.42-4.08-2.71-.66-.63-1.03-1.56-1.22-2.46-.27-1.28-.18-2.48-.18-2.48.01-.19.13-.35.3-.42,0,0,10.1-4.35,12.2-4.89,1.49-.39,2.22-.11,2.57.12.05.03.09.07.13.1.99-1.14,3.64-4.21,4.42-5.26.91-1.23,1.37-3.24,1.37-3.24,0-.03.02-.06.03-.09l.04-.08c.23-1.55.69-3.43,1.48-4.87.69-1.27,1.64-2.18,2.86-2.33,1.83-.22,2.93-.05,3.71.39.02-.06.06-.12.11-.16,0,0,.8-.64.96-1.13.02-.07,0-.16,0-.26-.03-.16-.08-.34-.14-.54-.21-.66-.51-1.46-.54-2.06-.04-1-.39-2.2.43-4,.48-1.04,1.66-2.35,3.39-3.24.52-.44,1.31-1.04,2.21-1.45,1.62-.74,3.42-1.05,4.67-1.06,1.4,0,.52,1.2.46,1.72l.83-1.59s.81-.07,1.58.06c.07.01.11.06.16.07,1.32.4-.23,1.62-.35,2.11l1.38-1.45s.77-.15,2.04.14c1.26.29,1.47,1.12,1.64,1.65.15.47-1.02,2.5-1.65,2.84.05.22.07.44.07.67,0,.58-.12,1.2-.23,1.87-.09.51-.28,1.56-.71,2.09-.53.65-1.25.98-1.64,1.12,0,.62,0,2.19-.2,3.03-.27,1.08-.44,2.01-1.43,3.12-.87.98-1.56,1.69-2.03,2.3-.15.2-.5.37-.96.42-.87.09-2.19-.15-2.86-.67-.27-.21-.53-.4-.79-.53-.32-.16-.64-.22-.99-.04-.51.27-1.17.61-1.56.82l3.26,3.8,2.87,1.17c.34-.79.9-1.88,1.65-2.5,2.46-2.02,5.75-1.61,6.11-1.55.22,0,.37.09.47.2.07.08.12.19.13.31.05,0,.11,0,.18.02.02,0,.04,0,.06.02,1.23.52,2.38,1.68,3.1,3.45,0,.02.01.03.01.05.15.84.46,2.55.22,3.62-.03.34-.12.57-.25.73-.14.17-.33.27-.56.33-.35.09-.82.09-1.34.26-.11.04-.22,0-.29-.09l-.61-.86s-.02-.03-.02-.04l-.6-1.32s0-.02-.01-.03c-.14.03-.29.06-.46.07-.04,0-.09,0-.13-.01,0,0-1.46-.43-1.46-.43-.23.2-.71.61-1.12.99,0,0,0,0,0,0l1.15,2.1c.19.34.06.76-.27.95-.79.44-1.57.51-2.79.44-1.05-.02-2.28-.17-3.91-.64l-5.41-.67c-.07,0-.15-.03-.21-.06-.33.43-1.49,1.95-1.49,1.95,0,.58-.08,2.35-.83,3.41-.63.89-2,1.96-2.7,2.48Z"/>
</svg>