<svg xmlns="http://www.w3.org/2000/svg" width="150" height="150" viewBox="0 0 150 150">
  <defs>
    <style>
      .cls-1, .cls-3 {
        fill: #1a1a1a;
      }

      .cls-2, .cls-4 {
        fill: #c5d1cd;
      }

      .cls-12, .cls-2, .cls-3 {
        fill-rule: evenodd;
      }

      .cls-5 {
        fill: #101010;
      }

      .cls-6 {
        fill: #e8e8e8;
      }

      .cls-12, .cls-7 {
        fill: #8ca39c;
      }

      .cls-8 {
        fill: #f1f1f1;
      }

      .cls-9 {
        fill: #5d6c6c;
      }

      .cls-10 {
        fill: #f6f6f6;
      }

      .cls-11 {
        fill: #333;
      }

      .cls-13 {
        opacity: 0.45;
      }

      .cls-14 {
        opacity: 0.51;
      }

      .cls-15 {
        opacity: 0.31;
      }

      .cls-16 {
        opacity: 0.68;
      }

      .cls-17 {
        opacity: 0.35;
      }
    </style>
  </defs>
  <g id="Layer_9" data-name="Layer 9">
    <g>
      <g>
        <g>
          <path class="cls-1" d="M67.15446,43.783H67.155a.65479.65479,0,1,0-.00052,0Z"/>
          <path class="cls-1" d="M67.155,44.5835h-.00293a1.45752,1.45752,0,1,1,.00293,0Zm.001-1.60059-.001.29a.145.145,0,0,0,.001-.29Zm-.002,0a.145.145,0,0,0,0,.29Z"/>
        </g>
        <g>
          <path class="cls-1" d="M86.42356,48.34791a.65449.65449,0,0,0-.527.27122,5.57185,5.57185,0,0,0,.07215-1.46241.65735.65735,0,0,0,.61193.43043h.00052a.65508.65508,0,1,0-.6468-.736,4.26261,4.26261,0,0,0-.36665-1.23021.64666.64666,0,0,0,.33762.09786h.00054a.65508.65508,0,1,0-.65507-.65508c0,.01114.00276.02156.00332.03257a3.07175,3.07175,0,0,0-.718-.71216.631.631,0,0,0,.06362.00658h.00052a.65508.65508,0,1,0-.65505-.65508.64826.64826,0,0,0,.118.37174c-.09359-.044-.18867-.0865-.28988-.12283a3.36775,3.36775,0,0,0-.82507-.17412.65341.65341,0,1,0-.48291-.01873,6.45943,6.45943,0,0,0-1.31232.16767.64969.64969,0,1,0-.29439.07072,11.98826,11.98826,0,0,0-1.30609.42994.65182.65182,0,1,0-.44519.1783h.00052l.00925-.00094c-.21325.08992-.40474.17453-.56128.2442l-.06685.02977a6.83485,6.83485,0,0,1-.64038.24082.65346.65346,0,1,0-.57358.17139c-.499.13724-.96964.2404-1.24056.29611l-.00536-.80763a1.902,1.902,0,0,0-.29995-3.24776.20424.20424,0,0,0-.01533-.18306,9.59969,9.59969,0,0,1-.39886-1.05618l.00454-.00621a5.23152,5.23152,0,0,1,1.028.58731.20418.20418,0,0,0,.16235.08036l.06753-.01161a.20464.20464,0,0,0,.13625-.198l-.04143-1.55568a.20409.20409,0,0,0-.31022-.16857,3.48743,3.48743,0,0,1-1.03213.45892l-.029.00456.00332-.01327a3.29272,3.29272,0,0,1,.44565-1.0135.20367.20367,0,0,0-.16817-.31437l-1.47615-.01988h-.00289a.20772.20772,0,0,0-.19592.13544.19959.19959,0,0,0,.06957.22656,5.93084,5.93084,0,0,1,.49911,1.02593l-.04886.05881a1.94861,1.94861,0,0,1-.81221-.40464.20369.20369,0,0,0-.34212.14827l-.00951,1.34733a.20452.20452,0,0,0,.1118.18349l.092.022a.20742.20742,0,0,0,.12424-.04142,4.67159,4.67159,0,0,1,.90085-.49246l.01038-.00623c-.06132.23775-.26634.78116-.34668.98825a.20168.20168,0,0,0,.012.17313,1.90509,1.90509,0,0,0-.37521,3.30808l-.01162.01243-.00827-.00912c-.0101-.00909-.017.31012-.02176.78419-.2588-.05354-.682-.14655-1.137-.26911a.65468.65468,0,1,0-.77854-.64246.6517.6517,0,0,0,.20934.47592,7.17285,7.17285,0,0,1-.72623-.26813L71.251,44.8816c-.16105-.07169-.359-.15916-.5799-.252a.63688.63688,0,0,0,.08492.00878h.00054a.66407.66407,0,1,0-.39067-.13361,12.51113,12.51113,0,0,0-1.29013-.4391.65732.65732,0,1,0-.48521-.12121,4.72068,4.72068,0,0,0-2.557.04014c-.05938.02131-.11332.04808-.17006.07207a.64618.64618,0,0,0,.10073-.34349.65508.65508,0,1,0-.66977.65362,3.06719,3.06719,0,0,0-.72971.71223c.00076-.01274.00387-.02486.00387-.03776a.65508.65508,0,1,0-.65562.65508h.00052a.64516.64516,0,0,0,.33469-.09592,4.17491,4.17491,0,0,0-.34691,1.0843.65485.65485,0,1,0-.6411.78991h.00055a.656.656,0,0,0,.58181-.362,5.56144,5.56144,0,0,0,.06731,1.50386.65413.65413,0,1,0-.46957,1.1091h.00052a.657.657,0,0,0,.62569-.47283,7.17774,7.17774,0,0,0,.48856,1.18986.64716.64716,0,0,0-.39393-.13635.65508.65508,0,0,0-.00052,1.31016h.00052a.65841.65841,0,0,0,.6551-.65508c0-.01922-.00408-.03739-.00575-.05622a8.86938,8.86938,0,0,0,.896,1.2525l.53782.96032.07246.07373a.70682.70682,0,0,0,.191.929v.06006a.35412.35412,0,0,0,.12177.24437c.05233.04134.10635.0802.1609.11812l.54.985c-.04586.02211-.09285.04171-.13843.06447a.35684.35684,0,0,0,.16073.67554.35382.35382,0,0,0,.16027-.03811l.04848-.024V56.214l.08544.39346a.39723.39723,0,0,0,.16251.74856l.1186.5462a.2017.2017,0,0,0,.01915.04184,1.1669,1.1669,0,0,0-.55146.60653,1.7176,1.7176,0,0,0,.44906,1.52678,31.42293,31.42293,0,0,1,7.02-1.12163,31.42346,31.42346,0,0,1,7.02,1.12163,1.71761,1.71761,0,0,0,.449-1.52678,1.13339,1.13339,0,0,0-.49666-.57327.19934.19934,0,0,0,.03687-.07634l.08384-.38248a.39646.39646,0,0,0,.16685-.76148l.1192-.54384v-.00787l.048.024a.357.357,0,0,0,.321-.63743l-.01994-.00928a5.65316,5.65316,0,0,0,.406-.97108l.00908-.0638c.05669-.03934.11262-.07995.16693-.123a.35642.35642,0,0,0,.111-.35246.7072.7072,0,0,0,.25348-.93069l.01781-.0236.52916-.94418a8.80086,8.80086,0,0,0,.8298-1.13762.657.657,0,0,0,.65152.6253h.00054a.65508.65508,0,0,0,0-1.31016.64332.64332,0,0,0-.31259.08387,7.05182,7.05182,0,0,0,.52443-1.319.65793.65793,0,0,0,.643.54194h.00054a.65508.65508,0,0,0,0-1.31016Zm-4.332-3.22919a2.27694,2.27694,0,0,1,1.79935.59211,2.626,2.626,0,0,1,.703,2.02771,3.72769,3.72769,0,0,1-.29695,1.26454,1.74369,1.74369,0,0,0-.32471-.65133c-.35045-.46506-1.64983-.041-1.8458-.2026a6.27735,6.27735,0,0,0-.51773-.42768,2.99737,2.99737,0,0,0-2.09343-.56275c-1.31836,0-3.00752,1.22388-3.24649,1.2918-.07155.01277-.14355.02246-.21534.03374l-.00962-1.44765A16.64689,16.64689,0,0,0,79.861,45.79724,6.4011,6.4011,0,0,1,82.09152,45.11872Zm-8.35109,3.36339c-.65114-.24422-2.10532-.84812-2.8915-1.05328a8.33774,8.33774,0,0,0-1.46315-.31514c-.46553.01367-1.09716.77866-1.48568,1.03546-.34794.08029-1.17051-.29262-1.80079.18008a1.26544,1.26544,0,0,0-.51252.84925,3.87217,3.87217,0,0,1-.37385-1.43994,2.626,2.626,0,0,1,.703-2.02771,2.277,2.277,0,0,1,1.79938-.59211,6.40125,6.40125,0,0,1,2.23046.67852,16.64468,16.64468,0,0,0,3.79669,1.23531C73.741,47.53815,73.74052,48.0519,73.74043,48.48211Zm4.34805,8.68794c.18456.02944.36878.06046.55248.0949Z"/>
          <path class="cls-1" d="M81.88451,60.87744a.81243.81243,0,0,1-.22559-.03223,30.836,30.836,0,0,0-6.81542-1.08935,30.77631,30.77631,0,0,0-6.77344,1.08935.80524.80524,0,0,1-.8086-.21923,2.46793,2.46793,0,0,1-.62109-2.3418,1.76236,1.76236,0,0,1,.29883-.52686,1.18846,1.18846,0,0,1-.30664-.79785,1.26033,1.26033,0,0,1,.00781-.13623,1.15893,1.15893,0,0,1-.31055-1.45556l-.15429-.28174c-.01465-.01123-.0293-.022-.043-.03321a1.20638,1.20638,0,0,1-.37207-.54638,1.52729,1.52729,0,0,1-.32227-1.18946l-.39062-.69775c-.06836-.08057-.16211-.19482-.27246-.33887a1.44321,1.44321,0,0,1-.61426.13623,1.45861,1.45861,0,0,1-1.45606-1.45507,1.44223,1.44223,0,0,1,.11817-.57373,1.4538,1.4538,0,0,1-.38672-2.36963,1.454,1.454,0,0,1,.11328-2.46875,1.45479,1.45479,0,0,1,1.30957-1.96241,1.45551,1.45551,0,0,1,2.73633-.55468,5.23159,5.23159,0,0,1,.98926-.03467,1.45574,1.45574,0,0,1,2.61914-.36084,1.45533,1.45533,0,0,1,1.8457.6792c.04785-.01514.0957-.02783.14453-.03809a2.69783,2.69783,0,0,1,.668-1.78125,1.002,1.002,0,0,1-.40039-.80371l.00976-1.353a1.01028,1.01028,0,0,1,.624-.92187,1.00648,1.00648,0,0,1,.05762-.395,1.03012,1.03012,0,0,1,.958-.668l1.48145.01953a1.01167,1.01167,0,0,1,.97949.85449.97976.97976,0,0,1,.37695.11621,1.01323,1.01323,0,0,1,.52344.84375l.041,1.5669a.99369.99369,0,0,1-.46875.877,2.70216,2.70216,0,0,1,.56152,1.60742,1.43376,1.43376,0,0,1,.22168.0503,1.51849,1.51849,0,0,1,1.792-.66992,1.4536,1.4536,0,0,1,2.07129-.4419,1.45478,1.45478,0,0,1,2.27539.24658,1.45647,1.45647,0,0,1,2.085,1.18994A1.45827,1.45827,0,0,1,87.36205,45.064a1.43757,1.43757,0,0,1-.11816.57276,1.45357,1.45357,0,0,1,.27441,2.40771,1.45452,1.45452,0,0,1-.63477,2.33985,1.442,1.442,0,0,1,.14063.62207,1.45557,1.45557,0,0,1-2.03906,1.33349c-.09668.12452-.17871.22412-.23926.2959l-.34082.60791a1.51852,1.51852,0,0,1-.3457,1.209,1.1554,1.1554,0,0,1-.35254.57031q-.08056.23511-.1836.47119a1.12608,1.12608,0,0,1,.07715.41113,1.15717,1.15717,0,0,1-.46777.92871,1.20145,1.20145,0,0,1-.02051.648,1.18268,1.18268,0,0,1-.22363.40528,1.74757,1.74757,0,0,1,.20019.39648,2.46848,2.46848,0,0,1-.62109,2.34229A.80112.80112,0,0,1,81.88451,60.87744Zm-7.041-2.72217a31.77136,31.77136,0,0,1,6.69238.99756.5018.5018,0,0,0,.043-.33545.40892.40892,0,0,0-.16309-.15918.8014.8014,0,0,1-.30371-1.02148l.06348-.29a.80281.80281,0,0,1,.18261-.35889.81046.81046,0,0,1-.01562-.40234l.11719-.53125a.80412.80412,0,0,1,.33691-.50879.76079.76079,0,0,1,.08789-.33691,4.883,4.883,0,0,0,.3418-.80762.96446.96446,0,0,1,.27148-.46875.79706.79706,0,0,1,.29883-.49317.79932.79932,0,0,1,.10254-.77783l.48926-.8789a.80113.80113,0,0,1,.09668-.13623,7.98588,7.98588,0,0,0,.749-1.03028.79988.79988,0,0,1,.21387-.229.90933.90933,0,0,1,.0957-.31787q.10107-.197.1875-.39356a.80053.80053,0,0,1-1.21484-.49316.823.823,0,0,0-.11524-.25147,4.45423,4.45423,0,0,0-.62011.02735,1.46493,1.46493,0,0,1-1.165-.19239c-.126-.104-.23145-.1958-.31543-.26855-.04-.03564-.07422-.06543-.10059-.0874a.84464.84464,0,0,1-.10156-.07129,2.20567,2.20567,0,0,0-1.5625-.3794,6.07258,6.07258,0,0,0-2.48047.9751,2.60611,2.60611,0,0,1-.56836.28662l-.24121.044a.87522.87522,0,0,1-.67578-.17774.82833.82833,0,0,1-.31739-.59716L75.24291,47.042a.80241.80241,0,0,1,.42285-.71142.81448.81448,0,0,1-.13574-.08936.80071.80071,0,0,1-.29688-.6167l-.00488-.80762a.80174.80174,0,0,1,.32715-.6499,1.10186,1.10186,0,0,0-.17383-1.88135.798.798,0,0,1-.43848-.5708q-.00877.03442-.0205.06885a.80322.80322,0,0,1-.44727.47461,1.105,1.105,0,0,0-.21777,1.91846.80186.80186,0,0,1,.30176.87842c-.00391.12793-.00586.32568-.00782.56689a.80064.80064,0,0,1-.29785.61621.86226.86226,0,0,1-.13476.08789.80058.80058,0,0,1,.4248.70947l-.00293,1.44825a.80075.80075,0,0,1-1.082.74756l-.61426-.23829c-.69629-.273-1.65039-.64746-2.19726-.79a8.85254,8.85254,0,0,0-1.21094-.27978,4.19794,4.19794,0,0,0-.55762.45215,5.08356,5.08356,0,0,1-.53808.4414.78794.78794,0,0,1-.25977.11182,2.04755,2.04755,0,0,1-.748-.00635c-.34277-.04492-.59765-.06787-.75293.04688-.11425.08594-.15918.13769-.21.377A.80057.80057,0,0,1,65.157,49.854c.03516.07422.07129.148.10938.22168a.78117.78117,0,0,1,.07812.23145.8357.8357,0,0,1,.15332.18848,7.98788,7.98788,0,0,0,.81153,1.13476.83729.83729,0,0,1,.0957.13672l.48437.86475a.80236.80236,0,0,1,.15528.895,2.4913,2.4913,0,0,0,.44824.63183l.54.98486a.80373.80373,0,0,1,.08691.52.80036.80036,0,0,1,.22266.37989l.001-.00049.08593.39355a.79922.79922,0,0,1-.01465.39649.79413.79413,0,0,1,.17676.35351l.10352.47852a.81242.81242,0,0,1-.35059.97363.43369.43369,0,0,0-.19531.17969.49864.49864,0,0,0,.04394.334A31.66318,31.66318,0,0,1,74.8435,58.15527Zm7.1289-1.437h0Zm-14.40723-.50439.03321.06738a.4561.4561,0,0,0,.06347-.05127l-.01269-.01709Zm-.0039-.00782.0039.00684.07227-.01562-.43945-.5962-.001.001.30469.60449ZM82.6306,47.52734l.00391.00293ZM67.49877,45.91113a1.42,1.42,0,0,0-1.02637.375,1.72334,1.72334,0,0,0-.459,1.17237,2.79605,2.79605,0,0,1,1.52832-.123l.08593.01172c.05665-.04932.11622-.10449.17872-.16065a3.01932,3.01932,0,0,1,1.36523-.853,4.55606,4.55606,0,0,0-1.5127-.41651C67.60424,45.91309,67.55053,45.91113,67.49877,45.91113Zm14.5625,1.14649a2.55419,2.55419,0,0,1,.291.23242c.03223.02783.06739.0581.10547.0918.05274-.00489.11035-.01123.17188-.01709a3.87622,3.87622,0,0,1,1.15722.01074,1.67433,1.67433,0,0,0-.45312-1.08985,1.46924,1.46924,0,0,0-1.18555-.36865h0a4.91948,4.91948,0,0,0-1.67285.48535A3.22962,3.22962,0,0,1,82.06127,47.05762ZM74.907,41.62109l-.00488.01368Zm-1.76562-1.42627c-.00977.00635-.01953.0127-.02832.01954Zm-.042-.38427a.3251.3251,0,0,0,.03907.03174Zm1.35157-1.938.001.001Zm4.1914,20.19336a.81675.81675,0,0,1-.13672-.01172l-.55273-.09522a.79973.79973,0,0,1-.65332-.92089.79172.79172,0,0,1,.917-.65821c.19141.03076.38086.0625.57227.09864a.80054.80054,0,0,1-.14649,1.5874Z"/>
        </g>
      </g>
      <g>
        <g>
          <path class="cls-2" d="M69.73329,20.0219a2.79485,2.79485,0,0,1,1.6879-.45242c.92225.087,1.18327.66124.66124,1.49648l.1218.74825a2.35324,2.35324,0,0,0,.38283-2.24473c-.53943-1.06147-2.80157-.33062-2.80157-.33062l-.31322.71344Z"/>
          <path class="cls-1" d="M72.03783,22.46l-.23437-1.45019.05273-.085c.209-.33349.27539-.61474.1875-.791-.0791-.16065-.30859-.26709-.64746-.29883a2.58868,2.58868,0,0,0-1.50977.40527l-.10156.07129-.68164-.18213.48633-1.10742.11426-.03711c.25293-.08154,2.49511-.76611,3.12109.46387a2.59288,2.59288,0,0,1-.41113,2.5293Zm-.82031-3.167c.07519,0,.15137.00342.22949.01074a1.48159,1.48159,0,0,1,.86035.3169c-.39551-.57129-1.71191-.33936-2.32617-.16211l-.06836.15429A3.03021,3.03021,0,0,1,71.21752,19.293Z"/>
        </g>
        <g>
          <path class="cls-2" d="M67.93625,20.0219a2.79485,2.79485,0,0,0-1.6879-.45242c-.92225.087-1.18327.66124-.66123,1.49648l-.12181.74825a2.35322,2.35322,0,0,1-.38282-2.24473c.53943-1.06147,2.80156-.33062,2.80156-.33062l.31322.71344Z"/>
          <path class="cls-1" d="M65.63158,22.46l-.376-.48193a2.59356,2.59356,0,0,1-.41113-2.52979c.626-1.23,2.86817-.54492,3.12207-.46338l.11426.03711.48535,1.10742-.68066.18262-.10254-.07178a2.52508,2.52508,0,0,0-1.50879-.40527c-.33887.03174-.56934.13818-.64844.29883-.08789.17676-.02148.45752.1875.791l.05274.085Zm.749-3.20215a1.2054,1.2054,0,0,0-1.01953.36377,1.48549,1.48549,0,0,1,.86231-.31787,2.88558,2.88558,0,0,1,1.53418.30957l-.06836-.15478A5.08735,5.08735,0,0,0,66.3806,19.25781Z"/>
        </g>
        <g>
          <path class="cls-2" d="M65.88766,21.327s.19141-.73084.66124-.92225a5.49673,5.49673,0,0,1,1.7401-.05221,16.98556,16.98556,0,0,1,2.07073-.1218c.50463.0522,1.60089.261,1.37468,1.20067s-2.38394,1.20067-2.38394,1.20067S66.84472,22.54505,65.88766,21.327Z"/>
          <path class="cls-1" d="M69.38256,22.89648c-.14844-.002-2.68262-.104-3.70508-1.40429l-.082-.10449.03418-.12793a1.7245,1.7245,0,0,1,.81836-1.10206,5.437,5.437,0,0,1,1.87011-.07031,14.97793,14.97793,0,0,1,2.06934-.12207,2.05821,2.05821,0,0,1,1.46484.65039,1.04054,1.04054,0,0,1,.14161.87793C71.73217,22.58252,69.62182,22.86768,69.38256,22.89648Zm-3.19531-1.6289c.93066,1.00586,3.14941,1.09668,3.17285,1.09765.72168-.0913,1.98242-.44433,2.11425-.99658a.521.521,0,0,0-.05761-.44433,1.558,1.558,0,0,0-1.084-.42774,15.13672,15.13672,0,0,0-2.01465.1211,5.22655,5.22655,0,0,0-1.66894.03418A1.09,1.09,0,0,0,66.18725,21.26758Z"/>
        </g>
        <g>
          <path class="cls-2" d="M64.73339,35.43921s.09281,4.82589-.41762,5.38272-1.43849.13921-1.43849,1.29928a1.34866,1.34866,0,0,0,.92806,1.39208l.88165-.27841s.51043-.88166,1.06726-.74245,1.20647.37122,1.20647.37122a4.33664,4.33664,0,0,0,.64964-2.04172s.27842,1.16007.83525.37123a33.0913,33.0913,0,0,0,1.76331-4.50107,9.13154,9.13154,0,0,0,4.037-1.11367c1.48488-1.02086,2.645-1.06726,2.78416-.928s-.88165,2.41294-.60324,3.06258,1.76331,1.6241,1.85611,2.08812a2.83478,2.83478,0,0,1-.74244,1.76331c-.18561,0-1.16007-.04641-1.39208.37122a3.32052,3.32052,0,0,0,.0464,1.57769,18.45422,18.45422,0,0,0,3.341-1.11366c.55683-.41763,1.94891-2.18093,1.7169-3.52661,0,0,1.25287.232,1.57769.83525a3.69937,3.69937,0,0,1,.32482,1.48489S82.088,42.0284,82.13442,42.214s1.80971,1.94891,2.50575,1.34568,1.39208-3.48021,1.02086-4.82589-1.16007-.97446-1.6241-1.25287a3.25928,3.25928,0,0,1-2.04172-2.13453,9.12021,9.12021,0,0,0-1.29927-3.01618,9.45859,9.45859,0,0,0,2.69136,1.85611c.83525.232,2.36654.27842,2.36654,1.06726a2.07,2.07,0,0,1-.464,1.29928,1.54384,1.54384,0,0,0,1.39208-1.11367,2.55432,2.55432,0,0,0-.696-2.08812s1.25287-.51043,1.11367-1.57769-1.6705-2.22733-3.20179-2.645-1.5777-1.25287-2.45935-1.29928-4.22265.13921-4.96509.232-1.85611-.464-1.90252-1.02086-.18561-1.53129,1.20648-1.34568,3.109.55683,3.5266,1.02086a5.36291,5.36291,0,0,0,3.61942,1.29928,5.94878,5.94878,0,0,1,2.55215.0464c.0464.13921-.78885-1.43849-1.02086-1.48489s1.85611-.464,2.36654-.97446a5.00963,5.00963,0,0,0,.83525-1.53129,4.37465,4.37465,0,0,1-2.877.55684,17.66729,17.66729,0,0,0-2.645-.232s1.90251-.928,1.80971-1.6705-.09281.232-.09281.232a7.81745,7.81745,0,0,1-1.99531.18561c-1.06727-.04641-2.96978,1.53129-3.573,1.57769s-2.69135-.60323-3.71222-.13921a2.37184,2.37184,0,0,0-1.43848,2.78417c.41762,1.11366,1.43848,1.94891,4.91869,2.27373s6.07876.41763,6.8212,1.11367.78885,1.7633.18562,1.90251-3.66582-1.34568-5.84675-1.6705a56.05721,56.05721,0,0,0-5.80034-.37122,1.38662,1.38662,0,0,1-.97446-1.57769,5.68308,5.68308,0,0,0,0-2.13453,11.13747,11.13747,0,0,1,.88165-2.22733,3.05431,3.05431,0,0,0-1.80971.13921s-1.8097-1.29928-5.24351-.32482a1.906,1.906,0,0,0-2.13452-.74245L65.151,25.69464a4.824,4.824,0,0,0-1.34568,1.43848c-.55683.92806-1.11367,4.73308-.18561,6.26437A14.79668,14.79668,0,0,1,64.73339,35.43921Z"/>
          <path class="cls-1" d="M84.27807,43.95117a1.31218,1.31218,0,0,1-.39844-.06738,4.50418,4.50418,0,0,1-2.00391-1.606c-.03418-.13525-.08594-.33984,1.00781-1.21045a3.22715,3.22715,0,0,0-.28808-1.23242,1.89049,1.89049,0,0,0-1.05078-.61621,5.40991,5.40991,0,0,1-1.84864,3.394A17.27957,17.27957,0,0,1,76.25951,43.772l-.26074.06543-.06348-.2622a3.26459,3.26459,0,0,1-.02051-1.769c.25879-.46386.98145-.51611,1.54883-.50927a3.131,3.131,0,0,0,.55762-1.44336,3.766,3.766,0,0,0-.76465-.81885,4.52512,4.52512,0,0,1-1.07519-1.2168,4.34835,4.34835,0,0,1,.38378-2.36719c.06739-.21045.14649-.45849.18555-.61425a4.96625,4.96625,0,0,0-2.35351.96191,8.92759,8.92759,0,0,1-3.99219,1.1499,29.42522,29.42522,0,0,1-1.74121,4.39893c-.21.29687-.44043.42578-.68067.3789a.51575.51575,0,0,1-.20605-.08984,5.55245,5.55245,0,0,1-.58984,1.36914L67.073,43.187l-.20215-.07178c-.00586-.00244-.64356-.22949-1.18067-.36377-.26757-.06347-.63671.38624-.77246.61719L64.866,43.458l-1.05176.33252L63.741,43.772a1.6235,1.6235,0,0,1-1.12989-1.65088,1.09379,1.09379,0,0,1,.95606-1.207,1.14058,1.14058,0,0,0,.55273-.27246c.26758-.30127.38867-2.896.34766-5.14795a17.34345,17.34345,0,0,0-1.07617-1.958c-1.02539-1.69238-.37989-5.59765.18554-6.53955a5.15118,5.15118,0,0,1,1.23145-1.38183l-1.07715-2.05664.34375-.07324a2.20613,2.20613,0,0,1,2.29785.69726,6.72594,6.72594,0,0,1,5.17481.34033,3.19819,3.19819,0,0,1,1.86035-.09961l.28125.10059-.13086.26807c-.06152.12451-.12305.25293-.18359.38232a3.10993,3.10993,0,0,1,1.08593-.83545,5.73368,5.73368,0,0,1,2.89551.00635,5.22008,5.22008,0,0,0,.90625.10986,4.859,4.859,0,0,0,1.11035-.56055A5.54588,5.54588,0,0,1,81.86791,22.876a7.59,7.59,0,0,0,1.71777-.13526c.00586-.35254.044-.5459.28418-.561.248-.02344.30664.252.33887.5122a.79765.79765,0,0,1-.09082.457l-.00879.01855a3.10332,3.10332,0,0,1-1.0332.99707,16.80659,16.80659,0,0,1,1.748.2002,4.53841,4.53841,0,0,0,2.59864-.439l.03711-.11377.37109-.02783.07324.167a.34584.34584,0,0,1-.00488.19434l.01172.0039a.204.204,0,0,1-.02442.04834,4.86846,4.86846,0,0,1-.87695,1.59278,5.6,5.6,0,0,1-2.00293.8584l-.084.02441c.14941.20508.34765.52344.63672,1.01953.04.06836.07324.12549.09668.165a.24993.24993,0,0,1,.07226.11963l.0752.22754-.21582.10742a.22345.22345,0,0,1-.29981-.06055,9.25615,9.25615,0,0,0-2.33887.02832c-.05468.00489-.10937.00879-.16308.01123a3.13671,3.13671,0,0,0,1.18262.57959c1.54.41993,3.23144,1.60743,3.3955,2.86817a1.75607,1.75607,0,0,1-.96386,1.69629,2.5526,2.5526,0,0,1,.54,2.07129,1.79456,1.79456,0,0,1-1.63964,1.3125l-.6377.02636.42969-.47265a1.82419,1.82419,0,0,0,.39453-1.11963c0-.38184-.81738-.53613-1.47363-.65967-.252-.04785-.49512-.09375-.69727-.1499a8.56218,8.56218,0,0,1-1.70508-.99073c.31934.77149.585,1.6167.6416,1.82276a2.70924,2.70924,0,0,0,1.63282,1.82471c.11133.05468.209.104.28906.15136a1.08964,1.08964,0,0,0,.36133.09961c.45215.07715,1.07129.18262,1.38183,1.31153.37989,1.375-.26953,4.377-1.10254,5.09814A.79729.79729,0,0,1,84.27807,43.95117Zm-1.84571-1.75244a4.39514,4.39514,0,0,0,1.74414,1.21c.19629.03174.26563-.02978.28907-.05078.626-.5415,1.28125-3.30859.93847-4.55322-.22168-.80127-.5625-.85938-.957-.92676a1.52078,1.52078,0,0,1-.54785-.168c-.06836-.0415-.1543-.0835-.251-.13184a3.2141,3.2141,0,0,1-1.91113-2.16162,12.49761,12.49761,0,0,0-1.11328-2.773c-.13379-.144-.21-.26464-.19922-.34521l.03125-.23047.24023-.00439c.09571,0,.20118.08545.3125.229a10.127,10.127,0,0,0,2.4502,1.63721c.19043.05273.417.09472.65332.13965.85059.16015,1.9082.35986,1.9082,1.18408a2.29631,2.29631,0,0,1-.167.85888,1.15241,1.15241,0,0,0,.57129-.74023,2.30382,2.30382,0,0,0-.63184-1.83691l-.2666-.28223.3584-.14893c.04395-.01757,1.06152-.44824.9502-1.29589-.11719-.90088-1.49414-2.00977-3.00684-2.42237a3.76242,3.76242,0,0,1-1.63086-.88965,2.66122,2.66122,0,0,0-.36719-.28125c-.17285-.03271-.34277-.0747-.51074-.12353-1.00879-.02979-4.13867.1499-4.8125.23437a2.55815,2.55815,0,0,1-1.75683-.54687,1.0734,1.0734,0,0,1-.44434-.71631,1.62162,1.62162,0,0,1,.28711-1.36865,1.41792,1.41792,0,0,1,1.21973-.26367c.71875.0957,3.10644.45849,3.68945,1.10693a5.02949,5.02949,0,0,0,1.9082,1.02344l.042.002a1.38408,1.38408,0,0,1,.55664.14258,3.40636,3.40636,0,0,0,.89063.04394,13.63335,13.63335,0,0,1,2.02832-.07763,5.06271,5.06271,0,0,0-.582-.85547c-.09668-.00879-.16992-.13037-.17481-.23731-.01074-.23486.12207-.27441.6836-.4414a5.97846,5.97846,0,0,0,1.77832-.72412,3.01882,3.01882,0,0,0,.5039-.78418,5.1167,5.1167,0,0,1-2.40234.26171,17.52085,17.52085,0,0,0-2.59961-.22851H80.98119l1.03613-.50635a6.08138,6.08138,0,0,0,1.27344-.82373,8.00024,8.00024,0,0,1-1.44629.07715,5.88346,5.88346,0,0,0-2.20117.94385,4.07173,4.07173,0,0,1-1.33984.6333,5.50993,5.50993,0,0,1-1.03418-.11572,5.48114,5.48114,0,0,0-2.58789-.04688,2.11962,2.11962,0,0,0-1.29883,2.44775c.335.89551,1.13574,1.76954,4.69238,2.10157.59375.05517,1.16113.104,1.69824.1499,2.76856.23779,4.59766.39453,5.28125,1.03467a1.92263,1.92263,0,0,1,.64551,1.76611.78489.78489,0,0,1-.582.59131,6.00846,6.00846,0,0,1-2.28223-.59912,21.83485,21.83485,0,0,0-3.66406-1.06787,56.15444,56.15444,0,0,0-5.76367-.36817,1.64427,1.64427,0,0,1-1.23731-1.87256A5.28295,5.28295,0,0,0,72.18822,27c-.03808-.09668-.126-.31689.73535-2.12354a3.60139,3.60139,0,0,0-1.334.19043l-.126.04053-.10937-.07715c-.01758-.0122-1.76856-1.20849-5.0166-.28515l-.20215.05713-.10352-.18262a1.5716,1.5716,0,0,0-1.49023-.66358l.958,1.83008-.20313.13233a4.59156,4.59156,0,0,0-1.2627,1.35205c-.5166.86133-1.06542,4.53711-.18554,5.98877a14.88467,14.88467,0,0,1,1.13574,2.08886l.01563.08594c.02246,1.15723.05273,4.97852-.48731,5.56787a1.60932,1.60932,0,0,1-.7959.42481c-.38086.11084-.57226.1665-.57226.69433a1.10662,1.10662,0,0,0,.66406,1.11133l.7041-.22217c.17188-.2622.68555-.93066,1.30664-.77636.37305.09277.7793.22461,1.01953.30566a3.70568,3.70568,0,0,0,.50489-1.7041l.52636-.07617a.94718.94718,0,0,0,.21582.44238,1.04474,1.04474,0,0,0,.14258-.16211,30.8194,30.8194,0,0,0,1.72656-4.43017l.05762-.17725.18652-.00684a8.92339,8.92339,0,0,0,3.89551-1.0664c1.47852-1.01758,2.81641-1.207,3.125-.897.167.16748.09473.39551-.14551,1.15088a5.31784,5.31784,0,0,0-.40234,1.99512,4.468,4.468,0,0,0,.94531,1.03369c.53614.49121.86817.80713.92774,1.10742a3.34253,3.34253,0,0,1-.67188,1.88575.4481.4481,0,0,1-.332.19628c-.9707-.00732-1.127.17627-1.15918.23438a2.41632,2.41632,0,0,0,.01758,1.12012,15.03955,15.03955,0,0,0,2.97656-.99951c.55957-.41993,1.81836-2.08448,1.61426-3.26758l-.06543-.37744.377.06982c.14063.02588,1.38965.2749,1.76465.97119a3.94935,3.94935,0,0,1,.35547,1.61133v.12988l-.10254.08008A7.30335,7.30335,0,0,0,82.43236,42.19873ZM73.51244,30.354a53.14655,53.14655,0,0,1,5.73731.3667A22.06554,22.06554,0,0,1,83.01342,31.813a8.6569,8.6569,0,0,0,1.98437.58252c.03418-.0083.13965-.03272.1875-.21045a1.414,1.414,0,0,0-.49609-1.23779c-.54785-.51416-2.4961-.68116-4.96192-.89258-.53808-.0459-1.10742-.09473-1.70117-.15039-3.11133-.29053-4.60156-.999-5.14355-2.44532a1.9906,1.9906,0,0,1-.123-.84082,1.00485,1.00485,0,0,0-.0625.24122,5.98447,5.98447,0,0,1,.00488,2.20458,1.10831,1.10831,0,0,0,.77539,1.291A.23107.23107,0,0,1,73.51244,30.354Zm1.94336-4.41552a.722.722,0,0,0-.49414.14111c-.19141.18213-.15625.582-.12988.874a.59107.59107,0,0,0,.25488.41114,2.04825,2.04825,0,0,0,1.35351.43164c.50684-.06348,2.2754-.17481,3.62208-.22119a3.7902,3.7902,0,0,1-.957-.68116,8.04131,8.04131,0,0,0-3.36328-.93457A2.13113,2.13113,0,0,0,75.4558,25.93848Z"/>
        </g>
        <polygon class="cls-3" points="76.473 28.061 77.401 28.664 77.077 27.922 76.473 28.061"/>
        <polygon class="cls-3" points="77.819 27.968 78.886 28.85 78.469 27.829 77.819 27.968"/>
        <polygon class="cls-3" points="78.979 27.876 79.907 28.711 79.536 27.829 78.979 27.876"/>
        <polygon class="cls-3" points="80.696 27.783 81.624 28.896 80 27.69 80.696 27.783"/>
        <polygon class="cls-3" points="84.826 27.087 82.459 25.787 85.847 25.741 84.919 26.483 84.826 27.087"/>
        <path class="cls-3" d="M77.03012,34.65037a9.54816,9.54816,0,0,1,1.16007,1.53129c.232.51043,3.3874,2.55215,3.3874,2.55215l-.41763.97446a15.18537,15.18537,0,0,1-2.69135-2.36654,22.69827,22.69827,0,0,0-1.48489-1.85611Z"/>
        <path class="cls-3" d="M69.37367,35.02159c.0464-.09281.41762,2.08812.41762,2.08812s.51043-.55683.97446-.55683-.55683-2.08812-.55683-2.08812Z"/>
        <path class="cls-3" d="M67.09993,42.07481a7.51745,7.51745,0,0,0,.09281-2.59856,2.48519,2.48519,0,0,1,.64964,1.6241Z"/>
        <path class="cls-3" d="M68.67763,40.68272a7.58832,7.58832,0,0,0-.64964-2.645s.97446.88165,1.06726,1.34568A2.60386,2.60386,0,0,1,68.67763,40.68272Z"/>
        <path class="cls-3" d="M69.46647,38.5946l-.696-2.13452s1.11367.88165,1.11367,1.39208A.88112.88112,0,0,1,69.46647,38.5946Z"/>
        <path class="cls-3" d="M64.40857,35.1144s.74245,2.04172,3.75863,1.57769c0,0-2.877-.88165-3.99064-2.59855Z"/>
        <path class="cls-3" d="M73.68912,30.65973s-.51043,1.29928-1.62409.13921c0,0-.97446,2.32014.27841,3.71222,0,0-1.7633-.232-1.99531-1.11367,0,0,.83524,1.43849-.232,1.80971s-2.08812.60324-2.08812,1.29928a.79317.79317,0,0,1,.27841-1.11367c.696-.464,1.71691-.64964,1.6705-1.34568a5.48984,5.48984,0,0,1,.55684-3.06258s-.37123,1.90251.78884,2.645A5.1822,5.1822,0,0,1,71.833,30.1957a2.55838,2.55838,0,0,0,1.25288.27842C73.59632,30.38132,73.68912,30.65973,73.68912,30.65973Z"/>
        <path class="cls-3" d="M64.919,29.91729s-.32482.18561.04641,1.25287-.78885,2.92338-.78885,2.92338l-.78885-1.29928s.83525.18561.97446-.88165S64.50138,30.28851,64.919,29.91729Z"/>
        <path class="cls-3" d="M66.45029,32.33023a1.51372,1.51372,0,0,0-.0928,1.57769c.464.83525.55683.88166.696,1.16007s-.18561,1.43849,1.11367,1.6241c0,0-.78885-1.11367-.41763-1.90251s1.20647-1.02086,1.16007-2.27374c0,0-.27842.92806-.78885,1.16007a2.13891,2.13891,0,0,0-.83525.88165S66.26468,33.16548,66.45029,32.33023Z"/>
        <path class="cls-3" d="M63.24851,30.33491a3.65946,3.65946,0,0,1,1.48488-2.08812,1.97637,1.97637,0,0,0-1.29927.64964A1.01638,1.01638,0,0,0,63.24851,30.33491Z"/>
        <path class="cls-3" d="M63.61973,28.06118a2.16545,2.16545,0,0,1,1.6705-1.25288,1.7053,1.7053,0,0,0-1.29928.232A.87754.87754,0,0,0,63.61973,28.06118Z"/>
        <path class="cls-3" d="M66.12548,28.01478a5.06675,5.06675,0,0,0,.696,1.34568,2.66169,2.66169,0,0,1,.27841,1.62409l1.11367.64964.51043-.51043-.37122-.27842-.74245-.232-.18561-1.06726.41763-.64964-.64964.37122-.37122-.60324-.04641-1.16006.27842-.41763-.88165.51043-.60324-.37122S65.10461,28.06118,66.12548,28.01478Z"/>
        <path class="cls-3" d="M70.38211,28.01478a5.06675,5.06675,0,0,1-.696,1.34568,2.66172,2.66172,0,0,0-.27842,1.62409l-1.11366.64964-.51043-.51043.37122-.27842.74244-.232.18561-1.06726-.41762-.64964.64964.37122.37122-.60324.0464-1.16006-.27841-.41763.88165.51043.60323-.37122S71.403,28.06118,70.38211,28.01478Z"/>
        <path class="cls-3" d="M65.56864,35.90324a42.98372,42.98372,0,0,1-.27841,4.45467c-.18562.51043-.27842.55683-.60324.64963a1.442,1.442,0,0,0-.232,2.13453l.51043-.27842s-.64964-1.06726-.232-1.43848a6.802,6.802,0,0,0,1.16007-1.06726c.13921-.27842.51043-4.12985.51043-4.12985Z"/>
        <path class="cls-3" d="M85.33621,42.53883s-.78885-.41762-.74244-1.94891c0,0,.232,1.06726.928,1.16007Z"/>
        <path class="cls-3" d="M85.70743,40.45071a2.37162,2.37162,0,0,1-.88165-1.57769s.60324.97446.92806.88165Z"/>
        <polygon class="cls-3" points="71.23 25.509 72.111 25.184 71.787 26.159 71.23 25.509"/>
        <path class="cls-3" d="M65.10461,24.349s.74245.27842.83525.74244-.27841.51043-.27841.51043Z"/>
        <path class="cls-3" d="M67.564,25.18421s-.13921,1.85611-.09281,2.04172a5.75241,5.75241,0,0,0,.83525.928,9.61027,9.61027,0,0,0,.97446-.97445c.0464-.13921-.0464-1.94892-.0464-1.94892L68.956,27.04032l-.928.0464Z"/>
        <path class="cls-3" d="M70.58024,25.66406s-1.09036-.19047-1.38338.18687.30344.82909.4804.65265a.85565.85565,0,0,0,.19568-.48716l.47519.04944-.30551.58448S70.88993,26.38958,70.58024,25.66406Z"/>
        <path class="cls-3" d="M66.21549,25.66406s1.09037-.19047,1.38338.18687-.30344.82909-.48039.65265a.85569.85569,0,0,1-.19569-.48716l-.47518.04944.3055.58448S65.90581,26.38958,66.21549,25.66406Z"/>
        <polygon class="cls-3" points="68.585 27.829 68.665 28.896 68.26 30.01 67.842 28.896 68.121 27.736 68.585 27.829"/>
        <g>
          <circle class="cls-4" cx="69.00245" cy="18.96624" r="0.78885"/>
          <path class="cls-1" d="M69.00267,20.02148a1.05542,1.05542,0,1,1,1.05567-1.05517A1.05652,1.05652,0,0,1,69.00267,20.02148Zm0-1.57763a.52222.52222,0,1,0,.52247.52246A.52305.52305,0,0,0,69.00267,18.44385Z"/>
        </g>
        <g>
          <rect class="cls-4" x="68.58482" y="19.66228" width="0.88165" height="1.43849"/>
          <path class="cls-1" d="M69.73314,21.36719h-1.415V19.39551h1.415Zm-.88183-.53321h.34863v-.90527h-.34863Z"/>
        </g>
        <g>
          <rect class="cls-4" x="68.39921" y="17.20294" width="1.16007" height="0.92805"/>
          <path class="cls-1" d="M69.82592,18.39746H68.13256V16.93652h1.69336Zm-1.16016-.5332h.62695v-.39453h-.62695Z"/>
        </g>
        <g>
          <path class="cls-2" d="M71.09057,24.85939l.60323-2.04172.464-.37122-.18561-1.16007-.74244.696a3.549,3.549,0,0,1,.0348.58c-.0814-.12209-.53943-.22621-.53943-.22621l.319-.58583-.41763-.97446-.78885.83525.09281.55683h-.464l.09281-.64964-.64964-.78885-.78885.83525s.41763.60324.27842.60324a2.61169,2.61169,0,0,0-.464.09281l-.13921-.92806-.88165-.696-.41762,1.16007.464.60323-.64963.18561-.09281-.92805-.83525-.74244.13921,1.62409.464.41763.55683,1.53129A3.79875,3.79875,0,0,1,71.09057,24.85939Z"/>
          <path class="cls-1" d="M71.22533,25.34375l-.31445-.28711a3.501,3.501,0,0,0-4.22266-.34473l-.28125.18262-.64941-1.78369-.49219-.44385-.20605-2.396,1.291,1.14648.43945-1.22021,1.25391.99169.00879.05958.87109-.92237.82032.9961.96777-1.02539.55176,1.28857.89258-.83691.29,1.80908-.51953.416Zm-2.541-1.71924a3.6874,3.6874,0,0,1,2.26562.77051l.47559-1.60889a.40634.40634,0,0,1-.06543.02979l-.19629.07178-.1211-.17627a3.0208,3.0208,0,0,0-.37695-.11475l-.34277-.07861.4248-.78125-.206-.48194-.419.44336.12305.73633H69.15892l.11915-.8374-.38184-.46436-.43555.46094c.30664.481.24707.59326.19922.68506l-.07519.14307-.18555.01269a2.32064,2.32064,0,0,0-.39063.08252l-.292.0835L67.5476,21.477l-.50782-.40137L66.7976,21.75l.61425.79834-1.16894.334.44434,1.22364A4.6501,4.6501,0,0,1,68.68432,23.62451ZM65.779,22.41113l.27149.24463-.08692-.86767-.25781-.229Zm5.73047-.32519a2.38519,2.38519,0,0,1,.02539.51758l.335-.26856-.082-.51025Z"/>
        </g>
      </g>
      <g>
        <path class="cls-5" d="M82.99884,54.61151a5.65641,5.65641,0,0,1-.74553,1.54035c-.32513.47259-.99984-.203-2.40558-.41418-3.48618.28123-9.43842.61755-10.88931.61755a1.28,1.28,0,0,1-.32306-.01864c-.0584-.04142-.18638-.13792-.34336-.26466-.38809.07289-.59891.118-.59891.118l-.98451-1.7959a10.8179,10.8179,0,0,1-.069-3.34113c.08865-.22186-1.13828-1.40422-1.08048-1.73327a1.35142,1.35142,0,0,1,.54024-.99043c.63028-.47271,1.45285-.0998,1.8008-.18008.38851-.2568,1.02012-1.0218,1.48566-1.03546a8.33534,8.33534,0,0,1,1.46315.31514c.91742.23939,2.74795,1.02334,3.146,1.143a2.04139,2.04139,0,0,0,.502.04142,10.45878,10.45878,0,0,0,1.77188-.16277c.239-.06793,1.92815-1.29181,3.2465-1.29181a2.99742,2.99742,0,0,1,2.09343.56275,6.27389,6.27389,0,0,1,.51773.42769c.196.16156,1.49534-.26247,1.84582.20259,1.17052,1.55318-.93358,2.29667-.81036,2.67868a3.67111,3.67111,0,0,1,.24865.69256Z"/>
        <g id="Shape_259_copy" data-name="Shape 259 copy">
          <path class="cls-4" d="M77.19674,48.77944a10.38968,10.38968,0,0,1-2.6489.6117,1.09736,1.09736,0,0,1-.13793-.0058,20.63611,20.63611,0,0,1-2.59942-.52021c-.67263-.17106-1.37039-1.44251-2.06456-1.43629a1.55682,1.55682,0,0,0-.58526.20259c-.24851.07455-.93045.71443-1.26056.9004-.15537.08753-1.38368.11824-1.62072.51773-.26656.44924.82763,2.15612.82763,2.15612a13.95424,13.95424,0,0,0,.08284,3.68127,3.94172,3.94172,0,0,0,1.10049,1.18539c.87517-.16567,2.65077-.47093,4.94618-.71944a13.48631,13.48631,0,0,1,1.4455-.06917,37.32176,37.32176,0,0,1,5.16405.45561,17.83027,17.83027,0,0,0,2.56793-.29366c.37277-.26052.497-2.008.4788-2.11027a9.40644,9.40644,0,0,0,.30484-2.01749c-.03562-.27329.84092-1.80509.39193-2.3584-.59009-.7272-2.09343-.60777-2.09343-.60777a1.99153,1.99153,0,0,0-1.71076-.87789C78.827,47.47386,77.59449,48.52866,77.19674,48.77944Z"/>
        </g>
        <path class="cls-5" d="M67.72637,53.14186s.88165-.0928,1.04406-.37122a4.18672,4.18672,0,0,1,1.7169-1.02086c.32482,0,2.32014-.27842,2.34334,0s.64964.76564.64964.76564,1.02086-.33453,1.92571-.59649,1.25288.13247,1.6009-.05314-.0464-.696.78885-.44083,1.22967.348,1.29927.74244,1.04406.53364,1.20647.48723.27842-.32482.83525-.25521a2.29739,2.29739,0,0,1,1.04406.48723s.92806.39442.90486.812a6.50889,6.50889,0,0,1-.30162,1.41529,2.40509,2.40509,0,0,1-.464.58s-1.7633-1.48488-8.00447-1.48488a19.90957,19.90957,0,0,0-4.817.65962l-1.93456.75566-.67284-1.02086.16241-.58Z"/>
        <path class="cls-1" d="M82.3337,58.55056c-.26945-.76339-1.437-.89811-1.437-.89811L75.95186,56.803l.20039-.40793-1.28758.22118-1.28759-.22118.20039.40793-4.94486.84943s-1.16755.13472-1.437.89811a1.71765,1.71765,0,0,0,.449,1.5268,31.42289,31.42289,0,0,1,7.02-1.12164,31.42287,31.42287,0,0,1,7.02,1.12164A1.71766,1.71766,0,0,0,82.3337,58.55056Z"/>
        <g>
          <path class="cls-4" d="M75.82363,45.80812a15.35876,15.35876,0,0,0,2.72371-.76534c1.01295-.4502,3.42152-1.55319,5.1773-.92291s2.38606,2.58865,2.0259,4.502a8.18172,8.18172,0,0,1-1.8008,3.489l-.83287-.54024-.06753-.42769a6.06356,6.06356,0,0,0,1.68825-3.399,2.423,2.423,0,0,0-2.65618-2.76873c-1.81881.12808-2.67869,1.28307-6.25778,1.95837Z"/>
          <path class="cls-5" d="M83.97368,52.29785l-.98889-.64138-.08893-.56329.05174-.05185a5.95578,5.95578,0,0,0,1.64627-3.30278,2.626,2.626,0,0,0-.703-2.02772,2.27695,2.27695,0,0,0-1.79936-.5921,6.40108,6.40108,0,0,0-2.23046.6785,16.6333,16.6333,0,0,1-4.01072,1.2777l-.1705.03213V45.68842l.11775-.02174a15.30649,15.30649,0,0,0,2.69134-.75531l.06685-.02977c1.0308-.4588,3.445-1.53347,5.21747-.897,1.939.696,2.46124,2.844,2.11867,4.664a8.236,8.236,0,0,1-1.836,3.5594Zm-.72475-.81295.67407.43723a7.98524,7.98524,0,0,0,1.68622-3.32687c.32-1.7-.15364-3.70124-1.93317-4.34-1.66375-.5971-4.004.44437-5.00332.88918l-.067.02977a14.60379,14.60379,0,0,1-2.63831.75283v.83233a16.36944,16.36944,0,0,0,3.77781-1.2254,6.61848,6.61848,0,0,1,2.326-.70216,2.5896,2.5896,0,0,1,2.01968.67244,2.90741,2.90741,0,0,1,.79031,2.24524,6.03046,6.03046,0,0,1-1.67869,3.442Z"/>
        </g>
        <g>
          <path class="cls-4" d="M73.98318,45.80812a15.35876,15.35876,0,0,1-2.72371-.76534c-1.01295-.4502-3.42152-1.55319-5.17729-.92291s-2.38606,2.58865-2.0259,4.502a8.18172,8.18172,0,0,0,1.8008,3.489l.83287-.54024.06753-.42769a6.06356,6.06356,0,0,1-1.68825-3.399,2.423,2.423,0,0,1,2.65617-2.76873c1.81881.12808,2.67869,1.28307,6.25778,1.95837Z"/>
          <path class="cls-5" d="M65.83314,52.29785l.98889-.64138.08892-.56329-.05174-.05185a5.95585,5.95585,0,0,1-1.64627-3.30278,2.626,2.626,0,0,1,.703-2.02772,2.277,2.277,0,0,1,1.79936-.5921,6.401,6.401,0,0,1,2.23046.6785,16.6333,16.6333,0,0,0,4.01072,1.2777l.1705.03213V45.68842l-.11774-.02174a15.30627,15.30627,0,0,1-2.69135-.75531L71.251,44.8816c-1.03079-.4588-3.445-1.53347-5.21746-.897-1.939.696-2.46124,2.844-2.11867,4.664a8.23587,8.23587,0,0,0,1.836,3.5594Zm.72474-.81295-.67407.43723a7.98536,7.98536,0,0,1-1.68622-3.32687c-.32-1.7.15365-3.70124,1.93317-4.34,1.66375-.5971,4.004.44437,5.00332.88918l.067.02977a14.604,14.604,0,0,0,2.63831.75283v.83233a16.36944,16.36944,0,0,1-3.77781-1.2254,6.61841,6.61841,0,0,0-2.326-.70216,2.58962,2.58962,0,0,0-2.01968.67244,2.9074,2.9074,0,0,0-.7903,2.24524,6.0304,6.0304,0,0,0,1.67869,3.442Z"/>
        </g>
        <path class="cls-5" d="M84.11589,52.121a.20472.20472,0,0,0,.01741-.15823l-.02556-.04026-1.36561-.6289a.20406.20406,0,0,0-.08871.16759.19935.19935,0,0,0,.005.04432,8.46988,8.46988,0,0,1,.05548,1.284.7006.7006,0,0,0-.23359.11721,3.18849,3.18849,0,0,1-.42245-.92115.20526.20526,0,0,0-.18474-.147h-.00994a.205.205,0,0,0-.18968.12425L80.995,53.598a.20358.20358,0,0,0,.18806.282h.00042l.07331-.01325a9.16371,9.16371,0,0,1,.96338-.234.70936.70936,0,0,0,.26342.403,2.65067,2.65067,0,0,1-1.33947.37566,2.51134,2.51134,0,0,1-.69915-.10023,2.125,2.125,0,0,1-1.43679-1.1183l.15488.04142.09612.01243a.3831.3831,0,0,0,.26839-.65483.73333.73333,0,0,1,.33588-.19591.08562.08562,0,0,1,.0145,0,.16519.16519,0,0,1,.11721.06876,1.19041,1.19041,0,0,1-.06542.62127.78061.78061,0,0,0,.0791.7211.50325.50325,0,0,0,.38518.17313h.02859a.20444.20444,0,0,0,.18224-.24852,1.34464,1.34464,0,0,1,.17727-.55251l.06379-.07994a1.243,1.243,0,0,0,.3392-1.08351,1.08294,1.08294,0,0,0-.516-.71612,1.04628,1.04628,0,0,0-.519-.13916,1.00493,1.00493,0,0,0-.30316.04679.71073.71073,0,0,0-.1487.07125,4.26182,4.26182,0,0,0,.07935-2.146l-.42692-.35009a4.04737,4.04737,0,0,0-.92521,2.37306,1.01008,1.01008,0,0,0-.234-.30236.78037.78037,0,0,0-.72977-.16526.94055.94055,0,0,0-.56455.46762v-.15242a.20378.20378,0,0,0-.35785-.13336,2.08433,2.08433,0,0,1-1.02055.53181l-.02359.00662a.73374.73374,0,0,0-.11351-.1342,2.45307,2.45307,0,0,1,1.05577-1.26491.20376.20376,0,0,0-.09112-.386h-.3065l.0207-.08864L76.029,44.81207a1.902,1.902,0,0,0-.29993-3.24777.20421.20421,0,0,0-.01533-.18306,9.59969,9.59969,0,0,1-.39886-1.05618l.00455-.00621a5.23224,5.23224,0,0,1,1.028.58731.20418.20418,0,0,0,.16235.08036l.06752-.0116a.20466.20466,0,0,0,.13626-.198l-.04143-1.55568a.20409.20409,0,0,0-.31021-.16857,3.48763,3.48763,0,0,1-1.03215.45892l-.029.00455.00331-.01325a3.29246,3.29246,0,0,1,.44566-1.01351.20367.20367,0,0,0-.16817-.31437l-1.47614-.01987h-.0029a.20771.20771,0,0,0-.19592.13543.19955.19955,0,0,0,.06958.22656,5.93021,5.93021,0,0,1,.49911,1.02594l-.04888.05881a1.94869,1.94869,0,0,1-.81221-.40465.20369.20369,0,0,0-.34212.14827l-.00952,1.34734a.20458.20458,0,0,0,.11182.18348l.092.022a.20743.20743,0,0,0,.12424-.04141,4.67274,4.67274,0,0,1,.90086-.49247l.01036-.00621c-.06131.23774-.26633.78115-.34667.98824a.20171.20171,0,0,0,.012.17313,1.90512,1.90512,0,0,0-.37524,3.30809l-.0116.01243-.00829-.00912c-.03853-.03479-.03106,4.70347-.03106,4.70347l.01865.094H73.454a.20414.20414,0,0,0-.09112.38643,2.42537,2.42537,0,0,1,1.05658,1.26368.70782.70782,0,0,0-.10892.12425,2.06354,2.06354,0,0,1-1.01516-.53057.20375.20375,0,0,0-.35745.13378v.00207l.01988,1.875a.20376.20376,0,0,0,.12716.18639l.077.01532a.20338.20338,0,0,0,.14454-.06006,2.17638,2.17638,0,0,1,.98162-.61838.2024.2024,0,0,0,.14786-.07454l.05384.03976c-.09235.20916-.55377,1.12989-1.37634,1.25042a2.23054,2.23054,0,0,1-.32389.02485,1.30464,1.30464,0,0,1-1.24877-.70412v-.00248a.38229.38229,0,0,0,.01781-.66932l-.0414-.01822a2.01905,2.01905,0,0,1,.12716-.26922l.012.00579a2.45877,2.45877,0,0,1,.14.58566.66489.66489,0,0,0,.59975.62128.20407.20407,0,0,0,.18306-.29366,1.05088,1.05088,0,0,1,.03106-.43655,1.507,1.507,0,0,0,.1516-1.18912.94385.94385,0,0,0-.61714-.58815.78145.78145,0,0,0-.72977.16568,1.02258,1.02258,0,0,0-.23443.30235,4.04971,4.04971,0,0,0-.87794-2.31431l-.49829.40862a4.26313,4.26313,0,0,0,.103,2.0287.71512.71512,0,0,0-.14912-.07123,1.00519,1.00519,0,0,0-.30319-.04681,1.04609,1.04609,0,0,0-.51855.13917,1.08361,1.08361,0,0,0-.51731.71488,1.24306,1.24306,0,0,0,.3392,1.08351l.06174.07911a1.33271,1.33271,0,0,1,.17766.55252.20446.20446,0,0,0,.18185.24851h.02856a.50688.50688,0,0,0,.38561-.17313.78305.78305,0,0,0,.07951-.72109,1.19547,1.19547,0,0,1-.06584-.62128.16521.16521,0,0,1,.11722-.06876.04814.04814,0,0,1,.01534,0,.72958.72958,0,0,1,.33464.19591l-.06129.07662a.38328.38328,0,0,0,.32887.57987h.00247l.09732-.01285.37569-.09691a2.09211,2.09211,0,0,1-1.46,1.17048,2.53238,2.53238,0,0,1-.7041.10107,2.61418,2.61418,0,0,1-1.25663-.33135.70468.70468,0,0,0,.234-.439,8.67636,8.67636,0,0,1,.91535.22408l.07331.01325H68.62a.20359.20359,0,0,0,.18805-.28206l-.67845-1.6352a.20335.20335,0,0,0-.18926-.12425H67.93a.20366.20366,0,0,0-.18471.147,2.97988,2.97988,0,0,1-.45563.95718.71794.71794,0,0,0-.20707-.08283l.00537-.04143a8.62615,8.62615,0,0,1,.05508-1.308.19482.19482,0,0,0,.00458-.04391.20528.20528,0,0,0-.12387-.18742l-1.29845.598-.05674.08936a.20868.20868,0,0,0,.01741.15823l.55832.99693.07247.07374a.70683.70683,0,0,0,.19094.929v.06a.35408.35408,0,0,0,.12177.24436,3.27214,3.27214,0,0,0,1.67619.68507,11.2315,11.2315,0,0,0-1.11374.48252.35684.35684,0,0,0,.16072.67554.35375.35375,0,0,0,.16027-.03811l.04848-.024V56.214L67.928,57.9022a.2038.2038,0,0,0,.10188.13585l.09733.02444.07207-.01325a20.60984,20.60984,0,0,1,6.42233-1.13776h.55874a20.63518,20.63518,0,0,1,6.42233,1.13693.2036.2036,0,0,0,.27128-.14744l.36987-1.68781v-.00787l.04806.024a.357.357,0,0,0,.321-.63743,11.0559,11.0559,0,0,0-1.11208-.48169,3.25067,3.25067,0,0,0,1.67411-.68547.35643.35643,0,0,0,.111-.35247.70714.70714,0,0,0,.25347-.93068l.01781-.02361ZM70.67645,54.44a2.66564,2.66564,0,0,0,.60885-.6627,2.01826,2.01826,0,0,0,.68135.43739C71.55908,54.27271,71.12419,54.34685,70.67645,54.44Zm4.43343-.46181h-.4204c-.01076,0-.24272.00207-.632.0236a2.98314,2.98314,0,0,0,.84328-.88925,2.98277,2.98277,0,0,0,.84328.88925C75.35341,53.9803,75.12024,53.97823,75.10988,53.97823Zm1.90028-.33094a2.27333,2.27333,0,0,1-.32265-.02443c-.823-.12053-1.28273-1.04333-1.37635-1.25043l.07416-.06171a.20446.20446,0,0,0,.16193.09278,2.17764,2.17764,0,0,1,.982.61837.20394.20394,0,0,0,.14373.06006l.077-.01533a.20343.20343,0,0,0,.12674-.18638l.00662-.62956a.79767.79767,0,0,0,.10728.21,1.032,1.032,0,0,1,.03395.44112.20409.20409,0,0,0,.18306.29365h.00042a.66487.66487,0,0,0,.59975-.62128,2.81,2.81,0,0,1,.13294-.57986l.01865-.01035a1.99151,1.99151,0,0,1,.12716.26881.38155.38155,0,0,0,.05921.71943l.08823.0232A1.32709,1.32709,0,0,1,77.01016,53.64729Zm.82505.56744a2.02862,2.02862,0,0,0,.68134-.43739,2.66526,2.66526,0,0,0,.60885.6627C78.67725,54.34685,78.24277,54.27271,77.83521,54.21473Z"/>
        <path class="cls-6" d="M74.50773,57.17656a17.14888,17.14888,0,0,0-6.34281,1.16758.82949.82949,0,0,0-.25928.678c.0145.3388.13958.63826.299.65814h.00456c.09526,0,.70867-.26964,1.76649-.53844a17.92589,17.92589,0,0,1,4.43757-.53844q.15469,0,.31312.00248A19.82784,19.82784,0,0,1,81.04935,59.682a.67891.67891,0,0,0,.17064.022.30282.30282,0,0,0,.32762-.22159c.07994-.31892.17935-.8379,0-1.07688A21.36856,21.36856,0,0,0,75.04493,57.189q-.26654-.01056-.53844-.01077"/>
        <path class="cls-7" d="M75.341,39.691a3.90274,3.90274,0,0,0,1.127-.48832l.04142,1.55567a6.08688,6.08688,0,0,0-1.18664-.688Zm-.66808-.229a5.95426,5.95426,0,0,0-.56867-1.127l1.47573.01988a3.57273,3.57273,0,0,0-.4788,1.09717Zm-.25928.68795a4.86192,4.86192,0,0,0-.94765.51856l.01035-1.34609a2.12539,2.12539,0,0,0,.92736.4585Zm-7.53069,12.645-.45892.19923-.55873-.99736,1.07688-.55832A9.218,9.218,0,0,0,66.88295,52.7949Zm5.04973-1.95577a.70918.70918,0,0,1,.637.48,1.32327,1.32327,0,0,1-.1197.99736,1.01482,1.01482,0,0,0-.053.65151.45738.45738,0,0,1-.39886-.45229c-.07994-.45187-.1197-.65151-.22615-.71778a.26634.26634,0,0,0-.13792-.04721.18275.18275,0,0,0-.14123.07372,3.17706,3.17706,0,0,0-.2394.51856l-.15946-.01326s.053-1.01061.45187-1.34278A.59906.59906,0,0,1,71.93268,50.83913Zm-.56992,1.559a.17973.17973,0,0,1,.04515.35371l-1.01724.26259a.17961.17961,0,0,1-.08946-.34791l1.01682-.2626a.1643.1643,0,0,1,.04473-.00621Zm-.44815-.04142-.2394.04142a4.16891,4.16891,0,0,1-.57985-3.51022,4.35932,4.35932,0,0,1,.81925,3.46838Zm-3.49322.71819a3.18888,3.18888,0,0,0,.51856-1.057l.67843,1.6352a10.77833,10.77833,0,0,0-1.07688-.25928Zm2.03488-1.73253a.79931.79931,0,0,1,.24189.03728c.439.13958.77783,1.03546.77783,1.03546l-.17934.07993a1.06928,1.06928,0,0,0-.5579-.326.24874.24874,0,0,0-.06047.007c-.39886.09941-.31893.47839-.19923.9373.15822.60761-.193.63867-.2659.63867h-.01367a1.41789,1.41789,0,0,0-.2-.69707,1.2193,1.2193,0,0,1-.37856-1.01724.86367.86367,0,0,1,.835-.69583Zm7.21716,1.513s-.65814-.65855-1.1183-.678v-.5989a2.27614,2.27614,0,0,0,1.13693-.5985Zm-2.394-.67843c-.45891.01947-1.11829.678-1.11829.678l-.01864-1.875a2.27289,2.27289,0,0,0,1.13693.5985Zm.91121-.99735h-.57986A2.62986,2.62986,0,0,0,73.454,49.80325h2.89183A2.62676,2.62676,0,0,0,75.19065,51.17959Zm-.478-10.85991.38892-.01035a11.103,11.103,0,0,0,.439,1.15681,3.06238,3.06238,0,0,0-.78695-.10934,2.00851,2.00851,0,0,0-.41045.04142A11.2581,11.2581,0,0,0,74.71268,40.31968Zm1.14563,9.19116H73.94313V44.937h1.91518Zm4.29053,1.83069a.864.864,0,0,1,.83541.69542,1.2186,1.2186,0,0,1-.37939,1.01806,1.41446,1.41446,0,0,0-.19922.6979H80.3928c-.07331,0-.425-.03106-.26632-.63867.1197-.45892.19922-.8379-.19964-.9373a.24874.24874,0,0,0-.06047-.007,1.06813,1.06813,0,0,0-.55749.326l-.17934-.07994s.33921-.89712.77742-1.03546a.80083.80083,0,0,1,.24188-.03852ZM78.92948,52.396l-.23939-.04142a4.3677,4.3677,0,0,1,.8176-3.47044A4.1678,4.1678,0,0,1,78.92948,52.396Zm.50283.48874a.17955.17955,0,0,1-.21911.12881L78.196,52.751a.17967.17967,0,1,1,.08987-.34792l1.01724.2626a.18151.18151,0,0,1,.12964.21952Zm-2.39772-1.566a.7098.7098,0,0,1,.637-.48.59719.59719,0,0,1,.38643.14787c.39928.33134.45229,1.34278.45229,1.34278l-.15987.01325a3.17863,3.17863,0,0,0-.2394-.51855.18277.18277,0,0,0-.14124-.07373.26635.26635,0,0,0-.13792.04722c-.106.06668-.14621.2659-.22573.71778a.45739.45739,0,0,1-.39886.45229,1.01765,1.01765,0,0,0-.05343-.65151,1.32594,1.32594,0,0,1-.11929-.997Zm4.8269.69832a3.18893,3.18893,0,0,0,.51856,1.057l-.1197.31934a10.77557,10.77557,0,0,0-1.07688.25928ZM66.86265,53.97864a.15149.15149,0,0,1,.10024.03769,2.799,2.799,0,0,0,1.68821.57655,2.7281,2.7281,0,0,0,.7621-.10976,2.1819,2.1819,0,0,0,1.648-1.46083.15413.15413,0,0,1,.13585-.12011h.01325a.15351.15351,0,0,1,.14165.09443,1.51105,1.51105,0,0,0,1.43639.83085,2.42477,2.42477,0,0,0,.355-.02692c1.04913-.15366,1.55029-1.40822,1.55484-1.41982a.15307.15307,0,0,1,.14248-.09775h.1197a.15306.15306,0,0,1,.14248.09775c.005.0116.50613,1.26616,1.55526,1.41982a2.47129,2.47129,0,0,0,.35413.02692,1.512,1.512,0,0,0,1.4368-.83168.15212.15212,0,0,1,.13793-.094h.01615a.15276.15276,0,0,1,.135.12012,2.1836,2.1836,0,0,0,1.648,1.46041,2.72522,2.72522,0,0,0,.76168.10976,2.80385,2.80385,0,0,0,1.68863-.57655.15283.15283,0,1,1,.20047.2307,3.03266,3.03266,0,0,1-1.87584.65442,3.06624,3.06624,0,0,1-.85985-.12426A2.63987,2.63987,0,0,1,78.553,53.40085a1.87135,1.87135,0,0,1-1.54325.731,2.75838,2.75838,0,0,1-.396-.02982,2.48394,2.48394,0,0,1-1.71306-1.42894,2.486,2.486,0,0,1-1.71265,1.42894,2.70519,2.70519,0,0,1-.39679.03023,1.87048,1.87048,0,0,1-1.54449-.73186,2.63988,2.63988,0,0,1-1.74827,1.3755,3.02113,3.02113,0,0,1-2.73527-.53015.15286.15286,0,0,1,.0994-.26715Zm7.82766.17934h.42a19.6456,19.6456,0,0,1,7.40892,1.59213.15282.15282,0,0,1-.06751.28993h-.00125l-.06834-.01657a19.32024,19.32024,0,0,0-7.27431-1.56023h-.41833a19.30226,19.30226,0,0,0-7.271,1.5594.15123.15123,0,0,1-.06876.01615.15295.15295,0,0,1-.06875-.28951A19.675,19.675,0,0,1,74.69031,54.158Zm.01119.572h.39844s.08574-.00331.2423-.00331a16.62922,16.62922,0,0,1,6.699,1.41941l-.367,1.68862a20.65069,20.65069,0,0,0-6.4944-1.15018h-.55832a20.65069,20.65069,0,0,0-6.4944,1.15018l-.367-1.68862a16.62874,16.62874,0,0,1,6.69859-1.41941C74.61576,54.72666,74.7015,54.73,74.7015,54.73Zm8.15942-3.29111,1.07688.55832-.55832.99736-.45892-.19922a9.2097,9.2097,0,0,0-.06171-1.35563Z"/>
        <path class="cls-8" d="M77.3965,45.33615a.65535.65535,0,1,1,.00054,0Zm1.71076-.69781a.65535.65535,0,1,1,.00054,0Zm1.75578-.60777a.65535.65535,0,1,1,.00054,0Zm1.86833-.18008a.65535.65535,0,1,1,.00054,0Zm1.86833.54024a.65535.65535,0,1,1,.00054,0Zm1.30558,1.32809a.65535.65535,0,1,1,.00054,0Zm.6753,1.86833a.65535.65535,0,1,1,.00054,0ZM86.423,49.65807a.65535.65535,0,1,1,.00054,0Zm-.85538,2.00339a.65535.65535,0,1,1,.00054,0ZM67.15446,43.783a.65535.65535,0,1,1,.00053,0Zm1.8233.29263a.65535.65535,0,1,1,.00054,0Zm1.77829.56275a.65535.65535,0,1,1,.00054,0Zm1.73327.72032a.65535.65535,0,1,1,.00054,0Zm-7.18068-.99044a.65535.65535,0,1,1,.00053,0ZM63.913,45.69631a.65535.65535,0,1,1,.00053,0Zm-.65279,1.77829a.65535.65535,0,1,1,.00053,0Zm.18008,2.251a.65535.65535,0,1,1,.00053,0Zm.72032,1.89084a.65535.65535,0,1,1,.00053,0Zm10.74009.715a.50531.50531,0,1,1,.5053-.5053A.50786.50786,0,0,1,74.90072,52.33143Zm0-2.95189a.50531.50531,0,1,1,.5053-.5053A.50786.50786,0,0,1,74.90072,49.37954Zm.5053-1.62236v.00166a.50531.50531,0,1,1-.58689-.49868.50537.50537,0,0,1-.10769-.96753.50568.50568,0,0,1,.02692-.94724.5051.5051,0,1,1,.3243,0,.50568.50568,0,0,1,.02693.94724.50538.50538,0,0,1-.10769.96753A.50693.50693,0,0,1,75.406,47.75718Zm-.51524-7.41762h-.00042a.3707.3707,0,1,1,.3707-.37276v.00207A.37237.37237,0,0,1,74.89078,40.33956Zm-7.9983,12.73657h.00041a.50531.50531,0,1,1-.5053.50531V53.581a.50786.50786,0,0,1,.5053-.5053h.00124Zm15.98293-.07952a.50531.50531,0,1,1-.5053.5053V53.5015a.50786.50786,0,0,1,.5053-.5053h.00166Z"/>
        <path class="cls-9" d="M75.31035,55.21622h-.678a.62832.62832,0,0,0,0,1.25664h.678a.62832.62832,0,0,0,0-1.25664"/>
        <g id="Shape_258_copy_2" data-name="Shape 258 copy 2">
          <path class="cls-9" d="M79.29107,56.33411a.70282.70282,0,0,1-.74139.46927,1.17339,1.17339,0,0,1-.23153-.0232.78069.78069,0,0,1-.72524-.78446.70163.70163,0,0,1,.74222-.46886,1.17825,1.17825,0,0,1,.23194.02319A.78073.78073,0,0,1,79.29107,56.33411Zm-7.8695.4527a1.16491,1.16491,0,0,1-.15656.01035.72854.72854,0,0,1-.787-.52021.78076.78076,0,0,1,.78116-.73684,1.15881,1.15881,0,0,1,.15614-.01035.72852.72852,0,0,1,.78695.52021A.78125.78125,0,0,1,71.42157,56.78681Z"/>
        </g>
        <g id="Shape_258_copy" data-name="Shape 258 copy">
          <path class="cls-9" d="M82.34816,57.24241a.40118.40118,0,0,1-.50075.25969l-.57033-.181a.39886.39886,0,0,1,.12053-.77908h.00083a.39077.39077,0,0,1,.11969.01863l.57033.18059A.40181.40181,0,0,1,82.34816,57.24241ZM67.94989,57.341a.389.389,0,0,1-.11556.01739h-.00166a.39885.39885,0,0,1-.11514-.78073l.5724-.17438a.389.389,0,0,1,.11556-.01739h.00041a.39884.39884,0,0,1,.11639.78032Z"/>
        </g>
        <path class="cls-4" d="M76.54834,43.84853s-.02982-.00787-.08283-.02071a1.7205,1.7205,0,0,1-3.16147.00828l-.0497.01243a1.7665,1.7665,0,0,1-.1197-.97706l.05426-.01367A1.72518,1.72518,0,0,1,74.501,41.47691v-.07124a.95624.95624,0,0,1,.32928-.0497h.14413a.95393.95393,0,0,1,.32887.0497V41.486a1.724,1.724,0,0,1,1.27237,1.36308c.034.007.06544.0145.094.02237A1.76306,1.76306,0,0,1,76.54834,43.84853Z"/>
        <g id="Shape_260_copy" data-name="Shape 260 copy">
          <path class="cls-10" d="M74.88167,41.43425a1.71751,1.71751,0,0,0-.38188.04142v1.255a9.47853,9.47853,0,0,0-1.31214.12425,1.72558,1.72558,0,0,0,.11515.9783,6.65034,6.65034,0,0,1,1.48609-.17644h.22366a6.67029,6.67029,0,0,1,1.44964.16857,1.71228,1.71228,0,0,0,.1371-.67387,1.74852,1.74852,0,0,0-.02692-.30484A9.99845,9.99845,0,0,0,75.3,42.7294V41.486a1.73392,1.73392,0,0,0-.42039-.05177"/>
        </g>
        <g>
          <path class="cls-5" d="M69.489,58.25142a4.74929,4.74929,0,0,1,.89547.09526c.2949.06006-1.45586.678-1.55526.69831h-.00456c-.09484,0-.07579-.65855-.07579-.65855A1.67439,1.67439,0,0,1,69.489,58.25142Z"/>
          <path class="cls-5" d="M73.03731,57.96812a4.84237,4.84237,0,0,1-1.9943.45891l-.09982-.53844a1.62952,1.62952,0,0,1,.678-.11514,6.74408,6.74408,0,0,1,1.41568.19467Z"/>
          <path class="cls-5" d="M74.49358,57.5092a7.07633,7.07633,0,0,0,1.057.379c-.2278.28993-1.2384.32265-1.74537.32265-.16028,0-.27-.00332-.28993-.00332a2.22194,2.22194,0,0,1-.07952-.71778c.01284-.24188.35081-.03893.65276-.03893A.87241.87241,0,0,1,74.49358,57.5092Z"/>
          <path class="cls-5" d="M77.30588,57.76848c.17935.12011.85778.53844.85778.53844a1.92624,1.92624,0,0,1-.43075.03272c-.60554,0-1.54366-.09236-1.54366-.09236l.04141-.63826a4.25092,4.25092,0,0,1,1.07481.15946Z"/>
          <path class="cls-5" d="M80.07843,58.34834c.1197.07993.69831.59849.69831.59849-.03934.00207-.07869.0029-.11845.0029a5.61817,5.61817,0,0,1-1.71679-.36158l.12011-.53844a7.59773,7.59773,0,0,1,1.01641.29738Z"/>
        </g>
      </g>
      <path class="cls-1" d="M74.88353,45.17627a2.06909,2.06909,0,1,1,2.06934-2.06885A2.071,2.071,0,0,1,74.88353,45.17627Zm0-3.689a1.61988,1.61988,0,1,0,1.62012,1.62012A1.62147,1.62147,0,0,0,74.88353,41.4873Z"/>
      <g>
        <g>
          <path class="cls-3" d="M89.04843,95.18275s.13284-.00923.37754-.03687c2.20973-.24966,13.54161-2.0015,18.55478-12.02784H86.35707"/>
          <g>
            <path class="cls-2" d="M89.234,84.2317l4.17625,9.09494a11.47155,11.47155,0,0,1-3.99064.37122l-1.6705-8.90933Z"/>
            <path class="cls-1" d="M90.35033,94.00293c-.30469,0-.624-.01172-.95312-.03906l-.20215-.01709-1.75-9.32959,1.92773-.72217,4.40528,9.59521-.28809.09082A11.341,11.341,0,0,1,90.35033,94.00293Zm-.70605-.55615a11.6457,11.6457,0,0,0,3.3916-.2959l-3.94043-8.582-1.043.39111Z"/>
          </g>
          <g>
            <path class="cls-2" d="M92.43583,83.44285l5.56833,7.98128a6.8534,6.8534,0,0,1-4.73308,1.11366l-4.22265-8.77012Z"/>
            <path class="cls-1" d="M94.1765,92.86475a7.08871,7.08871,0,0,1-.94043-.0625l-.14257-.01905-4.45118-9.24463,3.92383-.376,5.80371,8.31885-.20312.15527A7.0218,7.0218,0,0,1,94.1765,92.86475Zm-.72851-.57422a6.76393,6.76393,0,0,0,4.18164-.937l-5.32324-7.63038-2.85157.27344Z"/>
          </g>
          <g>
            <path class="cls-2" d="M96.61208,82.5612l5.56833,6.35718a6.644,6.644,0,0,1-4.36186,1.85611l-5.38272-7.33164Z"/>
            <path class="cls-1" d="M97.6892,91.05029l-.08594-.11816-5.627-7.665,4.7334-.99951,5.82617,6.65234-.15625.17578a6.86033,6.86033,0,0,1-4.544,1.94483Zm-4.793-7.43164,5.0498,6.87891a6.63209,6.63209,0,0,0,3.86719-1.59326l-5.29883-6.04981Z"/>
          </g>
          <g>
            <path class="cls-2" d="M106.44946,84.32451s-.88165,2.22733-4.73308,3.71222l-4.22265-4.68668Z"/>
            <path class="cls-1" d="M101.64135,88.35156l-4.81348-5.34228,9.999,1.08789-.1289.32568c-.03809.09522-.96973,2.353-4.88574,3.86279ZM98.1599,83.69092l3.63086,4.02978a8.52078,8.52078,0,0,0,4.23731-3.17334Z"/>
          </g>
        </g>
        <g>
          <path class="cls-2" d="M91.9022,84.2085h24.9824s2.71456-.4506,5.42912-5.70754H95.59122Z"/>
          <path class="cls-1" d="M91.90209,84.74219h-.98047l4.37988-6.7749h27.88867l-.40136.77832c-2.80567,5.43212-5.69531,5.96923-5.81739,5.98925Zm.98047-1.06739h24.001c-.0332-.00341,2.17579-.49755,4.53418-4.64013H95.88158Z"/>
        </g>
        <g>
          <path class="cls-2" d="M99.83707,79.26661h24.9824s2.71456-.4506,5.42912-5.70754h-26.7225Z"/>
          <path class="cls-1" d="M99.83666,79.80029h-.98047l4.37988-6.7749h27.88868l-.40137.77832c-2.80567,5.43213-5.69531,5.96924-5.81738,5.98926Zm.98047-1.06738h24.001c-.0332-.00342,2.17579-.49805,4.53418-4.64014H103.81615Z"/>
        </g>
        <g>
          <path class="cls-2" d="M107.70233,74.39432h24.98241s2.71456-.4506,5.42912-5.70754H111.39135Z"/>
          <path class="cls-1" d="M107.70189,74.92822h-.98047l4.37989-6.7749H138.99l-.40137.77832c-2.80566,5.43213-5.69531,5.96924-5.81738,5.98926Zm.98047-1.06738h24.001c-.0332-.00342,2.17578-.498,4.53418-4.64014H111.68139Z"/>
        </g>
        <path class="cls-11" d="M115.48607,82.874H101.08959v-.5332h14.26953a7.06449,7.06449,0,0,0,3.36523-3.17236l.4961.1958a7.45912,7.45912,0,0,1-3.67871,3.48193Z"/>
        <path class="cls-11" d="M123.21264,77.72363H108.81615v-.5332h14.26953a7.06421,7.06421,0,0,0,3.36524-3.17285l.49609.1958a7.45882,7.45882,0,0,1-3.67871,3.48242Z"/>
        <path class="cls-11" d="M131.07787,72.9209H107.697v-.5332h23.25391a7.064,7.064,0,0,0,3.36523-3.17286l.4961.1958a7.45885,7.45885,0,0,1-3.67872,3.48243Z"/>
        <path class="cls-3" d="M87.58674,83.86048l-.20881,2.43614a29.17789,29.17789,0,0,0,24.63986-16.63538l-12.04151-.41763L86.33387,78.64017Z"/>
        <g>
          <path class="cls-2" d="M90.09249,78.01373l-1.25287,2.57536.55683,4.66347a10.84154,10.84154,0,0,0,3.48021-1.25287Z"/>
          <path class="cls-1" d="M89.16283,85.55176l-.59766-5.00928,1.53321-3.1499,3.125,6.71972-.2168.12061a11.02569,11.02569,0,0,1-3.57617,1.28418ZM89.114,80.63525l.51367,4.30518A11.134,11.134,0,0,0,92.529,83.88428l-2.44238-5.24951Z"/>
        </g>
        <g>
          <path class="cls-2" d="M93.43349,76.90007l3.48021,5.77714a5.70361,5.70361,0,0,1-4.037,1.32248l-2.78417-5.986A14.29841,14.29841,0,0,0,93.43349,76.90007Z"/>
          <path class="cls-1" d="M93.40892,84.29932a4.5639,4.5639,0,0,1-.56542-.03516l-.14649-.01807-2.99316-6.43554.34277-.05957a14.16764,14.16764,0,0,0,3.27148-1.0918l.21875-.105L97.25658,82.73l-.166.147A6.10728,6.10728,0,0,1,93.40892,84.29932ZM93.05541,83.75a5.38092,5.38092,0,0,0,3.50976-1.13525l-3.23632-5.3711a14.91407,14.91407,0,0,1-2.85254.96338Z"/>
        </g>
        <g>
          <path class="cls-2" d="M96.35686,75.36878l4.73308,5.35951a5.08683,5.08683,0,0,1-4.17624,1.94892l-3.48021-5.77714A13.13525,13.13525,0,0,0,96.35686,75.36878Z"/>
          <path class="cls-1" d="M97.05639,82.9458c-.04981,0-.09864-.00049-.14942-.002l-.14648-.00342-3.72071-6.17676.29883-.11328A12.97227,12.97227,0,0,0,96.18529,75.165l.19922-.169,5.043,5.71241-.11816.17138A5.308,5.308,0,0,1,97.05639,82.9458ZM93.824,77.03174l3.24121,5.38037a4.8942,4.8942,0,0,0,3.67676-1.67481l-4.418-5.00341A13.20075,13.20075,0,0,1,93.824,77.03174Z"/>
        </g>
        <g>
          <path class="cls-2" d="M99.21063,72.79342l5.35952,5.0811a10.36538,10.36538,0,0,1-3.48021,2.85377l-4.73308-5.35951A21.38516,21.38516,0,0,0,99.21063,72.79342Z"/>
          <path class="cls-1" d="M101.02318,81.05664l-5.05664-5.72705.22949-.17334a21.28,21.28,0,0,0,2.80664-2.5293l.18067-.227,5.74023,5.44239-.13769.18945a10.541,10.541,0,0,1-3.58008,2.937Zm-4.27734-5.65088L101.154,80.398a10.26139,10.26139,0,0,0,3.05567-2.49756l-4.97754-4.71924A21.82886,21.82886,0,0,1,96.74584,75.40576Z"/>
        </g>
        <g>
          <path class="cls-2" d="M101.29876,69.38282l6.61239,5.56833a10.57893,10.57893,0,0,1-3.341,2.92337l-5.35952-5.0811A13.82866,13.82866,0,0,0,101.29876,69.38282Z"/>
          <path class="cls-1" d="M104.51732,78.19238l-5.67773-5.3833.17187-.19336a13.67607,13.67607,0,0,0,2.042-3.33886l.14257-.32911,7.07715,5.96-.14746.20118a10.71334,10.71334,0,0,1-3.44336,3.00781ZM99.57689,72.773l5.043,4.78076a10.23191,10.23191,0,0,0,2.92285-2.56348l-6.1455-5.17529A14.42,14.42,0,0,1,99.57689,72.773Z"/>
        </g>
        <g>
          <path class="cls-2" d="M111.60017,69.80045a24.78416,24.78416,0,0,1-3.89784,4.59387l-6.40357-5.0115Z"/>
          <path class="cls-1" d="M107.71068,74.74023l-7.22851-5.65771,11.59375.47021-.251.39161a24.77287,24.77287,0,0,1-3.94824,4.65136Zm-5.5957-5.05712,5.57617,4.36425a24.328,24.328,0,0,0,3.4209-4Z"/>
        </g>
        <g>
          <path class="cls-2" d="M100.88113,69.38282H140.4108a13.66617,13.66617,0,0,0,7.09961-6.682H94.89517a5.53165,5.53165,0,0,0-5.38569,4.26936l-.04343.1853-.2088,11.27587a16.10029,16.10029,0,0,0,7.726-3.75862A15.9335,15.9335,0,0,0,100.88113,69.38282Z"/>
          <path class="cls-1" d="M88.71166,79.0752l.27832-12.228A6.04121,6.04121,0,0,1,94.89525,62.167h53.49121l-.40136.77832a14.09545,14.09545,0,0,1-7.40918,6.94483l-.165.02636H101.22045a16.333,16.333,0,0,1-3.88281,5.15528,16.59123,16.59123,0,0,1-7.98243,3.88379Zm1.28613-11.85254L89.80346,77.773a15.47273,15.47273,0,0,0,6.82519-3.499,15.29647,15.29647,0,0,0,3.76758-5.1128l.14258-.312H140.3181a13.25059,13.25059,0,0,0,6.28711-5.61474h-51.71A4.97816,4.97816,0,0,0,90.029,67.0918Z"/>
        </g>
        <polygon class="cls-11" points="100.362 70.67 99.87 70.462 101.26 67.172 123.648 66.544 125.108 64.807 125.224 64.801 146.871 63.757 146.896 64.29 125.366 65.328 123.902 67.071 101.617 67.696 100.362 70.67"/>
      </g>
      <g>
        <g>
          <path class="cls-3" d="M60.95157,95.18275s-.13284-.00923-.37754-.03687c-2.20973-.24966-13.54161-2.0015-18.55478-12.02784H63.64293"/>
          <g>
            <path class="cls-2" d="M60.766,84.2317l-4.17625,9.09494a11.47155,11.47155,0,0,0,3.99064.37122l1.6705-8.90933Z"/>
            <path class="cls-1" d="M59.65014,94.00293a11.35234,11.35234,0,0,1-3.14063-.42188l-.28906-.09082L60.62767,83.895l1.92676.72266-1.749,9.3291-.20215.01709C60.27416,93.99121,59.95482,94.00293,59.65014,94.00293Zm-2.68653-.85205a11.65664,11.65664,0,0,0,3.39258.2959L61.947,84.95947l-1.042-.39062Z"/>
          </g>
          <g>
            <path class="cls-2" d="M57.56417,83.44285l-5.56833,7.98128a6.8534,6.8534,0,0,0,4.73308,1.11366l4.22265-8.77012Z"/>
            <path class="cls-1" d="M55.824,92.86475a7.01812,7.01812,0,0,1-3.99023-1.228l-.20313-.15527,5.80372-8.31885,3.92382.376L56.907,92.7832l-.14258.01905A7.18313,7.18313,0,0,1,55.824,92.86475Zm-3.45312-1.51123a6.75168,6.75168,0,0,0,4.18164.937l3.99316-8.294-2.85156-.27344Z"/>
          </g>
          <g>
            <path class="cls-2" d="M53.38792,82.5612l-5.56833,6.35718a6.644,6.644,0,0,0,4.36186,1.85611l5.38272-7.33164Z"/>
            <path class="cls-1" d="M52.31029,91.05029l-.14648-.00976a6.85625,6.85625,0,0,1-4.543-1.94483l-.15625-.17578,5.82519-6.65234,4.73438.99951Zm-4.123-2.146a6.62815,6.62815,0,0,0,3.86621,1.59326l5.05078-6.87891-3.61914-.76416Z"/>
          </g>
          <g>
            <path class="cls-2" d="M43.55054,84.32451s.88165,2.22733,4.73308,3.71222l4.22265-4.68668Z"/>
            <path class="cls-1" d="M48.35912,88.35156l-.1709-.06592c-3.916-1.50976-4.84765-3.76757-4.88574-3.86279l-.12891-.32568,9.999-1.08789Zm-4.38672-3.8042a8.52072,8.52072,0,0,0,4.23731,3.17334l3.63086-4.02978Z"/>
          </g>
        </g>
        <g>
          <path class="cls-2" d="M58.0978,84.2085H33.1154s-2.71456-.4506-5.42912-5.70754h26.7225Z"/>
          <path class="cls-1" d="M59.07787,84.74219H33.115c-.209-.02735-3.09766-.56446-5.90332-5.99658l-.40137-.77832H54.699ZM28.58275,79.03467c2.37012,4.16211,4.59668,4.64355,4.62012,4.64746l23.91406-.00684-2.998-4.64062Z"/>
        </g>
        <g>
          <path class="cls-2" d="M50.16293,79.26661H25.18053s-2.71456-.4506-5.42912-5.70754h26.7225Z"/>
          <path class="cls-1" d="M51.1433,79.80029H25.18041c-.209-.02734-3.09863-.56445-5.90332-5.99658l-.40137-.77832H46.76439ZM20.64818,74.09277c2.374,4.1709,4.60254,4.644,4.626,4.64844l23.9082-.00781-2.998-4.64063Z"/>
        </g>
        <g>
          <path class="cls-2" d="M42.29767,74.39432H17.31526s-2.71456-.4506-5.42912-5.70754H38.60865Z"/>
          <path class="cls-1" d="M43.27807,74.92822H17.31517c-.209-.02734-3.09863-.56445-5.90332-5.99658l-.40136-.77832H38.89916ZM12.783,69.2207c2.374,4.1709,4.60254,4.64405,4.626,4.64844l23.90821-.00781-2.998-4.64063Z"/>
        </g>
        <path class="cls-11" d="M48.9099,82.874l-14.45215-.02783A7.45912,7.45912,0,0,1,30.779,79.36426l.4961-.1958a7.06449,7.06449,0,0,0,3.36523,3.17236H48.9099Z"/>
        <path class="cls-11" d="M41.18432,77.72363,26.73217,77.6958a7.4587,7.4587,0,0,1-3.67871-3.48242l.49609-.1958a7.06415,7.06415,0,0,0,3.36523,3.17285H41.18432Z"/>
        <path class="cls-11" d="M42.30346,72.9209l-23.43653-.02783a7.45886,7.45886,0,0,1-3.67871-3.48243l.4961-.1958a7.064,7.064,0,0,0,3.36523,3.17286H42.30346Z"/>
        <path class="cls-3" d="M62.41326,83.86048l.20881,2.43614A29.17789,29.17789,0,0,1,37.98221,69.66124l12.04151-.41763,13.64241,9.39656Z"/>
        <g>
          <path class="cls-2" d="M59.90751,78.01373l1.25287,2.57536-.55683,4.66347a10.84154,10.84154,0,0,1-3.48021-1.25287Z"/>
          <path class="cls-1" d="M60.83666,85.55176l-.26758-.03467a11.02462,11.02462,0,0,1-3.57519-1.28418l-.2168-.12061,3.126-6.71972,1.53125,3.1499Zm-3.36524-1.66748a11.15664,11.15664,0,0,0,2.9004,1.05615l.51367-4.30518-.97266-2.00048Z"/>
        </g>
        <g>
          <path class="cls-2" d="M56.56651,76.90007,53.0863,82.67721a5.70361,5.70361,0,0,0,4.037,1.32248l2.78417-5.986A14.29841,14.29841,0,0,1,56.56651,76.90007Z"/>
          <path class="cls-1" d="M56.59154,84.29932a6.10724,6.10724,0,0,1-3.68164-1.42237l-.166-.147,3.71875-6.17578.21875.105a14.14551,14.14551,0,0,0,3.27246,1.0918l.34277.05957-2.99316,6.43554-.14649.01807A4.56406,4.56406,0,0,1,56.59154,84.29932Zm-3.15527-1.68506A5.42712,5.42712,0,0,0,56.94506,83.75l2.5791-5.543a14.91748,14.91748,0,0,1-2.85352-.96338Z"/>
        </g>
        <g>
          <path class="cls-2" d="M53.64314,75.36878l-4.73308,5.35951a5.08683,5.08683,0,0,0,4.17624,1.94892l3.48021-5.77714A13.13525,13.13525,0,0,1,53.64314,75.36878Z"/>
          <path class="cls-1" d="M52.94408,82.9458a5.30882,5.30882,0,0,1-4.25391-2.06592L48.572,80.7085l5.044-5.71241.20019.169a12.92925,12.92925,0,0,0,2.84473,1.48535l.29883.11328L53.24,82.94043l-.14648.00342C53.04369,82.94531,52.99389,82.9458,52.94408,82.9458Zm-3.68652-2.2085a4.89889,4.89889,0,0,0,3.67773,1.67481l3.24024-5.38037a13.19641,13.19641,0,0,1-2.499-1.29785Z"/>
        </g>
        <g>
          <path class="cls-2" d="M50.78937,72.79342l-5.35952,5.0811a10.36538,10.36538,0,0,0,3.48021,2.85377l4.73308-5.35951A21.38516,21.38516,0,0,1,50.78937,72.79342Z"/>
          <path class="cls-1" d="M48.97631,81.05713l-.18262-.08838a10.56041,10.56041,0,0,1-3.58008-2.93652l-.13769-.18994,5.74121-5.4419.18066.22656a21.28129,21.28129,0,0,0,2.80664,2.5293l.22949.17334Zm-3.18653-3.15674A10.31811,10.31811,0,0,0,48.84545,80.398l4.40918-4.99219a21.82886,21.82886,0,0,1-2.48633-2.22461Z"/>
        </g>
        <g>
          <path class="cls-2" d="M48.70124,69.38282l-6.61239,5.56833a10.57893,10.57893,0,0,0,3.341,2.92337l5.35952-5.0811A13.82866,13.82866,0,0,1,48.70124,69.38282Z"/>
          <path class="cls-1" d="M45.48217,78.19238l-.165-.07568a10.71346,10.71346,0,0,1-3.44336-3.00781l-.14746-.20118,7.07715-5.96.14257.32911a13.69529,13.69529,0,0,0,2.043,3.33886l.17188.19287Zm-3.02539-3.20215a10.23191,10.23191,0,0,0,2.92285,2.56348L50.42357,72.773a14.45539,14.45539,0,0,1-1.82129-2.958Z"/>
        </g>
        <g>
          <path class="cls-2" d="M38.39983,69.80045a24.78416,24.78416,0,0,0,3.89784,4.59387l6.40357-5.0115Z"/>
          <path class="cls-1" d="M42.28881,74.74023l-.166-.14453a24.79109,24.79109,0,0,1-3.94726-4.65136l-.251-.39161,11.59277-.47021Zm-3.40039-4.69287a24.361,24.361,0,0,0,3.41992,4l5.57617-4.36425Z"/>
        </g>
        <g>
          <path class="cls-2" d="M49.11887,69.38282H9.5892a13.66617,13.66617,0,0,1-7.09961-6.682H55.10483a5.53165,5.53165,0,0,1,5.38569,4.26936l.04343.1853.2088,11.27587a16.10029,16.10029,0,0,1-7.726-3.75862A15.9335,15.9335,0,0,1,49.11887,69.38282Z"/>
          <path class="cls-1" d="M61.28881,79.0752l-.64356-.11963a16.58926,16.58926,0,0,1-7.9834-3.88379A16.32111,16.32111,0,0,1,48.78,69.9165H9.50463l-.08008-.02636a14.092,14.092,0,0,1-7.40918-6.94483L1.614,62.167H55.10521a6.04268,6.04268,0,0,1,5.90528,4.68115l.05664.29737ZM9.68236,68.84912h39.7793l.14258.312a15.28464,15.28464,0,0,0,3.7666,5.1128A15.47035,15.47035,0,0,0,60.197,77.773l-.22559-10.68213a4.97994,4.97994,0,0,0-4.86621-3.85644h-51.71A13.24933,13.24933,0,0,0,9.68236,68.84912Z"/>
        </g>
        <polygon class="cls-11" points="49.638 70.67 48.384 67.696 26.097 67.071 24.634 65.328 3.103 64.29 3.129 63.757 24.891 64.807 26.351 66.544 48.741 67.172 50.131 70.462 49.638 70.67"/>
      </g>
      <polygon class="cls-3" points="90.487 100.519 79.721 100.519 79.721 79.359 89.095 79.359 90.487 100.519"/>
      <polygon class="cls-12" points="89.605 99.359 78.84 99.359 78.84 78.199 88.213 78.199 89.605 99.359"/>
      <path class="cls-11" d="M88.73021,98.46533H77.41283V76.77246h9.89063ZM77.946,97.93213H88.1599L86.80346,77.30566H77.946Z"/>
      <polygon class="cls-3" points="85.615 108.825 74.849 108.825 74.849 87.666 84.223 87.666 85.615 108.825"/>
      <polygon class="cls-12" points="84.733 107.665 73.968 107.665 73.968 86.505 83.341 86.505 84.733 107.665"/>
      <path class="cls-11" d="M83.85814,106.77148H72.54076V85.07861h9.88965Zm-10.78418-.5332H83.28783L81.93041,85.61182H73.074Z"/>
      <polygon class="cls-3" points="59.428 100.519 70.193 100.519 70.193 79.359 60.82 79.359 59.428 100.519"/>
      <polygon class="cls-12" points="60.31 99.359 71.075 99.359 71.075 78.199 61.702 78.199 60.31 99.359"/>
      <path class="cls-11" d="M72.5017,98.46533H61.18432l1.42773-21.69287H72.5017Zm-10.74707-.5332H71.9685V77.30566H63.11205Z"/>
      <polygon class="cls-3" points="64.3 108.825 75.066 108.825 75.066 87.666 65.692 87.666 64.3 108.825"/>
      <polygon class="cls-12" points="65.182 107.665 75.947 107.665 75.947 86.505 66.574 86.505 65.182 107.665"/>
      <path class="cls-11" d="M77.37377,106.77148H66.05639l1.42773-21.69287h9.88965Zm-10.74707-.5332H76.84057V85.61182H67.98412Z"/>
      <rect class="cls-1" x="69.74489" y="99.63741" width="10.76544" height="21.15965"/>
      <rect class="cls-7" x="70.67294" y="101.0967" width="8.90933" height="18.86512"/>
      <path class="cls-11" d="M78.782,119.43945H71.47338v-17.563H78.782Zm-6.77539-.5332h6.24219V102.40967H72.00658Z"/>
      <g>
        <rect class="cls-4" x="73.2715" y="110.26364" width="3.71222" height="6.91401"/>
        <path class="cls-11" d="M77.42846,117.62256H72.82689v-7.80371h4.60157Zm-3.71289-.88965h2.82421V110.7085H73.71557Z"/>
      </g>
      <g>
        <path class="cls-3" d="M91.8326,73.93029c0,1.39208-16.33377,38.8855-16.8442,38.8855-.32482,0-16.8442-37.77183-16.8442-38.8855,0-7.99579,7.54141-15.12729,16.8442-15.12729S91.8326,65.9345,91.8326,73.93029Z"/>
        <path class="cls-1" d="M74.988,112.91309c-.09668,0-.17969,0-2.85743-5.97657-1.57617-3.51709-3.68066-8.29443-5.77539-13.10693-1.38769-3.188-8.30859-19.12891-8.30859-19.89941,0-8.25245,7.75879-15.22413,16.94141-15.22413,9.18359,0,16.94238,6.97168,16.94238,15.22413,0,.76562-4.43848,11.25439-8.23926,20.0039-2.14551,4.93848-4.19336,9.57031-5.7666,13.042C75.23314,112.91309,75.09154,112.91309,74.988,112.91309Zm0-54.0127c-9.07715,0-16.7461,6.88281-16.7461,15.02979,0,.45507,3.28614,8.31543,8.17774,19.55957,4.30566,9.89795,8.043,18.248,8.57715,19.17431.57617-.86181,4.20019-8.86621,8.63281-19.07812,4.77246-10.99317,8.10547-19.07569,8.10547-19.65576C91.7351,65.7832,84.06615,58.90039,74.988,58.90039Z"/>
      </g>
      <g>
        <path class="cls-2" d="M90.99735,74.14812c0,1.323-15.52383,36.95729-16.00895,36.95729-.30871,0-16.00895-35.89885-16.00895-36.95729,0-7.59931,7.16745-14.37718,16.009-14.37718S90.99735,66.54881,90.99735,74.14812Z"/>
        <path class="cls-1" d="M74.988,111.19775c-.0918,0-.1709,0-2.71582-5.68017-1.49805-3.34229-3.49805-7.88281-5.48926-12.457-1.31836-3.02979-7.89649-18.18018-7.89649-18.9126,0-7.84326,7.374-14.46924,16.10157-14.46924,8.72851,0,16.10254,6.626,16.10254,14.46924,0,.72754-4.21875,10.69629-7.83106,19.01172-2.03906,4.69385-3.98535,9.0957-5.48144,12.39551C75.22045,111.19775,75.08666,111.19775,74.988,111.19775Zm-.043-.17138Zm.043-51.16309c-8.62793,0-15.916,6.54151-15.916,14.28467,0,.43262,3.123,7.90283,7.77246,18.58935,4.09278,9.40772,7.64453,17.34473,8.15235,18.22364.54687-.81885,3.99121-8.42627,8.20507-18.13184C87.73705,82.38135,90.905,74.69922,90.905,74.148,90.905,66.40479,83.616,59.86328,74.988,59.86328Z"/>
      </g>
      <g>
        <polygon class="cls-1" points="74.89 110.646 61.944 72.99 62.28 72.875 74.17 107.457 66.392 72.972 66.74 72.894 75.232 110.549 74.89 110.646"/>
        <polygon class="cls-1" points="74.882 110.609 70.566 73.231 70.92 73.19 74.891 107.593 75.019 73.21 75.375 73.211 75.236 110.589 74.882 110.609"/>
        <polygon class="cls-1" points="75.231 110.629 74.882 110.568 79.057 73.609 79.411 73.649 75.569 107.657 83.655 73.448 84.001 73.53 75.231 110.629"/>
        <rect class="cls-1" x="61.85723" y="91.93107" width="39.07019" height="0.35515" transform="translate(-32.14199 139.21143) rotate(-71.06684)"/>
      </g>
      <g>
        <path class="cls-1" d="M62.28978,71.82617l-.35546-.01465A14.48324,14.48324,0,0,1,70.95385,59.752l.13476.3291A14.10813,14.10813,0,0,0,62.28978,71.82617Z"/>
        <path class="cls-1" d="M66.38842,71.68359c-.002-.09668-.12012-9.69677,7.77441-12.49121l.11914.335c-7.65527,2.71-7.54,12.0542-7.53808,12.14844Z"/>
        <path class="cls-1" d="M70.49486,71.8252c-.01465-.39307-.30078-9.66749,4.11133-12.81885l.207.28906c-4.25586,3.04053-3.96582,12.42236-3.96289,12.51709Z"/>
        <path class="cls-1" d="M88.17455,71.82617a14.12537,14.12537,0,0,0-8.79883-11.74512l.13477-.3291A14.48326,14.48326,0,0,1,88.53,71.81152Z"/>
        <path class="cls-1" d="M84.07592,71.68359l-.35547-.00781c.00195-.09424.11133-9.43994-7.53906-12.14844l.11914-.335C84.19506,61.98682,84.07787,71.58691,84.07592,71.68359Z"/>
        <path class="cls-1" d="M79.9685,71.8252l-.35547-.0127c.00293-.09473.29394-9.47656-3.96289-12.51709l.207-.28906C80.27025,62.15771,79.98314,71.43213,79.9685,71.8252Z"/>
        <rect class="cls-1" x="74.94994" y="59.771" width="0.35547" height="12.04785"/>
      </g>
      <path class="cls-3" d="M58.63143,75.29917s1.02436-2.43614,3.89258-.48723c0,0,2.32189-1.94891,4.50719-.0696,0,0,1.36582-1.7401,3.96087-.13921a2.94284,2.94284,0,0,1,3.82429-.0696h.20487a2.94284,2.94284,0,0,1,3.82429.0696c2.59505-1.60089,3.96087.13921,3.96087.13921,2.1853-1.87931,4.50719.0696,4.50719.0696,2.86822-1.94891,3.89258.48723,3.89258.48723v-1.7401s-1.02436-2.43615-3.89258-.48723c0,0-2.32189-1.94892-4.50719-.0696,0,0-1.36582-1.74011-3.96087-.13921a2.94285,2.94285,0,0,0-3.82429-.06961h-.20487a2.94285,2.94285,0,0,0-3.82429.06961c-2.59505-1.6009-3.96087.13921-3.96087.13921-2.1853-1.87932-4.50719.0696-4.50719.0696-2.86822-1.94892-3.89258.48723-3.89258.48723Z"/>
      <g class="cls-13">
        <path class="cls-3" d="M96.70488,84.2781h6.40358a20.4535,20.4535,0,0,0,8.49171-14.47765S108.53758,78.29215,96.70488,84.2781Z"/>
        <path class="cls-1" d="M103.13549,84.37549H96.29662l.36426-.18408c11.6582-5.898,14.81738-14.33936,14.84765-14.42432l.28125-.77734-.09277.82129a20.72423,20.72423,0,0,1-8.53711,14.5498Zm-6.02735-.19434h5.97168a20.54331,20.54331,0,0,0,8.33594-13.71045C110.4431,72.53857,106.70482,79.209,97.10814,84.18115Z"/>
      </g>
      <g class="cls-13">
        <path class="cls-3" d="M53.13271,84.2781H46.72913a20.45347,20.45347,0,0,1-8.4917-14.47765S41.3,78.29215,53.13271,84.2781Z"/>
        <path class="cls-1" d="M53.54076,84.37549H46.70189l-.02441-.01465A20.72427,20.72427,0,0,1,38.14037,69.811l-.09277-.82129.28125.77734c.03027.085,3.18945,8.52637,14.84765,14.42432Zm-6.7832-.19434h5.97168C43.13256,79.209,39.39428,72.53857,38.42162,70.4707A20.52621,20.52621,0,0,0,46.75756,84.18115Z"/>
      </g>
      <g class="cls-13">
        <polygon class="cls-3" points="85.429 89.29 89.605 91.517 89.048 81.355 85.429 89.29"/>
        <path class="cls-1" d="M89.71166,91.68408l-4.4082-2.35156.03711-.0835,3.7832-8.29443Zm-4.15625-2.4375,3.94336,2.10352-.52539-9.59571Z"/>
      </g>
      <g class="cls-13">
        <path class="cls-3" d="M89.32685,89.42881s4.87229-.13921,9.46616-5.0115H95.452L89.32685,85.9486Z"/>
        <path class="cls-1" d="M89.22924,89.52881V85.87256l.07422-.01807,6.125-1.53125,3.58984-.00293-.15527.16407c-4.56836,4.84521-9.48438,5.04-9.53321,5.0415Zm.19531-3.50391v3.3003a15.03165,15.03165,0,0,0,9.14062-4.81055H95.45189Z"/>
      </g>
      <g class="cls-13">
        <path class="cls-3" d="M60.37153,89.42881s-4.87228-.13921-9.46615-5.0115h3.341l6.12516,1.53129Z"/>
        <path class="cls-1" d="M60.46947,89.52881l-.10058-.00293c-.04883-.00147-4.96582-.19629-9.53418-5.0415l-.15528-.16407h3.56739l6.22265,1.55225Zm-9.33691-5.01416a15.03384,15.03384,0,0,0,9.1416,4.81055V86.0249l-6.05078-1.51318Z"/>
      </g>
      <g class="cls-14">
        <path class="cls-3" d="M74.64038,59.151s9.60537,0,11.48468,14.13072l2.92337.695S88.422,60.30927,74.64038,59.151Z"/>
        <path class="cls-1" d="M89.157,74.10791l-3.125-.74268-.00879-.06982c-.96484-7.25439-4.00879-10.68506-6.3916-12.28613a10.60237,10.60237,0,0,0-4.0957-1.65967c-.29492-.03857-.59571-.0708-.9043-.09668l.00879-.20459a6.33261,6.33261,0,0,1,.91113.09668A14.55357,14.55357,0,0,1,87.10326,66.9502a18.729,18.729,0,0,1,2.04785,7.02148Zm-2.94043-.90967,2.71973.64649a18.67737,18.67737,0,0,0-2.01758-6.80567,14.144,14.144,0,0,0-9.15234-7.25683A11.07857,11.07857,0,0,1,79.7351,60.832C82.15014,62.4502,85.23119,65.90869,86.21654,73.19824Z"/>
      </g>
      <g class="cls-14">
        <path class="cls-3" d="M79.86069,73.05009A17.99684,17.99684,0,0,0,75.47563,59.151s8.14368,2.08486,8.5613,14.82567A4.97954,4.97954,0,0,0,79.86069,73.05009Z"/>
        <path class="cls-1" d="M84.14721,74.22217l-.18067-.17139a4.94909,4.94909,0,0,0-4.08789-.89941l-.1416.02392.02246-.1416a18.03151,18.03151,0,0,0-4.36035-13.814l-.22754-.25244.3291.08447c.082.021,8.22266,2.25049,8.63867,14.92138Zm-3.18848-1.37012a4.94808,4.94808,0,0,1,2.96777.90137c-.4375-10.79834-6.56738-13.7959-8.12109-14.3833a18.2986,18.2986,0,0,1,4.17578,13.55713A6.55683,6.55683,0,0,1,80.95873,72.85205Z"/>
      </g>
      <g class="cls-15">
        <polygon class="cls-3" points="83.478 73.783 75.021 111.105 91.833 73.93 83.478 73.783"/>
        <path class="cls-1" d="M74.698,112.06982l8.69922-38.39111,8.59277.15186-.06348.1416Zm8.86133-38.1831-8.21485,36.25439L91.67553,74.02979Z"/>
      </g>
      <g class="cls-16">
        <polygon class="cls-3" points="75.947 107.665 83.828 73.489 87.726 73.629 75.947 107.665"/>
        <path class="cls-1" d="M76.04369,107.69873l-.19629-.05664,7.89942-34.2583,4.12207.14746-.0459.13135Zm7.86523-34.104-7.43066,32.2207L87.58373,73.72656Z"/>
      </g>
      <g class="cls-17">
        <path class="cls-3" d="M62.524,74.81194l12.49722,36.29347L58.97945,74.14812A2.09321,2.09321,0,0,1,62.524,74.81194Z"/>
        <path class="cls-1" d="M74.92748,111.14648l-16.07031-37.022.0498-.04931a2.64516,2.64516,0,0,1,2.00293-.75293,2.44425,2.44425,0,0,1,1.7041,1.44091l.00684.01563,12.49707,36.29346ZM59.10228,74.17432,74.0681,108.65283,62.43041,74.85352A2.25379,2.25379,0,0,0,60.8806,73.5249,2.41481,2.41481,0,0,0,59.10228,74.17432Z"/>
      </g>
    </g>
  </g>
</svg>
