<svg id="usa_normandy_pilot_fighter_1" xmlns="http://www.w3.org/2000/svg" width="150" height="150" viewBox="0 0 150 150">
  <defs>
    <style>
      .cls-1 {
        fill: #f2b83b;
      }

      .cls-1, .cls-10, .cls-2, .cls-3, .cls-4, .cls-5, .cls-6, .cls-7, .cls-8, .cls-9 {
        fill-rule: evenodd;
      }

      .cls-2 {
        fill: #151515;
      }

      .cls-3 {
        fill: #be9971;
      }

      .cls-4 {
        fill: #ac8254;
      }

      .cls-5 {
        fill: #8c5e28;
      }

      .cls-6 {
        fill: #c17f33;
      }

      .cls-7 {
        fill: #dbba93;
      }

      .cls-8 {
        fill: #fff;
      }

      .cls-9 {
        fill: #2d2621;
      }

      .cls-10 {
        fill: #ffe326;
      }
    </style>
  </defs>
  <path id="Shape_101_copy" data-name="Shape 101 copy" class="cls-1" d="M141.484,107.029a76.888,76.888,0,0,1-132.973-.422l14.523-8.374A61.2,61.2,0,1,1,127,98.554Z"/>
  <path id="Shape_101_copy_3" data-name="Shape 101 copy 3" class="cls-2" d="M115.575,130c-0.994.237-2,.434-2.92,0.57a1.129,1.129,0,0,0-.277.057,3.429,3.429,0,0,1-1.632.413c-1.329,0-2.806-.766-3.955-2.681-1.515-2.525-1.232-5.093.689-6.246a3.293,3.293,0,0,1,3.051-.183,5.748,5.748,0,0,1,2.581,2.424,5.254,5.254,0,0,1,.8,4.212c0.423-.12.827-0.246,1.159-0.362l0.453-.156,0.495,1.845Zm-4.044-4.637a4.551,4.551,0,0,0-1.56-1.613,1.859,1.859,0,0,0-.906-0.268,1.312,1.312,0,0,0-.686.193,1.423,1.423,0,0,0-.665.909,3.951,3.951,0,0,0,.679,2.78,3.744,3.744,0,0,0,2.069,1.8,1.376,1.376,0,0,0,1.079-.141C112.653,128.358,112.337,126.7,111.531,125.361Zm-7.184,2.919a3.026,3.026,0,0,1,3.163,1.753,2.8,2.8,0,0,1-1.412,3.929,4.051,4.051,0,0,1-1.666.382,2.373,2.373,0,0,1-.525-0.054l-0.279-.065-0.38-1.879,0.652,0.125a2.443,2.443,0,0,0,1.472-.175,0.953,0.953,0,0,0,.514-1.388c-0.23-.483-0.532-0.732-1.558-0.711a3.009,3.009,0,0,1-3.183-1.643,2.7,2.7,0,0,1,1.3-3.72,3.251,3.251,0,0,1,1.88-.344l0.317,0.048,0.32,1.848-0.6-.081a2.054,2.054,0,0,0-1.16.18,0.824,0.824,0,0,0-.457,1.162C102.957,128.1,103.245,128.295,104.347,128.28Zm-2.716,6.866,0.472,0.5-1.821.637-0.2-.2a11.774,11.774,0,0,1-1.207-1.885c-0.595-1.055-.941-1.044-1.4-0.906l-0.388.136,1.235,3.537-1.719.6-3.074-8.807,0.292-.191a8.572,8.572,0,0,1,1.723-.806,3.021,3.021,0,0,1,2.558.006,3.06,3.06,0,0,1,1.071,4.085,3.287,3.287,0,0,1,1.214,1.315A17.141,17.141,0,0,0,101.631,135.146Zm-3.92-5.044a1.047,1.047,0,0,0-1.536-.7,4.376,4.376,0,0,0-.434.177l0.773,2.214,0.478-.167A1.093,1.093,0,0,0,97.711,130.1Zm-7.044,1.075,0.456,1.785,2.715-.692,0.449,1.758-2.715.693,0.551,2.159,3.025-.773,0.452,1.771L90.81,139.1l-2.361-9.245,4.635-1.182,0.452,1.771Zm-3.308,8.573-1.809.288-1.207-7.6-2.165.344-0.288-1.817,6.149-.978,0.289,1.817-2.175.346Zm-7.172.872-0.211-4.05-2.592.136,0.21,4.049-1.819.1-0.5-9.528,1.819-.095,0.188,3.614,2.592-.135L79.691,131.1l1.83-.1,0.5,9.528Zm-6.053-7.286a2.736,2.736,0,0,0-1.366-.387c-1.536-.073-2.506,1.011-2.6,2.908a3.6,3.6,0,0,0,.548,2.316,2.075,2.075,0,0,0,1.634.838,3.194,3.194,0,0,0,.8-0.045l0.091-1.832-1.463-.072,0.088-1.787,3.261,0.16-0.241,4.89-0.275.1a6.251,6.251,0,0,1-2.148.4c-0.087,0-.175,0-0.264-0.006a3.787,3.787,0,0,1-2.963-1.441,5.437,5.437,0,0,1-.941-3.564c0.157-2.934,2-4.821,4.585-4.692a4.246,4.246,0,0,1,1.995.556l0.281,0.181-0.529,1.769Zm-8.826,6.789,1.178-9.467,1.807,0.225-1.178,9.467Zm-2.9-8.31-0.378,1.947,2.677,0.52-0.346,1.782-2.677-.52-0.746,3.842-1.788-.347,1.819-9.366,4.685,0.91-0.349,1.795Zm-6.814-1.74-2.427,7.306-1.739-.578,2.427-7.306-2.081-.691,0.365-1.1-1.065,1.312-0.335-.505a2.056,2.056,0,0,0-.9-0.755,0.824,0.824,0,0,0-1.175.42c-0.2.455-.159,0.8,0.579,1.625a3.038,3.038,0,0,1,.761,3.533,2.818,2.818,0,0,1-2.567,1.814,3.341,3.341,0,0,1-1.323-.293,3.7,3.7,0,0,1-1.688-1.433l-0.135-.253,1.165-1.523,0.335,0.574a2.455,2.455,0,0,0,1.1.993,0.952,0.952,0,0,0,1.384-.525c0.212-.492.195-0.881-0.489-1.642a3.005,3.005,0,0,1-.856-3.477,2.7,2.7,0,0,1,3.657-1.468h0a3.25,3.25,0,0,1,1.5,1.188l0.127,0.2,0.145-.435,5.911,1.964-0.58,1.747Zm-14.765,2.076,3.223-6.135-1.289.118,0.5-1.765,2.234-.195,1.22,0.641-4.295,8.173ZM41.725,124a2.412,2.412,0,0,0-.523-0.279,2.362,2.362,0,0,0-2.1.191A2.366,2.366,0,0,1,41.018,126a3.565,3.565,0,0,1-.622,2.252,3.48,3.48,0,0,1-2.828,1.76,2.417,2.417,0,0,1-1.312-.381,2.57,2.57,0,0,1-1.2-2.129,4.978,4.978,0,0,1,.89-2.8,6.305,6.305,0,0,1,3.249-2.728,3.991,3.991,0,0,1,2.856.17,4.155,4.155,0,0,1,.669.343l0.376,0.239-0.989,1.557Zm-3.406,1.436a1.36,1.36,0,0,0-.756.253,0.7,0.7,0,0,0-.235.236c-0.489.8-.781,1.8-0.126,2.22,0.533,0.338,1.19-.172,1.6-0.825a1.876,1.876,0,0,0,.354-1.118A0.83,0.83,0,0,0,38.319,125.437Z"/>
  <path id="Shape_101_copy_2" data-name="Shape 101 copy 2" class="cls-2" d="M144.532,106.231l-1.126,1.923A79.116,79.116,0,0,1,6.581,107.72l-1.113-1.93,14.526-8.376a63.412,63.412,0,1,1,118.55-31.306,63.005,63.005,0,0,1-8.5,31.649ZM11.583,107.407a74.66,74.66,0,0,0,126.824.4L127.7,101.544a63.371,63.371,0,0,1-105.37-.332ZM75.12,7.139a58.969,58.969,0,1,0,58.969,58.969A59.036,59.036,0,0,0,75.12,7.139Z"/>
  <path class="cls-3" d="M97.222,36.779l-9.157-9.333c10.213-6.163,13.559-11.8,13.559-11.8C109.2,26.566,97.222,36.779,97.222,36.779Zm-56-15.144c4.05,4.578,12.854,9.685,12.854,9.685l-3.874,13.03C34.711,34.49,41.226,21.636,41.226,21.636Z"/>
  <path class="cls-4" d="M101.624,15.649a12.9,12.9,0,0,1,2.286,9.983,19.578,19.578,0,0,0-6.678-4.99A26.368,26.368,0,0,0,101.624,15.649ZM42.34,36.757a16.276,16.276,0,0,1-1.115-15.121,30.456,30.456,0,0,0,3.552,3.308C42.568,28.652,42.278,33.717,42.34,36.757Z"/>
  <path class="cls-5" d="M75.7,19.639a30.677,30.677,0,0,0-5.618.529c-15.143,2.817-20.426,13.383-20.6,19.9s-0.88,19.545-.88,19.545-5.106,7.748-9.685,11.622S32.571,85.32,35.917,90.779s6.339,15.672,5.107,21.659l4.4-1.585s1.585-5.107-.352-9.509-6.515-13.559-4.05-19.37,15.672-6.163,15.672-6.163l43.494,20.074s-1.409,5.459-3.346,7.044-9.156,9.509-6.163,17.432l4.754-.528s-0.528-7.924,4.05-12.678,11.974-10.213,12.326-22.011-11.269-26.589-11.269-26.589L98.428,46.933s1.233-12.326-1.057-16.376C95.379,27.032,87.65,19.639,75.7,19.639"/>
  <path class="cls-6" d="M98.875,40.125l-3.625.75L77,32.25l10-9.375C90,23,95.625,27,97.375,30S98.875,40.125,98.875,40.125ZM54.75,41.25C53.125,40.875,49.5,40,49.5,40a20.612,20.612,0,0,1,1.875-7.375A20.663,20.663,0,0,1,59.75,24l10,8-1.875,2.875S56.375,41.625,54.75,41.25Z"/>
  <path class="cls-7" d="M97.064,101.351a9.217,9.217,0,0,1-4.979,1.871,3.466,3.466,0,0,1-2.945-1.342c-2.74,5.479-6.849,6.366-9.222,6.366a7.747,7.747,0,0,1-1.872-.2,15.828,15.828,0,0,1-10.639,4.272,12.712,12.712,0,0,1-4.5-.75,8.149,8.149,0,0,1-6.151,2.838c-3.068,0-6.419-1.753-8.992-6.008-4.578-7.572-2.641-27.117,3.874-33.985a13.022,13.022,0,0,1,3.517-2.626,41.4,41.4,0,0,1-4.925-6.53C46.879,59.619,51.81,51.7,51.81,51.7c-2.817-2.818-2.465-7.572-2.465-7.572L62.727,39.9c1.443,1.924,6.684,6.477,11.465,6.477a6.849,6.849,0,0,0,1.389-.138c5.107-1.056,10.565-6.515,10.565-6.515s1.262-.124,3-0.124c3.33,0,8.405.456,9.678,3.118,1.937,4.05-5.283,7.748-5.283,7.748,2.641,3.17-1.409,7.22-1.409,7.22s2.465,0.176,3.7,4.226a6.481,6.481,0,0,1-.783,4.927,16.066,16.066,0,0,1,9.059,9.688C106.221,83.919,102.875,97.478,97.064,101.351Z"/>
  <path class="cls-8" d="M100.333,112.6s-6.691-.469-9.978-2.817a7.424,7.424,0,0,1,4.578-6.457s7.748,1.526,9.861,1.761C104.794,105.089,100.92,109.315,100.333,112.6Zm-6.926-3.991,4.931,1.526a21.126,21.126,0,0,1,2.23-3.405l-5.4-1.056A7.449,7.449,0,0,0,93.407,108.611ZM84.485,76.446A4.976,4.976,0,0,0,87.655,71.4s3.287,5.165-.587,8.335A8.681,8.681,0,0,0,84.485,76.446Zm-3.052-1.409a3.775,3.775,0,0,0,.7-2.7,2.861,2.861,0,0,1,1.291,3.4ZM69.812,74.8l1.174,1.761-1.291.7Zm-4.93,1.644a6.53,6.53,0,0,0,1.526,4.7l-1.878,3.874C61.359,80.789,64.881,76.446,64.881,76.446Z"/>
  <path class="cls-9" d="M97.693,102.55a14.208,14.208,0,0,1-2.961,1.543l0.049,0.242-0.475.065a6.691,6.691,0,0,0-.793.16c-0.462.079-.882,0.144-1.3,0.21l-0.481.074-0.117-.048A6.124,6.124,0,0,1,91,104.5l-0.062-.011a4.726,4.726,0,0,1-1.483-.582c-3.711,6.074-9.16,5.89-11.077,5.6-6.543,5.494-12.949,4.279-15.148,3.617a9.154,9.154,0,0,1-6.459,2.664c-0.266,0-.536-0.012-0.8-0.035-3.553-.306-6.807-2.621-9.163-6.517-4.938-8.166-2.646-28.314,4.02-35.341a14.562,14.562,0,0,1,5.767-3.7h0l0.016,0h0l-0.016,0a22.668,22.668,0,0,1-2.9-6.265s-2.817-10.1,1.526-11.622A5.657,5.657,0,0,1,57.1,51.96c2.967,0,4.223,2.959,4.815,4.34,0.622,1.451,4.814,10.958,5.786,13.162v0c0.071,0.012.125,0.023,0.193,0.035,0.951-1.59,2.993-3.281,7.034-3.174A12.094,12.094,0,0,1,80.1,67.357,16.6,16.6,0,0,1,94.558,65.7c5.032,1.791,9.305,6.122,10.636,10.779C107.356,84.042,104.043,98.316,97.693,102.55Zm-20.386,4.912,0.456-.4,0.585,0.16c0.262,0.07,6.2,1.563,9.776-5.551a10.816,10.816,0,0,1-.549-0.968,24.363,24.363,0,0,1-1.927-7.377l-0.007-.048a57.7,57.7,0,0,0-1.47-7.33c-0.724-2.51-1.9-3.95-3.707-4.53-3.814-1.227-8.428.761-10.5,4.526a17.557,17.557,0,0,0-1.76,6.383c-0.122,1.045-.216,2.113-0.306,3.146-0.115,1.306-.233,2.657-0.411,3.986a36.9,36.9,0,0,1-3.277,11.611C66.353,111.64,71.76,112.363,77.307,107.462Zm25.724-30.368A14.925,14.925,0,0,0,93.8,67.817a14.309,14.309,0,0,0-11.952,1.136,5.145,5.145,0,0,1,.469,3.184c-0.27,2.3-2.817,2.21-4.626,2.124a9.325,9.325,0,0,0-1.361-.011c-1.409.176-2.113,0.352-5.459,0.881s-3.7-3.17-3.7-3.17a1.564,1.564,0,0,1-.012-0.29,25.1,25.1,0,0,0-3.739-.288c-3.246,0-7.784.705-10.971,4.065C46.43,81.8,44.27,100.7,48.727,108.075c1.974,3.265,4.613,5.2,7.431,5.439A6.909,6.909,0,0,0,61.117,112c3.139-5.059,4.027-10.968,4.449-15.556,0.04-.44.078-0.885,0.116-1.332,0.363-4.27.738-8.684,3.581-12.125,3.062-3.707,8.457-5.195,12.549-3.459a8,8,0,0,1,4.366,5.287,48.228,48.228,0,0,1,1.6,7.611l0.1,0.633A25.092,25.092,0,0,0,89.263,99a7.745,7.745,0,0,0,2.479,3.341,7.788,7.788,0,0,0,4.7-1.666C102,96.976,104.957,83.837,103.031,77.094ZM100.415,60.41L95.836,62.17s-0.587-3.522-3.052-3.874c0,0,4.109-4.578.117-7.748,0,0,5.4-.939,6.456-6.339l2.818,0.117a13.808,13.808,0,0,1,1.408,8.687A19.032,19.032,0,0,1,100.415,60.41Zm-50.905-.6-1.526,2.583s-3.874-3.052-5.165-6.1-0.47-7.4,1.409-10.33a7.025,7.025,0,0,1,5.283-3.052c-0.469,3.052,2.348,8.335,2.348,8.335A10.528,10.528,0,0,0,49.51,59.81Z"/>
  <path class="cls-10" d="M125.067,73.73l-3.521,9.157L88.207,87.23c0.47-1.878-1.174-7.513-1.174-7.513ZM50.054,94.509L52.52,96.27l-27.587-.235L44.185,91.1,41.6,89.344,64.494,85l-3.4,7.748Z"/>
  <path class="cls-8" d="M108.485,35.75c-0.753,2.044-4.657,9.109-10.631,9.109a7.859,7.859,0,0,1-1.7-.188c-6.926-1.526-19.487-9.156-19.487-9.156a5.993,5.993,0,0,1-2.871.7,8.112,8.112,0,0,1-3.468-.819S54.8,44.516,48.457,44.516a4.191,4.191,0,0,1-1.368-.2c-5.048-1.761-5.87-9.743-5.87-9.743a13.679,13.679,0,0,1,9.157-14.909A10.713,10.713,0,0,1,54.1,19a14.453,14.453,0,0,1,8.715,3.367s7.32,5.767,10.425,5.767A2.161,2.161,0,0,0,73.5,28.12c2.935-.352,7.4-3.287,10.33-5.165,2.069-1.324,6.7-4.514,11.849-4.514a11.44,11.44,0,0,1,6.581,2.049C109.658,25.538,109.306,33.52,108.485,35.75ZM52.065,21.593a3.738,3.738,0,0,0-.749.071c-3.96.812-8.447,5.4-8.447,10.5v0.008a8.527,8.527,0,0,0,.347,2.405c1.112,3.782,4.661,5.222,8.544,5.237H51.88a19.451,19.451,0,0,0,6.6-1.245,31.562,31.562,0,0,0,9.743-6.1C67.439,29.567,57.035,21.592,52.065,21.593Zm55.128,7.7c-0.675-2.251-6.745-7.307-12.314-7.307q-0.36,0-.717.029C88.411,22.486,78.9,32.581,78.9,32.581s12.6,6.095,19.456,6.095a8.8,8.8,0,0,0,1.439-.108C106.137,37.511,107.9,31.642,107.193,29.294ZM56.128,53.711a3.128,3.128,0,0,1,.957-0.156c2.388,0,3.935,3,4.56,5.086C62.35,60.99,65.4,69.09,65.4,69.09a12.466,12.466,0,0,0-3.142-.407,11.906,11.906,0,0,0-4.489.877C55.189,65.686,53.193,54.651,56.128,53.711Z"/>
  <path class="cls-9" d="M83.333,63.9s3.287-7.513,10.331-6.809L95.541,58.5S86.854,57.791,83.333,63.9Zm-3.639,1.878s1.526-12.326,11.856-14.2l0.822,3.17S82.511,57.322,79.694,65.774ZM78.05,61.313a30.187,30.187,0,0,1,5.984-14.624c-5.616,1.643-8.8,10.28-8.8,10.28C75,49.339,83.1,44.526,83.1,44.526l1.3,1.7a25,25,0,0,1,3.834-3.982l2.193,1.2A31.616,31.616,0,0,0,78.05,61.313Zm7.819,15.471a9.8,9.8,0,0,1,2.654,4.885,20.312,20.312,0,0,1,.623,3.067c0.066,0.523.114,1.048,0.138,1.575a3.473,3.473,0,0,0,.138,1.2c0.008,0.019.021,0.03,0.029,0.048l3.107-.239a1.848,1.848,0,0,0,.077-0.181,0.676,0.676,0,0,1,1.3.359A3.076,3.076,0,0,1,89.624,89.6a3.135,3.135,0,0,1-1.608-2.1,12.533,12.533,0,0,1-.108-1.61,17.648,17.648,0,0,0-.234-1.912A12.06,12.06,0,0,0,85.481,78.3a6.179,6.179,0,0,0-4.872-1.879,20.527,20.527,0,0,0-6.276,1.488,15.8,15.8,0,0,0-5.07,2.646c-2.936,2.495-3.987,6.284-4.959,9.856a9.961,9.961,0,0,1-2.5,4.933,4.7,4.7,0,0,1-4.688,1.186c-0.81-.3-0.458-1.6.359-1.3,1.907,0.7,3.674-.767,4.523-2.372,0.947-1.792,1.238-3.885,1.856-5.8,1.11-3.442,2.875-6.656,6.033-8.6a23.857,23.857,0,0,1,5.074-2.185,18.019,18.019,0,0,1,6.107-1.2A7.733,7.733,0,0,1,85.869,76.784ZM60.441,64.365s2.465-.822,3.4-0.117,0.939,3.17.117,3.4-5.048,0-5.752-3.052,0-5.4,3.287-5.635L63.259,61.9s-2.113-.117-2.7,1.057S60.441,64.365,60.441,64.365Zm10.448,1.644a92.056,92.056,0,0,0-2.817-12.443c-1.761-5.4-8.8-11.27-8.8-11.27,8.687,0.822,12.091,14.674,12.091,14.674,0.7-4.7-5.048-13.735-5.048-13.735,11.387,8.8,6.1,22.774,6.1,22.774H70.889ZM67.015,61.9c-1.056-2-4.461-10.448-7.748-11.387a11.963,11.963,0,0,0-6.809.47s2.348-3.522,6.222-3.522,7.4,7.161,8.217,9.274,3.991,9.274,3.991,9.274A16.359,16.359,0,0,1,67.015,61.9Zm8.84,20.748a4.647,4.647,0,0,1,4.532.512,6.147,6.147,0,0,1,2.3,4.157,0.692,0.692,0,0,1-.471.83,0.68,0.68,0,0,1-.83-0.472A5.046,5.046,0,0,0,79.7,84.32,3.439,3.439,0,0,0,76.075,84a5.73,5.73,0,0,0-3.691,5.127,0.675,0.675,0,0,1-1.35,0A7.129,7.129,0,0,1,75.855,82.648Z"/>
</svg>
