<svg id="usa_normandy_pilot_assaulter_2" xmlns="http://www.w3.org/2000/svg" width="150" height="150" viewBox="0 0 150 150">
  <defs>
    <style>
      .cls-1 {
        fill: #4d6588;
      }

      .cls-1, .cls-2, .cls-3, .cls-4, .cls-5, .cls-6, .cls-7, .cls-8 {
        fill-rule: evenodd;
      }

      .cls-2 {
        fill: #5676a1;
      }

      .cls-3 {
        fill: #eab849;
      }

      .cls-4, .cls-8 {
        fill: #ede7e1;
      }

      .cls-4, .cls-5 {
        stroke: #232323;
      }

      .cls-4 {
        stroke-width: 1px;
      }

      .cls-5 {
        fill: #c03d27;
        stroke-width: 2px;
      }

      .cls-6 {
        fill: #232323;
      }

      .cls-7 {
        fill: #873628;
      }
    </style>
  </defs>
  <path class="cls-1" d="M75,145.177A70.177,70.177,0,1,1,145.176,75,70.257,70.257,0,0,1,75,145.177M75,7.764a67.236,67.236,0,0,1,47.543,114.78A67.237,67.237,0,0,1,27.457,27.457,66.8,66.8,0,0,1,75,7.764m0-5.88A73.116,73.116,0,1,0,148.117,75,73.117,73.117,0,0,0,75,1.884ZM56.337,93.407s-10.609-2.94-17.512,8.692c0,0-9.971,3.835-7.926,11.888s10.1,5.88,10.1,5.88,2.94,8.82,10.993,9.97,13.038-2.045,13.038-2.045l13.805-.766s3.323,4.6,10.865,3.578,10.482-4.729,10.482-4.729,6.135,2.173,9.459-1.534c0,0,10.226-.639,10.354-9.97s-7.926-9.843-7.926-9.843-5.368-9.332-16.745-5.5c0,0-26.588-15.722-38.987-5.624M86.377,65.413l-2.3-7.03L95.324,40.615,122.04,56.465,111.558,74.489l-8.82.767Zm17.128-11.121s-3.834-1.789-9.97,2.045c-9.9,6.186-38.348,49.6-38.348,49.6s-5.113,9.076-1.534,16.106a14.9,14.9,0,0,0,5.624,6.264s-1.023,4.09.895,5.112,4.6-1.789,4.6-1.789,8.181,4.09,15.211-1.023,25.182-47.423,26.844-56.882,1.15-17.384-3.324-19.43M94.046,70.143l2.429-1.023,14.444-23.264-3.2-1.79L94.046,67.586v2.557ZM68.827,48.71a0.321,0.321,0,0,0,.022.1l0-.022,0-.026-0.015-.053m-0.4.724,0.018,0.011,0.019,0.007,0.029,0.008a0.121,0.121,0,0,0-.067-0.025m-2.088,5.6a0.7,0.7,0,0,0-.518.212,0.751,0.751,0,0,0,0,1.04,10.283,10.283,0,0,0,2.7,2.07,0.809,0.809,0,0,0,.376.092,0.7,0.7,0,0,0,.63-0.356c0.057-.1.117-0.206,0.18-0.305q0.048-.075.1-0.148l0.089-.121,0.067-.081c0.038-.045.077-0.089,0.117-0.133,0.087-.095.177-0.185,0.271-0.273a0.735,0.735,0,0,0,.152-0.8,0.752,0.752,0,0,0-.672-0.452l-2.659-.218c-0.106-.1-0.215-0.2-0.316-0.313a0.714,0.714,0,0,0-.522-0.212m0.986,26.591a0.712,0.712,0,0,0-.189.025,0.751,0.751,0,0,0-.439.338,0.743,0.743,0,0,0-.074.567,0.773,0.773,0,0,0,.338.439l0,0a1.522,1.522,0,0,0-.191-0.012,1.957,1.957,0,0,0-.383.041,0.735,0.735,0,0,0-.175,1.344,0.78,0.78,0,0,0,.372.093l0.069,0a1.029,1.029,0,0,1,.1,0c0.049,0,.1,0,0.146.007a4.244,4.244,0,0,0,.624.081h0.025a1.3,1.3,0,0,0,.918-0.361,1.251,1.251,0,0,0,.3-0.515,1.471,1.471,0,0,0,.05-0.306,0.69,0.69,0,0,0,0-.135,1.979,1.979,0,0,0-.046-0.311,1.791,1.791,0,0,0-.112-0.287,1.553,1.553,0,0,0-.263-0.376,2.307,2.307,0,0,0-.4-0.334c-0.1-.07-0.2-0.131-0.3-0.192a0.753,0.753,0,0,0-.377-0.1m-8.215,19.155h0l0,0,0,0M58.7,99.426a0.585,0.585,0,0,0-.349.1,5.681,5.681,0,0,0-1.321,1.36,5.245,5.245,0,0,0-.728,1.594,0.745,0.745,0,0,0,.513.9l0.058,0.011c0.656-.983,1.484-2.22,2.451-3.651a0.719,0.719,0,0,0-.408-0.292,0.993,0.993,0,0,0-.217-0.025m0.625,0.317c-0.967,1.431-1.8,2.668-2.451,3.651a0.833,0.833,0,0,0,.122.009,0.734,0.734,0,0,0,.724-0.534c0.033-.121.07-0.241,0.112-0.36,0.018-.051.038-0.1,0.057-0.151l0.019-.041a4.628,4.628,0,0,1,.37-0.658l0.083-.118,0,0s0.014-.018.047-0.064l-0.007.008,0.029-.039-0.023.031q0.116-.142.242-0.276c0.083-.087.168-0.17,0.256-0.25q0.074-.066.151-0.129l0.008-.007,0.028-.022,0.022-.018,0,0,0,0a0.786,0.786,0,0,0,.319-0.424,0.751,0.751,0,0,0-.074-0.566l-0.032-.046m-0.21,1.033,0,0h0l0,0m-0.005.005-0.017.014,0,0-0.028.022-0.036.033,0.085-.071m-0.02.016-0.028.022,0.028-.022m4.556-30.972c0.078-.089.157-0.176,0.235-0.264,0.143,0.087.284,0.178,0.418,0.278a5.534,5.534,0,0,1,.819.811,0.359,0.359,0,0,0,.054.067l0.019,0.025-0.019-.024c0.022,0.022.045,0.042,0.068,0.062q-0.221.184-.439,0.372a1.443,1.443,0,0,0-.694-1.231,1.023,1.023,0,0,0-.45-0.1H63.642m2.732,0.069a6.316,6.316,0,0,0-.858-0.949,6.672,6.672,0,0,0-.64-0.49c0.25-.271.5-0.541,0.758-0.8a9.884,9.884,0,0,1,1.622-1.374,5.882,5.882,0,0,1,.917-0.5,2.182,2.182,0,0,1,.693-0.231,0.251,0.251,0,0,1,.131.03,0.706,0.706,0,0,0,.368.11,0.633,0.633,0,0,0,.221-0.04L69.6,65.66A5.314,5.314,0,0,0,71.56,66.8a2.068,2.068,0,0,0,.553.079,1.4,1.4,0,0,0,.634-0.139,1.052,1.052,0,0,0,.482-0.489l0.1,0.048a4.5,4.5,0,0,0,.713.317,3.312,3.312,0,0,0,.589.129,5.829,5.829,0,0,0-.189.687q-0.292-.013-0.584-0.013a12.655,12.655,0,0,0-5.142,1.091,12.922,12.922,0,0,0-2.342,1.38m3.008-7.885a5.559,5.559,0,0,0,3.431-1.256,6.257,6.257,0,0,0,.577-0.528,19.188,19.188,0,0,0,.549,2.065c0.21,0.638.456,1.264,0.725,1.88q0.2,0.451.415,0.891c0.043,0.086.088,0.171,0.132,0.257l-0.088,0a2.006,2.006,0,0,1-.5-0.062c-0.432-.111-0.781-0.407-1.212-0.518a1.428,1.428,0,0,0-.356-0.046,1.077,1.077,0,0,0-.961.516h0s-0.038.085-.076,0.175c-0.1-.028-0.254-0.063-0.291-0.079A4.665,4.665,0,0,1,69.084,62q0.149,0.009.3,0.009m-7.04,14.277q-0.143,0-.288-0.012a2.191,2.191,0,0,1-1.987-1.282,4.382,4.382,0,0,1-.108-1.65c0.029-.681.063-1.362,0.095-2.043,0.115-2.482.111-5.005,0.394-7.475a6.518,6.518,0,0,1,1.12-3.256,3.862,3.862,0,0,1,2.724-1.461,8.406,8.406,0,0,0,3.26,2.543v0a6.366,6.366,0,0,0,.818,2.5,5.652,5.652,0,0,0-1.287.519,8.223,8.223,0,0,0-1.405.95,3.5,3.5,0,0,0-.122-0.539,3.945,3.945,0,0,0-.934-1.564,0.74,0.74,0,0,0-.528-0.212,0.688,0.688,0,0,0-.511.212,0.748,0.748,0,0,0,0,1.039c0.069,0.071.13,0.148,0.2,0.221l0.045,0.065c0.031,0.046.061,0.093,0.089,0.141a3.19,3.19,0,0,1,.156.295l0.006,0.013v0c0.023,0.059.044,0.117,0.063,0.177a3.153,3.153,0,0,1,.085.323l0.018,0.067,0,0.025,0.008,0.083a3.075,3.075,0,0,1,.01.354c0,0.055,0,.111-0.01.166l-0.008.083v0.007a0.858,0.858,0,0,0,.019.368c-1.076,1.109-2.066,2.313-3.085,3.464a0.735,0.735,0,0,0-.188.411,0.743,0.743,0,0,0,.535,1.269,0.768,0.768,0,0,0,.34-0.082c0.12-.059.99-0.379,1.438-0.567,0.007,0.115.013,0.23,0.02,0.345q0.027,0.476.055,0.953a0.744,0.744,0,0,0,1.255.52,18.8,18.8,0,0,1,4.631-3.394,11.04,11.04,0,0,1,4.623-.98q0.2,0,.4.007c0,0.135,0,.27,0,0.405a8.981,8.981,0,0,0,.126,1.229,0.79,0.79,0,0,0-.181.037,29.572,29.572,0,0,0-6.525,2.924c-1.624,1.023-3.328,2.792-5.371,2.792m7.773-22.255a5,5,0,0,0,4.3-2.613A13.723,13.723,0,0,1,73.4,57.806a0.657,0.657,0,0,0-.316.553,4.817,4.817,0,0,1-2.415,1.966,3.415,3.415,0,0,1-1.2.22,5.348,5.348,0,0,1-3.727-1.994c-0.108-.118-0.21-0.241-0.314-0.363a0.689,0.689,0,0,0-.413-0.513,14.728,14.728,0,0,1-2.136-4,3.83,3.83,0,0,0,1.1-.3,3.962,3.962,0,0,0,1.915-1.806,4.87,4.87,0,0,0,3.864,2.451q0.181,0.013.358,0.013m-2.13-5.079c-0.018-.053-0.033-0.106-0.045-0.16l0-.026c0-.055-0.006-0.109,0-0.165a0.668,0.668,0,0,0-.083-0.329l0.006-.009,0.089-.016,0.119-.029,0.122,0,0.035,0a2.12,2.12,0,0,1,.222.059,1.49,1.49,0,0,1,.137.077L68.6,48.371l0.06,0.052,0.079,0.089,0.013,0.02,0.058,0.112,0.018,0.067,0.017,0.058,0,0.022,0.009,0.046-0.007-.024,0.008,0.12-0.006.027-0.011.054a1.6,1.6,0,0,1-.044.16l0,0.009-0.053.1-0.025.045-0.062.067-0.068.06-0.025.015H68.526l-0.034-.009h0l-0.037-.009-0.012-.006L68.4,49.427l0.03,0.007-0.105-.059-0.048-.032-0.015-.01-0.073-.075-0.073-.082-0.04-.06L68.007,49a0.042,0.042,0,0,0,.009.013,0.263,0.263,0,0,0-.031-0.063l0,0.008L68,49,68,48.981l-0.033-.071,0.022,0.041m-4.341-.13H63.537L63.5,48.814h0L63.486,48.8l-0.047-.051-0.023-.036,0-.008c-0.018-.06-0.03-0.121-0.043-0.181a2.846,2.846,0,0,1,.012-0.545c0.013-.082.028-0.163,0.045-0.244,0.089,0.094.181,0.186,0.274,0.278a0.766,0.766,0,0,0,.03.527L63.743,48.6v0.111l0,0.019-0.01.031-0.012.018,0,0-0.012.012-0.039.022-0.007,0-0.01,0m-1.217,3.432a3.584,3.584,0,0,1-2.724-1.86,6.814,6.814,0,0,1-.025-7.238l0.022-.044,0.055,0a0.7,0.7,0,0,1,.119.009,1.634,1.634,0,0,1,.89.679c0.629,0.812,1.059,1.779,1.62,2.638l0.034,0.047a1.988,1.988,0,0,0-.432.984,3.705,3.705,0,0,0-.031,1.5,1.725,1.725,0,0,0,1.094,1.248,1.511,1.511,0,0,0,.527.092,1.672,1.672,0,0,0,1.163-.467,1.574,1.574,0,0,0,.3-0.425,0.851,0.851,0,0,1,.08.2,0.9,0.9,0,0,0-.246.539,2.011,2.011,0,0,1-.139.512c-0.055.074-.109,0.145-0.157,0.211a0.559,0.559,0,0,0-.1.264,2.681,2.681,0,0,1-1.761,1.1,2.1,2.1,0,0,1-.292.02m13.208-6.359c0-.057,0-0.113,0-0.17a16.059,16.059,0,0,0,4.224-4.249,8.091,8.091,0,0,1-4.223,4.419m-7.059,5.046a1.366,1.366,0,0,0,.789-0.242,2.221,2.221,0,0,0,.951-1.728,2.067,2.067,0,0,0-.7-1.661,2.387,2.387,0,0,0-.92-0.483c0.347-.71.64-1.452,0.915-2.191a28.711,28.711,0,0,1,1.1-2.73,2.646,2.646,0,0,1,.81-1.146,0.67,0.67,0,0,1,.353-0.1,1.2,1.2,0,0,1,.8.44A6.112,6.112,0,0,1,73.949,44a10.72,10.72,0,0,1,.172,3.378c-0.2,1.983-.909,4.424-3.058,5.036a3.413,3.413,0,0,1-4.3-2.618,2.268,2.268,0,0,0,.433.554,2.106,2.106,0,0,0,1.377.589M56.45,45.225a0.705,0.705,0,0,0,.744-0.914,8.95,8.95,0,0,1-.453-5.866,5.884,5.884,0,0,1,.443-1.047c0.026,0.132.054,0.259,0.065,0.355l0.4,3.508-0.087,1.976a0.7,0.7,0,0,0,.2.5,8.3,8.3,0,0,0-.573,3c-1.748-.239-2.651-2.121-2.754-3.742a9.157,9.157,0,0,1,.179-2.587,10.732,10.732,0,0,0,1.242,4.473,0.653,0.653,0,0,0,.6.347M75.894,43.7a14.774,14.774,0,0,0,.744-4.4,12.583,12.583,0,0,0,3.911-3.433A12.881,12.881,0,0,1,75.894,43.7m-4.551-7.8a0.614,0.614,0,0,0,.49-0.217c0.361-.447,1.105-1.4,1.811-1.4a0.761,0.761,0,0,1,.465.159c0.728,0.542.852,2.054,0.961,2.863a12.651,12.651,0,0,1,.1,1.3,0.677,0.677,0,0,0,.008.45,13.569,13.569,0,0,1-.336,2.912c-0.071-.18-0.135-0.363-0.216-0.538a3.48,3.48,0,0,0-2.6-2.256c-0.055,0-.109-0.006-0.163-0.006-1.223,0-1.98,1.052-2.472,2.066-1.115,2.3-1.565,5.107-3.4,6.974-0.072-.087-0.146-0.174-0.226-0.255-0.431-.445-0.939-0.8-1.356-1.262a10.069,10.069,0,0,1-1.149-1.63c-0.65-1.082-1.234-2.463-2.379-3.116a2.3,2.3,0,0,0-1.133-.3q-0.068,0-.136,0a9.671,9.671,0,0,1,.493-3.583A3.452,3.452,0,0,1,61.2,36.3a1.047,1.047,0,0,1,.606-0.214,2.287,2.287,0,0,1,1.049.43,1.994,1.994,0,0,0,.985.287A1.885,1.885,0,0,0,65.5,35.532a1.48,1.48,0,0,1,.979-1.1,0.877,0.877,0,0,1,.151-0.013,0.955,0.955,0,0,1,.914.925,0.736,0.736,0,0,0,.765.709,0.668,0.668,0,0,0,.7-0.709,0.793,0.793,0,0,1,.742-0.846h0.007a0.943,0.943,0,0,1,.843.865,0.735,0.735,0,0,0,.739.541M71.5,33.877a2.32,2.32,0,0,0-1.629-.842,20.656,20.656,0,0,1,3.51-7.91c1.455-2,3.509-4.205,5.977-4.971a13.368,13.368,0,0,0-1.331,1.688,40.713,40.713,0,0,0-2.311,3.6,14.758,14.758,0,0,0-2.083,7.4,3.266,3.266,0,0,0-2.132,1.04m-12.221,2.49A19.279,19.279,0,0,1,60.5,25.432a14.491,14.491,0,0,1,5.34-6.25A18.979,18.979,0,0,0,63.5,35.214c-0.2-.128-0.417-0.3-0.512-0.347a2.375,2.375,0,0,0-1.1-.28,3.262,3.262,0,0,0-2.611,1.781M67.182,16.9a0.791,0.791,0,0,0-.317.068,15.36,15.36,0,0,0-7.714,7.89,20.6,20.6,0,0,0-1.472,10.584A1.078,1.078,0,0,0,57.39,35.4h0A1.884,1.884,0,0,0,55.9,36.652l-0.054.111a0.63,0.63,0,0,0-.257-0.057,0.6,0.6,0,0,0-.357.12c-1.994,1.431-2.5,4.242-2.241,6.553,0.265,2.357,1.791,4.672,4.323,4.837a8.181,8.181,0,0,0,.509,1.75,6.277,6.277,0,0,0,3.45,3.531,16.713,16.713,0,0,0,2.048,4.288,5.688,5.688,0,0,0-3.955,3.966,14.966,14.966,0,0,0-.509,3.612c-0.076,1.5-.14,2.995-0.21,4.492-0.068,1.46-.244,2.961-0.176,4.421a3.394,3.394,0,0,0,1.566,2.864,4,4,0,0,0,1.176.5,10.918,10.918,0,0,1-1.083,2.621,5.568,5.568,0,0,0-2.039-.388,5.749,5.749,0,0,0-5.256,3.518c-1.358,3.147-.271,7.084,1.739,9.743a10.682,10.682,0,0,1,1.76.277c0.1-.081.2-0.16,0.3-0.238a9.471,9.471,0,0,1-2.93-6.418,5.511,5.511,0,0,1,1.739-4.519,3.994,3.994,0,0,1,2.578-.911,4.285,4.285,0,0,1,1.433.246,15.248,15.248,0,0,0-1.026,2.612,12.7,12.7,0,0,0,.079,7.328q0.065,0.195.137,0.386a14.645,14.645,0,0,1,1.339-.61q-0.063-.174-0.119-0.351a11.363,11.363,0,0,1,.063-6.646c0.692-2.292,2.249-4.217,2.743-6.559a8.26,8.26,0,0,0,3.711-1.536c1.079-.744,2.134-1.486,3.276-2.119a26.864,26.864,0,0,0,6.266,2.172q0.489-.654.977-1.3l-0.349-.067a25.256,25.256,0,0,1-5.2-1.645c1.067-.473,2.163-0.878,3.272-1.244a0.771,0.771,0,0,0,.213-0.112,3.523,3.523,0,0,0,.5.753,0.658,0.658,0,0,0,.331.325c0.048,0.041.087,0.086,0.138,0.125a0.545,0.545,0,0,0,.337.1,0.819,0.819,0,0,0,.554-0.22,0.753,0.753,0,0,0,.115-0.891,0.978,0.978,0,0,0-.386-0.385,3.82,3.82,0,0,1-.671-2.489,4.828,4.828,0,0,1,.526-2.61,0.959,0.959,0,0,0,.618-0.657,2.415,2.415,0,0,0-.522-1.55,18.651,18.651,0,0,1-1.8-5.789,8.919,8.919,0,0,0,.6-1.38A4.434,4.434,0,0,1,77.844,58.6a32.121,32.121,0,0,0,2.47,2.567,0.908,0.908,0,0,0,.49.2,2.748,2.748,0,0,1,1.134,1.689c0.127,1.011-.423,2.056-0.532,3.054a22.915,22.915,0,0,0,.2,2.761c0.429-.538.857-1.069,1.279-1.586a4.9,4.9,0,0,1,.037-1.391c0.233-1.2.745-2.387,0.346-3.612a5.732,5.732,0,0,0-2.279-2.618,0.69,0.69,0,0,0-.284-0.132c-0.7-.7-1.3-1.49-2.021-2.17a5.836,5.836,0,0,0-3.135-1.584,25.006,25.006,0,0,0,.184-6.812,0.735,0.735,0,0,0-.281-0.532c0.054-.315.1-0.632,0.131-0.951a9.652,9.652,0,0,0,6.307-9.918,0.929,0.929,0,0,0-.107-0.348A12.173,12.173,0,0,0,82.105,33a0.9,0.9,0,0,0-.839-0.749,0.561,0.561,0,0,0-.53.378,11.3,11.3,0,0,1-4.167,4.993,14.546,14.546,0,0,0-.326-1.987,4.431,4.431,0,0,0-1.112-2.214,12.925,12.925,0,0,1,1.85-7.234c0.6-1.084,1.284-2.119,1.989-3.137a7.4,7.4,0,0,1,2.372-2.584,0.655,0.655,0,0,0,.335-0.381l0.012-.01,0.008-.008a0.732,0.732,0,0,0,.189-0.325,0.551,0.551,0,0,0,.018-0.234v-0.02l-0.027-.2,0-.008L81.8,19.1l0,0,0-.006-0.015-.021A0.672,0.672,0,0,0,81.09,18.4H81.08c-3.619.045-6.541,2.8-8.618,5.509a21.723,21.723,0,0,0-4.187,9.618l-0.008.118-0.007.006a2.335,2.335,0,0,0-1.648-.7,2.366,2.366,0,0,0-.838.157,2.339,2.339,0,0,0-1.1.858,17.477,17.477,0,0,1,3.515-15.505,0.79,0.79,0,0,0-.393-1.258,0.811,0.811,0,0,0-.618-0.3M54.577,93.13q0.073,0.1.147,0.19A8.475,8.475,0,0,0,56.2,94.775a0.984,0.984,0,0,0-.034.133Q56,96.446,55.835,97.985a6.938,6.938,0,0,0-2.521,3.181c-0.976,2.337-.918,4.919-1.607,7.332a0.7,0.7,0,0,0,.711.9,0.75,0.75,0,0,0,.633-0.337,7.206,7.206,0,0,1,1.345-1.491c0.349-.8.634-1.349,0.744-1.552a0.658,0.658,0,0,0-.522-0.284,0.679,0.679,0,0,0-.383.127c-0.205.14-.4,0.29-0.59,0.443a25.484,25.484,0,0,1,.747-3.82,6.726,6.726,0,0,1,1.219-2.368,2.875,2.875,0,0,1,1.959-1.184,1.416,1.416,0,0,1,.335.04A0.812,0.812,0,0,0,58.1,99a0.737,0.737,0,0,0,.2-1.441,3.028,3.028,0,0,0-.718-0.085q-0.109,0-.216.007,0.1-.924.2-1.848a9.062,9.062,0,0,0,1.854.712,0.8,0.8,0,0,0,.2.027,0.74,0.74,0,0,0,.189-1.444,7.418,7.418,0,0,1-3.169-1.757c-0.1.077-.2,0.157-0.3,0.238a10.682,10.682,0,0,0-1.76-.277m5.411-1.848a14.645,14.645,0,0,0-1.339.61A14.176,14.176,0,0,0,61.6,96.382l0.856-1.25a11.969,11.969,0,0,1-2.472-3.851m-4.85,14.739c-0.109.2-.4,0.751-0.744,1.552a7.11,7.11,0,0,1,.581-0.439,0.765,0.765,0,0,0,.163-1.113M82.882,67.29c-0.422.517-.85,1.049-1.279,1.586,0,0.125,0,.251-0.014.377a4.489,4.489,0,0,1-.987,2.414,0.565,0.565,0,0,0-.268.332,0.708,0.708,0,0,0-.011.751,3.049,3.049,0,0,1-.763,2.266,0.983,0.983,0,0,1-.657.2,5.6,5.6,0,0,1-.673-0.065c-0.444-.054-0.885-0.125-1.325-0.206q-0.488.647-.977,1.3,0.7,0.148,1.415.255c0.247,0.037.5,0.077,0.757,0.108l0.02,0.109a5.236,5.236,0,0,0,.668,1.405c0.1,0.139.2,0.273,0.3,0.405l0.059,0.057a8.514,8.514,0,0,0-3.044,2.9,0.683,0.683,0,0,0,.652,1.06,0.748,0.748,0,0,0,.617-0.318C78.162,81.154,79.225,79.7,80.7,79.7h0.009c1.515,0,2.54,1.473,2.866,2.8a14.607,14.607,0,0,1-.132,5.393,45.718,45.718,0,0,1-1.124,5.458,1.29,1.29,0,0,0-.164,1.221,0.9,0.9,0,0,0,.29.332,0.835,0.835,0,0,0,.635.308,0.684,0.684,0,0,0,.6-0.347,2.721,2.721,0,0,1,1.07-1.2,0.8,0.8,0,0,1,.3-0.069,0.606,0.606,0,0,1,.5.739,7.931,7.931,0,0,1-1.284,3.52c-1.124,2.076-2.479,4.082-2.922,6.442a0.727,0.727,0,0,0,.148.609,10.078,10.078,0,0,1-.234,1.422,1.264,1.264,0,0,1-.928,1,2.776,2.776,0,0,1-.7.167,0.5,0.5,0,0,1-.112-0.012,1.639,1.639,0,0,1-.039-0.186,4.29,4.29,0,0,1-.05-0.484,6.589,6.589,0,0,1,1.019-3.937,7.7,7.7,0,0,0,1.508-3.279,6.575,6.575,0,0,0,.066-2.553,1.461,1.461,0,0,0-.661-0.989,0.946,0.946,0,0,0-.472-0.128,1.539,1.539,0,0,0-.955.43,15.417,15.417,0,0,1-2.061,1.5,2.285,2.285,0,0,1-.431.224c-0.031.011-.185,0.035-0.171,0.039H77.16l-0.021-.006a1.035,1.035,0,0,1-.57-0.37,2.4,2.4,0,0,1-.165-2.056c0.044-.068.09-0.136,0.132-0.2a0.75,0.75,0,0,0-.77-1.081h0a0.675,0.675,0,0,0-.678.516c-0.014.051-.027,0.1-0.041,0.154a8.2,8.2,0,0,1-4.769,3.535,6.754,6.754,0,0,1-1.593.192,6.291,6.291,0,0,1-1.8-.257,7.264,7.264,0,0,1-2.943-1.884c-0.5-.488-1.006-0.994-1.483-1.525L61.6,96.382c0.469,0.507.958,0.993,1.451,1.459a7.941,7.941,0,0,0,7.018,2.3,8.912,8.912,0,0,0,4.819-2.577l0.024,0.105a2.715,2.715,0,0,0,1.606,1.787,1.805,1.805,0,0,0,.667.127,3.425,3.425,0,0,0,1.783-.679c0.142-.092,1.105-0.768,1.657-1.2,0.006,0.111.01,0.222,0.011,0.332,0,0.166-.014.328-0.025,0.49a0.9,0.9,0,0,0-.09.574l0.006,0.1c-0.018.1-.029,0.207-0.053,0.31a0.8,0.8,0,0,0,0,.332,5.075,5.075,0,0,1-.742,1.458,11.9,11.9,0,0,0-1.265,2.263,8.655,8.655,0,0,0-.495,3.65,0.607,0.607,0,0,0-.251.542,40.639,40.639,0,0,0,.874,4.894,0.729,0.729,0,0,0,.711.532,0.761,0.761,0,0,0,.1-0.006,0.743,0.743,0,0,0,.637-0.722,5.226,5.226,0,0,1,.1-0.651,7.543,7.543,0,0,1,.2-0.786c0.037-.118.076-0.229,0.116-0.336a1.785,1.785,0,0,0,.718.283,1.063,1.063,0,0,0,.166.013,0.736,0.736,0,0,0,.764-0.721,16.991,16.991,0,0,0,.079-2.483,2.383,2.383,0,0,0,.2-0.306,3.562,3.562,0,0,0,.257-0.656,0.75,0.75,0,0,0,.09-0.207,30.283,30.283,0,0,1,2.306-6.121c0.9-1.758,2.055-3.492,2.16-5.523,0.077-1.49-.878-3.344-2.479-3.344a2.236,2.236,0,0,0-.478.053,46.856,46.856,0,0,0,.8-4.741c0.235-2.04.433-4.255-.532-6.15a4.478,4.478,0,0,0-3.8-2.545q-0.1,0-.2.006a0.762,0.762,0,0,0-.087-0.538,0.793,0.793,0,0,0-.347-0.313,4.637,4.637,0,0,1-.424-0.748l-0.024-.066a2.046,2.046,0,0,0,1.132-.7,4.993,4.993,0,0,0,1.026-3.344A5.957,5.957,0,0,0,83,69.74a10.3,10.3,0,0,0-.119-2.45m-10.79-2.08h0"/>
  <path id="Shape_113_copy" data-name="Shape 113 copy" class="cls-2" d="M75,145.177A70.177,70.177,0,1,1,145.176,75,70.257,70.257,0,0,1,75,145.177"/>
  <path id="Shape_113_copy_2" data-name="Shape 113 copy 2" class="cls-3" d="M75,7.091a67.909,67.909,0,0,1,48.019,115.928A67.909,67.909,0,1,1,26.981,26.981,67.463,67.463,0,0,1,75,7.091m0-5.939A73.848,73.848,0,1,0,148.848,75,73.848,73.848,0,0,0,75,1.152Z"/>
  <path id="Shape_113_copy_3" data-name="Shape 113 copy 3" class="cls-4" d="M56.337,93.407s-10.609-2.94-17.512,8.692c0,0-9.971,3.835-7.926,11.888s10.1,5.88,10.1,5.88,2.94,8.82,10.993,9.97,13.038-2.045,13.038-2.045l13.805-.766s3.323,4.6,10.865,3.578,10.482-4.729,10.482-4.729,6.135,2.173,9.459-1.534c0,0,10.226-.639,10.354-9.97s-7.926-9.843-7.926-9.843-5.368-9.332-16.745-5.5c0,0-26.588-15.722-38.987-5.624M86.377,65.413l-2.3-7.03L95.324,40.615,122.04,56.465,111.558,74.489l-8.82.767Z"/>
  <path id="Shape_113_copy_4" data-name="Shape 113 copy 4" class="cls-5" d="M103.505,54.292s-3.834-1.789-9.97,2.045c-9.9,6.186-38.348,49.6-38.348,49.6s-5.113,9.076-1.534,16.106a14.9,14.9,0,0,0,5.624,6.264s-1.023,4.09.895,5.112,4.6-1.789,4.6-1.789,8.181,4.09,15.211-1.023,25.182-47.423,26.844-56.882,1.15-17.384-3.324-19.43"/>
  <path class="cls-6" d="M95.75,69.688a51.318,51.318,0,0,1,9-5.875s0.125-5.125-1-7.375C103.75,56.438,97,63.688,95.75,69.688Z"/>
  <path id="Shape_121_copy" data-name="Shape 121 copy" class="cls-7" d="M67.5,128.117s6.667,1.666,11.167-1.5S101.461,83.159,102.5,79.783c2-6.5,2-14,1.5-16,0,0-2.333,11-4,15.333s-22.167,43.166-22.167,43.166S73.5,127.95,67.5,128.117Z"/>
  <path class="cls-6" d="M61.5,96.563s5,8.624,11.875,3.125c0,0,4.625,6,10.875-.125,0,0-1.125,8.749,1.25,13.5l1-1.625,1.25,0.5a45.094,45.094,0,0,1-.5-15.124c1.25-7.25-1.125-7.25-2.25-6.875,0,0,1.75-10.125-3.25-9.375S61.5,96.563,61.5,96.563Z"/>
  <path id="Shape_113_copy_5" data-name="Shape 113 copy 5" class="cls-4" d="M94.046,70.143l2.429-1.023,14.444-23.264-3.2-1.79L94.046,67.586v2.557Z"/>
  <path class="cls-3" d="M81.008,33.314s-3.707,4.73-5.24,4.985c0,0-.256-3.963-1.662-4.474a1.971,1.971,0,0,0-.676-0.112,5.418,5.418,0,0,0-2.647,1.007,3.4,3.4,0,0,0-1.761-1.169,0.625,0.625,0,0,0-.412.146,2.275,2.275,0,0,1-1.278.639,1.57,1.57,0,0,0-1.066-.934,0.8,0.8,0,0,0-.468.167A20.588,20.588,0,0,0,63.368,36a8.4,8.4,0,0,0-2.561-.6,1.307,1.307,0,0,0-1.018.341A10.806,10.806,0,0,0,58.383,38.3s-0.292-2.336-1.046-2.337a0.557,0.557,0,0,0-.36.164,43.572,43.572,0,0,0-2.94,3.451c-0.383.384-2.045,6.9,2.557,7.925,0,0-.128,1.406,2.3,3.707s2.94,2.684,2.94,2.684a9.868,9.868,0,0,0,2.3,5.113s-2.556,0-3.579,1.662S59.15,71.789,58.894,72.684a3.626,3.626,0,0,0,2.429,4.857s-0.639,3.579-1.023,3.707a0.364,0.364,0,0,1-.11.013,11.55,11.55,0,0,1-1.234-.187,11.38,11.38,0,0,0-1.841-.186,3.734,3.734,0,0,0-1.416.233c-1.534.639-6.136,4.6,0.255,13.421a24.736,24.736,0,0,1,.128,3.324c-0.128.511-2.046,2.429-2.557,3.451s-1.278,6.9-1.278,6.9l2.557-1.534s4.6-8.181,6.9-10.865c0,0,2.685,2.94,4.985,3.579a5.45,5.45,0,0,0,1.442.178A7.636,7.636,0,0,0,75,95.437s-0.639,2.685.895,3.324a1.747,1.747,0,0,0,.675.124c1.535,0,3.543-1.53,3.543-1.53s0.639,0.128.767,1.406-1.023,2.684-1.789,4.09a15.944,15.944,0,0,0-1.023,6.775,1.149,1.149,0,0,0,.95,1.06c0.514,0,1.132-.584,1.606-2.21,0,0,1.406-4.091,1.917-6.136s3.451-6.9,3.2-8.053c-0.209-.941-1.958-1.027-2.588-1.027-0.14,0-.225,0-0.225,0s1.151-7.414,1.151-8.948-0.511-5.5-4.474-5.5L77.94,76.007a2.655,2.655,0,0,0,2.685-2.556l0.128-1.406a9.588,9.588,0,0,0,1.278-3.579,21.743,21.743,0,0,1,0-4.09A3.788,3.788,0,0,0,80.5,60.413c-1.662-1.278-3.707-3.834-5.88-3.834a91.014,91.014,0,0,0,.255-9.587s4.091-2.3,5.241-6.392a22.955,22.955,0,0,0,.894-7.286"/>
  <path class="cls-8" d="M65.75,50.813a4.89,4.89,0,0,0,4.375,2.375C73,52.938,75,48.438,75,46.938s-1-7.625-3.375-7.5A4.111,4.111,0,0,0,69,42.188C68.5,43.438,66.25,49.563,65.75,50.813ZM60,42.438s2.875,3.625,3.625,4.75S66.5,50.563,65,51.688s-4.875,1-6.25-1a7.564,7.564,0,0,1-.875-6.125C58.375,43.438,58.75,41.813,60,42.438Zm8.5-8.25s1.25-.875,1.75,0,2-.25,2-0.25l1.5-.875a20.85,20.85,0,0,1,6.875-13.875s-5.375.375-9,6.375S68.5,34.188,68.5,34.188Zm-1.625-16S63.25,24.063,63,27.438a31.843,31.843,0,0,0,.875,8s-2.25-1.125-3.125-.125A19.393,19.393,0,0,1,59,37.063l-1.25-.5S56.25,29.938,59,24.688A13.277,13.277,0,0,1,66.875,18.188ZM68.2,61.8a2.852,2.852,0,0,0,.6,2c0.8,1.4,2.2,2.317,3.2,1.65s1.833,0.167,2.833-.167-1-2.833-1.333-4.667-0.167-2.5-1-1.333S69.533,62.133,68.2,61.8ZM65.333,77.783c-1.688,1.982-2.833,3-3.167,5.667s-0.833,7.833,3.167,8.167S70,88.95,71.5,87.783s2.167-1.333,2.167-3.333,1-4.833-.667-6.667S69.167,73.283,65.333,77.783Z"/>
  <path class="cls-6" d="M68.391,48.667a0.326,0.326,0,0,0,.022.1l0-.022-0.005-.026-0.015-.053m-0.4.724L68.008,49.4l0.019,0.007,0.029,0.008a0.123,0.123,0,0,0-.067-0.025m-2.088,5.6a0.7,0.7,0,0,0-.518.213,0.751,0.751,0,0,0,0,1.04,10.274,10.274,0,0,0,2.7,2.07,0.809,0.809,0,0,0,.376.092,0.7,0.7,0,0,0,.63-0.356c0.057-.1.116-0.206,0.18-0.305,0.032-.05.065-0.1,0.1-0.147l0.089-.121,0.067-.081c0.038-.045.077-0.09,0.117-0.133,0.087-.095.177-0.185,0.271-0.273a0.735,0.735,0,0,0,.152-0.8,0.752,0.752,0,0,0-.672-0.452l-2.659-.218c-0.105-.1-0.215-0.2-0.316-0.313a0.714,0.714,0,0,0-.522-0.213M66.887,81.58a0.71,0.71,0,0,0-.189.025,0.75,0.75,0,0,0-.439.338,0.742,0.742,0,0,0-.074.567,0.772,0.772,0,0,0,.338.439l0,0a1.552,1.552,0,0,0-.19-0.012,1.967,1.967,0,0,0-.383.041,0.735,0.735,0,0,0-.175,1.344,0.781,0.781,0,0,0,.372.093l0.069,0a1,1,0,0,1,.1-0.005c0.049,0,.1,0,0.146.008a4.26,4.26,0,0,0,.624.08h0.025a1.3,1.3,0,0,0,.918-0.362,1.248,1.248,0,0,0,.3-0.515,1.46,1.46,0,0,0,.05-0.306,0.707,0.707,0,0,0,0-.135,1.988,1.988,0,0,0-.046-0.311,1.78,1.78,0,0,0-.112-0.287,1.548,1.548,0,0,0-.263-0.376,2.314,2.314,0,0,0-.4-0.334c-0.1-.07-0.2-0.131-0.3-0.192a0.753,0.753,0,0,0-.377-0.1m-8.213,19.154h0l0,0,0,0M58.26,99.383a0.583,0.583,0,0,0-.349.1,5.7,5.7,0,0,0-1.321,1.359,5.248,5.248,0,0,0-.728,1.594,0.744,0.744,0,0,0,.513.9,0.789,0.789,0,0,0,.18.021,0.734,0.734,0,0,0,.724-0.534c0.033-.122.07-0.242,0.112-0.36,0.018-.051.038-0.1,0.057-0.151l0.019-.042a4.664,4.664,0,0,1,.37-0.657l0.083-.119,0,0s0.014-.018.047-0.064l-0.006.007,0.029-.039-0.023.032c0.077-.1.158-0.188,0.242-0.277s0.168-.169.256-0.249c0.049-.044.1-0.088,0.151-0.129l0.011-.009a0.279,0.279,0,0,1,.026-0.021l0.021-.018h0l0,0h0a0.78,0.78,0,0,0,.317-0.422,0.736,0.736,0,0,0-.513-0.9,1,1,0,0,0-.217-0.025m0.415,1.35,0,0h0m-0.005,0-0.017.014,0,0-0.026.021c-0.02.017-.04,0.035-0.039,0.035s0.023-.018.085-0.072m-0.02.016a0.279,0.279,0,0,0-.026.021l0.026-.021m9.6-2a6.294,6.294,0,0,1-1.8-.257,7.264,7.264,0,0,1-2.943-1.884,14.411,14.411,0,0,1-4.074-5.726,11.364,11.364,0,0,1,.063-6.646c0.692-2.292,2.249-4.217,2.743-6.558a8.261,8.261,0,0,0,3.711-1.536c1.079-.744,2.134-1.486,3.276-2.119a26.485,26.485,0,0,0,7.681,2.427c0.247,0.037.5,0.077,0.757,0.108l0.02,0.109a5.233,5.233,0,0,0,.668,1.405c0.1,0.139.2,0.273,0.3,0.405l0.059,0.057a8.514,8.514,0,0,0-3.044,2.9,0.683,0.683,0,0,0,.652,1.06,0.748,0.748,0,0,0,.617-0.318c0.786-1.073,1.849-2.525,3.328-2.531h0.009c1.515,0,2.54,1.473,2.866,2.8a14.607,14.607,0,0,1-.132,5.393A45.719,45.719,0,0,1,81.887,93.3a1.29,1.29,0,0,0-.164,1.221,0.9,0.9,0,0,0,.29.332,0.835,0.835,0,0,0,.635.308,0.684,0.684,0,0,0,.6-0.347,2.718,2.718,0,0,1,1.07-1.2,0.8,0.8,0,0,1,.3-0.069,0.606,0.606,0,0,1,.5.739,7.932,7.932,0,0,1-1.284,3.52c-1.124,2.076-2.479,4.083-2.922,6.443a0.728,0.728,0,0,0,.148.609,10.06,10.06,0,0,1-.234,1.421,1.263,1.263,0,0,1-.928,1,2.773,2.773,0,0,1-.7.168,0.494,0.494,0,0,1-.112-0.012,1.576,1.576,0,0,1-.04-0.186,4.308,4.308,0,0,1-.05-0.485,6.593,6.593,0,0,1,1.019-3.937,7.693,7.693,0,0,0,1.508-3.278A6.578,6.578,0,0,0,81.591,97a1.46,1.46,0,0,0-.661-0.989,0.945,0.945,0,0,0-.472-0.128,1.54,1.54,0,0,0-.955.43,15.379,15.379,0,0,1-2.061,1.5,2.273,2.273,0,0,1-.431.224c-0.031.011-.184,0.035-0.171,0.039H76.724L76.7,98.07a1.033,1.033,0,0,1-.57-0.37,2.4,2.4,0,0,1-.165-2.056c0.044-.069.09-0.136,0.132-0.2a0.725,0.725,0,0,0-.671-1.088,0.7,0.7,0,0,0-.1.007h0a0.675,0.675,0,0,0-.678.516c-0.014.051-.027,0.1-0.041,0.154a8.2,8.2,0,0,1-4.769,3.535,6.752,6.752,0,0,1-1.593.192M63.206,69.781c0.078-.089.157-0.176,0.235-0.264,0.143,0.087.283,0.178,0.418,0.278a5.525,5.525,0,0,1,.818.811,0.355,0.355,0,0,0,.054.067L64.75,70.7l-0.019-.024c0.022,0.022.046,0.042,0.069,0.063q-0.221.184-.439,0.372a1.444,1.444,0,0,0-.694-1.231,1.023,1.023,0,0,0-.449-0.1H63.206m2.731,0.069a6.3,6.3,0,0,0-.858-0.949,6.708,6.708,0,0,0-.64-0.491c0.25-.27.5-0.54,0.758-0.8a9.892,9.892,0,0,1,1.622-1.374,5.874,5.874,0,0,1,.917-0.5,2.188,2.188,0,0,1,.693-0.231,0.251,0.251,0,0,1,.13.03,0.706,0.706,0,0,0,.368.11,0.632,0.632,0,0,0,.221-0.04l0.015,0.015a5.308,5.308,0,0,0,1.96,1.145,2.064,2.064,0,0,0,.553.079,1.4,1.4,0,0,0,.634-0.139,1.05,1.05,0,0,0,.482-0.489l0.1,0.048a4.507,4.507,0,0,0,.713.317,3.309,3.309,0,0,0,.589.129,5.759,5.759,0,0,0-.189.687q-0.292-.013-0.584-0.013a12.656,12.656,0,0,0-5.142,1.091,12.933,12.933,0,0,0-2.342,1.38m3.009-7.885a5.558,5.558,0,0,0,3.43-1.256,6.277,6.277,0,0,0,.578-0.528,19.169,19.169,0,0,0,.548,2.065c0.21,0.638.456,1.264,0.725,1.88q0.2,0.451.416,0.891c0.043,0.086.088,0.171,0.132,0.257l-0.087,0a2.011,2.011,0,0,1-.5-0.061C73.753,65.1,73.4,64.808,72.973,64.7a1.426,1.426,0,0,0-.356-0.046,1.078,1.078,0,0,0-.962.517h0s-0.037.085-.075,0.175c-0.1-.028-0.254-0.063-0.292-0.079a4.665,4.665,0,0,1-2.641-3.305q0.149,0.009.3,0.009M61.905,76.242c-0.1,0-.191,0-0.288-0.012a2.19,2.19,0,0,1-1.987-1.282,4.382,4.382,0,0,1-.108-1.65c0.029-.681.063-1.362,0.095-2.043,0.116-2.483.111-5.005,0.394-7.476a6.518,6.518,0,0,1,1.12-3.256,3.863,3.863,0,0,1,2.724-1.461,8.4,8.4,0,0,0,3.26,2.543v0a6.367,6.367,0,0,0,.818,2.5,5.655,5.655,0,0,0-1.287.519,8.254,8.254,0,0,0-1.405.95,3.546,3.546,0,0,0-.121-0.539,3.945,3.945,0,0,0-.934-1.564,0.741,0.741,0,0,0-.528-0.212,0.688,0.688,0,0,0-.511.212,0.749,0.749,0,0,0,0,1.039c0.069,0.071.131,0.147,0.2,0.221L63.387,64.8q0.047,0.069.089,0.141a3.145,3.145,0,0,1,.156.295l0.006,0.013v0c0.023,0.058.044,0.117,0.063,0.177a3.127,3.127,0,0,1,.085.323L63.8,65.822l0,0.026,0.008,0.083a3.054,3.054,0,0,1,.01.354c0,0.056,0,.111-0.01.166l-0.008.083v0.007a0.859,0.859,0,0,0,.019.368c-1.075,1.109-2.066,2.313-3.085,3.464a0.734,0.734,0,0,0-.189.411,0.743,0.743,0,0,0,.535,1.269,0.769,0.769,0,0,0,.34-0.082c0.12-.059.99-0.379,1.438-0.567,0.007,0.115.013,0.23,0.02,0.345q0.028,0.477.055,0.953a0.744,0.744,0,0,0,1.255.52,18.805,18.805,0,0,1,4.631-3.394,11.041,11.041,0,0,1,4.623-.98c0.135,0,.269,0,0.4.007,0,0.135,0,.27,0,0.405a8.984,8.984,0,0,0,.127,1.229,0.786,0.786,0,0,0-.181.037,29.549,29.549,0,0,0-6.525,2.924c-1.624,1.023-3.328,2.792-5.371,2.792m13.8-3.1a0.819,0.819,0,0,0,.554-0.22,0.754,0.754,0,0,0,.115-0.891,0.974,0.974,0,0,0-.386-0.385,3.822,3.822,0,0,1-.671-2.49,4.829,4.829,0,0,1,.526-2.61,0.958,0.958,0,0,0,.618-0.657,2.414,2.414,0,0,0-.522-1.549,18.652,18.652,0,0,1-1.8-5.79,8.927,8.927,0,0,0,.6-1.38,4.436,4.436,0,0,1,2.667,1.392,32.035,32.035,0,0,0,2.47,2.567,0.9,0.9,0,0,0,.49.2A2.749,2.749,0,0,1,81.5,63.017c0.127,1.011-.423,2.056-0.532,3.054-0.117,1.058.275,2.08,0.184,3.138a4.492,4.492,0,0,1-.987,2.414,0.566,0.566,0,0,0-.268.333,0.708,0.708,0,0,0-.011.751,3.049,3.049,0,0,1-.763,2.266,0.983,0.983,0,0,1-.657.2,5.606,5.606,0,0,1-.674-0.065c-0.561-.068-1.119-0.163-1.674-0.273a25.244,25.244,0,0,1-5.2-1.646c1.067-.473,2.163-0.878,3.272-1.244a0.765,0.765,0,0,0,.213-0.112,3.514,3.514,0,0,0,.5.753,0.656,0.656,0,0,0,.331.325c0.047,0.041.087,0.086,0.138,0.125a0.544,0.544,0,0,0,.337.1M69.678,53.987a5,5,0,0,0,4.3-2.613,13.72,13.72,0,0,1-1.014,6.388,0.656,0.656,0,0,0-.315.553,4.818,4.818,0,0,1-2.415,1.966,3.415,3.415,0,0,1-1.2.22,5.35,5.35,0,0,1-3.727-1.995c-0.108-.118-0.21-0.241-0.314-0.363a0.689,0.689,0,0,0-.412-0.514,14.718,14.718,0,0,1-2.136-4,3.838,3.838,0,0,0,1.1-.3,3.964,3.964,0,0,0,1.916-1.806,4.87,4.87,0,0,0,3.864,2.451q0.181,0.013.358,0.013m-2.129-5.079c-0.018-.053-0.033-0.106-0.045-0.16l0-.026c0-.055-0.006-0.109,0-0.165a0.67,0.67,0,0,0-.083-0.329l0.006-.009,0.089-.016,0.119-.029,0.121,0,0.035,0a2.134,2.134,0,0,1,.222.059,1.52,1.52,0,0,1,.137.077l0.022,0.015,0.06,0.052L68.3,48.468l0.013,0.02L68.373,48.6l0.018,0.068,0.018,0.058,0,0.022,0.009,0.046-0.007-.024,0.008,0.12-0.006.027-0.011.054a1.623,1.623,0,0,1-.044.16l0,0.009-0.053.1-0.025.045-0.062.067-0.067.06-0.025.015H68.09l-0.034-.009h0l-0.037-.009L68.008,49.4l-0.049-.017,0.03,0.007-0.105-.059L67.835,49.3l-0.015-.01-0.073-.074-0.073-.082-0.039-.06-0.064-.115a0.044,0.044,0,0,0,.009.013,0.259,0.259,0,0,0-.03-0.063l0,0.008,0.017,0.038-0.009-.016-0.033-.071,0.023,0.041m-4.342-.13H63.1l-0.033-.008h0l-0.015-.008L63,48.71l-0.023-.036,0-.008c-0.018-.06-0.03-0.121-0.043-0.181a2.852,2.852,0,0,1,.013-0.545c0.012-.082.028-0.163,0.045-0.244,0.089,0.094.181,0.186,0.274,0.278a0.764,0.764,0,0,0,.03.527l0.012,0.055v0.111l0,0.019-0.01.031-0.012.018,0,0-0.012.011-0.039.023-0.007,0-0.01,0M61.99,52.21a3.585,3.585,0,0,1-2.724-1.86,6.814,6.814,0,0,1-.025-7.238l0.022-.044h0.055a0.71,0.71,0,0,1,.119.009,1.635,1.635,0,0,1,.89.679c0.629,0.812,1.059,1.779,1.62,2.638l0.034,0.047a1.988,1.988,0,0,0-.432.984,3.707,3.707,0,0,0-.031,1.5,1.726,1.726,0,0,0,1.094,1.248,1.512,1.512,0,0,0,.527.092,1.673,1.673,0,0,0,1.164-.467,1.581,1.581,0,0,0,.3-0.425,0.848,0.848,0,0,1,.079.2,0.9,0.9,0,0,0-.246.539,2.012,2.012,0,0,1-.139.512l-0.157.211a0.561,0.561,0,0,0-.1.264,2.68,2.68,0,0,1-1.761,1.1,2.113,2.113,0,0,1-.292.02M75.2,45.851c0-.057,0-0.114,0-0.171a16.063,16.063,0,0,0,4.224-4.248A8.092,8.092,0,0,1,75.2,45.851M68.14,50.9a1.365,1.365,0,0,0,.789-0.243,2.219,2.219,0,0,0,.951-1.728,2.067,2.067,0,0,0-.7-1.661,2.389,2.389,0,0,0-.921-0.483c0.348-.71.64-1.452,0.915-2.192a28.669,28.669,0,0,1,1.1-2.73,2.645,2.645,0,0,1,.81-1.146,0.671,0.671,0,0,1,.353-0.1,1.2,1.2,0,0,1,.8.44,6.112,6.112,0,0,1,1.277,2.907,10.716,10.716,0,0,1,.172,3.378c-0.2,1.983-.909,4.424-3.058,5.036a3.413,3.413,0,0,1-4.3-2.618,2.285,2.285,0,0,0,.433.554,2.107,2.107,0,0,0,1.377.589M56.014,45.181a0.705,0.705,0,0,0,.744-0.914A8.949,8.949,0,0,1,56.3,38.4a5.883,5.883,0,0,1,.443-1.047c0.026,0.132.054,0.259,0.065,0.355q0.2,1.754.4,3.508l-0.087,1.976a0.7,0.7,0,0,0,.2.5,8.3,8.3,0,0,0-.573,3C55,46.451,54.1,44.569,53.994,42.948a9.165,9.165,0,0,1,.179-2.587,10.729,10.729,0,0,0,1.241,4.473,0.653,0.653,0,0,0,.6.347m19.443-1.524a14.771,14.771,0,0,0,.744-4.4,12.582,12.582,0,0,0,3.911-3.433,12.882,12.882,0,0,1-4.655,7.837m-4.55-7.8a0.614,0.614,0,0,0,.489-0.217c0.362-.447,1.105-1.4,1.811-1.4a0.761,0.761,0,0,1,.465.159c0.728,0.542.852,2.054,0.961,2.863a12.73,12.73,0,0,1,.1,1.3,0.676,0.676,0,0,0,.008.45,13.557,13.557,0,0,1-.336,2.912c-0.071-.18-0.135-0.363-0.216-0.538a3.48,3.48,0,0,0-2.6-2.256q-0.083-.006-0.163-0.006c-1.223,0-1.98,1.051-2.471,2.066-1.115,2.3-1.565,5.107-3.4,6.974-0.072-.088-0.147-0.174-0.226-0.256-0.43-.445-0.939-0.8-1.356-1.262a10.082,10.082,0,0,1-1.149-1.629c-0.65-1.082-1.234-2.463-2.379-3.116a2.3,2.3,0,0,0-1.134-.3q-0.068,0-.136,0a9.67,9.67,0,0,1,.493-3.583,3.452,3.452,0,0,1,1.092-1.785,1.048,1.048,0,0,1,.606-0.214,2.289,2.289,0,0,1,1.049.43,1.994,1.994,0,0,0,.985.288,1.885,1.885,0,0,0,1.657-1.267,1.48,1.48,0,0,1,.979-1.1,0.88,0.88,0,0,1,.151-0.013,0.955,0.955,0,0,1,.915.925,0.736,0.736,0,0,0,.765.709,0.668,0.668,0,0,0,.7-0.709,0.793,0.793,0,0,1,.742-0.846h0.007a0.943,0.943,0,0,1,.843.865,0.735,0.735,0,0,0,.739.541m0.153-2.027a2.321,2.321,0,0,0-1.629-.842,20.654,20.654,0,0,1,3.51-7.91c1.455-2,3.509-4.205,5.976-4.971A13.393,13.393,0,0,0,77.586,21.8a40.766,40.766,0,0,0-2.311,3.6,14.762,14.762,0,0,0-2.083,7.4,3.267,3.267,0,0,0-2.132,1.04m-12.221,2.49a19.28,19.28,0,0,1,1.222-10.935,14.487,14.487,0,0,1,5.34-6.25,18.979,18.979,0,0,0-2.34,16.032c-0.2-.128-0.417-0.3-0.512-0.348a2.374,2.374,0,0,0-1.1-.28,3.262,3.262,0,0,0-2.612,1.781m7.908-19.464a0.792,0.792,0,0,0-.317.068,15.359,15.359,0,0,0-7.714,7.89A20.6,20.6,0,0,0,57.243,35.4a1.078,1.078,0,0,0-.289-0.044h0a1.884,1.884,0,0,0-1.482,1.251l-0.054.111a0.633,0.633,0,0,0-.257-0.057,0.605,0.605,0,0,0-.357.12c-1.994,1.431-2.5,4.243-2.241,6.553,0.265,2.357,1.791,4.672,4.323,4.837a8.18,8.18,0,0,0,.509,1.75,6.276,6.276,0,0,0,3.449,3.531,16.72,16.72,0,0,0,2.048,4.288,5.688,5.688,0,0,0-3.955,3.967,14.963,14.963,0,0,0-.508,3.612c-0.076,1.5-.14,2.995-0.21,4.492-0.068,1.459-.245,2.961-0.176,4.421A3.394,3.394,0,0,0,59.605,77.1a4,4,0,0,0,1.176.5A10.923,10.923,0,0,1,59.7,80.214a5.567,5.567,0,0,0-2.039-.388A5.75,5.75,0,0,0,52.4,83.343c-1.391,3.223-.217,7.274,1.885,9.933a8.474,8.474,0,0,0,1.481,1.456,0.979,0.979,0,0,0-.034.133L55.4,97.942a6.935,6.935,0,0,0-2.521,3.181c-0.976,2.337-.918,4.918-1.607,7.331a0.7,0.7,0,0,0,.71.9,0.75,0.75,0,0,0,.633-0.337,7.227,7.227,0,0,1,1.926-1.93,0.771,0.771,0,0,0-.359-1.4,0.68,0.68,0,0,0-.383.128c-0.205.14-.4,0.29-0.59,0.443a25.51,25.51,0,0,1,.747-3.821,6.724,6.724,0,0,1,1.219-2.367,2.875,2.875,0,0,1,1.959-1.185,1.422,1.422,0,0,1,.335.04,0.81,0.81,0,0,0,.191.024,0.737,0.737,0,0,0,.2-1.441,3.024,3.024,0,0,0-.718-0.086q-0.109,0-.217.007l0.2-1.848a9.06,9.06,0,0,0,1.854.712,0.8,0.8,0,0,0,.2.027,0.74,0.74,0,0,0,.189-1.444c-3.591-.933-5.93-4.556-6.1-8.175a5.511,5.511,0,0,1,1.739-4.519,3.993,3.993,0,0,1,2.578-.911,4.288,4.288,0,0,1,1.433.246A15.219,15.219,0,0,0,58,84.135a12.7,12.7,0,0,0,.079,7.328A16.178,16.178,0,0,0,62.62,97.8a7.954,7.954,0,0,0,7.018,2.3,8.917,8.917,0,0,0,4.819-2.578l0.024,0.105a2.714,2.714,0,0,0,1.606,1.787,1.807,1.807,0,0,0,.667.127,3.425,3.425,0,0,0,1.783-.679c0.142-.092,1.106-0.769,1.657-1.2C80.2,97.778,80.2,97.889,80.2,98c0,0.165-.013.328-0.025,0.49a0.9,0.9,0,0,0-.09.574l0.006,0.1c-0.018.1-.029,0.207-0.053,0.31a0.8,0.8,0,0,0,0,.332,5.061,5.061,0,0,1-.742,1.459,11.89,11.89,0,0,0-1.265,2.263,8.641,8.641,0,0,0-.495,3.65,0.606,0.606,0,0,0-.251.542,40.677,40.677,0,0,0,.874,4.893,0.73,0.73,0,0,0,.711.533,0.761,0.761,0,0,0,.1-0.006,0.744,0.744,0,0,0,.637-0.723,5.235,5.235,0,0,1,.095-0.65,7.466,7.466,0,0,1,.2-0.786c0.037-.119.076-0.229,0.116-0.337a1.787,1.787,0,0,0,.718.284,1.055,1.055,0,0,0,.165.013,0.738,0.738,0,0,0,.765-0.722,16.987,16.987,0,0,0,.079-2.483,2.251,2.251,0,0,0,.2-0.306,3.525,3.525,0,0,0,.257-0.655,0.761,0.761,0,0,0,.091-0.207,30.26,30.26,0,0,1,2.306-6.121c0.9-1.759,2.055-3.492,2.16-5.524,0.077-1.49-.878-3.344-2.479-3.344a2.231,2.231,0,0,0-.478.053,46.829,46.829,0,0,0,.8-4.741c0.236-2.04.433-4.255-.532-6.15a4.478,4.478,0,0,0-3.8-2.545q-0.1,0-.2.006a0.761,0.761,0,0,0-.087-0.538,0.791,0.791,0,0,0-.347-0.312,4.637,4.637,0,0,1-.424-0.748l-0.024-.066a2.046,2.046,0,0,0,1.132-.7,4.994,4.994,0,0,0,1.027-3.343A5.958,5.958,0,0,0,82.566,69.7c0.191-1.295-.331-2.564-0.083-3.841,0.233-1.2.745-2.387,0.345-3.612a5.732,5.732,0,0,0-2.279-2.618,0.689,0.689,0,0,0-.284-0.132c-0.7-.7-1.3-1.491-2.021-2.169a5.838,5.838,0,0,0-3.136-1.584,25,25,0,0,0,.185-6.812,0.735,0.735,0,0,0-.281-0.532c0.054-.315.1-0.631,0.131-0.951a9.652,9.652,0,0,0,6.307-9.918,0.93,0.93,0,0,0-.107-0.348,12.165,12.165,0,0,0,.326-4.225A0.9,0.9,0,0,0,80.83,32.2a0.561,0.561,0,0,0-.53.377,11.3,11.3,0,0,1-4.168,4.993,14.518,14.518,0,0,0-.326-1.988,4.43,4.43,0,0,0-1.111-2.214,12.926,12.926,0,0,1,1.85-7.234c0.6-1.084,1.285-2.119,1.989-3.137a7.4,7.4,0,0,1,2.372-2.584,0.655,0.655,0,0,0,.335-0.381l0.012-.009,0.008-.008A0.733,0.733,0,0,0,81.45,19.7a0.55,0.55,0,0,0,.018-0.234v-0.02l-0.027-.2,0-.008-0.074-.177v0l0-.007-0.015-.021a0.672,0.672,0,0,0-.691-0.671H80.643c-3.619.045-6.541,2.8-8.618,5.509a21.725,21.725,0,0,0-4.187,9.618l-0.008.118-0.007.006a2.335,2.335,0,0,0-1.648-.7,2.365,2.365,0,0,0-.838.156,2.338,2.338,0,0,0-1.1.859,17.477,17.477,0,0,1,3.515-15.505,0.791,0.791,0,0,0-.393-1.259,0.811,0.811,0,0,0-.618-0.3"/>
  <path class="cls-6" d="M98.5,127.312s4.625-3.687,5.375-8.875c0,0-.125,5.125-3.375,8.125Z"/>
  <path class="cls-6" d="M39.375,107.062s-0.5-5.125,2.625-8.624l-3,2.624A9.75,9.75,0,0,0,39.375,107.062Z"/>
</svg>
