<svg id="usa_normandy_pilot_fighter_2_icon" xmlns="http://www.w3.org/2000/svg" width="150" height="150" viewBox="0 0 150 150">
  <defs>
    <style>
      .cls-1 {
        fill: #d8c0ac;
      }

      .cls-1, .cls-2, .cls-3, .cls-4, .cls-5, .cls-6, .cls-7, .cls-8, .cls-9 {
        fill-rule: evenodd;
      }

      .cls-2 {
        fill: #e2991a;
      }

      .cls-3 {
        fill: #f2f2f2;
      }

      .cls-4 {
        fill: #2d80d5;
      }

      .cls-5 {
        fill: #f9be20;
      }

      .cls-6 {
        fill: #282625;
      }

      .cls-7 {
        fill: #e86f33;
      }

      .cls-8 {
        fill: #163dad;
      }

      .cls-9 {
        fill: #dc3333;
      }
    </style>
  </defs>
  <path id="Shape_169_copy" data-name="Shape 169 copy" class="cls-1" d="M146.362,75A71.362,71.362,0,1,1,75,3.638,71.362,71.362,0,0,1,146.362,75Z"/>
  <path id="Shape_169_copy_2" data-name="Shape 169 copy 2" class="cls-2" d="M75,148.623A73.623,73.623,0,1,1,148.623,75,73.706,73.706,0,0,1,75,148.623ZM75,5.9A69.1,69.1,0,1,0,144.1,75,69.18,69.18,0,0,0,75,5.9Z"/>
  <path id="Shape_169_copy_3" data-name="Shape 169 copy 3" class="cls-3" d="M73.812,133.972a27.142,27.142,0,0,0,18.333,2.74c10.536-2.107,12.643-9.483,12.643-9.483s6.322,0.843,7.165-4.214-1.9-6.954-4.214-7.8c0,0,2.318-7.375-2.74-9.9s-11.053,4.37-11.053,4.37-13.391,2.584-15.709,2.162-10.958-1.9-14.119.211-2.529,7.8-.843,12.222S73.812,133.972,73.812,133.972Z"/>
  <path id="Shape_169_copy_4" data-name="Shape 169 copy 4" class="cls-4" d="M86.755,138.423A27.522,27.522,0,0,1,73.2,134.977c-0.491-.293-9.227-5.559-11.025-10.279-1.788-4.694-2.523-11.077,1.29-13.619,3.035-2.023,9.822-1.329,14.981-.389,1.5,0.273,9.761-1.107,14.893-2.087,1.33-1.415,6.991-6.937,12.184-4.341,4.7,2.348,4.09,7.93,3.6,10.264,3.3,1.595,4.673,4.575,3.989,8.682-0.725,4.345-4.832,5.319-7.541,5.26-0.965,2.183-4.213,7.6-13.2,9.4A28.669,28.669,0,0,1,86.755,138.423Zm-12.324-5.451a26.181,26.181,0,0,0,17.483,2.586c9.642-1.928,11.664-8.384,11.745-8.658l0.286-.963,1,0.127c0.21,0.024,5.2.62,5.849-3.243,0.562-3.371-.536-5.436-3.457-6.5l-1.056-.385,0.337-1.072c0.02-.063,1.949-6.453-2.144-8.5-4.124-2.063-9.585,4.027-9.639,4.09l-0.267.3-0.4.078c-2.272.438-13.728,2.61-16.142,2.164-6.5-1.182-11.452-1.17-13.256.033-2.477,1.651-1.942,6.768-.4,10.824,1.262,3.313,7.675,7.693,10.04,9.1Z"/>
  <path id="Shape_169_copy_6" data-name="Shape 169 copy 6" class="cls-5" d="M106.939,56.419l-0.518-1.9a0.783,0.783,0,0,0-.694-0.575,0.754,0.754,0,0,0-.08,0,0.772,0.772,0,0,0-.7.462L93.328,80.1,72.651,116.579l-0.574-2.525a0.782,0.782,0,0,0-.678-0.606,0.641,0.641,0,0,0-.076,0,0.8,0.8,0,0,0-.719.448l-7.739,16.356,5.174-22.473,1.852,2.248a0.777,0.777,0,0,0,.606.285A0.767,0.767,0,0,0,70.6,110.3a0.782,0.782,0,0,0,.61-0.461L79.97,89.881,88.1,78.911l0.078-.132,16.459-34.853,0.682,2.614a0.785,0.785,0,0,0,.666.581,0.765,0.765,0,0,0,.783-0.41l7.576-14.2ZM58.013,109.677a0.784,0.784,0,0,0-1.21.768l2.526,16.848-8.56-23.472,1.993,0.886a0.784,0.784,0,0,0,1.093-.833l-5.064-33.5,1.22,0.751a0.781,0.781,0,0,0,.409.115,0.784,0.784,0,0,0,.778-0.9L47.811,47.575l1.508,1.206a0.784,0.784,0,0,0,1.273-.662L49.177,25.809l7.159,23.568-1.355-1.016a0.784,0.784,0,0,0-1.252.681l0.413,5.973L56.3,72.43l-0.8-.867a0.784,0.784,0,0,0-1.352.642l5.479,38.547Z"/>
  <path id="Shape_169_copy_5" data-name="Shape 169 copy 5" class="cls-6" d="M118.273,25.1L107.641,59.454a0.822,0.822,0,0,1-.763.554,0.787,0.787,0,0,1-.743-0.579l-0.654-2.4L94.725,80.813l-21.706,38.3a0.759,0.759,0,0,1-.8.389,0.784,0.784,0,0,1-.65-0.6l-0.52-2.286-9.867,20.851a0.784,0.784,0,0,1-.709.449l-0.257-.045a0.782,0.782,0,0,1-.507-0.915l0.57-2.477L48.663,102.623a0.786,0.786,0,0,1,.2-0.842,0.8,0.8,0,0,1,.537-0.21,0.768,0.768,0,0,1,.317.068l2.372,1.054-5.1-33.754a0.785,0.785,0,0,1,1.187-.785L49.4,68.908,45.966,45.83a0.783,0.783,0,0,1,.385-0.794,0.789,0.789,0,0,1,.88.067l1.683,1.347L47.186,19.185a0.783,0.783,0,0,1,.643-0.821,0.753,0.753,0,0,1,.144-0.014,0.784,0.784,0,0,1,.745.558l9.815,32.307a0.784,0.784,0,0,1-1.22.855l-1.9-1.427L55.7,54.864l2.449,19.791a0.784,0.784,0,0,1-.448.809,0.775,0.775,0,0,1-.329.073,0.785,0.785,0,0,1-.577-0.253l-0.748-.81,5.371,37.791a0.784,0.784,0,0,1-1.21.762l-1.595-1.064,2.7,18.014,5.55-24.1a0.784,0.784,0,0,1,.584-0.587,0.751,0.751,0,0,1,.181-0.022,0.782,0.782,0,0,1,.6.286l2.053,2.492,8.28-18.871,0.087-.151,8.134-10.98L104.138,41.3a0.8,0.8,0,0,1,.728-0.447l0.053,0a0.783,0.783,0,0,1,.686.581l0.721,2.763,10.507-19.7A0.783,0.783,0,0,1,118.273,25.1ZM56.8,110.445a0.783,0.783,0,0,1,1.21-.768l1.61,1.074L54.145,72.2a0.784,0.784,0,0,1,1.352-.641l0.8,0.867L54.142,55.014l-0.413-5.973a0.784,0.784,0,0,1,1.252-.681l1.355,1.016L49.177,25.809l1.414,22.311a0.784,0.784,0,0,1-1.273.662l-1.508-1.206L51.2,70.342a0.786,0.786,0,0,1-1.187.784l-1.22-.751,5.064,33.5a0.784,0.784,0,0,1-1.093.833l-1.992-.886,8.56,23.472ZM106.765,46.71a0.783,0.783,0,0,1-.683.417,0.758,0.758,0,0,1-.1-0.007,0.784,0.784,0,0,1-.666-0.581l-0.682-2.614L88.175,78.779l-0.078.132L79.97,89.881,71.213,109.84a0.783,0.783,0,0,1-.61.461,0.768,0.768,0,0,1-.107.007,0.777,0.777,0,0,1-.606-0.285l-1.852-2.248-5.174,22.473L70.6,113.892a0.8,0.8,0,0,1,.719-0.448,0.639,0.639,0,0,1,.075,0,0.783,0.783,0,0,1,.678.606l0.574,2.525L93.328,80.1,104.95,54.4a0.772,0.772,0,0,1,.7-0.462,0.753,0.753,0,0,1,.08,0,0.783,0.783,0,0,1,.694.575l0.518,1.9,7.4-23.913Z"/>
  <path class="cls-7" d="M94.314,100.079c-0.92,1.738-.511,5.01-0.511,5.623s1.636,3.68,1.738,5.01-0.716,2.556-1.738,4.089-2.965,3.578-4.6,3.681a5.438,5.438,0,0,1-3.272-1.329,4.214,4.214,0,0,1-2.965.409c-1.227-.512-3.578-2.148-3.681-2.659s1.227-.92,1.227-0.92c-1.738-2.249-1.022-3.885-1.022-3.885-5.112-2.249-7.259-4.907-7.668-5.418a1.288,1.288,0,0,1-.2-1.739c0.511-.511.716-0.2,0.409-0.511a2.33,2.33,0,0,1-.511-2.044,1.609,1.609,0,0,1,1.329-.614c0.307-.1-0.1-0.818-0.2-1.534s1.227-.716,1.533-0.613,3.067,1.329,3.272,1.738a7.678,7.678,0,0,0,1.534,1.329s0.511-1.431.818-2.147a5.145,5.145,0,0,1,1.534-1.534c1.329,1.431,5.419,1.227,5.419,1.227a5.493,5.493,0,0,1-.409,1.534,16.158,16.158,0,0,0-1.329,2.658c-0.1.614,0.716,1.432,1.227,2.045s0.613,1.636.511,3.272a2.991,2.991,0,0,1-1.636,2.351,9.239,9.239,0,0,0,2.658.2c0.614-.2.716-1.023,0.511-1.841a42.462,42.462,0,0,1-1.022-5.418,10.359,10.359,0,0,1,1.125-4.5,20.247,20.247,0,0,1,2.351-3.067,4.24,4.24,0,0,1,2.556-.1,7.963,7.963,0,0,1,2.454,1.738C95.95,97.523,95.235,98.341,94.314,100.079Zm-4.6-52.857a5.079,5.079,0,0,1-1.943,1.329c-0.511.307-2.351,2.658-3.272,3.578S78.774,55.3,76.73,55.3a4.488,4.488,0,0,1-3.169-1.227,1.984,1.984,0,0,1-.307-1.943,8.952,8.952,0,0,1,1.227-2.658,1.236,1.236,0,0,0,0-1.227,7.646,7.646,0,0,1-3.067-.511,4.44,4.44,0,0,1-2.352-2.147c-0.307-.613-1.227-2.658-1.227-2.658A8.389,8.389,0,0,1,66.3,40.883a4.155,4.155,0,0,1,.818-3.169c0.511-.409,1.431-0.2,2.351.716s2.352,2.76,2.352,2.76,1.022,0.2,1.84.409,2.249-1.431,2.76-1.943a2.221,2.221,0,0,1,2.249-.1,22.308,22.308,0,0,0,3.374.818s2.863,1.533,3.272,1.738A11.858,11.858,0,0,1,89.2,44.155,2.471,2.471,0,0,1,89.714,47.222Z"/>
  <path class="cls-8" d="M111.733,68.245c-0.409.2-1.84-.409-2.965-0.716a4.9,4.9,0,0,0-3.374.716,11.984,11.984,0,0,0-1.431,2.556,1.483,1.483,0,0,1-2.045.409c-0.613-.409-1.636-1.534-2.249-1.534S98.34,70.9,97.931,71.21,97.317,70.8,96.7,69.881s-5.01-2.351-6.85-3.067S84.333,66.3,84.333,66.3a10.084,10.084,0,0,0,.818,1.84,38.68,38.68,0,0,1,2.556,4.805c0.613,1.534.613,1.943-.1,3.272s-2.352,2.249-2.965,2.965-2.249,5.214-2.658,6.441a24.91,24.91,0,0,1-2.556,4.7c-0.511.613-2.147,1.431-3.067,1.022s-2.965-3.169-3.272-3.578,1.329-.613,1.738-0.818-0.2-1.636-.614-2.147A52.028,52.028,0,0,0,69,81.74c0.1-1.125,2.965-2.658,3.272-2.863a1.5,1.5,0,0,0,.2-1.534,26.211,26.211,0,0,1,.511-5.93,34.528,34.528,0,0,1,2.351-6.339c0.511-.614.511-0.818-0.1-1.227a4.273,4.273,0,0,1-1.227-3.067c0-1.227,1.125-1.534,1.943-2.454s4.805-2.147,5.419-2.249a53.114,53.114,0,0,1,7.361-.409c1.227,0.2,9.406,1.738,12.984,3.374s9.712,7.566,10.121,8.179S112.142,68.041,111.733,68.245ZM94.966,35.938c-1.329.716-2.147-.1-2.147-0.409A1.718,1.718,0,0,0,91.694,34.4c-0.614-.2-2.352.92-2.965,1.022s-0.511-.818-0.716-1.738a2.015,2.015,0,0,0-1.84-1.329,9.546,9.546,0,0,0-2.249.409c-0.613.2-2.147,2.863-2.249,3.169s-1.227.409-2.045,0.818a21.714,21.714,0,0,1-9,.409c-2.965-.716-2.045-2.147-2.045-2.147a4.594,4.594,0,0,1,1.84-2.76,16.4,16.4,0,0,1,4.4-.2,24.113,24.113,0,0,1,2.863,1.227c0.307,0.2-.2-2.863-0.2-2.863a14.182,14.182,0,0,1,12.984-4.7,23.289,23.289,0,0,1-.1,2.454,24.519,24.519,0,0,0,0,2.761,13.972,13.972,0,0,0,2.76-1.022,13.392,13.392,0,0,1,5.214-1.431c2.045-.1,1.227.307,1.738,1.431s-0.2,1.84-1.125,3.374S96.3,35.222,94.966,35.938ZM64.5,92.475a13.813,13.813,0,0,1-3.578-.409c-0.92-.409-0.716-1.942-0.716-1.942a8.412,8.412,0,0,0,2.556.716,11.492,11.492,0,0,0,3.783-.818c0.818-.511.409,0.409,0.307,0.818S64.5,92.475,64.5,92.475ZM63.681,65.689c-0.511.92-1.125,5.828-1.125,5.828a8.533,8.533,0,0,1-2.249-1.329c-0.92-.818-4.6-3.476-4.6-3.476,4.5-6.236,3.067-9,3.067-9a8.657,8.657,0,0,1,1.636-1.431c0.614-.307,2.658,1.636,3.783,2.556s2.454,1.738,2.249,2.351S64.192,64.769,63.681,65.689Zm-6.441,13.7c0.14,0.491.818-1.022,1.534-.716a3.365,3.365,0,0,1,1.636,1.738,2.927,2.927,0,0,1-.613,2.249,47.293,47.293,0,0,1-6.645,3.681,6,6,0,0,1-2.045-.613c-0.307-.2-2.147.511-2.658,0.1a4.321,4.321,0,0,1-.92-1.431L43.234,85.83S41.9,84.705,41.9,84.092a2.84,2.84,0,0,1,.511-1.329l7.872-2.454s-0.2-.307.511-0.818a28.255,28.255,0,0,1,4.4-1.534C55.809,77.753,56.831,77.958,57.24,79.389Z"/>
  <path class="cls-3" d="M107.29,82.262a33.711,33.711,0,0,0-1.738,3.783c-0.307.716-1.124,0.613-1.738,1.227s0,0.614.409,1.022,0,1.431-.1,2.045a3.175,3.175,0,0,1-1.534,1.534,13.218,13.218,0,0,0-2.453,3.374c-0.921,1.636-4.806,4.6-4.806,4.6a1.7,1.7,0,0,1-.818-1.125,4.357,4.357,0,0,1,.92-1.534c0.2-.2-2.352-1.84-3.169-2.045a2.8,2.8,0,0,0-2.352.818,7.357,7.357,0,0,0-1.84,2.658c-0.307.716-1.022,0.2-2.454,0s-4.805-1.534-6.032-3.169a12.791,12.791,0,0,1-1.738-4.5s0.818-.92,1.431-1.534a30.71,30.71,0,0,0,3.067-4.7c0.2-.613,1.943-5.316,2.249-6.134s2.556-2.351,2.965-2.658a12.984,12.984,0,0,1,2.454-.716,29.274,29.274,0,0,1,4.7.2,9.59,9.59,0,0,1,4.294,1.738c0.511,0.409,1.431,4.192,1.738,4.5s1.431-1.431,1.942-1.431a2.491,2.491,0,0,1,1.227.818,8.5,8.5,0,0,0,1.227-1.329,4.829,4.829,0,0,1,2.556-1.125,1.917,1.917,0,0,1,1.329,1.738C109.028,81.138,107.6,81.956,107.29,82.262ZM96.583,64.988L94.2,63.259l-2.38,1.729,0.909-2.8-2.38-1.729h2.941l0.909-2.8,0.909,2.8h2.941l-2.38,1.729ZM93.59,42.7c-0.2.307,0.2,1.431,0.1,2.147A8.164,8.164,0,0,1,92.261,47.5a0.941,0.941,0,0,0,.1,1.022,1.553,1.553,0,0,1-.92,1.329,22.9,22.9,0,0,1-3.476,1.431,10.666,10.666,0,0,0-.818,1.636A4.955,4.955,0,0,1,84.7,55.272c-0.716.1-3.987,0.409-3.987,0.409a0.877,0.877,0,0,1,.409-1.534,7.632,7.632,0,0,0,2.556-1.329,10.12,10.12,0,0,0,3.169-3.374c1.022-1.534.92-.716,1.329-0.818A2.261,2.261,0,0,0,89.4,47.3c0.307-.716-0.511-2.863-1.125-3.578a6.591,6.591,0,0,0-2.863-1.636c-1.022-.307-3.169-1.534-3.68-1.636s-2.76-.716-3.374-0.818-1.636.1-1.84-.409a3.752,3.752,0,0,1,.2-2.045c0.2-.818,1.329-0.409,1.943-0.716a20.92,20.92,0,0,0,2.965-1.329A22.794,22.794,0,0,1,84.8,32.064a2.76,2.76,0,0,1,2.454.511,9.717,9.717,0,0,1,1.431,2.556s1.738-.818,2.351-1.022a1.1,1.1,0,0,1,1.227.614,0.955,0.955,0,0,0,1.022.511,2,2,0,0,1,1.636.409,2.112,2.112,0,0,1-.1,1.431s0.614,0.511.92,0.716,0.1,1.431-.2,2.249A16.341,16.341,0,0,1,93.59,42.7ZM79.584,28.076c-0.655.578-3.987-10.837-3.987-10.837,0.409-.613,8.077-4.4,8.077-4.4s6.236-1.227,6.85-.409-0.307,12.677-.307,12.677S83.06,25.009,79.584,28.076ZM63.328,90.646a4.73,4.73,0,0,1-2.863-1.125,3.351,3.351,0,0,1-3.476-.1c-0.511-.409-1.533-1.125-1.533-1.125a5.247,5.247,0,0,1-1.022-.1,5.8,5.8,0,0,1-2.045-1.84c-0.2-.511,2.351-1.227,2.351-1.227s5.419-3.169,5.828-3.987,1.329-3.578,1.84-3.885,0.92,1.022,1.329,1.943-0.1,2.147.307,2.556a3.641,3.641,0,0,0,2.454.716c0.511-.2,2.249-1.329,2.249-1.329s3.783,2.454,4.09,2.76,2.556,2.249,2.351,2.658-3.476,1.125-4.089,1.329S64.759,90.544,63.328,90.646Zm2.556-11.962c-0.818-2.863-1.227-10.633-.716-12.269S66.6,62.224,68.44,61s4.5-2.454,4.907-2.249,1.227,0.307,1.022,1.329-0.307,2.045,0,2.351c0,0-.92-1.431-2.352,3.987A34.19,34.19,0,0,0,71.3,78.684c0.2,0.613-2.556,2.454-2.556,2.454S66.7,81.547,65.884,78.684ZM55.865,65.6a4.174,4.174,0,0,1-1.125-2.352c0-.511-0.2-2.76-0.1-3.067s-0.92.409-1.227,0.409a1.718,1.718,0,0,1-1.125-1.022,5.829,5.829,0,0,1,0-2.658c0.1-.511,2.045-1.943,2.556-2.249a5.222,5.222,0,0,1,2.454-.2A7.514,7.514,0,0,1,58.932,56.4a17.317,17.317,0,0,1,.511,2.454,18.791,18.791,0,0,1-1.329,3.783C57.705,63.348,55.865,65.6,55.865,65.6Zm-5.725-3.578a1.264,1.264,0,0,1,.409,1.125,3.386,3.386,0,0,1-1.125,1.534A3.059,3.059,0,0,1,49.73,65.8c0,0.511-.511.613-1.022,0.613s-1.738-1.534-1.738-1.534c-2.045-1.84-1.636-2.76-1.636-2.76s0.613-.511,0-0.818-0.307-1.636-.1-2.249,1.124-.409,1.124-0.716,0.511-.92,0-1.125a2.978,2.978,0,0,1-1.227-1.84c-0.1-.613.92-1.227,1.534-1.636s0.716,0,1.227.511a2.2,2.2,0,0,1,.409,1.533,5.89,5.89,0,0,0,.92.511,2.83,2.83,0,0,1,1.636,1.534c0.307,0.92-.511.92-0.307,1.227a1.9,1.9,0,0,1,.716,1.227A7.252,7.252,0,0,1,50.139,62.019Z"/>
  <path class="cls-9" d="M92.744,16.824c-0.307.818-2.965,8.384-2.965,8.384a12.181,12.181,0,0,0-3.118.1c0.409-1.534,1.482-13.291,1.482-13.291,0.511-.307,4.294.307,5.01,1.84S93.051,16.006,92.744,16.824Zm-13.5-1.943,5.112-2.249,0.767,13.035A14.27,14.27,0,0,0,81.345,27C81.345,22.8,79.249,14.881,79.249,14.881ZM77.2,30.114C76.693,29.4,73.217,20.1,73.217,20.1c0.2-.716,3.578-3.578,3.578-3.578,1.124,1.738,2.914,11.451,2.914,11.451A12.032,12.032,0,0,0,77.2,30.114ZM66.06,66.818c-1.533,7.259.818,11.757,1.84,14.313,0,0-.614,1.022-1.022.92s-1.943-1.022-2.965-3.885-1.738-7.361-1.124-10.428a17.708,17.708,0,0,1,4.4-7.872c1.227-1.022,4.907-2.556,6.236-1.329C73.421,58.537,67.594,59.559,66.06,66.818Zm7.668-6.339s-0.2,2.658,1.738,3.578A15.854,15.854,0,0,0,72.6,78.371L69.945,79.7a27.958,27.958,0,0,1-.511-12.064C70.661,61.3,73.728,60.479,73.728,60.479Z"/>
  <path class="cls-6" d="M112.511,67.574a0.593,0.593,0,0,1-.142.57,1.841,1.841,0,0,1-1.883.391c-0.769-.189-1.5-0.508-2.279-0.658a3.132,3.132,0,0,0-1.925.158,2.873,2.873,0,0,0-1.192,1.416c-0.539,1.032-1.276,2.254-2.6,2.24a2.459,2.459,0,0,1-1.55-.666,4.9,4.9,0,0,1-.656-0.706,3.354,3.354,0,0,0-.535-0.682c-0.424-.3-1.036.709-1.388,0.925a1.309,1.309,0,0,1-.488.186,0.5,0.5,0,0,1-.817.2,13.145,13.145,0,0,0-2.4-2.049,15.688,15.688,0,0,0-2.869-1.339,27.127,27.127,0,0,0-4.108-1.236q-1.511-.005-3.022-0.039c0.571,0.7,1.067,1.491,1.542,2.206a28.7,28.7,0,0,1,1.963,3.379,4.87,4.87,0,0,1,.569,3.162c0.248-.079.489-0.143,0.69-0.2a10.362,10.362,0,0,1,2.534-.347,12.974,12.974,0,0,1,5.08.812,6.739,6.739,0,0,1,3.5,3.073,7.514,7.514,0,0,1,.662,1.769,1.9,1.9,0,0,1,1.072-.587,2.178,2.178,0,0,1,1.864.633,4.413,4.413,0,0,1,2.691-2.021,2.38,2.38,0,0,1,2.905,1.5,1.43,1.43,0,0,1-.694,1.573,4.426,4.426,0,0,0-1.318,1.228,13.377,13.377,0,0,0-1.419,3.405,1.778,1.778,0,0,1-1.214,1.331,3.075,3.075,0,0,0-.654.241,0.972,0.972,0,0,1,.211.134,1.945,1.945,0,0,1,.324,1.871,4.148,4.148,0,0,1-1.649,2.968,6.315,6.315,0,0,0-.863.465,2.441,2.441,0,0,0-.445.86,11.936,11.936,0,0,1-.912,1.67,15.461,15.461,0,0,1-2.569,3.041,16.243,16.243,0,0,1-1.513,1.215,5.361,5.361,0,0,1-1.762.946,0.7,0.7,0,0,1-.681-0.236,10.658,10.658,0,0,0-.58,3.079,9.272,9.272,0,0,0,.34,2.893c0.3,1.036.837,1.974,1.183,2.991,0.756,2.222-.265,4.278-1.539,6.08-1.109,1.569-2.6,3.09-4.577,3.414a4.517,4.517,0,0,1-4.216-1.355,0.592,0.592,0,0,1-.418.46,5.29,5.29,0,0,1-4.044-.671,5.657,5.657,0,0,1-1.432-1.067,3.9,3.9,0,0,1-.548-0.728,1.692,1.692,0,0,1-.3-0.853,0.5,0.5,0,0,1,.537-0.455,1.88,1.88,0,0,0,.5-0.212,5.133,5.133,0,0,1-1.159-3.633A14.961,14.961,0,0,1,72.2,106.5a5.023,5.023,0,0,1-1.786-3.114,0.931,0.931,0,0,1,.6-0.985,2.2,2.2,0,0,1-.4-1.71,1.639,1.639,0,0,1,1.281-1.2l0.015,0a1.655,1.655,0,0,1-.165-0.778,1.82,1.82,0,0,1,1.6-1.64,4.231,4.231,0,0,1,2.9.984,9.042,9.042,0,0,1,1.937,1.786,5.486,5.486,0,0,1,.672-1.592,5.171,5.171,0,0,1,1-1.191c0.083-.071.173-0.15,0.267-0.228a9.311,9.311,0,0,1-2.608-5.077,1.281,1.281,0,0,1-.686.094,3.892,3.892,0,0,1-1.745-1,13.237,13.237,0,0,1-1.737-1.636,7.942,7.942,0,0,1-.907-1.14c-0.15.052-.3,0.1-0.45,0.153q-2.19.782-4.378,1.57l-0.059.022a0.737,0.737,0,0,1,.028.071c0.3,1.085-1.142,1.759-1.934,2.127a9.223,9.223,0,0,1-2.834.824,2.64,2.64,0,0,1-2.538-.907,3.21,3.21,0,0,1-.552-1.791,3.739,3.739,0,0,1-1.812.033,4.8,4.8,0,0,1-1.579-.62,2.012,2.012,0,0,1-.865-0.935,2.531,2.531,0,0,1-1.449-.094,3.183,3.183,0,0,1-1.48-1.215,3.034,3.034,0,0,1-.441-0.943,0.4,0.4,0,0,1-.135-0.726c0.076-.046.143-0.092,0.209-0.136a0.2,0.2,0,0,1,.11-0.072,1.555,1.555,0,0,1,.247-0.131c0.221-.091.446-0.173,0.667-0.262q0.681-.275,1.348-0.584c0.812-.373,1.614-0.768,2.4-1.2,0.221-.121.447-0.242,0.672-0.367a1.024,1.024,0,0,1-.76.109,0.62,0.62,0,0,1-.139-0.049c-0.136.058-.268,0.112-0.383,0.165-0.466.212-.941,0.406-1.423,0.576a13.81,13.81,0,0,1-1.483.437,2.688,2.688,0,0,1-1.506.028,2.214,2.214,0,0,1-1.257-1.942c-0.035-.236-0.062-0.534-0.116-0.83a0.584,0.584,0,0,1-.533-0.47l0-.018a0.644,0.644,0,0,1-.394.24,13.637,13.637,0,0,0-1.929.46q-0.91.294-1.814,0.6-1.694.579-3.369,1.211a4.159,4.159,0,0,0,.088.468,1.064,1.064,0,0,0,.152.341,0.59,0.59,0,0,0,.118.129l0.019,0.014c0-.006,0-0.009.047,0.007a1.133,1.133,0,0,0,.746-0.11c0.347-.113.7-0.217,1.043-0.334,0.714-.241,1.418-0.509,2.125-0.771a16.311,16.311,0,0,1,2.057-.744,0.738,0.738,0,0,1,.566,1.343,7.554,7.554,0,0,1-1.1.43c0.025,0.064.051,0.128,0.07,0.193q0.037,0.13.084,0.257c0.024,0.064.028,0.076,0.039,0.1l0.336-.089c0.739-.2,1.477-0.388,2.22-0.566a0.751,0.751,0,0,1,.9.514,0.743,0.743,0,0,1-.513.9c-0.881.224-1.768,0.462-2.662,0.633a1.281,1.281,0,0,1-.906-0.118,1.086,1.086,0,0,1-.47-0.676,3.219,3.219,0,0,1-.109-0.8l-0.572.2c-0.835.3-1.673,0.616-2.532,0.845a1.975,1.975,0,0,1-2.273-.431,2.386,2.386,0,0,1-.466-1.917,0.584,0.584,0,0,1-.075-0.157,0.644,0.644,0,0,1,.436-0.768c0.26-.1.523-0.2,0.784-0.3a0.645,0.645,0,0,1-.125-0.093,0.667,0.667,0,0,1-.188-0.455,1.479,1.479,0,0,1,.391-0.991,1.428,1.428,0,0,1,.889-0.465,1.384,1.384,0,0,1,1,.245,1.754,1.754,0,0,1,.442.453,0.97,0.97,0,0,1,.129.353l0.258-.095q0.867-.311,1.739-0.609a17.281,17.281,0,0,0,1.785-.72,0.932,0.932,0,0,1,.7-0.051,0.881,0.881,0,0,1,.176-0.83,1.8,1.8,0,0,1,.848-0.379q0.538-.158,1.078-0.313c0.674-.193,1.345-0.4,2.018-0.6q0.538-.158,1.078-0.312a5.333,5.333,0,0,1,.99-0.248,1.594,1.594,0,0,1,1.457,1.2c0.011,0.024.021,0.049,0.033,0.073,0.166-.11.336-0.213,0.513-0.309a1.8,1.8,0,0,1,1.28-.293,1.985,1.985,0,0,1,.97.908l0.293,0.392c0.408-1.3,1.226-2.882,2.661-2.083,0.013,0.007.023,0.017,0.035,0.024a16.191,16.191,0,0,1-.72-3.673,15.357,15.357,0,0,1-.029-1.679,0.549,0.549,0,0,1-.414-0.027A18.681,18.681,0,0,1,55.358,66.4a0.512,0.512,0,0,1-.031-0.047,0.414,0.414,0,0,1-.3-0.412,8.145,8.145,0,0,1-.492-1.189,8.782,8.782,0,0,1-.372-1.381A11.328,11.328,0,0,1,54,61.918a4.755,4.755,0,0,1,0-1,1.97,1.97,0,0,1-1.552-.52,2,2,0,0,1-.266-0.319A0.341,0.341,0,0,1,51.888,60a1.894,1.894,0,0,1-.235.7,3.17,3.17,0,0,1-.94,1.034c0.022,0.021.047,0.039,0.069,0.061a1.674,1.674,0,0,1-.188,2.261,2.807,2.807,0,0,1-.509.483,1.494,1.494,0,0,1,.214.8,1.429,1.429,0,0,1-.693,1.191,1.467,1.467,0,0,1-1.259.141,2.968,2.968,0,0,1-1.108-.891,3.947,3.947,0,0,1-.45-0.577,3.405,3.405,0,0,1-.16-0.32,0.538,0.538,0,0,1-.046-0.19c-0.022-.012-0.044-0.023-0.065-0.036a3.411,3.411,0,0,1-1.446-1.64,1.477,1.477,0,0,1,.163-1.493,1.787,1.787,0,0,1-.578-1.087,1.743,1.743,0,0,1,.192-1.063,0.865,0.865,0,0,1,.11-0.154,1.148,1.148,0,0,1,.463-0.7,1.373,1.373,0,0,1,.616-0.25,1.267,1.267,0,0,1,.125-0.979,0.942,0.942,0,0,1-.483-0.152,1.636,1.636,0,0,1-.627-0.733,2.142,2.142,0,0,1,.188-1.941,5.541,5.541,0,0,1,.574-0.8,1.828,1.828,0,0,1,.813-0.643,1.579,1.579,0,0,1,1.722.931,2.262,2.262,0,0,1,.3.977,1.435,1.435,0,0,1-.111.781,2.8,2.8,0,0,1,2.22,1.019A2.334,2.334,0,0,1,51.331,58a0.861,0.861,0,0,1-.369.747,1.609,1.609,0,0,1,.612.326c0.011,0.01.018,0.022,0.029,0.033a4.772,4.772,0,0,1,.042-0.586A5.617,5.617,0,0,1,52,57.084a4.973,4.973,0,0,1,4.221-3.242,2.879,2.879,0,0,1,2.6,1.415,3.675,3.675,0,0,1,.332.7,1.5,1.5,0,0,1,1.494-.447,5.922,5.922,0,0,1,2.15,1.4,19.921,19.921,0,0,0,3.941,2.955,9.286,9.286,0,0,1,1.935-1.341,8.685,8.685,0,0,1,3.839-1,7.5,7.5,0,0,1,1.883.209,4.354,4.354,0,0,1,.719.224c0.209-.2.429-0.373,0.648-0.544a0.753,0.753,0,0,1-.064-1.179q0.138-.121.284-0.225a5.416,5.416,0,0,1-.921-0.078,3.388,3.388,0,0,1-2.746-3.3,4.711,4.711,0,0,1,.54-2.318,9.109,9.109,0,0,1,.735-1.213,9.232,9.232,0,0,1-1.828-.189,4.645,4.645,0,0,1-3.337-2.484c-0.318-.7-0.477-1.452-0.8-2.147a5.457,5.457,0,0,0-.78-1.164,2.112,2.112,0,0,1-.792-0.774,4.017,4.017,0,0,1-.573-1.636,3.55,3.55,0,0,1,.86-2.857c0.94-.99,2.237-0.636,3.239.053a5.12,5.12,0,0,1,2.087,2.884c0.018,0.062.03,0.126,0.046,0.188a1.466,1.466,0,0,1,.26-0.038c0.2-.008.4,0.005,0.6,0a4.542,4.542,0,0,0,1.071-.148,7.036,7.036,0,0,0,1.828-1.313A3.416,3.416,0,0,1,76.26,39.1a1.888,1.888,0,0,1-.216-0.678,2.127,2.127,0,0,1,.05-0.706,1.433,1.433,0,0,1,.142-0.368,23.668,23.668,0,0,1-2.478.142c-1.791,0-4.506-.16-5.308-2.007a1.851,1.851,0,0,1-.408-1.05,2.8,2.8,0,0,1,.337-1.522,4.165,4.165,0,0,1,2.6-1.9,9.2,9.2,0,0,1,5.651.243c-0.136-.548-0.269-1.1-0.429-1.633q-0.49-1.642-1.077-3.254c-0.4-1.1-.828-2.19-1.294-3.264a13.444,13.444,0,0,1-1.279-3.247,0.529,0.529,0,0,1,.361-0.587l0.007-.015c0.011-.026.023-0.053,0.035-0.079a0.927,0.927,0,0,1,.354-0.4c0.049-.027.1-0.057,0.145-0.085l0.191-.219q0.477-.554.994-1.073a20.887,20.887,0,0,1,2.1-1.841A21.467,21.467,0,0,1,85.9,11.469a13.432,13.432,0,0,1,5.4-.15A4.365,4.365,0,0,1,94.4,13.855a1.3,1.3,0,0,1,.26.831c0,0.044-.01.091-0.013,0.136,0,0.025.008,0.05,0.01,0.075a0.735,0.735,0,0,1-.081.428,3,3,0,0,1-.075.308c-0.047.144-.1,0.285-0.159,0.425-0.033.079-.065,0.151-0.1,0.218l-0.044.139c-0.206.645-.4,1.292-0.613,1.936q-0.615,1.888-1.142,3.8a29.474,29.474,0,0,0-1.165,7.5c0.24-.133.481-0.262,0.727-0.383A16.242,16.242,0,0,1,96.634,27.8a6.662,6.662,0,0,1,2.493-.1,2.282,2.282,0,0,1,1.66,1.612c0.513,1.671-.537,3.324-1.75,4.381a8.809,8.809,0,0,1-3.612,2.213,1.624,1.624,0,0,1-.111.793c-0.018.045-.041,0.085-0.062,0.127l0.007,0a1.611,1.611,0,0,1,1,1.547,5.145,5.145,0,0,1-.937,2.364c-0.393.694-.823,1.368-1.264,2.034a4.086,4.086,0,0,1,.019,1.647,5.782,5.782,0,0,1-.514,1.691,5.376,5.376,0,0,1-.96,1.379,1.8,1.8,0,0,1-.39,2.474A9.368,9.368,0,0,1,88.835,51.5a2.19,2.19,0,0,0-.845.28,2.009,2.009,0,0,0-.306.657,6.858,6.858,0,0,1-.815,1.408,7.791,7.791,0,0,1-.781.894,27.177,27.177,0,0,1,5,.346,35.111,35.111,0,0,1,11.894,3.946,34.25,34.25,0,0,1,5.246,3.572q1.208,0.987,2.324,2.081a9.772,9.772,0,0,1,1.977,2.395A0.534,0.534,0,0,1,112.511,67.574ZM56.676,81.009a7.509,7.509,0,0,0-.221-1.1,7.145,7.145,0,0,0-.375-1.064,3.911,3.911,0,0,1-.27-0.552,0.757,0.757,0,0,0-.106.018q-1.319.363-2.631,0.749c-0.658.193-1.334,0.383-1.986,0.616,0.053,0.252.113,0.5,0.169,0.752a2.324,2.324,0,0,1,.344.68c0.158,0.5.146,1.369,0.62,1.7a1.219,1.219,0,0,0,.82-0.069c0.481-.114.958-0.24,1.427-0.4a13.419,13.419,0,0,0,1.273-.489c0.288-.129.633-0.363,0.972-0.487C56.7,81.253,56.69,81.129,56.676,81.009ZM47.994,65.2q0.121,0.115.248,0.224c0.037,0.032.075,0.064,0.113,0.094-0.066-.053.057,0.041,0.072,0.05,0.046,0.031.094,0.058,0.142,0.086l0.026,0.016,0.025,0.007,0.065,0.022,0.035,0H48.8l0.01,0,0.113-.032h0l0.011-.008q0.035-.019.068-0.04a0.154,0.154,0,0,1,.032-0.021l0.038-.042c0.013-.013.025-0.027,0.037-0.041s0.022-.045.029-0.06,0.012-.037.017-0.056l0.007-.03c0-.032,0-0.084,0-0.089l0,0a0.408,0.408,0,0,0-.046-0.15l0.026,0.064c-0.011-.024-0.024-0.046-0.037-0.069s-0.02-.033-0.031-0.05-0.011-.017-0.009-0.015l-0.026-.022a3.29,3.29,0,0,1-1.131.081C47.938,65.135,47.964,65.167,47.994,65.2Zm-2.226-2.675a1.955,1.955,0,0,0,.6.85,2.7,2.7,0,0,0,2.1.7,2.012,2.012,0,0,0,1.456-.95,0.742,0.742,0,0,0,.14-0.44,0.264,0.264,0,0,0-.135-0.172,3.039,3.039,0,0,0-.395-0.226,5.444,5.444,0,0,1-3.166-.115,3.666,3.666,0,0,1-.64-0.292A1.35,1.35,0,0,0,45.768,62.521Zm2.09-6.833a3.7,3.7,0,0,1-.116-0.649,2.354,2.354,0,0,0-.252-0.66,1.105,1.105,0,0,0-.362-0.4,0.3,0.3,0,0,0-.185-0.065c-0.02,0-.055.007-0.026,0-0.017.006-.1,0.056-0.088,0.044a2.574,2.574,0,0,0-.495.547,3.763,3.763,0,0,0-.355.555,1.882,1.882,0,0,0-.176.543,1.129,1.129,0,0,0-.007.176q0,0.033,0,.065v0.006a1.465,1.465,0,0,0,.071.248,1.011,1.011,0,0,0,.3.386,1.605,1.605,0,0,0,.359.223,2.791,2.791,0,0,1,1.342-.888C47.868,55.772,47.865,55.73,47.858,55.688Zm2.4,2.185a1.6,1.6,0,0,0-.276-0.445,1.821,1.821,0,0,0-.918-0.57,1.706,1.706,0,0,0-1.841.832c-0.1.165-.143,0.364-0.242,0.527a7.747,7.747,0,0,0,3.07-.106c0.077-.03.16-0.093,0.239-0.131C50.282,57.946,50.274,57.9,50.263,57.872Zm0.3,2.032a3.027,3.027,0,0,1-.337-0.117,1.908,1.908,0,0,1-.686-0.448,0.361,0.361,0,0,1-.046-0.061,9.773,9.773,0,0,1-2.07-.052,4.5,4.5,0,0,0-1.307-.023c-0.079.016-.161,0.03-0.243,0.046a0.174,0.174,0,0,1-.041.036c-0.05.052-.07,0.046-0.063-0.014h0a0.324,0.324,0,0,1-.044.158c-0.023.053-.06,0.114-0.087,0.166a1.191,1.191,0,0,0-.153.4,0.913,0.913,0,0,0,.211.715,3.048,3.048,0,0,0,2.274.674,3.23,3.23,0,0,0,2.3-.791,2.02,2.02,0,0,0,.328-0.407c0.043-.072.076-0.148,0.113-0.221l0.011-.024C50.654,59.927,50.555,59.9,50.56,59.9Zm36.1,5.464a11.026,11.026,0,0,1,2.022.263,28.042,28.042,0,0,1,3.527.926c1.942,0.672,4.207,1.7,5.418,3.474a2.031,2.031,0,0,0,.657-0.607A2.671,2.671,0,0,1,99,68.767a1.194,1.194,0,0,1,1.5.273s0,0,0,0c-0.08-.929-1.268-1.447-1.98-1.882a19.543,19.543,0,0,0-2.51-1.3,25.053,25.053,0,0,0-9.891-1.875,34.805,34.805,0,0,0-5.212.465c-0.539.083-1.08,0.168-1.623,0.228,0.167,0.034.333,0.066,0.5,0.1C82.035,65.164,84.427,64.885,86.663,65.368Zm9.71,32.913a12.774,12.774,0,0,0,1.011-.8,5.369,5.369,0,0,1-1.452.26,9.649,9.649,0,0,0-.823,1.346C95.522,98.806,95.978,98.559,96.374,98.282Zm-15.7,15.308a0.563,0.563,0,0,1,0,.781,2.613,2.613,0,0,1-1.089.566c0.012,0.02.023,0.041,0.036,0.06a2.831,2.831,0,0,0,.432.487,4.718,4.718,0,0,0,1.2.768,4.437,4.437,0,0,0,3.169.48,0.567,0.567,0,0,1,.365-0.008,0.644,0.644,0,0,1,1.177-.323,3.487,3.487,0,0,0,4.591.656A9.077,9.077,0,0,0,94,112.634a3.951,3.951,0,0,0,.079-2.994c-0.333-.938-0.829-1.809-1.121-2.765a10.431,10.431,0,0,1,1.82-9.554,1.624,1.624,0,0,1-.126-0.132,4.6,4.6,0,0,0-1.028-1.081,3.462,3.462,0,0,0-1.273-.489,3.314,3.314,0,0,0-1.37.064c-0.168.043-.335,0.106-0.5,0.157v0a10.008,10.008,0,0,1-.888,1.131,9.778,9.778,0,0,0-.73,1.088,10.533,10.533,0,0,0-1.064,2.55,9.714,9.714,0,0,0-.054,4.81,21.589,21.589,0,0,1,.961,3.253l0.3,0.057c0.229,0.043.451,0.1,0.676,0.161a0.619,0.619,0,0,1,.359.276,0.606,0.606,0,0,1,.061.462,0.613,0.613,0,0,1-.276.359,0.632,0.632,0,0,1-.463.06c-0.226-.053-0.45-0.107-0.672-0.176l-0.165-.052a1.973,1.973,0,0,1-.1.2c-0.87,1.522-3.3,1.025-4.657.632-0.227-.065-0.45-0.142-0.671-0.223a4.294,4.294,0,0,1-.461-0.066,0.57,0.57,0,0,1-.421-0.3,10.383,10.383,0,0,1-2.391-1.593,4.187,4.187,0,0,0-.332,1.02,0.634,0.634,0,0,1-.074.814A5.188,5.188,0,0,0,80.673,113.589ZM87.26,98.872a2.255,2.255,0,0,1-.282.08c-0.271.6-.614,1.188-0.931,1.756-0.188.336-.383,0.668-0.57,1a1.013,1.013,0,0,0-.221.758,2.092,2.092,0,0,0,.48.642,4.668,4.668,0,0,1,.543.735c0.029,0.05.051,0.1,0.078,0.156-0.009-.241-0.011-0.482,0-0.727A13.076,13.076,0,0,1,87.26,98.872Zm-0.127,8.814c-0.017-.047-0.032-0.1-0.049-0.142a2.6,2.6,0,0,1-.858,1.81,4.226,4.226,0,0,1-.629.468,2.229,2.229,0,0,0,1.616-.249C87.711,109.125,87.318,108.194,87.132,107.686ZM80,98.842a4.129,4.129,0,0,0-.635,2.286,3.841,3.841,0,0,0,.825,2.294,9.544,9.544,0,0,0,2.246,1.63,0.7,0.7,0,0,1,.281.857,0.679,0.679,0,0,1-.809.4,5.758,5.758,0,0,1-3.878-5.041c0-.055,0-0.111,0-0.166a0.494,0.494,0,0,1-.548-0.17,8.4,8.4,0,0,0-3.085-2.642c-0.446-.2-1.421-0.4-1.573.3-0.117.537,0.675,1.05,1.042,1.3a0.56,0.56,0,0,1-.565.967,1.692,1.692,0,0,0-1.2-.34,0.565,0.565,0,0,0-.413.791,3.551,3.551,0,0,0,1.546,1.742c0.493,0.31.17,1.209-.412,0.978-0.265-.105-0.53-0.211-0.793-0.323l-0.412-.175-0.165-.07a0.087,0.087,0,0,1-.036-0.013l0.017,0.068a2.464,2.464,0,0,0,.1.289,3.61,3.61,0,0,0,.371.681,9.97,9.97,0,0,0,2,2.006,13.7,13.7,0,0,0,4.6,2.626,5.444,5.444,0,0,1,.768-1.731,0.52,0.52,0,0,1,.8-0.1,8.454,8.454,0,0,0,2.608,1.8,0.684,0.684,0,0,1,.32-0.008,2.511,2.511,0,0,0,2.756-1.316,4.009,4.009,0,0,0-.134-1.8,4.518,4.518,0,0,0-.542-1.585,12.955,12.955,0,0,1-.95-1.278,1.807,1.807,0,0,1,.048-1.617,15.749,15.749,0,0,1,1.035-1.706c0.145-.224.289-0.454,0.435-0.682a7.757,7.757,0,0,1-1.632-.154,7.432,7.432,0,0,1-2.965-1.312c-0.1.082-.191,0.164-0.281,0.256A5.512,5.512,0,0,0,80,98.842Zm1.434-2.662a6.8,6.8,0,0,0,2.884,1.359,7.369,7.369,0,0,0,1.781.113,2.194,2.194,0,0,1,1.678.112l0,0a10.431,10.431,0,0,1,.56-0.939,7.148,7.148,0,0,1,1.016-1.284,1.874,1.874,0,0,1-.234-1.124,7.291,7.291,0,0,1,.331-1.943,0.5,0.5,0,0,1,.957.264,6.185,6.185,0,0,0-.212,1.68c0,0.01.015,0.18,0.026,0.309l0.07-.03c0.09-.038.181-0.074,0.273-0.106a4.244,4.244,0,0,1,2.5-.01,4.421,4.421,0,0,1,2.138,1.38,0.786,0.786,0,0,0,.847.5c0.564-.118,1.123-0.293,1.684-0.431a0.622,0.622,0,0,1,.753.4,13.949,13.949,0,0,0,1.835-2.441c0.33-.561.579-1.205,0.963-1.729a6.475,6.475,0,0,1,1.608-1.039,2.94,2.94,0,0,0,.891-1.526,3.918,3.918,0,0,0,.122-1.578c-0.007.024-.016,0.044-0.022,0.07-0.177.816-1.44,0.469-1.251-.345a2.378,2.378,0,0,1,1.267-1.608c0.319-.154.67-0.115,0.98-0.244a1.076,1.076,0,0,0,.4-0.752,12.212,12.212,0,0,1,1.648-3.688,5.163,5.163,0,0,1,.663-0.739c0.269-.24.654-0.4,0.9-0.652,0.449-.46-0.4-0.982-0.8-1.048-1.555-.257-2.535,1.243-3.126,2.43a0.549,0.549,0,0,1-.994-0.13,1.014,1.014,0,0,0-1.228-.8,1.865,1.865,0,0,0-1,1.244,3.833,3.833,0,0,1-.173.923,0.683,0.683,0,0,1-1.335-.181,9.237,9.237,0,0,0,.015-1.942,5.665,5.665,0,0,0-.558-1.729,5.474,5.474,0,0,0-2.978-2.6,12.446,12.446,0,0,0-4.45-.738,11.414,11.414,0,0,0-2.18.216,8.668,8.668,0,0,0-1.118.3c-0.118.041-.238,0.087-0.359,0.129a3.025,3.025,0,0,1-1.5,1.21,5.949,5.949,0,0,1-.55.423,5.082,5.082,0,0,1-.616.657,4.743,4.743,0,0,0-.56.759,10.082,10.082,0,0,0-.822,1.808c-0.475,1.3-.831,2.645-1.365,3.929a17.54,17.54,0,0,1-2.069,3.761,8.889,8.889,0,0,1-2.409,2.359A10.257,10.257,0,0,0,81.429,96.18ZM77.109,88.5l0.6,1.278c0.049,0.1.1,0.21,0.156,0.317a14.812,14.812,0,0,0,3.907-6.235c0.448-1.266.738-2.589,1.251-3.832a8.65,8.65,0,0,1,.964-1.8,3.676,3.676,0,0,1,1.3-1.277l0.032-.029c0.078-.065.162-0.124,0.243-0.185a0.18,0.18,0,0,1,.029-0.02l0.029-.027q0.305-.245.587-0.518a3.459,3.459,0,0,1,.585-0.506l0.069-.06a2.722,2.722,0,0,0,.468-1.129,5.119,5.119,0,0,0-.877-2.829q-0.756-1.518-1.658-2.958c-0.518-.826-1.161-1.6-1.654-2.443a22.7,22.7,0,0,1-4.16-.459A10.125,10.125,0,0,1,75.9,64.528c-0.182.463-.442,0.9-0.645,1.358-0.228.511-.44,1.034-0.643,1.556a22.061,22.061,0,0,0-.962,3.183,19.6,19.6,0,0,0-.307,6.643,6.414,6.414,0,0,0,1.692-1.741,4.008,4.008,0,0,0,.5-1.163c0.109-.441.119-0.884,0.265-1.317a0.534,0.534,0,0,1,.962-0.126c0.583,0.921.14,2.169-.339,3.049A6.894,6.894,0,0,1,74.358,78.2a21.69,21.69,0,0,1-2.677,1.567c-0.721.382-1.424,0.853-2.177,1.181,0.464,0.216.915,0.477,1.351,0.714a16.858,16.858,0,0,1,2.1,1.33,11.764,11.764,0,0,1,2.687,2.748,0.652,0.652,0,0,1,.192.065,0.574,0.574,0,0,1,.25.615s0,0.008,0,.012C76.456,87.1,76.782,87.8,77.109,88.5Zm-3.343-.632q0.37,0.442.779,0.85a12.253,12.253,0,0,0,1.9,1.558c-0.013-.03-0.024-0.055-0.03-0.067l-0.255-.5c-0.41-.808-0.791-1.636-1.232-2.429-0.268.078-.535,0.139-0.744,0.209-0.189.063-.376,0.129-0.565,0.192C73.668,87.739,73.716,87.8,73.766,87.865ZM61.174,91.126a1.585,1.585,0,0,0,1.494.4,7.306,7.306,0,0,0,1.959-.566,8.883,8.883,0,0,0,.815-0.416,11.614,11.614,0,0,1-2.133.45,3.346,3.346,0,0,1-2.475-.665A1.878,1.878,0,0,0,61.174,91.126Zm-1.4-10.873a1.383,1.383,0,0,1-.5-0.507L59,79.353l-0.262-.37c-0.027-.038-0.078-0.09-0.107-0.138-0.136.026-.271,0.05-0.406,0.084a3.369,3.369,0,0,0-.418.14l-0.037.015-0.043.019a8.361,8.361,0,0,1,.251.845,6.162,6.162,0,0,1,.225,1.856A1.393,1.393,0,0,1,57.62,82.9a10.641,10.641,0,0,0,1.5-.957,2.673,2.673,0,0,0,.931-1.611A0.984,0.984,0,0,1,59.778,80.253ZM62.92,79.24a2.912,2.912,0,0,0-.331-1.119c-0.21-.295-0.319-0.2-0.475.086-0.721,1.317-.584,2.972-1.608,4.126A6.679,6.679,0,0,1,58.789,83.6q-1.085.625-2.215,1.169c-0.689.332-1.389,0.638-2.1,0.921q-0.58.232-1.169,0.442c-0.118.042-.236,0.087-0.356,0.127a2.579,2.579,0,0,0,.289.5,1.964,1.964,0,0,0,1.039.708c0.044,0.011.089,0.02,0.134,0.029,0.011,0,.1.012,0.1,0.012a2.362,2.362,0,0,0,.339-0.006l0.126-.012c0.011,0,.1-0.019.106-0.021a2.392,2.392,0,0,0,.293-0.089l0.088-.039q0.075-.038.146-0.082c0.037-.023.074-0.049,0.11-0.074,0.009-.009.055-0.046,0.071-0.062,0.041-.038.076-0.079,0.116-0.118l0.023-.021,0.014-.023a1.75,1.75,0,0,1,.252-0.357,0.64,0.64,0,0,1,.755-0.1,0.653,0.653,0,0,1,.287.7,1.59,1.59,0,0,1-.6.838,2.87,2.87,0,0,1-.437.294l0.064,0.046a3.712,3.712,0,0,0,.584.339,4.19,4.19,0,0,0,1.133.308,4.053,4.053,0,0,0,.639.035c0.1,0,.2-0.006.305-0.013l0.11-.01,0.092-.016a1.591,1.591,0,0,0,.488-0.163c0.037-.021.072-0.044,0.107-0.066l0.051-.036c-0.037.028-.039,0.028-0.006,0l0.09-.089c0.028-.033.029-0.031,0,0.005l0.037-.053a0.65,0.65,0,0,1,.871-0.228,0.675,0.675,0,0,1,.3.728c0.005,0.005.011,0.007,0.017,0.013a1.754,1.754,0,0,0,1.366.774,6.128,6.128,0,0,0,1.913-.369c1.257-.376,2.489-0.816,3.724-1.26,1.307-.47,2.616-0.935,3.919-1.417,0.637-.236,1.269-0.487,1.9-0.73,0.061-.024.135-0.059,0.2-0.09a12.82,12.82,0,0,0-2.141-2.18,19.558,19.558,0,0,0-1.9-1.342c-0.423-.265-0.87-0.5-1.3-0.756a4.83,4.83,0,0,1-1.376.871,3.491,3.491,0,0,1-2.1.293,2.829,2.829,0,0,1-1.9-1.384s-0.005,0-.008,0C62.845,80.97,63.053,79.987,62.92,79.24Zm1.324,1.941a1.477,1.477,0,0,0,.263.32,1.81,1.81,0,0,0,1.079.4c0.053,0,.106-0.019.159-0.022a7.5,7.5,0,0,1-.959-1.391c-0.145-.232-0.28-0.471-0.413-0.711A2.58,2.58,0,0,1,64.243,81.181ZM58.365,57.472a6.677,6.677,0,0,0-.137-0.819,2.672,2.672,0,0,0-.667-1.278,2.352,2.352,0,0,0-2.775-.092,4.572,4.572,0,0,0-1.855,1.981,4.812,4.812,0,0,0-.432,1.278c-0.011.059-.018,0.118-0.026,0.178a0.2,0.2,0,0,1,.1.187,1.074,1.074,0,0,0,.645.932,1.377,1.377,0,0,0,1.2-.124,5.037,5.037,0,0,0,2.158-2.306,0.593,0.593,0,0,1,.8-0.211,0.6,0.6,0,0,1,.211.8,6.051,6.051,0,0,1-1.352,1.769,4.991,4.991,0,0,1-1.387.937,2.314,2.314,0,0,1,.035.566c0.006,0.215.018,0.431,0.038,0.646a9.516,9.516,0,0,0,.21,1.286,12.73,12.73,0,0,0,.356,1.289c0.067,0.195.147,0.383,0.229,0.571,0.064-.062.128-0.125,0.187-0.191a6.51,6.51,0,0,0,.7-0.978,15.574,15.574,0,0,0,1.117-2.26,16.826,16.826,0,0,0,.775-2.5c0.058-.257.112-0.519,0.158-0.781A1.345,1.345,0,0,1,58.365,57.472Zm4.323,0.976c-0.528-.5-1.055-1.011-1.622-1.47a1.114,1.114,0,0,0-1.493-.269c0.681,0.5.2,1.99,0.047,2.653a17.014,17.014,0,0,1-.878,2.722,14.83,14.83,0,0,1-1.326,2.551,5.992,5.992,0,0,1-1.178,1.408A22.349,22.349,0,0,0,58.975,68.5a20.12,20.12,0,0,0,2.888,1.758,0.309,0.309,0,0,1,.112.02,1.814,1.814,0,0,1,.449.225,14.925,14.925,0,0,1,.343-1.964,9.872,9.872,0,0,1,.138-1.606,12.805,12.805,0,0,1,.648-2.306A13.116,13.116,0,0,1,65.818,60.8,13.062,13.062,0,0,1,62.688,58.448ZM74.2,58.987a5.471,5.471,0,0,0-.755-0.153,6.761,6.761,0,0,0-2.138.1,8.627,8.627,0,0,0-3.931,1.91,11.191,11.191,0,0,0-2.748,3.805,21.59,21.59,0,0,0-.878,2.267c-0.114.345-.235,0.686-0.355,1.028a19.588,19.588,0,0,0,.028,6.007,16.678,16.678,0,0,0,1.124,3.925c0.144,0.335,1.91,3.8,2.2,3.542a0.26,0.26,0,0,1,.367.027c0.339-.2.644-0.449,0.969-0.663a0.494,0.494,0,0,1,.34-0.193,0.607,0.607,0,0,1,.292-0.049,5.569,5.569,0,0,1,2.045-1.676c0.6-.354,1.214-0.692,1.8-1.065a0.412,0.412,0,0,1-.252-0.325,20.231,20.231,0,0,1,.159-7.087,18.228,18.228,0,0,1,1.054-3.416,13.294,13.294,0,0,1,.767-1.55A7.883,7.883,0,0,1,75.2,64.05a4.5,4.5,0,0,1-1.611-1.985A3.1,3.1,0,0,1,74.2,58.987Zm1.4-17.929a3.868,3.868,0,0,1-2.114.975,4.886,4.886,0,0,1-1.184-.013c-0.137-.017-0.277-0.032-0.414-0.059,0.105,0.867.1,1.752,0.147,2.617l-0.007-.012a0.589,0.589,0,0,1-.584.6H71.4a0.639,0.639,0,0,1-.614-0.468,16.1,16.1,0,0,1-.076-1.9,8.357,8.357,0,0,0-.223-1.631,4.008,4.008,0,0,0-1.419-2.287,2.369,2.369,0,0,0-1.281-.623,1.075,1.075,0,0,0-.9.571,2.8,2.8,0,0,0-.325,2.151A3.205,3.205,0,0,0,67.007,42c0.027,0.041.058,0.085,0.087,0.127A3.927,3.927,0,0,1,67.1,41.56a1.345,1.345,0,0,1,.432-1.03l0.029-.029a0.3,0.3,0,0,1,.491.13c0,0.012.006,0.024,0.009,0.036a2.169,2.169,0,0,1,.074,1.032c0,0.084,0,.168.009,0.251,0,0.047.008,0.093,0.012,0.139,0,0.011,0,.024,0,0.034a3.741,3.741,0,0,0,.1.48c0.091,0.33.19,0.656,0.29,0.984,0,0.01.007,0.02,0.01,0.03,0.459,0.735.74,1.568,1.221,2.294a4.113,4.113,0,0,0,3.466,1.538,17.789,17.789,0,0,0,5.028-.851,46.9,46.9,0,0,1,5.286-1.264c1.5-.226,3.856-0.513,4.313,1.45a0.8,0.8,0,0,1-1.547.426c-0.185-.687-1.577-0.372-2.059-0.307a24.628,24.628,0,0,0-2.871.6,43.376,43.376,0,0,1-6.55,1.534c-0.28.615-.656,1.189-0.88,1.833a3.832,3.832,0,0,0-.227,2.136c0.317,1.389,1.555,1.7,2.823,1.473a14.484,14.484,0,0,0,3.763-1.228,16.069,16.069,0,0,0,6.1-5.092,0.767,0.767,0,0,1,1.331.166c0.2-.284.5-0.49,0.71-0.773a2.508,2.508,0,0,0,.421-0.957,2.435,2.435,0,0,0-.466-2,6.242,6.242,0,0,0-1.975-1.656,5.933,5.933,0,0,0-1.2-.5,7.764,7.764,0,0,1-1.275-.286,0.342,0.342,0,0,1-.147-0.145,0.663,0.663,0,0,1-.2-0.071,0.985,0.985,0,0,1-.209-0.176q-0.09-.092-0.185-0.179l-0.058-.055c-0.321-.067-0.638-0.3-0.947-0.381a1.506,1.506,0,0,0-.586-0.053,2.469,2.469,0,0,0-1.546-.218,1.98,1.98,0,0,1,.186-0.25l-0.059,0a0.467,0.467,0,0,1-.445-0.328,1.65,1.65,0,0,1-1.228.048,5.133,5.133,0,0,0-1.114-.117A2.794,2.794,0,0,0,75.606,41.058ZM92.159,17.863c0.231-.63.489-1.249,0.745-1.869,0.007-.047.022-0.154,0.022-0.142,0.006-.052.011-0.1,0.016-0.156,0.011-.137.015-0.274,0.017-0.412,0-.247-0.014-0.491-0.019-0.736-0.406-1.491-2.477-1.814-3.783-1.8A20.146,20.146,0,0,0,80.6,14.866a21.7,21.7,0,0,0-3.761,2.344,20.278,20.278,0,0,0-1.683,1.467q-0.414.4-.8,0.827a2.945,2.945,0,0,1-.413.4c0,0.018,0,.035,0,0.047q0,0.08,0,.161c0,0.006,0,.012,0,0.017a15.991,15.991,0,0,1,1.2,2.414c0.491,1.1.953,2.216,1.374,3.345q0.646,1.733,1.182,3.505a22.533,22.533,0,0,1,.889,3.511,0.717,0.717,0,0,1-.632.716,0.726,0.726,0,0,1-.773-0.46,7.994,7.994,0,0,0-5.239-.976A3.686,3.686,0,0,0,69.7,33.223a2.109,2.109,0,0,0-.457,1,1.99,1.99,0,0,0,.077,1.093,0.391,0.391,0,0,1-.016.382c1.3,1.066,3.566.9,5.1,0.823a22.624,22.624,0,0,0,3.45-.435c0.54-.111,1.075-0.245,1.607-0.387,0.5-.134.952-0.343,1.434-0.522a0.384,0.384,0,0,1,.314.017c0.1-.252.228-0.5,0.34-0.718a7.881,7.881,0,0,1,.909-1.41,4.6,4.6,0,0,1,2.551-1.641,3.424,3.424,0,0,1,2.845.674c0.022,0.017.038,0.037,0.058,0.055a9.047,9.047,0,0,1,1.76-1.5c0.058-.042.119-0.081,0.178-0.122a0.748,0.748,0,0,1-.223-0.561,31.874,31.874,0,0,1,1.229-8.164C91.226,20.475,91.68,19.165,92.159,17.863Zm4.7,15.778A9.5,9.5,0,0,0,98.9,31.892a2.5,2.5,0,0,0,.589-2.3c-0.329-.878-1.383-0.688-2.129-0.605a16.184,16.184,0,0,0-4.893,1.382,16.547,16.547,0,0,0-2.237,1.237c-0.6.393-1.133,0.878-1.73,1.264a4.242,4.242,0,0,1,.45,1.891,11.938,11.938,0,0,1,1.428-.846,1.859,1.859,0,0,1,1.648-.118,1.609,1.609,0,0,1,.926,1.041,2.112,2.112,0,0,1,1.171-.2,0.657,0.657,0,0,1,.355-0.072A3.8,3.8,0,0,0,96.858,33.641ZM86.667,52.129a3.136,3.136,0,0,1,.649-1.2,3.765,3.765,0,0,1,1.363-.559,12.9,12.9,0,0,0,1.585-.654,3.886,3.886,0,0,0,1.2-.755c0.108-.12.345-0.5,0.138-0.658a1.634,1.634,0,0,1-.663.214,0.4,0.4,0,0,1-.277-0.669A4.8,4.8,0,0,1,91.3,47.36a5.511,5.511,0,0,0,.55-0.5,4.576,4.576,0,0,0,.812-1.227,4,4,0,0,0,.36-1.351,4.618,4.618,0,0,0-.009-0.78c-0.016-.159-0.057-0.321-0.083-0.485a0.488,0.488,0,0,1-.017-0.613q1.008-1.495,1.907-3.063a1.375,1.375,0,0,0,.267-1.4c-0.313-.392-0.862.12-1.113,0.342-0.433.384-1.218-.132-0.844-0.651,0.027-.038.057-0.072,0.086-0.107l0,0,0.007-.006c0.252-.319.542-0.58,0.824-0.876a0.787,0.787,0,0,0,.294-0.688,0.679,0.679,0,0,1-.394-0.273,2.565,2.565,0,0,0-1.383.88,0.588,0.588,0,0,1-.831-0.831,0.646,0.646,0,0,0-.639-1.081,5.137,5.137,0,0,0-1.11.53,9.448,9.448,0,0,1-1.178.512,0.274,0.274,0,0,1-.34-0.091,0.706,0.706,0,0,1-.934-0.662,2.1,2.1,0,0,0-.651-1.882,2.213,2.213,0,0,0-1.9-.3,4.09,4.09,0,0,0-1.944,1.314,8.235,8.235,0,0,0-.785,1.1,4.347,4.347,0,0,1-.751,1.084,0.293,0.293,0,0,1-.447-0.068,8.816,8.816,0,0,1-3.29.949c-0.306.052-.613,0.1-0.921,0.138a0.235,0.235,0,0,1,0,.052q-0.009.042-.016,0.084l0,0.013s0,0,0,.007a1.676,1.676,0,0,1-.025.18c0,0.009,0,.008,0,0.012,0,0.023,0,.046-0.006.069,0,0.047,0,.095,0,0.142s0.006,0.086.008,0.129a0,0,0,0,1,0,0c0,0.022.008,0.045,0.012,0.067a1.807,1.807,0,0,0,.074.261,0.186,0.186,0,1,1,.01.028,0.389,0.389,0,0,0,.043.107c0,0.011.022,0.052,0.021,0.052h0a1.721,1.721,0,0,0,.135.236L77.1,38.735c-0.006,0-.006,0,0.018.026l0,0a0.062,0.062,0,0,1,.008.013,0.031,0.031,0,0,0,0-.008c0.026,0.03.052,0.059,0.081,0.088l0.018,0.019a5.36,5.36,0,0,1,.538-0.038,6.056,6.056,0,0,1,1.116.071,1.145,1.145,0,0,1,.079-0.2,0.3,0.3,0,0,1,.015-0.03,0.553,0.553,0,0,1,.184-0.184c-0.074-.124-0.15-0.246-0.22-0.372a1.569,1.569,0,0,1-.123-0.334,0.952,0.952,0,0,0-.115-0.242,0.173,0.173,0,0,1,.234-0.235,3.154,3.154,0,0,0,.287.132,1.06,1.06,0,0,1,.383.234,4.449,4.449,0,0,1,.485.588,4.775,4.775,0,0,1,.355.611,2.844,2.844,0,0,1,.292.728l0.031,0a0.3,0.3,0,0,1,.047-0.216,5.8,5.8,0,0,1,.559-0.607,3.269,3.269,0,0,0,.433-0.663c0.268-.509.492-1.041,0.763-1.549a12.42,12.42,0,0,1,2.378-3.125,0.625,0.625,0,0,1,.883.884c-0.028.028-.055,0.058-0.083,0.086a2.876,2.876,0,0,1,.614.634,3.3,3.3,0,0,1,.594,2.027,0.546,0.546,0,1,1-1.092,0c0-.04-0.007-0.079-0.011-0.119-0.011-.059-0.021-0.119-0.033-0.177a3.868,3.868,0,0,0-.11-0.394c-0.018-.055-0.04-0.108-0.06-0.162h0c-0.015-.031-0.029-0.062-0.044-0.092-0.058-.116-0.125-0.227-0.189-0.339-0.034-.059-0.069-0.117-0.106-0.174s-0.072-.093-0.1-0.141c0.017,0.022.035,0.038,0,0l0,0a0.246,0.246,0,0,1-.014-0.021,0.126,0.126,0,0,0,.012.02c-0.024-.027-0.048-0.055-0.073-0.081s-0.037-.037-0.056-0.055a0.118,0.118,0,0,1-.044-0.039l-0.026-.017-0.032-.019a13.439,13.439,0,0,0-.947,1.26,1.19,1.19,0,0,1,.437.525,1.634,1.634,0,0,1,.113.588c0,0.042.009,0.085,0.012,0.125a2.176,2.176,0,0,1-.3,1.249,2.425,2.425,0,0,1-1.487,1.116c0.019,0.005.038,0.007,0.056,0.014q0.128,0.042.253,0.091c0.075,0.03.15,0.061,0.224,0.093h0l0.021,0.008a2.985,2.985,0,0,1,.6.294,2.424,2.424,0,0,1,.443.35l0.006-.006,0-.008s0,0,0-.005l0.013-.023a0.5,0.5,0,0,1,.2-0.185c0.037-.02.07-0.045,0.106-0.067h0l0,0,0.048-.042c0.147-.132.279-0.282,0.418-0.423l0.493-.5c0.078-.079.158-0.154,0.242-0.227a1.666,1.666,0,0,1,.316-0.258,0.43,0.43,0,0,1,.466.033,0.417,0.417,0,0,1,.15.441,1.36,1.36,0,0,1-.3.417c-0.087.1-.177,0.19-0.27,0.281l-0.532.516a2.833,2.833,0,0,1-.566.444l-0.06.032c0.172,0.026.338,0.059,0.486,0.089a5.878,5.878,0,0,1,1.488.54,6.462,6.462,0,0,1,2.426,2.133,3.6,3.6,0,0,1,.489,2.77,3.911,3.911,0,0,1-.541,1.294,2.171,2.171,0,0,1-1.126.981,0.613,0.613,0,0,1-.677-0.348c-0.009.015-.014,0.03-0.024,0.045a16.86,16.86,0,0,1-3.688,3.964,15.458,15.458,0,0,1-2.358,1.489,0.6,0.6,0,0,1-.023.174,1.439,1.439,0,0,1-.5.8c-0.019.014-.038,0.026-0.057,0.04a17.719,17.719,0,0,1,2.062-.2c0.094,0,.187,0,0.28,0,0.294-.081.59-0.151,0.889-0.207a10.06,10.06,0,0,0,1.7-1.623A6.221,6.221,0,0,0,86.667,52.129ZM109.33,65.464c-0.829-.774-1.694-1.512-2.6-2.2A38.7,38.7,0,0,0,96.219,57.6a30.482,30.482,0,0,0-10.494-1.879,0.381,0.381,0,0,1-.249.3,3.55,3.55,0,0,1-1.008.139c-0.336.032-.667,0.073-1,0.1-0.675.049-1.353,0.092-2.023,0.188a11.827,11.827,0,0,0-3.5,1.007c-1.741.846-4.359,2.911-3.06,5.063a6.945,6.945,0,0,0,1.522,1.173,8.257,8.257,0,0,0,.785.372,4.325,4.325,0,0,0,.44.023,10.088,10.088,0,0,0,1.824-.2c1.043-.2,2.069-0.441,3.121-0.587a27.478,27.478,0,0,1,10.816.528,21.341,21.341,0,0,1,4.983,2.013c0.83,0.466,4.059,2.189,2.733,3.459a0.343,0.343,0,0,1-.308.1,2.786,2.786,0,0,0,1.551,1.246,1.738,1.738,0,0,0,1.5-1.207,7.271,7.271,0,0,1,1.128-1.85,3.344,3.344,0,0,1,2.033-.912,6.358,6.358,0,0,1,2.434.3,3.877,3.877,0,0,0,1.893.415C110.628,66.79,110,66.091,109.33,65.464Zm-24.123-30,0,0,0-.006h0Zm-8.085,3.3a0.166,0.166,0,0,0-.02-0.029,0.093,0.093,0,0,1,.024.033Zm0.6,4.629c0.09-.045.176-0.1,0.265-0.144a3.816,3.816,0,0,0,.445-0.273,3.356,3.356,0,0,0,.281-0.249c0.11-.113.205-0.238,0.314-0.352a0.84,0.84,0,0,1,1.318,1.017,2.725,2.725,0,0,1-.584.669,4.5,4.5,0,0,1-.708.51,3.022,3.022,0,0,1-.808.319,1.085,1.085,0,0,1-1.2-.363,0.605,0.605,0,0,1,.034-0.626,0.968,0.968,0,0,1,.293-0.3,0.979,0.979,0,0,1,.2-0.139C77.618,43.439,77.669,43.417,77.719,43.393Z"/>
</svg>
