<svg id="usa_normandy_prem_assault_2" xmlns="http://www.w3.org/2000/svg" width="150" height="150" viewBox="0 0 150 150">
  <defs>
    <style>
      .cls-1 {
        fill: #b6b6b6;
      }

      .cls-1, .cls-2, .cls-3, .cls-4, .cls-5, .cls-6, .cls-7 {
        fill-rule: evenodd;
      }

      .cls-2 {
        fill: #eee;
      }

      .cls-3 {
        fill: #151515;
      }

      .cls-4 {
        fill: #3d51b2;
      }

      .cls-5 {
        fill: #9b9b9b;
      }

      .cls-6 {
        fill: #cf2d2d;
      }

      .cls-7 {
        fill: #3ea943;
      }
    </style>
  </defs>
  <path class="cls-1" d="M136.484,86.633s1.994,2.118,1.994,3.364-5.732,8.971-5.732,8.971-2.367-9.1-3.488-11.338-0.125-7.351-.125-7.351Zm-7.226-17.194s0.249-2.118,3.364-2.367,7.475,0.623,7.351,5.108-6.105,8.971-6.105,8.971A91.943,91.943,0,0,1,129.258,69.438ZM13.516,86.633S11.522,88.751,11.522,90s5.732,8.971,5.732,8.971,2.367-9.1,3.489-11.338,0.125-7.351.125-7.351Zm7.227-17.194s-0.249-2.118-3.364-2.367-7.476.623-7.351,5.108,6.105,8.971,6.105,8.971A91.937,91.937,0,0,0,20.743,69.438Z"/>
  <path class="cls-2" d="M139.846,71.5s0.631,3.192-3.53,6.252c-2.5,1.838-6.556,3.192-6.808,4.789S128.88,86,138.02,90.186c0,0,.439-5.919,1.448-8.447S141.359,73.625,139.846,71.5Zm-5.025,4.57c0.251-.184.483-0.369,0.7-0.554l0.278-1.587c-6.728,1.62-6.728-4.112-6.728-4.112l0.091,9.621C130.6,78.384,133.087,77.341,134.821,76.066ZM10.154,71.5s-0.63,3.192,3.53,6.252c2.5,1.838,6.556,3.192,6.808,4.789S21.12,86,11.98,90.186c0,0-.44-5.919-1.448-8.447S8.641,73.625,10.154,71.5Zm5.025,4.57c-0.251-.184-0.483-0.369-0.7-0.554L14.2,73.926c6.728,1.62,6.728-4.112,6.728-4.112l-0.092,9.621C19.4,78.384,16.913,77.341,15.179,76.066Z"/>
  <path class="cls-2" d="M74.827,129.582a81.468,81.468,0,0,0-7.476-8.223c-6.541-5.981-18.69-5.42-18.69-5.42h-11.4s-4.3.747-10.466-4.3-5.42-16.821-5.42-16.821V6.218h107.25v88.6s0.747,11.775-5.42,16.821-10.466,4.3-10.466,4.3h-11.4s-12.148-.561-18.689,5.42a81.468,81.468,0,0,0-7.476,8.223H74.827Z"/>
  <path class="cls-3" d="M75.173,130.9H74.189l-0.395-.5a80.8,80.8,0,0,0-7.329-8.065c-6.069-5.549-17.627-5.083-17.743-5.077H37.346c-0.857.1-5.365,0.327-11.382-4.595-6.481-5.3-5.956-16.936-5.9-17.877V4.9H129.938V94.78c0.054,0.941.58,12.573-5.9,17.877-6.017,4.922-10.525,4.7-11.383,4.595H101.278c-0.116-.005-11.689-0.458-17.743,5.077a80.79,80.79,0,0,0-7.329,8.065l-0.394.5H75.173Zm-25.6-16.286c3.114,0,12.83.45,18.661,5.78A76.421,76.421,0,0,1,75,127.7a76.424,76.424,0,0,1,6.762-7.315c6.76-6.18,18.745-5.8,19.6-5.764h11.485l0.112,0.019c0.022,0,3.871.511,9.409-4.021,5.566-4.554,4.548-15.61,4.541-15.721l0-.082V7.931H23.089v86.93l0,0.041c-0.007.11-1.025,11.166,4.541,15.72,5.539,4.532,9.388,4.024,9.426,4.019l0.112-.019,0.1,0H48.633C48.752,114.62,49.081,114.609,49.577,114.609Z"/>
  <path class="cls-2" d="M74.616,146.688c-33.863,0-50.734-13.207-58.491-19.935s-10.1-10.466-9.482-13.207S9.229,100.463,9.721,95.23s2.217-5.918,2.217-5.918,0.246,7.04,17.978,21.617,44.7,14.09,44.7,14.09h0.768s26.968,0.488,44.7-14.09,17.978-21.617,17.978-21.617,1.724,0.685,2.217,5.918,2.463,15.575,3.078,18.316-1.723,6.479-9.481,13.207-24.628,19.935-58.492,19.935H74.616Zm64.6-29.81a4.491,4.491,0,0,0,1.117-2.652c-0.488-2.173-2.149-10.716-2.9-16.541-2.706,3.858-7.364,9.054-15.377,15.642-17.495,14.383-43.459,14.8-46.362,14.8-0.169,0-.282,0-0.333,0H74.64c-0.051,0-.163,0-0.333,0-2.9,0-28.867-.415-46.362-14.8-8.014-6.588-12.672-11.784-15.377-15.642-0.746,5.825-2.408,14.368-2.9,16.541a4.491,4.491,0,0,0,1.118,2.652,46.242,46.242,0,0,0,7.369,7.53A71.636,71.636,0,0,0,36.83,136.4c10.836,4.766,23.549,7.182,37.785,7.182h0.768c14.236,0,26.95-2.416,37.786-7.182a71.638,71.638,0,0,0,18.672-11.994A46.265,46.265,0,0,0,139.211,116.878Z"/>
  <path id="Shape_144_copy" data-name="Shape 144 copy" class="cls-4" d="M139.211,116.878a4.491,4.491,0,0,0,1.117-2.652c-0.488-2.173-2.149-10.716-2.9-16.541-2.706,3.858-7.364,9.054-15.377,15.642-17.495,14.383-43.459,14.8-46.362,14.8-0.169,0-.282,0-0.333,0H74.64c-0.051,0-.163,0-0.333,0-2.9,0-28.867-.415-46.362-14.8-8.014-6.588-12.672-11.784-15.377-15.642-0.746,5.825-2.408,14.368-2.9,16.541a4.491,4.491,0,0,0,1.118,2.652,46.242,46.242,0,0,0,7.369,7.53A71.636,71.636,0,0,0,36.83,136.4c10.836,4.766,23.549,7.182,37.785,7.182h0.768c14.236,0,26.95-2.416,37.786-7.182a71.638,71.638,0,0,0,18.672-11.994A46.265,46.265,0,0,0,139.211,116.878Z"/>
  <path id="Shape_147_copy_2" data-name="Shape 147 copy 2" class="cls-5" d="M77.26,42.919V57.585l48.66-48.26v-0.4H111.254ZM56.7,58.805H71.367L24.08,11.918V26.584ZM72.774,64.7L28.8,108.671c4.1,3.343,7.018,3.6,7.816,3.6,0.07,0,.123,0,0.158,0l0.312-.074,0.175,0.039H39.9L72.774,79.363V64.7Zm5.706-1.407L122.5,107.31c2.45-3.242,3.436-8.577,3.457-11.61l-32.81-32.41H78.48Z"/>
  <path id="Shape_147_copy" data-name="Shape 147 copy" class="cls-4" d="M78.667,58.805H93.333L125.92,26.618V11.952ZM24.08,9.29L72.774,57.585V42.919L38.78,8.925H24.08V9.29Zm47.474,54H56.888L24.044,95.734c0.024,3.04,1.017,8.365,3.471,11.595Zm49.664,45.366L77.26,64.7V79.363l32.872,32.873h2.974l0.127,0.036q0.052,0,.15,0C114.182,112.275,117.106,112.014,121.218,108.656Z"/>
  <path class="cls-2" d="M23.229,112.409a2.247,2.247,0,0,1,.807,2.081,4.1,4.1,0,0,1-1.172,2.131,4.251,4.251,0,0,1-1.611,1.09,2.076,2.076,0,0,1-1.244.1l-2.173,4.517-1.485-1.434,2.157-3.871-0.675-.652-2.976,3.08L13.5,118.139l7.562-7.825Zm-4.161,2.685,0.594,0.574a1,1,0,0,0,1.072.241,2.537,2.537,0,0,0,.787-0.563,2.139,2.139,0,0,0,.579-0.941,0.939,0.939,0,0,0-.357-0.962l-0.558-.539Zm10.4,2.227-4.224,10.323-1.579-1.1,0.942-2.09-1.979-1.383L21,124.678l-1.425-1,8.337-7.45Zm-2.248,1.273-3.212,3.155,1.384,0.967Zm6.26,1.269-4.52,7.611,2.377,1.412L30.3,130.631l-3.991-2.369,5.557-9.357Zm4.569,2.518-4,7.9,2.466,1.249L35.6,133.336l-4.139-2.1,4.917-9.706Zm3.357,1.6-0.447,4.138,2.748-3.157,1.7,0.727-4.675,4.835-1.806,4.231-1.725-.736,1.806-4.231,0.487-6.622Zm11.71,4.133a2.247,2.247,0,0,1,1.712,1.432,4.1,4.1,0,0,1,0,2.433,4.258,4.258,0,0,1-.884,1.733,2.079,2.079,0,0,1-1.041.688l0.279,5.005-1.993-.539,0.02-4.431-0.906-.245-1.119,4.134-1.823-.493,2.842-10.5Zm-2.346,4.361,0.8,0.215a1,1,0,0,0,1.055-.306,2.543,2.543,0,0,0,.418-0.873,2.135,2.135,0,0,0,.052-1.1,0.939,0.939,0,0,0-.778-0.671l-0.749-.2Zm10.558-1.728c0.724,1.434.4,3.711,0.227,4.664C60.9,139.1,59.469,140.745,57.5,140.4a2.51,2.51,0,0,1-1.871-1.411c-0.7-1.348-.491-3.18-0.227-4.663s0.7-3.276,1.817-4.3A2.586,2.586,0,0,1,61.33,130.749Zm-3.108.98a7.837,7.837,0,0,0-.852,2.942,7.821,7.821,0,0,0-.214,3.071,0.867,0.867,0,0,0,.686.717,0.924,0.924,0,0,0,.9-0.435,7.95,7.95,0,0,0,.842-2.96,7.809,7.809,0,0,0,.224-3.053A0.841,0.841,0,0,0,58.222,131.729Zm7.135-1.392L64.8,136.53a5.224,5.224,0,0,0,.04,2.361,1.078,1.078,0,0,0,.938.61,0.95,0.95,0,0,0,.8-0.279,2.761,2.761,0,0,0,.49-1.549l0.638-7.126,1.57,0.141-0.64,7.157a4.2,4.2,0,0,1-1.324,3.147,2.8,2.8,0,0,1-1.874.453,3.092,3.092,0,0,1-1.785-.685c-0.89-.86-0.911-2.311-0.75-4.112l0.58-6.479Zm7.262,0.419,2.138,6.786,0.089-6.757L76.3,130.8l-0.142,10.882-1.676-.023-2.523-7.9-0.1,7.868L70.4,141.61l0.142-10.882Zm7.017-.08a3.49,3.49,0,0,1,3.159,1.177,8.433,8.433,0,0,1,1.1,3.991,9.1,9.1,0,0,1-.653,4.086,2.933,2.933,0,0,1-2.794,1.6l-2.248.123L77.6,130.787Zm0.33,9,0.325-.018a1.375,1.375,0,0,0,1.427-1.158,7.3,7.3,0,0,0,.173-2.567,7.046,7.046,0,0,0-.433-2.422,1.376,1.376,0,0,0-1.557-.98l-0.325.018Zm14.023-10.834,0.375,2-1.733.326,1.637,8.7-1.844.346-1.637-8.7-1.7.318-0.376-2Zm2.139-.559,1.151,4.224,1.991-.542-1.151-4.224,1.81-.493,2.86,10.5-1.811.493L99.8,133.928l-1.991.542,1.175,4.317-1.81.492-2.86-10.5Zm9.93-3.27,0.649,1.756-3.145,1.162,0.875,2.366,2.44-.9,0.649,1.756-2.441.9,0.952,2.574,3.144-1.162,0.649,1.756-4.905,1.812-3.772-10.206Zm8.685-4.263,0.865,1.66-2.851,1.486,1.313,2.518,2.2-1.145,0.865,1.659-2.2,1.146,1.987,3.811-1.664.868-5.03-9.649Zm1.867-1.183,4.652,7.529,2.353-1.453,1.067,1.727-3.949,2.439-5.719-9.256Zm5.817-4.02,8.528,7.19-1.535,1.164-1.7-1.538-1.923,1.459,1.032,2.044-1.386,1.051L120.912,116.7Zm0.522,2.531,2.016,4.026,1.345-1.021Zm9.367-4.768,4.185,4.024-0.554.577-1.057-.686a3,3,0,0,1,.175,1.054,1.951,1.951,0,0,1-.527,1.349,2.738,2.738,0,0,1-2.114.849,7.4,7.4,0,0,1-4.12-2.261c-1.669-1.605-2.52-3.169-2.588-4.38a2.6,2.6,0,0,1,.752-2.018,2.778,2.778,0,0,1,1.792-.881,4.758,4.758,0,0,1,2.959,1.318l-0.916,1.479a3.656,3.656,0,0,0-1.536-.852,0.947,0.947,0,0,0-.829.245,1.067,1.067,0,0,0-.28.772c0.031,0.585.535,1.434,2.01,2.852,1.316,1.265,2.026,1.67,2.609,1.728a1.107,1.107,0,0,0,.964-0.34,0.907,0.907,0,0,0,.218-0.936,3.217,3.217,0,0,0-.973-1.369l-0.884.92-1.349-1.3Z"/>
  <path class="cls-6" d="M41.922,61.944a10.913,10.913,0,0,0-1.6-.453,10.9,10.9,0,0,0,1.6-.453c1.448-.607,2.71-2.757,2.149-4.252s-2.71-1.308-2.71-1.308a3.886,3.886,0,0,0-.514-2.056c-0.514-.514-2.85-0.794-4.345,1.5a8.654,8.654,0,0,0-1.03,2.806,8.654,8.654,0,0,0-1.03-2.806c-1.5-2.289-3.831-2.009-4.345-1.5a3.885,3.885,0,0,0-.514,2.056s-2.149-.187-2.71,1.308,0.7,3.644,2.149,4.252a10.9,10.9,0,0,0,1.6.453,10.913,10.913,0,0,0-1.6.453c-1.448.607-2.71,2.757-2.149,4.252s2.71,1.308,2.71,1.308A3.885,3.885,0,0,0,30.1,69.56c0.514,0.514,2.85.794,4.345-1.5a5.185,5.185,0,0,0,.389-0.734,15.721,15.721,0,0,1-.292,4.595l1.775-.934s0.163-1.287.239-2.851c1.5,2.206,3.785,1.928,4.294,1.42a3.886,3.886,0,0,0,.514-2.056s2.149,0.187,2.71-1.308S43.371,62.551,41.922,61.944Z"/>
  <path id="Shape_146_copy" data-name="Shape 146 copy" class="cls-7" d="M111.354,75.336a6.856,6.856,0,0,0,2.149-.561,4.9,4.9,0,0,1,1.308-1.028,8.136,8.136,0,0,1,2.2-.281,4.961,4.961,0,0,1,.094-2.149,17.429,17.429,0,0,0,1.962-4.252A7.266,7.266,0,0,0,118.6,63.7s2.616-.981,3.177-3.224a9.329,9.329,0,0,0-.14-4.485s1.5-1.822,1.588-2.056a4.369,4.369,0,0,0,0-1.121l-0.887.093-0.281-.888-0.747.327-0.327-.934A2.249,2.249,0,0,1,120,51.6l-1.122-.374a5.876,5.876,0,0,0,.094,2.99,2.73,2.73,0,0,0-1.309,0,3.382,3.382,0,0,1-.467-2.617,40.342,40.342,0,0,0,1.355-3.971c0-.514.14-2.336-2.71-2.9s-2.99,2.523-2.99,2.523l-1.682.047-0.047.7-0.561.561,0.561,0.794-0.841,1.449,0.7,0.327,0.187,0.7,0.607-.093,0.421,0.981,0.56-.28,0.421-.794a5.4,5.4,0,0,0,2.616,4.018,4.078,4.078,0,0,0-1.682,4.626,3.562,3.562,0,0,0-4.859,1.355,2.257,2.257,0,0,0-.934-1.682,1.8,1.8,0,0,0,.654-1.168,1.61,1.61,0,0,0,1.355-.28,1.119,1.119,0,0,0-.187-1.262,0.83,0.83,0,0,0-1.075.514,1.465,1.465,0,0,0-.794-1.261c-0.794-.374-1.822-0.42-2.1.093a4.562,4.562,0,0,0,.094,2.056s-1.449-.467-2.15.374-0.514,2.71.748,4.345a5.836,5.836,0,0,0,3.177,2.009,4.97,4.97,0,0,0,.281,4.719c1.5,2.476,2.383,3.317,2.569,3.925S111.354,75.336,111.354,75.336Z"/>
  <path class="cls-2" d="M49.592,21.915c-0.261-.174-2.174-0.783-2.653-0.391a3.027,3.027,0,0,0-.565,2.566,2.911,2.911,0,0,0,1.261,1.522l0.13,2.044s0.87,0.609.609,1.044a5.6,5.6,0,0,1-.982.93l-0.018-.017a52.047,52.047,0,0,0-4.349-3.827,3.4,3.4,0,0,0-2.566.566,1.669,1.669,0,0,0-.739,1.522c-0.3.913,0.609,2.348,0.609,2.348A1.752,1.752,0,0,1,41.2,29.7a15.126,15.126,0,0,1,2.044,1.348l0.565,2.044,0.04,0.028A7.292,7.292,0,0,1,42.7,34.375c-0.435.261-1.044-.609-1.044-0.609l-2.044-.13a2.911,2.911,0,0,0-1.522-1.261,3.026,3.026,0,0,0-2.566.565c-0.391.478,0.218,2.392,0.391,2.653s6.523,8.349,7,8.219a1.257,1.257,0,0,0,.565-1s4.479,6.48,8.089,8.958a9.648,9.648,0,0,0-1.7-4.392,1.913,1.913,0,0,0-.174-1.3,14.866,14.866,0,0,0-1.566-2.435,4.052,4.052,0,0,0-.174-1.653c-0.261-.348-1.435-1.7-1.435-1.7a5.623,5.623,0,0,1-.043-1.522A7.3,7.3,0,0,1,47.7,37.9l0.579-.252a19.654,19.654,0,0,1,2.618,4.1L51.83,41.5a1.939,1.939,0,0,0,.22.268,2.164,2.164,0,0,0,1.913.554,1.482,1.482,0,0,0,.3,1.4,1.434,1.434,0,0,0,1.283.327l0.391,1.174,3.088-.043,0.139-.209,0.209-.139,0.043-3.088-1.174-.391a1.434,1.434,0,0,0-.326-1.283,1.483,1.483,0,0,0-1.4-.3,2.2,2.2,0,0,0-.43-1.771l0.506-.99a24.1,24.1,0,0,1-4.7-3.3,7.3,7.3,0,0,1,.87-1.218,5.624,5.624,0,0,1,1.522.043s1.348,1.174,1.7,1.435a4.053,4.053,0,0,0,1.653.174A14.871,14.871,0,0,0,60.073,35.7a1.913,1.913,0,0,0,1.3.174,9.647,9.647,0,0,0,4.392,1.7c-2.479-3.609-8.959-8.089-8.959-8.089a1.257,1.257,0,0,0,1-.565C57.942,28.438,49.853,22.089,49.592,21.915ZM74.824,47.585c-0.26-.173-2.164-0.779-2.64-0.39a3.013,3.013,0,0,0-.563,2.554,2.9,2.9,0,0,0,1.255,1.515l0.13,2.034s0.866,0.606.606,1.039a5.57,5.57,0,0,1-.977.925l-0.019-.017a51.8,51.8,0,0,0-4.328-3.809A3.385,3.385,0,0,0,65.735,52,1.661,1.661,0,0,0,65,53.515a3.606,3.606,0,0,0,.606,2.337,1.743,1.743,0,0,1,.866-0.519,15.052,15.052,0,0,1,2.034,1.342l0.563,2.034,0.039,0.028a7.258,7.258,0,0,1-1.144,1.25c-0.433.26-1.039-.606-1.039-0.606l-2.034-.13A2.9,2.9,0,0,0,63.376,58a3.012,3.012,0,0,0-2.554.563c-0.39.476,0.216,2.38,0.389,2.64s6.492,8.31,6.968,8.18a1.251,1.251,0,0,0,.563-1s4.458,6.449,8.05,8.916A9.6,9.6,0,0,0,75.1,72.927a1.9,1.9,0,0,0-.173-1.3A14.8,14.8,0,0,0,73.373,69.2,4.033,4.033,0,0,0,73.2,67.56c-0.26-.346-1.428-1.688-1.428-1.688a5.6,5.6,0,0,1-.043-1.515,7.271,7.271,0,0,1,1.212-.866l0.577-.251a19.558,19.558,0,0,1,2.605,4.08l0.928-.245a1.933,1.933,0,0,0,.219.267,2.154,2.154,0,0,0,1.9.552,1.475,1.475,0,0,0,.3,1.4,1.427,1.427,0,0,0,1.277.325l0.389,1.168,3.073-.043,0.139-.208,0.208-.139,0.043-3.073-1.168-.39a1.427,1.427,0,0,0-.325-1.277,1.475,1.475,0,0,0-1.4-.3,2.188,2.188,0,0,0-.428-1.763l0.5-.985a23.975,23.975,0,0,1-4.674-3.289,7.26,7.26,0,0,1,.866-1.212,5.592,5.592,0,0,1,1.515.043s1.342,1.169,1.688,1.428a4.035,4.035,0,0,0,1.645.173,14.8,14.8,0,0,0,2.424,1.558,1.9,1.9,0,0,0,1.3.173,9.6,9.6,0,0,0,4.371,1.688c-2.467-3.592-8.916-8.05-8.916-8.05a1.251,1.251,0,0,0,1-.563C83.134,54.077,75.084,47.758,74.824,47.585Zm25.6,25.165c-0.261-.174-2.174-0.783-2.653-0.391a3.027,3.027,0,0,0-.565,2.566,2.911,2.911,0,0,0,1.261,1.522l0.13,2.044s0.87,0.609.609,1.044a5.6,5.6,0,0,1-.982.93l-0.019-.017a52.047,52.047,0,0,0-4.349-3.827,3.4,3.4,0,0,0-2.566.565,1.67,1.67,0,0,0-.739,1.522c-0.3.913,0.609,2.348,0.609,2.348a1.752,1.752,0,0,1,.87-0.522,15.131,15.131,0,0,1,2.044,1.348l0.565,2.044,0.04,0.028a7.3,7.3,0,0,1-1.149,1.256c-0.435.261-1.044-.609-1.044-0.609l-2.044-.13a2.911,2.911,0,0,0-1.522-1.261,3.026,3.026,0,0,0-2.566.565c-0.391.478,0.218,2.392,0.391,2.653s6.523,8.35,7,8.219a1.257,1.257,0,0,0,.565-1s4.479,6.48,8.089,8.958a9.649,9.649,0,0,0-1.7-4.392,1.912,1.912,0,0,0-.174-1.3,14.868,14.868,0,0,0-1.566-2.435,4.053,4.053,0,0,0-.174-1.653c-0.261-.348-1.435-1.7-1.435-1.7a5.62,5.62,0,0,1-.043-1.522,7.306,7.306,0,0,1,1.218-.87l0.579-.252a19.686,19.686,0,0,1,2.618,4.1l0.932-.247a1.986,1.986,0,0,0,.22.268,2.164,2.164,0,0,0,1.913.554,1.482,1.482,0,0,0,.3,1.4,1.433,1.433,0,0,0,1.283.327l0.391,1.174,3.088-.043L110,95.808l0.209-.139,0.043-3.088-1.174-.391a1.433,1.433,0,0,0-.326-1.283,1.483,1.483,0,0,0-1.4-.3,2.2,2.2,0,0,0-.43-1.771l0.506-.99a24.1,24.1,0,0,1-4.7-3.305,7.269,7.269,0,0,1,.87-1.218,5.623,5.623,0,0,1,1.522.044s1.348,1.174,1.7,1.435a4.049,4.049,0,0,0,1.652.174,14.873,14.873,0,0,0,2.436,1.566,1.911,1.911,0,0,0,1.3.174,9.649,9.649,0,0,0,4.392,1.7c-2.478-3.609-8.958-8.089-8.958-8.089a1.256,1.256,0,0,0,1-.565C108.778,79.273,100.689,72.924,100.428,72.75Z"/>
</svg>
