<svg id="_usa_normandy_assault_3_icon" data-name=" usa_normandy_assault_3_icon" xmlns="http://www.w3.org/2000/svg" width="150" height="150" viewBox="0 0 150 150">
  <defs>
    <style>
      .cls-1 {
        fill: #23387c;
      }

      .cls-1, .cls-2 {
        fill-rule: evenodd;
      }

      .cls-2 {
        fill: #ffe037;
      }
    </style>
  </defs>
  <path id="Shape_243_copy_4" data-name="Shape 243 copy 4" class="cls-1" d="M62.454,2.695H12V121.337a17.874,17.874,0,0,0,17.874,17.874H63.651a12.95,12.95,0,0,1,7.628,2.41,8.13,8.13,0,0,1,3.585,5.684h0.27a8.13,8.13,0,0,1,3.585-5.684,12.949,12.949,0,0,1,7.628-2.41h33.775A17.873,17.873,0,0,0,138,121.337V2.695H62.454Z"/>
  <path id="Shape_243_copy_3" data-name="Shape 243 copy 3" class="cls-2" d="M62.454,2.028H12v52H138v-52H62.454Z"/>
  <path class="cls-1" d="M127.314,30.605a2.944,2.944,0,0,1-.708.809c-0.506-1.416-1.662-2.077-2.125-1.872-0.675.3-1.182,1.573-1.111,2.851l1.617,0.387,0.506,0.759-1.789.219a13.256,13.256,0,0,0,1.789,2.614l0.3,1.872a8.705,8.705,0,0,1-3.186-3.44,8.05,8.05,0,0,1-.3-5.716c0.809-2.175,3.136-4.957,4.249-4S127.365,30.352,127.314,30.605Zm-6.26-1.315a11.7,11.7,0,0,0,.4,5.767,18.536,18.536,0,0,1,1.062,3.288c0.1,0.759-1.98,2.58-2.587,3.288h-0.227c-0.607-.708-2.688-2.529-2.587-3.288a18.618,18.618,0,0,1,1.062-3.288,11.7,11.7,0,0,0,.405-5.767c-0.2-1.164-1.821-4.7-2.125-8.094s3.245-6.829,3.245-6.829h0.227s3.549,3.44,3.245,6.829S121.256,28.126,121.054,29.29ZM117.03,34.8a8.716,8.716,0,0,1-3.187,3.44l0.3-1.872a13.21,13.21,0,0,0,1.789-2.614l-1.789-.219,0.506-.759,1.617-.387c0.071-1.278-.436-2.551-1.111-2.851-0.462-.205-1.619.455-2.125,1.872a2.96,2.96,0,0,1-.708-0.809c-0.05-.253-0.354-4.553.759-5.514s3.44,1.821,4.249,4A8.045,8.045,0,0,1,117.03,34.8Zm-8.352-3.389c-0.506-1.416-1.662-2.077-2.125-1.872-0.675.3-1.182,1.573-1.111,2.851l1.617,0.387,0.506,0.759-1.789.219a13.256,13.256,0,0,0,1.789,2.614l0.3,1.872a8.709,8.709,0,0,1-3.187-3.44,8.05,8.05,0,0,1-.3-5.716c0.81-2.175,3.136-4.957,4.249-4s0.81,5.261.759,5.514A2.944,2.944,0,0,1,108.678,31.415Zm-5.552-2.125a11.7,11.7,0,0,0,.4,5.767,18.625,18.625,0,0,1,1.063,3.288c0.1,0.759-1.981,2.58-2.588,3.288h-0.227c-0.607-.708-2.688-2.529-2.587-3.288a18.618,18.618,0,0,1,1.062-3.288,11.7,11.7,0,0,0,.405-5.767c-0.2-1.164-1.821-4.7-2.125-8.094s3.245-6.829,3.245-6.829h0.227s3.549,3.44,3.245,6.829S103.328,28.126,103.126,29.29ZM99.1,34.8a8.713,8.713,0,0,1-3.187,3.44l0.3-1.872a13.236,13.236,0,0,0,1.789-2.614l-1.789-.219,0.506-.759,1.617-.387c0.071-1.278-.436-2.551-1.111-2.851-0.462-.205-1.619.455-2.125,1.872a2.956,2.956,0,0,1-.708-0.809c-0.05-.253-0.354-4.553.759-5.514s3.44,1.821,4.249,4A8.048,8.048,0,0,1,99.1,34.8ZM90.75,31.415c-0.506-1.416-1.662-2.077-2.125-1.872-0.675.3-1.182,1.573-1.111,2.851l1.617,0.387,0.506,0.759-1.789.219a13.241,13.241,0,0,0,1.789,2.614l0.3,1.872a8.714,8.714,0,0,1-3.187-3.44,8.049,8.049,0,0,1-.3-5.716c0.809-2.175,3.136-4.957,4.249-4s0.809,5.261.759,5.514A2.954,2.954,0,0,1,90.75,31.415ZM85.2,29.29a11.7,11.7,0,0,0,.4,5.767,18.6,18.6,0,0,1,1.062,3.288c0.1,0.759-1.98,2.58-2.587,3.288H83.85c-0.607-.708-2.688-2.529-2.587-3.288a18.588,18.588,0,0,1,1.062-3.288,11.7,11.7,0,0,0,.4-5.767c-0.2-1.164-1.821-4.7-2.125-8.094s3.245-6.829,3.245-6.829h0.227s3.549,3.44,3.245,6.829S85.4,28.126,85.2,29.29ZM81.174,34.8a8.713,8.713,0,0,1-3.187,3.44l0.3-1.872a13.236,13.236,0,0,0,1.789-2.614l-1.789-.219L78.8,32.78l1.617-.387c0.071-1.278-.436-2.551-1.111-2.851-0.462-.205-1.619.455-2.125,1.872a2.954,2.954,0,0,1-.708-0.809c-0.051-.253-0.354-4.553.759-5.514s3.44,1.821,4.249,4A8.049,8.049,0,0,1,81.174,34.8Zm-8.352-3.389C72.316,30,71.16,29.337,70.7,29.543c-0.675.3-1.182,1.573-1.111,2.851L71.2,32.78l0.506,0.759-1.789.219a13.238,13.238,0,0,0,1.789,2.614l0.3,1.872a8.714,8.714,0,0,1-3.187-3.44,8.049,8.049,0,0,1-.3-5.716c0.809-2.175,3.136-4.957,4.249-4s0.809,5.261.759,5.514A2.954,2.954,0,0,1,72.822,31.415ZM67.27,29.29a11.7,11.7,0,0,0,.4,5.767,18.587,18.587,0,0,1,1.062,3.288c0.1,0.759-1.98,2.58-2.587,3.288H65.923c-0.607-.708-2.688-2.529-2.587-3.288A18.588,18.588,0,0,1,64.4,35.057a11.7,11.7,0,0,0,.4-5.767c-0.2-1.164-1.821-4.7-2.125-8.094s3.245-6.829,3.245-6.829H66.15s3.548,3.44,3.245,6.829S67.472,28.126,67.27,29.29ZM63.246,34.8a8.714,8.714,0,0,1-3.187,3.44l0.3-1.872a13.233,13.233,0,0,0,1.789-2.614l-1.789-.219,0.506-.759,1.617-.387c0.071-1.278-.436-2.551-1.111-2.851-0.462-.205-1.619.455-2.125,1.872a2.956,2.956,0,0,1-.708-0.809c-0.05-.253-0.354-4.553.759-5.514s3.44,1.821,4.249,4A8.05,8.05,0,0,1,63.246,34.8Zm-8.352-3.389C54.389,30,53.232,29.337,52.77,29.543c-0.675.3-1.182,1.573-1.111,2.851l1.617,0.387,0.506,0.759-1.789.219a13.236,13.236,0,0,0,1.789,2.614l0.3,1.872A8.713,8.713,0,0,1,50.9,34.8a8.049,8.049,0,0,1-.3-5.716c0.809-2.175,3.136-4.957,4.249-4s0.809,5.261.759,5.514A2.954,2.954,0,0,1,54.894,31.415ZM49.342,29.29a11.7,11.7,0,0,0,.4,5.767,18.587,18.587,0,0,1,1.062,3.288c0.1,0.759-1.98,2.58-2.587,3.288H47.995c-0.607-.708-2.688-2.529-2.587-3.288a18.588,18.588,0,0,1,1.062-3.288,11.7,11.7,0,0,0,.4-5.767c-0.2-1.164-1.821-4.7-2.125-8.094s3.245-6.829,3.245-6.829h0.227s3.548,3.44,3.245,6.829S49.544,28.126,49.342,29.29ZM45.318,34.8a8.714,8.714,0,0,1-3.187,3.44l0.3-1.872a13.236,13.236,0,0,0,1.789-2.614l-1.789-.219,0.506-.759,1.617-.387c0.071-1.278-.436-2.551-1.111-2.851-0.462-.205-1.619.455-2.125,1.872a2.956,2.956,0,0,1-.708-0.809c-0.05-.253-0.354-4.553.759-5.514s3.44,1.821,4.249,4A8.05,8.05,0,0,1,45.318,34.8Zm-8.352-3.389C36.461,30,35.3,29.337,34.842,29.543c-0.675.3-1.182,1.573-1.111,2.851l1.617,0.387,0.506,0.759-1.789.219a13.241,13.241,0,0,0,1.789,2.614l0.3,1.872A8.713,8.713,0,0,1,32.97,34.8a8.049,8.049,0,0,1-.3-5.716c0.809-2.175,3.136-4.957,4.249-4s0.809,5.261.759,5.514A2.954,2.954,0,0,1,36.967,31.415ZM31.414,29.29a11.7,11.7,0,0,0,.4,5.767,18.587,18.587,0,0,1,1.062,3.288c0.1,0.759-1.98,2.58-2.587,3.288H30.067c-0.607-.708-2.688-2.529-2.587-3.288a18.587,18.587,0,0,1,1.062-3.288,11.7,11.7,0,0,0,.4-5.767c-0.2-1.164-1.821-4.7-2.125-8.094s3.245-6.829,3.245-6.829h0.227s3.548,3.44,3.245,6.829S31.617,28.126,31.414,29.29ZM27.39,34.8a8.714,8.714,0,0,1-3.187,3.44l0.3-1.872A13.236,13.236,0,0,0,26.3,33.758l-1.789-.219,0.506-.759,1.617-.387c0.071-1.278-.436-2.551-1.111-2.851-0.462-.205-1.619.455-2.125,1.872a2.956,2.956,0,0,1-.708-0.809c-0.05-.253-0.354-4.553.759-5.514s3.44,1.821,4.249,4A8.05,8.05,0,0,1,27.39,34.8Z"/>
  <path id="Shape_244_copy" data-name="Shape 244 copy" class="cls-2" d="M116.234,82.376c-0.362,2.176-1.064,3.663-2.145,4.539a50.873,50.873,0,0,1-.226,5.8,18.323,18.323,0,0,1-3.77,9.992A13.333,13.333,0,0,1,107.667,105c-0.272,1.768-.462,3.562-0.568,5.333-0.089,1.5-.052,3.034-0.017,4.517,0.023,0.962.047,1.957,0.037,2.937,0.075,0.361.15,0.721,0.224,1.083,0.486,2.39.036,4.075-1.377,5.15a4,4,0,0,1-2.446.821,4.5,4.5,0,0,1-3.538-1.762c-1.069-1.39-1.148-3.211-1.219-4.819-0.011-.241-0.021-0.479-0.035-0.714a78.169,78.169,0,0,1,0-11.561,7.027,7.027,0,0,1-2.451-2.7c-1.523-2.99-2-6.467-2.418-9.535C93.354,90.038,92.95,86.391,92.588,83,92.5,82.2,92.4,81.4,92.3,80.555a41.049,41.049,0,0,1-.484-8.336A2.939,2.939,0,0,1,94.748,69.5q0.073,0,.146,0a17.174,17.174,0,0,1,.414-3.323,2.489,2.489,0,0,1,2.516-1.939,2.729,2.729,0,0,1,2.672,1.923,19.512,19.512,0,0,1,.632,4.783l0.081,0c-0.006-1.947-.007-3.588,0-5.256,0-.268,0-0.538-0.005-0.809a8.177,8.177,0,0,1,.787-4.466,2.516,2.516,0,0,1,2.195-1.255,2.7,2.7,0,0,1,2.269,1.245,8.112,8.112,0,0,1,.909,4.4c0.006,0.3.012,0.59,0.024,0.877,0.072,1.678.131,3.329,0.2,5.291,0.059,1.755.113,3.608,0.167,5.661q0.007-1.1.019-2.191c0-.334,0-0.672,0-1.012a16.055,16.055,0,0,1,.36-4.266,2.829,2.829,0,0,1,5.417,0,17.917,17.917,0,0,1,.388,4.9l0,0.122a3.178,3.178,0,0,1,2.016,1.9A12.123,12.123,0,0,1,116.234,82.376Zm-66.05,1.977L49.943,102.5h1.1v2.5H49.91l-0.126,9.51h0.649v1.889H49.758l-0.046,3.44-3.642,4.586H43.979l-3.642-4.586-0.046-3.44H39.618V114.5h0.649l-0.126-9.51H39.01v-2.5h1.1L39.866,84.353H38.718L37.5,80.576H52.545l-1.214,3.777H50.184Zm-6.651-4.182H41.618l0.312-15.891,2.405-2.05h1.381l2.405,2.05,0.312,15.891h-4.9Z"/>
  <path id="Shape_244_copy_2" data-name="Shape 244 copy 2" class="cls-1" d="M116.888,82.485a8.031,8.031,0,0,1-2.134,4.73,49.8,49.8,0,0,1-.232,5.574,18.954,18.954,0,0,1-3.917,10.342,13.849,13.849,0,0,1-2.323,2.241c-0.247,1.66-.422,3.341-0.521,5-0.087,1.473-.051,2.992-0.016,4.461,0.023,0.944.046,1.92,0.037,2.888q0.106,0.507.211,1.016c0.535,2.627-.012,4.582-1.625,5.81a4.663,4.663,0,0,1-2.848.956,5.167,5.167,0,0,1-4.064-2.021c-1.2-1.556-1.281-3.488-1.356-5.193-0.01-.238-0.021-0.474-0.034-0.706a80.512,80.512,0,0,1-.03-11.269,7.713,7.713,0,0,1-2.347-2.727c-1.574-3.09-2.057-6.626-2.484-9.746-0.509-3.724-.914-7.378-1.276-10.771-0.085-.794-0.185-1.591-0.291-2.435a41.524,41.524,0,0,1-.487-8.474,3.584,3.584,0,0,1,3.11-3.293,16.92,16.92,0,0,1,.4-2.844,3.134,3.134,0,0,1,3.161-2.449,3.461,3.461,0,0,1,2.72,1.266,8.734,8.734,0,0,1,.883-4.773,3.2,3.2,0,0,1,2.763-1.577,3.366,3.366,0,0,1,2.825,1.547,8.744,8.744,0,0,1,1.016,4.744c0.006,0.291.012,0.58,0.024,0.862,0.029,0.691.057,1.376,0.083,2.081a3.459,3.459,0,0,1,2.7-1.246,3.412,3.412,0,0,1,3.353,2.5,17.273,17.273,0,0,1,.415,4.748,3.867,3.867,0,0,1,1.962,2.1A12.732,12.732,0,0,1,116.888,82.485Zm-1.033-5.662a0.5,0.5,0,0,1-.125-0.183c-0.008-.02-0.794-2.015-2.223-2.18a0.976,0.976,0,0,0-.8.079c-0.479.411-.771,1.994-0.871,4.706a0.5,0.5,0,0,1-.5.479H111.32a0.5,0.5,0,0,1-.479-0.515c0.118-3.212.47-4.783,1.216-5.424a1.841,1.841,0,0,1,1.543-.315l0.012,0a15.713,15.713,0,0,0-.382-4.227,2.5,2.5,0,0,0-4.777,0,20.842,20.842,0,0,0-.348,5.2c-0.019,1.728-.028,3.457-0.041,5.185-0.026,3.266,0,6.537-.1,9.8-0.033,1.071-.089,2.165-0.228,3.245q-0.086-5.89-.211-11.779-0.111-4.959-.268-9.915c-0.059-1.763-.121-3.526-0.2-5.288-0.073-1.705.078-3.633-.88-5.106a2.377,2.377,0,0,0-1.991-1.094,2.2,2.2,0,0,0-1.91,1.094c-0.919,1.53-.725,3.374-0.736,5.106-0.011,1.683-.008,3.367,0,5.05a2.8,2.8,0,0,1,2.084.381,4.744,4.744,0,0,1,1.87,3.6c0.269,2.555.6,22.467,0.61,23.314a0.5,0.5,0,0,1-.49.505,0.507,0.507,0,0,1-.5-0.489c0-.207-0.34-20.714-0.605-23.226a3.784,3.784,0,0,0-1.414-2.867,1.893,1.893,0,0,0-1.706-.154c-1.237.427-1.347,2.749-1.285,3.608l0.339,24.243a0.5,0.5,0,0,1-.491.5H99.939a0.5,0.5,0,0,1-.5-0.49L99.1,75.457c-0.01-.122-0.237-3.522,1.69-4.479a19.234,19.234,0,0,0-.618-4.721,2.4,2.4,0,0,0-2.354-1.684,2.159,2.159,0,0,0-2.193,1.684,15.485,15.485,0,0,0-.349,2.351,0.487,0.487,0,0,1,.027.114l2.361,23a0.5,0.5,0,0,1-.444.546l-0.052,0a0.5,0.5,0,0,1-.494-0.447L94.424,69.855a2.6,2.6,0,0,0-2.282,2.392c-0.288,3.476.407,7.262,0.776,10.721,0.382,3.586.784,7.169,1.272,10.742,0.433,3.166.917,6.547,2.385,9.43a6.73,6.73,0,0,0,2.5,2.674,77.127,77.127,0,0,0-.02,11.716c0.1,1.806.029,3.846,1.185,5.35a4.175,4.175,0,0,0,3.276,1.632,3.678,3.678,0,0,0,2.246-.753c1.567-1.193,1.61-3.058,1.252-4.819q-0.114-.561-0.232-1.117c0.03-2.5-.167-5-0.018-7.506q0.165-2.774.593-5.5a12.834,12.834,0,0,0,2.476-2.315,18.037,18.037,0,0,0,3.7-9.817,50.464,50.464,0,0,0,.223-5.928c1.341-.995,1.887-2.844,2.151-4.432A12.768,12.768,0,0,0,115.855,76.823ZM50.675,84.85l-0.228,17.165h1.074v3.459H50.4l-0.114,8.554h0.62v2.838H50.249l-0.042,3.141-3.9,4.908H43.739l-3.9-4.908L39.8,116.866H39.143v-2.838h0.62l-0.114-8.554h-1.12v-3.459H39.6L39.375,84.85H38.356l-1.534-4.772h4.3l0.235-11.984H41.344v-0.75h0.028l0.065-3.3,2.715-2.314H45.9l2.715,2.314,0.065,3.3h0.166v0.75H48.693l0.044,2.25h0.107v0.75H48.751L48.8,73.469h0.046v0.75H48.813l0.115,5.859h4.3L51.694,84.85H50.675Zm-5.581,25.681c1.218,0,2.233,1.5,2.493,3.5h1.7l0.114-8.554H40.644l0.113,8.554H42.6C42.861,112.027,43.876,110.531,45.094,110.531Zm-1.594,4.3c0,2.05.686,3.712,1.531,3.712s1.531-1.662,1.531-3.712-0.686-3.712-1.531-3.712S43.5,112.784,43.5,114.834Zm4.153,0.143c0,0.019,0,.036,0,0.054a7.819,7.819,0,0,1-.051.885h2.352v-0.939h-2.3Zm-6.821,4.677,3.387,4.266H45.83l3.387-4.266,0.037-2.788H47.429c-0.4,1.568-1.293,2.665-2.336,2.665s-1.935-1.1-2.335-2.665H40.8Zm-0.74-3.738h2.49a7.842,7.842,0,0,1-.051-0.885c0-.018,0-0.035,0-0.054H40.092v0.939Zm-0.6-12.938v1.532H50.557v-1.532H39.492Zm10.174-17.1L49.68,84.85H40.37l0.014,1.029h9.282Zm-9.269.995,0.2,15.141h8.854l0.2-15.141H40.4Zm7.23-22.36-2.1-1.786H44.518l-2.1,1.786-0.056,2.83h5.316Zm0.07,3.58H42.352l-0.044,2.25h5.434Zm0.059,3H42.293l-0.047,2.375H47.8Zm0.061,3.125H42.232l-0.043,2.188h5.672Zm0.058,2.938h-5.7l-0.049,2.517h5.8Zm-9.689,3.917,0.894,2.782h0.281V83.788H50.689v0.067h0.281l0.894-2.782H38.187Zm6.907,20.833c-1.415,0-2.562-1.916-2.562-4.281s1.147-4.281,2.563-4.281,2.563,1.917,2.563,4.281S46.509,101.906,45.094,101.906Zm-0.062-7.992c-0.84,0-1.521,1.578-1.521,3.523s0.681,3.523,1.521,3.523,1.521-1.578,1.521-3.523S45.871,93.914,45.031,93.914Z"/>
</svg>
