<svg id="_101_airborne_division" data-name="101_airborne_division" xmlns="http://www.w3.org/2000/svg" width="150" height="150" viewBox="0 0 150 150">
  <defs>
    <style>
      .cls-1 {
        fill: #151515;
      }

      .cls-1, .cls-2, .cls-3, .cls-4, .cls-5 {
        fill-rule: evenodd;
      }

      .cls-2 {
        fill: #8b7026;
      }

      .cls-3 {
        fill: #eee;
      }

      .cls-4 {
        fill: #ffca3b;
      }

      .cls-5 {
        fill: #cc2f2f;
      }
    </style>
  </defs>
  <path id="Shape_4_copy" data-name="Shape 4 copy" class="cls-1" d="M75,3.036A128.384,128.384,0,0,0,24,13.6V43.684a128.414,128.414,0,0,1,102,0V13.6A128.384,128.384,0,0,0,75,3.036ZM72.634,44.964H25.055s8.3,8.688,8.946,17.377v45.035s-0.728,17.678,9.983,24.9c5.964,4.019,15.168,4.279,19.317,5.057s9.594,2.2,11.668,10.633h0.065c2.074-8.429,7.519-9.855,11.668-10.633s13.354-1.038,19.317-5.057c10.711-7.22,9.983-24.9,9.983-24.9V62.341c0.648-8.688,8.945-17.377,8.945-17.377H72.634Z"/>
  <path class="cls-2" d="M75.032,149A1.076,1.076,0,0,1,74,148.239c-1.869-7.594-6.4-9.05-10.881-9.89-0.872-.163-1.987-0.3-3.278-0.468-4.874-.617-11.549-1.463-16.414-4.742C32.377,125.692,32.97,108.114,33,107.37V62.377c-0.611-8.149-8.588-16.6-8.669-16.687A1,1,0,0,1,25.055,44h99.89a1,1,0,0,1,.724,1.69c-0.081.084-8.058,8.538-8.672,16.761l0,44.96c0.03,0.7.623,18.281-10.423,25.728-4.866,3.279-11.54,4.125-16.414,4.742-1.291.163-2.406,0.305-3.278,0.468-4.48.84-9.012,2.3-10.881,9.89A1,1,0,0,1,75.032,149ZM27.257,46C29.739,49.008,34.5,55.582,35,62.3l0,45.108c-0.008.212-.574,17.251,9.542,24.07,4.47,3.012,10.873,3.824,15.547,4.415,1.322,0.168,2.464.313,3.395,0.488,3.14,0.589,8.678,1.628,11.516,8.479,2.838-6.851,8.376-7.89,11.516-8.479,0.931-.175,2.073-0.32,3.4-0.488,4.675-.591,11.077-1.4,15.548-4.415,10.115-6.819,9.549-23.858,9.542-24.029V62.377c0.5-6.776,5.262-13.366,7.744-16.377H27.257Z"/>
  <path id="Shape_4_copy_2" data-name="Shape 4 copy 2" class="cls-3" d="M108.725,94.524c-3.254,2.863-8,2.8-8,2.8s2.082,9.761.52,10.932-8-3.449-8-3.449,2.212,10.347,1.106,11.909-6.377-3.189-6.377-3.189,0.521,8.525-.325,9.5-5.661-3.905-5.661-3.905c-0.13,2.8-4.165,11-5.076,11.323s-3.579-5.922-3.579-5.922c-0.911,1.042-8.069,5.857-8.655,5.206s0.456-12.1.781-16.333,2.993-9.045,3.514-11.713-1.106-7.809-.521-9.566,5.418-3.969,6.59-5.206,0.781-3.644-.26-4.88-6.768-5.987-8.069-7.158-6.247-12.3-7.679-14.121-4.182-1.757-4.182-1.757c0.065-1.171,1.822-3.579,6.052-3.969a46.639,46.639,0,0,1,20.5,2.733A22.985,22.985,0,0,1,94.409,70.187c1.236,2.928.455,3.254,6.182,11.127s10.932,6.637,11.062,7.028S111.978,91.661,108.725,94.524ZM75.082,64.2s-1.627-2.147-7.548-2.343L63.759,59.71c-0.13.065,2.343,2.733,2.538,3.579s0,2.017-1.822,2.863c0,0,8,.976,12.429,4.035,0,0-1.887-2.863-1.627-3.319s0.911-.586,1.171-1.171l3.384-.521S75.538,64.721,75.082,64.2Zm-5.336,2.408c-3.319-.976-3.058-3.319-2.993-3.709a1.828,1.828,0,0,1,1.106-.651A2.74,2.74,0,0,1,69.1,63.419a2.34,2.34,0,0,0,.976,2.278c1.236,0.781,2.993-.716,3.058-1.627,0,0,1.562.26,1.757,1.3S73.065,67.584,69.746,66.608Z"/>
  <path class="cls-2" d="M126,44.943a1,1,0,0,1-.4-0.083,126.664,126.664,0,0,0-101.206,0,1,1,0,0,1-1.4-.924V13.643a1.007,1.007,0,0,1,.6-0.924,128.656,128.656,0,0,1,102.794,0,1.007,1.007,0,0,1,.6.924V43.937A1,1,0,0,1,126,44.943ZM75,32.3a127.917,127.917,0,0,1,50,10.114V14.305a126.67,126.67,0,0,0-100,0V42.414A127.918,127.918,0,0,1,75,32.3Z"/>
  <path id="Shape_4_copy_3" data-name="Shape 4 copy 3" class="cls-4" d="M36.671,32.091q-0.309-1.625-.618-3.248-1.832.555-3.654,1.163l-0.614,3.64q-1.9.644-3.787,1.346,2.025-9.154,4.064-18.242,2.2-.74,4.41-1.4,2.052,7.787,4.116,15.641-1.964.521-3.916,1.1m-3.7-5.466q1.249-.411,2.5-0.8-0.627-3.3-1.252-6.594-0.626,3.692-1.25,7.391M45,13.093q0,8.4,0,16.8-1.862.427-3.717,0.909V14Q43.143,13.52,45,13.093m6.948,9.212q-0.516.09-1.033,0.184v6.189q-1.872.341-3.739,0.737v-16.8q2.431-.515,4.873-0.939c1.986-.344,3.472-0.13,4.454.587a4.342,4.342,0,0,1,1.474,3.745,5.712,5.712,0,0,1-.62,2.74,7.09,7.09,0,0,1-1.982,2.186q1.758,3.247,3.518,6.542-2.1.251-4.188,0.57-1.38-2.884-2.758-5.739M50.92,19.443q0.628-.114,1.256-0.223c1.3-.223,1.946-1.1,1.947-2.666a1.825,1.825,0,0,0-.537-1.51,2.008,2.008,0,0,0-1.612-.237q-0.526.091-1.053,0.188v4.448M70,18.955a3.662,3.662,0,0,1,.879,2.7A4.393,4.393,0,0,1,69.2,25.55a9.375,9.375,0,0,1-4.675,1.373q-2.387.183-4.77,0.452v-16.8q2.107-.239,4.219-0.409a8.18,8.18,0,0,1,4.684.71,3.451,3.451,0,0,1,1.625,3.261,3.652,3.652,0,0,1-.746,2.384,4.161,4.161,0,0,1-1.848,1.3A4.323,4.323,0,0,1,70,18.955m-6.472-5.637v3.506c0.326-.027.653-0.054,0.979-0.079a2.279,2.279,0,0,0,1.47-.54,1.935,1.935,0,0,0,.47-1.432,1.431,1.431,0,0,0-.5-1.25,2.523,2.523,0,0,0-1.622-.27l-0.8.064m2.836,9.862a1.91,1.91,0,0,0,.613-1.62,1.915,1.915,0,0,0-.572-1.574,2.3,2.3,0,0,0-1.653-.382q-0.612.046-1.224,0.1v4.11c0.34-.029.68-0.056,1.02-0.082a3.446,3.446,0,0,0,1.817-.549M83.133,11.909a11.367,11.367,0,0,1,1.714,6.629,12.688,12.688,0,0,1-.765,4.668,6.04,6.04,0,0,1-2.235,2.913,6.435,6.435,0,0,1-8.305-1.46,10.754,10.754,0,0,1-1.707-6.5,13.183,13.183,0,0,1,.766-4.728,6.583,6.583,0,0,1,2.228-3.06A5.515,5.515,0,0,1,78.333,9.36a5.788,5.788,0,0,1,4.8,2.549m-6.751,1.929a10.7,10.7,0,0,0-.624,4.3,10.747,10.747,0,0,0,.633,4.323,2.123,2.123,0,0,0,1.942,1.361,1.967,1.967,0,0,0,1.962-1.234,10.9,10.9,0,0,0,.612-4.3,11.146,11.146,0,0,0-.612-4.332,2.125,2.125,0,0,0-1.962-1.377,1.984,1.984,0,0,0-1.951,1.262m14.9,7.594q-0.519-.067-1.037-0.13,0,3.095,0,6.189-1.883-.228-3.769-0.4v-16.8q2.457,0.225,4.908.543a7.322,7.322,0,0,1,4.458,1.937,5.8,5.8,0,0,1,1.469,4.191,4.656,4.656,0,0,1-.618,2.553A4.541,4.541,0,0,1,94.718,21.1q1.755,3.779,3.506,7.606-2.084-.382-4.176-0.7-1.38-3.3-2.764-6.575m-1.037-3.176q0.631,0.076,1.261.159c1.3,0.171,1.952-.511,1.951-2.075a2.379,2.379,0,0,0-.538-1.673,2.566,2.566,0,0,0-1.616-.727q-0.529-.069-1.057-0.132,0,2.224,0,4.449m19.87,13.2q-2.33-.651-4.671-1.215-1.769-6.748-3.544-13.448l0.06,0.52q0.2,1.711.313,3.2t0.111,3.348v5.682q-1.653-.358-3.312-0.673V12.06q2.306,0.438,4.6.959,1.832,6.762,3.658,13.577-0.244-1.875-.372-3.359t-0.13-3.369V13.776q1.646,0.415,3.285.873v16.8m10.888-13.263q-0.187,1.514-.374,3.029-2.331-.859-4.681-1.63v3.578Q118,23.84,120.041,24.58v3.07q-2.038-.741-4.091-1.414v3.82q2.508,0.823,5,1.747V34.97q-4.306-1.6-8.674-2.9V15.27q4.395,1.306,8.733,2.919M67.4,91.335s0.911-2.147,2.082-2.668a16.274,16.274,0,0,0,3.058-1.562,3.445,3.445,0,0,0,.391-4.23c-1.236-1.822-6.247-5.336-7.288-6.637s-7.093-13.08-8-14.186-3.514-2.017-5.011-2.343-13.47-.716-14.641,10.607c0,0,5.076-2.993,7.483-2.6a9.608,9.608,0,0,1,5.011,3.123,32.683,32.683,0,0,0,9.37,6.052c4.1,1.5,6.052,4.555,3.709,5.922s-4.1-.13-6.637-0.26-6.117.325-8.459-1.041-4.1-4.555-4.685-4.23,0.148,2.765.8,3.611a31.1,31.1,0,0,0,5.058,4.262c1.3,0.781,7.288.781,9.826,0.911A9.815,9.815,0,0,1,67.4,91.335Z"/>
  <path id="Shape_4_copy_4" data-name="Shape 4 copy 4" class="cls-5" d="M45.929,74.612S48.6,78,54.584,80.338s7.679,1.367,8.069.781,0.651-2.212-2.8-2.6-10.607-2.863-12.038-3.9S44.888,72.855,45.929,74.612Z"/>
</svg>
