<svg id="_29_infantry_division" data-name="29_infantry_division" xmlns="http://www.w3.org/2000/svg" width="150" height="150" viewBox="0 0 150 150">
  <defs>
    <style>
      .cls-1 {
        fill: #151515;
      }

      .cls-1, .cls-2, .cls-3, .cls-4 {
        fill-rule: evenodd;
      }

      .cls-2 {
        fill: #414493;
      }

      .cls-3 {
        fill: #b5b5b6;
      }

      .cls-4 {
        fill: #fad993;
      }
    </style>
  </defs>
  <path class="cls-1" d="M146,75A71,71,0,1,1,75,4,71,71,0,0,1,146,75Z"/>
  <path class="cls-2" d="M137.5,75A62.5,62.5,0,1,1,75,12.5,62.5,62.5,0,0,1,137.5,75Z"/>
  <path class="cls-3" d="M96.461,15.76a32.009,32.009,0,0,0-15.854-2.5A31.252,31.252,0,0,0,75.228,74.6a32.363,32.363,0,0,1,11.026,5.131A31.206,31.206,0,0,1,98.782,104.7,31.6,31.6,0,0,1,67,136.11c-1.007,0-2-.051-2.984-0.142a64.243,64.243,0,0,0,10.754.919c34.912,0,63.213-27.966,63.213-62.463A62.51,62.51,0,0,0,96.461,15.76Z"/>
  <path class="cls-4" d="M75,2.513A72.487,72.487,0,1,0,147.487,75,72.569,72.569,0,0,0,75,2.513Zm0,142A69.513,69.513,0,1,1,144.513,75,69.592,69.592,0,0,1,75,144.513ZM75,10.561A64.434,64.434,0,0,0,62.891,138.282l0.06,0.013a66.55,66.55,0,0,0,7.923,1c1.366,0.087,2.739.146,4.126,0.146A64.439,64.439,0,0,0,75,10.561Zm4.973,5.179Q81.411,15.6,82.85,15.6a30.184,30.184,0,0,1,12.022,2.482l0.115,0.046a60.764,60.764,0,0,1,40.238,56.841c0,30.926-23.6,56.51-53.952,60.1A33.349,33.349,0,0,0,99.9,105.251,32.968,32.968,0,0,0,86.6,78.73a33.937,33.937,0,0,0-11.681-5.452A29.314,29.314,0,0,1,79.973,15.739ZM14.439,75a60.645,60.645,0,0,1,54.43-60.251A33.128,33.128,0,0,0,73.9,77.016a30.173,30.173,0,0,1,10.372,4.81,29.125,29.125,0,0,1,11.755,23.426A29.694,29.694,0,0,1,66.18,134.722c-0.447,0-.9-0.011-1.354-0.033A60.648,60.648,0,0,1,14.439,75Z"/>
</svg>
