<svg id="_32_armored_regiment" data-name="32_armored_regiment" xmlns="http://www.w3.org/2000/svg" width="150" height="150" viewBox="0 0 150 150">
  <defs>
    <style>
      .cls-1 {
        fill: #ffc169;
      }

      .cls-1, .cls-2 {
        fill-rule: evenodd;
      }

      .cls-2 {
        fill: #d42931;
      }
    </style>
  </defs>
  <path class="cls-1" d="M134.048,3.019H15.952V119.662c0,10.316,8.562,18.278,18.878,18.278H60.287s11.423,0.713,14.687,8.641h0.057c3.264-7.928,14.682-8.641,14.682-8.641h25.456c10.316,0,18.879-7.962,18.879-18.278V3.019"/>
  <path id="Shape_16_copy" data-name="Shape 16 copy" class="cls-2" d="M134.047,119.662v-1.156l-7.075-7.773V94.527L114.894,80.1V96.309L101.262,80.4V64.2L88.183,48.772V64.979L74.952,49.873V33.666L62.073,18.441V34.648L49.092,19.636V3.019H15.953V27.874h2.724l8.7,10.168H15.953v3.366l10.233,11.6h14.1L53.625,68.9h-14.1L52.637,84.069h14.1l12.74,14.9h-14.1l13.112,15.165h14.1l12.739,14.9h-14.1l7.822,8.912h16.12C125.485,137.94,134.047,129.977,134.047,119.662Z"/>
</svg>
