<svg xmlns="http://www.w3.org/2000/svg" width="80" height="80" viewBox="0 0 80 80">
  <defs>
    <style>
      .cls-1 {
        fill: #2e362b;
      }

      .cls-2 {
        fill: #fbb03b;
      }

      .cls-3 {
        fill: #f2f2f2;
      }
    </style>
  </defs>
  <g id="Layer_5" data-name="Layer 5">
    <g>
      <path class="cls-1" d="M11.64305,51.84582A55.82248,55.82248,0,0,0,14.592,33.02069c0-8.2326-1.4146-15.85631-3.89669-21.07937V3.22684H69.3047v8.71448C66.82261,17.16438,65.408,24.78809,65.408,33.02069a55.81572,55.81572,0,0,0,2.94942,18.82609L40.01212,75.77765Z"/>
      <path class="cls-2" d="M72.28321.24809H7.71679V12.63528c2.36235,4.6006,3.89669,12.0161,3.89669,20.38492,0,7.96306-1.38951,15.06175-3.55916,19.69532L40.013,79.67507,71.9458,52.71552c-2.16965-4.63332-3.55928-11.73226-3.55928-19.69532,0-8.36882,1.53434-15.78432,3.89669-20.38492Zm-55.2,41.0018,22.91682,19.127,22.91676-19.127c.19264,1.62494.441,3.20164.74336,4.71762L39.90292,65.796,16.31255,46.10688C16.62748,44.54855,16.88478,42.92446,17.08324,41.24989ZM66.32619,11.29025c-2.48694,5.5852-3.8967,13.39167-3.8967,21.73,0,.75069.01455,1.497.03757,2.23964l-22.467,18.75163L17.53294,35.25978c.023-.74262.03757-1.48889.03757-2.23958,0-8.33828-1.40976-16.14475-3.8967-21.73V6.20511H66.32619Z"/>
      <path class="cls-1" d="M68.31186,4.21944v7.5c-2.48355,5.34825-3.89669,13.03341-3.89669,21.30079a57.8935,57.8935,0,0,0,2.77417,18.51354L40.01188,74.47856,12.81114,51.53264A57.89584,57.89584,0,0,0,15.58483,33.0202c0-8.26738-1.41314-15.95254-3.89669-21.30079v-7.5H68.31186M72.28321.24809H7.71679v12.3872c2.36235,4.60059,3.89669,12.01609,3.89669,20.38491,0,7.96306-1.38951,15.06175-3.55916,19.69532L40.013,79.67507,71.9458,52.71552c-2.16965-4.63332-3.55928-11.73226-3.55928-19.69532,0-8.36882,1.53434-15.78432,3.89669-20.38491V.24809Z"/>
      <path class="cls-3" d="M72.53142,0H7.46858V12.63541l.02763.11344c2.42247,4.71791,3.86906,12.296,3.86906,20.27172,0,7.65086-1.28855,14.79075-3.536,19.58914l-.08047.17259L40.01309,80,72.10578,52.90543l.14543-.12313-.08047-.17259c-2.24746-4.79839-3.536-11.93828-3.536-19.58914,0-7.97567,1.44659-15.55381,3.86906-20.27172ZM12.85453,33.02057c0-8.156-1.41993-15.68858-3.89669-20.68088V1.48926H71.04216V12.33969c-2.47676,4.9923-3.89669,12.52487-3.89669,20.68088,0,7.36677,1.19693,14.40389,3.28781,19.34772L40.0126,78.05117,9.56721,52.36732C11.6576,47.4235,12.85453,40.38734,12.85453,33.02057Z"/>
    </g>
    <path class="cls-2" d="M53.23253,23.79209a20.30769,20.30769,0,0,1-.96382,6.57736,11.94989,11.94989,0,0,1-2.81272,4.662,11.61659,11.61659,0,0,1-4.53793,2.76739,19.88307,19.88307,0,0,1-6.40987.91888H32.36761a1.58633,1.58633,0,0,1-.975-.34727,1.44031,1.44031,0,0,1-.45944-1.22159V11.28658a1.44225,1.44225,0,0,1,.45944-1.22158,1.591,1.591,0,0,1,.975-.34727h6.5666a18.21461,18.21461,0,0,1,6.36454.975,11.60354,11.60354,0,0,1,4.35892,2.8012A11.973,11.973,0,0,1,52.3248,17.92,17.7517,17.7517,0,0,1,53.23253,23.79209Zm-4.05658.15673a15.8177,15.8177,0,0,0-.58275-4.38157A9.42367,9.42367,0,0,0,46.767,16.06a8.44387,8.44387,0,0,0-3.14885-2.308,12.39063,12.39063,0,0,0-4.90824-.82975H34.78812V35.49089h3.96669a13.75932,13.75932,0,0,0,4.68391-.6953A7.71857,7.71857,0,0,0,46.621,32.66665a9.255,9.255,0,0,0,1.91612-3.59715A18.17839,18.17839,0,0,0,49.176,23.94882Z"/>
  </g>
</svg>
