<svg xmlns="http://www.w3.org/2000/svg" width="80" height="80" viewBox="0 0 80 80">
  <defs>
    <style>
      .cls-1 {
        fill: #2e362b;
      }

      .cls-2 {
        fill: #fbb03b;
      }

      .cls-3 {
        fill: #f2f2f2;
      }
    </style>
  </defs>
  <g id="Layer_5" data-name="Layer 5">
    <g>
      <path class="cls-1" d="M11.64305,51.84582A55.82248,55.82248,0,0,0,14.592,33.02069c0-8.2326-1.4146-15.85631-3.89669-21.07937V3.22684H69.3047v8.71448C66.82261,17.16438,65.408,24.78809,65.408,33.02069a55.81572,55.81572,0,0,0,2.94942,18.82609L40.01212,75.77765Z"/>
      <path class="cls-2" d="M72.28321.24809H7.71679V12.63528c2.36235,4.6006,3.89669,12.0161,3.89669,20.38492,0,7.96306-1.38951,15.06175-3.55916,19.69532L40.013,79.67507,71.9458,52.71552c-2.16965-4.63332-3.55928-11.73226-3.55928-19.69532,0-8.36882,1.53434-15.78432,3.89669-20.38492Zm-55.2,41.0018,22.91682,19.127,22.91676-19.127c.19264,1.62494.441,3.20164.74336,4.71762L39.90292,65.796,16.31255,46.10688C16.62748,44.54855,16.88478,42.92446,17.08324,41.24989ZM66.32619,11.29025c-2.48694,5.5852-3.8967,13.39167-3.8967,21.73,0,.75069.01455,1.497.03757,2.23964l-22.467,18.75163L17.53294,35.25978c.023-.74262.03757-1.48889.03757-2.23958,0-8.33828-1.40976-16.14475-3.8967-21.73V6.20511H66.32619Z"/>
      <path class="cls-1" d="M68.31186,4.21944v7.5c-2.48355,5.34825-3.89669,13.03341-3.89669,21.30079a57.8935,57.8935,0,0,0,2.77417,18.51354L40.01188,74.47856,12.81114,51.53264A57.89584,57.89584,0,0,0,15.58483,33.0202c0-8.26738-1.41314-15.95254-3.89669-21.30079v-7.5H68.31186M72.28321.24809H7.71679v12.3872c2.36235,4.60059,3.89669,12.01609,3.89669,20.38491,0,7.96306-1.38951,15.06175-3.55916,19.69532L40.013,79.67507,71.9458,52.71552c-2.16965-4.63332-3.55928-11.73226-3.55928-19.69532,0-8.36882,1.53434-15.78432,3.89669-20.38491V.24809Z"/>
      <path class="cls-3" d="M72.53142,0H7.46858V12.63541l.02763.11344c2.42247,4.71791,3.86906,12.296,3.86906,20.27172,0,7.65086-1.28855,14.79075-3.536,19.58914l-.08047.17259L40.01309,80,72.10578,52.90543l.14543-.12313-.08047-.17259c-2.24746-4.79839-3.536-11.93828-3.536-19.58914,0-7.97567,1.44659-15.55381,3.86906-20.27172ZM12.85453,33.02057c0-8.156-1.41993-15.68858-3.89669-20.68088V1.48926H71.04216V12.33969c-2.47676,4.9923-3.89669,12.52487-3.89669,20.68088,0,7.36677,1.19693,14.40389,3.28781,19.34772L40.0126,78.05117,9.56721,52.36732C11.6576,47.4235,12.85453,40.38734,12.85453,33.02057Z"/>
    </g>
    <path class="cls-2" d="M49.47286,36.20844q0,.34975-.02174.61254a2.55041,2.55041,0,0,1-.07647.45885,1.54963,1.54963,0,0,1-.14245.35012,1.92479,1.92479,0,0,1-.3059.37188,6.37307,6.37307,0,0,1-.91881.66727,11.02349,11.02349,0,0,1-1.73865.8742,14.43313,14.43313,0,0,1-2.3838.722,13.75007,13.75007,0,0,1-2.94124.29539,12.91168,12.91168,0,0,1-4.97565-.91843,10.05372,10.05372,0,0,1-3.78357-2.71181A12.37027,12.37027,0,0,1,29.779,32.50172a19.94563,19.94563,0,0,1-.842-6.06915,20.03293,20.03293,0,0,1,.90756-6.27684,13.63731,13.63731,0,0,1,2.548-4.66939,10.89536,10.89536,0,0,1,3.92564-2.91949,12.43614,12.43614,0,0,1,5.06263-1.00616,12.19365,12.19365,0,0,1,2.38381.23017,15.24342,15.24342,0,0,1,2.14351.57955,9.75545,9.75545,0,0,1,1.74952.809,5.91924,5.91924,0,0,1,1.06051.75424,2.56506,2.56506,0,0,1,.38274.44834,1.52254,1.52254,0,0,1,.14245.36138,3.61045,3.61045,0,0,1,.08735.49183,6.05443,6.05443,0,0,1,.03261.67776,5.35239,5.35239,0,0,1-.04386.74375,2.081,2.081,0,0,1-.132.51357.77718.77718,0,0,1-.20881.30664.45767.45767,0,0,1-.29689.09822,1.63022,1.63022,0,0,1-.85733-.4266,13.99223,13.99223,0,0,0-1.41851-.94018,11.46945,11.46945,0,0,0-2.11053-.94017,9.20069,9.20069,0,0,0-2.97909-.42661,7.75375,7.75375,0,0,0-3.44094.75424,7.26226,7.26226,0,0,0-2.64959,2.22,10.91036,10.91036,0,0,0-1.70416,3.57551,17.54483,17.54483,0,0,0-.60429,4.82234A17.58661,17.58661,0,0,0,33.5,30.97075a9.88034,9.88034,0,0,0,1.67117,3.45556,6.98306,6.98306,0,0,0,2.671,2.09928,8.6602,8.6602,0,0,0,3.58414.71075,9.49526,9.49526,0,0,0,2.95661-.41536,11.56282,11.56282,0,0,0,2.15476-.92968,16.87593,16.87593,0,0,0,1.462-.92968,1.75394,1.75394,0,0,1,.90157-.41535.5074.5074,0,0,1,.2639.06523.45989.45989,0,0,1,.17582.25191,2.29484,2.29484,0,0,1,.099.51357Q49.47249,35.70538,49.47286,36.20844Z"/>
  </g>
</svg>
