<svg id="_4_armored_division" data-name="4_armored_division" xmlns="http://www.w3.org/2000/svg" width="150" height="150" viewBox="0 0 150 150">
  <defs>
    <style>
      .cls-1 {
        fill: #364ea5;
      }

      .cls-1, .cls-2, .cls-3, .cls-4, .cls-5, .cls-6 {
        fill-rule: evenodd;
      }

      .cls-2 {
        fill: #bd2727;
      }

      .cls-3 {
        fill: #969696;
      }

      .cls-4 {
        fill: #edd741;
      }

      .cls-5 {
        fill: #a8a8a8;
      }

      .cls-6 {
        fill: #565656;
      }
    </style>
  </defs>
  <path class="cls-1" d="M74.8,22.7L18.466,97.628,74.8,97.589V22.7"/>
  <path id="Shape_93_copy" data-name="Shape 93 copy" class="cls-2" d="M75.2,22.7V97.589l56.332,0.039L75.2,22.7"/>
  <path class="cls-3" d="M73.955,86.649h2.091V24.841L129.5,97H20.5L73.955,24.841V86.649M75,19.412l-1.921,2.6-54.5,73.255-2.818,3.811H134.235l-2.818-3.811-54.5-73.255L75,19.412"/>
  <path class="cls-4" d="M113.517,43.175L56.034,58.392l-2.992.792,0.607-3.036,2.393-11.963-42.6,27.379,30.059-4.6,3.11-.477-0.988,2.989L42.8,78.032l21.04-7.689,0.693-.253,0.684,0.273L86.13,78.71,136.621,54.7l-24.239.074-2.671.008,0.832-2.538,2.974-9.067M53.042,59.184l2.992-.792,57.483-15.217-2.974,9.067-0.832,2.538,2.671-.008,24.239-.074L86.13,78.71,65.213,70.363l-0.684-.273-0.693.253L42.8,78.032l2.829-8.557,0.988-2.989-3.11.477-30.059,4.6,42.6-27.379L53.649,56.148l-0.607,3.036m61.946-17.4-60.7,16.067,3.142-15.711L9.11,73.2l36.095-5.525L41.256,79.623l23.258-8.5,21.65,8.64,54.758-26.04-29.879.09,3.945-12.025"/>
  <path class="cls-3" d="M113.724,51.741l4.219-12.86L56.806,55.063l3.427-17.138L0.46,76.345,42.4,69.925,38.188,82.666,64.5,73.051l21.748,8.679,63.292-30.1ZM64.545,69.954L42.814,77.9l3.817-11.546L13.46,71.429l42.6-27.38-3,15,60.476-16.009-3.807,11.607,26.91-.081L86.146,78.574Z"/>
  <path id="Shape_95_copy_2" data-name="Shape 95 copy 2" class="cls-5" d="M76.472,43.622c-0.155,0-.317.007-0.486,0.02-3.684.295-4.68,1.588-4.978,2.584a5.492,5.492,0,0,0-1.932-.354,4.293,4.293,0,0,0-1.751.354,5.6,5.6,0,0,0-3.484,3.981s-0.127-.014-0.348-0.014a6.789,6.789,0,0,0-3.335.911c-1.891,1.094-2.688,4.777-2.19,7.664s3.185,6.071,4.18,6.468a2.671,2.671,0,0,0,.973.159,3.708,3.708,0,0,0,2.511-.854,11.158,11.158,0,0,0,1.1-1.592,5.252,5.252,0,0,0,2.768.92,3.619,3.619,0,0,0,.417-0.024A3.81,3.81,0,0,0,72.5,62.152a7.313,7.313,0,0,0,3.9,1.568,3.251,3.251,0,0,0,1.073-.174,4.831,4.831,0,0,0,2.887-2.091,2.572,2.572,0,0,0,1.62.595,2.669,2.669,0,0,0,1.367-.4l0.4,1.692L59.959,71.607a12.594,12.594,0,0,0,4.579,7.664l0.03,0.024c-1.095,4.848-5.942,24.275-15.348,34.417A51.175,51.175,0,0,1,74.9,130.235h0.2a51.176,51.176,0,0,1,25.678-16.523c-9.08-9.791-13.911-28.233-15.22-33.861a32.774,32.774,0,0,1,1.473-3.565,70.044,70.044,0,0,1,4.579-6.47,3.525,3.525,0,0,0,1-1.592c0.1-.5-0.7-4.379-0.9-8.858a49.918,49.918,0,0,1,.1-6.968c0-.3-4.082-1.592-4.082-1.592s-0.7-3.784-3.086-4.878a4.188,4.188,0,0,0-1.761-.385,5.265,5.265,0,0,0-2.817.882,3.379,3.379,0,0,0-3.593-2.8"/>
  <path id="Shape_95_copy" data-name="Shape 95 copy" class="cls-6" d="M79.07,67.328l-0.3-.4s-4.579,2.19-4.977,5.474a8.05,8.05,0,0,0,1.593,5.673l0.6-.06a7.1,7.1,0,0,1-1.336-4.7C74.989,70.811,76.781,69.02,79.07,67.328ZM72.8,73a5.733,5.733,0,0,0-3.285-2.886l-0.8.5A5.051,5.051,0,0,1,72.1,73.4Zm11.646-9.157v0.5s3.285-.1,6.768,3.584l0.1-1.1S88.327,63.644,84.445,63.844ZM70.809,50.108l0.8,5.076a8,8,0,0,1-5.375,2.388,1.478,1.478,0,0,0,.9.5A6.4,6.4,0,0,0,71.8,56.279L73,60.958l0.7-.4-1-4.678a7.632,7.632,0,0,0,6.072-.7l1.493,5.076,0.5-.1-0.9-4.876a5.245,5.245,0,0,0,3.484,1.393,22.926,22.926,0,0,0-.6,3.683l0.6,0.2s0.3-4.379,4.18-5.873l-0.3-.6s-2.588,1.891-3.882,1.792A7.216,7.216,0,0,1,78.175,52.1a5.37,5.37,0,0,1-.3-4.18l0.9-.7a18.469,18.469,0,0,0,7.266,3.284,33,33,0,0,1-7.366-4.18s-1.891,2.388-6.072,1.791c0,0,1,1.493,4.181.6a6.76,6.76,0,0,0,1.593,5.375,5.993,5.993,0,0,1-5.873.8,57.947,57.947,0,0,1-.9-6.769,7.4,7.4,0,0,1-6.47,2.488l0.7,0.8S68.022,52.1,70.809,50.108Zm-7.067,2.985a25.477,25.477,0,0,0,.7,4.778,4.209,4.209,0,0,1-4.479,2.191l0.1,0.3c2.787,1.593,4.778-1.294,4.778-1.294l1.294,2.787,0.5-.3C64.04,57.075,64.438,51.1,64.438,51.1h-0.8V52.3a4.925,4.925,0,0,1-3.982,1.094l0.1,0.4C61.552,54.686,63.742,53.094,63.742,53.094Zm3.548,27.771a19.153,19.153,0,0,1,7.658,5.98h0.106a19.153,19.153,0,0,1,7.658-5.98l-0.3-1.194a17.225,17.225,0,0,0-7.359,4.877H74.947a17.225,17.225,0,0,0-7.359-4.877Zm-1.795,7.167A20.216,20.216,0,0,1,74.95,95.5h0.1a20.216,20.216,0,0,1,9.456-7.466l-0.4-1.294a18.452,18.452,0,0,0-9.058,6.37h-0.1a18.452,18.452,0,0,0-9.058-6.37ZM62.458,96.89s7.266,1.692,12.442,10.152h0.2c5.176-8.46,12.442-10.152,12.442-10.152l-0.8-1.791A22.493,22.493,0,0,0,75.1,104.355H74.9A22.493,22.493,0,0,0,63.255,95.1Zm28.517,7.664A28.894,28.894,0,0,0,75.05,116.7h-0.1a28.894,28.894,0,0,0-15.926-12.144l-0.6,1.294s9.456,1.692,16.523,13.637h0.1c7.067-11.945,16.523-13.637,16.523-13.637Z"/>
</svg>
