<svg id="_383_fighter_squadron" data-name="383_fighter_squadron" xmlns="http://www.w3.org/2000/svg" width="150" height="150" viewBox="0 0 150 150">
  <defs>
    <style>
      .cls-1 {
        fill: #25759f;
      }

      .cls-1, .cls-2, .cls-3, .cls-4, .cls-5 {
        fill-rule: evenodd;
      }

      .cls-2 {
        fill: #eee;
      }

      .cls-3 {
        fill: #f4c41e;
      }

      .cls-4 {
        fill: #151515;
      }

      .cls-5 {
        fill: #ac3333;
      }
    </style>
  </defs>
  <path class="cls-1" d="M145.5,75A70.5,70.5,0,1,1,75,4.5,70.5,70.5,0,0,1,145.5,75Z"/>
  <path id="Shape_60_copy" data-name="Shape 60 copy" class="cls-2" d="M100.626,85.439a13.453,13.453,0,0,0-3.25,2.083c-0.917,1-3.667,4-5,5.5s-6.583,7.75-7.25,8.917-1.583,3.167-2.417,4.5-4.917,5.25-6.417,6.667a40.813,40.813,0,0,1-7.417,4.583c-1.333.583-9.417,4.083-10.75,4.667a56.821,56.821,0,0,0-5.75,2.583,4.718,4.718,0,0,0-1.583,3c-0.083,1.333.25,2.833,0.75,2.917s2.25,0.333,2.25.333,1,2.917,2.75,3.417a14.824,14.824,0,0,0,4.583.166s2.167,1.417,3.333,2.417,4.417,0.75,5.75,0,7.417-4.75,9-7.417,3.917-5.75,4.75-7.166a22.3,22.3,0,0,0,2-3.417c0.417-1.167,1.667-5.833,2.25-6.917s6.167-10.083,7.833-12.166,3.667-5.25,6.334-7.25,5.166-3.833,5.166-3.833,3.417-1.917,5.5-3.167,6.99-4.352,7.24-8.935-0.666-7-1-7.667-3.583-4.917-4.5-6.083-3-2.5-3.916-3.917a37.989,37.989,0,0,1-2.084-3.417,11.206,11.206,0,0,1-.666-4.083c0.083-.583.5,0.25,0.916,0.417s3.667,3,4.584,3.75,3.416,1,4.583.75,2.5-2.5,2.5-3.667-2.75-8-3.333-9.667-2.25-5.75-3.084-7.333-1.5-2.583-1.583-4.083a33.29,33.29,0,0,0-.417-4.667c-0.25-.917-0.583-5.75-5.916-3.833,0,0-1.584-3.083-3.167-3.167s-2.75.333-3.083,1.25c0,0-2.917-1.333-4-.917a4.8,4.8,0,0,0-2.583,4.5A23.944,23.944,0,0,0,94.7,30.171l1.5,3,0.167,0.583a3.656,3.656,0,0,0-2.75-.167c-1.167.583-2,1.583-2.083,3.917A17.163,17.163,0,0,0,93.366,45c0.917,1.5,5.833,10,6.5,11s4.666,6.917,5.333,8.083,3.833,7.25,4.25,9.25a45.2,45.2,0,0,1,.667,9.167c-0.25,1.417-.584,3.333-0.584,3.333s-1.333,1-1.75.833-4.666.083-5-.083S100.626,85.439,100.626,85.439Z"/>
  <path class="cls-3" d="M13.557,60.168L59.388,45.66l-5.271-2.51S82.68,30.2,82.68,30.35,39.61,42.4,39.61,42.4l5.07,2.058L13.506,56Zm96.231,37.247,27.107-2.008L102.157,92.8l1.807,2.61-38.8-.7L35.895,75.528l-5.12,4.016L54.714,94.519,25.956,94l-2.61,5.522,40.23,0.54,11.976,7.492-4.719,2.409,38.753,22.088-25.7-20.18,4.719-1.807L73.543,100.2l39.557,0.531Z"/>
  <path class="cls-4" d="M13.557,60.65a0.5,0.5,0,0,1-.5-0.494l-0.05-4.167a0.5,0.5,0,0,1,.326-0.475L43.3,44.417l-3.876-1.574a0.5,0.5,0,0,1,.055-0.945c14.473-4,42.084-11.653,42.993-12.017l0.021,0.052a0.458,0.458,0,0,1,.46-0.022,0.5,0.5,0,0,1,.23.421c0,0.164,0,.266-0.39.438L82.8,30.814c-0.8.252-19.259,8.6-27.5,12.329l4.3,2.048a0.5,0.5,0,0,1-.064.928L13.707,60.627A0.5,0.5,0,0,1,13.557,60.65Zm0.454-4.32,0.038,3.141L58.027,45.549,53.9,43.584a0.5,0.5,0,0,1,.008-0.906c10.647-4.827,17.346-7.858,21.579-9.75-3.963,1.114-9.087,2.543-14.211,3.967-8.425,2.342-16.851,4.673-20.118,5.575l3.707,1.506a0.5,0.5,0,0,1-.014.932ZM136.931,94.89l-34.737-2.61a0.478,0.478,0,0,0-.472.251,0.5,0.5,0,0,0,.023.532L103,94.872l-37.678-.679-29.15-19.1a0.5,0.5,0,0,0-.582.024l-5.121,4.017a0.5,0.5,0,0,0,.044.817L52.92,93.97l-26.955-.486a0.618,0.618,0,0,0-.461.286l-2.61,5.522a0.5,0.5,0,0,0,.445.714l40.091,0.538,11.109,6.949L70.605,109.5a0.5,0.5,0,0,0-.02.88l38.753,22.086a0.5,0.5,0,0,0,.556-0.828L84.887,112.006l3.9-1.492a0.5,0.5,0,0,0,.1-0.884L75.253,100.7l37.84,0.508H113.1a0.5,0.5,0,0,0,.354-0.854l-2.542-2.542,26.02-1.927A0.5,0.5,0,0,0,136.931,94.89ZM31.643,79.481l4.278-3.355L63.443,94.159,54.861,94ZM65.012,95.188l6.82,4.469-8.11-.109-7.215-4.513ZM24.13,99.016l2.14-4.526L54.566,95,61.8,99.522ZM87.511,109.93l-3.806,1.457a0.5,0.5,0,0,0-.13.861l20.382,16-32.073-18.28,3.894-1.989a0.5,0.5,0,0,0,.038-0.869l-10.46-6.543,8.034,0.108ZM109.749,96.9a0.5,0.5,0,0,0-.316.853l2.443,2.443-38.181-.512-6.806-4.46,37.067,0.668a0.487,0.487,0,0,0,.45-0.264,0.5,0.5,0,0,0-.03-0.52l-1.211-1.749,27.01,2.029Z"/>
  <path class="cls-5" d="M61.949,77.421s1.25-4.583,2.083-5.833a15.829,15.829,0,0,1,1.75-2.167,23.373,23.373,0,0,0,3.25-.083c0.833-.167,4.917-1.167,5.917-1.833a45,45,0,0,0,5.583-4.083c1.083-1.167,2.75-3.333,2.75-3.333L84.616,58.5a20.883,20.883,0,0,1,3.75-.583c0.917,0.083,4.333,2.583,5,3.917S94.532,64.5,94.532,64.5s2.333,1.833,3,2.25,1.917,1,2.417.75,1.25-.583,1.25-0.583a7.156,7.156,0,0,1,1.25-2.583,2.578,2.578,0,0,1,1.75-.917s4,6.25,4.583,8.167a39.72,39.72,0,0,1,1.417,8.25,18.081,18.081,0,0,1-.417,4.75,18.081,18.081,0,0,1-.666,1.833s-3.667.417-4.084,0.417a7.046,7.046,0,0,1-3-.5,3.59,3.59,0,0,0-1.333-.583l-2.25.5s-4.917.25-6.167-.167c0,0-5.333,4.083-6.333,4.833s-4.083,3.333-4.083,3.333a1.96,1.96,0,0,0-1,.833,18.364,18.364,0,0,1-1,2.667,4.478,4.478,0,0,1-2.417,1.917,7.408,7.408,0,0,1-2.583-.917l-2.5-5.833a6.827,6.827,0,0,1,1.167-2.5c0.667-.583,1.5-1.25,2-1.083s2.5,0.417,2.5.417L82.7,85s-9.5-5.5-11.667-6.917l-1.083-.333ZM35.866,62.254s-0.083,2.583-.833,3.25-2,2.333-2.5,2.5a1.158,1.158,0,0,0-1.083,1,3.47,3.47,0,0,0,.667,2.333A3.578,3.578,0,0,0,34.7,72.671a13.358,13.358,0,0,0,3.333-1.25,7.685,7.685,0,0,1,2.333,1c0.917,0.667,4.917,1.333,4.917,1.333S50.2,67.338,52.2,65.671c0,0-6.667,0-7.417-.083s-3.75,0-3.75,0a4.079,4.079,0,0,0-.667-1.917,3.518,3.518,0,0,0-2.083-1.333C37.782,62.338,35.866,62.254,35.866,62.254Z"/>
  <path class="cls-2" d="M50.583,90.583s7-5.083,8.75-7.833a31.8,31.8,0,0,0,2.833-5.917l3.167-7.417a14.369,14.369,0,0,0,6.083-.5c3.167-1,9.333-5.167,10.833-6.75a35.114,35.114,0,0,0,3.667-5.833,5.81,5.81,0,0,0,1.083-2,3.92,3.92,0,0,0-.417-1.75l-0.833-.667s-0.5-1.5-.75-2.167a3.058,3.058,0,0,0-.917-1.167L80.417,48.5S71.5,48.25,71,48a6.894,6.894,0,0,0-3.5,0,11.063,11.063,0,0,0-4.333,2.083A6.7,6.7,0,0,0,61.5,52.917c-0.167.917-.417,2.75-0.417,2.75l-1.333.167a20.514,20.514,0,0,0-2.833,3.25A15.593,15.593,0,0,0,56.333,61s-4.917,5.417-6.833,7.583-4.167,4.5-4.833,5.583-4.75,7.417-5.25,9.333a53.946,53.946,0,0,0-.833,6.5,78.9,78.9,0,0,0,11.833-6S48.917,90.167,50.583,90.583ZM31.75,68.75s4.333-3,4.333-5.583c0,0-2.333-3.417-3.167-4.25s-2.667-2.25-2.667-2.25A23.2,23.2,0,0,0,30.583,52a28.123,28.123,0,0,1-.083-3.5l-0.167-.75-2.667-.083a6.169,6.169,0,0,0-2.917-.333A10.808,10.808,0,0,0,22,49.583l-1,.75S19.75,51,19.25,51.25a2.554,2.554,0,0,0-1.75,1c-0.75,1-2.583,3.25-1.917,5.583s2,4.917,3.25,5.5,4.5,3,5.5,3.167S31.75,68.75,31.75,68.75ZM72.583,92.583s1.833,4.083,2.083,5.083a5.071,5.071,0,0,1,.083,1.917s-2.75,0-3.5-.083a2.476,2.476,0,0,0-2.167,1,13.462,13.462,0,0,1-1.5,2A4.983,4.983,0,0,1,68,104.417c-0.083.75,0,1.666-.917,2.083a32.28,32.28,0,0,1-4,1.083c-0.667.167-2.583-1.333-2.833-1.833a2.016,2.016,0,0,0-1.25-.667s-2.833-.416-3.667-1.333a5.918,5.918,0,0,1-1.167-2.167,2.826,2.826,0,0,1-1.917-.416c-0.667-.584-1.25-4.084-1-4.75A17.6,17.6,0,0,1,53,93.833c0.417-.583,3.5-3.167,3.917-3.75a7.177,7.177,0,0,1,3.667-1.5,5.508,5.508,0,0,1,2.583,1.333c0.75,0.667,4.75,4.083,4.75,4.083L70,93.25Z"/>
  <path class="cls-4" d="M62.531,58.574a0.75,0.75,0,0,0-.871.605A19.323,19.323,0,0,1,54.93,70.4l-0.1.07a32.584,32.584,0,0,0-6.412,5.878,42.581,42.581,0,0,0-5.082,8.561,0.75,0.75,0,0,0,.383.989,0.749,0.749,0,0,0,.989-0.382,41.87,41.87,0,0,1,4.857-8.2,31.289,31.289,0,0,1,6.144-5.628l0.1-.07a20.616,20.616,0,0,0,7.326-12.171A0.75,0.75,0,0,0,62.531,58.574Zm9.907,3.549a1.158,1.158,0,0,1-.853-1.406,1.492,1.492,0,0,0-.151,1.958c0.7,0.954,1.908.9,2.159,0.5S73.592,62.575,72.438,62.123Zm4.468-8.082,0.251,0.7,3.414-2.46L78.01,55.4a4.66,4.66,0,0,0,1.2.151c0.4-.05,2.259-3.865,2.259-3.865a0.451,0.451,0,0,0,.05-0.7l-4.719.452-0.3.954a29.863,29.863,0,0,1,3.313-.351Zm36.119,6.317a33.359,33.359,0,0,1-2.774-3.045,26.906,26.906,0,0,1-1.966-5.5c0.96,1.363,3.329,4.347,6.348,5.446a6.126,6.126,0,0,0,2.09.4,4.263,4.263,0,0,0,1.918-.438,5.113,5.113,0,0,0,2.453-2.987c0.442-1.412-1-5.736-1.461-6.6a21.18,21.18,0,0,1-.94-2.671c-0.266-.847-0.56-1.784-0.887-2.712-0.809-2.293-3.407-7.5-3.517-7.715a0.7,0.7,0,0,0-.067-0.11,7.152,7.152,0,0,1-.925-3.541c-0.185-3.684-.8-6.029-1.878-7.172a5.155,5.155,0,0,0-4.92-1.215,8.078,8.078,0,0,0-1.319-1.878c-2.115-2.115-5.758-.145-5.912-0.06-0.012.007-.019,0.019-0.031,0.026a3.513,3.513,0,0,0-1.152-.443,4.7,4.7,0,0,0-4.351,1.429c-1.26,1.4-1.561,3.537-.85,6.011a30.993,30.993,0,0,0,2.031,5.12,4.94,4.94,0,0,0-2.2.339c-1.944.81-2.7,3.845-1.92,7.733,0.569,2.846,5.177,10.313,7.653,14.323,0.548,0.889.976,1.581,1.2,1.97,0.352,0.605,1.06,1.767,1.912,3.163,0.488,0.8,1.037,1.7,1.6,2.624-1.262.505-2.128,2.306-2.558,3.431a3.563,3.563,0,0,0-.735.1,3.344,3.344,0,0,1-1.683-.138c-0.572-.4-2.874-1.774-3.7-2.265-0.192-.854-0.334-1.434-0.4-1.574a9.68,9.68,0,0,0-5.048-4.887,6.755,6.755,0,0,0-2.883.2c0.12-.123.231-0.242,0.317-0.351a3.113,3.113,0,0,0,.579-1.389,4.456,4.456,0,0,0,1.138-2.269,0.747,0.747,0,0,0-.23-0.618l-1.81-1.717a13.573,13.573,0,0,0-1.127-2.97,0.644,0.644,0,0,0-.132-0.094l0.745-.9-0.3-.652-1.131,1.287q-0.279-.072-0.628-0.136l0.855-2.255-0.3-.7-1.168,2.856a79.863,79.863,0,0,0-8.244-.54c-0.444.045-2.516,0.168-2.95,0.193a22.065,22.065,0,0,0-4.745-.334c-1.278.243-4.356,2.318-4.958,2.821a6.1,6.1,0,0,0-1.6,4.65c-4.892,3.422-5.164,6.11-5.147,6.77a44.941,44.941,0,0,0-3.6,3.6c-0.478-.026-7.137-0.377-10.153-0.2a4.549,4.549,0,0,0-1.6-2.486,4.081,4.081,0,0,0-3.968-.5c-0.817-1.376-2.891-4.543-5.289-5.784a7.416,7.416,0,0,0,.038-4.861c0.125-.718.477-2.759,0.522-3.251a1.088,1.088,0,0,0-.359-0.929,2.665,2.665,0,0,0-2.191-.276,2.491,2.491,0,0,0-.778.308c-0.012,0-.824-0.206-1.84-0.409a5.179,5.179,0,0,0-4.424,1.944,3.3,3.3,0,0,0-.337.47,0.71,0.71,0,0,0-.1.007,4.388,4.388,0,0,0-2,1.54c-0.809.422-3.782,2.106-4.252,4.3A9.806,9.806,0,0,0,18.95,64.5c3.115,2.163,9.6,4.013,11.747,4.588a3.386,3.386,0,0,0,.051,2.428A8.148,8.148,0,0,0,34.061,73.5c0.082,0,.164.007,0.245,0.007a5.726,5.726,0,0,0,3.449-1.324A29.825,29.825,0,0,0,43.74,74.27c-3.1,4.239-6.838,11.5-6.384,16.138a0.749,0.749,0,0,0,.981.639,36.357,36.357,0,0,0,7.425-3.36c2.008-1.41,3.049-2.283,3.345-2.539,0.128-.061.368-0.181,0.68-0.351a29.43,29.43,0,0,0-1.29,6.757,0.75,0.75,0,0,0,1.165.661,48.254,48.254,0,0,0,8.173-7.3,21.985,21.985,0,0,0,4.279-6.56,79.843,79.843,0,0,0,8.017.05,114.657,114.657,0,0,0,11.583,6.39,44.038,44.038,0,0,0-4.023,4.487,8.972,8.972,0,0,0-3.711.135,0.742,0.742,0,0,0-.314.145,4.929,4.929,0,0,0-1.792,2.361l-4.2.807c-1.7-1.721-4.477-4.286-6.335-4.775a0.749,0.749,0,0,0-.228-0.023c-0.3.015-2.941,0.172-4.161,1.086-0.933.7-5.869,5.809-6.231,7.167-0.271,1.015-.347,3.832.2,4.836,0.453,0.831,1.838,1,2.809,1.006a3.222,3.222,0,0,0,1.117,2.29,7.057,7.057,0,0,0,3.746,1.584,1.16,1.16,0,0,0,.186-0.013c0.23-.032.525-0.064,0.762-0.089a5.741,5.741,0,0,0,1.9,2.072,2.475,2.475,0,0,0,1.219.257A12.019,12.019,0,0,0,68.54,106.1a2.467,2.467,0,0,0,.682-1.643,1.022,1.022,0,0,0-.4-0.716c-0.144-.109-0.512-0.34-0.87-0.561a9.131,9.131,0,0,0,2.271-2.789l4.63-.842a15.681,15.681,0,0,0,2.88.353,3.681,3.681,0,0,0,1.115-.138c1.594-.53,2.253-3.967,2.253-4.192,0-.016-0.008-0.048-0.011-0.071,1.792-1.363,8.685-6.618,9.5-7.429,0.327-.327.959-0.861,1.628-1.428l0.084-.071c0.753,0.076,2.816.275,4.433,0.337-2.776,2.944-6.564,7.587-6.755,7.821a0.694,0.694,0,0,0-.033.062h0a2.363,2.363,0,0,1,1.51.5c1.155-1.4,5.245-6.331,7.515-8.523a7.294,7.294,0,0,0,1.787-.9,6.1,6.1,0,0,0,2.063,1.427,3.78,3.78,0,0,0,1.381.207,20.392,20.392,0,0,0,4.718-.8c-3.305,2.183-9.251,7.4-9.523,7.634a0.739,0.739,0,0,0-.246.569,2.345,2.345,0,0,1,1.34.467c0.877-.766,7.227-6.282,9.95-7.856,0.639-.369,1.317-0.71,2.034-1.07,2.584-1.3,5.512-2.769,7.351-6.111,2.267-4.122,1.233-9.8-.96-13.277A52.947,52.947,0,0,0,113.024,60.358ZM85.138,53.439c0.094-.118.289-0.325,0.468-0.511l1.016,0.964a4.013,4.013,0,0,1-.811,1.228c-0.016.016-.024,0.038-0.038,0.055a1.731,1.731,0,0,1-1.021-1.116C84.946,53.742,85.085,53.5,85.138,53.439Zm0.4,2.464a1.417,1.417,0,0,1-.233.531,9.789,9.789,0,0,1-1.076,1.02,2.761,2.761,0,0,1-.934-1.348,10.549,10.549,0,0,0,.817-1.052A1.971,1.971,0,0,1,85.538,55.9Zm-1.626-6.443c0.033,0.07.072,0.164,0.113,0.267a1.1,1.1,0,0,1-1.046-.254,0.9,0.9,0,0,1-.052-0.169A9.57,9.57,0,0,1,83.912,49.459ZM60.058,56.789c-0.873.971-1.757,1.916-2.505,2.673A11.8,11.8,0,0,1,60.058,56.789ZM19.806,63.264a8.242,8.242,0,0,1-3.359-8.112c0.307-1.433,2.713-2.9,3.615-3.35a0.762,0.762,0,0,0,.283-0.243c0.052-.074.124-0.163,0.2-0.252a13.575,13.575,0,0,0-.209,2.232,0.75,0.75,0,0,0,.749.75h0a0.751,0.751,0,0,0,.75-0.75c0-.815.177-3.129,0.966-4.021a3.75,3.75,0,0,1,3.007-1.468c0.279,0.056.539,0.111,0.773,0.162-0.152.174-.3,0.352-0.45,0.529a4.161,4.161,0,0,0-.959,2.468l-0.013.138a11.633,11.633,0,0,1-.642,1.685,0.75,0.75,0,0,0,1.369.613,10.778,10.778,0,0,0,.764-2.131l0.016-.169a2.688,2.688,0,0,1,.618-1.643,4.5,4.5,0,0,1,1.73-1.552,3.438,3.438,0,0,1,.719-0.07c-0.1.684-.337,2.086-0.5,3.02a0.773,0.773,0,0,0,.075.479c0.046,0.09,1.114,2.261-.85,5.922a0.75,0.75,0,1,0,1.321.709c0.148-.275.276-0.542,0.4-0.8,2.293,1.284,4.385,4.861,4.8,5.6a4.332,4.332,0,0,1-.358,1.809,6.439,6.439,0,0,1-3.1,2.935C30.058,67.367,22.921,65.427,19.806,63.264ZM37.376,70.5c-0.015.02-.05,0.055-0.078,0.085a0.742,0.742,0,0,0-.387.358,4.064,4.064,0,0,1-2.7,1.06,9.708,9.708,0,0,1-2.2-1.325,6.329,6.329,0,0,1,.224-1.607c0.031-.015.057-0.032,0.088-0.047a7.377,7.377,0,0,0,3.549-3.37,7.571,7.571,0,0,0,.816-2.53,2.6,2.6,0,0,1,2.206.229,3.188,3.188,0,0,1,1.233,1.708C39.975,65.678,37.652,70.05,37.376,70.5Zm1.428,0.5c0.488-.885,1.782-3.27,2.429-4.713,1.947-.186,6.85.006,9.173,0.114-2.014,2.23-4.129,4.687-5.585,6.467-0.011,0-.021-0.006-0.032-0.006C43.464,72.921,40.543,71.77,38.8,71.006Zm22.651,4.843a20.785,20.785,0,0,1-4.734,8.06,50.53,50.53,0,0,1-6.555,6.077,27.3,27.3,0,0,1,1.535-6.1,0.749,0.749,0,0,0,.049-0.307,27.361,27.361,0,0,0,7.673-8.16c4.2-6.854,5.046-8.968,5.08-9.055a0.75,0.75,0,0,0-1.4-.547,76.523,76.523,0,0,1-4.961,8.818,24.873,24.873,0,0,1-9.756,9.194,0.758,0.758,0,0,0-.2.127,39.653,39.653,0,0,1-3.293,2.5,30.582,30.582,0,0,1-6.074,2.829c0.171-4.23,3.55-11.024,6.938-15.2,3.714-4.576,9.841-11.274,10.746-11.749,1.177-.588,4.831-4.725,5.551-5.548a0.751,0.751,0,0,0,.155-0.706A5.168,5.168,0,0,1,63.03,51.1a19.348,19.348,0,0,1,4.277-2.5,21.482,21.482,0,0,1,4.312.355,0.874,0.874,0,0,0,.16.008s2.586-.152,3.08-0.2c0.639-.026,4.727.2,7.253,0.45a1.95,1.95,0,0,0,.065,1.012c0.172,0.378,1.382.332,2.126,0.266,0.158,0.468.326,1.006,0.466,1.5a0.736,0.736,0,0,0,.1.167,5.087,5.087,0,0,1-.434,1.434c-0.452.853-1.656,2.46-2.158,2.56s-8.584,3.715-8.534,4.568,2.108,0.7,2.56.452,4.819-3.715,6.024-4.267c0.052-.024.1-0.071,0.157-0.1l1.264,1.172a0.527,0.527,0,0,0-.044.128A12.769,12.769,0,0,1,82,60.489c-0.564.563-2.224,2.467-2.294,2.547a0.738,0.738,0,0,0-.08.11C78.465,65.1,77.006,65.736,74.8,66.7c-0.572.248-1.18,0.514-1.828,0.822a22.755,22.755,0,0,1-6.219,1.65,0.74,0.74,0,0,0-.228-0.862,0.748,0.748,0,0,0-1.052.134,29.168,29.168,0,0,0-3.31,5.536C61.9,74.588,61.681,75.207,61.455,75.849ZM82.377,62.91a5.671,5.671,0,0,1,.907,3.116c-0.054,1.4-2.624,4.2-3.381,4.389a25.083,25.083,0,0,1-6.013-.329,4.108,4.108,0,0,1-.826-0.968c0.186-.078.371-0.159,0.55-0.244,0.632-.3,1.225-0.559,1.782-0.8,2.279-.992,4.082-1.776,5.483-4.1,0.148-.17.649-0.741,1.149-1.3A1.432,1.432,0,0,1,82.377,62.91Zm-12.8,36.074a0.756,0.756,0,0,0-.56.453,6.882,6.882,0,0,1-4.8,3.9,0.751,0.751,0,0,0,.279,1.475,7.575,7.575,0,0,0,2.065-.721c0.368,0.222.807,0.491,1.093,0.673a1.831,1.831,0,0,1-.219.326c-0.662.556-4.5,1.912-5.247,1.481a4.625,4.625,0,0,1-1.908-3.207,8.325,8.325,0,0,1,2.4-2.583,0.75,0.75,0,0,0-.93-1.178c-0.653.516-2.8,2.3-2.956,3.575a3.112,3.112,0,0,0,.124,1.179c-0.121.015-.24,0.029-0.344,0.044a5.506,5.506,0,0,1-2.773-1.237,2.228,2.228,0,0,1-.551-2,0.733,0.733,0,0,0-.025-0.381A8.332,8.332,0,0,1,56.831,98.6,6.744,6.744,0,0,1,58.6,97.542a0.75,0.75,0,0,0-.544-1.4A8.185,8.185,0,0,0,55.818,97.5a9.12,9.12,0,0,0-2.105,3.025,3.979,3.979,0,0,1-1.482-.222,9.014,9.014,0,0,1-.07-3.721c0.28-.81,4.573-5.528,5.685-6.363a7.822,7.822,0,0,1,3.214-.78c1.94,0.612,5.663,4.4,6.956,5.837a0.75,0.75,0,0,0,1.114-1L68.9,94.018l3.127-.6c0.39,1.1,1.218,3.411,1.773,4.8Zm8.8-.644a8.819,8.819,0,0,1-2.961-.208,56.125,56.125,0,0,1-2.077-5.966,3.743,3.743,0,0,1,1.116-1.314,8.84,8.84,0,0,1,2.684-.205,24.423,24.423,0,0,1,2.456,4.967C79.492,96.275,78.822,98.156,78.375,98.34ZM91.247,85.5c-0.724.612-1.349,1.142-1.72,1.513-0.571.571-5.414,4.3-8.954,7a25.742,25.742,0,0,0-1.846-3.688,0.711,0.711,0,0,0,.169-0.15,59.525,59.525,0,0,1,6.048-6.432,17.284,17.284,0,0,0,3.172-4.1l0.6-1.2a0.748,0.748,0,0,0,.033-0.595,16.978,16.978,0,0,1-.828-3.437c-0.2-1.774-.663-7.811-0.667-7.872a0.75,0.75,0,1,0-1.5.115c0.019,0.249.472,6.123,0.671,7.923a17.962,17.962,0,0,0,.8,3.479l-0.452.905a15.983,15.983,0,0,1-2.86,3.684c-0.312.29-.671,0.635-1.044,1C79.5,82.444,70.8,77.054,70.709,77a0.73,0.73,0,0,0-.473-0.109,69.555,69.555,0,0,1-7.555-.011c0.063-.177.128-0.356,0.189-0.53,0.215-.612.422-1.2,0.67-1.782a24.451,24.451,0,0,1,2.1-3.767c0.011,0,.02,0,0.031,0a29.82,29.82,0,0,0,5.944-1.154A5.72,5.72,0,0,0,73.161,71.4a20.27,20.27,0,0,0,5.462.583,8.379,8.379,0,0,0,1.643-.109c1.4-.349,4.438-3.718,4.517-5.785a7.043,7.043,0,0,0-1.235-4.112,2.179,2.179,0,0,0-.49-0.423,16.261,16.261,0,0,0,1.418-1.822c0.021-.007.042,0,0.063-0.014a14.47,14.47,0,0,1,3.99-.784,8.18,8.18,0,0,1,4.177,4.055c0.049,0.143.183,0.715,0.367,1.558a0.731,0.731,0,0,0,.033.151c0.856,3.926,2.732,13.192,2.887,14.1a14.783,14.783,0,0,1-1.946,4.161A32.758,32.758,0,0,1,91.247,85.5Zm9.376-1.409a0.723,0.723,0,0,0-.206.084,0.738,0.738,0,0,0-.24.282,7.764,7.764,0,0,1-1.292.753,0.736,0.736,0,0,0-.636.176l-0.02.019a32.559,32.559,0,0,1-4.355-.189,16.734,16.734,0,0,0,1.294-1.258A14.794,14.794,0,0,0,97.5,78.839c0-.062-1.561-8.025-2.581-12.853,1.014,0.609,2.075,1.256,2.405,1.488a4.593,4.593,0,0,0,2.806.383c0.105-.023.229-0.044,0.338-0.057a62.01,62.01,0,0,1,1.556,9.583A21.992,21.992,0,0,1,100.623,84.089Zm7.963,1.154c-1.793.5-4.4,0.994-5.193,0.666a4.594,4.594,0,0,1-1.484-1.008c0.006-.013.02-0.021,0.025-0.035a23.982,23.982,0,0,0,1.591-7.516,58.434,58.434,0,0,0-1.675-10.1c0.4-1.181,1.175-2.745,1.873-3.014a0.4,0.4,0,0,1,.278.006c1.429,2.377,2.767,4.666,3.173,5.595a57.509,57.509,0,0,1,2.48,11.48A12.876,12.876,0,0,1,108.586,85.243Zm9.929-5.627c-1.613,2.934-4.2,4.235-6.709,5.494-0.69.346-1.342,0.677-1.977,1.038a15.218,15.218,0,0,0,1.325-4.832,58.777,58.777,0,0,0-2.606-12.081c-0.685-1.566-3.587-6.32-5.706-9.792-0.844-1.383-1.547-2.534-1.9-3.135-0.229-.4-0.664-1.1-1.222-2-2.253-3.65-6.942-11.248-7.459-13.83-0.592-2.961-.151-5.564,1.026-6.054a4.063,4.063,0,0,1,2.5-.08,12.188,12.188,0,0,0,2.516,3.444,8.293,8.293,0,0,1,1.223.989,26.7,26.7,0,0,0,12.21,12.69,0.75,0.75,0,1,0,.679-1.338,25.506,25.506,0,0,1-11.554-12.052,0.735,0.735,0,0,0-.169-0.259,10.289,10.289,0,0,0-1.6-1.307,14.4,14.4,0,0,1-2.037-2.981,0.743,0.743,0,0,0-.188-0.339,30.183,30.183,0,0,1-2.545-6.026c-0.564-1.96-.377-3.591.524-4.595a3.264,3.264,0,0,1,2.977-.953c1.657,0.291,3.657,3.58,4.528,5.585a0.75,0.75,0,0,0,1.376-.6,18.451,18.451,0,0,0-3.194-4.982c0.886-.361,2.634-0.893,3.582.055,1.573,1.573,2.6,5.57,2.615,5.61a0.749,0.749,0,0,0,.726.565,0.766,0.766,0,0,0,.186-0.023,0.75,0.75,0,0,0,.542-0.911,23.942,23.942,0,0,0-1.046-3.069,3.768,3.768,0,0,1,3.187.891c0.558,0.591,1.265,2.149,1.47,6.216a8.7,8.7,0,0,0,1.171,4.292c0.258,0.518,2.681,5.4,3.422,7.5,0.321,0.909.609,1.83,0.87,2.661a20.48,20.48,0,0,0,1.05,2.933c0.521,0.967,1.571,4.738,1.35,5.444a3.621,3.621,0,0,1-1.687,2.091,3.534,3.534,0,0,1-2.829-.028c-3.386-1.232-6.016-5.468-6.042-5.51a0.751,0.751,0,0,0-.384-0.313c-4.651-1.685-7.905-6.278-8.338-7.095a0.75,0.75,0,0,0-1.4.54,20.071,20.071,0,0,0,7.657,7.275c-0.006,1.764,1.611,6.113,2.311,7.322a27.149,27.149,0,0,0,2.993,3.336,52.183,52.183,0,0,1,5.656,6.461C119.56,70.967,120.5,76,118.515,79.616ZM108.061,38.134a0.751,0.751,0,0,0-.679.815,0.586,0.586,0,0,1-.039.224,0.882,0.882,0,0,1-.524-0.067c-1.455-.466-3.992-3.852-3.65-5.269a0.746,0.746,0,0,1,.369-0.588,1.511,1.511,0,0,1,1.065.09,0.75,0.75,0,0,0,.63-1.361,2.967,2.967,0,0,0-2.343-.082,2.234,2.234,0,0,0-1.179,1.59c-0.573,2.374,2.651,6.408,4.65,7.049a2.954,2.954,0,0,0,.886.153,1.6,1.6,0,0,0,1.03-.341,1.846,1.846,0,0,0,.6-1.532A0.753,0.753,0,0,0,108.061,38.134Zm5.914,0.231a0.75,0.75,0,1,0-1.386-.574,0.5,0.5,0,0,1-.565.355,4.1,4.1,0,0,1-2.987-2.659c-0.647-1.842-.32-2.59-0.2-2.776a0.485,0.485,0,0,1,.387-0.246,1.783,1.783,0,0,1,.941,1.167,0.75,0.75,0,0,0,1.423-.477c-0.081-.244-0.85-2.372-2.539-2.181a2,2,0,0,0-1.485.941c-0.573.918-.552,2.324,0.061,4.068,0.681,1.938,2.678,3.615,4.361,3.661h0.07A1.992,1.992,0,0,0,113.975,38.366Zm-26.467,61.99c-0.222-.03-0.506,0-0.727-0.027a2.706,2.706,0,0,1-.739-0.064c-0.976,1.12-3.272,3.951-3.973,6.108,0.017,0,.032-0.005.05-0.005a1.357,1.357,0,0,1,1.262.732,0.733,0.733,0,0,0,.067-0.138c0.742-2.505,3.911-5.889,3.943-5.922s0.9-.689.919-0.712C88.2,100.345,87.623,100.355,87.508,100.356Zm8.543,0.351h-0.1a2.5,2.5,0,0,1-1.262-.341l-0.143-.111c-1.165,1.424-5.926,7.514-7.917,14.212a0.742,0.742,0,0,0-.022.25,1.115,1.115,0,0,1,.464.119,1.132,1.132,0,0,1,.483.31,1.168,1.168,0,0,1,.154.183,0.737,0.737,0,0,0,.359-0.434c2.136-7.186,7.827-13.917,7.884-13.984a0.751,0.751,0,0,0,.114-0.2H96.051Zm-9.466,17.751a1.81,1.81,0,0,1-1.056-.684,3.619,3.619,0,0,0-.607,1.105,8.556,8.556,0,0,1-1.068,2.455,65.207,65.207,0,0,0-6.007,8.762c-1.075,2.061-6.869,5.972-9.841,6.644-2.821.632-5.809-1.392-6.151-2.418a1.259,1.259,0,0,1,.27-0.991,5.87,5.87,0,0,1,4.21-2.242,0.75,0.75,0,0,0-.141-1.494,7.355,7.355,0,0,0-5.326,2.916,3.1,3.1,0,0,0-.513,1.419c-1.587.213-4.372,0.248-5.052-1.282a3.513,3.513,0,0,1,1.116-4.554c1.423-1.254,4-.927,4.021-0.924a0.75,0.75,0,0,0,.2-1.486c-0.133-.017-3.274-0.429-5.217,1.285a5.523,5.523,0,0,0-1.972,3.2,1.569,1.569,0,0,1-1.567-.305c-0.639-.775-0.37-2.721.1-3.72,0.31-.665.31-0.665,2.769-1.575,1.538-.568,3.863-1.429,7.581-2.968,9.91-4.1,14.139-7.189,14.314-7.318,0.028-.021.777-0.535,0.8-0.559-0.079-.029.136-0.157,0.059-0.2a1.246,1.246,0,0,1-.578-0.509c-0.1-.091-0.761-0.31-0.836-0.415a77.986,77.986,0,0,1-14.336,7.611c-3.691,1.53-6,2.383-7.527,2.949-2.632.973-3.037,1.123-3.608,2.346-0.5,1.08-1.141,3.8.106,5.31a2.624,2.624,0,0,0,2.134.92,4.411,4.411,0,0,0,.6-0.043,6.24,6.24,0,0,0,.47,1.563c0.83,1.868,3.084,2.272,4.884,2.272a13.572,13.572,0,0,0,1.911-.14,7.832,7.832,0,0,0,6.156,2.972,6.63,6.63,0,0,0,1.453-.158c3.122-.705,9.48-4.8,10.841-7.413a70.9,70.9,0,0,1,5.638-8.3,10.835,10.835,0,0,0,1.855-3.44,0.848,0.848,0,0,0,.108-0.521C86.765,118.525,86.6,118.458,86.585,118.458Zm-17.3-67.676a14.268,14.268,0,0,0,.8,3.46l0.329-.165a0.442,0.442,0,0,0,.072.114,15.283,15.283,0,0,1,5.271-3.464l-0.552-.5s-1.908,1-2.41.8a13.417,13.417,0,0,0-3.321-.653,0.933,0.933,0,0,0-.243-0.853c-0.4-.251-2.962,3.012-2.962,3.012l0.5,0.05Zm0.8,0.448c0.185-.334.944-0.173,1.491,0.237a1.236,1.236,0,0,1-.136.918c-0.219.044-1.016,0.28-1.211,0.338A3.131,3.131,0,0,1,70.079,51.23Z"/>
  <path class="cls-4" d="M75,148.036A73.036,73.036,0,1,1,148.036,75,73.118,73.118,0,0,1,75,148.036Zm0-141A67.964,67.964,0,1,0,142.964,75,68.041,68.041,0,0,0,75,7.036Z"/>
</svg>
