<svg xmlns="http://www.w3.org/2000/svg" width="150" height="150" viewBox="0 0 150 150">
  <defs>
    <style>
      .cls-1 {
        fill: #151515;
      }

      .cls-2 {
        fill: gray;
      }

      .cls-3 {
        fill: #fccc21;
      }

      .cls-4 {
        fill: #f2f2f2;
      }
    </style>
  </defs>
  <g id="Layer_5" data-name="Layer 5">
    <path class="cls-1" d="M74.86523,145.96654a1.49914,1.49914,0,0,1-1.25-.6709c-.03808-.05761-4.02539-5.9248-9.86425-6.249l-27.79.002a19.71886,19.71886,0,0,1-19.5918-19.7998V5.53392a1.50039,1.50039,0,0,1,1.5-1.5H132.13086a1.50039,1.50039,0,0,1,1.5,1.5V119.24877a19.71886,19.71886,0,0,1-19.5918,19.7998H86.166c-5.75586.32227-9.74317,6.18946-9.78223,6.249a1.50669,1.50669,0,0,1-1.249.66894Z"/>
    <path class="cls-2" d="M132.13043,5.53344V119.24883a18.19643,18.19643,0,0,1-18.09152,18.29956H86.16623c-6.69238.37195-11.0314,6.91815-11.0314,6.91815h-.26966s-4.339-6.5462-11.0314-6.91815H35.96107a18.19643,18.19643,0,0,1-18.0915-18.29956V5.53344H132.13043m0-3H17.86957a3,3,0,0,0-3,3V119.24883a21.2203,21.2203,0,0,0,21.0915,21.29956H63.74364c5.02754.32953,8.59187,5.53253,8.62745,5.58533a3.02168,3.02168,0,0,0,2.49408,1.33282h.26966a3.00018,3.00018,0,0,0,2.50058-1.34253c.02913-.04315,3.59341-5.24609,8.621-5.57562h27.78253a21.22032,21.22032,0,0,0,21.09152-21.29956V5.53344a3,3,0,0,0-3-3Z"/>
    <polygon class="cls-3" points="17.87 62.58 17.87 92.325 75 48.362 132.13 92.325 132.13 62.581 75 18.618 17.87 62.58"/>
    <polygon class="cls-4" points="75 54.605 78.012 63.875 87.758 63.875 79.873 69.603 82.885 78.872 75 73.144 67.115 78.872 70.127 69.603 62.242 63.875 71.988 63.875 75 54.605"/>
  </g>
</svg>
