<svg id="_9_infantry_division" data-name="9_infantry_division" xmlns="http://www.w3.org/2000/svg" width="150" height="150" viewBox="0 0 150 150">
  <defs>
    <style>
      .cls-1 {
        fill: #937f4f;
      }

      .cls-1, .cls-2, .cls-3, .cls-4, .cls-5 {
        fill-rule: evenodd;
      }

      .cls-2 {
        fill: #eb4747;
      }

      .cls-3 {
        fill: #3e31e5;
      }

      .cls-4 {
        fill: #eee;
      }

      .cls-5 {
        fill: #151515;
      }
    </style>
  </defs>
  <path class="cls-1" d="M75,3.167A71.833,71.833,0,1,0,146.833,75,71.832,71.832,0,0,0,75,3.167"/>
  <path id="Shape_42_copy_2" data-name="Shape 42 copy 2" class="cls-2" d="M75.088,13.575H74.913A11.349,11.349,0,0,1,69.9,19.57C66,21.885,59.836,25.475,58.992,36.353c-4.793-4.1-9.122-5.223-12.769-5.224A26.761,26.761,0,0,0,39.412,32.2a11.986,11.986,0,0,1-2.965.375A10.733,10.733,0,0,1,31.628,31.5l-0.124.123a11.351,11.351,0,0,1,.693,7.785c-1.118,4.393-2.939,11.29,4.156,19.579C25.475,59.837,21.885,66,19.569,69.9a11.345,11.345,0,0,1-5.994,5.015h122.85a11.348,11.348,0,0,1-6-5.015c-2.315-3.9-5.905-10.061-16.783-10.906,7.095-8.289,5.274-15.186,4.156-19.579a11.351,11.351,0,0,1,.693-7.785l-0.124-.123a10.736,10.736,0,0,1-4.82,1.067,11.987,11.987,0,0,1-2.965-.375,26.76,26.76,0,0,0-6.81-1.068c-3.648,0-7.975,1.121-12.769,5.224C90.164,25.475,84,21.885,80.1,19.57a11.35,11.35,0,0,1-5.015-5.995"/>
  <path id="Shape_42_copy" data-name="Shape 42 copy" class="cls-3" d="M136.425,74.912H13.575v0.175A11.354,11.354,0,0,1,19.569,80.1c2.315,3.9,5.905,10.061,16.783,10.906h0c-4.1,4.792-5.224,9.119-5.224,12.766a26.757,26.757,0,0,0,1.068,6.813,11.98,11.98,0,0,1,.374,2.975,10.731,10.731,0,0,1-1.067,4.81l0.124,0.123a10.738,10.738,0,0,1,4.819-1.066,11.991,11.991,0,0,1,2.965.374,26.743,26.743,0,0,0,6.812,1.068c3.647,0,7.975-1.121,12.768-5.224C59.836,124.526,66,128.114,69.9,130.43a11.348,11.348,0,0,1,5.015,6h0.175a11.349,11.349,0,0,1,5.015-6c3.9-2.316,10.062-5.9,10.906-16.783,4.792,4.1,9.12,5.224,12.767,5.224a26.741,26.741,0,0,0,6.812-1.068,11.994,11.994,0,0,1,2.965-.374,10.74,10.74,0,0,1,4.82,1.066l0.124-.123a10.719,10.719,0,0,1-1.067-4.81,11.98,11.98,0,0,1,.374-2.975,26.7,26.7,0,0,0,1.068-6.813c0-3.647-1.122-7.974-5.224-12.766h0C124.525,90.163,128.115,84,130.43,80.1a11.357,11.357,0,0,1,6-5.015V74.912h0"/>
  <path class="cls-4" d="M95.881,75A20.881,20.881,0,1,1,75,54.119,20.881,20.881,0,0,1,95.881,75Z"/>
  <path class="cls-5" d="M75,145.833A70.833,70.833,0,1,1,145.833,75,70.913,70.913,0,0,1,75,145.833M75,2.167A72.833,72.833,0,1,0,147.833,75,72.915,72.915,0,0,0,75,2.167m0,136.487A63.654,63.654,0,1,1,138.654,75,63.726,63.726,0,0,1,75,138.654M75,9.346A65.654,65.654,0,1,0,140.653,75,65.728,65.728,0,0,0,75,9.346"/>
</svg>
