<svg xmlns="http://www.w3.org/2000/svg" width="150" height="150" viewBox="0 0 150 150">
  <defs>
    <style>
      .cls-1 {
        fill: #d8ac4c;
      }

      .cls-2 {
        fill: #101010;
      }

      .cls-3 {
        fill: #8b282a;
      }

      .cls-4 {
        fill: none;
      }

      .cls-5 {
        fill: #c09c4e;
      }

      .cls-6 {
        fill: #9e7723;
      }

      .cls-7 {
        fill: #d8b05b;
      }

      .cls-8 {
        fill: #4198f5;
      }

      .cls-9 {
        fill: #d9ad4f;
      }

      .cls-10 {
        fill: #e9e9e9;
      }

      .cls-11 {
        fill: #f2fbff;
      }

      .cls-12 {
        fill: #f1f1f1;
      }

      .cls-13 {
        fill: #50bd45;
      }

      .cls-14 {
        fill: #2a7094;
      }

      .cls-15 {
        fill: #9e1e20;
      }

      .cls-16 {
        fill: #d9ad46;
      }

      .cls-17 {
        fill: #fbb03b;
        stroke: #b33e05;
        stroke-linecap: round;
        stroke-linejoin: round;
        stroke-width: 0.51566px;
      }

      .cls-18 {
        fill: #c94c0d;
      }

      .cls-19 {
        fill: #e36600;
      }

      .cls-20 {
        fill: #f08d24;
      }

      .cls-21 {
        fill: #eb6f31;
      }
    </style>
  </defs>
  <g id="Layer_5" data-name="Layer 5">
    <g>
      <g>
        <path class="cls-1" d="M77.53386,19.50141a36.40954,36.40954,0,0,0,6.45694-1.81435C86.39215,16.6198,92.102,14.005,96.26434,15.49917s5.6565,6.13677,4.80268,10.67264a19.39591,19.39591,0,0,1-4.269,8.27129l-1.97444-1.28071-.16009-1.0139s3.84215-3.84215,4.00224-8.05784-2.50807-6.83049-6.29686-6.56368c-4.31174.30365-6.35022,3.0417-14.835,4.6426Z"/>
        <path class="cls-2" d="M96.85472,34.88625l-2.3443-1.52047-.21082-1.33536.12265-.12292c.03756-.03743,3.74972-3.80006,3.90274-7.82971a6.22542,6.22542,0,0,0-1.66657-4.807,5.39783,5.39783,0,0,0-4.26564-1.40368,15.17474,15.17474,0,0,0-5.28764,1.60851,39.43215,39.43215,0,0,1-9.508,3.029l-.40419.07618V19.21765l.27914-.05154a36.2849,36.2849,0,0,0,6.38021-1.79055l.15848-.07059c2.44365-1.08765,8.16678-3.63531,12.36876-2.12656,4.59658,1.64993,5.83472,6.74206,5.02261,11.05657a19.52437,19.52437,0,0,1-4.3526,8.43806Zm-1.71811-1.92719,1.598,1.03651a18.93037,18.93037,0,0,0,3.99743-7.88684c.75857-4.03005-.36424-8.77432-4.58287-10.28867C92.205,14.40453,86.657,16.87348,84.28806,17.928l-.15874.07059a34.62207,34.62207,0,0,1-6.2545,1.78469v1.97314a38.80562,38.80562,0,0,0,8.95585-2.905,15.68991,15.68991,0,0,1,5.51417-1.66457A6.139,6.139,0,0,1,97.13279,18.781a6.89245,6.89245,0,0,1,1.87353,5.32266c-.14889,3.92-3.302,7.44589-3.97958,8.15985Z"/>
      </g>
      <g>
        <path class="cls-1" d="M73.17081,19.50141a36.40954,36.40954,0,0,1-6.45694-1.81435c-2.40134-1.06726-8.11121-3.68206-12.27354-2.18789s-5.65649,6.13677-4.80268,10.67264A19.39591,19.39591,0,0,0,53.9067,34.4431l1.97444-1.28071.16009-1.0139s-3.84215-3.84215-4.00224-8.05784,2.50807-6.83049,6.29686-6.56368c4.31174.30365,6.35022,3.0417,14.835,4.6426Z"/>
        <path class="cls-2" d="M53.85,34.88625l2.34431-1.52047.21081-1.33536-.12265-.12292c-.03756-.03743-3.74972-3.80006-3.90273-7.82971a6.22538,6.22538,0,0,1,1.66656-4.807,5.39784,5.39784,0,0,1,4.26564-1.40368,15.17474,15.17474,0,0,1,5.28764,1.60851,39.4323,39.4323,0,0,0,9.508,3.029l.40419.07618V19.21765l-.27914-.05154a36.28514,36.28514,0,0,1-6.38021-1.79055l-.15848-.07059c-2.44365-1.08765-8.16677-3.63531-12.36875-2.12656-4.59659,1.64993-5.83473,6.74206-5.02262,11.05657A19.52434,19.52434,0,0,0,53.65512,34.673Zm1.71811-1.92719-1.598,1.03651a18.93027,18.93027,0,0,1-3.99742-7.88684c-.75858-4.03005.36423-8.77432,4.58286-10.28867,3.94415-1.41553,9.49215,1.05342,11.86109,2.10791l.15874.07059a34.62207,34.62207,0,0,0,6.2545,1.78469v1.97314a38.80562,38.80562,0,0,1-8.95585-2.905,15.68992,15.68992,0,0,0-5.51416-1.66457,6.139,6.139,0,0,0-4.788,1.59412,6.89245,6.89245,0,0,0-1.87353,5.32266c.1489,3.92,3.302,7.44589,3.97958,8.15985Z"/>
      </g>
      <path class="cls-2" d="M94.54374,40.37114a13.40975,13.40975,0,0,1-1.7674,3.65162c-.77077,1.12033-2.37026-.48112-5.70277-.98188-8.2645.66669-22.37514,1.464-25.81467,1.464a3.03348,3.03348,0,0,1-.76587-.04418c-.13845-.09819-.44185-.327-.814-.62742-.92.17281-1.4198.27983-1.4198.27983l-2.33394-4.25744s-.91968-6.02853-.16363-7.92062c.21016-.526-2.69846-3.32892-2.56144-4.109a3.2038,3.2038,0,0,1,1.28072-2.348c1.49417-1.12063,3.44418-.23658,4.26905-.42691.921-.60877,2.41834-2.4223,3.522-2.4547a19.76134,19.76134,0,0,1,3.46861.74708c2.17487.56753,6.51441,2.426,7.458,2.70976a4.83952,4.83952,0,0,0,1.19.09819,24.79313,24.79313,0,0,0,4.2005-.38588c.56654-.161,4.571-3.06243,7.69629-3.06243a7.1059,7.1059,0,0,1,4.96278,1.33408,14.8786,14.8786,0,0,1,1.22735,1.0139c.46459.383,3.54492-.62222,4.37578.48027,2.77489,3.68206-2.21317,5.44459-1.92107,6.35022a8.70245,8.70245,0,0,1,.58946,1.64182Z"/>
      <g id="Shape_259_copy" data-name="Shape 259 copy">
        <path class="cls-3" d="M80.789,26.54535a24.63007,24.63007,0,0,1-6.2796,1.45013,2.60118,2.60118,0,0,1-.327-.01374,48.9198,48.9198,0,0,1-6.1623-1.23325c-1.59458-.40551-3.24871-3.41966-4.89434-3.40493a3.69077,3.69077,0,0,0-1.38745.48027c-.58913.17674-2.20577,1.69366-2.98834,2.13453-.36833.2075-3.28022.28032-3.84215,1.22735-.63192,1.065,1.962,5.1114,1.962,5.1114-.39275.35348-.19637,7.58112.19638,8.727a9.34444,9.34444,0,0,0,2.60886,2.81015c2.07472-.39276,6.28405-1.1164,11.72564-1.70553a31.96468,31.96468,0,0,1,3.42677-.164A88.47458,88.47458,0,0,1,87.06965,43.0448a42.27022,42.27022,0,0,0,6.08766-.69615c.8837-.6176,1.17826-4.76017,1.13506-5.0027s.91806-3.28341.72266-4.78275c-.08443-.64787,1.99354-4.27923.92913-5.59094-1.3989-1.72391-4.96278-1.44081-4.96278-1.44081-.37236-.10728-.96054-2.08116-4.0556-2.08116C84.65366,23.45029,81.73194,25.95086,80.789,26.54535Z"/>
      </g>
      <path class="cls-2" d="M97.19185,34.46708a.48521.48521,0,0,0,.04128-.37509l-.06059-.09546-3.23739-1.49089a.48369.48369,0,0,0-.21028.39728.47249.47249,0,0,0,.01178.10508,20.07961,20.07961,0,0,1,.13151,3.04384,1.6606,1.6606,0,0,0-.55374.27786A7.55812,7.55812,0,0,1,92.31293,34.146a.48655.48655,0,0,0-.438-.34855h-.02357a.486.486,0,0,0-.44967.29455l-1.60837,3.87648a.48264.48264,0,0,0,.44581.66866h.001l.1738-.03143a21.72547,21.72547,0,0,1,2.28384-.55474,1.68169,1.68169,0,0,0,.62446.95537,6.28363,6.28363,0,0,1-3.17539.89055,5.95318,5.95318,0,0,1-1.65744-.23762,5.03767,5.03767,0,0,1-3.40612-2.65108l.36717.09819.22786.02946a.90818.90818,0,0,0,.63625-1.55237,1.7387,1.7387,0,0,1,.79626-.46442.20115.20115,0,0,1,.03436,0,.39153.39153,0,0,1,.27787.163,2.82215,2.82215,0,0,1-.15508,1.47281,1.85055,1.85055,0,0,0,.18751,1.70947,1.19306,1.19306,0,0,0,.91313.41043h.06778a.48466.48466,0,0,0,.432-.58914,3.18743,3.18743,0,0,1,.42024-1.30982l.15122-.18951a2.9466,2.9466,0,0,0,.80412-2.56861A2.56723,2.56723,0,0,0,89.02068,32.52a2.48044,2.48044,0,0,0-1.23035-.32991,2.38248,2.38248,0,0,0-.71869.11093,1.68588,1.68588,0,0,0-.35252.1689,10.1031,10.1031,0,0,0,.18812-5.08737l-1.01208-.83a9.595,9.595,0,0,0-2.19335,5.6257,2.39359,2.39359,0,0,0-.55481-.71679,1.8499,1.8499,0,0,0-1.73-.39177,2.22968,2.22968,0,0,0-1.33835,1.10856V31.817a.48309.48309,0,0,0-.84834-.31616,4.94092,4.94092,0,0,1-2.41934,1.26073l-.05594.01571a1.73867,1.73867,0,0,0-.26908-.31814,5.81531,5.81531,0,0,1,2.50285-2.99866.483.483,0,0,0-.216-.91512h-.72661l.04907-.21012-.07444-11.19508a4.509,4.509,0,0,0-.711-7.69929.48419.48419,0,0,0-.03636-.434A22.75734,22.75734,0,0,1,76.32784,6.503l.01079-.01472a12.40351,12.40351,0,0,1,2.43706,1.3923.48406.48406,0,0,0,.38488.1905l.16007-.0275a.48515.48515,0,0,0,.323-.46934l-.09821-3.688a.48383.48383,0,0,0-.7354-.39963A8.26761,8.26761,0,0,1,76.3632,4.57463l-.06872.0108.00785-.03143a7.80559,7.80559,0,0,1,1.05649-2.40267.48282.48282,0,0,0-.39866-.74525L73.46075,1.359h-.00686a.49237.49237,0,0,0-.46445.32107.473.473,0,0,0,.16494.53708,14.05794,14.05794,0,0,1,1.1832,2.43214l-.11586.13942a4.61949,4.61949,0,0,1-1.92546-.95929.48289.48289,0,0,0-.81105.3515L71.46264,7.375a.485.485,0,0,0,.26509.435l.218.052a.49175.49175,0,0,0,.29452-.09818,11.07626,11.07626,0,0,1,2.13561-1.16746l.02457-.01473c-.14536.5636-.63139,1.85183-.82183,2.34277a.47813.47813,0,0,0,.02844.41043,4.51634,4.51634,0,0,0-.88956,7.84229l-.0275.02947-.01964-.02161c-.09136-.08247-.07365,11.15026-.07365,11.15026l.04422.2229h-.72468a.484.484,0,0,0-.216.91609A5.74968,5.74968,0,0,1,74.205,32.46993a1.67844,1.67844,0,0,0-.25823.29456,4.89183,4.89183,0,0,1-2.40657-1.25779.483.483,0,0,0-.8474.31714v.00492l.04715,4.445a.483.483,0,0,0,.30144.44187l.18265.03632a.48223.48223,0,0,0,.34267-.14238,5.15917,5.15917,0,0,1,2.32705-1.466.47984.47984,0,0,0,.35052-.17672l.12765.09425c-.21894.49585-1.31278,2.67858-3.26282,2.96431a5.28826,5.28826,0,0,1-.76783.05891,3.09281,3.09281,0,0,1-2.96037-1.66921v-.00588a.9063.9063,0,0,0,.04221-1.58673l-.09815-.0432a4.79071,4.79071,0,0,1,.30145-.63821l.02843.01373a5.829,5.829,0,0,1,.33188,1.38838A1.57619,1.57619,0,0,0,69.40853,37.016a.48371.48371,0,0,0,.43395-.69614,2.49141,2.49141,0,0,1,.07365-1.03492,3.57239,3.57239,0,0,0,.35938-2.819,2.23752,2.23752,0,0,0-1.463-1.39429,1.85248,1.85248,0,0,0-1.73.39278,2.42388,2.42388,0,0,0-.55575.71675,9.60044,9.60044,0,0,0-2.08128-5.4864l-1.18127.96869a10.10645,10.10645,0,0,0,.24424,4.80933,1.69433,1.69433,0,0,0-.35351-.16886,2.3823,2.3823,0,0,0-.71876-.111,2.47982,2.47982,0,0,0-1.22928.32991,2.56875,2.56875,0,0,0-1.22635,1.69473,2.94677,2.94677,0,0,0,.80411,2.56861l.14637.18754a3.15974,3.15974,0,0,1,.42117,1.30983.48469.48469,0,0,0,.43109.58914H61.851a1.20163,1.20163,0,0,0,.91412-.41044,1.85632,1.85632,0,0,0,.18851-1.70945,2.83376,2.83376,0,0,1-.15608-1.47283.39154.39154,0,0,1,.27787-.163.11315.11315,0,0,1,.03636,0,1.72965,1.72965,0,0,1,.79333.46442l-.1453.18165a.90859.90859,0,0,0,.77962,1.37465h.00586l.23073-.03045.89061-.22975a4.95973,4.95973,0,0,1-3.46118,2.7748,6.00251,6.00251,0,0,1-1.66917.23959,6.19723,6.19723,0,0,1-2.979-.78551,1.6705,1.6705,0,0,0,.55474-1.04081,20.56869,20.56869,0,0,1,2.17.53121l.1738.03141h.00093a.48264.48264,0,0,0,.44581-.66866l-1.60838-3.87646a.48205.48205,0,0,0-.44867-.29457h-.02457a.4828.4828,0,0,0-.43788.34857,7.06432,7.06432,0,0,1-1.08013,2.26912,1.70236,1.70236,0,0,0-.49089-.19636l.01272-.09821a20.44968,20.44968,0,0,1,.13058-3.10079.46229.46229,0,0,0,.01086-.10408.48667.48667,0,0,0-.29366-.44431l-3.07817,1.4176-.13451.21185a.49462.49462,0,0,0,.04129.37509l1.32357,2.36338.1718.17479a1.67564,1.67564,0,0,0,.45266,2.20236V39.35a.83947.83947,0,0,0,.28866.5793,7.75738,7.75738,0,0,0,3.97365,1.62406,26.62067,26.62067,0,0,0-2.64029,1.14388.84594.84594,0,0,0,.381,1.60145.83867.83867,0,0,0,.37995-.09033l.11494-.05693V44.17l.869,4.00215a.48323.48323,0,0,0,.24152.32206l.23072.05793.17087-.03141a48.85851,48.85851,0,0,1,15.22506-2.69724h1.32457a48.91851,48.91851,0,0,1,15.225,2.69527.48268.48268,0,0,0,.64311-.34954l.87683-4.00118v-.01866l.11394.057a.84638.84638,0,0,0,.761-1.51112,26.20429,26.20429,0,0,0-2.63636-1.14192,7.70628,7.70628,0,0,0,3.96872-1.625.845.845,0,0,0,.26316-.83558,1.67637,1.67637,0,0,0,.60089-2.2063l.04222-.056ZM65.33173,39.96463a6.31932,6.31932,0,0,0,1.44337-1.571,4.78464,4.78464,0,0,0,1.61523,1.03688C67.42413,39.568,66.39315,39.74371,65.33173,39.96463Zm10.51008-1.09479h-.99662c-.02551,0-.57539.00491-1.4983.05595A7.07207,7.07207,0,0,0,75.346,36.81771a7.071,7.071,0,0,0,1.99911,2.10808C76.41913,38.87475,75.86638,38.86984,75.84181,38.86984Zm4.50489-.78453a5.38756,5.38756,0,0,1-.7649-.05793c-1.951-.28573-3.04088-2.47337-3.26282-2.9643l.17579-.1463a.48477.48477,0,0,0,.38389.21994,5.16233,5.16233,0,0,1,2.32805,1.46594.48338.48338,0,0,0,.34073.14237l.18265-.03633a.48221.48221,0,0,0,.30045-.44184l.01572-1.49246a1.891,1.891,0,0,0,.2543.49781,2.44678,2.44678,0,0,1,.0805,1.04572.48384.48384,0,0,0,.434.69615h.001a1.57616,1.57616,0,0,0,1.42179-1.47283,6.66064,6.66064,0,0,1,.31516-1.37463l.04421-.02456a4.72326,4.72326,0,0,1,.30145.63725.90451.90451,0,0,0,.14036,1.70552l.20916.055A3.14606,3.14606,0,0,1,80.3467,38.08531Zm1.9559,1.34519a4.8097,4.8097,0,0,0,1.61523-1.03688,6.31776,6.31776,0,0,0,1.44336,1.571C84.29878,39.74371,83.26879,39.568,82.3026,39.4305Z"/>
      <g id="background">
        <rect class="cls-4" x="1.35878" y="1.35874" width="147.28244" height="147.28252"/>
      </g>
      <path class="cls-2" d="M120.61681,91.80806a15.34276,15.34276,0,0,1-1.49147,6.24085l1.14193-.03142a17.18319,17.18319,0,0,1-1.58673,4.94869l1.01527.09819a18.42034,18.42034,0,0,1-2.82291,4.98011h.06775a4.57192,4.57192,0,0,1,1.138.25529c-.6667,2.112-3.96583,4.79158-3.96583,4.79158.05892,0,.11783-.00686.17674-.00686a3.542,3.542,0,0,1,1.44043.35347c-.72955,1.89111-4.06107,4.34974-4.06107,4.34974l1.14193.378c-.63528,1.70258-3.77632,3.71937-3.77632,3.71937l.69812.25234c-1.08007,1.26074-4.91826,3.27851-4.91826,3.27851a2.42011,2.42011,0,0,1,.63528.7256,28.44365,28.44365,0,0,1-7.7657,5.38662l.055.04222a11.40265,11.40265,0,0,1-1.21557.53021c-1.14094.543-2.39873,1.08008-3.78319,1.60932a1.63523,1.63523,0,0,1,.17576.20128,12.26506,12.26506,0,0,1-1.91369.42417q-1.44632.49045-3.05464.9485a.74928.74928,0,0,1,.09819.23467c-.38588.01964-.75114.03142-1.09873.03829-1.42078.37509-2.93092.72169-4.53727,1.029a.76645.76645,0,0,1,.03239.11489c-.27984.01865-.54788.02749-.80318.02846q-2.60837.47132-5.54174.7914H74.00489q-2.93681-.31519-5.54175-.7914h-.06088c-.27492,0-.56359-.00884-.866-.02846a.94544.94544,0,0,1,.04025-.13649c-1.55922-.30143-3.03008-.64018-4.41356-1.00545-.38588,0-.79532-.01866-1.2303-.04026a.7751.7751,0,0,1,.11586-.26412q-1.50964-.4286-2.87593-.89449a12.082,12.082,0,0,1-2.11006-.44873,1.70032,1.70032,0,0,1,.21012-.23466c-1.21852-.46444-2.33884-.94163-3.36589-1.4208a11.23493,11.23493,0,0,1-1.66921-.68731c-.53709-.273.03535-.02946.107-.07855a39.82738,39.82738,0,0,1-3.576-2.06981l-.054-.02651v-.00589a22.26117,22.26117,0,0,1-4.06892-3.24808,2.42866,2.42866,0,0,1,.6343-.7256c.25823-.19736-3.83916-2.01777-4.91826-3.27851l.69812-.25234s-3.142-2.01679-3.77533-3.71938l1.14193-.378s-3.33153-2.45471-4.062-4.34975a3.54661,3.54661,0,0,1,1.4414-.35347,1.52035,1.52035,0,0,1,.17674.00687s-3.30011-2.67956-3.96582-4.79158a4.57174,4.57174,0,0,1,1.138-.2553h.06775a18.40856,18.40856,0,0,1-2.8239-4.9801l1.01527-.0982a17.1828,17.1828,0,0,1-1.58672-4.94868l1.15077.03338a15.35736,15.35736,0,0,1-1.4905-6.24085l.72954.03142a20.038,20.038,0,0,1-.25431-6.30369l.73052.28376a17.08787,17.08787,0,0,1,.19048-5.45338l.85621.599a21.58219,21.58219,0,0,1,.41337-5.45338l.88369.66082a17.157,17.157,0,0,1,.98188-4.12882l.82479.47327a12.65514,12.65514,0,0,1,1.58574-4.53925l.69811.72463a9.44743,9.44743,0,0,1,1.45908-4.12391l1.04767,1.0084a13.34914,13.34914,0,0,1,2.95056-5.57906c1.41489-1.59655.44381.85129.60287,1.26073,0,0,.47622-1.92252,3.522-4.6335l.22289.85129a31.1417,31.1417,0,0,1,4.88683-4.823,6.8958,6.8958,0,0,1,.44381,1.07123A27.58435,27.58435,0,0,1,55.27842,51.056a22.86348,22.86348,0,0,0,2.50577-2.112l.85718-.25136s6.30663-2.86907,16.4102-2.875,16.40432,2.86907,16.40432,2.86907l.85718.25136a22.67582,22.67582,0,0,0,2.50675,2.112,27.66548,27.66548,0,0,1,3.01438,2.67857,6.90021,6.90021,0,0,1,.44479-1.07123,31.14127,31.14127,0,0,1,4.88683,4.823l.22288-.85129c3.04384,2.711,3.521,4.6335,3.521,4.6335.15907-.40846.60288-1.26074.60288-1.26074a13.33992,13.33992,0,0,1,2.95154,5.57906l1.04669-1.00839a9.449,9.449,0,0,1,1.46006,4.12391l.69812-.72464a12.65564,12.65564,0,0,1,1.58573,4.53925l.82577-.47326a17.15719,17.15719,0,0,1,.98188,4.12881l.88369-.6608a21.58186,21.58186,0,0,1,.41142,5.45338l.85717-.59895a17.08786,17.08786,0,0,1,.19049,5.45338l.73052-.28377a20.03828,20.03828,0,0,1-.25529,6.30369Z"/>
      <g id="Shape_247_copy_8" data-name="Shape 247 copy 8">
        <path class="cls-5" d="M75.50324,52.03493l-.02651-.07954h.09132a53.425,53.425,0,0,1,6.11909.50567,38.479,38.479,0,0,1,15.58051,6.14659,52.30781,52.30781,0,0,1,10.35493,9.43295A46.90441,46.90441,0,0,1,114.103,80.78348a56.8225,56.8225,0,0,1,1.82041,12.57792,61.07227,61.07227,0,0,1-2.7424,14.13911c-1.39525,3.75964-6.48042,11.1591-7.99056,12.55436a45.47893,45.47893,0,0,1-7.68323,6.48042,49.68614,49.68614,0,0,1-11.868,5.34244c-.70892.09817-6.284,1.44238-9.88264,1.46594l-.76292.01178-.76391-.01178c-3.59271-.02356-9.17373-1.37463-9.88167-1.46594a49.68607,49.68607,0,0,1-11.868-5.34244,45.52379,45.52379,0,0,1-7.68421-6.48042c-1.51308-1.39526-6.59629-8.79472-7.99154-12.55436a61.12314,61.12314,0,0,1-2.7424-14.13911,56.93718,56.93718,0,0,1,1.82041-12.57694,46.919,46.919,0,0,1,6.48042-12.74288,52.30817,52.30817,0,0,1,10.35494-9.43295A38.48033,38.48033,0,0,1,68.29721,52.462a53.42334,53.42334,0,0,1,6.12006-.50567h.09132l-.02749.07954a2.0445,2.0445,0,0,1,1.02705,0m1.17138-2.0325-.49584.07069.51941.82675-.42515-.04713-.89941-.75605-.21209-.0707-.17182.50469-.17184-.50469-.21306.0707-.89842.75605-.42516.04713.51942-.82675-.49684-.07069-.99661.9917-.4497.04713.49585-.922-.58913-.04615-.85031.99269-.38391.04811.40256-.82674L70.37,50.26459l-.82773.96912-.378.04713.35445-.73347-.56752-.07069-.87093,1.03883-.378.04713.378-.94555-.49586.02356-.78059,1.11149-.30733.02357.42614-.89842-.73347.09818-.76,1.20183-.44872.04713.378-.94555h-.42025L64.134,52.43652l-.40159.09818.42025-.92886-.51942.09819-.7855.96912-.28377.0707.1895-.73347-.49584.07069-.58913.99269-.378.09818.30733-.89842-.47326.09819-.58914,1.01723-.40159.11881.32992-1.06436-.32992.09819-.68732,1.20575-.33089.04713.40257-1.17826h-.30438l-.80318,1.0408-.33089-.04811.61465-1.13408-.16593-.21307-.73249.56753.5636-1.02705-.11782-.28377a5.25658,5.25658,0,0,0-1.08793,1.65546,6.93621,6.93621,0,0,1-1.25288,2.0325,6.81324,6.81324,0,0,1-1.3.82772,15.65839,15.65839,0,0,0,2.07962-2.90833,3.22237,3.22237,0,0,0,.47327-2.83666,4.39168,4.39168,0,0,1-.94555.756,10.511,10.511,0,0,0-3.19112,2.6717c-.68732,1.13506-2.10417,4.13766-2.38794,4.46855S49.16326,59.675,49.16326,59.675a25.71327,25.71327,0,0,0,1.65545-2.8131,5.82536,5.82536,0,0,0,.45167-3.09587A17.048,17.048,0,0,0,47.605,58.02147c-.49585,1.06436-1.25288,3.85389-1.41783,4.13765a12.432,12.432,0,0,1-1.1115,1.20674,6.23962,6.23962,0,0,1,.82871-1.27645c.921-1.32456.2602-4.25548.2602-4.25548-2.36437,2.00893-2.4822,3.64082-2.57744,4.60994s-.47327,2.601-.51942,2.81407a15.05346,15.05346,0,0,1-1.01723,1.55924c1.39526-2.33984.28377-5.60263.28377-5.60263-2.7424,2.78953-2.15131,4.823-2.19844,5.72144s-.30733,2.36437-.35446,2.71883A4.46858,4.46858,0,0,1,39.261,70.7663a23.60355,23.60355,0,0,0,.30732-2.43506,4.8699,4.8699,0,0,0-.96911-2.5529,6.174,6.174,0,0,0-.77962,5.43767,14.50482,14.50482,0,0,1,.09819,2.03348l-.544,1.13506a6.99645,6.99645,0,0,0-.94555-5.31984c-1.63091,3.92753-.49586,6.17113-.35446,6.59726a5.863,5.863,0,0,1,.09818,1.44141l-.47326,1.135a4.83267,4.83267,0,0,0-1.46595-5.13033,8.71856,8.71856,0,0,0,.35446,6.124c.04713.11783.30733.94556.30733.94556l-.30733,1.7016A6.52635,6.52635,0,0,0,32.483,76.796c-1.25288,4.70421.73347,6.4549.99269,6.80936a3.36165,3.36165,0,0,1,.40257,1.04079L33.64166,86.61a6.78242,6.78242,0,0,0-2.50576-5.1539c-.89843,4.34974,1.25288,6.54817,1.60734,6.97136a3.9564,3.9564,0,0,1,.63724,1.20478v1.77328a8.9499,8.9499,0,0,0-2.9319-4.988,7.93825,7.93825,0,0,0,1.91565,6.88006,8.826,8.826,0,0,1,1.03982,1.72516l.15906,1.55334a8.64682,8.64682,0,0,0-3.142-4.279c-.49585,4.51666,1.37463,5.76856,2.19843,6.59531a14.45513,14.45513,0,0,1,1.4414,1.70258l.16594,1.17826A8.245,8.245,0,0,0,30.44367,98.533c.58913,4.51667,3.05071,5.43669,3.87844,5.93451a2.35527,2.35527,0,0,1,.922.7315l.42516,1.25386a6.2804,6.2804,0,0,0-4.49211-2.9319,8.08954,8.08954,0,0,0,4.30359,4.96538,5.74387,5.74387,0,0,1,1.51308,1.11052c.11783.16593.49585,1.06337.49585,1.06337-2.0865-1.93725-3.53478-2.22691-4.2162-2.22691a1.45777,1.45777,0,0,0-.44185.053c1.17826,2.41053,5.08321,4.988,5.72143,5.24817a1.79033,1.79033,0,0,1,.77961.47229l.73347,1.25386a5.51278,5.51278,0,0,0-3.82934-1.897,2.51673,2.51673,0,0,0-.921.14728,9.02614,9.02614,0,0,0,5.86282,4.39688,5.18789,5.18789,0,0,1,1.63091.87485l.80416.89843a6.93,6.93,0,0,0-4.067-1.65251,2.59406,2.59406,0,0,0-1.299.28179c1.27645,2.4341,4.445,3.21469,5.6743,3.4042a7.17374,7.17374,0,0,1,2.00893.58912l.89843.85228a9.33691,9.33691,0,0,0-4.29574-1.25092,3.2147,3.2147,0,0,0-1.16844.16986c1.56021,2.93191,7.94343,3.0733,7.94343,3.0733l1.11051.82772a9.76621,9.76621,0,0,0-2.99769-.57243,2.29248,2.29248,0,0,0-1.896.595c1.10854,1.53467,3.683,1.79782,5.43668,1.79782.46345,0,.87-.01865,1.17826-.03731s.51941-.03732.58323-.03732h.01375a10.24,10.24,0,0,1,1.34813.68732,12.33009,12.33009,0,0,0-2.20629-.21994c-2.35652,0-3.09784.9102-3.1597.99268l.04909.03241a9.79005,9.79005,0,0,0,4.28.98188,8.03687,8.03687,0,0,0,2.11988-.25235,11.21664,11.21664,0,0,1,1.40311-.14434h.11a5.82811,5.82811,0,0,1,1.56119.544,14.30365,14.30365,0,0,0-1.60145-.09328,7.64816,7.64816,0,0,0-4.29672,1.031q.74084.38,1.56021.7639a8.84764,8.84764,0,0,0,2.67563.4291,6.35376,6.35376,0,0,0,3.10471-.71187,9.14207,9.14207,0,0,1,1.22932-.21307c.05008-.00491.10015-.00688.15023-.00688a5.53752,5.53752,0,0,1,1.6692.40847H62.4825c-3.26574,0-4.713,1.03883-5.21184,1.517q.91315.34757,1.9.68731a10.15112,10.15112,0,0,0,1.18415.06971,7.0475,7.0475,0,0,0,3.68009-.87288,11.58486,11.58486,0,0,1,1.22932-.42615,2.33353,2.33353,0,0,1,.58226-.0756,2.02356,2.02356,0,0,1,1.0732.28867c-3.54362.44087-4.57656,1.43355-4.87309,1.91074.36526.0982.73641.20522,1.11444.3044h.431c5.19417,0,5.79311-1.41195,6.37635-1.627a3.657,3.657,0,0,1,1.139-.13648c.48014,0,.89449.04222.89449.04222-3.471.79336-4.26332,2.26815-4.42828,2.72375q.4389.08394.88369.165c4.34287-.02061,5.17158-2.34572,5.17158-2.34572a4.29728,4.29728,0,0,0,.5204,2.41151l.40158.5204.433-1.47283.432,1.47283.40256-.5204a4.28842,4.28842,0,0,0,.51942-2.41151c-.06677-.83755.83755,2.34572,5.23343,2.34572H81.64c.25823-.04614.51745-.09819.77078-.14335-.14729-.42713-.90628-1.93922-4.43615-2.74927,0,0,.41436-.04222.89449-.04222a3.65692,3.65692,0,0,1,1.139.13647c.58128.215,1.17827,1.627,6.37537,1.627h.5636q.50813-.134,1.00054-.273c-.271-.46344-1.27056-1.48951-4.88978-1.94019a2.02009,2.02009,0,0,1,1.07222-.28867,2.29632,2.29632,0,0,1,.58323.0756,11.58643,11.58643,0,0,1,1.22933.42614,7.057,7.057,0,0,0,3.68009.87289,10.31463,10.31463,0,0,0,1.38053-.09818q.8999-.30785,1.73793-.62547c-.46051-.46049-1.9019-1.55038-5.24718-1.55038h-.25136a5.5668,5.5668,0,0,1,1.6692-.40847c.05007,0,.10015.002.15022.00688a9.14034,9.14034,0,0,1,1.22933.21306,6.35363,6.35363,0,0,0,3.1047.71186,9.03151,9.03151,0,0,0,3.1273-.58421q.60238-.28572,1.16059-.57244a7.4809,7.4809,0,0,0-4.34778-1.06732,14.30366,14.30366,0,0,0-1.60145.09329,5.83278,5.83278,0,0,1,1.56021-.544h.11a11.21664,11.21664,0,0,1,1.40311.14434,8.037,8.037,0,0,0,2.11989.25235,9.785,9.785,0,0,0,4.334-1.00938c1.34812-.66473-.69616-.99857-3.16461-.99857a12.36881,12.36881,0,0,0-2.20237.219,10.12013,10.12013,0,0,1,1.34813-.68731h.01375c.06284,0,.272.01865.58225.0373s.71383.03732,1.17826.03732c1.75365,0,4.32814-.26608,5.43767-1.80077a2.29573,2.29573,0,0,0-1.896-.595,9.77205,9.77205,0,0,0-2.99867.57244l1.1115-.82773s6.38223-.14139,7.9444-3.0733a3.22009,3.22009,0,0,0-1.16942-.16987,9.34121,9.34121,0,0,0-4.2918,1.2578l.89744-.85228a7.18025,7.18025,0,0,1,2.00991-.58912c1.22932-.18951,4.39785-.9701,5.6743-3.4042a2.59548,2.59548,0,0,0-1.3-.28179,6.93,6.93,0,0,0-4.067,1.65251l.80416-.89843a5.188,5.188,0,0,1,1.63091-.87485,9.02378,9.02378,0,0,0,5.86282-4.39688,2.51673,2.51673,0,0,0-.921-.14728,5.51278,5.51278,0,0,0-3.82934,1.897l.73248-1.25386a1.78589,1.78589,0,0,1,.78551-.47229c.63823-.2602,4.53826-2.83764,5.72045-5.24817a1.45147,1.45147,0,0,0-.44087-.053c-.68044,0-2.12872.29457-4.2162,2.22691,0,0,.378-.89744.49683-1.06337a5.744,5.744,0,0,1,1.51308-1.11052,8.09609,8.09609,0,0,0,4.30261-4.96538,6.27855,6.27855,0,0,0-4.49113,2.9319l.42418-1.25386a2.35513,2.35513,0,0,1,.922-.7315c.82773-.49782,3.28734-1.41882,3.87844-5.93451a8.23935,8.23935,0,0,0-3.7832,3.24022l.165-1.17826a14.37112,14.37112,0,0,1,1.44239-1.70258c.82773-.82773,2.69527-2.08062,2.19843-6.59531a8.64676,8.64676,0,0,0-3.142,4.279l.16495-1.56119a8.83049,8.83049,0,0,1,1.0408-1.72517,7.93823,7.93823,0,0,0,1.91565-6.88,8.94575,8.94575,0,0,0-2.93288,4.988v-1.7723a3.92915,3.92915,0,0,1,.63921-1.20477c.35446-.42613,2.50576-2.62457,1.60733-6.97136a6.7824,6.7824,0,0,0-2.50576,5.1539l-.23663-1.96377a3.335,3.335,0,0,1,.40159-1.0408c.2602-.35446,2.24556-2.10417.99269-6.80935a6.52876,6.52876,0,0,0-2.1032,5.08321l-.31617-1.70357s.25922-.82773.30733-.94555a8.724,8.724,0,0,0,.35446-6.124,4.83319,4.83319,0,0,0-1.466,5.13034l-.47327-1.13506a5.81553,5.81553,0,0,1,.09819-1.4414c.14237-.42613,1.27645-2.6717-.35347-6.59727a6.99206,6.99206,0,0,0-.94556,5.31984l-.54593-1.13309a14.50323,14.50323,0,0,1,.0982-2.03348,6.18011,6.18011,0,0,0-.78551-5.43865,4.87922,4.87922,0,0,0-.9701,2.55289,23.33756,23.33756,0,0,0,.30732,2.43507,4.46917,4.46917,0,0,1-.52039-1.11149c-.04615-.35446-.30733-1.82041-.35348-2.71883s.543-2.93191-2.19942-5.72144c0,0-1.11148,3.2628.28377,5.60263a15.21017,15.21017,0,0,1-1.01625-1.55923c-.04713-.21307-.42516-1.845-.5204-2.81408s-.21306-2.601-2.57646-4.60994c0,0-.66178,2.93092.25922,4.25548a6.19917,6.19917,0,0,1,.82871,1.27645,12.42951,12.42951,0,0,1-1.11149-1.20674c-.16692-.28376-.923-3.07329-1.41883-4.13765A17.06576,17.06576,0,0,0,98.70905,53.766a5.82926,5.82926,0,0,0,.44971,3.09685,25.54811,25.54811,0,0,0,1.65447,2.8131c.61073.90137-1.17826-1.15764-1.465-1.48952s-1.70357-3.34036-2.38893-4.47247a10.52628,10.52628,0,0,0-3.1921-2.67171,4.39162,4.39162,0,0,1-.94555-.75605,3.22563,3.22563,0,0,0,.47229,2.83666,15.6278,15.6278,0,0,0,2.08257,2.90834,6.851,6.851,0,0,1-1.301-.82773,6.91562,6.91562,0,0,1-1.25288-2.0325,5.25654,5.25654,0,0,0-1.08793-1.65545l-.11782.28376.56752,1.01625L91.449,52.249l-.16594.21306.61466,1.13408-.32991.04811-.80613-1.04079h-.3034l.40159,1.17826-.33089-.04714-.68732-1.20575-.3309-.09818.3309,1.06436-.40257-.11881L88.85,52.359l-.47229-.09819.30734.89842-.378-.08051-.58913-.99269-.49585-.07069.18852.73346-.2818-.07462-.78551-.9701-.51941-.09819.42123.9269-.39276-.09524-.80416-1.15764H84.619l.378.94555-.4497-.04713-.757-1.20673-.73347-.09819.42614.89842-.30733-.02356-.77961-1.10757-.49586-.02356.378.94555-.378-.04713-.87583-1.0408-.56753.0707.35445.73347-.378-.04713-.82773-.96912-.56753.02356.40257.82871-.379-.04713-.85031-.99367-.58913.04615.49684.922-.44971-.04713-.99268-.99268"/>
      </g>
      <path class="cls-6" d="M123.18247,135.36046a5.06621,5.06621,0,0,1-3.94029,3.93931,4.12937,4.12937,0,0,1-.69616.05893,3.06627,3.06627,0,0,1-3.086-2.01287,3.19087,3.19087,0,0,1,.35838-2.16014,2.36727,2.36727,0,0,0-.38293.63527l-.15121-.0157c-.15612-.98777-.68045-3.86077-1.71535-5.204a5.78984,5.78984,0,0,1,3.195-.98188,5.352,5.352,0,0,1,1.86558.33483,10.31323,10.31323,0,0,1,3.78515-1.54058.46268.46268,0,0,1,.49094.23564A18.13952,18.13952,0,0,1,123.18247,135.36046Zm-88.51572.46246a2.303,2.303,0,0,0-.38294-.63526,3.19084,3.19084,0,0,1,.35839,2.16013,3.0663,3.0663,0,0,1-3.087,2.01287,4.13036,4.13036,0,0,1-.69615-.05891,5.06759,5.06759,0,0,1-3.9403-3.93933,18.11418,18.11418,0,0,1,.28377-6.71411.462.462,0,0,1,.49094-.23566,10.30807,10.30807,0,0,1,3.78614,1.54058,5.3519,5.3519,0,0,1,1.86557-.33483,5.79,5.79,0,0,1,3.19505.98189c-1.03491,1.34519-1.56021,4.2221-1.71535,5.204Z"/>
      <path class="cls-7" d="M117.16746,121.48154a15.09122,15.09122,0,0,0-7.60173,2.113c-4.63351,2.65108-7.18738,5.6743-16.36111,9.55175a46.67411,46.67411,0,0,1-16.4534,3.87746l-3.16756-.04811h-.01277a46.76341,46.76341,0,0,1-16.67236-3.82935c-9.17373-3.87745-11.72564-6.90361-16.35914-9.55175a15.11726,15.11726,0,0,0-7.60272-2.113,16.15154,16.15154,0,0,0-4.88.78551c-3.59369,1.13408-5.8638,5.2953-5.76954,5.95708s1.89209,1.79685,2.45962,3.02715,2.17487,4.72777,2.17487,4.72777a6.28581,6.28581,0,0,1,5.95806-5.67431c.17281-.01276.34268-.01964.51058-.01964,2.22887,0,4.10525,1.15078,6.57861,3.142,5.70474,4.58147,15.664,12.86266,32.98536,12.86266H77.1528c17.32335,0,27.28063-8.28218,32.98537-12.86266,2.47729-1.99029,4.35464-3.142,6.58352-3.142.1679,0,.33776.00688.51057.01964a6.28552,6.28552,0,0,1,5.95611,5.67431c.28965,3.09882,1.60832-3.49845,2.17584-4.72777s2.36339-2.36535,2.45471-3.02715-2.17487-4.823-5.76954-5.95708a16.15149,16.15149,0,0,0-4.88-.78551"/>
      <path class="cls-2" d="M127.25335,129.89824a6.54255,6.54255,0,0,0-1.34714,1.61324c-.52825,1.14389-1.95688,4.25352-2.15228,4.67768a5.7482,5.7482,0,0,1-1.0025,2.18274,5.43113,5.43113,0,0,1-3.40812,2.14836,4.96236,4.96236,0,0,1-.8179.06971,3.64212,3.64212,0,0,1-3.64868-2.47238,3.12314,3.12314,0,0,1-.03829-1.26565.6731.6731,0,0,1-.14827-.327,15.34928,15.34928,0,0,0-1.38445-4.60111,22.648,22.648,0,0,0-2.79542,1.98537l-.33188.26708c-5.93745,4.77587-15.82991,12.72912-33.02365,12.73011H72.94249c-17.18294,0-27.07836-7.95326-33.01482-12.72914l-.33285-.268a22.59472,22.59472,0,0,0-2.79739-1.98537,15.32128,15.32128,0,0,0-1.38151,4.608.66575.66575,0,0,1-.14924.327,3.10609,3.10609,0,0,1-.03731,1.26564,3.64217,3.64217,0,0,1-3.65064,2.47238,4.96131,4.96131,0,0,1-.81791-.06972,5.43323,5.43323,0,0,1-3.4091-2.14835,5.74382,5.74382,0,0,1-1.0025-2.18174c-.19638-.42515-1.624-3.53478-2.15229-4.6777a6.52029,6.52029,0,0,0-1.34714-1.61322,3.32186,3.32186,0,0,1-1.16058-1.58083c-.15612-1.09285,2.43114-5.43375,6.18586-6.61888a16.80614,16.80614,0,0,1,5.08811-.82479,15.6415,15.6415,0,0,1,7.87666,2.20041c1.53763.88369,2.84157,1.79291,4.2221,2.761a57.86286,57.86286,0,0,0,12.07715,6.7583,46.464,46.464,0,0,0,16.43966,3.77436h.01277l3.16755.04713A46.6,46.6,0,0,0,92.97,132.59352a57.82781,57.82781,0,0,0,12.07224-6.7583c1.38151-.96814,2.68643-1.88227,4.2221-2.76106a15.64139,15.64139,0,0,1,7.87666-2.2004,16.80017,16.80017,0,0,1,5.08713.82478c3.75177,1.18513,6.341,5.526,6.18586,6.61887A3.32162,3.32162,0,0,1,127.25335,129.89824ZM116.04517,137.826a2.4686,2.4686,0,0,0,2.494,1.5553,3.65851,3.65851,0,0,0,.60386-.05007,4.474,4.474,0,0,0,3.42874-3.38751,5.97256,5.97256,0,0,0-2.01385-3.7714c-.052,1.03392-.12175,2.74338-.08149,3.56423l.08247,1.63974-1.12524-1.19592a2.37977,2.37977,0,0,0-1.571-.66866,1.96871,1.96871,0,0,0-.33973.03043,2.00951,2.00951,0,0,0-1.194.60779A2.57214,2.57214,0,0,0,116.04517,137.826Zm-.39276-2.7149a3.295,3.295,0,0,1,1.65644-.76,3.20026,3.20026,0,0,1,.54789-.04714,3.29415,3.29415,0,0,1,1.40115.31911c.01767-1.08595.08248-2.39774.11586-3.01732a5.41018,5.41018,0,0,0-1.17139-.53905,7.53716,7.53716,0,0,0-1.02606-.15121c-.15317-.01179-.30536-.01767-.45559-.01767a5.80329,5.80329,0,0,0-1.73892.269,5.0796,5.0796,0,0,0-.56949.25332,13.81966,13.81966,0,0,1,1.24208,3.69091Zm-79.96549-3.69091a5.13363,5.13363,0,0,0-.57243-.25431,5.81469,5.81469,0,0,0-1.736-.268c-.15023,0-.30144.00588-.45559.01767a7.46389,7.46389,0,0,0-1.02116.14924,5.40189,5.40189,0,0,0-1.17826.541c.03338.61958.09819,1.93137.11684,3.01732a3.30957,3.30957,0,0,1,1.40115-.32008,3.2012,3.2012,0,0,1,.54789.04811,3.28667,3.28667,0,0,1,1.65643.76,13.85656,13.85656,0,0,1,1.24307-3.69091Zm-4.72973,7.911a3.6586,3.6586,0,0,0,.60386.05007,2.46525,2.46525,0,0,0,2.493-1.5553,2.567,2.567,0,0,0-.27689-1.6751,2.02159,2.02159,0,0,0-1.19495-.60876,1.96762,1.96762,0,0,0-.33973-.02946,2.37139,2.37139,0,0,0-1.57789.67063l-1.11836,1.15764.07757-1.6044c.04124-.82379-.03044-2.54012-.0815-3.57209a5.91563,5.91563,0,0,0-2.01384,3.77829,4.47335,4.47335,0,0,0,3.4307,3.38848Zm90.90662-16.48091a15.59159,15.59159,0,0,0-4.713-.7639,14.474,14.474,0,0,0-7.28949,2.0374c-1.48952.84933-2.77186,1.74873-4.12391,2.70018a58.7963,58.7963,0,0,1-12.29612,6.882,46.84564,46.84564,0,0,1-16.692,3.92753l-3.17148-.04713h-.03535a46.95163,46.95163,0,0,1-16.87954-3.87746c-4.36054-1.79194-14.9364-8.73286-16.42-9.58219a14.47764,14.47764,0,0,0-7.29048-2.03741,15.59186,15.59186,0,0,0-4.713.76391,9.675,9.675,0,0,0-5.34536,5.31394,6.05721,6.05721,0,0,0,.80121.86995,7.299,7.299,0,0,1,1.60145,1.97065c.31617.68731.95341,2.07177,1.4581,3.16854a6.55135,6.55135,0,0,1,4.87406-4.283,5.8755,5.8755,0,0,1,1.69179-.24842,6.29529,6.29529,0,0,1,1.76738.2602,14.45815,14.45815,0,0,1,5.259,3.06053l.33875.26413c5.81274,4.67474,15.49705,12.463,32.26956,12.463h4.19853c16.78038,0,26.45977-7.78928,32.27154-12.464l.33286-.26706a14.56068,14.56068,0,0,1,5.22067-3.04385,6.27291,6.27291,0,0,1,1.80862-.272,5.87508,5.87508,0,0,1,1.69178.24842,6.55574,6.55574,0,0,1,4.876,4.283c.50273-1.09677,1.14194-2.48416,1.45712-3.16854a7.29918,7.29918,0,0,1,1.60145-1.97063,5.89138,5.89138,0,0,0,.80023-.87683,9.68425,9.68425,0,0,0-5.34831-5.311Z"/>
      <g id="Shape_251_copy" data-name="Shape 251 copy">
        <path class="cls-8" d="M75.05157,52.08009a40.56893,40.56893,0,1,0,.001,0h-.001"/>
      </g>
      <g id="Shape_251_copy_2" data-name="Shape 251 copy 2">
        <path class="cls-9" d="M47.13764,84.94666a28.90784,28.90784,0,0,1,55.82689,0H98.23088v15.015h4.73365a28.90784,28.90784,0,0,1-55.82689,0h4.73464V84.94666H47.13764M75.00346,60.485A32.0736,32.0736,0,0,0,43.45558,87.29042H48.904V97.60019H43.45656a31.96608,31.96608,0,0,0,63.09479,0h-5.44749V87.29042h5.44749A32.07361,32.07361,0,0,0,75.00346,60.485"/>
      </g>
      <g id="Shape_251_copy_3" data-name="Shape 251 copy 3">
        <path class="cls-10" d="M75.05157,63.55438A28.58711,28.58711,0,0,0,57.0301,69.861a29.0567,29.0567,0,0,0-9.89246,15.08565h4.73464v15.015H47.13764a28.90784,28.90784,0,0,0,55.82689,0H98.23088V84.94666h4.73365A29.04905,29.04905,0,0,0,93.073,69.861a28.58707,28.58707,0,0,0-18.02147-6.30663"/>
      </g>
      <path class="cls-2" d="M75.05157,133.70108a41.05253,41.05253,0,1,1,41.05251-41.05253A41.249,41.249,0,0,1,75.05157,133.70108Zm0-81.1379a40.08537,40.08537,0,1,0,40.08536,40.08537A40.27676,40.27676,0,0,0,75.05157,52.56318Zm29.48986,55.26921c.35839.31027-.22387.37214-.054.01374Zm-3.07721-10.59255h5.5113l-.06873.42024a32.32849,32.32849,0,0,1-63.81058,0l-.06873-.42024h5.51327v-9.5822H43.03042l.06873-.42025A32.34743,32.34743,0,0,1,60.16624,63.73112a29.81447,29.81447,0,0,1,4.226-1.81551,32.3282,32.3282,0,0,1,42.51551,25.32178l.06873.42025h-5.51228Zm4.659-10.30781A31.67979,31.67979,0,0,0,63.82375,62.86215a22.09128,22.09128,0,0,0-2.36339.99661A31.4445,31.4445,0,0,0,43.88466,86.933h5.38268V97.96447h-5.3817a31.60478,31.60478,0,0,0,62.2376,0h-5.38169V86.932ZM98.83473,99.35678h4.90942a29.51041,29.51041,0,0,1-57.38122,0h4.90942V85.55052H46.36293a29.51161,29.51161,0,0,1,57.38122,0H98.83473Zm3.33055-15.015a28.304,28.304,0,0,0-54.22741,0h4.53924v16.22464H47.93787a28.30441,28.30441,0,0,0,54.22741,0H97.627V84.34182Z"/>
      <path class="cls-11" d="M74.41433,46.45194c-6.65127,0-13.97022,1.96376-15.03655,2.76793a1.96637,1.96637,0,0,0-.61465,1.60734c.03436.80318.33089,1.51308.70891,1.56021h.01081c.22583,0,1.68-.6392,4.18773-1.27645a42.49579,42.49579,0,0,1,10.51988-1.27644q.36674,0,.7423.00589a47.00383,47.00383,0,0,1,14.98942,2.55093,1.61015,1.61015,0,0,0,.40454.052.71788.71788,0,0,0,.77667-.52531c.1895-.75605.42515-1.98635,0-2.5529s-8.46285-2.6-15.41555-2.88379q-.63184-.025-1.27645-.02552"/>
      <path class="cls-1" d="M76.38971,4.99978a9.25174,9.25174,0,0,0,2.6717-1.15764l.09819,3.688a14.42886,14.42886,0,0,0-2.8131-1.63091Zm-1.58378-.543a14.11543,14.11543,0,0,0-1.34812-2.6717l3.49844.04713a8.46919,8.46919,0,0,0-1.135,2.601Zm-.61466,1.63091A11.52455,11.52455,0,0,0,71.94473,7.317l.02454-3.19112a5.03837,5.03837,0,0,0,2.19844,1.08694ZM56.33868,36.0646l-1.08792.47228L53.9262,34.17251l2.55289-1.32358A21.85507,21.85507,0,0,0,56.33868,36.0646ZM68.3098,31.42815a1.68123,1.68123,0,0,1,1.51013,1.138,3.137,3.137,0,0,1-.28376,2.36437,2.40573,2.40573,0,0,0-.12568,1.54451,1.08429,1.08429,0,0,1-.94556-1.07222c-.1895-1.07124-.28376-1.5445-.5361-1.7016a.63146.63146,0,0,0-.327-.11194.43328.43328,0,0,0-.33482.17478,7.53458,7.53458,0,0,0-.56753,1.22931l-.378-.03142s.12568-2.39579,1.07124-3.18326A1.42024,1.42024,0,0,1,68.3098,31.42815ZM66.95873,35.124a.42608.42608,0,0,1,.107.83852l-2.4115.62252a.42581.42581,0,0,1-.21209-.82478l2.41052-.62252a.38933.38933,0,0,1,.106-.01473Zm-1.0624-.09819-.56753.09819a9.88289,9.88289,0,0,1-1.37464-8.32146c2.982,3.44739,1.94217,8.22228,1.94217,8.22228Zm-8.2812,1.70258a7.55952,7.55952,0,0,0,1.22932-2.50577l1.60832,3.87648a25.55171,25.55171,0,0,0-2.55289-.61466Zm4.824-4.10721a1.8945,1.8945,0,0,1,.57342.08837c1.0408.33089,1.844,2.4547,1.844,2.4547l-.42516.1895a2.53491,2.53491,0,0,0-1.3226-.77274.58986.58986,0,0,0-.14335.01669c-.94555.23566-.75605,1.13408-.47229,2.222.37508,1.44042-.45755,1.51406-.63036,1.51406h-.03241a3.36119,3.36119,0,0,0-.47425-1.65251,2.89052,2.89052,0,0,1-.89743-2.4115,2.04743,2.04743,0,0,1,1.97947-1.64957ZM79.54842,36.208s-1.56021-1.5612-2.65108-1.60735v-1.4198A5.39575,5.39575,0,0,0,79.59261,31.762Zm-5.67528-1.60833c-1.08792.04615-2.65108,1.60734-2.65108,1.60734l-.04419-4.445a5.38809,5.38809,0,0,0,2.69527,1.41882Zm2.16014-2.36437H74.65865a6.23436,6.23436,0,0,0-2.7424-3.2628h6.8555A6.22724,6.22724,0,0,0,76.03328,32.23526Zm-1.13309-25.745.922-.02454A26.32063,26.32063,0,0,0,76.863,9.20814a7.25978,7.25978,0,0,0-1.86558-.25922,4.76243,4.76243,0,0,0-.973.09819A26.68827,26.68827,0,0,0,74.90019,6.49028Zm2.71589,21.789H73.07586V17.43631h4.54022ZM87.7874,32.61917a2.04827,2.04827,0,0,1,1.98046,1.64858,2.88894,2.88894,0,0,1-.8994,2.41347,3.35322,3.35322,0,0,0-.47229,1.65448h-.03044c-.17379,0-1.00741-.07365-.63136-1.51407.28377-1.08793.47229-1.98635-.47326-2.222a.58988.58988,0,0,0-.14336-.01669,2.53218,2.53218,0,0,0-1.32161.77274l-.42515-.1895s.80416-2.12676,1.843-2.45471a1.89788,1.89788,0,0,1,.57342-.09132Zm-2.89066,2.49988-.56753-.09819s-1.03982-4.7749,1.93824-8.2272A9.88039,9.88039,0,0,1,84.89674,35.11905Zm1.192,1.15862a.42564.42564,0,0,1-.51941.30536l-2.41151-.62251a.42593.42593,0,1,1,.21307-.82478l2.4115.62251a.43031.43031,0,0,1,.30734.5204Zm-5.68411-3.7125a1.68263,1.68263,0,0,1,1.51013-1.138,1.41572,1.41572,0,0,1,.9161.35053c.94653.7855,1.07221,3.18326,1.07221,3.18326l-.379.03142a7.53552,7.53552,0,0,0-.56753-1.22932.43333.43333,0,0,0-.33482-.17477.63146.63146,0,0,0-.327.11194c-.25136.15808-.34661.63036-.53513,1.7016a1.08429,1.08429,0,0,1-.94555,1.07222,2.41263,2.41263,0,0,0-.12666-1.54451,3.14326,3.14326,0,0,1-.28278-2.36339Zm11.44285,1.65545a7.55962,7.55962,0,0,0,1.22932,2.50577l-.28377.757a25.549,25.549,0,0,0-2.55289.61466Zm-35.55691,4.6502a.35906.35906,0,0,1,.23762.08935,6.63542,6.63542,0,0,0,4.00215,1.36678,6.46693,6.46693,0,0,0,1.80666-.26019c3.32368-.96225,3.88433-3.361,3.90692-3.46311a.3654.3654,0,0,1,.322-.28474h.03142a.36394.36394,0,0,1,.33581.22387,3.58222,3.58222,0,0,0,3.40517,1.96965,5.74944,5.74944,0,0,0,.84147-.06382c2.48711-.36428,3.67519-3.3384,3.686-3.36589a.36288.36288,0,0,1,.33777-.23173h.28375a.36288.36288,0,0,1,.33777.23173c.01179.02749,1.19986,3.00161,3.687,3.36589a5.86094,5.86094,0,0,0,.83951.06382,3.58436,3.58436,0,0,0,3.40616-1.97162.36056.36056,0,0,1,.327-.22288h.0383a.36214.36214,0,0,1,.32009.28474c.0216.09819.58324,2.49987,3.90691,3.46212a6.45979,6.45979,0,0,0,1.80568.2602,6.64687,6.64687,0,0,0,4.00314-1.36678.3623.3623,0,1,1,.47522.54691,7.18915,7.18915,0,0,1-4.44694,1.55137,7.26856,7.26856,0,0,1-2.03839-.29456,6.25822,6.25822,0,0,1-4.14452-3.26084,4.43635,4.43635,0,0,1-3.65849,1.733,6.53562,6.53562,0,0,1-.93869-.0707c-2.30742-.33875-3.5986-2.45471-4.06106-3.3875-.46247.93083-1.75365,3.04875-4.06009,3.3875a6.41375,6.41375,0,0,1-.94064.07168,4.43425,4.43425,0,0,1-3.66144-1.735,6.25821,6.25821,0,0,1-4.14453,3.26083,7.16205,7.16205,0,0,1-6.48435-1.25681.36239.36239,0,0,1,.23565-.63331Zm18.5566.42515h.99563c.10408,0,10.244.09132,17.56391,3.77436a.36229.36229,0,0,1-.16.68732h-.00295l-.162-.03927C85.913,40.11192,75.94,40.01962,75.83691,40.01962H74.8452c-.09818,0-10.07116.09034-17.23694,3.69679a.35856.35856,0,0,1-.163.03829.36258.36258,0,0,1-.163-.68633C64.60613,39.38729,74.746,39.297,74.84717,39.296Zm.02651,1.356h.94457s.20326-.00785.57441-.00785a39.42214,39.42214,0,0,1,15.881,3.36492l-.86995,4.00313a48.95565,48.95565,0,0,0-15.39591-2.72669H74.68417a48.95565,48.95565,0,0,0-15.39591,2.72669l-.87-4.00313a39.421,39.421,0,0,1,15.88-3.36492C74.67043,40.6441,74.87368,40.652,74.87368,40.652Zm19.34309-7.802,2.55289,1.32358-1.32358,2.36438-1.08792-.47229a21.83194,21.83194,0,0,0-.14631-3.2137Z"/>
      <path class="cls-12" d="M81.26258,18.38256a1.5536,1.5536,0,1,1,.00127,0Zm4.0556-1.65426a1.5536,1.5536,0,1,1,.00128,0Zm4.16233-1.44081a1.5536,1.5536,0,1,1,.00127,0Zm4.42915-.4269a1.5536,1.5536,0,1,1,.00127,0ZM98.3388,16.1413a1.5536,1.5536,0,1,1,.00127,0Zm3.09507,3.14843a1.5536,1.5536,0,1,1,.00127,0Zm1.60089,4.42915a1.5536,1.5536,0,1,1,.00128,0Zm-.37354,4.90941a1.5536,1.5536,0,1,1,.00127,0Zm-2.0278,4.74932a1.5536,1.5536,0,1,1,.00127,0ZM56.98233,14.7005a1.5536,1.5536,0,1,1,.00127,0Zm4.32242.69372a1.5536,1.5536,0,1,1,.00127,0Zm4.21569,1.33408a1.5536,1.5536,0,1,1,.00127,0Zm4.109,1.70762a1.5536,1.5536,0,1,1,.00127,0Zm-17.02286-2.348a1.5536,1.5536,0,1,1,.00127,0ZM49.298,19.23637a1.5536,1.5536,0,1,1,.00127,0ZM47.7505,23.45206a1.5536,1.5536,0,1,1,.00127,0Zm.4269,5.33632a1.5536,1.5536,0,1,1,.00127,0ZM49.885,33.27089a1.5536,1.5536,0,1,1,.00128,0Zm25.46095,1.695A1.1979,1.1979,0,1,1,76.54386,33.768,1.204,1.204,0,0,1,75.346,34.96587Zm0-6.99788a1.1979,1.1979,0,1,1,1.19789-1.1979A1.204,1.204,0,0,1,75.346,27.968Zm1.19789-3.846v.00392a1.1979,1.1979,0,1,1-1.39132-1.18218A1.19807,1.19807,0,0,1,74.89725,20.65a1.19879,1.19879,0,0,1,.06382-2.24557,1.19741,1.19741,0,1,1,.76881,0A1.19879,1.19879,0,0,1,75.79371,20.65a1.19807,1.19807,0,0,1-.2553,2.29368A1.20174,1.20174,0,0,1,76.54386,24.122ZM75.3224,6.53741h-.001a.87879.87879,0,1,1,.87879-.88369v.00491A.88276.88276,0,0,1,75.3224,6.53741ZM56.36127,36.7313h.001a1.1979,1.1979,0,1,1-1.1979,1.19789v-.001a1.204,1.204,0,0,1,1.1979-1.1979h.00294Zm37.88986-.18852a1.1979,1.1979,0,1,1-1.1979,1.19789v-.001a1.204,1.204,0,0,1,1.1979-1.19789h.00393Z"/>
      <path class="cls-13" d="M76.31705,41.80469H74.7097a1.48952,1.48952,0,0,0,0,2.979h1.60735a1.48952,1.48952,0,0,0,0-2.979"/>
      <g id="Shape_258_copy_2" data-name="Shape 258 copy 2">
        <path class="cls-14" d="M85.75392,44.45479a1.66612,1.66612,0,0,1-1.75757,1.11247,2.78333,2.78333,0,0,1-.54887-.055,1.85075,1.85075,0,0,1-1.71928-1.85969,1.66331,1.66331,0,0,1,1.75954-1.11149,2.79247,2.79247,0,0,1,.54985.055A1.85079,1.85079,0,0,1,85.75392,44.45479ZM67.09815,45.528a2.76157,2.76157,0,0,1-.37115.02454,1.72709,1.72709,0,0,1-1.86558-1.23324,1.85089,1.85089,0,0,1,1.85184-1.74677,2.74706,2.74706,0,0,1,.37016-.02455A1.72707,1.72707,0,0,1,68.949,43.78122,1.85208,1.85208,0,0,1,67.09815,45.528Z"/>
      </g>
      <g id="Shape_258_copy" data-name="Shape 258 copy">
        <path class="cls-15" d="M93.0012,46.60806a.95108.95108,0,0,1-1.1871.61564L90.462,46.79462a.94557.94557,0,0,1,.28573-1.84693h.002a.92607.92607,0,0,1,.28376.04419l1.352.4281A.95256.95256,0,0,1,93.0012,46.60806ZM58.868,46.84175a.92163.92163,0,0,1-.27394.04123h-.00393a.94555.94555,0,0,1-.273-1.85084l1.357-.41338a.92171.92171,0,0,1,.27395-.04124h.001a.9455.9455,0,0,1,.2759,1.84987Z"/>
      </g>
      <path class="cls-12" d="M79.25189,14.85593s-.07069-.01866-.19637-.0491a4.07868,4.07868,0,0,1-7.49471.01964l-.11782.02946a4.18777,4.18777,0,0,1-.28377-2.31627l.12862-.0324a4.08981,4.08981,0,0,1,3.11061-3.2736V9.06478a2.26706,2.26706,0,0,1,.7806-.11783h.34169a2.26154,2.26154,0,0,1,.77962.11783v.19049a4.08692,4.08692,0,0,1,3.01634,3.23137c.08051.01669.15514.03437.22289.053A4.17954,4.17954,0,0,1,79.25189,14.85593Z"/>
      <g id="Shape_260_copy" data-name="Shape 260 copy">
        <path class="cls-5" d="M75.3008,9.13253a4.07174,4.07174,0,0,0-.9053.09819v2.9751a22.47126,22.47126,0,0,0-3.1106.29457,4.0908,4.0908,0,0,0,.273,2.31921,15.76564,15.76564,0,0,1,3.523-.41829h.53021a15.81362,15.81362,0,0,1,3.43659.39963,4.05918,4.05918,0,0,0,.325-1.59752,4.14552,4.14552,0,0,0-.06381-.72267,23.703,23.703,0,0,0-3.01635-.27787V9.25527a4.1097,4.1097,0,0,0-.99661-.12274"/>
      </g>
      <g>
        <path class="cls-2" d="M62.51669,49.00005a11.26075,11.26075,0,0,1,2.12283.22583c.6991.14238-3.45132,1.60735-3.687,1.65546h-.0108c-.22485,0-.17968-1.56119-.17968-1.56119A3.96962,3.96962,0,0,1,62.51669,49.00005Z"/>
        <path class="cls-2" d="M70.92848,48.32845a11.47956,11.47956,0,0,1-4.72777,1.08792l-.23663-1.27645a3.86314,3.86314,0,0,1,1.60734-.273,15.9874,15.9874,0,0,1,3.35608.46149Z"/>
        <path class="cls-2" d="M74.38077,47.24052a16.776,16.776,0,0,0,2.50577.89842c-.54.68732-2.93583.76489-4.13765.76489-.38,0-.64019-.00786-.68732-.00786a5.26736,5.26736,0,0,1-.18852-1.7016c.03044-.57342.83165-.0923,1.54745-.0923A2.06806,2.06806,0,0,1,74.38077,47.24052Z"/>
        <path class="cls-2" d="M81.04776,47.85518c.42515.28474,2.03348,1.27645,2.03348,1.27645a4.5655,4.5655,0,0,1-1.02116.07756c-1.43551,0-3.65948-.21895-3.65948-.21895l.09819-1.51309a10.07756,10.07756,0,0,1,2.548.378Z"/>
        <path class="cls-2" d="M87.62048,49.22981c.28376.18951,1.65545,1.41882,1.65545,1.41882-.09327.00492-.18655.00688-.28081.00688a13.31906,13.31906,0,0,1-4.06991-.85719L85.21,48.52188a18.00817,18.00817,0,0,1,2.40954.705Z"/>
      </g>
      <g>
        <path class="cls-16" d="M39.288,90.11036h2.53927l-.40379,1.03172H39.288l-.204.5399a3.38132,3.38132,0,0,1,2.1235.68785,1.64758,1.64758,0,0,1,.61181,1.30367,1.95739,1.95739,0,0,1-1.08366,1.71358,2.49576,2.49576,0,0,1-1.13173.258,1.77272,1.77272,0,0,1-1.01973-.248.49446.49446,0,0,1-.248-.39993.42076.42076,0,0,1,.13-.30391.41127.41127,0,0,1,.30191-.132.84688.84688,0,0,1,.31589.06406,3.3604,3.3604,0,0,1,.54789.33587,1.95694,1.95694,0,0,0,.4199.232.77088.77088,0,0,0,.27994.048.74439.74439,0,0,0,.55788-.24.80261.80261,0,0,0,.22986-.57585,1.3116,1.3116,0,0,0-.7037-1.14372,3.296,3.296,0,0,0-1.77565-.43988q-.10786,0-.32388.004Z"/>
        <path class="cls-16" d="M45.98238,89.99836v.112a3.815,3.815,0,0,0-1.16169.47384,2.26,2.26,0,0,0-.69185.70384,3.41039,3.41039,0,0,0-.39394,1.02586,1.18056,1.18056,0,0,1,.29192-.15608,1.77426,1.77426,0,0,1,.52392-.07991,1.31946,1.31946,0,0,1,1.01374.44188,1.71444,1.71444,0,0,1,.40592,1.20565,2.20108,2.20108,0,0,1-.22.98377,1.62185,1.62185,0,0,1-.6238.69185,1.64287,1.64287,0,0,1-.86378.244,1.669,1.669,0,0,1-.92384-.27394,1.80677,1.80677,0,0,1-.66176-.80186,2.76027,2.76027,0,0,1-.238-1.14771,3.4312,3.4312,0,0,1,.43788-1.6976,3.26061,3.26061,0,0,1,1.24373-1.25159A3.711,3.711,0,0,1,45.98238,89.99836ZM43.683,92.63778q-.03216.55176-.032.80772a5.29946,5.29946,0,0,0,.10587,1.06781,1.60643,1.60643,0,0,0,.28993.72381.37724.37724,0,0,0,.63991-.06605,1.74525,1.74525,0,0,0,.144-.86978,3.05312,3.05312,0,0,0-.26795-1.52354.52622.52622,0,0,0-.46385-.27194A.97327.97327,0,0,0,43.683,92.63778Z"/>
      </g>
      <g>
        <path class="cls-16" d="M105.60065,90.11036h2.53927l-.40379,1.03172h-2.13548l-.204.5399a3.38132,3.38132,0,0,1,2.1235.68785,1.64758,1.64758,0,0,1,.61181,1.30367,1.95741,1.95741,0,0,1-1.08365,1.71358,2.49584,2.49584,0,0,1-1.13174.258,1.77272,1.77272,0,0,1-1.01973-.248.49446.49446,0,0,1-.248-.39993.42076.42076,0,0,1,.13-.30391.41127.41127,0,0,1,.30191-.132.84688.84688,0,0,1,.31589.06406,3.3604,3.3604,0,0,1,.54789.33587,1.95674,1.95674,0,0,0,.41991.232.77083.77083,0,0,0,.27993.048.74437.74437,0,0,0,.55788-.24.80261.80261,0,0,0,.22986-.57585,1.3116,1.3116,0,0,0-.7037-1.14372,3.296,3.296,0,0,0-1.77564-.43988q-.10788,0-.32389.004Z"/>
        <path class="cls-16" d="M112.295,89.99836v.112a3.81492,3.81492,0,0,0-1.1617.47384,2.26011,2.26011,0,0,0-.69185.70384,3.41039,3.41039,0,0,0-.39394,1.02586,1.18056,1.18056,0,0,1,.29192-.15608,1.77431,1.77431,0,0,1,.52392-.07991,1.31944,1.31944,0,0,1,1.01374.44188,1.71444,1.71444,0,0,1,.40592,1.20565,2.20108,2.20108,0,0,1-.22.98377,1.62179,1.62179,0,0,1-.6238.69185,1.64287,1.64287,0,0,1-.86378.244,1.669,1.669,0,0,1-.92384-.27394,1.80677,1.80677,0,0,1-.66176-.80186,2.76027,2.76027,0,0,1-.238-1.14771,3.4312,3.4312,0,0,1,.43788-1.6976,3.26064,3.26064,0,0,1,1.24374-1.25159A3.711,3.711,0,0,1,112.295,89.99836Zm-2.29943,2.63942q-.03216.55176-.032.80772a5.29874,5.29874,0,0,0,.10588,1.06781,1.60644,1.60644,0,0,0,.28992.72381.37724.37724,0,0,0,.63991-.06605,1.74522,1.74522,0,0,0,.144-.86978,3.05312,3.05312,0,0,0-.26795-1.52354.52624.52624,0,0,0-.46386-.27194A.97327.97327,0,0,0,109.9956,92.63778Z"/>
      </g>
      <g>
        <path class="cls-16" d="M56.35765,58.896l.83635,1.35894-.12492.07271a1.63293,1.63293,0,0,0-.92052-.58078,1.2643,1.2643,0,0,0-.93237.12039.81011.81011,0,0,0-.39566.45306.5859.5859,0,0,0,.04141.4885.53686.53686,0,0,0,.20616.20655,1.19441,1.19441,0,0,0,.44881.1184,7.33231,7.33231,0,0,0,.86964-.02864,3.403,3.403,0,0,1,1.37132.10375,1.31879,1.31879,0,0,1,.67294.58025,1.35845,1.35845,0,0,1,.11546,1.12733,1.68122,1.68122,0,0,1-.80851.97126,1.929,1.929,0,0,1-.39221.17539,3.24023,3.24023,0,0,1-.523.10441.76457.76457,0,0,0-.27661.07938.34758.34758,0,0,0-.13211.15861.49379.49379,0,0,0-.03489.26955l-.1128.06565-.9096-1.56136.1128-.06565a2.0722,2.0722,0,0,0,1.1023.70384,1.39992,1.39992,0,0,0,1.02653-.13451.89649.89649,0,0,0,.436-.503.64925.64925,0,0,0-.29246-.78947,1.04188,1.04188,0,0,0-.38821-.12305,4.12611,4.12611,0,0,0-.74858.00519,5.61577,5.61577,0,0,1-1.08646-.00027,1.67764,1.67764,0,0,1-.63378-.21494,1.25283,1.25283,0,0,1-.44175-.45334,1.30013,1.30013,0,0,1-.12731-1.05315,1.46923,1.46923,0,0,1,.71222-.88043,1.80519,1.80519,0,0,1,.41884-.17859,2.25593,2.25593,0,0,1,.4283-.06766.95432.95432,0,0,0,.34586-.06885.18858.18858,0,0,0,.09668-.12159.65.65,0,0,0-.0514-.28446Z"/>
        <path class="cls-16" d="M62.40372,61.54257a1.367,1.367,0,0,0,.73727.45719,1.47411,1.47411,0,0,0,.88269-.11173,1.737,1.737,0,0,0,.266-.1413l.083.19843a3.953,3.953,0,0,1-.82809.49049,2.17694,2.17694,0,0,1-1.20658.15515,1.96982,1.96982,0,0,1-1.08086-.57026,2.3531,2.3531,0,0,1-1.61875-.24665,2.47785,2.47785,0,0,1-1.10284-1.26477,2.40417,2.40417,0,0,1-.02184-1.9236,2.69383,2.69383,0,0,1,3.369-1.40261,2.4127,2.4127,0,0,1,1.347,1.36958,2.48469,2.48469,0,0,1,.10534,1.71079A2.18431,2.18431,0,0,1,62.40372,61.54257Zm-2.3764-4.068a1.072,1.072,0,0,0-.65163.98671,3.47442,3.47442,0,0,0,.33987,1.56748,3.093,3.093,0,0,0,1.10123,1.51382,1.05955,1.05955,0,0,0,1.547-.63725,2.91765,2.91765,0,0,0-.273-1.78257,3.78234,3.78234,0,0,0-.89162-1.43324A1.07581,1.07581,0,0,0,60.02732,57.47456Z"/>
        <path class="cls-16" d="M63.69087,55.91187l2.4033-.57159.03023.127-.12012.02863a.86737.86737,0,0,0-.35918.1453.331.331,0,0,0-.10694.19044,1.71687,1.71687,0,0,0,.07551.50807l.542,2.27971a2.38478,2.38478,0,0,0,.29126.80518.80758.80758,0,0,0,.39074.26236,1.047,1.047,0,0,0,.57772.00413,1.20287,1.20287,0,0,0,.60342-.32295,1.0712,1.0712,0,0,0,.28673-.56334,2.92556,2.92556,0,0,0-.11507-1.0718l-.4516-1.8987a1.13382,1.13382,0,0,0-.17126-.43082.40226.40226,0,0,0-.20909-.14636,1.00753,1.00753,0,0,0-.45466.02477l-.03037-.12692,1.61037-.383.03023.127-.09629.02291a.63641.63641,0,0,0-.30723.15662.45893.45893,0,0,0-.13251.28166,1.21889,1.21889,0,0,0,.04927.40553L68.4478,57.534a4.71741,4.71741,0,0,1,.17353,1.21031,1.3578,1.3578,0,0,1-.3677.79479,1.95628,1.95628,0,0,1-1.07074.57732,2.23371,2.23371,0,0,1-.97232.06086,1.40786,1.40786,0,0,1-.769-.412,2.00279,2.00279,0,0,1-.405-.8795l-.54229-2.27985a1.65617,1.65617,0,0,0-.16341-.48875.34352.34352,0,0,0-.19164-.1196.96407.96407,0,0,0-.41831.04142Z"/>
        <path class="cls-16" d="M72.42205,57.79765l-1.68348.15288-.15822.4821a1.03419,1.03419,0,0,0-.06366.39207.31989.31989,0,0,0,.18845.28061,1.3672,1.3672,0,0,0,.47517.04181l.01185.13012-1.58519.144-.01186-.13a.7122.7122,0,0,0,.40246-.25117,2.83644,2.83644,0,0,0,.34253-.75564l1.35907-3.95774.06685-.006,2.07369,3.75211a2.38533,2.38533,0,0,0,.46772.66282.55346.55346,0,0,0,.34892.09589l.01185.12984-2.30568.20949-.01172-.13.09482-.00866a.725.725,0,0,0,.383-.1128.18829.18829,0,0,0,.06272-.1686.4349.4349,0,0,0-.03289-.12825q-.01-.031-.12945-.254Zm-.14317-.24931-.859-1.57681-.582,1.70772Z"/>
        <path class="cls-16" d="M75.10688,58.956l.00813-.13025.15834.01a.63907.63907,0,0,0,.323-.04528.40083.40083,0,0,0,.175-.1678,1.69986,1.69986,0,0,0,.05913-.44188l.19564-3.1419a1.572,1.572,0,0,0-.01026-.46039.352.352,0,0,0-.14676-.16993.63377.63377,0,0,0-.31443-.08857l-.15848-.00985.008-.13038,2.13828.13318a3.4341,3.4341,0,0,1,1.3628.31815,2.04125,2.04125,0,0,1,.91292.92318,2.75424,2.75424,0,0,1,.02823,2.24536,2.13935,2.13935,0,0,1-.46278.67493,2.0551,2.0551,0,0,1-.62114.40672,3.17781,3.17781,0,0,1-.83861.20776,3.87861,3.87861,0,0,1-.67893.00027Zm2.10153-4.39163-.232,3.72654a1.30739,1.30739,0,0,0,.0056.36477.19986.19986,0,0,0,.08869.108.579.579,0,0,0,.27155.06978,1.06748,1.06748,0,0,0,.923-.34546,2.73794,2.73794,0,0,0,.52765-1.65738,3.17971,3.17971,0,0,0-.19737-1.48678,1.23485,1.23485,0,0,0-.55188-.6214A2.29112,2.29112,0,0,0,77.20841,54.56439Z"/>
        <path class="cls-16" d="M82.5268,57.53569l-.27847,1.31165a1.48193,1.48193,0,0,0-.05487.4881.34781.34781,0,0,0,.13052.1919,1.12692,1.12692,0,0,0,.42616.15182l-.02717.12772-2.396-.50873.02717-.12759a1.09371,1.09371,0,0,0,.45293.0329.35925.35925,0,0,0,.19563-.12266,1.45751,1.45751,0,0,0,.14783-.46638l.645-3.038a1.48139,1.48139,0,0,0,.05487-.48809.34735.34735,0,0,0-.13064-.19178,1.12635,1.12635,0,0,0-.4259-.15182l.027-.12785,2.175.46186a4.86975,4.86975,0,0,1,1.2179.38115,1.28368,1.28368,0,0,1,.55015.5696,1.18945,1.18945,0,0,1,.09136.79346,1.13118,1.13118,0,0,1-.55468.77695,1.57474,1.57474,0,0,1-.73447.17952l.78894,1.82359a2.45413,2.45413,0,0,0,.23279.44987.59644.59644,0,0,0,.30311.187l-.02717.12771-1.474-.31283L82.834,57.60081Zm.48756-2.29583-.43548,2.05052.1967.04195a2.25175,2.25175,0,0,0,.73686.06446.73084.73084,0,0,0,.44188-.23826,1.18608,1.18608,0,0,0,.26369-.57.92924.92924,0,0,0-.83435-1.2701Z"/>
        <path class="cls-16" d="M89.75948,56.84184a2.37455,2.37455,0,0,1,1.52607,3.20223,2.55188,2.55188,0,0,1-1.07194,1.30473,2.36914,2.36914,0,0,1-2.19035.14156,2.41849,2.41849,0,0,1-1.55084-1.53312,2.53321,2.53321,0,0,1,.06779-1.732,2.386,2.386,0,0,1,1.314-1.39875A2.30879,2.30879,0,0,1,89.75948,56.84184Zm-.04142.226a1.07842,1.07842,0,0,0-1.17275.268,3.58143,3.58143,0,0,0-.82716,1.376,3.06774,3.06774,0,0,0-.24717,1.84449.98153.98153,0,0,0,.63725.68333,1.00915,1.00915,0,0,0,.62992.05287,1.45034,1.45034,0,0,0,.71023-.50047,4.0109,4.0109,0,0,0,.62513-1.14545,4.2975,4.2975,0,0,0,.34453-1.3893,1.385,1.385,0,0,0-.18152-.78241A1.06222,1.06222,0,0,0,89.71806,57.06784Z"/>
        <path class="cls-16" d="M94.56875,59.12875l.57558,3.74878,1.0216-1.786a.9728.9728,0,0,0,.18192-.5668.68269.68269,0,0,0-.39514-.4536l.065-.11333,1.37239.78507-.06486.11334a1.20983,1.20983,0,0,0-.40379-.1152.4042.4042,0,0,0-.24065.09415,1.3723,1.3723,0,0,0-.28819.38608L94.41413,64.6798,94.31,64.62027l-.83048-5.06563L91.96888,62.1954a.67216.67216,0,0,0-.11307.57785.69248.69248,0,0,0,.30338.34013l.09815.05607-.06486.11347-1.4736-.84314.065-.11334a.76762.76762,0,0,0,.55854.13251.75983.75983,0,0,0,.40286-.3914l1.67709-2.93175-.02583-.16127a.93178.93178,0,0,0-.10841-.35052.80842.80842,0,0,0-.25769-.22467l.06485-.11333Z"/>
      </g>
      <g>
        <path class="cls-16" d="M45.50615,113.4097l-1.09112.77975a1.50134,1.50134,0,0,0-.37036.32242.3456.3456,0,0,0-.03476.22746,1.09341,1.09341,0,0,0,.20762.39367l-.10627.07591-1.40115-1.96035.10627-.07591a1.06735,1.06735,0,0,0,.30764.32428.35714.35714,0,0,0,.2256.03929,1.484,1.484,0,0,0,.42337-.24505l2.52662-1.80587a1.50307,1.50307,0,0,0,.3705-.32242.34652.34652,0,0,0,.03476-.22746,1.09573,1.09573,0,0,0-.20763-.39367l.10615-.07591,1.272,1.77963a4.69863,4.69863,0,0,1,.62926,1.08659,1.25746,1.25746,0,0,1,.01518.78294,1.201,1.201,0,0,1-.47051.64365,1.13934,1.13934,0,0,1-.9301.20389,1.54127,1.54127,0,0,1-.6567-.35438l-.65962,1.86287a2.43,2.43,0,0,0-.13491.48476.58079.58079,0,0,0,.09416.33813l-.10627.07591-.86206-1.20617.892-2.50265Zm1.90934-1.36479L45.71,113.264l.11506.161a2.17522,2.17522,0,0,0,.49315.5351.72212.72212,0,0,0,.48317.11773,1.20493,1.20493,0,0,0,.578-.24451,1.128,1.128,0,0,0,.511-.67468,1.08568,1.08568,0,0,0-.25889-.81144Z"/>
        <path class="cls-16" d="M51.305,116.269a2.32892,2.32892,0,0,1,.79959,1.774,2.41971,2.41971,0,0,1-.77908,1.74315,2.58021,2.58021,0,0,1-1.51288.74405,2.31668,2.31668,0,0,1-2.02694-.76283,2.36461,2.36461,0,0,1-.74646-2.01776,2.56143,2.56143,0,0,1,.7912-1.53885,2.40667,2.40667,0,0,1,1.76992-.73061A2.251,2.251,0,0,1,51.305,116.269Zm-.13251.18751a1.06074,1.06074,0,0,0-1.16622-.23466,3.63411,3.63411,0,0,0-1.32311.90813,3.10874,3.10874,0,0,0-.99962,1.56776.95992.95992,0,0,0,.28433.87723.97954.97954,0,0,0,.54349.30417,1.45062,1.45062,0,0,0,.84874-.1638,4.07205,4.07205,0,0,0,1.04437-.78175,4.3668,4.3668,0,0,0,.89521-1.11642,1.38364,1.38364,0,0,0,.16673-.78148A1.03244,1.03244,0,0,0,51.17253,116.45651Z"/>
        <path class="cls-16" d="M57.63159,121.5316l-.07645.10587a.68848.68848,0,0,0-.37049-.09788,3.6724,3.6724,0,0,0-.918.334l-1.84209.80692-.67787.93836a1.59363,1.59363,0,0,0-.23865.39567.35608.35608,0,0,0,.02943.21721.57284.57284,0,0,0,.20323.23172l.21388.15449-.07645.10587-2.142-1.54724.07644-.10587.1999.14436a.62951.62951,0,0,0,.3107.133.33646.33646,0,0,0,.21468-.05393,1.47832,1.47832,0,0,0,.29125-.33814l.56214-.77815.30271-2.31074a3.02147,3.02147,0,0,0,.04129-.8518.579.579,0,0,0-.2276-.30151l.07644-.10588,1.82958,1.32151-.07645.10588-.08163-.059a.505.505,0,0,0-.26729-.11906.16456.16456,0,0,0-.14063.05527,2.14661,2.14661,0,0,0-.14889.6804l-.23826,1.7827,1.53207-.674a1.9315,1.9315,0,0,0,.66734-.38434.18886.18886,0,0,0,.01985-.18166.84726.84726,0,0,0-.28993-.33986l.07644-.10588Z"/>
        <path class="cls-16" d="M58.32317,125.74463l-1.47066-.77668-.39261.31962a1.04823,1.04823,0,0,0-.26555.29472.32086.32086,0,0,0,.00279.33667,1.32407,1.32407,0,0,0,.36877.29059l-.061.11546-1.38464-.73127.061-.11546a.69643.69643,0,0,0,.46811.00572,2.84911,2.84911,0,0,0,.69318-.45l3.27241-2.59028.05833.0309-.33147,4.26311a2.39773,2.39773,0,0,0,.02517.80744.54027.54027,0,0,0,.23545.26809l-.061.11546-2.01416-1.06381.061-.11546.083.04381a.70363.70363,0,0,0,.377.11134.18922.18922,0,0,0,.14329-.10788.43773.43773,0,0,0,.04262-.12518q.00859-.03136.03143-.28274Zm.01758-.28593.14943-1.785L57.082,124.79388Z"/>
        <path class="cls-16" d="M65.235,128.19028l-.71649,1.52966-3.95081-1.36652.04275-.12345.14769.05114a.64113.64113,0,0,0,.33587.03769.31988.31988,0,0,0,.18671-.11467,1.47813,1.47813,0,0,0,.18139-.40778l1.02905-2.975a1.59372,1.59372,0,0,0,.11387-.446.34974.34974,0,0,0-.09349-.20229.61537.61537,0,0,0-.27448-.16781l-.14769-.051.04275-.12346,2.3724.82064-.04261.12345-.19364-.067a.64162.64162,0,0,0-.336-.03782.33638.33638,0,0,0-.18991.1136,1.47851,1.47851,0,0,0-.18138.40779l-.99683,2.88167a1.56431,1.56431,0,0,0-.11346.45546.27868.27868,0,0,0,.10521.1951,1.62741,1.62741,0,0,0,.38661.16741l.37089.12824a1.3094,1.3094,0,0,0,.63446.07751,1.1729,1.1729,0,0,0,.54695-.25889,3.45614,3.45614,0,0,0,.60569-.69425Z"/>
        <path class="cls-16" d="M71.01,129.58837l-1.65032-.206-.2541.43775a1.05072,1.05072,0,0,0-.1441.36957.32092.32092,0,0,0,.12173.314,1.32243,1.32243,0,0,0,.44774.14116l-.01612.12959-1.5539-.19391.01611-.12958a.69682.69682,0,0,0,.44-.16034,2.84835,2.84835,0,0,0,.489-.66615l2.14414-3.58058.06539.00812,1.19859,4.10463a2.396,2.396,0,0,0,.30923.74632.53976.53976,0,0,0,.315.1674l-.01612.12958-2.26013-.2822.01611-.12958.09309.01159a.70376.70376,0,0,0,.39207-.0293.18966.18966,0,0,0,.09589-.15155.441.441,0,0,0-.00453-.13225q-.003-.03235-.07058-.27554Zm-.0847-.27381-.49182-1.72237-.92078,1.546Z"/>
        <path class="cls-16" d="M75.95413,131.07581l-.00214.13052-2.46136-.03942.00213-.13052.15622.00253a.64287.64287,0,0,0,.33094-.06885.31981.31981,0,0,0,.14157-.16714,1.47325,1.47325,0,0,0,.04528-.444l.05047-3.14762a1.6006,1.6006,0,0,0-.03076-.45932.35056.35056,0,0,0-.152-.16314.61672.61672,0,0,0-.3131-.07378l-.15621-.00253.00213-.13052,2.46136.03942-.002.13052-.15635-.0024a.64153.64153,0,0,0-.331.06872.33645.33645,0,0,0-.145.16713,1.47336,1.47336,0,0,0-.04528.444l-.05047,3.14763a1.53181,1.53181,0,0,0,.0325.45932.36077.36077,0,0,0,.15368.16314.6154.6154,0,0,0,.3131.07378Z"/>
        <path class="cls-16" d="M78.84858,128.84324l.15475,1.33217a1.49956,1.49956,0,0,0,.10295.4801.34519.34519,0,0,0,.18231.1405,1.0942,1.0942,0,0,0,.445.00866l.015.12971-2.39358.27807-.015-.12971a1.0665,1.0665,0,0,0,.43256-.1124.357.357,0,0,0,.14356-.17846,1.48137,1.48137,0,0,0-.00959-.48916l-.35838-3.08489a1.50371,1.50371,0,0,0-.10294-.4801.34634.34634,0,0,0-.18232-.1405,1.09393,1.09393,0,0,0-.44494-.00866l-.01505-.12971,2.17277-.25251a4.70781,4.70781,0,0,1,1.25545-.025,1.25919,1.25919,0,0,1,.69265.36543,1.20146,1.20146,0,0,1,.33574.72315,1.13957,1.13957,0,0,1-.27154.91266,1.53986,1.53986,0,0,1-.6278.40339l1.31126,1.47839a2.42681,2.42681,0,0,0,.359.35265.583.583,0,0,0,.3416.08124l.01505.12971-1.4728.171-1.75873-1.99139ZM78.5777,126.512l.242,2.08235.19657-.02291a2.18,2.18,0,0,0,.7069-.17259.72263.72263,0,0,0,.3368-.36611,1.20329,1.20329,0,0,0,.06553-.62393,1.1276,1.1276,0,0,0-.3432-.77375,1.08619,1.08619,0,0,0-.83555-.16594Z"/>
        <path class="cls-16" d="M86.76858,124.6932l.67614,1.84569.12718-.04647a1.1805,1.1805,0,0,0,.44641-.26516.804.804,0,0,0,.20416-.41671,1.4867,1.4867,0,0,0-.04209-.63485l.11413-.04182.82676,2.25668-.11413.04181q-.29625-.61686-.64644-.71968a1.08956,1.08956,0,0,0-.699.0249l-.127.04661.50381,1.37518a1.53716,1.53716,0,0,0,.19523.41711.36077.36077,0,0,0,.202.09695.61519.61519,0,0,0,.31869-.04341l.14676-.0538.04488.12265-2.31154.84674-.04488-.12253.14663-.0538a.6425.6425,0,0,0,.28433-.183.32034.32034,0,0,0,.07205-.20683,1.47446,1.47446,0,0,0-.11707-.43069l-1.08285-2.956a1.60254,1.60254,0,0,0-.19364-.41764.35151.35151,0,0,0-.20043-.09762.61668.61668,0,0,0-.31869.04342l-.14676.0538-.04488-.12266,3.72973-1.36625.47225,1.289-.13371.049a1.28855,1.28855,0,0,0-.47944-.58731,1.0844,1.0844,0,0,0-.65576-.10934,3.68226,3.68226,0,0,0-.74206.21548Z"/>
        <path class="cls-16" d="M91.22506,122.32812a2.32917,2.32917,0,0,1,1.92533-.28313,2.4197,2.4197,0,0,1,1.46294,1.22682,2.57923,2.57923,0,0,1,.30125,1.65871A2.316,2.316,0,0,1,93.6257,126.671a2.36382,2.36382,0,0,1-2.14494.16528,2.56144,2.56144,0,0,1-1.26345-1.18248,2.40726,2.40726,0,0,1-.21787-1.90229A2.25113,2.25113,0,0,1,91.22506,122.32812Zm.1441.17886a1.06091,1.06091,0,0,0-.54523,1.05729,3.63753,3.63753,0,0,0,.511,1.52114,3.10894,3.10894,0,0,0,1.234,1.39089.96021.96021,0,0,0,.92158-.03316.97829.97829,0,0,0,.44135-.43935,1.45037,1.45037,0,0,0,.075-.86112,4.07066,4.07066,0,0,0-.46572-1.21856,4.362,4.362,0,0,0-.82862-1.16676,1.3832,1.3832,0,0,0-.70584-.37449A1.03214,1.03214,0,0,0,91.36916,122.507Z"/>
        <path class="cls-16" d="M97.033,121.77664l.82623,1.05636a1.502,1.502,0,0,0,.338.35611.34539.34539,0,0,0,.22893.0249,1.09347,1.09347,0,0,0,.38422-.2244l.08043.10281-1.898,1.48465-.08043-.10294a1.06286,1.06286,0,0,0,.3107-.32136.35747.35747,0,0,0,.02956-.22706,1.48231,1.48231,0,0,0-.263-.41245l-1.91348-2.44632a1.5048,1.5048,0,0,0-.338-.35611.3459.3459,0,0,0-.2288-.0249,1.09673,1.09673,0,0,0-.38434.2244l-.08044-.10281,1.723-1.34762a4.70337,4.70337,0,0,1,1.05849-.6756,1.25957,1.25957,0,0,1,.78161-.049,1.20078,1.20078,0,0,1,.66322.44228,1.13888,1.13888,0,0,1,.24384.92038,1.54055,1.54055,0,0,1-.32561.67148l1.88964.57852a2.41909,2.41909,0,0,0,.49022.11386.58131.58131,0,0,0,.33374-.10867l.08044.10294-1.16783.91333-2.53887-.78308ZM95.58712,119.928l1.29154,1.65125.15582-.12185a2.1805,2.1805,0,0,0,.51353-.51593.72247.72247,0,0,0,.09668-.48782,1.20433,1.20433,0,0,0-.26928-.5668,1.12727,1.12727,0,0,0-.69611-.48143,1.08649,1.08649,0,0,0-.79959.29378Z"/>
        <path class="cls-16" d="M100.99807,114.37643l1.20126,1.14385-.09336.098a1.77289,1.77289,0,0,0-1.11336-.27381,1.43933,1.43933,0,0,0-.90173.44547,1.3811,1.3811,0,0,0-.3713.76364,1.49772,1.49772,0,0,0,.1172.85459,3.09655,3.09655,0,0,0,.708.97605,4.02848,4.02848,0,0,0,.95741.691,1.55851,1.55851,0,0,0,.92238.18778,1.37621,1.37621,0,0,0,.80372-.45253,1.69981,1.69981,0,0,0,.4183-.72595,2.82687,2.82687,0,0,0,.04408-1.03425l.29912.28474a2.57058,2.57058,0,0,1-.12772,1.01693,2.46753,2.46753,0,0,1-.554.85579,2.83686,2.83686,0,0,1-1.14532.75764,2.15,2.15,0,0,1-1.26145.04541,2.49372,2.49372,0,0,1-1.106-.61434,2.56953,2.56953,0,0,1-.69758-1.15064,2.50331,2.50331,0,0,1-.0341-1.34615,2.54556,2.54556,0,0,1,.63206-1.1553,2.84718,2.84718,0,0,1,.88149-.60849,1.5957,1.5957,0,0,0,.37223-.20669.26138.26138,0,0,0,.07272-.1967.45447.45447,0,0,0-.11733-.258Z"/>
        <path class="cls-16" d="M102.85082,112.48559l1.60451,1.1047.05327-.07724a.73841.73841,0,0,0,.13265-.69678,1.77894,1.77894,0,0,0-.549-.69l.07485-.10867,2.06383,1.42086-.07484.10867a1.89947,1.89947,0,0,0-.65177-.23572.76447.76447,0,0,0-.46545.05673,1.16572,1.16572,0,0,0-.36557.37223l1.11043.76456a1.9763,1.9763,0,0,0,.417.24705.28863.28863,0,0,0,.18911-.01958.56915.56915,0,0,0,.21189-.20816l.15954-.23159a1.6713,1.6713,0,0,0,.34373-1.047,1.735,1.735,0,0,0-.4552-1.00681l.07285-.10575,1.1328,1.037-2.30768,3.35178-.10747-.074.08856-.12878a.64244.64244,0,0,0,.126-.31363.32062.32062,0,0,0-.06073-.21055,1.476,1.476,0,0,0-.34466-.28353l-2.59294-1.78523a2.542,2.542,0,0,0-.33827-.21188.33849.33849,0,0,0-.22986-.00227.58986.58986,0,0,0-.28606.24145l-.0887.12865-.10747-.074,2.2347-3.24591,1.16569.80253-.07485.10867a1.74323,1.74323,0,0,0-.77375-.18925,1.05033,1.05033,0,0,0-.56573.23666,2.74186,2.74186,0,0,0-.46572.56453Z"/>
      </g>
      <g>
        <path d="M41.3601,132.35537a1.1611,1.1611,0,0,0-.0618.73407,1.25192,1.25192,0,0,0,.42457.62473,1.46684,1.46684,0,0,0,.20962.14676l-.11839.13917a3.35651,3.35651,0,0,1-.69012-.43735,1.85047,1.85047,0,0,1-.58238-.85313,1.67341,1.67341,0,0,1,.015-1.03758,1.99688,1.99688,0,0,1-.43722-1.31977,2.10244,2.10244,0,0,1,.5319-1.32165,2.04118,2.04118,0,0,1,1.447-.7579,2.28727,2.28727,0,0,1,2.35935,2.00843,2.04815,2.04815,0,0,1-.517,1.54671,2.10992,2.10992,0,0,1-1.254.73913A1.85516,1.85516,0,0,1,41.3601,132.35537Zm2.162-3.3655a.91045.91045,0,0,0-.99762-.1128,2.94933,2.94933,0,0,0-1.05489.86112,2.62522,2.62522,0,0,0-.72088,1.41673.89908.89908,0,0,0,1.07806.92464,2.476,2.476,0,0,0,1.2436-.89348,3.20764,3.20764,0,0,0,.74046-1.22682A.91308.91308,0,0,0,43.52208,128.98987Z"/>
        <path d="M45.42691,130.39728l1.73049,1.1854-.06273.09149-.08643-.05926a.73322.73322,0,0,0-.29618-.1429.28133.28133,0,0,0-.18086.04129,1.46,1.46,0,0,0-.27647.33733l-1.12441,1.6414a2.025,2.025,0,0,0-.34013.64244.68642.68642,0,0,0,.0578.39554.89121.89121,0,0,0,.32695.36557,1.02121,1.02121,0,0,0,.54735.1951.90994.90994,0,0,0,.51792-.1409,2.48582,2.48582,0,0,0,.60835-.68386l.93637-1.36706a.95965.95965,0,0,0,.17313-.35358.3403.3403,0,0,0-.02717-.21481.85172.85172,0,0,0-.275-.272l.06272-.09136,1.1593.79413-.06259.0915-.06925-.04742a.541.541,0,0,0-.27381-.104.39006.39006,0,0,0-.25277.07738,1.038,1.038,0,0,0-.22693.26236l-.872,1.273a4.00749,4.00749,0,0,1-.66215.79959,1.15231,1.15231,0,0,1-.70957.22214,1.662,1.662,0,0,1-.97392-.34386,1.89674,1.89674,0,0,1-.5929-.57679,1.198,1.198,0,0,1-.17965-.71875,1.70473,1.70473,0,0,1,.322-.75644l1.12441-1.6414a1.40935,1.40935,0,0,0,.21428-.38182.29112.29112,0,0,0-.03423-.18858.81842.81842,0,0,0-.26449-.23945Z"/>
        <path d="M48.93144,137.34522l-.0562.09549-1.831-1.07726.0562-.09562.11626.06845a.56251.56251,0,0,0,.27728.09.27285.27285,0,0,0,.17619-.06313,1.23433,1.23433,0,0,0,.21987-.3087l1.35547-2.30369a1.33738,1.33738,0,0,0,.16914-.35251.30121.30121,0,0,0-.04582-.18512.53794.53794,0,0,0-.20416-.18778l-.11613-.06845.0562-.09549,1.831,1.07727-.0562.09562-.11627-.06846a.561.561,0,0,0-.27727-.09.28531.28531,0,0,0-.17872.06166,1.22754,1.22754,0,0,0-.21988.3087l-1.35547,2.30368a1.27815,1.27815,0,0,0-.1678.35319.3079.3079,0,0,0,.047.18591.53794.53794,0,0,0,.20416.18778Z"/>
        <path d="M49.5346,137.84051l.04941-.09935.12065.06006a.54065.54065,0,0,0,.26755.07125.34077.34077,0,0,0,.19218-.07338,1.43612,1.43612,0,0,0,.19231-.326l1.19072-2.393a1.33312,1.33312,0,0,0,.144-.36344.3.3,0,0,0-.0586-.18139.5384.5384,0,0,0-.21681-.17313l-.12066-.06006.04941-.09935,1.62835.81038a2.91191,2.91191,0,0,1,.96087.69891,1.733,1.733,0,0,1,.40938,1.02373,2.3398,2.3398,0,0,1-.71955,1.76551,1.81531,1.81531,0,0,1-.58491.375,1.74556,1.74556,0,0,1-.62021.1132,2.70172,2.70172,0,0,1-.72461-.11453,3.30344,3.30344,0,0,1-.53111-.22414Zm3.09422-2.741-1.41221,2.83826a1.111,1.111,0,0,0-.11612.287.17161.17161,0,0,0,.03369.11387.49052.49052,0,0,0,.18924.14436.90707.90707,0,0,0,.83635.03449,2.32414,2.32414,0,0,0,.95994-1.12214,2.6967,2.6967,0,0,0,.33666-1.22815A1.0472,1.0472,0,0,0,53.23,135.499,1.93933,1.93933,0,0,0,52.62882,135.09947Z"/>
        <path d="M60.65909,138.09128l-.41565,1.28941-.116-.04048a1.38729,1.38729,0,0,0-.13278-.91453,1.07369,1.07369,0,0,0-.59224-.53537.68907.68907,0,0,0-.51073-.00546.49718.49718,0,0,0-.29232.29619.45654.45654,0,0,0-.01958.247,1.01857,1.01857,0,0,0,.17113.35505,6.24908,6.24908,0,0,0,.49822.54536,2.88982,2.88982,0,0,1,.68958.94249,1.11993,1.11993,0,0,1-.00319.75431,1.1534,1.1534,0,0,1-.66389.69638,1.42773,1.42773,0,0,1-1.073.014,1.62,1.62,0,0,1-.32934-.15635,2.73231,2.73231,0,0,1-.35612-.27994.64964.64964,0,0,0-.20376-.13464.293.293,0,0,0-.17539.00227.41943.41943,0,0,0-.19324.12611l-.10454-.03662.50594-1.44829.10467.03649a1.75874,1.75874,0,0,0,.15382,1.09964,1.18837,1.18837,0,0,0,.6531.58837.76039.76039,0,0,0,.5652.00386.551.551,0,0,0,.34812-.6242.88284.88284,0,0,0-.13464-.31842,3.50844,3.50844,0,0,0-.41631-.48037,4.7752,4.7752,0,0,1-.59929-.70131,1.42554,1.42554,0,0,1-.21082-.52764,1.0628,1.0628,0,0,1,.04887-.5351,1.1037,1.1037,0,0,1,.60942-.66322,1.24792,1.24792,0,0,1,.96127-.026,1.5333,1.5333,0,0,1,.34639.1718,1.91562,1.91562,0,0,1,.2798.239.80747.80747,0,0,0,.23532.18525.16008.16008,0,0,0,.13172-.00466.55262.55262,0,0,0,.15528-.19018Z"/>
        <path d="M62.109,142.74326l-.03117.10641-2.03893-.59716.03117-.10641.12944.038a.56053.56053,0,0,0,.29086.01958.27318.27318,0,0,0,.15542-.10428,1.23339,1.23339,0,0,0,.13784-.35318l.75111-2.56511a1.33734,1.33734,0,0,0,.07791-.383.29992.29992,0,0,0-.08963-.16834.539.539,0,0,0-.24385-.13224l-.12944-.038.03116-.10641,2.03893.597-.03116.10641-.12945-.03782a.56069.56069,0,0,0-.29086-.01958.28627.28627,0,0,0-.15834.10348,1.233,1.233,0,0,0-.13771.353l-.75125,2.56511a1.28218,1.28218,0,0,0-.07644.38355.30907.30907,0,0,0,.09109.16873.5384.5384,0,0,0,.24385.13225Z"/>
        <path d="M68.63662,139.87438l-.15808,1.39941-.11613-.01318a1.5009,1.5009,0,0,0-.39341-.89481,1.254,1.254,0,0,0-.77695-.38315,1.20387,1.20387,0,0,0-.71835.139,1.27451,1.27451,0,0,0-.52578.5166,2.59165,2.59165,0,0,0-.30058.97924,3.36966,3.36966,0,0,0,.02557,1.00255,1.32132,1.32132,0,0,0,.35278.72129,1.20178,1.20178,0,0,0,.73061.31323,1.48778,1.48778,0,0,0,.717-.0879,2.43046,2.43046,0,0,0,.7334-.49928l-.03942.34839a2.21693,2.21693,0,0,1-.7651.43376,2.15852,2.15852,0,0,1-.877.06232,2.48208,2.48208,0,0,1-1.11868-.3886,1.8435,1.8435,0,0,1-.69012-.83182,2.09306,2.09306,0,0,1-.15582-1.064,2.21844,2.21844,0,0,1,1.3327-1.77351,2.22529,2.22529,0,0,1,1.12347-.16261,2.49367,2.49367,0,0,1,.87843.2862,1.3906,1.3906,0,0,0,.33627.14649.22727.22727,0,0,0,.17313-.05127.38349.38349,0,0,0,.11587-.21162Z"/>
        <path d="M71.17056,139.91033a2.01636,2.01636,0,0,1,2.13842,2.1211,2.16684,2.16684,0,0,1-.48237,1.35015,2.0117,2.0117,0,0,1-1.70972.74166,2.05416,2.05416,0,0,1-1.67922-.78029,2.15115,2.15115,0,0,1-.44268-1.40341,2.02621,2.02621,0,0,1,.64884-1.49477A1.96012,1.96012,0,0,1,71.17056,139.91033Zm.03183.19258a.91567.91567,0,0,0-.86032.55055,3.04091,3.04091,0,0,0-.26622,1.33682,2.60594,2.60594,0,0,0,.33175,1.54485.83282.83282,0,0,0,.7053.36317.85575.85575,0,0,0,.51859-.13837,1.23224,1.23224,0,0,0,.4239-.60369,3.40216,3.40216,0,0,0,.17086-1.09471,3.65113,3.65113,0,0,0-.12319-1.209,1.1747,1.1747,0,0,0-.36956-.57319A.90089.90089,0,0,0,71.20239,140.10291Z"/>
        <path d="M75.12617,140.23848l.00213,1.654.08084-.00013a.64178.64178,0,0,0,.56-.24345,1.49217,1.49217,0,0,0,.22081-.71649l.11387-.00013.00279,2.12749-.11386.00014a1.59214,1.59214,0,0,0-.15209-.56907.65219.65219,0,0,0-.26848-.29778,1.0186,1.0186,0,0,0-.44362-.07591l.00147,1.14465a1.64865,1.64865,0,0,0,.029.41045.24592.24592,0,0,0,.10654.12279.49994.49994,0,0,0,.25171.04754l.24278-.00026a1.31,1.31,0,0,0,1.40394-1.06861l.11081-.00013-.18112,1.29167-3.51187.00466-.00013-.11093.13491-.00013a.56289.56289,0,0,0,.2846-.06326.27337.27337,0,0,0,.11959-.144,1.23326,1.23326,0,0,0,.03249-.37768l-.00346-2.67285a2.12077,2.12077,0,0,0-.01545-.33854.28673.28673,0,0,0-.11107-.16168.516.516,0,0,0-.31176-.0835l-.13478.00014-.00013-.11081,3.40093-.00439.00159,1.20152-.11386.00013a1.46493,1.46493,0,0,0-.245-.63192.90787.90787,0,0,0-.44534-.28114,2.41143,2.41143,0,0,0-.62926-.053Z"/>
        <path d="M81.37187,142.55349l-.11879,1.42951-3.60668.08617-.00267-.11094.13478-.0032a.56168.56168,0,0,0,.28313-.06965.27332.27332,0,0,0,.1164-.14662,1.2388,1.2388,0,0,0,.024-.37823l-.06379-2.67218a1.33511,1.33511,0,0,0-.04235-.38861.30014.30014,0,0,0-.13651-.13317.53922.53922,0,0,0-.27248-.05194l-.13477.00333-.00267-.11094,2.16585-.05167.00267.1108-.17673.00426a.56276.56276,0,0,0-.28313.06965.2873.2873,0,0,0-.11946.14676,1.23534,1.23534,0,0,0-.02384.37822l.06166,2.58829a1.31615,1.31615,0,0,0,.04541.39606.23889.23889,0,0,0,.14383.12386,1.42756,1.42756,0,0,0,.36318.01838l.33853-.00813a1.14535,1.14535,0,0,0,.53643-.12665,1.00656,1.00656,0,0,0,.36438-.36836,2.90941,2.90941,0,0,0,.28073-.73207Z"/>
        <path d="M81.522,139.98531l2.085-.22933.01212.11027-.10428.01146a.73493.73493,0,0,0-.31775.0847.28063.28063,0,0,0-.11014.14929,1.45349,1.45349,0,0,0,.01025.43588l.21735,1.97781a2.02456,2.02456,0,0,0,.16087.70876.68734.68734,0,0,0,.30165.26236.89182.89182,0,0,0,.48636.06406,1.0223,1.0223,0,0,0,.54229-.20883.9102.9102,0,0,0,.30071-.44454,2.48346,2.48346,0,0,0,.01545-.91519l-.181-1.64712a.96143.96143,0,0,0-.09922-.38089.34014.34014,0,0,0-.16061-.14516.85139.85139,0,0,0-.38581-.0269l-.01212-.11027,1.39689-.15355.01211.11027-.08336.00905a.54175.54175,0,0,0-.27541.09962.39089.39089,0,0,0-.1413.2236,1.0366,1.0366,0,0,0-.00107.34679l.16874,1.53393a4.01245,4.01245,0,0,1,.019,1.03784,1.15209,1.15209,0,0,1-.39327.63113,1.66162,1.66162,0,0,1-.96273.37409,1.89647,1.89647,0,0,1-.82556-.05088,1.197,1.197,0,0,1-.60476-.42789,1.702,1.702,0,0,1-.2489-.78348l-.21748-1.9778a1.409,1.409,0,0,0-.0863-.42909.2921.2921,0,0,0-.14889-.12079.8202.8202,0,0,0-.35678-.00906Z"/>
        <path d="M89.07386,141.17857l.29858-2.8814,1.58627-.46865.03143.10641-.12639.03729a.56943.56943,0,0,0-.25809.14183.29251.29251,0,0,0-.075.169,1.216,1.216,0,0,0,.07444.36863l.759,2.569a1.33627,1.33627,0,0,0,.142.36437.299.299,0,0,0,.16794.09242.546.546,0,0,0,.27807-.02117l.12638-.03729.03143.10627-2.03453.601-.03143-.10628.12638-.03742a.56871.56871,0,0,0,.2581-.14183.29155.29155,0,0,0,.07418-.17193,1.23338,1.23338,0,0,0-.07538-.3713l-.85313-2.8882-.44414,3.99623-.069.02037-2.55978-3.08063.81065,2.74436a2.51256,2.51256,0,0,0,.11879.34919.42672.42672,0,0,0,.23159.18632.70452.70452,0,0,0,.419-.02531l.03142.10628-1.33336.39393-.03143-.10641.04022-.01185a.63535.63535,0,0,0,.22907-.11293.40655.40655,0,0,0,.13437-.1694.57169.57169,0,0,0,.027-.23612q-.0036-.03316-.08084-.29472l-.72834-2.46563a1.301,1.301,0,0,0-.14077-.36.301.301,0,0,0-.1674-.09109.54748.54748,0,0,0-.27808.02118l-.12358.03649-.03143-.10628,1.592-.47038Z"/>
        <path d="M96.12568,138.0721l.47771,1.03358a1.25552,1.25552,0,0,0,.21082.35971.29569.29569,0,0,0,.18644.06406.9559.9559,0,0,0,.36677-.11347l.04648.10068-1.88764.87244-.04648-.10055a.93393.93393,0,0,0,.32482-.20788.30553.30553,0,0,0,.07058-.18285,1.242,1.242,0,0,0-.13677-.39234l-1.1063-2.39358a1.257,1.257,0,0,0-.21082-.35984.29645.29645,0,0,0-.18644-.06406.96081.96081,0,0,0-.36677.11346l-.04648-.10068,1.71358-.792a4.12324,4.12324,0,0,1,1.02186-.36011,1.08717,1.08717,0,0,1,.66375.10761,1.00822,1.00822,0,0,1,.46545.49289.96.96,0,0,1,.018.81038,1.337,1.337,0,0,1-.40792.49554l1.46375.83862a2.07187,2.07187,0,0,0,.387.18751.50755.50755,0,0,0,.30111-.0269l.04661.10054-1.16143.53684-1.96568-1.13147Zm-.83608-1.8088.74686,1.61569.155-.07178a1.9058,1.9058,0,0,0,.53364-.33081.62125.62125,0,0,0,.17952-.38661,1.00995,1.00995,0,0,0-.11067-.52152.78909.78909,0,0,0-1.21323-.43948Z"/>
        <path d="M97.75736,134.87534l1.82611-1.03186.05447.09656-.09122.05154a.73465.73465,0,0,0-.25876.203.28114.28114,0,0,0-.04249.18058,1.46321,1.46321,0,0,0,.18112.39674l.97885,1.73222a2.02722,2.02722,0,0,0,.427.58824.68676.68676,0,0,0,.38062.12226.89209.89209,0,0,0,.47224-.13265,1.02168,1.02168,0,0,0,.41618-.40565.91007.91007,0,0,0,.10148-.527,2.48634,2.48634,0,0,0-.34626-.84727l-.81517-1.4427a.96011.96011,0,0,0-.24132-.3111.3407.3407,0,0,0-.20482-.07.85072.85072,0,0,0-.36517.12719l-.0546-.09656,1.22362-.69132.05447.09642-.073.04129a.5425.5425,0,0,0-.214.2.39087.39087,0,0,0-.04169.26116,1.03531,1.03531,0,0,0,.13557.31922l.75924,1.34348a4.00645,4.00645,0,0,1,.4263.94649,1.15347,1.15347,0,0,1-.11293.735,1.66246,1.66246,0,0,1-.73753.723,1.89717,1.89717,0,0,1-.77882.27834,1.19739,1.19739,0,0,1-.72448-.15515,1.70159,1.70159,0,0,1-.53736-.62206l-.97885-1.73223a1.41061,1.41061,0,0,0-.24838-.36051.29211.29211,0,0,0-.18444-.05234.8212.8212,0,0,0-.33148.13225Z"/>
        <path d="M105.1324,133.79234l-1.1846.81038.0823.423a.87875.87875,0,0,0,.1152.31683.27141.27141,0,0,0,.25583.13,1.15981,1.15981,0,0,0,.36956-.16567l.0626.09149-1.11535.7631-.0626-.09149a.60505.60505,0,0,0,.19444-.35265,2.4115,2.4115,0,0,0-.05913-.70211l-.63126-3.49641.04688-.0321,3.09089,1.92267a2.02719,2.02719,0,0,0,.62114.29752.4707.4707,0,0,0,.29831-.07338l.06259.09149-1.62235,1.10989-.06259-.09149.06672-.04568a.61535.61535,0,0,0,.23732-.24225.15985.15985,0,0,0-.02344-.15089.36432.36432,0,0,0-.07738-.08137q-.02037-.019-.20109-.13477Zm-.20935-.12558-1.28968-.813.27567,1.50676Z"/>
        <path d="M107.57938,128.23183l.69439.85273-.08364.068a1.73758,1.73758,0,0,0-.5102-.28952.8202.8202,0,0,0-.41617-.0032,1.028,1.028,0,0,0-.34307.20989l-.23465.19111,1.9794,2.4302a1.279,1.279,0,0,0,.27274.2802.30812.30812,0,0,0,.19071.02064.54635.54635,0,0,0,.24944-.12785l.10454-.08523.07.086-1.64952,1.34362-.07005-.086.10454-.0851a.562.562,0,0,0,.181-.22867.286.286,0,0,0,.0044-.18911,1.2332,1.2332,0,0,0-.21282-.31349l-1.9794-2.43021-.22773.18552a.85364.85364,0,0,0-.35265.51126,1.14941,1.14941,0,0,0,.18165.74486l-.0883.07191-.69451-.85272Z"/>
      </g>
      <path class="cls-17" d="M68.81811,96.20642a1.94136,1.94136,0,0,1,1.16024-1.26113,3.54469,3.54469,0,0,1,.85757-3.27894c1.41246-1.71513,2.32048-1.96736,2.77448-1.86647,0,0,1.46291-.85757,1.31158-1.66469a1.19275,1.19275,0,0,0-1.362-.95846,1.73672,1.73672,0,0,1-2.27-1.21068,1.90056,1.90056,0,0,1-2.27-.35312l.50445-.15134a1.35627,1.35627,0,0,0,1.31158.30267,2.85122,2.85122,0,0,1,1.51335.1009s-.30267-.5549-.75667-.60535a2.70776,2.70776,0,0,0-1.362.10089s.1009-1.96736,1.91692-1.86647c0,0,.05045-.30267,1.00891-.20178,0,0,.15133-.65579,2.06825-.20178A3.63859,3.63859,0,0,1,77.74691,85.058a1.55309,1.55309,0,0,0,1.26113.15134.83384.83384,0,0,1-.95846.75668,1.96845,1.96845,0,0,1,.908,1.41246,9.62636,9.62636,0,0,1,0,2.21959.91954.91954,0,0,0,1.10979,1.0089,1.12048,1.12048,0,0,1-1.76558-.10089s-.25223,2.16915,1.10979,2.62315a2.09376,2.09376,0,0,1-1.86647-.55489,2.13751,2.13751,0,0,0-.15134,1.51335,1.48515,1.48515,0,0,1,1.362,1.00891,4.63222,4.63222,0,0,1,.454,1.362s3.1276.30267,3.22849-1.362-.95845-2.724-1.16024-3.98517a3.27277,3.27277,0,0,1,.80713-3.27894c1.05935-1.16024,6.10387-5.34719,5.75075-10.79528a5.14982,5.14982,0,0,1,.5549,5.3472s4.84274-6.003,3.88428-10.0386a4.8125,4.8125,0,0,1,1.21068,4.187,12.611,12.611,0,0,1-1.61424,4.59052s1.91692-1.41247,2.21959-2.47182c0,0,.20178,3.63206-2.01781,5.75075a5.99377,5.99377,0,0,0,2.27-1.66469s-.35311,3.43028-2.62315,5.14541a7.89315,7.89315,0,0,0,3.178-2.0178s-.70623,4.33828-3.78339,5.80119c0,0,2.92582.50446,4.03562-.60534a12.19732,12.19732,0,0,1-2.82494,3.07716,6.25278,6.25278,0,0,1-2.52226.75668,4.08947,4.08947,0,0,0,3.43028-.35312s-.5549,2.27-1.71514,2.92582-3.88428.40356-3.88428.40356.85757,1.31158,3.43027.50446a1.96731,1.96731,0,0,1-.20178,2.0178s1.76559-.15133,2.16915-1.46291a23.50982,23.50982,0,0,0,.60534-2.42137,21.03515,21.03515,0,0,1,.5549,3.2285.93768.93768,0,0,1-.85757,1.0089s1.91692,1.10979,3.178.10089c0,0,.30267,1.5638-1.71514,1.71514a5.23744,5.23744,0,0,0,2.62315-.25223,3.33251,3.33251,0,0,1-2.01781,1.21069c-1.16024.10089-1.61424-.30267-3.1276.65578,0,0,2.724.35312,3.93473-.40356,0,0-2.62316,3.6825-5.549,3.32939a7.51823,7.51823,0,0,1,1.96737,1.0089,3.92154,3.92154,0,0,0,2.16914.75668,2.4773,2.4773,0,0,1-2.52226.65579,1.29445,1.29445,0,0,0,.75668,1.816,2.46451,2.46451,0,0,1-1.76558.30267,1.34251,1.34251,0,0,1,.15133,1.46292s-.85757-1.16024-1.5638-1.00891a2.55941,2.55941,0,0,0,.40356,1.5638s-1.0089.15134-1.46291-.30267a2.01988,2.01988,0,0,1-.30267,1.816s-.70623-1.5638-1.66469-1.91692c0,0,1.41246,2.37093-1.1098,3.1276a1.39016,1.39016,0,0,0-.05044-1.5638,2.32325,2.32325,0,0,1-2.06826,1.96737s.5549-1.16024-.15133-1.76559a2.948,2.948,0,0,0-1.816-.55489s.5549,1.05935-.80712,2.62315c0,0-.10089-1.00891-.60534-1.31158,0,0-2.37093.35312-2.82494-1.46291a1.05274,1.05274,0,0,0,.05045,1.41247c.65579.70623,1.5638,1.05935,1.362,2.52226,0,0-.50445-1.86648-1.71514-1.71514a2.08755,2.08755,0,0,1-2.16914-1.0089s.10089.454-1.16024.75667a2.48332,2.48332,0,0,0-1.86647,1.71514,3.29616,3.29616,0,0,1,0-1.66469,8.90279,8.90279,0,0,1,.70623-1.51336s-2.16914,2.52226-4.38873.75668l.50445-.454s-2.42137-.10089-3.32938,1.61425c0,0-.75668-1.76558,1.5638-2.97627a12.734,12.734,0,0,1-2.42137.10089,2.45049,2.45049,0,0,0-2.16915.75668,2.155,2.155,0,0,1,1.21069-2.16914,4.52528,4.52528,0,0,1-2.62315-.20178,2.1015,2.1015,0,0,0-1.76558.30267s.35311-1.00891.85756-1.16024a3.13691,3.13691,0,0,1-2.52226-.60534,3.29235,3.29235,0,0,0,1.61425-.15134,3.4613,3.4613,0,0,1-2.42137-1.41247c-.65579-1.21068-.85757-2.21958-1.16024-2.67359a2.5274,2.5274,0,0,1,1.51336.65579c.75667.65578,1.51335,1.66469,2.47181,1.5638,0,0-.60534-.30267-.908-1.816a3.91089,3.91089,0,0,0,2.21959,1.05935c1.51335.25223,3.53116-.60534,3.37983-1.05935s-3.88429-1.10979-5.24631-.908a3.25766,3.25766,0,0,1-3.1276-1.31158,2.51545,2.51545,0,0,0-3.32938-1.31157s.60534-1.21069,1.5638-1.362,2.42137.908,3.1276,1.26113a4.085,4.085,0,0,0,1.96737.15133,3.89861,3.89861,0,0,1-1.816-1.10979,7.7706,7.7706,0,0,1-1.16024-1.76559,5.985,5.985,0,0,0,1.51335,1.41247c.60535.25223,2.01781.35312,2.16915.50445a5.41717,5.41717,0,0,1-2.16915-2.5727A7.07581,7.07581,0,0,0,54.7439,96.4082a3.08838,3.08838,0,0,1,2.724,1.21069c1.21068,1.46291,2.37092,2.82493,3.73294,2.87537a1.97824,1.97824,0,0,1-.80712-1.26113,7.35587,7.35587,0,0,0,2.06825.85757c.908.15134,1.6647.10089,2.1187.25223a3.0997,3.0997,0,0,0-.908-1.00891c-.5549-.35311-3.98517.25223-5.8012-2.32047,0,0,1.86647-.15134,2.1187-.15134,0,0-3.43028-.95846-4.08606-3.43027a8.98775,8.98775,0,0,0,3.43027.30267s-4.28784-1.91692-4.48962-5.04452a13.37311,13.37311,0,0,0,4.48962,2.0178s-4.28784-2.82493-3.6825-6.30565a14.34909,14.34909,0,0,0,2.87538,2.47182s-2.42137-2.77449-1.66469-5.95253a5.17646,5.17646,0,0,0,1.362,1.66469s-1.51336-2.37093-1.00891-4.43918l1.41247,1.61425s-1.86647-5.549.75668-8.52524c0,0,.30267,7.06232,2.62315,9.02969a12.30955,12.30955,0,0,1,.85757-2.06826,11.19538,11.19538,0,0,0,2.27,5.85165c2.16914,2.82493,3.07716,3.73294,3.32938,4.79229a9.7765,9.7765,0,0,1-.75668,4.38874C67.3552,93.78505,66.90119,95.85331,68.81811,96.20642Z"/>
      <path class="cls-18" d="M94.79739,108.86816a3.92157,3.92157,0,0,1-2.16915-.75667,7.5174,7.5174,0,0,0-1.96735-1.0089c2.92578.35311,5.549-3.3294,5.549-3.3294-1.21066.75669-3.93475.40357-3.93475.40357,1.51337-.95845,1.96741-.55489,3.12765-.6558a3.33223,3.33223,0,0,0,2.01776-1.21067,5.23734,5.23734,0,0,1-2.62313.25223c2.01783-.15134,1.71512-1.71514,1.71512-1.71514-1.26114,1.0089-3.178-.1009-3.178-.1009a.93765.93765,0,0,0,.85752-1.00889,21.03618,21.03618,0,0,0-.55487-3.2285,23.51509,23.51509,0,0,1-.60537,2.42137,2.18771,2.18771,0,0,1-1.58053,1.34324,2.54844,2.54844,0,0,1-1.34531.32145,5.99585,5.99585,0,0,0-4.03559,1.05935c.454-.80712,3.88427-1.41246,3.88427-1.41246a6.225,6.225,0,0,0-3.3294-.454,6.572,6.572,0,0,0-2.50535.79907,7.79788,7.79788,0,0,0,1.29469-2.1611,3.71689,3.71689,0,0,1-2.11867,1.31159c-1.463.35311-2.47186.60533-2.47186.60533a7.41572,7.41572,0,0,0,1.8665-3.37981c-.908,1.362-3.93469,2.4718-3.93469,2.4718a1.98719,1.98719,0,0,0,.15132-1.362,12.4689,12.4689,0,0,0-1.96741,2.0178,12.70284,12.70284,0,0,1,.30271-2.724c-3.93475,2.57271-2.4718,6.20476-2.4718,6.20476-2.371-3.63205-.15139-9.88725-.15139-9.88725-3.48072,3.43026-2.92577,6.8101-2.92577,6.8101a16.21086,16.21086,0,0,0-1.51338-2.87538A3.56556,3.56556,0,0,0,67.65784,96.61a17.59605,17.59605,0,0,1,1.16024,2.62316,6.21666,6.21666,0,0,1-2.52222-.10091c-1.05934-.3531-2.724-2.42135-2.724-2.42135a10.40718,10.40718,0,0,0,.75668,2.87536s-.14251-.01393-.38265-.04249a3.35774,3.35774,0,0,1,.63482.79917c-.454-.15132-1.21066-.10088-2.11867-.25222a7.356,7.356,0,0,1-2.06825-.85756,1.97842,1.97842,0,0,0,.8071,1.26113c-1.362-.05044-2.52222-1.41247-3.73294-2.87538a3.08832,3.08832,0,0,0-2.724-1.21069,7.07553,7.07553,0,0,1,2.97627,3.53117,5.70151,5.70151,0,0,0,2.04773,2.515c-.389-.12288-1.52219-.22778-2.04773-.44674a5.98531,5.98531,0,0,1-1.51331-1.41247,7.77008,7.77008,0,0,0,1.16024,1.76557,3.89825,3.89825,0,0,0,1.816,1.10981,4.08493,4.08493,0,0,1-1.96741-.15134c-.70621-.35311-2.16909-1.41247-3.12759-1.26112-.95843.15133-1.56379,1.362-1.56379,1.362a2.51545,2.51545,0,0,1,3.32939,1.31156,3.25756,3.25756,0,0,0,3.12759,1.31158c1.362-.20179,5.095.454,5.24632.908s-1.86651,1.31158-3.37982,1.05935a3.91107,3.91107,0,0,1-2.21963-1.05935c.30271,1.51335.908,1.816.908,1.816-.95843.10088-1.71512-.908-2.47181-1.56381a2.52732,2.52732,0,0,0-1.51331-.65579c.30265.454.5044,1.46292,1.16024,2.67361a3.46123,3.46123,0,0,0,2.42132,1.41247,3.292,3.292,0,0,1-1.61421.15132,3.13679,3.13679,0,0,0,2.52222.60533c-.50445.15136-.85752,1.16024-.85752,1.16024a2.10141,2.10141,0,0,1,1.76554-.30265,4.5255,4.5255,0,0,0,2.62319.20178,2.155,2.155,0,0,0-1.21073,2.16912,2.45056,2.45056,0,0,1,2.16916-.75665,12.735,12.735,0,0,0,2.42138-.10091c-2.32048,1.2107-1.56379,2.9763-1.56379,2.9763.908-1.71515,3.32939-1.61428,3.32939-1.61428l-.50445.454c2.21957,1.76557,4.38873-.75669,4.38873-.75669a8.90291,8.90291,0,0,0-.70627,1.51334,3.29619,3.29619,0,0,0,0,1.6647,2.48341,2.48341,0,0,1,1.86651-1.71515c1.26108-.30265,1.16024-.75666,1.16024-.75666a2.0875,2.0875,0,0,0,2.16915,1.00889c1.21066-.15133,1.71512,1.71515,1.71512,1.71515.20174-1.46292-.70627-1.816-1.362-2.52226a1.05274,1.05274,0,0,1-.05042-1.41247c.454,1.816,2.82494,1.46289,2.82494,1.46289.50445.30268.6053,1.3116.6053,1.3116,1.362-1.5638.80716-2.62316.80716-2.62316a2.94816,2.94816,0,0,1,1.816.55491c.7062.60533.15132,1.76557.15132,1.76557a2.32323,2.32323,0,0,0,2.06825-1.96735,1.39022,1.39022,0,0,1,.05049,1.56379c2.52222-.75668,1.10975-3.12758,1.10975-3.12758.95843.3531,1.6647,1.91689,1.6647,1.91689a2.01985,2.01985,0,0,0,.30265-1.816c.454.454,1.46295.30268,1.46295.30268a2.55914,2.55914,0,0,1-.40355-1.56379c.7062-.15136,1.56379,1.00888,1.56379,1.00888a1.3424,1.3424,0,0,0-.15139-1.46292,2.46454,2.46454,0,0,0,1.7656-.30265,1.29449,1.29449,0,0,1-.75668-1.816A2.47733,2.47733,0,0,0,94.79739,108.86816Z"/>
      <g>
        <path class="cls-19" d="M74.56886,107.607s.70624-.75668,0-2.21959-1.5638-2.97627-1.5638-3.6825c0,0-.25222,3.43027.25223,4.187S74.56886,107.607,74.56886,107.607Z"/>
        <path class="cls-19" d="M72.65194,106.64858a3.312,3.312,0,0,1-.908-2.21959,14.4747,14.4747,0,0,0-.454-3.22849,16.84071,16.84071,0,0,0-.35311,3.37983l-.85757-.95846-2.52226-3.178s1.71514,2.21959,1.76558,3.32938.60534,2.16915.95846,2.27S72.65194,106.64858,72.65194,106.64858Z"/>
        <path class="cls-19" d="M68.3641,104.47944a27.72808,27.72808,0,0,0-2.27-3.12761c-.40356-.25222-1.86647.05045-3.32939,0a10.25555,10.25555,0,0,1-3.27893-.908,4.94342,4.94342,0,0,0,2.77448,1.71514,23.01221,23.01221,0,0,0,3.37983-.25223,6.96569,6.96569,0,0,1,.65579,1.10979,8.80672,8.80672,0,0,0-2.47182-.15133s.454-.15134,1.91692.60534A11.81479,11.81479,0,0,0,68.3641,104.47944Z"/>
        <path class="cls-19" d="M69.07034,106.04324a11.34338,11.34338,0,0,0-2.52226-1.41247c-.75668-.15133-3.53117-.908-4.54007-.5549a12.31219,12.31219,0,0,1-4.38874.20178c-.15133-.20178,1.26113,1.362,2.724,1.16024a9.08606,9.08606,0,0,0,2.42137-.65578l-.60534.75667a3.53091,3.53091,0,0,0,2.16915-.15133C65.64006,104.93344,69.07034,106.04324,69.07034,106.04324Z"/>
        <path class="cls-19" d="M60.29287,108.61594a9.411,9.411,0,0,0,3.6825.15134,5.3339,5.3339,0,0,0,2.27-2.06826,8.30174,8.30174,0,0,1-.50445,1.46292,4.43706,4.43706,0,0,1,2.37093-1.21069c1.71513-.40356,4.54006.80712,4.54006.80712s-4.38873-.50445-4.94363.10089A14.31589,14.31589,0,0,1,65.741,109.5744a5.165,5.165,0,0,1-5.59942-.05044,20.28056,20.28056,0,0,0,3.93473,0S61.04955,109.27173,60.29287,108.61594Z"/>
        <path class="cls-19" d="M62.71424,111.39043s3.27894-.35312,3.88428-.95846,2.27-2.37092,3.43027-2.42137a9.10269,9.10269,0,0,1,2.21959.20178l-2.06825,1.46291S66.04362,112.19755,62.71424,111.39043Z"/>
        <path class="cls-19" d="M68.31366,111.99577s3.178-1.0089,4.1365-3.22849c0,0,.35312.30267-.10089,1.10979,0,0,.80713.05045,1.31158-1.10979C73.66085,108.76728,74.11486,112.04622,68.31366,111.99577Z"/>
        <path class="cls-19" d="M63.77359,113.55957a3.264,3.264,0,0,1,1.91692-.95846,8.85016,8.85016,0,0,1,2.67359.20178Z"/>
        <path class="cls-19" d="M65.7914,115.77916a2.6479,2.6479,0,0,1,1.51335-1.86647c1.21069-.40356,3.733-.70623,4.54007-1.5638,0,0-.50445,1.61424-1.10979,1.71513S67.00208,114.01358,65.7914,115.77916Z"/>
        <path class="cls-19" d="M69.373,115.3756s2.37092-1.05935,2.82493-2.01781c0,0-.60534,2.01781-1.5638,2.27S69.373,115.3756,69.373,115.3756Z"/>
        <path class="cls-19" d="M75.7291,110.02841s-1.61424,2.32048-.50445,4.28784c0,0-1.31158-1.61425-1.21068-2.37092S75.7291,110.02841,75.7291,110.02841Z"/>
        <path class="cls-19" d="M77.04068,109.67529a6.77836,6.77836,0,0,0-1.362,2.47182,10.70975,10.70975,0,0,0,.95846,3.32938l.15133-2.37092S77.49468,110.73464,77.04068,109.67529Z"/>
        <path class="cls-19" d="M77.54513,109.5744s1.816.80712,1.816,1.5638-.10089,1.96737-.10089,1.96737l1.46291,2.37092a7.08259,7.08259,0,0,1-1.91692-1.362,3.92986,3.92986,0,0,1-.908-2.77449A3.70678,3.70678,0,0,0,77.54513,109.5744Z"/>
        <path class="cls-19" d="M79.008,108.61594s.454,2.6736,2.01781,3.178A4.03362,4.03362,0,0,0,79.008,108.61594Z"/>
        <path class="cls-19" d="M80.01694,100.39337a7.3731,7.3731,0,0,0-2.32047,5.44809l1.46291-2.1187A10.57612,10.57612,0,0,1,80.01694,100.39337Z"/>
        <path class="cls-19" d="M80.57184,102.56252s-.50445,3.58161-1.86647,3.88428l.20178-1.21069Z"/>
        <path class="cls-19" d="M81.78253,101.75539a4.6191,4.6191,0,0,1-.05045,3.178,7.95,7.95,0,0,1-2.87538,2.32048S81.47986,103.62187,81.78253,101.75539Z"/>
        <path class="cls-19" d="M84.60746,100.74649s-1.46291.25223-1.71514.908a.67931.67931,0,0,0,.35312.908A4.4573,4.4573,0,0,1,84.60746,100.74649Z"/>
        <path class="cls-19" d="M84.557,102.56252a10.70028,10.70028,0,0,1-1.61424,3.27894,5.56416,5.56416,0,0,0,2.67359-2.1187s-2.67359,4.23739-4.1365,4.74185a1.39993,1.39993,0,0,1-1.91692-.60535,4.837,4.837,0,0,0,2.37092-1.26113c.60534-.85756-.20178-.70623-.20178-.70623S83.90123,103.16786,84.557,102.56252Z"/>
        <path class="cls-19" d="M89.29886,102.05807a4.42009,4.42009,0,0,0-2.52226,1.51335c-.75668,1.16024-2.62315,3.37983-2.62315,3.37983a14.65408,14.65408,0,0,1,2.32048-1.76558C87.18016,104.883,89.29886,102.05807,89.29886,102.05807Z"/>
        <path class="cls-19" d="M87.281,105.58923s2.16915-2.21959,2.6736-2.92582a2.40116,2.40116,0,0,1,2.06825-1.31158c1.21069-.10089,2.32048,1.26113,2.57271,1.41247a6.1791,6.1791,0,0,0,.85757.35312,12.72287,12.72287,0,0,0-3.02672-.80713A51.45006,51.45006,0,0,0,87.281,105.58923Z"/>
        <path class="cls-19" d="M89.14753,105.18567s1.96736-2.1187,3.53116-2.27l-1.0089,1.21069Z"/>
        <path class="cls-19" d="M89.652,106.39635s3.27894.20178,4.33829-1.0089A6.19857,6.19857,0,0,0,89.652,106.39635Z"/>
        <path class="cls-19" d="M84.808,107.92018a6.8858,6.8858,0,0,1,3.43051-.81922,6.23764,6.23764,0,0,1,3.27691,1.89446l.2048.92163s-2.09927-1.79206-2.76489-1.68966-2.76489.30721-2.76489.30721,3.37931.66563,3.58412,1.22884a10.47737,10.47737,0,0,0,1.12644,2.50889c.30721.2048-1.28005-2.35528-2.50889-2.35528s-4.24974.0512-5.68338-.768C82.70874,109.149,84.5008,108.68821,84.808,107.92018Z"/>
        <path class="cls-19" d="M80.14865,108.99542a6.72527,6.72527,0,0,1,3.43052,1.43365,5.4281,5.4281,0,0,0,3.0721,1.84326A3.4329,3.4329,0,0,1,88.44332,113.45l-3.58411-1.53605.1024,2.25288a13.5568,13.5568,0,0,0-2.66249-3.22571A13.40392,13.40392,0,0,1,80.14865,108.99542Z"/>
      </g>
      <path class="cls-20" d="M87.38194,82.68711s-3.83383,5.71712-4.43917,6.38972-.47083,1.14343.20178,3.02672-.94165,7.19684-.94165,7.19684a4.024,4.024,0,0,0,2.15233-1.41246,2.01959,2.01959,0,0,0,1.74877.40356s.13452-2.21959-.40356-2.62315a12.831,12.831,0,0,0,3.094-.40356,20.47084,20.47084,0,0,0-2.82493-2.42137S89.198,92.64163,90.13962,91.7a4.26759,4.26759,0,0,0-2.95946-1.07616,7.44518,7.44518,0,0,0,3.29576-4.37192s-2.28685,1.88329-3.43028,2.01781c0,0,3.363-2.75767,3.83384-5.5826L87.651,85.17574S88.39085,83.35971,87.38194,82.68711Z"/>
      <path class="cls-20" d="M62.49564,81.81272s3.83384,5.71713,4.43918,6.38973.47082,1.14342-.20178,3.02671.94164,7.19685.94164,7.19685a4.024,4.024,0,0,1-2.15232-1.41246,2.0196,2.0196,0,0,1-1.74877.40356s-.13452-2.21959.40356-2.62315a12.83059,12.83059,0,0,1-3.094-.40357A20.47154,20.47154,0,0,1,63.90811,91.969s-3.22849-.20178-4.17014-1.14342a4.26758,4.26758,0,0,1,2.95945-1.07616,7.44514,7.44514,0,0,1-3.29575-4.37192s2.28685,1.88329,3.43028,2.01781c0,0-3.363-2.75767-3.83384-5.58261l3.22849,2.48863S61.48674,82.48533,62.49564,81.81272Z"/>
      <path class="cls-21" d="M71.57578,92.57437s-.94164.20178-.60534,1.61424S73.19,95.53382,73.19,95.53382l-.47082-1.07617S71.57578,93.247,71.57578,92.57437Z"/>
      <path class="cls-21" d="M73.39181,90.422s-1.547.94164-1.278,1.68151l.94165.13452S72.71921,91.02738,73.39181,90.422Z"/>
      <path class="cls-21" d="M73.86263,91.90176a4.79959,4.79959,0,0,0-.40356,2.15233,1.62139,1.62139,0,0,0,.80712-.87438C74.468,92.57437,73.86263,91.90176,73.86263,91.90176Z"/>
      <path class="cls-21" d="M70.76866,95.46656a4.66846,4.66846,0,0,0-.06726,2.48863,2.42855,2.42855,0,0,0,1.41246,1.07616l.20178-2.35411S71.0377,96.0719,70.76866,95.46656Z"/>
      <path class="cls-21" d="M76.553,95.26478a5.9308,5.9308,0,0,0,.53808,1.816c.269.20178,1.47973-.53809,1.47973-.53809S76.6203,95.66834,76.553,95.26478Z"/>
      <path class="cls-21" d="M77.15838,89.8167a10.05594,10.05594,0,0,1-.06726,1.95054c-.13452.269-1.0089,1.34521-1.0089,1.34521s.47082-1.816.20178-2.28685S77.15838,89.8167,77.15838,89.8167Z"/>
      <path class="cls-21" d="M76.75482,87.059a6.13267,6.13267,0,0,1,.80712,1.74876c0,.47082.73987-.269.73987-.269l-.269-2.15233s-1.47973-.94164-1.278-.94164,1.00891,1.74877.80712,1.74877A6.51059,6.51059,0,0,1,76.75482,87.059Z"/>
      <path class="cls-21" d="M71.7103,83.83053s1.00891-.20178.6726.40356l-.3363.60535,1.47973.06726,1.88329,1.21068-.20178-1.0089,1.3452.13452s-1.14342-1.34521-1.95055-1.34521h-1.547l-.13452-.53808A1.03519,1.03519,0,0,0,71.7103,83.83053Z"/>
    </g>
  </g>
</svg>
