<svg xmlns="http://www.w3.org/2000/svg" width="150" height="150" viewBox="0 0 150 150">
  <defs>
    <style>
      .cls-1 {
        fill: #b82323;
      }

      .cls-2 {
        fill: #0f2342;
      }

      .cls-3 {
        fill: #eee;
      }
    </style>
  </defs>
  <g id="Layer_3" data-name="Layer 3">
    <g>
      <polygon class="cls-1" points="9.913 3.335 18.891 24.695 18.891 103.016 74.923 146.665 75.077 146.665 131.109 103.016 131.109 24.695 140.087 3.335 9.913 3.335"/>
      <polygon class="cls-2" points="70.856 22.064 29.571 22.064 36.139 32.899 36.139 95.432 74.922 128.091 75.078 128.091 113.861 95.432 113.861 32.899 120.429 22.064 79.144 22.064 70.856 22.064"/>
      <path class="cls-3" d="M70.24037,54.95538s-4.75963,2.90222-6.501,6.73314a9.27948,9.27948,0,0,0,5.45616,12.53756c6.26878,2.32177,15.67195,1.85741,17.99372-3.36657s-3.947-14.395-3.947-14.395,8.49212-.25756,11.95712,6.1527c2.32177,4.29527,1.74133,9.63534-4.99181,12.0732S73.49085,78.40526,64.552,74.57434,54.22016,63.77811,56.42584,60.52763s4.64354-5.80442,7.31357-6.501S70.24037,54.95538,70.24037,54.95538Z"/>
      <path class="cls-3" d="M74.41956,57.8576a7.75827,7.75827,0,0,0-4.29528,2.55394,5.11721,5.11721,0,0,0-.69653,4.17919s-2.554-2.90221-1.39306-5.34007S73.83911,57.50933,74.41956,57.8576Z"/>
      <path class="cls-3" d="M71.9817,69.46645s.81262,2.90221,6.73313,2.32177,4.29528-6.617,3.59875-8.01011c0,0-.23218,4.75963-4.0631,5.68834A11.40672,11.40672,0,0,1,71.9817,69.46645Z"/>
      <path class="cls-3" d="M40.52171,69.9308s2.43786-1.62524,3.59875-1.50915a4.96155,4.96155,0,0,1,2.20568.92871s12.297,12.57115,29.60257,13.46627c13.46626.69653,27.2808-11.1445,27.2808-11.1445s1.277-2.32177,3.71483-.23218c0,0,.92871-.58044-.23218-1.74133s-3.71483-.46435-4.64354.46436c0,0-13.81453,10.0997-27.16471,9.75143S46.32614,66.9125,46.32614,66.9125a4.19347,4.19347,0,0,0-3.48266-.34826C40.98607,67.26077,40.40562,68.30556,40.52171,69.9308Z"/>
      <path class="cls-3" d="M41.10216,60.992S40.87,64.24246,43.54,64.70682a3.91656,3.91656,0,0,0,3.947-1.50915s11.841-14.97542,26.00383-14.62715,27.39689,14.16279,27.39689,14.16279l4.06309,3.83093a3.99193,3.99193,0,0,0,2.0896,0,21.851,21.851,0,0,0,2.90221-3.13439s-3.59874-.81262-4.41136-1.62524S94.1546,45.78439,75.11609,43.81089a29.4,29.4,0,0,0-21.012,9.0549l-7.54575,7.54575a2.93312,2.93312,0,0,1-1.97351.69654,10.9937,10.9937,0,0,1-2.90221-1.16089Z"/>
    </g>
  </g>
</svg>
