<svg xmlns="http://www.w3.org/2000/svg" width="150" height="150" viewBox="0 0 150 150">
  <defs>
    <style>
      .cls-1 {
        fill: #3c5389;
      }

      .cls-2 {
        fill: #2f416b;
      }

      .cls-3 {
        fill: #e5e5e5;
      }

      .cls-4 {
        fill: #c1272d;
      }

      .cls-5 {
        fill: #fff;
      }

      .cls-6 {
        fill: #e85863;
      }

      .cls-7 {
        fill: #1a1a1a;
      }

      .cls-8 {
        fill: #2e2e2e;
      }

      .cls-9 {
        fill: #edc054;
      }
    </style>
  </defs>
  <g id="Layer_7" data-name="Layer 7">
    <g>
      <g>
        <circle class="cls-1" cx="74.99999" cy="74.99997" r="69.86975"/>
        <path class="cls-2" d="M75,8.57889A66.42112,66.42112,0,1,1,8.57888,75,66.49634,66.49634,0,0,1,75,8.57889m0-6.89758A73.3187,73.3187,0,1,0,148.31867,75,73.31863,73.31863,0,0,0,75,1.68131Z"/>
      </g>
      <path class="cls-3" d="M135.11788,65.7161c-8.84177-24.664-32.77676-42.91266-60.66969-42.91266A64.14492,64.14492,0,0,0,13.8135,65.57987a.37609.37609,0,0,0,.01034.26072.48544.48544,0,0,0-.06423.13881c-.22036.9257.12077,1.23652,1.75855,2.728.30167.27425.65386.59565,1.0662.97671.07987.07313,8.50117,7.85406,12.05148,11.401l.01779.01925c1.046,1.046,2.14538,2.09967,3.13315,3.00228,1.05176.96612,15.29674,15.56186,42.34042,43.38015.00637.0065.015.00866.02165.01468.00673.00624.00968.01492.01684.02092a.47564.47564,0,0,0,.056.03189.4922.4922,0,0,0,.04577.02778c.01245.006.02346.014.03633.01889a.48963.48963,0,0,0,.176.035h.00048a.4049.4049,0,0,0,.0587-.00385c.012-.00145.02045-.0112.03224-.01348a.25559.25559,0,0,0,.15769-.06061l.02388-.01541a.46989.46989,0,0,0,.04667-.03031c.00759-.0065.01715-.0089.02436-.01588.00711-.007.00944-.01635.01606-.02358.00577-.00625.01407-.0083.01955-.01492,15.65423-18.85474,36.14531-38.58611,59.35914-60.56342a1.56238,1.56238,0,0,0,.817-.79194.37653.37653,0,0,0,.08227-.38647ZM75.83512,124.7732l7.74255-22.04082a.49272.49272,0,0,0-.92954-.32716l-8.01085,22.8039L67.85609,97.85368a.49268.49268,0,0,0-.9565.23672l6.605,26.64457-14.561-22.43463a.49284.49284,0,0,0-.82659.53695l13.216,20.3619C46.22158,97.37322,33.485,84.32842,32.41323,83.34456c-.93292-.85257-2.01307-1.888-3.04559-2.91953l-.01732-.01828c-.10729-.10682-10.265-9.922-12.14819-11.39522l.04956-.05292c-.41281-.38106-.76693-.70342-1.07-.97959-1.54926-1.41069-1.543-1.4386-1.46361-1.7725.00156-.00656-.0006-.01275.00066-.01931A29.83836,29.83836,0,0,0,22.245,66.852c14.6228-.9755,25.77564-1.4315,32.5057-.525,6.6597.90544,55.44973,1.16844,56.611,1.17457a.2244.2244,0,0,0,.04168-.00277c.59655-.08282,13.96989-1.91835,22.18167-1.36215-22.41593,21.22217-42.2837,40.34893-57.74993,58.63653Z"/>
      <g>
        <g>
          <path class="cls-4" d="M65.21532,74.56466,50.356,73.91435a2.49769,2.49769,0,0,1-1.06415-.26606l-20.003-9.66644-.1675.04932a.80444.80444,0,0,0-.51235.43351L21.04136,81.6002a.79747.79747,0,0,0,.39417,1.04448l20.83064,9.51867a1.8301,1.8301,0,0,0,1.2711.10839l.56167-.14783L53.42052,89.631l3.05461-.81787L65.2843,74.614l-.069-.04932Zm-20.79119-.404a3.3703,3.3703,0,0,1,3.06447,3.12359,2.56948,2.56948,0,0,1-3.06447,2.424,3.36109,3.36109,0,0,1-3.06453-3.11373A2.57594,2.57594,0,0,1,44.42413,74.16069Zm-17.13552,7.6957a3.361,3.361,0,0,1-3.06447-3.11373,2.57068,2.57068,0,0,1,3.06447-2.43388,3.36913,3.36913,0,0,1,3.06447,3.11379A2.57067,2.57067,0,0,1,27.28861,81.85639ZM29.34805,70.702a2.57065,2.57065,0,0,1,3.06447-2.43382A3.36109,3.36109,0,0,1,35.477,71.382a2.57071,2.57071,0,0,1-3.06447,2.43388A3.36913,3.36913,0,0,1,29.34805,70.702Zm6.65122,10.2675a3.361,3.361,0,0,1-3.06453-3.11374,2.56435,2.56435,0,0,1,3.06453-2.424,3.35316,3.35316,0,0,1,3.06447,3.11379A2.56947,2.56947,0,0,1,35.99927,80.96954Zm4.45381,7.25234a3.35316,3.35316,0,0,1-3.06447-3.11379,2.56947,2.56947,0,0,1,3.06447-2.424,3.36963,3.36963,0,0,1,3.06447,3.11373A2.56872,2.56872,0,0,1,40.45308,88.22188Z"/>
          <path class="cls-4" d="M30.35307,79.42257a2.57067,2.57067,0,0,1-3.06447,2.43382,3.361,3.361,0,0,1-3.06447-3.11373,2.57068,2.57068,0,0,1,3.06447-2.43388A3.36913,3.36913,0,0,1,30.35307,79.42257Z"/>
          <path class="cls-4" d="M32.41251,73.81583A3.36913,3.36913,0,0,1,29.348,70.702a2.57065,2.57065,0,0,1,3.06447-2.43382A3.36109,3.36109,0,0,1,35.477,71.38194,2.57072,2.57072,0,0,1,32.41251,73.81583Z"/>
          <path class="cls-4" d="M35.99926,80.96954a3.361,3.361,0,0,1-3.06453-3.11374,2.56435,2.56435,0,0,1,3.06453-2.424,3.35316,3.35316,0,0,1,3.06447,3.11379A2.56947,2.56947,0,0,1,35.99926,80.96954Z"/>
          <path class="cls-4" d="M43.51754,85.79784a2.56872,2.56872,0,0,1-3.06447,2.424,3.35316,3.35316,0,0,1-3.06447-3.11379,2.56948,2.56948,0,0,1,3.06447-2.424A3.36963,3.36963,0,0,1,43.51754,85.79784Z"/>
          <path class="cls-4" d="M47.4886,77.28428a2.56948,2.56948,0,0,1-3.06447,2.424,3.36109,3.36109,0,0,1-3.06453-3.11373,2.576,2.576,0,0,1,3.06453-2.43389A3.3703,3.3703,0,0,1,47.4886,77.28428Z"/>
          <path class="cls-4" d="M65.21532,74.56466,50.356,73.91435a2.49769,2.49769,0,0,1-1.06415-.26606l-20.003-9.66644L45.6657,59.18312Z"/>
          <g>
            <path class="cls-5" d="M35.477,71.382a2.57071,2.57071,0,0,1-3.06447,2.43388A3.36913,3.36913,0,0,1,29.34805,70.702a2.57065,2.57065,0,0,1,3.06447-2.43382A3.36109,3.36109,0,0,1,35.477,71.382Z"/>
            <path class="cls-5" d="M47.4886,77.28428a2.56948,2.56948,0,0,1-3.06447,2.424,3.36109,3.36109,0,0,1-3.06453-3.11373,2.576,2.576,0,0,1,3.06453-2.43389A3.3703,3.3703,0,0,1,47.4886,77.28428Z"/>
            <path class="cls-5" d="M39.06373,78.54558a2.56947,2.56947,0,0,1-3.06447,2.424,3.361,3.361,0,0,1-3.06453-3.11374,2.56435,2.56435,0,0,1,3.06453-2.424A3.35316,3.35316,0,0,1,39.06373,78.54558Z"/>
            <path class="cls-5" d="M30.35307,79.42257a2.57067,2.57067,0,0,1-3.06447,2.43382,3.361,3.361,0,0,1-3.06447-3.11373,2.57068,2.57068,0,0,1,3.06447-2.43388A3.36913,3.36913,0,0,1,30.35307,79.42257Z"/>
            <path class="cls-5" d="M43.51754,85.79784a2.56872,2.56872,0,0,1-3.06447,2.424,3.35316,3.35316,0,0,1-3.06447-3.11379,2.56948,2.56948,0,0,1,3.06447-2.424A3.36963,3.36963,0,0,1,43.51754,85.79784Z"/>
          </g>
          <path class="cls-6" d="M65.21532,74.56466,50.356,73.91435a2.49769,2.49769,0,0,1-1.06415-.26606l-20.003-9.66644L45.6657,59.18312Z"/>
        </g>
        <g>
          <path class="cls-4" d="M124.5442,91.08926a.633.633,0,0,1-.37444.62078L100.72786,102.421a.64142.64142,0,0,1-.61092-.04927c-2.48308-1.72438-20.09156-13.91336-22.03276-15.31256a.59838.59838,0,0,1-.22661-.30545l-1.92148-5.80382a.64365.64365,0,0,1,.04927-.52227l6.01077-10.2281,6.48366-11.02624a.61537.61537,0,0,1,.67-.2956c3.94146.877,32.85212,7.32126,33.2167,7.5676a1.23954,1.23954,0,0,1,.10838.46315C122.96759,70.02214,124.31753,88.05432,124.5442,91.08926Z"/>
          <g>
            <path class="cls-5" d="M107.93986,80.91643c1.88322-.45571,3.11391-2.04837,2.74879-3.55728-.36512-1.509-2.18778-2.3628-4.07107-1.9071-1.88321.45576-3.1139,2.04837-2.74878,3.55734S106.05658,81.37213,107.93986,80.91643Z"/>
            <path class="cls-5" d="M116.58075,76.62849c1.88321-.45571,3.1139-2.04837,2.74878-3.55735-.36512-1.5089-2.18778-2.36274-4.07106-1.907-1.88322.4557-3.11391,2.04837-2.74879,3.55728C112.8748,76.23034,114.69746,77.08418,116.58075,76.62849Z"/>
            <path class="cls-5" d="M117.23041,84.57317c1.88328-.4557,3.114-2.04831,2.74885-3.55728s-2.18784-2.36274-4.07107-1.907-3.1139,2.04837-2.74878,3.55728C113.52453,84.17509,115.34719,85.02893,117.23041,84.57317Z"/>
            <path class="cls-5" d="M120.369,88.96065c-.36512-1.509-2.18778-2.3628-4.071-1.907s-3.114,2.04831-2.74884,3.55729,2.18784,2.36274,4.07106,1.907S120.73415,90.46956,120.369,88.96065Z"/>
            <path class="cls-5" d="M107.787,90.88676c-1.88322.4557-3.11391,2.04837-2.74879,3.55734.36512,1.5089,2.18778,2.36274,4.071,1.907s3.114-2.04837,2.74885-3.55734C111.493,91.2849,109.67026,90.43106,107.787,90.88676Z"/>
            <path class="cls-5" d="M108.52456,88.29494c1.88327-.45571,3.1139-2.04837,2.74878-3.55728-.36512-1.509-2.18778-2.3628-4.071-1.9071-1.88328.4557-3.114,2.04837-2.74885,3.55734C104.81867,87.8968,106.64133,88.75064,108.52456,88.29494Z"/>
          </g>
          <path class="cls-6" d="M122.4749,66.90841l-21.861,9.18528a1.20556,1.20556,0,0,1-.84842.03219L81.99611,70.19949l6.48366-11.02625a.61538.61538,0,0,1,.67-.2956c3.94146.877,32.85212,7.32127,33.2167,7.5676a1.24,1.24,0,0,1,.10838.46315Z"/>
        </g>
        <path class="cls-7" d="M73.79787,118.69923a26.03385,26.03385,0,0,1-8.79931-9.21321c-.946-1.58642-1.90175-2.95611-2.75907-4.24692L59.89438,109.762,44.09894,92.12388l9.32158-2.49294,5.55742,8.16866a17.30367,17.30367,0,0,1,.81787-7.26214c2.79846-9.43,33.72905,1.36967,33.72905,1.36967s4.53272-4.42428,4.16814-10.72078c0,0-.27593-6.602,1.63568-2.99549C99.32868,78.19086,107.48754,102.77569,73.79787,118.69923Z"/>
        <g>
          <path class="cls-3" d="M89.58339,120.83752c-.2956-3.71485-1.8623-4.49334-3.12359-4.49334a3.80994,3.80994,0,0,0-1.64554.404c.10838,6.72014-2.29592,7.70552-3.72471,7.70552a3.05351,3.05351,0,0,1-1.02476-.16744c2.40429-2.47329.7193-4.73967.7193-4.73967.31533-2.11857-.05912-3.07435-1.35981-3.07435a4.34641,4.34641,0,0,0-1.04448.14783c-2.14809.52227-2.34518,4.15821-2.34518,4.15821-4.99575-6.129-.25614-7.63658.99523-7.63658a.71382.71382,0,0,1,.24634.02959,2.78418,2.78418,0,0,0,1.23171.2956,2.02056,2.02056,0,0,0,1.1036-.2956c-2.20721-2.59152-2.07911-9.5482-2.07911-9.5482l3.57688-.84746c-.6503,8.25737,2.43389,9.74528,2.43389,9.74528l1.98053-.32519a9.51508,9.51508,0,0,1,1.42878-.10839c6.55272,0,2.63092,8.75011,2.63092,8.75011Z"/>
          <path class="cls-7" d="M90.98265,112.96439a4.43922,4.43922,0,0,0-4.03017-1.86236,10.07812,10.07812,0,0,0-1.57656.1281l-1.58642.2562c-.56167-.52227-2.16782-2.57179-1.70472-8.56283a.74527.74527,0,0,0,.00986-.14783.982.982,0,0,0-.98537-.98536c-.01973,0-.02953,0-.03939.00985a.65437.65437,0,0,0-.20694.02959l-3.55716.83754a.98836.98836,0,0,0-.75875.93611c-.00986.65031-.04927,5.6166,1.42878,8.78945-.0887-.02954-.18722-.069-.28573-.10839a1.48938,1.48938,0,0,0-.66024-.1281,4.52639,4.52639,0,0,0-3.87248,2.34518c-.85726,1.80318-.14777,4.12874,2.11856,6.89756a.97606.97606,0,0,0,.76855.36458,1.158,1.158,0,0,0,.30546-.04932.98614.98614,0,0,0,.67-.88672c.04932-.7489.43357-2.966,1.58648-3.25175a3.60626,3.60626,0,0,1,.81781-.11824.55687.55687,0,0,1,.33506.06892c.02953.02958.27587.3647.04926,1.87222a.96865.96865,0,0,0,.18722.72928c.10838.15757,1.1036,1.68493-.63066,3.46839a.99172.99172,0,0,0-.266.88685,1.009,1.009,0,0,0,.60106.7193,4.15871,4.15871,0,0,0,1.38934.23648,3.807,3.807,0,0,0,2.75907-1.16266c1.26124-1.2909,1.92141-3.59661,1.951-6.85811a2.6719,2.6719,0,0,1,.66018-.08877c1.23171,0,1.951,1.212,2.14808,3.58675a.975.975,0,0,0,.808.89672,1.0126,1.0126,0,0,0,.1675.00986.96736.96736,0,0,0,.89672-.58146C90.72643,120.69942,92.82527,115.81206,90.98265,112.96439Zm-9.89311,11.48934a3.05351,3.05351,0,0,1-1.02476-.16744c2.40429-2.47329.7193-4.73967.7193-4.73967.31532-2.11857-.05912-3.07435-1.35981-3.07435a4.34642,4.34642,0,0,0-1.04449.14783c-2.14809.52227-2.34518,4.15821-2.34518,4.15821-4.99575-6.129-.25614-7.63658.99524-7.63658a.71372.71372,0,0,1,.24633.02959,2.78419,2.78419,0,0,0,1.23172.2956,2.0206,2.0206,0,0,0,1.1036-.2956c-2.20721-2.59152-2.07911-9.5482-2.07911-9.5482l3.57688-.84746c-.65031,8.25737,2.43388,9.74528,2.43388,9.74528l1.98053-.32519a9.51511,9.51511,0,0,1,1.42879-.10839c6.55271,0,2.63091,8.75011,2.63091,8.75011-.2956-3.71485-1.8623-4.49333-3.12359-4.49333a3.81,3.81,0,0,0-1.64554.404c.10839,6.72014-2.29592,7.70551-3.7247,7.70551Z"/>
        </g>
        <g>
          <path class="cls-3" d="M75.15768,108.55978c-.62079-6.88771-3.94146-7.76464-5.75456-7.76464a9.37207,9.37207,0,0,0-1.16272.09851c-.39417,0-1.685-7.04538-1.685-7.04538L59.99289,91.513a33.65891,33.65891,0,0,0,1.03462,11.3613s-7.98144,8.10955-2.26633,12.41552c0,0,1.06421-6.13875,5.17317-8.11934.92624.58139,5.37024,1.89189,5.63626,8.77958.30546-.266,2.631-2.33531,2.562-4.109-.07885-2.06924-1.79338-4.73961-3.51776-6.1684a2.70167,2.70167,0,0,1,1.32035-.41385,1.55925,1.55925,0,0,1,1.48791,1.12333c.84746,2.02,1.85249,5.2323,1.52736,6.27678,0,0,2.53234-.61093,2.20721-4.09916Z"/>
          <path class="cls-8" d="M70.96988,106.57924c-.30546-.739-.739-.82773-1.03469-.82773a1.59527,1.59527,0,0,0-.4335.069,11.99077,11.99077,0,0,1,2.424,3.40939A27.367,27.367,0,0,0,70.96988,106.57924Z"/>
          <path class="cls-7" d="M76.14305,108.47113c-.68977-7.53807-4.513-8.66134-6.73993-8.66134-.207,0-.39411.00981-.56167.01967-.32513-1.13313-.89666-3.83309-1.32036-6.15854a.97366.97366,0,0,0-.64051-.74889l-6.56251-2.34518a1.18142,1.18142,0,0,0-.32519-.04926.97284.97284,0,0,0-.98537.88685,35.08767,35.08767,0,0,0,.91638,11.20359c-1.17259,1.32042-4.47354,5.35054-4.1878,9.16389a5.72631,5.72631,0,0,0,2.424,4.29618,1.02027,1.02027,0,0,0,.60106.197,1.07973,1.07973,0,0,0,.35472-.06891.9872.9872,0,0,0,.61092-.7489c.00986-.0492.95584-5.22243,4.20753-7.17343.00986,0,.00986.00986.01973.00986,1.4386.70942,4.42428,2.19735,4.63117,7.6957a.97829.97829,0,0,0,.59126.86713,1.04081,1.04081,0,0,0,.39412.07878.99153.99153,0,0,0,.64051-.23648,10.29927,10.29927,0,0,0,2.48314-3.094,1.24237,1.24237,0,0,0,.266.03939.89444.89444,0,0,0,.22668-.02958c1.15286-.27588,3.27142-1.71454,2.9561-5.14358Zm-4.71994-2.089a1.55925,1.55925,0,0,0-1.48791-1.12333,2.70173,2.70173,0,0,0-1.32036.41385c1.72439,1.42878,3.43892,4.09915,3.51776,6.16839.069,1.77365-2.25653,3.843-2.562,4.109-.266-6.88771-4.71-8.19819-5.63627-8.77958-4.10895,1.98059-5.17317,8.11934-5.17317,8.11934-5.71511-4.306,2.26633-12.41552,2.26633-12.41552A33.65891,33.65891,0,0,1,59.99289,91.513l6.56251,2.33531s1.29083,7.04539,1.685,7.04539a9.37252,9.37252,0,0,1,1.16272-.09851c1.8131,0,5.13378.87693,5.75456,7.76463.32513,3.48823-2.2072,4.09915-2.2072,4.09915.32512-1.04449-.67991-4.25679-1.52736-6.27677Zm.50255,2.84772a11.99131,11.99131,0,0,0-2.424-3.40939,1.59533,1.59533,0,0,1,.4335-.069c.29566,0,.72922.08871,1.03468.82773A27.35913,27.35913,0,0,1,71.92566,109.22988Z"/>
        </g>
        <path class="cls-3" d="M99.07247,18.64516a2.89818,2.89818,0,0,0-1.44846-.36458c-1.281,0-3.232.78834-4.986,4.70021-1.07408,2.38457-1.31055,2.92657-2.63091,3.2123,0,0,1.50758-4.7692-.04932-6.96654a.71131.71131,0,0,0-.56167-.37444c-1.36961,0-2.65058,6.17826-2.65058,6.17826s-.29566-4.33563-2.24666-4.77906a1.09683,1.09683,0,0,0-.18722-.01967c-1.84262,0-3.07434,6.20779-3.07434,6.20779S79.582,26.10438,80.991,23.375c.28572-.56167.27587-.79814.07885-.79814-.78834,0-4.46374,3.71479-4.46374,7.03547,0,.15769-.05912.24634-.15763.24634-.27594,0-.81787-.87693-.52227-3.41919.10838-.95584-.05912-1.33022-.37445-1.33022-.79814,0-2.47328,2.39443-2.65064,3.96113a7.92794,7.92794,0,0,0,0,2.87725.6575.6575,0,0,1-.28573.07885.37093.37093,0,0,1-.34485-.22661c-.19709-.38431-.43356-2.97582-2.00032-3.11379h-.01973c-1.05435,0-2.089,7.46909-2.29586,13.20392h.13791a58.54682,58.54682,0,0,1,11.25292,1.18245c6.58224,1.281,12.63241,5.57714,16.968,9.74528-.53208-8.93727-1.547-20.70254.2266-26.37826C98.87545,18.94082,99.07248,18.64516,99.07247,18.64516Z"/>
        <path class="cls-3" d="M91.94829,88.94117l1.32042,7.5676s-6.56257,7.4395-10.08033,7.4395a2.10823,2.10823,0,0,1-.57147-.07879h-.01973a5.3327,5.3327,0,0,0-.64051-.138,4.269,4.269,0,0,0-1.57657.07885c-.10838.02953-.20695.05912-.30546.08865a4.075,4.075,0,0,0-1.07408.54194.00965.00965,0,0,1-.00985.00986,4.19026,4.19026,0,0,0-.46309.36457l-.00986.00986c-.069.05912-.14777.1281-.21675.19709a8.53776,8.53776,0,0,0-1.5175,2.06924c-.05912.11824-.11824.22668-.17736.335a10.97591,10.97591,0,0,0-.473,1.13313,8.1249,8.1249,0,0,0-5.08451-7.17343,15.44663,15.44663,0,0,1-2.09884.18722,2.33422,2.33422,0,0,1-1.11341-.18722c-2.80832-1.89189-2.28605-5.991-2.28605-5.991-3.02508-1.71453-5.10419-2.28606-7.53807-3.88234-.4237-.27587-1.78351-1.11347-2.17768-1.3992a32.98829,32.98829,0,0,1-3.70493-3.02508l-.77848-.58133a11.22445,11.22445,0,0,1-1.86236-2.21707c-.04926-.09857-.08865-.18722-.128-.27593-.02959-.05912-.04932-.11824-.069-.16751a1.54787,1.54787,0,0,1-.05912-.2562c-.00986-.00986-.1281-.473-.1281-.48282a5.45243,5.45243,0,0,1,3.05461-1.2613h.02959c-.02959-.01966-.09857-.069-.20695-.138-.069-.03939-.14783-.09851-.24634-.1675-.03939-.02953-.08871-.05912-.138-.09851a8.02124,8.02124,0,0,1-1.91161-1.99046.28732.28732,0,0,1-.01967-.08866c0-.34491,1.20212-.42376,2.36484-.42376.81787,0,1.616.03946,1.97073.05912.02959,0,.05912.00986.07885.00986a.49194.49194,0,0,1,.10838.00986s-.36458-.27587-.877-.68978l-.01967-.01966h-.00986c-1.37954-1.14306-3.25169-3.81337-2.27619-3.81337a.03444.03444,0,0,1,.01973-.00985,12.6264,12.6264,0,0,1,3.6458-.4533c.45329,0,.84746.01973,1.12333.02959.069,0,.1281.0098.18722.0098s.09851.00986.138.00986h.00986a.85262.85262,0,0,0,.10838.00986,29.68713,29.68713,0,0,1-6.03043-5.84321c-.26607-.30546-.54194-.61092-.8376-.92625-.25614-.31532-.46309-.5912-.62079-.808-.61092-.83754-.58133-1.04449-.24634-1.04449.24634,0,.6701.11824,1.11347.17736,0-.00986.00986-.00986.01973-.00986a.00966.00966,0,0,1,.00986.00986.60553.60553,0,0,0,.1281.00986.7195.7195,0,0,1,.1281.00986,3.37726,3.37726,0,0,1-.37444-.41385c-.15769-.17736-.35472-.43356-.61092-.77848-.09857-.1379-.20695-.2956-.32519-.46308-.24634-.35473-.53208-.78829-.8474-1.29083-.11824-.18723-.23648-.404-.37444-.61092-1.02476-1.685-.08871-2.28606.82767-2.493.04932,0,.08871-.00986.138-.00986.56167-.05912,1.08394-.07879,1.08394-.07879-.877-.9657-2.61124-1.43866-4.80859-3.11379a18.8841,18.8841,0,0,1-3.67545-3.705c-2.15795-2.81813-2.48308-4.80859-2.34518-6.00084.01973-.1281.03945-.2562.05912-.37444a2.29964,2.29964,0,0,1,.07885-.30546,1.05464,1.05464,0,0,1,.069-.18722,1.754,1.754,0,0,1,.11824-.26607c.00986-.01967.01973-.02953.02959-.04926a.16773.16773,0,0,1,.1281-.07885c.05912,0,.1281.03945.21675.14783.02959.03939.05912.08865.09851.138A7.63652,7.63652,0,0,0,41.0246,47.27a2.4304,2.4304,0,0,0,.335.21675,4.61359,4.61359,0,0,0,.53214.2956c.07885.03945.1675.07885.2562.11824.00986,0,.00986.00986.01967.00986.138.05912.28579.11824.43356.16756a5.22938,5.22938,0,0,0,1.60615.335,1.04433,1.04433,0,0,0,.77848-.23648.38534.38534,0,0,0,.09851-.14783c-2.72948-1.50758-4.82832-5.21256-5.656-7.06506-.03945-.08865-.07885-.17736-.10838-.26607a5.206,5.206,0,0,1-.23654-2.61118q0-.01973.00986-.01973c0-.00986.01973-.01973.02959-.02953l.00986-.01973c.0098,0,.0098-.00986.01967-.00986a.14027.14027,0,0,1,.05912-.01973c.02959,0,.05912-.0098.08871-.0098a1.75492,1.75492,0,0,1,1.0149.51235c.14783.1281.30547.28579.48288.473.1281.13791.24634.266.36458.37438a8.5491,8.5491,0,0,0,.68971.60112,5.26062,5.26062,0,0,0,.58139.404,3.75106,3.75106,0,0,0,.79814.34491,2.35469,2.35469,0,0,0,.63065.09851,1.25515,1.25515,0,0,0,.58133-.11824,14.12254,14.12254,0,0,1-3.163-5.40965c-.01973-.05912-.03945-.11824-.05912-.16756-.05912-.17736-.1281-.34485-.17736-.51235-.15769-.473-.28579-.89672-.37444-1.27116-.02959-.13791-.05912-.266-.08871-.39411a2.92756,2.92756,0,0,1,.2956-2.19741h.03945a5.41491,5.41491,0,0,1,1.93128,1.19231c.069.069.138.14783.19709.20695.07885.069.15769.15763.23648.23648.069.069.138.138.207.21675.1281.14783.26607.29566.41384.45329a1.0434,1.0434,0,0,0,.09857.11824v.00986c1.37948,1.53717,2.76888,3.39952,3.03489,3.75424-2.99549-5.06479-2.94623-8.1194-2.48308-9.64671a2.35339,2.35339,0,0,1,.10838-.31532,1.06723,1.06723,0,0,1,.07885-.18722,2.42983,2.42983,0,0,1,.197-.36458.23647.23647,0,0,1,.09857-.09857.26279.26279,0,0,1,.11824-.02953c.41384,0,1.15286.90652,1.84263,1.84263.46309.65031.89666,1.31055,1.18245,1.72439-.68977-1.17259-2.13829-4.57211-1.29083-7.06506l.08865-.26607V22.488a4.85978,4.85978,0,0,1,.63065-1.22184l.00986-.00986c.35472-.45329.64045-.66018.877-.66018.37444,0,.66018.54194,1.02476,1.46819a.02846.02846,0,0,0,.00986.01973c.01973.04926.03939.10838.05912.15763a.16654.16654,0,0,1,.01973.04926,4.885,4.885,0,0,0,.1675.5518c.09851.28579.24634.69963.46309,1.19231a24.95727,24.95727,0,0,0,4.73961,6.98627c1.31055,1.38934,2.55212,2.8378,3.73457,4.27646.2956.36457.58133.71929.86713,1.07408.56167.7193,1.11347,1.42873,1.63568,2.1185q.3991.53208.76861,1.03461c.5518.739,1.074,1.45839,1.5667,2.14816.43356.60106.83759,1.18238,1.212,1.72438.17742.266.36464.52221.53214.77842.21675.30547.41384.60106.60106.877.18722.27587.37444.54193.54194.78828.0887.138.18722.27587.27593.404.07885.10844.14777.21681.21675.31532.069.09858.1281.19709.19709.2956l.08871.11824c.07879.10845.14777.207.21675.30552.20695.2956.38431.54194.53208.72916.03945.05912.08871.11824.1281.1675.138.1675.22668.24635.27593.24635h.00986c.39411.5124.75869,1.03461,1.1036,1.55688q.63555.01481,1.30069.05912c.36458.01967.72915.04926,1.1036.07879.74889.069,1.46819.138,2.17762.23654,1.212.15764,2.355.34485,3.44878.58133.89672.17736,1.74412.38432,2.562.62079a33.09,33.09,0,0,1,3.73451,1.2711,26.66335,26.66335,0,0,1,4.46374,2.32551,20.2369,20.2369,0,0,1,1.84263,1.281,23.85408,23.85408,0,0,1,3.26156,3.05461,24.29672,24.29672,0,0,1,2.6703,3.67545c-1.87216,7.607-8.47412,11.83419-8.47412,11.83419L88.943,77.61924l1.55689,3.00535,1.44846,8.31649Z"/>
        <path class="cls-9" d="M96.77661,95.38544c-2.59152,5.49836-5.64619,11.49926-10.12959,11.89337-4.4834.39417-6.13881-2.48308-6.13881-2.48308a2.23033,2.23033,0,0,0,2.089-.92625,5.33464,5.33464,0,0,0-.64051-.138,4.15876,4.15876,0,0,0-1.57656.07885c-.10838.02954-.20695.05912-.30546.08866a4.99329,4.99329,0,0,0-1.07408.54194.00965.00965,0,0,1-.00985.00985,4.19034,4.19034,0,0,0-.46309.36458l-.00986.00986c-.069.05912-.14777.1281-.21675.19709a8.53776,8.53776,0,0,0-1.5175,2.06924c-.05912.11824-.11824.22667-.17736.33505a10.97591,10.97591,0,0,0-.473,1.13313,8.1249,8.1249,0,0,0-5.08451-7.17343s-2.58165.4237-3.21225,0c-2.80832-1.89189-2.28605-5.991-2.28605-5.991-3.02508-1.71453-5.10419-2.28606-7.53807-3.88234-.4237-.27587-1.78351-1.11347-2.17768-1.3992-1.45833-1.04449-4.4834-3.60641-4.4834-3.60641a11.22445,11.22445,0,0,1-1.86236-2.21707c-.04926-.09857-.08865-.18722-.128-.27593-.02959-.05912-.04932-.11824-.069-.16751a1.54787,1.54787,0,0,1-.05912-.2562,33.98963,33.98963,0,0,1,5.39978,1.03462C58.436,85.64021,74.07375,96.02594,75,96.60733c.59126.02953,1.00509-.69963,1.25143-1.35981A59.84739,59.84739,0,0,1,70.96,92.20271a19.18509,19.18509,0,0,1-3.971-3.27142,12.17309,12.17309,0,0,1-1.1036-.8474c-2.47328-2.2072-5.21256-2.58165-8.32635-4.28632a27.16022,27.16022,0,0,0-5.37019-1.95106c-.02959-.01967-.09857-.069-.20695-.138-.069-.03939-.14783-.09851-.24635-.1675-.03939-.02953-.08871-.05912-.138-.09851-.68976-.473-1.72438-1.30069-1.9116-1.99047a.287.287,0,0,1-.01967-.08865c0-.58139,3.48817-.404,4.33557-.36464.02959,0,.05912.00986.07885.00986a.49194.49194,0,0,1,.10838.00986s-.36458-.27588-.877-.68978c3.40939,1.67514,4.306,3.44878,8.5333,5.17317a24.02842,24.02842,0,0,1,7.78435,5.26188,9.97176,9.97176,0,0,1,2.41416.50255s-1.49771-2.17768-2.47328-3.90207C65.501,82.64462,55.41092,76.9591,51.00635,74.49569a.03443.03443,0,0,1,.01973-.00986,14.81,14.81,0,0,1,4.76914-.4237c.069,0,.1281.00981.18722.00981s.09851.00985.138.00985h.00986c4.4834,2.18754,10.55324,6.8779,14.48483,10.08033,1.46825.94591,3.26156,2.355,3.26156,2.355s-.76855-1.4386-1.3992-2.71956c-3.88234-3.05468-10.40546-8.31649-14.53414-12.386a32.877,32.877,0,0,0-8.415-6.15854c-.15769-.17736-.35472-.43356-.61092-.77848-.09857-.13791-.20695-.2956-.32519-.46309-.24635-.35472-.53209-.78828-.8474-1.29083-.11824-.18722-.23648-.404-.37444-.61092-.069-.11824-.14783-.23648-.21681-.35478-.0098-.01966-.01967-.04926-.02953-.06892a1.946,1.946,0,0,1-.08871-1.79337,2.61124,2.61124,0,0,1,1.16272-.27592c.04932,0,.08871-.00987.138-.00987C56.21894,62.622,71.00928,78.77216,71.00928,78.77216s1.40907,2.5324,1.84262,1.02481c.44343-1.50763-9.9325-11.30217-12.859-13.93309-2.92657-2.631-11.11495-9.26245-16.71182-13.25318a15.219,15.219,0,0,1-4.70015-5.16331,4.56273,4.56273,0,0,1,.0098-.739c.01973-.1281.03945-.2562.05912-.37444a2.29964,2.29964,0,0,1,.07885-.30546,1.05464,1.05464,0,0,1,.069-.18722,1.754,1.754,0,0,1,.11824-.26607c.00987-.01967.01973-.02953.02959-.04926a.78928.78928,0,0,1,.13791-.22661s.069.10838.20695.2956c.0296.03939.05913.08865.09852.138a7.63618,7.63618,0,0,0,1.63573,1.53717,3.90666,3.90666,0,0,0,.335.21675,4.61428,4.61428,0,0,0,.53213.2956c.07885.03945.1675.07885.2562.11824.00986,0,.00986.00986.01967.00986,3.02508,3.15318,9.52853,7.81394,11.785,9.42009,2.68017,1.90175,10.5237,8.484,10.72078,9.41029.18722.9262,2.31559,3.11373,2.86739,1.35975.81788-2.55206-4.28632-6.08955-6.23732-7.3114-1.9412-1.212-9.35117-7.06506-11.54851-8.76972-.94592-.72922-2.87726-2.30578-4.76914-3.84295a.38534.38534,0,0,0,.09851-.14783c-2.72948-1.50758-4.82832-5.21256-5.656-7.06506-.03945-.08865-.07885-.17736-.10838-.26607a5.206,5.206,0,0,1-.23654-2.61118q0-.01972.00986-.01973c0-.00986.01973-.01973.02959-.02953l.02953-.02959a.14027.14027,0,0,1,.05912-.01973c.21681-.03939.58139.069,1.1036.50255.14783.1281.30546.28579.48288.473.1281.1379.24634.266.36457.37437a8.55056,8.55056,0,0,0,.68971.60112,7.07113,7.07113,0,0,0,.58139.404,3.75039,3.75039,0,0,0,.79815.34491c2.15795,2.27619,5.05493,5.89247,7.21287,8.60222,2.828,3.55716,9.9325,8.08987,10.80943,8.484.88685.38431,1.616,0,1.56676-.6799-.6799-1.66527-3.22217-2.87725-3.22217-2.87725-3.31081-1.2711-8.22778-7.41-10.47443-9.74528-1.36961-1.43866-5.17318-6.02057-7.90259-9.3807-.05912-.17736-.1281-.34485-.17736-.51235-.15769-.473-.28579-.89672-.37444-1.27116-.02959-.13791-.05912-.266-.08871-.39411a2.92756,2.92756,0,0,1,.2956-2.19741,4.904,4.904,0,0,1,1.97073,1.19231c.069.069.138.14783.19709.20695.07885.069.15769.15763.23648.23648.069.069.138.138.20695.21675.1281.14783.26607.29566.41384.45329a1.0434,1.0434,0,0,0,.09857.11824v.00986c3.36993,4.375,8.5825,11.70615,9.95217,13.805,1.90175,2.92651,4.23706,4.13855,4.81845,4.04.59121-.08865,1.22184-.53208-4.71994-7.30153-5.95159-6.77932-6.1388-9.55806-7.3114-12.57328a15.67736,15.67736,0,0,0-2.18748-3.86262,2.35339,2.35339,0,0,1,.10838-.31532,1.06723,1.06723,0,0,1,.07885-.18722,2.42983,2.42983,0,0,1,.197-.36458.23647.23647,0,0,1,.09857-.09857c.37444-.21675,1.20212.77848,1.96087,1.8131a74.271,74.271,0,0,0,6.90742,12.08059s5.59687,6.868,6.7202,9.93245A28.06175,28.06175,0,0,0,64.95912,57.232c.77848.9755,1.22184.68977,2.14809-.23648C65.304,51.33957,55.16458,38.33273,49.952,29.70092a20.63493,20.63493,0,0,1-2.97582-7.203V22.488a4.86014,4.86014,0,0,1,.63065-1.22184l.00986-.00985c.93611-1.17259,1.31055-.69963,1.90175.808a.02846.02846,0,0,0,.00986.01973.6664.6664,0,0,0,.05912.15763.16654.16654,0,0,1,.01973.04926l.0098.00985s.04932.18722.15769.54195c.09851.28578.24634.69963.46308,1.19231a24.95757,24.95757,0,0,0,4.73961,6.98626c1.31055,1.38934,2.55212,2.8378,3.73457,4.27646.2956.36457.58133.7193.86713,1.07408.56167.7193,1.11347,1.42873,1.63568,2.1185q.39912.53208.76861,1.03462c.5518.739,1.074,1.45838,1.5667,2.14815.43356.60106.8376,1.18239,1.212,1.72438.17742.266.36464.52221.53214.77842.21676.30547.41385.60106.60106.877.19709.27587.37445.54193.54194.78828.08871.138.18722.27587.27593.404.07885.10844.14778.2168.21676.31531.10843.14784.19709.27593.28578.41385.07879.10844.14778.20695.21676.30551.20694.29561.3843.54194.53208.72916.03945.05912.0887.11825.1281.1675,1.60614,7.272,1.87222,20.69268,2.9561,24.50605.90657,3.15318.34491.72915,2.92656,5.94178a17.79212,17.79212,0,0,0,3.83309,5.37019c-1.00508-1.58642-2.00032-3.36993-1.91161-4.11882.08865-.78828,2.09883.68977,3.98086,2.25653-.99523-1.95106-1.29083-1.04449-4.29618-5.40971-3.89221-5.64614-3.843-19.87481-3.843-19.87481a24.31092,24.31092,0,0,1-.95578-6.80885,124.70951,124.70951,0,0,1,.66018-13.85424c-.04926-.14783.14783-2.72948-.63066-4.1878a7.43459,7.43459,0,0,1,.01973-3.13346c1.06421.61092,1.27111,2.60132,1.43866,2.93637.197.39411.6306.14777.6306.14777a7.92794,7.92794,0,0,1,0-2.87725c.24633-2.18748,3.41925-5.991,3.02507-2.63091a9.85665,9.85665,0,0,0-.05912,2.02985c-1.04448,5.50822-1.281,14.59326-1.80323,21.885-.05912.808-.11824,1.59629-.18722,2.355A65.81773,65.81773,0,0,0,75,71.85485c.34491.877,1.70472.53214,2.09883.43356.38431-.08865.6799-1.212.38431-13.30244-.05912-2.68017-.03939-5.40965.02953-8.05042a177.268,177.268,0,0,1,1.57662-19.38213c.18722-.98537.86713-3.18271,1.616-5.4491a1.04432,1.04432,0,0,0,.53209.33506s1.31054-6.6217,3.26155-6.18813a1.55954,1.55954,0,0,1,.72916.39417c-4.52279,14.3272-3.5079,24.3582-3.5079,24.3582s-.96563,3.40939-1.45832,5.0254a12.20807,12.20807,0,0,0-.18721,1.5273c-.38431,5.17317-.64051,20.97842-.64051,20.97842a.93839.93839,0,0,0,1.07408.29566c.67991-.24634.9755-4.23712,1.212-6.08955.15769-1.2219,1.32042-8.84862,2.089-13.91342.39417-2.621.68977-4.55238.68977-4.55238s-.77842-4.53266-.28573-13.7458a41.73362,41.73362,0,0,1,2.26633-11.20366,13.40184,13.40184,0,0,1,.26607,1.70472s1.65541-7.9913,3.21224-5.80382a3.66385,3.66385,0,0,1,.57153,1.40907c-.44343,1.00509-1.08388,2.3649-2.02985,4.14841-2.48314,4.68049-2.09883,17.05668-2.34518,18.95843-.23648,1.90175,2.59152,7.49862,2.44369,9.74528a8.45476,8.45476,0,0,1-.32513,1.66527,47.79816,47.79816,0,0,1-2.65064,6.85811c-.6799,1.40907-3.36013,11.40069-3.36013,11.40069a2.27167,2.27167,0,0,0,1.35981.34491c.68977-.09857,1.17259-1.46825,4.28638-9.64677a30.66218,30.66218,0,0,0,2.2072-7.676,14.01153,14.01153,0,0,0-.59126-4.60163c-.68971-3.41925-.92625-12.7211-.09851-20.46607a44.03442,44.03442,0,0,1,.85726-5.24214c1.08388-.30546,1.35981-.93611,2.355-3.14332,1.08388-2.424,2.2466-3.64587,3.28128-4.2272-4.6017,10.73058-3.37986,28.34893-3.37986,28.34893a46.49278,46.49278,0,0,1,.8376,12.386,14.31685,14.31685,0,0,1-.64051,3.05467c-1.63568,4.78885-5.92206,10.573-7.06506,12.07073A26.9395,26.9395,0,0,1,88.943,77.61928a35.96916,35.96916,0,0,1,3.01522,3.72465c3.2911,4.68048,7.28187,8.8289,4.81845,14.04145Z"/>
        <path class="cls-7" d="M97.2554,52.2078c-.04878-.82569-.097-1.65817-.15366-2.52362-.51236-8.06028-1.143-18.08144.37444-22.94914,2.02985-6.50339,2.424-7.52821,2.48314-7.65631a1.02267,1.02267,0,0,0,.07885-.64045,1.00735,1.00735,0,0,0-.43357-.62079,3.82855,3.82855,0,0,0-1.98059-.52227c-1.59629,0-3.92173.91644-5.88266,5.28161l-.01966.04926c-.02959.069-.05913.1281-.08871.19709a6.65087,6.65087,0,0,0-.86713-4.16814,1.64661,1.64661,0,0,0-1.36967-.78828c-.41384,0-1.49771,0-2.63091,3.24183a3.18912,3.18912,0,0,0-2.04958-1.8229,1.87359,1.87359,0,0,0-.404-.03939c-1.143,0-2.02,1.08388-2.68017,2.49294a1.08738,1.08738,0,0,0-.56167-.14777c-.9657,0-2.86744,1.72439-4.1484,3.91186a1.69052,1.69052,0,0,0-.39418-.946,1.32181,1.32181,0,0,0-.9755-.4335c-1.44846,0-3.163,2.64077-3.567,4.444a2.38837,2.38837,0,0,0-1.62581-.86713h-.10844c-1.005,0-1.73419.86713-2.44369,5.28161a79.04327,79.04327,0,0,0-.83754,8.86829c-.0009.02454.01059.04595.01143.07013q-1.01362.03-1.96977.10747c-.21236-.30612-.43182-.61814-.66276-.93635-.49268-.68977-1.0149-1.40907-1.57656-2.15795-.24634-.32519-.50255-.6799-.76861-1.03462-.53208-.69963-1.08388-1.40907-1.64553-2.13823l-.877-1.08394c-1.40906-1.70465-2.60137-3.0842-3.78377-4.33557A23.72848,23.72848,0,0,1,51.14435,23.641a9.5167,9.5167,0,0,1-.43356-1.12327,2.59679,2.59679,0,0,1-.138-.42376,1.03655,1.03655,0,0,0-.07885-.24634l-.00986-.01967-.03939-.10838a.16674.16674,0,0,1-.01973-.04932c-.34485-.88679-.82767-2.05938-1.93128-2.05938a2.21342,2.21342,0,0,0-1.62588,1.005c-.00986.01973-.02953.02959-.03939.04932a6.00534,6.00534,0,0,0-.77848,1.478c-.00986.02953-.01967.069-.02953.10838l-.00986.01973-.05912.17736a6.84466,6.84466,0,0,0-.2562,2.93637,1.36319,1.36319,0,0,0-.54194-.10838,1.25978,1.25978,0,0,0-1.04448.57153,3.48491,3.48491,0,0,0-.26607.49268,2.66984,2.66984,0,0,0-.10838.27587,2.75463,2.75463,0,0,0-.138.404,8.42865,8.42865,0,0,0-.00986,4.23712c-.00986-.01973-.02953-.02959-.03939-.04932a5.8004,5.8004,0,0,0-2.63091-1.478,1.19377,1.19377,0,0,0-.335.04932c-.02953.00985-.05913.00985-.07885.02953-.92626.37443-1.08389,2.13822-.89666,3.26156a.63127.63127,0,0,1,.01972.069c.01967.11824.04926.24634.07879.37444.09858.39417.22668.82772.404,1.37954.02953.07878.069.197.10838.32513a1.0492,1.0492,0,0,1,.069.18722c.00987.00986.00987.02959.01973.04932.0098.02953.02953.07879.03939.11824a22.30571,22.30571,0,0,0,1.24157,2.78854c-.01973-.01967-.02959-.03939-.04926-.04926a6.03646,6.03646,0,0,0-.58139-.57153,2.6783,2.6783,0,0,0-1.65541-.74883,1.46788,1.46788,0,0,0-.20695.01967,1.04161,1.04161,0,0,0-.38425.11824h-.00986a.86918.86918,0,0,0-.36458.31532l-.03945.03945a1.68521,1.68521,0,0,0-.1281.22661,5.89515,5.89515,0,0,0,.22668,3.31081,1.93442,1.93442,0,0,0,.13791.34491,21.74294,21.74294,0,0,0,3.39952,5.31108c-.01967-.00986-.02953-.00986-.03939-.01967a.3996.3996,0,0,0-.08871-.04932,1.40982,1.40982,0,0,1-.19709-.13791A6.68855,6.68855,0,0,1,40.1575,45.122l-.07885-.1183a1.24455,1.24455,0,0,0-1.005-.54194,1.14884,1.14884,0,0,0-.89672.45329.43858.43858,0,0,0-.07885.10838c-.01967.02959-.02953.04926-.04926.07885a2.94992,2.94992,0,0,0-.15763.35472,1.39255,1.39255,0,0,0-.10838.2956,3.47792,3.47792,0,0,0-.09857.404l-.069.39411c-.15763,1.3894.15769,3.64587,2.54226,6.75966a19.54885,19.54885,0,0,0,3.86263,3.89215A21.64578,21.64578,0,0,0,46.95653,59.055a2.03319,2.03319,0,0,0-.85726.97549,2.80122,2.80122,0,0,0,.4335,2.59152c.08871.138.15769.2562.21681.36458.05912.08871.10838.17742.15763.2562.31532.50255.61092.946.877,1.33028l.05912.07879a1.07265,1.07265,0,0,0-.43356.46315c-.37444.72915.17736,1.478.54194,1.98059.16756.22661.38431.51235.65038.8474.01973.01973.02953.03939.04926.04926.28573.30546.5518.61092.81787.90652.20689.24633.41384.49268.63065.739a27.65305,27.65305,0,0,0,3.301,3.44878,11.29212,11.29212,0,0,0-2.61124.44343,1.19734,1.19734,0,0,0-.96564.77848c-.36458,1.005.7686,2.58165,1.72438,3.6458-1.33021.01973-2.86738.15769-2.86738,1.40912a1.37207,1.37207,0,0,0,.06892.404,5.38522,5.38522,0,0,0,1.29088,1.62588,7.264,7.264,0,0,0-1.547.94591.98549.98549,0,0,0-.37444.76861,3.08184,3.08184,0,0,0,.15764.72915c.01972.10839.04925.20695.069.2956.00986.02959.01973.04927.02959.07885.03939.09851.06892.16751.10838.24634a2.74879,2.74879,0,0,0,.1281.27587A12.04763,12.04763,0,0,0,50.6418,87.197c.03939.02959.07879.069.11824.09857l.72916.54194a32.84581,32.84581,0,0,0,3.774,3.07434c.266.19709.83754.56167,1.5667,1.015.26607.17736.51241.32513.64051.41385A29.06284,29.06284,0,0,0,61.50049,94.469c.95584.43357,1.92148.88685,3.02508,1.48791-.02953,1.3894.20695,4.52285,2.75907,6.24724a2.92488,2.92488,0,0,0,1.66521.35472,15.62133,15.62133,0,0,0,1.98059-.15769,7.04165,7.04165,0,0,1,4.21739,6.198.98923.98923,0,0,0,.8474.93611.6542.6542,0,0,0,.138.0098.98548.98548,0,0,0,.93611-.67,8.49581,8.49581,0,0,1,.41384-1.005c.05912-.10844.11824-.21681.17736-.33505a7.19987,7.19987,0,0,1,1.33023-1.80324c.05912-.05912.1183-.11824.16755-.15763.00986-.00986.02954-.01973.03939-.02959a3.24658,3.24658,0,0,1,.32519-.266.34217.34217,0,0,1,.07885-.04926,3.048,3.048,0,0,1,.77842-.39417c.069-.01973.15763-.04926.2562-.07885a3.44549,3.44549,0,0,1,.72916-.07879,3.49788,3.49788,0,0,1,.45329.02953c.14778.01973.31526.05912.52221.10839.02959.00985.069.01973.09851.02958a3.11753,3.11753,0,0,0,.7489.08866c3.85281,0,10.11972-6.97635,10.81935-7.77449a.99277.99277,0,0,0,.23649-.81787l-1.32042-7.5676-1.44847-8.31649a1.39759,1.39759,0,0,0-.09857-.28579L89.82,77.166l-.97556-1.86236a22.6229,22.6229,0,0,0,7.88009-10.91594A67.54909,67.54909,0,0,1,99.4568,71.1356c.739,1.49778,1.63574,1.49778,2.355,1.12333a2.59182,2.59182,0,0,0,1.34008-2.13823c.51157-7.57307-1.81737-13.50024-5.8965-17.91291Zm-15.752-28.754c-.23654.72922-.4237,1.44852-.56167,2.02985a2.99575,2.99575,0,0,1,.48282-1.882A1.07978,1.07978,0,0,0,81.50344,23.45375Zm6.06983,51.54448,1.36967,2.62111,1.55689,3.00535,1.44846,8.31649,1.32042,7.56759s-6.56257,7.4395-10.08033,7.4395a2.10784,2.10784,0,0,1-.57147-.07879h-.01973a5.33464,5.33464,0,0,0-.64051-.138,4.269,4.269,0,0,0-1.57657.07885c-.10838.02954-.20695.05912-.30546.08866a4.07468,4.07468,0,0,0-1.07408.54194.00965.00965,0,0,1-.00985.00985,4.19034,4.19034,0,0,0-.46309.36458l-.00986.00986c-.069.05912-.14777.1281-.21675.19709a8.53776,8.53776,0,0,0-1.5175,2.06924c-.05912.11824-.11824.22667-.17736.33505a10.97591,10.97591,0,0,0-.473,1.13313,7.91235,7.91235,0,0,0-4.08435-6.6793c5.791-3.40981,5.97287-7.98475,5.9775-8.18573a.49224.49224,0,0,0-.48017-.50232.45992.45992,0,0,0-.50518.47921c-.00529.18686-.20322,4.58432-6.15229,7.739a14.74173,14.74173,0,0,1-1.93886.163,2.33435,2.33435,0,0,1-1.11341-.18722c-2.80832-1.89189-2.28605-5.99105-2.28605-5.99105-3.02508-1.71453-5.10419-2.28605-7.53807-3.88234-.4237-.27587-1.78351-1.11347-2.17768-1.3992a32.9872,32.9872,0,0,1-3.70493-3.02507l-.77848-.58133a11.22445,11.22445,0,0,1-1.86236-2.21707c-.04926-.09858-.08865-.18722-.128-.27594-.02959-.05912-.04932-.11824-.069-.1675a1.54787,1.54787,0,0,1-.05912-.2562c-.00986-.00986-.1281-.473-.1281-.48282a5.45243,5.45243,0,0,1,3.05461-1.2613h.02959c-.02959-.01967-.09857-.069-.20695-.138-.069-.03939-.14783-.09851-.24634-.1675-.03939-.02954-.08871-.05912-.138-.09851a8.02109,8.02109,0,0,1-1.91161-1.99047.28726.28726,0,0,1-.01967-.08865c0-.34491,1.20212-.42376,2.36484-.42376.81787,0,1.616.03945,1.97073.05912.02959,0,.05912.00986.07885.00986a.49242.49242,0,0,1,.10838.00985s-.36458-.27587-.877-.68977l-.01967-.01967h-.00986c-1.37954-1.14306-3.25169-3.81336-2.27619-3.81336a.03443.03443,0,0,1,.01973-.00986,12.62639,12.62639,0,0,1,3.6458-.45329c.45329,0,.84746.01973,1.12333.02959.069,0,.1281.0098.18722.0098s.09851.00986.138.00986h.00986a.85347.85347,0,0,0,.10838.00985,29.68741,29.68741,0,0,1-6.03043-5.8432c-.26607-.30546-.54194-.61093-.8376-.92625-.25614-.31532-.46309-.5912-.62079-.808-.61092-.83754-.58133-1.04448-.24634-1.04448.24634,0,.6701.11824,1.11347.17736,0-.00986.00986-.00986.01973-.00986a.00966.00966,0,0,1,.00986.00986.60613.60613,0,0,0,.1281.00985.7195.7195,0,0,1,.1281.00986,3.37643,3.37643,0,0,1-.37444-.41384c-.15769-.17736-.35472-.43356-.61092-.77848-.09857-.13791-.20695-.2956-.32519-.46309-.24634-.35472-.53208-.78828-.8474-1.29083-.11824-.18722-.23648-.404-.37444-.61092-1.02476-1.685-.08871-2.28606.82767-2.493.04932,0,.08871-.00986.138-.00986.56167-.05912,1.08394-.07879,1.08394-.07879-.877-.9657-2.61124-1.43866-4.80859-3.11379a18.8841,18.8841,0,0,1-3.67545-3.705c-2.15795-2.81813-2.48308-4.80859-2.34518-6.00083.01973-.12811.03945-.2562.05912-.37444a2.3002,2.3002,0,0,1,.07885-.30547,1.05464,1.05464,0,0,1,.069-.18722,1.754,1.754,0,0,1,.11824-.26607c.00986-.01967.01973-.02953.02959-.04926a.16773.16773,0,0,1,.1281-.07885c.05912,0,.1281.03945.21675.14783.02959.03939.05912.08865.09851.138A7.63652,7.63652,0,0,0,41.0246,47.27a2.4304,2.4304,0,0,0,.335.21675,4.61365,4.61365,0,0,0,.53214.29561c.07885.03945.1675.07885.2562.11824.00986,0,.00986.00986.01967.00986.138.05912.28579.11824.43356.16756a5.22938,5.22938,0,0,0,1.60615.335,1.04433,1.04433,0,0,0,.77848-.23648.38534.38534,0,0,0,.09851-.14783c-2.72948-1.50758-4.82832-5.21256-5.656-7.06506-.03945-.08865-.07885-.17736-.10838-.26607a5.206,5.206,0,0,1-.23654-2.61118q0-.01974.00986-.01973c0-.00986.01973-.01973.02959-.02953l.00986-.01973c.0098,0,.0098-.00986.01967-.00986a.14027.14027,0,0,1,.05912-.01973c.02959,0,.05912-.0098.08871-.0098a1.75492,1.75492,0,0,1,1.0149.51235c.14783.1281.30547.28579.48288.473.1281.13791.24634.266.36458.37438a8.5491,8.5491,0,0,0,.68971.60112,5.26062,5.26062,0,0,0,.58139.404,3.75055,3.75055,0,0,0,.79814.34491,2.35469,2.35469,0,0,0,.63065.09851,1.25515,1.25515,0,0,0,.58133-.11824,14.12254,14.12254,0,0,1-3.163-5.40965c-.01973-.05912-.03945-.11824-.05912-.16756-.05912-.17736-.1281-.34485-.17736-.51235-.15769-.473-.28579-.89672-.37444-1.27116-.02959-.13791-.05912-.266-.08871-.39411a2.92756,2.92756,0,0,1,.2956-2.19741h.03945a5.41491,5.41491,0,0,1,1.93128,1.19231c.069.069.138.14783.19709.20695.07885.069.15769.15763.23648.23648.069.069.138.138.207.21675.1281.14784.26607.29566.41384.45329a1.0434,1.0434,0,0,0,.09857.11824v.00987c1.37948,1.53717,2.76888,3.39952,3.03489,3.75423-2.99549-5.06479-2.94623-8.1194-2.48308-9.64671a2.35339,2.35339,0,0,1,.10838-.31532,1.06745,1.06745,0,0,1,.07885-.18721,2.43048,2.43048,0,0,1,.197-.36459.2365.2365,0,0,1,.09857-.09856.26266.26266,0,0,1,.11824-.02953c.41384,0,1.15286.90652,1.84263,1.84263.46309.65031.89666,1.31055,1.18245,1.72439-.68977-1.17259-2.13829-4.57212-1.29083-7.06506l.08865-.26607V22.488a4.85978,4.85978,0,0,1,.63065-1.22184l.00986-.00986c.35472-.45329.64045-.66018.877-.66018.37444,0,.66018.54194,1.02476,1.46819a.02846.02846,0,0,0,.00986.01973c.01973.04926.03939.10838.05912.15763a.16654.16654,0,0,1,.01973.04926,4.885,4.885,0,0,0,.1675.5518c.09851.28579.24634.69963.46309,1.19231a24.95727,24.95727,0,0,0,4.73961,6.98627c1.31055,1.38934,2.55212,2.8378,3.73457,4.27645.2956.36458.58133.7193.86713,1.07408.56167.7193,1.11347,1.42873,1.63568,2.1185q.3991.53208.76861,1.03462c.5518.739,1.074,1.45838,1.5667,2.14815.111.15384.21447.30179.32158.45269l-.00625.00054c.53887.75827,1.02211,1.45707,1.47384,2.11531.19672.27942.38046.55252.55276.8065.46959.68924.88932,1.30911,1.23495,1.80793A102.11925,102.11925,0,0,1,73.74952,59.841c.05726.14531.06682.3.21406.3.04522,0,.05989-.3869.055-.43416a22.83452,22.83452,0,0,0-.855-3.18758,49.33362,49.33362,0,0,0-3.20237-6.5177c.26956.01065.5364.01858.81372.037.3638.02219.73235.04793,1.11136.07915.8151.07037,1.59748.1619,2.363.2639.24887.0332.48745.07193.73072.10789q.74156.11051,1.45214.24009c.29084.05335.58307.10585.86689.16527.60737.12365,1.20536.25278,1.77822.39646.108.02724.2132.05683.32.085.42087.10946.823.22932,1.22545.349.3383.0999.67311.2016.999.30805.38317.12648.75521.25873,1.12117.39417.23052.0848.46285.16882.6858.25723A29.44172,29.44172,0,0,1,86.452,54.07907c.15828.08516.3137.17158.46778.25867.23125.12931.45281.26258.675.39555.22842.13881.45919.27647.67816.41967.15686.096.30215.19817.45353.29722.2298.15426.46556.3063.685.46412.08781.06285.17208.127.25807.19047q.47913.35427.92457.7187c.08557.06988.17356.13911.25734.20947.36049.30257.70835.60858,1.03721.91891.0237.02237.045.04523.0685.06766.2977.28327.58055.56948.85341.8572.09118.09611.179.19251.26757.28892q.30231.32965.5835.66156c.102.11974.20394.23943.302.35954.17778.2177.347.43561.51265.65362.09238.122.18758.24376.27629.36566.14187.19426.27425.3878.4071.58145.09887.14452.20238.28946.29656.43332.20719.31623.4062.63137.59126.94321-1.87216,7.607-8.47412,11.83419-8.47412,11.83419ZM79.34549,43.07242q-1.59921-.31384-3.10567-.538c-.15035-.02249-.2891-.03434-.43813-.05563-.84193-.12022-1.673-.23028-2.47268-.3116-.32994-.03356-.63781-.04763-.96071-.07488-.59649-.05028-1.199-.106-1.77154-.13538-.39477-.02033-.76543-.01991-1.14924-.03073-.45246-.01269-.91778-.03621-1.355-.03621h-.13791c.20689-5.73484,1.24151-13.20392,2.29586-13.20392h.01973c1.56676.138,1.80324,2.72948,2.00032,3.11379a.37092.37092,0,0,0,.34485.22661.65745.65745,0,0,0,.28573-.07885,7.92794,7.92794,0,0,1,0-2.87725c.17736-1.5667,1.85249-3.96113,2.65064-3.96113.31533,0,.48282.37438.37445,1.33022-.2956,2.54226.24633,3.41919.52227,3.41919.09851,0,.15763-.08865.15763-.24634,0-3.32068,3.67539-7.03547,4.46374-7.03547.197,0,.20688.23648-.07885.79814-1.40908,2.72942.24633,3.06447.24633,3.06447s1.23172-6.20779,3.07434-6.20779a1.09582,1.09582,0,0,1,.18722.01967c1.951.44343,2.24666,4.77906,2.24666,4.77906s1.281-6.17826,2.65058-6.17826a.71136.71136,0,0,1,.56167.37444c1.55689,2.19735.04932,6.96654.04932,6.96654,1.32035-.28573,1.55683-.82773,2.63091-3.2123,1.75392-3.91187,3.705-4.70021,4.986-4.70021a2.89818,2.89818,0,0,1,1.44846.36458s-.197.29566-2.5324,7.79428c-1.665,5.328-.87266,16.02188-.32917,24.70559C91.87925,47.005,85.902,44.34838,79.34547,43.07241Z"/>
        <path class="cls-3" d="M97.05248,92.11407a7.08288,7.08288,0,0,1-.7193,3.06447c-2.68023,5.67572-5.63632,11.25286-9.72555,11.60759a6.23024,6.23024,0,0,1-5.12391-1.5667,2.22367,2.22367,0,0,0,1.685-1.36967c.56161-1.45832,1.51744-3.90207.1281-5.991a.5864.5864,0,0,0-.38431-.21675c-.89672-.08871-11.0657-4.59184-14.948-8.38547a9.34684,9.34684,0,0,1,3.9218.473.48766.48766,0,0,0,.56166-.739,43.77524,43.77524,0,0,1-3.02508-4.95636,31.00731,31.00731,0,0,1,4.04,2.78854l.10838.07885a.49424.49424,0,0,0,.739-.61093l-.14777-.27587C73.05885,83.906,72.54644,82.83189,72.31,82.29a37.14805,37.14805,0,0,1,7.08477,4.88744.4758.4758,0,0,0,.66018.03939.51818.51818,0,0,0,.07885-.69963c-2.48314-3.45858-3.52763-5.4589-3.71485-6.28664.81787.36464,2.98569,2.00032,6.36548,5.12391a.46882.46882,0,0,0,.63065-.00986.52333.52333,0,0,0,.08866-.66018,27.2105,27.2105,0,0,1-2.92652-5.96145,38.65116,38.65116,0,0,1,5.60673,4.85785.48172.48172,0,0,0,.55181.09851.4983.4983,0,0,0,.28572-.49268,33.55335,33.55335,0,0,0-1.85249-8.3263,29.94408,29.94408,0,0,1,6.38515,6.76947c.43356.61092.877,1.22184,1.32042,1.82289,2.2072,3.00535,4.17794,5.69545,4.17794,8.6614Z"/>
      </g>
      <path class="cls-7" d="M93.67268,82.87135c-.44343-.60112-.88685-1.20218-1.31055-1.81311a33.68209,33.68209,0,0,0-5.0056-5.68557c-1.5175-1.35981-2.72948-2.1185-3.20244-2.1185a.7771.7771,0,0,0-.49268.2562.49459.49459,0,0,0,0,.53208c1.2711,2.03971,1.93128,5.82348,2.2072,7.85334-3.15318-3.07434-5.12391-4.49327-5.85307-4.23706a.70017.70017,0,0,0-.45329.61092c-.07885.81787.67,2.52253,1.62587,4.31591-4.31591-3.74437-5.02539-3.47831-5.321-3.36992a.71164.71164,0,0,0-.46308.60106q-.13306,1.13813,2.06923,4.56224c-2.21707-1.64553-5.11405-3.53743-5.95159-3.10386a.70469.70469,0,0,0-.30546.87693,22.64079,22.64079,0,0,0,1.22184,2.68023c-3.13346-2.27619-3.54735-2.0693-3.84295-1.93135a.63065.63065,0,0,0-.34485.58139c0,.81781,1.57657,3.34034,2.64077,4.96622a8.83651,8.83651,0,0,0-4.04984.00986.50273.50273,0,0,0-.32519.335.47746.47746,0,0,0,.09851.45329c3.26156,3.88234,13.805,8.76979,15.963,9.33145.946,1.62581.18722,3.59655-.335,4.917a1.499,1.499,0,0,1-1.48791.81781c-.10838,0-.18722-.00981-.19709-.00981-.01149-.0006-.02111.00613-.03248.00619a.48608.48608,0,0,0-.41462.20617c-.00421.00613-.012.00788-.016.01425-.00463.00746-.00319.0166-.00746.02418a.45917.45917,0,0,0-.04414.07229.47785.47785,0,0,0-.02045.1376c-.00078.01058-.00439.02-.00451.03055a.48342.48342,0,0,0,.06435.23906l.00235.00872a6.46269,6.46269,0,0,0,5.725,2.76888c.28572,0,.57147-.00986.87693-.03945,4.62137-.404,7.61692-5.991,10.53356-12.17911C99.48636,90.80354,96.65836,86.95071,93.67268,82.87135Zm-10.504,20.9784c.51349-1.33335,1.33474-3.4878.4136-5.44435.44319.02256.95265.0409,1.44287.05539l2.82186.52582c-.15348,1.26563-.68652,3.9488-2.49492,5.17762a4.13684,4.13684,0,0,1-2.8743.60214,2.0625,2.0625,0,0,0,.69091-.91662Zm13.16447-8.67121c-2.68023,5.67572-5.63632,11.25286-9.72555,11.60759a6.5396,6.5396,0,0,1-4.53843-1.08021,6.85814,6.85814,0,0,0,1.05285.09322,4.84123,4.84123,0,0,0,2.78721-.82274c2.11627-1.44076,2.73327-4.36444,2.91178-5.80832l3.15908.58866a.11919.11919,0,0,0,.13266-.07721c1.18648-3.47013-2.5579-7.50806-3.50213-8.45367-.02778-.02785-.06285.01137-.04149.04438,2.23493,3.45347-.8471,5.54076-2.85224,6.46983-1.00953-.02448-2.354-.06754-2.93836-.13105-1.4063-.34377-11.05084-4.67519-14.8141-8.3525a9.34684,9.34684,0,0,1,3.9218.473.48766.48766,0,0,0,.56166-.739,43.77583,43.77583,0,0,1-3.02508-4.95636,31.00844,31.00844,0,0,1,4.04,2.78854l.10838.07885a.49425.49425,0,0,0,.739-.61093l-.14778-.27587C73.05884,83.906,72.54643,82.8319,72.31,82.29a37.14816,37.14816,0,0,1,7.08478,4.88745.47579.47579,0,0,0,.66018.03939.51819.51819,0,0,0,.07885-.69963c-2.48314-3.45858-3.52764-5.4589-3.71486-6.28665.81788.36464,2.98569,2.00032,6.36548,5.12391a.46881.46881,0,0,0,.63066-.00986.52334.52334,0,0,0,.08865-.66018A27.20961,27.20961,0,0,1,80.57718,78.723,38.65175,38.65175,0,0,1,86.1839,83.5808a.48175.48175,0,0,0,.55181.09851.49831.49831,0,0,0,.28573-.49269,33.55342,33.55342,0,0,0-1.8525-8.32629,29.944,29.944,0,0,1,6.38515,6.76946c.43356.61093.877,1.22184,1.32042,1.8229,2.20721,3.00535,4.17794,5.69544,4.17794,8.6614a7.08288,7.08288,0,0,1-.7193,3.06447Z"/>
    </g>
  </g>
</svg>
