<svg id="usa_normandy_prem_pilot_fighter_1_icon" xmlns="http://www.w3.org/2000/svg" width="150" height="150" viewBox="0 0 150 150">
  <defs>
    <style>
      .cls-1 {
        fill: #2d35a0;
      }

      .cls-1, .cls-2, .cls-3, .cls-4, .cls-5, .cls-6 {
        fill-rule: evenodd;
      }

      .cls-2 {
        fill: #ffc11b;
      }

      .cls-3 {
        fill: #ff943d;
      }

      .cls-4 {
        fill: #f4f4f4;
      }

      .cls-5 {
        fill: #241515;
      }

      .cls-6 {
        fill: #c02626;
      }
    </style>
  </defs>
  <path class="cls-1" d="M147.172,75A72.172,72.172,0,1,1,75,2.828,72.171,72.171,0,0,1,147.172,75Z"/>
  <path id="Shape_134_copy" data-name="Shape 134 copy" class="cls-2" d="M65.54,117.8l-1.8-4.761-2.687,4.321-5.083.237,3.28,3.891-1.346,4.908,4.714-1.917,4.252,2.8L66.507,122.2l3.974-3.18ZM80.33,107.36l4.845-1.556,4.028,3.11,0.018-5.089,4.2-2.87-4.835-1.59-1.431-4.884-3.006,4.107-5.087-.149,2.977,4.128Zm14.38,15.976-0.929,4.02,3.756-1.708,3.536,2.126-0.464-4.1,3.115-2.706-4.042-.826-1.611-3.8-2.035,3.59-4.11.359Zm12.143-14.463,4.433-.94,3.288,3.12,0.476-4.507,3.983-2.163-4.139-1.845-0.826-4.456-3.035,3.366-4.493-.592,2.264,3.926Zm-79.839-43.1L24.8,69.727l-4.513.415,3.074,3.33-1,4.42L26.475,76l3.895,2.317-0.53-4.5,3.407-2.988L28.8,69.939Zm-6.169-9.3,4.389-1.128,3.418,2.977L28.935,53.8l3.887-2.331L28.608,49.8l-1.015-4.417L24.7,48.876l-4.514-.4L22.619,52.3ZM40.9,34.587l-2.735-3.613-1.2,4.369-4.282,1.484,3.783,2.5,0.089,4.531,3.542-2.827,4.337,1.315L42.833,38.1l2.591-3.718ZM60.24,25.982l-1.8-3.206,1.62-3.3-3.606.723-2.639-2.561-0.427,3.652-3.251,1.719,3.342,1.535,0.63,3.623,2.492-2.7ZM118.571,86.7l4.372-1.194,3.462,2.925,0.216-4.527,3.851-2.389-4.239-1.6-1.081-4.4-2.835,3.535-4.52-.331,2.486,3.789Z"/>
  <path class="cls-3" d="M134.644,66.971s-1.751-14.677-8.349-23.7h-11.31s3.231-5.79,5.924-7.54c0,0-16.292-19.793-41.741-21.409,0,0-29.892,22.487-35.009,26.661s-9.291,10.5-4.443,16.966a10.811,10.811,0,0,0,6.194,9.426,41.568,41.568,0,0,0,10.637,3.77S54.123,73.164,48.6,73.7,38.5,78.82,36.215,82.725s-5.655,9.964-5.655,9.964-4.174-.943-5.251-0.4a10.717,10.717,0,0,0-2.558,2.693,4.678,4.678,0,0,0-3.1,3.77c-0.4,2.962-.539,4.443.539,4.982,0,0,2.558,2.424,5.386,2.019s6.328-4.577,6.328-4.577l8.214-.539s1.077,2.693,2.558,2.962,4.174-3.1,4.578-3.9a3.185,3.185,0,0,1,1.077-1.212s3.1-1.885,5.386-1.751a27.763,27.763,0,0,1-6.194,7.54,94.173,94.173,0,0,1-9.022,6.868s-4.309.673-5.117,0.807-3.366.674-4.039,3.232l0.4,1.481a3.155,3.155,0,0,0,.673,2.962,3.045,3.045,0,0,0,3.366,2.828,2.02,2.02,0,0,0,2.558,1.077c1.75-.673,8.214-4.847,10.772-9.021,0,0,16.562-8.887,19.793-11.176s9.291-9.964,9.291-9.964,14.812-1.481,21.679-5.521,13.6-11.849,14.677-13.061,8.483-6.328,9.964-6.732S134.644,66.971,134.644,66.971Z"/>
  <path class="cls-4" d="M127,66.595c-0.74-.673-2.289.538-2.289,0.538s-1.144-.269-0.808-0.673,2.289-1.683,3.636-1.346a2.449,2.449,0,0,1,1.683,1.683S127.737,67.268,127,66.595Zm-5.722.606s-1.212-1.952.067-2.289a3.259,3.259,0,0,1,2.356.337C121.274,66.258,121.274,67.2,121.274,67.2Zm-3.3.135s-1.683-1.347-.4-2.289a2.615,2.615,0,0,1,2.558-.337C117.907,65.854,117.975,67.335,117.975,67.335ZM94.229,61.177l-0.962.032s13.128-9.156,17.369-12.59A95.989,95.989,0,0,1,96.229,60.552,3.95,3.95,0,0,1,94.229,61.177Zm-4.3-3.919a4.587,4.587,0,0,1-2.224.713l-1.438.074S105.452,43.435,110.1,39.126C110.1,39.126,105.456,47.378,89.927,57.258ZM82.936,50.71a3.348,3.348,0,0,1-2.461.6s22.015-17.706,24.169-19.793C104.644,31.519,101.536,37.217,82.936,50.71Zm-5.289-8.082L98.653,24.651S87.544,39.126,77.647,42.627ZM74.82,32.192L89.7,19.669l0.673,0.2L75.291,34.009ZM72.4,31.519c-1.212,5.184-2.626,7.742-2.087,8.348s2.424,1.279,2.356,2.424-1.414,3.972-1.279,4.511,2.289,1.818,2.289,3.9S72.6,55.621,72.6,56.092s3.636,0.539,4.107,2.087,0.875,2.558,1.414,2.558,4.915-.135,5.251,1.952,0.2,3.77.4,4.174,2.9,0.606,3.164,2.087-0.135,4.107,0,4.443-0.673.943-1.01,0.539-0.2-3.9-.471-4.241-2.154-.673-2.895-1.885-0.067-3.972-.808-4.443-4.78-.2-5.588-1.279-0.875-2.491-1.414-2.828-3.232-.538-3.366-1.683S72.6,53,72.127,51.985s-2.154-3.568-2.087-5.049,1.279-2.828.875-3.5-2.289-1.414-2.289-3.636,2.289-8.954,2.693-11.108c0.291-1.553.581-4.915,0.721-6.677-7.638,5.933-18.171,14.067-21.121,16.1-4.78,3.3-11.984,10.368-11.041,15.148,0.553,2.8,3.267,5.472,4.75,6.752a4.081,4.081,0,0,1,1.3,2.1l0.009,0.037c-7.069-1.953-9.762-7.742-8.618-12.388s7.608-9.695,7.608-9.695L78.59,14.553,80.408,15.5s-3,2.346-7.108,5.54A45.279,45.279,0,0,1,72.4,31.519ZM47.015,74.2c1.548-.269,5.925-1.01,5.925-1.01A3.424,3.424,0,0,1,52,74.539c-0.539.337-3.9,0.269-7.2,1.683s-7.271,6.934-7.81,8.012c-0.413.827-3.6,6.017-5.064,8.385a1.054,1.054,0,0,1-1.668.165s7.81-13.128,9.628-14.946A17.11,17.11,0,0,1,47.015,74.2Zm-14.34,38.847a5.429,5.429,0,0,0-3.3,3.3,1.658,1.658,0,0,1-.539-1.616c0.269-.943,1.952-2.155,3.03-2.424S33.146,112.443,32.674,113.049Zm0.673,1.817c0.337,0,1.683.4,0.471,1.145a5.449,5.449,0,0,0-3.9,3.7,3.115,3.115,0,0,1-.4-2.828C30.116,115.405,33.011,114.866,33.348,114.866Zm-1.885,4.04a4.532,4.532,0,0,1,2.76-1.145c0.337,0.135.875,1.212,0.2,1.28A10.879,10.879,0,0,0,32,120.454c-0.337.472-1.414,2.424-1.616,2.02A4.13,4.13,0,0,1,31.463,118.906Zm1.212-22.689a3.936,3.936,0,0,1,.269-2.693,7.427,7.427,0,0,0,2.962,4.309s0.943,1.077.4,1.01S33.146,97.362,32.674,96.218Zm3.636,24.034a1.106,1.106,0,0,1,.606.674s-0.875,4.78-1.481,4.51-1.279-2.9-1.145-3.366A5.154,5.154,0,0,1,36.31,120.252Zm0.337-22.015c-0.135-.538.943-0.74,1.279-0.673a6.071,6.071,0,0,1,.741,1.481C38.464,98.978,36.781,98.776,36.647,98.237ZM50.179,78.646c-0.539-.2-3.838,1.481-3.838,1.481l-0.471-.808A8.651,8.651,0,0,1,50.448,77.5S50.717,78.848,50.179,78.646Zm1.952,14.34c-0.74,1.952-4.309,4.174-4.309,4.174S52,93.794,52.2,89.418A5.189,5.189,0,0,1,52.131,92.986Zm-0.471,8.079c0.337-.2,2.895-1.212,2.962-0.808s-1.481,1.414-2.693,2.424-12.455,10.031-12.455,10.031-0.673.539-.943,0.067A1.569,1.569,0,0,1,38.8,111.5C44.187,107.932,51.323,101.267,51.66,101.065Zm4.511-13.936c0.4-1.144.875-5.857,1.549-6.261a1.191,1.191,0,0,1,1.212-.067,23.668,23.668,0,0,1-2.626,11.31c-0.471.606-1.481-.067-1.683-0.606S55.767,88.273,56.171,87.129Zm2.962-1.279c0.269-2.558.741-4.847,1.145-3.1,0,0,.2,3.366.135,5.049s-2.02,6.867-2.693,7.136-1.279.269-1.145-1.077S58.864,88.408,59.133,85.85Zm2.626-15.821L63.038,70.1c-2.828,1.953-4.645,6.531-4.645,6.531C58.46,71.577,61.759,70.028,61.759,70.028Zm9.964,1.952c-1.145-1.683-6.8-4.578-6.8-4.578l3.1-.4A15.451,15.451,0,0,1,71.723,71.981Zm0.471,23.092c0.539-1.01.673-3.837,0.875-4.713a1.429,1.429,0,0,1,2.289-.606c0.875,0.673-.808,3.972-1.481,5.655s-4.04,4.848-4.04,4.848a0.816,0.816,0,0,1-.808-1.077C69.232,98.641,71.655,96.083,72.194,95.073Zm10.3-11.916c0.673,0.067.269,1.751-.606,3.164A2.185,2.185,0,0,1,79.6,87.4a5.966,5.966,0,0,1,.539-2.02C80.61,84.436,81.821,83.089,82.495,83.156Zm6.732-1.616c0.471-.471,1.549.943,1.818,1.818s-0.2,2.087-1.549,3.568-2.222.673-2.222,0.673C88.352,87.263,88.756,82.012,89.227,81.541Zm5.655-2.222c0.673,0.067.741,2.087,0.337,4.04S94.277,84.772,93,85.446l0.808-5.117C94.007,79.05,94.209,79.252,94.882,79.319Zm-0.673-10.7L106.6,59.929l-0.167.619a3.177,3.177,0,0,1-1.271,1.8l-8.131,5.583a3.915,3.915,0,0,1-2.216.688h-0.6Zm4.04,9.493c-0.135-1.212.2-1.212,1.144-1.279s0.875,2.356.741,3.5a2.7,2.7,0,0,1-2.155,2.289A31.68,31.68,0,0,0,98.249,78.107Zm6.193-.337c0.27,1.279-.673,2.356-1.683,3.366,0,0-.2-4.915.2-5.521S104.173,76.491,104.442,77.77Z"/>
  <path class="cls-5" d="M129.571,65.6c-1.078-.808-3.165-0.2-3.165-0.2a3.39,3.39,0,0,1,1.751-1.01A2.92,2.92,0,0,1,129.571,65.6Zm2.154,2.02a49.433,49.433,0,0,0-.4-9.156C130.648,55.1,125.4,43.788,125.4,43.788l1.885-.4a54.431,54.431,0,0,1,8.483,24.506Zm-13.6,3.837,0.135-1.279a10.111,10.111,0,0,0-2.76-.538c-0.943.067,0.067-1.616,0.875-1.885s15.35-.135,15.35-0.135-6.732.539-8.348,1.01A32.412,32.412,0,0,0,118.125,71.458Zm8.281-7.675A7.356,7.356,0,0,0,123.848,65a2.2,2.2,0,0,1,1.683-1.616A1.184,1.184,0,0,1,126.406,63.783Zm-4.645.471c-3.232-.135-3.3,1.683-3.3,1.683s-0.269-1.683.741-2.02A4.5,4.5,0,0,1,121.761,64.255Zm-5.453-20.871,3.3,0.337s-1.167,3.568-2.065,6.441-3.321,4.309-4.4,5.386-2.513,6.014-3.231,7.54-5.745,5.745-6.463,6.463c-0.431.431-5.2,1.153-8.937,1.662l-0.129-.854s4.309-1.436,4.937-1.616a76.777,76.777,0,0,0,7.092-5.3c0.18-.269,1.077-3.411.628-2.962s-8.886,6.643-9.964,7.181-2.873.539-2.514,0.359,11.759-8.259,14.273-11.041a34.709,34.709,0,0,0,5.027-7.9c0.359-.9.9-2.424,0.538-3.052,0,0-16.607,12.657-18.4,13.914s-6.733,4.488-7.181,4.668-1.257,1.167-.987,1.347A10.6,10.6,0,0,0,89,66.5a23.285,23.285,0,0,1,2.693-1.885,2.07,2.07,0,0,1,.808.539l4.937-3.232,1.347,0.539S92.587,66.14,92.5,66.768s0.269,1.436-.449,1.526-2.244.449-2.244,1.167c0,0.392.107,1.449,0.2,2.331l-0.024,0S88.1,73.68,87.56,73.59s-0.18-4.4-.449-5.117-1.975-.538-2.693-1.347-0.359-3.411-.9-4.847-4.309-1.346-5.027-1.346-0.987-1.885-1.616-2.783-2.962-1.077-3.591-1.436,0.718-5.027.718-6.014a7.06,7.06,0,0,0-2.065-3.591c-0.539-.269.449-2.872,0.718-4.578s-1.616-1.975-2.244-2.962,0.539-3.591,1.436-6.194c0.71-2.059,1.364-9.224,1.606-12.132l0.01,0.013s2.962-2.065,3.411-1.975,0.988,2.334.988,2.334a15.178,15.178,0,0,1,5.117-2.424,47.559,47.559,0,0,0-3.68,4.219l1.077,0.718c0.359,0.628-.987,3.321-0.987,3.321s7.81-5.117,9.336-8.887a23.546,23.546,0,0,0-7.72-2.962,20.956,20.956,0,0,0-2.226-.3l0.969-.871a52.6,52.6,0,0,1,26.121,8.146c12.657,8.214,16.024,13.6,16.024,13.6a23.189,23.189,0,0,0-3.5,3.5C117.52,41.028,116.308,43.384,116.308,43.384ZM90.882,19.91L75.711,32.3a10.7,10.7,0,0,1,1.077,3.86l11.221-9.066L77.057,38.851l1.975,0.18-1.257,1.616,0.09,1.257S93.395,29.695,99.5,23.321C99.5,23.321,93.754,22.872,90.882,19.91Zm10.144,4.04s0.09,0-.359-0.359C97.075,27.81,77.6,43.609,77.6,43.609V44.6L79.93,43.16l-1.706,2.693a1.952,1.952,0,0,0,1.436-.09C80.379,45.4,90.522,37.5,91.42,36.786a17.1,17.1,0,0,1,3.321-1.616c-2.334,3.86-14.9,12.208-14.9,12.208s-0.359,1.885.18,1.975a10.632,10.632,0,0,0,2.424-.449C99.768,36.517,106.5,28.258,106.5,28.258Zm6.553,5.655S94.023,41.9,83.969,49.264c0,0-2.6,2.6-2.334,2.783a18.62,18.62,0,0,0,3.86.269c0.269-.09,11.131-7.72,11.131-7.72a2.037,2.037,0,0,1,.269,1.167c-0.18.27-10.682,8.079-10.682,8.079s-1.8,1.077-1.8,1.436a8.347,8.347,0,0,0,.538,1.616s12.657-8.079,16.158-10.952S112.246,35.8,112.246,35.8,110.63,31.4,107.578,29.6Zm5.386,8.169s-15.171,13.465-16.068,14-10.951,7.092-11.041,7.361a1.534,1.534,0,0,0,1.257.9c0.359-.09,2.783-0.987,2.783-0.987s9.425-6.284,9.874-6.194-0.179,1.526-.179,1.526l-9.156,6.1s-3.68,1.616-3.68,2.065,0.269,1.077.808,0.718,8.438-4.578,11.4-6.553S115.3,42.442,115.3,42.442A8.912,8.912,0,0,0,112.964,37.774ZM72.569,72.154c0,0.808-.538,1.077-0.987.9s-2.693-2.6-5.835-3.052-4.578,1.346-5.565,2.962S59.194,77,58.925,77.091s-1.8-.628-1.8-1.077v-4.4s-8.161-1.347-12.649-4.4a10.6,10.6,0,0,1-5.027-8.887A32.791,32.791,0,0,0,53.18,65.6c7.81,1.705,10.952,1.346,14.273,2.334S72.569,71.346,72.569,72.154ZM61.259,61.472s-7.989-2.693-11.041-5.027-2.962-7.361-1.8-9.964,3.77-5.835,11.221-9.874c0,0,.09,4.129-1.526,5.3a3.724,3.724,0,0,1-2.783.9s0.449,2.962-1.706,3.232a2.889,2.889,0,0,1-1.257,4.039s1.885,0.449.538,2.065c0,0,3.5,0,2.6,3.052a1.689,1.689,0,0,1,2.424-.269,5.171,5.171,0,0,1,1.706,2.513s1.526-.808,2.244-0.359,1.347,2.244.9,2.872A11.406,11.406,0,0,1,61.259,61.472ZM56.77,41.095c0.808-.359.628-1.706,0.628-1.706l-2.244,1.436A1.74,1.74,0,0,0,56.77,41.095ZM49.41,53.214a13.394,13.394,0,0,0,2.334-.988,1.233,1.233,0,0,0-.09-1.616c-0.359-.359-2.693-0.269-2.693-0.269A5.622,5.622,0,0,1,50.4,51.508C50.756,52.047,49.41,53.214,49.41,53.214Zm4.4-8.618c0.9-.539.269-2.154,0.269-2.154a6.1,6.1,0,0,0-2.6,2.244A3.408,3.408,0,0,0,53.808,44.6Zm-1.8,1.975c-0.628-.538-2.334,0-2.334,0a4.228,4.228,0,0,1,1.257,1.077c0.09,0.359-1.257.808-1.616,0.808,0,0,1.975.987,2.693,0.269A1.4,1.4,0,0,0,52.013,46.571Zm6.194,12.478a1.851,1.851,0,0,0-.359-1.436,1.125,1.125,0,0,0-1.436-.359A1.361,1.361,0,0,0,56.5,56c-0.269-.808-3.142-0.179-3.142-0.179a5.659,5.659,0,0,0,.988-1.616c0.09-.538-0.539-0.9-1.436-0.808a6.052,6.052,0,0,0-2.244,1.167L51.025,55.1a6.3,6.3,0,0,1,1.706-.539c0.539,0-.269,2.154-0.269,2.154h2.693c0.628,0-.539,1.167-0.539,1.167a0.89,0.89,0,0,0,.988.09c0.628-.269,1.257.9,1.257,0.9L59.1,60.126l0.808-.539Zm2.872-1.167a1.3,1.3,0,0,0-1.077.09s1.077,1.885,1.347,1.616A1.715,1.715,0,0,0,61.079,57.881ZM42.856,84.9c0.359,0.9-1.346,2.513-2.244,2.783a1.132,1.132,0,0,1-1.347-1.436,14.4,14.4,0,0,1,1.526-2.962C41.51,82.746,42.5,84,42.856,84.9Zm3.523,2.558c-0.179.449-7.294,4.174-8.012,4.444a1.22,1.22,0,0,1-1.167-.09s7.091-3.5,9.515-5.386C46.716,86.427,46.559,87.01,46.38,87.459Zm-8.191,6.867c-0.9.449-1.1-.067-1.1-0.067s8.146-3.366,10.839-4.982L49.5,89.389l-5.386,2.872a2.551,2.551,0,0,1,1.167.987,24.848,24.848,0,0,1,3.591.09c0.269,0.18-.135.651-0.135,0.651l-3.433.269s-0.382,3.927-1.1,4.825a17.346,17.346,0,0,1-2.962,2.334l-0.808-.359a74.817,74.817,0,0,1-7.9.718s-2.873,2.693-3.321,3.232a11.5,11.5,0,0,1-4.129,1.526,18.19,18.19,0,0,1-3.276-1.235s-1.481-1.1-1.571-1.728c0,0,2.065-.179,2.334-0.987a1.821,1.821,0,0,0-1.885-2.424,11.763,11.763,0,0,0,1.077-2.154c0.09-.539,1.167,1.436,1.8.808s-0.269-3.232-.269-3.232l1.8-.359s1.347,1.8,2.244,1.8,2.334-3.232,2.334-3.232l3.77,0.09s0.269,3.5,3.142,4.668l0.628,0.18,2.6,0.359L39,97.468A4.139,4.139,0,0,0,40.523,96.3a0.967,0.967,0,0,0,0-1.077l-2.065-.09,2.154-.628-0.449-.539A4.228,4.228,0,0,0,38.189,94.326Zm15.619-15.17s-0.808,2.872-2.244,3.5S49.05,81.49,49.05,81.49,50.936,79.6,51.2,78.527s-0.269-.987-0.269-0.987A8.49,8.49,0,0,0,46.447,79.6s-0.09-1.346.359-1.616,3.142-2.424,5.745-1.436a13.209,13.209,0,0,1,.179,2.244C52.641,79.246,53.808,79.156,53.808,79.156ZM52.731,93.07c0.9-1.436.449-3.95,0.539-4.219s0.9-1.885.9-1.885a21.965,21.965,0,0,0,1.077,3.77c0.539,1.077,2.244,3.5,2.244,3.5l-3.142,3.321s-2.514-.629-6.1,1.975L48.6,97.109A26.689,26.689,0,0,0,52.731,93.07Zm4.488,14.272c-0.269.629-1.346-.269-1.346-0.269l0.718-.718S57.488,106.714,57.219,107.342Zm3.142-3.141a4.523,4.523,0,0,1-.9,1.167,0.82,0.82,0,0,1-1.077-.629l0.269-.628Zm1.616-1.885,2.334,0.359-1.346,1.077a10.6,10.6,0,0,1-1.616.449c-0.628.089-.539-1.078-0.539-1.078Zm2.962-2.873,1.526-.18a1.509,1.509,0,0,1,.718.628,3.4,3.4,0,0,1-1.347,1.077,13.178,13.178,0,0,1-1.885,0Zm5.925-8.887a2.54,2.54,0,0,1,1.526-.18c0.359,0.269-.269,3.95-0.628,4.578a45.938,45.938,0,0,1-3.052,3.95c-0.449.449-.808-0.269-1.077-0.359a20.894,20.894,0,0,0,3.052-4.309A7.451,7.451,0,0,0,70.864,90.556Zm4.668,0a4.179,4.179,0,0,1,1.167-.9s0.269,3.5.179,4.04-2.693,3.68-5.565,6.463a32.234,32.234,0,0,0,3.142-5.655C75.083,92.531,75.083,91.095,75.532,90.556Zm7.63-8.079s-0.359.718-.628,1.436A9.545,9.545,0,0,1,81.277,86.7a2.137,2.137,0,0,1-1.885.539A29.706,29.706,0,0,1,81.1,82.926C81.636,82.208,83.162,82.477,83.162,82.477Zm5.117,1.257a14.228,14.228,0,0,1,.359-2.6l1.257,0.179a2.8,2.8,0,0,1,.628,3.232c-0.808,2.064-1.346,3.052-1.885,3.142s-1.975-.09-1.706-0.539A9.316,9.316,0,0,0,88.278,83.734Zm5.117-3.411c0.179-.9,1.077-1.616,1.8-0.808a4.831,4.831,0,0,1,.18,2.873c-0.449,1.257-.18,2.424-1.077,2.962s-1.975.18-1.616-.628A34.548,34.548,0,0,0,93.395,80.323Zm4.937-2.6a1.312,1.312,0,0,1,1.347-.9,9.625,9.625,0,0,1,.269,3.142c0,1.346.179,2.693-.538,2.783s-1.706-.269-1.526-0.9S98.063,78.438,98.332,77.72Zm3.321-1.706c0.18-.539,1.257-1.436,1.8-0.269A16.305,16.305,0,0,1,103.9,78.8a7.551,7.551,0,0,1-.449,2.693s-1.347,1.436-1.526-.18,0.449-2.693.269-3.591S101.474,76.553,101.653,76.014Z"/>
  <path class="cls-4" d="M40.555,99.046s0.2,1.953.539,2.02a1.117,1.117,0,0,0,1.212-.875C42.372,99.518,40.555,99.046,40.555,99.046Zm2-3.1a2.455,2.455,0,0,1-.047,2.471,7.271,7.271,0,0,1-1.351-1.762,2.287,2.287,0,0,1,.543-1.324l0.246,0.087A1.1,1.1,0,0,1,42.559,95.947Zm-18.566.339s-1.346,1.616-.808,1.885,2.02,0.135,2.356-.539S25.676,95.68,23.993,96.286Zm-2.356,3.232c-0.2.227-.673,2.76-0.269,2.76s2.02-1.347,1.885-2.087A1.023,1.023,0,0,0,21.636,99.518ZM21.5,103.894s-0.741,1.952-.135,2.289a1.194,1.194,0,0,0,1.548-1.078A1.158,1.158,0,0,0,21.5,103.894Zm7.069,0.606s0.4,2.019,0,2.154a1.634,1.634,0,0,1-1.414-1.414C27.224,104.567,28.5,104.23,28.571,104.5Z"/>
  <path class="cls-6" d="M46.955,107.106s4.488-6.463,5.206-7.54a34.386,34.386,0,0,0,1.975-5.027s3.77-6.643,4.129-10.233A7.884,7.884,0,0,1,58.624,87c-0.18.9-2.962,8.8-2.962,8.8l0.269,1.436s-2.334,4.129-3.052,4.667S46.955,107.106,46.955,107.106ZM45.339,82.869s0.18-1.436,2.693-1.975l0.09,0.628a7.063,7.063,0,0,0-2.154,1.616Z"/>
  <path class="cls-3" d="M75,2.311A72.689,72.689,0,1,0,147.688,75,72.771,72.771,0,0,0,75,2.311Zm1.616,1.074v9.694A61.653,61.653,0,0,1,113.851,26.62l6.285-7.22c0.744,0.6,1.469,1.229,2.188,1.862l-6.271,7.2a61.877,61.877,0,0,1,19.879,34.426l9.406-1.533c0.181,0.938.357,1.878,0.5,2.829l-9.414,1.534A62.387,62.387,0,0,1,137.118,75a61.657,61.657,0,0,1-7.542,29.642l8.257,4.767q-0.693,1.26-1.434,2.489l-8.257-4.767a62.155,62.155,0,0,1-30.318,25.537l3.149,9.095q-1.337.522-2.7,0.99l-3.15-9.1a62.23,62.23,0,0,1-39.614.093l-3.188,9.209c-0.91-.305-1.814-0.622-2.707-0.961l3.193-9.225a62.151,62.151,0,0,1-30.531-25.54l-8.529,4.924c-0.5-.817-0.969-1.651-1.435-2.489l8.525-4.921A61.661,61.661,0,0,1,13.241,75a62.392,62.392,0,0,1,.734-9.557l-9.759-1.59c0.149-.949.32-1.891,0.506-2.828l9.758,1.59A61.875,61.875,0,0,1,34.245,28.52l-6.426-7.382c0.72-.631,1.448-1.253,2.193-1.855l6.431,7.389a61.658,61.658,0,0,1,37.3-13.592v-9.7c0.42-.007.835-0.032,1.257-0.032C75.542,3.344,76.077,3.373,76.616,3.385Z"/>
</svg>
