<svg id="Layer_1" data-name="Layer 1" xmlns="http://www.w3.org/2000/svg" viewBox="0 0 150 150"><defs><style>.cls-1{fill:#eee;}.cls-2{fill:#1b471f;}.cls-3{fill:#1270a0;}.cls-4{fill:#02578e;}</style></defs><path class="cls-1" d="M71,144c-2.16-2.88-3-3-8.78-3H33a15.22,15.22,0,0,1-15-15.44L18,16.07,2.93,1H147.07L132,16.07l0,109.49A15.8,15.8,0,0,1,116.22,141H87c-5,0-5.29-.61-8,3l-4,5Z"/><path class="cls-2" d="M15,6l8,8,0,111.56A10.18,10.18,0,0,0,33,136H62.22c7.27,0,9.66,1.91,12.78,6.07,3.12-4.16,4.73-6.07,12-6.07h29.22A10.85,10.85,0,0,0,127,125.56L127,14l8-8Z"/><rect class="cls-1" x="22" y="90" width="106" height="8"/><path class="cls-3" d="M123,59.81l-8.12-9.92a5.86,5.86,0,0,0-8.69-.42L96,59.81,91.32,64.5l-3.84-4.69-8.12-9.92a5.86,5.86,0,0,0-8.69-.42L60.43,59.81l-4,4.06-3.32-4.06L45,49.89a5.86,5.86,0,0,0-8.69-.42L26,59.81l-3,3.07V90H127V64.67Z"/><path class="cls-4" d="M115.28,49.57a6.36,6.36,0,0,0-9.43-.45L91.36,63.81,79.75,49.57a6.36,6.36,0,0,0-9.43-.45L56.44,63.2,45.35,49.57a6.36,6.36,0,0,0-9.43-.45L23,62.17V63.6l.51-.53L36.63,49.83a5.36,5.36,0,0,1,7.95.37l20,24.66A.5.5,0,0,0,65,75a.45.45,0,0,0,.31-.11.5.5,0,0,0,.08-.7L57.07,64,71,49.83A5.35,5.35,0,0,1,79,50.2L91,64.92h0l8.1,9.94a.51.51,0,0,0,.39.18.5.5,0,0,0,.32-.11.5.5,0,0,0,.07-.7L92,64.59l14.57-14.76a5.3,5.3,0,0,1,4.06-1.58,5.36,5.36,0,0,1,3.89,2L126.63,65a.55.55,0,0,0,.37.18v-1.3Z"/></svg>