<svg id="_90_infantry_division" data-name="90_infantry_division" xmlns="http://www.w3.org/2000/svg" width="150" height="150" viewBox="0 0 150 150">
  <defs>
    <style>
      .cls-1 {
        fill: #2e492f;
      }

      .cls-1, .cls-2 {
        fill-rule: evenodd;
      }

      .cls-2 {
        fill: #ac3434;
      }
    </style>
  </defs>
  <path class="cls-1" d="M145,4H5V145H145V4"/>
  <path id="Shape_6_copy_8" data-name="Shape 6 copy 8" class="cls-2" d="M138,33V12H12V33H64V59.818c-5.244.006-20.517,0.373-31.3,4.194C14.577,70.436,12.53,89.532,12.53,89.532s-2.563,18.5,3.622,30.759S34.985,136.339,45.8,137.509c9.367,1.014,24.876.521,28.852,0.372,3.976,0.149,19.484.642,28.851-.372,10.81-1.17,23.459-4.959,29.644-17.218s3.622-30.759,3.622-30.759-2.047-19.1-20.171-25.521C106.261,60.35,91.8,59.86,86,59.82V33h52ZM63,117.537a59.471,59.471,0,0,1-18.058-1C35.247,114.458,33,104.305,33,100.644V96.536a15.365,15.365,0,0,1,1.5-6.772,13.969,13.969,0,0,1,10.967-7.789A79.713,79.713,0,0,1,63,80.838v36.7Zm24-36.7a79.712,79.712,0,0,1,17.538,1.137,13.97,13.97,0,0,1,10.967,7.789,15.362,15.362,0,0,1,1.5,6.772v4.108c0,3.661-2.247,13.814-11.941,15.894a59.476,59.476,0,0,1-18.059,1v-36.7Z"/>
</svg>
