<?xml version="1.0" encoding="UTF-8"?><svg id="a" xmlns="http://www.w3.org/2000/svg" width="150" height="150" viewBox="0 0 150 150"><circle cx="75" cy="64.4" r="59.89" fill="#002868"/><g><g><polygon points="58.54 23.18 57.98 28.53 57.41 23.18 57.98 17.83 58.54 23.18" fill="#ddd"/><polygon points="57.98 22.61 63.32 23.18 57.98 23.75 52.63 23.18 57.98 22.61" fill="#ddd"/></g><g><polygon points="58.24 23.44 55.54 25.62 57.72 22.92 60.42 20.74 58.24 23.44" fill="#ddd"/><polygon points="58.24 22.92 60.42 25.62 57.72 23.44 55.54 20.74 58.24 22.92" fill="#ddd"/></g></g><polygon points="75 24.32 84.15 52.48 113.75 52.48 89.8 69.88 98.95 98.03 75 80.63 51.05 98.03 60.2 69.88 36.25 52.48 65.85 52.48 75 24.32" fill="#eee"/><g><path d="M96.05,72.8h1.22c-1.13,1.5-2.35,2.98-3.65,4.44-.34,.39-.69,.77-1.05,1.15-.59,.63-1.19,1.25-1.81,1.87-2.39,2.39-4.87,4.54-7.39,6.45-10.69,8.08-22.11,11.73-30.21,9.78-.51-.12-1-.26-1.48-.43-1.94-.67-3.65-1.7-5.07-3.12-6.4-6.4-5.01-18.8,2.43-31.16l1.58,1.15c-5.96,10.95-6.79,21.63-1.12,27.29,.96,.96,2.08,1.74,3.31,2.34,1.23,.6,2.59,1.01,4.04,1.25,7.01,1.15,16.3-1.76,25.27-7.99,3.09-2.14,6.14-4.68,9.05-7.59,.34-.34,.67-.68,1-1.02,.23-.24,.45-.47,.67-.71,1.13-1.21,2.2-2.44,3.2-3.69Z" fill="#afb1ad"/><path d="M59.3,48.8c3.39-3.39,6.96-6.31,10.58-8.72l-.58,1.8c-2.65,1.95-5.27,4.18-7.78,6.69-1.28,1.28-2.49,2.59-3.62,3.92h-2.03c1.09-1.25,2.23-2.47,3.44-3.68Z" fill="#afb1ad"/><path d="M107.13,51.67h-.56c1.13-6.2,.12-11.61-3.38-15.11-5.15-5.15-14.45-4.94-24.33-.38l-.29-.89c10.12-4.43,19.57-4.48,24.88,.83,3.63,3.62,4.74,9.17,3.69,15.55Z" fill="#afb1ad"/><path d="M98.56,73.52c-1.81,2.43-5.9,4.18-5.9,4.18,0,0,.5-4.42,2.3-6.85s3.71-3.31,4.7-2.57,.7,2.81-1.11,5.24Z" fill="#afb1ad"/></g><g><circle cx="119.13" cy="84.28" r=".63" fill="#ddd"/><circle cx="118.54" cy="73.84" r=".63" fill="#ddd"/><circle cx="121.09" cy="71.67" r=".63" fill="#ddd"/><circle cx="112.68" cy="69.5" r=".63" fill="#ddd"/><circle cx="101.53" cy="77.76" r=".63" fill="#ddd"/><circle cx="102.81" cy="86.64" r=".63" fill="#ddd"/><circle cx="111.18" cy="66.17" r=".53" fill="#ddd"/><circle cx="114.66" cy="82" r=".8" fill="#ddd"/><circle cx="105.7" cy="77.83" r=".8" fill="#ddd"/><circle cx="105.07" cy="72.37" r=".8" fill="#ddd"/><path d="M118.98,67.28l1.04-.15-1.04-.15c-.05-.19-.17-.34-.35-.42l-.26-2.4-.26,2.4c-.17,.08-.3,.23-.35,.42l-1.04,.15,1.04,.15c.05,.19,.17,.34,.35,.42l.26,2.4,.26-2.4c.17-.08,.3-.23,.35-.42Z" fill="#ddd"/><path d="M116.84,85.35l1.04-.15-1.04-.15c-.05-.19-.17-.34-.35-.42l-.26-2.4-.26,2.4c-.17,.08-.3,.23-.35,.42l-1.04,.15,1.04,.15c.05,.19,.17,.34,.35,.42l.26,2.4,.26-2.4c.17-.08,.3-.23,.35-.42Z" fill="#ddd"/></g><g><circle cx="36.22" cy="39.18" r=".63" fill="#ddd"/><circle cx="37.7" cy="50.16" r=".63" fill="#ddd"/><circle cx="40.82" cy="57.81" r=".63" fill="#ddd"/><circle cx="33.74" cy="56.55" r=".63" fill="#ddd"/><circle cx="37.3" cy="62.83" r=".63" fill="#ddd"/><path d="M38.42,69.92l1.04-.15-1.04-.15c-.05-.19-.17-.34-.35-.42l-.26-2.4-.26,2.4c-.17,.08-.3,.23-.35,.42l-1.04,.15,1.04,.15c.05,.19,.17,.34,.35,.42l.26,2.4,.26-2.4c.17-.08,.3-.23,.35-.42Z" fill="#ddd"/><circle cx="27.16" cy="54.99" r=".63" fill="#ddd"/><circle cx="22.84" cy="56.4" r=".63" fill="#ddd"/><circle cx="28.8" cy="59.84" r=".53" fill="#ddd"/></g><path d="M75,118.9c-30.05,0-54.5-24.45-54.5-54.5S44.95,9.9,75,9.9s54.5,24.45,54.5,54.5-24.45,54.5-54.5,54.5Zm0-107.39c-29.16,0-52.89,23.73-52.89,52.89s23.73,52.89,52.89,52.89,52.89-23.73,52.89-52.89S104.16,11.51,75,11.51Z" fill="#ff3b19" stroke="#ff3b19" stroke-miterlimit="10" stroke-width="2"/><path d="M36.62,113.6c.89,1.09,1.66,2.37,2.06,3.83,.34,1.22,.27,2.97,.14,4.14,.7,.63,1.7,1.29,3.12,1.77,2.85,.97,5.19,.78,6.25-.24l.37,.17c4.05,5.33,15.18,8.87,22.33,10.18l3.12,.46v-16.99c-3.15-.3-7.53-1-12.07-2.74-7.52-2.88-13.94-10.27-13.94-10.27-3.96-2.27-8.77-2.68-12.71-1.41-2.5,.81-5.4,2.65-5.16,4.77,.09,.8,.62,1.54,1.44,2.19h0l5.06,4.15" fill="#afb1ad"/><g><g><path d="M73.9,134.22s-.04,0-.05,0c-9.93-1.45-25.31-6.3-27.03-13.69-.39-1.7-.04-3.23,.3-4.72,.48-2.13,.9-3.97-1.05-5.79-1.95-1.82-3.9-2.68-5.8-2.55l1.82,4.01c.08,.18,0,.4-.18,.48-.18,.08-.4,0-.48-.18l-2.22-4.9,.47-.07c2.28-.36,4.6,.54,6.89,2.68,2.25,2.1,1.75,4.33,1.26,6.48-.32,1.41-.65,2.86-.3,4.4,1.44,6.23,14.7,11.42,26.43,13.13,.2,.03,.33,.21,.31,.41-.03,.18-.18,.31-.36,.31Z" fill="#ddd"/><path d="M45.39,124.34c-1.06,0-2.28-.22-3.56-.65-1.28-.43-2.37-1.05-3.25-1.84l-.14-.12,.02-.19c.07-.58,.26-2.6-.13-4-1.07-3.88-4.81-6.53-6.95-7.76-.17-.1-.23-.32-.13-.49,.1-.17,.32-.23,.49-.13,2.73,1.58,6.2,4.28,7.28,8.2,.39,1.4,.25,3.3,.17,4.09,.78,.67,1.74,1.19,2.86,1.57,2.57,.87,4.88,.81,5.89-.16,.14-.14,.37-.14,.51,0,.14,.14,.13,.37,0,.51-.67,.65-1.75,.98-3.06,.98Z" fill="#ddd"/></g><path d="M74.01,117.28s-.02,0-.03,0c-4.38-.42-8.47-1.34-12.17-2.76-7.21-2.76-13.47-9.68-14.04-10.32-3.75-2.13-8.37-2.64-12.37-1.34-2.59,.84-5.11,2.61-4.91,4.38,.08,.68,.55,1.37,1.36,1.99,2.23,1.72,6.46,2.63,9.82,2.13,1.67-.25,3.23-.87,4.52-1.8,.16-.12,.39-.08,.5,.08,.12,.16,.08,.39-.08,.5-1.39,.99-3.06,1.66-4.84,1.92-3.53,.53-7.99-.45-10.37-2.27-.98-.75-1.54-1.61-1.64-2.48-.26-2.26,2.62-4.25,5.41-5.15,4.21-1.36,9.07-.82,13,1.44l.09,.08c.06,.07,6.45,7.36,13.8,10.17,3.63,1.39,7.66,2.31,11.98,2.72,.2,.02,.34,.2,.33,.39-.02,.19-.18,.33-.36,.33Z" fill="#ddd"/></g><path d="M111.18,113.6c-.89,1.09-1.66,2.37-2.06,3.83-.34,1.22-.27,2.97-.14,4.14-.7,.63-1.7,1.29-3.12,1.77-2.85,.97-5.19,.78-6.25-.24l-.37,.17c-4.05,5.33-15.18,8.87-22.33,10.18l-3.12,.46v-16.99c3.15-.3,7.53-1,12.07-2.74,7.52-2.88,13.94-10.27,13.94-10.27,3.96-2.27,8.77-2.68,12.71-1.41,2.5,.81,5.4,2.65,5.16,4.77-.09,.8-.62,1.54-1.44,2.19h0l-5.06,4.15" fill="#afb1ad"/><g><g><path d="M73.91,134.22c-.18,0-.33-.13-.36-.31-.03-.2,.11-.38,.31-.41,11.73-1.72,24.98-6.91,26.43-13.13,.36-1.53,.02-2.99-.3-4.4-.49-2.15-1-4.38,1.26-6.48,2.29-2.14,4.61-3.04,6.89-2.68l.47,.07-2.22,4.9c-.08,.18-.3,.26-.48,.18-.18-.08-.26-.3-.18-.48l1.82-4.01c-1.89-.13-3.85,.73-5.8,2.55-1.95,1.82-1.53,3.66-1.05,5.79,.34,1.49,.69,3.03,.3,4.72-1.71,7.39-17.1,12.23-27.03,13.69-.02,0-.04,0-.05,0Z" fill="#ddd"/><path d="M102.42,124.34c-1.31,0-2.39-.33-3.06-.98-.14-.14-.15-.37,0-.51,.14-.15,.37-.15,.51,0,1.01,.97,3.32,1.04,5.89,.16,1.12-.38,2.08-.91,2.86-1.57-.08-.79-.22-2.69,.17-4.09,1.08-3.92,4.56-6.62,7.28-8.2,.17-.1,.39-.04,.49,.13,.1,.17,.04,.39-.13,.49-2.14,1.23-5.88,3.88-6.95,7.76-.39,1.4-.2,3.42-.13,4l.02,.19-.14,.12c-.88,.79-1.97,1.41-3.25,1.84-1.28,.44-2.5,.65-3.56,.65Z" fill="#ddd"/></g><path d="M73.79,117.28c-.18,0-.34-.14-.36-.33-.02-.2,.13-.38,.33-.39,4.31-.41,8.34-1.32,11.98-2.72,7.35-2.81,13.73-10.1,13.8-10.17l.09-.08c3.94-2.26,8.8-2.79,13-1.44,2.78,.9,5.66,2.9,5.41,5.15-.1,.88-.67,1.74-1.64,2.48-2.37,1.82-6.83,2.8-10.37,2.27-1.78-.26-3.45-.93-4.84-1.92-.16-.12-.2-.34-.08-.5,.12-.16,.34-.2,.5-.08,1.29,.93,2.86,1.55,4.52,1.8,3.37,.5,7.59-.42,9.82-2.13,.82-.63,1.29-1.32,1.36-1.99,.2-1.77-2.32-3.54-4.91-4.38-4-1.29-8.62-.79-12.37,1.34-.57,.64-6.84,7.57-14.04,10.32-3.69,1.42-7.79,2.34-12.17,2.76-.01,0-.02,0-.03,0Z" fill="#ddd"/></g><path d="M79.35,113.04c1.09,.41,2.12,1.02,3.07,1.83l-2.69,3.19c-.64-.47-1.26-.84-1.86-1.08-.6-.25-1.24-.37-1.92-.37-1.36,0-2.43,.59-3.19,1.77-.76,1.18-1.15,2.95-1.15,5.33s.39,4.14,1.16,5.3,1.85,1.73,3.24,1.73c.74,0,1.43-.15,2.06-.45,.63-.3,1.32-.74,2.06-1.32l2.54,3.22c-.85,.85-1.86,1.54-3.05,2.08-1.19,.54-2.47,.81-3.86,.81-2.04,0-3.83-.44-5.34-1.32s-2.69-2.17-3.52-3.87c-.83-1.7-1.24-3.76-1.24-6.18s.42-4.38,1.27-6.07c.85-1.69,2.02-2.98,3.53-3.87s3.24-1.33,5.2-1.33c1.36,0,2.59,.21,3.69,.62Z" fill="#002868" stroke="#ddd" stroke-miterlimit="10" stroke-width=".8"/><path d="M63.97,121.17s-.09,0-.13-.01c-1.84-.31-3.64-.84-5.34-1.59-3.15-1.38-5.92-3.44-8.22-6.13-.29-.34-.25-.84,.09-1.13,.34-.29,.84-.25,1.13,.09,2.14,2.5,4.71,4.42,7.64,5.7,1.58,.69,3.25,1.19,4.96,1.47,.44,.07,.73,.49,.66,.92-.07,.39-.41,.67-.79,.67Z" fill="#002868"/><path d="M63.08,125.81s-.09,0-.13-.01c-1.84-.31-3.64-.84-5.34-1.59-3.15-1.38-5.92-3.44-8.22-6.13-.29-.34-.25-.85,.09-1.13,.34-.29,.85-.25,1.13,.09,2.14,2.5,4.71,4.42,7.64,5.7,1.58,.69,3.25,1.19,4.96,1.47,.44,.07,.73,.49,.66,.92-.07,.39-.41,.67-.79,.67Z" fill="#002868"/><path d="M83.49,121.17c-.39,0-.73-.28-.79-.67-.07-.44,.22-.85,.66-.92,1.71-.29,3.38-.78,4.96-1.47,2.93-1.28,5.5-3.2,7.64-5.7,.29-.34,.8-.38,1.13-.09,.34,.29,.38,.8,.09,1.13-2.3,2.69-5.06,4.75-8.22,6.13-1.7,.75-3.5,1.28-5.34,1.59-.04,0-.09,.01-.13,.01Z" fill="#002868"/><path d="M84.38,125.81c-.39,0-.73-.28-.79-.67-.07-.44,.22-.85,.66-.92,1.71-.29,3.38-.78,4.96-1.47,2.93-1.28,5.5-3.2,7.64-5.7,.29-.34,.8-.38,1.13-.09,.34,.29,.38,.8,.09,1.13-2.3,2.69-5.07,4.75-8.22,6.13-1.7,.75-3.5,1.28-5.34,1.59-.04,0-.09,.01-.13,.01Z" fill="#002868"/></svg>