<svg id="_1_infantry_division" data-name="1_infantry_division" xmlns="http://www.w3.org/2000/svg" width="150" height="150" viewBox="0 0 150 150">
  <defs>
    <style>
      .cls-1 {
        fill: #676a3b;
      }

      .cls-1, .cls-2, .cls-3 {
        fill-rule: evenodd;
      }

      .cls-2 {
        fill: #d03f3f;
      }

      .cls-3 {
        fill: #ebc84d;
      }
    </style>
  </defs>
  <path id="Shape_2_copy_3" data-name="Shape 2 copy 3" class="cls-1" d="M75,144.859h0L27.87,97.729V4.314h94.26V97.729Z"/>
  <path id="Shape_2_copy_4" data-name="Shape 2 copy 4" class="cls-2" d="M62.035,102.214V91.447h1.5c2.974,0,4.1-.708,4.513-1.131a1.06,1.06,0,0,0,.346-0.722l-0.013-.1,0.006-.036V45.377l-0.015-.56,0.015-.091V44.611c-0.037-.82-1.411-1.913-5.156-2.077L61.8,42.471V34l1.4-.092c0.3-.022,7.36-0.608,7.555-7.36l0-1.6H82.7V89.56l-0.013.1v0a1.191,1.191,0,0,0,.352.66c0.409,0.423,1.54,1.131,4.513,1.131h1.5v10.767H62.035Z"/>
  <path id="Shape_2_copy" data-name="Shape 2 copy" class="cls-3" d="M75,147.353L25.87,98.223V1.98h98.26V98.223ZM30.037,96.567L75,141.7l44.963-45.13V5.98H30.037V96.567ZM81.072,25.994V88.751s0.035,3.487,6.852,3.487v7.767H63.035V92.239c6.817,0,6.977-3.487,6.977-3.487V44.919L70,44.46a1.224,1.224,0,0,0,.012-0.127v-0.18c-0.037-.87-1.048-3.317-6.965-3.577V34.95s9.093-.571,9.331-8.813V25.994h8.693m3-3H69.394l-0.015,2.985v0.1c-0.176,5.328-5.915,5.833-6.527,5.873l-2.8.183V43.448l2.868,0.126a8.921,8.921,0,0,1,4.059.847L67,44.537l0.011,0.42V88.63a10.035,10.035,0,0,1-3.977.609h-3v13.767H90.924V89.239h-3a9.173,9.173,0,0,1-3.852-.609V22.994h0Z"/>
</svg>
