<svg id="usa_normandy_pilot_assaulter_2_icon" xmlns="http://www.w3.org/2000/svg" width="150" height="150" viewBox="0 0 150 150">
  <defs>
    <style>
      .cls-1 {
        fill: #35508d;
      }

      .cls-1, .cls-2, .cls-3, .cls-4, .cls-5, .cls-6, .cls-7 {
        fill-rule: evenodd;
      }

      .cls-2 {
        fill: #f2f2f2;
      }

      .cls-3 {
        fill: #3a2828;
      }

      .cls-4 {
        fill: #e03131;
      }

      .cls-5 {
        fill: #b8864a;
      }

      .cls-6 {
        fill: #f5f6b4;
      }

      .cls-7 {
        fill: #8cc953;
      }
    </style>
  </defs>
  <path class="cls-1" d="M75,3.545A71.455,71.455,0,1,0,146.456,75,71.456,71.456,0,0,0,75,3.545"/>
  <path class="cls-2" d="M75,147.826A72.826,72.826,0,1,1,147.826,75,72.908,72.908,0,0,1,75,147.826ZM75,6.008A68.993,68.993,0,1,0,143.993,75,69.071,69.071,0,0,0,75,6.008Zm0,134.356A65.364,65.364,0,1,1,140.364,75,65.438,65.438,0,0,1,75,140.364ZM75,13.818A61.182,61.182,0,1,0,136.182,75,61.252,61.252,0,0,0,75,13.818Z"/>
  <path class="cls-2" d="M24.637,45.3A58.537,58.537,0,0,0,18.5,59.069L41.546,70.931l-1.091-8.591,9.818,5.592L98.137,96.295l9.682,5.046,3.274-1.227,12.408,4.091L92.683,83.614,36.636,46.659,37.318,54.7,24.637,45.3"/>
  <path class="cls-3" d="M113.217,55.641c-1.091,8.182-3.818,12.546-3.818,12.546s6.426,4.325,2.455,15C109.671,89.051,101.9,96.55,101.9,96.55a18.275,18.275,0,0,1,3.136,8.182,7.611,7.611,0,0,1-7.136,8.529,5.442,5.442,0,0,1-.91-0.074c-4.091-.681-7.772-4.364-6.409-11.046,0,0-4.772,2.047-23.454,2.591a2.053,2.053,0,0,1-.818,1.5,0.875,0.875,0,0,1-.325.056c-0.784,0-2.192-.782-4.311-2.783,0,0-4.061.182-7.051,0.182a13.806,13.806,0,0,1-3.04-.182,30.9,30.9,0,0,1-6.526.712,16.81,16.81,0,0,1-8.2-1.8c-5.726-3.273-8.59-8.865-8.59-10.5,0,0,.409-1.773,3-4.909,0,0,3.955-5.454,7.227-7.772a35.706,35.706,0,0,1,7.5-3.819A19.444,19.444,0,0,1,50.352,71.6S48.717,66.96,49.126,64.5a18.017,18.017,0,0,1,2.181-5.317s1.909-2.318,2.454-2.865c0,0,1.774-5.454.955-9.272s-5.046-9.409-5.046-9.409,0.117-.006.34-0.006c1.859,0,11.1.436,21.206,8.6a31.225,31.225,0,0,1,8.15-1.061,23.616,23.616,0,0,1,10.26,2.152s9.137-9.955,19.636-14.045C109.262,33.278,115.556,38.1,113.217,55.641ZM53.557,108.96s2.2,10.416,4.16,14.114c2.864,5.386,4.569,8.864,1.16,13.432a7.208,7.208,0,0,1-5.794,2.716,6.773,6.773,0,0,1-7.024-7.081c-0.069-4.567,3.681-12.2,4.841-14.931A49.746,49.746,0,0,0,53.557,108.96Zm21.683-1.91c0-.895.081-2.237,0.4-2.237a0.582,0.582,0,0,1,.35.4,47.376,47.376,0,0,0,4.635,9.137c3.2,4.7,4.448,8.148,3.683,11.113-0.7,2.7-3.459,4.285-6.161,4.285a5.989,5.989,0,0,1-3.522-1.08c-3.2-2.319-3.409-5.659-2.659-9.069S75.24,108.21,75.24,107.05Z"/>
  <path class="cls-2" d="M94.022,91.253a11.079,11.079,0,0,1-5.045,2.932,6.744,6.744,0,0,0,1.5-4.091,1.612,1.612,0,0,1,.955-0.75c0.75-.273,2.864-0.477,3.068-0.2A2.955,2.955,0,0,1,94.022,91.253ZM92.59,87.639a2.787,2.787,0,0,1-1.977-.477,29.045,29.045,0,0,1-1.636-3.273,5.59,5.59,0,0,1,2.523-.068c0.818,0.341,2.386,3,2.386,3A4.179,4.179,0,0,1,92.59,87.639Zm-5.318,1.977a7.576,7.576,0,0,1-2.864-.546C84,88.866,82.908,86,82.908,86c2.932-2.046,4.773-1.977,5.046-1.841a9.4,9.4,0,0,1,1.3,2.932A16.907,16.907,0,0,1,87.272,89.616ZM80.318,91.8c-0.273.273-2.727,0-3.068-.136A2.711,2.711,0,0,1,76.7,90.3c0.75-.75,5.182-3.75,5.182-3.75a17.583,17.583,0,0,1,1.227,2.114C83.181,89,80.59,91.525,80.318,91.8Zm-9.273,4.773a18.808,18.808,0,0,1,3-2.25c0.682-.2,2.455-0.341,2.591-0.068a4.767,4.767,0,0,1-1.091,2.386C75.2,96.775,71.045,96.571,71.045,96.571Zm2.182-2.591a8.352,8.352,0,0,1-1.091-.273l3.886-2.932a1.745,1.745,0,0,1,.2,1.091A26.854,26.854,0,0,1,73.227,93.98Zm-11.8,4.568S64.022,95.48,67.5,95c0,0,.545,2.727-1.159,9.273C66.34,104.275,65.454,105.162,61.431,98.548Zm19.432-5.8c0.341-.068,1.909,0,1.909.273s-0.818,3-1.3,3.068a41.351,41.351,0,0,1-4.432.409,5.664,5.664,0,0,1,.409-1.909A32.874,32.874,0,0,1,80.863,92.753Zm5.454-1.773a17.22,17.22,0,0,1,3.136-.273,8.047,8.047,0,0,1-2.318,4.159,29.159,29.159,0,0,1-4.432.886,18.153,18.153,0,0,1,.954-2.659C83.863,92.957,85.977,91.116,86.318,90.98Z"/>
  <path class="cls-4" d="M98.079,111.083c-0.075,0-.149,0-0.222,0-3.508,0-4.62-3.189-4.62-5.595,0-2.453.342-5.386-1.431-6.681a4.809,4.809,0,0,0-2.972-1.1,8.366,8.366,0,0,0-2.142.346,44.929,44.929,0,0,1-11.51,1.43,49.41,49.41,0,0,1-6.831-.475s11.932-.409,15.819-1.295a42.641,42.641,0,0,0,6.682-2.182,6.481,6.481,0,0,1,1.806-.231c2.009,0,5.241.757,8.079,4.731C104.828,105.764,101.76,110.947,98.079,111.083ZM96.511,93.765l-2.455-.136A6.7,6.7,0,0,0,96.1,85.651c-1.173-2.722-3.645-3.746-6.242-3.746a12,12,0,0,0-5.894,1.633c-3.683,2.182-7.5,6.137-12.341,8.933,0,0,4.841-4.091,5.59-5.046s6.477-7.091,11.113-8.386a12.127,12.127,0,0,1,3.237-.445c3.834,0,7.647,1.892,8.491,6.649C100.806,89.47,96.511,93.765,96.511,93.765ZM54.048,137.407a4.97,4.97,0,0,1-2.81-.891c-2.591-1.774-2.115-7.024-1.159-9.75s3.953-9.615,3.953-9.615a25.268,25.268,0,0,0,1.977,6.955c1.568,3.341,3.41,7.363,2.318,10.3A4.516,4.516,0,0,1,54.048,137.407ZM79.6,117.22c1.909,2.453,2.727,4.5,2.591,6.75a4.145,4.145,0,0,1-4,3.69c-0.076,0-.151,0-0.225-0.008-1.84-.136-3.817-1.91-3.749-5.183s1.84-5.59,2.385-10.84A22.52,22.52,0,0,0,79.6,117.22Z"/>
  <path class="cls-5" d="M104.742,69.333c3.067,0.886,7.022,7.022,4.158,13.364a55.024,55.024,0,0,1-8.386,12.339l-2.114-1.5c1.977-2.385,5.114-9.068,1.5-14.385-2.334-3.436-5.123-4.225-6.99-4.225a4.134,4.134,0,0,0-2.01.406,5.7,5.7,0,0,1-2.518.874,0.664,0.664,0,0,1-.55-0.191c-0.409-.546-0.955-2.8,1.909-5.114A16.327,16.327,0,0,1,96.9,68.037a1.721,1.721,0,0,1-.477-0.75c-0.2-.546-0.34-2.659-0.818-6.069S93.218,54.2,87.15,53.856q-0.38-.021-0.747-0.021c-5.624,0-9.062,3.619-10.434,4.862s-5.167,3.5-7.942,3.5c-0.152,0-.3-0.007-0.446-0.021-2.8-.273-3.75-2.524-5.25-4.432s-3.545-2.592-3.75-2.932,0.273-.818,0-0.886a0.16,0.16,0,0,0-.04,0,12.435,12.435,0,0,0-2.074.754,18.282,18.282,0,0,0,.818-7.16c-0.341-4.021-4.091-8.182-4.091-8.182,6,1.159,11.522,6,12.545,7.091s1.024,1.5.886,1.977a18.285,18.285,0,0,1-1.3,2.25,22.336,22.336,0,0,1,12.841-3.821,25.3,25.3,0,0,1,4.137.344,23.345,23.345,0,0,1,15,8.66h0.683c2.453-13.637,10.636-17.046,10.636-17.046l-0.478-.955c-7.705,4.3-11.317,13.022-11.317,13.022l-4.092-2.112c9.751-12.069,16.841-13.637,16.841-13.637C116.605,50.786,104.742,69.333,104.742,69.333ZM78.619,53.124a12.621,12.621,0,0,0-9.4,4.344,1.1,1.1,0,0,1-.587.318,0.281,0.281,0,0,1-.229-0.112c-0.232-.288-2.415-3.8-5.807-3.8a5.331,5.331,0,0,0-1.967.389s0.04,0,.113,0a6.064,6.064,0,0,1,4.865,2.867c2.112,3.068,2.726,3.749,3,3.749a1.085,1.085,0,0,0,.953-0.682c0.409-.614,3-5.318,10.569-6.954A8.19,8.19,0,0,0,78.619,53.124ZM60.763,100.7l0.887,1.3s-6-.273-7.364-0.409l1.841-.75Zm10.909-.819s10.364,0.751,18.137-1.568a1.887,1.887,0,0,1,.955,1.637s-5.864,3.272-23.251,2.25l0.341-1.7Z"/>
  <path class="cls-6" d="M92.114,68.141c-0.2.137-6.409,2.727-7.3,9.613a45.225,45.225,0,0,0-7.841,7.363c-4.228,4.909-14.727,12.478-23.25,15.069a24.856,24.856,0,0,1-7.2,1.2,11.521,11.521,0,0,1-8.069-2.767s6.409-3.682,5.932-7.227c-0.462-3.423-6-4.368-9.578-4.368-0.128,0-.254,0-0.377,0A30.609,30.609,0,0,1,42.546,79.6C48.137,75.912,56.523,74,58.16,73.8c0,0-3.437-.386-5.376-0.386a6.8,6.8,0,0,0-.9.045,16.967,16.967,0,0,1,9.866-3.174,16.771,16.771,0,0,1,4.111.515s-1.022-.818-6.136-1.568c0,0,.614-0.954.954-1.636a9.3,9.3,0,0,0,1.98.415A1.143,1.143,0,0,0,62.8,68c0.612-.068.682-1.5,0.682-1.5a4.32,4.32,0,0,1-2.728-1.024c-1.022-1.022-3.272-4.908-3.886-5.591a3.723,3.723,0,0,0-2.563-.964,3.122,3.122,0,0,0-.711.078,4.861,4.861,0,0,1,3.96-2.281,4.7,4.7,0,0,1,.54.031c3,0.339,4.09,4.023,4.431,4.908,0.334,0.868,1.645,3.755,4.763,3.755,0.071,0,.142,0,0.215,0,3.273-.137,6.068-3,6.886-3.614s5.455-5.113,8.66-6.137a9.815,9.815,0,0,1,2.96-.462,7.3,7.3,0,0,1,6.721,3.874C94.842,63.027,92.32,68,92.114,68.141Zm-7-7.433A3.165,3.165,0,0,0,83.84,60.5a8.817,8.817,0,0,0-5.747,2.416c-2.818,2.568-5.864,5.273-6.068,5.318a5.8,5.8,0,0,1-1.114.1,3.114,3.114,0,0,1-2.273-.762,5.152,5.152,0,0,0,.431,1.932,3.069,3.069,0,0,0,2.091,1.272,4.2,4.2,0,0,0,.469.023,11.066,11.066,0,0,0,1.554-.137,5.542,5.542,0,0,0,2.364,3.387,4.928,4.928,0,0,0,2.469.526,10.994,10.994,0,0,0,5.553-1.48c1.591-1.159,2.114-4.022,2.206-5.365a28.437,28.437,0,0,0-.615-4.771,4.909,4.909,0,0,1,3.024,1.659S88.183,62.169,85.115,60.708ZM54.069,62.072A4.622,4.622,0,0,0,52.3,63.846c-0.818,1.772-.477,2.863-0.137,4.5a9.71,9.71,0,0,0,1.3,2.318,4.082,4.082,0,0,1-1.364.067c-0.273-.136-1.5-1.432-1.568-4.7s1.7-4.363,2.114-4.637A0.952,0.952,0,0,1,54.069,62.072ZM36.819,98.89a34.41,34.41,0,0,0,4.5,3.41s-2.8-.136-6.2-3.341A3.381,3.381,0,0,0,36.819,98.89Z"/>
  <path class="cls-7" d="M79.462,73.312A4.941,4.941,0,0,1,74.348,69.6l1.364-1.227A3.189,3.189,0,0,0,78.2,70.517a2.729,2.729,0,0,0,3.239-3.136A3.522,3.522,0,0,0,79.564,65.1l2.693-2.045a6.5,6.5,0,0,1,2.216,4.5A5.628,5.628,0,0,1,79.462,73.312ZM55.735,69.119a1.732,1.732,0,0,1-1.909-.2,9.007,9.007,0,0,1-.818-3.2,4.955,4.955,0,0,1,2.114-4.023,4.243,4.243,0,0,1,1.3.955,11.214,11.214,0,0,0-1.364,2.523,2.335,2.335,0,0,0,.955,2.386c0.682,0.409,2.182.2,3.545-1.7l1.568,1.091-0.955,1.636S56.826,68.574,55.735,69.119Z"/>
</svg>
