<svg id="_30_infantry_division" data-name="30_infantry_division" xmlns="http://www.w3.org/2000/svg" width="150" height="150" viewBox="0 0 150 150">
  <defs>
    <style>
      .cls-1 {
        fill: #cc4141;
      }

      .cls-1, .cls-2 {
        fill-rule: evenodd;
      }

      .cls-2 {
        fill: #2f4e8e;
      }
    </style>
  </defs>
  <path id="Shape_1_copy_2" data-name="Shape 1 copy 2" class="cls-1" d="M75.5,144.615c-23.223,0-42.116-31.005-42.116-69.115S52.277,6.385,75.5,6.385s42.116,31,42.116,69.115S98.723,144.615,75.5,144.615Z"/>
  <path id="Shape_1_copy" data-name="Shape 1 copy" class="cls-2" d="M75.5,148C50.371,148,30,115.541,30,75.5S50.371,3,75.5,3,121,35.459,121,75.5,100.629,148,75.5,148ZM47,31.389C40.388,43.558,36.769,59.035,36.769,75.5S40.388,107.442,47,119.611V31.389ZM87.486,90h6.071l-3.035-8.332Zm6.071-29H87.486l3.035,8.332ZM88.274,75.5L83.06,61.188,78.076,74.87,83.29,89.182ZM78.634,61H73.023l2.806,7.7ZM75.828,81.038L72.564,90h6.53ZM73.581,74.87L68.6,61.188,63.268,75.815,68.252,89.5ZM64.171,61h-6.3l3.15,8.647Zm-3.15,20.983L58.1,90h5.841Zm-2.247-6.168L55,65.458V86.173ZM97,21.132C90.611,13.759,83.166,9.769,75.5,9.769,68.232,9.769,61.159,13.345,55,20h0V53H97V21.132Zm0,42.754L92.769,75.5,97,87.114V63.886ZM97,98H55v33h0c6.16,6.655,13.233,10.231,20.5,10.231,7.666,0,15.111-3.99,21.5-11.363V98Zm8-64.711v84.422c5.978-11.861,9.231-26.593,9.231-42.211S110.978,45.15,105,33.289Z"/>
</svg>
