<svg id="_79_infantry_division" data-name="79_infantry_division" xmlns="http://www.w3.org/2000/svg" width="150" height="150" viewBox="0 0 150 150">
  <defs>
    <style>
      .cls-1 {
        fill: #373faa;
      }

      .cls-1, .cls-2 {
        fill-rule: evenodd;
      }

      .cls-2 {
        fill: #9e9e9e;
      }
    </style>
  </defs>
  <path class="cls-1" d="M126.76,12.5H23.244V65.738l0,0.351-0.023.327a50.8,50.8,0,0,0,1.941,14.146A69.908,69.908,0,0,0,31.15,95.567a81.121,81.121,0,0,0,12.612,17.306A129.743,129.743,0,0,0,75,137a129.76,129.76,0,0,0,31.242-24.129,81.185,81.185,0,0,0,12.611-17.3,69.978,69.978,0,0,0,5.986-15.007,50.88,50.88,0,0,0,1.942-14.133l-0.023-.3V12.5"/>
  <path class="cls-2" d="M75,130.749A124.555,124.555,0,0,1,47.987,109.2,75.681,75.681,0,0,1,36.269,93.054a64.692,64.692,0,0,1-5.5-13.834,46.744,46.744,0,0,1-1.754-12.4l0.033-.458,0-.46V18.13h91.9V66.417l0.031,0.415a46.762,46.762,0,0,1-1.756,12.388,64.689,64.689,0,0,1-5.494,13.834,75.735,75.735,0,0,1-11.72,16.145A124.566,124.566,0,0,1,75,130.749M132.583,6.5H17.415V65.977l-0.012.156a55.382,55.382,0,0,0,2.126,16.076,76.278,76.278,0,0,0,6.478,16.326,87.345,87.345,0,0,0,13.509,18.635A133.281,133.281,0,0,0,75,144a133.281,133.281,0,0,0,35.482-26.829A87.369,87.369,0,0,0,123.99,98.534a76.249,76.249,0,0,0,6.477-16.326,55.359,55.359,0,0,0,2.127-16.062l-0.011-.156V6.5"/>
  <path class="cls-1" d="M74.5,138.569c-2.176-1.173-5.32-2.98-9.067-5.465a130.594,130.594,0,0,1-23.127-19.5A83.291,83.291,0,0,1,29.651,96.1a74.621,74.621,0,0,1-6.608-15.284,52.966,52.966,0,0,1-2.082-15.067l0.02-.23V10.036H128.02V65.147l-0.009.257,0.029,0.34a53,53,0,0,1-2.081,15.069A74.678,74.678,0,0,1,119.351,96.1,83.264,83.264,0,0,1,106.7,113.6a130.562,130.562,0,0,1-23.126,19.5c-3.748,2.485-6.891,4.292-9.068,5.465M136,2H13V65.147S11,92.6,36.131,119.45A134.506,134.506,0,0,0,74.05,147.9a1.074,1.074,0,0,0,.9,0,134.5,134.5,0,0,0,37.92-28.447C138,92.6,136,65.147,136,65.147V2"/>
  <path class="cls-2" d="M107.7,63.079V62.5a3.325,3.325,0,1,0-6.65,0v0.541H79.009V51.182h8.583v0.541a3.325,3.325,0,1,0,6.65,0V51.182h1.315a3.634,3.634,0,0,0,3.634-3.634h0a3.634,3.634,0,0,0-3.634-3.634H94.243V43.372a3.325,3.325,0,1,0-6.65,0v0.541H79.009V32.8h0.541a3.325,3.325,0,0,0,0-6.65H79.009V25.763a4.029,4.029,0,0,0-8.019,0V26.15H70.449a3.325,3.325,0,1,0,0,6.65h0.541V43.913H61.479V43.372a3.325,3.325,0,1,0-6.65,0v0.541H54.442a3.634,3.634,0,0,0-3.634,3.634h0a3.634,3.634,0,0,0,3.634,3.634h0.387v0.541a3.325,3.325,0,1,0,6.65,0V51.182h9.511V63.039h-22.5V62.5a3.325,3.325,0,0,0-6.65,0v0.683a3.635,3.635,0,0,0-2.629,3.492,3.346,3.346,0,0,0,2.629,3.242V70.6a3.325,3.325,0,0,0,6.65,0V70.058h22.5v38.987H70.449a3.326,3.326,0,0,0,0,6.651h0.541v0.541a4.029,4.029,0,0,0,8.019,0V115.7h0.541a3.326,3.326,0,0,0,0-6.651H79.009V70.058h22.039V70.6a3.325,3.325,0,1,0,6.65,0V70.018a3.389,3.389,0,0,0,3.093-3.344A3.635,3.635,0,0,0,107.7,63.079Z"/>
</svg>
