<svg id="Layer_1" data-name="Layer 1" xmlns="http://www.w3.org/2000/svg" width="150" height="150" viewBox="0 0 150 150">
  <defs>
    <style>
      .cls-1 {
        fill: #ba122b;
      }

      .cls-2 {
        fill: #fbc915;
      }

      .cls-3 {
        fill: #eee;
      }

      .cls-4 {
        fill: #fff;
      }

      .cls-5 {
        fill: #adaca6;
      }

      .cls-6 {
        fill: #1b75cf;
      }
    </style>
  </defs>
  <path class="cls-1" d="M134.36,1V122.79a18.81,18.81,0,0,1-18.74,17.41H95.48a30.58,30.58,0,0,0-19,6.59L75,148l-1.52-1.21a30.6,30.6,0,0,0-19-6.59H34.42a18.79,18.79,0,0,1-18.63-16.36,17.76916,17.76916,0,0,1-.15-2.42V1Z"/>
  <path class="cls-2" d="M77.83,14.18c-.28-1.58-.69-2.14-1.67-4.84C75.62,7.82,75.23,6.57,75,5.8c-.22.77-.61,2-1.16,3.54-1,2.7-1.38,3.26-1.66,4.84a10.38,10.38,0,0,0,0,4.29c.33,1.49.76,1.62,1.41,3.43a17.00029,17.00029,0,0,1,1,4.94c.12,2.7-.71,3.18-.71,5.61a12.34981,12.34981,0,0,0,1.16,5,11.99986,11.99986,0,0,0,1.16-5c0-2.43-.82-2.91-.7-5.61a17,17,0,0,1,1-4.94c.65-1.81,1.07-1.94,1.41-3.43A10.37976,10.37976,0,0,0,77.83,14.18Z"/>
  <path class="cls-2" d="M65.53,23.14a3.51,3.51,0,0,1,2.35-1.77c1.62-.19,2.75,1.34,3.21,2a5.88,5.88,0,0,1,.85,4.51c-.12.53-.28,1.18-.83,1.42a1.19,1.19,0,0,1-1.56-.33,1.06,1.06,0,0,0-1.49333-.13111Q68.02744,28.86341,68,28.89c-.57.58-.18,2.29.55,2.9a3.07,3.07,0,0,0,3.33.05c2.56-1.58,1.95-7.36.5-11-.64-1.62-1.51-3.72-3.68-4.74a5.38,5.38,0,0,0-4.64-.1,3.66,3.66,0,0,0-1.72,1.86,3.72005,3.72005,0,0,0,.1,2.83,1.37,1.37,0,0,1-.15,1.67,3.35018,3.35018,0,0,1-1.22.19A2.42,2.42,0,0,0,63,24,2.58,2.58,0,0,0,65.53,23.14Z"/>
  <path class="cls-2" d="M84.47,23.14a3.46,3.46,0,0,0-2.34-1.77c-1.62-.19-2.75,1.34-3.21,2a5.91,5.91,0,0,0-.86,4.51c.13.53.29,1.18.84,1.42a1.18,1.18,0,0,0,1.55-.33,1.07,1.07,0,0,1,1.50866-.11728q.02115.01809.04134.03728c.57.58.18,2.29-.55,2.9a3.07,3.07,0,0,1-3.33.05c-2.56-1.58-2-7.36-.5-11,.64-1.62,1.51-3.72,3.68-4.74A5.38,5.38,0,0,1,86,16a3.66,3.66,0,0,1,1.72,1.86,3.72,3.72,0,0,1-.1,2.83,1.37,1.37,0,0,0,.15,1.67,3.34981,3.34981,0,0,0,1.22.19A2.42,2.42,0,0,1,87,24,2.59,2.59,0,0,1,84.47,23.14Z"/>
  <path class="cls-2" d="M70.85,25.6h8.3a.53.53,0,0,1,.53.53h0a.53.53,0,0,1-.53.53h-8.3a.53.53,0,0,1-.53-.53h0A.53.53,0,0,1,70.85,25.6Z"/>
  <path class="cls-3" d="M134.36,22.22745V26.88L96,72.56l38.33,45.68v4.55c-5.793,8.69148-19.95092,17.41-19.95092,17.41H110.59l-35-42.93-35,42.93H36.61s-15.44335-9.03333-20.809-16.36a17.77076,17.77076,0,0,1-.15-2.42l-.01-2L55,72.56,15.64,25.7V21.05556L33.22222,1H37.26L75.5,47.86,113.74,1h3.87111Z"/>
  <path class="cls-4" d="M134.36,1V22.28L92.18,72.56l42.14,50.23a18.81,18.81,0,0,1-18.74,17.41h-1.23L75.5,92.59,36.65,140.2H34.42a18.79,18.79,0,0,1-18.63-16.36l43-51.28L15.64,21.09V1H33.45L75.5,52.53,117.56,1Z"/>
  <path class="cls-5" d="M75.5,72.56,22.4,135.85a18.76,18.76,0,0,1-6.61-12l43-51.28Z"/>
  <path class="cls-6" d="M75.5,72.56v20L36.65,140.2H34.42a18.69,18.69,0,0,1-12-4.35Z"/>
  <polygon class="cls-6" points="75.5 72.56 58.83 72.56 15.63 21.09 15.63 1.22 75.5 72.56"/>
  <polygon class="cls-5" points="75.5 52.53 75.5 72.56 15.63 1.22 15.63 1 33.45 1 75.5 52.53"/>
  <path class="cls-6" d="M134.32,122.79a18.71005,18.71005,0,0,1-6.14,12.55L75.5,72.56H92.18Z"/>
  <path class="cls-5" d="M128.18,135.34a18.63,18.63,0,0,1-12.6,4.86h-1.23L75.5,92.59v-20Z"/>
  <polygon class="cls-5" points="134.37 2.42 134.37 22.28 92.18 72.56 75.5 72.56 134.37 2.42"/>
  <polygon class="cls-6" points="134.37 1 134.37 2.42 75.5 72.56 75.5 52.53 117.56 1 134.37 1"/>
</svg>
