<?xml version="1.0" encoding="UTF-8" standalone="no"?>
<!DOCTYPE svg PUBLIC "-//W3C//DTD SVG 1.1//EN" "http://www.w3.org/Graphics/SVG/1.1/DTD/svg11.dtd">
<svg width="100%" height="100%" viewBox="0 0 150 150" version="1.1" xmlns="http://www.w3.org/2000/svg" xmlns:xlink="http://www.w3.org/1999/xlink" xml:space="preserve" xmlns:serif="http://www.serif.com/" style="fill-rule:evenodd;clip-rule:evenodd;stroke-linecap:round;stroke-linejoin:round;stroke-miterlimit:1.5;">
    <g transform="matrix(1,0,0,1,-204,-248)">
        <g transform="matrix(1.70633,0,0,1.67541,842.927,28.482)">
            <g id="usa_normandy_prem_mgun_2_icon">
                <g id="background" transform="matrix(0.574562,0,0,0.585166,-388.235,88.8916)">
                    <rect x="24" y="72" width="153" height="153" style="fill:none;"/>
                </g>
                <g transform="matrix(0.634388,0,0,0.908666,-518.744,-426.88)">
                    <ellipse cx="298.5" cy="668.5" rx="48.5" ry="33.5" style="fill:rgb(124,124,122);"/>
                </g>
                <g transform="matrix(0.586053,0,0,0.596869,-504.317,-207.998)">
                    <path d="M298,568C312.14,578.313 330.383,581.353 352.561,572C358.956,629.617 340.908,671.553 298,693C255.092,671.553 238.606,629.617 245,572C267.178,581.353 283.86,578.313 298,568Z" style="fill:rgb(189,189,187);"/>
                </g>
                <g transform="matrix(0.586053,0,0,0.596869,-504.317,-207.998)">
                    <path d="M277.046,645.433L277.046,642.832L274.453,642.832L274.453,645.433L272.18,645.433L272.18,648.026L274.453,648.026L274.453,652.177L270.734,652.177L270.734,654.77L274.453,654.77L274.453,659.157L277.046,659.157L277.046,654.77L280.765,654.77L280.765,652.177L277.046,652.177L277.046,648.026L279.319,648.026L279.319,645.433L277.046,645.433Z" style="fill:rgb(219,36,19);"/>
                </g>
                <g transform="matrix(0.210811,0,0,0.214701,-381.243,8.21903)">
                    <path d="M246.849,766.599L256.417,759.74C256.417,759.74 253.85,764.682 258.134,765.912C262.418,767.142 263.583,772.949 263.583,772.949L263.583,782.003C264.059,783.321 265.306,784.06 267.147,784.352C265.917,785.242 263.758,786.046 260.751,786.77C262.279,787.788 263.3,789.35 263.583,791.71C262.176,790.921 260.647,790.969 259.018,791.71C260.69,793.068 261.754,794.366 262.316,795.613C259.965,795.504 258.751,796.165 258.134,797.232C257.133,799.925 258.174,801.924 260.751,803.402C256.337,804.964 254.207,801.557 253.349,804.74C252.598,807.526 256.09,809.546 259.018,809.915C257.06,811.277 254.773,811.896 251.927,811.258C251.927,811.258 252.361,816.216 255.73,822.899C259.098,829.583 266.252,836.265 266.252,836.265C266.252,836.265 271.473,834.128 273.324,838.625C275.174,843.122 280.516,851.077 283.709,849.834C286.902,848.591 289.678,843.868 287.142,837.495C284.605,831.121 283.909,826.548 283.709,817.724C283.509,808.9 287.938,802.18 291.958,796.375C295.977,790.571 295.632,782.771 293.626,779.083C291.62,775.395 284.497,775.78 280.999,779.083C277.501,782.386 279.391,786.888 280.999,788.035C282.607,789.182 286.036,784.352 286.036,784.352C288.081,785.94 285.207,792.121 282.081,791.71C280.467,791.498 283.686,794.366 282.914,797.232C282.142,800.097 276.58,802.057 275.815,804.74C275.05,807.424 276.96,811.258 276.96,811.258C270.7,806.95 270.39,801.108 274.673,794.083C269.342,793.46 268.871,790.411 269.585,786.77C269.585,786.77 272.924,790.695 274.673,789.867C276.423,789.04 275.815,783.471 275.815,783.471C275.222,776.329 284.329,772.28 290.274,772.949C295.589,773.547 299.745,782.003 299.745,782.003C304.12,782.551 305.959,784.94 306.825,788.035C306.485,787.617 301.299,786.619 299.745,788.798C298.248,790.9 299.375,794.73 295.45,799.649C291.525,804.568 289.886,805.225 290.274,808.637C290.662,812.05 296.715,809.915 296.715,809.915C296.715,809.915 295.75,814.032 291.958,815.807C289.49,816.961 287.272,815.398 287.142,820.705C287.011,826.012 294.702,822.899 294.702,822.899C295.174,828.812 288.364,827.825 290.274,835.151C291.558,840.078 298.406,832.866 298.406,832.866C298.518,837.983 296.76,840.815 293.626,841.965C293.626,841.965 291.856,854.976 282.914,855.712C273.972,856.448 272.598,845.357 271.906,843.45C271.214,841.544 268.008,841.965 268.008,841.965C268.008,841.965 268.684,851.404 266.252,855.712C263.82,860.021 257.304,863.04 255.73,866.414C254.155,869.789 258.134,871.425 258.134,871.425C262.255,872.278 264.769,871.131 266.252,868.7C268.817,872.563 267.652,876.223 263.583,879.725L263.583,882.55C266.494,883.219 268.157,882.519 269.585,881.561C268.624,885.113 266.295,887.055 262.316,887.053L260.751,891.099C263.502,892.394 265.391,891.886 267.147,891.099C265.291,893.882 262.63,895.282 259.018,895.053L258.134,896.313C260.15,900.91 259.071,904.286 255.73,906.768C254.564,903.597 253.6,902.953 252.708,903.217C251.099,906.659 249.074,908.759 246.84,910.18C244.856,907.206 244.731,904.284 246.054,901.402C243.324,903.056 240.822,903.19 238.456,902.409C238.456,902.409 238.686,899.291 239.885,896.976C241.084,894.661 244.288,893.065 243.198,892.117C242.108,891.168 239.885,892.117 239.885,892.117C239.885,892.117 240.345,889.736 244.252,888.13C248.16,886.525 247.267,893.019 250.017,895.053C252.767,897.087 255.6,890.568 258.134,887.053C260.669,883.538 258.889,876.132 255.73,874.583C249.335,871.449 252.05,879.073 241.507,881.561C241.507,881.561 246.392,878.222 246.054,875.78C245.716,873.337 245.801,871.793 244.252,867.507C241.321,859.397 253.952,848.647 253.952,848.647C253.952,848.647 245.099,851.692 241.507,852.536C237.916,853.38 234.432,848.327 230.814,852.536C227.197,856.745 235.287,860.51 234.987,863.169C234.688,865.828 225.526,864.412 226.703,866.414C228.687,869.79 226.703,872.8 226.703,872.8C222.416,869.713 219.429,868.992 217.392,870.002C215.425,872.817 216.493,874.743 220.596,875.78C218.328,877.332 215.902,877.332 213.316,875.78C210.606,879.768 207.311,881.41 203.643,881.561C202.089,877.439 202.395,874.755 203.643,872.8C199.219,873.34 197.377,871.939 196.246,870.002C198.059,865.877 203.264,865.993 207.758,864.675C210.053,864.002 205.363,860.584 205.363,860.584C205.363,860.584 208.333,860.044 210.556,860.584C212.778,861.124 212.03,864.638 213.316,866.414C214.602,868.191 216.227,865.934 219.369,864.675C222.511,863.416 228.743,858.685 226.703,857.838C220.692,855.343 224.474,852.127 220.596,850.994C214.744,849.283 213.041,846.599 213.316,843.45C216.282,846.509 218.589,846.818 220.596,845.877C220.596,845.877 219.671,845.309 223.621,840.661C227.57,836.013 240.464,836.481 245.504,837.088C250.545,837.695 253.856,842.101 255.73,840.661C257.604,839.222 251.178,831.664 248.12,829.085C245.061,826.506 242.214,827.262 237.727,825.315C236.272,824.684 235.288,823.366 234.622,821.873C233.096,820.974 231.044,819.951 229.569,819.923C226.925,819.872 228.337,828.021 228.337,828.021C228.337,828.021 225.539,822.529 221.718,823.221C217.897,823.913 219.908,830.637 219.908,830.637C219.908,830.637 214.157,826.629 210.955,829.195C207.752,831.761 214.288,836.693 214.288,836.693C213.947,838.901 206.119,835.535 204.422,833.79C202.961,832.287 202.796,836.058 202.796,836.058C203.853,840.803 203.31,845.064 197.375,847.696C195.791,845.581 195.651,842.773 196.2,839.636C193.819,841.178 191.369,841.654 188.844,840.975C189.833,835.621 190.974,834.566 193.337,833.007C194.774,832.058 188.844,830.637 188.844,830.637C188.844,830.637 193.851,825.134 196.743,826.489C199.634,827.843 199.008,830.051 201.425,829.88C203.841,829.71 209.3,822.209 212.58,819.923C215.86,817.636 223.291,815.472 225.91,811.134C228.528,806.796 224.245,805.026 221.718,804.506C219.191,803.987 217.767,809.018 217.767,809.018C216.176,807.7 217.495,796.834 216.768,795.439C215.35,792.72 211.737,800.926 211.737,800.926C208.864,794.702 212.317,792.466 211.979,789.22L211.225,788.477C206.215,791.52 203.44,792.068 199.827,789.867C204.455,789.632 206.265,787.392 206.348,783.924C205.865,783.726 205.326,783.564 205.197,783.523C201.942,782.489 201.776,784.579 198.895,784.667C196.475,784.74 195.389,783.718 194.299,782.037C193.867,781.371 192.499,778 193.289,778.125C196.074,778.947 198.198,778.742 198.683,777.711C199.415,776.157 197.679,772.961 198.842,770.434C202.824,769.324 204.813,772.925 205.882,773.005C208.115,771.888 207.812,768.291 207.812,768.291C208.881,767.601 213.472,772.779 211.661,776.013C211.35,776.99 210.685,779.762 211.181,780.79C211.776,782.026 213.587,782.586 214.728,783.123C216.784,784.092 219.106,786.682 220.835,788.164C223.433,790.391 225.256,792.002 227.311,794.727C227.913,795.526 228.426,797.452 229.172,797.985C229.77,798.412 232.322,796.711 233.14,796.564C237.395,795.802 242.168,797.387 246.046,794.889C248.546,793.279 249.951,786.712 245.693,786.587C244.192,786.543 242.777,787.027 241.584,787.914C240.985,788.359 238.735,789.856 237.931,789.885C235.999,789.955 242.157,784.061 237.34,785.666C235.392,785.573 233.985,788.045 232.35,788.736C228.259,790.466 224.732,787.777 224.641,783.774C224.603,782.108 227.044,779.031 227.516,779.168C226.892,781.28 226.136,782.772 227.524,784.284C229.677,786.631 232.836,783.956 234.795,783.078C235.676,782.683 236.588,782.543 237.543,782.442C238.905,782.299 241.074,782.473 242.167,781.51C243.969,779.926 242.411,777.078 240.287,777.024C237.796,776.96 233.62,782.368 232.973,777.527C232.901,776.989 232.812,776.452 232.867,775.908C233.223,772.418 236.884,772.439 239.259,771.24C240.258,770.735 240.26,769.499 241.119,768.827C242.578,767.685 244.711,766.854 246.849,766.599Z" style="fill:rgb(24,24,135);stroke:rgb(24,23,135);stroke-width:1.11px;"/>
                </g>
                <g transform="matrix(0.210811,0,0,0.214701,-381.243,8.21903)">
                    <path d="M165.416,642.84C154.179,641.189 143.003,636.625 131.888,629.112L131.888,676.353C143.326,669.115 154.54,664.55 165.525,662.691C163.88,673.937 159.314,685.127 151.791,696.256L199.032,696.256C191.726,684.711 187.144,673.394 185.317,662.306C196.787,663.851 207.994,668.52 218.935,676.353L218.935,629.112C207.562,636.512 196.248,641.082 184.99,642.785C186.541,631.329 191.208,620.137 199.032,609.209L151.791,609.209C159.122,620.476 163.676,631.686 165.416,642.84Z" style="fill:rgb(24,24,135);"/>
                </g>
                <g transform="matrix(-0.586053,0,0,0.596869,-122.796,-207.998)">
                    <path d="M318,580L318,585L320,585L320,589L318,589L317,591L313,591L313,586L315,586L312,580L309,586L311,586L311,591L309,591L314,595L310.389,608L308,608L308,613L322,613L322,606C322,604.344 323.344,603 325,603C326.656,603 328,604.344 328,606L328,613L342,613L342,608L339.611,608L336,595L341,591L339,591L339,586L341,586L338,580L335,586L337,586L337,591L333,591L332,589L330,589L330,585L332,585L332,580L330,580L330,583L328,583L328,580L326,580L326,583L324,583L324,580L322,580L322,583L320,583L320,580L318,580ZM319,598L316,598L316,601L319,601L319,598ZM334,598L331,598L331,601L334,601L334,598ZM326,589L328,589L328,585L326,585L326,589ZM322,589L324,589L324,585L322,585L322,589Z" style="fill:rgb(219,36,19);"/>
                </g>
                <g transform="matrix(0.586053,0,0,0.596869,-494,-17)">
                    <path d="M239.292,328.543L239.592,328.194L244.14,332.108L242.27,334.281C241.216,332.415 240.224,330.504 239.292,328.543ZM322.316,328.328C321.364,330.262 320.352,332.152 319.28,333.999L317.653,332.108L322.201,328.194L322.316,328.328ZM242.973,324.646L240.848,326.763L245.082,331.014L247.207,328.897L242.973,324.646ZM318.82,324.646L320.945,326.763L316.711,331.014L314.586,328.897L318.82,324.646ZM246.64,321.356L244.353,323.297L248.235,327.871L250.523,325.93L246.64,321.356ZM315.153,321.356L317.441,323.297L313.558,327.871L311.271,325.93L315.153,321.356ZM237.278,324L240.397,324L240.397,325.095L239.789,325.7C239.508,325.981 239.361,326.346 239.349,326.714C239.112,326.753 238.883,326.849 238.684,327L238.576,327C238.128,326.011 237.695,325.01 237.278,324ZM324.314,324C323.888,324.985 323.448,325.959 322.994,326.921C322.824,326.815 322.637,326.746 322.444,326.714C322.433,326.346 322.286,325.981 322.004,325.7L321.397,325.095L321.397,324L324.314,324ZM250.593,318.366L248.147,320.102L251.618,324.995L254.065,323.26L250.593,318.366ZM311.2,318.366L313.647,320.102L310.175,324.995L307.728,323.26L311.2,318.366ZM254.869,315.722L252.264,317.211L255.241,322.42L257.846,320.931L254.869,315.722ZM306.925,315.722L309.529,317.211L306.552,322.42L303.948,320.931L306.925,315.722ZM325.397,321.393C325.315,321.596 325.233,321.8 325.152,322L318.231,322L316.397,320.443L316.397,319L325.397,319L325.397,321.393ZM236.397,321.79L236.472,321.986L236.478,322L243.563,322L245.397,320.443L245.397,319L236.397,319L236.397,321.79ZM259.466,313.516L256.712,314.705L259.09,320.213L261.844,319.024L259.466,313.516ZM302.328,313.516L305.082,314.705L302.703,320.213L299.949,319.024L302.328,313.516ZM264.392,311.85L261.509,312.68L263.17,318.446L266.052,317.616L264.392,311.85ZM297.402,311.85L300.284,312.68L298.624,318.446L295.741,317.616L297.402,311.85ZM269.441,310.848L266.48,311.333L267.451,317.254L269.441,316.928L269.441,310.848ZM292.352,310.848L295.313,311.333L294.343,317.254L292.352,316.928L292.352,310.848ZM248.397,314L242.397,314L242.397,317L248.397,317L248.397,314ZM313.397,314L319.397,314L319.397,317L313.397,317L313.397,314ZM233.753,314L240.397,314L240.397,317L234.69,317C234.365,316.01 234.053,315.011 233.753,314ZM328.024,314C327.707,315.01 327.376,316.01 327.033,317L321.397,317L321.397,314L328.024,314ZM311.397,316.879L311.397,314L306.405,314C306.453,314.089 306.491,314.182 306.519,314.278C306.893,314.173 307.306,314.212 307.669,314.42L310.274,315.908C310.654,316.126 310.903,316.484 310.993,316.881C311.126,316.862 311.262,316.861 311.397,316.879ZM255.388,314L250.397,314L250.397,316.879C250.531,316.861 250.667,316.862 250.801,316.881C250.89,316.484 251.139,316.126 251.52,315.908L254.124,314.42C254.487,314.212 254.901,314.173 255.274,314.278C255.302,314.182 255.341,314.089 255.388,314ZM252.397,309L246.397,309L246.397,312L252.397,312L252.397,309ZM244.397,309L238.397,309L238.397,312L244.397,312L244.397,309ZM260.397,311.674L260.397,309L254.397,309L254.397,312L260.172,312C260.232,311.882 260.307,311.772 260.397,311.674ZM301.397,311.674L301.397,309L307.397,309L307.397,312L301.621,312C301.561,311.882 301.486,311.772 301.397,311.674ZM309.397,309L315.397,309L315.397,312L309.397,312L309.397,309ZM232.398,309L236.397,309L236.397,312L233.181,312C232.908,311.008 232.646,310.008 232.398,309ZM329.397,309.257C329.151,310.179 328.896,311.095 328.63,312L325.397,312L325.397,309L329.397,309L329.397,309.257ZM317.397,309L323.397,309L323.397,312L317.397,312L317.397,309ZM268.397,309.499L268.397,309L262.397,309L262.397,310.864L263.976,310.409C264.402,310.286 264.837,310.36 265.185,310.577C265.403,310.204 265.779,309.928 266.238,309.853L268.397,309.499ZM299.397,310.864L297.817,310.409C297.392,310.286 296.956,310.36 296.608,310.577C296.391,310.204 296.014,309.928 295.555,309.853L293.397,309.499L293.397,309L299.397,309L299.397,310.864ZM256.397,304L250.397,304L250.397,307L256.397,307L256.397,304ZM264.397,304L258.397,304L258.397,307L264.397,307L264.397,304ZM272.397,304L266.397,304L266.397,307L272.397,307L272.397,304ZM248.397,304L242.397,304L242.397,307L248.397,307L248.397,304ZM289.397,304L295.397,304L295.397,307L289.397,307L289.397,304ZM231.397,304.575L231.397,304L240.397,304L240.397,307L231.923,307C231.74,306.197 231.565,305.388 231.397,304.575ZM297.397,304L303.397,304L303.397,307L297.397,307L297.397,304ZM305.397,304L311.397,304L311.397,307L305.397,307L305.397,304ZM313.397,304L319.397,304L319.397,307L313.397,307L313.397,304ZM330.397,305.196C330.259,305.799 330.118,306.4 329.971,307L321.397,307L321.397,304L330.397,304L330.397,305.196ZM268.397,299L262.397,299L262.397,302L268.397,302L268.397,299ZM252.397,299L246.397,299L246.397,302L252.397,302L252.397,299ZM286.397,299L291.397,299L291.397,302L285.397,302L286.397,299ZM275.397,299L270.397,299L270.397,302L276.397,302L275.397,299ZM260.397,299L254.397,299L254.397,302L260.397,302L260.397,299ZM230.397,299.115L230.397,299L236.397,299L236.397,302L230.894,302C230.718,301.046 230.552,300.084 230.397,299.115ZM244.397,299L238.397,299L238.397,302L244.397,302L244.397,299ZM309.397,299L315.397,299L315.397,302L309.397,302L309.397,299ZM293.397,299L299.397,299L299.397,302L293.397,302L293.397,299ZM317.397,299L323.397,299L323.397,302L317.397,302L317.397,299ZM301.397,299L307.397,299L307.397,302L301.397,302L301.397,299ZM331.397,300.341C331.294,300.896 331.188,301.449 331.078,302L325.397,302L325.397,299L331.397,299L331.397,300.341ZM229.675,294L273.397,294L273.397,297L230.074,297C229.931,296.008 229.798,295.008 229.675,294ZM332.407,294C332.272,295.007 332.126,296.006 331.969,297L288.397,297L288.397,294L332.407,294Z" style="fill:rgb(16,1,0);"/>
                </g>
                <g transform="matrix(0.586053,0,0,0.596869,-504.317,-207.998)">
                    <path d="M298,568C312.14,578.313 330.383,581.353 352.561,572C358.956,629.617 340.908,671.553 298,693C255.092,671.553 238.606,629.617 245,572C267.178,581.353 283.86,578.313 298,568ZM298,569.171C305.698,574.641 314.57,578.007 324.591,578.496C332.863,578.899 341.923,577.34 351.753,573.362C354.517,599.641 352.136,622.604 344.54,641.781C335.86,663.693 320.365,680.643 298,691.937C275.585,680.615 260.508,663.607 252.252,641.613C245.066,622.469 243.041,599.564 245.808,573.362C255.583,577.327 264.3,578.888 272.207,578.5C281.849,578.026 290.298,574.66 298,569.171Z" style="fill:rgb(113,110,97);"/>
                </g>
                <g transform="matrix(0.586053,0,0,0.596869,-494,-17)">
                    <path d="M287.848,381.051C287.401,378.256 287.02,374.321 287.116,372.014L287.03,371.555C286.87,371.35 286.821,371.161 286.926,371L287.03,371.555C287.061,371.594 287.096,371.635 287.135,371.675C287.196,370.784 287.344,370.202 287.609,370.131C308.118,364.702 318.56,356.161 325.782,346.935C326.433,346.104 327.042,345.303 327.61,344.522C327.053,343.991 326.461,343.391 325.873,342.763C323.398,340.121 319.969,338.382 321.586,336.415C323.46,334.6 324.852,333.021 325.873,331.594C328.901,327.362 328.151,324.825 328.623,321.816C329.215,318.033 330.601,310.296 337.062,307.96C336.092,311.089 336.223,313.892 337.607,316.324C341.023,314.126 343.844,313.932 346.323,314.887C341.533,318.325 340.521,323.452 340.422,326.25C340.288,330.035 340.662,334.175 337.007,339.885C338.627,341.194 340.33,342.633 341.556,343.826C342.746,344.985 342.136,348.056 341.556,348.949C333.902,360.716 324.005,372.3 302.184,380.257L305.288,388.297C305.637,390.808 304.107,392.133 302.887,392.619C296.146,395.305 288.936,396.335 281.892,396.311C281.642,396.31 281.398,396.302 281.161,396.287C280.925,396.302 280.681,396.31 280.43,396.311C273.387,396.335 266.177,395.305 259.436,392.619C258.216,392.133 256.686,390.808 257.035,388.297L260.139,380.257C238.317,372.3 228.421,360.715 220.767,348.949C220.186,348.056 219.577,344.985 220.767,343.826C221.993,342.633 223.696,341.194 225.316,339.885C221.66,334.175 222.035,330.035 221.901,326.25C221.802,323.452 220.789,318.325 216,314.887C218.479,313.932 221.3,314.126 224.716,316.324C226.1,313.892 226.231,311.089 225.261,307.96C231.721,310.296 233.107,318.033 233.7,321.816C234.172,324.825 233.421,327.362 236.449,331.594C237.471,333.021 238.863,334.6 240.737,336.415C242.353,338.382 238.925,340.121 236.449,342.763C235.861,343.391 235.269,343.991 234.713,344.522C235.281,345.303 235.89,346.104 236.541,346.935C243.763,356.161 254.204,364.702 274.713,370.131C275.646,370.378 275.131,376.946 274.475,381.051C276.595,381.3 278.717,381.414 280.819,381.407C280.934,381.406 281.048,381.408 281.161,381.413C281.275,381.408 281.389,381.406 281.504,381.407C283.606,381.414 285.728,381.3 287.848,381.051Z" style="fill:rgb(189,189,187);"/>
                </g>
                <g transform="matrix(0.586053,0,0,0.596869,-494,-17)">
                    <path d="M326.619,344.605C326.196,344.187 325.76,343.739 325.326,343.276C323.803,341.651 321.933,340.355 321.053,339.147C320.586,338.505 320.364,337.867 320.43,337.238C320.474,336.811 320.647,336.376 321.006,335.939C321.024,335.917 321.044,335.896 321.064,335.876C321.895,335.071 322.63,334.313 323.279,333.595C324.061,332.729 324.717,331.921 325.263,331.157C326.475,329.463 327.05,328.06 327.339,326.786C327.749,324.973 327.613,323.414 327.882,321.7C328.272,319.209 329.011,315.063 331.215,311.759C332.511,309.815 334.305,308.159 336.806,307.255C337.074,307.158 337.374,307.221 337.579,307.418C337.785,307.614 337.862,307.911 337.778,308.182C337.343,309.586 337.139,310.92 337.191,312.18C337.236,313.265 337.471,314.293 337.907,315.262C339.238,314.491 340.484,314.014 341.655,313.776C343.45,313.413 345.079,313.604 346.592,314.187C346.85,314.286 347.032,314.518 347.067,314.791C347.102,315.065 346.984,315.335 346.76,315.496C344.837,316.876 343.558,318.545 342.715,320.21C341.567,322.48 341.226,324.745 341.171,326.277C341.092,328.504 341.179,330.852 340.557,333.558C340.128,335.42 339.369,337.449 337.993,339.72C338.122,339.825 338.25,339.93 338.378,340.036C339.728,341.148 341.065,342.301 342.079,343.289C342.669,343.863 342.955,344.793 342.985,345.798C343.028,347.206 342.587,348.739 342.184,349.358C336.785,357.658 330.277,365.865 319.333,372.8C314.788,375.681 309.476,378.342 303.157,380.697L305.988,388.027C306.009,388.081 306.023,388.137 306.031,388.194C306.207,389.463 305.965,390.473 305.531,391.26C304.945,392.323 303.996,392.985 303.164,393.316C299.766,394.67 296.249,395.61 292.695,396.209C289.105,396.815 285.476,397.073 281.89,397.061C281.89,397.061 281.161,397.038 281.161,397.038L280.433,397.061C276.847,397.073 273.218,396.815 269.628,396.209C266.073,395.61 262.557,394.67 259.159,393.316C258.327,392.985 257.378,392.323 256.792,391.26C256.358,390.473 256.116,389.463 256.292,388.194C256.3,388.137 256.314,388.081 256.335,388.027L259.165,380.697C252.846,378.342 247.534,375.681 242.99,372.8C232.046,365.865 225.538,357.658 220.139,349.358C219.736,348.739 219.295,347.206 219.337,345.798C219.368,344.793 219.654,343.863 220.244,343.289C221.258,342.301 222.594,341.148 223.944,340.036C224.073,339.93 224.201,339.825 224.329,339.72C222.954,337.449 222.194,335.42 221.766,333.558C221.143,330.852 221.23,328.504 221.151,326.277C221.097,324.745 220.756,322.48 219.607,320.21C218.765,318.545 217.486,316.876 215.563,315.496C215.339,315.335 215.221,315.065 215.256,314.791C215.291,314.518 215.473,314.286 215.73,314.187C217.244,313.604 218.873,313.413 220.668,313.776C221.839,314.014 223.085,314.491 224.416,315.262C224.852,314.293 225.087,313.265 225.132,312.18C225.183,310.92 224.98,309.586 224.545,308.182C224.461,307.911 224.538,307.614 224.743,307.418C224.949,307.221 225.249,307.158 225.516,307.255C228.017,308.159 229.812,309.815 231.108,311.759C233.312,315.063 234.051,319.209 234.441,321.7C234.71,323.414 234.574,324.973 234.984,326.786C235.272,328.06 235.847,329.463 237.059,331.157C237.606,331.921 238.262,332.729 239.044,333.595C239.692,334.313 240.427,335.071 241.259,335.876C241.279,335.896 241.298,335.917 241.316,335.939C241.675,336.376 241.849,336.811 241.893,337.238C241.958,337.867 241.737,338.505 241.269,339.147C240.39,340.355 238.519,341.651 236.997,343.276C236.563,343.739 236.127,344.187 235.704,344.605C236.155,345.212 236.631,345.833 237.132,346.473C241.252,351.737 246.434,356.776 253.984,361.126C259.519,364.316 266.324,367.135 274.905,369.406C275.191,369.482 275.534,369.76 275.726,370.327C275.845,370.385 275.949,370.474 276.025,370.59C276.231,370.906 276.266,371.258 276.109,371.638C276.082,371.703 276.046,371.772 276.002,371.843L275.954,372.097C276.001,373.498 275.897,375.41 275.708,377.319C275.603,378.374 275.473,379.427 275.333,380.39C277.166,380.577 278.999,380.663 280.816,380.657L281.161,380.663L281.506,380.657C283.323,380.663 285.156,380.577 286.989,380.39C286.849,379.428 286.72,378.374 286.615,377.319C286.425,375.41 286.322,373.498 286.369,372.097L286.321,371.843C286.277,371.772 286.241,371.703 286.214,371.638C286.057,371.258 286.092,370.906 286.298,370.59C286.374,370.474 286.478,370.385 286.596,370.326C286.789,369.76 287.132,369.482 287.418,369.406C295.999,367.135 302.803,364.316 308.339,361.126C315.888,356.776 321.071,351.737 325.191,346.473C325.692,345.833 326.168,345.212 326.619,344.605ZM281.132,382.162L281.501,382.157C283.993,382.165 286.512,382.006 289.023,381.656C291.502,381.311 293.972,380.779 296.396,380.04C298.314,379.456 299.439,378.939 300.104,378.183C300.22,378.051 300.324,377.912 300.416,377.763C300.416,377.763 304.556,388.483 304.556,388.483C304.658,389.328 304.509,390.006 304.217,390.536C303.821,391.256 303.172,391.698 302.609,391.923C299.31,393.237 295.896,394.148 292.445,394.73C288.94,395.321 285.397,395.573 281.895,395.561L281.208,395.539C281.177,395.537 281.146,395.537 281.115,395.539L280.428,395.561C276.926,395.573 273.383,395.321 269.878,394.73C266.427,394.148 263.013,393.237 259.714,391.923C259.15,391.698 258.502,391.256 258.106,390.536C257.814,390.007 257.665,389.329 257.766,388.487C257.767,388.483 261.906,377.763 261.906,377.763C261.999,377.912 262.103,378.051 262.219,378.183C262.884,378.939 264.009,379.456 265.926,380.04C268.351,380.779 270.821,381.311 273.3,381.656C275.81,382.006 278.33,382.165 280.821,382.157L281.132,382.162ZM289.393,380.086L288.112,373.252C289.268,373.876 290.751,374.457 291.729,374.724C292.166,374.843 292.622,374.9 293.091,374.916C294.624,374.969 296.314,374.523 297.818,374.742C297.854,374.747 297.89,374.75 297.926,374.75C298.426,374.75 298.793,374.962 299.06,375.227C299.244,375.41 299.386,375.617 299.492,375.809C299.426,376.403 299.285,376.843 298.978,377.192C298.443,377.799 297.5,378.136 295.959,378.606C293.798,379.264 291.6,379.752 289.393,380.086ZM272.93,380.086L274.211,373.252C273.055,373.876 271.572,374.457 270.594,374.724C270.157,374.843 269.701,374.9 269.232,374.916C267.698,374.969 266.008,374.523 264.505,374.742C264.469,374.747 264.433,374.75 264.397,374.75C263.897,374.75 263.53,374.962 263.263,375.227C263.079,375.41 262.937,375.617 262.831,375.809C262.897,376.403 263.038,376.843 263.345,377.192C263.879,377.799 264.822,378.136 266.364,378.606C268.524,379.264 270.722,379.752 272.93,380.086ZM274.408,371.371C274.194,371.537 273.912,371.707 273.599,371.881C272.539,372.469 271.12,373.025 270.199,373.276C269.703,373.412 269.173,373.434 268.628,373.416C267.208,373.368 265.699,373.064 264.333,373.252C263.405,373.265 262.71,373.661 262.205,374.164C262.062,374.307 261.935,374.458 261.823,374.611C261.609,374.677 261.428,374.838 261.343,375.058L259.706,379.298C253.49,376.982 248.264,374.367 243.792,371.533C233.063,364.733 226.69,356.678 221.396,348.54C221.137,348.142 220.895,347.233 220.844,346.318C220.802,345.566 220.854,344.788 221.29,344.364C222.279,343.401 223.582,342.277 224.898,341.193C226.804,339.623 228.737,338.135 229.795,337.332L229.795,337.332C230.274,338.619 230.866,339.855 231.57,341.089C232.727,343.119 234.188,345.147 235.95,347.398C240.177,352.796 245.492,357.964 253.235,362.425C258.819,365.643 265.671,368.495 274.298,370.797C274.322,370.879 274.354,370.994 274.37,371.093C274.385,371.18 274.397,371.273 274.408,371.371ZM302.617,379.298L300.98,375.058C300.895,374.838 300.714,374.677 300.499,374.611C300.388,374.458 300.261,374.307 300.118,374.164C299.613,373.661 298.916,373.264 297.978,373.25C296.619,373.065 295.112,373.368 293.694,373.416C293.15,373.434 292.62,373.412 292.124,373.276C291.203,373.025 289.784,372.469 288.724,371.881C288.41,371.707 288.129,371.537 287.914,371.371C287.925,371.273 287.938,371.18 287.953,371.093C287.969,370.994 288.001,370.879 288.025,370.797C296.652,368.495 303.504,365.643 309.088,362.425C316.831,357.964 322.146,352.796 326.372,347.398C328.135,345.147 329.596,343.119 330.753,341.089C331.457,339.855 332.048,338.619 332.527,337.332L332.527,337.332C333.585,338.135 335.519,339.623 337.425,341.193C338.741,342.277 340.044,343.401 341.032,344.364C341.469,344.788 341.521,345.566 341.479,346.318C341.428,347.233 341.186,348.142 340.927,348.54C335.633,356.678 329.26,364.733 318.53,371.533C314.059,374.367 308.833,376.982 302.617,379.298ZM331.306,336.293C330.826,337.693 330.206,339.02 329.45,340.347C329.043,341.06 328.598,341.773 328.113,342.496L324.622,339.393C324.687,339.378 324.751,339.362 324.815,339.344C325.723,339.086 326.618,338.449 327.48,337.506C327.496,337.488 327.511,337.47 327.525,337.452C328.225,336.523 328.841,335.913 329.407,335.612C329.805,335.4 330.156,335.384 330.465,335.593L331.306,336.293ZM234.21,342.496C235.887,341.005 237.7,339.393 237.7,339.393C237.636,339.378 237.572,339.362 237.508,339.344C236.6,339.086 235.705,338.449 234.843,337.506C234.827,337.488 234.812,337.47 234.798,337.452C234.098,336.523 233.482,335.913 232.916,335.612C232.516,335.399 232.163,335.384 231.853,335.596L231.017,336.293C231.497,337.692 232.117,339.02 232.873,340.347C233.279,341.06 233.725,341.773 234.21,342.496ZM240.37,337.25C240.221,337.256 240.072,337.305 239.944,337.402C239.241,337.933 238.572,338.087 237.918,337.901C237.249,337.711 236.613,337.214 235.978,336.524C235.109,335.379 234.319,334.659 233.619,334.287C232.613,333.753 231.733,333.835 230.959,334.391C230.944,334.401 230.93,334.412 230.916,334.424L228.564,336.384C227.787,336.977 226.692,337.823 225.508,338.768C224.296,336.73 223.615,334.904 223.228,333.222C222.629,330.621 222.726,328.364 222.65,326.223C222.59,324.534 222.213,322.037 220.946,319.533C220.189,318.037 219.116,316.539 217.607,315.208L217.606,315.208C218.476,315.048 219.393,315.049 220.37,315.246C221.589,315.493 222.894,316.044 224.31,316.955C224.483,317.066 224.694,317.102 224.894,317.053C225.095,317.003 225.266,316.874 225.367,316.695C226.151,315.318 226.565,313.831 226.63,312.242C226.669,311.295 226.584,310.31 226.377,309.29C227.855,310.113 228.986,311.28 229.86,312.591C231.929,315.693 232.593,319.594 232.959,321.932C233.285,324.008 233.052,325.863 233.816,328.183C234.194,329.329 234.807,330.587 235.84,332.03C236.416,332.835 237.106,333.687 237.931,334.6C238.591,335.332 239.338,336.103 240.182,336.922C240.27,337.034 240.334,337.142 240.37,337.25ZM336.815,338.768C335.631,337.823 334.536,336.977 333.759,336.384L331.406,334.424C331.393,334.412 331.378,334.401 331.364,334.391C330.59,333.835 329.709,333.753 328.703,334.287C328.003,334.659 327.211,335.381 326.346,336.524C325.713,337.211 325.075,337.71 324.405,337.901C323.75,338.087 323.081,337.933 322.378,337.402C322.251,337.305 322.102,337.256 321.953,337.25C321.989,337.143 322.051,337.036 322.138,336.925C322.983,336.104 323.731,335.332 324.392,334.6C325.217,333.687 325.907,332.835 326.483,332.03C327.516,330.587 328.129,329.329 328.507,328.183C329.271,325.863 329.038,324.008 329.364,321.932C329.73,319.594 330.394,315.693 332.463,312.591C333.337,311.28 334.468,310.113 335.946,309.289C335.739,310.31 335.653,311.295 335.692,312.242C335.758,313.831 336.172,315.318 336.955,316.695C337.057,316.874 337.228,317.003 337.428,317.053C337.628,317.102 337.84,317.066 338.013,316.955C339.429,316.044 340.734,315.493 341.953,315.246C342.929,315.049 343.847,315.048 344.717,315.208L344.716,315.208C343.206,316.539 342.134,318.037 341.377,319.533C340.11,322.037 339.732,324.534 339.672,326.223C339.596,328.364 339.693,330.621 339.095,333.222C338.708,334.904 338.026,336.731 336.815,338.768Z" style="fill:rgb(113,110,97);"/>
                </g>
                <g id="text" transform="matrix(0.586053,0,0,0.596869,-494,-17)">
                    <path d="M282.407,393.732L281.691,385.172L288.038,384.641L288.159,386.089L283.54,386.476L283.699,388.373L287.997,388.014L288.117,389.456L283.82,389.816L284.015,392.145L288.797,391.745L288.918,393.188L282.407,393.732ZM273.921,384.579L277.342,384.876C278.019,384.935 278.521,385.007 278.849,385.092C279.177,385.178 279.464,385.321 279.711,385.523C279.958,385.725 280.157,385.982 280.306,386.295C280.455,386.608 280.514,386.949 280.482,387.319C280.447,387.72 280.307,388.078 280.062,388.394C279.817,388.71 279.502,388.936 279.118,389.071C279.626,389.268 280.004,389.562 280.253,389.952C280.501,390.342 280.604,390.784 280.561,391.278C280.527,391.668 280.404,392.038 280.191,392.39C279.978,392.742 279.705,393.015 279.373,393.207C279.041,393.4 278.643,393.501 278.179,393.512C277.888,393.518 277.192,393.477 276.09,393.389L273.177,393.136L273.921,384.579ZM293.165,392.308L292.32,388.793L288.097,384.692L290.073,384.217L292.834,387.048L293.964,383.28L295.907,382.813L294.003,388.4L294.846,391.903L293.165,392.308ZM264.298,386.535C264.529,385.691 264.849,385.017 265.258,384.514C265.562,384.143 265.922,383.835 266.34,383.589C266.758,383.343 267.183,383.192 267.615,383.136C268.191,383.058 268.816,383.112 269.491,383.297C270.711,383.631 271.585,384.277 272.11,385.234C272.636,386.192 272.714,387.346 272.345,388.694C271.979,390.032 271.329,390.979 270.395,391.535C269.461,392.092 268.386,392.204 267.169,391.871C265.937,391.534 265.06,390.89 264.539,389.939C264.017,388.988 263.937,387.854 264.298,386.535ZM275.229,389.556L275.03,391.845L276.63,391.984C277.252,392.038 277.649,392.055 277.819,392.034C278.08,392.01 278.299,391.914 278.476,391.747C278.654,391.58 278.755,391.345 278.782,391.041C278.804,390.785 278.761,390.561 278.652,390.371C278.543,390.182 278.374,390.036 278.146,389.933C277.918,389.831 277.41,389.746 276.624,389.678L275.229,389.556ZM266.037,386.95C265.78,387.888 265.802,388.659 266.103,389.261C266.404,389.864 266.888,390.257 267.555,390.439C268.221,390.622 268.834,390.531 269.394,390.168C269.953,389.804 270.364,389.142 270.626,388.182C270.886,387.232 270.872,386.467 270.583,385.886C270.295,385.305 269.806,384.92 269.116,384.731C268.427,384.542 267.806,384.627 267.255,384.984C266.704,385.342 266.298,385.997 266.037,386.95ZM275.525,386.153L275.353,388.132L276.485,388.23C277.159,388.289 277.578,388.316 277.743,388.31C278.042,388.301 278.283,388.219 278.467,388.064C278.651,387.91 278.755,387.694 278.779,387.418C278.802,387.154 278.748,386.932 278.616,386.754C278.485,386.576 278.276,386.457 277.992,386.397C277.822,386.363 277.331,386.31 276.517,386.239L275.525,386.153ZM302.967,377.288L299.026,369.551L304.656,366.723L305.323,368.032L301.226,370.09L302.1,371.805L305.912,369.89L306.576,371.194L302.764,373.109L303.837,375.215L308.079,373.084L308.743,374.387L302.967,377.288ZM251.671,373.778L255.274,365.981L261.056,368.652L260.446,369.971L256.239,368.027L255.44,369.756L259.355,371.565L258.748,372.879L254.833,371.07L253.852,373.192L258.208,375.205L257.601,376.519L251.671,373.778ZM310.163,373.648L305.84,366.115L307.29,365.289L313.199,368.6L310.312,363.569L311.697,362.781L316.02,370.314L314.524,371.165L308.729,367.947L311.548,372.86L310.163,373.648ZM246.17,370.717L247.822,361.745L249.449,362.689L248.141,369.279L253.15,364.834L254.741,365.757L247.772,371.645L246.17,370.717ZM312.743,362.166L315.324,360.387C315.906,359.986 316.382,359.726 316.75,359.607C317.245,359.448 317.748,359.425 318.258,359.539C318.768,359.653 319.256,359.886 319.724,360.238C320.191,360.59 320.656,361.101 321.117,361.771C321.523,362.36 321.801,362.916 321.951,363.441C322.135,364.082 322.175,364.676 322.072,365.221C321.996,365.634 321.796,366.052 321.473,366.476C321.231,366.792 320.849,367.129 320.327,367.489L317.67,369.32L312.743,362.166ZM241.09,367.428L245.96,360.351L247.388,361.334L242.519,368.411L241.09,367.428ZM314.989,362.403L318.252,367.142L319.306,366.415C319.701,366.143 319.97,365.924 320.113,365.758C320.302,365.542 320.424,365.312 320.479,365.068C320.533,364.824 320.498,364.508 320.373,364.122C320.248,363.736 319.995,363.266 319.614,362.713C319.233,362.16 318.893,361.769 318.593,361.538C318.294,361.308 318.001,361.169 317.715,361.122C317.429,361.074 317.134,361.112 316.83,361.235C316.601,361.326 316.199,361.569 315.623,361.966L314.989,362.403ZM233.959,361.791L239.43,355.169L242.244,357.494C242.952,358.079 243.417,358.563 243.639,358.947C243.862,359.331 243.944,359.755 243.885,360.218C243.827,360.682 243.636,361.109 243.312,361.501C242.901,361.997 242.416,362.287 241.857,362.369C241.297,362.452 240.692,362.295 240.041,361.899C240.191,362.307 240.277,362.689 240.298,363.046C240.32,363.403 240.277,363.971 240.171,364.75L239.912,366.71L238.313,365.389L238.537,363.149C238.619,362.351 238.652,361.832 238.637,361.594C238.621,361.355 238.563,361.152 238.462,360.986C238.362,360.819 238.158,360.609 237.851,360.355L237.58,360.131L235.296,362.896L233.959,361.791ZM319.067,357.787L320.352,356.651L323.448,360.19C323.94,360.752 324.274,361.102 324.452,361.24C324.741,361.459 325.059,361.558 325.408,361.537C325.757,361.516 326.111,361.347 326.469,361.029C326.834,360.707 327.042,360.387 327.094,360.07C327.145,359.753 327.092,359.466 326.935,359.21C326.777,358.954 326.472,358.567 326.02,358.05L322.857,354.435L324.142,353.298L327.145,356.731C327.832,357.515 328.282,358.1 328.496,358.486C328.71,358.871 328.821,359.258 328.829,359.646C328.837,360.034 328.743,360.432 328.546,360.841C328.349,361.25 327.999,361.677 327.495,362.123C326.887,362.66 326.363,362.996 325.923,363.129C325.483,363.263 325.071,363.295 324.687,363.226C324.303,363.157 323.972,363.022 323.693,362.821C323.282,362.52 322.756,362.005 322.116,361.274L319.067,357.787ZM238.453,359.074L239.442,359.892C240.084,360.422 240.507,360.726 240.711,360.803C240.916,360.881 241.118,360.891 241.317,360.833C241.517,360.775 241.699,360.647 241.863,360.448C242.048,360.225 242.137,359.996 242.131,359.761C242.125,359.526 242.029,359.3 241.842,359.085C241.746,358.98 241.427,358.704 240.885,358.256L239.842,357.394L238.453,359.074ZM229.947,357.486L235.252,352.712L233.547,350.817L234.627,349.845L239.193,354.919L238.113,355.891L236.412,354.001L231.107,358.775L229.947,357.486ZM331.238,358.465L324.6,352.885L326.894,350.089C327.471,349.386 327.95,348.926 328.331,348.708C328.711,348.489 329.133,348.412 329.595,348.477C330.057,348.542 330.484,348.74 330.876,349.069C331.374,349.488 331.666,349.979 331.753,350.542C331.839,351.105 331.688,351.711 331.298,352.359C331.703,352.214 332.083,352.133 332.439,352.116C332.795,352.099 333.361,352.149 334.137,352.266L336.091,352.552L334.787,354.14L332.555,353.886C331.759,353.793 331.242,353.753 331.005,353.765C330.768,353.778 330.566,353.834 330.401,353.933C330.236,354.031 330.028,354.233 329.778,354.538L329.557,354.808L332.328,357.137L331.238,358.465ZM328.497,353.917L329.304,352.934C329.827,352.297 330.126,351.876 330.202,351.672C330.278,351.468 330.286,351.265 330.227,351.064C330.168,350.862 330.038,350.678 329.839,350.51C329.616,350.323 329.387,350.23 329.153,350.233C328.918,350.235 328.695,350.329 328.482,350.514C328.378,350.609 328.106,350.926 327.664,351.464L326.813,352.501L328.497,353.917ZM225.928,347.16L226.989,348.482C226.57,348.877 226.335,349.277 226.282,349.683C226.23,350.088 226.348,350.511 226.637,350.953C226.942,351.42 227.271,351.708 227.624,351.816C227.977,351.923 228.286,351.891 228.551,351.718C228.721,351.606 228.833,351.462 228.887,351.284C228.941,351.107 228.931,350.865 228.857,350.558C228.805,350.35 228.656,349.894 228.411,349.191C228.095,348.287 227.975,347.586 228.051,347.088C228.158,346.388 228.496,345.852 229.065,345.48C229.431,345.241 229.842,345.121 230.296,345.12C230.751,345.119 231.189,345.259 231.611,345.541C232.033,345.823 232.425,346.24 232.786,346.793C233.376,347.695 233.622,348.504 233.525,349.218C233.428,349.933 233.056,350.518 232.411,350.972L231.398,349.562C231.727,349.259 231.905,348.952 231.934,348.642C231.962,348.332 231.842,347.972 231.575,347.563C231.299,347.142 230.997,346.868 230.668,346.743C230.456,346.662 230.257,346.682 230.071,346.804C229.901,346.915 229.802,347.082 229.775,347.305C229.741,347.589 229.872,348.138 230.167,348.953C230.461,349.768 230.63,350.404 230.673,350.858C230.717,351.313 230.646,351.737 230.462,352.131C230.278,352.524 229.959,352.869 229.504,353.166C229.092,353.435 228.632,353.573 228.123,353.579C227.613,353.586 227.134,353.437 226.686,353.133C226.237,352.828 225.809,352.364 225.401,351.74C224.807,350.831 224.56,349.995 224.662,349.233C224.764,348.472 225.186,347.78 225.928,347.16ZM336.659,351.657L329.406,346.931L332.771,341.58L333.998,342.38L331.55,346.273L333.158,347.321L335.436,343.698L336.658,344.494L334.38,348.117L336.354,349.403L338.889,345.372L340.111,346.168L336.659,351.657Z" style="fill:rgb(24,24,135);fill-rule:nonzero;"/>
                </g>
            </g>
        </g>
    </g>
</svg>
