<svg xmlns="http://www.w3.org/2000/svg" width="148" height="148" viewBox="0 0 148 148">
  <defs>
    <style>
      .cls-1 {
        fill: #8c2651;
      }

      .cls-2 {
        fill: #c9ebff;
        fill-rule: evenodd;
      }
    </style>
  </defs>
  <g id="Layer_7" data-name="Layer 7">
    <rect class="cls-1" x="3" y="3" width="142" height="142"/>
    <path class="cls-2" d="M128.09985,50.70117H116.752a5.33674,5.33674,0,0,1-2.06323.129h-5.1582a2.83108,2.83108,0,0,0-.25781-1.28955,5.298,5.298,0,0,0-1.54761-.12891c-.68213.44562-1.75586.11457-2.45.25788-.29224.06036-.74927.52966-1.0315.64477q-.58044.06446-1.16064.129a10.08288,10.08288,0,0,1-1.41846.64471l-11.09009-.1289c-.6062-1.7143-5.4165-3.213-7.99487-2.708V48.509h.12891c.37524.43567.833.39118,1.41845.64478,1.65772.71838,4.16626,1.54132,5.02906,3.09485,2.07714-.39051,4.79077-.05054,7.09253-.12891q2.83666-.129,5.67382-.25793v.129h.12891v.25788c-1.26148.79382-1.59277,2.157-2.4502,3.35278-.65112.90851-1.58105,1.74152-2.19213,2.708-.74244,1.1745-.61451,2.67144-2.45,2.45013-.23071.54486-1.67431,2.416-2.06323,1.93427-.08935-.13-.166-.51569-.25805-.64478-.41309-.25616-1.60206-.1084-2.06324-.25787-.03857-1.03107.35108-2.0531.25806-3.61072-.37988-.29846-.50879-.88684-.90283-1.16058-.3584-.2489-.63721-.18427-.90259-.51581a2.02366,2.02366,0,0,1,.64478-.12891c.65283.60614,1.60864.87165,1.93432,1.8053a2.51163,2.51163,0,0,1,.12891,2.06329c-.20215.43274-.39624.328-.51587.90265a9.5254,9.5254,0,0,0,2.5791.129,2.02649,2.02649,0,0,0,.12891-.64478c-1.00977-.86248.01635-1.74395-.38672-2.708q-.25782-.19346-.51587-.38684c-.34693-.64667-.25391-1.26868-.64478-1.80536a6.58225,6.58225,0,0,0-5.02929-1.54743c-.46436.11969-.78565.523-1.1604.38684a7.899,7.899,0,0,1-.51587-1.16058H85.4165c.00245,1.21771-.43139,1.20306-.51587,2.1922.65357.19952.87061.562,1.67627.64477a1.57423,1.57423,0,0,1,1.28956-.38684,1.82425,1.82425,0,0,1,.12915.51581,6.22026,6.22026,0,0,0-1.41871.51581c-.57348.41486-.35083,1.025-1.2893,1.16058-.35962-.24841-1.03418-.08856-1.4187,0a2.02542,2.02542,0,0,0-.12891.64472c.90845.69482.70654,2.77154,1.80542,3.22381.12988.08936.51563.166.64478.25794.34033.65985-.19019,1.21728.77368,1.54742.27612.15747.35717.05.77368,0L87.60864,65.015a2.02513,2.02513,0,0,1-.64477.12891c-.46509-1.10608-2.71167.16785-3.095.77374-.157.24829.03515.60993-.12891.90265a4.92247,4.92247,0,0,1-.90259.64478c-.7251.40136-2.1289.36145-2.45019,1.16058-.23047.38409.00659.516.1289.90265a2.82054,2.82054,0,0,0-1.1604,1.28955h.12891c.82251.82367,1.74756.27606,2.708,0v.38684c-.769.5174-1.01343,1.46356-1.67652,2.06323-.65576.59351-2.06421.78626-2.83691,1.54749-.70142.691-1.20288,1.95581-2.321,2.1922-.65332-.77558-2.54809-1.24909-3.61059-1.54749-.58423-.164-.916.02954-1.28955-.25787-.10376-.13165-.0459-.03534-.12915-.25794.25195-.28485.04931-.49664.258-.90264.26685-.51929.92286-.46619,1.16065-1.16059a2.62,2.62,0,0,1-.77393-1.03161,1.69749,1.69749,0,0,0,1.54737-.90265,4.41341,4.41341,0,0,1-.77344-1.28955c.57348-.26056,1.15942-.56556,1.28931-1.28949a1.29387,1.29387,0,0,1-.64478-.77375,2.20687,2.20687,0,0,0,1.67651-1.16058,11.71834,11.71834,0,0,1-1.80542-1.28955h.12891V65.015a6.489,6.489,0,0,0,2.06348-.3869c.08105-.22613.02465-.12524.1289-.25787v-.25794a3.898,3.898,0,0,1-1.28955-1.28949c.78247-.13867,1.2688-.34515,1.28955-1.28955a1.67679,1.67679,0,0,1-.90283-1.16058c.39233-.41644.208-.94177,0-1.41846-.71728-.25464-1.89038.0741-2.96582-.129-.50146-1.30567-1.5459-1.45166-1.67627-2.708.35571-.52356.228-.925.90259-1.16059.48144-.35431,1.64966-.049,2.19214-.38684.10351-.1521.09961-.21679.1289-.5158a2.235,2.235,0,0,1-.64477-1.28956h.258c.76636-.44183,2.71387.17725,3.09473-.64471.23779-.41785-.301-1.14325-.1289-1.28955.92529-.60468,3.20117.04278,4.12646.129a1.48528,1.48528,0,0,0,.25781-.90271,1.38475,1.38475,0,0,1-.25781-.90265h2.708a2.365,2.365,0,0,0,.1289-.77375A4.30882,4.30882,0,0,1,81.29,47.09052a13.38118,13.38118,0,0,0,2.57886,0,1.3657,1.3657,0,0,0,.258-.64478,3.70383,3.70383,0,0,1-.77392-.90265,7.95868,7.95868,0,0,1,2.19238-.129,5.16594,5.16594,0,0,1,1.28955-.25793,2.03238,2.03238,0,0,0,.12891-.64472c-.41846-.17681-.95923-.36-1.16065-.77374h1.54737l2.32129-.64477a1.82552,1.82552,0,0,0,.1289-.51581,1.83088,1.83088,0,0,1-.77368-.51581H89.156c.98657-.8775,3.75952-.61755,4.25561-1.93426a.78789.78789,0,0,1-.25806-.25794A21.59767,21.59767,0,0,1,99.988,37.93488V37.548h-.25782c-.3518-.22876-.92968-.14471-1.16064-.5158,1.48169-.17981,6.42114-2.5412,6.83447-3.61066a2.3484,2.3484,0,0,1-1.1604-.129,29.26511,29.26511,0,0,0,4.771-3.86859,19.36876,19.36876,0,0,1,1.67651-1.93426c4.29492-3.23707,9.78272-8.47077,9.80054-15.86121h-.12915v-.129h-.12891v.129c-.73559.97229-1.11694,3.11969-1.80542,4.25543-2.28027,3.76294-4.67968,7.7251-8.124,10.31622a81.56856,81.56856,0,0,1-9.67139,6.70557c-2.72168,1.47882-5.519,2.51709-8.124,4.12647-3.94238,2.43573-7.76831,5.06512-11.73462,7.4793A68.41022,68.41022,0,0,1,72.521,48.38a17.77062,17.77062,0,0,0-3.73951,1.6764,13.622,13.622,0,0,0-4.64233,6.83453l.12891,1.8053c.33911.965,1.29858,1.21466,1.80542,1.93432.896,1.272,1.03076,4.94654-.51587,5.545v-.129a12.71191,12.71191,0,0,1-1.80518-2.32117h1.80518v-.38684c-.45581-.13952-.769-.49908-1.16065-.64477q-.90234-.12891-1.80517-.25794a1.82473,1.82473,0,0,1-.12891-.51581h.12891v-.1289a4.69168,4.69168,0,0,0,1.93432-.3869H64.655v-.12891c-.62524-.1015-2.87232-.786-3.095-1.16058q.19335-.06455.387-.129c.44336-.288,1.76538-.06506,2.06323-.51581h-.1289v-.129c-.94458-.06372-2.103-.12787-3.22388-.129v-.25788c.28394-.2146.26123-.36566.64478-.51581.58886-.46643,1.19531.0019,1.93432.129v-.25793c-.68994-.418-1.06616-1.05139-2.06323-1.16059-.876-.58819-1.82739.44727-2.4502.64478v-.38684a7.90745,7.90745,0,0,1,2.19239-1.54743v-.25793H59.88379c-.41748.26526-1.20606.00153-1.80542.129-1.83765.39062-4.54.70306-6.06079,0v-.129h.1289c.32447-.77289.9231-1.082,1.16065-2.06323a1.821,1.821,0,0,0-.51563-.129c-.06372.0777-3.87963,2.53625-3.99755,2.579a1.34629,1.34629,0,0,1-.25806-.77368,2.6075,2.6075,0,0,0,.64477-1.67639h-.25781c-1.22729,1.8468-3.36084,2.27435-5.0293,3.61065-.2998.2403-.248.766-.51562,1.03162q-.516.19346-1.03174.3869c-.46875.319-.501.85089-1.16064,1.03162-.15284-.85529-.42993-2.10523-1.41846-2.1922A7.43612,7.43612,0,0,0,39.63818,59.47c.10376.13165.0459.03534.12891.25787h-.64478v-.1289h-.1289l-.25781-1.93433h-.51587v.25794c-.88721,1.32745.43213,2.11248.64477,2.708.12476.35-.2583,1.23175-.258,1.8053q-2.96559-.32235-5.93165-.64471c-.50756-.13751-1.73339-.86078-2.06323-.64478-.1604.202-.08276.06574,0,.25788a10.97242,10.97242,0,0,0,4.77124,2.32116c1.15552.34418,2.395.2497,3.22364.90265.09716.13837.07763.12195.12915.3869C37.53491,66.97,40.41138,69.013,40.0249,71.07574a13.20806,13.20806,0,0,1-1.03149,3.86853c-.28638.52131-.81494.76258-1.0315,1.41852h.12891c.37793.438,2.31982,2.3819,2.83691,2.45008.26392-.25116.55542-.33551.77369-.64478.69067-1.18646.08032-2.77917,1.93432-2.83691a2.33356,2.33356,0,0,0,.38672.5158c-.30835,1.36188-1.28686,3.08509.645,3.22382.29492-.535.22852-1.22674.51563-1.80536.27661-.55749.76464-.74872.90283-1.54742-2.26807-1.30866.05639-6.36115,2.45-6.06079.41186,1.61969,1.37964,2.51318,1.41846,4.64233-2.47339,1.672-2.63453,5.43823-2.45,9.41351h-.1289v.129a34.1328,34.1328,0,0,1-6.70557-1.93426c-.66382-.28858-1.31567-1.07593-1.93432-1.28955-2.02442-.69886-4.82813,1.38018-5.93189,1.93426-4.08105,2.04877-9.4873,2.72717-14.44287,3.99756V86.808c1.20093.41791,3.21,2.8899,4.90039,2.45008a6.55141,6.55141,0,0,0,1.80518-.77375c.59008-.55706.06494-1.26348,1.16064-1.41845.98.61621,2.12769-.3656,2.708-.64478q3.41674-1.28934,6.83447-2.579A7.62848,7.62848,0,0,1,37.31689,84.1c.74878.1643,1.6001-.14655,2.19239.1289a26.99116,26.99116,0,0,0,3.35278,1.80536v.25787h-2.708c-.97973.63025-4.32226.1474-5.803.129-1.38769,2.037-3.96142,3.21106-6.57666,3.99756l-1.93408.25787c-.73486.28107-.99438,1.4101-1.80542,1.6764q-.516-.06445-1.03149-.12891a14.93135,14.93135,0,0,0-3.48194,2.96588c2.04639,1.38178,3.40552,1.15759,5.54493.129.62255-.29926.78466.02923,1.03173-.64478.187-.25085.20264-.76336.38672-1.03161.59326-.39331,1.606-.05561,2.32129-.38684.31812-.14728.61963-.69556.90259-.90271.90576-.66236,1.86108-1.063,2.83716-1.6764.43725-.2749.90039-.85467,1.41846-1.03161q1.61169-.06446,3.22363-.12891a17.39607,17.39607,0,0,1,6.06079.12891q2.3855.129,4.77124.25793c1.49463.48578,2.31909,1.527,4.51343,1.54743a5.06172,5.06172,0,0,1,2.06323-1.6764c1.32666,1.942,3.83887,3.72706,5.803,5.02918.73511.48743,2.282.788,2.45,1.8053-.69141.48236-.9209,1.37854-1.41846,2.06329a10.43354,10.43354,0,0,1-2.321,2.06323c-.67945.45313-1.73.48017-1.93433,1.41846l.38672.129c.4856.32715,1.12061-.04505,1.67651,0,1.04078.08429,1.498-.8609,2.321-1.28955,1.23657-.6438,3.31933.03711,3.48193-1.67639a1.054,1.054,0,0,1,.38672-1.8053c1.46411,1.36224,7.281,1.16058,10.18726,1.16058h3.73974c.98755.52686.55933,3.37067,2.45,3.48169a3.24,3.24,0,0,1,1.93433-.64478c.36572,1.36561,1.15918,1.1305,2.19214,1.80536.26538.17334.31909.51471.51587.77375a11.73507,11.73507,0,0,0,3.86865,3.35272v1.41852c.62988.45123,1.89356,1.92669,2.45,2.1922.51929.24768.97974-.00965,1.41846.25787.59546.36285.90137,1.46454,1.28955,2.06329a13.56331,13.56331,0,0,1,2.06348,10.44513l.1289,2.966a12.60131,12.60131,0,0,1-1.16064,2.579,10.46538,10.46538,0,0,0-.51587,4.25543,1.82557,1.82557,0,0,0,.51587.129c1.06006-.9621,4.15625-2.18348,4.25537-3.8686-.44385-.45556-1.50318-2.17389-1.28955-3.09484a13.67056,13.67056,0,0,0,.90283-2.966c.26758.048.24805.03125.38672.129,1.13013,1.38031.13135,2.14386.51587,3.73962a4.0121,4.0121,0,0,1,.258,1.93433,3.6382,3.6382,0,0,0-.258.90265,26.42168,26.42168,0,0,0,.64477,3.48169h.64478c.9978-1.29181,2.91919-2.3465,3.22388-4.25543q-.32227-.96708-.64478-1.93427c-.48608-.22644-1.19824-.231-1.41846-.77374-.18188-.3927.95606-2.95435,1.0315-3.9975-1.69776-1.33887-3.15308-4.74109-3.7395-7.22137-.3462-1.46393.05078-3.15772-.12916-4.25544-1.63037-.74865-3.75415-2.432-4.25537-4.25543-.53271-1.93921.98462-3.10809,1.41846-4.25543a25.04575,25.04575,0,0,0,1.16065-8.253h.25781v.129c.86474.6167,1.54761,2.61877,1.16064,4.38434-.51465,2.34924-.89013,5.30786,0,7.73718h.12891v-.129a5.02472,5.02472,0,0,0,.64477-1.93426c.10376.13165.0459.03533.12915.25787.17383.28326.02051.73053.12891,1.16058a18.76082,18.76082,0,0,0,1.28955,3.86859c2.09033,4.03839,8.23242,9.662,14.05567,9.80042l.1289-.25787c-2.20093-.97944-5.66553-3.5503-6.3186-5.93183h.258a8.09757,8.09757,0,0,0,5.158,1.67633v-.25787c-2.54687-.554-3.47363-2.28259-5.158-3.61066v-.129h.51563c.75244.715,2.12842.78943,3.61084.77369l.12891-.25788c-2.877-.38183-5.72535-2.77319-6.1897-5.545a12.66651,12.66651,0,0,1,.51587-3.35278,16.90978,16.90978,0,0,0-.51587-6.44764,9.31148,9.31148,0,0,0-6.1897-6.06079c-1.37378-.39477-3.19726-.11261-4.64233-.38684a15.16746,15.16746,0,0,0-7.86621-6.83447c-1.53369-.62469-3.36231-.67853-4.90015-1.28955q-.38672-.58026-.77368-1.16058.12891-.64472.25781-1.28949c-.06567-.2638-.56445-.44013-.64477-.64478-.20533-.52338.28418-1.57648.387-2.06323a10.95362,10.95362,0,0,0,3.61059-2.5791c.218-.191.98536-.74732,1.03174-.64472a19.42473,19.42473,0,0,1,1.1604,2.708,14.65217,14.65217,0,0,0,2.4502,3.09485q.58008.51572,1.1604,1.03162.12927.58016.25806,1.16058a5.74817,5.74817,0,0,0,1.41845,1.67639c1.36939.08838,2.47534.21631,3.7395.25787V83.4552a3.06127,3.06127,0,0,1-1.2893-1.67639,1.82072,1.82072,0,0,1,.51587-.129,5.07042,5.07042,0,0,0,1.67627.77374c2.79858,1.21277,4.05908,1.83625,7.47924.51581.36646-.14154.86939-.064,1.16065-.25793.10376-.13166.04565-.03534.12891-.25788-.55713-.23639-1.14478-.71972-1.67652-.90271q-.90234-.06444-1.80517-.1289c-.26563-.14728-.23731-.48523-.25806-.90271.10376-.13166.0459-.03534.12915-.25788q.45117-.32235.90259-.64477c1.20361-.4317,2.8789.17657,4.25537-.129.70044-.15545,1.57983-.365,2.19214-.51581.82519-.20318,2.33349.14716,2.83691-.38684l-2.063-.90271c-.88452-.26434-1.97558.057-2.708-.38684-.24169-.14636-.217-.3952-.258-.77368h.1289v-.129a16.05884,16.05884,0,0,1,2.83716.129v-.25793H113.657a6.87348,6.87348,0,0,0-5.80273-1.80536,7.40119,7.40119,0,0,1-3.6106.25793c-5.07226-1.368-7.87085-4.40838-8.898-9.80041a14.35,14.35,0,0,0,5.54492-6.06079,36.89184,36.89184,0,0,0,1.28956-3.73963c.114-.36859-.0376-.62768.1289-.90265.53223-.87774,1.74829-1.09558,2.4502-1.80536.927-.02337,2.14624.14533,2.45019.77375.19678.58068-.82959.78814-.64477,1.54742.08716.35815.6665.65326.90259.90265q1.41832.06446,2.83691.129a2.44271,2.44271,0,0,1,1.16064-.129c.82593.29706,1.25293,1.39239,2.19214,1.67639,1.15479.34912,2.71363-.46979,3.48169-.25793.31543.087.57886.76275.90283.90271h1.54737c.0708.02636.38916.35662.51587.38684.668.15912,1.51123-.62183,2.321-.25788.80249.36054,1.55151,1.39753,2.32129,1.8053.93042.49292,1.82983-.24078,2.96582.129.375.122,1.87354,1.28723,1.93433,1.16058.34936-.33838.55346-.82239.90258-1.16058v-.129h-.1289a3.81815,3.81815,0,0,0-3.22388-1.16058,3.31361,3.31361,0,0,1-1.41846.129c-1.18237-.4112-.68188-1.41572-2.83691-1.41846-.65552.36352-.96411-.59552-1.93433-.25794-.05542.01929-.29809.36432-.38671.38691a21.45883,21.45883,0,0,1-2.57911-.51587V56.633a21.34036,21.34036,0,0,0,2.57911-.51581c.19482-.45838.322-1.15882.90258-1.28949.217.20709.7417.26452.90259.51581.35254.55047-.02563.77075.64478,1.03161.665.5716,1.73462-.03766,2.5791.12891.42676.08423.83984.31354,1.28955.3869V56.504a2.32568,2.32568,0,0,0-.64478-.38684c-.72412-.5763-1.86352-.29157-2.96582-.25788-.48388-1.19079-.68261-1.89355-2.19238-2.06329a1.51067,1.51067,0,0,1-.64453.25794c-.11108.44732-.34766,1.23889-.77393,1.41845a12.85619,12.85619,0,0,1-2.45.51581v-.25787c-.09692-.13837-.07763-.12195-.12915-.38684.70728-.37067,1.50488-.59888,1.54761-1.6764-.35156-.22021-.32227-.327-.90259-.3869-.74145-.45477-1.57275.38379-2.45019.129-.61109-.17743-1.3501-.73132-2.06324-.90265-1.21338-.2915-2.13427.42535-3.22387.51581a4.79651,4.79651,0,0,1-.38672-.77374h-.12915c-.12769-.13019.12719-.12745.12915-.12891.13818-.09692.12182-.07758.38672-.129a3.88037,3.88037,0,0,0,2.06323,0q2.06286.06445,4.12646.129c4.96753,0,10.4419-.12805,14.82959.51581.5691-.56043,1.62037-.88507,1.93433-1.67639C131.94336,50.41815,129.60034,50.70117,128.09985,50.70117ZM84.64258,82.03668h-.51563a5.24672,5.24672,0,0,0-2.06323-.25787c.09155-1.15558.59155-2.08289.64478-3.48175h.38671q.19337.58026.387,1.16058.38672.32237.77368.64478c.09106.23932-.261.62384-.12891,1.03161C84.22485,81.437,84.523,81.66748,84.64258,82.03668ZM105.791,50.70117a4.5899,4.5899,0,0,1,.38671-.38684,3.08657,3.08657,0,0,1,2.57911-.25793,2.18558,2.18558,0,0,1,.25781.77374H105.791Zm5.416,3.09485c1.092-.72662,2.36743.449,2.96582.64478.773.25293,1.44776-.40076,2.06323,0a2.57143,2.57143,0,0,0-1.28955,1.93432h-.25781a6.03327,6.03327,0,0,0-2.321-1.80536c-1.13575-.36163-4.31055,1.04413-5.0293-.129-.18506-.3125.59375-.935.38672-1.54743-.11524-.34161-.80054-.49249-1.0315-.77368a2.35994,2.35994,0,0,1,.77369-.129,7.05889,7.05889,0,0,0,1.67651.25788C109.41675,53.36438,109.68457,53.863,111.207,53.796ZM105.91992,28.5213c.905-.63019,1.78662-1.38183,2.708-2.06323,3.96655-2.93384,8.52368-8.257,8.63989-14.95856q-.19373.06445-.387.129c-.25977,2.09753-1.88477,3.65234-2.83691,5.15814-1.2981,2.0528-2.58252,3.892-3.99756,5.80286-.72388.97754-1.84912,1.74444-2.5791,2.708a12.38049,12.38049,0,0,1-3.99756,3.73962V29.295h1.03173C104.88916,28.92847,105.47,28.83459,105.91992,28.5213Zm9.28467-3.73962h-.387c-.51294,1.40942-4.6399,5.11261-5.93189,6.06079-.87329.64087-2.57129,1.25134-2.96582,2.3211h.51587c.50049-.45678,1.14014-.44232,1.80518-.77368C111.24829,30.89191,115.23242,29.26508,115.20459,24.78168Zm-5.67407,9.2846c.5105-.5379,1.62866-.959,1.41845-1.80535-2.72876.47656-4.67065,2.35113-6.83447,3.48175-.77905.407-2.71533.52526-2.96582,1.41845h.25781a8.58713,8.58713,0,0,0,2.708-.38684c1.56934-.4093,3.1416-.347,4.25562-1.16058Q108.9502,34.84009,109.53052,34.06628Zm-3.22388,3.61066a53.34953,53.34953,0,0,0-8.76855,1.93433c-1.12354.37011-2.85816.39685-3.61084,1.16052h.1289c.48706.61841,3.01416.79474,4.25562.51581,3.36255-.75556,4.76782.05938,6.96338-2.06323C105.7583,38.75726,106.49707,38.44769,106.30664,37.67694Zm-7.866,7.09241a6.738,6.738,0,0,0,2.321-1.28955c.585-.43488,1.28638-.80225,1.54736-1.54743a20.10154,20.10154,0,0,0-4.25537.51581q-3.15894.06445-6.3186.129v.25793h.1289C92.59888,43.55188,96.65723,45.24963,98.44067,44.76935Zm-1.93432,1.54742c-1.1333-1.0592-6.18482-2.21795-8.38184-1.8053v.12891h.12891c.501.7721,1.1372.92584,1.93432,1.41852a9.50043,9.50043,0,0,0,1.28931.90265c1.49341.60113,3.80713-.08777,5.1582-.25788C96.5874,46.436,96.604,46.45551,96.50635,46.31677Zm-11.21875.25794q.709.64471,1.41845,1.28949c1.73438,1.08343,4.15918,1.27813,6.96338,1.28955l.12891-.25794a16.58674,16.58674,0,0,0-8.51074-2.708Zm-25.79077,5.416a21.15006,21.15006,0,0,1,2.5791.51581,10.6383,10.6383,0,0,0,2.708,1.03162v-.129H64.655c-.63794-.92645-2.10254-1.15723-2.19214-2.579.47168-.2915,2.981-1.9043,3.09473-2.32117-1.82569.39319-3.40235,1.58692-5.158,2.06323-2.11548.574-4.57886.10346-6.44776.77375v.129h.12891C55.09131,52.21191,57.99951,51.65479,59.49683,51.99072Zm27.85376,0c-.36158-.24218-.56739-.6726-.90259-.90271-1.18946-.81683-4.2478-1.84564-6.31861-1.16052,1.052,2.05048,4.15235,2.45056,7.2212,2.45007ZM63.36548,51.088h-.12891c-.12768.13025.127.12751.12891.129.32593.36816,1.23315.285,1.93432.25793.28882.18055.42237.07032.77369,0q.19335-.2579.387-.5158a3.23882,3.23882,0,0,1-.64478-.25794H63.49438Zm20.63257,2.45014c-.4187-.26923-.645-.769-1.03174-1.03162-.6919-.47-1.74219-.41492-2.4502-.90271q-1.9984.06446-3.99756.129v.25793c.56641.37055,1.00879,1.031,1.67652,1.28949a21.03436,21.03436,0,0,0,5.67383.77375A1.8248,1.8248,0,0,0,83.99805,53.53815Zm-4.12647,1.93426.12891-.38684A10.92526,10.92526,0,0,0,78.582,54.054c-.529-.22272-1.3435-.08472-1.80542-.38685l-3.48169.12891V54.054c.93164.32946,1.55274,1.26513,2.5791,1.54742C76.85205,55.87048,78.76709,55.39618,79.87158,55.47241Zm-9.80054-.1289v.25787c.72242.47571,1.22925,1.35419,2.19214,1.54742a30.74274,30.74274,0,0,0,3.22388-.129L75.616,56.762a12.252,12.252,0,0,0-1.80542-1.16058c-.56763-.21631-1.32886-.0733-1.80518-.38684A6.65194,6.65194,0,0,0,70.071,55.34351Zm5.416,2.83691h-.12891v.129h.12891c1.7627,1.2381,6.52441-.85224,6.3186-1.93427C79.39355,56.30035,76.45825,56.78058,75.48706,58.18042Zm6.06079.77374a1.36008,1.36008,0,0,1-.77368-.129c-2.42017.03015-4.92773.37219-5.54517,2.1922h.25806C76.70386,61.59442,81.19824,59.70905,81.54785,58.95416Zm-3.095,2.579c-1.01343.61548-2.20679.32477-2.96582,1.28955-.09692.13837-.07764.12195-.12891.38684,2.10547.11676,5.88672-.12768,6.44751-1.67639Zm3.22388,2.45014c-.45191-.13819-1.66358-.0011-2.06323-.25794-1.75464-.02527-4.24878.33985-4.51343,1.80536h.258C76.67017,66.42023,81.26245,64.61609,81.67676,63.98334Zm-1.03174,2.708h-.12891v-.129c-.26757-.048-.248-.03119-.38672-.129A11.28708,11.28708,0,0,0,74.58447,67.465c.11719.13977-.01025.01092.12891.129C76.17261,68.58856,80.19775,68.01471,80.645,66.69135Zm-1.93408,2.3211c-1.08252-.72241-3.9043.43085-4.64234.64478v.38684c1.41724.17224,4.67383,1.11731,4.90015-1.03162Zm.25781,2.96594h-.25781c-.94873-.57251-2.48535-.2716-3.35279-.90265-.82348.25416-1.92041.21564-2.5791.51581.0813.22614.02491.12525.12891.25788a4.99092,4.99092,0,0,0,5.93188.38684C78.9436,72.10461,78.88574,72.201,78.96875,71.97839Zm-7.47925,2.579a29.217,29.217,0,0,0,4.77124,1.03162q.38672-.51572.77368-1.03162v-.25787l-.38671-.129c-.09961-.088-.28785-.16906-.387-.25793C74.9873,73.86542,71.71191,73.64777,71.4895,74.55743Z"/>
  </g>
</svg>
