<svg id="usa_normandy_flametrooper_2_icon" xmlns="http://www.w3.org/2000/svg" width="150" height="150" viewBox="0 0 150 150">
  <defs>
    <style>
      .cls-1 {
        fill: #384391;
      }

      .cls-1, .cls-2, .cls-3 {
        fill-rule: evenodd;
      }

      .cls-2 {
        fill: #ebd019;
      }

      .cls-3 {
        fill: #b55f13;
      }
    </style>
  </defs>
  <path class="cls-1" d="M133.959,0.923H16.041v118.43a19.7,19.7,0,0,0,19.536,19.862H60.785a16.474,16.474,0,0,1,8.608,2.362,12.012,12.012,0,0,1,5.52,6.9h0.175a12.011,12.011,0,0,1,5.52-6.9,16.475,16.475,0,0,1,8.609-2.362h25.208a19.7,19.7,0,0,0,19.535-19.862V0.923"/>
  <path class="cls-2" d="M131.421,58.987V54.018H120.912v4.968H111.08V54.018H100.57v4.968H90.738V54.018H80.228v4.968H70.4V54.018H59.886v4.968H50.053V54.018H39.544v4.968H29.711V54.018H19.2v4.968H16.04V97.017H133.96V58.987h-2.539Z"/>
  <path class="cls-2" d="M94.487,23.772a8.107,8.107,0,0,1-4.816,5.894,5.573,5.573,0,0,0-.654-3.618,3.358,3.358,0,0,0-2.9-1.7,4.237,4.237,0,0,0-2.3.742c-2.1,1.351-3.2,4.729-3.49,6.327-0.016.085-.032,0.186-0.049,0.3a1.578,1.578,0,0,1,.939,1.211,1.252,1.252,0,0,1,1.249,1.252v0.433a1.252,1.252,0,0,1-1.249,1.252,1.574,1.574,0,0,1-1.307,1.312,3.973,3.973,0,0,0,.173,1.255,1.32,1.32,0,0,0,.846,1H81.29l-0.017-.357a1.047,1.047,0,0,1,.555-0.963,1.693,1.693,0,0,1,2.263.977,2.128,2.128,0,0,1-.374,1.828,2.7,2.7,0,0,1-2.259,1.253,3.271,3.271,0,0,1-1.082-.2c-1.6-.56-2.487-2.167-2.645-4.776H76.6a14.344,14.344,0,0,0,1.052,4.54l0.065,0.151a3.693,3.693,0,0,1-.541,4.368c-0.6.686-1.008,1.145-1.3,1.474-0.5.56-.667,0.752-0.884,1.048-0.217-.3-0.388-0.488-0.885-1.048-0.291-.328-0.7-0.787-1.3-1.474a3.694,3.694,0,0,1-.541-4.368l0.065-.151a14.346,14.346,0,0,0,1.052-4.54H72.269c-0.159,2.609-1.046,4.217-2.645,4.776a3.274,3.274,0,0,1-1.082.2h0a2.7,2.7,0,0,1-2.259-1.253,2.129,2.129,0,0,1-.373-1.828,1.693,1.693,0,0,1,2.263-.977,1.047,1.047,0,0,1,.555.965l-0.012.354,0.353,0a1.32,1.32,0,0,0,.847-1,4.107,4.107,0,0,0,.175-1.308A1.572,1.572,0,0,1,69,35.865a1.252,1.252,0,0,1-1.249-1.252V34.179A1.252,1.252,0,0,1,69,32.927a1.574,1.574,0,0,1,.736-1.1c-0.023-.158-0.044-0.3-0.065-0.407-0.291-1.6-1.394-4.977-3.491-6.327a4.238,4.238,0,0,0-2.3-.742,3.358,3.358,0,0,0-2.9,1.7,5.575,5.575,0,0,0-.654,3.618,8.107,8.107,0,0,1-4.816-5.894A6.105,6.105,0,0,1,56.879,19a5.17,5.17,0,0,1,3.91-1.833h0.105c3.134,0,5.728,1.668,7.931,5.1a24.192,24.192,0,0,1,3.2,9.247l0.011,0.076h1.232a29,29,0,0,0-1.605-6.628c-0.222-.672-0.462-1.4-0.72-2.224-1.318-4.219-.839-6.415-0.275-7.857,0.508-1.3,3.544-6.1,4.328-7.333,0.783,1.231,3.819,6.033,4.328,7.333,0.564,1.442,1.043,3.639-.275,7.857-0.258.824-.5,1.553-0.72,2.225a28.985,28.985,0,0,0-1.6,6.627h1.242l0.009-.058a24.209,24.209,0,0,1,3.2-9.266c2.2-3.431,4.8-5.1,7.931-5.1h0.106A5.171,5.171,0,0,1,93.121,19,6.1,6.1,0,0,1,94.487,23.772ZM70.556,114.5l4.409-13.57,4.409,13.57H93.64L82.1,122.882l4.409,13.57-11.542-8.388-11.543,8.388,4.409-13.57L56.288,114.5H70.556Z"/>
  <path class="cls-3" d="M94.826,23.885a8.368,8.368,0,0,1-5.255,6.234l-0.312-.044a5.393,5.393,0,0,0-.535-3.785,3.031,3.031,0,0,0-2.607-1.534A3.909,3.909,0,0,0,84,25.444c-2,1.291-3.073,4.631-3.34,6.1,0,0.015-.005.033-0.008,0.049a1.924,1.924,0,0,1,.859,1.158,1.526,1.526,0,0,1,1.224,1.494v0.433a1.526,1.526,0,0,1-1.227,1.494,1.92,1.92,0,0,1-1.246,1.334,2.875,2.875,0,0,0,.131.852,1.214,1.214,0,0,0,.535.8,1.4,1.4,0,0,1,.757-1.291,2.038,2.038,0,0,1,.819-0.168,2.011,2.011,0,0,1,1.9,1.326c0.5,1.183-.721,3.555-2.947,3.555a3.608,3.608,0,0,1-1.195-.214c-1.627-.569-2.619-2.147-2.847-4.757H76.979a13.681,13.681,0,0,0,.991,4.067,4.121,4.121,0,0,1-.534,4.876A31.52,31.52,0,0,0,75.1,49.29H74.891a31.52,31.52,0,0,0-2.338-2.739,4.121,4.121,0,0,1-.534-4.876,13.683,13.683,0,0,0,.992-4.067H72.584c-0.228,2.611-1.221,4.188-2.848,4.757a3.608,3.608,0,0,1-1.194.214c-2.226,0-3.443-2.371-2.947-3.555a2.011,2.011,0,0,1,1.9-1.326,2.039,2.039,0,0,1,.819.168,1.4,1.4,0,0,1,.757,1.291,1.214,1.214,0,0,0,.535-0.8,3.1,3.1,0,0,0,.137-0.94,1.92,1.92,0,0,1-1.034-1.246,1.526,1.526,0,0,1-1.226-1.494V34.245A1.526,1.526,0,0,1,68.7,32.752a1.917,1.917,0,0,1,.665-1.016c-0.011-.068-0.022-0.133-0.032-0.191C69.068,30.075,68,26.735,66,25.444a3.909,3.909,0,0,0-2.113-.687,3.031,3.031,0,0,0-2.607,1.534,5.393,5.393,0,0,0-.534,3.785l-0.312.044a8.367,8.367,0,0,1-5.255-6.234,5.965,5.965,0,0,1,5.611-6.991H60.9c3.639,0,6.254,2.2,8.217,5.255a24.233,24.233,0,0,1,3.223,9.166h0.544c-0.394-3.151-1.171-4.915-2.263-8.409-1.336-4.275-.868-6.546-0.267-8.082s4.542-7.682,4.542-7.682H75.1s3.941,6.145,4.542,7.682,1.069,3.808-.267,8.082C78.281,26.4,77.5,28.164,77.11,31.315h0.554a24.235,24.235,0,0,1,3.223-9.166c1.963-3.058,4.579-5.255,8.217-5.255h0v0.683c-3.008,0-5.508,1.616-7.643,4.941a23.577,23.577,0,0,0-3.108,8.8h0.491A16.076,16.076,0,0,1,80.4,26.232c1.955-4.092,4.883-5.587,6.972-5.622a3.892,3.892,0,0,1,3.659,2.138,6.248,6.248,0,0,1-.373,6.089,7.692,7.692,0,0,0,3.491-5.047,5.758,5.758,0,0,0-1.287-4.5,4.834,4.834,0,0,0-3.656-1.713h-0.1V16.893h0.109A5.965,5.965,0,0,1,94.826,23.885ZM80.489,41.721a2.945,2.945,0,0,0,.969.176,2.387,2.387,0,0,0,1.975-1.1,1.822,1.822,0,0,0,.343-1.507,1.332,1.332,0,0,0-1.268-.907,1.361,1.361,0,0,0-.541.109,0.7,0.7,0,0,0-.352.644l0.034,0.715-0.716-.009a1.586,1.586,0,0,1-1.158-1.207,3.365,3.365,0,0,1-.18-1.027H78.1C78.305,39.853,79.106,41.237,80.489,41.721Zm-5.161,6.186,0.3-.335c0.291-.328.7-0.786,1.3-1.47a3.355,3.355,0,0,0,.484-4.008c-0.024-.056-0.046-0.108-0.066-0.156a14.439,14.439,0,0,1-1.046-4.33H75.328v10.3Zm-2.679-5.97-0.066.156a3.355,3.355,0,0,0,.484,4.008c0.6,0.684,1.005,1.142,1.3,1.47l0.281,0.318V37.609H73.7A14.434,14.434,0,0,1,72.649,41.938Zm-3.581-2.1H68.352l0.034-.715a0.7,0.7,0,0,0-.352-0.635,1.361,1.361,0,0,0-.541-0.109,1.332,1.332,0,0,0-1.268.907,1.822,1.822,0,0,0,.343,1.507,2.387,2.387,0,0,0,1.975,1.1,2.944,2.944,0,0,0,.969-0.176c1.383-.484,2.183-1.869,2.388-4.113H70.556c-0.051,0-.1-0.01-0.15-0.014a3.425,3.425,0,0,1-.179,1.04A1.586,1.586,0,0,1,69.068,39.842Zm1.487-2.917h9.107a1.234,1.234,0,0,0,1.121-.724H69.435A1.234,1.234,0,0,0,70.556,36.926ZM69,33.263a0.983,0.983,0,0,0-.982.983v0.433A0.983,0.983,0,0,0,69,35.66H81.215a0.984,0.984,0,0,0,.983-0.983V34.245a0.984,0.984,0,0,0-.983-0.983H69Zm-8.312-7.327a3.691,3.691,0,0,1,3.191-1.863,4.569,4.569,0,0,1,2.483.8C68.553,26.28,69.7,29.749,70,31.4a1.9,1.9,0,0,1,.464-0.081,15.467,15.467,0,0,0-1.484-4.8c-1.82-3.81-4.483-5.2-6.367-5.233a3.243,3.243,0,0,0-3.042,1.77,5.517,5.517,0,0,0,.361,5.455A5.486,5.486,0,0,1,60.691,25.936Zm7.847-3.419C66.4,19.193,63.9,17.576,60.9,17.576h-0.1a4.835,4.835,0,0,0-3.656,1.713,5.759,5.759,0,0,0-1.288,4.5,7.692,7.692,0,0,0,3.492,5.047,6.247,6.247,0,0,1-.374-6.089,3.887,3.887,0,0,1,3.659-2.138c2.089,0.035,5.017,1.531,6.972,5.622a16.071,16.071,0,0,1,1.554,5.083h0.492A23.647,23.647,0,0,0,68.538,22.518ZM74.645,8.8a70.728,70.728,0,0,0-3.66,6.268c-0.544,1.39-1,3.513.283,7.63,0.257,0.822.492,1.532,0.718,2.22a29.738,29.738,0,0,1,1.584,6.393h1.075V8.8ZM78,24.921c0.227-.687.462-1.4,0.719-2.219,1.286-4.117.827-6.24,0.283-7.63a71.051,71.051,0,0,0-3.676-6.293V31.315h1.091A29.774,29.774,0,0,1,78,24.921ZM70.556,32a1.233,1.233,0,0,0-1.119.724H80.782A1.234,1.234,0,0,0,79.662,32H70.556Zm19.87-8.934a3.254,3.254,0,0,0-3.042-1.77c-1.884.032-4.546,1.423-6.367,5.233a15.5,15.5,0,0,0-1.485,4.788h0.13a1.918,1.918,0,0,1,.345.033c0.319-1.675,1.463-5.083,3.627-6.477a4.569,4.569,0,0,1,2.483-.8,3.692,3.692,0,0,1,3.191,1.863,5.484,5.484,0,0,1,.756,2.582A5.518,5.518,0,0,0,90.426,23.063ZM56.393,114.237L74.01,119.9l-3.73-5.134a0.342,0.342,0,0,1,.552-0.4l3.758,5.173V100.991a0.341,0.341,0,0,1,.683,0v18.635l3.825-5.265a0.341,0.341,0,0,1,.552.4l-3.673,5.055,17.561-5.582a0.342,0.342,0,1,1,.207.651l-17.775,5.65,6.35,2.107a0.341,0.341,0,1,1-.216.648L75.8,121.2l10.982,15.116a0.342,0.342,0,1,1-.552.4L75.273,121.635v6.61a0.341,0.341,0,0,1-.683,0v-6.518L63.7,136.718a0.341,0.341,0,0,1-.552-0.4l11.037-15.191-6.241,2.146a0.342,0.342,0,0,1-.222-0.646l6.062-2.084-17.6-5.654A0.341,0.341,0,0,1,56.393,114.237Z"/>
</svg>
