<svg id="_4_infantry_division_ref" data-name="4_infantry_division_ref" xmlns="http://www.w3.org/2000/svg" width="150" height="150" viewBox="0 0 150 150">
  <defs>
    <style>
      .cls-1 {
        fill: #f2e9d3;
      }

      .cls-1, .cls-2, .cls-3 {
        fill-rule: evenodd;
      }

      .cls-2 {
        fill: #5e9841;
      }

      .cls-3 {
        fill: #edb838;
      }
    </style>
  </defs>
  <path id="Shape_2_copy_2" data-name="Shape 2 copy 2" class="cls-1" d="M75,145.142L4.858,75,75,4.858,145.142,75,75,145.142"/>
  <path id="Shape_3_copy_2" data-name="Shape 3 copy 2" class="cls-2" d="M74.309,134.038s-0.384-.271-0.449-0.321c-6.324-4.941-7.887-12.858-8.254-15.7a18.094,18.094,0,0,1-12.942-7.509l-0.419-.658,0.433-.649a18.208,18.208,0,0,1,8.676-6.814,23.81,23.81,0,0,1-.791-4.507l-0.17-2.193,1.934,1.048a25.374,25.374,0,0,0,9.725,2.691V84.712a10.091,10.091,0,0,1-6.759-6.759H50.582a25.363,25.363,0,0,0,2.692,9.725l1.047,1.935-2.193-.171a23.706,23.706,0,0,1-4.508-.791,18.208,18.208,0,0,1-6.814,8.677l-0.649.433L39.5,97.341A18.092,18.092,0,0,1,31.991,84.4c-2.846-.367-10.763-1.932-15.705-8.258-0.046-.059-0.32-0.447-0.32-0.447l-0.477-.677,0.465-.678s0.278-.409.331-0.477c4.942-6.327,12.86-7.892,15.706-8.258A18.092,18.092,0,0,1,39.5,52.663l0.658-.419,0.649,0.433a18.209,18.209,0,0,1,6.814,8.677,23.717,23.717,0,0,1,4.508-.791l2.111-.164-0.947,1.893a27.835,27.835,0,0,0-2.7,9.76h14.7a10.094,10.094,0,0,1,6.759-6.759V50.581a25.355,25.355,0,0,0-9.724,2.692l-1.935,1.048,0.17-2.193a23.8,23.8,0,0,1,.791-4.508,18.206,18.206,0,0,1-8.676-6.814l-0.433-.648,0.419-.658A18.092,18.092,0,0,1,65.606,31.99c0.367-2.846,1.931-10.764,8.257-15.705,0.063-.049.448-0.32,0.448-0.32l0.676-.475,0.676,0.463s0.414,0.281.482,0.334c6.323,4.941,7.887,12.858,8.254,15.7A18.093,18.093,0,0,1,97.342,39.5l0.419,0.658-0.433.648a18.206,18.206,0,0,1-8.677,6.814,23.778,23.778,0,0,1,.791,4.508l0.164,2.11-1.894-.946a27.821,27.821,0,0,0-9.759-2.7v14.7a10.094,10.094,0,0,1,6.759,6.759h14.7a27.836,27.836,0,0,0-2.7-9.76L95.767,60.4l2.11,0.164a23.721,23.721,0,0,1,4.508.791,18.209,18.209,0,0,1,6.814-8.677l0.649-.433,0.658,0.419a18.092,18.092,0,0,1,7.508,12.942c2.846,0.366,10.763,1.931,15.7,8.257,0.053,0.068.332,0.478,0.332,0.478l0.465,0.685-0.477.67s-0.273.389-.325,0.454c-4.938,6.32-12.854,7.884-15.7,8.251a18.092,18.092,0,0,1-7.508,12.941l-0.658.419-0.649-.433a18.209,18.209,0,0,1-6.814-8.677,23.709,23.709,0,0,1-4.508.791l-2.193.171,1.047-1.934a25.353,25.353,0,0,0,2.692-9.725H84.713a10.091,10.091,0,0,1-6.759,6.759v14.7a27.816,27.816,0,0,0,9.759-2.7l1.894-.946-0.164,2.11a23.785,23.785,0,0,1-.791,4.507,18.221,18.221,0,0,1,8.677,6.814l0.433,0.649-0.419.658A18.1,18.1,0,0,1,84.4,118.014c-0.367,2.845-1.931,10.763-8.257,15.7-0.064.05-.477,0.332-0.477,0.332l-0.686.466ZM75,71.633A3.369,3.369,0,1,0,78.372,75,3.373,3.373,0,0,0,75,71.633Z"/>
  <path id="Shape_3_copy" data-name="Shape 3 copy" class="cls-3" d="M75,16.947s0.352,0.237.409,0.282c7.315,5.715,7.9,15.878,7.9,15.878a17.039,17.039,0,0,1,13.022,7.035,16.977,16.977,0,0,1-9.28,6.736c0.9,1.5,1.2,5.343,1.2,5.343a29.177,29.177,0,0,0-11.492-2.906V66.225a8.958,8.958,0,0,1,7.022,7.022H100.69a29.188,29.188,0,0,0-2.906-11.492s3.847,0.3,5.344,1.2a16.97,16.97,0,0,1,6.735-9.28A17.039,17.039,0,0,1,116.9,66.695s10.163,0.589,15.878,7.9c0.044,0.057.282,0.409,0.282,0.409s-0.237.339-.282,0.4c-5.715,7.315-15.878,7.9-15.878,7.9a17.039,17.039,0,0,1-7.035,13.022,16.97,16.97,0,0,1-6.735-9.28c-1.5.9-5.344,1.2-5.344,1.2a27.358,27.358,0,0,0,2.908-11.492H83.779a8.958,8.958,0,0,1-7.022,7.022v16.911a29.174,29.174,0,0,0,11.492-2.905s-0.3,3.846-1.2,5.343a16.976,16.976,0,0,1,9.28,6.735A17.039,17.039,0,0,1,83.31,116.9s-0.59,10.163-7.9,15.878c-0.057.045-.409,0.282-0.409,0.282s-0.339-.237-0.4-0.282c-7.315-5.715-7.9-15.878-7.9-15.878a17.039,17.039,0,0,1-13.022-7.035,16.976,16.976,0,0,1,9.28-6.735c-0.9-1.5-1.2-5.343-1.2-5.343a27.347,27.347,0,0,0,11.492,2.907V83.778a8.957,8.957,0,0,1-7.022-7.022H49.313a27.357,27.357,0,0,0,2.907,11.492s-3.846-.3-5.343-1.2a16.977,16.977,0,0,1-6.735,9.28,17.039,17.039,0,0,1-7.035-13.022s-10.163-.589-15.878-7.9c-0.045-.057-0.282-0.4-0.282-0.4s0.237-.352.282-0.409c5.715-7.315,15.878-7.9,15.878-7.9a17.039,17.039,0,0,1,7.035-13.022,16.977,16.977,0,0,1,6.735,9.28c1.5-.9,5.343-1.2,5.343-1.2a29.18,29.18,0,0,0-2.905,11.492H66.226a8.957,8.957,0,0,1,7.022-7.022V49.313A27.355,27.355,0,0,0,61.756,52.22s0.3-3.847,1.2-5.343a16.976,16.976,0,0,1-9.28-6.736A17.039,17.039,0,0,1,66.7,33.107s0.589-10.163,7.9-15.878c0.058-.045.4-0.282,0.4-0.282M75,79.568A4.566,4.566,0,1,0,70.436,75,4.567,4.567,0,0,0,75,79.568M74.96,14.02l-1.338.965s-0.425.3-.5,0.357c-6.063,4.736-7.979,12.036-8.569,15.576a19.359,19.359,0,0,0-12.9,7.939l-0.837,1.316,0.865,1.3a19.337,19.337,0,0,0,8.242,6.852,26.423,26.423,0,0,0-.555,3.712l-0.342,4.387,3.87-2.1a23.2,23.2,0,0,1,7.957-2.417v12.53a11.28,11.28,0,0,0-6.413,6.414H51.932a26.181,26.181,0,0,1,2.43-8.026l1.894-3.787-4.222.329a26.4,26.4,0,0,0-3.712.555A19.342,19.342,0,0,0,41.47,51.68l-1.3-.865-1.316.837a19.357,19.357,0,0,0-7.939,12.9c-3.54.59-10.839,2.506-15.576,8.569-0.058.074-.381,0.545-0.381,0.545L14.02,75.044l0.965,1.336s0.3,0.429.36,0.5c4.735,6.06,12.034,7.976,15.573,8.566a19.356,19.356,0,0,0,7.939,12.9l1.316,0.837,1.3-.865a19.343,19.343,0,0,0,6.852-8.243,26.428,26.428,0,0,0,3.712.555l4.387,0.341-2.095-3.869a23.194,23.194,0,0,1-2.417-7.957H64.44a11.28,11.28,0,0,0,6.413,6.414v12.53A23.193,23.193,0,0,1,62.9,95.678l-3.87-2.1,0.342,4.387a26.436,26.436,0,0,0,.555,3.713,19.334,19.334,0,0,0-8.242,6.852l-0.865,1.3,0.837,1.316a19.359,19.359,0,0,0,12.9,7.939c0.59,3.54,2.506,10.839,8.569,15.576,0.073,0.056.5,0.357,0.5,0.357l1.36,0.96,1.351-.937s0.466-.319.543-0.379c6.063-4.737,7.98-12.037,8.57-15.577a19.358,19.358,0,0,0,12.9-7.939l0.837-1.316-0.865-1.3a19.337,19.337,0,0,0-8.242-6.852,26.452,26.452,0,0,0,.555-3.713l0.328-4.222-3.787,1.894a26.168,26.168,0,0,1-8.026,2.43V85.565a11.281,11.281,0,0,0,6.414-6.414H98.1a23.18,23.18,0,0,1-2.417,7.957l-2.1,3.869,4.387-.341a26.416,26.416,0,0,0,3.712-.555,19.34,19.34,0,0,0,6.853,8.243l1.3,0.865,1.316-.838a19.358,19.358,0,0,0,7.938-12.9c3.54-.59,10.84-2.506,15.576-8.569,0.055-.07.358-0.5,0.358-0.5l0.96-1.36-0.938-1.35s-0.319-.467-0.379-0.543c-4.737-6.064-12.037-7.98-15.577-8.57a19.359,19.359,0,0,0-7.938-12.9l-1.316-.838-1.3.865a19.339,19.339,0,0,0-6.853,8.243,26.386,26.386,0,0,0-3.712-.555l-4.222-.329,1.894,3.787a26.172,26.172,0,0,1,2.43,8.026H85.565a11.281,11.281,0,0,0-6.414-6.414V51.932a26.168,26.168,0,0,1,8.026,2.43l3.787,1.894-0.328-4.222a26.44,26.44,0,0,0-.555-3.712,19.34,19.34,0,0,0,8.242-6.852l0.865-1.3-0.837-1.316a19.358,19.358,0,0,0-12.9-7.939c-0.59-3.54-2.507-10.84-8.569-15.576-0.077-.06-0.545-0.381-0.545-0.381L74.96,14.02h0ZM75,77.174A2.172,2.172,0,1,1,77.174,75,2.174,2.174,0,0,1,75,77.174h0Zm0,66.593L6.234,75,75,6.234,143.767,75,75,143.767M75,2L2,75l73,73,73-73L75,2"/>
</svg>
