<svg id="_69_tank_battalion" data-name="69_tank_battalion" xmlns="http://www.w3.org/2000/svg" width="150" height="150" viewBox="0 0 150 150">
  <defs>
    <style>
      .cls-1 {
        fill: #eee;
      }

      .cls-1, .cls-2, .cls-3 {
        fill-rule: evenodd;
      }

      .cls-2 {
        fill: #358043;
      }

      .cls-3 {
        fill: #151515;
      }
    </style>
  </defs>
  <path id="Shape_3_copy_11" data-name="Shape 3 copy 11" class="cls-1" d="M132.682,6.93V119.214c0,0.053,0,.1,0,0.151-0.089,1.242-1.489,17.435-14.42,19.8a2.5,2.5,0,0,1-.44.038H86.609s-7.548,0-11.221,5.871a0.453,0.453,0,0,1-.775,0C70.94,139.2,63.392,139.2,63.392,139.2H32.183a2.5,2.5,0,0,1-.441-0.038c-12.93-2.361-14.331-18.554-14.42-19.8,0-.053,0-0.1,0-0.151V6.93a2.218,2.218,0,0,1,2.218-2.218H130.464A2.218,2.218,0,0,1,132.682,6.93Z"/>
  <path id="Shape_3_copy_12" data-name="Shape 3 copy 12" class="cls-2" d="M18.376,20.054v98.472S17.657,136.4,32.6,138.634H63.635s7.453-.475,11.08,5.306a0.448,0.448,0,0,0,.765,0c3.627-5.781,11.08-5.306,11.08-5.306H117.6c3.928-.2,6.134-1.389,7.855-3.931L18.341,9.994Z"/>
  <path id="Shape_3_copy_10" data-name="Shape 3 copy 10" class="cls-3" d="M122.644,91.206c-0.548-.987-1.645-0.878-1.864-0.11s1.316,3.62-1.536,3.4c-2.361-.182-4.5-3.73-6.911-11.738s-3.511-13.274-8.228-19.526a13.417,13.417,0,0,0-.658-2.3c-0.329-.658-15.8-15.358-17.552-17.332s-3.291-3.51-4.169-6.033-2.743-6.582-3.84-7.569-4.827-1.975-4.827-1.975A14.592,14.592,0,0,0,70.1,25.168c-1.316-.768-7.569-3.181-7.569-3.181l0.878-.768s-2.742-.439-3.291-0.549-2.742-.658-2.742-0.658S53.534,18.257,52,18.586a9.843,9.843,0,0,0-3.4,1.974s-2.194.22-2.742,0.329a0.764,0.764,0,0,0-.768.878c0.11,0.439,1.207,2.413.878,2.633s-3.291-.219-4.059,1.207c0,0,3.4-.219,3.949.439S47.5,28.129,47.5,28.129a2.23,2.23,0,0,0,1.316-.22,2.522,2.522,0,0,1,1.536-.219,4.252,4.252,0,0,1,1.865,1.426c0.439,0.549,2.742.329,3.291,0.329s1.1,0.878,1.536,1.536,1.207,2.413.768,2.523S49.8,34.6,45.526,32.079c0,0-1.317-1.316-2.413-2.3s-3.4-.439-4.059.22a8.441,8.441,0,0,1,3.072,3.181,7.772,7.772,0,0,0,2.084,2.742s4.059,0.987,4.937,1.865c0,0,.549.548,0.987,1.1,0,0,5.595.768,8.227,3.181,0,0,.987-1.207,1.975-0.658a3.743,3.743,0,0,1,1.207.878s2.852,6.472,7.35,8.008a0.774,0.774,0,0,1-.219.878,6.632,6.632,0,0,1-4.278,1.207,35.616,35.616,0,0,1-4.059-1.426s-1.316-.11-1.645.658l6.472,6.472s0.878-.219,1.865-0.549c0,0,3.949-1.755,7.35-.439s7.35,5.156,7.35,5.156a7.66,7.66,0,0,0-.987,3.291,38.555,38.555,0,0,1-6.8,0A8.218,8.218,0,0,0,67.9,62.465l7.021,8.118a11.347,11.347,0,0,1,4.827-.329,34.142,34.142,0,0,1,5.595,1.755l0.768-.329s0.549-3.62,2.413-3.4,3.181,0.987,3.291,6.582,0.219,9.215.658,10.092,1.536,1.426,3.839,1.975a2.546,2.546,0,0,1,2.084,3.4,2.608,2.608,0,0,1-1.865,1.316c-0.878.219-2.194-.768-3.73,0l4.936,6.582,1.755-.658s4.278-2.852,5.046-5.924a8.649,8.649,0,0,1-2.523-7.13c0.549-4.388,3.072-10.2,2.413-15.138,0,0,3.62,8.447,6.692,17.771s7.789,10.092,10.092,9.544S123.193,92.194,122.644,91.206ZM51.121,22.644a4.741,4.741,0,0,1-1.1-1.1,2.256,2.256,0,0,1,1.755-.439,10.108,10.108,0,0,1,1.755,1.426S51.669,22.974,51.121,22.644Z"/>
  <path id="Shape_3_copy_9" data-name="Shape 3 copy 9" class="cls-3" d="M75,147.061a1.973,1.973,0,0,1-1.678-.931c-3.19-5.1-9.863-5.157-9.93-5.157H32.183a3.983,3.983,0,0,1-.715-0.063c-13.935-2.544-15.4-19.536-15.541-21.437-0.006-.1-0.009-0.171-0.009-0.26V6.68a3.745,3.745,0,0,1,3.742-3.741H130.339a3.746,3.746,0,0,1,3.742,3.741V119.213c0,0.089,0,.163-0.008.25-0.137,1.911-1.607,18.9-15.542,21.447a3.974,3.974,0,0,1-.714.063H86.609c-0.064,0-6.763.095-9.93,5.155A1.97,1.97,0,0,1,75,147.061ZM19.661,5.986a0.7,0.7,0,0,0-.694.694V119.213c0.048,0.705,1.172,16.531,13.049,18.7a1.046,1.046,0,0,0,.167.014H63.392c0.319,0,7.35.065,11.608,5.319,4.259-5.254,11.29-5.319,11.608-5.319h31.208a1.033,1.033,0,0,0,.166-0.014c11.878-2.168,13-17.994,13.049-18.656V6.68a0.7,0.7,0,0,0-.694-0.694H19.661Z"/>
</svg>
