<svg id="_82_airborne_division" data-name="82_airborne_division" xmlns="http://www.w3.org/2000/svg" width="150" height="150" viewBox="0 0 150 150">
  <defs>
    <style>
      .cls-1 {
        fill: #ce3838;
      }

      .cls-1, .cls-2, .cls-3, .cls-4 {
        fill-rule: evenodd;
      }

      .cls-2 {
        fill: #303285;
      }

      .cls-3 {
        fill: #424ebd;
      }

      .cls-4 {
        fill: #eee;
      }
    </style>
  </defs>
  <path id="Shape_6_copy_3" data-name="Shape 6 copy 3" class="cls-1" d="M126,148H23V45.067H126V148"/>
  <path id="Shape_6_copy_4" data-name="Shape 6 copy 4" class="cls-2" d="M74.341,1A128.887,128.887,0,0,0,23.029,11.653V44.018A128.885,128.885,0,0,1,74.341,33.365a130.667,130.667,0,0,1,51.686,10.653V11.653A130.668,130.668,0,0,0,74.341,1Z"/>
  <path id="Shape_6_copy_5" data-name="Shape 6 copy 5" class="cls-3" d="M26.572,14.009V38.726a132.457,132.457,0,0,1,95.537,0V14.009A125.371,125.371,0,0,0,26.572,14.009Zm94.356,23a133.65,133.65,0,0,0-93.175,0V14.8a124.2,124.2,0,0,1,93.175,0V37.011Z"/>
  <path id="Shape_6_copy" data-name="Shape 6 copy" class="cls-2" d="M74.5,56.329a40.038,40.038,0,1,0,39.937,40.037A39.987,39.987,0,0,0,74.5,56.329"/>
  <path id="Shape_6_copy_2" data-name="Shape 6 copy 2" class="cls-4" d="M105.828,114h-5.782A30.871,30.871,0,0,0,105.4,99.016H82.016v32.607a41.07,41.07,0,0,1-5.016.649V60.577A35.936,35.936,0,0,1,105.828,114Zm-8.7-38.8a30.492,30.492,0,0,0-15.113-8.91V93.97h23.407A30.576,30.576,0,0,0,97.13,75.2ZM67,99.016H43.761A30.871,30.871,0,0,0,49.117,114H43.335A35.948,35.948,0,0,1,71.977,60.577v71.695a36.633,36.633,0,0,1-4.985-.674Zm0-32.724A30.064,30.064,0,0,0,52.033,75.2,30.571,30.571,0,0,0,43.74,93.97H67Z"/>
  <path id="Shape_6_copy_6" data-name="Shape 6 copy 6" class="cls-4" d="M114.04,18.341q-2.021-.651-4.056-1.236v3.1q1.778,0.511,3.543,1.073,0,1.329,0,2.657-1.766-.562-3.543-1.072v3.306q2.172,0.624,4.328,1.325v2.741q-3.73-1.213-7.513-2.2V13.492q3.807,0.989,7.564,2.213Q114.2,17.022,114.04,18.341ZM97.818,15.094c0.018,0.149.036,0.3,0.052,0.449q0.174,1.476.271,2.761t0.1,2.894v4.917q-1.432-.271-2.868-0.508V11.064q2,0.331,3.984.725,1.588,5.807,3.167,11.655-0.209-1.616-.321-2.9t-0.113-2.912V12.36q1.425,0.313,2.844.661V27.564q-2.016-.492-4.044-0.919Q99.355,20.85,97.818,15.094Zm-6.8,9.866q-1.2-2.834-2.393-5.647c-0.3-.034-0.6-0.066-0.9-0.1V24.57q-1.629-.171-3.262-0.3V9.725q2.127,0.171,4.248.411a6.235,6.235,0,0,1,3.86,1.6,4.918,4.918,0,0,1,1.272,3.6,4.084,4.084,0,0,1-.535,2.221A4.08,4.08,0,0,1,91.6,18.97q1.52,3.241,3.036,6.517Q92.828,25.2,91.018,24.96ZM90.042,13.432a2.184,2.184,0,0,0-1.4-.6q-0.457-.053-0.916-0.1v3.85c0.364,0.039.728,0.078,1.092,0.12,1.128,0.13,1.69-.471,1.689-1.826A2.028,2.028,0,0,0,90.042,13.432ZM80.454,23.465a5.063,5.063,0,0,1-3.042.808,5.006,5.006,0,0,1-4.148-2.048,9.3,9.3,0,0,1-1.478-5.632,11.338,11.338,0,0,1,.664-4.09,5.691,5.691,0,0,1,1.928-2.647,4.819,4.819,0,0,1,3.034-.878,4.99,4.99,0,0,1,4.155,2.181,9.742,9.742,0,0,1,1.484,5.722,11.1,11.1,0,0,1-.662,4.047A5.275,5.275,0,0,1,80.454,23.465ZM79.11,12.944a1.827,1.827,0,0,0-1.7-1.185,1.725,1.725,0,0,0-1.689,1.1,9.234,9.234,0,0,0-.54,3.72,9.3,9.3,0,0,0,.549,3.741,1.83,1.83,0,0,0,1.68,1.171,1.71,1.71,0,0,0,1.7-1.075,9.329,9.329,0,0,0,.53-3.724A9.579,9.579,0,0,0,79.11,12.944ZM70.195,17.28a3.177,3.177,0,0,1,.761,2.344,3.782,3.782,0,0,1-1.45,3.359,8,8,0,0,1-4.048,1.158q-2.067.138-4.129,0.342V9.939q1.825-.18,3.653-0.308a7.17,7.17,0,0,1,4.055.647,3,3,0,0,1,1.406,2.831,3.137,3.137,0,0,1-.645,2.059,3.558,3.558,0,0,1-1.6,1.119A3.782,3.782,0,0,1,70.195,17.28Zm-3.509-4.722a2.191,2.191,0,0,0-1.4-.247c-0.229.015-.459,0.031-0.689,0.048v3.034q0.423-.031.848-0.059a1.955,1.955,0,0,0,1.272-.456,1.673,1.673,0,0,0,.407-1.236A1.24,1.24,0,0,0,66.686,12.558Zm0.4,5.6a2.008,2.008,0,0,0-1.431-.344q-0.53.035-1.059,0.073V21.44c0.294-.022.589-0.042,0.883-0.061a2.952,2.952,0,0,0,1.573-.462,1.64,1.64,0,0,0,.531-1.4A1.668,1.668,0,0,0,67.084,18.153ZM56.963,24.988q-1.2-2.519-2.387-5.017c-0.3.046-.6,0.092-0.894,0.14v5.356q-1.622.258-3.237,0.556,0-7.271,0-14.542,2.1-.391,4.219-0.709a5.094,5.094,0,0,1,3.857.585A3.821,3.821,0,0,1,59.8,14.62a4.84,4.84,0,0,1-.537,2.362,6.01,6.01,0,0,1-1.716,1.862q1.521,2.84,3.046,5.714Q58.774,24.747,56.963,24.988Zm-0.974-11.27a1.758,1.758,0,0,0-1.4-.235q-0.456.069-.912,0.142v3.85q0.543-.086,1.087-0.169c1.122-.168,1.686-0.917,1.685-2.272A1.6,1.6,0,0,0,55.988,13.718ZM45.341,12.531q1.606-.364,3.219-0.687V26.387q-1.613.322-3.219,0.687V12.531ZM40.807,25.217q-1.586.42-3.166,0.881L37.11,29.227q-1.645.487-3.281,1.021Q35.584,22.4,37.35,14.613q1.9-.561,3.819-1.063,1.778,6.807,3.565,13.664-1.7.394-3.392,0.834Zm-1.585-8.379q-0.542,3.175-1.083,6.354,1.083-.31,2.167-0.6Q39.764,19.712,39.222,16.839Z"/>
</svg>
