<svg id="usa_normandy_tank_3_icon" xmlns="http://www.w3.org/2000/svg" width="150" height="150" viewBox="0 0 150 150">
  <defs>
    <style>
      .cls-1 {
        fill: #d93232;
      }

      .cls-1, .cls-2, .cls-3, .cls-4 {
        fill-rule: evenodd;
      }

      .cls-2 {
        fill: #343e88;
      }

      .cls-3 {
        fill: #ffc334;
      }

      .cls-4 {
        fill: #ededed;
      }
    </style>
  </defs>
  <path id="Shape_241_copy" data-name="Shape 241 copy" class="cls-1" d="M137,2H13V116.746a22.569,22.569,0,0,0,22.537,22.6H52.246s0.693-.055,1.846-0.055c4.422,0,15.623.815,20.583,8.707h0.648c4.96-7.891,16.16-8.707,20.583-8.707,1.154,0,1.846.055,1.846,0.055h16.715A22.569,22.569,0,0,0,137,116.746V2"/>
  <path id="Shape_241_copy_2" data-name="Shape 241 copy 2" class="cls-2" d="M136.939,118.36c0.038-.534.064-1.071,0.064-1.614V2H74.925V69.476Z"/>
  <path id="Shape_241_copy_3" data-name="Shape 241 copy 3" class="cls-3" d="M97.751,139.349h16.714a22.566,22.566,0,0,0,22.517-21.776L74.948,67.753,13,117.1a22.565,22.565,0,0,0,22.529,22.248H52.246s16.175-1.3,22.429,8.652h0.647C81.577,138.051,97.751,139.349,97.751,139.349Z"/>
  <path id="Shape_243_copy" data-name="Shape 243 copy" class="cls-2" d="M64.476,23.539H21.511v38.3A6.835,6.835,0,0,0,28.3,68.713H39.027s3,0.507,3.717,2.75h0.5c0.715-2.244,3.718-2.75,3.718-2.75H57.684a6.835,6.835,0,0,0,6.792-6.878v-38.3"/>
  <path id="Shape_243_copy_2" data-name="Shape 243 copy 2" class="cls-4" d="M57.684,69.247H47.01c-0.329.066-2.7,0.6-3.265,2.38a0.527,0.527,0,0,1-.5.37h-0.5a0.528,0.528,0,0,1-.5-0.37c-0.569-1.786-2.932-2.314-3.264-2.38H28.3a7.374,7.374,0,0,1-7.318-7.412v-38.3A0.531,0.531,0,0,1,21.511,23H64.476a0.531,0.531,0,0,1,.527.534v38.3A7.374,7.374,0,0,1,57.684,69.247ZM28.3,68.18H39.026l0.087,0.007c0.124,0.021,2.811.5,3.881,2.515,1.07-2.018,3.757-2.495,3.881-2.515l0.087-.007H57.684a6.159,6.159,0,0,0,2.916-.734L42.994,49.615,25.387,67.446A6.16,6.16,0,0,0,28.3,68.18ZM22.039,35.1a1.324,1.324,0,0,1,.435-0.135,1.549,1.549,0,0,1,.948.141,6.054,6.054,0,0,1,.851-3.226H24.5a6.052,6.052,0,0,1,.852,3.226,1.547,1.547,0,0,1,.947-0.141c1.36,0.19,1.154,1.946,1.154,1.946a3.562,3.562,0,0,0-1.855-.38c-0.193.093-.4,0.2-0.576,0.3a5.931,5.931,0,0,1-.523,1.081H24.273a5.9,5.9,0,0,1-.522-1.082c-0.179-.095-0.383-0.2-0.576-0.295a1.883,1.883,0,0,0-1.136.109V54a1.329,1.329,0,0,1,.435-0.136,1.548,1.548,0,0,1,.948.141,6.053,6.053,0,0,1,.851-3.225H24.5A6.051,6.051,0,0,1,25.349,54a1.546,1.546,0,0,1,.947-0.141c1.36,0.19,1.154,1.947,1.154,1.947a3.562,3.562,0,0,0-1.855-.38c-0.193.092-.4,0.2-0.576,0.3A5.945,5.945,0,0,1,24.5,56.8H24.273a5.941,5.941,0,0,1-.522-1.082c-0.179-.1-0.383-0.2-0.576-0.3a1.883,1.883,0,0,0-1.136.109v6.3a6.417,6.417,0,0,0,.152,1.373L39.3,45.878,22.039,28.395V35.1Zm32.034-11.03a5.6,5.6,0,0,1,.067.991,1.548,1.548,0,0,1,.947-0.141c1.36,0.19,1.154,1.947,1.154,1.947a3.563,3.563,0,0,0-1.855-.38c-0.193.092-.4,0.2-0.576,0.3a5.941,5.941,0,0,1-.523,1.082H53.064a5.938,5.938,0,0,1-.522-1.082c-0.179-.1-0.383-0.2-0.576-0.3a3.563,3.563,0,0,0-1.855.38s-0.206-1.757,1.154-1.947a1.55,1.55,0,0,1,.948.141,5.609,5.609,0,0,1,.067-0.991H25.151l17.843,18.07,17.843-18.07H54.073Zm9.876,31.35-0.018.006c-0.193.092-.4,0.2-0.576,0.3a5.938,5.938,0,0,1-.523,1.082H62.608a5.948,5.948,0,0,1-.522-1.082c-0.179-.1-0.383-0.2-0.576-0.3a3.563,3.563,0,0,0-1.855.38s-0.206-1.757,1.154-1.947a1.549,1.549,0,0,1,.948.141,6.053,6.053,0,0,1,.851-3.225h0.224A6.051,6.051,0,0,1,63.684,54a1.323,1.323,0,0,1,.265-0.1V36.527l-0.018.006c-0.193.093-.4,0.2-0.576,0.3a5.924,5.924,0,0,1-.523,1.081H62.608a5.91,5.91,0,0,1-.522-1.082c-0.179-.095-0.383-0.2-0.576-0.295a3.563,3.563,0,0,0-1.855.38s-0.206-1.756,1.154-1.946a1.55,1.55,0,0,1,.948.141,6.054,6.054,0,0,1,.851-3.226h0.224a6.052,6.052,0,0,1,.852,3.226,1.388,1.388,0,0,1,.265-0.1V28.395L46.684,45.878,63.8,63.208a6.379,6.379,0,0,0,.152-1.373V55.422Zm-9.4-9.224c-0.193.092-.4,0.2-0.576,0.3a5.934,5.934,0,0,1-.522,1.082H53.225a5.945,5.945,0,0,1-.523-1.082c-0.178-.1-0.383-0.2-0.576-0.3a3.562,3.562,0,0,0-1.855.38s-0.206-1.757,1.154-1.947a1.548,1.548,0,0,1,.947.141,6.055,6.055,0,0,1,.852-3.226h0.224a6.057,6.057,0,0,1,.851,3.226,1.55,1.55,0,0,1,.948-0.141c1.36,0.19,1.154,1.947,1.154,1.947A3.564,3.564,0,0,0,54.547,46.2Zm-12.139-9.8c-0.179-.1-0.383-0.2-0.576-0.3a3.563,3.563,0,0,0-1.855.38s-0.206-1.757,1.154-1.947a1.55,1.55,0,0,1,.948.141,6.053,6.053,0,0,1,.851-3.225h0.224a6.05,6.05,0,0,1,.852,3.225,1.548,1.548,0,0,1,.947-0.141c1.36,0.19,1.154,1.947,1.154,1.947a3.562,3.562,0,0,0-1.855-.38c-0.193.092-.4,0.2-0.576,0.3a5.941,5.941,0,0,1-.523,1.082H42.931A5.931,5.931,0,0,1,42.408,36.393Zm1.6,18.369a1.547,1.547,0,0,1,.947-0.141c1.36,0.19,1.154,1.947,1.154,1.947a3.562,3.562,0,0,0-1.855-.38c-0.193.092-.4,0.2-0.576,0.295a5.942,5.942,0,0,1-.523,1.082H42.931a5.932,5.932,0,0,1-.522-1.082c-0.179-.1-0.383-0.2-0.576-0.295a3.562,3.562,0,0,0-1.855.38s-0.206-1.757,1.154-1.947a1.549,1.549,0,0,1,.948.141,6.059,6.059,0,0,1,.851-3.226h0.224A6.056,6.056,0,0,1,44.007,54.763ZM34.87,65.69c-0.193.092-.4,0.2-0.576,0.3a5.941,5.941,0,0,1-.522,1.082H33.548a5.945,5.945,0,0,1-.523-1.082c-0.178-.1-0.383-0.2-0.576-0.3a3.561,3.561,0,0,0-1.855.38s-0.206-1.757,1.154-1.947a1.547,1.547,0,0,1,.947.141,6.05,6.05,0,0,1,.852-3.225h0.224a6.053,6.053,0,0,1,.851,3.225,1.548,1.548,0,0,1,.948-0.141c1.36,0.19,1.154,1.947,1.154,1.947A3.562,3.562,0,0,0,34.87,65.69Zm16.556-1.567a1.548,1.548,0,0,1,.947.141,6.05,6.05,0,0,1,.852-3.225h0.224a6.052,6.052,0,0,1,.851,3.225,1.549,1.549,0,0,1,.948-0.141c1.36,0.19,1.154,1.947,1.154,1.947a3.563,3.563,0,0,0-1.855-.38c-0.193.092-.4,0.2-0.576,0.3a5.934,5.934,0,0,1-.522,1.082H53.225a5.945,5.945,0,0,1-.523-1.082c-0.178-.1-0.383-0.2-0.576-0.3a3.561,3.561,0,0,0-1.855.38S50.066,64.313,51.426,64.123Z"/>
  <path class="cls-4" d="M134,9.994H16V16.05h13.9V47.006h6.3V16.05H71.947V47.006h6.1V16.05H114V47.006h6.1V16.05H134V9.994Z"/>
</svg>
