<svg xmlns="http://www.w3.org/2000/svg" width="30" height="30" viewBox="0 0 30 30">
  <defs>
    <style>
      .cls-1 {
        fill: #e9e8e7;
        fill-rule: evenodd;
      }
    </style>
  </defs>
  <path class="cls-1" d="M15.015,14.478l0.4-1.16L27.673,2.252,26.885,1.37l-0.567.512L25.8,1.3l-1.13,1.02L25.188,2.9,13.943,13.06l0,0,0,0-0.521-.087L6.563,19.156l0.4,0.42L6.2,20.888a1.231,1.231,0,0,1-.7.557l-1.075.338L1.175,25.739a0.82,0.82,0,0,0,.135,1.172l2.126,1.622a0.811,0.811,0,0,0,1.214-.274l3.721-7.186,0.519,0.55c0.7,0.128,1.466-1.057,1.466-1.057l1.562-2.082,0.159-1.057L15,14.462ZM13.265,10.5L4.813,2.9l0.52-.582L4.2,1.3l-0.52.582L3.115,1.37l-0.788.882L12.382,11.3ZM28.825,25.739l-3.253-3.956L24.5,21.445a1.23,1.23,0,0,1-.7-0.557l-0.762-1.312,0.4-.42L18.1,14.384,16.424,15.9l1.5,1.526,0.159,1.057,1.562,2.082s0.765,1.185,1.466,1.057l0.519-.55,3.722,7.186a0.811,0.811,0,0,0,1.214.274l2.126-1.622A0.82,0.82,0,0,0,28.825,25.739Z"/>
</svg>
