<svg xmlns="http://www.w3.org/2000/svg" width="30" height="30" viewBox="0 0 30 30">
  <defs>
    <style>
      .cls-1 {
        fill: #e9e8e7;
        fill-rule: evenodd;
      }
    </style>
  </defs>
  <path id="Ellipse_1_copy_7" data-name="Ellipse 1 copy 7" class="cls-1" d="M15,30A15,15,0,1,1,30,15,15,15,0,0,1,15,30ZM15,2.461A12.539,12.539,0,1,0,27.539,15,12.539,12.539,0,0,0,15,2.461Zm2.668,16.707-3.335-3.335a1.057,1.057,0,0,1-.28-0.574A0.969,0.969,0,0,1,14,15V6.913a1,1,0,0,1,2,0v7.52l3.2,3.2A1.085,1.085,0,0,1,17.668,19.168Z"/>
</svg>
