<svg xmlns="http://www.w3.org/2000/svg" xmlns:xlink="http://www.w3.org/1999/xlink" width="35.35" height="44.02" viewBox="0 0 35.35 44.02"><defs><style>.cls-1{fill:url(#linear-gradient);}.cls-2{opacity:0.3;}.cls-3{fill:url(#linear-gradient-2);}</style><linearGradient id="linear-gradient" x1="-269.97" y1="433.66" x2="-269.97" y2="434.62" gradientTransform="matrix(35.35, 0, 0, -44.02, 9561.04, 19135.76)" gradientUnits="userSpaceOnUse"><stop offset="0" stop-color="#5c1510"/><stop offset="1" stop-color="#ff460a"/></linearGradient><linearGradient id="linear-gradient-2" x1="-263.74" y1="429.24" x2="-263.74" y2="428.24" gradientTransform="matrix(20, 0, 0, -26.82, 5292.42, 11514.02)" gradientUnits="userSpaceOnUse"><stop offset="0" stop-color="#faee8f"/><stop offset="1" stop-color="#c16f1c"/></linearGradient></defs><g id="Layer_2" data-name="Layer 2"><g id="Layer_1-2" data-name="Layer 1"><path id="Path_302" data-name="Path 302" class="cls-1" d="M35.35,33.26,17.67,44,0,33.26V0H35.35Z"/><path class="cls-2" d="M12.52,32.71a4.85,4.85,0,0,1-4.85-4.82V19.71h-1v-5h2.5V12.15a8.27,8.27,0,0,1,8.24-8.26h.51a8.29,8.29,0,0,1,8.25,8.26v2.56h2.5v5h-1v8.18a4.87,4.87,0,0,1-4.85,4.82Zm8.65-18V12.15a3.28,3.28,0,0,0-3.25-3.26h-.5a3.27,3.27,0,0,0-3.25,3.26v2.56Z"/><path id="Path_303-2" data-name="Path 303-2" class="cls-3" d="M27.67,14.72h-2.5V11.15A7.27,7.27,0,0,0,17.92,3.9h-.5a7.26,7.26,0,0,0-7.25,7.25v3.57H7.67v3h1v9.17h0a3.85,3.85,0,0,0,3.87,3.83H22.79a3.86,3.86,0,0,0,3.88-3.83V17.72h1Zm-14.5-3.57A4.26,4.26,0,0,1,17.42,6.9h.5a4.27,4.27,0,0,1,4.25,4.25v3.57h-9Z"/><path id="Path_303-2-2" data-name="Path 303-2" class="cls-3" d="M27.67,14.72h-2.5V11.15A7.27,7.27,0,0,0,17.92,3.9h-.5a7.26,7.26,0,0,0-7.25,7.25v3.57H7.67v3h1v9.17h0a3.85,3.85,0,0,0,3.87,3.83H22.79a3.86,3.86,0,0,0,3.88-3.83V17.72h1Zm-14.5-3.57A4.26,4.26,0,0,1,17.42,6.9h.5a4.27,4.27,0,0,1,4.25,4.25v3.57h-9Z"/></g></g></svg>