<svg xmlns="http://www.w3.org/2000/svg" width="150" height="150" viewBox="0 0 150 150">
  <defs>
    <style>
      .cls-1 {
        fill: #bd1c25;
      }

      .cls-2 {
        fill: #878076;
      }

      .cls-3 {
        fill: #202c59;
      }

      .cls-4 {
        fill: #424535;
      }

      .cls-5 {
        fill: #dbd7c1;
      }

      .cls-6 {
        fill: #faecda;
      }
    </style>
  </defs>
  <g id="Layer_4" data-name="Layer 4">
    <g>
      <g>
        <circle class="cls-1" cx="75.4999" cy="80.73358" r="59.11935"/>
        <path class="cls-2" d="M75.5,23.99487A56.73871,56.73871,0,1,1,18.76129,80.73358,56.7386,56.7386,0,0,1,75.5,23.99487m0-4.76129a61.5,61.5,0,1,0,43.48707,18.01293A61.09707,61.09707,0,0,0,75.5,19.23358Z"/>
      </g>
      <g>
        <path class="cls-3" d="M40.69407,121.03369a58.28,58.28,0,0,0,21.43976,10.78788,52.7622,52.7622,0,0,0,14.1621,2.01351,44.10579,44.10579,0,0,0,34.49746-16.31172c6.17374-7.63229,9.09084-16.67033,7.61282-23.58714a9.23045,9.23045,0,0,0-.632-1.96837l-.0373-.07963-.02518-.08447a17.46294,17.46294,0,0,0-16.833-12.10684c-9.65016,0-17.50117,7.47574-17.50117,16.66451a16.59674,16.59674,0,0,0,8.76351,14.43615l1.52026.83637-1.32749,1.11728c-3.02405,2.54513-14.02765,10.84968-28.657,10.84968-9.51134,0-25.17549-2.79079-35.98362-18.95856q.6235,1.27227,1.36478,2.58794A48.87642,48.87642,0,0,0,40.69407,121.03369Z"/>
        <path class="cls-3" d="M127.45287,89.44752a58.28309,58.28309,0,0,0-2.01428-23.91611c-3.19347-11.19124-9.43889-20.31085-18.06088-26.3727A43.77834,43.77834,0,0,0,82.447,31.17693c-7.76345,0-14.58853,2.2582-18.7254,6.19572a9.24875,9.24875,0,0,0-1.34725,1.56791l-.04853.07362-.0587.06549a17.46321,17.46321,0,0,0-1.51881,20.67914,17.76413,17.76413,0,0,0,14.96011,8.56571,16.04581,16.04581,0,0,0,8.39571-2.36088,16.597,16.597,0,0,0,7.72354-15.01833l-.082-1.73318,1.64657.54751c3.75076,1.24708,16.58334,6.285,24.23209,18.75474,4.97315,8.10753,10.7844,22.91914,2.65392,40.58586q.75848-1.19671,1.49236-2.51665A48.8783,48.8783,0,0,0,127.45287,89.44752Z"/>
        <path class="cls-3" d="M75.35427,27.63211a48.8881,48.8881,0,0,0-17.62284,3.28075A58.39233,58.39233,0,0,0,37.912,44.01532,48.59244,48.59244,0,0,0,24.6,66.05547a44.09839,44.09839,0,0,0-.33952,21.59784c2.76637,11.719,10.15436,21.37757,18.38432,24.0339a9.23712,9.23712,0,0,0,2.02107.43494l.08767.00756.08553.02034a16.16637,16.16637,0,0,0,3.72732.434A18.01108,18.01108,0,0,0,65.67534,90.42337,16.056,16.056,0,0,0,50.03357,77.992a17.15583,17.15583,0,0,0-8.88586,2.51936l-1.48365.89972-.30533-1.708c-.69561-3.891-2.3974-17.5714,4.90592-30.24667,7.54714-13.09859,19.77584-20.71421,34.67464-21.69336C77.79275,27.67938,76.59593,27.63211,75.35427,27.63211Z"/>
      </g>
    </g>
  </g>
  <g id="Layer_2" data-name="Layer 2">
    <polygon class="cls-4" points="74.997 39.949 93.106 36.135 93.333 36.135 111.442 39.949 111.442 8.739 93.333 4.925 93.106 4.925 74.997 8.739 74.823 8.739 56.894 4.686 56.667 4.686 38.558 8.501 38.558 39.711 56.667 35.896 56.894 35.896 74.823 39.949 74.997 39.949"/>
    <g>
      <polygon class="cls-5" points="57.812 30.854 57.221 30.854 41.678 34.265 41.678 6.457 57.5 2.985 74.637 7.021 75.177 7.021 92.491 3.222 108.322 6.695 108.322 34.503 92.779 31.092 92.202 31.092 74.924 34.884 57.812 30.854"/>
      <path class="cls-4" d="M57.48718,4.68848,74.06787,8.593l.37573.08838h.9137l.35193-.07715L92.4906,4.92212,106.661,8.03125V32.43677l-13.34936-2.9292-.35193-.07715h-.93824l-.35192.07715L74.93628,33.1792l-16.5564-3.89868-.37573-.08838h-.96387l-.35193.07715L43.339,32.19824V7.793L57.48718,4.68848m.131-3.3833h-.21753L40.01575,5.11987v31.21l17.38488-3.81445h.21753l17.21143,4.053H74.997l17.38489-3.8147h.21753l17.38488,3.8147V5.35815L92.59937,1.5437h-.21753L74.997,5.35815h-.16736l-17.21143-4.053Z"/>
    </g>
    <g>
      <path class="cls-4" d="M62.63477,10.03125A4.82165,4.82165,0,0,1,67.63184,14.707v.56055a5.09169,5.09169,0,0,1-2.84668,4.334l-3.72754,1.97266a2.49975,2.49975,0,0,0-1.39942,2.21289v1.76953h7.97364v3.08789H55.627V23.26562c0-1.99707,1.1543-3.46679,3.08008-4.47265l4.084-2.13477a1.56886,1.56886,0,0,0,.87109-1.376v-.27442a1.53779,1.53779,0,0,0-1.583-1.53418H60.96777a12.76813,12.76813,0,0,0-4.126.5752L56.376,11.01562a10.52372,10.52372,0,0,1,4.50683-.98437Z"/>
      <path class="cls-4" d="M74.4707,13.26562l-.29492,3.47657h2.02637c2.82226,0,5.17676,2.07812,5.17676,4.54492v2.81152a4.86025,4.86025,0,0,1-4.99707,4.73731H74.46191a8.586,8.586,0,0,1-4.75976-1.28125l.54883-2.75391a8.7698,8.7698,0,0,0,4.24023.82422h1.15527a1.64085,1.64085,0,0,0,1.71778-1.66113V21.6582a1.6438,1.6438,0,0,0-1.667-1.62207H71.38281l-1.44531-1.2666.96-8.67773h9.63379v3.17382Z"/>
      <path class="cls-4" d="M89.41992,10.03125A4.82164,4.82164,0,0,1,94.417,14.707v.56055a5.09167,5.09167,0,0,1-2.84668,4.334l-3.72754,1.97266a2.49974,2.49974,0,0,0-1.39941,2.21289v1.76953H94.417v3.08789H82.41211V23.26562c0-1.99707,1.1543-3.46679,3.08008-4.47265l4.084-2.13477a1.56885,1.56885,0,0,0,.8711-1.376v-.27442a1.5378,1.5378,0,0,0-1.583-1.53418H87.75293a12.76823,12.76823,0,0,0-4.126.5752l-.46582-3.03321a10.5238,10.5238,0,0,1,4.50684-.98437Z"/>
    </g>
    <g>
      <path d="M112.753,128.91971l-.30529-1.37383-4.65578-6.18227a2.7543,2.7543,0,0,1,.53427-1.45016c.45794-.45794,9.99847-14.12,9.99847-14.12a3.201,3.201,0,0,0-.30529-3.96885c-1.75546-1.90811-5.26638-.07633-5.26638-.07633L97.6408,110.144,82.07066,92.43674,81.689,90.376,107.7156,51.37431s2.90032-4.27416,0-8.09037-7.09816-1.9081-8.92994-.99221-6.9455,5.419-6.9455,5.419L63.44755,72.59244l-6.4494-6.4494a2.42863,2.42863,0,0,0-3.43459,0l-4.15967,4.15967,62.66219,58.54068Z"/>
      <circle cx="98.25139" cy="51.52696" r="5.07312"/>
      <path d="M112.753,129.225l-1.52648.15265L104.251,124.9045a2.75428,2.75428,0,0,0-1.45016.53427c-.458.45794-14.12,9.99847-14.12,9.99847a3.20105,3.20105,0,0,1-3.96886-.3053c-1.90811-1.75545-.07633-5.26637-.07633-5.26637l8.39567-15.11219L75.32416,99.18324l-2.06076-.38162L34.26173,124.82817s-4.27416,2.90032-8.09037,0-1.9081-7.09815-.99221-8.92993,5.419-6.9455,5.419-6.9455L55.47986,80.56013l-6.44939-6.4494a2.42861,2.42861,0,0,1,0-3.43459l4.15967-4.15967,58.87594,61.71632Z"/>
      <circle cx="34.41438" cy="115.36397" r="5.07312"/>
      <path d="M47.26747,63.81581h2.21275A2.21274,2.21274,0,0,1,51.693,66.02856v0a2.21274,2.21274,0,0,1-2.21274,2.21274H47.26747a0,0,0,0,1,0,0V63.81581A0,0,0,0,1,47.26747,63.81581Z" transform="translate(37.77877 147.7056) rotate(-135)"/>
      <rect x="55.44773" y="66.40018" width="1.72702" height="14.13998" transform="translate(44.17804 165.23948) rotate(-135)"/>
      <polygon points="89.207 40.727 94.664 46.871 95.733 45.803 89.703 40.231 89.207 40.727"/>
      <path d="M52.60951,64.45119s5.3427-5.74976,7.73419-7.12359a18.55936,18.55936,0,0,1-2.9512,4.88475l-4.07063,3.15473S52.25333,65.418,52.60951,64.45119Z"/>
      <path d="M47.8598,69.2009S42.11,74.5436,40.73621,76.93509a18.55922,18.55922,0,0,0,4.88474-2.9512l3.15474-4.07063S48.82657,68.84472,47.8598,69.2009Z"/>
      <path d="M81.053,97.32149a2.31091,2.31091,0,0,0,.7378-2.41694,6.48366,6.48366,0,0,0-1.27207-2.34061L68.30686,80.5556l-3.71445-1.32295L63.473,80.35207,80.44241,97.47413Z"/>
      <path d="M80.95124,97.42325a2.3109,2.3109,0,0,1-2.41694.7378A6.48366,6.48366,0,0,1,76.19369,96.889L64.18535,84.67711,62.8624,80.96266l1.11942-1.11942L81.10389,96.81266Z"/>
      <rect x="74.8197" y="88.20929" width="1.04341" height="7.41179" transform="translate(63.62198 210.18346) rotate(-135)"/>
      <rect x="70.62187" y="84.01146" width="1.04341" height="7.41179" transform="translate(59.42414 200.049) rotate(-135)"/>
      <rect x="66.47492" y="79.86451" width="1.04341" height="7.41179" transform="translate(55.27719 190.03738) rotate(-135)"/>
    </g>
    <g>
      <g>
        <path class="cls-6" d="M51.74,70.55927l7.96777-7.96777L56.99817,59.882a2.42893,2.42893,0,0,0-3.43457,0l-.37353.37353-3.78613,3.78613-.37354.37354a2.42874,2.42874,0,0,0,0,3.43457Z"/>
        <path class="cls-6" d="M118.32459,99.53266a3.20126,3.20126,0,0,0-.30518-3.969c-1.75549-1.908-5.26635-.07617-5.26635-.07617L97.64075,103.883,82.07068,86.176l-.38159-2.06079,26.02649-39.00171s2.90027-4.27417,0-8.09033c-2.90027-3.81641-7.09814-1.9082-8.92993-.99219-1.83179.91577-6.94543,5.419-6.94543,5.419L63.44764,66.33149,60.929,63.81269l-7.96777,7.96777,2.51867,2.5188L30.59815,102.69184s-4.50305,5.11377-5.41907,6.94556c-.91577,1.83179-2.824,6.02954.99231,8.92993,3.81616,2.90015,8.09033,0,8.09033,0L73.26343,92.54072l2.06067.38159,17.70728,15.57007-8.39575,15.1123s-1.83167,3.511.07641,5.26636a3.20092,3.20092,0,0,0,3.96887.30542s13.662-9.54053,14.12-9.99853a2.75321,2.75321,0,0,1,1.45019-.53418l6.97535,4.47314,1.52661-.15283-.229-.33057.229.02539-.30542-1.374-4.65576-6.18213a2.75525,2.75525,0,0,1,.5343-1.4502C108.78406,113.19453,118.32459,99.53266,118.32459,99.53266Z"/>
      </g>
      <path class="cls-6" d="M47.26747,57.55494h2.21275A2.21274,2.21274,0,0,1,51.693,59.76769v0a2.21274,2.21274,0,0,1-2.21274,2.21274H47.26747a0,0,0,0,1,0,0V57.55494A0,0,0,0,1,47.26747,57.55494Z" transform="translate(42.20588 137.01762) rotate(-135)"/>
      <polygon class="cls-6" points="89.207 34.466 94.664 40.61 95.733 39.542 89.703 33.97 89.207 34.466"/>
      <path class="cls-6" d="M52.60951,58.19032s5.3427-5.74976,7.73419-7.12359a18.55936,18.55936,0,0,1-2.9512,4.88475l-4.07063,3.15473S52.25333,59.15709,52.60951,58.19032Z"/>
      <path class="cls-6" d="M47.8598,62.94s-5.74976,5.3427-7.12359,7.73419A18.55922,18.55922,0,0,0,45.621,67.723l3.15474-4.07063S48.82657,62.58385,47.8598,62.94Z"/>
      <path d="M81.053,91.06062a2.31091,2.31091,0,0,0,.7378-2.41694,6.48366,6.48366,0,0,0-1.27207-2.34061L68.30686,74.29473l-3.71445-1.323L63.473,74.0912,80.44241,91.21327Z"/>
      <path d="M80.95124,91.16238a2.3109,2.3109,0,0,1-2.41694.7378,6.48366,6.48366,0,0,1-2.34061-1.27207L64.18535,78.41624,62.8624,74.70179l1.11942-1.11942L81.10389,90.55179Z"/>
      <rect class="cls-6" x="74.8197" y="81.94842" width="1.04341" height="7.41179" transform="translate(68.04908 199.49549) rotate(-135)"/>
      <rect class="cls-6" x="70.62187" y="77.75059" width="1.04341" height="7.41179" transform="translate(63.85125 189.36102) rotate(-135)"/>
      <rect class="cls-6" x="66.47492" y="73.60364" width="1.04341" height="7.41179" transform="translate(59.7043 179.3494) rotate(-135)"/>
    </g>
    <polygon points="109.304 121.913 98.348 111.152 104.022 121.717 109.304 121.913"/>
    <polygon points="74.609 94.391 57.391 78.739 67.565 98.304 74.609 94.391"/>
  </g>
</svg>
