<?xml version="1.0" encoding="UTF-8" standalone="no"?>
<!DOCTYPE svg PUBLIC "-//W3C//DTD SVG 1.1//EN" "http://www.w3.org/Graphics/SVG/1.1/DTD/svg11.dtd">
<svg width="100%" height="100%" viewBox="0 0 24 24" version="1.1" xmlns="http://www.w3.org/2000/svg" xmlns:xlink="http://www.w3.org/1999/xlink" xml:space="preserve" xmlns:serif="http://www.serif.com/" style="fill-rule:evenodd;clip-rule:evenodd;stroke-linejoin:round;stroke-miterlimit:2;">
    <g transform="matrix(1,0,0,1,-9236,-3159)">
        <g transform="matrix(0.923654,0,0,1.13187,477.217,-202.505)">
            <g id="military_rank_17_lb">
                <g transform="matrix(0.324797,0,0,0.265049,6625.51,2151.93)">
                    <rect x="8797" y="3086" width="80" height="80" style="fill:none;"/>
                </g>
                <g transform="matrix(0.928299,0,0,0.954705,681.003,135.403)">
                    <g transform="matrix(1.16628,0,0,0.925411,-1290.17,45.5743)">
                        <path d="M9245.53,3173.95L9250.47,3173.95L9250.16,3171.75L9252.1,3172.73L9253.11,3169.55L9254.11,3172.73L9256.05,3171.75L9255.74,3173.95L9259,3173.95L9256.36,3175.92L9257.87,3177.51L9255.74,3177.89L9256.75,3181.08L9254.11,3179.11L9253.11,3181.08L9252.1,3179.11L9249.46,3181.08L9250.47,3177.89L9248.34,3177.51L9249.85,3175.92L9248,3174.54L9246.15,3175.92L9247.66,3177.51L9245.53,3177.89L9246.54,3181.08L9243.9,3179.11L9242.89,3181.08L9241.89,3179.11L9239.25,3181.08L9240.26,3177.89L9238.13,3177.51L9239.64,3175.92L9237,3173.95L9240.26,3173.95L9239.95,3171.75L9241.89,3172.73L9242.89,3169.55L9243.9,3172.73L9245.84,3171.75L9245.53,3173.95ZM9248.14,3160L9249.15,3163.19L9251.09,3162.2L9250.78,3164.4L9254.03,3164.4L9251.4,3166.37L9252.91,3167.97L9250.78,3168.34L9251.78,3171.53L9249.15,3169.56L9248.14,3171.53L9247.13,3169.56L9244.5,3171.53L9245.5,3168.34L9243.37,3167.97L9244.88,3166.37L9242.25,3164.4L9245.5,3164.4L9245.19,3162.2L9247.13,3163.19L9248.14,3160Z" style="fill:rgb(208,172,69);"/>
                        <path d="M9242.72,3168.63C9242.38,3168.7 9242.11,3168.94 9242,3169.27L9241.33,3171.4C9241.33,3171.4 9240.37,3170.92 9240.37,3170.92C9240.06,3170.76 9239.69,3170.79 9239.4,3170.99C9239.12,3171.19 9238.97,3171.53 9239.02,3171.88L9239.18,3173.02C9239.18,3173.02 9237,3173.02 9237,3173.02C9236.6,3173.02 9236.24,3173.28 9236.11,3173.66C9235.99,3174.04 9236.12,3174.46 9236.44,3174.7L9238.24,3176.04C9238.24,3176.04 9237.45,3176.87 9237.45,3176.87C9237.21,3177.12 9237.13,3177.48 9237.24,3177.81C9237.35,3178.13 9237.62,3178.37 9237.96,3178.43L9239.05,3178.62C9239.05,3178.62 9238.36,3180.8 9238.36,3180.8C9238.24,3181.18 9238.38,3181.6 9238.71,3181.84C9239.04,3182.07 9239.49,3182.07 9239.81,3181.83L9241.56,3180.52C9241.56,3180.52 9242.06,3181.5 9242.06,3181.5C9242.22,3181.82 9242.54,3182.01 9242.89,3182.01C9243.25,3182.01 9243.57,3181.82 9243.73,3181.5L9244.23,3180.52C9244.23,3180.52 9245.98,3181.83 9245.98,3181.83C9246.3,3182.07 9246.75,3182.07 9247.08,3181.84C9247.41,3181.6 9247.55,3181.18 9247.43,3180.8L9246.74,3178.62C9246.74,3178.62 9247.83,3178.43 9247.83,3178.43C9247.89,3178.42 9247.94,3178.41 9248,3178.39C9248.06,3178.41 9248.11,3178.42 9248.18,3178.43L9249.26,3178.62C9249.26,3178.62 9248.57,3180.8 9248.57,3180.8C9248.45,3181.18 9248.59,3181.6 9248.92,3181.84C9249.25,3182.07 9249.7,3182.07 9250.02,3181.83L9251.77,3180.52C9251.77,3180.52 9252.27,3181.5 9252.27,3181.5C9252.43,3181.82 9252.76,3182.01 9253.11,3182.01C9253.46,3182.01 9253.78,3181.82 9253.94,3181.5L9254.44,3180.52C9254.44,3180.52 9256.19,3181.83 9256.19,3181.83C9256.51,3182.07 9256.96,3182.07 9257.29,3181.84C9257.62,3181.6 9257.76,3181.18 9257.64,3180.8L9256.95,3178.62C9256.95,3178.62 9258.04,3178.43 9258.04,3178.43C9258.38,3178.37 9258.65,3178.13 9258.76,3177.81C9258.87,3177.48 9258.79,3177.12 9258.55,3176.87L9257.76,3176.04C9257.76,3176.04 9259.56,3174.7 9259.56,3174.7C9259.88,3174.46 9260.01,3174.04 9259.89,3173.66C9259.76,3173.28 9259.4,3173.02 9259,3173.02L9256.82,3173.02C9256.82,3173.02 9256.98,3171.88 9256.98,3171.88C9257.03,3171.53 9256.88,3171.19 9256.6,3170.99C9256.31,3170.79 9255.94,3170.76 9255.63,3170.92L9254.67,3171.4C9254.67,3171.4 9254,3169.27 9254,3169.27C9253.91,3169.01 9253.73,3168.8 9253.49,3168.7C9253.63,3168.59 9253.74,3168.43 9253.8,3168.26C9253.9,3167.93 9253.82,3167.58 9253.59,3167.33L9252.8,3166.49C9252.8,3166.49 9254.59,3165.15 9254.59,3165.15C9254.92,3164.91 9255.05,3164.49 9254.92,3164.11C9254.79,3163.73 9254.44,3163.47 9254.03,3163.47L9251.85,3163.47C9251.85,3163.47 9252.01,3162.33 9252.01,3162.33C9252.06,3161.99 9251.91,3161.64 9251.63,3161.44C9251.35,3161.24 9250.98,3161.21 9250.66,3161.37L9249.7,3161.86C9249.7,3161.86 9249.03,3159.72 9249.03,3159.72C9248.91,3159.33 9248.55,3159.07 9248.14,3159.07C9247.73,3159.07 9247.37,3159.33 9247.25,3159.72L9246.57,3161.86C9246.57,3161.86 9245.61,3161.37 9245.61,3161.37C9245.31,3161.21 9244.93,3161.24 9244.65,3161.44C9244.37,3161.64 9244.22,3161.99 9244.27,3162.33L9244.43,3163.47C9244.43,3163.47 9242.25,3163.47 9242.25,3163.47C9241.84,3163.47 9241.49,3163.73 9241.36,3164.11C9241.23,3164.49 9241.36,3164.91 9241.69,3165.15L9243.48,3166.49C9243.48,3166.49 9242.69,3167.33 9242.69,3167.33C9242.46,3167.58 9242.38,3167.93 9242.49,3168.26C9242.53,3168.4 9242.61,3168.53 9242.72,3168.63ZM9245.53,3173.95L9250.47,3173.95L9250.16,3171.75L9252.1,3172.73L9253.11,3169.55L9254.11,3172.73L9256.05,3171.75L9255.74,3173.95L9259,3173.95L9256.36,3175.92L9257.87,3177.51L9255.74,3177.89L9256.75,3181.08L9254.11,3179.11L9253.11,3181.08L9252.1,3179.11L9249.46,3181.08L9250.47,3177.89L9248.34,3177.51L9249.85,3175.92L9248,3174.54L9246.15,3175.92L9247.66,3177.51L9245.53,3177.89L9246.54,3181.08L9243.9,3179.11L9242.89,3181.08L9241.89,3179.11L9239.25,3181.08L9240.26,3177.89L9238.13,3177.51L9239.64,3175.92L9237,3173.95L9240.26,3173.95L9239.95,3171.75L9241.89,3172.73L9242.89,3169.55L9243.9,3172.73L9245.84,3171.75L9245.53,3173.95ZM9248,3176.51L9248.45,3176.04C9248.45,3176.04 9248,3175.71 9248,3175.71C9248,3175.71 9247.55,3176.04 9247.55,3176.04L9248,3176.51ZM9246.56,3171.15C9246.73,3171.35 9246.8,3171.62 9246.77,3171.88L9246.6,3173.02L9249.4,3173.02L9249.23,3171.88C9249.19,3171.56 9249.31,3171.24 9249.56,3171.03L9249.47,3170.97C9249.47,3170.97 9248.97,3171.95 9248.97,3171.95C9248.81,3172.27 9248.49,3172.46 9248.14,3172.46C9247.79,3172.46 9247.47,3172.27 9247.31,3171.95C9247.31,3171.95 9246.81,3170.97 9246.81,3170.97L9246.56,3171.15ZM9248.14,3160L9249.15,3163.19L9251.09,3162.2L9250.78,3164.4L9254.03,3164.4L9251.4,3166.37L9252.91,3167.97L9250.78,3168.34L9251.78,3171.53L9249.15,3169.56L9248.14,3171.53L9247.13,3169.56L9244.5,3171.53L9245.5,3168.34L9243.37,3167.97L9244.88,3166.37L9242.25,3164.4L9245.5,3164.4L9245.19,3162.2L9247.13,3163.19L9248.14,3160ZM9243.62,3168.96C9243.69,3169.05 9243.75,3169.15 9243.78,3169.27L9244.01,3169.98L9244.29,3169.08L9243.62,3168.96ZM9251.99,3169.08L9252.13,3169.53L9252.22,3169.27C9252.24,3169.18 9252.29,3169.09 9252.34,3169.02L9251.99,3169.08Z" style="fill:rgb(37,16,5);"/>
                    </g>
                    <g transform="matrix(1.08266,0,0,0.883495,-1082.89,-1007.62)">
                        <path d="M9771.6,4516.65L9773.51,4516.7L9775.41,4518L9773.18,4514.31L9775.19,4515.14L9775.99,4517.58L9776.35,4512L9776.71,4517.58L9777.46,4515.31L9779.52,4514.31L9777.28,4518L9779.22,4516.66L9782.7,4516.61L9777.51,4518.68L9779.94,4518.72L9781.49,4520.35L9777.28,4519.36L9780.27,4524.08L9776.71,4519.78L9776.35,4524.08L9775.99,4519.78L9772.43,4524.08L9775.41,4519.36L9771.21,4520.35L9772.84,4518.73L9775.19,4518.68L9770.85,4516.95L9766.51,4518.68L9768.94,4518.72L9770.49,4520.35L9766.28,4519.36L9769.27,4524.08L9765.71,4519.78L9765.35,4524.08L9764.99,4519.78L9761.43,4524.08L9764.41,4519.36L9760.21,4520.35L9761.84,4518.73L9764.19,4518.68L9759,4516.61L9762.51,4516.7L9764.41,4518L9762.18,4514.31L9764.19,4515.14L9764.99,4517.58L9765.35,4512L9765.71,4517.58L9766.46,4515.31L9768.52,4514.31L9766.28,4518L9768.22,4516.66L9770.05,4516.63L9770,4516.61L9770.58,4516.63L9771.7,4516.61L9771.6,4516.65Z" style="fill:rgb(255,222,127);"/>
                    </g>
                    <g transform="matrix(1.11204,0,0,0.907471,-1058.04,-359.637)">
                        <path d="M9490.5,3669L9490.85,3674.43L9491.58,3672.22L9493.59,3671.25L9491.41,3674.84L9493.3,3673.53L9496.68,3673.49L9491.63,3675.5L9494,3675.55L9495.5,3677.12L9491.41,3676.16L9494.32,3680.76L9490.85,3676.57L9490.5,3680.76L9490.15,3676.57L9486.68,3680.76L9489.59,3676.16L9485.5,3677.12L9487.09,3675.55L9489.37,3675.5L9484.32,3673.49L9487.74,3673.57L9489.59,3674.84L9487.41,3671.25L9489.37,3672.06L9490.15,3674.43L9490.5,3669Z" style="fill:rgb(255,222,127);"/>
                    </g>
                </g>
            </g>
        </g>
    </g>
</svg>
