<?xml version="1.0" encoding="UTF-8" standalone="no"?>
<!DOCTYPE svg PUBLIC "-//W3C//DTD SVG 1.1//EN" "http://www.w3.org/Graphics/SVG/1.1/DTD/svg11.dtd">
<svg width="100%" height="100%" viewBox="0 0 24 24" version="1.1" xmlns="http://www.w3.org/2000/svg" xmlns:xlink="http://www.w3.org/1999/xlink" xml:space="preserve" xmlns:serif="http://www.serif.com/" style="fill-rule:evenodd;clip-rule:evenodd;stroke-linejoin:round;stroke-miterlimit:2;">
    <g transform="matrix(1,0,0,1,-8743,-3373)">
        <g transform="matrix(0.923654,0,0,1.13187,477.217,-202.505)">
            <g id="military_rank_13_lb">
                <g transform="matrix(0.324797,0,0,0.265049,6091.76,2341)">
                    <rect x="8797" y="3086" width="80" height="80" style="fill:none;"/>
                </g>
                <g transform="matrix(2.17248,0,0,3.95534,-9679.42,-7608.8)">
                    <g transform="matrix(0.498351,0,0,-0.297824,4102.53,3664.49)">
                        <path d="M8994,3150L8986,3146.25L8978,3150L8978,3153L8986,3149.25L8994,3153L8994,3150Z" style="fill:rgb(208,172,69);"/>
                        <path d="M8994.5,3149.41C8994.77,3149.53 8994.93,3149.76 8994.93,3150L8994.93,3153C8994.93,3153.25 8994.75,3153.49 8994.45,3153.61C8994.16,3153.74 8993.79,3153.73 8993.51,3153.59L8986,3150.08C8986,3150.08 8978.5,3153.59 8978.5,3153.59C8978.21,3153.73 8977.84,3153.74 8977.55,3153.61C8977.25,3153.49 8977.07,3153.25 8977.07,3153L8977.07,3150C8977.07,3149.76 8977.23,3149.53 8977.51,3149.41L8985.51,3145.66C8985.81,3145.51 8986.19,3145.51 8986.5,3145.66L8994.5,3149.41ZM8994,3150L8986,3146.25L8978,3150L8978,3153L8986,3149.25L8994,3153L8994,3150Z" style="fill:rgb(37,16,5);"/>
                    </g>
                    <g transform="matrix(0.498351,0,0,-0.297824,4102.53,3664.49)">
                        <path d="M8986,3149.25L8986,3146.25L8978,3150L8978,3153L8986,3149.25Z" style="fill:rgb(248,209,97);"/>
                    </g>
                </g>
                <g transform="matrix(2.17248,0,0,3.95534,-9679.42,-7607.03)">
                    <g transform="matrix(0.498351,0,0,0.297824,4102.53,1785.08)">
                        <path d="M8994,3150L8986,3146.25L8978,3150L8978,3153L8986,3149.25L8994,3153L8994,3150Z" style="fill:rgb(208,172,69);"/>
                        <path d="M8994.93,3150C8994.93,3149.76 8994.77,3149.53 8994.5,3149.41L8986.5,3145.66C8986.19,3145.51 8985.81,3145.51 8985.51,3145.66L8977.51,3149.41C8977.23,3149.53 8977.07,3149.76 8977.07,3150L8977.07,3153C8977.07,3153.25 8977.25,3153.49 8977.55,3153.61C8977.84,3153.74 8978.21,3153.73 8978.5,3153.59L8986,3150.08C8986,3150.08 8993.51,3153.59 8993.51,3153.59C8993.79,3153.73 8994.16,3153.74 8994.45,3153.61C8994.75,3153.49 8994.93,3153.25 8994.93,3153L8994.93,3150ZM8994,3150L8986,3146.25L8978,3150L8978,3153L8986,3149.25L8994,3153L8994,3150Z" style="fill:rgb(37,16,5);"/>
                    </g>
                    <g transform="matrix(0.498351,0,0,0.297824,4102.53,1785.08)">
                        <path d="M8986,3149.25L8986,3146.25L8978,3150L8978,3153L8986,3149.25Z" style="fill:rgb(248,209,97);"/>
                    </g>
                </g>
                <g transform="matrix(2.17248,0,0,3.95534,-9666.2,-7423.26)">
                    <g transform="matrix(0.216226,0,0,0.106607,6586.2,2195.87)">
                        <path d="M9196,4513L9207,4524L9196,4535L9185,4524L9196,4513Z" style="fill:rgb(208,172,69);"/>
                        <path d="M9197.59,4511.69C9197.18,4511.28 9196.61,4511.04 9196,4511.04C9195.39,4511.04 9194.82,4511.28 9194.41,4511.69L9183.41,4522.69C9182.66,4523.43 9182.66,4524.57 9183.41,4525.32L9194.41,4536.32C9194.82,4536.72 9195.39,4536.96 9196,4536.96C9196.61,4536.96 9197.18,4536.72 9197.59,4536.32L9208.59,4525.32C9209.34,4524.57 9209.34,4523.43 9208.59,4522.69C9208.59,4522.69 9197.59,4511.69 9197.59,4511.69ZM9196,4513L9207,4524L9196,4535L9185,4524L9196,4513Z" style="fill:rgb(37,16,5);"/>
                    </g>
                    <g transform="matrix(0.20593,0,0,0.101531,6680.89,2218.78)">
                        <path d="M9196,4513L9207,4524L9185,4524L9196,4513Z" style="fill:rgb(248,209,97);"/>
                    </g>
                </g>
            </g>
        </g>
    </g>
</svg>
