<?xml version="1.0" encoding="UTF-8" standalone="no"?>
<!DOCTYPE svg PUBLIC "-//W3C//DTD SVG 1.1//EN" "http://www.w3.org/Graphics/SVG/1.1/DTD/svg11.dtd">
<svg width="100%" height="100%" viewBox="0 0 24 24" version="1.1" xmlns="http://www.w3.org/2000/svg" xmlns:xlink="http://www.w3.org/1999/xlink" xml:space="preserve" xmlns:serif="http://www.serif.com/" style="fill-rule:evenodd;clip-rule:evenodd;stroke-linejoin:round;stroke-miterlimit:2;">
    <g transform="matrix(1,0,0,1,-8743,-3095)">
        <g transform="matrix(0.923654,0,0,1.13187,477.217,-202.505)">
            <g id="military_rank_10_lb">
                <g transform="matrix(0.324797,0,0,0.265049,6091.76,2095.39)">
                    <rect x="8797" y="3086" width="80" height="80" style="fill:none;"/>
                </g>
                <g transform="matrix(1,0,0,1,0,-0.883495)">
                    <g transform="matrix(1.08266,0,0,-1.17799,-766.756,6639.03)">
                        <path d="M8994,3150L8986,3146.25L8978,3150L8978,3153L8986,3149.25L8994,3153L8994,3150Z" style="fill:rgb(209,209,209);"/>
                        <path d="M8994.5,3149.41C8994.77,3149.53 8994.93,3149.76 8994.93,3150L8994.93,3153C8994.93,3153.25 8994.75,3153.49 8994.45,3153.61C8994.16,3153.74 8993.79,3153.73 8993.51,3153.59L8986,3150.08C8986,3150.08 8978.5,3153.59 8978.5,3153.59C8978.21,3153.73 8977.84,3153.74 8977.55,3153.61C8977.25,3153.49 8977.07,3153.25 8977.07,3153L8977.07,3150C8977.07,3149.76 8977.23,3149.53 8977.51,3149.41L8985.51,3145.66C8985.81,3145.51 8986.19,3145.51 8986.5,3145.66L8994.5,3149.41ZM8994,3150L8986,3146.25L8978,3150L8978,3153L8986,3149.25L8994,3153L8994,3150Z" style="fill:rgb(49,49,49);"/>
                    </g>
                    <g transform="matrix(1.08266,0,0,-1.17799,-766.756,6639.03)">
                        <path d="M8986,3149.25L8986,3146.25L8978,3150L8978,3153L8986,3149.25Z" style="fill:rgb(240,240,240);"/>
                    </g>
                </g>
                <g transform="matrix(1.97498,0,0,3.95534,-7972.93,-7672.41)">
                    <g transform="matrix(0.226523,0,0,0.111684,6491.62,2172.96)">
                        <path d="M9196,4513L9207,4524L9196,4535L9185,4524L9196,4513Z" style="fill:rgb(209,209,209);"/>
                        <path d="M9197.74,4511.81C9197.31,4511.38 9196.67,4511.13 9196,4511.13C9195.33,4511.13 9194.69,4511.38 9194.26,4511.81L9183.26,4522.81C9182.57,4523.5 9182.57,4524.5 9183.26,4525.19L9194.26,4536.19C9194.69,4536.62 9195.33,4536.87 9196,4536.87C9196.67,4536.87 9197.31,4536.62 9197.74,4536.19L9208.74,4525.19C9209.43,4524.5 9209.43,4523.5 9208.74,4522.81L9197.74,4511.81ZM9196,4513L9207,4524L9196,4535L9185,4524L9196,4513Z" style="fill:rgb(49,49,49);"/>
                    </g>
                    <g transform="matrix(0.226523,0,0,0.111684,6491.62,2172.96)">
                        <path d="M9196,4513L9207,4524L9185,4524L9196,4513Z" style="fill:rgb(240,240,240);"/>
                    </g>
                </g>
            </g>
        </g>
    </g>
</svg>
