<?xml version="1.0" encoding="UTF-8" standalone="no"?>
<!DOCTYPE svg PUBLIC "-//W3C//DTD SVG 1.1//EN" "http://www.w3.org/Graphics/SVG/1.1/DTD/svg11.dtd">
<svg width="100%" height="100%" viewBox="0 0 24 24" version="1.1" xmlns="http://www.w3.org/2000/svg" xmlns:xlink="http://www.w3.org/1999/xlink" xml:space="preserve" xmlns:serif="http://www.serif.com/" style="fill-rule:evenodd;clip-rule:evenodd;stroke-linejoin:round;stroke-miterlimit:2;">
    <g transform="matrix(1,0,0,1,-9236,-3519)">
        <g transform="matrix(0.923654,0,0,1.13187,477.217,-202.505)">
            <g id="military_rank_20_lb" transform="matrix(2.17248,0,0,3.95534,-9679.42,-7774.9)">
                <g transform="matrix(0.149505,0,0,0.0670103,7505.22,2590.14)">
                    <rect x="8797" y="3086" width="80" height="80" style="fill:none;"/>
                </g>
                <g transform="matrix(1.21271,0,0,1.21271,-1593.44,-338.443)">
                    <g transform="matrix(0.283057,0,0,0.135328,5949.81,2060.4)">
                        <path d="M9332.58,3884.07C9332.5,3883.85 9332.47,3883.61 9332.47,3883.38C9332.47,3882.06 9333.6,3881 9335,3881C9336.4,3881 9337.53,3882.06 9337.53,3883.38C9337.53,3883.61 9337.5,3883.85 9337.42,3884.07L9335.42,3890.18C9335.41,3890.2 9335.41,3890.23 9335.4,3890.25C9335.3,3890.7 9335.6,3891.14 9336.08,3891.23C9336.56,3891.33 9337.02,3891.04 9337.13,3890.6C9337.13,3890.57 9337.14,3890.55 9337.14,3890.52L9337.96,3884.18C9337.99,3883.95 9338.06,3883.72 9338.16,3883.5C9338.73,3882.3 9340.23,3881.76 9341.51,3882.3C9342.78,3882.83 9343.36,3884.24 9342.79,3885.43C9342.69,3885.65 9342.55,3885.85 9342.39,3886.03L9337.91,3890.85C9337.89,3890.86 9337.88,3890.88 9337.86,3890.9C9337.58,3891.27 9337.66,3891.79 9338.06,3892.06C9338.45,3892.33 9339,3892.24 9339.29,3891.87C9339.3,3891.86 9339.32,3891.83 9339.33,3891.81L9342.83,3886.33C9342.96,3886.13 9343.12,3885.95 9343.31,3885.79C9344.35,3884.91 9345.95,3884.99 9346.89,3885.96C9347.83,3886.94 9347.74,3888.44 9346.7,3889.32C9346.52,3889.48 9346.3,3889.61 9346.08,3889.71L9339.89,3892.4C9339.87,3892.41 9339.85,3892.42 9339.83,3892.43C9339.4,3892.66 9339.26,3893.17 9339.5,3893.56C9339.75,3893.96 9340.28,3894.09 9340.71,3893.87C9340.73,3893.85 9340.75,3893.84 9340.77,3893.83L9346.35,3890.16C9346.56,3890.02 9346.78,3889.91 9347.02,3889.84C9348.35,3889.43 9349.78,3890.12 9350.22,3891.37C9350.65,3892.61 9349.92,3893.95 9348.59,3894.36C9348.35,3894.43 9348.1,3894.47 9347.85,3894.47L9341.03,3894.58C9341.01,3894.58 9340.98,3894.58 9340.95,3894.58C9340.47,3894.63 9340.12,3895.04 9340.17,3895.49C9340.22,3895.94 9340.66,3896.27 9341.14,3896.23C9341.17,3896.22 9341.19,3896.22 9341.22,3896.22L9347.91,3894.99C9348.15,3894.94 9348.41,3894.93 9348.66,3894.96C9350.05,3895.09 9351.06,3896.26 9350.91,3897.57C9350.77,3898.87 9349.52,3899.82 9348.13,3899.68C9347.88,3899.66 9347.63,3899.6 9347.4,3899.51L9341.13,3897C9341.1,3896.99 9341.08,3896.98 9341.06,3896.98C9340.59,3896.84 9340.09,3897.07 9339.94,3897.51C9339.79,3897.94 9340.05,3898.41 9340.51,3898.55C9340.53,3898.56 9340.56,3898.56 9340.59,3898.57L9347.23,3900C9347.48,3900.05 9347.71,3900.14 9347.93,3900.26C9349.14,3900.91 9349.56,3902.37 9348.86,3903.5C9348.16,3904.64 9346.61,3905.03 9345.4,3904.37C9345.18,3904.25 9344.98,3904.1 9344.81,3903.93L9340.16,3899.25C9340.15,3899.23 9340.13,3899.22 9340.11,3899.2C9339.75,3898.89 9339.19,3898.92 9338.86,3899.26C9338.54,3899.6 9338.57,3900.12 9338.93,3900.43C9338.95,3900.44 9338.97,3900.46 9338.99,3900.47L9344.44,3904.32C9344.64,3904.46 9344.82,3904.63 9344.97,3904.82C9345.79,3905.88 9345.54,3907.37 9344.41,3908.14C9343.27,3908.91 9341.69,3908.67 9340.87,3907.61C9340.72,3907.42 9340.6,3907.21 9340.52,3906.98L9338.31,3900.94C9338.3,3900.92 9338.29,3900.89 9338.28,3900.87C9338.08,3900.45 9337.56,3900.27 9337.11,3900.45C9336.67,3900.64 9336.47,3901.13 9336.67,3901.54C9336.68,3901.57 9336.69,3901.59 9336.7,3901.61L9340.01,3907.2C9340.14,3907.4 9340.23,3907.62 9340.28,3907.86C9340.57,3909.14 9339.69,3910.4 9338.33,3910.67C9336.96,3910.95 9335.61,3910.12 9335.32,3908.84C9335.27,3908.61 9335.25,3908.37 9335.28,3908.14L9335.88,3901.77C9335.88,3901.75 9335.88,3901.72 9335.88,3901.7C9335.88,3901.24 9335.49,3900.87 9335,3900.87C9334.51,3900.87 9334.12,3901.24 9334.12,3901.7C9334.12,3901.72 9334.12,3901.75 9334.12,3901.77L9334.72,3908.14C9334.75,3908.37 9334.73,3908.61 9334.68,3908.84C9334.39,3910.12 9333.04,3910.95 9331.67,3910.67C9330.31,3910.4 9329.43,3909.14 9329.72,3907.86C9329.77,3907.62 9329.86,3907.4 9329.99,3907.2L9333.3,3901.61C9333.31,3901.59 9333.32,3901.57 9333.33,3901.54C9333.53,3901.13 9333.33,3900.64 9332.89,3900.45C9332.44,3900.27 9331.92,3900.45 9331.72,3900.87C9331.71,3900.89 9331.7,3900.92 9331.69,3900.94L9329.48,3906.98C9329.4,3907.21 9329.28,3907.42 9329.13,3907.61C9328.31,3908.67 9326.73,3908.91 9325.59,3908.14C9324.46,3907.37 9324.21,3905.88 9325.03,3904.82C9325.18,3904.63 9325.36,3904.46 9325.56,3904.32L9331.01,3900.47C9331.03,3900.46 9331.05,3900.44 9331.07,3900.43C9331.43,3900.12 9331.46,3899.6 9331.14,3899.26C9330.81,3898.92 9330.25,3898.89 9329.89,3899.2C9329.87,3899.22 9329.85,3899.23 9329.84,3899.25L9325.19,3903.93C9325.02,3904.1 9324.82,3904.25 9324.6,3904.37C9323.39,3905.03 9321.84,3904.64 9321.14,3903.5C9320.44,3902.37 9320.86,3900.91 9322.07,3900.26C9322.29,3900.14 9322.52,3900.05 9322.77,3900L9329.42,3898.57C9329.44,3898.56 9329.47,3898.56 9329.49,3898.55C9329.95,3898.41 9330.21,3897.94 9330.06,3897.51C9329.91,3897.07 9329.41,3896.84 9328.94,3896.98C9328.92,3896.98 9328.9,3896.99 9328.87,3897L9322.6,3899.51C9322.37,3899.6 9322.12,3899.66 9321.87,3899.68C9320.48,3899.82 9319.23,3898.87 9319.09,3897.57C9318.94,3896.26 9319.95,3895.09 9321.34,3894.96C9321.59,3894.93 9321.85,3894.94 9322.09,3894.99L9328.78,3896.22C9328.81,3896.22 9328.84,3896.22 9328.86,3896.23C9329.34,3896.27 9329.78,3895.94 9329.83,3895.49C9329.88,3895.04 9329.53,3894.63 9329.05,3894.58C9329.02,3894.58 9328.99,3894.58 9328.97,3894.58L9322.15,3894.47C9321.9,3894.47 9321.65,3894.43 9321.41,3894.36C9320.08,3893.95 9319.35,3892.61 9319.78,3891.37C9320.22,3890.12 9321.65,3889.43 9322.98,3889.84C9323.22,3889.91 9323.44,3890.02 9323.65,3890.16L9329.23,3893.83C9329.25,3893.84 9329.27,3893.85 9329.29,3893.87C9329.72,3894.09 9330.26,3893.96 9330.5,3893.56C9330.74,3893.17 9330.6,3892.66 9330.18,3892.43C9330.15,3892.42 9330.13,3892.41 9330.11,3892.4L9323.92,3889.71C9323.7,3889.61 9323.48,3889.48 9323.3,3889.32C9322.26,3888.44 9322.17,3886.94 9323.11,3885.96C9324.05,3884.99 9325.65,3884.91 9326.69,3885.79C9326.88,3885.95 9327.04,3886.13 9327.17,3886.33L9330.67,3891.81C9330.68,3891.83 9330.7,3891.86 9330.71,3891.87C9331,3892.24 9331.55,3892.33 9331.94,3892.06C9332.34,3891.79 9332.43,3891.27 9332.14,3890.9C9332.12,3890.88 9332.11,3890.86 9332.09,3890.85L9327.61,3886.03C9327.45,3885.85 9327.31,3885.65 9327.21,3885.43C9326.64,3884.24 9327.22,3882.83 9328.49,3882.3C9329.77,3881.76 9331.27,3882.3 9331.84,3883.5C9331.94,3883.72 9332.01,3883.95 9332.04,3884.18L9332.86,3890.52C9332.86,3890.55 9332.87,3890.57 9332.87,3890.6C9332.98,3891.04 9333.44,3891.33 9333.92,3891.23C9334.4,3891.14 9334.7,3890.7 9334.6,3890.25C9334.59,3890.23 9334.59,3890.2 9334.58,3890.18L9332.58,3884.07Z" style="fill:rgb(248,209,97);"/>
                        <path d="M9331.64,3881.2C9330.54,3880.57 9329.13,3880.44 9327.86,3880.97C9326.59,3881.5 9325.75,3882.57 9325.51,3883.76C9324.23,3883.6 9322.89,3884.02 9321.96,3884.99C9321.03,3885.96 9320.72,3887.25 9321.02,3888.43C9319.78,3888.78 9318.74,3889.68 9318.31,3890.92C9317.88,3892.16 9318.16,3893.45 9318.95,3894.42C9317.97,3895.21 9317.4,3896.42 9317.55,3897.72C9317.69,3899.02 9318.51,3900.09 9319.65,3900.68C9319.1,3901.77 9319.11,3903.1 9319.8,3904.23C9320.5,3905.36 9321.72,3906.03 9323,3906.13C9322.98,3907.34 9323.56,3908.54 9324.68,3909.31C9325.81,3910.08 9327.21,3910.22 9328.43,3909.83C9328.93,3910.94 9329.99,3911.82 9331.35,3912.09C9332.71,3912.36 9334.06,3911.96 9335,3911.13C9335.94,3911.96 9337.29,3912.36 9338.65,3912.09C9340.01,3911.82 9341.07,3910.94 9341.57,3909.83C9342.79,3910.22 9344.19,3910.08 9345.32,3909.31C9346.44,3908.54 9347.02,3907.34 9347,3906.13C9348.28,3906.03 9349.5,3905.36 9350.2,3904.23C9350.89,3903.1 9350.9,3901.77 9350.35,3900.68C9351.49,3900.09 9352.31,3899.02 9352.45,3897.72C9352.6,3896.42 9352.03,3895.21 9351.05,3894.42C9351.84,3893.45 9352.12,3892.16 9351.69,3890.92C9351.26,3889.68 9350.22,3888.78 9348.98,3888.43C9349.28,3887.25 9348.97,3885.96 9348.04,3884.99C9347.11,3884.02 9345.77,3883.6 9344.49,3883.76C9344.25,3882.57 9343.41,3881.5 9342.14,3880.97C9340.87,3880.44 9339.46,3880.57 9338.36,3881.2C9337.62,3880.2 9336.39,3879.55 9335,3879.55C9333.61,3879.55 9332.38,3880.2 9331.64,3881.2ZM9332.58,3884.07C9332.5,3883.85 9332.47,3883.61 9332.47,3883.38C9332.47,3882.06 9333.6,3881 9335,3881C9336.4,3881 9337.53,3882.06 9337.53,3883.38C9337.53,3883.61 9337.5,3883.85 9337.42,3884.07L9335.42,3890.18C9335.41,3890.2 9335.41,3890.23 9335.4,3890.25C9335.3,3890.7 9335.6,3891.14 9336.08,3891.23C9336.56,3891.33 9337.02,3891.04 9337.13,3890.6C9337.13,3890.57 9337.14,3890.55 9337.14,3890.52L9337.96,3884.18C9337.99,3883.95 9338.06,3883.72 9338.16,3883.5C9338.73,3882.3 9340.23,3881.76 9341.51,3882.3C9342.78,3882.83 9343.36,3884.24 9342.79,3885.43C9342.69,3885.65 9342.55,3885.85 9342.39,3886.03L9337.91,3890.85C9337.89,3890.86 9337.88,3890.88 9337.86,3890.9C9337.58,3891.27 9337.66,3891.79 9338.06,3892.06C9338.45,3892.33 9339,3892.24 9339.29,3891.87C9339.3,3891.86 9339.32,3891.83 9339.33,3891.81L9342.83,3886.33C9342.96,3886.13 9343.12,3885.95 9343.31,3885.79C9344.35,3884.91 9345.95,3884.99 9346.89,3885.96C9347.83,3886.94 9347.74,3888.44 9346.7,3889.32C9346.52,3889.48 9346.3,3889.61 9346.08,3889.71L9339.89,3892.4C9339.87,3892.41 9339.85,3892.42 9339.83,3892.43C9339.4,3892.66 9339.26,3893.17 9339.5,3893.56C9339.75,3893.96 9340.28,3894.09 9340.71,3893.87C9340.73,3893.85 9340.75,3893.84 9340.77,3893.83L9346.35,3890.16C9346.56,3890.02 9346.78,3889.91 9347.02,3889.84C9348.35,3889.43 9349.78,3890.12 9350.22,3891.37C9350.65,3892.61 9349.92,3893.95 9348.59,3894.36C9348.35,3894.43 9348.1,3894.47 9347.85,3894.47L9341.03,3894.58C9341.01,3894.58 9340.98,3894.58 9340.95,3894.58C9340.47,3894.63 9340.12,3895.04 9340.17,3895.49C9340.22,3895.94 9340.66,3896.27 9341.14,3896.23C9341.17,3896.22 9341.19,3896.22 9341.22,3896.22L9347.91,3894.99C9348.15,3894.94 9348.41,3894.93 9348.66,3894.96C9350.05,3895.09 9351.06,3896.26 9350.91,3897.57C9350.77,3898.87 9349.52,3899.82 9348.13,3899.68C9347.88,3899.66 9347.63,3899.6 9347.4,3899.51L9341.13,3897C9341.1,3896.99 9341.08,3896.98 9341.06,3896.98C9340.59,3896.84 9340.09,3897.07 9339.94,3897.51C9339.79,3897.94 9340.05,3898.41 9340.51,3898.55C9340.53,3898.56 9340.56,3898.56 9340.59,3898.57L9347.23,3900C9347.48,3900.05 9347.71,3900.14 9347.93,3900.26C9349.14,3900.91 9349.56,3902.37 9348.86,3903.5C9348.16,3904.64 9346.61,3905.03 9345.4,3904.37C9345.18,3904.25 9344.98,3904.1 9344.81,3903.93L9340.16,3899.25C9340.15,3899.23 9340.13,3899.22 9340.11,3899.2C9339.75,3898.89 9339.19,3898.92 9338.86,3899.26C9338.54,3899.6 9338.57,3900.12 9338.93,3900.43C9338.95,3900.44 9338.97,3900.46 9338.99,3900.47L9344.44,3904.32C9344.64,3904.46 9344.82,3904.63 9344.97,3904.82C9345.79,3905.88 9345.54,3907.37 9344.41,3908.14C9343.27,3908.91 9341.69,3908.67 9340.87,3907.61C9340.72,3907.42 9340.6,3907.21 9340.52,3906.98L9338.31,3900.94C9338.3,3900.92 9338.29,3900.89 9338.28,3900.87C9338.08,3900.45 9337.56,3900.27 9337.11,3900.45C9336.67,3900.64 9336.47,3901.13 9336.67,3901.54C9336.68,3901.57 9336.69,3901.59 9336.7,3901.61L9340.01,3907.2C9340.14,3907.4 9340.23,3907.62 9340.28,3907.86C9340.57,3909.14 9339.69,3910.4 9338.33,3910.67C9336.96,3910.95 9335.61,3910.12 9335.32,3908.84C9335.27,3908.61 9335.25,3908.37 9335.28,3908.14L9335.88,3901.77C9335.88,3901.75 9335.88,3901.72 9335.88,3901.7C9335.88,3901.24 9335.49,3900.87 9335,3900.87C9334.51,3900.87 9334.12,3901.24 9334.12,3901.7C9334.12,3901.72 9334.12,3901.75 9334.12,3901.77L9334.72,3908.14C9334.75,3908.37 9334.73,3908.61 9334.68,3908.84C9334.39,3910.12 9333.04,3910.95 9331.67,3910.67C9330.31,3910.4 9329.43,3909.14 9329.72,3907.86C9329.77,3907.62 9329.86,3907.4 9329.99,3907.2L9333.3,3901.61C9333.31,3901.59 9333.32,3901.57 9333.33,3901.54C9333.53,3901.13 9333.33,3900.64 9332.89,3900.45C9332.44,3900.27 9331.92,3900.45 9331.72,3900.87C9331.71,3900.89 9331.7,3900.92 9331.69,3900.94L9329.48,3906.98C9329.4,3907.21 9329.28,3907.42 9329.13,3907.61C9328.31,3908.67 9326.73,3908.91 9325.59,3908.14C9324.46,3907.37 9324.21,3905.88 9325.03,3904.82C9325.18,3904.63 9325.36,3904.46 9325.56,3904.32L9331.01,3900.47C9331.03,3900.46 9331.05,3900.44 9331.07,3900.43C9331.43,3900.12 9331.46,3899.6 9331.14,3899.26C9330.81,3898.92 9330.25,3898.89 9329.89,3899.2C9329.87,3899.22 9329.85,3899.23 9329.84,3899.25L9325.19,3903.93C9325.02,3904.1 9324.82,3904.25 9324.6,3904.37C9323.39,3905.03 9321.84,3904.64 9321.14,3903.5C9320.44,3902.37 9320.86,3900.91 9322.07,3900.26C9322.29,3900.14 9322.52,3900.05 9322.77,3900L9329.42,3898.57C9329.44,3898.56 9329.47,3898.56 9329.49,3898.55C9329.95,3898.41 9330.21,3897.94 9330.06,3897.51C9329.91,3897.07 9329.41,3896.84 9328.94,3896.98C9328.92,3896.98 9328.9,3896.99 9328.87,3897L9322.6,3899.51C9322.37,3899.6 9322.12,3899.66 9321.87,3899.68C9320.48,3899.82 9319.23,3898.87 9319.09,3897.57C9318.94,3896.26 9319.95,3895.09 9321.34,3894.96C9321.59,3894.93 9321.85,3894.94 9322.09,3894.99L9328.78,3896.22C9328.81,3896.22 9328.84,3896.22 9328.86,3896.23C9329.34,3896.27 9329.78,3895.94 9329.83,3895.49C9329.88,3895.04 9329.53,3894.63 9329.05,3894.58C9329.02,3894.58 9328.99,3894.58 9328.97,3894.58L9322.15,3894.47C9321.9,3894.47 9321.65,3894.43 9321.41,3894.36C9320.08,3893.95 9319.35,3892.61 9319.78,3891.37C9320.22,3890.12 9321.65,3889.43 9322.98,3889.84C9323.22,3889.91 9323.44,3890.02 9323.65,3890.16L9329.23,3893.83C9329.25,3893.84 9329.27,3893.85 9329.29,3893.87C9329.72,3894.09 9330.26,3893.96 9330.5,3893.56C9330.74,3893.17 9330.6,3892.66 9330.18,3892.43C9330.15,3892.42 9330.13,3892.41 9330.11,3892.4L9323.92,3889.71C9323.7,3889.61 9323.48,3889.48 9323.3,3889.32C9322.26,3888.44 9322.17,3886.94 9323.11,3885.96C9324.05,3884.99 9325.65,3884.91 9326.69,3885.79C9326.88,3885.95 9327.04,3886.13 9327.17,3886.33L9330.67,3891.81C9330.68,3891.83 9330.7,3891.86 9330.71,3891.87C9331,3892.24 9331.55,3892.33 9331.94,3892.06C9332.34,3891.79 9332.43,3891.27 9332.14,3890.9C9332.12,3890.88 9332.11,3890.86 9332.09,3890.85L9327.61,3886.03C9327.45,3885.85 9327.31,3885.65 9327.21,3885.43C9326.64,3884.24 9327.22,3882.83 9328.49,3882.3C9329.77,3881.76 9331.27,3882.3 9331.84,3883.5C9331.94,3883.72 9332.01,3883.95 9332.04,3884.18L9332.86,3890.52C9332.86,3890.55 9332.87,3890.57 9332.87,3890.6C9332.98,3891.04 9333.44,3891.33 9333.92,3891.23C9334.4,3891.14 9334.7,3890.7 9334.6,3890.25C9334.59,3890.23 9334.59,3890.2 9334.58,3890.18L9332.58,3884.07Z" style="fill:rgb(37,16,5);"/>
                    </g>
                    <g transform="matrix(0.449148,0,0,0.201314,4316.05,1789.52)">
                        <circle cx="9520.5" cy="3964.5" r="5.5" style="fill:rgb(112,97,59);"/>
                        <path d="M9520.5,3958.02C9516.93,3958.02 9514.02,3960.93 9514.02,3964.5C9514.02,3968.07 9516.93,3970.98 9520.5,3970.98C9524.07,3970.98 9526.98,3968.07 9526.98,3964.5C9526.98,3960.93 9524.07,3958.02 9520.5,3958.02ZM9520.5,3959C9523.54,3959 9526,3961.46 9526,3964.5C9526,3967.54 9523.54,3970 9520.5,3970C9517.46,3970 9515,3967.54 9515,3964.5C9515,3961.46 9517.46,3959 9520.5,3959Z" style="fill:rgb(37,16,5);"/>
                    </g>
                </g>
                <g transform="matrix(0.882353,0,0,0.882353,1223.05,597.815)">
                    <g transform="matrix(0.651689,0,0,0.292096,2432.27,1421.9)">
                        <path d="M9490.5,3669L9491.56,3672.25L9493.59,3671.25L9493.26,3673.49L9496.68,3673.49L9493.92,3675.5L9495.5,3677.12L9493.26,3677.51L9494.32,3680.76L9491.56,3678.75L9490.5,3680.76L9489.44,3678.75L9486.68,3680.76L9487.74,3677.51L9485.5,3677.12L9487.08,3675.5L9484.32,3673.49L9487.74,3673.49L9487.41,3671.25L9489.44,3672.25L9490.5,3669Z" style="fill:rgb(208,172,69);"/>
                        <path d="M9491.27,3668.75C9491.16,3668.42 9490.85,3668.19 9490.5,3668.19C9490.15,3668.19 9489.84,3668.42 9489.73,3668.75L9488.96,3671.11C9488.96,3671.11 9487.77,3670.52 9487.77,3670.52C9487.5,3670.39 9487.18,3670.41 9486.93,3670.59C9486.69,3670.77 9486.57,3671.07 9486.61,3671.36L9486.8,3672.68C9486.8,3672.68 9484.32,3672.68 9484.32,3672.68C9483.97,3672.68 9483.66,3672.91 9483.55,3673.24C9483.44,3673.58 9483.56,3673.94 9483.84,3674.15L9485.85,3675.61C9485.85,3675.61 9484.92,3676.56 9484.92,3676.56C9484.71,3676.78 9484.64,3677.09 9484.73,3677.38C9484.82,3677.66 9485.07,3677.87 9485.36,3677.92L9486.68,3678.15C9486.68,3678.15 9485.91,3680.51 9485.91,3680.51C9485.8,3680.84 9485.92,3681.21 9486.2,3681.41C9486.49,3681.62 9486.87,3681.62 9487.16,3681.41L9489.16,3679.95C9489.16,3679.95 9489.78,3681.14 9489.78,3681.14C9489.92,3681.4 9490.2,3681.57 9490.5,3681.57C9490.8,3681.57 9491.08,3681.4 9491.22,3681.14L9491.84,3679.95C9491.84,3679.95 9493.84,3681.41 9493.84,3681.41C9494.13,3681.62 9494.51,3681.62 9494.8,3681.41C9495.08,3681.21 9495.2,3680.84 9495.09,3680.51L9494.32,3678.15C9494.32,3678.15 9495.64,3677.92 9495.64,3677.92C9495.93,3677.87 9496.18,3677.66 9496.27,3677.38C9496.36,3677.09 9496.29,3676.78 9496.08,3676.56L9495.15,3675.61C9495.15,3675.61 9497.16,3674.15 9497.16,3674.15C9497.44,3673.94 9497.56,3673.58 9497.45,3673.24C9497.34,3672.91 9497.03,3672.68 9496.68,3672.68L9494.2,3672.68C9494.2,3672.68 9494.39,3671.36 9494.39,3671.36C9494.43,3671.07 9494.31,3670.77 9494.07,3670.59C9493.82,3670.41 9493.5,3670.39 9493.23,3670.52L9492.04,3671.11C9492.04,3671.11 9491.27,3668.75 9491.27,3668.75ZM9490.5,3669L9491.56,3672.25L9493.59,3671.25L9493.26,3673.49L9496.68,3673.49L9493.92,3675.5L9495.5,3677.12L9493.26,3677.51L9494.32,3680.76L9491.56,3678.75L9490.5,3680.76L9489.44,3678.75L9486.68,3680.76L9487.74,3677.51L9485.5,3677.12L9487.08,3675.5L9484.32,3673.49L9487.74,3673.49L9487.41,3671.25L9489.44,3672.25L9490.5,3669Z" style="fill:rgb(37,16,5);"/>
                    </g>
                    <g transform="matrix(0.651689,0,0,0.292096,2432.27,1421.9)">
                        <path d="M9490.5,3669L9490.85,3674.43L9491.58,3672.22L9493.59,3671.25L9491.41,3674.84L9493.3,3673.53L9496.68,3673.49L9491.63,3675.5L9494,3675.55L9495.5,3677.12L9491.41,3676.16L9494.32,3680.76L9490.85,3676.57L9490.5,3680.76L9490.15,3676.57L9486.68,3680.76L9489.59,3676.16L9485.5,3677.12L9487.09,3675.55L9489.37,3675.5L9484.32,3673.49L9487.74,3673.57L9489.59,3674.84L9487.41,3671.25L9489.37,3672.06L9490.15,3674.43L9490.5,3669Z" style="fill:rgb(255,222,127);"/>
                    </g>
                </g>
            </g>
        </g>
    </g>
</svg>
