<?xml version="1.0" encoding="UTF-8" standalone="no"?>
<!DOCTYPE svg PUBLIC "-//W3C//DTD SVG 1.1//EN" "http://www.w3.org/Graphics/SVG/1.1/DTD/svg11.dtd">
<svg width="100%" height="100%" viewBox="0 0 24 24" version="1.1" xmlns="http://www.w3.org/2000/svg" xmlns:xlink="http://www.w3.org/1999/xlink" xml:space="preserve" xmlns:serif="http://www.serif.com/" style="fill-rule:evenodd;clip-rule:evenodd;stroke-linejoin:round;stroke-miterlimit:2;">
    <g transform="matrix(1,0,0,1,-9236,-3449)">
        <g transform="matrix(0.923654,0,0,1.13187,477.217,-202.505)">
            <g id="military_rank_19_lb">
                <g transform="matrix(0.324797,0,0,0.265049,6625.51,2408.15)">
                    <rect x="8797" y="3086" width="80" height="80" style="fill:none;"/>
                </g>
                <g transform="matrix(2.17248,0,0,2.02589,-9408.04,-2465.01)">
                    <g transform="matrix(0.164841,0.0544499,-0.0876866,0.203286,7444.72,1624.18)">
                        <path d="M9374,3327C9376.43,3328.83 9378,3331.73 9378,3335C9378,3338.27 9376.43,3341.17 9374,3343C9371.57,3341.17 9370,3338.27 9370,3335C9370,3331.73 9371.57,3328.83 9374,3327Z" style="fill:rgb(248,209,97);"/>
                        <path d="M9375.92,3325.72C9375.42,3325.34 9374.73,3325.13 9374,3325.13C9373.27,3325.13 9372.58,3325.34 9372.08,3325.72C9369.26,3327.84 9367.36,3331.2 9367.36,3335C9367.36,3338.8 9369.26,3342.16 9372.08,3344.28C9372.58,3344.66 9373.27,3344.87 9374,3344.87C9374.73,3344.87 9375.42,3344.66 9375.92,3344.28C9378.74,3342.16 9380.64,3338.8 9380.64,3335C9380.64,3331.2 9378.74,3327.84 9375.92,3325.72ZM9374,3327C9376.43,3328.83 9378,3331.73 9378,3335C9378,3338.27 9376.43,3341.17 9374,3343C9371.57,3341.17 9370,3338.27 9370,3335C9370,3331.73 9371.57,3328.83 9374,3327Z" style="fill:rgb(37,16,5);"/>
                    </g>
                    <g transform="matrix(0.162491,-0.0596145,0.091426,0.190833,6869.08,2736.6)">
                        <path d="M9374,3327C9376.43,3328.83 9378,3331.73 9378,3335C9378,3338.27 9376.43,3341.17 9374,3343C9371.57,3341.17 9370,3338.27 9370,3335C9370,3331.73 9371.57,3328.83 9374,3327Z" style="fill:rgb(248,209,97);"/>
                        <path d="M9375.88,3325.62C9375.38,3325.24 9374.7,3325.03 9374,3325.03C9373.3,3325.03 9372.62,3325.24 9372.12,3325.62C9369.27,3327.76 9367.36,3331.16 9367.36,3335C9367.36,3338.84 9369.27,3342.24 9372.12,3344.38C9372.62,3344.76 9373.3,3344.97 9374,3344.97C9374.7,3344.97 9375.38,3344.76 9375.88,3344.38C9378.73,3342.24 9380.64,3338.84 9380.64,3335C9380.64,3331.16 9378.73,3327.76 9375.88,3325.62ZM9374,3327C9376.43,3328.83 9378,3331.73 9378,3335C9378,3338.27 9376.43,3341.17 9374,3343C9371.57,3341.17 9370,3338.27 9370,3335C9370,3331.73 9371.57,3328.83 9374,3327Z" style="fill:rgb(37,16,5);"/>
                    </g>
                    <g transform="matrix(0.129267,-0.104771,0.137245,0.129673,7027.97,3365.55)">
                        <path d="M9374,3327C9376.43,3328.83 9378,3331.73 9378,3335C9378,3338.27 9376.43,3341.17 9374,3343C9371.57,3341.17 9370,3338.27 9370,3335C9370,3331.73 9371.57,3328.83 9374,3327Z" style="fill:rgb(248,209,97);"/>
                        <path d="M9375.72,3325.26C9374.73,3324.51 9373.27,3324.51 9372.28,3325.26C9369.32,3327.48 9367.36,3331.01 9367.36,3335C9367.36,3338.99 9369.32,3342.52 9372.28,3344.74C9373.27,3345.49 9374.73,3345.49 9375.72,3344.74C9378.68,3342.52 9380.64,3338.99 9380.64,3335C9380.64,3331.01 9378.68,3327.48 9375.72,3325.26ZM9374,3327C9376.43,3328.83 9378,3331.73 9378,3335C9378,3338.27 9376.43,3341.17 9374,3343C9371.57,3341.17 9370,3338.27 9370,3335C9370,3331.73 9371.57,3328.83 9374,3327Z" style="fill:rgb(37,16,5);"/>
                    </g>
                    <g transform="matrix(0.0848842,-0.135113,0.176991,0.0851508,7312.77,3799.95)">
                        <path d="M9374,3327C9376.43,3328.83 9378,3331.73 9378,3335C9378,3338.27 9376.43,3341.17 9374,3343C9371.57,3341.17 9370,3338.27 9370,3335C9370,3331.73 9371.57,3328.83 9374,3327Z" style="fill:rgb(248,209,97);"/>
                        <path d="M9375.72,3325.26C9374.73,3324.51 9373.27,3324.51 9372.28,3325.26C9369.32,3327.48 9367.36,3331.01 9367.36,3335C9367.36,3338.99 9369.32,3342.52 9372.28,3344.74C9373.27,3345.49 9374.73,3345.49 9375.72,3344.74C9378.68,3342.52 9380.64,3338.99 9380.64,3335C9380.64,3331.01 9378.68,3327.48 9375.72,3325.26ZM9374,3327C9376.43,3328.83 9378,3331.73 9378,3335C9378,3338.27 9376.43,3341.17 9374,3343C9371.57,3341.17 9370,3338.27 9370,3335C9370,3331.73 9371.57,3328.83 9374,3327Z" style="fill:rgb(37,16,5);"/>
                    </g>
                    <g transform="matrix(-0.162935,0.0586784,0.094991,0.201988,9916.01,1588.86)">
                        <path d="M9374,3327C9376.43,3328.83 9378,3331.73 9378,3335C9378,3338.27 9376.43,3341.17 9374,3343C9371.57,3341.17 9370,3338.27 9370,3335C9370,3331.73 9371.57,3328.83 9374,3327Z" style="fill:rgb(248,209,97);"/>
                        <path d="M9372.08,3325.73C9372.58,3325.35 9373.27,3325.14 9374,3325.14C9374.73,3325.14 9375.43,3325.35 9375.92,3325.73C9378.75,3327.85 9380.64,3331.2 9380.64,3335C9380.64,3338.8 9378.75,3342.16 9375.92,3344.27C9375.43,3344.65 9374.73,3344.86 9374,3344.86C9373.27,3344.86 9372.58,3344.65 9372.08,3344.27C9369.26,3342.16 9367.36,3338.8 9367.36,3335C9367.36,3331.2 9369.26,3327.85 9372.08,3325.73ZM9374,3327C9376.43,3328.83 9378,3331.73 9378,3335C9378,3338.27 9376.43,3341.17 9374,3343C9371.57,3341.17 9370,3338.27 9370,3335C9370,3331.73 9371.57,3328.83 9374,3327Z" style="fill:rgb(37,16,5);"/>
                    </g>
                    <g transform="matrix(-0.162491,-0.0596145,-0.091426,0.190833,10533.9,2736.6)">
                        <path d="M9374,3327C9376.43,3328.83 9378,3331.73 9378,3335C9378,3338.27 9376.43,3341.17 9374,3343C9371.57,3341.17 9370,3338.27 9370,3335C9370,3331.73 9371.57,3328.83 9374,3327Z" style="fill:rgb(248,209,97);"/>
                        <path d="M9372.12,3325.62C9372.62,3325.24 9373.3,3325.03 9374,3325.03C9374.7,3325.03 9375.38,3325.24 9375.88,3325.62C9378.73,3327.76 9380.64,3331.16 9380.64,3335C9380.64,3338.84 9378.73,3342.24 9375.88,3344.38C9375.38,3344.76 9374.7,3344.97 9374,3344.97C9373.3,3344.97 9372.62,3344.76 9372.12,3344.38C9369.27,3342.24 9367.36,3338.84 9367.36,3335C9367.36,3331.16 9369.27,3327.76 9372.12,3325.62ZM9374,3327C9376.43,3328.83 9378,3331.73 9378,3335C9378,3338.27 9376.43,3341.17 9374,3343C9371.57,3341.17 9370,3338.27 9370,3335C9370,3331.73 9371.57,3328.83 9374,3327Z" style="fill:rgb(37,16,5);"/>
                    </g>
                    <g transform="matrix(-0.129267,-0.104771,-0.137245,0.129673,10375,3365.55)">
                        <path d="M9374,3327C9376.43,3328.83 9378,3331.73 9378,3335C9378,3338.27 9376.43,3341.17 9374,3343C9371.57,3341.17 9370,3338.27 9370,3335C9370,3331.73 9371.57,3328.83 9374,3327Z" style="fill:rgb(248,209,97);"/>
                        <path d="M9372.28,3325.26C9373.27,3324.51 9374.73,3324.51 9375.72,3325.26C9378.68,3327.48 9380.64,3331.01 9380.64,3335C9380.64,3338.99 9378.68,3342.52 9375.72,3344.74C9374.73,3345.49 9373.27,3345.49 9372.28,3344.74C9369.32,3342.52 9367.36,3338.99 9367.36,3335C9367.36,3331.01 9369.32,3327.48 9372.28,3325.26ZM9374,3327C9376.43,3328.83 9378,3331.73 9378,3335C9378,3338.27 9376.43,3341.17 9374,3343C9371.57,3341.17 9370,3338.27 9370,3335C9370,3331.73 9371.57,3328.83 9374,3327Z" style="fill:rgb(37,16,5);"/>
                    </g>
                    <g transform="matrix(-0.0848842,-0.135113,-0.176991,0.0851508,10090.2,3799.95)">
                        <path d="M9374,3327C9376.43,3328.83 9378,3331.73 9378,3335C9378,3338.27 9376.43,3341.17 9374,3343C9371.57,3341.17 9370,3338.27 9370,3335C9370,3331.73 9371.57,3328.83 9374,3327Z" style="fill:rgb(248,209,97);"/>
                        <path d="M9372.28,3325.26C9373.27,3324.51 9374.73,3324.51 9375.72,3325.26C9378.68,3327.48 9380.64,3331.01 9380.64,3335C9380.64,3338.99 9378.68,3342.52 9375.72,3344.74C9374.73,3345.49 9373.27,3345.49 9372.28,3344.74C9369.32,3342.52 9367.36,3338.99 9367.36,3335C9367.36,3331.01 9369.32,3327.48 9372.28,3325.26ZM9374,3327C9376.43,3328.83 9378,3331.73 9378,3335C9378,3338.27 9376.43,3341.17 9374,3343C9371.57,3341.17 9370,3338.27 9370,3335C9370,3331.73 9371.57,3328.83 9374,3327Z" style="fill:rgb(37,16,5);"/>
                    </g>
                    <g transform="matrix(0.415292,0,0,0.327077,4747.98,1636.39)">
                        <path d="M9523,3612C9523,3611.45 9522.6,3611 9522.1,3611L9517.9,3611C9517.4,3611 9517,3611.45 9517,3612L9517,3614C9517,3614.55 9517.4,3615 9517.9,3615L9522.1,3615C9522.6,3615 9523,3614.55 9523,3614L9523,3612Z" style="fill:rgb(248,209,97);"/>
                        <path d="M9524.12,3612C9524.12,3610.76 9523.22,3609.76 9522.1,3609.76L9517.9,3609.76C9516.78,3609.76 9515.88,3610.76 9515.88,3612L9515.88,3614C9515.88,3615.24 9516.78,3616.24 9517.9,3616.24C9517.9,3616.24 9522.1,3616.24 9522.1,3616.24C9523.22,3616.24 9524.12,3615.24 9524.12,3614C9524.12,3614 9524.12,3612 9524.12,3612ZM9523,3612C9523,3611.45 9522.6,3611 9522.1,3611L9517.9,3611C9517.4,3611 9517,3611.45 9517,3612L9517,3614C9517,3614.55 9517.4,3615 9517.9,3615L9522.1,3615C9522.6,3615 9523,3614.55 9523,3614L9523,3612Z" style="fill:rgb(37,16,5);"/>
                    </g>
                </g>
                <g transform="matrix(1.91689,0,0,3.49001,-7022.29,-5473.95)">
                    <g transform="matrix(0.651689,0,0,0.292096,2432.27,1421.9)">
                        <path d="M9490.5,3669L9491.56,3672.25L9493.59,3671.25L9493.26,3673.49L9496.68,3673.49L9493.92,3675.5L9495.5,3677.12L9493.26,3677.51L9494.32,3680.76L9491.56,3678.75L9490.5,3680.76L9489.44,3678.75L9486.68,3680.76L9487.74,3677.51L9485.5,3677.12L9487.08,3675.5L9484.32,3673.49L9487.74,3673.49L9487.41,3671.25L9489.44,3672.25L9490.5,3669Z" style="fill:rgb(208,172,69);"/>
                        <path d="M9491.27,3668.75C9491.16,3668.42 9490.85,3668.19 9490.5,3668.19C9490.15,3668.19 9489.84,3668.42 9489.73,3668.75L9488.96,3671.11C9488.96,3671.11 9487.77,3670.52 9487.77,3670.52C9487.5,3670.39 9487.18,3670.41 9486.93,3670.59C9486.69,3670.77 9486.57,3671.07 9486.61,3671.36L9486.8,3672.68C9486.8,3672.68 9484.32,3672.68 9484.32,3672.68C9483.97,3672.68 9483.66,3672.91 9483.55,3673.24C9483.44,3673.58 9483.56,3673.94 9483.84,3674.15L9485.85,3675.61C9485.85,3675.61 9484.92,3676.56 9484.92,3676.56C9484.71,3676.78 9484.64,3677.09 9484.73,3677.38C9484.82,3677.66 9485.07,3677.87 9485.36,3677.92L9486.68,3678.15C9486.68,3678.15 9485.91,3680.51 9485.91,3680.51C9485.8,3680.84 9485.92,3681.21 9486.2,3681.41C9486.49,3681.62 9486.87,3681.62 9487.16,3681.41L9489.16,3679.95C9489.16,3679.95 9489.78,3681.14 9489.78,3681.14C9489.92,3681.4 9490.2,3681.57 9490.5,3681.57C9490.8,3681.57 9491.08,3681.4 9491.22,3681.14L9491.84,3679.95C9491.84,3679.95 9493.84,3681.41 9493.84,3681.41C9494.13,3681.62 9494.51,3681.62 9494.8,3681.41C9495.08,3681.21 9495.2,3680.84 9495.09,3680.51L9494.32,3678.15C9494.32,3678.15 9495.64,3677.92 9495.64,3677.92C9495.93,3677.87 9496.18,3677.66 9496.27,3677.38C9496.36,3677.09 9496.29,3676.78 9496.08,3676.56L9495.15,3675.61C9495.15,3675.61 9497.16,3674.15 9497.16,3674.15C9497.44,3673.94 9497.56,3673.58 9497.45,3673.24C9497.34,3672.91 9497.03,3672.68 9496.68,3672.68L9494.2,3672.68C9494.2,3672.68 9494.39,3671.36 9494.39,3671.36C9494.43,3671.07 9494.31,3670.77 9494.07,3670.59C9493.82,3670.41 9493.5,3670.39 9493.23,3670.52L9492.04,3671.11C9492.04,3671.11 9491.27,3668.75 9491.27,3668.75ZM9490.5,3669L9491.56,3672.25L9493.59,3671.25L9493.26,3673.49L9496.68,3673.49L9493.92,3675.5L9495.5,3677.12L9493.26,3677.51L9494.32,3680.76L9491.56,3678.75L9490.5,3680.76L9489.44,3678.75L9486.68,3680.76L9487.74,3677.51L9485.5,3677.12L9487.08,3675.5L9484.32,3673.49L9487.74,3673.49L9487.41,3671.25L9489.44,3672.25L9490.5,3669Z" style="fill:rgb(37,16,5);"/>
                    </g>
                    <g transform="matrix(0.651689,0,0,0.292096,2432.27,1421.9)">
                        <path d="M9490.5,3669L9490.85,3674.43L9491.58,3672.22L9493.59,3671.25L9491.41,3674.84L9493.3,3673.53L9496.68,3673.49L9491.63,3675.5L9494,3675.55L9495.5,3677.12L9491.41,3676.16L9494.32,3680.76L9490.85,3676.57L9490.5,3680.76L9490.15,3676.57L9486.68,3680.76L9489.59,3676.16L9485.5,3677.12L9487.09,3675.55L9489.37,3675.5L9484.32,3673.49L9487.74,3673.57L9489.59,3674.84L9487.41,3671.25L9489.37,3672.06L9490.15,3674.43L9490.5,3669Z" style="fill:rgb(255,222,127);"/>
                    </g>
                </g>
            </g>
        </g>
    </g>
</svg>
