<?xml version="1.0" encoding="UTF-8" standalone="no"?>
<!DOCTYPE svg PUBLIC "-//W3C//DTD SVG 1.1//EN" "http://www.w3.org/Graphics/SVG/1.1/DTD/svg11.dtd">
<svg width="100%" height="100%" viewBox="0 0 24 24" version="1.1" xmlns="http://www.w3.org/2000/svg" xmlns:xlink="http://www.w3.org/1999/xlink" xml:space="preserve" xmlns:serif="http://www.serif.com/" style="fill-rule:evenodd;clip-rule:evenodd;stroke-linejoin:round;stroke-miterlimit:2;">
    <g transform="matrix(1,0,0,1,-8743,-3463)">
        <g transform="matrix(0.923654,0,0,1.13187,477.217,-202.505)">
            <g id="military_rank_14_lb" transform="matrix(2.17248,0,0,3.95534,-9679.42,-7529.28)">
                <g transform="matrix(0.149505,0,0,0.0670103,7259.53,2515.54)">
                    <rect x="8797" y="3086" width="80" height="80" style="fill:none;"/>
                </g>
                <g transform="matrix(1.28924,0,0,1.28924,-2481.88,-786.598)">
                    <g transform="matrix(0.184243,0,0,0.0825803,6805.72,2400.29)">
                        <path d="M9626.82,3909.45L9627.4,3909.21L9627.71,3909.4L9627.85,3909.82L9627.74,3910.09L9629.1,3911.06C9629.24,3911.08 9629.49,3911.14 9629.88,3911.36C9629.97,3911.41 9630.38,3911.68 9631.01,3912.11C9631.01,3912.11 9634.68,3900.74 9634.68,3900.74C9634.73,3900.61 9634.85,3900.51 9635,3900.51C9635.15,3900.51 9635.27,3900.61 9635.32,3900.74L9638.99,3912.11L9638.99,3912.11C9639.62,3911.68 9640.03,3911.41 9640.12,3911.36C9640.51,3911.14 9642.26,3910.09 9642.26,3910.09L9642.15,3909.82L9642.28,3909.41L9642.6,3909.2L9643.05,3909.28L9643.37,3909.72L9651.22,3904.96L9651.9,3905.05L9651.73,3905.75C9651.73,3905.75 9641.21,3912.85 9640.73,3913.18L9652.41,3913.16C9652.55,3913.16 9652.68,3913.25 9652.72,3913.39C9652.77,3913.53 9652.72,3913.68 9652.6,3913.76L9643.38,3920.44C9644.2,3920.97 9645.13,3921.39 9645.55,3921.63C9646.31,3922.01 9646.03,3922.86 9646.03,3922.86C9646.25,3923.21 9646.62,3923.81 9646.92,3924.25C9647.05,3924.43 9647.2,3924.63 9647.25,3924.7C9647.29,3924.69 9647.34,3924.68 9647.38,3924.68C9647.51,3924.67 9647.71,3924.69 9648.09,3924.88C9648.69,3925.17 9651.4,3927.02 9652.39,3928.09C9652.59,3928.31 9652.73,3928.51 9652.79,3928.67C9652.84,3928.79 9652.84,3928.9 9652.82,3928.99C9652.82,3928.99 9652.82,3928.99 9652.82,3928.99C9652.79,3929.14 9652.71,3929.3 9652.55,3929.48C9652.38,3929.67 9652.12,3929.91 9651.77,3930.27C9651.45,3930.6 9651.32,3930.89 9651.18,3931.1C9651.04,3931.3 9650.88,3931.45 9650.64,3931.53C9650.55,3931.56 9650.44,3931.57 9650.3,3931.51C9650.18,3931.46 9650.01,3931.34 9649.81,3931.15C9648.89,3930.29 9647.08,3927.87 9646.53,3927.2C9645.91,3926.44 9644.71,3924.91 9644.52,3924.67C9644.4,3924.8 9644.19,3924.96 9643.91,3924.95C9643.91,3924.95 9643.91,3924.95 9643.91,3924.95C9643.82,3924.94 9643.64,3924.88 9643.42,3924.72C9643.29,3924.63 9643.14,3924.51 9642.97,3924.36L9646.07,3933.86C9646.12,3933.99 9646.07,3934.14 9645.95,3934.23C9645.84,3934.31 9645.68,3934.31 9645.56,3934.23C9645.56,3934.23 9635,3926.52 9635,3926.52L9624.44,3934.23C9624.32,3934.31 9624.16,3934.31 9624.05,3934.23C9623.93,3934.14 9623.88,3933.99 9623.93,3933.86C9623.93,3933.86 9627.03,3924.36 9627.03,3924.36C9626.86,3924.51 9626.71,3924.63 9626.58,3924.72C9626.36,3924.88 9626.18,3924.94 9626.09,3924.95C9626.09,3924.95 9626.09,3924.95 9626.09,3924.95C9625.81,3924.96 9625.6,3924.8 9625.48,3924.67C9625.29,3924.91 9624.09,3926.44 9623.47,3927.2C9622.92,3927.87 9621.11,3930.29 9620.19,3931.15C9619.99,3931.34 9619.82,3931.46 9619.7,3931.51C9619.56,3931.57 9619.45,3931.56 9619.36,3931.53C9619.12,3931.45 9618.96,3931.3 9618.82,3931.1C9618.68,3930.89 9618.55,3930.6 9618.23,3930.27C9617.88,3929.91 9617.62,3929.67 9617.45,3929.48C9617.29,3929.3 9617.21,3929.14 9617.18,3928.99C9617.16,3928.9 9617.16,3928.79 9617.21,3928.67C9617.27,3928.51 9617.41,3928.31 9617.61,3928.09C9618.6,3927.02 9621.31,3925.17 9621.91,3924.88C9622.29,3924.69 9622.49,3924.67 9622.62,3924.68C9622.66,3924.68 9622.71,3924.69 9622.75,3924.7C9622.8,3924.63 9622.95,3924.43 9623.08,3924.25C9623.38,3923.81 9623.76,3923.21 9623.97,3922.86L9623.92,3922.8C9623.53,3922.15 9624.34,3921.69 9624.45,3921.63C9624.87,3921.39 9625.8,3920.97 9626.62,3920.44L9617.4,3913.76C9617.28,3913.68 9617.23,3913.53 9617.28,3913.39C9617.32,3913.25 9617.45,3913.16 9617.59,3913.16C9617.59,3913.16 9629.27,3913.18 9629.27,3913.18L9628.23,3912.45C9628.23,3912.45 9618.17,3905.79 9618.13,3905.7L9618,3905.05C9618,3905.05 9618.71,3904.88 9618.72,3904.88L9626.56,3909.9L9626.82,3909.45ZM9635.02,3909.73L9637.03,3915.98C9637.07,3916.09 9637.17,3916.16 9637.28,3916.16L9643.84,3916.15C9643.84,3916.15 9638.53,3919.99 9638.53,3919.99C9638.44,3920.06 9638.4,3920.18 9638.43,3920.29L9640.47,3926.52C9640.47,3926.52 9635.17,3922.66 9635.17,3922.66C9635.08,3922.59 9634.96,3922.59 9634.86,3922.66L9629.56,3926.52C9629.56,3926.52 9631.6,3920.29 9631.6,3920.29C9631.64,3920.18 9631.6,3920.06 9631.51,3919.99L9626.19,3916.15C9626.19,3916.15 9632.75,3916.16 9632.75,3916.16C9632.87,3916.16 9632.97,3916.09 9633,3915.98L9635.02,3909.73Z" style="fill:rgb(208,172,69);"/>
                        <path d="M9629.89,3909.22L9632.82,3900.14C9633.12,3899.2 9634.01,3898.55 9635,3898.55C9635.99,3898.55 9636.88,3899.2 9637.18,3900.14L9640.08,3909.12L9640.38,3908.94L9640.41,3908.83L9640.45,3908.89L9641.25,3908.41L9641.48,3909.23C9641.5,3909.13 9641.54,3909.03 9641.58,3908.93L9641.24,3907.75C9641.24,3907.75 9641.55,3907.55 9641.55,3907.55L9641.77,3908.31C9641.76,3907.61 9642.05,3907.11 9642.97,3907.28L9643.47,3907.37L9650.21,3903.29C9649.59,3903.66 9649.23,3904.35 9649.27,3905.05L9650.33,3904.33C9650.24,3903.53 9650.47,3902.89 9651.5,3903.02C9651.6,3903.03 9652.05,3903.1 9652.14,3903.11C9654.16,3903.37 9652.76,3905.75 9652.15,3906.66L9652.24,3906.64L9652.11,3906.71C9651.99,3906.9 9651.9,3907.01 9651.9,3907.01C9651.9,3907.01 9653.8,3905.53 9653.8,3905.53C9653.8,3905.53 9653.66,3906.1 9653.64,3906.19C9653.49,3906.83 9653.13,3907.2 9652.79,3907.39C9652.44,3907.63 9649.76,3909.44 9647.14,3911.21C9647.14,3911.21 9652.4,3911.2 9652.4,3911.2C9653.4,3911.2 9654.28,3911.84 9654.59,3912.79C9654.89,3913.73 9654.55,3914.77 9653.75,3915.35L9647,3920.24C9647.78,3920.87 9648,3921.7 9648.03,3922.36C9648.13,3922.53 9648.25,3922.7 9648.36,3922.87C9648.53,3922.93 9648.73,3923.01 9648.96,3923.12C9649.63,3923.46 9652.7,3925.55 9653.83,3926.76C9654.26,3927.22 9654.51,3927.66 9654.62,3927.98C9654.82,3928.51 9654.82,3928.98 9654.75,3929.37L9654.71,3929.51L9654.75,3929.37L9654.72,3929.47C9654.63,3929.88 9654.43,3930.31 9654.02,3930.78C9653.84,3930.98 9653.56,3931.24 9653.18,3931.63C9653.18,3931.63 9653.18,3931.63 9653.18,3931.63C9652.96,3931.86 9652.89,3932.07 9652.79,3932.2C9652.4,3932.78 9651.94,3933.16 9651.26,3933.39C9651.26,3933.39 9651.26,3933.39 9651.26,3933.39C9650.83,3933.53 9650.25,3933.6 9649.57,3933.33C9649.31,3933.22 9648.91,3932.99 9648.47,3932.58C9648.15,3932.28 9647.73,3931.81 9647.29,3931.28L9647.93,3933.25C9648.24,3934.19 9647.91,3935.23 9647.1,3935.81C9646.3,3936.4 9645.21,3936.4 9644.41,3935.81L9635,3928.95L9625.59,3935.81C9624.79,3936.4 9623.7,3936.4 9622.9,3935.81C9622.09,3935.23 9621.76,3934.19 9622.07,3933.25L9622.71,3931.28C9622.27,3931.81 9621.85,3932.28 9621.53,3932.58C9621.09,3932.99 9620.69,3933.22 9620.43,3933.33C9619.75,3933.6 9619.17,3933.53 9618.74,3933.39C9618.74,3933.39 9618.74,3933.39 9618.74,3933.39C9618.06,3933.16 9617.6,3932.78 9617.21,3932.2C9617.11,3932.07 9617.04,3931.86 9616.82,3931.63C9616.82,3931.63 9616.82,3931.63 9616.82,3931.63C9616.44,3931.24 9616.16,3930.98 9615.98,3930.78C9615.54,3930.27 9615.34,3929.8 9615.25,3929.37C9615.25,3929.37 9615.25,3929.37 9615.25,3929.37C9615.18,3928.98 9615.18,3928.51 9615.38,3927.98C9615.49,3927.66 9615.74,3927.22 9616.17,3926.76C9617.3,3925.55 9620.37,3923.46 9621.04,3923.12C9621.27,3923.01 9621.47,3922.93 9621.64,3922.87L9621.83,3922.58C9621.79,3921.87 9622.07,3921.26 9622.48,3920.76C9622.65,3920.55 9622.84,3920.38 9623.01,3920.24L9616.25,3915.35C9615.45,3914.77 9615.11,3913.73 9615.42,3912.79C9615.72,3911.84 9616.6,3911.2 9617.6,3911.2L9622.82,3911.21C9620.58,3909.72 9618.14,3908.09 9617.31,3907.53L9616.97,3907.28C9616.64,3907.05 9616.33,3906.67 9616.21,3906.07C9616.19,3905.99 9616.08,3905.45 9616.08,3905.45C9616.08,3905.45 9618,3907.01 9618,3907.01L9617.97,3906.73L9617.58,3906.48C9617.6,3906.49 9617.75,3906.53 9617.95,3906.58L9617.56,3903.14C9617.56,3903.14 9618.23,3902.98 9618.34,3902.96C9619.19,3902.81 9619.69,3903.17 9619.83,3903.27L9626.43,3907.49L9626.62,3907.41L9626.67,3907.65L9627.25,3908.02C9627.39,3907.42 9627.74,3907.1 9628.46,3907.56C9628.5,3907.59 9628.71,3907.72 9628.75,3907.74C9629.07,3907.94 9629.26,3908.16 9629.36,3908.4C9629.44,3908.47 9629.51,3908.6 9629.58,3908.8L9629.66,3909.05L9629.89,3909.22ZM9651.57,3930.5C9651.92,3930.78 9652.36,3930.95 9652.82,3930.95C9652.36,3930.95 9651.92,3930.78 9651.57,3930.5C9651.39,3930.73 9651.29,3930.94 9651.18,3931.1C9651.04,3931.3 9650.88,3931.45 9650.64,3931.53C9650.55,3931.56 9650.44,3931.57 9650.3,3931.51C9650.18,3931.46 9650.01,3931.34 9649.81,3931.15C9648.89,3930.29 9647.08,3927.87 9646.53,3927.2C9646.27,3926.88 9645.91,3926.43 9645.57,3925.99L9645.56,3926L9645.56,3925.99C9645.08,3925.39 9644.63,3924.81 9644.52,3924.67C9644.4,3924.8 9644.19,3924.96 9643.91,3924.95C9643.82,3924.94 9643.64,3924.88 9643.42,3924.72C9643.29,3924.63 9643.14,3924.51 9642.97,3924.36L9646.07,3933.86C9646.12,3933.99 9646.07,3934.14 9645.95,3934.23C9645.84,3934.31 9645.68,3934.31 9645.56,3934.23C9645.56,3934.23 9635,3926.52 9635,3926.52L9635,3926.53C9634.93,3927.22 9634.96,3927.94 9634.99,3928.28L9635,3928.48L9633.85,3928.11C9633.68,3927.99 9633.54,3927.84 9633.42,3927.68L9624.44,3934.23C9624.32,3934.31 9624.16,3934.31 9624.05,3934.23C9623.93,3934.14 9623.88,3933.99 9623.93,3933.86L9626.86,3924.89L9626.59,3924.71L9626.58,3924.72C9626.36,3924.88 9626.18,3924.94 9626.09,3924.95C9625.81,3924.96 9625.6,3924.8 9625.48,3924.67C9625.29,3924.91 9624.09,3926.44 9623.47,3927.2C9622.92,3927.87 9621.11,3930.29 9620.19,3931.15C9619.99,3931.34 9619.82,3931.46 9619.7,3931.51C9619.56,3931.57 9619.45,3931.56 9619.36,3931.53C9619.12,3931.45 9618.96,3931.3 9618.82,3931.1C9618.68,3930.89 9618.55,3930.6 9618.23,3930.27C9617.88,3929.91 9617.62,3929.67 9617.45,3929.48C9617.29,3929.3 9617.21,3929.14 9617.18,3928.99C9617.16,3928.9 9617.16,3928.79 9617.21,3928.67C9617.27,3928.51 9617.41,3928.31 9617.61,3928.09C9618.6,3927.02 9621.31,3925.17 9621.91,3924.88C9622.29,3924.69 9622.49,3924.67 9622.62,3924.68C9622.66,3924.68 9622.71,3924.69 9622.75,3924.7C9622.8,3924.63 9622.95,3924.43 9623.08,3924.25C9623.38,3923.81 9623.76,3923.21 9623.97,3922.86L9623.92,3922.8C9623.53,3922.15 9624.34,3921.69 9624.45,3921.63C9624.87,3921.39 9625.8,3920.97 9626.62,3920.44L9617.4,3913.76C9617.28,3913.68 9617.23,3913.53 9617.28,3913.39C9617.32,3913.25 9617.45,3913.16 9617.59,3913.16C9617.59,3913.16 9629.27,3913.18 9629.27,3913.18L9628.23,3912.45C9628.23,3912.45 9618.17,3905.79 9618.13,3905.7L9618,3905.05C9618,3905.05 9618.71,3904.88 9618.72,3904.88L9626.56,3909.9L9626.82,3909.45L9627.4,3909.21L9627.71,3909.4L9627.85,3909.82L9627.74,3910.09L9629.1,3911.06C9629.24,3911.08 9629.49,3911.14 9629.88,3911.36C9629.97,3911.41 9630.38,3911.68 9631.01,3912.11C9631.01,3912.11 9634.68,3900.74 9634.68,3900.74C9634.73,3900.61 9634.85,3900.51 9635,3900.51C9635.15,3900.51 9635.27,3900.61 9635.32,3900.74L9638.99,3912.11C9639.62,3911.68 9640.03,3911.41 9640.12,3911.36C9640.51,3911.14 9642.26,3910.09 9642.26,3910.09L9642.15,3909.82L9642.28,3909.41L9642.6,3909.2L9643.05,3909.28L9643.37,3909.72L9651.22,3904.96L9651.9,3905.05L9651.73,3905.75C9651.73,3905.75 9641.21,3912.85 9640.73,3913.18L9652.41,3913.16C9652.55,3913.16 9652.68,3913.25 9652.72,3913.39C9652.77,3913.53 9652.72,3913.68 9652.6,3913.76L9643.38,3920.44C9644.2,3920.97 9645.13,3921.39 9645.55,3921.63C9646.31,3922.01 9646.03,3922.86 9646.03,3922.86C9646.25,3923.21 9646.62,3923.81 9646.92,3924.25C9647.05,3924.43 9647.2,3924.63 9647.25,3924.7C9647.29,3924.69 9647.34,3924.68 9647.38,3924.68C9647.51,3924.67 9647.71,3924.69 9648.09,3924.88C9648.69,3925.17 9651.4,3927.02 9652.39,3928.09C9652.59,3928.31 9652.73,3928.51 9652.79,3928.67C9652.84,3928.79 9652.84,3928.9 9652.82,3928.99C9652.79,3929.14 9652.71,3929.3 9652.55,3929.48C9652.38,3929.67 9652.12,3929.91 9651.77,3930.27C9651.7,3930.35 9651.63,3930.42 9651.57,3930.5ZM9652.98,3930.94C9653.76,3930.88 9654.43,3930.35 9654.68,3929.62C9654.55,3930.01 9654.3,3930.34 9653.97,3930.58C9653.69,3930.78 9653.35,3930.91 9652.98,3930.94L9652.9,3930.95L9652.82,3930.95C9652.85,3930.95 9652.88,3930.95 9652.9,3930.95L9652.98,3930.94ZM9635.02,3909.73L9637.03,3915.98C9637.07,3916.09 9637.17,3916.16 9637.28,3916.16L9643.84,3916.15C9643.84,3916.15 9638.53,3919.99 9638.53,3919.99C9638.44,3920.06 9638.4,3920.18 9638.43,3920.29L9640.47,3926.52C9640.47,3926.52 9635.17,3922.66 9635.17,3922.66C9635.08,3922.59 9634.96,3922.59 9634.86,3922.66L9629.56,3926.52C9629.56,3926.52 9631.6,3920.29 9631.6,3920.29C9631.64,3920.18 9631.6,3920.06 9631.51,3919.99L9626.19,3916.15C9626.19,3916.15 9632.75,3916.16 9632.75,3916.16C9632.87,3916.16 9632.97,3916.09 9633,3915.98L9635.02,3909.73ZM9636.73,3921.37L9636.57,3920.9C9636.27,3919.98 9636.6,3918.97 9637.38,3918.41C9637.38,3918.41 9637.78,3918.12 9637.78,3918.12C9637.78,3918.12 9637.29,3918.12 9637.29,3918.12C9636.32,3918.12 9635.47,3917.5 9635.17,3916.58L9635.02,3916.11L9634.87,3916.58C9634.57,3917.5 9633.71,3918.12 9632.75,3918.12L9632.25,3918.12L9632.66,3918.41C9633.44,3918.97 9633.76,3919.98 9633.46,3920.9L9633.31,3921.37L9633.71,3921.08C9634.49,3920.51 9635.55,3920.51 9636.33,3921.08L9636.73,3921.37ZM9616.35,3906.51C9616.49,3906.82 9616.7,3907.09 9616.97,3907.28L9617.09,3907.36C9617.4,3907.55 9617.76,3907.66 9618.13,3907.66C9618.13,3907.66 9617.58,3907.66 9617.07,3907.34C9616.6,3906.97 9616.4,3906.62 9616.35,3906.51ZM9618.96,3907.36L9619.06,3907.43C9618.78,3907.58 9618.46,3907.66 9618.13,3907.66C9618.13,3907.66 9618.52,3907.59 9618.96,3907.36Z" style="fill:rgb(37,16,5);"/>
                    </g>
                    <g transform="matrix(0.189567,0,0,0.0849664,6754.43,2390.95)">
                        <path d="M9620.78,3915.63L9617.67,3913.49L9630.3,3913.51L9629.49,3912.91C9629,3912.56 9628.45,3912.18 9628.45,3912.18L9626.72,3910.99L9626.8,3910.85L9628,3911.65L9628.1,3911.53L9626.64,3910.5L9626.47,3910.79L9626.36,3910.83L9626.18,3910.7L9626.18,3910.59L9625.7,3910.45L9618.51,3905.49L9618.38,3905.18L9618.67,3905.27L9626.04,3909.87L9626.35,3910.23L9626.72,3909.76L9626.93,3909.92L9627.25,3909.49L9627.58,3909.7L9627.36,3910.21L9629.01,3911.39C9629.01,3911.39 9629.2,3911.35 9629.75,3911.65C9629.85,3911.71 9630.39,3912.07 9631.21,3912.64L9635,3900.89L9638.79,3912.64C9639.62,3912.07 9640.16,3911.71 9640.26,3911.65C9640.81,3911.35 9640.99,3911.39 9640.99,3911.39L9642.65,3910.21L9642.43,3909.7L9642.75,3909.49L9643.08,3909.92L9643.29,3909.76L9643.66,3910.23L9643.97,3909.87L9651.33,3905.27L9651.63,3905.18L9651.5,3905.49L9644.3,3910.45L9643.83,3910.59L9643.83,3910.7L9643.65,3910.83L9643.54,3910.79L9643.37,3910.5L9641.91,3911.53L9642.01,3911.65L9643.2,3910.85L9643.29,3910.99L9641.56,3912.18C9641.56,3912.18 9641.01,3912.56 9640.52,3912.91L9639.7,3913.51L9652.34,3913.49L9649.23,3915.63L9637.53,3915.63L9635.02,3907.87L9632.54,3915.6L9620.78,3915.63Z" style="fill:rgb(254,220,124);"/>
                    </g>
                </g>
            </g>
        </g>
    </g>
</svg>
