<?xml version="1.0" encoding="UTF-8" standalone="no"?>
<!DOCTYPE svg PUBLIC "-//W3C//DTD SVG 1.1//EN" "http://www.w3.org/Graphics/SVG/1.1/DTD/svg11.dtd">
<svg width="100%" height="100%" viewBox="0 0 24 24" version="1.1" xmlns="http://www.w3.org/2000/svg" xmlns:xlink="http://www.w3.org/1999/xlink" xml:space="preserve" xmlns:serif="http://www.serif.com/" style="fill-rule:evenodd;clip-rule:evenodd;stroke-linejoin:round;stroke-miterlimit:2;">
    <g transform="matrix(1,0,0,1,-9236,-3076)">
        <g transform="matrix(0.923654,0,0,1.13187,477.217,-202.505)">
            <g id="military_rank_16_lb">
                <g transform="matrix(0.324797,0,0,0.265049,6625.51,2078.6)">
                    <rect x="8797" y="3086" width="80" height="80" style="fill:none;"/>
                </g>
                <g>
                    <g transform="matrix(1.08266,0,0,0.845212,-1082.89,-837.563)">
                        <path d="M9770.78,4430.67L9769.92,4429.02L9767.08,4431.08L9768.16,4427.74L9765.86,4427.35L9767.49,4425.68L9764.65,4423.61L9768.16,4423.61L9767.83,4421.31L9769.92,4422.34L9771,4419L9772.09,4422.34L9774.18,4421.31L9773.84,4423.61L9777.35,4423.61L9774.51,4425.68L9776.14,4427.35L9773.84,4427.74L9774.92,4431.08L9772.09,4429.02L9771.22,4430.67L9772.09,4433.34L9774.18,4432.31L9773.84,4434.61L9777.35,4434.61L9774.51,4436.68L9776.14,4438.35L9773.84,4438.74L9774.92,4442.08L9772.09,4440.02L9771,4442.08L9769.92,4440.02L9767.08,4442.08L9768.16,4438.74L9765.86,4438.35L9767.49,4436.68L9764.65,4434.61L9768.16,4434.61L9767.83,4432.31L9769.92,4433.34L9770.78,4430.67Z" style="fill:rgb(208,172,69);"/>
                        <path d="M9766.93,4432.04C9766.89,4432.17 9766.88,4432.31 9766.9,4432.45L9767.08,4433.64C9767.08,4433.64 9764.65,4433.64 9764.65,4433.64C9764.24,4433.64 9763.88,4433.91 9763.76,4434.32C9763.64,4434.73 9763.78,4435.17 9764.12,4435.41L9766.03,4436.81C9766.03,4436.81 9765.21,4437.65 9765.21,4437.65C9764.96,4437.91 9764.87,4438.29 9764.97,4438.64C9765.08,4438.99 9765.36,4439.25 9765.71,4439.31L9766.92,4439.52C9766.92,4439.52 9766.19,4441.76 9766.19,4441.76C9766.06,4442.16 9766.19,4442.6 9766.51,4442.86C9766.84,4443.11 9767.28,4443.12 9767.61,4442.88L9769.6,4441.43C9769.6,4441.43 9770.18,4442.55 9770.18,4442.55C9770.35,4442.86 9770.66,4443.05 9771,4443.05C9771.34,4443.05 9771.65,4442.86 9771.82,4442.55L9772.4,4441.43C9772.4,4441.43 9774.39,4442.88 9774.39,4442.88C9774.72,4443.12 9775.16,4443.11 9775.49,4442.86C9775.81,4442.6 9775.94,4442.16 9775.81,4441.76L9775.08,4439.52C9775.08,4439.52 9776.29,4439.31 9776.29,4439.31C9776.64,4439.25 9776.92,4438.99 9777.03,4438.64C9777.13,4438.29 9777.04,4437.91 9776.79,4437.65L9775.97,4436.81C9775.97,4436.81 9777.88,4435.41 9777.88,4435.41C9778.22,4435.17 9778.36,4434.73 9778.24,4434.32C9778.12,4433.91 9777.76,4433.64 9777.35,4433.64L9774.93,4433.64C9774.93,4433.64 9775.1,4432.45 9775.1,4432.45C9775.12,4432.31 9775.11,4432.17 9775.07,4432.04C9775.22,4432.02 9775.36,4431.95 9775.49,4431.86C9775.81,4431.6 9775.94,4431.16 9775.81,4430.76L9775.08,4428.52C9775.08,4428.52 9776.29,4428.31 9776.29,4428.31C9776.64,4428.25 9776.92,4427.99 9777.03,4427.64C9777.13,4427.29 9777.04,4426.91 9776.79,4426.65L9775.97,4425.81C9775.97,4425.81 9777.88,4424.41 9777.88,4424.41C9778.22,4424.17 9778.36,4423.73 9778.24,4423.32C9778.12,4422.91 9777.76,4422.64 9777.35,4422.64L9774.93,4422.64C9774.93,4422.64 9775.1,4421.45 9775.1,4421.45C9775.15,4421.1 9775.01,4420.74 9774.73,4420.52C9774.46,4420.31 9774.09,4420.27 9773.78,4420.42L9772.63,4420.99C9772.63,4420.99 9771.88,4418.69 9771.88,4418.69C9771.76,4418.29 9771.4,4418.02 9771,4418.02C9770.6,4418.02 9770.25,4418.29 9770.12,4418.69L9769.37,4420.99C9769.37,4420.99 9768.22,4420.42 9768.22,4420.42C9767.91,4420.27 9767.54,4420.31 9767.27,4420.52C9766.99,4420.74 9766.85,4421.1 9766.9,4421.45C9766.9,4421.45 9767.08,4422.64 9767.08,4422.64C9767.08,4422.64 9764.65,4422.64 9764.65,4422.64C9764.24,4422.64 9763.88,4422.91 9763.76,4423.32C9763.64,4423.73 9763.78,4424.17 9764.12,4424.41L9766.03,4425.81C9766.03,4425.81 9765.21,4426.65 9765.21,4426.65C9764.96,4426.91 9764.87,4427.29 9764.97,4427.64C9765.08,4427.99 9765.36,4428.25 9765.71,4428.31L9766.92,4428.52C9766.92,4428.52 9766.19,4430.76 9766.19,4430.76C9766.06,4431.16 9766.19,4431.6 9766.51,4431.86C9766.64,4431.95 9766.78,4432.02 9766.93,4432.04ZM9770.78,4430.67L9769.92,4429.02L9767.08,4431.08L9768.16,4427.74L9765.86,4427.35L9767.49,4425.68L9764.65,4423.61L9768.16,4423.61L9767.83,4421.31L9769.92,4422.34L9771,4419L9772.09,4422.34L9774.18,4421.31L9773.84,4423.61L9777.35,4423.61L9774.51,4425.68L9776.14,4427.35L9773.84,4427.74L9774.92,4431.08L9772.09,4429.02L9771.22,4430.67L9772.09,4433.34L9774.18,4432.31L9773.84,4434.61L9777.35,4434.61L9774.51,4436.68L9776.14,4438.35L9773.84,4438.74L9774.92,4442.08L9772.09,4440.02L9771,4442.08L9769.92,4440.02L9767.08,4442.08L9768.16,4438.74L9765.86,4438.35L9767.49,4436.68L9764.65,4434.61L9768.16,4434.61L9767.83,4432.31L9769.92,4433.34L9770.78,4430.67ZM9773.77,4431.43L9772.4,4430.43C9772.4,4430.43 9772.23,4430.76 9772.23,4430.76C9772.23,4430.76 9772.63,4431.99 9772.63,4431.99L9773.77,4431.43ZM9768.23,4431.43L9769.37,4431.99L9769.77,4430.76L9769.6,4430.43L9768.23,4431.43Z" style="fill:rgb(37,16,5);"/>
                    </g>
                    <g transform="matrix(1.11204,0,0,0.864747,-1058.04,-265.993)">
                        <path d="M9490.5,3669L9490.85,3674.43L9491.58,3672.22L9493.59,3671.25L9491.41,3674.84L9493.3,3673.53L9496.68,3673.49L9491.63,3675.5L9494,3675.55L9495.5,3677.12L9491.41,3676.16L9494.32,3680.76L9490.85,3676.57L9490.5,3680.76L9490.15,3676.57L9486.68,3680.76L9489.59,3676.16L9485.5,3677.12L9487.09,3675.55L9489.37,3675.5L9484.32,3673.49L9487.74,3673.57L9489.59,3674.84L9487.41,3671.25L9489.37,3672.06L9490.15,3674.43L9490.5,3669Z" style="fill:rgb(255,222,127);"/>
                    </g>
                    <g transform="matrix(1.11204,0,0,0.868148,-1058.04,-287.809)">
                        <path d="M9490.5,3669L9490.85,3674.43L9491.58,3672.22L9493.59,3671.25L9491.41,3674.84L9493.3,3673.53L9496.68,3673.49L9491.63,3675.5L9494,3675.55L9495.5,3677.12L9491.41,3676.16L9494.32,3680.76L9490.85,3676.57L9490.5,3680.76L9490.15,3676.57L9486.68,3680.76L9489.59,3676.16L9485.5,3677.12L9487.09,3675.55L9489.37,3675.5L9484.32,3673.49L9487.74,3673.57L9489.59,3674.84L9487.41,3671.25L9489.37,3672.06L9490.15,3674.43L9490.5,3669Z" style="fill:rgb(255,222,127);"/>
                    </g>
                </g>
            </g>
        </g>
    </g>
</svg>
