<?xml version="1.0" encoding="UTF-8" standalone="no"?>
<!DOCTYPE svg PUBLIC "-//W3C//DTD SVG 1.1//EN" "http://www.w3.org/Graphics/SVG/1.1/DTD/svg11.dtd">
<svg width="100%" height="100%" viewBox="0 0 24 24" version="1.1" xmlns="http://www.w3.org/2000/svg" xmlns:xlink="http://www.w3.org/1999/xlink" xml:space="preserve" xmlns:serif="http://www.serif.com/" style="fill-rule:evenodd;clip-rule:evenodd;stroke-linejoin:round;stroke-miterlimit:2;">
    <g transform="matrix(1,0,0,1,-8246,-3522)">
        <g transform="matrix(0.923654,0,0,1.13187,477.217,-202.505)">
            <g id="military_rank_07_lb" transform="matrix(2.17248,0,0,3.95534,-9755.2,-7241.26)">
                <g transform="matrix(0.149505,0,0,0.0670103,7046.73,2455.9)">
                    <rect x="8797" y="3086" width="80" height="80" style="fill:none;"/>
                </g>
                <g>
                    <g transform="matrix(0.498351,0,0,0.297824,3889.73,1726.11)">
                        <path d="M8994,3150L8986,3146.25L8978,3150L8978,3157.5L8986,3153.75L8994,3157.5L8994,3150Z" style="fill:rgb(209,209,209);"/>
                        <path d="M8994.93,3150C8994.93,3149.76 8994.77,3149.53 8994.5,3149.41L8986.5,3145.66C8986.19,3145.51 8985.81,3145.51 8985.51,3145.66L8977.51,3149.41C8977.23,3149.53 8977.07,3149.76 8977.07,3150L8977.07,3157.5C8977.07,3157.75 8977.25,3157.99 8977.55,3158.11C8977.84,3158.24 8978.21,3158.23 8978.5,3158.09L8986,3154.58C8986,3154.58 8993.51,3158.09 8993.51,3158.09C8993.79,3158.23 8994.16,3158.24 8994.45,3158.11C8994.75,3157.99 8994.93,3157.75 8994.93,3157.5L8994.93,3150ZM8994,3150L8986,3146.25L8978,3150L8978,3157.5L8986,3153.75L8994,3157.5L8994,3150Z" style="fill:rgb(49,49,49);"/>
                    </g>
                    <g transform="matrix(0.15199,0,0,0.0720514,6970.21,2341.1)">
                        <path d="M9196,4513L9207,4524L9196,4535L9185,4524L9196,4513Z" style="fill:rgb(209,209,209);"/>
                        <path d="M9198.22,4511.01C9197.65,4510.43 9196.84,4510.11 9196,4510.11C9195.16,4510.11 9194.35,4510.43 9193.78,4511.01L9182.78,4522.01C9181.66,4523.13 9181.66,4524.87 9182.78,4525.99L9193.78,4536.99C9194.35,4537.57 9195.16,4537.89 9196,4537.89C9196.84,4537.89 9197.65,4537.57 9198.22,4536.99L9209.22,4525.99C9210.34,4524.87 9210.34,4523.13 9209.22,4522.01C9209.22,4522.01 9198.22,4511.01 9198.22,4511.01ZM9196,4513L9207,4524L9196,4535L9185,4524L9196,4513Z" style="fill:rgb(49,49,49);"/>
                    </g>
                    <g transform="matrix(0.498351,0,0,0.297824,3889.73,1726.11)">
                        <path d="M8986,3153.75L8986,3146.25L8978,3150L8978,3157.5L8986,3153.75Z" style="fill:rgb(240,240,240);"/>
                    </g>
                </g>
            </g>
        </g>
    </g>
</svg>
