<?xml version="1.0" encoding="UTF-8" standalone="no"?>
<!DOCTYPE svg PUBLIC "-//W3C//DTD SVG 1.1//EN" "http://www.w3.org/Graphics/SVG/1.1/DTD/svg11.dtd">
<svg width="100%" height="100%" viewBox="0 0 24 24" version="1.1" xmlns="http://www.w3.org/2000/svg" xmlns:xlink="http://www.w3.org/1999/xlink" xml:space="preserve" xmlns:serif="http://www.serif.com/" style="fill-rule:evenodd;clip-rule:evenodd;stroke-linejoin:round;stroke-miterlimit:2;">
    <g transform="matrix(1,0,0,1,-8246,-3046)">
        <g transform="matrix(0.923654,0,0,1.13187,477.217,-202.505)">
            <g id="military_rank_02_lb" transform="matrix(2.17248,0,0,3.95534,-9755.2,-7660.04)">
                <g transform="matrix(0.149505,0,0,0.0670103,7046.73,2455.45)">
                    <rect x="8797" y="3086" width="80" height="80" style="fill:none;"/>
                </g>
                <g transform="matrix(0.498351,0,0,0.297824,3889.73,1726.78)">
                    <path d="M8994,3150L8986,3146.25L8978,3150L8978,3153L8986,3149.25L8994,3153L8994,3150Z" style="fill:rgb(209,209,209);"/>
                    <path d="M8994.93,3150C8994.93,3149.76 8994.77,3149.53 8994.5,3149.41L8986.5,3145.66C8986.19,3145.51 8985.81,3145.51 8985.51,3145.66L8977.51,3149.41C8977.23,3149.53 8977.07,3149.76 8977.07,3150L8977.07,3153C8977.07,3153.25 8977.25,3153.49 8977.55,3153.61C8977.84,3153.74 8978.21,3153.73 8978.5,3153.59L8986,3150.08C8986,3150.08 8993.51,3153.59 8993.51,3153.59C8993.79,3153.73 8994.16,3153.74 8994.45,3153.61C8994.75,3153.49 8994.93,3153.25 8994.93,3153L8994.93,3150ZM8994,3150L8986,3146.25L8978,3150L8978,3153L8986,3149.25L8994,3153L8994,3150Z" style="fill:rgb(49,49,49);"/>
                </g>
                <g transform="matrix(0.498351,0,0,0.297824,3889.73,1726.78)">
                    <path d="M8986,3149.25L8986,3146.25L8978,3150L8978,3153L8986,3149.25Z" style="fill:rgb(240,240,240);"/>
                </g>
            </g>
        </g>
    </g>
</svg>
