<svg xmlns="http://www.w3.org/2000/svg" width="150" height="150" viewBox="0 0 150 150">
  <defs>
    <style>
      .cls-1 {
        fill: #bd1c25;
        stroke: #878076;
        stroke-miterlimit: 10;
        stroke-width: 3px;
      }

      .cls-2 {
        fill: #202c59;
      }

      .cls-3 {
        fill: #424535;
      }

      .cls-4 {
        fill: #dbd7c1;
      }

      .cls-5 {
        fill: #faecda;
      }
    </style>
  </defs>
  <g id="Layer_2" data-name="Layer 2">
    <circle class="cls-1" cx="75" cy="81.05233" r="59.99264"/>
    <g>
      <path class="cls-2" d="M95.46039,50.60885S86.2655,40.93,88.32225,37.05848s14.88121.242,20.20457,7.13814c4.22428,5.47237,4.11351,14.51825,4.71843,18.2688s.41082,7.6894,3.28785,7.29708c3.81456-.52017,2.16543-4.18525,1.5605-6.242s-4.00145-9.887-1.9447-11.5808,9.79983,6.29124,9.07391,13.18741-8.227,17.05895-9.31588,18.87373-.26134,3.59909,1.31973,3.274c4.94471-1.01679,5.21349-9.80718,6.7863-12.22689s3.50858-3.14562,4.9604-.48394,1.57281,10.04179-1.57281,13.55037-16.696,9.19489-18.38979,11.37263-1.05671,3.63074,1.28033,3.39286c7.4738-.76075,7.06767-6.17553,12.996-7.50637s5.8073.60493,3.2666,5.44435-11.37263,6.41223-16.696,8.106-13.5122,4.22184-11.00967,6.04928c4.33415,3.165,6.53321-1.08887,9.31588-2.66168s10.52573-4.71844,11.6146-1.20986-9.07391,12.58249-14.39727,13.3084-14.03431-3.75055-20.08358-2.78266-14.27629,5.8073-16.938,8.106-7.50109,4.47646-8.348.48394,4.47646-7.86405,16.09106-11.37263,24.681-8.71095,25.52793-18.14782-1.20985-8.469-2.41971-12.70347-1.81478-7.985.242-8.95292,6.29125,1.20985,6.77519,6.29124.18372,8.96346,1.63554,8.35853,6.76218-3.29439-.54667-14.64977c-5.158-8.01376-6.77519-5.32336-9.1949-11.97756s-1.57281-10.04179.242-10.16278,6.29125,3.75055,8.348,10.04179,2.78267,9.43687,4.23449,8.106.363-7.5011-1.81478-11.73559-7.5011-8.59-9.1949-9.43686A30.55374,30.55374,0,0,1,95.46039,50.60885Z"/>
      <path class="cls-2" d="M54.53961,50.60885S63.7345,40.93,61.67775,37.05848s-14.88121.242-20.20457,7.13814c-4.22428,5.47237-4.11351,14.51825-4.71843,18.2688s-.41082,7.6894-3.28785,7.29708c-3.81456-.52017-2.16543-4.18525-1.5605-6.242s4.00145-9.887,1.9447-11.5808-9.79983,6.29124-9.07391,13.18741,8.227,17.05895,9.31588,18.87373.26134,3.59909-1.31973,3.274c-4.94471-1.01679-5.21349-9.80718-6.7863-12.22689s-3.50858-3.14562-4.9604-.48394-1.57281,10.04179,1.57281,13.55037,16.696,9.19489,18.38979,11.37263,1.05671,3.63074-1.28033,3.39286c-7.4738-.76075-7.06767-6.17553-12.996-7.50637s-5.8073.60493-3.2666,5.44435,11.37263,6.41223,16.696,8.106,13.5122,4.22184,11.00967,6.04928c-4.33415,3.165-6.53321-1.08887-9.31588-2.66168s-10.52573-4.71844-11.6146-1.20986S39.29544,123.68406,44.6188,124.41s14.03431-3.75055,20.08358-2.78266,14.27629,5.8073,16.938,8.106,7.50109,4.47646,8.348.48394-4.47646-7.86405-16.09106-11.37263-24.681-8.71095-25.52793-18.14782,1.20985-8.469,2.41971-12.70347,1.81478-7.985-.242-8.95292-6.29125,1.20985-6.77519,6.29124-.18372,8.96346-1.63554,8.35853-6.76218-3.29439.54667-14.64977c5.158-8.01376,6.77519-5.32336,9.1949-11.97756s1.57281-10.04179-.242-10.16278-6.29125,3.75055-8.348,10.04179-2.78267,9.43687-4.23449,8.106-.363-7.5011,1.81478-11.73559,7.5011-8.59,9.1949-9.43686A30.55374,30.55374,0,0,0,54.53961,50.60885Z"/>
    </g>
    <polygon class="cls-3" points="74.997 39.949 93.106 36.135 93.333 36.135 111.442 39.949 111.442 8.739 93.333 4.925 93.106 4.925 74.997 8.739 74.823 8.739 56.894 4.686 56.667 4.686 38.558 8.501 38.558 39.711 56.667 35.896 56.894 35.896 74.823 39.949 74.997 39.949"/>
    <g>
      <polygon class="cls-4" points="57.812 30.854 57.221 30.854 41.678 34.265 41.678 6.457 57.5 2.985 74.637 7.021 75.177 7.021 92.491 3.222 108.322 6.695 108.322 34.503 92.779 31.092 92.202 31.092 74.924 34.884 57.812 30.854"/>
      <path class="cls-3" d="M57.48718,4.68848,74.06787,8.593l.37573.08838h.9137l.35193-.07715L92.4906,4.92212,106.661,8.03125V32.43677l-13.34936-2.9292-.35193-.07715h-.93824l-.35192.07715L74.93628,33.1792l-16.5564-3.89868-.37573-.08838h-.96387l-.35193.07715L43.339,32.19824V7.793L57.48718,4.68848m.131-3.3833h-.21753L40.01575,5.11987v31.21l17.38488-3.81445h.21753l17.21143,4.053H74.997l17.38489-3.8147h.21753l17.38488,3.8147V5.35815L92.59937,1.5437h-.21753L74.997,5.35815h-.16736l-17.21143-4.053Z"/>
    </g>
    <g>
      <path class="cls-3" d="M68.34863,10.03223A4.82164,4.82164,0,0,1,73.3457,14.708v.55957a5.09312,5.09312,0,0,1-2.84668,4.335L66.77148,21.5752a2.497,2.497,0,0,0-1.39941,2.21191v1.76953H73.3457v3.08789H61.34082V23.26562c0-1.99707,1.1543-3.46679,3.08008-4.47167l4.084-2.13575a1.56588,1.56588,0,0,0,.8711-1.376v-.27344a1.538,1.538,0,0,0-1.583-1.53516H66.68164a12.74176,12.74176,0,0,0-4.126.57617l-.46582-3.03418a10.5238,10.5238,0,0,1,4.50684-.98437Z"/>
      <path class="cls-3" d="M83.09766,10.05762a4.813,4.813,0,0,1,4.99707,4.665v1.05371A3.3731,3.3731,0,0,1,86.24609,18.794a3.61219,3.61219,0,0,1,2.11133,3.27539v2.08007a4.82433,4.82433,0,0,1-4.998,4.68653H80.79785a4.84459,4.84459,0,0,1-5.01465-4.68653V22.06934a3.732,3.732,0,0,1,2.12793-3.28516,3.30929,3.30929,0,0,1-1.84472-3.00781V14.72266a4.85049,4.85049,0,0,1,5.01367-4.665ZM81.52148,20.374a1.63636,1.63636,0,0,0-1.707,1.67871v1.94532a1.63636,1.63636,0,0,0,1.707,1.67871h1.11426a1.63692,1.63692,0,0,0,1.707-1.67871V22.05273a1.63692,1.63692,0,0,0-1.707-1.67871Zm.11524-7.14355a1.63614,1.63614,0,0,0-1.707,1.67773v.86817a1.63238,1.63238,0,0,0,1.707,1.66113h.957A1.6198,1.6198,0,0,0,84.249,15.77637V14.9082a1.63669,1.63669,0,0,0-1.707-1.67773Z"/>
    </g>
    <g>
      <path d="M73.3608,95.044a38.82959,38.82959,0,0,1,3.06494-2.62158L62.088,77.34628,48.42074,49.63046c-2.95422.30371-7.30689,2.72143-11.34863,6.56518-4.28125,4.07153-6.98279,8.572-7.1836,11.51245L56.91573,82.76644l.082-.07788L71.03793,97.45175C71.75546,96.64242,72.52841,95.83553,73.3608,95.044Z"/>
      <path d="M35.26327,54.52377c4.51587-4.29468,9.41882-6.80835,12.32532-6.58081l-.87366-1.77173-.0022-.00464-.13025-.26416-.037.0354a2.20722,2.20722,0,0,0-.17029-.23291c-1.03345-1.08667-3.07923-1.01538-5.56409-.03247L38.2839,43.015a1.78253,1.78253,0,0,0-2.58338,2.45678l1.80323,1.896a32.28841,32.28841,0,0,0-4.267,3.19629l-6.19592-6.51514A1.78249,1.78249,0,0,0,24.4576,46.5057l6.2251,6.54565a29.85867,29.85867,0,0,0-3.7185,4.82715l-2.47266-2.60009a1.52639,1.52639,0,0,0-2.21216,2.10375l3.24939,3.41675c-.72961,1.99829-.74109,3.64917.15125,4.58741a2.502,2.502,0,0,0,1.25268.6748l1.14051.6355C27.86263,63.80306,30.649,58.91219,35.26327,54.52377Z"/>
      <path d="M78.25424,94.34506c-.978.761-1.95923,1.60229-2.92383,2.51977-.87744.83447-1.68665,1.68579-2.436,2.53906l43.98291,46.24829,5.34058-5.07885Z"/>
    </g>
    <g>
      <path class="cls-5" d="M73.3608,86.95707a38.82959,38.82959,0,0,1,3.06494-2.62158L62.088,69.25932,48.42074,41.5435c-2.95422.30371-7.30689,2.72144-11.34863,6.56519-4.28125,4.07153-6.98279,8.572-7.1836,11.51245L56.91573,74.67949l.082-.07789L71.03793,89.36479C71.75546,88.55546,72.52841,87.74858,73.3608,86.95707Z"/>
      <path class="cls-5" d="M35.26327,46.43681c4.51587-4.29468,9.41882-6.80835,12.32532-6.58081l-.87366-1.77173-.0022-.00464-.13025-.26416-.037.0354a2.20722,2.20722,0,0,0-.17029-.23291c-1.03345-1.08667-3.07923-1.01538-5.56409-.03247L38.2839,34.928a1.78253,1.78253,0,0,0-2.58338,2.45679l1.80323,1.896a32.29017,32.29017,0,0,0-4.267,3.19629L27.04086,35.962a1.78248,1.78248,0,0,0-2.58326,2.45678l6.2251,6.54566a29.85824,29.85824,0,0,0-3.7185,4.82715l-2.47266-2.6001a1.52639,1.52639,0,1,0-2.21216,2.10376L25.52877,52.712c-.72961,1.99829-.74109,3.64917.15125,4.5874a2.502,2.502,0,0,0,1.25268.6748l1.14051.6355C27.86263,55.71611,30.649,50.82524,35.26327,46.43681Z"/>
      <path class="cls-5" d="M78.25424,86.2581c-.978.761-1.95923,1.60229-2.92383,2.51977-.87744.83448-1.68665,1.6858-2.436,2.53907l43.98291,46.24829,5.34058-5.07886Z"/>
    </g>
  </g>
</svg>
