<svg id="Layer_2" data-name="Layer 2" xmlns="http://www.w3.org/2000/svg" width="150" height="150" viewBox="0 0 150 150">
  <defs>
    <style>
      .cls-1 {
        fill: #bd1c25;
        stroke: #878076;
        stroke-miterlimit: 10;
        stroke-width: 3px;
      }

      .cls-2 {
        fill: #202c59;
      }

      .cls-3 {
        fill: #424535;
      }

      .cls-4 {
        fill: #dbd7c1;
      }

      .cls-5 {
        fill: #faecda;
      }
    </style>
  </defs>
  <circle class="cls-1" cx="75" cy="81.05233" r="59.99264"/>
  <g>
    <path class="cls-2" d="M95.46039,50.60885S86.2655,40.93,88.32225,37.05848s14.88121.242,20.20457,7.13814c4.22428,5.47237,4.11351,14.51825,4.71843,18.2688s.41082,7.6894,3.28785,7.29708c3.81456-.52017,2.16543-4.18525,1.5605-6.242s-4.00145-9.887-1.9447-11.5808,9.79983,6.29124,9.07391,13.18741-8.227,17.05895-9.31588,18.87373-.26134,3.59909,1.31973,3.274c4.94471-1.01679,5.21349-9.80718,6.7863-12.22689s3.50858-3.14562,4.9604-.48394,1.57281,10.04179-1.57281,13.55037-16.696,9.19489-18.38979,11.37263-1.05671,3.63074,1.28033,3.39286c7.4738-.76075,7.06767-6.17553,12.996-7.50637s5.8073.60493,3.2666,5.44435-11.37263,6.41223-16.696,8.106-13.5122,4.22184-11.00967,6.04928c4.33415,3.165,6.53321-1.08887,9.31588-2.66168s10.52573-4.71844,11.6146-1.20986-9.07391,12.58249-14.39727,13.3084-14.03431-3.75055-20.08358-2.78266-14.27629,5.8073-16.938,8.106-7.50109,4.47646-8.348.48394,4.47646-7.86405,16.09106-11.37263,24.681-8.71095,25.52793-18.14782-1.20985-8.469-2.41971-12.70347-1.81478-7.985.242-8.95292,6.29125,1.20985,6.77519,6.29124.18372,8.96346,1.63554,8.35853,6.76218-3.29439-.54667-14.64977c-5.158-8.01376-6.77519-5.32336-9.1949-11.97756s-1.57281-10.04179.242-10.16278,6.29125,3.75055,8.348,10.04179,2.78267,9.43687,4.23449,8.106.363-7.5011-1.81478-11.73559-7.5011-8.59-9.1949-9.43686A30.55374,30.55374,0,0,1,95.46039,50.60885Z"/>
    <path class="cls-2" d="M54.53961,50.60885S63.7345,40.93,61.67775,37.05848s-14.88121.242-20.20457,7.13814c-4.22428,5.47237-4.11351,14.51825-4.71843,18.2688s-.41082,7.6894-3.28785,7.29708c-3.81456-.52017-2.16543-4.18525-1.5605-6.242s4.00145-9.887,1.9447-11.5808-9.79983,6.29124-9.07391,13.18741,8.227,17.05895,9.31588,18.87373.26134,3.59909-1.31973,3.274c-4.94471-1.01679-5.21349-9.80718-6.7863-12.22689s-3.50858-3.14562-4.9604-.48394-1.57281,10.04179,1.57281,13.55037,16.696,9.19489,18.38979,11.37263,1.05671,3.63074-1.28033,3.39286c-7.4738-.76075-7.06767-6.17553-12.996-7.50637s-5.8073.60493-3.2666,5.44435,11.37263,6.41223,16.696,8.106,13.5122,4.22184,11.00967,6.04928c-4.33415,3.165-6.53321-1.08887-9.31588-2.66168s-10.52573-4.71844-11.6146-1.20986S39.29544,123.68406,44.6188,124.41s14.03431-3.75055,20.08358-2.78266,14.27629,5.8073,16.938,8.106,7.50109,4.47646,8.348.48394-4.47646-7.86405-16.09106-11.37263-24.681-8.71095-25.52793-18.14782,1.20985-8.469,2.41971-12.70347,1.81478-7.985-.242-8.95292-6.29125,1.20985-6.77519,6.29124-.18372,8.96346-1.63554,8.35853-6.76218-3.29439.54667-14.64977c5.158-8.01376,6.77519-5.32336,9.1949-11.97756s1.57281-10.04179-.242-10.16278-6.29125,3.75055-8.348,10.04179-2.78267,9.43687-4.23449,8.106-.363-7.5011,1.81478-11.73559,7.5011-8.59,9.1949-9.43686A30.55374,30.55374,0,0,0,54.53961,50.60885Z"/>
  </g>
  <polygon class="cls-3" points="74.997 39.949 93.106 36.135 93.333 36.135 111.442 39.949 111.442 8.739 93.333 4.925 93.106 4.925 74.997 8.739 74.823 8.739 56.894 4.686 56.667 4.686 38.558 8.501 38.558 39.711 56.667 35.896 56.894 35.896 74.823 39.949 74.997 39.949"/>
  <g>
    <polygon class="cls-4" points="57.812 30.854 57.221 30.854 41.678 34.265 41.678 6.457 57.5 2.985 74.637 7.021 75.177 7.021 92.491 3.222 108.322 6.695 108.322 34.503 92.779 31.092 92.202 31.092 74.924 34.884 57.812 30.854"/>
    <path class="cls-3" d="M57.48718,4.68848,74.06787,8.593l.37573.08838h.9137l.35193-.07715L92.4906,4.92212,106.661,8.03125V32.43677l-13.34936-2.9292-.35193-.07715h-.93824l-.35192.07715L74.93628,33.1792l-16.5564-3.89868-.37573-.08838h-.96387l-.35193.07715L43.339,32.19824V7.793L57.48718,4.68848m.131-3.3833h-.21753L40.01575,5.11987v31.21l17.38488-3.81445h.21753l17.21143,4.053H74.997l17.38489-3.8147h.21753l17.38488,3.8147V5.35815L92.59937,1.5437h-.21753L74.997,5.35815h-.16736l-17.21143-4.053Z"/>
  </g>
  <g>
    <path class="cls-3" d="M69.37891,10.07656a19.762,19.762,0,0,1,4.08007.5459v3.01465a28.8588,28.8588,0,0,0-4.02636-.37109H68.14746a2.3039,2.3039,0,0,0-2.38086,2.44433v1.46a12.21905,12.21905,0,0,1,2.375-.27929H69.667c2.541,0,4.52344,1.63378,4.52344,4.72851v2.42774A4.7322,4.7322,0,0,1,69.23828,28.809H66.7832c-3.15625,0-5.11523-1.85156-5.11523-5.63769V15.91543c0-3.66309,2.709-5.83887,6.26074-5.83887Zm-2.0625,9.98828a2.43339,2.43339,0,0,0-1.63379.53907v3.291a1.6408,1.6408,0,0,0,1.707,1.74121h1.1416a1.6486,1.6486,0,0,0,1.62695-1.74121V21.80508a1.65416,1.65416,0,0,0-1.62695-1.74024Z"/>
    <path class="cls-3" d="M83.69141,10.03164a4.82165,4.82165,0,0,1,4.99707,4.67578V15.268a5.09168,5.09168,0,0,1-2.84668,4.334l-3.72754,1.97266a2.49975,2.49975,0,0,0-1.39942,2.21289V25.557h7.97364v3.08789H76.68359V23.266c0-1.99707,1.1543-3.4668,3.08008-4.47266l4.084-2.13477a1.56886,1.56886,0,0,0,.87109-1.376V15.0082a1.53779,1.53779,0,0,0-1.583-1.53418H82.02441a12.76813,12.76813,0,0,0-4.126.5752l-.46582-3.0332a10.52357,10.52357,0,0,1,4.50683-.98438Z"/>
  </g>
  <g>
    <path d="M36.36424,83.23653h.71882a1.42455,1.42455,0,0,1,1.42455,1.42455v30.62877a0,0,0,0,1,0,0H34.93969a0,0,0,0,1,0,0V84.66107A1.42455,1.42455,0,0,1,36.36424,83.23653Z" transform="translate(-38.75386 25.06782) rotate(-25.18822)"/>
    <path d="M55.12956,106.50089l-.396.15531a4.6036,4.6036,0,0,0-2.60471,5.96659l.61124,1.5585-2.0365.79872-.48621-1.23971a.856.856,0,0,0-1.59387.62511l.48621,1.23971-.306.12,2.80813,5.95192a2.497,2.497,0,0,1-1.193,3.32382l-3.18661,1.50375a2.49742,2.49742,0,0,1-3.324-1.19287l-.13316-.28225a50.74553,50.74553,0,0,0,2.27246,7.25483c2.5375,6.46993,5.74771,11.37282,7.56019,11.72187l.06063.15458,5.75553-2.25732.48621,1.23971a.856.856,0,1,0,1.59387-.62511l-.48621-1.23971,2.0365-.79872.6114,1.55889a4.60325,4.60325,0,0,0,5.96632,2.6046l.396-.15531a4.60323,4.60323,0,0,0,2.60476-5.96617L61.09594,109.10591A4.60359,4.60359,0,0,0,55.12956,106.50089Z"/>
    <path d="M42.15493,113.46682H48.0514a0,0,0,0,1,0,0v7.81495a2.07688,2.07688,0,0,1-2.07688,2.07688H44.23181a2.07688,2.07688,0,0,1-2.07688-2.07688v-7.81495A0,0,0,0,1,42.15493,113.46682Z" transform="translate(-46.21395 30.56596) rotate(-25.25793)"/>
    <path d="M103.6522,56.28754h3.56791a0,0,0,0,1,0,0V86.91631a1.42455,1.42455,0,0,1-1.42455,1.42455h-.71882a1.42455,1.42455,0,0,1-1.42455-1.42455V56.28754a0,0,0,0,1,0,0Z" transform="translate(227.82962 109.27316) rotate(162.35808)"/>
    <path d="M117.78145,96.00427l.09423.29752a2.49744,2.49744,0,0,1-1.62677,3.13455l-3.35926,1.06353a2.497,2.497,0,0,1-3.13457-1.62653l-1.98687-6.274-.306.12-.48622-1.23971a.856.856,0,0,0-1.59387.62511l.48621,1.23971-2.31944.90969-.61124-1.55851a4.60358,4.60358,0,0,0-5.96638-2.605l-.396.1553a4.6036,4.6036,0,0,0-2.60471,5.96659l11.53683,29.41574a4.60324,4.60324,0,0,0,5.96632,2.60459l.396-.1553a4.60323,4.60323,0,0,0,2.60476-5.96617l-.61139-1.55889,2.31944-.90969.48622,1.23971a.856.856,0,1,0,1.59387-.62511l-.48622-1.23971,5.75554-2.25732-.06063-.15457c1.09193-1.48816.11309-7.2662-2.42441-13.73612A50.7461,50.7461,0,0,0,117.78145,96.00427Z"/>
    <path d="M111.43788,87.10866h1.74272a2.07688,2.07688,0,0,1,2.07688,2.07688v7.81495a0,0,0,0,1,0,0H109.361a0,0,0,0,1,0,0V89.18554a2.07688,2.07688,0,0,1,2.07688-2.07688Z" transform="translate(247.16978 145.9066) rotate(162.42778)"/>
    <path d="M59.94989,53.52687l-2.37437.93123A39.74523,39.74523,0,0,0,33.72375,84.45055l4.671,10.22378,1.568-.81932L37.3235,87.12543S37.18546,71.8779,58.588,60.052a18.18288,18.18288,0,0,1,2.15424-1.01228h0a18.18327,18.18327,0,0,1,2.268-.72213c23.73562-5.87718,34.00007,5.39877,34.00007,5.39877l2.63933,6.72958,1.707-.46513L97.83181,59.30743C80.45673,45.48411,59.94989,53.52687,59.94989,53.52687Z"/>
  </g>
  <g>
    <path class="cls-5" d="M36.36424,77.0348h.71882a1.42455,1.42455,0,0,1,1.42455,1.42455v30.62877a0,0,0,0,1,0,0H34.93969a0,0,0,0,1,0,0V78.45935a1.42455,1.42455,0,0,1,1.42455-1.42455Z" transform="translate(-36.11445 24.47813) rotate(-25.18822)"/>
    <path class="cls-5" d="M55.12956,100.29917l-.396.1553a4.60361,4.60361,0,0,0-2.60471,5.9666l.61124,1.5585-2.0365.79871-.48621-1.2397a.856.856,0,0,0-1.59387.62511l.48621,1.23971-.306.12,2.80813,5.95192a2.497,2.497,0,0,1-1.193,3.32383l-3.18661,1.50375a2.49743,2.49743,0,0,1-3.324-1.19287l-.13316-.28225a50.74592,50.74592,0,0,0,2.27246,7.25483c2.5375,6.46992,5.74771,11.37282,7.56019,11.72187l.06063.15458,5.75553-2.25732.48621,1.23971a.856.856,0,1,0,1.59387-.62512l-.48621-1.2397,2.0365-.79872.6114,1.55889a4.60324,4.60324,0,0,0,5.96632,2.60459l.396-.1553a4.60323,4.60323,0,0,0,2.60476-5.96617L61.09594,102.90419A4.60359,4.60359,0,0,0,55.12956,100.29917Z"/>
    <path class="cls-5" d="M42.15493,107.2651H48.0514a0,0,0,0,1,0,0V115.08a2.07688,2.07688,0,0,1-2.07688,2.07688H44.23181A2.07688,2.07688,0,0,1,42.15493,115.08V107.2651A0,0,0,0,1,42.15493,107.2651Z" transform="translate(-43.56771 29.97305) rotate(-25.25793)"/>
    <path class="cls-5" d="M103.6522,50.08582h3.56791a0,0,0,0,1,0,0V80.71459a1.42455,1.42455,0,0,1-1.42455,1.42455h-.71882a1.42455,1.42455,0,0,1-1.42455-1.42455V50.08582a0,0,0,0,1,0,0Z" transform="translate(225.95008 97.16138) rotate(162.35808)"/>
    <path class="cls-5" d="M117.78145,89.80255l.09423.29752a2.49744,2.49744,0,0,1-1.62677,3.13455l-3.35926,1.06353a2.497,2.497,0,0,1-3.13457-1.62654l-1.98687-6.274-.306.12-.48622-1.2397a.856.856,0,0,0-1.59387.62511l.48621,1.23971-2.31944.90968-.61124-1.5585a4.60359,4.60359,0,0,0-5.96638-2.605l-.396.15531a4.6036,4.6036,0,0,0-2.60471,5.96659l11.53683,29.41573a4.60325,4.60325,0,0,0,5.96632,2.6046l.396-.15531a4.60323,4.60323,0,0,0,2.60476-5.96617l-.61139-1.55889,2.31944-.90968.48622,1.23971a.856.856,0,1,0,1.59387-.62511l-.48622-1.23971,5.75554-2.25732-.06063-.15458c1.09193-1.48816.11309-7.26619-2.42441-13.73612A50.74593,50.74593,0,0,0,117.78145,89.80255Z"/>
    <path class="cls-5" d="M111.43788,80.90693h1.74272a2.07688,2.07688,0,0,1,2.07688,2.07688v7.81495a0,0,0,0,1,0,0H109.361a0,0,0,0,1,0,0V82.98381a2.07688,2.07688,0,0,1,2.07688-2.07688Z" transform="translate(245.29743 133.79254) rotate(162.42778)"/>
    <path class="cls-5" d="M59.94989,47.32515l-2.37437.93123A39.74521,39.74521,0,0,0,33.72375,78.24883l4.671,10.22377,1.568-.81932L37.3235,80.92371s-.138-15.24753,21.26447-27.07348A18.18288,18.18288,0,0,1,60.74221,52.838h0a18.18161,18.18161,0,0,1,2.268-.72213c23.73562-5.87719,34.00007,5.39877,34.00007,5.39877l2.63933,6.72957,1.707-.46513L97.83181,53.1057C80.45673,39.28239,59.94989,47.32515,59.94989,47.32515Z"/>
  </g>
</svg>
