<svg id="Layer_2" data-name="Layer 2" xmlns="http://www.w3.org/2000/svg" width="150" height="150" viewBox="0 0 150 150">
  <defs>
    <style>
      .cls-1 {
        fill: #bd1c25;
        stroke: #878076;
        stroke-miterlimit: 10;
        stroke-width: 3px;
      }

      .cls-2 {
        fill: #202c59;
      }

      .cls-3 {
        fill: #424535;
      }

      .cls-4 {
        fill: #dbd7c1;
      }

      .cls-5 {
        fill: #faecda;
      }
    </style>
  </defs>
  <circle class="cls-1" cx="75" cy="81.05233" r="59.99264"/>
  <g>
    <path class="cls-2" d="M95.46039,50.60885S86.2655,40.93,88.32225,37.05848s14.88121.242,20.20457,7.13814c4.22428,5.47237,4.11351,14.51825,4.71843,18.2688s.41082,7.6894,3.28785,7.29708c3.81456-.52017,2.16543-4.18525,1.5605-6.242s-4.00145-9.887-1.9447-11.5808,9.79983,6.29124,9.07391,13.18741-8.227,17.05895-9.31588,18.87373-.26134,3.59909,1.31973,3.274c4.94471-1.01679,5.21349-9.80718,6.7863-12.22689s3.50858-3.14562,4.9604-.48394,1.57281,10.04179-1.57281,13.55037-16.696,9.19489-18.38979,11.37263-1.05671,3.63074,1.28033,3.39286c7.4738-.76075,7.06767-6.17553,12.996-7.50637s5.8073.60493,3.2666,5.44435-11.37263,6.41223-16.696,8.106-13.5122,4.22184-11.00967,6.04928c4.33415,3.165,6.53321-1.08887,9.31588-2.66168s10.52573-4.71844,11.6146-1.20986-9.07391,12.58249-14.39727,13.3084-14.03431-3.75055-20.08358-2.78266-14.27629,5.8073-16.938,8.106-7.50109,4.47646-8.348.48394,4.47646-7.86405,16.09106-11.37263,24.681-8.71095,25.52793-18.14782-1.20985-8.469-2.41971-12.70347-1.81478-7.985.242-8.95292,6.29125,1.20985,6.77519,6.29124.18372,8.96346,1.63554,8.35853,6.76218-3.29439-.54667-14.64977c-5.158-8.01376-6.77519-5.32336-9.1949-11.97756s-1.57281-10.04179.242-10.16278,6.29125,3.75055,8.348,10.04179,2.78267,9.43687,4.23449,8.106.363-7.5011-1.81478-11.73559-7.5011-8.59-9.1949-9.43686A30.55374,30.55374,0,0,1,95.46039,50.60885Z"/>
    <path class="cls-2" d="M54.53961,50.60885S63.7345,40.93,61.67775,37.05848s-14.88121.242-20.20457,7.13814c-4.22428,5.47237-4.11351,14.51825-4.71843,18.2688s-.41082,7.6894-3.28785,7.29708c-3.81456-.52017-2.16543-4.18525-1.5605-6.242s4.00145-9.887,1.9447-11.5808-9.79983,6.29124-9.07391,13.18741,8.227,17.05895,9.31588,18.87373.26134,3.59909-1.31973,3.274c-4.94471-1.01679-5.21349-9.80718-6.7863-12.22689s-3.50858-3.14562-4.9604-.48394-1.57281,10.04179,1.57281,13.55037,16.696,9.19489,18.38979,11.37263,1.05671,3.63074-1.28033,3.39286c-7.4738-.76075-7.06767-6.17553-12.996-7.50637s-5.8073.60493-3.2666,5.44435,11.37263,6.41223,16.696,8.106,13.5122,4.22184,11.00967,6.04928c-4.33415,3.165-6.53321-1.08887-9.31588-2.66168s-10.52573-4.71844-11.6146-1.20986S39.29544,123.68406,44.6188,124.41s14.03431-3.75055,20.08358-2.78266,14.27629,5.8073,16.938,8.106,7.50109,4.47646,8.348.48394-4.47646-7.86405-16.09106-11.37263-24.681-8.71095-25.52793-18.14782,1.20985-8.469,2.41971-12.70347,1.81478-7.985-.242-8.95292-6.29125,1.20985-6.77519,6.29124-.18372,8.96346-1.63554,8.35853-6.76218-3.29439.54667-14.64977c5.158-8.01376,6.77519-5.32336,9.1949-11.97756s1.57281-10.04179-.242-10.16278-6.29125,3.75055-8.348,10.04179-2.78267,9.43687-4.23449,8.106-.363-7.5011,1.81478-11.73559,7.5011-8.59,9.1949-9.43686A30.55374,30.55374,0,0,0,54.53961,50.60885Z"/>
  </g>
  <polygon class="cls-3" points="74.997 39.949 93.106 36.135 93.333 36.135 111.442 39.949 111.442 8.739 93.333 4.925 93.106 4.925 74.997 8.739 74.823 8.739 56.894 4.686 56.667 4.686 38.558 8.501 38.558 39.711 56.667 35.896 56.894 35.896 74.823 39.949 74.997 39.949"/>
  <g>
    <polygon class="cls-4" points="57.812 30.854 57.221 30.854 41.678 34.265 41.678 6.457 57.5 2.985 74.637 7.021 75.177 7.021 92.491 3.222 108.322 6.695 108.322 34.503 92.779 31.092 92.202 31.092 74.924 34.884 57.812 30.854"/>
    <path class="cls-3" d="M57.48718,4.68848,74.06787,8.593l.37573.08838h.9137l.35193-.07715L92.4906,4.92212,106.661,8.03125V32.43677l-13.34936-2.9292-.35193-.07715h-.93824l-.35192.07715L74.93628,33.1792l-16.5564-3.89868-.37573-.08838h-.96387l-.35193.07715L43.339,32.19824V7.793L57.48718,4.68848m.131-3.3833h-.21753L40.01575,5.11987v31.21l17.38488-3.81445h.21753l17.21143,4.053H74.997l17.38489-3.8147h.21753l17.38488,3.8147V5.35815L92.59937,1.5437h-.21753L74.997,5.35815h-.16736l-17.21143-4.053Z"/>
  </g>
  <g>
    <path class="cls-3" d="M70.83545,10.03164a4.82165,4.82165,0,0,1,4.99707,4.67578v1.001a3.3726,3.3726,0,0,1-1.92188,3.05566,3.61556,3.61556,0,0,1,2.09082,3.25781v2.06055a4.83472,4.83472,0,0,1-4.998,4.72656H69.0835a9.24824,9.24824,0,0,1-4.48438-1.07617l.55957-2.73633a11.61756,11.61756,0,0,0,4.2207.61231H70.269a1.64142,1.64142,0,0,0,1.71778-1.66113V22.00625A1.66011,1.66011,0,0,0,70.269,20.3168H68.29736V17.38711H70.269a1.64528,1.64528,0,0,0,1.71778-1.67871V14.893a1.658,1.658,0,0,0-1.71778-1.6875H69.4585a14.03151,14.03151,0,0,0-4.32227.53223L64.57666,11.016a10.52483,10.52483,0,0,1,4.50781-.98438Z"/>
    <path class="cls-3" d="M81.15674,28.64492V14.13516L78.687,14.891l-.98926-3.29688,4.957-1.51758h2.76855V28.64492Z"/>
  </g>
  <path d="M132.916,108.85331c-5.78142-.94309-8.58711,2.183-8.58711,2.183s-3.19977,4.10278-5.79165,8.19531L73.6982,79.948c.51647-.969-.08842-1.41422-.08842-1.41422a7.69386,7.69386,0,0,1-1.92046-4.8875c.415-.90642.54107-1.57316.25959-1.81483l-2.13114-1.83331c-.22305-.19135-.681-.07563-1.26922.24252L29.61684,36.13215a.518.518,0,0,0-.12226-.23286c-.69119-.59338-3.14773,1.13473-5.48685,3.85968-2.20635,2.5697-3.49745,5.086-3.05988,5.86386l-.04748.05431L55.49175,75.98308a2.65583,2.65583,0,0,1,.32655-1.46427c.85609-1.49525,3.02974-1.86,4.85509-.81486,1.82535,1.04488,2.61122,3.10423,1.75512,4.59948a2.6802,2.6802,0,0,1-1.30376,1.1154,4.09,4.09,0,0,0-2.04911-2.73348c-1.82535-1.04488-3.99914-.6801-4.85509.81515-.856,1.495-.07037,3.5546,1.755,4.59949a3.76085,3.76085,0,0,0,4.28786-.15325l1.72684,1.4853c.35455.30423,1.26537-.112,2.43565-1.01475a1.77635,1.77635,0,0,0,.44738.60533l3.03244,2.64931c.04364.0381.09255.0654.13861.09838l-.04848.05544a1.80681,1.80681,0,0,0,.17159,2.54213l3.03244,2.64932a1.80713,1.80713,0,0,0,2.54241-.17117l.88481-1.01275L115.327,125.49073c-2.10668,5.7237-5.63214,18.14376-5.63214,18.14376s-.59153,3.90147,1.57117,4.03055c2.16284.12852,2.887-2.73234,2.887-2.73234l1.03891-3.01069a23.22668,23.22668,0,0,0-3.91228.23514c2.61151-3.2191,6.6078-3.44286,8.61426-3.32345,1.1019.00427,2.37566.06625,3.80182.186,3.67885.30877,4.62565-2.26918,4.62565-2.26918l8.73538-21.7683C137.63082,113.38485,138.69774,109.79613,132.916,108.85331Z"/>
  <polygon points="51.261 67.087 57.522 80.391 64.826 81.435 63.522 71.261 51.261 67.087"/>
  <path class="cls-5" d="M132.916,101.41853c-5.78142-.9431-8.58711,2.183-8.58711,2.183s-3.19977,4.10277-5.79165,8.19531L73.6982,72.51317c.51647-.969-.08842-1.41422-.08842-1.41422a7.69386,7.69386,0,0,1-1.92046-4.8875c.415-.90642.54107-1.57316.25959-1.81483L69.81777,62.5633c-.22305-.19134-.681-.07563-1.26922.24253L29.61684,28.69737a.518.518,0,0,0-.12226-.23286c-.69119-.59338-3.14773,1.13473-5.48685,3.85967-2.20635,2.56971-3.49745,5.086-3.05988,5.86387l-.04748.05431L55.49175,68.54829A2.6558,2.6558,0,0,1,55.8183,67.084c.85609-1.49525,3.02974-1.86,4.85509-.81487,1.82535,1.04489,2.61122,3.10424,1.75512,4.59949a2.6802,2.6802,0,0,1-1.30376,1.1154,4.09,4.09,0,0,0-2.04911-2.73348c-1.82535-1.04489-3.99914-.6801-4.85509.81515-.856,1.495-.07037,3.5546,1.755,4.59949a3.76085,3.76085,0,0,0,4.28786-.15325l1.72684,1.4853c.35455.30422,1.26537-.112,2.43565-1.01475a1.77632,1.77632,0,0,0,.44738.60532l3.03244,2.64932c.04364.0381.09255.06539.13861.09838l-.04848.05544a1.80681,1.80681,0,0,0,.17159,2.54213l3.03244,2.64931a1.80713,1.80713,0,0,0,2.54241-.17116l.88481-1.01276L115.327,118.056c-2.10668,5.72369-5.63214,18.14375-5.63214,18.14375s-.59153,3.90148,1.57117,4.03056c2.16284.12851,2.887-2.73234,2.887-2.73234l1.03891-3.01069a23.22732,23.22732,0,0,0-3.91228.23513c2.61151-3.2191,6.6078-3.44286,8.61426-3.32344,1.1019.00426,2.37566.06625,3.80182.18594,3.67885.30878,4.62565-2.26917,4.62565-2.26917l8.73538-21.7683C137.63082,105.95006,138.69774,102.36135,132.916,101.41853Z"/>
</svg>
