<svg id="Layer_2" data-name="Layer 2" xmlns="http://www.w3.org/2000/svg" width="150" height="150" viewBox="0 0 150 150">
  <defs>
    <style>
      .cls-1 {
        fill: #bd1c25;
        stroke: #878076;
        stroke-miterlimit: 10;
        stroke-width: 3px;
      }

      .cls-2 {
        fill: #202c59;
      }

      .cls-3 {
        fill: #424535;
      }

      .cls-4 {
        fill: #dbd7c1;
      }

      .cls-5 {
        fill: #faecda;
      }
    </style>
  </defs>
  <circle class="cls-1" cx="75" cy="81.05233" r="59.99264"/>
  <g>
    <path class="cls-2" d="M95.46039,50.60885S86.2655,40.93,88.32225,37.05848s14.88121.242,20.20457,7.13814c4.22428,5.47237,4.11351,14.51825,4.71843,18.2688s.41082,7.6894,3.28785,7.29708c3.81456-.52017,2.16543-4.18525,1.5605-6.242s-4.00145-9.887-1.9447-11.5808,9.79983,6.29124,9.07391,13.18741-8.227,17.05895-9.31588,18.87373-.26134,3.59909,1.31973,3.274c4.94471-1.01679,5.21349-9.80718,6.7863-12.22689s3.50858-3.14562,4.9604-.48394,1.57281,10.04179-1.57281,13.55037-16.696,9.19489-18.38979,11.37263-1.05671,3.63074,1.28033,3.39286c7.4738-.76075,7.06767-6.17553,12.996-7.50637s5.8073.60493,3.2666,5.44435-11.37263,6.41223-16.696,8.106-13.5122,4.22184-11.00967,6.04928c4.33415,3.165,6.53321-1.08887,9.31588-2.66168s10.52573-4.71844,11.6146-1.20986-9.07391,12.58249-14.39727,13.3084-14.03431-3.75055-20.08358-2.78266-14.27629,5.8073-16.938,8.106-7.50109,4.47646-8.348.48394,4.47646-7.86405,16.09106-11.37263,24.681-8.71095,25.52793-18.14782-1.20985-8.469-2.41971-12.70347-1.81478-7.985.242-8.95292,6.29125,1.20985,6.77519,6.29124.18372,8.96346,1.63554,8.35853,6.76218-3.29439-.54667-14.64977c-5.158-8.01376-6.77519-5.32336-9.1949-11.97756s-1.57281-10.04179.242-10.16278,6.29125,3.75055,8.348,10.04179,2.78267,9.43687,4.23449,8.106.363-7.5011-1.81478-11.73559-7.5011-8.59-9.1949-9.43686A30.55374,30.55374,0,0,1,95.46039,50.60885Z"/>
    <path class="cls-2" d="M54.53961,50.60885S63.7345,40.93,61.67775,37.05848s-14.88121.242-20.20457,7.13814c-4.22428,5.47237-4.11351,14.51825-4.71843,18.2688s-.41082,7.6894-3.28785,7.29708c-3.81456-.52017-2.16543-4.18525-1.5605-6.242s4.00145-9.887,1.9447-11.5808-9.79983,6.29124-9.07391,13.18741,8.227,17.05895,9.31588,18.87373.26134,3.59909-1.31973,3.274c-4.94471-1.01679-5.21349-9.80718-6.7863-12.22689s-3.50858-3.14562-4.9604-.48394-1.57281,10.04179,1.57281,13.55037,16.696,9.19489,18.38979,11.37263,1.05671,3.63074-1.28033,3.39286c-7.4738-.76075-7.06767-6.17553-12.996-7.50637s-5.8073.60493-3.2666,5.44435,11.37263,6.41223,16.696,8.106,13.5122,4.22184,11.00967,6.04928c-4.33415,3.165-6.53321-1.08887-9.31588-2.66168s-10.52573-4.71844-11.6146-1.20986S39.29544,123.68406,44.6188,124.41s14.03431-3.75055,20.08358-2.78266,14.27629,5.8073,16.938,8.106,7.50109,4.47646,8.348.48394-4.47646-7.86405-16.09106-11.37263-24.681-8.71095-25.52793-18.14782,1.20985-8.469,2.41971-12.70347,1.81478-7.985-.242-8.95292-6.29125,1.20985-6.77519,6.29124-.18372,8.96346-1.63554,8.35853-6.76218-3.29439.54667-14.64977c5.158-8.01376,6.77519-5.32336,9.1949-11.97756s1.57281-10.04179-.242-10.16278-6.29125,3.75055-8.348,10.04179-2.78267,9.43687-4.23449,8.106-.363-7.5011,1.81478-11.73559,7.5011-8.59,9.1949-9.43686A30.55374,30.55374,0,0,0,54.53961,50.60885Z"/>
  </g>
  <polygon class="cls-3" points="74.997 39.949 93.106 36.135 93.333 36.135 111.442 39.949 111.442 8.739 93.333 4.925 93.106 4.925 74.997 8.739 74.823 8.739 56.894 4.686 56.667 4.686 38.558 8.501 38.558 39.711 56.667 35.896 56.894 35.896 74.823 39.949 74.997 39.949"/>
  <g>
    <polygon class="cls-4" points="57.812 30.854 57.221 30.854 41.678 34.265 41.678 6.457 57.5 2.985 74.637 7.021 75.177 7.021 92.491 3.222 108.322 6.695 108.322 34.503 92.779 31.092 92.202 31.092 74.924 34.884 57.812 30.854"/>
    <path class="cls-3" d="M57.48718,4.68848,74.06787,8.593l.37573.08838h.9137l.35193-.07715L92.4906,4.92212,106.661,8.03137V32.43665L93.31165,29.50757l-.35193-.07715h-.93824l-.35192.07715L74.9364,33.1792,58.37988,29.2804l-.37573-.08851h-.96387l-.35193.07728L43.339,32.19824V7.79285L57.48718,4.68848m.131-3.3833h-.21753L40.01575,5.11975V36.32983l17.38488-3.81457h.21753l17.21143,4.053H74.997l17.38489-3.81458h.21753l17.38488,3.81458V5.35815L92.59937,1.5437h-.21753L74.997,5.35815h-.16736l-17.21143-4.053Z"/>
  </g>
  <g>
    <path class="cls-3" d="M64.58789,28.64453,70.6543,13.26562H63.4375V10.07617H76.33984l-7.3125,18.56836Z"/>
    <path class="cls-3" d="M81.10352,28.64551V14.13477l-2.46973.75683-.98926-3.29687,4.957-1.51856h2.76856V28.64453Z"/>
  </g>
  <path d="M106.439,121.93066a8.52487,8.52487,0,0,1-3.24511-1.98535l-3.05481-4.61792,3.557-4.00879-1.60083-1.42028-.53247.60022L86.356,97.00525l-2.39881-.92407-3.264-2.89612L116.1687,59.47119l5.70325-5.06067L120.98413,53.41l-5.65991,5.02234c-.20752-.2539-.43872-.53589-.67944-.82776l8.73071-7.74682-1.33167-1.50061-2.5011,2.21924-1.77539-2.001-1.40063,1.24292,1.77539,2.00085-4.783,4.244a7.70414,7.70414,0,0,0-.9956-1.08349L75,88.1333,37.63647,54.97974a7.70414,7.70414,0,0,0-.9956,1.08349l-4.783-4.244,1.77539-2.00085-1.40063-1.24292-1.77539,2.001-2.5011-2.21924-1.33167,1.50061,8.73071,7.74682c-.24072.29187-.47192.57386-.67944.82776L29.01587,53.41l-.88782,1.00049,5.70325,5.06067L69.30688,93.18506l-3.264,2.89612-2.39881.92407L48.43726,110.49854l-.53247-.60022L46.304,111.3186l3.557,4.00879-3.05481,4.61792a8.52487,8.52487,0,0,1-3.24511,1.98535l-17.0315,17.07947s6.83545,7.70349,11.45435,9.68469l10.36938-19.75109s1.95728-2.63074,2.82373-2.86329c.8667-.23254,1.5459-2.08679,1.32471-3.14221-.14649-.69873.67285-2.95666,1.5979-4.82348a3.515,3.515,0,0,0,2.82532,1.07348,5.27194,5.27194,0,0,0,1.95617-1.15771,4.33529,4.33529,0,0,0,1.4065-2.12769,5.99639,5.99639,0,0,0-.248-3.08984L75,98.59546,89.96045,112.813a5.99639,5.99639,0,0,0-.248,3.08984,4.33529,4.33529,0,0,0,1.4065,2.12769,5.27194,5.27194,0,0,0,1.95617,1.15771,3.515,3.515,0,0,0,2.82532-1.07348c.925,1.86682,1.74439,4.12475,1.5979,4.82348-.22119,1.05542.458,2.90967,1.32471,3.14221.86645.23255,2.82373,2.86329,2.82373,2.86329l10.36938,19.75109c4.6189-1.9812,11.45435-9.68469,11.45435-9.68469Zm-47.91113-8.157a2.26386,2.26386,0,0,1,.092,2.96082c-1.04883,1.16906-1.45434,1.35315-2.04516,1.45691a1.88808,1.88808,0,0,1-1.88916-1.17823,8.47719,8.47719,0,0,1,.79907-1.19214A9.25494,9.25494,0,0,1,58.52783,113.77368ZM94.51538,115.821a8.47719,8.47719,0,0,1,.79907,1.19214,1.88808,1.88808,0,0,1-1.88916,1.17823c-.59082-.10376-.99633-.28785-2.04516-1.45691a2.26386,2.26386,0,0,1,.092-2.96082A9.25494,9.25494,0,0,1,94.51538,115.821Z"/>
  <path class="cls-5" d="M106.439,115.99487a8.526,8.526,0,0,1-3.24511-1.98547l-3.05481-4.618,3.557-4.00855-1.60083-1.42041-.53247.60022L86.356,91.06934l-2.39881-.92408-3.264-2.89624L116.1687,53.53528l5.70325-5.06067-.88782-1.00049-5.65991,5.02222c-.20752-.25366-.43872-.53565-.67944-.82764l8.73071-7.74682-1.33167-1.50074-2.5011,2.21936-1.77539-2.00085-1.40063,1.24267,1.77539,2.001-4.783,4.2439a7.692,7.692,0,0,0-.9956-1.08325L75,82.19739,37.63647,49.044a7.692,7.692,0,0,0-.9956,1.08325l-4.783-4.2439,1.77539-2.001-1.40063-1.24267L30.45728,44.6405l-2.5011-2.21936-1.33167,1.50074,8.73071,7.74682c-.24072.292-.47192.574-.67944.82764l-5.65991-5.02222-.88782,1.00049,5.70325,5.06067L69.30688,87.249l-3.264,2.89624-2.39881.92408L48.43726,104.56262l-.53247-.60022L46.304,105.38281l3.557,4.00855-3.05481,4.618a8.526,8.526,0,0,1-3.24511,1.98547l-17.0315,17.07935s6.83545,7.70349,11.45435,9.68457l10.36938-19.751s1.95728-2.63073,2.82373-2.86328c.8667-.23242,1.5459-2.08691,1.32471-3.14221-.14649-.69861.67285-2.95667,1.5979-4.82349a3.51579,3.51579,0,0,0,2.82532,1.07349,5.27185,5.27185,0,0,0,1.95617-1.15772,4.33415,4.33415,0,0,0,1.4065-2.12768,5.99565,5.99565,0,0,0-.248-3.08972L75,92.65955,89.96045,106.8772a5.99565,5.99565,0,0,0-.248,3.08972,4.33415,4.33415,0,0,0,1.4065,2.12768,5.27185,5.27185,0,0,0,1.95617,1.15772,3.51579,3.51579,0,0,0,2.82532-1.07349c.925,1.86682,1.74439,4.12488,1.5979,4.82349-.22119,1.0553.458,2.90979,1.32471,3.14221.86645.23255,2.82373,2.86328,2.82373,2.86328l10.36938,19.751c4.6189-1.98108,11.45435-9.68457,11.45435-9.68457Zm-47.91125-8.15722a2.264,2.264,0,0,1,.09216,2.96093c-1.04883,1.16907-1.45434,1.353-2.04516,1.457a1.8882,1.8882,0,0,1-1.88916-1.17835,8.4864,8.4864,0,0,1,.79907-1.19226A9.25636,9.25636,0,0,1,58.52771,107.83765ZM94.51538,109.885a8.4864,8.4864,0,0,1,.79907,1.19226,1.8882,1.8882,0,0,1-1.88916,1.17835c-.59082-.104-.99633-.288-2.04516-1.457a2.264,2.264,0,0,1,.09216-2.96093A9.25636,9.25636,0,0,1,94.51538,109.885Z"/>
</svg>
