<svg id="Layer_2" data-name="Layer 2" xmlns="http://www.w3.org/2000/svg" width="150" height="150" viewBox="0 0 150 150">
  <defs>
    <style>
      .cls-1 {
        fill: #bd1c25;
        stroke: #878076;
        stroke-miterlimit: 10;
        stroke-width: 3px;
      }

      .cls-2 {
        fill: #202c59;
      }

      .cls-3 {
        fill: #424535;
      }

      .cls-4 {
        fill: #dbd7c1;
      }

      .cls-5 {
        fill: #faecda;
      }
    </style>
  </defs>
  <circle class="cls-1" cx="75" cy="81.05233" r="59.99264"/>
  <g>
    <path class="cls-2" d="M95.46039,50.60885S86.2655,40.93,88.32225,37.05848s14.88121.242,20.20457,7.13814c4.22428,5.47237,4.11351,14.51825,4.71843,18.2688s.41082,7.6894,3.28785,7.29708c3.81456-.52017,2.16543-4.18525,1.5605-6.242s-4.00145-9.887-1.9447-11.5808,9.79983,6.29124,9.07391,13.18741-8.227,17.05895-9.31588,18.87373-.26134,3.59909,1.31973,3.274c4.94471-1.01679,5.21349-9.80718,6.7863-12.22689s3.50858-3.14562,4.9604-.48394,1.57281,10.04179-1.57281,13.55037-16.696,9.19489-18.38979,11.37263-1.05671,3.63074,1.28033,3.39286c7.4738-.76075,7.06767-6.17553,12.996-7.50637s5.8073.60493,3.2666,5.44435-11.37263,6.41223-16.696,8.106-13.5122,4.22184-11.00967,6.04928c4.33415,3.165,6.53321-1.08887,9.31588-2.66168s10.52573-4.71844,11.6146-1.20986-9.07391,12.58249-14.39727,13.3084-14.03431-3.75055-20.08358-2.78266-14.27629,5.8073-16.938,8.106-7.50109,4.47646-8.348.48394,4.47646-7.86405,16.09106-11.37263,24.681-8.71095,25.52793-18.14782-1.20985-8.469-2.41971-12.70347-1.81478-7.985.242-8.95292,6.29125,1.20985,6.77519,6.29124.18372,8.96346,1.63554,8.35853,6.76218-3.29439-.54667-14.64977c-5.158-8.01376-6.77519-5.32336-9.1949-11.97756s-1.57281-10.04179.242-10.16278,6.29125,3.75055,8.348,10.04179,2.78267,9.43687,4.23449,8.106.363-7.5011-1.81478-11.73559-7.5011-8.59-9.1949-9.43686A30.55374,30.55374,0,0,1,95.46039,50.60885Z"/>
    <path class="cls-2" d="M54.53961,50.60885S63.7345,40.93,61.67775,37.05848s-14.88121.242-20.20457,7.13814c-4.22428,5.47237-4.11351,14.51825-4.71843,18.2688s-.41082,7.6894-3.28785,7.29708c-3.81456-.52017-2.16543-4.18525-1.5605-6.242s4.00145-9.887,1.9447-11.5808-9.79983,6.29124-9.07391,13.18741,8.227,17.05895,9.31588,18.87373.26134,3.59909-1.31973,3.274c-4.94471-1.01679-5.21349-9.80718-6.7863-12.22689s-3.50858-3.14562-4.9604-.48394-1.57281,10.04179,1.57281,13.55037,16.696,9.19489,18.38979,11.37263,1.05671,3.63074-1.28033,3.39286c-7.4738-.76075-7.06767-6.17553-12.996-7.50637s-5.8073.60493-3.2666,5.44435,11.37263,6.41223,16.696,8.106,13.5122,4.22184,11.00967,6.04928c-4.33415,3.165-6.53321-1.08887-9.31588-2.66168s-10.52573-4.71844-11.6146-1.20986S39.29544,123.68406,44.6188,124.41s14.03431-3.75055,20.08358-2.78266,14.27629,5.8073,16.938,8.106,7.50109,4.47646,8.348.48394-4.47646-7.86405-16.09106-11.37263-24.681-8.71095-25.52793-18.14782,1.20985-8.469,2.41971-12.70347,1.81478-7.985-.242-8.95292-6.29125,1.20985-6.77519,6.29124-.18372,8.96346-1.63554,8.35853-6.76218-3.29439.54667-14.64977c5.158-8.01376,6.77519-5.32336,9.1949-11.97756s1.57281-10.04179-.242-10.16278-6.29125,3.75055-8.348,10.04179-2.78267,9.43687-4.23449,8.106-.363-7.5011,1.81478-11.73559,7.5011-8.59,9.1949-9.43686A30.55374,30.55374,0,0,0,54.53961,50.60885Z"/>
  </g>
  <polygon class="cls-3" points="74.997 39.949 93.106 36.135 93.333 36.135 111.442 39.949 111.442 8.739 93.333 4.925 93.106 4.925 74.997 8.739 74.823 8.739 56.894 4.686 56.667 4.686 38.558 8.501 38.558 39.711 56.667 35.896 56.894 35.896 74.823 39.949 74.997 39.949"/>
  <g>
    <polygon class="cls-4" points="57.812 30.854 57.221 30.854 41.678 34.265 41.678 6.457 57.5 2.985 74.637 7.021 75.177 7.021 92.491 3.222 108.322 6.695 108.322 34.503 92.779 31.092 92.202 31.092 74.924 34.884 57.812 30.854"/>
    <path class="cls-3" d="M57.48718,4.68848,74.06787,8.593l.37573.08838h.9137l.35193-.07715L92.4906,4.92212,106.661,8.03125V32.43677l-13.34936-2.9292-.35193-.07715h-.93824l-.35192.07715L74.93628,33.1792l-16.5564-3.89868-.37573-.08838h-.96387l-.35193.07715L43.339,32.19824V7.793L57.48718,4.68848m.131-3.3833h-.21753L40.01575,5.11987v31.21l17.38488-3.81445h.21753l17.21143,4.053H74.997l17.38489-3.8147h.21753l17.38488,3.8147V5.35815L92.59937,1.5437h-.21753L74.997,5.35815h-.16736l-17.21143-4.053Z"/>
  </g>
  <g>
    <path class="cls-3" d="M69.00293,10.03164A4.82165,4.82165,0,0,1,74,14.70742V15.268a5.09166,5.09166,0,0,1-2.84668,4.334l-3.72754,1.97266a2.49974,2.49974,0,0,0-1.39941,2.21289V25.557H74v3.08789H61.99512V23.266c0-1.99707,1.15429-3.4668,3.08008-4.47266l4.084-2.13477a1.567,1.567,0,0,0,.87109-1.376V15.0082a1.53779,1.53779,0,0,0-1.583-1.53418H67.33594a12.7682,12.7682,0,0,0-4.126.5752l-.46582-3.0332a10.52362,10.52362,0,0,1,4.50684-.98438Z"/>
    <path class="cls-3" d="M76.84766,28.64492l6.0664-15.3789H75.69727V10.07656H88.59863L81.28711,28.64492Z"/>
  </g>
  <path d="M142.88525,113.9729c-.73-1.55127-6.66113-2.64624-6.66113-2.64624a4.95114,4.95114,0,0,0-2.18994.365,17.025,17.025,0,0,1-2.73743,1.27759c-.43445.07226-13.15893-4.10523-18.39648-5.834l.75256-2.11035c1.1814.46485,2.251.8794,2.4054.918a3.92926,3.92926,0,0,0,1.36877-.27368l-.2738,2.46362,2.46374.54761.91248-5.56616-4.015-2.91992-1.00366-1.18628.1825-.91236,1.38623.51075a1.84173,1.84173,0,0,0,.89526.65869c1.27625.405,2.7804-.74659,3.35962-2.57178s.01428-3.6333-1.26184-4.03833a1.95809,1.95809,0,0,0-1.49939.17212l.04016-.20654-2.09888-.27369-4.28857-1.46-1.27759.27368L106.56836,89.427l.09131-.91235-2.73755-.9126-2.18994.27368a10.73837,10.73837,0,0,0,1.36877-2.73755c.82117-2.09863.27381-3.55859-1.095-3.74121a1.5857,1.5857,0,0,0-1.4779.83887C101.44128,61.65991,94.43237,48.73,94.43237,48.73l-3.65.18262-7.66492,7.93847a60.01981,60.01981,0,0,1,4.87964,23.63379L85.67236,79.937l-.09118,3.92383-2.73743.18262-.75464,1.166-1.29626-.4624.13464-1.61621,1.46-.18262c1.73377-.45605,2.28125-3.01123,2.28125-3.01123l.73-5.29223a4.8351,4.8351,0,0,0-.54748-1.91626l-.02478.01879a2.248,2.248,0,0,0-1.42383-2.12377,2.12138,2.12138,0,0,0-2.08155.62329,1.33387,1.33387,0,0,1-.728-.22168,8.59246,8.59246,0,0,0-3.46753-2.79834,11.2566,11.2566,0,0,0-3.9563-.31226,3.31,3.31,0,0,0-2.10986-3.02539c-1.74976-.53979-3.73413.85742-4.43213,3.12085-.69824,2.26343.15417,4.53564,1.90381,5.07544a3.25083,3.25083,0,0,0,3.31665-1.15479,7.00187,7.00187,0,0,0,3.75708,2.3794c2.67651.6084,3.77148,0,3.77148,0a2.01812,2.01812,0,0,1,.93677-.02442,2.1627,2.1627,0,0,0,1.395,1.832,1.8176,1.8176,0,0,0,1.073-.019c-.21021,1.41236-.4563,3.105-.48475,3.47364a1.83325,1.83325,0,0,1-1.18615,1.551l-5.56629-1.00366a10.10528,10.10528,0,0,0-3.1101,1.64673L40.26819,70.2959a9.861,9.861,0,0,1,1.14868-.8523l1.73376.09107.365-.27368.73-3.74121-.27381-.63868-3.01111-.91235-.4563.63867-2.28125-.63867a1.352,1.352,0,0,0-.82128.27368c-.27369.27368-.09119,2.18994-.45618,2.73731a8.19274,8.19274,0,0,1-2.68836,1.17285L17.12207,62.042a2.21382,2.21382,0,0,0-2.82886,1.3418l-.07812.219a2.21363,2.21363,0,0,0,1.34155,2.82862l17.38818,6.20068-.10534.55273c-2.00745-.45629-2.28113.27369-2.28113.27369l-.27417.36547a1.59035,1.59035,0,0,0-.72961-.18286,1.66561,1.66561,0,0,0-1.64246,1.688,1.7,1.7,0,0,0,.40161,1.09473l-1.58789,1.32324a4.94538,4.94538,0,0,0,1.84058,2.01953L7.90454,126.29053l-1.08911-.68067H3.6521v1.095l4.13672,3.04175,2.43323.12158,3.65-1.095-.24341-1.21655-3.16907-.09912L31.64478,80.37207a2.85812,2.85812,0,0,0,1.0122-.34375,6.226,6.226,0,0,0,1.12293-.8623l5.73364,2.04443,7.94983,55.56689-.57153-.35742H43.72852v1.09522l4.13659,3.0415,2.43323.12158,3.65-1.095-.24328-1.21655-3.10718-.09717L43.09351,82.48706,75.125,93.90967l-.31116,2.17846,11.86243,5.20118,1.64233.09131,9.21619,2.55493-.82117,6.75244,1.825.63867a2.29959,2.29959,0,0,0,1.46,1.73364c1.27734.4563,3.6499,1.18628,3.6499,1.18628l-.27368,1.18628a2.92176,2.92176,0,0,1,1.36865,1.46c.27368.91236-.54749,10.85864-.73,11.406a2.36547,2.36547,0,0,0,.18249,1.36865,29.86274,29.86274,0,0,0,4.83618.36523c2.82874,0,3.10242-.36523,3.10242-.36523l.54761-2.37231-.09131-3.74121s-1.095-6.84351-1.00378-7.75611.45617-1.095.45617-1.095l14.96485,15.8772a9.82079,9.82079,0,0,0,5.56616,2.55493c3.28491.27368,3.55871-.365,3.83252-1.36865.27368-1.00366,2.28125-8.5774,2.91992-10.311a14.3909,14.3909,0,0,1,2.18994-4.1062C141.9729,116.98413,143.61536,115.52417,142.88525,113.9729ZM59.67834,82.16528l.172,1.89185-14.72241-5.25-.4762-2.00025Zm2.66949,3.61733L60.19565,75.02174,44.54348,69.54348,43.56522,80.8913Z"/>
  <g>
    <path class="cls-5" d="M142.88525,107.488c-.73-1.55127-6.66113-2.64624-6.66113-2.64624a4.95114,4.95114,0,0,0-2.18994.365,17.025,17.025,0,0,1-2.73743,1.27759c-.43445.07226-13.15893-4.10523-18.39648-5.834l.75256-2.11035c1.1814.46484,2.251.87939,2.4054.918a3.92926,3.92926,0,0,0,1.36877-.27368l-.2738,2.46362,2.46374.54761.91248-5.56617-4.015-2.91992-1.00366-1.18628.1825-.91235,1.38623.5105a1.84066,1.84066,0,0,0,.89526.65893c1.27625.40479,2.7804-.74658,3.35962-2.57177s.01428-3.6333-1.26184-4.03833a1.95809,1.95809,0,0,0-1.49939.17212l.04016-.20655-2.09888-.27368-4.28857-1.46-1.27759.27368-4.37988-1.73364.09131-.9126-2.73755-.91235-2.18994.27368a10.73837,10.73837,0,0,0,1.36877-2.73755c.82117-2.09863.27381-3.55859-1.095-3.74121a1.58568,1.58568,0,0,0-1.4779.83887c.91308-20.57618-6.09571-33.50586-6.09571-33.50586l-3.65.18261-7.66492,7.93848A60.019,60.019,0,0,1,87.99707,74l-2.32471-.54785L85.58118,77.376l-2.73743.18237-.75464,1.16626-1.29626-.4624.13464-1.61621,1.46-.18262c1.73377-.45606,2.28125-3.01123,2.28125-3.01123l.73-5.29248a4.835,4.835,0,0,0-.54748-1.916l-.02478.0188a2.248,2.248,0,0,0-1.42383-2.12378,2.12179,2.12179,0,0,0-2.08155.623,1.3318,1.3318,0,0,1-.728-.22144,8.59246,8.59246,0,0,0-3.46753-2.79834,9.20255,9.20255,0,0,0-2.90039-.34887,6.03182,6.03182,0,0,1-.19654,2.40063,5.8803,5.8803,0,0,1-1.3944,2.4624,6.69648,6.69648,0,0,0,2.97058,1.5691c2.67651.60839,3.77148,0,3.77148,0a2.01964,2.01964,0,0,1,.93677-.02466,2.16273,2.16273,0,0,0,1.395,1.83227,1.81768,1.81768,0,0,0,1.073-.019c-.21021,1.41235-.4563,3.10474-.48475,3.47339a1.83335,1.83335,0,0,1-1.18615,1.55127l-5.56629-1.00366a10.10545,10.10545,0,0,0-3.1101,1.64672L40.26819,63.811a9.87808,9.87808,0,0,1,1.14868-.85254l1.73376.0913.365-.27368.73-3.74121-.27381-.63867-3.01111-.9126-.4563.63892-2.28125-.63892a1.352,1.352,0,0,0-.82128.27368c-.27369.27393-.09119,2.19019-.45618,2.73755a8.19626,8.19626,0,0,1-2.68836,1.17285L17.12207,55.55713a2.21389,2.21389,0,0,0-2.82886,1.34155l-.07812.219a2.21378,2.21378,0,0,0,1.34155,2.82885l17.38818,6.20069-.10534.55249c-2.00745-.45606-2.28113.27392-2.28113.27392l-.27417.36548a1.59054,1.59054,0,0,0-.72961-.1831,1.66582,1.66582,0,0,0-1.64246,1.68823,1.70129,1.70129,0,0,0,.40161,1.09472l-1.58789,1.32325a4.94544,4.94544,0,0,0,1.84058,2.01953L7.90454,119.80566,6.81543,119.125H3.6521v1.095l4.13672,3.04175,2.43323.12158,3.65-1.095-.24341-1.2168-3.16894-.09887L31.64478,73.88721a2.85767,2.85767,0,0,0,1.0122-.34375,6.22514,6.22514,0,0,0,1.12293-.86255l5.73364,2.04468,7.94983,55.56689-.57153-.35742H43.72852v1.095l4.13659,3.04175,2.43323.12158,3.65-1.095-.24328-1.21655-3.10718-.09717L43.09351,76.0022,75.125,87.4248l-.31116,2.17847,11.86243,5.20117,1.64233.09107,9.21619,2.55517-.82117,6.75244,1.825.63868a2.29959,2.29959,0,0,0,1.46,1.73364c1.27734.4563,3.6499,1.18628,3.6499,1.18628l-.27368,1.18628a2.92053,2.92053,0,0,1,1.36865,1.46c.27368.91235-.54749,10.85864-.73,11.406a2.36551,2.36551,0,0,0,.18249,1.36866,29.86274,29.86274,0,0,0,4.83618.36523c2.82874,0,3.10242-.36523,3.10242-.36523l.54761-2.37232-.09131-3.74121s-1.095-6.84375-1.00378-7.7561c.09118-.9126.45617-1.095.45617-1.095l14.96485,15.87719a9.82084,9.82084,0,0,0,5.56616,2.55494c3.28491.27368,3.55871-.365,3.83252-1.36866.27368-1.00366,2.28125-8.57739,2.91992-10.31128a14.38854,14.38854,0,0,1,2.18994-4.10595C141.9729,110.499,143.61536,109.03906,142.88525,107.488ZM45.12793,72.32227l-.4762-2.00049,15.02661,5.35864.172,1.89185Zm59.29614,34.02514a3.37763,3.37763,0,0,1-1.8706-.54761c-1.14063-.63867-.9126-1.50561-.9126-1.50561l.27392-2.82861c.27369-.41065,1.36866-.54761,1.36866-.54761,1.36865-.41065,2.96557,1.09521,2.87426,1.8706A19.92408,19.92408,0,0,1,104.42407,106.34741Z"/>
    <path class="cls-5" d="M68.531,66.60059a3.05961,3.05961,0,0,0,2.86-.72266,5.856,5.856,0,0,0,1.42078-2.48975,5.61452,5.61452,0,0,0-.04651-3.43945,2.85459,2.85459,0,0,0-1.70593-1.54443c-1.74976-.5398-3.73413.85742-4.43213,3.12085C65.929,63.78857,66.78137,66.06079,68.531,66.60059Z"/>
  </g>
</svg>
