<svg id="Layer_2" data-name="Layer 2" xmlns="http://www.w3.org/2000/svg" width="150" height="150" viewBox="0 0 150 150">
  <defs>
    <style>
      .cls-1 {
        fill: #bd1c25;
        stroke: #878076;
        stroke-miterlimit: 10;
        stroke-width: 3px;
      }

      .cls-2 {
        fill: #202c59;
      }

      .cls-3 {
        fill: #424535;
      }

      .cls-4 {
        fill: #dbd7c1;
      }

      .cls-5 {
        fill: #faecda;
      }
    </style>
  </defs>
  <circle class="cls-1" cx="75" cy="81.05233" r="59.99264"/>
  <g>
    <path class="cls-2" d="M95.46039,50.60885S86.2655,40.93,88.32225,37.05848s14.88121.242,20.20457,7.13814c4.22428,5.47237,4.11351,14.51825,4.71843,18.2688s.41082,7.6894,3.28785,7.29708c3.81456-.52017,2.16543-4.18525,1.5605-6.242s-4.00145-9.887-1.9447-11.5808,9.79983,6.29124,9.07391,13.18741-8.227,17.05895-9.31588,18.87373-.26134,3.59909,1.31973,3.274c4.94471-1.01679,5.21349-9.80718,6.7863-12.22689s3.50858-3.14562,4.9604-.48394,1.57281,10.04179-1.57281,13.55037-16.696,9.19489-18.38979,11.37263-1.05671,3.63074,1.28033,3.39286c7.4738-.76075,7.06767-6.17553,12.996-7.50637s5.8073.60493,3.2666,5.44435-11.37263,6.41223-16.696,8.106-13.5122,4.22184-11.00967,6.04928c4.33415,3.165,6.53321-1.08887,9.31588-2.66168s10.52573-4.71844,11.6146-1.20986-9.07391,12.58249-14.39727,13.3084-14.03431-3.75055-20.08358-2.78266-14.27629,5.8073-16.938,8.106-7.50109,4.47646-8.348.48394,4.47646-7.86405,16.09106-11.37263,24.681-8.71095,25.52793-18.14782-1.20985-8.469-2.41971-12.70347-1.81478-7.985.242-8.95292,6.29125,1.20985,6.77519,6.29124.18372,8.96346,1.63554,8.35853,6.76218-3.29439-.54667-14.64977c-5.158-8.01376-6.77519-5.32336-9.1949-11.97756s-1.57281-10.04179.242-10.16278,6.29125,3.75055,8.348,10.04179,2.78267,9.43687,4.23449,8.106.363-7.5011-1.81478-11.73559-7.5011-8.59-9.1949-9.43686A30.55374,30.55374,0,0,1,95.46039,50.60885Z"/>
    <path class="cls-2" d="M54.53961,50.60885S63.7345,40.93,61.67775,37.05848s-14.88121.242-20.20457,7.13814c-4.22428,5.47237-4.11351,14.51825-4.71843,18.2688s-.41082,7.6894-3.28785,7.29708c-3.81456-.52017-2.16543-4.18525-1.5605-6.242s4.00145-9.887,1.9447-11.5808-9.79983,6.29124-9.07391,13.18741,8.227,17.05895,9.31588,18.87373.26134,3.59909-1.31973,3.274c-4.94471-1.01679-5.21349-9.80718-6.7863-12.22689s-3.50858-3.14562-4.9604-.48394-1.57281,10.04179,1.57281,13.55037,16.696,9.19489,18.38979,11.37263,1.05671,3.63074-1.28033,3.39286c-7.4738-.76075-7.06767-6.17553-12.996-7.50637s-5.8073.60493-3.2666,5.44435,11.37263,6.41223,16.696,8.106,13.5122,4.22184,11.00967,6.04928c-4.33415,3.165-6.53321-1.08887-9.31588-2.66168s-10.52573-4.71844-11.6146-1.20986S39.29544,123.68406,44.6188,124.41s14.03431-3.75055,20.08358-2.78266,14.27629,5.8073,16.938,8.106,7.50109,4.47646,8.348.48394-4.47646-7.86405-16.09106-11.37263-24.681-8.71095-25.52793-18.14782,1.20985-8.469,2.41971-12.70347,1.81478-7.985-.242-8.95292-6.29125,1.20985-6.77519,6.29124-.18372,8.96346-1.63554,8.35853-6.76218-3.29439.54667-14.64977c5.158-8.01376,6.77519-5.32336,9.1949-11.97756s1.57281-10.04179-.242-10.16278-6.29125,3.75055-8.348,10.04179-2.78267,9.43687-4.23449,8.106-.363-7.5011,1.81478-11.73559,7.5011-8.59,9.1949-9.43686A30.55374,30.55374,0,0,0,54.53961,50.60885Z"/>
  </g>
  <polygon class="cls-3" points="74.993 39.949 111.766 36.134 112.226 36.134 148.999 39.949 148.999 8.739 112.226 4.924 111.766 4.924 74.993 8.739 74.639 8.739 38.233 4.686 37.772 4.686 0.999 8.5 0.999 39.71 37.772 35.896 38.233 35.896 74.639 39.949 74.993 39.949"/>
  <g>
    <polygon class="cls-4" points="74.778 34.167 38.864 30.114 38.149 30.114 4.399 33.663 4.399 7.28 38.401 3.705 38.595 3.705 74.509 7.758 75.119 7.758 111.396 3.943 111.598 3.943 145.6 7.519 145.6 33.901 111.85 30.353 111.144 30.353 74.867 34.167 74.778 34.167"/>
    <path class="cls-3" d="M38.4917,6.10876l35.61377,4.01893.26831.03027h.87085l.25024-.02625,36.00147-3.78564,31.70312,3.33362V31.2356l-30.97412-3.257-.25024-.02637h-.95728l-.25024.02637-35.937,3.77893L39.26733,27.74426,38.999,27.714h-.97558l-.25025.02624-30.97412,3.257V9.44128L38.4917,6.10876m.2373-4.80432h-.45385L1.99854,5.119V36.3291l36.27661-3.81457H38.729l35.9148,4.053h.34912l36.27661-3.81457h.45386L148,36.5675V5.35742L111.72339,1.54285h-.45386L74.99292,5.35742H74.6438L38.729,1.30444Z"/>
  </g>
  <g>
    <path class="cls-3" d="M16.42578,12.60254a11.14453,11.14453,0,0,1,4.19141.68945l-.39356,2.32129a12.5734,12.5734,0,0,0-4.14453-.55957,1.95836,1.95836,0,0,0-2.0664,2.17481v4.41113a1.93689,1.93689,0,0,0,1.99609,2.165l.30566.001a4.05738,4.05738,0,0,0,1.86426-.36035V20.64844H16.24805V18.45605h4.59082v6.666a8.46308,8.46308,0,0,1-4.37207,1.1416H15.916c-3.12793-.01953-5.00489-1.76953-5.00489-4.71191V17.3125c0-3.14551,2.11133-4.71094,5.00489-4.71Z"/>
    <path class="cls-3" d="M23.12109,15.31738V13.19922H26.166v2.11816Zm.08008,10.77442V16.57031H26.0791V26.0918Z"/>
    <path class="cls-3" d="M32.0752,18.78613a1.327,1.327,0,0,0-1.16407.58594V26.0918H28.0332V16.57031H30.377l.11719.96875a3.2852,3.2852,0,0,1,2.26856-1.0625l.35351-.00293v2.3125Z"/>
    <path class="cls-3" d="M34.1123,19.8457c0-2.52832,2.37793-3.43945,4.21582-3.43945,1.97559,0,4.2334.9043,4.2334,3.43945v2.2295H36.80371v.89355c0,.98437.94043,1.26563,1.54,1.26563.46,0,2.418-.16211,3.68359-.31153l.3086,1.876a20.89917,20.89917,0,0,1-3.73731.43066c-2.14746,0-4.48633-.77637-4.48633-3.4414Zm5.75782-.1709c0-1.00292-.92578-1.26562-1.54-1.26562a1.36013,1.36013,0,0,0-1.52637,1.26562v.9502h3.06641Z"/>
    <path class="cls-3" d="M49.41113,16.57031v2.19043h-2.0625v4.51465a.7287.7287,0,0,0,.76563.78516h1.29687v2.22168H47.49121a2.89168,2.89168,0,0,1-3.01562-2.70118V18.76172H43.5625V16.57031h.91309V14.42383h2.873v2.14648Z"/>
    <path class="cls-3" d="M54.61426,16.43555a8.22807,8.22807,0,0,1,2.71777.40527l-.21777,1.83594a6.83519,6.83519,0,0,0-2.18164-.37305h-.78809a.783.783,0,0,0-.80957.78809.7479.7479,0,0,0,.46875.7207L56,20.57422a2.39112,2.39112,0,0,1,1.95117,2.58105c0,2.165-1.35742,3.07032-3.6416,3.07032h-.73535a8.907,8.907,0,0,1-2.90625-.47852l.21191-1.80078a8.38351,8.38351,0,0,0,2.60352.4209h.69824a.98423.98423,0,0,0,.999-1.01758,1.03013,1.03013,0,0,0-.63086-1.00586l-2.293-.77148c-1.28223-.46-1.72852-.94434-1.72852-2.23731,0-1.95312,1.14746-2.90039,3.28223-2.90039Z"/>
    <path class="cls-3" d="M65.42188,26.0918l-.11719-.69336a4.8502,4.8502,0,0,1-2.42969.8457,3.18666,3.18666,0,0,1-3.59277-3.25976V16.57031H62.002v6.15528a1.31623,1.31623,0,0,0,1.43164,1.32324,4.06921,4.06921,0,0,0,1.47071-.40821V16.57031h2.873V26.0918Z"/>
    <path class="cls-3" d="M86.46289,26.0918h-3.7041L78.583,20.999V26.0918H75.53418V12.75H78.583v5.10156L82.665,12.75h3.583L81.0332,19.44824Z"/>
    <path class="cls-3" d="M93.18555,26.0918l-.11719-.69336a4.8502,4.8502,0,0,1-2.42969.8457,3.18666,3.18666,0,0,1-3.59277-3.25976V16.57031h2.71972v6.15528a1.31623,1.31623,0,0,0,1.43165,1.32324,4.06921,4.06921,0,0,0,1.4707-.40821V16.57031H95.541V26.0918Zm-5.002-11.60938v-1.7207h6.22364v1.7207Z"/>
    <path class="cls-3" d="M102.80566,16.57031v2.19043h-2.0625v4.51465a.7287.7287,0,0,0,.76563.78516h1.29687v2.22168h-1.91992a2.89168,2.89168,0,0,1-3.01562-2.70118V18.76172H96.957V16.57031h.91309V14.42383h2.873v2.14648Z"/>
    <path class="cls-3" d="M104.0918,19.8457c0-2.52832,2.37793-3.43945,4.21582-3.43945,1.97558,0,4.2334.9043,4.2334,3.43945v2.2295H106.7832v.89355c0,.98437.94043,1.26563,1.54,1.26563.46,0,2.418-.16211,3.6836-.31153l.30859,1.876a20.89917,20.89917,0,0,1-3.73731.43066c-2.14746,0-4.48632-.77637-4.48632-3.4414Zm5.75781-.1709c0-1.00292-.92578-1.26562-1.54-1.26562a1.36013,1.36013,0,0,0-1.52637,1.26562v.9502h3.06641Z"/>
    <path class="cls-3" d="M114.2002,15.31738V13.19922h3.04492v2.11816Zm.08007,10.77442V16.57031h2.87793V26.0918Z"/>
    <path class="cls-3" d="M124.55176,16.57031v2.19043h-2.0625v4.51465a.72869.72869,0,0,0,.76562.78516h1.29688v2.22168h-1.91992a2.89168,2.89168,0,0,1-3.01563-2.70118V18.76172h-.91309V16.57031h.91309V14.42383h2.87305v2.14648Z"/>
    <path class="cls-3" d="M126.48828,16.85742a16.18837,16.18837,0,0,1,3.49024-.44922c2.05273,0,4.17089.81348,4.17089,3.46192v6.21972h-2.36425l-.13672-.78125a6.468,6.468,0,0,1-2.9668.916,2.77213,2.77213,0,0,1-3.01172-2.82227l-.001-.25586c.03808-2.24707,2.00878-2.71484,3.73828-2.71484a11.17869,11.17869,0,0,1,1.86328.17969v-.63086c-.001-1.124-1.06446-1.40332-1.72754-1.40332a12.96239,12.96239,0,0,0-2.7168.34277Zm4.7832,5.03125a8.33146,8.33146,0,0,0-1.29589-.10058c-.78223,0-1.6084.19921-1.6084,1.10839v.51075a1.044,1.044,0,0,0,1.10547,1.08105,4.11214,4.11214,0,0,0,1.79882-.61621Z"/>
    <path class="cls-3" d="M136.02246,15.31738V13.19922h3.04492v2.11816Zm.08008,10.77442V16.57031h2.87793V26.0918Z"/>
  </g>
  <path d="M143.16333,126.36816l-21.71155-12.6969a12.29956,12.29956,0,0,0-4.93-1.68237c-2.50965-.16553-5.52442-1.19812-6.79688-2.775-1.13647-1.40821-3.50268-4.946-3.99682-5.68836a3.38808,3.38808,0,0,0,1.81567-1.81311c.66968-1.43542.44068-2.95923-.51172-3.40368a1.29631,1.29631,0,0,0-.36877-.10828L60.46814,75.70679a3.83493,3.83493,0,0,0,1.11072-1.41724c.66968-1.4353.44067-2.95923-.51172-3.40356-.95239-.44446-2.26746.35888-2.93726,1.79443a3.87083,3.87083,0,0,0-.37622,1.70459L22.12512,57.03662l.98963-1.76245a.83159.83159,0,0,0-.31787-1.1322l-2.035-1.1427a.83156.83156,0,0,0-1.1322.31787l-1.10437,1.96655-9.16419-4.4624a1.49157,1.49157,0,0,0-.24047-.15234,1.49491,1.49491,0,0,0-.20972-.0669l-.015-.0072-.00109.0022A2.29407,2.29407,0,0,0,6.36743,52.069a2.32923,2.32923,0,0,0,.428,2.83972l-.00281.00562.05078.02478a1.49586,1.49586,0,0,0,.21973.13928,1.47621,1.47621,0,0,0,.19141.06091l6.00561,2.92432a2.60224,2.60224,0,0,0-1.46692,1.3125l-.18115.37231a2.6132,2.6132,0,0,0,1.20544,3.49353l12.046,5.86548L23.55444,71.4386a.85753.85753,0,0,0,.32788,1.1676l1.98975,1.11731a.85753.85753,0,0,0,1.16748-.32776l1.42383-2.5354L37.47,75.24585a2.61315,2.61315,0,0,0,3.49353-1.20532l.18128-.37232c.02465-.05078.036-.104.05712-.15551l1.58716.7727-.49121.91675a2.64364,2.64364,0,0,0,1.089,3.58276l6.7096,3.56836c-1.84986,1.48316-5.46045,2.947-12.51172,2.78735a1.29387,1.29387,0,0,0-1.028.46876l-1.496,1.81433a1.29006,1.29006,0,0,0-.10071,1.50134l2.7948,4.50073a1.28755,1.28755,0,0,0,1.02137.60742c2.58837.14478,14.13562.00952,20.406-6.84778l27.525,14.6388-1.12916,1.62842s-1.37573,1.75122.7002,3.7882,6.15869,3.0431,7.37842,2.48377a11.96589,11.96589,0,0,0,2.78161-2.72522l1.83191.97424a8.21059,8.21059,0,0,1,2.75672,3.7688,10.91342,10.91342,0,0,1,.48645,3.50269c-.0614.63574.52112,1.7987,2.09668,2.30981a18.04549,18.04549,0,0,1,5.041,2.05811s1.31079.99768,1.661,1.27282,17.77259,18.62207,17.77259,18.62207a2.46249,2.46249,0,0,0,3.2644,1.06849l11.31079-8.929S145.81836,128.44336,143.16333,126.36816Zm-51.48206-18.4414c-2.29406-.854-3.68164-1.50305-4.3208-2.68921-.23693-.43945.60755-1.54639,1.32178-2.363l6.09607,3.242C94.1543,107.0166,92.94946,108.39893,91.68127,107.92676Z"/>
  <path class="cls-5" d="M143.16333,120.36816l-21.71155-12.6969a12.29956,12.29956,0,0,0-4.93-1.68237c-2.50965-.16553-5.52442-1.19812-6.79688-2.775-1.13647-1.40821-3.50268-4.946-3.99682-5.68836a3.38808,3.38808,0,0,0,1.81567-1.81311c.66968-1.43542.44068-2.95923-.51172-3.40368a1.29631,1.29631,0,0,0-.36877-.10828L60.46814,69.70679a3.83493,3.83493,0,0,0,1.11072-1.41724c.66968-1.4353.44067-2.95923-.51172-3.40356-.95239-.44446-2.26746.35888-2.93726,1.79443a3.87083,3.87083,0,0,0-.37622,1.70459L22.12512,51.03662l.98963-1.76245a.83159.83159,0,0,0-.31787-1.1322l-2.035-1.1427a.83156.83156,0,0,0-1.1322.31787l-1.10437,1.96655-9.16419-4.4624a1.49157,1.49157,0,0,0-.24047-.15234,1.49491,1.49491,0,0,0-.20972-.0669l-.015-.0072-.00109.0022A2.29407,2.29407,0,0,0,6.36743,46.069a2.32923,2.32923,0,0,0,.428,2.83972l-.00281.00562.05078.02478a1.49586,1.49586,0,0,0,.21973.13928,1.47621,1.47621,0,0,0,.19141.06091l6.00561,2.92432a2.60224,2.60224,0,0,0-1.46692,1.3125l-.18115.37231a2.6132,2.6132,0,0,0,1.20544,3.49353l12.046,5.86548L23.55444,65.4386a.85753.85753,0,0,0,.32788,1.1676l1.98975,1.11731a.85753.85753,0,0,0,1.16748-.32776l1.42383-2.5354L37.47,69.24585a2.61315,2.61315,0,0,0,3.49353-1.20532l.18128-.37232c.02465-.05078.036-.104.05712-.15551l1.58716.7727-.49121.91675a2.64364,2.64364,0,0,0,1.089,3.58276l6.7096,3.56836c-1.84986,1.48316-5.46045,2.947-12.51172,2.78735a1.29387,1.29387,0,0,0-1.028.46876l-1.496,1.81433a1.29006,1.29006,0,0,0-.10071,1.50134l2.7948,4.50073a1.28755,1.28755,0,0,0,1.02137.60742c2.58837.14478,14.13562.00952,20.406-6.84778l27.525,14.6388-1.12916,1.62842s-1.37573,1.75122.7002,3.7882,6.15869,3.0431,7.37842,2.48377a11.96589,11.96589,0,0,0,2.78161-2.72522l1.83191.97424a8.21059,8.21059,0,0,1,2.75672,3.7688,10.91342,10.91342,0,0,1,.48645,3.50269c-.0614.63574.52112,1.7987,2.09668,2.30981a18.04549,18.04549,0,0,1,5.041,2.05811s1.31079.99768,1.661,1.27282,17.77259,18.62207,17.77259,18.62207a2.46249,2.46249,0,0,0,3.2644,1.06849l11.31079-8.929S145.81836,122.44336,143.16333,120.36816Zm-51.48206-18.4414c-2.29406-.854-3.68164-1.50305-4.3208-2.68921-.23693-.43945.60755-1.54639,1.32178-2.363l6.09607,3.242C94.1543,101.0166,92.94946,102.39893,91.68127,101.92676Z"/>
</svg>
