<svg id="Layer_2" data-name="Layer 2" xmlns="http://www.w3.org/2000/svg" width="150" height="150" viewBox="0 0 150 150">
  <defs>
    <style>
      .cls-1 {
        fill: #bd1c25;
        stroke: #878076;
        stroke-miterlimit: 10;
        stroke-width: 3px;
      }

      .cls-2 {
        fill: #202c59;
      }

      .cls-3 {
        fill: #424535;
      }

      .cls-4 {
        fill: #dbd7c1;
      }

      .cls-5 {
        fill: #faecda;
      }
    </style>
  </defs>
  <circle class="cls-1" cx="75" cy="81.05233" r="59.99264"/>
  <g>
    <path class="cls-2" d="M95.46039,50.60885S86.2655,40.93,88.32225,37.05848s14.88121.242,20.20457,7.13814c4.22428,5.47237,4.11351,14.51825,4.71843,18.2688s.41082,7.6894,3.28785,7.29708c3.81456-.52017,2.16543-4.18525,1.5605-6.242s-4.00145-9.887-1.9447-11.5808,9.79983,6.29124,9.07391,13.18741-8.227,17.05895-9.31588,18.87373-.26134,3.59909,1.31973,3.274c4.94471-1.01679,5.21349-9.80718,6.7863-12.22689s3.50858-3.14562,4.9604-.48394,1.57281,10.04179-1.57281,13.55037-16.696,9.19489-18.38979,11.37263-1.05671,3.63074,1.28033,3.39286c7.4738-.76075,7.06767-6.17553,12.996-7.50637s5.8073.60493,3.2666,5.44435-11.37263,6.41223-16.696,8.106-13.5122,4.22184-11.00967,6.04928c4.33415,3.165,6.53321-1.08887,9.31588-2.66168s10.52573-4.71844,11.6146-1.20986-9.07391,12.58249-14.39727,13.3084-14.03431-3.75055-20.08358-2.78266-14.27629,5.8073-16.938,8.106-7.50109,4.47646-8.348.48394,4.47646-7.86405,16.09106-11.37263,24.681-8.71095,25.52793-18.14782-1.20985-8.469-2.41971-12.70347-1.81478-7.985.242-8.95292,6.29125,1.20985,6.77519,6.29124.18372,8.96346,1.63554,8.35853,6.76218-3.29439-.54667-14.64977c-5.158-8.01376-6.77519-5.32336-9.1949-11.97756s-1.57281-10.04179.242-10.16278,6.29125,3.75055,8.348,10.04179,2.78267,9.43687,4.23449,8.106.363-7.5011-1.81478-11.73559-7.5011-8.59-9.1949-9.43686A30.55374,30.55374,0,0,1,95.46039,50.60885Z"/>
    <path class="cls-2" d="M54.53961,50.60885S63.7345,40.93,61.67775,37.05848s-14.88121.242-20.20457,7.13814c-4.22428,5.47237-4.11351,14.51825-4.71843,18.2688s-.41082,7.6894-3.28785,7.29708c-3.81456-.52017-2.16543-4.18525-1.5605-6.242s4.00145-9.887,1.9447-11.5808-9.79983,6.29124-9.07391,13.18741,8.227,17.05895,9.31588,18.87373.26134,3.59909-1.31973,3.274c-4.94471-1.01679-5.21349-9.80718-6.7863-12.22689s-3.50858-3.14562-4.9604-.48394-1.57281,10.04179,1.57281,13.55037,16.696,9.19489,18.38979,11.37263,1.05671,3.63074-1.28033,3.39286c-7.4738-.76075-7.06767-6.17553-12.996-7.50637s-5.8073.60493-3.2666,5.44435,11.37263,6.41223,16.696,8.106,13.5122,4.22184,11.00967,6.04928c-4.33415,3.165-6.53321-1.08887-9.31588-2.66168s-10.52573-4.71844-11.6146-1.20986S39.29544,123.68406,44.6188,124.41s14.03431-3.75055,20.08358-2.78266,14.27629,5.8073,16.938,8.106,7.50109,4.47646,8.348.48394-4.47646-7.86405-16.09106-11.37263-24.681-8.71095-25.52793-18.14782,1.20985-8.469,2.41971-12.70347,1.81478-7.985-.242-8.95292-6.29125,1.20985-6.77519,6.29124-.18372,8.96346-1.63554,8.35853-6.76218-3.29439.54667-14.64977c5.158-8.01376,6.77519-5.32336,9.1949-11.97756s1.57281-10.04179-.242-10.16278-6.29125,3.75055-8.348,10.04179-2.78267,9.43687-4.23449,8.106-.363-7.5011,1.81478-11.73559,7.5011-8.59,9.1949-9.43686A30.55374,30.55374,0,0,0,54.53961,50.60885Z"/>
  </g>
  <polygon class="cls-3" points="74.997 39.949 93.106 36.135 93.333 36.135 111.442 39.949 111.442 8.739 93.333 4.925 93.106 4.925 74.997 8.739 74.823 8.739 56.894 4.686 56.667 4.686 38.558 8.501 38.558 39.711 56.667 35.896 56.894 35.896 74.823 39.949 74.997 39.949"/>
  <g>
    <polygon class="cls-4" points="57.812 30.854 57.221 30.854 41.678 34.265 41.678 6.457 57.5 2.985 74.637 7.021 75.177 7.021 92.491 3.222 108.322 6.695 108.322 34.503 92.779 31.092 92.202 31.092 74.924 34.884 57.812 30.854"/>
    <path class="cls-3" d="M57.48718,4.68848,74.06787,8.593l.37573.08838h.9137l.35193-.07715L92.4906,4.92212,106.661,8.03137V32.43665L93.31165,29.50757l-.35193-.07715h-.93824l-.35192.07715L74.9364,33.1792,58.37988,29.2804l-.37573-.08851h-.96387l-.35193.07728L43.339,32.19824V7.79285L57.48718,4.68848m.131-3.3833h-.21753L40.01575,5.11975V36.32983l17.38488-3.81457h.21753l17.21143,4.053H74.997l17.38489-3.81458h.21753l17.38488,3.81458V5.35815L92.59937,1.5437h-.21753L74.997,5.35815h-.16736l-17.21143-4.053Z"/>
  </g>
  <path class="cls-3" d="M76.0332,10.05664a4.81378,4.81378,0,0,1,4.99707,4.666v1.05273A3.37467,3.37467,0,0,1,79.18164,18.794,3.61114,3.61114,0,0,1,81.293,22.06934v2.08007a4.82433,4.82433,0,0,1-4.998,4.68653H73.7334a4.84459,4.84459,0,0,1-5.01465-4.68653V22.06934a3.7347,3.7347,0,0,1,2.12793-3.28614,3.30721,3.30721,0,0,1-1.84473-3.00781V14.72266a4.85066,4.85066,0,0,1,5.01367-4.666ZM74.457,20.374a1.63636,1.63636,0,0,0-1.707,1.67871v1.94532a1.63558,1.63558,0,0,0,1.707,1.67773h1.11426a1.63613,1.63613,0,0,0,1.707-1.67773V22.05273a1.63692,1.63692,0,0,0-1.707-1.67871Zm.11524-7.14355a1.63558,1.63558,0,0,0-1.707,1.67773v.86719a1.6326,1.6326,0,0,0,1.707,1.66211h.957a1.6206,1.6206,0,0,0,1.65527-1.66211V14.9082a1.63613,1.63613,0,0,0-1.707-1.67773Z"/>
  <g>
    <path d="M117.54663,61.44534l.04634-.04634c-2.26834-1.98437-4.49833-4.22737-5.872-5.6527l-.043.04291c-.86241-.93135-1.32877-1.49358-1.32877-1.49358L96.94278,67.23158c.61245.45632,1.22057.95167,1.82561,1.46734l-.02683.02671c1.07882.93477,2.529,2.25966,4.02661,3.81374,9.459,10.073,16.98893,24.79766,16.98893,24.79766a37.45042,37.45042,0,0,0,19.28638-23.75491C130.35179,71.31446,122.74256,65.945,117.54663,61.44534Z"/>
    <path d="M118.87517,54.35452a4.074,4.074,0,0,0-5.74013-.02032l5.938,5.56345A4.0717,4.0717,0,0,0,118.87517,54.35452Z"/>
    <path d="M51.25832,68.72563l-.02682-.02671c.605-.51567,1.21327-1.011,1.82561-1.46734L39.65079,54.29563s-.46658.56223-1.32877,1.49358l-.04314-.04291c-1.37352,1.42533-3.60351,3.66833-5.87185,5.6527l.04634.04634c-5.19593,4.4997-12.80516,9.86912-21.49685,12.13678A37.45048,37.45048,0,0,0,30.24278,97.337s7.52979-14.72469,16.98893-24.79766C48.72941,70.98529,50.17962,69.6604,51.25832,68.72563Z"/>
    <path d="M36.86473,54.3342a4.07164,4.07164,0,0,0-5.93793,5.56345Z"/>
    <path d="M80.76239,98.22958l21.38979-21.38979-5.88486-5.63992L75,92.4673,53.73268,71.19987l-5.885,5.63992,60.72006,60.72a4.07441,4.07441,0,0,0,5.76227,0h.00012a4.07462,4.07462,0,0,0,0-5.76228Z"/>
    <path d="M35.66973,131.79746a4.07463,4.07463,0,1,0,5.7625,5.76228l30.486-30.486-5.4153-6.10948Z"/>
  </g>
  <g>
    <path class="cls-5" d="M117.54663,55.22554l.04634-.04634c-2.26834-1.98437-4.49833-4.22737-5.872-5.65271l-.043.04292c-.86241-.93135-1.32877-1.49359-1.32877-1.49359l-13.40643,12.936c.61245.45632,1.22057.95167,1.82561,1.46734l-.02683.0267c1.07882.93478,2.529,2.25967,4.02661,3.81375,9.459,10.073,16.98893,24.79766,16.98893,24.79766a37.45042,37.45042,0,0,0,19.28638-23.75492C130.35179,65.09466,122.74256,59.72524,117.54663,55.22554Z"/>
    <path class="cls-5" d="M118.87517,48.13472a4.074,4.074,0,0,0-5.74013-.02032l5.938,5.56345A4.0717,4.0717,0,0,0,118.87517,48.13472Z"/>
    <path class="cls-5" d="M51.25832,62.50582l-.02682-.0267c.605-.51567,1.21327-1.011,1.82561-1.46734l-13.40632-12.936s-.46658.56224-1.32877,1.49359l-.04314-.04292c-1.37352,1.42534-3.60351,3.66834-5.87185,5.65271l.04634.04634c-5.19593,4.4997-12.80516,9.86912-21.49685,12.13677A37.45049,37.45049,0,0,0,30.24278,91.11723s7.52979-14.7247,16.98893-24.79766C48.72941,64.76549,50.17962,63.4406,51.25832,62.50582Z"/>
    <path class="cls-5" d="M36.86473,48.1144a4.07164,4.07164,0,0,0-5.93793,5.56345Z"/>
    <path class="cls-5" d="M80.76239,92.00978,102.15218,70.62l-5.88486-5.63992L75,86.2475,53.73268,64.98007,47.84771,70.62l60.72006,60.72a4.07441,4.07441,0,0,0,5.76227,0h.00012a4.07462,4.07462,0,0,0,0-5.76228Z"/>
    <path class="cls-5" d="M35.66973,125.57766a4.07463,4.07463,0,0,0,5.7625,5.76228l30.486-30.486-5.4153-6.10948Z"/>
  </g>
</svg>
