<svg id="Layer_2" data-name="Layer 2" xmlns="http://www.w3.org/2000/svg" width="150" height="150" viewBox="0 0 150 150">
  <defs>
    <style>
      .cls-1 {
        fill: #bd1c25;
        stroke: #878076;
        stroke-miterlimit: 10;
        stroke-width: 3px;
      }

      .cls-2 {
        fill: #202c59;
      }

      .cls-3 {
        fill: #424535;
      }

      .cls-4 {
        fill: #dbd7c1;
      }

      .cls-5 {
        fill: #faecda;
      }
    </style>
  </defs>
  <circle class="cls-1" cx="75" cy="81.05233" r="59.99264"/>
  <g>
    <path class="cls-2" d="M95.46039,50.60885S86.2655,40.93,88.32225,37.05848s14.88121.242,20.20457,7.13814c4.22428,5.47237,4.11351,14.51825,4.71843,18.2688s.41082,7.6894,3.28785,7.29708c3.81456-.52017,2.16543-4.18525,1.5605-6.242s-4.00145-9.887-1.9447-11.5808,9.79983,6.29124,9.07391,13.18741-8.227,17.05895-9.31588,18.87373-.26134,3.59909,1.31973,3.274c4.94471-1.01679,5.21349-9.80718,6.7863-12.22689s3.50858-3.14562,4.9604-.48394,1.57281,10.04179-1.57281,13.55037-16.696,9.19489-18.38979,11.37263-1.05671,3.63074,1.28033,3.39286c7.4738-.76075,7.06767-6.17553,12.996-7.50637s5.8073.60493,3.2666,5.44435-11.37263,6.41223-16.696,8.106-13.5122,4.22184-11.00967,6.04928c4.33415,3.165,6.53321-1.08887,9.31588-2.66168s10.52573-4.71844,11.6146-1.20986-9.07391,12.58249-14.39727,13.3084-14.03431-3.75055-20.08358-2.78266-14.27629,5.8073-16.938,8.106-7.50109,4.47646-8.348.48394,4.47646-7.86405,16.09106-11.37263,24.681-8.71095,25.52793-18.14782-1.20985-8.469-2.41971-12.70347-1.81478-7.985.242-8.95292,6.29125,1.20985,6.77519,6.29124.18372,8.96346,1.63554,8.35853,6.76218-3.29439-.54667-14.64977c-5.158-8.01376-6.77519-5.32336-9.1949-11.97756s-1.57281-10.04179.242-10.16278,6.29125,3.75055,8.348,10.04179,2.78267,9.43687,4.23449,8.106.363-7.5011-1.81478-11.73559-7.5011-8.59-9.1949-9.43686A30.55374,30.55374,0,0,1,95.46039,50.60885Z"/>
    <path class="cls-2" d="M54.53961,50.60885S63.7345,40.93,61.67775,37.05848s-14.88121.242-20.20457,7.13814c-4.22428,5.47237-4.11351,14.51825-4.71843,18.2688s-.41082,7.6894-3.28785,7.29708c-3.81456-.52017-2.16543-4.18525-1.5605-6.242s4.00145-9.887,1.9447-11.5808-9.79983,6.29124-9.07391,13.18741,8.227,17.05895,9.31588,18.87373.26134,3.59909-1.31973,3.274c-4.94471-1.01679-5.21349-9.80718-6.7863-12.22689s-3.50858-3.14562-4.9604-.48394-1.57281,10.04179,1.57281,13.55037,16.696,9.19489,18.38979,11.37263,1.05671,3.63074-1.28033,3.39286c-7.4738-.76075-7.06767-6.17553-12.996-7.50637s-5.8073.60493-3.2666,5.44435,11.37263,6.41223,16.696,8.106,13.5122,4.22184,11.00967,6.04928c-4.33415,3.165-6.53321-1.08887-9.31588-2.66168s-10.52573-4.71844-11.6146-1.20986S39.29544,123.68406,44.6188,124.41s14.03431-3.75055,20.08358-2.78266,14.27629,5.8073,16.938,8.106,7.50109,4.47646,8.348.48394-4.47646-7.86405-16.09106-11.37263-24.681-8.71095-25.52793-18.14782,1.20985-8.469,2.41971-12.70347,1.81478-7.985-.242-8.95292-6.29125,1.20985-6.77519,6.29124-.18372,8.96346-1.63554,8.35853-6.76218-3.29439.54667-14.64977c5.158-8.01376,6.77519-5.32336,9.1949-11.97756s1.57281-10.04179-.242-10.16278-6.29125,3.75055-8.348,10.04179-2.78267,9.43687-4.23449,8.106-.363-7.5011,1.81478-11.73559,7.5011-8.59,9.1949-9.43686A30.55374,30.55374,0,0,0,54.53961,50.60885Z"/>
  </g>
  <polygon class="cls-3" points="74.997 39.949 93.106 36.135 93.333 36.135 111.442 39.949 111.442 8.739 93.333 4.925 93.106 4.925 74.997 8.739 74.823 8.739 56.894 4.686 56.667 4.686 38.558 8.501 38.558 39.711 56.667 35.896 56.894 35.896 74.823 39.949 74.997 39.949"/>
  <g>
    <polygon class="cls-4" points="57.812 30.854 57.221 30.854 41.678 34.265 41.678 6.457 57.5 2.985 74.637 7.021 75.177 7.021 92.491 3.222 108.322 6.695 108.322 34.503 92.779 31.092 92.202 31.092 74.924 34.884 57.812 30.854"/>
    <path class="cls-3" d="M57.48718,4.68848,74.06787,8.593l.37573.08838h.9137l.35193-.07715L92.4906,4.92212,106.661,8.03125V32.43677l-13.34936-2.9292-.35193-.07715h-.93824l-.35192.07715L74.93628,33.1792l-16.5564-3.89868-.37573-.08838h-.96387l-.35193.07715L43.339,32.19824V7.793L57.48718,4.68848m.131-3.3833h-.21753L40.01575,5.11987v31.21l17.38488-3.81445h.21753l17.21143,4.053H74.997l17.38489-3.8147h.21753l17.38488,3.8147V5.35815L92.59937,1.5437h-.21753L74.997,5.35815h-.16736l-17.21143-4.053Z"/>
  </g>
  <g>
    <path class="cls-3" d="M68.56641,10.03125A4.82165,4.82165,0,0,1,73.56348,14.707v.56055a5.09169,5.09169,0,0,1-2.84668,4.334l-3.72754,1.97266a2.49975,2.49975,0,0,0-1.39942,2.21289v1.76953h7.97364v3.08789H61.55859V23.26562c0-1.99707,1.1543-3.46679,3.08008-4.47265l4.084-2.13477a1.56886,1.56886,0,0,0,.87109-1.376v-.27442a1.53779,1.53779,0,0,0-1.583-1.53418H66.89941a12.76813,12.76813,0,0,0-4.126.5752l-.46582-3.03321a10.52372,10.52372,0,0,1,4.50683-.98437Z"/>
    <path class="cls-3" d="M83.58105,10.07617a4.80774,4.80774,0,0,1,4.93457,4.72852v9.24219a4.82275,4.82275,0,0,1-4.93457,4.76171H81.06738a4.83278,4.83278,0,0,1-5.11523-4.76171V14.80469a4.83928,4.83928,0,0,1,5.11523-4.72852Zm-1.90722,3.52539a1.65754,1.65754,0,0,0-1.69043,1.72461v8.23242a1.6555,1.6555,0,0,0,1.69043,1.74024h1.18359A1.63169,1.63169,0,0,0,84.501,23.55859V15.32617a1.63334,1.63334,0,0,0-1.64356-1.72461Z"/>
  </g>
  <g>
    <path d="M30.75549,48.47339a4.73565,4.73565,0,0,1-1.28869,3.5354c-2.27368-2.70972-5.40784-6.12134-5.8086-13.33643,0,0-4.73169,7.09717-5.7456,14.19458-.77649,5.43579,4.39294,8.68848,8.375,10.06641a11.3509,11.3509,0,0,0,3.116,2.43848s.09131-.73609.12269-1.78077c.35388-.30688,1.41149-1.55712,2.243-5.99243a4.61693,4.61693,0,0,0,.07043-1.14721A17.23311,17.23311,0,0,0,30.75549,48.47339Z"/>
    <path d="M125.35669,124.75122a3.09732,3.09732,0,0,0-1.35083-3.03491l-.96484-.63965,2.16723-2.31519a2.86306,2.86306,0,1,0-4.50549-3.49389l-1.90588,2.99512-18.02564-12.76026V98.79907c9.6687-6.0708,12.70325-12.998,13.49573-17.89966A17.76958,17.76958,0,0,0,110.306,66.1748c-6.92114-7.49267-19.11414-7.03808-22.88452-6.69384V55.80518a1.68579,1.68579,0,0,0-.56336-3.27613H82.80249a1.68447,1.68447,0,0,0-.78845,3.17578v3.92163H79.42285V57.59863H75.70532V64.02h3.71753V61.99219H82.014v4.39355h-.07361A13.27608,13.27608,0,0,0,68.66431,79.66211v4.8125l-9.34558-5.646c.44787-1.71826.26232-3.269-.58631-4.13379l.04212-.06347L45.60425,65.89941l-1.77808-5.33422L41.3479,58.86963l-3.78271-.65234s-4.43482,2.86962-4.95655,7.6958l.65222,2.60864a5.44281,5.44281,0,0,0-.63708,1.771,1.93388,1.93388,0,0,1-.15625-.23315A3.71008,3.71008,0,0,0,33.2644,73.082l-.00244.00342.01416.00928a2.23537,2.23537,0,0,0,.34461.28759,2.26,2.26,0,0,0,.399.20557l.63085.41821L36.78,75.33032c-.02881.0083-.05835.022-.08691.03l15.00317,9.947.03345-.05053c1.17834.46557,2.76587-.02637,4.22863-1.21875l12.70594,7.91333v35.17309c0,7.33228,5.94384,10.57251,13.27612,10.57251h5.55444a15.84777,15.84777,0,0,0,9.59961-2.70752c3.218,1.99732,8.36182,5.33277,15.34632,5.79346.21606.01416.43591-.00342.65588-.00952,6.084-.1792,10.79907-3.17945,12.61206-8.02588A9.77918,9.77918,0,0,0,125.35669,124.75122ZM87.42151,66.38574V62.61182c2.9198-.2793,14.51062-.91651,20.59863,5.67456a14.80619,14.80619,0,0,1,3.17444,12.11645c-.64258,3.97315-3.04114,9.50928-10.42334,14.66577V79.66211A13.27629,13.27629,0,0,0,87.49487,66.38574Zm35.37256,65.271c-1.35462,3.62036-5.0138,5.86523-9.78919,6.00561-.18359.00562-.36438.0083-.54565.0083-3.4707,0-9.73425-3.26733-13.1001-5.17041a10.08989,10.08989,0,0,0,1.41211-5.37573V113.68359l14.69714,9.80957-4.95239,7.78247,2.02771,1.01392,6.20117-6.624,1.8357,1.217a3.08829,3.08829,0,0,0,2.47973.41626A7.08969,7.08969,0,0,1,122.79407,131.65674Z"/>
  </g>
  <g>
    <path class="cls-5" d="M114.267,76.60181A17.77041,17.77041,0,0,0,110.306,61.877c-6.92114-7.49243-19.11414-7.03784-22.88452-6.6936V51.50757a1.68593,1.68593,0,0,0-.56336-3.27637H82.80249a1.68463,1.68463,0,0,0-.78845,3.176v3.92138H79.42285V53.30078H75.70532v6.42139h3.71753V57.69434H82.014v4.39355h-.07361A13.27623,13.27623,0,0,0,68.66431,75.36426v47.4624c0,7.33228,5.94384,10.57275,13.27612,10.57275h5.55444c7.33228,0,13.27637-3.24047,13.27637-10.57275V94.50146C110.43994,88.43066,113.47449,81.50342,114.267,76.60181ZM87.49487,62.08789h-.07336V58.314c2.9198-.279,14.51062-.91625,20.59863,5.67481A14.80591,14.80591,0,0,1,111.19458,76.105c-.64258,3.97314-3.04114,9.50952-10.42334,14.666V75.36426A13.27644,13.27644,0,0,0,87.49487,62.08789Z"/>
    <path class="cls-5" d="M30.75549,44.17578a4.73562,4.73562,0,0,1-1.28882,3.5354c-2.27343-2.70972-5.40771-6.12158-5.80859-13.33667,0,0-4.73144,7.09741-5.74536,14.19483-.77661,5.43554,4.39282,8.68847,8.37488,10.0664A11.31741,11.31741,0,0,1,23.32019,50.259s3.37964.676,5.06958,3.04175c1.06751,1.49463,1.19031,4.20044,1.13648,5.99268.35375-.30689,1.41149-1.55738,2.24316-5.99268a4.616,4.616,0,0,0,.07031-1.14722A17.22984,17.22984,0,0,0,30.75549,44.17578Z"/>
    <path class="cls-5" d="M39.938,65.4082A10.3537,10.3537,0,0,0,41.868,59.12451l-1.52771-1.01269-.07153.10766a3.41283,3.41283,0,0,0-2.60571.20532,1.683,1.683,0,0,1,.54052.23121c1.261.83618,1.12964,3.2539-.29345,5.40039s-3.59912,3.20874-4.86011,2.3728a1.74265,1.74265,0,0,1-.58252-.66724,3.70927,3.70927,0,0,0,.79687,3.02222l-.00244.00366.01416.00928a2.0417,2.0417,0,0,0,.74366.49292l.63085.41846A10.10666,10.10666,0,0,0,39.938,65.4082Z"/>
    <path class="cls-5" d="M125.35669,120.45361a3.09749,3.09749,0,0,0-1.35083-3.03515l-.96484-.63965,2.16723-2.31494a2.86308,2.86308,0,1,0-4.50549-3.4939l-1.90588,2.99512L103.137,103.58252v7.43726l12.33142,8.17578-4.95239,7.78222,2.02771,1.01392,6.20117-6.62378,1.8357,1.217a3.08814,3.08814,0,0,0,2.47973.416,7.09052,7.09052,0,0,1-.26623,4.35815c-1.35462,3.62036-5.0138,5.86524-9.78919,6.00562-.18359.00537-.36438.00805-.54565.00805a19.94632,19.94632,0,0,1-10.131-2.884,15.56059,15.56059,0,0,1-1.30066,2.87842,22.92359,22.92359,0,0,0,11.41321,3.11816c.21643,0,.43591-.00342.65588-.00976,6.084-.1792,10.79907-3.1792,12.61206-8.02564A9.77919,9.77919,0,0,0,125.35669,120.45361Z"/>
    <path class="cls-5" d="M58.73242,70.39722l.04212-.06372L43.89819,60.4707a10.37135,10.37135,0,0,1-1.93237,6.28955,10.15081,10.15081,0,0,1-5.2727,4.30225l15.00317,9.94727.03345-.05054c1.17834.46557,2.76587-.02661,4.22863-1.219l7.58,5.02564V77.32861l-4.2196-2.79785C59.7666,72.8125,59.58105,71.262,58.73242,70.39722Z"/>
  </g>
</svg>
