<svg id="Layer_2" data-name="Layer 2" xmlns="http://www.w3.org/2000/svg" width="150" height="150" viewBox="0 0 150 150">
  <defs>
    <style>
      .cls-1 {
        fill: #bd1c25;
        stroke: #878076;
        stroke-miterlimit: 10;
        stroke-width: 3px;
      }

      .cls-2 {
        fill: #202c59;
      }

      .cls-3 {
        fill: #424535;
      }

      .cls-4 {
        fill: #dbd7c1;
      }

      .cls-5 {
        fill: #faecda;
      }
    </style>
  </defs>
  <circle class="cls-1" cx="75" cy="81.05233" r="59.99264"/>
  <g>
    <path class="cls-2" d="M95.46039,50.60885S86.2655,40.93,88.32225,37.05848s14.88121.242,20.20457,7.13814c4.22428,5.47237,4.11351,14.51825,4.71843,18.2688s.41082,7.6894,3.28785,7.29708c3.81456-.52017,2.16543-4.18525,1.5605-6.242s-4.00145-9.887-1.9447-11.5808,9.79983,6.29124,9.07391,13.18741-8.227,17.05895-9.31588,18.87373-.26134,3.59909,1.31973,3.274c4.94471-1.01679,5.21349-9.80718,6.7863-12.22689s3.50858-3.14562,4.9604-.48394,1.57281,10.04179-1.57281,13.55037-16.696,9.19489-18.38979,11.37263-1.05671,3.63074,1.28033,3.39286c7.4738-.76075,7.06767-6.17553,12.996-7.50637s5.8073.60493,3.2666,5.44435-11.37263,6.41223-16.696,8.106-13.5122,4.22184-11.00967,6.04928c4.33415,3.165,6.53321-1.08887,9.31588-2.66168s10.52573-4.71844,11.6146-1.20986-9.07391,12.58249-14.39727,13.3084-14.03431-3.75055-20.08358-2.78266-14.27629,5.8073-16.938,8.106-7.50109,4.47646-8.348.48394,4.47646-7.86405,16.09106-11.37263,24.681-8.71095,25.52793-18.14782-1.20985-8.469-2.41971-12.70347-1.81478-7.985.242-8.95292,6.29125,1.20985,6.77519,6.29124.18372,8.96346,1.63554,8.35853,6.76218-3.29439-.54667-14.64977c-5.158-8.01376-6.77519-5.32336-9.1949-11.97756s-1.57281-10.04179.242-10.16278,6.29125,3.75055,8.348,10.04179,2.78267,9.43687,4.23449,8.106.363-7.5011-1.81478-11.73559-7.5011-8.59-9.1949-9.43686A30.55374,30.55374,0,0,1,95.46039,50.60885Z"/>
    <path class="cls-2" d="M54.53961,50.60885S63.7345,40.93,61.67775,37.05848s-14.88121.242-20.20457,7.13814c-4.22428,5.47237-4.11351,14.51825-4.71843,18.2688s-.41082,7.6894-3.28785,7.29708c-3.81456-.52017-2.16543-4.18525-1.5605-6.242s4.00145-9.887,1.9447-11.5808-9.79983,6.29124-9.07391,13.18741,8.227,17.05895,9.31588,18.87373.26134,3.59909-1.31973,3.274c-4.94471-1.01679-5.21349-9.80718-6.7863-12.22689s-3.50858-3.14562-4.9604-.48394-1.57281,10.04179,1.57281,13.55037,16.696,9.19489,18.38979,11.37263,1.05671,3.63074-1.28033,3.39286c-7.4738-.76075-7.06767-6.17553-12.996-7.50637s-5.8073.60493-3.2666,5.44435,11.37263,6.41223,16.696,8.106,13.5122,4.22184,11.00967,6.04928c-4.33415,3.165-6.53321-1.08887-9.31588-2.66168s-10.52573-4.71844-11.6146-1.20986S39.29544,123.68406,44.6188,124.41s14.03431-3.75055,20.08358-2.78266,14.27629,5.8073,16.938,8.106,7.50109,4.47646,8.348.48394-4.47646-7.86405-16.09106-11.37263-24.681-8.71095-25.52793-18.14782,1.20985-8.469,2.41971-12.70347,1.81478-7.985-.242-8.95292-6.29125,1.20985-6.77519,6.29124-.18372,8.96346-1.63554,8.35853-6.76218-3.29439.54667-14.64977c5.158-8.01376,6.77519-5.32336,9.1949-11.97756s1.57281-10.04179-.242-10.16278-6.29125,3.75055-8.348,10.04179-2.78267,9.43687-4.23449,8.106-.363-7.5011,1.81478-11.73559,7.5011-8.59,9.1949-9.43686A30.55374,30.55374,0,0,0,54.53961,50.60885Z"/>
  </g>
  <polygon class="cls-3" points="74.997 39.949 93.106 36.135 93.333 36.135 111.442 39.949 111.442 8.739 93.333 4.925 93.106 4.925 74.997 8.739 74.823 8.739 56.894 4.686 56.667 4.686 38.558 8.501 38.558 39.711 56.667 35.896 56.894 35.896 74.823 39.949 74.997 39.949"/>
  <g>
    <polygon class="cls-4" points="57.812 30.854 57.221 30.854 41.678 34.265 41.678 6.457 57.5 2.985 74.637 7.021 75.177 7.021 92.491 3.222 108.322 6.695 108.322 34.503 92.779 31.092 92.202 31.092 74.924 34.884 57.812 30.854"/>
    <path class="cls-3" d="M57.48718,4.68848,74.06787,8.593l.37573.08838h.9137l.35193-.07715L92.4906,4.92212,106.661,8.03137V32.43665L93.31165,29.50757l-.35193-.07715h-.93824l-.35192.07715L74.9364,33.1792,58.37988,29.2804l-.37573-.08851h-.96387l-.35193.07728L43.339,32.19824V7.79285L57.48718,4.68848m.131-3.3833h-.21753L40.01575,5.11975V36.32983l17.38488-3.81457h.21753l17.21143,4.053H74.997l17.38489-3.81458h.21753l17.38488,3.81458V5.35815L92.59937,1.5437h-.21753L74.997,5.35815h-.16736l-17.21143-4.053Z"/>
  </g>
  <g>
    <path class="cls-3" d="M68.3623,10.03223A4.82165,4.82165,0,0,1,73.35938,14.708v.55957a5.09314,5.09314,0,0,1-2.84668,4.335L66.78516,21.5752a2.497,2.497,0,0,0-1.39942,2.21191v1.76953h7.97364v3.08789H61.35449V23.26562c0-1.99707,1.1543-3.46679,3.08008-4.47167l4.084-2.13575a1.56586,1.56586,0,0,0,.8711-1.376v-.27344a1.538,1.538,0,0,0-1.583-1.53516H66.69531a12.74166,12.74166,0,0,0-4.126.57617l-.46582-3.03418a10.52372,10.52372,0,0,1,4.50683-.98437Z"/>
    <path class="cls-3" d="M83.2168,10.0752c3.15722,0,5.11621,1.85156,5.11621,5.63769v7.25586c0,3.66406-2.71,5.83984-6.26074,5.83984H80.62109a19.76224,19.76224,0,0,1-4.08007-.54687V25.24707a28.75093,28.75093,0,0,0,4.02734.37207h1.28418a2.30366,2.30366,0,0,0,2.38086-2.44531V21.43262a12.29128,12.29128,0,0,1-2.375.27832H80.333c-2.54,0-4.52246-1.63282-4.52246-4.72754V14.83789a4.73221,4.73221,0,0,1,4.95215-4.76172Zm-1.74707,3.17285a1.64877,1.64877,0,0,0-1.62793,1.74121v1.80859a1.65433,1.65433,0,0,0,1.62793,1.74024h1.21386a2.42973,2.42973,0,0,0,1.63477-.54V14.98926a1.6408,1.6408,0,0,0-1.707-1.74121Z"/>
  </g>
  <path d="M143.16333,126.36816l-21.71155-12.6969a12.29956,12.29956,0,0,0-4.93-1.68237c-2.50965-.16553-5.52442-1.19812-6.79688-2.775-1.13647-1.40821-3.50268-4.946-3.99682-5.68836a3.38808,3.38808,0,0,0,1.81567-1.81311c.66968-1.43542.44068-2.95923-.51172-3.40368a1.29631,1.29631,0,0,0-.36877-.10828L60.46814,75.70679a3.83493,3.83493,0,0,0,1.11072-1.41724c.66968-1.4353.44067-2.95923-.51172-3.40356-.95239-.44446-2.26746.35888-2.93726,1.79443a3.87083,3.87083,0,0,0-.37622,1.70459L22.12512,57.03662l.98963-1.76245a.83159.83159,0,0,0-.31787-1.1322l-2.035-1.1427a.83156.83156,0,0,0-1.1322.31787l-1.10437,1.96655-9.16419-4.4624a1.49157,1.49157,0,0,0-.24047-.15234,1.49491,1.49491,0,0,0-.20972-.0669l-.015-.0072-.00109.0022A2.29407,2.29407,0,0,0,6.36743,52.069a2.32923,2.32923,0,0,0,.428,2.83972l-.00281.00562.05078.02478a1.49586,1.49586,0,0,0,.21973.13928,1.47621,1.47621,0,0,0,.19141.06091l6.00561,2.92432a2.60224,2.60224,0,0,0-1.46692,1.3125l-.18115.37231a2.6132,2.6132,0,0,0,1.20544,3.49353l12.046,5.86548L23.55444,71.4386a.85753.85753,0,0,0,.32788,1.1676l1.98975,1.11731a.85753.85753,0,0,0,1.16748-.32776l1.42383-2.5354L37.47,75.24585a2.61315,2.61315,0,0,0,3.49353-1.20532l.18128-.37232c.02465-.05078.036-.104.05712-.15551l1.58716.7727-.49121.91675a2.64364,2.64364,0,0,0,1.089,3.58276l6.7096,3.56836c-1.84986,1.48316-5.46045,2.947-12.51172,2.78735a1.29387,1.29387,0,0,0-1.028.46876l-1.496,1.81433a1.29006,1.29006,0,0,0-.10071,1.50134l2.7948,4.50073a1.28755,1.28755,0,0,0,1.02137.60742c2.58837.14478,14.13562.00952,20.406-6.84778l27.525,14.6388-1.12916,1.62842s-1.37573,1.75122.7002,3.7882,6.15869,3.0431,7.37842,2.48377a11.96589,11.96589,0,0,0,2.78161-2.72522l1.83191.97424a8.21059,8.21059,0,0,1,2.75672,3.7688,10.91342,10.91342,0,0,1,.48645,3.50269c-.0614.63574.52112,1.7987,2.09668,2.30981a18.04549,18.04549,0,0,1,5.041,2.05811s1.31079.99768,1.661,1.27282,17.77259,18.62207,17.77259,18.62207a2.46249,2.46249,0,0,0,3.2644,1.06849l11.31079-8.929S145.81836,128.44336,143.16333,126.36816Zm-51.48206-18.4414c-2.29406-.854-3.68164-1.50305-4.3208-2.68921-.23693-.43945.60755-1.54639,1.32178-2.363l6.09607,3.242C94.1543,107.0166,92.94946,108.39893,91.68127,107.92676Z"/>
  <path class="cls-5" d="M143.16333,120.36816l-21.71155-12.6969a12.29956,12.29956,0,0,0-4.93-1.68237c-2.50965-.16553-5.52442-1.19812-6.79688-2.775-1.13647-1.40821-3.50268-4.946-3.99682-5.68836a3.38808,3.38808,0,0,0,1.81567-1.81311c.66968-1.43542.44068-2.95923-.51172-3.40368a1.29631,1.29631,0,0,0-.36877-.10828L60.46814,69.70679a3.83493,3.83493,0,0,0,1.11072-1.41724c.66968-1.4353.44067-2.95923-.51172-3.40356-.95239-.44446-2.26746.35888-2.93726,1.79443a3.87083,3.87083,0,0,0-.37622,1.70459L22.12512,51.03662l.98963-1.76245a.83159.83159,0,0,0-.31787-1.1322l-2.035-1.1427a.83156.83156,0,0,0-1.1322.31787l-1.10437,1.96655-9.16419-4.4624a1.49157,1.49157,0,0,0-.24047-.15234,1.49491,1.49491,0,0,0-.20972-.0669l-.015-.0072-.00109.0022A2.29407,2.29407,0,0,0,6.36743,46.069a2.32923,2.32923,0,0,0,.428,2.83972l-.00281.00562.05078.02478a1.49586,1.49586,0,0,0,.21973.13928,1.47621,1.47621,0,0,0,.19141.06091l6.00561,2.92432a2.60224,2.60224,0,0,0-1.46692,1.3125l-.18115.37231a2.6132,2.6132,0,0,0,1.20544,3.49353l12.046,5.86548L23.55444,65.4386a.85753.85753,0,0,0,.32788,1.1676l1.98975,1.11731a.85753.85753,0,0,0,1.16748-.32776l1.42383-2.5354L37.47,69.24585a2.61315,2.61315,0,0,0,3.49353-1.20532l.18128-.37232c.02465-.05078.036-.104.05712-.15551l1.58716.7727-.49121.91675a2.64364,2.64364,0,0,0,1.089,3.58276l6.7096,3.56836c-1.84986,1.48316-5.46045,2.947-12.51172,2.78735a1.29387,1.29387,0,0,0-1.028.46876l-1.496,1.81433a1.29006,1.29006,0,0,0-.10071,1.50134l2.7948,4.50073a1.28755,1.28755,0,0,0,1.02137.60742c2.58837.14478,14.13562.00952,20.406-6.84778l27.525,14.6388-1.12916,1.62842s-1.37573,1.75122.7002,3.7882,6.15869,3.0431,7.37842,2.48377a11.96589,11.96589,0,0,0,2.78161-2.72522l1.83191.97424a8.21059,8.21059,0,0,1,2.75672,3.7688,10.91342,10.91342,0,0,1,.48645,3.50269c-.0614.63574.52112,1.7987,2.09668,2.30981a18.04549,18.04549,0,0,1,5.041,2.05811s1.31079.99768,1.661,1.27282,17.77259,18.62207,17.77259,18.62207a2.46249,2.46249,0,0,0,3.2644,1.06849l11.31079-8.929S145.81836,122.44336,143.16333,120.36816Zm-51.48206-18.4414c-2.29406-.854-3.68164-1.50305-4.3208-2.68921-.23693-.43945.60755-1.54639,1.32178-2.363l6.09607,3.242C94.1543,101.0166,92.94946,102.39893,91.68127,101.92676Z"/>
</svg>
