<svg xmlns="http://www.w3.org/2000/svg" width="150" height="150" viewBox="0 0 150 150">
  <defs>
    <style>
      .cls-1 {
        fill: #e63239;
      }

      .cls-2 {
        fill: #fff;
      }
    </style>
  </defs>
  <g id="Layer_6" data-name="Layer 6">
    <path class="cls-1" d="M147.1625,107.13184,35.9457,100.09277l92.33985-61.4082a1.78847,1.78847,0,0,0-1.10157-3.27441L79.3373,38.40137a1.40824,1.40824,0,0,0-.21777,2.78027l24.92774,5.53906L2.53652,107.99316a1.88159,1.88159,0,0,0,.97266,3.49219H148.90273ZM118.99136,39.78259l-7.82617,3.3913-9.13038-2.34784Z"/>
    <path class="cls-2" d="M73.88,62.87838s10.74192,3.94924,11.05786,11.53177l12.79553-5.52893-7.42456-6.00284,15.639-6.31878S95.83778,55.76975,89.519,47.39737C89.519,47.39737,90.46682,59.877,73.88,62.87838Z"/>
    <polygon class="cls-2" points="109.473 99.783 111.213 105.138 116.844 105.138 112.289 108.448 114.029 113.803 109.473 110.494 104.918 113.803 106.658 108.448 102.102 105.138 107.733 105.138 109.473 99.783"/>
  </g>
</svg>
