<svg id="Layer_2" data-name="Layer 2" xmlns="http://www.w3.org/2000/svg" width="150" height="150" viewBox="0 0 150 150">
  <defs>
    <style>
      .cls-1 {
        fill: #bd1c25;
        stroke: #878076;
        stroke-miterlimit: 10;
        stroke-width: 3px;
      }

      .cls-2 {
        fill: #202c59;
      }

      .cls-3 {
        fill: #424535;
      }

      .cls-4 {
        fill: #dbd7c1;
      }

      .cls-5 {
        fill: #faecda;
      }
    </style>
  </defs>
  <circle class="cls-1" cx="75" cy="81.05233" r="59.99264"/>
  <g>
    <path class="cls-2" d="M95.46039,50.60885S86.2655,40.93,88.32225,37.05848s14.88121.242,20.20457,7.13814c4.22428,5.47237,4.11351,14.51825,4.71843,18.2688s.41082,7.6894,3.28785,7.29708c3.81456-.52017,2.16543-4.18525,1.5605-6.242s-4.00145-9.887-1.9447-11.5808,9.79983,6.29124,9.07391,13.18741-8.227,17.05895-9.31588,18.87373-.26134,3.59909,1.31973,3.274c4.94471-1.01679,5.21349-9.80718,6.7863-12.22689s3.50858-3.14562,4.9604-.48394,1.57281,10.04179-1.57281,13.55037-16.696,9.19489-18.38979,11.37263-1.05671,3.63074,1.28033,3.39286c7.4738-.76075,7.06767-6.17553,12.996-7.50637s5.8073.60493,3.2666,5.44435-11.37263,6.41223-16.696,8.106-13.5122,4.22184-11.00967,6.04928c4.33415,3.165,6.53321-1.08887,9.31588-2.66168s10.52573-4.71844,11.6146-1.20986-9.07391,12.58249-14.39727,13.3084-14.03431-3.75055-20.08358-2.78266-14.27629,5.8073-16.938,8.106-7.50109,4.47646-8.348.48394,4.47646-7.86405,16.09106-11.37263,24.681-8.71095,25.52793-18.14782-1.20985-8.469-2.41971-12.70347-1.81478-7.985.242-8.95292,6.29125,1.20985,6.77519,6.29124.18372,8.96346,1.63554,8.35853,6.76218-3.29439-.54667-14.64977c-5.158-8.01376-6.77519-5.32336-9.1949-11.97756s-1.57281-10.04179.242-10.16278,6.29125,3.75055,8.348,10.04179,2.78267,9.43687,4.23449,8.106.363-7.5011-1.81478-11.73559-7.5011-8.59-9.1949-9.43686A30.55374,30.55374,0,0,1,95.46039,50.60885Z"/>
    <path class="cls-2" d="M54.53961,50.60885S63.7345,40.93,61.67775,37.05848s-14.88121.242-20.20457,7.13814c-4.22428,5.47237-4.11351,14.51825-4.71843,18.2688s-.41082,7.6894-3.28785,7.29708c-3.81456-.52017-2.16543-4.18525-1.5605-6.242s4.00145-9.887,1.9447-11.5808-9.79983,6.29124-9.07391,13.18741,8.227,17.05895,9.31588,18.87373.26134,3.59909-1.31973,3.274c-4.94471-1.01679-5.21349-9.80718-6.7863-12.22689s-3.50858-3.14562-4.9604-.48394-1.57281,10.04179,1.57281,13.55037,16.696,9.19489,18.38979,11.37263,1.05671,3.63074-1.28033,3.39286c-7.4738-.76075-7.06767-6.17553-12.996-7.50637s-5.8073.60493-3.2666,5.44435,11.37263,6.41223,16.696,8.106,13.5122,4.22184,11.00967,6.04928c-4.33415,3.165-6.53321-1.08887-9.31588-2.66168s-10.52573-4.71844-11.6146-1.20986S39.29544,123.68406,44.6188,124.41s14.03431-3.75055,20.08358-2.78266,14.27629,5.8073,16.938,8.106,7.50109,4.47646,8.348.48394-4.47646-7.86405-16.09106-11.37263-24.681-8.71095-25.52793-18.14782,1.20985-8.469,2.41971-12.70347,1.81478-7.985-.242-8.95292-6.29125,1.20985-6.77519,6.29124-.18372,8.96346-1.63554,8.35853-6.76218-3.29439.54667-14.64977c5.158-8.01376,6.77519-5.32336,9.1949-11.97756s1.57281-10.04179-.242-10.16278-6.29125,3.75055-8.348,10.04179-2.78267,9.43687-4.23449,8.106-.363-7.5011,1.81478-11.73559,7.5011-8.59,9.1949-9.43686A30.55374,30.55374,0,0,0,54.53961,50.60885Z"/>
  </g>
  <polygon class="cls-3" points="74.997 39.949 93.106 36.135 93.333 36.135 111.442 39.949 111.442 8.739 93.333 4.925 93.106 4.925 74.997 8.739 74.823 8.739 56.894 4.686 56.667 4.686 38.558 8.501 38.558 39.711 56.667 35.896 56.894 35.896 74.823 39.949 74.997 39.949"/>
  <g>
    <polygon class="cls-4" points="57.812 30.854 57.221 30.854 41.678 34.265 41.678 6.457 57.5 2.985 74.637 7.021 75.177 7.021 92.491 3.222 108.322 6.695 108.322 34.503 92.779 31.092 92.202 31.092 74.924 34.884 57.812 30.854"/>
    <path class="cls-3" d="M57.48718,4.68848,74.06787,8.593l.37573.08838h.9137l.35193-.07715L92.4906,4.92212,106.661,8.03125V32.43677l-13.34936-2.9292-.35193-.07715h-.93824l-.35192.07715L74.93628,33.1792l-16.5564-3.89868-.37573-.08838h-.96387l-.35193.07715L43.339,32.19824V7.793L57.48718,4.68848m.131-3.3833h-.21753L40.01575,5.11987v31.21l17.38488-3.81445h.21753l17.21143,4.053H74.997l17.38489-3.8147h.21753l17.38488,3.8147V5.35815L92.59937,1.5437h-.21753L74.997,5.35815h-.16736l-17.21143-4.053Z"/>
  </g>
  <g>
    <path class="cls-3" d="M66.24707,13.265l-.29492,3.47656h2.02637c2.82226,0,5.17675,2.07813,5.17675,4.5459V24.099a4.85943,4.85943,0,0,1-4.99707,4.73633H66.23828a8.57791,8.57791,0,0,1-4.75976-1.28125l.54882-2.7539a8.7595,8.7595,0,0,0,4.24024.82519h1.15527a1.64141,1.64141,0,0,0,1.71777-1.66113V21.65762a1.643,1.643,0,0,0-1.667-1.6211H63.15918l-1.44531-1.2666.96-8.67773h9.63379V13.265Z"/>
    <path class="cls-3" d="M82.71289,10.07559c3.15723,0,5.11621,1.85058,5.11621,5.63769v7.25488c0,3.66407-2.71,5.83985-6.26074,5.83985H80.11719a19.762,19.762,0,0,1-4.08008-.5459V25.24746a28.73567,28.73567,0,0,0,4.02734.37109h1.28418a2.30337,2.30337,0,0,0,2.38086-2.44433V21.432a12.20959,12.20959,0,0,1-2.375.2793H79.8291c-2.54,0-4.52246-1.63379-4.52246-4.72852V14.8373a4.73221,4.73221,0,0,1,4.95215-4.76171Zm-1.74707,3.17285a1.6485,1.6485,0,0,0-1.62793,1.74023v1.8086a1.6552,1.6552,0,0,0,1.62793,1.74121h1.21387a2.42968,2.42968,0,0,0,1.63476-.54V14.98867a1.64053,1.64053,0,0,0-1.707-1.74023Z"/>
  </g>
  <path d="M116.28213,114.58941a10.04412,10.04412,0,0,1-3.92054-1.76148l-4.16381-4.65576,2.66333-3.96557,1.301,1.699a.48049.48049,0,0,0,.87232.39966l2.94506-4.531a.52233.52233,0,0,0-.11548-.71972.4818.4818,0,0,0-.59936.07153l-2.29553-.6416L95.03054,88.62017l-2.18457,3.303-3.00232-2.0166-2.80432-.70948L28.88125,50.13726a7.96076,7.96076,0,0,0-.91162,1.30518l-6.00525-4.03321L23.578,45.00664l-1.75866-1.18115-1.61353,2.40259L17.0657,44.119l-1.21021,1.802L26.81716,53.283c-.21509.34815-.42163.68433-.60669.98682L19.104,49.49712l-.80689,1.20142,7.16028,4.80884,71.08252,51.18823a6.516,6.516,0,0,0,.25818,3.3999,5.07481,5.07481,0,0,0,1.91748,2.14527,6.19467,6.19467,0,0,0,2.35656,1.01928,3.76414,3.76414,0,0,0,2.93091-1.52173c1.34143,1.92066,2.63391,4.281,2.59265,5.061-.06225,1.17822,1.00586,3.116,2.00159,3.26172s3.60706,2.77124,3.60706,2.77124l14.83532,20.2478c4.75281-2.73437,10.965-11.98413,10.965-11.98413Zm-13.11463-3.97925a1.99228,1.99228,0,0,1-1.88086,1.51953c-.66931-.03979-1.14819-.18994-2.5061-1.33447a2.47758,2.47758,0,0,1-.408-3.24,10.90741,10.90741,0,0,1,3.70825,1.85425A9.937,9.937,0,0,1,103.1675,110.61016Z"/>
  <path class="cls-5" d="M116.28213,108.58941a10.04412,10.04412,0,0,1-3.92054-1.76148l-4.16381-4.65576,2.66333-3.96557,1.301,1.699a.48049.48049,0,0,0,.87232.39966l2.94506-4.531a.52233.52233,0,0,0-.11548-.71972.4818.4818,0,0,0-.59936.07153l-2.29553-.6416L95.03054,82.62017l-2.18457,3.303-3.00232-2.0166-2.80432-.70948L28.88125,44.13726a7.96076,7.96076,0,0,0-.91162,1.30518l-6.00525-4.03321L23.578,39.00664l-1.75866-1.18115-1.61353,2.40259L17.0657,38.119l-1.21021,1.802L26.81716,47.283c-.21509.34815-.42163.68433-.60669.98682L19.104,43.49712l-.80689,1.20142,7.16028,4.80884,71.08252,51.18823a6.516,6.516,0,0,0,.25818,3.3999,5.07481,5.07481,0,0,0,1.91748,2.14527,6.19467,6.19467,0,0,0,2.35656,1.01928,3.76414,3.76414,0,0,0,2.93091-1.52173c1.34143,1.92066,2.63391,4.281,2.59265,5.061-.06225,1.17822,1.00586,3.116,2.00159,3.26172s3.60706,2.77124,3.60706,2.77124l14.83532,20.2478c4.75281-2.73437,10.965-11.98413,10.965-11.98413Zm-13.11463-3.97925a1.99228,1.99228,0,0,1-1.88086,1.51953c-.66931-.03979-1.14819-.18994-2.5061-1.33447a2.47758,2.47758,0,0,1-.408-3.24,10.90741,10.90741,0,0,1,3.70825,1.85425A9.937,9.937,0,0,1,103.1675,104.61016Z"/>
</svg>
