<svg id="Layer_2" data-name="Layer 2" xmlns="http://www.w3.org/2000/svg" width="150" height="150" viewBox="0 0 150 150">
  <defs>
    <style>
      .cls-1, .cls-6 {
        fill: #bd1c25;
      }

      .cls-1 {
        stroke: #878076;
        stroke-miterlimit: 10;
        stroke-width: 3px;
      }

      .cls-2 {
        fill: #202c59;
      }

      .cls-3 {
        fill: #424535;
      }

      .cls-4 {
        fill: #dbd7c1;
      }

      .cls-5 {
        fill: #faecda;
      }
    </style>
  </defs>
  <circle class="cls-1" cx="75" cy="81.05233" r="59.99264"/>
  <g>
    <path class="cls-2" d="M95.46039,50.60885S86.2655,40.93,88.32225,37.05848s14.88121.242,20.20457,7.13814c4.22428,5.47237,4.11351,14.51825,4.71843,18.2688s.41082,7.6894,3.28785,7.29708c3.81456-.52017,2.16543-4.18525,1.5605-6.242s-4.00145-9.887-1.9447-11.5808,9.79983,6.29124,9.07391,13.18741-8.227,17.05895-9.31588,18.87373-.26134,3.59909,1.31973,3.274c4.94471-1.01679,5.21349-9.80718,6.7863-12.22689s3.50858-3.14562,4.9604-.48394,1.57281,10.04179-1.57281,13.55037-16.696,9.19489-18.38979,11.37263-1.05671,3.63074,1.28033,3.39286c7.4738-.76075,7.06767-6.17553,12.996-7.50637s5.8073.60493,3.2666,5.44435-11.37263,6.41223-16.696,8.106-13.5122,4.22184-11.00967,6.04928c4.33415,3.165,6.53321-1.08887,9.31588-2.66168s10.52573-4.71844,11.6146-1.20986-9.07391,12.58249-14.39727,13.3084-14.03431-3.75055-20.08358-2.78266-14.27629,5.8073-16.938,8.106-7.50109,4.47646-8.348.48394,4.47646-7.86405,16.09106-11.37263,24.681-8.71095,25.52793-18.14782-1.20985-8.469-2.41971-12.70347-1.81478-7.985.242-8.95292,6.29125,1.20985,6.77519,6.29124.18372,8.96346,1.63554,8.35853,6.76218-3.29439-.54667-14.64977c-5.158-8.01376-6.77519-5.32336-9.1949-11.97756s-1.57281-10.04179.242-10.16278,6.29125,3.75055,8.348,10.04179,2.78267,9.43687,4.23449,8.106.363-7.5011-1.81478-11.73559-7.5011-8.59-9.1949-9.43686A30.55374,30.55374,0,0,1,95.46039,50.60885Z"/>
    <path class="cls-2" d="M54.53961,50.60885S63.7345,40.93,61.67775,37.05848s-14.88121.242-20.20457,7.13814c-4.22428,5.47237-4.11351,14.51825-4.71843,18.2688s-.41082,7.6894-3.28785,7.29708c-3.81456-.52017-2.16543-4.18525-1.5605-6.242s4.00145-9.887,1.9447-11.5808-9.79983,6.29124-9.07391,13.18741,8.227,17.05895,9.31588,18.87373.26134,3.59909-1.31973,3.274c-4.94471-1.01679-5.21349-9.80718-6.7863-12.22689s-3.50858-3.14562-4.9604-.48394-1.57281,10.04179,1.57281,13.55037,16.696,9.19489,18.38979,11.37263,1.05671,3.63074-1.28033,3.39286c-7.4738-.76075-7.06767-6.17553-12.996-7.50637s-5.8073.60493-3.2666,5.44435,11.37263,6.41223,16.696,8.106,13.5122,4.22184,11.00967,6.04928c-4.33415,3.165-6.53321-1.08887-9.31588-2.66168s-10.52573-4.71844-11.6146-1.20986S39.29544,123.68406,44.6188,124.41s14.03431-3.75055,20.08358-2.78266,14.27629,5.8073,16.938,8.106,7.50109,4.47646,8.348.48394-4.47646-7.86405-16.09106-11.37263-24.681-8.71095-25.52793-18.14782,1.20985-8.469,2.41971-12.70347,1.81478-7.985-.242-8.95292-6.29125,1.20985-6.77519,6.29124-.18372,8.96346-1.63554,8.35853-6.76218-3.29439.54667-14.64977c5.158-8.01376,6.77519-5.32336,9.1949-11.97756s1.57281-10.04179-.242-10.16278-6.29125,3.75055-8.348,10.04179-2.78267,9.43687-4.23449,8.106-.363-7.5011,1.81478-11.73559,7.5011-8.59,9.1949-9.43686A30.55374,30.55374,0,0,0,54.53961,50.60885Z"/>
  </g>
  <polygon class="cls-3" points="74.997 39.949 93.106 36.135 93.333 36.135 111.442 39.949 111.442 8.739 93.333 4.925 93.106 4.925 74.997 8.739 74.823 8.739 56.894 4.686 56.667 4.686 38.558 8.501 38.558 39.711 56.667 35.896 56.894 35.896 74.823 39.949 74.997 39.949"/>
  <g>
    <polygon class="cls-4" points="57.812 30.854 57.221 30.854 41.678 34.265 41.678 6.457 57.5 2.985 74.637 7.021 75.177 7.021 92.491 3.222 108.322 6.695 108.322 34.503 92.779 31.092 92.202 31.092 74.924 34.884 57.812 30.854"/>
    <path class="cls-3" d="M57.48718,4.68848,74.06787,8.593l.37573.08838h.9137l.35193-.07715L92.4906,4.92212,106.661,8.03125V32.43677l-13.34936-2.9292-.35193-.07715h-.93824l-.35192.07715L74.93628,33.1792l-16.5564-3.89868-.37573-.08838h-.96387l-.35193.07715L43.339,32.19824V7.793L57.48718,4.68848m.131-3.3833h-.21753L40.01575,5.11987v31.21l17.38488-3.81445h.21753l17.21143,4.053H74.997l17.38489-3.8147h.21753l17.38488,3.8147V5.35815L92.59937,1.5437h-.21753L74.997,5.35815h-.16736l-17.21143-4.053Z"/>
  </g>
  <g>
    <path class="cls-3" d="M63.18555,10.03164a4.82165,4.82165,0,0,1,4.99707,4.67578v1.001a3.3726,3.3726,0,0,1-1.92188,3.05566,3.61558,3.61558,0,0,1,2.09082,3.25781v2.06055a4.83472,4.83472,0,0,1-4.998,4.72656H61.43359a9.24823,9.24823,0,0,1-4.48437-1.07617l.55957-2.73633a11.61752,11.61752,0,0,0,4.2207.61231h.88965a1.64141,1.64141,0,0,0,1.71777-1.66113V22.00625a1.6601,1.6601,0,0,0-1.71777-1.68945H60.64746V17.38711h1.97168a1.64528,1.64528,0,0,0,1.71777-1.67871V14.893a1.658,1.658,0,0,0-1.71777-1.6875h-.81055a14.03144,14.03144,0,0,0-4.32226.53223L56.92676,11.016a10.52483,10.52483,0,0,1,4.50781-.98438Z"/>
    <path class="cls-3" d="M78.72656,10.07656a4.80774,4.80774,0,0,1,4.93457,4.72852v9.24219A4.82275,4.82275,0,0,1,78.72656,28.809H76.21289a4.83278,4.83278,0,0,1-5.11523-4.76171V14.80508a4.83928,4.83928,0,0,1,5.11523-4.72852ZM76.81934,13.602a1.65754,1.65754,0,0,0-1.69043,1.72461V23.559a1.6555,1.6555,0,0,0,1.69043,1.74024h1.18359A1.63168,1.63168,0,0,0,79.64648,23.559V15.32656A1.63333,1.63333,0,0,0,78.00293,13.602Z"/>
    <path class="cls-3" d="M88.42676,28.64492V14.13516L85.957,14.891l-.98926-3.29688,4.957-1.51758h2.76856V28.64492Z"/>
  </g>
  <g>
    <path d="M112.753,128.91971l-.30529-1.37383-4.65578-6.18227a2.7543,2.7543,0,0,1,.53427-1.45016c.45794-.45794,9.99847-14.12,9.99847-14.12a3.201,3.201,0,0,0-.30529-3.96885c-1.75546-1.90811-5.26638-.07633-5.26638-.07633L97.6408,110.144,82.07066,92.43674,81.689,90.376,107.7156,51.37431s2.90032-4.27416,0-8.09037-7.09816-1.9081-8.92994-.99221-6.9455,5.419-6.9455,5.419L63.44755,72.59244l-6.4494-6.4494a2.42863,2.42863,0,0,0-3.43459,0l-4.15967,4.15967,62.66219,58.54068Z"/>
    <circle cx="98.25139" cy="51.52696" r="5.07312"/>
    <path d="M112.753,129.225l-1.52648.15265L104.251,124.9045a2.75428,2.75428,0,0,0-1.45016.53427c-.458.45794-14.12,9.99847-14.12,9.99847a3.20105,3.20105,0,0,1-3.96886-.3053c-1.90811-1.75545-.07633-5.26637-.07633-5.26637l8.39567-15.11219L75.32416,99.18324l-2.06076-.38162L34.26173,124.82817s-4.27416,2.90032-8.09037,0-1.9081-7.09815-.99221-8.92993,5.419-6.9455,5.419-6.9455L55.47986,80.56013l-6.44939-6.4494a2.42861,2.42861,0,0,1,0-3.43459l4.15967-4.15967,58.87594,61.71632Z"/>
    <circle cx="34.41438" cy="115.36397" r="5.07312"/>
    <path d="M47.26747,63.81581h2.21275A2.21274,2.21274,0,0,1,51.693,66.02856v0a2.21274,2.21274,0,0,1-2.21274,2.21274H47.26747a0,0,0,0,1,0,0V63.81581A0,0,0,0,1,47.26747,63.81581Z" transform="translate(37.77878 147.7056) rotate(-135)"/>
    <rect x="55.44773" y="66.40018" width="1.72702" height="14.13998" transform="translate(44.17804 165.23948) rotate(-135)"/>
    <polygon points="89.207 40.727 94.664 46.871 95.733 45.803 89.703 40.231 89.207 40.727"/>
    <path d="M52.60951,64.45119s5.3427-5.74976,7.73419-7.12359a18.55936,18.55936,0,0,1-2.9512,4.88475l-4.07063,3.15473S52.25333,65.418,52.60951,64.45119Z"/>
    <path d="M47.8598,69.2009S42.11,74.5436,40.73621,76.93509a18.55922,18.55922,0,0,0,4.88474-2.9512l3.15474-4.07063S48.82657,68.84472,47.8598,69.2009Z"/>
    <path d="M81.053,97.32149a2.31091,2.31091,0,0,0,.7378-2.41694,6.48366,6.48366,0,0,0-1.27207-2.34061L68.30686,80.5556l-3.71445-1.32295L63.473,80.35207,80.44241,97.47413Z"/>
    <path d="M80.95124,97.42325a2.3109,2.3109,0,0,1-2.41694.7378A6.48366,6.48366,0,0,1,76.19369,96.889L64.18535,84.67711,62.8624,80.96266l1.11942-1.11942L81.10389,96.81266Z"/>
    <rect x="74.8197" y="88.20929" width="1.04341" height="7.41179" transform="translate(63.62198 210.18346) rotate(-135)"/>
    <rect x="70.62187" y="84.01146" width="1.04341" height="7.41179" transform="translate(59.42414 200.049) rotate(-135)"/>
    <rect x="66.47492" y="79.86451" width="1.04341" height="7.41179" transform="translate(55.27719 190.03738) rotate(-135)"/>
  </g>
  <g>
    <g>
      <path class="cls-5" d="M51.74,70.55927l7.96777-7.96777L56.99817,59.882a2.42893,2.42893,0,0,0-3.43457,0l-.37353.37353-3.78613,3.78613-.37354.37354a2.42874,2.42874,0,0,0,0,3.43457Z"/>
      <path class="cls-5" d="M118.32459,99.53266a3.20126,3.20126,0,0,0-.30518-3.969c-1.75549-1.908-5.26635-.07617-5.26635-.07617L97.64075,103.883,82.07068,86.176l-.38159-2.06079,26.02649-39.00171s2.90027-4.27417,0-8.09033c-2.90027-3.81641-7.09814-1.9082-8.92993-.99219-1.83179.91577-6.94543,5.419-6.94543,5.419L63.44764,66.33149,60.929,63.81269l-7.96777,7.96777,2.51867,2.5188L30.59815,102.69184s-4.50305,5.11377-5.41907,6.94556c-.91577,1.83179-2.824,6.02954.99231,8.92993,3.81616,2.90015,8.09033,0,8.09033,0L73.26343,92.54072l2.06067.38159,17.70728,15.57007-8.39575,15.1123s-1.83167,3.511.07641,5.26636a3.20092,3.20092,0,0,0,3.96887.30542s13.662-9.54053,14.12-9.99853a2.75321,2.75321,0,0,1,1.45019-.53418l6.97535,4.47314,1.52661-.15283-.229-.33057.229.02539-.30542-1.374-4.65576-6.18213a2.75525,2.75525,0,0,1,.5343-1.4502C108.78406,113.19453,118.32459,99.53266,118.32459,99.53266Z"/>
    </g>
    <circle class="cls-6" cx="98.25139" cy="45.26609" r="5.07312"/>
    <circle class="cls-6" cx="34.41438" cy="109.1031" r="5.07312"/>
    <path class="cls-5" d="M47.26747,57.55494h1.45718A2.96831,2.96831,0,0,1,51.693,60.52326v0a1.45717,1.45717,0,0,1-1.45717,1.45717H47.26747a0,0,0,0,1,0,0V57.55494a0,0,0,0,1,0,0Z" transform="translate(42.20588 137.01762) rotate(-135)"/>
    <polygon class="cls-5" points="89.207 34.466 94.664 40.61 95.733 39.542 89.703 33.97 89.207 34.466"/>
    <path class="cls-5" d="M52.60951,58.19032s5.3427-5.74976,7.73419-7.12359a18.55936,18.55936,0,0,1-2.9512,4.88475l-4.07063,3.15473S52.25333,59.15709,52.60951,58.19032Z"/>
    <path class="cls-5" d="M47.8598,62.94s-5.74976,5.3427-7.12359,7.73419A18.55922,18.55922,0,0,0,45.621,67.723l3.15474-4.07063S48.82657,62.58385,47.8598,62.94Z"/>
    <path d="M81.053,91.06062a2.31091,2.31091,0,0,0,.7378-2.41694,6.48366,6.48366,0,0,0-1.27207-2.34061L68.30686,74.29473l-3.71445-1.323L63.473,74.0912,80.44241,91.21327Z"/>
    <path d="M80.95124,91.16238a2.3109,2.3109,0,0,1-2.41694.7378,6.48366,6.48366,0,0,1-2.34061-1.27207L64.18535,78.41624,62.8624,74.70179l1.11942-1.11942L81.10389,90.55179Z"/>
    <rect class="cls-5" x="74.8197" y="81.94842" width="1.04341" height="7.41179" transform="translate(68.04908 199.49549) rotate(-135)"/>
    <rect class="cls-5" x="70.62187" y="77.75059" width="1.04341" height="7.41179" transform="translate(63.85125 189.36102) rotate(-135)"/>
    <rect class="cls-5" x="66.47492" y="73.60364" width="1.04341" height="7.41179" transform="translate(59.7043 179.3494) rotate(-135)"/>
  </g>
  <polygon points="109.304 121.913 98.348 111.152 104.022 121.717 109.304 121.913"/>
  <polygon points="74.609 94.391 57.391 78.739 67.565 98.304 74.609 94.391"/>
</svg>
